<svg width="20" height="21" viewBox="0 0 20 21" fill="none" xmlns="http://www.w3.org/2000/svg">
<path d="M0 10.1326C0.0356621 7.55952 0.860323 5.29401 2.52899 3.37762C3.88898 1.81602 5.57215 0.812982 7.52994 0.302743C8.13378 0.145407 8.74749 0.0540304 9.36906 0.0172697C10.6543 -0.0589825 11.9051 0.115788 13.118 0.571201C14.3593 1.03733 15.4562 1.74754 16.4136 2.69282C17.2284 3.49715 17.8637 4.43654 18.3799 5.47298C18.9114 6.54051 19.2567 7.66434 19.4117 8.85476C19.4812 9.38852 19.5124 9.9246 19.4955 10.4624C19.4171 12.9661 18.5824 15.1574 16.9546 17.002C15.5755 18.5646 13.8784 19.5687 11.8862 20.022C11.3148 20.1521 10.7365 20.2336 10.151 20.247C7.53357 20.3073 5.22561 19.4553 3.25754 17.6546C1.69465 16.2246 0.702967 14.4287 0.239158 12.3168C0.0953004 11.6622 0.0181333 10.998 0.00926812 10.3258C0.00846219 10.2649 0.00362665 10.2042 0.000201481 10.1328L0 10.1326Z" fill="#181818"/>
<path d="M10.2498 19.2427C8.89703 19.2684 7.63535 19.0365 6.42546 18.5203C5.55748 18.1502 4.74652 17.6761 4.04073 17.0253C2.88041 15.9557 2.03197 14.6617 1.49744 13.1453C1.26393 12.4832 1.10758 11.8011 1.02437 11.1016C0.942161 10.4122 0.917379 9.71983 1.00784 9.03062C1.12954 8.10383 1.39025 7.21716 1.77992 6.37355C2.54837 4.70987 3.6821 3.3806 5.17668 2.39415C6.16636 1.74107 7.24347 1.30624 8.39796 1.08589C8.96634 0.977287 9.53955 0.926242 10.117 0.931913C11.0116 0.940736 11.8902 1.06971 12.7397 1.36422C13.3312 1.56924 13.8821 1.87131 14.4035 2.22757C16.0957 3.38396 17.296 4.959 18.0505 6.90858C18.3779 7.75449 18.5818 8.63318 18.6634 9.54233C18.7029 9.98135 18.7251 10.4214 18.6896 10.8611C18.6475 11.3833 18.5467 11.8956 18.4103 12.4C18.0054 13.8954 17.2901 15.2094 16.2708 16.3414C15.2052 17.5249 13.9314 18.376 12.455 18.8901C12.0115 19.0444 11.5489 19.1209 11.0847 19.1793C10.7918 19.2161 10.4976 19.2325 10.2498 19.243V19.2427Z" fill="#F8F2EA"/>
<path d="M10.3792 17.9983C9.16032 18.0207 8.02348 17.8181 6.9333 17.3672C6.1512 17.0438 5.42048 16.6296 4.78453 16.061C3.73901 15.1265 2.97452 13.996 2.49288 12.6711C2.28247 12.0926 2.14159 11.4967 2.06661 10.8855C1.99254 10.2832 1.97021 9.67827 2.05172 9.07611C2.16138 8.26639 2.3963 7.49172 2.74741 6.75467C3.43982 5.30112 4.46138 4.13976 5.80808 3.27791C6.69983 2.70732 7.67038 2.32742 8.71063 2.1349C9.22277 2.04001 9.73927 1.99542 10.2596 2.00037C11.0656 2.00808 11.8574 2.12077 12.6228 2.37807C13.1558 2.5572 13.6521 2.82111 14.122 3.13237C15.6468 4.14269 16.7282 5.51879 17.4081 7.22211C17.7031 7.96118 17.8868 8.72888 17.9604 9.52319C17.996 9.90676 18.0159 10.2913 17.984 10.6754C17.946 11.1316 17.8553 11.5793 17.7324 12.0199C17.3674 13.3264 16.723 14.4744 15.8045 15.4634C14.8443 16.4974 13.6966 17.2411 12.3662 17.6902C11.9666 17.8251 11.5498 17.8919 11.1315 17.9429C10.8676 17.975 10.6025 17.9893 10.3792 17.9985V17.9983Z" fill="#181818"/>
<path d="M2.70886 4.01304C2.91458 3.68996 3.14729 3.38832 3.39591 3.10095C3.53393 2.94151 3.69813 2.80918 3.86718 2.66444C3.50129 3.14485 3.10397 3.57905 2.72599 4.03089C2.71108 4.03446 2.70322 4.03089 2.70886 4.01304Z" fill="#F8F2EA"/>
<path d="M15.6154 2.98025C16.0608 3.35857 16.4652 3.77954 16.8243 4.24734C16.8273 4.26268 16.823 4.27045 16.8067 4.26478C16.4229 3.82281 16.0099 3.41109 15.5964 2.99979C15.5936 2.98382 15.5988 2.97605 15.6152 2.98025H15.6154Z" fill="#F8F2EA"/>
<path d="M19.2781 9.50317C19.3266 9.89599 19.352 10.2899 19.3151 10.6852C19.3014 10.8335 19.2797 10.981 19.2615 11.1288C19.2194 11.1083 19.2474 11.0744 19.247 11.0459C19.2694 10.6787 19.29 10.3115 19.2779 9.94325C19.2732 9.8023 19.2672 9.66135 19.2615 9.5204C19.2561 9.50338 19.2632 9.49918 19.2781 9.50296V9.50317Z" fill="#F8F2EA"/>
<path d="M10.9141 19.5432C10.7071 19.5711 10.5004 19.5999 10.2933 19.6268C10.0987 19.6522 9.90344 19.6734 9.70901 19.7016C9.65764 19.7091 9.60868 19.7007 9.55871 19.6995C9.544 19.6991 9.5164 19.7127 9.51982 19.678C9.52204 19.656 9.53937 19.6474 9.56012 19.6459C9.63426 19.6409 9.70821 19.6329 9.78255 19.6302C10.1168 19.618 10.4486 19.5781 10.7801 19.5337C10.8242 19.5279 10.8687 19.5205 10.9141 19.543V19.5432Z" fill="#F8F2EA"/>
<path d="M6.12487 1.67202C6.52461 1.43822 6.96162 1.30673 7.39581 1.16788C7.41314 1.16178 7.41737 1.16998 7.41435 1.18636C6.9852 1.34055 6.55786 1.5004 6.1416 1.68988C6.12507 1.69492 6.12105 1.68757 6.12487 1.67202Z" fill="#F8F2EA"/>
<path d="M15.1646 17.7792C15.5137 17.4603 15.8711 17.1507 16.1947 16.8016C16.1165 16.9608 15.3844 17.6595 15.1646 17.7792Z" fill="#F8F2EA"/>
<path d="M16.7266 3.35742C16.8793 3.47443 17.4658 4.19242 17.5476 4.35563C17.2526 4.04222 17.0207 3.67209 16.7266 3.35742Z" fill="#F8F2EA"/>
<path d="M15.2116 2.38577C15.0001 2.25763 14.7887 2.12928 14.5771 2.00114C14.8103 2.09 15.0569 2.15386 15.2116 2.38577Z" fill="#F8F2EA"/>
<path d="M2.6602 4.54391C2.80506 4.3265 2.96867 4.124 3.13106 3.92087C3.14234 3.90658 3.15201 3.87297 3.17881 3.89398C3.20843 3.9173 3.18224 3.93599 3.16733 3.95448C3.00393 4.15698 2.84052 4.35969 2.67732 4.56239C2.66302 4.56492 2.65496 4.56092 2.6604 4.54391H2.6602Z" fill="#F8F2EA"/>
<path d="M19.1562 11.9342C19.1141 12.2261 19.0488 12.5125 18.9604 12.7931C18.9555 12.7992 18.9505 12.7994 18.9451 12.7937C19.0158 12.4906 19.0877 12.1879 19.1387 11.8802C19.1768 11.8867 19.1552 11.9144 19.1562 11.9339V11.9342Z" fill="#F8F2EA"/>
<path d="M16.8069 4.26475C16.8127 4.25887 16.8186 4.2532 16.8244 4.24731C17.0199 4.48132 17.1903 4.73445 17.3521 4.99429C17.3575 5.01068 17.3501 5.01341 17.3368 5.01005C17.1736 4.75125 16.9884 4.50947 16.8069 4.26475Z" fill="#F8F2EA"/>
<path d="M19.1564 11.9341C19.1486 11.9168 19.1599 11.8927 19.1389 11.8803C19.175 11.6022 19.211 11.324 19.2471 11.0459C19.2572 11.0726 19.2417 11.1041 19.2616 11.1289C19.2266 11.3973 19.1915 11.6656 19.1566 11.9341H19.1564Z" fill="#F8F2EA"/>
<path d="M18.867 13.1106C18.823 13.3419 18.7297 13.5558 18.652 13.7751C18.6383 13.8137 18.6224 13.8515 18.6074 13.8898C18.5941 13.8916 18.5847 13.8902 18.5935 13.8725C18.684 13.6152 18.7791 13.3594 18.8545 13.0966C18.8605 13.0943 18.8666 13.0922 18.8706 13.0995C18.8722 13.1024 18.87 13.1066 18.8672 13.1106H18.867Z" fill="#F8F2EA"/>
<path d="M19.0054 7.52C19.0797 7.76094 19.1512 8.00273 19.1587 8.25816C19.1075 8.01218 19.0565 7.7662 19.0054 7.52Z" fill="#F8F2EA"/>
<path d="M9.34543 0.739689C9.51951 0.722044 9.69279 0.693476 9.86767 0.688644C9.86848 0.698727 9.86948 0.7086 9.87029 0.718683C9.70084 0.731707 9.5314 0.744731 9.36175 0.757755C9.34563 0.762166 9.341 0.755234 9.34523 0.739479L9.34543 0.739689Z" fill="#F8F2EA"/>
<path d="M0.719322 10.1223V10.6187C0.71086 10.6187 0.702398 10.6183 0.693935 10.6181C0.658072 10.4395 0.720934 10.2643 0.719322 10.1223Z" fill="#F8F2EA"/>
<path d="M1.21499 7.09032C1.18316 7.18065 1.15052 7.27097 1.11969 7.36172C1.11163 7.38546 1.10196 7.40457 1.07537 7.39344C1.04112 7.37894 1.06711 7.35836 1.07476 7.34197C1.11405 7.25753 1.15435 7.17392 1.19444 7.0899C1.20149 7.08297 1.20835 7.08318 1.2152 7.09053L1.21499 7.09032Z" fill="#F8F2EA"/>
<path d="M7.84292 0.917871C7.68818 0.957993 7.53364 0.998115 7.37891 1.03845C7.51853 0.957153 7.67246 0.929005 7.82639 0.900436C7.84211 0.895815 7.84674 0.902537 7.84292 0.918081V0.917871Z" fill="#F8F2EA"/>
<path d="M1.06954 12.7281C0.995393 12.5722 0.974439 12.4008 0.952881 12.2294C0.991767 12.3955 1.03065 12.5619 1.06954 12.7281Z" fill="#F8F2EA"/>
<path d="M2.66019 4.5439C2.66583 4.54999 2.67147 4.55629 2.67711 4.56238C2.60639 4.66384 2.53567 4.76551 2.46495 4.86697C2.45891 4.86277 2.45307 4.85857 2.44702 4.85437C2.51532 4.74913 2.5802 4.64137 2.66019 4.5439Z" fill="#F8F2EA"/>
<path d="M3.94653 17.4089C4.04123 17.4873 4.13593 17.5656 4.23062 17.644C4.08253 17.5728 3.99086 17.4965 3.94653 17.4089Z" fill="#F8F2EA"/>
<path d="M11.3191 0.592679C11.2115 0.584277 11.1037 0.575664 10.9883 0.566632C11.107 0.501933 11.2125 0.577975 11.3211 0.572093C11.3203 0.578815 11.3197 0.585747 11.3189 0.592469L11.3191 0.592679Z" fill="#F8F2EA"/>
<path d="M13.2932 1.43307C13.4175 1.44967 13.5253 1.49945 13.6234 1.57424C13.5134 1.52718 13.4032 1.48013 13.2932 1.43307Z" fill="#F8F2EA"/>
<path d="M7.41453 1.18638C7.40829 1.18028 7.40224 1.17398 7.396 1.16789C7.48626 1.12462 7.58277 1.10592 7.67767 1.08134C7.67968 1.08807 7.6817 1.09479 7.68371 1.10151C7.59385 1.12987 7.50419 1.15802 7.41433 1.18638H7.41453Z" fill="#F8F2EA"/>
<path d="M11.8654 19.4624C11.9421 19.4387 12.0189 19.4148 12.0957 19.391C12.0499 19.4738 11.9657 19.4549 11.8986 19.4805C11.8821 19.4851 11.8634 19.4946 11.8654 19.4624Z" fill="#F8F2EA"/>
<path d="M10.3789 19.8172C10.502 19.8149 10.6235 19.7786 10.7478 19.8029C10.6247 19.8052 10.5036 19.847 10.3789 19.8172Z" fill="#F8F2EA"/>
<path d="M3.66968 16.9007C3.73959 16.9692 3.80971 17.0379 3.87962 17.1064C3.87519 17.1112 3.87055 17.1162 3.86612 17.1211C3.78875 17.0604 3.72106 16.9894 3.66968 16.9007Z" fill="#F8F2EA"/>
<path d="M4.09128 17.3216C4.01693 17.2685 3.94964 17.2074 3.89282 17.134C3.97059 17.1826 4.03849 17.2435 4.10256 17.3095C4.10418 17.3187 4.10035 17.3229 4.09128 17.3216Z" fill="#F8F2EA"/>
<path d="M1.47593 14.1128C1.42677 14.029 1.39453 13.9384 1.38184 13.8395C1.4173 13.9269 1.45276 14.0145 1.48822 14.1019C1.48822 14.1105 1.48419 14.1141 1.47613 14.113L1.47593 14.1128Z" fill="#F8F2EA"/>
<path d="M15.6151 2.98015C15.6089 2.98666 15.6027 2.99317 15.5964 2.99968C15.5483 2.95389 15.5001 2.9081 15.4521 2.8623C15.5188 2.8852 15.5702 2.92826 15.6153 2.98015H15.6151Z" fill="#F8F2EA"/>
<path d="M17.3369 5.01005C17.342 5.0048 17.3472 4.99954 17.3522 4.99429C17.4048 5.05521 17.4409 5.12621 17.4661 5.20519C17.4229 5.14008 17.38 5.07496 17.3369 5.01005Z" fill="#F8F2EA"/>
<path d="M7.84294 0.917915C7.8375 0.912033 7.83186 0.906152 7.82642 0.90027C7.90439 0.873382 7.98357 0.852796 8.06618 0.851746C8.06799 0.853846 8.0696 0.856157 8.07142 0.858258C7.99828 0.891027 7.9197 0.90027 7.84294 0.917705V0.917915Z" fill="#F8F2EA"/>
<path d="M5.25903 18.1621C5.31666 18.1972 5.37448 18.2323 5.43211 18.2671C5.36219 18.2554 5.30336 18.2213 5.25903 18.1621Z" fill="#F8F2EA"/>
<path d="M11.8652 19.4625C11.8692 19.4826 11.8873 19.4745 11.8984 19.4805C11.8295 19.4973 11.7608 19.5144 11.6919 19.5312C11.7447 19.4913 11.8043 19.4749 11.8652 19.4625Z" fill="#F8F2EA"/>
<path d="M19.2781 9.50306C19.2727 9.50895 19.2672 9.51462 19.2616 9.5205C19.2402 9.45937 19.2461 9.39698 19.2606 9.33376L19.2781 9.50306Z" fill="#F8F2EA"/>
<path d="M4.33629 17.5223C4.2831 17.4894 4.23252 17.4528 4.19021 17.4053C4.18981 17.3971 4.19384 17.3942 4.20129 17.3961C4.25408 17.42 4.29156 17.4652 4.33588 17.5009C4.34294 17.5078 4.34314 17.515 4.33629 17.5223Z" fill="#F8F2EA"/>
<path d="M6.1248 1.67201C6.13044 1.67789 6.13588 1.68398 6.14152 1.68986C6.09901 1.72074 6.05187 1.74007 6.00049 1.74847C6.03696 1.71339 6.07806 1.68776 6.1246 1.6718L6.1248 1.67201Z" fill="#F8F2EA"/>
<path d="M9.34568 0.739746C9.35112 0.745838 9.35676 0.75193 9.3622 0.758021C9.30922 0.78617 9.25401 0.772516 9.198 0.759492C9.24716 0.75298 9.29652 0.746258 9.34568 0.739746Z" fill="#F8F2EA"/>
<path d="M1.21509 7.09026C1.20824 7.09026 1.20119 7.08984 1.19434 7.08963C1.21469 7.04279 1.23504 6.99594 1.25538 6.94931C1.25397 7.00141 1.24592 7.05014 1.21509 7.09026Z" fill="#F8F2EA"/>
<path d="M1.55444 6.18631C1.57882 6.13442 1.6032 6.08233 1.62758 6.03044C1.63363 6.03338 1.63987 6.03632 1.64592 6.03926C1.62275 6.09178 1.60824 6.1485 1.55444 6.18631Z" fill="#F8F2EA"/>
<path d="M18.7256 7.73771C18.7137 7.68814 18.7018 7.63856 18.6899 7.58899C18.7248 7.62575 18.7397 7.66944 18.7403 7.71818C18.748 7.73498 18.7403 7.73939 18.7254 7.73771H18.7256Z" fill="#F8F2EA"/>
<path d="M18.5934 13.8726C18.5981 13.8782 18.6027 13.8841 18.6073 13.8898C18.5924 13.9337 18.5757 13.9765 18.5354 14.0232C18.5503 13.961 18.5682 13.9154 18.5934 13.8726Z" fill="#F8F2EA"/>
<path d="M2.70885 4.01312C2.71449 4.019 2.72033 4.0251 2.72597 4.03098C2.70683 4.07635 2.67218 4.10849 2.63672 4.14084C2.65102 4.09211 2.67399 4.04904 2.70885 4.01312Z" fill="#F8F2EA"/>
<path d="M1.48816 14.1019C1.51355 14.1482 1.53753 14.1946 1.54276 14.2496C1.51214 14.2084 1.48716 14.1645 1.47607 14.1131C1.4801 14.1093 1.48413 14.1057 1.48816 14.1019Z" fill="#F8F2EA"/>
<path d="M4.33634 17.5223C4.33634 17.5152 4.33614 17.508 4.33594 17.5009C4.37583 17.5248 4.4123 17.5532 4.4399 17.5939C4.40142 17.5765 4.36273 17.5597 4.33634 17.5225V17.5223Z" fill="#F8F2EA"/>
<path d="M18.5974 7.18812C18.5664 7.15262 18.5432 7.11418 18.5515 7.04759C18.5706 7.1062 18.5841 7.14716 18.5974 7.18812Z" fill="#F8F2EA"/>
<path d="M18.7256 7.73768C18.7306 7.73116 18.7355 7.72465 18.7405 7.71814C18.7606 7.75721 18.7665 7.79943 18.7602 7.84481C18.7488 7.8091 18.7371 7.77339 18.7256 7.73768Z" fill="#F8F2EA"/>
<path d="M18.9454 12.7937C18.9506 12.796 18.9556 12.7956 18.9607 12.7931C18.9492 12.8313 18.9377 12.8698 18.9194 12.9309C18.9129 12.8647 18.9234 12.828 18.9454 12.7939V12.7937Z" fill="#F8F2EA"/>
<path d="M8.06592 0.851906C8.10783 0.82985 8.15175 0.820187 8.21522 0.827959C8.15658 0.840353 8.11649 0.861569 8.07116 0.858418C8.06934 0.856318 8.06773 0.854007 8.06592 0.851906Z" fill="#F8F2EA"/>
<path d="M4.19044 17.4053C4.15739 17.3774 4.12435 17.3496 4.09131 17.3217C4.09514 17.3177 4.09876 17.3135 4.10259 17.3095C4.14027 17.3326 4.17351 17.3612 4.20152 17.3961C4.19668 17.3975 4.19306 17.4007 4.19044 17.4053Z" fill="#F8F2EA"/>
<path d="M18.8669 13.1106C18.8627 13.106 18.8585 13.1012 18.8542 13.0966C18.8643 13.06 18.8744 13.0235 18.8845 12.9869C18.8899 13.0306 18.8915 13.0732 18.8667 13.1106H18.8669Z" fill="#F8F2EA"/>
<path d="M9.85826 9.55437C9.90332 9.38572 9.9469 9.2178 10.0034 9.05359C10.2871 8.22585 10.7343 7.4939 11.3057 6.83445C11.712 6.36399 12.1696 5.94864 12.7007 5.61984C13.0933 5.3761 13.5132 5.20634 13.9742 5.14716C14.0865 5.13583 14.2 5.14934 14.3066 5.18673C14.4617 5.23629 14.5245 5.35687 14.5311 5.50666C14.5433 5.77703 14.4613 6.0104 14.2519 6.19533C13.7718 6.61808 13.3031 7.05118 12.8554 7.50759C12.4994 7.87079 12.2073 8.28429 11.928 8.70888C11.3659 9.5656 10.9523 10.5112 10.7044 11.5057C10.6305 11.8038 10.6017 12.1108 10.5663 12.4163C10.5046 12.9482 10.4954 13.4826 10.4821 14.0171C10.4725 14.4161 10.4847 14.8167 10.4348 15.2143C10.4104 15.4074 10.3783 15.5967 10.2608 15.7643C10.2238 15.8163 10.1768 15.8606 10.1226 15.8944C10.0684 15.9282 10.0081 15.9509 9.94506 15.9612C9.88204 15.9715 9.81762 15.9692 9.75549 15.9545C9.69337 15.9397 9.63477 15.9128 9.5831 15.8752C9.35115 15.7032 9.26584 15.4787 9.25919 15.1965C9.24273 14.437 9.17883 13.6793 9.06787 12.9278C8.93357 11.9978 8.7069 11.0836 8.39124 10.1987C8.15568 9.53741 7.85633 8.90071 7.49744 8.2976C7.13955 7.7025 6.71887 7.15696 6.20069 6.69205C5.92234 6.43687 5.61283 6.21802 5.27956 6.04073C5.18585 5.99349 5.09723 5.93672 5.01511 5.87134C4.74549 5.64942 4.79351 5.31248 5.10819 5.16602C5.34235 5.05802 5.58168 5.06505 5.82581 5.11979C6.41454 5.25109 6.93087 5.53144 7.40695 5.89279C8.01994 6.36412 8.54506 6.94006 8.95818 7.59413C9.34088 8.18235 9.63379 8.82447 9.82723 9.49926C9.83277 9.51739 9.83055 9.54069 9.85826 9.55437ZM7.05571 5.98747C7.05704 5.99 7.05891 5.9922 7.06119 5.99391C7.06347 5.99562 7.0661 5.9968 7.0689 5.99737C7.07169 5.99794 7.07457 5.99787 7.07734 5.99719C7.08011 5.9965 7.08268 5.9952 7.08489 5.99339C7.09301 5.98599 7.08489 5.97749 7.07602 5.97342C6.7711 5.69958 6.42432 5.47644 6.04889 5.31248C5.77373 5.19228 5.49488 5.20153 5.21788 5.30102C5.04761 5.36131 4.99628 5.47818 5.05278 5.65127C5.09304 5.7737 5.17799 5.85802 5.28141 5.92904C5.68214 6.20421 6.08065 6.48086 6.45073 6.79968C6.88544 7.17434 7.30021 7.56528 7.62819 8.0387C7.78516 8.26357 7.96059 8.47735 8.08838 8.72072C8.3942 9.2988 8.60546 9.9135 8.78643 10.5404C9.03806 11.4057 9.20517 12.2935 9.28541 13.1912C9.34155 13.8355 9.37885 14.4809 9.42761 15.1255C9.44792 15.3896 9.52437 15.6219 9.80729 15.7325C10.0392 15.8234 10.2228 15.7465 10.283 15.5068C10.3432 15.2672 10.345 15.026 10.3517 14.7849C10.3691 14.1432 10.372 13.5011 10.4163 12.8616C10.4256 12.7329 10.4163 12.6027 10.4163 12.4548C10.3671 12.6002 10.3264 12.7484 10.2944 12.8986C10.2073 13.3217 10.2106 13.7522 10.1932 14.1809C10.1836 14.4191 10.1825 14.6573 10.1511 14.8944C10.1511 14.7535 10.143 14.6118 10.1511 14.4713C10.1833 13.8935 10.1969 13.3143 10.2486 12.7374C10.2833 12.2841 10.3431 11.8332 10.4278 11.3866C10.5504 10.7834 10.755 10.2031 10.9977 9.63944C11.3537 8.80911 11.7906 8.02908 12.3801 7.3393C12.7768 6.87513 13.2396 6.4853 13.723 6.11877C13.8959 5.98747 14.082 5.87467 14.2427 5.72746C14.2858 5.68767 14.3114 5.63241 14.3139 5.57376C14.3163 5.51512 14.2955 5.45788 14.256 5.41457C14.2043 5.36168 14.1334 5.35909 14.0684 5.35206C13.6654 5.30805 13.2968 5.43232 12.9529 5.62095C12.3949 5.92645 11.9399 6.3577 11.5454 6.85627C10.7251 7.89187 10.1788 9.06172 9.87783 10.3462C9.82391 10.5755 9.78513 10.8086 9.73637 11.0556C9.67395 10.7117 9.63 10.3832 9.54616 10.0611C9.35226 9.3136 9.10296 8.59053 8.70149 7.92552C8.44553 7.50167 8.18109 7.08521 7.83539 6.72682C7.59783 6.48799 7.34114 6.26904 7.0679 6.07217C6.64242 5.75483 6.18998 5.48891 5.68288 5.33801C5.72807 5.33247 5.7739 5.33536 5.81805 5.34651C5.96722 5.38744 6.11075 5.4467 6.24538 5.52293C6.52238 5.66792 6.77723 5.84619 7.05571 5.98636V5.98747ZM14.3819 5.58507C14.3569 5.70388 14.2948 5.81165 14.2046 5.89279C14.1368 5.9628 14.0626 6.02632 13.983 6.08253C13.3204 6.55653 12.7304 7.12483 12.2316 7.76944C11.5668 8.61827 11.039 9.54476 10.7055 10.5741C10.5449 11.0704 10.4407 11.5775 10.4536 12.1034C10.4536 12.1356 10.44 12.1774 10.4906 12.1937C10.5183 11.998 10.5415 11.8031 10.5748 11.6097C10.6763 11.0179 10.8835 10.4594 11.1439 9.92053C11.6214 8.93546 12.2383 8.02449 12.9755 7.21577C13.1781 6.98502 13.3962 6.76828 13.6281 6.56704C13.8039 6.4191 13.9974 6.29446 14.1566 6.12654C14.2977 5.97453 14.3912 5.79922 14.3819 5.58507ZM9.73563 10.3418C9.74753 10.3269 9.75538 10.3091 9.75843 10.2903C9.76147 10.2714 9.75959 10.2521 9.75299 10.2342C9.73305 10.0829 9.70756 9.93311 9.67285 9.78442C9.43286 8.75158 8.94918 7.79137 8.26234 6.98424C8.0539 6.73537 7.82429 6.50507 7.57611 6.29593C7.55432 6.27781 7.5281 6.25377 7.50557 6.28077C7.48304 6.30777 7.52182 6.32145 7.53733 6.33477C7.65756 6.43938 7.77198 6.5505 7.88007 6.66764C8.21947 7.04773 8.51818 7.46239 8.77129 7.90481C9.1325 8.5221 9.44164 9.16232 9.63 9.85692C9.67174 10.0141 9.70239 10.1724 9.73563 10.3418Z" fill="#F8F2EA"/>
<path d="M7.05561 5.98637C6.77712 5.84619 6.52228 5.66792 6.24528 5.52294C6.1106 5.44709 5.96706 5.3882 5.81795 5.34763C5.7738 5.33647 5.72797 5.33359 5.68277 5.33912C6.19135 5.48965 6.64305 5.75558 7.06816 6.07291C7.34141 6.26978 7.5981 6.48873 7.83565 6.72756C8.18135 7.08595 8.4458 7.50241 8.70175 7.92627C9.10285 8.59201 9.35253 9.31434 9.54643 10.0618C9.63027 10.384 9.67422 10.7124 9.73664 11.0564C9.78539 10.8093 9.82417 10.5756 9.8781 10.347C10.1787 9.06173 10.7254 7.89335 11.5453 6.85627C11.9394 6.3577 12.3948 5.92645 12.9536 5.62021C13.2974 5.43158 13.666 5.30731 14.069 5.35132C14.134 5.35835 14.2049 5.36094 14.2566 5.41383C14.2962 5.45714 14.317 5.51439 14.3145 5.57303C14.312 5.63167 14.2864 5.68694 14.2433 5.72673C14.0827 5.87467 13.8965 5.98563 13.7237 6.11804C13.2402 6.48531 12.7774 6.87513 12.3807 7.33856C11.7898 8.02835 11.3543 8.80838 10.9983 9.6387C10.7556 10.2042 10.551 10.7827 10.4284 11.3859C10.3437 11.8325 10.2839 12.2834 10.2493 12.7366C10.1976 13.3136 10.1839 13.8928 10.1518 14.4705C10.144 14.6111 10.1518 14.7527 10.1518 14.8936C10.1832 14.6566 10.1843 14.4184 10.1939 14.1802C10.2112 13.7515 10.2079 13.321 10.2951 12.8979C10.327 12.7477 10.3677 12.5995 10.417 12.4541C10.417 12.602 10.4247 12.7311 10.417 12.8609C10.3726 13.5015 10.3697 14.1436 10.3523 14.7842C10.3457 15.0257 10.3427 15.2694 10.2836 15.5061C10.2245 15.7428 10.0399 15.8227 9.80792 15.7317C9.52501 15.6208 9.44855 15.3889 9.42824 15.1248C9.37949 14.4801 9.34219 13.8347 9.28605 13.1904C9.20581 12.2928 9.0387 11.405 8.78707 10.5397C8.60683 9.91277 8.39483 9.29807 8.08902 8.71998C7.96049 8.47661 7.78579 8.26284 7.62882 8.03796C7.29937 7.56455 6.88608 7.17361 6.45137 6.79894C6.08203 6.48013 5.68277 6.20347 5.28204 5.9283C5.17863 5.85729 5.09368 5.77296 5.05342 5.65054C4.99654 5.47745 5.04825 5.36057 5.21851 5.30028C5.49589 5.20153 5.77252 5.19155 6.04953 5.31175C6.4248 5.47563 6.77145 5.69864 7.07629 5.97231L7.05561 5.98637ZM7.90804 8.28318L7.92355 8.28799L7.91801 8.27245L7.90509 8.26062C7.89733 8.26912 7.90176 8.27652 7.90804 8.28318ZM7.6543 7.92109L7.66575 7.9381L7.6857 7.96473L7.69641 7.98286C7.72854 8.05313 7.79465 8.0964 7.83491 8.16002C7.84759 8.2003 7.87366 8.23501 7.90878 8.2584C7.89629 8.21769 7.87569 8.17994 7.84821 8.14744C7.82309 8.07347 7.7592 8.02687 7.71008 7.97065L7.699 7.95364C7.69272 7.94402 7.68607 7.93477 7.67979 7.92553L7.66871 7.90814C7.6628 7.90334 7.65874 7.89002 7.6484 7.89927C7.63805 7.90851 7.64913 7.91443 7.6543 7.92109ZM6.1559 6.41281L6.17621 6.408L6.16845 6.39913L6.15627 6.41392C6.15627 6.40727 6.17436 6.40135 6.15627 6.39395L6.1559 6.41281ZM7.59115 7.83528L7.60998 7.86043C7.61885 7.87227 7.62513 7.89742 7.64212 7.88373C7.65911 7.87005 7.63473 7.85562 7.62365 7.84416L7.60518 7.82123C7.59632 7.81013 7.58635 7.80495 7.57379 7.81494L7.59115 7.83528ZM6.27335 6.49677L6.36088 6.57518C6.46756 6.68066 6.58201 6.77796 6.70326 6.86626C6.60059 6.75801 6.49064 6.65692 6.37418 6.56371C6.34957 6.53235 6.31811 6.50704 6.28221 6.48974C6.25518 6.45335 6.21787 6.4259 6.1751 6.41096C6.20319 6.44452 6.23633 6.47347 6.27335 6.49677ZM6.06171 6.30334L6.06504 6.31369L6.06245 6.30445C6.05359 6.2645 6.09606 6.31295 6.09496 6.28262C6.01733 6.23072 5.93421 6.18756 5.84713 6.15391C5.91361 6.22862 6.00705 6.23565 6.06171 6.30334ZM9.57044 13.2256H9.55086C9.55308 13.5392 9.55973 13.8525 9.62473 14.1617C9.60675 13.8498 9.58903 13.5377 9.57154 13.2256H9.57044ZM11.761 7.33524C11.619 7.48692 11.4979 7.65696 11.4009 7.84083C11.5501 7.69511 11.6528 7.51462 11.761 7.33524ZM9.65575 12.9693C9.65391 12.7965 9.71854 12.6223 9.64209 12.4293C9.65021 12.6242 9.59592 12.7973 9.65538 12.9704L9.65575 12.9693ZM9.87736 15.2502C9.87145 15.161 9.86591 15.0715 9.85852 14.9824C9.85852 14.9687 9.85409 14.9495 9.83636 14.948C9.81863 14.9465 9.80903 14.9635 9.80681 14.9772C9.79549 15.0462 9.79338 15.1163 9.80054 15.1858C9.80423 15.2295 9.85261 15.2254 9.87736 15.2502ZM12.8904 6.2878L12.8642 6.26265C12.7508 6.30371 12.6869 6.40579 12.6031 6.48272C12.5999 6.48585 12.5975 6.48967 12.596 6.49388C12.5946 6.49809 12.5941 6.50258 12.5946 6.50701C12.5952 6.51143 12.5967 6.51568 12.5991 6.51942C12.6015 6.52316 12.6048 6.52629 12.6086 6.52858C12.6267 6.54115 12.6348 6.52266 12.6456 6.51341L12.8904 6.2878ZM12.609 6.11064L12.5953 6.09769C12.5167 6.15326 12.4444 6.21726 12.3796 6.28854C12.3693 6.30038 12.3397 6.31591 12.3645 6.33477C12.3789 6.34587 12.4088 6.35807 12.4262 6.33773C12.4886 6.2645 12.5484 6.18868 12.609 6.11175V6.11064ZM6.22681 6.09252L6.62348 6.29039C6.50591 6.19836 6.37099 6.13105 6.22681 6.09252ZM8.8059 9.56917C8.80185 9.44431 8.75956 9.32371 8.68476 9.22373L8.8059 9.56917ZM13.5811 5.86025C13.653 5.82567 13.7169 5.77641 13.7687 5.71563C13.669 5.71415 13.6417 5.80958 13.5811 5.86025ZM10.0277 11.343L9.99776 11.5516L10.0177 11.5546C10.0229 11.4836 10.0495 11.4148 10.0277 11.343ZM10.0982 10.1077C10.0491 10.1791 10.0402 10.2634 10.0244 10.3455C10.0657 10.273 10.0909 10.1924 10.0982 10.1092V10.1077ZM7.93648 8.31536L7.9387 8.31166H7.93537L7.93648 8.31536Z" fill="#181818"/>
<path d="M14.3817 5.58508C14.391 5.79922 14.2975 5.97454 14.1553 6.12581C13.9973 6.29372 13.8026 6.4191 13.6268 6.56631C13.3949 6.76755 13.1769 6.98428 12.9742 7.21503C12.237 8.02376 11.6201 8.93473 11.1426 9.9198C10.8823 10.4587 10.6751 11.0164 10.5735 11.6089C10.5403 11.8024 10.517 11.9973 10.4893 12.1929C10.4398 12.1748 10.4524 12.1349 10.4524 12.1027C10.4394 11.5768 10.5436 11.0697 10.7042 10.5733C11.0366 9.54291 11.5644 8.61753 12.2303 7.76871C12.7294 7.12401 13.3198 6.55571 13.9829 6.08179C14.0625 6.02559 14.1367 5.96207 14.2045 5.89206C14.2945 5.81111 14.3566 5.70362 14.3817 5.58508Z" fill="#181818"/>
<path d="M9.73566 10.3418C9.70279 10.1724 9.67213 10.0141 9.63003 9.8584C9.44167 9.16455 9.13253 8.52359 8.77132 7.9063C8.51806 7.46398 8.21924 7.04945 7.87973 6.66949C7.77163 6.55236 7.65721 6.44123 7.53699 6.33662C7.52147 6.32331 7.48011 6.31258 7.50522 6.28262C7.53034 6.25267 7.55398 6.27967 7.57577 6.29779C7.82395 6.50693 8.05355 6.73722 8.262 6.98609C8.94884 7.79322 9.43251 8.75343 9.6725 9.78628C9.70722 9.93422 9.73271 10.0848 9.75265 10.236C9.75897 10.2537 9.76072 10.2726 9.75775 10.2911C9.75478 10.3096 9.74718 10.327 9.73566 10.3418Z" fill="#181818"/>
<path d="M7.07668 5.97231C7.08575 5.97647 7.09406 5.98517 7.08575 5.99274C7.08349 5.99459 7.08086 5.99592 7.07803 5.99662C7.0752 5.99732 7.07225 5.99739 7.06939 5.99681C7.06654 5.99623 7.06384 5.99502 7.06151 5.99327C7.05918 5.99152 7.05727 5.98927 7.05591 5.98669L7.07668 5.97231Z" fill="#181818"/>
<path d="M9.57159 13.2256C9.58932 13.5377 9.60692 13.8496 9.6244 14.1613C9.56051 13.8521 9.55386 13.5388 9.55054 13.2252L9.57159 13.2256Z" fill="#F8F2EA"/>
<path d="M11.761 7.33524C11.6528 7.51351 11.5501 7.694 11.4009 7.84083C11.4978 7.65696 11.619 7.48692 11.761 7.33524Z" fill="#F8F2EA"/>
<path d="M9.65543 12.9704C9.59597 12.7973 9.65026 12.6242 9.64176 12.4304C9.71822 12.6242 9.65358 12.7976 9.65543 12.9704Z" fill="#F8F2EA"/>
<path d="M9.87736 15.2502C9.85261 15.2243 9.80349 15.2283 9.80053 15.1858C9.79338 15.1163 9.79549 15.0462 9.80681 14.9772C9.80903 14.9635 9.81863 14.9465 9.83636 14.948C9.85409 14.9495 9.85741 14.9687 9.85852 14.9824C9.86591 15.0726 9.87145 15.1621 9.87736 15.2502Z" fill="#F8F2EA"/>
<path d="M12.8905 6.28891L12.6449 6.51453C12.6349 6.52377 12.6268 6.54227 12.608 6.52969C12.6041 6.5274 12.6009 6.52427 12.5985 6.52053C12.596 6.51679 12.5945 6.51255 12.594 6.50812C12.5934 6.50369 12.5939 6.4992 12.5954 6.49499C12.5968 6.49078 12.5993 6.48696 12.6024 6.48383C12.6863 6.4069 12.7502 6.30482 12.8635 6.26376L12.8905 6.28891Z" fill="#F8F2EA"/>
<path d="M12.6091 6.11175C12.5485 6.18757 12.4887 6.2645 12.4263 6.33884C12.4089 6.35918 12.379 6.34697 12.3646 6.33588C12.3399 6.31702 12.3694 6.30148 12.3798 6.28965C12.4445 6.21836 12.5168 6.15437 12.5954 6.0988L12.6091 6.11175Z" fill="#F8F2EA"/>
<path d="M6.37462 6.56371C6.49109 6.65692 6.60104 6.758 6.70371 6.86626C6.58246 6.77796 6.46801 6.68066 6.36133 6.57518L6.37462 6.56371Z" fill="#F8F2EA"/>
<path d="M6.22681 6.09251C6.37099 6.13105 6.50591 6.19835 6.62348 6.29039L6.22681 6.09251Z" fill="#F8F2EA"/>
<path d="M8.804 9.57065L8.68286 9.2252C8.75766 9.32519 8.79995 9.44579 8.804 9.57065Z" fill="#F8F2EA"/>
<path d="M6.06175 6.30296C6.00709 6.23565 5.91402 6.22899 5.84717 6.15502C5.93425 6.18866 6.01737 6.23183 6.09499 6.28373C6.09499 6.31406 6.05363 6.26561 6.06249 6.30555L6.06175 6.30296Z" fill="#F8F2EA"/>
<path d="M13.5811 5.86024C13.6416 5.80957 13.669 5.7123 13.7687 5.71563C13.7169 5.77641 13.653 5.82567 13.5811 5.86024Z" fill="#F8F2EA"/>
<path d="M7.71057 7.97065C7.75969 8.02687 7.82359 8.07199 7.8487 8.14744L7.83504 8.16002C7.79478 8.0964 7.72867 8.05313 7.69653 7.98286L7.71057 7.97065Z" fill="#5C5C5C"/>
<path d="M10.0277 11.343C10.0495 11.4148 10.0229 11.4835 10.0177 11.5553L9.9978 11.5523L10.0277 11.343Z" fill="#F8F2EA"/>
<path d="M10.0983 10.1092C10.0912 10.1929 10.066 10.274 10.0244 10.347C10.0403 10.2634 10.0492 10.1791 10.0983 10.1092Z" fill="#5C5C5C"/>
<path d="M6.27329 6.49677C6.23633 6.47369 6.20319 6.445 6.17505 6.41171C6.21782 6.42664 6.25513 6.45409 6.28216 6.49048L6.27329 6.49677Z" fill="#F8F2EA"/>
<path d="M6.2823 6.49049C6.3182 6.50778 6.34966 6.53309 6.37427 6.56446L6.36097 6.57592L6.27344 6.49751L6.2823 6.49049Z" fill="#F8F2EA"/>
<path d="M7.8485 8.14893C7.87598 8.18143 7.89659 8.21917 7.90907 8.25988C7.87395 8.2365 7.84789 8.20178 7.83521 8.1615L7.8485 8.14893Z" fill="#5C5C5C"/>
<path d="M7.62408 7.84416C7.63541 7.85589 7.6577 7.87177 7.64297 7.88463C7.62824 7.8975 7.61917 7.87291 7.61011 7.8608L7.62408 7.84416Z" fill="#5C5C5C"/>
<path d="M7.6805 7.92701L7.70014 7.95576L7.68617 7.9671L7.66577 7.93987L7.6805 7.92701Z" fill="#5C5C5C"/>
<path d="M7.59148 7.83624L7.57373 7.81506C7.58657 7.80485 7.59677 7.81014 7.60584 7.82149L7.59148 7.83624Z" fill="#5C5C5C"/>
<path d="M7.61033 7.86132L7.59106 7.83598L7.60542 7.82123L7.6243 7.84468L7.61033 7.86132Z" fill="#5C5C5C"/>
<path d="M6.06252 6.30446L6.06517 6.31384L6.06177 6.30334L6.06252 6.30446Z" fill="#F8F2EA"/>
<path d="M6.15601 6.41362V6.39395C6.17392 6.40152 6.15601 6.40757 6.15601 6.41438V6.41362Z" fill="#F8F2EA"/>
<path d="M6.15638 6.41426L6.16885 6.39913L6.17678 6.40821L6.15601 6.41313L6.15638 6.41426Z" fill="#F8F2EA"/>
<path d="M7.65438 7.92143C7.64914 7.91468 7.63866 7.90793 7.64877 7.89931C7.65888 7.89068 7.66337 7.90343 7.66936 7.9083L7.65438 7.92143Z" fill="#5C5C5C"/>
<path d="M7.66941 7.90814L7.68074 7.92592L7.66601 7.93878C7.66223 7.93311 7.65845 7.92705 7.6543 7.92138L7.66941 7.90814Z" fill="#5C5C5C"/>
<path d="M7.69977 7.95364L7.7111 7.97104L7.69674 7.98352L7.68579 7.96498L7.69977 7.95364Z" fill="#5C5C5C"/>
<path d="M7.90813 8.28349C7.9017 8.27674 7.89717 8.26924 7.9051 8.26062L7.91833 8.27262L7.90813 8.28349Z" fill="#5C5C5C"/>
<path d="M7.91816 8.27245L7.92383 8.2882L7.90796 8.28333L7.91816 8.27245Z" fill="#5C5C5C"/>
<path d="M7.93654 8.31599L7.9353 8.31092L7.93903 8.31176L7.93654 8.31599Z" fill="#5C5C5C"/>
</svg>
