<svg xmlns="http://www.w3.org/2000/svg" width="43" height="41" viewBox="0 0 43 41" fill="none">
  <path d="M30.9939 34.3952C30.9477 34.4644 30.8804 34.5187 30.8011 34.5508C29.9761 35.0297 29.0819 35.3911 28.1469 35.6235C27.4043 35.8149 26.665 36.0125 25.9069 36.147C24.6528 36.3643 23.3843 36.4977 22.1106 36.5461C20.9236 36.5919 19.7346 36.5563 18.5529 36.4395C16.8855 36.2746 15.2599 35.9401 13.6995 35.3333C13.1815 35.1363 12.6843 34.893 12.2144 34.6068C12.1498 34.5679 12.0583 34.5453 12.0444 34.4512C12.1858 34.4831 12.2724 34.4061 12.3385 34.3065C12.4317 34.1667 12.4958 34.0111 12.5272 33.8483C12.6269 33.3395 12.6089 32.8207 12.6579 32.3072C12.7437 31.4515 12.8123 30.5912 13.0509 29.7541C13.2535 29.0416 13.4594 28.3305 13.818 27.6717C14.3245 26.7382 15.0703 26.0093 15.9232 25.3628C16.8594 24.6533 17.8463 23.9991 18.6607 23.1527C18.7032 23.1084 18.731 23.1092 18.7784 23.1473C19.0337 23.3481 19.3186 23.5121 19.6239 23.6343C21.2577 24.3188 22.8058 24.1897 24.2616 23.1893C24.3212 23.1481 24.3678 23.0664 24.443 23.1893C24.8334 23.8031 25.3808 24.2784 25.9412 24.7451C26.3088 25.0509 26.7009 25.3325 27.0253 25.6786C27.8524 26.568 28.5613 27.5509 29.1362 28.6052C30.0405 30.2574 30.4751 32.0404 30.6794 33.881C30.7039 34.1042 30.7627 34.2933 30.9939 34.3952Z" fill="#F8F2EA"/>
  <path d="M30.9938 34.3952C30.7626 34.2933 30.7038 34.1043 30.6793 33.881C30.475 32.0405 30.0404 30.2575 29.1361 28.6052C28.5613 27.5506 27.8523 26.5675 27.0252 25.6779C26.6984 25.3302 26.3087 25.0486 25.9411 24.7444C25.3807 24.2776 24.8333 23.8008 24.4428 23.1886C24.3677 23.0695 24.3211 23.1512 24.2615 23.1886C22.8057 24.189 21.2544 24.3181 19.6238 23.6335C19.3185 23.5114 19.0336 23.3473 18.7783 23.1466C18.7309 23.1084 18.7031 23.1077 18.6606 23.152C17.8437 23.9984 16.8593 24.6526 15.9231 25.3621C15.0702 26.0085 14.3244 26.7405 13.8179 27.6709C13.4584 28.3298 13.2534 29.0408 13.0508 29.7534C12.8122 30.5904 12.7436 31.4485 12.6578 32.3065C12.6072 32.8199 12.6268 33.3388 12.5271 33.8475C12.4957 34.0104 12.4316 34.1659 12.3384 34.3057C12.2723 34.4053 12.1857 34.4823 12.0443 34.4504C11.9185 34.4232 11.8515 34.3283 11.7796 34.2404C11.7796 34.2248 11.7894 34.2069 11.7837 34.1945C11.5909 33.7495 11.5844 33.2804 11.5819 32.8098C11.5754 31.7542 11.7715 30.7258 12.0419 29.7083C12.5279 27.8794 13.4307 26.2893 14.9403 25.0252C15.6927 24.3943 16.4982 23.8257 17.2351 23.1784C17.6288 22.8323 18.03 22.4939 18.3608 22.0894C18.3763 22.0894 18.3919 22.0777 18.3804 22.0614C18.369 22.045 18.3551 22.0614 18.3412 22.0614C18.1573 22.1234 17.9678 22.169 17.7751 22.1975C17.3535 22.2753 16.9451 22.2543 16.566 22.0349C16.3945 21.9361 16.2237 21.8342 16.044 21.7518C15.3333 21.4289 14.8864 21.4841 14.4379 22.0092C14.4314 22.0178 14.424 22.0256 14.4183 22.0341C14.411 22.0496 14.3999 22.0632 14.386 22.0737C14.372 22.0842 14.3555 22.0913 14.338 22.0944C14.3205 22.0976 14.3025 22.0966 14.2855 22.0917C14.2684 22.0867 14.2529 22.0779 14.2402 22.066C14.0499 21.9455 13.8955 21.8 13.8318 21.5822C13.776 21.3824 13.7528 21.1756 13.7631 20.9692C13.7882 20.5239 13.9204 20.09 14.1496 19.7012C14.5695 18.9622 14.6716 18.1547 14.7345 17.341C14.7884 16.6525 14.7925 15.9617 14.8979 15.2741C15.1658 13.4631 16.0023 11.9485 17.4401 10.7342C18.0698 10.1834 18.8426 9.80283 19.6785 9.63185C20.0813 9.55405 20.4799 9.45059 20.8941 9.43581C21.3178 9.41625 21.7414 9.47746 22.1399 9.61585C22.5385 9.75424 22.904 9.96703 23.215 10.2417C23.2469 10.2745 23.2895 10.2961 23.3358 10.3032C23.3822 10.3102 23.4296 10.3023 23.4707 10.2806C24.0662 10.0644 24.6757 9.95468 25.3153 10.1033C26.1157 10.2933 26.8313 10.7221 27.3576 11.3269C28.2267 12.2828 28.7366 13.4872 28.8069 14.7497C28.833 15.1387 28.8306 15.5339 28.8526 15.9252C28.8861 16.5281 28.9343 17.1302 28.967 17.7323C29.0078 18.4324 29.0552 19.1325 29.462 19.7548C29.5394 19.8849 29.5985 20.024 29.6377 20.1687C29.7119 20.4054 29.7301 20.6549 29.6908 20.8992C29.6736 21.0057 29.6164 21.0096 29.5372 20.9388C29.2006 20.6362 28.802 20.5825 28.3755 20.7055C27.8592 20.861 27.4222 21.145 26.9949 21.4608C26.3659 21.9276 25.7197 22.385 24.844 22.3842C25.0084 22.6878 25.2157 22.9687 25.4599 23.2189C25.8684 23.6366 26.343 23.9805 26.7809 24.3663C27.5218 25.0182 28.2514 25.6794 28.8788 26.4364C29.4947 27.1793 30.0903 27.9315 30.4865 28.8082C30.8419 29.6113 31.1067 30.4481 31.2764 31.3045C31.4619 32.2007 31.5403 33.0937 31.4129 33.9953C31.3663 34.0801 31.3549 34.1782 31.292 34.2591C31.2152 34.3571 31.1286 34.4193 30.9938 34.3952ZM17.4205 23.2243C17.4205 23.2477 17.4352 23.2609 17.4606 23.2492C17.4655 23.2492 17.4655 23.2345 17.4679 23.2275H17.4254L17.4312 23.2687L17.4508 23.25L17.4205 23.2243ZM19.0364 23.0221L19.0511 23.0641C19.0838 23.0563 19.1222 23.1224 19.1508 23.0579C19.0969 23.1256 19.1663 23.1248 19.2031 23.1434C19.238 23.1829 19.2813 23.2149 19.3302 23.2373C19.3791 23.2597 19.4323 23.272 19.4865 23.2734L19.221 23.131C19.2031 23.1022 19.1557 23.0999 19.1516 23.0594C19.1173 23.0641 19.0813 23.0166 19.0503 23.0641C19.056 23.054 19.083 23.0579 19.0691 23.033C19.0552 23.0081 19.043 23.0291 19.0307 23.0275V23.0151L19.0364 23.0221ZM17.9058 22.8541C17.9197 22.8611 17.9213 22.8898 17.9499 22.8712C17.9785 22.8525 17.9573 22.8385 17.9564 22.8222C18.0234 22.8665 18.0381 22.805 18.0651 22.7724C18.1903 22.6864 18.3051 22.5876 18.4074 22.4775C18.4221 22.455 18.458 22.4293 18.3976 22.4184C18.4123 22.4246 18.4156 22.4558 18.4425 22.4332C18.4695 22.4106 18.4425 22.3998 18.4425 22.3834C18.4548 22.3889 18.4711 22.4021 18.4776 22.3982C18.5062 22.3819 18.485 22.3671 18.4727 22.3523C18.4866 22.3562 18.4932 22.385 18.5152 22.3616C18.5373 22.3383 18.5087 22.3329 18.503 22.3196C18.5185 22.3297 18.5356 22.3453 18.5495 22.3196C18.5495 22.3134 18.5414 22.2986 18.5365 22.2877C18.5512 22.2924 18.5577 22.3204 18.5822 22.2986C18.6067 22.2768 18.5781 22.2683 18.574 22.2535C18.5838 22.2605 18.5977 22.2745 18.6026 22.2722C18.6296 22.259 18.6124 22.2426 18.6026 22.2271C18.6843 22.2356 18.7064 22.1493 18.7725 22.1306C18.7725 22.1158 18.7856 22.0948 18.7562 22.0909C18.7537 22.091 18.7513 22.0918 18.7493 22.0932C18.7473 22.0946 18.7457 22.0965 18.7448 22.0987C18.7391 22.1228 18.7538 22.1306 18.7766 22.1306C18.7415 22.0637 18.7154 22.1213 18.7015 22.1407C18.6762 22.1781 18.6582 22.2185 18.6075 22.2309C18.601 22.245 18.5961 22.2613 18.574 22.2543C18.574 22.28 18.5585 22.2862 18.5373 22.2877C18.5373 22.3087 18.5324 22.3259 18.5046 22.3189C18.5046 22.3399 18.4972 22.3523 18.4736 22.3515C18.4637 22.3624 18.4548 22.3741 18.4458 22.3858L18.4049 22.4176L18.391 22.4589C18.2661 22.5443 18.1509 22.6418 18.0471 22.7498C18.0193 22.7755 17.9916 22.8004 17.9654 22.8276L17.9115 22.8525L17.9327 22.8844L17.9442 22.8774L17.9058 22.8541ZM18.2473 12.8073C18.2301 12.819 18.2146 12.8314 18.2383 12.8509L18.2628 12.8213C18.2671 12.8216 18.2715 12.8209 18.2756 12.8194C18.2797 12.8178 18.2833 12.8154 18.2863 12.8124C18.2893 12.8093 18.2915 12.8057 18.2928 12.8017C18.2941 12.7977 18.2944 12.7935 18.2938 12.7894C18.3101 12.7867 18.3251 12.7794 18.3369 12.7684C18.3487 12.7575 18.3568 12.7434 18.36 12.7279C18.3644 12.7283 18.3689 12.7278 18.3731 12.7263C18.3772 12.7248 18.381 12.7224 18.3841 12.7194C18.3871 12.7163 18.3894 12.7126 18.3908 12.7086C18.3921 12.7045 18.3925 12.7002 18.3919 12.6961C18.4944 12.6308 18.5831 12.5476 18.6533 12.451C18.548 12.5118 18.4557 12.591 18.3812 12.6844L18.3445 12.7132L18.2799 12.7731L18.2473 12.8073ZM25.705 13.2025H25.7115H25.7017L25.7655 13.2453L26.4468 13.8972C26.4639 13.9065 26.4623 13.9508 26.4925 13.9275C26.5227 13.9042 26.4982 13.8855 26.4721 13.873C26.2997 13.6023 26.1159 13.3433 25.7859 13.2243C25.763 13.1815 25.7336 13.1861 25.705 13.2025ZM28.0945 19.7097C28.0945 19.6864 28.079 19.6848 28.0627 19.6934C28.0627 19.6934 28.0627 19.7097 28.0627 19.7191C28.0806 19.7401 28.0847 19.793 28.1117 19.7805C28.1484 19.7657 28.0945 19.7354 28.0929 19.7097H28.0945ZM28.3257 20.1321L28.3028 20.0901C28.2612 20.0178 28.2211 19.9447 28.1787 19.8715C28.1623 19.8575 28.168 19.8093 28.1329 19.8311C28.0978 19.8529 28.1329 19.8762 28.1558 19.8902C28.1725 19.9742 28.2189 20.0502 28.2873 20.1057C28.2873 20.1244 28.2922 20.1391 28.3134 20.1438L28.3306 20.2068C28.3584 20.1944 28.3608 20.2543 28.3902 20.2263C28.3951 20.2216 28.3902 20.1959 28.3772 20.1874C28.351 20.1633 28.3322 20.1718 28.3282 20.206C28.4009 20.1788 28.3551 20.1547 28.3241 20.1321H28.3257ZM25.6854 20.2278C25.6805 20.2566 25.6682 20.2877 25.7189 20.3165C25.7107 20.2792 25.7352 20.2449 25.6838 20.2286L25.6772 20.108C25.6609 20.15 25.6315 20.1951 25.6838 20.2278H25.6854ZM18.8232 22.0372C18.8583 22.0046 18.909 21.9789 18.8951 21.912C18.8575 21.9509 18.8134 21.9766 18.8134 22.0256L18.7856 22.0528L18.7954 22.0629L18.8232 22.0372ZM25.8594 20.7856L25.8962 20.8369C25.9158 20.8089 25.8962 20.7941 25.8757 20.7786C25.8753 20.7025 25.8437 20.6296 25.7875 20.5755C25.7848 20.6518 25.8112 20.7264 25.8618 20.7856H25.8594ZM17.5472 23.1777C17.6105 23.1505 17.6664 23.1097 17.7105 23.0586C17.6035 23.0322 17.579 23.1185 17.5243 23.1582C17.5145 23.1707 17.4892 23.1831 17.5128 23.1995C17.5365 23.2158 17.5357 23.1924 17.5472 23.1777ZM17.7922 21.2943L17.6836 21.4982C17.7939 21.4717 17.8135 21.4328 17.7922 21.292L17.82 21.3138L17.829 21.2889L17.7922 21.2943ZM18.5438 19.0905C18.5544 19.1068 18.5683 19.1224 18.5887 19.1068C18.5887 19.103 18.5847 19.0843 18.5822 19.0726C18.5344 18.9924 18.4731 18.9201 18.4008 18.8587C17.9405 18.2942 17.6137 17.6417 17.4426 16.9458C17.4181 16.8307 17.4238 16.7078 17.3307 16.5638C17.3314 16.6933 17.3506 16.8221 17.3879 16.9466C17.5347 17.6768 17.8797 18.3578 18.3886 18.9217C18.4221 18.9917 18.4441 19.0726 18.5422 19.0905H18.5438ZM26.6477 21.1761L26.9672 20.9614C26.8352 20.991 26.7161 21.059 26.6265 21.1559L26.526 21.2057C26.5881 21.2438 26.6134 21.1987 26.6461 21.1761H26.6477ZM12.095 32.4831C12.1143 32.3419 12.1116 32.1988 12.0868 32.0583C12.0608 32.1984 12.0589 32.3416 12.0811 32.4823C12.0626 32.6268 12.0766 32.7735 12.1219 32.9125C12.1595 32.7484 12.0917 32.6177 12.095 32.4831ZM20.2749 9.99358C20.484 9.98113 20.6907 9.94535 20.8998 9.92901C21.1155 9.9164 21.3319 9.92056 21.5468 9.94146C21.7486 9.95701 21.9488 9.98113 22.1505 10.0014C21.8589 9.84577 20.9121 9.82632 20.2814 9.94535C19.7529 10.0286 19.2366 10.1492 18.7611 10.3996C19.2603 10.2441 19.7537 10.0714 20.2749 9.99358ZM22.0525 12.3343L22.0738 12.3577C21.9496 12.5358 21.747 12.6354 21.5836 12.7707C21.8083 12.7093 21.97 12.5654 22.1285 12.4183C22.1726 12.3771 22.1955 12.3592 22.2535 12.4129C22.3736 12.5234 22.5059 12.6229 22.6374 12.7241C23.3294 13.2406 24.063 13.6793 24.9453 13.8396C25.156 13.8785 25.3627 13.9306 25.5718 13.9773C25.0858 13.7991 24.5981 13.6311 24.1488 13.3837C23.6994 13.1364 23.2542 12.875 22.952 12.4533C23.0827 12.4937 23.2019 12.5624 23.3 12.654C23.7528 13.0078 24.2531 13.3027 24.7876 13.5308C25.3374 13.7704 25.9493 13.8707 26.4509 14.2208C26.4893 14.136 26.4263 14.1041 26.3863 14.0652C25.6462 13.39 24.8799 12.7427 24.0172 12.2153C23.6635 11.999 23.2902 11.8217 22.8564 11.8162C22.6497 11.8162 22.4732 11.7314 22.2951 11.6443C22.0352 11.5138 21.7481 11.4399 21.4545 11.4281C20.9496 11.4034 20.4447 11.4767 19.9704 11.6436C19.4962 11.8105 19.0625 12.0675 18.6958 12.3989C18.6843 12.4106 18.6606 12.423 18.6835 12.4401C18.7064 12.4572 18.7137 12.4331 18.7227 12.4183C18.9825 12.2425 19.2325 12.0527 19.5274 11.9298C19.9068 11.759 20.3187 11.6634 20.7381 11.649C20.7324 11.6957 20.7013 11.6933 20.6776 11.7034C20.4325 11.8038 20.1719 11.8528 19.9228 11.9368C18.9041 12.2869 18.1893 12.9823 17.6174 13.8124C17.3013 14.2659 17.1354 14.7894 16.9753 15.3091C16.9549 15.3744 16.8977 15.4343 16.9165 15.5541C17.0433 15.3151 17.2069 15.0954 17.4017 14.9022C17.8919 14.4355 18.4817 14.1165 19.1034 13.8458C19.8448 13.5328 20.5671 13.1801 21.2666 12.7894C21.5272 12.6385 21.7576 12.4354 22.0525 12.3343ZM27.3732 12.4176C27.0676 12.1717 26.7695 11.9166 26.4549 11.6817C25.8014 11.1939 25.0939 10.8011 24.2811 10.6042C24.0041 10.5264 23.7105 10.5195 23.4299 10.584C23.3735 10.5988 23.3335 10.6151 23.3212 10.6781C23.3016 10.7839 23.2714 10.8874 23.2436 11.0018C23.9788 10.966 24.6855 11.064 25.3447 11.3845C26.0465 11.7252 26.6984 12.283 26.9361 12.7661C26.6901 12.5995 26.458 12.4151 26.2417 12.2145C25.4166 11.4833 24.4445 11.0951 23.3122 11.1083C23.2469 11.1083 23.1897 11.1044 23.1488 11.1783C23.088 11.2991 23.02 11.4165 22.9454 11.53C22.8939 11.6077 22.8833 11.6396 23.0034 11.6435C23.6249 11.6696 24.225 11.8675 24.7304 12.213C24.7766 12.2477 24.8353 12.2636 24.8938 12.2573C25.1052 12.2345 25.319 12.2727 25.5073 12.367C26.3087 12.7248 26.7556 13.3557 26.9778 14.1422C27.2188 15.0103 27.3805 15.8956 27.5382 16.7801C27.6403 17.355 27.6762 17.94 27.8347 18.5055C27.9932 19.0711 28.1819 19.6444 28.5103 20.1563C28.5471 20.2123 28.5773 20.269 28.6696 20.262C28.8639 20.2498 29.0586 20.2763 29.2415 20.3398C29.1198 20.1065 28.9507 19.926 28.8526 19.7066C28.458 18.8221 28.2742 17.9057 28.3755 16.9427C28.3984 16.7272 28.4523 16.5156 28.4442 16.2962C28.4303 15.9151 28.409 15.5331 28.4147 15.1511C28.4254 14.3328 28.1697 13.5743 27.8568 12.8306C27.7512 12.5646 27.6083 12.3134 27.432 12.0838C26.6567 11.1192 25.6723 10.4751 24.3799 10.318C24.063 10.2791 23.7656 10.3522 23.4707 10.4541C23.7106 10.4123 23.9564 10.4104 24.1969 10.4487C25.0547 10.5793 25.7867 10.9722 26.4729 11.4545C26.8422 11.7143 27.1738 12.0076 27.3944 12.3997C27.3865 12.4047 27.3794 12.4107 27.3732 12.4176ZM17.6174 12.0193L17.5823 11.9928C17.6025 11.9684 17.624 11.945 17.6468 11.9228C18.5626 11.1177 19.6352 10.6214 20.8778 10.507C21.5705 10.4432 22.2551 10.507 22.8441 10.9294C22.8498 10.9333 22.8637 10.9294 22.8735 10.9232C23.0467 10.4868 22.7967 10.3211 22.4651 10.2231C22.3777 10.1966 22.2886 10.1717 22.1987 10.153C21.1939 9.94068 20.2169 10.0667 19.2578 10.3818C18.3772 10.6719 17.5831 11.0819 16.9475 11.7594C16.0244 12.7466 15.5751 13.9236 15.33 15.197C15.2263 15.7377 15.2565 16.2861 15.2026 16.8307C15.1575 17.1269 15.1302 17.4253 15.1209 17.7245C15.1387 18.1058 15.1019 18.4876 15.0114 18.8595C14.8832 19.3262 14.7663 19.8 14.5931 20.255C14.6373 20.2659 14.6495 20.2403 14.6618 20.2185C14.869 19.8615 15.1062 19.521 15.3709 19.2002C15.9305 18.5438 16.2516 17.7323 16.2858 16.8875C16.3291 15.8202 16.6828 14.8205 17.1395 13.8536C17.481 13.1309 18.0496 12.5638 18.6459 12.0263C18.9727 11.7307 19.3346 11.4584 19.7594 11.3129C20.6678 11.0018 21.573 10.9745 22.4299 11.4833C22.5116 11.5315 22.5566 11.5323 22.6137 11.4537C22.6896 11.347 22.7542 11.2334 22.8065 11.1146C22.8335 11.0539 22.8359 11.0072 22.7502 10.9932C22.5092 10.9535 22.2837 10.8602 22.0492 10.8003C21.0828 10.5513 20.1589 10.7225 19.2537 11.0609C18.655 11.2894 18.1016 11.6135 17.6174 12.0193ZM21.8156 20.1874C22.098 20.1991 22.3805 20.1657 22.6513 20.0886C23.6374 19.7603 24.4314 19.1909 24.9714 18.3375C25.7189 17.1574 25.8422 15.926 25.2026 14.6642C25.1851 14.6274 25.16 14.5944 25.1288 14.567C25.0977 14.5396 25.0611 14.5184 25.0212 14.5047C24.5776 14.3266 24.1104 14.206 23.6774 14.0037C23.1551 13.7514 22.671 13.4332 22.238 13.0578C22.1358 12.9714 22.0697 12.9683 21.9643 13.0477C21.7911 13.1791 21.6073 13.2989 21.4227 13.4156C20.8141 13.7991 20.1286 14.038 19.4767 14.3375C19.0617 14.5296 18.6476 14.7264 18.3159 15.0376C17.8862 15.4366 17.744 15.933 17.7931 16.5039C17.8747 17.4514 18.2293 18.2791 18.9114 18.9746C19.694 19.772 20.6686 20.1656 21.814 20.1835L21.8156 20.1874ZM19.6393 20.5763C19.71 21.1359 19.6101 21.7029 19.3517 22.2099C19.3174 22.2768 19.3607 22.3056 19.3967 22.3406C19.5647 22.5023 19.7642 22.6312 19.9841 22.7203C20.5477 22.9404 21.1574 23.0328 21.765 22.9902C22.4463 22.9567 23.0892 22.7926 23.6488 22.3982C23.911 22.2138 23.9094 22.2115 23.8122 21.912C23.804 21.8871 23.7983 21.8622 23.7909 21.8342C23.677 21.4118 23.6097 20.9793 23.59 20.5437C22.2739 21.0882 20.9668 21.117 19.6377 20.5693L19.6393 20.5763ZM26.2924 14.3748C26.3071 14.4238 26.312 14.4432 26.3185 14.4611C26.6453 15.3495 26.6526 16.2503 26.4353 17.1605C26.3332 17.5915 26.1086 17.9828 26.0448 18.4301C25.9631 18.9847 25.8741 19.5316 25.9779 20.0909C26.0391 20.4161 26.093 20.7428 26.2793 21.0306C26.3079 21.0742 26.3267 21.1372 26.4043 21.0633C26.7727 20.7148 27.2343 20.5296 27.7244 20.3997C27.856 20.3647 27.9908 20.3429 28.1247 20.3149C27.848 19.9029 27.6489 19.448 27.5366 18.9707C27.365 18.2706 27.3405 17.5495 27.2457 16.8392C27.1493 16.1173 27.0497 15.3954 26.8046 14.7015C26.7866 14.6509 26.7874 14.5934 26.7155 14.5654C26.5799 14.5055 26.4509 14.4409 26.2907 14.3678L26.2924 14.3748ZM14.4526 21.6444C14.6018 21.4601 14.7989 21.3162 15.0244 21.2268C15.2499 21.1374 15.4961 21.1057 15.7385 21.1349C16.0538 21.1675 16.1731 21.0314 16.2654 20.8004C16.2809 20.7615 16.2973 20.7226 16.3128 20.6852C16.5137 20.1648 16.6069 19.621 16.7074 19.0773C16.7833 18.665 16.7368 18.2636 16.6763 17.8217C16.5526 18.0793 16.4041 18.3254 16.2327 18.5569C15.8202 19.1014 15.4158 19.6459 14.9975 20.1905C14.6757 20.6166 14.4868 21.1206 14.4526 21.6444ZM25.4526 19.1387C25.1464 19.4939 24.7946 19.8109 24.4053 20.0823C24.3886 20.0905 24.3745 20.1027 24.3645 20.1177C24.3544 20.1328 24.3488 20.1501 24.3481 20.1679C24.3415 20.7374 24.3832 21.3006 24.5858 21.8435C24.6013 21.884 24.6209 21.9159 24.6765 21.9136C25.1266 21.8894 25.5522 21.7977 25.9288 21.5456C26.0105 21.4912 26.0105 21.4445 25.9664 21.369C25.8114 21.0977 25.6832 20.8134 25.5833 20.5195C25.4346 20.0699 25.433 19.6102 25.4526 19.1387ZM17.1273 18.1018C17.1158 18.5444 17.115 18.9824 17.0725 19.4203C17.0123 20.043 16.8688 20.6558 16.6453 21.2438C16.615 21.3216 16.6281 21.3566 16.7155 21.3892C16.9459 21.4662 17.1878 21.5072 17.432 21.5106C17.5137 21.5153 17.5414 21.4647 17.5749 21.4102C17.8489 20.9577 18.007 20.45 18.0365 19.9283C18.061 19.6249 18.0161 19.3791 17.7914 19.1418C17.5063 18.8377 17.3323 18.4604 17.1273 18.1018ZM18.1076 21.4624C18.4388 21.318 18.7215 21.0891 18.9245 20.8011C19.0405 20.6456 19.0315 20.4729 19.0364 20.2986C19.0374 20.2834 19.0341 20.2682 19.0269 20.2545C19.0197 20.2409 19.0089 20.2292 18.9956 20.2208C18.7881 20.0761 18.583 19.9275 18.3559 19.765C18.3812 20.3546 18.3584 20.9209 18.1076 21.4624ZM28.7162 27.576C29.066 28.1328 29.3856 28.7064 29.6736 29.2944C29.5911 28.8557 28.9335 27.6802 28.7162 27.576ZM26.4157 13.3713C26.303 12.9714 25.4852 12.4074 25.0368 12.4339C25.5963 12.6151 26.0318 12.9582 26.4157 13.3713ZM14.5057 19.9944C14.2312 20.4052 14.0532 20.8369 14.1708 21.3332C14.1969 20.868 14.362 20.434 14.5057 19.9944ZM28.802 17.1621C28.7334 17.6288 28.7146 18.0956 28.8771 18.553C28.8521 18.0893 28.827 17.6257 28.802 17.1621ZM21.8581 11.3238C21.3276 11.1523 20.749 11.1757 20.2357 11.3892C20.767 11.2623 21.3199 11.24 21.8605 11.3238H21.8581ZM29.159 19.4857C29.1729 19.8256 29.4212 20.0232 29.5544 20.276C29.4716 19.9928 29.3378 19.7254 29.159 19.4857ZM16.9189 15.9174C17.0905 15.6622 17.2457 15.397 17.4213 15.1395C17.1624 15.3441 17.0211 15.6187 16.9189 15.9174ZM12.2044 32.4535C12.2151 32.1424 12.3115 31.8312 12.2306 31.513C12.1889 31.8234 12.144 32.1385 12.2044 32.4535ZM24.2827 21.1994C24.2562 20.8697 24.2472 20.5389 24.2558 20.2084C24.1985 20.5374 24.2076 20.8737 24.2827 21.1994ZM31.1335 33.0175L31.1825 33.0136C31.1368 32.7748 31.131 32.529 31.0191 32.3018L31.1335 33.0175ZM25.705 15.1924C25.6823 14.9648 25.5954 14.7474 25.4534 14.563L25.705 15.1924ZM25.8594 16.2535C25.8901 15.9854 25.8572 15.7142 25.763 15.46C25.7935 15.7245 25.8245 15.989 25.8561 16.2535H25.8594ZM21.8491 23.751C22.0166 23.758 22.1759 23.7432 22.2829 23.6685C22.1595 23.6763 21.9929 23.6631 21.8491 23.751ZM25.9591 20.9388L25.9337 20.9505C25.9877 21.0594 26.0399 21.1691 26.0971 21.278C26.1069 21.2982 26.1094 21.3363 26.1486 21.32C26.1566 21.3176 26.1639 21.3133 26.1697 21.3074C26.1755 21.3016 26.1797 21.2945 26.1818 21.2867C26.1839 21.2789 26.1839 21.2708 26.1818 21.263C26.1797 21.2552 26.1756 21.2481 26.1698 21.2422C26.0988 21.1411 26.0318 21.04 25.9591 20.9388ZM16.3651 20.9458C16.3046 21.0291 16.2687 21.0796 16.2311 21.1294C16.2107 21.1574 16.169 21.1854 16.2311 21.2127C16.2389 21.2181 16.2481 21.2215 16.2577 21.2224C16.2674 21.2233 16.2771 21.2217 16.2859 21.2178C16.2946 21.2139 16.3021 21.2079 16.3076 21.2002C16.3131 21.1926 16.3163 21.1837 16.3169 21.1745C16.3299 21.1115 16.343 21.0477 16.3651 20.9458ZM20.743 23.625C20.9175 23.7024 21.1144 23.7216 21.3018 23.6794C21.1253 23.6989 20.957 23.6211 20.743 23.625ZM17.0129 18.0287C16.9385 18.2675 16.9385 18.3398 17.017 18.5491C17.0324 18.3759 17.031 18.2016 17.0129 18.0287ZM18.0684 21.1053C18.0215 21.2318 17.9747 21.3592 17.9278 21.4873C17.9769 21.4358 18.0146 21.3754 18.0387 21.3098C18.0628 21.2442 18.0729 21.1747 18.0684 21.1053ZM27.2016 20.8416C27.1606 20.8389 27.1196 20.8472 27.0834 20.8657C27.0471 20.8841 27.017 20.9119 26.9966 20.9458L27.2016 20.8416ZM16.7114 16.451C16.7634 16.3955 16.7925 16.3239 16.7931 16.2496C16.7662 16.2764 16.7452 16.3079 16.7311 16.3425C16.7171 16.3771 16.7104 16.414 16.7114 16.451ZM16.8038 16.2247C16.8279 16.2041 16.8456 16.1776 16.8549 16.1481C16.8643 16.1186 16.865 16.0873 16.8569 16.0574C16.8242 16.1095 16.7784 16.1508 16.8005 16.2247H16.8038ZM25.772 20.5367C25.7949 20.4643 25.7597 20.4161 25.7254 20.3422C25.715 20.3757 25.7139 20.4112 25.722 20.4452C25.7302 20.4793 25.7474 20.5108 25.772 20.5367ZM27.8609 19.2142C27.8715 19.2671 27.8511 19.334 27.9279 19.3698C27.9499 19.299 27.9058 19.2554 27.8609 19.2134V19.2142ZM27.9899 19.5254C27.9987 19.4994 27.9983 19.4714 27.9887 19.4456C27.9791 19.4199 27.9609 19.3979 27.9368 19.383C27.9107 19.4452 27.936 19.4834 27.9924 19.5269L27.9899 19.5254ZM28.0022 19.537C27.9736 19.6 28.0087 19.635 28.0537 19.6778C28.0633 19.6525 28.0634 19.6248 28.054 19.5995C28.0446 19.5741 28.0263 19.5526 28.0022 19.5386V19.537ZM21.5485 12.8081L21.5338 12.7878C21.5211 12.7948 21.5093 12.8032 21.4986 12.8127C21.4937 12.8166 21.4986 12.8267 21.4986 12.8337L21.5485 12.8081ZM18.1092 21.0182C18.1046 21.0268 18.101 21.036 18.0986 21.0454C18.0986 21.0454 18.1043 21.0532 18.1076 21.0571C18.1123 21.0487 18.1159 21.0398 18.1182 21.0306C18.1182 21.0306 18.1149 21.0244 18.1117 21.0197L18.1092 21.0182ZM25.937 20.8875L25.9256 20.8782C25.9212 20.8843 25.9179 20.8912 25.9158 20.8984C25.9158 20.8984 25.9215 20.9054 25.9248 20.9085L25.937 20.8875Z" fill="#040404"/>
  <path d="M31.412 33.9953C31.5395 33.0906 31.4611 32.2007 31.2756 31.3045C31.1059 30.4481 30.8411 29.6113 30.4856 28.8082C30.0894 27.9315 29.4939 27.1792 28.8779 26.4363C28.2505 25.6794 27.521 25.0182 26.7801 24.3663C26.3422 23.9773 25.8659 23.6366 25.4591 23.2189C25.2159 22.9727 25.0087 22.6964 24.8431 22.3974C25.7189 22.3974 26.3651 21.9392 26.9941 21.474C27.4213 21.1582 27.8584 20.8719 28.3747 20.7187C28.7987 20.5934 29.1998 20.6471 29.5364 20.952C29.6181 21.0228 29.6728 21.0189 29.69 20.9124C29.7292 20.6681 29.7111 20.4186 29.6369 20.1819C29.5983 20.0365 29.5398 19.8965 29.4628 19.7657C29.0544 19.1434 29.0086 18.4433 28.9678 17.7431C28.9335 17.141 28.8861 16.5389 28.8534 15.936C28.8314 15.5471 28.8338 15.1519 28.8077 14.7606C28.7374 13.498 28.2275 12.2937 27.3584 11.3378C26.8321 10.733 26.1165 10.3042 25.3161 10.1141C24.6765 9.96554 24.067 10.0752 23.4715 10.2915C23.4304 10.3132 23.3829 10.3211 23.3366 10.314C23.2902 10.307 23.2477 10.2854 23.2158 10.2526C22.9048 9.97789 22.5393 9.76511 22.1407 9.62671C21.7422 9.48832 21.3186 9.42711 20.8949 9.44668C20.4807 9.46146 20.0821 9.56259 19.6793 9.64271C18.8431 9.81254 18.0698 10.192 17.4393 10.7419C16.0015 11.9562 15.165 13.4708 14.897 15.2818C14.7949 15.9695 14.7908 16.6603 14.7336 17.3487C14.6707 18.1624 14.5702 18.9699 14.1487 19.7089C13.9195 20.0978 13.7873 20.5316 13.7623 20.9769C13.752 21.1834 13.7751 21.3902 13.8309 21.5899C13.8922 21.8077 14.0466 21.9532 14.2394 22.0738C14.2521 22.0857 14.2676 22.0945 14.2846 22.0994C14.3017 22.1044 14.3197 22.1053 14.3372 22.1022C14.3547 22.0991 14.3711 22.0919 14.3851 22.0814C14.3991 22.0709 14.4102 22.0574 14.4175 22.0419C14.4232 22.0333 14.4306 22.0256 14.4371 22.017C14.8856 21.4919 15.3357 21.4367 16.0432 21.7595C16.2229 21.842 16.3936 21.9439 16.5652 22.0427C16.9442 22.262 17.3527 22.2854 17.7742 22.2052C17.967 22.1767 18.1565 22.1311 18.3404 22.0691L18.36 22.094C18.0332 22.4985 17.6247 22.8369 17.2342 23.1831C16.499 23.8303 15.6919 24.399 14.9395 25.0299C13.4323 26.294 12.5271 27.884 12.041 29.7129C11.7706 30.7304 11.5746 31.7588 11.5811 32.8144C11.5811 33.2851 11.5901 33.7542 11.7829 34.1991C11.7886 34.2116 11.7829 34.2295 11.7788 34.245C11.6154 34.1081 11.5754 33.9121 11.5215 33.7254C11.3581 33.177 11.336 32.6169 11.3491 32.0513C11.3611 31.0898 11.4944 30.1331 11.7461 29.2018C12.0296 28.1843 12.5287 27.2617 13.1488 26.3912C13.8097 25.4647 14.6846 24.7615 15.6249 24.1119C16.2607 23.6771 16.8516 23.1856 17.3895 22.644C17.4189 22.6152 17.4434 22.5818 17.4818 22.5366C17.2571 22.4923 17.0406 22.4931 16.8356 22.4301C16.4888 22.3103 16.1553 22.1584 15.8398 21.9765C15.4109 21.7494 15.0441 21.7494 14.6568 22.0785C14.2884 22.3896 14.0507 22.3313 13.7582 21.9322C13.6114 21.7331 13.5083 21.5079 13.4552 21.2699C13.4022 21.0319 13.4002 20.7862 13.4494 20.5475C13.5311 20.1134 13.7198 19.7183 13.9118 19.327C14.3105 18.5179 14.4248 17.6591 14.4534 16.7816C14.4773 16.1629 14.5491 15.5467 14.6683 14.938C14.7861 14.2812 14.996 13.6426 15.2924 13.0391C15.8054 12.0122 16.4451 11.0686 17.4287 10.3887C18.3566 9.73134 19.4531 9.32349 20.6033 9.20786C21.5566 9.11606 22.4708 9.26075 23.2762 9.7804C23.4968 9.92276 23.6504 9.93598 23.8881 9.84497C24.5621 9.5937 25.2401 9.69405 25.9133 9.88386C26.7114 10.1087 27.28 10.598 27.7612 11.2273C28.4262 12.097 28.8771 13.0492 29.0454 14.1056C29.1671 14.8757 29.2439 15.6537 29.2905 16.4323C29.3583 17.544 29.5029 18.6424 29.8754 19.705C29.9776 19.9615 30.0368 20.2316 30.051 20.5055C30.0553 20.6033 30.0454 20.7012 30.0216 20.7964C29.9179 21.1652 29.8223 21.2126 29.4563 21.0664C29.1867 20.959 28.9155 20.9886 28.6394 21.0423C27.9744 21.1807 27.4017 21.495 26.8528 21.8661C26.4443 22.1399 26.0505 22.4355 25.5604 22.5716C25.4338 22.6067 25.5179 22.665 25.5481 22.7047C25.8014 23.0341 26.0813 23.3442 26.3855 23.6319C26.9925 24.2146 27.6109 24.7887 28.2129 25.3729C28.797 25.925 29.333 26.5212 29.8158 27.1559C30.3416 27.8474 30.7427 28.6174 31.0028 29.4344C31.3334 30.4942 31.5524 31.5827 31.6563 32.6838C31.6865 33.0027 31.7094 33.324 31.6105 33.6383C31.5697 33.7682 31.5313 33.902 31.412 33.9953Z" fill="#F8F2EA"/>
  <path d="M10.3828 18.2387C10.3828 17.9368 10.6026 17.7159 10.9016 17.7144C11.1752 17.7144 11.4489 17.9936 11.4448 18.2713C11.4477 18.4072 11.3938 18.5385 11.295 18.6366C11.1962 18.7346 11.0606 18.7912 10.9179 18.7941C10.6287 18.7972 10.3812 18.5397 10.3828 18.2387ZM11.056 18.0411C11.0019 18.0411 10.9496 18.0592 10.9081 18.0922C10.8667 18.1252 10.8386 18.1709 10.8289 18.2216C10.8289 18.3211 10.9498 18.4658 11.0396 18.4682C11.1164 18.4682 11.2545 18.3165 11.2545 18.2247C11.2545 18.1002 11.1679 18.0543 11.056 18.0411Z" fill="#040404"/>
  <path d="M31.6973 15.5144C31.6973 15.8373 31.5486 16.0123 31.279 16.0107C31.1482 16.0059 31.0245 15.9526 30.9343 15.8622C30.8442 15.7718 30.7946 15.6515 30.7962 15.5269C30.7962 15.2997 31.0159 15.1154 31.2863 15.1161C31.3413 15.1149 31.3959 15.1244 31.4468 15.1441C31.4977 15.1638 31.5439 15.1932 31.5824 15.2305C31.6209 15.2679 31.6509 15.3123 31.6707 15.3611C31.6905 15.41 31.6995 15.4621 31.6973 15.5144ZM31.4456 15.5424C31.4456 15.4071 31.4146 15.3596 31.3043 15.3581C31.2759 15.3553 31.2471 15.3583 31.22 15.367C31.1929 15.3756 31.1681 15.3897 31.1472 15.4083C31.1263 15.4269 31.1098 15.4495 31.0989 15.4747C31.0879 15.4998 31.0828 15.5269 31.0837 15.5541C31.0837 15.677 31.1924 15.8217 31.2953 15.8069C31.4391 15.7867 31.4563 15.6778 31.4456 15.5424Z" fill="#040404"/>
  <path d="M8.48926 14.367C8.48926 14.6004 8.33241 14.7708 8.13063 14.7669C8.02469 14.76 7.92496 14.7168 7.84987 14.6453C7.77478 14.5738 7.72942 14.4788 7.72217 14.3779C7.72446 14.2754 7.76823 14.1778 7.84434 14.1053C7.92045 14.0328 8.02302 13.9911 8.13063 13.989C8.1808 13.9897 8.23026 14.0003 8.27595 14.0201C8.32163 14.0399 8.36256 14.0683 8.39619 14.1038C8.42982 14.1393 8.45544 14.1809 8.47145 14.2262C8.48746 14.2715 8.49353 14.3194 8.48926 14.367ZM8.35692 14.3468C8.34303 14.2496 8.26216 14.2348 8.19354 14.2286C8.08897 14.2184 8.05547 14.3001 8.04404 14.3748C8.04089 14.3915 8.0415 14.4087 8.04582 14.4252C8.05015 14.4417 8.05808 14.4572 8.06912 14.4705C8.08015 14.4839 8.09403 14.4949 8.10984 14.5028C8.12565 14.5107 8.14304 14.5153 8.16086 14.5164C8.2785 14.5257 8.30464 14.4152 8.35692 14.3468Z" fill="#040404"/>
  <path d="M23.56 6.32335C23.56 6.53416 23.3859 6.71931 23.1883 6.72086C23.137 6.71975 23.0864 6.70903 23.0395 6.68931C22.9926 6.66959 22.9502 6.64125 22.9147 6.60593C22.8793 6.5706 22.8515 6.52898 22.833 6.48343C22.8145 6.43788 22.8056 6.3893 22.8067 6.34046C22.8067 6.15843 23.0004 5.99507 23.2152 5.99584C23.2607 5.99467 23.3061 6.00233 23.3484 6.01837C23.3907 6.0344 23.4292 6.05847 23.4614 6.0891C23.4937 6.11974 23.5191 6.15631 23.536 6.19658C23.5529 6.23685 23.5611 6.27998 23.56 6.32335ZM23.3761 6.32335C23.3892 6.24556 23.35 6.20822 23.2781 6.21911C23.2296 6.22402 23.1842 6.24422 23.1492 6.27649C23.1141 6.30876 23.0913 6.35126 23.0845 6.39725C23.0827 6.41618 23.0852 6.43525 23.0919 6.45317C23.0985 6.47109 23.1091 6.48743 23.123 6.50109C23.1369 6.51475 23.1537 6.5254 23.1723 6.53231C23.1909 6.53923 23.2108 6.54225 23.2307 6.54116C23.3516 6.52716 23.3606 6.41281 23.3761 6.31946V6.32335Z" fill="#040404"/>
  <path d="M13.0427 15.8761C13.0427 16.0776 12.9324 16.1959 12.7519 16.1966C12.5885 16.1966 12.43 16.0255 12.4349 15.8497C12.4398 15.698 12.5885 15.5821 12.7748 15.5867C12.8126 15.5881 12.8498 15.5967 12.8841 15.6122C12.9183 15.6277 12.9489 15.6496 12.974 15.6767C12.9991 15.7037 13.0181 15.7354 13.0299 15.7697C13.0417 15.804 13.0461 15.8402 13.0427 15.8761ZM12.8793 15.8948C12.8793 15.859 12.8565 15.8543 12.8295 15.8528C12.7674 15.8528 12.7478 15.8878 12.7478 15.9391C12.7478 15.9718 12.7674 16.0029 12.8042 15.9983C12.8614 15.9936 12.8556 15.9337 12.8793 15.8971V15.8948Z" fill="#040404"/>
  <path d="M24.9763 8.35138C24.9763 8.50696 24.8766 8.62987 24.7418 8.63376C24.6769 8.62852 24.6161 8.60089 24.571 8.55607C24.5259 8.51125 24.4995 8.4523 24.4968 8.39027C24.4955 8.35838 24.5012 8.32659 24.5133 8.29686C24.5255 8.26712 24.5439 8.24008 24.5675 8.21741C24.5911 8.19473 24.6193 8.17691 24.6504 8.16503C24.6815 8.15315 24.7149 8.14747 24.7484 8.14834C24.9003 8.15068 24.9755 8.21758 24.9763 8.35138ZM24.7435 8.32259C24.6961 8.32259 24.6528 8.33504 24.6569 8.38794C24.661 8.44084 24.6724 8.48284 24.7386 8.47662C24.7925 8.47195 24.8088 8.43384 24.8203 8.39183C24.8309 8.33504 24.7941 8.32104 24.7435 8.32259Z" fill="#040404"/>
  <path d="M21.814 20.1835C20.6703 20.1656 19.69 19.772 18.9098 18.9715C18.2277 18.276 17.874 17.4483 17.7914 16.5008C17.7408 15.9298 17.8846 15.4335 18.3143 15.0345C18.6459 14.7233 19.0601 14.5257 19.4751 14.3343C20.1287 14.0325 20.8124 13.796 21.4211 13.4125C21.6057 13.2958 21.7895 13.1791 21.9627 13.0446C22.0681 12.9668 22.1342 12.9668 22.2363 13.0547C22.6694 13.4301 23.1535 13.7483 23.6758 14.0006C24.1087 14.2029 24.5744 14.3235 25.0196 14.5016C25.0595 14.5153 25.0961 14.5365 25.1272 14.5639C25.1584 14.5913 25.1834 14.6243 25.201 14.6611C25.8406 15.9267 25.7173 17.1504 24.9698 18.3344C24.4298 19.1901 23.6357 19.7572 22.6497 20.0855C22.3788 20.1623 22.0964 20.1955 21.814 20.1835Z" fill="#F8F2EA"/>
  <path d="M17.6175 12.0193C18.1011 11.614 18.6536 11.2901 19.2514 11.0617C20.1566 10.7217 21.0805 10.5521 22.0469 10.8011C22.2814 10.861 22.5069 10.9566 22.7478 10.994C22.8336 11.008 22.8295 11.0547 22.8042 11.1153C22.7518 11.2342 22.6873 11.3478 22.6114 11.4545C22.5542 11.5323 22.5093 11.5323 22.4276 11.4841C21.5707 10.9753 20.6655 11.0018 19.7571 11.3137C19.3323 11.4592 18.972 11.7314 18.6436 12.027C18.0472 12.5646 17.4787 13.1317 17.1372 13.8544C16.6805 14.8182 16.3268 15.8178 16.2835 16.8882C16.2499 17.7342 15.9289 18.5469 15.3685 19.2041C15.1039 19.5248 14.8667 19.8654 14.6594 20.2224C14.6472 20.2442 14.6349 20.2698 14.5908 20.2589C14.7656 19.8039 14.8808 19.3317 15.0091 18.8634C15.0996 18.4915 15.1364 18.1097 15.1186 17.7284C15.1279 17.4292 15.1552 17.1308 15.2002 16.8346C15.2542 16.29 15.2239 15.7408 15.3277 15.2009C15.5728 13.9275 16.0253 12.7505 16.9501 11.761C17.5857 11.0811 18.3797 10.6719 19.2604 10.3833C20.2195 10.0721 21.1965 9.94224 22.2013 10.1546C22.2912 10.1733 22.3802 10.1982 22.4676 10.2246C22.7944 10.325 23.046 10.4907 22.8761 10.9247C22.8663 10.9247 22.8524 10.9349 22.8467 10.931C22.2577 10.5101 21.5731 10.4448 20.8803 10.5086C19.6378 10.6229 18.5652 11.1192 17.6494 11.9244C17.6266 11.9466 17.6051 11.97 17.5849 11.9944L17.522 12.0605L17.4983 12.0846L17.4656 12.1181C17.4533 12.1344 17.4051 12.1367 17.4329 12.1663C17.4607 12.1959 17.4778 12.1663 17.4876 12.1437L17.5203 12.1118L17.553 12.0815L17.6175 12.0193Z" fill="#F8F2EA"/>
  <path d="M27.3977 12.3996C27.1771 12.0107 26.8454 11.7143 26.4762 11.4545C25.79 10.9722 25.058 10.5793 24.2002 10.4486C23.9596 10.4104 23.7139 10.4122 23.474 10.4541C23.7689 10.3522 24.0662 10.279 24.3832 10.3179C25.6756 10.4735 26.66 11.1192 27.4353 12.0838C27.6116 12.3133 27.7545 12.5646 27.8601 12.8306C28.1738 13.5743 28.4319 14.3327 28.418 15.1511C28.4123 15.5331 28.4335 15.915 28.4474 16.2962C28.4556 16.5156 28.4017 16.7272 28.3788 16.9426C28.2775 17.9057 28.4605 18.8221 28.8559 19.7066C28.9539 19.9259 29.123 20.1049 29.2448 20.3398C29.0619 20.2763 28.8671 20.2498 28.6729 20.262C28.5806 20.269 28.5504 20.2122 28.5136 20.1562C28.1868 19.6443 27.9998 19.0788 27.838 18.5055C27.6763 17.9322 27.6436 17.3549 27.5415 16.7801C27.3838 15.8956 27.222 15.0103 26.981 14.1422C26.7621 13.3557 26.3153 12.7248 25.5106 12.367C25.3222 12.2727 25.1085 12.2345 24.8971 12.2573C24.8386 12.2636 24.7799 12.2477 24.7337 12.2129C24.229 11.8679 23.6298 11.67 23.0091 11.6435C22.8891 11.6396 22.8997 11.6077 22.9511 11.5299C23.0258 11.4164 23.0937 11.299 23.1546 11.1783C23.1921 11.1005 23.2493 11.1091 23.3179 11.1083C24.4535 11.0951 25.4223 11.4832 26.2474 12.2145C26.4637 12.415 26.6958 12.5994 26.9418 12.766C26.7041 12.2829 26.0522 11.7252 25.3505 11.3844C24.6912 11.0639 23.9878 10.9659 23.2493 11.0017C23.2771 10.8874 23.3073 10.7839 23.3269 10.6781C23.3392 10.6151 23.3792 10.6003 23.4356 10.584C23.7163 10.5194 24.0099 10.5264 24.2868 10.6042C25.0997 10.801 25.8079 11.1939 26.4607 11.6816C26.7752 11.915 27.0734 12.1717 27.3789 12.4175C27.383 12.4315 27.3903 12.4447 27.4058 12.4346C27.4214 12.4245 27.3985 12.4113 27.3977 12.3996Z" fill="#F8F2EA"/>
  <path d="M18.6925 12.3996C19.0593 12.0682 19.4929 11.8113 19.9672 11.6444C20.4414 11.4775 20.9463 11.4041 21.4513 11.4288C21.7449 11.4407 22.032 11.5145 22.2919 11.6451C22.47 11.7322 22.6464 11.8139 22.8531 11.817C23.2869 11.8224 23.6603 11.9998 24.014 12.216C24.8799 12.745 25.6478 13.3907 26.3831 14.0659C26.4231 14.1017 26.486 14.1336 26.4476 14.2215C25.946 13.8714 25.3341 13.7711 24.7843 13.5315C24.2498 13.3034 23.7495 13.0086 23.2967 12.6548C23.1996 12.5632 23.0816 12.4943 22.952 12.4533C23.2559 12.8773 23.6995 13.1363 24.148 13.3868C24.5965 13.6373 25.085 13.8022 25.571 13.9804C25.3619 13.9337 25.1552 13.8816 24.9445 13.8427C24.0622 13.6824 23.3286 13.2437 22.6366 12.7271C22.5051 12.6283 22.3728 12.5288 22.2527 12.416C22.1947 12.3623 22.171 12.3802 22.1277 12.4214C21.9692 12.5684 21.8075 12.7124 21.5828 12.7738C21.7462 12.6385 21.9496 12.5404 22.073 12.3607C22.0819 12.353 22.0991 12.3397 22.0983 12.3374C22.0844 12.3164 22.0672 12.3281 22.0517 12.3374C21.7568 12.4385 21.5264 12.6416 21.2626 12.7925C20.563 13.1832 19.8408 13.5359 19.0993 13.8489C18.4777 14.1196 17.8846 14.4362 17.3977 14.9053C17.2028 15.0984 17.0393 15.3181 16.9124 15.5572C16.8936 15.4374 16.9508 15.3775 16.9712 15.3121C17.1346 14.7925 17.298 14.269 17.6134 13.8154C18.1917 12.9854 18.9033 12.2899 19.9187 11.9422C20.1638 11.8566 20.4293 11.8076 20.6736 11.7088C20.6973 11.6987 20.7283 11.7011 20.734 11.6544C20.3146 11.6689 19.9027 11.7644 19.5233 11.9352C19.2284 12.0581 18.9784 12.2464 18.7187 12.4237L18.6925 12.3996ZM18.0087 14.111C18.6108 13.796 19.1524 13.4109 19.7349 13.0811C20.413 12.6921 21.0984 12.3211 21.8761 12.1383C22.0099 12.1027 22.1356 12.0439 22.247 11.9648C22.065 11.9356 21.8792 11.9356 21.6972 11.9648C21.2057 12.0712 20.7345 12.2494 20.3002 12.493C19.4956 12.9286 18.7954 13.5043 18.0561 14.0231C18.0389 14.0303 18.0248 14.0428 18.0162 14.0587C18.0076 14.0746 18.0049 14.0928 18.0087 14.1103V14.111Z" fill="#F8F2EA"/>
  <path d="M19.6377 20.5693C20.9644 21.1138 22.2764 21.0843 23.59 20.5397C23.6094 20.9754 23.6765 21.4079 23.7902 21.8303C23.7975 21.8552 23.8032 21.8801 23.8114 21.9081C23.9078 22.2076 23.9094 22.2099 23.648 22.3943C23.0884 22.7887 22.4455 22.9528 21.7642 22.9863C21.1566 23.0289 20.5469 22.9365 19.9833 22.7163C19.7634 22.6273 19.5639 22.4984 19.3959 22.3367C19.36 22.3017 19.3142 22.2729 19.351 22.206C19.6097 21.698 19.7093 21.1298 19.6377 20.5693Z" fill="#F8F2EA"/>
  <path d="M26.2907 14.3678C26.4541 14.4409 26.5799 14.5055 26.7139 14.5584C26.7858 14.5864 26.785 14.644 26.8029 14.6945C27.048 15.3884 27.1477 16.1103 27.2441 16.8322C27.3388 17.5425 27.3633 18.262 27.5349 18.9637C27.647 19.4418 27.8461 19.8975 28.1231 20.3103C27.9891 20.3383 27.8543 20.3601 27.7228 20.3951C27.2326 20.525 26.7711 20.7101 26.4026 21.0586C26.3209 21.1364 26.3062 21.0695 26.2777 21.026C26.0914 20.7381 26.0375 20.4114 25.9762 20.0862C25.8725 19.5269 25.9623 18.9801 26.0432 18.4254C26.1085 17.9781 26.3316 17.5868 26.4337 17.1558C26.651 16.2441 26.6428 15.3449 26.3169 14.4565C26.3103 14.4363 26.3054 14.4168 26.2907 14.3678Z" fill="#F8F2EA"/>
  <path d="M14.4526 21.6444C14.4859 21.1199 14.6742 20.6151 14.9959 20.1881C15.4125 19.6436 15.8185 19.0991 16.2311 18.5545C16.4025 18.323 16.551 18.0769 16.6747 17.8194C16.7351 18.2613 16.7817 18.6627 16.7057 19.075C16.6052 19.6195 16.5121 20.164 16.3111 20.6829C16.2956 20.7218 16.2793 20.7607 16.2638 20.798C16.1715 21.0314 16.0522 21.1652 15.7368 21.1325C15.4945 21.104 15.2485 21.1362 15.0233 21.2259C14.7981 21.3157 14.6013 21.46 14.4526 21.6444Z" fill="#F8F2EA"/>
  <path d="M25.4527 19.1387C25.4331 19.6055 25.4347 20.0722 25.5834 20.5195C25.6833 20.8134 25.8115 21.0977 25.9665 21.369C26.009 21.4468 26.0098 21.4911 25.9289 21.5456C25.5523 21.7976 25.1267 21.8894 24.6766 21.9136C24.621 21.9136 24.6014 21.884 24.5859 21.8435C24.3833 21.299 24.3408 20.7373 24.3482 20.1679C24.3489 20.1501 24.3545 20.1328 24.3646 20.1177C24.3746 20.1027 24.3887 20.0905 24.4054 20.0823C24.7947 19.8109 25.1465 19.4939 25.4527 19.1387Z" fill="#F8F2EA"/>
  <path d="M17.1272 18.1017C17.3306 18.4604 17.5047 18.8377 17.7898 19.1387C18.0144 19.376 18.0593 19.6218 18.0348 19.9252C18.0054 20.4468 17.8472 20.9545 17.5733 21.4071C17.5398 21.4616 17.5145 21.5121 17.4303 21.5075C17.1862 21.5041 16.9442 21.4631 16.7139 21.3861C16.6265 21.3534 16.6134 21.32 16.6436 21.2406C16.8674 20.6537 17.0115 20.042 17.0725 19.4203C17.1166 18.9823 17.1174 18.5444 17.1272 18.1017Z" fill="#F8F2EA"/>
  <path d="M18.1077 21.4624C18.3585 20.9178 18.3813 20.3546 18.3527 19.765C18.5799 19.9275 18.7849 20.0761 18.9924 20.2208C19.0058 20.2292 19.0166 20.2409 19.0237 20.2545C19.0309 20.2682 19.0342 20.2834 19.0332 20.2986C19.0283 20.4729 19.0332 20.6479 18.9213 20.8011C18.7192 21.0887 18.4377 21.3175 18.1077 21.4624Z" fill="#F8F2EA"/>
  <path d="M18.387 18.9217C17.8781 18.3577 17.5331 17.6768 17.3862 16.9465H17.441C17.612 17.6424 17.9389 18.2949 18.3992 18.8594L18.387 18.9217Z" fill="#F8F2EA"/>
  <path d="M28.7163 27.576C28.9336 27.6802 29.5912 28.8557 29.6737 29.2944C29.3857 28.7064 29.0661 28.1328 28.7163 27.576Z" fill="#F8F2EA"/>
  <path d="M26.4158 13.3713C26.0311 12.9582 25.5989 12.6151 25.0369 12.4339C25.4854 12.4074 26.3031 12.9714 26.4158 13.3713Z" fill="#F8F2EA"/>
  <path d="M14.5058 19.9944C14.362 20.434 14.197 20.868 14.1709 21.3332C14.0532 20.8369 14.2313 20.4052 14.5058 19.9944Z" fill="#F8F2EA"/>
  <path d="M28.8018 17.162C28.8262 17.6257 28.8511 18.0893 28.8765 18.553C28.715 18.0955 28.7336 17.6288 28.8018 17.162Z" fill="#F8F2EA"/>
  <path d="M21.8607 11.3238C21.3209 11.2404 20.7688 11.2626 20.2383 11.3892C20.7517 11.1756 21.3302 11.1523 21.8607 11.3238Z" fill="#F8F2EA"/>
  <path d="M20.275 9.99354C19.7538 10.0713 19.2604 10.244 18.7612 10.3996C19.2367 10.1491 19.753 10.0285 20.2815 9.94531L20.275 9.99354Z" fill="#F8F2EA"/>
  <path d="M20.2749 9.99356L20.2814 9.94533C20.9121 9.82631 21.8589 9.84343 22.1506 10.0013C21.9488 9.98112 21.7486 9.957 21.5469 9.94144C21.3319 9.92055 21.1155 9.91639 20.8999 9.929C20.6907 9.94533 20.484 9.98112 20.2749 9.99356Z" fill="#6E6E6E"/>
  <path d="M26.4452 13.8901L25.7639 13.2382L25.7843 13.2172C26.1111 13.3362 26.2982 13.5953 26.4706 13.866L26.4452 13.8901Z" fill="#F8F2EA"/>
  <path d="M29.1592 19.4857C29.338 19.7253 29.4718 19.9928 29.5546 20.276C29.4214 20.0232 29.1731 19.8256 29.1592 19.4857Z" fill="#F8F2EA"/>
  <path d="M16.9189 15.9174C17.0211 15.6187 17.164 15.3441 17.4214 15.1395C17.2465 15.397 17.0905 15.6622 16.9189 15.9174Z" fill="#F8F2EA"/>
  <path d="M12.2043 32.4535C12.1475 32.1384 12.1889 31.8257 12.2303 31.513C12.3106 31.8288 12.2148 32.1392 12.2043 32.4535Z" fill="#6E6E6E"/>
  <path d="M24.2824 21.1994C24.2078 20.8737 24.1987 20.5374 24.2556 20.2084C24.2471 20.5389 24.256 20.8697 24.2824 21.1994Z" fill="#6E6E6E"/>
  <path d="M31.1335 33.0175L31.0159 32.3018C31.1311 32.529 31.1368 32.7748 31.1793 33.0136L31.1335 33.0175Z" fill="#6E6E6E"/>
  <path d="M25.705 15.1924L25.4534 14.563C25.5953 14.7474 25.6823 14.9648 25.705 15.1924Z" fill="#F8F2EA"/>
  <path d="M25.8556 16.2534C25.8236 15.9889 25.7917 15.7245 25.7598 15.46C25.8534 15.7142 25.8861 15.9854 25.8556 16.2534Z" fill="#6E6E6E"/>
  <path d="M21.8491 23.751C21.9929 23.6631 22.1596 23.6732 22.2829 23.6685C22.1759 23.7432 22.0166 23.758 21.8491 23.751Z" fill="#F8F2EA"/>
  <path d="M25.9592 20.9388C26.0294 21.0399 26.0989 21.141 26.1675 21.2437C26.1733 21.2496 26.1774 21.2567 26.1795 21.2645C26.1816 21.2723 26.1816 21.2804 26.1795 21.2882C26.1773 21.296 26.1732 21.3031 26.1674 21.3089C26.1616 21.3148 26.1543 21.3191 26.1462 21.3215C26.107 21.3379 26.1046 21.2997 26.0948 21.2795C26.04 21.1706 25.9878 21.0609 25.9314 20.952L25.9592 20.9388Z" fill="#F8F2EA"/>
  <path d="M18.4074 22.4775C18.3051 22.5876 18.1903 22.6864 18.0651 22.7724C18.0587 22.7648 18.0519 22.7575 18.0447 22.7506C18.1484 22.6425 18.2637 22.545 18.3886 22.4597L18.4074 22.4775Z" fill="#F8F2EA"/>
  <path d="M16.3652 20.9458C16.3431 21.0477 16.33 21.1115 16.3153 21.1745C16.3147 21.1837 16.3115 21.1926 16.3061 21.2002C16.3006 21.2078 16.2931 21.2139 16.2843 21.2178C16.2755 21.2217 16.2658 21.2233 16.2562 21.2224C16.2465 21.2215 16.2373 21.2181 16.2295 21.2126C16.1691 21.1854 16.2108 21.1574 16.2295 21.1294C16.2688 21.0796 16.3047 21.029 16.3652 20.9458Z" fill="#F8F2EA"/>
  <path d="M20.7432 23.625C20.9572 23.6211 21.1255 23.6989 21.3019 23.6794C21.1146 23.7216 20.9177 23.7024 20.7432 23.625Z" fill="#6E6E6E"/>
  <path d="M17.0127 18.0286C17.0307 18.2016 17.032 18.3758 17.0167 18.5491C16.9388 18.3421 16.9388 18.2674 17.0127 18.0286Z" fill="#6E6E6E"/>
  <path d="M18.0676 21.1053C18.0721 21.1747 18.0621 21.2442 18.0381 21.3098C18.0141 21.3754 17.9767 21.4357 17.928 21.4872C17.9751 21.3597 18.0216 21.2323 18.0676 21.1053Z" fill="#F8F2EA"/>
  <path d="M12.0949 32.4831C12.0949 32.6177 12.159 32.7483 12.1217 32.9125C12.0766 32.7734 12.0628 32.6268 12.0811 32.4823L12.0884 32.487L12.0949 32.4831Z" fill="#F8F2EA"/>
  <path d="M26.625 21.1558C26.7146 21.0589 26.8337 20.991 26.9657 20.9614L26.6462 21.1761L26.625 21.1558Z" fill="#F8F2EA"/>
  <path d="M18.3813 12.6867C18.4558 12.5933 18.5481 12.5141 18.6534 12.4533C18.5832 12.5499 18.4945 12.6331 18.392 12.6984L18.3813 12.6867Z" fill="#F8F2EA"/>
  <path d="M17.4403 16.9458H17.3859C17.3489 16.8213 17.3298 16.6925 17.3291 16.563C17.4216 16.7077 17.416 16.8307 17.4403 16.9458Z" fill="#6E6E6E"/>
  <path d="M19.2211 23.131L19.4866 23.2733C19.4324 23.272 19.3791 23.2597 19.3302 23.2373C19.2814 23.2149 19.2381 23.1829 19.2031 23.1434L19.2211 23.131Z" fill="#F8F2EA"/>
  <path d="M18.387 18.9217L18.3992 18.8586C18.4715 18.9201 18.5327 18.9923 18.5806 19.0726L18.5422 19.0905C18.4441 19.0726 18.4221 18.9917 18.387 18.9217Z" fill="#6E6E6E"/>
  <path d="M17.7893 21.2904C17.8112 21.4328 17.7893 21.4717 17.6821 21.4981L17.7901 21.2943L17.7893 21.2904Z" fill="#F8F2EA"/>
  <path d="M12.095 32.4831H12.0885L12.0812 32.4784C12.0591 32.3377 12.061 32.1945 12.0868 32.0544C12.1119 32.1961 12.1146 32.3406 12.095 32.4831Z" fill="#6E6E6E"/>
  <path d="M28.2848 20.1057C28.2175 20.05 28.172 19.974 28.1558 19.8902L28.1785 19.8715C28.2199 19.9446 28.2597 20.0178 28.3019 20.0901L28.2848 20.1057Z" fill="#F8F2EA"/>
  <path d="M27.2016 20.8416L26.9966 20.9458C27.017 20.9119 27.0471 20.8841 27.0834 20.8656C27.1196 20.8472 27.1606 20.8389 27.2016 20.8416Z" fill="#F8F2EA"/>
  <path d="M17.5203 23.1582C17.575 23.1186 17.602 23.0322 17.7065 23.0587C17.6624 23.1097 17.6065 23.1505 17.5431 23.1777L17.5203 23.1582Z" fill="#F8F2EA"/>
  <path d="M25.8615 20.7855C25.8121 20.726 25.7867 20.6515 25.7901 20.5755C25.8459 20.6296 25.8774 20.7025 25.8778 20.7785L25.8729 20.7894L25.8615 20.7855Z" fill="#6E6E6E"/>
  <path d="M16.7115 16.451C16.7105 16.4139 16.7172 16.3771 16.7311 16.3425C16.745 16.3079 16.766 16.2763 16.7927 16.2495C16.792 16.3239 16.7632 16.3955 16.7115 16.451Z" fill="#6E6E6E"/>
  <path d="M18.6035 22.2309C18.6558 22.2208 18.6738 22.1788 18.6991 22.1415C18.713 22.122 18.7391 22.0637 18.7743 22.1314C18.7073 22.1469 18.686 22.2364 18.6043 22.2286L18.6035 22.2309Z" fill="#F8F2EA"/>
  <path d="M16.8005 16.2246C16.7753 16.1507 16.8208 16.1056 16.8533 16.0574C16.8613 16.0872 16.8607 16.1186 16.8514 16.1481C16.8421 16.1776 16.8245 16.2041 16.8005 16.2246Z" fill="#6E6E6E"/>
  <path d="M25.7718 20.5366C25.7473 20.5107 25.7302 20.4793 25.7221 20.4452C25.714 20.4111 25.7152 20.3757 25.7255 20.3422C25.7596 20.4161 25.7945 20.4659 25.7718 20.5366Z" fill="#6E6E6E"/>
  <path d="M27.8608 19.2134C27.9055 19.2554 27.9493 19.2974 27.9274 19.369C27.8511 19.3332 27.8714 19.2663 27.8608 19.2134Z" fill="#6E6E6E"/>
  <path d="M18.8118 22.0256C18.8191 21.9766 18.8597 21.9478 18.8929 21.912C18.9067 21.9789 18.8564 22.0046 18.8215 22.0372L18.8118 22.0256Z" fill="#F8F2EA"/>
  <path d="M27.9921 19.5269C27.9385 19.4833 27.9109 19.4452 27.9393 19.3845C27.9632 19.3994 27.9813 19.4214 27.9908 19.4472C28.0004 19.4729 28.0008 19.5009 27.9921 19.5269Z" fill="#6E6E6E"/>
  <path d="M28.0022 19.5386C28.0265 19.5526 28.045 19.5744 28.0543 19.6001C28.0637 19.6258 28.0633 19.6539 28.0534 19.6794C28.0087 19.6366 27.9738 19.6016 28.0022 19.5386Z" fill="#6E6E6E"/>
  <path d="M26.6454 21.176C26.6129 21.1986 26.5877 21.2406 26.5244 21.2056L26.6243 21.1558L26.6454 21.176Z" fill="#F8F2EA"/>
  <path d="M25.6837 20.2278C25.6317 20.1951 25.6609 20.15 25.6755 20.108L25.682 20.2285L25.6837 20.2278Z" fill="#6E6E6E"/>
  <path d="M17.9615 22.8268L18.0427 22.749C18.0499 22.7559 18.0566 22.7632 18.063 22.7708C18.0354 22.8035 18.0216 22.8649 17.9558 22.8206L17.9615 22.8268Z" fill="#F8F2EA"/>
  <path d="M28.3257 20.206C28.3306 20.1718 28.3492 20.1633 28.3752 20.1874C28.3849 20.1959 28.3931 20.2216 28.3882 20.2263C28.359 20.2543 28.3565 20.1944 28.3289 20.2068L28.3257 20.206Z" fill="#F8F2EA"/>
  <path d="M21.5506 12.8096L21.4978 12.8353C21.4978 12.8283 21.4978 12.8181 21.4978 12.8143C21.5084 12.8047 21.5201 12.7963 21.5327 12.7894L21.5506 12.8096Z" fill="#F8F2EA"/>
  <path d="M18.28 12.7738L18.3442 12.7139L18.3596 12.7279C18.3564 12.7433 18.3484 12.7575 18.3366 12.7684C18.3249 12.7794 18.31 12.7867 18.2938 12.7894C18.289 12.7839 18.2841 12.7793 18.28 12.7738Z" fill="#F8F2EA"/>
  <path d="M19.1516 23.0594C19.1556 23.0999 19.2027 23.1022 19.2206 23.131L19.2027 23.1434C19.1662 23.1248 19.0972 23.1255 19.1508 23.0579L19.1516 23.0594Z" fill="#F8F2EA"/>
  <path d="M25.6822 20.2325C25.7334 20.2488 25.709 20.283 25.7171 20.3204C25.6668 20.2916 25.679 20.2605 25.6838 20.2317L25.6822 20.2325Z" fill="#6E6E6E"/>
  <path d="M28.1557 19.8902C28.1297 19.8762 28.1094 19.8458 28.133 19.831C28.1565 19.8163 28.1622 19.8575 28.1784 19.8715L28.1557 19.8902Z" fill="#F8F2EA"/>
  <path d="M19.1503 23.0578C19.1219 23.1224 19.0837 23.0578 19.0513 23.0641C19.0829 23.0166 19.1186 23.0641 19.1527 23.0594L19.1503 23.0578Z" fill="#F8F2EA"/>
  <path d="M28.3291 20.2068L28.312 20.1438L28.3242 20.1321C28.355 20.1555 28.4005 20.1788 28.3242 20.206L28.3291 20.2068Z" fill="#F8F2EA"/>
  <path d="M25.8781 20.777C25.8967 20.7925 25.9178 20.8073 25.8983 20.8353L25.8618 20.784H25.8732L25.8781 20.777Z" fill="#F8F2EA"/>
  <path d="M28.0929 19.7097C28.0929 19.7354 28.1481 19.7618 28.1083 19.7805C28.0815 19.793 28.0774 19.7401 28.0596 19.7191L28.0929 19.7097Z" fill="#F8F2EA"/>
  <path d="M18.1115 21.0197C18.1115 21.0243 18.1211 21.0289 18.1203 21.032C18.1181 21.0411 18.1146 21.0498 18.1099 21.0581C18.1099 21.0542 18.1003 21.0496 18.1011 21.0466C18.1035 21.0373 18.107 21.0283 18.1115 21.0197Z" fill="#F8F2EA"/>
  <path d="M26.4705 13.866C26.4965 13.8785 26.5111 13.9049 26.4908 13.9205C26.4705 13.936 26.4624 13.8995 26.4453 13.8901L26.4705 13.866Z" fill="#F8F2EA"/>
  <path d="M17.7906 21.2942L17.8266 21.2889L17.8178 21.3134L17.7898 21.2912L17.7906 21.2942Z" fill="#F8F2EA"/>
  <path d="M25.7051 13.2017C25.7359 13.1861 25.7651 13.1815 25.7862 13.2173L25.766 13.2383L25.7026 13.1955L25.7051 13.2017Z" fill="#F8F2EA"/>
  <path d="M28.0596 19.7186C28.0596 19.7094 28.0596 19.6948 28.0596 19.6933C28.0756 19.6849 28.0908 19.6864 28.0908 19.7094L28.0596 19.7186Z" fill="#6E6E6E"/>
  <path d="M28.3011 20.0901L28.3239 20.1321L28.3117 20.1438C28.2906 20.1391 28.2849 20.1243 28.2857 20.1056L28.3011 20.0901Z" fill="#F8F2EA"/>
  <path d="M18.5715 22.2551C18.5715 22.2698 18.6032 22.2792 18.5796 22.3002C18.5561 22.3212 18.5488 22.294 18.5342 22.2893C18.5553 22.2893 18.5723 22.2815 18.5707 22.2558L18.5715 22.2551Z" fill="#F8F2EA"/>
  <path d="M18.5015 22.3196C18.5299 22.3266 18.5347 22.3095 18.5347 22.2885C18.5396 22.2994 18.551 22.3142 18.5477 22.3204C18.5339 22.3453 18.5169 22.3297 18.5015 22.3204V22.3196Z" fill="#F8F2EA"/>
  <path d="M18.5005 22.3196C18.5062 22.3328 18.5338 22.339 18.5127 22.3616C18.4916 22.3841 18.4843 22.3561 18.4705 22.3523C18.494 22.3523 18.5021 22.3406 18.5013 22.3196H18.5005Z" fill="#F8F2EA"/>
  <path d="M18.4425 22.3857L18.471 22.3523C18.4831 22.3671 18.5042 22.3819 18.4758 22.3982C18.4693 22.4021 18.4531 22.3889 18.4409 22.3834L18.4425 22.3857Z" fill="#F8F2EA"/>
  <path d="M18.4399 22.3834C18.4399 22.3998 18.4659 22.4138 18.4399 22.4332C18.4139 22.4527 18.4099 22.4247 18.3953 22.4184L18.4359 22.3865L18.4399 22.3834Z" fill="#F8F2EA"/>
  <path d="M18.3887 22.4596C18.3935 22.4464 18.3976 22.4324 18.4017 22.4184C18.4617 22.4293 18.426 22.455 18.4114 22.4775L18.3887 22.4596Z" fill="#F8F2EA"/>
  <path d="M18.2627 12.8213L18.2383 12.8508C18.2148 12.8314 18.2302 12.8189 18.2473 12.8073L18.2627 12.8213Z" fill="#F8F2EA"/>
  <path d="M25.7002 13.1954L25.7101 13.1978L25.7027 13.2025L25.7002 13.1954Z" fill="#F8F2EA"/>
  <path d="M17.9074 22.8525L17.961 22.8276L17.9569 22.8221C17.9569 22.8385 17.9731 22.8556 17.9496 22.8712C17.9261 22.8867 17.9196 22.861 17.9058 22.854L17.9074 22.8525Z" fill="#F8F2EA"/>
  <path d="M17.9058 22.854L17.9402 22.8747L17.929 22.8839C17.9218 22.8739 17.9154 22.8632 17.9082 22.8525L17.9058 22.854Z" fill="#F8F2EA"/>
  <path d="M19.0364 23.0227L19.0308 23.0151V23.0273L19.0364 23.0227Z" fill="#F8F2EA"/>
  <path d="M19.0511 23.0641L19.0364 23.022L19.0308 23.0275C19.0429 23.0275 19.0567 23.0096 19.0689 23.0329C19.0811 23.0563 19.0559 23.0539 19.0494 23.0641H19.0511Z" fill="#F8F2EA"/>
  <path d="M18.3413 22.0668C18.3549 22.0668 18.3765 22.0591 18.3797 22.0668C18.3829 22.0744 18.3757 22.0905 18.3605 22.0944L18.3413 22.0668Z" fill="#F8F2EA"/>
  <path d="M18.825 22.0371L18.7938 22.0624L18.7842 22.0524L18.8114 22.0256L18.825 22.0371Z" fill="#F8F2EA"/>
  <path d="M18.5804 19.0726C18.5804 19.0842 18.5909 19.1029 18.5869 19.1068C18.5666 19.1224 18.5528 19.1068 18.5422 19.0905L18.5804 19.0726Z" fill="#6E6E6E"/>
  <path d="M18.2473 12.8073L18.2798 12.7738C18.2798 12.7792 18.2887 12.7839 18.2936 12.7894C18.2942 12.7935 18.2938 12.7977 18.2925 12.8017C18.2912 12.8056 18.289 12.8093 18.2861 12.8123C18.2831 12.8154 18.2795 12.8178 18.2755 12.8193C18.2714 12.8209 18.2671 12.8215 18.2627 12.8213L18.2473 12.8073Z" fill="#F8F2EA"/>
  <path d="M25.9391 20.8889L25.9271 20.9096C25.9271 20.9096 25.9175 20.9019 25.9183 20.8996C25.9203 20.8925 25.9235 20.8858 25.9279 20.8797L25.9391 20.8889Z" fill="#F8F2EA"/>
  <path d="M17.5469 23.1777C17.538 23.1924 17.5315 23.2165 17.5087 23.1994C17.486 23.1823 17.5087 23.1706 17.5201 23.1582L17.5469 23.1777Z" fill="#F8F2EA"/>
  <path d="M17.4247 23.2243H17.4677C17.4677 23.2313 17.4677 23.2437 17.4604 23.2461C17.4353 23.2578 17.4239 23.2461 17.4207 23.2212L17.4247 23.2243Z" fill="#F8F2EA"/>
  <path d="M17.4207 23.2243L17.4507 23.2476L17.4312 23.2663C17.4298 23.2522 17.4277 23.2382 17.4247 23.2243H17.4207Z" fill="#F8F2EA"/>
  <path d="M18.3445 12.7139L18.381 12.6851L18.3916 12.696C18.3922 12.7002 18.3918 12.7045 18.3905 12.7085C18.3891 12.7126 18.3869 12.7163 18.3838 12.7193C18.3808 12.7224 18.377 12.7248 18.3729 12.7262C18.3687 12.7277 18.3643 12.7283 18.3599 12.7279L18.3445 12.7139Z" fill="#F8F2EA"/>
  <path d="M18.7193 12.4191C18.7104 12.4339 18.7031 12.4572 18.6804 12.4409C18.6576 12.4246 18.6804 12.4113 18.6925 12.3997L18.7193 12.4191Z" fill="#F8F2EA"/>
  <path d="M18.5718 22.255C18.5937 22.262 18.5986 22.2457 18.6042 22.2309C18.6132 22.2457 18.6302 22.262 18.6042 22.2752C18.5994 22.2752 18.5856 22.2636 18.5758 22.2566L18.5718 22.255Z" fill="#F8F2EA"/>
  <path d="M18.7736 22.1308C18.7512 22.1308 18.7368 22.1231 18.7424 22.0993C18.7433 22.0972 18.7449 22.0953 18.7469 22.0939C18.7488 22.0926 18.7512 22.0918 18.7536 22.0917C18.7824 22.0955 18.7672 22.1162 18.7704 22.1308H18.7736Z" fill="#F8F2EA"/>
  <path d="M11.056 18.0411C11.1679 18.0574 11.2545 18.1002 11.2545 18.2247C11.2545 18.3165 11.1165 18.4705 11.0397 18.4682C10.9498 18.4682 10.8264 18.3211 10.8289 18.2216C10.8386 18.1709 10.8667 18.1252 10.9082 18.0922C10.9497 18.0592 11.002 18.0411 11.056 18.0411Z" fill="#F8F2EA"/>
  <path d="M31.4458 15.5424C31.4564 15.6778 31.4392 15.7867 31.2954 15.8069C31.1925 15.8217 31.0814 15.677 31.0839 15.5541C31.0829 15.5269 31.0881 15.4998 31.099 15.4747C31.1099 15.4495 31.1264 15.4269 31.1473 15.4083C31.1682 15.3897 31.1931 15.3756 31.2202 15.367C31.2473 15.3583 31.276 15.3553 31.3044 15.3581C31.4147 15.3596 31.4474 15.4094 31.4458 15.5424Z" fill="#F8F2EA"/>
  <path d="M8.3567 14.3468C8.30197 14.4152 8.27501 14.5257 8.15737 14.5164C8.13955 14.5153 8.12216 14.5107 8.10635 14.5028C8.09054 14.4949 8.07666 14.4839 8.06563 14.4705C8.0546 14.4572 8.04666 14.4417 8.04234 14.4252C8.03802 14.4087 8.03741 14.3915 8.04055 14.3748C8.05199 14.297 8.08548 14.2192 8.19005 14.2285C8.26194 14.2348 8.34282 14.2496 8.3567 14.3468Z" fill="#F8F2EA"/>
  <path d="M23.3761 6.31948C23.3606 6.41283 23.3516 6.52719 23.2307 6.54275C23.2102 6.54395 23.1897 6.54082 23.1707 6.53359C23.1517 6.52636 23.1345 6.51521 23.1205 6.50093C23.1066 6.48665 23.0961 6.4696 23.0898 6.45101C23.0836 6.43242 23.0818 6.41274 23.0845 6.39339C23.0913 6.3474 23.114 6.3049 23.1491 6.27263C23.1842 6.24035 23.2296 6.22016 23.2781 6.21524C23.35 6.20435 23.3892 6.24325 23.3761 6.31948Z" fill="#F8F2EA"/>
  <path d="M12.8786 15.8972C12.8567 15.9337 12.8623 15.9936 12.8031 16.0006C12.7666 16.0053 12.7471 15.9742 12.7471 15.9415C12.7471 15.8902 12.7674 15.8528 12.8282 15.8551C12.8542 15.8567 12.8786 15.8614 12.8786 15.8972Z" fill="#F8F2EA"/>
  <path d="M24.7437 8.32259C24.7943 8.32259 24.8311 8.33504 24.8196 8.39183C24.8123 8.43383 24.7959 8.46962 24.7379 8.47662C24.6685 8.48284 24.6562 8.43306 24.6562 8.38794C24.6562 8.34282 24.6963 8.32181 24.7437 8.32259Z" fill="#F8F2EA"/>
  <path d="M17.6169 12.0192L17.5504 12.0799L17.5195 12.0589L17.582 11.9928L17.6169 12.0192Z" fill="#040404"/>
  <path d="M17.4832 12.1421C17.4735 12.1678 17.4507 12.1888 17.4288 12.1647C17.4069 12.1406 17.4491 12.1328 17.4613 12.1165L17.4832 12.1421Z" fill="#040404"/>
  <path d="M17.5158 12.1102L17.4833 12.1421L17.4614 12.1165L17.4939 12.083L17.5158 12.1102Z" fill="#040404"/>
  <path d="M17.5485 12.0799L17.5161 12.1102L17.4941 12.083L17.5177 12.0589L17.5485 12.0799Z" fill="#040404"/>
  <path d="M27.3973 12.3997C27.3973 12.4112 27.4045 12.4311 27.3973 12.4342C27.3901 12.4372 27.3749 12.4342 27.3708 12.4173C27.3787 12.4102 27.3876 12.4042 27.3973 12.3997Z" fill="#040404"/>
  <path d="M18.0088 14.1103C18.0044 14.0924 18.0067 14.0737 18.0153 14.0573C18.024 14.0409 18.0385 14.028 18.0562 14.0208C18.7914 13.4988 19.4956 12.9263 20.3003 12.4907C20.7345 12.247 21.2058 12.0689 21.6972 11.9625C21.8792 11.9333 22.065 11.9333 22.247 11.9625C22.1357 12.0416 22.0099 12.1004 21.8761 12.1359C21.0984 12.3187 20.413 12.6906 19.735 13.0788C19.1558 13.4117 18.6109 13.7952 18.0088 14.1103Z" fill="#040404"/>
  <path d="M22.0525 12.3343C22.0679 12.3249 22.085 12.3133 22.0988 12.3343C22.0988 12.3343 22.0825 12.3498 22.0736 12.3576L22.0525 12.3343Z" fill="#040404"/>
</svg>