<svg xmlns="http://www.w3.org/2000/svg" width="35" height="34" viewBox="0 0 35 34" fill="none">
  <path d="M16.5174 11.4092C16.3744 11.5577 16.2451 11.7055 16.098 11.8423C15.7862 12.1392 15.4812 12.4432 15.1191 12.685C15.0603 12.7256 14.9979 12.7612 14.9325 12.7913C14.7161 12.8853 14.5023 12.91 14.3083 12.744C14.1 12.5657 14.0537 12.355 14.1578 12.0957C14.3375 11.642 14.6439 11.2666 14.9666 10.901C15.4213 10.3856 15.9489 9.93832 16.4459 9.46314C16.5821 9.33349 16.5821 9.33349 16.4514 9.20384C15.7781 8.5303 15.1722 7.80748 14.7024 6.98808C14.5663 6.76648 14.4866 6.5176 14.4696 6.26138C14.4584 6.09981 14.5119 5.9402 14.6194 5.81473C14.6661 5.74921 14.7317 5.69787 14.8082 5.66684C14.8847 5.6358 14.969 5.62638 15.051 5.63969C15.4533 5.70452 15.7733 5.91585 16.0551 6.18164C16.3799 6.49021 16.6236 6.85843 16.8891 7.20849C17.0988 7.48141 17.3336 7.73423 17.559 7.99548C17.6148 8.06031 17.6413 8.04151 17.6883 7.989C18.1431 7.48659 18.6121 6.99716 19.1084 6.53235C19.4719 6.19201 19.8402 5.85621 20.3113 5.64747C20.4254 5.59352 20.5456 5.55199 20.6694 5.52366C20.8737 5.48087 21.018 5.54959 21.1344 5.71425C21.3434 6.0092 21.3019 6.30611 21.1548 6.60301C20.9506 7.01984 20.6401 7.36926 20.3147 7.70506C19.8382 8.1932 19.3487 8.67097 18.8586 9.14744C18.7748 9.22847 18.7776 9.27709 18.8436 9.36202C19.2956 9.94545 19.7463 10.525 20.1902 11.1123C20.4289 11.4122 20.6238 11.7415 20.7695 12.0912C20.8331 12.2498 20.8632 12.4187 20.858 12.5884C20.8517 12.7104 20.8024 12.8268 20.718 12.9188C20.6337 13.0108 20.5191 13.073 20.393 13.0954C20.28 13.1129 20.1922 13.0519 20.1023 13.0033C19.7674 12.8224 19.5169 12.5534 19.2772 12.274C19.0764 12.0387 18.8824 11.7982 18.6836 11.5609C18.651 11.507 18.604 11.4623 18.5475 11.4313C18.5372 11.6802 18.5127 11.9201 18.5202 12.1586C18.5366 12.6908 18.5529 13.2237 18.5549 13.7566C18.5577 14.7406 18.5593 15.7245 18.5597 16.7081C18.5571 16.7226 18.5577 16.7375 18.5616 16.7517C18.5655 16.766 18.5726 16.7792 18.5823 16.7907C18.5921 16.8021 18.6043 16.8114 18.6181 16.8179C18.6319 16.8245 18.6471 16.8282 18.6625 16.8287C20.0496 17.1189 21.3233 17.7741 22.3387 18.7197C23.752 20.0162 24.607 21.5876 24.6805 23.4682C24.7861 26.1559 23.5477 28.1875 21.1521 29.5703C19.698 30.4098 18.0886 30.6626 16.4098 30.4986C15.034 30.3644 13.7494 29.9605 12.5975 29.2202C10.8275 28.0812 9.69808 26.528 9.36926 24.4983C9.1521 23.1596 9.41351 21.8826 10.0378 20.6735C10.7771 19.2402 11.9235 18.1816 13.3994 17.4445C14.311 16.9935 15.3106 16.7268 16.3356 16.6614C16.4452 16.6537 16.4779 16.6245 16.4806 16.5169C16.501 15.8168 16.5399 15.116 16.5541 14.4152C16.5739 13.45 16.5923 12.484 16.5453 11.5181C16.5514 11.4798 16.5413 11.4406 16.5174 11.4092ZM16.7216 10.9853C16.7543 11.0054 16.7461 11.0287 16.7454 11.0501C16.7332 11.3664 16.7189 11.6821 16.7094 11.9978C16.674 13.1278 16.6413 14.2577 16.6052 15.387C16.5882 15.9412 16.565 16.4948 16.546 17.0491C16.546 17.1217 16.5324 17.1587 16.4336 17.1651C16.1843 17.1819 15.9359 17.2107 15.6896 17.2514C14.55 17.4361 13.4798 17.8043 12.543 18.4558C10.3945 19.9468 9.46525 21.9629 9.86419 24.4724C10.1365 26.1702 11.08 27.5328 12.4722 28.5947C14.1013 29.8367 15.9755 30.3586 18.0587 30.1304C19.9287 29.9255 21.4959 29.1476 22.7151 27.7804C24.6445 25.6172 24.8419 22.3026 22.9636 19.9579C21.8063 18.5161 20.2712 17.6643 18.4256 17.289C18.3235 17.2682 18.2928 17.2371 18.2962 17.1405C18.3139 16.6556 18.3344 16.1681 18.3357 15.6858C18.3405 14.1384 18.3357 12.591 18.3357 11.0436C18.3357 11.0002 18.3153 10.9522 18.3541 10.8997C18.6373 11.2763 18.9375 11.629 19.2391 11.9797C19.4365 12.2066 19.6278 12.438 19.8688 12.628C19.9898 12.7279 20.1368 12.7951 20.2943 12.8224C20.5891 12.8698 20.7749 12.6889 20.7103 12.4147C20.6907 12.3303 20.6624 12.248 20.6259 12.169C20.4366 11.7606 20.1493 11.4144 19.8647 11.0637C19.4263 10.5166 18.9797 9.97268 18.5413 9.42684C18.5086 9.38665 18.4555 9.35553 18.5223 9.28876C18.9593 8.84794 19.3909 8.40259 19.8253 7.95918C20.216 7.5605 20.6218 7.17478 20.9308 6.70933C21.0305 6.56349 21.0783 6.39097 21.067 6.2173C21.0479 5.86983 20.762 5.69869 20.4257 5.83936C20.3432 5.86943 20.2661 5.91141 20.197 5.96383C19.9669 6.15917 19.7372 6.35559 19.508 6.5531C19.4134 6.63413 19.3201 6.71646 19.2323 6.80397C18.7347 7.2986 18.3003 7.84119 17.8286 8.3598C17.7489 8.44667 17.7162 8.44537 17.6407 8.3598C17.3772 8.06614 17.1519 7.74525 16.9013 7.44381C16.5487 7.02568 16.1845 6.61209 15.8298 6.19526C15.7175 6.0656 15.6045 5.93141 15.437 5.8627C15.0884 5.71943 14.7024 5.79787 14.6248 6.22183C14.5751 6.49475 14.7045 6.70803 14.8502 6.90834C15.4438 7.72321 16.1103 8.48492 16.7652 9.25505C16.8074 9.30497 16.8271 9.3322 16.7652 9.38989C16.1275 10.014 15.5203 10.6642 14.9434 11.3405C14.7284 11.5926 14.5328 11.859 14.358 12.1379C14.2525 12.3058 14.262 12.462 14.3743 12.5981C14.4791 12.7213 14.6425 12.7576 14.8345 12.6941C14.9025 12.6702 14.9677 12.6398 15.0292 12.6033C15.3403 12.4244 15.5888 12.1774 15.8298 11.9233C16.1275 11.6104 16.425 11.2969 16.7223 10.9827L16.7216 10.9853Z" fill="#F8F2EA"/>
  <path d="M24.718 13.1102C24.6274 13.1125 24.5377 13.0921 24.458 13.0511C24.3783 13.01 24.3113 12.9498 24.2638 12.8763C24.2162 12.8029 24.1897 12.7188 24.187 12.6325C24.1843 12.5463 24.2054 12.4609 24.2482 12.3848C24.4409 12.0218 24.8514 11.9096 25.1516 12.1378C25.2005 12.1734 25.2411 12.2183 25.2709 12.2697C25.3007 12.321 25.3189 12.3776 25.3245 12.436C25.3359 12.519 25.3288 12.6034 25.3038 12.6837C25.2787 12.7639 25.2362 12.8382 25.179 12.9018C25.1218 12.9654 25.0512 13.0168 24.9717 13.0527C24.8923 13.0886 24.8059 13.1082 24.718 13.1102ZM24.9406 12.5916C24.9406 12.4386 24.8861 12.3848 24.7186 12.3816C24.5294 12.3783 24.3939 12.4847 24.3898 12.6409C24.3873 12.6756 24.3925 12.7104 24.405 12.743C24.4175 12.7757 24.437 12.8055 24.4624 12.8306C24.4877 12.8556 24.5183 12.8753 24.5521 12.8884C24.5859 12.9015 24.6222 12.9077 24.6587 12.9067C24.8289 12.9047 24.9351 12.7861 24.9379 12.589L24.9406 12.5916ZM24.7363 12.2422C25.0345 12.2668 25.0999 12.4529 25.0767 12.6992C25.2047 12.3887 25.0652 12.2059 24.7316 12.2396L24.7363 12.2422Z" fill="#040303"/>
  <path d="M7.99745 17.2734C7.75033 17.2734 7.58899 17.132 7.55971 16.9C7.52881 16.738 7.55515 16.5709 7.6346 16.4248C7.67357 16.3514 7.73393 16.2903 7.80845 16.2489C7.88296 16.2074 7.96847 16.1872 8.05471 16.1908C8.14095 16.1945 8.22426 16.2217 8.29464 16.2693C8.36503 16.3169 8.4195 16.3828 8.45153 16.4591C8.58768 16.7664 8.48012 17.1165 8.20849 17.2332C8.14209 17.2611 8.07004 17.2749 7.99745 17.2734ZM8.29359 16.5849L8.28814 16.5797V16.5849C8.30584 16.4676 8.21326 16.4287 8.12816 16.3969C8.00085 16.3489 7.88853 16.3937 7.76054 16.5512C7.9709 16.4501 8.14654 16.4215 8.29359 16.5849ZM7.82658 16.8267C7.84223 16.8974 7.83406 17.0037 7.96273 17.0102C8.0914 17.0166 8.23504 16.9 8.23504 16.7917C8.23055 16.7423 8.20641 16.6964 8.16756 16.6634C8.12872 16.6304 8.07809 16.6127 8.02604 16.6141C7.99794 16.6146 7.97026 16.6206 7.94471 16.6318C7.91917 16.6429 7.89632 16.659 7.8776 16.679C7.85888 16.6989 7.84468 16.7223 7.8359 16.7478C7.82712 16.7732 7.82395 16.8001 7.82658 16.8267Z" fill="#040303"/>
  <path d="M11.0813 14.5585C11.0813 14.5042 11.093 14.4504 11.1155 14.4005C11.138 14.3506 11.171 14.3056 11.2124 14.2682C11.2538 14.2309 11.3028 14.2019 11.3563 14.1832C11.4099 14.1644 11.4669 14.1562 11.5238 14.1591C11.7492 14.163 11.9813 14.4022 11.982 14.6311C11.9827 14.8599 11.7859 15.0849 11.5851 15.0849C11.3427 15.0881 11.0786 14.8106 11.0813 14.5585ZM11.5715 14.5144C11.4523 14.5144 11.3073 14.6201 11.3244 14.6966C11.3529 14.8197 11.4789 14.7964 11.5694 14.8158C11.6375 14.8307 11.7444 14.7199 11.7342 14.644C11.7212 14.5487 11.6409 14.5274 11.5715 14.5144ZM11.6545 14.3847C11.6093 14.3409 11.5484 14.3148 11.4839 14.3118C11.4194 14.3088 11.3562 14.3291 11.3067 14.3685C11.195 14.4418 11.1787 14.5073 11.2386 14.6531C11.3067 14.4593 11.4469 14.3789 11.6545 14.3821V14.3847Z" fill="#040303"/>
  <path d="M23.4327 9.87086C23.4828 9.86867 23.5328 9.87616 23.5798 9.89289C23.6268 9.90963 23.6697 9.93524 23.7059 9.9682C23.7422 10.0012 23.7711 10.0408 23.7908 10.0847C23.8105 10.1285 23.8207 10.1758 23.8208 10.2235C23.8208 10.4472 23.6424 10.6345 23.4334 10.6345C23.2571 10.6345 23.0597 10.429 23.061 10.2456C23.0624 10.0161 23.206 9.87086 23.4327 9.87086ZM23.4865 10.0815C23.4184 10.0815 23.3027 10.1723 23.3068 10.2417C23.3064 10.2614 23.3103 10.2809 23.3182 10.2991C23.3262 10.3173 23.338 10.3338 23.353 10.3474C23.368 10.361 23.3858 10.3714 23.4053 10.3781C23.4247 10.3848 23.4454 10.3876 23.4661 10.3862C23.51 10.3851 23.5518 10.3681 23.583 10.3388C23.6142 10.3094 23.6325 10.2698 23.6343 10.228C23.6472 10.1392 23.5825 10.0965 23.4865 10.0815Z" fill="#040303"/>
  <path d="M26.4825 22.6831C26.5293 22.6799 26.5762 22.6856 26.6206 22.7C26.665 22.7144 26.7058 22.7372 26.7408 22.7669C26.7757 22.7967 26.804 22.8329 26.824 22.8733C26.8439 22.9137 26.8551 22.9575 26.8569 23.0021C26.8598 23.0918 26.8258 23.179 26.7623 23.2453C26.6988 23.3117 26.6106 23.3518 26.5165 23.3573C26.2762 23.3573 26.0808 23.2095 26.0774 23.0189C26.074 22.8283 26.2429 22.689 26.4825 22.6831ZM26.5057 22.8893C26.4192 22.8977 26.3116 22.8893 26.3157 22.9949C26.3198 23.1006 26.4144 23.1434 26.5199 23.1505C26.6255 23.1577 26.6561 23.1039 26.6643 23.017C26.6704 22.9022 26.5819 22.9003 26.5057 22.8893Z" fill="#040303"/>
  <path d="M7.0452 13.4447C7.0452 13.2781 7.23445 13.1206 7.42507 13.1264C7.49776 13.1334 7.56504 13.1661 7.61358 13.2181C7.66213 13.2701 7.68839 13.3376 7.68717 13.4071C7.68717 13.5964 7.52719 13.7831 7.36789 13.7838C7.20858 13.7844 7.04248 13.6172 7.0452 13.4447ZM7.56259 13.4324C7.56259 13.3358 7.51902 13.2853 7.43052 13.282C7.40551 13.2821 7.38079 13.2871 7.35792 13.2968C7.33504 13.3064 7.31449 13.3204 7.29756 13.3379C7.28062 13.3554 7.26767 13.3761 7.25951 13.3986C7.25134 13.4211 7.24814 13.445 7.25011 13.4687C7.25011 13.5472 7.28892 13.6042 7.37674 13.612C7.45026 13.6185 7.56259 13.4972 7.56259 13.4324Z" fill="#040303"/>
  <path d="M26.6588 20.5011C26.5794 20.4966 26.5041 20.4659 26.4461 20.4141C26.388 20.3624 26.3508 20.2929 26.3409 20.2178C26.3327 20.0797 26.4879 19.9474 26.6602 19.9455C26.7325 19.9495 26.8012 19.9772 26.8547 20.0239C26.9081 20.0705 26.9431 20.1333 26.9536 20.2016C26.9516 20.2772 26.9204 20.3495 26.8661 20.4047C26.8117 20.46 26.738 20.4942 26.6588 20.5011ZM26.6629 20.1121C26.6207 20.1283 26.5669 20.1478 26.5792 20.1957C26.5859 20.2259 26.6028 20.2531 26.6275 20.2732C26.6521 20.2932 26.683 20.305 26.7153 20.3066C26.7711 20.3066 26.7834 20.2489 26.7834 20.2106C26.7929 20.1309 26.7112 20.1393 26.6629 20.1121Z" fill="#040303"/>
  <path d="M25.0733 7.8075C25.1514 7.80784 25.2261 7.83752 25.2813 7.89009C25.3365 7.94265 25.3677 8.01385 25.3681 8.08819C25.3735 8.24896 25.2231 8.42464 25.076 8.42918C25.0049 8.42893 24.9366 8.4027 24.8852 8.3559C24.8337 8.30911 24.8031 8.24531 24.7996 8.17765C24.7962 7.96697 24.9126 7.80944 25.0733 7.8075ZM24.944 8.12255C24.9542 8.18738 24.9678 8.26387 25.0658 8.27295C25.14 8.28008 25.2544 8.1595 25.251 8.07847C25.2476 7.97734 25.1591 7.97021 25.0862 7.96567C24.9834 7.95919 24.9467 8.02531 24.944 8.12255Z" fill="#040303"/>
  <path d="M16.7223 10.9826C16.4259 11.296 16.1296 11.6095 15.8332 11.9233C15.5922 12.1774 15.3437 12.4244 15.0326 12.6033C14.9711 12.6397 14.9059 12.6701 14.8379 12.694C14.6459 12.7589 14.4825 12.7213 14.3777 12.5981C14.2654 12.4652 14.2558 12.3057 14.3614 12.1378C14.5362 11.859 14.7318 11.5925 14.9468 11.3405C15.525 10.665 16.1323 10.0148 16.7686 9.38985C16.8271 9.33215 16.8074 9.30493 16.7686 9.25501C16.1137 8.48488 15.4472 7.72317 14.8536 6.9083C14.7079 6.70799 14.5813 6.49471 14.6282 6.22179C14.7058 5.79653 15.0918 5.71939 15.4404 5.86266C15.6079 5.93137 15.7209 6.06232 15.8332 6.19521C16.1845 6.61205 16.5487 7.02564 16.9013 7.44766C17.1519 7.7491 17.3779 8.06999 17.6407 8.36365C17.7162 8.44792 17.7489 8.44922 17.8285 8.36365C18.3003 7.84504 18.7347 7.30115 19.2323 6.80782C19.3201 6.72031 19.4134 6.63798 19.508 6.55694C19.7349 6.35901 19.9646 6.16258 20.197 5.96767C20.2664 5.91176 20.3448 5.86669 20.4291 5.83413C20.7654 5.6967 21.0513 5.8646 21.0704 6.21207C21.0817 6.38575 21.0339 6.55826 20.9342 6.7041C20.6252 7.16955 20.2194 7.55527 19.8287 7.95395C19.3943 8.39736 18.9627 8.84272 18.5257 9.28353C18.4576 9.34836 18.512 9.38142 18.5447 9.42161C18.9859 9.96745 19.4297 10.5113 19.8681 11.0585C20.15 11.4092 20.44 11.7554 20.6292 12.1638C20.6658 12.2428 20.6941 12.3251 20.7137 12.4095C20.7783 12.6837 20.5925 12.8632 20.2977 12.8172C20.1402 12.7898 19.9932 12.7227 19.8722 12.6227C19.6312 12.4341 19.4399 12.2027 19.2425 11.9745C18.9396 11.6238 18.6393 11.2711 18.3575 10.8945C18.3187 10.947 18.3391 10.9949 18.3391 11.0384C18.3391 12.5858 18.3391 14.1332 18.3391 15.6806C18.3391 16.1655 18.3173 16.653 18.2996 17.1353C18.2962 17.2319 18.3269 17.2649 18.429 17.2837C20.2746 17.6591 21.8118 18.5109 22.967 19.9526C24.8453 22.2974 24.6479 25.612 22.7185 27.7752C21.4993 29.1424 19.9321 29.9203 18.0621 30.1252C15.9789 30.3533 14.1047 29.8315 12.4756 28.5894C11.0834 27.5276 10.1385 26.1649 9.86758 24.4671C9.46865 21.9577 10.3979 19.9436 12.5464 18.4506C13.4832 17.7991 14.5533 17.4309 15.693 17.2461C15.9393 17.2054 16.1876 17.1767 16.437 17.1599C16.5358 17.1534 16.5467 17.1165 16.5494 17.0439C16.5684 16.4896 16.5916 15.936 16.6086 15.3817C16.6447 14.2525 16.6767 13.1225 16.7128 11.9926C16.7223 11.6769 16.7366 11.3612 16.7488 11.0449C16.7468 11.0261 16.7529 11.0027 16.7223 10.9826ZM15.8638 10.6682C15.8603 10.668 15.8567 10.6684 15.8532 10.6694C15.8498 10.6705 15.8467 10.6722 15.844 10.6744C15.8412 10.6766 15.839 10.6794 15.8374 10.6824C15.8358 10.6855 15.8348 10.6888 15.8346 10.6922L15.8196 10.7188L15.8455 10.7039L15.8645 10.6689C15.8829 10.6689 15.8904 10.6591 15.8917 10.6429L15.9094 10.63L15.8958 10.6215C15.8958 10.6287 15.8958 10.6352 15.8911 10.6423C15.8679 10.6403 15.8679 10.652 15.8638 10.6682ZM15.6596 11.8487C15.6637 11.8714 15.646 11.874 15.6296 11.8779C15.6301 11.8814 15.6296 11.885 15.6284 11.8884C15.6272 11.8918 15.6253 11.8949 15.6227 11.8975C15.6201 11.9001 15.6169 11.9021 15.6134 11.9034C15.6099 11.9047 15.6062 11.9053 15.6024 11.9051C15.6024 11.9226 15.5922 11.9297 15.5745 11.9284C15.5827 11.9576 15.5262 11.966 15.55 12.001C15.5793 11.9822 15.6242 11.9699 15.5745 11.9278C15.584 11.933 15.5956 11.944 15.6011 11.9414C15.6242 11.9317 15.6113 11.9174 15.6011 11.9051C15.6147 11.9129 15.631 11.9246 15.6419 11.9051C15.6419 11.8993 15.6331 11.8876 15.6283 11.8785C15.6371 11.8824 15.6494 11.8915 15.6548 11.8889C15.6725 11.8785 15.665 11.863 15.6548 11.8494L15.6746 11.8643L15.68 11.8532L15.6596 11.8487ZM12.2755 27.6955L12.2993 27.6832C12.2993 27.6832 12.2945 27.6832 12.2932 27.6832L12.2755 27.6974C12.2823 27.678 12.3034 27.6527 12.2564 27.6566C12.283 27.6378 12.2564 27.6281 12.2482 27.6157C12.172 27.5107 12.0522 27.4388 11.9943 27.3201L11.9426 27.3266C11.9507 27.3344 11.9576 27.348 11.9671 27.3493C11.9909 27.3532 11.9923 27.3344 11.993 27.3175C11.963 27.324 11.9616 27.3409 11.9746 27.3629C12.0386 27.4699 12.1032 27.5762 12.2278 27.6319C12.2279 27.6355 12.2288 27.6389 12.2305 27.642C12.2322 27.6452 12.2346 27.6479 12.2376 27.65C12.2405 27.6521 12.2439 27.6536 12.2475 27.6543C12.2511 27.655 12.2549 27.6549 12.2585 27.654C12.2646 27.6669 12.27 27.6806 12.2755 27.6955ZM15.2804 12.2072L15.2859 12.2448L15.3036 12.2318C15.2961 12.2234 15.2886 12.2143 15.2811 12.2065L15.3008 12.2357L15.3172 12.2208L15.2804 12.2072ZM12.7616 27.0329C12.75 27.0297 12.7323 27.0193 12.7289 27.0226C12.7119 27.0401 12.7289 27.0524 12.7404 27.0634L12.767 27.0906C12.7956 27.1282 12.8147 27.1756 12.8705 27.1866L12.9549 27.276L12.9814 27.3013C13.2533 27.5822 13.5596 27.8309 13.8937 28.0423C15.4595 29.0348 17.1478 29.3045 18.9253 28.7107C20.5387 28.1719 21.6525 27.0932 22.2352 25.5588C22.903 23.8014 22.7172 22.1049 21.6477 20.5367C20.2827 18.5342 17.6611 17.6442 15.2573 18.321C14.5438 18.5196 13.8842 18.8633 13.3239 19.3284C13.2766 19.3498 13.2357 19.3821 13.2047 19.4224C13.1918 19.4334 13.1632 19.4405 13.1938 19.4625C13.1591 19.4301 13.1469 19.4736 13.1258 19.4813L13.1074 19.5118C13.0883 19.5118 13.0788 19.5189 13.0808 19.5384C12.9835 19.5818 12.9808 19.7206 12.8589 19.74C12.8671 19.7763 12.8398 19.788 12.8133 19.7996L12.799 19.8146L12.7908 19.7983L12.8112 19.8022C12.8106 19.7878 12.8151 19.7735 12.824 19.7618C12.8329 19.75 12.8457 19.7415 12.8603 19.7374L13.0781 19.5358C13.1033 19.5591 13.1094 19.5358 13.1203 19.5215C13.1312 19.5073 13.1632 19.493 13.1203 19.4794C13.1584 19.5241 13.1721 19.4833 13.1884 19.4606C13.192 19.4613 13.1958 19.4612 13.1994 19.4603C13.203 19.4594 13.2064 19.4577 13.2092 19.4554C13.212 19.4531 13.2142 19.4502 13.2157 19.4469C13.2172 19.4437 13.2178 19.4402 13.2177 19.4366L13.3416 19.3465C14.3186 18.592 15.5413 18.1853 16.7992 18.1965C17.9453 18.1877 19.063 18.536 19.9818 19.1883C20.2126 19.3497 20.4441 19.5125 20.6265 19.7251C20.6538 19.7575 20.6864 19.7958 20.6435 19.8405C20.5925 19.8949 20.5584 19.8405 20.5312 19.8165C20.3985 19.7121 20.2752 19.5948 20.1398 19.4924C19.0015 18.6431 17.7115 18.3158 16.2859 18.5258C14.6371 18.7689 13.3375 19.563 12.379 20.8595C12.0154 21.3516 11.7111 21.889 11.611 22.4802C11.2822 24.425 11.9385 26.0554 13.5301 27.2858C15.0959 28.4948 16.8857 28.7871 18.8191 28.2018C18.8883 28.1803 18.9587 28.1628 19.0301 28.1493C19.052 28.1428 19.0754 28.1424 19.0975 28.1483C19.1196 28.1542 19.1395 28.166 19.1547 28.1823C19.1915 28.2277 19.1547 28.264 19.1336 28.3009C19.0805 28.4001 18.9763 28.4267 18.8783 28.4591C17.1764 29.0173 15.55 28.8591 13.9965 27.9995C13.6411 27.7904 13.307 27.5501 12.9985 27.2819C12.9985 27.2784 12.9977 27.2749 12.9963 27.2717C12.9948 27.2685 12.9927 27.2657 12.99 27.2633C12.9873 27.2609 12.9841 27.2591 12.9807 27.2579C12.9772 27.2568 12.9735 27.2563 12.9699 27.2566L12.8875 27.1658C12.8653 27.1233 12.8323 27.0868 12.7915 27.0595L12.7616 27.0329ZM12.5321 20.0823L12.5076 20.1108C12.5019 20.1121 12.4966 20.1146 12.492 20.1181C12.4875 20.1216 12.4838 20.126 12.4812 20.131C12.4786 20.136 12.4772 20.1415 12.477 20.1471C12.4769 20.1527 12.478 20.1582 12.4804 20.1633C12.4409 20.1588 12.4327 20.1867 12.4252 20.2139L12.4089 20.2301L12.4212 20.2353V20.2126C12.46 20.2126 12.4715 20.1918 12.477 20.162C12.4828 20.1609 12.4883 20.1584 12.4931 20.1549C12.4978 20.1514 12.5015 20.1469 12.5041 20.1417C12.5067 20.1366 12.508 20.1309 12.5079 20.1252C12.5078 20.1195 12.5063 20.1139 12.5035 20.1089C12.5233 20.116 12.5314 20.105 12.5383 20.0901L12.5519 20.0674L12.5321 20.0823ZM15.407 12.154C15.3968 12.154 15.3818 12.1463 15.3764 12.1508C15.3573 12.167 15.3764 12.1761 15.388 12.1858C15.3839 12.1683 15.375 12.1573 15.3553 12.167C15.3519 12.167 15.3553 12.1793 15.3512 12.1858C15.3621 12.1858 15.3723 12.1858 15.3818 12.1819L15.4023 12.1514L15.4234 12.1262C15.4159 12.1262 15.4057 12.1223 15.4016 12.1262C15.3975 12.1301 15.3948 12.1456 15.4043 12.154H15.407ZM15.9598 10.5749L15.9864 10.5476C15.9982 10.5417 16.0086 10.5334 16.0168 10.5234C16.025 10.5133 16.0309 10.5017 16.034 10.4893C16.0402 10.4815 16.0531 10.4686 16.0517 10.4666C16.0354 10.4459 16.0286 10.4666 16.0191 10.475C16.0069 10.4809 15.9963 10.4892 15.988 10.4994C15.9796 10.5096 15.9737 10.5214 15.9707 10.534L15.9469 10.5632L15.934 10.5859L15.9598 10.5749ZM16.096 10.4212L16.1041 10.3901L16.0769 10.4024C16.0633 10.4122 16.051 10.4232 16.0687 10.4374C16.0722 10.4368 16.0858 10.4271 16.0953 10.4212H16.096ZM11.7057 20.4427L11.6778 20.4946C11.6546 20.5101 11.6335 20.5406 11.6553 20.5536C11.69 20.5743 11.6859 20.5283 11.6995 20.5121C11.7132 20.4959 11.7193 20.4784 11.7288 20.4615L11.7465 20.4291L11.8098 20.3325C11.8358 20.3115 11.8533 20.2827 11.8595 20.2508L11.8697 20.2204L11.8439 20.2359C11.8284 20.243 11.815 20.2537 11.8049 20.2669C11.7948 20.2802 11.7883 20.2956 11.786 20.3118L11.7254 20.4097L11.7057 20.4427ZM11.5695 19.9241L11.528 19.9591L11.4803 20.0239C11.4681 20.0343 11.4497 20.0447 11.4647 20.0615C11.4797 20.0784 11.4926 20.0615 11.5035 20.0512L11.5525 19.9863L11.5852 19.9397L11.5981 19.9008C11.6213 19.9053 11.6315 19.8943 11.6321 19.8742C11.6321 19.8742 11.6267 19.8651 11.624 19.8651C11.5981 19.8651 11.6015 19.8859 11.5995 19.9021L11.5695 19.9241ZM20.0996 29.0847C20.0917 29.0808 20.0827 29.0795 20.0739 29.0811C20.0652 29.0826 20.0572 29.0868 20.0513 29.0931C20.0513 29.0931 20.0513 29.1035 20.0574 29.1041C20.0615 29.1056 20.0659 29.1063 20.0703 29.106C20.0746 29.1058 20.0789 29.1046 20.0828 29.1027C20.0867 29.1007 20.0901 29.0979 20.0927 29.0946C20.0954 29.0913 20.0973 29.0875 20.0982 29.0834L20.1017 29.0763L20.0996 29.0847ZM19.1084 10.5969L19.1363 10.6105L19.1322 10.5788L19.0955 10.5314C19.0888 10.4997 19.0698 10.4715 19.0424 10.4524L19.0253 10.4219L18.9879 10.3733C18.965 10.3112 18.9186 10.2594 18.8579 10.2281C18.877 10.2933 18.9125 10.3532 18.9614 10.4024L18.9961 10.4439L19.0151 10.4737C19.0335 10.501 19.0526 10.5275 19.071 10.5541L19.1084 10.5969ZM15.5057 12.0808C15.501 12.0536 15.4874 12.0425 15.4615 12.062C15.4532 12.0702 15.4464 12.0796 15.4411 12.0899L15.503 12.0821C15.503 12.0633 15.5241 12.0445 15.503 12.027C15.4923 12.0314 15.4832 12.0389 15.4772 12.0484C15.4629 12.0762 15.4799 12.0834 15.5057 12.0808ZM18.7701 10.1431L18.8048 10.1833C18.8191 10.2067 18.83 10.254 18.8647 10.2261C18.8994 10.1982 18.8456 10.1781 18.8313 10.1541L18.7952 10.1127C18.7816 10.0913 18.7598 10.077 18.7415 10.0978C18.7231 10.1185 18.7592 10.1289 18.7701 10.1431ZM13.0625 28.3347L13.0243 28.3476C13.0243 28.3476 13.0284 28.3561 13.0318 28.3567C13.0522 28.3612 13.0577 28.3476 13.0611 28.3321C13.057 28.345 13.0318 28.3522 13.0482 28.3703C13.0482 28.3742 13.0672 28.3755 13.0686 28.3703C13.0767 28.3593 13.0413 28.3515 13.0625 28.3347ZM15.6725 10.9016C15.7073 10.886 15.7324 10.8646 15.7263 10.8238C15.7644 10.8238 15.7747 10.8011 15.7821 10.7726L15.7998 10.7609L15.7855 10.7525L15.7808 10.7732C15.744 10.7732 15.7311 10.7946 15.7277 10.8257C15.693 10.842 15.663 10.8614 15.6739 10.9048C15.6582 10.9003 15.6494 10.9048 15.6576 10.9197L15.6725 10.9016ZM11.4109 20.1212C11.4034 20.1328 11.3898 20.1445 11.3891 20.1568C11.3884 20.1692 11.4034 20.1659 11.4136 20.164C11.4443 20.1406 11.4912 20.1179 11.4565 20.0765C11.4429 20.0602 11.4116 20.0907 11.4109 20.1212ZM11.3306 21.126C11.3064 21.1433 11.2869 21.1658 11.2737 21.1918C11.2606 21.2177 11.2542 21.2463 11.255 21.2751C11.2782 21.2567 11.2969 21.2336 11.3096 21.2074C11.3223 21.1813 11.3288 21.1528 11.3285 21.124L11.3517 21.1001L11.3374 21.0903L11.3306 21.126ZM17.0865 12.1975L17.1185 11.8461C17.0504 11.9602 17.0715 12.0834 17.0654 12.2033C16.9973 12.2921 17.0654 12.3855 17.0518 12.4769C17.0443 12.3816 17.1165 12.2954 17.0865 12.1975ZM23.208 21.338C23.2458 21.4682 23.2969 21.5945 23.3605 21.7153L23.3946 21.7023C23.3346 21.5636 23.2745 21.4253 23.2141 21.2874C23.2028 21.217 23.1683 21.1518 23.1154 21.1014C23.1301 21.1841 23.1616 21.2634 23.208 21.3347V21.338ZM12.9685 28.3029L12.9903 28.3269L12.9991 28.3087L12.9665 28.3048C12.8494 28.1337 12.6315 27.9749 12.541 28.0086C12.6867 28.1104 12.8119 28.2258 12.9685 28.3029ZM17.1512 10.9055L17.1015 11.7191H17.1348L17.1852 10.8899C17.2261 10.8134 17.207 10.7337 17.2009 10.641C17.1199 10.7298 17.1451 10.8193 17.1512 10.9055ZM18.9545 7.29078C19.2459 7.03925 19.5141 6.76568 19.7783 6.48888C19.7919 6.48045 19.8116 6.47461 19.7892 6.45646C19.7813 6.46296 19.7738 6.46989 19.7667 6.47721C19.4705 6.72365 19.194 6.99083 18.9396 7.27651C18.928 7.28753 18.9083 7.29661 18.9314 7.31282C18.9397 7.306 18.9474 7.29863 18.9545 7.29078ZM10.2052 22.897C10.2315 22.7675 10.2395 22.6351 10.2291 22.5035C10.1882 22.6308 10.1653 22.7627 10.161 22.8957C10.114 23.4662 10.0875 24.0354 10.2631 24.5929C10.1863 24.0307 10.167 23.4628 10.2052 22.897ZM12.0433 19.5909C12.4863 19.1995 12.9552 18.8355 13.4471 18.5012C12.895 18.7644 12.4007 19.0956 12.0256 19.5721C12.0134 19.5831 11.9746 19.5818 11.997 19.6084C12.0195 19.635 12.0352 19.6181 12.0433 19.5935V19.5909ZM18.1335 15.35C18.1205 15.3991 18.1121 15.4492 18.1083 15.4997C18.1131 16.0404 18.0586 16.5778 18.0403 17.1204C18.0403 17.169 18.0185 17.2332 18.1083 17.2273C18.1982 17.2215 18.1553 17.1573 18.1553 17.121C18.1553 16.5318 18.1553 15.9431 18.1512 15.3539C18.1781 15.1902 18.1781 15.0235 18.1512 14.8599C18.124 15.0228 18.118 15.1883 18.1335 15.3526V15.35ZM23.1903 25.8389C23.3898 25.2872 23.7349 24.7815 23.5988 24.1722C23.533 24.2834 23.4953 24.4077 23.4885 24.5352C23.48 24.8138 23.4191 25.0887 23.3088 25.3468C23.2461 25.4985 23.1522 25.6515 23.1903 25.8414V25.8389ZM22.8118 25.61L22.1583 26.8417C22.4539 26.473 22.6754 26.0554 22.8118 25.61ZM20.3222 12.0574C20.1391 11.7016 19.8804 11.393 19.6299 11.0786C19.8219 11.4319 20.0731 11.745 20.3222 12.0574ZM10.9779 26.5137L11.0542 26.6291C11.2034 26.8594 11.3676 27.0807 11.5457 27.2916C11.5695 27.3201 11.5933 27.3525 11.6321 27.3175C11.671 27.2825 11.6192 27.2683 11.6042 27.2527C11.4313 27.031 11.2566 26.8102 11.08 26.5902C11.0562 26.5604 11.0508 26.504 10.9779 26.5137ZM16.8448 14.609H16.8918C16.9047 14.1092 16.9755 13.6113 16.9381 13.1096C16.9054 13.6079 16.8743 14.107 16.8448 14.6071V14.609ZM17.5453 29.3472C17.2281 29.3472 16.9272 29.3505 16.6263 29.3317C16.9258 29.4244 17.2295 29.4574 17.5453 29.3453V29.3472ZM11.0712 26.0204C11.1617 26.2676 11.2927 26.4998 11.4592 26.7082C11.3663 26.4613 11.2356 26.2288 11.0712 26.0184V26.0204ZM22.9943 24.3997C23.1039 24.0918 23.1188 23.7728 23.1086 23.4513C23.0617 23.7657 23.0351 24.0834 22.9943 24.3991V24.3997ZM15.1926 29.2105C14.9693 29.073 14.6167 28.9512 14.5071 28.9713C14.7358 29.0562 14.953 29.1605 15.1926 29.2098V29.2105ZM22.7764 26.5137C22.8751 26.3626 23.0133 26.233 23.0331 26.0443C22.9384 26.1986 22.8118 26.3361 22.7764 26.5137ZM10.4939 23.1084H10.4571C10.449 23.2445 10.4401 23.3813 10.4319 23.5181C10.4857 23.3879 10.5069 23.2477 10.4939 23.1084ZM21.4332 19.5773C21.3454 19.4969 21.2855 19.3828 21.1364 19.3472C21.1655 19.4037 21.2071 19.4535 21.2583 19.4933C21.3095 19.533 21.3692 19.5617 21.4332 19.5773ZM11.159 20.5283L11.3884 20.1918C11.2836 20.2904 11.176 20.3811 11.159 20.5283ZM17.8306 17.2118C17.8605 17.1097 17.864 17.0023 17.8408 16.8987C17.8272 16.9927 17.7475 17.0802 17.8313 17.2118H17.8306ZM10.9806 25.3358L10.8758 24.954C10.8631 25.089 10.9002 25.224 10.9806 25.3358ZM14.746 11.863C14.6779 11.9524 14.6323 12.0134 14.5881 12.0762C14.5799 12.0879 14.5656 12.1067 14.5881 12.1203C14.5926 12.1236 14.5979 12.1259 14.6034 12.127C14.609 12.128 14.6148 12.1279 14.6203 12.1265C14.6258 12.1251 14.631 12.1226 14.6353 12.119C14.6396 12.1155 14.643 12.1111 14.6453 12.1061C14.6772 12.0341 14.7351 11.9758 14.746 11.863ZM22.8118 22.0115C22.8244 22.1298 22.8647 22.2438 22.9296 22.3454C22.9154 22.2274 22.8752 22.1137 22.8118 22.0115ZM17.9715 12.4749C17.9906 12.3757 18.0396 12.2766 17.9715 12.1813V12.4749ZM18.011 10.9074V11.1583C18.0331 11.1199 18.0448 11.0768 18.0451 11.033C18.0453 10.9892 18.0341 10.9461 18.0124 10.9074H18.011ZM14.2395 29.1528L14.2286 29.1832C14.2983 29.229 14.3817 29.2517 14.4662 29.2481L14.2395 29.1528ZM19.4352 18.3015L19.2466 18.2367C19.2667 18.2652 19.2958 18.2868 19.3297 18.2985C19.3637 18.3101 19.4006 18.3112 19.4352 18.3015ZM13.8528 28.9894C13.7705 28.9285 13.7235 28.8837 13.6261 28.8798C13.6891 28.9348 13.7665 28.9727 13.8501 28.9894H13.8528ZM11.2387 21.2861C11.1951 21.3509 11.1563 21.3892 11.1801 21.4443C11.204 21.4254 11.222 21.4007 11.2323 21.3729C11.2426 21.345 11.2448 21.315 11.2387 21.2861ZM13.8106 28.9719C13.8554 29.019 13.9171 29.0483 13.9835 29.0542C13.9361 29.0109 13.8761 28.9822 13.8113 28.9719H13.8106ZM20.0138 29.134C20.0029 29.1255 19.9955 29.1171 19.9934 29.1184C19.9787 29.126 19.9646 29.1347 19.9512 29.1443C19.956 29.1482 19.9628 29.156 19.9662 29.1547C19.9828 29.1488 19.9989 29.1419 20.0145 29.134H20.0138ZM19.1799 18.2257L19.1697 18.2218V18.227L19.1799 18.2257ZM12.6485 26.9156L12.6172 26.9383C12.6227 26.9441 12.6268 26.9526 12.6336 26.9545C12.6404 26.9565 12.6601 26.9655 12.6628 26.9474C12.6635 26.939 12.6547 26.9292 12.6485 26.9156ZM19.8307 29.1968L19.8191 29.2007L19.8307 29.204V29.1968ZM12.7023 26.9837C12.7023 26.9869 12.6969 26.9908 12.6976 26.9928C12.703 27.0057 12.7105 27.0057 12.7166 26.9928C12.7165 26.991 12.7161 26.9893 12.7153 26.9877C12.7144 26.9862 12.7133 26.9848 12.7119 26.9837C12.7119 26.9837 12.7057 26.9843 12.7023 26.9837ZM14.5179 29.2792L14.5091 29.2746V29.2818L14.5179 29.2792Z" fill="#040303"/>
  <path d="M24.9378 12.589C24.9378 12.7835 24.8289 12.9047 24.656 12.9028C24.6195 12.9039 24.5832 12.8976 24.5493 12.8845C24.5155 12.8714 24.485 12.8517 24.4596 12.8267C24.4343 12.8016 24.4148 12.7718 24.4023 12.7392C24.3898 12.7065 24.3846 12.6717 24.3871 12.637C24.3912 12.4821 24.5266 12.3777 24.7159 12.3777C24.8834 12.3816 24.9399 12.436 24.9378 12.589Z" fill="#F8F2EA"/>
  <path d="M24.7317 12.2396C25.0653 12.2059 25.2048 12.3887 25.0721 12.6967C25.0952 12.4503 25.0299 12.2643 24.7317 12.2396Z" fill="#F8F2EA"/>
  <path d="M7.82658 16.8267C7.82391 16.7997 7.82722 16.7724 7.83629 16.7467C7.84535 16.721 7.85998 16.6973 7.87921 16.6773C7.89845 16.6573 7.92188 16.6413 7.94798 16.6304C7.97409 16.6195 8.0023 16.614 8.03081 16.6141C8.08286 16.6127 8.13348 16.6304 8.17233 16.6634C8.21117 16.6964 8.23531 16.7423 8.2398 16.7917C8.2398 16.9 8.10365 17.0173 7.9675 17.0102C7.83134 17.003 7.84223 16.8974 7.82658 16.8267Z" fill="#F8F2EA"/>
  <path d="M8.29433 16.5849C8.1466 16.4216 7.97028 16.4501 7.76196 16.5512C7.88995 16.3937 8.00228 16.349 8.12958 16.3969C8.21468 16.4287 8.30726 16.4676 8.28956 16.5849H8.29433Z" fill="#F8F2EA"/>
  <path d="M8.28955 16.586L8.28809 16.5798L8.29393 16.586H8.28955Z" fill="#F8F2EA"/>
  <path d="M11.5716 14.5144C11.6397 14.5274 11.7214 14.5488 11.7343 14.6441C11.7445 14.7199 11.6403 14.8308 11.5695 14.8158C11.479 14.7964 11.3531 14.8197 11.3245 14.6966C11.3068 14.6201 11.4525 14.5144 11.5716 14.5144Z" fill="#F8F2EA"/>
  <path d="M11.6547 14.3821C11.4471 14.3789 11.3034 14.4593 11.2381 14.6505C11.1789 14.5047 11.1952 14.4392 11.3062 14.3659C11.3557 14.3263 11.4192 14.3059 11.4838 14.3089C11.5484 14.312 11.6095 14.3381 11.6547 14.3821Z" fill="#F8F2EA"/>
  <path d="M23.4865 10.0816C23.5825 10.0965 23.6471 10.1393 23.6342 10.2281C23.6325 10.2699 23.6142 10.3094 23.5829 10.3388C23.5517 10.3682 23.5099 10.3852 23.466 10.3863C23.4454 10.3876 23.4247 10.3849 23.4052 10.3782C23.3857 10.3715 23.3679 10.361 23.3529 10.3474C23.338 10.3338 23.3261 10.3174 23.3182 10.2992C23.3102 10.281 23.3063 10.2614 23.3067 10.2417C23.3027 10.1724 23.4245 10.079 23.4865 10.0816Z" fill="#F8F2EA"/>
  <path d="M26.5057 22.8893C26.582 22.9003 26.6705 22.9022 26.6636 23.0189C26.6582 23.1058 26.618 23.159 26.5193 23.1525C26.4206 23.146 26.3199 23.1006 26.3151 22.9969C26.3103 22.8932 26.4199 22.8977 26.5057 22.8893Z" fill="#F8F2EA"/>
  <path d="M7.56255 13.4324C7.56255 13.4973 7.45022 13.6185 7.3767 13.612C7.28888 13.6042 7.25348 13.5472 7.25007 13.4687C7.24811 13.445 7.25131 13.4211 7.25947 13.3986C7.26763 13.3761 7.28059 13.3555 7.29752 13.3379C7.31445 13.3204 7.335 13.3064 7.35788 13.2968C7.38076 13.2872 7.40547 13.2821 7.43048 13.282C7.51898 13.2853 7.56255 13.3358 7.56255 13.4324Z" fill="#F8F2EA"/>
  <path d="M26.663 20.1121C26.7114 20.1393 26.7931 20.1309 26.7849 20.2107C26.7815 20.2489 26.7706 20.3085 26.7168 20.3066C26.6845 20.305 26.6536 20.2932 26.629 20.2732C26.6043 20.2532 26.5874 20.2259 26.5807 20.1957C26.567 20.1478 26.6242 20.1283 26.663 20.1121Z" fill="#F8F2EA"/>
  <path d="M24.9441 8.12253C24.9441 8.02529 24.9836 7.95917 25.0864 7.96565C25.1592 7.97019 25.2477 7.97732 25.2511 8.07845C25.2545 8.15948 25.1402 8.28006 25.0659 8.27292C24.9679 8.26385 24.9543 8.188 24.9441 8.12253Z" fill="#F8F2EA"/>
  <path d="M13.3219 19.3284C13.8822 18.8633 14.5419 18.5196 15.2553 18.321C17.6591 17.6442 20.2808 18.5343 21.6457 20.5367C22.7152 22.1049 22.9011 23.8014 22.2332 25.5588C21.6505 27.0933 20.5367 28.172 18.9233 28.7107C17.1458 29.3045 15.4555 29.0348 13.8917 28.0423C13.5583 27.8309 13.2527 27.5821 12.9815 27.3014C12.9875 27.2967 12.9932 27.2917 12.9985 27.2864C13.307 27.5549 13.6412 27.7954 13.9966 28.0047C15.5501 28.8643 17.1771 29.0225 18.8784 28.4643C18.9764 28.4319 19.0826 28.4053 19.1337 28.3062C19.1534 28.2692 19.1915 28.2329 19.1548 28.1875C19.1396 28.1712 19.1197 28.1594 19.0976 28.1535C19.0755 28.1476 19.0521 28.148 19.0302 28.1545C18.9588 28.168 18.8884 28.1855 18.8192 28.207C16.8858 28.7904 15.094 28.5 13.5302 27.291C11.9386 26.0593 11.2837 24.4289 11.6111 22.4854C11.7112 21.8929 12.0155 21.3555 12.379 20.8648C13.3376 19.5682 14.6372 18.7735 16.286 18.531C17.7115 18.321 19.0016 18.6484 20.1399 19.4976C20.276 19.5987 20.3986 19.716 20.5313 19.8217C20.5585 19.8431 20.5926 19.9001 20.6436 19.8457C20.6865 19.801 20.6538 19.7627 20.6266 19.7303C20.4442 19.5164 20.2127 19.355 19.9819 19.1935C19.0629 18.5403 17.9447 18.1913 16.7979 18.1998C15.54 18.1886 14.3174 18.5953 13.3403 19.3498L13.3219 19.3284ZM22.0099 23.7003C22.0099 23.5875 22.0038 23.4753 22.0018 23.3625C21.9861 22.1749 21.5579 21.1409 20.6913 20.2872C19.7178 19.3277 18.5128 18.8299 17.1159 18.8389C15.3847 18.85 13.9686 19.4872 13.0054 20.8985C12.0918 22.2365 11.8841 23.6802 12.3545 25.2133C12.4001 25.3618 12.4812 25.4992 12.5029 25.6548C12.4682 25.636 12.4614 25.6003 12.4451 25.5705C12.212 25.138 12.0675 24.6672 12.0196 24.1832C11.9011 22.9723 12.1122 21.8365 12.9325 20.8557C12.9435 20.846 12.9523 20.8344 12.9585 20.8214C12.9646 20.8084 12.968 20.7944 12.9683 20.7802C12.9686 20.766 12.9659 20.7518 12.9603 20.7386C12.9548 20.7254 12.9465 20.7134 12.9359 20.7033C12.8821 20.6541 12.8461 20.7144 12.8134 20.7435C12.5401 20.9802 12.3172 21.2648 12.1571 21.5817C11.7636 22.3629 11.6561 23.1855 11.782 24.038C11.8781 24.7541 12.1668 25.4345 12.62 26.0133C12.6575 26.0612 12.6833 26.1351 12.7739 26.1137C13.4765 27.1468 14.5628 27.8893 15.8154 28.1928C17.0681 28.4962 18.3949 28.3383 19.5306 27.7506C19.7736 27.6255 19.9976 27.4718 20.2365 27.3409C20.0678 27.5217 19.8732 27.679 19.6586 27.8083C19.6225 27.8316 19.5612 27.8563 19.585 27.9023C19.6089 27.9483 19.6735 27.9431 19.7294 27.9211C19.9212 27.8411 20.0999 27.735 20.2597 27.606C20.92 27.0959 21.3809 26.4437 21.739 25.7189C21.9705 25.249 22.1359 24.7608 22.1413 24.2351C22.1434 24.0503 22.123 23.863 22.0099 23.7003Z" fill="#F8F2EA"/>
  <path d="M23.1903 25.8415C23.1535 25.6515 23.2461 25.4986 23.3087 25.3443C23.4198 25.088 23.482 24.8149 23.4925 24.5378C23.4993 24.4103 23.5371 24.2861 23.6028 24.1748C23.7335 24.7842 23.3897 25.2898 23.1903 25.8415Z" fill="#F8F2EA"/>
  <path d="M18.1546 15.3533C18.1546 15.9425 18.1593 16.5311 18.1587 17.1204C18.1587 17.1567 18.1979 17.2215 18.112 17.2267C18.0261 17.2319 18.0444 17.1684 18.0444 17.1198C18.0599 16.5804 18.112 16.043 18.112 15.4991C18.1157 15.4486 18.1241 15.3985 18.137 15.3494H18.1478L18.1546 15.3533Z" fill="#F8F2EA"/>
  <path d="M12.0256 19.5773C12.4007 19.1009 12.895 18.7696 13.4471 18.5064C12.9552 18.8407 12.4863 19.2047 12.0433 19.5961L12.0256 19.5773Z" fill="#F8F2EA"/>
  <path d="M10.2046 22.897C10.1655 23.4627 10.1836 24.0306 10.2588 24.5929C10.0842 24.0354 10.1106 23.4662 10.1573 22.8958L10.2046 22.897Z" fill="#F8F2EA"/>
  <path d="M22.8117 25.61C22.6754 26.0554 22.4538 26.473 22.1582 26.8417L22.8117 25.61Z" fill="#F8F2EA"/>
  <path d="M20.3222 12.0575C20.0731 11.7424 19.8219 11.4293 19.6299 11.0786C19.8804 11.3956 20.1391 11.7042 20.3222 12.0575Z" fill="#F8F2EA"/>
  <path d="M10.978 26.5137C11.0509 26.506 11.0563 26.5623 11.0801 26.5922C11.2571 26.8117 11.4319 27.0326 11.6043 27.2547C11.6193 27.2728 11.6724 27.2858 11.6323 27.3195C11.5921 27.3532 11.5696 27.3195 11.5458 27.2936C11.3675 27.0812 11.2033 26.8584 11.0543 26.6265L10.978 26.5137Z" fill="#F8F2EA"/>
  <path d="M19.7782 6.4889C19.514 6.76571 19.2458 7.03928 18.9544 7.2908L18.9395 7.27654C19.1939 6.99086 19.4704 6.72368 19.7666 6.47723L19.7782 6.4889Z" fill="#F8F2EA"/>
  <path d="M16.8447 14.6071C16.8754 14.1071 16.9063 13.6068 16.9374 13.1064C16.9746 13.6081 16.9043 14.106 16.8914 14.6058L16.8447 14.6071Z" fill="#6E6E6E"/>
  <path d="M17.5453 29.3453C17.2273 29.4575 16.9258 29.4244 16.6262 29.3298C16.9271 29.3486 17.2294 29.344 17.5453 29.3453Z" fill="#F8F2EA"/>
  <path d="M11.0713 26.0184C11.2355 26.2283 11.3662 26.46 11.4593 26.7062C11.2928 26.4978 11.1618 26.2657 11.0713 26.0184Z" fill="#F8F2EA"/>
  <path d="M22.9941 24.3991C23.0347 24.0834 23.0618 23.7657 23.1078 23.4507C23.1179 23.7722 23.1031 24.0912 22.9941 24.3991Z" fill="#6E6E6E"/>
  <path d="M15.1926 29.2099C14.953 29.1606 14.7358 29.0562 14.5071 28.9706C14.6167 28.9531 14.9693 29.0724 15.1926 29.2099Z" fill="#F8F2EA"/>
  <path d="M17.1848 10.8906L17.1347 11.7198H17.1016L17.1509 10.9062L17.1848 10.8906Z" fill="#F8F2EA"/>
  <path d="M22.7764 26.5137C22.8124 26.3348 22.9384 26.1974 23.033 26.0444C23.016 26.2343 22.8751 26.364 22.7764 26.5137Z" fill="#F8F2EA"/>
  <path d="M12.9685 28.3029C12.812 28.2258 12.6867 28.1084 12.541 28.0086C12.6316 27.9749 12.8494 28.1337 12.9665 28.3048L12.9685 28.3029Z" fill="#F8F2EA"/>
  <path d="M10.4934 23.1084C10.5063 23.2475 10.4852 23.3875 10.4319 23.5174C10.44 23.3806 10.4488 23.2439 10.4569 23.1077L10.4934 23.1084Z" fill="#F8F2EA"/>
  <path d="M21.4333 19.5773C21.3693 19.5617 21.3096 19.533 21.2583 19.4933C21.2071 19.4535 21.1655 19.4037 21.1365 19.3472C21.2856 19.3828 21.3455 19.4982 21.4333 19.5773Z" fill="#F8F2EA"/>
  <path d="M18.1552 15.3533H18.1444H18.1335C18.1201 15.1885 18.128 15.0228 18.1572 14.8599C18.1832 15.0235 18.1825 15.1899 18.1552 15.3533Z" fill="#6E6E6E"/>
  <path d="M11.1589 20.5283C11.176 20.3811 11.2835 20.2871 11.3884 20.1918L11.1589 20.5283Z" fill="#F8F2EA"/>
  <path d="M23.2141 21.2842C23.2745 21.422 23.3346 21.5603 23.3945 21.6991L23.3605 21.712C23.2969 21.5913 23.2458 21.4649 23.208 21.3347L23.2141 21.2842Z" fill="#F8F2EA"/>
  <path d="M12.2278 27.63C12.1032 27.5743 12.0386 27.468 11.9746 27.361C11.9616 27.339 11.963 27.3221 11.9929 27.3156C12.0508 27.4349 12.1706 27.5101 12.2469 27.6119L12.2278 27.63Z" fill="#F8F2EA"/>
  <path d="M17.831 17.2118C17.7478 17.0821 17.8269 16.9927 17.8411 16.8987C17.8642 17.0023 17.8607 17.1097 17.831 17.2118Z" fill="#F8F2EA"/>
  <path d="M10.9799 25.3358C10.8999 25.224 10.8631 25.089 10.8757 24.954L10.9799 25.3358Z" fill="#F8F2EA"/>
  <path d="M10.2048 22.8971H10.1575C10.1618 22.7641 10.1845 22.6322 10.2251 22.5049C10.2365 22.6359 10.2297 22.7678 10.2048 22.8971Z" fill="#6E6E6E"/>
  <path d="M14.746 11.863C14.7351 11.9784 14.678 12.0367 14.6466 12.1061C14.6444 12.1111 14.641 12.1155 14.6367 12.119C14.6323 12.1226 14.6272 12.1251 14.6217 12.1265C14.6162 12.1279 14.6104 12.1281 14.6048 12.127C14.5992 12.1259 14.594 12.1236 14.5895 12.1203C14.5656 12.1067 14.5799 12.0879 14.5895 12.0763C14.6323 12.0108 14.6793 11.9498 14.746 11.863Z" fill="#F8F2EA"/>
  <path d="M17.0654 12.2033C17.0715 12.0834 17.0539 11.9602 17.1182 11.8461L17.0864 12.1975L17.0654 12.2033Z" fill="#F8F2EA"/>
  <path d="M22.8118 22.0115C22.8748 22.1137 22.9147 22.2275 22.9288 22.3454C22.8643 22.2439 22.8243 22.1298 22.8118 22.0115Z" fill="#6E6E6E"/>
  <path d="M13.0767 19.5345L12.8589 19.7368V19.74C12.9807 19.7206 12.9835 19.5819 13.0808 19.5384L13.0767 19.5345Z" fill="#F8F2EA"/>
  <path d="M17.9729 12.4749V12.1813C18.046 12.2766 17.9918 12.3758 17.9729 12.4749Z" fill="#6E6E6E"/>
  <path d="M18.0125 10.9075C18.0342 10.946 18.0457 10.9891 18.0457 11.0329C18.0457 11.0767 18.0342 11.1198 18.0125 11.1583V10.9075Z" fill="#F8F2EA"/>
  <path d="M17.0651 12.2033L17.0861 12.1975C17.1159 12.2954 17.0442 12.3816 17.0516 12.4769C17.0624 12.3855 17.0009 12.2922 17.0651 12.2033Z" fill="#6E6E6E"/>
  <path d="M17.1849 10.8906L17.1511 10.9036C17.145 10.8174 17.1199 10.7279 17.2004 10.6443C17.2065 10.7363 17.2288 10.8161 17.1849 10.8906Z" fill="#6E6E6E"/>
  <path d="M23.2136 21.2842L23.2075 21.3348C23.1609 21.2624 23.1297 21.182 23.1155 21.0981C23.168 21.1486 23.2023 21.2138 23.2136 21.2842Z" fill="#6E6E6E"/>
  <path d="M14.2394 29.1528L14.4661 29.2455C14.3816 29.2491 14.2982 29.2264 14.2285 29.1806L14.2394 29.1528Z" fill="#6E6E6E"/>
  <path d="M19.4352 18.3015C19.4006 18.3112 19.3636 18.3102 19.3297 18.2985C19.2958 18.2868 19.2667 18.2652 19.2466 18.2367L19.4352 18.3015Z" fill="#6E6E6E"/>
  <path d="M13.8501 28.9894C13.7648 28.9735 13.6857 28.9356 13.6213 28.8799C13.7207 28.8838 13.7677 28.9285 13.8501 28.9894Z" fill="#F8F2EA"/>
  <path d="M18.9607 10.4031C18.9123 10.3535 18.877 10.2935 18.8579 10.2281C18.9183 10.2594 18.9643 10.3112 18.9871 10.3733L18.9607 10.4031Z" fill="#6E6E6E"/>
  <path d="M13.3393 19.3459L13.2162 19.436L13.2026 19.4224C13.2334 19.3821 13.274 19.3498 13.321 19.3284L13.3393 19.3459Z" fill="#F8F2EA"/>
  <path d="M12.8719 27.1866C12.8164 27.1756 12.7975 27.1283 12.769 27.0907L12.7934 27.0641C12.834 27.0913 12.8668 27.1279 12.8888 27.1704C12.8846 27.177 12.8788 27.1826 12.8719 27.1866Z" fill="#6E6E6E"/>
  <path d="M11.328 21.1241C11.3283 21.1529 11.3218 21.1814 11.3092 21.2075C11.2966 21.2336 11.278 21.2567 11.255 21.2751C11.2541 21.2463 11.2605 21.2178 11.2736 21.1918C11.2866 21.1659 11.306 21.1433 11.33 21.126L11.328 21.1241Z" fill="#6E6E6E"/>
  <path d="M11.2382 21.2861C11.2443 21.3151 11.2421 21.3451 11.2319 21.3729C11.2216 21.4008 11.2037 21.4254 11.18 21.4443C11.157 21.3924 11.1955 21.3497 11.2382 21.2861Z" fill="#6E6E6E"/>
  <path d="M13.8113 28.9719C13.8763 28.9821 13.9366 29.0108 13.9842 29.0543C13.9178 29.0484 13.8561 29.019 13.8113 28.9719Z" fill="#F8F2EA"/>
  <path d="M12.8874 27.1704L12.9693 27.2612L12.9537 27.2761L12.8726 27.1866C12.8787 27.1824 12.8838 27.1768 12.8874 27.1704Z" fill="#F8F2EA"/>
  <path d="M11.7253 20.4097L11.7855 20.3118L11.8092 20.3325L11.7463 20.4291L11.7253 20.4097Z" fill="#6E6E6E"/>
  <path d="M19.0706 10.5542C19.0523 10.5276 19.0334 10.501 19.0151 10.4738L19.0422 10.4524C19.0695 10.4715 19.0883 10.4997 19.095 10.5315L19.0706 10.5542Z" fill="#6E6E6E"/>
  <path d="M20.0141 29.134C19.9989 29.1419 19.983 29.1488 19.9668 29.1547C19.9668 29.1547 19.9566 29.1482 19.9519 29.1443C19.9652 29.1347 19.9792 29.1261 19.9938 29.1184C19.9938 29.1184 20.0033 29.1255 20.0141 29.134Z" fill="#6E6E6E"/>
  <path d="M11.4109 20.1212C11.4109 20.0907 11.4427 20.0603 11.4562 20.0765C11.4907 20.118 11.444 20.1413 11.4136 20.164L11.4109 20.1212Z" fill="#6E6E6E"/>
  <path d="M11.6992 20.5128C11.6856 20.5283 11.6897 20.5744 11.6552 20.5536C11.6335 20.5407 11.6552 20.5102 11.6775 20.4946L11.6992 20.5128Z" fill="#6E6E6E"/>
  <path d="M11.7832 20.3118C11.7855 20.2956 11.792 20.2802 11.802 20.267C11.812 20.2537 11.8253 20.2431 11.8407 20.236L11.8563 20.2509C11.8501 20.2827 11.8327 20.3116 11.8069 20.3326L11.7832 20.3118Z" fill="#6E6E6E"/>
  <path d="M11.5553 19.987L11.5066 20.0518L11.4836 20.0246L11.531 19.9598L11.5553 19.987Z" fill="#6E6E6E"/>
  <path d="M18.8311 10.1535C18.8453 10.1781 18.8919 10.2041 18.8642 10.2261C18.8365 10.2481 18.8189 10.2067 18.8047 10.1833L18.8311 10.1535Z" fill="#6E6E6E"/>
  <path d="M15.968 10.534C15.971 10.5214 15.9769 10.5096 15.9852 10.4994C15.9935 10.4892 16.004 10.4809 16.016 10.475C16.0207 10.4801 16.0256 10.4849 16.0309 10.4893C16.0278 10.5017 16.022 10.5133 16.0138 10.5234C16.0057 10.5334 15.9954 10.5417 15.9836 10.5476L15.968 10.534Z" fill="#6E6E6E"/>
  <path d="M15.7317 10.8258C15.7351 10.7946 15.7479 10.7733 15.7845 10.7733C15.777 10.8018 15.7669 10.8271 15.729 10.8245L15.7317 10.8258Z" fill="#6E6E6E"/>
  <path d="M15.7259 10.8258C15.732 10.8666 15.7069 10.8906 15.6724 10.9036C15.6616 10.8601 15.6914 10.8387 15.7259 10.8245V10.8258Z" fill="#6E6E6E"/>
  <path d="M13.0617 28.334C13.0414 28.3515 13.0786 28.3593 13.0684 28.3729C13.0684 28.3729 13.0515 28.3729 13.0481 28.3729C13.0319 28.3548 13.0569 28.3477 13.061 28.3347L13.0617 28.334Z" fill="#F8F2EA"/>
  <path d="M12.4759 20.1608C12.4705 20.1906 12.459 20.2139 12.4204 20.2113C12.4279 20.1841 12.436 20.1562 12.4752 20.1608H12.4759Z" fill="#6E6E6E"/>
  <path d="M12.8571 19.7368C12.8426 19.7408 12.8299 19.7494 12.8211 19.7611C12.8123 19.7729 12.8078 19.7871 12.8084 19.8016C12.8348 19.7899 12.8618 19.7782 12.8537 19.7419L12.8571 19.7368Z" fill="#F8F2EA"/>
  <path d="M11.6029 19.9015C11.6029 19.8852 11.6029 19.8658 11.6273 19.8645C11.6273 19.8645 11.6361 19.8703 11.6354 19.8736C11.6354 19.8937 11.6246 19.9047 11.6016 19.9002L11.6029 19.9015Z" fill="#6E6E6E"/>
  <path d="M15.5771 11.9278C15.6265 11.9699 15.5818 11.9822 15.5527 12.001C15.5291 11.966 15.5852 11.9576 15.5771 11.9284V11.9278Z" fill="#F8F2EA"/>
  <path d="M19.1799 18.2261L19.1689 18.2276L19.1696 18.2218L19.1799 18.2261Z" fill="#6E6E6E"/>
  <path d="M18.7698 10.1438C18.759 10.1289 18.7191 10.1263 18.7427 10.0991C18.7664 10.0718 18.7826 10.0926 18.7962 10.114L18.7698 10.1438Z" fill="#6E6E6E"/>
  <path d="M18.7952 10.1127L18.8297 10.1529L18.8033 10.182L18.7688 10.1418L18.7952 10.1127Z" fill="#6E6E6E"/>
  <path d="M15.5034 12.0821L15.4412 12.0899C15.4464 12.0797 15.4533 12.0703 15.4615 12.062C15.4872 12.0426 15.5007 12.0536 15.5054 12.0808L15.5034 12.0821Z" fill="#F8F2EA"/>
  <path d="M18.9878 10.372L19.025 10.4206L18.9959 10.4427L18.9614 10.4012C18.9704 10.393 18.9792 10.3832 18.9878 10.372Z" fill="#6E6E6E"/>
  <path d="M15.5055 12.0808C15.4798 12.0808 15.4629 12.0762 15.4765 12.0484C15.4825 12.0389 15.4915 12.0314 15.5022 12.027C15.5238 12.0445 15.5022 12.0633 15.5022 12.0821L15.5055 12.0808Z" fill="#F8F2EA"/>
  <path d="M12.6483 26.9156C12.6544 26.9293 12.6632 26.939 12.6625 26.9474C12.6625 26.9656 12.6436 26.9578 12.6334 26.9545C12.6233 26.9513 12.6226 26.9442 12.6172 26.9383L12.6483 26.9156Z" fill="#6E6E6E"/>
  <path d="M19.0954 10.5314L19.1319 10.5788L19.1083 10.5969L19.071 10.5541L19.0954 10.5314Z" fill="#6E6E6E"/>
  <path d="M11.9927 27.3156C11.9927 27.3325 11.9927 27.3513 11.967 27.3474C11.9575 27.3474 11.9507 27.3325 11.9426 27.3247L11.994 27.3182C11.9937 27.3173 11.9933 27.3164 11.9927 27.3156Z" fill="#F8F2EA"/>
  <path d="M20.098 29.0834C20.0971 29.0875 20.0952 29.0913 20.0925 29.0946C20.0899 29.098 20.0865 29.1007 20.0827 29.1027C20.0788 29.1046 20.0746 29.1058 20.0702 29.106C20.0659 29.1063 20.0615 29.1057 20.0574 29.1042C20.0541 29.1042 20.0507 29.0944 20.0514 29.0931C20.0573 29.0868 20.0652 29.0826 20.0739 29.0811C20.0826 29.0795 20.0915 29.0808 20.0994 29.0847L20.098 29.0834Z" fill="#6E6E6E"/>
  <path d="M19.8302 29.1969V29.2037L19.8191 29.2006L19.8302 29.1969Z" fill="#6E6E6E"/>
  <path d="M12.0431 19.5935C12.035 19.6181 12.012 19.6298 11.9971 19.611C11.9822 19.5922 12.0133 19.5857 12.0255 19.5747L12.0431 19.5935Z" fill="#F8F2EA"/>
  <path d="M12.8081 19.8024L12.7881 19.7983L12.7961 19.8154L12.8101 19.7997L12.8081 19.8024Z" fill="#F8F2EA"/>
  <path d="M11.5315 19.9604L11.5728 19.9254L11.5883 19.9403L11.5558 19.987L11.5315 19.9604Z" fill="#6E6E6E"/>
  <path d="M13.1217 19.4807C13.1447 19.4736 13.1569 19.4301 13.1894 19.4626H13.1853C13.1671 19.4852 13.1535 19.5274 13.1177 19.4814L13.1217 19.4807Z" fill="#F8F2EA"/>
  <path d="M12.4202 20.2126V20.235L12.4082 20.2298L12.4242 20.2139L12.4202 20.2126Z" fill="#6E6E6E"/>
  <path d="M11.7285 20.4615C11.719 20.4784 11.7095 20.4953 11.6994 20.5121L11.6777 20.4946C11.6872 20.4771 11.6967 20.4603 11.7055 20.4427L11.7285 20.4615Z" fill="#6E6E6E"/>
  <path d="M12.4777 20.1607C12.4754 20.1556 12.4742 20.1501 12.4744 20.1445C12.4745 20.1389 12.4759 20.1334 12.4785 20.1284C12.4811 20.1234 12.4848 20.119 12.4893 20.1155C12.4938 20.112 12.4991 20.1095 12.5048 20.1082C12.5075 20.1133 12.509 20.1189 12.5091 20.1246C12.5092 20.1303 12.5079 20.1359 12.5054 20.1411C12.5028 20.1462 12.499 20.1507 12.4944 20.1542C12.4897 20.1578 12.4842 20.1602 12.4784 20.1614L12.4777 20.1607Z" fill="#6E6E6E"/>
  <path d="M11.3306 21.126L11.3374 21.0903L11.3516 21.1001L11.3286 21.124L11.3306 21.126Z" fill="#6E6E6E"/>
  <path d="M18.9543 7.29081C18.9472 7.29867 18.9395 7.30604 18.9313 7.31285C18.9083 7.29665 18.9279 7.28757 18.9394 7.27655L18.9543 7.29081Z" fill="#F8F2EA"/>
  <path d="M16.0762 10.4023L16.1028 10.3901L16.0948 10.4208L16.0762 10.4023Z" fill="#6E6E6E"/>
  <path d="M16.0951 10.4213C16.0857 10.4271 16.0708 10.4394 16.0681 10.4375C16.0505 10.4232 16.0627 10.4122 16.0762 10.4025L16.0951 10.4213Z" fill="#6E6E6E"/>
  <path d="M19.0252 10.4219L19.0421 10.4524L19.015 10.4738L18.9961 10.444L19.0252 10.4219Z" fill="#6E6E6E"/>
  <path d="M16.0164 10.4748C16.0257 10.4671 16.0324 10.4461 16.0484 10.4665C16.0484 10.4665 16.037 10.4812 16.031 10.4889C16.0258 10.4845 16.0209 10.4798 16.0164 10.4748Z" fill="#6E6E6E"/>
  <path d="M15.9833 10.5477L15.9569 10.5749L15.9441 10.5632L15.9678 10.5341L15.9833 10.5477Z" fill="#6E6E6E"/>
  <path d="M15.9565 10.5747L15.9312 10.5856L15.9438 10.5632L15.9565 10.5747Z" fill="#6E6E6E"/>
  <path d="M19.1352 10.5788L19.1392 10.6101L19.1118 10.5967L19.1352 10.5788Z" fill="#6E6E6E"/>
  <path d="M15.8911 10.643L15.8958 10.6216L15.9091 10.6303L15.8918 10.6436L15.8911 10.643Z" fill="#6E6E6E"/>
  <path d="M13.1916 19.4626C13.1612 19.4405 13.1916 19.4334 13.2025 19.4224L13.216 19.436C13.2161 19.4395 13.2155 19.4429 13.214 19.4461C13.2126 19.4493 13.2105 19.4522 13.2077 19.4545C13.205 19.4568 13.2018 19.4585 13.1983 19.4594C13.1948 19.4604 13.1911 19.4605 13.1876 19.46L13.1916 19.4626Z" fill="#F8F2EA"/>
  <path d="M15.3795 12.1826H15.3484C15.3484 12.1761 15.3484 12.1657 15.3524 12.1638C15.3721 12.1541 15.3809 12.1638 15.3842 12.1826H15.3795Z" fill="#F8F2EA"/>
  <path d="M15.3992 12.1515C15.3925 12.1619 15.3857 12.1722 15.3796 12.1826H15.3844C15.3735 12.1729 15.3546 12.1638 15.3735 12.1476C15.379 12.1431 15.3938 12.1476 15.404 12.1508L15.3992 12.1515Z" fill="#F8F2EA"/>
  <path d="M15.4042 12.154C15.3947 12.1456 15.3859 12.1359 15.3988 12.1255C15.4116 12.1151 15.413 12.1255 15.4204 12.1255L15.3995 12.1508L15.4042 12.154Z" fill="#F8F2EA"/>
  <path d="M11.8438 20.2357L11.8691 20.2204L11.8591 20.2504L11.8438 20.2357Z" fill="#6E6E6E"/>
  <path d="M13.1176 19.4788C13.1602 19.4924 13.1359 19.5066 13.1176 19.5209L13.1047 19.5118C13.1108 19.5014 13.1169 19.4911 13.1223 19.4807L13.1176 19.4788Z" fill="#F8F2EA"/>
  <path d="M11.7056 20.4427C11.7123 20.4317 11.7191 20.4207 11.7252 20.4097L11.7462 20.4291L11.7286 20.4615L11.7056 20.4427Z" fill="#6E6E6E"/>
  <path d="M12.5369 20.0906C12.5303 20.1047 12.5223 20.1155 12.5029 20.1085L12.5269 20.0804L12.5369 20.0906Z" fill="#6E6E6E"/>
  <path d="M15.5771 11.9278C15.5947 11.9278 15.6042 11.922 15.6049 11.9045C15.6137 11.9168 15.6265 11.9311 15.6049 11.9408C15.5995 11.9408 15.588 11.9324 15.5785 11.9272L15.5771 11.9278Z" fill="#F8F2EA"/>
  <path d="M15.6052 11.9052C15.609 11.9054 15.6127 11.9048 15.6162 11.9035C15.6196 11.9022 15.6228 11.9001 15.6253 11.8976C15.6279 11.895 15.6299 11.8919 15.6311 11.8885C15.6323 11.8851 15.6327 11.8815 15.6323 11.8779C15.637 11.887 15.6485 11.8987 15.6458 11.9045C15.635 11.9253 15.6188 11.9136 15.6052 11.9045V11.9052Z" fill="#F8F2EA"/>
  <path d="M12.7023 26.9837C12.7056 26.9837 12.7096 26.9837 12.7116 26.9837C12.713 26.9849 12.7141 26.9863 12.7149 26.988C12.7157 26.9896 12.7162 26.9914 12.7163 26.9933C12.7103 27.0063 12.7029 27.0063 12.6976 26.9933C12.6969 26.9912 12.7009 26.9871 12.7023 26.9837Z" fill="#6E6E6E"/>
  <path d="M12.5322 20.0821L12.5536 20.0674C12.5489 20.0751 12.5449 20.0827 12.5402 20.0897L12.5322 20.0821Z" fill="#6E6E6E"/>
  <path d="M12.7669 27.0907L12.7405 27.0634L12.7614 27.033L12.7912 27.0641L12.7669 27.0907Z" fill="#6E6E6E"/>
  <path d="M11.5065 20.0499C11.4957 20.0596 11.4849 20.079 11.468 20.0602C11.4511 20.0414 11.468 20.033 11.4835 20.0226L11.5065 20.0499Z" fill="#6E6E6E"/>
  <path d="M11.573 19.9254L11.6028 19.9027C11.5987 19.9157 11.594 19.9286 11.5899 19.9416L11.573 19.9254Z" fill="#6E6E6E"/>
  <path d="M12.9697 27.2612C12.9733 27.2609 12.9769 27.2614 12.9804 27.2625C12.9838 27.2637 12.987 27.2655 12.9896 27.2679C12.9923 27.2702 12.9944 27.2731 12.9959 27.2763C12.9973 27.2795 12.9981 27.283 12.9981 27.2865C12.9928 27.2918 12.9871 27.2967 12.9812 27.3014L12.9541 27.2761L12.9697 27.2612Z" fill="#F8F2EA"/>
  <path d="M15.2812 12.2059L15.3035 12.2319L15.2859 12.2448L15.2805 12.2072L15.2812 12.2059Z" fill="#F8F2EA"/>
  <path d="M19.7666 6.47693C19.7735 6.46972 19.7809 6.46289 19.7886 6.45648C19.8106 6.47437 19.7886 6.48012 19.7779 6.48843L19.7666 6.47693Z" fill="#F8F2EA"/>
  <path d="M12.2482 27.6158C12.2569 27.6281 12.2827 27.6378 12.2563 27.6566C12.2527 27.6575 12.249 27.6576 12.2454 27.6569C12.2418 27.6562 12.2384 27.6548 12.2355 27.6527C12.2326 27.6505 12.2302 27.6478 12.2285 27.6447C12.2268 27.6415 12.2259 27.6381 12.2258 27.6346L12.2482 27.6158Z" fill="#F8F2EA"/>
  <path d="M12.2598 27.6546C12.3064 27.6507 12.2855 27.676 12.2787 27.6955L12.2618 27.652L12.2598 27.6546Z" fill="#F8F2EA"/>
  <path d="M12.2754 27.6963L12.2927 27.6812C12.2927 27.6812 12.2967 27.6812 12.2987 27.6812L12.2754 27.6942V27.6963Z" fill="#F8F2EA"/>
  <path d="M15.6636 11.8481C15.6704 11.8617 15.6778 11.8773 15.6636 11.8876C15.6582 11.8876 15.646 11.8811 15.6372 11.8773C15.6534 11.8734 15.671 11.8708 15.667 11.8481H15.6636Z" fill="#F8F2EA"/>
  <path d="M15.6636 11.8487L15.6882 11.852L15.6829 11.8631L15.6636 11.8481V11.8487Z" fill="#F8F2EA"/>
  <path d="M12.7404 27.0634C12.7262 27.0524 12.712 27.0401 12.7289 27.0226C12.7323 27.0194 12.7499 27.0297 12.7614 27.033L12.7404 27.0634Z" fill="#6E6E6E"/>
  <path d="M13.0609 28.3321C13.0576 28.3477 13.0521 28.3613 13.0319 28.3567C13.0285 28.3567 13.0271 28.3509 13.0244 28.3477C13.0373 28.3431 13.0494 28.3392 13.0616 28.334L13.0609 28.3321Z" fill="#F8F2EA"/>
  <path d="M13.1174 19.5209C13.1066 19.5332 13.1005 19.5585 13.0754 19.5352C13.0754 19.5157 13.0829 19.5079 13.1018 19.5086L13.1174 19.5209Z" fill="#F8F2EA"/>
  <path d="M15.6722 10.9016L15.6582 10.9201C15.6502 10.9016 15.6582 10.8996 15.6742 10.9043L15.6722 10.9016Z" fill="#6E6E6E"/>
  <path d="M15.7815 10.7738L15.7862 10.7519L15.8002 10.7608L15.7822 10.7738H15.7815Z" fill="#6E6E6E"/>
  <path d="M15.8449 10.7038L15.8196 10.7185L15.8342 10.6923L15.8449 10.7038Z" fill="#6E6E6E"/>
  <path d="M20.0995 29.0849V29.0763C20.098 29.0785 20.0969 29.081 20.0962 29.0836L20.0995 29.0849Z" fill="#6E6E6E"/>
  <path d="M11.4107 20.1212V20.164C11.4005 20.164 11.385 20.1737 11.3863 20.1569C11.3877 20.14 11.4032 20.1329 11.4107 20.1212Z" fill="#F8F2EA"/>
  <path d="M15.8345 10.6922C15.8347 10.6888 15.8357 10.6855 15.8373 10.6824C15.8389 10.6794 15.8411 10.6767 15.8438 10.6744C15.8465 10.6722 15.8497 10.6705 15.853 10.6694C15.8564 10.6684 15.86 10.668 15.8636 10.6682L15.8446 10.7032L15.8345 10.6922Z" fill="#6E6E6E"/>
  <path d="M15.8912 10.643C15.8912 10.6589 15.8825 10.6685 15.8645 10.6685C15.8645 10.6526 15.8712 10.6411 15.8912 10.643Z" fill="#6E6E6E"/>
  <path d="M15.2805 12.2072L15.317 12.2208L15.3008 12.2357L15.2812 12.2065L15.2805 12.2072Z" fill="#F8F2EA"/>
  <path d="M14.5178 29.2791L14.5078 29.2816L14.5091 29.2747L14.5178 29.2791Z" fill="#6E6E6E"/>
  <path d="M12.9666 28.3048L12.9986 28.3087L12.9899 28.3266L12.9686 28.3029L12.9666 28.3048Z" fill="#F8F2EA"/>
  <path d="M12.5635 25.776C12.6064 25.9057 12.7541 25.9705 12.7739 26.1138C12.6833 26.1352 12.6575 26.0613 12.62 26.0133C12.1672 25.4344 11.8791 24.754 11.7834 24.038C11.6574 23.1856 11.765 22.3629 12.1585 21.5818C12.3183 21.2651 12.5406 20.9808 12.8134 20.7442C12.846 20.715 12.8814 20.6548 12.9359 20.704C12.9465 20.7141 12.9548 20.7261 12.9603 20.7393C12.9659 20.7525 12.9686 20.7667 12.9683 20.7809C12.968 20.7951 12.9646 20.8091 12.9585 20.8221C12.9523 20.8351 12.9435 20.8467 12.9325 20.8564C12.1156 21.8372 11.9011 22.9729 12.0196 24.1839C12.0675 24.6679 12.212 25.1387 12.4451 25.5712C12.4614 25.601 12.4682 25.636 12.5029 25.6554V25.6516C12.5005 25.6625 12.5023 25.674 12.5079 25.6838C12.5135 25.6937 12.5226 25.7013 12.5336 25.7054C12.533 25.7163 12.5357 25.7272 12.5412 25.7368C12.5467 25.7464 12.5549 25.7544 12.5649 25.7598V25.7559C12.5633 25.7625 12.5629 25.7693 12.5635 25.776Z" fill="#040303"/>
  <path d="M20.2677 27.3143C20.5287 27.0629 20.7635 26.7881 20.9689 26.4936C21.4093 25.8706 21.7606 25.2094 21.8873 24.4574C21.9151 24.2599 21.931 24.061 21.9349 23.8617C21.9349 23.802 21.9179 23.7255 22.0098 23.7003C22.1228 23.863 22.1459 24.0477 22.1412 24.2351C22.1357 24.7608 21.9703 25.249 21.7388 25.7189C21.3808 26.4437 20.9219 27.0959 20.2595 27.606C20.0997 27.735 19.9211 27.8411 19.7292 27.9211C19.6734 27.9431 19.6128 27.9567 19.5849 27.9023C19.557 27.8478 19.6223 27.8316 19.6584 27.8083C19.8731 27.679 20.0677 27.5217 20.2364 27.3409L20.2677 27.3143Z" fill="#040303"/>
  <path d="M12.532 25.7047C12.5211 25.7006 12.512 25.693 12.5065 25.6831C12.5009 25.6733 12.4991 25.6618 12.5015 25.6509C12.5435 25.6522 12.5252 25.6846 12.532 25.7047Z" fill="#F8F2EA"/>
  <path d="M12.5597 25.7559C12.5498 25.7504 12.5417 25.7424 12.5362 25.7328C12.5307 25.7232 12.5281 25.7124 12.5286 25.7014C12.5625 25.7073 12.5401 25.7423 12.5597 25.7559Z" fill="#F8F2EA"/>
  <path d="M12.5634 25.7757C12.5601 25.7682 12.5583 25.7601 12.5581 25.752C12.5601 25.7597 12.5614 25.768 12.5634 25.7757Z" fill="#F8F2EA"/>
</svg>