<svg width="20" height="21" viewBox="0 0 20 21" fill="none" xmlns="http://www.w3.org/2000/svg">
<path d="M0 10.1326C0.0356621 7.55952 0.860323 5.29401 2.52899 3.37762C3.88898 1.81602 5.57215 0.812982 7.52994 0.302743C8.13378 0.145407 8.74749 0.0540304 9.36906 0.0172697C10.6543 -0.0589825 11.9051 0.115788 13.118 0.571201C14.3593 1.03733 15.4562 1.74754 16.4136 2.69282C17.2284 3.49715 17.8637 4.43654 18.3799 5.47298C18.9114 6.54051 19.2567 7.66434 19.4117 8.85476C19.4812 9.38852 19.5124 9.9246 19.4955 10.4624C19.4171 12.9661 18.5824 15.1574 16.9546 17.002C15.5755 18.5646 13.8784 19.5687 11.8862 20.022C11.3148 20.1521 10.7365 20.2336 10.151 20.247C7.53357 20.3073 5.22561 19.4553 3.25754 17.6546C1.69465 16.2246 0.702967 14.4287 0.239158 12.3168C0.0953004 11.6622 0.0181333 10.998 0.00926812 10.3258C0.00846219 10.2649 0.00362665 10.2042 0.000201481 10.1328L0 10.1326Z" fill="#181818"/>
<path d="M10.2993 19.3113C8.94659 19.3369 7.68491 19.105 6.47502 18.5889C5.60704 18.2187 4.79608 17.7446 4.0903 17.0939C2.92997 16.0242 2.08153 14.7302 1.547 13.2138C1.31349 12.5517 1.15714 11.8696 1.07393 11.1701C0.991722 10.4807 0.96694 9.78835 1.0574 9.09914C1.1791 8.17235 1.43982 7.28568 1.82948 6.44207C2.59793 4.77839 3.73166 3.44912 5.22624 2.46267C6.21592 1.80959 7.29303 1.37476 8.44752 1.15441C9.0159 1.04581 9.58911 0.994761 10.1666 1.00043C11.0611 1.00926 11.9398 1.13823 12.7892 1.43274C13.3808 1.63776 13.9316 1.93983 14.4531 2.29609C16.1453 3.45248 17.3455 5.02752 18.1001 6.9771C18.4275 7.82301 18.6314 8.7017 18.713 9.61084C18.7525 10.0499 18.7746 10.49 18.7392 10.9296C18.6971 11.4518 18.5963 11.9642 18.4599 12.4685C18.0549 13.9639 17.3397 15.2779 16.3204 16.4099C15.2547 17.5934 13.981 18.4446 12.5045 18.9586C12.0611 19.113 11.5985 19.1894 11.1343 19.2478C10.8413 19.2846 10.5472 19.301 10.2993 19.3115V19.3113Z" fill="#F8F2EA"/>
<path d="M10.3792 17.9983C9.16032 18.0207 8.02348 17.8181 6.9333 17.3672C6.1512 17.0438 5.42048 16.6296 4.78453 16.061C3.73901 15.1265 2.97452 13.996 2.49288 12.6711C2.28247 12.0926 2.14159 11.4967 2.06661 10.8855C1.99254 10.2832 1.97021 9.67827 2.05172 9.07611C2.16138 8.26639 2.3963 7.49172 2.74741 6.75467C3.43982 5.30112 4.46138 4.13976 5.80808 3.27791C6.69983 2.70732 7.67038 2.32742 8.71063 2.1349C9.22277 2.04001 9.73927 1.99542 10.2596 2.00037C11.0656 2.00808 11.8574 2.12077 12.6228 2.37807C13.1558 2.5572 13.6521 2.82111 14.122 3.13237C15.6468 4.14269 16.7282 5.51879 17.4081 7.22211C17.7031 7.96118 17.8868 8.72888 17.9604 9.52319C17.996 9.90676 18.0159 10.2913 17.984 10.6754C17.946 11.1316 17.8553 11.5793 17.7324 12.0199C17.3674 13.3264 16.723 14.4744 15.8045 15.4634C14.8443 16.4974 13.6966 17.2411 12.3662 17.6902C11.9666 17.8251 11.5498 17.8919 11.1315 17.9429C10.8676 17.975 10.6025 17.9893 10.3792 17.9985V17.9983Z" fill="#181818"/>
<path d="M2.026 3.47259C2.23171 3.14951 2.46442 2.84786 2.71305 2.5605C2.85107 2.40106 3.01527 2.26873 3.18431 2.12399C2.81843 2.6044 2.42111 3.0386 2.04313 3.49044C2.02822 3.49401 2.02036 3.49044 2.026 3.47259Z" fill="#F8F2EA"/>
<path d="M14.9325 2.4398C15.378 2.81812 15.7824 3.23908 16.1414 3.70689C16.1444 3.72223 16.1402 3.73 16.1239 3.72433C15.74 3.28236 15.327 2.87064 14.9136 2.45934C14.9107 2.44337 14.916 2.4356 14.9323 2.4398H14.9325Z" fill="#F8F2EA"/>
<path d="M18.5954 8.96269C18.644 9.35551 18.6694 9.74937 18.6325 10.1447C18.6188 10.293 18.5971 10.4405 18.5789 10.5884C18.5368 10.5678 18.5648 10.534 18.5644 10.5054C18.5868 10.1382 18.6073 9.77101 18.5952 9.40277C18.5906 9.26182 18.5846 9.12087 18.5789 8.97992C18.5735 8.9629 18.5805 8.9587 18.5954 8.96248V8.96269Z" fill="#F8F2EA"/>
<path d="M10.2315 19.0027C10.0245 19.0306 9.81781 19.0594 9.61069 19.0863C9.41606 19.1117 9.22083 19.1329 9.0264 19.1611C8.97502 19.1687 8.92606 19.1603 8.87609 19.159C8.86138 19.1586 8.83378 19.1722 8.83721 19.1376C8.83942 19.1155 8.85675 19.1069 8.8775 19.1054C8.95165 19.1004 9.02559 19.0924 9.09994 19.0897C9.43419 19.0775 9.76603 19.0376 10.0975 18.9933C10.1416 18.9874 10.1861 18.98 10.2315 19.0025V19.0027Z" fill="#F8F2EA"/>
<path d="M5.44177 1.13156C5.84151 0.897758 6.27852 0.766259 6.71271 0.627409C6.73004 0.621317 6.73427 0.629509 6.73124 0.645894C6.30209 0.800079 5.87475 0.959936 5.45849 1.14941C5.44197 1.15445 5.43794 1.1471 5.44177 1.13156Z" fill="#F8F2EA"/>
<path d="M14.4819 17.2389C14.8311 16.92 15.1885 16.6104 15.5121 16.2613C15.4339 16.4205 14.7017 17.1192 14.4819 17.2389Z" fill="#F8F2EA"/>
<path d="M16.0439 2.81711C16.1967 2.93411 16.7832 3.6521 16.865 3.81532C16.57 3.50191 16.3381 3.13178 16.0439 2.81711Z" fill="#F8F2EA"/>
<path d="M14.529 1.84529C14.3174 1.71715 14.1061 1.5888 13.8945 1.46066C14.1276 1.54952 14.3743 1.61338 14.529 1.84529Z" fill="#F8F2EA"/>
<path d="M1.97758 4.00349C2.12245 3.78608 2.28605 3.58358 2.44844 3.38045C2.45973 3.36616 2.4694 3.33255 2.49619 3.35356C2.52581 3.37688 2.49962 3.39557 2.48471 3.41406C2.32131 3.61656 2.15791 3.81927 1.99471 4.02197C1.9804 4.0245 1.97234 4.0205 1.97778 4.00349H1.97758Z" fill="#F8F2EA"/>
<path d="M18.4734 11.3936C18.4313 11.6856 18.366 11.9719 18.2775 12.2526C18.2727 12.2586 18.2676 12.2589 18.2622 12.2532C18.3329 11.9501 18.4049 11.6474 18.4558 11.3396C18.4939 11.3461 18.4724 11.3739 18.4734 11.3934V11.3936Z" fill="#F8F2EA"/>
<path d="M16.124 3.72437C16.1299 3.71849 16.1357 3.71282 16.1416 3.70694C16.337 3.94095 16.5074 4.19407 16.6692 4.45392C16.6747 4.4703 16.6672 4.47303 16.6539 4.46967C16.4907 4.21088 16.3056 3.9691 16.124 3.72437Z" fill="#F8F2EA"/>
<path d="M18.4736 11.3937C18.4657 11.3764 18.477 11.3523 18.4561 11.3399C18.4921 11.0618 18.5282 10.7836 18.5642 10.5055C18.5743 10.5322 18.5588 10.5637 18.5788 10.5885C18.5437 10.857 18.5086 11.1252 18.4738 11.3937H18.4736Z" fill="#F8F2EA"/>
<path d="M18.1841 12.5702C18.1402 12.8015 18.0469 13.0153 17.9691 13.2346C17.9554 13.2732 17.9395 13.3111 17.9246 13.3493C17.9113 13.3512 17.9018 13.3497 17.9107 13.3321C18.0011 13.0747 18.0962 12.8189 18.1716 12.5561C18.1776 12.5538 18.1837 12.5517 18.1877 12.559C18.1893 12.562 18.1871 12.5662 18.1843 12.5702H18.1841Z" fill="#F8F2EA"/>
<path d="M18.3228 6.9796C18.3971 7.22054 18.4686 7.46232 18.4761 7.71775C18.4249 7.47177 18.3739 7.22579 18.3228 6.9796Z" fill="#F8F2EA"/>
<path d="M8.66282 0.199345C8.83689 0.1817 9.01017 0.153132 9.18505 0.1483C9.18586 0.158383 9.18687 0.168256 9.18767 0.178339C9.01823 0.191363 8.84878 0.204387 8.67914 0.21741C8.66302 0.221822 8.65838 0.21489 8.66261 0.199135L8.66282 0.199345Z" fill="#F8F2EA"/>
<path d="M0.0364605 9.58189V10.0783C0.0279984 10.0783 0.0195362 10.0778 0.011074 10.0776C-0.0247896 9.89909 0.0380724 9.7239 0.0364605 9.58189Z" fill="#F8F2EA"/>
<path d="M0.532377 6.54988C0.500543 6.64021 0.467903 6.73054 0.437076 6.82128C0.429017 6.84502 0.419346 6.86414 0.392751 6.853C0.358499 6.83851 0.38449 6.81792 0.392146 6.80154C0.431435 6.71709 0.471731 6.63349 0.511826 6.54946C0.518878 6.54253 0.525728 6.54274 0.532578 6.55009L0.532377 6.54988Z" fill="#F8F2EA"/>
<path d="M7.16006 0.377375C7.00532 0.417496 6.85078 0.457618 6.69604 0.49795C6.83567 0.416656 6.9896 0.388508 7.14353 0.359939C7.15925 0.355318 7.16388 0.36204 7.16006 0.377585V0.377375Z" fill="#F8F2EA"/>
<path d="M0.386677 12.1877C0.312532 12.0319 0.291578 11.8605 0.27002 11.6891C0.308905 11.8552 0.347791 12.0216 0.386677 12.1877Z" fill="#F8F2EA"/>
<path d="M1.97757 4.00342C1.98321 4.00951 1.98885 4.01581 1.9945 4.0219C1.92378 4.12336 1.85306 4.22503 1.78234 4.32649C1.77629 4.32229 1.77045 4.31809 1.7644 4.31389C1.83271 4.20865 1.89758 4.10089 1.97757 4.00342Z" fill="#F8F2EA"/>
<path d="M3.26367 16.8686C3.35837 16.9469 3.45306 17.0253 3.54776 17.1036C3.39967 17.0324 3.308 16.9562 3.26367 16.8686Z" fill="#F8F2EA"/>
<path d="M10.6365 0.0522893C10.5289 0.0438869 10.4211 0.0352744 10.3057 0.0262417C10.4243 -0.0384571 10.5299 0.037585 10.6385 0.0317033C10.6377 0.0384253 10.6371 0.0453573 10.6363 0.0520793L10.6365 0.0522893Z" fill="#F8F2EA"/>
<path d="M12.6104 0.892685C12.7347 0.90928 12.8425 0.959064 12.9406 1.03385C12.8306 0.986792 12.7204 0.939739 12.6104 0.892685Z" fill="#F8F2EA"/>
<path d="M6.73143 0.645878C6.72518 0.639787 6.71914 0.633485 6.71289 0.627393C6.80315 0.58412 6.89966 0.565425 6.99456 0.540848C6.99658 0.54757 6.99859 0.554292 7.00061 0.561014C6.91074 0.589372 6.82109 0.61752 6.73123 0.645878H6.73143Z" fill="#F8F2EA"/>
<path d="M11.1823 18.922C11.259 18.8983 11.3358 18.8743 11.4126 18.8506C11.3668 18.9334 11.2826 18.9145 11.2155 18.9401C11.199 18.9447 11.1803 18.9542 11.1823 18.922Z" fill="#F8F2EA"/>
<path d="M9.6958 19.2768C9.81891 19.2745 9.9404 19.2381 10.0647 19.2625C9.94161 19.2648 9.82052 19.3066 9.6958 19.2768Z" fill="#F8F2EA"/>
<path d="M2.98682 16.3603C3.05673 16.4288 3.12685 16.4975 3.19676 16.566C3.19233 16.5708 3.18769 16.5758 3.18326 16.5807C3.10589 16.52 3.03819 16.449 2.98682 16.3603Z" fill="#F8F2EA"/>
<path d="M3.40842 16.7812C3.33407 16.7281 3.26678 16.667 3.20996 16.5936C3.28773 16.6422 3.35563 16.7031 3.4197 16.769C3.42131 16.7783 3.41749 16.7825 3.40842 16.7812Z" fill="#F8F2EA"/>
<path d="M0.79331 13.5724C0.744149 13.4886 0.711912 13.3981 0.699219 13.2991C0.734679 13.3865 0.77014 13.4741 0.805601 13.5615C0.805601 13.5701 0.801571 13.5737 0.793512 13.5726L0.79331 13.5724Z" fill="#F8F2EA"/>
<path d="M14.9325 2.43977C14.9263 2.44629 14.92 2.4528 14.9138 2.45931C14.8656 2.41352 14.8175 2.36772 14.7695 2.32193C14.8362 2.34483 14.8876 2.38789 14.9327 2.43977H14.9325Z" fill="#F8F2EA"/>
<path d="M16.6538 4.4696C16.6588 4.46435 16.6641 4.45909 16.6691 4.45384C16.7217 4.51476 16.7578 4.58576 16.783 4.66474C16.7398 4.59962 16.6969 4.53451 16.6538 4.4696Z" fill="#F8F2EA"/>
<path d="M7.16008 0.377449C7.15464 0.371567 7.14899 0.365685 7.14355 0.359803C7.22153 0.332916 7.30071 0.31233 7.38332 0.311279C7.38513 0.31338 7.38674 0.315691 7.38856 0.317791C7.31542 0.350561 7.23684 0.359803 7.16008 0.377239V0.377449Z" fill="#F8F2EA"/>
<path d="M4.57617 17.6217C4.6338 17.6568 4.69162 17.6919 4.74924 17.7268C4.67933 17.715 4.6205 17.681 4.57617 17.6217Z" fill="#F8F2EA"/>
<path d="M11.1826 18.9221C11.1866 18.9423 11.2047 18.9341 11.2158 18.9402C11.1469 18.957 11.0782 18.974 11.0093 18.9908C11.0621 18.9509 11.1217 18.9345 11.1826 18.9221Z" fill="#F8F2EA"/>
<path d="M18.5955 8.96269C18.59 8.96857 18.5846 8.97424 18.579 8.98013C18.5576 8.919 18.5634 8.85661 18.5779 8.79338L18.5955 8.96269Z" fill="#F8F2EA"/>
<path d="M3.65367 16.9819C3.60048 16.949 3.54991 16.9124 3.5076 16.8649C3.50719 16.8567 3.51122 16.8538 3.51868 16.8557C3.57147 16.8796 3.60894 16.9248 3.65327 16.9605C3.66032 16.9674 3.66052 16.9746 3.65367 16.9819Z" fill="#F8F2EA"/>
<path d="M5.44194 1.13153C5.44758 1.13741 5.45302 1.1435 5.45866 1.14938C5.41615 1.18026 5.369 1.19959 5.31763 1.20799C5.35409 1.17291 5.3952 1.14728 5.44174 1.13132L5.44194 1.13153Z" fill="#F8F2EA"/>
<path d="M8.66282 0.19928C8.66826 0.205372 8.6739 0.211463 8.67934 0.217555C8.62635 0.245703 8.57115 0.232049 8.51514 0.219026C8.5643 0.212514 8.61366 0.205792 8.66282 0.19928Z" fill="#F8F2EA"/>
<path d="M0.531983 6.54986C0.525133 6.54986 0.518081 6.54944 0.51123 6.54923C0.53158 6.50238 0.55193 6.45554 0.572279 6.40891C0.570869 6.461 0.56281 6.50973 0.531983 6.54986Z" fill="#F8F2EA"/>
<path d="M0.871582 5.64599C0.895961 5.59411 0.92034 5.54201 0.94472 5.49013C0.950764 5.49307 0.95701 5.49601 0.963054 5.49895C0.939884 5.55147 0.925377 5.60818 0.871582 5.64599Z" fill="#F8F2EA"/>
<path d="M18.0427 7.19732C18.0309 7.14775 18.019 7.09817 18.0071 7.0486C18.0419 7.08536 18.0568 7.12905 18.0575 7.17779C18.0651 7.19459 18.0575 7.199 18.0425 7.19732H18.0427Z" fill="#F8F2EA"/>
<path d="M17.9106 13.3321C17.9152 13.3377 17.9198 13.3436 17.9245 13.3493C17.9096 13.3932 17.8928 13.436 17.8525 13.4827C17.8674 13.4205 17.8854 13.3749 17.9106 13.3321Z" fill="#F8F2EA"/>
<path d="M2.02599 3.47267C2.03163 3.47855 2.03747 3.48464 2.04311 3.49053C2.02397 3.5359 1.98932 3.56804 1.95386 3.60039C1.96816 3.55165 1.99113 3.50859 2.02599 3.47267Z" fill="#F8F2EA"/>
<path d="M0.805302 13.5615C0.830688 13.6077 0.854664 13.6541 0.859903 13.7092C0.829278 13.668 0.804294 13.6241 0.793213 13.5726C0.797243 13.5688 0.801272 13.5653 0.805302 13.5615Z" fill="#F8F2EA"/>
<path d="M3.65348 16.9819C3.65348 16.9747 3.65328 16.9676 3.65308 16.9605C3.69297 16.9844 3.72944 17.0128 3.75704 17.0535C3.71856 17.0361 3.67987 17.0193 3.65348 16.9821V16.9819Z" fill="#F8F2EA"/>
<path d="M17.9143 6.64781C17.8833 6.61231 17.8601 6.57387 17.8684 6.50728C17.8875 6.56589 17.901 6.60685 17.9143 6.64781Z" fill="#F8F2EA"/>
<path d="M18.0427 7.1973C18.0478 7.19079 18.0526 7.18428 18.0576 7.17776C18.0778 7.21684 18.0836 7.25906 18.0774 7.30443C18.0659 7.26872 18.0542 7.23301 18.0427 7.1973Z" fill="#F8F2EA"/>
<path d="M18.2625 12.2533C18.2677 12.2556 18.2728 12.2551 18.2778 12.2526C18.2663 12.2909 18.2548 12.3293 18.2365 12.3904C18.2301 12.3243 18.2405 12.2875 18.2625 12.2535V12.2533Z" fill="#F8F2EA"/>
<path d="M7.3833 0.311532C7.42521 0.289475 7.46913 0.279812 7.5326 0.287585C7.47397 0.299978 7.43387 0.321194 7.38854 0.318044C7.38673 0.315943 7.38511 0.313632 7.3833 0.311532Z" fill="#F8F2EA"/>
<path d="M3.50733 16.8649C3.47429 16.837 3.44125 16.8093 3.4082 16.7813C3.41203 16.7773 3.41566 16.7731 3.41949 16.7691C3.45716 16.7923 3.49041 16.8208 3.51841 16.8557C3.51358 16.8572 3.50995 16.8603 3.50733 16.8649Z" fill="#F8F2EA"/>
<path d="M18.1843 12.5702C18.1801 12.5656 18.1759 12.5607 18.1716 12.5561C18.1817 12.5196 18.1918 12.483 18.2019 12.4465C18.2073 12.4901 18.2089 12.5328 18.1841 12.5702H18.1843Z" fill="#F8F2EA"/>
<path d="M10.808 7.76663C10.9866 7.82108 11.1615 7.88828 11.3314 7.96775C11.7033 8.14114 12.0462 8.37599 12.3469 8.66331C12.6233 8.92479 12.8642 9.22471 13.0628 9.55467C13.2132 9.80314 13.3349 10.0693 13.4255 10.3478C13.5371 10.6923 13.6023 11.0514 13.6192 11.4148C13.6554 12.0838 13.5245 12.719 13.2714 13.3292C13.174 13.563 13.0555 13.7866 12.9174 13.9967C12.4443 14.7269 11.7726 15.2919 10.9893 15.6185C10.7561 15.7179 10.5128 15.7764 10.2701 15.8417C10.1552 15.8755 10.0374 15.8977 9.91834 15.9081C9.61695 15.9267 9.31411 15.9525 9.01163 15.9122C8.90609 15.8982 8.79402 15.9012 8.69428 15.8773C8.57278 15.8485 8.45055 15.8193 8.33159 15.7832C8.1546 15.7297 7.98305 15.6607 7.80897 15.5992C7.65304 15.5432 7.50335 15.4698 7.3625 15.3802C7.11289 15.2255 6.87705 15.0478 6.65781 14.849C6.43363 14.641 6.2301 14.4099 6.05031 14.1591C5.84866 13.8829 5.69633 13.577 5.56069 13.2617C5.46037 13.0152 5.38265 12.7593 5.32857 12.4974C5.29906 12.3495 5.27919 12.1996 5.26909 12.0489C5.23126 11.6244 5.2598 11.1963 5.35359 10.7815C5.40554 10.534 5.48086 10.2924 5.57846 10.0605C5.7335 9.70961 5.93309 9.38222 6.17181 9.08717C6.28605 8.94297 6.41553 8.81395 6.54066 8.68266C6.65744 8.56009 6.80034 8.46409 6.93453 8.36049C7.2225 8.13775 7.54239 7.97647 7.87316 7.83759C7.92829 7.81444 7.97761 7.77839 8.03999 7.77118C8.07626 7.76739 8.08098 7.74386 8.04942 7.71616C8.00373 7.67632 7.96166 7.63306 7.91741 7.59208C7.59099 7.29154 7.35488 6.92004 7.13038 6.53564C6.96826 6.25863 6.70931 6.10533 6.42387 5.99529C6.30927 5.95089 6.20082 5.89093 6.08114 5.85868C5.80223 5.78279 5.52442 5.70424 5.25277 5.60178C5.15037 5.56917 5.05844 5.50789 4.98692 5.42457C4.94905 5.38276 4.92773 5.32749 4.92725 5.26989C4.92678 5.21229 4.9472 5.15665 4.98438 5.11417C5.13308 4.92443 5.33727 4.85651 5.55851 4.82653C5.87453 4.78574 6.19515 4.81154 6.50149 4.90243C6.75497 4.97981 6.9962 5.09578 7.21743 5.2466C7.4588 5.40824 7.66925 5.61556 7.83798 5.85792C7.90508 5.95203 7.99756 6.01919 8.06538 6.1114C8.1818 6.2704 8.31346 6.41497 8.44185 6.56372C8.61729 6.76688 8.82991 6.93114 9.06712 7.04678C9.27929 7.15076 9.47949 7.09687 9.68368 7.00618C9.99377 6.8673 10.2128 6.60812 10.4598 6.38538C10.5503 6.31081 10.6366 6.23073 10.7181 6.14555C10.866 5.97707 11.0343 5.83174 11.1928 5.6754C11.3016 5.56801 11.4358 5.4906 11.5631 5.40636C11.819 5.23164 12.1009 5.10276 12.3973 5.02499C12.591 4.97642 12.7897 4.96618 12.9856 4.93278C13.102 4.9094 13.22 4.89557 13.3384 4.89142C13.5691 4.89142 13.7875 4.9324 13.9372 5.14566C14.0062 5.24394 13.9855 5.42077 13.9061 5.50957C13.7399 5.69437 13.5314 5.79834 13.3094 5.88524C13.0149 5.99908 12.7121 6.09281 12.427 6.23473C12.172 6.35879 11.9359 6.52157 11.7263 6.71779C11.6301 6.81786 11.5416 6.9257 11.4616 7.04033C11.2657 7.29571 11.0782 7.55717 10.808 7.76663ZM6.7735 6.00667C6.78366 6.00971 6.79671 6.02337 6.8036 6.00667C6.80759 5.99794 6.79272 5.99339 6.78366 5.99149C6.54429 5.79986 6.273 5.67691 5.98575 5.58357C5.82327 5.53234 5.65788 5.4868 5.47654 5.43861C5.51209 5.42794 5.5498 5.42794 5.58535 5.43861C5.71809 5.46707 5.85011 5.49819 5.9843 5.52399C6.35284 5.5944 6.69676 5.76639 6.98059 6.02223C7.27473 6.28254 7.4996 6.61002 7.75819 6.90448C7.77088 6.9189 7.77524 6.93332 7.76798 6.94623L7.20147 6.43243L7.18805 6.44875C7.55908 6.99518 7.97362 7.49 8.60252 7.74576L8.47558 7.77612C7.6483 7.96964 6.91966 8.35594 6.34699 9.01849C5.44862 10.0582 5.13961 11.2691 5.49323 12.6261C5.81964 13.8783 6.57765 14.775 7.69798 15.3271C8.45049 15.7014 9.29805 15.8127 10.1156 15.6447C11.4282 15.389 12.431 14.6699 13.0476 13.4165C13.5357 12.4234 13.6152 11.3826 13.2449 10.3318C12.8013 9.07313 11.9135 8.29143 10.717 7.86757C10.5661 7.81444 10.4105 7.77953 10.2389 7.73817C10.351 7.68691 10.455 7.61835 10.5476 7.53478C10.6361 7.45585 10.721 7.37199 10.8015 7.28509C11.1072 6.95685 11.3781 6.59446 11.6937 6.27457C11.8968 6.06852 12.1108 5.88183 12.3639 5.74749C12.4119 5.71877 12.4669 5.70557 12.522 5.70955C12.5014 5.72093 12.4934 5.72549 12.4858 5.72928C12.2595 5.84016 12.0514 5.98783 11.8692 6.1668C11.5508 6.47038 11.2755 6.8119 10.9988 7.15645C10.8493 7.34277 10.6967 7.52605 10.5461 7.71123C10.5356 7.72451 10.5099 7.74159 10.5338 7.76018C10.5512 7.77384 10.5617 7.74804 10.573 7.73665C10.9328 7.36402 11.2927 6.99151 11.6527 6.61913C12.1148 6.13834 12.6537 5.81087 13.3047 5.70272C13.476 5.67799 13.6376 5.60492 13.7722 5.49136C13.8919 5.38776 13.897 5.27127 13.7809 5.16388C13.7008 5.08798 13.5978 5.0766 13.4969 5.07015C13.0684 5.04534 12.6387 5.08845 12.2225 5.19803C11.9175 5.27582 11.6422 5.41394 11.414 5.63935C10.9933 6.05676 10.565 6.46279 10.1573 6.89158C10.027 7.02821 9.87834 7.14416 9.71596 7.23576C9.5571 7.32721 9.38483 7.36326 9.21074 7.31165C8.93655 7.22855 8.68847 7.09839 8.48864 6.86957C8.21046 6.55158 7.95476 6.21424 7.68311 5.89093C7.52281 5.7012 7.36613 5.5035 7.15686 5.37069C6.83443 5.16577 6.49242 5.01171 6.11378 4.95327C5.81867 4.90329 5.51643 4.92762 5.23209 5.02423C5.15206 5.04895 5.084 5.10456 5.04168 5.17981C4.99417 5.26671 5.0036 5.33502 5.07795 5.40142C5.13484 5.4489 5.19964 5.48493 5.26909 5.50767C5.47473 5.58357 5.69161 5.61658 5.90088 5.67995C6.19683 5.77178 6.48082 5.90194 6.7735 6.00667Z" fill="#F8F2EA"/>
<path d="M6.77357 6.00667C6.48088 5.90194 6.1969 5.77178 5.8995 5.68109C5.69023 5.61772 5.47334 5.58622 5.2677 5.50881C5.19826 5.48607 5.13345 5.45004 5.07657 5.40256C5.00403 5.33616 4.99351 5.26785 5.0403 5.18095C5.08261 5.1057 5.15068 5.05009 5.23071 5.02537C5.51504 4.92876 5.81728 4.90443 6.11239 4.95441C6.49104 5.01209 6.83305 5.16615 7.15547 5.37183C7.36474 5.50464 7.52142 5.7012 7.68173 5.89207C7.95338 6.21538 8.20907 6.55272 8.48725 6.87071C8.68709 7.09839 8.93517 7.22969 9.20935 7.31279C9.38344 7.36554 9.55572 7.32949 9.71457 7.2369C9.87668 7.14536 10.0251 7.02954 10.1552 6.8931C10.5629 6.46279 10.9894 6.05524 11.4119 5.64087C11.6397 5.41546 11.9153 5.27734 12.2204 5.19955C12.6364 5.08975 13.066 5.04638 13.4945 5.07091C13.5953 5.07736 13.6983 5.09026 13.7785 5.16464C13.8945 5.27203 13.8894 5.38852 13.7697 5.49212C13.6351 5.60568 13.4735 5.67875 13.3022 5.70348C12.6527 5.81011 12.1137 6.13948 11.6517 6.61837C11.2924 6.99176 10.9325 7.36427 10.572 7.73589C10.5607 7.74728 10.5502 7.77384 10.5328 7.75942C10.5092 7.74083 10.5328 7.72375 10.5451 7.71047C10.6956 7.52529 10.8483 7.34201 10.9978 7.15569C11.2734 6.8119 11.5487 6.4681 11.8682 6.16605C12.0504 5.98708 12.2585 5.83941 12.4848 5.72852C12.4927 5.72473 12.5007 5.72017 12.521 5.70879C12.4659 5.70481 12.4109 5.71802 12.3629 5.74674C12.109 5.88107 11.8958 6.06776 11.6927 6.27381C11.3771 6.5937 11.1062 6.95685 10.8005 7.28433C10.7192 7.37123 10.6343 7.45509 10.5466 7.53402C10.454 7.61759 10.35 7.68615 10.2379 7.73741C10.4095 7.77877 10.5643 7.81331 10.7159 7.86681C11.9128 8.29067 12.8003 9.07237 13.2439 10.3311C13.6142 11.3818 13.534 12.4227 13.0466 13.4157C12.43 14.668 11.4272 15.389 10.1146 15.644C9.29703 15.812 8.44946 15.7006 7.69696 15.3263C6.57482 14.7754 5.81644 13.8806 5.49039 12.6283C5.13677 11.2714 5.44578 10.0605 6.34415 9.02076C6.91683 8.35822 7.64546 7.97192 8.47274 7.77839L8.59968 7.74804C7.9726 7.49228 7.55805 6.99745 7.18521 6.45102L7.19863 6.43471L7.76515 6.9485C7.7724 6.9356 7.76805 6.92118 7.75535 6.90676C7.49676 6.6123 7.2719 6.28482 6.97776 6.02451C6.69494 5.76847 6.35207 5.59584 5.98437 5.52437C5.8509 5.49857 5.71888 5.46745 5.58541 5.43899C5.54986 5.42832 5.51216 5.42832 5.47661 5.43899C5.65795 5.48718 5.82333 5.5312 5.98727 5.58471C6.27306 5.67805 6.54435 5.801 6.78517 5.99263L6.77357 6.00667ZM7.09672 13.9754L7.11086 13.991L7.1261 14.0054L7.14024 14.021L7.15475 14.0365L7.16962 14.0513L7.18449 14.0665L7.199 14.0813L7.21314 14.0973L7.22765 14.1124L7.24324 14.1269C7.24868 14.1344 7.25449 14.1435 7.26392 14.1333C7.26392 14.1314 7.25884 14.1219 7.2563 14.1158L7.24143 14.1007L7.22801 14.0855L7.21314 14.0703L7.199 14.0551L7.18376 14.0396L7.16926 14.0244L7.15547 14.0096L7.14133 13.9944L7.12247 13.9762L7.11231 13.9644L7.09926 13.9496L7.08656 13.9352L7.05936 13.9079L7.04594 13.8916L7.03252 13.8753C7.02926 13.8662 7.02418 13.8608 7.01439 13.8639C7.00824 13.8401 6.99439 13.8193 6.97522 13.8051C6.96942 13.7982 6.96253 13.791 6.95563 13.8028C6.94874 13.8146 6.95854 13.8183 6.96579 13.8233C6.97304 13.846 6.99227 13.8563 7.01004 13.8677L7.02092 13.8923C7.02262 13.8965 7.02571 13.8999 7.02962 13.9018L7.0434 13.9174L7.06843 13.9443L7.08221 13.9603L7.09672 13.9754ZM11.26 6.481C11.258 6.4809 11.2561 6.48121 11.2542 6.48193C11.2524 6.48266 11.2508 6.48376 11.2494 6.48519C11.248 6.48661 11.2469 6.48833 11.2461 6.49022C11.2454 6.49211 11.245 6.49414 11.2451 6.49618C11.2411 6.50073 11.2328 6.50908 11.2335 6.51022C11.2437 6.52426 11.2476 6.51022 11.2531 6.50453L11.2687 6.48935C11.2687 6.4829 11.2734 6.47152 11.2716 6.47076C11.2621 6.4662 11.2618 6.47531 11.26 6.481ZM11.2183 6.54399C11.2248 6.53944 11.2389 6.5364 11.2281 6.5254C11.2172 6.51439 11.2139 6.53033 11.2074 6.53527L11.1954 6.54817C11.0853 6.67081 10.9826 6.80045 10.8879 6.93636C10.8777 6.94699 10.8552 6.95913 10.8704 6.97431C10.8857 6.98949 10.8958 6.96748 10.9006 6.95154C11.0075 6.82632 11.1073 6.69502 11.2041 6.56145L11.2183 6.54399ZM7.29728 14.1807C7.30454 14.1849 7.31252 14.1929 7.31796 14.1807C7.31796 14.1788 7.3107 14.172 7.30671 14.1675L7.29257 14.1519C7.28749 14.1447 7.2806 14.1344 7.27335 14.1416C7.26609 14.1489 7.27661 14.1599 7.28241 14.1678L7.29728 14.1807ZM7.51489 14.3412C7.50728 14.3356 7.4993 14.3272 7.49277 14.3412C7.49277 14.3435 7.50002 14.3507 7.50438 14.3557L7.52722 14.3765C7.53992 14.3849 7.55406 14.4107 7.56603 14.3948C7.578 14.3788 7.5537 14.3705 7.54028 14.3633L7.51489 14.3412ZM11.9658 14.5021L11.9922 14.4782L12.0071 14.4631L12.1108 14.3716C12.121 14.3625 12.1402 14.3549 12.1279 14.3382C12.1155 14.3215 12.1032 14.3382 12.0916 14.3477L11.9886 14.4517C11.9872 14.4522 11.9859 14.4531 11.9849 14.4542C11.9838 14.4553 11.983 14.4566 11.9824 14.4581L11.9541 14.4854L11.9389 14.4999L11.8881 14.5424C11.8834 14.5484 11.8733 14.5549 11.8838 14.5632C11.8943 14.5716 11.8983 14.561 11.903 14.5537L11.9534 14.512C11.9561 14.5114 11.9586 14.5101 11.9607 14.5084C11.9629 14.5068 11.9648 14.5046 11.9661 14.5021H11.9658ZM11.7413 14.6718L11.7238 14.6805C11.7267 14.6835 11.7311 14.6888 11.7325 14.6885C11.7398 14.685 11.7529 14.6828 11.7398 14.6702C11.7565 14.6816 11.7637 14.6702 11.7706 14.6573C11.778 14.657 11.7851 14.6548 11.7914 14.6509C11.7978 14.647 11.8031 14.6415 11.8069 14.635L11.8316 14.6129C11.8508 14.6027 11.8718 14.5936 11.8802 14.5632C11.8574 14.5682 11.8371 14.5817 11.8232 14.6012L11.7996 14.6236L11.7652 14.6467L11.7413 14.6718ZM10.8135 7.06462C10.842 7.04123 10.863 7.00934 10.8737 6.97317C10.8313 6.99138 10.8197 7.02667 10.7986 7.0521C10.7903 7.06424 10.766 7.07752 10.7827 7.09004C10.7994 7.10257 10.8055 7.07752 10.8135 7.06462ZM13.151 12.5669C13.1938 12.5027 13.1873 12.4257 13.2054 12.3547C13.1503 12.4166 13.1485 12.4917 13.1506 12.5684L13.151 12.5669ZM5.96333 10.9109C5.96333 10.8904 5.98001 10.871 5.96732 10.8445C5.94338 10.8638 5.9481 10.89 5.94229 10.912C5.92509 10.9767 5.91595 11.0434 5.91509 11.1105C5.91509 11.1128 5.91727 11.115 5.91836 11.1169H5.91618C5.93866 11.0501 5.95446 10.9811 5.96333 10.9109ZM7.64365 14.438C7.6346 14.4261 7.62336 14.4162 7.61059 14.4089C7.59782 14.4016 7.58378 14.397 7.5693 14.3955C7.58262 14.4208 7.60352 14.4408 7.62878 14.4524C7.70529 14.5123 7.78673 14.565 7.87214 14.6099C9.01604 15.2372 10.1425 15.2478 11.2426 14.4961C11.5786 14.2625 11.8666 13.9608 12.0894 13.6089C12.3183 13.2552 12.5718 12.617 12.5471 12.4508C12.5319 12.4986 12.5196 12.5414 12.5047 12.5836C12.142 13.6081 11.4758 14.3268 10.5056 14.7283C10.0033 14.9376 9.458 15.0082 8.92211 14.9332C8.56184 14.8817 8.21263 14.7662 7.88955 14.5917L7.64365 14.438ZM11.4881 6.03399C11.7082 5.86064 11.9452 5.71196 12.195 5.5904C11.8838 5.62455 11.6636 5.79493 11.4779 6.0264L11.4558 6.05031C11.475 6.0598 11.4801 6.04234 11.4896 6.03399H11.4881ZM6.38658 13.851L6.39239 13.8775C6.39565 13.8749 6.40218 13.8718 6.40182 13.87C6.40182 13.8605 6.40581 13.8423 6.38549 13.8529C6.39529 13.8385 6.38296 13.8305 6.37643 13.821C6.21128 13.5804 6.06984 13.323 5.95426 13.0526C5.90167 12.9327 5.85815 12.8082 5.80411 12.6697C5.80609 12.7365 5.81834 12.8024 5.84038 12.8651C5.93814 13.1596 6.07369 13.4388 6.24332 13.695C6.28016 13.757 6.32956 13.8097 6.38803 13.8495L6.38658 13.851ZM6.19908 12.0295C6.19908 11.9969 6.19908 11.9643 6.19908 11.9316C6.183 11.5588 6.22203 11.1855 6.31477 10.8251C6.69813 9.36152 7.94395 8.36922 9.38018 8.38478C9.41173 8.38478 9.45018 8.37833 9.4665 8.4102C9.48282 8.44208 9.45743 8.47737 9.44437 8.50962C9.44068 8.51884 9.43433 8.52662 9.42619 8.53186C9.41806 8.5371 9.40857 8.53954 9.39904 8.53884C9.34826 8.54188 9.29785 8.54985 9.24744 8.5563C8.44953 8.66027 7.75354 8.98699 7.19791 9.60704C6.5944 10.281 6.33544 11.0907 6.39347 12.0026C6.43881 12.7156 6.72714 13.3307 7.20045 13.8438C7.63258 14.3163 8.1948 14.636 8.80882 14.7585C9.42283 14.8809 10.0581 14.7999 10.626 14.5268C11.5429 14.0885 12.1493 13.3539 12.4394 12.3441C12.587 11.8315 12.6291 11.3036 12.512 10.7807C12.3705 10.1542 12.0405 9.63322 11.5878 9.20405C10.8719 8.52594 10.0261 8.22123 9.06319 8.3123C8.09192 8.40413 7.30925 8.86936 6.71916 9.67838C6.39565 10.1227 6.22918 10.6343 6.17006 11.1864C6.1377 11.4665 6.14848 11.7503 6.20198 12.0269L6.19908 12.0295ZM11.5947 8.95588C12.0715 9.378 12.4323 9.92516 12.6403 10.5413C12.6403 10.4863 12.6335 10.4339 12.6277 10.3811C12.6092 10.2199 12.5914 10.0571 12.5076 9.91554C12.29 9.53987 12.0227 9.20898 11.6607 8.97295C11.6422 8.95967 11.627 8.94108 11.5962 8.95284L11.5947 8.95588ZM12.8612 12.4007C12.9767 11.9541 12.9939 11.486 12.9116 11.0316C12.9022 11.4899 12.8986 11.9453 12.8612 12.4007ZM5.96805 10.8395C6.08701 10.4058 6.30135 10.0157 6.47363 9.60742C6.21215 9.96918 6.03864 10.392 5.96805 10.8395ZM6.1211 12.5737C6.11022 12.8074 6.25275 12.9797 6.33871 13.1744C6.26363 12.9756 6.18819 12.7763 6.1211 12.5737ZM12.7691 13.4119C12.8587 13.2419 12.9679 13.0791 12.9867 12.8773C12.9236 13.059 12.8438 13.2355 12.7691 13.4119ZM5.84727 10.3083L5.91038 10.1417C5.87025 10.1871 5.84774 10.2465 5.84727 10.3083ZM6.02861 5.08798C6.01601 5.08017 6.00173 5.0758 5.98709 5.07527C5.97245 5.07474 5.95792 5.07807 5.94483 5.08495C5.97144 5.09551 6.00064 5.09658 6.02789 5.08798H6.02861ZM6.95781 13.802C6.95481 13.7826 6.9471 13.7642 6.93542 13.7488C6.92374 13.7333 6.90848 13.7212 6.89108 13.7136C6.89568 13.7323 6.90392 13.7498 6.91527 13.765C6.92663 13.7802 6.94086 13.7928 6.95709 13.802H6.95781ZM5.82587 10.3515C5.82551 10.3497 5.82551 10.3477 5.82587 10.3459H5.82986C5.83003 10.3476 5.83003 10.3494 5.82986 10.3512C5.82986 10.3512 5.82732 10.3515 5.82587 10.3515ZM6.89942 13.7064C6.89465 13.7025 6.8894 13.6993 6.88382 13.6969C6.88092 13.6969 6.87657 13.7007 6.87294 13.703C6.87563 13.7081 6.8792 13.7126 6.88346 13.7163C6.89108 13.7231 6.89507 13.7155 6.89942 13.7072V13.7064Z" fill="#181818"/>
<path d="M6.78218 5.99225C6.7913 5.99225 6.80625 5.99873 6.80224 6.00751C6.79531 6.02353 6.78218 6.0098 6.77197 6.00751L6.78218 5.99225Z" fill="#181818"/>
<path d="M6.20196 12.0269C6.14846 11.7495 6.13793 11.465 6.17077 11.1841C6.22988 10.632 6.39636 10.1216 6.71987 9.6761C7.30996 8.86518 8.09263 8.39996 9.0639 8.31002C10.0268 8.21895 10.8726 8.52366 11.5885 9.20177C12.0412 9.63056 12.3698 10.1501 12.5127 10.7766C12.6305 11.2995 12.5885 11.8273 12.4401 12.3399C12.15 13.3497 11.5447 14.0855 10.6267 14.5226C10.0588 14.7957 9.42354 14.8767 8.80952 14.7543C8.19551 14.6319 7.63328 14.3121 7.20115 13.8396C6.72785 13.3266 6.43952 12.7114 6.39418 11.9984C6.33615 11.0877 6.59511 10.2768 7.19861 9.60286C7.75461 8.98547 8.4506 8.65761 9.2485 8.55364C9.29892 8.54719 9.34933 8.53922 9.40011 8.53619C9.40963 8.53688 9.41913 8.53444 9.42726 8.5292C9.43539 8.52396 9.44175 8.51618 9.44544 8.50697C9.4585 8.47471 9.48461 8.44094 9.46757 8.40755C9.45052 8.37415 9.4128 8.3825 9.38125 8.38212C7.94502 8.36657 6.69738 9.35887 6.31584 10.8225C6.22371 11.183 6.18529 11.5562 6.20196 11.929C6.20196 11.9616 6.20196 11.9943 6.20196 12.0269ZM9.33265 14.6585C9.77654 14.664 10.2155 14.5607 10.6144 14.3568C11.1527 14.0856 11.6076 13.6619 11.9273 13.1338C12.3161 12.4963 12.4771 11.8 12.3861 11.0448C12.3282 10.5146 12.1159 10.0158 11.7779 9.61614C11.2534 8.99382 10.581 8.69177 9.80015 8.64699C9.26911 8.61638 8.74047 8.74178 8.27397 9.009C7.69774 9.32762 7.23166 9.82748 6.94147 10.4381C6.68872 10.9537 6.59171 11.5376 6.66329 12.1123C6.74888 12.8333 7.0452 13.4446 7.56202 13.9337C8.07885 14.4228 8.68925 14.6463 9.3312 14.6585H9.33265Z" fill="#F8F2EA"/>
<path d="M7.88949 14.5921C8.21257 14.7666 8.56178 14.8821 8.92205 14.9336C9.45794 15.0085 10.0032 14.938 10.5055 14.7287C11.4757 14.3272 12.1409 13.6077 12.5046 12.5839C12.5195 12.5418 12.5318 12.4989 12.5471 12.4511C12.5717 12.6173 12.3182 13.2556 12.0894 13.6093C11.8667 13.9611 11.579 14.2628 11.2432 14.4965C10.1432 15.2478 9.01671 15.2372 7.8728 14.6103L7.88949 14.5921Z" fill="#F8F2EA"/>
<path d="M11.5962 8.95284C11.627 8.94108 11.643 8.95967 11.6607 8.97144C12.0234 9.20746 12.2886 9.53836 12.5076 9.91403C12.5903 10.0556 12.6092 10.2176 12.6277 10.3796C12.6335 10.4324 12.6393 10.4847 12.6404 10.5398C12.433 9.92327 12.0726 9.37558 11.5962 8.95284Z" fill="#F8F2EA"/>
<path d="M12.8611 12.4007C12.8974 11.9453 12.9021 11.4877 12.9097 11.0304C12.9927 11.4851 12.9761 11.9536 12.8611 12.4007Z" fill="#F8F2EA"/>
<path d="M5.96802 10.8395C6.03861 10.392 6.21212 9.96919 6.4736 9.60742C6.30132 10.0157 6.08698 10.4058 5.96802 10.8395Z" fill="#F8F2EA"/>
<path d="M6.38799 13.8495C6.32923 13.8093 6.27969 13.756 6.24291 13.6935C6.07303 13.4373 5.93723 13.1581 5.83925 12.8636C5.81721 12.8009 5.80496 12.7349 5.80298 12.6682C5.85702 12.8067 5.90054 12.9312 5.95313 13.0511C6.06871 13.3215 6.21015 13.5789 6.37529 13.8195C6.38182 13.829 6.39415 13.8369 6.38436 13.8514L6.38799 13.8495Z" fill="#F8F2EA"/>
<path d="M11.4792 6.02564C11.6649 5.79417 11.8851 5.62379 12.1963 5.58964C11.9465 5.7112 11.7095 5.85988 11.4894 6.03323C11.4862 6.03049 11.4828 6.02796 11.4792 6.02564Z" fill="#F8F2EA"/>
<path d="M6.12095 12.5737C6.18805 12.7763 6.26348 12.9756 6.33856 13.1744C6.2526 12.9797 6.11007 12.8075 6.12095 12.5737Z" fill="#F8F2EA"/>
<path d="M12.769 13.4119C12.8438 13.234 12.9235 13.059 12.9867 12.8773C12.9678 13.0791 12.8586 13.2419 12.769 13.4119Z" fill="#F8F2EA"/>
<path d="M11.204 6.56031C11.1071 6.69388 11.0074 6.82594 10.9004 6.9504L10.8877 6.93636C10.9825 6.80071 11.0852 6.67132 11.1953 6.54893C11.1977 6.55304 11.2007 6.55686 11.204 6.56031Z" fill="#F8F2EA"/>
<path d="M7.88943 14.5921L7.87202 14.6099C7.78661 14.565 7.70517 14.5123 7.62866 14.4524L7.64353 14.438L7.88943 14.5921Z" fill="#9B9B9B"/>
<path d="M5.9633 10.9109C5.95451 10.9815 5.93871 11.0509 5.91615 11.1181H5.91833C5.91833 11.1162 5.9147 11.1139 5.91506 11.1116C5.91592 11.0445 5.92506 10.9778 5.94227 10.9132L5.9633 10.9109Z" fill="#9B9B9B"/>
<path d="M13.1507 12.5699C13.1485 12.494 13.1507 12.4181 13.2054 12.3563C13.1888 12.4272 13.1938 12.5043 13.151 12.5684L13.1507 12.5699Z" fill="#9B9B9B"/>
<path d="M11.9902 14.4517L12.0932 14.3477C12.1034 14.3378 12.1154 14.3208 12.1295 14.3382C12.1436 14.3557 12.1226 14.3625 12.1125 14.3716L12.0087 14.4631L11.9902 14.4517Z" fill="#9B9B9B"/>
<path d="M5.84717 10.3083C5.84764 10.2465 5.87014 10.1871 5.91028 10.1417L5.84717 10.3083Z" fill="#9B9B9B"/>
<path d="M6.02787 5.08798C6.0004 5.09675 5.97092 5.09568 5.94409 5.08495C5.95718 5.07807 5.97171 5.07474 5.98635 5.07527C6.00099 5.0758 6.01527 5.08017 6.02787 5.08798Z" fill="#9B9B9B"/>
<path d="M10.7986 7.0521C10.8196 7.02667 10.8312 6.99138 10.8737 6.97317C10.8629 7.00933 10.8419 7.04123 10.8135 7.06462L10.7986 7.0521Z" fill="#9B9B9B"/>
<path d="M6.95712 13.802C6.9409 13.7928 6.92667 13.7802 6.91531 13.765C6.90395 13.7498 6.89572 13.7323 6.89111 13.7136C6.90838 13.7213 6.92349 13.7334 6.93504 13.7489C6.94659 13.7644 6.95419 13.7826 6.95712 13.802Z" fill="#9B9B9B"/>
<path d="M7.62882 14.4524C7.60356 14.4408 7.58266 14.4208 7.56934 14.3955C7.58382 14.397 7.59786 14.4016 7.61063 14.4089C7.6234 14.4162 7.63464 14.4261 7.64369 14.438L7.62882 14.4524Z" fill="#9B9B9B"/>
<path d="M7.01007 13.8677C6.9923 13.8563 6.9738 13.846 6.96582 13.8233L6.97525 13.8051C6.99443 13.8193 7.00827 13.8401 7.01442 13.8639L7.01007 13.8677Z" fill="#9B9B9B"/>
<path d="M11.8235 14.6016C11.8374 14.5821 11.8577 14.5686 11.8804 14.5636C11.8721 14.594 11.8511 14.6016 11.8318 14.6133L11.8235 14.6016Z" fill="#9B9B9B"/>
<path d="M11.8899 14.5424L11.9407 14.4999L11.9552 14.512L11.9048 14.5537L11.8899 14.5424Z" fill="#9B9B9B"/>
<path d="M10.8136 7.06468C10.8056 7.07765 10.7983 7.10283 10.7826 7.09139C10.767 7.07994 10.7903 7.0643 10.7987 7.05324L10.8136 7.06468Z" fill="#9B9B9B"/>
<path d="M11.7639 14.648L11.7986 14.6247L11.8058 14.635C11.802 14.6416 11.7967 14.6471 11.7903 14.651C11.784 14.655 11.7768 14.6572 11.7694 14.6575C11.7687 14.6541 11.7661 14.651 11.7639 14.648Z" fill="#9B9B9B"/>
<path d="M10.9006 6.95048C10.8959 6.9665 10.8868 6.98863 10.8704 6.97337C10.854 6.95811 10.8777 6.94705 10.8879 6.93522L10.9006 6.95048Z" fill="#9B9B9B"/>
<path d="M6.38696 13.8514C6.40738 13.8407 6.40228 13.859 6.40337 13.8685C6.40337 13.8704 6.39717 13.8735 6.39389 13.8762L6.38806 13.8495L6.38696 13.8514Z" fill="#F8F2EA"/>
<path d="M5.96317 10.9109H5.94214C5.94794 10.8889 5.94214 10.8627 5.96716 10.8433C5.97986 10.871 5.96317 10.8904 5.96317 10.9109Z" fill="#F8F2EA"/>
<path d="M7.54071 14.3629C7.55421 14.3701 7.58046 14.3751 7.5666 14.3945C7.55275 14.414 7.54035 14.3846 7.52759 14.3762L7.54071 14.3629Z" fill="#9B9B9B"/>
<path d="M11.7402 14.6702C11.7533 14.6828 11.7402 14.6851 11.7329 14.6886C11.7329 14.6886 11.727 14.6836 11.7241 14.6805L11.7416 14.6718L11.7402 14.6702Z" fill="#9B9B9B"/>
<path d="M11.4897 6.03404C11.4802 6.04243 11.4751 6.05998 11.4573 6.05044L11.4795 6.02641C11.4831 6.02873 11.4865 6.03128 11.4897 6.03404Z" fill="#F8F2EA"/>
<path d="M5.82593 10.3519H5.83018C5.83036 10.35 5.83036 10.3481 5.83018 10.3462H5.82593C5.8256 10.3481 5.8256 10.35 5.82593 10.3519Z" fill="#9B9B9B"/>
<path d="M6.89942 13.7072C6.89504 13.7156 6.8914 13.7232 6.88338 13.7171C6.87909 13.7134 6.8755 13.7089 6.8728 13.7038C6.87645 13.7015 6.88082 13.6969 6.88374 13.6977C6.88935 13.7001 6.89463 13.7033 6.89942 13.7072Z" fill="#9B9B9B"/>
<path d="M11.9926 14.4783L11.966 14.5024L11.9558 14.4856L11.9843 14.4581L11.9926 14.4783Z" fill="#9B9B9B"/>
<path d="M7.05926 13.9079L7.0866 13.9354L7.06837 13.9445L7.04321 13.9174L7.05926 13.9079Z" fill="#9B9B9B"/>
<path d="M7.51521 14.3412L7.54074 14.363L7.52761 14.3763L7.50464 14.3554L7.51521 14.3412Z" fill="#9B9B9B"/>
<path d="M11.7986 14.6248L11.8237 14.6016L11.8321 14.6122L11.8073 14.6344L11.7986 14.6248Z" fill="#9B9B9B"/>
<path d="M11.7414 14.6719L11.7641 14.6479C11.7662 14.6509 11.7688 14.654 11.771 14.6574C11.7641 14.6707 11.7568 14.6818 11.74 14.6704L11.7414 14.6719Z" fill="#9B9B9B"/>
<path d="M7.12615 14.0056L7.11084 13.9911L7.12251 13.9762L7.14147 13.9945L7.12615 14.0056Z" fill="#9B9B9B"/>
<path d="M7.1402 14.0211L7.12598 14.0055L7.14129 13.9944L7.15551 14.0097L7.1402 14.0211Z" fill="#9B9B9B"/>
<path d="M7.15545 14.0096L7.16931 14.0245L7.15472 14.0367L7.14014 14.021L7.15545 14.0096Z" fill="#9B9B9B"/>
<path d="M7.16973 14.0515L7.15479 14.0366L7.16937 14.0244L7.18396 14.0397L7.16973 14.0515Z" fill="#9B9B9B"/>
<path d="M7.18438 14.0667L7.16943 14.0514L7.18365 14.0396L7.19897 14.0552L7.18438 14.0667Z" fill="#9B9B9B"/>
<path d="M7.19891 14.0551L7.21313 14.0704L7.19891 14.0815L7.18433 14.0666L7.19891 14.0551Z" fill="#9B9B9B"/>
<path d="M7.2132 14.0974L7.19897 14.0814L7.2132 14.0703C7.2183 14.0753 7.2234 14.0802 7.22814 14.0856L7.2132 14.0974Z" fill="#9B9B9B"/>
<path d="M7.22808 14.0855L7.24158 14.1007L7.22772 14.1126L7.21313 14.0973L7.22808 14.0855Z" fill="#9B9B9B"/>
<path d="M7.2414 14.1007L7.25634 14.1159L7.24322 14.127L7.22754 14.1125L7.2414 14.1007Z" fill="#9B9B9B"/>
<path d="M7.25629 14.1158C7.25884 14.1219 7.26541 14.1315 7.26395 14.1334C7.25447 14.1437 7.24863 14.1334 7.24316 14.1269L7.25629 14.1158Z" fill="#9B9B9B"/>
<path d="M7.28232 14.1676C7.27648 14.1592 7.26081 14.1527 7.2732 14.1409C7.2856 14.1291 7.28742 14.144 7.29253 14.1512L7.28232 14.1676Z" fill="#9B9B9B"/>
<path d="M7.29244 14.1511L7.30666 14.1668L7.29718 14.1809L7.28223 14.1675C7.28551 14.1618 7.28988 14.1565 7.29244 14.1511Z" fill="#9B9B9B"/>
<path d="M7.02095 13.8925L7.01001 13.8677L7.01439 13.8639C7.02423 13.8608 7.02933 13.8662 7.03262 13.8753L7.02095 13.8925Z" fill="#9B9B9B"/>
<path d="M6.96588 13.8234C6.95859 13.8185 6.94947 13.8135 6.95567 13.8028C6.96187 13.7921 6.96952 13.7982 6.97536 13.8051C6.97244 13.8112 6.96916 13.8173 6.96588 13.8234Z" fill="#9B9B9B"/>
<path d="M7.50469 14.3554C7.50031 14.3504 7.49192 14.3432 7.49302 14.3409C7.49958 14.3272 7.5076 14.3356 7.51526 14.3409L7.50469 14.3554Z" fill="#9B9B9B"/>
<path d="M7.0434 13.9187L7.02954 13.903L7.04595 13.8927L7.05944 13.9091L7.0434 13.9187Z" fill="#9B9B9B"/>
<path d="M13.1518 12.5684V12.5731L13.1506 12.5701L13.1518 12.5684Z" fill="#9B9B9B"/>
<path d="M11.207 6.53609C11.2136 6.53113 11.2183 6.51664 11.2278 6.52617C11.2373 6.53571 11.2245 6.54029 11.218 6.54487C11.2147 6.54141 11.2111 6.53846 11.207 6.53609Z" fill="#F8F2EA"/>
<path d="M11.2183 6.5448L11.2041 6.56044C11.2008 6.55697 11.1978 6.55313 11.1953 6.549L11.2073 6.53603C11.2114 6.53839 11.2151 6.54135 11.2183 6.5448Z" fill="#F8F2EA"/>
<path d="M12.0075 14.4631L11.9925 14.4784L11.9841 14.4582C11.9847 14.4567 11.9855 14.4553 11.9866 14.4542C11.9876 14.4531 11.9889 14.4522 11.9903 14.4517L12.0075 14.4631Z" fill="#9B9B9B"/>
<path d="M7.0295 13.902C7.02557 13.9 7.02246 13.8966 7.02075 13.8924L7.03242 13.8753L7.04591 13.8917L7.0295 13.902Z" fill="#9B9B9B"/>
<path d="M11.9407 14.4999L11.956 14.4854L11.9662 14.5022C11.9639 14.5068 11.96 14.5104 11.9553 14.5121L11.9407 14.4999Z" fill="#9B9B9B"/>
<path d="M11.2531 6.50533C11.2476 6.51182 11.2436 6.52517 11.2334 6.51106C11.2334 6.51106 11.2411 6.50152 11.2451 6.49694L11.2531 6.50533Z" fill="#F8F2EA"/>
<path d="M11.9049 14.5538C11.9002 14.5611 11.8954 14.571 11.8856 14.5633C11.8757 14.5557 11.8856 14.5485 11.89 14.5424L11.9049 14.5538Z" fill="#9B9B9B"/>
<path d="M11.2451 6.49702C11.2451 6.49497 11.2454 6.49293 11.2462 6.49103C11.2469 6.48913 11.248 6.4874 11.2494 6.48597C11.2508 6.48454 11.2525 6.48342 11.2543 6.4827C11.2562 6.48198 11.2581 6.48166 11.2601 6.48176L11.2688 6.49016L11.2531 6.50542L11.2451 6.49702Z" fill="#F8F2EA"/>
<path d="M7.08659 13.9352L7.09935 13.9497L7.08222 13.9604L7.06836 13.9444L7.08659 13.9352Z" fill="#9B9B9B"/>
<path d="M11.26 6.48107C11.2618 6.47458 11.2622 6.46543 11.2717 6.47077C11.2735 6.47077 11.2717 6.48298 11.2688 6.48946L11.26 6.48107Z" fill="#F8F2EA"/>
<path d="M7.09917 13.9496L7.1123 13.9645L7.09662 13.9756L7.08203 13.9603L7.09917 13.9496Z" fill="#9B9B9B"/>
<path d="M7.1109 13.9911L7.09668 13.9755L7.11236 13.9644C7.11601 13.9683 7.11929 13.9725 7.12257 13.9763L7.1109 13.9911Z" fill="#9B9B9B"/>
<path d="M7.3066 14.1667C7.31061 14.1713 7.319 14.1781 7.3179 14.18C7.31243 14.193 7.30441 14.185 7.29712 14.18L7.3066 14.1667Z" fill="#9B9B9B"/>
</svg>
