<svg width="32" height="32" viewBox="0 0 32 32" fill="none" xmlns="http://www.w3.org/2000/svg">
    <path d="M0 16.0119C0.0585224 11.9459 1.41181 8.36584 4.15013 5.33747C6.38192 2.86977 9.14405 1.28471 12.3568 0.478409C13.3477 0.229779 14.3549 0.0853814 15.3749 0.0272904C17.484 -0.093207 19.5366 0.182974 21.527 0.902639C23.564 1.63923 25.364 2.76155 26.9352 4.25532C28.2723 5.52635 29.3148 7.01083 30.1619 8.64866C31.0341 10.3356 31.6008 12.1116 31.855 13.9927C31.9691 14.8362 32.0204 15.6833 31.9926 16.5331C31.864 20.4896 30.4942 23.9525 27.8229 26.8673C25.5598 29.3367 22.7748 30.9234 19.5055 31.6398C18.5678 31.8452 17.6189 31.974 16.6581 31.9953C12.3628 32.0905 8.57535 30.7442 5.34571 27.8987C2.78097 25.6388 1.15359 22.801 0.392464 19.4636C0.15639 18.4292 0.0297572 17.3796 0.0152092 16.3173C0.0138867 16.2211 0.00595143 16.1251 0.000330635 16.0123L0 16.0119Z" fill="#181818"/>
    <path d="M16.82 30.4082C14.6001 30.4487 12.5297 30.0823 10.5442 29.2667C9.11984 28.6818 7.78904 27.9326 6.63082 26.9042C4.7267 25.2139 3.33439 23.1691 2.45722 20.7728C2.07401 19.7265 1.81744 18.6486 1.68088 17.5432C1.54599 16.4538 1.50532 15.3597 1.65377 14.2705C1.85348 12.806 2.28132 11.4048 2.92077 10.0717C4.18181 7.44269 6.04229 5.34212 8.49494 3.78329C10.119 2.75126 11.8866 2.06413 13.7811 1.71591C14.7139 1.5443 15.6545 1.46363 16.6021 1.4726C18.0701 1.48654 19.512 1.69035 20.906 2.15575C21.8767 2.47973 22.7807 2.95707 23.6364 3.52006C26.4134 5.34743 28.383 7.83639 29.6212 10.9172C30.1585 12.254 30.4931 13.6425 30.627 15.0792C30.6918 15.7729 30.7282 16.4684 30.67 17.1631C30.6009 17.9884 30.4356 18.798 30.2117 19.595C29.5471 21.9581 28.3734 24.0345 26.7007 25.8234C24.952 27.6936 22.8617 29.0386 20.4388 29.8509C19.7111 30.0949 18.9519 30.2157 18.1902 30.308C17.7094 30.3661 17.2267 30.392 16.82 30.4086V30.4082Z" fill="#F8F2EA"/>
    <path d="M16.8628 28.6425C14.8825 28.678 13.0356 28.3567 11.2644 27.6416C9.99377 27.1289 8.8066 26.472 7.7734 25.5704C6.07479 24.0885 4.83277 22.2958 4.05027 20.1949C3.70843 19.2776 3.47955 18.3327 3.35773 17.3636C3.23739 16.4084 3.20111 15.4492 3.33355 14.4944C3.51169 13.2104 3.89336 11.982 4.46379 10.8132C5.58872 8.50832 7.24839 6.66673 9.43632 5.30008C10.8851 4.39529 12.4619 3.79287 14.1519 3.48759C14.984 3.33713 15.8231 3.26641 16.6684 3.27427C17.978 3.28649 19.2643 3.46518 20.5078 3.8732C21.3738 4.15724 22.1801 4.57573 22.9435 5.0693C25.4207 6.67138 27.1777 8.85348 28.2823 11.5545C28.7616 12.7264 29.0601 13.9438 29.1796 15.2033C29.2374 15.8115 29.2698 16.4212 29.2179 17.0304C29.1563 17.7538 29.0088 18.4636 28.8091 19.1624C28.2163 21.2342 27.1692 23.0545 25.677 24.6229C24.1171 26.2625 22.2524 27.4417 20.091 28.1538C19.4418 28.3677 18.7646 28.4737 18.0851 28.5546C17.6562 28.6055 17.2256 28.6282 16.8628 28.6428V28.6425Z" fill="#181818"/>
    <path d="M4.4449 6.34168C4.78248 5.83115 5.16436 5.35447 5.57237 4.90036C5.79885 4.64841 6.06832 4.43928 6.34572 4.21057C5.74529 4.96974 5.09328 5.65588 4.473 6.3699C4.44854 6.37554 4.43564 6.3699 4.4449 6.34168Z" fill="#F8F2EA"/>
    <path d="M25.625 4.70942C26.3561 5.30726 27.0197 5.97249 27.6089 6.71174C27.6138 6.73597 27.6069 6.74825 27.5801 6.73929C26.9502 6.04087 26.2724 5.39025 25.594 4.74029C25.5893 4.71507 25.5979 4.70278 25.6247 4.70942H25.625Z" fill="#F8F2EA"/>
    <path d="M31.6356 15.0173C31.7153 15.638 31.7569 16.2604 31.6964 16.8851C31.674 17.1195 31.6382 17.3525 31.6085 17.5862C31.5394 17.5537 31.5853 17.5002 31.5847 17.4551C31.6214 16.8748 31.6551 16.2946 31.6353 15.7127C31.6277 15.49 31.6177 15.2672 31.6085 15.0445C31.5996 15.0176 31.6111 15.0109 31.6356 15.0169V15.0173Z" fill="#F8F2EA"/>
    <path d="M17.9105 30.8829C17.571 30.927 17.2318 30.9725 16.8919 31.015C16.5725 31.0551 16.2521 31.0887 15.933 31.1331C15.8487 31.1451 15.7684 31.1318 15.6864 31.1298C15.6622 31.1292 15.6169 31.1507 15.6225 31.096C15.6262 31.0611 15.6546 31.0475 15.6887 31.0452C15.8103 31.0372 15.9317 31.0246 16.0537 31.0203C16.6022 31.001 17.1468 30.938 17.6907 30.8679C17.7631 30.8586 17.8362 30.847 17.9105 30.8825V30.8829Z" fill="#F8F2EA"/>
    <path d="M24.8853 28.0957C25.4582 27.5918 26.0448 27.1025 26.5758 26.5508C26.4475 26.8024 25.246 27.9065 24.8853 28.0957Z" fill="#F8F2EA"/>
    <path d="M27.4487 5.30566C27.6994 5.49056 28.6618 6.62516 28.7961 6.88308C28.312 6.38782 27.9315 5.80292 27.4487 5.30566Z" fill="#F8F2EA"/>
    <path d="M24.9626 3.77003C24.6154 3.56754 24.2686 3.36472 23.9214 3.16223C24.3039 3.30265 24.7086 3.40356 24.9626 3.77003Z" fill="#F8F2EA"/>
    <path d="M4.36575 7.1805C4.60348 6.83694 4.87196 6.51694 5.13845 6.19594C5.15696 6.17337 5.17284 6.12026 5.21681 6.15345C5.26541 6.1903 5.22243 6.21984 5.19796 6.24905C4.92982 6.56905 4.66167 6.88938 4.39386 7.20971C4.37038 7.2137 4.35716 7.20739 4.36609 7.1805H4.36575Z" fill="#F8F2EA"/>
    <path d="M31.4359 18.8589C31.3668 19.3203 31.2596 19.7727 31.1145 20.2162C31.1065 20.2258 31.0983 20.2262 31.0894 20.2172C31.2054 19.7382 31.3234 19.2599 31.4071 18.7736C31.4696 18.7838 31.4342 18.8277 31.4359 18.8585V18.8589Z" fill="#F8F2EA"/>
    <path d="M27.5801 6.73922C27.5897 6.72993 27.5993 6.72096 27.6088 6.71167C27.9296 7.08146 28.2093 7.48146 28.4748 7.89208C28.4837 7.91797 28.4715 7.92229 28.4497 7.91698C28.1818 7.50801 27.878 7.12594 27.5801 6.73922Z" fill="#F8F2EA"/>
    <path d="M31.436 18.8587C31.4231 18.8315 31.4416 18.7933 31.4072 18.7737C31.4664 18.3342 31.5256 17.8947 31.5848 17.4552C31.6013 17.4974 31.5758 17.5472 31.6086 17.5863C31.5511 18.0106 31.4935 18.4344 31.4363 18.8587H31.436Z" fill="#F8F2EA"/>
    <path d="M30.9612 20.7179C30.8891 21.0834 30.736 21.4213 30.6084 21.7679C30.5859 21.8289 30.5598 21.8887 30.5353 21.9491C30.5135 21.9521 30.498 21.9498 30.5125 21.9219C30.661 21.5153 30.817 21.1109 30.9407 20.6957C30.9506 20.692 30.9605 20.6887 30.9671 20.7003C30.9698 20.705 30.9661 20.7116 30.9615 20.7179H30.9612Z" fill="#F8F2EA"/>
    <path d="M31.188 11.8835C31.31 12.2643 31.4274 12.6464 31.4396 13.05C31.3556 12.6613 31.272 12.2726 31.188 11.8835Z" fill="#F8F2EA"/>
    <path d="M1.17995 15.9957V16.7801C1.16606 16.7801 1.15218 16.7795 1.13829 16.7791C1.07944 16.497 1.18259 16.2201 1.17995 15.9957Z" fill="#F8F2EA"/>
    <path d="M1.99379 11.2043C1.94155 11.3471 1.88798 11.4898 1.8374 11.6332C1.82417 11.6707 1.8083 11.7009 1.76466 11.6833C1.70845 11.6604 1.7511 11.6279 1.76366 11.602C1.82814 11.4685 1.89427 11.3364 1.96006 11.2037C1.97163 11.1927 1.98288 11.193 1.99412 11.2046L1.99379 11.2043Z" fill="#F8F2EA"/>
    <path d="M1.75491 20.1135C1.63324 19.8672 1.59885 19.5963 1.56348 19.3254C1.62729 19.588 1.6911 19.8509 1.75491 20.1135Z" fill="#F8F2EA"/>
    <path d="M4.36544 7.18042C4.37469 7.19005 4.38395 7.2 4.39321 7.20963C4.27716 7.36996 4.1611 7.53063 4.04505 7.69096C4.03513 7.68432 4.02554 7.67768 4.01562 7.67104C4.12771 7.50473 4.23417 7.33444 4.36544 7.18042Z" fill="#F8F2EA"/>
    <path d="M6.47656 27.5104C6.63196 27.6342 6.78736 27.758 6.94276 27.8818C6.69974 27.7693 6.5493 27.6488 6.47656 27.5104Z" fill="#F8F2EA"/>
    <path d="M19.4709 30.7554C19.5969 30.7179 19.7229 30.6801 19.8489 30.6426C19.7738 30.7734 19.6356 30.7435 19.5255 30.784C19.4984 30.7913 19.4676 30.8062 19.4709 30.7554Z" fill="#F8F2EA"/>
    <path d="M17.0317 31.3162C17.2338 31.3125 17.4331 31.2551 17.6371 31.2936C17.4351 31.2973 17.2364 31.3633 17.0317 31.3162Z" fill="#F8F2EA"/>
    <path d="M6.02197 26.7074C6.1367 26.8156 6.25176 26.9242 6.36649 27.0324C6.35922 27.04 6.35162 27.048 6.34434 27.0556C6.21738 26.9597 6.10628 26.8475 6.02197 26.7074Z" fill="#F8F2EA"/>
    <path d="M6.71386 27.3726C6.59186 27.2886 6.48142 27.192 6.38818 27.0762C6.51581 27.1529 6.62723 27.2491 6.73237 27.3534C6.73502 27.368 6.72874 27.3746 6.71386 27.3726Z" fill="#F8F2EA"/>
    <path d="M2.42198 22.3017C2.34131 22.1693 2.28841 22.0262 2.26758 21.8699C2.32577 22.008 2.38396 22.1464 2.44215 22.2845C2.44215 22.2981 2.43554 22.3037 2.42232 22.3021L2.42198 22.3017Z" fill="#F8F2EA"/>
    <path d="M25.6249 4.70942C25.6147 4.71971 25.6044 4.73 25.5942 4.74029C25.5151 4.66792 25.4361 4.59556 25.3574 4.52319C25.4669 4.55938 25.5512 4.62743 25.6252 4.70942H25.6249Z" fill="#F8F2EA"/>
    <path d="M28.4502 7.91711C28.4585 7.90881 28.4671 7.90051 28.4753 7.89221C28.5616 7.98848 28.6208 8.10068 28.6621 8.22549C28.5914 8.12258 28.521 8.01968 28.4502 7.91711Z" fill="#F8F2EA"/>
    <path d="M8.63037 28.7006C8.72493 28.756 8.81982 28.8114 8.91439 28.8665C8.79966 28.8479 8.70311 28.7942 8.63037 28.7006Z" fill="#F8F2EA"/>
    <path d="M19.4709 30.7555C19.4775 30.7874 19.5072 30.7744 19.5254 30.784C19.4123 30.8106 19.2996 30.8375 19.1865 30.864C19.2731 30.801 19.371 30.7751 19.4709 30.7555Z" fill="#F8F2EA"/>
    <path d="M31.6356 15.0171C31.6266 15.0264 31.6177 15.0353 31.6084 15.0446C31.5734 14.948 31.583 14.8494 31.6068 14.7495L31.6356 15.0171Z" fill="#F8F2EA"/>
    <path d="M7.11573 27.6896C7.02844 27.6375 6.94546 27.5798 6.87602 27.5047C6.87536 27.4918 6.88197 27.4871 6.89421 27.4901C6.98083 27.528 7.04233 27.5993 7.11507 27.6558C7.12664 27.6667 7.12697 27.678 7.11573 27.6896Z" fill="#F8F2EA"/>
    <path d="M1.99353 11.2043C1.98229 11.2043 1.97071 11.2036 1.95947 11.2033C1.99287 11.1293 2.02626 11.0553 2.05966 10.9816C2.05734 11.0639 2.04412 11.1409 1.99353 11.2043Z" fill="#F8F2EA"/>
    <path d="M2.55029 9.77597C2.5903 9.69398 2.63031 9.61165 2.67031 9.52966C2.68023 9.53431 2.69048 9.53896 2.7004 9.54361C2.66238 9.62659 2.63857 9.71622 2.55029 9.77597Z" fill="#F8F2EA"/>
    <path d="M30.7289 12.2273C30.7094 12.149 30.6899 12.0706 30.6704 11.9923C30.7276 12.0504 30.7521 12.1194 30.7531 12.1965C30.7656 12.223 30.7531 12.23 30.7286 12.2273H30.7289Z" fill="#F8F2EA"/>
    <path d="M30.5122 21.9221C30.5198 21.9311 30.5274 21.9404 30.535 21.9493C30.5106 22.0187 30.4831 22.0864 30.417 22.1601C30.4415 22.0619 30.4709 21.9898 30.5122 21.9221Z" fill="#F8F2EA"/>
    <path d="M4.44503 6.34155C4.45429 6.35085 4.46387 6.36047 4.47313 6.36977C4.44172 6.44147 4.38485 6.49226 4.32666 6.54338C4.35014 6.46637 4.38783 6.39832 4.44503 6.34155Z" fill="#F8F2EA"/>
    <path d="M2.44171 22.2844C2.48337 22.3575 2.52272 22.4308 2.53132 22.5178C2.48106 22.4527 2.44006 22.3833 2.42188 22.302C2.42849 22.296 2.4351 22.2904 2.44171 22.2844Z" fill="#F8F2EA"/>
    <path d="M7.1159 27.6898C7.1159 27.6784 7.11557 27.667 7.11523 27.6556C7.1813 27.6938 7.24169 27.739 7.2874 27.804C7.22367 27.7762 7.15961 27.7494 7.1159 27.6901V27.6898Z" fill="#F8F2EA"/>
    <path d="M30.5181 11.359C30.4672 11.3029 30.4292 11.2422 30.4427 11.137C30.4741 11.2296 30.4963 11.2943 30.5181 11.359Z" fill="#F8F2EA"/>
    <path d="M30.729 12.2274C30.7373 12.2171 30.7452 12.2068 30.7535 12.1965C30.7865 12.2583 30.7961 12.325 30.7859 12.3967C30.767 12.3403 30.7479 12.2838 30.729 12.2274Z" fill="#F8F2EA"/>
    <path d="M31.0892 20.2171C31.0978 20.2207 31.1061 20.22 31.1143 20.2161C31.0955 20.2765 31.0766 20.3372 31.0465 20.4338C31.036 20.3293 31.0532 20.2712 31.0892 20.2174V20.2171Z" fill="#F8F2EA"/>
    <path d="M6.87754 27.506C6.82282 27.4615 6.7681 27.4173 6.71338 27.3727C6.71972 27.3663 6.72572 27.3596 6.73206 27.3533C6.79446 27.3901 6.84951 27.4357 6.89589 27.4913C6.88788 27.4936 6.88187 27.4987 6.87754 27.506Z" fill="#F8F2EA"/>
    <path d="M30.9608 20.718C30.9538 20.7107 30.9469 20.703 30.9399 20.6957C30.9565 20.638 30.973 20.5802 30.9895 20.5225C30.9985 20.5915 31.0011 20.6589 30.9604 20.718H30.9608Z" fill="#F8F2EA"/>
    <path d="M21.908 18.9159C21.8829 19.624 21.8661 20.3321 21.8465 21.0406C21.8386 21.3282 21.8465 21.6193 21.814 21.9044C21.7982 22.0721 21.7474 22.2346 21.665 22.3811C21.5826 22.5277 21.4703 22.655 21.3356 22.7548C21.125 22.9145 20.8853 23.0027 20.6358 23.0677C20.4921 23.1069 20.3498 23.1535 20.2041 23.1832C20.0585 23.213 19.9039 23.2328 19.7528 23.2467C19.3429 23.2898 18.9319 23.3236 18.5269 23.214C18.3059 23.1545 18.0815 23.1034 17.8748 22.9973C17.7789 22.9524 17.6955 22.8842 17.6322 22.7989C17.3196 22.3529 17.146 21.8231 17.1336 21.2772C17.1184 20.8453 17.0869 20.4139 17.0637 19.982C17.0431 19.5888 17.0066 19.1976 16.8934 18.8187C16.8299 18.5814 16.7185 18.3597 16.5662 18.1677C16.5067 18.0924 16.434 18.0288 16.3516 17.9802C16.1695 17.8786 16.0031 17.9307 15.8501 18.0298C15.637 18.1637 15.4928 18.3625 15.3579 18.5753C15.1727 18.88 15.036 19.2121 14.9529 19.5595C14.8111 20.1 14.8102 20.6504 14.8485 21.2023C14.8833 21.6938 14.8512 22.1878 14.7531 22.6705C14.726 22.8029 14.6586 22.9184 14.6094 23.0399C14.599 23.0647 14.5675 23.0687 14.5449 23.0811C14.348 23.1931 14.1295 23.2234 13.9144 23.2536C13.5183 23.3097 13.1172 23.3077 12.718 23.3265C12.281 23.3469 11.8484 23.3027 11.4163 23.2606C11.2046 23.2402 10.9802 23.2075 10.807 23.0722C10.621 22.9269 10.4211 22.7816 10.3675 22.5213C10.2932 22.1603 10.1869 21.8067 10.1475 21.4378C10.1032 21.0213 10.0678 20.6038 10.0387 20.1858C9.99765 19.6048 9.9873 19.022 10.0077 18.4399C10.0274 17.9021 10.0602 17.3644 10.1062 16.8269C10.1224 16.6444 10.1313 16.4634 10.2075 16.2919C10.2281 16.2513 10.2525 16.2127 10.2804 16.1768C10.4349 15.9527 10.5629 15.7087 10.7282 15.4955C10.9896 15.1578 11.248 14.8167 11.5354 14.4994C11.8558 14.1458 12.1668 13.7833 12.4818 13.4248C12.7279 13.1437 13.002 12.8854 13.2579 12.6121C13.5822 12.265 13.8864 11.9021 14.2358 11.5803C14.5852 11.2585 14.8958 10.8985 15.2964 10.6381C15.4126 10.5617 15.5367 10.4981 15.6665 10.4487C15.8904 10.3659 16.0937 10.4438 16.2915 10.5479C16.8865 10.8623 17.3374 11.3487 17.8079 11.8158C18.5072 12.51 19.1623 13.2444 19.8163 13.9792C20.3577 14.5758 20.8626 15.2051 21.3282 15.8634C21.4267 16.0023 21.5384 16.1292 21.6275 16.272C21.747 16.4629 21.7835 16.6811 21.8115 16.9032C21.8931 17.5708 21.9253 18.2435 21.908 18.9159ZM21.6944 19.987H21.7003C21.7003 19.8739 21.7003 19.7608 21.7003 19.6478C21.7104 18.7157 21.654 17.7841 21.5315 16.8601C21.524 16.7406 21.5017 16.6225 21.465 16.5086C21.3666 16.2606 21.2091 16.0524 21.0561 15.8406C20.81 15.4995 20.5413 15.1747 20.2735 14.8489C19.9094 14.4061 19.5791 13.9341 19.2066 13.4987C18.7498 12.9652 18.2675 12.453 17.7675 11.9616C17.3974 11.5966 17.0209 11.2386 16.6159 10.9109C16.1769 10.5558 15.6808 10.5479 15.2462 10.8186C14.8805 11.0457 14.5724 11.3428 14.2796 11.6551C13.9016 12.0588 13.5596 12.4951 13.1969 12.9151C12.4355 13.8032 11.6432 14.665 10.9138 15.5813C10.6421 15.9229 10.4103 16.2889 10.3262 16.7292C10.2061 17.3589 10.1785 17.9971 10.1662 18.6358C10.1455 19.6056 10.2464 20.5696 10.3345 21.5325C10.3517 21.8015 10.3952 22.0681 10.4644 22.3284C10.5831 22.729 10.8321 22.9784 11.2519 23.0439C11.4542 23.0756 11.6574 23.0979 11.8607 23.1183C12.2259 23.1545 12.593 23.1331 12.9587 23.1322C13.3908 23.1322 13.8214 23.1084 14.2412 22.9779C14.5685 22.8758 14.7043 22.7102 14.7093 22.3666C14.7147 22.0006 14.6837 21.6362 14.6758 21.2707C14.664 20.7213 14.6896 20.1729 14.7226 19.6255C14.7555 19.0657 14.916 18.548 15.2698 18.1037C15.4765 17.8444 15.7556 17.7184 16.0774 17.6966C16.386 17.6753 16.7236 17.9525 16.8733 18.306C17.0147 18.6464 17.1008 19.0076 17.1282 19.3756C17.1777 19.9617 17.2335 20.5474 17.2955 21.1329C17.3319 21.4725 17.3497 21.8157 17.451 22.1464C17.6046 22.6507 18.0367 23.0117 18.5264 23.0419C19.0208 23.0768 19.5175 23.061 20.0088 22.9948C20.3454 22.9452 20.6796 22.8842 20.9931 22.7429C21.3292 22.5907 21.5561 22.3507 21.6206 21.9679C21.6618 21.7256 21.686 21.4807 21.6929 21.235C21.7018 20.819 21.6944 20.403 21.6944 19.987Z" fill="#F8F2EA"/>
    <path d="M23.1816 14.7571C23.2092 15.0279 23.0192 15.3189 22.7436 15.4231C22.5456 15.4923 22.3319 15.5021 22.1284 15.4513C21.7785 15.3775 21.5078 15.1632 21.2804 14.9019C20.8468 14.4061 20.4054 13.9142 19.9462 13.4411C19.4432 12.9235 18.9378 12.4078 18.4112 11.9134C18.1001 11.6209 17.7901 11.3263 17.4648 11.0496C17.1144 10.7521 16.759 10.4576 16.3225 10.2875C16.0306 10.174 15.7388 10.1239 15.4391 10.2642C15.3395 10.3083 15.2464 10.366 15.1625 10.4358C14.7058 10.8325 14.2909 11.2698 13.8583 11.6893C13.4582 12.0771 13.0546 12.4618 12.6771 12.8724C12.215 13.3757 11.7184 13.8443 11.2415 14.3327C10.9595 14.6213 10.6937 14.9277 10.4048 15.2089C10.2122 15.407 10.0086 15.5941 9.79506 15.7692C9.66268 15.8707 9.51649 15.9525 9.36098 16.0121C9.28884 16.0408 9.2109 16.0515 9.13379 16.0433C9.05667 16.0351 8.98267 16.0082 8.91805 15.965C8.80141 15.8897 8.6823 15.8252 8.59323 15.7102C8.43426 15.5054 8.40522 15.2758 8.43032 15.0289C8.44743 14.8945 8.49601 14.7662 8.57206 14.6545C8.98755 13.999 9.45796 13.3806 9.97814 12.806C10.3423 12.4018 10.7203 12.0126 11.0786 11.6005C11.4231 11.2039 11.7893 10.831 12.1643 10.4655C12.3936 10.2497 12.6074 10.0177 12.8041 9.77134C12.8943 9.66706 12.992 9.56961 13.0964 9.47978C13.22 9.36177 13.3351 9.23582 13.4591 9.11979C13.5369 9.04739 13.626 8.98343 13.7023 8.90608C13.9719 8.62552 14.2628 8.36656 14.5724 8.13155C14.7668 7.98627 14.9661 7.84247 15.1969 7.77404C15.4547 7.68952 15.7293 7.67045 15.9962 7.71851C16.3973 7.79933 16.726 8.01602 17.0479 8.25403C17.356 8.48014 17.6277 8.74988 17.9294 8.98343C18.545 9.45846 19.0613 10.0371 19.6106 10.5835C19.9432 10.9158 20.2504 11.2718 20.5894 11.5996C20.9502 11.9506 21.2883 12.324 21.6372 12.6865C21.9271 12.984 22.2062 13.2964 22.4803 13.6107C22.6304 13.7823 22.8076 13.9296 22.9518 14.1066C23.1074 14.2863 23.1895 14.5188 23.1816 14.7571ZM15.7752 7.8152C15.5532 7.79586 15.3529 7.86875 15.1595 7.98181C14.8232 8.18628 14.5077 8.42361 14.2175 8.69038C13.8583 9.00921 13.5374 9.36821 13.1958 9.70589C12.4675 10.4254 11.744 11.1498 11.0609 11.9134C10.424 12.6255 9.78128 13.3301 9.1907 14.0833C9.00959 14.3153 8.81617 14.5385 8.68673 14.8087C8.56763 15.0566 8.50611 15.3046 8.62669 15.5723C8.73349 15.8103 8.95742 15.969 9.18332 15.9422C9.34193 15.9279 9.4927 15.8662 9.61641 15.7652C9.97174 15.4593 10.2734 15.1018 10.5766 14.7462C11.022 14.2236 11.4625 13.6945 11.9546 13.2155C12.2499 12.9269 12.5654 12.6542 12.8489 12.3528C13.4139 11.7513 13.9769 11.1478 14.566 10.5677C14.7629 10.3738 14.9454 10.1611 15.191 10.0222C15.5414 9.8239 15.9051 9.75646 16.2738 9.95133C16.6981 10.168 17.0873 10.4482 17.4283 10.7824C18.0652 11.421 18.6986 12.0637 19.3477 12.6904C20.0126 13.335 20.6352 14.0168 21.2799 14.6788C21.4443 14.8474 21.6151 15.0085 21.7883 15.1677C22.0511 15.4097 22.3523 15.4553 22.6821 15.3616C22.8878 15.3026 23.0069 15.1603 23.0458 14.9451C23.092 14.6882 23.0069 14.471 22.8489 14.2801C22.5177 13.8795 22.186 13.4778 21.8415 13.0901C21.589 12.8045 21.3114 12.5422 21.054 12.2605C20.6342 11.8024 20.2435 11.3139 19.7671 10.9098C18.9988 10.2533 18.3319 9.48573 17.5425 8.85104C17.2079 8.58179 16.9081 8.26891 16.5361 8.04676C16.3018 7.90445 16.0567 7.80677 15.7752 7.8147V7.8152Z" fill="#F8F2EA"/>
    <path d="M22.7088 9.96426C22.6999 10.1264 22.6659 10.3114 22.5262 10.4462C22.483 10.4895 22.4317 10.5236 22.3753 10.5467C22.3189 10.5698 22.2585 10.5813 22.1976 10.5806C22.1367 10.5799 22.0766 10.567 22.0207 10.5427C21.9648 10.5183 21.9143 10.483 21.8721 10.4388C21.7541 10.3275 21.6736 10.1819 21.6418 10.0223C21.6044 9.78625 21.7461 9.63651 21.9223 9.517C22.0877 9.40494 22.2668 9.3737 22.4519 9.46742C22.6369 9.56114 22.7112 9.7322 22.7088 9.96426ZM21.9558 10.3262L21.9361 10.3064L21.9179 10.2846C21.9182 10.2815 21.9173 10.2785 21.9155 10.276C21.9137 10.2735 21.911 10.2718 21.908 10.2712C21.8261 10.1612 21.78 10.0283 21.7761 9.89088C21.7269 10.0481 21.8017 10.1695 21.8918 10.2876L21.9026 10.3084L21.9223 10.3272C21.9251 10.3325 21.9294 10.3368 21.9346 10.3396L21.9622 10.3595C21.9769 10.3728 21.9907 10.4026 22.0114 10.3793C22.0197 10.3704 21.9942 10.3505 21.9755 10.3451L21.9558 10.3262ZM22.0498 10.414L22.0429 10.3981L22.0335 10.4066L22.0512 10.412C22.0534 10.4179 22.0577 10.4228 22.0633 10.4256C22.0689 10.4283 22.0753 10.4288 22.0813 10.4269C22.0813 10.4269 22.0847 10.4224 22.0862 10.42L22.0498 10.414ZM22.506 9.9236C22.503 9.75204 22.4189 9.65733 22.2673 9.65683C22.194 9.6571 22.1239 9.68664 22.0722 9.73898C22.0205 9.79132 21.9916 9.86218 21.9917 9.936C21.9961 10.0704 22.1669 10.2524 22.2826 10.2464C22.3982 10.2405 22.5089 10.0828 22.5065 9.92112L22.506 9.9236ZM22.1566 10.4433C22.2338 10.4433 22.316 10.475 22.3933 10.3966C22.317 10.4225 22.2375 10.4374 22.1571 10.4408L22.1566 10.4433Z" fill="#181818"/>
    <path d="M7.8854 19.1713C7.86177 19.5144 7.65606 19.682 7.32434 19.6974C7.10534 19.7078 6.83219 19.4118 6.84154 19.1981C6.8568 18.851 7.07384 18.609 7.37454 18.603C7.62062 18.6015 7.8913 18.902 7.8854 19.1713ZM7.61275 19.1326C7.61431 19.1001 7.60921 19.0676 7.59774 19.0372C7.58627 19.0067 7.56869 18.979 7.5461 18.9557C7.52351 18.9325 7.49639 18.9141 7.46645 18.9019C7.43651 18.8897 7.40438 18.8838 7.37208 18.8847C7.28546 18.8896 7.17867 19.028 7.18064 19.1326C7.18057 19.1642 7.18671 19.1954 7.19869 19.2246C7.21068 19.2537 7.22827 19.2802 7.25046 19.3025C7.27265 19.3247 7.299 19.3423 7.32798 19.3543C7.35697 19.3662 7.38801 19.3723 7.41933 19.3721C7.53351 19.3731 7.61373 19.2734 7.61275 19.1326ZM7.69936 19.1658C7.74464 19.0022 7.71265 18.9224 7.59454 18.9065C7.67328 18.9749 7.68263 19.0672 7.69936 19.1658Z" fill="#181818"/>
    <path d="M24.4184 21.1785C24.3983 21.5256 24.2186 21.7765 23.8771 21.7913C23.5995 21.8037 23.3958 21.5861 23.3603 21.1998C23.3367 20.94 23.6089 20.6826 23.9105 20.6672C24.0448 20.6683 24.1734 20.7225 24.2684 20.8181C24.3634 20.9137 24.4173 21.0432 24.4184 21.1785ZM23.9553 20.9638C23.79 20.9553 23.6827 21.0495 23.6719 21.2117C23.661 21.3738 23.7565 21.4834 23.9219 21.4923C24.0616 21.4998 24.1881 21.3709 24.1965 21.2127C24.2053 21.0416 24.1399 20.9757 23.9553 20.9638ZM23.5523 21.3322C23.5557 21.2509 23.5483 21.1804 23.5788 21.115C23.6036 21.0537 23.6424 20.9992 23.692 20.9558C23.7412 20.9137 23.8151 20.9147 23.883 20.8616C23.5862 20.9018 23.4494 21.1011 23.5523 21.3322Z" fill="#181818"/>
    <path d="M19.8092 8.28621C19.811 8.33521 19.8027 8.38405 19.7848 8.42966C19.767 8.47526 19.7399 8.51664 19.7053 8.55117C19.6708 8.5857 19.6295 8.61264 19.5841 8.63027C19.5387 8.64791 19.4901 8.65586 19.4415 8.65364C19.2206 8.6457 19.068 8.47463 19.0552 8.23514C19.0434 8.00556 19.2407 7.87316 19.4391 7.87366C19.6655 7.87366 19.8102 8.03382 19.8092 8.28621ZM19.6615 8.40174C19.7649 8.25299 19.7417 8.10126 19.6 8.00109C19.5838 7.99018 19.5675 7.98126 19.5537 8.00456L19.5882 8.01498C19.7029 8.12506 19.6768 8.25794 19.6487 8.39183C19.6325 8.39579 19.6305 8.4062 19.6354 8.42009L19.6615 8.40174ZM19.286 8.24109C19.286 8.3115 19.3411 8.38389 19.3958 8.38538C19.4148 8.38513 19.4335 8.38105 19.4509 8.3734C19.4683 8.36575 19.4841 8.35467 19.4972 8.34082C19.5103 8.32696 19.5205 8.31061 19.5273 8.29272C19.534 8.27482 19.5372 8.25575 19.5365 8.23662C19.5387 8.21996 19.537 8.20302 19.5318 8.18707C19.5266 8.17112 19.5178 8.15656 19.5063 8.14446C19.4947 8.13237 19.4806 8.12305 19.4649 8.1172C19.4493 8.11136 19.4325 8.10913 19.4159 8.11068C19.3987 8.10965 19.3815 8.11232 19.3654 8.11853C19.3493 8.12474 19.3348 8.13434 19.3226 8.14668C19.3105 8.15903 19.3012 8.17383 19.2952 8.19011C19.2892 8.20639 19.2868 8.22377 19.288 8.24109H19.286Z" fill="#181818"/>
    <path d="M22.7137 19.4212C22.5444 19.4212 22.4253 19.2551 22.4288 19.0284C22.4317 18.8514 22.5331 18.7642 22.7497 18.7731C22.9662 18.782 23.0858 18.8906 23.0942 19.077C23.103 19.2357 22.8889 19.4227 22.7137 19.4212ZM22.8929 19.0508C22.8898 19.0187 22.8749 18.989 22.8511 18.9675C22.8273 18.946 22.7964 18.9343 22.7644 18.9347C22.748 18.9332 22.7315 18.9351 22.7158 18.9404C22.7002 18.9456 22.6858 18.954 22.6735 18.9651C22.6612 18.9761 22.6513 18.9896 22.6445 19.0047C22.6376 19.0198 22.6339 19.0361 22.6335 19.0527C22.635 19.0907 22.6499 19.1269 22.6755 19.1548C22.7012 19.1827 22.7358 19.2005 22.7733 19.205C22.8373 19.2045 22.8944 19.1326 22.8929 19.0508Z" fill="#181818"/>
    <path d="M8.46264 17.4636C8.60094 17.4636 8.73825 17.59 8.74169 17.7204C8.74514 17.8657 8.59897 18.0383 8.46855 18.0417C8.31204 18.0467 8.1831 17.893 8.17326 17.7095C8.1639 17.6039 8.31844 17.4601 8.46264 17.4636ZM8.44099 17.593C8.39177 17.6143 8.32779 17.6331 8.33567 17.7065C8.34206 17.768 8.34699 17.8469 8.43754 17.8508C8.49217 17.8508 8.56452 17.7665 8.56156 17.7021C8.55861 17.6336 8.5153 17.5989 8.44099 17.593Z" fill="#181818"/>
    <path d="M9.01082 20.2318C8.99803 20.4624 8.86318 20.5963 8.73079 20.5853C8.58954 20.5739 8.41433 20.3756 8.4291 20.2229C8.44681 20.0464 8.55214 19.9829 8.76179 19.9839C8.79463 19.9824 8.82741 19.9878 8.85808 19.9997C8.88874 20.0116 8.91664 20.0298 8.94002 20.0531C8.9634 20.0763 8.98176 20.1042 8.99394 20.135C9.00612 20.1657 9.01187 20.1987 9.01082 20.2318ZM8.73866 20.1326C8.65795 20.1326 8.58265 20.1872 8.57871 20.2501C8.57428 20.324 8.68059 20.4366 8.75589 20.4381C8.8051 20.4381 8.88778 20.33 8.89024 20.2616C8.8932 20.1867 8.83365 20.1361 8.73866 20.1326Z" fill="#181818"/>
    <path d="M21.6945 19.9869C21.6945 20.4029 21.7019 20.819 21.6945 21.235C21.6867 21.4806 21.6617 21.7253 21.6197 21.9673C21.5552 22.3501 21.3283 22.5901 20.9922 22.7424C20.6792 22.8837 20.345 22.9457 20.0079 22.9943C19.5166 23.0605 19.0199 23.0763 18.5255 23.0414C18.0358 23.0111 17.6037 22.6501 17.4501 22.1459C17.3488 21.8151 17.331 21.472 17.2946 21.1323C17.2323 20.5472 17.1765 19.9615 17.1273 19.375C17.1008 19.0074 17.0157 18.6464 16.8753 18.306C16.7277 17.9524 16.3881 17.6752 16.0795 17.6966C15.7576 17.7184 15.4786 17.8453 15.2719 18.1037C14.918 18.5499 14.7576 19.0656 14.7246 19.6254C14.6916 20.1709 14.666 20.7213 14.6778 21.2707C14.6857 21.6361 14.7167 22.0006 14.7113 22.3665C14.7064 22.7101 14.5706 22.8757 14.2433 22.9779C13.8235 23.1083 13.3928 23.1306 12.9607 23.1321C12.5951 23.1321 12.2279 23.1544 11.8627 23.1182C11.6595 23.0979 11.4562 23.0756 11.2539 23.0438C10.8341 22.9784 10.5851 22.729 10.4665 22.3283C10.3973 22.0682 10.3537 21.8018 10.3366 21.533C10.2485 20.5695 10.1476 19.6061 10.1683 18.6362C10.182 17.9975 10.2081 17.3594 10.3282 16.7297C10.4124 16.2893 10.6442 15.9234 10.9158 15.5818C11.6452 14.6654 12.4376 13.8036 13.1989 12.9155C13.5592 12.4956 13.9012 12.0592 14.2817 11.6556C14.5745 11.3432 14.8826 11.0462 15.2483 10.8191C15.6848 10.5483 16.1789 10.5563 16.6179 10.9113C17.023 11.2391 17.3995 11.5971 17.7696 11.962C18.2696 12.4554 18.7539 12.9676 19.2086 13.4992C19.5812 13.9345 19.9114 14.4066 20.2756 14.8494C20.5433 15.1742 20.8106 15.4989 21.0581 15.8411C21.2112 16.0528 21.3687 16.2621 21.4671 16.509C21.5037 16.6229 21.526 16.741 21.5335 16.8606C21.6559 17.784 21.7123 18.7151 21.7023 19.6468C21.7023 19.7598 21.7023 19.8729 21.7023 19.9859L21.6945 19.9869ZM11.1161 15.7984L11.0714 15.8525C11.0157 15.9115 10.9532 15.965 10.9286 16.0474C10.9109 16.0702 10.8932 16.093 10.876 16.1163C10.8587 16.1396 10.845 16.1584 10.8843 16.1847C10.9336 16.2189 10.9301 16.1728 10.9409 16.154C10.9685 16.1044 10.9926 16.0548 11.0187 16.0052C11.0519 15.9657 11.0756 15.9191 11.0881 15.8689C11.0981 15.8617 11.1066 15.8526 11.1131 15.8422C11.1196 15.8317 11.124 15.82 11.126 15.8079C11.1398 15.8019 11.1491 15.787 11.1383 15.7791C11.1275 15.7712 11.124 15.79 11.1161 15.7984ZM17.8124 22.0536C17.8074 22.0437 17.8055 22.0259 17.7892 22.0378C17.773 22.0497 17.7892 22.0586 17.7947 22.0685C17.8001 22.0784 17.8084 22.1181 17.8266 22.1047C17.8449 22.0913 17.8281 22.0665 17.8124 22.0536ZM16.4727 11.2346C16.4767 11.2445 16.4855 11.253 16.4924 11.2435C16.4993 11.2341 16.488 11.2297 16.4786 11.2292C16.4466 11.182 16.4294 11.1126 16.3433 11.1533L16.4727 11.2346ZM21.5202 18.3794V18.9342H21.5596C21.5517 18.7483 21.5754 18.5618 21.5409 18.3764C21.535 18.1934 21.5478 18.0094 21.5124 17.9018C21.4961 18.0119 21.5168 18.1954 21.5202 18.3794ZM10.7775 18.3794C10.7899 18.0791 10.7833 17.7783 10.7579 17.4789C10.7692 17.5538 10.7086 17.6093 10.7145 17.6847C10.7382 17.9152 10.7564 18.1463 10.7766 18.3789C10.7674 18.4297 10.7757 18.4822 10.8002 18.5276C10.8038 18.4776 10.7968 18.4274 10.7795 18.3803L10.7775 18.3794ZM21.0099 19.0701C21.0123 18.4498 20.971 17.8597 20.943 17.2681C20.9115 16.6102 20.6393 16.0627 20.2426 15.5679C19.8553 15.0839 19.4498 14.6143 19.0511 14.1393C18.4113 13.3752 17.7814 12.5987 17.05 11.9159C16.84 11.7091 16.6102 11.5238 16.364 11.3625C16.0391 11.1617 15.5494 11.25 15.3078 11.4419C14.9627 11.7098 14.6448 12.0116 14.3589 12.3428C13.4017 13.4749 12.4395 14.601 11.5099 15.7578C11.2559 16.0746 11.0448 16.4078 10.9916 16.8244C10.9293 17.2555 10.8964 17.6903 10.8932 18.126C10.8961 18.4453 10.938 18.7636 10.9252 19.083C10.8936 19.881 10.909 20.6802 10.9714 21.4765C10.9985 21.8235 11.0994 22.1473 11.3347 22.4186C11.3832 22.4771 11.4491 22.5185 11.5227 22.5366C11.6966 22.5759 11.874 22.5975 12.0522 22.601C12.6339 22.6288 13.2137 22.6248 13.79 22.5277C13.9343 22.5038 14.0649 22.4278 14.1576 22.3139C14.2905 22.1587 14.2969 21.9669 14.2895 21.7849C14.2777 21.4993 14.2625 21.2136 14.2477 20.9285C14.2133 20.277 14.2448 19.6309 14.3988 18.9947C14.5243 18.4765 14.7344 18.0005 15.1326 17.6301C15.674 17.1253 16.4083 17.161 16.9004 17.7134C17.1585 18.0101 17.3407 18.3659 17.4309 18.7498C17.5963 19.3968 17.6317 20.0623 17.6829 20.7247C17.7095 21.0664 17.7243 21.4095 17.8114 21.7422C17.9329 22.2073 18.1869 22.4364 18.648 22.4944C19.1828 22.5661 19.7256 22.5467 20.2539 22.4369C20.4065 22.4037 20.5586 22.362 20.6673 22.2386C20.8214 22.067 20.8701 21.8558 20.8814 21.6312C20.8982 21.2895 20.9174 20.9474 20.9346 20.6057C20.9582 20.0866 21.0015 19.5659 21.0099 19.0711V19.0701ZM15.4126 17.5825C15.5947 17.5701 15.7483 17.4521 15.9397 17.4531C16.1312 17.4541 16.297 17.5186 16.4727 17.5572C16.1164 17.3435 15.7621 17.3648 15.4126 17.582V17.5825ZM14.323 22.846C14.1439 22.9055 13.947 22.849 13.7816 22.9412C13.9583 22.904 14.1527 22.9407 14.323 22.846ZM12.7319 22.9898C12.5562 22.9447 12.3746 22.9591 12.1949 22.9462C12.3716 22.9873 12.5513 22.9824 12.7324 22.9898H12.7319ZM19.0477 22.6615L18.6539 22.5946C18.7824 22.6407 18.9079 22.7002 19.0477 22.6615ZM11.3504 22.6496L11.1905 22.5673C11.2146 22.6615 11.2884 22.6457 11.3519 22.6486L11.3504 22.6496ZM17.775 21.9748L17.6928 21.7764C17.707 21.9103 17.707 21.9103 17.7764 21.9738L17.775 21.9748ZM17.775 22.0026L17.7681 22.0095C17.7722 22.0123 17.7766 22.0145 17.7814 22.0159C17.7814 22.0159 17.7858 22.012 17.7878 22.0095L17.775 22.0026Z" fill="#181818"/>
    <path d="M15.7755 7.81475C16.057 7.80682 16.3021 7.9045 16.5363 8.04433C16.9084 8.26647 17.2081 8.57935 17.5428 8.8486C18.3302 9.48329 18.9991 10.2509 19.7673 10.9074C20.2437 11.314 20.6345 11.7999 21.0538 12.2606C21.3102 12.5422 21.5878 12.806 21.8412 13.0901C22.1857 13.4799 22.5174 13.8835 22.8487 14.2802C23.0066 14.4711 23.0918 14.6883 23.0455 14.9451C23.0066 15.1603 22.8875 15.3026 22.6818 15.3616C22.3521 15.4553 22.0509 15.4112 21.7881 15.1678C21.6148 15.0086 21.4436 14.8474 21.2797 14.6788C20.635 14.0169 20.0124 13.3331 19.3475 12.6905C18.6993 12.0637 18.0679 11.4211 17.4281 10.7824C17.0871 10.4483 16.6978 10.1681 16.2735 9.95138C15.9029 9.75651 15.5392 9.82444 15.1908 10.0223C14.9447 10.1611 14.7631 10.3738 14.5657 10.5677C13.9752 11.1454 13.4136 11.7488 12.8486 12.3528C12.5651 12.6543 12.2516 12.927 11.9544 13.2156C11.4622 13.6946 11.0242 14.2236 10.5763 14.7463C10.2732 15.1018 9.97149 15.4593 9.61616 15.7653C9.49245 15.8663 9.34168 15.9279 9.18307 15.9423C8.95717 15.971 8.73324 15.8104 8.62644 15.5724C8.50586 15.3036 8.56738 15.0582 8.68648 14.8088C8.81592 14.5385 9.00934 14.3129 9.19045 14.0833C9.78103 13.3301 10.4238 12.6255 11.0606 11.9135C11.7437 11.1499 12.4672 10.4259 13.1956 9.70593C13.5371 9.36826 13.858 9.00926 14.2173 8.69043C14.5076 8.42346 14.8233 8.18596 15.1598 7.98136C15.3532 7.8683 15.5535 7.79541 15.7755 7.81475ZM17.3307 10.3714L17.3489 10.3927L17.3813 10.4274C17.3845 10.433 17.3893 10.4375 17.3951 10.4403C17.4217 10.4715 17.4443 10.5067 17.4936 10.5102C17.4936 10.5454 17.5241 10.5573 17.5482 10.5737L17.5689 10.593L17.588 10.6133L17.6082 10.6332C17.7405 10.7795 17.8849 10.9142 18.0398 11.0358C18.0451 11.0481 18.0534 11.0588 18.0641 11.0668C18.0747 11.0748 18.0872 11.0798 18.1004 11.0814C18.0866 11.0591 18.0792 11.0318 18.0512 11.0274C17.9199 10.8767 17.7758 10.7378 17.6205 10.6124L17.5999 10.5925L17.5861 10.5796L17.562 10.5593C17.5413 10.539 17.5295 10.5062 17.4916 10.5097C17.4881 10.4626 17.4498 10.4452 17.4178 10.4229L17.3971 10.4036L17.3636 10.3734L17.3415 10.3575L17.3208 10.3505L17.3307 10.3714ZM8.90943 15.734L8.92616 15.7142L8.91287 15.7067V15.7345H8.9173L8.90943 15.734ZM21.8437 14.717C21.8353 14.717 21.822 14.7086 21.8201 14.7111C21.8117 14.7215 21.823 14.7259 21.8304 14.7304L21.8545 14.7572C21.9096 14.8089 21.9764 14.8461 22.0491 14.8657C22.1217 14.8852 22.1981 14.8864 22.2714 14.8692C22.3458 14.8682 22.4173 14.8396 22.4722 14.7889C22.4923 14.7785 22.5214 14.7735 22.4987 14.7393H22.5037H22.5002L22.4579 14.774C22.4008 14.8095 22.3383 14.8353 22.2728 14.8504C22.1286 14.8628 22.0036 14.8073 21.8791 14.7413L21.8437 14.717ZM22.5617 14.9188L22.3314 15.0061C22.4249 15.0106 22.5135 15.0016 22.5839 14.9352C22.5898 14.9248 22.5982 14.9134 22.5839 14.9069C22.5755 14.905 22.5667 14.9144 22.5598 14.9188H22.5617ZM10.0748 13.3271C10.0079 13.3783 9.96163 13.4521 9.94443 13.5349L10.0842 13.3366C10.0842 13.3286 10.0906 13.3152 10.0886 13.3138C10.0748 13.3083 10.0739 13.3182 10.0729 13.3271H10.0748ZM9.49017 15.3349C9.46064 15.3487 9.43111 15.3641 9.40109 15.3765C9.18503 15.4658 9.07233 15.4053 9.02115 15.1732C9.02115 15.1697 9.01426 15.1673 9.00786 15.1628C8.97979 15.2277 8.97459 15.3003 8.9931 15.3686C9.01623 15.4583 9.05511 15.5094 9.16633 15.496C9.29675 15.4796 9.39814 15.4152 9.50149 15.3473C9.50694 15.343 9.51204 15.3384 9.51675 15.3334C9.50543 15.3175 9.49706 15.3289 9.4882 15.3349H9.49017ZM15.6952 9.32561C15.9277 9.31083 16.1591 9.36922 16.3572 9.49272C16.7743 9.75563 17.1708 10.0504 17.5433 10.3743C18.0964 10.8459 18.5915 11.3784 19.0999 11.8966C19.4966 12.3017 19.911 12.69 20.2811 13.1194C20.7019 13.6078 21.1778 14.0298 21.7482 14.3352C21.8514 14.3947 21.9634 14.4373 22.0799 14.4612C22.1784 14.478 22.2768 14.4825 22.3467 14.3987C22.4166 14.3149 22.386 14.2167 22.3467 14.125C22.3294 14.0818 22.3055 14.0416 22.2758 14.006C21.6764 13.3118 21.071 12.6176 20.4155 11.973C20.1133 11.6755 19.7983 11.3898 19.5143 11.076C19.158 10.6924 18.7773 10.3326 18.3745 9.99898C18.0394 9.71337 17.6884 9.44611 17.3558 9.15603C17.0422 8.87529 16.7059 8.62152 16.3503 8.39738C16.0269 8.19904 15.677 8.15342 15.3168 8.30267C15.0458 8.41937 14.7984 8.58527 14.5869 8.79208C13.8565 9.48627 13.1442 10.1991 12.45 10.9307C11.3122 12.1355 10.2386 13.4002 9.23376 14.7195C9.13533 14.8504 9.12598 15.0016 9.14025 15.1559C9.14812 15.2421 9.20226 15.2669 9.2815 15.2387C9.36851 15.2063 9.44989 15.1603 9.52265 15.1023C9.96142 14.7593 10.3691 14.3776 10.7407 13.9618C11.4829 13.1531 12.2536 12.3721 13.0046 11.5713C13.4451 11.1082 13.9141 10.6664 14.3723 10.2157C14.6676 9.92807 14.9629 9.64494 15.3227 9.43768C15.4506 9.36578 15.5766 9.30875 15.6952 9.32561ZM9.00786 14.8469L9.25394 14.4304C9.0871 14.5326 9.05708 14.6962 9.00786 14.8469ZM15.461 9.64048L15.7489 9.59932C15.6519 9.58842 15.5505 9.52147 15.4595 9.64197L15.461 9.64048ZM22.8752 14.9302C22.8995 14.8439 22.8925 14.7516 22.8556 14.6699C22.8034 14.7636 22.8767 14.845 22.8752 14.9302ZM8.90057 15.6859C8.86725 15.6003 8.81702 15.5223 8.75292 15.4568C8.77858 15.5462 8.82996 15.6259 8.90057 15.6859Z" fill="#181818"/>
    <path d="M22.5065 9.92107C22.5089 10.0827 22.4017 10.2379 22.2831 10.2439C22.1644 10.2498 21.9966 10.0678 21.9922 9.93346C21.9921 9.85964 22.021 9.78878 22.0727 9.73644C22.1243 9.6841 22.1945 9.65456 22.2678 9.6543C22.4194 9.65479 22.5035 9.7495 22.5065 9.92107Z" fill="#F8F2EA"/>
    <path d="M21.8916 10.288C21.8016 10.1695 21.7253 10.048 21.776 9.89136C21.7799 10.0288 21.826 10.1617 21.9079 10.2717L21.8916 10.288Z" fill="#F8F2EA"/>
    <path d="M22.1572 10.4408C22.2379 10.4366 22.3176 10.4209 22.394 10.3942C22.3167 10.4725 22.2345 10.4428 22.1572 10.4408Z" fill="#8C8C8B"/>
    <path d="M21.9766 10.3456C21.9958 10.3512 22.0222 10.3716 22.0135 10.3808C21.9913 10.4048 21.9771 10.3742 21.9629 10.3604L21.9766 10.3456Z" fill="#8C8C8B"/>
    <path d="M22.0498 10.4141L22.0877 10.4202C22.0877 10.4228 22.0846 10.4275 22.0826 10.4275C22.0764 10.4295 22.0697 10.429 22.0639 10.4261C22.058 10.4232 22.0536 10.4181 22.0513 10.412L22.0498 10.4141Z" fill="#8C8C8B"/>
    <path d="M21.9085 10.2711C21.9116 10.2717 21.9144 10.2735 21.9163 10.2761C21.9182 10.2787 21.9191 10.2819 21.9188 10.2851L21.9029 10.3103L21.8916 10.2887L21.9085 10.2711Z" fill="#8C8C8B"/>
    <path d="M21.9186 10.2845L21.9374 10.3071L21.9232 10.3291L21.9028 10.3096C21.9079 10.3014 21.9135 10.2932 21.9186 10.2845Z" fill="#8C8C8B"/>
    <path d="M22.0506 10.4101L22.0322 10.4044L22.0419 10.3956L22.0491 10.4121L22.0506 10.4101Z" fill="#8C8C8B"/>
    <path d="M21.9566 10.3262L21.9781 10.3463L21.9633 10.3613L21.9346 10.3406L21.9566 10.3262Z" fill="#8C8C8B"/>
    <path d="M21.937 10.3064L21.9579 10.3275L21.9354 10.3422C21.9299 10.3393 21.9253 10.3347 21.9224 10.3291C21.9276 10.3217 21.9323 10.3154 21.937 10.3064Z" fill="#8C8C8B"/>
    <path d="M7.61277 19.1325C7.61277 19.2733 7.53354 19.373 7.41936 19.374C7.38804 19.3742 7.357 19.3681 7.32801 19.3562C7.29903 19.3442 7.27268 19.3266 7.25049 19.3043C7.2283 19.2821 7.2107 19.2556 7.19872 19.2264C7.18674 19.1973 7.1806 19.166 7.18066 19.1345C7.18066 19.0294 7.28549 18.891 7.37211 18.8866C7.40424 18.8857 7.43619 18.8915 7.466 18.9036C7.4958 18.9157 7.52282 18.9339 7.54538 18.9569C7.56794 18.98 7.58557 19.0075 7.59716 19.0377C7.60875 19.0679 7.61407 19.1001 7.61277 19.1325Z" fill="#F8F2EA"/>
    <path d="M7.69955 19.1658C7.68282 19.0667 7.67347 18.9749 7.59473 18.9065C7.71284 18.9224 7.74483 19.0022 7.69955 19.1658Z" fill="#F8F2EA"/>
    <path d="M23.9553 20.9637C24.1398 20.9736 24.2053 21.0415 24.1964 21.2116C24.1881 21.3698 24.0616 21.4987 23.9218 21.4913C23.7565 21.4823 23.6605 21.3747 23.6718 21.2106C23.6831 21.0465 23.7899 20.9552 23.9553 20.9637Z" fill="#F8F2EA"/>
    <path d="M23.5525 21.3321C23.4496 21.1011 23.5865 20.9017 23.8832 20.8616C23.8153 20.9146 23.7435 20.9136 23.6923 20.9558C23.6426 20.9991 23.6039 21.0537 23.5791 21.115C23.5486 21.1804 23.5559 21.2508 23.5525 21.3321Z" fill="#F8F2EA"/>
    <path d="M19.2879 8.24114C19.2867 8.22369 19.2893 8.20618 19.2954 8.18981C19.3015 8.17345 19.3111 8.1586 19.3234 8.14628C19.3357 8.13395 19.3505 8.12445 19.3668 8.1184C19.3831 8.11235 19.4005 8.1099 19.4178 8.11122C19.4345 8.10943 19.4514 8.11148 19.4673 8.11723C19.4831 8.12297 19.4974 8.13225 19.5092 8.14437C19.5209 8.15649 19.5298 8.17114 19.5351 8.18722C19.5404 8.20329 19.542 8.22037 19.5399 8.23717C19.5405 8.2563 19.5374 8.27537 19.5306 8.29326C19.5239 8.31116 19.5136 8.32751 19.5005 8.34136C19.4874 8.35522 19.4717 8.3663 19.4543 8.37395C19.4369 8.3816 19.4181 8.38567 19.3991 8.38593C19.343 8.38394 19.2879 8.31155 19.2879 8.24114Z" fill="#F8F2EA"/>
    <path d="M19.6017 8.0011C19.7434 8.10027 19.7665 8.24903 19.6632 8.40175L19.6504 8.39183C19.6784 8.25795 19.7045 8.12506 19.5898 8.01498L19.6017 8.0011Z" fill="#F8F2EA"/>
    <path d="M19.6645 8.40221L19.6372 8.42138C19.6321 8.40687 19.6342 8.39599 19.6511 8.39185L19.6645 8.40221Z" fill="#F8F2EA"/>
    <path d="M19.5901 8.01578L19.5547 8.00506C19.5689 7.98108 19.5856 7.99026 19.6023 8.00149L19.5901 8.01578Z" fill="#F8F2EA"/>
    <path d="M22.8927 19.0507C22.8927 19.1325 22.8356 19.2044 22.7731 19.2049C22.7356 19.2005 22.7009 19.1827 22.6753 19.1548C22.6497 19.1269 22.6348 19.0907 22.6333 19.0527C22.6336 19.0361 22.6374 19.0198 22.6442 19.0047C22.6511 18.9896 22.661 18.9761 22.6733 18.965C22.6856 18.954 22.7 18.9456 22.7156 18.9403C22.7313 18.9351 22.7478 18.9332 22.7642 18.9347C22.7962 18.9343 22.8271 18.946 22.8509 18.9675C22.8747 18.989 22.8896 19.0187 22.8927 19.0507Z" fill="#F8F2EA"/>
    <path d="M8.44141 17.5929C8.51671 17.5988 8.55904 17.6336 8.56199 17.7045C8.56495 17.7664 8.4926 17.8532 8.43797 17.8532C8.34741 17.8493 8.34249 17.7704 8.33609 17.7089C8.32822 17.6331 8.39417 17.6142 8.44141 17.5929Z" fill="#F8F2EA"/>
    <path d="M8.7387 20.1327C8.83368 20.1327 8.89323 20.1823 8.89028 20.2616C8.89028 20.33 8.80514 20.4386 8.75592 20.4381C8.68062 20.4381 8.57432 20.3241 8.57875 20.2502C8.58268 20.1892 8.65798 20.1327 8.7387 20.1327Z" fill="#F8F2EA"/>
    <path d="M21.0098 19.071C21.0014 19.5669 20.9581 20.0865 20.932 20.6082C20.9148 20.9498 20.8956 21.2919 20.8789 21.6336C20.8675 21.8582 20.8188 22.0694 20.6648 22.241C20.556 22.3625 20.4039 22.4041 20.2514 22.4394C19.7231 22.5491 19.1802 22.5686 18.6455 22.4969C18.1858 22.4413 17.9319 22.2098 17.8088 21.7447C17.7217 21.4119 17.7069 21.0688 17.6804 20.7272C17.6311 20.0647 17.5937 19.3993 17.4284 18.7522C17.3381 18.3683 17.156 18.0125 16.8978 17.7159C16.4057 17.1635 15.6724 17.1278 15.13 17.6326C14.7319 18.003 14.5217 18.479 14.3962 18.9971C14.2422 19.6323 14.2107 20.2784 14.2451 20.931C14.2599 21.2161 14.2752 21.5017 14.287 21.7873C14.2944 21.9703 14.287 22.1612 14.1551 22.3164C14.0624 22.4303 13.9317 22.5062 13.7874 22.5301C13.2111 22.6293 12.6314 22.6293 12.0496 22.6035C11.8714 22.5999 11.694 22.5783 11.5201 22.539C11.4465 22.5209 11.3806 22.4796 11.3321 22.421C11.0968 22.1513 10.9959 21.826 10.9689 21.4789C10.9065 20.6827 10.891 19.8835 10.9226 19.0854C10.9354 18.7661 10.8936 18.4477 10.8906 18.1284C10.8939 17.6928 10.9268 17.2579 10.9891 16.8268C11.0422 16.4103 11.2533 16.0771 11.5073 15.7602C12.4355 14.6034 13.3991 13.4793 14.3564 12.3453C14.6428 12.0134 14.9613 11.7111 15.3072 11.4428C15.5488 11.2509 16.0385 11.1627 16.3634 11.3635C16.6096 11.5247 16.8394 11.7101 17.0494 11.9169C17.7808 12.5996 18.4092 13.3762 19.0505 14.1403C19.4492 14.6153 19.8547 15.0824 20.242 15.5688C20.6387 16.0647 20.9109 16.6101 20.9424 17.2691C20.9709 17.8606 21.0122 18.4507 21.0098 19.071Z" fill="#F8F2EA"/>
    <path d="M15.4126 17.582C15.762 17.3648 16.1164 17.3435 16.4727 17.5567C16.297 17.518 16.1282 17.4536 15.9397 17.4526C15.7512 17.4516 15.5947 17.5696 15.4126 17.582Z" fill="#F8F2EA"/>
    <path d="M10.7765 18.3784C10.7563 18.1473 10.7381 17.9162 10.7145 17.6842C10.7071 17.6088 10.7691 17.5533 10.7578 17.4784C10.7833 17.7778 10.7898 18.0786 10.7775 18.3789L10.7765 18.3784Z" fill="#F8F2EA"/>
    <path d="M14.3231 22.8459C14.1523 22.9407 13.9579 22.904 13.7817 22.9412C13.9476 22.8489 14.1445 22.9054 14.3231 22.8459Z" fill="#F8F2EA"/>
    <path d="M21.5204 18.3794C21.5169 18.1954 21.4963 18.0119 21.5125 17.9009C21.5479 18.0085 21.5351 18.1924 21.541 18.3754L21.5204 18.3794Z" fill="#F8F2EA"/>
    <path d="M12.7323 22.9898C12.5516 22.9824 12.3715 22.9873 12.1953 22.9462C12.3749 22.9591 12.5566 22.9447 12.7323 22.9898Z" fill="#8C8C8B"/>
    <path d="M21.52 18.3793L21.5407 18.3754C21.5751 18.5608 21.5515 18.7473 21.5594 18.9332H21.52V18.3793Z" fill="#8C8C8B"/>
    <path d="M11.0189 16.0042C10.9928 16.0538 10.9696 16.1034 10.9411 16.1531C10.9302 16.1719 10.9352 16.2181 10.8844 16.1838C10.845 16.1575 10.8573 16.1407 10.876 16.1153C10.8948 16.09 10.911 16.0692 10.9288 16.0463C10.9716 16.0592 10.9825 16.0051 11.0189 16.0042Z" fill="#F8F2EA"/>
    <path d="M19.0475 22.6615C18.9063 22.7012 18.7808 22.6417 18.6538 22.5946L19.0475 22.6615Z" fill="#F8F2EA"/>
    <path d="M11.0189 16.0044C10.9824 16.0044 10.9696 16.0595 10.9287 16.0476C10.9533 15.9652 11.0159 15.9116 11.0716 15.8525L11.0883 15.8679C11.0759 15.9182 11.0521 15.9649 11.0189 16.0044Z" fill="#8C8C8B"/>
    <path d="M11.3535 22.6494C11.2893 22.6464 11.2148 22.6615 11.1919 22.5663L11.3535 22.6494Z" fill="#F8F2EA"/>
    <path d="M16.474 11.2355L16.3433 11.1534C16.4288 11.1123 16.4477 11.1824 16.48 11.23L16.474 11.2355Z" fill="#F8F2EA"/>
    <path d="M17.7766 21.9739C17.7071 21.9104 17.7071 21.9104 17.6943 21.7754L17.7766 21.9739Z" fill="#8C8C8B"/>
    <path d="M10.7764 18.3783C10.7947 18.4261 10.8025 18.4774 10.7993 18.5286C10.7749 18.4826 10.7668 18.4295 10.7764 18.3783Z" fill="#8C8C8B"/>
    <path d="M17.8127 22.0536C17.8289 22.0684 17.8527 22.0898 17.8274 22.1046C17.802 22.1194 17.8056 22.0811 17.7944 22.0674L17.8127 22.0536Z" fill="#8C8C8B"/>
    <path d="M11.0713 15.8533L11.1167 15.7985L11.1267 15.807C11.1246 15.8194 11.1202 15.8312 11.1136 15.8418C11.107 15.8524 11.0984 15.8616 11.0883 15.8689L11.0713 15.8533Z" fill="#8C8C8B"/>
    <path d="M11.1162 15.7997C11.123 15.7908 11.1246 15.7677 11.1397 15.7782C11.1548 15.7887 11.1397 15.8024 11.1266 15.8087L11.1162 15.7997Z" fill="#8C8C8B"/>
    <path d="M16.4788 11.2291C16.4884 11.2291 16.5016 11.2322 16.493 11.244C16.4843 11.2558 16.4767 11.244 16.4727 11.2348L16.4788 11.2291Z" fill="#F8F2EA"/>
    <path d="M17.7751 22.0016L17.7891 22.0092C17.7891 22.0119 17.7838 22.0168 17.7821 22.0163C17.777 22.0147 17.7721 22.0123 17.7676 22.0092L17.7751 22.0016Z" fill="#8C8C8B"/>
    <path d="M17.7953 22.0686C17.7895 22.0581 17.7749 22.0465 17.7895 22.0359C17.8042 22.0254 17.8089 22.0423 17.8141 22.0528L17.7953 22.0686Z" fill="#8C8C8B"/>
    <path d="M15.6953 9.3256C15.5767 9.30874 15.4492 9.36576 15.3242 9.43865C14.963 9.64592 14.6677 9.92905 14.3724 10.2157C13.9127 10.6654 13.4437 11.1057 13.0037 11.5753C12.2537 12.3761 11.483 13.1571 10.7398 13.9658C10.3681 14.3816 9.96051 14.7632 9.52174 15.1062C9.44898 15.1642 9.36759 15.2102 9.28059 15.2426C9.20135 15.2709 9.14721 15.2461 9.13934 15.1598C9.12507 15.0056 9.13245 14.8544 9.23285 14.7235C10.239 13.404 11.3139 12.1393 12.453 10.9346C13.1479 10.2047 13.8602 9.49187 14.5899 8.79602C14.8014 8.58921 15.0488 8.42332 15.3198 8.30662C15.6791 8.15786 16.029 8.20745 16.3533 8.40133C16.7089 8.62547 17.0452 8.87924 17.3588 9.15998C17.6915 9.44807 18.0424 9.71534 18.3775 10.0029C18.7803 10.3366 19.1611 10.6963 19.5174 11.0799C19.8013 11.3938 20.1163 11.6794 20.4185 11.9769C21.074 12.6215 21.6794 13.3118 22.2788 14.0099C22.3085 14.0456 22.3324 14.0857 22.3497 14.1289C22.3891 14.2207 22.4201 14.3173 22.3497 14.4026C22.2793 14.4879 22.1794 14.482 22.083 14.4651C21.9664 14.4412 21.8544 14.3987 21.7512 14.3392C21.1808 14.0337 20.7049 13.6117 20.2841 13.1233C19.9135 12.6929 19.4992 12.3057 19.103 11.9006C18.5946 11.3824 18.0995 10.8498 17.5463 10.3783C17.1739 10.0543 16.7773 9.75958 16.3602 9.49666C16.1617 9.37118 15.9292 9.31136 15.6953 9.3256Z" fill="#F8F2EA"/>
    <path d="M9.49975 15.3467C9.3964 15.4151 9.29501 15.4796 9.16459 15.4954C9.05337 15.5088 9.01449 15.4578 8.99135 15.368C8.97284 15.2997 8.97805 15.2271 9.00612 15.1622C9.01252 15.1667 9.01842 15.1692 9.01941 15.1726C9.06862 15.4047 9.18329 15.4652 9.39935 15.3759C9.42937 15.3635 9.4589 15.3482 9.48843 15.3343L9.49975 15.3467Z" fill="#F8F2EA"/>
    <path d="M18.0376 11.0357C17.8826 10.9141 17.7382 10.7794 17.606 10.6331L17.6183 10.6133C17.773 10.7385 17.9166 10.877 18.0474 11.0273L18.0376 11.0357Z" fill="#F8F2EA"/>
    <path d="M9.00781 14.8469C9.05703 14.6982 9.08853 14.5326 9.25733 14.4299L9.00781 14.8469Z" fill="#F8F2EA"/>
    <path d="M22.2694 14.8692C22.1961 14.8864 22.1198 14.8851 22.0471 14.8656C21.9744 14.8461 21.9076 14.8088 21.8525 14.7571L21.8791 14.7393C22.0017 14.8052 22.1252 14.8607 22.2728 14.8483L22.2694 14.8692Z" fill="#8C8C8B"/>
    <path d="M15.4595 9.64191C15.5505 9.5229 15.6524 9.58836 15.7474 9.60075L15.4595 9.64191Z" fill="#F8F2EA"/>
    <path d="M22.8751 14.9302C22.8751 14.845 22.8032 14.7636 22.8554 14.6699C22.8924 14.7516 22.8994 14.8439 22.8751 14.9302Z" fill="#F8F2EA"/>
    <path d="M8.90058 15.6859C8.82996 15.6259 8.77858 15.5462 8.75293 15.4568C8.81702 15.5223 8.86725 15.6002 8.90058 15.6859Z" fill="#F8F2EA"/>
    <path d="M10.0823 13.3395L9.94238 13.5381C9.9596 13.4551 10.006 13.3813 10.0729 13.3301L10.0823 13.3395Z" fill="#F8F2EA"/>
    <path d="M22.5816 14.9352C22.5112 15.0016 22.4226 15.0106 22.3291 15.0061L22.5594 14.9188L22.5816 14.9352Z" fill="#8C8C8B"/>
    <path d="M22.269 14.8693V14.8484C22.3345 14.8333 22.3971 14.8075 22.4543 14.772L22.4686 14.7888C22.414 14.8392 22.3431 14.8678 22.269 14.8693Z" fill="#F8F2EA"/>
    <path d="M17.416 10.4254C17.4483 10.448 17.4871 10.4655 17.4905 10.5131C17.4438 10.5096 17.4199 10.474 17.3911 10.4424L17.416 10.4254Z" fill="#8C8C8B"/>
    <path d="M18.0476 11.0273C18.0774 11.0324 18.0849 11.0594 18.0973 11.082C18.084 11.0804 18.0713 11.0752 18.0606 11.0672C18.0499 11.0591 18.0414 11.0483 18.0361 11.0359L18.0476 11.0273Z" fill="#F8F2EA"/>
    <path d="M17.5466 10.5745C17.5222 10.5579 17.4932 10.5459 17.4912 10.5102C17.5296 10.5051 17.5411 10.5383 17.5626 10.5604L17.5466 10.5745Z" fill="#F8F2EA"/>
    <path d="M22.4556 14.773L22.4991 14.7373C22.5245 14.773 22.4925 14.7781 22.4718 14.7883L22.4556 14.773Z" fill="#F8F2EA"/>
    <path d="M21.8418 14.7169L21.8803 14.7399L21.8529 14.7583L21.8281 14.7307L21.8418 14.7169Z" fill="#8C8C8B"/>
    <path d="M17.3618 10.3752L17.3962 10.4069L17.3821 10.4288L17.3486 10.3931L17.3618 10.3752Z" fill="#8C8C8B"/>
    <path d="M17.5602 10.5627L17.5853 10.5839L17.5674 10.5968L17.5459 10.5767L17.5602 10.5627Z" fill="#F8F2EA"/>
    <path d="M17.5982 10.5935L17.6197 10.6142L17.6069 10.6348L17.5859 10.6142L17.5982 10.5935Z" fill="#F8F2EA"/>
    <path d="M10.0728 13.3274C10.0728 13.3183 10.0728 13.3081 10.0869 13.3147C10.0869 13.3147 10.0839 13.33 10.0823 13.3381L10.0728 13.3274Z" fill="#F8F2EA"/>
    <path d="M17.3957 10.406L17.4172 10.4261L17.3957 10.4416C17.3897 10.4387 17.3847 10.434 17.3813 10.4282C17.3865 10.421 17.3911 10.4143 17.3957 10.406Z" fill="#8C8C8B"/>
    <path d="M8.90929 15.7351V15.7067L8.92291 15.7143C8.91686 15.7209 8.91131 15.728 8.90576 15.7346L8.90929 15.7351Z" fill="#F8F2EA"/>
    <path d="M17.5851 10.5806L17.5997 10.5942L17.5872 10.6152L17.5669 10.5937L17.5851 10.5806Z" fill="#F8F2EA"/>
    <path d="M21.8286 14.7309C21.821 14.7263 21.8094 14.7217 21.818 14.7111C21.818 14.7111 21.8336 14.7151 21.8422 14.7172L21.8286 14.7309Z" fill="#8C8C8B"/>
    <path d="M9.48828 15.335C9.49736 15.3289 9.50594 15.3172 9.51552 15.335C9.5107 15.3402 9.50547 15.3449 9.49988 15.3492L9.48828 15.335Z" fill="#F8F2EA"/>
    <path d="M22.5596 14.9195C22.5669 14.9148 22.5763 14.9048 22.581 14.9069C22.5982 14.9137 22.5893 14.9258 22.581 14.9369L22.5596 14.9195Z" fill="#8C8C8B"/>
    <path d="M22.4987 14.7373L22.5036 14.7408L22.4966 14.7399L22.4987 14.7373Z" fill="#F8F2EA"/>
    <path d="M17.3318 10.3731L17.3188 10.353L17.3415 10.3606L17.3318 10.3731Z" fill="#8C8C8B"/>
    <path d="M17.3499 10.3945L17.3306 10.3719L17.3399 10.3599L17.3634 10.3761L17.3499 10.3945Z" fill="#8C8C8B"/>
    </svg>
    