<svg width="32" height="32" viewBox="0 0 32 32" fill="none" xmlns="http://www.w3.org/2000/svg">
<g filter="url(#filter0_d_14_47335)">
<path d="M0 16.0119C0.0585224 11.9459 1.41181 8.36584 4.15013 5.33747C6.38192 2.86977 9.14405 1.28471 12.3568 0.478409C13.3477 0.229779 14.3549 0.0853814 15.3749 0.0272904C17.484 -0.093207 19.5366 0.182974 21.527 0.902639C23.564 1.63923 25.364 2.76155 26.9352 4.25532C28.2723 5.52635 29.3148 7.01083 30.1619 8.64866C31.0341 10.3356 31.6008 12.1116 31.855 13.9927C31.9691 14.8362 32.0204 15.6833 31.9926 16.5331C31.864 20.4896 30.4942 23.9525 27.8229 26.8673C25.5598 29.3367 22.7748 30.9234 19.5055 31.6398C18.5678 31.8452 17.6189 31.974 16.6581 31.9953C12.3628 32.0905 8.57535 30.7442 5.34571 27.8987C2.78097 25.6388 1.15359 22.801 0.392464 19.4636C0.15639 18.4292 0.0297572 17.3796 0.0152092 16.3173C0.0138867 16.2211 0.00595143 16.1251 0.000330635 16.0123L0 16.0119Z" fill="#181818"/>
<path d="M16.82 30.4082C14.6001 30.4487 12.5297 30.0823 10.5442 29.2667C9.11984 28.6818 7.78904 27.9326 6.63082 26.9042C4.7267 25.2139 3.33439 23.1691 2.45722 20.7728C2.07401 19.7265 1.81744 18.6486 1.68088 17.5432C1.54599 16.4538 1.50532 15.3597 1.65377 14.2705C1.85348 12.806 2.28132 11.4048 2.92077 10.0717C4.18181 7.44269 6.04229 5.34212 8.49494 3.78329C10.119 2.75126 11.8866 2.06413 13.7811 1.71591C14.7139 1.5443 15.6545 1.46363 16.6021 1.4726C18.0701 1.48654 19.512 1.69035 20.906 2.15575C21.8767 2.47973 22.7807 2.95707 23.6364 3.52006C26.4134 5.34743 28.383 7.83639 29.6212 10.9172C30.1585 12.254 30.4931 13.6425 30.627 15.0792C30.6918 15.7729 30.7282 16.4684 30.67 17.1631C30.6009 17.9884 30.4356 18.798 30.2117 19.595C29.5471 21.9581 28.3734 24.0345 26.7007 25.8234C24.952 27.6936 22.8617 29.0386 20.4388 29.8509C19.7111 30.0949 18.9519 30.2157 18.1902 30.308C17.7094 30.3661 17.2267 30.392 16.82 30.4086V30.4082Z" fill="#F8F2EA"/>
<path d="M16.8628 28.6425C14.8825 28.678 13.0356 28.3567 11.2644 27.6416C9.99377 27.1289 8.8066 26.472 7.7734 25.5704C6.07479 24.0885 4.83277 22.2958 4.05027 20.1949C3.70843 19.2776 3.47955 18.3327 3.35773 17.3636C3.23739 16.4084 3.20111 15.4492 3.33355 14.4944C3.51169 13.2104 3.89336 11.982 4.46379 10.8132C5.58872 8.50832 7.24839 6.66673 9.43632 5.30008C10.8851 4.39529 12.4619 3.79287 14.1519 3.48759C14.984 3.33713 15.8231 3.26641 16.6684 3.27427C17.978 3.28649 19.2643 3.46518 20.5078 3.8732C21.3738 4.15724 22.1801 4.57573 22.9435 5.0693C25.4207 6.67138 27.1777 8.85348 28.2823 11.5545C28.7616 12.7264 29.0601 13.9438 29.1796 15.2033C29.2374 15.8115 29.2698 16.4212 29.2179 17.0304C29.1563 17.7538 29.0088 18.4636 28.8091 19.1624C28.2163 21.2342 27.1692 23.0545 25.677 24.6229C24.1171 26.2625 22.2524 27.4417 20.091 28.1538C19.4418 28.3677 18.7646 28.4737 18.0851 28.5546C17.6562 28.6055 17.2256 28.6282 16.8628 28.6428V28.6425Z" fill="#181818"/>
<path d="M4.4449 6.34168C4.78248 5.83115 5.16436 5.35447 5.57237 4.90036C5.79885 4.64841 6.06832 4.43928 6.34572 4.21057C5.74529 4.96974 5.09328 5.65588 4.473 6.3699C4.44854 6.37554 4.43564 6.3699 4.4449 6.34168Z" fill="#F8F2EA"/>
<path d="M25.6246 4.70942C26.3556 5.30726 27.0192 5.97249 27.6084 6.71174C27.6133 6.73597 27.6064 6.74825 27.5796 6.73929C26.9497 6.04087 26.2719 5.39025 25.5935 4.74029C25.5888 4.71507 25.5974 4.70278 25.6242 4.70942H25.6246Z" fill="#F8F2EA"/>
<path d="M31.6356 15.0173C31.7153 15.638 31.7569 16.2604 31.6964 16.8851C31.674 17.1195 31.6382 17.3525 31.6085 17.5862C31.5394 17.5537 31.5853 17.5002 31.5847 17.4551C31.6214 16.8748 31.6551 16.2946 31.6353 15.7127C31.6277 15.49 31.6177 15.2672 31.6085 15.0445C31.5996 15.0176 31.6111 15.0109 31.6356 15.0169V15.0173Z" fill="#F8F2EA"/>
<path d="M17.9105 30.8829C17.571 30.927 17.2318 30.9725 16.8919 31.015C16.5725 31.0551 16.2521 31.0887 15.933 31.1331C15.8487 31.1451 15.7684 31.1318 15.6864 31.1298C15.6622 31.1292 15.6169 31.1507 15.6225 31.096C15.6262 31.0611 15.6546 31.0475 15.6887 31.0452C15.8103 31.0372 15.9317 31.0246 16.0537 31.0203C16.6022 31.001 17.1468 30.938 17.6907 30.8679C17.7631 30.8586 17.8362 30.847 17.9105 30.8825V30.8829Z" fill="#F8F2EA"/>
<path d="M10.0505 2.64202C10.7065 2.27256 11.4237 2.06476 12.1362 1.84534C12.1646 1.83572 12.1716 1.84866 12.1666 1.87455C11.4623 2.1182 10.7611 2.37082 10.078 2.67023C10.0509 2.6782 10.0443 2.66658 10.0505 2.64202Z" fill="#F8F2EA"/>
<path d="M24.8853 28.0957C25.4582 27.5918 26.0448 27.1025 26.5758 26.5508C26.4475 26.8024 25.246 27.9065 24.8853 28.0957Z" fill="#F8F2EA"/>
<path d="M27.4487 5.30566C27.6994 5.49056 28.6618 6.62516 28.7961 6.88308C28.312 6.38782 27.9315 5.80292 27.4487 5.30566Z" fill="#F8F2EA"/>
<path d="M24.9626 3.77003C24.6154 3.56754 24.2686 3.36472 23.9214 3.16223C24.3039 3.30265 24.7086 3.40356 24.9626 3.77003Z" fill="#F8F2EA"/>
<path d="M4.36575 7.1805C4.60348 6.83694 4.87196 6.51694 5.13845 6.19594C5.15696 6.17337 5.17284 6.12026 5.21681 6.15345C5.26541 6.1903 5.22243 6.21984 5.19796 6.24905C4.92982 6.56905 4.66167 6.88938 4.39386 7.20971C4.37038 7.2137 4.35716 7.20739 4.36609 7.1805H4.36575Z" fill="#F8F2EA"/>
<path d="M31.4359 18.8589C31.3668 19.3203 31.2596 19.7727 31.1145 20.2162C31.1065 20.2258 31.0983 20.2262 31.0894 20.2172C31.2054 19.7382 31.3234 19.2599 31.4071 18.7736C31.4696 18.7838 31.4342 18.8277 31.4359 18.8585V18.8589Z" fill="#F8F2EA"/>
<path d="M27.5801 6.73922C27.5897 6.72993 27.5993 6.72096 27.6088 6.71167C27.9296 7.08146 28.2093 7.48146 28.4748 7.89208C28.4837 7.91797 28.4715 7.92229 28.4497 7.91698C28.1818 7.50801 27.878 7.12594 27.5801 6.73922Z" fill="#F8F2EA"/>
<path d="M31.436 18.8587C31.4231 18.8315 31.4416 18.7933 31.4072 18.7737C31.4664 18.3342 31.5256 17.8947 31.5848 17.4552C31.6013 17.4974 31.5758 17.5472 31.6086 17.5863C31.5511 18.0106 31.4935 18.4344 31.4363 18.8587H31.436Z" fill="#F8F2EA"/>
<path d="M30.9612 20.7179C30.8891 21.0834 30.736 21.4213 30.6084 21.7679C30.5859 21.8289 30.5598 21.8887 30.5353 21.9491C30.5135 21.9521 30.498 21.9498 30.5125 21.9219C30.661 21.5153 30.817 21.1109 30.9407 20.6957C30.9506 20.692 30.9605 20.6887 30.9671 20.7003C30.9698 20.705 30.9661 20.7116 30.9615 20.7179H30.9612Z" fill="#F8F2EA"/>
<path d="M31.188 11.8835C31.31 12.2643 31.4274 12.6464 31.4396 13.05C31.3556 12.6613 31.272 12.2726 31.188 11.8835Z" fill="#F8F2EA"/>
<path d="M15.3363 1.1688C15.6219 1.14091 15.9063 1.09577 16.1933 1.08813C16.1946 1.10407 16.1962 1.11967 16.1976 1.1356C15.9195 1.15618 15.6414 1.17677 15.363 1.19735C15.3366 1.20432 15.329 1.19336 15.3359 1.16847L15.3363 1.1688Z" fill="#F8F2EA"/>
<path d="M1.17995 15.9957V16.7801C1.16606 16.7801 1.15218 16.7795 1.13829 16.7791C1.07944 16.497 1.18259 16.2201 1.17995 15.9957Z" fill="#F8F2EA"/>
<path d="M1.99379 11.2043C1.94155 11.3471 1.88798 11.4898 1.8374 11.6332C1.82417 11.6707 1.8083 11.7009 1.76466 11.6833C1.70845 11.6604 1.7511 11.6279 1.76366 11.602C1.82814 11.4685 1.89427 11.3364 1.96006 11.2037C1.97163 11.1927 1.98288 11.193 1.99412 11.2046L1.99379 11.2043Z" fill="#F8F2EA"/>
<path d="M12.8703 1.45035C12.6164 1.51375 12.3628 1.57715 12.1089 1.64089C12.338 1.51242 12.5906 1.46794 12.8432 1.4228C12.869 1.4155 12.8766 1.42612 12.8703 1.45068V1.45035Z" fill="#F8F2EA"/>
<path d="M1.75491 20.1135C1.63324 19.8672 1.59885 19.5963 1.56348 19.3254C1.62729 19.588 1.6911 19.8509 1.75491 20.1135Z" fill="#F8F2EA"/>
<path d="M4.36593 7.18042C4.37518 7.19005 4.38444 7.2 4.3937 7.20963C4.27765 7.36996 4.16159 7.53063 4.04554 7.69096C4.03562 7.68432 4.02603 7.67768 4.01611 7.67104C4.1282 7.50473 4.23466 7.33444 4.36593 7.18042Z" fill="#F8F2EA"/>
<path d="M6.47656 27.5104C6.63196 27.6342 6.78736 27.758 6.94276 27.8818C6.69974 27.7693 6.5493 27.6488 6.47656 27.5104Z" fill="#F8F2EA"/>
<path d="M18.5746 0.936512C18.3981 0.923234 18.2212 0.909624 18.0317 0.89535C18.2265 0.79311 18.3997 0.913275 18.5779 0.903981C18.5766 0.914603 18.5756 0.925558 18.5743 0.93618L18.5746 0.936512Z" fill="#F8F2EA"/>
<path d="M21.814 2.26465C22.018 2.29087 22.1949 2.36954 22.3559 2.48772C22.1753 2.41336 21.9945 2.339 21.814 2.26465Z" fill="#F8F2EA"/>
<path d="M12.1666 1.87459C12.1564 1.86497 12.1465 1.85501 12.1362 1.84538C12.2844 1.777 12.4427 1.74746 12.5985 1.70862C12.6018 1.71924 12.6051 1.72986 12.6084 1.74049C12.4609 1.7853 12.3138 1.82978 12.1663 1.87459H12.1666Z" fill="#F8F2EA"/>
<path d="M19.4705 30.7554C19.5964 30.7179 19.7224 30.6801 19.8484 30.6426C19.7733 30.7734 19.6351 30.7435 19.525 30.784C19.4979 30.7913 19.4672 30.8062 19.4705 30.7554Z" fill="#F8F2EA"/>
<path d="M17.0317 31.3162C17.2338 31.3125 17.4331 31.2551 17.6371 31.2936C17.4351 31.2973 17.2364 31.3633 17.0317 31.3162Z" fill="#F8F2EA"/>
<path d="M6.02197 26.7074C6.1367 26.8156 6.25176 26.9242 6.36649 27.0324C6.35922 27.04 6.35162 27.048 6.34434 27.0556C6.21738 26.9597 6.10628 26.8475 6.02197 26.7074Z" fill="#F8F2EA"/>
<path d="M6.71386 27.3726C6.59186 27.2886 6.48142 27.192 6.38818 27.0762C6.51581 27.1529 6.62723 27.2491 6.73237 27.3534C6.73502 27.368 6.72874 27.3746 6.71386 27.3726Z" fill="#F8F2EA"/>
<path d="M2.42247 22.3017C2.3418 22.1693 2.2889 22.0262 2.26807 21.8699C2.32626 22.008 2.38445 22.1464 2.44264 22.2845C2.44264 22.2981 2.43603 22.3037 2.4228 22.3021L2.42247 22.3017Z" fill="#F8F2EA"/>
<path d="M25.6249 4.70942C25.6147 4.71971 25.6044 4.73 25.5942 4.74029C25.5151 4.66792 25.4361 4.59556 25.3574 4.52319C25.4669 4.55938 25.5512 4.62743 25.6252 4.70942H25.6249Z" fill="#F8F2EA"/>
<path d="M28.4497 7.91711C28.458 7.90881 28.4666 7.90051 28.4748 7.89221C28.5611 7.98848 28.6203 8.10068 28.6616 8.22549C28.5909 8.12258 28.5205 8.01968 28.4497 7.91711Z" fill="#F8F2EA"/>
<path d="M12.8704 1.45039C12.8614 1.44109 12.8522 1.4318 12.8433 1.42251C12.9712 1.38002 13.1012 1.34748 13.2367 1.34583C13.2397 1.34914 13.2423 1.3528 13.2453 1.35612C13.1253 1.4079 12.9963 1.42251 12.8704 1.45006V1.45039Z" fill="#F8F2EA"/>
<path d="M8.63037 28.7006C8.72493 28.756 8.81982 28.8114 8.91439 28.8665C8.79966 28.8479 8.70311 28.7942 8.63037 28.7006Z" fill="#F8F2EA"/>
<path d="M19.4709 30.7555C19.4775 30.7874 19.5072 30.7744 19.5254 30.784C19.4123 30.8106 19.2996 30.8375 19.1865 30.864C19.2731 30.801 19.371 30.7751 19.4709 30.7555Z" fill="#F8F2EA"/>
<path d="M31.6356 15.0171C31.6266 15.0264 31.6177 15.0353 31.6084 15.0446C31.5734 14.948 31.583 14.8494 31.6068 14.7495L31.6356 15.0171Z" fill="#F8F2EA"/>
<path d="M7.11573 27.6896C7.02844 27.6375 6.94546 27.5798 6.87602 27.5047C6.87536 27.4918 6.88197 27.4871 6.89421 27.4901C6.98083 27.528 7.04233 27.5993 7.11507 27.6558C7.12664 27.6667 7.12697 27.678 7.11573 27.6896Z" fill="#F8F2EA"/>
<path d="M10.0507 2.64206C10.0599 2.65135 10.0689 2.66098 10.0781 2.67027C10.0084 2.71907 9.93099 2.74961 9.84668 2.76288C9.90652 2.70745 9.97397 2.66695 10.0504 2.64172L10.0507 2.64206Z" fill="#F8F2EA"/>
<path d="M15.3361 1.16895C15.345 1.17857 15.3543 1.1882 15.3632 1.19782C15.2763 1.24231 15.1857 1.22073 15.0938 1.20015C15.1744 1.18986 15.2554 1.17924 15.3361 1.16895Z" fill="#F8F2EA"/>
<path d="M1.99353 11.2043C1.98229 11.2043 1.97071 11.2036 1.95947 11.2033C1.99287 11.1293 2.02626 11.0553 2.05966 10.9816C2.05734 11.0639 2.04412 11.1409 1.99353 11.2043Z" fill="#F8F2EA"/>
<path d="M2.55029 9.77597C2.5903 9.69398 2.63031 9.61165 2.67031 9.52966C2.68023 9.53431 2.69048 9.53896 2.7004 9.54361C2.66238 9.62659 2.63857 9.71622 2.55029 9.77597Z" fill="#F8F2EA"/>
<path d="M30.7289 12.2273C30.7094 12.149 30.6899 12.0706 30.6704 11.9923C30.7276 12.0504 30.7521 12.1194 30.7531 12.1965C30.7656 12.223 30.7531 12.23 30.7286 12.2273H30.7289Z" fill="#F8F2EA"/>
<path d="M30.5117 21.9221C30.5193 21.9311 30.5269 21.9404 30.5345 21.9493C30.5101 22.0187 30.4826 22.0864 30.4165 22.1601C30.441 22.0619 30.4704 21.9898 30.5117 21.9221Z" fill="#F8F2EA"/>
<path d="M4.44503 6.34155C4.45429 6.35085 4.46387 6.36047 4.47313 6.36977C4.44172 6.44147 4.38485 6.49226 4.32666 6.54338C4.35014 6.46637 4.38783 6.39832 4.44503 6.34155Z" fill="#F8F2EA"/>
<path d="M2.44171 22.2844C2.48337 22.3575 2.52272 22.4308 2.53132 22.5178C2.48106 22.4527 2.44006 22.3833 2.42188 22.302C2.42849 22.296 2.4351 22.2904 2.44171 22.2844Z" fill="#F8F2EA"/>
<path d="M7.1159 27.6898C7.1159 27.6784 7.11557 27.667 7.11523 27.6556C7.1813 27.6938 7.24169 27.739 7.2874 27.804C7.22367 27.7762 7.15961 27.7494 7.1159 27.6901V27.6898Z" fill="#F8F2EA"/>
<path d="M30.5181 11.359C30.4672 11.3029 30.4292 11.2422 30.4427 11.137C30.4741 11.2296 30.4963 11.2943 30.5181 11.359Z" fill="#F8F2EA"/>
<path d="M30.729 12.2274C30.7373 12.2171 30.7452 12.2068 30.7535 12.1965C30.7865 12.2583 30.7961 12.325 30.7859 12.3967C30.767 12.3403 30.7479 12.2838 30.729 12.2274Z" fill="#F8F2EA"/>
<path d="M31.0892 20.2171C31.0978 20.2207 31.1061 20.22 31.1143 20.2161C31.0955 20.2765 31.0766 20.3372 31.0465 20.4338C31.036 20.3293 31.0532 20.2712 31.0892 20.2174V20.2171Z" fill="#F8F2EA"/>
<path d="M13.2368 1.34612C13.3056 1.31126 13.3777 1.29599 13.4818 1.30828C13.3856 1.32786 13.3198 1.36139 13.2454 1.35641C13.2424 1.35309 13.2398 1.34944 13.2368 1.34612Z" fill="#F8F2EA"/>
<path d="M6.87754 27.506C6.82282 27.4615 6.7681 27.4173 6.71338 27.3727C6.71972 27.3663 6.72572 27.3596 6.73206 27.3533C6.79446 27.3901 6.84951 27.4357 6.89589 27.4913C6.88788 27.4936 6.88187 27.4987 6.87754 27.506Z" fill="#F8F2EA"/>
<path d="M30.9613 20.718C30.9543 20.7107 30.9474 20.703 30.9404 20.6957C30.957 20.638 30.9735 20.5802 30.99 20.5225C30.999 20.5915 31.0016 20.6589 30.9609 20.718H30.9613Z" fill="#F8F2EA"/>
</g>
<path d="M24.1243 19.6001C23.251 19.6039 22.4923 19.4719 21.7259 19.3993C20.9596 19.3267 20.1932 19.252 19.4247 19.2058C18.8547 19.1753 18.2833 19.1812 17.714 19.2234C17.4843 19.2466 17.2585 19.3002 17.0427 19.3828C16.4259 19.5924 15.8031 19.6754 15.1688 19.4587C15.1651 19.4581 15.1615 19.4572 15.1579 19.456C14.7758 19.2421 14.3512 19.2591 13.9347 19.2283C12.9904 19.1596 12.0597 19.2833 11.1302 19.423C10.1357 19.5748 9.15589 19.8041 8.16629 19.9828C7.79291 20.0539 7.41156 20.0724 7.03313 20.0378C6.78969 20.0136 6.66524 19.9152 6.59647 19.6798C6.58337 19.6326 6.55369 19.5917 6.51295 19.5649C6.35575 19.4483 6.24003 19.3031 6.25313 19.0908C6.25617 19.0727 6.25439 19.0541 6.24796 19.0369C6.24154 19.0197 6.2307 19.0045 6.21656 18.9929C6.21141 18.9876 6.20667 18.9819 6.20237 18.9759C6.15161 18.9209 6.09921 18.8538 6.10085 18.7823C6.1063 18.5101 5.87269 18.305 5.89507 18.036C5.91144 17.8381 6.00969 17.661 6.10139 17.4861C6.5064 16.7233 6.92015 15.9672 7.38192 15.2363C7.627 14.8469 7.88846 14.4708 8.16138 14.1018C8.1974 14.0487 8.24347 14.0033 8.29696 13.9682C8.35044 13.9331 8.41029 13.9089 8.47305 13.8972C8.92391 13.8114 9.3251 13.5958 9.72574 13.3841C10.2787 13.0926 10.8371 12.8105 11.4631 12.7242C12.3599 12.601 13.2404 12.6631 14.0897 13.0123C14.4854 13.1773 14.8823 13.3335 15.2616 13.5337C15.4674 13.6437 15.6835 13.7498 15.9166 13.7658C16.2248 13.7922 16.5324 13.7091 16.7861 13.5309C16.9788 13.394 17.1682 13.256 17.3729 13.1333C17.9335 12.7935 18.5372 12.5713 19.1971 12.5713C20.3466 12.5713 21.4072 12.8809 22.3509 13.5612C22.6462 13.774 22.9786 13.9164 23.3094 14.0622C23.5791 14.181 23.8525 14.2909 24.1233 14.4081C24.234 14.459 24.3506 14.496 24.4704 14.5181C24.5045 14.5225 24.5366 14.537 24.5626 14.5597C24.5886 14.5824 24.6074 14.6123 24.6167 14.6457C24.8552 15.2412 25.0272 15.861 25.2509 16.4605C25.4414 16.9725 25.5714 17.502 25.7084 18.03C25.7498 18.1895 25.7045 18.2918 25.5845 18.3721C25.5532 18.3901 25.5287 18.418 25.5147 18.4516C25.5008 18.4851 25.4983 18.5223 25.5075 18.5574C25.5304 18.6784 25.5304 18.8026 25.5075 18.9236C25.4672 19.0963 25.3738 19.2516 25.2405 19.3675C25.1073 19.4834 24.9411 19.5538 24.7657 19.5687C24.5184 19.5935 24.2717 19.5918 24.1243 19.6001ZM12.2682 12.7885C12.2017 12.7885 12.1356 12.7852 12.069 12.7885C11.3594 12.8276 10.7044 13.0596 10.0767 13.3901C9.58874 13.6475 9.11386 13.9401 8.56584 14.055C8.52536 14.0636 8.48703 14.0803 8.45316 14.1042C8.41929 14.1282 8.39059 14.1587 8.36879 14.1942C8.17448 14.4691 7.98671 14.7485 7.79021 15.0224C7.30764 15.7012 6.86265 16.4064 6.45728 17.1347C6.32191 17.3767 6.17181 17.6115 6.07901 17.8755C5.98622 18.1394 6.03808 18.3154 6.25368 18.4732C6.26594 18.4803 6.27523 18.4916 6.27985 18.5051C6.28446 18.5185 6.28409 18.5332 6.27879 18.5464C6.26913 18.5943 6.27284 18.644 6.28951 18.6899C6.30618 18.7358 6.33516 18.7762 6.37322 18.8065C6.39473 18.8222 6.41 18.8451 6.4163 18.8711C6.4226 18.8971 6.41952 18.9245 6.40761 18.9484C6.38993 19.002 6.38331 19.0586 6.38816 19.1149C6.39301 19.1711 6.40922 19.2258 6.4358 19.2755C6.46239 19.3252 6.49878 19.3689 6.54274 19.4039C6.5867 19.4389 6.6373 19.4645 6.69144 19.4791C6.73456 19.4912 6.7362 19.5159 6.75039 19.5445C6.77714 19.5995 6.79297 19.6743 6.86775 19.6793C6.9443 19.6892 7.02146 19.6936 7.09863 19.6925C7.56478 19.6573 8.02655 19.594 8.49106 19.5308C9.34802 19.4136 10.2077 19.3108 11.0663 19.2074C11.9249 19.104 12.795 18.9671 13.6667 18.9115C14.0193 18.889 14.3724 18.8747 14.725 18.8565C14.7485 18.8509 14.7732 18.8532 14.7952 18.8631C14.8172 18.8731 14.8354 18.8901 14.8468 18.9115C14.9729 19.1475 15.1879 19.258 15.4346 19.3003C15.8451 19.3702 16.2496 19.3064 16.6464 19.1981C16.8494 19.1431 17.0634 19.1013 17.2157 18.9302C17.2284 18.9194 17.2433 18.9115 17.2593 18.9071C17.2753 18.9026 17.2921 18.9017 17.3085 18.9044C17.8347 18.9258 18.3609 18.9445 18.8865 18.9676C19.4826 18.994 20.0764 19.0556 20.6708 19.0996C21.4235 19.1546 22.1763 19.2096 22.9284 19.2723C23.4863 19.3196 24.0457 19.3421 24.6052 19.3432C24.9142 19.3432 25.2089 19.2718 25.3448 18.9291C25.3994 18.7922 25.3907 18.6514 25.3825 18.5117C25.3796 18.4849 25.3822 18.4578 25.3902 18.4321C25.3982 18.4063 25.4113 18.3825 25.4289 18.3622C25.5179 18.2522 25.6003 18.1306 25.5533 17.9772C25.4775 17.7402 25.4273 17.4971 25.3683 17.2551C25.1698 16.4682 24.9099 15.6983 24.591 14.9525C24.5042 14.7485 24.4224 14.6226 24.1833 14.572C23.5687 14.4378 23.0294 14.1183 22.5027 13.7823C22.0862 13.5166 21.6752 13.2428 21.2096 13.0673C20.4067 12.7643 19.5912 12.651 18.7402 12.8298C17.8511 13.0162 17.0836 13.4457 16.3566 13.9709C16.2729 14.0359 16.1729 14.0761 16.0678 14.0869C15.9627 14.0978 15.8566 14.079 15.7616 14.0325C15.302 13.807 14.8435 13.5777 14.397 13.3253C13.7333 12.9491 13.0215 12.7902 12.2682 12.7885Z" fill="#F8F2EA"/>
<path d="M7.39926 13.1228C7.03409 13.1228 6.79884 12.8561 6.74425 12.5333C6.72955 12.4442 6.74215 12.3528 6.78038 12.2711C6.81861 12.1895 6.88065 12.1215 6.95822 12.0763C7.18038 11.9306 7.41836 11.8855 7.66781 12.0213C7.73385 12.0576 7.80427 12.1027 7.82282 12.1736C7.87413 12.3716 7.94564 12.5691 7.87741 12.7786C7.79226 13.0261 7.66071 13.1234 7.39926 13.1228ZM7.10068 12.2935C7.14108 12.2143 7.23823 12.2253 7.31192 12.1698C7.24397 12.1633 7.17597 12.1817 7.12033 12.2215C7.09686 12.2341 7.05702 12.2561 7.10068 12.2935L7.09031 12.2754L7.08267 12.2831L7.10068 12.2935ZM7.39544 12.343C7.23169 12.343 7.12688 12.4145 7.12852 12.5245C7.12852 12.7071 7.26225 12.8627 7.4129 12.8605C7.56355 12.8583 7.70984 12.6785 7.70875 12.5113C7.70765 12.4222 7.55973 12.343 7.39544 12.343Z" fill="#181818"/>
<path d="M10.8309 23.3094C10.8394 23.4132 10.8231 23.5174 10.7834 23.6135C10.6464 23.9435 10.3784 24.0408 10.0673 23.8748C9.93838 23.8042 9.83675 23.692 9.77865 23.5563C9.72056 23.4206 9.70936 23.2692 9.74686 23.1263C9.82054 22.8541 10.0389 22.7771 10.2747 22.7413C10.6562 22.6863 10.8363 22.8689 10.8309 23.3094ZM9.93681 23.2676C9.9046 23.2891 9.90624 23.3061 9.94336 23.3182L9.95209 23.3595C9.91879 23.4288 9.96737 23.4694 10.0007 23.5156C9.99089 23.4627 9.98595 23.4089 9.98593 23.3551C9.98593 23.2247 10.0689 23.1351 10.1371 23.0251C9.98757 23.0746 9.94008 23.1334 9.93681 23.2676ZM10.606 23.3226C10.606 23.1472 10.5465 23.068 10.4155 23.068C10.3323 23.072 10.2532 23.1058 10.1925 23.1634C10.1318 23.221 10.0936 23.2985 10.0847 23.382C10.0809 23.5101 10.2518 23.657 10.3991 23.657C10.5214 23.6537 10.6065 23.5145 10.606 23.3237V23.3226Z" fill="#181818"/>
<path d="M20.7605 9.4201C20.7742 9.84521 20.5002 10.0954 20.1383 10.025C20.0446 10.0024 19.9604 9.95034 19.8979 9.87642C19.8354 9.8025 19.7978 9.7105 19.7906 9.61368C19.7655 9.39371 19.8615 9.20838 20.0422 9.12863C20.2127 9.05383 20.4056 9.04949 20.5793 9.11654C20.7447 9.17098 20.7687 9.30572 20.7605 9.4201ZM20.5853 9.49159C20.5853 9.33101 20.5029 9.24907 20.3402 9.24907C20.1978 9.24907 20.0935 9.36841 20.093 9.53064C20.093 9.67692 20.1923 9.79076 20.3211 9.79076C20.4499 9.79076 20.5853 9.64558 20.5853 9.49159ZM20.0285 9.37061C19.9401 9.44045 19.9587 9.51909 20.0084 9.62193C20.0013 9.53761 20.0082 9.45269 20.0285 9.37061Z" fill="#181818"/>
<path d="M11.8713 21.3032C11.8713 21.5149 11.724 21.6832 11.5357 21.6827C11.3632 21.6827 11.1945 21.5358 11.1929 21.3852C11.1929 21.2064 11.4019 20.9749 11.57 20.9826C11.6939 20.9887 11.879 21.0942 11.8713 21.3032ZM11.6677 21.3032C11.6394 21.273 11.6803 21.1894 11.6022 21.1932C11.5242 21.1971 11.4521 21.2345 11.4423 21.3065C11.4325 21.3786 11.5122 21.4083 11.5739 21.4132C11.6355 21.4182 11.6612 21.3698 11.6677 21.3049V21.3032Z" fill="#181818"/>
<path d="M19.7651 23.4947C19.7651 23.2924 19.8607 23.1895 20.0479 23.189C20.2351 23.1884 20.3585 23.3061 20.3574 23.5013C20.3563 23.6966 20.2176 23.8494 20.0441 23.8511C19.8705 23.8527 19.7646 23.7103 19.7651 23.4947ZM20.1849 23.4991C20.1903 23.3957 20.1303 23.3798 20.0637 23.3798C19.9971 23.3798 19.936 23.3974 19.9283 23.4782C19.9223 23.547 20.0064 23.6537 20.0632 23.6432C20.0966 23.6369 20.1267 23.619 20.1485 23.5927C20.1703 23.5665 20.1824 23.5334 20.1827 23.4991H20.1849Z" fill="#181818"/>
<path d="M23.363 12.3684C23.5349 12.3684 23.6359 12.4432 23.6359 12.573C23.6359 12.7633 23.4754 12.9497 23.3144 12.948C23.1807 12.948 23.0595 12.7979 23.0601 12.6368C23.0601 12.4613 23.1649 12.369 23.363 12.3684ZM23.3455 12.661C23.3756 12.6527 23.4323 12.661 23.4345 12.5911C23.4367 12.5213 23.3854 12.5224 23.3439 12.5246C23.3024 12.5268 23.2424 12.5405 23.2385 12.5994C23.2347 12.6582 23.2855 12.6626 23.3455 12.661Z" fill="#181818"/>
<path d="M8.6327 11.2283C8.55885 11.2239 8.48937 11.1916 8.43808 11.1379C8.3868 11.0842 8.35747 11.013 8.35596 10.9385C8.35596 10.8065 8.48423 10.7185 8.67309 10.7213C8.81828 10.7213 8.90725 10.8098 8.90561 10.9462C8.90343 11.1189 8.79808 11.2277 8.6327 11.2283ZM8.62505 10.8708C8.58412 10.8972 8.4946 10.8708 8.5006 10.9544C8.50261 10.9701 8.5077 10.9852 8.51556 10.9989C8.52342 11.0126 8.5339 11.0246 8.54639 11.0341C8.55889 11.0437 8.57314 11.0507 8.58833 11.0547C8.60352 11.0586 8.61934 11.0595 8.63488 11.0573C8.69656 11.054 8.75933 11.0248 8.75442 10.9555C8.7495 10.895 8.68783 10.8758 8.62505 10.8708Z" fill="#181818"/>
<path d="M19.9429 6.96463C19.9456 6.88604 19.9784 6.81156 20.0345 6.75689C20.0906 6.70221 20.1656 6.6716 20.2436 6.67151C20.308 6.676 20.3686 6.7038 20.4143 6.74979C20.4599 6.79578 20.4875 6.85685 20.492 6.92173C20.4903 7.00395 20.4565 7.08219 20.398 7.13952C20.3394 7.19684 20.2608 7.22864 20.1792 7.22805C20.1155 7.21886 20.057 7.18748 20.0138 7.13937C19.9706 7.09125 19.9455 7.02943 19.9429 6.96463ZM20.3528 6.93878C20.3483 6.89979 20.3297 6.86383 20.3006 6.83768C20.2716 6.81154 20.234 6.79703 20.195 6.79689C20.1746 6.79756 20.1545 6.80243 20.136 6.8112C20.1175 6.81998 20.1009 6.83248 20.0874 6.84793C20.0738 6.86338 20.0636 6.88146 20.0572 6.90105C20.0508 6.92065 20.0485 6.94135 20.0504 6.96188C20.0504 7.05757 20.1077 7.10376 20.2207 7.10266C20.2401 7.10074 20.2589 7.09496 20.2761 7.08567C20.2932 7.07637 20.3084 7.06373 20.3207 7.04849C20.333 7.03325 20.3421 7.01571 20.3476 6.99688C20.3532 6.97804 20.3549 6.9583 20.3528 6.93878Z" fill="#181818"/>
<path d="M12.2685 12.7885C13.0212 12.7885 13.733 12.9491 14.3973 13.3252C14.8421 13.5777 15.3006 13.807 15.7618 14.0325C15.857 14.0791 15.9631 14.098 16.0683 14.0871C16.1735 14.0762 16.2736 14.036 16.3574 13.9709C17.0844 13.4457 17.8518 13.0162 18.741 12.8297C19.592 12.651 20.4075 12.7643 21.2104 13.0673C21.676 13.2439 22.087 13.5177 22.5035 13.7822C23.0302 14.1183 23.5695 14.4378 24.1841 14.572C24.4232 14.627 24.505 14.7485 24.5918 14.9525C24.9105 15.6983 25.1702 16.4682 25.3686 17.2551C25.4291 17.496 25.4777 17.7391 25.553 17.9766C25.6 18.129 25.5176 18.2516 25.4286 18.3616C25.4111 18.382 25.3979 18.4058 25.3899 18.4315C25.3819 18.4572 25.3793 18.4844 25.3822 18.5112C25.3904 18.6509 25.3986 18.7916 25.3445 18.9286C25.2048 19.2712 24.9122 19.3449 24.6044 19.3449C24.0449 19.3449 23.4854 19.3212 22.9276 19.2739C22.1754 19.2112 21.4227 19.1579 20.67 19.1013C20.0756 19.0573 19.4817 18.9957 18.8857 18.9693C18.36 18.9462 17.8338 18.9275 17.3076 18.906C17.2912 18.9033 17.2745 18.9043 17.2584 18.9087C17.2424 18.9132 17.2276 18.9211 17.2149 18.9319C17.0626 19.1029 16.8486 19.1442 16.6456 19.1997C16.2487 19.3097 15.8443 19.3718 15.4338 19.302C15.1871 19.2596 14.972 19.1491 14.8459 18.9132C14.8345 18.8917 14.8164 18.8747 14.7944 18.8648C14.7724 18.8548 14.7477 18.8525 14.7242 18.8582C14.3716 18.8758 14.0184 18.8901 13.6658 18.9132C12.7925 18.9682 11.9312 19.1029 11.0655 19.209C10.1998 19.3152 9.34718 19.4153 8.49022 19.5324C8.02681 19.5957 7.5623 19.6589 7.09779 19.6941C7.02062 19.6952 6.94346 19.6908 6.8669 19.6809C6.79213 19.6759 6.7763 19.6017 6.74955 19.5462C6.73536 19.5176 6.73372 19.4912 6.6906 19.4807C6.63646 19.4661 6.58586 19.4405 6.5419 19.4055C6.49794 19.3705 6.46155 19.3268 6.43496 19.2771C6.40838 19.2274 6.39217 19.1728 6.38732 19.1165C6.38247 19.0603 6.38909 19.0036 6.40677 18.95C6.41868 18.9261 6.42176 18.8987 6.41546 18.8727C6.40916 18.8467 6.39389 18.8238 6.37238 18.8081C6.3349 18.7775 6.30651 18.7371 6.29034 18.6913C6.27416 18.6455 6.27082 18.5961 6.28068 18.5486C6.28598 18.5354 6.28635 18.5207 6.28174 18.5073C6.27712 18.4938 6.26782 18.4825 6.25557 18.4754C6.03996 18.3198 5.98866 18.1389 6.0809 17.8776C6.17315 17.6164 6.3238 17.3788 6.45917 17.1369C6.86467 16.408 7.30984 15.7023 7.79264 15.0229C7.98805 14.7479 8.17473 14.4697 8.37123 14.1947C8.39302 14.1593 8.42172 14.1287 8.45559 14.1048C8.48946 14.0809 8.5278 14.0641 8.56827 14.0556C9.11411 13.9384 9.59117 13.6481 10.0791 13.3907C10.7052 13.0607 11.3597 12.8281 12.0714 12.7891C12.1364 12.7852 12.2024 12.7885 12.2685 12.7885ZM6.5918 18.6388L6.56506 18.6294C6.56506 18.6184 6.56506 18.6041 6.55578 18.5981C6.52685 18.5733 6.55578 18.5079 6.49628 18.5079C6.487 18.5079 6.47117 18.5238 6.46844 18.5354C6.45534 18.5843 6.49628 18.6052 6.52303 18.6333C6.53171 18.6397 6.54104 18.6452 6.55087 18.6498C6.56997 18.6619 6.58798 18.6712 6.59126 18.636C6.58384 18.6417 6.5769 18.6479 6.57052 18.6547C6.57052 18.6547 6.57761 18.6641 6.58198 18.669C6.58744 18.6586 6.5918 18.6481 6.5918 18.6388ZM15.4835 17.9343L15.4529 17.9183C14.8388 17.4839 14.2231 17.0533 13.4595 16.9246C13.8831 17.0703 14.2911 17.2586 14.6773 17.4866C14.9294 17.639 15.186 17.7831 15.4414 17.9304L15.4747 17.942C15.478 17.9656 15.496 17.9651 15.5129 17.9651C15.5129 17.9651 15.5184 17.9552 15.5217 17.9497L15.4835 17.9343ZM6.3953 18.6712L6.42532 18.6943C6.43351 18.6762 6.43351 18.6608 6.41386 18.6503L6.40185 18.4798C6.34945 18.5629 6.35873 18.6173 6.3953 18.6712ZM21.7235 17.838C22.1241 17.9348 22.5291 18.0146 22.9281 18.129C22.8355 18.0628 22.7357 18.0074 22.6306 17.964C21.9265 17.6538 21.2207 17.3464 20.4588 17.2001C20.1711 17.136 19.8773 17.1034 19.5827 17.1028C18.738 17.1302 17.9058 17.3168 17.1292 17.6527C16.8759 17.76 16.6095 17.8452 16.4005 18.0377C16.3792 18.058 16.3208 18.0745 16.3623 18.118C16.3934 18.1499 16.4234 18.1983 16.4911 18.1598C16.8366 17.9634 17.2149 17.8529 17.5931 17.7435C17.9899 17.628 18.3944 17.5345 18.8071 17.5235C19.3382 17.5114 19.8507 17.6406 20.3561 17.7941C20.5059 17.8369 20.652 17.8921 20.7928 17.959C20.7701 17.9612 20.7473 17.9612 20.7246 17.959C20.3114 17.8493 19.8874 17.7856 19.4604 17.7693C18.9112 17.7452 18.3611 17.7901 17.8229 17.9029C17.4152 17.9827 17.0074 18.0679 16.6221 18.2302C16.5899 18.2439 16.5047 18.2302 16.5397 18.3104C16.5746 18.3907 16.6155 18.3137 16.6445 18.3011C16.9642 18.1679 17.2955 18.0648 17.6341 17.9931C17.6808 17.9837 17.7286 17.9816 17.776 17.9871C17.7929 17.9877 17.8091 17.994 17.8221 18.0049C17.835 18.0159 17.844 18.0309 17.8475 18.0476C17.8562 18.0938 17.8164 18.1026 17.788 18.113C17.7212 18.1337 17.6532 18.15 17.5844 18.162C17.2744 18.2098 16.9665 18.2637 16.6821 18.4067C16.6548 18.4204 16.6161 18.4193 16.609 18.4617C16.6461 18.4958 16.6783 18.4655 16.7111 18.4551C17.139 18.3198 17.5669 18.1801 18.0211 18.1444C18.8742 18.0806 19.7208 18.1603 20.5636 18.289C21.0947 18.3704 21.6127 18.5194 22.1399 18.6239C22.8048 18.7559 23.4696 18.8351 24.1464 18.7416C24.3102 18.7191 24.4794 18.7015 24.6453 18.6817C24.6029 18.6596 24.5568 18.6454 24.5094 18.6399C24.1071 18.5689 23.7174 18.4435 23.3173 18.3577C22.7676 18.2401 22.2256 18.0916 21.7098 17.8567L21.7235 17.838ZM10.6108 17.7314V17.7611C10.0693 17.8622 9.5737 18.0828 9.09173 18.344C8.6638 18.5755 8.22767 18.7911 7.7528 18.9088C7.40943 19.0033 7.053 19.0405 6.6977 19.0188C6.69648 19.0292 6.69894 19.0396 6.70462 19.0484C6.71031 19.0571 6.71887 19.0636 6.72881 19.0666C6.86425 19.1265 7.01307 19.1491 7.16002 19.1321C7.5421 19.1068 7.89853 18.9715 8.24841 18.8241C9.07809 18.4749 9.91922 18.1669 10.8138 18.0184C11.5082 17.8972 12.2182 17.8972 12.9126 18.0184C13.6707 18.1543 14.3967 18.4149 15.1407 18.6047C15.264 18.636 15.2204 18.5293 15.2569 18.4908C15.3055 18.4397 15.252 18.4237 15.2155 18.4122C14.8634 18.3022 14.5299 18.1444 14.1784 18.0272C13.769 17.8925 13.3509 17.7913 12.9377 17.6709C12.739 17.6131 12.5414 17.5526 12.3214 17.4861C12.3859 17.4642 12.4554 17.4629 12.5207 17.4822C12.9442 17.5776 13.3627 17.6932 13.7761 17.8292C14.2821 17.9942 14.805 18.1119 15.2853 18.3539C15.305 18.3638 15.3284 18.3786 15.3399 18.3539C15.3601 18.3154 15.3197 18.3126 15.3006 18.3038C14.7269 18.0289 14.1254 17.8364 13.5195 17.6533C13.3192 17.5922 13.1107 17.5598 12.9153 17.48C12.8787 17.4652 12.8258 17.4558 12.8318 17.4063C12.837 17.3825 12.8497 17.3611 12.868 17.3451C12.8863 17.3292 12.9092 17.3196 12.9333 17.3178C12.9921 17.312 13.0515 17.3159 13.1091 17.3294C13.4912 17.3893 13.8531 17.5306 14.2133 17.672C14.6036 17.8254 15.0009 17.9645 15.3656 18.1763C15.4616 18.2313 15.5119 18.2032 15.5741 18.1339C15.4562 18.0817 15.3443 18.0344 15.2346 17.9832C15.1249 17.9321 15.0162 17.8782 14.9071 17.8221C13.912 17.3052 12.876 16.9609 11.7358 17.017C11.2068 17.0428 10.6878 17.1039 10.1834 17.2716C9.73964 17.4195 9.31007 17.6104 8.8734 17.7743C8.4149 17.9453 7.97222 18.1592 7.49898 18.2906C7.26482 18.3642 7.02684 18.4247 6.78612 18.4721C6.80611 18.514 6.83942 18.548 6.88076 18.5686C6.9221 18.5892 6.9691 18.5953 7.01428 18.586C7.16056 18.5695 7.30685 18.5524 7.45095 18.531C7.80247 18.476 8.12451 18.3253 8.4602 18.2197C9.16324 17.997 9.8761 17.8133 10.6108 17.7314ZM16.1554 18.0168C16.1963 17.9805 16.2378 17.9453 16.2782 17.9068C16.5462 17.6626 16.8137 17.4179 17.1357 17.2469C17.9108 16.8317 18.7547 16.687 19.616 16.6518C20.3982 16.6194 21.1367 16.8262 21.8446 17.1583C22.1601 17.3063 22.4773 17.4553 22.819 17.5405C23.1153 17.6142 23.4106 17.6945 23.6999 17.7919C24.1783 17.9551 24.6813 18.0327 25.1862 18.0212C25.2676 18.0212 25.2823 17.9975 25.2638 17.926C25.2135 17.7402 25.1648 17.5537 25.1175 17.3667C24.9106 16.5512 24.7157 15.7318 24.3375 14.9723C24.3264 14.9462 24.3099 14.9228 24.289 14.9038C24.268 14.8848 24.2432 14.8706 24.2163 14.8623C23.9434 14.7661 23.6524 14.7177 23.3943 14.5764C23.0902 14.4114 22.7862 14.2464 22.4969 14.0523C22.1169 13.7977 21.7199 13.5701 21.3086 13.3709C20.7524 13.1069 20.1482 13.047 19.5439 13.0184C18.4474 12.9667 17.5058 13.3665 16.6739 14.0578C16.3923 14.2915 16.2296 14.5643 16.2482 14.9745C16.2815 15.7268 16.2187 16.4813 16.2149 17.2353C16.2138 17.4932 16.2362 17.7567 16.1554 18.0168ZM15.5599 17.8402C15.5664 17.7979 15.5713 17.7732 15.5735 17.7479C15.621 17.1935 15.6625 16.6381 15.7176 16.0843C15.7648 15.5625 15.7578 15.0373 15.6969 14.517C15.6723 14.2887 15.5806 14.1007 15.3399 14.0011C14.8574 13.8015 14.3869 13.5716 13.9055 13.3692C13.2586 13.0976 12.5802 13.0393 11.8902 13.1163C11.2352 13.1878 10.6425 13.4435 10.0682 13.7553C9.57261 14.0242 9.07536 14.2909 8.50878 14.3811C8.49082 14.3839 8.47368 14.3905 8.45858 14.4007C8.44349 14.4109 8.4308 14.4243 8.42144 14.44C8.26861 14.6627 8.10977 14.8799 7.96021 15.1065C7.48697 15.8214 7.08688 16.5754 6.70479 17.3393C6.63635 17.4667 6.58635 17.6034 6.55632 17.7451C6.5334 17.8688 6.58853 17.9392 6.71353 17.942C6.76439 17.9431 6.8152 17.9378 6.86472 17.926C7.01101 17.8897 7.1562 17.8496 7.30139 17.8089C7.97713 17.6181 8.65943 17.4481 9.32098 17.204C9.76584 17.039 10.1987 16.8427 10.655 16.709C11.1857 16.5527 11.7363 16.4752 12.2892 16.4791C12.8203 16.4819 13.3263 16.632 13.8296 16.7948C14.2848 16.9427 14.7117 17.1402 15.0725 17.469C15.216 17.6016 15.3869 17.7099 15.5599 17.8402ZM13.9333 18.4721C13.698 18.2439 12.0365 18.0938 11.2652 18.2225C10.4465 18.3594 8.99457 18.8153 8.68563 19.0331C8.84392 19.0105 9.00003 18.9863 9.15669 18.9665C9.40832 18.9341 9.66977 18.9374 9.91048 18.8675C10.4165 18.7207 10.9307 18.6168 11.4443 18.5051C12.0634 18.3675 12.7001 18.3282 13.3312 18.3885C13.5294 18.41 13.7259 18.443 13.9333 18.4721ZM18.7836 18.2247C18.699 18.2313 18.6144 18.2351 18.5303 18.245C17.9454 18.3126 17.3657 18.4199 16.7951 18.5662C16.7635 18.5744 16.7138 18.5728 16.7231 18.6124C16.7313 18.63 16.7459 18.6437 16.7638 18.6509C16.7817 18.658 16.8017 18.658 16.8197 18.6509C16.8962 18.6241 16.9758 18.6073 17.0566 18.6008C17.8568 18.487 18.658 18.4243 19.4653 18.5271C20.2295 18.6245 21.0008 18.7114 21.7682 18.8021C21.8228 18.8087 21.9112 18.8103 21.9167 18.7713C21.9254 18.707 21.8435 18.7075 21.7922 18.6965C21.2464 18.5805 20.7006 18.482 20.1547 18.3913C19.7015 18.3077 19.2436 18.252 18.7836 18.2247ZM15.5375 18.9291C15.8606 18.8697 16.1756 18.8136 16.4572 18.6476C16.4883 18.6294 16.5342 18.6245 16.5085 18.5612C16.4441 18.4039 16.2384 18.2505 16.0768 18.2631C15.865 18.2796 15.6674 18.3286 15.5097 18.4947C15.4098 18.5997 15.3492 18.6982 15.4005 18.8488C15.4485 18.9907 15.5522 19.0512 15.6838 19.0787C15.8967 19.1227 16.091 19.0622 16.2777 18.9654C16.3033 18.9522 16.353 18.9407 16.3235 18.8967C16.3011 18.862 16.2717 18.8967 16.2487 18.9104C16.0866 18.9999 15.9006 19.0357 15.7171 19.0127C15.6829 19.0131 15.649 19.0059 15.6179 18.9914C15.5868 18.9769 15.5594 18.9557 15.5375 18.9291ZM16.0348 18.003C16.0129 17.4657 16.056 16.9372 16.0637 16.4082C16.0713 15.8792 16.0992 15.3556 16.1183 14.8293C16.0923 14.8669 16.0765 14.9107 16.0724 14.9564C16.0446 15.1659 16.038 15.3776 16.0228 15.5882C15.9682 16.3213 15.9081 17.0533 15.853 17.788C15.8366 18.0074 15.841 18.008 16.0348 18.003ZM19.2907 16.8867C18.9763 16.8146 17.7077 17.0483 17.08 17.4602C17.7819 17.151 18.5284 16.9573 19.2912 16.8867H19.2907ZM24.0766 18.3957C24.2638 18.4408 24.4488 18.4848 24.6644 18.4111C24.451 18.3968 24.2643 18.3742 24.0771 18.3957H24.0766ZM12.9415 18.6426C12.6833 18.6247 12.4239 18.6432 12.1708 18.6976C12.4268 18.7103 12.6806 18.6718 12.9399 18.6426H12.9415ZM16.3863 14.1298C16.246 14.1513 16.2225 14.1848 16.2602 14.2948C16.2968 14.2409 16.353 14.2018 16.3846 14.1298H16.3863ZM6.3107 17.8644C6.25611 18.003 6.27194 18.0388 6.38329 18.0459L6.3107 17.8644ZM19.0254 18.7828C18.8863 18.7438 18.7393 18.7438 18.6002 18.7828C18.7417 18.7947 18.8839 18.7947 19.0254 18.7828ZM6.72772 18.6261C6.6846 18.5893 6.68678 18.5222 6.63165 18.4952C6.6191 18.4886 6.5989 18.4996 6.60381 18.5161C6.61294 18.5439 6.62922 18.5687 6.651 18.588C6.67277 18.6073 6.69924 18.6205 6.72772 18.6261ZM24.5318 18.8752C24.6356 18.8703 24.7381 18.8498 24.8358 18.8142C24.7311 18.8104 24.627 18.8313 24.5318 18.8752ZM23.7976 18.3511C23.8424 18.3621 23.8839 18.3946 23.9456 18.372C23.8948 18.3302 23.8446 18.3495 23.7976 18.3511ZM23.361 18.2412C23.3064 18.2296 23.2715 18.1922 23.2207 18.2181C23.2404 18.2336 23.2635 18.2442 23.2881 18.2489C23.3127 18.2536 23.3381 18.2523 23.3621 18.245L23.361 18.2412ZM23.207 18.1966C23.147 18.1768 23.1132 18.1416 23.0575 18.1708C23.0783 18.1878 23.103 18.1992 23.1293 18.204C23.1556 18.2088 23.1828 18.2068 23.2081 18.1983L23.207 18.1966ZM23.7147 18.3264H23.7043C23.7086 18.3286 23.7132 18.3303 23.7179 18.3313C23.7179 18.3313 23.7223 18.3286 23.725 18.3269L23.7147 18.3264Z" fill="#181818"/>
<path d="M7.39584 12.343C7.55959 12.343 7.70806 12.4222 7.70915 12.5113C7.70915 12.6763 7.55795 12.8589 7.41331 12.8605C7.26866 12.8622 7.13111 12.7071 7.12893 12.5245C7.12729 12.4156 7.23209 12.3436 7.39584 12.343Z" fill="#F8F2EA"/>
<path d="M7.10111 12.2937C7.05739 12.2563 7.09728 12.2343 7.12078 12.2216C7.17647 12.1817 7.24455 12.1634 7.31257 12.1699C7.2388 12.2249 7.14154 12.2145 7.10111 12.2937Z" fill="#F8F2EA"/>
<path d="M7.10172 12.2942L7.08301 12.2834L7.09094 12.2754L7.10172 12.2942Z" fill="#F8F2EA"/>
<path d="M10.6063 23.3237C10.6063 23.5145 10.5206 23.6537 10.3994 23.6537C10.252 23.6564 10.0812 23.5085 10.085 23.3787C10.0939 23.2952 10.1321 23.2177 10.1928 23.1601C10.2535 23.1025 10.3326 23.0687 10.4158 23.0647C10.5468 23.0691 10.6058 23.1483 10.6063 23.3237Z" fill="#F8F2EA"/>
<path d="M9.9523 23.3594L9.94356 23.3182L9.93701 23.2676C9.94029 23.1334 9.98778 23.0746 10.1373 23.0267C10.0691 23.1329 9.9845 23.2247 9.98614 23.3567C9.97577 23.3506 9.96212 23.3462 9.9523 23.3594Z" fill="#F8F2EA"/>
<path d="M9.95227 23.3596C9.9622 23.3463 9.97433 23.3507 9.98646 23.3552C9.98648 23.4096 9.99146 23.4639 10.0013 23.5174C9.96771 23.4707 9.92084 23.4296 9.95227 23.3596Z" fill="#585858"/>
<path d="M9.93754 23.2676L9.94428 23.3197C9.90608 23.3055 9.90439 23.2897 9.93754 23.2676Z" fill="#585858"/>
<path d="M20.5851 9.49167C20.5851 9.64565 20.4568 9.79084 20.3209 9.79084C20.185 9.79084 20.0922 9.677 20.0928 9.53071C20.0928 9.36848 20.1976 9.2497 20.34 9.24915C20.5027 9.24915 20.5857 9.33109 20.5851 9.49167Z" fill="#F8F2EA"/>
<path d="M20.0288 9.37061C20.0083 9.45278 20.0015 9.53779 20.0085 9.6222C19.9588 9.51925 19.9402 9.44052 20.0288 9.37061Z" fill="#F8F2EA"/>
<path d="M11.6683 21.305C11.6617 21.37 11.6339 21.419 11.5743 21.4151C11.5148 21.4113 11.4333 21.3804 11.4426 21.3083C11.4519 21.2362 11.5317 21.1982 11.6027 21.1949C11.6738 21.1916 11.6399 21.2747 11.6683 21.305Z" fill="#F8F2EA"/>
<path d="M20.1831 23.4991C20.1832 23.534 20.1711 23.5679 20.1488 23.5947C20.1265 23.6214 20.0956 23.6394 20.0614 23.6454C20.0068 23.6536 19.9206 23.5469 19.9266 23.4804C19.9342 23.3996 19.9964 23.382 20.0619 23.382C20.1274 23.382 20.1908 23.3957 20.1831 23.4991Z" fill="#F8F2EA"/>
<path d="M23.3456 12.6611C23.2855 12.6611 23.2363 12.6611 23.2363 12.5994C23.2363 12.5378 23.2953 12.5268 23.3418 12.5246C23.3882 12.5224 23.4341 12.5273 23.4325 12.5912C23.4309 12.655 23.3757 12.6528 23.3456 12.6611Z" fill="#F8F2EA"/>
<path d="M8.62474 10.8708C8.68751 10.8763 8.74919 10.895 8.7541 10.9555C8.75901 11.0248 8.69624 11.054 8.63456 11.0573C8.61903 11.0595 8.60321 11.0586 8.58802 11.0547C8.57283 11.0507 8.55857 11.0437 8.54608 11.0342C8.53359 11.0246 8.5231 11.0126 8.51524 10.9989C8.50738 10.9852 8.5023 10.9701 8.50029 10.9544C8.49428 10.8725 8.5838 10.8972 8.62474 10.8708Z" fill="#F8F2EA"/>
<path d="M20.3528 6.93876C20.3565 6.97783 20.3446 7.01676 20.3199 7.04706C20.2951 7.07735 20.2595 7.09655 20.2207 7.10044C20.1077 7.10044 20.0515 7.05535 20.0504 6.95966C20.0486 6.93913 20.0509 6.91843 20.0572 6.89884C20.0636 6.87924 20.0739 6.86116 20.0874 6.84571C20.101 6.83026 20.1175 6.81776 20.136 6.80899C20.1545 6.80021 20.1746 6.79534 20.1951 6.79468C20.2344 6.79488 20.2722 6.80969 20.3013 6.83629C20.3305 6.86288 20.3488 6.89938 20.3528 6.93876Z" fill="#F8F2EA"/>
<path d="M16.1553 18.0168C16.2361 17.7566 16.2137 17.4932 16.2148 17.2369C16.2186 16.483 16.2814 15.7285 16.2481 14.9761C16.2295 14.5659 16.3922 14.2931 16.6738 14.0594C17.5084 13.3681 18.4472 12.9683 19.5438 13.0206C20.1481 13.0491 20.7523 13.1091 21.3085 13.3731C21.7198 13.5722 22.1168 13.7999 22.4968 14.0544C22.7861 14.2464 23.0901 14.4119 23.3941 14.5785C23.6523 14.7199 23.9427 14.7683 24.2162 14.8645C24.2431 14.8728 24.2679 14.887 24.2888 14.906C24.3098 14.925 24.3263 14.9484 24.3374 14.9745C24.7156 15.734 24.9105 16.5534 25.1174 17.3689C25.165 17.5559 25.2138 17.7423 25.2636 17.9282C25.2822 17.9997 25.2675 18.0212 25.1861 18.0234C24.6812 18.0349 24.1782 17.9573 23.6998 17.794C23.4105 17.6967 23.1152 17.6164 22.8188 17.5427C22.4771 17.4575 22.16 17.3084 21.8445 17.1605C21.1349 16.8305 20.3981 16.6216 19.6159 16.654C18.7545 16.6892 17.9107 16.8338 17.1356 17.249C16.8136 17.4212 16.5461 17.6659 16.2781 17.909C16.2377 17.9453 16.1984 17.9805 16.1553 18.0168ZM18.3102 14.0654L18.3059 14.1039C17.9507 14.2357 17.6025 14.3858 17.2628 14.5538C17.2496 14.5602 17.2368 14.5676 17.2246 14.5758C17.2163 14.5801 17.21 14.5876 17.2071 14.5965C17.2041 14.6054 17.2047 14.6151 17.2087 14.6236C17.2186 14.6451 17.2377 14.6407 17.2551 14.6308C17.2726 14.6209 17.2873 14.6121 17.3037 14.6044C18.0624 14.248 18.8452 13.9785 19.6907 13.9412C20.2501 13.917 20.7932 13.9857 21.3036 14.2343C21.5552 14.3564 21.8041 14.4839 22.0558 14.6066C22.2894 14.721 22.5345 14.8051 22.7834 14.9002C22.7599 14.7127 22.7408 14.5384 22.5252 14.4933C22.5121 14.4905 22.5012 14.4768 22.4886 14.4691C21.7572 13.9994 20.9821 13.6442 20.1082 13.5567C19.7594 13.5215 19.4101 13.5193 19.0662 13.615C18.4265 13.7927 17.8392 14.0885 17.2611 14.408C17.218 14.4317 17.2066 14.4658 17.2218 14.4977C17.2371 14.5296 17.2715 14.5026 17.2944 14.4927C17.6323 14.3492 17.9576 14.1754 18.3102 14.0654ZM17.1902 16.2525L17.2055 16.2729C17.1569 16.3114 17.0799 16.3328 17.1241 16.4313C18.227 16.022 19.4294 15.9702 20.5629 16.2833C21.1284 16.4538 21.6895 16.6524 22.285 16.7051C22.5001 16.7238 22.7124 16.7843 22.9318 16.7337C23.1294 16.6881 23.1272 16.6903 23.0956 16.4912C23.0841 16.4159 23.0535 16.3972 22.9864 16.395C22.8871 16.395 22.7883 16.3796 22.6895 16.3675C22.0012 16.2844 21.3298 16.1189 20.6601 15.9435C20.2583 15.8379 19.8566 15.7235 19.4396 15.696C18.9963 15.6663 18.5575 15.7235 18.1203 15.7889C17.8279 15.8244 17.5415 15.8984 17.2682 16.0089C17.2237 16.022 17.1851 16.0502 17.1587 16.0886C17.1324 16.1271 17.12 16.1735 17.1236 16.2201C17.1263 16.2993 17.158 16.2652 17.1902 16.2536V16.2525ZM22.9722 15.7779C22.9558 15.6922 22.9384 15.6163 22.9285 15.5393C22.922 15.4876 22.8947 15.4711 22.8483 15.4678C22.3663 15.4348 21.9057 15.2753 21.4384 15.1653C21.0121 15.0652 20.6148 14.87 20.1966 14.7413C19.7458 14.6027 19.2856 14.5103 18.8162 14.6214C18.5133 14.6935 18.2196 14.8051 17.92 14.8936C17.7289 14.9486 17.5335 14.9965 17.3616 15.0966C17.2912 15.1373 17.1099 15.1219 17.2076 15.3012C17.17 15.3198 17.1596 15.3589 17.1853 15.3814C17.2109 15.404 17.2448 15.3704 17.2742 15.3589C17.7457 15.169 18.2422 15.0499 18.748 15.0053C19.2971 14.9624 19.8429 15.0003 20.356 15.2055C21.0066 15.4738 21.6895 15.6541 22.3871 15.7417C22.5805 15.7732 22.7764 15.7858 22.9722 15.779V15.7779Z" fill="#F8F2EA"/>
<path d="M15.5596 17.8402C15.3865 17.7099 15.2173 17.6015 15.0683 17.4679C14.7075 17.1379 14.2807 16.9416 13.8254 16.7937C13.3233 16.6287 12.8162 16.4808 12.2851 16.478C11.7321 16.4741 11.1816 16.5516 10.6509 16.7079C10.1945 16.8426 9.76169 17.0379 9.31684 17.2028C8.65692 17.447 7.97463 17.6169 7.29725 17.8078C7.15205 17.8485 7.00686 17.8886 6.86058 17.9249C6.81034 17.9368 6.75879 17.9422 6.7072 17.9409C6.5822 17.9381 6.52707 17.8677 6.55 17.744C6.58081 17.6025 6.63154 17.4662 6.70065 17.3392C7.08273 16.5754 7.48447 15.8192 7.95607 15.1065C8.10563 14.8815 8.26447 14.6627 8.4173 14.4399C8.42666 14.4243 8.43934 14.4109 8.45444 14.4007C8.46954 14.3905 8.48668 14.3838 8.50464 14.3811C9.07121 14.2909 9.56847 14.0242 10.0641 13.7553C10.6383 13.4435 11.2316 13.1877 11.8861 13.1162C12.576 13.0409 13.2545 13.0975 13.9013 13.3692C14.3827 13.5716 14.8532 13.8015 15.3358 14.0011C15.5765 14.1006 15.6682 14.2887 15.6927 14.5169C15.7537 15.0372 15.7606 15.5625 15.7135 16.0843C15.6589 16.6381 15.6169 17.1935 15.5694 17.7478C15.571 17.7731 15.5661 17.7979 15.5596 17.8402ZM13.4854 15.8021C13.4903 15.6372 13.4914 15.6317 13.3369 15.608C13.0193 15.5667 12.6991 15.5503 12.379 15.5591C11.802 15.5591 11.2475 15.707 10.7016 15.8643C9.87862 16.1027 9.04096 16.2864 8.19406 16.4142C8.04177 16.4373 7.96535 16.4973 7.93533 16.6386C7.93079 16.6772 7.91893 16.7145 7.9004 16.7486C7.86546 16.8036 7.89166 16.8256 7.95498 16.8267C8.11689 16.8307 8.27882 16.8193 8.43859 16.7926C9.24506 16.6437 10.041 16.4416 10.8212 16.1877C11.2292 16.0494 11.6528 15.9625 12.082 15.9292C12.5274 15.9028 12.9718 15.9022 13.4112 15.9974C13.4292 16.0012 13.4696 16.0139 13.4657 15.9941C13.4532 15.9231 13.5149 15.8621 13.4876 15.8021H13.4854ZM8.26611 15.8258C8.49536 15.8065 8.7126 15.8016 8.92547 15.7675C9.51698 15.6695 10.0986 15.5184 10.6634 15.316C11.5761 14.9937 12.5062 14.831 13.4734 14.9926C13.4937 14.9974 13.5148 14.9974 13.5351 14.9926C13.5506 14.9251 13.5615 14.8565 13.5678 14.7875C13.5716 14.7325 13.5203 14.7397 13.4881 14.7325C12.8331 14.5417 12.1781 14.5879 11.5258 14.7457C11.1094 14.8463 10.7191 15.0207 10.3108 15.1455C9.71912 15.3242 9.1187 15.4425 8.49754 15.4254C8.45988 15.4254 8.43586 15.4309 8.42058 15.4689C8.37527 15.5816 8.32451 15.6955 8.26829 15.8252L8.26611 15.8258ZM11.8331 14.0913C11.8877 14.0885 11.9423 14.0847 11.9969 14.0825C12.523 14.0632 13.0499 14.0891 13.5716 14.16C13.6601 14.1716 13.6721 14.1287 13.6617 14.0709C13.6511 14.0128 13.6602 13.9528 13.6873 13.9005C13.7081 13.8559 13.7103 13.8251 13.6426 13.8081C13.3616 13.7347 13.0735 13.6919 12.7834 13.6805C12.1508 13.6651 11.528 13.7102 10.9249 13.9312C10.766 13.9895 10.6105 14.0572 10.4527 14.1193C10.1967 14.2205 9.95383 14.3646 9.68037 14.4113C9.4069 14.4581 9.15582 14.5274 8.89218 14.5763C8.85615 14.5829 8.81904 14.5884 8.80048 14.6286C8.75736 14.7237 8.71314 14.8183 8.6602 14.9316C8.90091 14.843 9.13235 14.8216 9.36051 14.7903C9.6689 14.7457 9.95219 14.617 10.2486 14.5329C10.6711 14.4135 11.0875 14.2717 11.5187 14.182C11.4102 14.1647 11.2997 14.1647 11.1912 14.182C11.0821 14.2013 10.9729 14.237 10.8637 14.2607C11.7431 13.9295 12.6949 13.844 13.6186 14.0132C13.0225 13.9956 12.4259 13.9554 11.8353 14.0913H11.8331Z" fill="#F8F2EA"/>
<path d="M10.6108 17.7313C9.87606 17.8133 9.16319 17.9969 8.46125 18.218C8.12556 18.3236 7.80625 18.4754 7.452 18.5293C7.30626 18.5513 7.15998 18.5683 7.01533 18.5843C6.97015 18.5936 6.92315 18.5875 6.88181 18.5669C6.84047 18.5463 6.80716 18.5123 6.78717 18.4704C7.02789 18.4231 7.26587 18.3625 7.50003 18.289C7.97327 18.1586 8.41595 17.9436 8.87445 17.7726C9.31112 17.6076 9.74014 17.4178 10.1845 17.2699C10.6888 17.1049 11.2079 17.0411 11.7368 17.0153C12.8771 16.9603 13.9131 17.3035 14.9081 17.8204C15.0173 17.8754 15.1264 17.9304 15.2356 17.9815C15.3448 18.0327 15.4572 18.08 15.5751 18.1322C15.5129 18.2015 15.4627 18.2307 15.3666 18.1746C15.002 17.9628 14.6024 17.8237 14.2144 17.6703C13.8541 17.5289 13.4944 17.3876 13.1101 17.3277C13.0526 17.3142 12.9932 17.3103 12.9344 17.3161C12.9102 17.3179 12.8873 17.3275 12.8691 17.3434C12.8508 17.3594 12.8381 17.3809 12.8328 17.4047C12.8268 17.4541 12.8798 17.4635 12.9164 17.4783C13.1118 17.5581 13.3203 17.5883 13.5206 17.6516C14.1265 17.8347 14.728 18.0294 15.3017 18.3022C15.3208 18.311 15.3612 18.3137 15.341 18.3522C15.3268 18.3791 15.3033 18.3643 15.2864 18.3522C14.806 18.1102 14.2831 17.9936 13.7771 17.8276C13.3649 17.6919 12.9464 17.5762 12.5217 17.4805C12.4565 17.4612 12.3869 17.4625 12.3225 17.4844C12.5408 17.5509 12.7401 17.6114 12.9387 17.6692C13.3519 17.7896 13.77 17.8891 14.1794 18.0255C14.5288 18.1405 14.8623 18.3005 15.2165 18.4105C15.2531 18.422 15.3066 18.438 15.258 18.4891C15.2214 18.5276 15.2651 18.6343 15.1417 18.603C14.3978 18.4132 13.6718 18.1526 12.9136 18.0167C12.2192 17.8955 11.5093 17.8955 10.8149 18.0167C9.923 18.1652 9.08186 18.4732 8.25219 18.8224C7.90231 18.9698 7.54752 19.1051 7.1638 19.1304C7.01684 19.1474 6.86803 19.1248 6.73259 19.0649C6.72265 19.0619 6.71409 19.0554 6.7084 19.0467C6.70271 19.0379 6.70026 19.0275 6.70147 19.0171C7.05678 19.0388 7.41321 19.0016 7.75658 18.9071C8.23145 18.7894 8.66757 18.5738 9.09551 18.3423C9.57748 18.0811 10.0731 17.8606 10.6146 17.7594L10.9584 17.7044C10.8419 17.6942 10.7244 17.7034 10.6108 17.7313Z" fill="#F8F2EA"/>
<path d="M21.7073 17.8601C22.2226 18.0949 22.7651 18.245 23.3148 18.361C23.7149 18.4468 24.1046 18.5722 24.5069 18.6432C24.5543 18.6488 24.6004 18.6629 24.6428 18.685C24.479 18.7048 24.3098 18.7224 24.1439 18.7449C23.4671 18.8384 22.8022 18.7592 22.1374 18.6272C21.6101 18.5227 21.0921 18.3737 20.561 18.2923C19.7183 18.1636 18.8717 18.0839 18.0185 18.1477C17.5671 18.1812 17.1392 18.3231 16.7085 18.4584C16.6758 18.4688 16.6436 18.4991 16.6065 18.465C16.6136 18.4221 16.6523 18.4232 16.6796 18.41C16.964 18.267 17.2718 18.2131 17.5819 18.1653C17.6507 18.1533 17.7187 18.137 17.7855 18.1163C17.8138 18.1075 17.8537 18.0971 17.845 18.0509C17.8414 18.0342 17.8325 18.0192 17.8195 18.0082C17.8066 17.9973 17.7904 17.991 17.7735 17.9904C17.7261 17.9849 17.6782 17.987 17.6315 17.9964C17.2929 18.0681 16.9617 18.1712 16.6419 18.3044C16.613 18.3171 16.5693 18.3863 16.5371 18.3138C16.5049 18.2412 16.5874 18.2472 16.6196 18.2335C17.0055 18.0685 17.4132 17.986 17.8204 17.9062C18.3586 17.7934 18.9087 17.7485 19.4579 17.7726C19.8849 17.7889 20.3089 17.8526 20.7221 17.9623C20.7447 17.9645 20.7676 17.9645 20.7903 17.9623C20.6494 17.8954 20.5034 17.8403 20.3536 17.7974C19.8482 17.6439 19.3356 17.5147 18.8045 17.5268C18.3919 17.5361 17.9858 17.6296 17.5906 17.7468C17.2123 17.8568 16.8341 17.9667 16.4886 18.1631C16.4209 18.2016 16.3909 18.1532 16.3597 18.1213C16.3183 18.0778 16.3767 18.0613 16.3979 18.041C16.607 17.848 16.8734 17.7627 17.1266 17.656C17.9033 17.3201 18.7354 17.1335 19.5802 17.1061C19.8754 17.1055 20.1699 17.137 20.4584 17.2001C21.2226 17.3464 21.9262 17.6538 22.6303 17.964C22.7354 18.0074 22.8352 18.0628 22.9278 18.129C22.5288 18.0146 22.1238 17.9348 21.7231 17.8381C21.7125 17.8311 21.7001 17.8274 21.6874 17.8274C21.6747 17.8274 21.6623 17.8311 21.6516 17.8381C21.6647 17.8601 21.6887 17.8513 21.7073 17.8601Z" fill="#F8F2EA"/>
<path d="M13.933 18.4722C13.7256 18.443 13.5291 18.4078 13.3326 18.3886C12.7014 18.3283 12.0648 18.3676 11.4457 18.5052C10.932 18.6152 10.4179 18.7208 9.91187 18.8676C9.67115 18.9374 9.4097 18.9341 9.15807 18.9666C9.00141 18.9864 8.8453 19.0106 8.68701 19.0331C8.99595 18.8132 10.4479 18.3595 11.2666 18.2225C12.0363 18.0938 13.6978 18.2451 13.933 18.4722Z" fill="#F8F2EA"/>
<path d="M18.7835 18.2246C19.2431 18.2524 19.7006 18.3084 20.1535 18.3923C20.7021 18.4831 21.2485 18.5815 21.791 18.6976C21.8423 18.7086 21.9242 18.708 21.9155 18.7723C21.91 18.8114 21.8227 18.8097 21.767 18.8031C20.9996 18.7113 20.231 18.6244 19.4641 18.5282C18.6568 18.4253 17.8555 18.488 17.0553 18.6019C16.9746 18.6083 16.895 18.6252 16.8185 18.6519C16.8005 18.6591 16.7805 18.6591 16.7626 18.6519C16.7446 18.6448 16.7301 18.631 16.7218 18.6134C16.7126 18.5738 16.7622 18.5755 16.7939 18.5672C17.3648 18.4206 17.9449 18.3129 18.5302 18.245C18.6143 18.2351 18.6989 18.2312 18.7835 18.2246Z" fill="#F8F2EA"/>
<path d="M15.5372 18.9292C15.559 18.9556 15.5864 18.9768 15.6174 18.9913C15.6484 19.0058 15.6821 19.0131 15.7163 19.0128C15.8997 19.0357 16.0857 19 16.2479 18.9105C16.2708 18.8989 16.3025 18.8621 16.3227 18.8967C16.3522 18.9407 16.3025 18.9517 16.2768 18.9655C16.0902 19.0622 15.8948 19.1227 15.683 19.0787C15.5514 19.0512 15.4477 18.9908 15.3997 18.8489C15.3489 18.6982 15.4095 18.5997 15.5088 18.4947C15.6666 18.3297 15.8642 18.2797 16.076 18.2632C16.2397 18.2505 16.4433 18.404 16.5077 18.5613C16.5334 18.6245 16.4875 18.6294 16.4564 18.6476C16.1753 18.8137 15.8604 18.8698 15.5372 18.9292Z" fill="#F8F2EA"/>
<path d="M16.0347 18.003C15.8404 18.0079 15.836 18.0074 15.853 17.7863C15.9075 17.0538 15.9687 16.3218 16.0227 15.5866C16.038 15.3759 16.0446 15.1642 16.0724 14.9547C16.0764 14.909 16.0923 14.8652 16.1182 14.8276C16.0991 15.3539 16.0713 15.8802 16.0637 16.4065C16.056 16.9328 16.0134 17.4657 16.0347 18.003Z" fill="#F8F2EA"/>
<path d="M15.4423 17.9305C15.1879 17.7831 14.9314 17.639 14.6781 17.4867C14.2922 17.2589 13.8846 17.0708 13.4614 16.9252C14.2256 17.0539 14.8408 17.4845 15.4548 17.9189L15.4423 17.9305Z" fill="#F8F2EA"/>
<path d="M19.2912 16.8867C18.5286 16.9575 17.7822 17.1511 17.0806 17.4603C17.7099 17.0484 18.9768 16.8152 19.2912 16.8867Z" fill="#F8F2EA"/>
<path d="M24.0771 18.3956C24.2644 18.3742 24.451 18.3956 24.665 18.411C24.4494 18.4847 24.2644 18.4407 24.0771 18.3956Z" fill="#F8F2EA"/>
<path d="M12.9397 18.6426C12.6804 18.6718 12.4266 18.7103 12.1689 18.6976C12.4221 18.6432 12.6815 18.6247 12.9397 18.6426Z" fill="#585858"/>
<path d="M16.3858 14.1298C16.3538 14.2025 16.297 14.2409 16.2584 14.2964C16.2215 14.1836 16.2441 14.1514 16.3858 14.1298Z" fill="#F8F2EA"/>
<path d="M6.31072 17.8645L6.38339 18.0462C6.27192 18.039 6.25717 18.0032 6.31072 17.8645Z" fill="#F8F2EA"/>
<path d="M19.0253 18.7828C18.8838 18.7947 18.7416 18.7947 18.6001 18.7828C18.7392 18.7438 18.8862 18.7438 19.0253 18.7828Z" fill="#585858"/>
<path d="M10.6105 17.7313C10.7226 17.7039 10.8383 17.6948 10.9533 17.7044L10.6094 17.7594L10.6105 17.7313Z" fill="#585858"/>
<path d="M6.72896 18.6275C6.7002 18.6218 6.67345 18.6085 6.65145 18.589C6.62946 18.5695 6.61301 18.5444 6.60379 18.5164C6.59883 18.4997 6.61923 18.4886 6.63191 18.4953C6.6876 18.5203 6.6854 18.5903 6.72896 18.6275Z" fill="#F8F2EA"/>
<path d="M6.55358 18.6513C6.54366 18.6467 6.53423 18.6411 6.52546 18.6346C6.49844 18.6063 6.45709 18.5852 6.47032 18.5357C6.47032 18.524 6.48907 18.5079 6.49844 18.5079C6.5602 18.5079 6.52932 18.574 6.55854 18.599C6.56571 18.6052 6.56516 18.6196 6.56792 18.6307L6.55358 18.6513Z" fill="#F8F2EA"/>
<path d="M24.5317 18.8752C24.627 18.8312 24.7311 18.8103 24.8358 18.8142C24.738 18.8497 24.6355 18.8703 24.5317 18.8752Z" fill="#585858"/>
<path d="M6.39536 18.6714C6.35875 18.6164 6.34946 18.5613 6.40192 18.4799L6.41394 18.6505L6.39536 18.6714Z" fill="#F8F2EA"/>
<path d="M23.7974 18.3512C23.8448 18.3512 23.895 18.3301 23.9468 18.3723C23.8845 18.3951 23.8404 18.3623 23.7974 18.3512Z" fill="#585858"/>
<path d="M23.3634 18.2454C23.3396 18.2531 23.3144 18.255 23.2897 18.2509C23.2651 18.2469 23.2418 18.237 23.2217 18.2221C23.273 18.1937 23.3066 18.2315 23.3634 18.2454Z" fill="#585858"/>
<path d="M23.2097 18.1986C23.1843 18.2073 23.1572 18.2094 23.1308 18.2049C23.1045 18.2003 23.0796 18.1892 23.0586 18.1725C23.1148 18.1436 23.149 18.1786 23.2097 18.1986Z" fill="#585858"/>
<path d="M15.4857 17.9343L15.524 17.9502C15.5207 17.9559 15.5179 17.9661 15.515 17.9661C15.4976 17.9661 15.479 17.9661 15.4756 17.9423L15.4857 17.9343Z" fill="#F8F2EA"/>
<path d="M23.7161 18.328L23.7272 18.3309C23.7243 18.3309 23.7213 18.3362 23.7196 18.3356C23.7146 18.3345 23.7097 18.3327 23.7051 18.3303L23.7161 18.328Z" fill="#585858"/>
<path d="M6.41418 18.6503C6.43447 18.6611 6.43447 18.677 6.42601 18.6957L6.39502 18.6718L6.41418 18.6503Z" fill="#F8F2EA"/>
<path d="M15.4553 17.9183L15.4869 17.9348L15.4768 17.9427L15.4424 17.9308L15.4553 17.9183Z" fill="#F8F2EA"/>
<path d="M6.59298 18.6377L6.58257 18.671C6.57794 18.6657 6.56926 18.6564 6.57042 18.6558C6.57719 18.6486 6.58454 18.642 6.5924 18.636L6.59298 18.6377Z" fill="#F8F2EA"/>
<path d="M6.59332 18.6363C6.58991 18.6729 6.57116 18.6632 6.55127 18.6506L6.56604 18.6294L6.59388 18.6386L6.59332 18.6363Z" fill="#F8F2EA"/>
<path d="M17.1904 16.2537C17.1581 16.263 17.1238 16.2993 17.1232 16.2201C17.1196 16.1736 17.132 16.1271 17.1583 16.0887C17.1847 16.0502 17.2234 16.0221 17.2679 16.009C17.5411 15.8984 17.8276 15.8244 18.1199 15.789C18.5566 15.7235 18.996 15.6664 19.4392 15.696C19.8562 15.7241 20.2579 15.8379 20.6597 15.9435C21.3294 16.119 22.0008 16.2845 22.6891 16.3675C22.7879 16.3796 22.8867 16.3928 22.986 16.395C23.0554 16.395 23.0859 16.4159 23.0952 16.4913C23.1263 16.6903 23.1285 16.6881 22.9315 16.7338C22.7131 16.7844 22.4997 16.7239 22.2846 16.7052C21.6891 16.6502 21.128 16.4539 20.5625 16.2834C19.43 15.9705 18.2287 16.0218 17.1265 16.4302C17.0823 16.3318 17.1592 16.3103 17.2078 16.2718C17.2247 16.2691 17.2433 16.2685 17.2509 16.2482C17.2673 16.2427 17.3022 16.2482 17.2881 16.2196C17.2788 16.2009 17.2542 16.224 17.2384 16.2344L17.1904 16.2537Z" fill="#181818"/>
<path d="M22.9722 15.7791C22.7766 15.7865 22.5809 15.7747 22.3876 15.7439C21.69 15.6563 21.0071 15.476 20.3565 15.2077C19.8434 15.0026 19.2976 14.9646 18.7485 15.0075C18.2427 15.0521 17.7462 15.1713 17.2747 15.3611C17.2453 15.3727 17.2087 15.4035 17.1858 15.3837C17.1629 15.3639 17.1705 15.3221 17.2082 15.3034C17.1105 15.1241 17.2917 15.1384 17.3621 15.0988C17.534 14.9987 17.7294 14.952 17.9205 14.8959C18.2201 14.8074 18.5138 14.6957 18.8167 14.6237C19.2862 14.5137 19.7447 14.605 20.1972 14.7436C20.6153 14.8722 21.0126 15.0675 21.4389 15.1676C21.9073 15.2776 22.3668 15.4348 22.8499 15.4689C22.8963 15.4722 22.9236 15.4887 22.9302 15.5404C22.9383 15.6174 22.9558 15.6933 22.9722 15.7791Z" fill="#181818"/>
<path d="M18.3101 14.0655C17.9575 14.1755 17.6322 14.3482 17.2943 14.4928C17.2714 14.5027 17.2397 14.5341 17.2217 14.4978C17.2037 14.4615 17.2179 14.4318 17.261 14.4081C17.839 14.0886 18.4264 13.7927 19.0661 13.6151C19.41 13.5194 19.7593 13.5216 20.1081 13.5568C20.9814 13.6454 21.7571 13.9968 22.4885 14.4692C22.501 14.4769 22.5119 14.4906 22.525 14.4934C22.7407 14.5385 22.7598 14.7133 22.7832 14.9003C22.5343 14.8052 22.2892 14.721 22.0556 14.6067C21.804 14.484 21.5551 14.3564 21.3035 14.2343C20.7931 13.9858 20.25 13.917 19.6905 13.9412C18.845 13.9786 18.0623 14.2481 17.3036 14.6045C17.2872 14.6122 17.2714 14.6221 17.255 14.6309C17.2386 14.6397 17.2184 14.6452 17.2086 14.6237C17.2046 14.6152 17.204 14.6055 17.2069 14.5966C17.2099 14.5876 17.2162 14.5802 17.2244 14.5759C17.2367 14.5677 17.2494 14.5603 17.2626 14.5539C17.6024 14.3859 17.9506 14.2357 18.3057 14.104C18.6136 14.0122 18.9214 13.9225 19.2337 13.8439C18.9181 13.8803 18.6081 13.9547 18.3101 14.0655Z" fill="#181818"/>
<path d="M18.3101 14.0654C18.6078 13.9553 18.9175 13.8814 19.2326 13.8455C18.9215 13.9241 18.6136 14.0137 18.3047 14.1056L18.3101 14.0654Z" fill="#585858"/>
<path d="M13.4876 15.8022C13.5148 15.8621 13.4532 15.9232 13.4663 15.9947C13.4695 16.0145 13.4292 16.0018 13.4117 15.998C12.9723 15.9028 12.528 15.9034 12.0826 15.9298C11.6533 15.9631 11.2298 16.0499 10.8217 16.1882C10.0415 16.4422 9.24559 16.6443 8.43912 16.7932C8.27935 16.8199 8.11742 16.8313 7.95551 16.8273C7.89438 16.8273 7.86818 16.8053 7.90093 16.7492C7.91946 16.7151 7.93132 16.6778 7.93586 16.6392C7.96588 16.4979 8.04503 16.4379 8.19459 16.4148C9.04149 16.287 9.87915 16.1033 10.7022 15.8649C11.248 15.7076 11.8026 15.5608 12.3795 15.5597C12.6996 15.5509 13.0199 15.5673 13.3375 15.6086C13.4936 15.6317 13.4925 15.6378 13.4876 15.8022Z" fill="#181818"/>
<path d="M8.26855 15.8252C8.32314 15.6949 8.37772 15.5811 8.42303 15.4656C8.43831 15.4276 8.46233 15.421 8.49999 15.4221C9.12115 15.4392 9.72157 15.3209 10.3133 15.1422C10.7215 15.019 11.1118 14.8431 11.5283 14.7424C12.1833 14.5846 12.835 14.5384 13.4906 14.7292C13.5228 14.7386 13.5741 14.7336 13.5703 14.7842C13.564 14.8533 13.553 14.9218 13.5375 14.9893C13.5172 14.9941 13.4961 14.9941 13.4758 14.9893C12.5086 14.8277 11.5785 14.9893 10.6659 15.3127C10.1013 15.5171 9.51962 15.6703 8.92792 15.7702C8.71505 15.8016 8.49781 15.8065 8.26855 15.8252Z" fill="#181818"/>
<path d="M11.8353 14.0914C12.4259 13.9577 13.0225 13.9957 13.618 14.0144C12.6944 13.8452 11.7426 13.9307 10.8632 14.2618C10.9724 14.2354 11.0815 14.2024 11.1907 14.1832C11.2992 14.1659 11.4097 14.1659 11.5182 14.1832C11.087 14.2728 10.6705 14.4147 10.248 14.5341C9.95166 14.6182 9.66837 14.7469 9.35998 14.7914C9.13182 14.8244 8.90038 14.8464 8.65967 14.9328C8.71425 14.8195 8.75683 14.7249 8.79995 14.6297C8.81851 14.5896 8.85453 14.5841 8.89165 14.5775C9.15529 14.5275 9.41456 14.4571 9.67983 14.4125C9.94511 14.368 10.1962 14.2217 10.4522 14.1205C10.6099 14.0584 10.7655 13.9907 10.9243 13.9324C11.5248 13.7125 12.1503 13.6663 12.7829 13.6817C13.0735 13.6941 13.3619 13.738 13.6431 13.8125C13.7108 13.8296 13.7086 13.8604 13.6879 13.9049C13.6605 13.9566 13.6509 14.016 13.6606 14.0738C13.671 14.1315 13.6606 14.1744 13.5706 14.1629C13.0487 14.091 12.5217 14.0641 11.9953 14.0826C11.9407 14.0848 11.8888 14.0886 11.8353 14.0914ZM10.7524 14.2855C10.682 14.2761 10.6247 14.3047 10.5488 14.3564C10.6253 14.3593 10.701 14.3402 10.7671 14.3014C10.7824 14.2871 10.8108 14.2976 10.8217 14.2717C10.81 14.2676 10.7974 14.2666 10.7852 14.269C10.773 14.2715 10.7617 14.2771 10.7524 14.2855ZM10.5417 14.3713C10.5363 14.3619 10.5346 14.3537 10.5308 14.3531C10.5242 14.3528 10.5176 14.3541 10.5117 14.357C10.5019 14.3614 10.5013 14.368 10.5117 14.3707C10.5217 14.3715 10.5318 14.3711 10.5417 14.3696V14.3713Z" fill="#181818"/>
<path d="M21.708 17.8604C21.6892 17.8531 21.665 17.8604 21.6528 17.8398C21.6636 17.8327 21.6761 17.829 21.689 17.829C21.7018 17.829 21.7144 17.8327 21.7251 17.8398L21.708 17.8604Z" fill="#181818"/>
<path d="M17.1899 16.2539L17.2363 16.2367L17.249 16.2506C17.2412 16.2712 17.2225 16.2717 17.2054 16.2745L17.1899 16.2539Z" fill="#F8F2EA"/>
<path d="M17.2354 16.2373C17.2516 16.2265 17.2769 16.2028 17.2865 16.222C17.3011 16.2514 17.2651 16.2458 17.2483 16.2514L17.2354 16.2373Z" fill="#F8F2EA"/>
<path d="M10.7659 14.297C10.6997 14.3359 10.6239 14.355 10.5474 14.3521C10.6233 14.3003 10.6807 14.2717 10.7512 14.2811L10.7659 14.297Z" fill="#585858"/>
<path d="M10.7524 14.2857C10.7613 14.2773 10.7721 14.2713 10.7839 14.2684C10.7957 14.2655 10.8081 14.2657 10.8197 14.269C10.8098 14.2952 10.7811 14.2846 10.7646 14.2991L10.7524 14.2857Z" fill="#F8F2EA"/>
<path d="M10.5435 14.3703C10.5331 14.3715 10.5227 14.3715 10.5123 14.3703C10.5015 14.3674 10.5021 14.3606 10.5123 14.356C10.5185 14.353 10.5253 14.3516 10.5322 14.352C10.5361 14.352 10.5378 14.3606 10.5435 14.3703Z" fill="#585858"/>
<defs>
<filter id="filter0_d_14_47335" x="0" y="0" width="41" height="40" filterUnits="userSpaceOnUse" color-interpolation-filters="sRGB">
<feFlood flood-opacity="0" result="BackgroundImageFix"/>
<feColorMatrix in="SourceAlpha" type="matrix" values="0 0 0 0 0 0 0 0 0 0 0 0 0 0 0 0 0 0 127 0" result="hardAlpha"/>
<feOffset dx="5" dy="4"/>
<feGaussianBlur stdDeviation="2"/>
<feComposite in2="hardAlpha" operator="out"/>
<feColorMatrix type="matrix" values="0 0 0 0 0 0 0 0 0 0 0 0 0 0 0 0 0 0 0.25 0"/>
<feBlend mode="normal" in2="BackgroundImageFix" result="effect1_dropShadow_14_47335"/>
<feBlend mode="normal" in="SourceGraphic" in2="effect1_dropShadow_14_47335" result="shape"/>
</filter>
</defs>
</svg>
