<svg width="20" height="20" viewBox="0 0 20 20" fill="none" xmlns="http://www.w3.org/2000/svg">
    <path
        d="M4.57373 16.4408C4.57373 16.4408 6.75761 16.9116 7.86536 16.9508C8.96523 16.9895 10.0735 16.8853 11.157 16.6764C12.2054 16.4741 13.2825 16.2591 14.2313 15.7346C14.6826 15.4852 15.4252 14.7144 15.4252 14.7144C15.4252 14.7144 14.3443 13.7639 14.0507 13.1058C13.409 11.6682 13.9664 9.83211 13.3719 8.37073C13.0515 7.58298 12.5517 6.81613 11.8802 6.35688C11.1678 5.86963 10.2575 5.62132 9.42114 5.72913C8.55727 5.84051 7.70912 6.34088 7.09143 7.00538C6.50431 7.63694 6.15408 8.52678 5.95496 9.39735C5.63108 10.813 6.15261 12.3375 5.91223 13.7727C5.78611 14.5257 5.60659 15.3139 5.18896 15.9309C5.03628 16.1565 4.57373 16.4408 4.57373 16.4408Z"
        stroke="#F8F2EA" stroke-width="0.625" stroke-linecap="round" stroke-linejoin="round" />
    <path
        d="M5.92041 13.6544C5.92041 13.6544 8.28065 14.0252 9.4574 13.9101C10.5161 13.8065 11.5654 13.5008 12.55 13.0666C12.9992 12.8685 13.808 12.2744 13.808 12.2744"
        stroke="#F8F2EA" stroke-width="0.625" />
    <path
        d="M8.25041 6.11255C8.25041 6.11255 8.54644 5.39904 8.59281 5.01666C8.63594 4.66291 8.59267 4.29811 8.52873 3.94855C8.41385 3.34124 8.00063 2.81326 7.95744 2.19501C7.92619 1.7522 7.95735 1.25286 8.18754 0.88611C8.37404 0.589985 8.69726 0.294468 9.02738 0.313905C9.49407 0.341405 9.89674 0.816203 10.1272 1.2572C10.2736 1.53714 10.2597 1.89329 10.2426 2.21454C10.207 2.88073 9.85978 3.49312 9.7946 4.15668C9.7671 4.4373 9.75398 4.73006 9.82023 5.00293C9.88404 5.26543 10.1687 5.72406 10.1687 5.72406"
        stroke="#F8F2EA" stroke-width="0.625" />
    <path
        d="M8.85082 16.942C8.85082 16.942 8.52485 17.5791 8.4901 17.9317C8.45635 18.2719 8.45985 18.6665 8.64391 18.9443C8.92547 19.3693 9.44235 19.6302 9.9226 19.6798C10.371 19.726 10.8711 19.5661 11.2141 19.2495C11.5002 18.9855 11.6495 18.5551 11.7128 18.1536C11.7546 17.8873 11.7275 17.5946 11.6236 17.3491C11.5103 17.0814 11.0737 16.697 11.0737 16.697"
        stroke="#F8F2EA" stroke-width="0.625" />
    <path d="M6.38037 9.16462L7.46741 7.5832" stroke="#F8F2EA" stroke-width="0.3125" />
    <path d="M6.39307 9.69166L7.4801 8.26283" stroke="#F8F2EA" stroke-width="0.3125" />
    <path d="M6.44434 10.2605L7.50574 8.92872" stroke="#F8F2EA" stroke-width="0.3125" />
    <path d="M6.39307 10.8986L7.4801 9.63612" stroke="#F8F2EA" stroke-width="0.3125" />
    <path d="M6.36768 11.606L7.50598 10.3298" stroke="#F8F2EA" stroke-width="0.3125" />
    <path d="M6.41895 12.2301L7.54443 11.0094" stroke="#F8F2EA" stroke-width="0.3125" />
    <path d="M6.49561 12.8267L7.62109 11.6893" stroke="#F8F2EA" stroke-width="0.3125" />
    <path d="M6.57275 13.3956L7.82581 12.2857" stroke="#F8F2EA" stroke-width="0.3125" />
    <path d="M5.79443 15.5779L6.78931 14.3221" stroke="#F8F2EA" stroke-width="0.3125" />
    <path d="M5.84863 16.0582L6.78918 15.0185" stroke="#F8F2EA" stroke-width="0.3125" />
    <path d="M6.25586 16.3231L7.18726 15.2541" stroke="#F8F2EA" stroke-width="0.3125" />
    <path d="M8.58887 18.1673L9.18579 17.3629" stroke="#F8F2EA" stroke-width="0.3125" />
    <path d="M8.74268 18.8637L9.40308 17.8926" stroke="#F8F2EA" stroke-width="0.3125" />
    <path d="M9.02344 19.0108L9.70154 18.1868" stroke="#F8F2EA" stroke-width="0.3125" />
    <path d="M9.4209 19.1973L10.0807 18.3538" stroke="#F8F2EA" stroke-width="0.3125" />
    <path d="M9.95459 19.3346L10.6504 18.4813" stroke="#F8F2EA" stroke-width="0.3125" />
    <path
        d="M9.04102 1.00147C9.04102 1.00147 9.32926 1.19082 9.42676 1.32832C9.53076 1.47494 9.581 1.65629 9.61963 1.83186C9.65463 1.99079 9.65259 2.31922 9.65259 2.31922"
        stroke="#F8F2EA" stroke-width="0.3125" stroke-linecap="round" stroke-linejoin="round" />
</svg>
    