<svg width="132" height="130" viewBox="0 0 132 130" fill="none" xmlns="http://www.w3.org/2000/svg">
    <g filter="url(#filter0_d_6003_1902)">
    <path d="M0 60.8022C0.223898 45.3622 5.40139 31.7676 15.8778 20.268C24.4163 10.8974 34.9838 4.87844 47.2754 1.81666C51.0665 0.872541 54.9196 0.324219 58.822 0.10363C66.8912 -0.353935 74.744 0.694809 82.3591 3.42759C90.1525 6.22466 97.039 10.4864 103.05 16.1587C108.166 20.9852 112.154 26.6222 115.395 32.8416C118.732 39.2475 120.9 45.9912 121.873 53.1345C122.309 56.3375 122.505 59.5543 122.399 62.7812C121.907 77.8052 116.666 90.9549 106.447 102.023C97.7878 111.4 87.1331 117.426 74.6251 120.146C71.0377 120.926 67.4073 121.415 63.7313 121.496C47.2982 121.858 32.808 116.745 20.4519 105.94C10.6396 97.3583 4.41345 86.5822 1.50151 73.909C0.598327 69.9812 0.113847 65.9955 0.0581882 61.9619C0.0531284 61.5963 0.0227693 61.232 0.00126496 60.8035L0 60.8022Z" fill="#181818"/>
    <path d="M64.3498 115.469C55.8568 115.623 47.9356 114.231 40.3395 111.134C34.8901 108.913 29.7986 106.068 25.3674 102.163C18.0825 95.7448 12.7558 87.9801 9.39984 78.8804C7.93375 74.9073 6.95214 70.8144 6.42971 66.617C5.9136 62.48 5.75801 58.3253 6.32598 54.1896C7.09002 48.6282 8.72688 43.3076 11.1733 38.2454C15.9979 28.2622 23.1158 20.2857 32.4993 14.3663C38.7128 10.4474 45.4753 7.83814 52.7235 6.51586C56.292 5.86418 59.8908 5.55787 63.5161 5.59191C69.1326 5.64485 74.6491 6.4188 79.9821 8.18604C83.6961 9.41629 87.1545 11.2289 90.4282 13.3667C101.053 20.3058 108.588 29.7571 113.325 41.4559C115.381 46.532 116.661 51.8047 117.173 57.2602C117.421 59.8947 117.56 62.5354 117.338 65.1737C117.073 68.3073 116.441 71.3817 115.584 74.4082C113.042 83.3817 108.551 91.2662 102.152 98.0591C95.4615 105.161 87.4644 110.268 78.1948 113.353C75.4106 114.279 72.5062 114.738 69.5918 115.089C67.7525 115.309 65.9057 115.408 64.3498 115.471V115.469Z" fill="#F8F2EA"/>
    <path d="M63.8938 109.99C56.1995 110.128 49.0232 108.875 42.1415 106.084C37.2045 104.084 32.5918 101.521 28.5773 98.0025C21.9775 92.2201 17.1517 85.225 14.1113 77.0272C12.7831 73.4478 11.8938 69.7606 11.4205 65.9791C10.9529 62.2522 10.812 58.5093 11.3265 54.7835C12.0187 49.7733 13.5016 44.98 15.718 40.4195C20.0889 31.4257 26.5374 24.2398 35.0385 18.9071C40.6677 15.3766 46.7942 13.0259 53.3609 11.8347C56.5937 11.2476 59.8541 10.9716 63.1386 11.0023C68.2268 11.05 73.2246 11.7472 78.0561 13.3393C81.4208 14.4476 84.554 16.0806 87.5199 18.0066C97.1452 24.2579 103.972 32.7725 108.264 43.3118C110.126 47.8848 111.286 52.6349 111.75 57.5497C111.974 59.9231 112.101 62.3021 111.899 64.6789C111.659 67.5019 111.086 70.2716 110.31 72.9982C108.007 81.0824 103.939 88.1854 98.141 94.3051C92.0798 100.703 84.8348 105.304 76.4368 108.083C73.9145 108.918 71.2832 109.331 68.6428 109.647C66.9766 109.845 65.3034 109.934 63.8938 109.991V109.99Z" fill="#181818"/>
    <path d="M17.0061 24.0811C18.2977 22.1425 19.7587 20.3324 21.3196 18.608C22.1861 17.6513 23.2171 16.8571 24.2784 15.9886C21.9812 18.8714 19.4867 21.4769 17.1137 24.1883C17.02 24.2097 16.9707 24.1883 17.0061 24.0811Z" fill="#F8F2EA"/>
    <path d="M98.037 17.8832C100.834 20.1534 103.373 22.6795 105.627 25.4866C105.646 25.5786 105.619 25.6253 105.517 25.5912C103.107 22.9391 100.514 20.4685 97.9181 18.0005C97.9004 17.9047 97.9333 17.858 98.0358 17.8832H98.037Z" fill="#F8F2EA"/>
    <path d="M121.033 57.0246C121.338 59.3817 121.497 61.7452 121.266 64.1175C121.18 65.0074 121.043 65.8923 120.929 66.7797C120.665 66.6561 120.841 66.4532 120.838 66.2818C120.979 64.0784 121.108 61.875 121.032 59.6654C121.003 58.8196 120.965 57.9738 120.929 57.128C120.895 57.0259 120.939 57.0006 121.033 57.0233V57.0246Z" fill="#F8F2EA"/>
    <path d="M68.5227 117.272C67.2236 117.439 65.9257 117.612 64.6254 117.774C63.4034 117.926 62.1777 118.053 60.957 118.222C60.6344 118.268 60.327 118.217 60.0133 118.21C59.921 118.207 59.7477 118.289 59.7692 118.081C59.7831 117.949 59.8919 117.897 60.0222 117.888C60.4877 117.858 60.9519 117.81 61.4187 117.794C63.5172 117.721 65.6006 117.481 67.6815 117.215C67.9585 117.18 68.2381 117.136 68.5227 117.271V117.272Z" fill="#F8F2EA"/>
    <path d="M38.4518 10.0328C40.9614 8.62983 43.7051 7.84075 46.4311 7.00756C46.5399 6.971 46.5665 7.02016 46.5475 7.11848C43.8531 8.0437 41.1702 9.00294 38.5568 10.1399C38.453 10.1702 38.4277 10.1261 38.4518 10.0328Z" fill="#F8F2EA"/>
    <path d="M95.2083 106.688C97.4004 104.774 99.6445 102.916 101.676 100.821C101.185 101.777 96.5883 105.969 95.2083 106.688Z" fill="#F8F2EA"/>
    <path d="M105.015 20.1471C105.973 20.8492 109.656 25.1576 110.169 26.137C108.317 24.2564 106.861 22.0353 105.015 20.1471Z" fill="#F8F2EA"/>
    <path d="M95.5031 14.3161C94.1749 13.5471 92.848 12.777 91.5198 12.0081C92.9833 12.5413 94.5316 12.9244 95.5031 14.3161Z" fill="#F8F2EA"/>
    <path d="M16.7023 27.2666C17.6118 25.9619 18.639 24.7468 19.6586 23.5279C19.7294 23.4422 19.7901 23.2405 19.9583 23.3665C20.1443 23.5065 19.9799 23.6186 19.8862 23.7296C18.8604 24.9447 17.8345 26.1611 16.8099 27.3775C16.72 27.3926 16.6694 27.3687 16.7036 27.2666H16.7023Z" fill="#F8F2EA"/>
    <path d="M120.269 71.6125C120.004 73.3646 119.594 75.0827 119.039 76.7668C119.009 76.8033 118.977 76.8046 118.943 76.7705C119.387 74.9516 119.838 73.1352 120.159 71.2886C120.398 71.3277 120.262 71.494 120.269 71.6113V71.6125Z" fill="#F8F2EA"/>
    <path d="M105.518 25.5913C105.555 25.556 105.592 25.522 105.628 25.4867C106.855 26.8909 107.926 28.4098 108.941 29.9691C108.975 30.0674 108.929 30.0838 108.845 30.0636C107.821 28.5107 106.658 27.0598 105.518 25.5913Z" fill="#F8F2EA"/>
    <path d="M120.269 71.6124C120.22 71.509 120.29 71.3641 120.159 71.2897C120.385 69.6208 120.612 67.9519 120.838 66.283C120.901 66.443 120.804 66.6321 120.929 66.7809C120.709 68.3918 120.489 70.0015 120.27 71.6124H120.269Z" fill="#F8F2EA"/>
    <path d="M118.452 78.6722C118.176 80.0601 117.59 81.3433 117.102 82.6592C117.016 82.8912 116.916 83.1181 116.823 83.3475C116.739 83.3588 116.68 83.35 116.735 83.2441C117.303 81.7 117.9 80.1647 118.373 78.5878C118.411 78.5739 118.449 78.5613 118.475 78.6054C118.485 78.6231 118.471 78.6483 118.453 78.6722H118.452Z" fill="#F8F2EA"/>
    <path d="M119.321 45.1255C119.787 46.5713 120.236 48.0221 120.283 49.5549C119.962 48.0789 119.642 46.6028 119.321 45.1255Z" fill="#F8F2EA"/>
    <path d="M58.6734 4.43863C59.7663 4.33275 60.8542 4.16132 61.9522 4.13232C61.9572 4.19283 61.9636 4.25207 61.9686 4.31258C60.9048 4.39073 59.841 4.46888 58.7759 4.54703C58.6747 4.5735 58.6456 4.53191 58.6721 4.43737L58.6734 4.43863Z" fill="#F8F2EA"/>
    <path d="M4.5148 60.7405V63.7191C4.46167 63.7191 4.40854 63.7165 4.35541 63.7153C4.13025 62.6438 4.52492 61.5926 4.5148 60.7405Z" fill="#F8F2EA"/>
    <path d="M7.62782 42.5464C7.42796 43.0884 7.22303 43.6304 7.02949 44.1749C6.97889 44.3174 6.91818 44.4321 6.7512 44.3653C6.53616 44.2783 6.69934 44.1548 6.74741 44.0564C6.99407 43.5497 7.24707 43.048 7.49879 42.5438C7.54307 42.5022 7.58608 42.5035 7.62908 42.5476L7.62782 42.5464Z" fill="#F8F2EA"/>
    <path d="M49.2399 5.50752C48.2684 5.74827 47.2982 5.98903 46.3267 6.23105C47.2033 5.74323 48.1697 5.57432 49.1361 5.40289C49.2348 5.37516 49.2639 5.4155 49.2399 5.50878V5.50752Z" fill="#F8F2EA"/>
    <path d="M6.7141 76.3771C6.2486 75.4418 6.11704 74.4132 5.98169 73.3846C6.22583 74.3817 6.46996 75.38 6.7141 76.3771Z" fill="#F8F2EA"/>
    <path d="M16.7023 27.2665C16.7378 27.303 16.7732 27.3408 16.8086 27.3774C16.3646 27.9862 15.9206 28.5963 15.4766 29.2051C15.4386 29.1799 15.402 29.1547 15.364 29.1295C15.7928 28.498 16.2002 27.8514 16.7023 27.2665Z" fill="#F8F2EA"/>
    <path d="M24.7766 104.465C25.3711 104.935 25.9657 105.406 26.5602 105.876C25.6305 105.448 25.0549 104.991 24.7766 104.465Z" fill="#F8F2EA"/>
    <path d="M71.0646 3.55645C70.3891 3.50603 69.7124 3.45435 68.9875 3.40014C69.7326 3.01191 70.3955 3.46821 71.0773 3.43292C71.0722 3.47325 71.0684 3.51485 71.0634 3.55519L71.0646 3.55645Z" fill="#F8F2EA"/>
    <path d="M83.4573 8.59973C84.2378 8.69931 84.9145 8.99805 85.5305 9.44679C84.8399 9.16444 84.1479 8.88209 83.4573 8.59973Z" fill="#F8F2EA"/>
    <path d="M46.5478 7.11841C46.5086 7.08186 46.4706 7.04404 46.4314 7.00749C46.9981 6.74782 47.604 6.63564 48.1998 6.48816C48.2125 6.5285 48.2251 6.56883 48.2378 6.60917C47.6736 6.77934 47.1107 6.94825 46.5465 7.11841H46.5478Z" fill="#F8F2EA"/>
    <path d="M74.4924 116.788C74.9743 116.645 75.4563 116.502 75.9382 116.359C75.6511 116.856 75.1223 116.742 74.7011 116.896C74.5974 116.924 74.4797 116.981 74.4924 116.788Z" fill="#F8F2EA"/>
    <path d="M65.1606 118.917C65.9335 118.903 66.6963 118.685 67.4768 118.831C66.7039 118.845 65.9437 119.096 65.1606 118.917Z" fill="#F8F2EA"/>
    <path d="M23.0393 101.416C23.4782 101.827 23.9185 102.239 24.3574 102.65C24.3296 102.679 24.3005 102.709 24.2726 102.738C23.7869 102.374 23.3619 101.948 23.0393 101.416Z" fill="#F8F2EA"/>
    <path d="M25.685 103.942C25.2182 103.623 24.7957 103.256 24.439 102.816C24.9272 103.107 25.3535 103.473 25.7558 103.869C25.7659 103.924 25.7419 103.949 25.685 103.942Z" fill="#F8F2EA"/>
    <path d="M9.26627 84.6864C8.95762 84.1835 8.75523 83.6402 8.67554 83.0465C8.89817 83.5709 9.1208 84.0965 9.34344 84.6209C9.34344 84.6726 9.31814 84.694 9.26754 84.6877L9.26627 84.6864Z" fill="#F8F2EA"/>
    <path d="M98.0373 17.883C97.9981 17.9221 97.9588 17.9612 97.9196 18.0003C97.6173 17.7255 97.315 17.4507 97.0139 17.1759C97.4326 17.3133 97.7552 17.5717 98.0385 17.883H98.0373Z" fill="#F8F2EA"/>
    <path d="M108.845 30.0638C108.877 30.0323 108.91 30.0008 108.941 29.9692C109.272 30.3348 109.498 30.7608 109.656 31.2348C109.385 30.844 109.116 30.4533 108.845 30.0638Z" fill="#F8F2EA"/>
    <path d="M49.24 5.50778C49.2058 5.47248 49.1704 5.43719 49.1362 5.4019C49.6258 5.24055 50.1229 5.11702 50.6415 5.11072C50.6529 5.12332 50.663 5.13719 50.6744 5.14979C50.2152 5.34643 49.7219 5.4019 49.24 5.50652V5.50778Z" fill="#F8F2EA"/>
    <path d="M33.0166 108.985C33.3784 109.195 33.7414 109.406 34.1032 109.615C33.6643 109.545 33.2949 109.34 33.0166 108.985Z" fill="#F8F2EA"/>
    <path d="M74.4919 116.788C74.5172 116.909 74.6311 116.86 74.7006 116.896C74.268 116.997 73.8367 117.099 73.4041 117.2C73.7355 116.961 74.1099 116.862 74.4919 116.788Z" fill="#F8F2EA"/>
    <path d="M121.033 57.0244C120.999 57.0597 120.964 57.0937 120.929 57.129C120.795 56.7622 120.832 56.3878 120.923 56.0084L121.033 57.0244Z" fill="#F8F2EA"/>
    <path d="M27.2249 105.146C26.8909 104.948 26.5734 104.729 26.3078 104.444C26.3053 104.395 26.3306 104.377 26.3774 104.388C26.7088 104.532 26.9441 104.803 27.2224 105.017C27.2666 105.059 27.2679 105.102 27.2249 105.146Z" fill="#F8F2EA"/>
    <path d="M38.4524 10.0329C38.4878 10.0682 38.5219 10.1047 38.5573 10.14C38.2904 10.3253 37.9944 10.4413 37.6719 10.4917C37.9008 10.2812 38.1589 10.1274 38.4511 10.0316L38.4524 10.0329Z" fill="#F8F2EA"/>
    <path d="M58.6738 4.43848C58.708 4.47503 58.7434 4.51159 58.7775 4.54814C58.4448 4.71705 58.0982 4.63512 57.7466 4.55696C58.0552 4.51789 58.3651 4.47755 58.6738 4.43848Z" fill="#F8F2EA"/>
    <path d="M7.62736 42.546C7.58435 42.546 7.54008 42.5435 7.49707 42.5422C7.62483 42.2611 7.75259 41.98 7.88035 41.7002C7.8715 42.0128 7.8209 42.3052 7.62736 42.546Z" fill="#F8F2EA"/>
    <path d="M9.75781 37.1223C9.91087 36.811 10.0639 36.4984 10.217 36.187C10.2549 36.2047 10.2942 36.2223 10.3321 36.24C10.1866 36.5551 10.0956 36.8954 9.75781 37.1223Z" fill="#F8F2EA"/>
    <path d="M117.564 46.4314C117.49 46.1339 117.415 45.8364 117.34 45.5389C117.559 45.7595 117.653 46.0217 117.657 46.3142C117.705 46.415 117.657 46.4415 117.563 46.4314H117.564Z" fill="#F8F2EA"/>
    <path d="M116.735 83.2445C116.764 83.2785 116.793 83.3138 116.822 83.3479C116.728 83.6113 116.623 83.8685 116.37 84.1483C116.464 83.7752 116.577 83.5017 116.735 83.2445Z" fill="#F8F2EA"/>
    <path d="M17.0061 24.0811C17.0415 24.1163 17.0782 24.1529 17.1136 24.1882C16.9934 24.4605 16.7759 24.6533 16.5532 24.8474C16.643 24.555 16.7872 24.2966 17.0061 24.0811Z" fill="#F8F2EA"/>
    <path d="M9.34152 84.621C9.50091 84.8983 9.65144 85.1769 9.68433 85.5071C9.49205 85.26 9.3352 84.9966 9.26562 84.6878C9.29092 84.6651 9.31622 84.6437 9.34152 84.621Z" fill="#F8F2EA"/>
    <path d="M27.2247 105.146C27.2247 105.103 27.2234 105.06 27.2222 105.017C27.4726 105.161 27.7016 105.331 27.8749 105.576C27.6333 105.471 27.3904 105.37 27.2247 105.147V105.146Z" fill="#F8F2EA"/>
    <path d="M116.758 43.1338C116.564 42.9208 116.418 42.6901 116.47 42.2905C116.59 42.6422 116.675 42.888 116.758 43.1338Z" fill="#F8F2EA"/>
    <path d="M117.564 46.4311C117.596 46.392 117.626 46.3529 117.658 46.3138C117.784 46.5483 117.821 46.8017 117.782 47.0739C117.71 46.8596 117.636 46.6454 117.564 46.4311Z" fill="#F8F2EA"/>
    <path d="M118.943 76.7705C118.976 76.7844 119.008 76.7818 119.039 76.7667C118.967 76.9961 118.895 77.2268 118.78 77.5936C118.74 77.1966 118.805 76.976 118.943 76.7718V76.7705Z" fill="#F8F2EA"/>
    <path d="M50.6414 5.11179C50.9045 4.97944 51.1802 4.92145 51.5787 4.96809C51.2106 5.04246 50.9589 5.16978 50.6742 5.15087C50.6629 5.13826 50.6527 5.1244 50.6414 5.11179Z" fill="#F8F2EA"/>
    <path d="M26.3074 104.444C26.1 104.276 25.8925 104.11 25.6851 103.942C25.7091 103.918 25.7319 103.893 25.7559 103.869C25.9924 104.008 26.2012 104.179 26.377 104.388C26.3466 104.397 26.3239 104.416 26.3074 104.444Z" fill="#F8F2EA"/>
    <path d="M118.452 78.6726C118.426 78.6449 118.399 78.6159 118.373 78.5882C118.436 78.3688 118.499 78.1495 118.563 77.9302C118.597 78.1924 118.607 78.4482 118.451 78.6726H118.452Z" fill="#F8F2EA"/>
    </g>
    <path d="M24.9933 83.2127C24.6413 83.3131 24.3067 83.4685 24.0013 83.6733L23.5129 83.6536C22.749 83.6273 22.1293 83.3048 21.7915 82.6051C21.3999 81.811 21.4042 81.006 21.9658 80.2712C22.2541 79.8917 22.5532 79.5167 22.8695 79.1613C27.1902 74.3473 31.5137 69.5341 35.84 64.7216C36.8277 63.6248 37.7981 62.5105 38.8266 61.4555C39.6615 60.6 40.6017 60.7119 41.314 61.6551C44.1262 65.3709 46.8245 69.1722 49.5399 72.9603C50.8008 74.7151 52.0445 76.4918 53.3097 78.2795C53.398 78.1786 53.4797 78.0953 53.5529 78.0031C58.1532 72.2145 63.0204 66.6584 68.0059 61.2252C68.2404 60.9338 68.5506 60.7156 68.901 60.5956C69.7767 60.3478 70.5062 60.6417 71.1409 61.4599C71.9457 62.4996 72.6471 63.6073 73.3873 64.6975C75.4056 67.6981 77.2905 70.7888 79.4121 73.7105C80.5353 75.2459 81.6133 76.8274 82.7279 78.4089C82.8225 78.2993 82.9022 78.2137 82.9732 78.1216C86.6956 73.4319 90.4848 68.8 94.3406 64.2259C95.1389 63.2805 95.8468 62.2517 96.7484 61.4028C96.9976 61.1788 97.2966 61.0202 97.6196 60.9408C97.9426 60.8615 98.2797 60.8637 98.6016 60.9474C98.9235 61.031 99.2205 61.1936 99.4668 61.4209C99.7131 61.6482 99.9011 61.9334 100.015 62.2517C100.188 62.6998 100.271 63.1791 100.257 63.6606C100.243 64.1421 100.134 64.6157 99.9351 65.0528C99.5422 65.8572 99.0995 66.6353 98.6096 67.3823C98.4557 67.4988 98.3347 67.6547 98.2589 67.8341C98.19 67.8758 98.0975 67.8999 98.1578 68.0162V68.0052C98.0373 67.9658 98.0157 68.0776 97.9663 68.139C97.3616 68.8782 96.7505 69.6109 96.161 70.361C94.8699 71.9996 93.6306 73.6842 92.1674 75.1757L92.1093 75.0376C92.3008 74.7524 92.4923 74.4672 92.6881 74.1865C94.3062 71.8789 95.9738 69.6109 97.7339 67.413C98.303 66.7337 98.768 65.9705 99.1131 65.1493C99.0006 65.2314 98.9018 65.3314 98.8205 65.4454C96.9227 67.9021 95.0894 70.4115 93.1163 72.809C93.0001 72.9515 92.9184 73.138 92.7204 73.1972C92.615 73.0744 92.5052 72.9669 92.4321 73.2192L92.3632 73.3003L92.176 73.5833C92.1566 73.6951 91.9114 73.7566 92.1072 73.9123C92.1244 73.9359 92.1318 73.9655 92.1278 73.9947C92.1237 74.0238 92.1086 74.0502 92.0856 74.068C92.0598 73.9364 91.9996 73.8246 91.8984 73.9978C91.849 74.0812 91.5456 74.1996 91.864 74.3422C89.7274 76.9744 87.5025 79.5232 85.2475 82.0457C84.63 82.7345 83.9931 83.4101 83.1259 83.7852C82.2588 84.1603 81.4046 83.9672 80.914 83.3289C77.5552 78.942 74.4416 74.3729 71.4142 69.7425C70.7407 68.7115 70.0758 67.6762 69.3873 66.619C68.7418 67.3472 68.1479 68.0447 67.5347 68.7357C65.0624 71.5258 62.5621 74.2896 60.122 77.106C58.306 79.2008 56.604 81.3987 54.7256 83.4386C53.824 84.4147 52.4985 84.3774 51.7132 83.3246C50.6373 81.879 49.5442 80.4335 48.4856 78.9771C45.6948 75.1867 42.9944 71.3262 40.2876 67.481C40.1348 67.2616 40.0531 67.1651 39.8228 67.4283C36.1951 71.5477 32.4898 75.5947 28.6684 79.5276C27.4892 80.7406 26.4155 82.0743 25.0105 83.0372C24.9825 83.0701 24.9976 83.1578 24.9933 83.2127ZM38.2758 66.8537C38.3339 66.8537 38.3597 66.8208 38.3661 66.7637C38.4242 66.7637 38.4522 66.7352 38.4608 66.6804L38.5447 66.586C38.7331 66.4899 38.8769 66.3221 38.9449 66.1188C38.7298 66.1824 38.62 66.3755 38.4845 66.5312L38.3876 66.6255L38.3274 66.7155L38.2521 66.8229C38.194 66.8449 38.1251 66.8646 38.1961 66.948C38.1208 66.88 38.0929 66.948 38.0606 66.9984C37.9874 67.0489 37.9121 67.0971 37.8992 67.198C37.8353 67.2435 37.7889 67.3102 37.768 67.3867L37.7529 67.3604C37.7921 67.3473 37.8296 67.3296 37.8648 67.3077C37.8883 67.2804 37.9072 67.2492 37.9207 67.2156C37.9653 67.209 38.0067 67.1883 38.0392 67.1564C38.0716 67.1245 38.0934 67.0831 38.1015 67.0379C38.1135 67.0385 38.1255 67.0362 38.1366 67.0314C38.1476 67.0265 38.1575 67.0192 38.1653 67.0099C38.1732 67.0006 38.1789 66.9896 38.182 66.9777C38.1851 66.9659 38.1855 66.9534 38.1832 66.9414C38.2435 66.9436 38.2822 66.9217 38.2758 66.8537ZM84.9183 80.5608L84.9743 80.4116C85.0582 80.3984 85.0775 80.3239 85.112 80.2646C85.4044 79.9906 85.6585 79.6769 85.8672 79.3324C85.893 79.3082 85.9174 79.2826 85.9404 79.2556C85.8758 79.1745 85.8564 79.2556 85.8263 79.2929C85.5289 79.5669 85.2717 79.8831 85.0625 80.2317C84.9829 80.269 84.9011 80.3085 84.985 80.4204C84.9291 80.4204 84.8688 80.4204 84.8602 80.4884C84.8602 80.5125 84.8968 80.5432 84.9183 80.5673L84.8559 80.4928L84.8086 80.5454L84.9183 80.5608ZM85.9812 79.0253C86.0071 79.0451 86.0393 79.0845 86.063 79.0802C86.1276 79.067 86.1233 79.0056 86.119 78.9507C86.1512 78.8433 86.205 78.7665 86.3341 78.7818H86.3126L86.3277 78.7994C86.3183 78.845 86.2949 78.8865 86.2608 78.9176C86.2268 78.9488 86.1839 78.9681 86.1383 78.9727C86.091 78.9924 86.0415 79.0122 85.9985 79.0341V79.1481C86.0178 79.1481 86.0544 79.1482 86.0587 79.1306C86.0781 79.0516 86.0415 79.0253 85.9812 79.0253ZM27.2827 79.0516C27.3322 79.0516 27.3731 79.0516 27.3322 78.9902L27.2891 79.0582L27.1988 79.1481L27.1192 79.2403L27.1708 79.2644C27.1708 79.2249 27.1859 79.1832 27.1945 79.1438C27.2075 79.1458 27.2207 79.1446 27.2332 79.1403C27.2456 79.1359 27.2568 79.1286 27.2659 79.1189C27.275 79.1093 27.2817 79.0975 27.2853 79.0846C27.289 79.0718 27.2896 79.0582 27.287 79.0451L27.2827 79.0516ZM56.1607 77.3297C56.193 77.3297 56.2382 77.3561 56.2533 77.3407C56.3114 77.2925 56.2533 77.2552 56.2274 77.2201C56.3286 77.3473 56.3329 77.2201 56.3609 77.163L56.3845 77.0972L56.4319 77.1367L56.3738 77.1784C56.3495 77.1688 56.3225 77.1692 56.2984 77.1794C56.2744 77.1896 56.2551 77.2089 56.2447 77.2332L56.1737 77.3385L56.1026 77.4263C56.1285 77.4263 56.1629 77.4438 56.1758 77.4263C56.221 77.389 56.1909 77.3539 56.1607 77.3232V77.3297ZM28.5221 76.1606L28.5479 76.1365L28.5285 76.165L28.4403 76.2571C28.3048 76.3237 28.194 76.4329 28.124 76.5686C28.0853 76.63 27.9906 76.6739 28.0551 76.7726L28.1929 76.6366C28.3026 76.5269 28.4704 76.4545 28.4338 76.2506C28.5092 76.2593 28.5221 76.2133 28.5221 76.154V76.1606ZM47.4399 73.5416C47.4671 73.571 47.4958 73.5988 47.5259 73.6249C47.6056 73.5591 47.5152 73.535 47.4915 73.4933C47.4678 73.4517 47.4571 73.4122 47.4162 73.4451C47.3753 73.478 47.3968 73.5131 47.4399 73.5416ZM47.0934 73.0503C47.1257 73.0722 47.1795 73.1183 47.1903 73.1095C47.2548 73.0546 47.2075 73.013 47.1623 72.9735L47.1085 72.8638L46.9859 72.7037C46.9643 72.6357 46.9278 72.5501 46.8525 72.6137C46.7771 72.6774 46.8525 72.7366 46.9041 72.7848L47.0203 72.9384L47.0934 73.0503ZM41.8906 68.773L41.9724 68.8168V68.7159C41.938 68.6852 41.9186 68.6041 41.8583 68.6523C41.7981 68.7006 41.8583 68.7335 41.8906 68.7686V68.773ZM41.4194 68.1588C41.4177 68.1932 41.4266 68.2272 41.4447 68.2563C41.4628 68.2854 41.4893 68.308 41.5205 68.3211L41.6023 68.4176C41.6453 68.4988 41.6884 68.6479 41.7916 68.558C41.8949 68.4681 41.7314 68.3979 41.6798 68.3211C41.6723 68.2952 41.6553 68.2732 41.6324 68.2597L41.4904 68.082C41.4904 68.0535 41.4753 68.0381 41.4495 68.0359L41.3118 67.8999L41.2257 67.8254C41.2257 67.8363 41.1978 67.8561 41.1999 67.8583L41.2752 67.9372L41.4194 68.1588ZM26.7512 79.5934C26.8115 79.6285 26.8545 79.5934 26.8889 79.5518C26.8897 79.5447 26.8887 79.5376 26.8861 79.5311C26.8835 79.5246 26.8793 79.5189 26.8739 79.5145C26.8608 79.5109 26.8472 79.5102 26.8338 79.5125C26.8205 79.5148 26.8078 79.5199 26.7966 79.5276C26.7854 79.5353 26.7759 79.5454 26.7688 79.5571C26.7618 79.5688 26.7572 79.582 26.7555 79.5956L26.6565 79.7141C26.6781 79.7141 26.706 79.7426 26.7168 79.736C26.7291 79.7293 26.74 79.72 26.7485 79.7087C26.7571 79.6973 26.7632 79.6843 26.7665 79.6704C26.7697 79.6565 26.77 79.6421 26.7674 79.6281C26.7648 79.614 26.7593 79.6007 26.7512 79.589V79.5934ZM49.91 77.1082C49.9272 77.0731 50.0198 77.0512 49.9272 76.9963L49.9122 77.1082C49.9316 77.1082 49.9595 77.1082 49.9724 77.1082C50.0413 77.1587 50.065 77.1499 50.0305 77.0665C49.9894 77.0755 49.9491 77.088 49.91 77.1038V77.1082ZM76.0985 71.6618C76.12 71.6815 76.1479 71.7188 76.163 71.7144C76.2233 71.6969 76.206 71.653 76.1802 71.6113C76.1403 71.4776 76.066 71.3572 75.9651 71.2626C75.9422 71.2376 75.9177 71.2141 75.8919 71.1924C75.8381 71.2384 75.8682 71.2801 75.9027 71.3218C75.9235 71.455 75.9936 71.5751 76.0985 71.6574V71.6618ZM76.3136 72.1268C76.4255 72.14 76.4191 72.072 76.3932 71.9974C76.3932 71.9754 76.3567 71.9623 76.3373 71.9425L76.3179 72.129C76.4815 72.1729 76.447 72.4229 76.7203 72.4602C76.5266 72.322 76.5977 72.0303 76.305 72.1224L76.3136 72.1268ZM84.0361 80.3414C83.9027 80.5893 83.4594 80.6463 83.5799 81.1179C83.7904 80.9117 83.965 80.6707 84.0964 80.405C84.176 80.3721 84.1889 80.3195 84.1501 80.2449L84.0361 80.3414ZM96.4041 64.6755L95.6747 65.5222C96.0141 65.3509 96.2887 65.0703 96.4558 64.7238C96.4558 64.6843 96.4794 64.6163 96.4687 64.6119C96.4084 64.5878 96.4127 64.6448 96.4041 64.6799V64.6755ZM49.6174 76.6125C49.6647 76.7265 49.7164 76.8318 49.8605 76.8538C49.7573 76.7989 49.8175 76.5686 49.6088 76.6344C49.626 76.6147 49.6626 76.5818 49.6583 76.5774C48.987 75.6181 48.3135 74.6603 47.6378 73.7039L47.5216 73.7895C48.1545 74.7793 48.8548 75.7227 49.6174 76.6125ZM56.0725 77.4899C55.3854 78.1267 54.7854 78.8549 54.2888 79.6548C54.9584 79.0035 55.5539 78.2772 56.0639 77.4899H56.0725ZM46.2715 71.8482L46.3576 71.7868C45.8282 70.9986 45.2996 70.2097 44.7718 69.42L44.6513 69.5078L46.2715 71.8482ZM74.801 69.374L74.6611 69.4442C74.7916 69.7538 74.9696 70.0403 75.1883 70.293L75.3066 70.2163L74.801 69.374ZM77.6369 74.1843L77.7144 74.1294C77.4748 73.7375 77.2338 73.3515 76.9914 72.9713L76.8924 73.0371L77.6369 74.1843ZM41.1268 67.8012L41.2064 67.7201L40.4683 66.7418L40.3565 66.8339L41.1268 67.8012ZM64.4577 66.9897C64.7009 66.8558 65.015 66.7703 65.0516 66.3075L64.4577 66.9897ZM46.6523 72.3703C46.5727 72.208 46.5706 71.982 46.3059 71.8833L46.6523 72.3703ZM76.9161 72.9559C76.8873 72.7519 76.7844 72.5664 76.6278 72.4361C76.6527 72.6399 76.7536 72.826 76.9096 72.9559H76.9161ZM47.2871 73.1248C47.2634 73.1863 47.2355 73.2257 47.2462 73.2455C47.2756 73.2906 47.3095 73.3325 47.3473 73.3705C47.3646 73.3442 47.4011 73.3069 47.3947 73.2893C47.3619 73.2309 47.3237 73.1758 47.2806 73.1248H47.2871ZM77.7617 74.419C77.7741 74.3935 77.7821 74.3661 77.7854 74.3378C77.7854 74.3225 77.7596 74.3093 77.7445 74.294C77.7328 74.3166 77.7248 74.3411 77.7208 74.3663C77.723 74.3751 77.7445 74.3905 77.7617 74.419ZM75.7004 70.8831L75.7219 70.8962V70.8699L75.7004 70.8831ZM75.8295 71.0432C75.8295 71.0432 75.8101 71.0279 75.8058 71.03C75.7962 71.0369 75.7875 71.045 75.78 71.0542L75.8273 71.0695C75.8248 71.061 75.8234 71.0521 75.823 71.0432H75.8295ZM27.0202 79.3785L26.9965 79.3478L26.9664 79.3719L27.003 79.4048L27.0202 79.3785ZM26.549 79.8566L26.5769 79.8325C26.5769 79.8325 26.5597 79.8084 26.5511 79.8062C26.5425 79.804 26.5317 79.8216 26.5231 79.8303L26.549 79.8566Z" fill="#181818"/>
    <path d="M35.571 40.3936C36.1412 40.0317 36.5091 39.4613 36.9545 38.9744C37.6 38.2637 38.1616 37.4565 38.9642 36.8884C39.8593 36.2501 41.0643 36.3488 41.7464 37.2262C43.3903 39.3319 45.0062 41.464 46.6178 43.5873C48.8169 46.4944 51.0066 49.4088 53.187 52.3305C53.3849 52.5938 53.4818 52.6003 53.6969 52.3437C56.9245 48.47 60.2855 44.7082 63.81 41.0977C65.2043 39.6675 66.6143 38.2542 68.0402 36.8577C68.7869 36.1272 70.1812 35.682 71.3517 36.6515C71.8904 37.0986 72.356 37.6302 72.7309 38.2264C75.4808 42.5783 78.3533 46.8424 81.4217 50.9706C81.7876 51.4988 82.1211 52.0497 82.4201 52.6201C82.5535 52.857 82.6202 52.8394 82.7859 52.6486C86.669 48.3888 90.5549 44.1298 94.4438 39.8715C95.0786 39.1784 95.666 38.448 96.333 37.7833C97.992 36.1316 100.15 37.4784 100.602 39.2157C100.766 39.8474 100.557 40.4418 100.314 41.0099C99.6509 42.5454 98.6697 43.8922 97.6714 45.2149C96.0597 47.3491 94.2695 49.3342 92.5933 51.4115C90.8086 53.6315 88.911 55.7548 86.9085 57.7726C85.8649 58.8189 84.7912 59.8279 83.681 60.782C83.472 60.9628 83.2243 61.091 82.9578 61.1562C82.6913 61.2213 82.4135 61.2217 82.1468 61.1571C81.4293 61.0182 80.7924 60.6016 80.3695 59.9946C79.2291 58.3824 78.0629 56.7921 76.9052 55.1952C76.8299 55.0921 76.7912 54.9452 76.6384 54.9167L71.9972 48.2419L71.9283 48.2923L71.9628 48.6806C71.2026 47.6702 70.4965 46.6187 69.8476 45.5307C69.6798 45.2565 69.5873 45.2083 69.3506 45.4693C66.9335 48.1468 64.5093 50.8178 62.0778 53.4821C61.3656 54.263 60.6362 55.0285 59.9089 55.7941C59.8293 55.8774 59.7777 56.0551 59.5969 55.9673C59.6378 55.7612 59.8121 55.6471 59.9304 55.5067C63.0518 51.9225 66.1783 48.3399 69.3097 44.7586C69.4582 44.5897 69.6174 44.4274 69.3958 44.2366C69.1742 44.0457 69.0989 44.3506 69.0149 44.445C66.9077 46.7759 64.8091 49.1156 62.719 51.4641C60.0409 54.456 57.3606 57.4406 54.6781 60.4179C54.4629 60.6636 54.3252 60.9509 54.6458 61.2361C54.4715 61.2361 54.3468 61.348 54.2004 61.416C53.8898 61.5802 53.5345 61.635 53.1901 61.5719C52.8457 61.5088 52.5314 61.3314 52.2962 61.0672C51.5789 60.3306 50.9151 59.5418 50.3102 58.707C47.2547 54.6512 43.9669 50.7863 40.8297 46.7986C40.5177 46.3993 40.1842 46.0155 39.8894 45.6009C39.6743 45.2872 39.5452 45.2192 39.2719 45.5768C37.897 47.382 36.3865 49.0688 34.8587 50.7425C32.735 53.0675 30.4585 55.2303 28.2315 57.4479C27.1556 58.5184 26.0561 59.5142 24.6317 60.0801C23.5903 60.4925 22.6435 60.4223 21.7785 59.6678C21.432 59.3921 21.1774 59.014 21.0496 58.5853C20.9217 58.1566 20.9268 57.6981 21.0642 57.2725C21.4063 55.9959 22.1142 54.9232 22.9555 53.9449C24.1131 52.5981 25.303 51.282 26.4865 49.9616C28.2659 47.9721 30.1659 46.1032 32.0336 44.2015C32.1175 44.1159 32.2789 44.0677 32.2337 43.89C32.2777 43.8801 32.3176 43.8564 32.3478 43.8222C32.3779 43.7879 32.3967 43.7449 32.4015 43.6992C32.5664 43.6428 32.7159 43.5477 32.8381 43.4216C32.9603 43.2955 33.0518 43.1419 33.1051 42.9731L33.1266 43.0038L33.1073 42.9709C33.3052 43.0038 33.3741 42.892 33.3805 42.7121C34.0452 42.0927 34.6665 41.4264 35.2396 40.7182C35.4376 40.7182 35.515 40.591 35.5537 40.4177L35.571 40.3936ZM96.4234 45.9036C96.7799 45.6363 97.1029 45.3254 97.3852 44.978C98.5486 43.7748 99.4594 42.3425 100.062 40.7687C100.248 40.3137 100.31 39.8161 100.242 39.3282C100.174 38.8403 99.9776 38.3801 99.6746 37.9961C98.7946 36.8796 97.3185 36.9827 96.3481 38.1518C91.8574 43.5588 87.3303 48.935 82.9946 54.4714C82.8117 54.7039 82.7256 54.7785 82.5126 54.4714C79.6551 50.363 76.7245 46.3072 74.0521 42.065C73.1548 40.6371 72.2038 39.2398 71.1946 37.8974C70.5319 37.0068 69.7939 36.6866 68.8643 36.963C68.3113 37.1253 67.9757 37.5903 67.6077 37.9939C62.803 43.2802 58.0821 48.6411 53.6388 54.2476C53.5356 54.3793 53.4237 54.4999 53.3118 54.6227C50.9557 51.3325 48.6383 48.062 46.2951 44.8135C44.6081 42.4774 42.8868 40.1633 41.1826 37.8404C41.0407 37.6291 40.8419 37.4642 40.6102 37.3653C40.3785 37.2665 40.1237 37.238 39.8765 37.2832C39.2676 37.3578 38.8566 37.7219 38.4736 38.1474C35.4454 41.5196 32.4187 44.8924 29.3934 48.266C26.8802 51.0802 24.2573 53.7914 21.8624 56.7219C21.7785 56.8228 21.6473 56.9171 21.6236 57.0334C21.4855 57.5999 21.5041 58.1944 21.6774 58.7509C21.7749 58.9988 21.9198 59.2244 22.1037 59.4146C22.2876 59.6048 22.5068 59.7558 22.7486 59.8587C22.9904 59.9616 23.2498 60.0144 23.5118 60.014C23.7738 60.0136 24.033 59.96 24.2745 59.8564C24.8681 59.585 25.409 59.2068 25.8711 58.7399C26.977 57.5883 28.1024 56.4609 29.2148 55.3159C31.8291 52.6201 34.3789 49.8519 36.8964 47.0662C37.7829 46.0901 38.663 45.092 39.5645 44.0984C40.2767 45.0942 40.9696 46.0484 41.6452 47.0157C42.706 48.5336 43.7625 50.0559 45.0342 51.4027C45.0664 51.4619 45.103 51.5869 45.1547 51.5453C45.172 51.5274 45.1851 51.5057 45.1928 51.4818C45.2005 51.4579 45.2027 51.4325 45.1992 51.4076C45.1956 51.3828 45.1864 51.3591 45.1724 51.3384C45.1583 51.3177 45.1397 51.3007 45.1181 51.2886C44.6641 50.3893 44.0831 49.5711 43.571 48.7091L43.6463 48.6235C44.0121 49.1346 44.3822 49.6413 44.7437 50.159C47.0388 53.3878 49.3756 56.5822 51.754 59.7423C51.9228 59.9712 52.1396 60.1588 52.3886 60.2915C52.6375 60.4242 52.9124 60.4986 53.1931 60.5093C53.4739 60.5201 53.7534 60.4668 54.0114 60.3535C54.2694 60.2401 54.4994 60.0696 54.6846 59.8542C54.9535 59.5537 55.2311 59.262 55.4979 58.9614C57.3333 56.8798 59.0289 54.6776 60.86 52.6003C63.2806 49.8453 65.7616 47.1473 68.1758 44.3791C68.5803 43.9141 68.9934 43.4557 69.4109 42.9885L69.4926 43.1003C73.0085 48.5884 76.6607 53.9808 80.4491 59.2773C81.2689 60.4179 82.4631 60.6482 83.6315 59.8937C84.2317 59.48 84.7758 58.9873 85.2496 58.4284C88.249 55.1097 91.128 51.6835 93.9252 48.187C95.1367 46.6757 96.2921 45.1162 97.4756 43.5807L98.7472 41.9202L98.8634 42.0036C97.8994 43.2034 97.142 44.5327 96.3567 45.851C96.3416 45.8861 96.3029 45.9431 96.3115 45.9519C96.3567 45.9979 96.3976 45.9672 96.4234 45.9036Z" fill="#F8F2EA"/>
    <path d="M98.616 67.3823C99.1058 66.6353 99.5485 65.8572 99.9414 65.0528C100.14 64.6158 100.25 64.1421 100.263 63.6606C100.277 63.1791 100.195 62.6998 100.021 62.2517C99.9076 61.9331 99.7195 61.6475 99.4731 61.4199C99.2266 61.1923 98.9293 61.0295 98.6071 60.9458C98.2849 60.8622 97.9474 60.86 97.6242 60.9397C97.301 61.0193 97.0017 61.1784 96.7526 61.4029C95.8489 62.2517 95.1431 63.2805 94.3448 64.2259C90.4875 68.8 86.6984 73.4319 82.9774 78.1216C82.9064 78.2137 82.8267 78.2993 82.7321 78.409C81.6175 76.8275 80.5395 75.2525 79.4163 73.7105C77.2839 70.7888 75.399 67.6982 73.3915 64.6975C72.6578 63.6007 71.9499 62.504 71.1451 61.4599C70.5104 60.6417 69.7809 60.3478 68.9052 60.5957C68.5548 60.7157 68.2446 60.9338 68.0101 61.2252C63.0052 66.6585 58.1467 72.2255 53.5377 78.0032C53.4646 78.0953 53.3828 78.1787 53.2946 78.2796C52.0294 76.4919 50.7857 74.7195 49.5248 72.9603C46.8093 69.1722 44.1111 65.3709 41.2988 61.6551C40.5866 60.7119 39.6463 60.6 38.8114 61.4555C37.7829 62.5106 36.8125 63.6249 35.8249 64.7216C31.4999 69.5341 27.1764 74.3474 22.8544 79.1613C22.5381 79.5167 22.239 79.8918 21.9507 80.2712C21.3891 81.0061 21.3848 81.8067 21.7764 82.6051C22.1206 83.3048 22.7403 83.6273 23.4977 83.6536L23.9862 83.6733C23.6092 83.7701 23.2159 83.781 22.8343 83.7052C22.4527 83.6294 22.0922 83.4687 21.7785 83.2346C20.8684 82.5393 20.5714 81.6093 20.9178 80.4994C21.0147 80.1923 21.1933 79.9115 21.2148 79.5781C21.9894 78.4484 23.0222 77.5469 23.8614 76.4743C23.7818 76.3997 23.502 76.766 23.6075 76.3405C23.7409 76.3405 23.7689 76.2725 23.7151 76.1563C23.8743 76.2067 23.9044 76.1168 23.9023 75.9852C25.7097 73.9277 27.7151 72.0698 29.6021 70.0913C31.4892 68.1127 33.402 66.0443 35.2288 63.9495C35.6915 63.7477 35.9324 63.3024 36.2638 62.958C36.9459 62.2495 37.5226 61.4423 38.2219 60.7492C38.4926 60.4725 38.8058 60.2428 39.1492 60.0692C39.5779 59.8749 40.0588 59.8352 40.5125 59.9569C40.9662 60.0785 41.3658 60.3541 41.6452 60.7382C42.5597 61.8986 43.4548 63.0765 44.3456 64.2478C47.2146 68.0499 50.0835 71.8577 52.9524 75.6715C53.1934 75.9939 53.2989 76.0246 53.5721 75.6956C56.5673 72.1115 59.6772 68.6326 62.9019 65.259C64.5028 63.5942 66.1467 61.9688 67.7756 60.3412C68.8191 59.2927 70.1876 59.2664 71.328 60.2052C72.1005 60.8413 72.5222 61.7275 73.0257 62.5501C75.8703 67.1871 79.0505 71.5828 82.3641 75.8711C82.618 76.1979 82.7235 76.1584 82.9666 75.8711C87.085 71.0103 91.3174 66.2549 95.5864 61.5301C95.9825 61.0631 96.4814 60.6983 97.0424 60.4658C97.6034 60.2332 98.2105 60.1394 98.8139 60.1921C99.436 60.2116 100.026 60.4801 100.455 60.9395C100.884 61.3989 101.119 62.0122 101.108 62.6466C101.129 63.6819 100.916 64.6361 100.208 65.4433C99.7392 65.9807 99.3368 66.5817 98.8914 67.141C98.8419 67.2419 98.8182 67.4481 98.616 67.3823Z" fill="#F8F2EA"/>
    <path d="M24.9932 83.2127C24.9932 83.1578 24.9932 83.0701 25.0125 83.0481C26.4154 82.0742 27.4891 80.7406 28.6704 79.5386C32.4919 75.6056 36.2014 71.5587 39.8249 67.4393C40.0551 67.1761 40.1369 67.2748 40.2896 67.4919C43.0029 71.3371 45.6969 75.1976 48.4812 78.9902C49.557 80.4467 50.6329 81.8922 51.7088 83.3377C52.5006 84.3906 53.826 84.4344 54.7211 83.4517C56.5996 81.4118 58.3016 79.2139 60.1176 77.1191C62.5577 74.3027 65.0665 71.5389 67.5303 68.7488C68.1435 68.0578 68.746 67.3603 69.3829 66.6321C70.0714 67.6893 70.7363 68.7247 71.4098 69.7556C74.4372 74.3861 77.5507 78.9529 80.9096 83.3421C81.3958 83.9804 82.2737 84.1646 83.1215 83.7983C83.9693 83.432 84.6277 82.7476 85.2431 82.0589C87.4981 79.5364 89.723 76.9831 91.8596 74.3553C91.9585 74.2901 92.034 74.1939 92.0748 74.0812C92.0977 74.0633 92.1129 74.037 92.1169 74.0078C92.1209 73.9786 92.1135 73.949 92.0963 73.9254H92.0834C92.206 74.0088 92.2082 73.9013 92.2318 73.8267C92.333 73.7631 92.447 73.7105 92.4233 73.5525C92.5331 73.5306 92.6385 73.5043 92.5245 73.3617L92.5094 73.3771C92.6062 73.4187 92.6385 73.3771 92.6084 73.2849C92.7031 73.32 92.7353 73.2849 92.7052 73.1906H92.7289C92.9268 73.1314 93.0086 72.9449 93.1248 72.8024C95.0979 70.4049 96.9312 67.8955 98.829 65.4388C98.9103 65.3248 99.0091 65.2248 99.1216 65.1427C98.7765 65.9638 98.3115 66.727 97.7424 67.4064C95.9823 69.5999 94.3147 71.8723 92.6966 74.1799C92.5008 74.4606 92.3093 74.7458 92.1178 75.0309C92.0791 75.0638 92.0231 75.0924 92.0533 75.1582C92.0834 75.224 92.1329 75.202 92.1759 75.1582C93.6391 73.6666 94.8763 71.982 96.1695 70.3435C96.759 69.5933 97.3701 68.8607 97.9747 68.1215C98.0242 68.06 98.0458 67.9482 98.1663 67.9877C98.0135 68.4395 97.6714 68.7598 97.3938 69.1173C95.3884 71.6771 93.5207 74.3575 91.369 76.7945C89.2763 79.1837 87.0138 81.4125 84.5997 83.4627C84.1888 83.8058 83.7438 84.1042 83.2721 84.3533C82.9662 84.5221 82.6235 84.6096 82.2756 84.6077C81.9277 84.6057 81.5859 84.5145 81.2818 84.3423C81.0903 84.2436 80.9354 84.0177 80.6707 84.0944C80.391 83.636 80.193 83.1337 79.8703 82.6928C78.5642 80.9139 77.2624 79.1306 75.9972 77.3209C74.1209 74.6449 72.1607 72.0324 70.3576 69.3016C70.2909 69.1985 70.2457 68.9616 70.0499 69.0822C69.8175 69.227 70.0499 69.3652 70.1101 69.4924C70.2737 69.8499 70.6266 70.1066 70.6567 70.5387C70.2909 70.372 70.3382 69.8368 69.9337 69.703C70.0499 69.3366 69.7185 69.1436 69.6153 68.865C69.512 68.5865 69.4001 68.6062 69.2193 68.8168C68.3587 69.7819 67.4743 70.7339 66.5921 71.6837C66.5017 71.778 66.4544 72.0017 66.2392 71.8811C66.3296 71.7473 66.4135 71.6069 66.5103 71.4775C67.1795 70.5628 67.8552 69.6547 68.4469 68.6896C68.4705 68.6501 68.5351 68.615 68.4619 68.5667C68.4386 68.5891 68.4171 68.6133 68.3974 68.6391C68.3716 68.6523 68.3371 68.6567 68.3199 68.6764C67.016 70.1724 65.895 71.8109 64.7373 73.4187C64.662 73.524 64.5932 73.6249 64.7675 73.7017C63.5173 74.8291 62.5985 76.2659 61.4 77.4438C60.9749 77.8748 60.572 78.328 60.1929 78.8015C59.8626 79.1668 59.512 79.5125 59.1429 79.8369C59.0181 79.9553 58.8675 80.0935 59.0848 80.2756L58.9449 80.2098C58.6222 80.2602 58.0993 80.8217 58.1058 81.1157C58.1058 81.1157 58.1294 81.1288 58.1424 81.1354C58.137 81.1455 58.1353 81.1573 58.1377 81.1686C58.14 81.1798 58.1463 81.1899 58.1553 81.1968C58.052 81.0257 57.953 81.1244 57.8454 81.1968C57.7378 81.2692 57.7056 81.4315 57.5399 81.346C57.6195 81.0894 57.839 80.9446 58.0046 80.7603C60.1564 78.4001 62.321 76.0641 64.2274 73.4911C64.3328 73.3485 64.505 73.2301 64.5028 73.002C64.3199 73.002 64.2575 73.1445 64.1757 73.2389C61.9444 75.7416 59.6679 78.2049 57.5055 80.7647C56.6684 81.754 55.7841 82.7038 55.0482 83.7786L54.9643 83.8729C54.9492 83.9058 54.9169 83.9606 54.9256 83.9694C54.9772 84.0133 55.0138 83.9826 55.0353 83.9277L55.1343 83.8466C55.216 83.8312 55.3064 83.7742 55.3494 83.9058C55.0159 84.044 54.8008 84.3445 54.5081 84.5419C53.499 85.2197 52.7868 85.1605 51.954 84.2853C50.5468 82.8003 49.4086 81.0937 48.1305 79.5013C45.9788 76.8179 43.8213 74.1367 41.6581 71.4578C41.0126 70.644 40.3348 69.839 39.7216 68.9967C39.4462 68.6172 39.3128 68.7291 39.0911 69.0164C37.6796 70.8523 36.1282 72.5611 34.5726 74.2808C32.2444 76.8428 29.7183 79.1964 27.274 81.6377C26.6196 82.3067 25.8453 82.8413 24.9932 83.2127ZM91.9328 75.2832L91.823 75.4038C91.894 75.4565 91.95 75.4367 91.9973 75.3644C92.036 75.3314 92.1221 75.3139 92.064 75.2415C92.0059 75.1691 91.9693 75.2415 91.9328 75.2832Z" fill="#F8F2EA"/>
    <path d="M54.6458 61.2361C54.3252 60.9509 54.4586 60.6636 54.6781 60.4179C57.3505 57.4377 60.0273 54.4582 62.7083 51.4795C64.8069 49.1397 66.9055 46.8 69.0042 44.4603C69.0881 44.366 69.1483 44.0435 69.385 44.2519C69.6217 44.4603 69.4474 44.6051 69.299 44.774C66.1675 48.3494 63.0411 51.9321 59.9197 55.5221C59.797 55.6624 59.627 55.7765 59.5862 55.9827H59.6206C59.2763 56.1231 59.1214 56.4477 58.9127 56.7219C58.8309 56.8053 58.648 56.8184 58.7276 57.007L58.7427 56.9917C58.5512 56.9917 58.4909 57.1145 58.4651 57.2769V57.2637C58.1665 57.4642 57.9282 57.7451 57.7766 58.0753H57.7464V58.106L57.6711 58.1871L57.5636 58.2288C56.7588 59.1172 55.9412 59.9946 55.1622 60.9049C55.0202 61.0869 54.8158 61.1133 54.6458 61.2361Z" fill="#181818"/>
    <path d="M70.6589 70.5541C70.6288 70.1154 70.2759 69.8654 70.1124 69.5078C70.0543 69.3806 69.8198 69.2424 70.0521 69.0976C70.248 68.977 70.2931 69.2139 70.3598 69.317C72.163 72.0479 74.1232 74.6603 75.9995 77.3364C77.2668 79.146 78.5686 80.9293 79.8725 82.7082C80.1953 83.1469 80.3932 83.6514 80.673 84.1099C80.6601 84.1099 80.6407 84.0879 80.6342 84.0923C79.9242 84.4872 79.6272 83.9739 79.2658 83.4935C77.2475 80.8087 75.5842 77.8804 73.7079 75.0968C72.8472 73.8158 72.107 72.4493 71.1431 71.2385C70.9666 71.0235 70.9666 70.6901 70.6589 70.5541Z" fill="#181818"/>
    <path d="M35.2484 63.9473C33.4216 66.0398 31.5388 68.0798 29.6217 70.089C27.7045 72.0983 25.7292 73.9254 23.9218 75.9829C23.741 75.904 23.6786 75.9632 23.7346 76.154C23.6421 76.0728 23.5732 76.1255 23.5323 76.211C23.4914 76.2966 23.5323 76.347 23.627 76.3383C23.5216 76.7638 23.8013 76.3975 23.8809 76.4721C23.0417 77.5447 22.0089 78.4462 21.2343 79.5758C20.8491 79.6987 20.7545 80.1681 20.3629 80.337C20.3081 80.2231 20.2928 80.0938 20.3194 79.9699C20.3459 79.846 20.4128 79.735 20.5092 79.6548C21.1547 79.0362 21.783 78.4045 22.4263 77.7882C22.5598 77.6609 22.6824 77.4986 22.5382 77.378C22.2736 77.1586 22.4801 77.049 22.5963 76.9239C24.6046 74.7611 26.6085 72.5991 28.6082 70.4378C30.8747 67.9884 33.1375 65.5361 35.3968 63.0808C35.8638 62.5741 36.2726 62.0082 36.8363 61.6002L36.8578 61.6156C36.3802 62.2561 35.896 62.8922 35.4248 63.5393C35.3409 63.6533 35.1429 63.7389 35.2484 63.9473Z" fill="#181818"/>
    <path d="M55.0439 83.7895C55.7777 82.7147 56.6642 81.765 57.5012 80.7757C59.6701 78.2159 61.9466 75.7526 64.1715 73.2498C64.2533 73.1555 64.3156 73.0305 64.4985 73.0129C64.4985 73.2323 64.3286 73.3595 64.2231 73.5021C62.3167 76.0751 60.1349 78.4111 58.0004 80.7713C57.8347 80.9556 57.6152 81.1003 57.5356 81.357L57.5507 81.3789H57.5744C57.124 81.6784 56.7542 82.0878 56.4985 82.57L56.5114 82.559C56.4103 82.5239 56.3931 82.5722 56.4146 82.6599V82.6489C56.2876 82.6489 56.2424 82.7301 56.2317 82.8442C56.1478 82.8442 56.1241 82.8814 56.1392 82.9582C55.8702 83.0109 55.924 83.3223 55.7368 83.4627C55.5838 83.6057 55.4435 83.762 55.3172 83.9299C55.2763 83.7983 55.186 83.8553 55.102 83.8707L55.0439 83.7895Z" fill="#181818"/>
    <path d="M71.9521 48.6916L71.9177 48.3034L71.9866 48.2529L76.6278 54.9277C76.4342 55.0286 76.3739 54.8597 76.2835 54.7522C75.0181 53.2006 73.8572 51.5634 72.8085 49.852C72.5934 49.5186 72.4449 49.1237 72.1092 48.8693C72.064 48.832 72.0425 48.7136 71.9521 48.6916Z" fill="#181818"/>
    <path d="M64.7718 73.7171C64.5975 73.6403 64.6664 73.5394 64.7417 73.4342C65.8993 71.8263 67.0203 70.1878 68.3243 68.6918C68.3415 68.6721 68.3759 68.6677 68.4017 68.6545L68.4512 68.705C67.8574 69.6701 67.1817 70.5782 66.5147 71.4929C66.4179 71.6223 66.3339 71.7627 66.2436 71.8965H66.2672C66.1919 71.8834 66.1747 71.925 66.179 71.9908C66.037 72.0215 66.0004 72.1663 65.9165 72.2541C65.7874 72.3922 65.9165 72.401 66.0155 72.412C65.8283 72.5699 65.6476 72.7366 65.4517 72.8836C65.3463 72.9625 65.2667 73.0415 65.3356 73.1753C65.4044 73.3091 65.5228 73.2543 65.7358 73.1753C65.2323 73.1951 65.0063 73.467 64.7718 73.7171Z" fill="#181818"/>
    <path d="M35.2483 40.7161C34.6752 41.4243 34.054 42.0906 33.3892 42.71C33.1741 42.6617 33.1031 42.7692 33.116 42.9688L33.1353 43.0017L33.1138 42.971C33.0256 42.8986 32.9589 42.9995 32.8793 43.0017L32.8621 42.982C33.0923 42.4841 33.5248 42.155 33.8648 41.7514C34.5619 40.9245 35.2784 40.1107 35.9928 39.2991C36.066 39.2158 36.1477 39.0096 36.2919 39.1434C36.3995 39.2443 36.2445 39.3627 36.1757 39.4417C36.0036 39.661 35.8164 39.8804 35.6464 40.0997C35.5883 40.1787 35.4312 40.2555 35.5797 40.3915L35.5625 40.4134C35.3086 40.3651 35.2483 40.5033 35.2483 40.7161Z" fill="#181818"/>
    <path d="M56.5093 82.5656C56.765 82.0834 57.1348 81.674 57.5851 81.3745C57.3118 81.8436 56.9454 82.2493 56.5093 82.5656Z" fill="#F8F2EA"/>
    <path d="M57.7939 58.0776C57.9456 57.7474 58.1839 57.4665 58.4825 57.266C58.2819 57.5607 58.0511 57.8328 57.7939 58.0776Z" fill="#F8F2EA"/>
    <path d="M58.917 56.7286C59.1322 56.4544 59.2806 56.1298 59.6249 55.9894C59.4463 56.2965 59.3 56.6321 58.917 56.7286Z" fill="#F8F2EA"/>
    <path d="M58.4868 81.1245C58.3706 81.3807 58.1875 81.5992 57.9574 81.7562C57.88 81.5149 58.3211 81.4755 58.1726 81.2013C58.1647 81.1931 58.1603 81.182 58.1603 81.1706C58.1603 81.1591 58.1647 81.1481 58.1726 81.1399C58.2931 81.3351 58.3878 81.0872 58.5061 81.1245H58.4868Z" fill="#181818"/>
    <path d="M32.3994 43.697C32.3947 43.7424 32.3762 43.7852 32.3465 43.8194C32.3168 43.8536 32.2774 43.8775 32.2337 43.8878C32.2617 43.8045 31.9389 43.901 32.1498 43.7079C32.2316 43.6115 32.3256 43.5266 32.4295 43.4557C32.3714 43.5281 32.3284 43.607 32.3994 43.697Z" fill="#181818"/>
    <path d="M58.9171 80.5806C58.8821 80.6966 58.825 80.8044 58.7489 80.8978C58.6728 80.9911 58.5793 81.0682 58.4739 81.1246C58.5191 80.8569 58.7321 80.7297 58.9171 80.5806Z" fill="#181818"/>
    <path d="M57.9465 81.7562C57.925 81.9207 57.7185 81.9953 57.7529 82.2585C57.8282 82.0523 57.6195 81.7672 57.953 81.7628L57.9465 81.7562Z" fill="#181818"/>
    <path d="M98.261 67.8386C98.3368 67.6591 98.4578 67.5032 98.6117 67.3867C98.6186 67.44 98.6149 67.4941 98.6009 67.5459C98.5869 67.5977 98.5628 67.6461 98.5301 67.6883C98.4974 67.7304 98.4567 67.7654 98.4105 67.7913C98.3643 67.8171 98.3134 67.8332 98.261 67.8386Z" fill="#F8F2EA"/>
    <path d="M66.0177 72.4164C65.9188 72.4054 65.7897 72.3966 65.9188 72.2585C66.0027 72.1707 66.0393 72.0259 66.1813 71.9952C66.2867 72.2036 66.0177 72.2585 66.0177 72.4164Z" fill="#F8F2EA"/>
    <path d="M58.9493 80.2208L59.0892 80.2866C59.1021 80.427 59.1279 80.574 58.9192 80.5806C58.9171 80.4643 59.1322 80.3546 58.9493 80.2208Z" fill="#181818"/>
    <path d="M58.4717 57.279C58.4975 57.1167 58.5577 56.9873 58.7493 56.9939L58.4717 57.279Z" fill="#F8F2EA"/>
    <path d="M58.7342 57.0093C58.6546 56.8206 58.8375 56.8075 58.9193 56.7241C58.9537 56.8821 58.8117 56.9259 58.7342 57.0093Z" fill="#F8F2EA"/>
    <path d="M36.8363 61.598C36.8312 61.5544 36.8408 61.5102 36.8635 61.4728C36.8861 61.4354 36.9205 61.4069 36.9611 61.3918C36.9611 61.3918 36.9976 61.405 36.9976 61.4116C36.9953 61.4552 36.9809 61.4973 36.9562 61.533C36.9314 61.5687 36.8973 61.5965 36.8578 61.6134L36.8363 61.598Z" fill="#181818"/>
    <path d="M56.251 82.8398C56.251 82.7257 56.3069 82.6445 56.4339 82.6445C56.4357 82.6699 56.4323 82.6954 56.4238 82.7193C56.4154 82.7432 56.4021 82.7651 56.3849 82.7835C56.3677 82.8019 56.3469 82.8164 56.3238 82.8261C56.3007 82.8358 56.2759 82.8404 56.251 82.8398Z" fill="#F8F2EA"/>
    <path d="M98.1599 68.0184C98.0996 67.9021 98.1921 67.878 98.261 67.8363C98.3191 67.9504 98.2804 68.0096 98.1599 68.0184Z" fill="#F8F2EA"/>
    <path d="M66.1768 71.9908C66.1768 71.925 66.1897 71.8833 66.265 71.8965V71.9974L66.1768 71.9908Z" fill="#F8F2EA"/>
    <path d="M57.6819 58.1872L57.7572 58.106C57.6884 58.0907 57.6647 58.117 57.6819 58.1872Z" fill="#F8F2EA"/>
    <path d="M32.7717 43.0806C32.7717 43.0236 32.7932 42.9885 32.8535 42.9819L32.8707 43.0017L32.7825 43.0938L32.7717 43.0806Z" fill="#181818"/>
    <path d="M32.6898 43.1794C32.679 43.1136 32.7091 43.0851 32.7715 43.0829L32.6812 43.1728L32.6898 43.1794Z" fill="#181818"/>
    <path d="M32.5867 43.254C32.6017 43.1991 32.6276 43.164 32.69 43.1794L32.6039 43.2715L32.5867 43.254Z" fill="#181818"/>
    <path d="M32.5155 43.3636C32.512 43.3516 32.5111 43.3389 32.5128 43.3265C32.5146 43.3141 32.5191 43.3023 32.5258 43.2918C32.5326 43.2813 32.5416 43.2725 32.5521 43.266C32.5625 43.2594 32.5743 43.2553 32.5865 43.2539L32.6059 43.2736L32.5134 43.3592L32.5155 43.3636Z" fill="#181818"/>
    <path d="M32.4296 43.4558C32.4296 43.3921 32.4511 43.3614 32.5157 43.3636L32.4253 43.4536L32.4296 43.4558Z" fill="#181818"/>
    <path d="M56.4253 82.6555C56.4038 82.5678 56.4253 82.5195 56.5222 82.5546C56.5265 82.6248 56.4942 82.6577 56.4253 82.6555Z" fill="#F8F2EA"/>
    <path d="M56.1672 82.945C56.1521 82.8683 56.1672 82.8244 56.2597 82.831C56.2615 82.8447 56.2605 82.8587 56.2567 82.8721C56.253 82.8855 56.2466 82.8979 56.2379 82.9086C56.2292 82.9193 56.2184 82.9281 56.2063 82.9343C56.1941 82.9406 56.1808 82.9442 56.1672 82.945Z" fill="#F8F2EA"/>
    <path d="M49.6172 76.6125C48.8544 75.7206 48.1541 74.7751 47.5215 73.7829L47.6377 73.6974C48.3133 74.6567 48.9868 75.6145 49.6581 76.5709C49.6581 76.5709 49.6259 76.6081 49.6086 76.6279L49.6172 76.6125Z" fill="#F8F2EA"/>
    <path d="M56.0638 77.4899C55.5511 78.2777 54.9527 79.0039 54.28 79.6548C54.7767 78.8549 55.3766 78.1267 56.0638 77.4899Z" fill="#F8F2EA"/>
    <path d="M46.2628 71.8438L44.6426 69.5034L44.7631 69.4156C45.2924 70.2053 45.821 70.9942 46.3489 71.7824L46.2628 71.8438Z" fill="#F8F2EA"/>
    <path d="M74.801 69.374L75.3066 70.2163L75.1883 70.2931C74.9696 70.0404 74.7916 69.7539 74.6611 69.4442L74.801 69.374Z" fill="#F8F2EA"/>
    <path d="M77.6369 74.1843L76.8967 73.0371L76.9957 72.9713C77.2353 73.3574 77.4748 73.7434 77.7144 74.1295L77.6369 74.1843Z" fill="#F8F2EA"/>
    <path d="M41.1289 67.8013L40.3564 66.8274L40.4683 66.7352L41.2085 67.7201L41.1289 67.8013Z" fill="#F8F2EA"/>
    <path d="M85.0625 80.223C85.2717 79.8744 85.5289 79.5582 85.8264 79.2842L85.8672 79.3237C85.6585 79.6682 85.4044 79.9818 85.112 80.2559L85.0625 80.223Z" fill="#F8F2EA"/>
    <path d="M96.4578 64.7282C96.2886 65.0739 96.0137 65.3541 95.6746 65.5266L96.404 64.6799C96.4203 64.6978 96.4384 64.7139 96.4578 64.7282Z" fill="#F8F2EA"/>
    <path d="M84.0919 80.4094C83.9605 80.6751 83.7859 80.9162 83.5755 81.1223C83.455 80.6507 83.8982 80.5937 84.0316 80.3458C84.0506 80.3681 84.0707 80.3893 84.0919 80.4094Z" fill="#F8F2EA"/>
    <path d="M64.4597 66.9897L65.0536 66.3075C65.017 66.7703 64.7029 66.8559 64.4597 66.9897Z" fill="#F8F2EA"/>
    <path d="M38.4758 66.5225C38.6114 66.3667 38.7168 66.1737 38.9363 66.1101C38.8682 66.3134 38.7245 66.4812 38.5361 66.5773L38.4758 66.5225Z" fill="#F8F2EA"/>
    <path d="M46.6523 72.3703L46.3059 71.8833C46.5641 71.982 46.5663 72.2079 46.6523 72.3703Z" fill="#F8F2EA"/>
    <path d="M92.0963 74.0703C92.0556 74.183 91.9801 74.2792 91.8812 74.3444C91.5627 74.2019 91.8661 74.0834 91.9156 74.0001C92.0103 73.8268 92.0705 73.9386 92.0963 74.0703Z" fill="#6F6F6F"/>
    <path d="M76.9097 72.9559C76.7512 72.8271 76.6479 72.6408 76.6213 72.436C76.7779 72.5664 76.8808 72.7519 76.9097 72.9559Z" fill="#F8F2EA"/>
    <path d="M37.9208 67.2155C37.9073 67.2492 37.8884 67.2804 37.8648 67.3077C37.8297 67.3296 37.7921 67.3473 37.7529 67.3603L37.768 67.3866C37.7889 67.3101 37.8353 67.2434 37.8992 67.198L37.9208 67.2155Z" fill="#F8F2EA"/>
    <path d="M76.3027 72.1224C76.5975 72.0303 76.5179 72.322 76.7116 72.4558C76.4383 72.4185 76.4727 72.1685 76.3092 72.1246L76.3027 72.1224Z" fill="#F8F2EA"/>
    <path d="M28.124 76.5621C28.194 76.4264 28.3049 76.3172 28.4403 76.2506C28.4769 76.4546 28.3091 76.527 28.1993 76.6367L28.124 76.5621Z" fill="#6F6F6F"/>
    <path d="M49.6086 76.6257C49.8238 76.5665 49.7571 76.7968 49.8604 76.845C49.7162 76.8253 49.6646 76.7178 49.6172 76.6038L49.6086 76.6257Z" fill="#F8F2EA"/>
    <path d="M75.9585 71.2582C76.0595 71.3528 76.1338 71.4732 76.1737 71.6069L76.0919 71.6574C75.9837 71.5752 75.9111 71.4532 75.8896 71.3174L75.9585 71.2582Z" fill="#6F6F6F"/>
    <path d="M92.4429 73.2214C92.5203 72.9691 92.6258 73.0766 92.7312 73.1995H92.7075C92.615 73.1665 92.6129 73.2324 92.6107 73.2938H92.516L92.4429 73.2214Z" fill="#6F6F6F"/>
    <path d="M92.1846 73.5855L92.3739 73.3025L92.4471 73.3858L92.432 73.5525L92.2556 73.6534L92.1846 73.5855Z" fill="#6F6F6F"/>
    <path d="M49.9077 77.1038C49.9477 77.0889 49.9887 77.0772 50.0304 77.0687C50.0648 77.1521 50.0411 77.1609 49.9723 77.1104C49.9594 77.1104 49.9314 77.1104 49.912 77.1104L49.9077 77.1038Z" fill="#F8F2EA"/>
    <path d="M46.904 72.7804C46.8524 72.7322 46.7943 72.6576 46.8524 72.6094C46.9105 72.5611 46.9642 72.6313 46.9858 72.6993L46.904 72.7804Z" fill="#6F6F6F"/>
    <path d="M92.1049 73.9079H92.1179C91.9221 73.7521 92.1673 73.6885 92.1867 73.5789L92.2642 73.6403C92.2642 73.6973 92.2534 73.7543 92.2491 73.8136L92.1049 73.9079Z" fill="#6F6F6F"/>
    <path d="M47.2806 73.1249C47.3214 73.1762 47.3574 73.2312 47.3881 73.2894C47.3881 73.3069 47.358 73.3442 47.3408 73.3705C47.3029 73.3326 47.269 73.2907 47.2397 73.2455C47.2289 73.2258 47.2569 73.1863 47.2806 73.1249Z" fill="#6F6F6F"/>
    <path d="M28.1929 76.63L28.0551 76.766C27.9906 76.6673 28.0853 76.6234 28.124 76.562L28.1929 76.63Z" fill="#6F6F6F"/>
    <path d="M37.8992 67.198C37.9121 67.0971 37.9874 67.0489 38.0605 66.9984L38.1014 67.0379C38.0933 67.0831 38.0715 67.1245 38.0391 67.1564C38.0067 67.1883 37.9653 67.209 37.9207 67.2156L37.8992 67.198Z" fill="#F8F2EA"/>
    <path d="M56.3759 77.1719L56.4318 77.1302L56.3845 77.0907L56.3608 77.1565L56.3759 77.1719Z" fill="#F8F2EA"/>
    <path d="M86.134 78.9595C86.1795 78.9549 86.2224 78.9356 86.2565 78.9045C86.2905 78.8733 86.3139 78.8319 86.3233 78.7862V78.7731C86.1985 78.7599 86.1447 78.8367 86.1082 78.9442L86.134 78.9595Z" fill="#F8F2EA"/>
    <path d="M41.6883 68.3212C41.7399 68.4001 41.8798 68.4901 41.8002 68.5603C41.7206 68.6304 41.6539 68.501 41.6108 68.4199L41.6883 68.3212Z" fill="#6F6F6F"/>
    <path d="M76.3092 72.1247L76.3286 71.9382C76.3479 71.958 76.378 71.9711 76.3845 71.9931C76.4103 72.0676 76.4168 72.1356 76.3027 72.1225L76.3092 72.1247Z" fill="#F8F2EA"/>
    <path d="M47.0202 72.934L46.9041 72.7805L46.9858 72.6993L47.1085 72.8595L47.0202 72.934Z" fill="#6F6F6F"/>
    <path d="M26.7555 79.5913C26.7572 79.5776 26.7618 79.5645 26.7688 79.5527C26.7759 79.541 26.7854 79.531 26.7966 79.5233C26.8078 79.5156 26.8205 79.5104 26.8338 79.5082C26.8472 79.5059 26.8608 79.5065 26.8739 79.5101C26.8793 79.5145 26.8835 79.5202 26.8861 79.5268C26.8888 79.5333 26.8897 79.5404 26.8889 79.5474C26.8545 79.5978 26.8115 79.6242 26.7512 79.5891L26.7555 79.5913Z" fill="#6F6F6F"/>
    <path d="M26.7512 79.5891C26.7585 79.6007 26.7634 79.6136 26.7656 79.6272C26.7679 79.6407 26.7674 79.6546 26.7641 79.668C26.7609 79.6813 26.755 79.6939 26.7469 79.7048C26.7387 79.7158 26.7285 79.7249 26.7167 79.7317C26.7167 79.7317 26.678 79.7185 26.6565 79.7098L26.7555 79.5913L26.7512 79.5891Z" fill="#6F6F6F"/>
    <path d="M84.0361 80.3414L84.1502 80.2449C84.1889 80.3195 84.176 80.3721 84.0964 80.405C84.0752 80.3849 84.0551 80.3637 84.0361 80.3414Z" fill="#F8F2EA"/>
    <path d="M85.1118 80.2559C85.0774 80.3151 85.058 80.3897 84.9741 80.4029C84.8902 80.291 84.9741 80.2515 85.0516 80.2142L85.1118 80.2559Z" fill="#F8F2EA"/>
    <path d="M41.5291 68.3233C41.4978 68.3102 41.4713 68.2876 41.4532 68.2585C41.4351 68.2295 41.4263 68.1954 41.4279 68.161L41.4989 68.0842L41.6409 68.2619L41.5291 68.3233Z" fill="#6F6F6F"/>
    <path d="M77.7616 74.419C77.7444 74.397 77.7229 74.3817 77.7207 74.3663C77.7247 74.3411 77.7327 74.3166 77.7444 74.2939C77.7594 74.3093 77.7853 74.3225 77.7853 74.3378C77.7819 74.366 77.7739 74.3935 77.7616 74.419Z" fill="#F8F2EA"/>
    <path d="M27.1945 79.1372L27.1708 79.2578L27.1191 79.2337L27.1988 79.1416L27.1945 79.1372Z" fill="#6F6F6F"/>
    <path d="M38.0605 66.9984C38.0928 66.9479 38.1208 66.8799 38.1961 66.9479C38.198 66.9601 38.1973 66.9726 38.1939 66.9844C38.1905 66.9963 38.1846 67.0072 38.1766 67.0164C38.1685 67.0257 38.1586 67.033 38.1475 67.0378C38.1363 67.0427 38.1243 67.0449 38.1122 67.0445L38.0605 66.9984Z" fill="#F8F2EA"/>
    <path d="M41.2838 67.9395L41.2085 67.8605C41.2085 67.8605 41.2257 67.8386 41.2343 67.8276L41.3204 67.9022C41.3075 67.9132 41.2967 67.9263 41.2838 67.9395Z" fill="#F8F2EA"/>
    <path d="M41.3203 67.9021L41.458 68.0381L41.4192 68.1543L41.2837 67.935C41.2966 67.9262 41.3074 67.9131 41.3203 67.9021Z" fill="#F8F2EA"/>
    <path d="M41.4581 68.0382C41.4839 68.0382 41.4968 68.0558 41.499 68.0843L41.428 68.161L41.4581 68.0382Z" fill="#6F6F6F"/>
    <path d="M41.6108 68.4198L41.5291 68.3233L41.6409 68.2618C41.6633 68.275 41.6801 68.2961 41.6883 68.3211L41.6108 68.4198Z" fill="#6F6F6F"/>
    <path d="M41.8906 68.7686C41.8584 68.7335 41.7895 68.6984 41.8541 68.6479C41.9186 68.5975 41.9337 68.6808 41.9681 68.7116L41.8906 68.7686Z" fill="#6F6F6F"/>
    <path d="M41.968 68.7159V68.8168L41.8862 68.773L41.968 68.7159Z" fill="#6F6F6F"/>
    <path d="M75.6938 70.8836L75.7185 70.87L75.7163 70.8972L75.6938 70.8836Z" fill="#6F6F6F"/>
    <path d="M75.825 71.0438C75.8239 71.0529 75.8239 71.0621 75.825 71.0712L75.7756 71.0552C75.7835 71.0456 75.7925 71.0371 75.8026 71.03C75.8026 71.03 75.8161 71.0369 75.825 71.0438Z" fill="#6F6F6F"/>
    <path d="M75.8961 71.3174C75.8617 71.2757 75.8315 71.2341 75.8853 71.188C75.9112 71.2098 75.9356 71.2332 75.9585 71.2582L75.8961 71.3174Z" fill="#6F6F6F"/>
    <path d="M76.1802 71.6069C76.206 71.6486 76.2232 71.6925 76.1629 71.71C76.1479 71.71 76.1199 71.6771 76.0984 71.6574L76.1802 71.6069Z" fill="#6F6F6F"/>
    <path d="M47.1085 72.8594L47.1623 72.969L47.0934 73.0458L47.0203 72.934L47.1085 72.8594Z" fill="#6F6F6F"/>
    <path d="M47.1624 72.9691C47.2075 73.0086 47.2549 73.0503 47.1903 73.1051C47.1796 73.1051 47.1258 73.0678 47.0935 73.0459L47.1624 72.9691Z" fill="#6F6F6F"/>
    <path d="M92.374 73.3025L92.4429 73.2213L92.5225 73.2805V73.377L92.5376 73.3617L92.4515 73.3858L92.374 73.3025Z" fill="#6F6F6F"/>
    <path d="M47.4398 73.5417C47.3967 73.5175 47.373 73.4781 47.4161 73.4452C47.4591 73.4123 47.4892 73.4452 47.4914 73.4934L47.4398 73.5417Z" fill="#6F6F6F"/>
    <path d="M47.4916 73.489C47.5152 73.5307 47.6056 73.5548 47.526 73.6206C47.4959 73.5945 47.4671 73.5666 47.4399 73.5373L47.4916 73.489Z" fill="#F8F2EA"/>
    <path d="M28.5286 76.1589L28.5483 76.1299L28.522 76.1545L28.5286 76.1589Z" fill="#6F6F6F"/>
    <path d="M28.5221 76.1541C28.5221 76.2133 28.5091 76.2593 28.4338 76.244L28.5221 76.1519V76.1541Z" fill="#6F6F6F"/>
    <path d="M49.912 77.1038L49.9271 76.9919C50.0196 77.0468 49.9271 77.0687 49.9077 77.1038H49.912Z" fill="#F8F2EA"/>
    <path d="M56.2424 77.2245C56.254 77.2007 56.2738 77.1822 56.2981 77.1725C56.3223 77.1628 56.3492 77.1625 56.3736 77.1718L56.3607 77.1565C56.3327 77.2179 56.3284 77.3407 56.2273 77.2135L56.2424 77.2245Z" fill="#F8F2EA"/>
    <path d="M56.1736 77.332L56.2446 77.2245L56.2273 77.2135C56.2596 77.2486 56.3113 77.2859 56.2532 77.3341C56.2381 77.3495 56.1929 77.3341 56.1606 77.3232L56.1736 77.332Z" fill="#F8F2EA"/>
    <path d="M56.1606 77.3231C56.1908 77.3538 56.2209 77.3889 56.1757 77.4262C56.1628 77.4372 56.1284 77.4262 56.1025 77.4262L56.1735 77.3385L56.1606 77.3231Z" fill="#F8F2EA"/>
    <path d="M86.3245 78.7875L86.3083 78.7687H86.3315L86.3245 78.7875Z" fill="#F8F2EA"/>
    <path d="M27.287 79.0516L27.33 78.9836C27.3709 79.0516 27.33 79.0516 27.2805 79.0451L27.287 79.0516Z" fill="#6F6F6F"/>
    <path d="M85.9898 79.0253L86.134 78.966L86.1189 78.9507C86.1189 79.0055 86.1189 79.0669 86.063 79.0801C86.0393 79.0801 86.007 79.045 85.9812 79.0253H85.9898Z" fill="#F8F2EA"/>
    <path d="M27.287 79.045C27.2883 79.0573 27.2869 79.0697 27.283 79.0813C27.279 79.0929 27.2726 79.1035 27.2642 79.1123C27.2557 79.1212 27.2455 79.1279 27.2342 79.1322C27.2229 79.1365 27.2108 79.1382 27.1987 79.1372L27.2891 79.0472L27.287 79.045Z" fill="#6F6F6F"/>
    <path d="M85.9812 79.0254C86.0414 79.0254 86.078 79.0583 86.0522 79.1241C86.0522 79.1373 86.0113 79.1373 85.992 79.1416V79.0254H85.9812Z" fill="#F8F2EA"/>
    <path d="M85.8262 79.2841C85.8563 79.2446 85.8757 79.1657 85.9402 79.2468C85.9172 79.2738 85.8928 79.2994 85.8671 79.3236L85.8262 79.2841Z" fill="#F8F2EA"/>
    <path d="M27.0148 79.3722L26.9972 79.3988L26.96 79.3655L26.9907 79.3412L27.0148 79.3722Z" fill="#6F6F6F"/>
    <path d="M26.5429 79.851L26.5166 79.8242C26.5166 79.8242 26.5363 79.7996 26.5451 79.7996C26.5539 79.7996 26.5627 79.8174 26.5714 79.8264L26.5429 79.851Z" fill="#6F6F6F"/>
    <path d="M96.4041 64.68C96.4041 64.6449 96.4041 64.5879 96.4686 64.6164C96.4794 64.6164 96.4686 64.6888 96.4686 64.7282C96.4454 64.7146 96.4238 64.6984 96.4041 64.68Z" fill="#F8F2EA"/>
    <path d="M84.9742 80.4028L84.9183 80.552V80.5608C84.8968 80.5322 84.8559 80.5015 84.8602 80.4774C84.8602 80.4094 84.929 80.4094 84.985 80.4094L84.9742 80.4028Z" fill="#F8F2EA"/>
    <path d="M84.9183 80.5608L84.8086 80.5454L84.8559 80.4928C84.8774 80.5169 84.8968 80.5432 84.9183 80.5696V80.5608Z" fill="#F8F2EA"/>
    <path d="M38.3877 66.6256L38.4759 66.5225L38.5362 66.5773L38.4522 66.6716L38.3877 66.6256Z" fill="#F8F2EA"/>
    <path d="M38.4608 66.6803C38.4608 66.7352 38.4242 66.7703 38.3661 66.7637C38.3532 66.7483 38.3403 66.7308 38.3252 66.7154L38.3876 66.6255L38.4608 66.6803Z" fill="#F8F2EA"/>
    <path d="M38.366 66.7637C38.366 66.8207 38.3337 66.8536 38.2756 66.8536L38.252 66.8229L38.3273 66.7155L38.366 66.7637Z" fill="#F8F2EA"/>
    <path d="M38.1961 66.948C38.1251 66.8647 38.1961 66.8449 38.252 66.823L38.2757 66.8537C38.2757 66.9217 38.2434 66.9436 38.1853 66.9414L38.1961 66.948Z" fill="#F8F2EA"/>
    <path d="M45.0365 51.405C43.7648 50.056 42.7083 48.5337 41.6475 47.018C40.9719 46.0507 40.2791 45.0965 39.5668 44.1007C38.6653 45.1053 37.7852 46.0923 36.8987 47.0684C34.3726 49.8542 31.8315 52.6224 29.2171 55.3181C28.1047 56.4632 26.9794 57.5906 25.8734 58.7422C25.4104 59.2085 24.8689 59.5859 24.2747 59.8565C24.0339 59.9577 23.7759 60.0092 23.5154 60.0083C23.255 60.0073 22.9974 59.9538 22.7573 59.8508C22.5173 59.7478 22.2996 59.5974 22.1169 59.4083C21.9342 59.2191 21.79 58.995 21.6926 58.7488C21.5193 58.1923 21.5007 57.5978 21.6388 57.0313C21.6603 56.915 21.7937 56.8119 21.8777 56.7198C24.2661 53.7893 26.889 51.0781 29.4086 48.2639C32.421 44.8815 35.4478 41.5087 38.4888 38.1453C38.8718 37.7198 39.2828 37.3557 39.8917 37.2811C40.139 37.2359 40.3937 37.2644 40.6254 37.3632C40.8571 37.4621 41.0559 37.627 41.1978 37.8382C42.902 40.1612 44.6234 42.4753 46.3103 44.8113C48.6535 48.0599 50.9709 51.326 53.327 54.6206C53.4346 54.4978 53.5422 54.3771 53.6541 54.2455C58.0973 48.639 62.8182 43.2781 67.6229 37.9918C67.9909 37.5882 68.3265 37.1144 68.8795 36.9609C69.8091 36.6845 70.5471 37.0047 71.2098 37.8953C72.219 39.2487 73.17 40.6459 74.0673 42.0629C76.7397 46.3051 79.6617 50.3609 82.5278 54.4693C82.743 54.772 82.8269 54.6886 83.0098 54.4693C87.3455 48.9329 91.8727 43.5567 96.3633 38.1497C97.3337 36.9806 98.8098 36.8775 99.6898 37.994C99.9929 38.378 100.189 38.8381 100.257 39.3261C100.325 39.814 100.263 40.3116 100.077 40.7666C99.4746 42.3404 98.5639 43.7727 97.4004 44.9759C97.1181 45.3233 96.7951 45.6342 96.4386 45.9015L96.3654 45.8401C97.1487 44.524 97.9082 43.1926 98.8722 41.9927L98.756 41.9094L97.4843 43.5698C96.303 45.1053 95.1454 46.6605 93.934 48.1762C91.1368 51.6726 88.2578 55.0988 85.2583 58.4175C84.7846 58.9764 84.2405 59.4691 83.6402 59.8828C82.4719 60.6374 81.2734 60.407 80.4579 59.2664C76.658 53.9801 73.0058 48.5878 69.5014 43.0895L69.4196 42.9776C69.0022 43.4448 68.5891 43.9032 68.1845 44.3683C65.7789 47.1364 63.298 49.8344 60.8687 52.5895C59.0376 54.6711 57.3421 56.8733 55.5067 58.9506C55.2399 59.2511 54.9623 59.5428 54.6933 59.8433C54.5082 60.0587 54.2782 60.2293 54.0202 60.3426C53.7622 60.4559 53.4826 60.5092 53.2019 60.4984C52.9212 60.4877 52.6463 60.4133 52.3973 60.2806C52.1484 60.148 51.9316 59.9603 51.7627 59.7314C49.3729 56.5772 47.0361 53.3828 44.7525 50.1481C44.391 49.637 44.0209 49.1303 43.6551 48.6127C42.5262 47.0041 41.3951 45.3955 40.2618 43.787C40.2037 43.7036 40.1758 43.4777 39.98 43.6159C39.8272 43.7234 39.8487 43.8352 39.9649 43.9866C41.1742 45.5527 42.3791 47.1218 43.5798 48.6938C44.0919 49.5559 44.6728 50.374 45.1269 51.2734L45.0365 51.405ZM26.577 56.189L26.6652 56.099L26.7534 56.0091L26.8416 55.9192L26.9342 55.8336L27.0245 55.7459L27.1106 55.6516L27.1945 55.555C27.2096 55.5375 27.287 55.5441 27.216 55.4958C27.2123 55.5188 27.2073 55.5415 27.201 55.5638C27.1429 55.5397 27.1106 55.5638 27.0891 55.6209C27.0676 55.6779 27.0245 55.6779 26.9944 55.7086C26.9643 55.7393 26.9406 55.7766 26.9148 55.8117C26.889 55.8468 26.8287 55.8577 26.8438 55.9214C26.7792 55.9214 26.7491 55.9455 26.7556 56.0113C26.6889 56.0113 26.6566 56.031 26.6674 56.1012C26.5985 56.1012 26.5684 56.1232 26.5813 56.1955C26.5232 56.1736 26.4995 56.1955 26.5275 56.2526L26.577 56.189ZM23.7798 55.1471C23.8142 55.1098 23.8615 55.0725 23.797 55.0264C23.797 55.0264 23.7475 55.0659 23.7217 55.0878L23.6421 55.1843L23.4592 55.362L23.3064 55.5178C23.2834 55.5339 23.2649 55.5558 23.2526 55.5814C23.1794 55.6581 23.0159 55.7349 23.1278 55.8424C23.2031 55.9126 23.2741 55.7568 23.3215 55.6713L23.4097 55.5814L23.5302 55.4432L23.6872 55.2238L23.7798 55.1471ZM27.6356 55.0111C27.7045 55.0111 27.7325 54.9913 27.726 54.9233C27.7841 54.9409 27.8056 54.9233 27.7755 54.8663L27.7303 54.9277L27.6421 55.0176L27.584 55.0637L27.6313 55.0834L27.6356 55.0111ZM54.7665 54.2126C54.8289 54.2126 54.8569 54.1753 54.844 54.1095L54.8913 54.0766C54.8913 54.0766 54.8676 54.0766 54.8633 54.0766C54.8566 54.0883 54.8516 54.1008 54.8483 54.1139C54.7902 54.1139 54.7665 54.1468 54.7557 54.1995L54.6976 54.2455L54.7407 54.2784L54.7665 54.2126ZM56.2921 53.6884C56.3329 53.6511 56.391 53.5985 56.3415 53.5524C56.2921 53.5063 56.2254 53.5787 56.1802 53.6226C56.1703 53.6262 56.1612 53.632 56.1538 53.6396C56.1464 53.6472 56.1407 53.6563 56.1371 53.6665C56.002 53.7529 55.8915 53.8739 55.8165 54.0174C55.2808 54.6579 54.6847 55.2502 54.2522 55.9718L54.3512 56.053C54.9021 55.3788 55.4536 54.7047 56.0059 54.0306C56.1221 53.9911 56.1586 53.8836 56.2081 53.7849L56.2921 53.6884ZM56.4857 53.4493L56.5287 53.3001C56.5847 53.3001 56.6148 53.3001 56.5739 53.2321L56.5309 53.3001L56.4255 53.3747C56.4018 53.4054 56.3545 53.4537 56.3609 53.4647C56.4082 53.548 56.447 53.4844 56.4857 53.4493ZM47.1989 49.5317L47.2484 49.6392L47.4356 49.9331L47.5411 50.0494C48.0467 51.0979 48.8041 51.9621 49.5271 52.8505C49.5419 52.9143 49.5727 52.973 49.6164 53.0211C49.6602 53.0692 49.7154 53.1048 49.7767 53.1247C49.7399 52.9938 49.6648 52.8775 49.5615 52.7913L47.5776 49.9748C47.5992 49.9068 47.5626 49.8695 47.5066 49.841L47.3237 49.5734L47.2635 49.4615C47.2291 49.4374 47.1774 49.387 47.1667 49.3935C47.1064 49.4462 47.1516 49.4922 47.1989 49.5317ZM41.796 45.0131L41.8885 45.068V44.9517C41.8541 44.9144 41.8347 44.8267 41.7659 44.8793C41.697 44.932 41.7616 44.9737 41.796 45.0131ZM37.243 44.4253C37.2193 44.3354 37.2882 44.3288 37.342 44.3068C37.3162 44.2103 37.5851 44.127 37.3527 44.0239C37.3742 44.0502 37.3958 44.0985 37.4173 44.0963C37.4926 44.0963 37.4775 44.0349 37.4689 43.9844C37.4991 43.9844 37.527 44.0634 37.5593 43.9976C37.5722 43.9712 37.5593 43.9296 37.5593 43.8945C37.5916 43.8945 37.6325 43.9142 37.6561 43.8945C37.7185 43.8616 37.6561 43.8309 37.6561 43.798C37.6927 43.798 37.725 43.8462 37.768 43.798C37.811 43.7497 37.7486 43.73 37.74 43.6971C37.7702 43.6971 37.7809 43.787 37.8261 43.7256C37.8433 43.7014 37.8261 43.6598 37.8369 43.6247C38.1725 43.2013 38.7105 42.9798 38.9902 42.5016L38.902 42.4183L37.8476 43.6334L37.7486 43.708L37.669 43.8111C37.6567 43.8093 37.6442 43.8104 37.6324 43.8144C37.6206 43.8183 37.6099 43.8251 37.6011 43.834C37.5923 43.843 37.5857 43.8539 37.5818 43.8659C37.5779 43.8779 37.5769 43.8907 37.5787 43.9032C37.5227 43.9032 37.4883 43.9296 37.4904 43.9932L37.3656 44.0261C37.385 44.1204 37.1806 44.2059 37.3549 44.3068C37.314 44.3068 37.2882 44.2147 37.2279 44.2893C37.1677 44.3639 37.2279 44.3836 37.2538 44.4275C37.2258 44.4012 37.2538 44.2981 37.1591 44.3705L37.243 44.4253ZM95.6833 42.1287C95.6317 42.0958 95.5887 42.0103 95.5198 42.1046C95.5127 42.1173 95.509 42.1316 95.5091 42.1463L95.679 42.1309L95.6446 42.0125L95.593 42.0541L95.6833 42.1287ZM46.4372 48.5359C46.6244 48.492 46.476 48.3714 46.491 48.2858L46.2457 48.0665C46.2457 47.9678 46.2199 47.88 46.0865 47.9085C46.1145 47.9941 46.1274 48.0906 46.2543 48.0533C46.2543 48.2178 46.2543 48.3758 46.4932 48.299C46.3103 48.3451 46.4932 48.4723 46.4394 48.549C46.5061 48.4745 46.5319 48.6609 46.5943 48.5732C46.5943 48.5578 46.5814 48.5205 46.5749 48.4942L46.4372 48.5359ZM46.9214 50.2073C46.9558 50.2073 47.0139 50.2512 47.0225 50.2402C47.0741 50.1832 47.0333 50.1393 46.9881 50.0998C46.958 50.0165 46.8826 49.8805 46.8289 49.9375C46.7105 50.0538 46.8676 50.1306 46.9235 50.2139L46.9214 50.2073ZM47.1731 50.5385L47.2958 50.6899C47.3087 50.7469 47.3388 50.8325 47.3969 50.7952C47.455 50.7579 47.412 50.6723 47.3668 50.6197L47.2484 50.4683C47.2205 50.3806 47.1473 50.249 47.0892 50.2973C46.9687 50.4003 47.115 50.4727 47.1753 50.5451L47.1731 50.5385ZM85.0776 56.6518C85.0722 56.639 85.065 56.6272 85.0561 56.6167C85.045 56.6123 85.0327 56.6123 85.0216 56.6167C85.0109 56.6167 84.9915 56.6277 84.9894 56.6364C84.9786 56.6869 84.9721 56.7395 84.9635 56.7944C84.9743 56.7286 85.0926 56.7417 85.0647 56.6496L85.1357 56.5641C85.112 56.5641 85.0797 56.5465 85.0647 56.5641C85.0496 56.5816 85.0475 56.6211 85.0776 56.6518ZM76.0533 47.7616C76.0254 47.7353 75.978 47.6826 75.9716 47.687C75.9092 47.7331 75.9414 47.7835 75.9716 47.8318C76.0275 47.9261 76.0211 48.0906 76.2126 48.0511C76.2069 47.9943 76.1898 47.9393 76.1624 47.8895C76.1351 47.8397 76.0979 47.7962 76.0533 47.7616ZM70.4826 41.5167C70.4395 41.4158 70.4094 41.2974 70.2846 41.2513C70.2416 41.4158 70.3384 41.4882 70.4245 41.565C70.4632 41.6549 70.4481 41.7843 70.5988 41.7843C70.5942 41.6835 70.5528 41.588 70.4826 41.5167ZM85.9748 55.555C85.906 55.6779 85.6822 55.6077 85.6758 55.8051L85.5424 55.9433L85.1335 56.4237C85.238 56.394 85.3347 56.3407 85.4162 56.2678C85.4978 56.1949 85.5622 56.1043 85.6048 56.0025L85.7382 55.8731C85.9081 55.827 85.779 55.5594 85.9791 55.5397H85.9662L85.9748 55.555ZM41.4345 44.5459C41.5012 44.6622 41.555 44.7938 41.7207 44.8333C41.7231 44.7647 41.7088 44.6966 41.6791 44.635C41.6495 44.5734 41.6054 44.5202 41.5507 44.4801C41.4646 44.3858 41.4431 44.2191 41.2559 44.1928C41.2086 44.4012 41.3485 44.4692 41.4367 44.5613L41.4345 44.5459ZM77.637 50.6263C77.8113 50.5385 77.7037 50.4749 77.6198 50.4069C77.3881 49.9217 77.0991 49.4672 76.7591 49.0535C77.0345 49.512 77.1894 50.0516 77.6198 50.4004C77.5445 50.4771 77.6542 50.5495 77.6198 50.6197C77.8027 50.6482 77.751 51.0211 78.0264 50.9092C77.9813 50.9356 77.9189 50.9531 77.9554 51.0277C77.9554 51.0474 77.992 51.0562 78.0114 51.0716L78.0243 50.907C77.8887 50.8654 77.8694 50.7206 77.7876 50.6285C77.7058 50.5363 77.7037 50.4881 77.637 50.6263ZM76.3911 48.3472C76.3911 48.2288 76.3481 48.1279 76.2104 48.1279C76.148 48.2661 76.2405 48.3472 76.3094 48.4218C76.4557 48.5929 76.5073 48.8364 76.7397 48.9417L76.3911 48.3472ZM44.7611 45.7633L44.6363 45.8533L45.9983 47.8164L46.0844 47.755L44.7611 45.7633ZM74.7946 45.7304L74.6655 45.7962C74.8204 46.0945 74.9215 46.4323 75.311 46.5705L74.7946 45.7304ZM96.4149 40.9705L95.6833 41.8962C96.0298 41.6681 96.3353 41.4092 96.4171 40.9705H96.4149ZM83.5778 57.47C83.8006 57.2786 83.9618 57.0233 84.0405 56.7373C83.7801 56.9896 83.4638 57.0466 83.58 57.47H83.5778ZM65.0517 42.6398L64.4965 43.3198C64.7267 43.1794 65.043 43.1092 65.0538 42.6398H65.0517ZM54.1662 54.9869L54.5104 54.5746C54.4133 54.5876 54.3244 54.6371 54.2612 54.7133C54.1979 54.7896 54.1648 54.8871 54.1683 54.9869H54.1662ZM49.9424 53.5173C49.9897 53.3177 49.9424 53.2431 49.8068 53.2146L49.9424 53.5173ZM70.1684 41.0298C70.1555 41.0495 70.1189 41.0802 70.1232 41.1022C70.133 41.1411 70.1558 41.1752 70.1878 41.1987C70.233 41.236 70.2674 41.1987 70.2695 41.157C70.2724 41.1415 70.2718 41.1256 70.268 41.1103C70.2641 41.0951 70.257 41.0809 70.2471 41.0687C70.2373 41.0566 70.2249 41.0468 70.2109 41.0401C70.197 41.0333 70.1817 41.0298 70.1663 41.0298H70.1684ZM96.5871 40.9069L96.5698 40.8346C96.5483 40.8455 96.5161 40.8499 96.5096 40.8675C96.5032 40.885 96.5096 40.9157 96.5225 40.9398L96.5871 40.9069ZM46.6954 49.7686L46.6287 49.83C46.661 49.8529 46.6948 49.8734 46.7299 49.8915C46.7299 49.8915 46.7751 49.8454 46.7708 49.841C46.7471 49.8146 46.7212 49.7903 46.6933 49.7686H46.6954ZM75.9156 47.5576L75.8898 47.5269L75.8618 47.5554L75.9006 47.5861L75.9156 47.5576ZM47.115 49.2926L47.0849 49.2356C47.0849 49.2466 47.0591 49.2575 47.0591 49.2641C47.0655 49.2848 47.0741 49.3047 47.0849 49.3233L47.115 49.2926ZM54.6137 54.3881C54.603 54.3881 54.5836 54.4035 54.5815 54.4144C54.5793 54.4254 54.5965 54.4386 54.6051 54.4495C54.6137 54.4605 54.6352 54.432 54.6374 54.421C54.6395 54.41 54.6288 54.3991 54.6137 54.3881ZM27.5151 55.2304L27.4893 55.2019C27.4893 55.2129 27.4656 55.2216 27.4656 55.2304C27.4656 55.2392 27.4829 55.248 27.4915 55.2567L27.5151 55.2304ZM27.3365 55.3247L27.3193 55.3467H27.3408L27.3365 55.3247Z" fill="#181818"/>
    <path d="M32.423 43.4491L32.5134 43.3592L32.6059 43.2737L32.692 43.1815L32.7824 43.0916C32.8125 43.0631 32.8405 43.0324 32.8706 43.0017C32.9502 43.0017 33.0169 42.8986 33.1051 42.971C33.0518 43.1397 32.9604 43.2933 32.8382 43.4194C32.7159 43.5455 32.5664 43.6406 32.4015 43.697C32.3284 43.6071 32.3714 43.5281 32.423 43.4491Z" fill="#6F6F6F"/>
    <path d="M35.2483 40.716C35.2483 40.4967 35.3171 40.3651 35.5624 40.4155C35.5151 40.5888 35.4376 40.716 35.2483 40.716Z" fill="#6F6F6F"/>
    <path d="M33.1074 42.9688C33.0945 42.7692 33.1676 42.6617 33.3807 42.7099C33.3742 42.8898 33.3118 43.0017 33.1074 42.9688Z" fill="#6F6F6F"/>
    <path d="M45.1203 51.2909C45.1419 51.303 45.1605 51.32 45.1746 51.3407C45.1887 51.3613 45.1978 51.385 45.2014 51.4099C45.2049 51.4348 45.2027 51.4602 45.195 51.4841C45.1873 51.5079 45.1742 51.5297 45.1569 51.5475C45.1052 51.5892 45.0687 51.4642 45.0364 51.405L45.1203 51.2909Z" fill="#181818"/>
    <path d="M96.4235 45.9037C96.3977 45.9629 96.359 45.9936 96.3052 45.9432C96.3052 45.9432 96.3353 45.8774 96.3504 45.8423L96.4235 45.9037Z" fill="#181818"/>
    <path d="M23.7346 76.1519C23.6786 75.961 23.7346 75.9018 23.9218 75.9808C23.9239 76.1124 23.8938 76.2023 23.7346 76.1519Z" fill="#6F6F6F"/>
    <path d="M23.6291 76.3361C23.528 76.3361 23.4957 76.2901 23.5344 76.2089C23.5732 76.1278 23.6442 76.0707 23.7367 76.1519C23.7883 76.2681 23.7604 76.3361 23.6291 76.3361Z" fill="#6F6F6F"/>
    <path d="M58.9493 80.2208C59.1279 80.3546 58.9257 80.4643 58.9257 80.5871C58.7406 80.7363 58.5276 80.8635 58.4824 81.1311C58.3705 81.0938 58.2672 81.3505 58.1489 81.1465C58.1338 81.1465 58.1102 81.1333 58.1102 81.1267C58.1037 80.8328 58.6266 80.2713 58.9493 80.2208Z" fill="#6F6F6F"/>
    <path d="M92.249 73.8202C92.249 73.761 92.249 73.704 92.2641 73.6469L92.4405 73.546C92.4663 73.704 92.3502 73.761 92.249 73.8202Z" fill="#181818"/>
    <path d="M92.4472 73.3858L92.5333 73.3617C92.643 73.5043 92.5333 73.5306 92.4321 73.5525L92.4472 73.3858Z" fill="#181818"/>
    <path d="M91.9973 75.3644C91.9499 75.4367 91.894 75.4565 91.823 75.4038L91.9327 75.2832L91.9973 75.3644Z" fill="#181818"/>
    <path d="M68.4019 68.6545C68.4215 68.6288 68.4431 68.6046 68.4664 68.5822C68.5396 68.6304 68.4664 68.6655 68.4513 68.705L68.4019 68.6545Z" fill="#181818"/>
    <path d="M92.6106 73.2894C92.6106 73.228 92.6106 73.1622 92.7074 73.1951C92.7375 73.2938 92.6988 73.3223 92.6106 73.2894Z" fill="#181818"/>
    <path d="M92.5181 73.3772V73.2806H92.6127C92.6472 73.3859 92.6149 73.4188 92.5181 73.3772Z" fill="#181818"/>
    <path d="M92.105 73.9079L92.2534 73.8092C92.2298 73.8838 92.2276 73.9913 92.105 73.9079Z" fill="#181818"/>
    <path d="M92.1781 75.178C92.1351 75.2109 92.0856 75.2372 92.0554 75.178C92.0253 75.1188 92.0813 75.0837 92.12 75.0508L92.1781 75.178Z" fill="#181818"/>
    <path d="M91.9329 75.2832C91.9694 75.2415 92.0082 75.1735 92.0641 75.2415C92.1201 75.3095 92.0361 75.3314 91.9974 75.3644L91.9329 75.2832Z" fill="#181818"/>
    <path d="M55.1321 83.851L55.0332 83.9321L54.9622 83.8773L55.0461 83.783L55.1321 83.851Z" fill="#181818"/>
    <path d="M55.0441 83.9387C55.0225 83.9936 54.986 84.0243 54.9343 83.9804C54.9343 83.9804 54.958 83.9168 54.9731 83.8839L55.0441 83.9387Z" fill="#181818"/>
    <path d="M43.5732 48.7113C42.3682 47.1407 41.1633 45.5717 39.9583 44.004C39.8421 43.8571 39.8206 43.7408 39.9734 43.6333C40.1692 43.4952 40.1886 43.7211 40.2553 43.8044C41.3914 45.413 42.5224 47.0216 43.6485 48.6301L43.5732 48.7113Z" fill="#F8F2EA"/>
    <path d="M49.527 52.8504C48.8041 51.973 48.0467 51.0956 47.541 50.0493L47.5884 49.9747L49.5722 52.7912L49.527 52.8504Z" fill="#F8F2EA"/>
    <path d="M56.0058 54.0305C55.4536 54.7032 54.902 55.3773 54.3512 56.0529L54.2522 55.9717C54.6825 55.2501 55.2807 54.6556 55.8165 54.0173L56.0058 54.0305Z" fill="#F8F2EA"/>
    <path d="M44.763 45.7633L46.0863 47.755L46.0002 47.8164L44.6382 45.8532L44.763 45.7633Z" fill="#F8F2EA"/>
    <path d="M37.8303 43.6356L38.8847 42.4204L38.9729 42.5038C38.6932 42.9819 38.1552 43.2035 37.8196 43.6268L37.8303 43.6356Z" fill="#F8F2EA"/>
    <path d="M77.6368 50.4003C77.2065 50.0537 77.0429 49.5229 76.7761 49.0557C77.1161 49.4693 77.4052 49.9238 77.6368 50.409V50.4003Z" fill="#F8F2EA"/>
    <path d="M74.7965 45.7303L75.3086 46.5704C74.9234 46.4323 74.8223 46.0945 74.6631 45.7961L74.7965 45.7303Z" fill="#F8F2EA"/>
    <path d="M96.4169 40.9705C96.3351 41.4092 96.0296 41.668 95.6853 41.8961L96.4169 40.9705Z" fill="#F8F2EA"/>
    <path d="M83.5799 57.4699C83.4637 57.0466 83.78 56.9896 84.0425 56.7373C83.9639 57.0233 83.8027 57.2785 83.5799 57.4699Z" fill="#F8F2EA"/>
    <path d="M65.0537 42.6398C65.0537 43.1092 64.7331 43.1794 64.4985 43.3198L65.0537 42.6398Z" fill="#F8F2EA"/>
    <path d="M54.1682 54.987C54.1648 54.8868 54.1982 54.789 54.2619 54.7127C54.3256 54.6364 54.415 54.5871 54.5125 54.5746L54.1682 54.987Z" fill="#6F6F6F"/>
    <path d="M85.5982 56.0178C85.5557 56.1196 85.4912 56.2103 85.4097 56.2832C85.3281 56.3561 85.2315 56.4093 85.127 56.439L85.5358 55.9586L85.5982 56.0178Z" fill="#F8F2EA"/>
    <path d="M76.3932 48.3472L76.7482 48.9328C76.5094 48.8275 76.4577 48.5841 76.3179 48.413L76.3932 48.3472Z" fill="#F8F2EA"/>
    <path d="M78.05 50.9157C77.7724 51.0276 77.8241 50.6547 77.6433 50.6262C77.71 50.488 77.7573 50.5692 77.8154 50.6262C77.8735 50.6832 77.9166 50.8631 78.0521 50.9048L78.05 50.9157Z" fill="#F8F2EA"/>
    <path d="M56.0058 54.0305L55.8164 54.0173C55.8913 53.8738 56.0019 53.7528 56.137 53.6664L56.208 53.7848C56.1585 53.8835 56.1198 53.991 56.0058 54.0305Z" fill="#6F6F6F"/>
    <path d="M41.4365 44.5613C41.3483 44.4692 41.2084 44.4012 41.2579 44.2081C41.4451 44.2345 41.4731 44.4012 41.5527 44.4955L41.4365 44.5613Z" fill="#6F6F6F"/>
    <path d="M49.9444 53.5173L49.8088 53.2146C49.953 53.2431 49.9917 53.3177 49.9444 53.5173Z" fill="#F8F2EA"/>
    <path d="M49.5723 52.7913C49.6756 52.8775 49.7507 52.9938 49.7874 53.1247C49.7261 53.1048 49.6709 53.0692 49.6272 53.0211C49.5835 52.9731 49.5527 52.9143 49.5378 52.8505L49.5723 52.7913Z" fill="#F8F2EA"/>
    <path d="M85.6755 55.8205C85.6755 55.623 85.9058 55.6932 85.9746 55.5704V55.5529C85.7745 55.5748 85.9036 55.8424 85.7336 55.8885L85.6755 55.8205Z" fill="#F8F2EA"/>
    <path d="M41.5527 44.4955C41.6074 44.5355 41.6515 44.5887 41.6812 44.6503C41.7108 44.7119 41.7251 44.7801 41.7227 44.8486C41.557 44.8092 41.5075 44.6775 41.4365 44.5613L41.5527 44.4955Z" fill="#6F6F6F"/>
    <path d="M23.3213 55.6712C23.2739 55.7568 23.2029 55.9125 23.1276 55.8423C23.0157 55.7348 23.1793 55.6581 23.2524 55.5813L23.3213 55.6712Z" fill="#6F6F6F"/>
    <path d="M70.4824 41.5167C70.5541 41.5896 70.5957 41.6877 70.5986 41.7909C70.448 41.7909 70.463 41.6549 70.4243 41.5716L70.4824 41.5167Z" fill="#6F6F6F"/>
    <path d="M76.0533 47.7616C76.0987 47.7964 76.1366 47.8406 76.1644 47.8912C76.1922 47.9418 76.2093 47.9978 76.2146 48.0555C76.0231 48.0906 76.0296 47.9261 75.9736 47.8362L76.0533 47.7616Z" fill="#6F6F6F"/>
    <path d="M46.2478 48.0621C46.3296 48.1389 46.4113 48.2157 46.4909 48.2946C46.2564 48.3714 46.25 48.2135 46.2478 48.049V48.0621Z" fill="#F8F2EA"/>
    <path d="M76.3115 48.4131C76.2427 48.3319 76.1501 48.2573 76.2125 48.1191C76.3502 48.1367 76.3868 48.2288 76.3933 48.3385L76.3115 48.4131Z" fill="#6F6F6F"/>
    <path d="M47.3343 49.5734L47.5129 49.8519L47.4289 49.9441L47.2439 49.6501L47.3343 49.5734Z" fill="#6F6F6F"/>
    <path d="M85.0645 56.6518C85.0925 56.7439 84.9741 56.7308 84.9634 56.7966C84.9634 56.7417 84.9784 56.6891 84.9892 56.6386C84.9892 56.6386 85.0107 56.6211 85.0215 56.6189C85.0325 56.6145 85.0448 56.6145 85.0559 56.6189C85.0648 56.6294 85.072 56.6412 85.0774 56.654L85.0645 56.6518Z" fill="#F8F2EA"/>
    <path d="M70.4244 41.5715C70.3383 41.4947 70.2415 41.4223 70.2845 41.2578C70.4093 41.3105 70.4394 41.4223 70.4824 41.5232L70.4244 41.5715Z" fill="#6F6F6F"/>
    <path d="M46.2565 48.0489C46.1295 48.0862 46.1166 47.9897 46.0886 47.9041C46.222 47.8756 46.2392 47.9634 46.2478 48.0621L46.2565 48.0489Z" fill="#F8F2EA"/>
    <path d="M47.3689 50.624C47.414 50.6789 47.4872 50.7491 47.399 50.8017C47.3108 50.8543 47.3108 50.7534 47.2979 50.6964L47.3689 50.624Z" fill="#6F6F6F"/>
    <path d="M47.1753 50.5451C47.115 50.4727 46.9601 50.4003 47.0913 50.3038C47.1494 50.2578 47.2226 50.3872 47.2506 50.4749L47.1753 50.5451Z" fill="#6F6F6F"/>
    <path d="M70.1661 41.0298C70.1814 41.0302 70.1964 41.0339 70.2101 41.0408C70.2238 41.0476 70.2359 41.0575 70.2455 41.0696C70.2552 41.0817 70.2621 41.0958 70.2658 41.1109C70.2696 41.126 70.2701 41.1417 70.2673 41.157C70.2673 41.1921 70.2307 41.236 70.1855 41.1987C70.1535 41.1752 70.1307 41.1411 70.121 41.1022C70.1167 41.078 70.1532 41.0495 70.1661 41.0298Z" fill="#6F6F6F"/>
    <path d="M96.5849 40.9069L96.5203 40.9398C96.5203 40.9156 96.4988 40.8871 96.5074 40.8674C96.516 40.8476 96.5461 40.8454 96.5677 40.8345C96.572 40.8586 96.572 40.8827 96.5849 40.9069Z" fill="#F8F2EA"/>
    <path d="M46.9234 50.2139C46.8632 50.1305 46.7082 50.0538 46.8309 49.9441C46.8847 49.8958 46.96 50.0231 46.9901 50.1064L46.9234 50.2139Z" fill="#6F6F6F"/>
    <path d="M46.437 48.5358L46.5769 48.4854C46.5769 48.5117 46.607 48.549 46.5962 48.5643C46.5338 48.6521 46.508 48.4656 46.4413 48.5402L46.437 48.5358Z" fill="#F8F2EA"/>
    <path d="M23.459 55.362L23.6419 55.1843L23.6871 55.2348L23.53 55.4541L23.459 55.362Z" fill="#6F6F6F"/>
    <path d="M23.5301 55.4431L23.4096 55.5813L23.3042 55.5177L23.4591 55.3619L23.5301 55.4431Z" fill="#6F6F6F"/>
    <path d="M37.3419 44.309C37.1676 44.2081 37.372 44.1225 37.3526 44.0282C37.585 44.1313 37.3161 44.2146 37.3419 44.3112V44.309Z" fill="#F8F2EA"/>
    <path d="M85.5422 55.9586L85.6756 55.8204L85.738 55.8884L85.6046 56.0178L85.5422 55.9586Z" fill="#F8F2EA"/>
    <path d="M95.679 42.1309L95.509 42.1462C95.509 42.1316 95.5127 42.1172 95.5198 42.1046C95.5886 42.0102 95.6317 42.1046 95.6833 42.1287L95.679 42.1309Z" fill="#F8F2EA"/>
    <path d="M47.2504 50.4749L47.3687 50.624L47.2977 50.6964L47.175 50.545L47.2504 50.4749Z" fill="#6F6F6F"/>
    <path d="M47.5129 49.8519C47.5688 49.8804 47.6054 49.9177 47.5839 49.9857L47.5365 50.0603L47.429 49.9441L47.5129 49.8519Z" fill="#6F6F6F"/>
    <path d="M78.0457 50.9136L78.0328 51.0781C78.0134 51.0627 77.9855 51.054 77.9768 51.0342C77.9403 50.9596 78.0027 50.9421 78.0479 50.9158L78.0457 50.9136Z" fill="#F8F2EA"/>
    <path d="M46.6932 49.7686C46.7203 49.7904 46.7455 49.8146 46.7685 49.8409C46.7685 49.8409 46.7341 49.8958 46.7276 49.8914C46.6925 49.8734 46.6587 49.8529 46.6265 49.83L46.6932 49.7686Z" fill="#6F6F6F"/>
    <path d="M77.6218 50.4091C77.7057 50.4749 77.8133 50.5385 77.639 50.6284C77.6626 50.5538 77.5529 50.4814 77.639 50.4091H77.6218Z" fill="#F8F2EA"/>
    <path d="M46.4371 48.5358C46.4887 48.4591 46.308 48.3318 46.493 48.2858C46.4801 48.3691 46.6286 48.4898 46.4392 48.5314L46.4371 48.5358Z" fill="#F8F2EA"/>
    <path d="M37.6559 43.8133C37.6817 43.7804 37.7076 43.7453 37.7355 43.7124V43.6992C37.7355 43.7321 37.8151 43.7409 37.7635 43.8001C37.7119 43.8593 37.6882 43.8001 37.6516 43.8001L37.6559 43.8133Z" fill="#F8F2EA"/>
    <path d="M37.5658 43.9054C37.5639 43.8928 37.565 43.8801 37.5689 43.868C37.5728 43.856 37.5794 43.8451 37.5882 43.8361C37.597 43.8272 37.6077 43.8205 37.6195 43.8165C37.6313 43.8125 37.6438 43.8114 37.6561 43.8132H37.6432C37.6432 43.8461 37.7142 43.8769 37.6432 43.9098C37.6195 43.9229 37.5787 43.9098 37.5464 43.9098L37.5658 43.9054Z" fill="#F8F2EA"/>
    <path d="M37.555 43.8944C37.555 43.9295 37.5722 43.9712 37.555 43.9975C37.5227 44.0633 37.4947 43.9975 37.4646 43.9843V43.9953C37.4646 43.9317 37.4969 43.9076 37.5528 43.9054L37.555 43.8944Z" fill="#F8F2EA"/>
    <path d="M37.3525 44.0282L37.4773 43.9953V43.9844C37.4773 44.0348 37.501 44.0962 37.4257 44.0962C37.4042 44.0962 37.3827 44.0502 37.3611 44.0239L37.3525 44.0282Z" fill="#F8F2EA"/>
    <path d="M37.3418 44.3068C37.2881 44.3287 37.2192 44.3353 37.2429 44.4252C37.2257 44.3814 37.1676 44.3507 37.217 44.2871C37.2665 44.2235 37.3031 44.2871 37.344 44.3046L37.3418 44.3068Z" fill="#F8F2EA"/>
    <path d="M37.2428 44.4253L37.146 44.3726C37.2299 44.3002 37.2127 44.4033 37.2407 44.4296L37.2428 44.4253Z" fill="#F8F2EA"/>
    <path d="M41.7958 45.0131C41.7613 44.9736 41.6882 44.932 41.7613 44.8793C41.8345 44.8267 41.8496 44.9144 41.884 44.9517L41.7958 45.0131Z" fill="#6F6F6F"/>
    <path d="M41.884 44.9517V45.0679L41.7915 45.0131L41.884 44.9517Z" fill="#6F6F6F"/>
    <path d="M75.9167 47.5579L75.9013 47.5866L75.8618 47.5556L75.8903 47.5269L75.9167 47.5579Z" fill="#6F6F6F"/>
    <path d="M75.9735 47.8318C75.9413 47.7835 75.909 47.7331 75.9735 47.687C75.9735 47.687 76.0273 47.7353 76.0553 47.7616L75.9735 47.8318Z" fill="#6F6F6F"/>
    <path d="M47.117 49.2926L47.0869 49.3233C47.0761 49.3046 47.0674 49.2848 47.061 49.2641C47.061 49.2641 47.0783 49.2466 47.0869 49.2356L47.117 49.2926Z" fill="#6F6F6F"/>
    <path d="M47.1988 49.5317C47.1514 49.4923 47.1063 49.4462 47.1773 49.3936C47.188 49.3936 47.2397 49.4374 47.2741 49.4616L47.1988 49.5317Z" fill="#6F6F6F"/>
    <path d="M47.274 49.4615L47.3343 49.5734L47.2482 49.6392C47.231 49.6041 47.2138 49.5668 47.1987 49.5317L47.274 49.4615Z" fill="#6F6F6F"/>
    <path d="M46.99 50.1064C47.0352 50.1459 47.0761 50.1898 47.0245 50.2468C47.0245 50.2468 46.9578 50.2249 46.9233 50.2139L46.99 50.1064Z" fill="#6F6F6F"/>
    <path d="M56.5307 53.3001L56.5738 53.2321C56.6146 53.2935 56.5738 53.3044 56.5286 53.3001H56.5307Z" fill="#6F6F6F"/>
    <path d="M56.4253 53.3746L56.5307 53.3C56.5178 53.3483 56.5028 53.3988 56.4877 53.4492L56.4253 53.3746Z" fill="#6F6F6F"/>
    <path d="M56.4856 53.4492C56.4469 53.4843 56.4082 53.5479 56.3608 53.4646C56.3608 53.4536 56.4017 53.4053 56.4254 53.3746L56.4856 53.4492Z" fill="#6F6F6F"/>
    <path d="M56.178 53.6225C56.2253 53.5786 56.2619 53.4777 56.3415 53.5523C56.4211 53.6269 56.3415 53.651 56.292 53.6883L56.178 53.6225Z" fill="#6F6F6F"/>
    <path d="M56.2919 53.6884L56.208 53.7849L56.137 53.6664C56.1404 53.6566 56.1458 53.6476 56.1528 53.6401C56.1599 53.6325 56.1684 53.6266 56.1778 53.6226L56.2919 53.6884Z" fill="#6F6F6F"/>
    <path d="M54.8482 54.1178C54.8517 54.1041 54.857 54.091 54.864 54.0789C54.864 54.0789 54.8819 54.0789 54.8932 54.0789L54.8438 54.1132L54.8482 54.1178Z" fill="#6F6F6F"/>
    <path d="M54.7556 54.2016C54.7664 54.149 54.79 54.1139 54.8481 54.1161C54.861 54.1819 54.8331 54.2126 54.7707 54.2192L54.7556 54.2016Z" fill="#6F6F6F"/>
    <path d="M54.7664 54.2126L54.7405 54.2806L54.6975 54.2477L54.7556 54.2017L54.7664 54.2126Z" fill="#6F6F6F"/>
    <path d="M54.6136 54.3881C54.6136 54.3881 54.6372 54.4122 54.6372 54.421C54.6372 54.4297 54.6157 54.4407 54.605 54.4495C54.5942 54.4583 54.5813 54.4254 54.5813 54.4144C54.5813 54.4034 54.6136 54.3968 54.6136 54.3881Z" fill="#6F6F6F"/>
    <path d="M27.7301 54.9276L27.7753 54.8662C27.8054 54.9276 27.7753 54.9408 27.7258 54.9232L27.7301 54.9276Z" fill="#6F6F6F"/>
    <path d="M27.7173 54.9233C27.7173 54.9913 27.6958 55.022 27.627 55.0111C27.6571 54.9826 27.6872 54.9519 27.7152 54.9211L27.7173 54.9233Z" fill="#6F6F6F"/>
    <path d="M23.7214 55.0878C23.7473 55.0659 23.7903 55.0198 23.7967 55.0264C23.8613 55.0725 23.814 55.1097 23.7795 55.147L23.7214 55.0878Z" fill="#6F6F6F"/>
    <path d="M27.6355 55.011V55.0834L27.5881 55.0636L27.6462 55.0176L27.6355 55.011Z" fill="#6F6F6F"/>
    <path d="M27.5224 55.231L27.4982 55.2578C27.4982 55.2578 27.4719 55.2399 27.4719 55.231C27.4719 55.222 27.4873 55.2131 27.4961 55.2019L27.5224 55.231Z" fill="#6F6F6F"/>
    <path d="M27.3411 55.3269L27.3477 55.3516L27.3257 55.3471L27.3411 55.3269Z" fill="#6F6F6F"/>
    <path d="M27.2009 55.5557L27.2163 55.4871C27.2887 55.5358 27.2163 55.5291 27.1943 55.5468L27.2009 55.5557Z" fill="#6F6F6F"/>
    <path d="M85.9746 55.5719V55.5463H85.9883L85.9746 55.5719Z" fill="#F8F2EA"/>
    <path d="M23.2524 55.5813C23.2646 55.5564 23.2823 55.5346 23.3041 55.5177L23.4095 55.5813L23.3213 55.6712L23.2524 55.5813Z" fill="#6F6F6F"/>
    <path d="M27.1945 55.5551L27.1106 55.6516L27.0869 55.6209C27.1106 55.5682 27.1429 55.5397 27.201 55.5638L27.1945 55.5551Z" fill="#6F6F6F"/>
    <path d="M26.9944 55.7064L27.0869 55.6208L27.1106 55.6516L27.0245 55.7459L26.9944 55.7064Z" fill="#6F6F6F"/>
    <path d="M27.0245 55.7459L26.9341 55.8336L26.9126 55.8117L26.9944 55.7064L27.0245 55.7459Z" fill="#6F6F6F"/>
    <path d="M26.8567 55.9213C26.8395 55.8577 26.8718 55.8292 26.9256 55.8116L26.9449 55.8336L26.8524 55.9191L26.8567 55.9213Z" fill="#6F6F6F"/>
    <path d="M26.7554 56.0112C26.7554 55.9454 26.779 55.9147 26.8436 55.9213L26.7554 56.0112Z" fill="#6F6F6F"/>
    <path d="M26.7533 56.0091C26.7232 56.0398 26.6952 56.0705 26.6651 56.099C26.6544 56.0288 26.6866 56.0003 26.7533 56.0091Z" fill="#6F6F6F"/>
    <path d="M26.5813 56.1955C26.5684 56.1231 26.5985 56.0946 26.6674 56.1011L26.5791 56.1911L26.5813 56.1955Z" fill="#6F6F6F"/>
    <path d="M26.5769 56.1889L26.5274 56.2525C26.4994 56.1867 26.5274 56.1735 26.5812 56.1955L26.5769 56.1889Z" fill="#6F6F6F"/>
    <path d="M85.0774 56.6518C85.0473 56.6211 85.0193 56.586 85.0645 56.5509C85.1097 56.5158 85.1118 56.5509 85.1355 56.5509L85.0645 56.6364L85.0774 56.6518Z" fill="#F8F2EA"/>
    <path d="M23.6418 55.1843L23.7215 55.0878L23.7796 55.147L23.687 55.2347L23.6418 55.1843Z" fill="#6F6F6F"/>
    <path d="M95.6831 42.1287L95.5928 42.0541L95.6444 42.0125C95.6552 42.0519 95.6681 42.0914 95.6788 42.1309L95.6831 42.1287Z" fill="#F8F2EA"/>
    <path d="M37.8302 43.6268C37.8302 43.6619 37.8302 43.7036 37.8195 43.7277C37.7743 43.7892 37.7635 43.708 37.7334 43.6992V43.7124C37.7657 43.6861 37.7979 43.6597 37.8324 43.6356L37.8302 43.6268Z" fill="#F8F2EA"/>
    <defs>
    <filter id="filter0_d_6003_1902" x="0" y="0" width="131.427" height="129.514" filterUnits="userSpaceOnUse" color-interpolation-filters="sRGB">
    <feFlood flood-opacity="0" result="BackgroundImageFix"/>
    <feColorMatrix in="SourceAlpha" type="matrix" values="0 0 0 0 0 0 0 0 0 0 0 0 0 0 0 0 0 0 127 0" result="hardAlpha"/>
    <feOffset dx="5" dy="4"/>
    <feGaussianBlur stdDeviation="2"/>
    <feComposite in2="hardAlpha" operator="out"/>
    <feColorMatrix type="matrix" values="0 0 0 0 0 0 0 0 0 0 0 0 0 0 0 0 0 0 0.5 0"/>
    <feBlend mode="normal" in2="BackgroundImageFix" result="effect1_dropShadow_6003_1902"/>
    <feBlend mode="normal" in="SourceGraphic" in2="effect1_dropShadow_6003_1902" result="shape"/>
    </filter>
    </defs>
    </svg>
    