<svg width="61" height="62" viewBox="0 0 61 62" fill="none" xmlns="http://www.w3.org/2000/svg">
<g filter="url(#filter0_d_32_8998)">
<path d="M0 26.5923C0.0950989 19.8395 2.29419 13.8938 6.74397 8.86437C10.3706 4.76605 14.8591 2.13362 20.0798 0.794531C21.6901 0.381612 23.3266 0.1418 24.9842 0.0453233C28.4115 -0.154796 31.7469 0.30388 34.9814 1.49908C38.2916 2.7224 41.2165 4.58633 43.7697 7.06715C45.9425 9.17805 47.6365 11.6434 49.013 14.3635C50.4304 17.1652 51.3513 20.1146 51.7644 23.2388C51.9498 24.6396 52.0331 26.0465 51.988 27.4578C51.7789 34.0287 49.553 39.7798 45.2123 44.6207C41.5346 48.7218 37.0091 51.357 31.6964 52.5467C30.1727 52.8879 28.6307 53.1018 27.0693 53.1371C20.0895 53.2953 13.9349 51.0593 8.68678 46.3336C4.51908 42.5804 1.87458 37.8674 0.637754 32.3247C0.254134 30.6068 0.0483554 28.8636 0.024715 27.0995C0.0225658 26.9396 0.00967108 26.7803 0.000537282 26.5929L0 26.5923Z" fill="#181818"/>
<path d="M27.3319 50.5014C23.7246 50.5687 20.3601 49.96 17.1337 48.6055C14.8191 47.6341 12.6566 46.3899 10.7745 44.682C7.68027 41.8748 5.41777 38.4788 3.99237 34.499C3.36966 32.7613 2.95272 30.9713 2.73083 29.1355C2.51162 27.3261 2.44553 25.5091 2.68677 23.7003C3.01129 21.268 3.70653 18.941 4.74564 16.727C6.79483 12.3607 9.81812 8.87213 13.8037 6.28325C16.4428 4.56928 19.3151 3.4281 22.3937 2.84979C23.9094 2.56478 25.438 2.43081 26.9778 2.4457C29.3634 2.46885 31.7064 2.80734 33.9716 3.58026C35.5491 4.11832 37.018 4.91108 38.4085 5.84608C42.9211 8.88095 46.1217 13.0145 48.1339 18.1311C49.0069 20.3512 49.5507 22.6572 49.7683 25.0432C49.8736 26.1954 49.9327 27.3504 49.8381 28.5042C49.7258 29.8748 49.4572 31.2194 49.0934 32.543C48.0135 36.4677 46.1061 39.916 43.388 42.8869C40.5464 45.9929 37.1497 48.2268 33.2125 49.5758C32.0299 49.981 30.7963 50.1817 29.5584 50.3349C28.7772 50.4314 27.9928 50.4744 27.3319 50.502V50.5014Z" fill="#F8F2EA"/>
<path d="M27.2539 48.5572C23.9145 48.6192 20.8 48.0586 17.8132 46.8111C15.6705 45.9165 13.6686 44.7705 11.9263 43.1976C9.06192 40.6122 6.96747 37.4845 5.64794 33.8192C5.07148 32.2188 4.68552 30.5702 4.4801 28.8794C4.27717 27.213 4.21599 25.5395 4.43932 23.8736C4.73973 21.6335 5.38333 19.4904 6.34526 17.4513C8.24224 13.43 11.041 10.2171 14.7305 7.83274C17.1736 6.25419 19.8326 5.20318 22.6825 4.67056C24.0856 4.40806 25.5006 4.28468 26.9261 4.29839C29.1345 4.31972 31.3035 4.63147 33.4004 5.34331C34.8607 5.83886 36.2206 6.56899 37.5078 7.43011C41.6852 10.2252 44.6481 14.0322 46.5107 18.7445C47.319 20.7891 47.8223 22.913 48.0238 25.1105C48.1212 26.1716 48.176 27.2354 48.0884 28.298C47.9845 29.5603 47.7358 30.7986 47.3991 32.0177C46.3993 35.6323 44.6337 38.8082 42.1174 41.5444C39.4868 44.4049 36.3424 46.4623 32.6977 47.7047C31.6029 48.0779 30.461 48.2627 29.315 48.4039C28.5918 48.4927 27.8657 48.5323 27.2539 48.5577V48.5572Z" fill="#181818"/>
<path d="M7.2229 10.532C7.77147 9.68409 8.39203 8.89243 9.05503 8.13826C9.42307 7.71983 9.86096 7.37252 10.3117 6.99268C9.33603 8.25348 8.27651 9.39301 7.26857 10.5788C7.22881 10.5882 7.20786 10.5788 7.2229 10.532Z" fill="#F8F2EA"/>
<path d="M41.6398 7.82132C42.8278 8.8142 43.9061 9.91899 44.8635 11.1467C44.8716 11.187 44.8603 11.2074 44.8168 11.1925C43.7933 10.0326 42.6918 8.95202 41.5893 7.87259C41.5818 7.83069 41.5958 7.81029 41.6393 7.82132H41.6398Z" fill="#F8F2EA"/>
<path d="M51.4081 24.9402C51.5376 25.9711 51.6053 27.0048 51.507 28.0423C51.4704 28.4315 51.4124 28.8186 51.364 29.2067C51.2517 29.1526 51.3264 29.0639 51.3253 28.9889C51.385 28.0252 51.4398 27.0616 51.4076 26.0952C51.3952 25.7252 51.3791 25.3553 51.364 24.9854C51.3495 24.9408 51.3683 24.9297 51.4081 24.9397V24.9402Z" fill="#F8F2EA"/>
<path d="M29.1045 51.2896C28.5527 51.363 28.0015 51.4385 27.4491 51.5091C26.9301 51.5758 26.4095 51.6314 25.891 51.7053C25.754 51.7252 25.6235 51.7031 25.4902 51.6998C25.451 51.6987 25.3774 51.7345 25.3865 51.6436C25.3924 51.5857 25.4386 51.5631 25.494 51.5592C25.6917 51.546 25.8889 51.525 26.0871 51.5179C26.9785 51.4859 27.8634 51.3812 28.7472 51.2648C28.8649 51.2494 28.9836 51.2301 29.1045 51.2891V51.2896Z" fill="#F8F2EA"/>
<path d="M16.3324 4.38771C17.3984 3.77412 18.5638 3.42901 19.7216 3.06461C19.7678 3.04862 19.7791 3.07012 19.771 3.11312C18.6266 3.51777 17.487 3.9373 16.377 4.43457C16.333 4.4478 16.3222 4.42851 16.3324 4.38771Z" fill="#F8F2EA"/>
<path d="M40.4385 46.6607C41.3696 45.8238 42.3227 45.0112 43.1856 44.095C42.9771 44.5129 41.0247 46.3465 40.4385 46.6607Z" fill="#F8F2EA"/>
<path d="M44.6045 8.81152C45.0118 9.11859 46.5758 11.0029 46.7939 11.4313C46.0073 10.6087 45.3889 9.63736 44.6045 8.81152Z" fill="#F8F2EA"/>
<path d="M40.564 6.26113C39.9998 5.92484 39.4362 5.588 38.8721 5.25171C39.4937 5.48491 40.1513 5.6525 40.564 6.26113Z" fill="#F8F2EA"/>
<path d="M7.09435 11.9253C7.48066 11.3547 7.91693 10.8232 8.34998 10.2901C8.38007 10.2526 8.40586 10.1644 8.47732 10.2196C8.5563 10.2808 8.48645 10.3298 8.44669 10.3783C8.01096 10.9098 7.57522 11.4418 7.14002 11.9738C7.10187 11.9804 7.08038 11.9699 7.09489 11.9253H7.09435Z" fill="#F8F2EA"/>
<path d="M51.0831 31.3204C50.9708 32.0867 50.7967 32.8381 50.5609 33.5746C50.548 33.5906 50.5345 33.5912 50.52 33.5763C50.7086 32.7808 50.9004 31.9864 51.0364 31.1787C51.1379 31.1958 51.0804 31.2686 51.0831 31.3198V31.3204Z" fill="#F8F2EA"/>
<path d="M44.8176 11.1927C44.8332 11.1773 44.8488 11.1624 44.8644 11.147C45.3855 11.7611 45.8401 12.4254 46.2715 13.1074C46.286 13.1504 46.2661 13.1575 46.2307 13.1487C45.7955 12.4695 45.3017 11.835 44.8176 11.1927Z" fill="#F8F2EA"/>
<path d="M51.0829 31.3204C51.0619 31.2752 51.092 31.2118 51.0361 31.1792C51.1323 30.4493 51.2285 29.7194 51.3247 28.9895C51.3515 29.0595 51.3101 29.1422 51.3633 29.2073C51.2698 29.9118 51.1764 30.6158 51.0834 31.3204H51.0829Z" fill="#F8F2EA"/>
<path d="M50.3111 34.4081C50.1939 35.0151 49.9452 35.5763 49.7378 36.1518C49.7012 36.2533 49.6588 36.3525 49.619 36.4528C49.5836 36.4578 49.5583 36.4539 49.582 36.4076C49.8232 35.7323 50.0768 35.0608 50.2777 34.3711C50.2939 34.3651 50.31 34.3596 50.3207 34.3789C50.325 34.3866 50.3191 34.3976 50.3116 34.4081H50.3111Z" fill="#F8F2EA"/>
<path d="M50.6807 19.7358C50.8789 20.3682 51.0697 21.0027 51.0895 21.6731C50.9531 21.0275 50.8171 20.382 50.6807 19.7358Z" fill="#F8F2EA"/>
<path d="M24.9212 1.94134C25.3854 1.89503 25.8475 1.82005 26.3139 1.80737C26.316 1.83384 26.3187 1.85975 26.3209 1.88621C25.869 1.92039 25.4171 1.95457 24.9648 1.98875C24.9218 2.00033 24.9094 1.98213 24.9207 1.94079L24.9212 1.94134Z" fill="#F8F2EA"/>
<path d="M1.9173 26.5654V27.8681C1.89473 27.8681 1.87216 27.867 1.8496 27.8665C1.75396 27.3979 1.92159 26.9381 1.9173 26.5654Z" fill="#F8F2EA"/>
<path d="M3.2399 18.6079C3.15501 18.8449 3.06797 19.082 2.98577 19.3201C2.96428 19.3824 2.93849 19.4326 2.86757 19.4034C2.77623 19.3653 2.84554 19.3113 2.86595 19.2683C2.97072 19.0467 3.07818 18.8273 3.1851 18.6067C3.2039 18.5886 3.22217 18.5891 3.24044 18.6084L3.2399 18.6079Z" fill="#F8F2EA"/>
<path d="M20.9141 2.40865C20.5015 2.51395 20.0894 2.61925 19.6768 2.72509C20.0491 2.51174 20.4596 2.43787 20.8701 2.36289C20.912 2.35077 20.9243 2.36841 20.9141 2.4092V2.40865Z" fill="#F8F2EA"/>
<path d="M2.85113 33.404C2.65341 32.9949 2.59753 32.5451 2.54004 32.0952C2.64373 32.5313 2.74743 32.9679 2.85113 33.404Z" fill="#F8F2EA"/>
<path d="M7.09432 11.9253C7.10937 11.9413 7.12441 11.9578 7.13946 11.9738C6.95087 12.2401 6.76228 12.5069 6.5737 12.7732C6.55758 12.7622 6.542 12.7511 6.52588 12.7401C6.70802 12.4639 6.88102 12.1811 7.09432 11.9253Z" fill="#F8F2EA"/>
<path d="M10.5242 45.6887C10.7767 45.8944 11.0292 46.1 11.2817 46.3056C10.8868 46.1187 10.6424 45.9186 10.5242 45.6887Z" fill="#F8F2EA"/>
<path d="M30.184 1.55544C29.8971 1.53339 29.6096 1.51079 29.3018 1.48708C29.6182 1.31728 29.8998 1.51685 30.1893 1.50142C30.1872 1.51906 30.1856 1.53725 30.1834 1.55489L30.184 1.55544Z" fill="#F8F2EA"/>
<path d="M35.4478 3.76123C35.7793 3.80478 36.0667 3.93544 36.3284 4.1317C36.035 4.00821 35.7411 3.88472 35.4478 3.76123Z" fill="#F8F2EA"/>
<path d="M19.7711 3.11329C19.7545 3.09731 19.7383 3.08077 19.7217 3.06478C19.9624 2.95121 20.2197 2.90215 20.4728 2.83765C20.4782 2.85529 20.4835 2.87293 20.4889 2.89057C20.2493 2.965 20.0102 3.03887 19.7706 3.11329H19.7711Z" fill="#F8F2EA"/>
<path d="M31.6396 51.0778C31.8443 51.0155 32.049 50.9527 32.2537 50.8904C32.1317 51.1076 31.9071 51.058 31.7282 51.1252C31.6842 51.1374 31.6342 51.1622 31.6396 51.0778Z" fill="#F8F2EA"/>
<path d="M27.6768 52.0094C28.005 52.0033 28.329 51.908 28.6605 51.9719C28.3322 51.978 28.0093 52.0877 27.6768 52.0094Z" fill="#F8F2EA"/>
<path d="M9.78613 44.355C9.97257 44.5347 10.1595 44.715 10.346 44.8947C10.3342 44.9074 10.3218 44.9206 10.31 44.9333C10.1037 44.774 9.92314 44.5876 9.78613 44.355Z" fill="#F8F2EA"/>
<path d="M10.9096 45.4598C10.7113 45.3204 10.5319 45.1599 10.3804 44.9675C10.5878 45.0949 10.7688 45.2548 10.9397 45.4279C10.944 45.4521 10.9338 45.4631 10.9096 45.4598Z" fill="#F8F2EA"/>
<path d="M3.93621 37.0383C3.80512 36.8183 3.71915 36.5807 3.6853 36.321C3.77986 36.5504 3.87443 36.7803 3.96899 37.0096C3.96899 37.0322 3.95824 37.0416 3.93675 37.0388L3.93621 37.0383Z" fill="#F8F2EA"/>
<path d="M41.6402 7.82124C41.6236 7.83833 41.6069 7.85542 41.5903 7.87251C41.4619 7.75233 41.3334 7.63214 41.2056 7.51196C41.3834 7.57205 41.5204 7.68507 41.6408 7.82124H41.6402Z" fill="#F8F2EA"/>
<path d="M46.231 13.1485C46.2444 13.1347 46.2584 13.121 46.2718 13.1072C46.412 13.2671 46.5082 13.4534 46.5754 13.6607C46.4604 13.4898 46.3459 13.3189 46.231 13.1485Z" fill="#F8F2EA"/>
<path d="M20.9142 2.40876C20.8997 2.39333 20.8846 2.37789 20.8701 2.36246C21.078 2.29189 21.2892 2.23786 21.5095 2.23511C21.5143 2.24062 21.5186 2.24668 21.5235 2.2522C21.3284 2.3382 21.1189 2.36246 20.9142 2.40821V2.40876Z" fill="#F8F2EA"/>
<path d="M14.0239 47.6655C14.1776 47.7576 14.3318 47.8497 14.4855 47.9412C14.299 47.9103 14.1421 47.821 14.0239 47.6655Z" fill="#F8F2EA"/>
<path d="M31.6391 51.0781C31.6498 51.131 31.6982 51.1095 31.7277 51.1255C31.544 51.1696 31.3608 51.2143 31.177 51.2584C31.3178 51.1536 31.4768 51.1107 31.6391 51.0781Z" fill="#F8F2EA"/>
<path d="M51.4078 24.9399C51.3933 24.9554 51.3788 24.9703 51.3638 24.9857C51.3068 24.8253 51.3224 24.6615 51.3611 24.4956L51.4078 24.9399Z" fill="#F8F2EA"/>
<path d="M11.5644 45.9871C11.4222 45.9004 11.287 45.8042 11.1739 45.6793C11.1728 45.6578 11.1836 45.65 11.2035 45.655C11.3446 45.718 11.4448 45.8368 11.5633 45.9308C11.5821 45.949 11.5827 45.9678 11.5644 45.9871Z" fill="#F8F2EA"/>
<path d="M16.3333 4.388C16.3483 4.40348 16.3629 4.4195 16.378 4.43497C16.2643 4.51621 16.1383 4.56705 16.001 4.58915C16.0985 4.49687 16.2083 4.42945 16.3327 4.38745L16.3333 4.388Z" fill="#F8F2EA"/>
<path d="M24.9207 1.94141C24.9352 1.95739 24.9502 1.97338 24.9647 1.98937C24.8234 2.06324 24.6762 2.02741 24.5269 1.99323C24.658 1.97614 24.7896 1.9585 24.9207 1.94141Z" fill="#F8F2EA"/>
<path d="M3.2398 18.6088C3.22149 18.6088 3.20264 18.6077 3.18433 18.6072C3.23872 18.4839 3.29311 18.3607 3.34751 18.238C3.34374 18.3751 3.3222 18.5033 3.2398 18.6088Z" fill="#F8F2EA"/>
<path d="M4.14453 16.2369C4.2097 16.1004 4.27486 15.9634 4.34003 15.8269C4.35618 15.8346 4.37288 15.8424 4.38903 15.8501C4.3271 15.9883 4.28832 16.1375 4.14453 16.2369Z" fill="#F8F2EA"/>
<path d="M49.9342 20.308C49.9024 20.1776 49.8706 20.0472 49.8389 19.9167C49.932 20.0135 49.9719 20.1284 49.9735 20.2566C49.994 20.3008 49.9735 20.3124 49.9337 20.308H49.9342Z" fill="#F8F2EA"/>
<path d="M49.5823 36.4077C49.5947 36.4226 49.6071 36.4381 49.6195 36.453C49.5797 36.5685 49.535 36.6813 49.4272 36.8039C49.4671 36.6404 49.515 36.5204 49.5823 36.4077Z" fill="#F8F2EA"/>
<path d="M7.22356 10.532C7.23864 10.5475 7.25426 10.5635 7.26934 10.579C7.21818 10.6983 7.12555 10.7829 7.03076 10.868C7.069 10.7398 7.13039 10.6265 7.22356 10.532Z" fill="#F8F2EA"/>
<path d="M3.96762 37.0095C4.03547 37.1311 4.09956 37.2532 4.11356 37.398C4.0317 37.2897 3.96492 37.1742 3.9353 37.0388C3.94607 37.0289 3.95684 37.0195 3.96762 37.0095Z" fill="#F8F2EA"/>
<path d="M11.5631 45.9868C11.5631 45.9678 11.5626 45.9489 11.562 45.9299C11.6696 45.9935 11.768 46.0688 11.8424 46.177C11.7386 46.1307 11.6343 46.0861 11.5631 45.9874V45.9868Z" fill="#F8F2EA"/>
<path d="M49.5924 18.8658C49.5094 18.7724 49.4475 18.6713 49.4696 18.4961C49.5208 18.6503 49.5568 18.758 49.5924 18.8658Z" fill="#F8F2EA"/>
<path d="M49.9341 20.3073C49.9475 20.2901 49.9605 20.273 49.9739 20.2559C50.0278 20.3586 50.0434 20.4697 50.0267 20.5891C49.996 20.4951 49.9648 20.4012 49.9341 20.3073Z" fill="#F8F2EA"/>
<path d="M50.5208 33.5761C50.5348 33.5822 50.5483 33.5811 50.5617 33.5745C50.531 33.675 50.5003 33.7762 50.4513 33.937C50.4341 33.7629 50.4621 33.6662 50.5208 33.5767V33.5761Z" fill="#F8F2EA"/>
<path d="M21.5093 2.23576C21.6213 2.17774 21.7387 2.15232 21.9083 2.17276C21.7516 2.20536 21.6445 2.26118 21.5233 2.25289C21.5184 2.24736 21.5141 2.24128 21.5093 2.23576Z" fill="#F8F2EA"/>
<path d="M11.1768 45.682C11.0877 45.6079 10.9986 45.5342 10.9094 45.4601C10.9197 45.4495 10.9295 45.4383 10.9399 45.4277C11.0415 45.4891 11.1312 45.5649 11.2067 45.6575C11.1937 45.6614 11.1839 45.6697 11.1768 45.682Z" fill="#F8F2EA"/>
<path d="M50.312 34.4087C50.3007 34.3966 50.2894 34.3839 50.2781 34.3717C50.305 34.2756 50.3319 34.1794 50.3589 34.0833C50.3734 34.1982 50.3777 34.3104 50.3115 34.4087H50.312Z" fill="#F8F2EA"/>
</g>
<path d="M31.4557 31.2249C31.4856 31.4956 31.5611 31.7589 31.6789 32.0029C32.0749 32.8642 32.592 33.6466 33.1159 34.4298C33.7334 35.3534 34.4242 36.2226 35.0324 37.1489C35.7917 38.3186 36.416 39.5755 36.8928 40.8941C37.2028 41.7361 37.5103 42.5817 37.6424 43.479C37.7206 43.9963 37.703 44.5243 37.5904 45.0349C37.5177 45.3792 37.3405 45.6907 37.0844 45.9243C36.0393 46.8892 34.8195 47.5426 33.5137 48.0426C31.6511 48.7498 29.6915 49.1489 27.7077 49.2249C26.5104 49.2753 25.3111 49.229 24.1208 49.0863C23.2553 48.9846 22.3916 48.8881 21.5423 48.6872C20.5713 48.4566 19.5934 48.2487 18.6547 47.8978C17.8425 47.6082 17.0734 47.2038 16.3693 46.6962C16.1717 46.5522 15.9892 46.3873 15.825 46.2041C15.5638 45.9121 15.4206 45.5284 15.4246 45.1314C15.4246 42.6676 16.1308 40.4617 17.6572 38.5347C18.4077 37.5865 19.2842 36.7805 20.136 35.9358C20.8963 35.2036 21.6123 34.4242 22.28 33.6018C22.9069 32.8124 23.2451 31.8844 23.4035 30.8828C23.4206 30.7767 23.3558 30.7521 23.2902 30.7144C22.282 30.1293 21.419 29.3119 20.7689 28.326C20.05 27.2323 19.7467 25.9982 19.7672 24.6843C19.791 23.0528 20.3311 21.6021 21.2382 20.2794C21.8796 19.3435 22.6062 18.491 23.5671 17.9042C25.8908 16.4833 28.2912 16.2044 30.7223 17.6025C32.1073 18.3998 33.006 19.6619 33.5869 21.167C33.9958 22.2257 34.2368 23.3247 34.1576 24.4685C34.0222 26.4271 33.3365 28.1278 31.8646 29.4373C31.7836 29.5138 31.6948 29.5808 31.5996 29.6373C31.4599 29.7145 31.4489 29.7706 31.5783 29.8811C31.9736 30.2264 32.3499 30.5942 32.7053 30.9828C33.0324 31.3336 33.3723 31.6739 33.6082 32.1011C33.6934 32.259 33.8373 32.4414 33.7206 32.6081C33.6039 32.7747 33.3799 32.7124 33.2002 32.6879C33.0205 32.6633 32.8697 32.5528 32.7215 32.4511C32.3224 32.1676 31.9618 31.8308 31.649 31.4494L31.4557 31.2249ZM27.2818 48.4478C28.6256 48.4672 29.9671 48.3304 31.2811 48.0399C32.8876 47.6707 34.4498 47.1804 35.8272 46.198C36.3144 45.8515 36.7471 45.4709 36.9924 44.8999C37.0572 44.7546 37.08 44.5932 37.058 44.435C37.0027 44.0236 36.9192 43.6184 36.8297 43.2132C36.3953 41.2397 35.7343 39.3627 34.615 37.6795C33.9157 36.627 33.2138 35.5744 32.3859 34.6254C31.8941 34.0502 31.5118 33.3849 31.2589 32.6642C30.9112 31.7433 30.7602 30.7561 30.816 29.7697C30.8219 29.6706 30.7725 29.5215 30.9139 29.4601C30.9904 29.4204 31.0598 29.3676 31.1192 29.304C32.8799 27.6936 33.7334 25.6824 33.575 23.2519C33.5325 22.455 33.3342 21.675 32.992 20.9588C32.6498 20.2426 32.1707 19.6049 31.5835 19.0839C29.9386 17.5884 28.0152 17.113 25.8763 17.5735C24.4764 17.8623 23.2037 18.6067 22.2459 19.697C20.8643 21.246 20.2212 23.066 20.527 25.1518C20.8677 27.47 22.0815 29.1935 24.1191 30.2758C24.1611 30.2904 24.1969 30.3195 24.2205 30.3582C24.2441 30.3969 24.254 30.4428 24.2485 30.4881C24.2139 31.4309 23.9184 32.3438 23.3967 33.1194C22.6488 34.2658 21.7527 35.2859 20.8157 36.2691C20.2553 36.8577 19.6718 37.4225 19.101 38.0005C18.1121 39.0022 17.3974 40.1784 16.8301 41.4739C16.3192 42.6385 16.0602 43.9035 16.0712 45.1814C16.0712 45.3665 16.0814 45.5726 16.2739 45.6717C16.8548 45.9708 17.4332 46.2761 18.0312 46.5383C20.9861 47.8399 24.0816 48.4145 27.2818 48.4478ZM33.3799 32.3221C33.3597 32.2156 33.3117 32.1167 33.2411 32.0362C32.9004 31.5775 32.5409 31.1284 32.1618 30.6995C32.0154 30.5242 31.8486 30.3681 31.6652 30.2346C31.5485 30.1557 31.4651 30.1557 31.3603 30.2864C31.2334 30.4451 31.31 30.5653 31.3773 30.6898C31.7431 31.3504 32.2499 31.9166 32.8595 32.3458C32.952 32.4164 33.0557 32.4699 33.1661 32.5037C33.2999 32.5414 33.3765 32.4791 33.3799 32.3221Z" fill="#F8F2EA"/>
<path d="M20.1249 20.4759C20.1683 20.8908 19.8693 21.0583 19.5363 20.9794C19.0038 20.8453 18.489 20.6456 18.003 20.3847C17.0456 19.8909 16.0575 19.4655 15.0949 18.9813C14.4688 18.6682 13.8385 18.3603 13.2985 17.8937C13.1971 17.806 13.0983 17.7183 13.0029 17.6218C12.8436 17.4639 12.8632 17.3218 13.0642 17.2166C13.2257 17.1364 13.4055 17.1036 13.5838 17.1218C14.3504 17.1718 15.0711 17.4113 15.773 17.727C17.0771 18.3147 18.3233 19.0173 19.5669 19.726C19.6621 19.7814 19.754 19.8426 19.8421 19.9093C20.078 20.0856 20.1232 20.1821 20.1249 20.4759ZM20.0397 20.5469C20.0438 20.5056 20.0386 20.4639 20.0246 20.425C20.0106 20.386 19.988 20.3509 19.9588 20.3224C19.7223 20.0386 19.4356 19.8037 19.1138 19.6304C18.0064 19.0164 16.8888 18.4208 15.7295 17.9147C15.1256 17.6516 14.5123 17.4157 13.8555 17.328C13.7286 17.3104 13.6136 17.3341 13.5549 17.4455C13.4961 17.5569 13.5949 17.6393 13.6733 17.7086C13.8865 17.8808 14.1146 18.0326 14.3547 18.1621C16.0404 19.1699 17.8608 19.8751 19.6487 20.6531C19.7239 20.6828 19.8027 20.7017 19.8829 20.7092C19.9894 20.7215 20.0618 20.6811 20.0388 20.5469H20.0397Z" fill="#F8F2EA"/>
<path d="M35.311 22.7975C35.064 22.808 34.8161 22.8676 34.5699 22.7905L34.5461 22.758C34.3698 22.5396 34.3851 22.4379 34.6313 22.3037C34.7596 22.238 34.8913 22.1795 35.0256 22.1282C35.5981 21.8932 36.196 21.7388 36.7787 21.5353C37.4422 21.3037 38.1015 21.0547 38.7872 20.8915C39.1573 20.7992 39.5406 20.7769 39.9184 20.8257C40.1092 20.8512 40.1501 20.9424 40.0709 21.1213C39.9863 21.284 39.8552 21.416 39.6953 21.4993C39.0044 21.9379 38.2336 22.151 37.461 22.3677C36.7557 22.5659 36.0371 22.7096 35.311 22.7975ZM35.3204 22.3256C36.5981 22.0581 37.8894 21.8414 39.0683 21.2125C37.7895 21.4687 36.5353 21.8412 35.3204 22.3256Z" fill="#181818"/>
<path d="M12.7507 31.1661C12.4534 31.1661 12.2694 30.8845 12.3589 30.5591C12.4675 30.193 12.6876 29.8726 12.9867 29.6452C13.62 29.1402 14.3032 28.7054 15.025 28.3479C15.9886 27.8418 16.9807 27.3957 17.9962 27.0121C18.3871 26.87 18.7883 26.7489 19.2125 26.8121C19.3635 26.8198 19.5054 26.8889 19.6069 27.0042C19.6355 27.0329 19.6539 27.0706 19.6591 27.1113C19.6644 27.152 19.6562 27.1934 19.6359 27.2287C19.5295 27.4268 19.3773 27.5949 19.1929 27.7181C18.6096 28.1319 17.9945 28.4962 17.3539 28.8075C16.2261 29.3864 15.1187 30.0048 14.0318 30.6626C13.7468 30.8308 13.447 30.9712 13.1366 31.0819C13.0136 31.1325 12.8831 31.161 12.7507 31.1661ZM12.8632 30.8828C13.01 30.8853 13.1556 30.8538 13.2891 30.7907C13.7827 30.5791 14.2617 30.3329 14.7226 30.0539C15.8564 29.4022 16.9876 28.7435 18.1358 28.1181C18.4101 27.969 18.6989 27.8471 18.9493 27.6541C19.1691 27.4848 19.2815 27.2629 19.2228 27.1226C19.158 26.9673 18.8982 26.8866 18.6359 26.9252C18.1249 27.0098 17.6291 27.1724 17.1648 27.4077C15.8807 28.0332 14.6411 28.7513 13.4552 29.5566C13.1247 29.7776 12.8163 30.0153 12.5906 30.3565C12.5471 30.4124 12.5203 30.48 12.5132 30.5513C12.5061 30.6225 12.519 30.6944 12.5505 30.7582C12.6144 30.8828 12.7354 30.8828 12.8632 30.8828Z" fill="#F8F2EA"/>
<path d="M36.0291 12.3266C36.0234 12.5291 35.9686 12.7269 35.8698 12.902C35.4363 13.7791 34.8587 14.5562 34.2276 15.2913C33.7701 15.8245 33.3757 16.4157 32.897 16.928C32.6568 17.1841 32.4149 17.4376 32.0358 17.4718C31.6883 17.5033 31.4975 17.3016 31.5631 16.9455C31.6162 16.7141 31.71 16.4947 31.8399 16.2982C32.3809 15.4079 32.9926 14.5653 33.6688 13.7791C34.0776 13.2897 34.4703 12.7854 34.938 12.3503C35.0954 12.2021 35.2703 12.0748 35.4584 11.9714C35.8153 11.7793 36.03 11.9118 36.0291 12.3266ZM32.0256 17.4226C32.0805 17.4242 32.1351 17.4138 32.1857 17.392C32.2364 17.3702 32.282 17.3376 32.3195 17.2963C32.402 17.222 32.4783 17.1407 32.5478 17.0534C33.5299 15.7614 34.5444 14.4931 35.4746 13.1555C35.5851 13.0116 35.6715 12.8498 35.7301 12.6766C35.7548 12.5889 35.794 12.4959 35.7233 12.424C35.6526 12.3521 35.5487 12.3775 35.4618 12.41C35.2215 12.4953 35.001 12.6312 34.8144 12.809C33.863 13.7476 32.9805 14.7466 32.2735 15.8965C32.0554 16.2473 31.8399 16.6104 31.7283 17.0209C31.7158 17.0679 31.7139 17.1172 31.7229 17.1651C31.7318 17.2129 31.7513 17.258 31.7799 17.2969C31.8085 17.3357 31.8453 17.3673 31.8877 17.3891C31.93 17.4109 31.9766 17.4224 32.0239 17.4226H32.0256Z" fill="#F8F2EA"/>
<path d="M35.3109 22.7976C36.0366 22.7097 36.755 22.566 37.46 22.3678C38.2326 22.1512 39.0035 21.9381 39.6943 21.4995C39.8542 21.4162 39.9854 21.2842 40.0699 21.1215C40.1491 20.946 40.1083 20.8513 39.9174 20.8259C39.5396 20.7771 39.1563 20.7993 38.7862 20.8917C38.1005 21.0548 37.4412 21.3039 36.7777 21.5355C36.195 21.739 35.5971 21.8933 35.0247 22.1284C34.8903 22.1796 34.7586 22.2382 34.6303 22.3038C34.385 22.438 34.3696 22.5398 34.5451 22.7582C34.479 22.7485 34.4174 22.7181 34.3687 22.6709C34.3201 22.6238 34.2868 22.5624 34.2734 22.495C34.2393 22.3503 34.3194 22.2608 34.4173 22.1793C34.6865 21.9547 35.0068 21.8284 35.3236 21.7074C36.5077 21.246 37.7027 20.8154 38.9396 20.5224C39.247 20.4451 39.5606 20.3973 39.8766 20.3794C40.0827 20.3707 40.3025 20.404 40.3919 20.5943C40.489 20.7987 40.3553 20.9996 40.2173 21.1539C39.9226 21.4846 39.5358 21.6802 39.1474 21.8556C37.9954 22.3748 36.77 22.7006 35.5179 22.8204C35.4514 22.831 35.3739 22.8608 35.3109 22.7976Z" fill="#F8F2EA"/>
<path d="M34.1738 28.0014C34.6184 28.0136 34.9864 28.1987 35.3569 28.3785C36.3944 28.8811 37.3834 29.4811 38.4115 30.0003C38.6721 30.118 38.8961 30.3073 39.0589 30.5476C39.2003 30.7739 39.1501 30.9221 38.9005 31.009C38.7354 31.0655 38.5579 31.0719 38.3894 31.0274C37.9768 30.9158 37.5759 30.7624 37.1926 30.5695C36.6602 30.3143 36.1261 30.0617 35.6048 29.7801C35.1092 29.5026 34.6276 29.1993 34.1619 28.8715C34.0622 28.8001 33.9756 28.711 33.9063 28.6083C33.8601 28.5508 33.83 28.4813 33.8192 28.4075C33.8083 28.3336 33.8173 28.2581 33.845 28.1891C33.8686 28.1222 33.9148 28.0663 33.9753 28.0318C34.0357 27.9973 34.1062 27.9865 34.1738 28.0014ZM34.3842 28.3119C34.2573 28.3119 34.1201 28.3294 34.0784 28.4601C34.0366 28.5908 34.1832 28.6355 34.2615 28.7057C34.2658 28.7057 34.2717 28.7109 34.276 28.7145C35.2309 29.3284 36.2266 29.8731 37.2258 30.4073C37.6055 30.6183 38.0026 30.7944 38.4124 30.9335C38.5325 30.9721 38.6441 30.9827 38.7148 30.8643C38.7855 30.7458 38.7003 30.6485 38.6194 30.5739C38.496 30.4586 38.3666 30.3502 38.2318 30.2494C37.7539 29.8986 37.225 29.631 36.7275 29.3126C36.1357 28.9355 35.5012 28.6344 34.8382 28.4162C34.6922 28.3601 34.5395 28.325 34.3842 28.3119Z" fill="#F8F2EA"/>
<path d="M21.6948 10.8337C21.7585 10.8368 21.8209 10.8541 21.8775 10.8844C21.9341 10.9147 21.9837 10.9572 22.0228 11.0091C22.326 11.367 22.5338 11.7836 22.7255 12.2081C23.3397 13.5764 23.9095 14.9623 24.3014 16.4183C24.3388 16.5551 24.3703 16.6946 24.4002 16.8331C24.4236 16.938 24.4122 17.048 24.3678 17.1454C24.2622 17.3831 24.0739 17.4384 23.8635 17.2866C23.699 17.155 23.5665 16.9856 23.4768 16.7919C23.0119 15.8913 22.5959 14.9648 22.2306 14.0167C21.9041 13.1742 21.6338 12.3097 21.4214 11.4293C21.3914 11.3206 21.3773 11.208 21.3796 11.0951C21.3882 10.8969 21.4648 10.8249 21.6948 10.8337ZM24.3567 17.0103C24.3475 16.8886 24.3264 16.7681 24.2937 16.6507C24.1344 16.163 23.9393 15.6859 23.7519 15.2114C23.3405 14.165 23.0057 13.087 22.5321 12.0661C22.3729 11.724 22.2195 11.3784 21.9929 11.0767C21.8711 10.9162 21.7655 10.9249 21.6471 11.0863C21.5287 11.2477 21.5883 11.403 21.6275 11.5626C21.8907 12.6327 22.2979 13.651 22.7136 14.6641C22.9963 15.3831 23.3466 16.072 23.7596 16.7209C23.8609 16.8801 23.9918 17.0172 24.1446 17.1243C24.2707 17.2103 24.3593 17.1586 24.3567 17.0103Z" fill="#F8F2EA"/>
<path d="M28.5562 15.8885C28.5687 15.5285 28.6199 15.1711 28.7086 14.8228C28.8713 14.1395 28.9872 13.4396 29.3185 12.8107C29.3757 12.6947 29.4418 12.5835 29.5161 12.4783C29.6584 12.2879 29.8816 12.2923 30.0323 12.4783C30.0885 12.5503 30.13 12.6333 30.1543 12.7222C30.1785 12.8111 30.1852 12.9041 30.1737 12.9958C30.1022 13.9878 29.9242 14.957 29.5511 15.8797C29.4623 16.0792 29.3539 16.2688 29.2274 16.4454C29.1039 16.6305 28.896 16.6428 28.724 16.4621C28.5519 16.2814 28.5655 16.1086 28.5562 15.8885ZM30.0562 13.1878C30.0677 13.068 30.0576 12.9469 30.0264 12.8309C29.9497 12.6169 29.8611 12.5853 29.6857 12.716C29.5323 12.834 29.421 13.0008 29.3688 13.1905C29.1132 13.9948 28.8688 14.8017 28.7495 15.642C28.7188 15.856 28.6771 16.0806 28.7401 16.2946C28.7479 16.3414 28.7678 16.3853 28.7978 16.4214C28.8278 16.4575 28.8668 16.4846 28.9105 16.4998C28.9957 16.5209 29.057 16.4463 29.1047 16.3797C29.1543 16.3144 29.1974 16.2441 29.2333 16.17C29.6721 15.2321 29.9505 14.2232 30.0562 13.1878Z" fill="#F8F2EA"/>
<path d="M36.8689 26.1822C36.5043 26.0542 36.1091 26.1243 35.7436 25.9954C35.5897 25.9549 35.445 25.8837 35.3177 25.7858C35.2223 25.5674 35.2999 25.4288 35.5528 25.4042C36.2505 25.3341 36.9421 25.4183 37.6321 25.5069C37.7301 25.5186 37.8243 25.5529 37.9077 25.6071C37.9911 25.6613 38.0617 25.734 38.1142 25.82C38.1585 25.8902 38.167 25.97 38.0793 25.9954C37.9558 26.0261 37.8519 26.0998 37.7224 26.1191C37.4394 26.1582 37.1544 26.1792 36.8689 26.1822ZM37.5239 25.8796C37.0128 25.8735 36.5086 25.7489 35.9949 25.8042C36.5043 25.8375 37.0077 25.934 37.5239 25.8831V25.8796ZM35.7351 25.6121C36.0605 25.6586 36.3876 25.6349 36.713 25.6682C36.3962 25.572 36.0621 25.5528 35.7368 25.6121H35.7351Z" fill="#181818"/>
<path d="M21.4061 18.5954C21.4632 18.6893 21.5203 18.7831 21.5765 18.877C21.5923 18.8999 21.6065 18.9239 21.6191 18.9489C21.6557 19.0366 21.7622 19.1173 21.6898 19.2164C21.6174 19.3155 21.4964 19.2954 21.3882 19.2699C21.3493 19.2616 21.3113 19.2489 21.2749 19.2322C21.1318 19.1612 20.9913 19.0875 20.849 19.0147C20.8337 18.984 20.8184 18.9533 20.7758 18.9743L20.7817 18.9796C20.7817 18.9252 20.7451 18.9173 20.7085 18.9059C20.6838 18.8822 20.6599 18.8577 20.6344 18.8349C20.2034 18.4516 19.7655 18.0753 19.4333 17.592C19.3482 17.4648 19.2306 17.3052 19.3592 17.1587C19.4879 17.0122 19.6616 17.1052 19.8022 17.1841C20.0447 17.3319 20.2717 17.5054 20.4794 17.7016C20.7443 17.9332 20.9743 18.2042 21.2562 18.4147V18.4103C21.2511 18.4437 21.2562 18.4665 21.2962 18.4498L21.2911 18.4446C21.2775 18.5086 21.3303 18.5252 21.3661 18.5551V18.5507C21.3695 18.5788 21.3755 18.6033 21.4061 18.5954ZM21.1906 18.8436C21.2008 18.8524 21.217 18.8717 21.2204 18.8691C21.2511 18.8489 21.2204 18.8384 21.2119 18.8243C20.7392 18.2411 20.2264 17.7069 19.5586 17.3254C19.5583 17.364 19.5658 17.4023 19.5804 17.4379C19.5951 17.4735 19.6166 17.5056 19.6437 17.5324C20.0972 18.0419 20.6179 18.4833 21.1906 18.8436Z" fill="#181818"/>
<path d="M36.3612 18.0216C36.2116 18.2404 36.0225 18.4275 35.8041 18.5724C35.7359 18.6189 35.6984 18.6917 35.6286 18.7286C35.5809 18.7286 35.5434 18.7435 35.5434 18.8031L35.5485 18.7987C35.431 18.8207 35.3543 18.9075 35.2691 18.9821C35.2474 18.9859 35.2268 18.9944 35.2086 19.0071C35.1904 19.0198 35.175 19.0364 35.1635 19.0557C35.1413 19.058 35.12 19.0658 35.1015 19.0785C35.0829 19.0912 35.0677 19.1084 35.057 19.1285C35.0357 19.1285 35.0034 19.1224 35.0179 19.1654H35.0221C34.9565 19.1426 34.9182 19.1996 34.8713 19.225C34.7481 19.301 34.6166 19.3616 34.4795 19.4057C34.3867 19.4294 34.2802 19.4601 34.2095 19.3636C34.1788 19.3196 34.1632 19.2663 34.1652 19.2121C34.1672 19.1579 34.1867 19.106 34.2206 19.0645C34.2681 18.9904 34.3202 18.9195 34.3764 18.8522C34.6166 18.5888 34.8843 18.3535 35.1746 18.1506C35.4369 17.9576 35.7002 17.7629 36.0119 17.6629C36.138 17.6225 36.2777 17.5839 36.3893 17.6927C36.5009 17.8015 36.3876 17.9085 36.3612 18.0216ZM36.1056 18.062C36.1908 17.9874 36.3288 17.876 36.2836 17.7936C36.224 17.6839 36.0775 17.7787 35.9702 17.8094C35.9617 17.8094 35.9557 17.8208 35.9446 17.8304C36.0596 17.8523 36.1337 17.9006 36.0801 18.0357C36.0698 18.0541 36.0187 18.0567 36.0494 18.0892C36.0801 18.1216 36.0979 18.0935 36.1073 18.062H36.1056ZM34.523 19.1294C34.8679 19.0066 35.8007 18.2348 35.971 17.9436C35.3637 18.2312 34.8782 18.5952 34.523 19.1294Z" fill="#181818"/>
<path d="M26.5961 16.2755C26.4854 16.2965 26.4675 16.1992 26.4419 16.1325C26.1587 15.4388 25.956 14.7131 25.838 13.9704C25.7981 13.7911 25.7843 13.6066 25.7971 13.4231C25.8184 13.2837 25.8312 13.1188 25.9871 13.0723C26.1429 13.0258 26.2622 13.131 26.3704 13.2477C26.654 13.5652 26.7332 13.9687 26.815 14.3669C26.9215 14.8406 26.989 15.3226 27.0169 15.808C27.0349 15.968 27.0001 16.1296 26.9181 16.2667C26.8201 16.4088 26.6736 16.4071 26.5927 16.2667C26.7792 16.3351 26.8295 16.3071 26.8559 16.1097C26.8653 16.0394 26.867 15.9682 26.861 15.8975C26.8116 15.3177 26.6651 14.7572 26.5654 14.1836C26.5307 13.9308 26.452 13.6865 26.3329 13.4626C26.2997 13.4065 26.2605 13.331 26.1736 13.3494C26.1401 13.359 26.1096 13.3775 26.0852 13.403C26.0608 13.4286 26.0434 13.4603 26.0348 13.4951C26.0043 13.5909 25.991 13.6917 25.9956 13.7924C25.9956 14.4353 26.1659 15.0449 26.3363 15.6545C26.3985 15.8755 26.4573 16.0939 26.5961 16.2755Z" fill="#F8F2EA"/>
<path d="M19.1642 23.9536C19.2936 23.9896 19.3925 24.0703 19.3797 24.2123C19.3669 24.3544 19.3183 24.4974 19.148 24.55C18.9376 24.6127 18.7196 24.6441 18.5006 24.643C17.8379 24.6509 17.1743 24.6579 16.5287 24.4676C16.3672 24.4229 16.2118 24.3575 16.0661 24.2729C15.889 24.1667 15.8685 24.0097 16.004 23.8448C16.0671 23.7673 16.1451 23.7039 16.233 23.6587C16.3209 23.6134 16.4169 23.5872 16.515 23.5817C17.3589 23.5113 18.2078 23.6172 19.0108 23.8931C18.3431 23.7389 17.6631 23.6482 16.9793 23.6221C16.7837 23.6065 16.5872 23.6325 16.4018 23.6984C16.3528 23.717 16.3101 23.7499 16.279 23.793C16.2478 23.8361 16.2295 23.8877 16.2263 23.9413C16.2135 24.0562 16.2885 24.1115 16.3677 24.165C16.4886 24.2457 16.63 24.243 16.7655 24.265C17.3498 24.3632 17.9282 24.5114 18.5253 24.5079C18.7076 24.5079 18.8899 24.522 19.0688 24.4413C19.2476 24.3606 19.332 24.1097 19.1386 23.9764L19.1642 23.9536Z" fill="#F8F2EA"/>
<path d="M20.6037 29.3812C20.6434 29.4163 20.6689 29.4654 20.6753 29.5189C20.6559 29.5401 20.6377 29.5623 20.6207 29.5856C20.2391 30.1375 19.7628 30.6131 19.2153 30.9889C19.0866 31.0766 18.9061 31.1924 18.7766 31.053C18.6471 30.9135 18.7766 30.7416 18.8762 30.6144C19.1816 30.1875 19.5701 29.8308 20.0168 29.5671C20.1982 29.4645 20.3873 29.3724 20.6037 29.3812ZM19.1335 30.7846C19.5349 30.5484 19.8846 30.2295 20.1608 29.8478C20.171 29.8382 20.1906 29.8215 20.1889 29.8189C20.1718 29.7899 20.1548 29.8101 20.1386 29.8189C19.7587 30.0881 19.3805 30.3609 19.1105 30.7583C19.0943 30.7644 19.0798 30.7749 19.0934 30.7925C19.0969 30.803 19.1199 30.7951 19.1335 30.7881V30.7846Z" fill="#181818"/>
<path d="M36.8688 26.1823C37.1538 26.1781 37.4383 26.1558 37.7206 26.1157C37.8501 26.0964 37.954 26.0227 38.0775 25.992C38.1627 25.9701 38.1568 25.8902 38.1125 25.8166C38.0599 25.7306 37.9893 25.6578 37.9059 25.6037C37.8225 25.5495 37.7283 25.5152 37.6303 25.5034C36.9404 25.4157 36.2487 25.328 35.5511 25.4008C35.2955 25.4254 35.2206 25.564 35.316 25.7824C35.1397 25.7508 35.1132 25.6069 35.1056 25.4631C35.0979 25.3192 35.2163 25.2877 35.3296 25.2701C36.3119 25.1188 37.3147 25.1992 38.2624 25.5052C38.5179 25.5929 38.5418 25.7411 38.339 25.9253C38.1039 26.1393 37.8101 26.1797 37.5196 26.2016C37.3041 26.2209 37.0826 26.2577 36.8688 26.1823Z" fill="#F8F2EA"/>
<path d="M20.6036 29.3812C20.3872 29.3724 20.1981 29.4645 20.0167 29.5671C19.5703 29.8298 19.1819 30.1853 18.8761 30.6109C18.779 30.7398 18.6393 30.903 18.7765 31.0495C18.9136 31.1959 19.0865 31.0767 19.2152 30.9854C19.7627 30.6096 20.239 30.134 20.6206 29.5821C20.6376 29.5588 20.6558 29.5366 20.6752 29.5154C20.6692 29.7084 20.561 29.8505 20.4384 29.9741C20.0516 30.3636 19.6785 30.7679 19.2458 31.1021C19.131 31.2014 19.0016 31.2814 18.8625 31.3389C18.6964 31.3977 18.595 31.3345 18.561 31.1573C18.5395 31.0643 18.5506 30.9664 18.5925 30.8811C18.9493 30.1741 19.5477 29.6283 20.2723 29.3487C20.3753 29.311 20.5022 29.2575 20.6036 29.3812Z" fill="#F8F2EA"/>
<path d="M36.3611 18.0216C36.3875 17.9084 36.517 17.8005 36.3952 17.6804C36.2734 17.5602 36.1439 17.6102 36.0179 17.6506C35.7061 17.7505 35.4429 17.9453 35.1805 18.1382C34.8902 18.3412 34.6226 18.5765 34.3824 18.8399C34.3261 18.9072 34.2741 18.9781 34.2265 19.0522C34.1926 19.0937 34.1732 19.1456 34.1712 19.1998C34.1692 19.2539 34.1847 19.3072 34.2154 19.3513C34.2861 19.4478 34.3926 19.4171 34.4855 19.3934C34.6227 19.3508 34.7545 19.2916 34.8781 19.2171C34.925 19.1916 34.9633 19.1346 35.0289 19.1574C34.8117 19.3478 34.5766 19.4995 34.2768 19.4653C34.0936 19.4451 34.0493 19.3451 34.1107 19.1671C34.2086 18.8803 34.4216 18.6873 34.6269 18.4891C34.9572 18.1504 35.3239 17.8514 35.7197 17.5979C35.8773 17.4991 36.0502 17.4288 36.2308 17.3901C36.4693 17.3436 36.5996 17.462 36.5715 17.712C36.5688 17.7789 36.5476 17.8436 36.5103 17.8984C36.473 17.9533 36.4213 17.996 36.3611 18.0216Z" fill="#F8F2EA"/>
<path d="M21.2604 18.419C20.9784 18.2085 20.7493 17.9375 20.4835 17.7059C20.2759 17.5096 20.0489 17.3362 19.8063 17.1884C19.6658 17.1095 19.4963 17.013 19.3634 17.163C19.2305 17.313 19.3506 17.4691 19.4375 17.5963C19.7697 18.0796 20.2041 18.4558 20.6385 18.8391C20.6641 18.8619 20.6879 18.8865 20.7126 18.9102C20.6573 18.9365 20.6275 18.89 20.5917 18.8637C20.1019 18.4778 19.6249 18.0743 19.2577 17.5594C19.226 17.5177 19.1975 17.4734 19.1726 17.427C19.1155 17.3121 19.0252 17.184 19.1325 17.0691C19.1841 17.0082 19.2533 16.9659 19.33 16.9485C19.4067 16.9311 19.4868 16.9396 19.5584 16.9726C20.0244 17.1796 20.4102 17.5042 20.7791 17.8585C20.9554 18.0296 21.1445 18.1918 21.2604 18.419Z" fill="#F8F2EA"/>
<path d="M20.8489 19.0147C20.9911 19.0875 21.1317 19.1611 21.2748 19.2322C21.3111 19.2489 21.3491 19.2616 21.3881 19.2699C21.4963 19.2953 21.6164 19.3155 21.6896 19.2164C21.7629 19.1173 21.6555 19.0357 21.6189 18.9489C21.6064 18.9239 21.5921 18.8999 21.5763 18.877C21.6964 18.9331 21.8319 19.2006 21.7842 19.2927C21.7365 19.3848 21.5354 19.4515 21.4008 19.3804C21.2083 19.2708 20.9937 19.2015 20.8489 19.0147Z" fill="#F8F2EA"/>
<path d="M35.2693 18.9843C35.3554 18.9088 35.433 18.821 35.5519 18.7988C35.4993 18.9284 35.3908 18.9665 35.2693 18.9843Z" fill="#F8F2EA"/>
<path d="M35.1653 19.0545C35.177 19.0349 35.1926 19.018 35.2112 19.005C35.2297 18.9921 35.2508 18.9834 35.2729 18.9795C35.2703 19.0554 35.2199 19.0635 35.1653 19.0545Z" fill="#F8F2EA"/>
<path d="M35.0605 19.1247C35.0714 19.1041 35.0869 19.0866 35.1058 19.0737C35.1247 19.0608 35.1464 19.0528 35.169 19.0505C35.1673 19.1309 35.1178 19.1309 35.0605 19.1247Z" fill="#F8F2EA"/>
<path d="M21.3683 18.5613C21.3318 18.5309 21.2815 18.514 21.2919 18.4487C21.3134 18.4585 21.3319 18.4742 21.3454 18.494C21.3589 18.5139 21.3668 18.5371 21.3683 18.5613Z" fill="#F8F2EA"/>
<path d="M35.5435 18.8059C35.5435 18.744 35.5823 18.7312 35.6318 18.7285C35.6286 18.7502 35.6179 18.77 35.6017 18.7842C35.5854 18.7984 35.5648 18.8061 35.5435 18.8059Z" fill="#F8F2EA"/>
<path d="M20.7109 18.9084C20.7489 18.9203 20.7904 18.9285 20.7869 18.9849C20.7436 18.9776 20.7012 18.9703 20.7109 18.9084Z" fill="#F8F2EA"/>
<path d="M19.0806 23.9399C19.095 23.9318 19.1116 23.929 19.1278 23.9322C19.1439 23.9353 19.1584 23.9442 19.1689 23.9572L19.1477 23.9817C19.1221 23.9735 19.0885 23.9754 19.0832 23.9362L19.0806 23.9399Z" fill="#F8F2EA"/>
<path d="M19.0125 23.8992C19.0338 23.9175 19.0784 23.8992 19.0837 23.9414C19.0543 23.9414 19.0223 23.9414 19.0151 23.9001L19.0125 23.8992Z" fill="#F8F2EA"/>
<path d="M20.7783 18.9772C20.8229 18.9552 20.8389 18.9873 20.8549 19.0194C20.8473 19.0229 20.839 19.0245 20.8306 19.0242C20.8222 19.0239 20.814 19.0216 20.8067 19.0175C20.7993 19.0134 20.7929 19.0077 20.788 19.0007C20.7831 18.9938 20.7798 18.9857 20.7783 18.9772Z" fill="#F8F2EA"/>
<path d="M34.5461 22.7581L34.5704 22.7924C34.5773 22.7683 34.5686 22.7572 34.5461 22.7581Z" fill="#F8F2EA"/>
<path d="M21.4057 18.5967C21.3753 18.6021 21.3694 18.5794 21.3635 18.5549L21.4057 18.5967Z" fill="#F8F2EA"/>
<path d="M21.2979 18.4568C21.256 18.4747 21.2517 18.4502 21.2569 18.4146C21.2674 18.4148 21.2775 18.4192 21.2851 18.4271C21.2927 18.4349 21.2973 18.4455 21.2979 18.4568Z" fill="#F8F2EA"/>
<path d="M35.024 19.161C35.0091 19.115 35.0423 19.1244 35.0641 19.1216C35.0764 19.1638 35.0493 19.1629 35.024 19.161Z" fill="#F8F2EA"/>
<path d="M27.2819 48.4477C24.0817 48.4143 20.9862 47.8398 18.0304 46.5461C17.4341 46.2829 16.8541 45.9786 16.2731 45.6795C16.0806 45.5804 16.0713 45.3743 16.0704 45.1892C16.0595 43.9113 16.3184 42.6463 16.8294 41.4816C17.3933 40.1862 18.1071 39.01 19.1003 38.0083C19.671 37.4303 20.2545 36.8681 20.815 36.2769C21.752 35.2936 22.6481 34.2736 23.396 33.1272C23.9176 32.3516 24.2132 31.4386 24.2478 30.4959C24.2532 30.4505 24.2433 30.4047 24.2197 30.366C24.1962 30.3273 24.1603 30.2982 24.1183 30.2836C22.0808 29.2012 20.8652 27.4768 20.5262 25.1595C20.2204 23.0738 20.8669 21.2538 22.2452 19.7048C23.2029 18.6145 24.4756 17.87 25.8756 17.5813C28.0179 17.1208 29.9413 17.5962 31.5827 19.0917C32.1699 19.6127 32.649 20.2504 32.9912 20.9666C33.3334 21.6828 33.5317 22.4627 33.5742 23.2597C33.7327 25.6867 32.8791 27.6979 31.1185 29.3118C31.0591 29.3753 30.9897 29.4281 30.9132 29.4679C30.7718 29.5293 30.8212 29.6784 30.8152 29.7775C30.7594 30.7639 30.9105 31.7511 31.2582 32.672C31.5111 33.3927 31.8934 34.058 32.3851 34.6332C33.2131 35.584 33.9184 36.6356 34.6143 37.6873C35.7327 39.3704 36.3937 41.2475 36.829 43.221C36.9142 43.6262 36.9993 44.0314 37.0573 44.4428C37.0793 44.601 37.0565 44.7624 36.9917 44.9076C36.7464 45.4786 36.3102 45.8593 35.8264 46.2058C34.449 47.1855 32.8868 47.6758 31.2803 48.0477C29.9664 48.3355 28.6251 48.4696 27.2819 48.4477ZM18.8209 39.4783C18.8354 39.4652 18.8584 39.4529 18.8303 39.4318C18.8205 39.4405 18.8114 39.4499 18.803 39.4599C18.786 39.4687 18.757 39.4757 18.7792 39.5003C18.8013 39.5248 18.8098 39.4906 18.8209 39.4783ZM22.9948 35.2261C22.9794 35.2305 22.9556 35.2305 22.982 35.2542C22.982 35.2445 22.9896 35.2349 22.9931 35.2244C22.9965 35.2138 23.0288 35.2244 23.0075 35.1998L22.9948 35.2261ZM22.9266 35.334C22.913 35.334 22.8951 35.3296 22.9096 35.3542L22.9241 35.3314C22.9317 35.3252 22.9615 35.3314 22.9334 35.3068L22.9266 35.334ZM23.2017 34.9402L23.2384 34.9077C23.2505 34.9017 23.2608 34.8922 23.2678 34.8804C23.2749 34.8686 23.2786 34.8549 23.2784 34.8411L23.3091 34.8016C23.338 34.7919 23.3457 34.7665 23.3517 34.7393L23.3798 34.6972L23.4241 34.6349L23.4479 34.5893C23.4603 34.5827 23.4704 34.5724 23.4768 34.5597C23.4832 34.5469 23.4856 34.5325 23.4837 34.5183L23.5127 34.4771L23.5416 34.4393L23.5203 34.4288C23.5203 34.4446 23.5152 34.4613 23.5135 34.4779C23.4888 34.4735 23.4803 34.4902 23.4752 34.5104L23.4317 34.5709L23.4028 34.613C23.3891 34.6349 23.3764 34.6569 23.3636 34.6797L23.3346 34.7209C23.3201 34.7419 23.3065 34.763 23.2929 34.7849L23.2673 34.8297L23.2239 34.8911C23.2162 34.9077 23.2086 34.9235 23.2017 34.9402L23.1677 34.977C23.1544 34.9823 23.1436 34.9926 23.1373 35.0057C23.131 35.0189 23.1297 35.034 23.1336 35.0481C23.0978 35.0603 23.097 35.0893 23.1004 35.1209L23.0552 35.127L23.0629 35.1472L23.0978 35.1191C23.1091 35.1109 23.1181 35.0997 23.124 35.0868C23.1298 35.0739 23.1322 35.0596 23.131 35.0454C23.1685 35.0358 23.1736 35.0086 23.166 34.9753C23.1907 34.9779 23.1975 34.9612 23.2 34.9384L23.2017 34.9402ZM34.926 40.3554C34.925 40.3505 34.9233 40.3458 34.9209 40.3414C34.9178 40.3408 34.9147 40.3408 34.9116 40.3414L34.9277 40.3563L34.9414 40.3923C34.9414 40.3923 34.9456 40.3835 34.9414 40.3809C34.9368 40.3721 34.9317 40.3636 34.926 40.3554ZM30.2914 26.7471C30.259 26.755 30.2522 26.7822 30.2462 26.8094C30.2275 26.819 30.2111 26.8327 30.198 26.8495C30.1849 26.8663 30.1755 26.8858 30.1704 26.9067C30.1491 26.9348 30.0954 26.9611 30.138 26.9988C30.1559 27.0137 30.1857 26.9655 30.1934 26.9313C30.211 26.9185 30.226 26.9022 30.2374 26.8834C30.2488 26.8646 30.2565 26.8436 30.2598 26.8216C30.2668 26.8192 30.2732 26.8153 30.2787 26.8103C30.2842 26.8052 30.2885 26.799 30.2916 26.7921C30.2946 26.7851 30.2962 26.7777 30.2963 26.7701C30.2965 26.7625 30.295 26.755 30.2922 26.748C30.3135 26.748 30.3263 26.7418 30.3075 26.7181L30.2914 26.7471ZM24.1251 23.7114L24.091 23.7833L24.0561 23.8544C24.034 23.8763 24.0178 23.8991 24.0433 23.9289L24.0817 23.8781L24.1149 23.8061L24.149 23.7342C24.1626 23.7184 24.1754 23.7026 24.1541 23.6842C24.1438 23.6925 24.1341 23.7016 24.1251 23.7114ZM24.9301 19.4136C24.9573 19.4136 24.9718 19.3864 24.9565 19.3688C24.9411 19.3513 24.9258 19.3811 24.9122 19.3916L24.8773 19.4276C24.1421 20.3047 23.3687 21.1511 22.8764 22.2186C22.3568 23.3395 21.7153 25.1437 21.7528 25.4709C21.7605 25.4656 21.7724 25.4621 21.7758 25.4542C21.7903 25.4156 21.8031 25.377 21.8159 25.3376C22.309 23.8465 22.9155 22.4142 23.7426 21.0853C24.097 20.517 24.5025 19.9872 24.8977 19.4487C24.9023 19.4487 24.9069 19.4477 24.9112 19.4458C24.9154 19.4438 24.9192 19.441 24.9222 19.4374C24.9253 19.4338 24.9276 19.4296 24.9289 19.425C24.9303 19.4205 24.9307 19.4157 24.9301 19.4109V19.4136ZM34.8596 40.2081C34.8681 40.2212 34.8409 40.2546 34.8818 40.2502L34.857 40.2098C34.8519 40.1827 34.8511 40.1537 34.8221 40.1397C34.8153 40.1353 34.8221 40.102 34.8008 40.1256L34.8247 40.137C34.8214 40.1512 34.823 40.1662 34.8294 40.1792C34.8358 40.1922 34.8465 40.2024 34.8596 40.2081ZM34.2693 46.5478L34.3221 46.5347L34.2701 46.5487L34.2693 46.5478ZM17.4887 41.7746C17.5731 41.6889 17.6212 41.5722 17.6224 41.4501C17.5484 41.5435 17.5028 41.6573 17.4912 41.7772L17.4699 41.8009L17.4844 41.8079L17.4887 41.7746ZM16.8711 43.6657C16.805 43.7961 16.771 43.9413 16.7723 44.0884L16.8208 44.0954C16.843 43.9595 16.866 43.8227 16.8881 43.6858L17.0764 42.9105C16.9719 43.1502 16.9032 43.4048 16.8728 43.6657H16.8711ZM31.5563 23.4649C31.7897 23.3579 31.8928 23.1053 32.0997 22.9694C31.8846 23.0883 31.7008 23.2593 31.564 23.4676L31.5461 23.5088C31.5546 23.5088 31.5665 23.5088 31.5708 23.5088C31.5887 23.4869 31.5861 23.4702 31.5563 23.4649ZM18.1156 40.5309L18.7792 39.538C18.4768 39.8072 18.297 40.1634 18.1045 40.5116C18.0562 40.5611 18.0287 40.6282 18.0279 40.6984C18.0703 40.651 18.1004 40.5934 18.1156 40.5309ZM32.3757 46.8829C31.5529 47.1138 30.7163 47.2896 29.8714 47.4092C30.7232 47.3609 31.5393 47.1522 32.3587 46.9355C32.5135 46.9088 32.6627 46.8551 32.7999 46.7768C32.6537 46.7873 32.5103 46.8232 32.3757 46.8829ZM28.287 47.9275C28.339 47.9275 28.3901 47.9354 28.4421 47.9345C28.9361 47.9223 29.4276 47.8688 29.9174 47.8074C30.2879 47.76 30.6576 47.7021 31.0248 47.6486C30.8288 47.6319 30.6355 47.5855 30.4421 47.6258C29.732 47.7681 29.0139 47.8651 28.2922 47.9161C28.0128 47.8854 27.7385 47.96 27.4599 47.9582C27.6014 47.9741 27.7438 47.9782 27.8858 47.9705C28.0238 47.9617 28.1644 48.0258 28.2879 47.9275H28.287ZM26.4642 47.339C27.2197 47.339 27.7419 47.3337 28.253 47.3057C29.7153 47.2417 31.1663 47.0111 32.5793 46.618C33.6594 46.3075 34.6944 45.8874 35.6399 45.2523C35.7024 45.2172 35.7546 45.1655 35.7912 45.1026C35.8277 45.0397 35.8473 44.9678 35.8477 44.8945C35.8573 44.7644 35.8544 44.6337 35.8392 44.5042C35.7029 43.7104 35.5836 42.907 35.3085 42.1518C34.6766 40.3731 33.7646 38.7136 32.6091 37.24C32.1951 36.7137 31.7573 36.2067 31.3979 35.6419C30.3638 34.0394 29.9012 32.2588 29.8723 30.3485C29.8723 30.2161 29.8723 30.1678 29.7223 30.2406C28.3897 30.9226 26.8689 31.1086 25.4182 30.7669C25.3151 30.7432 25.281 30.7511 25.2648 30.8669C25.1106 31.9562 24.7035 32.9404 24.1728 33.8938C23.5549 35.0281 22.7598 36.0499 21.8193 36.9181C20.6993 37.9335 19.6589 39.0383 18.7076 40.2221C18.1113 40.9659 17.7391 41.8255 17.4052 42.7043C17.2821 43.0409 17.1964 43.3908 17.1496 43.7472C17.0951 44.1305 17.0483 44.5138 16.998 44.898C16.9878 44.943 16.9945 44.9904 17.0168 45.0306C17.039 45.0708 17.0753 45.1008 17.1181 45.1146C17.6469 45.4025 18.1925 45.6562 18.7519 45.8742C21.315 46.8732 23.9752 47.2986 26.465 47.339H26.4642ZM30.7428 32.5246C30.7692 32.6123 30.7939 32.7 30.8152 32.7781C30.9534 33.2995 31.1896 33.7879 31.5103 34.2157C31.92 34.7683 32.4047 35.2551 32.8033 35.8146C33.116 36.2532 33.3996 36.7181 33.7258 37.1461C34.326 37.927 34.8544 38.7635 35.3042 39.645C35.6595 40.3467 35.8954 41.0913 36.1561 41.8614C36.1621 41.8305 36.1655 41.7991 36.1663 41.7676C36.1637 41.7378 36.158 41.7084 36.1492 41.6799C35.8627 40.7112 35.4814 39.7749 35.0112 38.8854C34.3042 37.575 33.4158 36.3883 32.4788 35.2489C31.8076 34.4332 31.1679 33.614 30.8229 32.5904C30.8186 32.5632 30.8169 32.5167 30.7437 32.5246H30.7428ZM22.4717 25.7524C22.8435 24.6359 23.2992 23.5508 23.8346 22.5071C24.3858 21.4546 25.0272 20.4661 25.8636 19.5995C25.7674 19.5855 25.7393 19.3899 25.6081 19.5653C24.9863 20.4117 24.3559 21.2511 23.844 22.1756C23.2145 23.2899 22.7521 24.4958 22.4726 25.7524H22.4717ZM23.7435 19.532C22.597 20.9555 21.171 24.0412 21.3346 24.7139C21.3865 24.6885 21.3772 24.6324 21.3899 24.592C21.901 22.9255 22.591 21.3467 23.5774 19.9091C23.6599 19.798 23.717 19.669 23.7443 19.532H23.7435ZM22.8184 19.7513C22.4734 19.9346 22.3508 20.2688 22.1813 20.5407C21.694 21.3116 21.3099 22.1405 21.1182 23.0501C21.1097 23.0895 21.0492 23.1378 21.1318 23.1553C21.1659 23.1615 21.1668 23.1018 21.1778 23.072C21.5961 21.9116 22.1012 20.8003 22.8193 19.7513H22.8184ZM23.7554 26.926C24.3329 25.8235 24.8083 24.6648 25.3986 23.5658C25.2129 23.8377 25.0399 24.1158 24.8773 24.4008C24.4215 25.2016 23.9931 26.0147 23.7554 26.926ZM35.708 42.4605C35.8341 43.1999 35.9968 43.9332 36.0487 44.6945C36.3111 44.1717 36.1084 42.8833 35.708 42.4605ZM27.2334 25.6779C26.9088 26.255 26.6303 26.8295 26.362 27.4111C26.4267 27.4374 26.4241 27.3777 26.4352 27.3558C26.6805 26.8751 26.9403 26.4027 27.2146 25.9384C27.2345 25.8985 27.2464 25.8548 27.2497 25.8101C27.2529 25.7654 27.2473 25.7204 27.2334 25.6779ZM26.3603 25.2814C26.6158 24.8683 27.0196 24.5429 27.1013 23.9737C26.8295 24.3942 26.582 24.8308 26.3603 25.2814ZM24.7614 30.5906C24.7741 30.9194 24.7507 31.2487 24.6916 31.5721C24.7767 31.5317 24.7767 31.4659 24.7836 31.4151C24.8261 31.1949 24.8551 30.9721 24.9054 30.7537C24.9394 30.6195 24.8875 30.5844 24.764 30.5906H24.7614ZM25.2503 27.6961L25.2887 27.7216C25.459 27.3807 25.6308 27.0395 25.804 26.698C25.4957 26.9602 25.3858 27.3339 25.2529 27.6952L25.2503 27.6961ZM27.4727 27.6593C27.2836 28.0163 27.1188 28.3865 26.9795 28.7671C27.2001 28.4268 27.4114 28.0759 27.4753 27.6584L27.4727 27.6593ZM26.1192 24.1289C25.8841 24.3473 25.6669 24.7762 25.6379 25.0472L26.1192 24.1289ZM27.8714 47.5828V47.6355C28.2163 47.6451 28.5613 47.6626 28.8748 47.5767L27.8714 47.5828ZM31.1934 47.4846C31.5069 47.4728 31.8176 47.4207 32.1185 47.3293L32.11 47.2855L31.1934 47.4846ZM17.6616 41.4229L17.9768 40.7914C17.8296 40.9766 17.7222 41.1919 17.6616 41.4229ZM24.4139 27.5979C24.5195 27.4856 24.5374 27.3119 24.5706 27.1427C24.4957 27.2851 24.4429 27.4387 24.4139 27.5979ZM30.8408 26.9795C30.9648 26.8804 31.0484 26.7371 31.075 26.5778L30.8408 26.9795ZM16.9265 44.7971C16.9069 44.5884 16.9887 44.3849 16.9639 44.1753C16.8989 44.3756 16.8859 44.59 16.9265 44.7971ZM29.3467 47.4679H29.6874C29.5673 47.3399 29.4523 47.4784 29.3467 47.4679ZM30.73 31.3905C30.7408 31.2701 30.7199 31.1489 30.6696 31.0397C30.6449 31.1519 30.6994 31.2493 30.73 31.3905ZM33.5154 46.8636C33.5617 46.8687 33.6085 46.8617 33.6514 46.8431C33.6943 46.8245 33.7319 46.7951 33.7608 46.7575L33.5154 46.8636ZM24.4309 23.1202C24.3712 23.1923 24.3312 23.2795 24.3151 23.3728C24.3515 23.3424 24.3808 23.3038 24.4009 23.2601C24.4209 23.2164 24.4312 23.1686 24.4309 23.1202ZM23.89 24.2377C23.8382 24.2931 23.8079 24.3661 23.8048 24.4429C23.8328 24.4172 23.8549 24.3855 23.8696 24.3501C23.8843 24.3146 23.8913 24.2762 23.89 24.2377ZM32.4217 47.2311C32.3292 47.2201 32.2356 47.2385 32.1534 47.2837C32.2505 47.3206 32.3229 47.2846 32.4217 47.2311ZM32.5742 47.1802C32.6526 47.1969 32.696 47.1802 32.7309 47.1346C32.673 47.1092 32.633 47.1451 32.5785 47.1802H32.5742ZM23.735 24.6148C23.7433 24.6069 23.7505 24.5977 23.7563 24.5876C23.7639 24.5666 23.8031 24.5289 23.752 24.5289C23.7196 24.5289 23.7137 24.578 23.735 24.6148ZM34.1347 46.6189C34.0674 46.632 34.0299 46.6303 34.0138 46.6776C34.0555 46.6969 34.081 46.6706 34.1347 46.6189ZM33.9448 46.7066C33.9239 46.6994 33.9013 46.7 33.8808 46.7083C33.8604 46.7167 33.8435 46.7322 33.8332 46.7522C33.8537 46.7601 33.8763 46.7596 33.8965 46.7508C33.9166 46.742 33.9327 46.7255 33.9414 46.7048L33.9448 46.7066ZM30.4012 26.6155L30.3902 26.5875C30.3747 26.6011 30.3608 26.6164 30.3484 26.6331C30.3399 26.6462 30.3399 26.6699 30.3621 26.6611C30.3842 26.6524 30.3893 26.6278 30.4012 26.6138V26.6155ZM17.7459 45.669C17.78 45.7076 17.8055 45.7488 17.8549 45.7067C17.8417 45.6909 17.8247 45.679 17.8055 45.6724C17.7863 45.6657 17.7657 45.6646 17.7459 45.669ZM24.0127 23.9658C23.9905 24.0009 23.9496 24.0202 23.9803 24.0754C24.011 24.0473 24.0391 24.0219 24.0127 23.9658ZM24.2537 23.5C24.2629 23.4977 24.2715 23.4933 24.2787 23.487C24.286 23.4808 24.2917 23.4729 24.2955 23.464C24.2993 23.4551 24.301 23.4454 24.3006 23.4356C24.3001 23.4259 24.2975 23.4164 24.2929 23.4079C24.2571 23.4272 24.2307 23.4527 24.2537 23.5ZM29.7965 27.4663C29.7877 27.4811 29.7803 27.4966 29.7743 27.5128C29.7743 27.5198 29.7743 27.5549 29.8024 27.5339C29.8181 27.5189 29.8301 27.5002 29.8373 27.4795C29.8399 27.4742 29.8365 27.4418 29.7965 27.4663ZM29.7232 27.6619C29.7398 27.6417 29.754 27.6196 29.7658 27.5961C29.7658 27.5882 29.7547 27.5733 29.7479 27.5619C29.7322 27.5764 29.7185 27.5929 29.707 27.611C29.7028 27.6189 29.7138 27.6374 29.7232 27.6619ZM29.6781 27.6619C29.6697 27.6749 29.6631 27.6891 29.6585 27.704C29.6585 27.704 29.6806 27.7198 29.6815 27.7189C29.6912 27.7073 29.6992 27.6943 29.7053 27.6803C29.6982 27.6735 29.6905 27.6673 29.6823 27.6619H29.6781ZM16.9904 44.1174C16.9987 44.0995 17.0021 44.0795 17.0003 44.0598C16.9985 44.04 16.9916 44.0211 16.9801 44.0051C16.9801 44.0472 16.9631 44.0779 16.9904 44.1174ZM26.3432 25.3332L26.3228 25.3192C26.3228 25.3235 26.3151 25.3288 26.316 25.3323C26.3168 25.3358 26.3236 25.3472 26.327 25.3551L26.3432 25.3332ZM30.1082 27.0137C30.0945 27.0247 30.082 27.037 30.0707 27.0506C30.0707 27.0567 30.0707 27.069 30.0767 27.0786C30.0895 27.0786 30.1082 27.0734 30.1133 27.0646C30.1184 27.0558 30.1082 27.0365 30.1082 27.0137ZM29.8867 27.4146C29.8978 27.3865 29.8867 27.3742 29.8697 27.3751C29.8527 27.376 29.8459 27.3847 29.845 27.3918C29.8462 27.4065 29.8493 27.4209 29.8544 27.4347L29.8867 27.4146ZM32.4422 47.2074C32.4477 47.2133 32.4543 47.2179 32.4617 47.2211C32.469 47.2242 32.4768 47.2259 32.4848 47.2259C32.4927 47.2259 32.5005 47.2242 32.5079 47.2211C32.5152 47.2179 32.5218 47.2133 32.5273 47.2074C32.5026 47.1758 32.4737 47.1837 32.4439 47.2074H32.4422ZM30.8365 27.0471L30.8271 27.0199L30.799 27.0348C30.7828 27.0418 30.782 27.0497 30.799 27.0576C30.8161 27.0655 30.828 27.0707 30.8365 27.0471ZM23.9547 24.1289L23.9437 24.1149C23.9437 24.1149 23.9334 24.1228 23.9334 24.1272C23.9334 24.1315 23.9394 24.1359 23.9428 24.1403L23.9547 24.1289ZM24.1924 23.6228C24.1924 23.6228 24.1856 23.6167 24.183 23.6176C24.1805 23.6184 24.1762 23.6246 24.1728 23.6281L24.1924 23.6342V23.6228ZM24.2316 23.5588L24.2205 23.5448C24.2205 23.5448 24.2094 23.5527 24.2094 23.557C24.2094 23.5614 24.2154 23.5658 24.2188 23.5702L24.2316 23.5588ZM34.7344 39.9853L34.7404 39.9748H34.731L34.7344 39.9853ZM34.771 40.0397L34.7659 40.0493H34.7736L34.771 40.0397ZM17.3379 45.4681L17.3439 45.4611H17.3311L17.3379 45.4681ZM17.4742 45.5444L17.487 45.5348C17.487 45.5348 17.4801 45.5251 17.4759 45.5251C17.4716 45.5251 17.4682 45.5304 17.464 45.533L17.4742 45.5444ZM17.5543 45.5699C17.5543 45.5699 17.5483 45.5602 17.544 45.5602C17.5398 45.5602 17.5364 45.5655 17.533 45.5681C17.5295 45.5707 17.5389 45.5778 17.5432 45.5778C17.5474 45.5778 17.5508 45.5725 17.5543 45.5699ZM17.6241 45.6058C17.6241 45.6058 17.6173 45.5953 17.6139 45.5953C17.6105 45.5953 17.6054 45.6006 17.6011 45.6041C17.5968 45.6076 17.6088 45.6137 17.6122 45.6137C17.6156 45.6137 17.6207 45.6084 17.6241 45.6058ZM17.682 45.6479L17.6897 45.6383H17.6769L17.682 45.6479ZM34.1824 46.5961L34.1765 46.604H34.1867L34.1824 46.5961ZM23.9207 24.2017L23.9105 24.1886C23.9105 24.1886 23.9002 24.1965 23.9002 24.2C23.9002 24.2035 23.9053 24.2087 23.9087 24.2131L23.9207 24.2017ZM17.9972 40.7379L18.01 40.7265C18.0035 40.7215 17.9963 40.7176 17.9887 40.7151C17.9887 40.7151 17.9819 40.7221 17.9785 40.7256L17.9972 40.7379ZM17.4009 45.4971L17.4129 45.5041V45.4935L17.4009 45.4971Z" fill="#181818"/>
<path d="M33.3799 32.3221C33.3799 32.4791 33.2998 32.5414 33.1661 32.5037C33.0557 32.4699 32.9519 32.4165 32.8594 32.3458C32.2498 31.9166 31.743 31.3504 31.3773 30.6898C31.31 30.5653 31.2333 30.4451 31.3602 30.2864C31.465 30.1557 31.5485 30.1557 31.6652 30.2346C31.8485 30.3681 32.0153 30.5242 32.1618 30.6995C32.5408 31.1284 32.8969 31.5766 33.241 32.0362C33.3117 32.1167 33.3597 32.2156 33.3799 32.3221ZM32.8688 31.9967C32.8799 32.0055 32.8986 32.0239 32.9003 32.0222C32.9207 32.002 32.9105 31.9871 32.8875 31.9774C32.8766 31.9124 32.8486 31.8518 32.8066 31.802C32.5049 31.3548 32.1343 30.9614 31.7095 30.6372C31.695 30.6258 31.6788 30.6249 31.6626 30.6521C31.9937 31.1638 32.402 31.6177 32.8722 31.9967H32.8688Z" fill="#181818"/>
<path d="M20.039 20.5469C20.062 20.6811 19.9896 20.7223 19.8797 20.7092C19.7995 20.7016 19.7206 20.6827 19.6454 20.653C17.8566 19.875 16.0372 19.1699 14.3514 18.1621C14.1114 18.0326 13.8833 17.8808 13.67 17.7086C13.5916 17.6393 13.4877 17.5639 13.5516 17.4455C13.6155 17.327 13.722 17.3104 13.8523 17.3279C14.509 17.4156 15.1223 17.6516 15.7263 17.9147C16.8856 18.4208 18.0006 19.0207 19.1105 19.6303C19.4323 19.8037 19.7191 20.0385 19.9555 20.3224C19.9852 20.3507 20.0083 20.3856 20.0227 20.4246C20.0372 20.4635 20.0428 20.5054 20.039 20.5469ZM16.7936 18.6339C16.8012 18.662 16.8242 18.6655 16.8464 18.6655C16.8515 18.6655 16.8566 18.6515 16.8626 18.6445L16.8004 18.6269C16.7927 18.5936 16.7689 18.5866 16.7408 18.591C16.7408 18.591 16.7331 18.6138 16.734 18.6146C16.7535 18.6225 16.7731 18.6278 16.7936 18.6339ZM18.6676 19.9119C18.6812 19.9452 18.7025 19.9514 18.7314 19.9312L18.6855 19.89C18.5869 19.8086 18.4833 19.7339 18.3754 19.6663C17.3166 19.0848 16.2544 18.5103 15.1138 18.1094C15.0695 18.0936 15.0286 18.0717 14.9809 18.1094C15.0661 18.1498 15.1513 18.1875 15.2314 18.2287C16.0057 18.6173 16.7757 19.0181 17.5551 19.3935C17.9205 19.576 18.2757 19.7856 18.6659 19.9119H18.6676ZM14.0678 17.5621C14.1186 17.6235 14.1811 17.6734 14.2514 17.7089C14.3218 17.7444 14.3984 17.7645 14.4767 17.7682C14.5914 17.7775 14.7044 17.8032 14.8123 17.8445C15.36 18.0401 15.912 18.2252 16.4307 18.4857C16.5159 18.5278 16.6011 18.5646 16.6863 18.6041L16.7041 18.5559C15.8523 18.1471 14.9903 17.7595 14.0627 17.5621H14.0678ZM17.2842 18.8778L17.3132 18.862C17.3038 18.8558 17.2944 18.8462 17.2851 18.8453C17.2757 18.8444 17.2663 18.8541 17.257 18.8594L17.2842 18.8778ZM16.9333 18.7085C16.9468 18.7196 16.9614 18.7293 16.9767 18.7374C16.9815 18.7378 16.9862 18.737 16.9907 18.7352C16.9951 18.7334 16.9991 18.7305 17.0023 18.7269C17.0202 18.705 16.9938 18.6997 16.9852 18.6971C16.9767 18.6945 16.9537 18.7006 16.9282 18.7067L16.9333 18.7085ZM17.2033 18.8085C17.2033 18.8085 17.1931 18.8164 17.1931 18.819C17.1958 18.8264 17.1992 18.8334 17.2033 18.8401C17.2033 18.8401 17.2135 18.8322 17.2135 18.8295C17.2098 18.8211 17.2046 18.8133 17.1982 18.8067L17.2033 18.8085ZM17.1496 18.7901C17.1496 18.7901 17.142 18.7795 17.1394 18.7804C17.132 18.7824 17.1248 18.7854 17.1181 18.7892C17.1181 18.7892 17.1258 18.7997 17.1283 18.7988C17.1342 18.7962 17.1397 18.7926 17.1445 18.7883L17.1496 18.7901ZM17.0815 18.7541C17.0815 18.7541 17.0738 18.7436 17.0704 18.7445C17.0626 18.7466 17.0552 18.7498 17.0483 18.7541C17.0483 18.7541 17.0559 18.7646 17.0593 18.7646C17.065 18.761 17.0705 18.7569 17.0755 18.7523L17.0815 18.7541Z" fill="#181818"/>
<path d="M35.3203 22.3257C36.5352 21.8413 37.7895 21.4688 39.0683 21.2126C37.8894 21.8415 36.5972 22.0582 35.3203 22.3257Z" fill="#F8F2EA"/>
<path d="M12.8631 30.8829C12.7354 30.8829 12.6144 30.8829 12.5505 30.7609C12.519 30.6971 12.506 30.6253 12.5131 30.554C12.5202 30.4828 12.5471 30.4151 12.5905 30.3592C12.812 30.0154 13.1246 29.7777 13.4543 29.5567C14.6391 28.7515 15.8776 28.0335 17.1605 27.4077C17.6248 27.1725 18.1206 27.0099 18.6316 26.9253C18.8939 26.8867 19.1537 26.9674 19.2185 27.1227C19.2772 27.263 19.1648 27.4849 18.945 27.6542C18.6946 27.8472 18.4058 27.9691 18.1316 28.1182C16.9833 28.7436 15.8521 29.4023 14.7184 30.054C14.2586 30.3343 13.7808 30.582 13.2882 30.7951C13.1546 30.8566 13.0094 30.8866 12.8631 30.8829ZM13.0633 30.1654C13.0633 30.1584 13.0991 30.1654 13.0744 30.1426C13.0744 30.1513 13.0684 30.1601 13.0659 30.168H13.0369L13.048 30.1864L13.0633 30.1654ZM12.9585 30.2355C12.9248 30.2532 12.8972 30.2811 12.8794 30.3155C12.8616 30.3498 12.8544 30.389 12.8589 30.4276C12.9142 30.3522 12.9577 30.3127 12.9696 30.2522L12.9892 30.2215L12.9585 30.2355ZM14.2643 29.818C15.8015 29.1556 17.2653 28.3255 18.6307 27.342C18.5964 27.3274 18.5595 27.3204 18.5223 27.3214C18.4852 27.3225 18.4487 27.3316 18.4152 27.3481C17.8736 27.5095 17.3495 27.7279 16.8513 27.9998C16.1162 28.4173 15.3606 28.8006 14.6928 29.333C14.5173 29.4605 14.371 29.6261 14.2643 29.818ZM13.5292 30.1926C13.4441 30.2759 13.3487 30.3469 13.3188 30.4671C13.3137 30.4855 13.3504 30.5022 13.3717 30.4882C13.4216 30.4585 13.4626 30.4152 13.4901 30.363C13.5176 30.3108 13.5305 30.2518 13.5275 30.1926H13.5292ZM14.2107 29.9487C14.117 29.9224 14.1545 29.8505 14.1025 29.8128C14.0548 29.8645 13.9824 29.8908 13.9747 29.9786C14.0539 29.9932 14.1356 29.9828 14.209 29.9487H14.2107Z" fill="#181818"/>
<path d="M32.0237 17.4226C31.9766 17.4224 31.9302 17.4112 31.888 17.3897C31.8458 17.3682 31.8089 17.337 31.7802 17.2986C31.7515 17.2601 31.7317 17.2154 31.7224 17.1679C31.7131 17.1204 31.7145 17.0713 31.7264 17.0244C31.838 16.6139 32.0535 16.2534 32.2716 15.8999C32.9786 14.75 33.8611 13.751 34.8125 12.8125C34.9991 12.6346 35.2196 12.4987 35.4599 12.4134C35.5451 12.381 35.6473 12.3529 35.7214 12.4274C35.7955 12.502 35.7529 12.595 35.7282 12.68C35.6696 12.8532 35.5832 13.0151 35.4727 13.159C34.5459 14.4965 33.5314 15.7648 32.5476 17.0568C32.4781 17.1441 32.4018 17.2254 32.3193 17.2998C32.2813 17.3407 32.2353 17.3727 32.1843 17.3939C32.1334 17.4151 32.0786 17.4249 32.0237 17.4226ZM31.9862 17.198C32.3133 17.0323 35.3177 13.1247 35.4045 12.7555C35.3249 12.7905 35.2533 12.8421 35.1941 12.9072C34.3403 13.7284 33.5561 14.6231 32.85 15.5815C32.5629 15.9657 32.2537 16.3385 32.0697 16.7911C32.0169 16.9191 31.9547 17.0463 31.9862 17.1998V17.198Z" fill="#181818"/>
<path d="M34.3842 28.312C34.5394 28.3245 34.6922 28.3591 34.8382 28.4146C35.5012 28.6328 36.1357 28.9339 36.7275 29.311C37.225 29.6294 37.7539 29.8961 38.2318 30.2478C38.3666 30.3486 38.496 30.4569 38.6194 30.5723C38.7003 30.6469 38.7897 30.7407 38.7148 30.8626C38.6398 30.9846 38.5325 30.9705 38.4124 30.9319C38.0026 30.7928 37.6055 30.6167 37.2258 30.4057C36.2266 29.8715 35.2309 29.3295 34.276 28.7129C34.2717 28.7129 34.2658 28.7076 34.2615 28.7041C34.1832 28.633 34.0358 28.5909 34.0784 28.4585C34.121 28.326 34.2573 28.3094 34.3842 28.312ZM35.8936 29.0286C35.9072 29.0628 35.9353 29.0646 35.9651 29.0619C35.9703 29.0754 35.9801 29.0865 35.9926 29.0932C36.0052 29.0998 36.0196 29.1015 36.0333 29.0979C36.0426 29.14 36.0733 29.1356 36.104 29.1321C36.104 29.1575 36.1176 29.1654 36.1381 29.1681C36.1508 29.2014 36.1789 29.2032 36.207 29.204C36.2181 29.2409 36.2462 29.2426 36.276 29.2391C36.2871 29.276 36.3161 29.2777 36.3459 29.2742L36.3621 29.2926C36.3621 29.2926 36.3621 29.2838 36.3621 29.2821C36.3571 29.2798 36.352 29.2781 36.3467 29.2768C36.334 29.2435 36.3067 29.2417 36.2777 29.2417C36.2692 29.1996 36.2403 29.2005 36.2088 29.2067C36.2002 29.1654 36.1713 29.1654 36.1398 29.1707C36.1398 29.1435 36.1261 29.1374 36.1048 29.1347C36.0938 29.1005 36.0674 29.0944 36.0367 29.0979C36.0239 29.0646 35.9975 29.0602 35.9668 29.0628C35.9617 29.0216 35.9302 29.0251 35.9013 29.0233C35.8896 29.0138 35.8774 29.005 35.8646 28.997C35.8595 29.0027 35.855 29.0089 35.851 29.0155L35.8936 29.0286ZM37.9149 30.475C37.9243 30.475 37.9345 30.4671 37.943 30.4697C37.9516 30.4723 37.9686 30.4697 37.9567 30.4601C37.9447 30.4504 37.9286 30.4688 37.9132 30.475C37.9558 30.4223 37.9132 30.4153 37.8783 30.4013L37.8178 30.3592C36.9106 29.8127 36.0554 29.1672 35.0477 28.8111C35.0483 28.8206 35.0511 28.8299 35.0558 28.8381C35.0606 28.8464 35.0671 28.8533 35.075 28.8585C35.8513 29.3064 36.6278 29.7537 37.4047 30.2004C37.5261 30.2788 37.6566 30.341 37.7931 30.3855C37.8076 30.4188 37.8349 30.4215 37.8647 30.418L37.9149 30.475ZM36.5171 29.3838C36.5158 29.3796 36.5141 29.3755 36.512 29.3716C36.512 29.3716 36.506 29.3716 36.5026 29.3716L36.5188 29.3847C36.5261 29.3922 36.5338 29.3992 36.5418 29.4058C36.5418 29.4058 36.5495 29.4058 36.5537 29.4058L36.5171 29.3838ZM36.4226 29.3295L36.4336 29.3356V29.326L36.4226 29.3295Z" fill="#181818"/>
<path d="M24.3567 17.0103C24.3567 17.1585 24.2716 17.2103 24.1446 17.1243C23.9918 17.0172 23.8609 16.8801 23.7596 16.7209C23.3467 16.072 22.9963 15.3831 22.7136 14.664C22.2979 13.651 21.8908 12.6326 21.6276 11.5626C21.5884 11.4029 21.533 11.2416 21.6471 11.0863C21.7613 10.9311 21.8712 10.9161 21.993 11.0767C22.2196 11.3784 22.3729 11.724 22.5322 12.066C23.0058 13.087 23.3405 14.165 23.752 15.2113C23.9394 15.6885 24.1344 16.163 24.2937 16.6507C24.3264 16.7681 24.3476 16.8885 24.3567 17.0103ZM22.0696 12.0248C22.062 12.009 22.0603 11.9757 22.0356 11.9915C22.0109 12.0073 22.0228 12.0327 22.0509 12.0424C22.0586 12.0827 22.0628 12.1239 22.0739 12.1634C22.3874 13.2501 22.8755 14.2641 23.3209 15.2956C23.4581 15.6212 23.6178 15.9363 23.7988 16.2384C23.8354 16.2998 23.8653 16.3735 23.9641 16.3709C23.97 16.2428 23.907 16.1463 23.8644 16.0455C23.5237 15.2438 23.2 14.436 22.8823 13.6238C22.6741 13.0594 22.4013 12.5226 22.0696 12.0248Z" fill="#181818"/>
<path d="M30.0561 13.188C29.9499 14.2235 29.671 15.2323 29.2316 16.1702C29.1956 16.2443 29.1525 16.3145 29.103 16.3798C29.0553 16.4464 28.9973 16.521 28.9088 16.5C28.865 16.4848 28.8261 16.4577 28.7961 16.4215C28.7661 16.3854 28.7461 16.3416 28.7384 16.2947C28.6754 16.0763 28.7171 15.8562 28.7478 15.6421C28.867 14.8019 29.1132 13.9949 29.367 13.1906C29.4188 13.0012 29.5295 12.8344 29.6822 12.7161C29.8611 12.5854 29.9497 12.617 30.0229 12.831C30.0553 12.9469 30.0666 13.0679 30.0561 13.188ZM29.0093 15.9719C29.3696 14.9922 29.6745 13.9993 29.7555 12.9485C29.3292 13.9008 29.0763 14.9256 29.0093 15.9719Z" fill="#181818"/>
<path d="M37.5239 25.8831C37.0128 25.9375 36.5017 25.841 35.9949 25.8077C36.5085 25.7489 37.0136 25.8735 37.5239 25.8831Z" fill="#F8F2EA"/>
<path d="M35.7368 25.6122C36.0626 25.5527 36.3974 25.5719 36.7147 25.6684C36.3893 25.635 36.0622 25.6587 35.7368 25.6122Z" fill="#666666"/>
<path d="M21.1905 18.8435C20.6173 18.4818 20.0962 18.0389 19.6428 17.5278C19.6157 17.5011 19.5941 17.4689 19.5795 17.4333C19.5648 17.3977 19.5574 17.3595 19.5576 17.3208C20.2254 17.7023 20.7382 18.2365 21.211 18.8198L21.1905 18.8435Z" fill="#F8F2EA"/>
<path d="M21.2123 18.8242C21.2201 18.8392 21.2524 18.8505 21.221 18.8721C21.221 18.8721 21.2009 18.8543 21.1904 18.8449L21.2123 18.8242Z" fill="#F8F2EA"/>
<path d="M34.5229 19.1295C34.8773 18.5953 35.3637 18.2313 35.971 17.9436C35.8041 18.2348 34.8679 19.0067 34.5229 19.1295Z" fill="#F8F2EA"/>
<path d="M36.082 18.0365C36.1358 17.9011 36.0616 17.8527 35.9463 17.8308C35.9574 17.8211 35.9634 17.8114 35.9719 17.8097C36.0795 17.7789 36.228 17.6839 36.2861 17.7938C36.3314 17.8765 36.1956 17.9881 36.1077 18.0629L36.082 18.0365Z" fill="#F8F2EA"/>
<path d="M36.109 18.0627C36.0994 18.0952 36.0749 18.115 36.0512 18.0907C36.0276 18.0663 36.0723 18.0546 36.0828 18.0356L36.109 18.0627Z" fill="#F8F2EA"/>
<path d="M26.5962 16.2754C26.4573 16.0938 26.3985 15.8754 26.3406 15.6614C26.1703 15.0474 25.9956 14.4422 25.9999 13.7993C25.9954 13.6985 26.0086 13.5978 26.0391 13.5019C26.0477 13.4672 26.0651 13.4355 26.0895 13.4099C26.1139 13.3844 26.1444 13.3659 26.1779 13.3563C26.2631 13.3379 26.304 13.4134 26.3372 13.4695C26.4563 13.6934 26.535 13.9377 26.5698 14.1905C26.6694 14.7615 26.8159 15.3246 26.8653 15.9043C26.8713 15.9751 26.8696 16.0463 26.8602 16.1166C26.8338 16.314 26.7836 16.342 26.597 16.2736L26.5962 16.2754ZM26.2554 13.8124C26.2554 14.5457 26.4454 15.2404 26.6694 15.9289C26.6271 15.2069 26.4872 14.4946 26.2537 13.8124H26.2554Z" fill="#181818"/>
<path d="M19.0157 23.8965C19.0225 23.9351 19.0532 23.9333 19.0813 23.936C19.0864 23.9737 19.1188 23.9719 19.1435 23.9798C19.3369 24.1132 19.2559 24.3631 19.0737 24.4447C18.8914 24.5263 18.7125 24.5105 18.5302 24.5114C17.9339 24.5114 17.3547 24.3666 16.7704 24.2684C16.6349 24.2465 16.4935 24.2491 16.3726 24.1684C16.2933 24.1149 16.2184 24.0596 16.2312 23.9447C16.2344 23.8911 16.2527 23.8396 16.2838 23.7964C16.315 23.7533 16.3577 23.7204 16.4066 23.7018C16.592 23.6359 16.7886 23.6099 16.9842 23.6255C17.668 23.6516 18.348 23.7423 19.0157 23.8965ZM16.6307 23.9553C17.0199 24.186 18.5941 24.2886 18.8121 24.0956C18.0921 23.9748 17.3623 23.9272 16.6332 23.9535L16.6307 23.9553ZM18.0447 24.3403C18.2572 24.4034 18.4809 24.4159 18.6989 24.3772C18.4831 24.3449 18.2651 24.3326 18.0472 24.3403H18.0447Z" fill="#181818"/>
<path d="M20.1606 29.8513C19.8845 30.233 19.5347 30.5519 19.1334 30.788L19.1104 30.7643C19.3804 30.367 19.7586 30.0942 20.1385 29.825C20.1452 29.8343 20.1526 29.8431 20.1606 29.8513Z" fill="#F8F2EA"/>
<path d="M20.1418 29.8264C20.159 29.8141 20.177 29.7923 20.1951 29.8264C20.1951 29.8264 20.1761 29.8473 20.1653 29.8577C20.1567 29.848 20.1488 29.8375 20.1418 29.8264Z" fill="#F8F2EA"/>
<path d="M19.1346 30.7898C19.1207 30.7945 19.0971 30.8057 19.0936 30.801C19.0796 30.7822 19.0936 30.771 19.1111 30.7644L19.1346 30.7898Z" fill="#F8F2EA"/>
<path d="M26.4649 47.3391C23.975 47.2987 21.3148 46.8733 18.7551 45.8699C18.1958 45.6519 17.6501 45.3982 17.1214 45.1103C17.0785 45.0965 17.0423 45.0665 17.02 45.0263C16.9977 44.9861 16.991 44.9387 17.0013 44.8937C17.0515 44.5095 17.0984 44.1262 17.1529 43.7429C17.1996 43.3865 17.2853 43.0366 17.4084 42.7C17.7423 41.8229 18.1146 40.9616 18.7108 40.2178C19.6621 39.034 20.7026 37.9292 21.8225 36.9137C22.763 36.0456 23.5581 35.0238 24.176 33.8895C24.7067 32.9361 25.113 31.9519 25.2681 30.8626C25.2842 30.7468 25.3183 30.7389 25.4214 30.7626C26.8721 31.1043 28.3929 30.9183 29.7256 30.2363C29.8729 30.1635 29.8738 30.2117 29.8755 30.3442C29.9045 32.2545 30.367 34.0351 31.4011 35.6375C31.764 36.2024 32.1984 36.7111 32.6124 37.2356C33.7678 38.7093 34.6798 40.3687 35.3117 42.1475C35.5843 42.9026 35.7061 43.7061 35.8424 44.4999C35.8576 44.6294 35.8605 44.7601 35.8509 44.8902C35.8505 44.9635 35.831 45.0354 35.7944 45.0983C35.7579 45.1612 35.7056 45.2129 35.6431 45.248C34.6976 45.8831 33.6626 46.3006 32.5825 46.6137C31.1695 47.0068 29.7186 47.2374 28.2562 47.3014C27.7392 47.3338 27.2204 47.3364 26.4649 47.3391Z" fill="#F8F2EA"/>
<path d="M30.7437 32.5248C30.8169 32.5169 30.8186 32.5634 30.8288 32.5924C31.1738 33.6159 31.8135 34.4343 32.4847 35.2509C33.4217 36.3911 34.3102 37.577 35.0172 38.8874C35.4876 39.7768 35.8692 40.7131 36.156 41.6818C36.1648 41.7104 36.1705 41.7398 36.1731 41.7695C36.1723 41.8011 36.1689 41.8325 36.1629 41.8634C35.8988 41.0933 35.6628 40.3469 35.3111 39.6469C34.8606 38.7654 34.3317 37.9288 33.7309 37.1481C33.4047 36.72 33.1211 36.2569 32.8084 35.8166C32.4081 35.2553 31.92 34.7685 31.5103 34.2159C31.1899 33.788 30.954 33.2996 30.8161 32.7783C30.7948 32.6967 30.7701 32.6152 30.7437 32.5248Z" fill="#F8F2EA"/>
<path d="M24.8977 19.4487C24.5024 19.9873 24.097 20.5171 23.7426 21.0854C22.9155 22.4142 22.309 23.8483 21.8158 25.3376C21.803 25.3771 21.7903 25.4157 21.7758 25.4543C21.7758 25.4622 21.7604 25.4657 21.7528 25.471C21.7153 25.1438 22.3601 23.3361 22.8763 22.216C23.3687 21.1486 24.1421 20.303 24.8772 19.425C24.8833 19.4336 24.8902 19.4415 24.8977 19.4487Z" fill="#F8F2EA"/>
<path d="M22.4724 25.7526C22.7541 24.4969 23.2185 23.2921 23.8498 22.1793C24.3609 21.2548 24.9921 20.4154 25.6139 19.569C25.7425 19.3936 25.7706 19.5892 25.8694 19.6032C25.0312 20.4698 24.3915 21.4583 23.8404 22.5108C23.3034 23.5532 22.846 24.6371 22.4724 25.7526Z" fill="#F8F2EA"/>
<path d="M23.7442 19.532C23.7158 19.6693 23.6575 19.7983 23.5738 19.9091C22.5874 21.3432 21.9017 22.9255 21.3863 24.592C21.3736 24.6324 21.3863 24.6885 21.331 24.7139C21.1708 24.0412 22.5968 20.9555 23.7442 19.532Z" fill="#F8F2EA"/>
<path d="M22.8193 19.7515C22.1037 20.804 21.5961 21.9118 21.1787 23.0704C21.1676 23.1003 21.1668 23.1582 21.1327 23.1538C21.0475 23.138 21.1105 23.088 21.1191 23.0485C21.3107 22.139 21.6949 21.3101 22.1821 20.5391C22.3516 20.2698 22.4743 19.9348 22.8193 19.7515Z" fill="#F8F2EA"/>
<path d="M23.7554 26.9261C23.993 26.0148 24.4215 25.2017 24.8772 24.4009C25.0399 24.1159 25.2128 23.8378 25.3985 23.5659C24.8082 24.6649 24.3329 25.8236 23.7554 26.9261Z" fill="#F8F2EA"/>
<path d="M35.708 42.4607C36.1084 42.8826 36.3111 44.1711 36.0487 44.6947C35.9968 43.9342 35.8341 43.201 35.708 42.4607Z" fill="#F8F2EA"/>
<path d="M28.2954 47.9162C29.0183 47.8653 29.7375 47.7684 30.4488 47.6259C30.6421 47.5856 30.8355 47.632 31.0314 47.6487C30.6617 47.7022 30.292 47.7601 29.9241 47.8075C29.4343 47.8689 28.9428 47.9224 28.4487 47.9346C28.3968 47.9346 28.3457 47.9303 28.2937 47.9276L28.2954 47.9162Z" fill="#F8F2EA"/>
<path d="M27.2332 25.678C27.2475 25.7209 27.2533 25.7663 27.2501 25.8115C27.2468 25.8568 27.2347 25.9008 27.2145 25.9411C26.9396 26.4054 26.6798 26.8779 26.4351 27.3585C26.424 27.3804 26.4266 27.4401 26.3618 27.4138C26.6301 26.8296 26.9087 26.2551 27.2332 25.678Z" fill="#F8F2EA"/>
<path d="M32.3586 46.934C31.5392 47.1506 30.7197 47.3594 29.8713 47.4076C30.7163 47.288 31.5528 47.1122 32.3757 46.8813C32.3702 46.8823 32.3652 46.8848 32.361 46.8885C32.3568 46.8923 32.3537 46.8971 32.352 46.9024C32.3502 46.9078 32.3499 46.9136 32.3511 46.9192C32.3523 46.9247 32.3549 46.9298 32.3586 46.934Z" fill="#F8F2EA"/>
<path d="M26.3601 25.2816C26.5819 24.8311 26.8293 24.3944 27.1012 23.9739C27.022 24.5431 26.6157 24.8685 26.3601 25.2816Z" fill="#F8F2EA"/>
<path d="M24.7639 30.5908C24.8875 30.5847 24.9394 30.6171 24.9079 30.7539C24.8576 30.9723 24.8287 31.1925 24.7861 31.4153C24.7759 31.4661 24.7784 31.5319 24.6941 31.5723C24.7532 31.2489 24.7766 30.9196 24.7639 30.5908Z" fill="#F8F2EA"/>
<path d="M25.2527 27.6954C25.3856 27.334 25.4955 26.9604 25.8064 26.6973C25.636 27.0382 25.4642 27.3794 25.291 27.7209L25.2527 27.6954Z" fill="#F8F2EA"/>
<path d="M27.4751 27.6584C27.4112 28.0768 27.2 28.4233 26.9819 28.7662C27.1212 28.3857 27.286 28.0155 27.4751 27.6584Z" fill="#F8F2EA"/>
<path d="M26.119 24.1289L25.6377 25.0472C25.6667 24.7736 25.8839 24.3447 26.119 24.1289Z" fill="#F8F2EA"/>
<path d="M18.0977 40.5117C18.2902 40.1608 18.4699 39.81 18.7723 39.5381C18.5525 39.8685 18.3325 40.1994 18.1121 40.531L18.0977 40.5117Z" fill="#F8F2EA"/>
<path d="M27.8713 47.5803H28.8756C28.5622 47.668 28.2172 47.6487 27.8722 47.6391L27.8713 47.5803Z" fill="#666666"/>
<path d="M31.5622 23.4668C31.6998 23.2592 31.8839 23.0886 32.0989 22.9695C31.8919 23.1054 31.7888 23.358 31.5554 23.465L31.5622 23.4668Z" fill="#F8F2EA"/>
<path d="M31.1934 47.482L32.1099 47.2847L32.1184 47.3285C31.8175 47.4193 31.5067 47.4708 31.1934 47.482Z" fill="#666666"/>
<path d="M17.6614 41.423C17.722 41.192 17.8294 40.9768 17.9765 40.7915L17.6614 41.423Z" fill="#F8F2EA"/>
<path d="M28.2954 47.9161L28.2877 47.9275C28.1642 48.0258 28.0236 47.9617 27.8907 47.9705C27.7487 47.9781 27.6063 47.974 27.4648 47.9582C27.7417 47.96 28.016 47.8854 28.2954 47.9161Z" fill="#666666"/>
<path d="M16.8728 43.6658C16.9038 43.4049 16.973 43.1502 17.0781 42.9106C17.0151 43.1694 16.9529 43.4273 16.8898 43.686C16.8904 43.6835 16.8903 43.6808 16.8897 43.6783C16.8891 43.6758 16.8879 43.6735 16.8862 43.6715C16.8846 43.6696 16.8825 43.668 16.8802 43.667C16.8778 43.6661 16.8753 43.6656 16.8728 43.6658Z" fill="#F8F2EA"/>
<path d="M24.4138 27.598C24.4428 27.4388 24.4957 27.2853 24.5706 27.1428C24.5373 27.3121 24.5194 27.4858 24.4138 27.598Z" fill="#F8F2EA"/>
<path d="M30.8406 26.9805L31.0754 26.5779C31.0487 26.7376 30.9649 26.8812 30.8406 26.9805Z" fill="#F8F2EA"/>
<path d="M16.873 43.6658C16.8755 43.6656 16.8781 43.666 16.8804 43.667C16.8827 43.668 16.8848 43.6696 16.8865 43.6715C16.8881 43.6735 16.8893 43.6758 16.8899 43.6783C16.8906 43.6809 16.8906 43.6835 16.8901 43.686C16.8679 43.8232 16.8448 43.9603 16.8226 44.0966L16.774 44.0896C16.7727 43.9421 16.8067 43.7966 16.873 43.6658Z" fill="#666666"/>
<path d="M16.9264 44.7972C16.8859 44.5901 16.8988 44.3756 16.9639 44.1753C16.9903 44.3849 16.9052 44.5884 16.9264 44.7972Z" fill="#666666"/>
<path d="M32.3586 46.9339C32.3557 46.9297 32.3538 46.9249 32.3531 46.9198C32.3524 46.9147 32.3529 46.9096 32.3546 46.9047C32.3562 46.8999 32.359 46.8955 32.3627 46.8921C32.3664 46.8886 32.3709 46.8861 32.3757 46.8848C32.5106 46.8237 32.6546 46.7866 32.8016 46.7751C32.6638 46.8537 32.514 46.9073 32.3586 46.9339Z" fill="#666666"/>
<path d="M29.3467 47.4681C29.4526 47.4787 29.5678 47.3397 29.6882 47.4681H29.3467Z" fill="#666666"/>
<path d="M30.73 31.3915C30.6992 31.2499 30.6446 31.1523 30.6693 31.0398C30.7198 31.1493 30.7408 31.2708 30.73 31.3915Z" fill="#666666"/>
<path d="M17.4928 41.7781C17.5044 41.6579 17.5501 41.5438 17.6243 41.4502C17.6231 41.5726 17.5749 41.6896 17.4902 41.7755L17.4928 41.7781Z" fill="#666666"/>
<path d="M33.5154 46.8649L33.7635 46.7576C33.7344 46.7956 33.6963 46.8254 33.6529 46.8442C33.6095 46.863 33.5622 46.8701 33.5154 46.8649Z" fill="#666666"/>
<path d="M24.4321 23.1204C24.4324 23.1693 24.422 23.2176 24.4018 23.2618C24.3815 23.3061 24.3518 23.345 24.3149 23.3759C24.3313 23.2815 24.3717 23.1933 24.4321 23.1204Z" fill="#666666"/>
<path d="M23.8908 24.2378C23.8921 24.2768 23.8851 24.3156 23.8702 24.3515C23.8553 24.3873 23.8329 24.4194 23.8047 24.4454C23.8078 24.3677 23.8385 24.2938 23.8908 24.2378Z" fill="#666666"/>
<path d="M32.4247 47.2312C32.3205 47.2844 32.2524 47.3199 32.1533 47.2844C32.2364 47.2386 32.3311 47.22 32.4247 47.2312Z" fill="#666666"/>
<path d="M18.1166 40.5312C18.1003 40.5948 18.0685 40.6531 18.0244 40.7007C18.0253 40.6297 18.0531 40.5618 18.102 40.5117L18.1166 40.5312Z" fill="#F8F2EA"/>
<path d="M32.5784 47.181C32.6378 47.1455 32.6783 47.1127 32.7369 47.1349C32.6973 47.1846 32.6533 47.1979 32.5784 47.181Z" fill="#666666"/>
<path d="M23.7353 24.6181C23.7134 24.5799 23.7195 24.5271 23.7529 24.5271C23.8056 24.5271 23.7652 24.5662 23.7573 24.5881C23.7515 24.5992 23.7441 24.6093 23.7353 24.6181Z" fill="#666666"/>
<path d="M34.1369 46.6189C34.0822 46.6743 34.0562 46.6984 34.0137 46.6788C34.0267 46.6305 34.0683 46.6323 34.1369 46.6189Z" fill="#666666"/>
<path d="M33.9433 46.7051C33.9341 46.7267 33.917 46.7437 33.8957 46.7524C33.8744 46.7611 33.8507 46.7608 33.8296 46.7515C33.8401 46.7312 33.8573 46.7153 33.8781 46.7068C33.899 46.6983 33.922 46.6977 33.9433 46.7051Z" fill="#666666"/>
<path d="M30.4037 26.6151C30.3912 26.6297 30.3805 26.6554 30.3627 26.6628C30.3449 26.6701 30.3396 26.6472 30.3485 26.6334C30.3614 26.616 30.376 26.6 30.3921 26.5857L30.4037 26.6151Z" fill="#666666"/>
<path d="M17.7458 45.6692C17.766 45.6647 17.787 45.6659 17.8065 45.6726C17.8261 45.6794 17.8435 45.6915 17.8569 45.7076C17.8066 45.7505 17.7806 45.7067 17.7458 45.6692Z" fill="#666666"/>
<path d="M24.0125 23.9658C24.0388 24.023 24.0125 24.0489 23.9802 24.0775C23.9496 24.0212 23.9904 24.0016 24.0125 23.9658Z" fill="#666666"/>
<path d="M24.2538 23.5035C24.2301 23.4544 24.2538 23.4298 24.2942 23.408C24.299 23.4168 24.3017 23.4266 24.3021 23.4367C24.3026 23.4468 24.3008 23.4569 24.2969 23.4661C24.293 23.4754 24.2871 23.4835 24.2796 23.49C24.2721 23.4965 24.2633 23.5011 24.2538 23.5035Z" fill="#666666"/>
<path d="M30.1702 26.9087C30.1754 26.8875 30.185 26.8676 30.1983 26.8505C30.2116 26.8334 30.2284 26.8194 30.2474 26.8096L30.2613 26.8221C30.2584 26.8452 30.2509 26.8675 30.2392 26.8874C30.2276 26.9074 30.212 26.9247 30.1936 26.9382L30.1702 26.9087Z" fill="#666666"/>
<path d="M29.7972 27.4667C29.8387 27.4412 29.8423 27.4749 29.8396 27.4803C29.8321 27.5019 29.8197 27.5212 29.8034 27.5368C29.7778 27.5586 29.7725 27.5222 29.7742 27.5149C29.7805 27.4982 29.7881 27.482 29.7972 27.4667Z" fill="#666666"/>
<path d="M29.7238 27.6657C29.7141 27.6384 29.7026 27.6212 29.707 27.613C29.7189 27.5941 29.7332 27.577 29.7494 27.562C29.7565 27.5738 29.7706 27.5893 29.768 27.5975C29.7558 27.6219 29.741 27.6448 29.7238 27.6657Z" fill="#666666"/>
<path d="M29.6827 27.6621C29.6927 27.6676 29.702 27.6742 29.7107 27.6818C29.7044 27.6967 29.6962 27.7106 29.6862 27.723C29.6862 27.723 29.6617 27.7099 29.6626 27.7071C29.6673 27.6912 29.6741 27.676 29.6827 27.6621Z" fill="#666666"/>
<path d="M16.9898 44.1195C16.9598 44.0793 16.9765 44.048 16.9798 44.0051C16.9909 44.0214 16.9978 44.0407 16.9995 44.0608C17.0013 44.081 16.9979 44.1012 16.9898 44.1195Z" fill="#666666"/>
<path d="M26.3449 25.3345L26.3276 25.3583C26.3276 25.3498 26.3185 25.3422 26.3158 25.3336C26.3131 25.325 26.3203 25.3241 26.3231 25.3193L26.3449 25.3345Z" fill="#F8F2EA"/>
<path d="M30.1958 26.9366C30.1879 26.9721 30.157 27.0221 30.1384 27.0067C30.0942 26.9675 30.1499 26.9402 30.172 26.9111L30.1958 26.9366Z" fill="#666666"/>
<path d="M30.1075 27.0139C30.1075 27.0374 30.1184 27.0554 30.1125 27.0662C30.1066 27.077 30.089 27.0761 30.0764 27.0806C30.0764 27.0707 30.0672 27.0581 30.0706 27.0518C30.0816 27.0379 30.094 27.0252 30.1075 27.0139Z" fill="#666666"/>
<path d="M29.8877 27.4174L29.8546 27.439C29.8494 27.4242 29.8462 27.4088 29.845 27.393C29.845 27.3856 29.8615 27.3752 29.8702 27.3752C29.879 27.3752 29.899 27.3874 29.8877 27.4174Z" fill="#666666"/>
<path d="M32.4438 47.2084C32.4748 47.1838 32.5048 47.1756 32.5322 47.2084C32.5264 47.2144 32.5196 47.2192 32.512 47.2225C32.5044 47.2258 32.4963 47.2275 32.488 47.2275C32.4798 47.2275 32.4717 47.2258 32.4641 47.2225C32.4565 47.2192 32.4496 47.2144 32.4438 47.2084Z" fill="#666666"/>
<path d="M34.2702 46.5497L34.3252 46.5347L34.2693 46.5488L34.2702 46.5497Z" fill="#666666"/>
<path d="M23.1319 35.0496C23.1279 35.0349 23.1292 35.0191 23.1357 35.0054C23.1421 34.9916 23.1532 34.9809 23.1668 34.9753C23.1746 35.0102 23.1668 35.0386 23.1311 35.0487L23.1319 35.0496Z" fill="#666666"/>
<path d="M23.0962 35.1174L23.0612 35.1468L23.0535 35.1257L23.0988 35.1193L23.0962 35.1174Z" fill="#666666"/>
<path d="M23.1301 35.0437C23.1314 35.0586 23.1289 35.0735 23.1229 35.087C23.1169 35.1005 23.1076 35.1122 23.0959 35.1208C23.0959 35.0877 23.0959 35.0575 23.1301 35.0446V35.0437Z" fill="#666666"/>
<path d="M34.8606 40.2115C34.8472 40.2056 34.8362 40.1949 34.8296 40.1813C34.823 40.1677 34.8213 40.152 34.8247 40.1372C34.8545 40.1519 34.8554 40.1822 34.8606 40.2106V40.2115Z" fill="#666666"/>
<path d="M24.0829 23.8793L24.0436 23.9325C24.0175 23.9013 24.034 23.8774 24.0567 23.8545L24.0829 23.8793Z" fill="#666666"/>
<path d="M34.8569 40.21L34.8804 40.2513C34.8416 40.2558 34.8674 40.2217 34.8594 40.2083L34.8569 40.21Z" fill="#666666"/>
<path d="M24.9121 19.3946C24.9275 19.3834 24.9365 19.345 24.96 19.3703C24.9836 19.3956 24.96 19.4143 24.932 19.4181C24.9259 19.4098 24.9192 19.402 24.9121 19.3946Z" fill="#F8F2EA"/>
<path d="M24.0603 23.8571L24.0965 23.7834L24.1213 23.8071L24.0868 23.8817L24.0603 23.8571Z" fill="#666666"/>
<path d="M24.0908 23.786L24.1262 23.7114C24.134 23.7198 24.1422 23.7277 24.1509 23.7351L24.1156 23.8097L24.0908 23.786Z" fill="#666666"/>
<path d="M17.4905 41.7747L17.4862 41.8108L17.4714 41.8032L17.4931 41.7775L17.4905 41.7747Z" fill="#666666"/>
<path d="M30.8395 27.0494C30.8304 27.0751 30.8142 27.0684 30.798 27.0608C30.7817 27.0532 30.7826 27.0437 30.798 27.0362L30.8277 27.02L30.8395 27.0494Z" fill="#F8F2EA"/>
<path d="M31.5567 23.4651C31.589 23.4707 31.5917 23.4886 31.5719 23.5102C31.5674 23.5158 31.5549 23.5102 31.5459 23.5102L31.5647 23.4651H31.5567Z" fill="#F8F2EA"/>
<path d="M23.5116 34.4823L23.5188 34.4297L23.5413 34.441L23.5107 34.4813L23.5116 34.4823Z" fill="#666666"/>
<path d="M23.429 34.5689L23.4739 34.5071L23.4826 34.5153C23.4845 34.53 23.482 34.545 23.4755 34.5582C23.469 34.5714 23.4588 34.5821 23.4462 34.589L23.429 34.5689Z" fill="#666666"/>
<path d="M30.2461 26.8122C30.2521 26.7838 30.2589 26.7553 30.2914 26.7471C30.2943 26.7544 30.2957 26.7623 30.2956 26.7702C30.2955 26.7781 30.2939 26.786 30.2908 26.7932C30.2878 26.8004 30.2834 26.8069 30.2779 26.8122C30.2724 26.8175 30.2659 26.8216 30.2589 26.8241L30.2461 26.8122Z" fill="#666666"/>
<path d="M23.4246 34.6341L23.3786 34.6987L23.3618 34.6796C23.3751 34.6568 23.3883 34.6341 23.4025 34.6113C23.4094 34.6194 23.4168 34.6269 23.4246 34.6341Z" fill="#666666"/>
<path d="M34.926 40.3559C34.9331 40.3633 34.9397 40.3713 34.9458 40.3796C34.9458 40.3796 34.9458 40.3882 34.9458 40.392L34.9314 40.353L34.926 40.3559Z" fill="#666666"/>
<path d="M23.2937 34.7857L23.337 34.7192L23.3547 34.7383C23.3485 34.7666 23.3405 34.7929 23.3105 34.8029L23.2937 34.7857Z" fill="#666666"/>
<path d="M23.2775 34.8406C23.2775 34.8549 23.2737 34.8688 23.2666 34.8809C23.2594 34.893 23.2491 34.9027 23.2369 34.9089L23.2222 34.8916L23.2663 34.8279L23.2775 34.8406Z" fill="#666666"/>
<path d="M23.9551 24.1297L23.943 24.1417C23.943 24.1417 23.9325 24.1325 23.9334 24.1279C23.9343 24.1233 23.9403 24.1196 23.9438 24.115L23.9551 24.1297Z" fill="#666666"/>
<path d="M24.125 23.7129C24.1342 23.7026 24.1442 23.6931 24.1547 23.6843C24.1766 23.7037 24.1635 23.7203 24.1495 23.7368C24.1409 23.7293 24.1327 23.7213 24.125 23.7129Z" fill="#666666"/>
<path d="M24.1932 23.626V23.6384L24.1726 23.6317C24.1726 23.6317 24.1789 23.6222 24.1833 23.6203C24.1878 23.6183 24.1905 23.6241 24.1932 23.626Z" fill="#666666"/>
<path d="M24.2303 23.5621L24.2177 23.574C24.2177 23.574 24.2085 23.5648 24.2085 23.5602C24.2085 23.5556 24.2152 23.551 24.2194 23.5474L24.2303 23.5621Z" fill="#666666"/>
<path d="M23.4734 34.5095C23.4785 34.4889 23.4871 34.4718 23.5119 34.4763C23.5025 34.4907 23.4931 34.505 23.4828 34.5184L23.4734 34.5095Z" fill="#666666"/>
<path d="M23.4453 34.5883L23.4218 34.6352C23.4144 34.6281 23.4074 34.6206 23.4009 34.6126L23.4286 34.5693L23.4453 34.5883Z" fill="#666666"/>
<path d="M23.2656 34.8327L23.2918 34.7849L23.3083 34.8027L23.277 34.8458L23.2656 34.8327Z" fill="#666666"/>
<path d="M23.2385 34.9072L23.2 34.942C23.2071 34.9242 23.2152 34.9072 23.2233 34.8894L23.2385 34.9072Z" fill="#666666"/>
<path d="M23.1658 34.9773L23.2011 34.9385C23.2011 34.9625 23.1914 34.98 23.1641 34.9754L23.1658 34.9773Z" fill="#666666"/>
<path d="M24.9324 19.4126C24.9331 19.4176 24.9327 19.4228 24.9312 19.4277C24.9298 19.4325 24.9274 19.437 24.9242 19.4409C24.921 19.4447 24.9171 19.4477 24.9126 19.4498C24.9082 19.4519 24.9034 19.4529 24.8986 19.4529C24.8907 19.4451 24.8836 19.4367 24.8772 19.4276L24.9128 19.3892C24.9198 19.3965 24.9264 19.4043 24.9324 19.4126Z" fill="#F8F2EA"/>
<path d="M34.7351 39.9903L34.731 39.9766L34.7424 39.9776L34.7351 39.9903Z" fill="#666666"/>
<path d="M34.7727 40.0425L34.7747 40.056L34.7659 40.0549L34.7727 40.0425Z" fill="#666666"/>
<path d="M34.8241 40.1385L34.8008 40.1264C34.8249 40.1012 34.8149 40.1366 34.8216 40.1413L34.8241 40.1385Z" fill="#666666"/>
<path d="M17.339 45.471L17.3345 45.4602L17.347 45.4614L17.339 45.471Z" fill="#666666"/>
<path d="M22.9218 35.3296L22.9077 35.3538C22.8935 35.3277 22.9077 35.3324 22.9243 35.3324L22.9218 35.3296Z" fill="#666666"/>
<path d="M17.4738 45.5457L17.4639 45.5335C17.468 45.5335 17.4722 45.5251 17.4755 45.5251C17.4788 45.5251 17.483 45.5317 17.4863 45.5354L17.4738 45.5457Z" fill="#666666"/>
<path d="M17.5547 45.5711C17.5547 45.5711 17.5468 45.5799 17.5434 45.5799C17.5399 45.5799 17.5364 45.573 17.5329 45.5691C17.5294 45.5652 17.5407 45.5603 17.5442 45.5603C17.5477 45.5603 17.5512 45.5672 17.5547 45.5711Z" fill="#666666"/>
<path d="M17.6234 45.6067C17.6234 45.6067 17.6159 45.616 17.6117 45.615C17.6076 45.6141 17.6051 45.6085 17.6009 45.6048C17.5968 45.6011 17.6093 45.5955 17.6134 45.5955C17.6176 45.5955 17.6201 45.6029 17.6234 45.6067Z" fill="#666666"/>
<path d="M17.6833 45.6508L17.6768 45.6367L17.693 45.6389L17.6833 45.6508Z" fill="#666666"/>
<path d="M22.9897 35.2227L22.9794 35.2528C22.9546 35.2289 22.9794 35.2289 22.9913 35.2244L22.9897 35.2227Z" fill="#666666"/>
<path d="M34.1835 46.5962L34.1887 46.6071L34.1763 46.606L34.1835 46.5962Z" fill="#666666"/>
<path d="M18.803 39.4602C18.8118 39.4495 18.8213 39.4394 18.8315 39.4302C18.8609 39.4527 18.8369 39.4659 18.8217 39.48L18.803 39.4602Z" fill="#F8F2EA"/>
<path d="M34.9281 40.3564L34.9114 40.3406C34.9146 40.3399 34.9179 40.3399 34.9211 40.3406C34.9235 40.3453 34.9253 40.3503 34.9264 40.3555L34.9281 40.3564Z" fill="#666666"/>
<path d="M23.3328 34.722C23.3422 34.707 23.3516 34.692 23.3619 34.678L23.3782 34.6967L23.3499 34.7417L23.3328 34.722Z" fill="#666666"/>
<path d="M22.9246 35.3325L22.9313 35.3052C22.9588 35.3264 22.9313 35.3237 22.9221 35.3299L22.9246 35.3325Z" fill="#666666"/>
<path d="M22.9929 35.2259L23.0054 35.1982C23.0262 35.2232 23.0054 35.2213 22.9912 35.2241L22.9929 35.2259Z" fill="#666666"/>
<path d="M30.2913 26.7475L30.3064 26.7183C30.324 26.7422 30.312 26.7475 30.2921 26.7484L30.2913 26.7475Z" fill="#666666"/>
<path d="M23.9205 24.2025L23.9087 24.2145C23.9087 24.2099 23.8994 24.2053 23.9002 24.2007C23.901 24.1961 23.907 24.1924 23.9104 24.1887L23.9205 24.2025Z" fill="#666666"/>
<path d="M18.8228 39.4799C18.8113 39.4951 18.8024 39.5293 18.7793 39.5037C18.7563 39.478 18.7864 39.4695 18.8042 39.46L18.8228 39.4799Z" fill="#F8F2EA"/>
<path d="M17.9978 40.7395L17.9783 40.7264C17.9783 40.7264 17.9862 40.7142 17.9889 40.7151C17.9969 40.7179 18.0044 40.722 18.0111 40.7273L17.9978 40.7395Z" fill="#F8F2EA"/>
<path d="M17.3982 45.4979L17.4144 45.4937L17.4134 45.5064L17.3982 45.4979Z" fill="#666666"/>
<path d="M32.8722 31.9966C32.4034 31.6179 31.9962 31.1646 31.666 30.6538C31.6822 30.6266 31.6984 30.6275 31.7129 30.6389C32.1377 30.963 32.5083 31.3565 32.81 31.8037C32.852 31.8534 32.88 31.9141 32.8909 31.9791L32.8722 31.9966Z" fill="#F8F2EA"/>
<path d="M32.8915 31.9773C32.9151 31.9876 32.9256 32.0036 32.9046 32.0252C32.9046 32.0252 32.8837 32.0073 32.8723 31.998L32.8915 31.9773Z" fill="#F8F2EA"/>
<path d="M18.6656 19.912C18.2755 19.7857 17.9203 19.576 17.5532 19.398C16.7738 19.0191 16.0037 18.6217 15.2294 18.2332C15.1443 18.1919 15.065 18.1542 14.979 18.1139C15.0233 18.0718 15.0642 18.0937 15.1119 18.1139C16.2525 18.5147 17.3147 19.0892 18.3735 19.6708C18.4814 19.7384 18.5849 19.8131 18.6835 19.8944L18.6656 19.912Z" fill="#F8F2EA"/>
<path d="M14.0625 17.562C14.9901 17.7594 15.8513 18.147 16.7031 18.5558L16.6852 18.604C16.6 18.5645 16.5149 18.5277 16.4297 18.4856C15.9067 18.2225 15.3547 18.04 14.8112 17.8444C14.7033 17.8031 14.5904 17.7774 14.4756 17.7681C14.3967 17.765 14.3192 17.7451 14.2481 17.7097C14.177 17.6742 14.1138 17.6239 14.0625 17.562Z" fill="#F8F2EA"/>
<path d="M17.2808 18.8782L17.2517 18.8585C17.2617 18.8529 17.2726 18.8435 17.2817 18.8435C17.2908 18.8435 17.3018 18.8547 17.3118 18.8613L17.2808 18.8782Z" fill="#666666"/>
<path d="M16.7963 18.6369C16.7749 18.6296 16.7544 18.6241 16.7339 18.6158C16.7339 18.6158 16.7339 18.592 16.741 18.5911C16.7704 18.5865 16.7954 18.5911 16.8034 18.6287L16.7963 18.6369Z" fill="#F8F2EA"/>
<path d="M16.928 18.7072C16.9545 18.7008 16.9695 18.6926 16.9819 18.6954C16.9942 18.6981 17.0181 18.7036 16.9995 18.7263C16.9962 18.7301 16.9921 18.733 16.9875 18.7349C16.9829 18.7368 16.978 18.7376 16.973 18.7372C16.9571 18.7287 16.942 18.7187 16.928 18.7072Z" fill="#666666"/>
<path d="M16.8006 18.627L16.8656 18.6453C16.8594 18.6526 16.854 18.6673 16.8487 18.6673C16.8255 18.6673 16.8015 18.6673 16.7935 18.6343L16.8006 18.627Z" fill="#F8F2EA"/>
<path d="M18.6842 19.8899L18.7315 19.9323C18.7017 19.953 18.6798 19.9467 18.6658 19.9124L18.6842 19.8899Z" fill="#F8F2EA"/>
<path d="M17.1987 18.8066C17.2025 18.8134 17.2056 18.8206 17.208 18.8281C17.208 18.8281 17.2013 18.8353 17.1979 18.8389C17.1938 18.8321 17.1904 18.8249 17.1877 18.8174C17.1877 18.8174 17.1945 18.8102 17.1987 18.8066Z" fill="#666666"/>
<path d="M17.1473 18.7891C17.1399 18.7936 17.132 18.7968 17.1237 18.7987C17.1237 18.7987 17.1164 18.792 17.1128 18.7882C17.12 18.784 17.1276 18.7808 17.1355 18.7786C17.1355 18.7786 17.1428 18.7853 17.1473 18.7891Z" fill="#666666"/>
<path d="M17.0777 18.7532C17.0702 18.7579 17.0622 18.7617 17.054 18.7648C17.054 18.7648 17.0459 18.7571 17.0422 18.7532C17.0496 18.7486 17.0575 18.745 17.0659 18.7427C17.0659 18.7427 17.0777 18.7494 17.0777 18.7532Z" fill="#666666"/>
<path d="M14.2644 29.818C14.3704 29.6263 14.5157 29.4608 14.6903 29.333C15.3581 28.8006 16.1137 28.4173 16.8488 27.9998C17.347 27.7278 17.8711 27.5095 18.4127 27.3481C18.4462 27.3315 18.4827 27.3225 18.5198 27.3214C18.557 27.3203 18.5939 27.3273 18.6282 27.3419C17.2636 28.3253 15.8007 29.1554 14.2644 29.818Z" fill="#F8F2EA"/>
<path d="M13.53 30.1924C13.5328 30.2525 13.5195 30.3123 13.4913 30.3651C13.4632 30.4179 13.4214 30.4616 13.3706 30.4914C13.349 30.5056 13.312 30.4914 13.3171 30.4701C13.3473 30.3485 13.4395 30.2767 13.53 30.1924Z" fill="#F8F2EA"/>
<path d="M14.2118 29.9503C14.1371 29.9851 14.0538 29.9957 13.9731 29.9804C13.9809 29.8917 14.0541 29.8651 14.1024 29.8127C14.1549 29.8509 14.117 29.9236 14.2118 29.9503Z" fill="#F8F2EA"/>
<path d="M12.9718 30.2488C12.9589 30.3136 12.915 30.3535 12.859 30.4262C12.8545 30.3871 12.8617 30.3475 12.8797 30.3128C12.8978 30.278 12.9257 30.2498 12.9598 30.2319L12.9718 30.2488Z" fill="#666666"/>
<path d="M13.0661 30.1692L13.0748 30.1426C13.0999 30.1665 13.0678 30.1591 13.0635 30.1665L13.0661 30.1692Z" fill="#666666"/>
<path d="M13.0634 30.1653L13.0481 30.1917L13.0371 30.1726H13.0659L13.0634 30.1653Z" fill="#666666"/>
<path d="M12.9587 30.2357L12.9892 30.218L12.9706 30.249L12.9587 30.2357Z" fill="#666666"/>
<path d="M31.9863 17.1999C31.9548 17.0481 32.017 16.921 32.0715 16.7929C32.258 16.3403 32.5647 15.9675 32.8517 15.5834C33.5578 14.6249 34.3421 13.7302 35.1959 12.9091C35.255 12.844 35.3267 12.7923 35.4063 12.7573C35.3177 13.1248 32.3134 17.0324 31.9863 17.1999Z" fill="#F8F2EA"/>
<path d="M37.793 30.3854C37.6564 30.3409 37.5259 30.2787 37.4046 30.2004C36.626 29.7554 35.8494 29.3081 35.0749 28.8584C35.067 28.8533 35.0604 28.8463 35.0557 28.8381C35.051 28.8299 35.0482 28.8206 35.0476 28.811C36.0553 29.1671 36.9105 29.8127 37.8177 30.3591L37.793 30.3854Z" fill="#F8F2EA"/>
<path d="M36.0334 29.0979C36.0655 29.0979 36.0931 29.0979 36.1047 29.1364C36.0726 29.1364 36.0406 29.1447 36.0308 29.1007L36.0334 29.0979Z" fill="#666666"/>
<path d="M36.0364 29.0994C36.0221 29.1031 36.0069 29.1014 35.9938 29.0944C35.9807 29.0875 35.9705 29.0759 35.9651 29.0618C35.9972 29.0618 36.0248 29.0618 36.0381 29.0975L36.0364 29.0994Z" fill="#666666"/>
<path d="M36.1362 29.1707C36.1692 29.1652 36.1995 29.1652 36.2084 29.2083C36.179 29.2083 36.1496 29.2083 36.1362 29.1707Z" fill="#666666"/>
<path d="M36.2053 29.2068C36.2383 29.2004 36.2686 29.1995 36.2775 29.2435C36.2463 29.2435 36.2169 29.2435 36.2053 29.2068Z" fill="#666666"/>
<path d="M36.3492 29.2757C36.318 29.2757 36.2877 29.2757 36.2761 29.239C36.3064 29.239 36.3349 29.239 36.3483 29.2757H36.3492Z" fill="#666666"/>
<path d="M36.5171 29.384L36.555 29.4008C36.5506 29.4008 36.5444 29.4064 36.5427 29.4008C36.5343 29.3939 36.5264 29.3864 36.5189 29.3784L36.5171 29.384Z" fill="#666666"/>
<path d="M37.8188 30.3564L37.8816 30.4001C37.8773 30.4063 37.8726 30.4121 37.8674 30.4174C37.8365 30.4174 37.8082 30.4174 37.7932 30.3837L37.8188 30.3564Z" fill="#F8F2EA"/>
<path d="M37.9164 30.4782L37.8647 30.4186C37.87 30.4132 37.8747 30.4073 37.879 30.4011C37.912 30.4158 37.9601 30.4231 37.9155 30.4782H37.9164Z" fill="#F8F2EA"/>
<path d="M37.9133 30.4758C37.9288 30.4693 37.9495 30.4544 37.9572 30.46C37.9649 30.4656 37.9572 30.4767 37.9434 30.4702C37.9297 30.4637 37.9245 30.4702 37.915 30.4758H37.9133Z" fill="#F8F2EA"/>
<path d="M35.8964 29.0322L35.8477 29.017C35.8519 29.0099 35.8567 29.0032 35.8621 28.9971C35.8756 29.0057 35.8885 29.0152 35.9009 29.0255L35.8964 29.0322Z" fill="#666666"/>
<path d="M35.9008 29.0232C35.9311 29.0232 35.964 29.0232 35.9694 29.0645C35.9382 29.0645 35.9088 29.0645 35.8945 29.0296L35.9008 29.0232Z" fill="#666666"/>
<path d="M36.1013 29.1348C36.124 29.1348 36.1413 29.1443 36.1386 29.1737C36.1168 29.1737 36.1004 29.1623 36.1022 29.1348H36.1013Z" fill="#666666"/>
<path d="M36.3434 29.277C36.3489 29.2783 36.3543 29.2802 36.3595 29.2826C36.3595 29.2826 36.3595 29.2901 36.3595 29.2938L36.3425 29.2742L36.3434 29.277Z" fill="#666666"/>
<path d="M36.4226 29.3301L36.4376 29.3259L36.4365 29.3375L36.4226 29.3301Z" fill="#666666"/>
<path d="M36.5194 29.3829L36.5027 29.3689C36.5027 29.3689 36.5106 29.3689 36.5124 29.3689C36.5145 29.3731 36.5163 29.3774 36.5177 29.3819L36.5194 29.3829Z" fill="#666666"/>
<path d="M22.0695 12.0249C22.4012 12.5227 22.674 13.0595 22.8821 13.6239C23.1999 14.4361 23.5236 15.2439 23.8643 16.0456C23.9069 16.1464 23.9699 16.2429 23.9639 16.371C23.8651 16.371 23.8353 16.2999 23.7987 16.2385C23.6177 15.9364 23.458 15.6213 23.3208 15.2956C22.8753 14.2642 22.3838 13.2502 22.0738 12.1635C22.0627 12.124 22.0584 12.0828 22.0508 12.0424L22.0695 12.0249Z" fill="#F8F2EA"/>
<path d="M22.0515 12.0495C22.0227 12.0392 22.0192 12.0064 22.0358 11.9951C22.0524 11.9839 22.0628 12.0139 22.0707 12.0307L22.0515 12.0495Z" fill="#F8F2EA"/>
<path d="M29.0093 15.9719C29.0763 14.9256 29.3292 13.9008 29.7555 12.9485C29.6745 14.001 29.3696 14.9939 29.0093 15.9719Z" fill="#F8F2EA"/>
<path d="M26.2537 13.8125C26.4866 14.4947 26.6259 15.2071 26.6677 15.929C26.4454 15.2404 26.2503 14.5458 26.2537 13.8125Z" fill="#F8F2EA"/>
<path d="M16.6333 23.9535C17.3632 23.9264 18.0939 23.9734 18.8148 24.0938C18.5967 24.2885 17.0226 24.1859 16.6333 23.9535Z" fill="#F8F2EA"/>
<path d="M18.0474 24.3405C18.2661 24.3325 18.485 24.3449 18.7016 24.3773C18.4836 24.4161 18.2599 24.4035 18.0474 24.3405Z" fill="#666666"/>
<defs>
<filter id="filter0_d_32_8998" x="0" y="0" width="61" height="61.145" filterUnits="userSpaceOnUse" color-interpolation-filters="sRGB">
<feFlood flood-opacity="0" result="BackgroundImageFix"/>
<feColorMatrix in="SourceAlpha" type="matrix" values="0 0 0 0 0 0 0 0 0 0 0 0 0 0 0 0 0 0 127 0" result="hardAlpha"/>
<feOffset dx="5" dy="4"/>
<feGaussianBlur stdDeviation="2"/>
<feComposite in2="hardAlpha" operator="out"/>
<feColorMatrix type="matrix" values="0 0 0 0 0 0 0 0 0 0 0 0 0 0 0 0 0 0 0.25 0"/>
<feBlend mode="normal" in2="BackgroundImageFix" result="effect1_dropShadow_32_8998"/>
<feBlend mode="normal" in="SourceGraphic" in2="effect1_dropShadow_32_8998" result="shape"/>
</filter>
</defs>
</svg>
