<svg width="13" height="16" viewBox="0 0 13 16" fill="none" xmlns="http://www.w3.org/2000/svg">
<path d="M11.2658 13.9087L11.2657 13.9088C11.2301 13.9986 11.2077 14.1001 11.1847 14.2133C11.1825 14.2241 11.1802 14.235 11.178 14.246C11.1577 14.3468 11.1356 14.4562 11.1017 14.559C11.0637 14.6746 11.0082 14.7904 10.9155 14.888C10.8217 14.9868 10.6963 15.06 10.5301 15.1003C10.53 15.1003 10.53 15.1003 10.53 15.1003L10.5005 14.9789C10.125 15.0703 9.92761 14.849 9.72646 14.6234C9.64693 14.5342 9.5668 14.4444 9.47485 14.373L11.2658 13.9087ZM11.2658 13.9087C11.3675 13.6512 11.3282 13.4358 11.2295 13.2524C11.1533 13.111 11.0382 12.9844 10.9388 12.8751C10.9173 12.8515 10.8965 12.8286 10.877 12.8065M11.2658 13.9087L1.53285 9.15048C1.15534 8.96535 0.910147 8.71732 0.878407 8.41673C0.846537 8.11492 1.03644 7.82515 1.3716 7.57326L1.37173 7.57316C1.38116 7.5661 1.39464 7.55552 1.40965 7.54373C1.43412 7.52453 1.46267 7.50212 1.48447 7.48645C1.52647 7.45628 1.57836 7.42374 1.63897 7.40497L1.63958 7.40478C2.99266 6.99332 4.15666 6.25832 5.28523 5.43979C5.62425 5.1939 5.96098 4.93971 6.29882 4.68469C7.08022 4.09483 7.86756 3.5005 8.70294 2.99399L8.70306 2.99392C9.28687 2.64078 9.81636 2.21303 10.154 1.59245L10.154 1.5924C10.4057 1.1304 10.8992 0.766202 11.4226 0.904162L11.4228 0.904233C11.6983 0.977505 11.8112 1.21279 11.8773 1.43023C11.9027 1.51399 11.9237 1.60389 11.9435 1.68886C11.9495 1.71497 11.9555 1.74062 11.9615 1.76547C11.9878 1.8751 12.0146 1.97297 12.0513 2.05546L12.0514 2.05581C12.1119 2.19297 12.1341 2.32187 12.1217 2.44293C12.1093 2.56402 12.0631 2.66907 11.9992 2.7598C11.8749 2.93633 11.6768 3.06688 11.5085 3.17079L11.4428 3.06445L11.5086 3.17071C10.4842 3.80501 9.51714 4.52549 8.54486 5.24987C8.28765 5.4415 8.03006 5.63341 7.77096 5.82407C6.57124 6.70684 5.34201 7.56022 3.98106 8.21797C4.11628 8.4102 4.29943 8.46726 4.51187 8.53345C4.57538 8.55324 4.64151 8.57384 4.70975 8.59911C7.1062 9.48082 9.169 10.8759 10.877 12.8065M10.877 12.8065L10.7833 12.8894M10.877 12.8065C10.877 12.8065 10.877 12.8065 10.877 12.8065L10.7833 12.8894M10.7833 12.8894C10.8052 12.9141 10.8277 12.9388 10.8503 12.9637C11.0709 13.2068 11.3062 13.4661 11.1495 13.8627L3.86715 8.27242C4.03215 8.51812 4.26712 8.59023 4.492 8.65925C4.55139 8.67748 4.61008 8.69549 4.66659 8.71643C7.04392 9.5911 9.08929 10.9745 10.7833 12.8894ZM8.52246 13.7827C8.81269 14.0136 9.10366 14.245 9.39839 14.4719L1.58812 9.03836C1.82847 9.15683 2.06334 9.28578 2.29831 9.41479C2.4097 9.47594 2.52111 9.53711 2.63313 9.59718L2.57398 9.7073C2.57401 9.70731 2.57404 9.70733 2.57406 9.70734C3.09783 9.98868 3.57532 10.3401 4.06307 10.6993L4.06652 10.7018C4.5509 11.0586 5.04539 11.4228 5.59414 11.7192L5.5942 11.7193C6.63269 12.2795 7.57363 13.028 8.52246 13.7827Z" fill="#FEFEFD" stroke="#FEFEFD" stroke-width="0.25"/>
</svg>
