<svg width="13" height="16" viewBox="0 0 13 16" fill="none" xmlns="http://www.w3.org/2000/svg">
<path d="M11.2658 13.8847L11.2657 13.8849C11.2301 13.9747 11.2077 14.0761 11.1847 14.1893C11.1825 14.2001 11.1802 14.2111 11.178 14.2221C11.1577 14.3228 11.1356 14.4323 11.1017 14.5351C11.0637 14.6507 11.0082 14.7665 10.9155 14.8641C10.8217 14.9629 10.6963 15.036 10.5301 15.0764C10.53 15.0764 10.53 15.0764 10.53 15.0764L10.5005 14.9549C10.125 15.0464 9.92761 14.825 9.72646 14.5995C9.64693 14.5103 9.5668 14.4205 9.47485 14.3491L11.2658 13.8847ZM11.2658 13.8847C11.3675 13.6273 11.3282 13.4119 11.2295 13.2285C11.1533 13.0871 11.0382 12.9605 10.9388 12.8512C10.9173 12.8275 10.8965 12.8047 10.877 12.7826M11.2658 13.8847L1.53285 9.12655C1.15534 8.94143 0.910147 8.69339 0.878407 8.39281C0.846537 8.09099 1.03644 7.80122 1.3716 7.54934L1.37173 7.54924C1.38116 7.54217 1.39464 7.5316 1.40965 7.51981C1.43412 7.5006 1.46267 7.47819 1.48447 7.46253C1.52647 7.43235 1.57836 7.39981 1.63897 7.38104L1.63958 7.38085C2.99266 6.96939 4.15666 6.23439 5.28523 5.41586C5.62425 5.16997 5.96098 4.91579 6.29882 4.66076C7.08022 4.07091 7.86756 3.47657 8.70294 2.97006L8.70306 2.96999C9.28687 2.61685 9.81636 2.1891 10.154 1.56852L10.154 1.56848C10.4057 1.10647 10.8992 0.742276 11.4226 0.880236L11.4228 0.880307C11.6983 0.953579 11.8112 1.18886 11.8773 1.4063C11.9027 1.49007 11.9237 1.57996 11.9435 1.66494C11.9495 1.69105 11.9555 1.71669 11.9615 1.74155C11.9878 1.85117 12.0146 1.94904 12.0513 2.03153L12.0514 2.03189C12.1119 2.16905 12.1341 2.29794 12.1217 2.41901C12.1093 2.54009 12.0631 2.64515 11.9992 2.73588C11.8749 2.91241 11.6768 3.04295 11.5085 3.14686L11.4428 3.04052L11.5086 3.14678C10.4842 3.78108 9.51714 4.50157 8.54486 5.22594C8.28765 5.41758 8.03006 5.60949 7.77096 5.80014C6.57124 6.68292 5.34201 7.5363 3.98106 8.19404C4.11628 8.38628 4.29943 8.44334 4.51187 8.50952C4.57538 8.52931 4.64151 8.54991 4.70975 8.57519C7.1062 9.4569 9.169 10.852 10.877 12.7826M10.877 12.7826L10.7833 12.8654M10.877 12.7826C10.877 12.7826 10.877 12.7826 10.877 12.7826L10.7833 12.8654M10.7833 12.8654C10.8052 12.8901 10.8277 12.9149 10.8503 12.9398C11.0709 13.1829 11.3062 13.4421 11.1495 13.8388L3.86715 8.24849C4.03215 8.4942 4.26712 8.56631 4.492 8.63533C4.55139 8.65355 4.61008 8.67156 4.66659 8.6925C7.04392 9.56718 9.08929 10.9506 10.7833 12.8654ZM8.52246 13.7588C8.81269 13.9897 9.10366 14.2211 9.39839 14.4479L1.58812 9.01443C1.82847 9.1329 2.06334 9.26185 2.29831 9.39086C2.4097 9.45202 2.52111 9.51318 2.63313 9.57325L2.57398 9.68337C2.57401 9.68339 2.57404 9.6834 2.57406 9.68342C3.09783 9.96475 3.57532 10.3161 4.06307 10.6754L4.06652 10.6779C4.5509 11.0347 5.04539 11.3988 5.59414 11.6953L5.5942 11.6953C6.63269 12.2556 7.57363 13.004 8.52246 13.7588Z" fill="#1A1A1B" stroke="black" stroke-width="0.25"/>
</svg>
