<svg width="20" height="22" viewBox="0 0 20 22" fill="none" xmlns="http://www.w3.org/2000/svg">
<path d="M17.7222 19.4269L17.7222 19.427C17.6621 19.5592 17.6247 19.7075 17.5871 19.8688C17.5835 19.8843 17.5799 19.8999 17.5763 19.9156C17.5429 20.0599 17.5073 20.2139 17.4528 20.3583C17.3915 20.5206 17.304 20.6782 17.1617 20.809C17.0188 20.9404 16.8284 21.0378 16.5723 21.0921C16.3399 21.1415 16.1402 21.1329 15.9627 21.0823C15.7861 21.032 15.6384 20.942 15.5073 20.8385C15.395 20.7499 15.2908 20.6479 15.1917 20.5508C15.1765 20.536 15.1614 20.5212 15.1464 20.5066C15.0314 20.3946 14.9207 20.2911 14.798 20.2079C14.3181 19.8854 13.8436 19.5559 13.3696 19.2267C11.8157 18.1476 10.2682 17.0729 8.56164 16.2691L8.56158 16.2691C7.66881 15.8481 6.86352 15.3303 6.06937 14.8197L6.066 14.8175C5.26868 14.3049 4.48264 13.7997 3.61933 13.3949C3.43378 13.308 3.25032 13.2201 3.0675 13.1324C2.68437 12.9488 2.30404 12.7665 1.91311 12.5982C1.91306 12.5982 1.91301 12.5982 1.91297 12.5982L1.96237 12.4834L17.7222 19.4269ZM17.7222 19.4269C17.8009 19.2529 17.8277 19.0897 17.8124 18.9356C17.7973 18.7822 17.7412 18.6454 17.6654 18.5225C17.5446 18.3268 17.3631 18.1524 17.2006 17.9963C17.1648 17.9619 17.13 17.9284 17.0969 17.8958L17.7222 19.4269ZM7.03832 11.9045C6.94252 11.8735 6.84211 11.8466 6.74421 11.8204C6.71331 11.8121 6.68267 11.8039 6.6525 11.7957C6.5243 11.7606 6.40064 11.7239 6.28326 11.6751C6.08938 11.5946 5.91418 11.482 5.77512 11.2921C8.01944 10.3522 10.045 9.12545 12.0261 7.85287C12.4492 7.58108 12.8701 7.30732 13.2906 7.03379C14.8819 5.99875 16.4679 4.96714 18.1475 4.05922L7.03832 11.9045Z" fill="#F8F2EA" stroke="#F8F2EA" stroke-width="0.25"/>
</svg>
