<svg width="192" height="64" viewBox="0 0 192 64" fill="none" xmlns="http://www.w3.org/2000/svg">
<g filter="url(#filter0_d_8060_22977)">
<path d="M150.775 3.36808C143.643 3.36808 136.509 3.36808 129.374 3.36808C128.569 3.36808 127.746 3.28693 127.777 2.01022C127.807 0.733506 128.582 0.446794 129.456 0.479253C136.38 0.706464 143.305 0.679409 150.23 0.506295C155.033 0.39269 159.842 0.176301 164.65 0.0789251C167.961 0.0085977 171.28 -0.0563199 174.604 0.0789251C179.148 0.295317 181.615 3.69808 182.126 9.42165C183.203 21.5017 182.58 33.5385 181.836 45.5807C181.793 46.9259 181.639 48.2621 181.377 49.5677C180.442 53.5818 178.464 55.3238 175.154 55.6429C168.398 56.2921 161.642 55.7998 154.891 55.8918C147.754 55.9838 140.609 55.5672 133.489 55.7133C113.906 56.119 94.3225 55.8593 74.7434 55.9405C67.728 55.9675 60.7169 56.0108 53.7058 55.8431C42.1764 55.5618 30.6471 55.9838 19.1177 56C14.9283 56 10.752 55.9188 6.56697 55.6213C2.75414 55.3454 0.507994 52.5594 0.369503 47.6364C-0.00846171 35.5582 -0.0964613 23.4763 0.105504 11.3908C0.170422 7.37133 1.76739 4.55824 4.7536 3.01103C6.34538 2.26029 8.02946 1.86123 9.73061 1.8317C17.4342 1.33941 25.1377 0.8363 32.8456 1.21499C39.4845 1.53957 46.1061 1.21498 52.7536 1.08515C53.3782 1.03115 53.999 1.24278 54.5151 1.68564C54.9046 2.03727 55.2292 2.44842 55.082 3.10841C54.9349 3.76841 54.5281 3.89283 54.0174 3.90906C50.7845 3.99562 47.5516 4.17955 44.3187 4.21742C33.4558 4.35266 22.5886 4.4284 11.7257 4.56906C10.648 4.61692 9.57666 4.79813 8.52747 5.11004C4.95701 6.06216 4.57616 6.47871 3.55479 11.499C2.80608 15.1668 3.03545 19.024 2.77145 22.7947C2.33867 28.8103 2.68922 34.8044 2.89263 40.8093C2.95571 42.8901 3.10885 44.965 3.35138 47.0251C3.68895 49.8869 4.9397 51.3043 7.17719 51.6667C13.5391 52.7 19.9313 51.9805 26.3106 52.1374C30.0368 52.2294 33.7761 51.8669 37.5023 52.0022C44.2668 52.251 51.0095 51.7641 57.7653 51.6884C68.5502 51.5585 79.3352 51.921 90.1245 51.9048C101.45 51.9048 112.776 51.591 124.102 51.591C129.361 51.591 134.619 52.0292 139.886 51.9805C148.472 51.9048 157.063 51.8777 165.65 51.9805C168.67 52.0656 171.691 51.9065 174.695 51.5044C176.755 51.2015 178.118 49.8815 178.542 47.366C178.978 44.7312 179.301 42.0695 179.512 39.3919C179.806 35.7349 180.061 32.067 180.144 28.3938C180.344 21.9655 179.926 15.5303 178.897 9.22689C178.261 5.53741 176.188 3.45464 173.158 3.01103C171.129 2.70808 169.099 3.0489 167.065 3.01103C161.633 2.95153 156.202 3.01103 150.766 3.01103L150.775 3.36808ZM2.69788 52.9759C2.76027 52.9943 2.8242 53.0034 2.8883 53.003C2.93591 52.8352 2.8883 52.8244 2.8104 52.9597C2.8104 52.9597 2.7325 52.9597 2.69355 52.9597C2.79309 52.673 2.84502 52.3916 2.60699 52.159C2.47283 51.8398 2.49447 51.3746 1.92752 51.2394C2.22614 51.6289 2.01841 52.3213 2.63296 52.1428C2.21316 52.489 2.78876 52.6946 2.69788 52.9759ZM179.213 52.1266C179.624 52.5756 179.68 51.9589 179.758 51.7695C180.294 50.4286 180.63 48.9766 180.749 47.485C180.226 49.0268 179.97 50.6984 179.265 52.1482L179.217 52.4187C179.252 52.4187 179.3 52.4187 179.313 52.4187C179.403 52.251 179.347 52.1644 179.213 52.132V52.1266ZM181.377 36.0324C181.935 33.2031 181.992 30.3305 182.03 27.4633C182.03 27.09 182.169 26.4787 181.715 26.4517C181.165 26.4192 181.217 27.1333 181.282 27.5012C181.788 30.0113 181.182 32.5106 181.282 35.0154C181.308 35.3562 181.355 35.697 181.39 36.0378L181.377 36.0324ZM110.348 53.0733V52.911H100.187V53.0733H110.348ZM81.7372 53.0733L81.7025 52.9056H71.7312V53.0733H81.7372ZM142.067 1.79924L142.037 2.01022H149.459V1.79924H142.067ZM0.75468 32.3484C1.49907 31.7208 1.3952 30.8336 1.46444 30.0546C1.45926 29.9053 1.42451 29.7599 1.36333 29.6315C1.30215 29.5031 1.21645 29.3957 1.11389 29.3189C0.746025 29.254 0.681107 29.7246 0.633501 30.0654C0.50933 30.8262 0.551185 31.6147 0.75468 32.3484ZM56.2722 52.8244C57.1329 53.1625 58.0558 53.1625 58.9165 52.8244C58.0527 52.5123 57.1359 52.5123 56.2722 52.8244ZM122.981 52.6189C123.824 53.0481 124.745 53.1792 125.643 52.9976V52.6189H122.981ZM23.5407 3.50873V3.07054C22.7271 3.10841 21.9005 2.78923 20.9051 3.50873H23.5407ZM1.03599 37.1577C1.50772 35.7403 1.19179 34.3879 0.880188 33.03C0.649269 34.4003 0.704414 35.8218 1.04032 37.1577H1.03599ZM36.3295 52.7812L36.3814 52.6297H33.7415V52.7812H36.3295ZM1.7068 49.1891C1.60294 49.7949 1.52504 50.4658 2.13959 51.0392L1.7068 49.1891Z" fill="#181818"/>
</g>
<path d="M181.39 36.0378C181.356 35.697 181.308 35.3562 181.295 35.0208C181.204 32.516 181.81 30.0167 181.295 27.5066C181.221 27.1387 181.169 26.4246 181.728 26.4571C182.161 26.4571 182.052 27.0954 182.044 27.4687C182.005 30.3359 181.948 33.2085 181.39 36.0378Z" fill="#505050"/>
<path d="M110.349 53.0733H100.191V52.911H110.344L110.349 53.0733Z" fill="#505050"/>
<path d="M81.7372 53.0679H71.7312V52.9001H81.6852L81.7372 53.0679Z" fill="#505050"/>
<path d="M142.067 1.79382H149.459V2.0048H142.037L142.067 1.79382Z" fill="#505050"/>
<path d="M0.754781 32.3484C0.551287 31.6147 0.509431 30.8262 0.633603 30.0654C0.65957 29.7246 0.746127 29.2539 1.11399 29.3189C1.21655 29.3957 1.30226 29.5031 1.36344 29.6315C1.42462 29.7599 1.45936 29.9053 1.46455 30.0546C1.3953 30.8336 1.49917 31.7208 0.754781 32.3484Z" fill="#505050"/>
<path d="M179.252 52.1482C179.971 50.7038 180.226 49.0321 180.75 47.4904C180.631 48.982 180.295 50.434 179.759 51.7749C179.681 51.9643 179.625 52.581 179.213 52.132L179.252 52.1482Z" fill="#F8F2EA"/>
<path d="M56.2725 52.8244C57.1362 52.5123 58.053 52.5123 58.9168 52.8244C58.0561 53.1625 57.1331 53.1625 56.2725 52.8244Z" fill="#505050"/>
<path d="M122.982 52.6188H125.626V52.9975C124.733 53.1751 123.819 53.0441 122.982 52.6188Z" fill="#505050"/>
<path d="M23.541 3.50877H20.8967C21.8921 2.78927 22.7187 3.10845 23.5324 3.07058L23.541 3.50877Z" fill="#505050"/>
<path d="M1.04062 37.1577C0.706152 35.8213 0.652497 34.3998 0.884816 33.03C1.18776 34.3879 1.51235 35.7403 1.04062 37.1577Z" fill="#505050"/>
<path d="M36.334 52.7812H33.7373V52.6297H36.3773L36.334 52.7812Z" fill="#505050"/>
<path d="M1.70713 49.1891L2.13991 51.0392C1.52536 50.4388 1.62057 49.7679 1.70713 49.1891Z" fill="#F8F2EA"/>
<path d="M2.64183 52.159C2.01862 52.3267 2.20904 51.6451 1.92773 51.2556C2.49468 51.3909 2.47304 51.8561 2.60288 52.1753L2.64183 52.159Z" fill="#F8F2EA"/>
<path d="M2.69783 52.9759C2.78871 52.6892 2.21311 52.4836 2.63724 52.1536H2.60261C2.84497 52.3862 2.79304 52.6946 2.6935 52.9543L2.69783 52.9759Z" fill="#F8F2EA"/>
<path d="M179.213 52.132C179.348 52.1645 179.404 52.251 179.313 52.4079C179.313 52.4079 179.252 52.4079 179.218 52.4079C179.235 52.3171 179.248 52.2249 179.257 52.132H179.213Z" fill="#F8F2EA"/>
<path d="M2.69336 52.9759C2.73231 52.9759 2.7929 52.9759 2.81021 52.9759C2.90542 52.8407 2.93572 52.8515 2.88811 53.0192C2.824 53.0196 2.76008 53.0106 2.69769 52.9922L2.69336 52.9759Z" fill="#F8F2EA"/>
<defs>
<filter id="filter0_d_8060_22977" x="0" y="0" width="191.704" height="64" filterUnits="userSpaceOnUse" color-interpolation-filters="sRGB">
<feFlood flood-opacity="0" result="BackgroundImageFix"/>
<feColorMatrix in="SourceAlpha" type="matrix" values="0 0 0 0 0 0 0 0 0 0 0 0 0 0 0 0 0 0 127 0" result="hardAlpha"/>
<feOffset dx="5" dy="4"/>
<feGaussianBlur stdDeviation="2"/>
<feComposite in2="hardAlpha" operator="out"/>
<feColorMatrix type="matrix" values="0 0 0 0 0 0 0 0 0 0 0 0 0 0 0 0 0 0 0.25 0"/>
<feBlend mode="normal" in2="BackgroundImageFix" result="effect1_dropShadow_8060_22977"/>
<feBlend mode="normal" in="SourceGraphic" in2="effect1_dropShadow_8060_22977" result="shape"/>
</filter>
</defs>
</svg>
