<svg width="54" height="53" viewBox="0 0 54 53" fill="none" xmlns="http://www.w3.org/2000/svg">
<g filter="url(#filter0_d_8060_7477)">
<path d="M0 22.3488C0.0822972 16.6736 1.98536 11.6767 5.83612 7.44981C8.97457 4.0055 12.8588 1.79314 17.3768 0.667742C18.7703 0.320716 20.1865 0.119172 21.6209 0.0380907C24.5869 -0.130094 27.4733 0.255388 30.2723 1.25986C33.1369 2.28797 35.6681 3.85445 37.8776 5.93939C39.7579 7.71344 41.2239 9.7854 42.4151 12.0714C43.6417 14.426 44.4386 16.9048 44.7962 19.5304C44.9566 20.7077 45.0286 21.8901 44.9896 23.0762C44.8087 28.5985 42.8824 33.4318 39.126 37.5002C35.9434 40.9469 32.0271 43.1615 27.4296 44.1614C26.111 44.4482 24.7766 44.628 23.4254 44.6576C17.3852 44.7906 12.0591 42.9114 7.5174 38.9398C3.91074 35.7855 1.62223 31.8246 0.551902 27.1664C0.219924 25.7227 0.041846 24.2577 0.021388 22.775C0.0195281 22.6407 0.0083692 22.5068 0.000464956 22.3492L0 22.3488Z" fill="#181818"/>
<path d="M23.6525 42.4425C20.5308 42.499 17.6192 41.9875 14.8272 40.8491C12.8241 40.0328 10.9527 38.987 9.32395 37.5517C6.64627 35.1925 4.68835 32.3384 3.45482 28.9937C2.91594 27.5333 2.55513 26.0289 2.3631 24.4861C2.1734 22.9655 2.11621 21.4384 2.32498 19.9182C2.60581 17.874 3.20746 15.9184 4.10669 14.0577C5.88003 10.3882 8.49633 7.45631 11.9454 5.28056C14.2292 3.8401 16.7149 2.88103 19.3791 2.39501C20.6907 2.15547 22.0135 2.04289 23.3461 2.0554C25.4105 2.07486 27.4382 2.35933 29.3984 3.00891C30.7635 3.46111 32.0347 4.12736 33.238 4.91315C37.1432 7.46372 39.9129 10.9377 41.6542 15.2378C42.4097 17.1035 42.8803 19.0416 43.0686 21.0469C43.1597 22.0152 43.2109 22.9858 43.129 23.9556C43.0318 25.1074 42.7994 26.2374 42.4846 27.3499C41.55 30.6482 39.8994 33.5463 37.5472 36.0431C35.0881 38.6535 32.1486 40.5308 28.7414 41.6646C27.7181 42.0051 26.6505 42.1738 25.5793 42.3026C24.9032 42.3836 24.2244 42.4198 23.6525 42.4429V42.4425Z" fill="#F8F2EA"/>
<path d="M23.3769 40.9961C20.5582 41.0479 17.9293 40.5794 15.4083 39.5366C13.5997 38.7888 11.9099 37.8309 10.4392 36.5161C8.02146 34.355 6.25358 31.7406 5.13979 28.6768C4.65321 27.3391 4.32743 25.961 4.15404 24.5478C3.98275 23.1549 3.93111 21.756 4.11961 20.3635C4.37319 18.491 4.91644 16.6996 5.72838 14.9952C7.32959 11.6339 9.69194 8.94819 12.8062 6.95517C14.8684 5.63568 17.1127 4.75716 19.5183 4.31195C20.7027 4.09253 21.8971 3.9894 23.1003 4.00086C24.9643 4.01868 26.7951 4.27927 28.5651 4.87429C29.7977 5.28852 30.9455 5.89882 32.032 6.61861C35.5581 8.95498 38.059 12.1372 39.6313 16.0761C40.3135 17.7852 40.7383 19.5605 40.9084 21.3974C40.9907 22.2844 41.0368 23.1735 40.9629 24.0618C40.8752 25.1169 40.6653 26.152 40.3811 27.171C39.5372 30.1924 38.0468 32.8471 35.923 35.1342C33.7025 37.5253 31.0484 39.245 27.9719 40.2836C27.0479 40.5955 26.084 40.75 25.1167 40.868C24.5063 40.9422 23.8933 40.9753 23.3769 40.9966V40.9961Z" fill="#181818"/>
<path d="M6.25081 8.8514C6.72553 8.13882 7.26255 7.47349 7.83631 6.83967C8.1548 6.48801 8.53374 6.19612 8.92384 5.87689C8.07948 6.9365 7.16259 7.89418 6.29033 8.89078C6.25592 8.89866 6.23779 8.89079 6.25081 8.8514Z" fill="#F8F2EA"/>
<path d="M36.0346 6.5733C37.0627 7.40774 37.9958 8.33623 38.8244 9.36804C38.8313 9.40187 38.8216 9.41901 38.7839 9.4065C37.8982 8.43168 36.945 7.52357 35.9909 6.61639C35.9844 6.58118 35.9965 6.56404 36.0342 6.5733H36.0346Z" fill="#F8F2EA"/>
<path d="M44.4878 20.9603C44.5999 21.8267 44.6584 22.6954 44.5734 23.5674C44.5417 23.8945 44.4915 24.2197 44.4497 24.5459C44.3525 24.5005 44.4171 24.4259 44.4162 24.3629C44.4678 23.553 44.5152 22.7432 44.4873 21.931C44.4766 21.6201 44.4627 21.3092 44.4497 20.9983C44.4371 20.9608 44.4534 20.9515 44.4878 20.9598V20.9603Z" fill="#F8F2EA"/>
<path d="M25.1867 43.105C24.7092 43.1666 24.2321 43.2301 23.7541 43.2894C23.305 43.3455 22.8545 43.3922 22.4058 43.4543C22.2872 43.471 22.1742 43.4525 22.0589 43.4497C22.025 43.4488 21.9613 43.4789 21.9692 43.4024C21.9743 43.3538 22.0143 43.3348 22.0622 43.3315C22.2333 43.3204 22.4039 43.3028 22.5755 43.2968C23.3468 43.2699 24.1126 43.1819 24.8775 43.0841C24.9793 43.0712 25.0821 43.0549 25.1867 43.1045V43.105Z" fill="#F8F2EA"/>
<path d="M14.1337 3.68766C15.0562 3.17199 16.0647 2.88195 17.0666 2.5757C17.1066 2.56226 17.1164 2.58033 17.1094 2.61647C16.1191 2.95654 15.1329 3.30913 14.1723 3.72704C14.1342 3.73816 14.1249 3.72195 14.1337 3.68766Z" fill="#F8F2EA"/>
<path d="M34.9951 39.2146C35.8009 38.5113 36.6257 37.8283 37.3724 37.0583C37.192 37.4095 35.5024 38.9505 34.9951 39.2146Z" fill="#F8F2EA"/>
<path d="M38.5996 7.40533C38.952 7.6634 40.3055 9.24703 40.4943 9.60703C39.8136 8.91576 39.2784 8.09939 38.5996 7.40533Z" fill="#F8F2EA"/>
<path d="M35.1035 5.26205C34.6153 4.97942 34.1276 4.69634 33.6394 4.41371C34.1774 4.6097 34.7465 4.75054 35.1035 5.26205Z" fill="#F8F2EA"/>
<path d="M6.13922 10.0222C6.47352 9.54266 6.85107 9.09602 7.22582 8.648C7.25186 8.61649 7.27418 8.54236 7.33602 8.58869C7.40436 8.64012 7.34392 8.68135 7.30951 8.72213C6.93244 9.16877 6.55536 9.61587 6.17874 10.063C6.14573 10.0685 6.12713 10.0597 6.13969 10.0222H6.13922Z" fill="#F8F2EA"/>
<path d="M44.2063 26.3223C44.1091 26.9663 43.9584 27.5979 43.7543 28.2168C43.7432 28.2303 43.7315 28.2307 43.719 28.2182C43.8822 27.5497 44.0482 26.882 44.1658 26.2033C44.2537 26.2176 44.2039 26.2788 44.2063 26.3219V26.3223Z" fill="#F8F2EA"/>
<path d="M38.7844 9.40645C38.7979 9.39348 38.8114 9.38097 38.8249 9.368C39.2759 9.88413 39.6692 10.4424 40.0426 11.0156C40.0551 11.0517 40.0379 11.0577 40.0073 11.0503C39.6306 10.4795 39.2033 9.94622 38.7844 9.40645Z" fill="#F8F2EA"/>
<path d="M44.2065 26.3222C44.1883 26.2842 44.2144 26.231 44.166 26.2036C44.2492 25.5902 44.3325 24.9767 44.4157 24.3633C44.4389 24.4222 44.4031 24.4917 44.4492 24.5463C44.3683 25.1384 44.2874 25.7301 44.2069 26.3222H44.2065Z" fill="#F8F2EA"/>
<path d="M43.5386 28.9172C43.4372 29.4273 43.2219 29.899 43.0425 30.3827C43.0109 30.4679 42.9741 30.5513 42.9397 30.6356C42.909 30.6398 42.8872 30.6366 42.9076 30.5976C43.1164 30.0301 43.3359 29.4658 43.5098 28.8861C43.5237 28.881 43.5376 28.8764 43.5469 28.8926C43.5507 28.8991 43.5456 28.9084 43.539 28.9172H43.5386Z" fill="#F8F2EA"/>
<path d="M43.8582 16.5865C44.0297 17.1179 44.1948 17.6512 44.212 18.2146C44.0939 17.6721 43.9763 17.1295 43.8582 16.5865Z" fill="#F8F2EA"/>
<path d="M21.5661 1.63151C21.9679 1.59259 22.3677 1.52958 22.7713 1.51892C22.7732 1.54116 22.7755 1.56294 22.7773 1.58518C22.3863 1.6139 21.9953 1.64263 21.6038 1.67135C21.5666 1.68108 21.5559 1.66579 21.5657 1.63104L21.5661 1.63151Z" fill="#F8F2EA"/>
<path d="M1.65934 22.3261V23.4209C1.63981 23.4209 1.62028 23.42 1.60075 23.4195C1.51799 23.0257 1.66305 22.6393 1.65934 22.3261Z" fill="#F8F2EA"/>
<path d="M2.8037 15.6386C2.73024 15.8378 2.65492 16.037 2.58378 16.2372C2.56518 16.2895 2.54286 16.3317 2.48149 16.3071C2.40244 16.2752 2.46242 16.2298 2.48009 16.1936C2.57076 16.0074 2.66375 15.823 2.75628 15.6376C2.77255 15.6224 2.78836 15.6228 2.80417 15.639L2.8037 15.6386Z" fill="#F8F2EA"/>
<path d="M18.0989 2.02436C17.7418 2.11286 17.3852 2.20135 17.0281 2.29031C17.3503 2.111 17.7055 2.04892 18.0607 1.98591C18.097 1.97571 18.1077 1.99054 18.0989 2.02482V2.02436Z" fill="#F8F2EA"/>
<path d="M2.46745 28.0736C2.29635 27.7298 2.24799 27.3517 2.19824 26.9737C2.28798 27.3402 2.37772 27.7071 2.46745 28.0736Z" fill="#F8F2EA"/>
<path d="M6.13914 10.0222C6.15216 10.0356 6.16518 10.0495 6.1782 10.0629C6.015 10.2867 5.8518 10.511 5.6886 10.7348C5.67465 10.7255 5.66117 10.7162 5.64722 10.707C5.80484 10.4748 5.95455 10.2372 6.13914 10.0222Z" fill="#F8F2EA"/>
<path d="M9.10742 38.3978C9.32595 38.5706 9.54448 38.7434 9.76301 38.9162C9.42127 38.7591 9.20971 38.591 9.10742 38.3978Z" fill="#F8F2EA"/>
<path d="M26.1209 1.30718C25.8726 1.28865 25.6238 1.26965 25.3574 1.24973C25.6313 1.10703 25.8749 1.27475 26.1255 1.26177C26.1237 1.2766 26.1223 1.29189 26.1204 1.30672L26.1209 1.30718Z" fill="#F8F2EA"/>
<path d="M30.6758 3.16095C30.9627 3.19755 31.2114 3.30736 31.4378 3.4723C31.184 3.36852 30.9296 3.26473 30.6758 3.16095Z" fill="#F8F2EA"/>
<path d="M17.1092 2.6165C17.0948 2.60307 17.0808 2.58917 17.0664 2.57573C17.2747 2.48029 17.4974 2.43905 17.7164 2.38484C17.7211 2.39967 17.7257 2.41449 17.7304 2.42932C17.523 2.49187 17.3161 2.55395 17.1087 2.6165H17.1092Z" fill="#F8F2EA"/>
<path d="M27.3807 42.9271C27.5579 42.8747 27.735 42.8219 27.9122 42.7695C27.8066 42.9521 27.6123 42.9104 27.4574 42.9669C27.4193 42.9771 27.3761 42.998 27.3807 42.9271Z" fill="#F8F2EA"/>
<path d="M23.9509 43.7097C24.235 43.7046 24.5154 43.6245 24.8023 43.6782C24.5182 43.6833 24.2387 43.7755 23.9509 43.7097Z" fill="#F8F2EA"/>
<path d="M8.46851 37.277C8.62985 37.428 8.79165 37.5795 8.95299 37.7306C8.94276 37.7412 8.93207 37.7523 8.92184 37.763C8.74329 37.6291 8.58707 37.4725 8.46851 37.277Z" fill="#F8F2EA"/>
<path d="M9.44089 38.2054C9.26932 38.0882 9.11403 37.9534 8.98291 37.7917C9.16238 37.8987 9.31907 38.033 9.46693 38.1785C9.47065 38.1989 9.46181 38.2082 9.44089 38.2054Z" fill="#F8F2EA"/>
<path d="M3.4061 31.1278C3.29265 30.9429 3.21826 30.7432 3.18896 30.525C3.2708 30.7178 3.35263 30.911 3.43446 31.1037C3.43446 31.1227 3.42516 31.1306 3.40656 31.1283L3.4061 31.1278Z" fill="#F8F2EA"/>
<path d="M36.0351 6.5732C36.0207 6.58756 36.0063 6.60193 35.9918 6.61629C35.8807 6.51529 35.7696 6.41428 35.6589 6.31328C35.8128 6.36378 35.9314 6.45876 36.0356 6.5732H36.0351Z" fill="#F8F2EA"/>
<path d="M40.0076 11.0503C40.0192 11.0387 40.0313 11.0271 40.0429 11.0155C40.1643 11.1499 40.2475 11.3065 40.3056 11.4807C40.2061 11.3371 40.1071 11.1935 40.0076 11.0503Z" fill="#F8F2EA"/>
<path d="M18.0987 2.02442C18.0861 2.01145 18.0731 1.99848 18.0605 1.98551C18.2405 1.9262 18.4232 1.8808 18.6138 1.87848C18.618 1.88311 18.6217 1.88821 18.6259 1.89284C18.4572 1.96512 18.2758 1.98551 18.0987 2.02396V2.02442Z" fill="#F8F2EA"/>
<path d="M12.136 40.0591C12.269 40.1365 12.4024 40.2139 12.5354 40.2908C12.374 40.2648 12.2383 40.1898 12.136 40.0591Z" fill="#F8F2EA"/>
<path d="M27.3806 42.9271C27.3899 42.9716 27.4317 42.9535 27.4573 42.967C27.2983 43.004 27.1397 43.0416 26.9807 43.0786C27.1025 42.9906 27.2402 42.9545 27.3806 42.9271Z" fill="#F8F2EA"/>
<path d="M44.4875 20.9601C44.4749 20.9731 44.4623 20.9856 44.4493 20.9986C44.4 20.8638 44.4135 20.7262 44.447 20.5867L44.4875 20.9601Z" fill="#F8F2EA"/>
<path d="M10.0066 38.6479C9.88384 38.5752 9.76714 38.4945 9.6695 38.3898C9.66857 38.3718 9.67787 38.3653 9.69507 38.3694C9.81689 38.4223 9.90337 38.5219 10.0057 38.6006C10.0219 38.6159 10.0224 38.6317 10.0066 38.6479Z" fill="#F8F2EA"/>
<path d="M14.1338 3.68767C14.1468 3.70065 14.1594 3.71408 14.1724 3.72706C14.0743 3.79516 13.9655 3.83779 13.8469 3.85632C13.9311 3.77895 14.0259 3.72242 14.1333 3.68721L14.1338 3.68767Z" fill="#F8F2EA"/>
<path d="M21.5659 1.6315C21.5785 1.64494 21.5915 1.65837 21.604 1.67181C21.4818 1.73389 21.3544 1.70378 21.2251 1.67505C21.3385 1.66069 21.4525 1.64586 21.5659 1.6315Z" fill="#F8F2EA"/>
<path d="M2.80351 15.6385C2.7877 15.6385 2.77142 15.6376 2.75562 15.6372C2.80258 15.5338 2.84954 15.4305 2.8965 15.3277C2.89324 15.4426 2.87464 15.55 2.80351 15.6385Z" fill="#F8F2EA"/>
<path d="M3.58667 13.6449C3.64293 13.5305 3.69919 13.4156 3.75545 13.3011C3.7694 13.3076 3.78381 13.3141 3.79776 13.3206C3.74429 13.4364 3.71081 13.5615 3.58667 13.6449Z" fill="#F8F2EA"/>
<path d="M43.2122 17.0665C43.1847 16.9572 43.1573 16.8478 43.1299 16.7385C43.2103 16.8195 43.2447 16.9159 43.2461 17.0234C43.2638 17.0605 43.2461 17.0702 43.2117 17.0665H43.2122Z" fill="#F8F2EA"/>
<path d="M42.9076 30.5978C42.9183 30.6103 42.929 30.6233 42.9397 30.6358C42.9053 30.7326 42.8667 30.8271 42.7737 30.93C42.8081 30.7929 42.8495 30.6923 42.9076 30.5978Z" fill="#F8F2EA"/>
<path d="M6.25093 8.85133C6.26395 8.86431 6.27743 8.87774 6.29045 8.89072C6.24628 8.99079 6.1663 9.06168 6.08447 9.13303C6.11748 9.02554 6.17049 8.93056 6.25093 8.85133Z" fill="#F8F2EA"/>
<path d="M3.4339 31.1037C3.49249 31.2056 3.54782 31.308 3.55991 31.4294C3.48923 31.3386 3.43158 31.2418 3.40601 31.1282C3.4153 31.1199 3.4246 31.112 3.4339 31.1037Z" fill="#F8F2EA"/>
<path d="M10.0068 38.6483C10.0068 38.6325 10.0063 38.6166 10.0059 38.6007C10.0988 38.654 10.1837 38.7171 10.248 38.8078C10.1583 38.769 10.0683 38.7316 10.0068 38.6488V38.6483Z" fill="#F8F2EA"/>
<path d="M42.9161 15.8545C42.8445 15.7762 42.791 15.6914 42.81 15.5445C42.8542 15.6738 42.8854 15.7641 42.9161 15.8545Z" fill="#F8F2EA"/>
<path d="M43.2124 17.0665C43.224 17.0521 43.2352 17.0378 43.2468 17.0234C43.2933 17.1096 43.3068 17.2027 43.2924 17.3028C43.2659 17.224 43.2389 17.1453 43.2124 17.0665Z" fill="#F8F2EA"/>
<path d="M43.7196 28.2181C43.7317 28.2232 43.7433 28.2223 43.7549 28.2167C43.7284 28.301 43.7019 28.3858 43.6596 28.5207C43.6447 28.3747 43.6689 28.2936 43.7196 28.2186V28.2181Z" fill="#F8F2EA"/>
<path d="M18.614 1.87889C18.7107 1.83024 18.8121 1.80892 18.9585 1.82607C18.8232 1.8534 18.7307 1.9002 18.6261 1.89325C18.6219 1.88861 18.6182 1.88352 18.614 1.87889Z" fill="#F8F2EA"/>
<path d="M9.67176 38.3918C9.59481 38.3296 9.51787 38.2679 9.44092 38.2057C9.44983 38.1968 9.45828 38.1874 9.46719 38.1786C9.55493 38.23 9.63235 38.2936 9.69757 38.3712C9.68631 38.3745 9.67786 38.3815 9.67176 38.3918Z" fill="#F8F2EA"/>
<path d="M43.5393 28.9173C43.5295 28.9071 43.5198 28.8965 43.51 28.8863C43.5333 28.8056 43.5565 28.725 43.5798 28.6444C43.5923 28.7408 43.596 28.8348 43.5388 28.9173H43.5393Z" fill="#F8F2EA"/>
</g>
<path d="M27.2216 26.2419C27.2475 26.4694 27.3128 26.6907 27.4147 26.8958C27.7575 27.6196 28.2049 28.2772 28.6583 28.9354C29.1927 29.7117 29.7905 30.4422 30.3169 31.2206C30.9739 32.2037 31.5142 33.26 31.9268 34.3682C32.1951 35.0758 32.4612 35.7864 32.5755 36.5405C32.6432 36.9754 32.6279 37.4191 32.5305 37.8482C32.4676 38.1375 32.3142 38.3993 32.0926 38.5957C31.1882 39.4065 30.1326 39.9557 29.0025 40.3759C27.3907 40.9703 25.6949 41.3057 23.9782 41.3696C22.942 41.4119 21.9041 41.373 20.8741 41.2531C20.1251 41.1676 19.3777 41.0865 18.6427 40.9177C17.8024 40.7238 16.9562 40.5491 16.1438 40.2543C15.441 40.0109 14.7754 39.671 14.1661 39.2444C13.995 39.1234 13.8372 38.9848 13.695 38.8308C13.469 38.5854 13.3451 38.263 13.3486 37.9293C13.3486 35.8587 13.9597 34.0048 15.2806 32.3853C15.9301 31.5884 16.6886 30.911 17.4257 30.2011C18.0836 29.5858 18.7033 28.9307 19.2811 28.2396C19.8236 27.5762 20.1163 26.7963 20.2534 25.9544C20.2681 25.8652 20.2121 25.8446 20.1554 25.8129C19.2828 25.3212 18.536 24.6342 17.9734 23.8057C17.3513 22.8865 17.0888 21.8493 17.1065 20.7451C17.1272 19.374 17.5945 18.1547 18.3796 17.0431C18.9346 16.2566 19.5634 15.5401 20.3949 15.0469C22.4058 13.8528 24.4831 13.6184 26.5869 14.7934C27.7855 15.4634 28.5632 16.5242 29.0659 17.7891C29.4198 18.6788 29.6284 19.6025 29.5598 20.5637C29.4426 22.2098 28.8492 23.6391 27.5754 24.7396C27.5054 24.8039 27.4285 24.8602 27.3462 24.9077C27.2253 24.9726 27.2157 25.0197 27.3277 25.1126C27.6698 25.4028 27.9954 25.7119 28.303 26.0385C28.586 26.3333 28.8802 26.6193 29.0844 26.9783C29.1581 27.111 29.2826 27.2643 29.1817 27.4044C29.0807 27.5445 28.8868 27.4921 28.7313 27.4715C28.5757 27.4508 28.4453 27.358 28.317 27.2725C27.9717 27.0343 27.6596 26.7512 27.3889 26.4306L27.2216 26.2419ZM23.6096 40.7165C24.7725 40.7328 25.9334 40.6178 27.0705 40.3737C28.4607 40.0633 29.8127 39.6513 31.0046 38.8257C31.4263 38.5345 31.8007 38.2146 32.013 37.7347C32.0691 37.6126 32.0888 37.477 32.0698 37.344C32.0219 36.9983 31.9496 36.6577 31.8722 36.3172C31.4963 34.6586 30.9243 33.0811 29.9557 31.6666C29.3505 30.782 28.7431 29.8974 28.0266 29.0998C27.601 28.6164 27.2702 28.0573 27.0513 27.4516C26.7504 26.6776 26.6197 25.848 26.668 25.019C26.6732 24.9357 26.6304 24.8104 26.7528 24.7588C26.819 24.7254 26.879 24.681 26.9304 24.6276C28.4541 23.2742 29.1927 21.5839 29.0556 19.5413C29.0188 18.8715 28.8472 18.216 28.5511 17.6141C28.2549 17.0122 27.8404 16.4763 27.3322 16.0384C25.9087 14.7816 24.2443 14.382 22.3933 14.769C21.1818 15.0117 20.0804 15.6374 19.2516 16.5537C18.056 17.8555 17.4994 19.385 17.7641 21.138C18.0589 23.0862 19.1093 24.5347 20.8726 25.4443C20.909 25.4566 20.94 25.4811 20.9604 25.5136C20.9808 25.5461 20.9894 25.5846 20.9846 25.6227C20.9547 26.4151 20.699 27.1823 20.2475 27.8342C19.6003 28.7976 18.8248 29.6549 18.014 30.4812C17.5289 30.9759 17.024 31.4506 16.5301 31.9363C15.6743 32.7782 15.0558 33.7667 14.5649 34.8554C14.1227 35.8342 13.8986 36.8974 13.9081 37.9713C13.9081 38.1269 13.9169 38.3001 14.0835 38.3834C14.5862 38.6348 15.0868 38.8913 15.6042 39.1117C18.1614 40.2056 20.8402 40.6884 23.6096 40.7165ZM28.8868 27.1641C28.8693 27.0746 28.8278 26.9915 28.7666 26.9238C28.4718 26.5383 28.1607 26.1608 27.8327 25.8004C27.7059 25.6531 27.5616 25.5219 27.4029 25.4097C27.3019 25.3433 27.2297 25.3433 27.139 25.4532C27.0292 25.5866 27.0955 25.6876 27.1538 25.7923C27.4703 26.3474 27.9089 26.8233 28.4364 27.184C28.5165 27.2434 28.6063 27.2883 28.7018 27.3167C28.8175 27.3484 28.8839 27.296 28.8868 27.1641Z" fill="#F8F2EA"/>
<path d="M17.4161 17.2082C17.4537 17.5569 17.195 17.6977 16.9068 17.6314C16.446 17.5187 16.0005 17.3509 15.5799 17.1316C14.7514 16.7166 13.8963 16.3591 13.0633 15.9521C12.5215 15.689 11.976 15.4303 11.5087 15.0381C11.4209 14.9644 11.3354 14.8907 11.2529 14.8096C11.115 14.6769 11.132 14.5575 11.306 14.469C11.4457 14.4017 11.6013 14.3741 11.7556 14.3894C12.419 14.4314 13.0427 14.6327 13.6501 14.898C14.7786 15.3919 15.8571 15.9824 16.9333 16.578C17.0156 16.6246 17.0952 16.676 17.1714 16.732C17.3756 16.8802 17.4146 16.9613 17.4161 17.2082ZM17.3424 17.2679C17.346 17.2332 17.3415 17.1982 17.3294 17.1654C17.3172 17.1327 17.2977 17.1032 17.2724 17.0792C17.0678 16.8407 16.8196 16.6433 16.5411 16.4976C15.5829 15.9816 14.6157 15.4811 13.6125 15.0558C13.0898 14.8346 12.5591 14.6364 11.9908 14.5626C11.8809 14.5479 11.7814 14.5678 11.7305 14.6614C11.6797 14.755 11.7652 14.8243 11.833 14.8826C12.0176 15.0273 12.215 15.1548 12.4227 15.2637C13.8815 16.1106 15.4568 16.7033 17.0041 17.3571C17.0691 17.3821 17.1374 17.398 17.2068 17.4043C17.2989 17.4146 17.3616 17.3807 17.3417 17.2679H17.3424Z" fill="#F8F2EA"/>
<path d="M30.5579 19.1595C30.3441 19.1683 30.1296 19.2184 29.9165 19.1536L29.8959 19.1263C29.7433 18.9427 29.7566 18.8572 29.9696 18.7444C30.0807 18.6893 30.1946 18.6401 30.3109 18.597C30.8063 18.3995 31.3237 18.2697 31.8279 18.0987C32.4022 17.9041 32.9727 17.6947 33.5661 17.5576C33.8864 17.4801 34.2181 17.4613 34.5451 17.5024C34.7102 17.5237 34.7456 17.6004 34.677 17.7508C34.6038 17.8875 34.4903 17.9985 34.3519 18.0685C33.7541 18.4371 33.087 18.6162 32.4184 18.7983C31.8081 18.9649 31.1862 19.0856 30.5579 19.1595ZM30.566 18.7629C31.6717 18.538 32.7892 18.356 33.8094 17.8274C32.7027 18.0427 31.6173 18.3558 30.566 18.7629Z" fill="#181818"/>
<path d="M11.0346 26.1925C10.7774 26.1925 10.6181 25.9559 10.6955 25.6824C10.7896 25.3748 10.98 25.1055 11.2388 24.9143C11.7869 24.49 12.3782 24.1245 13.0028 23.8241C13.8366 23.3988 14.6952 23.0239 15.574 22.7014C15.9123 22.582 16.2595 22.4803 16.6266 22.5334C16.7572 22.5398 16.88 22.5979 16.9679 22.6948C16.9926 22.7189 17.0085 22.7506 17.0131 22.7848C17.0176 22.819 17.0105 22.8538 16.993 22.8835C16.9009 23.05 16.7692 23.1912 16.6096 23.2948C16.1048 23.6426 15.5726 23.9488 15.0181 24.2104C14.0422 24.6969 13.0839 25.2166 12.1433 25.7694C11.8966 25.9108 11.6372 26.0287 11.3686 26.1218C11.2621 26.1643 11.1492 26.1883 11.0346 26.1925ZM11.1319 25.9544C11.259 25.9565 11.385 25.9301 11.5005 25.877C11.9277 25.6992 12.3422 25.4923 12.7411 25.2578C13.7223 24.7101 14.7012 24.1565 15.6948 23.631C15.9322 23.5056 16.1821 23.4032 16.3988 23.241C16.589 23.0987 16.6863 22.9122 16.6354 22.7943C16.5794 22.6638 16.3546 22.596 16.1275 22.6284C15.6854 22.6995 15.2563 22.8362 14.8545 23.0339C13.7433 23.5596 12.6705 24.1631 11.6442 24.8399C11.3582 25.0256 11.0914 25.2254 10.896 25.5121C10.8585 25.5591 10.8352 25.616 10.8291 25.6759C10.8229 25.7357 10.8341 25.7961 10.8614 25.8498C10.9167 25.9544 11.0214 25.9544 11.1319 25.9544Z" fill="#F8F2EA"/>
<path d="M31.1793 10.3594C31.1743 10.5296 31.1269 10.6958 31.0414 10.843C30.6662 11.5802 30.1664 12.2333 29.6202 12.851C29.2244 13.2992 28.8831 13.796 28.4688 14.2265C28.2609 14.4417 28.0516 14.6548 27.7235 14.6835C27.4228 14.7101 27.2577 14.5405 27.3144 14.2412C27.3604 14.0468 27.4416 13.8624 27.554 13.6972C28.0221 12.949 28.5515 12.2409 29.1366 11.5802C29.4905 11.1688 29.8303 10.745 30.235 10.3794C30.3712 10.2548 30.5225 10.1478 30.6854 10.0609C30.9942 9.89947 31.18 10.0108 31.1793 10.3594ZM27.7147 14.6422C27.7622 14.6436 27.8094 14.6348 27.8533 14.6165C27.8971 14.5982 27.9366 14.5708 27.969 14.5361C28.0404 14.4736 28.1064 14.4053 28.1666 14.3319C29.0165 13.2461 29.8944 12.1802 30.6994 11.056C30.795 10.9351 30.8697 10.7991 30.9205 10.6536C30.9419 10.5799 30.9758 10.5017 30.9146 10.4413C30.8534 10.3808 30.7635 10.4022 30.6883 10.4295C30.4803 10.5012 30.2895 10.6154 30.1281 10.7649C29.3047 11.5536 28.541 12.3932 27.9292 13.3596C27.7405 13.6545 27.554 13.9597 27.4574 14.3046C27.4466 14.3441 27.4449 14.3856 27.4527 14.4258C27.4604 14.466 27.4773 14.5039 27.502 14.5365C27.5268 14.5692 27.5587 14.5957 27.5953 14.614C27.6319 14.6324 27.6723 14.642 27.7132 14.6422H27.7147Z" fill="#F8F2EA"/>
<path d="M30.5578 19.1595C31.1859 19.0856 31.8076 18.9648 32.4176 18.7983C33.0862 18.6162 33.7533 18.4371 34.3512 18.0685C34.4896 17.9985 34.6031 17.8875 34.6762 17.7508C34.7448 17.6034 34.7094 17.5237 34.5443 17.5024C34.2173 17.4613 33.8856 17.4801 33.5654 17.5577C32.972 17.6948 32.4014 17.9041 31.8272 18.0987C31.323 18.2697 30.8055 18.3995 30.3101 18.597C30.1938 18.6401 30.0799 18.6893 29.9688 18.7444C29.7566 18.8572 29.7433 18.9427 29.8951 19.1263C29.8379 19.1182 29.7846 19.0926 29.7425 19.053C29.7004 19.0134 29.6716 18.9618 29.66 18.9051C29.6305 18.7835 29.6998 18.7083 29.7846 18.6398C30.0175 18.4511 30.2947 18.3449 30.5689 18.2432C31.5935 17.8555 32.6277 17.4935 33.6981 17.2473C33.9641 17.1824 34.2355 17.1422 34.5089 17.1272C34.6873 17.1198 34.8775 17.1478 34.9549 17.3078C35.0389 17.4795 34.9232 17.6483 34.8038 17.7781C34.5487 18.056 34.214 18.2203 33.8779 18.3678C32.881 18.8041 31.8205 19.0779 30.737 19.1786C30.6795 19.1875 30.6124 19.2125 30.5578 19.1595Z" fill="#F8F2EA"/>
<path d="M29.5738 23.5329C29.9586 23.5432 30.277 23.6988 30.5977 23.8499C31.4955 24.2723 32.3514 24.7765 33.2411 25.2129C33.4666 25.3118 33.6604 25.4709 33.8013 25.6728C33.9237 25.863 33.8802 25.9876 33.6642 26.0606C33.5213 26.1081 33.3678 26.1134 33.2219 26.0761C32.8649 25.9822 32.5179 25.8534 32.1862 25.6913C31.7255 25.4768 31.2633 25.2645 30.8122 25.0278C30.3833 24.7946 29.9665 24.5397 29.5635 24.2642C29.4772 24.2042 29.4023 24.1293 29.3423 24.043C29.3023 23.9946 29.2763 23.9363 29.2669 23.8742C29.2576 23.8121 29.2653 23.7487 29.2893 23.6907C29.3097 23.6345 29.3497 23.5875 29.402 23.5585C29.4543 23.5295 29.5153 23.5204 29.5738 23.5329ZM29.7559 23.7939C29.6461 23.7939 29.5274 23.8086 29.4912 23.9185C29.4551 24.0283 29.5819 24.0659 29.6497 24.1248C29.6534 24.1248 29.6586 24.1293 29.6623 24.1322C30.4886 24.6482 31.3503 25.106 32.215 25.5549C32.5436 25.7323 32.8872 25.8803 33.2418 25.9972C33.3458 26.0296 33.4423 26.0385 33.5035 25.939C33.5647 25.8394 33.491 25.7576 33.421 25.695C33.3142 25.598 33.2022 25.5069 33.0856 25.4222C32.672 25.1274 32.2143 24.9025 31.7838 24.635C31.2716 24.318 30.7225 24.065 30.1488 23.8816C30.0225 23.8344 29.8903 23.8049 29.7559 23.7939Z" fill="#F8F2EA"/>
<path d="M18.7747 9.10484C18.8298 9.10744 18.8838 9.12196 18.9327 9.14741C18.9817 9.17287 19.0246 9.20864 19.0585 9.25227C19.3209 9.55303 19.5008 9.90317 19.6666 10.2599C20.1981 11.4099 20.6912 12.5746 21.0303 13.7982C21.0628 13.9132 21.09 14.0304 21.1158 14.1469C21.1361 14.235 21.1263 14.3274 21.0878 14.4093C20.9964 14.6091 20.8335 14.6555 20.6514 14.528C20.509 14.4174 20.3944 14.275 20.3168 14.1123C19.9145 13.3553 19.5544 12.5767 19.2383 11.7799C18.9558 11.0718 18.7218 10.3453 18.538 9.60536C18.5121 9.51407 18.4999 9.41941 18.5019 9.32451C18.5093 9.15792 18.5756 9.09747 18.7747 9.10484ZM21.0782 14.2958C21.0703 14.1935 21.052 14.0922 21.0237 13.9936C20.8858 13.5837 20.717 13.1827 20.5549 12.7839C20.1988 11.9045 19.9091 10.9986 19.4993 10.1405C19.3614 9.85304 19.2287 9.56261 19.0327 9.30903C18.9273 9.17413 18.8359 9.18151 18.7334 9.31714C18.6309 9.45277 18.6825 9.58325 18.7164 9.71741C18.9442 10.6167 19.2966 11.4725 19.6563 12.3239C19.9009 12.9283 20.2041 13.5072 20.5615 14.0525C20.6492 14.1864 20.7624 14.3016 20.8947 14.3916C21.0038 14.4639 21.0805 14.4204 21.0782 14.2958Z" fill="#F8F2EA"/>
<path d="M24.7123 13.353C24.7232 13.0505 24.7674 12.7501 24.8442 12.4574C24.985 11.8831 25.0853 11.2949 25.372 10.7664C25.4215 10.6689 25.4787 10.5754 25.543 10.487C25.6661 10.327 25.8593 10.3307 25.9897 10.487C26.0383 10.5475 26.0742 10.6172 26.0953 10.692C26.1163 10.7667 26.122 10.8449 26.1121 10.9219C26.0502 11.7556 25.8961 12.5701 25.5733 13.3456C25.4965 13.5133 25.4026 13.6726 25.2931 13.8211C25.1863 13.9766 25.0064 13.9869 24.8575 13.8351C24.7086 13.6832 24.7204 13.538 24.7123 13.353ZM26.0104 11.0833C26.0204 10.9826 26.0116 10.8809 25.9846 10.7833C25.9182 10.6035 25.8416 10.5769 25.6897 10.6868C25.557 10.786 25.4607 10.9261 25.4155 11.0855C25.1944 11.7615 24.9828 12.4397 24.8796 13.1459C24.8531 13.3257 24.817 13.5144 24.8715 13.6943C24.8782 13.7337 24.8954 13.7705 24.9214 13.8009C24.9474 13.8313 24.9811 13.854 25.0189 13.8668C25.0926 13.8845 25.1457 13.8218 25.187 13.7658C25.2299 13.7109 25.2672 13.6519 25.2983 13.5896C25.678 12.8014 25.9189 11.9535 26.0104 11.0833Z" fill="#F8F2EA"/>
<path d="M31.9061 22.0041C31.5906 21.8965 31.2486 21.9554 30.9324 21.8471C30.7991 21.8131 30.6739 21.7532 30.5638 21.6709C30.4812 21.4873 30.5483 21.3709 30.7672 21.3502C31.371 21.2913 31.9695 21.362 32.5666 21.4365C32.6514 21.4464 32.7329 21.4752 32.8051 21.5207C32.8773 21.5663 32.9384 21.6274 32.9838 21.6996C33.0221 21.7586 33.0295 21.8257 32.9536 21.8471C32.8467 21.8729 32.7568 21.9348 32.6447 21.951C32.3999 21.9839 32.1532 22.0016 31.9061 22.0041ZM32.473 21.7498C32.0307 21.7446 31.5943 21.6399 31.1498 21.6864C31.5906 21.7144 32.0263 21.7955 32.473 21.7527V21.7498ZM30.925 21.5249C31.2066 21.564 31.4896 21.5441 31.7712 21.5721C31.4971 21.4913 31.2079 21.4751 30.9265 21.5249H30.925Z" fill="#181818"/>
<path d="M18.5248 15.6278C18.5742 15.7067 18.6235 15.7856 18.6722 15.8644C18.6859 15.8837 18.6982 15.9039 18.7091 15.9249C18.7407 15.9986 18.8329 16.0664 18.7702 16.1497C18.7076 16.233 18.6029 16.216 18.5093 16.1947C18.4756 16.1877 18.4427 16.177 18.4112 16.163C18.2874 16.1033 18.1658 16.0413 18.0427 15.9802C18.0294 15.9544 18.0161 15.9286 17.9793 15.9463L17.9844 15.9507C17.9844 15.905 17.9527 15.8983 17.921 15.8888C17.8997 15.8689 17.879 15.8482 17.8569 15.829C17.4839 15.5069 17.105 15.1907 16.8175 14.7845C16.7438 14.6776 16.6421 14.5435 16.7534 14.4204C16.8647 14.2973 17.0151 14.3754 17.1367 14.4417C17.3467 14.566 17.5431 14.7117 17.7228 14.8767C17.952 15.0713 18.151 15.299 18.395 15.476V15.4723C18.3906 15.5003 18.395 15.5194 18.4297 15.5054L18.4253 15.501C18.4135 15.5548 18.4592 15.5688 18.4901 15.5939V15.5902C18.4931 15.6138 18.4982 15.6344 18.5248 15.6278ZM18.3383 15.8364C18.3471 15.8438 18.3611 15.86 18.3641 15.8578C18.3906 15.8408 18.3641 15.832 18.3567 15.8202C17.9476 15.33 17.5038 14.8811 16.9259 14.5604C16.9257 14.5929 16.9322 14.6251 16.9448 14.655C16.9575 14.6849 16.9761 14.7119 16.9996 14.7344C17.392 15.1626 17.8427 15.5336 18.3383 15.8364Z" fill="#181818"/>
<path d="M31.4668 15.1457C31.3374 15.3296 31.1737 15.4868 30.9847 15.6086C30.9257 15.6477 30.8933 15.7089 30.8328 15.7399C30.7915 15.7399 30.7591 15.7524 30.7591 15.8025L30.7635 15.7988C30.6618 15.8173 30.5955 15.8902 30.5218 15.9529C30.503 15.9561 30.4851 15.9633 30.4693 15.9739C30.4536 15.9846 30.4403 15.9986 30.4303 16.0148C30.4112 16.0167 30.3927 16.0233 30.3767 16.0339C30.3606 16.0446 30.3474 16.059 30.3382 16.076C30.3198 16.076 30.2918 16.0708 30.3043 16.1069H30.308C30.2512 16.0878 30.2181 16.1357 30.1775 16.1571C30.0709 16.2209 29.9571 16.2719 29.8384 16.3089C29.7581 16.3288 29.6659 16.3546 29.6047 16.2735C29.5782 16.2365 29.5647 16.1917 29.5664 16.1462C29.5682 16.1007 29.585 16.0571 29.6143 16.0222C29.6555 15.9599 29.7005 15.9003 29.7492 15.8438C29.9571 15.6224 30.1887 15.4246 30.4399 15.2541C30.667 15.0919 30.8947 14.9283 31.1645 14.8442C31.2736 14.8103 31.3945 14.7779 31.4911 14.8693C31.5877 14.9607 31.4896 15.0506 31.4668 15.1457ZM31.2456 15.1796C31.3193 15.117 31.4388 15.0234 31.3997 14.9541C31.3481 14.8619 31.2213 14.9415 31.1284 14.9673C31.1211 14.9673 31.1159 14.9769 31.1063 14.985C31.2058 15.0034 31.27 15.044 31.2235 15.1575C31.2147 15.173 31.1704 15.1752 31.197 15.2025C31.2235 15.2298 31.239 15.2062 31.2471 15.1796H31.2456ZM29.876 16.0767C30.1746 15.9735 30.9817 15.3248 31.1292 15.0801C30.6036 15.3219 30.1834 15.6278 29.876 16.0767Z" fill="#181818"/>
<path d="M23.0161 13.6781C22.9203 13.6958 22.9048 13.6139 22.8827 13.5579C22.6376 12.9749 22.4622 12.365 22.3601 11.7409C22.3255 11.5901 22.3136 11.4351 22.3247 11.2809C22.3431 11.1637 22.3542 11.0251 22.4891 10.986C22.624 10.947 22.7272 11.0354 22.8208 11.1335C23.0662 11.4003 23.1348 11.7394 23.2056 12.0741C23.2977 12.4721 23.3561 12.8773 23.3803 13.2852C23.3958 13.4196 23.3657 13.5554 23.2948 13.6707C23.21 13.7901 23.0832 13.7886 23.0132 13.6707C23.1746 13.7282 23.2181 13.7046 23.241 13.5388C23.2491 13.4796 23.2505 13.4198 23.2454 13.3604C23.2026 12.8731 23.0758 12.4021 22.9896 11.92C22.9596 11.7075 22.8914 11.5023 22.7883 11.3141C22.7596 11.2669 22.7257 11.2035 22.6505 11.219C22.6215 11.227 22.5951 11.2425 22.574 11.264C22.5529 11.2855 22.5378 11.3122 22.5303 11.3413C22.504 11.4219 22.4925 11.5066 22.4964 11.5912C22.4964 12.1316 22.6439 12.6439 22.7913 13.1562C22.8451 13.3419 22.896 13.5255 23.0161 13.6781Z" fill="#F8F2EA"/>
<path d="M16.5846 20.131C16.6966 20.1612 16.7821 20.229 16.771 20.3485C16.76 20.4679 16.718 20.588 16.5705 20.6323C16.3885 20.685 16.1998 20.7113 16.0103 20.7104C15.4368 20.717 14.8626 20.7229 14.3038 20.563C14.1641 20.5254 14.0296 20.4704 13.9036 20.3993C13.7502 20.3101 13.7325 20.1782 13.8498 20.0396C13.9044 19.9744 13.9719 19.9212 14.048 19.8831C14.124 19.8451 14.2071 19.8231 14.292 19.8185C15.0223 19.7592 15.7569 19.8483 16.4519 20.0801C15.874 19.9506 15.2855 19.8743 14.6938 19.8524C14.5246 19.8393 14.3544 19.8611 14.194 19.9165C14.1516 19.9321 14.1147 19.9598 14.0877 19.996C14.0608 20.0323 14.0449 20.0756 14.0421 20.1207C14.0311 20.2173 14.096 20.2637 14.1645 20.3087C14.2692 20.3765 14.3916 20.3743 14.5088 20.3927C15.0144 20.4753 15.515 20.5998 16.0317 20.5969C16.1894 20.5969 16.3472 20.6087 16.502 20.5409C16.6568 20.473 16.7298 20.2622 16.5624 20.1502L16.5846 20.131Z" fill="#F8F2EA"/>
<path d="M17.8304 24.6924C17.8647 24.722 17.8868 24.7632 17.8923 24.8082C17.8756 24.826 17.8598 24.8447 17.8451 24.8642C17.5149 25.3281 17.1027 25.7278 16.6289 26.0436C16.5176 26.1173 16.3613 26.2146 16.2492 26.0974C16.1372 25.9802 16.2492 25.8358 16.3355 25.7289C16.5997 25.3701 16.9359 25.0703 17.3225 24.8487C17.4795 24.7625 17.6432 24.6851 17.8304 24.6924ZM16.5581 25.8719C16.9054 25.6734 17.2081 25.4054 17.4471 25.0846C17.4559 25.0765 17.4729 25.0625 17.4714 25.0603C17.4567 25.036 17.4419 25.0529 17.4279 25.0603C17.0992 25.2866 16.7719 25.5158 16.5382 25.8498C16.5242 25.8549 16.5117 25.8638 16.5234 25.8785C16.5264 25.8874 16.5463 25.8807 16.5581 25.8748V25.8719Z" fill="#181818"/>
<path d="M31.9061 22.0041C32.1527 22.0005 32.3989 21.9818 32.6432 21.9481C32.7553 21.9319 32.8452 21.8699 32.9521 21.8441C33.0258 21.8257 33.0206 21.7586 32.9823 21.6967C32.9368 21.6245 32.8758 21.5633 32.8036 21.5178C32.7314 21.4722 32.6499 21.4434 32.5651 21.4335C31.968 21.3598 31.3694 21.2861 30.7657 21.3473C30.5446 21.3679 30.4797 21.4844 30.5623 21.668C30.4097 21.6414 30.3868 21.5205 30.3802 21.3996C30.3736 21.2787 30.476 21.2522 30.5741 21.2375C31.4241 21.1103 32.2919 21.1779 33.112 21.435C33.3332 21.5087 33.3538 21.6333 33.1784 21.7881C32.9749 21.968 32.7206 22.0019 32.4692 22.0203C32.2828 22.0365 32.0911 22.0675 31.9061 22.0041Z" fill="#F8F2EA"/>
<path d="M17.8304 24.6924C17.6431 24.6851 17.4795 24.7625 17.3225 24.8487C16.9362 25.0695 16.6 25.3682 16.3354 25.7259C16.2514 25.8343 16.1305 25.9714 16.2492 26.0945C16.3679 26.2176 16.5175 26.1173 16.6288 26.0407C17.1026 25.7248 17.5148 25.3251 17.8451 24.8612C17.8598 24.8417 17.8756 24.823 17.8923 24.8052C17.8871 24.9674 17.7935 25.0868 17.6874 25.1908C17.3527 25.518 17.0298 25.8579 16.6554 26.1387C16.556 26.2222 16.4441 26.2894 16.3237 26.3377C16.1799 26.3871 16.0922 26.3341 16.0627 26.1852C16.0441 26.107 16.0538 26.0247 16.09 25.953C16.3988 25.3588 16.9166 24.9001 17.5436 24.6652C17.6328 24.6335 17.7427 24.5885 17.8304 24.6924Z" fill="#F8F2EA"/>
<path d="M31.4668 15.1457C31.4897 15.0506 31.6017 14.96 31.4963 14.859C31.3909 14.758 31.2788 14.8 31.1697 14.8339C30.8999 14.9179 30.6722 15.0816 30.4451 15.2438C30.1939 15.4143 29.9623 15.6121 29.7544 15.8335C29.7057 15.89 29.6607 15.9496 29.6195 16.0119C29.5902 16.0467 29.5734 16.0904 29.5716 16.1359C29.5699 16.1814 29.5834 16.2262 29.6099 16.2632C29.6711 16.3443 29.7633 16.3185 29.8436 16.2986C29.9624 16.2628 30.0764 16.2131 30.1834 16.1504C30.224 16.1291 30.2572 16.0811 30.3139 16.1003C30.1259 16.2603 29.9225 16.3878 29.663 16.359C29.5045 16.3421 29.4662 16.2581 29.5193 16.1084C29.6041 15.8674 29.7883 15.7052 29.966 15.5386C30.2519 15.254 30.5692 15.0027 30.9117 14.7897C31.0481 14.7067 31.1977 14.6476 31.354 14.615C31.5604 14.5759 31.6732 14.6754 31.6489 14.8855C31.6465 14.9417 31.6281 14.9961 31.5959 15.0422C31.5636 15.0883 31.5188 15.1242 31.4668 15.1457Z" fill="#F8F2EA"/>
<path d="M18.3987 15.4796C18.1547 15.3027 17.9564 15.075 17.7264 14.8803C17.5467 14.7154 17.3503 14.5696 17.1404 14.4454C17.0188 14.3791 16.8721 14.298 16.7571 14.4241C16.6421 14.5501 16.746 14.6813 16.8212 14.7882C17.1087 15.1944 17.4846 15.5106 17.8606 15.8327C17.8827 15.8519 17.9033 15.8725 17.9247 15.8924C17.8768 15.9146 17.851 15.8755 17.82 15.8534C17.3962 15.529 16.9834 15.1899 16.6657 14.7572C16.6382 14.7221 16.6136 14.6849 16.592 14.6459C16.5426 14.5494 16.4644 14.4417 16.5573 14.3452C16.6019 14.2939 16.6619 14.2584 16.7282 14.2438C16.7946 14.2292 16.8639 14.2363 16.9259 14.2641C17.3291 14.4381 17.663 14.7108 17.9822 15.0086C18.1348 15.1523 18.2985 15.2887 18.3987 15.4796Z" fill="#F8F2EA"/>
<path d="M18.0426 15.9802C18.1657 16.0413 18.2873 16.1033 18.4112 16.163C18.4426 16.177 18.4755 16.1877 18.5092 16.1947C18.6028 16.216 18.7068 16.233 18.7702 16.1497C18.8336 16.0664 18.7407 15.9978 18.709 15.9249C18.6981 15.9039 18.6858 15.8837 18.6721 15.8644C18.7761 15.9116 18.8933 16.1364 18.852 16.2138C18.8107 16.2912 18.6367 16.3473 18.5203 16.2875C18.3537 16.1954 18.1679 16.1372 18.0426 15.9802Z" fill="#F8F2EA"/>
<path d="M30.5217 15.9543C30.5961 15.8911 30.6631 15.8174 30.7657 15.7988C30.7203 15.9074 30.6266 15.9394 30.5217 15.9543Z" fill="#F8F2EA"/>
<path d="M30.4318 16.0136C30.4419 15.9971 30.4554 15.9829 30.4714 15.9721C30.4874 15.9612 30.5056 15.9539 30.5247 15.9507C30.5224 16.0144 30.479 16.0211 30.4318 16.0136Z" fill="#F8F2EA"/>
<path d="M30.3412 16.0726C30.3505 16.0553 30.3639 16.0407 30.3803 16.0298C30.3966 16.019 30.4153 16.0123 30.4348 16.0104C30.4333 16.0778 30.3906 16.0778 30.3412 16.0726Z" fill="#F8F2EA"/>
<path d="M18.4919 15.5991C18.4605 15.5736 18.417 15.5594 18.426 15.5047C18.4446 15.5129 18.4606 15.526 18.4722 15.5427C18.4838 15.5593 18.4906 15.5788 18.4919 15.5991Z" fill="#F8F2EA"/>
<path d="M30.759 15.8047C30.759 15.7528 30.7926 15.7421 30.8353 15.7399C30.8326 15.758 30.8233 15.7746 30.8093 15.7865C30.7953 15.7985 30.7774 15.8049 30.759 15.8047Z" fill="#F8F2EA"/>
<path d="M17.9233 15.891C17.9561 15.9009 17.992 15.9078 17.9889 15.9551C17.9516 15.949 17.9149 15.9428 17.9233 15.891Z" fill="#F8F2EA"/>
<path d="M16.5123 20.1195C16.5248 20.1126 16.5392 20.1104 16.5531 20.113C16.567 20.1157 16.5796 20.1231 16.5886 20.134L16.5703 20.1546C16.5482 20.1477 16.5192 20.1492 16.5146 20.1164L16.5123 20.1195Z" fill="#F8F2EA"/>
<path d="M16.4534 20.0853C16.4718 20.1007 16.5103 20.0853 16.5149 20.1207C16.4895 20.1207 16.4618 20.1207 16.4557 20.0861L16.4534 20.0853Z" fill="#F8F2EA"/>
<path d="M17.9814 15.9487C18.0199 15.9303 18.0337 15.9572 18.0476 15.9841C18.041 15.987 18.0338 15.9884 18.0266 15.9881C18.0194 15.9878 18.0123 15.9859 18.0059 15.9825C17.9995 15.9791 17.994 15.9743 17.9898 15.9684C17.9856 15.9626 17.9827 15.9558 17.9814 15.9487Z" fill="#F8F2EA"/>
<path d="M29.8959 19.1263L29.9177 19.1551C29.9239 19.1349 29.9161 19.1255 29.8959 19.1263Z" fill="#F8F2EA"/>
<path d="M18.526 15.629C18.4986 15.6336 18.4933 15.6145 18.4879 15.5939L18.526 15.629Z" fill="#F8F2EA"/>
<path d="M18.4317 15.5103C18.3951 15.5248 18.3913 15.5049 18.3958 15.476C18.405 15.4761 18.4138 15.4798 18.4205 15.4861C18.4271 15.4925 18.4311 15.5011 18.4317 15.5103Z" fill="#F8F2EA"/>
<path d="M30.3095 16.1021C30.2965 16.0648 30.3255 16.0724 30.3446 16.0701C30.3553 16.1044 30.3316 16.1037 30.3095 16.1021Z" fill="#F8F2EA"/>
<path d="M23.6095 40.7164C20.8401 40.6884 18.1613 40.2056 15.6034 39.1183C15.0874 38.8972 14.5854 38.6414 14.0827 38.39C13.9161 38.3067 13.908 38.1335 13.9073 37.978C13.8978 36.904 14.1219 35.8408 14.5641 34.8621C15.0521 33.7733 15.6698 32.7848 16.5293 31.943C17.0232 31.4572 17.5281 30.9847 18.0132 30.4879C18.824 29.6615 19.5995 28.8042 20.2467 27.8408C20.6982 27.189 20.9539 26.4217 20.9838 25.6294C20.9886 25.5913 20.98 25.5527 20.9596 25.5202C20.9392 25.4877 20.9082 25.4632 20.8718 25.451C19.1085 24.5413 18.0566 23.0921 17.7633 21.1446C17.4986 19.3917 18.0581 17.8621 19.2508 16.5603C20.0796 15.644 21.181 15.0183 22.3925 14.7757C24.2464 14.3887 25.9109 14.7882 27.3314 16.045C27.8396 16.4829 28.2542 17.0188 28.5503 17.6207C28.8464 18.2226 29.018 18.8781 29.0548 19.5479C29.1919 21.5876 28.4533 23.2779 26.9296 24.6342C26.8782 24.6877 26.8182 24.732 26.752 24.7654C26.6296 24.817 26.6724 24.9423 26.6672 25.0256C26.6189 25.8546 26.7496 26.6843 27.0505 27.4582C27.2694 28.0639 27.6002 28.623 28.0258 29.1065C28.7423 29.9055 29.3526 30.7894 29.9549 31.6732C30.9227 33.0878 31.4948 34.6652 31.8714 36.3238C31.9451 36.6644 32.0189 37.0049 32.069 37.3507C32.088 37.4836 32.0683 37.6193 32.0122 37.7413C31.7999 38.2212 31.4225 38.5411 31.0038 38.8323C29.8119 39.6557 28.4599 40.0678 27.0697 40.3803C25.9326 40.6222 24.7719 40.7349 23.6095 40.7164ZM16.2875 33.1784C16.3 33.1674 16.3199 33.1571 16.2956 33.1394C16.2872 33.1466 16.2793 33.1545 16.272 33.163C16.2573 33.1703 16.2322 33.1762 16.2514 33.1969C16.2705 33.2175 16.2779 33.1888 16.2875 33.1784ZM19.8995 29.6048C19.8862 29.6084 19.8656 29.6084 19.8884 29.6284C19.8884 29.6202 19.8951 29.6121 19.898 29.6033C19.901 29.5944 19.929 29.6033 19.9106 29.5827L19.8995 29.6048ZM19.8405 29.6954C19.8287 29.6954 19.8133 29.6917 19.8258 29.7124L19.8383 29.6932C19.845 29.6881 19.8708 29.6932 19.8464 29.6726L19.8405 29.6954ZM20.0786 29.3645L20.1103 29.3372C20.1208 29.3321 20.1297 29.3242 20.1358 29.3142C20.142 29.3043 20.1451 29.2928 20.145 29.2812L20.1715 29.248C20.1966 29.2399 20.2032 29.2185 20.2084 29.1957L20.2327 29.1603L20.271 29.1079L20.2917 29.0696C20.3024 29.0641 20.3111 29.0554 20.3166 29.0447C20.3222 29.034 20.3243 29.0218 20.3226 29.0099L20.3477 28.9752L20.3727 28.9435L20.3543 28.9347C20.3543 28.948 20.3499 28.962 20.3484 28.976C20.327 28.9723 20.3197 28.9863 20.3152 29.0033L20.2777 29.0541L20.2526 29.0895C20.2408 29.1079 20.2297 29.1264 20.2187 29.1455L20.1936 29.1802C20.1811 29.1979 20.1693 29.2156 20.1575 29.234L20.1354 29.2716L20.0978 29.3232C20.0912 29.3372 20.0845 29.3505 20.0786 29.3645L20.0491 29.3954C20.0377 29.3999 20.0283 29.4085 20.0228 29.4196C20.0174 29.4306 20.0162 29.4433 20.0197 29.4551C19.9887 29.4654 19.988 29.4898 19.9909 29.5163L19.9518 29.5215L19.9585 29.5384L19.9887 29.5148C19.9985 29.5079 20.0063 29.4986 20.0113 29.4877C20.0164 29.4768 20.0185 29.4648 20.0174 29.4529C20.0499 29.4448 20.0543 29.422 20.0477 29.3939C20.069 29.3962 20.0749 29.3821 20.0772 29.363L20.0786 29.3645ZM30.2247 33.9156C30.2238 33.9114 30.2223 33.9075 30.2202 33.9038C30.2176 33.9032 30.2148 33.9032 30.2121 33.9038L30.2261 33.9163L30.2379 33.9465C30.2379 33.9465 30.2416 33.9392 30.2379 33.9369C30.234 33.9295 30.2295 33.9224 30.2247 33.9156ZM26.2139 22.4788C26.1859 22.4854 26.18 22.5083 26.1748 22.5311C26.1586 22.5393 26.1444 22.5508 26.1331 22.5649C26.1218 22.579 26.1136 22.5954 26.1092 22.613C26.0908 22.6366 26.0443 22.6587 26.0812 22.6904C26.0967 22.7029 26.1225 22.6624 26.1291 22.6336C26.1444 22.6229 26.1573 22.6092 26.1672 22.5934C26.1771 22.5775 26.1837 22.5599 26.1866 22.5415C26.1926 22.5394 26.1982 22.5362 26.2029 22.5319C26.2076 22.5276 26.2114 22.5224 26.2141 22.5166C26.2167 22.5108 26.2181 22.5045 26.2182 22.4981C26.2183 22.4918 26.2171 22.4854 26.2146 22.4795C26.233 22.4795 26.2441 22.4744 26.2279 22.4545L26.2139 22.4788ZM20.8777 19.9276L20.8482 19.988L20.818 20.0477C20.7988 20.0661 20.7848 20.0853 20.8069 20.1104L20.8401 20.0676L20.8688 20.0072L20.8983 19.9467C20.9101 19.9335 20.9212 19.9202 20.9028 19.9047C20.8938 19.9117 20.8855 19.9193 20.8777 19.9276ZM21.5743 16.3156C21.5979 16.3156 21.6104 16.2927 21.5971 16.278C21.5839 16.2632 21.5706 16.2883 21.5588 16.2971L21.5286 16.3274C20.8924 17.0645 20.2231 17.7758 19.797 18.6729C19.3474 19.615 18.7923 21.1313 18.8247 21.4063C18.8314 21.4018 18.8417 21.3989 18.8446 21.3923C18.8572 21.3598 18.8682 21.3274 18.8793 21.2942C19.3061 20.0411 19.8309 18.8373 20.5467 17.7206C20.8534 17.2429 21.2042 16.7977 21.5463 16.345C21.5503 16.3451 21.5543 16.3443 21.5579 16.3426C21.5616 16.341 21.5649 16.3386 21.5675 16.3356C21.5702 16.3326 21.5721 16.329 21.5733 16.3252C21.5745 16.3214 21.5748 16.3173 21.5743 16.3134V16.3156ZM30.1672 33.7917C30.1745 33.8028 30.1509 33.8308 30.1863 33.8271L30.1649 33.7932C30.1605 33.7704 30.1598 33.746 30.1347 33.7342C30.1288 33.7305 30.1347 33.7025 30.1163 33.7224L30.1369 33.732C30.1341 33.7439 30.1355 33.7565 30.1411 33.7674C30.1466 33.7784 30.1558 33.787 30.1672 33.7917ZM29.6563 39.1198L29.702 39.1087L29.6571 39.1205L29.6563 39.1198ZM15.1346 35.1083C15.2077 35.0362 15.2493 34.9382 15.2503 34.8355C15.1863 34.914 15.1469 35.0097 15.1368 35.1105L15.1184 35.1304L15.1309 35.1363L15.1346 35.1083ZM14.6002 36.6975C14.543 36.8072 14.5136 36.9292 14.5147 37.0528L14.5567 37.0587C14.5759 36.9445 14.5958 36.8295 14.6149 36.7145L14.7778 36.0629C14.6874 36.2643 14.628 36.4783 14.6017 36.6975H14.6002ZM27.3085 19.7204C27.5105 19.6305 27.5997 19.4182 27.7788 19.3039C27.5927 19.4039 27.4335 19.5476 27.3152 19.7226L27.2997 19.7573C27.307 19.7573 27.3174 19.7573 27.3211 19.7573C27.3365 19.7389 27.3343 19.7248 27.3085 19.7204ZM15.6772 34.063L16.2514 33.2286C15.9897 33.4549 15.8342 33.7541 15.6676 34.0468C15.6258 34.0884 15.602 34.1448 15.6012 34.2038C15.6379 34.164 15.664 34.1155 15.6772 34.063ZM28.0177 39.4014C27.3056 39.5954 26.5816 39.7432 25.8505 39.8437C26.5876 39.8031 27.2938 39.6277 28.0029 39.4456C28.1368 39.4231 28.266 39.378 28.3847 39.3122C28.2582 39.321 28.1341 39.3512 28.0177 39.4014ZM24.4794 40.2793C24.5243 40.2793 24.5686 40.286 24.6135 40.2852C25.0411 40.2749 25.4664 40.2299 25.8903 40.1783C26.2109 40.1385 26.5308 40.0899 26.8485 40.0449C26.679 40.0309 26.5117 39.9918 26.3443 40.0257C25.7298 40.1454 25.1084 40.2268 24.4838 40.2697C24.242 40.2439 24.0046 40.3066 23.7636 40.3051C23.886 40.3184 24.0092 40.3219 24.1322 40.3154C24.2516 40.3081 24.3732 40.3619 24.4801 40.2793H24.4794ZM22.9019 39.7847C23.5557 39.7847 24.0076 39.7803 24.4499 39.7567C25.7154 39.703 26.971 39.5091 28.1938 39.1788C29.1285 38.9178 30.0242 38.5647 30.8424 38.031C30.8965 38.0015 30.9417 37.9581 30.9733 37.9052C31.005 37.8523 31.0219 37.7919 31.0222 37.7303C31.0305 37.621 31.028 37.5111 31.0149 37.4023C30.8969 36.7351 30.7937 36.0599 30.5556 35.4252C30.0088 33.9304 29.2195 32.5357 28.2196 31.2972C27.8614 30.855 27.4825 30.4289 27.1714 29.9542C26.2765 28.6074 25.8763 27.111 25.8512 25.5055C25.8512 25.3942 25.8512 25.3537 25.7215 25.4148C24.5682 25.988 23.2521 26.1443 21.9967 25.8571C21.9075 25.8372 21.878 25.8439 21.864 25.9412C21.7306 26.8567 21.3782 27.6838 20.919 28.485C20.3843 29.4384 19.6961 30.2971 18.8822 31.0267C17.9131 31.8801 17.0127 32.8086 16.1895 33.8035C15.6735 34.4286 15.3513 35.151 15.0624 35.8896C14.9559 36.1725 14.8817 36.4665 14.8412 36.7661C14.7941 37.0882 14.7535 37.4104 14.71 37.7332C14.7012 37.7711 14.707 37.8109 14.7262 37.8447C14.7455 37.8784 14.7769 37.9037 14.814 37.9153C15.2715 38.1572 15.7437 38.3704 16.2278 38.5537C18.4459 39.3933 20.748 39.7508 22.9026 39.7847H22.9019ZM26.6045 27.3344C26.6274 27.4081 26.6488 27.4818 26.6672 27.5474C26.7868 27.9856 26.9912 28.396 27.2687 28.7556C27.6233 29.22 28.0427 29.6291 28.3877 30.0994C28.6582 30.468 28.9037 30.8586 29.186 31.2184C29.7054 31.8746 30.1626 32.5777 30.5519 33.3185C30.8593 33.9082 31.0635 34.534 31.2891 35.1812C31.2943 35.1553 31.2973 35.1289 31.2979 35.1024C31.2957 35.0773 31.2907 35.0526 31.2832 35.0287C31.0352 34.2145 30.7052 33.4276 30.2984 32.6801C29.6865 31.5788 28.9177 30.5815 28.1068 29.6239C27.526 28.9384 26.9724 28.2499 26.6738 27.3897C26.6702 27.3668 26.6687 27.3277 26.6053 27.3344H26.6045ZM19.4469 21.6429C19.7686 20.7045 20.163 19.7926 20.6263 18.9155C21.1033 18.0309 21.6583 17.2001 22.3822 16.4718C22.2989 16.46 22.2746 16.2957 22.1611 16.4431C21.6229 17.1544 21.0775 17.8599 20.6344 18.6368C20.0896 19.5733 19.6895 20.5868 19.4476 21.6429H19.4469ZM20.5474 16.4151C19.5553 17.6115 18.3213 20.2047 18.4628 20.7701C18.5078 20.7487 18.4997 20.7016 18.5107 20.6676C18.953 19.2671 19.5501 17.9402 20.4037 16.732C20.4751 16.6386 20.5245 16.5303 20.5482 16.4151H20.5474ZM19.7469 16.5994C19.4484 16.7534 19.3422 17.0343 19.1955 17.2628C18.7739 17.9107 18.4414 18.6073 18.2756 19.3718C18.2682 19.4049 18.2159 19.4455 18.2874 19.4602C18.3169 19.4654 18.3176 19.4152 18.3272 19.3902C18.6891 18.4149 19.1262 17.481 19.7476 16.5994H19.7469ZM20.5578 22.6292C21.0576 21.7026 21.4689 20.7288 21.9797 19.8052C21.819 20.0337 21.6694 20.2674 21.5286 20.507C21.1342 21.18 20.7634 21.8633 20.5578 22.6292ZM30.9014 35.6847C31.0104 36.3061 31.1512 36.9224 31.1962 37.5622C31.4232 37.1229 31.2478 36.04 30.9014 35.6847ZM23.5675 21.5802C23.2867 22.0653 23.0456 22.5481 22.8134 23.0368C22.8694 23.0589 22.8672 23.0088 22.8768 22.9904C23.0891 22.5864 23.3139 22.1894 23.5513 21.7992C23.5685 21.7656 23.5788 21.729 23.5816 21.6913C23.5844 21.6537 23.5796 21.616 23.5675 21.5802ZM22.812 21.247C23.0331 20.8998 23.3825 20.6264 23.4533 20.148C23.218 20.5014 23.0039 20.8684 22.812 21.247ZM21.4283 25.709C21.4393 25.9853 21.4191 26.262 21.3679 26.5338C21.4416 26.4999 21.4416 26.4446 21.4475 26.4019C21.4844 26.2169 21.5094 26.0296 21.5529 25.8461C21.5824 25.7333 21.5374 25.7038 21.4305 25.709H21.4283ZM21.8515 23.2764L21.8846 23.2978C22.0321 23.0113 22.1807 22.7245 22.3306 22.4375C22.0638 22.6579 21.9687 22.972 21.8537 23.2757L21.8515 23.2764ZM23.7747 23.2454C23.611 23.5455 23.4684 23.8566 23.3479 24.1764C23.5388 23.8904 23.7216 23.5956 23.7769 23.2447L23.7747 23.2454ZM22.6033 20.2784C22.3999 20.462 22.2119 20.8225 22.1869 21.0502L22.6033 20.2784ZM24.1196 39.9896V40.0339C24.4182 40.042 24.7167 40.0567 24.988 39.9845L24.1196 39.9896ZM26.9945 39.9071C27.2657 39.8972 27.5347 39.8533 27.795 39.7766L27.7877 39.7397L26.9945 39.9071ZM15.2843 34.8127L15.557 34.2819C15.4297 34.4376 15.3367 34.6185 15.2843 34.8127ZM21.1276 23.1938C21.219 23.0995 21.2345 22.9535 21.2632 22.8113C21.1984 22.931 21.1527 23.06 21.1276 23.1938ZM26.6893 22.6742C26.7967 22.5909 26.869 22.4704 26.892 22.3365L26.6893 22.6742ZM14.6481 37.6485C14.6311 37.473 14.7019 37.302 14.6805 37.1258C14.6242 37.2942 14.613 37.4744 14.6481 37.6485ZM25.3964 39.8931H25.6912C25.5873 39.7854 25.4878 39.9019 25.3964 39.8931ZM26.5935 26.3812C26.6028 26.28 26.5848 26.1782 26.5412 26.0864C26.5198 26.1807 26.567 26.2626 26.5935 26.3812ZM29.0039 39.3852C29.044 39.3895 29.0845 39.3835 29.1216 39.3679C29.1587 39.3523 29.1913 39.3276 29.2162 39.296L29.0039 39.3852ZM21.1423 19.4307C21.0906 19.4913 21.056 19.5646 21.0421 19.643C21.0736 19.6174 21.099 19.585 21.1164 19.5483C21.1337 19.5115 21.1426 19.4714 21.1423 19.4307ZM20.6742 20.3698C20.6294 20.4164 20.6032 20.4778 20.6005 20.5423C20.6247 20.5207 20.6438 20.4941 20.6566 20.4643C20.6693 20.4345 20.6753 20.4022 20.6742 20.3698ZM28.0575 39.694C27.9774 39.6848 27.8963 39.7002 27.8253 39.7383C27.9093 39.7692 27.9719 39.739 28.0575 39.694ZM28.1894 39.6513C28.2572 39.6653 28.2948 39.6513 28.325 39.6129C28.2749 39.5916 28.2403 39.6218 28.1931 39.6513H28.1894ZM20.5401 20.6868C20.5473 20.6801 20.5535 20.6724 20.5585 20.664C20.5651 20.6463 20.599 20.6146 20.5548 20.6146C20.5268 20.6146 20.5216 20.6559 20.5401 20.6868ZM29.5398 39.1795C29.4816 39.1906 29.4492 39.1891 29.4352 39.2289C29.4713 39.2451 29.4934 39.223 29.5398 39.1795ZM29.3755 39.2532C29.3574 39.2471 29.3378 39.2477 29.3202 39.2547C29.3025 39.2617 29.2879 39.2748 29.2789 39.2915C29.2966 39.2982 29.3162 39.2978 29.3337 39.2904C29.3511 39.283 29.365 39.2691 29.3725 39.2517L29.3755 39.2532ZM26.309 22.3682L26.2994 22.3446C26.286 22.3561 26.2739 22.369 26.2633 22.383C26.2559 22.394 26.2559 22.4139 26.275 22.4066C26.2942 22.3992 26.2986 22.3786 26.309 22.3668V22.3682ZM15.3572 38.3812C15.3867 38.4136 15.4088 38.4483 15.4516 38.4129C15.4402 38.3996 15.4254 38.3896 15.4088 38.384C15.3922 38.3785 15.3744 38.3775 15.3572 38.3812ZM20.7804 20.1413C20.7612 20.1708 20.7258 20.187 20.7524 20.2335C20.7789 20.2099 20.8032 20.1885 20.7804 20.1413ZM20.989 19.7499C20.997 19.748 21.0044 19.7443 21.0106 19.739C21.0169 19.7337 21.0219 19.7271 21.0251 19.7196C21.0284 19.7121 21.0299 19.704 21.0295 19.6958C21.0292 19.6876 21.0269 19.6797 21.0229 19.6725C20.9919 19.6887 20.9691 19.7101 20.989 19.7499ZM25.7856 23.0833C25.778 23.0957 25.7716 23.1088 25.7664 23.1223C25.7664 23.1282 25.7664 23.1577 25.7907 23.14C25.8043 23.1274 25.8147 23.1118 25.821 23.0943C25.8232 23.0899 25.8202 23.0626 25.7856 23.0833ZM25.7222 23.2476C25.7365 23.2307 25.7489 23.2121 25.759 23.1924C25.759 23.1857 25.7495 23.1732 25.7436 23.1636C25.73 23.1758 25.7181 23.1896 25.7082 23.2049C25.7045 23.2115 25.7141 23.227 25.7222 23.2476ZM25.6831 23.2476C25.6759 23.2586 25.6701 23.2705 25.6662 23.283C25.6662 23.283 25.6853 23.2963 25.6861 23.2956C25.6945 23.2858 25.7014 23.2749 25.7067 23.2631C25.7006 23.2574 25.6939 23.2522 25.6868 23.2476H25.6831ZM14.7034 37.0772C14.7106 37.0621 14.7136 37.0454 14.712 37.0288C14.7105 37.0122 14.7044 36.9963 14.6945 36.9828C14.6945 37.0182 14.6798 37.044 14.7034 37.0772ZM22.7972 21.2905L22.7795 21.2787C22.7795 21.2824 22.7729 21.2868 22.7736 21.2898C22.7744 21.2927 22.7803 21.3023 22.7832 21.309L22.7972 21.2905ZM26.0554 22.7029C26.0435 22.7121 26.0327 22.7225 26.0229 22.7339C26.0229 22.739 26.0229 22.7493 26.0281 22.7574C26.0392 22.7574 26.0554 22.753 26.0598 22.7457C26.0642 22.7383 26.0554 22.7221 26.0554 22.7029ZM25.8637 23.0398C25.8733 23.0162 25.8637 23.0059 25.849 23.0066C25.8342 23.0073 25.8283 23.0147 25.8276 23.0206C25.8286 23.033 25.8313 23.0451 25.8357 23.0567L25.8637 23.0398ZM28.0751 39.6741C28.08 39.679 28.0857 39.6829 28.092 39.6856C28.0983 39.6882 28.1051 39.6896 28.112 39.6896C28.1189 39.6896 28.1257 39.6882 28.132 39.6856C28.1383 39.6829 28.1441 39.679 28.1489 39.6741C28.1275 39.6476 28.1024 39.6542 28.0766 39.6741H28.0751ZM26.6856 22.7309L26.6775 22.7081L26.6532 22.7206C26.6392 22.7265 26.6385 22.7331 26.6532 22.7398C26.6679 22.7464 26.6783 22.7508 26.6856 22.7309ZM20.7303 20.2784L20.7207 20.2666C20.7207 20.2666 20.7118 20.2733 20.7118 20.277C20.7118 20.2807 20.717 20.2843 20.7199 20.288L20.7303 20.2784ZM20.9359 19.8531C20.9359 19.8531 20.93 19.8479 20.9278 19.8487C20.9256 19.8494 20.9219 19.8546 20.919 19.8575L20.9359 19.8627V19.8531ZM20.9698 19.7993L20.9602 19.7875C20.9602 19.7875 20.9507 19.7941 20.9507 19.7978C20.9507 19.8015 20.9558 19.8052 20.9588 19.8089L20.9698 19.7993ZM30.0588 33.6045L30.064 33.5957H30.0558L30.0588 33.6045ZM30.0905 33.6502L30.0861 33.6583H30.0927L30.0905 33.6502ZM15.0041 38.2124L15.0093 38.2065H14.9982L15.0041 38.2124ZM15.1221 38.2765L15.1331 38.2684C15.1331 38.2684 15.1272 38.2603 15.1236 38.2603C15.1199 38.2603 15.1169 38.2647 15.1132 38.2669L15.1221 38.2765ZM15.1914 38.2979C15.1914 38.2979 15.1862 38.2898 15.1825 38.2898C15.1788 38.2898 15.1759 38.2942 15.1729 38.2964C15.17 38.2986 15.1781 38.3045 15.1818 38.3045C15.1855 38.3045 15.1884 38.3001 15.1914 38.2979ZM15.2518 38.3281C15.2518 38.3281 15.2459 38.3193 15.243 38.3193C15.24 38.3193 15.2356 38.3237 15.2319 38.3266C15.2282 38.3296 15.2386 38.3347 15.2415 38.3347C15.2444 38.3347 15.2489 38.3303 15.2518 38.3281ZM15.3019 38.3635L15.3086 38.3554H15.2975L15.3019 38.3635ZM29.5811 39.1603L29.576 39.167H29.5848L29.5811 39.1603ZM20.7008 20.3396L20.6919 20.3286C20.6919 20.3286 20.6831 20.3352 20.6831 20.3381C20.6831 20.3411 20.6875 20.3455 20.6905 20.3492L20.7008 20.3396ZM15.5747 34.237L15.5857 34.2274C15.5802 34.2232 15.5739 34.2199 15.5673 34.2178C15.5673 34.2178 15.5614 34.2237 15.5585 34.2266L15.5747 34.237ZM15.0587 38.2367L15.069 38.2426V38.2338L15.0587 38.2367Z" fill="#181818"/>
<path d="M28.8868 27.1641C28.8868 27.296 28.8175 27.3484 28.7017 27.3167C28.6062 27.2883 28.5164 27.2434 28.4364 27.184C27.9089 26.8233 27.4703 26.3474 27.1537 25.7923C27.0955 25.6876 27.0292 25.5866 27.139 25.4532C27.2297 25.3433 27.3019 25.3433 27.4029 25.4097C27.5616 25.5219 27.7059 25.6531 27.8327 25.8004C28.1607 26.1608 28.4688 26.5375 28.7666 26.9238C28.8278 26.9915 28.8693 27.0746 28.8868 27.1641ZM28.4445 26.8906C28.4541 26.898 28.4703 26.9135 28.4718 26.912C28.4894 26.895 28.4806 26.8825 28.4607 26.8744C28.4512 26.8198 28.427 26.7688 28.3907 26.727C28.1296 26.3511 27.8089 26.0205 27.4412 25.748C27.4287 25.7385 27.4147 25.7377 27.4007 25.7606C27.6872 26.1906 28.0406 26.5721 28.4474 26.8906H28.4445Z" fill="#181818"/>
<path d="M17.3416 17.2679C17.3615 17.3807 17.2988 17.4154 17.2037 17.4043C17.1343 17.398 17.0661 17.3821 17.001 17.3571C15.453 16.7033 13.8785 16.1106 12.4197 15.2637C12.2119 15.1548 12.0145 15.0273 11.83 14.8826C11.7622 14.8243 11.6722 14.7609 11.7275 14.6614C11.7828 14.5619 11.8749 14.5479 11.9877 14.5626C12.5561 14.6364 13.0868 14.8346 13.6094 15.0558C14.6127 15.4811 15.5776 15.9853 16.5381 16.4976C16.8166 16.6433 17.0648 16.8407 17.2694 17.0792C17.2951 17.103 17.315 17.1324 17.3275 17.1651C17.3401 17.1979 17.3449 17.2331 17.3416 17.2679ZM14.5331 15.6602C14.5397 15.6838 14.5596 15.6868 14.5788 15.6868C14.5832 15.6868 14.5876 15.675 14.5928 15.6691L14.539 15.6543C14.5323 15.6263 14.5117 15.6204 14.4874 15.6241C14.4874 15.6241 14.4807 15.6433 14.4815 15.644C14.4984 15.6507 14.5154 15.6551 14.5331 15.6602ZM16.1548 16.7343C16.1666 16.7623 16.185 16.7674 16.2101 16.7505L16.1703 16.7158C16.085 16.6475 15.9953 16.5847 15.902 16.5279C14.9857 16.0391 14.0665 15.5563 13.0794 15.2194C13.0411 15.2062 13.0057 15.1877 12.9644 15.2194C13.0382 15.2533 13.1119 15.285 13.1812 15.3197C13.8512 15.6462 14.5176 15.9831 15.1921 16.2986C15.5083 16.4519 15.8157 16.6281 16.1533 16.7343H16.1548ZM12.1742 14.7595C12.2182 14.811 12.2723 14.853 12.3331 14.8828C12.394 14.9126 12.4604 14.9296 12.5281 14.9327C12.6274 14.9405 12.7251 14.9621 12.8185 14.9968C13.2925 15.1612 13.7701 15.3167 14.2191 15.5357C14.2928 15.571 14.3665 15.602 14.4402 15.6352L14.4557 15.5946C13.7185 15.2511 12.9725 14.9253 12.1698 14.7595H12.1742ZM14.9577 15.8652L14.9827 15.8519C14.9746 15.8467 14.9665 15.8386 14.9584 15.8379C14.9503 15.8372 14.9422 15.8453 14.9341 15.8497L14.9577 15.8652ZM14.654 15.7229C14.6657 15.7322 14.6783 15.7404 14.6916 15.7472C14.6957 15.7475 14.6998 15.7469 14.7036 15.7453C14.7075 15.7438 14.7109 15.7414 14.7137 15.7384C14.7292 15.72 14.7063 15.7155 14.6989 15.7133C14.6916 15.7111 14.6717 15.7163 14.6495 15.7214L14.654 15.7229ZM14.8876 15.8069C14.8876 15.8069 14.8788 15.8136 14.8788 15.8158C14.8811 15.822 14.8841 15.8279 14.8876 15.8335C14.8876 15.8335 14.8965 15.8268 14.8965 15.8246C14.8932 15.8175 14.8887 15.811 14.8832 15.8055L14.8876 15.8069ZM14.8412 15.7915C14.8412 15.7915 14.8346 15.7826 14.8324 15.7833C14.8259 15.785 14.8197 15.7875 14.8139 15.7907C14.8139 15.7907 14.8206 15.7996 14.8228 15.7988C14.8279 15.7966 14.8326 15.7936 14.8368 15.79L14.8412 15.7915ZM14.7822 15.7612C14.7822 15.7612 14.7756 15.7524 14.7726 15.7531C14.7659 15.7549 14.7595 15.7576 14.7535 15.7612C14.7535 15.7612 14.7601 15.7701 14.7631 15.7701C14.768 15.767 14.7727 15.7636 14.7771 15.7598L14.7822 15.7612Z" fill="#181818"/>
<path d="M30.5659 18.7629C31.6173 18.3558 32.7027 18.0427 33.8093 17.8274C32.7891 18.356 31.6709 18.538 30.5659 18.7629Z" fill="#F8F2EA"/>
<path d="M11.1319 25.9544C11.0213 25.9544 10.9167 25.9544 10.8614 25.852C10.8341 25.7983 10.8229 25.7379 10.829 25.6781C10.8352 25.6182 10.8584 25.5614 10.896 25.5144C11.0877 25.2254 11.3582 25.0256 11.6435 24.8399C12.6688 24.1632 13.7406 23.5597 14.8508 23.0339C15.2526 22.8362 15.6817 22.6995 16.1238 22.6284C16.3509 22.596 16.5757 22.6638 16.6317 22.7943C16.6826 22.9122 16.5853 23.0987 16.3951 23.241C16.1784 23.4032 15.9285 23.5056 15.6911 23.631C14.6975 24.1565 13.7185 24.7101 12.7374 25.2578C12.3395 25.4934 11.926 25.7016 11.4997 25.8807C11.3842 25.9324 11.2585 25.9576 11.1319 25.9544ZM11.3051 25.3514C11.3051 25.3456 11.3361 25.3514 11.3147 25.3323C11.3147 25.3397 11.3096 25.347 11.3074 25.3537H11.2823L11.2919 25.3691L11.3051 25.3514ZM11.2145 25.4104C11.1853 25.4253 11.1614 25.4487 11.146 25.4776C11.1306 25.5064 11.1244 25.5394 11.1282 25.5719C11.1761 25.5085 11.2137 25.4753 11.2241 25.4244L11.241 25.3986L11.2145 25.4104ZM12.3445 25.0595C13.6747 24.5028 14.9415 23.8052 16.1231 22.9786C16.0934 22.9663 16.0614 22.9604 16.0293 22.9613C15.9972 22.9622 15.9656 22.9699 15.9366 22.9837C15.4679 23.1194 15.0144 23.3029 14.5832 23.5314C13.9471 23.8823 13.2932 24.2045 12.7153 24.6519C12.5634 24.7591 12.4368 24.8982 12.3445 25.0595ZM11.7084 25.3743C11.6346 25.4443 11.5521 25.504 11.5263 25.605C11.5219 25.6205 11.5536 25.6345 11.572 25.6227C11.6152 25.5978 11.6507 25.5614 11.6745 25.5175C11.6983 25.4737 11.7095 25.4241 11.7069 25.3743H11.7084ZM12.2981 25.1694C12.217 25.1473 12.2494 25.0868 12.2045 25.0551C12.1632 25.0986 12.1005 25.1207 12.0939 25.1944C12.1624 25.2068 12.2331 25.198 12.2966 25.1694H12.2981Z" fill="#181818"/>
<path d="M27.7132 14.6423C27.6724 14.6421 27.6322 14.6327 27.5957 14.6146C27.5592 14.5965 27.5273 14.5704 27.5024 14.538C27.4776 14.5057 27.4605 14.4682 27.4524 14.4282C27.4444 14.3883 27.4455 14.347 27.4559 14.3076C27.5525 13.9626 27.739 13.6596 27.9277 13.3626C28.5395 12.3962 29.3032 11.5566 30.1266 10.7678C30.288 10.6184 30.4788 10.5041 30.6868 10.4324C30.7605 10.4052 30.849 10.3816 30.9131 10.4442C30.9772 10.5069 30.9404 10.585 30.919 10.6565C30.8682 10.8021 30.7935 10.9381 30.6979 11.059C29.8958 12.1831 29.0179 13.2491 28.1665 14.3349C28.1064 14.4083 28.0403 14.4765 27.969 14.5391C27.9361 14.5734 27.8963 14.6004 27.8522 14.6182C27.8081 14.636 27.7607 14.6442 27.7132 14.6423ZM27.6807 14.4535C27.9638 14.3142 30.5637 11.0303 30.6389 10.7199C30.57 10.7493 30.508 10.7927 30.4568 10.8474C29.7179 11.5376 29.0393 12.2895 28.4282 13.095C28.1798 13.4179 27.9122 13.7311 27.753 14.1115C27.7073 14.2191 27.6535 14.326 27.6807 14.455V14.4535Z" fill="#181818"/>
<path d="M29.7558 23.7939C29.8901 23.8044 30.0223 23.8334 30.1487 23.8801C30.7224 24.0635 31.2715 24.3165 31.7837 24.6335C32.2142 24.9011 32.6719 25.1252 33.0855 25.4207C33.2022 25.5055 33.3141 25.5965 33.4209 25.6935C33.4909 25.7561 33.5683 25.835 33.5034 25.9375C33.4386 26.0399 33.3457 26.0282 33.2418 25.9957C32.8871 25.8788 32.5435 25.7308 32.2149 25.5534C31.3502 25.1045 30.4885 24.649 29.6622 24.1308C29.6585 24.1308 29.6533 24.1263 29.6497 24.1234C29.5818 24.0637 29.4543 24.0283 29.4912 23.917C29.528 23.8057 29.646 23.7917 29.7558 23.7939ZM31.062 24.3961C31.0738 24.4249 31.0981 24.4263 31.1239 24.4241C31.1284 24.4355 31.1369 24.4448 31.1477 24.4504C31.1586 24.4559 31.1711 24.4574 31.1829 24.4544C31.191 24.4897 31.2176 24.4861 31.2441 24.4831C31.2441 24.5045 31.2559 24.5111 31.2736 24.5133C31.2846 24.5413 31.309 24.5428 31.3333 24.5435C31.3429 24.5745 31.3672 24.576 31.393 24.573C31.4026 24.604 31.4277 24.6055 31.4535 24.6025L31.4675 24.618C31.4675 24.618 31.4675 24.6106 31.4675 24.6092C31.4632 24.6073 31.4587 24.6058 31.4542 24.6047C31.4431 24.5767 31.4195 24.5752 31.3945 24.5752C31.3871 24.5399 31.362 24.5406 31.3348 24.5458C31.3274 24.5111 31.3023 24.5111 31.2751 24.5155C31.2751 24.4927 31.2633 24.4875 31.2448 24.4853C31.2353 24.4566 31.2124 24.4514 31.1859 24.4544C31.1748 24.4263 31.152 24.4227 31.1254 24.4249C31.121 24.3902 31.0937 24.3932 31.0687 24.3917C31.0586 24.3837 31.048 24.3763 31.037 24.3696C31.0326 24.3744 31.0286 24.3796 31.0252 24.3851L31.062 24.3961ZM32.8113 25.6117C32.8194 25.6117 32.8282 25.605 32.8356 25.6072C32.843 25.6095 32.8577 25.6072 32.8474 25.5991C32.8371 25.591 32.8231 25.6065 32.8098 25.6117C32.8466 25.5674 32.8098 25.5615 32.7796 25.5497L32.7272 25.5144C31.9422 25.0551 31.2021 24.5126 30.33 24.2133C30.3305 24.2213 30.333 24.2291 30.3371 24.2361C30.3412 24.243 30.3468 24.2488 30.3536 24.2531C31.0254 24.6296 31.6974 25.0055 32.3697 25.3809C32.4747 25.4468 32.5877 25.499 32.7059 25.5365C32.7184 25.5645 32.742 25.5667 32.7678 25.5638L32.8113 25.6117ZM31.6016 24.6947C31.6005 24.6911 31.599 24.6876 31.5972 24.6843C31.5972 24.6843 31.592 24.6843 31.5891 24.6843L31.6031 24.6954C31.6094 24.7017 31.616 24.7076 31.623 24.7131C31.623 24.7131 31.6296 24.7131 31.6333 24.7131L31.6016 24.6947ZM31.5198 24.649L31.5294 24.6541V24.646L31.5198 24.649Z" fill="#181818"/>
<path d="M21.0782 14.2958C21.0782 14.4204 21.0045 14.4639 20.8946 14.3916C20.7623 14.3016 20.6491 14.1864 20.5614 14.0525C20.204 13.5072 19.9009 12.9283 19.6562 12.3239C19.2965 11.4725 18.9441 10.6167 18.7164 9.7174C18.6825 9.58324 18.6345 9.4476 18.7333 9.31713C18.8321 9.18665 18.9272 9.17412 19.0326 9.30902C19.2287 9.5626 19.3614 9.85303 19.4992 10.1405C19.9091 10.9986 20.1988 11.9045 20.5548 12.7839C20.717 13.1849 20.8858 13.5837 21.0236 13.9936C21.0519 14.0922 21.0702 14.1935 21.0782 14.2958ZM19.0989 10.1059C19.0923 10.0926 19.0908 10.0646 19.0695 10.0779C19.0481 10.0911 19.0584 10.1125 19.0827 10.1206C19.0894 10.1545 19.093 10.1892 19.1026 10.2223C19.3739 11.1357 19.7963 11.9878 20.1818 12.8547C20.3005 13.1284 20.4387 13.3932 20.5953 13.6471C20.627 13.6987 20.6528 13.7606 20.7383 13.7584C20.7435 13.6508 20.689 13.5697 20.6521 13.4849C20.3572 12.8112 20.0771 12.1323 19.8022 11.4497C19.622 10.9754 19.386 10.5242 19.0989 10.1059Z" fill="#181818"/>
<path d="M26.0104 11.0833C25.9185 11.9536 25.6771 12.8014 25.2969 13.5896C25.2658 13.6519 25.2285 13.7109 25.1856 13.7658C25.1443 13.8218 25.0942 13.8845 25.0175 13.8668C24.9796 13.854 24.9459 13.8312 24.92 13.8009C24.894 13.7705 24.8768 13.7337 24.8701 13.6943C24.8155 13.5107 24.8517 13.3257 24.8782 13.1458C24.9814 12.4397 25.1944 11.7615 25.4141 11.0855C25.4589 10.9263 25.5547 10.7862 25.6868 10.6867C25.8416 10.5769 25.9183 10.6034 25.9817 10.7833C26.0097 10.8807 26.0195 10.9824 26.0104 11.0833ZM25.1045 13.423C25.4163 12.5996 25.6802 11.7652 25.7502 10.8821C25.3814 11.6824 25.1625 12.5437 25.1045 13.423Z" fill="#181818"/>
<path d="M32.473 21.7527C32.0307 21.7984 31.5884 21.7173 31.1498 21.6893C31.5943 21.6399 32.0314 21.7446 32.473 21.7527Z" fill="#F8F2EA"/>
<path d="M30.9264 21.525C31.2083 21.4749 31.498 21.491 31.7726 21.5721C31.491 21.5441 31.208 21.564 30.9264 21.525Z" fill="#666666"/>
<path d="M18.3383 15.8364C17.8422 15.5325 17.3913 15.1603 16.9989 14.7307C16.9754 14.7083 16.9568 14.6812 16.9441 14.6513C16.9314 14.6214 16.925 14.5892 16.9252 14.5567C17.5031 14.8774 17.9469 15.3263 18.356 15.8165L18.3383 15.8364Z" fill="#F8F2EA"/>
<path d="M18.3573 15.8202C18.3642 15.8324 18.3924 15.8416 18.3649 15.8591C18.3649 15.8591 18.3474 15.8446 18.3383 15.837L18.3573 15.8202Z" fill="#F8F2EA"/>
<path d="M29.876 16.0767C30.1826 15.6278 30.6035 15.3219 31.1291 15.0801C30.9846 15.3248 30.1745 15.9735 29.876 16.0767Z" fill="#F8F2EA"/>
<path d="M31.225 15.1575C31.2714 15.044 31.2073 15.0034 31.1078 14.985C31.1174 14.9769 31.1225 14.9688 31.1299 14.9673C31.2228 14.9415 31.351 14.8619 31.4012 14.9541C31.4402 15.0233 31.323 15.117 31.2471 15.1796L31.225 15.1575Z" fill="#F8F2EA"/>
<path d="M31.2485 15.1802C31.2402 15.2074 31.219 15.224 31.1986 15.2036C31.1782 15.1832 31.2168 15.1734 31.2258 15.1575L31.2485 15.1802Z" fill="#F8F2EA"/>
<path d="M23.0161 13.6781C22.896 13.5255 22.8451 13.3419 22.795 13.1621C22.6476 12.6461 22.4965 12.1374 22.5001 11.5971C22.4962 11.5124 22.5077 11.4278 22.534 11.3472C22.5415 11.318 22.5566 11.2914 22.5777 11.2699C22.5988 11.2484 22.6252 11.2329 22.6542 11.2249C22.7279 11.2094 22.7633 11.2728 22.792 11.3199C22.8951 11.5081 22.9633 11.7134 22.9933 11.9259C23.0795 12.4058 23.2063 12.879 23.2491 13.3662C23.2542 13.4257 23.2528 13.4855 23.2447 13.5446C23.2218 13.7105 23.1783 13.7341 23.0169 13.6766L23.0161 13.6781ZM22.7213 11.6082C22.7213 12.2244 22.8857 12.8082 23.0795 13.3869C23.0429 12.7801 22.9218 12.1815 22.7198 11.6082H22.7213Z" fill="#181818"/>
<path d="M16.4564 20.0831C16.4623 20.1155 16.4888 20.1141 16.5131 20.1163C16.5175 20.148 16.5456 20.1465 16.5669 20.1531C16.7343 20.2652 16.6642 20.4753 16.5065 20.5438C16.3487 20.6124 16.1939 20.5991 16.0362 20.5998C15.5202 20.5998 15.0189 20.4782 14.5133 20.3956C14.3961 20.3772 14.2737 20.3794 14.169 20.3116C14.1005 20.2666 14.0356 20.2202 14.0466 20.1236C14.0494 20.0785 14.0653 20.0352 14.0922 19.999C14.1192 19.9627 14.1561 19.9351 14.1985 19.9195C14.3589 19.8641 14.5291 19.8422 14.6983 19.8553C15.29 19.8773 15.8785 19.9535 16.4564 20.0831ZM14.3924 20.1325C14.7292 20.3264 16.0915 20.4126 16.2802 20.2504C15.6571 20.1489 15.0255 20.1089 14.3946 20.131L14.3924 20.1325ZM15.616 20.4561C15.8 20.5091 15.9935 20.5197 16.1821 20.4871C15.9955 20.4599 15.8068 20.4496 15.6182 20.4561H15.616Z" fill="#181818"/>
<path d="M17.447 25.0876C17.208 25.4084 16.9053 25.6764 16.558 25.8748L16.5381 25.8549C16.7718 25.521 17.0991 25.2917 17.4278 25.0654C17.4336 25.0733 17.44 25.0807 17.447 25.0876Z" fill="#F8F2EA"/>
<path d="M17.4308 25.0664C17.4457 25.0562 17.4614 25.0381 17.4771 25.0664C17.4771 25.0664 17.4606 25.0837 17.4512 25.0923C17.4437 25.0842 17.4369 25.0756 17.4308 25.0664Z" fill="#F8F2EA"/>
<path d="M16.5594 25.8755C16.5472 25.8793 16.5266 25.8885 16.5235 25.8847C16.5113 25.8694 16.5235 25.8603 16.5388 25.8549L16.5594 25.8755Z" fill="#F8F2EA"/>
<path d="M22.9027 39.7847C20.748 39.7508 18.4459 39.3933 16.2308 38.55C15.7467 38.3667 15.2745 38.1535 14.817 37.9116C14.7799 37.9 14.7485 37.8748 14.7292 37.841C14.71 37.8072 14.7042 37.7674 14.713 37.7295C14.7565 37.4067 14.7971 37.0845 14.8442 36.7624C14.8847 36.4629 14.9589 36.1688 15.0654 35.886C15.3543 35.1488 15.6765 34.4249 16.1925 33.7998C17.0157 32.8049 17.9161 31.8764 18.8853 31.023C19.6991 30.2934 20.3873 29.4347 20.922 28.4814C21.3812 27.6801 21.7328 26.853 21.867 25.9375C21.881 25.8402 21.9105 25.8335 21.9997 25.8535C23.2551 26.1406 24.5712 25.9843 25.7245 25.4112C25.852 25.35 25.8527 25.3905 25.8542 25.5018C25.8793 27.1073 26.2795 28.6037 27.1744 29.9505C27.4884 30.4252 27.8644 30.8527 28.2226 31.2936C29.2226 32.532 30.0118 33.9267 30.5586 35.4216C30.7945 36.0562 30.8999 36.7315 31.0179 37.3986C31.0311 37.5074 31.0335 37.6173 31.0253 37.7266C31.0249 37.7882 31.008 37.8486 30.9764 37.9015C30.9447 37.9544 30.8995 37.9979 30.8454 38.0274C30.0272 38.561 29.1315 38.9119 28.1968 39.1751C26.974 39.5055 25.7184 39.6993 24.4529 39.753C24.0054 39.7803 23.5565 39.7825 22.9027 39.7847Z" fill="#F8F2EA"/>
<path d="M26.6053 27.3344C26.6687 27.3277 26.6702 27.3668 26.6791 27.3911C26.9776 28.2514 27.5312 28.9391 28.1121 29.6254C28.9229 30.5837 29.6918 31.5803 30.3036 32.6816C30.7107 33.4291 31.0409 34.216 31.2891 35.0301C31.2967 35.0541 31.3016 35.0788 31.3039 35.1038C31.3032 35.1303 31.3003 35.1567 31.295 35.1827C31.0665 34.5355 30.8623 33.9082 30.5579 33.32C30.1681 32.5791 29.7103 31.876 29.1905 31.2198C28.9082 30.8601 28.6627 30.4709 28.3922 30.1009C28.0457 29.6291 27.6233 29.22 27.2688 28.7556C26.9915 28.396 26.7874 27.9855 26.668 27.5474C26.6496 27.4788 26.6282 27.4103 26.6053 27.3344Z" fill="#F8F2EA"/>
<path d="M21.5462 16.3451C21.2042 16.7977 20.8533 17.2429 20.5467 17.7206C19.8309 18.8373 19.3061 20.0426 18.8793 21.2942C18.8682 21.3274 18.8571 21.3598 18.8446 21.3923C18.8446 21.3989 18.8313 21.4018 18.8247 21.4063C18.7923 21.1313 19.3503 19.6121 19.797 18.6707C20.2231 17.7736 20.8924 17.063 21.5286 16.3251C21.5338 16.3323 21.5398 16.339 21.5462 16.3451Z" fill="#F8F2EA"/>
<path d="M19.4476 21.6429C19.6914 20.5875 20.0933 19.5751 20.6396 18.6398C21.0819 17.8628 21.6281 17.1574 22.1662 16.446C22.2775 16.2986 22.3018 16.463 22.3874 16.4748C21.662 17.2031 21.1084 18.0338 20.6315 18.9184C20.1668 19.7945 19.7709 20.7054 19.4476 21.6429Z" fill="#F8F2EA"/>
<path d="M20.5483 16.4151C20.5237 16.5305 20.4733 16.6389 20.4008 16.732C19.5472 17.9373 18.9538 19.2671 18.5078 20.6676C18.4968 20.7016 18.5078 20.7487 18.4599 20.7701C18.3213 20.2047 19.5553 17.6115 20.5483 16.4151Z" fill="#F8F2EA"/>
<path d="M19.7477 16.5994C19.1285 17.4839 18.6891 18.4149 18.3279 19.3887C18.3184 19.4138 18.3176 19.4624 18.2881 19.4587C18.2144 19.4455 18.269 19.4035 18.2763 19.3703C18.4422 18.6059 18.7746 17.9093 19.1963 17.2613C19.343 17.035 19.4491 16.7534 19.7477 16.5994Z" fill="#F8F2EA"/>
<path d="M20.5577 22.6292C20.7634 21.8633 21.1342 21.18 21.5286 20.507C21.6693 20.2674 21.819 20.0337 21.9797 19.8052C21.4688 20.7288 21.0575 21.7026 20.5577 22.6292Z" fill="#F8F2EA"/>
<path d="M30.9014 35.6847C31.2478 36.0393 31.4233 37.1221 31.1962 37.5622C31.1513 36.9231 31.0105 36.3069 30.9014 35.6847Z" fill="#F8F2EA"/>
<path d="M24.4867 40.2697C25.1123 40.227 25.7347 40.1455 26.3502 40.0257C26.5175 39.9918 26.6849 40.0309 26.8544 40.0449C26.5345 40.0899 26.2146 40.1385 25.8961 40.1783C25.4723 40.2299 25.0469 40.2749 24.6194 40.2852C24.5744 40.2852 24.5302 40.2815 24.4852 40.2793L24.4867 40.2697Z" fill="#F8F2EA"/>
<path d="M23.5676 21.5802C23.58 21.6163 23.5849 21.6545 23.5821 21.6925C23.5794 21.7305 23.5689 21.7675 23.5514 21.8014C23.3135 22.1916 23.0887 22.5886 22.8769 22.9926C22.8673 23.011 22.8695 23.0611 22.8135 23.039C23.0457 22.5481 23.2867 22.0653 23.5676 21.5802Z" fill="#F8F2EA"/>
<path d="M28.0029 39.4441C27.2938 39.6262 26.5847 39.8017 25.8505 39.8422C26.5817 39.7417 27.3056 39.594 28.0177 39.3999C28.013 39.4008 28.0086 39.4028 28.005 39.406C28.0014 39.4091 27.9987 39.4131 27.9971 39.4177C27.9956 39.4222 27.9954 39.427 27.9964 39.4317C27.9974 39.4364 27.9997 39.4407 28.0029 39.4441Z" fill="#F8F2EA"/>
<path d="M22.812 21.247C23.0039 20.8684 23.2181 20.5014 23.4533 20.148C23.3848 20.6264 23.0332 20.8998 22.812 21.247Z" fill="#F8F2EA"/>
<path d="M21.4306 25.709C21.5374 25.7038 21.5824 25.7311 21.5551 25.8461C21.5116 26.0296 21.4866 26.2146 21.4497 26.4019C21.4409 26.4446 21.4431 26.4999 21.3701 26.5338C21.4213 26.262 21.4416 25.9853 21.4306 25.709Z" fill="#F8F2EA"/>
<path d="M21.8536 23.2757C21.9686 22.972 22.0637 22.6579 22.3328 22.4368C22.1854 22.7233 22.0367 23.01 21.8868 23.297L21.8536 23.2757Z" fill="#F8F2EA"/>
<path d="M23.7769 23.2447C23.7216 23.5963 23.5388 23.8875 23.3501 24.1757C23.4706 23.8559 23.6132 23.5448 23.7769 23.2447Z" fill="#F8F2EA"/>
<path d="M22.6034 20.2784L22.1869 21.0502C22.212 20.8202 22.3999 20.4598 22.6034 20.2784Z" fill="#F8F2EA"/>
<path d="M15.6617 34.0468C15.8283 33.7519 15.9839 33.4571 16.2456 33.2286C16.0554 33.5062 15.8649 33.7844 15.6743 34.063L15.6617 34.0468Z" fill="#F8F2EA"/>
<path d="M24.1196 39.9874H24.9887C24.7175 40.0611 24.4189 40.0449 24.1204 40.0368L24.1196 39.9874Z" fill="#666666"/>
<path d="M27.3136 19.7219C27.4327 19.5474 27.592 19.404 27.778 19.3039C27.5989 19.4182 27.5097 19.6305 27.3077 19.7204L27.3136 19.7219Z" fill="#F8F2EA"/>
<path d="M26.9945 39.9049L27.7877 39.739L27.795 39.7759C27.5346 39.8521 27.2657 39.8955 26.9945 39.9049Z" fill="#666666"/>
<path d="M15.2843 34.8127C15.3368 34.6185 15.4297 34.4376 15.557 34.2819L15.2843 34.8127Z" fill="#F8F2EA"/>
<path d="M24.4868 40.2697L24.4801 40.2793C24.3733 40.3619 24.2516 40.3081 24.1366 40.3154C24.0137 40.3219 23.8904 40.3184 23.7681 40.3051C24.0076 40.3066 24.245 40.2439 24.4868 40.2697Z" fill="#666666"/>
<path d="M14.6017 36.6975C14.6285 36.4782 14.6884 36.2642 14.7793 36.0629C14.7248 36.2803 14.671 36.497 14.6164 36.7145C14.6169 36.7124 14.6169 36.7102 14.6163 36.708C14.6158 36.7059 14.6147 36.704 14.6133 36.7023C14.6119 36.7007 14.6101 36.6994 14.6081 36.6986C14.606 36.6977 14.6039 36.6974 14.6017 36.6975Z" fill="#F8F2EA"/>
<path d="M21.1276 23.1938C21.1526 23.06 21.1984 22.931 21.2632 22.8113C21.2344 22.9535 21.219 23.0995 21.1276 23.1938Z" fill="#F8F2EA"/>
<path d="M26.6893 22.6742L26.892 22.3365C26.869 22.4705 26.7967 22.5909 26.6893 22.6742Z" fill="#F8F2EA"/>
<path d="M14.6017 36.6975C14.6038 36.6974 14.606 36.6977 14.608 36.6986C14.6101 36.6994 14.6118 36.7007 14.6133 36.7023C14.6147 36.704 14.6157 36.7059 14.6163 36.708C14.6168 36.7102 14.6169 36.7124 14.6164 36.7145C14.5972 36.8295 14.5773 36.9445 14.5582 37.0588L14.5161 37.0529C14.5151 36.9292 14.5444 36.8072 14.6017 36.6975Z" fill="#666666"/>
<path d="M14.6481 37.6485C14.613 37.4744 14.6242 37.2942 14.6805 37.1258C14.7034 37.302 14.6296 37.473 14.6481 37.6485Z" fill="#666666"/>
<path d="M28.0029 39.4441C28.0003 39.4406 27.9987 39.4366 27.9981 39.4323C27.9975 39.428 27.9979 39.4237 27.9993 39.4196C28.0008 39.4155 28.0032 39.4119 28.0064 39.409C28.0096 39.406 28.0134 39.404 28.0176 39.4029C28.1344 39.3515 28.259 39.3203 28.3862 39.3107C28.267 39.3767 28.1373 39.4218 28.0029 39.4441Z" fill="#666666"/>
<path d="M25.3964 39.8931C25.4878 39.9019 25.5873 39.7854 25.6912 39.8931H25.3964Z" fill="#666666"/>
<path d="M26.5935 26.3812C26.567 26.2626 26.5198 26.1807 26.5412 26.0864C26.5848 26.1782 26.6028 26.28 26.5935 26.3812Z" fill="#666666"/>
<path d="M15.1383 35.1105C15.1483 35.0097 15.1878 34.914 15.2518 34.8355C15.2508 34.9382 15.2092 35.0362 15.1361 35.1083L15.1383 35.1105Z" fill="#666666"/>
<path d="M29.0039 39.386L29.2181 39.296C29.193 39.3279 29.1601 39.3529 29.1226 39.3686C29.0852 39.3843 29.0443 39.3903 29.0039 39.386Z" fill="#666666"/>
<path d="M21.1433 19.4307C21.1435 19.4717 21.1346 19.5123 21.1171 19.5494C21.0996 19.5864 21.0739 19.6191 21.0421 19.645C21.0562 19.5658 21.0911 19.4919 21.1433 19.4307Z" fill="#666666"/>
<path d="M20.675 20.3698C20.6761 20.4025 20.67 20.4351 20.6571 20.4652C20.6443 20.4952 20.625 20.5221 20.6006 20.5439C20.6033 20.4787 20.6298 20.4168 20.675 20.3698Z" fill="#666666"/>
<path d="M28.0596 39.6941C27.9696 39.7387 27.9109 39.7684 27.8253 39.7387C27.8971 39.7003 27.9788 39.6847 28.0596 39.6941Z" fill="#666666"/>
<path d="M15.6779 34.0631C15.6638 34.1165 15.6364 34.1653 15.5983 34.2052C15.599 34.1457 15.623 34.0888 15.6652 34.0468L15.6779 34.0631Z" fill="#F8F2EA"/>
<path d="M28.1931 39.6517C28.2444 39.6219 28.2794 39.5944 28.33 39.613C28.2958 39.6547 28.2578 39.6658 28.1931 39.6517Z" fill="#666666"/>
<path d="M20.5405 20.6894C20.5214 20.6573 20.5268 20.6131 20.5558 20.6131C20.6015 20.6131 20.5665 20.6459 20.5596 20.6642C20.5546 20.6735 20.5481 20.682 20.5405 20.6894Z" fill="#666666"/>
<path d="M29.5416 39.1795C29.4944 39.2259 29.4719 39.2462 29.4352 39.2297C29.4464 39.1892 29.4824 39.1907 29.5416 39.1795Z" fill="#666666"/>
<path d="M29.3741 39.2518C29.3662 39.27 29.3515 39.2842 29.3331 39.2915C29.3147 39.2988 29.2942 39.2986 29.276 39.2908C29.2851 39.2737 29.3 39.2604 29.3179 39.2533C29.3359 39.2462 29.3558 39.2456 29.3741 39.2518Z" fill="#666666"/>
<path d="M26.3111 22.3678C26.3003 22.3801 26.2911 22.4016 26.2757 22.4078C26.2603 22.4139 26.2557 22.3947 26.2634 22.3832C26.2746 22.3686 26.2872 22.3552 26.3011 22.3432L26.3111 22.3678Z" fill="#666666"/>
<path d="M15.3573 38.3812C15.3747 38.3775 15.3928 38.3785 15.4097 38.3841C15.4266 38.3898 15.4416 38.3999 15.4532 38.4134C15.4097 38.4494 15.3873 38.4127 15.3573 38.3812Z" fill="#666666"/>
<path d="M20.7811 20.1413C20.8043 20.1893 20.7811 20.211 20.7526 20.235C20.7256 20.1878 20.7616 20.1713 20.7811 20.1413Z" fill="#666666"/>
<path d="M20.9893 19.7526C20.9687 19.7114 20.9893 19.6908 21.0244 19.6725C21.0285 19.6799 21.0308 19.6882 21.0312 19.6966C21.0316 19.7051 21.0301 19.7135 21.0267 19.7213C21.0233 19.729 21.0181 19.7359 21.0117 19.7413C21.0052 19.7468 20.9975 19.7506 20.9893 19.7526Z" fill="#666666"/>
<path d="M26.1093 22.6143C26.1137 22.5965 26.122 22.5798 26.1335 22.5655C26.145 22.5511 26.1595 22.5394 26.1759 22.5311L26.1879 22.5416C26.1854 22.561 26.1789 22.5797 26.1689 22.5964C26.1588 22.6132 26.1454 22.6277 26.1295 22.639L26.1093 22.6143Z" fill="#666666"/>
<path d="M25.7862 23.0835C25.8221 23.0622 25.8251 23.0904 25.8228 23.095C25.8163 23.113 25.8056 23.1292 25.7916 23.1423C25.7694 23.1606 25.7649 23.1301 25.7664 23.124C25.7718 23.1099 25.7784 23.0964 25.7862 23.0835Z" fill="#666666"/>
<path d="M25.7227 23.2506C25.7143 23.2277 25.7044 23.2132 25.7082 23.2063C25.7185 23.1905 25.7308 23.1762 25.7449 23.1636C25.751 23.1735 25.7632 23.1865 25.7609 23.1934C25.7504 23.2138 25.7376 23.233 25.7227 23.2506Z" fill="#666666"/>
<path d="M25.6879 23.2477C25.6968 23.2523 25.7052 23.2578 25.713 23.2641C25.7074 23.2767 25.7 23.2883 25.691 23.2987C25.691 23.2987 25.669 23.2877 25.6698 23.2854C25.6741 23.272 25.6801 23.2593 25.6879 23.2477Z" fill="#666666"/>
<path d="M14.7037 37.0787C14.6767 37.045 14.6917 37.0188 14.6947 36.9828C14.7048 36.9965 14.7109 37.0126 14.7125 37.0295C14.7141 37.0464 14.711 37.0634 14.7037 37.0787Z" fill="#666666"/>
<path d="M22.7993 21.2915L22.7841 21.3115C22.7841 21.3043 22.7761 21.2979 22.7737 21.2907C22.7713 21.2835 22.7777 21.2827 22.7801 21.2787L22.7993 21.2915Z" fill="#F8F2EA"/>
<path d="M26.1313 22.638C26.1244 22.6678 26.0977 22.7097 26.0817 22.6968C26.0436 22.6639 26.0916 22.6411 26.1107 22.6167L26.1313 22.638Z" fill="#666666"/>
<path d="M26.0563 22.7029C26.0563 22.7226 26.0661 22.7377 26.0608 22.7467C26.0555 22.7558 26.0396 22.7551 26.0283 22.7588C26.0283 22.7505 26.02 22.7399 26.023 22.7347C26.033 22.723 26.0441 22.7123 26.0563 22.7029Z" fill="#666666"/>
<path d="M25.8661 23.042L25.8363 23.06C25.8316 23.0477 25.8287 23.0347 25.8276 23.0215C25.8276 23.0152 25.8426 23.0066 25.8504 23.0066C25.8583 23.0066 25.8763 23.0168 25.8661 23.042Z" fill="#666666"/>
<path d="M28.0767 39.6747C28.1034 39.6541 28.1293 39.6473 28.1529 39.6747C28.148 39.6798 28.142 39.6838 28.1355 39.6866C28.1289 39.6893 28.1219 39.6908 28.1148 39.6908C28.1077 39.6908 28.1007 39.6893 28.0941 39.6866C28.0876 39.6838 28.0816 39.6798 28.0767 39.6747Z" fill="#666666"/>
<path d="M29.6572 39.1213L29.7051 39.1087L29.6564 39.1205L29.6572 39.1213Z" fill="#666666"/>
<path d="M20.0183 29.4562C20.0147 29.4439 20.0159 29.4306 20.0216 29.4191C20.0273 29.4076 20.037 29.3986 20.049 29.3939C20.0559 29.4232 20.049 29.447 20.0175 29.4555L20.0183 29.4562Z" fill="#666666"/>
<path d="M19.9884 29.5134L19.9572 29.5378L19.9503 29.5202L19.9907 29.5149L19.9884 29.5134Z" fill="#666666"/>
<path d="M20.0172 29.4514C20.0183 29.4639 20.0161 29.4764 20.0108 29.4878C20.0055 29.4991 19.9974 29.5088 19.9872 29.5161C19.9872 29.4884 19.9872 29.463 20.0172 29.4522V29.4514Z" fill="#666666"/>
<path d="M30.1685 33.7943C30.1567 33.7894 30.1471 33.7804 30.1413 33.769C30.1355 33.7576 30.134 33.7445 30.137 33.732C30.1632 33.7443 30.1639 33.7697 30.1685 33.7936V33.7943Z" fill="#666666"/>
<path d="M20.842 20.0685L20.8074 20.1131C20.7844 20.0869 20.799 20.0669 20.819 20.0477L20.842 20.0685Z" fill="#666666"/>
<path d="M30.1649 33.7932L30.1868 33.8279C30.1506 33.8317 30.1747 33.803 30.1672 33.7917L30.1649 33.7932Z" fill="#666666"/>
<path d="M21.5588 16.2996C21.5722 16.2901 21.5801 16.2579 21.6005 16.2791C21.6209 16.3004 21.6005 16.3161 21.5761 16.3192C21.5708 16.3123 21.565 16.3057 21.5588 16.2996Z" fill="#F8F2EA"/>
<path d="M20.8217 20.0498L20.8529 19.988L20.8743 20.0078L20.8445 20.0704L20.8217 20.0498Z" fill="#666666"/>
<path d="M20.8483 19.9901L20.8788 19.9276C20.8855 19.9346 20.8927 19.9412 20.9001 19.9474L20.8696 20.0099L20.8483 19.9901Z" fill="#666666"/>
<path d="M15.1375 35.1083L15.1335 35.1386L15.1199 35.1322L15.1398 35.1107L15.1375 35.1083Z" fill="#666666"/>
<path d="M26.6885 22.7324C26.6807 22.7536 26.6665 22.7481 26.6524 22.7419C26.6383 22.7356 26.639 22.7277 26.6524 22.7214L26.6783 22.7081L26.6885 22.7324Z" fill="#F8F2EA"/>
<path d="M27.3088 19.7204C27.3363 19.725 27.3386 19.7395 27.3218 19.757C27.318 19.7616 27.3073 19.757 27.2997 19.757L27.3157 19.7204H27.3088Z" fill="#F8F2EA"/>
<path d="M20.347 28.9781L20.3531 28.9354L20.3721 28.9446L20.3462 28.9774L20.347 28.9781Z" fill="#666666"/>
<path d="M20.2755 29.0522L20.3152 29.0003L20.3228 29.0072C20.3245 29.0195 20.3223 29.0321 20.3166 29.0432C20.3109 29.0542 20.3018 29.0632 20.2908 29.069L20.2755 29.0522Z" fill="#666666"/>
<path d="M26.1748 22.5334C26.1802 22.5096 26.1863 22.4857 26.2156 22.4788C26.2181 22.4849 26.2194 22.4915 26.2193 22.4982C26.2192 22.5048 26.2178 22.5114 26.215 22.5175C26.2123 22.5235 26.2083 22.529 26.2034 22.5334C26.1984 22.5379 26.1926 22.5413 26.1863 22.5434L26.1748 22.5334Z" fill="#666666"/>
<path d="M20.2714 29.1071L20.2318 29.1613L20.2173 29.1452C20.2287 29.1262 20.2402 29.1071 20.2524 29.088C20.2584 29.0948 20.2647 29.1011 20.2714 29.1071Z" fill="#666666"/>
<path d="M30.2246 33.9158C30.2309 33.922 30.2368 33.9287 30.2422 33.9357C30.2422 33.9357 30.2422 33.9429 30.2422 33.9461L30.2294 33.9134L30.2246 33.9158Z" fill="#666666"/>
<path d="M20.1582 29.2344L20.1956 29.1787L20.2108 29.1947C20.2055 29.2184 20.1986 29.2405 20.1727 29.2489L20.1582 29.2344Z" fill="#666666"/>
<path d="M20.1451 29.2808C20.1452 29.2927 20.1418 29.3044 20.1355 29.3146C20.1291 29.3247 20.12 29.3328 20.1093 29.338L20.0963 29.3235L20.1352 29.2701L20.1451 29.2808Z" fill="#666666"/>
<path d="M20.7313 20.2791L20.7204 20.2893C20.7204 20.2893 20.7111 20.2815 20.7118 20.2776C20.7126 20.2737 20.7181 20.2705 20.7212 20.2666L20.7313 20.2791Z" fill="#666666"/>
<path d="M20.8777 19.9283C20.8857 19.9198 20.8944 19.9119 20.9036 19.9047C20.9227 19.9207 20.9112 19.9345 20.899 19.9482C20.8916 19.942 20.8844 19.9353 20.8777 19.9283Z" fill="#666666"/>
<path d="M20.9373 19.8557V19.8661L20.9189 19.8605C20.9189 19.8605 20.9245 19.8525 20.9285 19.8509C20.9325 19.8493 20.9349 19.8541 20.9373 19.8557Z" fill="#666666"/>
<path d="M20.9702 19.8022L20.9585 19.8123C20.9585 19.8123 20.95 19.8045 20.95 19.8006C20.95 19.7967 20.9562 19.7928 20.9601 19.7897L20.9702 19.8022Z" fill="#666666"/>
<path d="M20.3138 29.0024C20.3184 28.9851 20.3259 28.9707 20.3477 28.9745C20.3395 28.9866 20.3312 28.9986 20.3221 29.0099L20.3138 29.0024Z" fill="#666666"/>
<path d="M20.2912 29.0685L20.27 29.1078C20.2633 29.1019 20.257 29.0956 20.2511 29.0889L20.276 29.0526L20.2912 29.0685Z" fill="#666666"/>
<path d="M20.1339 29.274L20.1575 29.234L20.1724 29.2489L20.1441 29.285L20.1339 29.274Z" fill="#666666"/>
<path d="M20.1099 29.3362L20.0771 29.3644C20.0832 29.3499 20.0901 29.3362 20.097 29.3217L20.1099 29.3362Z" fill="#666666"/>
<path d="M20.0478 29.3956L20.0789 29.363C20.0789 29.3832 20.0703 29.3979 20.0463 29.394L20.0478 29.3956Z" fill="#666666"/>
<path d="M21.5773 16.3146C21.5778 16.3188 21.5775 16.3231 21.5762 16.3272C21.575 16.3313 21.5729 16.3351 21.5701 16.3383C21.5672 16.3415 21.5637 16.344 21.5598 16.3458C21.5559 16.3475 21.5517 16.3484 21.5474 16.3483C21.5405 16.3419 21.5342 16.3348 21.5286 16.3271L21.56 16.2949C21.5662 16.3011 21.5719 16.3077 21.5773 16.3146Z" fill="#F8F2EA"/>
<path d="M30.0595 33.6088L30.0559 33.5971L30.0658 33.598L30.0595 33.6088Z" fill="#666666"/>
<path d="M30.0926 33.6524L30.0944 33.6635L30.0861 33.6626L30.0926 33.6524Z" fill="#666666"/>
<path d="M30.1382 33.733L30.1163 33.7229C30.139 33.7018 30.1296 33.7314 30.1358 33.7353L30.1382 33.733Z" fill="#666666"/>
<path d="M15.0053 38.2149L15.0012 38.2057L15.0125 38.2068L15.0053 38.2149Z" fill="#666666"/>
<path d="M19.8379 29.6918L19.8246 29.712C19.8114 29.6902 19.8246 29.6941 19.8403 29.6941L19.8379 29.6918Z" fill="#666666"/>
<path d="M15.1226 38.2774L15.1133 38.2673C15.1172 38.2673 15.1211 38.2603 15.1242 38.2603C15.1273 38.2603 15.1312 38.2657 15.1343 38.2689L15.1226 38.2774Z" fill="#666666"/>
<path d="M15.1934 38.2988C15.1934 38.2988 15.1861 38.3061 15.1828 38.3061C15.1795 38.3061 15.1763 38.3004 15.173 38.2971C15.1697 38.2939 15.1803 38.2898 15.1836 38.2898C15.1869 38.2898 15.1902 38.2955 15.1934 38.2988Z" fill="#666666"/>
<path d="M15.253 38.3286C15.253 38.3286 15.246 38.3364 15.2421 38.3356C15.2382 38.3349 15.2359 38.3302 15.232 38.3271C15.2281 38.3239 15.2398 38.3193 15.2437 38.3193C15.2476 38.3193 15.2499 38.3255 15.253 38.3286Z" fill="#666666"/>
<path d="M15.3029 38.3656L15.2975 38.3539L15.311 38.3557L15.3029 38.3656Z" fill="#666666"/>
<path d="M19.897 29.6018L19.8872 29.6274C19.8639 29.6071 19.8872 29.6071 19.8985 29.6033L19.897 29.6018Z" fill="#666666"/>
<path d="M29.5824 39.1603L29.5871 39.1696L29.5759 39.1687L29.5824 39.1603Z" fill="#666666"/>
<path d="M16.2721 33.1623C16.2796 33.1536 16.2878 33.1454 16.2965 33.1379C16.3217 33.1562 16.3011 33.1669 16.2881 33.1783L16.2721 33.1623Z" fill="#F8F2EA"/>
<path d="M30.2269 33.9162L30.2122 33.9031C30.215 33.9025 30.2179 33.9025 30.2207 33.9031C30.2228 33.9069 30.2244 33.9111 30.2253 33.9154L30.2269 33.9162Z" fill="#666666"/>
<path d="M20.1921 29.181C20.2008 29.1684 20.2094 29.1558 20.2189 29.144L20.2338 29.1598L20.2079 29.1975L20.1921 29.181Z" fill="#666666"/>
<path d="M19.8392 29.6943L19.8452 29.6711C19.8699 29.6891 19.8452 29.6868 19.8369 29.6921L19.8392 29.6943Z" fill="#666666"/>
<path d="M19.8982 29.6047L19.9099 29.5812C19.9295 29.6023 19.9099 29.6008 19.8966 29.6031L19.8982 29.6047Z" fill="#666666"/>
<path d="M26.2139 22.4793L26.2282 22.4545C26.2447 22.4748 26.2334 22.4793 26.2146 22.4801L26.2139 22.4793Z" fill="#666666"/>
<path d="M20.7019 20.3403L20.691 20.3504C20.691 20.3465 20.6824 20.3426 20.6832 20.3387C20.6839 20.3348 20.6894 20.3317 20.6925 20.3286L20.7019 20.3403Z" fill="#666666"/>
<path d="M16.2896 33.1792C16.2796 33.1915 16.2718 33.2193 16.2518 33.1985C16.2317 33.1776 16.2579 33.1707 16.2734 33.1629L16.2896 33.1792Z" fill="#F8F2EA"/>
<path d="M15.5756 34.2381L15.5585 34.2272C15.5585 34.2272 15.5655 34.217 15.5678 34.2178C15.5748 34.2201 15.5814 34.2235 15.5873 34.2279L15.5756 34.2381Z" fill="#F8F2EA"/>
<path d="M15.0565 38.2374L15.0701 38.2337L15.0692 38.2446L15.0565 38.2374Z" fill="#666666"/>
<path d="M28.4475 26.8906C28.0418 26.5723 27.6894 26.1913 27.4037 25.762C27.4177 25.7392 27.4317 25.7399 27.4442 25.7495C27.8119 26.0219 28.1326 26.3526 28.3937 26.7284C28.43 26.7703 28.4542 26.8212 28.4637 26.8759L28.4475 26.8906Z" fill="#F8F2EA"/>
<path d="M28.4642 26.8744C28.4848 26.8828 28.4939 26.8957 28.4756 26.9133C28.4756 26.9133 28.4573 26.8988 28.4474 26.8912L28.4642 26.8744Z" fill="#F8F2EA"/>
<path d="M16.1534 16.7343C15.8158 16.6281 15.5084 16.4519 15.1907 16.3023C14.5162 15.9838 13.8498 15.6499 13.1797 15.3234C13.106 15.2887 13.0375 15.257 12.963 15.2231C13.0013 15.1877 13.0367 15.2062 13.078 15.2231C14.065 15.56 14.9843 16.0428 15.9005 16.5315C15.9939 16.5884 16.0835 16.6512 16.1688 16.7195L16.1534 16.7343Z" fill="#F8F2EA"/>
<path d="M12.1698 14.7595C12.9725 14.9253 13.7178 15.2511 14.4549 15.5946L14.4395 15.6352C14.3657 15.602 14.292 15.5711 14.2183 15.5357C13.7657 15.3145 13.288 15.1612 12.8177 14.9968C12.7244 14.9621 12.6266 14.9405 12.5273 14.9327C12.459 14.9301 12.3919 14.9134 12.3304 14.8835C12.2689 14.8537 12.2142 14.8115 12.1698 14.7595Z" fill="#F8F2EA"/>
<path d="M14.9548 15.8655L14.9297 15.849C14.9383 15.8443 14.9478 15.8364 14.9556 15.8364C14.9635 15.8364 14.9729 15.8459 14.9815 15.8514L14.9548 15.8655Z" fill="#666666"/>
<path d="M14.5354 15.6626C14.5169 15.6565 14.4993 15.6519 14.4816 15.6449C14.4816 15.6449 14.4816 15.6249 14.4877 15.6242C14.5131 15.6203 14.5346 15.6242 14.5416 15.6557L14.5354 15.6626Z" fill="#F8F2EA"/>
<path d="M14.6495 15.7218C14.6724 15.7164 14.6854 15.7096 14.6961 15.7119C14.7067 15.7142 14.7273 15.7187 14.7113 15.7378C14.7085 15.741 14.7049 15.7434 14.7009 15.745C14.697 15.7466 14.6927 15.7473 14.6884 15.747C14.6747 15.7398 14.6617 15.7314 14.6495 15.7218Z" fill="#666666"/>
<path d="M14.5392 15.6543L14.5954 15.6697C14.59 15.6759 14.5854 15.6882 14.5808 15.6882C14.5608 15.6882 14.54 15.6882 14.5331 15.6605L14.5392 15.6543Z" fill="#F8F2EA"/>
<path d="M16.1692 16.7158L16.21 16.7514C16.1843 16.7688 16.1654 16.7635 16.1533 16.7347L16.1692 16.7158Z" fill="#F8F2EA"/>
<path d="M14.8842 15.8055C14.8875 15.8112 14.8903 15.8172 14.8924 15.8235C14.8924 15.8235 14.8864 15.8295 14.8834 15.8325C14.8798 15.8268 14.8768 15.8208 14.8744 15.8145C14.8744 15.8145 14.8804 15.8085 14.8842 15.8055Z" fill="#666666"/>
<path d="M14.8399 15.7907C14.8334 15.7944 14.8264 15.797 14.8192 15.7987C14.8192 15.7987 14.8128 15.7931 14.8096 15.7899C14.8159 15.7864 14.8226 15.7837 14.8295 15.7819C14.8295 15.7819 14.8359 15.7875 14.8399 15.7907Z" fill="#666666"/>
<path d="M14.7796 15.7604C14.773 15.7643 14.766 15.7675 14.7588 15.77C14.7588 15.77 14.7516 15.7636 14.7484 15.7604C14.7549 15.7565 14.7619 15.7536 14.7692 15.7516C14.7692 15.7516 14.7796 15.7572 14.7796 15.7604Z" fill="#666666"/>
<path d="M12.3445 25.0595C12.4362 24.8984 12.562 24.7593 12.7131 24.6519C13.291 24.2045 13.9448 23.8823 14.581 23.5315C15.0121 23.3029 15.4656 23.1194 15.9344 22.9838C15.9634 22.9699 15.9949 22.9622 16.0271 22.9613C16.0592 22.9605 16.0912 22.9663 16.1209 22.9786C14.94 23.8051 13.6739 24.5027 12.3445 25.0595Z" fill="#F8F2EA"/>
<path d="M11.7086 25.3743C11.7111 25.4247 11.6995 25.4748 11.6752 25.5191C11.6509 25.5634 11.6148 25.6 11.571 25.625C11.5524 25.6369 11.5204 25.625 11.5248 25.6071C11.5509 25.5052 11.6305 25.445 11.7086 25.3743Z" fill="#F8F2EA"/>
<path d="M12.2985 25.1704C12.234 25.1997 12.1621 25.2085 12.0924 25.1957C12.0991 25.1213 12.1623 25.099 12.204 25.0551C12.2494 25.0871 12.2166 25.1481 12.2985 25.1704Z" fill="#F8F2EA"/>
<path d="M11.2258 25.4216C11.2146 25.4759 11.1767 25.5094 11.1283 25.5704C11.1244 25.5376 11.1307 25.5044 11.1462 25.4752C11.1618 25.4461 11.1859 25.4225 11.2154 25.4075L11.2258 25.4216Z" fill="#666666"/>
<path d="M11.3075 25.3549L11.3153 25.3323C11.3379 25.3526 11.3091 25.3463 11.3052 25.3526L11.3075 25.3549Z" fill="#666666"/>
<path d="M11.3057 25.3515L11.2921 25.3733L11.2823 25.3575H11.3079L11.3057 25.3515Z" fill="#666666"/>
<path d="M11.2145 25.4107L11.2416 25.3957L11.225 25.422L11.2145 25.4107Z" fill="#666666"/>
<path d="M27.6808 14.455C27.6536 14.3275 27.7074 14.2206 27.7545 14.113C27.916 13.7326 28.1813 13.4193 28.4298 13.0965C29.0408 12.291 29.7195 11.539 30.4584 10.8489C30.5096 10.7942 30.5716 10.7508 30.6405 10.7214C30.5638 11.0303 27.9639 14.3142 27.6808 14.455Z" fill="#F8F2EA"/>
<path d="M32.7059 25.5365C32.5877 25.499 32.4748 25.4468 32.3698 25.3809C31.696 25.007 31.024 24.631 30.3537 24.2531C30.3469 24.2488 30.3412 24.243 30.3371 24.236C30.333 24.2291 30.3306 24.2213 30.3301 24.2133C31.2021 24.5126 31.9422 25.0551 32.7273 25.5144L32.7059 25.5365Z" fill="#F8F2EA"/>
<path d="M31.1831 24.4543C31.2108 24.4543 31.2346 24.4543 31.2446 24.4867C31.2169 24.4867 31.1892 24.4936 31.1808 24.4567L31.1831 24.4543Z" fill="#666666"/>
<path d="M31.1856 24.4557C31.1732 24.4588 31.1602 24.4573 31.1488 24.4515C31.1375 24.4457 31.1287 24.436 31.124 24.4241C31.1517 24.4241 31.1756 24.4241 31.1871 24.4541L31.1856 24.4557Z" fill="#666666"/>
<path d="M31.2721 24.5156C31.3006 24.511 31.3267 24.511 31.3344 24.5472C31.309 24.5472 31.2836 24.5472 31.2721 24.5156Z" fill="#666666"/>
<path d="M31.3319 24.5459C31.3604 24.5405 31.3865 24.5397 31.3942 24.5766C31.3673 24.5766 31.3419 24.5766 31.3319 24.5459Z" fill="#666666"/>
<path d="M31.4561 24.6038C31.4292 24.6038 31.4031 24.6038 31.3931 24.573C31.4192 24.573 31.4438 24.573 31.4554 24.6038H31.4561Z" fill="#666666"/>
<path d="M31.6017 24.6949L31.6351 24.7089C31.6312 24.7089 31.6257 24.7135 31.6242 24.7089C31.6169 24.7031 31.6099 24.6969 31.6032 24.6902L31.6017 24.6949Z" fill="#666666"/>
<path d="M32.7281 25.5121L32.7822 25.5488C32.7786 25.5539 32.7745 25.5588 32.77 25.5633C32.7433 25.5633 32.7189 25.5633 32.7059 25.535L32.7281 25.5121Z" fill="#F8F2EA"/>
<path d="M32.8124 25.6144L32.7678 25.5644C32.7723 25.5598 32.7764 25.555 32.7801 25.5497C32.8086 25.5621 32.8501 25.5682 32.8117 25.6144H32.8124Z" fill="#F8F2EA"/>
<path d="M32.8098 25.6121C32.8235 25.6068 32.8418 25.5946 32.8487 25.5992C32.8556 25.6037 32.8487 25.6129 32.8365 25.6076C32.8243 25.6022 32.8197 25.6076 32.8113 25.6121H32.8098Z" fill="#F8F2EA"/>
<path d="M31.0646 24.3987L31.0222 24.3861C31.0259 24.3802 31.0301 24.3747 31.0348 24.3696C31.0465 24.3767 31.0578 24.3846 31.0686 24.3932L31.0646 24.3987Z" fill="#666666"/>
<path d="M31.0681 24.3917C31.0943 24.3917 31.1227 24.3917 31.1274 24.4263C31.1004 24.4263 31.0751 24.4263 31.0627 24.3971L31.0681 24.3917Z" fill="#666666"/>
<path d="M31.2419 24.4853C31.2619 24.4853 31.2771 24.4933 31.2747 24.5181C31.2555 24.5181 31.2411 24.5085 31.2427 24.4853H31.2419Z" fill="#666666"/>
<path d="M31.4514 24.6049C31.4563 24.606 31.461 24.6076 31.4656 24.6097C31.4656 24.6097 31.4656 24.616 31.4656 24.6192L31.4506 24.6025L31.4514 24.6049Z" fill="#666666"/>
<path d="M31.5198 24.6496L31.5323 24.646L31.5314 24.6559L31.5198 24.6496Z" fill="#666666"/>
<path d="M31.6038 24.6937L31.5891 24.6821C31.5891 24.6821 31.5961 24.6821 31.5976 24.6821C31.5995 24.6856 31.601 24.6892 31.6023 24.693L31.6038 24.6937Z" fill="#666666"/>
<path d="M19.099 10.1059C19.386 10.5243 19.6221 10.9754 19.8022 11.4497C20.0772 12.1323 20.3573 12.8112 20.6521 13.4849C20.689 13.5697 20.7435 13.6508 20.7384 13.7584C20.6529 13.7584 20.6271 13.6987 20.5954 13.6471C20.4387 13.3932 20.3005 13.1284 20.1818 12.8547C19.7963 11.9878 19.371 11.1357 19.1027 10.2223C19.0931 10.1892 19.0894 10.1545 19.0828 10.1206L19.099 10.1059Z" fill="#F8F2EA"/>
<path d="M19.0842 10.1265C19.0583 10.1179 19.0552 10.0904 19.0701 10.0809C19.085 10.0715 19.0945 10.0966 19.1015 10.1108L19.0842 10.1265Z" fill="#F8F2EA"/>
<path d="M25.1045 13.423C25.1625 12.5437 25.3814 11.6824 25.7502 10.8821C25.6802 11.7667 25.4163 12.6011 25.1045 13.423Z" fill="#F8F2EA"/>
<path d="M22.7198 11.6082C22.9213 12.1815 23.0419 12.7802 23.078 13.3869C22.8856 12.8082 22.7168 12.2244 22.7198 11.6082Z" fill="#F8F2EA"/>
<path d="M14.3945 20.131C15.0262 20.1083 15.6585 20.1478 16.2824 20.249C16.0936 20.4126 14.7314 20.3264 14.3945 20.131Z" fill="#F8F2EA"/>
<path d="M15.6182 20.4561C15.8074 20.4495 15.9969 20.4598 16.1843 20.4871C15.9957 20.5197 15.8021 20.5091 15.6182 20.4561Z" fill="#666666"/>
<defs>
<filter id="filter0_d_8060_7477" x="0" y="0" width="54" height="52.6642" filterUnits="userSpaceOnUse" color-interpolation-filters="sRGB">
<feFlood flood-opacity="0" result="BackgroundImageFix"/>
<feColorMatrix in="SourceAlpha" type="matrix" values="0 0 0 0 0 0 0 0 0 0 0 0 0 0 0 0 0 0 127 0" result="hardAlpha"/>
<feOffset dx="5" dy="4"/>
<feGaussianBlur stdDeviation="2"/>
<feComposite in2="hardAlpha" operator="out"/>
<feColorMatrix type="matrix" values="0 0 0 0 0 0 0 0 0 0 0 0 0 0 0 0 0 0 0.25 0"/>
<feBlend mode="normal" in2="BackgroundImageFix" result="effect1_dropShadow_8060_7477"/>
<feBlend mode="normal" in="SourceGraphic" in2="effect1_dropShadow_8060_7477" result="shape"/>
</filter>
</defs>
</svg>
