<svg width="158" height="158" viewBox="0 0 158 158" fill="none" xmlns="http://www.w3.org/2000/svg">
    <path
        d="M0 78.7548C0.287843 58.756 6.944 41.1474 20.4124 26.2524C31.3895 14.115 44.975 6.31886 60.7771 2.35305C65.6509 1.13017 70.6044 0.419949 75.6213 0.134228C85.995 -0.458439 96.0907 0.89996 105.881 4.43963C115.9 8.06257 124.753 13.5827 132.481 20.9298C139.057 27.1814 144.185 34.4828 148.351 42.5385C152.641 50.8358 155.429 59.5707 156.679 68.8232C157.24 72.9718 157.492 77.1385 157.356 81.3181C156.723 100.778 149.986 117.81 136.847 132.147C125.716 144.293 112.018 152.097 95.9378 155.62C91.3258 156.631 86.6585 157.264 81.9327 157.369C60.8064 157.837 42.1779 151.215 26.2929 137.22C13.6782 126.104 5.67392 112.147 1.93033 95.7315C0.769207 90.6441 0.146361 85.4815 0.0748066 80.2569C0.0683017 79.7834 0.0292721 79.3116 0.00162623 78.7564L0 78.7548Z"
        fill="#464646" />
    <path
        d="M81.9851 150.075C71.0773 150.274 60.9038 148.475 51.1478 144.47C44.1489 141.598 37.6097 137.92 31.9186 132.871C22.5623 124.571 15.7209 114.532 11.4108 102.766C9.5278 97.6285 8.26708 92.3364 7.5961 86.909C6.93325 81.5598 6.73342 76.1879 7.46288 70.8404C8.44416 63.6495 10.5464 56.7699 13.6885 50.2244C19.8849 37.3161 29.0267 27.0024 41.0783 19.3487C49.0585 14.2815 57.7439 10.9077 67.0531 9.19798C71.6362 8.35535 76.2583 7.95929 80.9145 8.0033C88.1279 8.07175 95.2129 9.07248 102.062 11.3575C106.832 12.9482 111.274 15.292 115.479 18.0562C129.124 27.0285 138.802 39.2491 144.886 54.3757C147.526 60.939 149.17 67.7567 149.828 74.8107C150.147 78.217 150.326 81.6316 150.04 85.0428C149.7 89.0946 148.888 93.0698 147.788 96.9831C144.522 108.586 138.755 118.781 130.536 127.564C121.943 136.746 111.672 143.351 99.7668 147.339C96.191 148.537 92.4608 149.13 88.7176 149.583C86.3554 149.868 83.9834 149.995 81.9851 150.077V150.075Z"
        fill="#F8F2EA" />
    <path
        d="M81.399 141.775C71.7402 141.952 62.7316 140.347 54.0927 136.773C47.8952 134.211 42.1048 130.929 37.0653 126.423C28.7803 119.018 22.7223 110.059 18.9057 99.5602C17.2384 94.9762 16.122 90.254 15.5278 85.4111C14.9409 80.638 14.7639 75.8446 15.4099 71.0729C16.2788 64.6564 18.1404 58.5177 20.9226 52.6772C26.4095 41.1589 34.5046 31.956 45.1762 25.1265C52.2427 20.605 59.9335 17.5945 68.1767 16.069C72.2351 15.3171 76.3279 14.9637 80.451 15.0029C86.8384 15.064 93.1122 15.957 99.1774 17.9959C103.401 19.4154 107.334 21.5067 111.057 23.9732C123.14 31.9793 131.71 42.8838 137.098 56.3814C139.436 62.2379 140.891 68.3213 141.474 74.6157C141.756 77.6552 141.914 80.702 141.661 83.7459C141.36 87.3613 140.641 90.9084 139.667 94.4003C136.776 104.754 131.668 113.85 124.391 121.688C116.782 129.881 107.687 135.774 97.1447 139.333C93.9783 140.402 90.6752 140.931 87.3606 141.336C85.2689 141.59 83.1685 141.704 81.399 141.776V141.775Z"
        fill="#464646" />
    <path
        d="M19.3537 30.991C21.014 28.4799 22.8923 26.1353 24.8991 23.9018C26.0131 22.6626 27.3384 21.634 28.7028 20.5091C25.7496 24.2431 22.5427 27.6178 19.4919 31.1297C19.3715 31.1575 19.3081 31.1297 19.3537 30.991Z"
        fill="#F8F2EA" />
    <path
        d="M123.526 22.9626C127.122 25.903 130.385 29.1749 133.283 32.8109C133.308 32.9301 133.274 32.9905 133.142 32.9465C130.044 29.5113 126.71 26.3112 123.373 23.1144C123.35 22.9903 123.393 22.9299 123.524 22.9626H123.526Z"
        fill="#F8F2EA" />
    <path
        d="M153.091 73.661C153.483 76.7141 153.687 79.7754 153.39 82.8482C153.279 84.0008 153.104 85.147 152.957 86.2964C152.617 86.1364 152.843 85.8735 152.84 85.6515C153.021 82.7975 153.187 79.9436 153.089 77.0815C153.052 75.986 153.003 74.8904 152.957 73.7949C152.913 73.6626 152.97 73.63 153.091 73.6594V73.661Z"
        fill="#F8F2EA" />
    <path
        d="M85.584 151.698C83.9139 151.915 82.2453 152.139 80.5736 152.348C79.0026 152.545 77.4268 152.71 75.8575 152.929C75.4428 152.988 75.0476 152.922 74.6443 152.912C74.5256 152.909 74.3028 153.015 74.3305 152.746C74.3484 152.574 74.4882 152.508 74.6557 152.496C75.2542 152.457 75.851 152.395 76.4511 152.374C79.149 152.279 81.8274 151.969 84.5025 151.624C84.8587 151.579 85.2181 151.521 85.584 151.696V151.698Z"
        fill="#F8F2EA" />
    <path
        d="M46.9244 12.795C50.1508 10.9778 53.6781 9.95572 57.1826 8.87651C57.3225 8.82916 57.3566 8.89284 57.3322 9.02019C53.8684 10.2186 50.4191 11.4611 47.0593 12.9337C46.926 12.9729 46.8935 12.9158 46.9244 12.795Z"
        fill="#F8F2EA" />
    <path
        d="M119.891 137.988C122.709 135.509 125.594 133.103 128.206 130.389C127.575 131.627 121.665 137.057 119.891 137.988Z"
        fill="#F8F2EA" />
    <path
        d="M132.497 25.8954C133.73 26.8049 138.464 32.3854 139.124 33.654C136.743 31.218 134.871 28.3412 132.497 25.8954Z"
        fill="#F8F2EA" />
    <path
        d="M120.269 18.3422C118.562 17.3463 116.856 16.3487 115.148 15.3528C117.03 16.0434 119.02 16.5397 120.269 18.3422Z"
        fill="#F8F2EA" />
    <path
        d="M18.9633 35.1171C20.1326 33.4272 21.4531 31.8533 22.7638 30.2745C22.8549 30.1635 22.933 29.9023 23.1493 30.0655C23.3883 30.2468 23.1769 30.3921 23.0566 30.5357C21.7377 32.1097 20.4188 33.6852 19.1016 35.2608C18.9861 35.2803 18.9211 35.2493 18.965 35.1171H18.9633Z"
        fill="#F8F2EA" />
    <path
        d="M152.107 92.5565C151.767 94.8259 151.24 97.0513 150.526 99.2325C150.487 99.2799 150.447 99.2815 150.403 99.2374C150.974 96.8815 151.554 94.5288 151.966 92.1369C152.273 92.1875 152.099 92.403 152.107 92.5548V92.5565Z"
        fill="#F8F2EA" />
    <path
        d="M133.144 32.9471C133.191 32.9014 133.238 32.8573 133.286 32.8116C134.863 34.6304 136.239 36.5978 137.545 38.6174C137.589 38.7448 137.528 38.766 137.421 38.7399C136.104 36.7284 134.609 34.8492 133.144 32.9471Z"
        fill="#F8F2EA" />
    <path
        d="M152.108 92.5568C152.045 92.4229 152.136 92.2352 151.967 92.1389C152.258 89.9772 152.549 87.8155 152.84 85.6538C152.921 85.8612 152.796 86.1061 152.957 86.2987C152.674 88.3853 152.391 90.4703 152.11 92.5568H152.108Z"
        fill="#F8F2EA" />
    <path
        d="M149.772 101.701C149.417 103.498 148.664 105.16 148.037 106.865C147.926 107.165 147.798 107.459 147.677 107.756C147.57 107.771 147.493 107.76 147.565 107.622C148.295 105.622 149.063 103.634 149.671 101.591C149.72 101.573 149.769 101.557 149.801 101.614C149.814 101.637 149.796 101.67 149.773 101.701H149.772Z"
        fill="#F8F2EA" />
    <path
        d="M150.889 58.2489C151.489 60.1216 152.066 62.0009 152.126 63.9862C151.713 62.0743 151.302 60.1624 150.889 58.2489Z"
        fill="#F8F2EA" />
    <path
        d="M72.9203 5.549C74.3254 5.41185 75.7239 5.1898 77.1355 5.15225C77.142 5.23062 77.1501 5.30736 77.1566 5.38573C75.789 5.48695 74.4213 5.58818 73.052 5.68941C72.9219 5.72369 72.8845 5.66981 72.9187 5.54736L72.9203 5.549Z"
        fill="#F8F2EA" />
    <path
        d="M3.29429 78.4749V82.333C3.22599 82.333 3.15768 82.3297 3.08938 82.3281C2.79991 80.9403 3.3073 79.5786 3.29429 78.4749Z"
        fill="#F8F2EA" />
    <path
        d="M7.29658 54.9079C7.03964 55.6099 6.77619 56.312 6.52738 57.0173C6.46233 57.2018 6.38427 57.3504 6.1696 57.2638C5.89315 57.1512 6.10293 56.9912 6.16473 56.8638C6.48184 56.2075 6.80709 55.5577 7.13071 54.9046C7.18762 54.8507 7.24292 54.8524 7.29821 54.9095L7.29658 54.9079Z"
        fill="#F8F2EA" />
    <path
        d="M60.7931 6.93307C59.5441 7.24491 58.2968 7.55676 57.0479 7.87023C58.1748 7.23838 59.4173 7.0196 60.6597 6.79755C60.7866 6.76164 60.824 6.81388 60.7931 6.9347V6.93307Z"
        fill="#F8F2EA" />
    <path
        d="M6.12176 98.7281C5.52331 97.5167 5.35418 96.1844 5.18018 94.8521C5.49404 96.1436 5.8079 97.4367 6.12176 98.7281Z"
        fill="#F8F2EA" />
    <path
        d="M18.9632 35.1166C19.0088 35.164 19.0543 35.2129 19.0998 35.2603C18.529 36.0489 17.9582 36.8391 17.3874 37.6277C17.3386 37.595 17.2915 37.5624 17.2427 37.5297C17.794 36.7117 18.3176 35.8742 18.9632 35.1166Z"
        fill="#F8F2EA" />
    <path
        d="M29.3438 135.109C30.1081 135.718 30.8724 136.327 31.6367 136.936C30.4415 136.383 29.7015 135.79 29.3438 135.109Z"
        fill="#F8F2EA" />
    <path
        d="M88.8509 4.40642C87.9825 4.34111 87.1125 4.27417 86.1807 4.20396C87.1385 3.70109 87.9907 4.29213 88.8672 4.24641C88.8607 4.29866 88.8558 4.35254 88.8493 4.40478L88.8509 4.40642Z"
        fill="#F8F2EA" />
    <path
        d="M104.783 10.9385C105.786 11.0675 106.656 11.4544 107.448 12.0356C106.56 11.6699 105.671 11.3042 104.783 10.9385Z"
        fill="#F8F2EA" />
    <path
        d="M57.3322 9.01981C57.2818 8.97246 57.233 8.92348 57.1826 8.87613C57.9112 8.53979 58.6901 8.39449 59.4561 8.20346C59.4724 8.25571 59.4886 8.30795 59.5049 8.3602C58.7796 8.58061 58.0559 8.79939 57.3306 9.01981H57.3322Z"
        fill="#F8F2EA" />
    <path
        d="M93.2571 151.071C93.8767 150.886 94.4963 150.7 95.1158 150.516C94.7467 151.159 94.0669 151.012 93.5254 151.211C93.392 151.247 93.2408 151.32 93.2571 151.071Z"
        fill="#F8F2EA" />
    <path
        d="M81.2612 153.828C82.2549 153.81 83.2355 153.528 84.2389 153.717C83.2452 153.735 82.2679 154.06 81.2612 153.828Z"
        fill="#F8F2EA" />
    <path
        d="M27.1089 131.159C27.6732 131.692 28.2391 132.225 28.8034 132.758C28.7676 132.795 28.7302 132.834 28.6945 132.872C28.07 132.4 27.5236 131.848 27.1089 131.159Z"
        fill="#F8F2EA" />
    <path
        d="M30.511 134.431C29.9109 134.018 29.3678 133.543 28.9092 132.973C29.5369 133.35 30.0849 133.824 30.6021 134.336C30.6151 134.408 30.5842 134.441 30.511 134.431Z"
        fill="#F8F2EA" />
    <path
        d="M9.403 109.491C9.0062 108.84 8.74601 108.136 8.64355 107.367C8.92977 108.046 9.21599 108.727 9.5022 109.406C9.5022 109.473 9.46968 109.501 9.40463 109.493L9.403 109.491Z"
        fill="#F8F2EA" />
    <path
        d="M123.527 22.9626C123.477 23.0132 123.426 23.0638 123.376 23.1144C122.987 22.7585 122.598 22.4026 122.211 22.0466C122.75 22.2246 123.164 22.5593 123.529 22.9626H123.527Z"
        fill="#F8F2EA" />
    <path
        d="M137.421 38.74C137.462 38.6992 137.504 38.6583 137.544 38.6175C137.969 39.091 138.26 39.6429 138.463 40.2567C138.115 39.7506 137.769 39.2445 137.421 38.74Z"
        fill="#F8F2EA" />
    <path
        d="M60.793 6.93358C60.7491 6.88786 60.7036 6.84215 60.6597 6.79643C61.289 6.58745 61.9281 6.42744 62.5949 6.41928C62.6095 6.43561 62.6225 6.45357 62.6372 6.46989C62.0468 6.72459 61.4126 6.79643 60.793 6.93195V6.93358Z"
        fill="#F8F2EA" />
    <path
        d="M39.937 140.964C40.4021 141.237 40.8688 141.509 41.3339 141.78C40.7696 141.689 40.2948 141.425 39.937 140.964Z"
        fill="#F8F2EA" />
    <path
        d="M93.2579 151.071C93.2905 151.227 93.4368 151.164 93.5263 151.211C92.9701 151.342 92.4155 151.474 91.8594 151.605C92.2854 151.294 92.7668 151.167 93.2579 151.071Z"
        fill="#F8F2EA" />
    <path
        d="M153.09 73.6615C153.046 73.7072 153.002 73.7513 152.956 73.797C152.784 73.3219 152.831 72.837 152.948 72.3455L153.09 73.6615Z"
        fill="#F8F2EA" />
    <path
        d="M32.4898 135.991C32.0605 135.734 31.6523 135.45 31.3108 135.081C31.3075 135.017 31.34 134.995 31.4002 135.009C31.8263 135.195 32.1288 135.546 32.4865 135.824C32.5435 135.878 32.5451 135.933 32.4898 135.991Z"
        fill="#F8F2EA" />
    <path
        d="M46.9253 12.7949C46.9708 12.8406 47.0147 12.888 47.0602 12.9337C46.7171 13.1737 46.3366 13.3239 45.9219 13.3892C46.2162 13.1165 46.548 12.9174 46.9236 12.7933L46.9253 12.7949Z"
        fill="#F8F2EA" />
    <path
        d="M72.9215 5.54846C72.9654 5.59581 73.011 5.64316 73.0549 5.69051C72.6272 5.90929 72.1816 5.80316 71.7295 5.70193C72.1263 5.65132 72.5247 5.59908 72.9215 5.54846Z"
        fill="#F8F2EA" />
    <path
        d="M7.2969 54.9084C7.2416 54.9084 7.18469 54.9051 7.12939 54.9035C7.29364 54.5394 7.45789 54.1753 7.62214 53.8128C7.61076 54.2177 7.54571 54.5965 7.2969 54.9084Z"
        fill="#F8F2EA" />
    <path
        d="M10.0352 47.8828C10.2319 47.4795 10.4287 47.0746 10.6255 46.6713C10.6743 46.6942 10.7247 46.717 10.7735 46.7399C10.5864 47.1481 10.4694 47.5889 10.0352 47.8828Z"
        fill="#F8F2EA" />
    <path
        d="M148.631 59.9402C148.535 59.5549 148.439 59.1696 148.343 58.7843C148.625 59.07 148.745 59.4096 148.75 59.7884C148.812 59.919 148.75 59.9533 148.629 59.9402H148.631Z"
        fill="#F8F2EA" />
    <path
        d="M147.564 107.623C147.601 107.667 147.639 107.713 147.676 107.757C147.556 108.098 147.421 108.431 147.096 108.794C147.216 108.31 147.361 107.956 147.564 107.623Z"
        fill="#F8F2EA" />
    <path
        d="M19.3537 30.991C19.3992 31.0367 19.4464 31.0841 19.4919 31.1298C19.3374 31.4825 19.0577 31.7323 18.7715 31.9837C18.8869 31.6049 19.0723 31.2702 19.3537 30.991Z"
        fill="#F8F2EA" />
    <path
        d="M9.50041 109.406C9.70531 109.765 9.89883 110.126 9.94111 110.554C9.69393 110.234 9.49227 109.893 9.40283 109.493C9.43536 109.463 9.46788 109.436 9.50041 109.406Z"
        fill="#F8F2EA" />
    <path
        d="M32.4906 135.991C32.4906 135.935 32.4889 135.88 32.4873 135.824C32.8093 136.011 33.1036 136.231 33.3264 136.548C33.0158 136.412 32.7036 136.282 32.4906 135.993V135.991Z"
        fill="#F8F2EA" />
    <path
        d="M147.594 55.6689C147.344 55.393 147.157 55.0942 147.224 54.5767C147.378 55.0322 147.487 55.3506 147.594 55.6689Z"
        fill="#F8F2EA" />
    <path
        d="M148.631 59.9404C148.672 59.8898 148.711 59.8392 148.751 59.7886C148.914 60.0923 148.961 60.4204 148.911 60.7731C148.818 60.4955 148.724 60.218 148.631 59.9404Z"
        fill="#F8F2EA" />
    <path
        d="M150.404 99.2376C150.446 99.2555 150.487 99.2523 150.527 99.2327C150.435 99.5298 150.342 99.8286 150.194 100.304C150.142 99.7894 150.226 99.5037 150.404 99.2392V99.2376Z"
        fill="#F8F2EA" />
    <path
        d="M62.5942 6.42095C62.9325 6.24952 63.287 6.17442 63.7993 6.23483C63.326 6.33115 63.0024 6.49606 62.6365 6.47157C62.6219 6.45524 62.6089 6.43728 62.5942 6.42095Z"
        fill="#F8F2EA" />
    <path
        d="M31.3108 135.082C31.0441 134.865 30.7774 134.649 30.5107 134.432C30.5416 134.401 30.5709 134.368 30.6018 134.337C30.9059 134.517 31.1742 134.739 31.4003 135.01C31.3613 135.021 31.332 135.046 31.3108 135.082Z"
        fill="#F8F2EA" />
    <path
        d="M149.773 101.701C149.739 101.665 149.705 101.628 149.67 101.592C149.752 101.308 149.833 101.024 149.914 100.74C149.958 101.079 149.971 101.411 149.771 101.701H149.773Z"
        fill="#F8F2EA" />
    <g clip-path="url(#clip0_13_17793)">
        <path
            d="M70.9075 110.977C71.5324 111.636 72.3635 111.999 73.2503 111.999C74.1883 111.999 75.0795 111.579 75.6971 110.841C87.6307 96.5953 103.7 78.8244 109.717 75.6299C111.043 74.9246 111.934 73.4993 111.934 72.0842V48.8287C111.933 46.9922 110.588 46 109.322 46C108.862 46 108.159 46.1258 107.444 46.7229C102.956 50.4632 81.3822 69.1136 74.2001 87.644L67.3355 76.4874C66.4136 74.9948 64.28 74.4592 62.7669 75.3416L47.6125 84.1568C46.7359 84.6676 46.1769 85.509 46.0818 86.4675C45.9867 87.4245 46.3657 88.361 47.1266 89.0357C50.2567 91.816 66.1165 105.927 70.9075 110.977ZM64.1132 79.6336L72.3606 93.0379C72.9138 93.9349 73.7654 94.45 74.6976 94.45C75.5946 94.45 76.8004 93.9013 77.238 92.3545C81.7612 76.4026 99.8365 59.1936 107.54 52.4197V71.8135C99.5467 76.1743 80.2042 98.663 73.1772 107.013C68.1593 101.948 56.6691 91.6492 51.4464 87.0031L64.1132 79.6336Z"
            fill="#F8F2EA" />
    </g>
    <defs>
        <clipPath id="clip0_13_17793">
            <rect width="66" height="66" fill="white" transform="translate(46 46)" />
        </clipPath>
    </defs>
</svg>