<svg width="20" height="20" viewBox="0 0 20 20" fill="none" xmlns="http://www.w3.org/2000/svg">
    <g clip-path="url(#clip0_14_23578)">
    <path d="M10 0.828125C4.94063 0.828125 0.828125 4.94063 0.828125 10C0.828125 15.0594 4.94063 19.1719 10 19.1719C15.0594 19.1719 19.1719 15.0594 19.1719 10C19.1719 4.94063 15.0594 0.828125 10 0.828125ZM10 17.55C5.8375 17.55 2.45 14.1625 2.45 10C2.45 5.8375 5.8375 2.45 10 2.45C14.1625 2.45 17.55 5.8375 17.55 10C17.55 14.1625 14.1625 17.55 10 17.55Z" fill="black"/>
    <path d="M15.2593 9.98752C15.2593 10.1375 15.153 10.2656 15.0058 10.2938L10.8999 11.0844C10.6562 11.2906 10.3405 11.4125 9.9999 11.4125C9.22178 11.4125 8.5874 10.7785 8.5874 10C8.5874 9.75315 8.65303 9.51877 8.76521 9.31565L9.69022 3.02502C9.7124 2.8719 9.84365 2.7594 9.9999 2.7594C10.1562 2.7594 10.2874 2.8719 10.3093 3.02502L11.1812 8.96596L15.0027 9.68159C15.153 9.7094 15.2593 9.83752 15.2593 9.98752Z" fill="black"/>
    </g>
    <defs>
    <clipPath id="clip0_14_23578">
    <rect width="20" height="20" fill="white"/>
    </clipPath>
    </defs>
    </svg>
    