<svg width="20" height="20" viewBox="0 0 20 20" fill="none" xmlns="http://www.w3.org/2000/svg">
    <path
        d="M19.4061 17.774C19.3765 17.5214 19.3817 17.5662 17.7705 3.81805C17.7176 3.36706 17.3352 3.03163 16.8861 3.03163H15.7602C15.69 2.03561 15.1475 1.28387 14.467 1.28387C13.7852 1.28387 13.2416 2.03561 13.1713 3.03163H11.5254C11.4552 2.03561 10.9127 1.28387 10.2321 1.28387C9.55039 1.28387 9.00681 2.03561 8.93646 3.03163H7.29056C7.22033 2.03561 6.67788 1.28387 5.99732 1.28387C5.31556 1.28387 4.77198 2.03561 4.70163 3.03163H3.26496C3.00684 3.03163 2.78156 3.14084 2.62014 3.31124C2.40551 3.41228 2.24931 3.6152 2.21975 3.85539L0.594626 17.7206C0.532194 18.2489 0.945732 18.7161 1.47569 18.7161H18.5716C18.8104 18.7161 19.0387 18.6133 19.1981 18.4338C19.3586 18.2534 19.4342 18.013 19.4061 17.774ZM2.81875 3.97373C2.78669 3.69975 3.00676 3.4731 3.26394 3.4731H6.84452C6.7816 4.20046 6.42106 4.78026 5.99731 4.78026C5.87553 4.78026 5.77673 4.87906 5.77673 5.00084C5.77673 5.12263 5.87553 5.22143 5.99731 5.22143C6.67748 5.22143 7.21967 4.46955 7.2904 3.4731H11.0794C11.0164 4.20046 10.6559 4.78026 10.2321 4.78026C10.1104 4.78026 10.0116 4.87906 10.0116 5.00084C10.0116 5.12263 10.1104 5.22143 10.2321 5.22143C10.9123 5.22143 11.4545 4.46955 11.5252 3.4731H15.3142C15.2513 4.20046 14.8907 4.78026 14.467 4.78026C14.3452 4.78026 14.2464 4.87906 14.2464 5.00084C14.2464 5.12263 14.3452 5.22143 14.467 5.22143C15.1471 5.22143 15.6893 4.46955 15.7601 3.4731H16.8871C17.0859 3.4731 17.3038 3.63247 17.3325 3.8732L17.5718 5.9145H3.04623L2.81875 3.97373ZM14.467 1.72505C14.891 1.72505 15.2517 2.30478 15.3143 3.03163H13.6173C13.68 2.30478 14.0418 1.72505 14.467 1.72505ZM10.2321 1.72505C10.6562 1.72505 11.0169 2.30478 11.0794 3.03163H9.38245C9.44515 2.30478 9.80693 1.72505 10.2321 1.72505ZM5.99731 1.72505C6.42136 1.72505 6.78206 2.30478 6.84461 3.03163H5.14761C5.21032 2.30478 5.5721 1.72505 5.99731 1.72505ZM18.8684 18.1408C18.7916 18.2272 18.6862 18.2749 18.5716 18.2749H4.84684C4.64636 18.2749 4.47747 18.1241 4.45391 17.9248L3.09789 6.35568H17.6235L18.9679 17.8257C18.9813 17.9397 18.9451 18.0546 18.8684 18.1408Z"
        fill="black" />
    <path
        d="M17.5667 13.8181H15.2565L14.8466 10.8123H17.0832C17.205 10.8123 17.3038 10.7135 17.3038 10.5917C17.3038 10.4699 17.205 10.3711 17.0832 10.3711H14.7864L14.4815 8.13535C14.465 8.01443 14.355 7.92711 14.2331 7.94665C14.1124 7.96302 14.0278 8.07446 14.0443 8.1951L14.3411 10.3711H11.0164L10.7115 8.13535C10.695 8.01443 10.5842 7.92712 10.4631 7.94665C10.3425 7.96302 10.2579 8.07446 10.2744 8.1951L10.5712 10.3711H7.24659L6.94172 8.13536C6.92521 8.01444 6.8152 7.92712 6.69327 7.94665C6.57264 7.96302 6.48805 8.07418 6.50457 8.1951L6.80129 10.3711H4.55115C4.42937 10.3711 4.33057 10.4699 4.33057 10.5917C4.33057 10.7135 4.42937 10.8123 4.55115 10.8123H6.86146L7.27133 13.8181H5.0347C4.91291 13.8181 4.81411 13.9169 4.81411 14.0387C4.81411 14.1605 4.91291 14.2593 5.0347 14.2593H7.3315L7.63637 16.495C7.65145 16.6056 7.74609 16.6857 7.85466 16.6857C7.86457 16.6857 7.87463 16.6852 7.88482 16.6837C8.00546 16.6674 8.09004 16.5559 8.07353 16.4353L7.77681 14.2593H11.1014L11.4063 16.495C11.4214 16.6056 11.5161 16.6857 11.6246 16.6857C11.6345 16.6857 11.6446 16.6852 11.6548 16.6837C11.7754 16.6674 11.86 16.5559 11.8435 16.4353L11.5467 14.2593H14.8714L15.1763 16.495C15.1914 16.6056 15.286 16.6857 15.3946 16.6857C15.4045 16.6857 15.4146 16.6852 15.4247 16.6837C15.5454 16.6674 15.63 16.5559 15.6135 16.4353L15.3167 14.2593H17.5667C17.6885 14.2593 17.7873 14.1605 17.7873 14.0387C17.7873 13.9169 17.6885 13.8181 17.5667 13.8181ZM7.71664 13.8181L7.30677 10.8123H10.6313L11.0413 13.8181H7.71664ZM11.4866 13.8181L11.0766 10.8123H14.4013L14.8112 13.8181H11.4866Z"
        fill="black" />
</svg>
    