<svg width="46" height="47" viewBox="0 0 46 47" fill="none" xmlns="http://www.w3.org/2000/svg">
    <path d="M0 23.0404C0.083884 17.1896 2.02364 12.0381 5.94865 7.68038C9.14762 4.12946 13.1068 1.84864 17.7118 0.688408C19.1322 0.330641 20.5757 0.12286 22.0378 0.0392696C25.0609 -0.13412 28.003 0.263292 30.856 1.29886C33.7759 2.35878 36.3559 3.97374 38.608 6.12321C40.5245 7.95216 42.0188 10.0883 43.233 12.445C44.4832 14.8725 45.2955 17.428 45.6599 20.1348C45.8234 21.3486 45.8969 22.5676 45.8571 23.7904C45.6727 29.4836 43.7092 34.4665 39.8804 38.6608C36.6364 42.2141 32.6446 44.4974 27.9585 45.5281C26.6144 45.8238 25.2543 46.0091 23.8771 46.0397C17.7204 46.1768 12.2916 44.2394 7.66235 40.1449C3.98615 36.893 1.65351 32.8095 0.562544 28.0071C0.224165 26.5188 0.0426529 25.0084 0.0218004 23.4799C0.0199047 23.3414 0.00853057 23.2033 0.000473921 23.0409L0 23.0404Z" fill="black"/>
    <path d="M24.1089 43.7561C20.927 43.8144 17.9593 43.287 15.1134 42.1134C13.0717 41.2718 11.1642 40.1937 9.50406 38.7139C6.77475 36.2817 4.77907 33.3393 3.52176 29.8911C2.97249 28.3855 2.60472 26.8346 2.409 25.244C2.21564 23.6763 2.15734 22.1019 2.37013 20.5347C2.65638 18.4273 3.26964 16.4111 4.1862 14.4928C5.99373 10.7098 8.66048 7.68714 12.176 5.44405C14.5039 3.95901 17.0375 2.97026 19.7531 2.46919C21.09 2.22224 22.4383 2.10617 23.7966 2.11907C25.9008 2.13913 27.9675 2.43241 29.9656 3.10209C31.357 3.56829 32.6527 4.25516 33.8792 5.06527C37.8597 7.69478 40.6828 11.2763 42.4577 15.7094C43.2278 17.6329 43.7074 19.631 43.8993 21.6983C43.9922 22.6966 44.0444 23.6973 43.9609 24.697C43.8619 25.8845 43.6249 27.0495 43.3041 28.1964C42.3515 31.5968 40.6691 34.5846 38.2715 37.1587C35.765 39.8498 32.7688 41.7853 29.2959 42.9541C28.2528 43.3052 27.1647 43.4791 26.0728 43.6118C25.3837 43.6954 24.6918 43.7327 24.1089 43.7566V43.7561Z" fill="#F8F2EA"/>
    <path d="M23.9054 41.6272C21.0703 41.6793 18.426 41.208 15.8903 40.1591C14.0711 39.407 12.3715 38.4435 10.8923 37.121C8.46042 34.9473 6.68224 32.3177 5.56196 29.2361C5.07254 27.8905 4.74486 26.5045 4.57046 25.0829C4.39818 23.6819 4.34624 22.2749 4.53584 20.8743C4.79089 18.9909 5.33731 17.189 6.15398 15.4747C7.76452 12.0938 10.1406 9.39244 13.273 7.3878C15.3472 6.06062 17.6047 5.17697 20.0243 4.72917C21.2155 4.50848 22.4169 4.40474 23.6271 4.41627C25.502 4.4342 27.3435 4.6963 29.1238 5.29479C30.3636 5.71143 31.5181 6.32529 32.6109 7.04928C36.1576 9.39927 38.6731 12.6 40.2545 16.5619C40.9407 18.281 41.368 20.0666 41.539 21.9142C41.6218 22.8064 41.6682 23.7007 41.5939 24.5942C41.5057 25.6554 41.2945 26.6966 41.0087 27.7215C40.1599 30.7605 38.6608 33.4306 36.5246 35.7311C34.2912 38.1362 31.6216 39.8659 28.5272 40.9105C27.5977 41.2242 26.6282 41.3796 25.6553 41.4983C25.0413 41.573 24.4248 41.6063 23.9054 41.6276V41.6272Z" fill="black"/>
    <path d="M6.37125 9.12528C6.85513 8.39065 7.4025 7.70473 7.98732 7.05129C8.31196 6.68875 8.6982 6.38782 9.09582 6.05872C8.23518 7.15112 7.30061 8.13844 6.41154 9.16589C6.37647 9.17401 6.35798 9.16589 6.37125 9.12528Z" fill="#F8F2EA"/>
    <path d="M36.7296 6.77673C37.7774 7.637 38.7286 8.59422 39.5731 9.65797C39.5802 9.69284 39.5703 9.71051 39.5319 9.69761C38.6291 8.69262 37.6575 7.75641 36.6851 6.82115C36.6784 6.78485 36.6907 6.76718 36.7291 6.77673H36.7296Z" fill="#F8F2EA"/>
    <path d="M25.6723 44.4391C25.1856 44.5027 24.6993 44.5681 24.2122 44.6292C23.7544 44.687 23.2951 44.7353 22.8378 44.7993C22.7169 44.8165 22.6018 44.7974 22.4842 44.7945C22.4496 44.7935 22.3847 44.8246 22.3928 44.7458C22.398 44.6956 22.4387 44.676 22.4876 44.6727C22.662 44.6612 22.8359 44.6431 23.0108 44.6369C23.797 44.6092 24.5775 44.5184 25.3571 44.4176C25.4609 44.4043 25.5657 44.3875 25.6723 44.4386V44.4391Z" fill="#F8F2EA"/>
    <path d="M14.4062 3.80196C15.3465 3.27032 16.3744 2.97131 17.3957 2.65558C17.4365 2.64172 17.4464 2.66035 17.4393 2.69761C16.4299 3.04821 15.4247 3.41171 14.4456 3.84256C14.4067 3.85402 14.3972 3.8373 14.4062 3.80196Z" fill="#F8F2EA"/>
    <path d="M35.6702 40.4282C36.4915 39.7031 37.3322 38.9991 38.0933 38.2052C37.9094 38.5673 36.1872 40.156 35.6702 40.4282Z" fill="#F8F2EA"/>
    <path d="M39.344 7.63446C39.7032 7.90052 41.0828 9.53315 41.2752 9.90429C40.5814 9.19163 40.0359 8.34999 39.344 7.63446Z" fill="#F8F2EA"/>
    <path d="M35.7805 5.42495C35.2828 5.13358 34.7857 4.84173 34.2881 4.55035C34.8364 4.7524 35.4165 4.89761 35.7805 5.42495Z" fill="#F8F2EA"/>
    <path d="M6.2577 10.3325C6.59844 9.83809 6.98327 9.37763 7.36525 8.91573C7.39179 8.88325 7.41454 8.80683 7.47757 8.85459C7.54723 8.90761 7.48563 8.95012 7.45056 8.99216C7.06621 9.45262 6.68186 9.91356 6.29798 10.3745C6.26433 10.3802 6.24537 10.3712 6.25817 10.3325H6.2577Z" fill="#F8F2EA"/>
    <path d="M39.5327 9.69748C39.5465 9.68411 39.5602 9.67121 39.5739 9.65784C40.0337 10.1899 40.4346 10.7655 40.8151 11.3564C40.8279 11.3936 40.8104 11.3999 40.7791 11.3922C40.3953 10.8037 39.9597 10.254 39.5327 9.69748Z" fill="#F8F2EA"/>
    <path d="M21.9822 1.68205C22.3917 1.64193 22.7993 1.57697 23.2106 1.56598C23.2125 1.58891 23.2149 1.61136 23.2168 1.63428C22.8182 1.6639 22.4197 1.69351 22.0206 1.72313C21.9827 1.73316 21.9718 1.7174 21.9818 1.68157L21.9822 1.68205Z" fill="#F8F2EA"/>
    <path d="M1.69123 23.017V24.1457C1.67133 24.1457 1.65142 24.1447 1.63152 24.1442C1.54716 23.7382 1.69502 23.3399 1.69123 23.017Z" fill="#F8F2EA"/>
    <path d="M2.8578 16.1226C2.78292 16.328 2.70615 16.5334 2.63364 16.7397C2.61468 16.7937 2.59193 16.8372 2.52937 16.8119C2.44881 16.7789 2.50994 16.7321 2.52795 16.6948C2.62037 16.5028 2.71515 16.3127 2.80946 16.1216C2.82605 16.1059 2.84216 16.1064 2.85828 16.1231L2.8578 16.1226Z" fill="#F8F2EA"/>
    <path d="M18.4479 2.08716C18.0839 2.17839 17.7204 2.26962 17.3564 2.36133C17.6849 2.17648 18.0469 2.11247 18.409 2.04751C18.446 2.037 18.4569 2.05229 18.4479 2.08763V2.08716Z" fill="#F8F2EA"/>
    <path d="M2.51537 28.9424C2.34096 28.5879 2.29168 28.1982 2.24097 27.8084C2.33243 28.1862 2.4239 28.5645 2.51537 28.9424Z" fill="#F8F2EA"/>
    <path d="M6.25727 10.3323C6.27054 10.3462 6.28381 10.3605 6.29708 10.3744C6.13073 10.6051 5.96438 10.8363 5.79804 11.067C5.78382 11.0574 5.77008 11.0479 5.75586 11.0383C5.91652 10.799 6.06912 10.554 6.25727 10.3323Z" fill="#F8F2EA"/>
    <path d="M9.28271 39.5862C9.50546 39.7643 9.7282 39.9425 9.95094 40.1207C9.60261 39.9588 9.38698 39.7854 9.28271 39.5862Z" fill="#F8F2EA"/>
    <path d="M26.6246 1.34766C26.3715 1.32855 26.118 1.30897 25.8464 1.28843C26.1256 1.14131 26.3739 1.31422 26.6294 1.30085C26.6275 1.31614 26.626 1.3319 26.6241 1.34718L26.6246 1.34766Z" fill="#F8F2EA"/>
    <path d="M31.2673 3.25885C31.5597 3.29659 31.8133 3.40979 32.0441 3.57984C31.7853 3.47284 31.5261 3.36585 31.2673 3.25885Z" fill="#F8F2EA"/>
    <path d="M17.4394 2.69739C17.4247 2.68353 17.4104 2.6692 17.3958 2.65535C17.6081 2.55695 17.8351 2.51444 18.0583 2.45856C18.063 2.47384 18.0678 2.48913 18.0725 2.50441C17.8611 2.5689 17.6502 2.6329 17.4389 2.69739H17.4394Z" fill="#F8F2EA"/>
    <path d="M27.9088 44.2557C28.0894 44.2018 28.2699 44.1473 28.4505 44.0933C28.3429 44.2815 28.1448 44.2385 27.987 44.2968C27.9481 44.3073 27.9041 44.3288 27.9088 44.2557Z" fill="#F8F2EA"/>
    <path d="M24.4126 45.0625C24.7022 45.0573 24.9879 44.9746 25.2803 45.03C24.9908 45.0353 24.706 45.1303 24.4126 45.0625Z" fill="#F8F2EA"/>
    <path d="M8.63159 38.4307C8.79604 38.5864 8.96097 38.7426 9.12542 38.8983C9.11499 38.9093 9.10409 38.9207 9.09366 38.9317C8.91168 38.7937 8.75244 38.6322 8.63159 38.4307Z" fill="#F8F2EA"/>
    <path d="M9.62282 39.3878C9.44794 39.2669 9.28965 39.1279 9.15601 38.9612C9.33894 39.0716 9.49865 39.2101 9.64936 39.3601C9.65315 39.3811 9.64414 39.3907 9.62282 39.3878Z" fill="#F8F2EA"/>
    <path d="M3.47157 32.0912C3.35593 31.9006 3.2801 31.6947 3.25024 31.4697C3.33365 31.6684 3.41706 31.8676 3.50047 32.0663C3.50047 32.0859 3.491 32.094 3.47204 32.0916L3.47157 32.0912Z" fill="#F8F2EA"/>
    <path d="M36.7298 6.77669C36.7151 6.7915 36.7005 6.80631 36.6858 6.82112C36.5725 6.71699 36.4592 6.61286 36.3464 6.50873C36.5033 6.56079 36.6242 6.65871 36.7303 6.77669H36.7298Z" fill="#F8F2EA"/>
    <path d="M18.4478 2.08711C18.435 2.07373 18.4217 2.06036 18.4089 2.04698C18.5923 1.98584 18.7786 1.93903 18.9729 1.93665C18.9772 1.94142 18.981 1.94668 18.9852 1.95145C18.8132 2.02597 18.6284 2.04698 18.4478 2.08663V2.08711Z" fill="#F8F2EA"/>
    <path d="M12.3699 41.2989C12.5054 41.3787 12.6414 41.4584 12.777 41.5377C12.6125 41.511 12.4741 41.4336 12.3699 41.2989Z" fill="#F8F2EA"/>
    <path d="M27.9088 44.2557C27.9183 44.3015 27.9609 44.2829 27.987 44.2968C27.8249 44.335 27.6633 44.3737 27.5012 44.4119C27.6254 44.3211 27.7657 44.2839 27.9088 44.2557Z" fill="#F8F2EA"/>
    <path d="M10.1999 39.8439C10.0747 39.7689 9.95579 39.6858 9.85627 39.5779C9.85532 39.5592 9.8648 39.5526 9.88233 39.5569C10.0065 39.6113 10.0946 39.714 10.1989 39.7952C10.2155 39.811 10.216 39.8272 10.1999 39.8439Z" fill="#F8F2EA"/>
    <path d="M14.4062 3.80181C14.4194 3.81518 14.4322 3.82903 14.4455 3.84241C14.3455 3.91263 14.2346 3.95657 14.1138 3.97568C14.1995 3.89591 14.2962 3.83763 14.4057 3.80133L14.4062 3.80181Z" fill="#F8F2EA"/>
    <path d="M21.9821 1.68195C21.9949 1.6958 22.0082 1.70965 22.021 1.7235C21.8964 1.78751 21.7665 1.75646 21.6348 1.72685C21.7504 1.71204 21.8665 1.69675 21.9821 1.68195Z" fill="#F8F2EA"/>
    <path d="M2.85765 16.1225C2.84154 16.1225 2.82495 16.1216 2.80884 16.1211C2.8567 16.0146 2.90457 15.908 2.95244 15.802C2.94912 15.9205 2.93016 16.0313 2.85765 16.1225Z" fill="#F8F2EA"/>
    <path d="M3.65552 14.0672C3.71286 13.9492 3.77021 13.8308 3.82755 13.7128C3.84177 13.7195 3.85646 13.7261 3.87068 13.7328C3.81618 13.8522 3.78205 13.9812 3.65552 14.0672Z" fill="#F8F2EA"/>
    <path d="M6.37132 9.12531C6.38459 9.13868 6.39834 9.15253 6.41161 9.16591C6.36658 9.26908 6.28507 9.34216 6.20166 9.41572C6.23531 9.3049 6.28934 9.20698 6.37132 9.12531Z" fill="#F8F2EA"/>
    <path d="M3.49987 32.0663C3.55958 32.1714 3.61598 32.277 3.6283 32.4021C3.55627 32.3085 3.4975 32.2087 3.47144 32.0917C3.48091 32.0831 3.49039 32.0749 3.49987 32.0663Z" fill="#F8F2EA"/>
    <path d="M10.1997 39.8439C10.1997 39.8277 10.1992 39.8115 10.1987 39.7952C10.2926 39.8497 10.3783 39.9142 10.4433 40.0068C10.3528 39.9672 10.2618 39.929 10.1997 39.8444V39.8439Z" fill="#F8F2EA"/>
    <path d="M18.9729 1.93708C19.0715 1.88693 19.1748 1.86496 19.3241 1.88263C19.1862 1.91081 19.0919 1.95905 18.9852 1.95189C18.981 1.94711 18.9772 1.94186 18.9729 1.93708Z" fill="#F8F2EA"/>
    <path d="M9.85622 39.578C9.77849 39.5145 9.70077 39.4515 9.62305 39.3879C9.63205 39.3789 9.64058 39.3693 9.64959 39.3602C9.73821 39.4128 9.81641 39.4777 9.88228 39.557C9.87091 39.5604 9.86238 39.5675 9.85622 39.578Z" fill="#F8F2EA"/>
    <path d="M34.1825 20.285C34.2108 20.2456 34.2312 20.201 34.2425 20.1538C34.2538 20.0993 34.2538 20.0432 34.2425 19.9888C34.2314 19.951 34.2164 19.9146 34.1975 19.88C34.1792 19.8472 34.155 19.818 34.1263 19.7938L29.3113 15.23L29.2963 15.215L29.2888 15.2075C29.2747 15.1951 29.2597 15.1838 29.2438 15.1738C29.226 15.1589 29.2057 15.1475 29.1838 15.14H29.18C29.1613 15.1325 29.1425 15.125 29.12 15.1175L29.045 15.11L23.0263 14.7163C23.009 14.7125 22.9911 14.7125 22.9738 14.7163L16.9513 15.11C16.8641 15.1131 16.7807 15.1463 16.715 15.2038L16.7038 15.215L16.6888 15.23L11.8738 19.7938C11.845 19.818 11.8209 19.8472 11.8025 19.88C11.784 19.9129 11.7701 19.9483 11.7613 19.985C11.747 20.0402 11.7457 20.098 11.7575 20.1538C11.7689 20.201 11.7892 20.2456 11.8175 20.285C11.8251 20.2971 11.8339 20.3084 11.8438 20.3188L22.7075 33.1775L22.715 33.185C22.7282 33.2007 22.7433 33.2145 22.76 33.2263C22.826 33.2852 22.9116 33.3173 23 33.3163C23.0749 33.3172 23.1483 33.2949 23.21 33.2525C23.2209 33.2448 23.231 33.236 23.24 33.2263C23.2568 33.2145 23.2719 33.2007 23.285 33.185C23.2888 33.1813 23.2925 33.1813 23.2925 33.1775L34.1563 20.3188C34.1662 20.3084 34.175 20.2971 34.1825 20.285ZM17.3338 15.9275L22.1413 16.7375L17.3075 20.8325L17.3338 15.9275ZM17.9488 21.2713L23 16.9925L28.0513 21.2713H17.948H17.9488ZM28.6925 20.8325L23.8588 16.7375L28.6663 15.9275L28.6925 20.8325ZM16.5838 16.3625L16.5538 21.1288L12.8375 19.91L16.5838 16.3625ZM13.265 20.84L16.6663 21.9575L20.9675 29.9563L13.265 20.84ZM17.5554 22.022H28.4447L23 32.15L17.5554 22.022Z" fill="#F8F2EA"/>
    </svg>
    