<svg width="21" height="21" viewBox="0 0 21 21" fill="none" xmlns="http://www.w3.org/2000/svg">
    <g clip-path="url(#clip0_13_21960)">
        <path
            d="M0.158898 19.2099L0.114962 19.2541H0.259819C0.287292 19.2609 0.313445 19.2709 0.342956 19.2709H20.6567C20.6862 19.2709 20.7127 19.2609 20.7399 19.2541H20.8847L20.8404 19.2102C20.9346 19.1489 21 19.0483 21 18.9273V8.68389C21 8.6502 20.9943 8.61766 20.9852 8.586C20.9849 8.58528 20.9852 8.58435 20.9849 8.58363L20.2383 6.14182C20.2134 6.06067 20.1594 5.99179 20.0878 5.94819C19.8085 5.77954 13.3666 1.91119 10.5414 1.73721C10.5269 1.73539 10.5145 1.729 10.4998 1.729C10.4758 1.729 10.4493 1.7317 10.425 1.73242C10.4006 1.7317 10.3737 1.729 10.3501 1.729C10.3353 1.729 10.3229 1.73539 10.3085 1.73721C7.48317 1.91119 1.0412 5.77954 0.76244 5.94786C0.684148 5.99515 0.627824 6.0714 0.606242 6.16021L0.00952623 8.60224C0.00820484 8.60764 0.00985657 8.61281 0.00886553 8.6187C0.00484632 8.64001 1.24354e-06 8.66159 1.24354e-06 8.68389V18.9276C-0.000329103 19.0483 0.0651896 19.1489 0.158898 19.2099ZM17.5479 18.5675H3.45195H1.7646L3.30792 17.0133L3.65121 16.6676L3.99449 16.322L6.82303 13.4744L7.164 13.1311L7.18531 13.1096C7.29878 12.9956 7.41798 12.8886 7.54115 12.7881C7.68986 12.6663 7.8471 12.5584 8.00847 12.4575C8.22083 12.3244 8.44095 12.2054 8.67126 12.1099C9.21991 11.8819 9.81415 11.7622 10.4274 11.7622C10.7975 11.7622 11.1596 11.8108 11.5106 11.896C12.169 12.0556 12.7839 12.3563 13.3136 12.7895C13.3595 12.8274 13.4024 12.8689 13.447 12.9085C13.5087 12.9628 13.5718 13.0148 13.6307 13.0728L13.6915 13.1324L14.0405 13.4757L17.0055 16.3958L17.3487 16.7341L17.692 17.0724L19.2097 18.567H17.5478L17.5479 18.5675ZM6.27548 10.3893C6.77915 9.99779 7.23326 9.70824 7.89274 9.77145C8.79354 9.85756 9.29209 10.8197 10.3368 10.3166C11.0272 9.9843 11.5606 9.68005 12.3401 9.81599C13.2373 9.97224 13.4981 10.8224 14.5082 9.92798C14.7566 9.70753 15.1012 10.0907 14.8525 10.3112C14.5118 10.6126 14.0814 10.9978 13.5799 10.8838C12.5097 10.64 12.0961 10.0412 10.8789 10.6273C10.3351 10.8891 9.77825 11.1037 9.17746 10.8767C8.18493 10.5005 7.67554 9.95121 6.61915 10.7728C6.35895 10.9751 6.01296 10.5932 6.27548 10.3893ZM6.27548 8.32954C6.77915 7.93797 7.23326 7.64848 7.89274 7.71163C8.79354 7.79779 9.29209 8.75982 10.3368 8.25676C11.0272 7.92448 11.5606 7.62023 12.3401 7.75623C13.2373 7.91242 13.4981 8.76285 14.5082 7.86821C14.7566 7.64776 15.1012 8.03096 14.8525 8.25141C14.5118 8.5528 14.0814 8.93804 13.5799 8.82401C12.5097 8.58027 12.0961 7.98152 10.8789 8.56756C10.3351 8.82941 9.77825 9.04392 9.17746 8.8168C8.18493 8.44081 7.67554 7.8915 6.61915 8.71302C6.35895 8.91525 6.01296 8.53353 6.27548 8.32954ZM14.8524 12.3707C14.8109 12.4076 14.7673 12.4462 14.7227 12.4847L14.3101 12.7784L14.1122 12.584C14.0344 12.5075 13.952 12.4398 13.8708 12.3687C14.0512 12.3251 14.2564 12.2104 14.5085 11.9875C14.7573 11.7673 15.1012 12.1501 14.8524 12.3707ZM7.72944 11.8255C7.36204 12.0458 7.01369 12.3083 6.69838 12.6261L6.59057 12.7344L6.24393 12.4863C6.25483 12.474 6.26105 12.4605 6.27581 12.4491C6.73593 12.0908 7.15717 11.8216 7.72944 11.8255ZM20.3134 18.5843H20.2045L17.6914 16.1091L17.3481 15.7709L17.0048 15.4329L14.8062 13.2678L17.0048 11.7035L17.3481 11.4591L17.6914 11.2151L20.3134 9.34954V18.5843H20.3134ZM1.23891 6.4632C2.16102 5.91653 8.03771 2.48908 10.4246 2.41899C12.8195 2.48908 18.7313 5.94169 19.6204 6.46887L20.2561 8.54762L17.6914 10.3722V6.59495C17.6914 6.40516 17.5378 6.25166 17.3481 6.25166H3.65159C3.46186 6.25166 3.30831 6.40522 3.30831 6.59495V10.3847L0.731553 8.53975L1.23891 6.4632ZM0.68624 9.35207L3.30825 11.2292L3.65154 11.4749L3.99482 11.721L6.1004 13.2276L3.99482 15.3474L3.65154 15.6931L3.30825 16.0387L0.780279 18.584H0.68624V9.35207Z"
            fill="black" />
    </g>
    <defs>
        <clipPath id="clip0_13_21960">
            <rect width="21" height="21" fill="white" />
        </clipPath>
    </defs>
</svg>
    