<svg width="16" height="14" viewBox="0 0 16 14" fill="none" xmlns="http://www.w3.org/2000/svg">
    <path
        d="M0.121065 13.6361L0.0875899 13.6698H0.197957C0.218889 13.675 0.238815 13.6826 0.2613 13.6826H15.7385C15.7609 13.6826 15.7811 13.675 15.8018 13.6698H15.9122L15.8784 13.6364C15.9502 13.5896 16 13.513 16 13.4208V5.61632C16 5.59065 15.9956 5.56586 15.9888 5.54174C15.9885 5.54119 15.9888 5.54048 15.9885 5.53993L15.4196 3.67951C15.4007 3.61768 15.3596 3.5652 15.305 3.53197C15.0922 3.40349 10.1841 0.456168 8.0315 0.32361C8.02051 0.322226 8.01108 0.31736 7.99983 0.31736C7.98159 0.31736 7.96137 0.319415 7.94287 0.319961C7.92424 0.319415 7.90377 0.31736 7.88577 0.31736C7.87453 0.31736 7.86509 0.322226 7.8541 0.32361C5.70146 0.456168 0.793293 3.40349 0.580907 3.53172C0.521256 3.56776 0.478342 3.62586 0.461898 3.69352L0.00725808 5.55411C0.00625131 5.55822 0.00750977 5.56217 0.00675469 5.56666C0.00369244 5.58289 9.47456e-07 5.59933 9.47456e-07 5.61632V13.4211C-0.000250745 13.513 0.0496682 13.5896 0.121065 13.6361ZM13.3698 13.1467H2.63006H1.34446L2.52032 11.9625L2.78187 11.6992L3.04342 11.4358L5.1985 9.2662L5.45829 9.00465L5.47452 8.98829C5.56098 8.90145 5.65179 8.81991 5.74563 8.74331C5.85894 8.65056 5.97874 8.56834 6.10169 8.49145C6.26349 8.39001 6.4312 8.29936 6.60667 8.22658C7.02469 8.05287 7.47745 7.96172 7.94467 7.96172C8.22669 7.96172 8.50255 7.99876 8.76997 8.06365C9.27163 8.18522 9.74012 8.41434 10.1437 8.7444C10.1787 8.77326 10.2114 8.80493 10.2453 8.83505C10.2923 8.87641 10.3404 8.91605 10.3853 8.96022L10.4316 9.0057L10.6975 9.2672L12.9565 11.492L13.2181 11.7498L13.4796 12.0075L14.636 13.1463H13.3698L13.3698 13.1467ZM4.78132 6.91569C5.16506 6.61739 5.51106 6.39678 6.01352 6.44494C6.69984 6.51054 7.07969 7.24364 7.87562 6.86027C8.4017 6.60711 8.8081 6.3753 9.40197 6.47887C10.0855 6.59792 10.2842 7.24565 11.0539 6.5642C11.2431 6.39623 11.5057 6.6882 11.3162 6.85616C11.0566 7.08579 10.7287 7.3793 10.3466 7.29243C9.53121 7.10668 9.21605 6.65049 8.28869 7.09703C7.87436 7.2965 7.45009 7.45997 6.99235 7.28701C6.23614 7.00042 5.84803 6.5819 5.04316 7.20786C4.84491 7.36198 4.58131 7.07102 4.78132 6.91569ZM4.78132 5.34634C5.16506 5.048 5.51106 4.82744 6.01352 4.87555C6.69984 4.9412 7.07969 5.67417 7.87562 5.29088C8.4017 5.03772 8.8081 4.80592 9.40197 4.90953C10.0855 5.02854 10.2842 5.67648 11.0539 4.99485C11.2431 4.82689 11.5057 5.11885 11.3162 5.28682C11.0566 5.51644 10.7287 5.80996 10.3466 5.72308C9.53121 5.53737 9.21605 5.08118 8.28869 5.52768C7.87436 5.72719 7.45009 5.89063 6.99235 5.71759C6.23614 5.43112 5.84803 5.0126 5.04316 5.63851C4.84491 5.79259 4.58131 5.50176 4.78132 5.34634ZM11.3161 8.42533C11.2845 8.45344 11.2513 8.48281 11.2173 8.51217L10.9029 8.73592L10.7522 8.5878C10.6929 8.52954 10.6301 8.47798 10.5682 8.42383C10.7057 8.3906 10.862 8.30322 11.0541 8.13337C11.2436 7.96558 11.5057 8.25725 11.3161 8.42533ZM5.8891 8.00996C5.60917 8.1778 5.34377 8.37781 5.10353 8.61994L5.02139 8.70245L4.75728 8.51343C4.76559 8.50399 4.77033 8.49375 4.78157 8.48507C5.13213 8.21203 5.45308 8.00694 5.8891 8.00996ZM15.4769 13.1595H15.3939L13.4791 11.2737L13.2176 11.0159L12.956 10.7584L11.2809 9.10885L12.956 7.917L13.2176 7.73079L13.4791 7.54483L15.4769 6.12348V13.1595H15.4769ZM0.943931 3.92436C1.64649 3.50785 6.12397 0.896462 7.94253 0.843061C9.76722 0.896462 14.2715 3.52702 14.9489 3.92868L15.4332 5.5125L13.4791 6.90268V4.02475C13.4791 3.88015 13.3621 3.7632 13.2176 3.7632H2.78217C2.63761 3.7632 2.52062 3.88019 2.52062 4.02475V6.91216L0.557374 5.5065L0.943931 3.92436ZM0.52285 6.12541L2.52057 7.55557L2.78212 7.74279L3.04367 7.9303L4.64792 9.07818L3.04367 10.6933L2.78212 10.9566L2.52057 11.22L0.594498 13.1592H0.52285V6.12541Z"
        fill="#E2DCD5" />
</svg>
    