<svg width="46" height="46" viewBox="0 0 46 46" fill="none" xmlns="http://www.w3.org/2000/svg">
    <path
        d="M23.7218 2.28236C26.5503 2.23689 29.3843 2.37899 32.2128 2.18573C32.3302 2.18004 32.442 2.14594 32.5594 2.1232C33.778 2.11752 34.9854 2.25394 36.1928 2.3392C37.4897 2.42446 38.3505 3.14065 38.9989 4.20926C39.7815 5.48818 40.0722 6.93194 40.374 8.3757C40.7486 10.1605 40.8548 11.9851 41.0001 13.7983C41.1342 14.0143 41.1678 14.253 41.1175 14.4918C40.9833 15.1454 41.0392 15.8048 41.0728 16.4585C41.056 18.9026 41.0951 21.3411 41.2181 23.7852C41.3075 25.5757 41.5144 27.3605 41.4696 29.1624C41.4026 31.7202 40.5809 34.028 39.2169 36.1538C39.0101 36.4778 38.6971 36.6824 38.3505 36.8359C35.9021 37.9045 33.3531 38.5298 30.6868 38.6491C29.8818 38.6889 29.7309 38.5866 29.703 37.7681C29.6694 36.6654 29.6694 35.5684 29.6694 34.4656C29.6638 31.4929 29.6694 28.5201 29.6694 25.553C29.6694 25.3597 29.6694 25.1608 29.6806 24.9675C29.7141 24.3025 29.9042 24.0581 30.5247 23.8648C31.4414 23.5806 32.3917 23.5295 33.342 23.5408C33.7109 23.5465 34.0854 23.5749 34.4543 23.5522C35.1587 23.5124 35.3767 23.2623 35.399 22.5291C35.4438 22.0971 35.4549 21.6708 35.3655 21.2388C35.2761 20.8125 35.3543 20.3748 35.3487 19.9428C35.3431 19.7495 35.3655 19.5506 35.2984 19.363C35.0581 18.1296 34.6947 17.8397 33.4538 17.8226C32.3861 17.8113 31.324 17.8567 30.2619 17.9818C29.5297 18.0671 29.1999 17.7829 29.2055 17.0269C29.211 16.1572 29.144 15.2819 29.3005 14.4122C29.5409 13.0878 30.2116 12.1954 31.5476 11.86C32.6488 11.5872 33.7612 11.4394 34.896 11.5133C35.4829 11.5531 35.6674 11.428 35.6785 10.8199C35.7009 9.58641 35.7847 8.34728 35.6059 7.11951C35.5052 6.42037 35.1866 6.09069 34.5047 5.94291C34.2419 5.88607 33.9792 5.86333 33.7109 5.8747C32.688 5.91449 31.6706 5.77239 30.6476 5.74965C29.9657 5.7326 29.2837 5.77239 28.6185 5.93722C28.1993 5.97133 27.8248 6.17027 27.4223 6.26122C27.3217 6.30101 27.2155 6.34079 27.1148 6.38058C26.4273 6.6591 25.7286 6.92057 25.1472 7.39803C24.4038 8.01191 24.0181 8.85316 23.7945 9.77967C23.4088 11.4337 23.297 13.1105 23.3193 14.8044C23.3305 15.5149 23.3473 16.2197 23.3081 16.9302C23.269 17.7715 23.0287 17.9932 22.2125 18.0045C21.4858 18.0102 20.7592 18.0045 20.0325 18.0045C19.8257 18.0045 19.6188 18.0102 19.412 18.0443C18.4897 18.1978 17.9866 18.7548 17.9866 19.7041C17.9866 20.4544 18.0537 21.2104 18.1096 21.955C18.1375 22.3017 18.1375 22.6484 18.1878 22.9895C18.322 23.9444 18.5847 24.1377 19.5238 24.0297C20.2449 23.9501 20.966 23.8535 21.6927 23.8762C21.8268 23.8819 21.961 23.8762 22.0896 23.8932C22.7547 23.9671 22.9951 24.2172 23.0454 24.905C23.1908 26.8774 23.1908 28.8441 23.0622 30.8165C23.0398 31.1461 23.0622 31.4815 23.0454 31.8112C23.0063 32.4705 22.9448 33.1242 22.956 33.7836C22.956 33.92 22.9336 34.0564 22.8274 34.153C22.7659 35.3467 22.8106 36.5346 22.9169 37.7226C22.9336 37.9159 22.9392 38.1148 22.9504 38.3081C22.9783 38.7344 22.7995 38.9561 22.369 38.9788C20.3287 39.0925 18.2884 39.2801 16.237 39.1152C14.465 38.9674 12.6818 38.9618 10.9098 38.7742C8.98689 38.5696 7.159 38.0637 5.41496 37.2224C4.55412 36.8075 4.09016 36.0799 3.86098 35.1875C3.38025 33.3345 3.10634 31.4417 2.79331 29.5546C1.9716 24.6492 2.07781 19.6984 2.12812 14.7532C2.15048 12.6956 2.35171 10.6607 2.71505 8.64285C2.78772 8.3018 2.68151 7.91528 2.97219 7.6254C2.99455 7.60834 3.00014 7.58561 2.98896 7.56287C3.03368 7.30141 3.00573 7.00583 3.26845 6.82394C3.59266 6.11343 3.94482 5.41997 4.40319 4.79472C5.48204 3.32823 7.00808 2.67456 8.72417 2.3733C10.6694 2.03226 12.6259 2.15731 14.5768 2.23689C17.6177 2.3733 20.6697 2.54383 23.7218 2.28236Z"
        fill="#F8F2EA" />
    <path d="M42.1572 14.4499L42.0683 12.3567L41.4258 12.9007L41.4394 14.5757L42.1572 14.4499Z"
        fill="#F8F2EA" />
    <path
        d="M1.46883 8.1657L1.62511 7.73792L2.09393 7.95181L1.46883 9.9838H1V9.76991L1.15628 9.02128L1.31255 8.59349L1.46883 8.1657Z"
        fill="#F8F2EA" />
    <path
        d="M34.4478 20.7988C34.4317 21.2193 34.421 21.634 34.4049 22.0546C34.3673 22.8957 34.3136 22.9483 33.557 22.9541C32.9184 22.9541 32.2745 22.9541 31.6359 22.9483C30.9706 22.9483 30.3427 23.1469 29.7417 23.4331C29.2802 23.655 29.0227 24.0814 28.9636 24.6305C28.8295 25.8805 28.8617 27.1363 28.8348 28.3921C28.7705 31.1783 28.6631 33.9703 28.7866 36.7565C28.808 37.2354 28.8617 37.7144 28.8831 38.1933C28.91 38.8826 28.808 39.0052 28.1587 39.0169C27.0479 39.0403 25.9372 38.9877 24.8317 39.1337C23.5224 39.3031 23.678 39.0286 23.6458 37.9188C23.6083 36.5871 23.6888 35.2553 23.5868 33.9236C23.3507 33.5264 23.4526 33.0883 23.4848 32.6736C23.5278 32.1654 23.5492 31.6631 23.5439 31.1607C23.6351 30.0042 23.6136 28.8419 23.6297 27.6795C23.6458 26.634 23.5331 25.6059 23.4312 24.5779C23.3722 23.9705 23.1253 23.7018 22.5672 23.6025C22.1272 23.5207 21.6872 23.5265 21.2472 23.5908C20.6945 23.6667 20.1418 23.6667 19.5891 23.731C18.972 23.8011 18.7949 23.5733 18.7466 22.8899C18.6715 21.856 18.6339 20.8163 18.5212 19.7883C18.3978 18.6493 18.9022 18.0009 19.954 17.9834C20.8769 17.9659 21.8053 17.9834 22.7282 17.9776C23.4848 17.9717 23.619 17.7498 23.5707 16.9262C23.4634 14.9753 23.5117 13.0244 23.839 11.091C23.9088 10.6821 23.9839 10.2674 24.0644 9.85854C24.1127 9.68331 24.161 9.50224 24.2039 9.32117C24.5044 7.98358 25.2557 7.05485 26.404 6.48827C26.624 6.37729 26.844 6.27216 27.0694 6.1787C28.8617 5.47778 30.7076 5.38432 32.5857 5.58292C33.0419 5.62964 33.498 5.58876 33.9487 5.60628C34.5712 5.62964 34.8717 5.92169 34.8878 6.60509C34.92 7.76746 34.92 8.92982 34.8878 10.0922C34.8717 10.6704 34.7 10.8632 34.1741 10.9508C33.498 11.0618 32.8111 10.9567 32.135 11.0968C31.432 11.2429 30.7398 11.3889 30.0959 11.751C29.4895 12.0898 29.1085 12.6213 28.9314 13.334C28.6417 14.5255 28.4378 15.7229 28.6524 16.9612C28.808 17.8549 28.9636 17.9659 29.79 17.9892C30.9008 18.0185 32.0062 17.8315 33.117 17.8899C33.2726 17.8958 33.4282 17.8899 33.5838 17.9016C34.1473 17.96 34.3941 18.2054 34.5068 18.8011C34.5605 19.0757 34.5497 19.356 34.5605 19.6364C34.5175 20.0044 34.6732 20.425 34.4478 20.7988Z"
        fill="#F8F2EA" />
    <mask id="path-5-outside-1_13_11854" maskUnits="userSpaceOnUse" x="0" y="0" width="44"
        height="41" fill="black">
        <rect fill="white" width="44" height="41" />
        <path
            d="M42.0383 14.3969C42.1606 15.3307 42.105 16.2758 42.1272 17.2096C42.2051 20.4779 42.2718 23.7462 42.522 27.009C42.7722 30.2379 42.0327 33.2587 40.3592 36.032C39.9144 36.769 39.3195 37.2977 38.5189 37.6353C35.6056 38.856 32.5922 39.5254 29.4342 39.4748C26.5542 39.4298 23.6854 39.6941 20.8165 39.9023C18.8539 40.0429 16.8913 39.9417 14.9343 39.8404C12.7437 39.7279 10.5365 39.6716 8.39037 39.1372C7.1005 38.8166 5.87735 38.2991 4.69311 37.6915C3.67567 37.1684 3.04741 36.2964 2.79722 35.177C2.11892 32.2012 1.5685 29.1916 1.28495 26.1426C0.873529 21.7155 1.0014 17.2827 1.09592 12.8499C1.1126 12.0117 1.20712 11.1848 1.37391 10.3635C1.61854 10.2229 1.81314 10.0822 1.61854 9.7391C1.51291 9.54784 1.68526 9.37908 1.80202 9.22719C1.91877 9.07531 2.08001 8.9628 2.1912 8.80529C2.39691 8.49027 2.36911 8.26525 2.05777 8.06274C1.89653 7.95586 1.81314 7.86023 1.90765 7.66896C2.91953 3.5962 5.32693 1.73983 8.75732 1.2223C11.009 0.88478 13.2608 0.997287 15.5125 1.1323C17.6641 1.26168 19.8102 1.37419 21.9674 1.21668C24.8696 1.00854 27.7774 1.1548 30.6852 1.14355C30.8464 1.33481 30.8242 1.55982 30.7964 1.77921C30.7686 1.98173 30.674 2.11673 30.4405 2.05486C30.3071 2.0211 30.1681 1.99298 30.0569 2.08861C29.7344 2.3755 29.3508 2.33612 28.9672 2.33612C27.4216 2.33612 25.8759 2.33612 24.3248 2.33612C24.119 2.33612 23.9133 2.32487 23.7132 2.39238C22.2621 2.60614 20.7998 2.49363 19.3376 2.52739C17.0192 2.57801 14.7119 2.35862 12.399 2.32487C11.1147 2.308 9.84148 2.34737 8.57385 2.56676C6.27765 2.96616 4.63751 4.22624 3.67011 6.37513C3.60895 6.51014 3.55891 6.65077 3.45884 6.76328C2.91954 6.89829 2.91954 6.89829 3.10857 7.51146C3.09745 7.55083 3.08077 7.59021 3.04741 7.61834C2.88062 7.69147 2.77498 7.57333 2.65822 7.49458C2.57483 7.43832 2.48031 7.35957 2.38579 7.46083C2.28016 7.57896 2.36356 7.68584 2.44139 7.7646C2.70826 8.02336 2.93621 8.30463 2.89174 8.71528C2.71938 9.91348 2.49143 11.1004 2.41359 12.3099C2.40247 12.4449 2.38023 12.5743 2.38023 12.7093C2.358 15.5895 2.22456 18.4697 2.29128 21.3498C2.38579 25.4226 2.90842 29.4391 3.73683 33.4219C3.84802 33.9619 3.93698 34.5076 4.12045 35.0307C4.40956 35.8633 4.92106 36.4764 5.72167 36.8477C7.41741 37.6353 9.18543 38.1022 11.0424 38.2878C13.144 38.5016 15.2567 38.4903 17.3528 38.6647C18.9151 38.7941 20.444 38.5241 21.9896 38.5297C22.6513 38.5297 22.7791 38.3778 22.7402 37.714C22.6791 36.6677 22.6457 35.627 22.6624 34.5807C22.6624 34.3726 22.6457 34.1644 22.7069 33.9563C22.8514 33.7369 23.096 33.6244 23.2851 33.45C23.3851 33.3544 23.5186 33.3206 23.5909 33.5062C23.6854 33.9619 23.7299 34.4176 23.7299 34.8845C23.7243 35.8239 23.7132 36.7633 23.7354 37.7028C23.7465 38.209 23.9022 38.3497 24.3915 38.2991C25.5813 38.1697 26.7766 38.1865 27.972 38.1809C28.7615 38.1809 28.9338 38.0122 28.8504 37.2246C28.6614 35.5145 28.6447 33.7988 28.7003 32.083C28.7726 29.7429 28.806 27.4027 28.8782 25.0626C28.9171 23.7744 29.3286 23.2681 30.5406 22.9137C31.0521 22.7618 31.5747 22.6774 32.1085 22.6831C32.7145 22.6887 33.3205 22.6943 33.921 22.6774C34.4047 22.6662 34.4547 22.593 34.5603 22.1205C34.6604 21.6817 34.5325 21.2205 34.7049 20.7929C35.0774 20.7704 35.3498 21.0236 35.3943 21.4455C35.4221 21.7267 35.3943 22.0136 35.4165 22.2949C35.3832 23.0881 35.0663 23.4312 34.2768 23.4762C33.6597 23.51 33.037 23.4931 32.4198 23.4875C31.8249 23.4762 31.2411 23.5719 30.6685 23.7237C29.9346 23.9206 29.7511 24.1569 29.7511 24.9276C29.7456 28.6291 29.7511 32.3305 29.7511 36.0377C29.7511 36.4877 29.7344 36.9321 29.7567 37.3821C29.7845 38.0009 29.9902 38.1697 30.5906 38.1303C32.392 38.0122 34.1767 37.7984 35.8947 37.2077C36.6897 36.9321 37.4792 36.6452 38.2576 36.3133C38.6245 36.1558 38.897 35.897 39.1083 35.5539C40.1924 33.7931 40.9597 31.9086 41.1431 29.8329C41.2488 28.6291 41.2265 27.4196 41.132 26.2102C41.0542 25.2145 40.9708 24.2188 40.9319 23.2231C40.8318 20.9448 40.7984 18.6609 40.8318 16.377C40.8596 15.9326 40.8373 15.4826 40.8485 15.0382C40.854 14.8132 40.8429 14.5938 41.1487 14.5207C41.3489 14.4757 41.3377 14.3181 41.2265 14.1719C41.0931 13.9975 40.9041 13.8625 40.7984 13.66C40.6483 13.3506 40.6817 13.0243 40.665 12.698C40.5093 10.1441 40.1646 7.62959 39.275 5.21631C39.0693 4.66502 38.758 4.18124 38.4022 3.71996C37.7628 2.88741 36.9066 2.49363 35.878 2.443C34.7494 2.39238 33.6207 2.21237 32.4865 2.24612C32.1085 2.13924 31.7415 2.00985 31.3357 2.03235C31.1244 2.0436 31.0354 1.86922 31.0243 1.67233C31.0132 1.49794 30.9687 1.31793 31.0465 1.14355C32.7701 1.09854 34.4936 0.997287 36.2172 1.2223C38.3188 1.49794 39.642 2.74677 40.4315 4.65377C41.2432 6.6114 41.6213 8.67028 41.8381 10.7685C41.8937 11.3142 41.9771 11.8655 41.9493 12.4168C41.9271 12.653 41.9438 12.8949 41.9382 13.1312C41.9326 13.4068 41.827 13.4912 41.5879 13.3225C41.4767 13.2437 41.3489 13.1481 41.2377 13.2943C41.1209 13.4518 41.2933 13.5306 41.3766 13.6206C41.6046 13.8737 41.8659 14.0931 42.0383 14.3969Z" />
    </mask>
    <path
        d="M42.0383 14.3969C42.1606 15.3307 42.105 16.2758 42.1272 17.2096C42.2051 20.4779 42.2718 23.7462 42.522 27.009C42.7722 30.2379 42.0327 33.2587 40.3592 36.032C39.9144 36.769 39.3195 37.2977 38.5189 37.6353C35.6056 38.856 32.5922 39.5254 29.4342 39.4748C26.5542 39.4298 23.6854 39.6941 20.8165 39.9023C18.8539 40.0429 16.8913 39.9417 14.9343 39.8404C12.7437 39.7279 10.5365 39.6716 8.39037 39.1372C7.1005 38.8166 5.87735 38.2991 4.69311 37.6915C3.67567 37.1684 3.04741 36.2964 2.79722 35.177C2.11892 32.2012 1.5685 29.1916 1.28495 26.1426C0.873529 21.7155 1.0014 17.2827 1.09592 12.8499C1.1126 12.0117 1.20712 11.1848 1.37391 10.3635C1.61854 10.2229 1.81314 10.0822 1.61854 9.7391C1.51291 9.54784 1.68526 9.37908 1.80202 9.22719C1.91877 9.07531 2.08001 8.9628 2.1912 8.80529C2.39691 8.49027 2.36911 8.26525 2.05777 8.06274C1.89653 7.95586 1.81314 7.86023 1.90765 7.66896C2.91953 3.5962 5.32693 1.73983 8.75732 1.2223C11.009 0.88478 13.2608 0.997287 15.5125 1.1323C17.6641 1.26168 19.8102 1.37419 21.9674 1.21668C24.8696 1.00854 27.7774 1.1548 30.6852 1.14355C30.8464 1.33481 30.8242 1.55982 30.7964 1.77921C30.7686 1.98173 30.674 2.11673 30.4405 2.05486C30.3071 2.0211 30.1681 1.99298 30.0569 2.08861C29.7344 2.3755 29.3508 2.33612 28.9672 2.33612C27.4216 2.33612 25.8759 2.33612 24.3248 2.33612C24.119 2.33612 23.9133 2.32487 23.7132 2.39238C22.2621 2.60614 20.7998 2.49363 19.3376 2.52739C17.0192 2.57801 14.7119 2.35862 12.399 2.32487C11.1147 2.308 9.84148 2.34737 8.57385 2.56676C6.27765 2.96616 4.63751 4.22624 3.67011 6.37513C3.60895 6.51014 3.55891 6.65077 3.45884 6.76328C2.91954 6.89829 2.91954 6.89829 3.10857 7.51146C3.09745 7.55083 3.08077 7.59021 3.04741 7.61834C2.88062 7.69147 2.77498 7.57333 2.65822 7.49458C2.57483 7.43832 2.48031 7.35957 2.38579 7.46083C2.28016 7.57896 2.36356 7.68584 2.44139 7.7646C2.70826 8.02336 2.93621 8.30463 2.89174 8.71528C2.71938 9.91348 2.49143 11.1004 2.41359 12.3099C2.40247 12.4449 2.38023 12.5743 2.38023 12.7093C2.358 15.5895 2.22456 18.4697 2.29128 21.3498C2.38579 25.4226 2.90842 29.4391 3.73683 33.4219C3.84802 33.9619 3.93698 34.5076 4.12045 35.0307C4.40956 35.8633 4.92106 36.4764 5.72167 36.8477C7.41741 37.6353 9.18543 38.1022 11.0424 38.2878C13.144 38.5016 15.2567 38.4903 17.3528 38.6647C18.9151 38.7941 20.444 38.5241 21.9896 38.5297C22.6513 38.5297 22.7791 38.3778 22.7402 37.714C22.6791 36.6677 22.6457 35.627 22.6624 34.5807C22.6624 34.3726 22.6457 34.1644 22.7069 33.9563C22.8514 33.7369 23.096 33.6244 23.2851 33.45C23.3851 33.3544 23.5186 33.3206 23.5909 33.5062C23.6854 33.9619 23.7299 34.4176 23.7299 34.8845C23.7243 35.8239 23.7132 36.7633 23.7354 37.7028C23.7465 38.209 23.9022 38.3497 24.3915 38.2991C25.5813 38.1697 26.7766 38.1865 27.972 38.1809C28.7615 38.1809 28.9338 38.0122 28.8504 37.2246C28.6614 35.5145 28.6447 33.7988 28.7003 32.083C28.7726 29.7429 28.806 27.4027 28.8782 25.0626C28.9171 23.7744 29.3286 23.2681 30.5406 22.9137C31.0521 22.7618 31.5747 22.6774 32.1085 22.6831C32.7145 22.6887 33.3205 22.6943 33.921 22.6774C34.4047 22.6662 34.4547 22.593 34.5603 22.1205C34.6604 21.6817 34.5325 21.2205 34.7049 20.7929C35.0774 20.7704 35.3498 21.0236 35.3943 21.4455C35.4221 21.7267 35.3943 22.0136 35.4165 22.2949C35.3832 23.0881 35.0663 23.4312 34.2768 23.4762C33.6597 23.51 33.037 23.4931 32.4198 23.4875C31.8249 23.4762 31.2411 23.5719 30.6685 23.7237C29.9346 23.9206 29.7511 24.1569 29.7511 24.9276C29.7456 28.6291 29.7511 32.3305 29.7511 36.0377C29.7511 36.4877 29.7344 36.9321 29.7567 37.3821C29.7845 38.0009 29.9902 38.1697 30.5906 38.1303C32.392 38.0122 34.1767 37.7984 35.8947 37.2077C36.6897 36.9321 37.4792 36.6452 38.2576 36.3133C38.6245 36.1558 38.897 35.897 39.1083 35.5539C40.1924 33.7931 40.9597 31.9086 41.1431 29.8329C41.2488 28.6291 41.2265 27.4196 41.132 26.2102C41.0542 25.2145 40.9708 24.2188 40.9319 23.2231C40.8318 20.9448 40.7984 18.6609 40.8318 16.377C40.8596 15.9326 40.8373 15.4826 40.8485 15.0382C40.854 14.8132 40.8429 14.5938 41.1487 14.5207C41.3489 14.4757 41.3377 14.3181 41.2265 14.1719C41.0931 13.9975 40.9041 13.8625 40.7984 13.66C40.6483 13.3506 40.6817 13.0243 40.665 12.698C40.5093 10.1441 40.1646 7.62959 39.275 5.21631C39.0693 4.66502 38.758 4.18124 38.4022 3.71996C37.7628 2.88741 36.9066 2.49363 35.878 2.443C34.7494 2.39238 33.6207 2.21237 32.4865 2.24612C32.1085 2.13924 31.7415 2.00985 31.3357 2.03235C31.1244 2.0436 31.0354 1.86922 31.0243 1.67233C31.0132 1.49794 30.9687 1.31793 31.0465 1.14355C32.7701 1.09854 34.4936 0.997287 36.2172 1.2223C38.3188 1.49794 39.642 2.74677 40.4315 4.65377C41.2432 6.6114 41.6213 8.67028 41.8381 10.7685C41.8937 11.3142 41.9771 11.8655 41.9493 12.4168C41.9271 12.653 41.9438 12.8949 41.9382 13.1312C41.9326 13.4068 41.827 13.4912 41.5879 13.3225C41.4767 13.2437 41.3489 13.1481 41.2377 13.2943C41.1209 13.4518 41.2933 13.5306 41.3766 13.6206C41.6046 13.8737 41.8659 14.0931 42.0383 14.3969Z"
        fill="#181818" />
    <path
        d="M42.0383 14.3969C42.1606 15.3307 42.105 16.2758 42.1272 17.2096C42.2051 20.4779 42.2718 23.7462 42.522 27.009C42.7722 30.2379 42.0327 33.2587 40.3592 36.032C39.9144 36.769 39.3195 37.2977 38.5189 37.6353C35.6056 38.856 32.5922 39.5254 29.4342 39.4748C26.5542 39.4298 23.6854 39.6941 20.8165 39.9023C18.8539 40.0429 16.8913 39.9417 14.9343 39.8404C12.7437 39.7279 10.5365 39.6716 8.39037 39.1372C7.1005 38.8166 5.87735 38.2991 4.69311 37.6915C3.67567 37.1684 3.04741 36.2964 2.79722 35.177C2.11892 32.2012 1.5685 29.1916 1.28495 26.1426C0.873529 21.7155 1.0014 17.2827 1.09592 12.8499C1.1126 12.0117 1.20712 11.1848 1.37391 10.3635C1.61854 10.2229 1.81314 10.0822 1.61854 9.7391C1.51291 9.54784 1.68526 9.37908 1.80202 9.22719C1.91877 9.07531 2.08001 8.9628 2.1912 8.80529C2.39691 8.49027 2.36911 8.26525 2.05777 8.06274C1.89653 7.95586 1.81314 7.86023 1.90765 7.66896C2.91953 3.5962 5.32693 1.73983 8.75732 1.2223C11.009 0.88478 13.2608 0.997287 15.5125 1.1323C17.6641 1.26168 19.8102 1.37419 21.9674 1.21668C24.8696 1.00854 27.7774 1.1548 30.6852 1.14355C30.8464 1.33481 30.8242 1.55982 30.7964 1.77921C30.7686 1.98173 30.674 2.11673 30.4405 2.05486C30.3071 2.0211 30.1681 1.99298 30.0569 2.08861C29.7344 2.3755 29.3508 2.33612 28.9672 2.33612C27.4216 2.33612 25.8759 2.33612 24.3248 2.33612C24.119 2.33612 23.9133 2.32487 23.7132 2.39238C22.2621 2.60614 20.7998 2.49363 19.3376 2.52739C17.0192 2.57801 14.7119 2.35862 12.399 2.32487C11.1147 2.308 9.84148 2.34737 8.57385 2.56676C6.27765 2.96616 4.63751 4.22624 3.67011 6.37513C3.60895 6.51014 3.55891 6.65077 3.45884 6.76328C2.91954 6.89829 2.91954 6.89829 3.10857 7.51146C3.09745 7.55083 3.08077 7.59021 3.04741 7.61834C2.88062 7.69147 2.77498 7.57333 2.65822 7.49458C2.57483 7.43832 2.48031 7.35957 2.38579 7.46083C2.28016 7.57896 2.36356 7.68584 2.44139 7.7646C2.70826 8.02336 2.93621 8.30463 2.89174 8.71528C2.71938 9.91348 2.49143 11.1004 2.41359 12.3099C2.40247 12.4449 2.38023 12.5743 2.38023 12.7093C2.358 15.5895 2.22456 18.4697 2.29128 21.3498C2.38579 25.4226 2.90842 29.4391 3.73683 33.4219C3.84802 33.9619 3.93698 34.5076 4.12045 35.0307C4.40956 35.8633 4.92106 36.4764 5.72167 36.8477C7.41741 37.6353 9.18543 38.1022 11.0424 38.2878C13.144 38.5016 15.2567 38.4903 17.3528 38.6647C18.9151 38.7941 20.444 38.5241 21.9896 38.5297C22.6513 38.5297 22.7791 38.3778 22.7402 37.714C22.6791 36.6677 22.6457 35.627 22.6624 34.5807C22.6624 34.3726 22.6457 34.1644 22.7069 33.9563C22.8514 33.7369 23.096 33.6244 23.2851 33.45C23.3851 33.3544 23.5186 33.3206 23.5909 33.5062C23.6854 33.9619 23.7299 34.4176 23.7299 34.8845C23.7243 35.8239 23.7132 36.7633 23.7354 37.7028C23.7465 38.209 23.9022 38.3497 24.3915 38.2991C25.5813 38.1697 26.7766 38.1865 27.972 38.1809C28.7615 38.1809 28.9338 38.0122 28.8504 37.2246C28.6614 35.5145 28.6447 33.7988 28.7003 32.083C28.7726 29.7429 28.806 27.4027 28.8782 25.0626C28.9171 23.7744 29.3286 23.2681 30.5406 22.9137C31.0521 22.7618 31.5747 22.6774 32.1085 22.6831C32.7145 22.6887 33.3205 22.6943 33.921 22.6774C34.4047 22.6662 34.4547 22.593 34.5603 22.1205C34.6604 21.6817 34.5325 21.2205 34.7049 20.7929C35.0774 20.7704 35.3498 21.0236 35.3943 21.4455C35.4221 21.7267 35.3943 22.0136 35.4165 22.2949C35.3832 23.0881 35.0663 23.4312 34.2768 23.4762C33.6597 23.51 33.037 23.4931 32.4198 23.4875C31.8249 23.4762 31.2411 23.5719 30.6685 23.7237C29.9346 23.9206 29.7511 24.1569 29.7511 24.9276C29.7456 28.6291 29.7511 32.3305 29.7511 36.0377C29.7511 36.4877 29.7344 36.9321 29.7567 37.3821C29.7845 38.0009 29.9902 38.1697 30.5906 38.1303C32.392 38.0122 34.1767 37.7984 35.8947 37.2077C36.6897 36.9321 37.4792 36.6452 38.2576 36.3133C38.6245 36.1558 38.897 35.897 39.1083 35.5539C40.1924 33.7931 40.9597 31.9086 41.1431 29.8329C41.2488 28.6291 41.2265 27.4196 41.132 26.2102C41.0542 25.2145 40.9708 24.2188 40.9319 23.2231C40.8318 20.9448 40.7984 18.6609 40.8318 16.377C40.8596 15.9326 40.8373 15.4826 40.8485 15.0382C40.854 14.8132 40.8429 14.5938 41.1487 14.5207C41.3489 14.4757 41.3377 14.3181 41.2265 14.1719C41.0931 13.9975 40.9041 13.8625 40.7984 13.66C40.6483 13.3506 40.6817 13.0243 40.665 12.698C40.5093 10.1441 40.1646 7.62959 39.275 5.21631C39.0693 4.66502 38.758 4.18124 38.4022 3.71996C37.7628 2.88741 36.9066 2.49363 35.878 2.443C34.7494 2.39238 33.6207 2.21237 32.4865 2.24612C32.1085 2.13924 31.7415 2.00985 31.3357 2.03235C31.1244 2.0436 31.0354 1.86922 31.0243 1.67233C31.0132 1.49794 30.9687 1.31793 31.0465 1.14355C32.7701 1.09854 34.4936 0.997287 36.2172 1.2223C38.3188 1.49794 39.642 2.74677 40.4315 4.65377C41.2432 6.6114 41.6213 8.67028 41.8381 10.7685C41.8937 11.3142 41.9771 11.8655 41.9493 12.4168C41.9271 12.653 41.9438 12.8949 41.9382 13.1312C41.9326 13.4068 41.827 13.4912 41.5879 13.3225C41.4767 13.2437 41.3489 13.1481 41.2377 13.2943C41.1209 13.4518 41.2933 13.5306 41.3766 13.6206C41.6046 13.8737 41.8659 14.0931 42.0383 14.3969Z"
        stroke="#F8F2EA" stroke-width="1.5625" mask="url(#path-5-outside-1_13_11854)" />
    <path
        d="M31.0462 1.14345C31.0796 1.72286 31.2575 2.10539 31.9525 1.92538C32.1193 1.88038 32.2583 2.16164 32.4751 2.12789C32.3917 2.37541 32.1749 2.33603 31.9914 2.34728C29.4005 2.52729 26.8097 2.41478 24.2188 2.43729C24.0298 2.43729 23.8296 2.45416 23.6851 2.2854C23.8352 2.15039 24.0242 2.20665 24.191 2.20665C25.909 2.20102 27.627 2.20102 29.3505 2.20102C29.5562 2.20102 29.7341 2.1954 29.8953 2.00413C30.0343 1.84662 30.2289 1.64974 30.4791 1.931C30.6126 2.07726 30.6793 1.94225 30.6793 1.80162C30.6848 1.57661 30.6793 1.35722 30.6793 1.1322C30.8072 1.14345 30.9239 1.14345 31.0462 1.14345Z"
        fill="#181818" />
    <path
        d="M1.89634 7.66934C1.91302 7.79873 1.92414 7.89436 2.0965 7.95624C2.469 8.09124 2.56352 8.48502 2.31889 8.81129C2.20769 8.96318 2.0409 9.07568 1.9297 9.22757C1.79071 9.41883 1.51828 9.57634 1.80739 9.89699C1.99642 10.1051 1.77959 10.3301 1.36816 10.3639C1.45712 9.44696 1.60724 8.5469 1.89634 7.66934Z"
        fill="#181818" />
    <path
        d="M42.0383 14.3965C41.6603 14.1602 41.4268 13.7665 41.0709 13.5077C40.9431 13.4121 41.0042 13.3333 41.082 13.2546C41.1932 13.142 41.2989 12.9845 41.4879 13.1083C41.5935 13.1758 41.6825 13.2714 41.7937 13.3671C41.9494 13.0464 41.7214 12.6976 41.9494 12.422C42.055 13.0745 42.0495 13.7383 42.0383 14.3965Z"
        fill="#181818" />
    <path
        d="M23.5904 30.7109C23.5626 31.6053 23.5348 32.5054 23.5126 33.3998C23.2346 33.4842 23.1957 33.9511 22.8009 33.8442C22.7787 33.0679 22.8009 32.286 22.8954 31.5153C23.179 31.2903 23.3069 30.9303 23.5904 30.7109Z"
        fill="#181818" />
    <path
        d="M34.7656 20.765C34.7656 20.3768 34.7656 19.9887 34.7656 19.5949C34.8379 19.4543 34.9491 19.398 35.0937 19.4711C35.266 19.5611 35.2604 19.7187 35.2104 19.893C35.2882 19.7187 35.2048 19.578 35.1715 19.4205C35.1493 19.3136 35.0547 19.1392 35.2994 19.1392C35.4106 20.1968 35.3994 21.2544 35.2994 22.3119C35.2938 22.1488 35.2549 21.9857 35.2827 21.8282C35.3661 21.3444 35.1604 21.0125 34.7656 20.765Z"
        fill="#181818" />
    <path
        d="M3.04773 7.58443C2.96433 7.92195 2.88094 8.25384 2.79198 8.59137C2.8309 8.2651 2.61407 8.08508 2.41947 7.8882C2.27492 7.74194 2.03029 7.60693 2.27492 7.34816C2.49731 7.11752 2.63631 7.30879 2.78086 7.45504C2.8587 7.52255 2.93653 7.59005 3.04773 7.58443Z"
        fill="#181818" />
    <path
        d="M40.9484 16.3149C40.8427 15.4373 40.8705 14.5597 40.8761 13.6822C41.0373 13.8341 41.2097 13.9691 41.3598 14.1322C41.5488 14.3404 41.4265 14.7398 41.1874 14.6835C40.8427 14.6048 40.9762 14.8185 40.9706 14.9366C40.9539 15.3923 40.9539 15.8536 40.9484 16.3149Z"
        fill="#181818" />
    <path
        d="M3.34229 6.79132C3.24777 7.03321 3.15882 7.28073 3.0643 7.52262C3.04206 7.43824 2.99758 7.36511 2.94198 7.29198C2.83079 7.15697 2.66955 7.05571 2.85859 6.81382C3.05318 6.56631 3.18106 6.73507 3.34229 6.79132Z"
        fill="#181818" />
    <path
        d="M35.3056 19.1449C35.1443 19.2574 35.3 19.3868 35.2833 19.5049C35.2666 19.6906 35.3389 19.8931 35.2166 20.0618C35.161 20.135 35.0943 20.2643 34.9775 20.1575C34.8997 20.0843 34.9553 19.9887 35.0276 19.9324C35.1276 19.8481 35.2611 19.7749 35.1499 19.6174C35.0387 19.4543 34.8941 19.5274 34.7663 19.6005C34.7551 19.3924 34.7551 19.1843 34.7329 18.9761C34.6662 18.2898 34.4605 18.1042 33.7766 18.0873C32.5535 18.0536 31.3303 18.1548 30.1071 18.1886C29.9292 18.1942 29.7513 18.1886 29.5734 18.1942C29.1175 18.2055 28.8673 17.9692 28.745 17.5417C28.417 16.4166 28.5782 15.3028 28.7561 14.1777C29.0397 12.4001 30.1905 11.6575 31.7973 11.365C32.5979 11.2188 33.4041 11.1569 34.2158 11.14C35.0387 11.1231 35.111 11.05 35.111 10.1949C35.1165 9.18238 35.111 8.16419 35.0998 7.15162C35.0943 6.42595 34.9275 6.23469 34.2103 6.24031C32.6202 6.24594 31.0245 6.0828 29.4344 6.24594C28.6227 6.32469 27.8554 6.60596 27.0715 6.80285C26.9269 6.8366 26.7879 6.7916 26.7546 6.64534C26.7045 6.42032 26.9158 6.36407 27.0493 6.25719C27.1271 6.19531 27.2105 6.15031 27.3106 6.15593C27.7553 6.25156 28.1112 6.0153 28.467 5.80716C29.5234 5.49776 30.5964 5.57652 31.675 5.6384C32.5868 5.68903 33.5042 5.70028 34.4104 5.79028C35.1999 5.86904 35.5835 6.30782 35.6503 7.10662C35.7615 8.37232 35.7225 9.64366 35.6947 10.9094C35.6836 11.5169 35.5168 11.6238 34.8663 11.5788C33.6487 11.4888 32.4589 11.6182 31.2803 11.9613C30.2517 12.2594 29.6735 12.9457 29.4344 13.9752C29.2009 14.9765 29.2009 15.9891 29.2454 17.0016C29.2676 17.6092 29.4622 17.7723 30.1071 17.6992C31.0912 17.5923 32.0753 17.5248 33.065 17.5135C33.3151 17.5135 33.5653 17.5135 33.8155 17.536C34.7551 17.6204 35.2666 18.1773 35.3056 19.1449Z"
        fill="#181818" />
    <path
        d="M23.5908 30.7107C23.4629 31.0707 23.2961 31.397 22.8958 31.5152C22.957 29.6813 23.0237 27.8474 22.9626 26.0135C22.9459 25.5523 22.9292 25.091 22.8958 24.6297C22.8514 24.0447 22.6734 23.859 22.1008 23.8365C21.2613 23.7972 20.4162 23.8365 19.5878 23.9547C18.448 24.1178 18.1533 23.9322 18.0477 22.7902C17.9476 21.7383 17.8865 20.6751 17.8587 19.6175C17.8253 18.4474 18.4647 17.7724 19.6211 17.7274C20.5218 17.6936 21.4225 17.7161 22.3176 17.7105C22.9959 17.7049 23.1071 17.5924 23.1238 16.9005C23.1627 15.3029 23.0849 13.7053 23.2461 12.1133C23.3295 11.2526 23.4073 10.3919 23.702 9.57062C24.0412 9.61 24.1913 9.80126 24.1524 10.1388C23.8354 11.8095 23.5741 13.4915 23.5908 15.196C23.5964 15.8654 23.5964 16.5404 23.6631 17.2099C23.7354 17.9412 23.5352 18.1605 22.8124 18.1662C21.8228 18.1718 20.8332 18.1605 19.8491 18.1605C18.7316 18.1662 18.3312 18.6274 18.4202 19.7413C18.5036 20.7988 18.5703 21.8508 18.6259 22.9083C18.6482 23.3077 18.8261 23.4765 19.2153 23.4428C19.8046 23.3978 20.3939 23.3528 20.9777 23.3134C21.3447 23.2909 21.7116 23.2515 22.0841 23.2571C23.1405 23.2852 23.4073 23.5778 23.5408 24.6297C23.7854 26.6548 23.7465 28.68 23.5908 30.7107Z"
        fill="#181818" />
    <path
        d="M24.1466 10.1325C24.0966 9.86245 23.8964 9.71619 23.6963 9.5643C23.9965 8.30422 24.6248 7.30291 25.8368 6.75725C26.2371 6.57724 26.6207 6.36347 27.0489 6.25659C26.9377 6.44223 26.5985 6.63912 27.0711 6.79663C26.4817 7.08352 25.8646 7.31416 25.3642 7.77544C24.6804 8.4111 24.3801 9.24928 24.1466 10.1325Z"
        fill="#181818" />
    <path
        d="M28.4724 5.80713C28.3222 6.02089 28.0331 6.08277 27.9164 6.33591C27.8608 6.44842 27.7607 6.38092 27.7051 6.31341C27.5995 6.18965 27.466 6.16153 27.3159 6.1559C27.6829 5.97589 28.072 5.86901 28.4724 5.80713Z"
        fill="#181818" />
    <path
        d="M32.0692 7.25859C31.3242 7.29234 30.5292 7.30359 29.7508 7.49485C29.6507 7.51735 29.5451 7.5286 29.445 7.52298C29.3616 7.51735 29.2504 7.5286 29.2226 7.42172C29.1948 7.30922 29.306 7.27546 29.3783 7.24171C29.8342 7.00545 30.329 6.94357 30.8239 6.88169C31.7301 6.76918 32.6419 6.79731 33.5537 6.84231C33.7094 6.84794 33.9207 6.82543 33.9262 7.05045C33.9373 7.29796 33.7149 7.25859 33.5648 7.25859C33.0867 7.26421 32.603 7.25859 32.0692 7.25859Z"
        fill="#181818" />
    <path
        d="M24.9918 37.7196C24.9863 37.8096 24.9696 37.9672 24.775 37.984C24.5804 38.0065 24.5192 37.8546 24.5081 37.7028C24.408 36.6958 24.1968 35.7001 24.2134 34.6876C24.2134 34.5582 24.1022 34.3275 24.3636 34.305C24.586 34.2882 24.6082 34.4963 24.6415 34.6482C24.8473 35.6383 24.8806 36.6508 24.9918 37.7196Z"
        fill="#181818" />
    <path
        d="M19.3373 19.2177C19.543 19.9096 19.3484 20.5059 19.126 21.1191C18.7535 20.534 18.8258 19.8252 19.3373 19.2177Z"
        fill="#181818" />
    <path
        d="M3.21603 7.29853L3.57542 6.43771H3.39572L2.19775 8.09786L2.85664 8.65124L3.21603 7.29853Z"
        fill="#181818" />
    <path
        d="M41.505 14.2727C41.6257 15.1978 41.5708 16.1341 41.5928 17.0593C41.6696 20.2973 41.7355 23.5353 41.9824 26.7678C42.2293 29.9668 41.4995 32.9596 39.8477 35.7072C39.4087 36.4373 38.8216 36.9612 38.0314 37.2956C35.1559 38.5049 32.1816 39.1682 29.0647 39.118C26.2222 39.0734 23.3906 39.3354 20.559 39.5416C18.6219 39.6809 16.6848 39.5806 14.7532 39.4803C12.5911 39.3688 10.4125 39.3131 8.29434 38.7836C7.02122 38.4659 5.81397 37.9532 4.64512 37.3513C3.6409 36.833 3.0208 35.9691 2.77386 34.8601C2.10438 31.9119 1.56112 28.9302 1.28125 25.9095C0.875173 21.5234 1.00139 17.1317 1.09467 12.74C1.11114 11.9096 1.20443 11.0904 1.36905 10.2767C1.6105 10.1374 1.80257 9.99803 1.6105 9.65807C1.50624 9.46858 1.67636 9.30138 1.79159 9.1509C1.90683 9.00043 2.06597 8.88896 2.17572 8.73291C2.37876 8.42081 2.35132 8.19789 2.04402 7.99725C1.88488 7.89136 1.80257 7.79662 1.89586 7.60713C2.89459 3.57213 5.2707 1.73297 8.65651 1.22024C10.879 0.885848 13.1014 0.997312 15.3239 1.13107C17.4476 1.25925 19.5658 1.37072 21.6949 1.21467C24.5594 1.00846 27.4294 1.15336 30.2994 1.14222C30.4585 1.3317 30.4366 1.55463 30.4092 1.77199C30.3817 1.97262 30.2884 2.10638 30.058 2.04507C29.9262 2.01163 29.7891 1.98377 29.6793 2.07851C29.361 2.36275 28.9824 2.32373 28.6038 2.32373C27.0782 2.32373 25.5527 2.32373 24.0217 2.32373C23.8186 2.32373 23.6156 2.31259 23.418 2.37947C21.9858 2.59125 20.5425 2.47978 19.0993 2.51322C16.811 2.56338 14.5337 2.34603 12.2509 2.31259C10.9832 2.29587 9.72659 2.33488 8.47543 2.55223C6.20907 2.94793 4.59024 4.19633 3.63541 6.32529C3.57505 6.45905 3.52566 6.59838 3.42688 6.70984C2.89459 6.8436 2.89459 6.8436 3.08117 7.45108C3.07019 7.49009 3.05373 7.5291 3.0208 7.55697C2.85618 7.62942 2.75191 7.51238 2.63668 7.43436C2.55436 7.37862 2.46107 7.3006 2.36779 7.40092C2.26352 7.51796 2.34584 7.62385 2.42266 7.70187C2.68606 7.95824 2.91105 8.2369 2.86715 8.64374C2.69704 9.83083 2.47205 11.0068 2.39522 12.205C2.38425 12.3388 2.3623 12.467 2.3623 12.6007C2.34035 15.4542 2.20865 18.3077 2.2745 21.1611C2.36779 25.1961 2.88362 29.1754 3.70126 33.1212C3.81101 33.6563 3.89881 34.1969 4.0799 34.7152C4.36525 35.54 4.87011 36.1475 5.66031 36.5153C7.33402 37.2956 9.07906 37.7581 10.9119 37.9421C12.9862 38.1538 15.0715 38.1427 17.1403 38.3155C18.6823 38.4436 20.1913 38.1761 21.7169 38.1817C22.3699 38.1817 22.4961 38.0312 22.4577 37.3736C22.3973 36.337 22.3644 35.3059 22.3809 34.2693C22.3809 34.0631 22.3644 33.8569 22.4248 33.6507C22.5674 33.4333 22.8089 33.3219 22.9955 33.1491C23.0943 33.0544 23.226 33.0209 23.2973 33.2048C23.3906 33.6563 23.4345 34.1077 23.4345 34.5703C23.429 35.501 23.418 36.4317 23.44 37.3624C23.4509 37.864 23.6046 38.0034 24.0875 37.9532C25.2618 37.825 26.4417 37.8417 27.6215 37.8362C28.4007 37.8362 28.5708 37.669 28.4885 36.8887C28.3019 35.1945 28.2855 33.4946 28.3403 31.7948C28.4117 29.4764 28.4446 27.1579 28.5159 24.8395C28.5544 23.5632 28.9604 23.0616 30.1567 22.7105C30.6616 22.56 31.1774 22.4764 31.7042 22.482C32.3024 22.4876 32.9005 22.4931 33.4932 22.4764C33.9706 22.4653 34.02 22.3928 34.1242 21.9247C34.223 21.49 34.0968 21.033 34.2669 20.6094C34.6346 20.5871 34.9035 20.8379 34.9474 21.2559C34.9748 21.5346 34.9474 21.8188 34.9693 22.0974C34.9364 22.8833 34.6236 23.2232 33.8444 23.2678C33.2352 23.3013 32.6206 23.2845 32.0115 23.279C31.4243 23.2678 30.8482 23.3626 30.2829 23.513C29.5586 23.7081 29.3775 23.9422 29.3775 24.7057C29.372 28.3729 29.3775 32.04 29.3775 35.7128C29.3775 36.1586 29.361 36.5989 29.383 37.0448C29.4104 37.6578 29.6135 37.825 30.2061 37.786C31.9841 37.669 33.7456 37.4572 35.4412 36.872C36.226 36.5989 37.0052 36.3147 37.7734 35.9859C38.1356 35.8298 38.4045 35.5734 38.613 35.2335C39.6831 33.4891 40.4404 31.622 40.6215 29.5655C40.7257 28.3729 40.7038 27.1746 40.6105 25.9764C40.5337 24.9899 40.4514 24.0035 40.4129 23.017C40.3142 20.7599 40.2812 18.4972 40.3142 16.2344C40.3416 15.7942 40.3197 15.3483 40.3306 14.908C40.3361 14.6851 40.3251 14.4677 40.627 14.3953C40.8245 14.3507 40.8135 14.1946 40.7038 14.0497C40.5721 13.877 40.3855 13.7432 40.2812 13.5426C40.1331 13.2361 40.166 12.9128 40.1495 12.5896C39.9959 10.0593 39.6557 7.56811 38.7777 5.17721C38.5746 4.63104 38.2673 4.15174 37.9161 3.69474C37.285 2.86991 36.44 2.47978 35.4248 2.42962C34.3108 2.37947 33.1968 2.20112 32.0774 2.23456C31.7042 2.12867 31.342 2.00049 30.9414 2.02278C30.7329 2.03393 30.6451 1.86116 30.6341 1.6661C30.6232 1.49333 30.5793 1.31498 30.6561 1.14222C32.3572 1.09763 34.0584 0.997312 35.7595 1.22024C37.8338 1.49333 39.1398 2.73058 39.9191 4.61989C40.7203 6.55937 41.0934 8.59916 41.3074 10.678C41.3623 11.2186 41.4446 11.7647 41.4172 12.3109C41.3952 12.545 41.4117 12.7846 41.4062 13.0187C41.4007 13.2918 41.2964 13.3754 41.0605 13.2082C40.9507 13.1302 40.8245 13.0354 40.7148 13.1803C40.5995 13.3364 40.7696 13.4144 40.852 13.5036C41.0769 13.7544 41.3349 13.9717 41.505 14.2727Z"
        fill="#181818" />
    <path
        d="M30.6561 1.14216C30.6891 1.7162 30.8647 2.09518 31.5506 1.91683C31.7152 1.87225 31.8524 2.15091 32.0664 2.11747C31.9841 2.36269 31.7701 2.32368 31.589 2.33482C29.0318 2.51317 26.4746 2.4017 23.9174 2.42399C23.7309 2.42399 23.5333 2.44071 23.3906 2.27352C23.5388 2.13976 23.7254 2.19549 23.89 2.19549C25.5856 2.18992 27.2813 2.18992 28.9824 2.18992C29.1855 2.18992 29.3611 2.18435 29.5202 1.99486C29.6574 1.83881 29.8495 1.64375 30.0964 1.92241C30.2281 2.06731 30.294 1.93355 30.294 1.79422C30.2994 1.5713 30.294 1.35394 30.294 1.13101C30.4202 1.14216 30.5354 1.14216 30.6561 1.14216Z"
        fill="#181818" />
    <path
        d="M1.8846 7.60713C1.90106 7.73532 1.91204 7.83006 2.08215 7.89137C2.44982 8.02512 2.5431 8.41525 2.30165 8.73849C2.1919 8.88897 2.02727 9.00043 1.91752 9.15091C1.78034 9.3404 1.51144 9.49645 1.7968 9.81412C1.98337 10.0203 1.76936 10.2433 1.36328 10.2767C1.45108 9.36826 1.59925 8.47655 1.8846 7.60713Z"
        fill="#181818" />
    <path
        d="M41.5048 14.2724C41.1316 14.0383 40.9012 13.6482 40.5499 13.3918C40.4237 13.2971 40.4841 13.2191 40.5609 13.141C40.6707 13.0296 40.7749 12.8735 40.9615 12.9961C41.0658 13.063 41.1536 13.1578 41.2633 13.2525C41.417 12.9348 41.192 12.5893 41.417 12.3162C41.5212 12.9627 41.5158 13.6203 41.5048 14.2724Z"
        fill="#181818" />
    <path
        d="M23.3962 2.27923C26.1729 2.23465 28.9551 2.37398 31.7318 2.18449C31.847 2.17892 31.9568 2.14548 32.072 2.12319C33.2683 2.11761 34.4536 2.25137 35.6389 2.33497C36.912 2.41856 37.7571 3.12079 38.3937 4.16855C39.1619 5.42252 39.4473 6.83811 39.7436 8.25371C40.1113 10.0037 40.2155 11.7927 40.3582 13.5705C40.4899 13.7823 40.5228 14.0164 40.4735 14.2505C40.3418 14.8914 40.3966 15.5379 40.4296 16.1788C40.4131 18.5753 40.4515 20.9662 40.5722 23.3626C40.66 25.1182 40.8631 26.8682 40.8192 28.6349C40.7533 31.1428 39.9467 33.4056 38.6077 35.4899C38.4047 35.8076 38.0973 36.0082 37.7571 36.1587C35.3536 37.2065 32.8512 37.8195 30.2337 37.9366C29.4435 37.9756 29.2953 37.8753 29.2679 37.0727C29.235 35.9915 29.235 34.9159 29.235 33.8347C29.2295 30.9199 29.235 28.0051 29.235 25.0959C29.235 24.9064 29.235 24.7114 29.2459 24.5219C29.2789 23.8698 29.4654 23.6302 30.0746 23.4407C30.9745 23.162 31.9074 23.1119 32.8403 23.123C33.2025 23.1286 33.5701 23.1564 33.9323 23.1341C34.6237 23.0951 34.8377 22.8499 34.8597 22.131C34.9036 21.7074 34.9146 21.2894 34.8268 20.8659C34.739 20.4479 34.8158 20.0187 34.8103 19.5952C34.8048 19.4057 34.8268 19.2106 34.7609 19.0267C34.525 17.8173 34.1683 17.5331 32.95 17.5164C31.9019 17.5052 30.8593 17.5498 29.8166 17.6724C29.0978 17.756 28.774 17.4774 28.7795 16.7361C28.785 15.8834 28.7191 15.0251 28.8728 14.1724C29.1087 12.8739 29.7673 11.9989 31.0788 11.6701C32.1598 11.4026 33.2518 11.2577 34.3658 11.3301C34.942 11.3691 35.1231 11.2465 35.1341 10.6502C35.156 9.4408 35.2383 8.22584 35.0627 7.02203C34.964 6.33652 34.6512 6.01328 33.9817 5.86838C33.7238 5.81264 33.4659 5.79035 33.2025 5.8015C32.1982 5.84051 31.1995 5.70118 30.1953 5.67889C29.5258 5.66217 28.8563 5.70118 28.2033 5.8628C27.7917 5.89624 27.4241 6.0913 27.029 6.18048C26.9302 6.21949 26.8259 6.2585 26.7271 6.29751C26.0522 6.5706 25.3662 6.82697 24.7955 7.29511C24.0657 7.89702 23.687 8.72185 23.4675 9.63029C23.0889 11.2521 22.9792 12.8962 23.0011 14.557C23.0121 15.2536 23.0285 15.9447 22.9901 16.6414C22.9517 17.4662 22.7157 17.6836 21.9146 17.6947C21.2012 17.7003 20.4878 17.6947 19.7744 17.6947C19.5714 17.6947 19.3683 17.7003 19.1653 17.7337C18.2599 17.8842 17.766 18.4304 17.766 19.3611C17.766 20.0968 17.8318 20.838 17.8867 21.5681C17.9141 21.908 17.9141 22.248 17.9635 22.5824C18.0952 23.5187 18.3531 23.7082 19.2751 23.6023C19.983 23.5243 20.6908 23.4295 21.4042 23.4518C21.5359 23.4574 21.6676 23.4518 21.7938 23.4685C22.4469 23.541 22.6828 23.7862 22.7322 24.4606C22.8749 26.3945 22.8749 28.3228 22.7487 30.2567C22.7267 30.5799 22.7487 30.9088 22.7322 31.232C22.6938 31.8785 22.6334 32.5194 22.6444 33.1659C22.6444 33.2997 22.6225 33.4334 22.5182 33.5282C22.4578 34.6985 22.5017 35.8633 22.606 37.0281C22.6225 37.2176 22.628 37.4127 22.6389 37.6022C22.6664 38.0202 22.4908 38.2375 22.0682 38.2598C20.0653 38.3713 18.0623 38.5552 16.0484 38.3936C14.3088 38.2487 12.5583 38.2431 10.8187 38.0592C8.93103 37.8585 7.1366 37.3625 5.42449 36.5377C4.5794 36.1309 4.12394 35.4175 3.89895 34.5425C3.42702 32.7256 3.15813 30.8698 2.85083 29.0194C2.04416 24.2098 2.14842 19.3555 2.19781 14.5068C2.21976 12.4893 2.41731 10.4941 2.774 8.51565C2.84534 8.18125 2.74108 7.80228 3.02643 7.51804C3.04838 7.50132 3.05387 7.47903 3.04289 7.45674C3.08679 7.20037 3.05935 6.91056 3.31727 6.73222C3.63555 6.03557 3.98126 5.35564 4.43124 4.74259C5.49034 3.3047 6.98844 2.66379 8.67312 2.36841C10.5828 2.03401 12.5034 2.15662 14.4186 2.23465C17.4038 2.36841 20.4 2.5356 23.3962 2.27923Z"
        fill="black" />
    <path
        d="M34.3267 20.5814C34.3103 20.9827 34.2993 21.3784 34.2828 21.7797C34.2444 22.5822 34.1895 22.6324 33.4158 22.6379C32.7628 22.6379 32.1043 22.6379 31.4513 22.6324C30.7708 22.6324 30.1288 22.8219 29.5141 23.0949C29.0422 23.3067 28.7788 23.7136 28.7185 24.2375C28.5813 25.4301 28.6142 26.6284 28.5868 27.8266C28.5209 30.485 28.4111 33.149 28.5374 35.8074C28.5593 36.2644 28.6142 36.7214 28.6361 37.1784C28.6636 37.8361 28.5593 37.9531 27.8953 37.9642C26.7594 37.9865 25.6235 37.9364 24.493 38.0757C23.1541 38.2373 23.3132 37.9754 23.2803 36.9165C23.2419 35.6458 23.3242 34.3751 23.2199 33.1044C22.9785 32.7254 23.0827 32.3074 23.1157 31.9118C23.1596 31.4269 23.1815 30.9476 23.176 30.4683C23.2693 29.3648 23.2474 28.2557 23.2638 27.1467C23.2803 26.1491 23.1651 25.1682 23.0608 24.1873C23.0004 23.6077 22.748 23.3513 22.1773 23.2566C21.7273 23.1785 21.2773 23.1841 20.8274 23.2454C20.2621 23.3179 19.6969 23.3179 19.1317 23.3792C18.5006 23.4461 18.3195 23.2287 18.2702 22.5766C18.1933 21.5902 18.1549 20.5982 18.0397 19.6173C17.9135 18.5305 18.4293 17.9119 19.5049 17.8952C20.4487 17.8784 21.3981 17.8952 22.3419 17.8896C23.1157 17.884 23.2529 17.6722 23.2035 16.8864C23.0937 15.025 23.1431 13.1635 23.4778 11.3188C23.5492 10.9287 23.626 10.533 23.7083 10.1428C23.7577 9.97564 23.8071 9.80287 23.851 9.6301C24.1583 8.35384 24.9266 7.4677 26.1009 6.9271C26.3259 6.82121 26.5509 6.72089 26.7813 6.63172C28.6142 5.96293 30.5019 5.87376 32.4225 6.06325C32.889 6.10784 33.3554 6.06882 33.8164 6.08554C34.4529 6.10784 34.7602 6.3865 34.7767 7.03856C34.8096 8.14763 34.8096 9.25669 34.7767 10.3658C34.7602 10.9175 34.5846 11.1014 34.0469 11.185C33.3554 11.2909 32.653 11.1906 31.9616 11.3244C31.2427 11.4637 30.5348 11.603 29.8763 11.9485C29.2562 12.2718 28.8666 12.779 28.6855 13.4589C28.3892 14.5958 28.1807 15.7383 28.4002 16.9198C28.5593 17.7725 28.7185 17.8784 29.5635 17.9007C30.6995 17.9286 31.8299 17.7503 32.9658 17.806C33.125 17.8116 33.2841 17.806 33.4432 17.8171C34.0194 17.8729 34.2719 18.1069 34.3871 18.6754C34.442 18.9373 34.431 19.2049 34.442 19.4724C34.3981 19.8235 34.5572 20.2248 34.3267 20.5814Z"
        fill="#F8F2EA" />
    <path
        d="M23.2973 30.435C23.2699 31.3211 23.2425 32.2128 23.2205 33.0989C22.9461 33.1825 22.9077 33.6451 22.5181 33.5392C22.4961 32.7701 22.5181 31.9954 22.6114 31.2319C22.8913 31.009 23.0175 30.6523 23.2973 30.435Z"
        fill="#181818" />
    <path
        d="M34.3271 20.5817C34.3271 20.1971 34.3271 19.8126 34.3271 19.4225C34.3985 19.2831 34.5082 19.2274 34.6509 19.2998C34.821 19.389 34.8155 19.5451 34.7662 19.7178C34.843 19.5451 34.7607 19.4057 34.7277 19.2497C34.7058 19.1438 34.6125 18.971 34.854 18.971C34.9637 20.0188 34.9527 21.0665 34.854 22.1143C34.8485 21.9527 34.8101 21.7911 34.8375 21.635C34.9198 21.1557 34.7168 20.8269 34.3271 20.5817Z"
        fill="#181818" />
    <path
        d="M3.02071 7.52341C2.9384 7.8578 2.85608 8.18662 2.76828 8.52101C2.8067 8.19777 2.59268 8.01943 2.40062 7.82436C2.25794 7.67946 2.01649 7.5457 2.25794 7.28934C2.47744 7.06084 2.61463 7.25032 2.75731 7.39523C2.83413 7.46211 2.91096 7.52898 3.02071 7.52341Z"
        fill="#181818" />
    <path
        d="M40.4293 16.1729C40.325 15.3034 40.3524 14.434 40.3579 13.5646C40.5171 13.7151 40.6872 13.8488 40.8353 14.0105C41.0219 14.2167 40.9012 14.6124 40.6652 14.5566C40.325 14.4786 40.4567 14.6904 40.4512 14.8074C40.4347 15.2589 40.4347 15.7159 40.4293 16.1729Z"
        fill="#181818" />
    <path
        d="M3.31192 6.73756C3.21863 6.97721 3.13083 7.22243 3.03755 7.46208C3.0156 7.37848 2.9717 7.30603 2.91682 7.23358C2.80707 7.09982 2.64793 6.9995 2.83451 6.75986C3.02657 6.51464 3.15278 6.68183 3.31192 6.73756Z"
        fill="#181818" />
    <path
        d="M34.8594 18.9764C34.7002 19.0878 34.8539 19.216 34.8374 19.3331C34.821 19.517 34.8923 19.7176 34.7716 19.8848C34.7167 19.9573 34.6508 20.0854 34.5356 19.9795C34.4588 19.9071 34.5137 19.8123 34.585 19.7566C34.6838 19.673 34.8155 19.6006 34.7057 19.4445C34.596 19.2829 34.4533 19.3553 34.3271 19.4278C34.3161 19.2216 34.3161 19.0154 34.2942 18.8092C34.2283 18.1292 34.0253 17.9453 33.3503 17.9286C32.143 17.8952 30.9358 17.9955 29.7285 18.0289C29.5529 18.0345 29.3773 18.0289 29.2017 18.0345C28.7517 18.0456 28.5048 17.8116 28.3841 17.388C28.0603 16.2734 28.2194 15.1699 28.395 14.0552C28.6749 12.2941 29.8108 11.5584 31.3967 11.2686C32.1869 11.1237 32.9826 11.0624 33.7838 11.0457C34.596 11.029 34.6673 10.9565 34.6673 10.1094C34.6728 9.10623 34.6673 8.09748 34.6563 7.09431C34.6509 6.37536 34.4862 6.18587 33.7783 6.19145C32.2089 6.19702 30.634 6.0354 29.0645 6.19702C28.2633 6.27505 27.5061 6.55371 26.7323 6.74877C26.5896 6.78221 26.4525 6.73762 26.4195 6.59272C26.3701 6.36979 26.5787 6.31406 26.7104 6.20817C26.7872 6.14686 26.8695 6.10228 26.9683 6.10785C27.4073 6.20259 27.7585 5.96852 28.1097 5.76231C29.1523 5.45579 30.2114 5.53381 31.276 5.59512C32.176 5.64527 33.0814 5.65642 33.9759 5.74559C34.7551 5.82362 35.1338 6.25833 35.1996 7.04972C35.3094 8.30369 35.2709 9.56323 35.2435 10.8172C35.2325 11.4191 35.0679 11.525 34.4259 11.4804C33.2241 11.3912 32.0498 11.5194 30.8864 11.8594C29.8712 12.1548 29.3005 12.8347 29.0645 13.8546C28.834 14.8466 28.8341 15.8498 28.878 16.853C28.8999 17.4549 29.092 17.6165 29.7285 17.5441C30.6998 17.4382 31.6711 17.3713 32.6479 17.3601C32.8948 17.3601 33.1418 17.3601 33.3887 17.3824C34.3161 17.466 34.821 18.0178 34.8594 18.9764Z"
        fill="#181818" />
    <path
        d="M23.2971 30.4349C23.1709 30.7916 23.0062 31.1148 22.6111 31.2318C22.6715 29.415 22.7373 27.5981 22.677 25.7812C22.6605 25.3242 22.6441 24.8672 22.6111 24.4102C22.5672 23.8306 22.3916 23.6467 21.8264 23.6244C20.9978 23.5854 20.1637 23.6244 19.346 23.7415C18.2211 23.9031 17.9303 23.7192 17.826 22.5878C17.7272 21.5456 17.6668 20.4923 17.6394 19.4445C17.6065 18.2853 18.2376 17.6165 19.379 17.5719C20.2679 17.5385 21.1569 17.5608 22.0404 17.5552C22.7099 17.5496 22.8197 17.4382 22.8361 16.7527C22.8745 15.1699 22.7977 13.5871 22.9568 12.0099C23.0392 11.1572 23.116 10.3045 23.4068 9.49078C23.7416 9.5298 23.8897 9.71928 23.8513 10.0537C23.5385 11.7089 23.2806 13.3753 23.2971 15.064C23.3026 15.7272 23.3026 16.396 23.3684 17.0592C23.4397 17.7837 23.2422 18.0011 22.5288 18.0066C21.552 18.0122 20.5752 18.0011 19.604 18.0011C18.501 18.0066 18.1059 18.4636 18.1937 19.5671C18.276 20.6149 18.3418 21.6571 18.3967 22.7048C18.4186 23.1005 18.5942 23.2677 18.9784 23.2343C19.5601 23.1897 20.1417 23.1451 20.7179 23.1061C21.0801 23.0838 21.4423 23.0448 21.8099 23.0504C22.8526 23.0782 23.116 23.3681 23.2477 24.4102C23.4891 26.4166 23.4507 28.4229 23.2971 30.4349Z"
        fill="#181818" />
    <path
        d="M23.8463 10.0478C23.797 9.78029 23.5994 9.63539 23.4019 9.48491C23.6982 8.23652 24.3183 7.24449 25.5146 6.70389C25.9097 6.52554 26.2883 6.31376 26.7108 6.20787C26.6011 6.39179 26.2664 6.58685 26.7328 6.7429C26.1511 7.02713 25.542 7.25563 25.0481 7.71263C24.3732 8.34241 24.0768 9.17281 23.8463 10.0478Z"
        fill="#181818" />
    <path
        d="M28.1155 5.76237C27.9674 5.97416 27.682 6.03546 27.5668 6.28626C27.5119 6.39772 27.4131 6.33084 27.3582 6.26396C27.254 6.14135 27.1223 6.11349 26.9741 6.10791C27.3363 5.92957 27.7204 5.82368 28.1155 5.76237Z"
        fill="#181818" />
    <path
        d="M31.666 7.20006C30.9307 7.23349 30.1459 7.24464 29.3777 7.43413C29.2789 7.45642 29.1746 7.46757 29.0759 7.46199C28.9936 7.45642 28.8838 7.46757 28.8564 7.36168C28.8289 7.25021 28.9387 7.21677 29.01 7.18333C29.46 6.94926 29.9484 6.88796 30.4368 6.82665C31.3312 6.71519 32.2312 6.74305 33.1312 6.78764C33.2848 6.79321 33.4933 6.77092 33.4988 6.99385C33.5098 7.23907 33.2903 7.20006 33.1421 7.20006C32.6702 7.20563 32.1928 7.20006 31.666 7.20006Z"
        fill="#181818" />
    <path
        d="M24.6801 37.3796C24.6746 37.4687 24.6582 37.6248 24.4661 37.6415C24.274 37.6638 24.2137 37.5133 24.2027 37.3628C24.1039 36.3652 23.8954 35.3788 23.9119 34.3756C23.9119 34.2474 23.8021 34.0189 24.06 33.9966C24.2795 33.9799 24.3015 34.1861 24.3344 34.3366C24.5375 35.3175 24.5704 36.3206 24.6801 37.3796Z"
        fill="#181818" />
    <path
        d="M19.0991 19.0487C19.3021 19.7342 19.11 20.325 18.8905 20.9325C18.5229 20.3528 18.5942 19.6506 19.0991 19.0487Z"
        fill="#181818" />
    <line x1="45.3536" y1="1.35355" x2="1.35356" y2="45.3535" stroke="white" />
</svg>
    