<svg width="27" height="26" viewBox="0 0 27 26" fill="none" xmlns="http://www.w3.org/2000/svg">
    <path d="M14.6649 1.77123C16.366 1.74389 18.0704 1.82935 19.7715 1.71312C19.8421 1.7097 19.9093 1.68919 19.9799 1.67552C20.7127 1.6721 21.4389 1.75414 22.165 1.80542C22.945 1.85669 23.4627 2.28742 23.8526 2.93008C24.3233 3.69922 24.4981 4.5675 24.6796 5.43578C24.9049 6.50916 24.9687 7.60648 25.0561 8.69695C25.1368 8.82685 25.157 8.97043 25.1267 9.114C25.0461 9.50712 25.0797 9.90366 25.0998 10.2968C25.0898 11.7667 25.1133 13.2332 25.1873 14.7031C25.241 15.7799 25.3654 16.8533 25.3385 17.9369C25.2982 19.4752 24.804 20.8631 23.9837 22.1416C23.8594 22.3365 23.6711 22.4595 23.4627 22.5518C21.9902 23.1945 20.4573 23.5705 18.8537 23.6423C18.3696 23.6662 18.2788 23.6047 18.262 23.1124C18.2419 22.4493 18.2419 21.7895 18.2419 21.1263C18.2385 19.3385 18.2419 17.5507 18.2419 15.7662C18.2419 15.65 18.2419 15.5304 18.2486 15.4142C18.2687 15.0142 18.383 14.8672 18.7562 14.751C19.3075 14.5801 19.879 14.5493 20.4505 14.5561C20.6724 14.5595 20.8976 14.5766 21.1195 14.563C21.5431 14.539 21.6742 14.3886 21.6877 13.9476C21.7146 13.6878 21.7213 13.4315 21.6675 13.1717C21.6137 12.9153 21.6608 12.6521 21.6574 12.3923C21.654 12.276 21.6675 12.1564 21.6271 12.0436C21.4826 11.3018 21.2641 11.1275 20.5178 11.1172C19.8757 11.1104 19.2369 11.1377 18.5982 11.2129C18.1578 11.2642 17.9595 11.0933 17.9628 10.6386C17.9662 10.1156 17.9258 9.58916 18.02 9.06614C18.1645 8.26965 18.5679 7.73296 19.3714 7.53127C20.0337 7.36719 20.7027 7.27831 21.3851 7.32275C21.7381 7.34668 21.849 7.27147 21.8557 6.9057C21.8692 6.1639 21.9196 5.41869 21.812 4.68031C21.7515 4.25984 21.5599 4.06158 21.1498 3.9727C20.9918 3.93851 20.8338 3.92484 20.6724 3.93168C20.0572 3.95561 19.4454 3.87014 18.8302 3.85647C18.42 3.84622 18.0099 3.87014 17.6098 3.96928C17.3577 3.98979 17.1325 4.10943 16.8904 4.16413C16.8299 4.18806 16.766 4.21199 16.7055 4.23592C16.292 4.40342 15.8718 4.56067 15.5222 4.84781C15.0751 5.217 14.8431 5.72293 14.7086 6.28013C14.4767 7.27489 14.4094 8.28333 14.4229 9.30201C14.4296 9.72932 14.4397 10.1532 14.4162 10.5805C14.3926 11.0864 14.2481 11.2197 13.7573 11.2266C13.3202 11.23 12.8832 11.2266 12.4462 11.2266C12.3218 11.2266 12.1974 11.23 12.073 11.2505C11.5183 11.3428 11.2158 11.6778 11.2158 12.2487C11.2158 12.6999 11.2561 13.1546 11.2897 13.6024C11.3065 13.8109 11.3065 14.0194 11.3368 14.2245C11.4175 14.7988 11.5755 14.9151 12.1403 14.8501C12.5739 14.8023 13.0076 14.7441 13.4446 14.7578C13.5253 14.7612 13.606 14.7578 13.6833 14.7681C14.0834 14.8125 14.2279 14.9629 14.2582 15.3765C14.3456 16.5627 14.3456 17.7455 14.2683 18.9317C14.2548 19.13 14.2683 19.3317 14.2582 19.5299C14.2346 19.9265 14.1977 20.3196 14.2044 20.7161C14.2044 20.7982 14.1909 20.8802 14.1271 20.9383C14.0901 21.6562 14.117 22.3706 14.1808 23.0851C14.1909 23.2013 14.1943 23.321 14.201 23.4372C14.2178 23.6936 14.1102 23.8269 13.8514 23.8406C12.6244 23.9089 11.3973 24.0217 10.1635 23.9226C9.09786 23.8337 8.02546 23.8303 6.95978 23.7175C5.80334 23.5944 4.70404 23.2902 3.65517 22.7843C3.13746 22.5347 2.85843 22.0972 2.7206 21.5605C2.43149 20.4461 2.26676 19.3077 2.07851 18.1728C1.58433 15.2227 1.6482 12.2453 1.67846 9.27125C1.6919 8.03378 1.81293 6.80999 2.03144 5.59645C2.07514 5.39134 2.01127 5.15889 2.18608 4.98455C2.19953 4.97429 2.20289 4.96062 2.19617 4.94695C2.22306 4.7897 2.20625 4.61194 2.36425 4.50255C2.55924 4.07525 2.77103 3.6582 3.04669 3.28218C3.69551 2.40022 4.61327 2.00711 5.64533 1.82593C6.81523 1.62082 7.99184 1.69603 9.1651 1.74389C10.9939 1.82593 12.8294 1.92848 14.6649 1.77123Z" fill="#F8F2EA"/>
    <path d="M25.7521 9.08882L25.6986 7.82997L25.3122 8.15711L25.3204 9.16449L25.7521 9.08882Z" fill="#F8F2EA"/>
    <path d="M1.28195 5.30946L1.37594 5.05219L1.65789 5.18082L1.28195 6.40287H1V6.27423L1.09398 5.824L1.18797 5.56673L1.28195 5.30946Z" fill="#F8F2EA"/>
    <path d="M21.1155 12.907C21.1058 13.1599 21.0994 13.4093 21.0897 13.6623C21.0671 14.1681 21.0348 14.1997 20.5798 14.2032C20.1958 14.2032 19.8085 14.2032 19.4245 14.1997C19.0243 14.1997 18.6467 14.3191 18.2853 14.4913C18.0077 14.6248 17.8528 14.8812 17.8173 15.2114C17.7367 15.9631 17.756 16.7184 17.7399 17.4736C17.7012 19.1493 17.6366 20.8284 17.7108 22.504C17.7237 22.792 17.756 23.0801 17.7689 23.3681C17.7851 23.7826 17.7237 23.8564 17.3333 23.8634C16.6652 23.8775 15.9972 23.8459 15.3324 23.9337C14.545 24.0356 14.6386 23.8705 14.6192 23.203C14.5966 22.4021 14.645 21.6012 14.5837 20.8003C14.4417 20.5614 14.503 20.2979 14.5224 20.0485C14.5482 19.7429 14.5611 19.4408 14.5579 19.1387C14.6127 18.4432 14.5998 17.7441 14.6095 17.0451C14.6192 16.4163 14.5514 15.798 14.4901 15.1798C14.4546 14.8145 14.3062 14.6529 13.9705 14.5931C13.7059 14.544 13.4413 14.5475 13.1766 14.5861C12.8442 14.6318 12.5118 14.6318 12.1794 14.6704C11.8083 14.7126 11.7018 14.5756 11.6728 14.1646C11.6276 13.5428 11.605 12.9175 11.5372 12.2993C11.463 11.6143 11.7664 11.2244 12.3989 11.2138C12.954 11.2033 13.5123 11.2138 14.0673 11.2103C14.5224 11.2068 14.6031 11.0733 14.574 10.578C14.5095 9.40474 14.5385 8.23146 14.7354 7.06872C14.7773 6.82283 14.8225 6.57342 14.8709 6.32752C14.9 6.22214 14.929 6.11324 14.9548 6.00434C15.1355 5.19991 15.5873 4.64138 16.278 4.30063C16.4103 4.23389 16.5426 4.17066 16.6781 4.11445C17.756 3.69292 18.8662 3.63671 19.9957 3.75615C20.27 3.78425 20.5443 3.75966 20.8154 3.7702C21.1897 3.78425 21.3705 3.95989 21.3801 4.37089C21.3995 5.06994 21.3995 5.76898 21.3801 6.46803C21.3705 6.8158 21.2672 6.93172 20.9509 6.98442C20.5443 7.05116 20.1312 6.98793 19.7246 7.07224C19.3018 7.16006 18.8855 7.24787 18.4983 7.46567C18.1336 7.66941 17.9045 7.98908 17.798 8.41764C17.6237 9.13425 17.5011 9.85437 17.6302 10.5991C17.7237 11.1365 17.8173 11.2033 18.3143 11.2173C18.9823 11.2349 19.6471 11.1225 20.3152 11.1576C20.4088 11.1611 20.5023 11.1576 20.5959 11.1647C20.9348 11.1998 21.0832 11.3473 21.151 11.7056C21.1833 11.8707 21.1768 12.0393 21.1833 12.208C21.1575 12.4293 21.2511 12.6822 21.1155 12.907Z" fill="#F8F2EA"/>
    <mask id="path-5-outside-1_13_21422" maskUnits="userSpaceOnUse" x="0" y="0" width="27" height="26" fill="black">
    <rect fill="white" width="27" height="26"/>
    <path d="M25.6805 9.05692C25.7541 9.61852 25.7206 10.1869 25.734 10.7485C25.7808 12.7141 25.8209 14.6796 25.9714 16.6418C26.1219 18.5837 25.6772 20.4005 24.6707 22.0683C24.4032 22.5115 24.0454 22.8295 23.564 23.0325C21.8119 23.7667 19.9996 24.1692 18.1004 24.1388C16.3684 24.1117 14.643 24.2707 12.9177 24.3959C11.7374 24.4805 10.5571 24.4196 9.38009 24.3587C8.06268 24.291 6.73525 24.2572 5.44459 23.9358C4.66885 23.743 3.93325 23.4317 3.22104 23.0664C2.60915 22.7517 2.23132 22.2273 2.08085 21.5541C1.67292 19.7644 1.3419 17.9545 1.17137 16.1208C0.92394 13.4583 1.00084 10.7925 1.05769 8.12657C1.06772 7.62249 1.12456 7.12517 1.22487 6.63124C1.37199 6.54666 1.48902 6.46208 1.37199 6.25571C1.30846 6.14069 1.41212 6.03919 1.48233 5.94785C1.55255 5.85651 1.64952 5.78884 1.71639 5.69412C1.84011 5.50466 1.82339 5.36934 1.63614 5.24755C1.53918 5.18327 1.48902 5.12576 1.54586 5.01073C2.15441 2.56136 3.60222 1.44494 5.66527 1.13369C7.01946 0.930706 8.37365 0.998368 9.72783 1.07956C11.0218 1.15737 12.3125 1.22504 13.6098 1.13031C15.3552 1.00513 17.104 1.0931 18.8527 1.08633C18.9497 1.20135 18.9363 1.33668 18.9196 1.46862C18.9029 1.59041 18.846 1.67161 18.7056 1.63439C18.6254 1.61409 18.5418 1.59718 18.4749 1.65469C18.281 1.82723 18.0502 1.80355 17.8195 1.80355C16.89 1.80355 15.9604 1.80355 15.0276 1.80355C14.9038 1.80355 14.7801 1.79678 14.6598 1.83738C13.7871 1.96594 12.9077 1.89827 12.0283 1.91857C10.634 1.94902 9.24634 1.81708 7.85538 1.79678C7.08299 1.78663 6.31729 1.81031 5.55493 1.94225C4.17399 2.18245 3.18761 2.94027 2.60581 4.23262C2.56903 4.31381 2.53894 4.39839 2.47875 4.46605C2.15441 4.54724 2.15441 4.54724 2.2681 4.916C2.26141 4.93968 2.25138 4.96337 2.23132 4.98028C2.13101 5.02426 2.06748 4.95322 1.99726 4.90585C1.9471 4.87202 1.89026 4.82466 1.83342 4.88556C1.76989 4.9566 1.82005 5.02088 1.86686 5.06824C2.02735 5.22387 2.16444 5.39302 2.13769 5.63999C2.03404 6.36059 1.89695 7.07442 1.85014 7.80179C1.84345 7.88299 1.83008 7.9608 1.83008 8.04199C1.8167 9.77414 1.73645 11.5063 1.77658 13.2384C1.83342 15.6878 2.14773 18.1033 2.64593 20.4986C2.71281 20.8234 2.7663 21.1515 2.87665 21.4661C3.05052 21.9668 3.35814 22.3356 3.83962 22.5589C4.85944 23.0325 5.92273 23.3133 7.03952 23.425C8.30343 23.5535 9.57403 23.5468 10.8346 23.6516C11.7742 23.7294 12.6937 23.5671 13.6232 23.5704C14.0211 23.5704 14.098 23.4791 14.0746 23.0799C14.0378 22.4506 14.0178 21.8248 14.0278 21.1955C14.0278 21.0703 14.0178 20.9452 14.0545 20.82C14.1415 20.688 14.2886 20.6204 14.4023 20.5155C14.4625 20.458 14.5427 20.4377 14.5862 20.5493C14.643 20.8234 14.6698 21.0974 14.6698 21.3782C14.6664 21.9432 14.6598 22.5081 14.6731 23.0731C14.6798 23.3776 14.7734 23.4622 15.0677 23.4317C15.7832 23.3539 16.5021 23.3641 17.221 23.3607C17.6958 23.3607 17.7995 23.2592 17.7493 22.7856C17.6356 21.7571 17.6256 20.7253 17.659 19.6934C17.7025 18.286 17.7226 16.8787 17.766 15.4713C17.7894 14.6966 18.0369 14.3921 18.7658 14.1789C19.0734 14.0876 19.3877 14.0369 19.7087 14.0402C20.0732 14.0436 20.4376 14.047 20.7987 14.0369C21.0896 14.0301 21.1197 13.9861 21.1833 13.7019C21.2434 13.438 21.1665 13.1606 21.2702 12.9035C21.4942 12.89 21.6581 13.0422 21.6848 13.296C21.7015 13.4651 21.6848 13.6376 21.6982 13.8068C21.6781 14.2838 21.4875 14.4902 21.0127 14.5173C20.6416 14.5376 20.2671 14.5274 19.8959 14.524C19.5382 14.5173 19.1871 14.5748 18.8427 14.6661C18.4013 14.7845 18.291 14.9266 18.291 15.3901C18.2876 17.6162 18.291 19.8423 18.291 22.0717C18.291 22.3424 18.281 22.6096 18.2943 22.8803C18.311 23.2524 18.4348 23.3539 18.7959 23.3302C19.8792 23.2592 20.9525 23.1306 21.9857 22.7754C22.4639 22.6096 22.9387 22.4371 23.4068 22.2375C23.6275 22.1428 23.7913 21.9871 23.9184 21.7808C24.5704 20.7219 25.0318 19.5885 25.1422 18.3402C25.2057 17.6162 25.1923 16.8888 25.1355 16.1614C25.0887 15.5626 25.0385 14.9638 25.0151 14.365C24.9549 12.9949 24.9349 11.6213 24.9549 10.2478C24.9716 9.98051 24.9583 9.70986 24.965 9.4426C24.9683 9.30727 24.9616 9.17533 25.1455 9.13135C25.2659 9.10429 25.2592 9.00956 25.1923 8.9216C25.1121 8.81672 24.9984 8.73553 24.9349 8.61374C24.8446 8.42767 24.8646 8.23144 24.8546 8.03522C24.761 6.4993 24.5537 4.98705 24.0187 3.5357C23.895 3.20415 23.7077 2.91321 23.4937 2.63579C23.1092 2.13509 22.5943 1.89827 21.9757 1.86783C21.2969 1.83738 20.6182 1.72912 19.9361 1.74942C19.7087 1.68514 19.488 1.60733 19.2439 1.62086C19.1169 1.62763 19.0634 1.52275 19.0567 1.40434C19.05 1.29946 19.0232 1.19121 19.0701 1.08633C20.1066 1.05926 21.1431 0.998369 22.1797 1.13369C23.4436 1.29946 24.2394 2.05051 24.7142 3.19739C25.2024 4.37471 25.4297 5.61292 25.5601 6.87482C25.5936 7.20298 25.6437 7.53453 25.627 7.86607C25.6136 8.00816 25.6237 8.15363 25.6203 8.29572C25.617 8.4615 25.5534 8.51224 25.4097 8.41075C25.3428 8.36339 25.2659 8.30587 25.199 8.39383C25.1288 8.48856 25.2325 8.53592 25.2826 8.59005C25.4197 8.74229 25.5768 8.87424 25.6805 9.05692Z"/>
    </mask>
    <path d="M25.6805 9.05692C25.7541 9.61852 25.7206 10.1869 25.734 10.7485C25.7808 12.7141 25.8209 14.6796 25.9714 16.6418C26.1219 18.5837 25.6772 20.4005 24.6707 22.0683C24.4032 22.5115 24.0454 22.8295 23.564 23.0325C21.8119 23.7667 19.9996 24.1692 18.1004 24.1388C16.3684 24.1117 14.643 24.2707 12.9177 24.3959C11.7374 24.4805 10.5571 24.4196 9.38009 24.3587C8.06268 24.291 6.73525 24.2572 5.44459 23.9358C4.66885 23.743 3.93325 23.4317 3.22104 23.0664C2.60915 22.7517 2.23132 22.2273 2.08085 21.5541C1.67292 19.7644 1.3419 17.9545 1.17137 16.1208C0.92394 13.4583 1.00084 10.7925 1.05769 8.12657C1.06772 7.62249 1.12456 7.12517 1.22487 6.63124C1.37199 6.54666 1.48902 6.46208 1.37199 6.25571C1.30846 6.14069 1.41212 6.03919 1.48233 5.94785C1.55255 5.85651 1.64952 5.78884 1.71639 5.69412C1.84011 5.50466 1.82339 5.36934 1.63614 5.24755C1.53918 5.18327 1.48902 5.12576 1.54586 5.01073C2.15441 2.56136 3.60222 1.44494 5.66527 1.13369C7.01946 0.930706 8.37365 0.998368 9.72783 1.07956C11.0218 1.15737 12.3125 1.22504 13.6098 1.13031C15.3552 1.00513 17.104 1.0931 18.8527 1.08633C18.9497 1.20135 18.9363 1.33668 18.9196 1.46862C18.9029 1.59041 18.846 1.67161 18.7056 1.63439C18.6254 1.61409 18.5418 1.59718 18.4749 1.65469C18.281 1.82723 18.0502 1.80355 17.8195 1.80355C16.89 1.80355 15.9604 1.80355 15.0276 1.80355C14.9038 1.80355 14.7801 1.79678 14.6598 1.83738C13.7871 1.96594 12.9077 1.89827 12.0283 1.91857C10.634 1.94902 9.24634 1.81708 7.85538 1.79678C7.08299 1.78663 6.31729 1.81031 5.55493 1.94225C4.17399 2.18245 3.18761 2.94027 2.60581 4.23262C2.56903 4.31381 2.53894 4.39839 2.47875 4.46605C2.15441 4.54724 2.15441 4.54724 2.2681 4.916C2.26141 4.93968 2.25138 4.96337 2.23132 4.98028C2.13101 5.02426 2.06748 4.95322 1.99726 4.90585C1.9471 4.87202 1.89026 4.82466 1.83342 4.88556C1.76989 4.9566 1.82005 5.02088 1.86686 5.06824C2.02735 5.22387 2.16444 5.39302 2.13769 5.63999C2.03404 6.36059 1.89695 7.07442 1.85014 7.80179C1.84345 7.88299 1.83008 7.9608 1.83008 8.04199C1.8167 9.77414 1.73645 11.5063 1.77658 13.2384C1.83342 15.6878 2.14773 18.1033 2.64593 20.4986C2.71281 20.8234 2.7663 21.1515 2.87665 21.4661C3.05052 21.9668 3.35814 22.3356 3.83962 22.5589C4.85944 23.0325 5.92273 23.3133 7.03952 23.425C8.30343 23.5535 9.57403 23.5468 10.8346 23.6516C11.7742 23.7294 12.6937 23.5671 13.6232 23.5704C14.0211 23.5704 14.098 23.4791 14.0746 23.0799C14.0378 22.4506 14.0178 21.8248 14.0278 21.1955C14.0278 21.0703 14.0178 20.9452 14.0545 20.82C14.1415 20.688 14.2886 20.6204 14.4023 20.5155C14.4625 20.458 14.5427 20.4377 14.5862 20.5493C14.643 20.8234 14.6698 21.0974 14.6698 21.3782C14.6664 21.9432 14.6598 22.5081 14.6731 23.0731C14.6798 23.3776 14.7734 23.4622 15.0677 23.4317C15.7832 23.3539 16.5021 23.3641 17.221 23.3607C17.6958 23.3607 17.7995 23.2592 17.7493 22.7856C17.6356 21.7571 17.6256 20.7253 17.659 19.6934C17.7025 18.286 17.7226 16.8787 17.766 15.4713C17.7894 14.6966 18.0369 14.3921 18.7658 14.1789C19.0734 14.0876 19.3877 14.0369 19.7087 14.0402C20.0732 14.0436 20.4376 14.047 20.7987 14.0369C21.0896 14.0301 21.1197 13.9861 21.1833 13.7019C21.2434 13.438 21.1665 13.1606 21.2702 12.9035C21.4942 12.89 21.6581 13.0422 21.6848 13.296C21.7015 13.4651 21.6848 13.6376 21.6982 13.8068C21.6781 14.2838 21.4875 14.4902 21.0127 14.5173C20.6416 14.5376 20.2671 14.5274 19.8959 14.524C19.5382 14.5173 19.1871 14.5748 18.8427 14.6661C18.4013 14.7845 18.291 14.9266 18.291 15.3901C18.2876 17.6162 18.291 19.8423 18.291 22.0717C18.291 22.3424 18.281 22.6096 18.2943 22.8803C18.311 23.2524 18.4348 23.3539 18.7959 23.3302C19.8792 23.2592 20.9525 23.1306 21.9857 22.7754C22.4639 22.6096 22.9387 22.4371 23.4068 22.2375C23.6275 22.1428 23.7913 21.9871 23.9184 21.7808C24.5704 20.7219 25.0318 19.5885 25.1422 18.3402C25.2057 17.6162 25.1923 16.8888 25.1355 16.1614C25.0887 15.5626 25.0385 14.9638 25.0151 14.365C24.9549 12.9949 24.9349 11.6213 24.9549 10.2478C24.9716 9.98051 24.9583 9.70986 24.965 9.4426C24.9683 9.30727 24.9616 9.17533 25.1455 9.13135C25.2659 9.10429 25.2592 9.00956 25.1923 8.9216C25.1121 8.81672 24.9984 8.73553 24.9349 8.61374C24.8446 8.42767 24.8646 8.23144 24.8546 8.03522C24.761 6.4993 24.5537 4.98705 24.0187 3.5357C23.895 3.20415 23.7077 2.91321 23.4937 2.63579C23.1092 2.13509 22.5943 1.89827 21.9757 1.86783C21.2969 1.83738 20.6182 1.72912 19.9361 1.74942C19.7087 1.68514 19.488 1.60733 19.2439 1.62086C19.1169 1.62763 19.0634 1.52275 19.0567 1.40434C19.05 1.29946 19.0232 1.19121 19.0701 1.08633C20.1066 1.05926 21.1431 0.998369 22.1797 1.13369C23.4436 1.29946 24.2394 2.05051 24.7142 3.19739C25.2024 4.37471 25.4297 5.61292 25.5601 6.87482C25.5936 7.20298 25.6437 7.53453 25.627 7.86607C25.6136 8.00816 25.6237 8.15363 25.6203 8.29572C25.617 8.4615 25.5534 8.51224 25.4097 8.41075C25.3428 8.36339 25.2659 8.30587 25.199 8.39383C25.1288 8.48856 25.2325 8.53592 25.2826 8.59005C25.4197 8.74229 25.5768 8.87424 25.6805 9.05692Z" fill="#181818"/>
    <path d="M25.6805 9.05692C25.7541 9.61852 25.7206 10.1869 25.734 10.7485C25.7808 12.7141 25.8209 14.6796 25.9714 16.6418C26.1219 18.5837 25.6772 20.4005 24.6707 22.0683C24.4032 22.5115 24.0454 22.8295 23.564 23.0325C21.8119 23.7667 19.9996 24.1692 18.1004 24.1388C16.3684 24.1117 14.643 24.2707 12.9177 24.3959C11.7374 24.4805 10.5571 24.4196 9.38009 24.3587C8.06268 24.291 6.73525 24.2572 5.44459 23.9358C4.66885 23.743 3.93325 23.4317 3.22104 23.0664C2.60915 22.7517 2.23132 22.2273 2.08085 21.5541C1.67292 19.7644 1.3419 17.9545 1.17137 16.1208C0.92394 13.4583 1.00084 10.7925 1.05769 8.12657C1.06772 7.62249 1.12456 7.12517 1.22487 6.63124C1.37199 6.54666 1.48902 6.46208 1.37199 6.25571C1.30846 6.14069 1.41212 6.03919 1.48233 5.94785C1.55255 5.85651 1.64952 5.78884 1.71639 5.69412C1.84011 5.50466 1.82339 5.36934 1.63614 5.24755C1.53918 5.18327 1.48902 5.12576 1.54586 5.01073C2.15441 2.56136 3.60222 1.44494 5.66527 1.13369C7.01946 0.930706 8.37365 0.998368 9.72783 1.07956C11.0218 1.15737 12.3125 1.22504 13.6098 1.13031C15.3552 1.00513 17.104 1.0931 18.8527 1.08633C18.9497 1.20135 18.9363 1.33668 18.9196 1.46862C18.9029 1.59041 18.846 1.67161 18.7056 1.63439C18.6254 1.61409 18.5418 1.59718 18.4749 1.65469C18.281 1.82723 18.0502 1.80355 17.8195 1.80355C16.89 1.80355 15.9604 1.80355 15.0276 1.80355C14.9038 1.80355 14.7801 1.79678 14.6598 1.83738C13.7871 1.96594 12.9077 1.89827 12.0283 1.91857C10.634 1.94902 9.24634 1.81708 7.85538 1.79678C7.08299 1.78663 6.31729 1.81031 5.55493 1.94225C4.17399 2.18245 3.18761 2.94027 2.60581 4.23262C2.56903 4.31381 2.53894 4.39839 2.47875 4.46605C2.15441 4.54724 2.15441 4.54724 2.2681 4.916C2.26141 4.93968 2.25138 4.96337 2.23132 4.98028C2.13101 5.02426 2.06748 4.95322 1.99726 4.90585C1.9471 4.87202 1.89026 4.82466 1.83342 4.88556C1.76989 4.9566 1.82005 5.02088 1.86686 5.06824C2.02735 5.22387 2.16444 5.39302 2.13769 5.63999C2.03404 6.36059 1.89695 7.07442 1.85014 7.80179C1.84345 7.88299 1.83008 7.9608 1.83008 8.04199C1.8167 9.77414 1.73645 11.5063 1.77658 13.2384C1.83342 15.6878 2.14773 18.1033 2.64593 20.4986C2.71281 20.8234 2.7663 21.1515 2.87665 21.4661C3.05052 21.9668 3.35814 22.3356 3.83962 22.5589C4.85944 23.0325 5.92273 23.3133 7.03952 23.425C8.30343 23.5535 9.57403 23.5468 10.8346 23.6516C11.7742 23.7294 12.6937 23.5671 13.6232 23.5704C14.0211 23.5704 14.098 23.4791 14.0746 23.0799C14.0378 22.4506 14.0178 21.8248 14.0278 21.1955C14.0278 21.0703 14.0178 20.9452 14.0545 20.82C14.1415 20.688 14.2886 20.6204 14.4023 20.5155C14.4625 20.458 14.5427 20.4377 14.5862 20.5493C14.643 20.8234 14.6698 21.0974 14.6698 21.3782C14.6664 21.9432 14.6598 22.5081 14.6731 23.0731C14.6798 23.3776 14.7734 23.4622 15.0677 23.4317C15.7832 23.3539 16.5021 23.3641 17.221 23.3607C17.6958 23.3607 17.7995 23.2592 17.7493 22.7856C17.6356 21.7571 17.6256 20.7253 17.659 19.6934C17.7025 18.286 17.7226 16.8787 17.766 15.4713C17.7894 14.6966 18.0369 14.3921 18.7658 14.1789C19.0734 14.0876 19.3877 14.0369 19.7087 14.0402C20.0732 14.0436 20.4376 14.047 20.7987 14.0369C21.0896 14.0301 21.1197 13.9861 21.1833 13.7019C21.2434 13.438 21.1665 13.1606 21.2702 12.9035C21.4942 12.89 21.6581 13.0422 21.6848 13.296C21.7015 13.4651 21.6848 13.6376 21.6982 13.8068C21.6781 14.2838 21.4875 14.4902 21.0127 14.5173C20.6416 14.5376 20.2671 14.5274 19.8959 14.524C19.5382 14.5173 19.1871 14.5748 18.8427 14.6661C18.4013 14.7845 18.291 14.9266 18.291 15.3901C18.2876 17.6162 18.291 19.8423 18.291 22.0717C18.291 22.3424 18.281 22.6096 18.2943 22.8803C18.311 23.2524 18.4348 23.3539 18.7959 23.3302C19.8792 23.2592 20.9525 23.1306 21.9857 22.7754C22.4639 22.6096 22.9387 22.4371 23.4068 22.2375C23.6275 22.1428 23.7913 21.9871 23.9184 21.7808C24.5704 20.7219 25.0318 19.5885 25.1422 18.3402C25.2057 17.6162 25.1923 16.8888 25.1355 16.1614C25.0887 15.5626 25.0385 14.9638 25.0151 14.365C24.9549 12.9949 24.9349 11.6213 24.9549 10.2478C24.9716 9.98051 24.9583 9.70986 24.965 9.4426C24.9683 9.30727 24.9616 9.17533 25.1455 9.13135C25.2659 9.10429 25.2592 9.00956 25.1923 8.9216C25.1121 8.81672 24.9984 8.73553 24.9349 8.61374C24.8446 8.42767 24.8646 8.23144 24.8546 8.03522C24.761 6.4993 24.5537 4.98705 24.0187 3.5357C23.895 3.20415 23.7077 2.91321 23.4937 2.63579C23.1092 2.13509 22.5943 1.89827 21.9757 1.86783C21.2969 1.83738 20.6182 1.72912 19.9361 1.74942C19.7087 1.68514 19.488 1.60733 19.2439 1.62086C19.1169 1.62763 19.0634 1.52275 19.0567 1.40434C19.05 1.29946 19.0232 1.19121 19.0701 1.08633C20.1066 1.05926 21.1431 0.998369 22.1797 1.13369C23.4436 1.29946 24.2394 2.05051 24.7142 3.19739C25.2024 4.37471 25.4297 5.61292 25.5601 6.87482C25.5936 7.20298 25.6437 7.53453 25.627 7.86607C25.6136 8.00816 25.6237 8.15363 25.6203 8.29572C25.617 8.4615 25.5534 8.51224 25.4097 8.41075C25.3428 8.36339 25.2659 8.30587 25.199 8.39383C25.1288 8.48856 25.2325 8.53592 25.2826 8.59005C25.4197 8.74229 25.5768 8.87424 25.6805 9.05692Z" stroke="#F8F2EA" stroke-width="1.5625" mask="url(#path-5-outside-1_13_21422)"/>
    <path d="M19.0698 1.08629C19.0899 1.43475 19.1969 1.66481 19.6149 1.55655C19.7152 1.52948 19.7988 1.69864 19.9292 1.67834C19.879 1.82719 19.7486 1.80351 19.6383 1.81028C18.0801 1.91854 16.522 1.85088 14.9638 1.86441C14.8501 1.86441 14.7298 1.87456 14.6428 1.77307C14.7331 1.69187 14.8468 1.7257 14.9471 1.7257C15.9803 1.72232 17.0135 1.72232 18.05 1.72232C18.1737 1.72232 18.2807 1.71894 18.3777 1.60391C18.4613 1.50918 18.5783 1.39077 18.7288 1.55993C18.809 1.64789 18.8492 1.5667 18.8492 1.48212C18.8525 1.34679 18.8492 1.21485 18.8492 1.07953C18.9261 1.0863 18.9963 1.08629 19.0698 1.08629Z" fill="#181818"/>
    <path d="M1.53908 5.01093C1.54912 5.08874 1.5558 5.14625 1.65946 5.18346C1.88348 5.26466 1.94033 5.50148 1.7932 5.6977C1.72633 5.78904 1.62602 5.8567 1.55915 5.94805C1.47555 6.06307 1.31171 6.1578 1.48559 6.35063C1.59927 6.47581 1.46887 6.61113 1.22144 6.63143C1.27493 6.07999 1.36521 5.53869 1.53908 5.01093Z" fill="#181818"/>
    <path d="M25.6804 9.05667C25.453 8.91458 25.3126 8.67776 25.0986 8.52214C25.0217 8.46463 25.0585 8.41727 25.1053 8.3699C25.1722 8.30224 25.2357 8.20751 25.3494 8.28194C25.4129 8.32254 25.4664 8.38005 25.5333 8.43756C25.6269 8.24473 25.4898 8.03497 25.6269 7.8692C25.6904 8.26164 25.6871 8.66085 25.6804 9.05667Z" fill="#181818"/>
    <path d="M14.5862 18.8682C14.5694 19.4061 14.5527 19.9474 14.5393 20.4853C14.3722 20.536 14.3487 20.8168 14.1113 20.7526C14.098 20.2857 14.1113 19.8154 14.1682 19.3519C14.3387 19.2166 14.4156 19.0001 14.5862 18.8682Z" fill="#181818"/>
    <path d="M21.3068 12.8867C21.3068 12.6532 21.3068 12.4198 21.3068 12.183C21.3502 12.0984 21.4171 12.0646 21.504 12.1085C21.6077 12.1627 21.6043 12.2574 21.5743 12.3623C21.6211 12.2574 21.5709 12.1728 21.5509 12.0781C21.5375 12.0138 21.4806 11.9089 21.6278 11.9089C21.6946 12.545 21.6879 13.181 21.6278 13.817C21.6244 13.7189 21.601 13.6208 21.6177 13.5261C21.6679 13.2351 21.5442 13.0355 21.3068 12.8867Z" fill="#181818"/>
    <path d="M2.23131 4.95992C2.18115 5.1629 2.131 5.36251 2.0775 5.56549C2.10091 5.36927 1.9705 5.26101 1.85347 5.14261C1.76654 5.05464 1.61942 4.97345 1.76654 4.81783C1.90028 4.67912 1.98388 4.79415 2.07081 4.88211C2.11762 4.9227 2.16443 4.9633 2.23131 4.95992Z" fill="#181818"/>
    <path d="M25.025 10.2104C24.9615 9.6826 24.9782 9.15484 24.9815 8.62708C25.0785 8.71842 25.1821 8.79961 25.2724 8.89772C25.3861 9.0229 25.3125 9.2631 25.1688 9.22927C24.9615 9.18191 25.0417 9.31046 25.0384 9.38151C25.0283 9.65554 25.0283 9.93295 25.025 10.2104Z" fill="#181818"/>
    <path d="M2.40871 4.48295C2.35187 4.62842 2.29837 4.77728 2.24153 4.92275C2.22816 4.872 2.20141 4.82802 2.16797 4.78404C2.1011 4.70285 2.00413 4.64195 2.11781 4.49648C2.23484 4.34762 2.31175 4.44911 2.40871 4.48295Z" fill="#181818"/>
    <path d="M21.6315 11.9124C21.5345 11.98 21.6281 12.0578 21.6181 12.1289C21.6081 12.2405 21.6515 12.3623 21.578 12.4638C21.5445 12.5078 21.5044 12.5856 21.4342 12.5213C21.3874 12.4773 21.4208 12.4198 21.4643 12.386C21.5245 12.3352 21.6047 12.2913 21.5378 12.1965C21.471 12.0984 21.384 12.1424 21.3071 12.1864C21.3004 12.0612 21.3004 11.936 21.2871 11.8109C21.2469 11.3981 21.1232 11.2865 20.712 11.2763C19.9763 11.256 19.2407 11.3169 18.5051 11.3372C18.3981 11.3406 18.2911 11.3372 18.1841 11.3406C17.91 11.3474 17.7595 11.2053 17.6859 10.9482C17.4887 10.2716 17.5856 9.6017 17.6926 8.92508C17.8631 7.85602 18.5553 7.40945 19.5216 7.23353C20.0031 7.14556 20.4879 7.10835 20.9761 7.0982C21.471 7.08805 21.5144 7.04407 21.5144 6.52984C21.5178 5.92088 21.5144 5.30854 21.5078 4.69958C21.5044 4.26316 21.4041 4.14813 20.9728 4.15152C20.0165 4.1549 19.0568 4.05679 18.1005 4.1549C17.6124 4.20226 17.1509 4.37142 16.6795 4.48983C16.5925 4.51013 16.509 4.48306 16.4889 4.3951C16.4588 4.25978 16.5859 4.22595 16.6661 4.16167C16.7129 4.12445 16.7631 4.09739 16.8233 4.10077C17.0908 4.15828 17.3048 4.01619 17.5187 3.89102C18.154 3.70495 18.7994 3.75231 19.448 3.78952C19.9964 3.81997 20.5481 3.82674 21.0931 3.88087C21.5679 3.92823 21.7986 4.19211 21.8388 4.67251C21.9056 5.43371 21.8822 6.1983 21.8655 6.95949C21.8588 7.32487 21.7585 7.38915 21.3673 7.36208C20.6351 7.30795 19.9195 7.38577 19.2106 7.59213C18.5921 7.77144 18.2443 8.18418 18.1005 8.80329C17.9601 9.40548 17.9601 10.0144 17.9869 10.6234C18.0002 10.9888 18.1173 11.0869 18.5051 11.0429C19.097 10.9786 19.6888 10.938 20.284 10.9313C20.4344 10.9313 20.5849 10.9313 20.7354 10.9448C21.3004 10.9955 21.6081 11.3305 21.6315 11.9124Z" fill="#181818"/>
    <path d="M14.586 18.8681C14.5091 19.0846 14.4088 19.2808 14.1681 19.3518C14.2048 18.249 14.245 17.1461 14.2082 16.0432C14.1981 15.7658 14.1881 15.4883 14.1681 15.2109C14.1413 14.8591 14.0343 14.7474 13.6899 14.7339C13.185 14.7102 12.6768 14.7339 12.1786 14.805C11.4931 14.9031 11.3159 14.7914 11.2524 14.1047C11.1922 13.472 11.1554 12.8326 11.1387 12.1966C11.1186 11.4929 11.5031 11.0869 12.1986 11.0599C12.7403 11.0396 13.282 11.0531 13.8203 11.0497C14.2282 11.0463 14.2951 10.9787 14.3051 10.5625C14.3286 9.60174 14.2817 8.64094 14.3787 7.68352C14.4289 7.16591 14.4757 6.64829 14.6529 6.15436C14.8569 6.17804 14.9471 6.29306 14.9237 6.49605C14.7331 7.50083 14.576 8.51238 14.586 9.53746C14.5894 9.94005 14.5894 10.346 14.6295 10.7486C14.673 11.1884 14.5526 11.3204 14.1179 11.3237C13.5227 11.3271 12.9276 11.3204 12.3357 11.3204C11.6636 11.3237 11.4229 11.6012 11.4764 12.271C11.5266 12.907 11.5667 13.5397 11.6001 14.1757C11.6135 14.4159 11.7205 14.5174 11.9545 14.4971C12.309 14.47 12.6634 14.443 13.0145 14.4193C13.2352 14.4057 13.4559 14.3821 13.6799 14.3854C14.3152 14.4024 14.4757 14.5783 14.5559 15.2109C14.703 16.4288 14.6796 17.6468 14.586 18.8681Z" fill="#181818"/>
    <path d="M14.9206 6.49228C14.8905 6.32989 14.7702 6.24193 14.6498 6.15058C14.8303 5.39277 15.2082 4.79057 15.9371 4.46241C16.1778 4.35415 16.4086 4.22559 16.666 4.16132C16.5991 4.27296 16.3952 4.39137 16.6794 4.48609C16.325 4.65863 15.9538 4.79734 15.6529 5.07475C15.2416 5.45704 15.0611 5.96113 14.9206 6.49228Z" fill="#181818"/>
    <path d="M17.5219 3.89099C17.4316 4.01955 17.2577 4.05676 17.1875 4.209C17.1541 4.27666 17.0939 4.23607 17.0605 4.19547C16.9969 4.12104 16.9167 4.10413 16.8264 4.10074C17.0471 3.99248 17.2812 3.92821 17.5219 3.89099Z" fill="#181818"/>
    <path d="M19.6852 4.76395C19.2371 4.78424 18.759 4.79101 18.2909 4.90604C18.2307 4.91957 18.1671 4.92633 18.107 4.92295C18.0568 4.91957 17.9899 4.92633 17.9732 4.86206C17.9565 4.79439 18.0234 4.77409 18.0668 4.7538C18.341 4.61171 18.6386 4.57449 18.9362 4.53728C19.4812 4.46962 20.0296 4.48653 20.5779 4.5136C20.6716 4.51698 20.7986 4.50345 20.802 4.63877C20.8086 4.78763 20.6749 4.76395 20.5846 4.76395C20.2971 4.76733 20.0062 4.76395 19.6852 4.76395Z" fill="#181818"/>
    <path d="M15.4288 23.0833C15.4254 23.1374 15.4154 23.2322 15.2984 23.2423C15.1814 23.2558 15.1446 23.1645 15.1379 23.0731C15.0777 22.4676 14.9506 21.8688 14.9607 21.2598C14.9607 21.182 14.8938 21.0433 15.0509 21.0298C15.1847 21.0196 15.1981 21.1448 15.2181 21.2361C15.3418 21.8315 15.3619 22.4405 15.4288 23.0833Z" fill="#181818"/>
    <path d="M12.0282 11.9562C12.1519 12.3723 12.0348 12.7309 11.9011 13.0997C11.6771 12.7478 11.7205 12.3216 12.0282 11.9562Z" fill="#181818"/>
    <path d="M2.33285 4.78796L2.54899 4.27026H2.44092L1.72046 5.26868L2.11671 5.60148L2.33285 4.78796Z" fill="#181818"/>
    <path d="M25.3598 8.98221C25.4324 9.5386 25.3994 10.1017 25.4126 10.6581C25.4588 12.6054 25.4984 14.5528 25.6469 16.4968C25.7954 18.4207 25.3565 20.2206 24.3631 21.873C24.0991 22.3121 23.746 22.6271 23.2707 22.8282C21.5414 23.5556 19.7527 23.9544 17.8782 23.9242C16.1687 23.8974 14.4657 24.055 12.7628 24.179C11.5978 24.2628 10.4329 24.2024 9.27119 24.1421C7.9709 24.0751 6.66072 24.0416 5.38683 23.7231C4.62118 23.5321 3.89513 23.2237 3.19218 22.8617C2.58824 22.55 2.21532 22.0305 2.06681 21.3635C1.66418 19.5905 1.33746 17.7973 1.16915 15.9806C0.924929 13.3428 1.00083 10.7017 1.05694 8.06049C1.06684 7.56108 1.12294 7.06837 1.22195 6.57902C1.36716 6.49523 1.48267 6.41144 1.36716 6.20698C1.30445 6.09302 1.40676 5.99247 1.47607 5.90197C1.54537 5.81147 1.64108 5.74444 1.70708 5.65059C1.82919 5.46289 1.81269 5.32882 1.62788 5.20816C1.53217 5.14448 1.48267 5.0875 1.53877 4.97354C2.13941 2.54688 3.56841 1.44081 5.60464 1.13245C6.94123 0.931349 8.27782 0.998383 9.61442 1.07883C10.8916 1.15591 12.1655 1.22295 13.446 1.1291C15.1687 1.00509 16.8947 1.09223 18.6207 1.08553C18.7164 1.19949 18.7032 1.33356 18.6867 1.46427C18.6702 1.58494 18.6141 1.66538 18.4755 1.62851C18.3963 1.6084 18.3138 1.59164 18.2478 1.64862C18.0564 1.81956 17.8287 1.7961 17.601 1.7961C16.6835 1.7961 15.766 1.7961 14.8453 1.7961C14.7232 1.7961 14.6011 1.78939 14.4822 1.82961C13.6209 1.95698 12.7529 1.88994 11.885 1.91006C10.5088 1.94022 9.13918 1.8095 7.76629 1.78939C7.00394 1.77934 6.24819 1.8028 5.49574 1.93352C4.13275 2.17149 3.15918 2.92228 2.58494 4.20264C2.54864 4.28308 2.51894 4.36688 2.45953 4.43391C2.13941 4.51435 2.13941 4.51435 2.25162 4.87969C2.24502 4.90315 2.23512 4.92662 2.21532 4.94337C2.11631 4.98695 2.0536 4.91656 1.9843 4.86964C1.9348 4.83612 1.87869 4.7892 1.82259 4.84953C1.75989 4.91991 1.80939 4.9836 1.85559 5.03052C2.014 5.1847 2.14931 5.35229 2.12291 5.59696C2.0206 6.31088 1.88529 7.0181 1.83909 7.73872C1.83249 7.81916 1.81929 7.89625 1.81929 7.97669C1.80609 9.69278 1.72688 11.4089 1.76649 13.125C1.82259 15.5516 2.13281 17.9448 2.62454 20.3178C2.69055 20.6395 2.74335 20.9647 2.85226 21.2764C3.02387 21.7724 3.32749 22.1378 3.80272 22.359C4.80929 22.8282 5.85876 23.1064 6.96104 23.217C8.20852 23.3444 9.46261 23.3377 10.7068 23.4416C11.6342 23.5187 12.5417 23.3578 13.4592 23.3612C13.8519 23.3612 13.9278 23.2707 13.9047 22.8752C13.8684 22.2517 13.8486 21.6317 13.8585 21.0082C13.8585 20.8842 13.8486 20.7602 13.8849 20.6362C13.9707 20.5055 14.1159 20.4384 14.2281 20.3345C14.2875 20.2776 14.3667 20.2575 14.4096 20.3681C14.4657 20.6395 14.4921 20.911 14.4921 21.1892C14.4888 21.749 14.4822 22.3087 14.4954 22.8685C14.502 23.1701 14.5945 23.2539 14.8849 23.2237C15.5911 23.1466 16.3007 23.1567 17.0102 23.1533C17.4788 23.1533 17.5812 23.0528 17.5316 22.5836C17.4194 21.5646 17.4095 20.5423 17.4425 19.5201C17.4854 18.1257 17.5052 16.7314 17.5482 15.3371C17.5713 14.5696 17.8155 14.2679 18.5349 14.0567C18.8385 13.9662 19.1488 13.916 19.4656 13.9193C19.8253 13.9227 20.185 13.926 20.5415 13.916C20.8286 13.9093 20.8583 13.8657 20.921 13.5841C20.9804 13.3227 20.9045 13.0479 21.0068 12.7931C21.2279 12.7797 21.3896 12.9306 21.416 13.1819C21.4325 13.3495 21.416 13.5205 21.4292 13.688C21.4094 14.1606 21.2213 14.3651 20.7527 14.3919C20.3863 14.412 20.0167 14.402 19.6504 14.3986C19.2973 14.3919 18.9507 14.4489 18.6108 14.5394C18.1752 14.6567 18.0663 14.7975 18.0663 15.2567C18.063 17.4621 18.0663 19.6675 18.0663 21.8763C18.0663 22.1445 18.0564 22.4093 18.0696 22.6774C18.0861 23.0461 18.2082 23.1466 18.5646 23.1232C19.6339 23.0528 20.6933 22.9254 21.713 22.5735C22.185 22.4093 22.6536 22.2383 23.1156 22.0406C23.3334 21.9467 23.4952 21.7925 23.6206 21.5881C24.2641 20.539 24.7195 19.4162 24.8284 18.1794C24.8911 17.4621 24.8779 16.7415 24.8218 16.0209C24.7756 15.4276 24.7261 14.8343 24.703 14.2411C24.6436 12.8836 24.6238 11.5228 24.6436 10.162C24.6601 9.89724 24.6469 9.6291 24.6535 9.36431C24.6568 9.23024 24.6502 9.09953 24.8317 9.05595C24.9506 9.02914 24.944 8.93529 24.8779 8.84815C24.7987 8.74424 24.6865 8.6638 24.6238 8.54314C24.5347 8.35879 24.5545 8.16439 24.5446 7.96999C24.4522 6.4483 24.2476 4.95008 23.7196 3.51218C23.5975 3.18371 23.4126 2.89547 23.2014 2.62062C22.8219 2.12457 22.3137 1.88994 21.7031 1.85978C21.0332 1.82961 20.3632 1.72236 19.69 1.74247C19.4656 1.67879 19.2478 1.6017 19.0068 1.6151C18.8814 1.62181 18.8286 1.5179 18.822 1.40059C18.8154 1.29669 18.789 1.18943 18.8352 1.08553C19.8583 1.05871 20.8814 0.998384 21.9044 1.13245C23.1519 1.29669 23.9374 2.04077 24.406 3.17701C24.8878 4.34341 25.1123 5.57015 25.241 6.82035C25.274 7.14546 25.3235 7.47393 25.307 7.8024C25.2938 7.94318 25.3037 8.0873 25.3004 8.22807C25.2971 8.39231 25.2344 8.44259 25.0925 8.34203C25.0265 8.29511 24.9505 8.23813 24.8845 8.32527C24.8152 8.41912 24.9175 8.46605 24.9671 8.51968C25.1024 8.6705 25.2575 8.80122 25.3598 8.98221Z" fill="#181818"/>
    <path d="M18.8352 1.0855C18.855 1.43073 18.9606 1.65865 19.3731 1.55139C19.4721 1.52458 19.5546 1.69216 19.6833 1.67205C19.6338 1.81953 19.5051 1.79607 19.3962 1.80277C17.8583 1.91003 16.3204 1.84299 14.7825 1.8564C14.6703 1.8564 14.5515 1.86645 14.4657 1.7659C14.5548 1.68546 14.667 1.71898 14.766 1.71898C15.7858 1.71563 16.8056 1.71563 17.8286 1.71563C17.9507 1.71563 18.0563 1.71227 18.152 1.59832C18.2346 1.50447 18.3501 1.38716 18.4986 1.55474C18.5778 1.64189 18.6174 1.56145 18.6174 1.47765C18.6207 1.34358 18.6174 1.21287 18.6174 1.0788C18.6933 1.0855 18.7626 1.0855 18.8352 1.0855Z" fill="#181818"/>
    <path d="M1.53215 4.97357C1.54205 5.05066 1.54865 5.10764 1.65096 5.14451C1.87207 5.22495 1.92818 5.45957 1.78297 5.65397C1.71696 5.74447 1.61796 5.81151 1.55195 5.902C1.46945 6.01596 1.30773 6.10981 1.47935 6.30086C1.59155 6.42487 1.46284 6.55894 1.21863 6.57905C1.27143 6.03272 1.36054 5.49644 1.53215 4.97357Z" fill="#181818"/>
    <path d="M25.3597 8.98206C25.1352 8.84129 24.9966 8.60667 24.7854 8.45249C24.7095 8.39551 24.7458 8.34858 24.792 8.30166C24.858 8.23463 24.9207 8.14078 25.0329 8.21452C25.0956 8.25474 25.1484 8.31172 25.2144 8.36869C25.3069 8.17765 25.1715 7.96984 25.3069 7.8056C25.3696 8.1944 25.3663 8.58991 25.3597 8.98206Z" fill="#181818"/>
    <path d="M14.4692 1.7693C16.1391 1.74249 17.8123 1.82628 19.4822 1.71232C19.5515 1.70897 19.6175 1.68886 19.6869 1.67546C20.4063 1.6721 21.1192 1.75255 21.832 1.80282C22.5976 1.8531 23.1059 2.27542 23.4887 2.90554C23.9507 3.65968 24.1224 4.51102 24.3006 5.36236C24.5217 6.41481 24.5844 7.49071 24.6702 8.55992C24.7494 8.68728 24.7692 8.82806 24.7395 8.96883C24.6603 9.35428 24.6933 9.74308 24.7131 10.1285C24.7032 11.5698 24.7263 13.0077 24.7989 14.4489C24.8517 15.5047 24.9738 16.5572 24.9474 17.6197C24.9078 19.1279 24.4227 20.4887 23.6174 21.7423C23.4953 21.9333 23.3105 22.054 23.1059 22.1445C21.6604 22.7746 20.1555 23.1433 18.5813 23.2137C18.106 23.2372 18.0169 23.1768 18.0004 22.6942C17.9806 22.0439 17.9806 21.3971 17.9806 20.7468C17.9773 18.9939 17.9806 17.2409 17.9806 15.4913C17.9806 15.3773 17.9806 15.26 17.9872 15.1461C18.007 14.7539 18.1192 14.6098 18.4856 14.4958C19.0268 14.3283 19.5878 14.2981 20.1489 14.3048C20.3667 14.3081 20.5878 14.3249 20.8056 14.3115C21.2215 14.288 21.3502 14.1406 21.3634 13.7082C21.3898 13.4535 21.3964 13.2021 21.3436 12.9473C21.2908 12.696 21.337 12.4379 21.3337 12.1831C21.3304 12.0692 21.3436 11.9519 21.304 11.8413C21.1621 11.1139 20.9475 10.943 20.2149 10.9329C19.5845 10.9262 18.9575 10.9531 18.3305 11.0268C17.8981 11.0771 17.7034 10.9095 17.7067 10.4637C17.71 9.95089 17.6704 9.43472 17.7628 8.92191C17.9047 8.14095 18.3008 7.61473 19.0895 7.41698C19.7397 7.25609 20.3964 7.16895 21.0663 7.21252C21.4129 7.23598 21.5218 7.16224 21.5284 6.80361C21.5416 6.07628 21.5911 5.3456 21.4855 4.62163C21.4261 4.20937 21.238 4.01497 20.8353 3.92782C20.6802 3.8943 20.5251 3.8809 20.3667 3.8876C19.7628 3.91106 19.1621 3.82727 18.5582 3.81386C18.1556 3.80381 17.7529 3.82727 17.3602 3.92447C17.1127 3.94458 16.8916 4.06189 16.6539 4.11552C16.5945 4.13898 16.5318 4.16244 16.4724 4.1859C16.0665 4.35014 15.654 4.50432 15.3108 4.78586C14.8718 5.14785 14.6441 5.64391 14.5121 6.19024C14.2844 7.1656 14.2184 8.15436 14.2316 9.15318C14.2382 9.57214 14.2481 9.98776 14.225 10.4067C14.2019 10.9028 14.06 11.0335 13.5781 11.0402C13.1491 11.0436 12.7201 11.0402 12.2911 11.0402C12.1689 11.0402 12.0468 11.0436 11.9247 11.0637C11.3802 11.1542 11.0832 11.4826 11.0832 12.0424C11.0832 12.4848 11.1228 12.9306 11.1558 13.3697C11.1723 13.5741 11.1723 13.7786 11.202 13.9797C11.2812 14.5428 11.4363 14.6567 11.9907 14.593C12.4165 14.5461 12.8422 14.4891 13.2712 14.5025C13.3504 14.5059 13.4296 14.5025 13.5055 14.5126C13.8983 14.5562 14.0402 14.7036 14.0699 15.1092C14.1557 16.2723 14.1557 17.432 14.0798 18.595C14.0666 18.7894 14.0798 18.9872 14.0699 19.1816C14.0468 19.5704 14.0105 19.9558 14.0171 20.3446C14.0171 20.4251 14.0039 20.5055 13.9412 20.5625C13.9049 21.2663 13.9313 21.9669 13.994 22.6674C14.0039 22.7813 14.0072 22.8986 14.0138 23.0126C14.0303 23.264 13.9247 23.3947 13.6705 23.4081C12.466 23.4751 11.2614 23.5857 10.0502 23.4885C9.00403 23.4014 7.95126 23.398 6.90509 23.2874C5.76981 23.1668 4.69064 22.8685 3.66097 22.3724C3.15274 22.1277 2.87882 21.6987 2.74351 21.1725C2.45969 20.0798 2.29798 18.9637 2.11317 17.8509C1.62803 14.9584 1.69074 12.039 1.72044 9.12301C1.73364 7.90968 1.85245 6.70976 2.06696 5.5199C2.10987 5.31879 2.04716 5.09087 2.21877 4.91993C2.23198 4.90988 2.23528 4.89647 2.22868 4.88307C2.25508 4.72889 2.23858 4.5546 2.39369 4.44734C2.5851 4.02837 2.79301 3.61946 3.06363 3.25077C3.70057 2.38602 4.60154 2.00057 5.6147 1.82293C6.76318 1.62183 7.91826 1.69557 9.07004 1.74249C10.8654 1.82293 12.6673 1.92348 14.4692 1.7693Z" fill="black"/>
    <path d="M21.0429 12.7763C21.033 13.0177 21.0264 13.2556 21.0165 13.497C20.9934 13.9796 20.9604 14.0098 20.495 14.0131C20.1023 14.0131 19.7063 14.0131 19.3136 14.0098C18.9043 14.0098 18.5182 14.1237 18.1486 14.288C17.8648 14.4153 17.7063 14.66 17.67 14.9751C17.5875 15.6923 17.6073 16.413 17.5908 17.1336C17.5512 18.7324 17.4852 20.3345 17.5611 21.9333C17.5743 22.2081 17.6073 22.483 17.6205 22.7578C17.637 23.1533 17.5743 23.2237 17.175 23.2304C16.4919 23.2438 15.8087 23.2136 15.1289 23.2974C14.3236 23.3946 14.4193 23.2371 14.3995 22.6003C14.3764 21.8361 14.4259 21.0719 14.3632 20.3077C14.218 20.0798 14.2807 19.8284 14.3005 19.5904C14.3269 19.2988 14.3401 19.0106 14.3368 18.7223C14.3929 18.0587 14.3797 17.3917 14.3896 16.7247C14.3995 16.1247 14.3302 15.5348 14.2675 14.9449C14.2312 14.5963 14.0794 14.4422 13.7362 14.3852C13.4656 14.3382 13.1949 14.3416 12.9243 14.3785C12.5844 14.422 12.2445 14.422 11.9046 14.4589C11.525 14.4991 11.4161 14.3684 11.3864 13.9763C11.3402 13.383 11.3171 12.7864 11.2478 12.1965C11.1719 11.5429 11.4821 11.1709 12.129 11.1608C12.6966 11.1507 13.2675 11.1608 13.8352 11.1575C14.3005 11.1541 14.383 11.0267 14.3533 10.5541C14.2873 9.43466 14.317 8.31518 14.5183 7.20576C14.5612 6.97113 14.6074 6.73316 14.6569 6.49854C14.6866 6.39799 14.7163 6.29409 14.7427 6.19018C14.9276 5.42263 15.3896 4.88971 16.0958 4.56459C16.2311 4.50091 16.3665 4.44058 16.5051 4.38695C17.6073 3.98474 18.7426 3.93111 19.8977 4.04507C20.1782 4.07188 20.4587 4.04842 20.736 4.05848C21.1188 4.07188 21.3036 4.23947 21.3135 4.63162C21.3333 5.29862 21.3333 5.96561 21.3135 6.63261C21.3036 6.96443 21.198 7.07504 20.8746 7.12531C20.4587 7.189 20.0363 7.12867 19.6205 7.20911C19.1881 7.2929 18.7624 7.37669 18.3664 7.5845C17.9935 7.7789 17.7592 8.08391 17.6502 8.49282C17.472 9.17658 17.3466 9.86368 17.4786 10.5742C17.5743 11.0871 17.67 11.1507 18.1783 11.1642C18.8614 11.1809 19.5413 11.0737 20.2244 11.1072C20.3201 11.1105 20.4158 11.1072 20.5115 11.1139C20.8581 11.1474 21.0099 11.2882 21.0792 11.63C21.1122 11.7876 21.1056 11.9485 21.1122 12.1093C21.0858 12.3205 21.1815 12.5618 21.0429 12.7763Z" fill="#F8F2EA"/>
    <path d="M14.4095 18.7023C14.393 19.2352 14.3765 19.7715 14.3633 20.3044C14.1983 20.3547 14.1752 20.6329 13.9409 20.5692C13.9277 20.1066 13.9409 19.6408 13.997 19.1816C14.1653 19.0475 14.2412 18.833 14.4095 18.7023Z" fill="#181818"/>
    <path d="M21.043 12.7765C21.043 12.5452 21.043 12.314 21.043 12.0794C21.0859 11.9956 21.1519 11.962 21.2377 12.0056C21.34 12.0592 21.3367 12.1531 21.307 12.257C21.3532 12.1531 21.3037 12.0693 21.2839 11.9754C21.2707 11.9118 21.2146 11.8079 21.3598 11.8079C21.4258 12.438 21.4192 13.0681 21.3598 13.6982C21.3565 13.601 21.3334 13.5038 21.3499 13.41C21.3994 13.1217 21.2773 12.924 21.043 12.7765Z" fill="#181818"/>
    <path d="M2.2153 4.92321C2.1658 5.12432 2.11629 5.32207 2.06349 5.52317C2.08659 5.32877 1.95788 5.22152 1.84237 5.10421C1.75657 5.01706 1.61136 4.93662 1.75657 4.78244C1.88858 4.64502 1.97108 4.75898 2.05689 4.84612C2.10309 4.88634 2.1493 4.92656 2.2153 4.92321Z" fill="#181818"/>
    <path d="M24.7127 10.125C24.65 9.60214 24.6665 9.07927 24.6698 8.5564C24.7655 8.64689 24.8678 8.72733 24.9569 8.82454C25.0691 8.94855 24.9965 9.18652 24.8546 9.15301C24.65 9.10608 24.7292 9.23345 24.7259 9.30383C24.716 9.57532 24.716 9.85017 24.7127 10.125Z" fill="#181818"/>
    <path d="M2.39034 4.4506C2.33423 4.59473 2.28143 4.7422 2.22533 4.88633C2.21212 4.83605 2.18572 4.79248 2.15272 4.74891C2.08672 4.66847 1.99101 4.60813 2.10322 4.46401C2.21872 4.31653 2.29463 4.41708 2.39034 4.4506Z" fill="#181818"/>
    <path d="M21.3632 11.811C21.2675 11.8781 21.3599 11.9552 21.35 12.0255C21.3401 12.1361 21.383 12.2568 21.3104 12.3574C21.2774 12.4009 21.2378 12.478 21.1685 12.4143C21.1222 12.3708 21.1553 12.3138 21.1982 12.2803C21.2576 12.23 21.3368 12.1864 21.2708 12.0926C21.2048 11.9954 21.1189 12.0389 21.043 12.0825C21.0364 11.9585 21.0364 11.8345 21.0232 11.7105C20.9836 11.3016 20.8615 11.191 20.4556 11.1809C19.7296 11.1608 19.0035 11.2211 18.2775 11.2412C18.1718 11.2446 18.0662 11.2412 17.9606 11.2446C17.69 11.2513 17.5415 11.1105 17.4689 10.8558C17.2742 10.1854 17.3699 9.52179 17.4755 8.85144C17.6438 7.7923 18.327 7.34987 19.2807 7.17558C19.756 7.08843 20.2345 7.05156 20.7163 7.04151C21.2048 7.03145 21.2477 6.98788 21.2477 6.47842C21.251 5.8751 21.2477 5.26844 21.2411 4.66513C21.2378 4.23275 21.1387 4.1188 20.713 4.12215C19.7692 4.1255 18.822 4.0283 17.8781 4.1255C17.3963 4.17242 16.9409 4.34001 16.4755 4.45732C16.3897 4.47743 16.3072 4.45062 16.2874 4.36347C16.2577 4.2294 16.3831 4.19589 16.4623 4.1322C16.5085 4.09533 16.558 4.06852 16.6174 4.07187C16.8815 4.12885 17.0927 3.98808 17.3039 3.86406C17.9309 3.67972 18.5679 3.72664 19.2081 3.76351C19.7494 3.79368 20.2939 3.80038 20.8318 3.85401C21.3005 3.90093 21.5282 4.16237 21.5678 4.63831C21.6338 5.39245 21.6107 6.14995 21.5942 6.90409C21.5876 7.26607 21.4886 7.32976 21.1024 7.30294C20.3797 7.24932 19.6734 7.32641 18.9738 7.53086C18.3633 7.7085 18.02 8.11741 17.8781 8.73078C17.7395 9.32739 17.7395 9.9307 17.7659 10.534C17.7791 10.896 17.8946 10.9932 18.2775 10.9496C18.8616 10.8859 19.4457 10.8457 20.0332 10.839C20.1817 10.839 20.3302 10.839 20.4787 10.8524C21.0364 10.9027 21.3401 11.2345 21.3632 11.811Z" fill="#181818"/>
    <path d="M14.4096 18.7022C14.3337 18.9167 14.2347 19.1111 13.9971 19.1815C14.0334 18.0888 14.073 16.9962 14.0367 15.9035C14.0268 15.6287 14.0169 15.3538 13.9971 15.079C13.9707 14.7304 13.8651 14.6198 13.5252 14.6064C13.0268 14.5829 12.5252 14.6064 12.0335 14.6768C11.3569 14.774 11.182 14.6634 11.1193 13.983C11.0599 13.3562 11.0236 12.7227 11.0071 12.0926C10.9873 11.3954 11.3668 10.9932 12.0533 10.9664C12.5879 10.9463 13.1225 10.9597 13.6539 10.9563C14.0565 10.953 14.1225 10.886 14.1324 10.4737C14.1555 9.5218 14.1093 8.56991 14.205 7.62137C14.2545 7.10855 14.3007 6.59574 14.4756 6.10638C14.6769 6.12985 14.766 6.2438 14.7429 6.44491C14.5548 7.44037 14.3997 8.44254 14.4096 9.45812C14.4129 9.85698 14.4129 10.2592 14.4525 10.658C14.4954 11.0938 14.3766 11.2245 13.9476 11.2278C13.3601 11.2312 12.7727 11.2245 12.1886 11.2245C11.5252 11.2278 11.2876 11.5027 11.3404 12.1663C11.3899 12.7964 11.4295 13.4232 11.4625 14.0533C11.4757 14.2913 11.5813 14.3919 11.8123 14.3718C12.1622 14.3449 12.512 14.3181 12.8585 14.2947C13.0763 14.2813 13.2941 14.2578 13.5153 14.2612C14.1423 14.2779 14.3007 14.4522 14.3799 15.079C14.5251 16.2856 14.502 17.4922 14.4096 18.7022Z" fill="#181818"/>
    <path d="M14.7397 6.44136C14.71 6.28048 14.5912 6.19334 14.4724 6.10284C14.6506 5.35205 15.0235 4.75544 15.743 4.43032C15.9806 4.32307 16.2083 4.1957 16.4624 4.13202C16.3964 4.24263 16.1951 4.35994 16.4756 4.45379C16.1258 4.62472 15.7595 4.76214 15.4625 5.03699C15.0566 5.41573 14.8783 5.91514 14.7397 6.44136Z" fill="#181818"/>
    <path d="M17.3073 3.86407C17.2182 3.99144 17.0466 4.02831 16.9773 4.17914C16.9443 4.24617 16.8849 4.20595 16.8519 4.16573C16.7892 4.09199 16.71 4.07523 16.6208 4.07188C16.8387 3.96463 17.0697 3.90094 17.3073 3.86407Z" fill="#181818"/>
    <path d="M19.4424 4.72869C19.0002 4.7488 18.5283 4.7555 18.0662 4.86946C18.0068 4.88287 17.9441 4.88957 17.8847 4.88622C17.8352 4.88287 17.7692 4.88957 17.7527 4.82589C17.7362 4.75885 17.8022 4.73874 17.8451 4.71863C18.1157 4.57786 18.4095 4.54099 18.7032 4.50412C19.2411 4.43709 19.7824 4.45385 20.3236 4.48066C20.416 4.48401 20.5414 4.47061 20.5447 4.60467C20.5513 4.75215 20.4193 4.72869 20.3302 4.72869C20.0464 4.73204 19.7593 4.72869 19.4424 4.72869Z" fill="#181818"/>
    <path d="M15.2414 22.8787C15.2381 22.9323 15.2282 23.0262 15.1127 23.0362C14.9971 23.0496 14.9608 22.9591 14.9542 22.8686C14.8948 22.2687 14.7694 21.6754 14.7793 21.0721C14.7793 20.995 14.7133 20.8576 14.8684 20.8442C15.0004 20.8341 15.0136 20.9582 15.0334 21.0487C15.1556 21.6386 15.1754 22.2419 15.2414 22.8787Z" fill="#181818"/>
    <path d="M11.8849 11.8545C12.007 12.2668 11.8915 12.622 11.7595 12.9874C11.5384 12.6388 11.5813 12.2165 11.8849 11.8545Z" fill="#181818"/>
    </svg>
    