<svg width="74" height="74" viewBox="0 0 74 74" fill="none" xmlns="http://www.w3.org/2000/svg">
    <path d="M0 37.0276C0.135333 27.6249 3.26482 19.346 9.59718 12.3429C14.7582 6.63634 21.1456 2.9709 28.5752 1.10632C30.8667 0.531364 33.1956 0.197445 35.5544 0.0631091C40.4317 -0.215541 45.1783 0.423128 49.7812 2.08735C54.4918 3.79073 58.6543 6.38609 62.2876 9.84043C65.3797 12.7797 67.7904 16.2125 69.7493 20C71.7663 23.9011 73.0768 28.008 73.6648 32.3581C73.9286 34.3087 74.0471 36.2677 73.9829 38.2328C73.6854 47.3822 70.5177 55.3901 64.3406 62.1307C59.1069 67.8411 52.6667 71.5104 45.1064 73.1669C42.9381 73.6421 40.7437 73.9399 38.5218 73.9891C28.5889 74.2094 19.8305 71.0959 12.362 64.5157C6.431 59.2897 2.66767 52.7272 0.907573 45.0095C0.361653 42.6175 0.0688134 40.1903 0.0351713 37.7339C0.0321129 37.5112 0.0137627 37.2894 0.000764594 37.0284L0 37.0276Z" fill="#464646"/>
    <path d="M38.2898 70.9151C33.1563 71.0088 28.3684 70.1613 23.777 68.2752C20.4831 66.9227 17.4056 65.1901 14.7273 62.812C10.324 58.9032 7.10427 54.1746 5.0758 48.6331C4.18964 46.2135 3.59632 43.721 3.28054 41.1648C2.96859 38.6454 2.87454 36.1153 3.21784 33.5967C3.67966 30.2099 4.66904 26.9698 6.14777 23.887C9.06393 17.8073 13.3663 12.9497 19.0381 9.34494C22.7937 6.95838 26.8813 5.36938 31.2624 4.56414C33.4193 4.16727 35.5946 3.98074 37.7859 4.00146C41.1807 4.0337 44.5151 4.50503 47.7386 5.58125C49.9834 6.33046 52.0738 7.43431 54.0526 8.73621C60.4744 12.962 65.0291 18.7177 67.8925 25.8421C69.135 28.9334 69.9088 32.1444 70.2184 35.4667C70.3683 37.071 70.4524 38.6792 70.3178 40.2859C70.158 42.1942 69.7757 44.0664 69.2581 45.9095C67.7213 51.3743 65.007 56.1758 61.1389 60.3126C57.0949 64.6374 52.2612 67.7479 46.6582 69.6263C44.9754 70.1905 43.2199 70.4699 41.4582 70.6833C40.3465 70.8176 39.2302 70.8775 38.2898 70.9159V70.9151Z" fill="#F8F2EA"/>
    <path d="M38.4221 66.9937C33.8512 67.0777 29.5881 66.3179 25.4999 64.6269C22.567 63.4143 19.8268 61.8609 17.442 59.7288C13.5213 56.2243 10.6545 51.9848 8.8483 47.0165C8.05926 44.8472 7.53096 42.6125 7.24979 40.3207C6.97203 38.0619 6.88829 35.7935 7.19397 33.5354C7.60517 30.499 8.48612 27.5939 9.80278 24.83C12.3993 19.3792 16.2302 15.0241 21.2803 11.7922C24.6244 9.65246 28.2639 8.22782 32.1649 7.50587C34.0854 7.15005 36.0223 6.98281 37.9734 7.00139C40.9961 7.0303 43.9651 7.45287 46.8353 8.41777C48.8341 9.08948 50.6954 10.0792 52.4573 11.2464C58.1753 15.0351 62.2308 20.1955 64.7804 26.5829C65.8867 29.3544 66.5757 32.2333 66.8514 35.212C66.9848 36.6504 67.0597 38.0922 66.9399 39.5327C66.7976 41.2436 66.4572 42.9222 65.9963 44.5746C64.6279 49.4742 62.2111 53.779 58.7669 57.4879C55.1662 61.3654 50.8622 64.1541 45.8734 65.8382C44.3749 66.3441 42.8118 66.5946 41.2433 66.7859C40.2534 66.9063 39.2594 66.96 38.4221 66.9944V66.9937Z" fill="#464646"/>
    <path d="M9.68859 14.6902C10.4692 13.5095 11.3523 12.4072 12.2959 11.3571C12.8196 10.7745 13.4427 10.2909 14.0842 9.76196C12.6957 11.5175 11.188 13.1042 9.75358 14.7554C9.697 14.7685 9.66718 14.7554 9.68859 14.6902Z" fill="#F8F2EA"/>
    <path d="M58.6669 10.9155C60.3574 12.298 61.892 13.8363 63.2545 15.5458C63.2659 15.6019 63.2499 15.6303 63.188 15.6096C61.7314 13.9945 60.164 12.4899 58.595 10.9869C58.5843 10.9285 58.6042 10.9001 58.6661 10.9155H58.6669Z" fill="#F8F2EA"/>
    <path d="M72.567 34.752C72.7513 36.1875 72.8476 37.6268 72.7077 39.0715C72.6557 39.6135 72.5731 40.1523 72.5043 40.6927C72.3445 40.6175 72.4508 40.4939 72.4492 40.3895C72.5341 39.0477 72.6121 37.7059 72.5662 36.3602C72.5486 35.8452 72.5257 35.3301 72.5043 34.815C72.4836 34.7528 72.5104 34.7375 72.567 34.7513V34.752Z" fill="#F8F2EA"/>
    <path d="M40.8277 71.4421C40.0425 71.5442 39.258 71.6493 38.472 71.7476C37.7334 71.8405 36.9925 71.918 36.2547 72.0209C36.0597 72.0485 35.8739 72.0178 35.6843 72.0132C35.6285 72.0116 35.5238 72.0615 35.5368 71.9349C35.5452 71.8543 35.6109 71.8228 35.6897 71.8174C35.971 71.799 36.2516 71.7698 36.5338 71.7599C37.8022 71.7153 39.0615 71.5695 40.3193 71.4075C40.4867 71.386 40.6557 71.3592 40.8277 71.4413V71.4421Z" fill="#F8F2EA"/>
    <path d="M22.6516 6.13507C24.1685 5.28069 25.8269 4.80016 27.4746 4.29275C27.5404 4.27049 27.5564 4.30043 27.545 4.3603C25.9164 4.92375 24.2947 5.50791 22.715 6.20032C22.6523 6.21874 22.637 6.19187 22.6516 6.13507Z" fill="#F8F2EA"/>
    <path d="M56.9575 64.9961C58.2826 63.8309 59.639 62.6994 60.8669 61.4236C60.5702 62.0054 57.7917 64.5586 56.9575 64.9961Z" fill="#F8F2EA"/>
    <path d="M62.8848 12.2944C63.4643 12.722 65.6901 15.3458 66.0005 15.9422C64.8811 14.7969 64.0011 13.4443 62.8848 12.2944Z" fill="#F8F2EA"/>
    <path d="M57.1357 8.74318C56.3329 8.27492 55.5309 7.8059 54.728 7.33765C55.6127 7.66235 56.5485 7.89571 57.1357 8.74318Z" fill="#F8F2EA"/>
    <path d="M9.50523 16.6301C10.055 15.8356 10.6758 15.0956 11.2921 14.3533C11.3349 14.3011 11.3716 14.1783 11.4733 14.2551C11.5857 14.3403 11.4863 14.4086 11.4297 14.4761C10.8096 15.2161 10.1895 15.9569 9.57022 16.6977C9.51594 16.7069 9.48535 16.6923 9.506 16.6301H9.50523Z" fill="#F8F2EA"/>
    <path d="M72.1045 43.636C71.9447 44.703 71.697 45.7493 71.3613 46.7748C71.343 46.7971 71.3239 46.7979 71.3032 46.7771C71.5716 45.6695 71.8446 44.5633 72.038 43.4387C72.1825 43.4625 72.1007 43.5638 72.1045 43.6352V43.636Z" fill="#F8F2EA"/>
    <path d="M63.189 15.6099C63.2111 15.5884 63.2333 15.5676 63.2555 15.5461C63.9971 16.4013 64.644 17.3263 65.258 18.2758C65.2786 18.3357 65.2503 18.3457 65.1999 18.3334C64.5805 17.3877 63.8779 16.5041 63.189 15.6099Z" fill="#F8F2EA"/>
    <path d="M72.1051 43.6362C72.0753 43.5732 72.1181 43.4849 72.0386 43.4397C72.1754 42.4233 72.3123 41.407 72.4492 40.3906C72.4874 40.4881 72.4285 40.6033 72.5042 40.6938C72.3712 41.6749 72.2381 42.6551 72.1059 43.6362H72.1051Z" fill="#F8F2EA"/>
    <path d="M71.0067 47.9353C70.84 48.7805 70.486 49.5619 70.1909 50.3633C70.1389 50.5046 70.0785 50.6427 70.0219 50.7824C69.9715 50.7894 69.9355 50.784 69.9692 50.7195C70.3125 49.7792 70.6734 48.8442 70.9593 47.8839C70.9823 47.8754 71.0052 47.8678 71.0205 47.8946C71.0266 47.9054 71.0182 47.9207 71.0075 47.9353H71.0067Z" fill="#F8F2EA"/>
    <path d="M71.5317 27.5059C71.8139 28.3863 72.0853 29.2699 72.1136 30.2033C71.9194 29.3044 71.7259 28.4055 71.5317 27.5059Z" fill="#F8F2EA"/>
    <path d="M34.8741 2.72828C35.5347 2.6638 36.1922 2.5594 36.8559 2.54175C36.8589 2.57859 36.8628 2.61467 36.8658 2.65152C36.2228 2.69911 35.5798 2.74671 34.936 2.7943C34.8748 2.81042 34.8572 2.78509 34.8733 2.72751L34.8741 2.72828Z" fill="#F8F2EA"/>
    <path d="M2.13836 37.0154V38.8293C2.10625 38.8293 2.07414 38.8278 2.04202 38.827C1.90593 38.1745 2.14448 37.5343 2.13836 37.0154Z" fill="#F8F2EA"/>
    <path d="M4.02018 25.935C3.89937 26.2651 3.77551 26.5952 3.65852 26.9268C3.62794 27.0135 3.59124 27.0834 3.49031 27.0427C3.36033 26.9897 3.45896 26.9145 3.48802 26.8546C3.63712 26.546 3.79003 26.2405 3.94219 25.9335C3.96895 25.9081 3.99495 25.9089 4.02094 25.9358L4.02018 25.935Z" fill="#F8F2EA"/>
    <path d="M29.172 3.37901C28.5848 3.52563 27.9983 3.67225 27.4111 3.81963C27.941 3.52256 28.5251 3.4197 29.1093 3.3153C29.1689 3.29841 29.1865 3.32298 29.172 3.37978V3.37901Z" fill="#F8F2EA"/>
    <path d="M3.4676 46.5377C3.18623 45.9681 3.10671 45.3417 3.0249 44.7153C3.17247 45.3225 3.32004 45.9305 3.4676 46.5377Z" fill="#F8F2EA"/>
    <path d="M9.50523 16.6299C9.52664 16.6521 9.54805 16.6752 9.56946 16.6974C9.30108 17.0682 9.03271 17.4397 8.76434 17.8105C8.7414 17.7951 8.71923 17.7798 8.69629 17.7644C8.95549 17.3799 9.20169 16.9861 9.50523 16.6299Z" fill="#F8F2EA"/>
    <path d="M14.3857 63.6428C14.7451 63.9291 15.1045 64.2155 15.4638 64.5018C14.9018 64.2416 14.554 63.9629 14.3857 63.6428Z" fill="#F8F2EA"/>
    <path d="M42.3639 2.19108C41.9556 2.16038 41.5465 2.1289 41.1084 2.0959C41.5587 1.85947 41.9594 2.13735 42.3715 2.11585C42.3685 2.14042 42.3662 2.16575 42.3631 2.19031L42.3639 2.19108Z" fill="#F8F2EA"/>
    <path d="M49.8545 5.26221C50.3262 5.32285 50.7353 5.50478 51.1077 5.77805C50.6902 5.60611 50.272 5.43416 49.8545 5.26221Z" fill="#F8F2EA"/>
    <path d="M27.545 4.36013C27.5213 4.33787 27.4983 4.31484 27.4746 4.29258C27.8171 4.13445 28.1834 4.06613 28.5435 3.97632C28.5512 4.00088 28.5588 4.02545 28.5664 4.05001C28.2254 4.15364 27.8852 4.2565 27.5442 4.36013H27.545Z" fill="#F8F2EA"/>
    <path d="M44.4356 71.1472C44.7269 71.0605 45.0182 70.973 45.3096 70.8862C45.136 71.1887 44.8164 71.1196 44.5618 71.2132C44.4991 71.2301 44.428 71.2647 44.4356 71.1472Z" fill="#F8F2EA"/>
    <path d="M38.7954 72.4436C39.2626 72.4352 39.7236 72.3024 40.1954 72.3914C39.7282 72.3999 39.2687 72.5526 38.7954 72.4436Z" fill="#F8F2EA"/>
    <path d="M13.335 61.7856C13.6003 62.0359 13.8664 62.2869 14.1317 62.5372C14.1148 62.5548 14.0973 62.5732 14.0804 62.5909C13.7868 62.369 13.5299 62.1096 13.335 61.7856Z" fill="#F8F2EA"/>
    <path d="M14.9348 63.3239C14.6526 63.1297 14.3973 62.9063 14.1816 62.6384C14.4768 62.8158 14.7344 63.0384 14.9776 63.2794C14.9837 63.3132 14.9692 63.3285 14.9348 63.3239Z" fill="#F8F2EA"/>
    <path d="M5.01039 51.598C4.82382 51.2918 4.70149 50.9609 4.65332 50.5994C4.78789 50.9187 4.92246 51.2388 5.05703 51.5581C5.05703 51.5896 5.04173 51.6027 5.01115 51.5988L5.01039 51.598Z" fill="#F8F2EA"/>
    <path d="M58.6674 10.9155C58.6437 10.9393 58.62 10.9631 58.5963 10.9869C58.4135 10.8196 58.2308 10.6522 58.0488 10.4849C58.3019 10.5685 58.4969 10.7259 58.6682 10.9155H58.6674Z" fill="#F8F2EA"/>
    <path d="M65.1997 18.3335C65.2188 18.3143 65.2387 18.2951 65.2578 18.2759C65.4574 18.4985 65.5942 18.758 65.6898 19.0466C65.5262 18.8086 65.3633 18.5706 65.1997 18.3335Z" fill="#F8F2EA"/>
    <path d="M29.1721 3.37926C29.1514 3.35776 29.13 3.33627 29.1094 3.31477C29.4053 3.21652 29.7058 3.14129 30.0192 3.13745C30.0261 3.14513 30.0322 3.15357 30.0391 3.16125C29.7616 3.281 29.4634 3.31477 29.1721 3.37849V3.37926Z" fill="#F8F2EA"/>
    <path d="M19.3662 66.3955C19.5849 66.5237 19.8043 66.6519 20.023 66.7793C19.7577 66.7363 19.5344 66.612 19.3662 66.3955Z" fill="#F8F2EA"/>
    <path d="M44.4359 71.1472C44.4512 71.2209 44.52 71.191 44.562 71.2132C44.3005 71.2746 44.0398 71.3368 43.7783 71.3982C43.9786 71.2524 44.205 71.1925 44.4359 71.1472Z" fill="#F8F2EA"/>
    <path d="M72.5666 34.7523C72.5459 34.7737 72.5253 34.7945 72.5039 34.816C72.4228 34.5926 72.445 34.3646 72.5 34.1335L72.5666 34.7523Z" fill="#F8F2EA"/>
    <path d="M15.865 64.0571C15.6631 63.9366 15.4712 63.803 15.3107 63.6295C15.3091 63.5996 15.3244 63.5889 15.3527 63.5958C15.553 63.6833 15.6952 63.8483 15.8635 63.9788C15.8902 64.0041 15.891 64.0302 15.865 64.0571Z" fill="#F8F2EA"/>
    <path d="M22.6519 6.13505C22.6733 6.15654 22.694 6.1788 22.7154 6.20029C22.5541 6.31314 22.3751 6.38376 22.1802 6.41446C22.3186 6.28627 22.4745 6.19262 22.6512 6.13428L22.6519 6.13505Z" fill="#F8F2EA"/>
    <path d="M34.8744 2.72803C34.8951 2.75029 34.9165 2.77255 34.9371 2.79481C34.736 2.89767 34.5265 2.84778 34.314 2.80018C34.5005 2.77639 34.6879 2.75182 34.8744 2.72803Z" fill="#F8F2EA"/>
    <path d="M4.02016 25.9352C3.99416 25.9352 3.9674 25.9337 3.94141 25.9329C4.01863 25.7618 4.09585 25.5906 4.17308 25.4202C4.16773 25.6105 4.13714 25.7886 4.02016 25.9352Z" fill="#F8F2EA"/>
    <path d="M5.30762 22.6321C5.40013 22.4425 5.49265 22.2521 5.58516 22.0625C5.6081 22.0732 5.63181 22.084 5.65474 22.0947C5.56681 22.2866 5.51176 22.4939 5.30762 22.6321Z" fill="#F8F2EA"/>
    <path d="M70.4703 28.3011C70.4252 28.1199 70.3801 27.9387 70.335 27.7576C70.4672 27.8919 70.5238 28.0516 70.5261 28.2297C70.5552 28.2911 70.5261 28.3072 70.4695 28.3011H70.4703Z" fill="#F8F2EA"/>
    <path d="M69.9687 50.7197C69.9863 50.7405 70.0039 50.7619 70.0215 50.7827C69.9649 50.9431 69.9015 51.0997 69.7485 51.2701C69.8051 51.0429 69.8732 50.8763 69.9687 50.7197Z" fill="#F8F2EA"/>
    <path d="M9.68876 14.6902C9.71017 14.7117 9.73234 14.7339 9.75375 14.7554C9.68112 14.9212 9.54961 15.0387 9.41504 15.1569C9.46933 14.9788 9.55649 14.8215 9.68876 14.6902Z" fill="#F8F2EA"/>
    <path d="M5.05613 51.5581C5.15247 51.727 5.24345 51.8966 5.26333 52.0977C5.14712 51.9473 5.05231 51.7869 5.01025 51.5988C5.02555 51.585 5.04084 51.5719 5.05613 51.5581Z" fill="#F8F2EA"/>
    <path d="M15.8653 64.0573C15.8653 64.0312 15.8645 64.0051 15.8638 63.979C16.0152 64.0665 16.1536 64.1701 16.2583 64.3191C16.1123 64.2554 15.9655 64.1939 15.8653 64.0581V64.0573Z" fill="#F8F2EA"/>
    <path d="M69.983 26.2928C69.8652 26.1631 69.7773 26.0226 69.8086 25.7793C69.8813 25.9935 69.9325 26.1432 69.983 26.2928Z" fill="#F8F2EA"/>
    <path d="M70.4702 28.3011C70.4893 28.2773 70.5077 28.2535 70.5268 28.2297C70.6033 28.3725 70.6254 28.5268 70.6017 28.6926C70.5581 28.5621 70.5138 28.4316 70.4702 28.3011Z" fill="#F8F2EA"/>
    <path d="M71.3035 46.7772C71.3234 46.7856 71.3425 46.7841 71.3616 46.7749C71.3181 46.9146 71.2745 47.0551 71.2049 47.2785C71.1804 47.0367 71.2202 46.9023 71.3035 46.778V46.7772Z" fill="#F8F2EA"/>
    <path d="M30.019 3.13824C30.1781 3.05764 30.3448 3.02232 30.5856 3.05073C30.3631 3.09602 30.211 3.17355 30.0389 3.16203C30.032 3.15436 30.0259 3.14591 30.019 3.13824Z" fill="#F8F2EA"/>
    <path d="M15.3108 63.6298C15.1854 63.5277 15.06 63.4264 14.9346 63.3243C14.9491 63.3097 14.9629 63.2944 14.9774 63.2798C15.1204 63.3642 15.2465 63.4686 15.3528 63.596C15.3345 63.6014 15.3207 63.6129 15.3108 63.6298Z" fill="#F8F2EA"/>
    <path d="M71.0071 47.9355C70.9911 47.9186 70.975 47.901 70.959 47.8841C70.9972 47.7505 71.0354 47.617 71.0737 47.4834C71.0943 47.6431 71.1004 47.7989 71.0064 47.9355H71.0071Z" fill="#F8F2EA"/>
    <g clip-path="url(#clip0_13_16533)">
    <path d="M29.6685 44.6764C31.8643 44.805 32.0236 41.3271 29.8102 41.292C27.4398 41.2723 27.2564 44.512 29.6685 44.6764Z" fill="#F8F2EA"/>
    <path d="M33.3867 42.1074C32.8289 42.9793 33.2564 44.2879 34.2251 44.6607C36.8418 45.4932 37.776 41.4705 34.9942 41.2054C34.3347 41.1503 33.7521 41.5967 33.3867 42.1074Z" fill="#F8F2EA"/>
    <path d="M40.2664 44.683C42.5693 44.5059 42.3607 41.3106 40.1014 41.298C37.8658 41.2965 38.0198 44.8091 40.2664 44.683Z" fill="#F8F2EA"/>
    <path d="M44.7766 52.5706C43.1793 52.2847 41.5296 52.09 39.9027 52.0145C37.2784 51.9285 34.4561 52.0611 31.8312 52.2134C30.0132 52.2044 27.3459 52.6908 25.7216 51.9423C23.9711 50.8637 23.7243 48.4715 23.9551 46.5825C23.9485 45.1321 23.9808 43.5382 24.0172 42.0787C24.0224 41.7018 24.0517 40.954 24.0659 40.5764C24.0676 40.5427 24.0661 40.511 24.063 40.4802C24.0931 39.8891 24.1305 39.3056 24.2199 38.7406C24.5053 36.6217 25.449 34.586 27.8649 34.5826C30.7849 34.2118 33.7301 33.8855 36.6838 33.9097C39.1912 33.9366 41.9343 33.9895 44.4379 34.0437C45.4501 34.0821 46.4682 34.0219 47.4698 34.118C48.009 34.1327 48.8122 34.5788 49.0256 33.8335C49.3242 32.6621 46.0638 32.9224 44.9317 32.8677C45.2985 30.9155 45.3398 28.8798 45.0209 26.9024C44.3133 22.2919 41.1629 19.2355 36.3472 20.1676C32.9612 20.7721 30.4849 23.4749 30.3563 26.9337C30.1605 28.7395 30.5071 30.5679 30.3442 32.3665C30.0912 32.3757 29.8384 32.3866 29.5859 32.4C28.4188 32.485 27.2134 32.5095 26.0764 32.8006C22.9004 33.8441 22.1932 37.753 22.906 40.6224C22.8408 42.3509 22.7381 44.8152 22.7062 46.5206C22.3547 48.9039 22.7825 51.7813 24.9745 53.1906C26.7868 54.2074 28.997 53.9053 30.9973 54.0995C35.563 54.191 40.1527 53.9066 44.7163 53.7246C45.3797 53.6964 45.4311 52.6704 44.7766 52.5706ZM31.5587 27.5075C31.6539 24.4403 33.4878 22.1419 36.5749 21.7397C42.8836 20.9839 43.506 28.0736 43.7012 32.7975C42.7753 32.7568 41.73 32.7194 40.9472 32.6736C37.8355 32.527 34.6648 32.2977 31.5163 32.3386C31.6511 30.7325 31.4125 29.1093 31.5587 27.5075Z" fill="#F8F2EA"/>
    <path d="M50.2864 51.6112C48.0408 51.6248 47.8464 54.8873 50.1837 54.9999C52.5243 55.0259 52.7753 51.5813 50.2864 51.6112Z" fill="#F8F2EA"/>
    <path d="M50.5293 38.0919C48.2081 37.8509 46.1066 39.8017 46.0851 42.1234C46.0436 42.8573 47.1989 42.9222 47.2365 42.1858C47.2628 41.6647 47.3996 41.1604 47.6722 40.7224C48.5083 39.251 50.7746 38.9291 51.8355 40.3144C53.8044 42.4583 51.019 44.445 49.7955 46.1685C49.2385 46.964 49.4889 48.091 49.7308 48.8807C49.8783 49.4797 50.8183 49.4222 50.8863 48.8014C51.005 48.3361 50.8831 47.5038 51.2718 47.2148C52.5177 46.0752 53.9041 44.8549 54.3076 43.139C54.8763 40.8053 52.8214 38.3432 50.5293 38.0919Z" fill="#F8F2EA"/>
    </g>
    <defs>
    <clipPath id="clip0_13_16533">
    <rect width="35" height="35" fill="white" transform="translate(21 20)"/>
    </clipPath>
    </defs>
    </svg>
    