<svg width="24" height="25" viewBox="0 0 24 25" fill="none" xmlns="http://www.w3.org/2000/svg">
    <path d="M16.9331 15.9512C16.7336 15.9622 16.5315 15.978 16.3303 15.9835C15.2171 16.0131 14.1049 16.0436 12.9918 16.0658C12.709 16.0713 12.4262 16.0584 12.1443 16.0381C11.7237 16.0076 11.4536 15.7607 11.3593 15.3326C11.2532 14.8509 11.2369 14.36 11.2007 13.8709C11.1508 13.1913 11.1273 12.5108 11.12 11.8294C11.12 11.4975 11.2297 11.3255 11.5342 11.1997C11.7953 11.1042 12.0686 11.0478 12.3455 11.0324C13.5375 10.9141 14.7313 10.8308 15.9287 10.7957C16.9757 10.7652 18.0217 10.7338 19.0686 10.718C20.1401 10.7023 21.2115 10.7134 22.2829 10.6885C22.699 10.6783 22.9537 10.8872 23.0688 11.2959C23.2166 11.8183 23.1993 12.3555 23.1767 12.8871C23.067 15.4759 22.3455 17.8798 20.9033 20.023C19.2944 22.4176 17.0581 23.8868 14.2862 24.5035C12.0549 25.0179 9.72176 24.8071 7.61386 23.9007C6.16574 23.2793 4.85476 22.3675 3.75873 21.2194C1.83616 19.2371 0.621515 16.8739 0.172823 14.1177C-0.286746 11.3015 0.172823 8.62665 1.52071 6.12567C2.72176 3.89929 4.43857 2.20823 6.70197 1.1237C8.21086 0.399148 9.8557 0.0165385 11.5234 0.0021919C13.0088 -0.0281822 14.4841 0.257416 15.8553 0.840784C17.3526 1.47838 18.7234 2.38885 19.9008 3.52761C20.218 3.83549 20.528 4.15817 20.6522 4.61121C20.6753 4.67063 20.6824 4.73522 20.6731 4.7984C20.6637 4.86158 20.638 4.92109 20.5987 4.97087C19.9637 5.76823 19.2212 6.46986 18.3933 7.05487C18.3498 7.0863 18.3027 7.11774 18.2592 7.14733C17.9873 7.323 17.7724 7.30266 17.5458 7.06966C16.0819 5.55798 14.2735 4.98659 12.234 5.03559C9.21011 5.11141 6.89595 7.43949 6.13363 9.65386C5.48008 11.5539 5.64233 13.4132 6.64396 15.1532C7.76795 17.1059 9.48658 18.1119 11.692 18.2506C13.7668 18.38 15.4601 17.5387 16.8868 16.0575C16.9113 16.0353 16.943 16.014 16.9331 15.9512ZM17.5241 15.4473C17.4593 15.6904 17.361 15.9229 17.2322 16.1379C16.7364 17.0569 15.974 17.7005 15.0902 18.1886C12.7471 19.483 10.4112 19.4562 8.24203 17.8539C6.02848 16.2184 5.1882 13.8782 5.41572 11.1433C5.59701 8.96412 6.58232 7.18431 8.24747 5.81039C9.31345 4.93204 10.5136 4.38746 11.9195 4.42352C13.4704 4.46328 14.9162 4.88581 16.2868 5.60791C16.8062 5.88528 17.2703 6.24494 17.7652 6.55745C18.0425 6.73311 18.1586 6.71 18.4051 6.49365C19.017 5.95832 19.5962 5.38416 20.1863 4.82941C20.4211 4.60751 20.4319 4.55759 20.2715 4.27466C20.2507 4.23768 20.2226 4.2044 20.1999 4.16834C19.9171 3.71437 19.5074 3.3843 19.1122 3.0459C16.623 0.904579 13.7487 -0.0246204 10.5136 0.337814C7.86041 0.634603 5.5961 1.81714 3.78502 3.80868C1.14 6.71832 0.101214 10.1883 0.641457 14.1057C1.08108 17.3001 2.52052 19.9934 5.03501 21.984C8.41153 24.6579 12.1243 25.1368 16.0429 23.3848C18.9254 22.0959 20.78 19.7687 21.9657 16.8508C22.4533 15.6488 22.6654 14.3803 22.8241 13.1007C22.8983 12.5176 22.7991 11.9253 22.5394 11.4004C22.418 11.1517 22.2412 10.9926 21.9457 11.0121C21.7535 11.0241 21.5605 11.0213 21.3683 11.0185C20.2733 11.0047 19.1792 11.0398 18.0842 11.0685C16.7808 11.1027 15.4773 11.1609 14.1729 11.2016C13.3626 11.2284 12.5513 11.2561 11.7409 11.3107C11.6256 11.3261 11.519 11.3816 11.439 11.4678C11.3591 11.5541 11.3108 11.6657 11.3022 11.7841C11.2641 12.3779 11.2641 12.9737 11.3022 13.5676C11.3366 14.0807 11.3194 14.6003 11.4499 15.1024C11.5469 15.4722 11.6584 15.5406 12.0337 15.5351C12.5513 15.5258 13.0689 15.524 13.5864 15.512C14.3751 15.4944 15.1628 15.4667 15.9505 15.4528C16.478 15.4426 17.001 15.4473 17.5241 15.4473Z" fill="#F8F2EA"/>
    <path d="M17.524 15.4472C17.001 15.4472 16.478 15.4398 15.9559 15.4472C15.1682 15.4611 14.3804 15.4888 13.5918 15.5064C13.0743 15.5184 12.5567 15.5203 12.0391 15.5295C11.6638 15.5351 11.5523 15.4639 11.4553 15.0968C11.3248 14.5948 11.342 14.0798 11.3076 13.562C11.2695 12.9681 11.2695 12.3724 11.3076 11.7785C11.3162 11.6602 11.3645 11.5485 11.4444 11.4623C11.5244 11.376 11.631 11.3205 11.7463 11.3051C12.5567 11.2506 13.3679 11.2228 14.1783 11.196C15.4827 11.1526 16.7862 11.0971 18.0896 11.0629C19.1846 11.0342 20.2787 10.9991 21.3737 11.013C21.5659 11.013 21.7589 11.0185 21.9511 11.0065C22.2466 10.9871 22.4234 11.1461 22.5448 11.3948C22.8045 11.9197 22.9037 12.512 22.8295 13.0951C22.6708 14.3747 22.4587 15.6469 21.971 16.8452C20.7854 19.7632 18.9308 22.0903 16.0483 23.3792C12.1297 25.1312 8.41693 24.6523 5.04041 21.9784C2.52592 19.9878 1.08648 17.2945 0.64685 14.1001C0.102981 10.1864 1.1454 6.71274 3.79041 3.8031C5.60331 1.81063 7.86943 0.629022 10.519 0.332233C13.7541 -0.0302013 16.6284 0.898998 19.1175 3.04032C19.5109 3.37872 19.9207 3.70879 20.2053 4.16276C20.2279 4.19882 20.256 4.2321 20.2769 4.26908C20.4373 4.55385 20.4265 4.60378 20.1917 4.82383C19.6016 5.37858 19.0224 5.95459 18.4105 6.48807C18.164 6.70442 18.0479 6.72753 17.7706 6.55186C17.2756 6.23936 16.8115 5.87692 16.2922 5.60232C14.9216 4.87746 13.4758 4.4577 11.9249 4.41794C10.5144 4.38188 9.31884 4.92646 8.25286 5.80481C6.58771 7.17873 5.6015 8.95854 5.42111 11.1378C5.19359 13.869 6.03387 16.2128 8.24742 17.8484C10.4166 19.4506 12.7525 19.4775 15.0956 18.1831C15.9794 17.6949 16.7417 17.0514 17.2376 16.1323C17.364 15.9188 17.4605 15.6881 17.524 15.4472ZM3.26105 19.0808C3.25289 19.0891 3.2538 19.0975 3.26105 19.1058L3.31725 19.1733L3.34807 19.2176C3.36076 19.2269 3.38251 19.2463 3.38614 19.2435C3.41242 19.2223 3.3952 19.2029 3.37707 19.1862L3.35622 19.1455L3.30184 19.079L3.27192 19.0512L3.23567 19.0244L3.26105 19.0808ZM3.21482 18.9246C3.1985 18.9375 3.16587 18.9458 3.20394 18.9717L3.21301 18.9236C3.18581 18.9236 3.15409 18.8783 3.13414 18.9347C3.18491 18.8904 3.1414 18.8543 3.12327 18.8182C3.10514 18.7822 3.07795 18.7729 3.06344 18.8247C3.12417 18.7757 3.07976 18.7489 3.04259 18.7212C3.03443 18.7082 3.0299 18.6906 3.01903 18.6842C2.99183 18.6694 3.0009 18.7017 2.99093 18.711C3.06797 18.6342 2.98095 18.6185 2.94107 18.5797C2.95739 18.6213 2.97461 18.6638 2.99183 18.7054C3.00996 18.7054 3.02174 18.7424 3.04531 18.7165C3.01812 18.7572 3.07522 18.7831 3.06253 18.8201C3.0852 18.8201 3.1133 18.8552 3.1278 18.809C3.07523 18.8534 3.14412 18.8904 3.13414 18.931C3.14677 18.938 3.1611 18.9411 3.17542 18.94C3.18974 18.9388 3.20342 18.9335 3.21482 18.9246ZM18.1377 20.7173C18.1458 20.7321 18.1549 20.7497 18.173 20.7349C18.1912 20.7201 18.1667 20.7081 18.1622 20.6933C18.1576 20.6785 18.1386 20.6507 18.1159 20.6813C18.1132 20.685 18.1304 20.7044 18.1377 20.7173ZM3.86384 19.8732C3.8729 19.8852 3.88106 19.9028 3.89737 19.8806L3.87653 19.8602C3.87653 19.8464 3.87018 19.8205 3.84933 19.8343C3.82848 19.8482 3.84752 19.8639 3.86384 19.8732ZM19.888 19.5542C19.9007 19.5616 19.9161 19.5782 19.9252 19.5755C19.9533 19.5634 19.9442 19.5385 19.9379 19.5154C19.9379 19.5366 19.9542 19.5431 19.9723 19.5339C19.9905 19.5246 19.9814 19.52 19.9796 19.5181C19.9669 19.5006 19.9542 19.507 19.9433 19.5228L19.8917 19.5542V19.6023C19.8998 19.6023 19.9134 19.6023 19.9161 19.594C19.9343 19.5662 19.9143 19.5551 19.888 19.5542ZM3.45956 19.3637L3.49038 19.4035L3.54114 19.4654C3.55202 19.4747 3.56924 19.4932 3.57196 19.4922C3.59643 19.4728 3.57921 19.4571 3.56471 19.4414L3.51848 19.3776L3.48675 19.336L3.45956 19.2925C3.44596 19.2833 3.42511 19.263 3.42149 19.2667C3.3943 19.287 3.41242 19.3046 3.42965 19.3212L3.45956 19.3637ZM16.1562 22.6996C16.1706 22.703 16.1857 22.7012 16.199 22.6945C16.2122 22.6877 16.2227 22.6765 16.2287 22.6626L16.2749 22.6506C16.2686 22.6451 16.2631 22.6349 16.2568 22.6349C16.2505 22.6349 16.2278 22.6441 16.2314 22.6654C16.1997 22.6654 16.168 22.6589 16.1589 22.7024L16.0973 22.7144C16.0973 22.7199 16.1018 22.7283 16.1063 22.7292C16.1115 22.731 16.117 22.7317 16.1225 22.7311C16.1279 22.7306 16.1332 22.7289 16.1379 22.7261C16.1426 22.7232 16.1467 22.7194 16.1499 22.7149C16.153 22.7103 16.1552 22.7051 16.1562 22.6996ZM17.9999 20.4899L17.989 20.4843H18.0017C18.0017 20.5167 17.9954 20.5481 18.0362 20.5592C18.0407 20.5953 18.0516 20.6267 18.0915 20.635C18.0961 20.6317 18.0993 20.6268 18.1005 20.6212C18.0519 20.5903 18.0161 20.5422 17.9999 20.4862V20.4899ZM8.3009 18.2811C8.29654 18.2716 8.28873 18.2643 8.27915 18.2607L8.1885 18.1932L8.11961 18.1414H8.07519L8.09695 18.1775L8.14771 18.2274L8.23836 18.294L8.27824 18.3273L8.33897 18.3781L8.38792 18.416C8.41149 18.3846 8.39698 18.3633 8.36888 18.3449L8.3009 18.2811ZM21.0954 17.4489C21.0969 17.4575 21.0969 17.4663 21.0954 17.4748C21.0882 17.4915 21.0954 17.4979 21.1045 17.485C21.1135 17.472 21.1 17.4591 21.0981 17.4462L21.1371 17.4619L21.1426 17.4351L21.0954 17.4489ZM5.71571 15.1088L5.72659 15.1153H5.7139C5.70664 15.1005 5.73384 15.0663 5.69033 15.0709C5.70302 15.0802 5.70755 15.094 5.71571 15.1088ZM5.46372 21.6687L5.49272 21.7029L5.50451 21.677L5.461 21.6715C5.4474 21.5994 5.41658 21.5661 5.34588 21.6169C5.40208 21.5032 5.27971 21.5245 5.24708 21.4838C5.22985 21.4487 5.21263 21.4172 5.17003 21.457C5.19631 21.3719 5.07938 21.3775 5.07938 21.3109L5.03134 21.3238L5.05219 21.3442L5.07848 21.3081C5.0259 21.4135 5.1383 21.4052 5.16912 21.4496L5.22895 21.5069C5.26702 21.5411 5.30509 21.5762 5.34407 21.6095C5.38757 21.6271 5.41205 21.6761 5.46372 21.6687ZM2.15427 6.86992C2.19001 6.83646 2.2123 6.79067 2.21682 6.7414L2.6918 5.91668C2.4679 6.14967 2.32922 6.43537 2.18056 6.71182C2.14263 6.7468 2.11793 6.79424 2.11076 6.84588C2.10079 6.86437 2.08176 6.88471 2.11076 6.90043C2.13977 6.91615 2.1443 6.88749 2.15427 6.86992ZM2.09173 17.0634L2.21954 17.3269C2.21258 17.2211 2.17146 17.1206 2.10261 17.0412C2.08553 16.9234 2.03257 16.8141 1.95123 16.7287C1.96063 16.853 2.01002 16.9707 2.09173 17.0634ZM19.8237 19.6651C19.7648 19.7345 19.6814 19.7863 19.6669 19.8889C19.7397 19.833 19.7994 19.7613 19.8418 19.679C19.8517 19.6697 19.8611 19.6599 19.8699 19.6494C19.8436 19.6198 19.8373 19.6522 19.8237 19.6651ZM21.3311 16.9219C21.2658 17.0773 21.2012 17.2329 21.1371 17.3888L21.1761 17.4055L21.38 16.9136C21.4734 16.7422 21.5435 16.5587 21.5885 16.3681L21.5423 16.3496C21.4752 16.5401 21.4009 16.7315 21.3311 16.9219ZM8.87559 18.6333C8.86109 18.6287 8.8357 18.6176 8.83389 18.6213C8.8203 18.6426 8.84114 18.6472 8.85474 18.6537C9.06491 18.8096 9.30911 18.9112 9.5663 18.9495L8.87559 18.6333ZM22.4723 11.5242L22.4768 11.5353V11.5252C22.5031 11.8266 22.5294 12.1271 22.5548 12.4285C22.5902 12.1206 22.6038 11.8136 22.4723 11.5242ZM1.23876 10.7642C1.1744 10.8567 1.19888 10.9658 1.18528 11.0666C1.11911 11.588 1.07651 12.1104 1.18528 12.6328C1.19344 12.0087 1.19888 11.3846 1.23604 10.7624L1.25598 10.6773H1.2442L1.23876 10.7642ZM5.89972 21.9609C5.87112 21.9271 5.83598 21.8997 5.79652 21.8805C5.75705 21.8612 5.71411 21.8505 5.67039 21.849L5.87978 21.9849C6.38683 22.3512 6.93187 22.6594 7.50504 22.9039C7.55127 22.9224 7.58934 22.9761 7.65823 22.9391C7.60837 22.9132 7.57574 22.8771 7.52498 22.8818L5.89972 21.9609ZM10.8852 4.16923C10.6921 4.20447 10.5042 4.26443 10.3259 4.34767C10.5132 4.33463 10.6977 4.29511 10.8743 4.23025C12.0527 3.94178 13.2157 4.11098 14.395 4.34582C14.3505 4.25336 14.2798 4.25891 14.2227 4.24135C13.1382 3.90639 11.9844 3.88145 10.887 4.16923H10.8852ZM11.7835 23.4411C11.9403 23.4411 12.0962 23.4485 12.2521 23.4411C14.375 23.332 16.2523 22.5665 17.9192 21.236C18.0271 21.15 18.0352 21.0955 17.9573 20.978C17.3337 20.0378 16.6493 19.1428 15.9631 18.2478C15.8725 18.1294 15.8244 18.134 15.7147 18.2145C14.3931 19.1816 12.9292 19.6938 11.2904 19.6143C9.46841 19.5292 7.96642 18.7526 6.76356 17.3731C5.76647 16.234 5.19813 14.886 4.9688 13.3854C4.94613 13.2412 4.91713 13.2227 4.78751 13.2698C3.7602 13.6347 2.73289 13.9938 1.70558 14.347C1.59137 14.3867 1.56418 14.4256 1.59137 14.5522C2.0881 16.9238 3.18037 18.9541 4.92257 20.6138C6.8524 22.4537 9.13574 23.4143 11.7853 23.4411H11.7835ZM16.6185 14.7168C16.933 14.727 17.3663 14.6946 17.7969 14.7307C18.0815 14.7547 18.2129 14.9498 18.125 15.2299C18.0807 15.3562 18.0293 15.4797 17.9709 15.5998C17.5843 16.4344 17.0281 17.1757 16.3393 17.7744C16.294 17.8141 16.1843 17.8363 16.2858 17.9491C17.0523 18.7966 17.7661 19.6921 18.4232 20.6304C18.4858 20.7229 18.5247 20.7071 18.5864 20.6424C18.7586 20.4621 18.9381 20.2892 19.104 20.1034C21.2024 17.7402 22.1261 14.9415 22.078 11.7822C22.078 11.6713 22.0327 11.6454 21.9366 11.6518C21.7753 11.6611 21.613 11.6712 21.4507 11.6685C20.5969 11.6537 19.743 11.6287 18.8882 11.6195C17.8784 11.6084 16.8677 11.6287 15.858 11.6666C14.5666 11.7147 13.2755 11.7782 11.9847 11.8571C11.8823 11.8636 11.8442 11.8811 11.8506 12.0041C11.8886 12.7567 11.9575 13.5084 12.0155 14.2601C12.0255 14.3877 11.992 14.5458 12.0536 14.6364C12.1288 14.7445 12.2983 14.678 12.4252 14.6844C13.0734 14.7187 13.7233 14.7769 14.3714 14.7575C15.0829 14.7418 15.7918 14.7113 16.6203 14.7168H16.6185ZM11.9666 0.848146C10.3286 0.856467 9.07229 1.11905 7.86853 1.64328C6.78276 2.11563 5.78472 2.7749 4.91803 3.59229C4.86999 3.63667 4.79657 3.66256 4.88268 3.76056C5.57974 4.55663 6.2913 5.33235 7.02553 6.09697C7.10983 6.18388 7.14246 6.17279 7.21588 6.09142C7.83367 5.40081 8.5712 4.83252 9.39136 4.41517C10.8226 3.69122 12.3228 3.44343 13.8919 3.79385C15.3703 4.12392 16.681 4.83492 17.9093 5.71512C18.0117 5.78816 18.0579 5.77892 18.1422 5.69663C18.4359 5.40631 18.7387 5.12709 19.0369 4.84232C19.1502 4.73415 19.3369 4.63152 19.3496 4.51132C19.3623 4.39113 19.1747 4.26631 19.0659 4.15259C17.0336 2.01959 14.5608 0.902697 11.9684 0.844448L11.9666 0.848146ZM4.38867 4.11283C4.34425 4.16646 4.30981 4.20991 4.27355 4.25059C3.24149 5.39746 2.45573 6.75162 1.96664 8.22627C1.37944 9.97277 1.20004 11.835 1.44271 13.6646C1.46175 13.8126 1.50344 13.8061 1.61766 13.7691C2.64376 13.4437 3.67076 13.1219 4.69958 12.8066C4.85096 12.7604 4.90806 12.7142 4.89809 12.5385C4.85647 11.7162 4.93437 10.8921 5.12924 10.093C5.41523 8.86739 5.95041 7.71673 6.70011 6.71552C6.79076 6.59902 6.769 6.54354 6.67383 6.45756C6.5016 6.30408 6.33602 6.14351 6.17709 5.97585C5.59062 5.35546 4.96154 4.77575 4.39048 4.10913L4.38867 4.11283ZM11.4136 0.57817C11.0094 0.496807 9.63701 0.690968 9.47203 0.87126C10.1229 0.664155 10.7692 0.641965 11.4136 0.57817ZM15.6422 22.9529L15.6277 22.9104L14.2889 23.4106C14.7528 23.305 15.2047 23.151 15.6377 22.9511L15.6422 22.9529ZM15.2207 4.84879C14.6838 4.59641 14.1076 4.44213 13.5184 4.39298C14.0904 4.51225 14.6551 4.67405 15.2207 4.84879ZM12.9936 23.6861L12.0282 23.7712C12.3524 23.8063 12.6801 23.7775 12.9936 23.6861ZM13.6417 15.0561C13.9097 15.0777 14.1792 15.0706 14.4457 15.0349C14.1756 14.9729 13.91 15.0524 13.6417 15.0561ZM8.65623 23.1924L7.98183 22.9492C8.19213 23.0879 8.40696 23.1998 8.65895 23.1933L8.65623 23.1924ZM21.5659 16.3099L21.6085 16.3311C21.7121 16.0848 21.7802 15.8244 21.8106 15.5582L21.5659 16.3099ZM13.5891 11.4725C13.4251 11.5067 13.2492 11.4114 13.0598 11.5048C13.2583 11.5714 13.4223 11.5122 13.5891 11.4725ZM2.45793 17.6819L2.41805 17.7023L2.68273 18.171L2.71718 18.1498L2.45793 17.6819ZM11.7164 14.2018C11.6924 14.2956 11.6881 14.3935 11.7037 14.4891C11.7193 14.5847 11.7545 14.6758 11.807 14.7566C11.7962 14.569 11.7661 14.383 11.7173 14.2018H11.7164ZM1.53879 8.49902C1.60167 8.35745 1.63942 8.20563 1.65029 8.05061C1.57684 8.18817 1.5385 8.34238 1.53879 8.49902ZM14.6252 1.07559C14.4629 0.962794 14.3206 0.960021 14.1421 0.923962C14.2951 0.997962 14.4578 1.04903 14.6252 1.07559ZM11.652 13.7784C11.6956 13.6212 11.6321 13.5093 11.6203 13.3928C11.6085 13.5075 11.5768 13.6286 11.652 13.7784ZM2.28027 17.3491L2.23948 17.374C2.30837 17.4591 2.32106 17.5784 2.43255 17.6385L2.28027 17.3491ZM2.07723 14.0816L2.06182 14.0483L1.80439 14.1325L1.81798 14.1722L2.07723 14.0816ZM16.0365 22.7468C16.0052 22.7422 15.9733 22.7471 15.9447 22.7607C15.916 22.7743 15.8919 22.7961 15.8752 22.8235C15.9066 22.8308 15.9395 22.8273 15.9688 22.8134C15.998 22.7995 16.0218 22.776 16.0365 22.7468ZM2.8468 18.3828L2.8187 18.4123L2.90934 18.5362L2.93563 18.5131L2.8468 18.3828ZM2.74256 18.1978L2.71174 18.2163L2.79695 18.3541L2.82686 18.3347L2.74256 18.1978ZM5.53351 21.7196C5.54461 21.7451 5.56224 21.7672 5.58457 21.7835C5.60689 21.7998 5.63308 21.8096 5.66042 21.812C5.64922 21.7867 5.63152 21.7648 5.60919 21.7489C5.58685 21.733 5.56071 21.7235 5.53351 21.7214V21.7196ZM2.03281 7.03449C1.98052 7.0885 1.94845 7.15949 1.94216 7.23513C2.02103 7.19907 2.03643 7.14729 2.03281 7.03449ZM5.63322 14.935C5.64313 14.9081 5.64387 14.8787 5.63531 14.8513C5.62676 14.824 5.60942 14.8004 5.58609 14.7843C5.56343 14.8462 5.59153 14.8879 5.63322 14.935ZM14.7095 1.08391C14.7001 1.08073 14.6904 1.07886 14.6805 1.07837C14.6624 1.07837 14.6614 1.08946 14.6805 1.09501C14.6904 1.09683 14.7005 1.09683 14.7104 1.09501C14.7104 1.09501 14.7095 1.08761 14.7095 1.08391ZM1.78898 16.3866C1.78747 16.3967 1.78747 16.407 1.78898 16.4171C1.78898 16.4337 1.80257 16.4337 1.81073 16.4171C1.81253 16.412 1.81253 16.4065 1.81073 16.4014C1.80386 16.3959 1.79658 16.391 1.78898 16.3866ZM3.95811 19.9555C3.95811 19.9555 3.95085 19.9471 3.94723 19.9471C3.9436 19.9471 3.93001 19.9545 3.94723 19.961C3.94904 19.9619 3.95448 19.9573 3.95811 19.9555ZM15.2887 4.86266C15.2787 4.86266 15.2615 4.86913 15.2606 4.87468C15.2561 4.89687 15.2706 4.90519 15.2896 4.90057C15.2996 4.89594 15.3088 4.8897 15.3168 4.88208L15.2887 4.86266ZM5.56887 14.7103L5.55799 14.6808C5.55164 14.6863 5.54077 14.6918 5.54077 14.6983C5.54169 14.7084 5.54479 14.7182 5.54983 14.727L5.56887 14.7103ZM5.48638 14.4829H5.47641V14.4995L5.48638 14.4829ZM5.52173 14.6105C5.52173 14.6049 5.52173 14.5985 5.52173 14.5948C5.52173 14.5911 5.50904 14.5809 5.50541 14.5948C5.50179 14.6086 5.50541 14.6049 5.50541 14.6105H5.52173ZM1.91497 16.6353L1.90319 16.6224L1.8905 16.6353L1.90863 16.6483L1.91497 16.6353ZM1.88053 16.5623L1.86965 16.5493L1.85787 16.5613L1.87418 16.5743L1.88053 16.5623ZM3.78407 19.7779C3.7886 19.7733 3.79585 19.7696 3.79495 19.765C3.79404 19.7604 3.78769 19.7567 3.78316 19.753C3.77863 19.7493 3.77228 19.7622 3.77228 19.7659C3.77228 19.7696 3.78497 19.7742 3.7886 19.7779H3.78407ZM1.82251 16.4818C1.82251 16.4818 1.81617 16.4911 1.81708 16.4938C1.82342 16.5114 1.83248 16.5114 1.83974 16.4938C1.83967 16.489 1.83771 16.4843 1.8343 16.4809C1.8343 16.4809 1.83067 16.4818 1.82705 16.4818H1.82251ZM4.97514 21.2896L4.98783 21.2767L4.97786 21.2674L4.96517 21.2859L4.97514 21.2896ZM5.65226 14.9692C5.65226 14.9692 5.64682 14.9766 5.64773 14.9794C5.64863 14.9822 5.66042 14.996 5.66676 14.9794C5.66676 14.9794 5.66676 14.9711 5.66223 14.9683C5.6577 14.9655 5.66042 14.972 5.65679 14.972L5.65226 14.9692ZM2.05003 7.0308L2.06272 7.01785C2.055 7.01322 2.04679 7.0095 2.03825 7.00676C2.03825 7.00676 2.031 7.01415 2.02646 7.01785L2.05003 7.0308ZM2.09898 6.94389C2.09898 6.94389 2.08992 6.93187 2.0872 6.93279C2.07865 6.93554 2.07044 6.93926 2.06272 6.94389C2.06272 6.94389 2.07179 6.95683 2.07451 6.95591C2.08462 6.95451 2.09442 6.95138 2.10351 6.94666L2.09898 6.94389ZM1.95123 16.7093C1.95123 16.7093 1.94307 16.6982 1.94126 16.6991C1.93355 16.7014 1.92621 16.7048 1.9195 16.7093C1.9195 16.7093 1.92675 16.7213 1.92947 16.7204C1.93869 16.7194 1.94763 16.7166 1.95576 16.712L1.95123 16.7093ZM3.75778 19.6957L3.7469 19.6827L3.73512 19.6957L3.75144 19.7086L3.75778 19.6957Z" fill="black"/>
    <path d="M11.7853 23.4411C9.13574 23.4143 6.85239 22.4537 4.91894 20.6128C3.17674 18.956 2.08447 16.9219 1.58774 14.5513C1.56055 14.4247 1.58774 14.3858 1.70195 14.3461C2.73228 13.9916 3.75959 13.6326 4.78388 13.2689C4.91712 13.2218 4.94613 13.2403 4.96517 13.3845C5.1945 14.8851 5.76556 16.2331 6.75993 17.3722C7.96279 18.7517 9.46478 19.5283 11.2867 19.6134C12.9256 19.6901 14.3895 19.1807 15.7111 18.2136C15.8208 18.1331 15.8688 18.1285 15.9595 18.2469C16.6429 19.1418 17.3273 20.0368 17.9537 20.9771C18.0316 21.0946 18.0235 21.1491 17.9156 21.2351C16.2486 22.5656 14.3714 23.3311 12.2485 23.4402C12.098 23.4485 11.9421 23.4411 11.7853 23.4411Z" fill="#F8F2EA"/>
    <path d="M16.6203 14.7169C15.7918 14.7113 15.0793 14.7418 14.3732 14.7594C13.7251 14.7751 13.0752 14.7205 12.427 14.6863C12.3001 14.6799 12.1306 14.7464 12.0554 14.6383C11.9938 14.5458 12.0273 14.3896 12.0173 14.262C11.9593 13.5103 11.8904 12.7586 11.8524 12.006C11.846 11.883 11.8841 11.8655 11.9865 11.859C13.2773 11.7819 14.5684 11.7184 15.8598 11.6685C16.8695 11.6306 17.8802 11.6103 18.89 11.6214C19.7448 11.6306 20.5987 11.6556 21.4526 11.6704C21.6148 11.6704 21.7771 11.663 21.9384 11.6537C22.0345 11.6473 22.078 11.6731 22.0798 11.7841C22.1279 14.9452 21.2042 17.7439 19.1058 20.1053C18.9399 20.2902 18.7604 20.464 18.5882 20.6443C18.5265 20.709 18.4876 20.7211 18.425 20.6323C17.768 19.694 17.0541 18.7985 16.2876 17.951C16.1861 17.8382 16.2958 17.816 16.3411 17.7763C17.0299 17.1776 17.5861 16.4363 17.9727 15.6017C18.0311 15.4816 18.0825 15.3581 18.1268 15.2318C18.2174 14.9545 18.0833 14.7566 17.7987 14.7326C17.3681 14.6947 16.9348 14.727 16.6203 14.7169Z" fill="black"/>
    <path d="M11.9684 0.844421C14.5608 0.90267 17.03 2.01956 19.0659 4.14886C19.1747 4.26258 19.3632 4.37723 19.3496 4.5076C19.336 4.63796 19.1502 4.73042 19.0369 4.8386C18.7387 5.12337 18.4359 5.40259 18.1422 5.69291C18.0579 5.77519 18.0117 5.78536 17.9093 5.7114C16.681 4.8312 15.3712 4.1202 13.8919 3.79013C12.3228 3.43971 10.8226 3.6875 9.39135 4.41144C8.57119 4.8288 7.83366 5.39708 7.21588 6.0877C7.14246 6.16906 7.10982 6.18016 7.02552 6.09325C6.2913 5.33325 5.57521 4.5529 4.88268 3.75684C4.79657 3.65884 4.86999 3.63295 4.91803 3.58857C5.78472 2.77118 6.78276 2.1119 7.86852 1.63956C9.0741 1.11162 10.3304 0.852743 11.9684 0.844421Z" fill="#F8F2EA"/>
    <path d="M4.39048 4.10913C4.96154 4.77575 5.59062 5.35546 6.18072 5.97585C6.33965 6.14289 6.50522 6.30346 6.67745 6.45756C6.77263 6.54354 6.79076 6.59902 6.70374 6.71551C5.95145 7.71609 5.41378 8.8668 5.12561 10.093C4.93074 10.8921 4.85285 11.7162 4.89447 12.5385C4.90444 12.7105 4.84733 12.7604 4.69595 12.8066C3.66623 13.1201 2.63922 13.4437 1.61403 13.7691C1.49982 13.8061 1.45812 13.8126 1.43909 13.6646C1.19773 11.8329 1.37932 9.96907 1.96936 8.22165C2.45845 6.747 3.24421 5.39284 4.27627 4.24597C4.31162 4.20621 4.34335 4.16276 4.39048 4.10913Z" fill="black"/>
    <path d="M10.887 4.16924C11.9852 3.87927 13.1403 3.90261 14.2264 4.23673C14.2835 4.2543 14.3542 4.25338 14.3986 4.34121C13.2202 4.10637 12.0554 3.93717 10.8779 4.22564L10.887 4.16924Z" fill="#F8F2EA"/>
    <path d="M7.50501 22.9039C6.9334 22.6591 6.3899 22.3509 5.88428 21.9849L5.90422 21.9609L7.52948 22.8855L7.50501 22.9039Z" fill="#F8F2EA"/>
    <path d="M11.4137 0.578162C10.7737 0.641958 10.1274 0.664148 9.47205 0.871253C9.63249 0.690961 11.0048 0.4968 11.4137 0.578162Z" fill="#6E6E6E"/>
    <path d="M15.6378 22.9511C15.2034 23.1523 14.7499 23.3072 14.2844 23.4134L15.6232 22.9132L15.6378 22.9511Z" fill="#F8F2EA"/>
    <path d="M1.23688 10.7624C1.19971 11.3846 1.19427 12.0087 1.18612 12.6328C1.07644 12.1104 1.11904 11.588 1.18612 11.0666C1.19971 10.9658 1.17524 10.8558 1.2396 10.7642L1.23688 10.7624Z" fill="#6E6E6E"/>
    <path d="M15.2206 4.84882C14.6586 4.67408 14.0939 4.51228 13.5183 4.39301C14.1075 4.44215 14.6837 4.59643 15.2206 4.84882Z" fill="#6E6E6E"/>
    <path d="M2.18054 6.71182C2.33192 6.43445 2.46789 6.14968 2.69178 5.91669L2.2168 6.74141L2.18054 6.71182Z" fill="#F8F2EA"/>
    <path d="M13.6417 15.0562C13.9137 15.0562 14.1756 14.9729 14.4457 15.0349C14.1792 15.0706 13.9097 15.0778 13.6417 15.0562Z" fill="#F8F2EA"/>
    <path d="M8.65889 23.1934C8.4069 23.1998 8.19207 23.088 7.9845 22.9502L8.65889 23.1934Z" fill="#F8F2EA"/>
    <path d="M8.87558 18.6333L9.5663 18.9495C9.30911 18.9112 9.06491 18.8096 8.85474 18.6536L8.87558 18.6333Z" fill="#6E6E6E"/>
    <path d="M13.5891 11.4725C13.4214 11.5122 13.2573 11.5714 13.0597 11.5048C13.25 11.4115 13.4259 11.5067 13.5891 11.4725Z" fill="#6E6E6E"/>
    <path d="M2.45883 17.6819L2.71807 18.1498L2.68363 18.171L2.41895 17.7023L2.45883 17.6819Z" fill="#F8F2EA"/>
    <path d="M10.887 4.16925L10.878 4.22565C10.7004 4.29242 10.5146 4.3335 10.3259 4.34769C10.5048 4.2643 10.6934 4.20434 10.887 4.16925Z" fill="#6E6E6E"/>
    <path d="M11.7172 14.2018C11.7664 14.383 11.7967 14.569 11.8079 14.7566C11.7553 14.6758 11.7201 14.5847 11.7045 14.4891C11.6889 14.3935 11.6932 14.2956 11.7172 14.2018Z" fill="#6E6E6E"/>
    <path d="M1.53882 8.49902C1.53852 8.34237 1.57686 8.18817 1.65031 8.0506C1.63944 8.20562 1.60169 8.35745 1.53882 8.49902Z" fill="#6E6E6E"/>
    <path d="M14.6251 1.07561C14.4579 1.04994 14.2952 0.999802 14.142 0.926758C14.3205 0.960043 14.4628 0.962816 14.6251 1.07561Z" fill="#6E6E6E"/>
    <path d="M11.652 13.7784C11.5768 13.6333 11.6085 13.5122 11.6203 13.3929C11.6321 13.5011 11.6955 13.6166 11.652 13.7784Z" fill="#6E6E6E"/>
    <path d="M2.28029 17.3491L2.43258 17.6385C2.32108 17.5784 2.30839 17.4591 2.2395 17.3741L2.28029 17.3491Z" fill="#F8F2EA"/>
    <path d="M2.07728 14.0817L1.81804 14.1741L1.80444 14.1344L2.06187 14.0502L2.07728 14.0817Z" fill="#6E6E6E"/>
    <path d="M2.09167 17.0634C2.00997 16.9707 1.96058 16.853 1.95117 16.7287C2.03251 16.8141 2.08547 16.9234 2.10255 17.0412L2.10708 17.0578L2.09167 17.0634Z" fill="#6E6E6E"/>
    <path d="M2.10255 17.0412C2.1714 17.1206 2.21252 17.2211 2.21948 17.3269L2.09167 17.0634L2.10708 17.0578L2.10255 17.0412Z" fill="#F8F2EA"/>
    <path d="M5.88419 21.9849L5.6748 21.849C5.71853 21.8505 5.76147 21.8612 5.80094 21.8805C5.8404 21.8997 5.87554 21.9271 5.90414 21.9609L5.88419 21.9849Z" fill="#F8F2EA"/>
    <path d="M16.0365 22.7468C16.0218 22.776 15.9979 22.7995 15.9687 22.8134C15.9395 22.8273 15.9066 22.8308 15.8751 22.8235C15.8918 22.7961 15.916 22.7743 15.9446 22.7607C15.9733 22.7471 16.0052 22.7422 16.0365 22.7468Z" fill="#6E6E6E"/>
    <path d="M2.84684 18.3828L2.93749 18.5131L2.9112 18.5362L2.82056 18.4123L2.84684 18.3828Z" fill="#F8F2EA"/>
    <path d="M2.74249 18.1997L2.8277 18.3384L2.79778 18.3578L2.71167 18.2163L2.74249 18.1997Z" fill="#F8F2EA"/>
    <path d="M5.34761 21.6104L5.2334 21.5069L5.24699 21.4838C5.27963 21.5281 5.402 21.5032 5.3458 21.6169L5.34761 21.6104Z" fill="#F8F2EA"/>
    <path d="M5.53345 21.7214C5.56083 21.7237 5.58711 21.7334 5.60947 21.7497C5.63183 21.766 5.64941 21.7882 5.66035 21.8139C5.63302 21.8115 5.60682 21.8016 5.5845 21.7854C5.56218 21.7691 5.54455 21.747 5.53345 21.7214Z" fill="#F8F2EA"/>
    <path d="M5.07932 21.3109C5.07932 21.3775 5.19625 21.372 5.16996 21.457V21.4506C5.13551 21.4052 5.02312 21.4136 5.07932 21.3082V21.3109Z" fill="#F8F2EA"/>
    <path d="M2.03278 7.03455C2.03278 7.14734 2.021 7.19912 1.94214 7.23518C1.94842 7.15955 1.9805 7.08855 2.03278 7.03455Z" fill="#6E6E6E"/>
    <path d="M5.6332 14.9351C5.5915 14.8833 5.5634 14.8426 5.58606 14.7844C5.6094 14.8004 5.62674 14.824 5.63529 14.8514C5.64384 14.8787 5.64311 14.9082 5.6332 14.9351Z" fill="#6E6E6E"/>
    <path d="M7.52495 22.8818C7.57571 22.8818 7.60834 22.9132 7.65819 22.9391C7.5893 22.9761 7.55123 22.9225 7.505 22.904L7.52495 22.8818Z" fill="#F8F2EA"/>
    <path d="M2.21682 6.74138C2.2123 6.79064 2.19002 6.83644 2.15428 6.86989L2.10986 6.84678C2.11751 6.79483 2.14248 6.74715 2.18057 6.71179L2.21682 6.74138Z" fill="#6E6E6E"/>
    <path d="M2.9918 18.7064L2.94104 18.5797C2.98092 18.6148 3.06794 18.6343 2.99089 18.7101L2.9918 18.7064Z" fill="#F8F2EA"/>
    <path d="M5.34575 21.617C5.41646 21.5661 5.44728 21.5994 5.46087 21.6715C5.40921 21.6789 5.38473 21.6299 5.34485 21.6133L5.34575 21.617Z" fill="#F8F2EA"/>
    <path d="M1.23872 10.7643L1.24494 10.6718H1.25649C1.25027 10.6996 1.24316 10.7282 1.23694 10.7569L1.23872 10.7643Z" fill="#6E6E6E"/>
    <path d="M8.23115 18.2931L8.1405 18.2265L8.18129 18.1932L8.27194 18.2607L8.23115 18.2931Z" fill="#6E6E6E"/>
    <path d="M18.0353 20.5629C18.0437 20.5618 18.0523 20.5626 18.0604 20.5653C18.0685 20.5679 18.0759 20.5724 18.0821 20.5783C18.0884 20.5842 18.0932 20.5914 18.0964 20.5995C18.0996 20.6075 18.101 20.6162 18.1005 20.6249C18.0993 20.6305 18.0961 20.6354 18.0915 20.6387C18.0516 20.6304 18.0407 20.599 18.0362 20.5629H18.0353Z" fill="#6E6E6E"/>
    <path d="M14.7121 1.08424V1.09386C14.7016 1.09576 14.6909 1.09576 14.6803 1.09386C14.6621 1.08809 14.663 1.07943 14.6803 1.07654C14.6912 1.07759 14.7019 1.08018 14.7121 1.08424Z" fill="#6E6E6E"/>
    <path d="M5.71623 15.109L5.69031 15.0663C5.73475 15.0617 5.70697 15.096 5.71438 15.1109L5.71623 15.109Z" fill="#6E6E6E"/>
    <path d="M1.78897 16.3866C1.79553 16.3917 1.80172 16.3973 1.80749 16.4033C1.80933 16.4084 1.80933 16.414 1.80749 16.4191C1.79916 16.4339 1.7899 16.4339 1.78527 16.4191C1.78475 16.4081 1.78601 16.3972 1.78897 16.3866Z" fill="#6E6E6E"/>
    <path d="M8.11409 18.1415L8.18298 18.1933L8.14219 18.2265L8.09143 18.1766L8.11409 18.1415Z" fill="#6E6E6E"/>
    <path d="M5.17004 21.457C5.21265 21.4172 5.22987 21.4487 5.24709 21.4838L5.2335 21.5069L5.17276 21.4505L5.17004 21.457Z" fill="#F8F2EA"/>
    <path d="M8.33173 18.3772L8.271 18.3264L8.29728 18.2811L8.36164 18.3439L8.33173 18.3772Z" fill="#6E6E6E"/>
    <path d="M8.36158 18.3439C8.38968 18.3624 8.40418 18.3837 8.38061 18.4151L8.33167 18.3772L8.36158 18.3439Z" fill="#6E6E6E"/>
    <path d="M3.06262 18.821C3.07531 18.7831 3.01821 18.7572 3.0454 18.7166C3.08256 18.7443 3.12698 18.7711 3.06625 18.8201L3.06262 18.821Z" fill="#F8F2EA"/>
    <path d="M3.12415 18.8164C3.14138 18.8543 3.18489 18.8903 3.13413 18.9347C3.1441 18.8931 3.07521 18.8561 3.12778 18.8127L3.12415 18.8164Z" fill="#F8F2EA"/>
    <path d="M3.32085 19.1733L3.26465 19.1058L3.30544 19.079L3.35892 19.1455L3.32085 19.1733Z" fill="#6E6E6E"/>
    <path d="M3.54112 19.4655L3.49036 19.4026L3.51846 19.3776L3.56469 19.4414L3.54112 19.4655Z" fill="#6E6E6E"/>
    <path d="M3.96013 19.9561C3.96013 19.9561 3.9503 19.9629 3.94735 19.962C3.92966 19.9551 3.93064 19.9492 3.94735 19.9472C3.96406 19.9452 3.9562 19.9531 3.96013 19.9561Z" fill="#6E6E6E"/>
    <path d="M17.9999 20.4899C18.0135 20.4951 18.0248 20.5056 18.0312 20.5192C18.0377 20.5328 18.0388 20.5485 18.0345 20.5629C17.9945 20.5518 17.9972 20.5204 18.0008 20.488L17.9999 20.4899Z" fill="#6E6E6E"/>
    <path d="M16.2315 22.6649C16.2315 22.644 16.2389 22.6349 16.2574 22.6349C16.2759 22.6349 16.2694 22.6449 16.2759 22.6503L16.2288 22.6621L16.2315 22.6649Z" fill="#6E6E6E"/>
    <path d="M16.2286 22.6626C16.2227 22.6761 16.2122 22.6872 16.1989 22.6938C16.1857 22.7005 16.1705 22.7022 16.1561 22.6989C16.1652 22.6562 16.1969 22.6589 16.2286 22.6626Z" fill="#6E6E6E"/>
    <path d="M16.1562 22.6996C16.1552 22.705 16.1531 22.7101 16.1499 22.7146C16.1467 22.719 16.1427 22.7228 16.1379 22.7255C16.1332 22.7283 16.1279 22.73 16.1225 22.7305C16.117 22.7311 16.1115 22.7304 16.1064 22.7286C16.1064 22.7286 16.1 22.7196 16.0973 22.7141L16.1589 22.7023L16.1562 22.6996Z" fill="#6E6E6E"/>
    <path d="M15.2896 4.86267L15.3177 4.88173C15.3096 4.88921 15.3004 4.89534 15.2905 4.89988C15.2714 4.90442 15.2569 4.89988 15.2615 4.87447C15.2624 4.86902 15.2796 4.8663 15.2896 4.86267Z" fill="#6E6E6E"/>
    <path d="M5.56875 14.7111L5.54971 14.7281C5.54467 14.7192 5.54158 14.7091 5.54065 14.6988C5.54065 14.6921 5.55153 14.6865 5.55787 14.6808L5.56875 14.7111Z" fill="#6E6E6E"/>
    <path d="M5.48688 14.4829L5.48016 14.499L5.47632 14.4819L5.48688 14.4829Z" fill="#6E6E6E"/>
    <path d="M5.52132 14.6101H5.50978C5.50978 14.6046 5.50535 14.5991 5.50978 14.5946C5.51422 14.5901 5.52043 14.5755 5.52575 14.5946C5.53108 14.6137 5.52132 14.601 5.52132 14.6101Z" fill="#6E6E6E"/>
    <path d="M3.35084 19.2177L3.32092 19.1733L3.35899 19.1456L3.38075 19.1863L3.35084 19.2177Z" fill="#6E6E6E"/>
    <path d="M3.38069 19.1862C3.39882 19.2029 3.41604 19.2223 3.38976 19.2435C3.38976 19.2435 3.36437 19.2269 3.35168 19.2177L3.38069 19.1862Z" fill="#6E6E6E"/>
    <path d="M3.42966 19.3259C3.41244 19.3092 3.39431 19.2916 3.42151 19.2713C3.42151 19.2713 3.44598 19.2879 3.45958 19.2972L3.42966 19.3259Z" fill="#6E6E6E"/>
    <path d="M3.45948 19.2926L3.48667 19.3361L3.45948 19.3638L3.42957 19.3213L3.45948 19.2926Z" fill="#6E6E6E"/>
    <path d="M3.48679 19.336L3.51851 19.3776L3.49041 19.4026L3.45959 19.3637L3.48679 19.336Z" fill="#6E6E6E"/>
    <path d="M3.0453 18.7165C3.02173 18.7424 3.00995 18.7073 2.99182 18.7054C3.00179 18.6971 2.99182 18.6647 3.01992 18.6795C3.0308 18.686 3.03533 18.7036 3.04349 18.7165H3.0453Z" fill="#F8F2EA"/>
    <path d="M3.56412 19.4414C3.57834 19.4571 3.59523 19.4728 3.57123 19.4923C3.57123 19.4923 3.55168 19.4747 3.54102 19.4654L3.56412 19.4414Z" fill="#6E6E6E"/>
    <path d="M1.9155 16.6354L1.90902 16.6484L1.8905 16.6354L1.90346 16.6224L1.9155 16.6354Z" fill="#6E6E6E"/>
    <path d="M1.88093 16.5623L1.87445 16.5744L1.85779 16.5614L1.86982 16.5493L1.88093 16.5623Z" fill="#6E6E6E"/>
    <path d="M3.78884 19.7781C3.78884 19.7781 3.77773 19.7706 3.7768 19.766C3.77588 19.7614 3.78421 19.7576 3.78791 19.753C3.79162 19.7484 3.79995 19.7614 3.79995 19.7651C3.79995 19.7688 3.79347 19.7734 3.78884 19.7781Z" fill="#6E6E6E"/>
    <path d="M3.86428 19.8733C3.84762 19.864 3.8328 19.8464 3.84947 19.8343C3.86613 19.8223 3.87261 19.8464 3.87724 19.8603L3.86428 19.8733Z" fill="#6E6E6E"/>
    <path d="M3.87673 19.8603L3.89802 19.8807C3.88136 19.903 3.87303 19.8854 3.86377 19.8733L3.87673 19.8603Z" fill="#6E6E6E"/>
    <path d="M8.09237 18.1768L8.0697 18.1406H8.11599L8.09237 18.1768Z" fill="#6E6E6E"/>
    <path d="M18.0019 20.488H17.989L18 20.494L18.0019 20.488Z" fill="#6E6E6E"/>
    <path d="M3.06349 18.8241C3.078 18.7732 3.09975 18.7869 3.12422 18.8168V18.8095C3.10972 18.854 3.08162 18.8232 3.05896 18.8204L3.06349 18.8241Z" fill="#F8F2EA"/>
    <path d="M1.82709 16.4818C1.82709 16.4818 1.83634 16.4818 1.83912 16.4818C1.84261 16.4852 1.84461 16.4899 1.84468 16.4948C1.83727 16.5115 1.82801 16.5115 1.82153 16.4948C1.82061 16.4911 1.82524 16.4855 1.82709 16.4818Z" fill="#6E6E6E"/>
    <path d="M18.1376 20.7174C18.1304 20.7044 18.1132 20.685 18.1159 20.6813C18.1386 20.6508 18.1485 20.6813 18.1621 20.6933L18.1376 20.7174Z" fill="#6E6E6E"/>
    <path d="M18.1627 20.6933C18.1673 20.7081 18.1784 20.7323 18.1738 20.7351C18.1692 20.7378 18.146 20.7351 18.1377 20.7174L18.1627 20.6933Z" fill="#6E6E6E"/>
    <path d="M4.97817 21.2925L4.96521 21.286L4.97817 21.2675L4.99113 21.2795L4.97817 21.2925Z" fill="#F8F2EA"/>
    <path d="M5.07851 21.3082L5.05222 21.3436L5.03137 21.3236L5.07941 21.3109L5.07851 21.3082Z" fill="#F8F2EA"/>
    <path d="M5.71387 15.1112H5.72671L5.7157 15.1042L5.71387 15.1112Z" fill="#6E6E6E"/>
    <path d="M8.27096 18.3264L8.23108 18.2931L8.2755 18.2607C8.28508 18.2644 8.29289 18.2717 8.29725 18.2811L8.27096 18.3264Z" fill="#6E6E6E"/>
    <path d="M5.65662 14.972C5.65662 14.972 5.6646 14.972 5.66637 14.972C5.66814 14.972 5.67169 14.9816 5.6708 14.9835C5.6646 14.9999 5.65662 14.9989 5.65219 14.9835C5.64776 14.9681 5.65485 14.9806 5.65662 14.972Z" fill="#6E6E6E"/>
    <path d="M2.05508 7.03371L2.03101 7.02071C2.03101 7.02071 2.04026 7.00864 2.04304 7.00957C2.05176 7.01233 2.06015 7.01607 2.06804 7.02071L2.05508 7.03371Z" fill="#6E6E6E"/>
    <path d="M5.46094 21.6715L5.50537 21.6771L5.49334 21.7031L5.46371 21.6688L5.46094 21.6715Z" fill="#F8F2EA"/>
    <path d="M2.10499 6.94806C2.09695 6.95288 2.08841 6.95676 2.07952 6.95962C2.07952 6.95962 2.07103 6.95192 2.06726 6.9471C2.0753 6.94228 2.08384 6.93841 2.09273 6.93555C2.09273 6.93555 2.10027 6.94325 2.10499 6.94806Z" fill="#6E6E6E"/>
    <path d="M2.1543 6.86992C2.14432 6.88748 2.13707 6.9143 2.11079 6.90043C2.0845 6.88656 2.10081 6.86437 2.11079 6.8468L2.1543 6.86992Z" fill="#6E6E6E"/>
    <path d="M3.13414 18.9341C3.15408 18.8788 3.1858 18.9187 3.213 18.9233C3.2016 18.932 3.18792 18.9373 3.1736 18.9384C3.15928 18.9395 3.14495 18.9365 3.13232 18.9296L3.13414 18.9341Z" fill="#F8F2EA"/>
    <path d="M3.21243 18.9236L3.20354 18.9717C3.16622 18.9458 3.19821 18.9375 3.21421 18.9246L3.21243 18.9236Z" fill="#F8F2EA"/>
    <path d="M8.85256 18.6531C8.83869 18.6467 8.81742 18.6422 8.83129 18.6213C8.83129 18.6213 8.85903 18.6285 8.87382 18.6331L8.85256 18.6531Z" fill="#6E6E6E"/>
    <path d="M3.26059 19.0808L3.23926 19.0244L3.27481 19.0512L3.26059 19.0808Z" fill="#F8F2EA"/>
    <path d="M3.26473 19.1058C3.25385 19.0974 3.25294 19.0891 3.26473 19.0808L3.27923 19.0512L3.30914 19.0789L3.26473 19.1058Z" fill="#6E6E6E"/>
    <path d="M1.95764 16.7135C1.95044 16.718 1.94267 16.7216 1.93454 16.724C1.93454 16.724 1.92684 16.7163 1.92395 16.7125C1.93107 16.7078 1.93886 16.7043 1.94705 16.7019C1.94705 16.7019 1.95379 16.7086 1.95764 16.7135Z" fill="#6E6E6E"/>
    <path d="M3.75825 19.6957L3.75177 19.7087L3.73511 19.6957L3.74714 19.6827L3.75825 19.6957Z" fill="#6E6E6E"/>
    </svg>
    