<svg width="49" height="48" viewBox="0 0 49 48" fill="none" xmlns="http://www.w3.org/2000/svg">
<g filter="url(#filter0_d_8060_7902)">
<path d="M0 19.5641C0.072043 14.5961 1.73799 10.2218 5.10895 6.52157C7.85635 3.50642 11.2566 1.56972 15.2117 0.584542C16.4315 0.280755 17.6713 0.104323 18.927 0.0333447C21.5234 -0.113885 24.0502 0.223567 26.5004 1.10289C29.0081 2.00289 31.2239 3.37419 33.1581 5.19935C34.8041 6.75236 36.0875 8.56615 37.1302 10.5673C38.204 12.6285 38.9016 14.7985 39.2146 17.0969C39.355 18.1275 39.4181 19.1626 39.3839 20.2009C39.2256 25.0352 37.5393 29.2663 34.251 32.8278C31.4649 35.8449 28.0365 37.7837 24.0119 38.6589C22.8576 38.91 21.6894 39.0674 20.5066 39.0933C15.219 39.2097 10.5565 37.5647 6.58074 34.0879C3.42347 31.3267 1.4201 27.8593 0.483136 23.7815C0.192522 22.5177 0.0366321 21.2352 0.0187231 19.9373C0.017095 19.8197 0.00732641 19.7024 0.000407023 19.5646L0 19.5641Z" fill="#181818"/>
<path d="M20.7059 37.1542C17.9732 37.2037 15.4244 36.7559 12.9802 35.7594C11.2267 35.0447 9.58848 34.1293 8.16268 32.8728C5.81864 30.8075 4.10466 28.3091 3.02483 25.3811C2.55309 24.1027 2.23724 22.7858 2.06914 21.4351C1.90308 20.104 1.85301 18.7672 2.03577 17.4364C2.28161 15.647 2.8083 13.935 3.59548 12.3061C5.14786 9.09384 7.43818 6.52727 10.4575 4.62261C12.4568 3.36163 14.6327 2.52206 16.965 2.0966C18.1132 1.88691 19.2711 1.78835 20.4377 1.7993C22.2449 1.81633 24.0199 2.06537 25.7359 2.634C26.9309 3.02986 28.0437 3.6131 29.0971 4.30098C32.5157 6.53375 34.9403 9.57487 36.4646 13.3392C37.126 14.9725 37.5379 16.6691 37.7028 18.4244C37.7825 19.2721 37.8273 20.1218 37.7557 20.9707C37.6706 21.979 37.4671 22.9683 37.1915 23.9421C36.3734 26.8295 34.9285 29.3665 32.8694 31.5522C30.7166 33.8373 28.1434 35.4807 25.1608 36.4732C24.2649 36.7713 23.3304 36.919 22.3926 37.0317C21.8008 37.1027 21.2065 37.1343 20.7059 37.1546V37.1542Z" fill="#F8F2EA"/>
<path d="M20.7584 34.9968C18.3206 35.0401 16.047 34.6476 13.8666 33.7739C12.3024 33.1474 10.841 32.3448 9.56906 31.2432C7.47802 29.4326 5.94904 27.2422 4.98576 24.6752C4.56494 23.5544 4.28318 22.3998 4.13322 21.2157C3.98508 20.0487 3.94042 18.8766 4.10345 17.71C4.32276 16.1411 4.7926 14.6402 5.49481 13.2122C6.87964 10.3959 8.92276 8.14578 11.6162 6.47595C13.3997 5.37044 15.3408 4.63437 17.4213 4.26136C18.4455 4.07753 19.4785 3.99112 20.5192 4.00072C22.1313 4.01565 23.7147 4.23398 25.2455 4.73252C26.3115 5.07957 27.3042 5.5909 28.2439 6.19397C31.2935 8.15147 33.4564 10.8177 34.8162 14.1178C35.4062 15.5498 35.7737 17.0372 35.9207 18.5762C35.9919 19.3193 36.0319 20.0643 35.9679 20.8085C35.8921 21.6925 35.7105 22.5598 35.4647 23.4136C34.7349 25.945 33.4459 28.1692 31.609 30.0854C29.6887 32.0888 27.3932 33.5296 24.7325 34.3997C23.9333 34.6611 23.0996 34.7905 22.2631 34.8894C21.7351 34.9516 21.205 34.9793 20.7584 34.9971V34.9968Z" fill="#181818"/>
<path d="M5.47196 7.74853C5.88753 7.12473 6.35764 6.5423 6.85991 5.98746C7.13872 5.67961 7.47044 5.42409 7.81194 5.14464C7.07278 6.07222 6.27013 6.91058 5.50656 7.783C5.47644 7.7899 5.46057 7.783 5.47196 7.74853Z" fill="#F8F2EA"/>
<path d="M31.5451 5.75428C32.445 6.48475 33.2619 7.29755 33.9872 8.2008C33.9933 8.23041 33.9848 8.24542 33.9518 8.23447C33.1764 7.3811 32.342 6.58615 31.5068 5.792C31.5011 5.76118 31.5117 5.74617 31.5447 5.75428H31.5451Z" fill="#F8F2EA"/>
<path d="M38.9446 18.3487C39.0427 19.1071 39.094 19.8676 39.0195 20.6309C38.9918 20.9173 38.9479 21.202 38.9112 21.4875C38.8262 21.4478 38.8828 21.3825 38.8819 21.3273C38.9271 20.6184 38.9686 19.9094 38.9442 19.1984C38.9349 18.9262 38.9226 18.6541 38.9112 18.3819C38.9003 18.3491 38.9145 18.341 38.9446 18.3483V18.3487Z" fill="#F8F2EA"/>
<path d="M22.0484 37.7342C21.6304 37.7881 21.2128 37.8437 20.7944 37.8956C20.4012 37.9447 20.0068 37.9856 19.614 38.04C19.5102 38.0546 19.4113 38.0384 19.3103 38.0359C19.2806 38.0351 19.2249 38.0615 19.2318 37.9946C19.2363 37.952 19.2713 37.9353 19.3132 37.9325C19.463 37.9228 19.6124 37.9074 19.7625 37.9021C20.4378 37.8786 21.1082 37.8015 21.7777 37.7159C21.8669 37.7046 21.9568 37.6904 22.0484 37.7338V37.7342Z" fill="#F8F2EA"/>
<path d="M12.3728 3.22819C13.1804 2.77676 14.0632 2.52287 14.9403 2.25477C14.9753 2.24301 14.9839 2.25883 14.9778 2.29046C14.1108 2.58817 13.2475 2.89682 12.4066 3.26266C12.3732 3.2724 12.3651 3.2582 12.3728 3.22819Z" fill="#F8F2EA"/>
<path d="M30.635 34.3285C31.3404 33.7128 32.0624 33.115 32.7161 32.4409C32.5582 32.7483 31.0791 34.0973 30.635 34.3285Z" fill="#F8F2EA"/>
<path d="M33.7905 6.48265C34.0991 6.70856 35.2839 8.09487 35.4491 8.41002C34.8533 7.80488 34.3848 7.09023 33.7905 6.48265Z" fill="#F8F2EA"/>
<path d="M30.73 4.60641C30.3026 4.359 29.8756 4.11118 29.4482 3.86377C29.9192 4.03533 30.4174 4.15863 30.73 4.60641Z" fill="#F8F2EA"/>
<path d="M5.37438 8.77345C5.66703 8.35367 5.99753 7.96268 6.3256 7.57047C6.34839 7.54289 6.36793 7.478 6.42206 7.51856C6.48189 7.56358 6.42898 7.59968 6.39886 7.63537C6.06876 8.02636 5.73867 8.41775 5.40898 8.80915C5.38008 8.81401 5.3638 8.80631 5.37479 8.77345H5.37438Z" fill="#F8F2EA"/>
<path d="M38.6985 23.0426C38.6135 23.6064 38.4816 24.1592 38.3029 24.7011C38.2931 24.7128 38.283 24.7132 38.272 24.7023C38.4148 24.117 38.5601 23.5326 38.6631 22.9384C38.7401 22.9509 38.6965 23.0045 38.6985 23.0422V23.0426Z" fill="#F8F2EA"/>
<path d="M33.9524 8.23442C33.9642 8.22307 33.976 8.21212 33.9878 8.20076C34.3826 8.65259 34.727 9.14132 35.0538 9.64304C35.0648 9.67468 35.0497 9.67995 35.0229 9.67346C34.6932 9.17377 34.3191 8.70694 33.9524 8.23442Z" fill="#F8F2EA"/>
<path d="M38.6985 23.0425C38.6826 23.0093 38.7054 22.9626 38.6631 22.9387C38.7359 22.4017 38.8088 21.8647 38.8817 21.3277C38.902 21.3792 38.8707 21.44 38.911 21.4879C38.8401 22.0062 38.7693 22.5242 38.6989 23.0425H38.6985Z" fill="#F8F2EA"/>
<path d="M38.114 25.3142C38.0253 25.7607 37.8368 26.1736 37.6797 26.597C37.652 26.6717 37.6199 26.7447 37.5898 26.8185C37.5629 26.8221 37.5438 26.8193 37.5617 26.7852C37.7444 26.2884 37.9365 25.7944 38.0888 25.287C38.101 25.2825 38.1132 25.2785 38.1213 25.2927C38.1246 25.2983 38.1201 25.3064 38.1144 25.3142H38.114Z" fill="#F8F2EA"/>
<path d="M38.3936 14.5199C38.5437 14.9851 38.6882 15.4519 38.7033 15.9451C38.5999 15.4702 38.4969 14.9952 38.3936 14.5199Z" fill="#F8F2EA"/>
<path d="M18.8794 1.42822C19.231 1.39416 19.5811 1.33899 19.9344 1.32967C19.936 1.34913 19.938 1.3682 19.9397 1.38767C19.5974 1.41281 19.2551 1.43796 18.9123 1.46311C18.8798 1.47162 18.8704 1.45824 18.879 1.42782L18.8794 1.42822Z" fill="#F8F2EA"/>
<path d="M1.45256 19.5443V20.5027C1.43547 20.5027 1.41837 20.5019 1.40128 20.5015C1.32883 20.1567 1.45582 19.8185 1.45256 19.5443Z" fill="#F8F2EA"/>
<path d="M2.45463 13.69C2.39033 13.8644 2.32439 14.0388 2.26211 14.2141C2.24583 14.2599 2.2263 14.2968 2.17257 14.2753C2.10337 14.2473 2.15588 14.2076 2.17135 14.1759C2.25072 14.0129 2.33212 13.8515 2.41312 13.6892C2.42736 13.6758 2.4412 13.6762 2.45504 13.6904L2.45463 13.69Z" fill="#F8F2EA"/>
<path d="M15.8439 1.77214C15.5313 1.8496 15.2191 1.92707 14.9065 2.00494C15.1886 1.84798 15.4995 1.79363 15.8105 1.73847C15.8422 1.72955 15.8516 1.74253 15.8439 1.77254V1.77214Z" fill="#F8F2EA"/>
<path d="M2.16047 24.5757C2.01069 24.2747 1.96836 23.9438 1.9248 23.6128C2.00336 23.9336 2.08192 24.2548 2.16047 24.5757Z" fill="#F8F2EA"/>
<path d="M5.37423 8.77342C5.38563 8.78518 5.39703 8.79735 5.40842 8.80911C5.26556 9.00501 5.12269 9.20132 4.97983 9.39722C4.96762 9.38911 4.95581 9.381 4.9436 9.37288C5.08158 9.16968 5.21265 8.96162 5.37423 8.77342Z" fill="#F8F2EA"/>
<path d="M7.97241 33.6134C8.16371 33.7647 8.35501 33.916 8.54631 34.0673C8.24715 33.9298 8.06196 33.7826 7.97241 33.6134Z" fill="#F8F2EA"/>
<path d="M22.8663 1.14431C22.649 1.12809 22.4312 1.11146 22.198 1.09402C22.4377 0.969096 22.651 1.11592 22.8704 1.10456C22.8688 1.11754 22.8676 1.13093 22.8659 1.14391L22.8663 1.14431Z" fill="#F8F2EA"/>
<path d="M26.8538 2.76711C27.1049 2.79915 27.3227 2.89527 27.5209 3.03966C27.2986 2.94881 27.076 2.85796 26.8538 2.76711Z" fill="#F8F2EA"/>
<path d="M14.9776 2.29049C14.965 2.27873 14.9528 2.26656 14.9402 2.2548C15.1225 2.17124 15.3175 2.13515 15.5092 2.08769C15.5133 2.10067 15.5173 2.11365 15.5214 2.12663C15.3399 2.18138 15.1588 2.23573 14.9772 2.29049H14.9776Z" fill="#F8F2EA"/>
<path d="M23.9695 37.5784C24.1246 37.5326 24.2797 37.4864 24.4348 37.4405C24.3424 37.6003 24.1722 37.5638 24.0367 37.6133C24.0033 37.6222 23.9655 37.6405 23.9695 37.5784Z" fill="#F8F2EA"/>
<path d="M20.9666 38.2636C21.2152 38.2591 21.4607 38.1889 21.7118 38.236C21.4631 38.2404 21.2185 38.3212 20.9666 38.2636Z" fill="#F8F2EA"/>
<path d="M7.41309 32.6323C7.55432 32.7645 7.69597 32.8972 7.8372 33.0294C7.82825 33.0387 7.81889 33.0485 7.80993 33.0578C7.65364 32.9406 7.51688 32.8035 7.41309 32.6323Z" fill="#F8F2EA"/>
<path d="M8.26469 33.4451C8.1145 33.3424 7.97855 33.2244 7.86377 33.0829C8.02088 33.1766 8.15805 33.2942 8.28748 33.4215C8.29074 33.4394 8.283 33.4475 8.26469 33.4451Z" fill="#F8F2EA"/>
<path d="M2.98158 27.2493C2.88227 27.0875 2.81715 26.9127 2.7915 26.7216C2.86314 26.8904 2.93478 27.0595 3.00641 27.2282C3.00641 27.2449 2.99827 27.2518 2.98199 27.2497L2.98158 27.2493Z" fill="#F8F2EA"/>
<path d="M31.5451 5.75419C31.5325 5.76677 31.5199 5.77934 31.5073 5.79191C31.41 5.70349 31.3127 5.61508 31.2158 5.52666C31.3505 5.57087 31.4543 5.65401 31.5455 5.75419H31.5451Z" fill="#F8F2EA"/>
<path d="M35.0229 9.67346C35.0331 9.66332 35.0437 9.65318 35.0539 9.64304C35.1601 9.76066 35.233 9.89775 35.2838 10.0502C35.1967 9.92452 35.1101 9.79878 35.0229 9.67346Z" fill="#F8F2EA"/>
<path d="M15.8439 1.77219C15.8329 1.76083 15.8215 1.74947 15.8105 1.73812C15.9681 1.6862 16.128 1.64645 16.2949 1.64442C16.2986 1.64848 16.3018 1.65294 16.3055 1.657C16.1577 1.72027 15.999 1.73812 15.8439 1.77178V1.77219Z" fill="#F8F2EA"/>
<path d="M10.6238 35.0678C10.7402 35.1355 10.857 35.2033 10.9734 35.2706C10.8322 35.2479 10.7133 35.1822 10.6238 35.0678Z" fill="#F8F2EA"/>
<path d="M23.9692 37.5785C23.9773 37.6174 24.014 37.6016 24.0363 37.6133C23.8971 37.6458 23.7583 37.6786 23.6191 37.7111C23.7258 37.634 23.8463 37.6024 23.9692 37.5785Z" fill="#F8F2EA"/>
<path d="M38.9445 18.3485C38.9335 18.3599 38.9225 18.3709 38.9111 18.3822C38.868 18.2642 38.8798 18.1437 38.9091 18.0216L38.9445 18.3485Z" fill="#F8F2EA"/>
<path d="M8.76024 33.8324C8.65278 33.7687 8.55062 33.6982 8.46514 33.6065C8.46433 33.5907 8.47247 33.585 8.48753 33.5887C8.59417 33.6349 8.66988 33.7221 8.75942 33.7911C8.77367 33.8044 8.77407 33.8182 8.76024 33.8324Z" fill="#F8F2EA"/>
<path d="M12.3727 3.2282C12.3841 3.23956 12.3951 3.25132 12.4065 3.26268C12.3206 3.3223 12.2254 3.35962 12.1216 3.37584C12.1953 3.30811 12.2783 3.25862 12.3723 3.2278L12.3727 3.2282Z" fill="#F8F2EA"/>
<path d="M18.8794 1.42822C18.8904 1.43998 18.9018 1.45175 18.9128 1.46351C18.8057 1.51786 18.6942 1.49149 18.5811 1.46635C18.6804 1.45377 18.7801 1.4408 18.8794 1.42822Z" fill="#F8F2EA"/>
<path d="M2.45428 13.69C2.44044 13.69 2.42619 13.6892 2.41235 13.6888C2.45346 13.5983 2.49457 13.5079 2.53568 13.4178C2.53283 13.5184 2.51655 13.6125 2.45428 13.69Z" fill="#F8F2EA"/>
<path d="M3.13989 11.9448C3.18914 11.8446 3.23839 11.744 3.28764 11.6438C3.29985 11.6495 3.31247 11.6552 3.32468 11.6609C3.27787 11.7623 3.24857 11.8718 3.13989 11.9448Z" fill="#F8F2EA"/>
<path d="M37.8284 14.94C37.8044 14.8443 37.7804 14.7486 37.7563 14.6529C37.8268 14.7239 37.8569 14.8082 37.8581 14.9023C37.8736 14.9348 37.8581 14.9433 37.828 14.94H37.8284Z" fill="#F8F2EA"/>
<path d="M37.5613 26.7854C37.5707 26.7963 37.58 26.8077 37.5894 26.8186C37.5593 26.9034 37.5255 26.9861 37.4441 27.0762C37.4742 26.9561 37.5104 26.8681 37.5613 26.7854Z" fill="#F8F2EA"/>
<path d="M5.47213 7.74847C5.48353 7.75983 5.49533 7.77159 5.50673 7.78295C5.46806 7.87056 5.39805 7.93261 5.32642 7.99507C5.35531 7.90098 5.40172 7.81783 5.47213 7.74847Z" fill="#F8F2EA"/>
<path d="M3.00587 27.2282C3.05715 27.3174 3.10559 27.4071 3.11617 27.5133C3.0543 27.4338 3.00383 27.3491 2.98145 27.2497C2.98959 27.2424 2.99773 27.2355 3.00587 27.2282Z" fill="#F8F2EA"/>
<path d="M8.7601 33.8328C8.7601 33.8189 8.75969 33.805 8.75928 33.7911C8.8406 33.8377 8.91495 33.893 8.97122 33.9724C8.89277 33.9384 8.81391 33.9057 8.7601 33.8332V33.8328Z" fill="#F8F2EA"/>
<path d="M37.5691 13.879C37.5064 13.8105 37.4596 13.7363 37.4763 13.6077C37.515 13.7209 37.5422 13.7999 37.5691 13.879Z" fill="#F8F2EA"/>
<path d="M37.8284 14.94C37.8385 14.9275 37.8483 14.9149 37.8585 14.9023C37.8992 14.9778 37.911 15.0593 37.8984 15.1469C37.8752 15.0779 37.8516 15.009 37.8284 14.94Z" fill="#F8F2EA"/>
<path d="M38.2721 24.7022C38.2827 24.7066 38.2929 24.7058 38.3031 24.701C38.2799 24.7748 38.2567 24.849 38.2196 24.967C38.2066 24.8393 38.2278 24.7683 38.2721 24.7026V24.7022Z" fill="#F8F2EA"/>
<path d="M16.2947 1.64478C16.3793 1.6022 16.4681 1.58354 16.5963 1.59855C16.4778 1.62247 16.3968 1.66344 16.3053 1.65736C16.3016 1.6533 16.2983 1.64884 16.2947 1.64478Z" fill="#F8F2EA"/>
<path d="M8.46697 33.6082C8.39961 33.5538 8.33225 33.4997 8.26489 33.4453C8.2727 33.4375 8.28009 33.4293 8.28789 33.4216C8.3647 33.4666 8.43247 33.5223 8.48956 33.5902C8.47971 33.5931 8.47231 33.5992 8.46697 33.6082Z" fill="#F8F2EA"/>
<path d="M38.114 25.3143C38.1055 25.3053 38.0969 25.296 38.0884 25.2871C38.1087 25.2165 38.1291 25.1459 38.1494 25.0754C38.1604 25.1597 38.1637 25.2421 38.1136 25.3143H38.114Z" fill="#F8F2EA"/>
</g>
<path d="M26.9693 23.1123C26.9384 23.9775 26.9178 24.8427 26.8935 25.7084C26.8838 26.0598 26.8935 26.4155 26.8535 26.7638C26.8341 26.9687 26.7716 27.1672 26.6701 27.3463C26.5686 27.5254 26.4305 27.681 26.2646 27.8029C26.0053 27.998 25.7103 28.1058 25.4031 28.1852C25.2262 28.233 25.0511 28.29 24.8718 28.3263C24.6924 28.3627 24.5022 28.3869 24.3162 28.4039C23.8115 28.4566 23.3056 28.4978 22.807 28.3639C22.535 28.2912 22.2587 28.2288 22.0043 28.0991C21.8862 28.0443 21.7836 27.961 21.7056 27.8568C21.3208 27.3118 21.1071 26.6644 21.0918 25.9974C21.0731 25.4697 21.0343 24.9426 21.0058 24.4149C20.9804 23.9345 20.9355 23.4565 20.7962 22.9936C20.7179 22.7036 20.5808 22.4328 20.3933 22.1981C20.3201 22.1061 20.2306 22.0284 20.1291 21.9691C19.905 21.8449 19.7002 21.9085 19.5118 22.0297C19.2494 22.1933 19.0719 22.4362 18.9059 22.6961C18.6779 23.0685 18.5096 23.4743 18.4073 23.8987C18.2328 24.5591 18.2316 25.2316 18.2789 25.9059C18.3216 26.5065 18.2821 27.1101 18.1613 27.6999C18.128 27.8616 18.045 28.0028 17.9844 28.1512C17.9717 28.1815 17.9329 28.1864 17.905 28.2015C17.6627 28.3385 17.3937 28.3754 17.1289 28.4124C16.6412 28.4808 16.1475 28.4784 15.6561 28.5014C15.1181 28.5263 14.5856 28.4723 14.0536 28.4208C13.7931 28.396 13.5168 28.356 13.3036 28.1906C13.0745 28.0131 12.8286 27.8356 12.7625 27.5175C12.671 27.0765 12.5402 26.6445 12.4917 26.1937C12.4372 25.6848 12.3936 25.1747 12.3578 24.6639C12.3072 23.954 12.2945 23.242 12.3197 22.5307C12.3439 21.8736 12.3843 21.2166 12.4408 20.5599C12.4608 20.3369 12.4717 20.1158 12.5656 19.9061C12.5909 19.8565 12.621 19.8095 12.6553 19.7656C12.8455 19.4917 13.0031 19.1937 13.2066 18.9331C13.5283 18.5206 13.8464 18.1037 14.2002 17.716C14.5946 17.284 14.9775 16.8411 15.3653 16.4031C15.6682 16.0596 16.0057 15.7439 16.3207 15.4101C16.72 14.986 17.0944 14.5425 17.5246 14.1493C17.9547 13.7561 18.337 13.3162 18.8302 12.9982C18.9732 12.9047 19.126 12.8271 19.2858 12.7667C19.5615 12.6656 19.8117 12.7607 20.0552 12.8879C20.7877 13.272 21.3427 13.8664 21.9219 14.4371C22.7828 15.2853 23.5892 16.1826 24.3944 17.0804C25.0608 17.8094 25.6824 18.5783 26.2556 19.3827C26.3767 19.5523 26.5143 19.7074 26.6239 19.8819C26.7711 20.1152 26.816 20.3817 26.8505 20.6532C26.9509 21.4688 26.9906 22.2908 26.9693 23.1123ZM26.7063 24.421H26.7136C26.7136 24.2829 26.7136 24.1447 26.7136 24.0066C26.726 22.8677 26.6565 21.7294 26.5058 20.6005C26.4965 20.4544 26.4691 20.3101 26.424 20.1709C26.3028 19.868 26.1089 19.6135 25.9205 19.3548C25.6176 18.938 25.2868 18.5412 24.9572 18.1431C24.5089 17.6021 24.1023 17.0253 23.6437 16.4934C23.0815 15.8415 22.4877 15.2156 21.8722 14.6152C21.4166 14.1693 20.9531 13.7319 20.4545 13.3314C19.9141 12.8976 19.3034 12.8879 18.7684 13.2187C18.3182 13.4962 17.939 13.8591 17.5785 14.2408C17.1132 14.734 16.6921 15.2671 16.2456 15.7803C15.3083 16.8654 14.3329 17.9183 13.435 19.038C13.1006 19.4554 12.8152 19.9025 12.7116 20.4405C12.5638 21.2099 12.5299 21.9897 12.5147 22.77C12.4893 23.9551 12.6135 25.1329 12.7219 26.3094C12.743 26.6381 12.7966 26.9638 12.8819 27.2818C13.0279 27.7714 13.3345 28.0761 13.8513 28.1561C14.1003 28.1949 14.3505 28.2221 14.6007 28.247C15.0502 28.2912 15.5022 28.2651 15.9524 28.2639C16.4843 28.2639 17.0144 28.2349 17.5312 28.0755C17.9341 27.9507 18.1013 27.7483 18.1074 27.3285C18.1141 26.8814 18.0759 26.4361 18.0662 25.9896C18.0517 25.3183 18.0832 24.6482 18.1238 23.9793C18.1643 23.2953 18.3619 22.6628 18.7975 22.1199C19.0519 21.8031 19.3954 21.6492 19.7917 21.6225C20.1715 21.5965 20.5872 21.9352 20.7713 22.3671C20.9455 22.7831 21.0515 23.2243 21.0852 23.674C21.1462 24.3901 21.2148 25.1058 21.2912 25.8211C21.336 26.2361 21.3578 26.6554 21.4826 27.0595C21.6716 27.6756 22.2036 28.1167 22.8064 28.1537C23.4151 28.1963 24.0265 28.1771 24.6313 28.0961C25.0457 28.0355 25.457 27.961 25.843 27.7883C26.2568 27.6023 26.5361 27.3091 26.6154 26.8414C26.6662 26.5454 26.6959 26.2461 26.7045 25.9459C26.7154 25.4376 26.7063 24.9293 26.7063 24.421Z" fill="#F8F2EA"/>
<path d="M28.5372 18.031C28.5711 18.3618 28.3372 18.7175 27.998 18.8447C27.7542 18.9293 27.4911 18.9413 27.2406 18.8792C26.8099 18.789 26.4767 18.5272 26.1967 18.2079C25.663 17.6021 25.1195 17.0011 24.5543 16.4231C23.9351 15.7906 23.3129 15.1605 22.6646 14.5564C22.2817 14.199 21.9 13.8391 21.4995 13.501C21.0682 13.1375 20.6307 12.7777 20.0934 12.5698C19.7341 12.4311 19.3748 12.3699 19.0058 12.5414C18.8832 12.5952 18.7686 12.6658 18.6653 12.751C18.1031 13.2357 17.5924 13.77 17.0598 14.2826C16.5673 14.7564 16.0705 15.2265 15.6058 15.7282C15.0369 16.3431 14.4256 16.9156 13.8385 17.5124C13.4913 17.865 13.1642 18.2394 12.8085 18.583C12.5713 18.8251 12.3207 19.0536 12.0579 19.2676C11.8949 19.3917 11.7149 19.4916 11.5235 19.5645C11.4347 19.5994 11.3388 19.6125 11.2438 19.6025C11.1489 19.5924 11.0578 19.5597 10.9782 19.5069C10.8347 19.4148 10.688 19.336 10.5784 19.1955C10.3827 18.9453 10.3469 18.6648 10.3778 18.363C10.3989 18.1989 10.4587 18.0421 10.5523 17.9056C11.0638 17.1047 11.6429 16.3491 12.2833 15.647C12.7316 15.1532 13.1969 14.6776 13.638 14.1741C14.0621 13.6895 14.5128 13.2339 14.9745 12.7873C15.2568 12.5236 15.52 12.2402 15.7621 11.9391C15.8731 11.8117 15.9934 11.6927 16.122 11.5829C16.274 11.4387 16.4158 11.2848 16.5685 11.1431C16.6642 11.0546 16.7739 10.9764 16.8678 10.8819C17.1997 10.5391 17.5578 10.2227 17.9389 9.93558C18.1782 9.75806 18.4236 9.58236 18.7078 9.49876C19.0251 9.39549 19.3631 9.37218 19.6917 9.4309C20.1854 9.52965 20.5902 9.79441 20.9864 10.0852C21.3656 10.3615 21.7001 10.6911 22.0715 10.9764C22.8294 11.5568 23.4649 12.2639 24.1411 12.9315C24.5506 13.3375 24.9287 13.7725 25.3461 14.1729C25.7902 14.6019 26.2064 15.0581 26.636 15.501C26.9928 15.8645 27.3364 16.2462 27.6738 16.6303C27.8586 16.8399 28.0767 17.0199 28.2542 17.2361C28.4457 17.4557 28.5469 17.7398 28.5372 18.031ZM19.4196 9.54904C19.1464 9.52541 18.8998 9.61447 18.6617 9.75261C18.2477 10.0024 17.8593 10.2924 17.5021 10.6184C17.0598 11.0079 16.6648 11.4466 16.2443 11.8592C15.3477 12.7383 14.4571 13.6234 13.6161 14.5564C12.8322 15.4265 12.0409 16.2874 11.3139 17.2077C11.0909 17.4912 10.8528 17.7638 10.6935 18.094C10.5469 18.397 10.4711 18.6999 10.6196 19.0271C10.751 19.3179 11.0267 19.5117 11.3048 19.479C11.5001 19.4615 11.6857 19.3862 11.838 19.2627C12.2754 18.8889 12.6468 18.4521 13.02 18.0177C13.5683 17.3791 14.1105 16.7327 14.7164 16.1474C15.0799 15.7948 15.4682 15.4616 15.8172 15.0932C16.5127 14.3583 17.2058 13.621 17.931 12.9122C18.1734 12.6753 18.3982 12.4153 18.7005 12.2457C19.1319 12.0034 19.5796 11.921 20.0334 12.1591C20.5557 12.4238 21.0349 12.7662 21.4547 13.1745C22.2387 13.9548 23.0184 14.74 23.8175 15.5058C24.6361 16.2934 25.4025 17.1265 26.1961 17.9353C26.3985 18.1413 26.6087 18.3382 26.822 18.5327C27.1455 18.8283 27.5163 18.8841 27.9222 18.7696C28.1755 18.6975 28.3221 18.5236 28.37 18.2606C28.4269 17.9468 28.3221 17.6815 28.1276 17.4482C27.7199 16.9587 27.3115 16.4679 26.8874 15.9941C26.5766 15.6452 26.2349 15.3247 25.9181 14.9805C25.4013 14.4207 24.9202 13.824 24.3337 13.3302C23.388 12.528 22.5671 11.5902 21.5953 10.8147C21.1833 10.4857 20.8143 10.1034 20.3563 9.83198C20.0679 9.6581 19.7662 9.53874 19.4196 9.54844V9.54904Z" fill="#F8F2EA"/>
<path d="M27.955 12.1748C27.9441 12.3729 27.9022 12.5989 27.7302 12.7637C27.677 12.8166 27.6139 12.8583 27.5444 12.8865C27.475 12.9147 27.4006 12.9288 27.3257 12.9279C27.2507 12.9271 27.1767 12.9113 27.1079 12.8816C27.0391 12.8518 26.9769 12.8087 26.925 12.7546C26.7797 12.6187 26.6806 12.4408 26.6415 12.2457C26.5954 11.9573 26.7699 11.7743 26.9868 11.6283C27.1904 11.4914 27.4109 11.4532 27.6387 11.5677C27.8665 11.6823 27.958 11.8913 27.955 12.1748ZM27.028 12.6171L27.0038 12.5929L26.9813 12.5662C26.9817 12.5625 26.9807 12.5587 26.9784 12.5557C26.9762 12.5527 26.9729 12.5506 26.9692 12.5498C26.8684 12.4154 26.8117 12.2531 26.8069 12.0851C26.7463 12.2772 26.8384 12.4256 26.9492 12.5698L26.9626 12.5953L26.9868 12.6183C26.9902 12.6248 26.9955 12.63 27.0019 12.6334L27.0359 12.6577C27.054 12.674 27.071 12.7104 27.0965 12.6819C27.1068 12.671 27.0753 12.6468 27.0522 12.6401L27.028 12.6171ZM27.1437 12.7243L27.1352 12.7049L27.1237 12.7152L27.1455 12.7219C27.1481 12.7291 27.1535 12.7351 27.1603 12.7384C27.1672 12.7418 27.1752 12.7424 27.1825 12.7401C27.1825 12.7401 27.1867 12.7346 27.1885 12.7316L27.1437 12.7243ZM27.7053 12.1251C27.7017 11.9155 27.5981 11.7998 27.4115 11.7992C27.3213 11.7995 27.2349 11.8356 27.1713 11.8996C27.1077 11.9635 27.0721 12.0501 27.0722 12.1403C27.0777 12.3045 27.2879 12.5268 27.4303 12.5195C27.5727 12.5123 27.709 12.3196 27.7059 12.1221L27.7053 12.1251ZM27.2752 12.7601C27.3703 12.7601 27.4715 12.7988 27.5666 12.7031C27.4727 12.7347 27.3748 12.7529 27.2758 12.757L27.2752 12.7601Z" fill="#181818"/>
<path d="M9.70718 23.4244C9.6781 23.8436 9.42485 24.0484 9.01651 24.0672C8.7469 24.0799 8.41065 23.7182 8.42216 23.4571C8.44094 23.033 8.70813 22.7373 9.07831 22.73C9.38123 22.7282 9.71445 23.0954 9.70718 23.4244ZM9.37154 23.3771C9.37347 23.3374 9.36718 23.2977 9.35306 23.2605C9.33895 23.2233 9.31731 23.1894 9.2895 23.161C9.26169 23.1326 9.22831 23.1102 9.19145 23.0952C9.15458 23.0803 9.11504 23.0731 9.07528 23.0742C8.96864 23.0802 8.83717 23.2493 8.8396 23.3771C8.83952 23.4157 8.84707 23.4538 8.86182 23.4895C8.87658 23.5251 8.89824 23.5574 8.92556 23.5846C8.95287 23.6118 8.98531 23.6334 9.02099 23.648C9.05667 23.6626 9.09489 23.67 9.13344 23.6697C9.274 23.6709 9.37275 23.5492 9.37154 23.3771ZM9.47817 23.4177C9.53391 23.2178 9.49453 23.1202 9.34912 23.1008C9.44606 23.1844 9.45757 23.2971 9.47817 23.4177Z" fill="#181818"/>
<path d="M30.0597 25.8769C30.0349 26.301 29.8137 26.6075 29.3933 26.6257C29.0516 26.6409 28.8008 26.3749 28.7571 25.9029C28.7281 25.5854 29.0631 25.271 29.4345 25.2522C29.5998 25.2535 29.758 25.3197 29.875 25.4365C29.9919 25.5534 30.0583 25.7115 30.0597 25.8769ZM29.4896 25.6145C29.286 25.6042 29.154 25.7193 29.1406 25.9175C29.1273 26.1156 29.2448 26.2495 29.4484 26.2604C29.6205 26.2695 29.7762 26.1119 29.7865 25.9187C29.7974 25.7096 29.7168 25.6291 29.4896 25.6145ZM28.9934 26.0647C28.9977 25.9653 28.9886 25.8793 29.0261 25.7993C29.0567 25.7244 29.1044 25.6578 29.1655 25.6048C29.2261 25.5533 29.3169 25.5546 29.4006 25.4897C29.0352 25.5388 28.8668 25.7824 28.9934 26.0647Z" fill="#181818"/>
<path d="M24.3853 10.1246C24.3875 10.1845 24.3773 10.2442 24.3553 10.2999C24.3333 10.3556 24.3 10.4062 24.2575 10.4483C24.2149 10.4905 24.1641 10.5234 24.1082 10.545C24.0523 10.5665 23.9925 10.5763 23.9327 10.5735C23.6607 10.5638 23.4729 10.3548 23.4571 10.0622C23.4426 9.78169 23.6855 9.61993 23.9297 9.62053C24.2084 9.62053 24.3865 9.81622 24.3853 10.1246ZM24.2035 10.2658C24.3307 10.084 24.3023 9.89862 24.1278 9.77624C24.1078 9.76291 24.0878 9.752 24.0708 9.78048L24.1132 9.7932C24.2544 9.9277 24.2223 10.0901 24.1878 10.2537C24.1678 10.2585 24.1654 10.2712 24.1714 10.2882L24.2035 10.2658ZM23.7413 10.0695C23.7413 10.1555 23.8091 10.244 23.8764 10.2458C23.8997 10.2455 23.9228 10.2405 23.9443 10.2311C23.9657 10.2218 23.9851 10.2083 24.0012 10.1913C24.0173 10.1744 24.0299 10.1544 24.0383 10.1326C24.0466 10.1107 24.0504 10.0874 24.0496 10.064C24.0523 10.0437 24.0503 10.023 24.0438 10.0035C24.0374 9.98398 24.0266 9.96619 24.0124 9.95141C23.9981 9.93663 23.9807 9.92525 23.9615 9.91811C23.9422 9.91096 23.9216 9.90824 23.9012 9.91013C23.88 9.90887 23.8588 9.91214 23.839 9.91973C23.8192 9.92732 23.8013 9.93904 23.7863 9.95413C23.7714 9.96921 23.7599 9.9873 23.7526 10.0072C23.7452 10.0271 23.7422 10.0483 23.7437 10.0695H23.7413Z" fill="#181818"/>
<path d="M27.961 23.7297C27.7526 23.7297 27.606 23.5268 27.6102 23.2499C27.6138 23.0336 27.7386 22.927 28.0052 22.9379C28.2718 22.9488 28.419 23.0815 28.4293 23.3093C28.4402 23.5031 28.1767 23.7315 27.961 23.7297ZM28.1815 23.2771C28.1777 23.238 28.1594 23.2017 28.1301 23.1754C28.1008 23.1492 28.0627 23.1349 28.0234 23.1354C28.0032 23.1335 27.9828 23.1359 27.9636 23.1423C27.9443 23.1486 27.9266 23.1589 27.9115 23.1724C27.8963 23.186 27.8842 23.2024 27.8757 23.2209C27.8672 23.2393 27.8626 23.2593 27.8622 23.2796C27.8641 23.326 27.8824 23.3702 27.914 23.4043C27.9455 23.4384 27.9882 23.4601 28.0343 23.4656C28.1131 23.465 28.1833 23.3771 28.1815 23.2771Z" fill="#181818"/>
<path d="M10.4178 21.3378C10.588 21.3378 10.7571 21.4923 10.7613 21.6516C10.7655 21.8291 10.5856 22.04 10.425 22.0442C10.2324 22.0503 10.0736 21.8625 10.0615 21.6383C10.05 21.5092 10.2403 21.3335 10.4178 21.3378ZM10.3911 21.4959C10.3305 21.522 10.2518 21.545 10.2615 21.6347C10.2693 21.7098 10.2754 21.8061 10.3869 21.811C10.4541 21.811 10.5432 21.708 10.5396 21.6292C10.5359 21.5456 10.4826 21.5032 10.3911 21.4959Z" fill="#181818"/>
<path d="M11.0922 24.7203C11.0764 25.002 10.9104 25.1656 10.7475 25.1523C10.5736 25.1383 10.3579 24.896 10.3761 24.7094C10.3979 24.4937 10.5275 24.4161 10.7856 24.4174C10.8261 24.4156 10.8664 24.4222 10.9042 24.4367C10.9419 24.4513 10.9763 24.4735 11.005 24.5019C11.0338 24.5303 11.0564 24.5644 11.0714 24.602C11.0864 24.6396 11.0935 24.6798 11.0922 24.7203ZM10.7572 24.5991C10.6578 24.5991 10.5651 24.6658 10.5603 24.7427C10.5548 24.833 10.6857 24.9705 10.7784 24.9723C10.839 24.9723 10.9407 24.8402 10.9438 24.7566C10.9474 24.6651 10.8741 24.6033 10.7572 24.5991Z" fill="#181818"/>
<path d="M26.7063 24.421C26.7063 24.9293 26.7154 25.4376 26.7063 25.9459C26.6967 26.246 26.6659 26.545 26.6142 26.8408C26.5348 27.3085 26.2555 27.6017 25.8417 27.7877C25.4564 27.9604 25.045 28.0361 24.63 28.0955C24.0253 28.1764 23.4139 28.1957 22.8052 28.1531C22.2024 28.1161 21.6704 27.675 21.4814 27.0589C21.3566 26.6548 21.3348 26.2355 21.2899 25.8205C21.2132 25.1056 21.1445 24.3899 21.084 23.6734C21.0513 23.2241 20.9466 22.7831 20.7738 22.3671C20.592 21.9352 20.174 21.5965 19.7941 21.6225C19.3979 21.6492 19.0543 21.8043 18.7999 22.1199C18.3643 22.6652 18.1668 23.2953 18.1262 23.9793C18.0856 24.6458 18.0541 25.3183 18.0686 25.9895C18.0783 26.4361 18.1165 26.8814 18.1098 27.3285C18.1037 27.7483 17.9365 27.9507 17.5336 28.0755C17.0168 28.2349 16.4867 28.2621 15.9548 28.2639C15.5046 28.2639 15.0527 28.2912 14.6031 28.247C14.3529 28.2221 14.1027 28.1949 13.8537 28.1561C13.3369 28.0761 13.0303 27.7714 12.8843 27.2818C12.7991 26.964 12.7455 26.6385 12.7244 26.31C12.6159 25.1329 12.4917 23.9557 12.5171 22.7706C12.5341 21.9903 12.5662 21.2106 12.7141 20.4411C12.8177 19.9031 13.103 19.456 13.4374 19.0386C14.3353 17.9189 15.3108 16.866 16.248 15.7809C16.6915 15.2677 17.1126 14.7346 17.5809 14.2414C17.9414 13.8597 18.3206 13.4968 18.7708 13.2193C19.3082 12.8885 19.9165 12.8982 20.4569 13.332C20.9555 13.7325 21.419 14.1699 21.8746 14.6158C22.4901 15.2186 23.0863 15.8445 23.6461 16.494C24.1048 17.0259 24.5113 17.6027 24.9596 18.1437C25.2892 18.5405 25.6182 18.9374 25.9229 19.3554C26.1114 19.6141 26.3052 19.8698 26.4264 20.1715C26.4715 20.3107 26.499 20.455 26.5082 20.6011C26.6589 21.7294 26.7283 22.8671 26.716 24.0054C26.716 24.1435 26.716 24.2816 26.716 24.4198L26.7063 24.421ZM13.684 19.3033L13.6289 19.3694C13.5604 19.4415 13.4835 19.5069 13.4532 19.6075C13.4314 19.6353 13.4096 19.6632 13.3884 19.6917C13.3672 19.7201 13.3502 19.7432 13.3987 19.7753C13.4593 19.8171 13.455 19.7607 13.4683 19.7377C13.5023 19.6771 13.532 19.6165 13.5641 19.556C13.605 19.5077 13.6342 19.4507 13.6495 19.3893C13.6618 19.3806 13.6723 19.3695 13.6803 19.3567C13.6883 19.344 13.6937 19.3297 13.6961 19.3148C13.7131 19.3076 13.7246 19.2894 13.7113 19.2797C13.698 19.27 13.6937 19.293 13.684 19.3033ZM21.9273 26.9462C21.9212 26.9341 21.9188 26.9123 21.8988 26.9268C21.8788 26.9413 21.8988 26.9523 21.9055 26.9644C21.9122 26.9765 21.9225 27.025 21.9449 27.0086C21.9673 26.9922 21.9467 26.9619 21.9273 26.9462ZM20.2782 13.727C20.283 13.7391 20.2939 13.7494 20.3024 13.7379C20.3109 13.7264 20.2969 13.721 20.2854 13.7204C20.2461 13.6628 20.2249 13.578 20.1188 13.6277L20.2782 13.727ZM26.4918 22.4568V23.1348H26.5403C26.5306 22.9076 26.5597 22.6798 26.5173 22.4532C26.51 22.2296 26.5258 22.0048 26.4821 21.8734C26.4621 22.0079 26.4876 22.232 26.4918 22.4568ZM13.2672 22.4568C13.2824 22.0899 13.2743 21.7224 13.243 21.3566C13.2569 21.4481 13.1824 21.5159 13.1896 21.608C13.2187 21.8897 13.2411 22.172 13.266 22.4562C13.2547 22.5183 13.2649 22.5825 13.2951 22.638C13.2996 22.5768 13.2909 22.5155 13.2696 22.458L13.2672 22.4568ZM25.8636 23.3008C25.8666 22.5428 25.8157 21.8219 25.7812 21.0991C25.7424 20.2951 25.4073 19.6262 24.919 19.0216C24.4422 18.4303 23.943 17.8565 23.4522 17.2761C22.6646 16.3425 21.8891 15.3937 20.9888 14.5595C20.7303 14.3068 20.4474 14.0803 20.1443 13.8833C19.7444 13.638 19.1416 13.7458 18.8441 13.9803C18.4192 14.3076 18.0279 14.6764 17.676 15.0811C16.4976 16.4643 15.3132 17.8402 14.1687 19.2536C13.8561 19.6408 13.5962 20.0479 13.5307 20.5568C13.4541 21.0836 13.4136 21.6149 13.4096 22.1472C13.4132 22.5374 13.4647 22.9263 13.449 23.3165C13.4101 24.2916 13.4291 25.2681 13.5059 26.241C13.5392 26.6651 13.6634 27.0607 13.953 27.3921C14.0128 27.4637 14.0939 27.5142 14.1845 27.5363C14.3986 27.5843 14.617 27.6107 14.8364 27.6151C15.5525 27.649 16.2662 27.6441 16.9756 27.5254C17.1532 27.4962 17.3141 27.4034 17.4282 27.2643C17.5918 27.0746 17.5997 26.8402 17.5906 26.6178C17.576 26.2688 17.5573 25.9199 17.5391 25.5715C17.4967 24.7754 17.5355 23.986 17.7251 23.2087C17.8796 22.5755 18.1383 21.9939 18.6284 21.5414C19.2949 20.9246 20.1988 20.9682 20.8047 21.6431C21.1224 22.0056 21.3466 22.4403 21.4578 22.9094C21.6613 23.7 21.705 24.5131 21.768 25.3225C21.8007 25.7399 21.8189 26.1592 21.9261 26.5657C22.0757 27.134 22.3884 27.4139 22.9561 27.4848C23.6143 27.5724 24.2826 27.5486 24.933 27.4145C25.1208 27.3739 25.308 27.323 25.4419 27.1722C25.6315 26.9626 25.6915 26.7045 25.7054 26.43C25.726 26.0126 25.7497 25.5945 25.7709 25.1771C25.7999 24.5428 25.8533 23.9066 25.8636 23.302V23.3008ZM18.9732 21.4832C19.1973 21.468 19.3863 21.3238 19.622 21.3251C19.8577 21.3263 20.0619 21.405 20.2782 21.4523C19.8395 21.1912 19.4033 21.2172 18.9732 21.4826V21.4832ZM17.6318 27.9144C17.4113 27.9871 17.1689 27.918 16.9653 28.0307C17.1828 27.9852 17.4222 28.0301 17.6318 27.9144ZM15.6731 28.0901C15.4568 28.0349 15.2332 28.0525 15.0121 28.0367C15.2296 28.087 15.4507 28.081 15.6737 28.0901H15.6731ZM23.448 27.689L22.9633 27.6072C23.1215 27.6635 23.2759 27.7362 23.448 27.689ZM13.9724 27.6744L13.7755 27.5739C13.8052 27.689 13.8961 27.6696 13.9742 27.6732L13.9724 27.6744ZM21.8813 26.8499L21.7801 26.6075C21.7977 26.7711 21.7977 26.7711 21.8831 26.8487L21.8813 26.8499ZM21.8813 26.8838L21.8728 26.8923C21.8778 26.8957 21.8833 26.8984 21.8891 26.9002C21.8891 26.9002 21.8946 26.8953 21.897 26.8923L21.8813 26.8838Z" fill="#181818"/>
<path d="M19.4196 9.54842C19.7662 9.53873 20.0679 9.65808 20.3563 9.82894C20.8143 10.1004 21.1833 10.4827 21.5953 10.8116C22.5646 11.5871 23.388 12.525 24.3337 13.3271C24.9202 13.824 25.4013 14.4177 25.9174 14.9805C26.2331 15.3247 26.5748 15.647 26.8868 15.9941C27.3109 16.4703 27.7193 16.9635 28.127 17.4482C28.3215 17.6814 28.4263 17.9468 28.3693 18.2606C28.3215 18.5236 28.1749 18.6975 27.9216 18.7696C27.5157 18.8841 27.1449 18.8301 26.8214 18.5327C26.6081 18.3382 26.3973 18.1413 26.1955 17.9353C25.4019 17.1265 24.6355 16.291 23.8169 15.5058C23.019 14.74 22.2417 13.9548 21.4541 13.1745C21.0343 12.7662 20.5551 12.4238 20.0328 12.1591C19.5766 11.921 19.1288 12.004 18.6999 12.2457C18.397 12.4153 18.1734 12.6752 17.9304 12.9121C17.2034 13.618 16.5121 14.3553 15.8166 15.0932C15.4676 15.4616 15.0817 15.7948 14.7158 16.1474C14.1099 16.7327 13.5707 17.3791 13.0194 18.0177C12.6462 18.4521 12.2748 18.8889 11.8373 19.2627C11.6851 19.3862 11.4994 19.4615 11.3042 19.479C11.0261 19.5142 10.7504 19.3179 10.619 19.027C10.4705 18.6987 10.5463 18.3988 10.6929 18.094C10.8522 17.7638 11.0903 17.4882 11.3133 17.2077C12.0403 16.2874 12.8316 15.4264 13.6155 14.5564C14.4565 13.6234 15.3471 12.7389 16.2437 11.8592C16.6642 11.4466 17.0592 11.0079 17.5015 10.6184C17.8588 10.2922 18.2475 10.002 18.6617 9.75199C18.8998 9.61386 19.1464 9.5248 19.4196 9.54842ZM21.3341 12.6722L21.3566 12.6983L21.3965 12.7407C21.4005 12.7475 21.4064 12.753 21.4135 12.7564C21.4462 12.7946 21.4741 12.8376 21.5347 12.8419C21.5347 12.8849 21.5722 12.8994 21.6019 12.9194L21.6274 12.943L21.651 12.9679L21.6758 12.9921C21.8387 13.1709 22.0164 13.3355 22.2072 13.4841C22.2136 13.4991 22.2239 13.5121 22.237 13.5219C22.2501 13.5317 22.2655 13.5378 22.2817 13.5398C22.2647 13.5125 22.2557 13.4792 22.2211 13.4738C22.0595 13.2896 21.8821 13.12 21.691 12.9667L21.6655 12.9424L21.6486 12.9267L21.6189 12.9018C21.5934 12.877 21.5789 12.837 21.5323 12.8413C21.528 12.7837 21.4808 12.7625 21.4414 12.7352L21.4159 12.7116L21.3747 12.6746L21.3475 12.6553L21.322 12.6468L21.3341 12.6722ZM10.9673 19.2246L10.9879 19.2003L10.9716 19.1912V19.2252H10.977L10.9673 19.2246ZM26.8898 17.9819C26.8795 17.9819 26.8632 17.9716 26.8608 17.9747C26.8505 17.9874 26.8644 17.9928 26.8735 17.9983L26.9032 18.031C26.9709 18.0942 27.0532 18.1397 27.1426 18.1636C27.2321 18.1875 27.3261 18.189 27.4163 18.1679C27.508 18.1666 27.5959 18.1317 27.6635 18.0698C27.6884 18.0571 27.7241 18.051 27.6962 18.0092H27.7023H27.6981L27.646 18.0516C27.5756 18.095 27.4987 18.1265 27.4181 18.1449C27.2406 18.1601 27.0867 18.0922 26.9335 18.0116L26.8898 17.9819ZM27.7738 18.2285L27.4902 18.3352C27.6054 18.3406 27.7144 18.3297 27.8011 18.2485C27.8083 18.2358 27.8186 18.2219 27.8011 18.214C27.7908 18.2116 27.7798 18.2231 27.7714 18.2285H27.7738ZM12.402 16.2837C12.3196 16.3462 12.2626 16.4364 12.2415 16.5376L12.4135 16.2952C12.4135 16.2855 12.4214 16.2692 12.419 16.2674C12.402 16.2607 12.4008 16.2728 12.3996 16.2837H12.402ZM11.6822 18.7368C11.6459 18.7538 11.6095 18.7726 11.5726 18.7877C11.3066 18.8968 11.1679 18.8229 11.1049 18.5393C11.1049 18.5351 11.0964 18.5321 11.0885 18.5266C11.054 18.6059 11.0475 18.6946 11.0703 18.778C11.0988 18.8877 11.1467 18.9501 11.2836 18.9337C11.4441 18.9138 11.569 18.835 11.6962 18.752C11.7029 18.7469 11.7092 18.7412 11.715 18.735C11.701 18.7156 11.6907 18.7296 11.6798 18.7368H11.6822ZM19.3209 11.3945C19.6071 11.3764 19.8919 11.4477 20.1358 11.5986C20.6493 11.9199 21.1374 12.28 21.5959 12.6759C22.2769 13.252 22.8863 13.9027 23.5122 14.5358C24.0005 15.0308 24.5106 15.5052 24.9663 16.0299C25.4843 16.6266 26.0701 17.1422 26.7723 17.5154C26.8994 17.5882 27.0372 17.6401 27.1807 17.6693C27.3018 17.6899 27.423 17.6954 27.509 17.593C27.5951 17.4906 27.5575 17.3706 27.509 17.2586C27.4878 17.2058 27.4583 17.1567 27.4218 17.1131C26.6839 16.2649 25.9387 15.4167 25.1317 14.6291C24.7597 14.2656 24.3719 13.9166 24.0223 13.5331C23.5837 13.0645 23.115 12.6249 22.6192 12.2172C22.2066 11.8682 21.7746 11.5417 21.365 11.1873C20.9791 10.8442 20.565 10.5342 20.1273 10.2603C19.7292 10.018 19.2985 9.96222 18.855 10.1446C18.5214 10.2872 18.2168 10.4899 17.9565 10.7426C17.0574 11.5908 16.1805 12.4618 15.3259 13.3556C13.9252 14.8277 12.6036 16.373 11.3666 17.985C11.2454 18.1449 11.2339 18.3297 11.2515 18.5181C11.2612 18.6235 11.3278 18.6538 11.4254 18.6193C11.5325 18.5797 11.6327 18.5235 11.7222 18.4527C12.2624 18.0336 12.7642 17.5672 13.2217 17.0592C14.1354 16.0711 15.0841 15.1168 16.0087 14.1384C16.5509 13.5725 17.1283 13.0327 17.6923 12.482C18.0559 12.1306 18.4194 11.7846 18.8622 11.5314C19.0198 11.4435 19.1749 11.3739 19.3209 11.3945ZM11.0885 18.1407L11.3914 17.6318C11.1861 17.7566 11.1491 17.9565 11.0885 18.1407ZM19.0325 11.7792L19.3869 11.7289C19.2676 11.7156 19.1428 11.6338 19.0307 11.781L19.0325 11.7792ZM28.1597 18.2425C28.1896 18.1369 28.181 18.0242 28.1355 17.9244C28.0713 18.0389 28.1615 18.1383 28.1597 18.2425ZM10.9564 19.1658C10.9154 19.0611 10.8536 18.9659 10.7747 18.8859C10.8063 18.9951 10.8695 19.0925 10.9564 19.1658Z" fill="#181818"/>
<path d="M27.7059 12.1221C27.709 12.3196 27.5769 12.5093 27.4309 12.5165C27.2849 12.5238 27.0783 12.3014 27.0728 12.1373C27.0727 12.0471 27.1083 11.9605 27.1719 11.8965C27.2355 11.8326 27.3219 11.7965 27.4121 11.7962C27.5987 11.7968 27.7023 11.9125 27.7059 12.1221Z" fill="#F8F2EA"/>
<path d="M26.9492 12.5704C26.8383 12.4256 26.7444 12.2772 26.8068 12.0858C26.8116 12.2537 26.8684 12.416 26.9692 12.5504L26.9492 12.5704Z" fill="#F8F2EA"/>
<path d="M27.2758 12.7571C27.3751 12.752 27.4732 12.7328 27.5672 12.7001C27.4721 12.7958 27.3709 12.7595 27.2758 12.7571Z" fill="#8C8C8B"/>
<path d="M27.0539 12.6407C27.0776 12.6476 27.11 12.6725 27.0994 12.6837C27.072 12.7131 27.0545 12.6756 27.037 12.6588L27.0539 12.6407Z" fill="#8C8C8B"/>
<path d="M27.1437 12.7244L27.1904 12.732C27.1904 12.7352 27.1866 12.7408 27.1841 12.7408C27.1765 12.7433 27.1682 12.7427 27.161 12.7391C27.1539 12.7356 27.1483 12.7294 27.1456 12.7219L27.1437 12.7244Z" fill="#8C8C8B"/>
<path d="M26.97 12.5499C26.9739 12.5506 26.9773 12.5528 26.9796 12.5559C26.982 12.5591 26.983 12.563 26.9826 12.5669L26.9631 12.5978L26.9492 12.5713L26.97 12.5499Z" fill="#8C8C8B"/>
<path d="M26.982 12.5662L27.0051 12.5937L26.9876 12.6206L26.9626 12.5969C26.9688 12.5868 26.9757 12.5768 26.982 12.5662Z" fill="#8C8C8B"/>
<path d="M27.1445 12.7195L27.1219 12.7126L27.1338 12.7019L27.1427 12.7221L27.1445 12.7195Z" fill="#8C8C8B"/>
<path d="M27.0291 12.6171L27.0556 12.6417L27.0373 12.66L27.002 12.6348L27.0291 12.6171Z" fill="#8C8C8B"/>
<path d="M27.0049 12.5929L27.0306 12.6186L27.0029 12.6367C26.9961 12.633 26.9904 12.6274 26.9868 12.6206C26.9933 12.6115 26.9991 12.6038 27.0049 12.5929Z" fill="#8C8C8B"/>
<path d="M9.37154 23.3771C9.37154 23.5492 9.274 23.6709 9.13344 23.6721C9.09489 23.6724 9.05667 23.665 9.02099 23.6504C8.98531 23.6358 8.95288 23.6143 8.92556 23.587C8.89824 23.5598 8.87658 23.5275 8.86183 23.4919C8.84707 23.4563 8.83952 23.4181 8.8396 23.3795C8.8396 23.2511 8.96865 23.082 9.07528 23.0766C9.11483 23.0756 9.15416 23.0827 9.19085 23.0975C9.22754 23.1123 9.2608 23.1344 9.28858 23.1626C9.31635 23.1908 9.33805 23.2243 9.35232 23.2612C9.36659 23.2981 9.37313 23.3376 9.37154 23.3771Z" fill="#F8F2EA"/>
<path d="M9.47817 23.4177C9.45757 23.2965 9.44606 23.1844 9.34912 23.1008C9.49453 23.1202 9.53391 23.2178 9.47817 23.4177Z" fill="#F8F2EA"/>
<path d="M29.4896 25.6145C29.7168 25.6266 29.7974 25.7097 29.7865 25.9175C29.7762 26.1107 29.6205 26.2683 29.4484 26.2592C29.2448 26.2483 29.1267 26.1168 29.1406 25.9162C29.1546 25.7157 29.286 25.6042 29.4896 25.6145Z" fill="#F8F2EA"/>
<path d="M28.9934 26.0647C28.8668 25.7823 29.0352 25.5388 29.4005 25.4897C29.3169 25.5545 29.2285 25.5533 29.1654 25.6048C29.1044 25.6578 29.0566 25.7244 29.0261 25.7993C28.9885 25.8793 28.9976 25.9653 28.9934 26.0647Z" fill="#F8F2EA"/>
<path d="M23.7436 10.0695C23.7422 10.0482 23.7453 10.0268 23.7529 10.0068C23.7604 9.98677 23.7722 9.96862 23.7873 9.95357C23.8025 9.93851 23.8207 9.9269 23.8408 9.91951C23.8609 9.91212 23.8823 9.90913 23.9036 9.91074C23.9242 9.90855 23.945 9.91106 23.9645 9.91807C23.9839 9.92509 24.0016 9.93643 24.016 9.95124C24.0305 9.96605 24.0414 9.98395 24.048 10.0036C24.0545 10.0232 24.0565 10.0441 24.0538 10.0646C24.0546 10.088 24.0508 10.1113 24.0425 10.1332C24.0341 10.155 24.0215 10.175 24.0054 10.1919C23.9893 10.2089 23.9699 10.2224 23.9485 10.2318C23.927 10.2411 23.9039 10.2461 23.8806 10.2464C23.8115 10.244 23.7436 10.1555 23.7436 10.0695Z" fill="#F8F2EA"/>
<path d="M24.1302 9.77623C24.3047 9.8974 24.3332 10.0792 24.2059 10.2658L24.1902 10.2536C24.2247 10.0901 24.2568 9.92769 24.1157 9.79319L24.1302 9.77623Z" fill="#F8F2EA"/>
<path d="M24.2075 10.2663L24.1739 10.2897C24.1676 10.272 24.1701 10.2587 24.191 10.2536L24.2075 10.2663Z" fill="#F8F2EA"/>
<path d="M24.1157 9.79409L24.072 9.78099C24.0895 9.75168 24.1101 9.76291 24.1306 9.77663L24.1157 9.79409Z" fill="#F8F2EA"/>
<path d="M28.1815 23.2771C28.1815 23.3771 28.1113 23.4649 28.0343 23.4655C27.9882 23.4601 27.9455 23.4384 27.914 23.4043C27.8824 23.3702 27.8641 23.326 27.8622 23.2795C27.8627 23.2593 27.8672 23.2393 27.8757 23.2209C27.8842 23.2024 27.8964 23.1859 27.9115 23.1724C27.9266 23.1589 27.9443 23.1486 27.9636 23.1422C27.9828 23.1359 28.0032 23.1335 28.0234 23.1354C28.0627 23.1349 28.1008 23.1492 28.1301 23.1754C28.1594 23.2017 28.1777 23.238 28.1815 23.2771Z" fill="#F8F2EA"/>
<path d="M10.3912 21.4959C10.4839 21.5032 10.536 21.5456 10.5396 21.6322C10.5433 21.708 10.4542 21.814 10.3869 21.814C10.2755 21.8091 10.2694 21.7128 10.2615 21.6377C10.2518 21.545 10.333 21.522 10.3912 21.4959Z" fill="#F8F2EA"/>
<path d="M10.7571 24.5991C10.8741 24.5991 10.9474 24.6597 10.9437 24.7566C10.9437 24.8402 10.8389 24.9729 10.7783 24.9723C10.6856 24.9723 10.5548 24.833 10.5602 24.7427C10.5651 24.6682 10.6578 24.5991 10.7571 24.5991Z" fill="#F8F2EA"/>
<path d="M25.8635 23.302C25.8532 23.9078 25.7999 24.5428 25.7678 25.1801C25.7466 25.5976 25.7229 26.0156 25.7023 26.433C25.6884 26.7075 25.6284 26.9656 25.4388 27.1752C25.3049 27.3236 25.1177 27.3745 24.9299 27.4176C24.2795 27.5517 23.6112 27.5754 22.953 27.4878C22.3871 27.42 22.0745 27.137 21.923 26.5687C21.8158 26.1622 21.7976 25.743 21.7649 25.3255C21.7043 24.5161 21.6583 23.703 21.4547 22.9124C21.3436 22.4434 21.1193 22.0086 20.8016 21.6462C20.1957 20.9712 19.293 20.9276 18.6253 21.5444C18.1352 21.997 17.8765 22.5786 17.722 23.2117C17.5324 23.9878 17.4936 24.7772 17.536 25.5745C17.5542 25.9229 17.573 26.2719 17.5875 26.6208C17.5966 26.8444 17.5875 27.0777 17.4251 27.2673C17.311 27.4065 17.1501 27.4993 16.9726 27.5284C16.2631 27.6496 15.5494 27.6496 14.8333 27.6181C14.6139 27.6137 14.3955 27.5873 14.1814 27.5393C14.0908 27.5172 14.0097 27.4667 13.9499 27.3951C13.6603 27.0655 13.5361 26.6681 13.5028 26.244C13.426 25.2712 13.407 24.2946 13.4459 23.3195C13.4616 22.9294 13.4101 22.5404 13.4065 22.1502C13.4105 21.618 13.451 21.0866 13.5277 20.5599C13.5931 20.0509 13.853 19.6438 14.1656 19.2567C15.3083 17.8432 16.4945 16.4697 17.6729 15.0841C18.0255 14.6786 18.4176 14.3093 18.8434 13.9815C19.1409 13.747 19.7437 13.6392 20.1436 13.8845C20.4467 14.0815 20.7296 14.308 20.9882 14.5607C21.8885 15.3949 22.6622 16.3437 23.4516 17.2773C23.9423 17.8577 24.4416 18.4285 24.9184 19.0228C25.4067 19.6287 25.7417 20.2951 25.7805 21.1003C25.8156 21.8231 25.8665 22.544 25.8635 23.302Z" fill="#F8F2EA"/>
<path d="M18.9731 21.4826C19.4033 21.2172 19.8395 21.1912 20.2782 21.4517C20.0619 21.4044 19.8541 21.3257 19.622 21.3245C19.39 21.3232 19.1973 21.4674 18.9731 21.4826Z" fill="#F8F2EA"/>
<path d="M13.2659 22.4556C13.2411 22.1733 13.2187 21.8909 13.1896 21.6074C13.1805 21.5153 13.2568 21.4474 13.2429 21.356C13.2743 21.7218 13.2824 22.0893 13.2671 22.4562L13.2659 22.4556Z" fill="#F8F2EA"/>
<path d="M17.6318 27.9144C17.4215 28.0301 17.1822 27.9852 16.9653 28.0307C17.1695 27.918 17.4118 27.9871 17.6318 27.9144Z" fill="#F8F2EA"/>
<path d="M26.4918 22.4568C26.4876 22.232 26.4621 22.0079 26.4821 21.8722C26.5257 22.0036 26.51 22.2284 26.5173 22.452L26.4918 22.4568Z" fill="#F8F2EA"/>
<path d="M15.6736 28.0901C15.4513 28.081 15.2295 28.087 15.0126 28.0367C15.2338 28.0525 15.4573 28.0349 15.6736 28.0901Z" fill="#8C8C8B"/>
<path d="M26.4918 22.4568L26.5173 22.452C26.5597 22.6786 26.5306 22.9064 26.5403 23.1336H26.4918V22.4568Z" fill="#8C8C8B"/>
<path d="M13.5643 19.5547C13.5322 19.6154 13.5036 19.6761 13.4685 19.7367C13.4551 19.7597 13.4612 19.8162 13.3987 19.7743C13.3502 19.7422 13.3654 19.7215 13.3884 19.6906C13.4115 19.6597 13.4315 19.6342 13.4533 19.6063C13.5061 19.6221 13.5194 19.556 13.5643 19.5547Z" fill="#F8F2EA"/>
<path d="M23.448 27.689C23.2741 27.7375 23.1196 27.6647 22.9633 27.6072L23.448 27.689Z" fill="#F8F2EA"/>
<path d="M13.5641 19.5549C13.5192 19.5549 13.5035 19.6223 13.4531 19.6077C13.4835 19.507 13.5605 19.4415 13.629 19.3694L13.6496 19.3882C13.6343 19.4496 13.605 19.5066 13.5641 19.5549Z" fill="#8C8C8B"/>
<path d="M13.9763 27.6742C13.8973 27.6706 13.8055 27.6889 13.7773 27.5726L13.9763 27.6742Z" fill="#F8F2EA"/>
<path d="M20.2797 13.7282L20.1188 13.6278C20.224 13.5776 20.2473 13.6633 20.2871 13.7215L20.2797 13.7282Z" fill="#F8F2EA"/>
<path d="M21.8831 26.8489C21.7976 26.7713 21.7976 26.7713 21.7819 26.6063L21.8831 26.8489Z" fill="#8C8C8B"/>
<path d="M13.2661 22.4556C13.2886 22.514 13.2982 22.5767 13.2942 22.6392C13.2642 22.583 13.2543 22.5182 13.2661 22.4556Z" fill="#8C8C8B"/>
<path d="M21.9279 26.9462C21.9479 26.9643 21.9772 26.9905 21.946 27.0086C21.9148 27.0266 21.9192 26.9799 21.9055 26.963L21.9279 26.9462Z" fill="#8C8C8B"/>
<path d="M13.6289 19.3703L13.6848 19.3033L13.6971 19.3138C13.6946 19.3289 13.6891 19.3433 13.681 19.3563C13.6729 19.3692 13.6623 19.3805 13.6498 19.3893L13.6289 19.3703Z" fill="#8C8C8B"/>
<path d="M13.684 19.305C13.6923 19.2941 13.6942 19.2658 13.7129 19.2787C13.7315 19.2915 13.7129 19.3082 13.6968 19.3159L13.684 19.305Z" fill="#8C8C8B"/>
<path d="M20.2856 13.7204C20.2975 13.7204 20.3138 13.7241 20.3032 13.7385C20.2925 13.7529 20.2831 13.7385 20.2781 13.7272L20.2856 13.7204Z" fill="#F8F2EA"/>
<path d="M21.8814 26.8826L21.8987 26.8919C21.8987 26.8952 21.892 26.9012 21.8901 26.9005C21.8837 26.8985 21.8776 26.8956 21.8721 26.8919L21.8814 26.8826Z" fill="#8C8C8B"/>
<path d="M21.9063 26.9646C21.8993 26.9517 21.8812 26.9375 21.8993 26.9246C21.9173 26.9117 21.9231 26.9324 21.9295 26.9452L21.9063 26.9646Z" fill="#8C8C8B"/>
<path d="M19.3209 11.3945C19.1748 11.3739 19.0179 11.4436 18.864 11.5326C18.4193 11.7859 18.0558 12.1318 17.6923 12.482C17.1264 13.0315 16.5491 13.5695 16.0074 14.1432C15.0841 15.1217 14.1353 16.0759 13.2205 17.0641C12.7629 17.5721 12.2611 18.0384 11.721 18.4576C11.6314 18.5284 11.5312 18.5846 11.4241 18.6242C11.3266 18.6587 11.2599 18.6284 11.2502 18.523C11.2327 18.3346 11.2418 18.1498 11.3654 17.9898C12.604 16.3777 13.9272 14.8324 15.3295 13.3605C16.1849 12.4687 17.0618 11.5976 17.9601 10.7474C18.2204 10.4947 18.525 10.292 18.8586 10.1494C19.3009 9.96769 19.7316 10.0283 20.1309 10.2652C20.5686 10.539 20.9827 10.8491 21.3686 11.1921C21.7782 11.5441 22.2102 11.8707 22.6228 12.2221C23.1186 12.6297 23.5873 13.0693 24.0259 13.538C24.3755 13.9215 24.7633 14.2705 25.1353 14.634C25.9423 15.4216 26.6875 16.265 27.4254 17.118C27.4619 17.1616 27.4914 17.2106 27.5126 17.2634C27.5611 17.3755 27.5993 17.4936 27.5126 17.5978C27.426 17.702 27.303 17.6948 27.1843 17.6742C27.0408 17.645 26.903 17.593 26.7759 17.5203C26.0737 17.1471 25.4879 16.6315 24.9699 16.0347C24.5136 15.5088 24.0035 15.0357 23.5158 14.5407C22.8899 13.9076 22.2805 13.2569 21.5995 12.6807C21.141 12.2849 20.6529 11.9247 20.1394 11.6035C19.895 11.4502 19.6088 11.3771 19.3209 11.3945Z" fill="#F8F2EA"/>
<path d="M11.6944 18.7514C11.5672 18.835 11.4424 18.9137 11.2818 18.9331C11.1449 18.9495 11.0971 18.8871 11.0686 18.7774C11.0458 18.694 11.0522 18.6053 11.0868 18.526C11.0946 18.5315 11.1019 18.5345 11.1031 18.5387C11.1637 18.8223 11.3049 18.8962 11.5708 18.7871C11.6078 18.772 11.6441 18.7532 11.6805 18.7362L11.6944 18.7514Z" fill="#F8F2EA"/>
<path d="M22.2048 13.4841C22.014 13.3355 21.8363 13.1709 21.6735 12.9921L21.6886 12.9679C21.879 13.1209 22.0558 13.2901 22.2169 13.4738L22.2048 13.4841Z" fill="#F8F2EA"/>
<path d="M11.0885 18.1407C11.1491 17.9589 11.1879 17.7566 11.3957 17.6312L11.0885 18.1407Z" fill="#F8F2EA"/>
<path d="M27.4139 18.168C27.3237 18.189 27.2297 18.1875 27.1402 18.1636C27.0507 18.1397 26.9685 18.0942 26.9008 18.031L26.9335 18.0092C27.0843 18.0898 27.2364 18.1577 27.4182 18.1425L27.4139 18.168Z" fill="#8C8C8B"/>
<path d="M19.0307 11.781C19.1428 11.6356 19.2682 11.7156 19.3851 11.7307L19.0307 11.781Z" fill="#F8F2EA"/>
<path d="M28.1597 18.2425C28.1597 18.1383 28.0713 18.0389 28.1355 17.9244C28.181 18.0242 28.1896 18.1369 28.1597 18.2425Z" fill="#F8F2EA"/>
<path d="M10.9564 19.1658C10.8695 19.0925 10.8062 18.9951 10.7747 18.8859C10.8536 18.9659 10.9154 19.0612 10.9564 19.1658Z" fill="#F8F2EA"/>
<path d="M12.4113 16.2989L12.239 16.5415C12.2602 16.4402 12.3173 16.3499 12.3997 16.2874L12.4113 16.2989Z" fill="#F8F2EA"/>
<path d="M27.7987 18.2485C27.712 18.3297 27.603 18.3406 27.4879 18.3352L27.7714 18.2285L27.7987 18.2485Z" fill="#8C8C8B"/>
<path d="M27.4139 18.1681V18.1426C27.4945 18.1241 27.5716 18.0926 27.642 18.0492L27.6596 18.0698C27.5924 18.1314 27.5051 18.1663 27.4139 18.1681Z" fill="#F8F2EA"/>
<path d="M21.4393 12.7383C21.4791 12.7658 21.5268 12.7872 21.5311 12.8454C21.4736 12.8411 21.4442 12.7976 21.4087 12.7591L21.4393 12.7383Z" fill="#8C8C8B"/>
<path d="M22.217 13.4738C22.2538 13.4799 22.263 13.513 22.2783 13.5405C22.2619 13.5385 22.2463 13.5323 22.2331 13.5224C22.2199 13.5125 22.2095 13.4993 22.2029 13.4842L22.217 13.4738Z" fill="#F8F2EA"/>
<path d="M21.6005 12.9205C21.5704 12.9002 21.5347 12.8855 21.5323 12.8419C21.5796 12.8357 21.5937 12.8763 21.6202 12.9033L21.6005 12.9205Z" fill="#F8F2EA"/>
<path d="M27.6436 18.0504L27.6972 18.0068C27.7284 18.0504 27.6891 18.0567 27.6635 18.0691L27.6436 18.0504Z" fill="#F8F2EA"/>
<path d="M26.8879 17.9819L26.9353 18.01L26.9016 18.0325L26.8711 17.9988L26.8879 17.9819Z" fill="#8C8C8B"/>
<path d="M21.3728 12.6771L21.4152 12.7157L21.3977 12.7426L21.3566 12.6989L21.3728 12.6771Z" fill="#8C8C8B"/>
<path d="M21.6172 12.9061L21.6481 12.9319L21.626 12.9477L21.5995 12.9231L21.6172 12.9061Z" fill="#F8F2EA"/>
<path d="M21.6638 12.9436L21.6902 12.9689L21.6745 12.9941L21.6486 12.9689L21.6638 12.9436Z" fill="#F8F2EA"/>
<path d="M12.3995 16.2842C12.3995 16.273 12.3995 16.2606 12.4169 16.2687C12.4169 16.2687 12.4132 16.2873 12.4113 16.2972L12.3995 16.2842Z" fill="#F8F2EA"/>
<path d="M21.4142 12.7146L21.4407 12.7392L21.4142 12.7581C21.4068 12.7546 21.4006 12.7489 21.3965 12.7417C21.4029 12.7329 21.4085 12.7247 21.4142 12.7146Z" fill="#8C8C8B"/>
<path d="M10.9675 19.226V19.1912L10.9842 19.2006C10.9768 19.2086 10.97 19.2173 10.9631 19.2254L10.9675 19.226Z" fill="#F8F2EA"/>
<path d="M21.6474 12.9279L21.6654 12.9446L21.65 12.9702L21.6249 12.9439L21.6474 12.9279Z" fill="#F8F2EA"/>
<path d="M26.8715 17.9989C26.8622 17.9933 26.8479 17.9877 26.8585 17.9747C26.8585 17.9747 26.8777 17.9797 26.8883 17.9821L26.8715 17.9989Z" fill="#8C8C8B"/>
<path d="M11.6798 18.7371C11.691 18.7297 11.7015 18.7154 11.7133 18.7371C11.7074 18.7434 11.701 18.7492 11.6941 18.7545L11.6798 18.7371Z" fill="#F8F2EA"/>
<path d="M27.7714 18.2294C27.7804 18.2236 27.7919 18.2114 27.7977 18.214C27.8189 18.2224 27.808 18.2371 27.7977 18.2506L27.7714 18.2294Z" fill="#8C8C8B"/>
<path d="M27.6965 18.0068L27.7025 18.0103L27.6938 18.0094L27.6965 18.0068Z" fill="#F8F2EA"/>
<path d="M21.3356 12.6744L21.3196 12.6498L21.3475 12.6591L21.3356 12.6744Z" fill="#8C8C8B"/>
<path d="M21.3579 12.7006L21.3342 12.6731L21.3457 12.6583L21.3746 12.6782L21.3579 12.7006Z" fill="#8C8C8B"/>
<defs>
<filter id="filter0_d_8060_7902" x="0" y="0" width="48.3931" height="47.0991" filterUnits="userSpaceOnUse" color-interpolation-filters="sRGB">
<feFlood flood-opacity="0" result="BackgroundImageFix"/>
<feColorMatrix in="SourceAlpha" type="matrix" values="0 0 0 0 0 0 0 0 0 0 0 0 0 0 0 0 0 0 127 0" result="hardAlpha"/>
<feOffset dx="5" dy="4"/>
<feGaussianBlur stdDeviation="2"/>
<feComposite in2="hardAlpha" operator="out"/>
<feColorMatrix type="matrix" values="0 0 0 0 0 0 0 0 0 0 0 0 0 0 0 0 0 0 0.25 0"/>
<feBlend mode="normal" in2="BackgroundImageFix" result="effect1_dropShadow_8060_7902"/>
<feBlend mode="normal" in="SourceGraphic" in2="effect1_dropShadow_8060_7902" result="shape"/>
</filter>
</defs>
</svg>
