<svg width="22" height="29" viewBox="0 0 22 29" fill="none" xmlns="http://www.w3.org/2000/svg">
<mask id="path-1-outside-1_32_8629" maskUnits="userSpaceOnUse" x="0.86084" y="0" width="21" height="29" fill="black">
<rect fill="white" x="0.86084" width="21" height="29"/>
<path d="M11.5236 27.5821C10.1235 27.5722 8.64415 27.0879 7.28858 26.2081C5.99028 25.3651 4.97625 24.2489 4.14749 22.9533C3.67819 22.2326 3.27219 21.4726 2.93405 20.682C2.50019 19.6356 2.19783 18.5395 2.03387 17.4188C1.75732 15.5624 1.81263 13.6718 2.19722 11.8348C2.5928 9.83886 3.36375 7.93593 4.46924 6.22675C5.33447 4.89427 6.42676 3.7234 7.69659 2.7672C8.36125 2.25858 9.06542 1.80363 9.80244 1.40667C10.2841 1.14396 10.8234 1.00425 11.3723 1C11.9783 1 12.4132 1.30642 12.532 1.80841C12.5757 2.02401 12.5845 2.24521 12.5581 2.4636C12.4719 3.47252 12.3403 4.47862 12.3722 5.49389C12.4019 6.44209 12.5249 7.37052 13.0001 8.21635C13.1338 8.47488 13.3002 8.71524 13.4951 8.93155C13.6026 9.05006 13.7524 9.12158 13.9123 9.13066C14.0133 9.1427 14.1155 9.12167 14.2035 9.07074C14.2914 9.01981 14.3605 8.94173 14.4002 8.84824C14.4951 8.62869 14.5476 8.39322 14.5551 8.15421C14.5756 7.89228 14.5933 7.63034 14.6145 7.3684C14.6208 7.29286 14.6343 7.21731 14.6477 7.14177C14.7354 6.6546 15.2841 6.49363 15.6151 6.60659C15.9976 6.73862 16.3095 6.9815 16.6298 7.2159C17.0795 7.5442 17.4331 7.96359 17.7824 8.38791C18.1318 8.81224 18.5292 9.23515 18.7922 9.73996C19.4612 11.0235 20.1259 12.3085 20.5105 13.7142C20.7461 14.6159 20.8953 15.5379 20.956 16.4677C21.021 17.2669 21.0139 18.0703 20.9348 18.8682C20.8118 20.0473 20.4851 21.1607 19.8932 22.1922C18.9796 23.7843 17.8227 25.1576 16.2748 26.175C14.8627 27.0972 13.211 27.5864 11.5236 27.5821ZM5.67631 24.0187C5.68197 24.0322 5.69116 24.0434 5.70531 24.0329C5.70531 24.0329 5.70036 24.0117 5.69682 24.0004L5.66924 23.97L5.64096 23.9418C5.62823 23.934 5.61762 23.9086 5.60065 23.9333C5.60065 23.9368 5.61197 23.9517 5.61833 23.9615L5.64803 23.9891L5.67631 24.0187ZM18.358 23.9149C18.3639 23.9179 18.3701 23.9203 18.3764 23.922C18.3835 23.9086 18.3814 23.9079 18.3708 23.922C18.3708 23.922 18.363 23.9185 18.3595 23.9171L18.3418 23.9545L17.7153 24.5504C17.7283 24.5582 17.7436 24.5616 17.7587 24.5601C17.7739 24.5586 17.7882 24.5522 17.7994 24.5419C18.0118 24.3969 18.1962 24.2149 18.3439 24.0046C18.3545 23.9898 18.3778 23.9651 18.3397 23.9517C18.3496 23.9517 18.3616 23.9792 18.3686 23.9517C18.3729 23.9397 18.3616 23.927 18.358 23.9149ZM18.4896 9.73361C18.4832 9.73361 18.4896 9.70254 18.4698 9.72584L18.4917 9.73149C18.4917 9.74349 18.4832 9.76114 18.5087 9.75126L18.4896 9.73361ZM18.5468 9.82045C18.5398 9.82045 18.5468 9.7908 18.5285 9.80986L18.549 9.81833C18.5486 9.82185 18.5486 9.8254 18.549 9.82892C18.549 9.82892 18.5532 9.82892 18.5546 9.83316L18.5468 9.82045ZM7.31191 3.73587L7.28292 3.76482L7.2511 3.79024C7.23457 3.79863 7.21873 3.80831 7.20372 3.81918C6.57246 4.36123 6.00456 4.97277 5.51085 5.64216C4.07764 7.6285 3.11902 9.91614 2.70848 12.3297C2.42663 13.88 2.45499 15.4707 2.79192 17.01C3.03164 18.0916 3.41985 19.1196 3.88585 20.1207C4.4848 21.405 5.15869 22.6448 6.07797 23.7321C6.09494 23.7526 6.12252 23.7737 6.06665 23.826C4.66229 22.3772 3.76988 20.6164 2.97012 18.7969C3.07265 19.2001 3.16316 19.6075 3.31096 19.9929C3.59456 20.7077 3.95444 21.3899 4.38438 22.0277C5.00595 22.9738 5.70036 23.8592 6.56872 24.5949C6.91875 24.8914 7.2709 25.1915 7.67326 25.4131C8.66324 25.9582 9.71617 26.3148 10.8476 26.4143C11.757 26.4941 12.6628 26.4934 13.5587 26.2823C14.1548 26.1411 14.7007 25.8777 15.2403 25.6017C16.0775 25.1745 16.7797 24.5638 17.4069 23.8832C18.5116 22.6857 19.3299 21.2537 19.8006 19.695C20.146 18.6102 20.313 17.4767 20.2949 16.3385C20.2772 15.617 20.1987 14.9046 19.9646 14.2113C19.7525 13.5843 19.5439 12.9602 19.2497 12.3664C19.2073 12.281 19.1826 12.1871 19.1415 12.1016C18.7498 11.2826 18.3418 10.47 17.8143 9.73149C17.3094 9.02546 16.7656 8.34272 16.033 7.84356C15.7763 7.66917 15.4772 7.76095 15.3796 8.05537C15.3379 8.18246 15.3089 8.31307 15.2721 8.44157C15.1618 8.82565 15.0861 9.2182 14.8761 9.57122C14.813 9.69017 14.7209 9.79133 14.6083 9.86536C14.4957 9.9394 14.3663 9.98393 14.2319 9.99484C13.9172 10.0244 13.6003 9.97106 13.3126 9.84022C12.9082 9.65594 12.6119 9.34105 12.3757 8.97745C11.8376 8.14998 11.6092 7.22578 11.5788 6.25005C11.554 5.44588 11.6459 4.64806 11.7294 3.84954C11.7626 3.53183 11.8234 3.21411 11.8001 2.89358C11.7435 2.1826 11.2478 1.82253 10.5428 1.95102C10.1001 2.03222 9.7296 2.24615 9.37108 2.49326C7.51203 3.77117 6.05958 5.41764 4.93736 7.36134C4.90474 7.43959 4.85827 7.51134 4.80018 7.57315C4.71815 7.50255 4.77472 7.43901 4.80654 7.37899C5.0307 6.95537 5.27466 6.5367 5.53347 6.13002C6.05572 5.31298 6.64087 4.53777 7.28363 3.81142L7.30696 3.78388L7.33383 3.75493L7.36 3.73164C7.37697 3.71328 7.41798 3.69492 7.39323 3.67092C7.36848 3.64691 7.35505 3.68857 7.34373 3.70975L7.31191 3.73587ZM5.76117 24.1049C5.76541 24.0936 5.77461 24.0802 5.75056 24.083L5.76329 24.1028C5.77027 24.1119 5.7796 24.1191 5.7903 24.1234C5.80101 24.1278 5.81268 24.1292 5.82411 24.1275V24.1324V24.1282C5.80855 24.1049 5.79016 24.0915 5.76117 24.1049ZM18.8905 10.3662L18.8827 10.3436L18.8721 10.3556L18.8926 10.3641L18.8976 10.4036L18.9138 10.3966L18.8905 10.3662ZM18.6904 10.0492C18.6946 10.0654 18.6975 10.0824 18.7222 10.0753C18.7215 10.0978 18.7259 10.1202 18.7349 10.1409C18.744 10.1615 18.7575 10.1799 18.7745 10.1946C18.7936 10.2321 18.8014 10.2773 18.8636 10.3048C18.8311 10.2554 18.8375 10.1975 18.7731 10.1961C18.7751 10.1733 18.7712 10.1505 18.7618 10.1297C18.7524 10.1089 18.7378 10.0909 18.7194 10.0774C18.7151 10.0626 18.7102 10.0464 18.6883 10.0513C18.6918 10.0259 18.6883 10.004 18.6621 9.99272C18.6621 9.98919 18.6579 9.98495 18.655 9.98142C18.6527 9.98103 18.6503 9.98103 18.648 9.98142L18.6642 9.99343C18.6628 10.0146 18.6628 10.0379 18.6904 10.0492ZM12.6359 8.86801C12.6288 8.85959 12.6213 8.85158 12.6133 8.84401C12.5935 8.85954 12.6062 8.87295 12.6182 8.88566C12.6303 8.89837 12.6324 8.92732 12.6578 8.93226C12.6614 8.94356 12.6642 8.96262 12.6791 8.95062C12.6939 8.93862 12.6791 8.92873 12.6663 8.92308C12.6676 8.91189 12.6654 8.90058 12.6599 8.89071C12.6545 8.88085 12.6461 8.87291 12.6359 8.86801ZM12.4535 8.59195L12.4747 8.61808C12.4931 8.60254 12.4832 8.58772 12.4747 8.57289C12.4662 8.55806 12.4648 8.51853 12.4358 8.53759C12.4068 8.55665 12.433 8.57783 12.4535 8.59195ZM14.671 8.82C14.6505 8.83977 14.6322 8.86025 14.6611 8.8906C14.6647 8.86519 14.6675 8.84189 14.6703 8.82C14.67 8.81648 14.67 8.81293 14.6703 8.80941C14.6703 8.80941 14.6753 8.80941 14.6774 8.80518L14.671 8.82ZM4.68633 22.834C4.67501 22.846 4.66441 22.846 4.65592 22.834C4.65592 22.834 4.65592 22.8263 4.65592 22.8227L4.68562 22.839C4.6439 22.9096 4.72451 22.9293 4.74573 22.9738C4.86751 23.1538 5.00551 23.3223 5.15799 23.4772C5.20765 23.5588 5.28017 23.6241 5.36659 23.665L5.17991 23.4574L4.76058 22.9569C4.73724 22.9117 4.71179 22.8707 4.68633 22.834ZM14.572 9.09677C14.5934 9.07131 14.6093 9.04177 14.6188 9.00996C14.6282 8.97815 14.6311 8.94474 14.6272 8.91179L14.5473 9.06641C14.5303 9.08406 14.4921 9.10171 14.5247 9.12783C14.5572 9.15395 14.5586 9.11018 14.572 9.09394V9.09677ZM13.7235 9.33893L13.7164 9.32835L13.7263 9.33682C13.787 9.39951 13.8687 9.43758 13.9558 9.44371C14.0429 9.44983 14.1291 9.42358 14.198 9.37C14.0382 9.37158 13.8786 9.36025 13.7207 9.33611L13.7235 9.33893ZM12.0066 7.09587C12.0596 7.34581 12.0943 7.6021 12.2307 7.84144C12.218 7.57386 12.0935 7.34722 12.0547 7.10152C12.0283 6.93819 12.0026 6.7751 11.9776 6.61224C11.9733 6.58612 11.9776 6.54729 11.9323 6.56141C11.9069 6.56988 11.9203 6.59742 11.9245 6.62142C11.9514 6.77604 11.9769 6.9349 12.0037 7.09305L12.0066 7.09587ZM13.7242 26.9996C14.1959 26.9142 14.652 26.7836 15.06 26.5209C14.5958 26.6218 14.1467 26.7827 13.7242 26.9996ZM19.7645 20.442C19.9328 19.9181 20.2263 19.4331 20.2595 18.8682C20.1245 19.3992 19.9392 19.9181 19.7645 20.4392V20.442ZM16.3441 25.7859C16.7453 25.5466 17.1177 25.2623 17.4543 24.9387C17.4055 24.9387 17.3886 24.9387 17.3801 24.9436C17.0399 25.2253 16.7161 25.5325 16.3441 25.7831V25.7859ZM12.486 27.282H11.3772C11.7463 27.3957 12.1176 27.3166 12.486 27.282ZM11.5667 1.99621C11.4112 1.72086 11.1587 1.62131 10.8723 1.73427C11.1236 1.75113 11.3645 1.84094 11.5653 1.99268L11.5667 1.99621ZM15.0883 7.75601C15.1336 7.62613 15.1927 7.50141 15.2643 7.38393C15.2001 7.41938 15.1485 7.4739 15.1167 7.53993C15.0849 7.60597 15.0745 7.68026 15.0868 7.75248L15.0883 7.75601ZM20.594 19.7924C20.6487 19.6416 20.6741 19.4818 20.6689 19.3215C20.6154 19.4714 20.5895 19.6298 20.5926 19.7889L20.594 19.7924ZM12.597 8.83271C12.5976 8.80459 12.5909 8.77678 12.5775 8.75203C12.5641 8.72728 12.5445 8.70642 12.5207 8.6915C12.5206 8.71953 12.5275 8.74714 12.5409 8.7718C12.5542 8.79646 12.5735 8.8174 12.597 8.83271ZM18.6126 9.91364L18.5956 9.89246L18.5864 9.89952C18.5917 9.90666 18.5974 9.9135 18.6034 9.92C18.6034 9.92 18.6091 9.91364 18.6126 9.91364ZM12.4089 8.51288L12.4252 8.49805C12.4195 8.4924 12.4146 8.48393 12.4082 8.48181C12.4019 8.4797 12.3835 8.48181 12.3884 8.49876C12.3934 8.5157 12.4019 8.50158 12.4089 8.50935V8.51288ZM12.5108 8.66679L12.5037 8.64279C12.5037 8.64279 12.4945 8.64985 12.4945 8.65267C12.497 8.65929 12.5001 8.66567 12.5037 8.67174L12.5108 8.66679ZM5.40619 23.7053C5.40619 23.7053 5.397 23.7109 5.3977 23.713C5.39963 23.7188 5.402 23.7245 5.40478 23.73C5.40478 23.73 5.41397 23.7243 5.41326 23.7222C5.4123 23.7148 5.4099 23.7076 5.40619 23.701V23.7053Z"/>
</mask>
<path d="M11.5236 27.5821C10.1235 27.5722 8.64415 27.0879 7.28858 26.2081C5.99028 25.3651 4.97625 24.2489 4.14749 22.9533C3.67819 22.2326 3.27219 21.4726 2.93405 20.682C2.50019 19.6356 2.19783 18.5395 2.03387 17.4188C1.75732 15.5624 1.81263 13.6718 2.19722 11.8348C2.5928 9.83886 3.36375 7.93593 4.46924 6.22675C5.33447 4.89427 6.42676 3.7234 7.69659 2.7672C8.36125 2.25858 9.06542 1.80363 9.80244 1.40667C10.2841 1.14396 10.8234 1.00425 11.3723 1C11.9783 1 12.4132 1.30642 12.532 1.80841C12.5757 2.02401 12.5845 2.24521 12.5581 2.4636C12.4719 3.47252 12.3403 4.47862 12.3722 5.49389C12.4019 6.44209 12.5249 7.37052 13.0001 8.21635C13.1338 8.47488 13.3002 8.71524 13.4951 8.93155C13.6026 9.05006 13.7524 9.12158 13.9123 9.13066C14.0133 9.1427 14.1155 9.12167 14.2035 9.07074C14.2914 9.01981 14.3605 8.94173 14.4002 8.84824C14.4951 8.62869 14.5476 8.39322 14.5551 8.15421C14.5756 7.89228 14.5933 7.63034 14.6145 7.3684C14.6208 7.29286 14.6343 7.21731 14.6477 7.14177C14.7354 6.6546 15.2841 6.49363 15.6151 6.60659C15.9976 6.73862 16.3095 6.9815 16.6298 7.2159C17.0795 7.5442 17.4331 7.96359 17.7824 8.38791C18.1318 8.81224 18.5292 9.23515 18.7922 9.73996C19.4612 11.0235 20.1259 12.3085 20.5105 13.7142C20.7461 14.6159 20.8953 15.5379 20.956 16.4677C21.021 17.2669 21.0139 18.0703 20.9348 18.8682C20.8118 20.0473 20.4851 21.1607 19.8932 22.1922C18.9796 23.7843 17.8227 25.1576 16.2748 26.175C14.8627 27.0972 13.211 27.5864 11.5236 27.5821ZM5.67631 24.0187C5.68197 24.0322 5.69116 24.0434 5.70531 24.0329C5.70531 24.0329 5.70036 24.0117 5.69682 24.0004L5.66924 23.97L5.64096 23.9418C5.62823 23.934 5.61762 23.9086 5.60065 23.9333C5.60065 23.9368 5.61197 23.9517 5.61833 23.9615L5.64803 23.9891L5.67631 24.0187ZM18.358 23.9149C18.3639 23.9179 18.3701 23.9203 18.3764 23.922C18.3835 23.9086 18.3814 23.9079 18.3708 23.922C18.3708 23.922 18.363 23.9185 18.3595 23.9171L18.3418 23.9545L17.7153 24.5504C17.7283 24.5582 17.7436 24.5616 17.7587 24.5601C17.7739 24.5586 17.7882 24.5522 17.7994 24.5419C18.0118 24.3969 18.1962 24.2149 18.3439 24.0046C18.3545 23.9898 18.3778 23.9651 18.3397 23.9517C18.3496 23.9517 18.3616 23.9792 18.3686 23.9517C18.3729 23.9397 18.3616 23.927 18.358 23.9149ZM18.4896 9.73361C18.4832 9.73361 18.4896 9.70254 18.4698 9.72584L18.4917 9.73149C18.4917 9.74349 18.4832 9.76114 18.5087 9.75126L18.4896 9.73361ZM18.5468 9.82045C18.5398 9.82045 18.5468 9.7908 18.5285 9.80986L18.549 9.81833C18.5486 9.82185 18.5486 9.8254 18.549 9.82892C18.549 9.82892 18.5532 9.82892 18.5546 9.83316L18.5468 9.82045ZM7.31191 3.73587L7.28292 3.76482L7.2511 3.79024C7.23457 3.79863 7.21873 3.80831 7.20372 3.81918C6.57246 4.36123 6.00456 4.97277 5.51085 5.64216C4.07764 7.6285 3.11902 9.91614 2.70848 12.3297C2.42663 13.88 2.45499 15.4707 2.79192 17.01C3.03164 18.0916 3.41985 19.1196 3.88585 20.1207C4.4848 21.405 5.15869 22.6448 6.07797 23.7321C6.09494 23.7526 6.12252 23.7737 6.06665 23.826C4.66229 22.3772 3.76988 20.6164 2.97012 18.7969C3.07265 19.2001 3.16316 19.6075 3.31096 19.9929C3.59456 20.7077 3.95444 21.3899 4.38438 22.0277C5.00595 22.9738 5.70036 23.8592 6.56872 24.5949C6.91875 24.8914 7.2709 25.1915 7.67326 25.4131C8.66324 25.9582 9.71617 26.3148 10.8476 26.4143C11.757 26.4941 12.6628 26.4934 13.5587 26.2823C14.1548 26.1411 14.7007 25.8777 15.2403 25.6017C16.0775 25.1745 16.7797 24.5638 17.4069 23.8832C18.5116 22.6857 19.3299 21.2537 19.8006 19.695C20.146 18.6102 20.313 17.4767 20.2949 16.3385C20.2772 15.617 20.1987 14.9046 19.9646 14.2113C19.7525 13.5843 19.5439 12.9602 19.2497 12.3664C19.2073 12.281 19.1826 12.1871 19.1415 12.1016C18.7498 11.2826 18.3418 10.47 17.8143 9.73149C17.3094 9.02546 16.7656 8.34272 16.033 7.84356C15.7763 7.66917 15.4772 7.76095 15.3796 8.05537C15.3379 8.18246 15.3089 8.31307 15.2721 8.44157C15.1618 8.82565 15.0861 9.2182 14.8761 9.57122C14.813 9.69017 14.7209 9.79133 14.6083 9.86536C14.4957 9.9394 14.3663 9.98393 14.2319 9.99484C13.9172 10.0244 13.6003 9.97106 13.3126 9.84022C12.9082 9.65594 12.6119 9.34105 12.3757 8.97745C11.8376 8.14998 11.6092 7.22578 11.5788 6.25005C11.554 5.44588 11.6459 4.64806 11.7294 3.84954C11.7626 3.53183 11.8234 3.21411 11.8001 2.89358C11.7435 2.1826 11.2478 1.82253 10.5428 1.95102C10.1001 2.03222 9.7296 2.24615 9.37108 2.49326C7.51203 3.77117 6.05958 5.41764 4.93736 7.36134C4.90474 7.43959 4.85827 7.51134 4.80018 7.57315C4.71815 7.50255 4.77472 7.43901 4.80654 7.37899C5.0307 6.95537 5.27466 6.5367 5.53347 6.13002C6.05572 5.31298 6.64087 4.53777 7.28363 3.81142L7.30696 3.78388L7.33383 3.75493L7.36 3.73164C7.37697 3.71328 7.41798 3.69492 7.39323 3.67092C7.36848 3.64691 7.35505 3.68857 7.34373 3.70975L7.31191 3.73587ZM5.76117 24.1049C5.76541 24.0936 5.77461 24.0802 5.75056 24.083L5.76329 24.1028C5.77027 24.1119 5.7796 24.1191 5.7903 24.1234C5.80101 24.1278 5.81268 24.1292 5.82411 24.1275V24.1324V24.1282C5.80855 24.1049 5.79016 24.0915 5.76117 24.1049ZM18.8905 10.3662L18.8827 10.3436L18.8721 10.3556L18.8926 10.3641L18.8976 10.4036L18.9138 10.3966L18.8905 10.3662ZM18.6904 10.0492C18.6946 10.0654 18.6975 10.0824 18.7222 10.0753C18.7215 10.0978 18.7259 10.1202 18.7349 10.1409C18.744 10.1615 18.7575 10.1799 18.7745 10.1946C18.7936 10.2321 18.8014 10.2773 18.8636 10.3048C18.8311 10.2554 18.8375 10.1975 18.7731 10.1961C18.7751 10.1733 18.7712 10.1505 18.7618 10.1297C18.7524 10.1089 18.7378 10.0909 18.7194 10.0774C18.7151 10.0626 18.7102 10.0464 18.6883 10.0513C18.6918 10.0259 18.6883 10.004 18.6621 9.99272C18.6621 9.98919 18.6579 9.98495 18.655 9.98142C18.6527 9.98103 18.6503 9.98103 18.648 9.98142L18.6642 9.99343C18.6628 10.0146 18.6628 10.0379 18.6904 10.0492ZM12.6359 8.86801C12.6288 8.85959 12.6213 8.85158 12.6133 8.84401C12.5935 8.85954 12.6062 8.87295 12.6182 8.88566C12.6303 8.89837 12.6324 8.92732 12.6578 8.93226C12.6614 8.94356 12.6642 8.96262 12.6791 8.95062C12.6939 8.93862 12.6791 8.92873 12.6663 8.92308C12.6676 8.91189 12.6654 8.90058 12.6599 8.89071C12.6545 8.88085 12.6461 8.87291 12.6359 8.86801ZM12.4535 8.59195L12.4747 8.61808C12.4931 8.60254 12.4832 8.58772 12.4747 8.57289C12.4662 8.55806 12.4648 8.51853 12.4358 8.53759C12.4068 8.55665 12.433 8.57783 12.4535 8.59195ZM14.671 8.82C14.6505 8.83977 14.6322 8.86025 14.6611 8.8906C14.6647 8.86519 14.6675 8.84189 14.6703 8.82C14.67 8.81648 14.67 8.81293 14.6703 8.80941C14.6703 8.80941 14.6753 8.80941 14.6774 8.80518L14.671 8.82ZM4.68633 22.834C4.67501 22.846 4.66441 22.846 4.65592 22.834C4.65592 22.834 4.65592 22.8263 4.65592 22.8227L4.68562 22.839C4.6439 22.9096 4.72451 22.9293 4.74573 22.9738C4.86751 23.1538 5.00551 23.3223 5.15799 23.4772C5.20765 23.5588 5.28017 23.6241 5.36659 23.665L5.17991 23.4574L4.76058 22.9569C4.73724 22.9117 4.71179 22.8707 4.68633 22.834ZM14.572 9.09677C14.5934 9.07131 14.6093 9.04177 14.6188 9.00996C14.6282 8.97815 14.6311 8.94474 14.6272 8.91179L14.5473 9.06641C14.5303 9.08406 14.4921 9.10171 14.5247 9.12783C14.5572 9.15395 14.5586 9.11018 14.572 9.09394V9.09677ZM13.7235 9.33893L13.7164 9.32835L13.7263 9.33682C13.787 9.39951 13.8687 9.43758 13.9558 9.44371C14.0429 9.44983 14.1291 9.42358 14.198 9.37C14.0382 9.37158 13.8786 9.36025 13.7207 9.33611L13.7235 9.33893ZM12.0066 7.09587C12.0596 7.34581 12.0943 7.6021 12.2307 7.84144C12.218 7.57386 12.0935 7.34722 12.0547 7.10152C12.0283 6.93819 12.0026 6.7751 11.9776 6.61224C11.9733 6.58612 11.9776 6.54729 11.9323 6.56141C11.9069 6.56988 11.9203 6.59742 11.9245 6.62142C11.9514 6.77604 11.9769 6.9349 12.0037 7.09305L12.0066 7.09587ZM13.7242 26.9996C14.1959 26.9142 14.652 26.7836 15.06 26.5209C14.5958 26.6218 14.1467 26.7827 13.7242 26.9996ZM19.7645 20.442C19.9328 19.9181 20.2263 19.4331 20.2595 18.8682C20.1245 19.3992 19.9392 19.9181 19.7645 20.4392V20.442ZM16.3441 25.7859C16.7453 25.5466 17.1177 25.2623 17.4543 24.9387C17.4055 24.9387 17.3886 24.9387 17.3801 24.9436C17.0399 25.2253 16.7161 25.5325 16.3441 25.7831V25.7859ZM12.486 27.282H11.3772C11.7463 27.3957 12.1176 27.3166 12.486 27.282ZM11.5667 1.99621C11.4112 1.72086 11.1587 1.62131 10.8723 1.73427C11.1236 1.75113 11.3645 1.84094 11.5653 1.99268L11.5667 1.99621ZM15.0883 7.75601C15.1336 7.62613 15.1927 7.50141 15.2643 7.38393C15.2001 7.41938 15.1485 7.4739 15.1167 7.53993C15.0849 7.60597 15.0745 7.68026 15.0868 7.75248L15.0883 7.75601ZM20.594 19.7924C20.6487 19.6416 20.6741 19.4818 20.6689 19.3215C20.6154 19.4714 20.5895 19.6298 20.5926 19.7889L20.594 19.7924ZM12.597 8.83271C12.5976 8.80459 12.5909 8.77678 12.5775 8.75203C12.5641 8.72728 12.5445 8.70642 12.5207 8.6915C12.5206 8.71953 12.5275 8.74714 12.5409 8.7718C12.5542 8.79646 12.5735 8.8174 12.597 8.83271ZM18.6126 9.91364L18.5956 9.89246L18.5864 9.89952C18.5917 9.90666 18.5974 9.9135 18.6034 9.92C18.6034 9.92 18.6091 9.91364 18.6126 9.91364ZM12.4089 8.51288L12.4252 8.49805C12.4195 8.4924 12.4146 8.48393 12.4082 8.48181C12.4019 8.4797 12.3835 8.48181 12.3884 8.49876C12.3934 8.5157 12.4019 8.50158 12.4089 8.50935V8.51288ZM12.5108 8.66679L12.5037 8.64279C12.5037 8.64279 12.4945 8.64985 12.4945 8.65267C12.497 8.65929 12.5001 8.66567 12.5037 8.67174L12.5108 8.66679ZM5.40619 23.7053C5.40619 23.7053 5.397 23.7109 5.3977 23.713C5.39963 23.7188 5.402 23.7245 5.40478 23.73C5.40478 23.73 5.41397 23.7243 5.41326 23.7222C5.4123 23.7148 5.4099 23.7076 5.40619 23.701V23.7053Z" fill="#040404"/>
<path d="M11.5236 27.5821C10.1235 27.5722 8.64415 27.0879 7.28858 26.2081C5.99028 25.3651 4.97625 24.2489 4.14749 22.9533C3.67819 22.2326 3.27219 21.4726 2.93405 20.682C2.50019 19.6356 2.19783 18.5395 2.03387 17.4188C1.75732 15.5624 1.81263 13.6718 2.19722 11.8348C2.5928 9.83886 3.36375 7.93593 4.46924 6.22675C5.33447 4.89427 6.42676 3.7234 7.69659 2.7672C8.36125 2.25858 9.06542 1.80363 9.80244 1.40667C10.2841 1.14396 10.8234 1.00425 11.3723 1C11.9783 1 12.4132 1.30642 12.532 1.80841C12.5757 2.02401 12.5845 2.24521 12.5581 2.4636C12.4719 3.47252 12.3403 4.47862 12.3722 5.49389C12.4019 6.44209 12.5249 7.37052 13.0001 8.21635C13.1338 8.47488 13.3002 8.71524 13.4951 8.93155C13.6026 9.05006 13.7524 9.12158 13.9123 9.13066C14.0133 9.1427 14.1155 9.12167 14.2035 9.07074C14.2914 9.01981 14.3605 8.94173 14.4002 8.84824C14.4951 8.62869 14.5476 8.39322 14.5551 8.15421C14.5756 7.89228 14.5933 7.63034 14.6145 7.3684C14.6208 7.29286 14.6343 7.21731 14.6477 7.14177C14.7354 6.6546 15.2841 6.49363 15.6151 6.60659C15.9976 6.73862 16.3095 6.9815 16.6298 7.2159C17.0795 7.5442 17.4331 7.96359 17.7824 8.38791C18.1318 8.81224 18.5292 9.23515 18.7922 9.73996C19.4612 11.0235 20.1259 12.3085 20.5105 13.7142C20.7461 14.6159 20.8953 15.5379 20.956 16.4677C21.021 17.2669 21.0139 18.0703 20.9348 18.8682C20.8118 20.0473 20.4851 21.1607 19.8932 22.1922C18.9796 23.7843 17.8227 25.1576 16.2748 26.175C14.8627 27.0972 13.211 27.5864 11.5236 27.5821ZM5.67631 24.0187C5.68197 24.0322 5.69116 24.0434 5.70531 24.0329C5.70531 24.0329 5.70036 24.0117 5.69682 24.0004L5.66924 23.97L5.64096 23.9418C5.62823 23.934 5.61762 23.9086 5.60065 23.9333C5.60065 23.9368 5.61197 23.9517 5.61833 23.9615L5.64803 23.9891L5.67631 24.0187ZM18.358 23.9149C18.3639 23.9179 18.3701 23.9203 18.3764 23.922C18.3835 23.9086 18.3814 23.9079 18.3708 23.922C18.3708 23.922 18.363 23.9185 18.3595 23.9171L18.3418 23.9545L17.7153 24.5504C17.7283 24.5582 17.7436 24.5616 17.7587 24.5601C17.7739 24.5586 17.7882 24.5522 17.7994 24.5419C18.0118 24.3969 18.1962 24.2149 18.3439 24.0046C18.3545 23.9898 18.3778 23.9651 18.3397 23.9517C18.3496 23.9517 18.3616 23.9792 18.3686 23.9517C18.3729 23.9397 18.3616 23.927 18.358 23.9149ZM18.4896 9.73361C18.4832 9.73361 18.4896 9.70254 18.4698 9.72584L18.4917 9.73149C18.4917 9.74349 18.4832 9.76114 18.5087 9.75126L18.4896 9.73361ZM18.5468 9.82045C18.5398 9.82045 18.5468 9.7908 18.5285 9.80986L18.549 9.81833C18.5486 9.82185 18.5486 9.8254 18.549 9.82892C18.549 9.82892 18.5532 9.82892 18.5546 9.83316L18.5468 9.82045ZM7.31191 3.73587L7.28292 3.76482L7.2511 3.79024C7.23457 3.79863 7.21873 3.80831 7.20372 3.81918C6.57246 4.36123 6.00456 4.97277 5.51085 5.64216C4.07764 7.6285 3.11902 9.91614 2.70848 12.3297C2.42663 13.88 2.45499 15.4707 2.79192 17.01C3.03164 18.0916 3.41985 19.1196 3.88585 20.1207C4.4848 21.405 5.15869 22.6448 6.07797 23.7321C6.09494 23.7526 6.12252 23.7737 6.06665 23.826C4.66229 22.3772 3.76988 20.6164 2.97012 18.7969C3.07265 19.2001 3.16316 19.6075 3.31096 19.9929C3.59456 20.7077 3.95444 21.3899 4.38438 22.0277C5.00595 22.9738 5.70036 23.8592 6.56872 24.5949C6.91875 24.8914 7.2709 25.1915 7.67326 25.4131C8.66324 25.9582 9.71617 26.3148 10.8476 26.4143C11.757 26.4941 12.6628 26.4934 13.5587 26.2823C14.1548 26.1411 14.7007 25.8777 15.2403 25.6017C16.0775 25.1745 16.7797 24.5638 17.4069 23.8832C18.5116 22.6857 19.3299 21.2537 19.8006 19.695C20.146 18.6102 20.313 17.4767 20.2949 16.3385C20.2772 15.617 20.1987 14.9046 19.9646 14.2113C19.7525 13.5843 19.5439 12.9602 19.2497 12.3664C19.2073 12.281 19.1826 12.1871 19.1415 12.1016C18.7498 11.2826 18.3418 10.47 17.8143 9.73149C17.3094 9.02546 16.7656 8.34272 16.033 7.84356C15.7763 7.66917 15.4772 7.76095 15.3796 8.05537C15.3379 8.18246 15.3089 8.31307 15.2721 8.44157C15.1618 8.82565 15.0861 9.2182 14.8761 9.57122C14.813 9.69017 14.7209 9.79133 14.6083 9.86536C14.4957 9.9394 14.3663 9.98393 14.2319 9.99484C13.9172 10.0244 13.6003 9.97106 13.3126 9.84022C12.9082 9.65594 12.6119 9.34105 12.3757 8.97745C11.8376 8.14998 11.6092 7.22578 11.5788 6.25005C11.554 5.44588 11.6459 4.64806 11.7294 3.84954C11.7626 3.53183 11.8234 3.21411 11.8001 2.89358C11.7435 2.1826 11.2478 1.82253 10.5428 1.95102C10.1001 2.03222 9.7296 2.24615 9.37108 2.49326C7.51203 3.77117 6.05958 5.41764 4.93736 7.36134C4.90474 7.43959 4.85827 7.51134 4.80018 7.57315C4.71815 7.50255 4.77472 7.43901 4.80654 7.37899C5.0307 6.95537 5.27466 6.5367 5.53347 6.13002C6.05572 5.31298 6.64087 4.53777 7.28363 3.81142L7.30696 3.78388L7.33383 3.75493L7.36 3.73164C7.37697 3.71328 7.41798 3.69492 7.39323 3.67092C7.36848 3.64691 7.35505 3.68857 7.34373 3.70975L7.31191 3.73587ZM5.76117 24.1049C5.76541 24.0936 5.77461 24.0802 5.75056 24.083L5.76329 24.1028C5.77027 24.1119 5.7796 24.1191 5.7903 24.1234C5.80101 24.1278 5.81268 24.1292 5.82411 24.1275V24.1324V24.1282C5.80855 24.1049 5.79016 24.0915 5.76117 24.1049ZM18.8905 10.3662L18.8827 10.3436L18.8721 10.3556L18.8926 10.3641L18.8976 10.4036L18.9138 10.3966L18.8905 10.3662ZM18.6904 10.0492C18.6946 10.0654 18.6975 10.0824 18.7222 10.0753C18.7215 10.0978 18.7259 10.1202 18.7349 10.1409C18.744 10.1615 18.7575 10.1799 18.7745 10.1946C18.7936 10.2321 18.8014 10.2773 18.8636 10.3048C18.8311 10.2554 18.8375 10.1975 18.7731 10.1961C18.7751 10.1733 18.7712 10.1505 18.7618 10.1297C18.7524 10.1089 18.7378 10.0909 18.7194 10.0774C18.7151 10.0626 18.7102 10.0464 18.6883 10.0513C18.6918 10.0259 18.6883 10.004 18.6621 9.99272C18.6621 9.98919 18.6579 9.98495 18.655 9.98142C18.6527 9.98103 18.6503 9.98103 18.648 9.98142L18.6642 9.99343C18.6628 10.0146 18.6628 10.0379 18.6904 10.0492ZM12.6359 8.86801C12.6288 8.85959 12.6213 8.85158 12.6133 8.84401C12.5935 8.85954 12.6062 8.87295 12.6182 8.88566C12.6303 8.89837 12.6324 8.92732 12.6578 8.93226C12.6614 8.94356 12.6642 8.96262 12.6791 8.95062C12.6939 8.93862 12.6791 8.92873 12.6663 8.92308C12.6676 8.91189 12.6654 8.90058 12.6599 8.89071C12.6545 8.88085 12.6461 8.87291 12.6359 8.86801ZM12.4535 8.59195L12.4747 8.61808C12.4931 8.60254 12.4832 8.58772 12.4747 8.57289C12.4662 8.55806 12.4648 8.51853 12.4358 8.53759C12.4068 8.55665 12.433 8.57783 12.4535 8.59195ZM14.671 8.82C14.6505 8.83977 14.6322 8.86025 14.6611 8.8906C14.6647 8.86519 14.6675 8.84189 14.6703 8.82C14.67 8.81648 14.67 8.81293 14.6703 8.80941C14.6703 8.80941 14.6753 8.80941 14.6774 8.80518L14.671 8.82ZM4.68633 22.834C4.67501 22.846 4.66441 22.846 4.65592 22.834C4.65592 22.834 4.65592 22.8263 4.65592 22.8227L4.68562 22.839C4.6439 22.9096 4.72451 22.9293 4.74573 22.9738C4.86751 23.1538 5.00551 23.3223 5.15799 23.4772C5.20765 23.5588 5.28017 23.6241 5.36659 23.665L5.17991 23.4574L4.76058 22.9569C4.73724 22.9117 4.71179 22.8707 4.68633 22.834ZM14.572 9.09677C14.5934 9.07131 14.6093 9.04177 14.6188 9.00996C14.6282 8.97815 14.6311 8.94474 14.6272 8.91179L14.5473 9.06641C14.5303 9.08406 14.4921 9.10171 14.5247 9.12783C14.5572 9.15395 14.5586 9.11018 14.572 9.09394V9.09677ZM13.7235 9.33893L13.7164 9.32835L13.7263 9.33682C13.787 9.39951 13.8687 9.43758 13.9558 9.44371C14.0429 9.44983 14.1291 9.42358 14.198 9.37C14.0382 9.37158 13.8786 9.36025 13.7207 9.33611L13.7235 9.33893ZM12.0066 7.09587C12.0596 7.34581 12.0943 7.6021 12.2307 7.84144C12.218 7.57386 12.0935 7.34722 12.0547 7.10152C12.0283 6.93819 12.0026 6.7751 11.9776 6.61224C11.9733 6.58612 11.9776 6.54729 11.9323 6.56141C11.9069 6.56988 11.9203 6.59742 11.9245 6.62142C11.9514 6.77604 11.9769 6.9349 12.0037 7.09305L12.0066 7.09587ZM13.7242 26.9996C14.1959 26.9142 14.652 26.7836 15.06 26.5209C14.5958 26.6218 14.1467 26.7827 13.7242 26.9996ZM19.7645 20.442C19.9328 19.9181 20.2263 19.4331 20.2595 18.8682C20.1245 19.3992 19.9392 19.9181 19.7645 20.4392V20.442ZM16.3441 25.7859C16.7453 25.5466 17.1177 25.2623 17.4543 24.9387C17.4055 24.9387 17.3886 24.9387 17.3801 24.9436C17.0399 25.2253 16.7161 25.5325 16.3441 25.7831V25.7859ZM12.486 27.282H11.3772C11.7463 27.3957 12.1176 27.3166 12.486 27.282ZM11.5667 1.99621C11.4112 1.72086 11.1587 1.62131 10.8723 1.73427C11.1236 1.75113 11.3645 1.84094 11.5653 1.99268L11.5667 1.99621ZM15.0883 7.75601C15.1336 7.62613 15.1927 7.50141 15.2643 7.38393C15.2001 7.41938 15.1485 7.4739 15.1167 7.53993C15.0849 7.60597 15.0745 7.68026 15.0868 7.75248L15.0883 7.75601ZM20.594 19.7924C20.6487 19.6416 20.6741 19.4818 20.6689 19.3215C20.6154 19.4714 20.5895 19.6298 20.5926 19.7889L20.594 19.7924ZM12.597 8.83271C12.5976 8.80459 12.5909 8.77678 12.5775 8.75203C12.5641 8.72728 12.5445 8.70642 12.5207 8.6915C12.5206 8.71953 12.5275 8.74714 12.5409 8.7718C12.5542 8.79646 12.5735 8.8174 12.597 8.83271ZM18.6126 9.91364L18.5956 9.89246L18.5864 9.89952C18.5917 9.90666 18.5974 9.9135 18.6034 9.92C18.6034 9.92 18.6091 9.91364 18.6126 9.91364ZM12.4089 8.51288L12.4252 8.49805C12.4195 8.4924 12.4146 8.48393 12.4082 8.48181C12.4019 8.4797 12.3835 8.48181 12.3884 8.49876C12.3934 8.5157 12.4019 8.50158 12.4089 8.50935V8.51288ZM12.5108 8.66679L12.5037 8.64279C12.5037 8.64279 12.4945 8.64985 12.4945 8.65267C12.497 8.65929 12.5001 8.66567 12.5037 8.67174L12.5108 8.66679ZM5.40619 23.7053C5.40619 23.7053 5.397 23.7109 5.3977 23.713C5.39963 23.7188 5.402 23.7245 5.40478 23.73C5.40478 23.73 5.41397 23.7243 5.41326 23.7222C5.4123 23.7148 5.4099 23.7076 5.40619 23.701V23.7053Z" stroke="#F8F2EA" mask="url(#path-1-outside-1_32_8629)"/>
<path d="M7.36357 3.69675C6.72914 4.42851 6.15157 5.20948 5.63609 6.0326C5.38063 6.4423 5.13983 6.86125 4.91857 7.29086C4.88716 7.35132 4.83133 7.41463 4.91229 7.48647C4.96963 7.4242 5.0155 7.35192 5.0477 7.27308C6.15538 5.31492 7.58902 3.65834 9.4184 2.36949C9.77228 2.12054 10.138 1.90502 10.5749 1.82322C11.2729 1.69377 11.7615 2.05652 11.8159 2.77279C11.8418 3.09713 11.7817 3.41294 11.7461 3.73587C11.6638 4.53962 11.573 5.34337 11.5975 6.15423C11.6275 7.13723 11.8529 8.0683 12.3841 8.90192C12.6172 9.26823 12.9097 9.58546 13.3089 9.77111C13.5928 9.90293 13.9057 9.95664 14.2163 9.92688C14.3489 9.91589 14.4767 9.87103 14.5878 9.79644C14.6989 9.72186 14.7898 9.61994 14.8521 9.50011C15.0615 9.14447 15.1313 8.74828 15.243 8.36206C15.2793 8.2326 15.3079 8.10101 15.3491 7.97298C15.4454 7.67353 15.7406 7.58107 15.994 7.7596C16.7171 8.26248 17.2504 8.94887 17.7522 9.66157C18.2729 10.4056 18.6756 11.2264 19.0623 12.0494C19.1028 12.1354 19.1272 12.23 19.1691 12.3161C19.4594 12.9143 19.6667 13.543 19.8747 14.1747C20.1058 14.8731 20.1832 15.5908 20.2007 16.3178C20.2195 17.4645 20.0557 18.6067 19.7156 19.6999C19.2511 21.2702 18.4433 22.7128 17.353 23.9193C16.7339 24.6049 16.0408 25.2202 15.2144 25.6505C14.6818 25.9286 14.143 26.1947 13.5546 26.3362C12.6703 26.5496 11.7762 26.5496 10.8786 26.4692C9.76181 26.3689 8.72183 26.0097 7.74536 25.4606C7.34822 25.2373 7.00063 24.935 6.65513 24.6362C5.79802 23.8951 5.11261 23.0003 4.49909 22.05C4.07556 21.4066 3.72127 20.7187 3.44236 19.9979C3.29648 19.6096 3.20714 19.1992 3.10594 18.793C3.89534 20.626 4.77619 22.4 6.16236 23.8595C6.2175 23.8069 6.19028 23.7884 6.17353 23.7649C5.26198 22.6695 4.5982 21.4177 4.00981 20.1267C3.54985 19.1181 3.16666 18.0825 2.93005 16.9928C2.59748 15.442 2.56949 13.8395 2.84769 12.2777C3.25291 9.84617 4.19911 7.54151 5.61375 5.54039C6.10107 4.86603 6.66161 4.24994 7.2847 3.70386C7.29951 3.6929 7.31515 3.68315 7.33147 3.6747L7.36357 3.69675ZM9.19994 9.22058C8.79686 9.22239 8.39594 9.28079 8.0085 9.39413C7.23542 9.62738 6.53032 10.0504 5.95506 10.6261C4.83831 11.7101 4.37695 13.0302 4.58424 14.5815C4.72733 15.6527 5.21242 16.5603 5.98368 17.3C7.3538 18.6188 8.94518 19.0576 10.7704 18.5035C10.8667 18.4744 10.8904 18.5035 10.9232 18.5797C11.06 18.8912 11.1996 19.2013 11.342 19.51C11.8851 20.7202 12.5017 21.8946 13.1882 23.0266C13.4149 23.3996 13.6959 23.7353 14.0215 24.0224C14.152 24.1415 14.303 24.2348 14.4668 24.2977C14.9366 24.4677 15.2877 24.3048 15.4503 23.846C15.504 23.6952 15.4677 23.5508 15.4293 23.4071C15.2814 22.8481 14.9889 22.3601 14.6993 21.8693C13.898 20.5101 12.9788 19.2255 12.2257 17.8349C12.1845 17.7581 12.1761 17.719 12.2515 17.6607C12.3999 17.5416 12.5364 17.4079 12.6591 17.2616C13.3152 16.5119 13.6767 15.6314 13.787 14.6377C13.9092 13.5352 13.7591 12.4775 13.1903 11.5237C12.2857 10.0023 10.9163 9.28815 9.19994 9.22058Z" fill="#F8F2EA"/>
<path d="M13.8228 27.0504C14.2432 26.8096 14.69 26.6308 15.1519 26.5188C14.7459 26.8074 14.2921 26.9524 13.8228 27.0504Z" fill="#F8F2EA"/>
<path d="M19.9365 20.405C20.0303 19.8769 20.1298 19.351 20.2023 18.8101C20.1845 19.3825 20.0269 19.8741 19.9365 20.405Z" fill="#F8F2EA"/>
<path d="M16.481 25.7213C16.8372 25.4856 17.1474 25.1967 17.4731 24.9285C17.4813 24.9218 17.4975 24.9285 17.5442 24.9238C17.2219 25.2284 16.8652 25.496 16.481 25.7213Z" fill="#F8F2EA"/>
<path d="M11.6959 2.06318C11.4653 1.93078 11.188 1.8521 10.8984 1.83689C11.2306 1.73929 11.5172 1.8253 11.6959 2.06318Z" fill="#F8F2EA"/>
<path d="M18.3239 23.8606C18.3559 23.8791 18.3367 23.9114 18.328 23.9308C18.2063 24.206 18.0543 24.4441 17.8794 24.6338C17.8701 24.6473 17.8584 24.6556 17.8459 24.6576C17.8334 24.6596 17.8208 24.6551 17.8101 24.6449L18.3268 23.8652L18.3239 23.8606Z" fill="#F8F2EA"/>
<path d="M4.80285 23.0632L5.31631 23.5747L5.28947 23.5949C5.10276 23.4366 4.93379 23.2644 4.78467 23.0805L4.80285 23.0632Z" fill="#F8F2EA"/>
<path d="M12.228 7.11392L12.135 7.10839C12.083 6.95358 12.0338 6.79808 11.9764 6.64396C11.9682 6.62046 11.9422 6.59351 11.9914 6.58521C12.0735 6.57139 12.0707 6.6094 12.0789 6.63498C12.1282 6.79485 12.1778 6.9545 12.228 7.11392Z" fill="#8B8B8B"/>
<path d="M15.16 7.91128C15.1406 7.80753 15.155 7.70044 15.2011 7.60507C15.2473 7.50971 15.323 7.43087 15.4174 7.37964C15.3126 7.54749 15.2264 7.7257 15.16 7.91128Z" fill="#F8F2EA"/>
<path d="M5.34428 23.3291L5.58162 23.5943C5.47175 23.5421 5.37954 23.4586 5.31641 23.3544L5.34428 23.3291Z" fill="#F8F2EA"/>
<path d="M5.70015 23.8606L5.84749 24.0189C5.80728 24.0503 5.77025 24.0861 5.73699 24.1258L5.58228 23.9714L5.70015 23.8606Z" fill="#8B8B8B"/>
<path d="M5.73602 24.1258L5.58228 23.9644C5.61698 23.9258 5.65563 23.8911 5.69759 23.8606L5.84749 24.0259C5.80764 24.056 5.77035 24.0895 5.73602 24.1258Z" fill="#8B8B8B"/>
<path d="M9.16508 9.24048C10.8746 9.30811 12.2386 10.0236 13.1396 11.5408C13.7062 12.4955 13.8557 13.5541 13.734 14.6576C13.6241 15.6543 13.264 16.5336 12.6105 17.284C12.4883 17.4304 12.3523 17.5642 12.2045 17.6834C12.1294 17.7417 12.135 17.7809 12.1788 17.8578C12.9289 19.2496 13.8473 20.5354 14.6426 21.8959C14.9311 22.3872 15.2224 22.8755 15.3698 23.4351C15.4081 23.5775 15.4442 23.7235 15.3907 23.8744C15.2287 24.3336 14.879 24.4966 14.4111 24.3265C14.2479 24.2636 14.0975 24.1701 13.9676 24.051C13.6433 23.7636 13.3634 23.4275 13.1375 23.0542C12.4537 21.9212 11.8396 20.7457 11.2987 19.5344C11.1596 19.2254 11.0206 18.915 10.8815 18.6032C10.8489 18.532 10.8252 18.4978 10.7293 18.527C8.91133 19.0816 7.32625 18.6424 5.96156 17.3224C5.19683 16.582 4.71019 15.6736 4.56767 14.6014C4.3591 13.0486 4.82281 11.7273 5.93306 10.6423C6.50594 10.0673 7.20772 9.64491 7.97697 9.41206C8.36342 9.2992 8.76322 9.24147 9.16508 9.24048ZM12.363 21.2509C12.3665 21.268 12.3672 21.2893 12.3943 21.2765C12.3907 21.2821 12.3883 21.2884 12.3873 21.295C12.3863 21.3016 12.3867 21.3083 12.3885 21.3148C12.3903 21.3212 12.3934 21.3272 12.3977 21.3322C12.4019 21.3373 12.4072 21.3414 12.4131 21.3442C12.4178 21.3881 12.439 21.4284 12.4722 21.4566L12.493 21.483C12.5111 21.4659 12.5 21.4538 12.4868 21.4417C12.4799 21.3987 12.4573 21.36 12.4235 21.3335C12.4235 21.3093 12.42 21.2865 12.3915 21.2794L12.3721 21.2402L12.3477 21.2238C12.3436 21.2395 12.3519 21.2466 12.3651 21.2509H12.363ZM12.1955 20.9305L12.2031 20.9547L12.215 20.9419L12.1941 20.9327L12.1816 20.8828C12.1781 20.8828 12.1712 20.8871 12.1705 20.8907C12.1691 20.9113 12.1739 20.9277 12.1976 20.9305H12.1955ZM6.58933 17.2633C6.58542 17.2557 6.57936 17.2495 6.57195 17.2455C6.53511 17.2071 6.50591 17.1587 6.45099 17.1416L6.41136 17.1095C6.39189 17.0832 6.37451 17.0547 6.35296 17.0298C5.17945 15.6607 4.81447 14.1109 5.3748 12.363C5.38593 12.3303 5.41443 12.2975 5.37898 12.2619C5.34491 12.2741 5.34213 12.3061 5.33101 12.3331C5.01469 13.0686 4.88677 13.8282 5.02164 14.6299C5.17497 15.6039 5.66077 16.4906 6.39259 17.1323L6.43222 17.1622C6.44334 17.2227 6.50174 17.2334 6.53789 17.2712L6.56987 17.2961L6.61853 17.3352C6.63105 17.3466 6.64495 17.3594 6.65746 17.3352C6.65746 17.3352 6.64565 17.3181 6.63939 17.3089L6.58933 17.2633ZM12.8761 22.1422L12.8546 22.1152C12.8358 22.1323 12.8483 22.1451 12.8601 22.1586C12.8719 22.1721 12.8664 22.212 12.8949 22.1928C12.9234 22.1736 12.8983 22.1543 12.8782 22.1422H12.8761ZM12.3067 21.1356C12.3067 21.1249 12.3158 21.1014 12.2887 21.1178L12.3088 21.1327L12.3234 21.1797C12.3234 21.1797 12.3318 21.174 12.3324 21.1704C12.3366 21.1505 12.3331 21.1349 12.3088 21.1356H12.3067ZM12.6495 21.7379L12.6321 21.7115C12.6286 21.7115 12.623 21.7186 12.6237 21.7201C12.6244 21.7215 12.6342 21.7393 12.6397 21.7485C12.6452 21.7923 12.6659 21.8325 12.6981 21.8617L12.7197 21.8881C12.7378 21.8724 12.728 21.8575 12.7197 21.8425C12.7066 21.802 12.683 21.7659 12.6516 21.7379H12.6495ZM12.7635 21.9393L12.7412 21.9116C12.7218 21.928 12.7329 21.9429 12.7412 21.9579C12.7605 22.019 12.7995 22.0717 12.8518 22.1074C12.836 22.0453 12.8065 21.9878 12.7656 21.9393H12.7635ZM13.1563 22.6071C13.1507 22.5787 13.1257 22.5687 13.1125 22.5865C13.0993 22.6043 13.1319 22.6114 13.1424 22.6249C13.3016 22.8919 13.4622 23.1568 13.645 23.4081L13.6818 23.4415C13.6854 23.4373 13.6879 23.4321 13.6891 23.4266C13.6902 23.4211 13.69 23.4154 13.6884 23.41C13.6868 23.4046 13.6839 23.3997 13.68 23.3957C13.676 23.3918 13.6712 23.3889 13.6659 23.3874C13.5217 23.1114 13.3517 22.8503 13.1584 22.6079L13.1563 22.6071ZM11.4009 19.4184C11.4826 19.6265 11.58 19.8279 11.6922 20.0207L11.7276 20.0022L11.4315 19.4041C11.2924 19.1115 11.1534 18.8189 11.0067 18.527C10.9921 18.4978 10.981 18.4352 10.933 18.4644C10.885 18.4936 10.9386 18.5299 10.9532 18.5576C11.1005 18.8438 11.2514 19.1307 11.4009 19.4184ZM5.30737 13.8275C5.30353 13.9962 5.3126 14.165 5.33448 14.3323C5.55417 15.8886 6.31403 17.0618 7.70514 17.7595C8.36537 18.0884 9.10864 18.2005 9.83343 18.0806C10.5582 17.9607 11.2292 17.6146 11.7547 17.0896C12.391 16.4476 12.8083 15.6128 12.9447 14.7088C13.0812 13.8049 12.9297 12.8799 12.5125 12.0711C12.1596 11.3722 11.6121 10.7962 10.9394 10.416C10.2667 10.0358 9.49894 9.86854 8.73336 9.93533C6.95779 10.0998 5.27817 11.6682 5.30737 13.8275ZM11.2166 18.3462C11.2222 18.3593 11.2285 18.3722 11.2354 18.3846C12.2407 19.9979 13.0805 21.7115 14.1059 23.312C14.187 23.4428 14.3151 23.5356 14.4626 23.5704C14.644 23.6167 14.7553 23.5341 14.7671 23.3419C14.7791 23.1726 14.7434 23.0033 14.6642 22.8542C14.5578 22.6563 14.4521 22.4583 14.3353 22.2668C13.4879 20.875 12.5445 19.5465 11.7728 18.1084C11.7506 18.0671 11.7318 18.0422 11.679 18.0749C11.5253 18.1689 11.3696 18.2558 11.2166 18.3462ZM13.2126 14.4163C13.3676 13.7214 13.1889 12.3744 12.4604 11.3642C12.0627 10.8124 11.5719 10.391 10.9469 10.1425C12.4513 10.9869 13.3224 12.6236 13.2105 14.4163H13.2126ZM14.9297 23.5675C14.8282 23.764 14.6517 23.7719 14.4765 23.7733C14.635 23.8224 14.7956 23.878 14.9423 23.7598C14.9986 23.7121 14.9631 23.6373 14.9277 23.5675H14.9297ZM11.875 20.3681L11.907 20.3446C11.8785 20.2976 11.8708 20.2357 11.7937 20.2214L11.875 20.3681ZM12.5626 21.5634C12.5556 21.5688 12.5491 21.5748 12.5431 21.5812C12.5528 21.5955 12.5633 21.6097 12.5744 21.6232C12.5792 21.6183 12.5897 21.6111 12.589 21.6097C12.5792 21.5941 12.5702 21.5798 12.5605 21.5634H12.5626ZM12.2476 20.9996C12.2476 20.9996 12.2414 20.9946 12.24 20.9953C12.2369 20.9975 12.2341 21.0002 12.2316 21.0031L12.2469 21.0081L12.2476 20.9996ZM12.2789 21.0622L12.2706 21.0508C12.2706 21.0544 12.2622 21.0572 12.2615 21.0608C12.2608 21.0644 12.2664 21.0686 12.2699 21.0722L12.2789 21.0622ZM12.5306 21.52C12.5306 21.52 12.5243 21.5143 12.5229 21.515C12.5215 21.5157 12.5167 21.5207 12.5132 21.5236L12.5306 21.5293V21.52ZM12.6147 21.6624C12.6147 21.6624 12.6078 21.6567 12.6064 21.6581C12.605 21.6596 12.6001 21.6638 12.5966 21.6674L12.6147 21.6724V21.6624ZM11.7311 20.0349C11.7311 20.0385 11.7221 20.042 11.7221 20.0449C11.7242 20.0517 11.7272 20.0581 11.7311 20.0641C11.7346 20.0641 11.7401 20.057 11.7401 20.0541C11.738 20.0473 11.7349 20.0409 11.7311 20.0349ZM11.7554 20.1175L11.7735 20.1075C11.77 20.104 11.7666 20.0976 11.7645 20.0983C11.7575 20.1003 11.751 20.1034 11.745 20.1075L11.7554 20.1175ZM11.7777 20.1695L11.7881 20.1794C11.7916 20.1734 11.7944 20.1669 11.7964 20.1602C11.7964 20.1602 11.7909 20.1538 11.7874 20.151L11.7777 20.1695Z" fill="#040404"/>
<path d="M5.3172 13.8361C5.2914 11.737 6.97551 10.2124 8.75581 10.0518C9.52344 9.98687 10.2932 10.1495 10.9677 10.5191C11.6422 10.8887 12.1912 11.4486 12.545 12.128C12.9622 12.9143 13.1133 13.8131 12.9758 14.6912C12.8383 15.5694 12.4196 16.3802 11.7818 17.0037C11.2548 17.514 10.5821 17.8505 9.85533 17.967C9.12861 18.0836 8.38336 17.9746 7.72137 17.6549C6.32724 16.9767 5.56465 15.8361 5.34438 14.3233C5.32262 14.1618 5.31353 13.9989 5.3172 13.8361ZM9.38526 10.8934C9.11916 10.8952 8.85365 10.9183 8.5913 10.9626C7.32683 11.1238 6.29099 12.1986 6.19689 13.454C6.11812 14.5254 6.44853 15.461 7.20763 16.2272C7.96673 16.9933 8.89034 17.3151 9.96522 17.0833C10.7787 16.904 11.3816 16.4147 11.8236 15.7275C12.2795 15.0167 12.5109 14.2464 12.3812 13.4042C12.1414 11.901 10.9334 10.8934 9.38177 10.8934H9.38526Z" fill="#F8F2EA"/>
<path d="M11.1646 18.3018C11.3269 18.2105 11.4901 18.1227 11.6496 18.0277C11.7049 17.9946 11.7224 18.0198 11.7479 18.0615C12.5577 19.515 13.5459 20.8577 14.4314 22.2645C14.5538 22.458 14.6645 22.6581 14.7759 22.8581C14.8588 23.0088 14.8962 23.1799 14.8837 23.351C14.8713 23.5453 14.7548 23.6288 14.5647 23.582C14.4103 23.5468 14.2761 23.453 14.1911 23.3208C13.117 21.7032 12.2372 19.9712 11.1842 18.3407C11.1769 18.3281 11.1704 18.3151 11.1646 18.3018Z" fill="#F8F2EA"/>
<path d="M6.36235 16.9493C5.68828 16.3189 5.24082 15.4478 5.09958 14.4908C4.97535 13.7054 5.09318 12.957 5.38454 12.2345C5.39478 12.21 5.39734 12.1785 5.42872 12.1646C5.46138 12.1995 5.43512 12.2345 5.42488 12.2639C4.90876 13.9838 5.24494 15.5036 6.32585 16.8486C6.3457 16.8731 6.36171 16.9011 6.37964 16.9269L6.36235 16.9493Z" fill="#F8F2EA"/>
<path d="M13.2376 14.5568C13.3531 12.7719 12.4538 11.1423 10.8984 10.3037C11.5444 10.5511 12.0468 10.9707 12.461 11.5201C13.2132 12.5238 13.3976 13.865 13.2376 14.5568Z" fill="#F8F2EA"/>
<path d="M11.3987 19.3417C11.2455 19.1063 11.0909 18.8668 10.9398 18.628C10.9248 18.605 10.8685 18.5762 10.9191 18.5509C10.9697 18.5256 10.9797 18.5785 10.9947 18.6027C11.1415 18.8439 11.2854 19.0857 11.4301 19.3275L11.3987 19.3417Z" fill="#F8F2EA"/>
<path d="M13.7908 23.329C13.5123 23.0794 13.2677 22.8157 13.0251 22.5492L13.0463 22.5315C13.342 22.7728 13.6019 23.0328 13.8226 23.3077L13.7908 23.329Z" fill="#F8F2EA"/>
<path d="M11.4551 19.3416L11.696 19.8573L11.6672 19.8732C11.5759 19.7077 11.4967 19.5349 11.4302 19.3562L11.4551 19.3416Z" fill="#8B8B8B"/>
<path d="M11.8864 20.4044L11.696 20.1392C11.8767 20.1649 11.8946 20.2769 11.9613 20.3619L11.8864 20.4044Z" fill="#8B8B8B"/>
<path d="M12.8077 21.7341C12.9096 21.81 12.9838 21.9008 13.0245 21.9993C12.8991 21.9431 12.8056 21.8599 12.7593 21.7634C12.7766 21.7545 12.7928 21.7448 12.8077 21.7341Z" fill="#8B8B8B"/>
<path d="M6.56505 17.4803L6.37939 17.3315L6.45365 17.2151L6.64461 17.391L6.56505 17.4803Z" fill="#8B8B8B"/>
<path d="M12.493 21.1695L12.2278 21.0003C12.5845 20.8149 12.4473 21.0809 12.4656 21.2017L12.493 21.1695Z" fill="#8B8B8B"/>
<path d="M12.6212 21.2024C12.7368 21.2801 12.8342 21.3579 12.676 21.4676L12.4934 21.2984L12.6212 21.2024Z" fill="#8B8B8B"/>
<path d="M9.38909 10.8354C10.9764 10.8354 12.2121 11.8619 12.4553 13.3896C12.5915 14.2475 12.3547 15.0321 11.8848 15.7561C11.4299 16.4611 10.8152 16.9609 9.98022 17.14C8.88067 17.3762 7.93586 17.0477 7.15933 16.268C6.3828 15.4883 6.04481 14.5344 6.12539 13.4431C6.22022 12.1629 7.28127 11.0681 8.57477 10.9052C8.84386 10.8603 9.11619 10.837 9.38909 10.8354ZM7.76686 11.9634L8.14479 11.7223L8.12054 11.6885C7.98021 11.748 7.85339 11.8348 7.74761 11.9437L7.6763 11.9951C7.52771 12.1087 7.39192 12.2377 7.27128 12.38C6.93044 12.7664 6.78996 13.226 6.74932 13.7287C6.73296 13.7996 6.73296 13.8734 6.74932 13.9444C6.76073 13.8675 6.80565 13.8034 6.78569 13.7329C6.88505 13.0775 7.20631 12.4748 7.69698 12.0233L7.76686 11.9634ZM8.53056 11.5517C8.79897 11.4533 9.08363 11.4055 9.36984 11.4107C9.82992 11.4258 10.2785 11.5566 10.6733 11.7907C11.5832 12.4125 12.0039 13.2754 11.9604 14.3956C12.2036 13.1971 11.6574 12.2658 10.7111 11.7505C10.3064 11.5053 9.84163 11.3741 9.36698 11.3712C9.0828 11.3586 8.7991 11.405 8.53412 11.5073C8.39539 11.5451 8.26301 11.6028 8.14122 11.6786L8.15905 11.716L8.53056 11.5517ZM9.30637 11.7209C9.13283 11.7154 8.95941 11.7349 8.79154 11.7787C8.2342 11.9326 7.7471 12.2709 7.41152 12.737C7.07595 13.2031 6.91218 13.7688 6.94755 14.3399C6.9882 14.9666 7.20996 15.5235 7.69984 15.943C8.07693 16.2643 8.54327 16.4658 9.03797 16.5212C9.53267 16.5765 10.0328 16.4831 10.4729 16.2532C10.838 16.0628 11.186 15.8464 11.417 15.4974C11.7511 14.9917 11.8692 14.3759 11.7458 13.7843C11.534 12.65 10.5642 11.7181 9.30637 11.7237V11.7209Z" fill="#040404"/>
<path d="M9.24305 11.6337C10.4838 11.6281 11.4404 12.5544 11.6493 13.6804C11.7711 14.2683 11.6545 14.8804 11.325 15.383C11.1 15.7299 10.7539 15.9436 10.3938 16.1342C9.95997 16.3633 9.46692 16.4568 8.97896 16.4026C8.49099 16.3483 8.03077 16.1488 7.65835 15.8301C7.17513 15.4132 6.95497 14.8596 6.91629 14.2367C6.8814 13.6692 7.04294 13.1069 7.37395 12.6436C7.70497 12.1803 8.18545 11.8442 8.73521 11.6912C8.9008 11.6476 9.07187 11.6282 9.24305 11.6337Z" fill="#F8F2EA"/>
<path d="M10.6712 11.6328C11.6058 12.2025 12.1454 13.2335 11.9052 14.5568C11.9481 13.3185 11.5326 12.3646 10.6331 11.6772C10.6317 11.6468 10.6472 11.6359 10.6712 11.6328Z" fill="#F8F2EA"/>
<path d="M7.70908 11.9252C7.29719 12.41 7.02772 13.0566 6.94462 13.7594H6.91162C6.94582 13.2229 7.06403 12.7265 7.35086 12.3118C7.45237 12.1591 7.56664 12.0206 7.69168 11.8987L7.70908 11.9252Z" fill="#F8F2EA"/>
<path d="M10.6331 11.6075C10.6091 11.6075 10.5936 11.6155 10.595 11.6328C10.2041 11.4853 9.75967 11.4031 9.30396 11.394V11.3669C9.77363 11.3694 10.2333 11.4526 10.6331 11.6075Z" fill="#8B8B8B"/>
<path d="M9.3043 11.3699V11.4313C9.03235 11.4239 8.76187 11.4922 8.50684 11.6328L8.5109 11.5653C8.76325 11.4183 9.03355 11.3517 9.3043 11.3699Z" fill="#F8F2EA"/>
<path d="M7.70874 11.8795C7.85034 11.7743 8.02009 11.6904 8.20793 11.6328L8.24038 11.6655L7.73451 11.8986C7.72775 11.8911 7.719 11.8846 7.70874 11.8795Z" fill="#8B8B8B"/>
<path d="M7.97396 11.9656L7.76836 12.1639L7.70874 12.0731L7.91434 11.8987C7.93791 11.916 7.9582 11.9388 7.97396 11.9656Z" fill="#F8F2EA"/>
</svg>
