<svg width="9" height="469" viewBox="0 0 9 469" fill="none" xmlns="http://www.w3.org/2000/svg">
<path d="M0.24822 234.382C0.24822 233.498 0.24822 232.613 0.24822 231.729C0.24822 207.204 0.248227 182.692 0.0935537 158.167C-0.0817423 118.654 0.0316845 79.141 0.0935537 39.6278C0.0935537 27.8502 0.268843 16.0605 0.392581 4.28287C0.392581 1.14459 1.61967 -0.224616 3.8882 0.0298383C4.23483 0.0358026 4.57687 0.123865 4.89387 0.288748C5.21087 0.45363 5.49631 0.691947 5.73313 0.989449C5.96994 1.28695 6.15323 1.63752 6.27208 2.0202C6.39093 2.40287 6.44289 2.80978 6.42483 3.21658C6.51763 10.2201 6.65168 17.2358 6.68262 24.2394C6.99196 104.211 6.97134 184.182 7.00227 264.154C7.00227 281.723 7.15351 299.289 7.45598 316.85C7.6519 329.452 7.69313 342.041 7.79625 354.643C7.90968 367.705 8.085 380.779 8.23967 393.841C8.30841 400.368 8.37714 406.903 8.44588 413.446C8.56962 425.357 8.5593 437.268 8.88927 449.179C9.02332 454.134 8.88927 459.078 8.99239 464.034C9.02736 464.697 8.94154 465.362 8.74064 465.984C8.53974 466.605 8.22839 467.169 7.82734 467.638C7.42629 468.107 6.94478 468.47 6.41489 468.703C5.88499 468.936 5.3189 469.034 4.75437 468.99C2.69206 468.99 1.48561 467.16 1.46499 464.058C1.33438 433.475 1.18657 402.888 1.02158 372.297C0.887535 344.852 0.815356 317.395 0.588502 289.902C0.444141 273.084 0.368522 256.262 0.361648 239.435V234.382H0.24822ZM3.87788 107.155C3.81601 106.525 4.18724 105.774 3.56855 105.192C3.00141 105.822 3.352 106.513 3.26951 107.119C3.08199 108.583 3.1064 110.074 3.34169 111.529C3.76986 110.146 3.95233 108.673 3.87788 107.204V107.155ZM4.5378 359.041C4.66154 356.472 3.87786 354 4.05316 352.425C4.16659 353.988 3.63039 356.545 4.05316 359.089V365.705H4.55845L4.5378 359.041ZM4.5378 423.951C4.7028 421.568 4.7028 419.173 4.5378 416.79C4.21542 419.161 4.12891 421.569 4.28001 423.963C3.61452 426.335 3.66921 428.904 4.43471 431.233C4.25942 428.895 4.81623 426.447 4.51719 424L4.5378 423.951ZM3.68196 179.917C3.91913 175.676 4.81623 162.226 3.68196 160.288V179.917ZM4.23879 144.645C3.23223 148.803 3.23223 153.209 4.23879 157.368V144.645ZM3.62009 411.568C4.49124 407.262 4.49124 402.775 3.62009 398.469V411.568ZM7.04353 347.797C7.35287 351.953 6.45577 356.097 7.04353 360.519C7.71378 356.109 7.14664 351.953 7.04353 347.797ZM3.04265 62.2258C2.74686 65.2469 2.77111 68.2994 3.11484 71.3135C2.86736 68.2964 3.95006 65.255 3.04265 62.25V62.2258ZM2.44456 77.3234C3.30042 74.791 2.22805 72.7554 2.31054 70.6592C2.05736 72.8832 2.10257 75.1401 2.44456 77.3477V77.3234ZM7.54878 408.732C7.81435 406.117 7.6852 403.467 7.16726 400.905C6.86823 403.534 7.48691 406.151 7.54878 408.757V408.732ZM4.19754 206.283V196.99C3.79544 200.07 3.79544 203.204 4.19754 206.283ZM3.95007 133.582L4.1666 133.655V124.713H3.95007V133.582ZM3.40356 222.787C4.31097 221.018 3.23858 219.891 3.40356 218.618V222.787ZM3.76444 104.708L4.02223 102.478C3.79537 102.478 3.42416 102.345 3.38292 102.478C3.25219 102.815 3.18031 103.18 3.17145 103.55C3.1626 103.921 3.21696 104.29 3.33137 104.635C3.47157 104.656 3.6129 104.664 3.75415 104.659L3.76444 104.708Z" fill="#070707"/>
</svg>
