<svg width="330" height="4" viewBox="0 0 330 4" fill="none" xmlns="http://www.w3.org/2000/svg">
<path d="M164.49 3.57419C163.869 3.57401 163.249 3.57382 162.628 3.57364C145.421 3.56847 128.223 3.5633 111.016 3.61251C83.2935 3.66581 55.5706 3.6176 27.8478 3.58752C19.5845 3.58504 11.3127 3.52093 3.04938 3.47495C0.847535 3.47429 -0.112988 3.0426 0.0657803 2.24513C0.0700016 2.12327 0.131824 2.00305 0.24754 1.89164C0.363257 1.78023 0.530494 1.67993 0.739249 1.59674C0.948005 1.51354 1.19399 1.44918 1.46249 1.40748C1.73099 1.36577 2.01649 1.34759 2.30191 1.35403C7.21569 1.32288 12.138 1.27723 17.0518 1.26783C73.1606 1.17593 129.269 1.20004 185.378 1.20602C197.705 1.20972 210.029 1.16025 222.351 1.05762C231.192 0.991398 240.025 0.979556 248.866 0.945961C258.031 0.908837 267.204 0.849957 276.368 0.798334C280.948 0.775542 285.533 0.752759 290.124 0.72997C298.48 0.688979 306.837 0.695117 315.194 0.581624C318.671 0.535542 322.14 0.583708 325.617 0.548502C326.082 0.536347 326.549 0.566658 326.985 0.637416C327.421 0.708175 327.816 0.817754 328.145 0.958845C328.474 1.09994 328.729 1.26929 328.893 1.45563C329.056 1.64197 329.124 1.84101 329.093 2.03946C329.093 2.76448 327.809 3.18824 325.633 3.19483C304.176 3.23431 282.715 3.27982 261.252 3.33138C241.997 3.37272 222.733 3.39231 203.443 3.46627C191.643 3.51347 179.84 3.53651 168.035 3.53538L164.49 3.53432L164.49 3.57419ZM75.2261 2.27134C74.7841 2.29296 74.257 2.16229 73.8489 2.37967C74.2909 2.57919 74.7755 2.45608 75.2006 2.48521C76.228 2.55144 77.2743 2.54318 78.2951 2.46076C77.3242 2.30994 76.2914 2.24549 75.2601 2.27135L75.2261 2.27134ZM251.952 2.09242C250.15 2.04838 248.415 2.32337 247.31 2.26141C248.407 2.22186 250.201 2.41091 251.986 2.26282L256.628 2.26421L256.628 2.08657L251.952 2.09242ZM297.494 2.10611C295.822 2.0476 294.142 2.04709 292.469 2.1046C294.133 2.21843 295.822 2.24935 297.502 2.19674C299.166 2.4312 300.969 2.41251 302.603 2.14388C300.962 2.20502 299.245 2.00875 297.528 2.11336L297.494 2.10611ZM126.277 2.35555C123.301 2.27128 113.865 1.95306 112.504 2.35142L126.277 2.35555ZM101.529 2.15236C104.447 2.5071 107.538 2.50803 110.456 2.15504L101.529 2.15236ZM288.805 2.42612C285.784 2.11896 282.637 2.11801 279.615 2.42336L288.805 2.42612ZM244.063 1.20914C246.979 1.10127 249.886 1.41752 252.99 1.21183C249.895 0.975263 246.979 1.17377 244.063 1.20914ZM43.7031 2.5555C45.8227 2.66013 47.9644 2.65224 50.0791 2.53204C47.9622 2.61841 45.8285 2.23713 43.7201 2.55551L43.7031 2.5555ZM54.2957 2.76895C52.519 2.46753 51.0907 2.8441 49.6199 2.81466C51.1803 2.90414 52.7638 2.88872 54.3127 2.76895L54.2957 2.76895ZM286.816 1.04436C284.982 0.950446 283.122 0.995291 281.325 1.17684C283.169 1.28252 285.006 1.06557 286.833 1.04436L286.816 1.04436ZM144.776 2.17985L138.255 2.17789C140.416 2.31991 142.615 2.32057 144.776 2.17985ZM93.7676 2.25153L93.8186 2.17542L87.5446 2.17354L87.5446 2.24966L93.7676 2.25153ZM156.354 2.46246C155.113 2.14308 154.323 2.51985 153.43 2.46158L156.354 2.46246ZM73.5089 2.31071L71.9446 2.21961C71.9446 2.29936 71.8511 2.42983 71.9446 2.44436C72.1812 2.49039 72.437 2.51574 72.6969 2.51893C72.9568 2.52212 73.2155 2.50309 73.4578 2.46294C73.4724 2.41366 73.4781 2.36397 73.4749 2.31431L73.5089 2.31071Z" fill="#070707"/>
<path d="M101.77 2.20442L110.367 2.207C107.557 2.58952 104.58 2.58863 101.77 2.20442Z" fill="#F8F2EA"/>
<path d="M244.091 1.27259C247.038 1.21719 250.002 0.908541 253.165 1.27532C250.028 1.59517 247.072 1.10464 244.091 1.27259Z" fill="#F8F2EA"/>
<path d="M297.58 2.00799C299.331 1.90098 301.082 2.10175 302.833 2.04294C301.15 2.31772 299.293 2.33682 297.58 2.09698L297.58 2.05249L297.58 2.00799Z" fill="#F8F2EA"/>
<path d="M297.58 2.05863L297.58 2.13787L297.58 2.21711C295.826 2.31335 294.063 2.25742 292.327 2.05044C294.075 1.94714 295.832 1.94989 297.58 2.05863Z" fill="#F8F2EA"/>
<path d="M54.4894 2.63068C52.913 2.78604 51.3016 2.80629 49.7136 2.6907C51.1897 2.72898 52.6747 2.23765 54.4894 2.63068Z" fill="#F8F2EA"/>
<path d="M252.209 2.18234C250.386 2.35957 248.554 2.12198 247.434 2.18091C248.562 2.25874 250.334 1.91283 252.175 1.96808L252.209 2.18234Z" fill="#F8F2EA"/>
<path d="M252.209 2.24951L252.209 1.96199L256.508 1.96328L256.508 2.2508L252.209 2.24951Z" fill="#F8F2EA"/>
<path d="M75.5267 2.20341C76.4925 2.17302 77.4605 2.24318 78.3697 2.40946C77.424 2.49923 76.4548 2.50828 75.503 2.43623L75.5267 2.20341Z" fill="#F8F2EA"/>
<path d="M156.216 2.49534L153.349 2.49448C154.224 2.61743 155 1.8202 156.216 2.49534Z" fill="#F8F2EA"/>
<path d="M73.5934 2.28298C73.5745 2.33247 73.5443 2.38135 73.5031 2.42916C73.2172 2.46769 72.912 2.48595 72.6054 2.48287C72.2988 2.47979 71.997 2.45542 71.7179 2.41121C71.6377 2.41119 71.7179 2.27198 71.718 2.1954L73.5934 2.28298Z" fill="#F8F2EA"/>
<path d="M75.5025 2.22072L75.5024 2.47064C75.052 2.43661 74.5386 2.58048 74.0703 2.34736C74.4757 2.08909 75.0341 2.24599 75.5025 2.22072Z" fill="#F8F2EA"/>
</svg>
