<svg width="14" height="16" viewBox="0 0 14 16" fill="none" xmlns="http://www.w3.org/2000/svg">
<path d="M6.65497 15.3728C5.9886 15.385 5.07912 15.3883 4.16853 15.4231C3.57288 15.4458 2.9789 15.4419 2.38381 15.4386C1.90144 15.4353 1.41907 15.4132 0.938362 15.3662C0.631148 15.3364 0.269232 15.0717 0.194639 14.7391C0.127481 14.4168 0.08518 14.0898 0.0681072 13.7611C0.0161682 12.9842 0.0266662 12.2057 0.00732718 11.4277C-0.0158796 10.4746 0.0239038 9.51976 0.0189309 8.56552C0.0139581 7.6483 0.0471102 6.73273 0.0857881 5.81772C0.0984966 5.51659 0.121703 5.20993 0.254866 4.93034C0.323113 4.77892 0.428193 4.64701 0.560516 4.54663C0.69284 4.44625 0.848194 4.38061 1.0124 4.3557C1.39587 4.28884 1.78099 4.23414 2.16666 4.18109C2.24623 4.17059 2.26999 4.13855 2.28546 4.06672C2.44515 3.32576 2.696 2.61905 3.12035 1.98584C3.96187 0.728806 5.13382 0.0480731 6.65663 0.0243137C7.47384 0.0116053 8.20098 0.312189 8.8668 0.767484C9.78678 1.39628 10.3802 2.27371 10.7786 3.29758C10.8596 3.49882 10.9279 3.70495 10.983 3.91477C11.0068 4.00925 11.0444 4.04406 11.1488 4.04351C11.4705 4.03318 11.7926 4.05056 12.1113 4.09545C12.7025 4.19214 12.9512 4.44963 13.0457 5.09721C13.1562 5.85751 13.1656 6.62499 13.1899 7.39192C13.2153 8.20637 13.2529 9.02137 13.2606 9.83637C13.2684 10.6188 13.2717 11.4012 13.2761 12.183C13.2794 12.8157 13.2794 13.4478 13.2512 14.0799C13.243 14.3008 13.1997 14.519 13.123 14.7264C13.0125 15.0236 12.6898 15.2237 12.3666 15.2292C11.9439 15.2336 11.5212 15.2574 11.0985 15.2679C10.3879 15.2861 9.67738 15.2994 8.96626 15.3159C8.27447 15.332 7.58766 15.3496 6.65497 15.3728ZM7.73685 15.0513C9.10771 14.9927 10.2299 14.98 11.3516 14.9562C11.7256 14.9556 12.0993 14.932 12.4705 14.8855C12.802 14.8374 12.9396 14.6849 12.9633 14.3523C13.0076 13.7241 12.9667 13.0958 12.9733 12.4676C12.9805 11.8504 12.9656 11.2326 12.9656 10.6155C12.9656 9.62087 12.9777 8.6263 12.9202 7.63172C12.8722 6.79904 12.8418 5.96581 12.7545 5.13589C12.7418 5.00991 12.7423 4.87509 12.6539 4.77452C12.5191 4.62092 12.3638 4.48996 12.1483 4.46731C11.7466 4.42532 11.345 4.38111 10.9399 4.39603C10.7587 4.40321 10.7626 4.40377 10.7311 4.2253C10.536 3.10916 10.0448 2.14995 9.19501 1.39241C8.42974 0.710572 7.53738 0.346999 6.4997 0.397832C5.08464 0.465243 4.00332 1.12277 3.2281 2.29526C2.80706 2.9329 2.56505 3.64071 2.45454 4.39493C2.44349 4.46786 2.42249 4.50543 2.34403 4.49494C2.19761 4.47836 2.05284 4.50599 1.90697 4.51151C1.58511 4.52073 1.2663 4.57657 0.960463 4.67728C0.847532 4.71094 0.745613 4.7741 0.6652 4.86024C0.584787 4.94638 0.528784 5.0524 0.502958 5.16738C0.414551 5.48896 0.401843 5.81772 0.382504 6.14538C0.333328 6.95596 0.352666 7.7682 0.33609 8.57988C0.312331 9.75404 0.300175 10.9293 0.349903 12.104C0.378636 12.7759 0.386371 13.4494 0.426707 14.1213C0.433698 14.3046 0.457933 14.4868 0.499091 14.6656C0.51646 14.7539 0.558973 14.8353 0.621514 14.9C0.684055 14.9647 0.763959 15.0099 0.851612 15.0303C1.11739 15.106 1.38703 15.07 1.65446 15.0734C2.47333 15.0833 3.29275 15.0568 4.11217 15.0678C4.77522 15.0767 5.43827 15.0767 6.10132 15.0772C6.73011 15.0723 7.35891 15.0712 7.73685 15.0513Z" fill="#F8F2EA"/>
<path d="M7.73684 15.0512C7.3589 15.0711 6.73011 15.0722 6.10132 15.0716C5.43826 15.0716 4.77521 15.0716 4.11216 15.0622C3.29274 15.0512 2.47332 15.0777 1.65445 15.0678C1.38702 15.0645 1.11738 15.1004 0.851607 15.0247C0.763954 15.0043 0.68405 14.9591 0.621509 14.8944C0.558967 14.8297 0.516454 14.7483 0.499085 14.66C0.457928 14.4812 0.433693 14.299 0.426701 14.1157C0.386366 13.4438 0.37863 12.7703 0.349898 12.0984C0.300169 10.9237 0.312325 9.74844 0.336084 8.57428C0.352661 7.7626 0.333322 6.95036 0.382499 6.13978C0.401838 5.81212 0.414546 5.48336 0.502953 5.16178C0.528779 5.0468 0.584781 4.94078 0.665195 4.85464C0.745608 4.7685 0.847526 4.70534 0.960458 4.67168C1.26629 4.57097 1.58511 4.51513 1.90696 4.50591C2.05283 4.50039 2.1976 4.47276 2.34403 4.48934C2.42028 4.49818 2.44127 4.46226 2.45453 4.38933C2.56504 3.63676 2.80761 2.92896 3.22809 2.28966C4.00165 1.11717 5.08464 0.459642 6.4997 0.392232C7.53516 0.343056 8.42973 0.706629 9.195 1.38681C10.0448 2.14435 10.536 3.10356 10.7311 4.2197C10.7626 4.39817 10.7587 4.39761 10.9399 4.39043C11.3449 4.37551 11.7466 4.41972 12.1483 4.46171C12.3638 4.48436 12.5191 4.61532 12.6539 4.76892C12.7423 4.86949 12.7418 5.00431 12.7545 5.13029C12.8412 5.9591 12.8716 6.79344 12.9202 7.62612C12.9755 8.6207 12.9661 9.61528 12.9656 10.6099C12.9656 11.227 12.9805 11.8448 12.9733 12.462C12.9667 13.0902 13.0075 13.7185 12.9633 14.3467C12.9396 14.6782 12.8014 14.8318 12.4705 14.8799C12.0993 14.9264 11.7256 14.95 11.3516 14.9506C10.2299 14.9799 9.1077 14.9926 7.73684 15.0512ZM9.67461 2.33608V2.34437L9.68124 2.34879L9.70997 2.35984C9.71082 2.35453 9.71082 2.34912 9.70997 2.34381C9.70003 2.32834 9.68732 2.32226 9.67461 2.33608ZM3.5016 2.55709C3.49331 2.55709 3.47895 2.55709 3.49221 2.57257C3.49497 2.56704 3.49718 2.56096 3.49939 2.55544L3.51431 2.54715L3.50492 2.53997L3.5016 2.55709ZM3.43364 2.6676C3.42756 2.6676 3.41098 2.6676 3.42646 2.68252C3.42646 2.677 3.43032 2.67147 3.43198 2.66595C3.44414 2.66595 3.45519 2.66595 3.44137 2.64882L3.43364 2.6676ZM3.32313 2.86983L3.31705 2.88807L3.32203 2.86818L3.3281 2.86044L3.32313 2.86983ZM3.20931 2.91238L3.22533 2.89857L3.21594 2.89194C3.21594 2.89912 3.21207 2.9063 3.21041 2.91348C3.20875 2.92067 3.18278 2.92785 3.20489 2.94222L3.20931 2.91238ZM8.46344 2.64826L8.48664 2.66981C8.49422 2.69405 8.5076 2.71607 8.5256 2.73397C8.5436 2.75188 8.56569 2.76513 8.58997 2.77259C8.564 2.73004 8.54411 2.68197 8.49051 2.66595L8.47172 2.63887C8.47115 2.63038 8.46798 2.62228 8.46264 2.61566C8.4573 2.60903 8.45006 2.60421 8.44188 2.60185C8.4404 2.59741 8.43804 2.59331 8.43493 2.5898C8.43183 2.58629 8.42805 2.58345 8.42382 2.58143C8.41959 2.57942 8.41499 2.57828 8.41031 2.57809C8.40563 2.5779 8.40096 2.57865 8.39658 2.5803L8.39105 2.57312L8.39768 2.5792C8.40873 2.59633 8.42089 2.61069 8.4441 2.60019C8.42973 2.6234 8.44299 2.63666 8.46344 2.64826ZM3.56791 2.44493L3.54636 2.48968C3.53531 2.48968 3.5226 2.48968 3.53696 2.50681L3.5447 2.48803C3.56404 2.47919 3.56459 2.46095 3.56625 2.44327L3.57343 2.43664L3.56791 2.44493ZM9.54808 2.12445C9.54366 2.11506 9.53758 2.10401 9.52597 2.1134C9.52266 2.1134 9.52929 2.13108 9.5315 2.14048L9.55968 2.18026L9.59725 2.2322C9.61659 2.26701 9.62764 2.31066 9.69395 2.32447C9.67865 2.28173 9.65258 2.24367 9.61825 2.21397L9.57957 2.15871L9.54808 2.12445ZM8.64522 2.84828C8.64191 2.82895 8.63638 2.81126 8.61538 2.80629C8.61262 2.80629 8.60378 2.81568 8.60489 2.81955C8.60522 2.82414 8.60649 2.82861 8.60862 2.83269C8.61075 2.83677 8.61369 2.84036 8.61726 2.84326C8.62083 2.84616 8.62496 2.8483 8.62939 2.84954C8.63382 2.85079 8.63845 2.85111 8.64301 2.8505C8.63914 2.87757 8.64301 2.89967 8.67672 2.90575C8.6839 2.87646 8.66622 2.86099 8.64522 2.84718V2.84828ZM10.6896 14.5622C10.7769 14.5451 10.8725 14.5749 10.9659 14.5069L10.6963 14.5324C10.604 14.5119 10.5172 14.5451 10.4288 14.5611C10.5161 14.5666 10.6012 14.592 10.688 14.5616L10.6896 14.5622ZM4.03867 3.655C4.106 3.55543 4.15745 3.44601 4.19117 3.33065C4.12211 3.43066 4.0453 3.52681 4.03978 3.6561C4.03978 3.66218 4.01989 3.66329 4.03315 3.67489L4.03867 3.655ZM3.16731 3.02841C3.10345 3.14017 3.06267 3.26362 3.04741 3.39143C3.08996 3.27098 3.15239 3.15716 3.16566 3.02676L3.18334 3.00686L3.17229 2.99968L3.16731 3.02841ZM0.648824 11.516C0.633789 11.7906 0.646191 12.0661 0.685844 12.3382C0.683081 12.0647 0.713472 11.7906 0.670926 11.5177V11.0138H0.648824V11.516ZM5.66204 4.53796C5.26311 4.51641 4.86417 4.53796 4.46524 4.53796C4.62713 4.55067 4.78958 4.56393 4.95203 4.56669C5.19017 4.57111 5.42832 4.59708 5.66646 4.56282L6.01236 4.57332C6.44942 4.59542 6.88537 4.57332 7.32243 4.55343C7.2754 4.53496 7.22446 4.52869 7.17435 4.5352C6.9025 4.5689 6.63065 4.54846 6.3588 4.5352C6.24332 4.53022 6.12784 4.5352 6.01236 4.5352L5.66204 4.53796ZM10.2288 3.50194C10.1384 3.10362 9.96827 2.72772 9.72876 2.39686C9.93053 2.74185 10.0885 3.11067 10.199 3.49476C10.2283 3.62019 10.2581 3.74561 10.2874 3.87104C10.2819 3.74506 10.2819 3.61853 10.2288 3.50194ZM4.46634 14.7705C4.24809 14.7219 3.62924 14.7373 3.57841 14.7965H4.46634C5.92837 14.8263 7.38984 14.8898 8.85187 14.8246L4.46634 14.7705ZM12.7545 11.8746C12.7545 11.6613 12.7589 11.4486 12.7606 11.2353C12.7606 10.8878 12.7711 10.5402 12.7672 10.1927C12.755 9.24286 12.7545 8.29249 12.6838 7.34433C12.6976 7.21779 12.6617 7.09513 12.6545 6.9697C12.6373 7.09454 12.6373 7.22114 12.6545 7.34598C12.6572 7.60789 12.6583 7.86979 12.6644 8.1317C12.6931 9.38044 12.6849 10.6303 12.7269 11.8785C12.6998 12.0023 12.7451 12.1238 12.7114 12.2476H12.7561L12.7545 11.8746ZM5.86096 5.03083H4.51386C4.06077 5.03083 3.60824 5.02641 3.15516 5.03083C2.74462 5.03083 2.33132 5.01315 1.92796 5.12034C1.55941 5.21814 1.15109 5.46347 1.1428 6.03977C1.13561 6.5028 1.12125 6.96639 1.10854 7.42942C1.08202 8.37979 1.08091 9.33016 1.06765 10.28C1.0566 11.0397 1.08975 11.7989 1.09638 12.5581C1.09692 12.9585 1.12628 13.3582 1.18424 13.7544C1.20273 13.9034 1.26547 14.0436 1.36437 14.1566C1.56107 14.3776 1.82574 14.4329 2.09759 14.4329C2.95072 14.4296 3.80329 14.4517 4.65697 14.4268C5.18741 14.4113 5.71896 14.4589 6.2505 14.46C7.32464 14.46 8.39768 14.4102 9.47183 14.4224C9.89112 14.428 10.3104 14.4079 10.7272 14.3622C10.9935 14.3323 11.2582 14.3069 11.5146 14.2014C11.9903 14.0091 12.2213 13.6665 12.2379 13.1604C12.271 12.1503 12.2931 11.1403 12.2876 10.1302C12.2776 8.89973 12.2461 7.66867 12.2218 6.43815C12.2227 6.17941 12.1822 5.92219 12.1019 5.6762C12.0577 5.53211 11.9746 5.40303 11.8617 5.30319C11.7488 5.20336 11.6105 5.13664 11.4621 5.11039C11.1171 5.04213 10.7671 5.00239 10.4156 4.9916C9.87352 4.97281 9.33093 4.97171 8.78888 4.96563C7.81199 4.95513 6.8373 5.03359 5.86096 5.03083ZM6.83233 0.839792C5.95655 0.84366 5.30565 1.05363 4.72383 1.46085C3.69941 2.17916 3.143 3.1892 2.92198 4.40259C2.90928 4.47 2.9358 4.47829 2.99105 4.47608C3.10156 4.47055 3.20489 4.44403 3.31484 4.44569C3.50492 4.44955 3.51099 4.43685 3.54525 4.24788C3.77622 2.98642 4.70559 1.76143 6.23227 1.55423C7.35559 1.40062 8.28165 1.76254 8.99995 2.63611C9.36292 3.08332 9.59696 3.62111 9.67682 4.19152C9.6956 4.31473 9.73705 4.35286 9.85639 4.3396C9.94247 4.33381 10.0289 4.33658 10.1144 4.34789C10.194 4.35507 10.2249 4.33849 10.2144 4.24567C10.1349 3.60527 9.95309 3.00023 9.58731 2.46427C8.88723 1.4382 7.92194 0.880127 6.83233 0.839792ZM6.59915 4.35452V4.36004C6.85332 4.36004 7.10749 4.36336 7.36166 4.36004C7.89266 4.3512 8.4231 4.33794 8.95409 4.32799C9.02316 4.32799 9.04195 4.30368 9.0309 4.23351C8.97489 3.82467 8.83107 3.43279 8.60931 3.08477C7.8805 1.96587 6.53782 1.64374 5.38743 2.32226C4.63708 2.7643 4.18289 3.43343 3.97016 4.27164C3.93922 4.3954 3.94419 4.40646 4.06575 4.38214C4.29284 4.3407 4.52049 4.35452 4.74814 4.35341C5.36533 4.35286 5.98528 4.35452 6.59915 4.35452ZM0.648824 10.901C0.644956 9.68876 0.648824 8.47759 0.627275 7.26697C0.552681 8.47925 0.617881 9.69097 0.648824 10.901ZM1.52902 14.6937L1.53179 14.7318C2.02023 14.7285 2.50592 14.8258 2.98774 14.739L1.52902 14.6937ZM5.37362 4.43961V4.41088H4.23593C4.61442 4.45895 4.99457 4.4385 5.37362 4.44016V4.43961ZM0.638878 6.38345C0.603793 6.66342 0.603793 6.94667 0.638878 7.22663V6.38345ZM0.794695 5.95358C0.812904 5.76208 0.803788 5.56897 0.767621 5.38004C0.750401 5.57174 0.75951 5.7649 0.794695 5.95413V5.95358ZM3.98508 4.72693C3.7963 4.68409 3.60032 4.68409 3.41154 4.72693H3.98508ZM11.603 5.07172L11.9284 5.12697C11.8384 5.04519 11.8384 5.04519 11.603 5.07227V5.07172ZM0.980349 7.46091C1.02124 7.3504 1.00411 7.23989 1.01405 7.12939C1.01405 7.1117 1.01405 7.0896 0.98698 7.09181C0.959905 7.09402 0.958248 7.11391 0.9588 7.13215C0.961563 7.24321 0.946644 7.35317 0.980349 7.46091ZM1.57986 5.11868C1.55831 5.09327 1.53013 5.10597 1.50692 5.10763C1.48661 5.1053 1.46604 5.10703 1.4464 5.11272C1.42677 5.11841 1.40846 5.12795 1.39255 5.14078C1.37929 5.15405 1.39973 5.16565 1.40912 5.17504C1.45277 5.21759 1.48206 5.1662 1.51632 5.15515C1.53786 5.14797 1.56494 5.14686 1.57986 5.11868ZM3.91325 4.02189L3.88728 4.0136C3.84201 4.12459 3.82183 4.24421 3.82815 4.36391L3.91325 4.02189ZM12.7987 14.5351C12.8452 14.4209 12.8584 14.2958 12.8368 14.1743C12.7887 14.3124 12.8037 14.4257 12.7987 14.5351ZM7.35945 1.90399C7.26788 1.85098 7.1592 1.8359 7.05666 1.862L7.35945 1.90399ZM12.4644 5.44026C12.4687 5.39927 12.4632 5.35783 12.4483 5.31939C12.4334 5.28095 12.4096 5.24662 12.3788 5.21925C12.4069 5.29163 12.4357 5.36567 12.4644 5.43971V5.44026ZM11.9826 14.6036C12.0301 14.6036 12.0804 14.6324 12.1218 14.5904C12.1235 14.5856 12.1242 14.5805 12.1237 14.5754C12.1232 14.5704 12.1216 14.5655 12.1191 14.5611C12.0946 14.5584 12.0699 14.5607 12.0465 14.5679C12.023 14.5752 12.0012 14.5871 11.9826 14.6031V14.6036ZM1.492 14.7064C1.47432 14.6944 1.45343 14.688 1.43205 14.688C1.41067 14.688 1.38978 14.6944 1.3721 14.7064C1.39002 14.7179 1.41087 14.7239 1.43213 14.7238C1.4534 14.7237 1.47419 14.7175 1.492 14.7059V14.7064ZM3.02144 3.46603L3.01647 3.45166C3.01647 3.45166 3.0126 3.45774 3.01315 3.4605C3.01412 3.46543 3.0156 3.47025 3.01757 3.47487C3.01757 3.47487 3.02034 3.46934 3.02144 3.46603ZM3.39607 2.72396L3.40049 2.72783V2.72175L3.39607 2.72396ZM3.47232 2.61345L3.46734 2.60627C3.46734 2.60627 3.46237 2.61014 3.46182 2.61235C3.46127 2.61456 3.46182 2.61677 3.46624 2.61953C3.46808 2.61699 3.47011 2.61459 3.47232 2.61235V2.61345ZM8.70821 2.9494L8.70269 2.94166C8.70269 2.94166 8.69661 2.94553 8.69661 2.94774C8.69661 2.94995 8.69937 2.95272 8.70103 2.95548L8.70821 2.9494Z" fill="#181818"/>
<path d="M5.86097 5.0308C6.83732 5.0308 7.812 4.9551 8.78945 4.9656C9.33149 4.97168 9.87409 4.97278 10.4161 4.99157C10.7676 5.00236 11.1177 5.0421 11.4627 5.11036C11.611 5.1367 11.7491 5.20346 11.8619 5.30329C11.9747 5.40313 12.0578 5.53216 12.1019 5.67617C12.1822 5.92216 12.2227 6.17938 12.2218 6.43812C12.2462 7.66864 12.2771 8.8997 12.2876 10.1302C12.2959 11.1403 12.271 12.1503 12.2379 13.1604C12.2213 13.6665 11.9903 14.0091 11.5146 14.2013C11.2582 14.3052 10.9935 14.3323 10.7272 14.3621C10.3104 14.4075 9.89112 14.4273 9.47184 14.4213C8.3977 14.4091 7.32466 14.461 6.25052 14.4588C5.71897 14.4588 5.18742 14.4102 4.65698 14.4257C3.80331 14.4505 2.95073 14.4284 2.09761 14.4318C1.82575 14.4318 1.56109 14.3765 1.36438 14.1555C1.26548 14.0424 1.20274 13.9023 1.18425 13.7532C1.12627 13.3569 1.09691 12.957 1.0964 12.5564C1.08977 11.7972 1.05662 11.038 1.06767 10.2783C1.08093 9.32847 1.08203 8.3781 1.10855 7.42773C1.12126 6.9647 1.13563 6.50111 1.14281 6.03808C1.1511 5.46178 1.55943 5.21645 1.92798 5.11865C2.33133 5.01146 2.74463 5.0319 3.15517 5.02914C3.60826 5.02638 4.06079 5.02914 4.51387 5.02914L5.86097 5.0308ZM6.17537 13.2399C6.61424 13.3162 7.06312 13.3147 7.50147 13.2355C7.65342 13.2073 7.68271 13.1631 7.69486 12.9935C7.71328 12.6162 7.70959 12.2382 7.68381 11.8613C7.66429 11.3987 7.64274 10.9364 7.61916 10.4744C7.61694 10.4488 7.62263 10.4231 7.63547 10.4007C7.64831 10.3784 7.66769 10.3605 7.691 10.3496C8.20597 10.0236 8.51484 9.54894 8.6375 8.96159C8.78171 8.27367 8.61098 7.66477 8.07943 7.19014C7.57165 6.73705 6.96716 6.58731 6.29527 6.68622C5.11725 6.86027 4.33982 7.94436 4.64538 9.09586C4.71215 9.3673 4.83305 9.62247 5.00082 9.84607C5.16858 10.0697 5.37977 10.2571 5.62172 10.3971C5.66537 10.4231 5.70902 10.4402 5.70626 10.5109C5.68637 11.0535 5.69632 11.5961 5.69963 12.1382C5.69963 12.4078 5.70239 12.6769 5.72671 12.9454C5.74163 13.1073 5.78196 13.1465 5.93446 13.1465C6.32677 13.1465 6.71907 13.1465 7.11083 13.1438H7.44235C7.02297 13.2267 6.59309 13.1631 6.17537 13.2399ZM8.95742 8.73118C8.94471 8.36816 8.89775 8.10017 8.79995 7.84324C8.62921 7.39237 8.35239 7.02603 7.93522 6.77462C7.90649 6.75694 7.86449 6.71384 7.83963 6.75086C7.81476 6.78788 7.87002 6.80888 7.8982 6.82767C8.00606 6.89649 8.10579 6.97731 8.19547 7.06858C8.6375 7.53658 8.81321 8.10349 8.78282 8.73394C8.75022 9.41909 8.49329 9.9965 7.90649 10.3916C7.83687 10.4385 7.81974 10.5104 7.8004 10.5811C7.78769 10.6281 7.80869 10.6419 7.85565 10.6192C7.95104 10.5762 8.04161 10.5232 8.12585 10.4612C8.71707 10.0004 8.93808 9.36826 8.95742 8.73118ZM5.50127 10.6855C5.49795 10.7187 5.49409 10.7513 5.49077 10.7839C5.44104 11.2751 5.43938 11.7685 5.42668 12.2608C5.41949 12.5283 5.41397 12.7995 5.47309 13.0648C5.51177 13.2388 5.70902 13.3311 5.88971 13.2548C5.85369 13.2325 5.8146 13.2156 5.77367 13.2046C5.63996 13.1913 5.60128 13.1068 5.59575 12.9896C5.57973 12.6465 5.56923 12.3028 5.58305 11.9591C5.59852 11.5337 5.61178 11.1088 5.50127 10.6855ZM4.67245 7.48685C4.2376 8.02613 4.22655 8.63448 4.42215 9.26051C4.5625 9.70918 5.11062 10.3103 5.34103 10.3175C4.61112 9.77825 4.30115 9.08315 4.46249 8.193C4.50503 7.94878 4.6172 7.72665 4.6708 7.48685H4.67245ZM4.96143 7.09013C5.18342 6.91335 5.42749 6.76624 5.68748 6.65251C5.94551 6.542 6.22841 6.51161 6.50137 6.40442C6.04055 6.29502 5.01227 6.75528 4.95978 7.09013H4.96143ZM9.00826 7.87197C9.09501 8.15929 9.09722 8.45877 9.13258 8.75604C9.1958 8.4557 9.15119 8.1427 9.0066 7.87197H9.00826Z" fill="#F8F2EA"/>
<path d="M6.8323 0.839844C7.92192 0.881284 8.88721 1.43825 9.58728 2.46432C9.95306 3.00029 10.1349 3.60532 10.2144 4.24572C10.226 4.33854 10.194 4.35623 10.1144 4.34794C10.0289 4.33663 9.94244 4.33386 9.85637 4.33965C9.73702 4.35291 9.69558 4.31478 9.67679 4.19157C9.59693 3.62116 9.3629 3.08337 8.99993 2.63616C8.28162 1.76425 7.35556 1.40067 6.23224 1.55428C4.70501 1.76425 3.77508 2.98647 3.54523 4.25069C3.51097 4.43966 3.50489 4.45237 3.31481 4.4485C3.20431 4.4485 3.09932 4.47337 2.99102 4.47889C2.93577 4.47889 2.90925 4.47281 2.92196 4.4054C3.14297 3.18981 3.69938 2.18197 4.7238 1.46366C5.30563 1.05368 5.95652 0.843712 6.8323 0.839844Z" fill="#F8F2EA"/>
<path d="M6.59913 4.3546C5.98249 4.3546 5.3653 4.3546 4.74811 4.3546C4.52046 4.3546 4.29282 4.34189 4.06572 4.38333C3.94416 4.40598 3.93919 4.39493 3.97013 4.27282C4.18286 3.43461 4.63705 2.76714 5.3874 2.32345C6.53559 1.64493 7.88048 1.96706 8.60928 3.08541C8.83104 3.43342 8.97486 3.8253 9.03087 4.23414C9.04192 4.30432 9.02313 4.32752 8.95407 4.32863C8.42307 4.33858 7.89263 4.35184 7.36164 4.36068C7.10747 4.36454 6.8533 4.36068 6.59913 4.36068V4.3546ZM4.19225 4.01313C4.26685 4.01313 4.32542 4.01313 4.38454 4.01313C4.66854 4.00815 4.9531 3.99268 5.23711 3.99876C6.37424 4.02197 7.51138 4.00318 8.64851 3.97169C8.73857 3.97169 8.75018 3.94572 8.71758 3.86947C8.68498 3.79322 8.66785 3.72028 8.63967 3.64845C8.22692 2.58315 7.1478 2.01734 6.07808 2.3113C5.45205 2.48314 4.96581 2.86384 4.57351 3.37107C4.41985 3.56816 4.29175 3.78389 4.19225 4.01313Z" fill="#F8F2EA"/>
<path d="M12.6827 7.34485C12.7534 8.29301 12.754 9.24339 12.7661 10.1932C12.77 10.5408 12.7622 10.8883 12.7595 11.2359C12.7595 11.4491 12.7556 11.6619 12.7534 11.8751L12.7241 11.879C12.6821 10.6308 12.6904 9.38097 12.6617 8.13222C12.6556 7.87032 12.6545 7.60841 12.6517 7.34651L12.6827 7.34485Z" fill="#F8F2EA"/>
<path d="M4.46631 14.7706L8.85184 14.8259C7.38981 14.8911 5.92834 14.8259 4.46631 14.7977V14.7706Z" fill="#F8F2EA"/>
<path d="M0.648769 10.9012C0.617827 9.69109 0.552627 8.47937 0.62722 7.26709C0.647112 8.47771 0.644902 9.68888 0.648769 10.9012Z" fill="#F8F2EA"/>
<path d="M1.52905 14.6937L2.98777 14.739C2.50595 14.8258 2.02026 14.7285 1.53181 14.7319L1.52905 14.6937Z" fill="#F8F2EA"/>
<path d="M10.199 3.49549C10.0885 3.11139 9.93053 2.74258 9.72876 2.39758C9.96827 2.72845 10.1384 3.10435 10.2288 3.50267L10.199 3.49549Z" fill="#F8F2EA"/>
<path d="M6.01233 4.53688C6.12781 4.53688 6.24329 4.5308 6.35877 4.53688C6.63062 4.54848 6.90247 4.56893 7.17433 4.53688C7.22443 4.53037 7.27538 4.53664 7.32241 4.55512C6.88535 4.5728 6.44939 4.59711 6.01233 4.57501V4.53688Z" fill="#6F6F6F"/>
<path d="M5.37353 4.44011C4.99448 4.44011 4.61433 4.4589 4.23584 4.41138H5.37242L5.37353 4.44011Z" fill="#6F6F6F"/>
<path d="M5.66644 4.56191C5.42829 4.59616 5.19015 4.57019 4.952 4.56577C4.78955 4.56577 4.6271 4.54975 4.46521 4.53704C4.86415 4.53704 5.26308 4.5166 5.66202 4.53704C5.66202 4.53704 5.66754 4.54146 5.66754 4.54422C5.6678 4.55014 5.66743 4.55607 5.66644 4.56191Z" fill="#6F6F6F"/>
<path d="M4.4663 14.7705V14.7964H3.57837C3.6292 14.7373 4.24805 14.7219 4.4663 14.7705Z" fill="#6F6F6F"/>
<path d="M0.670863 11.5176C0.713409 11.7906 0.683019 12.0647 0.685781 12.3382C0.646128 12.066 0.633726 11.7906 0.648761 11.516L0.670863 11.5176Z" fill="#6F6F6F"/>
<path d="M0.638863 6.38403V7.22721C0.603777 6.94725 0.603777 6.664 0.638863 6.38403Z" fill="#6F6F6F"/>
<path d="M0.794652 5.95415C0.759517 5.7651 0.750408 5.57214 0.767578 5.38062C0.803745 5.56954 0.812861 5.76266 0.794652 5.95415Z" fill="#6F6F6F"/>
<path d="M3.98516 4.72757H3.41162C3.6004 4.68472 3.79638 4.68472 3.98516 4.72757Z" fill="#6F6F6F"/>
<path d="M11.6029 5.07229C11.8383 5.04522 11.8383 5.04522 11.9284 5.12755L11.6029 5.07229Z" fill="#F8F2EA"/>
<path d="M0.980287 7.46097C0.946582 7.35323 0.961501 7.24327 0.958738 7.13442C0.958738 7.11619 0.962606 7.09574 0.986918 7.09408C1.01123 7.09243 1.01565 7.11398 1.01399 7.13166C1.00405 7.24106 1.02118 7.35267 0.980287 7.46097Z" fill="#6F6F6F"/>
<path d="M5.66641 4.56185C5.66696 4.55633 5.66696 4.55078 5.66641 4.54527C5.66641 4.54251 5.6631 4.5403 5.66089 4.53809H6.0112V4.57345L5.66641 4.56185Z" fill="#F8F2EA"/>
<path d="M12.7263 11.8785L12.7556 11.8746V12.247H12.7108C12.7423 12.1238 12.697 12.0023 12.7263 11.8785Z" fill="#6F6F6F"/>
<path d="M1.57984 5.11872C1.56713 5.1469 1.53785 5.148 1.5163 5.15518C1.48204 5.16623 1.45276 5.21762 1.40911 5.17507C1.39971 5.16568 1.37927 5.15408 1.39253 5.14082C1.40844 5.12798 1.42675 5.11844 1.44639 5.11275C1.46602 5.10706 1.4866 5.10533 1.50691 5.10766C1.53011 5.10601 1.55829 5.0933 1.57984 5.11872Z" fill="#F8F2EA"/>
<path d="M3.1628 3.02686C3.14954 3.15726 3.0871 3.27108 3.04456 3.39153C3.05982 3.26372 3.10059 3.14027 3.16446 3.02851L3.1628 3.02686Z" fill="#6F6F6F"/>
<path d="M10.199 3.49548L10.2288 3.50211C10.2841 3.6187 10.2841 3.74523 10.2874 3.87176C10.2581 3.74634 10.2283 3.62091 10.199 3.49548Z" fill="#6F6F6F"/>
<path d="M3.91324 4.02196L3.83036 4.36398C3.82403 4.24428 3.84422 4.12466 3.88948 4.01367L3.91324 4.02196Z" fill="#6F6F6F"/>
<path d="M12.7987 14.5351C12.8037 14.4246 12.7888 14.3141 12.8368 14.1743C12.8585 14.2958 12.8452 14.4209 12.7987 14.5351Z" fill="#6F6F6F"/>
<path d="M4.0398 3.65614C4.04533 3.52684 4.12213 3.4307 4.1912 3.33069C4.15747 3.44605 4.10602 3.55547 4.0387 3.65503L4.0398 3.65614Z" fill="#6F6F6F"/>
<path d="M0.670906 11.5178H0.648804V11.0166H0.670906V11.5178Z" fill="#F8F2EA"/>
<path d="M12.6827 7.34503H12.6518C12.6346 7.22019 12.6346 7.09359 12.6518 6.96875C12.6606 7.09528 12.6965 7.21795 12.6827 7.34503Z" fill="#6F6F6F"/>
<path d="M7.35943 1.90411L7.05664 1.86212C7.15918 1.83603 7.26786 1.8511 7.35943 1.90411Z" fill="#6F6F6F"/>
<path d="M10.688 14.5617C10.6012 14.5921 10.5139 14.5667 10.4266 14.5617C10.515 14.5457 10.6018 14.5125 10.6941 14.533C10.6961 14.535 10.6976 14.5376 10.6984 14.5404C10.6992 14.5432 10.6993 14.5461 10.6987 14.5489C10.6981 14.5518 10.6968 14.5544 10.6949 14.5567C10.6931 14.5589 10.6907 14.5606 10.688 14.5617Z" fill="#6F6F6F"/>
<path d="M10.688 14.5618C10.6906 14.5607 10.6929 14.5589 10.6947 14.5568C10.6965 14.5546 10.6977 14.552 10.6983 14.5493C10.6989 14.5465 10.6988 14.5436 10.6981 14.5409C10.6973 14.5382 10.696 14.5357 10.6941 14.5336L10.9637 14.5082C10.8709 14.5745 10.7753 14.5446 10.688 14.5618Z" fill="#F8F2EA"/>
<path d="M12.4644 5.43977C12.4357 5.36573 12.4092 5.29169 12.3788 5.21875C12.4096 5.24612 12.4335 5.28045 12.4484 5.31889C12.4633 5.35733 12.4688 5.39877 12.4644 5.43977Z" fill="#6F6F6F"/>
<path d="M11.9825 14.6031C12.0012 14.5871 12.0229 14.575 12.0464 14.5677C12.0698 14.5604 12.0946 14.558 12.119 14.5606C12.1216 14.565 12.1232 14.5699 12.1236 14.5749C12.1241 14.58 12.1235 14.5851 12.1218 14.5899C12.0803 14.6319 12.0301 14.6015 11.9825 14.6031Z" fill="#F8F2EA"/>
<path d="M8.49044 2.66479C8.54569 2.68082 8.56393 2.72889 8.5899 2.77144C8.56563 2.76398 8.54353 2.75073 8.52553 2.73282C8.50753 2.71492 8.49416 2.6929 8.48657 2.66866L8.49044 2.66479Z" fill="#6F6F6F"/>
<path d="M1.49197 14.7059C1.47411 14.7175 1.45329 14.7236 1.43202 14.7236C1.41075 14.7236 1.38994 14.7175 1.37207 14.7059C1.38975 14.6939 1.41064 14.6875 1.43202 14.6875C1.4534 14.6875 1.47429 14.6939 1.49197 14.7059Z" fill="#F8F2EA"/>
<path d="M9.61829 2.21179C9.65262 2.24149 9.67869 2.27956 9.69399 2.3223C9.62768 2.30849 9.61663 2.26705 9.59729 2.23003L9.61829 2.21179Z" fill="#6F6F6F"/>
<path d="M8.6451 2.84729C8.6661 2.8611 8.68378 2.87657 8.67659 2.90696C8.64344 2.89868 8.63902 2.87657 8.64289 2.85171L8.6451 2.84729Z" fill="#6F6F6F"/>
<path d="M9.59726 2.23114L9.55969 2.1792L9.57958 2.1582L9.61826 2.21346L9.59726 2.23114Z" fill="#6F6F6F"/>
<path d="M8.64298 2.8494C8.63843 2.85002 8.63379 2.84969 8.62936 2.84845C8.62493 2.84721 8.62081 2.84507 8.61723 2.84217C8.61366 2.83927 8.61072 2.83567 8.60859 2.83159C8.60647 2.82752 8.60519 2.82305 8.60486 2.81846C8.60486 2.81459 8.61259 2.80465 8.61536 2.8052C8.63635 2.81017 8.64188 2.82785 8.64519 2.84719L8.64298 2.8494Z" fill="#6F6F6F"/>
<path d="M3.02155 3.46617C3.02155 3.46952 3.01876 3.47231 3.01765 3.4751C3.01565 3.47043 3.01416 3.46557 3.01318 3.46059C3.01318 3.46059 3.01318 3.45445 3.01653 3.45166L3.02155 3.46617Z" fill="#6F6F6F"/>
<path d="M9.54807 2.12341C9.55857 2.13502 9.56907 2.14717 9.57957 2.15822L9.55967 2.17922L9.53149 2.13944L9.54807 2.12341Z" fill="#6F6F6F"/>
<path d="M3.54626 2.4886L3.56781 2.44385C3.56781 2.46153 3.56781 2.47976 3.54626 2.4886Z" fill="#6F6F6F"/>
<path d="M8.44412 2.59917C8.42091 2.60966 8.40876 2.5953 8.39771 2.57817C8.40209 2.57652 8.40676 2.57576 8.41144 2.57596C8.41612 2.57615 8.42071 2.57729 8.42494 2.5793C8.42917 2.58131 8.43296 2.58416 8.43606 2.58767C8.43917 2.59118 8.44153 2.59527 8.44301 2.59972L8.44412 2.59917Z" fill="#6F6F6F"/>
<path d="M8.46348 2.64829C8.44303 2.63779 8.42977 2.62453 8.44414 2.60022C8.45239 2.60261 8.4597 2.60752 8.46505 2.61425C8.47039 2.62098 8.47351 2.62921 8.47397 2.63779L8.46348 2.64829Z" fill="#6F6F6F"/>
<path d="M3.20815 2.91483L3.21373 2.89307L3.22321 2.89976L3.20703 2.91372L3.20815 2.91483Z" fill="#6F6F6F"/>
<path d="M3.31984 2.86938L3.31482 2.88948L3.32096 2.87106L3.31984 2.86938Z" fill="#6F6F6F"/>
<path d="M3.20717 2.91357L3.20275 2.94341C3.18064 2.92905 3.20275 2.92352 3.20827 2.91468L3.20717 2.91357Z" fill="#6F6F6F"/>
<path d="M3.16731 3.02849L3.17228 2.99976L3.18333 3.00694L3.16565 3.02683L3.16731 3.02849Z" fill="#6F6F6F"/>
<path d="M4.03872 3.65503L4.03314 3.67512C4.01974 3.6634 4.0376 3.66228 4.03983 3.65615L4.03872 3.65503Z" fill="#6F6F6F"/>
<path d="M3.32104 2.87034L3.32653 2.85999L3.31982 2.86851L3.32104 2.87034Z" fill="#6F6F6F"/>
<path d="M3.39551 2.72466L3.40264 2.7218L3.40193 2.72965L3.39551 2.72466Z" fill="#6F6F6F"/>
<path d="M3.43227 2.66711L3.4266 2.68411C3.41074 2.66995 3.4266 2.67165 3.43397 2.66881L3.43227 2.66711Z" fill="#6F6F6F"/>
<path d="M8.48671 2.66882L8.4635 2.64727L8.47179 2.63843L8.49058 2.66495L8.48671 2.66882Z" fill="#6F6F6F"/>
<path d="M3.43359 2.66896L3.44364 2.64832C3.45759 2.66338 3.44364 2.6645 3.43415 2.66562L3.43359 2.66896Z" fill="#6F6F6F"/>
<path d="M3.47274 2.61272C3.47049 2.61468 3.46837 2.6168 3.4664 2.61905C3.4664 2.61905 3.46179 2.61387 3.46179 2.61156C3.46179 2.60926 3.46583 2.60753 3.46755 2.60522L3.47274 2.61272Z" fill="#6F6F6F"/>
<path d="M8.70868 2.94862L8.70119 2.95496C8.70119 2.95208 8.696 2.9492 8.69658 2.94689C8.69715 2.94459 8.70061 2.94286 8.70292 2.94055L8.70868 2.94862Z" fill="#6F6F6F"/>
<path d="M8.39842 2.57872L8.39111 2.57202L8.39721 2.57994L8.39842 2.57872Z" fill="#6F6F6F"/>
<path d="M3.49899 2.55493L3.49173 2.57223C3.47834 2.55772 3.49173 2.55884 3.50122 2.55661L3.49899 2.55493Z" fill="#6F6F6F"/>
<path d="M3.50162 2.55673L3.50497 2.53943L3.51446 2.54668L3.49939 2.55505L3.50162 2.55673Z" fill="#6F6F6F"/>
<path d="M3.54484 2.48694L3.53703 2.50591C3.52252 2.49029 3.53703 2.49029 3.54651 2.48861L3.54484 2.48694Z" fill="#6F6F6F"/>
<path d="M3.56799 2.44469L3.57408 2.43555L3.56616 2.44286L3.56799 2.44469Z" fill="#6F6F6F"/>
<path d="M9.67456 2.33608C9.68948 2.32226 9.69998 2.32834 9.70661 2.34381C9.70746 2.34912 9.70746 2.35453 9.70661 2.35984L9.67788 2.34879V2.3405L9.67456 2.33608Z" fill="#F8F2EA"/>
<path d="M9.68019 2.35002L9.67297 2.34521L9.67478 2.33618L9.6826 2.34099L9.68019 2.35002Z" fill="#6F6F6F"/>
<path d="M9.53142 2.13945C9.53142 2.13005 9.52258 2.11513 9.52589 2.11237C9.53749 2.10298 9.54357 2.11237 9.54799 2.12342L9.53142 2.13945Z" fill="#6F6F6F"/>
<path d="M6.17532 13.24C6.59415 13.1632 7.02293 13.2267 7.4412 13.1433H7.10967C6.71792 13.1433 6.32562 13.1466 5.93331 13.146C5.78026 13.146 5.74047 13.1068 5.72556 12.9449C5.70124 12.6764 5.70014 12.4073 5.69848 12.1376C5.69517 11.5956 5.68522 11.053 5.70511 10.5104C5.70511 10.4397 5.66422 10.4226 5.62057 10.3966C5.37862 10.2566 5.16743 10.0692 4.99966 9.84556C4.8319 9.62196 4.711 9.36679 4.64423 9.09534C4.33867 7.94385 5.1161 6.85976 6.29412 6.68571C6.96601 6.5868 7.5705 6.73654 8.07828 7.18962C8.60983 7.66426 8.78056 8.27316 8.63635 8.96108C8.51369 9.54843 8.20481 10.0231 7.68984 10.3491C7.66654 10.36 7.64716 10.3779 7.63432 10.4002C7.62148 10.4225 7.61578 10.4483 7.61801 10.4739C7.64196 10.9359 7.66351 11.3982 7.68266 11.8608C7.70844 12.2377 7.71213 12.6157 7.69371 12.993C7.68156 13.1626 7.65227 13.2068 7.50032 13.235C7.06236 13.3143 6.61387 13.316 6.17532 13.24ZM6.10349 9.47052C6.18436 9.45955 6.26166 9.43026 6.32948 9.38488C6.25326 9.38525 6.17796 9.40162 6.10847 9.43295C6.0289 9.46831 5.93497 9.46831 5.86977 9.53959L6.10349 9.47052ZM6.55216 9.69154C6.38035 9.72331 6.21388 9.77911 6.05763 9.8573L6.59692 9.71474C6.6877 9.70256 6.77594 9.67588 6.85827 9.63573C6.75305 9.62609 6.6472 9.64538 6.55216 9.69154ZM6.9207 8.94726C6.5621 8.99147 6.20737 9.06274 5.87916 9.22353L5.89132 9.26442L6.9207 8.94726ZM5.86424 8.87377L5.87308 8.90527L6.88092 8.61574L6.87319 8.58811C6.53172 8.66436 6.17698 8.69254 5.86424 8.87599V8.87377ZM7.98601 9.23901C7.80422 9.19701 7.18593 9.29426 7.02624 9.39482C7.35556 9.34454 7.66829 9.32023 7.98601 9.24122V9.23901ZM7.2561 8.02894C7.54851 8.03563 7.84104 8.02345 8.13188 7.99247C8.11595 7.97768 8.0971 7.9664 8.07654 7.95936C8.05598 7.95231 8.03418 7.94966 8.01253 7.95158C7.75339 7.93445 7.50308 7.97976 7.2561 8.02894ZM6.76876 7.43606C6.37738 7.47788 5.99499 7.5808 5.63549 7.74106C6.00901 7.63 6.38916 7.53773 6.7671 7.43606H6.76876ZM8.12193 8.56601C7.886 8.55772 7.65724 8.61132 7.42904 8.66381C7.66284 8.66293 7.89541 8.63003 8.12028 8.56601H8.12193ZM7.06216 7.08022C6.73375 7.04876 6.40238 7.08506 6.08858 7.18686C6.41038 7.13372 6.73483 7.09812 7.0605 7.08022H7.06216ZM7.28317 7.83168C7.52353 7.79963 7.76775 7.80129 8.00148 7.72891C7.75725 7.74769 7.51414 7.75985 7.27986 7.83168H7.28317ZM6.093 7.98087C5.95818 7.98087 5.4852 8.12508 5.36917 8.20465L6.093 7.98087ZM5.5399 8.39472L6.02393 8.22896C5.85107 8.24195 5.68443 8.29902 5.5399 8.39472ZM7.98214 8.92129C7.81063 8.9223 7.64043 8.95122 7.47822 9.00694C7.64896 8.99257 7.8208 8.98815 7.98214 8.92295V8.92129ZM6.51127 10.0446C6.67523 10.0267 6.83622 9.9879 6.99033 9.92913C6.82502 9.93985 6.66287 9.9795 6.51127 10.0463V10.0446ZM6.78202 12.052C6.6065 12.0949 6.4351 12.1531 6.26981 12.2261L6.28086 12.2537L6.78202 12.052ZM7.08315 7.26643C7.25762 7.27909 7.433 7.26869 7.60475 7.23549C7.4305 7.2101 7.25288 7.2212 7.08315 7.26809V7.26643ZM6.66433 11.6868C6.5358 11.7025 6.41416 11.7536 6.31291 11.8343L6.66433 11.6868ZM6.19245 7.73719L6.20019 7.77587L6.66156 7.64934C6.50132 7.65208 6.3427 7.68198 6.19245 7.73775V7.73719ZM6.85274 8.26985C6.67482 8.25658 6.51403 8.29692 6.45878 8.37096L6.85274 8.26985ZM7.50916 8.29913C7.63846 8.3251 7.76389 8.29526 7.92302 8.27261C7.76002 8.23504 7.63514 8.26929 7.50916 8.29968V8.29913ZM5.23434 8.95887C5.12384 8.99975 5.09068 9.02904 5.06858 9.12021C5.12549 9.05225 5.19456 9.02959 5.23434 8.95942V8.95887ZM6.908 11.9979C6.93341 11.9979 6.95828 12.0039 6.97541 11.978C6.96324 11.9732 6.9498 11.973 6.93746 11.9772C6.92512 11.9815 6.91468 11.99 6.908 12.0012V11.9979ZM6.85606 12.0222C6.85606 12.0222 6.85606 12.0166 6.85329 12.0155C6.85007 12.0144 6.84657 12.0144 6.84335 12.0155C6.83396 12.0194 6.83506 12.0238 6.84611 12.026C6.85716 12.0282 6.85274 12.0266 6.85606 12.0255V12.0222Z" fill="#181818"/>
<path d="M8.95744 8.73125C8.9381 9.36833 8.71708 10.0021 8.12365 10.4624C8.03941 10.5244 7.94884 10.5774 7.85346 10.6204C7.80649 10.643 7.78549 10.6292 7.7982 10.5823C7.81754 10.5115 7.83467 10.4397 7.90429 10.3927C8.49109 9.99602 8.74802 9.41861 8.78062 8.73512C8.81101 8.10301 8.63752 7.5361 8.19548 7.06865C8.10646 6.97771 8.00749 6.89708 7.90042 6.82829C7.87224 6.8095 7.81367 6.79403 7.84185 6.75149C7.87003 6.70894 7.90871 6.75757 7.93744 6.77525C8.35461 7.02665 8.63144 7.39299 8.80217 7.84387C8.89776 8.10024 8.94473 8.36823 8.95744 8.73125Z" fill="#181818"/>
<path d="M5.50116 10.6857C5.61167 11.1089 5.59952 11.5338 5.58294 11.9565C5.56913 12.3002 5.57962 12.6439 5.59565 12.987C5.60117 13.1041 5.63985 13.1887 5.77357 13.2019C5.81449 13.213 5.85358 13.2299 5.8896 13.2522C5.70892 13.3285 5.51166 13.2362 5.47298 13.0622C5.41386 12.7969 5.41773 12.5256 5.42657 12.2582C5.43928 11.7659 5.44094 11.2725 5.49066 10.7813C5.49398 10.7514 5.49785 10.7188 5.50116 10.6857Z" fill="#181818"/>
<path d="M4.67081 7.48694C4.61556 7.72674 4.50505 7.94886 4.46085 8.19309C4.2995 9.08323 4.60948 9.77833 5.33939 10.3176C5.10898 10.3126 4.56085 9.70982 4.42051 9.2606C4.22491 8.63457 4.23596 8.02622 4.67081 7.48694Z" fill="#181818"/>
<path d="M4.95972 7.09026C5.01221 6.75542 6.04049 6.29515 6.49965 6.40566C6.2267 6.51285 5.9438 6.54379 5.68576 6.65375C5.42583 6.76713 5.18176 6.91387 4.95972 7.09026Z" fill="#181818"/>
<path d="M9.00659 7.87207C9.15062 8.143 9.19464 8.456 9.13091 8.75614C9.09555 8.45887 9.09334 8.15939 9.00659 7.87207Z" fill="#181818"/>
<path d="M6.92069 8.94727L5.89131 9.26166L5.87915 9.22077C6.20626 9.06496 6.56209 8.99368 6.92069 8.94727Z" fill="#F8F2EA"/>
<path d="M5.86426 8.87595C6.177 8.6925 6.53173 8.66432 6.8732 8.58862L6.88094 8.61625L5.87476 8.90744L5.86426 8.87595Z" fill="#F8F2EA"/>
<path d="M7.98601 9.24124C7.6683 9.32025 7.35556 9.34456 7.02625 9.39705C7.18593 9.29815 7.80422 9.19924 7.98601 9.24124Z" fill="#F8F2EA"/>
<path d="M7.2561 8.02905C7.50475 7.97987 7.75339 7.93456 8.01253 7.95169C8.03418 7.94977 8.05599 7.95242 8.07655 7.95947C8.09711 7.96651 8.11596 7.97779 8.13188 7.99258C7.84105 8.02356 7.54851 8.03574 7.2561 8.02905Z" fill="#F8F2EA"/>
<path d="M6.76718 7.43616C6.38924 7.53783 6.00909 7.6301 5.63391 7.74116C5.99341 7.5809 6.3758 7.47798 6.76718 7.43616Z" fill="#6F6F6F"/>
<path d="M8.12026 8.56609C7.89486 8.63026 7.66172 8.66316 7.42737 8.66389C7.65557 8.61139 7.88432 8.56056 8.12026 8.56609Z" fill="#F8F2EA"/>
<path d="M7.06049 7.08032C6.73427 7.09816 6.40926 7.13376 6.08691 7.18696C6.40072 7.08516 6.73209 7.04886 7.06049 7.08032Z" fill="#6F6F6F"/>
<path d="M7.27991 7.83178C7.51419 7.75995 7.7573 7.74779 7.99821 7.729C7.76449 7.80139 7.52026 7.79973 7.27991 7.83178Z" fill="#F8F2EA"/>
<path d="M6.0898 7.98086L5.36597 8.20464C5.482 8.12507 5.95498 7.97865 6.0898 7.98086Z" fill="#6F6F6F"/>
<path d="M6.5969 9.71705L6.05762 9.85961C6.21386 9.78142 6.38034 9.72562 6.55214 9.69385C6.56872 9.69716 6.59303 9.69385 6.5969 9.71705Z" fill="#F8F2EA"/>
<path d="M5.53992 8.39464C5.68445 8.29894 5.85109 8.24188 6.02394 8.22888L5.53992 8.39464Z" fill="#F8F2EA"/>
<path d="M7.98219 8.92297C7.82085 8.98817 7.65066 8.99259 7.47827 9.00862C7.64048 8.9529 7.81068 8.92398 7.98219 8.92297Z" fill="#6F6F6F"/>
<path d="M6.51123 10.0463C6.66294 9.98006 6.82508 9.94098 6.99028 9.93079C6.83618 9.98955 6.67519 10.0284 6.51123 10.0463Z" fill="#6F6F6F"/>
<path d="M6.78198 12.0537L6.28083 12.2554L6.26978 12.2278C6.43507 12.1548 6.60647 12.0966 6.78198 12.0537Z" fill="#6F6F6F"/>
<path d="M7.08325 7.26819C7.2531 7.22186 7.43072 7.21132 7.60485 7.23724C7.4331 7.27045 7.25772 7.28085 7.08325 7.26819Z" fill="#6F6F6F"/>
<path d="M6.66428 11.6874L6.31287 11.8349C6.41412 11.7542 6.53576 11.7031 6.66428 11.6874Z" fill="#F8F2EA"/>
<path d="M6.19238 7.73788C6.34266 7.6823 6.50128 7.65259 6.66149 7.65002L6.20012 7.77656L6.19238 7.73788Z" fill="#6F6F6F"/>
<path d="M6.8527 8.27044L6.45874 8.37156C6.51399 8.29752 6.67478 8.25718 6.8527 8.27044Z" fill="#6F6F6F"/>
<path d="M7.50916 8.29973C7.63514 8.26935 7.76001 8.23509 7.92301 8.27321C7.76388 8.29587 7.63845 8.3257 7.50916 8.29973Z" fill="#6F6F6F"/>
<path d="M6.597 9.71697C6.59092 9.69376 6.56882 9.69708 6.55225 9.69155C6.64734 9.64559 6.75319 9.62648 6.85835 9.6363C6.77612 9.67702 6.68788 9.70426 6.597 9.71697Z" fill="#6F6F6F"/>
<path d="M5.23437 8.95947C5.19458 9.02965 5.12386 9.0523 5.0686 9.12081C5.09071 9.02965 5.12331 9.00257 5.23437 8.95947Z" fill="#F8F2EA"/>
<path d="M6.10341 9.47056L5.87134 9.53962C5.93654 9.46835 6.03047 9.46835 6.11004 9.43298L6.10341 9.47056Z" fill="#F8F2EA"/>
<path d="M6.10352 9.47053L6.11015 9.43296C6.17964 9.40163 6.25494 9.38526 6.33116 9.38489C6.26285 9.4305 6.18496 9.45981 6.10352 9.47053Z" fill="#6F6F6F"/>
<path d="M6.90808 12.0011C6.91526 11.9905 6.92592 11.9827 6.93822 11.9791C6.95051 11.9754 6.96369 11.9762 6.97549 11.9812C6.95836 12.0072 6.9335 12.0033 6.90808 12.0011Z" fill="#6F6F6F"/>
<path d="M6.85631 12.0256C6.85296 12.0256 6.84906 12.029 6.84627 12.0284C6.84347 12.0278 6.83399 12.0217 6.84348 12.0178C6.84673 12.0167 6.85026 12.0167 6.85352 12.0178C6.85352 12.0178 6.8552 12.0234 6.85631 12.0256Z" fill="#6F6F6F"/>
</svg>
