<svg width="22" height="22" viewBox="0 0 22 22" fill="none" xmlns="http://www.w3.org/2000/svg">
    <g clip-path="url(#clip0_13_17639)">
        <path
            d="M19.0223 14.9285C18.9582 14.7667 18.8729 14.6096 18.7744 14.456C18.8409 12.7063 18.9227 10.9556 18.941 9.18705C18.9432 8.98502 18.8001 8.79855 18.6055 8.74632C17.9799 8.57842 17.3516 8.46253 16.7207 8.38423C16.7221 8.38089 16.7244 8.37893 16.7256 8.37547C18.0227 4.79556 15.2747 -0.282166 11.2622 0.0122297C9.15107 0.167096 7.36879 1.58153 6.62156 3.53437C6.24622 4.51511 5.10912 8.2063 6.21508 8.96103C6.24057 8.97844 6.28254 8.9781 6.30803 8.96103C6.4893 8.83926 6.60761 8.61071 6.68706 8.3283C6.8583 8.45065 7.03288 8.56873 7.20931 8.68209C7.32555 8.75681 7.4577 8.85379 7.59619 8.92828C6.33109 9.09491 5.06956 9.24124 3.81703 9.29325C3.66436 9.29959 3.60809 9.42044 3.63322 9.52791C3.60486 9.5677 3.58768 9.61221 3.58768 9.65902C3.52737 9.61843 3.44965 9.6114 3.39487 9.68163C3.01964 10.1629 3.0457 10.9066 3.00846 11.4855C2.90744 13.0573 2.98021 14.6437 3.06877 16.2143C3.14291 17.5277 2.91655 20.8397 4.52494 21.4133C6.91192 22.2643 9.89276 21.9686 12.3704 21.8668C13.6816 21.8127 14.9974 21.7205 16.2982 21.5443C16.9482 21.4562 17.9746 21.4539 18.4466 20.914C18.5084 20.8431 18.5364 20.7555 18.5397 20.6674C18.6487 20.6086 18.7283 20.5005 18.7219 20.3398C18.6549 18.6195 18.6888 16.9164 18.7474 15.2145C18.9122 15.2361 19.0996 15.1233 19.0223 14.9285ZM14.3736 7.42056C14.5323 7.57196 14.6953 7.71864 14.8646 7.86036C15.0185 7.98917 15.1738 8.13585 15.3351 8.27272C15.0339 8.26027 14.7325 8.25266 14.4306 8.2537C14.4769 8.00439 14.427 7.70423 14.3736 7.42056ZM15.9487 8.21484C15.7162 8.00404 15.4248 7.84641 15.1754 7.65822C14.8771 7.43301 14.5893 7.19258 14.3091 6.94523C14.3041 6.94073 14.2985 6.93947 14.2933 6.93578C14.2491 6.48478 14.2014 6.03483 14.1366 5.58707C14.3254 5.77837 14.5084 5.98133 14.699 6.16075C14.9353 6.38296 15.1788 6.59802 15.4221 6.81239C15.5671 6.94004 15.7296 7.10875 15.9197 7.17597C15.9255 7.51949 15.9323 7.86555 15.9487 8.21484ZM15.9078 6.66513C15.8178 6.59433 15.7229 6.52883 15.6418 6.46357C15.387 6.25762 15.1374 6.04532 14.8839 5.83787C14.6182 5.62051 14.3578 5.387 14.0732 5.1927C14.0534 5.07934 14.0346 4.96599 14.0113 4.85298C13.9265 4.442 13.7928 4.03149 13.6 3.66433C14.3372 4.30224 15.0727 4.94535 15.8478 5.54775C15.8843 5.91698 15.8984 6.28979 15.9078 6.66513ZM15.0251 2.95469C14.6599 2.67136 14.2643 2.41617 13.9024 2.14415C13.4127 1.77607 12.9439 1.38308 12.4865 0.976828C13.5339 1.21887 14.407 1.94443 15.0251 2.95469ZM12.0202 0.905334C12.4926 1.37743 12.9832 1.82877 13.4918 2.26258C14.0672 2.75335 14.6694 3.33199 15.3423 3.68163C15.3639 3.69281 15.3854 3.69915 15.4063 3.70146C15.5422 4.02803 15.6434 4.35656 15.7151 4.68739C14.1238 3.39622 12.5945 1.94443 10.7815 1.00324C11.2131 0.897262 11.6265 0.870048 12.0202 0.905334ZM10.2627 1.16963C10.9009 1.53921 11.4999 1.95515 12.0733 2.40187C12.0224 2.39023 11.9717 2.37777 11.9182 2.36947C11.5753 2.3162 11.2478 2.3298 10.9405 2.39865C10.704 2.2447 10.445 2.11359 10.2185 1.95446C10.0039 1.80363 9.79763 1.64104 9.59306 1.47625C9.80213 1.36025 10.027 1.25958 10.2627 1.16963ZM9.2808 1.66202C9.47614 1.83165 9.67171 2.00104 9.87062 2.16675C10.0323 2.30144 10.2085 2.45423 10.3954 2.58972C10.1025 2.72913 9.83476 2.91952 9.60033 3.15153C9.45457 3.03933 9.2929 2.94143 9.15153 2.83834C8.92402 2.6724 8.70642 2.49378 8.49367 2.30951C8.72672 2.06746 8.99148 1.85321 9.2808 1.66202ZM8.28564 2.53864C8.46669 2.70619 8.65107 2.87016 8.83915 3.03137C8.99182 3.16225 9.15349 3.32473 9.329 3.45653C9.15395 3.67909 9.00278 3.92482 8.88216 4.18901C8.7281 4.09445 8.57012 4.00427 8.42782 3.90038C8.18451 3.72268 7.96288 3.51546 7.75278 3.29752C7.90846 3.02711 8.08661 2.77399 8.28564 2.53864ZM7.58189 3.62212C7.74529 3.79913 7.91756 3.96795 8.10241 4.12674C8.28253 4.28137 8.49079 4.46622 8.71438 4.60114C8.61152 4.88481 8.51569 5.2018 8.43797 5.5346C8.23583 5.38781 8.00082 5.2688 7.81228 5.11659C7.59527 4.94108 7.39208 4.7447 7.20574 4.53414C7.30917 4.21472 7.43786 3.91271 7.58189 3.62212ZM6.91157 5.74955C6.96001 5.46403 7.02078 5.18497 7.09377 4.91352C7.23468 5.0783 7.38401 5.2364 7.54314 5.38585C7.74575 5.57611 8.04499 5.87397 8.3516 5.95227C8.28495 6.32992 8.24609 6.71772 8.25128 7.09283C8.0127 6.92747 7.76973 6.76627 7.54879 6.58211C7.31886 6.39034 7.09884 6.18647 6.88574 5.97533C6.89243 5.89196 6.9005 5.81493 6.91157 5.74955ZM7.01328 8.1581C6.98676 8.14265 6.88367 8.07681 6.75982 7.99551C6.84504 7.48813 6.84977 6.88931 6.86499 6.40153C7.0089 6.54544 7.15246 6.68947 7.3041 6.82704C7.60161 7.09675 7.93267 7.41802 8.29418 7.64196C8.34549 7.98559 8.44316 8.30686 8.60495 8.58292C8.72591 8.78944 9.06458 8.70492 9.0594 8.45976C9.03599 7.34053 9.05455 6.29994 9.38331 5.21207C9.74309 4.02157 10.8517 2.65291 12.2456 3.37397C13.1201 3.82634 13.2364 5.32173 13.3332 6.16848C13.3908 6.67102 13.3097 7.71045 13.5974 8.27145C11.7667 8.34399 9.92666 8.61428 8.09273 8.86186C8.09007 8.84226 8.08777 8.82254 8.07451 8.80443C7.85149 8.50024 7.3335 8.34526 7.01328 8.1581ZM17.6087 18.1411C16.535 16.6177 14.9559 15.3833 13.5752 14.1868C11.9046 12.7391 10.2262 11.3187 8.77238 9.65775C9.2695 9.61036 9.76661 9.55616 10.2636 9.50185C10.2657 9.54014 10.2815 9.57854 10.3199 9.6069C13.0575 11.6302 15.0094 14.4645 17.6252 16.6046C17.6026 17.1146 17.5908 17.6302 17.6087 18.1411ZM10.5888 9.46645C11.1897 9.40095 11.7907 9.33822 12.3918 9.28679C12.3669 9.33984 12.368 9.40211 12.4212 9.44419C13.543 10.3304 14.6357 11.2468 15.6992 12.202C16.4257 12.8547 17.0708 13.6515 17.7609 14.3636C17.7482 14.5541 17.7342 14.7447 17.7224 14.9353C17.7044 15.228 17.685 15.5286 17.6664 15.8321C15.3135 13.701 13.2829 11.1744 10.5888 9.46645ZM5.54408 20.8029C4.47397 20.6179 4.10878 19.5872 3.97939 18.4411C4.47316 19.0112 4.9787 19.5706 5.49588 20.1202C5.70217 20.3393 5.9313 20.6225 6.17807 20.8956C5.96589 20.8669 5.75383 20.8393 5.54408 20.8029ZM7.07036 20.9948C7.00417 20.9411 6.93752 20.8876 6.87294 20.8323C6.49875 20.5112 6.13563 20.177 5.77447 19.8413C5.14163 19.2528 4.53244 18.6376 3.93996 18.0081C3.90283 17.4517 3.90594 16.8937 3.89925 16.4057C4.84966 17.4912 5.83524 18.5435 6.83455 19.5861C7.29741 20.0691 7.73998 20.5408 8.14923 21.0617C7.78841 21.0465 7.42829 21.0263 7.07036 20.9948ZM9.03034 21.0858C8.98133 21.0264 8.91272 21.0069 8.8433 21.0195C8.71934 20.8514 8.55179 20.6338 8.49367 20.5611C8.10426 20.0746 7.63701 19.6635 7.18936 19.2314C6.07959 18.1605 4.97927 17.0796 3.88749 15.9902C3.8853 15.9368 3.88484 15.8768 3.88184 15.8265C3.85117 15.3125 3.83352 14.7975 3.8213 14.2822C6.06183 16.5984 8.49609 18.7144 10.7027 21.066C10.1465 21.0829 9.5881 21.0923 9.03034 21.0858ZM11.5376 21.0348C9.1641 18.4451 6.40005 16.2336 3.81288 13.863C3.79755 13.0488 3.78832 12.2342 3.7618 11.4211C5.33801 13.4117 7.17979 15.1644 8.94039 16.9879C10.0035 18.0888 11.2098 20.2156 12.6995 20.9766C12.3147 20.9982 11.9271 21.0175 11.5376 21.0348ZM13.5338 20.9328C13.5319 20.8782 13.5112 20.824 13.4616 20.7789C12.005 19.4534 10.7325 17.9817 9.3501 16.5781C7.56286 14.764 5.60381 13.1425 3.89037 11.2527C3.84586 11.2035 3.7912 11.2132 3.7558 11.2474C3.73851 10.7728 3.71602 10.2987 3.67831 9.82588C7.6701 13.3009 11.0615 17.4773 15.1487 20.8288C14.6083 20.8762 14.0664 20.9056 13.5338 20.9328ZM15.8792 20.7515C15.8704 20.6955 15.8481 20.6387 15.7939 20.5856C12.0601 16.9179 8.38585 13.0138 4.29109 9.7402C4.88852 9.79844 5.48538 9.81769 6.08201 9.81366C9.04982 12.4057 11.8239 15.1492 14.4776 18.0654C14.6537 18.2589 15.6902 19.8698 16.5575 20.6498C16.3329 20.6883 16.107 20.7233 15.8792 20.7515ZM17.2753 20.503C16.8923 19.8075 13.1856 15.8431 13.052 15.7094C10.9946 13.649 8.85656 11.6375 6.58962 9.80501C7.19916 9.78691 7.80836 9.74424 8.41745 9.69039C9.54544 11.2092 10.8934 12.5167 12.2916 13.7998C14.1501 15.5057 15.855 17.35 17.6774 19.0798C17.7283 19.5057 17.8054 19.9237 17.9236 20.3257C17.711 20.3937 17.494 20.4507 17.2753 20.503ZM17.9527 11.403C17.9444 11.5595 17.932 11.716 17.9228 11.8725C17.4597 11.4737 16.8923 11.1491 16.4255 10.7873C15.7978 10.3007 15.1914 9.78241 14.6107 9.24101C14.4788 9.11797 14.2873 9.30847 14.4128 9.43889C14.9639 10.0119 15.5459 10.5465 16.1501 11.0627C16.6876 11.5219 17.249 12.1167 17.8856 12.4595C17.8655 12.7679 17.8483 13.0765 17.8268 13.3847C17.3167 12.921 16.7523 12.5025 16.3081 12.1247C15.1344 11.1256 13.8999 10.1928 12.6694 9.265C13.7124 9.18301 14.7559 9.1453 15.8011 9.2063C16.0315 9.5022 16.2854 9.77411 16.5598 10.0308C16.8883 10.338 17.2209 10.6739 17.6193 10.887C17.8185 10.9934 18.0213 10.7391 17.861 10.5739C17.5849 10.2899 17.2429 10.079 16.9344 9.83084C16.7133 9.65303 16.509 9.45319 16.3142 9.2447C16.6096 9.2718 16.9055 9.3049 17.2013 9.35102C18.3838 9.53518 18.0033 10.4395 17.9527 11.403Z"
            fill="black" />
    </g>
    <defs>
        <clipPath id="clip0_13_17639">
            <rect width="22" height="22" fill="white" />
        </clipPath>
    </defs>
</svg>