<svg width="54" height="50" viewBox="0 0 54 50" fill="none" xmlns="http://www.w3.org/2000/svg">
<g filter="url(#filter0_d_2402_3973)">
<path d="M0.670532 20.9644C0.751603 15.6407 2.62631 10.9534 6.41969 6.98833C9.51138 3.75737 13.3377 1.68207 17.7884 0.626378C19.1611 0.300849 20.5563 0.111789 21.9693 0.0357312C24.891 -0.122035 27.7345 0.239567 30.4918 1.18182C33.3137 2.14624 35.8072 3.61569 37.9837 5.57147C39.836 7.23563 41.2802 9.17924 42.4536 11.3236C43.6619 13.5324 44.447 15.8576 44.7992 18.3206C44.9572 19.4249 45.0282 20.5341 44.9897 21.6467C44.8116 26.8269 42.9139 31.3609 39.2135 35.1773C36.0783 38.4104 32.2204 40.4879 27.6914 41.4258C26.3924 41.6948 25.0779 41.8634 23.7469 41.8913C17.7966 42.016 12.5499 40.2532 8.07592 36.5276C4.523 33.5687 2.26859 29.8532 1.21421 25.4835C0.887179 24.1293 0.711755 22.755 0.691601 21.3642C0.689769 21.2382 0.678777 21.1126 0.67099 20.9648L0.670532 20.9644Z" fill="#181818"/>
</g>
<path d="M23.9709 39.8134C20.8957 39.8664 18.0275 39.3866 15.2771 38.3187C13.3039 37.553 11.4603 36.572 9.85587 35.2256C7.21809 33.0125 5.28934 30.3352 4.07419 27.1977C3.54334 25.8278 3.18791 24.4166 2.99874 22.9693C2.81187 21.5429 2.75553 20.1104 2.96119 18.6844C3.23783 16.7669 3.83052 14.9324 4.71635 13.1869C6.46326 9.74474 9.04059 6.99448 12.4382 4.95351C14.6881 3.60228 17.1367 2.70262 19.7612 2.2467C21.0533 2.022 22.3564 1.91639 23.6691 1.92813C25.7027 1.94638 27.7002 2.21324 29.6312 2.82257C30.976 3.24676 32.2282 3.87174 33.4136 4.60885C37.2606 7.00143 39.989 10.2602 41.7043 14.2939C42.4486 16.0441 42.9122 17.8621 43.0977 19.7431C43.1874 20.6515 43.2378 21.562 43.1572 22.4717C43.0615 23.5521 42.8325 24.6122 42.5224 25.6557C41.6018 28.7498 39.9758 31.4683 37.6586 33.8105C35.2361 36.2591 32.3404 38.0202 28.984 39.0837C27.9759 39.4031 26.9243 39.5613 25.869 39.6821C25.203 39.7582 24.5343 39.7921 23.9709 39.8138V39.8134Z" fill="#F8F2EA"/>
<path d="M23.8532 37.9965C21.1107 38.044 18.5528 37.6135 16.0999 36.6553C14.3402 35.9681 12.6961 35.0879 11.2652 33.8796C8.91277 31.8938 7.19267 29.4914 6.10898 26.676C5.63555 25.4467 5.31858 24.1804 5.14988 22.8817C4.98322 21.6018 4.93297 20.3163 5.11638 19.0367C5.3631 17.3161 5.89167 15.6699 6.68167 14.1037C8.2396 11.0149 10.5381 8.54699 13.5682 6.71556C15.5746 5.50306 17.7583 4.69576 20.0989 4.28666C21.2512 4.08503 22.4134 3.99026 23.584 4.00079C25.3977 4.01717 27.1791 4.25663 28.9012 4.8034C30.1005 5.18404 31.2173 5.74486 32.2744 6.40629C35.7052 8.55323 38.1385 11.4774 39.6683 15.097C40.332 16.6675 40.7454 18.2989 40.9108 19.9868C40.9909 20.8019 41.0358 21.6189 40.9639 22.4352C40.8786 23.4047 40.6743 24.3559 40.3978 25.2923C39.5768 28.0687 38.1267 30.5081 36.0602 32.6098C33.8997 34.8071 31.3173 36.3873 28.324 37.3416C27.425 37.6283 26.4871 37.7703 25.546 37.8787C24.952 37.9469 24.3557 37.9773 23.8532 37.9968V37.9965Z" fill="#181818"/>
<path d="M6.82814 8.30307C7.29579 7.63463 7.82481 7.01051 8.39001 6.41596C8.70376 6.08608 9.07705 5.81227 9.46134 5.51282C8.62956 6.50679 7.72633 7.40515 6.86707 8.34001C6.83318 8.3474 6.81531 8.34001 6.82814 8.30307Z" fill="#F8F2EA"/>
<path d="M36.1685 6.16603C37.1812 6.94878 38.1004 7.81975 38.9166 8.78765C38.9235 8.81938 38.9139 8.83546 38.8768 8.82372C38.0043 7.90928 37.0653 7.05743 36.1254 6.20645C36.119 6.17342 36.1309 6.15734 36.168 6.16603H36.1685Z" fill="#F8F2EA"/>
<path d="M44.4952 19.6618C44.6055 20.4745 44.6633 21.2894 44.5794 22.1074C44.5483 22.4142 44.4988 22.7193 44.4576 23.0253C44.3619 22.9827 44.4255 22.9127 44.4246 22.8536C44.4755 22.0939 44.5222 21.3342 44.4947 20.5723C44.4842 20.2807 44.4704 19.9891 44.4576 19.6974C44.4452 19.6622 44.4613 19.6535 44.4952 19.6614V19.6618Z" fill="#F8F2EA"/>
<path d="M25.4817 40.4349C25.0113 40.4927 24.5414 40.5522 24.0706 40.6078C23.6281 40.6604 23.1843 40.7043 22.7423 40.7626C22.6255 40.7782 22.5142 40.7608 22.4006 40.7582C22.3671 40.7573 22.3044 40.7856 22.3122 40.7139C22.3172 40.6682 22.3566 40.6504 22.4038 40.6474C22.5723 40.637 22.7404 40.6204 22.9095 40.6148C23.6693 40.5896 24.4237 40.507 25.1771 40.4153C25.2775 40.4031 25.3787 40.3879 25.4817 40.4344V40.4349Z" fill="#F8F2EA"/>
<path d="M14.5936 3.45924C15.5023 2.9755 16.4958 2.70343 17.4829 2.41615C17.5222 2.40355 17.5319 2.4205 17.525 2.4544C16.5494 2.77341 15.5779 3.10415 14.6316 3.49618C14.5941 3.50661 14.5849 3.4914 14.5936 3.45924Z" fill="#F8F2EA"/>
<path d="M35.1443 36.7854C35.9381 36.1257 36.7507 35.485 37.4862 34.7627C37.3085 35.0921 35.6441 36.5377 35.1443 36.7854Z" fill="#F8F2EA"/>
<path d="M38.6951 6.94653C39.0423 7.18862 40.3756 8.67414 40.5616 9.01184C39.891 8.36339 39.3638 7.59759 38.6951 6.94653Z" fill="#F8F2EA"/>
<path d="M35.2512 4.93617C34.7702 4.67105 34.2898 4.4055 33.8088 4.14038C34.3388 4.32422 34.8994 4.45635 35.2512 4.93617Z" fill="#F8F2EA"/>
<path d="M6.71839 9.40135C7.04771 8.95152 7.41963 8.53255 7.7888 8.11227C7.81445 8.08272 7.83644 8.01318 7.89736 8.05664C7.96469 8.10489 7.90514 8.14357 7.87125 8.18181C7.49979 8.60079 7.12833 9.02019 6.75732 9.4396C6.7248 9.44482 6.70648 9.43656 6.71885 9.40135H6.71839Z" fill="#F8F2EA"/>
<path d="M44.2183 24.6918C44.1226 25.2959 43.9742 25.8883 43.7731 26.4689C43.7621 26.4815 43.7506 26.482 43.7383 26.4702C43.899 25.8431 44.0626 25.2168 44.1784 24.5801C44.265 24.5936 44.216 24.6509 44.2183 24.6913V24.6918Z" fill="#F8F2EA"/>
<path d="M38.8774 8.82379C38.8907 8.81162 38.904 8.79989 38.9173 8.78772C39.3616 9.27189 39.7491 9.7956 40.1169 10.3332C40.1292 10.3671 40.1123 10.3728 40.0821 10.3658C39.7111 9.83037 39.2901 9.33012 38.8774 8.82379Z" fill="#F8F2EA"/>
<path d="M44.2184 24.6917C44.2006 24.6561 44.2262 24.6061 44.1786 24.5804C44.2606 24.005 44.3426 23.4296 44.4245 22.8541C44.4475 22.9093 44.4122 22.9745 44.4575 23.0258C44.3778 23.5812 44.2981 24.1363 44.2189 24.6917H44.2184Z" fill="#F8F2EA"/>
<path d="M43.5606 27.1259C43.4607 27.6044 43.2486 28.0468 43.0718 28.5006C43.0407 28.5805 43.0045 28.6588 42.9706 28.7379C42.9404 28.7418 42.9189 28.7387 42.939 28.7022C43.1447 28.1698 43.3609 27.6405 43.5322 27.0968C43.5459 27.092 43.5596 27.0876 43.5688 27.1028C43.5725 27.1089 43.5674 27.1176 43.561 27.1259H43.5606Z" fill="#F8F2EA"/>
<path d="M43.8749 15.559C44.044 16.0575 44.2066 16.5577 44.2235 17.0862C44.1072 16.5773 43.9913 16.0683 43.8749 15.559Z" fill="#F8F2EA"/>
<path d="M21.9156 1.53042C22.3113 1.49391 22.7052 1.4348 23.1028 1.4248C23.1046 1.44567 23.1069 1.46609 23.1087 1.48696C22.7235 1.5139 22.3383 1.54085 21.9527 1.56779C21.916 1.57692 21.9055 1.56258 21.9151 1.52998L21.9156 1.53042Z" fill="#F8F2EA"/>
<path d="M2.30465 20.9431V21.9701C2.28554 21.9701 2.26642 21.9693 2.24731 21.9688C2.16629 21.5994 2.30829 21.2369 2.30465 20.9431Z" fill="#F8F2EA"/>
<path d="M3.43246 14.6698C3.36009 14.8566 3.28589 15.0435 3.21581 15.2313C3.19749 15.2804 3.17551 15.3199 3.11505 15.2969C3.03718 15.2669 3.09627 15.2243 3.11367 15.1904C3.20299 15.0157 3.2946 14.8427 3.38574 14.6689C3.40177 14.6545 3.41735 14.655 3.43292 14.6702L3.43246 14.6698Z" fill="#F8F2EA"/>
<path d="M18.4997 1.8989C18.1479 1.98192 17.7966 2.06493 17.4448 2.14838C17.7622 1.98018 18.1122 1.92194 18.4621 1.86283C18.4978 1.85327 18.5084 1.86718 18.4997 1.89934V1.8989Z" fill="#F8F2EA"/>
<path d="M3.10162 26.3345C2.93307 26.012 2.88543 25.6574 2.83643 25.3027C2.92483 25.6465 3.01322 25.9907 3.10162 26.3345Z" fill="#F8F2EA"/>
<path d="M6.71811 9.40137C6.73094 9.41397 6.74376 9.42701 6.75659 9.43961C6.59582 9.64953 6.43505 9.85989 6.27428 10.0698C6.26054 10.0611 6.24726 10.0524 6.23352 10.0437C6.38879 9.82599 6.53628 9.60303 6.71811 9.40137Z" fill="#F8F2EA"/>
<path d="M9.64197 36.0192C9.85724 36.1813 10.0725 36.3434 10.2878 36.5055C9.95114 36.3582 9.74273 36.2004 9.64197 36.0192Z" fill="#F8F2EA"/>
<path d="M26.4021 1.22623C26.1575 1.20884 25.9125 1.19102 25.65 1.17234C25.9198 1.03847 26.1598 1.19581 26.4067 1.18364C26.4049 1.19754 26.4035 1.21189 26.4016 1.22579L26.4021 1.22623Z" fill="#F8F2EA"/>
<path d="M30.8894 2.96509C31.172 2.99942 31.4171 3.10243 31.6401 3.25715C31.39 3.1598 31.1395 3.06244 30.8894 2.96509Z" fill="#F8F2EA"/>
<path d="M17.5249 2.45449C17.5107 2.44189 17.497 2.42885 17.4828 2.41625C17.688 2.32671 17.9074 2.28803 18.1231 2.23718C18.1277 2.25109 18.1323 2.265 18.1369 2.27891C17.9326 2.33758 17.7287 2.39582 17.5245 2.45449H17.5249Z" fill="#F8F2EA"/>
<path d="M27.6433 40.268C27.8178 40.2189 27.9923 40.1694 28.1668 40.1202C28.0628 40.2915 27.8714 40.2524 27.7189 40.3054C27.6813 40.3149 27.6387 40.3345 27.6433 40.268Z" fill="#F8F2EA"/>
<path d="M24.2643 41.0021C24.5441 40.9973 24.8203 40.9221 25.1029 40.9725C24.8231 40.9773 24.5478 41.0638 24.2643 41.0021Z" fill="#F8F2EA"/>
<path d="M9.0127 34.9678C9.17163 35.1095 9.33102 35.2516 9.48996 35.3933C9.47988 35.4033 9.46935 35.4137 9.45927 35.4237C9.28339 35.2981 9.12949 35.1512 9.0127 34.9678Z" fill="#F8F2EA"/>
<path d="M9.97081 35.8388C9.8018 35.7288 9.64882 35.6024 9.51965 35.4507C9.69645 35.5511 9.85081 35.6771 9.99646 35.8136C10.0001 35.8327 9.99142 35.8414 9.97081 35.8388Z" fill="#F8F2EA"/>
<path d="M4.02554 29.1996C3.91379 29.0262 3.8405 28.8389 3.81165 28.6342C3.89226 28.815 3.97287 28.9962 4.05348 29.177C4.05348 29.1948 4.04432 29.2022 4.026 29.2L4.02554 29.1996Z" fill="#F8F2EA"/>
<path d="M36.1686 6.16606C36.1544 6.17954 36.1402 6.19301 36.126 6.20648C36.0165 6.11173 35.907 6.01699 35.798 5.92224C35.9496 5.96961 36.0664 6.05871 36.169 6.16606H36.1686Z" fill="#F8F2EA"/>
<path d="M40.082 10.3658C40.0934 10.355 40.1053 10.3441 40.1168 10.3333C40.2363 10.4593 40.3183 10.6062 40.3756 10.7696C40.2775 10.6349 40.18 10.5001 40.082 10.3658Z" fill="#F8F2EA"/>
<path d="M18.4997 1.89899C18.4874 1.88682 18.4745 1.87465 18.4622 1.86248C18.6394 1.80685 18.8194 1.76426 19.0072 1.76208C19.0113 1.76643 19.015 1.77121 19.0191 1.77556C18.8529 1.84336 18.6742 1.86248 18.4997 1.89856V1.89899Z" fill="#F8F2EA"/>
<path d="M12.6255 37.5776C12.7565 37.6502 12.8879 37.7228 13.0189 37.7949C12.86 37.7706 12.7263 37.7002 12.6255 37.5776Z" fill="#F8F2EA"/>
<path d="M27.6432 40.2679C27.6523 40.3097 27.6936 40.2927 27.7187 40.3053C27.5621 40.3401 27.4059 40.3753 27.2493 40.4101C27.3693 40.3275 27.5048 40.2936 27.6432 40.2679Z" fill="#F8F2EA"/>
<path d="M44.4946 19.6618C44.4823 19.674 44.47 19.6857 44.4573 19.6979C44.409 19.5714 44.4222 19.4423 44.455 19.3115L44.4946 19.6618Z" fill="#F8F2EA"/>
<path d="M10.5283 36.2538C10.4074 36.1856 10.2924 36.1099 10.1962 36.0117C10.1953 35.9948 10.2045 35.9887 10.2214 35.9926C10.3414 36.0421 10.4266 36.1356 10.5274 36.2095C10.5434 36.2238 10.5439 36.2386 10.5283 36.2538Z" fill="#F8F2EA"/>
<path d="M14.5935 3.4593C14.6063 3.47147 14.6187 3.48407 14.6315 3.49624C14.5349 3.56013 14.4277 3.60011 14.3109 3.6175C14.3938 3.54492 14.4873 3.49189 14.5931 3.45886L14.5935 3.4593Z" fill="#F8F2EA"/>
<path d="M21.9156 1.5304C21.9279 1.543 21.9408 1.5556 21.9531 1.56821C21.8327 1.62645 21.7072 1.5982 21.5798 1.57125C21.6916 1.55778 21.8038 1.54387 21.9156 1.5304Z" fill="#F8F2EA"/>
<path d="M3.43201 14.6698C3.41654 14.6698 3.40061 14.6689 3.38513 14.6685C3.4311 14.5716 3.47707 14.4747 3.52304 14.3782C3.51985 14.486 3.50164 14.5868 3.43201 14.6698Z" fill="#F8F2EA"/>
<path d="M4.20361 12.7995C4.25903 12.6922 4.31446 12.5844 4.36988 12.4771C4.38362 12.4831 4.39782 12.4892 4.41156 12.4953C4.35888 12.604 4.32591 12.7213 4.20361 12.7995Z" fill="#F8F2EA"/>
<path d="M43.2386 16.0094C43.2118 15.9068 43.1849 15.8042 43.1581 15.7017C43.2368 15.7777 43.2705 15.8681 43.2719 15.969C43.2892 16.0037 43.2719 16.0128 43.2382 16.0094H43.2386Z" fill="#F8F2EA"/>
<path d="M42.9387 28.7023C42.9492 28.714 42.9597 28.7262 42.9703 28.7379C42.9364 28.8287 42.8984 28.9174 42.8068 29.0139C42.8407 28.8852 42.8814 28.7909 42.9387 28.7023Z" fill="#F8F2EA"/>
<path d="M6.82816 8.3031C6.84098 8.31527 6.85427 8.32787 6.86709 8.34004C6.82358 8.43392 6.7448 8.50042 6.66418 8.56735C6.6967 8.46652 6.74892 8.37742 6.82816 8.3031Z" fill="#F8F2EA"/>
<path d="M4.0527 29.177C4.11004 29.2726 4.1642 29.3687 4.17604 29.4825C4.10686 29.3974 4.05042 29.3065 4.02539 29.2C4.03449 29.1922 4.0436 29.1848 4.0527 29.177Z" fill="#F8F2EA"/>
<path d="M10.5281 36.2538C10.5281 36.239 10.5277 36.2242 10.5272 36.2095C10.6179 36.259 10.7008 36.3177 10.7636 36.402C10.6761 36.3659 10.5881 36.3312 10.5281 36.2542V36.2538Z" fill="#F8F2EA"/>
<path d="M42.9466 14.8724C42.8765 14.799 42.8242 14.7194 42.8429 14.5817C42.8861 14.7029 42.9166 14.7877 42.9466 14.8724Z" fill="#F8F2EA"/>
<path d="M43.2392 16.0093C43.2506 15.9958 43.2615 15.9823 43.2729 15.9689C43.3184 16.0497 43.3316 16.1371 43.3175 16.2309C43.2915 16.1571 43.2651 16.0832 43.2392 16.0093Z" fill="#F8F2EA"/>
<path d="M43.738 26.4702C43.7498 26.475 43.7612 26.4741 43.7726 26.4689C43.7467 26.548 43.7207 26.6275 43.6793 26.754C43.6647 26.6171 43.6884 26.541 43.738 26.4706V26.4702Z" fill="#F8F2EA"/>
<path d="M19.0071 1.76256C19.1023 1.71693 19.2022 1.69694 19.3465 1.71302C19.2132 1.73866 19.122 1.78256 19.019 1.77604C19.0149 1.77169 19.0112 1.76691 19.0071 1.76256Z" fill="#F8F2EA"/>
<path d="M10.1962 36.0118C10.1211 35.954 10.0459 35.8966 9.97083 35.8388C9.97953 35.8305 9.98777 35.8219 9.99647 35.8136C10.0821 35.8614 10.1577 35.9205 10.2214 35.9927C10.2104 35.9957 10.2021 36.0022 10.1962 36.0118Z" fill="#F8F2EA"/>
<path d="M43.5606 27.126C43.551 27.1164 43.5415 27.1064 43.5319 27.0969C43.5547 27.0212 43.5774 26.9456 43.6002 26.87C43.6125 26.9604 43.6161 27.0486 43.5601 27.126H43.5606Z" fill="#F8F2EA"/>
<path d="M22.5173 15.4092C22.3743 15.5577 22.245 15.7055 22.0979 15.8423C21.7861 16.1392 21.4811 16.4432 21.119 16.685C21.0602 16.7256 20.9978 16.7612 20.9324 16.7913C20.7159 16.8853 20.5022 16.91 20.3082 16.744C20.0998 16.5657 20.0535 16.355 20.1577 16.0957C20.3374 15.642 20.6438 15.2666 20.9665 14.901C21.4212 14.3856 21.9488 13.9383 22.4458 13.4631C22.5819 13.3335 22.5819 13.3335 22.4512 13.2038C21.7779 12.5303 21.1721 11.8075 20.7023 10.9881C20.5662 10.7665 20.4865 10.5176 20.4695 10.2614C20.4583 10.0998 20.5118 9.9402 20.6193 9.81473C20.666 9.74921 20.7315 9.69787 20.8081 9.66684C20.8846 9.6358 20.9689 9.62638 21.0509 9.63969C21.4532 9.70452 21.7732 9.91585 22.055 10.1816C22.3797 10.4902 22.6235 10.8584 22.889 11.2085C23.0986 11.4814 23.3335 11.7342 23.5588 11.9955C23.6147 12.0603 23.6412 12.0415 23.6882 11.989C24.1429 11.4866 24.612 10.9972 25.1083 10.5324C25.4718 10.192 25.8401 9.85621 26.3112 9.64747C26.4253 9.59352 26.5454 9.55199 26.6693 9.52366C26.8735 9.48087 27.0179 9.54959 27.1343 9.71425C27.3433 10.0092 27.3017 10.3061 27.1547 10.603C26.9505 11.0198 26.64 11.3693 26.3146 11.7051C25.8381 12.1932 25.3486 12.671 24.8584 13.1474C24.7747 13.2285 24.7774 13.2771 24.8435 13.362C25.2955 13.9455 25.7462 14.525 26.19 15.1123C26.4287 15.4122 26.6236 15.7415 26.7694 16.0912C26.833 16.2498 26.8631 16.4187 26.8579 16.5884C26.8516 16.7104 26.8023 16.8268 26.7179 16.9188C26.6335 17.0108 26.519 17.073 26.3929 17.0954C26.2799 17.1129 26.1921 17.0519 26.1022 17.0033C25.7673 16.8224 25.5167 16.5534 25.2771 16.274C25.0763 16.0387 24.8823 15.7982 24.6835 15.5609C24.6509 15.507 24.6039 15.4623 24.5473 15.4313C24.5371 15.6802 24.5126 15.9201 24.5201 16.1586C24.5364 16.6908 24.5528 17.2237 24.5548 17.7566C24.5575 18.7406 24.5591 19.7245 24.5596 20.7081C24.557 20.7226 24.5576 20.7375 24.5615 20.7517C24.5654 20.766 24.5725 20.7792 24.5822 20.7907C24.5919 20.8021 24.6041 20.8114 24.618 20.8179C24.6318 20.8245 24.6469 20.8282 24.6624 20.8287C26.0495 21.1189 27.3232 21.7741 28.3386 22.7197C29.7518 24.0162 30.6069 25.5876 30.6804 27.4682C30.7859 30.1559 29.5476 32.1875 27.152 33.5703C25.6978 34.4098 24.0885 34.6626 22.4097 34.4986C21.0339 34.3644 19.7492 33.9605 18.5974 33.2202C16.8274 32.0812 15.698 30.528 15.3691 28.4983C15.152 27.1596 15.4134 25.8826 16.0377 24.6735C16.777 23.2402 17.9234 22.1816 19.3993 21.4445C20.3108 20.9935 21.3105 20.7268 22.3355 20.6614C22.4451 20.6537 22.4778 20.6245 22.4805 20.5169C22.5009 19.8168 22.5397 19.116 22.554 18.4152C22.5738 17.45 22.5921 16.484 22.5452 15.5181C22.5512 15.4798 22.5412 15.4406 22.5173 15.4092ZM22.7215 14.9853C22.7542 15.0054 22.746 15.0287 22.7453 15.0501C22.7331 15.3664 22.7188 15.6821 22.7092 15.9978C22.6738 17.1278 22.6412 18.2577 22.6051 19.387C22.5881 19.9412 22.5649 20.4948 22.5459 21.0491C22.5459 21.1217 22.5322 21.1587 22.4335 21.1651C22.1841 21.1819 21.9358 21.2107 21.6894 21.2514C20.5498 21.4361 19.4797 21.8043 18.5429 22.4558C16.3944 23.9468 15.4651 25.9629 15.8641 28.4724C16.1364 30.1702 17.0799 31.5328 18.4721 32.5947C20.1012 33.8367 21.9754 34.3586 24.0585 34.1304C25.9286 33.9255 27.4958 33.1476 28.715 31.7804C30.6443 29.6172 30.8418 26.3026 28.9635 23.9579C27.8062 22.5161 26.271 21.6643 24.4255 21.289C24.3234 21.2682 24.2927 21.2371 24.2961 21.1405C24.3138 20.6556 24.3342 20.1681 24.3356 19.6858C24.3404 18.1384 24.3356 16.591 24.3356 15.0436C24.3356 15.0002 24.3152 14.9522 24.354 14.8997C24.6372 15.2763 24.9374 15.629 25.239 15.9797C25.4364 16.2066 25.6277 16.438 25.8687 16.628C25.9897 16.7279 26.1366 16.7951 26.2942 16.8224C26.589 16.8698 26.7748 16.6889 26.7101 16.4147C26.6906 16.3303 26.6623 16.248 26.6257 16.169C26.4365 15.7606 26.1492 15.4144 25.8646 15.0637C25.4262 14.5166 24.9796 13.9727 24.5412 13.4268C24.5085 13.3866 24.4554 13.3555 24.5221 13.2888C24.9592 12.8479 25.3908 12.4026 25.8251 11.9592C26.2159 11.5605 26.6216 11.1748 26.9307 10.7093C27.0304 10.5635 27.0781 10.391 27.0669 10.2173C27.0478 9.86983 26.7619 9.69869 26.4256 9.83936C26.3431 9.86943 26.2659 9.91141 26.1968 9.96383C25.9667 10.1592 25.7371 10.3556 25.5079 10.5531C25.4133 10.6341 25.32 10.7165 25.2322 10.804C24.7345 11.2986 24.3002 11.8412 23.8284 12.3598C23.7488 12.4467 23.7161 12.4454 23.6405 12.3598C23.3771 12.0661 23.1517 11.7453 22.9012 11.4438C22.5486 11.0257 22.1844 10.6121 21.8297 10.1953C21.7174 10.0656 21.6043 9.93141 21.4369 9.8627C21.0883 9.71943 20.7023 9.79787 20.6247 10.2218C20.575 10.4948 20.7044 10.708 20.85 10.9083C21.4437 11.7232 22.1102 12.4849 22.7651 13.2551C22.8073 13.305 22.827 13.3322 22.7651 13.3899C22.1274 14.014 21.5202 14.6642 20.9433 15.3405C20.7283 15.5926 20.5326 15.859 20.3579 16.1379C20.2523 16.3058 20.2619 16.462 20.3742 16.5981C20.479 16.7213 20.6424 16.7576 20.8344 16.6941C20.9023 16.6702 20.9676 16.6398 21.0291 16.6033C21.3402 16.4244 21.5887 16.1774 21.8297 15.9233C22.1274 15.6104 22.4249 15.2969 22.7222 14.9827L22.7215 14.9853Z" fill="#F8F2EA"/>
<path d="M30.7178 17.1103C30.6273 17.1126 30.5376 17.0922 30.4579 17.0511C30.3782 17.0101 30.3112 16.9498 30.2636 16.8764C30.2161 16.8029 30.1896 16.7189 30.1869 16.6326C30.1842 16.5463 30.2053 16.4609 30.2481 16.3849C30.4408 16.0219 30.8513 15.9097 31.1515 16.1379C31.2004 16.1735 31.241 16.2184 31.2708 16.2697C31.3005 16.3211 31.3188 16.3777 31.3244 16.4361C31.3358 16.5191 31.3287 16.6035 31.3036 16.6837C31.2786 16.764 31.236 16.8383 31.1788 16.9019C31.1216 16.9654 31.051 17.0168 30.9716 17.0528C30.8922 17.0887 30.8057 17.1083 30.7178 17.1103ZM30.9405 16.5917C30.9405 16.4387 30.886 16.3849 30.7185 16.3816C30.5293 16.3784 30.3938 16.4847 30.3897 16.6409C30.3872 16.6756 30.3924 16.7104 30.4049 16.7431C30.4174 16.7758 30.4369 16.8056 30.4623 16.8306C30.4876 16.8557 30.5181 16.8754 30.552 16.8885C30.5858 16.9016 30.6221 16.9078 30.6586 16.9067C30.8288 16.9048 30.935 16.7862 30.9377 16.5891L30.9405 16.5917ZM30.7362 16.2423C31.0344 16.2669 31.0998 16.4529 31.0766 16.6993C31.2046 16.3888 31.065 16.206 30.7315 16.2397L30.7362 16.2423Z" fill="#181818"/>
<path d="M13.9973 21.2734C13.7502 21.2734 13.5889 21.132 13.5596 20.9C13.5287 20.738 13.555 20.5709 13.6345 20.4248C13.6734 20.3514 13.7338 20.2903 13.8083 20.2489C13.8828 20.2074 13.9683 20.1872 14.0546 20.1908C14.1408 20.1945 14.2241 20.2217 14.2945 20.2693C14.3649 20.3169 14.4194 20.3828 14.4514 20.4591C14.5876 20.7664 14.48 21.1165 14.2084 21.2332C14.142 21.2611 14.0699 21.2749 13.9973 21.2734ZM14.2935 20.5849L14.288 20.5797V20.5849C14.3057 20.4676 14.2131 20.4287 14.128 20.3969C14.0007 20.3489 13.8884 20.3937 13.7604 20.5512C13.9708 20.4501 14.1464 20.4215 14.2935 20.5849ZM13.8265 20.8267C13.8421 20.8974 13.8339 21.0037 13.9626 21.0102C14.0913 21.0166 14.2349 20.9 14.2349 20.7917C14.2304 20.7423 14.2063 20.6964 14.1674 20.6634C14.1286 20.6304 14.078 20.6127 14.0259 20.6141C13.9978 20.6146 13.9701 20.6206 13.9446 20.6318C13.9191 20.6429 13.8962 20.659 13.8775 20.679C13.8588 20.6989 13.8446 20.7223 13.8358 20.7478C13.827 20.7732 13.8238 20.8001 13.8265 20.8267Z" fill="#181818"/>
<path d="M17.0813 18.5585C17.0813 18.5042 17.093 18.4504 17.1155 18.4005C17.138 18.3506 17.171 18.3056 17.2124 18.2682C17.2538 18.2309 17.3028 18.2019 17.3563 18.1832C17.4099 18.1644 17.4669 18.1562 17.5238 18.1591C17.7492 18.163 17.9813 18.4022 17.982 18.6311C17.9827 18.8599 17.7859 19.0849 17.5851 19.0849C17.3427 19.0881 17.0786 18.8106 17.0813 18.5585ZM17.5715 18.5144C17.4523 18.5144 17.3073 18.6201 17.3244 18.6966C17.3529 18.8197 17.4789 18.7964 17.5694 18.8158C17.6375 18.8307 17.7444 18.7199 17.7342 18.644C17.7212 18.5487 17.6409 18.5274 17.5715 18.5144ZM17.6545 18.3847C17.6093 18.3409 17.5484 18.3148 17.4839 18.3118C17.4194 18.3088 17.3562 18.3291 17.3067 18.3685C17.195 18.4418 17.1787 18.5073 17.2386 18.6531C17.3067 18.4593 17.4469 18.3789 17.6545 18.3821V18.3847Z" fill="#181818"/>
<path d="M29.4325 13.8709C29.4826 13.8687 29.5326 13.8762 29.5796 13.8929C29.6265 13.9096 29.6694 13.9352 29.7057 13.9682C29.7419 14.0012 29.7708 14.0408 29.7906 14.0847C29.8103 14.1285 29.8205 14.1758 29.8205 14.2235C29.8205 14.4472 29.6422 14.6345 29.4332 14.6345C29.2569 14.6345 29.0594 14.429 29.0608 14.2456C29.0622 14.0161 29.2058 13.8709 29.4325 13.8709ZM29.4863 14.0815C29.4182 14.0815 29.3025 14.1723 29.3066 14.2417C29.3061 14.2614 29.31 14.2809 29.318 14.2991C29.3259 14.3173 29.3378 14.3338 29.3528 14.3474C29.3677 14.361 29.3855 14.3714 29.405 14.3781C29.4245 14.3848 29.4452 14.3876 29.4659 14.3862C29.5097 14.3851 29.5515 14.3681 29.5827 14.3388C29.614 14.3094 29.6323 14.2698 29.634 14.228C29.6469 14.1392 29.5823 14.0965 29.4863 14.0815Z" fill="#181818"/>
<path d="M32.4824 26.6831C32.5292 26.6799 32.5762 26.6856 32.6205 26.7C32.6649 26.7144 32.7058 26.7372 32.7407 26.7669C32.7757 26.7967 32.804 26.8329 32.8239 26.8733C32.8439 26.9137 32.8551 26.9575 32.8569 27.0021C32.8597 27.0918 32.8258 27.179 32.7622 27.2453C32.6987 27.3117 32.6106 27.3518 32.5165 27.3573C32.2762 27.3573 32.0808 27.2095 32.0774 27.0189C32.074 26.8283 32.2428 26.689 32.4824 26.6831ZM32.5056 26.8893C32.4191 26.8977 32.3116 26.8893 32.3157 26.9949C32.3197 27.1006 32.4144 27.1434 32.5199 27.1505C32.6254 27.1577 32.656 27.1039 32.6642 27.017C32.6703 26.9022 32.5818 26.9003 32.5056 26.8893Z" fill="#181818"/>
<path d="M13.045 17.4448C13.045 17.2782 13.2342 17.1207 13.4248 17.1265C13.4975 17.1335 13.5648 17.1662 13.6133 17.2182C13.6619 17.2702 13.6881 17.3376 13.6869 17.4072C13.6869 17.5965 13.5269 17.7832 13.3676 17.7838C13.2083 17.7845 13.0422 17.6172 13.045 17.4448ZM13.5623 17.4325C13.5623 17.3359 13.5188 17.2853 13.4303 17.2821C13.4053 17.2822 13.3805 17.2872 13.3577 17.2968C13.3348 17.3064 13.3142 17.3204 13.2973 17.338C13.2804 17.3555 13.2674 17.3762 13.2593 17.3987C13.2511 17.4212 13.2479 17.445 13.2499 17.4688C13.2499 17.5472 13.2887 17.6043 13.3765 17.612C13.45 17.6185 13.5623 17.4973 13.5623 17.4325Z" fill="#181818"/>
<path d="M32.6587 24.5011C32.5793 24.4967 32.5041 24.466 32.446 24.4142C32.3879 24.3625 32.3507 24.293 32.3408 24.2178C32.3327 24.0797 32.4879 23.9475 32.6601 23.9456C32.7325 23.9496 32.8012 23.9773 32.8546 24.0239C32.9081 24.0706 32.943 24.1333 32.9535 24.2016C32.9515 24.2773 32.9204 24.3496 32.866 24.4048C32.8117 24.46 32.7379 24.4943 32.6587 24.5011ZM32.6628 24.1122C32.6206 24.1284 32.5668 24.1478 32.5791 24.1958C32.5858 24.226 32.6028 24.2532 32.6274 24.2732C32.652 24.2933 32.6829 24.305 32.7152 24.3066C32.7711 24.3066 32.7833 24.2489 32.7833 24.2107C32.7929 24.131 32.7112 24.1394 32.6628 24.1122Z" fill="#181818"/>
<path d="M31.0732 11.8075C31.1513 11.8078 31.226 11.8375 31.2812 11.8901C31.3364 11.9427 31.3676 12.0139 31.368 12.0882C31.3734 12.249 31.223 12.4246 31.0759 12.4292C31.0048 12.4289 30.9365 12.4027 30.885 12.3559C30.8336 12.3091 30.803 12.2453 30.7995 12.1777C30.7961 11.967 30.9125 11.8094 31.0732 11.8075ZM30.9438 12.1226C30.954 12.1874 30.9677 12.2639 31.0657 12.2729C31.1399 12.2801 31.2543 12.1595 31.2509 12.0785C31.2475 11.9773 31.159 11.9702 31.0861 11.9657C30.9833 11.9592 30.9466 12.0253 30.9438 12.1226Z" fill="#181818"/>
<path d="M22.7222 14.9827C22.4258 15.296 22.1294 15.6096 21.8331 15.9233C21.5921 16.1774 21.3436 16.4244 21.0325 16.6033C20.971 16.6398 20.9057 16.6702 20.8378 16.6941C20.6458 16.7589 20.4824 16.7213 20.3776 16.5982C20.2653 16.4653 20.2557 16.3058 20.3612 16.1379C20.536 15.8591 20.7317 15.5926 20.9467 15.3405C21.5249 14.665 22.1322 14.0148 22.7685 13.3899C22.827 13.3322 22.8073 13.305 22.7685 13.2551C22.1136 12.4849 21.4471 11.7232 20.8534 10.9084C20.7078 10.708 20.5811 10.4948 20.6281 10.2219C20.7057 9.79659 21.0917 9.71945 21.4403 9.86272C21.6077 9.93143 21.7208 10.0624 21.8331 10.1953C22.1844 10.6121 22.5486 11.0257 22.9012 11.4477C23.1517 11.7492 23.3778 12.07 23.6405 12.3637C23.7161 12.448 23.7488 12.4493 23.8284 12.3637C24.3002 11.8451 24.7345 11.3012 25.2322 10.8079C25.32 10.7204 25.4133 10.638 25.5079 10.557C25.7348 10.3591 25.9645 10.1626 26.1968 9.96773C26.2663 9.91182 26.3447 9.86675 26.429 9.83419C26.7653 9.69676 27.0512 9.86466 27.0703 10.2121C27.0815 10.3858 27.0338 10.5583 26.9341 10.7042C26.625 11.1696 26.2193 11.5553 25.8285 11.954C25.3942 12.3974 24.9626 12.8428 24.5255 13.2836C24.4575 13.3484 24.5119 13.3815 24.5446 13.4217C24.9857 13.9675 25.4296 14.5114 25.868 15.0585C26.1499 15.4092 26.4399 15.7554 26.6291 16.1638C26.6657 16.2429 26.694 16.3252 26.7135 16.4095C26.7782 16.6837 26.5924 16.8633 26.2976 16.8173C26.14 16.7899 25.9931 16.7227 25.8721 16.6228C25.6311 16.4341 25.4398 16.2027 25.2424 15.9745C24.9394 15.6238 24.6392 15.2712 24.3574 14.8945C24.3186 14.947 24.339 14.995 24.339 15.0384C24.339 16.5858 24.339 18.1332 24.339 19.6806C24.339 20.1655 24.3172 20.653 24.2995 21.1353C24.2961 21.2319 24.3268 21.265 24.4289 21.2838C26.2744 21.6591 27.8116 22.511 28.9669 23.9527C30.8452 26.2975 30.6477 29.612 28.7184 31.7753C27.4992 33.1425 25.932 33.9204 24.0619 34.1252C21.9788 34.3534 20.1046 33.8316 18.4755 32.5895C17.0833 31.5276 16.1384 30.165 15.8675 28.4672C15.4685 25.9578 16.3978 23.9436 18.5463 22.4507C19.483 21.7992 20.5532 21.431 21.6928 21.2462C21.9392 21.2055 22.1875 21.1767 22.4369 21.16C22.5356 21.1535 22.5465 21.1165 22.5493 21.0439C22.5683 20.4897 22.5915 19.9361 22.6085 19.3818C22.6446 18.2525 22.6766 17.1226 22.7126 15.9927C22.7222 15.677 22.7365 15.3613 22.7487 15.0449C22.7467 15.0261 22.7528 15.0028 22.7222 14.9827ZM21.8637 14.6683C21.8601 14.668 21.8565 14.6684 21.8531 14.6695C21.8497 14.6706 21.8466 14.6723 21.8438 14.6745C21.8411 14.6767 21.8389 14.6794 21.8373 14.6825C21.8357 14.6855 21.8347 14.6889 21.8344 14.6923L21.8195 14.7188L21.8453 14.7039L21.8644 14.6689C21.8828 14.6689 21.8903 14.6592 21.8916 14.643L21.9093 14.63L21.8957 14.6216C21.8957 14.6287 21.8957 14.6352 21.8909 14.6424C21.8678 14.6404 21.8678 14.6521 21.8637 14.6683ZM21.6595 15.8488C21.6636 15.8715 21.6459 15.874 21.6295 15.8779C21.6299 15.8815 21.6295 15.8851 21.6283 15.8885C21.6271 15.8919 21.6251 15.895 21.6225 15.8976C21.6199 15.9002 21.6168 15.9022 21.6133 15.9035C21.6098 15.9048 21.606 15.9054 21.6023 15.9052C21.6023 15.9227 21.5921 15.9298 21.5744 15.9285C21.5826 15.9577 21.5261 15.9661 21.5499 16.0011C21.5792 15.9823 21.6241 15.97 21.5744 15.9279C21.5839 15.933 21.5955 15.9441 21.6009 15.9415C21.6241 15.9317 21.6111 15.9175 21.6009 15.9052C21.6146 15.9129 21.6309 15.9246 21.6418 15.9052C21.6418 15.8993 21.6329 15.8877 21.6282 15.8786C21.637 15.8825 21.6493 15.8916 21.6547 15.889C21.6724 15.8786 21.6649 15.863 21.6547 15.8494L21.6745 15.8643L21.6799 15.8533L21.6595 15.8488ZM18.2754 31.6955L18.2992 31.6832C18.2992 31.6832 18.2944 31.6832 18.2931 31.6832L18.2754 31.6975C18.2822 31.678 18.3033 31.6527 18.2563 31.6566C18.2828 31.6378 18.2563 31.6281 18.2481 31.6158C18.1719 31.5108 18.0521 31.4388 17.9942 31.3202L17.9425 31.3267C17.9506 31.3345 17.9574 31.3481 17.967 31.3494C17.9908 31.3533 17.9922 31.3345 17.9928 31.3176C17.9629 31.3241 17.9615 31.3409 17.9745 31.363C18.0384 31.4699 18.1031 31.5763 18.2277 31.632C18.2278 31.6355 18.2287 31.639 18.2304 31.6421C18.2321 31.6452 18.2345 31.648 18.2374 31.6501C18.2404 31.6522 18.2438 31.6536 18.2474 31.6543C18.251 31.655 18.2548 31.6549 18.2583 31.654C18.2645 31.667 18.2699 31.6806 18.2754 31.6955ZM21.2803 16.2073L21.2857 16.2449L21.3034 16.2319C21.2959 16.2235 21.2885 16.2144 21.281 16.2066L21.3007 16.2358L21.3171 16.2209L21.2803 16.2073ZM18.7614 31.033C18.7499 31.0298 18.7322 31.0194 18.7288 31.0226C18.7117 31.0401 18.7288 31.0525 18.7403 31.0635L18.7669 31.0907C18.7955 31.1283 18.8145 31.1756 18.8704 31.1866L18.9548 31.2761L18.9813 31.3014C19.2532 31.5822 19.5594 31.831 19.8936 32.0424C21.4593 33.0348 23.1477 33.3045 24.9252 32.7107C26.5386 32.172 27.6523 31.0933 28.2351 29.5589C28.9029 27.8014 28.7171 26.1049 27.6476 24.5368C26.2826 22.5343 23.661 21.6442 21.2571 22.321C20.5437 22.5197 19.8841 22.8634 19.3237 23.3284C19.2765 23.3499 19.2355 23.3822 19.2046 23.4224C19.1917 23.4334 19.1631 23.4406 19.1937 23.4626C19.159 23.4302 19.1467 23.4736 19.1256 23.4814L19.1073 23.5119C19.0882 23.5119 19.0787 23.519 19.0807 23.5385C18.9834 23.5819 18.9806 23.7206 18.8588 23.7401C18.8669 23.7764 18.8397 23.788 18.8132 23.7997L18.7989 23.8146L18.7907 23.7984L18.8111 23.8023C18.8105 23.7878 18.815 23.7736 18.8239 23.7618C18.8328 23.7501 18.8455 23.7415 18.8601 23.7375L19.078 23.5359C19.1032 23.5592 19.1093 23.5359 19.1202 23.5216C19.1311 23.5073 19.1631 23.4931 19.1202 23.4795C19.1583 23.5242 19.1719 23.4834 19.1883 23.4607C19.1919 23.4614 19.1957 23.4612 19.1993 23.4603C19.2029 23.4594 19.2062 23.4578 19.2091 23.4555C19.2119 23.4532 19.2141 23.4503 19.2156 23.447C19.217 23.4437 19.2177 23.4402 19.2175 23.4367L19.3414 23.3466C20.3185 22.592 21.5412 22.1854 22.7991 22.1966C23.9452 22.1878 25.0628 22.5361 25.9817 23.1884C26.2125 23.3498 26.444 23.5125 26.6264 23.7252C26.6536 23.7576 26.6863 23.7958 26.6434 23.8405C26.5924 23.895 26.5583 23.8405 26.5311 23.8166C26.3983 23.7122 26.2751 23.5949 26.1397 23.4924C25.0014 22.6432 23.7113 22.3158 22.2858 22.5259C20.637 22.769 19.3374 23.5631 18.3788 24.8596C18.0153 25.3516 17.711 25.889 17.6109 26.4803C17.2821 28.4251 17.9384 30.0554 19.53 31.2858C21.0958 32.4948 22.8856 32.7872 24.819 32.2018C24.8882 32.1804 24.9586 32.1628 25.03 32.1493C25.0519 32.1428 25.0753 32.1425 25.0974 32.1483C25.1195 32.1542 25.1394 32.166 25.1546 32.1824C25.1913 32.2278 25.1546 32.2641 25.1335 32.301C25.0804 32.4002 24.9762 32.4268 24.8782 32.4592C23.1762 33.0173 21.5499 32.8592 19.9964 31.9996C19.641 31.7904 19.3069 31.5502 18.9983 31.2819C18.9983 31.2785 18.9976 31.275 18.9961 31.2718C18.9947 31.2686 18.9925 31.2657 18.9899 31.2633C18.9872 31.261 18.984 31.2591 18.9805 31.258C18.9771 31.2568 18.9734 31.2564 18.9697 31.2567L18.8874 31.1659C18.8652 31.1234 18.8322 31.0868 18.7914 31.0596L18.7614 31.033ZM18.532 24.0823L18.5075 24.1109C18.5018 24.1122 18.4965 24.1147 18.4919 24.1182C18.4873 24.1217 18.4836 24.1261 18.481 24.1311C18.4784 24.1361 18.477 24.1416 18.4769 24.1472C18.4768 24.1527 18.4779 24.1583 18.4803 24.1634C18.4408 24.1588 18.4326 24.1867 18.4251 24.2139L18.4088 24.2301L18.421 24.2353V24.2126C18.4598 24.2126 18.4714 24.1919 18.4769 24.1621C18.4827 24.1609 18.4882 24.1585 18.4929 24.155C18.4976 24.1514 18.5014 24.1469 18.504 24.1418C18.5066 24.1366 18.5079 24.131 18.5078 24.1253C18.5077 24.1196 18.5062 24.114 18.5034 24.1089C18.5232 24.1161 18.5313 24.105 18.5381 24.0901L18.5518 24.0674L18.532 24.0823ZM21.4069 16.1541C21.3967 16.1541 21.3817 16.1463 21.3763 16.1509C21.3572 16.1671 21.3763 16.1761 21.3879 16.1859C21.3838 16.1684 21.3749 16.1573 21.3552 16.1671C21.3518 16.1671 21.3552 16.1794 21.3511 16.1859C21.362 16.1859 21.3722 16.1859 21.3817 16.182L21.4021 16.1515L21.4233 16.1262C21.4158 16.1262 21.4056 16.1223 21.4015 16.1262C21.3974 16.1301 21.3947 16.1457 21.4042 16.1541H21.4069ZM21.9597 14.5749L21.9863 14.5477C21.9981 14.5418 22.0085 14.5335 22.0167 14.5234C22.0249 14.5134 22.0308 14.5018 22.0339 14.4894C22.04 14.4816 22.053 14.4686 22.0516 14.4667C22.0353 14.4459 22.0285 14.4667 22.0189 14.4751C22.0068 14.481 21.9962 14.4893 21.9879 14.4995C21.9795 14.5097 21.9736 14.5215 21.9706 14.5341L21.9468 14.5633L21.9338 14.586L21.9597 14.5749ZM22.0959 14.4213L22.104 14.3902L22.0768 14.4025C22.0632 14.4122 22.0509 14.4232 22.0686 14.4375C22.072 14.4369 22.0856 14.4271 22.0952 14.4213H22.0959ZM17.7055 24.4428L17.6776 24.4946C17.6545 24.5102 17.6334 24.5407 17.6552 24.5536C17.6899 24.5744 17.6858 24.5283 17.6994 24.5121C17.713 24.4959 17.7192 24.4784 17.7287 24.4616L17.7464 24.4292L17.8097 24.3326C17.8357 24.3116 17.8532 24.2828 17.8594 24.2509L17.8696 24.2204L17.8437 24.236C17.8283 24.2431 17.8149 24.2538 17.8048 24.267C17.7947 24.2802 17.7882 24.2956 17.7859 24.3118L17.7253 24.4097L17.7055 24.4428ZM17.5694 23.9242L17.5279 23.9592L17.4802 24.024C17.468 24.0344 17.4496 24.0447 17.4646 24.0616C17.4795 24.0785 17.4925 24.0616 17.5034 24.0512L17.5524 23.9864L17.5851 23.9397L17.598 23.9008C17.6211 23.9054 17.6313 23.8943 17.632 23.8743C17.632 23.8743 17.6266 23.8652 17.6239 23.8652C17.598 23.8652 17.6014 23.8859 17.5993 23.9021L17.5694 23.9242ZM26.0995 33.0848C26.0916 33.0809 26.0826 33.0796 26.0738 33.0811C26.0651 33.0826 26.0571 33.0869 26.0512 33.0932C26.0512 33.0932 26.0512 33.1036 26.0573 33.1042C26.0614 33.1057 26.0658 33.1063 26.0701 33.1061C26.0745 33.1058 26.0788 33.1047 26.0827 33.1027C26.0865 33.1007 26.0899 33.098 26.0926 33.0947C26.0953 33.0914 26.0971 33.0875 26.0981 33.0835L26.1015 33.0763L26.0995 33.0848ZM25.1083 14.597L25.1362 14.6106L25.1321 14.5788L25.0953 14.5315C25.0886 14.4997 25.0697 14.4715 25.0422 14.4524L25.0252 14.4219L24.9878 14.3733C24.9649 14.3112 24.9185 14.2595 24.8578 14.2281C24.8769 14.2934 24.9124 14.3532 24.9612 14.4025L24.996 14.444L25.015 14.4738C25.0334 14.501 25.0525 14.5276 25.0708 14.5542L25.1083 14.597ZM21.5056 16.0808C21.5009 16.0536 21.4872 16.0426 21.4614 16.062C21.4531 16.0703 21.4462 16.0797 21.441 16.0899L21.5029 16.0821C21.5029 16.0633 21.524 16.0445 21.5029 16.027C21.4922 16.0314 21.4831 16.0389 21.477 16.0484C21.4627 16.0763 21.4798 16.0834 21.5056 16.0808ZM24.7699 14.1432L24.8047 14.1834C24.819 14.2067 24.8298 14.254 24.8646 14.2262C24.8993 14.1983 24.8455 14.1782 24.8312 14.1542L24.7951 14.1127C24.7815 14.0913 24.7597 14.0771 24.7413 14.0978C24.723 14.1186 24.759 14.1289 24.7699 14.1432ZM19.0623 32.3347L19.0242 32.3477C19.0242 32.3477 19.0283 32.3561 19.0317 32.3568C19.0521 32.3613 19.0576 32.3477 19.061 32.3321C19.0569 32.3451 19.0317 32.3522 19.048 32.3704C19.048 32.3743 19.0671 32.3756 19.0685 32.3704C19.0766 32.3594 19.0412 32.3516 19.0623 32.3347ZM21.6724 14.9017C21.7071 14.8861 21.7323 14.8647 21.7262 14.8239C21.7643 14.8239 21.7745 14.8012 21.782 14.7727L21.7997 14.761L21.7854 14.7526L21.7807 14.7733C21.7439 14.7733 21.731 14.7947 21.7276 14.8258C21.6928 14.842 21.6629 14.8615 21.6738 14.9049C21.6581 14.9004 21.6493 14.9049 21.6574 14.9198L21.6724 14.9017ZM17.4108 24.1212C17.4033 24.1329 17.3897 24.1446 17.389 24.1569C17.3883 24.1692 17.4033 24.166 17.4135 24.164C17.4441 24.1407 17.4911 24.118 17.4564 24.0765C17.4428 24.0603 17.4115 24.0908 17.4108 24.1212ZM17.3304 25.126C17.3063 25.1433 17.2868 25.1659 17.2736 25.1918C17.2605 25.2178 17.254 25.2464 17.2549 25.2751C17.2781 25.2567 17.2968 25.2336 17.3095 25.2075C17.3222 25.1814 17.3287 25.1529 17.3284 25.1241L17.3515 25.1001L17.3373 25.0904L17.3304 25.126ZM23.0864 16.1975L23.1184 15.8462C23.0503 15.9603 23.0714 16.0834 23.0653 16.2034C22.9972 16.2922 23.0653 16.3855 23.0517 16.4769C23.0442 16.3816 23.1163 16.2954 23.0864 16.1975ZM29.2079 25.338C29.2457 25.4682 29.2968 25.5946 29.3604 25.7153L29.3944 25.7024C29.3345 25.5636 29.2744 25.4253 29.214 25.2875C29.2027 25.217 29.1681 25.1519 29.1153 25.1014C29.13 25.1842 29.1615 25.2634 29.2079 25.3348V25.338ZM18.9684 32.303L18.9902 32.3269L18.999 32.3088L18.9663 32.3049C18.8492 32.1338 18.6314 31.9749 18.5409 32.0086C18.6865 32.1104 18.8118 32.2258 18.9684 32.303ZM23.1511 14.9055L23.1014 15.7191H23.1347L23.1851 14.89C23.2259 14.8135 23.2069 14.7338 23.2008 14.6411C23.1197 14.7299 23.1449 14.8193 23.1511 14.9055ZM24.9544 11.2908C25.2458 11.0393 25.514 10.7657 25.7782 10.4889C25.7918 10.4805 25.8115 10.4747 25.7891 10.4565C25.7812 10.463 25.7737 10.4699 25.7666 10.4773C25.4704 10.7237 25.1939 10.9909 24.9394 11.2766C24.9279 11.2876 24.9081 11.2967 24.9313 11.3129C24.9395 11.3061 24.9473 11.2987 24.9544 11.2908ZM16.2051 26.8971C16.2314 26.7675 16.2394 26.6352 16.229 26.5036C16.1881 26.6309 16.1652 26.7628 16.1609 26.8958C16.1139 27.4663 16.0874 28.0354 16.263 28.593C16.1862 28.0308 16.1668 27.4628 16.2051 26.8971ZM18.0432 23.591C18.4862 23.1995 18.9551 22.8355 19.447 22.5012C18.8949 22.7644 18.4006 23.0957 18.0255 23.5722C18.0133 23.5832 17.9745 23.5819 17.9969 23.6085C18.0194 23.635 18.035 23.6182 18.0432 23.5936V23.591ZM24.1334 19.35C24.1204 19.3991 24.112 19.4493 24.1082 19.4998C24.113 20.0404 24.0585 20.5778 24.0401 21.1204C24.0401 21.1691 24.0184 21.2332 24.1082 21.2274C24.1981 21.2216 24.1552 21.1574 24.1552 21.1211C24.1552 20.5318 24.1552 19.9432 24.1511 19.3539C24.178 19.1903 24.178 19.0236 24.1511 18.8599C24.1238 19.0228 24.1179 19.1883 24.1334 19.3526V19.35ZM29.1902 29.8389C29.3897 29.2872 29.7348 28.7816 29.5987 28.1722C29.5329 28.2835 29.4952 28.4078 29.4884 28.5353C29.4798 28.8138 29.419 29.0887 29.3087 29.3469C29.246 29.4986 29.1521 29.6516 29.1902 29.8415V29.8389ZM28.8117 29.6101L28.1581 30.8418C28.4538 30.473 28.6753 30.0554 28.8117 29.6101ZM26.3221 16.0575C26.139 15.7016 25.8803 15.393 25.6298 15.0786C25.8217 15.4319 26.0729 15.745 26.3221 16.0575ZM16.9778 30.5138L17.054 30.6291C17.2033 30.8595 17.3674 31.0808 17.5456 31.2917C17.5694 31.3202 17.5932 31.3526 17.632 31.3176C17.6708 31.2826 17.6191 31.2683 17.6041 31.2528C17.4312 31.0311 17.2565 30.8102 17.0799 30.5902C17.0561 30.5604 17.0506 30.504 16.9778 30.5138ZM22.8447 18.6091H22.8917C22.9046 18.1093 22.9754 17.6114 22.938 17.1096C22.9053 17.6079 22.8742 18.1071 22.8447 18.6071V18.6091ZM23.5452 33.3473C23.228 33.3473 22.9271 33.3505 22.6262 33.3317C22.9257 33.4244 23.2293 33.4575 23.5452 33.3454V33.3473ZM17.0711 30.0204C17.1616 30.2677 17.2926 30.4998 17.4591 30.7082C17.3662 30.4613 17.2354 30.2289 17.0711 30.0185V30.0204ZM28.9941 28.3998C29.1037 28.0918 29.1187 27.7729 29.1085 27.4514C29.0615 27.7658 29.035 28.0834 28.9941 28.3991V28.3998ZM21.1925 33.2105C20.9692 33.0731 20.6165 32.9512 20.5069 32.9713C20.7357 33.0562 20.9528 33.1606 21.1925 33.2099V33.2105ZM28.7763 30.5138C28.875 30.3627 29.0132 30.2331 29.0329 30.0444C28.9383 30.1987 28.8117 30.3361 28.7763 30.5138ZM16.4938 27.1084H16.457C16.4488 27.2446 16.44 27.3813 16.4318 27.5181C16.4856 27.388 16.5068 27.2477 16.4938 27.1084ZM27.4331 23.5773C27.3453 23.497 27.2854 23.3829 27.1363 23.3472C27.1654 23.4037 27.2069 23.4536 27.2582 23.4933C27.3094 23.533 27.3691 23.5617 27.4331 23.5773ZM17.1589 24.5283L17.3883 24.1919C17.2835 24.2904 17.1759 24.3812 17.1589 24.5283ZM23.8305 21.2118C23.8604 21.1098 23.8639 21.0024 23.8407 20.8987C23.8271 20.9927 23.7474 21.0802 23.8311 21.2118H23.8305ZM16.9805 29.3359L16.8757 28.954C16.863 29.089 16.9001 29.224 16.9805 29.3359ZM20.7459 15.863C20.6778 15.9525 20.6322 16.0134 20.5879 16.0763C20.5798 16.088 20.5655 16.1068 20.5879 16.1204C20.5925 16.1237 20.5977 16.126 20.6033 16.127C20.6089 16.1281 20.6147 16.128 20.6202 16.1266C20.6257 16.1252 20.6308 16.1226 20.6351 16.1191C20.6395 16.1156 20.6429 16.1111 20.6451 16.1061C20.6771 16.0342 20.735 15.9758 20.7459 15.863ZM28.8117 26.0116C28.8243 26.1298 28.8646 26.2439 28.9295 26.3454C28.9152 26.2275 28.8751 26.1138 28.8117 26.0116ZM23.9714 16.475C23.9904 16.3758 24.0395 16.2766 23.9714 16.1813V16.475ZM24.0109 14.9075V15.1584C24.033 15.12 24.0447 15.0769 24.045 15.0331C24.0452 14.9893 24.034 14.9461 24.0122 14.9075H24.0109ZM20.2394 33.1528L20.2285 33.1833C20.2981 33.229 20.3816 33.2518 20.4661 33.2481L20.2394 33.1528ZM25.4351 22.3016L25.2465 22.2367C25.2666 22.2652 25.2957 22.2869 25.3296 22.2985C25.3635 22.3102 25.4005 22.3113 25.4351 22.3016ZM19.8527 32.9895C19.7703 32.9285 19.7234 32.8838 19.626 32.8799C19.689 32.9349 19.7664 32.9727 19.85 32.9895H19.8527ZM17.2385 25.2862C17.195 25.351 17.1562 25.3892 17.18 25.4443C17.2039 25.4255 17.2219 25.4008 17.2322 25.373C17.2425 25.3451 17.2447 25.3151 17.2385 25.2862ZM19.8105 32.972C19.8553 33.019 19.917 33.0484 19.9834 33.0543C19.936 33.011 19.876 32.9823 19.8112 32.972H19.8105ZM26.0137 33.134C26.0028 33.1256 25.9953 33.1172 25.9933 33.1185C25.9786 33.1261 25.9645 33.1348 25.9511 33.1444C25.9558 33.1483 25.9627 33.1561 25.9661 33.1548C25.9826 33.1489 25.9988 33.142 26.0144 33.134H26.0137ZM25.1798 22.2257L25.1695 22.2218V22.227L25.1798 22.2257ZM18.6484 30.9157L18.6171 30.9384C18.6226 30.9442 18.6266 30.9526 18.6334 30.9546C18.6403 30.9565 18.66 30.9656 18.6627 30.9474C18.6634 30.939 18.6545 30.9293 18.6484 30.9157ZM25.8306 33.1969L25.819 33.2008L25.8306 33.204V33.1969ZM18.7022 30.9837C18.7022 30.987 18.6968 30.9909 18.6974 30.9928C18.7029 31.0058 18.7104 31.0058 18.7165 30.9928C18.7164 30.9911 18.716 30.9894 18.7151 30.9878C18.7143 30.9862 18.7132 30.9848 18.7117 30.9837C18.7117 30.9837 18.7056 30.9844 18.7022 30.9837ZM20.5178 33.2792L20.509 33.2747V33.2818L20.5178 33.2792Z" fill="#181818"/>
<path d="M30.9377 16.589C30.9377 16.7835 30.8288 16.9047 30.6559 16.9028C30.6194 16.9039 30.583 16.8976 30.5492 16.8845C30.5154 16.8714 30.4848 16.8517 30.4595 16.8267C30.4342 16.8016 30.4146 16.7718 30.4021 16.7392C30.3896 16.7065 30.3845 16.6717 30.387 16.637C30.391 16.4821 30.5265 16.3777 30.7158 16.3777C30.8832 16.3816 30.9397 16.436 30.9377 16.589Z" fill="#F8F2EA"/>
<path d="M30.7314 16.2396C31.065 16.2059 31.2046 16.3887 31.0718 16.6966C31.095 16.4503 31.0296 16.2642 30.7314 16.2396Z" fill="#F8F2EA"/>
<path d="M13.8265 20.8267C13.8238 20.7997 13.8271 20.7724 13.8362 20.7467C13.8452 20.721 13.8599 20.6973 13.8791 20.6773C13.8983 20.6573 13.9218 20.6413 13.9479 20.6304C13.974 20.6195 14.0022 20.614 14.0307 20.6141C14.0827 20.6127 14.1334 20.6304 14.1722 20.6634C14.2111 20.6964 14.2352 20.7423 14.2397 20.7917C14.2397 20.9 14.1035 21.0173 13.9674 21.0102C13.8312 21.003 13.8421 20.8974 13.8265 20.8267Z" fill="#F8F2EA"/>
<path d="M14.2942 20.5849C14.1465 20.4216 13.9702 20.4501 13.7618 20.5512C13.8898 20.3937 14.0022 20.349 14.1295 20.3969C14.2146 20.4287 14.3071 20.4676 14.2894 20.5849H14.2942Z" fill="#F8F2EA"/>
<path d="M14.2895 20.5859L14.2881 20.5797L14.2939 20.5859H14.2895Z" fill="#F8F2EA"/>
<path d="M17.5715 18.5144C17.6395 18.5274 17.7212 18.5488 17.7342 18.6441C17.7444 18.7199 17.6402 18.8308 17.5694 18.8158C17.4789 18.7964 17.3529 18.8197 17.3243 18.6966C17.3066 18.6201 17.4523 18.5144 17.5715 18.5144Z" fill="#F8F2EA"/>
<path d="M17.6545 18.3821C17.4468 18.3788 17.3032 18.4592 17.2378 18.6505C17.1786 18.5046 17.195 18.4391 17.3059 18.3659C17.3555 18.3262 17.4189 18.3059 17.4835 18.3089C17.5482 18.3119 17.6092 18.338 17.6545 18.3821Z" fill="#F8F2EA"/>
<path d="M29.4863 14.0816C29.5823 14.0965 29.647 14.1393 29.6341 14.2281C29.6324 14.2699 29.614 14.3094 29.5828 14.3388C29.5516 14.3682 29.5098 14.3852 29.4659 14.3863C29.4453 14.3876 29.4245 14.3849 29.4051 14.3782C29.3856 14.3715 29.3678 14.361 29.3528 14.3474C29.3378 14.3338 29.326 14.3174 29.318 14.2992C29.3101 14.281 29.3062 14.2614 29.3066 14.2417C29.3025 14.1724 29.4244 14.079 29.4863 14.0816Z" fill="#F8F2EA"/>
<path d="M32.5056 26.8893C32.5818 26.9003 32.6703 26.9022 32.6635 27.0189C32.6581 27.1058 32.6179 27.159 32.5192 27.1525C32.4205 27.146 32.3197 27.1006 32.315 26.9969C32.3102 26.8932 32.4198 26.8977 32.5056 26.8893Z" fill="#F8F2EA"/>
<path d="M13.5623 17.4324C13.5623 17.4972 13.45 17.6184 13.3765 17.6119C13.2886 17.6042 13.2532 17.5471 13.2498 17.4687C13.2479 17.4449 13.2511 17.4211 13.2592 17.3986C13.2674 17.3761 13.2803 17.3554 13.2973 17.3379C13.3142 17.3203 13.3348 17.3063 13.3576 17.2967C13.3805 17.2871 13.4052 17.2821 13.4302 17.282C13.5187 17.2852 13.5623 17.3358 13.5623 17.4324Z" fill="#F8F2EA"/>
<path d="M32.6628 24.1122C32.7111 24.1394 32.7928 24.131 32.7847 24.2107C32.7812 24.249 32.7704 24.3086 32.7166 24.3067C32.6842 24.305 32.6533 24.2933 32.6287 24.2733C32.6041 24.2532 32.5871 24.226 32.5804 24.1958C32.5668 24.1478 32.624 24.1284 32.6628 24.1122Z" fill="#F8F2EA"/>
<path d="M30.9438 12.1225C30.9438 12.0253 30.9833 11.9592 31.0861 11.9656C31.159 11.9702 31.2475 11.9773 31.2509 12.0784C31.2543 12.1595 31.1399 12.2801 31.0657 12.2729C30.9677 12.2638 30.9541 12.188 30.9438 12.1225Z" fill="#F8F2EA"/>
<path d="M19.3217 23.3284C19.882 22.8633 20.5416 22.5196 21.2551 22.321C23.6589 21.6442 26.2805 22.5343 27.6455 24.5367C28.715 26.1049 28.9008 27.8014 28.233 29.5588C27.6502 31.0933 26.5365 32.172 24.9231 32.7107C23.1456 33.3045 21.4552 33.0348 19.8915 32.0423C19.5581 31.8309 19.2525 31.5821 18.9813 31.3014C18.9873 31.2967 18.993 31.2917 18.9983 31.2864C19.3068 31.5549 19.6409 31.7954 19.9963 32.0047C21.5498 32.8643 23.1769 33.0225 24.8781 32.4643C24.9762 32.4319 25.0824 32.4053 25.1334 32.3062C25.1532 32.2692 25.1913 32.2329 25.1545 32.1875C25.1393 32.1712 25.1195 32.1594 25.0974 32.1535C25.0753 32.1476 25.0519 32.148 25.03 32.1545C24.9586 32.168 24.8881 32.1855 24.8189 32.207C22.8855 32.7904 21.0937 32.5 19.53 31.291C17.9383 30.0593 17.2834 28.4289 17.6109 26.4854C17.711 25.8929 18.0153 25.3555 18.3788 24.8648C19.3373 23.5682 20.6369 22.7735 22.2858 22.531C23.7113 22.321 25.0014 22.6484 26.1396 23.4976C26.2758 23.5987 26.3983 23.716 26.5311 23.8217C26.5583 23.8431 26.5923 23.9001 26.6434 23.8457C26.6863 23.801 26.6536 23.7627 26.6264 23.7303C26.4439 23.5164 26.2125 23.355 25.9817 23.1935C25.0627 22.5403 23.9445 22.1913 22.7977 22.1998C21.5398 22.1886 20.3171 22.5953 19.34 23.3498L19.3217 23.3284ZM28.0097 27.7003C28.0097 27.5875 28.0036 27.4753 28.0015 27.3625C27.9859 26.1749 27.5577 25.1409 26.691 24.2872C25.7175 23.3277 24.5126 22.8299 23.1156 22.8389C21.3844 22.85 19.9684 23.4872 19.0051 24.8985C18.0915 26.2365 17.8839 27.6802 18.3543 29.2133C18.3999 29.3618 18.4809 29.4992 18.5027 29.6548C18.468 29.636 18.4612 29.6003 18.4448 29.5705C18.2117 29.138 18.0673 28.6672 18.0193 28.1832C17.9009 26.9723 18.1119 25.8365 18.9323 24.8557C18.9433 24.846 18.9521 24.8344 18.9582 24.8214C18.9644 24.8084 18.9677 24.7944 18.968 24.7802C18.9684 24.766 18.9657 24.7518 18.9601 24.7386C18.9545 24.7254 18.9462 24.7134 18.9357 24.7033C18.8819 24.6541 18.8458 24.7144 18.8131 24.7435C18.5398 24.9802 18.317 25.2648 18.1569 25.5817C17.7634 26.3629 17.6558 27.1855 17.7818 28.038C17.8779 28.7541 18.1665 29.4345 18.6198 30.0133C18.6572 30.0612 18.6831 30.1351 18.7736 30.1137C19.4763 31.1468 20.5625 31.8893 21.8152 32.1928C23.0679 32.4962 24.3946 32.3383 25.5303 31.7506C25.7734 31.6255 25.9973 31.4718 26.2363 31.3409C26.0676 31.5217 25.873 31.679 25.6583 31.8083C25.6222 31.8316 25.561 31.8563 25.5848 31.9023C25.6086 31.9483 25.6733 31.9431 25.7291 31.9211C25.921 31.8411 26.0996 31.735 26.2594 31.606C26.9198 31.0959 27.3807 30.4437 27.7387 29.7189C27.9702 29.249 28.1356 28.7608 28.1411 28.2351C28.1431 28.0503 28.1227 27.863 28.0097 27.7003Z" fill="#F8F2EA"/>
<path d="M29.1903 29.8415C29.1535 29.6515 29.2461 29.4986 29.3087 29.3443C29.4198 29.088 29.482 28.8149 29.4925 28.5378C29.4993 28.4103 29.5371 28.2861 29.6028 28.1748C29.7335 28.7842 29.3897 29.2898 29.1903 29.8415Z" fill="#F8F2EA"/>
<path d="M24.1545 19.3533C24.1545 19.9425 24.1592 20.5311 24.1586 21.1204C24.1586 21.1567 24.1978 21.2215 24.1119 21.2267C24.026 21.2319 24.0442 21.1684 24.0442 21.1198C24.0598 20.5804 24.1119 20.043 24.1119 19.4991C24.1156 19.4486 24.124 19.3985 24.1369 19.3494H24.1477L24.1545 19.3533Z" fill="#F8F2EA"/>
<path d="M18.0255 23.5773C18.4006 23.1008 18.8949 22.7695 19.447 22.5063C18.9551 22.8407 18.4862 23.2046 18.0432 23.5961L18.0255 23.5773Z" fill="#F8F2EA"/>
<path d="M16.2046 26.897C16.1655 27.4627 16.1836 28.0306 16.2588 28.5929C16.0842 28.0354 16.1106 27.4662 16.1573 26.8958L16.2046 26.897Z" fill="#F8F2EA"/>
<path d="M28.8117 29.61C28.6754 30.0554 28.4538 30.4729 28.1582 30.8417L28.8117 29.61Z" fill="#F8F2EA"/>
<path d="M26.3221 16.0575C26.0729 15.7424 25.8217 15.4293 25.6298 15.0786C25.8803 15.3956 26.139 15.7042 26.3221 16.0575Z" fill="#F8F2EA"/>
<path d="M16.9778 30.5137C17.0506 30.5059 17.0561 30.5623 17.0799 30.5921C17.2569 30.8117 17.4316 31.0325 17.6041 31.2546C17.6191 31.2728 17.6722 31.2857 17.632 31.3195C17.5918 31.3532 17.5694 31.3195 17.5455 31.2935C17.3673 31.0812 17.2031 30.8584 17.054 30.6265L16.9778 30.5137Z" fill="#F8F2EA"/>
<path d="M25.7782 10.4888C25.514 10.7656 25.2458 11.0392 24.9544 11.2907L24.9395 11.2765C25.1939 10.9908 25.4704 10.7236 25.7666 10.4772L25.7782 10.4888Z" fill="#F8F2EA"/>
<path d="M22.8447 18.6071C22.8754 18.107 22.9063 17.6068 22.9374 17.1063C22.9746 17.6081 22.9043 18.1059 22.8914 18.6058L22.8447 18.6071Z" fill="#6E6E6E"/>
<path d="M23.5453 33.3453C23.2273 33.4574 22.9258 33.4244 22.6262 33.3297C22.9271 33.3485 23.2294 33.344 23.5453 33.3453Z" fill="#F8F2EA"/>
<path d="M17.071 30.0184C17.2352 30.2283 17.366 30.46 17.4591 30.7062C17.2926 30.4978 17.1616 30.2657 17.071 30.0184Z" fill="#F8F2EA"/>
<path d="M28.9941 28.3991C29.0347 28.0834 29.0618 27.7657 29.1078 27.4507C29.1179 27.7722 29.1031 28.0912 28.9941 28.3991Z" fill="#6E6E6E"/>
<path d="M21.1925 33.2098C20.9529 33.1605 20.7357 33.0562 20.507 32.9706C20.6166 32.9531 20.9692 33.0724 21.1925 33.2098Z" fill="#F8F2EA"/>
<path d="M23.1845 14.8906L23.1345 15.7198H23.1013L23.1507 14.9062L23.1845 14.8906Z" fill="#F8F2EA"/>
<path d="M28.7762 30.5138C28.8123 30.3349 28.9383 30.1974 29.0329 30.0444C29.0159 30.2344 28.875 30.364 28.7762 30.5138Z" fill="#F8F2EA"/>
<path d="M18.9684 32.3029C18.8118 32.2258 18.6866 32.1084 18.5409 32.0086C18.6314 31.9749 18.8493 32.1337 18.9664 32.3048L18.9684 32.3029Z" fill="#F8F2EA"/>
<path d="M16.4933 27.1084C16.5062 27.2475 16.4851 27.3876 16.4318 27.5175C16.4399 27.3807 16.4487 27.2439 16.4568 27.1078L16.4933 27.1084Z" fill="#F8F2EA"/>
<path d="M27.4332 23.5773C27.3692 23.5617 27.3095 23.533 27.2582 23.4933C27.207 23.4535 27.1654 23.4037 27.1364 23.3472C27.2854 23.3828 27.3453 23.4982 27.4332 23.5773Z" fill="#F8F2EA"/>
<path d="M24.1551 19.3532H24.1443H24.1334C24.12 19.1884 24.1279 19.0227 24.1571 18.8599C24.1831 19.0234 24.1824 19.1898 24.1551 19.3532Z" fill="#6E6E6E"/>
<path d="M17.1589 24.5283C17.176 24.3812 17.2835 24.2872 17.3884 24.1919L17.1589 24.5283Z" fill="#F8F2EA"/>
<path d="M29.214 25.2842C29.2744 25.422 29.3345 25.5603 29.3944 25.6991L29.3604 25.712C29.2968 25.5913 29.2457 25.4649 29.2079 25.3347L29.214 25.2842Z" fill="#F8F2EA"/>
<path d="M18.2277 31.6301C18.1031 31.5743 18.0384 31.468 17.9744 31.3611C17.9615 31.339 17.9629 31.3222 17.9928 31.3157C18.0507 31.435 18.1705 31.5102 18.2468 31.6119L18.2277 31.6301Z" fill="#F8F2EA"/>
<path d="M23.831 21.2118C23.7478 21.0821 23.8269 20.9927 23.8411 20.8987C23.8642 21.0023 23.8607 21.1097 23.831 21.2118Z" fill="#F8F2EA"/>
<path d="M16.9799 29.3358C16.8999 29.224 16.8631 29.089 16.8757 28.954L16.9799 29.3358Z" fill="#F8F2EA"/>
<path d="M16.2048 26.8971H16.1575C16.1618 26.7641 16.1845 26.6322 16.2251 26.5049C16.2365 26.6359 16.2297 26.7678 16.2048 26.8971Z" fill="#6E6E6E"/>
<path d="M20.7459 15.863C20.735 15.9784 20.6778 16.0368 20.6465 16.1061C20.6443 16.1111 20.6409 16.1156 20.6365 16.1191C20.6322 16.1227 20.6271 16.1252 20.6216 16.1266C20.6161 16.128 20.6103 16.1281 20.6047 16.127C20.5991 16.126 20.5939 16.1237 20.5893 16.1204C20.5655 16.1068 20.5798 16.088 20.5893 16.0763C20.6322 16.0108 20.6792 15.9499 20.7459 15.863Z" fill="#F8F2EA"/>
<path d="M23.0653 16.2034C23.0714 16.0835 23.0538 15.9603 23.1181 15.8462L23.0863 16.1975L23.0653 16.2034Z" fill="#F8F2EA"/>
<path d="M28.8116 26.0115C28.8747 26.1137 28.9145 26.2274 28.9287 26.3453C28.8642 26.2438 28.8242 26.1297 28.8116 26.0115Z" fill="#6E6E6E"/>
<path d="M19.0766 23.5345L18.8588 23.7368V23.74C18.9806 23.7206 18.9833 23.5819 19.0807 23.5384L19.0766 23.5345Z" fill="#F8F2EA"/>
<path d="M23.9728 16.4749V16.1813C24.0458 16.2766 23.9917 16.3758 23.9728 16.4749Z" fill="#6E6E6E"/>
<path d="M24.0122 14.9075C24.034 14.946 24.0454 14.9891 24.0454 15.0329C24.0454 15.0767 24.034 15.1198 24.0122 15.1583V14.9075Z" fill="#F8F2EA"/>
<path d="M23.0651 16.2033L23.0861 16.1975C23.1159 16.2954 23.0442 16.3816 23.0516 16.4769C23.0624 16.3855 23.0009 16.2922 23.0651 16.2033Z" fill="#6E6E6E"/>
<path d="M23.1849 14.8906L23.1511 14.9036C23.145 14.8174 23.1199 14.7279 23.2004 14.6443C23.2065 14.7363 23.2288 14.8161 23.1849 14.8906Z" fill="#6E6E6E"/>
<path d="M29.2134 25.2842L29.2074 25.3348C29.1608 25.2624 29.1295 25.182 29.1154 25.0981C29.1679 25.1486 29.2022 25.2138 29.2134 25.2842Z" fill="#6E6E6E"/>
<path d="M20.2394 33.1528L20.4661 33.2455C20.3816 33.2492 20.2982 33.2264 20.2285 33.1807L20.2394 33.1528Z" fill="#6E6E6E"/>
<path d="M25.435 22.3015C25.4004 22.3112 25.3635 22.3102 25.3296 22.2985C25.2957 22.2868 25.2666 22.2652 25.2465 22.2367L25.435 22.3015Z" fill="#6E6E6E"/>
<path d="M19.85 32.9894C19.7646 32.9735 19.6855 32.9356 19.6212 32.8799C19.7206 32.8838 19.7676 32.9285 19.85 32.9894Z" fill="#F8F2EA"/>
<path d="M24.9606 14.4031C24.9122 14.3535 24.8769 14.2934 24.8578 14.228C24.9182 14.2594 24.9642 14.3111 24.987 14.3732L24.9606 14.4031Z" fill="#6E6E6E"/>
<path d="M19.3392 23.3459L19.216 23.436L19.2025 23.4224C19.2332 23.3821 19.2739 23.3498 19.3209 23.3284L19.3392 23.3459Z" fill="#F8F2EA"/>
<path d="M18.8717 31.1866C18.8163 31.1756 18.7973 31.1283 18.7689 31.0907L18.7933 31.0641C18.8338 31.0913 18.8666 31.1279 18.8887 31.1704C18.8844 31.177 18.8786 31.1826 18.8717 31.1866Z" fill="#6E6E6E"/>
<path d="M17.3279 25.124C17.3281 25.1528 17.3217 25.1813 17.3091 25.2074C17.2964 25.2335 17.2779 25.2566 17.2548 25.2751C17.254 25.2463 17.2604 25.2177 17.2735 25.1918C17.2865 25.1658 17.3059 25.1433 17.3299 25.126L17.3279 25.124Z" fill="#6E6E6E"/>
<path d="M17.2382 25.2861C17.2443 25.3151 17.2421 25.3451 17.2319 25.3729C17.2216 25.4008 17.2037 25.4254 17.18 25.4443C17.157 25.3924 17.1955 25.3497 17.2382 25.2861Z" fill="#6E6E6E"/>
<path d="M19.8112 32.9719C19.8762 32.9821 19.9365 33.0108 19.9841 33.0543C19.9177 33.0484 19.856 33.019 19.8112 32.9719Z" fill="#F8F2EA"/>
<path d="M18.8873 31.1704L18.9692 31.2612L18.9536 31.2761L18.8724 31.1866C18.8786 31.1824 18.8837 31.1768 18.8873 31.1704Z" fill="#F8F2EA"/>
<path d="M17.7253 24.4097L17.7855 24.3118L17.8092 24.3325L17.7463 24.4291L17.7253 24.4097Z" fill="#6E6E6E"/>
<path d="M25.0705 14.5542C25.0522 14.5276 25.0333 14.501 25.015 14.4738L25.0421 14.4524C25.0694 14.4715 25.0882 14.4997 25.0948 14.5315L25.0705 14.5542Z" fill="#6E6E6E"/>
<path d="M26.014 33.134C25.9987 33.1419 25.9829 33.1488 25.9667 33.1547C25.9667 33.1547 25.9565 33.1482 25.9518 33.1443C25.9651 33.1347 25.9791 33.1261 25.9937 33.1184C25.9937 33.1184 26.0032 33.1255 26.014 33.134Z" fill="#6E6E6E"/>
<path d="M17.4108 24.1213C17.4108 24.0908 17.4426 24.0603 17.4561 24.0765C17.4906 24.118 17.4439 24.1413 17.4135 24.164L17.4108 24.1213Z" fill="#6E6E6E"/>
<path d="M17.699 24.5128C17.6855 24.5283 17.6896 24.5744 17.6551 24.5536C17.6334 24.5407 17.6551 24.5102 17.6774 24.4946L17.699 24.5128Z" fill="#6E6E6E"/>
<path d="M17.7832 24.3118C17.7855 24.2956 17.792 24.2802 17.802 24.267C17.812 24.2537 17.8253 24.2431 17.8407 24.236L17.8563 24.2509C17.8501 24.2827 17.8327 24.3116 17.8069 24.3326L17.7832 24.3118Z" fill="#6E6E6E"/>
<path d="M17.5553 23.9871L17.5066 24.0519L17.4836 24.0247L17.531 23.9598L17.5553 23.9871Z" fill="#6E6E6E"/>
<path d="M24.8311 14.1536C24.8453 14.1782 24.8919 14.2041 24.8642 14.2262C24.8365 14.2482 24.8189 14.2067 24.8047 14.1834L24.8311 14.1536Z" fill="#6E6E6E"/>
<path d="M21.9679 14.5341C21.9709 14.5215 21.9768 14.5097 21.9851 14.4995C21.9934 14.4893 22.0039 14.481 22.0159 14.4751C22.0205 14.4802 22.0255 14.4849 22.0308 14.4894C22.0277 14.5018 22.0219 14.5134 22.0137 14.5234C22.0055 14.5335 21.9952 14.5418 21.9835 14.5477L21.9679 14.5341Z" fill="#6E6E6E"/>
<path d="M21.7316 14.8258C21.735 14.7947 21.7478 14.7733 21.7844 14.7733C21.7769 14.8018 21.7668 14.8271 21.7289 14.8245L21.7316 14.8258Z" fill="#6E6E6E"/>
<path d="M21.7259 14.8258C21.732 14.8666 21.7069 14.8906 21.6724 14.9036C21.6616 14.8601 21.6914 14.8387 21.7259 14.8245V14.8258Z" fill="#6E6E6E"/>
<path d="M19.0616 32.334C19.0413 32.3515 19.0785 32.3593 19.0683 32.3729C19.0683 32.3729 19.0514 32.3729 19.048 32.3729C19.0318 32.3547 19.0568 32.3476 19.0609 32.3346L19.0616 32.334Z" fill="#F8F2EA"/>
<path d="M18.4759 24.1608C18.4705 24.1906 18.459 24.2139 18.4204 24.2113C18.4279 24.1841 18.436 24.1562 18.4752 24.1608H18.4759Z" fill="#6E6E6E"/>
<path d="M18.8571 23.7368C18.8426 23.7409 18.8299 23.7494 18.8211 23.7612C18.8123 23.7729 18.8078 23.7872 18.8084 23.8016C18.8348 23.79 18.8618 23.7783 18.8537 23.742L18.8571 23.7368Z" fill="#F8F2EA"/>
<path d="M17.6028 23.9015C17.6028 23.8852 17.6028 23.8658 17.6271 23.8645C17.6271 23.8645 17.6359 23.8703 17.6353 23.8736C17.6353 23.8937 17.6244 23.9047 17.6014 23.9002L17.6028 23.9015Z" fill="#6E6E6E"/>
<path d="M21.5769 15.9279C21.6262 15.97 21.5816 15.9823 21.5525 16.0011C21.5288 15.9661 21.585 15.9577 21.5769 15.9285V15.9279Z" fill="#F8F2EA"/>
<path d="M25.1797 22.2261L25.1688 22.2276L25.1695 22.2218L25.1797 22.2261Z" fill="#6E6E6E"/>
<path d="M24.7697 14.1438C24.7588 14.1289 24.7189 14.1263 24.7426 14.0991C24.7663 14.0718 24.7825 14.0926 24.796 14.114L24.7697 14.1438Z" fill="#6E6E6E"/>
<path d="M24.7949 14.1127L24.8294 14.1529L24.8031 14.182L24.7686 14.1418L24.7949 14.1127Z" fill="#6E6E6E"/>
<path d="M21.5032 16.0821L21.4409 16.0898C21.4462 16.0796 21.453 16.0702 21.4612 16.062C21.4869 16.0425 21.5004 16.0535 21.5052 16.0808L21.5032 16.0821Z" fill="#F8F2EA"/>
<path d="M24.9876 14.3719L25.0248 14.4206L24.9957 14.4426L24.9612 14.4011C24.9702 14.3929 24.979 14.3832 24.9876 14.3719Z" fill="#6E6E6E"/>
<path d="M21.5054 16.0808C21.4797 16.0808 21.4628 16.0762 21.4763 16.0484C21.4824 16.0389 21.4914 16.0314 21.502 16.027C21.5237 16.0445 21.502 16.0633 21.502 16.0821L21.5054 16.0808Z" fill="#F8F2EA"/>
<path d="M18.6482 30.9156C18.6543 30.9293 18.6631 30.939 18.6624 30.9474C18.6624 30.9656 18.6434 30.9578 18.6333 30.9545C18.6232 30.9513 18.6225 30.9442 18.6171 30.9383L18.6482 30.9156Z" fill="#6E6E6E"/>
<path d="M25.0952 14.5315L25.1317 14.5788L25.108 14.597L25.0708 14.5542L25.0952 14.5315Z" fill="#6E6E6E"/>
<path d="M17.9926 31.3157C17.9926 31.3325 17.9926 31.3513 17.9669 31.3474C17.9574 31.3474 17.9506 31.3325 17.9425 31.3248L17.9939 31.3183C17.9936 31.3173 17.9931 31.3165 17.9926 31.3157Z" fill="#F8F2EA"/>
<path d="M26.0978 33.0834C26.0968 33.0875 26.0949 33.0913 26.0923 33.0946C26.0896 33.098 26.0863 33.1007 26.0824 33.1027C26.0786 33.1046 26.0743 33.1058 26.07 33.106C26.0656 33.1063 26.0613 33.1057 26.0572 33.1042C26.0538 33.1042 26.0504 33.0944 26.0511 33.0931C26.057 33.0868 26.0649 33.0826 26.0736 33.0811C26.0823 33.0795 26.0913 33.0808 26.0991 33.0847L26.0978 33.0834Z" fill="#6E6E6E"/>
<path d="M25.83 33.1969V33.2037L25.819 33.2006L25.83 33.1969Z" fill="#6E6E6E"/>
<path d="M18.0429 23.5935C18.0348 23.6181 18.0118 23.6298 17.9969 23.611C17.982 23.5922 18.0131 23.5857 18.0253 23.5747L18.0429 23.5935Z" fill="#F8F2EA"/>
<path d="M18.808 23.8024L18.788 23.7983L18.796 23.8154L18.81 23.7997L18.808 23.8024Z" fill="#F8F2EA"/>
<path d="M17.5312 23.9604L17.5725 23.9254L17.5881 23.9403L17.5556 23.987L17.5312 23.9604Z" fill="#6E6E6E"/>
<path d="M19.1215 23.4807C19.1445 23.4736 19.1567 23.4301 19.1891 23.4626H19.1851C19.1668 23.4852 19.1533 23.5274 19.1174 23.4814L19.1215 23.4807Z" fill="#F8F2EA"/>
<path d="M18.4201 24.2126V24.235L18.4081 24.2299L18.4241 24.2139L18.4201 24.2126Z" fill="#6E6E6E"/>
<path d="M17.7283 24.4615C17.7189 24.4784 17.7094 24.4953 17.6993 24.5121L17.6776 24.4946C17.6871 24.4771 17.6966 24.4603 17.7053 24.4427L17.7283 24.4615Z" fill="#6E6E6E"/>
<path d="M18.4775 24.1608C18.4751 24.1557 18.474 24.1501 18.4741 24.1446C18.4743 24.139 18.4757 24.1335 18.4782 24.1285C18.4808 24.1235 18.4845 24.1191 18.4891 24.1156C18.4936 24.1121 18.4989 24.1096 18.5045 24.1083C18.5073 24.1133 18.5087 24.1189 18.5088 24.1246C18.5089 24.1303 18.5077 24.136 18.5051 24.1411C18.5026 24.1463 18.4988 24.1508 18.4941 24.1543C18.4894 24.1578 18.484 24.1603 18.4782 24.1614L18.4775 24.1608Z" fill="#6E6E6E"/>
<path d="M17.3304 25.126L17.3372 25.0903L17.3514 25.1001L17.3284 25.124L17.3304 25.126Z" fill="#6E6E6E"/>
<path d="M24.9542 11.2908C24.9471 11.2986 24.9394 11.306 24.9312 11.3128C24.9082 11.2966 24.9278 11.2875 24.9393 11.2765L24.9542 11.2908Z" fill="#F8F2EA"/>
<path d="M22.0762 14.4023L22.1028 14.3901L22.0948 14.4208L22.0762 14.4023Z" fill="#6E6E6E"/>
<path d="M22.0949 14.4213C22.0854 14.4271 22.0705 14.4394 22.0678 14.4375C22.0502 14.4232 22.0624 14.4122 22.0759 14.4025L22.0949 14.4213Z" fill="#6E6E6E"/>
<path d="M25.0251 14.4219L25.042 14.4523L25.0149 14.4737L24.996 14.4439L25.0251 14.4219Z" fill="#6E6E6E"/>
<path d="M22.0162 14.4749C22.0256 14.4672 22.0322 14.4461 22.0482 14.4666C22.0482 14.4666 22.0369 14.4813 22.0309 14.4889C22.0257 14.4846 22.0208 14.4799 22.0162 14.4749Z" fill="#6E6E6E"/>
<path d="M21.9833 14.5477L21.9569 14.5749L21.9441 14.5632L21.9678 14.5341L21.9833 14.5477Z" fill="#6E6E6E"/>
<path d="M21.9565 14.5747L21.9312 14.5856L21.9438 14.5632L21.9565 14.5747Z" fill="#6E6E6E"/>
<path d="M25.135 14.5787L25.139 14.61L25.1117 14.5966L25.135 14.5787Z" fill="#6E6E6E"/>
<path d="M21.891 14.643L21.8957 14.6216L21.909 14.6303L21.8917 14.6436L21.891 14.643Z" fill="#6E6E6E"/>
<path d="M19.1916 23.4626C19.1612 23.4405 19.1916 23.4334 19.2025 23.4224L19.216 23.436C19.2161 23.4395 19.2155 23.4429 19.214 23.4461C19.2126 23.4493 19.2105 23.4522 19.2077 23.4545C19.205 23.4568 19.2018 23.4585 19.1983 23.4594C19.1948 23.4604 19.1911 23.4605 19.1876 23.46L19.1916 23.4626Z" fill="#F8F2EA"/>
<path d="M21.3795 16.1825H21.3484C21.3484 16.1761 21.3484 16.1657 21.3524 16.1637C21.3721 16.154 21.3809 16.1637 21.3842 16.1825H21.3795Z" fill="#F8F2EA"/>
<path d="M21.3992 16.1514C21.3925 16.1618 21.3857 16.1722 21.3796 16.1825H21.3844C21.3735 16.1728 21.3546 16.1638 21.3735 16.1475C21.379 16.143 21.3938 16.1475 21.404 16.1508L21.3992 16.1514Z" fill="#F8F2EA"/>
<path d="M21.4041 16.1541C21.3946 16.1457 21.3858 16.136 21.3987 16.1256C21.4115 16.1152 21.4129 16.1256 21.4203 16.1256L21.3993 16.1509L21.4041 16.1541Z" fill="#F8F2EA"/>
<path d="M17.8438 24.2357L17.8691 24.2203L17.8591 24.2504L17.8438 24.2357Z" fill="#6E6E6E"/>
<path d="M19.1173 23.4788C19.16 23.4924 19.1356 23.5066 19.1173 23.5209L19.1045 23.5118C19.1106 23.5014 19.1167 23.4911 19.1221 23.4807L19.1173 23.4788Z" fill="#F8F2EA"/>
<path d="M17.7056 24.4427C17.7123 24.4317 17.7191 24.4207 17.7252 24.4097L17.7462 24.4291L17.7286 24.4615L17.7056 24.4427Z" fill="#6E6E6E"/>
<path d="M18.5367 24.0905C18.53 24.1046 18.522 24.1155 18.5027 24.1084L18.5267 24.0803L18.5367 24.0905Z" fill="#6E6E6E"/>
<path d="M21.5771 15.9279C21.5947 15.9279 21.6042 15.922 21.6049 15.9045C21.6137 15.9169 21.6265 15.9311 21.6049 15.9408C21.5995 15.9408 21.588 15.9324 21.5785 15.9272L21.5771 15.9279Z" fill="#F8F2EA"/>
<path d="M21.605 15.9052C21.6087 15.9054 21.6124 15.9048 21.6159 15.9035C21.6194 15.9022 21.6225 15.9001 21.6251 15.8976C21.6277 15.895 21.6296 15.8919 21.6308 15.8885C21.632 15.8851 21.6324 15.8815 21.632 15.8779C21.6368 15.887 21.6483 15.8987 21.6456 15.9045C21.6347 15.9253 21.6185 15.9136 21.605 15.9045V15.9052Z" fill="#F8F2EA"/>
<path d="M18.7021 30.9836C18.7055 30.9836 18.7095 30.9836 18.7115 30.9836C18.7129 30.9848 18.714 30.9863 18.7148 30.9879C18.7156 30.9896 18.7161 30.9914 18.7161 30.9932C18.7101 31.0062 18.7028 31.0062 18.6975 30.9932C18.6968 30.9912 18.7008 30.9871 18.7021 30.9836Z" fill="#6E6E6E"/>
<path d="M18.532 24.0821L18.5533 24.0674C18.5487 24.0751 18.5447 24.0827 18.54 24.0897L18.532 24.0821Z" fill="#6E6E6E"/>
<path d="M18.7667 31.0907L18.7404 31.0634L18.7613 31.033L18.7911 31.0641L18.7667 31.0907Z" fill="#6E6E6E"/>
<path d="M17.5064 24.0499C17.4956 24.0597 17.4848 24.0791 17.4679 24.0603C17.4509 24.0415 17.4679 24.0331 17.4834 24.0227L17.5064 24.0499Z" fill="#6E6E6E"/>
<path d="M17.5728 23.9254L17.6025 23.9027C17.5985 23.9157 17.5937 23.9286 17.5897 23.9416L17.5728 23.9254Z" fill="#6E6E6E"/>
<path d="M18.9697 31.2612C18.9733 31.2609 18.9769 31.2614 18.9804 31.2625C18.9838 31.2637 18.987 31.2655 18.9896 31.2679C18.9923 31.2702 18.9944 31.2731 18.9959 31.2763C18.9973 31.2795 18.9981 31.283 18.9981 31.2865C18.9928 31.2918 18.9871 31.2967 18.9812 31.3014L18.9541 31.2761L18.9697 31.2612Z" fill="#F8F2EA"/>
<path d="M21.281 16.2059L21.3033 16.2319L21.2857 16.2448L21.2803 16.2072L21.281 16.2059Z" fill="#F8F2EA"/>
<path d="M25.7666 10.477C25.7735 10.4698 25.7809 10.4629 25.7886 10.4565C25.8106 10.4744 25.7886 10.4802 25.7779 10.4885L25.7666 10.477Z" fill="#F8F2EA"/>
<path d="M18.248 31.6157C18.2568 31.628 18.2825 31.6378 18.2561 31.6566C18.2526 31.6574 18.2489 31.6575 18.2453 31.6569C18.2417 31.6562 18.2383 31.6547 18.2354 31.6526C18.2324 31.6505 18.2301 31.6477 18.2284 31.6446C18.2267 31.6415 18.2258 31.638 18.2257 31.6345L18.248 31.6157Z" fill="#F8F2EA"/>
<path d="M18.2596 31.6547C18.3063 31.6508 18.2853 31.6761 18.2786 31.6955L18.2617 31.6521L18.2596 31.6547Z" fill="#F8F2EA"/>
<path d="M18.2754 31.6963L18.2927 31.6813C18.2927 31.6813 18.2967 31.6813 18.2987 31.6813L18.2754 31.6943V31.6963Z" fill="#F8F2EA"/>
<path d="M21.6633 15.848C21.6701 15.8616 21.6776 15.8772 21.6633 15.8876C21.6579 15.8876 21.6458 15.8811 21.637 15.8772C21.6532 15.8733 21.6708 15.8707 21.6667 15.848H21.6633Z" fill="#F8F2EA"/>
<path d="M21.6636 15.8487L21.6882 15.8519L21.6829 15.8631L21.6636 15.848V15.8487Z" fill="#F8F2EA"/>
<path d="M18.7401 31.0634C18.7259 31.0524 18.7117 31.0401 18.7286 31.0226C18.732 31.0194 18.7496 31.0297 18.7611 31.033L18.7401 31.0634Z" fill="#6E6E6E"/>
<path d="M19.0607 32.332C19.0573 32.3476 19.0519 32.3612 19.0316 32.3567C19.0282 32.3567 19.0269 32.3508 19.0242 32.3476C19.037 32.3431 19.0492 32.3392 19.0614 32.334L19.0607 32.332Z" fill="#F8F2EA"/>
<path d="M19.1173 23.5209C19.1064 23.5332 19.1003 23.5585 19.0753 23.5352C19.0753 23.5157 19.0828 23.5079 19.1017 23.5086L19.1173 23.5209Z" fill="#F8F2EA"/>
<path d="M21.672 14.9016L21.658 14.9201C21.65 14.9016 21.658 14.8996 21.674 14.9043L21.672 14.9016Z" fill="#6E6E6E"/>
<path d="M21.7814 14.7737L21.786 14.7518L21.8 14.7607L21.782 14.7737H21.7814Z" fill="#6E6E6E"/>
<path d="M21.8448 14.7038L21.8195 14.7185L21.8341 14.6923L21.8448 14.7038Z" fill="#6E6E6E"/>
<path d="M26.0994 33.0849V33.0763C26.0979 33.0785 26.0968 33.081 26.0961 33.0836L26.0994 33.0849Z" fill="#6E6E6E"/>
<path d="M17.4107 24.1212V24.164C17.4005 24.164 17.385 24.1737 17.3863 24.1569C17.3877 24.14 17.4032 24.1329 17.4107 24.1212Z" fill="#F8F2EA"/>
<path d="M21.8345 14.6923C21.8347 14.6889 21.8357 14.6855 21.8373 14.6825C21.8389 14.6794 21.8411 14.6767 21.8438 14.6745C21.8465 14.6723 21.8497 14.6706 21.853 14.6695C21.8564 14.6684 21.86 14.668 21.8636 14.6683L21.8446 14.7033L21.8345 14.6923Z" fill="#6E6E6E"/>
<path d="M21.8911 14.6429C21.8911 14.6589 21.8824 14.6685 21.8644 14.6685C21.8644 14.6525 21.871 14.641 21.8911 14.6429Z" fill="#6E6E6E"/>
<path d="M21.2803 16.2072L21.3168 16.2208L21.3006 16.2357L21.281 16.2065L21.2803 16.2072Z" fill="#F8F2EA"/>
<path d="M20.5176 33.2791L20.5076 33.2816L20.5089 33.2747L20.5176 33.2791Z" fill="#6E6E6E"/>
<path d="M18.9663 32.3049L18.9983 32.3087L18.9896 32.3266L18.9683 32.303L18.9663 32.3049Z" fill="#F8F2EA"/>
<path d="M18.5633 29.776C18.6062 29.9057 18.7539 29.9705 18.7736 30.1138C18.6831 30.1352 18.6572 30.0613 18.6198 30.0133C18.167 29.4344 17.8788 28.754 17.7831 28.038C17.6572 27.1856 17.7647 26.3629 18.1582 25.5818C18.318 25.2651 18.5404 24.9808 18.8131 24.7442C18.8458 24.715 18.8812 24.6548 18.9357 24.704C18.9462 24.7141 18.9545 24.7261 18.9601 24.7393C18.9656 24.7525 18.9684 24.7667 18.968 24.7809C18.9677 24.7951 18.9644 24.8091 18.9582 24.8221C18.9521 24.8351 18.9433 24.8467 18.9323 24.8564C18.1153 25.8372 17.9009 26.9729 18.0193 28.1839C18.0673 28.6679 18.2117 29.1387 18.4448 29.5712C18.4612 29.601 18.468 29.636 18.5027 29.6554V29.6516C18.5003 29.6625 18.502 29.674 18.5076 29.6838C18.5133 29.6937 18.5224 29.7013 18.5333 29.7054C18.5328 29.7163 18.5354 29.7272 18.541 29.7368C18.5465 29.7464 18.5547 29.7544 18.5646 29.7598V29.7559C18.5631 29.7625 18.5626 29.7693 18.5633 29.776Z" fill="#181818"/>
<path d="M26.2677 31.3143C26.5287 31.0629 26.7635 30.788 26.9689 30.4936C27.4093 29.8706 27.7606 29.2093 27.8873 28.4574C27.9151 28.2598 27.931 28.0609 27.9349 27.8616C27.9349 27.802 27.9179 27.7255 28.0098 27.7002C28.1228 27.8629 28.1459 28.0477 28.1412 28.235C28.1357 28.7608 27.9703 29.2489 27.7388 29.7189C27.3808 30.4436 26.9219 31.0958 26.2595 31.606C26.0997 31.7349 25.9211 31.841 25.7292 31.921C25.6734 31.9431 25.6128 31.9567 25.5849 31.9022C25.557 31.8478 25.6223 31.8316 25.6584 31.8082C25.8731 31.679 26.0677 31.5216 26.2364 31.3408L26.2677 31.3143Z" fill="#181818"/>
<path d="M18.5319 29.7047C18.521 29.7006 18.5119 29.693 18.5063 29.6831C18.5008 29.6733 18.499 29.6618 18.5014 29.6509C18.5434 29.6522 18.5251 29.6846 18.5319 29.7047Z" fill="#F8F2EA"/>
<path d="M18.5597 29.7559C18.5498 29.7504 18.5417 29.7424 18.5362 29.7328C18.5307 29.7232 18.5281 29.7124 18.5286 29.7014C18.5625 29.7073 18.5401 29.7423 18.5597 29.7559Z" fill="#F8F2EA"/>
<path d="M18.5632 29.7756C18.5599 29.7681 18.5581 29.7601 18.5579 29.752C18.5599 29.7596 18.5612 29.7679 18.5632 29.7756Z" fill="#F8F2EA"/>
<defs>
<filter id="filter0_d_2402_3973" x="0.670532" y="0" width="53.3295" height="49.8975" filterUnits="userSpaceOnUse" color-interpolation-filters="sRGB">
<feFlood flood-opacity="0" result="BackgroundImageFix"/>
<feColorMatrix in="SourceAlpha" type="matrix" values="0 0 0 0 0 0 0 0 0 0 0 0 0 0 0 0 0 0 127 0" result="hardAlpha"/>
<feOffset dx="5" dy="4"/>
<feGaussianBlur stdDeviation="2"/>
<feComposite in2="hardAlpha" operator="out"/>
<feColorMatrix type="matrix" values="0 0 0 0 0 0 0 0 0 0 0 0 0 0 0 0 0 0 0.25 0"/>
<feBlend mode="normal" in2="BackgroundImageFix" result="effect1_dropShadow_2402_3973"/>
<feBlend mode="normal" in="SourceGraphic" in2="effect1_dropShadow_2402_3973" result="shape"/>
</filter>
</defs>
</svg>