<svg width="54" height="50" viewBox="0 0 54 50" fill="none" xmlns="http://www.w3.org/2000/svg">
<g filter="url(#filter0_d_2402_3841)">
<path d="M0 20.9644C0.0810709 15.6407 1.95578 10.9534 5.74916 6.98833C8.84085 3.75737 12.6672 1.68207 17.1179 0.626378C18.4906 0.300849 19.8857 0.111789 21.2987 0.0357312C24.2205 -0.122035 27.0639 0.239567 29.8213 1.18182C32.6432 2.14624 35.1367 3.61569 37.3132 5.57147C39.1655 7.23563 40.6096 9.17924 41.7831 11.3236C42.9914 13.5324 43.7764 15.8576 44.1287 18.3206C44.2867 19.4249 44.3577 20.5341 44.3192 21.6467C44.141 26.8269 42.2434 31.3609 38.543 35.1773C35.4078 38.4104 31.5498 40.4879 27.0209 41.4258C25.7219 41.6948 24.4074 41.8634 23.0763 41.8913C17.1261 42.016 11.8794 40.2532 7.40539 36.5276C3.85247 33.5687 1.59806 29.8532 0.543679 25.4835C0.216647 24.1293 0.0412225 22.755 0.0210693 21.3642C0.0192372 21.2382 0.00824449 21.1126 0.000458027 20.9648L0 20.9644Z" fill="#181818"/>
</g>
<path d="M23.1402 39.8862C20.065 39.9392 17.1969 39.4594 14.4464 38.3915C12.4732 37.6257 10.6297 36.6448 9.02518 35.2983C6.3874 33.0852 4.45865 30.408 3.2435 27.2705C2.71265 25.9006 2.35722 24.4894 2.16806 23.0421C1.98118 21.6157 1.92484 20.1832 2.1305 18.7572C2.40715 16.8396 2.99983 15.0051 3.88566 13.2597C5.63258 9.8175 8.2099 7.06723 11.6075 5.02626C13.8574 3.67503 16.306 2.77537 18.9305 2.31946C20.2226 2.09476 21.5257 1.98915 22.8384 2.00088C24.872 2.01913 26.8695 2.28599 28.8005 2.89533C30.1453 3.31951 31.3975 3.94449 32.5829 4.68161C36.4299 7.07418 39.1584 10.333 40.8737 14.3667C41.618 16.1169 42.0815 17.9349 42.267 19.8159C42.3568 20.7243 42.4071 21.6348 42.3265 22.5444C42.2308 23.6249 42.0018 24.6849 41.6917 25.7285C40.7711 28.8225 39.1451 31.541 36.8279 33.8832C34.4054 36.3318 31.5097 38.0929 28.1533 39.1564C27.1452 39.4759 26.0936 39.6341 25.0383 39.7549C24.3723 39.831 23.7036 39.8649 23.1402 39.8866V39.8862Z" fill="#F8F2EA"/>
<path d="M22.8532 37.9965C20.1107 38.044 17.5528 37.6135 15.0999 36.6553C13.3402 35.9681 11.6961 35.0879 10.2652 33.8796C7.91277 31.8938 6.19267 29.4914 5.10898 26.676C4.63555 25.4467 4.31858 24.1804 4.14988 22.8817C3.98322 21.6018 3.93297 20.3163 4.11638 19.0367C4.3631 17.3161 4.89167 15.6699 5.68167 14.1037C7.2396 11.0149 9.5381 8.54699 12.5682 6.71556C14.5746 5.50306 16.7583 4.69576 19.0989 4.28666C20.2512 4.08503 21.4134 3.99026 22.584 4.00079C24.3977 4.01717 26.1791 4.25663 27.9012 4.8034C29.1005 5.18404 30.2173 5.74486 31.2744 6.40629C34.7052 8.55323 37.1385 11.4774 38.6683 15.097C39.332 16.6675 39.7454 18.2989 39.9108 19.9868C39.9909 20.8019 40.0358 21.6189 39.9639 22.4352C39.8786 23.4047 39.6743 24.3559 39.3978 25.2923C38.5768 28.0687 37.1267 30.5081 35.0602 32.6098C32.8997 34.8071 30.3173 36.3873 27.324 37.3416C26.425 37.6283 25.4871 37.7703 24.546 37.8787C23.952 37.9469 23.3557 37.9773 22.8532 37.9968V37.9965Z" fill="#181818"/>
<path d="M5.60585 8.18503C6.0735 7.51658 6.60252 6.89247 7.16772 6.29791C7.48147 5.96804 7.85476 5.69423 8.23905 5.39478C7.40727 6.38875 6.50404 7.28711 5.64478 8.22197C5.61089 8.22936 5.59302 8.22197 5.60585 8.18503Z" fill="#F8F2EA"/>
<path d="M34.9461 6.04799C35.9588 6.83073 36.878 7.70171 37.6942 8.66961C37.7011 8.70133 37.6915 8.71741 37.6544 8.70568C36.7818 7.79124 35.8429 6.93939 34.903 6.08841C34.8966 6.05537 34.9085 6.03929 34.9456 6.04799H34.9461Z" fill="#F8F2EA"/>
<path d="M43.2727 19.5437C43.3831 20.3565 43.4408 21.1714 43.357 21.9893C43.3258 22.2962 43.2764 22.6013 43.2351 22.9073C43.1394 22.8647 43.2031 22.7947 43.2022 22.7356C43.253 21.9759 43.2997 21.2162 43.2722 20.4543C43.2617 20.1626 43.248 19.871 43.2351 19.5794C43.2228 19.5442 43.2388 19.5355 43.2727 19.5433V19.5437Z" fill="#F8F2EA"/>
<path d="M24.2594 40.3168C23.7891 40.3746 23.3191 40.4342 22.8483 40.4898C22.4058 40.5424 21.962 40.5863 21.52 40.6445C21.4032 40.6602 21.2919 40.6428 21.1783 40.6402C21.1449 40.6393 21.0821 40.6676 21.0899 40.5958C21.0949 40.5502 21.1343 40.5324 21.1815 40.5293C21.3501 40.5189 21.5182 40.5024 21.6872 40.4967C22.447 40.4715 23.2014 40.389 23.9549 40.2973C24.0552 40.2851 24.1564 40.2699 24.2594 40.3164V40.3168Z" fill="#F8F2EA"/>
<path d="M13.3711 3.34119C14.2798 2.85746 15.2733 2.58539 16.2603 2.29811C16.2997 2.2855 16.3093 2.30245 16.3025 2.33635C15.3269 2.65536 14.3554 2.98611 13.4091 3.37814C13.3715 3.38857 13.3624 3.37335 13.3711 3.34119Z" fill="#F8F2EA"/>
<path d="M33.9219 36.6674C34.7156 36.0076 35.5282 35.367 36.2638 34.6447C36.0861 34.9741 34.4216 36.4196 33.9219 36.6674Z" fill="#F8F2EA"/>
<path d="M37.4728 6.82849C37.82 7.07057 39.1533 8.5561 39.3392 8.8938C38.6687 8.24535 38.1415 7.47955 37.4728 6.82849Z" fill="#F8F2EA"/>
<path d="M34.0288 4.81813C33.5478 4.55301 33.0674 4.28746 32.5864 4.02234C33.1164 4.20618 33.677 4.33831 34.0288 4.81813Z" fill="#F8F2EA"/>
<path d="M5.49586 9.28331C5.82518 8.83348 6.1971 8.41451 6.56627 7.99423C6.59192 7.96468 6.6139 7.89514 6.67482 7.9386C6.74215 7.98684 6.68261 8.02552 6.64871 8.06377C6.27725 8.48274 5.90579 8.90215 5.53479 9.32156C5.50227 9.32677 5.48395 9.31852 5.49632 9.28331H5.49586Z" fill="#F8F2EA"/>
<path d="M42.9959 24.5737C42.9002 25.1779 42.7518 25.7702 42.5507 26.3509C42.5397 26.3635 42.5282 26.3639 42.5159 26.3522C42.6766 25.725 42.8402 25.0988 42.956 24.462C43.0426 24.4755 42.9936 24.5329 42.9959 24.5733V24.5737Z" fill="#F8F2EA"/>
<path d="M37.6552 8.70575C37.6684 8.69358 37.6817 8.68185 37.695 8.66968C38.1393 9.15384 38.5268 9.67756 38.8946 10.2152C38.9069 10.2491 38.89 10.2547 38.8598 10.2478C38.4888 9.71233 38.0678 9.21208 37.6552 8.70575Z" fill="#F8F2EA"/>
<path d="M42.9961 24.5737C42.9783 24.538 43.0039 24.488 42.9563 24.4624C43.0383 23.887 43.1203 23.3115 43.2023 22.7361C43.2252 22.7913 43.1899 22.8565 43.2352 22.9078C43.1555 23.4632 43.0758 24.0182 42.9966 24.5737H42.9961Z" fill="#F8F2EA"/>
<path d="M42.3381 27.0078C42.2383 27.4863 42.0262 27.9288 41.8494 28.3825C41.8183 28.4625 41.7821 28.5407 41.7482 28.6198C41.718 28.6237 41.6964 28.6207 41.7166 28.5842C41.9223 28.0518 42.1384 27.5224 42.3097 26.9787C42.3235 26.9739 42.3372 26.9696 42.3464 26.9848C42.35 26.9909 42.345 26.9996 42.3386 27.0078H42.3381Z" fill="#F8F2EA"/>
<path d="M42.6526 15.4409C42.8216 15.9394 42.9842 16.4397 43.0011 16.9682C42.8848 16.4592 42.7689 15.9503 42.6526 15.4409Z" fill="#F8F2EA"/>
<path d="M20.693 1.41238C21.0888 1.37587 21.4827 1.31676 21.8802 1.30676C21.8821 1.32762 21.8844 1.34805 21.8862 1.36891C21.501 1.39586 21.1158 1.42281 20.7301 1.44975C20.6935 1.45888 20.683 1.44454 20.6926 1.41194L20.693 1.41238Z" fill="#F8F2EA"/>
<path d="M1.08236 20.8251V21.8521C1.06325 21.8521 1.04413 21.8512 1.02502 21.8508C0.944002 21.4813 1.086 21.1189 1.08236 20.8251Z" fill="#F8F2EA"/>
<path d="M2.21005 14.5517C2.13768 14.7386 2.06348 14.9255 1.9934 15.1132C1.97508 15.1624 1.9531 15.2019 1.89264 15.1789C1.81477 15.1489 1.87386 15.1063 1.89126 15.0724C1.98058 14.8977 2.07218 14.7247 2.16333 14.5508C2.17936 14.5365 2.19493 14.5369 2.21051 14.5521L2.21005 14.5517Z" fill="#F8F2EA"/>
<path d="M17.2774 1.78086C16.9256 1.86387 16.5743 1.94689 16.2225 2.03033C16.5399 1.86214 16.8899 1.8039 17.2398 1.74479C17.2755 1.73523 17.2861 1.74913 17.2774 1.7813V1.78086Z" fill="#F8F2EA"/>
<path d="M1.87909 26.2165C1.71054 25.894 1.6629 25.5393 1.61389 25.1847C1.70229 25.5285 1.79069 25.8727 1.87909 26.2165Z" fill="#F8F2EA"/>
<path d="M5.4957 9.28333C5.50853 9.29593 5.52135 9.30897 5.53418 9.32157C5.37341 9.53149 5.21264 9.74185 5.05187 9.95177C5.03813 9.94308 5.02485 9.93438 5.01111 9.92569C5.16638 9.70795 5.31386 9.48499 5.4957 9.28333Z" fill="#F8F2EA"/>
<path d="M8.41956 35.9011C8.63483 36.0632 8.8501 36.2253 9.06537 36.3875C8.72872 36.2401 8.52032 36.0824 8.41956 35.9011Z" fill="#F8F2EA"/>
<path d="M25.1798 1.10819C24.9352 1.0908 24.6902 1.07298 24.4277 1.05429C24.6975 0.920432 24.9375 1.07776 25.1844 1.06559C25.1826 1.0795 25.1812 1.09384 25.1794 1.10775L25.1798 1.10819Z" fill="#F8F2EA"/>
<path d="M29.667 2.84705C29.9496 2.88138 30.1946 2.98439 30.4177 3.13911C30.1676 3.04175 29.9171 2.9444 29.667 2.84705Z" fill="#F8F2EA"/>
<path d="M16.3026 2.33645C16.2884 2.32385 16.2747 2.31081 16.2605 2.2982C16.4657 2.20867 16.6851 2.16999 16.9008 2.11914C16.9054 2.13305 16.91 2.14696 16.9146 2.16086C16.7103 2.21954 16.5065 2.27778 16.3022 2.33645H16.3026Z" fill="#F8F2EA"/>
<path d="M26.4209 40.15C26.5954 40.1009 26.7699 40.0513 26.9444 40.0022C26.8404 40.1734 26.649 40.1343 26.4964 40.1873C26.4589 40.1969 26.4163 40.2165 26.4209 40.15Z" fill="#F8F2EA"/>
<path d="M23.0421 40.884C23.322 40.8793 23.5982 40.8041 23.8808 40.8545C23.6009 40.8593 23.3256 40.9458 23.0421 40.884Z" fill="#F8F2EA"/>
<path d="M7.79028 34.8497C7.94922 34.9914 8.10861 35.1335 8.26755 35.2752C8.25747 35.2852 8.24694 35.2956 8.23686 35.3056C8.06098 35.18 7.90708 35.0331 7.79028 34.8497Z" fill="#F8F2EA"/>
<path d="M8.74852 35.7208C8.57951 35.6108 8.42653 35.4843 8.29736 35.3326C8.47416 35.433 8.62852 35.5591 8.77417 35.6955C8.77783 35.7147 8.76913 35.7234 8.74852 35.7208Z" fill="#F8F2EA"/>
<path d="M2.80325 29.0816C2.6915 28.9081 2.61821 28.7208 2.58936 28.5161C2.66997 28.6969 2.75058 28.8782 2.83119 29.059C2.83119 29.0768 2.82203 29.0842 2.80371 29.082L2.80325 29.0816Z" fill="#F8F2EA"/>
<path d="M34.9462 6.04802C34.932 6.06149 34.9178 6.07497 34.9036 6.08844C34.7942 5.99369 34.6847 5.89895 34.5757 5.8042C34.7273 5.85157 34.8441 5.94067 34.9467 6.04802H34.9462Z" fill="#F8F2EA"/>
<path d="M38.8596 10.2478C38.8711 10.2369 38.883 10.2261 38.8944 10.2152C39.014 10.3412 39.096 10.4882 39.1532 10.6516C39.0552 10.5168 38.9576 10.3821 38.8596 10.2478Z" fill="#F8F2EA"/>
<path d="M17.2773 1.78095C17.2649 1.76878 17.2521 1.75661 17.2397 1.74444C17.417 1.68881 17.597 1.64622 17.7848 1.64404C17.7889 1.64839 17.7926 1.65317 17.7967 1.65752C17.6304 1.72532 17.4518 1.74444 17.2773 1.78051V1.78095Z" fill="#F8F2EA"/>
<path d="M11.4032 37.4596C11.5342 37.5322 11.6656 37.6048 11.7966 37.6769C11.6377 37.6526 11.504 37.5822 11.4032 37.4596Z" fill="#F8F2EA"/>
<path d="M26.4209 40.1499C26.43 40.1916 26.4713 40.1747 26.4965 40.1873C26.3398 40.222 26.1836 40.2573 26.027 40.292C26.147 40.2094 26.2826 40.1755 26.4209 40.1499Z" fill="#F8F2EA"/>
<path d="M43.2722 19.5438C43.2599 19.556 43.2476 19.5677 43.2349 19.5799C43.1867 19.4534 43.1999 19.3243 43.2326 19.1935L43.2722 19.5438Z" fill="#F8F2EA"/>
<path d="M9.30601 36.1358C9.18509 36.0675 9.07013 35.9919 8.97394 35.8937C8.97302 35.8767 8.98218 35.8706 8.99913 35.8746C9.11913 35.9241 9.20433 36.0175 9.30509 36.0914C9.32112 36.1058 9.32158 36.1205 9.30601 36.1358Z" fill="#F8F2EA"/>
<path d="M13.3712 3.34126C13.3841 3.35342 13.3964 3.36603 13.4092 3.3782C13.3126 3.44209 13.2054 3.48207 13.0886 3.49946C13.1715 3.42687 13.265 3.37385 13.3708 3.34082L13.3712 3.34126Z" fill="#F8F2EA"/>
<path d="M20.6932 1.41235C20.7055 1.42496 20.7183 1.43756 20.7307 1.45017C20.6103 1.5084 20.4848 1.48015 20.3574 1.45321C20.4692 1.43973 20.5814 1.42583 20.6932 1.41235Z" fill="#F8F2EA"/>
<path d="M2.20948 14.5518C2.194 14.5518 2.17807 14.5509 2.1626 14.5505C2.20857 14.4535 2.25453 14.3566 2.3005 14.2601C2.29732 14.3679 2.27911 14.4687 2.20948 14.5518Z" fill="#F8F2EA"/>
<path d="M2.9812 12.6815C3.03662 12.5741 3.09204 12.4664 3.14747 12.359C3.16121 12.3651 3.1754 12.3712 3.18915 12.3773C3.13647 12.4859 3.10349 12.6033 2.9812 12.6815Z" fill="#F8F2EA"/>
<path d="M42.0162 15.8913C41.9894 15.7888 41.9625 15.6862 41.9357 15.5836C42.0144 15.6597 42.0481 15.7501 42.0495 15.8509C42.0667 15.8857 42.0495 15.8948 42.0158 15.8913H42.0162Z" fill="#F8F2EA"/>
<path d="M41.7163 28.5842C41.7268 28.596 41.7373 28.6081 41.7479 28.6199C41.714 28.7107 41.676 28.7994 41.5844 28.8959C41.6182 28.7672 41.659 28.6729 41.7163 28.5842Z" fill="#F8F2EA"/>
<path d="M5.60575 8.18506C5.61857 8.19723 5.63185 8.20983 5.64468 8.222C5.60117 8.31588 5.52239 8.38238 5.44177 8.44931C5.47429 8.34848 5.52651 8.25938 5.60575 8.18506Z" fill="#F8F2EA"/>
<path d="M2.83041 29.059C2.88775 29.1546 2.94191 29.2506 2.95375 29.3645C2.88457 29.2793 2.82813 29.1885 2.8031 29.082C2.8122 29.0742 2.82131 29.0668 2.83041 29.059Z" fill="#F8F2EA"/>
<path d="M9.30585 36.1358C9.30585 36.121 9.30539 36.1062 9.30493 36.0914C9.39562 36.141 9.47852 36.1997 9.54127 36.284C9.45379 36.2479 9.36585 36.2131 9.30585 36.1362V36.1358Z" fill="#F8F2EA"/>
<path d="M41.7243 14.7544C41.6542 14.6809 41.6018 14.6014 41.6205 14.4636C41.6637 14.5849 41.6942 14.6696 41.7243 14.7544Z" fill="#F8F2EA"/>
<path d="M42.0167 15.8912C42.0281 15.8778 42.039 15.8643 42.0504 15.8508C42.0959 15.9317 42.1091 16.019 42.095 16.1129C42.0691 16.039 42.0427 15.9651 42.0167 15.8912Z" fill="#F8F2EA"/>
<path d="M42.5157 26.3521C42.5276 26.3569 42.5389 26.356 42.5503 26.3508C42.5244 26.4299 42.4984 26.5095 42.457 26.6359C42.4424 26.499 42.4661 26.423 42.5157 26.3526V26.3521Z" fill="#F8F2EA"/>
<path d="M17.7847 1.64452C17.8799 1.59889 17.9798 1.57889 18.1241 1.59498C17.9908 1.62062 17.8996 1.66451 17.7966 1.658C17.7925 1.65365 17.7888 1.64887 17.7847 1.64452Z" fill="#F8F2EA"/>
<path d="M8.97364 35.8937C8.89852 35.8359 8.82341 35.7786 8.74829 35.7208C8.75699 35.7125 8.76524 35.7038 8.77394 35.6956C8.85959 35.7434 8.93517 35.8025 8.99883 35.8746C8.98784 35.8777 8.97959 35.8842 8.97364 35.8937Z" fill="#F8F2EA"/>
<path d="M42.3381 27.0079C42.3286 26.9984 42.319 26.9884 42.3094 26.9788C42.3322 26.9032 42.355 26.8276 42.3777 26.752C42.39 26.8424 42.3936 26.9306 42.3377 27.0079H42.3381Z" fill="#F8F2EA"/>
<path d="M32.6187 35.4593C32.6383 35.5324 32.5656 35.5371 32.5281 35.5713C31.9276 36.0552 31.2112 36.3383 30.4857 36.5888C29.261 37.0081 27.9981 37.3182 26.7132 37.5153C25.0483 37.7841 23.36 37.899 21.6719 37.8584C19.4335 37.7977 17.2344 37.5122 15.1259 36.7475C14.4805 36.5141 13.8449 36.2636 13.2731 35.8918C13.1742 35.838 13.0847 35.7701 13.0076 35.6903C13.26 35.7106 13.3343 35.6709 13.443 35.45C13.5052 35.3328 13.5505 35.2083 13.5778 35.0797C13.6881 34.4986 13.6824 33.9081 13.7281 33.3231C13.8131 32.1412 14.049 30.9735 14.4307 29.8459C14.7843 28.785 15.4121 27.8258 16.2565 27.0563C16.8594 26.5063 17.5366 26.045 18.1787 25.5393C18.8208 25.0337 19.4858 24.5545 20.0078 23.9259C20.0683 23.8536 20.0944 23.8839 20.1402 23.9353C20.3296 24.1486 20.5614 24.3241 20.8223 24.4518C21.9219 24.9963 23.0656 25.0127 24.2281 24.6852C24.7567 24.5463 25.2296 24.2599 25.5858 23.8629C26.0261 24.6175 26.6715 25.1737 27.3365 25.7136C27.6894 25.9991 28.057 26.2706 28.3732 26.5942C28.8886 27.1216 29.3118 27.7167 29.7391 28.311C30.8983 29.9236 31.5608 31.7128 31.8933 33.6265C31.9791 34.1189 32.0469 34.6137 32.109 35.1092C32.1457 35.4002 32.372 35.5487 32.6187 35.4593Z" fill="#F8F2EA"/>
<path d="M32.6187 35.4594C32.3736 35.5488 32.1457 35.4003 32.1089 35.1093C32.0468 34.6138 31.979 34.119 31.8932 33.6266C31.5607 31.7129 30.8982 29.9222 29.739 28.3103C29.3117 27.716 28.8886 27.1209 28.3731 26.5935C28.0569 26.2699 27.6893 25.9984 27.3364 25.7129C26.6714 25.173 26.0293 24.6168 25.5857 23.8622C25.2295 24.2592 24.7566 24.5456 24.228 24.6845C23.0655 25.0151 21.9218 24.9995 20.8222 24.4511C20.5613 24.3234 20.3295 24.1479 20.1401 23.9346C20.0943 23.8832 20.0682 23.8529 20.0077 23.9252C19.4874 24.5538 18.8216 25.0338 18.1786 25.5386C17.5357 26.0435 16.8593 26.5056 16.2564 27.0556C15.4119 27.8253 14.7841 28.7848 14.4306 29.846C14.0497 30.9706 13.8138 32.1351 13.728 33.3139C13.6823 33.8989 13.688 34.4893 13.5777 35.0704C13.5504 35.1991 13.5051 35.3236 13.4429 35.4407C13.3326 35.6616 13.2599 35.7013 13.0075 35.6811L12.8947 35.5597C12.8841 35.5403 12.8825 35.5092 12.8449 35.5232C12.8212 35.3746 12.7322 35.2478 12.6995 35.0992C12.5688 34.5041 12.5941 33.9043 12.6423 33.31C12.7521 31.8938 13.1011 30.5037 13.6757 29.1933C14.0701 28.2781 14.6387 27.4402 15.3529 26.7218C15.9142 26.1643 16.5132 25.6422 17.146 25.159C17.8077 24.651 18.4531 24.1236 19.0568 23.5573C19.7104 22.9497 20.1646 22.2535 20.2128 21.3581C20.2193 21.2337 20.2013 21.1442 20.0772 21.0874C19.8542 20.9863 19.7194 20.7506 19.453 20.7148C18.7807 19.9898 18.2522 19.187 18.0071 18.2371C17.9967 18.1855 17.973 18.1371 17.938 18.0963C17.9031 18.0556 17.858 18.0238 17.8069 18.0038C17.5021 17.8553 17.2638 17.607 17.1359 17.3046C17.008 17.0021 16.9991 16.6659 17.1109 16.3577C17.1877 16.1609 17.2964 15.9874 17.5039 15.8909C17.557 15.8668 17.57 15.8513 17.5512 15.7875C17.4372 15.3847 17.418 14.9629 17.4949 14.5522C17.6721 13.4926 18.2644 12.6852 19.2039 12.0955C19.6467 11.8186 20.1548 11.6863 20.6237 11.4732C21.2184 11.1986 21.7551 10.8641 22.0942 10.2985C22.1508 10.2082 22.2189 10.1249 22.2968 10.0504C22.5116 9.83799 22.8139 9.90645 22.9078 10.1849C22.9371 10.2756 22.9504 10.3702 22.947 10.465C22.947 10.5428 22.947 10.6268 22.947 10.7201C23.0445 10.6501 23.1275 10.5636 23.1921 10.465C23.2904 10.3204 23.4312 10.2064 23.5969 10.1373C23.7626 10.0682 23.9459 10.0468 24.1242 10.076C24.1933 10.0786 24.2592 10.1042 24.3105 10.1482C24.3619 10.1923 24.3954 10.2521 24.4053 10.3172C24.4543 10.5132 24.4053 10.7061 24.3685 10.8936C24.3571 10.952 24.3391 10.9932 24.42 11.0298C24.6945 11.1519 24.9567 11.2981 25.2369 11.4133C26.0024 11.7322 26.5693 12.2768 27.0382 12.9053C27.649 13.7028 28.0461 14.6302 28.195 15.607C28.1957 15.6405 28.2072 15.6729 28.2279 15.6999C28.2487 15.7269 28.2777 15.7472 28.311 15.7579C28.4997 15.8303 28.6059 15.9781 28.6851 16.1554C28.9449 16.7373 28.4107 17.5611 27.9311 17.7626C27.884 17.7785 27.8423 17.8062 27.8102 17.8428C27.7782 17.8793 27.757 17.9233 27.7489 17.9703C27.4647 19.0656 26.9238 20.0271 25.9852 20.7311C25.6584 20.9762 25.5939 21.2313 25.6396 21.5721C25.6503 21.6498 25.6568 21.7276 25.665 21.8054C25.7455 22.6833 26.142 23.5077 26.7874 24.1392C27.2 24.5515 27.686 24.8867 28.1182 25.2741C28.65 25.7479 29.2072 26.1968 29.6851 26.7218C30.408 27.5161 31.1188 28.3212 31.631 29.261C32.412 30.6915 32.782 32.2279 32.8964 33.825C32.934 34.347 32.925 34.8728 32.7159 35.373C32.6889 35.373 32.6799 35.3831 32.6824 35.4065C32.6554 35.4065 32.6505 35.422 32.6481 35.4407C32.6276 35.4407 32.6129 35.4508 32.6129 35.4742L32.6187 35.4594ZM19.6818 23.2757C19.6949 23.2757 19.703 23.2982 19.7226 23.2804C19.7422 23.2625 19.7185 23.2555 19.7169 23.243C19.7324 23.2516 19.7512 23.264 19.7618 23.243C19.7618 23.236 19.7529 23.2228 19.7471 23.2127C19.779 23.2531 19.7913 23.2321 19.8002 23.1979L19.8133 23.1792L19.8231 23.187L19.8043 23.2026L19.7488 23.2135C19.7488 23.2321 19.7414 23.2469 19.7169 23.2453C19.7169 23.2656 19.7071 23.2804 19.6818 23.278C19.6818 23.2982 19.6744 23.3076 19.6524 23.3052C19.6483 23.3286 19.6409 23.3488 19.6099 23.3426L19.6205 23.3854L19.6409 23.3698L19.6074 23.3434C19.6238 23.3488 19.6352 23.3706 19.6581 23.3511C19.681 23.3317 19.6581 23.32 19.6524 23.3052C19.663 23.3107 19.6777 23.3247 19.6834 23.3216C19.7112 23.306 19.6932 23.2905 19.6818 23.2757ZM18.5119 24.2543H18.5659L18.5577 24.2232C18.5855 24.2839 18.619 24.2232 18.6492 24.2271L18.873 24.0326C18.7603 24.0614 18.6516 24.0941 18.6492 24.2286C18.6239 24.1617 18.5879 24.2286 18.5585 24.2232C18.5512 24.2442 18.5454 24.2667 18.5136 24.2559C18.5258 24.2629 18.5046 24.2986 18.5405 24.2839L18.5119 24.2543ZM19.0233 23.8653C19.0364 23.8653 19.0429 23.9042 19.0634 23.8731L19.0233 23.8653ZM27.0864 13.4141C27.0864 13.4016 27.0954 13.3775 27.0652 13.3954L27.0881 13.4125L27.097 13.4358L27.1093 13.4226L27.0864 13.4141ZM27.0219 13.3176L27.0317 13.3409L27.0431 13.3285L27.0202 13.3192C27.0202 13.3067 27.0276 13.2826 26.9982 13.3013L27.0219 13.3176ZM19.5503 23.4671C19.5601 23.4546 19.5903 23.4453 19.569 23.4258C19.5478 23.4064 19.5388 23.4313 19.5306 23.4468L19.498 23.4779C19.2913 23.6219 19.2006 23.7113 19.1712 23.8031C19.1459 23.7627 19.1304 23.8031 19.1116 23.8109C19.1116 23.8109 19.1165 23.8303 19.1214 23.8311C19.1483 23.8358 19.1598 23.8179 19.1688 23.7977C19.2943 23.7078 19.4111 23.6073 19.5176 23.4974L19.5503 23.4671ZM17.6052 15.3767L17.5635 15.0026C17.5684 15.1301 17.5079 15.2593 17.5692 15.3845C17.5693 15.504 17.5855 15.6229 17.6174 15.7385C17.628 15.7743 17.6305 15.8365 17.6885 15.8225C17.7465 15.8085 17.7089 15.7556 17.6975 15.7214C17.6521 15.6105 17.6211 15.4948 17.6052 15.3767ZM19.3485 14.8159C19.2063 14.9668 19.0976 15.1436 19.0291 15.3355C18.9224 15.5351 18.8401 15.7458 18.784 15.9633L18.8281 15.9796C18.9005 15.7883 18.9727 15.5974 19.0446 15.4071L19.3713 14.8369C19.3776 14.8355 19.3833 14.8325 19.388 14.8284C19.3926 14.8242 19.3961 14.819 19.398 14.8132C19.3999 14.8074 19.4002 14.8012 19.3988 14.7953C19.3974 14.7893 19.3944 14.7838 19.3901 14.7793L19.3485 14.8159ZM20.2471 22.3002C20.3611 22.0499 20.4206 21.7803 20.4219 21.5075C20.3793 21.7451 20.3173 21.9792 20.2365 22.2076C20.2311 22.2228 20.2292 22.239 20.231 22.255C20.2329 22.271 20.2384 22.2864 20.2471 22.3002L20.2112 22.2846V22.2994L20.2471 22.3002ZM19.7202 20.0294C19.7283 20.0186 19.7643 20.0419 19.7512 20.0061L19.721 20.0318C19.7545 19.9408 19.6687 19.9011 19.6262 19.849C19.2724 19.4317 18.9883 18.9649 18.784 18.4651C18.6737 18.1897 18.5969 17.9042 18.5111 17.6218C18.5758 18.1648 18.7571 18.6894 19.0438 19.1629C19.2276 19.4834 19.4792 19.7525 19.7177 20.0318L19.7202 20.0294ZM26.9614 15.9641C27.0506 16.283 27.1134 16.6082 27.1493 16.9365C27.1575 16.5934 27.1338 16.2558 26.9957 15.9337C26.4803 14.2068 24.732 13.211 23.2885 13.2243C23.2975 13.2468 23.3179 13.2499 23.3408 13.2523C23.719 13.2899 24.0901 13.3765 24.4437 13.5097C25.6723 13.9648 26.5423 14.7544 26.959 15.9664L26.9614 15.9641ZM20.8631 21.5223L20.8426 21.5028L20.8369 21.5417C20.9019 22.1089 20.7924 22.6819 20.5216 23.1909C20.5047 23.2139 20.4981 23.2424 20.5031 23.2701C20.5082 23.2978 20.5245 23.3224 20.5485 23.3387C20.6901 23.4637 20.849 23.5697 21.0207 23.6538C21.6228 23.9797 22.2853 24.073 22.9634 24.0871C23.3674 24.1047 23.7703 24.0329 24.1404 23.8774C24.5104 23.722 24.8377 23.487 25.0964 23.1909C25.1304 23.1612 25.1534 23.1218 25.1618 23.0785C25.1702 23.0353 25.1636 22.9906 25.1429 22.9513C25.0736 22.7798 25.0216 22.6024 24.9877 22.4215C24.9251 22.0945 24.8817 21.7644 24.8578 21.4328L24.7394 21.481C23.8551 21.8509 22.8765 21.9661 21.9242 21.8124C21.5629 21.7432 21.208 21.6461 20.8631 21.5223ZM22.7534 13.4055C22.0999 13.4172 21.5779 13.474 21.0853 13.7385C19.5331 14.5708 18.7317 16.0722 18.976 17.7393C19.1025 18.5719 19.5073 19.3435 20.1304 19.9399C20.7536 20.5362 21.5619 20.9255 22.4356 21.0501C22.9127 21.1139 23.3964 21.138 23.8612 20.9925C24.815 20.7007 25.6361 20.1083 26.1894 19.313C27.1289 17.9905 27.1428 16.3157 26.2107 15.0858C25.3357 13.9283 24.1079 13.4374 22.7534 13.4016V13.4055ZM18.0569 15.7649C18.0683 15.7595 18.0757 15.7579 18.0773 15.7548C18.0896 15.726 18.1018 15.6972 18.1125 15.6677C18.3854 14.8962 18.8683 14.2074 19.5119 13.6716C20.484 12.8649 21.64 12.5008 22.907 12.4378C24.9142 12.3382 27.1191 13.4872 27.7326 15.6389C27.7481 15.6926 27.744 15.7509 27.8429 15.7268C27.9417 15.7027 27.9033 15.649 27.8919 15.5977C27.7735 14.9767 27.5398 14.3808 27.2016 13.838C26.8324 13.2546 26.4214 12.7077 25.8684 12.2659C25.3652 11.8637 24.7859 11.5867 24.1937 11.3324C24.0115 11.2546 23.9805 11.2009 24.0303 11.0212C24.0614 10.9258 24.0769 10.8263 24.076 10.7264C24.0613 10.4759 23.8547 10.3646 23.6243 10.4883C23.489 10.5596 23.3706 10.6565 23.2763 10.773C23.1023 10.9885 22.9446 11.2196 22.6987 11.3744C22.6317 11.4172 22.5664 11.4646 22.4896 11.4109C22.4128 11.3573 22.4602 11.2888 22.4822 11.2258C22.5598 10.9924 22.6619 10.773 22.6815 10.5257C22.6873 10.4479 22.7077 10.353 22.6113 10.3172C22.5149 10.2814 22.4307 10.339 22.3613 10.402C22.336 10.4297 22.313 10.4594 22.2927 10.4907C22.0665 10.795 21.7894 11.062 21.4725 11.281C20.8868 11.677 20.2536 11.9959 19.6344 12.3382C18.8591 12.7668 18.4294 13.4421 18.1443 14.2169C17.9712 14.715 17.941 15.2481 18.0569 15.761V15.7649ZM27.9115 17.3208C27.9752 17.243 28.0447 17.1652 28.1019 17.0874C28.284 16.8198 28.2571 16.5343 28.1623 16.2496C28.128 16.1477 28.0267 16.1375 27.9295 16.1422C27.8699 16.1422 27.8421 16.1718 27.8527 16.2348C27.9099 16.5833 27.8878 16.9435 27.9115 17.3137V17.3208ZM17.9287 16.3382C17.423 16.5568 17.4001 17.0703 17.8723 17.4398C17.8485 17.0694 17.8674 16.6977 17.9287 16.3312V16.3382ZM30.1131 28.4939C30.4399 29.0719 30.774 29.6468 31.0657 30.2411C30.8588 29.6098 30.5363 29.0183 30.1131 28.4939ZM25.4076 23.5861C25.1965 23.8818 24.9145 24.1255 24.585 24.2971C24.926 24.1835 25.2237 23.9758 25.4403 23.7004C25.4754 23.6538 25.4444 23.6226 25.4076 23.5861ZM13.2517 33.6072C13.264 33.4477 13.2713 33.2882 13.2901 33.1295C13.3166 33.0011 13.3166 32.869 13.2901 32.7406C13.2011 32.9864 13.2411 33.296 13.2517 33.6072ZM20.792 24.0995C20.6025 23.9548 20.4203 23.8016 20.2324 23.6538C20.3689 23.8515 20.5635 24.0065 20.792 24.0995ZM25.5718 22.101C25.5392 21.765 25.5343 21.4281 25.5351 21.0897C25.4772 21.4259 25.4896 21.7695 25.5718 22.101ZM13.1545 33.0121C13.096 33.3267 13.0921 33.6484 13.1431 33.9642C13.1741 33.6468 13.1096 33.3295 13.1537 33.0121H13.1545ZM23.2844 13.2375C23.1594 13.1846 23.1594 13.1846 23.0157 13.2219C23.1002 13.2583 23.1959 13.2639 23.2844 13.2375ZM32.2559 31.9977C32.2563 31.9031 32.2325 31.8099 32.1865 31.7262C32.1835 31.821 32.2075 31.9148 32.2559 31.9977ZM32.2788 32.0941V32.0653C32.2788 32.0653 32.2698 32.0716 32.2698 32.0755C32.2687 32.085 32.2687 32.0947 32.2698 32.1042C32.2698 32.1042 32.2747 32.0972 32.2764 32.0941H32.2788ZM30.0845 28.4263L30.0478 28.4519C30.0534 28.4588 30.0603 28.4647 30.0682 28.469C30.0796 28.4729 30.0984 28.4846 30.1017 28.462C30.1009 28.4527 30.0894 28.4457 30.0821 28.4263H30.0845ZM26.9704 13.2351C26.9704 13.2351 26.9622 13.2406 26.9622 13.2437C26.9622 13.2468 26.9663 13.2499 26.9688 13.253C26.9712 13.2561 26.977 13.2476 26.9778 13.2445C26.9786 13.2414 26.9729 13.2383 26.9704 13.2351ZM27.1338 13.4934L27.1412 13.4989V13.4895L27.1338 13.4934ZM20.8435 24.1104C20.8394 24.1143 20.8328 24.1182 20.8336 24.1205C20.8359 24.1275 20.839 24.1343 20.8426 24.1407C20.8426 24.1407 20.8524 24.1337 20.8516 24.1314C20.8492 24.1239 20.8456 24.1168 20.841 24.1104H20.8435Z" fill="#181818"/>
<path d="M32.7151 35.3691C32.9242 34.8689 32.9332 34.343 32.8956 33.8211C32.7813 32.224 32.4112 30.6876 31.6302 29.257C31.118 28.3173 30.4048 27.5122 29.6843 26.7179C29.2064 26.1928 28.6492 25.744 28.1174 25.2702C27.6828 24.8813 27.1992 24.5475 26.7866 24.1352C26.1412 23.5038 25.7447 22.6794 25.6642 21.8015C25.656 21.7237 25.6495 21.6459 25.6389 21.5681C25.5931 21.2274 25.6576 20.9722 25.9844 20.7272C26.9231 20.0232 27.4639 19.0617 27.7482 17.9664C27.7562 17.9194 27.7774 17.8754 27.8094 17.8388C27.8415 17.8023 27.8832 17.7746 27.9303 17.7587C28.4099 17.5572 28.9441 16.7334 28.6844 16.1515C28.6027 15.9741 28.4989 15.8263 28.3102 15.754C28.2769 15.7433 28.2479 15.723 28.2271 15.696C28.2064 15.669 28.1949 15.6365 28.1942 15.6031C28.0453 14.6263 27.6482 13.6988 27.0374 12.9014C26.5685 12.2728 26.0016 11.7283 25.2361 11.4093C24.9584 11.2942 24.6961 11.148 24.4192 11.0258C24.3375 10.9893 24.3563 10.948 24.3677 10.8897C24.4061 10.6991 24.4494 10.5093 24.4045 10.3133C24.3946 10.2481 24.3611 10.1883 24.3098 10.1443C24.2584 10.1002 24.1925 10.0747 24.1235 10.0721C23.9452 10.0429 23.7618 10.0642 23.5961 10.1334C23.4304 10.2025 23.2897 10.3165 23.1913 10.4611C23.1268 10.5597 23.0437 10.6462 22.9463 10.7162C22.9463 10.6229 22.9463 10.542 22.9463 10.4611C22.9496 10.3663 22.9363 10.2717 22.907 10.181C22.8131 9.90252 22.5108 9.83406 22.296 10.0464C22.2181 10.121 22.15 10.2043 22.0934 10.2946C21.7544 10.8601 21.2176 11.1946 20.6229 11.4692C20.154 11.6863 19.6426 11.8185 19.2031 12.0916C18.2636 12.6805 17.6714 13.4918 17.4941 14.5482C17.4172 14.9589 17.4364 15.3807 17.5504 15.7836C17.5692 15.8473 17.5562 15.8613 17.5031 15.887C17.2956 15.9835 17.1869 16.157 17.1101 16.3538C16.9984 16.6619 17.0072 16.9982 17.1351 17.3007C17.263 17.6031 17.5013 17.8514 17.8061 17.9998C17.8572 18.0198 17.9023 18.0516 17.9372 18.0924C17.9722 18.1331 17.9959 18.1815 18.0063 18.2332C18.2514 19.183 18.7799 19.9858 19.4523 20.7109C19.7186 20.7466 19.8534 20.9824 20.0764 21.0835C20.2006 21.1403 20.2185 21.2297 20.212 21.3542C20.1638 22.2496 19.7063 22.9458 19.056 23.5534C18.4499 24.1197 17.807 24.6471 17.1453 25.1551C16.5124 25.6383 15.9134 26.1603 15.3521 26.7179C14.6379 27.4363 14.0693 28.2742 13.6749 29.1894C13.1027 30.5014 12.7565 31.8929 12.6497 33.31C12.6015 33.9058 12.5762 34.5056 12.7069 35.0992C12.7396 35.2478 12.8286 35.3746 12.8523 35.5231C12.7347 35.5006 12.7134 35.3987 12.6783 35.3178C12.4874 34.8637 12.3852 34.3801 12.3768 33.8911C12.3393 32.6596 12.4463 31.4391 12.8114 30.2567C13.34 28.5452 14.2901 27.0726 15.7279 25.9128C16.2907 25.4585 16.9116 25.0703 17.4802 24.6191C18.1566 24.0816 18.7873 23.5044 19.2399 22.7747C19.4299 22.4726 19.5862 22.1524 19.7063 21.8194C19.7357 21.7416 19.7341 21.6903 19.6516 21.6366C18.5626 20.9271 17.9475 19.9166 17.6281 18.7217C17.6191 18.679 17.5996 18.6389 17.5712 18.6046C17.5428 18.5704 17.5063 18.5431 17.4647 18.5249C16.4419 18.0099 16.2009 16.8376 16.9459 16.0146C16.9861 15.958 17.0388 15.9104 17.1003 15.8753C17.3135 15.7906 17.2997 15.642 17.2637 15.4669C17.1624 14.9465 17.1224 14.4222 17.2637 13.9033C17.4516 13.2102 17.8993 12.6773 18.4499 12.2129C18.8903 11.8359 19.4091 11.5515 19.9726 11.3782C20.2341 11.3004 20.4808 11.1744 20.7365 11.0779C21.2569 10.8811 21.5804 10.4642 21.9545 10.104C22.1293 9.93597 22.2894 9.75238 22.5329 9.66837C22.8907 9.54546 23.0835 9.65437 23.1374 10.0091C23.1415 10.0348 23.1431 10.0604 23.1497 10.1157C23.2224 10.048 23.2787 9.99431 23.3368 9.94219C23.4643 9.83341 23.6228 9.76296 23.7923 9.73971C23.9618 9.71646 24.1347 9.74143 24.2893 9.8115C24.3562 9.84844 24.414 9.89847 24.4591 9.95827C24.5042 10.0181 24.5354 10.0863 24.5507 10.1585C24.6029 10.3469 24.6241 10.5418 24.6136 10.7364C24.6095 10.8321 24.6136 10.885 24.7272 10.9146C25.5179 11.113 26.1486 11.5587 26.6878 12.1235C27.433 12.8924 27.9715 13.8218 28.2571 14.8322C28.3196 15.0555 28.3603 15.2839 28.3788 15.5144C28.3785 15.5562 28.3901 15.5974 28.4122 15.6335C28.4343 15.6696 28.4663 15.6994 28.5046 15.7198C28.57 15.7571 28.6272 15.8077 28.6901 15.8512C29.1533 16.1717 29.1933 16.5342 28.9474 17.0181C28.7916 17.3459 28.5353 17.6212 28.2122 17.8077C28.1798 17.8249 28.1519 17.8489 28.1307 17.8779C28.1095 17.9069 28.0954 17.94 28.0896 17.9749C27.8013 19.3021 27.1494 20.423 26.0146 21.2655C25.9824 21.289 25.9571 21.32 25.9413 21.3557C25.9256 21.3913 25.9199 21.4302 25.9248 21.4686C25.9248 22.3803 26.3185 23.1341 26.9615 23.7852C27.4876 24.3173 28.0872 24.7762 28.6288 25.2928C29.7202 26.3352 30.8125 27.3745 31.6514 28.6261C32.2388 29.5052 32.595 30.4737 32.8858 31.4686C33.1321 32.3103 33.2423 33.1827 33.2126 34.056C33.2056 34.3823 33.1401 34.7051 33.019 35.0105C32.9544 35.1544 32.8826 35.2999 32.7151 35.3691Z" fill="#F8F2EA"/>
<path d="M29.4923 22.0271C29.6149 21.6086 30.0454 21.4919 30.3959 21.5712C30.7463 21.6506 30.886 21.9151 30.7872 22.2659C30.6295 22.8431 30.1156 22.9917 29.65 22.595C29.5454 22.4192 29.4335 22.2449 29.4923 22.0271ZM30.2276 22.4939C30.3697 22.4752 30.4612 22.3554 30.4645 22.1827C30.4645 22.0753 30.4293 21.9983 30.2962 22.0045C30.1042 21.9975 29.8975 22.136 29.8967 22.2737C29.8959 22.4114 30.0503 22.4993 30.2276 22.4931V22.4939Z" fill="#181818"/>
<path d="M11.9186 19.761C11.6269 19.761 11.3868 19.5097 11.3884 19.2056C11.3854 19.1358 11.3973 19.0662 11.4235 19.0009C11.4496 18.9357 11.4894 18.8762 11.5405 18.8261C11.5915 18.7759 11.6527 18.7362 11.7204 18.7093C11.7881 18.6824 11.8608 18.6689 11.9341 18.6696C12.2021 18.6742 12.4749 18.9613 12.4716 19.2359C12.474 19.3056 12.4614 19.375 12.4344 19.4399C12.4074 19.5047 12.3667 19.5636 12.3149 19.6128C12.263 19.6621 12.2011 19.7006 12.1329 19.7261C12.0647 19.7516 11.9918 19.7635 11.9186 19.761ZM12.0738 19.001C11.9562 19.001 11.8418 19.106 11.8442 19.1947C11.8467 19.2834 11.9766 19.4405 12.0624 19.4405C12.1481 19.4405 12.2829 19.2662 12.2772 19.1737C12.2682 19.0461 12.1718 19.0165 12.0779 19.001H12.0738Z" fill="#181818"/>
<path d="M33.0852 16.3515C33.0852 16.679 32.943 16.854 32.6767 16.8525C32.5431 16.8491 32.4161 16.7965 32.3222 16.7059C32.2284 16.6152 32.1751 16.4935 32.1735 16.3663C32.1735 16.1407 32.3891 15.9571 32.6636 15.9501C32.7191 15.9498 32.774 15.9599 32.8253 15.98C32.8766 16.0001 32.9232 16.0296 32.9624 16.067C33.0016 16.1043 33.0327 16.1487 33.0537 16.1975C33.0748 16.2463 33.0855 16.2987 33.0852 16.3515ZM32.8082 16.5802C32.9308 16.4689 32.9381 16.3468 32.8246 16.2854C32.7592 16.115 32.6612 16.2294 32.5697 16.2581C32.5352 16.2671 32.5056 16.2881 32.4867 16.3169C32.4678 16.3458 32.461 16.3803 32.4676 16.4137C32.4714 16.4612 32.4887 16.5069 32.5174 16.5459C32.5461 16.5849 32.5854 16.6158 32.6309 16.6354C32.6464 16.643 32.6632 16.6476 32.6805 16.649C32.6978 16.6503 32.7152 16.6484 32.7317 16.6432C32.7483 16.6381 32.7635 16.6299 32.7766 16.619C32.7898 16.6082 32.8005 16.595 32.8082 16.5802Z" fill="#181818"/>
<path d="M9.46369 15.2639C9.46369 15.4972 9.31338 15.6785 9.10996 15.6824C9.00187 15.6781 8.89896 15.6371 8.81996 15.5667C8.74095 15.4963 8.69109 15.4013 8.67944 15.2989C8.68007 15.1957 8.72185 15.0966 8.79632 15.0216C8.87079 14.9467 8.97239 14.9014 9.08055 14.8951C9.13172 14.8934 9.18271 14.9017 9.23032 14.9197C9.27792 14.9376 9.32109 14.9648 9.3571 14.9994C9.39311 15.0341 9.42117 15.0755 9.43952 15.121C9.45787 15.1665 9.4661 15.2152 9.46369 15.2639ZM9.32808 15.2483C9.30684 15.1503 9.22352 15.1355 9.15081 15.1332C9.04951 15.1332 9.01112 15.211 9.00703 15.2888C9.00443 15.3072 9.00626 15.3259 9.01239 15.3435C9.01853 15.3611 9.02879 15.3772 9.04242 15.3904C9.05604 15.4037 9.07266 15.4139 9.09102 15.4201C9.10938 15.4263 9.12899 15.4285 9.14836 15.4264C9.24721 15.4163 9.28397 15.323 9.32563 15.2483H9.32808Z" fill="#181818"/>
<path d="M24.4135 7.48788C24.3624 7.48768 24.3118 7.47778 24.2647 7.45874C24.2176 7.4397 24.175 7.41191 24.1393 7.377C24.1036 7.34208 24.0756 7.30075 24.0569 7.2554C24.0382 7.21006 24.0292 7.16162 24.0304 7.11292C24.0304 6.927 24.224 6.75741 24.4388 6.75819C24.4857 6.75603 24.5325 6.76311 24.5764 6.77899C24.6202 6.79486 24.6602 6.81919 24.6937 6.85045C24.7272 6.88171 24.7536 6.91922 24.7711 6.96064C24.7887 7.00206 24.7971 7.04648 24.7958 7.09114C24.7981 7.14111 24.7901 7.19101 24.7721 7.23801C24.7541 7.285 24.7266 7.32816 24.6911 7.36501C24.6556 7.40186 24.6128 7.43168 24.5651 7.45276C24.5175 7.47384 24.466 7.48578 24.4135 7.48788ZM24.6112 7.0818C24.6186 7.00401 24.581 6.96589 24.5066 6.98068C24.4576 6.98663 24.412 7.00787 24.377 7.04108C24.342 7.07429 24.3195 7.1176 24.313 7.16426C24.3109 7.184 24.3134 7.20394 24.3203 7.22266C24.3272 7.24138 24.3383 7.25844 24.3529 7.27261C24.3675 7.28679 24.3851 7.29774 24.4046 7.30469C24.4242 7.31165 24.445 7.31443 24.4658 7.31284C24.5818 7.29262 24.5965 7.17904 24.6088 7.0818H24.6112Z" fill="#181818"/>
<path d="M14.099 16.7987C14.099 16.9955 13.9756 17.1285 13.8016 17.1278C13.6276 17.127 13.4748 16.952 13.4822 16.7699C13.4887 16.6143 13.6252 16.5078 13.809 16.5085C13.9928 16.5093 14.1006 16.6151 14.099 16.7987ZM13.8367 16.9177C13.9094 16.9177 13.9111 16.8648 13.9266 16.8306C13.9421 16.7964 13.9119 16.7707 13.8751 16.7707C13.822 16.7707 13.7975 16.8034 13.7934 16.8524C13.7934 16.8851 13.8041 16.9154 13.8367 16.9177Z" fill="#181818"/>
<path d="M25.7581 9.17046C25.7555 9.13843 25.7604 9.10624 25.7723 9.0762C25.7843 9.04617 25.8031 9.01902 25.8274 8.99672C25.8517 8.97441 25.8808 8.9575 25.9128 8.94719C25.9447 8.93688 25.9787 8.93343 26.0122 8.93708C26.1633 8.93708 26.2401 9.0071 26.2418 9.14556C26.2434 9.28403 26.1225 9.43028 25.9901 9.4295C25.8709 9.43261 25.7565 9.30348 25.7581 9.17046ZM25.9893 9.27081C26.0138 9.26927 26.0369 9.2591 26.0539 9.24227C26.071 9.22545 26.0809 9.20317 26.0816 9.17979C26.0906 9.11522 26.0408 9.11989 26 9.11756C25.9591 9.11523 25.9134 9.13078 25.9183 9.18524C25.9207 9.23113 25.933 9.2677 25.9893 9.27081Z" fill="#181818"/>
<path d="M29.4923 22.0271C29.4335 22.2449 29.5454 22.4161 29.65 22.595C29.4629 22.5312 29.3143 22.3383 29.3469 22.1905C29.3633 22.1158 29.3878 22.0357 29.4923 22.0271Z" fill="#F8F2EA"/>
<path d="M32.6816 35.4002C32.6816 35.3774 32.688 35.3645 32.7141 35.3675C32.7348 35.407 32.7094 35.4047 32.6816 35.4002Z" fill="#F8F2EA"/>
<path d="M32.6498 35.4321C32.6498 35.4138 32.6569 35.3964 32.6831 35.3986C32.6878 35.4252 32.6886 35.4457 32.6498 35.4321Z" fill="#F8F2EA"/>
<path d="M32.6155 35.4641C32.6155 35.4413 32.6297 35.4337 32.6496 35.4314C32.663 35.4694 32.644 35.4694 32.6155 35.4641Z" fill="#F8F2EA"/>
<path d="M12.8458 35.5246C12.8831 35.5106 12.8847 35.5417 12.8953 35.5612C12.8644 35.5651 12.8425 35.5604 12.8458 35.5246Z" fill="#F8F2EA"/>
<path d="M22.7535 13.4016C24.108 13.4374 25.3358 13.9283 26.2108 15.0819C27.1429 16.3118 27.129 17.9851 26.1895 19.3091C25.6362 20.1044 24.8151 20.6968 23.8613 20.9886C23.3965 21.1341 22.9128 21.11 22.4357 21.0462C21.562 20.9216 20.7537 20.5323 20.1305 19.936C19.5074 19.3396 19.1026 18.568 18.9761 17.7354C18.731 16.0714 19.5348 14.5669 21.0854 13.7346C21.578 13.4701 22.1033 13.4133 22.7535 13.4016Z" fill="#F8F2EA"/>
<path d="M18.0569 15.7609C17.9411 15.248 17.9712 14.7149 18.1443 14.2168C18.4294 13.4389 18.8592 12.7668 19.6344 12.3381C20.2536 11.9958 20.8868 11.6769 21.4725 11.2809C21.7897 11.062 22.0671 10.795 22.2935 10.4906C22.3139 10.4593 22.3368 10.4297 22.3621 10.4019C22.4316 10.3389 22.5141 10.2805 22.6121 10.3171C22.7102 10.3537 22.6881 10.4517 22.6824 10.5256C22.6628 10.7691 22.5607 10.9923 22.483 11.2257C22.461 11.2887 22.4136 11.358 22.4904 11.4109C22.5672 11.4638 22.6325 11.4171 22.6995 11.3743C22.9446 11.2187 23.1031 10.9853 23.2771 10.773C23.3714 10.6564 23.4899 10.5595 23.6251 10.4882C23.8555 10.3646 24.0622 10.4758 24.0769 10.7263C24.0777 10.8262 24.0623 10.9257 24.0311 11.0211C23.9829 11.2031 24.014 11.2545 24.1945 11.3323C24.7868 11.5882 25.366 11.8652 25.8692 12.2658C26.4223 12.7076 26.8332 13.2545 27.2024 13.8379C27.5406 14.3807 27.7744 14.9766 27.8927 15.5976C27.9042 15.652 27.9442 15.7018 27.8437 15.7267C27.7432 15.7516 27.749 15.6925 27.7334 15.6388C27.1199 13.4871 24.915 12.3381 22.9078 12.4377C21.6408 12.5007 20.4848 12.8648 19.5127 13.6715C18.8688 14.206 18.3851 14.8934 18.1108 15.6637C18.1002 15.6933 18.088 15.7221 18.0757 15.7508C18.0757 15.7539 18.0684 15.7555 18.0569 15.7609Z" fill="#F8F2EA"/>
<path d="M20.8631 21.5222C21.2082 21.6461 21.5634 21.7431 21.9251 21.8123C22.8777 21.9648 23.8564 21.8483 24.7402 21.4771L24.8587 21.4288C24.8815 21.7604 24.9238 22.0905 24.9853 22.4176C25.0191 22.5985 25.0711 22.7759 25.1405 22.9473C25.1611 22.9867 25.1678 23.0313 25.1594 23.0745C25.151 23.1178 25.128 23.1572 25.0939 23.1869C24.8352 23.483 24.508 23.718 24.1379 23.8735C23.7679 24.0289 23.365 24.1007 22.9609 24.0831C22.2829 24.0691 21.6204 23.9757 21.0183 23.6498C20.8465 23.5657 20.6877 23.4597 20.5461 23.3347C20.522 23.3184 20.5057 23.2938 20.5007 23.2661C20.4956 23.2384 20.5023 23.21 20.5191 23.1869C20.7899 22.6779 20.8995 22.105 20.8345 21.5377L20.8631 21.5222Z" fill="#F8F2EA"/>
<path d="M26.959 15.9664C26.5424 14.756 25.6724 13.9648 24.4437 13.5082C24.0891 13.3761 23.7173 13.2908 23.3384 13.2546C23.3155 13.2546 23.2951 13.2491 23.2861 13.2266C24.7296 13.2126 26.4779 14.2091 26.9934 15.9361L26.959 15.9664Z" fill="#F8F2EA"/>
<path d="M27.9115 17.3137C27.8878 16.9434 27.9115 16.5832 27.8527 16.2246C27.8421 16.1616 27.8698 16.1351 27.9295 16.132C28.0267 16.1273 28.128 16.1375 28.1623 16.2394C28.2571 16.5241 28.284 16.8096 28.1018 17.0772C28.0447 17.1604 27.9752 17.2351 27.9115 17.3137Z" fill="#F8F2EA"/>
<path d="M17.9287 16.3312C17.8679 16.6953 17.849 17.0647 17.8723 17.4327C17.4001 17.0632 17.423 16.5498 17.9287 16.3312Z" fill="#F8F2EA"/>
<path d="M19.7185 20.0326C19.4792 19.7525 19.2284 19.4834 19.0413 19.1652C18.7546 18.6917 18.5733 18.1672 18.5087 17.6241C18.5944 17.9065 18.6721 18.192 18.7815 18.4674C18.9858 18.9672 19.2699 19.434 19.6238 19.8513C19.6663 19.9034 19.752 19.9431 19.7185 20.0341V20.0326Z" fill="#F8F2EA"/>
<path d="M30.1132 28.4939C30.5363 29.0183 30.8588 29.6098 31.0657 30.2411C30.7741 29.6468 30.4416 29.0719 30.1132 28.4939Z" fill="#F8F2EA"/>
<path d="M25.4077 23.5861C25.4445 23.6226 25.4772 23.6537 25.4404 23.6989C25.2241 23.9748 24.9263 24.183 24.5851 24.2971C24.9146 24.1255 25.1966 23.8818 25.4077 23.5861Z" fill="#F8F2EA"/>
<path d="M13.2516 33.6072C13.2411 33.296 13.2013 32.9848 13.2866 32.7413C13.3128 32.8698 13.3128 33.0019 13.2866 33.1303C13.2711 33.2882 13.2638 33.4477 13.2516 33.6072Z" fill="#F8F2EA"/>
<path d="M20.792 24.0994C20.5635 24.0064 20.3689 23.8514 20.2324 23.6537C20.4203 23.8015 20.6025 23.9547 20.792 24.0994Z" fill="#F8F2EA"/>
<path d="M25.5715 22.101C25.4898 21.7695 25.4774 21.4258 25.5349 21.0897C25.5341 21.4281 25.539 21.765 25.5715 22.101Z" fill="#6E6E6E"/>
<path d="M26.959 15.9664L26.9933 15.936C27.1314 16.2581 27.1567 16.5957 27.1469 16.9388C27.111 16.6105 27.0481 16.2853 26.959 15.9664Z" fill="#6E6E6E"/>
<path d="M20.2471 22.3002C20.2385 22.2867 20.233 22.2715 20.231 22.2558C20.2291 22.2401 20.2307 22.2242 20.2357 22.2092C20.3166 21.9807 20.3786 21.7466 20.4212 21.509C20.4199 21.7812 20.3607 22.0504 20.2471 22.3002Z" fill="#F8F2EA"/>
<path d="M13.1535 33.012C13.1097 33.3294 13.1738 33.6467 13.1421 33.9641C13.0915 33.6483 13.0953 33.3266 13.1535 33.012Z" fill="#6E6E6E"/>
<path d="M19.0283 15.3354C19.0969 15.1435 19.2055 14.9667 19.3477 14.8158L19.3706 14.8368L19.0438 15.407L19.0283 15.3354Z" fill="#F8F2EA"/>
<path d="M17.6049 15.3767C17.6208 15.4947 17.6516 15.6104 17.6967 15.7213C17.708 15.7556 17.7567 15.8053 17.6877 15.8225C17.6187 15.8396 17.6277 15.7742 17.6171 15.7384C17.5854 15.6229 17.5693 15.504 17.5692 15.3845L17.6049 15.3767Z" fill="#F8F2EA"/>
<path d="M19.0283 15.3354L19.0414 15.407C18.9695 15.5979 18.8973 15.7887 18.8249 15.9796L18.7808 15.9632C18.8377 15.7456 18.9208 15.535 19.0283 15.3354Z" fill="#6E6E6E"/>
<path d="M19.1729 23.8015C19.2007 23.7105 19.2914 23.6195 19.4997 23.4756C19.5064 23.4825 19.5135 23.489 19.5209 23.495C19.4144 23.6049 19.2977 23.7054 19.1721 23.7953L19.1729 23.8015Z" fill="#F8F2EA"/>
<path d="M18.6492 24.2279C18.6492 24.0917 18.7603 24.0591 18.873 24.0303L18.6492 24.2248V24.2279Z" fill="#F8F2EA"/>
<path d="M17.6047 15.3767L17.569 15.3845C17.5081 15.2593 17.569 15.1301 17.5633 15.0026L17.6047 15.3767Z" fill="#6E6E6E"/>
<path d="M23.2845 13.2374C23.196 13.2638 23.1003 13.2583 23.0157 13.2219C23.1595 13.1845 23.1595 13.1845 23.2845 13.2374Z" fill="#6E6E6E"/>
<path d="M32.2555 31.9976C32.2074 31.9147 32.1836 31.8209 32.1865 31.7261C32.2322 31.8098 32.2559 31.903 32.2555 31.9976Z" fill="#6E6E6E"/>
<path d="M32.2762 32.0934C32.2762 32.0934 32.2722 32.0995 32.2706 32.1033C32.2695 32.094 32.2695 32.0845 32.2706 32.0752C32.2706 32.0714 32.2762 32.0683 32.2793 32.0653L32.2762 32.0934Z" fill="#6E6E6E"/>
<path d="M19.805 23.1997L19.8225 23.1845L19.813 23.1769L19.8003 23.1951L19.805 23.1997Z" fill="#F8F2EA"/>
<path d="M20.2461 22.3009H20.2096V22.2854L20.2445 22.3017L20.2461 22.3009Z" fill="#F8F2EA"/>
<path d="M19.1701 23.7953C19.1611 23.8155 19.1498 23.8334 19.123 23.8288C19.1181 23.8288 19.1124 23.8093 19.1132 23.8085C19.1319 23.7976 19.1473 23.7603 19.1725 23.8015L19.1701 23.7953Z" fill="#F8F2EA"/>
<path d="M19.3485 14.8159L19.3899 14.7793C19.3942 14.7838 19.3971 14.7893 19.3985 14.7952C19.3999 14.8012 19.3996 14.8074 19.3977 14.8132C19.3958 14.819 19.3924 14.8242 19.3878 14.8284C19.3831 14.8325 19.3774 14.8355 19.3712 14.8369L19.3485 14.8159Z" fill="#F8F2EA"/>
<path d="M18.5586 24.2209C18.5878 24.2255 18.6235 24.1594 18.6487 24.2271C18.6186 24.2271 18.5853 24.2839 18.5577 24.2232L18.5586 24.2209Z" fill="#F8F2EA"/>
<path d="M30.0819 28.4263C30.0892 28.4418 30.1006 28.4527 30.099 28.4621C30.099 28.4846 30.0771 28.4729 30.0657 28.4691C30.0578 28.4647 30.0509 28.4589 30.0454 28.4519L30.0819 28.4263Z" fill="#F8F2EA"/>
<path d="M19.6521 23.3029C19.6561 23.3176 19.6821 23.3285 19.6578 23.3488C19.6334 23.369 19.6237 23.3488 19.6074 23.341C19.6391 23.3472 19.6464 23.327 19.6504 23.3036L19.6521 23.3029Z" fill="#F8F2EA"/>
<path d="M19.6074 23.341L19.6407 23.3674L19.6204 23.383C19.6204 23.369 19.6131 23.3542 19.609 23.3402L19.6074 23.341Z" fill="#F8F2EA"/>
<path d="M19.5306 23.4445C19.5388 23.4289 19.5461 23.4032 19.5688 23.4235C19.5915 23.4437 19.5599 23.4523 19.5501 23.4647C19.5443 23.4574 19.5377 23.4506 19.5306 23.4445Z" fill="#F8F2EA"/>
<path d="M19.498 23.4756L19.5305 23.4445C19.5376 23.4506 19.5441 23.4574 19.55 23.4647L19.5192 23.495C19.5117 23.4889 19.5047 23.4824 19.498 23.4756Z" fill="#F8F2EA"/>
<path d="M26.97 13.2351C26.97 13.2351 26.977 13.2415 26.977 13.2447C26.977 13.2479 26.9716 13.2502 26.9685 13.2534C26.9654 13.2566 26.9615 13.2463 26.9623 13.2439C26.963 13.2415 26.9669 13.2383 26.97 13.2351Z" fill="#6E6E6E"/>
<path d="M27.0213 13.3194L26.9983 13.3034C27.0268 13.2852 27.0181 13.3088 27.0197 13.3209L27.0213 13.3194Z" fill="#6E6E6E"/>
<path d="M27.0203 13.3215L27.0425 13.3306L27.0314 13.3427L27.0218 13.3199L27.0203 13.3215Z" fill="#6E6E6E"/>
<path d="M27.0864 13.4163L27.1086 13.4247L27.0967 13.4376L27.088 13.4148L27.0864 13.4163Z" fill="#6E6E6E"/>
<path d="M27.1306 13.4929L27.1398 13.4895L27.1389 13.4997L27.1306 13.4929Z" fill="#6E6E6E"/>
<path d="M27.0874 13.4143L27.0652 13.3976C27.0945 13.3801 27.0842 13.4037 27.0858 13.4158L27.0874 13.4143Z" fill="#6E6E6E"/>
<path d="M20.8369 21.5369L20.8425 21.4989L20.8623 21.5179L20.8369 21.5369Z" fill="#F8F2EA"/>
<path d="M18.5574 24.2208L18.5655 24.2519H18.512C18.5444 24.2628 18.5501 24.2402 18.5574 24.2192V24.2208Z" fill="#F8F2EA"/>
<path d="M18.512 24.2543L18.5397 24.2809C18.5048 24.2953 18.5254 24.2604 18.5135 24.2535L18.512 24.2543Z" fill="#F8F2EA"/>
<path d="M19.7488 23.2103L19.804 23.2002L19.8 23.1956C19.791 23.2298 19.7789 23.2508 19.7472 23.2103H19.7488Z" fill="#F8F2EA"/>
<path d="M19.0217 23.8676L19.0606 23.875C19.0408 23.9075 19.0344 23.8693 19.0217 23.8668V23.8676Z" fill="#F8F2EA"/>
<path d="M19.7169 23.243C19.7413 23.243 19.7478 23.2298 19.7486 23.2103C19.7543 23.2204 19.7664 23.2337 19.7632 23.2407C19.7526 23.264 19.734 23.2516 19.7185 23.2407L19.7169 23.243Z" fill="#F8F2EA"/>
<path d="M20.8408 24.1104C20.8445 24.1168 20.8471 24.1237 20.8487 24.1309C20.8487 24.1309 20.8432 24.1369 20.84 24.14C20.8364 24.1337 20.8335 24.1271 20.8313 24.1202C20.8313 24.1202 20.8368 24.1142 20.8408 24.1104Z" fill="#F8F2EA"/>
<path d="M19.7168 23.2429C19.7168 23.2554 19.7428 23.2624 19.7225 23.2803C19.7022 23.2982 19.6949 23.2803 19.6819 23.2756C19.707 23.2756 19.7144 23.2631 19.7168 23.2429Z" fill="#F8F2EA"/>
<path d="M19.6816 23.2756C19.693 23.2904 19.7108 23.306 19.6816 23.3192C19.6759 23.3192 19.6613 23.3083 19.6508 23.3029C19.6727 23.3029 19.6816 23.2959 19.68 23.2756H19.6816Z" fill="#F8F2EA"/>
<path d="M19.7186 20.0335L19.748 20.0084C19.7606 20.0434 19.7258 20.0206 19.7186 20.032V20.0335Z" fill="#F8F2EA"/>
<path d="M30.2276 22.493C30.0471 22.4992 29.8951 22.3973 29.8967 22.2698C29.8984 22.1422 30.1042 21.9936 30.2962 22.0006C30.3812 22.1787 30.3117 22.3367 30.2276 22.493Z" fill="#F8F2EA"/>
<path d="M30.2275 22.493C30.3092 22.3374 30.3811 22.1818 30.2962 22.0006C30.4293 21.9944 30.4661 22.0714 30.4644 22.1787C30.4587 22.3545 30.3697 22.4743 30.2275 22.493Z" fill="#6E6E6E"/>
<path d="M12.0779 19.001C12.1759 19.0165 12.2723 19.0461 12.2813 19.1737C12.287 19.2662 12.1465 19.4405 12.0664 19.4405C11.9864 19.4405 11.8508 19.2943 11.8483 19.1947C11.8459 19.0951 11.9561 19.0049 12.0779 19.001Z" fill="#F8F2EA"/>
<path d="M32.8082 16.5801C32.8006 16.5954 32.7899 16.6092 32.7766 16.6204C32.7633 16.6317 32.7477 16.6402 32.7308 16.6455C32.7139 16.6509 32.696 16.6528 32.6783 16.6513C32.6605 16.6498 32.6433 16.6449 32.6276 16.6369C32.582 16.6172 32.5428 16.5863 32.5141 16.5473C32.4854 16.5083 32.4681 16.4627 32.4642 16.4152C32.4576 16.3818 32.4645 16.3472 32.4834 16.3184C32.5023 16.2896 32.5319 16.2686 32.5664 16.2596C32.6554 16.2308 32.7559 16.1164 32.8212 16.2868C32.7632 16.2992 32.733 16.3358 32.7624 16.3856C32.8033 16.4471 32.7763 16.5178 32.8082 16.5801Z" fill="#F8F2EA"/>
<path d="M32.8078 16.5801C32.7762 16.5179 32.803 16.4471 32.7656 16.3841C32.7364 16.3343 32.7656 16.2977 32.8241 16.2853C32.9369 16.3498 32.9296 16.4658 32.8078 16.5801Z" fill="#6E6E6E"/>
<path d="M9.32562 15.2483C9.28396 15.3261 9.24393 15.4163 9.1459 15.428C9.12652 15.43 9.10691 15.4279 9.08856 15.4216C9.0702 15.4154 9.05358 15.4052 9.03995 15.392C9.02633 15.3787 9.01606 15.3626 9.00993 15.345C9.0038 15.3274 9.00196 15.3087 9.00457 15.2903C9.00865 15.2125 9.04705 15.13 9.14835 15.1347C9.2186 15.1355 9.30438 15.1503 9.32562 15.2483Z" fill="#F8F2EA"/>
<path d="M24.6087 7.08181C24.5965 7.17905 24.5818 7.29263 24.4633 7.31519C24.4425 7.31677 24.4217 7.31399 24.4021 7.30704C24.3826 7.30009 24.365 7.28913 24.3504 7.27496C24.3358 7.26078 24.3247 7.24373 24.3178 7.225C24.3109 7.20628 24.3084 7.18634 24.3105 7.16661C24.317 7.11994 24.3395 7.07663 24.3745 7.04342C24.4095 7.01021 24.4551 6.98897 24.5042 6.98302C24.5769 6.96591 24.6161 7.00636 24.6087 7.08181Z" fill="#F8F2EA"/>
<path d="M13.8364 16.9178C13.8039 16.9178 13.7966 16.8851 13.7966 16.8524C13.7966 16.8034 13.8218 16.7708 13.8778 16.7708C13.9143 16.7708 13.9452 16.7933 13.9289 16.8307C13.9127 16.868 13.9087 16.9186 13.8364 16.9178Z" fill="#F8F2EA"/>
<path d="M25.9893 9.2709C25.9329 9.2709 25.9207 9.22734 25.9166 9.18533C25.9109 9.13088 25.9476 9.11532 25.9983 9.11765C26.0489 9.11999 26.0914 9.11765 26.08 9.17989C26.0793 9.20302 26.0696 9.22509 26.0529 9.24188C26.0362 9.25867 26.0135 9.269 25.9893 9.2709Z" fill="#F8F2EA"/>
<defs>
<filter id="filter0_d_2402_3841" x="0" y="0" width="53.3295" height="49.8975" filterUnits="userSpaceOnUse" color-interpolation-filters="sRGB">
<feFlood flood-opacity="0" result="BackgroundImageFix"/>
<feColorMatrix in="SourceAlpha" type="matrix" values="0 0 0 0 0 0 0 0 0 0 0 0 0 0 0 0 0 0 127 0" result="hardAlpha"/>
<feOffset dx="5" dy="4"/>
<feGaussianBlur stdDeviation="2"/>
<feComposite in2="hardAlpha" operator="out"/>
<feColorMatrix type="matrix" values="0 0 0 0 0 0 0 0 0 0 0 0 0 0 0 0 0 0 0.25 0"/>
<feBlend mode="normal" in2="BackgroundImageFix" result="effect1_dropShadow_2402_3841"/>
<feBlend mode="normal" in="SourceGraphic" in2="effect1_dropShadow_2402_3841" result="shape"/>
</filter>
</defs>
</svg>
