<svg width="11" height="15" viewBox="0 0 11 15" fill="none" xmlns="http://www.w3.org/2000/svg">
<path d="M1.21766 1.81871L1.21786 1.8181C1.23361 1.77245 1.24633 1.7124 1.26413 1.61339C1.26572 1.60454 1.26737 1.59524 1.26909 1.58553C1.28401 1.50155 1.30424 1.38767 1.33536 1.27941C1.37109 1.1551 1.43081 1.00027 1.54634 0.859435C1.66872 0.710243 1.83355 0.601318 2.03698 0.544997C2.03712 0.544958 2.03726 0.54492 2.0374 0.544881L2.1714 1.02683C2.44666 0.950487 2.58991 1.14176 2.73589 1.33668C2.79361 1.41375 2.85176 1.49139 2.91867 1.55329L1.21766 1.81871ZM1.21766 1.81871C1.00803 2.42913 1.35793 2.87145 1.51247 3.06682M1.21766 1.81871L1.51247 3.06682M8.66111 6.18183L8.91421 5.75106C8.74914 5.65388 8.59495 5.55282 8.42983 5.4446C8.34642 5.38993 8.26022 5.33343 8.16842 5.27469C7.81727 5.04954 7.49278 4.76616 7.13358 4.45103L7.12104 4.44002C6.77513 4.13654 6.39606 3.80397 5.97046 3.52958L5.97019 3.52941C5.24863 3.06486 4.60238 2.4529 3.91852 1.80531C3.70294 1.60116 3.48362 1.39347 3.25702 1.18575L1.55225 3.11799C2.81444 4.81693 4.3486 6.06469 6.13908 6.86824C5.32333 7.38663 4.57153 7.99808 3.84919 8.61307C3.65405 8.77921 3.46156 8.94514 3.2705 9.10983C2.55717 9.72471 1.86382 10.3224 1.1274 10.8495C1.00387 10.9377 0.795306 11.0898 0.657136 11.3167C0.49688 11.5799 0.454386 11.9 0.582789 12.2487L0.583267 12.25C0.598122 12.29 0.612457 12.3482 0.630865 12.4412C0.634234 12.4582 0.637877 12.4772 0.641788 12.4976C0.656043 12.5719 0.67386 12.6648 0.694982 12.7486C0.740508 12.9293 0.861579 13.346 1.29399 13.4847L1.2952 13.4851C1.63842 13.5943 1.96008 13.4977 2.19866 13.3339C2.43131 13.1742 2.60898 12.9387 2.7261 12.6905L2.72618 12.6903C2.93707 12.2429 3.26728 11.9274 3.66318 11.6506L3.66364 11.6503C4.29617 11.207 4.90277 10.6772 5.48498 10.1687C5.7294 9.95527 5.96951 9.74556 6.20544 9.54758C7.02688 8.85827 7.8356 8.274 8.75401 7.95412L8.75401 7.95413L8.75674 7.95316C8.87054 7.91278 8.95321 7.84819 8.99592 7.81268C9.01935 7.7932 9.04034 7.77413 9.05423 7.76147C9.05691 7.75902 9.05934 7.7568 9.06157 7.75477C9.07307 7.74427 9.07911 7.73876 9.0853 7.73339L9.0853 7.73339L9.08582 7.73294C9.38504 7.47273 9.61992 7.11483 9.58434 6.68968C9.54847 6.26116 9.25387 5.94996 8.91319 5.75047L8.66111 6.18183ZM8.66111 6.18183C9.19185 6.49262 9.23155 6.94301 8.75734 7.35539M8.66111 6.18183C8.48588 6.07866 8.31471 5.96652 8.14347 5.85434C8.06229 5.80115 7.98109 5.74795 7.89944 5.6957C7.51097 5.44668 7.15829 5.13727 6.80411 4.82654L8.75734 7.35539M8.75734 7.35539C8.74596 7.36527 8.73457 7.37567 8.7231 7.38614C8.68054 7.42502 8.63697 7.46481 8.58881 7.4819C7.27639 7.93902 6.20429 8.87554 5.13226 9.81201L8.75734 7.35539ZM1.51247 3.06682C1.52791 3.08634 1.5414 3.10339 1.55219 3.1179L1.51247 3.06682Z" fill="#F8F2EA" stroke="black"/>
</svg>
