<svg width="72" height="72" viewBox="0 0 72 72" fill="none" xmlns="http://www.w3.org/2000/svg">
<g filter="url(#filter0_d_2246_630)">
<path d="M32.0689 2.17436L32.0713 2.17436C49.0476 2.14662 62.6346 15.3332 62.6634 31.6375C62.6632 48.1996 48.8501 61.9023 31.7974 61.7094C15.5876 61.488 2.85072 48.4385 2.9832 31.6032C3.40489 14.188 16.4165 2.17436 32.0689 2.17436Z" stroke="#181818" stroke-width="3" shape-rendering="crispEdges"/>
</g>
<path d="M32.3245 6.00199C46.3221 6.13057 58.1002 17.8825 57.9994 31.6145C57.8985 46.5037 46.196 58.1528 31.467 57.9985C18.0746 57.8442 6.8009 45.578 7.00267 31.2031C7.17921 17.8568 18.0999 5.82199 32.3245 6.00199Z" fill="#181818"/>
<path d="M13.2622 29.9786V29.9891C12.3593 32.4353 13.1782 34.934 13.0837 37.4117C13.0522 38.43 13.9236 38.5455 14.795 38.5035C17.6611 38.3671 20.5167 38.1571 23.3199 37.5062C23.7713 37.4852 24.2122 37.4642 24.6637 37.4432C26.5744 37.2962 28.4852 37.1387 30.396 36.9917C30.417 36.8972 30.4589 36.8133 30.5114 36.7398H30.5219C31.9183 36.8238 33.2726 36.5298 34.6479 36.3723C37.4301 36.0469 37.556 36.1623 37.997 39.018C38.3014 40.9812 38.9209 41.2962 40.7686 40.4458C41.1571 40.2673 41.5245 40.0153 41.9025 39.8054C43.4773 38.9865 45.0521 38.1781 46.6269 37.3592C46.7319 37.5797 46.8369 37.8106 46.9313 38.0311C48.7896 37.1282 51.0048 36.7608 52.0547 34.64C53.619 34.0101 53.808 33.1597 52.4326 32.1099C49.0101 29.4852 45.703 26.6611 41.556 25.1807C40.7161 24.7923 39.8657 24.4038 39.0258 24.0154C36.4222 22.85 36.8841 24.8868 37.1256 26.0626C37.5665 28.1939 37.0416 29.1702 34.7529 28.9078C34.5114 28.8763 34.27 28.9288 34.018 29.0023C33.8395 29.0233 33.6715 29.0653 33.5036 29.1282L33.3251 29.0548L33.1571 29.1597C26.7949 28.8343 20.4537 29.4852 14.0915 29.4747C13.8081 29.4747 13.5351 29.8002 13.2622 29.9786ZM49.766 32.7713C49.9235 33.0337 49.9445 33.3172 49.661 33.6427C49.493 33.6427 49.325 33.6637 49.1571 33.6952C46.8263 34.4406 44.8736 36.0049 42.5324 36.7293C41.64 37.0127 40.7476 37.2752 40.4957 36.0049C39.9812 33.4327 38.2909 33.2752 36.1597 33.6847C34.8894 33.9261 33.5665 33.9576 32.3382 34.4406C29.9865 35.0495 27.5718 35.2595 25.1571 35.3225C24.8842 35.3644 24.6217 35.4274 24.3697 35.5114C23.6558 35.7739 22.9314 35.9314 22.1965 36.0259C21.7661 36.0679 21.3356 36.0993 20.9052 36.1518C19.9603 36.2253 19.0049 36.2358 18.0495 36.3093C17.7871 36.3513 17.5246 36.4038 17.2726 36.4878C15.2359 36.9287 14.9209 35.7739 14.9524 34.1151C14.9839 32.5088 15.0259 31.123 17.2516 31.249C19.8553 31.3855 22.4695 31.27 25.0626 31.4484C27.3303 31.4379 29.6086 31.6584 31.8763 31.333C33.1151 30.6925 34.6689 31.3225 35.9497 30.7975C36.7896 30.808 37.619 30.8185 38.4589 30.829C39.6558 30.8395 39.9602 30.2726 39.4983 29.2122C39.5718 29.0548 39.5508 28.9078 39.4353 28.7818C40.0757 28.3303 40.3172 27.5429 40.8106 26.9655C40.8211 27.018 40.8421 27.06 40.8631 27.1125C43.5403 28.4563 45.997 30.1466 48.5061 31.7739C49.0206 32.0049 49.4195 32.3618 49.766 32.7713ZM37.9655 27.3645V27.4065C37.955 27.396 37.955 27.375 37.9655 27.3645ZM36.7686 29.8002C36.7686 29.7897 36.7581 29.7897 36.7581 29.7792C36.7686 29.7792 36.7791 29.7792 36.7896 29.7792C36.7896 29.7897 36.7791 29.7897 36.7686 29.8002Z" fill="#F8F2EA"/>
<defs>
<filter id="filter0_d_2246_630" x="0.482178" y="0.674316" width="70.6812" height="70.5371" filterUnits="userSpaceOnUse" color-interpolation-filters="sRGB">
<feFlood flood-opacity="0" result="BackgroundImageFix"/>
<feColorMatrix in="SourceAlpha" type="matrix" values="0 0 0 0 0 0 0 0 0 0 0 0 0 0 0 0 0 0 127 0" result="hardAlpha"/>
<feOffset dx="3" dy="4"/>
<feGaussianBlur stdDeviation="2"/>
<feComposite in2="hardAlpha" operator="out"/>
<feColorMatrix type="matrix" values="0 0 0 0 0 0 0 0 0 0 0 0 0 0 0 0 0 0 0.25 0"/>
<feBlend mode="normal" in2="BackgroundImageFix" result="effect1_dropShadow_2246_630"/>
<feBlend mode="normal" in="SourceGraphic" in2="effect1_dropShadow_2246_630" result="shape"/>
</filter>
</defs>
</svg>
