<svg width="34" height="15" viewBox="0 0 34 15" fill="none" xmlns="http://www.w3.org/2000/svg">
<path d="M0.359657 5.29548V5.30429C-0.397895 7.35672 0.289186 9.45321 0.209907 11.5321C0.183481 12.3865 0.914605 12.4834 1.64573 12.4482C4.05052 12.3337 6.44649 12.1575 8.79843 11.6113C9.1772 11.5937 9.54717 11.5761 9.92594 11.5585C11.5291 11.4352 13.1323 11.303 14.7355 11.1797C14.7531 11.1004 14.7884 11.03 14.8324 10.9683H14.8412C16.0128 11.0388 17.1491 10.7921 18.3031 10.66C20.6374 10.3869 20.7431 10.4838 21.113 12.8798C21.3685 14.527 21.8882 14.7913 23.4385 14.0778C23.7645 13.928 24.0728 13.7166 24.3899 13.5405C25.7112 12.8534 27.0325 12.1751 28.3538 11.488C28.4419 11.673 28.53 11.8668 28.6093 12.0518C30.1684 11.2942 32.0271 10.9859 32.9079 9.20656C34.2204 8.67804 34.379 7.96453 33.2251 7.08365C30.3534 4.88147 27.5787 2.51192 24.0992 1.26989C23.3945 0.943964 22.681 0.618043 21.9763 0.29212C19.7917 -0.68565 20.1793 1.02325 20.3819 2.00982C20.7519 3.798 20.3114 4.61721 18.3911 4.39699C18.1885 4.37056 17.9859 4.41461 17.7745 4.47627C17.6248 4.49389 17.4838 4.52912 17.3429 4.58198L17.1932 4.52031L17.0522 4.6084C11.7141 4.33533 6.39364 4.88147 1.05555 4.87266C0.817711 4.87266 0.588684 5.14573 0.359657 5.29548ZM30.9876 7.6386C31.1198 7.85882 31.1374 8.09666 30.8996 8.36973C30.7586 8.36973 30.6177 8.38735 30.4767 8.41378C28.5212 9.0392 26.8828 10.3517 24.9184 10.9595C24.1697 11.1973 23.4209 11.4176 23.2095 10.3517C22.7779 8.19356 21.3597 8.06143 19.5715 8.40497C18.5057 8.60757 17.3958 8.63399 16.3651 9.0392C14.392 9.5501 12.366 9.72628 10.34 9.77913C10.1109 9.81437 9.89071 9.86722 9.6793 9.93769C9.08031 10.1579 8.4725 10.29 7.85589 10.3693C7.49473 10.4045 7.13357 10.431 6.77242 10.475C5.97963 10.5367 5.17803 10.5455 4.37644 10.6072C4.15622 10.6424 3.936 10.6864 3.72459 10.7569C2.0157 11.1269 1.75144 10.1579 1.77786 8.76613C1.80429 7.41839 1.83952 6.25563 3.70698 6.36134C5.89154 6.47585 8.08492 6.37896 10.2607 6.52871C12.1634 6.5199 14.0749 6.70488 15.9775 6.43181C17.017 5.89448 18.3207 6.423 19.3953 5.98256C20.1 5.99137 20.7959 6.00018 21.5006 6.00899C22.5048 6.0178 22.7603 5.54213 22.3727 4.65244C22.4344 4.52031 22.4167 4.39699 22.3198 4.29128C22.8572 3.91251 23.0598 3.25185 23.4738 2.76737C23.4826 2.81142 23.5002 2.84665 23.5178 2.8907C25.7641 4.01822 27.8253 5.43642 29.9306 6.80177C30.3622 6.99557 30.697 7.29506 30.9876 7.6386ZM21.0866 3.1021V3.13734C21.0778 3.12853 21.0778 3.11091 21.0866 3.1021ZM20.0824 5.14573C20.0824 5.13692 20.0736 5.13692 20.0736 5.12811C20.0824 5.12811 20.0912 5.12811 20.1 5.12811C20.1 5.13692 20.0912 5.13692 20.0824 5.14573Z" fill="#F8F2EA"/>
</svg>
