<svg width="40" height="40" viewBox="0 0 40 40" fill="none" xmlns="http://www.w3.org/2000/svg">
<g filter="url(#filter0_d_8060_60249)">
<path d="M0 20.8417C0.073153 15.797 1.76477 11.3553 5.18767 7.59813C7.9774 4.53651 11.4301 2.56998 15.446 1.56962C16.6847 1.26115 17.9436 1.082 19.2186 1.00993C21.855 0.860435 24.4207 1.20309 26.9087 2.09595C29.455 3.00983 31.705 4.40225 33.669 6.25553C35.3404 7.83247 36.6435 9.67421 37.7023 11.7062C38.7926 13.7992 39.501 16.0025 39.8188 18.3364C39.9614 19.3829 40.0255 20.4339 39.9907 21.4882C39.83 26.397 38.1177 30.6933 34.7787 34.3096C31.9497 37.3733 28.4685 39.3419 24.3819 40.2306C23.2098 40.4856 22.0236 40.6454 20.8226 40.6717C15.4535 40.7899 10.7192 39.1195 6.68214 35.5892C3.47622 32.7854 1.44198 29.2646 0.49058 25.124C0.195488 23.8407 0.0371965 22.5384 0.0190115 21.2205C0.0173583 21.1011 0.00743929 20.9821 0.000413294 20.8421L0 20.8417Z" fill="#060000"/>
<path d="M21.0248 38.7028C18.2499 38.753 15.6619 38.2984 13.18 37.2865C11.3996 36.5608 9.73605 35.6313 8.28828 34.3554C5.90813 32.2583 4.16774 29.7214 3.07128 26.7483C2.59227 25.4502 2.27155 24.113 2.10086 22.7415C1.93224 21.3899 1.8814 20.0324 2.06697 18.6812C2.3166 16.8642 2.8514 15.1258 3.65071 13.4718C5.22702 10.2101 7.55262 7.60395 10.6184 5.66996C12.6485 4.38955 14.858 3.53704 17.2262 3.10502C18.3921 2.8921 19.5679 2.79202 20.7524 2.80314C22.5874 2.82044 24.3898 3.07331 26.1322 3.65071C27.3457 4.05266 28.4756 4.64489 29.5452 5.34337C33.0165 7.61054 35.4785 10.6985 37.0263 14.5208C37.6979 16.1793 38.1161 17.902 38.2835 19.6844C38.3645 20.5452 38.41 21.408 38.3372 22.27C38.2509 23.2938 38.0442 24.2983 37.7644 25.2871C36.9337 28.219 35.4665 30.795 33.3756 33.0145C31.1897 35.3348 28.5769 37.0035 25.5483 38.0113C24.6386 38.314 23.6897 38.4639 22.7375 38.5784C22.1365 38.6505 21.5331 38.6826 21.0248 38.7032V38.7028Z" fill="#F8F2EA"/>
<path d="M20.7584 36.9967C18.3206 37.0414 16.047 36.6362 13.8666 35.7344C12.3024 35.0876 10.841 34.2592 9.56906 33.122C7.47802 31.253 5.94904 28.9919 4.98576 26.3421C4.56494 25.1852 4.28318 23.9933 4.13322 22.771C3.98508 21.5664 3.94042 20.3565 4.10345 19.1522C4.32276 17.5328 4.7926 15.9834 5.49481 14.5093C6.87964 11.6022 8.92276 9.27952 11.6162 7.55582C13.3997 6.41464 15.3408 5.65484 17.4213 5.2698C18.4455 5.08003 19.4785 4.99083 20.5192 5.00074C22.1313 5.01616 23.7147 5.24153 25.2455 5.75614C26.3115 6.11439 27.3042 6.64222 28.2439 7.26475C31.2935 9.28539 33.4564 12.0376 34.8162 15.4442C35.4062 16.9224 35.7737 18.4578 35.9207 20.0464C35.9919 20.8135 36.0319 21.5825 35.9679 22.3508C35.8921 23.2633 35.7105 24.1585 35.4647 25.0398C34.7349 27.6529 33.4459 29.9488 31.609 31.9269C29.6887 33.9949 27.3932 35.4822 24.7325 36.3804C23.9333 36.6502 23.0996 36.7838 22.2631 36.8858C21.7351 36.95 21.205 36.9787 20.7584 36.997V36.9967Z" fill="#181818"/>
<path d="M5.55637 8.84396C5.97834 8.21055 6.4557 7.61915 6.9657 7.05575C7.24881 6.74317 7.58564 6.48371 7.9324 6.19995C7.18186 7.14183 6.36684 7.9931 5.5915 8.87897C5.56092 8.88597 5.5448 8.87897 5.55637 8.84396Z" fill="#F8F2EA"/>
<path d="M32.0308 6.81898C32.9446 7.5607 33.7741 8.38603 34.5106 9.3032C34.5168 9.33326 34.5081 9.3485 34.4746 9.33738C33.6873 8.47087 32.84 7.66366 31.992 6.85728C31.9862 6.82598 31.9969 6.81075 32.0304 6.81898H32.0308Z" fill="#F8F2EA"/>
<path d="M39.5447 19.6074C39.6443 20.3776 39.6964 21.1498 39.6208 21.9248C39.5927 22.2156 39.548 22.5047 39.5109 22.7946C39.4245 22.7543 39.4819 22.688 39.4811 22.632C39.527 21.9121 39.5691 21.1922 39.5443 20.4702C39.5348 20.1939 39.5224 19.9175 39.5109 19.6412C39.4997 19.6078 39.5142 19.5996 39.5447 19.607V19.6074Z" fill="#F8F2EA"/>
<path d="M22.3881 39.2916C21.9636 39.3464 21.5396 39.4028 21.1147 39.4556C20.7155 39.5054 20.315 39.547 19.9161 39.6022C19.8108 39.617 19.7103 39.6005 19.6078 39.598C19.5777 39.5972 19.521 39.624 19.5281 39.556C19.5326 39.5128 19.5682 39.4959 19.6107 39.493C19.7628 39.4831 19.9145 39.4675 20.067 39.4621C20.7527 39.4383 21.4333 39.36 22.1132 39.2731C22.2037 39.2616 22.2951 39.2472 22.3881 39.2912V39.2916Z" fill="#F8F2EA"/>
<path d="M12.563 4.25402C13.383 3.79564 14.2795 3.53783 15.1701 3.2656C15.2056 3.25366 15.2143 3.26972 15.2081 3.30184C14.3278 3.60413 13.4512 3.91754 12.5974 4.28902C12.5635 4.29891 12.5552 4.28449 12.563 4.25402Z" fill="#F8F2EA"/>
<path d="M31.1069 35.8335C31.8232 35.2083 32.5564 34.6013 33.2201 33.9168C33.0597 34.229 31.5578 35.5988 31.1069 35.8335Z" fill="#F8F2EA"/>
<path d="M34.3108 7.55859C34.6241 7.78799 35.8272 9.19566 35.995 9.51566C35.3899 8.90119 34.9142 8.17553 34.3108 7.55859Z" fill="#F8F2EA"/>
<path d="M31.203 5.65343C30.769 5.40221 30.3354 5.15058 29.9015 4.89935C30.3797 5.07356 30.8855 5.19876 31.203 5.65343Z" fill="#F8F2EA"/>
<path d="M5.45695 9.88471C5.75411 9.45846 6.0897 9.06144 6.42282 8.66319C6.44596 8.63519 6.4658 8.5693 6.52077 8.61048C6.58152 8.65619 6.52779 8.69285 6.49721 8.72909C6.16203 9.1261 5.82685 9.52353 5.49208 9.92095C5.46274 9.92589 5.4462 9.91807 5.45736 9.88471H5.45695Z" fill="#F8F2EA"/>
<path d="M39.2945 24.3737C39.2081 24.9461 39.0742 25.5075 38.8927 26.0577C38.8828 26.0696 38.8725 26.07 38.8613 26.0589C39.0064 25.4646 39.1539 24.8712 39.2585 24.2678C39.3366 24.2806 39.2924 24.335 39.2945 24.3733V24.3737Z" fill="#F8F2EA"/>
<path d="M34.4752 9.33734C34.4872 9.32581 34.4992 9.31469 34.5112 9.30316C34.9121 9.76195 35.2617 10.2582 35.5936 10.7677C35.6048 10.7998 35.5895 10.8051 35.5622 10.7986C35.2274 10.2912 34.8476 9.81714 34.4752 9.33734Z" fill="#F8F2EA"/>
<path d="M39.2947 24.3736C39.2786 24.3398 39.3018 24.2925 39.2588 24.2682C39.3328 23.7229 39.4067 23.1776 39.4807 22.6323C39.5014 22.6846 39.4696 22.7464 39.5105 22.795C39.4386 23.3213 39.3667 23.8473 39.2952 24.3736H39.2947Z" fill="#F8F2EA"/>
<path d="M38.701 26.6803C38.6109 27.1337 38.4195 27.553 38.26 27.9829C38.2319 28.0587 38.1992 28.1328 38.1687 28.2078C38.1414 28.2115 38.122 28.2086 38.1401 28.174C38.3257 27.6695 38.5208 27.1679 38.6754 26.6527C38.6878 26.6481 38.7002 26.644 38.7084 26.6584C38.7117 26.6642 38.7072 26.6724 38.7014 26.6803H38.701Z" fill="#F8F2EA"/>
<path d="M38.9849 15.7197C39.1374 16.192 39.2841 16.6661 39.2994 17.1669C39.1944 16.6846 39.0898 16.2023 38.9849 15.7197Z" fill="#F8F2EA"/>
<path d="M19.17 2.42631C19.527 2.39172 19.8825 2.33571 20.2412 2.32623C20.2429 2.346 20.2449 2.36536 20.2466 2.38513C19.899 2.41066 19.5514 2.43619 19.2034 2.46173C19.1704 2.47038 19.1609 2.45679 19.1695 2.4259L19.17 2.42631Z" fill="#F8F2EA"/>
<path d="M1.47494 20.8215V21.7946C1.45758 21.7946 1.44022 21.7938 1.42286 21.7934C1.3493 21.4434 1.47824 21.0999 1.47494 20.8215Z" fill="#F8F2EA"/>
<path d="M2.49211 14.877C2.42681 15.0541 2.35986 15.2312 2.29662 15.4091C2.28009 15.4556 2.26025 15.4931 2.2057 15.4713C2.13544 15.4429 2.18875 15.4025 2.20446 15.3704C2.28505 15.2048 2.36771 15.0409 2.44995 14.8762C2.46442 14.8626 2.47847 14.863 2.49252 14.8774L2.49211 14.877Z" fill="#F8F2EA"/>
<path d="M16.0879 2.77546C15.7705 2.85412 15.4535 2.93278 15.1361 3.01185C15.4225 2.85247 15.7383 2.79729 16.054 2.74128C16.0863 2.73222 16.0958 2.74539 16.0879 2.77587V2.77546Z" fill="#F8F2EA"/>
<path d="M2.19364 25.9303C2.04155 25.6248 1.99857 25.2887 1.95435 24.9526C2.03411 25.2784 2.11388 25.6046 2.19364 25.9303Z" fill="#F8F2EA"/>
<path d="M5.45704 9.8847C5.46861 9.89665 5.48019 9.909 5.49176 9.92095C5.34669 10.1199 5.20162 10.3192 5.05656 10.5181C5.04416 10.5099 5.03217 10.5016 5.01978 10.4934C5.15988 10.2871 5.29296 10.0758 5.45704 9.8847Z" fill="#F8F2EA"/>
<path d="M8.09509 35.1074C8.28934 35.261 8.48359 35.4146 8.67784 35.5682C8.37407 35.4286 8.18602 35.2791 8.09509 35.1074Z" fill="#F8F2EA"/>
<path d="M23.2184 2.13804C22.9977 2.12157 22.7766 2.10468 22.5398 2.08697C22.7832 1.96012 22.9998 2.10921 23.2226 2.09768C23.2209 2.11086 23.2197 2.12445 23.218 2.13763L23.2184 2.13804Z" fill="#F8F2EA"/>
<path d="M27.2673 3.78577C27.5223 3.8183 27.7434 3.91591 27.9447 4.06252C27.7191 3.97027 27.493 3.87802 27.2673 3.78577Z" fill="#F8F2EA"/>
<path d="M15.2082 3.30187C15.1954 3.28992 15.183 3.27757 15.1702 3.26563C15.3553 3.18079 15.5533 3.14413 15.748 3.09595C15.7521 3.10913 15.7562 3.1223 15.7603 3.13548C15.576 3.19108 15.3921 3.24627 15.2078 3.30187H15.2082Z" fill="#F8F2EA"/>
<path d="M24.3383 39.1335C24.4958 39.087 24.6532 39.04 24.8107 38.9935C24.7169 39.1557 24.5441 39.1187 24.4065 39.1689C24.3726 39.178 24.3342 39.1965 24.3383 39.1335Z" fill="#F8F2EA"/>
<path d="M21.2898 39.8291C21.5423 39.8246 21.7915 39.7533 22.0465 39.8011C21.794 39.8056 21.5456 39.8876 21.2898 39.8291Z" fill="#F8F2EA"/>
<path d="M7.52734 34.1111C7.67076 34.2454 7.81458 34.3801 7.958 34.5143C7.9489 34.5238 7.9394 34.5337 7.93031 34.5432C7.7716 34.4241 7.63273 34.2849 7.52734 34.1111Z" fill="#F8F2EA"/>
<path d="M8.39159 34.9364C8.23909 34.8322 8.10105 34.7123 7.9845 34.5686C8.14403 34.6637 8.28331 34.7832 8.41474 34.9125C8.41804 34.9306 8.41019 34.9388 8.39159 34.9364Z" fill="#F8F2EA"/>
<path d="M3.0276 28.6452C2.92676 28.4809 2.86063 28.3034 2.83459 28.1094C2.90733 28.2808 2.98007 28.4525 3.05281 28.6238C3.05281 28.6407 3.04455 28.6477 3.02802 28.6456L3.0276 28.6452Z" fill="#F8F2EA"/>
<path d="M32.0311 6.81893C32.0183 6.8317 32.0055 6.84447 31.9927 6.85723C31.8939 6.76745 31.7951 6.67767 31.6968 6.58789C31.8336 6.63278 31.939 6.71721 32.0315 6.81893H32.0311Z" fill="#F8F2EA"/>
<path d="M35.5624 10.7986C35.5727 10.7883 35.5835 10.778 35.5938 10.7677C35.7017 10.8871 35.7756 11.0263 35.8273 11.1812C35.7389 11.0535 35.6508 10.9258 35.5624 10.7986Z" fill="#F8F2EA"/>
<path d="M16.0877 2.77554C16.0766 2.76401 16.065 2.75248 16.0538 2.74095C16.2138 2.68823 16.3762 2.64787 16.5457 2.64581C16.5494 2.64993 16.5527 2.65446 16.5564 2.65858C16.4064 2.72283 16.2452 2.74095 16.0877 2.77513V2.77554Z" fill="#F8F2EA"/>
<path d="M10.7876 36.5842C10.9058 36.6529 11.0244 36.7217 11.1426 36.7901C10.9992 36.767 10.8785 36.7003 10.7876 36.5842Z" fill="#F8F2EA"/>
<path d="M24.3383 39.1335C24.3466 39.1731 24.3838 39.157 24.4065 39.169C24.2652 39.2019 24.1243 39.2353 23.9829 39.2682C24.0912 39.19 24.2135 39.1578 24.3383 39.1335Z" fill="#F8F2EA"/>
<path d="M39.5442 19.6074C39.533 19.6189 39.5219 19.63 39.5103 19.6416C39.4665 19.5217 39.4785 19.3994 39.5082 19.2755L39.5442 19.6074Z" fill="#F8F2EA"/>
<path d="M8.89467 35.3298C8.78556 35.2651 8.68182 35.1935 8.59503 35.1004C8.5942 35.0843 8.60247 35.0786 8.61776 35.0823C8.72604 35.1292 8.80291 35.2178 8.89384 35.2878C8.9083 35.3014 8.90872 35.3154 8.89467 35.3298Z" fill="#F8F2EA"/>
<path d="M12.5631 4.25407C12.5747 4.26561 12.5858 4.27755 12.5974 4.28908C12.5102 4.34962 12.4135 4.38751 12.3081 4.40398C12.3829 4.33521 12.4672 4.28496 12.5627 4.25366L12.5631 4.25407Z" fill="#F8F2EA"/>
<path d="M19.1701 2.42627C19.1813 2.43821 19.1929 2.45016 19.204 2.4621C19.0953 2.51729 18.9821 2.49052 18.8672 2.46498C18.968 2.45222 19.0693 2.43904 19.1701 2.42627Z" fill="#F8F2EA"/>
<path d="M2.49203 14.8769C2.47798 14.8769 2.46351 14.8761 2.44946 14.8757C2.49121 14.7839 2.53295 14.692 2.57469 14.6006C2.5718 14.7027 2.55527 14.7983 2.49203 14.8769Z" fill="#F8F2EA"/>
<path d="M3.18799 13.1048C3.238 13.0031 3.28801 12.901 3.33801 12.7993C3.35041 12.805 3.36322 12.8108 3.37562 12.8166C3.32809 12.9195 3.29834 13.0307 3.18799 13.1048Z" fill="#F8F2EA"/>
<path d="M38.411 16.1463C38.3867 16.0491 38.3623 15.9519 38.3379 15.8547C38.4094 15.9268 38.44 16.0125 38.4412 16.108C38.4569 16.141 38.4412 16.1496 38.4106 16.1463H38.411Z" fill="#F8F2EA"/>
<path d="M38.1398 28.1741C38.1493 28.1852 38.1588 28.1967 38.1683 28.2078C38.1377 28.2939 38.1034 28.3779 38.0208 28.4694C38.0513 28.3475 38.0881 28.2581 38.1398 28.1741Z" fill="#F8F2EA"/>
<path d="M5.55616 8.84393C5.56773 8.85546 5.57972 8.86741 5.59129 8.87894C5.55203 8.9679 5.48094 9.03091 5.4082 9.09433C5.43755 8.99878 5.48466 8.91436 5.55616 8.84393Z" fill="#F8F2EA"/>
<path d="M3.05214 28.6238C3.10422 28.7144 3.1534 28.8054 3.16414 28.9133C3.10132 28.8326 3.05007 28.7465 3.02734 28.6456C3.03561 28.6382 3.04388 28.6312 3.05214 28.6238Z" fill="#F8F2EA"/>
<path d="M8.89487 35.3298C8.89487 35.3158 8.89446 35.3018 8.89404 35.2878C8.97588 35.3347 9.05068 35.3903 9.1073 35.4702C9.02836 35.436 8.94901 35.4031 8.89487 35.3302V35.3298Z" fill="#F8F2EA"/>
<path d="M38.148 15.069C38.0843 14.9994 38.0368 14.924 38.0538 14.7935C38.093 14.9084 38.1207 14.9887 38.148 15.069Z" fill="#F8F2EA"/>
<path d="M38.4111 16.1463C38.4215 16.1335 38.4314 16.1207 38.4417 16.108C38.483 16.1846 38.495 16.2674 38.4822 16.3563C38.4587 16.2863 38.4347 16.2163 38.4111 16.1463Z" fill="#F8F2EA"/>
<path d="M38.8615 26.0589C38.8722 26.0634 38.8826 26.0626 38.8929 26.0576C38.8693 26.1326 38.8458 26.2079 38.8082 26.3278C38.795 26.1981 38.8164 26.126 38.8615 26.0593V26.0589Z" fill="#F8F2EA"/>
<path d="M16.5455 2.64615C16.6315 2.60291 16.7216 2.58397 16.8518 2.5992C16.7315 2.6235 16.6493 2.6651 16.5563 2.65892C16.5526 2.6548 16.5493 2.65027 16.5455 2.64615Z" fill="#F8F2EA"/>
<path d="M8.59543 35.1004C8.52765 35.0456 8.45987 34.9913 8.39209 34.9365C8.39994 34.9287 8.40738 34.9204 8.41523 34.9126C8.49252 34.9579 8.56071 35.0139 8.61816 35.0823C8.60824 35.0852 8.6008 35.0913 8.59543 35.1004Z" fill="#F8F2EA"/>
<path d="M38.7011 26.6803C38.6924 26.6713 38.6837 26.6618 38.675 26.6527C38.6957 26.5811 38.7164 26.5094 38.737 26.4377C38.7482 26.5234 38.7515 26.607 38.7007 26.6803H38.7011Z" fill="#F8F2EA"/>
</g>
<path d="M27.7 19.0152C27.6707 19.8786 27.5148 20.733 27.2372 21.5511C26.9689 22.3526 26.6445 23.134 26.3683 23.9312C26.0274 24.9121 25.6773 25.898 25.5546 26.9399C25.4251 27.9415 25.4251 28.9556 25.5546 29.9572C25.612 30.3691 25.6471 30.7838 25.6981 31.1964C25.7082 31.3107 25.6983 31.4258 25.6686 31.5366C25.6098 31.7906 25.3314 31.9312 25.0695 31.8508C24.7917 31.7634 24.5233 31.6487 24.268 31.5086C22.2961 30.4452 20.348 29.3394 18.3898 28.2509C16.3354 27.11 14.2825 25.9662 12.2468 24.7923C11.141 24.1551 10.069 23.4633 8.98405 22.7924C8.7243 22.631 8.69703 22.4997 8.78816 22.2363C8.88862 21.9493 9.11178 21.8058 9.37799 21.6939C9.75471 21.5403 10.1486 21.4377 10.5347 21.315C11.4503 21.0237 12.2317 20.5099 12.9629 19.91C13.5728 19.4077 14.1727 18.8983 14.7403 18.3493C15.0813 18.0073 15.4047 17.6481 15.709 17.273C16.23 16.6381 16.788 16.0346 17.3802 15.4655C18.4199 14.4925 19.6383 13.8424 20.9823 13.4068C21.5879 13.2109 22.2079 13.1915 22.8386 13.2554C23.5102 13.3272 24.1173 13.5769 24.6885 13.9105C25.8452 14.5872 26.7479 15.5042 27.2774 16.7535C27.512 17.3046 27.6685 18.1463 27.7 19.0152ZM27.3413 19.0289C27.3327 18.9047 27.3262 18.7806 27.3169 18.6564C27.2537 17.8348 27.098 17.0276 26.6983 16.3043C25.622 14.3626 23.8791 13.5575 21.7544 13.7211C20.955 13.7828 20.2088 14.054 19.5013 14.4286C18.5426 14.9338 17.7533 15.6391 17.0429 16.4442C16.2471 17.3469 15.4708 18.2661 14.609 19.1107C13.9036 19.8031 13.2413 20.54 12.4089 21.0918C12.0703 21.3171 11.7387 21.546 11.3369 21.6522C10.8371 21.7787 10.33 21.8745 9.81857 21.9393C9.59438 21.9609 9.37739 22.0301 9.1821 22.1423C8.98047 22.2679 8.96253 22.4724 9.14263 22.6288C9.20803 22.684 9.2804 22.7303 9.3579 22.7666C9.95491 23.0536 10.5376 23.3715 11.1109 23.7044C13.0103 24.8066 14.9068 25.9131 16.8097 27.0052C18.5914 28.032 20.4104 28.9928 22.1462 30.0979C22.8888 30.5707 23.681 30.9496 24.4732 31.3278C24.6218 31.3947 24.7839 31.4264 24.9468 31.4203C25.0313 31.422 25.1141 31.3964 25.1829 31.3473C25.2517 31.2982 25.3027 31.2281 25.3285 31.1476C25.4304 30.8936 25.4075 30.6303 25.3752 30.3705C25.297 29.7398 25.1807 29.1148 25.124 28.4812C25.002 27.1308 25.1836 25.8327 25.7497 24.5942C26.3044 23.3808 26.7931 22.1445 27.0686 20.8328C27.1949 20.2387 27.3843 19.651 27.3391 19.0289H27.3413Z" fill="#F8F2EA"/>
<path d="M28.0467 11.844C28.0251 12.8629 27.5982 13.7096 26.9459 14.4673C26.8806 14.5434 26.8082 14.6108 26.7371 14.6826C26.724 14.6999 26.7069 14.7138 26.6874 14.7231C26.6678 14.7325 26.6463 14.737 26.6246 14.7364C26.6029 14.7358 26.5817 14.73 26.5627 14.7195C26.5437 14.709 26.5275 14.6941 26.5154 14.6761C25.7426 13.8596 24.7854 13.3774 23.7004 13.1176C23.5979 13.0957 23.4941 13.0799 23.3897 13.0703C23.2326 13.0509 23.206 13.0107 23.2792 12.865C23.4599 12.5125 23.676 12.1792 23.9243 11.8705C24.2931 11.4055 24.672 10.9434 25.1693 10.6119C25.7864 10.2008 26.4609 10.0099 27.1935 10.2639C27.6477 10.421 27.8529 10.7891 27.9771 11.219C28.027 11.4234 28.0504 11.6335 28.0467 11.844ZM26.5204 10.3931C26.3834 10.3889 26.2463 10.3968 26.1107 10.4167C25.7082 10.4993 25.3888 10.7296 25.0832 10.9865C24.4524 11.5153 24.0305 12.2164 23.5368 12.8579C23.4651 12.9526 23.4888 12.9956 23.6086 13.0114C23.8303 13.0408 24.0535 13.0724 24.2723 13.1212C25.175 13.3228 25.9012 13.8223 26.5305 14.4802C26.6352 14.59 26.6998 14.5958 26.8082 14.4946C26.9353 14.3714 27.0462 14.2325 27.1382 14.0813C27.6147 13.3307 27.9276 12.5285 27.8292 11.6222C27.7761 11.1551 27.5516 10.7612 27.1203 10.5244C26.9364 10.4257 26.7287 10.3802 26.5204 10.3931Z" fill="#F8F2EA"/>
<path d="M15.2017 32.5684C14.0221 32.5591 12.9988 31.6787 12.8689 30.5098C12.7714 29.6272 13.1258 28.924 13.8455 28.4109C14.7561 27.7615 15.9681 27.7888 16.8026 28.4827C17.3565 28.9448 17.5625 29.5676 17.5467 30.2701C17.5441 30.5788 17.4863 30.8845 17.3759 31.1728C17.0523 31.9829 16.4244 32.3984 15.587 32.5361C15.4572 32.5512 15.3302 32.5562 15.2017 32.5684ZM17.3544 30.2385C17.3587 29.7004 17.2826 29.3315 17.0516 29.0266C16.4969 28.2961 15.7793 27.9266 14.8365 28.0787C13.4121 28.3083 12.6164 29.9228 13.3296 31.1692C13.6719 31.7669 14.2144 32.1221 14.8709 32.2972C15.2774 32.4056 15.7096 32.3614 16.0857 32.1731C16.964 31.754 17.2798 30.9891 17.3572 30.24L17.3544 30.2385Z" fill="#F8F2EA"/>
<path d="M19.2516 10.5674C19.1328 10.5659 19.0172 10.5293 18.9193 10.4621C18.8213 10.3949 18.7455 10.3002 18.7012 10.19C18.5721 9.90298 18.5986 9.64395 18.8017 9.4007C18.92 9.27552 19.0553 9.16755 19.2035 9.07995C19.403 8.94505 19.6742 9.07564 19.8809 9.24283C20.0876 9.41002 20.1084 9.62744 20.0517 9.86711C19.9598 10.2524 19.7625 10.566 19.2516 10.5674ZM19.3671 9.38563C19.1576 9.38204 19.0428 9.49398 19.0801 9.67265C19.1275 9.88792 19.2674 10.0314 19.4389 10.1548C19.4526 10.1648 19.4688 10.1707 19.4857 10.1719C19.5026 10.173 19.5194 10.1693 19.5343 10.1613C19.6455 10.1082 19.7446 9.85419 19.7123 9.7035C19.6635 9.46743 19.5781 9.3885 19.3671 9.38563ZM18.9187 9.73436C18.9014 9.88648 18.9904 9.99483 19.0708 10.1154C19.0758 10.0953 19.0823 10.0845 19.0794 10.0774C19.0313 9.96039 18.9574 9.85563 18.9187 9.73436Z" fill="#050404"/>
<path d="M10.1781 14.0447C9.84368 14.0411 9.53226 13.7577 9.47629 13.3989C9.45152 13.2395 9.4836 13.0765 9.56689 12.9384C9.65019 12.8002 9.77941 12.6958 9.93194 12.6433C10.0652 12.591 10.2079 12.5665 10.351 12.5716C10.727 12.606 10.9401 12.8909 10.8927 13.2683C10.8597 13.5288 10.7155 13.7283 10.5483 13.9141C10.4995 13.9611 10.4412 13.9971 10.3774 14.0196C10.3135 14.0421 10.2455 14.0507 10.1781 14.0447ZM9.86234 13.6508L9.89391 13.6615C9.89391 13.6544 9.89391 13.6443 9.8853 13.6414C9.8688 13.6307 9.86521 13.6465 9.86019 13.6565L9.8853 13.6436C9.83664 13.5486 9.8082 13.4445 9.80178 13.3379C9.79536 13.2313 9.81109 13.1245 9.84799 13.0243C9.65425 13.1923 9.66716 13.4197 9.86019 13.6508H9.86234ZM10.595 13.2705C10.595 13.1018 10.4515 12.9834 10.2541 12.9834C10.2136 12.9818 10.1732 12.9886 10.1354 13.0033C10.0976 13.018 10.0633 13.0403 10.0345 13.0688C10.0056 13.0974 9.98302 13.1315 9.96798 13.1692C9.95293 13.2068 9.9458 13.2472 9.94701 13.2877C9.94701 13.503 10.1077 13.7003 10.2857 13.6996C10.4636 13.6988 10.595 13.5151 10.595 13.2705Z" fill="#050404"/>
<path d="M30.8214 22.3353C30.83 22.5506 30.7669 22.7407 30.5789 22.852C30.3593 22.9818 30.1276 23.022 29.8908 22.8678C29.6827 22.7321 29.5736 22.3655 29.669 22.0827C29.7645 21.8 29.9704 21.6737 30.2639 21.7039C30.6499 21.7426 30.8221 21.9378 30.8214 22.3353ZM30.5021 22.2327C30.5047 22.2009 30.5005 22.169 30.4898 22.139C30.4791 22.1089 30.4622 22.0815 30.4402 22.0585C30.4182 22.0354 30.3915 22.0173 30.362 22.0053C30.3325 21.9933 30.3008 21.9876 30.2689 21.9887C30.1118 21.9887 30.0142 22.1071 30.0127 22.3009C30.0127 22.4803 30.1333 22.6597 30.256 22.6561C30.3787 22.6525 30.4992 22.4415 30.5021 22.2327Z" fill="#050404"/>
<path d="M31.0998 26.8201C30.965 26.8134 30.8377 26.756 30.7435 26.6594C30.6493 26.5628 30.5951 26.4341 30.5918 26.2991C30.5931 26.1739 30.642 26.0539 30.7287 25.9636C30.8153 25.8732 30.9332 25.8192 31.0582 25.8126C31.455 25.7976 31.6129 26.0078 31.4887 26.3867C31.465 26.4737 31.4347 26.5589 31.3983 26.6414C31.375 26.6998 31.3332 26.7489 31.2792 26.7811C31.2253 26.8134 31.1623 26.8271 31.0998 26.8201ZM31.2268 26.3781C31.2218 26.3113 31.1701 26.3063 31.1235 26.3063C31.046 26.3063 30.9915 26.3508 30.9965 26.429C30.9965 26.4807 31.0187 26.5625 31.0898 26.5489C31.1608 26.5352 31.2053 26.4534 31.2297 26.3781H31.2268ZM31.1788 26.0064C31.051 25.9382 30.9635 25.9691 30.8645 26.0401L31.1788 26.0064Z" fill="#050404"/>
<path d="M12.3904 15.6965C12.3588 15.858 12.3143 16.0553 12.1162 16.1737C11.8565 16.3272 11.6441 16.2505 11.5422 15.967C11.52 15.9041 11.512 15.837 11.5186 15.7706C11.5253 15.7042 11.5465 15.6401 11.5808 15.5829C11.615 15.5256 11.6615 15.4766 11.7168 15.4393C11.7722 15.402 11.835 15.3774 11.901 15.3671C12.0086 15.3514 12.1162 15.3305 12.2224 15.3851C12.3437 15.4497 12.3896 15.5128 12.3904 15.6965ZM12.1306 15.7159C12.1449 15.6326 12.0868 15.6118 12.0201 15.6161C11.9225 15.6219 11.8242 15.6434 11.8142 15.7647C11.8072 15.8055 11.8167 15.8475 11.8405 15.8815C11.8642 15.9154 11.9004 15.9387 11.9412 15.9462C12.0215 15.9641 12.1263 15.8357 12.1306 15.7159Z" fill="#050404"/>
<path d="M27.3392 19.0288C27.3844 19.6509 27.1957 20.2386 27.0701 20.8356C26.7945 22.1473 26.3059 23.3837 25.7512 24.597C25.1851 25.8355 25.0035 27.1336 25.1255 28.484C25.1822 29.1176 25.2984 29.7426 25.3767 30.3734C25.409 30.6331 25.4319 30.8965 25.33 31.1505C25.3042 31.231 25.2531 31.301 25.1844 31.3501C25.1156 31.3993 25.0328 31.4249 24.9483 31.4232C24.7854 31.4293 24.6233 31.3976 24.4747 31.3306C23.6854 30.9524 22.8903 30.5736 22.1477 30.1007C20.4119 28.9957 18.5929 28.0349 16.8112 27.008C14.9082 25.9123 13.0082 24.8059 11.1124 23.7073C10.5383 23.3743 9.9564 23.0615 9.35939 22.7694C9.2819 22.7332 9.20952 22.6868 9.14413 22.6317C8.96402 22.4752 8.98196 22.2729 9.18359 22.1452C9.37889 22.033 9.59587 21.9637 9.82006 21.9421C10.3315 21.8774 10.8386 21.7815 11.3384 21.6551C11.7402 21.5489 12.0718 21.32 12.4104 21.0947C13.2428 20.5429 13.9051 19.8031 14.6105 19.1135C15.4715 18.2689 16.2486 17.3497 17.0444 16.4471C17.7534 15.642 18.5448 14.9366 19.5006 14.4307C20.2081 14.0562 20.9544 13.7849 21.7537 13.7232C23.8784 13.5603 25.6242 14.3654 26.6977 16.3064C27.0974 17.0297 27.2531 17.837 27.3162 18.6586C27.3241 18.7805 27.3306 18.9025 27.3392 19.0288ZM24.832 14.4616L24.8026 14.4357L24.7445 14.4056C24.7316 14.3905 24.7158 14.3812 24.7014 14.4006C24.7014 14.4042 24.7144 14.4207 24.7215 14.4307L24.7782 14.4616L24.8084 14.4874C24.8227 14.5003 24.8385 14.5111 24.8528 14.491C24.8572 14.4874 24.8392 14.4716 24.832 14.4616ZM14.7611 19.915C14.7611 19.9351 14.7525 19.9444 14.7324 19.9437L14.708 19.976C14.6406 20.0363 14.5767 20.1016 14.5043 20.1561C13.8585 20.6483 13.2572 21.1994 12.5669 21.6407C12.5855 21.6488 12.6061 21.6514 12.6262 21.6483C12.6462 21.6451 12.665 21.6362 12.6802 21.6228C13.4327 21.203 14.1141 20.6671 14.6994 20.0348C14.7138 20.0183 14.7547 19.999 14.7066 19.9738C14.7174 19.9738 14.7253 20.0025 14.7368 19.9789C14.7411 19.9695 14.7368 19.9552 14.7324 19.9437C14.7647 19.9573 14.7698 19.9437 14.7604 19.9157L14.7733 19.9193H14.7698L14.7611 19.915ZM20.4679 28.5551C20.4549 28.5414 20.4406 28.5336 20.4262 28.5515C20.4262 28.5515 20.4392 28.5694 20.4463 28.5795C20.465 28.5945 20.4887 28.6118 20.5045 28.5859C20.5202 28.5601 20.4858 28.5615 20.4679 28.5565V28.5551ZM25.6529 22.4264C25.6386 22.4422 25.6213 22.4566 25.6436 22.4917C25.6472 22.4638 25.6493 22.4444 25.6515 22.4257L25.6802 22.3676C25.7089 22.3454 25.7053 22.3124 25.7096 22.2822C25.7175 22.2715 25.7441 22.2664 25.7189 22.2471L25.7103 22.2829C25.6802 22.3045 25.6866 22.3382 25.6816 22.3683L25.6529 22.4264ZM24.6003 14.3181C24.5874 14.3016 24.5723 14.2915 24.5565 14.3123C24.5565 14.3123 24.5701 14.3324 24.578 14.3432C24.6096 14.3661 24.6354 14.4078 24.6857 14.3791C24.6794 14.3615 24.6678 14.3463 24.6525 14.3356C24.6372 14.325 24.6189 14.3193 24.6003 14.3195V14.3181ZM22.4275 29.8173C22.4376 29.8266 22.4498 29.8381 22.4598 29.8173C22.4598 29.813 22.4519 29.8022 22.4469 29.7943C22.3756 29.731 22.2857 29.6925 22.1907 29.6845C22.2571 29.7477 22.3387 29.7927 22.4275 29.8151V29.8173ZM9.37733 22.2212C9.25965 22.2786 9.25965 22.2786 9.22593 22.3705C9.35867 22.3045 9.35867 22.3045 9.3759 22.2176C9.3759 22.2334 9.38738 22.2384 9.39958 22.2298C9.41177 22.2212 9.4089 22.2105 9.40675 22.209C9.3924 22.199 9.38379 22.2097 9.37733 22.2212ZM20.3559 28.7244C20.3767 28.7108 20.3789 28.6972 20.3559 28.6893C20.3473 28.6893 20.3236 28.6764 20.3301 28.7022C20.3301 28.7108 20.3509 28.7158 20.3624 28.7223L20.4973 28.8005C20.8718 29.0107 21.2435 29.226 21.6346 29.404C21.6975 29.4586 21.7768 29.4906 21.8599 29.4951L21.6511 29.3839C21.2486 29.1686 20.8453 28.9462 20.442 28.7287C20.4148 28.7158 20.3853 28.6814 20.3566 28.7244H20.3559ZM24.5005 28.3441L24.4668 28.0571C24.4436 28.1298 24.4344 28.2063 24.4395 28.2824C24.4415 28.3008 24.4456 28.3188 24.4517 28.3362C24.4582 28.3735 24.4675 28.408 24.4704 28.4489C24.504 28.8863 24.5932 29.3177 24.7359 29.7326C24.8009 29.9315 24.8847 30.1237 24.9863 30.3066C25.0157 30.2349 24.9784 30.1897 24.9598 30.143C24.7258 29.5611 24.629 28.9483 24.4984 28.3441H24.5005ZM26.5032 18.1132C26.5223 18.0274 26.5223 17.9385 26.5032 17.8527C26.3839 17.0513 25.9864 16.3174 25.3802 15.7797C24.9325 15.3801 24.4855 15.0012 23.8734 14.8526C23.3223 14.7206 22.7762 14.5972 22.2022 14.6575C20.9709 14.7852 19.896 15.2825 18.9452 16.0553C17.6163 17.1316 16.4424 18.3708 15.3531 19.6883C14.8767 20.2609 14.3643 20.8025 13.819 21.3099C13.1919 21.8969 12.447 22.3066 11.652 22.6259C11.5408 22.6704 11.4288 22.7127 11.3004 22.7623C15.6301 25.1625 19.8988 27.6273 24.1446 30.1308C24.1518 30.1139 24.1551 30.0955 24.1542 30.0772C24.1533 30.0588 24.1483 30.0408 24.1396 30.0246C24.0565 29.7653 23.9945 29.4997 23.9545 29.2303C23.8447 28.4022 23.9057 27.5799 24.0549 26.7626C24.1837 26.1122 24.3669 25.4737 24.6024 24.8539C24.9425 23.9118 25.2482 22.956 25.5575 22.0031C25.7778 21.3279 26.0217 20.6605 26.0957 19.9437C26.2227 18.7074 25.9945 17.5585 25.3315 16.4994C25.2475 16.3831 25.1834 16.2536 25.142 16.1163C25.114 15.9943 25.1592 15.9433 25.2812 15.9728C25.3928 16.0046 25.4899 16.0741 25.556 16.1694C25.6837 16.3365 25.7993 16.5125 25.9019 16.696C26.1488 17.1481 26.3095 17.6325 26.5032 18.1132ZM24.7854 26.8896C24.662 27.8174 24.6806 28.7316 25.0487 29.6113C24.8515 28.718 24.7631 27.8042 24.7854 26.8896ZM18.7228 15.7783C19.247 15.3838 19.8061 15.0379 20.3932 14.745C19.7245 14.905 19.205 15.3148 18.7228 15.7783ZM17.7469 27.1042C18.3446 27.473 18.9416 27.8433 19.6003 28.0958C18.9911 27.7486 18.3805 27.4034 17.7469 27.1042ZM10.8921 23.4289C10.8447 23.2933 10.3898 23.0199 10.28 23.0507L10.8921 23.4289ZM25.8373 23.365L25.7993 23.3499L25.4606 24.2261L25.4986 24.2411L25.8373 23.365ZM21.4437 14.1172C21.7288 14.1432 22.016 14.1326 22.2983 14.0856C22.0133 14.0588 21.726 14.0694 21.4437 14.1172ZM22.8839 14.0059L23.717 14.2126C23.456 14.0883 23.1726 14.018 22.8839 14.0059ZM21.0541 14.199C20.8252 14.1875 20.6236 14.2901 20.4083 14.3525C20.6429 14.3626 20.8439 14.2542 21.0541 14.199ZM24.5486 29.7584C24.556 29.9394 24.6203 30.1134 24.7323 30.2557L24.5486 29.7584ZM23.9337 30.7149L23.9559 30.679L23.5799 30.5133L23.5656 30.5463C23.6807 30.6178 23.8044 30.6744 23.9337 30.7149ZM26.4917 18.3794C26.5054 18.5064 26.4917 18.6428 26.5535 18.7655C26.5725 18.7006 26.5768 18.6323 26.5661 18.5655C26.5554 18.4987 26.53 18.4352 26.4917 18.3794ZM17.4355 26.9305C17.5187 26.9779 17.579 27.0654 17.7225 27.0741C17.6134 27.0009 17.5381 26.9391 17.4355 26.9305ZM24.5787 27.2068C24.6136 27.1047 24.6232 26.9956 24.6067 26.8889C24.5909 26.98 24.5421 27.0676 24.5787 27.2068ZM19.6276 28.1202C19.7127 28.1886 19.8102 28.24 19.9146 28.2717C19.8301 28.2008 19.7312 28.1492 19.6247 28.1202H19.6276ZM20.1033 28.3606C20.0488 28.3298 20.0093 28.3068 19.9677 28.2853C19.962 28.2853 19.9512 28.2889 19.9426 28.291C19.9527 28.3219 19.9806 28.3305 20.0058 28.3413C20.0309 28.352 20.0495 28.3807 20.1005 28.3606H20.1033ZM25.7828 22.0913C25.7692 22.11 25.7562 22.12 25.7541 22.1322C25.7519 22.1444 25.7275 22.1839 25.7728 22.1681C25.79 22.1609 25.7957 22.1315 25.7799 22.0913H25.7828ZM23.9243 14.275C23.9408 14.2987 23.9631 14.3389 24.0126 14.3188L23.9243 14.275ZM23.8526 14.275C23.8332 14.2434 23.8102 14.2068 23.7593 14.2312L23.8526 14.275ZM20.1442 28.4037C20.1442 28.4324 20.1665 28.4403 20.1859 28.4503C20.1936 28.4552 20.2029 28.4571 20.2119 28.4558C20.221 28.4545 20.2293 28.45 20.2354 28.4431C20.2335 28.4321 20.2285 28.4217 20.2211 28.4134C20.2136 28.405 20.2038 28.3989 20.193 28.3958C20.1853 28.3909 20.1761 28.389 20.1671 28.3905C20.1582 28.3919 20.15 28.3966 20.1442 28.4037ZM17.3723 26.8767L17.3544 26.8631C17.3517 26.8692 17.3493 26.8754 17.3472 26.8817C17.3472 26.8817 17.3544 26.8896 17.3565 26.8882C17.362 26.8847 17.3673 26.8808 17.3723 26.8767ZM25.8696 21.8811C25.8717 21.877 25.8731 21.8727 25.8739 21.8682C25.8739 21.8531 25.8675 21.851 25.8624 21.8617C25.861 21.8662 25.861 21.8709 25.8624 21.8754C25.8624 21.8754 25.8668 21.8789 25.8696 21.8811ZM25.8201 22.0189L25.8115 22.0095C25.8074 22.0164 25.8041 22.0236 25.8015 22.0311C25.8015 22.0311 25.8065 22.0375 25.8093 22.0411L25.8201 22.0189ZM24.7617 30.3224C24.7617 30.3145 24.7574 30.3016 24.7524 30.3002C24.7366 30.2959 24.7316 30.3074 24.7352 30.321C24.7387 30.3288 24.743 30.3363 24.7481 30.3432L24.7617 30.3224ZM23.5132 30.5111C23.5132 30.5111 23.5132 30.5025 23.5132 30.5018C23.5132 30.5011 23.5038 30.4975 23.501 30.5018C23.4981 30.5061 23.4909 30.514 23.501 30.5176C23.511 30.5212 23.5089 30.5126 23.5132 30.5111ZM24.0678 14.3482C24.0643 14.3446 24.0614 14.3389 24.0585 14.3382C24.0556 14.3374 24.0513 14.3439 24.0485 14.3468C24.0456 14.3496 24.0549 14.3554 24.0578 14.3554C24.0607 14.3554 24.0635 14.3504 24.0678 14.3482ZM24.5199 14.2765C24.5199 14.2765 24.5106 14.2829 24.5113 14.2851C24.5134 14.2914 24.5163 14.2974 24.5199 14.303C24.5199 14.303 24.5292 14.2965 24.5285 14.2944C24.5263 14.2876 24.5229 14.2813 24.5185 14.2757L24.5199 14.2765ZM20.2748 28.4589L20.2569 28.469C20.2569 28.4726 20.2634 28.479 20.2662 28.4783C20.2729 28.4762 20.2792 28.4731 20.2849 28.469L20.2748 28.4589ZM20.3416 28.4984C20.3416 28.4984 20.3351 28.4891 20.333 28.4898C20.3265 28.4918 20.3203 28.4944 20.3143 28.4977C20.3143 28.4977 20.3208 28.5063 20.3236 28.5063C20.3299 28.5044 20.3359 28.5018 20.3416 28.4984ZM20.3897 28.5364L20.399 28.5278C20.3935 28.5242 20.3874 28.5215 20.381 28.5199C20.381 28.5199 20.3753 28.5242 20.3724 28.5271L20.3897 28.5364ZM24.8902 14.5118L24.8808 14.5175C24.8808 14.5175 24.8851 14.5254 24.888 14.5254C24.8909 14.5254 24.8945 14.5219 24.8973 14.5197L24.8902 14.5118ZM24.469 14.2556C24.469 14.2556 24.4611 14.2499 24.4589 14.2513C24.4446 14.2564 24.4446 14.2635 24.4589 14.27C24.4589 14.27 24.4661 14.27 24.469 14.265C24.4718 14.2599 24.469 14.2592 24.469 14.2556ZM24.4065 14.2248L24.3979 14.2327C24.3979 14.2327 24.4029 14.2406 24.4065 14.2406C24.4101 14.2406 24.4123 14.2356 24.4151 14.2334L24.4065 14.2248Z" fill="#050404"/>
<path d="M26.5204 10.393C26.7286 10.3802 26.9364 10.4257 27.1202 10.5244C27.5508 10.7626 27.7761 11.1551 27.8292 11.6222C27.9311 12.5285 27.6139 13.3307 27.1382 14.0813C27.0462 14.2325 26.9353 14.3714 26.8081 14.4946C26.6997 14.5958 26.6352 14.59 26.5304 14.4802C25.9011 13.8222 25.1749 13.3228 24.2723 13.1212C24.0534 13.0724 23.8302 13.0408 23.6085 13.0114C23.4887 12.9956 23.465 12.9526 23.5368 12.8579C24.0304 12.2164 24.4524 11.5153 25.0831 10.9865C25.3888 10.7296 25.7081 10.4992 26.1106 10.4167C26.2462 10.3968 26.3834 10.3889 26.5204 10.393ZM24.9195 11.7055C24.9195 11.6933 24.9295 11.6732 24.9259 11.6703C24.908 11.6595 24.9059 11.6768 24.9023 11.6882L24.8736 11.7169C24.5801 11.9753 24.3806 12.3046 24.161 12.6347C24.2012 12.6404 24.2328 12.6512 24.2364 12.644C24.4574 12.3417 24.677 12.0389 24.8951 11.7356L24.9195 11.7055ZM27.23 13.7864L27.253 13.7569L27.2365 13.7491C27.2365 13.762 27.2329 13.7749 27.2315 13.7878L27.2243 13.7978L27.23 13.7864ZM27.5579 12.9928C27.6237 12.8473 27.6616 12.6908 27.6699 12.5314C27.6831 12.5051 27.6899 12.4761 27.6899 12.4467C27.6899 12.4173 27.6831 12.3883 27.6699 12.362C27.662 12.4288 27.6562 12.4732 27.6512 12.5184C27.5978 12.6675 27.5596 12.8216 27.5371 12.9784C27.517 12.9992 27.4998 13.0387 27.5235 13.0502C27.5615 13.0595 27.545 13.0107 27.5579 12.9928ZM24.395 12.6777C25.1305 12.9131 25.8301 13.1729 26.3998 13.6888C26.4464 13.7311 26.468 13.7117 26.4952 13.6673C26.7629 13.2317 26.9817 12.7796 26.9975 12.2544C27.0047 12.0391 26.9552 11.8239 26.7945 11.694C26.445 11.4113 26.0934 11.2965 25.6277 11.5462C25.1261 11.8145 24.7982 12.2795 24.395 12.6777ZM27.1934 11.7952C27.22 11.3402 26.9064 10.8681 26.6194 10.9011C26.938 11.1041 27.1001 11.4098 27.1927 11.7987L27.1934 11.7952ZM26.8964 13.6299C26.8203 13.7684 26.7442 13.8861 26.7457 14.0354C26.8026 13.9394 26.8525 13.8394 26.8949 13.7361C26.9034 13.7197 26.9079 13.7016 26.908 13.6831C26.9082 13.6647 26.9039 13.6464 26.8956 13.6299H26.8964ZM27.3211 13.5941C27.3886 13.5001 27.3886 13.5001 27.3929 13.419C27.3697 13.4415 27.3513 13.4685 27.3389 13.4984C27.3264 13.5282 27.3201 13.5603 27.3204 13.5926L27.3211 13.5941ZM27.5178 13.1363L27.5063 13.114C27.5013 13.1198 27.4912 13.1269 27.4919 13.132C27.4953 13.1417 27.5001 13.1509 27.5063 13.1592C27.5103 13.1518 27.5139 13.1441 27.517 13.1363H27.5178ZM27.4137 13.3429C27.4137 13.353 27.4065 13.3623 27.4087 13.3688C27.4108 13.3752 27.4216 13.3831 27.4281 13.3688C27.4345 13.3544 27.4317 13.3587 27.4281 13.3558C27.4234 13.3511 27.4184 13.3468 27.413 13.3429H27.4137ZM27.2831 13.6873L27.2752 13.6766C27.2716 13.6802 27.2666 13.683 27.2666 13.6859C27.2666 13.6888 27.2709 13.6931 27.2738 13.6967L27.2831 13.6873ZM27.3125 13.6299L27.3046 13.6192C27.3011 13.6192 27.296 13.6256 27.2953 13.6285C27.2946 13.6314 27.3003 13.6357 27.3032 13.6393C27.3063 13.6363 27.3091 13.6332 27.3118 13.6299H27.3125Z" fill="#050404"/>
<path d="M17.3573 30.24C17.2798 30.9905 16.9655 31.7554 16.0901 32.1774C15.7139 32.3657 15.2818 32.4099 14.8753 32.3015C14.2187 32.1264 13.6762 31.7712 13.3339 31.1735C12.6164 29.9271 13.415 28.3126 14.8408 28.083C15.7837 27.9309 16.5012 28.2982 17.0559 29.0309C17.2862 29.3315 17.3616 29.7004 17.3573 30.24ZM16.047 31.388C16.0226 31.3622 16.0018 31.388 15.9796 31.3938C15.9786 31.3973 15.9786 31.401 15.9796 31.4045C15.9903 31.4081 16.002 31.408 16.0127 31.4044C16.0234 31.4008 16.0327 31.3938 16.0391 31.3845C16.0549 31.3787 16.0843 31.3801 16.0599 31.3507C16.1317 31.3651 16.1661 31.3077 16.2106 31.2696C16.2465 31.2589 16.2652 31.2374 16.2508 31.1979L16.1905 31.2496C16.1482 31.284 16.1059 31.3213 16.0642 31.3536C16.0499 31.3601 16.0154 31.3565 16.047 31.388ZM15.1242 31.3572C15.4085 31.3615 15.6871 31.2778 15.9219 31.1176C16.1567 30.9574 16.3362 30.7286 16.4359 30.4624C16.6512 29.9199 16.5428 29.3143 16.141 28.9397C15.7779 28.6018 15.3431 28.5329 14.8724 28.6527C14.2653 28.8077 13.758 29.3947 13.7429 29.9536C13.7414 30.1366 13.776 30.318 13.8446 30.4875C13.9132 30.6571 14.0145 30.8115 14.1428 30.9419C14.271 31.0723 14.4237 31.1761 14.5921 31.2475C14.7605 31.3189 14.9413 31.3564 15.1242 31.3579V31.3572Z" fill="#050404"/>
<path d="M19.3671 9.38564C19.5781 9.38564 19.6635 9.46744 19.7144 9.70495C19.7467 9.85564 19.6477 10.1097 19.5365 10.1628C19.5216 10.1708 19.5047 10.1745 19.4878 10.1733C19.4709 10.1722 19.4547 10.1663 19.441 10.1563C19.2703 10.0336 19.1303 9.8865 19.0823 9.6741C19.045 9.49399 19.1576 9.38206 19.3671 9.38564Z" fill="#F8F2EA"/>
<path d="M18.9187 9.73438C18.9574 9.85564 19.0313 9.9604 19.0794 10.0774C19.0794 10.0845 19.0794 10.0953 19.0708 10.1154C18.989 9.99485 18.9015 9.8865 18.9187 9.73438Z" fill="#F8F2EA"/>
<path d="M10.595 13.2705C10.595 13.5152 10.463 13.6967 10.2857 13.701C10.1085 13.7053 9.94488 13.503 9.94703 13.2892C9.94582 13.2486 9.95296 13.2083 9.968 13.1706C9.98304 13.133 10.0057 13.0988 10.0345 13.0703C10.0633 13.0418 10.0976 13.0195 10.1354 13.0048C10.1732 12.9901 10.2136 12.9833 10.2541 12.9849C10.4536 12.982 10.595 13.1019 10.595 13.2705Z" fill="#F8F2EA"/>
<path d="M9.86023 13.6515C9.66505 13.4197 9.65214 13.1923 9.84588 13.0244C9.80898 13.1245 9.79325 13.2313 9.79967 13.3379C9.80609 13.4445 9.83453 13.5486 9.88319 13.6436L9.85808 13.6565L9.86023 13.6515Z" fill="#F8F2EA"/>
<path d="M9.86023 13.6563C9.86521 13.6464 9.86876 13.6307 9.88511 13.6414C9.89009 13.6414 9.8908 13.6542 9.89364 13.6613L9.86236 13.6506L9.86023 13.6563Z" fill="#F8F2EA"/>
<path d="M30.5021 22.2328C30.5021 22.4416 30.3765 22.6525 30.256 22.6561C30.1354 22.6597 30.0106 22.4803 30.0127 22.3009C30.0127 22.1072 30.1117 21.9888 30.2689 21.9888C30.3007 21.9877 30.3325 21.9933 30.362 22.0053C30.3915 22.0173 30.4182 22.0355 30.4402 22.0585C30.4622 22.0815 30.4791 22.109 30.4898 22.139C30.5004 22.169 30.5046 22.201 30.5021 22.2328Z" fill="#F8F2EA"/>
<path d="M31.2299 26.3782C31.2055 26.4536 31.1717 26.5333 31.0927 26.5484C31.0137 26.5635 31.0029 26.4802 30.9993 26.4284C30.9943 26.3501 31.0489 26.3063 31.1265 26.3056C31.1717 26.3056 31.2249 26.3113 31.2299 26.3782Z" fill="#F8F2EA"/>
<path d="M31.1788 26.0064L30.8645 26.0401C30.9657 25.9655 31.0511 25.9346 31.1788 26.0064Z" fill="#F8F2EA"/>
<path d="M12.1305 15.7159C12.1262 15.8357 12.0214 15.9641 11.9382 15.9462C11.898 15.938 11.8625 15.9145 11.8393 15.8806C11.8161 15.8467 11.8071 15.8051 11.8141 15.7647C11.8241 15.6434 11.9224 15.6212 12.02 15.6161C12.0846 15.6118 12.1449 15.6326 12.1305 15.7159Z" fill="#F8F2EA"/>
<path d="M26.5032 18.1133C26.3094 17.6304 26.1509 17.146 25.9047 16.6983C25.8022 16.5147 25.6866 16.3387 25.5589 16.1716C25.4927 16.0763 25.3956 16.0068 25.2841 15.975C25.1621 15.9441 25.1169 15.9951 25.1448 16.1185C25.1863 16.2558 25.2503 16.3853 25.3343 16.5016C25.9973 17.5586 26.2255 18.7074 26.0985 19.9459C26.0267 20.6635 25.7806 21.3301 25.5603 22.0053C25.2496 22.9582 24.9454 23.914 24.6052 24.8561C24.3697 25.4759 24.1865 26.1144 24.0578 26.7648C23.9085 27.5843 23.8475 28.4045 23.9573 29.2325C23.9965 29.5011 24.0575 29.766 24.1396 30.0247C24.1485 30.0406 24.1538 30.0584 24.1551 30.0766C24.1563 30.0949 24.1535 30.1132 24.1467 30.1302C19.8988 27.6266 15.6301 25.1618 11.3025 22.7616C11.4309 22.7121 11.5429 22.6698 11.6541 22.6253C12.4491 22.306 13.194 21.8962 13.8211 21.3093C14.3665 20.8033 14.8792 20.263 15.356 19.6919C16.4452 18.3745 17.6191 17.1381 18.948 16.0589C19.8988 15.2861 20.9737 14.7888 22.205 14.6611C22.7791 14.6023 23.3223 14.7243 23.8733 14.8584C24.4833 15.007 24.9303 15.3858 25.3802 15.7855C25.9864 16.3232 26.3839 17.0571 26.5032 17.8585C26.5214 17.9425 26.5214 18.0293 26.5032 18.1133ZM19.385 26.7591C19.5063 26.7641 19.5429 26.7117 19.4862 26.6034C19.4242 26.4744 19.336 26.3598 19.2272 26.2669C19.0668 26.1312 18.8959 26.0083 18.7163 25.8995C18.087 25.5299 17.4247 25.2178 16.7789 24.8899C16.5808 24.7901 16.3885 24.6746 16.1632 24.6323C16.0448 24.6086 15.9573 24.6323 15.9106 24.7291C15.864 24.826 15.9824 24.8353 16.0247 24.8813C16.0465 24.8999 16.0706 24.9156 16.0965 24.9279C17.1054 25.5271 18.1107 26.1312 19.1439 26.6881C19.2177 26.7305 19.3001 26.7556 19.385 26.7613V26.7591ZM18.5484 25.3025C18.5187 25.3037 18.4899 25.3127 18.4648 25.3284C18.4396 25.3441 18.419 25.3661 18.4049 25.3922C18.3718 25.4474 18.4271 25.4711 18.4558 25.4948C18.6932 25.6943 18.9475 25.8729 19.2157 26.0286C19.2638 26.0573 19.342 26.1104 19.3944 26.0365C19.4467 25.9626 19.3901 25.9052 19.3441 25.8593C19.1411 25.6577 18.9366 25.456 18.6639 25.347C18.6244 25.3326 18.5842 25.3183 18.5484 25.3046V25.3025Z" fill="#F8F2EA"/>
<path d="M14.7059 19.9746C14.7547 20.0004 14.7138 20.0198 14.6995 20.0363C14.1141 20.6686 13.4327 21.2045 12.6803 21.6243C12.665 21.6377 12.6463 21.6466 12.6262 21.6497C12.6061 21.6529 12.5855 21.6503 12.5669 21.6422C13.2572 21.2009 13.8585 20.6498 14.5043 20.1576C14.576 20.1031 14.6406 20.0378 14.7088 19.9782L14.7059 19.9746Z" fill="#F8F2EA"/>
<path d="M24.7854 26.8896C24.7631 27.8042 24.8515 28.718 25.0488 29.6113C24.6799 28.733 24.6613 27.8174 24.7854 26.8896Z" fill="#F8F2EA"/>
<path d="M18.7228 15.7783C19.205 15.3112 19.7274 14.9051 20.3932 14.7451C19.8062 15.038 19.247 15.3838 18.7228 15.7783Z" fill="#F8F2EA"/>
<path d="M24.4984 28.3442C24.6261 28.9491 24.723 29.564 24.9576 30.138C24.9763 30.1847 25.0136 30.2292 24.9842 30.3016C24.8826 30.1187 24.7987 29.9265 24.7337 29.7276C24.5911 29.3127 24.5019 28.8813 24.4682 28.4439C24.4682 28.4059 24.456 28.3686 24.4496 28.3312L24.4984 28.3442Z" fill="#F8F2EA"/>
<path d="M17.7468 27.1042C18.3804 27.4035 18.9911 27.75 19.6003 28.0959C18.9416 27.8433 18.3445 27.4731 17.7468 27.1042Z" fill="#F8F2EA"/>
<path d="M21.6325 29.404C21.2414 29.226 20.8697 29.0108 20.4952 28.8005L20.3603 28.7223H20.356C20.3854 28.6786 20.4148 28.713 20.4399 28.7259C20.8432 28.9412 21.2464 29.1629 21.649 29.381L21.6325 29.404Z" fill="#F8F2EA"/>
<path d="M10.8921 23.4289L10.28 23.0507C10.392 23.0199 10.8447 23.2933 10.8921 23.4289Z" fill="#F8F2EA"/>
<path d="M25.8373 23.365L25.4986 24.2411L25.4606 24.2261L25.7993 23.3514L25.8373 23.365Z" fill="#F8F2EA"/>
<path d="M21.4437 14.1172C21.726 14.0695 22.0133 14.0589 22.2983 14.0856C22.016 14.1326 21.7288 14.1432 21.4437 14.1172Z" fill="#F8F2EA"/>
<path d="M22.8838 14.006C23.1726 14.0181 23.4559 14.0884 23.7169 14.2126L22.8838 14.006Z" fill="#F8F2EA"/>
<path d="M21.0541 14.199C20.8389 14.2543 20.6401 14.3626 20.4083 14.3526C20.6236 14.2901 20.8281 14.1875 21.0541 14.199Z" fill="#F8F2EA"/>
<path d="M24.5486 29.7585L24.7323 30.2557C24.6203 30.1134 24.556 29.9394 24.5486 29.7585Z" fill="#F8F2EA"/>
<path d="M23.9337 30.7149C23.8044 30.6744 23.6807 30.6178 23.5656 30.5463L23.5799 30.5133L23.9559 30.6791L23.9337 30.7149Z" fill="#484848"/>
<path d="M26.4917 18.3795C26.53 18.4352 26.5554 18.4988 26.5661 18.5655C26.5767 18.6323 26.5724 18.7006 26.5534 18.7655C26.4895 18.6428 26.5075 18.5065 26.4917 18.3795Z" fill="#484848"/>
<path d="M17.4354 26.9305C17.5389 26.9392 17.6136 27.0024 17.7228 27.0742C17.5798 27.0656 17.5188 26.978 17.4354 26.9305Z" fill="#484848"/>
<path d="M24.5787 27.2069C24.5421 27.0676 24.5909 26.9801 24.6067 26.889C24.6232 26.9956 24.6136 27.1047 24.5787 27.2069Z" fill="#F8F2EA"/>
<path d="M19.6248 28.1203C19.7303 28.1496 19.8283 28.2013 19.9121 28.2719C19.8075 28.2401 19.71 28.1887 19.6248 28.1203Z" fill="#F8F2EA"/>
<path d="M9.37608 22.2169C9.35884 22.3046 9.35884 22.3046 9.22595 22.3706C9.25971 22.2787 9.25971 22.2787 9.37752 22.2212L9.37608 22.2169Z" fill="#F8F2EA"/>
<path d="M22.427 29.8153C22.3384 29.7928 22.257 29.7481 22.1907 29.6852C22.2858 29.6933 22.3757 29.7318 22.4471 29.7951L22.427 29.8153Z" fill="#484848"/>
<path d="M21.649 29.3839L21.858 29.4953C21.7748 29.4908 21.6954 29.4587 21.6324 29.404L21.649 29.3839Z" fill="#F8F2EA"/>
<path d="M24.4984 28.3445L24.4495 28.3337C24.4434 28.3163 24.4393 28.2982 24.4373 28.2798C24.4321 28.2036 24.4414 28.1271 24.4646 28.0543L24.4984 28.3445Z" fill="#484848"/>
<path d="M20.1006 28.3607C20.046 28.3809 20.0288 28.3521 20.0029 28.3413C19.9771 28.3306 19.9498 28.3219 19.9397 28.2911C19.9483 28.2911 19.9591 28.2824 19.9648 28.2853C20.0065 28.3069 20.0496 28.3299 20.1006 28.3607Z" fill="#F8F2EA"/>
<path d="M25.7797 22.0914C25.7954 22.1313 25.7911 22.1627 25.7697 22.1677C25.7247 22.1834 25.7483 22.1456 25.7511 22.132C25.754 22.1185 25.7661 22.1099 25.7797 22.0914Z" fill="#484848"/>
<path d="M23.9243 14.275L24.0121 14.3186C23.965 14.3385 23.9429 14.2986 23.9243 14.275Z" fill="#F8F2EA"/>
<path d="M23.8524 14.2742L23.7593 14.2305C23.8101 14.2062 23.833 14.2427 23.8524 14.2742Z" fill="#F8F2EA"/>
<path d="M24.6003 14.3195C24.6191 14.3194 24.6375 14.3253 24.6529 14.3362C24.6682 14.3472 24.6797 14.3627 24.6858 14.3806C24.6355 14.4093 24.6096 14.3676 24.578 14.3447L24.6003 14.3195Z" fill="#484848"/>
<path d="M20.1442 28.4037C20.15 28.3967 20.1581 28.392 20.1671 28.3906C20.1761 28.3891 20.1852 28.391 20.1929 28.3958C20.2037 28.3989 20.2134 28.405 20.2209 28.4134C20.2284 28.4217 20.2333 28.432 20.2352 28.4431C20.2291 28.4499 20.2208 28.4544 20.2118 28.4557C20.2027 28.457 20.1935 28.4551 20.1858 28.4503C20.1664 28.4402 20.1428 28.4324 20.1442 28.4037Z" fill="#484848"/>
<path d="M17.3718 26.8765C17.3669 26.8805 17.3617 26.8843 17.3563 26.8878C17.3563 26.8878 17.3472 26.8835 17.3472 26.8814C17.3492 26.8752 17.3516 26.8691 17.3542 26.8631L17.3718 26.8765Z" fill="#484848"/>
<path d="M25.6816 22.3693C25.6866 22.3394 25.6816 22.3058 25.7102 22.2844C25.7059 22.3144 25.7102 22.3472 25.6809 22.3693H25.6816Z" fill="#484848"/>
<path d="M25.6514 22.4272C25.6514 22.4457 25.6471 22.465 25.6435 22.4928C25.6214 22.4579 25.6386 22.4436 25.6528 22.4279L25.6514 22.4272Z" fill="#484848"/>
<path d="M25.8694 21.8807C25.8694 21.8807 25.8624 21.8807 25.8616 21.875C25.8602 21.8707 25.8602 21.866 25.8616 21.8616C25.8666 21.8511 25.8715 21.8532 25.8729 21.868C25.8724 21.8724 25.8712 21.8766 25.8694 21.8807Z" fill="#484848"/>
<path d="M25.6801 22.3691C25.6708 22.3884 25.6615 22.4077 25.6515 22.4271C25.6608 22.4077 25.6701 22.3884 25.6801 22.3691Z" fill="#484848"/>
<path d="M25.7103 22.2841L25.7188 22.2485C25.7437 22.2677 25.7188 22.2727 25.7096 22.2834L25.7103 22.2841Z" fill="#484848"/>
<path d="M24.7779 14.462L24.7216 14.4306L24.7444 14.4056L24.8022 14.4356L24.7779 14.462Z" fill="#484848"/>
<path d="M9.37728 22.2211C9.38367 22.2097 9.3922 22.1991 9.40642 22.209C9.40642 22.209 9.40642 22.2261 9.39931 22.2296C9.3922 22.2332 9.37728 22.2332 9.37585 22.2168L9.37728 22.2211Z" fill="#F8F2EA"/>
<path d="M20.4678 28.5565C20.4857 28.5615 20.5129 28.5723 20.5043 28.5873C20.4957 28.6023 20.4649 28.5959 20.4463 28.5809L20.4678 28.5565Z" fill="#484848"/>
<path d="M20.3601 28.7222C20.3486 28.7158 20.3293 28.7108 20.3279 28.7022C20.3214 28.6764 20.3451 28.6871 20.3537 28.6893C20.3794 28.6972 20.3773 28.7108 20.3537 28.7251L20.3601 28.7222Z" fill="#F8F2EA"/>
<path d="M25.8199 22.0188L25.8093 22.0409C25.8093 22.0373 25.8007 22.033 25.8014 22.0309C25.804 22.0235 25.8074 22.0163 25.8114 22.0096L25.8199 22.0188Z" fill="#484848"/>
<path d="M24.7615 30.3223L24.748 30.343C24.7429 30.3361 24.7386 30.3287 24.7351 30.3209C24.7316 30.3074 24.7351 30.296 24.7522 30.3002C24.7572 30.3017 24.7587 30.3116 24.7615 30.3223Z" fill="#F8F2EA"/>
<path d="M23.5132 30.5113C23.5089 30.5113 23.5046 30.5156 23.501 30.5149C23.4973 30.5142 23.4865 30.5048 23.501 30.499C23.5154 30.4932 23.5096 30.499 23.5132 30.499C23.5169 30.499 23.5125 30.5076 23.5132 30.5113Z" fill="#484848"/>
<path d="M24.7214 14.4305C24.7142 14.4205 24.6992 14.4041 24.7014 14.4005C24.7157 14.3813 24.7314 14.3905 24.7442 14.4055C24.7363 14.4134 24.7292 14.4219 24.7214 14.4305Z" fill="#484848"/>
<path d="M24.0679 14.3483C24.0679 14.3483 24.0614 14.3555 24.0578 14.3555C24.0542 14.3555 24.0513 14.3498 24.0484 14.3469C24.0455 14.344 24.0549 14.3382 24.0585 14.3382C24.0621 14.3382 24.0629 14.3447 24.0679 14.3483Z" fill="#F8F2EA"/>
<path d="M24.5779 14.3444C24.57 14.3337 24.5543 14.3173 24.5565 14.3137C24.5722 14.293 24.5871 14.303 24.6 14.3194L24.5779 14.3444Z" fill="#484848"/>
<path d="M24.5189 14.2758C24.5222 14.2813 24.5248 14.2872 24.5266 14.2933C24.5266 14.2933 24.521 14.2989 24.5182 14.3018C24.5147 14.2963 24.5119 14.2904 24.5098 14.2842C24.5098 14.2842 24.5154 14.2786 24.5189 14.2758Z" fill="#484848"/>
<path d="M14.7323 19.9452C14.7323 19.9566 14.7409 19.971 14.7366 19.9803C14.7251 20.0039 14.7173 19.976 14.7058 19.9752C14.713 19.9638 14.7216 19.9531 14.7294 19.9423L14.7323 19.9452Z" fill="#F8F2EA"/>
<path d="M14.7601 19.9172C14.7694 19.9449 14.7644 19.9584 14.7324 19.9449C14.7523 19.9449 14.7623 19.9363 14.7609 19.9164L14.7601 19.9172Z" fill="#F8F2EA"/>
<path d="M20.2746 28.459L20.2846 28.4689C20.2789 28.473 20.2727 28.4761 20.2661 28.4782C20.2661 28.4782 20.2597 28.4725 20.2568 28.4689L20.2746 28.459Z" fill="#484848"/>
<path d="M20.341 28.4982C20.3355 28.5015 20.3296 28.5041 20.3235 28.506C20.3235 28.506 20.3171 28.5003 20.3143 28.4975C20.3202 28.4944 20.3263 28.4918 20.3326 28.4898C20.3326 28.4898 20.3361 28.4954 20.341 28.4982Z" fill="#484848"/>
<path d="M20.3893 28.5361L20.3724 28.527C20.3724 28.527 20.3788 28.5192 20.3809 28.5199C20.3871 28.5215 20.3931 28.5241 20.3984 28.5277L20.3893 28.5361Z" fill="#484848"/>
<path d="M14.761 19.9164L14.7691 19.9225H14.7725L14.7604 19.9191L14.761 19.9164Z" fill="#F8F2EA"/>
<path d="M24.8906 14.5118L24.898 14.5201C24.898 14.5201 24.8913 14.5268 24.8883 14.526C24.8853 14.5253 24.8831 14.5208 24.8809 14.5178L24.8906 14.5118Z" fill="#484848"/>
<path d="M24.4691 14.2557C24.4691 14.2557 24.4691 14.2637 24.4691 14.2651C24.4691 14.2666 24.4611 14.2709 24.459 14.2702C24.4445 14.2637 24.4445 14.2565 24.459 14.2514C24.4611 14.2499 24.4655 14.2543 24.4691 14.2557Z" fill="#484848"/>
<path d="M24.4068 14.2248L24.4157 14.2337C24.4157 14.2337 24.4098 14.2412 24.4068 14.2412C24.4038 14.2412 24.4008 14.236 24.3978 14.233L24.4068 14.2248Z" fill="#484848"/>
<path d="M20.4462 28.5807C20.4391 28.5708 20.4241 28.5558 20.4262 28.5529C20.4405 28.5351 20.4548 28.5429 20.4676 28.5565L20.4462 28.5807Z" fill="#484848"/>
<path d="M24.832 14.4616C24.8391 14.4716 24.8549 14.4874 24.8527 14.491C24.8384 14.511 24.8227 14.5003 24.8083 14.4874L24.832 14.4616Z" fill="#484848"/>
<path d="M24.8083 14.4873L24.7782 14.4616L24.8025 14.4358L24.8319 14.4616L24.8083 14.4873Z" fill="#484848"/>
<path d="M22.4467 29.795C22.4516 29.8029 22.4616 29.8135 22.4595 29.8178C22.4495 29.8356 22.4374 29.8242 22.4268 29.8178L22.4467 29.795Z" fill="#484848"/>
<path d="M24.395 12.6778C24.7983 12.2795 25.1262 11.8167 25.6292 11.5462C26.0949 11.2965 26.4465 11.4113 26.796 11.694C26.9567 11.8246 27.0062 12.0377 26.999 12.2544C26.9818 12.7797 26.763 13.2317 26.4967 13.6673C26.4695 13.7118 26.4479 13.7311 26.4013 13.6888C25.8301 13.1729 25.1305 12.9131 24.395 12.6778Z" fill="#F8F2EA"/>
<path d="M24.8952 11.7356C24.6766 12.0384 24.457 12.3413 24.2365 12.6441C24.2315 12.6512 24.2013 12.6441 24.1611 12.6347C24.3807 12.3047 24.5802 11.9753 24.8737 11.717C24.8805 11.7236 24.8877 11.7298 24.8952 11.7356Z" fill="#F8F2EA"/>
<path d="M27.1928 11.7988C27.1003 11.4134 26.9359 11.1078 26.6188 10.9047C26.9036 10.8659 27.2194 11.3402 27.1928 11.7988Z" fill="#F8F2EA"/>
<path d="M26.8957 13.6299C26.9046 13.6468 26.9092 13.6655 26.9092 13.6845C26.9092 13.7035 26.9046 13.7222 26.8957 13.739C26.853 13.8413 26.8029 13.9403 26.7458 14.0354C26.7436 13.8861 26.8197 13.7684 26.8957 13.6299Z" fill="#F8F2EA"/>
<path d="M27.6706 12.5314C27.6618 12.6908 27.6236 12.8472 27.558 12.9928L27.54 12.9784C27.5628 12.8209 27.6015 12.666 27.6556 12.5163L27.6706 12.5314Z" fill="#484848"/>
<path d="M27.3205 13.5928C27.3199 13.5602 27.326 13.5279 27.3383 13.4978C27.3507 13.4676 27.369 13.4403 27.3923 13.4175C27.388 13.5001 27.388 13.5001 27.3205 13.5928Z" fill="#484848"/>
<path d="M27.6556 12.5165C27.6607 12.4712 27.6664 12.4267 27.6743 12.3599C27.6873 12.3862 27.6941 12.4152 27.6941 12.4446C27.6941 12.474 27.6873 12.503 27.6743 12.5294L27.6556 12.5165Z" fill="#484848"/>
<path d="M27.5578 12.9927C27.545 13.0105 27.5614 13.059 27.5264 13.0469C27.5029 13.0383 27.52 12.9991 27.54 12.9755L27.5578 12.9927Z" fill="#484848"/>
<path d="M27.517 13.1362C27.5136 13.144 27.5098 13.1517 27.5055 13.1591C27.4994 13.1508 27.4945 13.1417 27.4912 13.1319C27.4912 13.1269 27.5005 13.1197 27.5055 13.114L27.517 13.1362Z" fill="#484848"/>
<path d="M27.413 13.343C27.4188 13.3469 27.4243 13.3514 27.4293 13.3565C27.4293 13.3565 27.4293 13.3657 27.4293 13.3693C27.4293 13.3728 27.4144 13.3828 27.4101 13.3693C27.4059 13.3558 27.4108 13.3529 27.413 13.343Z" fill="#484848"/>
<path d="M27.2315 13.7878L27.2365 13.7491L27.253 13.757L27.2301 13.7863L27.2315 13.7878Z" fill="#484848"/>
<path d="M24.9023 11.6882C24.9059 11.6768 24.9081 11.6596 24.926 11.6703C24.9296 11.6703 24.9217 11.6932 24.9195 11.7054L24.9023 11.6882Z" fill="#F8F2EA"/>
<path d="M27.2825 13.6875L27.2731 13.6969C27.2731 13.6969 27.2652 13.6896 27.2659 13.686C27.2666 13.6824 27.271 13.6803 27.2746 13.6766L27.2825 13.6875Z" fill="#484848"/>
<path d="M27.23 13.7864L27.2244 13.7976L27.2314 13.7878L27.23 13.7864Z" fill="#484848"/>
<path d="M24.9195 11.7054L24.8951 11.7355C24.8876 11.7297 24.8805 11.7234 24.8737 11.7169L24.9023 11.6882L24.9195 11.7054Z" fill="#F8F2EA"/>
<path d="M27.312 13.63C27.3091 13.6334 27.3059 13.6365 27.3026 13.6394C27.3026 13.6358 27.2947 13.6322 27.2947 13.6286C27.2947 13.625 27.3005 13.6228 27.3041 13.6192L27.312 13.63Z" fill="#484848"/>
<path d="M15.1241 31.3579C14.9412 31.3564 14.7603 31.3189 14.5919 31.2475C14.4234 31.176 14.2707 31.0721 14.1424 30.9416C14.0141 30.8112 13.9128 30.6567 13.8443 30.487C13.7757 30.3174 13.7412 30.1359 13.7429 29.9529C13.7579 29.394 14.2652 28.8049 14.8723 28.652C15.343 28.5322 15.7778 28.6011 16.1409 28.939C16.5428 29.3129 16.6525 29.9192 16.4358 30.4617C16.3364 30.7281 16.1569 30.9573 15.9221 31.1178C15.6873 31.2782 15.4085 31.3621 15.1241 31.3579ZM14.7044 31.1197C14.7921 31.1819 14.8961 31.217 15.0036 31.2209L14.7044 31.1197Z" fill="#F8F2EA"/>
<path d="M16.2129 31.2704C16.1683 31.3084 16.1338 31.3659 16.062 31.3515H16.0663C16.108 31.3163 16.1504 31.2797 16.1927 31.2474L16.2129 31.2704Z" fill="#F8F2EA"/>
<path d="M16.1926 31.25L16.2526 31.1986C16.2668 31.2379 16.2483 31.2593 16.2126 31.27L16.1926 31.25Z" fill="#F8F2EA"/>
<path d="M16.0416 31.388C16.0349 31.397 16.0255 31.4037 16.0147 31.4072C16.004 31.4107 15.9924 31.4107 15.9817 31.4072C15.9807 31.4037 15.9807 31.4 15.9817 31.3965C16.0038 31.3887 16.0245 31.3651 16.048 31.3908L16.0416 31.388Z" fill="#F8F2EA"/>
<path d="M16.0618 31.3514C16.086 31.3806 16.0568 31.3792 16.0419 31.3856H16.0461C16.0156 31.3536 16.0461 31.3571 16.0661 31.3514H16.0618Z" fill="#F8F2EA"/>
<path d="M19.385 26.7612C19.299 26.7565 19.2152 26.732 19.1403 26.6895C18.107 26.1327 17.1017 25.5285 16.0929 24.9293C16.067 24.917 16.0429 24.9013 16.0211 24.8827C15.9759 24.8367 15.864 24.8217 15.907 24.7306C15.9501 24.6394 16.0412 24.61 16.1596 24.6337C16.3849 24.6782 16.5772 24.7915 16.7753 24.8913C17.4268 25.2192 18.0869 25.5313 18.7127 25.9009C18.8923 26.0097 19.0632 26.1326 19.2236 26.2683C19.3324 26.3612 19.4206 26.4758 19.4826 26.6048C19.5429 26.7139 19.5063 26.7663 19.385 26.7612ZM17.6521 25.5478C17.6442 25.5378 17.6356 25.5278 17.6241 25.5435C17.6294 25.5493 17.6352 25.5545 17.6413 25.5593L17.6937 25.5945C17.7415 25.6387 17.8006 25.6688 17.8645 25.6813L17.8954 25.6892L17.8824 25.6627C17.8347 25.6182 17.776 25.5873 17.7124 25.573L17.6521 25.5478ZM17.9456 25.7057L17.9363 25.7129C17.9363 25.7129 17.942 25.7208 17.9449 25.7208C17.9477 25.7208 17.9513 25.7165 17.9549 25.7143L17.9456 25.7057ZM18.0023 25.7366L17.9973 25.7437H18.0059L18.0023 25.7366Z" fill="#050404"/>
<path d="M18.5484 25.3046C18.5843 25.3182 18.6244 25.3325 18.6646 25.3491C18.9373 25.4581 19.1418 25.6598 19.3449 25.8614C19.3908 25.9073 19.4424 25.9719 19.3951 26.0386C19.3477 26.1054 19.2645 26.0594 19.2164 26.0307C18.9482 25.875 18.694 25.6964 18.4565 25.4969C18.4278 25.4732 18.3726 25.4495 18.4056 25.3943C18.4196 25.3683 18.4402 25.3464 18.4652 25.3307C18.4902 25.3149 18.5189 25.306 18.5484 25.3046Z" fill="#050404"/>
<path d="M14.7045 31.1196L15.004 31.2209C14.8964 31.2171 14.7923 31.1819 14.7045 31.1196Z" fill="#484848"/>
<path d="M17.7131 25.5758C17.7765 25.5909 17.8349 25.6221 17.8826 25.6663L17.8647 25.685C17.8007 25.6725 17.7415 25.6424 17.6937 25.5981L17.7131 25.5758Z" fill="#484848"/>
<path d="M17.6521 25.5479L17.712 25.5721L17.6935 25.5942L17.6414 25.5593L17.6521 25.5479Z" fill="#484848"/>
<path d="M17.6412 25.5591C17.6351 25.5543 17.6294 25.5491 17.6241 25.5434C17.6355 25.5278 17.644 25.5377 17.6519 25.5477L17.6412 25.5591Z" fill="#484848"/>
<path d="M17.8823 25.6627L17.8951 25.689L17.8645 25.6811L17.8823 25.6627Z" fill="#484848"/>
<path d="M17.9459 25.7057L17.9555 25.7146C17.9518 25.7146 17.9481 25.722 17.9452 25.7212C17.9422 25.7205 17.9392 25.7161 17.9363 25.7131L17.9459 25.7057Z" fill="#484848"/>
<path d="M18.0028 25.7366L18.0067 25.7452L17.9973 25.7444L18.0028 25.7366Z" fill="#484848"/>
<defs>
<filter id="filter0_d_8060_60249" x="0" y="0.976074" width="49" height="47.7015" filterUnits="userSpaceOnUse" color-interpolation-filters="sRGB">
<feFlood flood-opacity="0" result="BackgroundImageFix"/>
<feColorMatrix in="SourceAlpha" type="matrix" values="0 0 0 0 0 0 0 0 0 0 0 0 0 0 0 0 0 0 127 0" result="hardAlpha"/>
<feOffset dx="5" dy="4"/>
<feGaussianBlur stdDeviation="2"/>
<feComposite in2="hardAlpha" operator="out"/>
<feColorMatrix type="matrix" values="0 0 0 0 0 0 0 0 0 0 0 0 0 0 0 0 0 0 0.25 0"/>
<feBlend mode="normal" in2="BackgroundImageFix" result="effect1_dropShadow_8060_60249"/>
<feBlend mode="normal" in="SourceGraphic" in2="effect1_dropShadow_8060_60249" result="shape"/>
</filter>
</defs>
</svg>
