<svg width="31" height="31" viewBox="0 0 31 31" fill="none" xmlns="http://www.w3.org/2000/svg">
<path d="M21.2469 24.9759C20.8319 24.9901 20.4638 24.8576 20.1314 24.6259C19.9492 24.5011 19.8568 24.3036 19.742 24.1251C19.3969 23.5882 19.1041 23.0224 18.7699 22.4779L18.7523 22.4471C18.6453 22.281 18.6472 22.2893 18.4485 22.3377C17.9311 22.4659 17.4065 22.5646 16.8774 22.6334C16.2226 22.7111 15.5626 22.7394 14.9034 22.7179C14.3945 22.7039 13.8871 22.6571 13.3845 22.5778C12.5866 22.455 11.8017 22.2624 11.0393 22.0025C9.5671 21.5007 8.21475 20.7134 7.06409 19.6884C6.33961 19.0384 5.70835 18.2964 5.18735 17.4825C4.81561 16.898 4.49725 16.2829 4.23591 15.6443C4.12534 15.3824 4.19339 15.16 4.29181 14.9259C4.57054 14.2593 4.91652 13.6211 5.32466 13.0209C5.65601 12.5406 6.02682 12.0872 6.43345 11.6652C7.01299 11.0575 7.65786 10.512 8.35698 10.0381C8.8908 9.6746 9.45544 9.35595 10.0448 9.0856C10.3321 8.95375 10.6207 8.82663 10.919 8.72139C10.9932 8.69538 11.0023 8.66582 10.9604 8.60314C10.7128 8.22382 10.5005 7.82373 10.3261 7.40765C10.2422 7.2149 10.2611 7.01624 10.2981 6.8164C10.3698 6.4315 10.5059 6.06789 10.8182 5.81129C11.2538 5.44886 11.7484 5.29218 12.328 5.46482C12.7678 5.59548 13.0528 5.87159 13.2806 6.25058C13.5625 6.72003 13.7995 7.21195 14.0826 7.68021C14.2545 7.96519 14.2545 7.95691 14.5978 7.93445C14.966 7.90142 15.3362 7.8947 15.7054 7.91434C15.9855 7.93563 16.2668 7.94154 16.5468 7.96578C16.9381 8.00437 17.3269 8.06358 17.7115 8.14316C18.6139 8.32426 19.4894 8.61486 20.3173 9.00815C21.2142 9.4241 22.0539 9.94789 22.8168 10.5673C23.2104 10.8897 23.5846 11.2338 23.9378 11.5978C24.4756 12.1535 24.9491 12.7649 25.3497 13.4212C25.6585 13.9377 25.9246 14.4772 26.1456 15.0347C26.1991 15.1648 26.2283 15.3037 26.2738 15.4373C26.2874 15.4989 26.2791 15.5631 26.2501 15.6194C26.15 15.9127 26.0236 16.1968 25.8722 16.4685C25.7185 16.7517 25.5879 17.0461 25.4275 17.3264C25.1199 17.8667 24.7578 18.3759 24.3467 18.8465C23.8414 19.4141 23.2745 19.927 22.6558 20.376C22.4542 20.5252 22.245 20.6643 22.0288 20.7928C21.9177 20.859 21.9158 20.9111 21.9748 21.0122C22.1734 21.3468 22.3727 21.6815 22.5562 22.0244C22.7178 22.3271 22.9207 22.6156 22.9608 22.9704C23.052 23.7431 22.8393 24.3935 22.0635 24.8074C21.8563 24.9138 21.5628 24.9753 21.2469 24.9759ZM11.944 5.67589C11.701 5.67258 11.4624 5.73967 11.2587 5.86864C10.6426 6.23817 10.3947 6.93288 10.7793 7.59271C11.0454 8.05151 11.2927 8.52096 11.5533 8.98331C11.5928 9.05426 11.5703 9.072 11.5035 9.09151C11.2186 9.17429 10.9397 9.27361 10.6639 9.38122C9.10146 9.9794 7.69541 10.9084 6.54767 12.1009C5.63633 13.0469 4.97349 14.1425 4.44674 15.3238C4.42661 15.3666 4.41681 15.4133 4.41807 15.4603C4.41934 15.5074 4.43164 15.5535 4.45403 15.5952C4.77482 16.2 5.10351 16.8037 5.51968 17.3583C6.76578 19.0209 8.32964 20.3145 10.2434 21.2014C11.8125 21.9309 13.5272 22.3157 15.2661 22.3283C16.4543 22.3398 17.6373 22.1735 18.7735 21.8352C18.7872 21.8282 18.8022 21.8241 18.8176 21.8233C18.833 21.8226 18.8484 21.8251 18.8627 21.8307C18.877 21.8364 18.8899 21.845 18.9004 21.856C18.9109 21.8669 18.9188 21.88 18.9236 21.8943C19.2691 22.5005 19.6152 23.1054 19.9619 23.7088C20.0543 23.8691 20.1229 24.0482 20.2523 24.1818C20.8143 24.7524 21.7597 24.7979 22.2986 24.1594C22.7063 23.6763 22.7445 23.1294 22.4402 22.5808C22.1102 21.986 21.7579 21.403 21.4109 20.8177C21.3678 20.7449 21.3812 20.7195 21.4504 20.6787C23.5265 19.4566 25.0198 17.7373 26.029 15.6088C26.0454 15.5761 26.055 15.5405 26.0572 15.5042C26.0594 15.4679 26.0541 15.4315 26.0418 15.3971C25.8882 14.9274 25.6846 14.4746 25.4342 14.0461C24.3029 12.0655 22.6504 10.627 20.5592 9.65674C18.615 8.75568 16.5602 8.40803 14.4155 8.55052C14.3812 8.55658 14.3458 8.55088 14.3154 8.53439C14.2849 8.51789 14.2613 8.49162 14.2485 8.46006C13.8175 7.71391 13.3837 6.96954 12.9471 6.22693C12.7265 5.84854 12.3875 5.67116 11.944 5.67589Z" fill="#F8F2EA"/>
<path d="M11.944 5.67236C12.3875 5.67236 12.7265 5.84973 12.9471 6.22695C13.3821 6.97073 13.8159 7.71511 14.2485 8.46008C14.2613 8.49164 14.2849 8.51791 14.3154 8.5344C14.3458 8.5509 14.3812 8.5566 14.4155 8.55054C16.5602 8.40805 18.6156 8.7557 20.5592 9.65676C22.6504 10.627 24.3029 12.0655 25.4342 14.0462C25.6846 14.4746 25.8882 14.9274 26.0418 15.3971C26.0541 15.4315 26.0594 15.4679 26.0572 15.5042C26.055 15.5406 26.0454 15.5761 26.029 15.6088C25.0198 17.7373 23.5265 19.4566 21.4504 20.6752C21.3812 20.716 21.3678 20.7414 21.411 20.8141C21.7579 21.3995 22.1103 21.9824 22.4402 22.5772C22.7439 23.1259 22.7063 23.6728 22.2986 24.1558C21.7597 24.7944 20.8143 24.7471 20.2523 24.1783C20.1229 24.0465 20.0543 23.8673 19.9619 23.7053C19.6144 23.1022 19.2685 22.498 18.9242 21.8926C18.9195 21.8783 18.9115 21.8652 18.901 21.8542C18.8905 21.8432 18.8776 21.8346 18.8633 21.829C18.849 21.8233 18.8336 21.8208 18.8182 21.8216C18.8028 21.8224 18.7878 21.8264 18.7742 21.8334C17.6376 22.1714 16.4545 22.3373 15.2661 22.3253C13.5272 22.3127 11.8125 21.928 10.2434 21.1984C8.32964 20.3116 6.76579 19.0191 5.51969 17.3553C5.10351 16.8037 4.77482 16.2001 4.45403 15.5905C4.43164 15.5488 4.41934 15.5027 4.41808 15.4556C4.41681 15.4086 4.42662 15.3619 4.44674 15.3191C4.97349 14.1366 5.63755 13.0428 6.54767 12.0962C7.69541 10.9037 9.10146 9.97468 10.6639 9.37651C10.9397 9.2689 11.2186 9.16957 11.5035 9.0868C11.5703 9.06729 11.5928 9.04955 11.5533 8.9786C11.2927 8.51625 11.0454 8.0468 10.7793 7.58799C10.3947 6.92521 10.6426 6.23345 11.2587 5.86392C11.4627 5.73567 11.7011 5.66902 11.944 5.67236ZM6.37938 17.4381L6.40368 17.4612L6.42798 17.4848L6.45168 17.5091L6.47659 17.5315C6.49873 17.5711 6.53203 17.6038 6.57258 17.6255C6.57567 17.6369 6.58188 17.6473 6.59054 17.6555C6.59921 17.6638 6.61001 17.6695 6.62179 17.6723L6.64792 17.7054L6.66858 17.7207L6.69409 17.7432L6.7184 17.7663L6.74209 17.7899C6.74547 17.8014 6.75232 17.8116 6.76175 17.8192C6.77119 17.8267 6.78276 17.8314 6.79495 17.8325C6.79495 17.8484 6.80467 17.8544 6.81864 17.8567L6.85449 17.8993L6.87454 17.9158L7.22571 18.2239L7.25305 18.1926C7.13153 18.095 7.03068 17.9803 6.89641 17.8969L6.86907 17.8762C6.8557 17.8579 6.84598 17.8307 6.81561 17.8567C6.83383 17.8254 6.80892 17.8331 6.79252 17.8331C6.80467 17.7988 6.77672 17.7899 6.75485 17.7769L6.72994 17.7527L6.70685 17.7278L6.68559 17.703L6.64913 17.6669C6.64878 17.664 6.64747 17.6613 6.64539 17.6592C6.64331 17.657 6.64057 17.6556 6.63759 17.6551L6.59202 17.606L6.49178 17.5085L6.47477 17.4919L6.45046 17.4677L6.41887 17.4375C6.41771 17.4341 6.41574 17.4309 6.4131 17.4284C6.41046 17.4258 6.40723 17.4239 6.40368 17.4227C6.39214 17.4109 6.38302 17.3849 6.36176 17.405C6.3405 17.4251 6.36298 17.431 6.37938 17.4381ZM6.23721 17.2945C6.23721 17.3086 6.2445 17.3181 6.25969 17.3193C6.27016 17.3405 6.28536 17.3591 6.30418 17.3738C6.32299 17.3885 6.34495 17.399 6.36844 17.4044C6.34825 17.3626 6.31567 17.3276 6.27488 17.3039L6.25179 17.2814L6.23114 17.2578L6.21048 17.2359L6.18496 17.2111C6.07455 17.0745 5.95544 16.9447 5.82832 16.8226L5.69527 16.6914L5.67036 16.6642C5.66064 16.6541 5.65031 16.6388 5.63694 16.6559C5.62358 16.6731 5.64181 16.6801 5.65335 16.6878L5.67704 16.7115C5.70739 16.7657 5.74922 16.8131 5.79977 16.8504C5.91203 16.9832 6.03234 17.1094 6.16005 17.2282L6.18314 17.2525L6.20805 17.2749L6.23721 17.2945ZM24.8631 16.7753L24.8783 16.7795V16.7653L24.8655 16.7771L24.8358 16.7954L24.775 16.8581L24.7562 16.8818L24.7155 16.9373L24.6924 16.9616C24.6842 16.9645 24.6771 16.9698 24.6719 16.9766C24.6667 16.9834 24.6637 16.9915 24.6632 17L24.6383 17.0272C24.6277 17.0314 24.6175 17.0365 24.6079 17.0426C24.6079 17.0426 24.611 17.0574 24.6146 17.058C24.6183 17.0593 24.6222 17.0599 24.6261 17.0596C24.63 17.0593 24.6338 17.0581 24.6372 17.0562C24.6406 17.0542 24.6435 17.0516 24.6457 17.0484C24.6479 17.0452 24.6493 17.0416 24.6498 17.0379C24.653 17.0376 24.6562 17.0368 24.659 17.0353C24.6619 17.0339 24.6644 17.0319 24.6664 17.0294C24.6684 17.027 24.6698 17.0241 24.6707 17.0211C24.6715 17.0181 24.6716 17.0149 24.6711 17.0118L24.7124 16.9764L24.7294 16.9503C24.7404 16.9457 24.75 16.9386 24.7576 16.9297C24.7652 16.9208 24.7705 16.9102 24.7732 16.8989L24.7957 16.8747L24.8564 16.812C24.8619 16.8008 24.8844 16.7913 24.8601 16.7753H24.8631ZM7.4821 19.0812L7.46448 19.0658C7.40898 19.0037 7.34618 18.9481 7.27735 18.9003C7.20351 18.8193 7.11572 18.7515 7.01792 18.6998C7.08018 18.7857 7.15751 18.8601 7.24636 18.9198L7.44078 19.083L7.46691 19.1042C7.47602 19.1137 7.48453 19.1356 7.50032 19.1161C7.51612 19.0966 7.48635 19.0936 7.47906 19.0824L7.4821 19.0812ZM23.0264 11.7728V11.777L23.0015 11.7474L22.9171 11.6948C22.9384 11.7249 22.9633 11.7539 23.0028 11.7456L23.0264 11.7728ZM7.29861 18.2795L7.31259 18.2942V18.2783L7.29497 18.2818C7.31806 18.2665 7.29497 18.2564 7.29011 18.2446C7.28525 18.2328 7.26824 18.1914 7.24272 18.2121C7.2172 18.2328 7.2494 18.2481 7.26884 18.2594L7.29861 18.2795ZM22.8563 11.6575L22.8703 11.6735L22.8758 11.6605H22.8545C22.863 11.6427 22.849 11.6374 22.8369 11.6309C22.8305 11.6215 22.8207 11.6147 22.8094 11.6121C22.7981 11.6095 22.7862 11.6111 22.7761 11.6167C22.7852 11.6067 22.7913 11.5978 22.7707 11.5949L22.7786 11.615C22.7968 11.6286 22.8156 11.6404 22.8393 11.6291C22.8266 11.6475 22.8399 11.6528 22.8563 11.6563V11.6575ZM5.38542 16.3816L5.4085 16.4058L5.4966 16.5164L5.5288 16.5471C5.55432 16.5861 5.5768 16.6281 5.63816 16.6287L5.54946 16.5258L5.51543 16.4904L5.42612 16.3869L5.41154 16.3674L5.37023 16.326C5.35808 16.3053 5.34532 16.2669 5.3198 16.2852C5.29428 16.3035 5.3356 16.3266 5.35078 16.3443L5.38542 16.3816ZM14.209 9.54087L14.1962 9.50717C14.1847 9.4782 14.1804 9.44273 14.13 9.43622C14.1312 9.45331 14.1363 9.46994 14.1448 9.48495C14.1533 9.49995 14.165 9.51298 14.1792 9.52314L14.1956 9.55447C14.212 9.56748 14.1956 9.59763 14.2254 9.60591C14.2339 9.57812 14.2406 9.55624 14.209 9.54087ZM10.515 20.6728L10.484 20.658V20.6716H10.5187C10.5096 20.6941 10.526 20.6977 10.5418 20.6994C10.5466 20.6994 10.5521 20.6935 10.5569 20.6906C10.5424 20.6835 10.529 20.6775 10.515 20.6728ZM9.09334 10.6276C9.05628 10.6128 9.03258 10.6311 9.01496 10.6648L9.08969 10.6252C9.10184 10.6181 9.11946 10.614 9.10488 10.5945C9.18032 10.5899 9.25115 10.5576 9.30294 10.504L9.32482 10.4892C9.32482 10.4892 9.31753 10.4839 9.3151 10.4845C9.30173 10.4845 9.29808 10.4945 9.30538 10.5064C9.22457 10.5064 9.1705 10.5602 9.10792 10.5968C9.09455 10.6033 9.0739 10.6063 9.09334 10.6276ZM21.0993 20.0703C21.1447 20.0562 21.1842 20.0279 21.2117 19.9899C21.1627 19.9955 21.1169 20.0162 21.081 20.0491C21.0653 20.0615 21.0239 20.0597 21.0476 20.0934C21.0531 20.1023 21.0883 20.0934 21.0993 20.0703ZM9.484 10.423C9.53658 10.4116 9.58367 10.3833 9.61766 10.3426C9.56188 10.3462 9.50919 10.3688 9.46881 10.4065C9.45787 10.4118 9.43539 10.4112 9.44937 10.4301C9.46334 10.449 9.47306 10.4301 9.484 10.423ZM5.21044 14.3908L5.29793 14.2442C5.35078 14.1679 5.40303 14.0917 5.45589 14.016C5.45589 14.0059 5.46015 13.9912 5.45589 13.9876C5.45164 13.9841 5.43827 13.9876 5.43524 14.0012C5.37071 14.0671 5.31793 14.1431 5.27909 14.2259C5.24155 14.2714 5.21311 14.3233 5.19525 14.379C5.15763 14.4131 5.13282 14.4585 5.12477 14.5079C5.16279 14.4763 5.19221 14.4361 5.21044 14.3908ZM24.5684 17.5244C24.5133 17.5655 24.4686 17.6183 24.4378 17.6788C24.4275 17.6894 24.3928 17.6888 24.4129 17.7131C24.4329 17.7373 24.4475 17.7178 24.456 17.6977C24.5098 17.6525 24.5556 17.5989 24.5915 17.5392C24.5976 17.5262 24.6025 17.5126 24.586 17.5037C24.5842 17.5008 24.5745 17.5168 24.5684 17.5239V17.5244ZM10.6323 9.53851C10.7277 9.55565 10.7927 9.49062 10.8698 9.45751C10.7862 9.46845 10.706 9.49689 10.6347 9.54087C10.6316 9.54321 10.6281 9.54501 10.6244 9.54619C10.611 9.54619 10.6098 9.55329 10.6213 9.55506C10.6329 9.55684 10.6262 9.54442 10.6323 9.53851ZM16.5347 19.7865C16.632 19.7784 16.7279 19.7585 16.8203 19.7274C17.0397 19.6703 17.2534 19.5941 17.4588 19.4998C17.4855 19.4868 17.5445 19.485 17.5195 19.4336C17.4946 19.3821 17.4588 19.4336 17.44 19.443C17.2411 19.542 17.035 19.6266 16.8233 19.6961C16.7251 19.7162 16.6295 19.747 16.5383 19.7877L16.5104 19.8037L16.5061 19.7883L16.5347 19.7865ZM19.9309 19.2674L19.9461 19.3023C20.036 19.459 20.1254 19.6157 20.2159 19.7724C20.672 20.5705 21.1301 21.3683 21.5902 22.1657C21.5507 21.9978 21.5203 21.8275 21.4316 21.6785C21.1096 21.1334 20.7633 20.6031 20.4698 20.0408C20.2766 19.6689 20.1053 19.2834 19.8659 18.9352C19.4771 18.3741 19.16 17.7722 18.8282 17.1797C18.409 16.4289 18.0056 15.6679 17.5864 14.9171C17.2553 14.3258 16.8573 13.7677 16.5469 13.1605C16.491 13.0357 16.424 12.916 16.3464 12.8028C16.382 12.9274 16.4349 13.0468 16.5037 13.1575C16.5894 13.3254 16.669 13.4963 16.7619 13.6607C17.0572 14.1851 17.4035 14.6812 17.6872 15.2121C18.2948 16.3526 18.9023 17.4937 19.5476 18.6159C19.6405 18.7773 19.7189 18.947 19.838 19.093C19.8428 19.1646 19.903 19.2071 19.9279 19.2674H19.9309ZM18.1563 11.9514C18.1684 11.9679 18.1866 11.9786 18.2012 11.9608C18.2158 11.9431 18.1933 11.9342 18.1757 11.9325C18.0957 11.8519 18.0047 11.7822 17.9053 11.7255C17.0469 11.0568 16.1392 10.8322 15.6647 10.8978C15.6835 11.0438 15.8002 11.0403 15.9126 11.0568C16.6083 11.158 17.2755 11.3964 17.8731 11.7574L18.1563 11.9514ZM19.6849 13.9415C19.8313 14.354 19.9219 14.7833 19.9546 15.2186C19.9903 14.77 19.9066 14.32 19.7116 13.9119C19.672 13.8043 19.6237 13.6999 19.567 13.5998L19.5372 13.614C19.5889 13.7233 19.6375 13.8351 19.6849 13.9415ZM14.102 9.40962C14.1069 9.42321 14.1148 9.43918 14.1306 9.43208C14.1555 9.42026 14.1391 9.4037 14.1306 9.38951C13.9951 9.15302 13.8608 8.91652 13.7223 8.68534C13.3146 7.9995 12.9805 7.27168 12.4993 6.62663C12.4561 6.56152 12.3897 6.51433 12.3128 6.49419C12.0297 6.41792 11.7757 6.49419 11.5473 6.64318C11.1979 6.87495 11.1287 7.21492 11.337 7.57262C11.3929 7.66761 11.448 7.763 11.5023 7.85878C12.2642 9.20327 13.0259 10.5478 13.7873 11.8923C14.8348 13.7358 15.9199 15.558 16.9661 17.4021C17.6411 18.5922 18.2693 19.8072 18.9813 20.9779C19.5105 21.8488 20.0306 22.7256 20.5513 23.6013C20.5986 23.6837 20.675 23.7467 20.7663 23.7786C21.1248 23.917 21.6096 23.7195 21.7785 23.3736C21.8193 23.3022 21.8396 23.2214 21.8371 23.1397C21.8346 23.058 21.8096 22.9785 21.7646 22.9095C21.5999 22.6369 21.4328 22.365 21.273 22.0894C20.3969 20.5743 19.5261 19.0568 18.6605 17.5369C17.6321 15.7391 16.6072 13.9409 15.5857 12.1423C15.1823 11.4329 14.7351 10.7441 14.3329 10.0304C13.8687 9.20268 13.4319 8.35602 12.9501 7.53537C12.8438 7.35445 12.7393 7.17176 12.6251 6.97546C12.6858 6.99675 12.6949 7.03459 12.715 7.0677C12.9617 7.44255 13.1646 7.84223 13.3863 8.23068C13.6148 8.63213 13.8329 9.03418 14.1026 9.40962H14.102ZM15.4125 21.4462C15.4733 21.4426 15.5341 21.4385 15.5948 21.4361C16.5159 21.4015 17.4298 21.2626 18.3179 21.0222C18.4096 20.998 18.3975 20.9667 18.3604 20.904C18.2079 20.6427 18.0566 20.3807 17.9114 20.1141C17.8683 20.0343 17.8337 20.0313 17.7571 20.0656C17.0264 20.4011 16.2284 20.5752 15.4204 20.5753C13.8049 20.5753 12.4185 20.0083 11.3279 18.85C10.0873 17.5327 9.67416 15.9724 10.1086 14.2383C10.4597 12.8329 11.3109 11.7675 12.5996 11.0373C12.664 11.0007 12.681 10.9782 12.6403 10.9066C12.4726 10.6223 12.3116 10.3337 12.1506 10.0458C12.1184 9.98667 12.0947 9.96066 12.0145 9.98667C11.3776 10.1805 10.76 10.43 10.1693 10.7322C8.02039 11.8426 6.35447 13.4466 5.07738 15.448C5.05822 15.4717 5.04779 15.5009 5.04779 15.5311C5.04779 15.5612 5.05822 15.5905 5.07738 15.6141C5.49417 16.2704 6.00816 16.8504 6.56408 17.3961C7.37932 18.1918 8.27195 18.9086 9.22943 19.5364C9.71122 19.8551 10.1942 20.1756 10.724 20.415C11.3374 20.6897 11.9748 20.9101 12.6287 21.0737C13.5394 21.3025 14.4641 21.4621 15.4131 21.4462H15.4125ZM14.8499 9.50303C15.0103 9.7821 15.1634 10.0464 15.3141 10.3113C15.3378 10.3532 15.3749 10.3432 15.4083 10.3438C16.9047 10.3899 18.1903 10.9179 19.2359 11.9585C20.1764 12.8938 20.7074 14.0195 20.7718 15.3345C20.8262 16.3502 20.5459 17.3563 19.9716 18.2061C19.9486 18.2337 19.9352 18.2677 19.9337 18.3032C19.9322 18.3387 19.9425 18.3737 19.9631 18.403C20.2414 18.8967 20.5415 19.3774 20.8362 19.8616C20.9115 19.9864 20.9115 19.9852 21.0422 19.903C21.969 19.3221 22.8329 18.6511 23.6206 17.9005C24.3084 17.243 24.9317 16.5353 25.4014 15.7093C25.4282 15.6679 25.4431 15.6202 25.4446 15.5712C25.4461 15.5223 25.4341 15.4738 25.4099 15.4308C25.0235 14.5978 24.4299 13.906 23.8005 13.2474C22.7265 12.1247 21.4409 11.2133 20.0136 10.5625C18.389 9.81462 16.6793 9.44095 14.8505 9.50126L14.8499 9.50303ZM15.4526 19.6387C16.0658 19.6361 16.6709 19.5021 17.2249 19.2461C17.3756 19.1787 17.375 19.1793 17.2929 19.0357C16.4999 17.6498 15.7074 16.2635 14.9156 14.8769C14.3485 13.8871 13.7798 12.8982 13.2095 11.91C13.1804 11.8591 13.1561 11.8509 13.1008 11.8804C12.5884 12.1719 12.1461 12.5669 11.8037 13.0387C11.1299 13.9847 10.9458 15.0341 11.1602 16.1581C11.54 18.1423 13.3821 19.637 15.4532 19.637L15.4526 19.6387ZM15.9059 11.2667L15.8798 11.2927L19.3021 17.2353C19.8872 15.8406 19.8568 14.5061 19.0263 13.2409C18.2966 12.1293 17.2547 11.4559 15.9065 11.2649L15.9059 11.2667ZM10.8996 14.2087C10.3771 15.1376 10.7052 17.1939 11.4677 17.7751C11.1556 17.2398 10.9393 16.6569 10.8279 16.0511C10.7257 15.4378 10.7503 14.8109 10.9002 14.207L10.8996 14.2087ZM15.4514 11.3335C15.5183 11.57 15.9338 12.2204 16.0493 12.2701C15.8524 11.9461 15.6884 11.6179 15.452 11.3318L15.4514 11.3335ZM14.8487 19.8995C14.3408 19.8362 13.8663 19.6677 13.3954 19.4856C13.8481 19.7256 14.3268 19.8829 14.8487 19.8995ZM19.4953 17.5812C19.6697 17.4417 19.9255 16.9367 19.9012 16.7895C19.7809 17.0674 19.6241 17.3187 19.4953 17.5812ZM11.4871 9.59941C11.0766 9.72062 10.6803 9.88351 10.3048 10.0854C10.7009 9.92932 11.0922 9.762 11.4871 9.59941ZM14.8979 8.79177H16.0942C15.6957 8.75452 15.2977 8.69717 14.8979 8.79177ZM15.9703 21.5969H14.7746C15.1732 21.672 15.5717 21.6229 15.9703 21.5969ZM17.8665 8.92775L18.8714 9.16721C18.549 9.04367 18.211 8.96312 17.8665 8.92775ZM12.1718 21.3533L12.184 21.3232L11.4871 21.0707C11.7015 21.194 11.9318 21.289 12.1718 21.3533ZM20.0853 17.2182C20.0063 17.3417 19.9279 17.4659 19.8483 17.5895C19.8443 17.594 19.8414 17.5993 19.8399 17.6051C19.8385 17.6109 19.8385 17.6169 19.8399 17.6227C19.8413 17.6285 19.8442 17.6339 19.8482 17.6384C19.8522 17.6429 19.8572 17.6464 19.8629 17.6486C19.8939 17.6646 19.9024 17.6326 19.9115 17.6149C19.9902 17.4922 20.0488 17.3584 20.0853 17.2182ZM21.2785 10.7452C21.1117 10.6061 20.9111 10.5106 20.6959 10.4679L21.2785 10.7452ZM19.2049 9.67095C19.0092 9.59214 18.8023 9.54309 18.5913 9.5255C18.7869 9.61005 18.9983 9.62424 19.2049 9.67095ZM10.7234 10.0056C10.8706 9.98483 11.0125 9.93708 11.1414 9.86487C10.9859 9.86842 10.8601 9.95238 10.7234 10.0056ZM20.1885 10.1694L20.2025 10.1363C20.1643 10.1057 20.1191 10.0844 20.0707 10.0741C20.0223 10.0638 19.9721 10.0649 19.9243 10.0771L20.1885 10.1694ZM19.9601 15.2162C19.903 15.3711 19.9881 15.4988 19.9455 15.6242C19.9006 15.4941 20.0051 15.3723 19.9601 15.2145V15.2162ZM8.96757 19.7097C8.90178 19.6408 8.82017 19.5882 8.72941 19.556C8.79402 19.6259 8.87604 19.6784 8.96757 19.7085V19.7097ZM17.5511 8.97328C17.4582 8.93794 17.3598 8.91796 17.2601 8.91415C17.3579 8.95554 17.4539 8.95199 17.5511 8.97328ZM4.91395 14.8733C4.97632 14.8058 5.02112 14.7247 5.04458 14.6368C4.97922 14.7022 4.93415 14.7841 4.91456 14.8733H4.91395ZM10.2817 20.5717C10.2276 20.5481 10.1961 20.5167 10.1353 20.5244C10.1773 20.556 10.2292 20.5727 10.2823 20.5717H10.2817ZM21.2123 19.9893C21.2356 19.9884 21.2582 19.9809 21.2772 19.9678C21.2963 19.9547 21.3111 19.9365 21.3198 19.9154C21.2969 19.9177 21.275 19.9256 21.2563 19.9386C21.2375 19.9516 21.2226 19.969 21.2129 19.9893H21.2123ZM5.13146 14.4979C5.08042 14.5446 5.05004 14.5718 5.0549 14.6291C5.09545 14.5955 5.12255 14.549 5.13146 14.4979ZM10.3972 20.6172C10.354 20.609 10.3364 20.5741 10.2999 20.5942C10.3285 20.606 10.3449 20.6297 10.3972 20.6172ZM8.99188 19.7026C8.98689 19.7123 8.98322 19.7227 8.98094 19.7333C8.98094 19.7333 8.99309 19.741 9.00038 19.7422C9.00767 19.7434 9.0259 19.7422 9.02043 19.7256C9.01496 19.7091 9.00342 19.7126 8.99188 19.7026ZM10.9361 9.43267C10.929 9.43165 10.9218 9.43165 10.9148 9.43267C10.9033 9.43267 10.9026 9.44154 10.9148 9.44627C10.9164 9.44701 10.9182 9.44739 10.92 9.44739C10.9217 9.44739 10.9235 9.44701 10.9251 9.44627C10.9294 9.44224 10.9331 9.43767 10.9361 9.43267ZM11.6208 9.55092C11.6238 9.55035 11.6269 9.55035 11.6299 9.55092C11.6299 9.55092 11.6299 9.55506 11.6299 9.55743H11.6214C11.6214 9.55743 11.6183 9.5527 11.6177 9.55092H11.6208ZM11.5527 9.57871V9.57398H11.543C11.543 9.57398 11.543 9.5793 11.5467 9.5793C11.5477 9.57894 11.5487 9.57855 11.5497 9.57812L11.5527 9.57871ZM11.4118 21.0624C11.4169 21.067 11.4229 21.0706 11.4294 21.0731C11.4397 21.076 11.4507 21.0731 11.4476 21.0607C11.4476 21.0565 11.4355 21.0524 11.4294 21.053C11.4233 21.0536 11.4148 21.0589 11.4087 21.0624H11.4118ZM9.41717 10.4543L9.42567 10.4461C9.4205 10.4431 9.41499 10.4407 9.40927 10.439C9.40927 10.439 9.40441 10.4437 9.40137 10.4461L9.41717 10.4543ZM9.37342 10.4674L9.36552 10.4591C9.36242 10.4635 9.35978 10.4683 9.35763 10.4733C9.35763 10.4733 9.36249 10.478 9.36492 10.481L9.37342 10.4674ZM7.55379 19.1693L7.56169 19.1622C7.5573 19.1592 7.55262 19.1566 7.54771 19.1545C7.54771 19.1545 7.54285 19.1586 7.53981 19.161L7.55379 19.1693ZM19.5385 13.5785L19.5476 13.5702C19.5424 13.5672 19.5369 13.5649 19.5312 13.5631C19.5312 13.5631 19.5263 13.5678 19.5233 13.5702L19.5385 13.5785ZM10.4275 20.6344L10.419 20.6409C10.419 20.6438 10.4239 20.648 10.4269 20.648C10.43 20.648 10.4324 20.6444 10.4354 20.6421L10.4275 20.6344ZM4.89512 14.8993C4.89512 14.8993 4.88783 14.904 4.88843 14.9058C4.88955 14.9111 4.89161 14.9161 4.89451 14.9206C4.89451 14.9206 4.90119 14.9153 4.90119 14.9135C4.89965 14.9086 4.89761 14.9038 4.89512 14.8993Z" fill="#0B0404"/>
<path d="M15.4131 21.4462C14.4641 21.4616 13.5394 21.3026 12.6263 21.0702C11.9724 20.9066 11.3349 20.6862 10.7216 20.4116C10.1918 20.1721 9.70878 19.8517 9.22699 19.533C8.26951 18.9051 7.37687 18.1883 6.56163 17.3927C6.00572 16.847 5.49173 16.2693 5.07494 15.6107C5.05577 15.587 5.04535 15.5577 5.04535 15.5276C5.04535 15.4975 5.05577 15.4682 5.07494 15.4445C6.35081 13.4432 8.01795 11.8379 10.1669 10.7288C10.7575 10.4265 11.3751 10.177 12.012 9.9832C12.0922 9.95837 12.1159 9.9832 12.1481 10.0423C12.3091 10.3303 12.4701 10.6188 12.6378 10.9032C12.6785 10.9729 12.6615 10.9972 12.5971 11.0338C11.3097 11.764 10.4585 12.8294 10.1061 14.2348C9.67172 15.9713 10.0849 17.5316 11.3255 18.8465C12.4191 20.0048 13.8025 20.5694 15.418 20.5718C16.2256 20.5722 17.0234 20.3987 17.7541 20.0639C17.8306 20.0296 17.8652 20.0326 17.9084 20.1124C18.0518 20.379 18.2049 20.641 18.3574 20.9023C18.3944 20.965 18.4066 20.9963 18.3148 21.0205C17.4267 21.2609 16.5129 21.3998 15.5918 21.4344C15.5334 21.4386 15.4733 21.4427 15.4131 21.4462Z" fill="#F8F2EA"/>
<path d="M14.8505 9.50135C16.6793 9.44222 18.3889 9.81352 20.0148 10.5609C21.4421 11.211 22.7279 12.1218 23.8023 13.2439C24.4317 13.9026 25.0253 14.5943 25.4117 15.4274C25.4359 15.4703 25.4479 15.5188 25.4464 15.5678C25.4449 15.6167 25.43 15.6644 25.4032 15.7059C24.9335 16.5336 24.3096 17.2396 23.6224 17.897C22.8347 18.6477 21.9708 19.3186 21.044 19.8996C20.9133 19.9817 20.9133 19.9829 20.838 19.8582C20.5433 19.3739 20.2432 18.8933 19.9649 18.3996C19.9443 18.3703 19.934 18.3352 19.9355 18.2998C19.937 18.2643 19.9504 18.2302 19.9734 18.2027C20.5477 17.3528 20.828 16.3467 20.7736 15.331C20.7092 14.0161 20.1782 12.8904 19.2377 11.955C18.1909 10.9144 16.9053 10.3864 15.4101 10.3403C15.3761 10.3403 15.3396 10.3498 15.3159 10.3078C15.164 10.0447 15.0109 9.78042 14.8505 9.50135Z" fill="#F8F2EA"/>
<path d="M14.1026 9.40967C13.8329 9.03423 13.6166 8.62923 13.3863 8.23073C13.1645 7.84228 12.961 7.4426 12.715 7.06775C12.6949 7.0376 12.6864 6.9968 12.625 6.97552C12.7393 7.17181 12.8438 7.3545 12.9501 7.53542C13.4319 8.35607 13.8687 9.20096 14.3329 10.0305C14.7327 10.7441 15.1835 11.4305 15.5857 12.1424C16.606 13.941 17.6301 15.738 18.6581 17.5334C19.5261 19.0529 20.3969 20.5704 21.2706 22.0859C21.4304 22.3615 21.5974 22.6334 21.7621 22.906C21.8071 22.975 21.8322 23.0545 21.8346 23.1362C21.8371 23.2179 21.8169 23.2987 21.7761 23.3701C21.6072 23.7148 21.1223 23.9135 20.7639 23.7751C20.6725 23.7432 20.5962 23.6802 20.5488 23.5978C20.0281 22.7221 19.5081 21.8453 18.9789 20.9744C18.2668 19.8037 17.6386 18.5887 16.9636 17.3986C15.9174 15.5545 14.8323 13.7328 13.7849 11.8888C13.0214 10.5454 12.2597 9.20096 11.4998 7.85529C11.4456 7.75951 11.3905 7.66412 11.3346 7.56913C11.1262 7.21142 11.1955 6.87146 11.5448 6.63969C11.7732 6.48833 12.0272 6.41442 12.3103 6.4907C12.3872 6.51083 12.4537 6.55803 12.4968 6.62313C12.978 7.26818 13.3122 7.996 13.7199 8.68185C13.8584 8.91539 13.9926 9.15129 14.1281 9.38602L14.1026 9.40967ZM12.6135 6.93472L12.5977 6.94654C12.605 6.95296 12.613 6.9587 12.6214 6.96369C12.6214 6.96369 12.6341 6.956 12.6341 6.95246C12.6341 6.94891 12.6317 6.92999 12.6135 6.93472Z" fill="#F8F2EA"/>
<path d="M15.4532 19.637C13.3821 19.637 11.54 18.1423 11.1608 16.1563C10.9464 15.033 11.1305 13.9847 11.8042 13.0369C12.1467 12.5651 12.589 12.1702 13.1014 11.8787C13.1567 11.8468 13.181 11.8574 13.2101 11.9082C13.7772 12.8976 14.3459 13.8865 14.9162 14.8751C15.7096 16.261 16.5021 17.6473 17.2935 19.0339C17.3756 19.1776 17.3762 19.177 17.2255 19.2444C16.6715 19.5003 16.0664 19.6344 15.4532 19.637Z" fill="#F8F2EA"/>
<path d="M15.9064 11.265C17.2558 11.456 18.2966 12.1294 19.0262 13.241C19.8568 14.5062 19.8872 15.8424 19.3021 17.2354L15.8803 11.2928L15.9064 11.265Z" fill="#F8F2EA"/>
<path d="M16.5468 13.1605C16.8554 13.7677 17.2552 14.3235 17.5863 14.9171C18.0056 15.6686 18.4071 16.4289 18.8282 17.1798C19.1599 17.771 19.4771 18.3741 19.8659 18.9352C20.1089 19.2834 20.2766 19.6689 20.4698 20.0408C20.762 20.6031 21.1096 21.1335 21.4316 21.6786C21.5203 21.8276 21.5531 21.9979 21.5901 22.1658C21.13 21.3684 20.6711 20.5706 20.2134 19.7724C20.1229 19.6157 20.0311 19.459 19.9437 19.3024C19.9487 19.2987 19.9534 19.2945 19.9576 19.29L19.9807 19.2769L19.9588 19.2669C19.9698 19.18 19.909 19.1238 19.8598 19.0671C19.8398 19.0434 19.8373 19.0783 19.8398 19.096C19.7183 18.95 19.6423 18.7803 19.5494 18.6189C18.9053 17.4955 18.2978 16.3556 17.689 15.2151C17.4053 14.683 17.059 14.1881 16.7637 13.6637C16.6707 13.4993 16.5912 13.3284 16.5055 13.1605H16.5468Z" fill="#F8F2EA"/>
<path d="M10.9002 14.207C10.7508 14.8104 10.7264 15.4367 10.8285 16.0493C10.9399 16.6551 11.1562 17.2381 11.4683 17.7734C10.7058 17.1922 10.3777 15.1359 10.9002 14.207Z" fill="#F8F2EA"/>
<path d="M17.8731 11.7557C17.2754 11.3951 16.6082 11.1571 15.9126 11.0563C15.8002 11.0397 15.6835 11.0433 15.6647 10.8972C16.1392 10.8334 17.0469 11.0581 17.9053 11.725L17.8731 11.7557Z" fill="#F8F2EA"/>
<path d="M19.7146 13.912C19.9096 14.32 19.9933 14.77 19.9577 15.2186C19.924 14.7832 19.8323 14.3539 19.6849 13.9415L19.7146 13.912Z" fill="#F8F2EA"/>
<path d="M15.452 11.3318C15.6884 11.6179 15.8524 11.9461 16.0499 12.2683C15.9344 12.2163 15.5189 11.5653 15.452 11.3318Z" fill="#F8F2EA"/>
<path d="M14.8487 19.8995C14.3268 19.8829 13.8481 19.7256 13.3954 19.4856C13.8663 19.6677 14.3384 19.8362 14.8487 19.8995Z" fill="#BAB0AE"/>
<path d="M19.4953 17.5812C19.6265 17.3187 19.7809 17.0674 19.9011 16.7896C19.9279 16.9368 19.6697 17.4417 19.4953 17.5812Z" fill="#F8F2EA"/>
<path d="M11.4871 9.59949C11.0922 9.76208 10.7009 9.9294 10.3048 10.0855C10.6803 9.88359 11.0766 9.7207 11.4871 9.59949Z" fill="#BAB0AE"/>
<path d="M14.8979 8.79183C15.2977 8.69723 15.6956 8.75458 16.0942 8.79183H14.8979Z" fill="#BAB0AE"/>
<path d="M15.9703 21.5969C15.5717 21.6229 15.1732 21.672 14.7746 21.5969H15.9703Z" fill="#BAB0AE"/>
<path d="M16.819 19.6938C17.0311 19.6244 17.2376 19.5398 17.4369 19.4407C17.4588 19.4295 17.4934 19.3863 17.5165 19.4313C17.5396 19.4762 17.4843 19.4845 17.4557 19.4975C17.2503 19.5918 17.0366 19.668 16.8172 19.7251L16.819 19.6938Z" fill="#F8F2EA"/>
<path d="M17.8665 8.92773C18.211 8.96311 18.549 9.04365 18.8714 9.16719L17.8665 8.92773Z" fill="#BAB0AE"/>
<path d="M12.1718 21.3534C11.9317 21.2891 11.7015 21.194 11.4871 21.0708L12.1839 21.3233L12.1718 21.3534Z" fill="#BAB0AE"/>
<path d="M20.0852 17.2183C20.0488 17.3583 19.9901 17.4919 19.9115 17.6144C19.9024 17.6321 19.8939 17.6641 19.8629 17.6481C19.8572 17.6459 19.8521 17.6424 19.8481 17.6379C19.8441 17.6334 19.8413 17.628 19.8399 17.6222C19.8384 17.6164 19.8385 17.6104 19.8399 17.6046C19.8414 17.5988 19.8443 17.5935 19.8483 17.589C19.9279 17.466 20.0063 17.3418 20.0852 17.2183Z" fill="#BAB0AE"/>
<path d="M21.2784 10.7453L20.6958 10.468C20.9111 10.5107 21.1116 10.6062 21.2784 10.7453Z" fill="#BAB0AE"/>
<path d="M5.82526 16.8226C5.95238 16.9447 6.07149 17.0745 6.1819 17.2111L6.16003 17.2259C6.03238 17.1078 5.91208 16.9824 5.79974 16.8504L5.82526 16.8226Z" fill="#F8F2EA"/>
<path d="M19.2049 9.67096C18.9983 9.62425 18.7869 9.61183 18.5931 9.52551C18.8035 9.54328 19.0098 9.59233 19.2049 9.67096Z" fill="#BAB0AE"/>
<path d="M6.89333 17.8987C7.0276 17.9803 7.13089 18.095 7.24997 18.1943L7.22263 18.2256L6.87146 17.9146L6.89333 17.8987Z" fill="#BAB0AE"/>
<path d="M16.5468 13.1605H16.5037C16.4349 13.0498 16.382 12.9304 16.3463 12.8058C16.4238 12.9181 16.4908 13.0368 16.5468 13.1605Z" fill="#BAB0AE"/>
<path d="M10.7234 10.0056C10.8601 9.95237 10.9859 9.86842 11.1414 9.86487C11.0125 9.93707 10.8706 9.98482 10.7234 10.0056Z" fill="#BAB0AE"/>
<path d="M17.8731 11.7557L17.9053 11.7256C18.0047 11.7823 18.0956 11.8519 18.1757 11.9325L18.1562 11.9514L17.8731 11.7557Z" fill="#BAB0AE"/>
<path d="M20.1885 10.1694L19.9243 10.0789C19.9721 10.0666 20.0223 10.0656 20.0707 10.0759C20.1191 10.0861 20.1642 10.1074 20.2025 10.138L20.1885 10.1694Z" fill="#BAB0AE"/>
<path d="M19.7147 13.912L19.6855 13.9416C19.6375 13.8322 19.5889 13.7234 19.5403 13.614L19.5701 13.5999C19.6267 13.7 19.6751 13.8044 19.7147 13.912Z" fill="#BAB0AE"/>
<path d="M7.24327 18.9198C7.15442 18.8601 7.07709 18.7857 7.01483 18.6998C7.11263 18.7514 7.20042 18.8193 7.27426 18.9003L7.24327 18.9198Z" fill="#BAB0AE"/>
<path d="M19.9601 15.2145C20.005 15.3717 19.8993 15.4941 19.9455 15.6224C19.9886 15.4971 19.903 15.3723 19.9601 15.2145Z" fill="#BAB0AE"/>
<path d="M8.96753 19.7085C8.87587 19.6781 8.79384 19.6251 8.72937 19.5548C8.82013 19.587 8.90174 19.6397 8.96753 19.7085Z" fill="#BAB0AE"/>
<path d="M17.5511 8.97331C17.4539 8.95202 17.3579 8.95557 17.2601 8.91418C17.3598 8.91799 17.4581 8.93797 17.5511 8.97331Z" fill="#BAB0AE"/>
<path d="M19.838 19.0972C19.838 19.0795 19.838 19.0446 19.858 19.0683C19.9072 19.1274 19.968 19.1812 19.957 19.2681H19.9285C19.903 19.2072 19.8428 19.1646 19.838 19.0972Z" fill="#BAB0AE"/>
<path d="M4.91455 14.8733C4.93431 14.7841 4.9796 14.7021 5.04518 14.6368C5.02172 14.7247 4.97692 14.8058 4.91455 14.8733Z" fill="#BAB0AE"/>
<path d="M16.819 19.6937V19.7251C16.7267 19.7562 16.6308 19.776 16.5334 19.7842C16.6249 19.7438 16.7207 19.7135 16.819 19.6937Z" fill="#BAB0AE"/>
<path d="M7.4377 19.0842L7.24329 18.921L7.27427 18.9015C7.3431 18.9493 7.40591 19.0049 7.4614 19.067L7.4377 19.0842Z" fill="#BAB0AE"/>
<path d="M5.27844 14.2259C5.31728 14.1431 5.37006 14.0671 5.43458 14.0012L5.45585 14.016C5.40299 14.0917 5.35074 14.168 5.29788 14.2442L5.27844 14.2259Z" fill="#BAB0AE"/>
<path d="M10.6323 9.54088C10.7035 9.4969 10.7837 9.46846 10.8674 9.45752C10.7902 9.49063 10.7252 9.55567 10.6298 9.53852L10.6323 9.54088Z" fill="#BAB0AE"/>
<path d="M5.82523 16.8227L5.79971 16.8481C5.74832 16.8117 5.70546 16.7652 5.67395 16.7115L5.69218 16.6914L5.82523 16.8227Z" fill="#BAB0AE"/>
<path d="M24.4378 17.6782C24.4686 17.6177 24.5133 17.5649 24.5684 17.5239L24.5915 17.5387C24.5556 17.5984 24.5098 17.6519 24.456 17.6972L24.4378 17.6782Z" fill="#BAB0AE"/>
<path d="M9.10791 10.5968C9.16866 10.5602 9.22456 10.5052 9.30536 10.5064C9.25357 10.5599 9.18274 10.5923 9.1073 10.5968H9.10791Z" fill="#BAB0AE"/>
<path d="M5.29793 14.2443L5.21044 14.3909L5.19464 14.3791C5.2125 14.3234 5.24094 14.2714 5.27848 14.226L5.29793 14.2443Z" fill="#BAB0AE"/>
<path d="M5.5494 16.5259L5.63811 16.6288C5.57735 16.6288 5.55426 16.5862 5.52875 16.5472L5.5494 16.5259Z" fill="#BAB0AE"/>
<path d="M10.2823 20.5717C10.2294 20.5726 10.1777 20.5559 10.1359 20.5244C10.1966 20.5161 10.2282 20.5481 10.2823 20.5717Z" fill="#BAB0AE"/>
<path d="M5.42612 16.387L5.51543 16.4904L5.4966 16.5164L5.40729 16.4059L5.42612 16.387Z" fill="#BAB0AE"/>
<path d="M9.46875 10.4059C9.50913 10.3683 9.56182 10.3457 9.6176 10.342C9.58361 10.3827 9.53652 10.411 9.48394 10.4225C9.47786 10.4171 9.47361 10.4118 9.46875 10.4059Z" fill="#BAB0AE"/>
<path d="M6.4887 17.5103L6.58895 17.6078L6.5695 17.6255C6.52895 17.6038 6.49565 17.5711 6.47351 17.5315L6.4887 17.5103Z" fill="#F8F2EA"/>
<path d="M5.21042 14.3909C5.1922 14.4367 5.16255 14.4773 5.12415 14.5091C5.13219 14.4597 5.157 14.4144 5.19462 14.3802L5.21042 14.3909Z" fill="#BAB0AE"/>
<path d="M23.0064 11.7434C22.9669 11.7487 22.942 11.7227 22.9207 11.6925L23.0052 11.7451L23.0064 11.7434Z" fill="#BAB0AE"/>
<path d="M6.27184 17.304C6.31263 17.3276 6.34521 17.3626 6.36541 17.4045C6.34191 17.399 6.31995 17.3886 6.30114 17.3739C6.28232 17.3591 6.26713 17.3405 6.25665 17.3193C6.26202 17.3145 6.26709 17.3094 6.27184 17.304Z" fill="#F8F2EA"/>
<path d="M21.0822 20.0514C21.1181 20.0186 21.1639 19.9979 21.2128 19.9923C21.1854 20.0303 21.1459 20.0585 21.1004 20.0727L21.0822 20.0514Z" fill="#BAB0AE"/>
<path d="M21.2128 19.9894C21.2226 19.9691 21.2376 19.9515 21.2565 19.9386C21.2754 19.9256 21.2974 19.9177 21.3204 19.9155C21.3116 19.9366 21.2968 19.9548 21.2778 19.9679C21.2587 19.981 21.2362 19.9885 21.2128 19.9894Z" fill="#BAB0AE"/>
<path d="M5.13144 14.4979C5.12253 14.5491 5.09544 14.5955 5.05489 14.6292C5.05003 14.5718 5.08041 14.5446 5.13144 14.4979Z" fill="#BAB0AE"/>
<path d="M5.35076 16.3455C5.33557 16.3266 5.29487 16.3059 5.31978 16.2864C5.34469 16.2669 5.35805 16.3065 5.3702 16.3272L5.35076 16.3455Z" fill="#BAB0AE"/>
<path d="M21.0992 20.0704C21.0883 20.0935 21.053 20.1035 21.0476 20.0959C21.0239 20.0622 21.0652 20.0639 21.081 20.0515L21.0992 20.0704Z" fill="#BAB0AE"/>
<path d="M10.3971 20.6172C10.3449 20.6297 10.3267 20.606 10.2999 20.5942C10.3364 20.5753 10.354 20.609 10.3971 20.6172Z" fill="#BAB0AE"/>
<path d="M9.09029 10.6252L9.01495 10.6649C9.03197 10.6312 9.05627 10.6128 9.09333 10.6276L9.09029 10.6252Z" fill="#BAB0AE"/>
<path d="M14.1792 9.52319C14.165 9.51304 14.1532 9.50001 14.1447 9.485C14.1362 9.46999 14.1312 9.45337 14.1299 9.43628C14.1804 9.44278 14.1846 9.47826 14.1962 9.50723C14.1902 9.51224 14.1845 9.51757 14.1792 9.52319Z" fill="#F8F2EA"/>
<path d="M18.1757 11.9325C18.1933 11.9325 18.2079 11.952 18.2012 11.9609C18.1945 11.9697 18.1684 11.968 18.1562 11.9514L18.1757 11.9325Z" fill="#BAB0AE"/>
<path d="M10.515 20.6724L10.5557 20.6894C10.5509 20.6924 10.5454 20.6985 10.5405 20.6985C10.5247 20.6985 10.5083 20.693 10.5174 20.6699L10.515 20.6724Z" fill="#BAB0AE"/>
<path d="M24.7731 16.8582L24.8339 16.7955L24.8545 16.8121L24.7938 16.8748L24.7731 16.8582Z" fill="#BAB0AE"/>
<path d="M6.79187 17.8325C6.77968 17.8314 6.76811 17.8268 6.75868 17.8192C6.74924 17.8116 6.74239 17.8014 6.73901 17.7899L6.75177 17.7787C6.77364 17.7917 6.80159 17.8006 6.78944 17.8349L6.79187 17.8325Z" fill="#BAB0AE"/>
<path d="M6.58896 17.6078L6.63453 17.6569L6.61873 17.6722C6.60695 17.6695 6.59615 17.6637 6.58748 17.6555C6.57881 17.6473 6.5726 17.6369 6.56952 17.6255L6.58896 17.6078Z" fill="#F8F2EA"/>
<path d="M8.99183 19.7026C9.00459 19.7127 9.01735 19.7174 9.02039 19.7257C9.02342 19.734 9.0131 19.7446 9.00034 19.7423C8.98758 19.7399 8.9809 19.7357 8.9809 19.7334C8.98317 19.7227 8.98685 19.7124 8.99183 19.7026Z" fill="#BAB0AE"/>
<path d="M24.7136 16.9374L24.7543 16.8818L24.7713 16.899C24.7687 16.9103 24.7634 16.9208 24.7558 16.9298C24.7482 16.9387 24.7385 16.9458 24.7276 16.9504L24.7136 16.9374Z" fill="#BAB0AE"/>
<path d="M14.2089 9.54089C14.2405 9.55627 14.2338 9.58051 14.2253 9.60593C14.1968 9.59765 14.212 9.5675 14.1956 9.55449L14.2089 9.54089Z" fill="#F8F2EA"/>
<path d="M16.5322 19.7866H16.5018L16.5061 19.8024L16.534 19.786L16.5322 19.7866Z" fill="#BAB0AE"/>
<path d="M10.936 9.43266C10.9325 9.43669 10.9284 9.44027 10.9239 9.44331C10.9223 9.44405 10.9205 9.44443 10.9187 9.44443C10.9169 9.44443 10.9152 9.44405 10.9136 9.44331C10.9026 9.43858 10.9032 9.43207 10.9136 9.42971C10.9212 9.42953 10.9287 9.43052 10.936 9.43266Z" fill="#BAB0AE"/>
<path d="M24.6614 17.0001C24.6619 16.9916 24.6649 16.9835 24.6701 16.9767C24.6753 16.9698 24.6824 16.9646 24.6905 16.9617L24.7106 16.9765L24.6693 17.0119L24.6614 17.0001Z" fill="#BAB0AE"/>
<path d="M11.6177 9.55099C11.6177 9.55099 11.6177 9.55818 11.6177 9.5589H11.6265V9.55099C11.6236 9.55039 11.6206 9.55039 11.6177 9.55099Z" fill="#BAB0AE"/>
<path d="M11.55 9.57901C11.5469 9.57932 11.5438 9.57932 11.5407 9.57901C11.5407 9.57901 11.5407 9.57492 11.5369 9.57288H11.5469C11.5469 9.57288 11.5494 9.57901 11.55 9.57901Z" fill="#BAB0AE"/>
<path d="M10.6322 9.53857C10.6286 9.54465 10.6243 9.55557 10.6213 9.55557C10.6183 9.55557 10.611 9.5495 10.6243 9.54647C10.6281 9.54525 10.6316 9.54341 10.6347 9.541L10.6322 9.53857Z" fill="#BAB0AE"/>
<path d="M24.648 17.0379C24.6474 17.0416 24.646 17.0453 24.6438 17.0484C24.6416 17.0516 24.6387 17.0542 24.6353 17.0562C24.6319 17.0581 24.6281 17.0593 24.6242 17.0596C24.6203 17.0599 24.6164 17.0593 24.6127 17.058C24.6091 17.058 24.6048 17.0432 24.606 17.0426C24.6157 17.0366 24.6258 17.0314 24.6364 17.0272L24.648 17.0379Z" fill="#BAB0AE"/>
<path d="M6.64607 17.6687L6.68253 17.7048L6.66552 17.7207C6.65883 17.7154 6.65215 17.7101 6.64486 17.7054C6.63757 17.7006 6.64607 17.6811 6.64607 17.6687Z" fill="#BAB0AE"/>
<path d="M24.456 17.6971C24.4475 17.7172 24.4269 17.7285 24.4129 17.7125C24.3989 17.6966 24.4275 17.6889 24.4378 17.6782L24.456 17.6971Z" fill="#BAB0AE"/>
<path d="M5.51542 16.4904L5.54944 16.5258L5.52878 16.5471L5.49658 16.5164L5.51542 16.4904Z" fill="#BAB0AE"/>
<path d="M6.85144 17.8993L6.8156 17.8568H6.81256C6.84294 17.8308 6.85266 17.8568 6.86603 17.8763L6.85144 17.8993Z" fill="#BAB0AE"/>
<path d="M7.27125 18.2594C7.25181 18.2482 7.22082 18.2322 7.24512 18.2121C7.26943 18.192 7.27672 18.2328 7.29251 18.2447L7.27125 18.2594Z" fill="#BAB0AE"/>
<path d="M22.8393 11.6274C22.8156 11.6395 22.7968 11.6274 22.7786 11.6134C22.7886 11.6077 22.8005 11.606 22.8118 11.6087C22.8231 11.6114 22.833 11.6183 22.8393 11.628V11.6274Z" fill="#BAB0AE"/>
<path d="M10.5174 20.6705H10.4828V20.6562L10.5138 20.6711L10.5174 20.6705Z" fill="#BAB0AE"/>
<path d="M11.4087 21.0627C11.4148 21.0591 11.4202 21.053 11.4263 21.053C11.4324 21.053 11.4439 21.0566 11.4445 21.0609C11.4445 21.0742 11.4366 21.0767 11.4263 21.0736C11.4198 21.0711 11.4138 21.0674 11.4087 21.0627Z" fill="#BAB0AE"/>
<path d="M5.37021 16.326L5.41152 16.3674L5.3854 16.3816L5.35077 16.3456L5.37021 16.326Z" fill="#BAB0AE"/>
<path d="M6.42494 17.4849L6.40063 17.4612L6.41582 17.4393L6.44742 17.4695L6.42494 17.4849Z" fill="#F8F2EA"/>
<path d="M6.44741 17.4695L6.47171 17.4937L6.44862 17.5091L6.42493 17.4849L6.44741 17.4695Z" fill="#F8F2EA"/>
<path d="M6.4717 17.4938L6.48871 17.5103L6.47352 17.5316L6.44861 17.5091L6.4717 17.4938Z" fill="#F8F2EA"/>
<path d="M24.5684 17.5239C24.5745 17.5168 24.5842 17.5026 24.586 17.5032C24.6024 17.5121 24.5976 17.5257 24.5915 17.5387L24.5684 17.5239Z" fill="#BAB0AE"/>
<path d="M14.1299 9.38953C14.1397 9.40372 14.1561 9.42027 14.1299 9.4321C14.1141 9.43919 14.1062 9.42323 14.1014 9.40963L14.1299 9.38953Z" fill="#F8F2EA"/>
<path d="M14.1956 9.5545L14.1792 9.52317C14.1846 9.51755 14.1902 9.51222 14.1962 9.5072L14.209 9.5409L14.1956 9.5545Z" fill="#F8F2EA"/>
<path d="M6.64606 17.6687C6.64606 17.6811 6.64606 17.6929 6.64606 17.7053L6.61993 17.6722L6.63573 17.6569C6.63849 17.6576 6.64095 17.6591 6.6428 17.6612C6.64464 17.6633 6.64578 17.6659 6.64606 17.6687Z" fill="#F8F2EA"/>
<path d="M9.48397 10.423C9.47303 10.4301 9.46027 10.4455 9.44934 10.4301C9.4384 10.4148 9.45784 10.4118 9.46878 10.4065C9.47364 10.4118 9.47789 10.4171 9.48397 10.423Z" fill="#BAB0AE"/>
<path d="M9.41716 10.4548L9.40137 10.4463C9.4044 10.4463 9.40744 10.4384 9.40926 10.439C9.41499 10.4408 9.42049 10.4432 9.42567 10.4463L9.41716 10.4548Z" fill="#BAB0AE"/>
<path d="M6.69104 17.7433L6.66553 17.7208L6.68254 17.7048L6.7038 17.7297L6.69104 17.7433Z" fill="#BAB0AE"/>
<path d="M6.7038 17.7296L6.72689 17.7544L6.71534 17.7663L6.69104 17.7432L6.7038 17.7296Z" fill="#BAB0AE"/>
<path d="M6.72688 17.7545L6.75179 17.7788L6.73903 17.79L6.71533 17.7663L6.72688 17.7545Z" fill="#BAB0AE"/>
<path d="M9.37218 10.4653L9.36367 10.4793C9.36367 10.4762 9.35638 10.4732 9.35638 10.4714C9.35854 10.4663 9.36118 10.4614 9.36428 10.4568L9.37218 10.4653Z" fill="#BAB0AE"/>
<path d="M9.30533 10.507C9.29804 10.4948 9.30168 10.4869 9.31505 10.4845C9.31505 10.4845 9.32173 10.4845 9.32477 10.4894L9.3029 10.5045L9.30533 10.507Z" fill="#BAB0AE"/>
<path d="M9.10487 10.5945C9.11945 10.614 9.10183 10.6181 9.08968 10.6252H9.09332C9.07388 10.6039 9.09332 10.601 9.10791 10.5945H9.10487Z" fill="#BAB0AE"/>
<path d="M6.87149 17.9147L6.85144 17.8981L6.86602 17.8768L6.89336 17.8975L6.87149 17.9147Z" fill="#BAB0AE"/>
<path d="M22.7796 11.6145L22.7706 11.5931C22.794 11.5931 22.7871 11.6057 22.7768 11.6163L22.7796 11.6145Z" fill="#BAB0AE"/>
<path d="M22.8563 11.6572C22.8399 11.6535 22.8265 11.6475 22.8393 11.6268C22.8515 11.6335 22.8654 11.639 22.8569 11.6572H22.8563Z" fill="#BAB0AE"/>
<path d="M7.29858 18.2795L7.27124 18.2594L7.2925 18.2446C7.2998 18.2565 7.32045 18.2665 7.29737 18.2819L7.29858 18.2795Z" fill="#BAB0AE"/>
<path d="M7.29736 18.282L7.31498 18.2783V18.2947L7.30101 18.2795L7.29736 18.282Z" fill="#BAB0AE"/>
<path d="M5.4115 16.3674L5.42608 16.3869L5.40846 16.4059L5.38538 16.3816L5.4115 16.3674Z" fill="#BAB0AE"/>
<path d="M22.8545 11.6588H22.8758L22.8703 11.6722L22.8563 11.6558L22.8545 11.6588Z" fill="#BAB0AE"/>
<path d="M23.0264 11.7736L23.0051 11.7433C23.0136 11.7536 23.0221 11.7633 23.03 11.7736H23.0264Z" fill="#BAB0AE"/>
<path d="M23.0309 11.7754L23.0293 11.7788L23.0276 11.7728L23.0309 11.7754Z" fill="#BAB0AE"/>
<path d="M7.47906 19.0824C7.48635 19.0936 7.51065 19.1001 7.49728 19.1173C7.48392 19.1344 7.47298 19.1173 7.46387 19.1055L7.47906 19.0824Z" fill="#BAB0AE"/>
<path d="M7.55377 19.1694L7.53979 19.1611C7.54283 19.1611 7.54587 19.154 7.54769 19.1546C7.5526 19.1567 7.55728 19.1593 7.56167 19.1623L7.55377 19.1694Z" fill="#BAB0AE"/>
<path d="M19.9279 19.2675H19.9564V19.2905C19.9522 19.2951 19.9475 19.2993 19.9424 19.3029C19.9388 19.2905 19.9333 19.2787 19.9279 19.2675Z" fill="#F8F2EA"/>
<path d="M19.5384 13.5789L19.5233 13.5704C19.5263 13.5704 19.5293 13.5625 19.5312 13.5631C19.5369 13.5649 19.5424 13.5674 19.5476 13.5704L19.5384 13.5789Z" fill="#BAB0AE"/>
<path d="M5.43457 14.0012C5.43457 13.9906 5.44308 13.9793 5.45523 13.9876C5.46738 13.9959 5.45523 14.0059 5.45523 14.016L5.43457 14.0012Z" fill="#BAB0AE"/>
<path d="M24.8632 16.7776L24.8768 16.7654V16.78L24.8607 16.7758L24.8632 16.7776Z" fill="#BAB0AE"/>
<path d="M5.66728 16.6642L5.69219 16.6914L5.67396 16.7115L5.65027 16.6878L5.66728 16.6642Z" fill="#BAB0AE"/>
<path d="M24.86 16.7754C24.8843 16.7919 24.86 16.8008 24.854 16.812L24.8333 16.7955L24.8631 16.7772L24.86 16.7754Z" fill="#BAB0AE"/>
<path d="M5.65025 16.6878C5.63871 16.6801 5.62048 16.6731 5.63385 16.6559C5.64722 16.6388 5.65754 16.6559 5.66726 16.6642L5.65025 16.6878Z" fill="#BAB0AE"/>
<path d="M24.7543 16.8818C24.7604 16.8741 24.7671 16.8664 24.7732 16.8582L24.7938 16.8747L24.7713 16.899L24.7543 16.8818Z" fill="#BAB0AE"/>
<path d="M7.46144 19.067L7.47906 19.0824L7.46387 19.1054L7.43774 19.0842L7.46144 19.067Z" fill="#BAB0AE"/>
<path d="M24.6905 16.9616L24.7136 16.9374L24.7276 16.9504L24.7105 16.9764L24.6905 16.9616Z" fill="#BAB0AE"/>
<path d="M24.6668 17.0118C24.6674 17.0149 24.6672 17.0181 24.6664 17.0211C24.6656 17.0241 24.6641 17.027 24.6621 17.0294C24.6601 17.0319 24.6576 17.0339 24.6548 17.0353C24.6519 17.0368 24.6488 17.0376 24.6456 17.0378L24.634 17.0272L24.6589 17L24.6668 17.0118Z" fill="#BAB0AE"/>
<path d="M6.18312 17.2502L6.16003 17.226L6.18191 17.2112L6.20742 17.236L6.18312 17.2502Z" fill="#F8F2EA"/>
<path d="M10.4275 20.6344L10.4354 20.6421C10.4354 20.6421 10.4293 20.6486 10.4269 20.648C10.4245 20.6474 10.4214 20.6439 10.419 20.6409L10.4275 20.6344Z" fill="#BAB0AE"/>
<path d="M6.20741 17.236L6.22807 17.2578L6.20802 17.2726L6.18311 17.2502L6.20741 17.236Z" fill="#F8F2EA"/>
<path d="M6.22806 17.2578L6.24871 17.2815C6.24357 17.2855 6.2387 17.2898 6.23413 17.2945L6.20801 17.2726L6.22806 17.2578Z" fill="#F8F2EA"/>
<path d="M6.24871 17.2815L6.2718 17.304C6.26705 17.3094 6.26198 17.3145 6.25661 17.3193C6.24142 17.3193 6.23535 17.3087 6.23413 17.2945C6.2387 17.2899 6.24357 17.2855 6.24871 17.2815Z" fill="#F8F2EA"/>
<path d="M4.89599 14.8994C4.89881 14.9042 4.90111 14.9093 4.90286 14.9145C4.90286 14.9145 4.89805 14.9195 4.8953 14.922C4.89202 14.9172 4.88969 14.9119 4.88843 14.9063C4.88843 14.9063 4.89324 14.8994 4.89599 14.8994Z" fill="#BAB0AE"/>
<path d="M6.37937 17.4382C6.366 17.4311 6.34899 17.4193 6.36175 17.4069C6.37451 17.3944 6.39213 17.4128 6.40367 17.4246L6.37937 17.4382Z" fill="#F8F2EA"/>
<path d="M6.40065 17.4246C6.40419 17.4257 6.40742 17.4276 6.41006 17.4302C6.4127 17.4327 6.41468 17.4359 6.41583 17.4393L6.40065 17.4612L6.37634 17.4382L6.40065 17.4246Z" fill="#F8F2EA"/>
<path d="M6.81559 17.8562C6.80162 17.8562 6.79129 17.8477 6.7919 17.8313C6.8083 17.8313 6.83321 17.8234 6.81498 17.8556L6.81559 17.8562Z" fill="#BAB0AE"/>
<path d="M12.6135 6.93478C12.6317 6.92992 12.633 6.94267 12.6342 6.953C12.6354 6.96332 12.6238 6.96514 12.6214 6.96453C12.613 6.95941 12.6051 6.95351 12.5977 6.94692L12.6135 6.93478Z" fill="#0B0404"/>
<path d="M19.9576 19.2905V19.2668L19.9795 19.2772L19.9576 19.2905Z" fill="#BAB0AE"/>
</svg>
