<svg width="16" height="16" viewBox="0 0 16 16" fill="none" xmlns="http://www.w3.org/2000/svg">
    <g clip-path="url(#clip0_13_22380)">
        <path
            d="M11.4024 9.83438C11.24 9.7011 10.8238 9.78175 10.7227 9.9707C9.74694 11.7947 7.30008 9.04905 6.4466 8.20996C5.35608 7.13875 6.15125 6.13456 6.30574 5.1281C6.36935 4.71461 6.35686 4.35148 6.44584 4.2784C6.51589 4.22085 6.54164 4.15723 6.47992 4.10498C5.33601 3.13752 2.69982 -1.43851 0.831168 1.34573C-1.67476 5.07925 2.04134 9.12024 4.6461 11.5342C6.64236 13.3843 9.73823 16.4964 12.7845 15.6997C13.1889 15.5937 13.5789 15.4165 13.6808 15.3828C13.783 15.3487 13.9042 15.2749 13.9542 15.2234C14.0041 15.1719 14.3408 14.9557 14.6369 14.6603C16.4635 12.839 12.9394 11.1002 11.4024 9.83438ZM14.3124 14.4172C13.9973 14.6921 13.5838 14.7955 13.4861 14.7872C13.3881 14.7796 13.2574 14.8201 13.1934 14.8852C13.1295 14.9496 12.8606 15.0643 12.5876 15.1174C12.3146 15.1711 12.2169 15.0681 12.3737 14.9106C12.5297 14.7531 12.6323 14.6187 12.6031 14.6088C12.574 14.5994 12.4187 14.7304 12.2567 14.9015C12.0942 15.0719 11.7337 15.2381 11.4501 15.2397C11.2521 15.2412 11.0772 15.2291 10.9389 15.2026C10.931 15.201 10.9219 15.1984 10.9136 15.1957C10.8999 15.1919 11.0775 14.9875 11.3108 14.7379C11.5437 14.4884 11.5437 14.2006 11.3184 14.0798C11.0931 13.9591 10.6917 14.0753 10.416 14.354C10.14 14.6323 9.60873 14.7164 9.24939 14.5028C9.19865 14.4725 9.14829 14.4418 9.09831 14.4108C8.74313 14.1904 8.70716 13.7527 9.00213 13.4562C9.01084 13.4475 9.01917 13.4392 9.02788 13.4308C9.32323 13.1355 9.4993 12.8435 9.4213 12.7803C9.34292 12.7167 9.02977 12.8928 8.72079 13.1752C8.70564 13.1893 8.69012 13.2036 8.6746 13.2177C8.36599 13.4997 8.17402 13.7746 8.24634 13.8296C8.31866 13.8845 8.33381 13.8973 8.2789 13.858C8.24558 13.8345 8.21226 13.8106 8.1797 13.7871C7.14862 13.0461 6.24553 12.1188 5.32503 11.2494C3.33331 9.36864 1.36961 7.41214 0.823974 4.61616C0.646007 3.70474 0.976192 1.5858 1.94517 1.18102C2.33101 1.01971 2.44045 1.43206 2.14169 1.72476C1.98795 1.87509 1.83346 2.02693 1.67822 2.17839C1.37946 2.47109 1.13523 2.71418 1.13333 2.72251C1.13144 2.73047 1.37264 2.50062 1.67329 2.20982C2.51504 1.3942 2.99744 0.934513 2.49194 1.45478C2.35146 1.58996 2.06558 1.866 1.66421 2.25374C1.36355 2.54455 1.07275 2.97205 1.03413 3.21249C1.00989 3.36509 0.992474 3.51238 0.981872 3.64946C0.981872 3.65287 0.981872 3.65589 0.981872 3.6593C0.981872 3.6646 1.21929 3.42757 1.51312 3.12994C1.72782 2.91222 1.94214 2.69525 2.15608 2.47866C2.44991 2.18104 2.72481 1.7933 2.78426 1.6176C2.84371 1.44115 3.03834 1.37981 3.18715 1.49719C3.27045 1.56346 3.35641 1.63881 3.44463 1.72438C3.98497 2.24844 4.41929 2.86602 4.89639 3.44498C5.16221 3.7676 5.35229 4.04288 5.33184 4.10308C5.3201 4.1383 5.32389 4.17503 5.35115 4.21138C5.96987 5.05085 5.25801 5.84035 5.05694 6.62189C4.92365 7.13988 5.19098 7.67 5.43711 8.09485C5.957 8.99188 7.1206 9.78478 7.93546 10.4141C8.8075 11.0877 9.76512 11.3354 10.5342 10.9135C10.9015 10.7129 11.3755 10.6337 11.7103 10.884C12.6455 11.5826 13.5782 12.2521 14.3642 13.1927C14.7811 13.6895 14.6781 14.0984 14.3124 14.4172Z"
            fill="black" />
        <path
            d="M3.07352 7.22432C3.01748 7.28188 2.96144 7.34019 2.90502 7.39812C2.61421 7.6984 2.45253 8.05282 2.54795 8.18686C2.64375 8.3209 2.96522 8.18989 3.26285 7.89605C3.31131 7.84834 3.35978 7.80025 3.40825 7.75254C3.70625 7.45909 3.86604 7.10202 3.77024 6.95321C3.67444 6.80364 3.36433 6.92367 3.07352 7.22432Z"
            fill="black" />
        <path
            d="M2.73658 6.61886C3.0289 6.31934 3.18112 5.91116 3.09062 5.701C3.00012 5.49085 2.69455 5.55484 2.39655 5.8483C2.31703 5.92668 2.23751 6.00506 2.158 6.08344C1.86 6.3769 1.69793 6.78622 1.80585 6.99335C1.91414 7.20085 2.24736 7.12095 2.5393 6.82144C2.60519 6.75366 2.67107 6.68588 2.73658 6.61886Z"
            fill="black" />
        <path
            d="M5.02781 8.60641C4.9411 8.50834 4.63249 8.667 4.33601 8.96197C4.30155 8.99643 4.26709 9.03126 4.23264 9.06534C3.93615 9.35956 3.77144 9.68217 3.8661 9.78327C3.96114 9.88475 4.27467 9.72193 4.56585 9.42166C4.5969 9.38985 4.62795 9.35766 4.65862 9.32586C4.95018 9.02596 5.11452 8.70411 5.02781 8.60641Z"
            fill="black" />
        <path
            d="M2.42411 4.18487C2.51347 4.09513 2.57141 3.92928 2.56005 3.81379C2.54869 3.69793 2.30332 3.84484 2.00911 4.14209C1.88188 4.27083 1.75427 4.39995 1.62667 4.52869C1.33283 4.82631 1.10943 5.14249 1.13025 5.2345C1.15108 5.32651 1.415 5.16521 1.71641 4.87554C1.89816 4.7006 2.07991 4.52528 2.26205 4.34732C2.31619 4.29317 2.37034 4.23902 2.42411 4.18487Z"
            fill="black" />
        <path
            d="M6.14631 9.77153C6.11526 9.74199 5.8502 9.95707 5.55485 10.2532C5.53213 10.2763 5.50903 10.299 5.48593 10.3225C5.19059 10.6182 4.96718 10.8738 4.98763 10.8931C5.00807 10.912 5.272 10.6958 5.57757 10.4103C5.60142 10.3876 5.62566 10.3656 5.64951 10.3433C5.95509 10.057 6.17736 9.80144 6.14631 9.77153Z"
            fill="black" />
        <path
            d="M6.1846 10.8439C6.1615 10.8658 6.13878 10.8867 6.11569 10.9079C5.80898 11.193 5.67266 11.5292 5.81011 11.6584C5.94757 11.7886 6.30804 11.6644 6.61589 11.3812C6.6405 11.3585 6.66474 11.3369 6.68897 11.3138C6.99644 11.0302 7.13237 10.6936 6.99303 10.5637C6.85368 10.433 6.49093 10.5595 6.1846 10.8439Z"
            fill="black" />
        <path
            d="M7.69388 12.3816C7.39474 12.6735 7.40231 12.6815 7.70751 12.3952C7.72909 12.3748 7.7503 12.3551 7.77188 12.335C8.0767 12.0488 8.31714 11.8098 8.30995 11.8034C8.30313 11.7966 8.05473 12.0291 7.75598 12.3206C7.73553 12.3407 7.7147 12.3615 7.69388 12.3816Z"
            fill="black" />
        <path
            d="M7.9994 4.83161C7.88846 4.91984 7.90739 5.04177 8.05961 5.05616C9.35612 5.17846 10.1611 6.21218 10.5182 7.38942C10.5875 7.61699 11.316 7.41252 11.2501 7.19328C10.8552 5.89146 9.9294 4.82631 8.51702 4.69265C8.33981 4.67599 8.14064 4.71915 7.9994 4.83161Z"
            fill="black" />
        <path
            d="M12.9356 8.41141C12.9276 8.71282 13.6607 8.55832 13.6668 8.31902C13.7504 4.949 11.0567 2.4408 7.80407 2.16173C7.5269 2.13788 7.02481 2.53092 7.51857 2.57295C10.541 2.83233 13.0121 5.33106 12.9356 8.41141Z"
            fill="black" />
        <path
            d="M7.44055 0.173421C7.13838 0.150702 6.66961 0.585774 7.16527 0.623261C11.3944 0.94133 14.1885 4.64607 15.2628 8.46366C15.3419 8.74462 16.0727 8.54658 15.9943 8.26714C14.8542 4.21744 11.8689 0.506636 7.44055 0.173421Z"
            fill="black" />
    </g>
    <defs>
        <clipPath id="clip0_13_22380">
            <rect width="16" height="16" fill="white" />
        </clipPath>
    </defs>
</svg>
    