<svg width="22" height="22" viewBox="0 0 22 22" fill="none" xmlns="http://www.w3.org/2000/svg">
    <circle cx="11" cy="11" r="10.125" fill="black" stroke="black" stroke-width="0.25" />
    <path
        d="M7.84342 12.2122C7.80115 12.0832 7.73063 11.9653 7.63702 11.867C7.5434 11.7687 7.42904 11.6925 7.30226 11.644C6.77734 11.3716 6.20552 11.3139 5.63009 11.2706C5.52907 11.2616 5.37574 11.3229 5.35048 11.1732C5.32523 11.0235 5.48217 10.9928 5.59581 10.9513C5.79063 10.8792 5.98725 10.8088 6.18026 10.7331C7.35638 10.2731 8.06168 9.30983 8.71468 8.31229C9.61661 6.93595 10.0099 5.38823 10.1163 3.75935C10.1125 3.72277 10.1125 3.6859 10.1163 3.64931C10.156 3.48697 10.1163 3.25246 10.3111 3.20917C10.5059 3.16588 10.4662 3.44909 10.6033 3.54289C10.6809 3.27952 10.4752 3.01616 10.6033 2.76001C10.7567 2.77805 10.7404 2.89169 10.7512 2.98189C10.9875 4.74426 11.7758 6.27573 12.7932 7.69176C13.4228 8.56664 14.0974 9.41445 15.03 10.0061C15.3057 10.1911 15.6106 10.3283 15.9319 10.412C16.0654 10.4445 16.2404 10.4481 16.2133 10.6717C16.1863 10.8954 16.0438 10.8918 15.8904 10.8756C15.7371 10.8593 15.6307 10.8756 15.6163 11.0722C15.6054 11.2111 15.4737 11.267 15.3691 11.3265C14.2074 11.9904 13.5454 13.0817 12.9105 14.1947C12.6487 14.6664 12.4446 15.1678 12.3026 15.6883C12.2803 15.7712 12.2494 15.8516 12.2106 15.9282C12.1655 16.0166 12.1005 16.1194 11.9905 16.0815C11.8805 16.0436 11.8967 15.9264 11.9057 15.8272C11.9183 15.6666 12.0771 15.5151 11.9382 15.3437C12.0158 14.983 12.2683 14.6691 12.3152 14.2903C12.4252 14.2903 12.4379 14.1857 12.4811 14.1099C12.8419 13.5164 13.2135 12.923 13.5815 12.3295L13.5039 12.2808C13.0019 12.8782 12.5916 13.5469 12.2863 14.265C11.857 15.0768 11.4277 15.8885 11.3213 16.8229C11.4926 16.583 11.5016 16.2818 11.682 16.0364C11.7209 16.2535 11.7116 16.4764 11.655 16.6894C11.5414 17.2283 11.4655 17.7743 11.4277 18.3237C11.4006 18.5817 11.37 18.8523 11.0236 18.8829C10.7909 18.9046 10.5492 18.6394 10.4825 18.3309C10.1874 16.8767 9.69712 15.4689 9.02495 14.146C8.53751 13.2281 7.74147 12.5119 6.77734 12.1239C6.6204 12.0553 6.29391 12.0138 6.40755 11.7739C6.49594 11.5935 6.73224 11.8064 6.89098 11.8623C7.20125 11.9705 7.49708 12.1112 7.79291 12.2393L7.84883 12.2609L7.84342 12.2122ZM14.1245 11.7486L14.2038 11.6675L14.2742 11.5845C14.3954 11.5498 14.5006 11.4739 14.5718 11.3698C14.5881 11.3446 14.6223 11.3049 14.6169 11.2977C14.579 11.249 14.5466 11.2833 14.5159 11.3157C14.4113 11.3789 14.2796 11.4149 14.2363 11.552L14.1551 11.6188L14.074 11.6855C14.0415 11.7144 14.0108 11.7468 14.0541 11.7865C14.0613 11.7919 14.101 11.7631 14.1245 11.7486ZM14.8713 11.1534C14.9687 11.1029 15.0949 11.0866 15.1148 10.9423C15.0556 10.9397 14.9967 10.9524 14.9439 10.9793C14.8911 11.0061 14.8462 11.0462 14.8135 11.0957C14.7486 11.1209 14.653 11.1822 14.6873 11.2237C14.7648 11.3229 14.8153 11.2003 14.8713 11.1534ZM10.6286 5.45678C10.2931 7.65749 9.7014 9.69766 8.00757 11.2291C9.49215 12.2393 10.3526 13.677 10.9623 15.3095C10.9857 15.2842 11.011 15.268 11.0164 15.2481C11.0633 15.0822 11.0994 14.9144 11.1499 14.7503C11.6514 13.1358 12.2701 11.6061 13.9747 10.8954C12.023 9.62731 11.2816 7.60338 10.6286 5.45678ZM10.3796 4.25541C10.3208 5.02355 10.2117 5.78701 10.0531 6.5409C10.36 5.82074 10.4726 5.03268 10.3796 4.25541Z"
        fill="#F8F2EA" />
    <path
        d="M10.6286 5.45679C11.2816 7.60338 12.023 9.62731 13.9748 10.9008C12.2701 11.6116 11.6514 13.1412 11.15 14.7557C11.0994 14.9198 11.0634 15.0876 11.0165 15.2536C11.0165 15.2734 10.9858 15.2896 10.9624 15.3149C10.3581 13.6914 9.49221 12.2483 8.00763 11.2345C9.70145 9.69946 10.2931 7.6575 10.6286 5.45679Z"
        fill="black" />
</svg>