<svg width="83" height="82" viewBox="0 0 83 82" fill="none" xmlns="http://www.w3.org/2000/svg">
<g filter="url(#filter0_d_8058_358)">
<path d="M0 37.0276C0.135333 27.6249 3.26482 19.346 9.59718 12.3429C14.7582 6.63634 21.1456 2.9709 28.5752 1.10632C30.8667 0.531364 33.1956 0.197445 35.5544 0.0631091C40.4317 -0.215541 45.1783 0.423128 49.7812 2.08735C54.4918 3.79073 58.6543 6.38609 62.2876 9.84043C65.3797 12.7797 67.7904 16.2125 69.7493 20C71.7663 23.9011 73.0768 28.008 73.6648 32.3581C73.9286 34.3087 74.0471 36.2677 73.9829 38.2328C73.6854 47.3822 70.5177 55.3901 64.3406 62.1307C59.1069 67.8411 52.6667 71.5104 45.1064 73.1669C42.9381 73.6421 40.7437 73.9399 38.5218 73.9891C28.5889 74.2094 19.8305 71.0959 12.362 64.5157C6.431 59.2897 2.66767 52.7272 0.907573 45.0095C0.361653 42.6175 0.0688134 40.1903 0.0351713 37.7339C0.0321129 37.5112 0.0137627 37.2894 0.000764594 37.0284L0 37.0276Z" fill="#181818"/>
<path d="M38.2898 70.9152C33.1563 71.0089 28.3684 70.1614 23.777 68.2753C20.4831 66.9228 17.4056 65.1902 14.7273 62.8121C10.324 58.9033 7.10427 54.1747 5.0758 48.6332C4.18964 46.2136 3.59632 43.7211 3.28054 41.1649C2.96859 38.6455 2.87454 36.1154 3.21784 33.5968C3.67966 30.21 4.66904 26.9699 6.14777 23.887C9.06393 17.8074 13.3663 12.9498 19.0381 9.34504C22.7937 6.95847 26.8813 5.36947 31.2624 4.56423C33.4193 4.16736 35.5946 3.98083 37.7859 4.00155C41.1807 4.03379 44.5151 4.50512 47.7386 5.58134C49.9834 6.33055 52.0738 7.4344 54.0526 8.7363C60.4744 12.9621 65.0291 18.7178 67.8925 25.8422C69.135 28.9335 69.9088 32.1445 70.2184 35.4668C70.3683 37.0711 70.4524 38.6793 70.3178 40.2859C70.158 42.1943 69.7757 44.0665 69.2581 45.9096C67.7213 51.3744 65.007 56.1759 61.1389 60.3127C57.0949 64.6375 52.2612 67.748 46.6582 69.6264C44.9754 70.1906 43.2199 70.47 41.4582 70.6834C40.3465 70.8177 39.2302 70.8776 38.2898 70.916V70.9152Z" fill="#F8F2EA"/>
<path d="M38.4221 66.9937C33.8512 67.0777 29.5881 66.3179 25.4999 64.6269C22.567 63.4143 19.8268 61.8609 17.442 59.7288C13.5213 56.2243 10.6545 51.9848 8.8483 47.0165C8.05926 44.8472 7.53096 42.6125 7.24979 40.3207C6.97203 38.0619 6.88829 35.7935 7.19397 33.5354C7.60517 30.499 8.48612 27.5939 9.80278 24.83C12.3993 19.3792 16.2302 15.0241 21.2803 11.7922C24.6244 9.65246 28.2639 8.22782 32.1649 7.50587C34.0854 7.15005 36.0223 6.98281 37.9734 7.00139C40.9961 7.0303 43.9651 7.45287 46.8353 8.41777C48.8341 9.08948 50.6954 10.0792 52.4573 11.2464C58.1753 15.0351 62.2308 20.1955 64.7804 26.5829C65.8867 29.3544 66.5757 32.2333 66.8514 35.212C66.9848 36.6504 67.0597 38.0922 66.9399 39.5327C66.7976 41.2436 66.4572 42.9222 65.9963 44.5746C64.6279 49.4742 62.2111 53.779 58.7669 57.4879C55.1662 61.3654 50.8622 64.1541 45.8734 65.8382C44.3749 66.3441 42.8118 66.5946 41.2433 66.7859C40.2534 66.9063 39.2594 66.96 38.4221 66.9944V66.9937Z" fill="#181818"/>
<path d="M9.68859 14.6902C10.4692 13.5095 11.3523 12.4072 12.2959 11.3571C12.8196 10.7745 13.4427 10.2909 14.0842 9.76196C12.6957 11.5175 11.188 13.1042 9.75358 14.7554C9.697 14.7685 9.66718 14.7554 9.68859 14.6902Z" fill="#F8F2EA"/>
<path d="M58.6669 10.9155C60.3574 12.298 61.892 13.8363 63.2545 15.5458C63.2659 15.6019 63.2499 15.6303 63.188 15.6096C61.7314 13.9945 60.164 12.4899 58.595 10.9869C58.5843 10.9285 58.6042 10.9001 58.6661 10.9155H58.6669Z" fill="#F8F2EA"/>
<path d="M72.567 34.752C72.7513 36.1875 72.8476 37.6268 72.7077 39.0715C72.6557 39.6135 72.5731 40.1523 72.5043 40.6927C72.3445 40.6175 72.4508 40.4939 72.4492 40.3895C72.5341 39.0477 72.6121 37.7059 72.5662 36.3602C72.5486 35.8452 72.5257 35.3301 72.5043 34.815C72.4836 34.7528 72.5104 34.7375 72.567 34.7513V34.752Z" fill="#F8F2EA"/>
<path d="M40.8277 71.4421C40.0425 71.5442 39.258 71.6493 38.472 71.7476C37.7334 71.8405 36.9925 71.918 36.2547 72.0209C36.0597 72.0485 35.8739 72.0178 35.6843 72.0132C35.6285 72.0116 35.5238 72.0615 35.5368 71.9349C35.5452 71.8543 35.6109 71.8228 35.6897 71.8174C35.971 71.799 36.2516 71.7698 36.5338 71.7599C37.8022 71.7153 39.0615 71.5695 40.3193 71.4075C40.4867 71.386 40.6557 71.3592 40.8277 71.4413V71.4421Z" fill="#F8F2EA"/>
<path d="M22.6516 6.13507C24.1685 5.28069 25.8269 4.80016 27.4746 4.29275C27.5404 4.27049 27.5564 4.30043 27.545 4.3603C25.9164 4.92375 24.2947 5.50791 22.715 6.20032C22.6523 6.21874 22.637 6.19187 22.6516 6.13507Z" fill="#F8F2EA"/>
<path d="M56.9575 64.9961C58.2826 63.8309 59.639 62.6994 60.8669 61.4236C60.5702 62.0054 57.7917 64.5586 56.9575 64.9961Z" fill="#F8F2EA"/>
<path d="M62.8848 12.2944C63.4643 12.722 65.6901 15.3458 66.0005 15.9422C64.8811 14.7969 64.0011 13.4443 62.8848 12.2944Z" fill="#F8F2EA"/>
<path d="M57.1357 8.74318C56.3329 8.27492 55.5309 7.8059 54.728 7.33765C55.6127 7.66235 56.5485 7.89571 57.1357 8.74318Z" fill="#F8F2EA"/>
<path d="M9.50523 16.6301C10.055 15.8356 10.6758 15.0956 11.2921 14.3533C11.3349 14.3011 11.3716 14.1783 11.4733 14.2551C11.5857 14.3403 11.4863 14.4086 11.4297 14.4761C10.8096 15.2161 10.1895 15.9569 9.57022 16.6977C9.51594 16.7069 9.48535 16.6923 9.506 16.6301H9.50523Z" fill="#F8F2EA"/>
<path d="M72.1045 43.636C71.9447 44.703 71.697 45.7493 71.3613 46.7748C71.343 46.7971 71.3239 46.7979 71.3032 46.7771C71.5716 45.6695 71.8446 44.5633 72.038 43.4387C72.1825 43.4625 72.1007 43.5638 72.1045 43.6352V43.636Z" fill="#F8F2EA"/>
<path d="M63.189 15.6099C63.2111 15.5884 63.2333 15.5676 63.2555 15.5461C63.9971 16.4013 64.644 17.3263 65.258 18.2758C65.2786 18.3357 65.2503 18.3457 65.1999 18.3334C64.5805 17.3877 63.8779 16.5041 63.189 15.6099Z" fill="#F8F2EA"/>
<path d="M72.1051 43.6362C72.0753 43.5732 72.1181 43.4849 72.0386 43.4397C72.1754 42.4233 72.3123 41.407 72.4492 40.3906C72.4874 40.4881 72.4285 40.6033 72.5042 40.6938C72.3712 41.6749 72.2381 42.6551 72.1059 43.6362H72.1051Z" fill="#F8F2EA"/>
<path d="M71.0067 47.9353C70.84 48.7805 70.486 49.5619 70.1909 50.3633C70.1389 50.5046 70.0785 50.6427 70.0219 50.7824C69.9715 50.7894 69.9355 50.784 69.9692 50.7195C70.3125 49.7792 70.6734 48.8442 70.9593 47.8839C70.9823 47.8754 71.0052 47.8678 71.0205 47.8946C71.0266 47.9054 71.0182 47.9207 71.0075 47.9353H71.0067Z" fill="#F8F2EA"/>
<path d="M71.5317 27.5059C71.8139 28.3863 72.0853 29.2699 72.1136 30.2033C71.9194 29.3044 71.7259 28.4055 71.5317 27.5059Z" fill="#F8F2EA"/>
<path d="M34.8741 2.72828C35.5347 2.6638 36.1922 2.5594 36.8559 2.54175C36.8589 2.57859 36.8628 2.61467 36.8658 2.65152C36.2228 2.69911 35.5798 2.74671 34.936 2.7943C34.8748 2.81042 34.8572 2.78509 34.8733 2.72751L34.8741 2.72828Z" fill="#F8F2EA"/>
<path d="M2.13836 37.0154V38.8293C2.10625 38.8293 2.07414 38.8278 2.04202 38.827C1.90593 38.1745 2.14448 37.5343 2.13836 37.0154Z" fill="#F8F2EA"/>
<path d="M4.02018 25.935C3.89937 26.2651 3.77551 26.5952 3.65852 26.9268C3.62794 27.0135 3.59124 27.0834 3.49031 27.0427C3.36033 26.9897 3.45896 26.9145 3.48802 26.8546C3.63712 26.546 3.79003 26.2405 3.94219 25.9335C3.96895 25.9081 3.99495 25.9089 4.02094 25.9358L4.02018 25.935Z" fill="#F8F2EA"/>
<path d="M29.172 3.37901C28.5848 3.52563 27.9983 3.67225 27.4111 3.81963C27.941 3.52256 28.5251 3.4197 29.1093 3.3153C29.1689 3.29841 29.1865 3.32298 29.172 3.37978V3.37901Z" fill="#F8F2EA"/>
<path d="M3.4676 46.5377C3.18623 45.9681 3.10671 45.3417 3.0249 44.7153C3.17247 45.3225 3.32004 45.9305 3.4676 46.5377Z" fill="#F8F2EA"/>
<path d="M9.50498 16.6299C9.52639 16.6521 9.5478 16.6752 9.56921 16.6974C9.30084 17.0682 9.03247 17.4397 8.76409 17.8105C8.74116 17.7951 8.71898 17.7798 8.69604 17.7644C8.95524 17.3799 9.20144 16.9861 9.50498 16.6299Z" fill="#F8F2EA"/>
<path d="M14.3857 63.6428C14.7451 63.9291 15.1045 64.2155 15.4638 64.5018C14.9018 64.2416 14.554 63.9629 14.3857 63.6428Z" fill="#F8F2EA"/>
<path d="M42.3639 2.19108C41.9556 2.16038 41.5465 2.1289 41.1084 2.0959C41.5587 1.85947 41.9594 2.13735 42.3715 2.11585C42.3685 2.14042 42.3662 2.16575 42.3631 2.19031L42.3639 2.19108Z" fill="#F8F2EA"/>
<path d="M49.8545 5.26221C50.3262 5.32285 50.7353 5.50478 51.1077 5.77805C50.6902 5.60611 50.272 5.43416 49.8545 5.26221Z" fill="#F8F2EA"/>
<path d="M27.545 4.36013C27.5213 4.33787 27.4983 4.31484 27.4746 4.29258C27.8171 4.13445 28.1834 4.06613 28.5435 3.97632C28.5512 4.00088 28.5588 4.02545 28.5664 4.05001C28.2254 4.15364 27.8852 4.2565 27.5442 4.36013H27.545Z" fill="#F8F2EA"/>
<path d="M44.4356 71.1472C44.7269 71.0605 45.0182 70.973 45.3096 70.8862C45.136 71.1887 44.8164 71.1196 44.5618 71.2132C44.4991 71.2301 44.428 71.2647 44.4356 71.1472Z" fill="#F8F2EA"/>
<path d="M38.7954 72.4436C39.2626 72.4352 39.7236 72.3024 40.1954 72.3914C39.7282 72.3999 39.2687 72.5526 38.7954 72.4436Z" fill="#F8F2EA"/>
<path d="M13.3352 61.7856C13.6005 62.0359 13.8666 62.2869 14.1319 62.5372C14.1151 62.5548 14.0975 62.5732 14.0807 62.5909C13.7871 62.369 13.5302 62.1096 13.3352 61.7856Z" fill="#F8F2EA"/>
<path d="M14.9348 63.3239C14.6526 63.1297 14.3973 62.9063 14.1816 62.6384C14.4768 62.8158 14.7344 63.0384 14.9776 63.2794C14.9837 63.3132 14.9692 63.3285 14.9348 63.3239Z" fill="#F8F2EA"/>
<path d="M5.01039 51.598C4.82382 51.2918 4.70149 50.9609 4.65332 50.5994C4.78789 50.9187 4.92246 51.2388 5.05703 51.5581C5.05703 51.5896 5.04173 51.6027 5.01115 51.5988L5.01039 51.598Z" fill="#F8F2EA"/>
<path d="M58.6674 10.9155C58.6437 10.9393 58.62 10.9631 58.5963 10.9869C58.4135 10.8196 58.2308 10.6522 58.0488 10.4849C58.3019 10.5685 58.4969 10.7259 58.6682 10.9155H58.6674Z" fill="#F8F2EA"/>
<path d="M65.1997 18.3335C65.2188 18.3143 65.2387 18.2951 65.2578 18.2759C65.4574 18.4985 65.5942 18.758 65.6898 19.0466C65.5262 18.8086 65.3633 18.5706 65.1997 18.3335Z" fill="#F8F2EA"/>
<path d="M29.1721 3.37926C29.1514 3.35776 29.13 3.33627 29.1094 3.31477C29.4053 3.21652 29.7058 3.14129 30.0192 3.13745C30.0261 3.14513 30.0322 3.15357 30.0391 3.16125C29.7616 3.281 29.4634 3.31477 29.1721 3.37849V3.37926Z" fill="#F8F2EA"/>
<path d="M19.3662 66.3955C19.5849 66.5237 19.8043 66.6519 20.023 66.7793C19.7577 66.7363 19.5344 66.612 19.3662 66.3955Z" fill="#F8F2EA"/>
<path d="M44.4359 71.1472C44.4512 71.2209 44.52 71.191 44.562 71.2132C44.3005 71.2746 44.0398 71.3368 43.7783 71.3982C43.9786 71.2524 44.205 71.1925 44.4359 71.1472Z" fill="#F8F2EA"/>
<path d="M72.5666 34.7523C72.5459 34.7737 72.5253 34.7945 72.5039 34.816C72.4228 34.5926 72.445 34.3646 72.5 34.1335L72.5666 34.7523Z" fill="#F8F2EA"/>
<path d="M15.8652 64.0571C15.6634 63.9366 15.4715 63.803 15.3109 63.6295C15.3094 63.5996 15.3247 63.5889 15.3529 63.5958C15.5533 63.6833 15.6955 63.8483 15.8637 63.9788C15.8905 64.0041 15.8912 64.0302 15.8652 64.0571Z" fill="#F8F2EA"/>
<path d="M22.6519 6.13505C22.6733 6.15654 22.694 6.1788 22.7154 6.20029C22.5541 6.31314 22.3751 6.38376 22.1802 6.41446C22.3186 6.28627 22.4745 6.19262 22.6512 6.13428L22.6519 6.13505Z" fill="#F8F2EA"/>
<path d="M34.8744 2.72803C34.8951 2.75029 34.9165 2.77255 34.9371 2.79481C34.736 2.89767 34.5265 2.84778 34.314 2.80018C34.5005 2.77639 34.6879 2.75182 34.8744 2.72803Z" fill="#F8F2EA"/>
<path d="M4.01992 25.9352C3.99392 25.9352 3.96716 25.9337 3.94116 25.9329C4.01839 25.7618 4.09561 25.5906 4.17283 25.4202C4.16748 25.6105 4.1369 25.7886 4.01992 25.9352Z" fill="#F8F2EA"/>
<path d="M5.30737 22.6321C5.39989 22.4425 5.4924 22.2521 5.58492 22.0625C5.60786 22.0732 5.63156 22.084 5.6545 22.0947C5.56657 22.2866 5.51152 22.4939 5.30737 22.6321Z" fill="#F8F2EA"/>
<path d="M70.4701 28.3011C70.4249 28.1199 70.3798 27.9387 70.3347 27.7576C70.467 27.8919 70.5236 28.0516 70.5259 28.2297C70.5549 28.2911 70.5259 28.3072 70.4693 28.3011H70.4701Z" fill="#F8F2EA"/>
<path d="M69.9687 50.7197C69.9863 50.7405 70.0039 50.7619 70.0215 50.7827C69.9649 50.9431 69.9015 51.0997 69.7485 51.2701C69.8051 51.0429 69.8732 50.8763 69.9687 50.7197Z" fill="#F8F2EA"/>
<path d="M9.68852 14.6902C9.70993 14.7117 9.7321 14.7339 9.75351 14.7554C9.68087 14.9212 9.54936 15.0387 9.41479 15.1569C9.46908 14.9788 9.55624 14.8215 9.68852 14.6902Z" fill="#F8F2EA"/>
<path d="M5.05613 51.5581C5.15247 51.727 5.24345 51.8966 5.26333 52.0977C5.14712 51.9473 5.05231 51.7869 5.01025 51.5988C5.02555 51.585 5.04084 51.5719 5.05613 51.5581Z" fill="#F8F2EA"/>
<path d="M15.8653 64.0573C15.8653 64.0312 15.8645 64.0051 15.8638 63.979C16.0152 64.0665 16.1536 64.1701 16.2583 64.3191C16.1123 64.2554 15.9655 64.1939 15.8653 64.0581V64.0573Z" fill="#F8F2EA"/>
<path d="M69.983 26.2928C69.8652 26.1631 69.7773 26.0226 69.8086 25.7793C69.8813 25.9935 69.9325 26.1432 69.983 26.2928Z" fill="#F8F2EA"/>
<path d="M70.4702 28.3011C70.4893 28.2773 70.5077 28.2535 70.5268 28.2297C70.6033 28.3725 70.6254 28.5268 70.6017 28.6926C70.5581 28.5621 70.5138 28.4316 70.4702 28.3011Z" fill="#F8F2EA"/>
<path d="M71.3035 46.7772C71.3234 46.7856 71.3425 46.7841 71.3616 46.7749C71.3181 46.9146 71.2745 47.0551 71.2049 47.2785C71.1804 47.0367 71.2202 46.9023 71.3035 46.778V46.7772Z" fill="#F8F2EA"/>
<path d="M30.019 3.13824C30.1781 3.05764 30.3448 3.02232 30.5856 3.05073C30.3631 3.09602 30.211 3.17355 30.0389 3.16203C30.032 3.15436 30.0259 3.14591 30.019 3.13824Z" fill="#F8F2EA"/>
<path d="M15.3108 63.6298C15.1854 63.5277 15.06 63.4264 14.9346 63.3243C14.9491 63.3097 14.9629 63.2944 14.9774 63.2798C15.1204 63.3642 15.2465 63.4686 15.3528 63.596C15.3345 63.6014 15.3207 63.6129 15.3108 63.6298Z" fill="#F8F2EA"/>
<path d="M71.0071 47.9355C70.9911 47.9186 70.975 47.901 70.959 47.8841C70.9972 47.7505 71.0354 47.617 71.0737 47.4834C71.0943 47.6431 71.1004 47.7989 71.0064 47.9355H71.0071Z" fill="#F8F2EA"/>
</g>
<path d="M33.5917 56.7761C30.5114 56.825 27.4621 56.1328 24.6828 54.7539C23.956 54.3869 23.2491 53.979 22.5653 53.532C22.4674 53.4724 22.3828 53.3919 22.3172 53.2958C22.2516 53.1998 22.2065 53.0903 22.1848 52.9747C21.9096 51.7316 21.929 50.4822 22.1367 49.2348C22.3106 48.1966 22.4998 47.1595 22.9243 46.1903C23.0154 45.978 23.1208 45.7805 23.2312 45.582C23.3826 45.3071 23.6496 45.2699 23.8982 45.4557C24.6551 46.0111 25.4723 46.4725 26.3328 46.8304C27.8961 47.5158 29.5649 47.9058 31.2604 47.9822C32.9861 48.045 34.7054 47.7322 36.3076 47.0639C37.9106 46.4037 39.3621 45.495 40.5784 44.2083C42.0975 42.6001 43.0018 40.6734 43.3547 38.459C43.4304 37.9834 43.4652 37.5035 43.5163 37.028C43.5348 36.8581 43.4846 36.8284 43.3353 36.873C42.8913 37.0046 42.4392 37.114 41.9983 37.2583C41.5891 37.3921 41.1677 37.4706 40.7513 37.5768C40.4853 37.6437 40.2173 37.408 40.1662 37.0736C40.0741 36.4738 40.1242 35.8719 40.1406 35.269C40.1785 33.8157 40.468 32.3943 40.6275 30.9569C40.8485 28.9718 41.2566 27.0292 41.6996 25.0854C41.7569 24.836 41.8551 24.5961 41.9298 24.3508C41.9973 24.1269 42.1671 24.0642 42.3635 24.061C42.5797 24.0709 42.7864 24.1557 42.9507 24.302C43.6118 24.7955 44.2344 25.3425 44.8124 25.9379C46.3469 27.5656 47.8717 29.2057 49.3871 30.8582C49.9875 31.51 50.5962 32.1586 51.0974 32.9017C51.224 33.0727 51.3096 33.2724 51.347 33.4845C51.3594 33.5429 51.3558 33.6037 51.3364 33.66C51.317 33.7164 51.2828 33.7659 51.2376 33.803C50.8284 34.1671 50.3169 34.3454 49.8443 34.5949C49.6785 34.6833 49.5077 34.7613 49.3328 34.8284C49.2029 34.8783 49.1886 34.9346 49.2469 35.0651C49.7219 36.087 50.073 37.166 50.2924 38.2774C50.8703 41.3474 50.5921 44.3198 49.2561 47.1457C47.7882 50.2507 45.5295 52.5702 42.6233 54.2358C40.9734 55.1901 39.1984 55.89 37.3541 56.3133C36.118 56.5978 34.8576 56.7528 33.5917 56.7761ZM33.0649 56.3388C34.9133 56.3313 36.5603 56.1265 38.1796 55.6753C40.9907 54.8866 43.4908 53.5171 45.595 51.4078C47.4646 49.5444 48.7935 47.1746 49.431 44.5672C49.9136 42.7201 50.0322 40.791 49.7799 38.8952C49.5876 37.5301 49.3124 36.1872 48.6874 34.9505C48.6372 34.8507 48.6557 34.8061 48.7579 34.7594C49.1242 34.5928 49.4842 34.4112 49.8474 34.2393C50.1543 34.0928 50.4683 33.9601 50.768 33.8051C51.0043 33.6819 51.0545 33.5036 50.9276 33.2743C50.8593 33.1496 50.7769 33.0338 50.6821 32.9293C49.9661 32.1501 49.2254 31.3975 48.5339 30.5939C46.8082 28.5769 45.0058 26.6385 43.144 24.7553C43.0033 24.5866 42.8233 24.4579 42.6213 24.3816C42.5537 24.3615 42.4862 24.336 42.4259 24.3933C42.2901 24.502 42.188 24.6496 42.1323 24.8179C41.6351 26.6863 41.3487 28.5971 41.0234 30.5015C40.828 31.6384 40.7309 32.7892 40.5754 33.9314C40.4562 34.7608 40.3879 35.5972 40.3708 36.4356C40.3626 37.0067 40.6142 37.0651 41.0019 36.9526C41.8991 36.6946 42.8003 36.4526 43.6984 36.2C43.7915 36.1745 43.8406 36.1808 43.8447 36.2966C43.8631 36.9123 43.9214 37.5258 43.8263 38.1426C43.5726 39.7678 43.1184 41.3124 42.297 42.7402C41.7306 43.7604 41.0074 44.6776 40.156 45.4557C37.7755 47.5788 34.9808 48.5151 31.8762 48.5225C30.433 48.5192 28.9991 48.2814 27.6269 47.8176C26.202 47.3597 24.845 46.6995 23.5944 45.8559C23.442 45.7497 23.3571 45.8293 23.2875 45.9408C23.119 46.2022 22.9817 46.4838 22.8783 46.7794C22.3962 48.2568 22.1781 49.8131 22.2349 51.3717C22.2512 51.9206 22.2246 52.4779 22.4794 52.9917C22.5251 53.0949 22.6019 53.1798 22.6983 53.2337C23.0328 53.4184 23.3632 53.6127 23.6957 53.8006C26.5684 55.4378 29.7876 56.3099 33.0649 56.3388Z" fill="#F8F2EA"/>
<path d="M26.48 29.4794C26.7336 29.6786 26.9541 29.9196 27.1327 30.1927C27.2017 30.301 27.2476 30.4233 27.2674 30.5514C27.2871 30.6796 27.2803 30.8106 27.2472 30.9358C27.1756 31.2692 26.9137 31.4093 26.5537 31.3021C26.139 31.162 25.7517 30.9463 25.41 30.6651C25.1927 30.4877 24.9637 30.3263 24.7246 30.1821C24.7246 30.4125 24.7308 30.6428 24.7246 30.8732C24.73 31.2326 24.6649 31.5895 24.5333 31.922C24.3584 32.3127 23.7897 32.5271 23.4357 32.3466C23.2871 32.2667 23.1702 32.1352 23.1053 31.9751C22.914 31.559 22.8629 31.111 22.8271 30.6598C22.8209 30.5898 22.8199 30.5197 22.8148 30.4263C22.7084 30.483 22.6147 30.5622 22.5396 30.6588C22.1601 31.0314 21.7581 31.3615 21.2282 31.4815C21.1162 31.5055 21.0003 31.5019 20.8898 31.4711C20.7793 31.4403 20.6773 31.3832 20.5919 31.3042C20.3945 31.1439 20.3873 30.8467 20.5755 30.543C20.794 30.2027 21.0478 29.8884 21.3325 29.6057C21.3745 29.5622 21.4563 29.5229 21.4348 29.456C21.4133 29.3891 21.3131 29.4008 21.2507 29.4093C20.8731 29.4722 20.4861 29.424 20.1336 29.2702C19.9664 29.1888 19.8295 29.0527 19.7438 28.8829C19.6581 28.713 19.6283 28.5187 19.659 28.3297C19.7111 28.0473 19.882 27.8764 20.2032 27.8201C20.5909 27.7522 20.9817 27.7023 21.3704 27.645C21.4655 27.6312 21.5617 27.6206 21.711 27.6015C21.5156 27.4284 21.354 27.283 21.1893 27.1408C20.8876 26.9008 20.6171 26.6214 20.3843 26.3096C20.2337 26.0914 20.1445 25.8341 20.1265 25.5665C20.1149 25.4769 20.1236 25.3858 20.152 25.3003C20.1803 25.2149 20.2276 25.1375 20.2899 25.0744C20.3522 25.0113 20.4279 24.9642 20.5109 24.9368C20.5939 24.9094 20.6819 24.9026 20.7679 24.9168C21.1264 24.9676 21.4648 25.1188 21.7468 25.3542C22.1059 25.6323 22.4475 25.9327 22.7984 26.2257C22.8772 26.1609 22.8352 26.0771 22.8373 26.0059C22.8516 25.5006 22.9048 25.0038 23.1155 24.5389C23.2905 24.1525 23.7631 23.9306 24.0976 24.0803C24.3605 24.1981 24.4863 24.4338 24.562 24.7045C24.6643 25.058 24.6643 25.4263 24.6909 25.7894C24.7032 25.9391 24.7093 26.0887 24.7216 26.2384C24.7216 26.2788 24.7216 26.334 24.7686 26.3446C24.8157 26.3552 24.8392 26.3106 24.8709 26.2798C25.2105 25.8881 25.6299 25.5919 26.0176 25.2597C26.2889 25.0329 26.6189 24.8947 26.9659 24.8626C27.0827 24.851 27.1996 24.8845 27.294 24.9568C27.3884 25.0291 27.4537 25.1351 27.4774 25.2544C27.5398 25.6185 27.4078 25.9338 27.2135 26.2204C26.9458 26.6043 26.6481 26.9646 26.3235 27.2979C26.2826 27.3424 26.2018 27.3754 26.2212 27.4444C26.2406 27.5134 26.3235 27.472 26.3828 27.472C26.701 27.4773 27.0181 27.4773 27.325 27.5898C27.6094 27.6959 27.8487 27.8626 27.8743 28.1917C27.905 28.5834 27.8191 28.9496 27.4753 29.1938C27.2607 29.3415 27.0086 29.4198 26.7511 29.4189C26.6641 29.4189 26.5772 29.4189 26.4902 29.4189L26.48 29.4794ZM24.6469 26.8732C24.6182 26.3478 24.5691 25.8733 24.5743 25.3998C24.5766 25.1843 24.548 24.9696 24.4894 24.7629C24.4096 24.4794 24.2101 24.3297 23.9779 24.3658C23.6219 24.421 23.3252 24.644 23.3058 25.1036C23.2812 25.6843 23.2853 26.265 23.2925 26.8456C23.3077 26.9339 23.3017 27.0247 23.2751 27.11C23.0691 26.9597 22.8785 26.7879 22.7064 26.5972C22.5304 26.4168 22.3412 26.2512 22.1662 26.0665C21.8863 25.7584 21.5673 25.4913 21.218 25.2724C21.1223 25.2066 21.0072 25.178 20.8932 25.1918C20.7791 25.2056 20.6735 25.2609 20.595 25.3478C20.4252 25.5357 20.4201 25.7597 20.5888 25.9911C20.6552 26.0825 20.7284 26.1684 20.8078 26.248C21.1358 26.5764 21.4659 26.9023 21.798 27.2257C22.0026 27.421 22.2071 27.61 22.4383 27.8265C22.2 27.8382 22.0026 27.8488 21.8041 27.8562C21.6057 27.8637 21.3949 27.8679 21.1832 27.8732C20.9278 27.8787 20.6738 27.9143 20.4262 27.9794C20.3651 27.993 20.3077 28.0205 20.2582 28.06C20.2086 28.0994 20.1682 28.1499 20.1398 28.2076C19.9352 28.6142 20.0886 28.9709 20.5203 29.0717C20.9295 29.1662 21.3387 29.1397 21.7581 29.1407C21.9159 29.1301 22.0744 29.1455 22.2276 29.1864L21.9729 29.4358C21.666 29.7437 21.3591 30.0505 21.0522 30.3605C20.9611 30.4489 20.8874 30.5549 20.8354 30.6726C20.7974 30.7424 20.7808 30.8226 20.788 30.9025C20.7951 30.9824 20.8256 31.0581 20.8753 31.1195C20.9776 31.2426 21.1136 31.2394 21.2558 31.2118C21.5198 31.1516 21.7674 31.0304 21.9801 30.8573C22.4661 30.5084 22.9099 30.0999 23.3017 29.6407C23.3017 29.8414 23.3017 29.9879 23.3017 30.1354C23.3119 30.6566 23.3017 31.18 23.4419 31.6906C23.4632 31.8034 23.5236 31.9042 23.6117 31.974C23.9646 32.2309 24.3553 32.0802 24.4863 31.6333C24.5886 31.2702 24.5702 30.8965 24.5681 30.5239C24.5681 30.2203 24.6121 29.9199 24.5814 29.5685C24.7625 29.7161 24.8996 29.8244 25.0325 29.9369C25.4815 30.3394 25.9499 30.7178 26.436 31.0706C26.6907 31.2447 26.9342 31.2055 27.1163 30.9836C27.2646 30.8042 27.2431 30.5929 27.0457 30.3467C26.8878 30.1571 26.7135 29.983 26.525 29.8265C26.2672 29.6036 26.0136 29.3796 25.7547 29.1556C25.8971 29.1162 26.0444 29.0994 26.1915 29.1057C26.5639 29.0983 26.9383 29.1142 27.2963 28.9751C27.3877 28.9396 27.4662 28.8757 27.5212 28.7921C27.5761 28.7085 27.6048 28.6092 27.6032 28.508C27.6124 28.2851 27.5787 28.0834 27.3352 27.956C26.9823 27.7809 26.612 27.7979 26.2417 27.7841C26.0555 27.7766 25.8693 27.7841 25.7732 27.7841C26.0391 27.4751 26.3286 27.1301 26.6294 26.7947C26.8861 26.507 27.1879 26.2512 27.3086 25.8616C27.3741 25.6493 27.4222 25.4253 27.2339 25.2416C27.1424 25.1524 27.0256 25.0962 26.9009 25.0813C26.7761 25.0663 26.6501 25.0935 26.5414 25.1588C26.4875 25.1913 26.4352 25.2268 26.3849 25.265C26.107 25.4654 25.8462 25.6902 25.6054 25.9369C25.2924 26.2363 24.9671 26.5229 24.6469 26.8732ZM21.4829 29.421C21.4829 29.421 21.4727 29.4135 21.4696 29.4146C21.4502 29.4231 21.4502 29.4327 21.4696 29.4411C21.4696 29.4411 21.4798 29.4411 21.4829 29.4348C21.486 29.4284 21.4829 29.421 21.4829 29.421Z" fill="#F8F2EA"/>
<path d="M33.0544 27.5727C32.7966 27.3477 32.5613 27.1481 32.3383 26.9432C31.9864 26.6248 31.6356 26.2957 31.52 25.7872C31.4545 25.5112 31.4576 25.2564 31.6652 25.0515C31.8729 24.8466 32.1204 24.8764 32.366 24.9528C32.8467 25.1025 33.2334 25.4156 33.6088 25.7468C33.7909 25.9071 33.9751 26.0653 34.196 26.2564C34.186 25.893 34.2117 25.5295 34.2727 25.1715C34.3085 24.9301 34.3843 24.697 34.4968 24.4825C34.6666 24.1853 34.9213 23.9963 35.2599 24.0186C35.5985 24.0409 35.7867 24.2978 35.8962 24.6142C36.0281 24.9984 36.0046 25.4061 36.0486 25.8031C36.068 25.9783 36.0138 26.2521 36.1212 26.3042C36.2286 26.3562 36.3463 26.1067 36.4731 26.0027C36.7871 25.7447 37.0869 25.4719 37.405 25.2161C37.6471 25.0357 37.9249 24.9138 38.2183 24.8594C38.3005 24.8376 38.3868 24.8374 38.4691 24.8589C38.5515 24.8803 38.6274 24.9227 38.69 24.9823C38.7527 25.0418 38.8 25.1165 38.8279 25.1998C38.8557 25.283 38.8631 25.3722 38.8494 25.4592C38.8099 25.7659 38.6916 26.056 38.5067 26.2989C38.2093 26.7034 37.8856 27.0865 37.538 27.4453C37.6935 27.4963 37.8357 27.4623 37.9738 27.4655C38.2019 27.4671 38.4287 27.501 38.6479 27.5664C38.9435 27.6587 39.2034 27.8275 39.2361 28.1598C39.276 28.5547 39.1901 28.9347 38.8392 29.1842C38.6178 29.334 38.3588 29.4126 38.0945 29.4103C38.007 29.395 37.9172 29.4111 37.8398 29.4559C38.074 29.6682 38.3103 29.8806 38.475 30.1544C38.5835 30.3215 38.6383 30.5199 38.6315 30.7213C38.607 31.303 38.2551 31.3996 37.8408 31.2659C37.547 31.1584 37.2681 31.0113 37.0112 30.8285C36.7856 30.6756 36.5697 30.5079 36.3647 30.3264C36.2931 30.2648 36.2163 30.2086 36.0875 30.1067C36.0875 30.3954 36.0936 30.6215 36.0875 30.8498C36.0891 31.1803 36.0365 31.5088 35.932 31.8211C35.864 32.0037 35.7411 32.1588 35.5815 32.2634C35.422 32.368 35.2343 32.4165 35.0461 32.4018C34.7126 32.388 34.5346 32.1523 34.4211 31.855C34.2656 31.4644 34.2247 31.0514 34.1868 30.6364C34.1807 30.5695 34.2206 30.4708 34.1428 30.4453C34.0651 30.4198 34.0334 30.5164 33.9853 30.5631C33.66 30.888 33.3234 31.1948 32.8969 31.372C32.6053 31.4931 32.3158 31.5514 32.0284 31.3466C31.8238 31.199 31.7522 31.0281 31.831 30.7733C31.9211 30.5321 32.0548 30.3108 32.2248 30.1215C32.4354 29.8634 32.6594 29.6175 32.8958 29.3848C32.7158 29.3944 32.589 29.3965 32.4601 29.4082C32.1562 29.4377 31.8499 29.3971 31.5629 29.2893C31.4516 29.2494 31.3499 29.1851 31.2647 29.1007C31.1795 29.0162 31.1129 28.9137 31.0694 28.8002C31.0258 28.6866 31.0065 28.5646 31.0126 28.4425C31.0187 28.3205 31.0501 28.2012 31.1047 28.0929C31.15 28.012 31.2138 27.9439 31.2906 27.8946C31.3673 27.8454 31.4545 27.8165 31.5445 27.8105C32.0253 27.7288 32.5184 27.6555 33.0544 27.5727ZM37.0787 29.1088C37.2197 29.07 37.3664 29.0585 37.5114 29.0748C37.8494 29.0932 38.1882 29.065 38.519 28.991C38.8453 28.9092 38.9845 28.6598 38.9476 28.3137C38.9169 28.0249 38.7216 27.8891 38.3339 27.8063C37.9462 27.7235 37.5636 27.7553 37.1769 27.7564C37.1278 27.7564 37.0664 27.7914 37.0204 27.7128C37.3682 27.4294 37.6475 27.0759 37.9717 26.7574C38.2438 26.4952 38.5159 26.2267 38.653 25.8488C38.7901 25.4708 38.6857 25.1895 38.3461 25.0706C38.2603 25.0421 38.1692 25.0352 38.0803 25.0503C37.9914 25.0654 37.9072 25.1022 37.8347 25.1577C37.5899 25.3201 37.3602 25.5056 37.1483 25.7118C36.781 26.0865 36.3729 26.4167 36.0036 26.8381C35.9647 26.4858 35.9507 26.131 35.9616 25.7766C35.966 25.4328 35.9275 25.0899 35.8471 24.7564C35.7611 24.4475 35.5565 24.2819 35.2967 24.3318C34.8875 24.4061 34.6666 24.6715 34.6482 25.095C34.6246 25.6396 34.6287 26.1842 34.6379 26.7298C34.6379 26.836 34.6379 26.9506 34.6379 27.0929C34.2604 26.786 33.9033 26.4529 33.5689 26.0961C33.2588 25.7604 32.9097 25.4658 32.5296 25.2192C32.4835 25.1877 32.4318 25.1661 32.3775 25.1555C32.3233 25.1449 32.2675 25.1457 32.2135 25.1577C31.8289 25.2522 31.6908 25.646 31.9425 25.9708C32.193 26.2672 32.4623 26.546 32.7485 26.8052C33.08 27.1322 33.4053 27.4676 33.7991 27.7872C33.5485 27.801 33.3449 27.8148 33.1403 27.8222C32.9357 27.8296 32.7127 27.8339 32.4989 27.8392C32.2572 27.8467 32.017 27.8823 31.7829 27.9453C31.7184 27.9583 31.6577 27.9867 31.6055 28.0281C31.5533 28.0696 31.5111 28.123 31.4821 28.1842C31.2837 28.6088 31.432 28.9474 31.8719 29.043C32.2933 29.1353 32.724 29.1067 33.1516 29.112C33.2825 29.112 33.4145 29.1279 33.5935 29.1406C33.4636 29.2638 33.3715 29.353 33.2866 29.4368C32.9927 29.7298 32.6998 30.0235 32.4079 30.3179C32.312 30.4113 32.2339 30.5226 32.1777 30.6459C32.1408 30.7156 32.1255 30.7953 32.1337 30.8743C32.142 30.9533 32.1734 31.0277 32.2238 31.0875C32.3261 31.2064 32.4621 31.2054 32.6063 31.1778C33.0155 31.1003 33.3153 30.8338 33.6293 30.5897C34.0055 30.3038 34.3487 29.974 34.6523 29.6067C34.6523 29.819 34.6523 29.9729 34.6523 30.1268C34.6655 30.6481 34.6523 31.1725 34.8016 31.681C34.8232 31.7787 34.8758 31.8662 34.951 31.9294C35.3028 32.2022 35.7141 32.0514 35.8399 31.595C35.9422 31.2319 35.9289 30.8582 35.9238 30.4856C35.9238 30.1852 35.9238 29.8837 35.9238 29.5302C36.1284 29.6948 36.2675 29.8084 36.4076 29.9251C36.8572 30.3269 37.3259 30.705 37.8121 31.0578C37.9117 31.1306 38.0343 31.1613 38.1549 31.1438C38.2756 31.1262 38.3852 31.0617 38.4617 30.9633C38.608 30.7924 38.6019 30.5844 38.431 30.3604C38.2921 30.1821 38.1358 30.0191 37.9646 29.8742L37.0787 29.1088Z" fill="#F8F2EA"/>
<path d="M58.2262 27.0993C58.5719 27.0993 58.9166 27.0898 59.2491 27.1949C59.556 27.2883 59.8148 27.4603 59.8475 27.8021C59.8864 28.2076 59.7841 28.5876 59.423 28.8339C59.1325 29.0335 58.8021 29.0462 58.4696 29.0462C58.4553 29.1354 58.5167 29.1524 58.5566 29.1874C58.7605 29.359 58.939 29.5607 59.0865 29.7861C59.1566 29.8887 59.2053 30.0053 59.2292 30.1286C59.2532 30.2518 59.2519 30.3789 59.2256 30.5016C59.157 30.8912 58.8532 31.0505 58.4502 30.9008C58.0365 30.7368 57.6489 30.5092 57.3004 30.2256C57.1623 30.1195 57.0324 29.9995 56.8912 29.8923C56.8452 29.8573 56.8012 29.7861 56.7357 29.818C56.6702 29.8498 56.7112 29.9242 56.7091 29.9772C56.6927 30.4135 56.6948 30.8509 56.5915 31.2798C56.5589 31.4608 56.4734 31.627 56.3465 31.7558C56.2197 31.8846 56.0577 31.9697 55.8826 31.9995C55.5194 32.0781 55.2606 31.9666 55.0898 31.6248C54.8852 31.2076 54.8289 30.7522 54.7952 30.2936C54.8044 30.2103 54.7906 30.1259 54.7553 30.0505C54.5977 30.1428 54.4934 30.2946 54.3625 30.4125C54.0147 30.7309 53.6464 30.9984 53.184 31.0982C53.0651 31.1228 52.9421 31.1163 52.8262 31.0792C52.7103 31.0422 52.6051 30.9757 52.5201 30.8859C52.3687 30.7447 52.3657 30.5069 52.4987 30.249C52.7032 29.8456 53.0152 29.5271 53.317 29.2055C53.359 29.1609 53.4193 29.1312 53.4285 29.0462C53.3158 29.0186 53.1985 29.0186 53.0858 29.0462C52.7616 29.0837 52.4335 29.0377 52.1304 28.9125C51.962 28.8421 51.8202 28.717 51.7263 28.5558C51.6324 28.3946 51.5915 28.2061 51.6097 28.0187C51.617 27.885 51.6677 27.7577 51.7535 27.6577C51.8393 27.5577 51.9552 27.4907 52.0823 27.4677C52.5539 27.3531 53.0377 27.318 53.5144 27.2458C53.5533 27.2458 53.5993 27.2565 53.6331 27.1906C53.3958 26.9836 53.1503 26.7788 52.917 26.5611C52.5764 26.2427 52.2409 25.9242 52.1232 25.4348C52.0557 25.1514 52.0618 24.8881 52.2797 24.6801C52.4976 24.472 52.7411 24.5208 52.9856 24.5994C53.5144 24.7692 53.9236 25.1365 54.3369 25.4964C54.4791 25.6195 54.6203 25.7459 54.7614 25.8701C54.8412 25.8191 54.7993 25.748 54.7993 25.6917C54.7921 25.2249 54.8638 24.7603 55.011 24.3191C55.0687 24.1416 55.1724 23.9841 55.3107 23.8637C55.7261 23.5092 56.2089 23.6142 56.4442 24.1153C56.5529 24.3872 56.6119 24.6777 56.6181 24.972C56.6416 25.2788 56.66 25.5856 56.6835 25.8934C56.6924 25.9406 56.7044 25.987 56.7193 26.0325C57.0416 25.6397 57.418 25.3648 57.7668 25.0537C58.0823 24.7487 58.4819 24.5539 58.9095 24.4964C58.9757 24.4861 59.0432 24.4903 59.1078 24.5086C59.1724 24.527 59.2325 24.5591 59.2844 24.603C59.3363 24.6468 59.3788 24.7015 59.4092 24.7634C59.4396 24.8253 59.4572 24.8931 59.4609 24.9624C59.4772 25.3595 59.3033 25.6811 59.0813 25.9826C58.7991 26.3523 58.4986 26.7066 58.1811 27.0441C58.174 27.0601 58.1678 27.076 58.1607 27.0909L58.2262 27.0993ZM55.2596 26.7246C54.8846 26.4147 54.5282 26.081 54.1927 25.7257C53.8779 25.3843 53.5225 25.0861 53.1349 24.8382C53.0842 24.8072 53.0275 24.7879 52.9689 24.7817C52.9103 24.7754 52.8511 24.7824 52.7953 24.8021C52.7171 24.8205 52.6449 24.8599 52.5859 24.9163C52.5269 24.9727 52.4832 25.0441 52.4592 25.1235C52.4352 25.2029 52.4317 25.2875 52.449 25.3688C52.4663 25.45 52.5039 25.5252 52.558 25.5866C52.7953 25.9051 53.0961 26.1609 53.3763 26.4359C53.7068 26.7628 54.03 27.0983 54.3829 27.4295C53.9891 27.4656 53.6045 27.4666 53.2188 27.4645C52.9841 27.4661 52.7503 27.4935 52.5212 27.5463C52.1887 27.6174 52.0342 27.8 52.0312 28.1099C52.0312 28.4465 52.1478 28.593 52.5089 28.6694C52.9375 28.7617 53.3743 28.7384 53.808 28.7437C53.9287 28.7437 54.0494 28.7543 54.2172 28.7628L53.9564 29.0186C53.6474 29.3258 53.3405 29.6333 53.0357 29.9411C52.9392 30.0344 52.8604 30.1457 52.8035 30.2692C52.7655 30.3383 52.7491 30.418 52.7564 30.4972C52.7638 30.5764 52.7945 30.6514 52.8444 30.7118C52.8922 30.7641 52.9537 30.8008 53.0213 30.8174C53.0888 30.834 53.1596 30.8298 53.2249 30.8052C53.4221 30.7653 53.61 30.6864 53.7784 30.5728C54.0586 30.3758 54.3284 30.1631 54.5865 29.9358C54.8333 29.7213 55.062 29.4851 55.2698 29.2299C55.2698 29.4422 55.2698 29.5919 55.2698 29.7384C55.2882 30.2692 55.2698 30.7999 55.4212 31.3137C55.445 31.411 55.4989 31.4976 55.5747 31.56C55.9081 31.8212 56.3112 31.6842 56.4472 31.2553C56.5185 31.0079 56.551 30.7502 56.5434 30.4921V29.1609C56.7326 29.3138 56.8789 29.4284 57.0201 29.5473C57.4804 29.9358 57.9264 30.3424 58.4246 30.68C58.5199 30.7525 58.6378 30.7857 58.7554 30.7732C58.8729 30.7606 58.9818 30.7032 59.0609 30.612C59.2225 30.4326 59.2246 30.2182 59.0517 29.991C58.8941 29.7912 58.7165 29.6094 58.5218 29.4486C58.2548 29.2182 57.9898 28.9847 57.7239 28.7533C57.8606 28.7156 58.002 28.6998 58.1433 28.7065C58.4887 28.722 58.8344 28.6891 59.1714 28.6089C59.4639 28.525 59.5805 28.3116 59.5805 27.9974C59.5805 27.6832 59.3657 27.5112 58.9371 27.4295C58.5085 27.3477 58.0891 27.386 57.6011 27.3828C57.9919 27.059 58.2722 26.7066 58.5934 26.3966C58.8819 26.1185 59.1703 25.835 59.2992 25.4316C59.4322 25.007 59.2102 24.6726 58.8082 24.6737C58.6558 24.6833 58.5096 24.7402 58.3888 24.8372C58.1067 25.0439 57.8402 25.2728 57.5919 25.5219C57.2758 25.8255 56.9505 26.1174 56.6355 26.4656C56.572 26.0898 56.6007 25.7522 56.5894 25.4178C56.5932 25.0687 56.554 24.7206 56.4728 24.3818C56.3981 24.1164 56.2386 23.9571 56.0196 23.9571C55.6851 23.9571 55.2954 24.2215 55.2913 24.6079C55.2913 24.7862 55.2668 24.9646 55.2657 25.1386C55.2596 25.6599 55.2627 26.1747 55.2627 26.7246H55.2596Z" fill="#F8F2EA"/>
<path d="M46.629 24.6853C46.6321 24.8847 46.6537 25.0835 46.6935 25.2787C46.7211 25.716 46.6812 26.1576 46.7416 26.6438C46.8347 26.5377 46.8909 26.4687 46.9564 26.406C47.4679 25.9167 47.9497 25.3944 48.5276 24.9835C48.7578 24.8201 48.9921 24.7829 49.2437 24.939C49.4739 25.0812 49.4616 25.2967 49.4299 25.5228C49.2969 25.9549 48.9614 26.2351 48.7056 26.5748L47.8699 27.5483C48.2146 27.5483 48.6422 27.5228 49.0667 27.5918C49.6805 27.6905 49.837 28.1226 49.5905 28.5599C49.4688 28.7776 49.2386 28.8052 49.0289 28.8253C48.6944 28.8593 48.3568 28.8625 48.0213 28.8784C47.7829 28.803 47.6571 28.5822 47.4904 28.4219C46.7579 27.716 46.1227 26.9145 45.47 26.1311C45.4142 26.0677 45.381 25.9864 45.3759 25.9007C45.3759 25.4761 45.3534 25.0515 45.4291 24.6396C45.4762 24.3753 45.736 24.1736 46.0521 24.1247C46.2761 24.0908 46.4081 24.1715 46.5503 24.4432C46.5827 24.5216 46.609 24.6025 46.629 24.6853ZM46.7631 26.9379C47.1158 26.6992 47.4285 26.4023 47.6888 26.0589C47.3431 26.3068 47.0316 26.6025 46.7631 26.9379ZM48.2034 26.3657C48.3057 26.4039 48.3333 26.3455 48.3691 26.3041C48.542 26.1003 48.7148 25.8965 48.8857 25.6916C48.9225 25.647 49.0043 25.5961 48.9368 25.5356C48.8693 25.475 48.8274 25.5579 48.7905 25.6056C48.5972 25.8551 48.4039 26.1056 48.2034 26.3657ZM46.5769 26.7479H46.6137V25.6353H46.5769V26.7479ZM48.7466 28.3402C48.5657 28.3183 48.3825 28.3439 48.2136 28.4145C48.3023 28.4445 48.3963 28.453 48.4887 28.4396C48.581 28.4262 48.6692 28.3911 48.7466 28.337V28.3402Z" fill="#181818"/>
<path d="M48.0213 28.8785C48.3568 28.8626 48.6944 28.8594 49.0289 28.8255C49.2335 28.8053 49.4687 28.7777 49.5905 28.5601C49.837 28.1227 49.6774 27.6906 49.0667 27.5919C48.6422 27.5229 48.2146 27.5516 47.8699 27.5484L48.7056 26.575C48.7261 26.713 48.6033 26.7628 48.543 26.8499C48.4693 26.9561 48.3384 27.0208 48.2637 27.1779H48.6872C48.9146 27.1754 49.1411 27.208 49.3593 27.2745C49.6539 27.3669 49.9127 27.5282 49.9557 27.8584C50.0058 28.248 49.9127 28.6227 49.5874 28.8732C49.2007 29.1726 48.7435 29.1418 48.2954 29.1206C48.1655 29.1142 48.1 28.9751 48.0213 28.8785Z" fill="#F8F2EA"/>
<path d="M49.4298 25.5228C49.4615 25.2967 49.4738 25.0812 49.2436 24.939C48.992 24.7829 48.7577 24.8201 48.5276 24.9836C47.9496 25.3944 47.4719 25.9177 46.9604 26.4061C46.8949 26.4687 46.8387 26.5398 46.7456 26.6439C46.6852 26.1577 46.7251 25.7161 46.6975 25.2787C46.809 25.2978 46.7579 25.3912 46.765 25.4507C46.7834 25.6131 46.7886 25.7776 46.8019 25.9411C46.8019 25.9814 46.8019 26.0377 46.853 26.0473C46.8786 26.0473 46.9144 26.0197 46.9348 25.9942C47.2335 25.6333 47.6182 25.3742 47.9578 25.0643C48.2517 24.7897 48.6207 24.6169 49.0135 24.5696C49.0797 24.5575 49.1475 24.5604 49.2126 24.5779C49.2776 24.5953 49.3383 24.6271 49.3905 24.6709C49.4428 24.7148 49.4854 24.7697 49.5154 24.8321C49.5455 24.8944 49.5623 24.9627 49.5648 25.0324C49.572 25.2023 49.6058 25.3976 49.4298 25.5228Z" fill="#F8F2EA"/>
<path d="M46.6292 24.6853C46.6089 24.604 46.5826 24.5245 46.5504 24.4475C46.4082 24.1715 46.2763 24.0908 46.0522 24.129C45.7351 24.1779 45.4763 24.3796 45.4293 24.6439C45.3536 25.06 45.373 25.4836 45.3761 25.905C45.0058 25.6927 44.9045 25.4751 44.9669 25.0621C45.0008 24.7848 45.0746 24.5143 45.1858 24.2596C45.3638 23.8711 45.774 23.6545 46.1157 23.7596C46.4225 23.8541 46.7141 24.3201 46.6752 24.6534C46.6721 24.663 46.6445 24.6736 46.6292 24.6853Z" fill="#F8F2EA"/>
<path d="M33.0648 56.3387C29.7861 56.3105 26.5654 55.4384 23.6915 53.8005C23.359 53.6126 23.0286 53.4184 22.6941 53.2337C22.5978 53.1798 22.5209 53.0948 22.4752 52.9916C22.2205 52.4778 22.2471 51.9205 22.2307 51.3717C22.174 49.813 22.392 48.2567 22.8742 46.7794C22.9775 46.4838 23.1149 46.2022 23.2833 45.9408C23.3529 45.8293 23.4378 45.7507 23.5902 45.8558C24.8421 46.6998 26.2005 47.36 27.6268 47.8176C29.001 48.2843 30.4373 48.5243 31.8833 48.5288C34.9879 48.5214 37.7826 47.5809 40.163 45.462C41.0145 44.6839 41.7377 43.7667 42.3041 42.7465C43.1224 41.3187 43.5797 39.7742 43.8334 38.1489C43.9285 37.5322 43.8702 36.9186 43.8518 36.3029C43.8518 36.1872 43.7986 36.1808 43.7055 36.2063C42.8074 36.4589 41.9062 36.701 41.009 36.9589C40.6213 37.0714 40.3697 37.0131 40.3779 36.4419C40.395 35.6036 40.4633 34.7671 40.5825 33.9377C40.7379 32.7955 40.8351 31.6448 41.0305 30.5078C41.3558 28.6034 41.6443 26.6926 42.1394 24.8242C42.1951 24.6559 42.2972 24.5083 42.433 24.3996C42.4933 24.3423 42.5608 24.3678 42.6284 24.3879C42.8304 24.4643 43.0104 24.5929 43.1511 24.7616C45.0129 26.6416 46.8153 28.5832 48.541 30.6002C49.2284 31.4038 49.9732 32.1564 50.6892 32.9356C50.784 33.0401 50.8664 33.1559 50.9347 33.2806C51.0616 33.511 51.0114 33.6893 50.7751 33.8114C50.4683 33.9664 50.1614 34.0991 49.8545 34.2456C49.4913 34.4176 49.1313 34.5991 48.765 34.7657C48.6628 34.8124 48.6443 34.857 48.6945 34.9568C49.3195 36.1935 49.5947 37.5364 49.787 38.9016C50.0393 40.7973 49.9207 42.7264 49.4381 44.5735C48.8006 47.1809 47.4717 49.5508 45.6021 51.4142C43.4979 53.5235 40.9988 54.8929 38.1867 55.6816C36.5602 56.1275 34.9133 56.3313 33.0648 56.3387ZM24.025 53.7188L24.0669 53.7634C24.0861 53.7899 24.111 53.8114 24.1396 53.8261C24.1681 53.8409 24.1997 53.8485 24.2316 53.8483L24.247 53.8589L24.2296 53.8504C24.2123 53.8217 24.1876 53.7986 24.1583 53.7836C24.1291 53.7686 24.0963 53.7623 24.0638 53.7655L24.0229 53.7209C24.0076 53.7114 23.9984 53.6668 23.9718 53.7092L24.025 53.7188ZM47.6971 47.3771L47.6551 47.4652C47.559 47.6541 47.4621 47.8431 47.3646 48.032L47.4219 48.0628L47.695 47.4981L47.74 47.41C47.7544 47.3855 47.7666 47.3601 47.74 47.342C47.7308 47.3388 47.7104 47.3611 47.6971 47.3771ZM47.0741 48.5448L47.023 48.6106C46.9902 48.6594 46.9411 48.6987 46.9381 48.7698C47.0281 48.7847 47.0342 48.7093 47.0608 48.6637L47.1222 48.5851L47.1457 48.5363C47.1846 48.4896 47.248 48.4503 47.202 48.3707C47.1375 48.3961 47.1232 48.4513 47.0997 48.5002L47.0741 48.5448ZM25.3517 53.7199C25.364 53.7528 25.3906 53.7549 25.4182 53.7517C25.4182 53.7517 25.4254 53.7411 25.4285 53.7358L25.3487 53.723C25.3231 53.6732 25.2771 53.6721 25.231 53.6732C25.2004 53.6332 25.1602 53.6023 25.1144 53.5837C25.0686 53.565 25.0188 53.5593 24.9702 53.567C25.0038 53.6015 25.0438 53.6286 25.0877 53.6469C25.1316 53.6651 25.1786 53.674 25.2259 53.6732C25.2546 53.7358 25.3047 53.722 25.3517 53.7199ZM36.7178 48.5978C36.7056 48.6011 36.6937 48.605 36.6819 48.6095C36.6758 48.6095 36.6717 48.618 36.6666 48.6223L36.7157 48.5957L36.7617 48.5787C36.7617 48.5787 36.7505 48.5734 36.7484 48.5787C36.7464 48.584 36.731 48.5904 36.7178 48.5978ZM25.6832 54.5797L25.719 54.6169L25.7384 54.5946L25.6832 54.5797C25.6648 54.5266 25.6126 54.5351 25.5747 54.5171C25.5205 54.481 25.4725 54.4269 25.3947 54.4661C25.4125 54.4916 25.4359 54.5122 25.4629 54.5262C25.49 54.5403 25.5199 54.5473 25.5502 54.5468C25.587 54.5967 25.6351 54.5893 25.6832 54.5797ZM47.2674 48.3165C47.3012 48.2688 47.3605 48.2305 47.3186 48.1562C47.2562 48.1764 47.2449 48.2359 47.2163 48.2836C47.2071 48.3049 47.1815 48.3293 47.2163 48.3494C47.2511 48.3696 47.2593 48.3335 47.2674 48.3165ZM37.2129 48.3866C37.1362 48.3864 37.0627 48.4177 37.0083 48.4736C36.953 48.4736 36.8957 48.4736 36.862 48.5607C36.9264 48.5352 36.9837 48.5373 37.0052 48.4705C37.086 48.4705 37.1668 48.4705 37.2098 48.3834L37.2834 48.3696C37.2834 48.3632 37.2783 48.3526 37.2732 48.3516C37.2617 48.3488 37.2496 48.3505 37.2392 48.3563C37.2288 48.3622 37.2209 48.3719 37.217 48.3834L37.2129 48.3866ZM37.5903 48.2104C37.5474 48.2097 37.5049 48.2189 37.4659 48.2372C37.4268 48.2556 37.3921 48.2827 37.3643 48.3165C37.4069 48.3188 37.4495 48.3103 37.4883 48.2919C37.5271 48.2734 37.5611 48.2454 37.5873 48.2104L37.6415 48.204L37.6312 48.1817L37.5903 48.2104ZM28.2968 48.8558L28.2324 48.8271L28.2252 48.842L28.2999 48.8526C28.4685 48.94 28.6528 48.9902 28.841 49.0002C28.672 48.9115 28.4862 48.8625 28.2968 48.8569V48.8558ZM47.9375 47.0193C48.0398 46.8197 48.1615 46.634 48.1789 46.3972L47.8955 46.9843C47.8802 47.0087 47.8669 47.0352 47.8955 47.0543C47.8986 47.0586 47.9201 47.0331 47.9334 47.0204L47.9375 47.0193ZM48.4991 45.7454C48.5809 45.5034 48.6883 45.2699 48.718 45.0098L48.4367 45.7529C48.3728 45.8564 48.3374 45.9761 48.3344 46.0989C48.4135 45.998 48.4686 45.879 48.495 45.7518L48.4991 45.7454ZM42.3184 43.5608C42.4779 43.3821 42.5965 43.1684 42.6652 42.9355L42.2969 43.5321C42.2775 43.565 42.2171 43.6021 42.2499 43.6276C42.2826 43.6531 42.3061 43.5979 42.3184 43.5608ZM35.9178 48.67L34.9767 48.9121C35.3108 48.8985 35.6407 48.8308 35.9546 48.7114C35.9853 48.6923 36.0569 48.6913 36.0395 48.6552C36.0221 48.6191 35.9567 48.635 35.9178 48.67ZM32.2024 49.3781H31.1222C31.4507 49.4536 31.7885 49.4765 32.1237 49.446C32.748 49.4493 33.3714 49.3981 33.9875 49.2932C33.3944 49.3554 32.7985 49.3838 32.2024 49.3781ZM44.3316 51.4906L42.9629 52.5957C43.0815 52.6222 43.1613 52.5235 43.2452 52.463C43.639 52.1817 44.0738 51.9513 44.3582 51.5288C44.3756 51.5224 44.396 51.5139 44.3817 51.4927C44.3674 51.4715 44.349 51.4938 44.3316 51.4938V51.4906ZM41.8622 35.7583C41.7711 35.8846 41.589 35.8464 41.453 36.0173C41.7537 35.9112 42.0085 35.8496 42.2355 35.7042L44.2334 35.1532C44.4523 35.0927 44.4799 35.1107 44.5137 35.3464C44.7094 36.6826 44.6904 38.0432 44.4574 39.3729C43.8436 42.8591 42.077 45.582 39.2271 47.5204C36.9387 49.0777 34.3967 49.7189 31.6685 49.6084C29.5578 49.5203 27.4898 48.9643 25.6034 47.9779C25.0022 47.6635 24.4213 47.3089 23.8644 46.9163C23.805 47.1223 23.7426 47.3112 23.6956 47.5055C23.3504 48.9757 23.1712 50.4827 23.1616 51.9959C23.1527 52.0645 23.1661 52.1341 23.1996 52.1939C23.2331 52.2537 23.2849 52.3002 23.3468 52.326C25.478 53.5138 27.7913 54.3097 30.1842 54.6784C32.7518 55.085 35.3061 55.0511 37.8369 54.4078C40.876 53.6349 43.504 52.118 45.643 49.7231C47.1774 48.0108 48.1226 45.9641 48.8019 43.7699C49.1088 42.7784 49.1088 41.7381 49.1302 40.7041C49.1582 39.7932 49.092 38.8817 48.9328 37.9854C48.6988 36.7932 48.3749 35.6219 47.9641 34.4823C47.916 34.3475 47.9191 34.27 48.0582 34.1978C48.6126 33.891 49.1834 33.6256 49.7583 33.3602C49.9711 33.2615 49.9793 33.2392 49.8115 33.0598C48.9052 32.0846 47.9975 31.1101 47.0884 30.1363C45.9407 28.9049 44.7926 27.6735 43.6442 26.4421C43.3373 26.1151 43.0386 25.785 42.7102 25.4283C42.6887 25.5344 42.6744 25.6024 42.6621 25.6692C42.3614 27.4123 42.1322 29.166 41.9051 30.9197C41.7793 31.8847 41.6924 32.856 41.541 33.8178C41.4387 34.4473 41.3712 35.081 41.2791 35.7116C41.2545 35.8772 41.3149 35.8867 41.4407 35.8538C41.5665 35.8209 41.721 35.7901 41.8622 35.7583ZM30.1392 48.7879C30.8232 48.9053 31.5184 48.9359 32.2096 48.8792C31.5191 48.8738 30.8307 48.8197 30.1392 48.7879ZM50.278 33.1362L50.3414 33.0683C49.9977 32.6925 49.6826 32.2849 49.2867 31.9653L49.2366 32.0195L50.278 33.1362ZM44.217 37.8421C44.168 38.3881 44.0891 38.9307 43.9807 39.4674C44.1939 38.9553 44.2753 38.3945 44.217 37.84V37.8421ZM43.2247 42.0884C43.4242 41.806 43.7567 40.9313 43.7434 40.7232C43.5644 41.185 43.3547 41.616 43.2247 42.082V42.0884ZM49.4381 41.3676C49.4208 41.8453 49.3481 42.3166 49.342 42.7922C49.4403 42.3225 49.4727 41.8405 49.4381 41.3612V41.3676ZM41.2075 31.9462C41.1645 32.3443 41.0653 32.735 41.0878 33.1384C41.1809 32.7403 41.1747 32.3369 41.2075 31.9399V31.9462ZM30.042 55.3727C30.3836 55.4258 30.7253 55.5043 31.0752 55.4736C30.7314 55.429 30.3888 55.3483 30.042 55.3727ZM28.1137 48.3229L28.0994 48.376C28.4462 48.5076 28.794 48.6318 29.1745 48.635L28.1137 48.3229ZM26.6192 47.8378L26.6008 47.8972C26.9627 48.0578 27.3446 48.165 27.7352 48.2157L26.6192 47.8378ZM35.9822 55.3674C36.2891 55.3812 36.5725 55.2984 36.8651 55.2549L36.8569 55.2018L35.9822 55.3674ZM29.0978 55.5988C28.8032 55.5224 28.5188 55.3865 28.2058 55.413C28.4944 55.5136 28.7941 55.576 29.0978 55.5988ZM43.505 35.4165L42.9168 35.6086C43.1265 35.5906 43.3424 35.5884 43.505 35.4165ZM42.0504 28.4357C42.1258 28.2557 42.1561 28.0589 42.1384 27.8635C42.0432 28.062 42.0688 28.2531 42.0504 28.4357ZM34.2872 49.2571C34.4533 49.2649 34.619 49.2355 34.7731 49.1711C34.6084 49.187 34.4407 49.1775 34.2872 49.2571ZM40.962 34.0768C41.0029 34.2742 40.8136 34.4738 40.9794 34.6808C40.9896 34.4749 41.0182 34.2774 40.962 34.08V34.0768ZM23.4797 47.3059C23.5785 47.1468 23.6363 46.9641 23.6475 46.7752C23.5368 46.9281 23.4778 47.1147 23.4797 47.3059ZM37.1556 54.8897C36.9773 54.8805 36.7995 54.917 36.638 54.9959C36.8221 55.0181 36.9674 54.9523 37.1556 54.8897ZM37.6517 55.0256C37.4972 55.0065 37.3581 55.0776 37.2139 55.1317C37.3656 55.1305 37.5152 55.0942 37.6517 55.0256ZM48.228 46.3558C48.2611 46.3244 48.2867 46.2854 48.3027 46.2419C48.3187 46.1984 48.3246 46.1516 48.3201 46.1053C48.2872 46.137 48.2617 46.176 48.2454 46.2194C48.2291 46.2628 48.2224 46.3094 48.226 46.3558H48.228ZM42.4299 35.7806L42.4493 35.8146C42.48 35.8039 42.5117 35.7955 42.5414 35.7827C42.5414 35.7827 42.5414 35.7604 42.5414 35.7477L42.4299 35.7806ZM35.749 55.4194V55.429H35.837V55.4226L35.749 55.4194ZM34.8284 48.9545L34.7915 48.962C34.8011 48.9631 34.8107 48.9631 34.8202 48.962L34.858 48.9566L34.8284 48.9545ZM27.9061 48.2666C27.8851 48.2626 27.8639 48.2598 27.8426 48.2581C27.8426 48.2581 27.8375 48.2741 27.8355 48.2815C27.8476 48.286 27.8604 48.2885 27.8733 48.2889C27.8805 48.29 27.8887 48.2794 27.904 48.2688L27.9061 48.2666ZM36.1531 48.6424L36.195 48.6265C36.1848 48.6159 36.1735 48.5978 36.1623 48.5968C36.151 48.5957 36.1163 48.5968 36.1101 48.6127C36.104 48.6286 36.1173 48.6467 36.151 48.6446L36.1531 48.6424ZM28.036 48.3165C28.0235 48.311 28.0105 48.3071 27.9971 48.3049C27.992 48.3049 27.9858 48.3123 27.9807 48.3165C27.9756 48.3208 27.9991 48.3335 28.0094 48.3335C28.0196 48.3335 28.0247 48.3218 28.036 48.3165ZM37.8369 48.1117L37.8563 48.1042C37.8517 48.1003 37.8465 48.0971 37.841 48.0947C37.8349 48.096 37.8291 48.0981 37.8236 48.101L37.8369 48.1117ZM42.166 35.8751C42.1711 35.8751 42.1762 35.8889 42.1803 35.8889C42.1918 35.8867 42.2031 35.8835 42.2141 35.8793C42.2141 35.8793 42.2049 35.8666 42.2008 35.8666C42.1887 35.8681 42.1767 35.8706 42.165 35.874L42.166 35.8751ZM42.347 35.8369C42.3409 35.8315 42.3358 35.8231 42.3317 35.8231C42.3195 35.8252 42.3076 35.8284 42.2959 35.8326C42.301 35.8379 42.3061 35.8464 42.3102 35.8464C42.3224 35.8437 42.3343 35.8402 42.346 35.8358L42.347 35.8369ZM42.0893 35.926C42.0893 35.926 42.0893 35.9154 42.0893 35.9143C42.0893 35.9133 42.078 35.9143 42.0729 35.9143V35.9345L42.0893 35.926ZM25.32 54.4407L25.3344 54.4322C25.3344 54.4322 25.3251 54.4226 25.3211 54.4226C25.315 54.4259 25.3094 54.4302 25.3047 54.4354L25.32 54.4407ZM47.871 47.1074L47.8577 47.0926C47.8529 47.1009 47.8491 47.1098 47.8464 47.1191C47.8464 47.1191 47.8536 47.1286 47.8577 47.1329L47.871 47.1074ZM47.8362 47.1987C47.8311 47.1934 47.826 47.1849 47.8219 47.1849C47.8121 47.1882 47.8028 47.1928 47.7943 47.1987C47.7994 47.1987 47.8045 47.2125 47.8076 47.2125C47.8177 47.2095 47.8274 47.2048 47.8362 47.1987ZM47.7789 47.2996L47.7943 47.2847C47.7851 47.2847 47.7759 47.2741 47.7666 47.2709C47.7574 47.2677 47.7574 47.2794 47.7533 47.2847L47.7789 47.2996ZM23.8695 53.654L23.8818 53.6615V53.6498L23.8695 53.654ZM47.3534 48.0872L47.338 48.1032C47.3468 48.1083 47.3561 48.1125 47.3656 48.1159C47.3656 48.1159 47.3749 48.1074 47.38 48.1032L47.3534 48.0872ZM37.7233 48.1446L37.7376 48.152V48.1403L37.7233 48.1446Z" fill="#181818"/>
<path d="M24.6468 26.8731C24.971 26.5218 25.2923 26.2362 25.6053 25.9347C25.8461 25.688 26.1069 25.4632 26.3848 25.2628C26.4351 25.2245 26.4873 25.1891 26.5413 25.1566C26.65 25.0913 26.776 25.0641 26.9008 25.079C27.0255 25.0939 27.1423 25.1502 27.2338 25.2394C27.422 25.423 27.374 25.6492 27.3085 25.8593C27.1878 26.2489 26.886 26.5048 26.6293 26.7925C26.3285 27.1279 26.039 27.4729 25.773 27.7818C25.8692 27.7818 26.0554 27.7755 26.2416 27.7818C26.6119 27.7956 26.9822 27.7818 27.3351 27.9538C27.5785 28.0759 27.6123 28.2829 27.6031 28.5058C27.6046 28.607 27.576 28.7062 27.521 28.7899C27.4661 28.8735 27.3876 28.9374 27.2962 28.9729C26.9382 29.112 26.5638 29.096 26.1914 29.1035C26.0442 29.0971 25.897 29.114 25.7546 29.1534C26.0114 29.3774 26.2661 29.6013 26.5249 29.8243C26.7134 29.9808 26.8877 30.1549 27.0456 30.3444C27.243 30.5886 27.2645 30.7998 27.1162 30.9814C26.9341 31.2032 26.6906 31.2425 26.4359 31.0684C25.9498 30.7155 25.4813 30.3371 25.0324 29.9347C24.8994 29.8221 24.7624 29.7139 24.5813 29.5663C24.612 29.9156 24.567 30.216 24.568 30.5217C24.568 30.8943 24.5915 31.2648 24.4862 31.631C24.3552 32.079 23.9645 32.2287 23.6115 31.9718C23.5235 31.902 23.4631 31.8012 23.4417 31.6884C23.3036 31.1778 23.3118 30.6544 23.3016 30.1332C23.3016 29.9856 23.3016 29.8391 23.3016 29.6385C22.9098 30.0977 22.466 30.5061 21.9799 30.855C21.7673 31.0282 21.5197 31.1494 21.2557 31.2096C21.1135 31.2372 20.9774 31.2404 20.8752 31.1172C20.826 31.0564 20.7957 30.9816 20.7882 30.9026C20.7807 30.8236 20.7964 30.7442 20.8332 30.6746C20.8852 30.5569 20.9589 30.4509 21.0501 30.3625C21.357 30.0525 21.6638 29.7457 21.9707 29.4379L22.2254 29.1884C22.0722 29.1475 21.9138 29.1321 21.7559 29.1427C21.3467 29.1427 20.9263 29.1682 20.5181 29.0737C20.0865 28.9729 19.9361 28.6162 20.1376 28.2096C20.166 28.1519 20.2065 28.1015 20.256 28.062C20.3055 28.0225 20.3629 27.995 20.424 27.9814C20.6717 27.9163 20.9256 27.8807 21.181 27.8752C21.3856 27.8752 21.5902 27.8657 21.8019 27.8583C22.0137 27.8508 22.1978 27.8402 22.4362 27.8285C22.206 27.6162 21.9973 27.423 21.7958 27.2277C21.4637 26.9036 21.1336 26.5777 20.8056 26.25C20.7262 26.1705 20.653 26.0846 20.5867 25.9931C20.4179 25.7617 20.423 25.5377 20.5928 25.3498C20.6713 25.2629 20.777 25.2076 20.891 25.1938C21.0051 25.18 21.1201 25.2086 21.2158 25.2744C21.5651 25.4933 21.8841 25.7604 22.1641 26.0685C22.339 26.2521 22.5282 26.4177 22.7042 26.5993C22.8764 26.7899 23.067 26.9617 23.2729 27.112C23.2996 27.0267 23.3056 26.9359 23.2903 26.8477C23.2832 26.267 23.2791 25.6863 23.3036 25.1056C23.3231 24.646 23.6197 24.4231 23.9757 24.3679C24.211 24.3318 24.4105 24.4814 24.4872 24.7649C24.5458 24.9716 24.5744 25.1863 24.5721 25.4018C24.569 25.8742 24.6181 26.3487 24.6468 26.8731ZM26.8471 30.6003L26.8625 30.6268C26.8625 30.6215 26.8625 30.6151 26.8625 30.6119C26.8567 30.6081 26.8505 30.6049 26.8441 30.6024C26.8433 30.5804 26.8361 30.5592 26.8232 30.5417C26.8104 30.5242 26.7927 30.5113 26.7725 30.5047C26.7419 30.4506 26.7002 30.4041 26.6504 30.3687C26.6005 30.3333 26.5437 30.3098 26.484 30.2998C26.5437 30.4049 26.6324 30.4889 26.7387 30.5408C26.7462 30.5632 26.7615 30.5818 26.7816 30.593C26.8017 30.6042 26.825 30.6072 26.8471 30.6013V30.6003ZM25.4784 29.8678L25.4171 29.803C25.3865 29.7591 25.3457 29.7239 25.2985 29.7009C25.2512 29.6778 25.1991 29.6677 25.147 29.6714C25.2493 29.7404 25.3148 29.7892 25.3853 29.837C25.3944 29.8512 25.407 29.8627 25.4217 29.8704C25.4364 29.878 25.4528 29.8815 25.4692 29.8805C25.4938 29.9283 25.5173 29.9803 25.5899 29.9442C25.5808 29.9214 25.5653 29.902 25.5454 29.8884C25.5256 29.8747 25.5022 29.8676 25.4784 29.8678ZM24.0084 31.2648C24.0411 31.244 24.0682 31.215 24.0873 31.1805C24.1064 31.146 24.1169 31.1071 24.1179 31.0674C24.212 30.4771 24.0974 29.8816 24.1629 29.2903C24.165 29.2815 24.1651 29.2724 24.1632 29.2636C24.1612 29.2548 24.1573 29.2465 24.1517 29.2396C24.1461 29.2327 24.139 29.2272 24.131 29.2237C24.123 29.2201 24.1143 29.2186 24.1056 29.2192C24.0535 29.2192 24.0668 29.267 24.0647 29.2988C24.0576 29.492 24.0494 29.6852 24.0463 29.8773C24.0402 30.3391 24.1056 30.8009 24.0084 31.2648ZM25.996 26.767C26.3449 26.5451 26.5536 26.1937 26.8257 25.9029C26.8553 25.8721 26.9095 25.8296 26.8471 25.7808C26.7847 25.732 26.7551 25.7808 26.7244 25.8179L25.996 26.767ZM25.5326 26.4358L25.4733 26.3636C25.2084 26.6141 24.9424 26.8646 24.6785 27.1173C24.6728 27.1215 24.6681 27.1269 24.6647 27.1332C24.6612 27.1395 24.6592 27.1465 24.6587 27.1537C24.6582 27.1609 24.6593 27.1682 24.6618 27.1749C24.6644 27.1816 24.6683 27.1877 24.6734 27.1927C24.7081 27.2256 24.7399 27.2001 24.7634 27.1767L25.5326 26.4358ZM22.4924 29.8731C22.5068 29.8731 22.5149 29.8731 22.519 29.8667C22.7584 29.6544 22.9988 29.4421 23.2351 29.2298C23.2433 29.2224 23.2351 29.1884 23.2351 29.1735C23.2146 29.1396 23.184 29.1597 23.1645 29.1735C23.0888 29.2362 23.0162 29.3009 22.9436 29.3657L22.5027 29.7542C22.4771 29.7776 22.4464 29.802 22.4587 29.8423C22.4597 29.8455 22.4822 29.8593 22.4924 29.8689V29.8731ZM24.4872 26.9995H24.5475C24.5782 26.7606 24.4851 26.526 24.4872 26.2882V26.9995ZM26.1659 28.6597C26.2327 28.6898 26.3062 28.7002 26.3783 28.69C26.4505 28.6797 26.5185 28.649 26.575 28.6014C26.5073 28.578 26.4353 28.5707 26.3645 28.5801C26.2937 28.5895 26.2258 28.6152 26.1659 28.6555V28.6597ZM21.4153 28.3954L21.4071 28.3381C21.2925 28.3625 21.1708 28.3551 21.0705 28.4496L21.4153 28.3954ZM26.5157 30.32C26.4257 30.1926 26.3592 30.1226 26.2559 30.1077C26.3129 30.2097 26.4062 30.2844 26.5157 30.3158V30.32Z" fill="#181818"/>
<path d="M21.4826 29.4209C21.4826 29.4209 21.4826 29.4316 21.4826 29.4348C21.4826 29.438 21.4725 29.4423 21.4695 29.4413C21.4503 29.4327 21.4503 29.4231 21.4695 29.4145C21.4725 29.4081 21.4785 29.4134 21.4826 29.4209Z" fill="#6F6F6F"/>
<path d="M37.0787 29.1087L37.9564 29.873C38.1276 30.018 38.2839 30.1809 38.4229 30.3592C38.5937 30.5832 38.5998 30.7913 38.4536 30.9622C38.3771 31.0606 38.2674 31.1251 38.1468 31.1426C38.0261 31.1602 37.9036 31.1294 37.804 31.0567C37.3178 30.7038 36.849 30.3258 36.3995 29.924C36.2593 29.8072 36.1182 29.6936 35.9156 29.5291C35.9156 29.8847 35.9156 30.1862 35.9156 30.4845C35.9207 30.8571 35.933 31.2276 35.8317 31.5938C35.7059 32.0503 35.2947 32.201 34.9428 31.9282C34.8677 31.865 34.8151 31.7776 34.7934 31.6798C34.6451 31.1713 34.6574 30.6469 34.6441 30.1257C34.6441 29.9718 34.6441 29.8178 34.6441 29.6055C34.3406 29.9728 33.9973 30.3026 33.6211 30.5885C33.3081 30.8327 33.0074 31.0991 32.5982 31.1766C32.454 31.2042 32.3169 31.2053 32.2156 31.0864C32.1652 31.0266 32.1338 30.9521 32.1256 30.8731C32.1173 30.7941 32.1327 30.7144 32.1696 30.6448C32.2258 30.5214 32.3038 30.4101 32.3997 30.3168C32.6916 30.0216 32.9845 29.728 33.2785 29.4357C33.3675 29.3476 33.4595 29.2626 33.5853 29.1395C33.4063 29.1268 33.2785 29.1119 33.1434 29.1108C32.7158 29.1108 32.2852 29.1342 31.8637 29.0418C31.4238 28.9463 31.2755 28.6034 31.474 28.183C31.5029 28.1218 31.5451 28.0684 31.5973 28.027C31.6495 27.9855 31.7102 27.9572 31.7747 27.9442C32.0088 27.8812 32.249 27.8456 32.4908 27.838C32.7046 27.838 32.9184 27.8295 33.1322 27.821C33.346 27.8125 33.5414 27.7998 33.791 27.786C33.3971 27.4675 33.0749 27.131 32.7404 26.8041C32.4541 26.5448 32.1848 26.2661 31.9343 25.9697C31.6827 25.6448 31.8207 25.251 32.2054 25.1565C32.2594 25.1445 32.3151 25.1438 32.3694 25.1544C32.4237 25.1649 32.4753 25.1866 32.5215 25.2181C32.9015 25.4647 33.2506 25.7592 33.5608 26.0949C33.8951 26.4518 34.2523 26.7848 34.6298 27.0917C34.6298 26.9495 34.6298 26.8391 34.6298 26.7287C34.6206 26.1831 34.6165 25.6385 34.64 25.0939C34.6584 24.6693 34.8835 24.4049 35.2886 24.3306C35.5484 24.2829 35.753 24.4485 35.8389 24.7553C35.9193 25.0888 35.9579 25.4317 35.9535 25.7754C35.9425 26.1299 35.9565 26.4847 35.9954 26.837C36.3647 26.4124 36.7729 26.0854 37.1401 25.7107C37.352 25.5045 37.5818 25.319 37.8265 25.1565C37.899 25.1011 37.9832 25.0643 38.0721 25.0492C38.1611 25.034 38.2522 25.041 38.338 25.0695C38.6776 25.1884 38.786 25.4591 38.6449 25.8476C38.5037 26.2361 38.2357 26.4941 37.9636 26.7563C37.6393 27.0673 37.36 27.4251 37.0122 27.7117C37.0583 27.7903 37.1145 27.7552 37.1687 27.7552C37.5554 27.7552 37.9452 27.7266 38.3257 27.8051C38.7062 27.8837 38.9057 28.0238 38.9395 28.3125C38.9763 28.6586 38.8372 28.9081 38.5108 28.9898C38.18 29.0639 37.8412 29.0921 37.5032 29.0737C37.3609 29.0587 37.217 29.0706 37.0787 29.1087ZM37.7743 30.2414L37.8183 30.2796C37.9094 30.3959 38.0253 30.4885 38.1569 30.5503C38.0939 30.4135 37.9847 30.3055 37.85 30.2467L37.805 30.2085L37.7344 30.149C37.7234 30.1227 37.7046 30.1008 37.6806 30.0864C37.6567 30.0721 37.6289 30.0661 37.6014 30.0694C37.6096 30.0917 37.6117 30.114 37.624 30.1246C37.6502 30.1458 37.6779 30.1649 37.7068 30.1819L37.7743 30.2414ZM36.9672 26.2563C36.934 26.2618 36.9021 26.2737 36.8731 26.2913C36.6003 26.5412 36.3275 26.792 36.0547 27.044C36.0271 27.0695 35.9913 27.1034 36.0251 27.1576C36.112 27.1756 36.1591 27.1024 36.2092 27.0514C36.377 26.8932 36.5406 26.7329 36.6982 26.5631C36.7913 26.4644 36.9243 26.3996 36.9621 26.2446L36.9846 26.2287C36.9795 26.2287 36.9734 26.2287 36.9713 26.2287C36.968 26.2375 36.9666 26.2469 36.9672 26.2563ZM37.3764 26.7266C37.7119 26.4994 37.9155 26.1427 38.1794 25.8455C38.1858 25.8393 38.1909 25.8318 38.1944 25.8235C38.1979 25.8152 38.1997 25.8062 38.1997 25.7972C38.1997 25.7881 38.1979 25.7791 38.1944 25.7708C38.1909 25.7625 38.1858 25.755 38.1794 25.7489C38.1344 25.7085 38.1006 25.7489 38.0771 25.7754C37.8222 26.0753 37.5893 26.3947 37.3805 26.7308L37.3723 26.7425L37.3764 26.7266ZM35.3571 31.2339C35.5116 31.0078 35.5535 29.2839 35.4226 29.1915C35.3295 29.8688 35.4768 30.5546 35.3612 31.2339H35.3571ZM34.6175 29.1936C34.594 29.1512 34.5889 29.1236 34.5745 29.1183C34.5377 29.1013 34.5111 29.1299 34.4845 29.1522C34.2799 29.3359 34.0661 29.5185 33.8585 29.7032C33.8257 29.7329 33.7695 29.7701 33.8196 29.821C33.8697 29.872 33.8932 29.8125 33.9219 29.786L34.5469 29.234C34.571 29.2189 34.5959 29.2055 34.6216 29.1936H34.6175ZM35.8675 25.8476H35.8276V26.9017H35.8675V25.8476ZM38.0157 28.5429C37.8335 28.5241 37.6495 28.553 37.4807 28.6268C37.7027 28.6989 37.8562 28.6215 38.0157 28.5429ZM33.2007 28.4898C33.2846 28.5391 33.3794 28.565 33.4759 28.565C33.5723 28.565 33.6671 28.5391 33.7511 28.4898H33.2007ZM32.8018 28.3115C32.6591 28.3051 32.5175 28.3396 32.3926 28.4113C32.5368 28.39 32.6555 28.4134 32.8018 28.3115ZM37.5575 30.045C37.5002 29.9463 37.4654 29.8985 37.3764 29.8879C37.4132 29.9696 37.4603 29.9962 37.5575 30.045ZM37.3222 29.8571L37.3283 29.8486H37.3181L37.3222 29.8571Z" fill="#181818"/>
<path d="M55.2627 26.7246C55.2627 26.1747 55.2627 25.663 55.2627 25.1439C55.2627 24.9656 55.2873 24.7872 55.2883 24.6131C55.2883 24.2267 55.6821 23.9656 56.0166 23.9624C56.2355 23.9624 56.3951 24.1206 56.4698 24.387C56.551 24.7258 56.5902 25.074 56.5864 25.4231C56.5977 25.7575 56.569 26.0951 56.6324 26.4709C56.9475 26.1227 57.2728 25.8339 57.5889 25.5271C57.8372 25.278 58.1036 25.0491 58.3858 24.8424C58.5066 24.7455 58.6527 24.6885 58.8052 24.679C59.2072 24.679 59.4292 25.0165 59.2962 25.4369C59.1673 25.8403 58.8788 26.1237 58.5904 26.4019C58.2692 26.7118 57.9889 27.0643 57.5981 27.3881C58.086 27.3881 58.5136 27.3541 58.9341 27.4348C59.3545 27.5154 59.5693 27.6757 59.5775 28.0027C59.5857 28.3297 59.465 28.5335 59.1683 28.6141C58.8314 28.6944 58.4856 28.7273 58.1403 28.7118C57.999 28.7051 57.8575 28.7208 57.7209 28.7585C57.9868 28.9899 58.2518 29.2235 58.5188 29.4538C58.7134 29.6146 58.8911 29.7965 59.0486 29.9963C59.2215 30.2235 59.2195 30.4379 59.0579 30.6173C58.9788 30.7085 58.8699 30.7659 58.7523 30.7785C58.6348 30.791 58.5169 30.7578 58.4216 30.6853C57.9234 30.3477 57.4774 29.9422 57.0171 29.5526C56.8759 29.4337 56.7296 29.319 56.5404 29.1662V30.4995C56.548 30.7576 56.5155 31.0153 56.4442 31.2627C56.3082 31.6874 55.9051 31.8285 55.5716 31.5674C55.4959 31.505 55.442 31.4184 55.4182 31.3211C55.2668 30.8063 55.2852 30.2744 55.2668 29.7458C55.2668 29.5993 55.2668 29.4528 55.2668 29.2373C55.0589 29.4925 54.8303 29.7287 54.5835 29.9432C54.3254 30.1705 54.0556 30.3831 53.7753 30.5802C53.6069 30.6938 53.419 30.7727 53.2219 30.8126C53.1566 30.8372 53.0858 30.8414 53.0182 30.8248C52.9506 30.8082 52.8892 30.7715 52.8414 30.7192C52.7915 30.6588 52.7607 30.5838 52.7534 30.5046C52.7461 30.4254 52.7625 30.3457 52.8005 30.2765C52.8574 30.1531 52.9362 30.0418 53.0327 29.9485C53.3396 29.6407 53.6464 29.3332 53.9533 29.026L54.2142 28.7702C54.0423 28.7617 53.9216 28.7522 53.805 28.7511C53.3713 28.7511 52.9345 28.7691 52.5058 28.6768C52.1447 28.6004 52.0251 28.4539 52.0281 28.1173C52.0281 27.8074 52.1857 27.6248 52.5181 27.5537C52.7472 27.5009 52.9811 27.4735 53.2158 27.4719C53.6014 27.4719 53.9861 27.4719 54.3799 27.4369C54.027 27.1057 53.7037 26.7702 53.3733 26.4433C53.094 26.1673 52.7933 25.9125 52.555 25.594C52.5009 25.5325 52.4633 25.4574 52.446 25.3762C52.4286 25.2949 52.4321 25.2103 52.4562 25.1309C52.4802 25.0515 52.5239 24.98 52.5829 24.9236C52.6418 24.8672 52.7141 24.8279 52.7923 24.8095C52.8481 24.7898 52.9073 24.7828 52.9659 24.7891C53.0245 24.7953 53.0811 24.8146 53.1319 24.8456C53.5194 25.0935 53.8749 25.3917 54.1896 25.7331C54.5274 26.0861 54.8858 26.4172 55.2627 26.7246ZM57.6257 25.8658L57.6329 25.8509C57.6318 25.8571 57.6301 25.8631 57.6278 25.869C57.6145 25.869 57.5848 25.8583 57.6042 25.8944L57.6257 25.8658ZM58.082 29.5706L58.0646 29.542L58.0513 29.5632H58.084C58.0758 29.5972 58.0963 29.6141 58.1219 29.6258C58.1219 29.6258 58.1362 29.6141 58.1433 29.6088L58.082 29.5706ZM58.2477 29.7001C58.2454 29.6937 58.2423 29.6876 58.2385 29.6821C58.2385 29.6821 58.2293 29.6821 58.2241 29.6821L58.2497 29.6969C58.2415 29.784 58.308 29.8031 58.3633 29.8371C58.5021 29.9921 58.6624 30.1248 58.8389 30.2309C58.7288 30.0523 58.5763 29.9061 58.396 29.8063C58.3804 29.7783 58.359 29.7542 58.3334 29.7358C58.3077 29.7175 58.2784 29.7053 58.2477 29.7001ZM56.0023 30.8604C56.2458 30.2235 56.0534 29.5515 56.1384 28.9018C56.1455 28.8509 56.1251 28.7957 56.0565 28.8201C55.9512 29.4974 56.1118 30.1842 56.0023 30.8604ZM57.5582 25.9549L57.5112 25.8987L56.6641 26.6864C56.6386 26.7108 56.6191 26.7479 56.6437 26.7808C56.6836 26.8318 56.7184 26.7861 56.746 26.7617C57.0298 26.5074 57.3009 26.2381 57.5582 25.9549ZM55.232 28.7893C55.189 28.7246 55.1522 28.7468 55.1134 28.7808L54.4801 29.3339C54.4495 29.3615 54.4065 29.3997 54.4362 29.44C54.4791 29.5016 54.5211 29.4464 54.5538 29.4167C54.7645 29.232 54.9742 29.0451 55.1829 28.8583C55.2019 28.8374 55.2183 28.8142 55.232 28.7893ZM58.1986 26.0866C58.2426 26.0866 58.2692 26.0951 58.2804 26.0866C58.485 25.9072 58.6374 25.6736 58.8144 25.4656C58.8209 25.4594 58.8259 25.4518 58.8291 25.4432C58.8322 25.4347 58.8334 25.4255 58.8325 25.4164C58.8316 25.4074 58.8287 25.3986 58.8239 25.3909C58.8192 25.3832 58.8128 25.3768 58.8052 25.3722C58.7479 25.335 58.7182 25.3828 58.6886 25.422C58.5331 25.6375 58.3408 25.8254 58.2006 26.0866H58.1986ZM56.5087 25.4719H56.4575V26.5961H56.5332C56.5008 26.2224 56.4933 25.8468 56.5107 25.4719H56.5087ZM58.1311 28.2532C58.2228 28.2817 58.3195 28.2881 58.4139 28.2721C58.5084 28.2561 58.5981 28.2181 58.6763 28.1609C58.49 28.1442 58.3026 28.1759 58.1311 28.2532ZM54.3932 28.1226H53.8142C54.0096 28.2426 54.1999 28.1885 54.3932 28.1195V28.1226ZM57.2513 29.2797C57.2753 29.3519 57.3194 29.4151 57.3781 29.4612C57.4367 29.5073 57.5073 29.5343 57.5807 29.5388L57.2513 29.2797ZM53.047 28.0282C53.1575 27.9889 53.2925 28.06 53.4132 27.9379C53.2857 27.9308 53.1588 27.961 53.047 28.025V28.0282ZM57.9981 29.4942L57.9541 29.4634C57.9541 29.4729 57.9408 29.4846 57.9439 29.4921C57.9497 29.5027 57.9592 29.5106 57.9705 29.5144C57.9756 29.5133 57.9858 29.5006 57.9981 29.491V29.4942ZM57.8375 29.3753L57.8221 29.3817L57.8385 29.388L57.8375 29.3753Z" fill="#181818"/>
<path d="M58.2264 27.0986H58.1609C58.168 27.0839 58.1742 27.0682 58.1813 27.0525L58.2264 27.0986Z" fill="#6F6F6F"/>
<path d="M46.7632 26.9378C47.0318 26.6024 47.3432 26.3067 47.689 26.0588C47.4286 26.4023 47.1159 26.6992 46.7632 26.9378Z" fill="#6F6F6F"/>
<path d="M48.2034 26.3657C48.408 26.1056 48.5962 25.8551 48.7905 25.6056C48.8274 25.5578 48.8734 25.4772 48.9368 25.5355C49.0002 25.5939 48.9225 25.6417 48.8857 25.6916C48.7148 25.8965 48.542 26.1003 48.3691 26.3041C48.3333 26.3423 48.3067 26.4039 48.2034 26.3657Z" fill="#6F6F6F"/>
<path d="M46.5769 26.7479V25.6365H46.6141V26.7458L46.5769 26.7479Z" fill="#6F6F6F"/>
<path d="M48.7466 28.3369C48.669 28.3905 48.5807 28.425 48.4884 28.4379C48.396 28.4508 48.3021 28.4417 48.2136 28.4113C48.3825 28.3406 48.5657 28.3151 48.7466 28.3369Z" fill="#6F6F6F"/>
<path d="M41.862 35.7584C41.7209 35.7892 41.5777 35.8157 41.4375 35.8518C41.2974 35.8879 41.2513 35.8752 41.2759 35.7096C41.368 35.079 41.4385 34.4453 41.5378 33.8158C41.6892 32.854 41.7761 31.8827 41.9019 30.9177C42.129 29.164 42.3582 27.4146 42.6589 25.6672C42.6712 25.6004 42.6855 25.5335 42.707 25.4263C43.0354 25.783 43.3361 26.1131 43.641 26.4401C44.7887 27.6729 45.9368 28.9043 47.0852 30.1343C47.9936 31.1088 48.9013 32.0833 49.8083 33.0578C49.9761 33.2372 49.9679 33.2595 49.7551 33.3582C49.1823 33.6236 48.6094 33.889 48.055 34.1958C47.9159 34.2733 47.9128 34.3455 47.9609 34.4803C48.3717 35.6199 48.6956 36.7912 48.9296 37.9834C49.0888 38.8797 49.155 39.7912 49.127 40.7021C49.1086 41.735 49.1086 42.7785 48.8017 43.77C48.1225 45.9642 47.1732 48.0109 45.6429 49.7232C43.5039 52.1181 40.8759 53.6351 37.8367 54.4079C35.3059 55.0512 32.7516 55.0851 30.184 54.6786C27.7901 54.308 25.4761 53.51 23.3446 52.3198C23.2827 52.294 23.2309 52.2475 23.1974 52.1877C23.1639 52.1279 23.1505 52.0582 23.1594 51.9896C23.169 50.4764 23.3482 48.9695 23.6934 47.4993C23.7405 47.305 23.8029 47.116 23.8622 46.9101C24.4191 47.3026 25 47.6572 25.6012 47.9716C27.4876 48.9581 29.5556 49.5141 31.6663 49.6022C34.3945 49.7084 36.9365 49.0714 39.2249 47.5141C42.0748 45.5757 43.8384 42.8528 44.4552 39.3667C44.6882 38.0369 44.7072 36.6763 44.5115 35.3402C44.4777 35.1045 44.4501 35.0865 44.2312 35.147L42.2334 35.7032C42.1072 35.6759 41.9758 35.6955 41.862 35.7584Z" fill="#F8F2EA"/>
<path d="M44.3582 51.5321C44.0738 51.9567 43.6421 52.185 43.2452 52.4663C43.1613 52.5268 43.0816 52.6255 42.9629 52.599L44.3316 51.4939L44.3582 51.5321Z" fill="#F8F2EA"/>
<path d="M30.1392 48.7878C30.8307 48.8197 31.5191 48.8738 32.2096 48.8791C31.5184 48.9359 30.8232 48.9052 30.1392 48.7878Z" fill="#F8F2EA"/>
<path d="M50.2779 33.1362L49.2366 32.0195L49.2867 31.9653C49.6826 32.2838 49.9976 32.6925 50.3414 33.0683L50.2779 33.1362Z" fill="#F8F2EA"/>
<path d="M44.217 37.8401C44.275 38.3939 44.1936 38.9539 43.9807 39.4653C44.0891 38.9287 44.168 38.386 44.217 37.8401Z" fill="#F8F2EA"/>
<path d="M43.2246 42.082C43.3545 41.6159 43.5642 41.1849 43.7432 40.7168C43.7565 40.9249 43.4241 41.7996 43.2246 42.082Z" fill="#F8F2EA"/>
<path d="M32.2024 49.3781C32.7984 49.3838 33.3943 49.3555 33.9874 49.2932C33.3728 49.399 32.7507 49.4512 32.1277 49.4493L32.2024 49.3781Z" fill="#F8F2EA"/>
<path d="M49.4382 41.3613C49.4721 41.8385 49.4398 42.3183 49.342 42.7859C49.3482 42.3104 49.4208 41.8412 49.4382 41.3613Z" fill="#6F6F6F"/>
<path d="M41.2074 31.9399C41.1747 32.337 41.1808 32.7404 41.0878 33.1321C41.0652 32.7287 41.1645 32.338 41.2074 31.9399Z" fill="#6F6F6F"/>
<path d="M30.042 55.3727C30.3929 55.3483 30.7315 55.4333 31.0752 55.4736C30.7253 55.5044 30.3888 55.429 30.042 55.3727Z" fill="#F8F2EA"/>
<path d="M32.2023 49.3782L32.1235 49.4461C31.7883 49.4766 31.4506 49.4537 31.1221 49.3782H32.2023Z" fill="#6F6F6F"/>
<path d="M28.1137 48.323L29.1745 48.6351C28.7939 48.6351 28.4461 48.5077 28.0994 48.3761L28.1137 48.323Z" fill="#6F6F6F"/>
<path d="M26.6192 47.8379L27.7353 48.2201C27.3447 48.1694 26.9628 48.0622 26.6008 47.9016L26.6192 47.8379Z" fill="#6F6F6F"/>
<path d="M41.8621 35.7584C41.9765 35.6953 42.1087 35.6762 42.2354 35.7043C42.0083 35.8497 41.7536 35.9166 41.4529 36.0175C41.5889 35.8465 41.771 35.8848 41.8621 35.7584Z" fill="#6F6F6F"/>
<path d="M35.9545 48.7116C35.6406 48.8309 35.3106 48.8986 34.9766 48.9122L35.9177 48.6702L35.9545 48.7116Z" fill="#6F6F6F"/>
<path d="M35.9822 55.3675L36.8568 55.2019L36.865 55.255C36.5724 55.2985 36.286 55.3813 35.9822 55.3675Z" fill="#6F6F6F"/>
<path d="M29.0978 55.5989C28.7941 55.5761 28.4944 55.5137 28.2058 55.4131C28.5188 55.3898 28.8032 55.5225 29.0978 55.5989Z" fill="#6F6F6F"/>
<path d="M42.2969 43.5321L42.6651 42.9355C42.5964 43.1684 42.4779 43.3822 42.3184 43.5608C42.3118 43.5507 42.3047 43.5412 42.2969 43.5321Z" fill="#F8F2EA"/>
<path d="M48.4326 45.7614L48.7139 45.0183C48.6843 45.2784 48.5769 45.5119 48.495 45.754L48.4326 45.7614Z" fill="#F8F2EA"/>
<path d="M43.5049 35.4165C43.3423 35.5885 43.1265 35.5906 42.9167 35.6086L43.5049 35.4165Z" fill="#F8F2EA"/>
<path d="M47.8914 46.9855L48.1747 46.3984C48.1573 46.6352 48.0315 46.8231 47.9333 47.0205L47.8914 46.9855Z" fill="#6F6F6F"/>
<path d="M47.6949 47.4982L47.4218 48.063L47.3645 48.0322C47.462 47.8432 47.5589 47.6543 47.655 47.4653L47.6949 47.4982Z" fill="#6F6F6F"/>
<path d="M42.0503 28.4357C42.0658 28.2499 42.04 28.062 42.1391 27.8635C42.157 28.0589 42.1265 28.2558 42.0503 28.4357Z" fill="#6F6F6F"/>
<path d="M34.2871 49.2571C34.4406 49.1775 34.6083 49.1871 34.773 49.1711C34.6188 49.2356 34.4531 49.2649 34.2871 49.2571Z" fill="#6F6F6F"/>
<path d="M40.9625 34.0801C41.0193 34.2775 40.9904 34.475 40.9801 34.6841C40.8127 34.4771 41.0038 34.2775 40.9625 34.0801Z" fill="#6F6F6F"/>
<path d="M23.4798 47.3059C23.4778 47.1147 23.5368 46.9281 23.6475 46.7751C23.6363 46.9641 23.5786 47.1468 23.4798 47.3059Z" fill="#6F6F6F"/>
<path d="M28.2979 48.8569C28.4869 48.8631 28.6724 48.9124 28.841 49.0013C28.6528 48.9914 28.4685 48.9411 28.2999 48.8538L28.2979 48.8569Z" fill="#6F6F6F"/>
<path d="M37.1556 54.8898C36.9673 54.9524 36.8221 55.0183 36.6379 54.996C36.7995 54.9171 36.9772 54.8806 37.1556 54.8898Z" fill="#6F6F6F"/>
<path d="M37.6517 55.0257C37.5151 55.0944 37.3656 55.1306 37.2139 55.1319C37.3561 55.0777 37.4952 55.0045 37.6517 55.0257Z" fill="#F8F2EA"/>
<path d="M48.4324 45.7615L48.4948 45.752C48.4681 45.8827 48.4112 46.0047 48.3291 46.1076C48.3325 45.9846 48.3682 45.8649 48.4324 45.7615Z" fill="#6F6F6F"/>
<path d="M25.226 53.6796C25.1787 53.6804 25.1317 53.6715 25.0878 53.6533C25.0438 53.635 25.0039 53.6079 24.9702 53.5734C25.0189 53.5657 25.0686 53.5714 25.1144 53.5901C25.1602 53.6087 25.2005 53.6396 25.2311 53.6796H25.226Z" fill="#6F6F6F"/>
<path d="M48.2259 46.356C48.2221 46.3097 48.2285 46.2632 48.2446 46.2198C48.2607 46.1765 48.2861 46.1374 48.3189 46.1055C48.3235 46.1518 48.3175 46.1986 48.3014 46.2421C48.2852 46.2856 48.2594 46.3246 48.2259 46.356Z" fill="#6F6F6F"/>
<path d="M37.5873 48.2105C37.5611 48.2455 37.5271 48.2735 37.4883 48.292C37.4495 48.3104 37.4069 48.3189 37.3643 48.3166C37.3921 48.2828 37.4268 48.2557 37.4659 48.2374C37.5049 48.219 37.5474 48.2098 37.5903 48.2105H37.5873Z" fill="#6F6F6F"/>
<path d="M37.0103 48.4706C37.0647 48.4146 37.1382 48.3833 37.2148 48.3835C37.1698 48.4727 37.089 48.4706 37.0103 48.4706Z" fill="#6F6F6F"/>
<path d="M42.4277 35.78L42.5382 35.7478C42.5382 35.7603 42.5433 35.78 42.5382 35.7821C42.5085 35.7945 42.4768 35.8028 42.4461 35.8132L42.4277 35.78Z" fill="#6F6F6F"/>
<path d="M37.0072 48.4673C36.9857 48.5342 36.9285 48.532 36.864 48.5575C36.8978 48.4715 36.9551 48.4715 37.0103 48.4705L37.0072 48.4673Z" fill="#6F6F6F"/>
<path d="M47.0627 48.6542C47.0361 48.704 47.03 48.7794 46.9399 48.7603C46.9399 48.6892 46.9921 48.6542 47.0248 48.6011L47.0627 48.6542Z" fill="#6F6F6F"/>
<path d="M24.0637 53.7657C24.0962 53.7625 24.1289 53.7688 24.1582 53.7838C24.1875 53.7988 24.2121 53.8219 24.2294 53.8506C24.1975 53.8508 24.166 53.8432 24.1374 53.8285C24.1088 53.8137 24.0839 53.7922 24.0647 53.7657H24.0637Z" fill="#6F6F6F"/>
<path d="M25.5503 54.549C25.52 54.5495 25.4901 54.5424 25.463 54.5284C25.4359 54.5143 25.4125 54.4937 25.3948 54.4683C25.4715 54.429 25.5206 54.4831 25.5738 54.5192C25.5665 54.5296 25.5587 54.5395 25.5503 54.549Z" fill="#6F6F6F"/>
<path d="M47.0996 48.4895C47.1231 48.4418 47.1375 48.3834 47.2019 48.3611C47.2459 48.4407 47.1845 48.48 47.1456 48.5267L47.0996 48.4895Z" fill="#6F6F6F"/>
<path d="M47.2234 48.2805C47.249 48.2327 47.2602 48.1743 47.3257 48.1531C47.3676 48.2274 47.3083 48.2656 47.2745 48.3134L47.2234 48.2805Z" fill="#6F6F6F"/>
<path d="M35.7468 55.4216L35.8348 55.4163V55.4227H35.7468V55.4216Z" fill="#6F6F6F"/>
<path d="M34.8264 48.9536L34.856 48.96L34.8182 48.9654C34.8087 48.9665 34.7991 48.9665 34.7896 48.9654L34.8264 48.9536Z" fill="#6F6F6F"/>
<path d="M42.3185 43.5611C42.3062 43.5986 42.2868 43.6586 42.2499 43.6286C42.2131 43.5986 42.2776 43.5654 42.297 43.5322C42.3048 43.5413 42.312 43.551 42.3185 43.5611Z" fill="#F8F2EA"/>
<path d="M27.9041 48.2688C27.8887 48.2795 27.8806 48.2902 27.8713 48.2913C27.8584 48.2909 27.8457 48.2884 27.8335 48.2838C27.8335 48.2763 27.8335 48.2603 27.8407 48.2603C27.8619 48.2619 27.8831 48.2648 27.9041 48.2688Z" fill="#6F6F6F"/>
<path d="M25.6831 54.5785C25.634 54.5868 25.5859 54.5941 25.5491 54.5474C25.5575 54.5382 25.5653 54.5285 25.5726 54.5183C25.6115 54.536 25.6636 54.5277 25.6821 54.5796L25.6831 54.5785Z" fill="#6F6F6F"/>
<path d="M36.151 48.644C36.1162 48.644 36.0978 48.6346 36.108 48.6147C36.1183 48.5948 36.1428 48.5969 36.1602 48.5989C36.1776 48.601 36.1827 48.6178 36.1929 48.6283L36.151 48.644Z" fill="#6F6F6F"/>
<path d="M36.7156 48.5957L36.6665 48.6225C36.6665 48.6225 36.6757 48.6118 36.6818 48.6096C36.6936 48.6051 36.7055 48.6011 36.7177 48.5978L36.7156 48.5957Z" fill="#6F6F6F"/>
<path d="M35.9177 48.6701C35.9566 48.6351 36.02 48.6118 36.0395 48.6553C36.0589 48.6988 35.9852 48.6924 35.9546 48.7115L35.9177 48.6701Z" fill="#6F6F6F"/>
<path d="M28.2998 48.8541L28.2251 48.8434L28.2323 48.8284L28.2977 48.8573L28.2998 48.8541Z" fill="#6F6F6F"/>
<path d="M25.3517 53.719C25.3046 53.719 25.2545 53.7346 25.2258 53.6796L25.2309 53.6733C25.277 53.6733 25.323 53.6733 25.3486 53.7221L25.3517 53.719Z" fill="#6F6F6F"/>
<path d="M25.3486 53.7232L25.4284 53.736C25.4284 53.7414 25.4223 53.751 25.4182 53.7521C25.3906 53.7521 25.364 53.7521 25.3517 53.72L25.3486 53.7232Z" fill="#6F6F6F"/>
<path d="M37.5902 48.2108L37.6311 48.1787L37.6414 48.2012L37.5872 48.2076L37.5902 48.2108Z" fill="#6F6F6F"/>
<path d="M28.0359 48.3168C28.0256 48.3232 28.0174 48.335 28.0093 48.334C28.0011 48.3329 27.9898 48.3232 27.9806 48.3168C27.9714 48.3104 27.9919 48.304 27.997 48.305C28.0104 48.3073 28.0234 48.3112 28.0359 48.3168Z" fill="#6F6F6F"/>
<path d="M36.7176 48.5982C36.7279 48.5907 36.7371 48.5821 36.7483 48.5746C36.7596 48.5671 36.7575 48.5746 36.7616 48.5746L36.7156 48.5918L36.7176 48.5982Z" fill="#6F6F6F"/>
<path d="M47.0229 48.6054L47.0741 48.5396L47.1222 48.5756L47.0608 48.6542L47.0229 48.6054Z" fill="#6F6F6F"/>
<path d="M37.2169 48.3828C37.2186 48.3764 37.2215 48.3705 37.2254 48.3653C37.2294 48.3602 37.2343 48.3558 37.2399 48.3526C37.2456 48.3494 37.2518 48.3474 37.2582 48.3467C37.2646 48.346 37.2711 48.3466 37.2773 48.3485C37.2824 48.3485 37.2845 48.3599 37.2875 48.3662L37.2139 48.3796L37.2169 48.3828Z" fill="#6F6F6F"/>
<path d="M47.7408 47.4101L47.6953 47.4982L47.655 47.4653C47.6695 47.4366 47.6829 47.4069 47.6974 47.3772L47.7408 47.4101Z" fill="#6F6F6F"/>
<path d="M37.8357 48.1108L37.8206 48.1012C37.826 48.0982 37.8318 48.0961 37.8377 48.0947C37.8432 48.0971 37.8483 48.1004 37.8528 48.1044L37.8357 48.1108Z" fill="#6F6F6F"/>
<path d="M42.1648 35.874C42.1762 35.8703 42.1878 35.8674 42.1996 35.8655C42.1996 35.8655 42.2088 35.874 42.2129 35.8783C42.2019 35.8825 42.1906 35.8858 42.1791 35.888C42.1791 35.888 42.1699 35.8794 42.1648 35.874Z" fill="#6F6F6F"/>
<path d="M42.3461 35.8359C42.334 35.84 42.3217 35.8433 42.3092 35.8456C42.3092 35.8456 42.3 35.837 42.2949 35.8317C42.3066 35.8274 42.3186 35.8242 42.3307 35.822C42.3307 35.822 42.3399 35.8306 42.3461 35.8359Z" fill="#6F6F6F"/>
<path d="M42.089 35.9255L42.0718 35.931V35.9102C42.0772 35.9102 42.0847 35.9102 42.089 35.9102C42.0933 35.9102 42.0879 35.9211 42.089 35.9255Z" fill="#6F6F6F"/>
<path d="M24.0249 53.7192L23.9717 53.7095C23.9983 53.6667 24.0075 53.7095 24.0228 53.7213L24.0249 53.7192Z" fill="#6F6F6F"/>
<path d="M25.3198 54.4408L25.3047 54.4355C25.3094 54.4303 25.3148 54.4259 25.3208 54.4226C25.3208 54.4226 25.3299 54.429 25.334 54.4322L25.3198 54.4408Z" fill="#6F6F6F"/>
<path d="M25.6831 54.5798L25.7394 54.5933L25.7199 54.6151L25.6831 54.5798Z" fill="#6F6F6F"/>
<path d="M47.9333 47.0199C47.92 47.0325 47.8985 47.0576 47.8934 47.0545C47.8627 47.0356 47.876 47.0094 47.8934 46.9854L47.9333 47.0199Z" fill="#6F6F6F"/>
<path d="M47.8717 47.1071L47.8581 47.132C47.8581 47.132 47.8454 47.1216 47.8465 47.1185C47.8493 47.1094 47.8531 47.1007 47.8581 47.0925L47.8717 47.1071Z" fill="#6F6F6F"/>
<path d="M47.8361 47.199C47.8273 47.2051 47.8177 47.2098 47.8075 47.2129C47.8075 47.2129 47.7993 47.2033 47.7942 47.199C47.8028 47.1931 47.812 47.1884 47.8218 47.1851C47.8218 47.1851 47.831 47.1936 47.8361 47.199Z" fill="#6F6F6F"/>
<path d="M44.3315 51.4937C44.3489 51.4937 44.3755 51.4875 44.3817 51.4937C44.3878 51.5 44.3755 51.5228 44.3581 51.529L44.3315 51.4937Z" fill="#F8F2EA"/>
<path d="M47.779 47.2999L47.7534 47.2849C47.7534 47.2849 47.7636 47.271 47.7667 47.271C47.7698 47.271 47.7851 47.2806 47.7943 47.2849L47.779 47.2999Z" fill="#6F6F6F"/>
<path d="M23.8694 53.6544L23.885 53.6499L23.8828 53.6624L23.8694 53.6544Z" fill="#6F6F6F"/>
<path d="M47.3532 48.0874L47.3798 48.1035C47.3747 48.1035 47.3696 48.1174 47.3655 48.1163C47.3559 48.1129 47.3467 48.1086 47.3379 48.1035L47.3532 48.0874Z" fill="#6F6F6F"/>
<path d="M37.7231 48.1449L37.7399 48.1404L37.7388 48.1529L37.7231 48.1449Z" fill="#6F6F6F"/>
<path d="M47.697 47.3766C47.7103 47.3641 47.7308 47.3389 47.7359 47.3421C47.7666 47.3599 47.7543 47.385 47.7359 47.4091L47.697 47.3766Z" fill="#6F6F6F"/>
<path d="M47.2674 48.3166C47.2551 48.3368 47.248 48.3707 47.2152 48.3495C47.1825 48.3283 47.2152 48.3049 47.2152 48.2837L47.2674 48.3166Z" fill="#6F6F6F"/>
<path d="M24.2295 53.8506L24.2478 53.8594L24.2316 53.8484L24.2295 53.8506Z" fill="#6F6F6F"/>
<path d="M47.1456 48.5292C47.1374 48.5463 47.1302 48.5624 47.1221 48.5784C47.1067 48.5656 47.0903 48.5538 47.074 48.542L47.0995 48.4917L47.1456 48.5292Z" fill="#6F6F6F"/>
<path d="M24.023 53.7209L24.0639 53.7645L24.022 53.7209H24.023Z" fill="#6F6F6F"/>
<path d="M24.0085 31.2647C24.1108 30.803 24.0403 30.3391 24.0464 29.8773C24.0464 29.6851 24.0576 29.4919 24.0648 29.2987C24.0648 29.2669 24.0536 29.2202 24.1057 29.2191C24.1144 29.2185 24.1231 29.2201 24.1311 29.2236C24.1391 29.2272 24.1462 29.2326 24.1518 29.2396C24.1574 29.2465 24.1613 29.2547 24.1633 29.2635C24.1652 29.2723 24.1651 29.2815 24.163 29.2902C24.0975 29.8815 24.2121 30.4771 24.118 31.0673C24.117 31.1071 24.1065 31.146 24.0874 31.1804C24.0683 31.2149 24.0412 31.2439 24.0085 31.2647Z" fill="#F8F2EA"/>
<path d="M25.9961 26.767L26.7244 25.818C26.7551 25.7777 26.7971 25.7416 26.8472 25.7808C26.8973 25.8201 26.8554 25.8721 26.8257 25.9029C26.5536 26.1895 26.3449 26.5409 25.9961 26.767Z" fill="#6F6F6F"/>
<path d="M25.5327 26.4316L24.7635 27.1747C24.7399 27.1981 24.7082 27.2236 24.6734 27.1907C24.6684 27.1857 24.6644 27.1796 24.6619 27.1729C24.6594 27.1662 24.6583 27.1589 24.6588 27.1517C24.6593 27.1445 24.6613 27.1375 24.6647 27.1312C24.6682 27.1249 24.6729 27.1195 24.6786 27.1153C24.9425 26.8626 25.2085 26.6121 25.4734 26.3616L25.5327 26.4316Z" fill="#6F6F6F"/>
<path d="M22.4925 29.8687C22.4823 29.8592 22.4598 29.8496 22.4557 29.8337C22.4434 29.7934 22.4741 29.769 22.4997 29.7456L22.9406 29.3571C23.0132 29.2923 23.0858 29.2276 23.1615 29.1649C23.1809 29.1501 23.2116 29.1299 23.2321 29.1649C23.2413 29.1798 23.2454 29.2138 23.2321 29.2212C22.9937 29.4335 22.7534 29.6458 22.516 29.8581C22.5119 29.8666 22.5119 29.8656 22.4925 29.8687Z" fill="#6F6F6F"/>
<path d="M24.4873 26.9951V26.2817C24.4873 26.5195 24.5793 26.7541 24.5483 26.993L24.4873 26.9951Z" fill="#6F6F6F"/>
<path d="M26.166 28.6554C26.2256 28.6145 26.2934 28.588 26.3642 28.5779C26.435 28.5677 26.5071 28.5743 26.5752 28.597C26.5187 28.6447 26.4506 28.6753 26.3785 28.6856C26.3063 28.6959 26.2328 28.6855 26.166 28.6554Z" fill="#6F6F6F"/>
<path d="M21.4153 28.3911L21.0706 28.4452C21.1729 28.3507 21.2925 28.3582 21.4071 28.3337L21.4153 28.3911Z" fill="#6F6F6F"/>
<path d="M26.7379 30.5418C26.6316 30.4898 26.5428 30.4058 26.4832 30.3008C26.5428 30.3107 26.5997 30.3342 26.6495 30.3696C26.6994 30.4051 26.7411 30.4515 26.7716 30.5057L26.7379 30.5418Z" fill="#6F6F6F"/>
<path d="M26.5159 30.3158C26.4057 30.2834 26.3123 30.2071 26.2561 30.1035C26.3594 30.1184 26.4259 30.1884 26.5159 30.3158Z" fill="#6F6F6F"/>
<path d="M25.3856 29.837C25.315 29.7892 25.2454 29.7404 25.1472 29.6714C25.1993 29.6677 25.2514 29.6778 25.2987 29.7009C25.346 29.7239 25.3868 29.7591 25.4173 29.803L25.3856 29.837Z" fill="#6F6F6F"/>
<path d="M25.4784 29.8677C25.5022 29.8675 25.5256 29.8746 25.5454 29.8882C25.5653 29.9019 25.5808 29.9213 25.5899 29.9441C25.5173 29.9802 25.4938 29.9282 25.4692 29.8804L25.4784 29.8677Z" fill="#6F6F6F"/>
<path d="M26.8472 30.6014C26.8251 30.6076 26.8016 30.6049 26.7813 30.5939C26.761 30.5829 26.7455 30.5643 26.7378 30.542L26.7716 30.5059C26.7918 30.5124 26.8095 30.5254 26.8223 30.5429C26.8352 30.5604 26.8424 30.5816 26.8432 30.6035L26.8472 30.6014Z" fill="#6F6F6F"/>
<path d="M25.4694 29.8812C25.453 29.8822 25.4366 29.8786 25.4218 29.8709C25.4071 29.8632 25.3946 29.8516 25.3855 29.8372L25.4172 29.803L25.4786 29.8683L25.4694 29.8812Z" fill="#6F6F6F"/>
<path d="M26.8433 30.6035C26.85 30.6061 26.8565 30.6094 26.8626 30.6134C26.8626 30.6134 26.8626 30.6232 26.8626 30.6287L26.8465 30.6013L26.8433 30.6035Z" fill="#6F6F6F"/>
<path d="M35.3613 31.2341C35.4769 30.5547 35.3296 29.8689 35.4278 29.1917C35.5577 29.284 35.5158 31.0133 35.3613 31.2341Z" fill="#F8F2EA"/>
<path d="M37.3837 26.7288C37.5925 26.3927 37.8254 26.0733 38.0804 25.7734C38.1059 25.7416 38.1397 25.7066 38.1827 25.7469C38.1891 25.7531 38.1942 25.7605 38.1977 25.7689C38.2012 25.7772 38.203 25.7861 38.203 25.7952C38.203 25.8043 38.2012 25.8133 38.1977 25.8216C38.1942 25.8299 38.1891 25.8373 38.1827 25.8435C37.9187 26.1407 37.7152 26.4974 37.3796 26.7246L37.3837 26.7288Z" fill="#6F6F6F"/>
<path d="M36.9652 26.2542C36.9284 26.4038 36.7954 26.4665 36.7023 26.5726C36.5448 26.7403 36.3811 26.9028 36.2134 27.0609C36.1632 27.1076 36.1162 27.1809 36.0292 27.1671C35.9955 27.113 36.0292 27.079 36.0589 27.0535C36.3317 26.8009 36.6045 26.55 36.8773 26.3009C36.9063 26.2832 36.9382 26.2713 36.9714 26.2658L36.9652 26.2542Z" fill="#6F6F6F"/>
<path d="M34.6216 29.1938C34.598 29.2059 34.5752 29.2193 34.5531 29.2341L33.9281 29.7861C33.8974 29.8127 33.8605 29.8583 33.8258 29.8212C33.791 29.784 33.8319 29.7331 33.8646 29.7033C34.0692 29.5186 34.282 29.336 34.4907 29.1524C34.5173 29.1301 34.5439 29.1014 34.5807 29.1184C34.593 29.1237 34.5981 29.1513 34.6216 29.1938Z" fill="#6F6F6F"/>
<path d="M35.8721 25.8477V26.9039H35.8318V25.8498L35.8721 25.8477Z" fill="#6F6F6F"/>
<path d="M38.0157 28.5429C37.8592 28.6215 37.7027 28.699 37.4807 28.6268C37.6495 28.553 37.8334 28.5242 38.0157 28.5429Z" fill="#6F6F6F"/>
<path d="M33.2007 28.49H33.751C33.6671 28.5393 33.5723 28.5652 33.4759 28.5652C33.3794 28.5652 33.2846 28.5393 33.2007 28.49Z" fill="#6F6F6F"/>
<path d="M37.8491 30.2468C37.9838 30.3056 38.093 30.4136 38.156 30.5504C38.0244 30.4887 37.9085 30.396 37.8174 30.2797L37.8491 30.2468Z" fill="#6F6F6F"/>
<path d="M32.8018 28.3115C32.6555 28.4177 32.5409 28.3901 32.3926 28.4113C32.5175 28.3397 32.6591 28.3051 32.8018 28.3115Z" fill="#6F6F6F"/>
<path d="M37.5575 30.0451C37.4603 29.9962 37.4133 29.9697 37.3765 29.8879C37.4655 29.8986 37.5002 29.9516 37.5575 30.0451Z" fill="#6F6F6F"/>
<path d="M37.7059 30.182C37.677 30.165 37.6493 30.1458 37.6231 30.1247C37.6108 30.1141 37.6088 30.0918 37.6006 30.0695C37.628 30.0662 37.6558 30.0722 37.6797 30.0865C37.7037 30.1008 37.7226 30.1228 37.7336 30.1491L37.7059 30.182Z" fill="#6F6F6F"/>
<path d="M37.7743 30.2415L37.7058 30.1821L37.7334 30.1492L37.804 30.2086L37.7743 30.2415Z" fill="#6F6F6F"/>
<path d="M37.8041 30.2085L37.8491 30.2462L37.8184 30.2787L37.7744 30.241L37.8041 30.2085Z" fill="#6F6F6F"/>
<path d="M37.3815 26.7266L37.3755 26.742L37.385 26.7289L37.3815 26.7266Z" fill="#6F6F6F"/>
<path d="M36.9674 26.2568C36.9694 26.2505 36.9723 26.2446 36.976 26.2393C36.976 26.2393 36.9846 26.2393 36.99 26.2393L36.9663 26.2557L36.9674 26.2568Z" fill="#6F6F6F"/>
<path d="M37.3224 29.8576L37.3181 29.8464L37.3288 29.8487L37.3224 29.8576Z" fill="#6F6F6F"/>
<path d="M56.0024 30.8604C56.1119 30.1842 55.9513 29.4974 56.0567 28.8201C56.1252 28.801 56.1457 28.8509 56.1385 28.9018C56.0536 29.5515 56.2459 30.2245 56.0024 30.8604Z" fill="#F8F2EA"/>
<path d="M57.5584 25.9549C57.3011 26.2381 57.03 26.5073 56.7462 26.7617C56.7185 26.7861 56.6838 26.8318 56.6439 26.7808C56.6193 26.7479 56.6388 26.7108 56.6643 26.6864L57.5113 25.8987L57.5584 25.9549Z" fill="#6F6F6F"/>
<path d="M55.2321 28.7892C55.2186 28.8149 55.2021 28.8387 55.183 28.8603C54.9784 29.0471 54.7646 29.234 54.5539 29.4187C54.5212 29.4484 54.4792 29.5036 54.4363 29.442C54.4066 29.3996 54.4496 29.3614 54.4802 29.3359L55.1134 28.7839C55.1523 28.7467 55.1891 28.7244 55.2321 28.7892Z" fill="#6F6F6F"/>
<path d="M58.2007 26.0866C58.3408 25.8254 58.5331 25.6375 58.6907 25.421C58.7203 25.3817 58.75 25.3339 58.8073 25.3711C58.8149 25.3757 58.8213 25.3822 58.826 25.3899C58.8308 25.3975 58.8337 25.4063 58.8346 25.4154C58.8355 25.4245 58.8343 25.4336 58.8312 25.4422C58.828 25.4507 58.823 25.4583 58.8165 25.4645C58.6395 25.6768 58.4902 25.9061 58.2825 26.0855C58.2713 26.0951 58.2447 26.0866 58.2007 26.0866Z" fill="#6F6F6F"/>
<path d="M56.5114 25.4719C56.4943 25.8479 56.5026 26.2245 56.5362 26.5993H56.4597V25.4751L56.5114 25.4719Z" fill="#6F6F6F"/>
<path d="M58.396 29.803C58.5763 29.9028 58.7288 30.049 58.839 30.2276C58.6624 30.1215 58.5021 29.9888 58.3633 29.8338L58.396 29.803Z" fill="#6F6F6F"/>
<path d="M58.1311 28.2532C58.3026 28.1759 58.49 28.1441 58.6763 28.1608C58.5981 28.218 58.5084 28.2561 58.414 28.2721C58.3195 28.2881 58.2228 28.2816 58.1311 28.2532Z" fill="#6F6F6F"/>
<path d="M54.3933 28.1194C54.1999 28.1878 54.0097 28.2414 53.8184 28.1194H54.3933Z" fill="#6F6F6F"/>
<path d="M57.2515 29.2766L57.5809 29.5356C57.5074 29.5312 57.4369 29.5042 57.3782 29.4581C57.3196 29.412 57.2755 29.3488 57.2515 29.2766Z" fill="#6F6F6F"/>
<path d="M53.0471 28.0248C53.1586 27.9597 53.2855 27.9284 53.4133 27.9346C53.2926 28.0567 53.1576 27.9856 53.0471 28.0248Z" fill="#6F6F6F"/>
<path d="M58.2478 29.7C58.2786 29.7051 58.3079 29.7173 58.3335 29.7357C58.3592 29.754 58.3806 29.7781 58.3961 29.8061L58.3634 29.8411C58.3082 29.8093 58.2417 29.7881 58.2498 29.701L58.2478 29.7Z" fill="#6F6F6F"/>
<path d="M57.9981 29.4906C57.9858 29.5 57.9756 29.5126 57.9704 29.5105C57.9592 29.5068 57.9497 29.499 57.9438 29.4885C57.9438 29.4811 57.95 29.4696 57.9541 29.4602L57.9981 29.4906Z" fill="#6F6F6F"/>
<path d="M58.082 29.5705L58.1434 29.6134C58.1362 29.6186 58.126 29.6312 58.1219 29.6301C58.0964 29.6186 58.0759 29.6019 58.0841 29.5684L58.082 29.5705Z" fill="#6F6F6F"/>
<path d="M57.8384 29.3721L57.8395 29.3852L57.8223 29.3786L57.8384 29.3721Z" fill="#6F6F6F"/>
<path d="M57.6278 25.8693L57.6331 25.8508L57.6257 25.866L57.6278 25.8693Z" fill="#6F6F6F"/>
<path d="M57.6254 25.8657L57.6042 25.8946C57.5851 25.8582 57.6143 25.8721 57.6274 25.8689L57.6254 25.8657Z" fill="#6F6F6F"/>
<path d="M58.25 29.6985L58.2241 29.6831C58.2293 29.6831 58.2355 29.6831 58.2386 29.6831C58.2425 29.6888 58.2456 29.6951 58.2479 29.7017L58.25 29.6985Z" fill="#6F6F6F"/>
<path d="M58.0836 29.5685H58.0513L58.0644 29.5471L58.0815 29.576L58.0836 29.5685Z" fill="#6F6F6F"/>
<defs>
<filter id="filter0_d_8058_358" x="0" y="0" width="83" height="82" filterUnits="userSpaceOnUse" color-interpolation-filters="sRGB">
<feFlood flood-opacity="0" result="BackgroundImageFix"/>
<feColorMatrix in="SourceAlpha" type="matrix" values="0 0 0 0 0 0 0 0 0 0 0 0 0 0 0 0 0 0 127 0" result="hardAlpha"/>
<feOffset dx="5" dy="4"/>
<feGaussianBlur stdDeviation="2"/>
<feComposite in2="hardAlpha" operator="out"/>
<feColorMatrix type="matrix" values="0 0 0 0 0 0 0 0 0 0 0 0 0 0 0 0 0 0 0.25 0"/>
<feBlend mode="normal" in2="BackgroundImageFix" result="effect1_dropShadow_8058_358"/>
<feBlend mode="normal" in="SourceGraphic" in2="effect1_dropShadow_8058_358" result="shape"/>
</filter>
</defs>
</svg>
