<svg width="126" height="125" viewBox="0 0 126 125" fill="none" xmlns="http://www.w3.org/2000/svg">
<g filter="url(#filter0_d_1_1467)">
<path d="M0 58.5437C0.213973 43.6772 5.16194 30.5876 15.1739 19.5151C23.3339 10.4926 33.4329 4.69723 45.1797 1.74918C48.8027 0.84013 52.4849 0.312176 56.2144 0.0997805C63.9258 -0.340788 71.4306 0.669 78.7081 3.30027C86.156 5.99345 92.7372 10.0969 98.4818 15.5585C103.371 20.2057 107.182 25.6333 110.279 31.6217C113.468 37.7896 115.54 44.2829 116.47 51.1608C116.887 54.2448 117.074 57.3421 116.973 60.4492C116.503 74.9151 111.494 87.5763 101.728 98.2337C93.4528 107.262 83.2704 113.064 71.3169 115.683C67.8885 116.434 64.4191 116.905 60.906 116.983C45.2014 117.331 31.3536 112.408 19.5452 102.005C10.1679 93.7418 4.2178 83.366 1.43495 71.1636C0.571802 67.3818 0.1088 63.5441 0.0556087 59.6603C0.0507732 59.3083 0.0217599 58.9576 0.00120888 58.5449L0 58.5437Z" fill="#464646"/>
<path d="M60.764 111.698C52.6476 111.846 45.0775 110.506 37.8182 107.524C32.6103 105.385 27.7445 102.646 23.5098 98.8859C16.5478 92.7058 11.4572 85.2294 8.25006 76.4678C6.84896 72.6423 5.91087 68.7015 5.4116 64.6599C4.91837 60.6766 4.76968 56.6762 5.31247 52.6941C6.04263 47.3393 7.60693 42.2164 9.94491 37.3422C14.5556 27.7298 21.358 20.0496 30.3255 14.3501C36.2635 10.5768 42.7262 8.06442 49.6531 6.79126C53.0634 6.16378 56.5027 5.86886 59.9674 5.90163C65.3348 5.9526 70.6068 6.69781 75.7034 8.3994C79.2527 9.58395 82.5578 11.3292 85.6864 13.3877C95.8398 20.069 103.041 29.1692 107.568 40.4335C109.533 45.321 110.756 50.3978 111.246 55.6507C111.483 58.1873 111.616 60.7299 111.403 63.2702C111.15 66.2874 110.546 69.2476 109.727 72.1617C107.298 80.8019 103.006 88.3935 96.8903 94.9341C90.4965 101.772 82.854 106.69 73.9953 109.66C71.3345 110.552 68.5589 110.994 65.7736 111.331C64.0159 111.543 62.2509 111.638 60.764 111.699V111.698Z" fill="#F8F2EA"/>
<path d="M60.4104 106.175C53.068 106.308 46.22 105.101 39.653 102.413C34.9419 100.485 30.5402 98.0164 26.7094 94.6274C20.4114 89.057 15.8063 82.3184 12.9051 74.4212C11.6376 70.9731 10.789 67.4211 10.3373 63.7783C9.89115 60.188 9.75664 56.5823 10.2477 52.9931C10.9082 48.1667 12.3233 43.5492 14.4383 39.1559C18.6092 30.4919 24.7628 23.5695 32.875 18.4323C38.2467 15.0313 44.093 12.7668 50.3592 11.6193C53.4442 11.0537 56.5555 10.7879 59.6897 10.8174C64.5452 10.8633 69.3143 11.535 73.9249 13.0687C77.1356 14.1364 80.1255 15.7095 82.9557 17.5648C92.1407 23.587 98.6552 31.7893 102.751 41.9422C104.528 46.3475 105.634 50.9234 106.077 55.658C106.292 57.9443 106.412 60.2361 106.22 62.5257C105.991 65.2453 105.444 67.9134 104.704 70.5399C102.506 78.3277 98.6235 85.1703 93.091 91.0655C87.3071 97.2288 80.3934 101.661 72.3796 104.338C69.9727 105.142 67.4618 105.541 64.9422 105.845C63.3521 106.036 61.7555 106.121 60.4104 106.176V106.175Z" fill="#464646"/>
<path d="M16.3023 23.1866C17.5366 21.32 18.9328 19.5771 20.4246 17.9168C21.2527 16.9956 22.2379 16.231 23.2522 15.3948C21.0568 18.1705 18.6729 20.6792 16.4051 23.2898C16.3156 23.3104 16.2685 23.2898 16.3023 23.1866Z" fill="#F8F2EA"/>
<path d="M93.7408 17.2192C96.4136 19.405 98.8399 21.8372 100.994 24.5401C101.012 24.6287 100.987 24.6736 100.889 24.6409C98.586 22.0873 96.1078 19.7084 93.6272 17.332C93.6102 17.2398 93.6417 17.1949 93.7396 17.2192H93.7408Z" fill="#F8F2EA"/>
<path d="M115.718 54.9066C116.009 57.1762 116.161 59.4518 115.94 61.736C115.858 62.5929 115.727 63.4449 115.619 64.2993C115.366 64.1804 115.534 63.985 115.532 63.8199C115.666 61.6984 115.789 59.5769 115.717 57.4493C115.689 56.6349 115.652 55.8205 115.619 55.0061C115.586 54.9078 115.628 54.8835 115.718 54.9054V54.9066Z" fill="#F8F2EA"/>
<path d="M65.5352 112.916C64.2937 113.077 63.0534 113.243 61.8107 113.398C60.6429 113.545 59.4715 113.668 58.3049 113.83C57.9966 113.874 57.7029 113.825 57.4031 113.818C57.3148 113.816 57.1492 113.895 57.1697 113.694C57.183 113.567 57.287 113.517 57.4115 113.509C57.8564 113.48 58.3001 113.434 58.7461 113.418C60.7517 113.348 62.7427 113.117 64.7313 112.861C64.9961 112.827 65.2632 112.785 65.5352 112.915V112.916Z" fill="#F8F2EA"/>
<path d="M36.7976 9.66007C39.196 8.30924 41.8181 7.54947 44.4232 6.74722C44.5272 6.71202 44.5526 6.75936 44.5345 6.85403C41.9595 7.74487 39.3955 8.66849 36.8979 9.76323C36.7988 9.79236 36.7746 9.74988 36.7976 9.66007Z" fill="#F8F2EA"/>
<path d="M91.0379 102.724C93.1329 100.882 95.2774 99.0931 97.2189 97.0759C96.7499 97.9959 92.3568 102.033 91.0379 102.724Z" fill="#F8F2EA"/>
<path d="M100.41 19.3987C101.326 20.0747 104.845 24.2231 105.336 25.1661C103.566 23.3553 102.175 21.2168 100.41 19.3987Z" fill="#F8F2EA"/>
<path d="M91.3197 13.7838C90.0504 13.0434 88.7823 12.3019 87.5129 11.5615C88.9116 12.0749 90.3913 12.4439 91.3197 13.7838Z" fill="#F8F2EA"/>
<path d="M16.012 26.2535C16.8812 24.9973 17.8629 23.8273 18.8372 22.6537C18.9049 22.5712 18.9629 22.377 19.1237 22.4983C19.3014 22.6331 19.1443 22.7411 19.0548 22.8479C18.0744 24.0179 17.094 25.1891 16.1148 26.3603C16.029 26.3749 15.9806 26.3518 16.0133 26.2535H16.012Z" fill="#F8F2EA"/>
<path d="M114.987 68.9525C114.734 70.6396 114.343 72.2938 113.812 73.9153C113.783 73.9505 113.753 73.9517 113.72 73.919C114.144 72.1676 114.576 70.4187 114.882 68.6406C115.11 68.6782 114.981 68.8385 114.987 68.9513V68.9525Z" fill="#F8F2EA"/>
<path d="M100.891 24.6405C100.926 24.6065 100.961 24.5738 100.996 24.5398C102.168 25.8918 103.191 27.3543 104.162 28.8557C104.195 28.9503 104.15 28.9661 104.07 28.9467C103.091 27.4514 101.98 26.0545 100.891 24.6405Z" fill="#F8F2EA"/>
<path d="M114.987 68.952C114.94 68.8525 115.008 68.7129 114.882 68.6413C115.099 67.0344 115.315 65.4275 115.531 63.8206C115.592 63.9747 115.499 64.1567 115.618 64.3C115.408 65.8511 115.198 67.4009 114.989 68.952H114.987Z" fill="#F8F2EA"/>
<path d="M113.251 75.7501C112.987 77.0863 112.428 78.3219 111.961 79.5889C111.879 79.8123 111.783 80.0307 111.694 80.2516C111.614 80.2625 111.557 80.254 111.61 80.1521C112.153 78.6653 112.724 77.1871 113.176 75.6687C113.212 75.6554 113.249 75.6432 113.273 75.6857C113.282 75.7027 113.269 75.727 113.252 75.7501H113.251Z" fill="#F8F2EA"/>
<path d="M114.081 43.4495C114.527 44.8416 114.956 46.2385 115.001 47.7144C114.694 46.2931 114.388 44.8719 114.081 43.4495Z" fill="#F8F2EA"/>
<path d="M56.1226 4.27347C57.1671 4.1716 58.2067 4.00665 59.2561 3.97876C59.2609 4.03697 59.2669 4.09398 59.2718 4.15219C58.2551 4.22738 57.2384 4.30258 56.2205 4.37777C56.1238 4.40324 56.096 4.36322 56.1214 4.27226L56.1226 4.27347Z" fill="#F8F2EA"/>
<path d="M4.36458 58.4841V61.3521C4.3138 61.3521 4.26303 61.3496 4.21226 61.3484C3.99708 60.3168 4.37425 59.3046 4.36458 58.4841Z" fill="#F8F2EA"/>
<path d="M7.33975 40.9659C7.14874 41.4878 6.9529 42.0097 6.76794 42.534C6.71959 42.6711 6.66156 42.7816 6.50199 42.7173C6.29648 42.6335 6.45242 42.5146 6.49836 42.4199C6.73409 41.932 6.97587 41.449 7.21644 40.9635C7.25875 40.9234 7.29985 40.9246 7.34096 40.9671L7.33975 40.9659Z" fill="#F8F2EA"/>
<path d="M47.1071 5.30279C46.1787 5.53444 45.2514 5.76608 44.323 5.99894C45.1608 5.52958 46.0844 5.36707 47.0079 5.20213C47.1022 5.17545 47.13 5.21426 47.1071 5.304V5.30279Z" fill="#F8F2EA"/>
<path d="M6.46644 73.5402C6.02157 72.6397 5.89584 71.6493 5.76649 70.6589C5.99981 71.619 6.23312 72.5802 6.46644 73.5402Z" fill="#F8F2EA"/>
<path d="M16.0117 26.2537C16.0456 26.2889 16.0794 26.3253 16.1133 26.3605C15.689 26.9467 15.2646 27.5341 14.8403 28.1203C14.8041 28.096 14.769 28.0718 14.7327 28.0475C15.1425 27.4394 15.5318 26.8168 16.0117 26.2537Z" fill="#F8F2EA"/>
<path d="M23.7286 100.585C24.2968 101.037 24.8649 101.489 25.4331 101.942C24.5446 101.531 23.9945 101.09 23.7286 100.585Z" fill="#F8F2EA"/>
<path d="M67.9643 3.42397C67.3188 3.37545 66.672 3.32573 65.9794 3.27358C66.6914 2.90004 67.3248 3.33907 67.9764 3.30511C67.9716 3.34392 67.968 3.38394 67.9631 3.42275L67.9643 3.42397Z" fill="#F8F2EA"/>
<path d="M79.8075 8.28027C80.5534 8.37608 81.2001 8.66352 81.7889 9.09528C81.1288 8.82361 80.4676 8.55194 79.8075 8.28027Z" fill="#F8F2EA"/>
<path d="M44.5344 6.85372C44.4969 6.81854 44.4607 6.78216 44.4232 6.74699C44.9648 6.49715 45.5438 6.38921 46.1132 6.24731C46.1253 6.28612 46.1374 6.32493 46.1495 6.36374C45.6103 6.52747 45.0724 6.68999 44.5332 6.85372H44.5344Z" fill="#F8F2EA"/>
<path d="M71.2401 112.449C71.7007 112.312 72.1613 112.174 72.6219 112.037C72.3475 112.515 71.8421 112.406 71.4396 112.554C71.3404 112.58 71.228 112.635 71.2401 112.449Z" fill="#F8F2EA"/>
<path d="M62.3221 114.5C63.0607 114.487 63.7897 114.276 64.5356 114.417C63.7969 114.431 63.0704 114.673 62.3221 114.5Z" fill="#F8F2EA"/>
<path d="M22.0677 97.6489C22.4872 98.0443 22.9079 98.4409 23.3274 98.8363C23.3008 98.8642 23.273 98.8933 23.2464 98.9212C22.7822 98.5707 22.376 98.1607 22.0677 97.6489Z" fill="#F8F2EA"/>
<path d="M24.5966 100.08C24.1505 99.7733 23.7467 99.4203 23.4058 98.9971C23.8725 99.2772 24.2798 99.6289 24.6643 100.01C24.6739 100.063 24.651 100.087 24.5966 100.08Z" fill="#F8F2EA"/>
<path d="M8.90542 81.5407C8.61045 81.0564 8.41703 80.5333 8.34087 79.9617C8.55364 80.4666 8.7664 80.9727 8.97916 81.4776C8.97916 81.5273 8.95499 81.548 8.90663 81.5419L8.90542 81.5407Z" fill="#F8F2EA"/>
<path d="M93.7413 17.2185C93.7039 17.2561 93.6664 17.2937 93.6289 17.3313C93.34 17.0669 93.0511 16.8025 92.7633 16.5381C93.1635 16.6703 93.4718 16.9189 93.7425 17.2185H93.7413Z" fill="#F8F2EA"/>
<path d="M104.07 28.9472C104.1 28.9168 104.132 28.8865 104.162 28.8562C104.477 29.2079 104.694 29.6178 104.845 30.0739C104.586 29.6979 104.329 29.3219 104.07 28.9472Z" fill="#F8F2EA"/>
<path d="M47.1071 5.30293C47.0745 5.26897 47.0407 5.23501 47.008 5.20106C47.4759 5.04582 47.9509 4.92696 48.4466 4.9209C48.4575 4.93303 48.4671 4.94637 48.478 4.9585C48.0392 5.14769 47.5677 5.20106 47.1071 5.30172V5.30293Z" fill="#F8F2EA"/>
<path d="M31.6033 104.937C31.9491 105.139 32.296 105.342 32.6418 105.543C32.2223 105.475 31.8693 105.279 31.6033 104.937Z" fill="#F8F2EA"/>
<path d="M71.24 112.45C71.2642 112.566 71.373 112.519 71.4395 112.554C71.026 112.651 70.6138 112.75 70.2004 112.847C70.5171 112.616 70.8749 112.522 71.24 112.45Z" fill="#F8F2EA"/>
<path d="M115.717 54.9057C115.685 54.9397 115.652 54.9724 115.618 55.0064C115.49 54.6535 115.525 54.2933 115.612 53.9282L115.717 54.9057Z" fill="#F8F2EA"/>
<path d="M26.0679 101.239C25.7488 101.049 25.4454 100.838 25.1915 100.564C25.1891 100.517 25.2133 100.5 25.258 100.511C25.5747 100.649 25.7996 100.91 26.0655 101.116C26.1078 101.156 26.109 101.197 26.0679 101.239Z" fill="#F8F2EA"/>
<path d="M36.7978 9.66015C36.8316 9.69411 36.8643 9.72928 36.8981 9.76324C36.643 9.94152 36.3602 10.0531 36.0519 10.1016C36.2707 9.89907 36.5173 9.75111 36.7966 9.65894L36.7978 9.66015Z" fill="#F8F2EA"/>
<path d="M56.1227 4.27368C56.1553 4.30898 56.1892 4.34428 56.2218 4.37958C55.9039 4.5427 55.5726 4.46358 55.2366 4.38811C55.5315 4.35037 55.8277 4.31142 56.1227 4.27368Z" fill="#F8F2EA"/>
<path d="M7.33933 40.9652C7.29823 40.9652 7.25592 40.9627 7.21482 40.9615C7.33691 40.6911 7.45901 40.4206 7.58111 40.1514C7.57265 40.4521 7.52429 40.7335 7.33933 40.9652Z" fill="#F8F2EA"/>
<path d="M9.37524 35.7427C9.52151 35.4431 9.66779 35.1423 9.81406 34.8428C9.85033 34.8598 9.8878 34.8767 9.92407 34.8937C9.78505 35.1969 9.69801 35.5244 9.37524 35.7427Z" fill="#F8F2EA"/>
<path d="M112.403 44.7058C112.331 44.4196 112.26 44.1334 112.189 43.8472C112.398 44.0594 112.487 44.3117 112.491 44.593C112.537 44.6901 112.491 44.7155 112.401 44.7058H112.403Z" fill="#F8F2EA"/>
<path d="M111.61 80.1523C111.637 80.1851 111.665 80.219 111.693 80.2518C111.604 80.5053 111.503 80.7527 111.262 81.0219C111.351 80.6629 111.459 80.3998 111.61 80.1523Z" fill="#F8F2EA"/>
<path d="M16.302 23.1868C16.3359 23.2207 16.3709 23.2559 16.4048 23.2899C16.2899 23.5518 16.082 23.7374 15.8692 23.9242C15.9551 23.6428 16.0929 23.3942 16.302 23.1868Z" fill="#F8F2EA"/>
<path d="M8.97752 81.4775C9.12984 81.7444 9.2737 82.0124 9.30513 82.3301C9.12138 82.0924 8.97148 81.839 8.90499 81.5418C8.92917 81.52 8.95335 81.4994 8.97752 81.4775Z" fill="#F8F2EA"/>
<path d="M26.0676 101.24C26.0676 101.199 26.0664 101.157 26.0652 101.116C26.3046 101.254 26.5234 101.418 26.689 101.653C26.4581 101.553 26.226 101.456 26.0676 101.241V101.24Z" fill="#F8F2EA"/>
<path d="M111.632 41.5311C111.446 41.3261 111.307 41.1042 111.357 40.7197C111.472 41.0581 111.553 41.2946 111.632 41.5311Z" fill="#F8F2EA"/>
<path d="M112.403 44.7063C112.433 44.6687 112.462 44.6311 112.492 44.5935C112.613 44.8191 112.648 45.0629 112.611 45.3248C112.542 45.1186 112.472 44.9125 112.403 44.7063Z" fill="#F8F2EA"/>
<path d="M113.72 73.9187C113.752 73.932 113.782 73.9296 113.812 73.915C113.743 74.1358 113.674 74.3577 113.564 74.7106C113.526 74.3286 113.589 74.1164 113.72 73.9199V73.9187Z" fill="#F8F2EA"/>
<path d="M48.4463 4.92248C48.6977 4.79466 48.9613 4.73867 49.3421 4.78371C48.9903 4.85553 48.7497 4.97847 48.4777 4.96021C48.4668 4.94804 48.4572 4.93465 48.4463 4.92248Z" fill="#F8F2EA"/>
<path d="M25.1913 100.564C24.993 100.402 24.7948 100.242 24.5965 100.081C24.6195 100.058 24.6413 100.034 24.6642 100.011C24.8903 100.144 25.0898 100.309 25.2578 100.51C25.2288 100.519 25.207 100.537 25.1913 100.564Z" fill="#F8F2EA"/>
<path d="M113.252 75.7497C113.226 75.7231 113.201 75.6952 113.175 75.6685C113.236 75.4575 113.296 75.2464 113.357 75.0354C113.389 75.2877 113.399 75.5339 113.25 75.7497H113.252Z" fill="#F8F2EA"/>
</g>
<path d="M57.7488 27.8265C64.7297 27.8265 70.0221 29.6124 74.8683 32.8703C78.6576 35.4156 81.7123 38.6353 83.8596 42.6949C85.7484 46.2004 86.8278 50.0901 87.0174 54.0742C87.2889 60.2082 85.5921 65.7844 82.2154 70.8643C81.0856 72.5801 79.7554 74.1532 78.2534 75.5496C78.1984 75.5856 78.1514 75.6327 78.1153 75.688C78.0793 75.7433 78.0551 75.8055 78.0442 75.8707C78.0333 75.936 78.036 76.0027 78.0521 76.0669C78.0682 76.131 78.0973 76.191 78.1377 76.2432C78.3505 76.6287 78.6115 76.9851 78.9145 77.3037C78.9536 77.3542 79.0043 77.3945 79.0622 77.4211C79.1201 77.4476 79.1835 77.4598 79.2471 77.4564C80.346 77.3822 81.1733 77.9039 81.8996 78.6696C83.5606 80.4174 83.8343 83.4038 82.5059 85.4187C81.0323 87.6416 78.1861 88.0488 76.1651 86.3223C76.0319 86.2157 75.9054 86.1009 75.7861 85.9787C75.7664 85.9452 75.7388 85.9171 75.7059 85.8968C75.6729 85.8765 75.6356 85.8645 75.597 85.862C75.5585 85.8595 75.5199 85.8665 75.4846 85.8824C75.4493 85.8983 75.4184 85.9226 75.3946 85.9532C73.0094 87.9279 70.1611 88.8739 67.2348 89.6375C66.5233 89.8241 65.797 89.9641 65.0728 90.1062C64.9701 90.1122 64.8732 90.1559 64.8003 90.2289C64.7274 90.302 64.6835 90.3994 64.677 90.5028C64.4918 91.4863 64.1551 92.4345 63.6792 93.3132C62.416 95.7693 60.1172 96.3463 57.8878 95.8584C56.1783 95.4894 54.9405 94.4501 53.9805 93.0311C53.4773 92.3029 53.0664 91.5141 52.7574 90.6831C52.7238 90.5764 52.6573 90.4833 52.5676 90.4173C52.4778 90.3513 52.3696 90.3159 52.2585 90.3162C49.3491 89.8602 46.5576 89.0436 44.004 87.5249C43.5084 87.2452 43.0453 86.9108 42.623 86.528C42.3977 86.3159 42.2567 86.3435 42.0251 86.528C40.6883 87.5695 39.2105 88.2355 37.48 88.1845C36.506 88.1868 35.5591 87.8613 34.7895 87.2598C33.598 86.2947 33.337 84.9691 33.4696 83.514C33.7622 80.2646 36.5895 78.4618 39.0105 78.29C39.1293 78.2943 39.2458 78.256 39.3391 78.1817C39.4324 78.1075 39.4965 78.0023 39.5199 77.8849C39.6652 77.4225 39.9683 76.958 39.941 76.5083C39.9136 76.0586 39.3326 75.8572 38.9915 75.556C34.6148 71.666 31.6928 66.8873 30.3602 61.1563C29.3252 56.6803 29.5217 52.0045 30.9286 47.6327C32.0974 43.7477 34.1111 40.174 36.8232 37.1718C40.6125 33.0103 45.2734 30.3209 50.6796 28.8998C53.3616 28.1998 56.0962 27.8414 57.7488 27.8265ZM86.0848 55.5632C86.0763 54.8746 86.0476 54.1888 85.9985 53.5058C85.8843 51.5548 85.5307 49.6255 84.9459 47.7621C82.8196 41.2526 78.8724 36.1685 73.0831 32.5734C69.8944 30.6207 66.3479 29.3354 62.6553 28.7943C58.9627 28.2531 55.1998 28.4672 51.5911 29.4237C42.9345 31.7929 36.5011 36.8812 32.8801 45.255C30.6655 50.3836 30.3707 55.7307 31.6065 61.1627C32.3 64.1593 33.4854 67.0182 35.1137 69.6213C36.6181 72.0849 38.5142 74.2826 40.7262 76.1265C41.002 76.3556 41.0736 76.5507 40.9367 76.8795C40.656 77.5214 40.3985 78.1705 40.1641 78.8266C40.0736 79.0769 39.9536 79.1278 39.6968 79.0981C37.7242 78.886 36.1579 79.6453 34.9222 81.1597C34.5922 81.5543 34.374 82.0314 34.2906 82.5405C34.0043 84.3349 35.4548 86.9416 38.2294 87.0159C39.8715 87.0583 41.1957 86.3796 42.3472 85.2851C42.5472 85.0921 42.6756 85.0497 42.9009 85.2321C43.3631 85.6111 43.8625 85.9416 44.3913 86.2184C46.9849 87.5694 49.6859 88.63 52.5721 89.1284C53.2626 89.2472 53.73 89.4169 53.6921 90.2207C53.7073 90.3773 53.7398 90.5317 53.7889 90.681C54.4352 94.2061 58.1614 95.7715 61.0919 93.731C62.4834 92.766 63.1971 91.3682 63.5086 89.7435C63.576 89.402 63.6539 89.2493 64.0349 89.1963C64.8602 89.0796 65.6812 88.8993 66.4938 88.7042C69.5653 87.9661 72.4599 86.7953 75.0241 84.9097C75.3377 84.6764 75.4451 84.7315 75.6556 85.0136C76.5987 86.2523 77.8619 86.8186 79.3881 86.5344C80.9628 86.2417 82.2491 85.5099 82.6954 83.7919C82.804 83.3923 82.8745 82.9833 82.9059 82.5702C83.0049 81.1173 82.6259 79.8786 81.2933 79.0981C80.4743 78.6082 79.5406 78.3468 78.5882 78.3409C78.3966 78.3409 78.2029 78.3409 78.0682 78.1288C77.6577 77.4776 77.2408 76.8307 76.883 76.1477C76.8525 76.1062 76.8308 76.0588 76.8192 76.0085C76.8076 75.9582 76.8063 75.9061 76.8153 75.8552C76.8244 75.8044 76.8437 75.756 76.8719 75.7129C76.9002 75.6698 76.9369 75.633 76.9798 75.6048C77.4724 75.153 77.9482 74.6821 78.4113 74.1985C83.3964 69.0084 85.9816 62.8044 86.0848 55.5632Z" fill="#F8F2EA"/>
<path d="M24.133 35.5959C24.4386 35.5889 24.7421 35.6497 25.0218 35.774C25.3015 35.8983 25.5506 36.0831 25.7515 36.3152C25.9524 36.5474 26.1001 36.8213 26.1842 37.1174C26.2684 37.4135 26.2868 37.7246 26.2382 38.0287C26.1561 38.7845 25.8748 39.5043 25.4235 40.1137C24.4699 41.3608 22.8425 41.3736 21.912 40.1137C21.2805 39.2653 20.9942 38.3447 21.51 37.3118C22.0573 36.2195 22.8931 35.598 24.133 35.5959ZM22.0215 38.0075C22.0226 38.3063 22.1033 38.5993 22.2552 38.8559C22.7036 39.6683 23.533 39.821 24.2257 39.2207C24.6185 38.8882 24.8849 38.4287 24.9793 37.9205C25.1119 37.2312 24.9014 36.86 24.2425 36.6479C23.1752 36.3107 22.0236 37.0148 22.0215 38.0075Z" fill="#464646"/>
<path d="M93.3225 43.1425C93.3225 44.5127 92.2699 45.622 91.0067 45.6071C89.7899 45.5944 88.7163 44.43 88.7268 43.1383C88.7394 41.942 89.5836 41.2293 91.0025 41.2103C91.9625 41.2018 93.514 42.1944 93.3225 43.1425ZM90.1983 44.3854C90.2804 44.3409 90.2699 44.2836 90.2194 44.22C90.0368 43.9389 89.9199 43.6197 89.8776 43.2864C89.8353 42.9532 89.8687 42.6146 89.9752 42.2962C89.3163 42.7204 89.432 43.7385 90.1562 44.2773L90.2026 44.3833H90.2173L90.1983 44.3854ZM91.373 42.3217C90.5457 42.3217 90.2868 42.6229 90.4236 43.3355C90.4607 43.5163 90.5238 43.6907 90.611 43.8531C90.8215 44.2327 91.3604 44.5042 91.6741 44.4045C92.0762 44.2751 92.4804 43.6516 92.4635 43.1828C92.4467 42.6483 92.2909 42.4829 91.6867 42.3683C91.5583 42.3408 91.4088 42.3259 91.373 42.3217Z" fill="#464646"/>
<path d="M61.0792 18.6871C62.2855 18.6871 63.1023 19.4379 63.1192 20.5642C63.1381 21.7689 62.3339 22.7149 61.2813 22.7213C60.1951 22.7213 59.1761 21.6247 59.1761 20.4518C59.1761 19.3594 59.9024 18.6871 61.0792 18.6871ZM60.315 19.6649C59.9277 19.983 59.8687 20.1612 59.9887 20.6596C60.0393 20.4963 60.0772 20.333 60.1403 20.1824C60.2035 20.0318 60.294 19.8833 60.374 19.7349C60.4098 19.7221 60.4498 19.6988 60.4161 19.6585C60.3824 19.6182 60.3508 19.6606 60.315 19.6649ZM61.5003 19.7603C60.8961 19.7603 60.4182 20.1845 60.4266 20.6872C60.455 20.9441 60.5746 21.182 60.7634 21.3571C60.9522 21.5321 61.1975 21.6324 61.454 21.6395C61.9866 21.6395 62.4518 21.0541 62.4497 20.403C62.4476 20.0212 62.0603 19.7667 61.5003 19.7667V19.7603Z" fill="#464646"/>
<path d="M94.0845 50.7654C94.0845 51.4017 93.5561 52.038 93.013 52.0571C92.4214 52.072 91.6509 51.3423 91.6341 50.7485C91.6172 50.1546 92.3056 49.4461 92.9603 49.4249C93.5224 49.4037 94.0719 50.0612 94.0845 50.7654ZM92.2972 50.7188C92.2972 51.0327 92.6193 51.3975 92.8909 51.3932C93.0538 51.3733 93.204 51.2947 93.3139 51.1719C93.4238 51.0491 93.4859 50.8904 93.4888 50.7251C93.4888 50.3136 93.2782 50.0379 92.9477 50.0443C92.777 50.0604 92.6175 50.1371 92.4976 50.2606C92.3777 50.3841 92.3052 50.5464 92.293 50.7188H92.2972Z" fill="#464646"/>
<path d="M86.0848 55.5632C85.9879 62.8044 83.4028 69.0084 78.4176 74.2113C77.9545 74.6949 77.4787 75.1658 76.9861 75.6175C76.9432 75.6458 76.9065 75.6826 76.8783 75.7257C76.85 75.7688 76.8307 75.8172 76.8216 75.868C76.8126 75.9188 76.8139 75.971 76.8255 76.0213C76.8372 76.0716 76.8589 76.119 76.8893 76.1605C77.2472 76.8435 77.664 77.4904 78.0745 78.1416C78.2092 78.3537 78.4029 78.3537 78.5945 78.3537C79.5469 78.3596 80.4806 78.621 81.2997 79.1109C82.6322 79.8914 83.0112 81.1301 82.9122 82.583C82.8808 82.996 82.8103 83.4051 82.7017 83.8047C82.2554 85.5227 80.9691 86.2545 79.3945 86.5472C77.8682 86.8314 76.6051 86.2651 75.6619 85.0264C75.4514 84.7443 75.3419 84.6892 75.0304 84.9225C72.4662 86.8166 69.5716 87.9789 66.5001 88.717C65.6875 88.9121 64.8665 89.0924 64.0413 89.2091C63.6602 89.2621 63.5823 89.4212 63.515 89.7563C63.2034 91.381 62.4897 92.7788 61.0982 93.7438C58.1678 95.7779 54.4416 94.2189 53.7953 90.6938C53.7461 90.5445 53.7137 90.3901 53.6984 90.2335C53.7363 89.4297 53.2774 89.26 52.5785 89.1412C49.6922 88.6428 46.9913 87.5822 44.3977 86.2312C43.8688 85.9544 43.3694 85.6239 42.9072 85.2449C42.6819 85.0625 42.5535 85.1049 42.3535 85.2979C41.202 86.3987 39.8778 87.0711 38.2357 87.0287C35.4611 86.9544 34.0106 84.3477 34.2969 82.5533C34.3803 82.0442 34.5985 81.5671 34.9285 81.1725C36.1642 79.6581 37.7305 78.8924 39.7031 79.1109C39.9578 79.1406 40.0799 79.0897 40.1704 78.8394C40.4076 78.1833 40.6651 77.5342 40.943 76.8923C41.082 76.5656 41.0104 76.3684 40.7325 76.1393C38.5205 74.2954 36.6244 72.0977 35.1201 69.6341C33.4917 67.031 32.3063 64.1721 31.6128 61.1755C30.377 55.7372 30.6718 50.3901 32.8864 45.2678C36.5074 36.894 42.9409 31.8056 51.5974 29.4365C55.2061 28.4799 58.9691 28.2659 62.6617 28.807C66.3542 29.3482 69.9007 30.6335 73.0894 32.5862C78.8787 36.1919 82.8259 41.2654 84.9522 47.7748C85.5371 49.6383 85.8906 51.5676 86.0048 53.5186C86.0455 54.1931 86.0721 54.8746 86.0848 55.5632ZM40.5136 73.7807L40.543 73.8083L40.5073 73.785L40.423 73.7001C40.4114 73.6597 40.3907 73.6224 40.3626 73.5912C40.3345 73.5599 40.2998 73.5355 40.2609 73.5198L40.1767 73.435L40.0988 73.3417L40.0188 73.2484L39.9389 73.1572L39.8525 73.0723L39.7683 72.9875L39.682 72.9026C39.6568 72.839 39.5873 72.7542 39.5494 72.7881C39.4631 72.8645 39.5704 72.9132 39.6168 72.9684L39.701 73.0681L39.7768 73.1423L39.8694 73.2356L39.9557 73.3184L40.042 73.3989L40.1388 73.4689L40.2209 73.5623C40.2631 73.6514 40.3052 73.7383 40.4315 73.6938C40.423 73.7574 40.4588 73.7786 40.5136 73.7807ZM33.6948 46.9158C33.7106 46.9098 33.725 46.9006 33.737 46.8888C33.7491 46.8769 33.7586 46.8626 33.7649 46.8469C33.7713 46.8312 33.7743 46.8143 33.7738 46.7973C33.7733 46.7803 33.7694 46.7636 33.7622 46.7483C33.7622 46.7377 33.7412 46.7313 33.7285 46.7249C33.718 46.7886 33.7096 46.8543 33.699 46.9179C33.6317 46.9285 33.6169 46.9731 33.6296 47.0325C33.6296 47.0325 33.6485 47.0494 33.659 47.0579L33.6948 46.9158ZM54.1931 82.8439C54.1195 82.933 53.9995 83.0072 54.0731 83.1599C54.2058 83.1239 54.231 83.0093 54.2837 82.9118C54.3174 82.8651 54.351 82.8142 54.2837 82.7718C54.2689 82.7739 54.2226 82.8248 54.1931 82.8502V82.8439ZM70.0053 32.8237C69.9779 32.8013 69.949 32.7808 69.919 32.7622C69.919 32.7622 69.9 32.7792 69.8895 32.7898L69.9821 32.8428C70.0206 32.8996 70.075 32.9436 70.1383 32.9693C70.2016 32.995 70.2711 33.0011 70.3379 32.987C70.2116 32.9043 70.1274 32.828 70.0053 32.8301V32.8237ZM69.5085 32.6265C69.6074 32.6795 69.6832 32.8004 69.8284 32.7325C69.8015 32.6856 69.7629 32.6466 69.7163 32.6194C69.6698 32.5922 69.617 32.5779 69.5632 32.5777C69.5196 32.5235 69.4639 32.4806 69.4005 32.4525C69.3372 32.4245 69.2681 32.4121 69.199 32.4165C69.2642 32.5777 69.399 32.5862 69.5085 32.6328V32.6265ZM37.3579 70.0096L37.2968 69.9332C37.2968 69.9544 37.2737 69.982 37.28 69.9968C37.3031 70.0456 37.3368 70.0223 37.3663 69.9968C37.2926 70.2089 37.4926 70.2704 37.5768 70.4019C37.7062 70.6331 37.8639 70.8469 38.0463 71.0382C38.061 71.087 38.0084 71.1973 38.1073 71.1676C38.1684 71.1507 38.1284 71.0531 38.0926 70.9937C37.9711 70.7581 37.8134 70.5433 37.6252 70.3574C37.5827 70.2117 37.4872 70.0876 37.3579 70.0096ZM73.9883 80.5638C74.0752 80.505 74.1437 80.4226 74.1858 80.326C74.228 80.2295 74.242 80.1229 74.2262 80.0187C74.1483 80.2032 73.942 80.3305 73.9946 80.5723C73.9525 80.5404 73.9252 80.551 73.9125 80.5998C73.9125 80.6126 73.9231 80.6274 73.9294 80.6401L73.9883 80.5638ZM59.8414 84.5025C59.5412 84.8318 59.2901 85.2033 59.0961 85.6055C59.1488 85.6055 59.1909 85.6309 59.2014 85.6203C59.4579 85.2822 59.686 84.9232 59.8835 84.5471C59.9172 84.5153 59.9656 84.4834 59.9003 84.4389C59.8961 84.4368 59.8603 84.4813 59.8393 84.5025H59.8414ZM73.2557 34.8705C73.3516 34.9828 73.4834 35.0578 73.6283 35.0826C73.5606 34.9574 73.4509 34.8604 73.3189 34.809C72.8052 34.3954 72.3336 33.9161 71.58 33.7697L73.2557 34.8705ZM32.8928 50.1801C33.1299 49.1988 33.3692 48.216 33.6106 47.2319C33.2029 48.1805 32.9198 49.1788 32.7686 50.2013C32.7117 50.7612 32.537 51.3106 32.6022 51.8833C32.7054 51.317 32.8001 50.7485 32.8928 50.1801ZM53.8942 83.4908C53.3847 83.915 53.1005 84.5216 52.6816 85.0201C52.47 85.3122 52.3261 85.6486 52.2606 86.0042C52.9035 85.2478 53.4534 84.416 53.8984 83.5268L53.8942 83.4908ZM84.4554 59.7014C84.7057 58.1539 84.7967 56.5845 84.7269 55.0181C84.5957 55.4116 84.5247 55.8228 84.5164 56.2377C84.569 57.4107 84.3922 58.5709 84.3059 59.7268C84.2743 59.9156 84.2069 60.1065 84.3375 60.2931C84.3817 60.0938 84.508 59.9177 84.4554 59.7014ZM49.3701 85.2831C50.1851 84.3582 50.8981 83.3469 51.4964 82.267C51.5532 82.1651 51.789 82.0252 51.5638 81.8979C51.3932 81.8025 51.1911 81.7346 51.0396 82.0209C50.8075 82.4294 50.5531 82.8245 50.2775 83.2045C49.8658 83.8349 49.5507 84.5242 49.3428 85.2491C49.3264 85.2772 49.3116 85.3063 49.2986 85.3361C49.2986 85.3361 49.3133 85.3552 49.3217 85.3637L49.3701 85.2831ZM71.1379 79.7345C70.9717 79.7894 70.8205 79.8826 70.6962 80.0067C70.572 80.1308 70.4781 80.2823 70.4221 80.4492C69.8158 81.7961 69.1421 83.1133 68.4285 84.4071C68.218 84.8016 67.8853 85.1431 67.8096 85.6118C67.697 85.8629 67.6259 86.1309 67.599 86.4051C67.9359 86.0721 68.2474 85.8133 68.3864 85.4124C68.9017 84.9665 69.2959 84.3957 69.5316 83.7538C70.0039 82.4047 70.5572 81.0859 71.1884 79.8044C71.2284 79.7896 71.2642 79.7641 71.2326 79.7238C71.201 79.6835 71.1673 79.7302 71.1379 79.7345ZM75.5441 74.2622C75.6556 74.1837 75.723 74.1371 75.7883 74.0883C77.8934 72.5399 79.4197 70.4825 80.6891 68.2364C83.3691 63.4704 84.2848 58.3524 83.5375 52.9417C82.8165 47.3362 80.2126 42.1483 76.1588 38.2408C74.7202 36.7989 73.12 35.5305 71.3905 34.4612C65.6075 30.9763 59.3909 29.7461 52.7595 30.9615C47.3828 31.9456 42.7598 34.4399 39.1326 38.5463C33.5833 44.8266 31.9012 52.1781 33.7748 60.3292C34.9411 65.4048 37.5642 69.6765 41.2693 73.2887C41.9678 73.9761 42.7127 74.614 43.4987 75.1976C43.4325 74.8424 43.4176 74.4795 43.4545 74.1201C43.7029 72.8475 44.484 71.9885 45.4987 71.2907C46.7407 70.4316 48.1344 69.912 49.5701 69.5069C53.2064 68.4805 56.9641 67.9561 60.7403 67.9479C60.8582 67.9479 61.0519 67.8164 61.0792 68.0561C61.1024 68.2682 60.8919 68.2321 60.7782 68.2915C60.7106 68.3151 60.639 68.3245 60.5677 68.3191C58.9381 68.3592 57.3122 68.4952 55.6984 68.7263C53.0058 69.1272 50.3912 69.7868 47.9554 71.0489C47.0039 71.5409 46.0966 72.0924 45.4292 72.9578C45.2134 73.2155 45.0575 73.5186 44.973 73.8448C44.8885 74.1711 44.8775 74.5123 44.9408 74.8434C45.1282 75.8169 45.806 76.4235 46.5639 76.9517C47.7576 77.7852 49.107 78.2625 50.5027 78.6082C54.2405 79.5329 58.1102 79.7899 61.9361 79.3675C65.7254 78.9539 69.3232 77.9358 72.6936 76.1181C73.0319 75.937 73.3029 75.6506 73.4662 75.3015C73.6806 74.8653 73.8004 74.3881 73.8178 73.9016C73.8641 72.7181 73.1104 72.0033 72.2852 71.3373C72.2497 71.3143 72.2097 71.2993 72.1679 71.2934C72.1261 71.2876 72.0835 71.291 72.0431 71.3034C71.3273 71.4009 70.6116 71.5155 69.8937 71.5982C68.2601 71.7955 66.6243 71.9673 64.9802 71.7382C64.4286 71.6472 63.9159 71.3941 63.5065 71.0107C63.1234 70.6756 63.176 70.3404 63.6265 70.1092C64.0423 69.9215 64.4954 69.8329 64.9507 69.8505C66.9355 69.8107 68.9154 69.6357 70.8768 69.3266C72.2747 69.1039 73.6136 68.6033 75.0367 68.4782C75.2072 68.4654 75.4241 68.3361 75.5125 68.5906C75.5377 68.6452 75.5519 68.7042 75.5544 68.7644C75.557 68.8245 75.5477 68.8846 75.5272 68.9411C75.5066 68.9976 75.4752 69.0495 75.4348 69.0938C75.3944 69.1382 75.3456 69.174 75.2914 69.1993C74.9598 69.3924 74.6064 69.5447 74.2388 69.6532C72.3252 70.2365 70.3442 70.3871 68.3716 70.6119C67.5085 70.7095 66.6391 70.6289 65.7317 70.6946C65.7895 70.7493 65.8578 70.7915 65.9324 70.8185C66.007 70.8455 66.0863 70.8567 66.1654 70.8516C67.1628 70.9888 68.1716 71.0222 69.1758 70.9513C70.8768 70.8283 72.5631 70.6374 74.1799 70.052C74.2978 70.0095 74.4367 70.0265 74.5525 69.9841C74.8157 69.8887 74.8662 70.1283 74.9504 70.2556C75.0346 70.3829 74.8914 70.5292 74.782 70.5992C74.5504 70.7477 74.2978 70.8664 74.0557 70.998C75.3483 72.5442 75.3483 72.5442 75.5377 74.2622H75.5441ZM63.9065 86.929C65.1696 85.3276 65.7738 83.3847 66.7422 81.6073C66.5317 81.5713 66.3507 81.6073 66.3001 81.7176C65.5317 83.4717 64.4012 85.0561 63.9002 86.929H63.9065ZM73.5273 78.3558C73.3644 78.3924 73.219 78.4846 73.1158 78.6168C73.0126 78.749 72.9579 78.913 72.961 79.0812C72.9436 79.2085 72.9067 79.3323 72.8515 79.4481C72.1659 81.1689 71.3509 82.8346 70.4137 84.4304C70.2712 84.6436 70.1903 84.8926 70.18 85.1494C71.0305 84.1822 72.7799 80.6253 73.521 78.3558H73.5273ZM62.9466 82.4303C62.6539 82.4939 62.416 82.4409 62.2792 82.7336C61.8834 83.582 61.3845 84.3774 60.9108 85.1855C60.669 85.6128 60.4936 86.0749 60.3908 86.5557C61.414 85.2973 62.271 83.9106 62.9402 82.4303H62.9466ZM61.8224 87.4274C63.1423 85.8176 63.8855 83.9277 64.797 82.0739C64.4223 82.2436 61.9466 86.7444 61.8224 87.4274ZM42.2777 82.2161C42.446 82.1131 42.5898 81.9741 42.6988 81.8088C43.4608 81.0007 43.7514 79.8999 44.3829 79.0133C44.5513 78.7779 44.2798 78.7779 44.1892 78.6888C44.0987 78.5997 44.0019 78.5615 43.9093 78.7354C43.5977 79.3251 43.2398 79.8893 42.9472 80.4874C42.6744 81.045 42.4504 81.6256 42.2777 82.2224V82.2161ZM45.9597 84.5768C46.0881 84.5768 46.1176 84.4792 46.1702 84.4156C46.9874 83.3582 47.7229 82.2393 48.3702 81.0686C48.4249 80.971 48.5238 80.8841 48.3428 80.8013C48.2039 80.7356 48.1323 80.7441 48.0396 80.8862C47.5407 81.6476 47.0081 82.3879 46.526 83.1578C46.2678 83.6018 46.0769 84.0822 45.9597 84.5831V84.5768ZM41.0841 81.4101C41.9262 80.4153 42.5282 79.2784 43.1198 78.1331C43.2272 77.921 42.9872 77.921 42.9093 77.834C42.7746 77.694 42.7261 77.834 42.6735 77.9358C42.2525 78.7164 41.8441 79.4948 41.4399 80.269C41.2376 80.6199 41.1161 81.012 41.0841 81.4164V81.4101ZM47.6102 84.757C48.4523 83.7899 49.2943 82.8099 49.8649 81.6349C49.907 81.5458 50.0417 81.4398 49.8501 81.3676C49.7196 81.3189 49.5975 81.2531 49.488 81.4355C48.8459 82.5342 47.9997 83.5099 47.6186 84.7634L47.6102 84.757ZM45.7155 79.6411C45.7008 79.5393 45.6229 79.5223 45.566 79.4905C45.4039 79.4036 45.3787 79.552 45.3239 79.6411C44.8903 80.3071 44.4482 80.9689 44.0356 81.6476C43.9101 81.9011 43.8011 82.1626 43.7093 82.4303C43.6834 82.4731 43.6753 82.5245 43.6867 82.5733C43.6981 82.6222 43.7282 82.6645 43.7703 82.6912C43.8629 82.7527 43.9219 82.6509 43.9808 82.5936C44.1631 82.4146 44.3172 82.2086 44.4377 81.9827C44.7885 81.2531 45.1752 80.5419 45.5976 79.849L45.7155 79.6411ZM65.9086 79.096C67.9569 78.6506 70.0537 78.3685 71.8031 77.0704C69.9045 77.9217 67.9348 78.6017 65.917 79.1024L65.9086 79.096ZM68.7253 80.8671C68.4285 80.9731 66.5338 84.581 66.2328 85.5058C67.4243 84.1419 67.8327 82.4218 68.7337 80.8734L68.7253 80.8671ZM44.625 83.9468C44.6755 83.8811 44.7219 83.8132 44.7745 83.7538C45.6566 82.7675 46.145 81.5331 46.8481 80.4344C46.8923 80.3644 47.0418 80.2817 46.9134 80.1926C46.7492 80.0802 46.7365 80.2711 46.7028 80.3538C46.2334 81.2502 45.6845 82.1021 45.0629 82.899C44.8422 83.2116 44.6927 83.5693 44.625 83.9468ZM54.2458 85.2555L54.3468 85.3318L56.2941 82.7612C55.9931 82.6318 55.8857 82.7824 55.7699 82.9627C55.2668 83.7241 54.7552 84.4877 54.2458 85.2555ZM52.9932 82.2691L52.8332 82.1673L51.149 84.8992L51.2543 84.9649C52.1111 84.2459 52.3364 83.1175 52.9932 82.2691ZM77.6998 82.3751C77.3861 82.5872 77.405 82.7548 77.685 82.9796C78.1112 83.3285 78.5931 83.6017 79.1103 83.7877C79.1705 83.8247 79.2414 83.8401 79.3113 83.8312C79.3813 83.8223 79.4463 83.7898 79.4955 83.7389C78.7953 83.439 78.1788 82.9707 77.6998 82.3751ZM74.1441 81.8937C73.8136 82.3179 73.5483 82.6572 73.2704 82.9902C73.1252 83.162 73.2368 83.266 73.3315 83.389C73.4704 83.5693 73.5315 83.4081 73.6178 83.3296C74.0136 82.9733 74.1315 82.5045 74.1441 81.8937ZM56.3699 85.2173L58.0393 82.846L57.913 82.7527C57.2204 83.4441 56.8078 84.3413 56.3699 85.2173ZM60.113 80.6041C61.6187 80.6226 63.1203 80.4437 64.5802 80.0717C63.0939 80.2668 61.6034 80.428 60.113 80.6041ZM58.6877 89.8348C58.6525 90.0928 58.6696 90.3554 58.738 90.6066C58.8064 90.8577 58.9247 91.0923 59.0856 91.2962C59.0629 90.7852 58.9269 90.2859 58.6877 89.8348ZM36.3179 81.8109C36.0303 82.2572 35.8964 82.7864 35.9369 83.3169C36.1801 82.8523 36.3107 82.3362 36.3179 81.8109ZM76.8219 83.3975C76.704 83.442 76.5609 83.565 76.5861 83.6096C76.6935 83.8217 76.9356 83.8683 77.1503 83.9235C77.2198 83.9426 77.3019 83.9086 77.2724 83.8089C77.1966 83.5926 76.9798 83.5269 76.8219 83.3975ZM75.9377 80.8883C76.275 80.5041 76.4509 80.0029 76.4282 79.4905C76.2303 80.0335 76.0809 80.4641 75.9293 80.8947L75.9377 80.8883ZM82.1333 44.6633C82.1691 44.2264 81.8744 43.5498 81.6112 43.431C81.7733 43.8403 81.9481 44.2497 82.1249 44.6697L82.1333 44.6633ZM73.5441 75.643C73.8683 75.1064 74.0178 74.4955 73.9315 74.0989C73.8852 74.6376 73.6978 75.0915 73.5357 75.6494L73.5441 75.643ZM33.8759 63.411C33.801 62.9921 33.6527 62.5899 33.438 62.2233C33.4974 62.6463 33.6468 63.0515 33.8759 63.411ZM83.7333 49.705C83.7796 50.0868 83.7333 50.4919 83.9648 50.8312C83.9718 50.4438 83.8949 50.0595 83.7396 49.705H83.7333ZM68.2853 32.0093C68.528 32.2082 68.8185 32.3392 69.1274 32.3889C68.8836 32.1958 68.5967 32.0655 68.2916 32.0093H68.2853ZM83.4428 63.4004C83.6203 63.102 83.6978 62.754 83.6638 62.4078C83.5129 62.7189 83.4413 63.063 83.4554 63.4089L83.4428 63.4004ZM40.402 84.0762C40.6483 84.0762 40.7051 83.915 40.823 83.8217C40.9409 83.7283 40.8736 83.6817 40.802 83.6096C40.6904 83.5056 40.6672 83.6244 40.6315 83.6817C40.5409 83.8005 40.4799 83.9235 40.402 84.0762ZM54.4331 82.46C54.3895 82.5192 54.3514 82.5824 54.3195 82.6487C54.3047 82.6954 54.3195 82.7675 54.3952 82.7293C54.427 82.7171 54.4541 82.6952 54.473 82.6667C54.4918 82.6382 54.5015 82.6045 54.5005 82.5703C54.49 82.5491 54.4605 82.5151 54.4247 82.46H54.4331ZM54.0753 83.3084L54.0205 83.2002C53.9768 83.2286 53.9377 83.2637 53.9047 83.3041C53.8795 83.3444 53.8753 83.4187 53.951 83.4102C53.9847 83.3975 54.0205 83.3487 54.0668 83.3084H54.0753ZM68.1906 31.9965C68.159 31.9435 68.1485 31.9096 68.138 31.9096C68.0869 31.9156 68.0363 31.9249 67.9864 31.9371C67.999 31.952 68.0074 31.9796 68.0222 31.9817C68.078 31.9899 68.1342 31.9948 68.1906 31.9965ZM73.7546 35.1611C73.7281 35.131 73.6976 35.1046 73.6641 35.0826C73.6641 35.0826 73.6115 35.1166 73.6136 35.125C73.6288 35.1616 73.6479 35.1965 73.6704 35.229L73.7546 35.1611ZM73.8746 80.7462C73.8746 80.7016 73.8431 80.6953 73.8136 80.7271C73.7971 80.743 73.7816 80.76 73.7673 80.778C73.7904 80.778 73.8157 80.8056 73.8388 80.8013C73.862 80.7971 73.8746 80.7653 73.8746 80.7462ZM66.1675 85.6139C66.1843 85.597 66.218 85.5758 66.2159 85.5652C66.2159 85.5227 66.1738 85.5079 66.1359 85.5376C66.1224 85.5513 66.111 85.567 66.1022 85.5842L66.1675 85.6139Z" fill="#464646"/>
<path d="M22.0236 38.0075C22.0236 37.0064 23.1752 36.3107 24.2425 36.6585C24.9014 36.8706 25.1119 37.2355 24.9793 37.9311C24.8849 38.4393 24.6185 38.8988 24.2257 39.2313C23.533 39.8316 22.7036 39.6789 22.2552 38.8665C22.1013 38.607 22.0211 38.3098 22.0236 38.0075Z" fill="#F8F2EA"/>
<path d="M91.373 42.3216C91.4088 42.3216 91.5499 42.3407 91.6867 42.3683C92.2909 42.4828 92.4467 42.6483 92.4635 43.1828C92.4804 43.6515 92.0762 44.2751 91.6741 44.4045C91.3604 44.5042 90.8152 44.2327 90.611 43.853C90.5238 43.6906 90.4607 43.5163 90.4236 43.3355C90.2952 42.6228 90.5457 42.3174 91.373 42.3216Z" fill="#F8F2EA"/>
<path d="M90.1562 44.2772C89.432 43.7385 89.3141 42.7247 89.9752 42.2962C89.8687 42.6146 89.8353 42.9531 89.8776 43.2864C89.9199 43.6197 90.0368 43.9389 90.2194 44.22C90.1974 44.2379 90.1763 44.2571 90.1562 44.2772Z" fill="#F8F2EA"/>
<path d="M90.2027 44.3834L90.1562 44.2773C90.1763 44.2571 90.1975 44.2379 90.2196 44.22C90.2704 44.2836 90.2809 44.3409 90.1964 44.3855L90.2027 44.3834Z" fill="#F8F2EA"/>
<path d="M61.5003 19.7667C62.0603 19.7667 62.4476 20.0275 62.4497 20.403C62.4497 21.0541 61.9866 21.6332 61.454 21.6395C61.1975 21.6324 60.9522 21.5321 60.7634 21.3571C60.5746 21.182 60.455 20.9441 60.4266 20.6872C60.4182 20.1739 60.8961 19.7667 61.5003 19.7667Z" fill="#F8F2EA"/>
<path d="M60.374 19.7348C60.294 19.8832 60.2056 20.0273 60.1403 20.182C60.0751 20.3367 60.0393 20.4957 59.9887 20.6589C59.8688 20.1608 59.9277 19.9828 60.3151 19.6649L60.374 19.7348Z" fill="#F8F2EA"/>
<path d="M60.3151 19.6648C60.3507 19.6648 60.4032 19.6437 60.4158 19.6648C60.4284 19.6859 60.4158 19.728 60.3738 19.7407L60.3151 19.6648Z" fill="#F8F2EA"/>
<path d="M92.293 50.7183C92.3051 50.5468 92.377 50.385 92.496 50.2617C92.615 50.1384 92.7735 50.0614 92.9435 50.0443C93.2719 50.0443 93.4908 50.3135 93.4845 50.7247C93.4817 50.8899 93.4196 51.0484 93.3097 51.1711C93.1998 51.2938 93.0495 51.3724 92.8867 51.3923C92.6109 51.3965 92.2951 51.032 92.293 50.7183Z" fill="#F8F2EA"/>
<path d="M75.5377 74.2622C75.3504 72.5441 75.3504 72.5441 74.0641 71.0085C74.3062 70.877 74.5588 70.7582 74.7904 70.6097C74.8999 70.5398 75.0578 70.4189 74.9588 70.2661C74.8599 70.1134 74.8241 69.8992 74.5609 69.9947C74.4451 70.0371 74.3062 70.0201 74.1883 70.0625C72.5715 70.6479 70.8853 70.8388 69.1842 70.9618C68.18 71.0327 67.1712 70.9993 66.1738 70.8621C66.0947 70.8673 66.0154 70.856 65.9408 70.829C65.8662 70.802 65.7979 70.7599 65.7401 70.7052C66.6475 70.6394 67.5169 70.72 68.3801 70.6225C70.3526 70.3976 72.3336 70.2471 74.2472 69.6638C74.6148 69.5553 74.9682 69.4029 75.2998 69.2099C75.354 69.1845 75.4028 69.1487 75.4432 69.1044C75.4837 69.0601 75.5151 69.0082 75.5356 68.9517C75.5561 68.8951 75.5654 68.8351 75.5629 68.7749C75.5603 68.7148 75.5461 68.6557 75.5209 68.6011C75.4325 68.3466 75.2156 68.476 75.0451 68.4887C73.6262 68.6054 72.2831 69.1059 70.8852 69.3371C68.9239 69.6463 66.944 69.8213 64.9591 69.861C64.5038 69.8435 64.0507 69.932 63.6349 70.1198C63.1844 70.351 63.1318 70.6861 63.515 71.0212C63.9243 71.4047 64.437 71.6577 64.9886 71.7487C66.6328 71.9778 68.2685 71.806 69.9021 71.6088C70.62 71.5218 71.3358 71.4115 72.0515 71.3139C72.0919 71.3015 72.1345 71.2981 72.1763 71.304C72.2181 71.3099 72.2581 71.3248 72.2936 71.3479C73.1189 72.0139 73.8725 72.7287 73.8262 73.9122C73.8088 74.3986 73.689 74.8758 73.4746 75.3121C73.3113 75.6611 73.0403 75.9476 72.702 76.1287C69.3337 77.9464 65.7296 78.9645 61.9445 79.3781C58.1155 79.7994 54.2428 79.5402 50.5027 78.6124C49.107 78.2667 47.766 77.7894 46.5639 76.9559C45.806 76.4277 45.1282 75.8211 44.9408 74.8476C44.8775 74.5165 44.8885 74.1753 44.973 73.849C45.0575 73.5228 45.2134 73.2197 45.4292 72.962C46.1008 72.0945 47.0081 71.543 47.9554 71.053C50.3912 69.791 53.0079 69.1314 55.6984 68.7305C57.3122 68.4994 58.9381 68.3634 60.5677 68.3233C60.639 68.3287 60.7106 68.3193 60.7782 68.2957C60.8919 68.2363 61.1024 68.2639 61.0792 68.0603C61.0519 67.8206 60.8582 67.95 60.7403 67.9521C56.9641 67.9602 53.2064 68.4847 49.5701 69.5111C48.1344 69.9162 46.7407 70.4358 45.4987 71.2948C44.484 71.9927 43.7029 72.8602 43.4545 74.1243C43.4176 74.4837 43.4325 74.8466 43.4987 75.2018C42.7127 74.6182 41.9678 73.9803 41.2693 73.2928C37.5684 69.6871 34.9411 65.409 33.7748 60.3334C31.9012 52.1823 33.5833 44.8308 39.1326 38.5505C42.7598 34.4441 47.3828 31.9498 52.7595 30.9657C59.3993 29.7503 65.6012 30.9805 71.3905 34.4654C73.12 35.5347 74.7202 36.8031 76.1588 38.245C80.2126 42.1524 82.8165 47.3403 83.5375 52.9458C84.2848 58.3566 83.3691 63.4746 80.6892 68.2406C79.426 70.4952 77.8935 72.5441 75.7883 74.0925C75.7167 74.137 75.6493 74.1837 75.5377 74.2622ZM68.3611 66.3147L68.9927 66.2213C70.4558 66.0092 71.9105 65.7759 73.2536 65.1142C73.7188 64.8851 74.2157 64.69 74.5714 64.2785C74.6536 64.1809 74.7167 64.1003 74.6725 63.9837C74.6283 63.867 74.4767 63.8713 74.3757 63.8819C74.0674 63.9269 73.7665 64.0133 73.481 64.1385C71.4386 64.9094 69.3071 65.4154 67.138 65.6444C66.618 65.7017 66.0854 65.6975 65.5886 65.8883C65.3781 65.9753 65.1339 66.0602 65.1128 66.3698C65.0917 66.6795 65.277 66.8068 65.4854 66.9383C65.6871 67.0746 65.9209 67.1551 66.1633 67.1716C66.7857 67.2282 67.4122 67.219 68.0327 67.144C69.8105 66.8632 71.5598 66.4232 73.2599 65.829C73.3441 65.7993 73.4304 65.7823 73.382 65.655C73.1863 65.624 72.9859 65.6482 72.8031 65.725C72.3134 65.8675 71.8166 65.9836 71.3147 66.0729C70.3316 66.2001 69.3485 66.3338 68.3674 66.4653L68.3611 66.3147ZM58.572 54.0403C58.9025 54.0954 59.214 54.3097 59.6245 54.1591C59.414 54.0042 59.2456 53.8706 59.0646 53.7667C57.6899 52.9734 56.7846 51.7857 56.1868 50.3306C55.8794 49.5798 55.5552 48.8459 55.3047 48.0611C55.2941 47.9819 55.2674 47.9057 55.2261 47.8374C55.1847 47.7691 55.1298 47.7102 55.0647 47.6645C54.9259 47.9043 54.8364 48.1697 54.8015 48.445C54.6502 49.2891 54.3741 50.1056 53.9826 50.8672C53.1237 52.405 52.0753 53.7709 50.5743 54.7339C50.4943 54.7848 50.3638 54.8208 50.3869 54.946C50.4101 55.0711 50.528 55.0605 50.6206 55.0987C50.8161 55.1805 51.0036 55.2807 51.1806 55.3978C52.7637 56.4922 53.8689 58.0003 54.7994 59.6568C55.0668 60.1298 55.2899 60.6303 55.5763 61.2072C56.1005 58.3736 57.4141 56.138 59.7382 54.5048C59.3004 54.3521 58.8835 54.316 58.5298 54.0997L58.572 54.0403ZM50.5343 45.1977C50.5175 45.0429 50.4038 44.9856 50.2817 44.9432C50.0554 44.8598 49.834 44.7635 49.6185 44.6548C47.6376 43.5794 46.5513 41.8444 46.0523 39.6873C45.9752 39.3227 45.8602 38.9672 45.7092 38.6268C45.6696 38.534 45.6033 38.4553 45.5189 38.4008C45.4345 38.3464 45.3357 38.3187 45.2355 38.3214C45.025 38.3214 45.0145 38.5335 44.9682 38.6607C44.883 38.9036 44.8127 39.1515 44.7576 39.4031C44.484 40.6439 44.1935 41.8826 43.6714 43.0428C43.1682 44.1542 42.503 45.1362 41.2167 45.4692C41.0694 45.525 40.9283 45.596 40.7957 45.6813C40.6946 45.7322 40.5851 45.7789 40.5725 45.9147C40.5599 46.0504 40.7241 46.0737 40.8167 46.1034C41.4255 46.3017 41.9853 46.6285 42.4588 47.0621C43.6429 48.1591 44.6033 49.4782 45.2861 50.9457C45.5777 51.5644 45.79 52.218 45.9176 52.8907C45.9534 53.0731 46.0313 53.2301 46.2271 53.2492C46.4229 53.2682 46.4818 53.0922 46.5429 52.9522C46.6394 52.6841 46.7017 52.4047 46.7281 52.1208C47.0424 50.0657 47.9169 48.1389 49.2543 46.5552C49.5828 46.1649 49.9785 45.8341 50.3406 45.4714C50.4291 45.395 50.5301 45.3271 50.5343 45.1977ZM66.5064 63.0547C67.7682 62.9982 69.0162 62.7677 70.2158 62.3696C70.5193 62.2881 70.8049 62.1499 71.0579 61.9623C71.1311 61.9048 71.1826 61.8239 71.204 61.7329C71.2255 61.6419 71.2155 61.5463 71.1758 61.4618C71.1469 61.387 71.0915 61.3257 71.0203 61.2897C70.9492 61.2536 70.8673 61.2454 70.7905 61.2666C70.5931 61.2859 70.3979 61.3235 70.2074 61.379C68.9471 61.7676 67.6561 62.0465 66.3485 62.2126C66.1251 62.2473 65.9057 62.3049 65.6938 62.3844C65.5654 62.4332 65.4181 62.5286 65.4223 62.6835C65.4265 62.8383 65.5823 62.9062 65.7149 62.9592C65.9693 63.0462 66.2389 63.0787 66.5064 63.0547ZM61.0329 34.6329C60.7929 34.6329 60.5508 34.6202 60.3108 34.6329C60.2026 34.6386 60.0997 34.6825 60.0204 34.757C59.9411 34.8315 59.8904 34.9317 59.8772 35.0402C59.8414 35.2756 60.0877 35.2523 60.2414 35.301C60.3794 35.334 60.5206 35.3517 60.6624 35.3541C61.7782 35.4347 62.8897 35.5301 63.957 35.9225C64.2574 36.0518 64.5821 36.1141 64.9086 36.1049C65.2328 36.0816 65.3002 35.9331 65.1191 35.6531C64.9381 35.3732 64.6728 35.3095 64.4118 35.2141C63.3107 34.8132 62.1718 34.6944 61.0329 34.6287V34.6329ZM64.7065 37.8717C64.5928 37.8717 64.5507 37.8717 64.5086 37.8717C64.2812 37.8929 63.9991 37.9035 63.9781 38.1856C63.9591 38.4126 64.237 38.3977 64.3991 38.4529C65.3802 38.7838 66.3612 39.1062 67.3464 39.4286C67.5085 39.4816 67.7253 39.541 67.8074 39.3692C67.8896 39.1974 67.7317 39.0192 67.5759 38.9216C66.7008 38.3689 65.7192 38.0096 64.696 37.8675L64.7065 37.8717Z" fill="#F8F2EA"/>
<path d="M67.8032 85.6118C67.879 85.143 68.2032 84.8016 68.4222 84.4071C69.1358 83.1132 69.8095 81.7961 70.4158 80.4492C70.4718 80.2823 70.5657 80.1307 70.6899 80.0067C70.8141 79.8826 70.9653 79.7894 71.1316 79.7344L71.1884 79.8044C70.5572 81.0858 70.0039 82.4047 69.5316 83.7538C69.2959 84.3957 68.9017 84.9665 68.3864 85.4124L67.8032 85.6118Z" fill="#F8F2EA"/>
<path d="M63.9002 86.929C64.4097 85.0561 65.5317 83.4717 66.2938 81.7176C66.3443 81.601 66.5254 81.5713 66.7359 81.6073C65.7675 83.3847 65.1612 85.3276 63.9002 86.929Z" fill="#F8F2EA"/>
<path d="M73.521 78.3558C72.7799 80.6253 71.0305 84.1822 70.1737 85.1431C70.184 84.8862 70.2649 84.6373 70.4074 84.424C71.3446 82.8282 72.1596 81.1626 72.8452 79.4417C72.9004 79.3259 72.9373 79.2021 72.9547 79.0748C72.9531 78.9077 73.0085 78.7452 73.1115 78.6143C73.2146 78.4835 73.3591 78.3922 73.521 78.3558Z" fill="#F8F2EA"/>
<path d="M62.9402 82.4302C62.269 83.911 61.4099 85.2977 60.3845 86.5556C60.4873 86.0748 60.6627 85.6127 60.9045 85.1854C61.3782 84.3773 61.8771 83.5841 62.2729 82.7335C62.4097 82.4408 62.6476 82.4939 62.9402 82.4302Z" fill="#F8F2EA"/>
<path d="M61.8224 87.4274C61.9466 86.738 64.4223 82.2372 64.797 82.0739C63.8855 83.9341 63.1381 85.8239 61.8224 87.4274Z" fill="#F8F2EA"/>
<path d="M49.3407 85.2491C49.5503 84.5244 49.866 83.8352 50.2775 83.2044C50.5531 82.8245 50.8075 82.4294 51.0396 82.0209C51.1911 81.7346 51.3932 81.8088 51.5637 81.8979C51.789 82.0251 51.5532 82.1651 51.4964 82.2669C50.8981 83.3469 50.1851 84.3582 49.3701 85.283L49.3407 85.2491Z" fill="#F8F2EA"/>
<path d="M42.2777 82.2224C42.4507 81.6277 42.6747 81.0494 42.9472 80.4938C43.2398 79.8957 43.5977 79.3315 43.9093 78.7418C44.0019 78.5679 44.0903 78.5976 44.1892 78.6952C44.2882 78.7927 44.5513 78.7842 44.3829 79.0197C43.7514 79.9063 43.4608 81.0071 42.6988 81.8152C42.5898 81.9804 42.446 82.1195 42.2777 82.2224Z" fill="#F8F2EA"/>
<path d="M45.9597 84.5831C46.0769 84.0845 46.267 83.6063 46.5239 83.1641C47.006 82.3942 47.5386 81.654 48.0375 80.8925C48.1323 80.7504 48.2018 80.7419 48.3407 80.8077C48.5217 80.8904 48.4228 80.9773 48.3681 81.0749C47.7208 82.2456 46.9853 83.3646 46.1681 84.4219C46.1176 84.4855 46.086 84.5746 45.9597 84.5831Z" fill="#F8F2EA"/>
<path d="M41.0841 81.4164C41.1163 81.0175 41.2356 80.6308 41.4335 80.2838C41.8377 79.5011 42.2546 78.7227 42.6672 77.9506C42.7198 77.8531 42.7682 77.7088 42.903 77.8488C42.9872 77.9358 43.2272 77.94 43.1135 78.1479C42.5282 79.2848 41.924 80.428 41.0841 81.4164Z" fill="#F8F2EA"/>
<path d="M47.6186 84.7633C47.9997 83.5098 48.8459 82.5341 49.4964 81.4418C49.6059 81.2594 49.728 81.3251 49.8585 81.3739C50.0501 81.446 49.9154 81.5521 49.8733 81.6412C49.307 82.8162 48.4691 83.7961 47.6186 84.7633Z" fill="#F8F2EA"/>
<path d="M45.7239 79.6475L45.5997 79.8596C45.1787 80.5524 44.792 81.2637 44.4398 81.9933C44.3193 82.2192 44.1652 82.4252 43.9829 82.6042C43.9303 82.6614 43.8714 82.7632 43.7724 82.7017C43.7303 82.675 43.7002 82.6327 43.6888 82.5839C43.6774 82.5351 43.6855 82.4837 43.7114 82.4408C43.8032 82.1731 43.9122 81.9117 44.0377 81.6582C44.4587 80.9795 44.8924 80.3177 45.326 79.6517C45.3808 79.5626 45.406 79.4141 45.5681 79.5011C45.6313 79.5287 45.7092 79.5456 45.7239 79.6475Z" fill="#F8F2EA"/>
<path d="M65.917 79.1024C67.9374 78.6042 69.91 77.9263 71.8115 77.0768C70.0621 78.3748 67.9653 78.6569 65.917 79.1024Z" fill="#F8F2EA"/>
<path d="M68.7337 80.8734C67.8327 82.4218 67.4243 84.1419 66.2412 85.5121C66.5422 84.5873 68.4369 80.9795 68.7337 80.8734Z" fill="#F8F2EA"/>
<path d="M84.3059 59.7268C84.3901 58.5645 84.5669 57.4106 84.5164 56.2377C84.5247 55.8228 84.5957 55.4115 84.7269 55.0181C84.7967 56.5845 84.7057 58.1539 84.4554 59.7014L84.3059 59.7268Z" fill="#F8F2EA"/>
<path d="M44.625 83.9467C44.6858 83.5662 44.8296 83.204 45.0461 82.8862C45.6677 82.0893 46.2166 81.2374 46.686 80.341C46.7281 80.2583 46.7407 80.0674 46.8965 80.1798C47.0249 80.2689 46.8755 80.3516 46.8313 80.4216C46.1281 81.5203 45.6397 82.7547 44.7576 83.741C44.7219 83.8216 44.6755 83.881 44.625 83.9467Z" fill="#F8F2EA"/>
<path d="M54.2458 85.2554C54.7552 84.4876 55.2668 83.7241 55.7699 82.952C55.8857 82.7717 55.9931 82.6211 56.2941 82.7505L54.3468 85.3318L54.2458 85.2554Z" fill="#F8F2EA"/>
<path d="M52.9932 82.269C52.3364 83.1175 52.1111 84.2458 51.2606 84.9649L51.1553 84.8991L52.8395 82.1672L52.9932 82.269Z" fill="#F8F2EA"/>
<path d="M77.6998 82.3751C78.1788 82.9706 78.7953 83.4389 79.4955 83.7389C79.4462 83.7897 79.3813 83.8223 79.3113 83.8311C79.2413 83.84 79.1705 83.8247 79.1102 83.7877C78.5927 83.5997 78.1107 83.3243 77.685 82.9732C77.405 82.7611 77.3861 82.5787 77.6998 82.3751Z" fill="#F8F2EA"/>
<path d="M74.1441 81.8936C74.1315 82.5045 74.0136 82.9711 73.6178 83.3295C73.5315 83.408 73.4704 83.5692 73.3315 83.3889C73.2368 83.2659 73.121 83.162 73.2704 82.9902C73.5483 82.6572 73.8136 82.3115 74.1441 81.8936Z" fill="#F8F2EA"/>
<path d="M53.8942 83.5268C53.4492 84.416 52.8993 85.2478 52.2564 86.0042C52.3219 85.6485 52.4657 85.3122 52.6774 85.02C53.0984 84.5216 53.3805 83.915 53.89 83.4908L53.8731 83.5099L53.8942 83.5268Z" fill="#F8F2EA"/>
<path d="M56.3699 85.2173C56.8078 84.3413 57.212 83.4441 57.913 82.7526L58.0393 82.846L56.3699 85.2173Z" fill="#F8F2EA"/>
<path d="M60.113 80.6036C61.6034 80.4256 63.0939 80.2666 64.5802 80.0717C63.1203 80.4434 61.6186 80.6222 60.113 80.6036Z" fill="#646464"/>
<path d="M32.7791 50.2012C32.9303 49.1787 33.2134 48.1805 33.6211 47.2318C33.3812 48.2131 33.1419 49.1959 32.9033 50.18L32.7791 50.2012Z" fill="#646464"/>
<path d="M73.2536 34.8739L71.5694 33.7697C72.3231 33.9159 72.7947 34.3949 73.3083 34.8082L73.2536 34.8739Z" fill="#F8F2EA"/>
<path d="M58.6877 89.8347C58.9269 90.2858 59.0629 90.7852 59.0856 91.2961C58.9247 91.0923 58.8064 90.8577 58.738 90.6065C58.6696 90.3553 58.6525 90.0928 58.6877 89.8347Z" fill="#F8F2EA"/>
<path d="M36.3179 81.8109C36.3107 82.3362 36.1801 82.8522 35.9369 83.3168C35.8964 82.7863 36.0303 82.2572 36.3179 81.8109Z" fill="#F8F2EA"/>
<path d="M67.8032 85.6116L68.3864 85.4124C68.2474 85.813 67.9359 86.0716 67.599 86.4043C67.6239 86.1307 67.6929 85.863 67.8032 85.6116Z" fill="#646464"/>
<path d="M76.8222 83.3975C76.9887 83.5205 77.2057 83.5863 77.2732 83.8218C77.3027 83.9215 77.2205 83.9555 77.1509 83.9364C76.9402 83.8812 76.6936 83.843 76.5861 83.6224C76.5524 83.5714 76.6957 83.4484 76.8222 83.3975Z" fill="#F8F2EA"/>
<path d="M32.7791 50.2013L32.8928 50.1801C32.8001 50.7485 32.7054 51.3169 32.6128 51.8769C32.5475 51.3106 32.7222 50.7612 32.7791 50.2013Z" fill="#F8F2EA"/>
<path d="M75.9293 80.8946C76.0809 80.4704 76.2303 80.0334 76.4198 79.4968C76.4425 80.0092 76.2666 80.5104 75.9293 80.8946Z" fill="#F8F2EA"/>
<path d="M59.8814 84.547C59.6839 84.9228 59.4558 85.2816 59.1993 85.6194C59.1888 85.6194 59.1467 85.6194 59.094 85.6046C59.288 85.2027 59.5391 84.8315 59.8393 84.5024C59.8522 84.5183 59.8663 84.5332 59.8814 84.547Z" fill="#F8F2EA"/>
<path d="M82.1249 44.6687C81.9481 44.2448 81.7733 43.84 81.6028 43.4373C81.8744 43.556 82.1607 44.2321 82.1249 44.6687Z" fill="#F8F2EA"/>
<path d="M73.5357 75.6493C73.6978 75.0915 73.8852 74.6376 73.9231 74.1052C74.0094 74.5019 73.8599 75.1127 73.5357 75.6493Z" fill="#F8F2EA"/>
<path d="M33.8759 63.4101C33.6468 63.0508 33.4974 62.646 33.438 62.2232C33.6527 62.5896 33.801 62.9915 33.8759 63.4101Z" fill="#F8F2EA"/>
<path d="M83.7396 49.705C83.8971 50.0587 83.9761 50.4428 83.9711 50.8304C83.7375 50.4913 83.7859 50.0971 83.7396 49.705Z" fill="#646464"/>
<path d="M68.2916 32.0092C68.5993 32.0645 68.8887 32.1949 69.1346 32.389C68.8253 32.3392 68.5346 32.2082 68.2916 32.0092Z" fill="#F8F2EA"/>
<path d="M83.4554 63.4082C83.4466 63.0642 83.5225 62.7235 83.6764 62.4163C83.7104 62.7622 83.6329 63.11 83.4554 63.4082Z" fill="#646464"/>
<path d="M37.6169 70.3489C37.8052 70.5349 37.9631 70.7497 38.0847 70.9854L38.0384 71.03C37.8558 70.8385 37.6979 70.6246 37.5684 70.3934C37.5852 70.3849 37.6021 70.368 37.6169 70.3489Z" fill="#F8F2EA"/>
<path d="M40.402 84.0763C40.4884 83.9235 40.5495 83.8005 40.6127 83.6859C40.6486 83.6286 40.6717 83.5098 40.7834 83.6138C40.8551 83.6817 40.8888 83.7517 40.8045 83.8259C40.7202 83.9002 40.6401 84.0848 40.402 84.0763Z" fill="#F8F2EA"/>
<path d="M73.9925 80.5725C73.9398 80.3306 74.1464 80.2033 74.2243 80.0187C74.2401 80.123 74.2261 80.2296 74.1839 80.3261C74.1418 80.4227 74.0732 80.5052 73.9862 80.564L73.9925 80.5725Z" fill="#F8F2EA"/>
<path d="M84.3059 59.7268L84.4556 59.7014C84.5082 59.9135 84.3818 60.0939 84.3375 60.2933C84.2069 60.1066 84.2743 59.9157 84.3059 59.7268Z" fill="#646464"/>
<path d="M37.3579 70.0095C37.4825 70.0871 37.5747 70.2078 37.6171 70.349C37.6024 70.3681 37.5855 70.3851 37.5686 70.4042C37.4928 70.2726 37.2926 70.2047 37.3579 69.9989V70.0095Z" fill="#F8F2EA"/>
<path d="M73.3168 34.809C73.449 34.8604 73.5588 34.9574 73.6266 35.0827C73.4815 35.0578 73.3496 34.9828 73.2536 34.8705L73.3168 34.809Z" fill="#F8F2EA"/>
<path d="M69.5088 32.6337C69.3992 32.5868 69.2643 32.5783 69.199 32.4207C69.2681 32.4163 69.3373 32.4288 69.4007 32.4569C69.4642 32.4851 69.52 32.5281 69.5636 32.5826L69.5088 32.6337Z" fill="#F8F2EA"/>
<path d="M69.5632 32.584C69.6171 32.5842 69.67 32.5987 69.7166 32.6259C69.7632 32.6532 69.8019 32.6924 69.8288 32.7395C69.6834 32.8077 69.618 32.6863 69.5084 32.633L69.5632 32.584Z" fill="#F8F2EA"/>
<path d="M70.0074 32.8279C70.1275 32.8279 70.2182 32.9046 70.3383 32.994C70.2714 33.0082 70.2019 33.002 70.1385 32.9762C70.0751 32.9504 70.0207 32.9062 69.9821 32.8492L70.0074 32.8279Z" fill="#F8F2EA"/>
<path d="M54.4245 82.46C54.4602 82.515 54.4896 82.5403 54.4917 82.57C54.4927 82.6041 54.4831 82.6377 54.4642 82.6661C54.4454 82.6945 54.4183 82.7164 54.3866 82.7286C54.3026 82.7667 54.2963 82.6948 54.311 82.6482C54.3429 82.582 54.3809 82.519 54.4245 82.46Z" fill="#646464"/>
<path d="M54.2776 82.9181C54.2312 83.0157 54.2059 83.1303 54.0669 83.1664C53.9931 83.0136 54.1132 82.9393 54.187 82.8502L54.2776 82.9181Z" fill="#646464"/>
<path d="M54.0658 83.3081C54.0198 83.3483 53.9842 83.4054 53.9423 83.4096C53.8669 83.4096 53.8711 83.3441 53.8962 83.3039C53.9291 83.2635 53.9679 83.2285 54.0114 83.2002L54.0658 83.3081Z" fill="#646464"/>
<path d="M39.6141 72.9679C39.5701 72.9129 39.4634 72.8642 39.5492 72.7881C39.5869 72.7542 39.656 72.8388 39.6811 72.9023L39.6141 72.9679Z" fill="#646464"/>
<path d="M68.1895 31.9963C68.1334 31.9946 68.0775 31.9897 68.022 31.9815C68.0073 31.9815 67.999 31.9519 67.9864 31.937C68.036 31.9248 68.0864 31.9156 68.1371 31.9095C68.1497 31.9095 68.1602 31.9434 68.1895 31.9963Z" fill="#F8F2EA"/>
<path d="M40.4282 73.6933C40.3047 73.7378 40.2628 73.651 40.2188 73.5622C40.2331 73.5491 40.2464 73.5349 40.2586 73.5198C40.2972 73.5355 40.3318 73.5598 40.3597 73.591C40.3877 73.6221 40.4082 73.6593 40.4198 73.6997L40.4282 73.6933Z" fill="#646464"/>
<path d="M33.699 46.9153L33.7285 46.7228C33.7412 46.7228 33.758 46.7355 33.7623 46.7461C33.7695 46.7614 33.7734 46.778 33.7739 46.795C33.7743 46.8119 33.7713 46.8287 33.765 46.8444C33.7587 46.8601 33.7491 46.8744 33.7371 46.8862C33.725 46.898 33.7106 46.9072 33.6948 46.9132L33.699 46.9153Z" fill="#646464"/>
<path d="M73.7573 35.1611L73.6727 35.229C73.6501 35.1965 73.6309 35.1617 73.6157 35.1251C73.6157 35.1251 73.6579 35.0784 73.6664 35.0826C73.7 35.1046 73.7306 35.131 73.7573 35.1611Z" fill="#F8F2EA"/>
<path d="M33.6951 46.9158L33.6592 47.058C33.6486 47.058 33.6317 47.0431 33.6296 47.0325C33.6169 46.9731 33.6296 46.9285 33.6993 46.9179L33.6951 46.9158Z" fill="#646464"/>
<path d="M73.8743 80.7459C73.8743 80.7648 73.8533 80.7986 73.8386 80.8007C73.8239 80.8028 73.7903 80.7859 73.7673 80.7775C73.7815 80.7596 73.797 80.7427 73.8134 80.7269C73.847 80.6953 73.8743 80.7016 73.8743 80.7459Z" fill="#F8F2EA"/>
<path d="M38.0865 70.9958C38.1224 71.0552 38.1626 71.1528 38.1013 71.1698C38.0019 71.1995 38.0548 71.0892 38.04 71.0404L38.0865 70.9958Z" fill="#F8F2EA"/>
<path d="M66.172 85.6119L66.1064 85.5843C66.1153 85.5671 66.1267 85.5513 66.1403 85.5376C66.1783 85.5079 66.2122 85.5227 66.2206 85.5652C66.2227 85.5758 66.1889 85.597 66.172 85.6119Z" fill="#F8F2EA"/>
<path d="M73.9851 80.5635L73.927 80.6385C73.927 80.626 73.9083 80.6114 73.9104 80.5989C73.9229 80.551 73.9498 80.5406 73.9913 80.5719L73.9851 80.5635Z" fill="#F8F2EA"/>
<path d="M37.365 69.9978C37.336 70.0207 37.3028 70.0436 37.28 69.9978C37.28 69.9832 37.2904 69.9561 37.2966 69.9353L37.3567 70.0103L37.365 69.9978Z" fill="#F8F2EA"/>
<path d="M39.7013 73.0681L39.6168 72.9684L39.6823 72.9026L39.7689 72.9875L39.7013 73.0681Z" fill="#646464"/>
<path d="M39.8692 73.2357L39.7767 73.1423L39.8524 73.0723L39.9385 73.1572L39.8692 73.2357Z" fill="#646464"/>
<path d="M39.956 73.3184L39.8694 73.2356L39.9391 73.1571L40.0194 73.2484L39.956 73.3184Z" fill="#646464"/>
<path d="M40.0191 73.2483L40.0994 73.3417C40.0793 73.3604 40.0603 73.3803 40.0423 73.4011L39.9557 73.3183L40.0191 73.2483Z" fill="#646464"/>
<path d="M40.0991 73.3417L40.1773 73.4351L40.1392 73.469L40.042 73.399L40.0991 73.3417Z" fill="#646464"/>
<path d="M40.221 73.5619L40.1388 73.4689L40.1768 73.435L40.2611 73.5196C40.2488 73.5347 40.2354 73.5489 40.221 73.5619Z" fill="#646464"/>
<path d="M40.423 73.7001L40.506 73.7834C40.4521 73.7834 40.4168 73.7605 40.423 73.698V73.7001Z" fill="#646464"/>
<path d="M40.5073 73.7846L40.542 73.8061L40.5134 73.7807L40.5073 73.7846Z" fill="#646464"/>
<path d="M54.1931 82.8502C54.2227 82.8248 54.2692 82.7738 54.2777 82.7781C54.3453 82.8205 54.3115 82.8715 54.2777 82.9181L54.1931 82.8502Z" fill="#646464"/>
<path d="M53.8937 83.4908V83.5256L53.8774 83.5092L53.8937 83.4908Z" fill="#646464"/>
<path d="M39.7707 73.1423L39.6946 73.0681C39.7158 73.0405 39.739 73.015 39.7623 72.9874L39.8468 73.0723L39.7707 73.1423Z" fill="#646464"/>
<path d="M59.8393 84.5021C59.8603 84.481 59.896 84.4367 59.8981 84.4389C59.9631 84.4831 59.9148 84.5147 59.8813 84.5463C59.8662 84.5326 59.8522 84.5178 59.8393 84.5021Z" fill="#F8F2EA"/>
<path d="M69.9822 32.8489L69.8895 32.796C69.9 32.7855 69.9169 32.7664 69.919 32.7685C69.9211 32.7706 69.978 32.8087 70.0054 32.8278L69.9822 32.8489Z" fill="#F8F2EA"/>
<path d="M49.3705 85.2831L49.3218 85.3637C49.3218 85.3637 49.2964 85.3425 49.2986 85.3361C49.3117 85.3063 49.3265 85.2772 49.343 85.2491C49.3509 85.2613 49.3601 85.2727 49.3705 85.2831Z" fill="#F8F2EA"/>
<path d="M71.1379 79.7343C71.1736 79.7343 71.2281 79.709 71.2386 79.7238C71.2491 79.7385 71.2386 79.7891 71.1945 79.8039L71.1379 79.7343Z" fill="#F8F2EA"/>
<path d="M50.5343 45.1977C50.5343 45.3271 50.429 45.395 50.3512 45.4735C49.9891 45.8362 49.5933 46.167 49.2649 46.5573C47.9275 48.141 47.0529 50.0678 46.7386 52.1229C46.7122 52.4068 46.65 52.6862 46.5534 52.9543C46.4923 53.0943 46.4292 53.2725 46.2376 53.2513C46.046 53.2301 45.9639 53.0752 45.9281 52.8928C45.8005 52.2201 45.5883 51.5665 45.2966 50.9478C44.6173 49.4822 43.6613 48.1638 42.4819 47.0664C42.0085 46.6327 41.4487 46.3059 40.8399 46.1077C40.7472 46.078 40.5915 46.0822 40.5957 45.9189C40.5999 45.7556 40.7178 45.7365 40.8188 45.6856C40.9514 45.6003 41.0926 45.5292 41.2399 45.4735C42.5261 45.1405 43.1914 44.1584 43.6945 43.047C44.2166 41.8868 44.5071 40.6481 44.7808 39.4073C44.8358 39.1558 44.9061 38.9079 44.9913 38.665C45.0376 38.5292 45.0482 38.3256 45.2587 38.3256C45.3589 38.3229 45.4576 38.3506 45.5421 38.4051C45.6265 38.4595 45.6928 38.5382 45.7324 38.631C45.8833 38.9714 45.9984 39.3269 46.0755 39.6916C46.5744 41.8486 47.6607 43.5836 49.6417 44.659C49.8571 44.7677 50.0786 44.864 50.3048 44.9475C50.4038 44.9941 50.5175 45.0429 50.5343 45.1977ZM43.6651 44.1796C43.5514 44.239 43.5177 44.3027 43.6524 44.3918C43.5514 44.3663 43.4419 44.3175 43.4419 44.4999L43.6419 44.3939L43.6524 44.1818C43.7429 44.2306 43.7387 44.1606 43.7472 44.1075C43.7991 44.0796 43.8414 44.0365 43.8684 43.9839C43.8955 43.9312 43.9061 43.8715 43.8987 43.8127C43.8521 43.8405 43.8119 43.8779 43.7807 43.9225C43.7495 43.9671 43.728 44.0179 43.7177 44.0715C43.6974 44.08 43.6808 44.0957 43.6711 44.1156C43.6614 44.1355 43.6593 44.1583 43.6651 44.1796ZM47.3491 43.1764C47.3239 43.1276 47.2923 43.0746 47.2397 43.1382C47.187 43.2019 47.2397 43.2315 47.2839 43.2676C47.29 43.3033 47.3061 43.3364 47.3304 43.3631C47.3546 43.3898 47.386 43.409 47.4207 43.4182C47.8881 43.94 48.3491 44.4787 49.0691 44.6442C48.5083 44.2507 47.9828 43.8085 47.4986 43.3228C47.4948 43.2845 47.4777 43.2489 47.4503 43.2222C47.423 43.1954 47.3872 43.1792 47.3491 43.1764ZM47.1007 42.8264C47.0692 42.7967 47.0355 42.7395 46.9871 42.7989C46.9386 42.8582 46.9871 42.8901 47.0249 42.9261C47.0734 43.0004 47.1113 43.1531 47.2165 43.0555C47.3218 42.9579 47.1744 42.8858 47.107 42.8264H47.1007ZM48.9365 46.3198C49.3091 46.3367 49.3765 45.9889 49.6417 45.7556C49.2207 45.8956 49.1091 45.9974 48.9428 46.3304C48.907 46.3028 48.8775 46.307 48.8607 46.3516C48.8607 46.3516 48.8607 46.3749 48.8733 46.3876L48.9365 46.3198ZM45.5197 50.4515L45.5787 50.5279C45.5805 50.5159 45.5805 50.5038 45.5787 50.4918C45.5681 50.4452 45.5408 50.4346 45.5008 50.4642C45.5189 50.4118 45.5261 50.3562 45.5218 50.3009C45.1008 48.6571 44.2335 47.3315 42.7177 46.5085C42.4693 46.3728 42.2104 46.1861 41.8525 46.2583C42.2574 46.477 42.6342 46.7449 42.9745 47.0558C44.0714 48.006 44.844 49.1938 45.526 50.4515H45.5197ZM46.2144 49.7579C46.6165 47.8851 47.3239 46.2964 49.0207 45.2486C47.3639 44.6738 46.2839 43.573 45.6397 41.9229C45.1703 43.5773 44.484 44.9814 42.9788 45.8277C44.6987 46.6506 45.7092 47.9911 46.2208 49.7579H46.2144ZM45.0818 39.8485C44.6861 41.2251 44.4629 42.5359 43.8629 43.8551C44.5366 43.0704 45.1282 41.0957 45.0882 39.8485H45.0818ZM46.9344 42.6313C46.9344 42.6313 46.9071 42.6546 46.9092 42.661C46.9158 42.6808 46.9243 42.7 46.9344 42.7183C46.9449 42.7077 46.9618 42.6971 46.9618 42.6907C46.9573 42.6701 46.9502 42.6501 46.9407 42.6313H46.9344Z" fill="#464646"/>
<path d="M58.5362 54.0912C58.8898 54.3033 59.3067 54.3436 59.7445 54.4963C57.4288 56.1295 56.1068 58.3651 55.5826 61.1988C55.2963 60.6218 55.0731 60.1213 54.8058 59.6483C53.8753 57.9918 52.77 56.4837 51.1869 55.3893C51.0099 55.2722 50.8225 55.172 50.6269 55.0902C50.5343 55.052 50.4164 55.0372 50.3933 54.9375C50.3701 54.8378 50.5006 54.7848 50.5806 54.7254C52.0816 53.7624 53.13 52.3923 53.9889 50.8588C54.3804 50.0971 54.6565 49.2806 54.8079 48.4365C54.8427 48.1612 54.9322 47.8958 55.071 47.656C55.1361 47.7017 55.1911 47.7606 55.2324 47.8289C55.2737 47.8972 55.3005 47.9734 55.311 48.0526C55.551 48.8311 55.8857 49.5713 56.1931 50.3221C56.791 51.7772 57.6962 52.9649 59.0709 53.7582C59.2519 53.8621 59.414 53.9957 59.6309 54.1506C59.2098 54.3012 58.9025 54.087 58.5783 54.0318C58.553 53.9427 58.4814 53.9448 58.4099 53.9448C58.3845 53.8977 58.3484 53.8573 58.3044 53.8271C58.2605 53.7969 58.21 53.7776 58.1572 53.7709L58.0162 53.65C57.9278 53.5673 57.8583 53.4591 57.7299 53.4379L57.6457 53.351L57.5594 53.2661L57.4751 53.1792L57.3888 53.0943C57.3888 53.0434 57.3572 53.0095 57.3004 53.0137C57.3019 53.0018 57.3006 52.9898 57.2966 52.9785C57.2927 52.9672 57.2861 52.957 57.2775 52.9488C57.2689 52.9405 57.2585 52.9344 57.2471 52.9309C57.2357 52.9275 57.2237 52.9268 57.212 52.9289L57.1551 52.8483L57.1278 52.8758L57.1909 52.9564L57.2688 53.0498L57.3278 53.1452L57.4183 53.2301L57.492 53.317L57.5783 53.404L57.6688 53.4888C57.7434 53.5936 57.8487 53.6722 57.9699 53.7137C57.9825 53.7964 58.0541 53.807 58.1151 53.8282C58.1791 53.9132 58.2735 53.9696 58.3783 53.9851L58.5362 54.0912ZM57.0331 56.5325L56.9004 56.6555C56.3912 57.2375 56.0606 57.9559 55.9489 58.7235C56.2219 58.0232 56.5617 57.3512 56.9636 56.717L57.0794 56.5792C57.0794 56.5431 57.1046 56.4837 57.0941 56.4773C57.0436 56.4604 57.0331 56.4986 57.0331 56.5325ZM55.7531 50.4452L55.7405 50.3221L55.6899 50.3497L55.7594 50.4388L55.7826 50.5533L55.8226 50.5194L55.7531 50.4452ZM52.45 54.8993C53.7593 55.6045 54.8149 56.7073 55.4668 58.0511C55.9299 56.6698 56.7992 55.4632 57.9593 54.5918C57.2688 54.2757 56.8057 53.7285 56.3552 53.1558C55.9047 52.5831 55.6626 51.9065 55.3699 51.2469C54.4037 53.1452 53.8458 53.8515 52.45 54.8929V54.8993ZM54.1342 57.8539C54.0184 57.0055 52.8711 55.7795 52.1679 55.718C52.9251 56.3264 53.5891 57.0439 54.1384 57.8475L54.1342 57.8539ZM55.6247 49.9934C55.6095 50.0159 55.5988 50.0411 55.5931 50.0676C55.5975 50.0939 55.6068 50.1191 55.6205 50.1418C55.6344 50.1202 55.6451 50.0967 55.652 50.0719C55.6486 50.0426 55.6408 50.0139 55.6289 49.987L55.6247 49.9934ZM55.9026 50.776L55.8857 50.7442C55.8773 50.7497 55.8696 50.7561 55.8626 50.7633C55.8626 50.7803 55.8815 50.7951 55.8899 50.81L55.9026 50.776Z" fill="#464646"/>
<path d="M68.3548 66.4653C69.3379 66.3338 70.321 66.2002 71.3021 66.0729C71.804 65.9836 72.3008 65.8675 72.7904 65.7251C72.9733 65.6483 73.1737 65.624 73.3694 65.6551C73.4178 65.7823 73.3315 65.7993 73.2473 65.829C71.5472 66.4232 69.7978 66.8633 68.0201 67.144C67.3996 67.219 66.773 67.2282 66.1507 67.1716C65.9083 67.1552 65.6745 67.0747 65.4728 66.9383C65.2623 66.8068 65.0791 66.6626 65.1002 66.3699C65.1212 66.0772 65.3549 65.9753 65.5759 65.8884C66.0728 65.6975 66.6054 65.7017 67.1254 65.6445C69.2974 65.4162 71.4316 64.9101 73.4767 64.1385C73.7623 64.0133 74.0632 63.927 74.3714 63.8819C74.4725 63.8713 74.6156 63.8458 74.6683 63.9837C74.7209 64.1216 74.6493 64.181 74.5672 64.2785C74.2115 64.7027 73.7146 64.8851 73.2494 65.1142C71.9063 65.776 70.4516 66.0178 68.9885 66.2214L68.3569 66.3147C68.0766 66.284 67.7935 66.3364 67.5422 66.4653C67.8101 66.5222 68.0869 66.5222 68.3548 66.4653Z" fill="#464646"/>
<path d="M66.5064 63.0547C66.2375 63.0794 65.9664 63.0469 65.7107 62.9593C65.578 62.9062 65.4223 62.8405 65.418 62.6835C65.4138 62.5266 65.5612 62.4332 65.6896 62.3844C65.9015 62.3049 66.1209 62.2474 66.3443 62.2126C67.6519 62.0465 68.9429 61.7677 70.2032 61.3791C70.3937 61.3235 70.5889 61.2859 70.7863 61.2667C70.8631 61.2455 70.945 61.2537 71.0161 61.2897C71.0873 61.3257 71.1426 61.387 71.1716 61.4618C71.2113 61.5463 71.2213 61.6419 71.1998 61.7329C71.1784 61.8239 71.1268 61.9048 71.0537 61.9624C70.8007 62.15 70.5151 62.2881 70.2116 62.3696C69.0134 62.7673 67.7667 62.9979 66.5064 63.0547Z" fill="#464646"/>
<path d="M61.0329 34.6287C62.1824 34.6944 63.3213 34.8132 64.4118 35.212C64.6728 35.3074 64.9528 35.3923 65.1191 35.651C65.2854 35.9098 65.2307 36.0752 64.9086 36.1028C64.5821 36.112 64.2574 36.0497 63.957 35.9204C62.8897 35.528 61.7782 35.4326 60.6624 35.352C60.5206 35.3496 60.3794 35.3319 60.2414 35.2989C60.094 35.2523 59.8414 35.2735 59.8772 35.0381C59.8904 34.9296 59.9411 34.8294 60.0204 34.7549C60.0997 34.6804 60.2026 34.6365 60.3108 34.6308C60.5403 34.6138 60.7824 34.6287 61.0329 34.6287Z" fill="#464646"/>
<path d="M64.696 37.8675C65.713 38.0106 66.6886 38.3684 67.559 38.9174C67.7148 39.015 67.8769 39.1846 67.7906 39.3649C67.7043 39.5452 67.4917 39.4773 67.3296 39.4243C66.3464 39.1019 65.3654 38.788 64.3823 38.4486C64.2202 38.3935 63.9423 38.4083 63.9613 38.1814C63.9823 37.8993 64.2644 37.8887 64.4918 37.8675C64.5402 37.8632 64.5823 37.8675 64.696 37.8675Z" fill="#464646"/>
<path d="M68.3557 66.4659C68.0888 66.5225 67.8133 66.5225 67.5464 66.4659C67.7979 66.3365 68.0814 66.2839 68.362 66.3147L68.3557 66.4659Z" fill="#646464"/>
<path d="M46.2208 49.758C45.7092 47.9912 44.6987 46.6507 42.9851 45.8277C44.4903 44.9793 45.1766 43.5773 45.646 41.9229C46.2776 43.5731 47.3702 44.6802 49.027 45.2487C47.3302 46.2965 46.6228 47.8851 46.2208 49.758Z" fill="#F8F2EA"/>
<path d="M45.5239 50.4516C44.844 49.1938 44.0713 48.006 42.9872 47.0579C42.6502 46.747 42.2769 46.4785 41.8756 46.2583C42.2335 46.1862 42.4924 46.3728 42.7409 46.5086C44.2566 47.3294 45.1176 48.6572 45.545 50.301C45.5492 50.3563 45.542 50.4119 45.5239 50.4643V50.4516Z" fill="#F8F2EA"/>
<path d="M45.0882 39.8485C45.1282 41.0957 44.5366 43.0704 43.8693 43.8551C44.4692 42.5359 44.6924 41.2251 45.0882 39.8485Z" fill="#F8F2EA"/>
<path d="M47.5049 43.3228C47.9891 43.8082 48.5146 44.25 49.0754 44.6432C48.3554 44.4715 47.8944 43.9395 47.427 43.4181C47.4256 43.4067 47.4265 43.395 47.4296 43.3839C47.4328 43.3728 47.4382 43.3624 47.4455 43.3535C47.4528 43.3446 47.4618 43.3372 47.4721 43.3319C47.4823 43.3267 47.4935 43.3235 47.5049 43.3228Z" fill="#F8F2EA"/>
<path d="M48.9491 46.3306C49.1156 45.9975 49.2315 45.8957 49.6488 45.7556C49.3832 45.989 49.3158 46.337 48.9428 46.32L48.9491 46.3306Z" fill="#F8F2EA"/>
<path d="M43.7198 44.0581C43.7309 44.0047 43.7529 43.9542 43.7844 43.9098C43.8158 43.8654 43.8561 43.828 43.9026 43.8C43.9099 43.8587 43.8994 43.9182 43.8723 43.9707C43.8453 44.0232 43.8031 44.0662 43.7513 44.094L43.7198 44.0581Z" fill="#F8F2EA"/>
<path d="M43.6471 44.3832L43.4377 44.489C43.4377 44.307 43.5424 44.3557 43.6471 44.3811V44.3832Z" fill="#F8F2EA"/>
<path d="M47.1066 42.8265C47.1736 42.8921 47.3034 42.9788 47.2218 43.055C47.1401 43.1311 47.0794 43 47.0313 42.9259L47.1066 42.8265Z" fill="#646464"/>
<path d="M47.3488 43.1743C47.3866 43.178 47.4221 43.1947 47.4492 43.2217C47.4762 43.2487 47.4933 43.2842 47.4974 43.3224C47.486 43.3232 47.4749 43.3263 47.4648 43.3316C47.4546 43.3369 47.4456 43.3442 47.4384 43.3531C47.4311 43.362 47.4257 43.3723 47.4226 43.3834C47.4194 43.3945 47.4185 43.4062 47.42 43.4176C47.3854 43.4084 47.3542 43.3893 47.3301 43.3627C47.306 43.3361 47.2899 43.303 47.2839 43.2674L47.3488 43.1743Z" fill="#646464"/>
<path d="M45.5134 50.464C45.5528 50.4348 45.5798 50.4452 45.5902 50.491C45.592 50.5028 45.592 50.5147 45.5902 50.5265L45.5321 50.4515L45.5134 50.464Z" fill="#F8F2EA"/>
<path d="M43.6567 44.1691C43.6567 44.241 43.6567 44.3108 43.6462 44.3806C43.5134 44.3024 43.5471 44.2389 43.6609 44.1691H43.6567Z" fill="#F8F2EA"/>
<path d="M47.0315 42.9262C46.9998 42.8902 46.9533 42.852 46.9934 42.7989C47.0336 42.7459 47.0759 42.7989 47.1076 42.8265L47.0315 42.9262Z" fill="#646464"/>
<path d="M47.2905 43.2677C47.2545 43.2316 47.1975 43.1955 47.2461 43.1382C47.2947 43.0809 47.3306 43.1276 47.356 43.1743L47.2905 43.2677Z" fill="#646464"/>
<path d="M46.9404 42.6313C46.9519 42.6495 46.9609 42.6691 46.9673 42.6897C46.9673 42.6897 46.9507 42.7063 46.9404 42.7167C46.9303 42.6988 46.922 42.68 46.9155 42.6605C46.9155 42.6605 46.9279 42.6418 46.9404 42.6313Z" fill="#646464"/>
<path d="M48.9416 46.3195L48.8794 46.3845C48.8794 46.3723 48.8628 46.3581 48.867 46.35C48.8836 46.3073 48.9126 46.3033 48.9479 46.3297L48.9416 46.3195Z" fill="#F8F2EA"/>
<path d="M43.6651 44.1794C43.6607 44.1679 43.6586 44.1556 43.659 44.1432C43.6594 44.1309 43.6622 44.1188 43.6673 44.1076C43.6724 44.0964 43.6797 44.0863 43.6887 44.0779C43.6977 44.0695 43.7083 44.063 43.7199 44.0588L43.7515 44.0947C43.7515 44.1476 43.7515 44.2175 43.6566 44.1688L43.6651 44.1794Z" fill="#F8F2EA"/>
<path d="M52.45 54.8929C53.8458 53.8515 54.4037 53.1452 55.3699 51.2321C55.6626 51.9002 55.9026 52.5747 56.3552 53.141C56.8078 53.7073 57.2688 54.2609 57.9593 54.5769C56.7992 55.4484 55.9298 56.655 55.4668 58.0363C54.8134 56.6956 53.758 55.5959 52.45 54.8929Z" fill="#F8F2EA"/>
<path d="M54.1384 57.8475C53.5909 57.042 52.9283 56.3223 52.1721 55.7117C52.8837 55.7732 54.0226 56.9906 54.1384 57.8475Z" fill="#F8F2EA"/>
<path d="M56.9636 56.717C56.5617 57.3512 56.2219 58.0232 55.9489 58.7235C56.0606 57.9559 56.3912 57.2375 56.9004 56.6555L56.9636 56.717Z" fill="#F8F2EA"/>
<path d="M57.7236 53.4379C57.8522 53.4676 57.9217 53.5758 58.0102 53.6501L57.9639 53.7053C57.8447 53.6663 57.7403 53.5915 57.6646 53.491C57.6862 53.4756 57.706 53.4578 57.7236 53.4379Z" fill="#F8F2EA"/>
<path d="M58.3714 53.9854C58.2669 53.9698 58.1726 53.9134 58.1088 53.8282C58.1235 53.8113 58.1361 53.7943 58.1508 53.7794C58.2035 53.7861 58.2539 53.8054 58.2977 53.8357C58.3416 53.8659 58.3776 53.9063 58.4029 53.9535L58.3714 53.9854Z" fill="#F8F2EA"/>
<path d="M55.629 49.9871C55.6419 50.0118 55.6511 50.0382 55.6565 50.0656C55.6495 50.0904 55.6388 50.114 55.6248 50.1356C55.6111 50.1128 55.6017 50.0876 55.5973 50.0613C55.603 50.0348 55.6138 50.0096 55.629 49.9871Z" fill="#646464"/>
<path d="M58.0096 53.6585L58.1499 53.7791C58.1352 53.7939 58.1227 53.8108 58.108 53.8278C58.0473 53.8066 57.9761 53.796 57.9635 53.7135L58.0096 53.6585Z" fill="#F8F2EA"/>
<path d="M55.7531 50.4452L55.8229 50.5195L55.7827 50.5535L55.7594 50.4388L55.7531 50.4452Z" fill="#646464"/>
<path d="M56.9004 56.6552L57.0323 56.5325L57.0784 56.5791L56.9632 56.7166L56.9004 56.6552Z" fill="#F8F2EA"/>
<path d="M55.9063 50.7684L55.8938 50.801C55.8938 50.7868 55.8751 50.7725 55.8668 50.7562C55.8737 50.7493 55.8814 50.7431 55.8897 50.7379L55.9063 50.7684Z" fill="#646464"/>
<path d="M58.4034 53.9534C58.4745 53.9534 58.5457 53.9534 58.5709 54.0401L58.5353 54.0909L58.3719 53.9851L58.4034 53.9534Z" fill="#F8F2EA"/>
<path d="M55.77 50.4385L55.7005 50.3496L55.751 50.3221L55.7637 50.4449L55.77 50.4385Z" fill="#646464"/>
<path d="M57.6396 53.351L57.7242 53.438C57.7057 53.4572 57.6851 53.4743 57.6629 53.4889L57.572 53.404C57.5964 53.3889 57.6191 53.3711 57.6396 53.351Z" fill="#F8F2EA"/>
<path d="M57.0331 56.5321C57.0331 56.4984 57.0436 56.4499 57.0939 56.4773C57.0939 56.4773 57.0939 56.5426 57.0792 56.5785L57.0331 56.5321Z" fill="#F8F2EA"/>
<path d="M57.5723 53.4041L57.4857 53.317C57.5096 53.302 57.5322 53.2849 57.5533 53.2661L57.64 53.351C57.6194 53.3711 57.5967 53.3889 57.5723 53.4041Z" fill="#F8F2EA"/>
<path d="M57.469 53.1792L57.5536 53.2662C57.5325 53.285 57.5099 53.3021 57.486 53.3171C57.4606 53.2874 57.4352 53.2598 57.412 53.2301C57.432 53.2144 57.4511 53.1973 57.469 53.1792Z" fill="#F8F2EA"/>
<path d="M57.3828 53.0944L57.4694 53.1792C57.4515 53.1974 57.4324 53.2144 57.4123 53.2302L57.3215 53.1453C57.3437 53.1307 57.3643 53.1136 57.3828 53.0944Z" fill="#F8F2EA"/>
<path d="M57.2942 53.0137C57.3513 53.0137 57.3745 53.0434 57.383 53.0944C57.3645 53.1136 57.344 53.1307 57.3217 53.1453L57.2625 53.0498L57.2942 53.0137Z" fill="#F8F2EA"/>
<path d="M57.2626 53.0495L57.1846 52.9564L57.2057 52.9289C57.2174 52.9268 57.2294 52.9275 57.2408 52.931C57.2522 52.9344 57.2627 52.9405 57.2713 52.9487C57.2799 52.957 57.2864 52.9671 57.2904 52.9784C57.2944 52.9896 57.2957 53.0017 57.2942 53.0135L57.2626 53.0495Z" fill="#F8F2EA"/>
<path d="M57.1844 52.9558L57.1215 52.8757L57.1488 52.8483L57.2054 52.9284L57.1844 52.9558Z" fill="#F8F2EA"/>
<defs>
<filter id="filter0_d_1_1467" x="0" y="0" width="126" height="125" filterUnits="userSpaceOnUse" color-interpolation-filters="sRGB">
<feFlood flood-opacity="0" result="BackgroundImageFix"/>
<feColorMatrix in="SourceAlpha" type="matrix" values="0 0 0 0 0 0 0 0 0 0 0 0 0 0 0 0 0 0 127 0" result="hardAlpha"/>
<feOffset dx="5" dy="4"/>
<feGaussianBlur stdDeviation="2"/>
<feComposite in2="hardAlpha" operator="out"/>
<feColorMatrix type="matrix" values="0 0 0 0 0 0 0 0 0 0 0 0 0 0 0 0 0 0 0.25 0"/>
<feBlend mode="normal" in2="BackgroundImageFix" result="effect1_dropShadow_1_1467"/>
<feBlend mode="normal" in="SourceGraphic" in2="effect1_dropShadow_1_1467" result="shape"/>
</filter>
</defs>
</svg>
