<svg width="158" height="158" viewBox="0 0 158 158" fill="none" xmlns="http://www.w3.org/2000/svg">
    <path d="M0 78.7548C0.287843 58.756 6.944 41.1474 20.4124 26.2524C31.3895 14.115 44.975 6.31886 60.7771 2.35305C65.6509 1.13017 70.6044 0.419949 75.6213 0.134228C85.995 -0.458439 96.0907 0.89996 105.881 4.43963C115.9 8.06257 124.753 13.5827 132.481 20.9298C139.057 27.1814 144.185 34.4828 148.351 42.5385C152.641 50.8358 155.429 59.5707 156.679 68.8232C157.24 72.9718 157.492 77.1385 157.356 81.3181C156.723 100.778 149.986 117.81 136.847 132.147C125.716 144.293 112.018 152.097 95.9378 155.62C91.3258 156.631 86.6585 157.264 81.9327 157.369C60.8064 157.837 42.1779 151.215 26.2929 137.22C13.6782 126.104 5.67392 112.147 1.93033 95.7315C0.769207 90.6441 0.146361 85.4815 0.0748066 80.2569C0.0683017 79.7834 0.0292721 79.3116 0.00162623 78.7564L0 78.7548Z" fill="#464646"/>
    <path d="M82.6361 149.726C71.7283 149.925 61.5548 148.126 51.7988 144.121C44.7999 141.249 38.2607 137.571 32.5696 132.522C23.2133 124.222 16.3719 114.183 12.0618 102.417C10.1788 97.2795 8.91808 91.9874 8.2471 86.56C7.58425 81.2108 7.38442 75.8389 8.11388 70.4914C9.09516 63.3005 11.1974 56.4209 14.3395 49.8754C20.5359 36.9671 29.6777 26.6534 41.7293 18.9997C49.7095 13.9325 58.3949 10.5587 67.7041 8.84898C72.2872 8.00635 76.9093 7.61029 81.5655 7.6543C88.7789 7.72275 95.8639 8.72348 102.713 11.0085C107.483 12.5993 111.925 14.943 116.13 17.7072C129.775 26.6795 139.453 38.9001 145.537 54.0267C148.177 60.59 149.821 67.4077 150.479 74.4617C150.798 77.868 150.977 81.2826 150.691 84.6938C150.351 88.7456 149.539 92.7208 148.439 96.6341C145.173 108.237 139.406 118.432 131.187 127.215C122.594 136.397 112.323 143.002 100.418 146.99C96.842 148.188 93.1118 148.781 89.3686 149.234C87.0064 149.519 84.6344 149.646 82.6361 149.728V149.726Z" fill="#F8F2EA"/>
    <path d="M81.701 142.077C72.0422 142.254 63.0336 140.649 54.3947 137.075C48.1972 134.513 42.4068 131.231 37.3673 126.725C29.0823 119.32 23.0243 110.361 19.2077 99.8622C17.5404 95.2782 16.424 90.556 15.8298 85.7131C15.2429 80.94 15.0659 76.1466 15.7119 71.3749C16.5808 64.9585 18.4424 58.8198 21.2246 52.9792C26.7115 41.461 34.8066 32.258 45.4782 25.4285C52.5447 20.907 60.2355 17.8966 68.4787 16.371C72.5371 15.6191 76.6299 15.2657 80.753 15.3049C87.1404 15.366 93.4142 16.259 99.4794 18.2979C103.703 19.7174 107.636 21.8087 111.359 24.2752C123.442 32.2813 132.012 43.1858 137.4 56.6834C139.738 62.5399 141.193 68.6233 141.776 74.9177C142.058 77.9572 142.216 81.004 141.963 84.0479C141.662 87.6633 140.943 91.2104 139.969 94.7023C137.078 105.056 131.97 114.152 124.693 121.99C117.084 130.183 107.989 136.076 97.4467 139.635C94.2803 140.704 90.9772 141.233 87.6627 141.638C85.5709 141.892 83.4705 142.006 81.701 142.078V142.077Z" fill="#464646"/>
    <path d="M19.6325 30.27C21.2928 27.7589 23.1711 25.4143 25.1779 23.1808C26.2919 21.9416 27.6173 20.913 28.9817 19.7881C26.0284 23.522 22.8215 26.8968 19.7707 30.4087C19.6503 30.4365 19.5869 30.4087 19.6325 30.27Z" fill="#F8F2EA"/>
    <path d="M123.805 22.2415C127.401 25.182 130.665 28.4539 133.563 32.0899C133.587 32.2091 133.553 32.2695 133.421 32.2254C130.323 28.7903 126.989 25.5902 123.652 22.3934C123.63 22.2693 123.672 22.2089 123.804 22.2415H123.805Z" fill="#F8F2EA"/>
    <path d="M153.37 72.94C153.762 75.9931 153.967 79.0544 153.669 82.1271C153.558 83.2798 153.383 84.426 153.236 85.5754C152.896 85.4154 153.123 85.1525 153.119 84.9305C153.3 82.0765 153.466 79.2226 153.368 76.3605C153.331 75.2649 153.282 74.1694 153.236 73.0739C153.192 72.9416 153.249 72.909 153.37 72.9384V72.94Z" fill="#F8F2EA"/>
    <path d="M85.863 150.977C84.1929 151.194 82.5244 151.418 80.8526 151.627C79.2817 151.824 77.7059 151.989 76.1366 152.208C75.7219 152.267 75.3267 152.201 74.9234 152.191C74.8047 152.188 74.5819 152.294 74.6095 152.025C74.6274 151.853 74.7673 151.787 74.9348 151.775C75.5332 151.736 76.1301 151.674 76.7301 151.653C79.4281 151.558 82.1064 151.248 84.7816 150.903C85.1377 150.858 85.4971 150.8 85.863 150.975V150.977Z" fill="#F8F2EA"/>
    <path d="M47.2033 12.074C50.4297 10.2568 53.957 9.23471 57.4616 8.1555C57.6014 8.10815 57.6356 8.17183 57.6112 8.29918C54.1473 9.49757 50.6981 10.74 47.3383 12.2127C47.2049 12.2519 47.1724 12.1948 47.2033 12.074Z" fill="#F8F2EA"/>
    <path d="M120.169 137.267C122.988 134.788 125.873 132.382 128.484 129.668C127.853 130.906 121.944 136.336 120.169 137.267Z" fill="#F8F2EA"/>
    <path d="M132.776 25.1744C134.009 26.0838 138.743 31.6644 139.403 32.933C137.022 30.497 135.151 27.6202 132.776 25.1744Z" fill="#F8F2EA"/>
    <path d="M120.549 17.6212C118.841 16.6253 117.135 15.6277 115.428 14.6317C117.309 15.3224 119.3 15.8187 120.549 17.6212Z" fill="#F8F2EA"/>
    <path d="M19.2424 34.3961C20.4116 32.7062 21.7321 31.1323 23.0429 29.5535C23.134 29.4425 23.212 29.1813 23.4283 29.3445C23.6674 29.5258 23.456 29.6711 23.3356 29.8147C22.0167 31.3886 20.6979 32.9642 19.3806 34.5397C19.2652 34.5593 19.2001 34.5283 19.244 34.3961H19.2424Z" fill="#F8F2EA"/>
    <path d="M152.386 91.8355C152.046 94.1049 151.519 96.3303 150.805 98.5115C150.766 98.5589 150.726 98.5605 150.682 98.5164C151.252 96.1605 151.833 93.8078 152.244 91.4159C152.552 91.4665 152.378 91.682 152.386 91.8338V91.8355Z" fill="#F8F2EA"/>
    <path d="M133.423 32.2261C133.47 32.1803 133.518 32.1363 133.565 32.0905C135.142 33.9094 136.518 35.8768 137.824 37.8964C137.868 38.0237 137.808 38.045 137.7 38.0188C136.383 36.0074 134.888 34.1281 133.423 32.2261Z" fill="#F8F2EA"/>
    <path d="M152.387 91.8358C152.324 91.7019 152.415 91.5142 152.246 91.4179C152.537 89.2562 152.828 87.0945 153.119 84.9328C153.201 85.1402 153.075 85.3851 153.236 85.5777C152.953 87.6643 152.67 89.7492 152.389 91.8358H152.387Z" fill="#F8F2EA"/>
    <path d="M150.051 100.98C149.696 102.777 148.944 104.439 148.316 106.144C148.205 106.444 148.077 106.738 147.956 107.035C147.849 107.05 147.773 107.039 147.844 106.901C148.574 104.901 149.342 102.913 149.95 100.87C149.999 100.852 150.048 100.836 150.08 100.893C150.093 100.916 150.075 100.949 150.053 100.98H150.051Z" fill="#F8F2EA"/>
    <path d="M151.168 57.5279C151.768 59.4006 152.345 61.2798 152.405 63.2652C151.992 61.3533 151.581 59.4414 151.168 57.5279Z" fill="#F8F2EA"/>
    <path d="M73.1995 4.82799C74.6046 4.69084 76.0031 4.4688 77.4147 4.43124C77.4212 4.50961 77.4293 4.58635 77.4358 4.66472C76.0682 4.76595 74.7005 4.86717 73.3312 4.9684C73.2011 5.00269 73.1637 4.94881 73.1979 4.82635L73.1995 4.82799Z" fill="#F8F2EA"/>
    <path d="M3.57358 77.7539V81.612C3.50528 81.612 3.43698 81.6087 3.36868 81.6071C3.07921 80.2193 3.58659 78.8576 3.57358 77.7539Z" fill="#F8F2EA"/>
    <path d="M7.57588 54.1869C7.31893 54.8889 7.05549 55.591 6.80667 56.2963C6.74162 56.4808 6.66356 56.6294 6.4489 56.5428C6.17244 56.4302 6.38223 56.2702 6.44402 56.1428C6.76114 55.4865 7.08638 54.8367 7.41 54.1836C7.46692 54.1297 7.52221 54.1314 7.57751 54.1885L7.57588 54.1869Z" fill="#F8F2EA"/>
    <path d="M61.072 6.21206C59.823 6.5239 58.5757 6.83575 57.3268 7.14922C58.4538 6.51737 59.6962 6.29859 60.9386 6.07655C61.0655 6.04063 61.1029 6.09287 61.072 6.21369V6.21206Z" fill="#F8F2EA"/>
    <path d="M6.40094 98.0071C5.80249 96.7957 5.63336 95.4634 5.45935 94.1311C5.77321 95.4226 6.08708 96.7157 6.40094 98.0071Z" fill="#F8F2EA"/>
    <path d="M19.2424 34.3956C19.2879 34.4429 19.3335 34.4919 19.379 34.5393C18.8082 35.3279 18.2374 36.1181 17.6666 36.9067C17.6178 36.874 17.5706 36.8414 17.5219 36.8087C18.0731 35.9907 18.5968 35.1532 19.2424 34.3956Z" fill="#F8F2EA"/>
    <path d="M29.6228 134.388C30.3871 134.997 31.1515 135.606 31.9158 136.215C30.7205 135.662 29.9806 135.069 29.6228 134.388Z" fill="#F8F2EA"/>
    <path d="M89.1302 3.68541C88.2618 3.6201 87.3918 3.55316 86.46 3.48295C87.4178 2.98009 88.27 3.57112 89.1465 3.5254C89.14 3.57765 89.1351 3.63153 89.1286 3.68378L89.1302 3.68541Z" fill="#F8F2EA"/>
    <path d="M105.062 10.2175C106.065 10.3465 106.935 10.7334 107.727 11.3146C106.839 10.9489 105.95 10.5832 105.062 10.2175Z" fill="#F8F2EA"/>
    <path d="M57.6114 8.2988C57.561 8.25145 57.5122 8.20247 57.4618 8.15512C58.1903 7.81879 58.9693 7.67348 59.7353 7.48245C59.7515 7.5347 59.7678 7.58694 59.784 7.63919C59.0587 7.8596 58.3351 8.07838 57.6098 8.2988H57.6114Z" fill="#F8F2EA"/>
    <path d="M93.5362 150.35C94.1558 150.165 94.7754 149.979 95.395 149.795C95.0259 150.438 94.3461 150.291 93.8046 150.49C93.6712 150.526 93.52 150.599 93.5362 150.35Z" fill="#F8F2EA"/>
    <path d="M81.5403 153.107C82.5339 153.089 83.5145 152.807 84.5179 152.996C83.5243 153.014 82.5469 153.339 81.5403 153.107Z" fill="#F8F2EA"/>
    <path d="M27.3877 130.438C27.952 130.971 28.5179 131.504 29.0822 132.037C29.0464 132.074 29.009 132.113 28.9733 132.151C28.3488 131.679 27.8024 131.127 27.3877 130.438Z" fill="#F8F2EA"/>
    <path d="M30.7902 133.71C30.1901 133.297 29.647 132.822 29.1884 132.252C29.8161 132.629 30.3641 133.103 30.8813 133.615C30.8943 133.687 30.8634 133.72 30.7902 133.71Z" fill="#F8F2EA"/>
    <path d="M9.68193 108.77C9.28513 108.119 9.02494 107.415 8.92249 106.646C9.2087 107.325 9.49492 108.006 9.78113 108.685C9.78113 108.752 9.74861 108.78 9.68356 108.772L9.68193 108.77Z" fill="#F8F2EA"/>
    <path d="M123.806 22.2416C123.756 22.2922 123.705 22.3428 123.655 22.3934C123.266 22.0375 122.878 21.6815 122.49 21.3256C123.029 21.5036 123.443 21.8383 123.808 22.2416H123.806Z" fill="#F8F2EA"/>
    <path d="M137.7 38.019C137.741 37.9781 137.783 37.9373 137.824 37.8965C138.248 38.37 138.539 38.9218 138.743 39.5357C138.395 39.0296 138.048 38.5235 137.7 38.019Z" fill="#F8F2EA"/>
    <path d="M61.0721 6.21257C61.0282 6.16686 60.9826 6.12114 60.9387 6.07542C61.5681 5.86644 62.2072 5.70644 62.8739 5.69827C62.8886 5.7146 62.9016 5.73256 62.9162 5.74889C62.3259 6.00359 61.6917 6.07542 61.0721 6.21094V6.21257Z" fill="#F8F2EA"/>
    <path d="M40.2161 140.243C40.6812 140.516 41.1479 140.788 41.613 141.059C41.0487 140.968 40.5738 140.704 40.2161 140.243Z" fill="#F8F2EA"/>
    <path d="M93.537 150.35C93.5695 150.506 93.7159 150.443 93.8053 150.49C93.2491 150.621 92.6946 150.753 92.1384 150.883C92.5645 150.573 93.0459 150.446 93.537 150.35Z" fill="#F8F2EA"/>
    <path d="M153.369 72.9405C153.325 72.9862 153.281 73.0303 153.235 73.076C153.063 72.6009 153.11 72.116 153.227 71.6245L153.369 72.9405Z" fill="#F8F2EA"/>
    <path d="M32.7687 135.269C32.3394 135.013 31.9312 134.729 31.5897 134.36C31.5864 134.296 31.619 134.274 31.6791 134.288C32.1052 134.474 32.4077 134.825 32.7655 135.103C32.8224 135.157 32.824 135.212 32.7687 135.269Z" fill="#F8F2EA"/>
    <path d="M47.2043 12.0739C47.2498 12.1196 47.2938 12.167 47.3393 12.2127C46.9962 12.4527 46.6156 12.6029 46.2009 12.6682C46.4953 12.3955 46.827 12.1964 47.2027 12.0723L47.2043 12.0739Z" fill="#F8F2EA"/>
    <path d="M73.2006 4.82745C73.2445 4.8748 73.29 4.92215 73.3339 4.9695C72.9062 5.18828 72.4606 5.08215 72.0085 4.98093C72.4053 4.93031 72.8038 4.87807 73.2006 4.82745Z" fill="#F8F2EA"/>
    <path d="M7.57595 54.1874C7.52066 54.1874 7.46374 54.1841 7.40845 54.1825C7.5727 53.8184 7.73695 53.4543 7.90119 53.0918C7.88981 53.4967 7.82476 53.8755 7.57595 54.1874Z" fill="#F8F2EA"/>
    <path d="M10.3143 47.1618C10.5111 46.7585 10.7079 46.3536 10.9047 45.9503C10.9534 45.9732 11.0039 45.996 11.0526 46.0189C10.8656 46.4271 10.7485 46.8679 10.3143 47.1618Z" fill="#F8F2EA"/>
    <path d="M148.91 59.2192C148.814 58.8339 148.718 58.4486 148.622 58.0633C148.904 58.349 149.024 58.6886 149.029 59.0674C149.091 59.198 149.029 59.2323 148.908 59.2192H148.91Z" fill="#F8F2EA"/>
    <path d="M147.843 106.902C147.881 106.946 147.918 106.992 147.956 107.036C147.835 107.377 147.7 107.71 147.375 108.073C147.495 107.589 147.64 107.235 147.843 106.902Z" fill="#F8F2EA"/>
    <path d="M19.6326 30.27C19.6781 30.3157 19.7253 30.3631 19.7708 30.4088C19.6163 30.7615 19.3366 31.0113 19.0504 31.2627C19.1659 30.8839 19.3513 30.5492 19.6326 30.27Z" fill="#F8F2EA"/>
    <path d="M9.77946 108.685C9.98436 109.044 10.1779 109.405 10.2202 109.833C9.97298 109.513 9.77133 109.172 9.68188 108.772C9.71441 108.742 9.74693 108.715 9.77946 108.685Z" fill="#F8F2EA"/>
    <path d="M32.7695 135.27C32.7695 135.214 32.7679 135.159 32.7662 135.103C33.0882 135.29 33.3826 135.51 33.6054 135.827C33.2948 135.691 32.9825 135.561 32.7695 135.272V135.27Z" fill="#F8F2EA"/>
    <path d="M147.874 54.9479C147.623 54.672 147.436 54.3732 147.503 53.8557C147.657 54.3112 147.766 54.6295 147.874 54.9479Z" fill="#F8F2EA"/>
    <path d="M148.91 59.2194C148.95 59.1688 148.989 59.1182 149.03 59.0676C149.193 59.3712 149.24 59.6994 149.189 60.0521C149.097 59.7745 149.002 59.497 148.91 59.2194Z" fill="#F8F2EA"/>
    <path d="M150.682 98.5166C150.725 98.5345 150.765 98.5313 150.806 98.5117C150.713 98.8088 150.621 99.1076 150.473 99.5827C150.421 99.0684 150.505 98.7827 150.682 98.5182V98.5166Z" fill="#F8F2EA"/>
    <path d="M62.8734 5.69994C63.2117 5.52851 63.5662 5.45341 64.0785 5.51382C63.6052 5.61015 63.2816 5.77505 62.9157 5.75056C62.9011 5.73423 62.888 5.71627 62.8734 5.69994Z" fill="#F8F2EA"/>
    <path d="M31.5901 134.361C31.3234 134.144 31.0567 133.928 30.79 133.711C30.8209 133.68 30.8502 133.647 30.8811 133.616C31.1852 133.796 31.4535 134.018 31.6796 134.289C31.6406 134.3 31.6113 134.325 31.5901 134.361Z" fill="#F8F2EA"/>
    <path d="M150.052 100.98C150.018 100.944 149.984 100.907 149.949 100.871C150.031 100.587 150.112 100.303 150.193 100.019C150.237 100.358 150.25 100.69 150.05 100.98H150.052Z" fill="#F8F2EA"/>
    <path fill-rule="evenodd" clip-rule="evenodd" d="M115.533 52.553L42.036 73.2095L56.5321 82.4526L115.533 52.553Z" stroke="#F8F2EA" stroke-width="4" stroke-miterlimit="1.5" stroke-linecap="round" stroke-linejoin="round"/>
    <path fill-rule="evenodd" clip-rule="evenodd" d="M115.533 52.553L76.2368 91.521L94.0529 100.59L115.533 52.553Z" stroke="#F8F2EA" stroke-width="4" stroke-miterlimit="1.5" stroke-linecap="round" stroke-linejoin="round"/>
    <path d="M56.5321 82.4525L68.8591 110.666L76.2369 91.521" stroke="#F8F2EA" stroke-width="4" stroke-miterlimit="1.5" stroke-linecap="round" stroke-linejoin="round"/>
    <path d="M69.4579 110.666L83.4522 95.1939" stroke="#F8F2EA" stroke-width="4" stroke-miterlimit="1.5" stroke-linecap="round" stroke-linejoin="round"/>
    <path d="M66.3839 86.0738L73.2649 82.4525" stroke="#F8F2EA" stroke-width="4" stroke-miterlimit="1.5" stroke-linecap="round" stroke-linejoin="round"/>
    </svg>
    