<svg width="48" height="48" viewBox="0 0 48 48" fill="none" xmlns="http://www.w3.org/2000/svg">
<g filter="url(#filter0_d_8060_60011)">
<path d="M0 20.345C0.0713242 15.4265 1.72065 11.0959 5.05797 7.43258C7.77796 4.4475 11.1443 2.53013 15.0599 1.55478C16.2676 1.25403 17.495 1.07936 18.7381 1.00909C21.3086 0.863326 23.8102 1.19741 26.236 2.06796C28.7187 2.95898 30.9124 4.3166 32.8273 6.12355C34.4568 7.66106 35.7274 9.45676 36.7598 11.438C37.8228 13.4786 38.5135 15.6269 38.8233 17.9024C38.9624 18.9227 39.0248 19.9475 38.991 20.9754C38.8342 25.7614 37.1647 29.9503 33.9092 33.4763C31.1509 36.4634 27.7568 38.3827 23.7723 39.2493C22.6295 39.4978 21.473 39.6536 20.302 39.6793C15.0671 39.7946 10.4512 38.1659 6.51508 34.7239C3.38931 31.9902 1.40593 28.5574 0.478315 24.5203C0.190601 23.2691 0.0362665 21.9994 0.0185362 20.7144C0.0169244 20.598 0.00725331 20.4819 0.000402962 20.3454L0 20.345Z" fill="#060000"/>
<path d="M20.4992 37.7596C17.7937 37.8086 15.2703 37.3653 12.8506 36.3787C11.1146 35.6712 9.49268 34.7649 8.0811 33.5209C5.76045 31.4763 4.06358 29.0028 2.99452 26.104C2.52749 24.8383 2.21479 23.5345 2.04836 22.1974C1.88396 20.8795 1.83439 19.556 2.01532 18.2386C2.25871 16.467 2.78014 14.772 3.55947 13.1595C5.09637 9.97923 7.36383 7.43826 10.353 5.55261C12.3323 4.30421 14.4866 3.47302 16.7955 3.0518C17.9323 2.8442 19.0787 2.74662 20.2336 2.75747C22.0228 2.77433 23.7801 3.02088 25.479 3.58384C26.6621 3.97575 27.7638 4.55317 28.8066 5.23419C32.1911 7.44468 34.5915 10.4555 36.1006 14.1822C36.7554 15.7992 37.1632 17.4789 37.3264 19.2167C37.4054 20.056 37.4497 20.8972 37.3788 21.7376C37.2946 22.7359 37.0931 23.7152 36.8203 24.6793C36.0104 27.5379 34.5799 30.0496 32.5413 32.2135C30.41 34.4758 27.8625 36.1028 24.9096 37.0854C24.0227 37.3806 23.0975 37.5267 22.169 37.6383C21.5831 37.7086 20.9948 37.7399 20.4992 37.76V37.7596Z" fill="#F8F2EA"/>
<path d="M20.2347 35.9968C17.8731 36.0401 15.6705 35.6476 13.5583 34.7739C12.043 34.1474 10.6272 33.3448 9.39502 32.2432C7.36933 30.4326 5.88813 28.2422 4.95496 25.6752C4.54728 24.5544 4.27433 23.3998 4.12906 22.2157C3.98555 21.0487 3.94228 19.8766 4.10022 18.71C4.31267 17.1411 4.76783 15.6402 5.4481 14.2122C6.78965 11.3959 8.76892 9.14578 11.3782 7.47595C13.1059 6.37044 14.9864 5.63437 17.0018 5.26136C17.9941 5.07753 18.9948 4.99112 20.0029 5.00072C21.5647 5.01565 23.0986 5.23398 24.5816 5.73252C25.6143 6.07957 26.576 6.5909 27.4863 7.19397C30.4406 9.15147 32.5359 11.8177 33.8532 15.1178C34.4248 16.5498 34.7808 18.0372 34.9232 19.5762C34.9922 20.3193 35.0309 21.0643 34.9689 21.8085C34.8954 22.6925 34.7196 23.5598 34.4814 24.4136C33.7744 26.945 32.5257 29.1692 30.7463 31.0854C28.8859 33.0888 26.6622 34.5296 24.0846 35.3997C23.3104 35.6611 22.5028 35.7905 21.6924 35.8894C21.1809 35.9516 20.6674 35.9793 20.2347 35.9971V35.9968Z" fill="#181818"/>
<path d="M5.41754 8.64725C5.82897 8.02967 6.29439 7.45306 6.79164 6.90374C7.06767 6.59897 7.39608 6.346 7.73417 6.06934C7.00239 6.98767 6.20775 7.81766 5.45179 8.68138C5.42198 8.6882 5.40626 8.68138 5.41754 8.64725Z" fill="#F8F2EA"/>
<path d="M31.2303 6.67293C32.1213 7.39611 32.93 8.2008 33.6481 9.09504C33.6541 9.12435 33.6457 9.13921 33.613 9.12837C32.8454 8.28352 32.0193 7.4965 31.1924 6.71027C31.1868 6.67976 31.1973 6.6649 31.2299 6.67293H31.2303Z" fill="#F8F2EA"/>
<path d="M38.5561 19.1416C38.6532 19.8925 38.704 20.6454 38.6302 21.4011C38.6028 21.6846 38.5593 21.9664 38.523 22.2491C38.4388 22.2098 38.4948 22.1451 38.494 22.0905C38.5387 21.3886 38.5798 20.6867 38.5557 19.9828C38.5464 19.7134 38.5343 19.444 38.523 19.1745C38.5121 19.142 38.5262 19.134 38.5561 19.1412V19.1416Z" fill="#F8F2EA"/>
<path d="M21.8286 38.3338C21.4147 38.3872 21.0013 38.4422 20.587 38.4936C20.1978 38.5422 19.8073 38.5827 19.4185 38.6366C19.3157 38.651 19.2178 38.6349 19.1178 38.6325C19.0884 38.6317 19.0332 38.6578 19.0401 38.5916C19.0445 38.5494 19.0792 38.533 19.1207 38.5301C19.269 38.5205 19.4168 38.5052 19.5655 38.5C20.234 38.4767 20.8977 38.4004 21.5606 38.3157C21.6488 38.3045 21.7379 38.2904 21.8286 38.3334V38.3338Z" fill="#F8F2EA"/>
<path d="M12.2493 4.17208C13.0488 3.72516 13.9228 3.4738 14.7912 3.20837C14.8259 3.19673 14.8343 3.21239 14.8283 3.24371C13.97 3.53844 13.1153 3.84402 12.2828 4.20621C12.2497 4.21585 12.2417 4.20179 12.2493 4.17208Z" fill="#F8F2EA"/>
<path d="M30.3294 34.9621C31.0277 34.3526 31.7426 33.7607 32.3897 33.0933C32.2334 33.3977 30.769 34.7332 30.3294 34.9621Z" fill="#F8F2EA"/>
<path d="M33.4533 7.39404C33.7588 7.6177 34.9318 8.99018 35.0954 9.30218C34.5054 8.70307 34.0416 7.99556 33.4533 7.39404Z" fill="#F8F2EA"/>
<path d="M30.4233 5.53656C30.0002 5.29162 29.5775 5.04627 29.1544 4.80133C29.6206 4.97118 30.1139 5.09325 30.4233 5.53656Z" fill="#F8F2EA"/>
<path d="M5.32082 9.66197C5.61055 9.24638 5.93776 8.85929 6.26255 8.471C6.28511 8.44369 6.30445 8.37944 6.35805 8.4196C6.41728 8.46417 6.3649 8.49991 6.33508 8.53524C6.00828 8.92233 5.68148 9.30982 5.35508 9.69731C5.32647 9.70213 5.31035 9.6945 5.32123 9.66197H5.32082Z" fill="#F8F2EA"/>
<path d="M38.3126 23.7887C38.2283 24.3469 38.0978 24.8942 37.9209 25.4307C37.9112 25.4423 37.9011 25.4427 37.8903 25.4319C38.0317 24.8524 38.1756 24.2738 38.2775 23.6855C38.3537 23.698 38.3105 23.751 38.3126 23.7883V23.7887Z" fill="#F8F2EA"/>
<path d="M33.6137 9.1283C33.6254 9.11706 33.6371 9.10621 33.6488 9.09497C34.0396 9.54229 34.3805 10.0262 34.7041 10.5229C34.715 10.5542 34.7001 10.5594 34.6735 10.553C34.3471 10.0583 33.9768 9.5961 33.6137 9.1283Z" fill="#F8F2EA"/>
<path d="M38.3125 23.7887C38.2968 23.7557 38.3194 23.7096 38.2775 23.6859C38.3496 23.1542 38.4217 22.6226 38.4939 22.0909C38.514 22.1419 38.483 22.2022 38.5229 22.2496C38.4528 22.7627 38.3826 23.2755 38.3129 23.7887H38.3125Z" fill="#F8F2EA"/>
<path d="M37.7337 26.0377C37.6459 26.4798 37.4593 26.8886 37.3038 27.3078C37.2764 27.3817 37.2445 27.4539 37.2147 27.527C37.1881 27.5306 37.1692 27.5278 37.1869 27.4941C37.3678 27.0022 37.558 26.5131 37.7087 26.0108C37.7208 26.0064 37.7329 26.0023 37.741 26.0164C37.7442 26.022 37.7398 26.0301 37.7341 26.0377H37.7337Z" fill="#F8F2EA"/>
<path d="M38.0103 15.3511C38.159 15.8116 38.3021 16.2738 38.317 16.7621C38.2146 16.2919 38.1127 15.8217 38.0103 15.3511Z" fill="#F8F2EA"/>
<path d="M18.6909 2.39006C19.0391 2.35633 19.3856 2.30172 19.7354 2.29248C19.737 2.31175 19.739 2.33063 19.7406 2.3499C19.4018 2.3748 19.0629 2.39969 18.7236 2.42459C18.6913 2.43302 18.6821 2.41977 18.6905 2.38965L18.6909 2.39006Z" fill="#F8F2EA"/>
<path d="M1.43828 20.3254V21.2742C1.42135 21.2742 1.40443 21.2734 1.3875 21.273C1.31578 20.9317 1.4415 20.5968 1.43828 20.3254Z" fill="#F8F2EA"/>
<path d="M2.42999 14.5295C2.36632 14.7022 2.30104 14.8748 2.23939 15.0483C2.22327 15.0937 2.20393 15.1302 2.15074 15.1089C2.08223 15.0812 2.13421 15.0419 2.14953 15.0105C2.2281 14.8491 2.3087 14.6893 2.38889 14.5287C2.40299 14.5154 2.41669 14.5158 2.43039 14.5299L2.42999 14.5295Z" fill="#F8F2EA"/>
<path d="M15.6858 2.73053C15.3763 2.80722 15.0672 2.88392 14.7578 2.96101C15.037 2.80562 15.3449 2.75181 15.6527 2.6972C15.6842 2.68837 15.6934 2.70121 15.6858 2.73093V2.73053Z" fill="#F8F2EA"/>
<path d="M2.13883 25.3065C1.99054 25.0085 1.94863 24.6809 1.90552 24.3532C1.98329 24.6708 2.06106 24.9889 2.13883 25.3065Z" fill="#F8F2EA"/>
<path d="M5.32062 9.66193C5.3319 9.67357 5.34319 9.68562 5.35447 9.69726C5.21303 9.89121 5.07159 10.0856 4.93015 10.2795C4.91806 10.2715 4.90638 10.2634 4.89429 10.2554C5.03089 10.0542 5.16064 9.84824 5.32062 9.66193Z" fill="#F8F2EA"/>
<path d="M7.89301 34.2541C8.0824 34.4039 8.27179 34.5536 8.46118 34.7034C8.165 34.5673 7.98166 34.4215 7.89301 34.2541Z" fill="#F8F2EA"/>
<path d="M22.6382 2.10899C22.423 2.09293 22.2075 2.07646 21.9766 2.0592C22.2139 1.93552 22.4251 2.08088 22.6423 2.06964C22.6406 2.08249 22.6394 2.09574 22.6378 2.10859L22.6382 2.10899Z" fill="#F8F2EA"/>
<path d="M26.5859 3.71558C26.8346 3.7473 27.0501 3.84246 27.2464 3.98541C27.0264 3.89547 26.806 3.80552 26.5859 3.71558Z" fill="#F8F2EA"/>
<path d="M14.8282 3.24368C14.8157 3.23203 14.8036 3.21999 14.7911 3.20834C14.9717 3.12563 15.1647 3.08989 15.3545 3.04291C15.3585 3.05576 15.3625 3.06861 15.3666 3.08146C15.1868 3.13566 15.0075 3.18947 14.8278 3.24368H14.8282Z" fill="#F8F2EA"/>
<path d="M23.7301 38.1796C23.8836 38.1342 24.0372 38.0884 24.1907 38.043C24.0992 38.2012 23.9308 38.1651 23.7966 38.2141C23.7635 38.2229 23.7261 38.241 23.7301 38.1796Z" fill="#F8F2EA"/>
<path d="M20.7575 38.8578C21.0037 38.8533 21.2467 38.7839 21.4953 38.8305C21.2491 38.8349 21.0069 38.9148 20.7575 38.8578Z" fill="#F8F2EA"/>
<path d="M7.33929 33.2828C7.47912 33.4137 7.61935 33.545 7.75918 33.6759C7.75032 33.6851 7.74105 33.6948 7.73218 33.704C7.57744 33.5879 7.44205 33.4522 7.33929 33.2828Z" fill="#F8F2EA"/>
<path d="M8.1822 34.0875C8.0335 33.9859 7.89891 33.869 7.78528 33.7289C7.94082 33.8216 8.07662 33.9381 8.20476 34.0642C8.20799 34.0818 8.20033 34.0899 8.1822 34.0875Z" fill="#F8F2EA"/>
<path d="M2.95185 27.9535C2.85353 27.7933 2.78906 27.6202 2.76367 27.4311C2.83459 27.5981 2.90551 27.7656 2.97644 27.9326C2.97644 27.9491 2.96838 27.9559 2.95226 27.9539L2.95185 27.9535Z" fill="#F8F2EA"/>
<path d="M31.2305 6.67284C31.218 6.68528 31.2056 6.69773 31.1931 6.71018C31.0968 6.62264 31.0004 6.53511 30.9045 6.44757C31.0379 6.49134 31.1407 6.57366 31.2309 6.67284H31.2305Z" fill="#F8F2EA"/>
<path d="M34.6734 10.553C34.6835 10.543 34.6939 10.5329 34.704 10.5229C34.8092 10.6393 34.8813 10.7751 34.9317 10.926C34.8455 10.8016 34.7596 10.6771 34.6734 10.553Z" fill="#F8F2EA"/>
<path d="M15.6858 2.73055C15.6749 2.71931 15.6636 2.70806 15.6527 2.69682C15.8087 2.64542 15.967 2.60607 16.1322 2.60406C16.1359 2.60808 16.1391 2.6125 16.1427 2.61651C15.9964 2.67915 15.8393 2.69682 15.6858 2.73015V2.73055Z" fill="#F8F2EA"/>
<path d="M10.5179 35.694C10.6332 35.7611 10.7488 35.8281 10.8641 35.8948C10.7243 35.8723 10.6066 35.8073 10.5179 35.694Z" fill="#F8F2EA"/>
<path d="M23.7301 38.1796C23.7382 38.2181 23.7744 38.2025 23.7966 38.2141C23.6588 38.2462 23.5214 38.2787 23.3835 38.3109C23.4891 38.2346 23.6084 38.2033 23.7301 38.1796Z" fill="#F8F2EA"/>
<path d="M38.5559 19.1416C38.545 19.1529 38.5341 19.1637 38.5228 19.175C38.4801 19.0581 38.4918 18.9389 38.5208 18.818L38.5559 19.1416Z" fill="#F8F2EA"/>
<path d="M8.67276 34.4709C8.56637 34.4079 8.46523 34.338 8.38061 34.2472C8.3798 34.2316 8.38786 34.226 8.40277 34.2296C8.50835 34.2753 8.5833 34.3617 8.67195 34.4299C8.68605 34.4432 8.68646 34.4568 8.67276 34.4709Z" fill="#F8F2EA"/>
<path d="M12.2493 4.17209C12.2606 4.18334 12.2715 4.19498 12.2827 4.20622C12.1977 4.26525 12.1034 4.30219 12.0007 4.31826C12.0736 4.2512 12.1558 4.20221 12.2489 4.17169L12.2493 4.17209Z" fill="#F8F2EA"/>
<path d="M18.691 2.39001C18.7019 2.40166 18.7132 2.4133 18.724 2.42495C18.6181 2.47876 18.5077 2.45266 18.3956 2.42776C18.494 2.41531 18.5927 2.40246 18.691 2.39001Z" fill="#F8F2EA"/>
<path d="M2.42993 14.5294C2.41623 14.5294 2.40213 14.5286 2.38843 14.5282C2.42913 14.4387 2.46983 14.3492 2.51053 14.26C2.5077 14.3596 2.49159 14.4528 2.42993 14.5294Z" fill="#F8F2EA"/>
<path d="M3.1084 12.8016C3.15716 12.7024 3.20592 12.6028 3.25467 12.5037C3.26676 12.5093 3.27925 12.5149 3.29134 12.5205C3.245 12.6209 3.21599 12.7293 3.1084 12.8016Z" fill="#F8F2EA"/>
<path d="M37.451 15.7671C37.4272 15.6723 37.4034 15.5776 37.3796 15.4828C37.4494 15.5531 37.4792 15.6366 37.4804 15.7297C37.4957 15.7619 37.4804 15.7703 37.4506 15.7671H37.451Z" fill="#F8F2EA"/>
<path d="M37.1867 27.4941C37.1959 27.505 37.2052 27.5162 37.2145 27.5271C37.1847 27.611 37.1512 27.6929 37.0706 27.782C37.1004 27.6632 37.1363 27.5761 37.1867 27.4941Z" fill="#F8F2EA"/>
<path d="M5.41739 8.64728C5.42868 8.65852 5.44036 8.67017 5.45164 8.68141C5.41336 8.76814 5.34405 8.82958 5.27313 8.89142C5.30174 8.79826 5.34768 8.71594 5.41739 8.64728Z" fill="#F8F2EA"/>
<path d="M2.97596 27.9326C3.02673 28.021 3.07469 28.1097 3.08516 28.2149C3.02391 28.1362 2.97395 28.0523 2.95178 27.9539C2.95984 27.9467 2.9679 27.9398 2.97596 27.9326Z" fill="#F8F2EA"/>
<path d="M8.67262 34.4709C8.67262 34.4573 8.67222 34.4436 8.67181 34.43C8.7516 34.4758 8.82454 34.53 8.87974 34.6079C8.80278 34.5745 8.72541 34.5424 8.67262 34.4714V34.4709Z" fill="#F8F2EA"/>
<path d="M37.1942 14.7166C37.1321 14.6488 37.0858 14.5753 37.1023 14.448C37.1406 14.56 37.1676 14.6383 37.1942 14.7166Z" fill="#F8F2EA"/>
<path d="M37.4509 15.767C37.461 15.7546 37.4707 15.7421 37.4807 15.7297C37.521 15.8044 37.5327 15.8851 37.5202 15.9718C37.4973 15.9035 37.4739 15.8353 37.4509 15.767Z" fill="#F8F2EA"/>
<path d="M37.8902 25.4318C37.9006 25.4362 37.9107 25.4354 37.9208 25.4306C37.8978 25.5037 37.8748 25.5772 37.8382 25.694C37.8253 25.5675 37.8462 25.4973 37.8902 25.4322V25.4318Z" fill="#F8F2EA"/>
<path d="M16.1321 2.60444C16.2159 2.56228 16.3037 2.54381 16.4307 2.55867C16.3134 2.58236 16.2332 2.62292 16.1426 2.61689C16.1389 2.61288 16.1357 2.60846 16.1321 2.60444Z" fill="#F8F2EA"/>
<path d="M8.38057 34.2473C8.31448 34.1939 8.2484 34.1409 8.18231 34.0875C8.18997 34.0799 8.19722 34.0718 8.20488 34.0642C8.28023 34.1084 8.34672 34.163 8.40273 34.2296C8.39306 34.2325 8.38581 34.2385 8.38057 34.2473Z" fill="#F8F2EA"/>
<path d="M37.7338 26.0377C37.7254 26.0289 37.7169 26.0196 37.7084 26.0108C37.7286 25.9409 37.7487 25.8711 37.7689 25.8012C37.7798 25.8847 37.783 25.9662 37.7334 26.0377H37.7338Z" fill="#F8F2EA"/>
</g>
<path d="M10.6764 23.8305C10.8365 23.7061 11.0346 23.6513 11.2039 23.5424C11.5657 23.3085 11.8931 23.0458 12.0898 22.6496C12.3666 22.0939 12.2506 21.5495 11.7772 21.1476C11.3149 20.755 10.7607 20.625 10.1783 20.5716C10.0223 20.5576 9.8664 20.5482 9.71044 20.5435C9.6142 20.54 9.56222 20.4971 9.56081 20.403C9.55451 20.3092 9.55875 20.2149 9.57346 20.122C9.65565 19.7455 9.69288 19.3612 9.77437 18.984C9.89028 18.4501 9.96545 17.9071 10.0554 17.3683C10.1566 16.7607 10.306 16.1622 10.5022 15.5783C10.5228 15.5183 10.5502 15.4608 10.5836 15.4069C10.6228 15.3324 10.6894 15.276 10.7694 15.2498C10.8494 15.2236 10.9365 15.2295 11.0122 15.2664C11.6634 15.5341 12.3364 15.5734 13.0262 15.4694C13.6837 15.3704 13.9212 14.9383 13.9233 14.3187C13.9204 13.8269 13.7774 13.3461 13.5109 12.9327C13.4692 12.8666 13.431 12.7984 13.3964 12.7283C13.3114 12.5541 13.3346 12.4789 13.4997 12.3771C14.0539 12.0376 14.6303 11.7358 15.225 11.4737C15.7167 11.2573 16.1825 10.9819 16.7051 10.8414C17.0971 10.7339 17.4884 10.6272 17.8994 10.6089C18.1361 10.5977 18.1558 10.6237 18.2309 10.8449C18.5 11.6352 18.9938 12.2324 19.7575 12.5906C20.1789 12.7901 20.5702 12.7206 20.9313 12.4283C21.4027 12.0476 21.704 11.5516 21.9085 10.9925C21.9085 10.9833 21.9141 10.9742 21.9169 10.9651C22.0665 10.5098 22.0574 10.4951 22.5758 10.6777C23.2439 10.9124 23.8312 11.31 24.4543 11.631C24.9951 11.915 25.5179 12.2322 26.0194 12.5808C26.096 12.6329 26.169 12.6902 26.2379 12.7522C26.4416 12.9377 26.4374 13.0929 26.2583 13.3036C25.8544 13.7792 25.5354 14.3012 25.4532 14.9348C25.3935 15.395 25.4427 15.8333 25.7553 16.2077C25.8916 16.3689 26.0728 16.4858 26.2759 16.5435C26.8709 16.7276 27.4033 16.5822 27.9028 16.2492C28.0138 16.168 28.1313 16.0961 28.2541 16.0342C28.4437 15.9485 28.5308 15.9977 28.5892 16.1951C29.0029 17.5902 29.1322 19.0332 29.3015 20.4683C29.3454 20.7979 29.351 21.1315 29.3183 21.4624C29.2832 21.7694 29.2312 21.8073 28.9102 21.7883C28.5203 21.7651 28.1297 21.7476 27.7384 21.742C27.4512 21.735 27.1649 21.7761 26.8912 21.8635C26.6805 21.9337 26.4831 22.0244 26.3489 22.2147C26.3178 22.2586 26.2984 22.3097 26.2925 22.3632C26.2866 22.4166 26.2944 22.4707 26.3152 22.5203C26.4107 22.7936 26.6039 22.9938 26.8133 23.18C27.2685 23.5839 27.8066 23.8508 28.3552 24.0988C28.5547 24.1894 28.5969 24.2899 28.4957 24.4901C28.2 25.0598 27.822 25.5775 27.4476 26.096C26.8964 26.857 26.3292 27.6047 25.7462 28.339C25.5558 28.5779 25.5284 28.5821 25.2973 28.3791C25.0219 28.1381 24.7943 27.8466 24.4957 27.6288C24.1403 27.3689 23.7609 27.1638 23.3205 27.0942C22.6882 26.9959 22.2506 27.3289 22.1698 27.9646C22.1073 28.4606 22.1663 28.9481 22.2506 29.4398C22.2998 29.7286 22.2211 29.8382 21.9253 29.8417C20.9376 29.8529 19.9584 30.0159 18.9749 30.0306C18.6763 30.0348 18.3785 30.0306 18.0806 30.0271C17.6409 30.0271 17.2004 30.0419 16.7606 30.0503C16.6335 30.0551 16.5065 30.0399 16.3841 30.0053C16.2619 29.9688 16.2092 29.9014 16.2394 29.7658C16.304 29.4806 16.363 29.1933 16.4136 28.9052C16.5006 28.4778 16.5056 28.0377 16.4284 27.6084C16.3985 27.4495 16.3415 27.297 16.2598 27.1574C16.1593 26.9931 16.094 26.9657 15.9085 27.0029C15.5817 27.0693 15.2719 27.2017 14.9981 27.3921C14.5568 27.6915 14.1504 28.0393 13.7863 28.429C13.7493 28.4747 13.7023 28.5114 13.649 28.5361C13.5956 28.5609 13.5373 28.5731 13.4785 28.5718C13.4197 28.5705 13.3619 28.5558 13.3097 28.5287C13.2575 28.5016 13.2122 28.4629 13.1772 28.4156C12.8077 27.9787 12.4417 27.5396 12.1137 27.0703C11.4744 26.1571 10.8941 25.2066 10.2949 24.2674C10.2247 24.1606 10.2696 24.0679 10.3019 23.992C10.3223 23.9502 10.3569 23.917 10.3995 23.8984C10.4421 23.8797 10.4899 23.8768 10.5345 23.8902C10.5072 23.9011 10.4827 23.918 10.4628 23.9396C10.4429 23.9612 10.428 23.987 10.4194 24.015C10.4107 24.0431 10.4084 24.0728 10.4126 24.1018C10.4168 24.1309 10.4275 24.1587 10.4438 24.1831C10.4783 24.2534 10.5078 24.3236 10.5478 24.3939C10.7586 24.7514 10.9967 25.0914 11.2377 25.4293C11.7933 26.2084 12.394 26.9544 12.8934 27.7742C13.007 27.9504 13.1388 28.114 13.2868 28.2625C13.4273 28.4114 13.4582 28.4079 13.5741 28.2344C13.8713 27.789 14.2612 27.4349 14.6728 27.1027C15.0241 26.8217 15.3943 26.5681 15.8446 26.4634C16.1993 26.3805 16.3946 26.4711 16.6061 26.8195C16.6583 26.9133 16.6982 27.0134 16.7248 27.1174C16.8899 27.6871 16.847 28.259 16.7367 28.8301C16.6995 29.0219 16.6419 29.2101 16.618 29.4033C16.5871 29.6555 16.6265 29.7819 16.9131 29.7742C17.1428 29.7686 17.3718 29.7546 17.6015 29.7517C18.5056 29.7412 19.4076 29.6773 20.3103 29.6562C20.8526 29.6443 21.3928 29.5902 21.9359 29.6105C21.9836 29.6105 22.0328 29.6 22.0813 29.5993C22.1515 29.5993 22.1733 29.5705 22.1515 29.5002C21.971 28.9853 21.9963 28.4521 22.011 27.9196C22.0258 27.3872 22.3503 27.0591 22.7718 26.7999C22.842 26.7638 22.9209 26.7485 22.9994 26.7556C23.4764 26.7626 23.8993 26.9446 24.2745 27.2129C24.6687 27.4942 25.0339 27.814 25.3647 28.1676C25.4624 28.2723 25.5256 28.2716 25.6099 28.174C25.6394 28.1409 25.6696 28.1093 25.6991 28.077C26.0419 27.6885 26.3313 27.2586 26.6369 26.8413C27.234 26.0264 27.8445 25.22 28.3173 24.3215C28.3742 24.2133 28.3573 24.1747 28.2513 24.1325C27.8461 23.9751 27.4603 23.772 27.1013 23.527C26.7535 23.2874 26.4255 23.0247 26.2281 22.6376C26.1717 22.5391 26.1499 22.4245 26.1664 22.3122C26.1828 22.1998 26.2364 22.0963 26.3187 22.018C26.4122 21.9176 26.5237 21.8357 26.6475 21.7764C27.2017 21.5094 27.7932 21.4336 28.4002 21.4434C28.5758 21.4434 28.7514 21.4701 28.9263 21.4813C29.0149 21.4877 29.0507 21.4631 29.0366 21.3549C28.9537 20.6992 28.8601 20.0466 28.7556 19.397C28.5983 18.4283 28.4269 17.4624 28.2309 16.5007C28.2126 16.4122 28.1901 16.3883 28.0988 16.4304C27.8543 16.54 27.6036 16.637 27.3563 16.7416C26.9926 16.9013 26.5976 16.9767 26.2007 16.9622C25.9899 16.9531 25.7665 16.9531 25.5944 16.8217C25.2776 16.5857 24.9622 16.1059 25.0746 15.5481C25.2017 14.9243 25.4898 14.3742 25.8108 13.8354C25.9218 13.65 26.03 13.4624 26.1389 13.2734C25.4539 13.676 25.2327 14.3974 24.9074 15.0493C24.9154 14.9758 24.928 14.9028 24.9453 14.8309C25.0978 14.1656 25.3858 13.5818 25.9436 13.1575C26.0021 13.1066 26.054 13.0485 26.0981 12.9847C26.1487 12.9194 26.1606 12.8723 26.0637 12.8175C25.3795 12.4312 24.6978 12.0403 24.0188 11.6451C23.4865 11.3363 22.9388 11.0549 22.3777 10.8021C22.1895 10.7171 22.1424 10.736 22.0967 10.9215C21.9702 11.4347 21.7522 11.9208 21.4533 12.3567C21.364 12.4902 21.2903 12.6581 21.1484 12.7255C20.7444 12.9194 20.3293 13.0571 19.867 12.8885C19.3851 12.7129 19.0423 12.3574 18.6728 12.0343C18.6314 11.9984 18.6026 11.945 18.5267 11.9352C18.8196 12.6995 19.3697 13.1154 20.2014 13.2123C19.8916 13.2545 19.6394 13.1667 19.3795 13.1245L18.9854 12.847L18.9313 12.814L18.9025 12.7838C18.892 12.7747 18.8821 12.7648 18.8723 12.755L18.8428 12.7262L18.8147 12.6946L18.7789 12.6553L18.663 12.5239C18.6597 12.5099 18.6531 12.4969 18.6438 12.4859C18.6346 12.4749 18.6228 12.4663 18.6096 12.4607C18.3286 12.1558 18.167 11.7863 18.0687 11.388C18.0266 11.2277 17.9936 11.0651 17.9696 10.9011C17.9563 10.7965 17.9071 10.7803 17.8228 10.8007C17.6191 10.8506 17.4139 10.8948 17.2137 10.9538C16.0118 11.3114 14.9039 11.872 13.8418 12.5246C13.7905 12.5562 13.7427 12.5948 13.6922 12.63C14.0954 13.0817 14.3349 13.5376 14.4249 14.0708C14.4663 14.3138 14.5127 14.5625 14.4031 14.8056C14.2903 15.0581 14.1287 15.2858 13.9275 15.4756C13.7264 15.6654 13.4897 15.8135 13.2311 15.9115C12.9724 16.0094 12.697 16.0552 12.4206 16.0463C12.1442 16.0373 11.8723 15.9738 11.6205 15.8593C11.4204 15.7689 11.2146 15.6917 11.0044 15.6282C10.9579 15.6124 10.9072 15.6133 10.8613 15.6309C10.8154 15.6485 10.777 15.6816 10.7529 15.7244C10.6249 15.9201 10.5315 16.1363 10.4769 16.3637C10.3532 16.8765 10.2338 17.3893 10.1305 17.9092C9.99636 18.5843 9.84111 19.2558 9.80388 19.9464C9.79896 20.0307 9.7828 20.1192 9.8376 20.207C9.89113 20.1399 9.92057 20.0568 9.92119 19.971C9.94612 19.63 9.99115 19.2908 10.0561 18.9552C10.2296 18.0988 10.4122 17.2446 10.6258 16.3981C10.6553 16.3904 10.6539 16.4171 10.6637 16.4311C10.5071 17.2664 10.3125 18.0932 10.1987 18.9369C10.1467 19.3387 10.0729 19.7371 10.0111 20.1382C9.9809 20.3292 10.0111 20.3616 10.1931 20.3854C10.2633 20.3939 10.3279 20.4065 10.3954 20.4185C10.9798 20.5231 11.5439 20.677 12.0673 20.9741C12.4888 21.2123 12.7045 21.5361 12.649 22.0222C12.649 22.0272 12.649 22.0321 12.649 22.037C12.6152 22.318 12.6279 22.6116 12.3876 22.8336C12.1678 23.0366 11.9556 23.246 11.6816 23.3745C11.3522 23.5291 11.0494 23.7448 10.6848 23.8213L10.6764 23.8305Z" fill="#F8F2EA"/>
<path d="M9.20255 12.5626C9.73082 12.5626 9.99777 12.8639 10.0961 13.4463C10.179 13.938 9.44912 14.5752 8.9356 14.3216C8.59279 14.1516 8.33497 13.9268 8.23311 13.5489C8.18884 13.4128 8.19028 13.2659 8.2372 13.1307C8.28413 12.9955 8.37397 12.8794 8.49303 12.8C8.69738 12.6457 8.9465 12.5624 9.20255 12.5626ZM9.17093 13.9465C9.43367 13.9465 9.60788 13.7659 9.61069 13.4891C9.61069 13.2538 9.44631 13.048 9.25453 13.0501C9.02201 13.0501 8.76279 13.3002 8.75506 13.5215C8.75295 13.5771 8.7622 13.6325 8.78224 13.6844C8.80227 13.7363 8.83268 13.7836 8.87159 13.8234C8.91051 13.8632 8.95713 13.8946 9.00859 13.9158C9.06006 13.9369 9.1153 13.9474 9.17093 13.9465Z" fill="#070606"/>
<path d="M24.5428 31.5185C24.5077 31.7995 24.4529 32.1283 24.1136 32.3179C23.9506 32.4093 23.7778 32.4029 23.6022 32.365C23.3544 32.3229 23.1289 32.196 22.9643 32.006C22.6665 31.6393 22.769 31.116 23.1863 30.8504C23.3465 30.7376 23.5307 30.6635 23.7244 30.6341C24.2049 30.5807 24.5435 30.9214 24.5428 31.5185ZM23.782 31.94C23.9661 31.94 24.1712 31.607 24.0841 31.4251C24.069 31.4004 24.0467 31.3811 24.0202 31.3696C23.8396 31.2783 23.4884 31.333 23.3458 31.4735C23.3036 31.5157 23.2509 31.5698 23.2966 31.6253C23.4209 31.7763 23.5369 31.9505 23.7792 31.9393L23.782 31.94ZM23.1976 31.378C23.3136 31.2851 23.4495 31.22 23.5947 31.1879C23.7398 31.1557 23.8905 31.1573 24.0349 31.1925C23.8024 30.9347 23.4027 31.0204 23.1976 31.378Z" fill="#070606"/>
<path d="M32.2358 27.2312C32.2427 27.3113 32.2326 27.392 32.2063 27.468C32.1592 27.6422 32.0735 27.7054 31.8902 27.7124C31.699 27.717 31.5096 27.6753 31.338 27.5909C31.0809 27.4715 30.998 27.2031 31.1104 26.8744C31.1807 26.6692 31.3135 26.5231 31.5368 26.5042C31.639 26.4888 31.7434 26.5044 31.8366 26.549C31.9297 26.5936 32.0074 26.6651 32.0595 26.7543C32.1529 26.9046 32.2583 27.0465 32.2358 27.2312ZM31.5397 26.6692C31.5958 26.6669 31.6504 26.6497 31.6977 26.6194C31.6317 26.6278 31.5537 26.5786 31.5038 26.6587C31.376 26.6728 31.3324 26.7585 31.3163 26.8695C31.3809 26.7908 31.4722 26.743 31.5397 26.67V26.6692ZM31.4694 27.0732C31.4694 27.2263 31.6317 27.4244 31.7195 27.4244C31.8396 27.4209 31.9787 27.291 31.9773 27.1842C31.9759 27.0774 31.8024 26.9636 31.638 26.9657C31.5397 26.965 31.4687 26.9966 31.4729 27.0739L31.4694 27.0732Z" fill="#070606"/>
<path d="M6.21204 27.2109C6.21204 26.9783 6.34902 26.835 6.54361 26.7346C6.81758 26.5941 7.20466 26.7634 7.36201 27.0064C7.53764 27.2769 7.36201 27.4216 7.23416 27.5839C7.08383 27.7728 6.86465 27.8185 6.63634 27.7644C6.35254 27.6984 6.20853 27.5003 6.21204 27.2109ZM6.85903 26.9404C6.66725 26.9404 6.57242 27.0106 6.5689 27.1511C6.56539 27.2916 6.72837 27.4588 6.8499 27.456C6.9644 27.456 7.07399 27.298 7.07329 27.1392C7.07259 26.9804 7.02412 26.9397 6.85903 26.9404Z" fill="#070606"/>
<path d="M14.1432 8.50355C14.3715 8.50355 14.4846 8.62578 14.4881 8.87587C14.4881 9.10067 14.3476 9.25943 14.1425 9.26435C13.8945 9.26926 13.7329 9.10137 13.6402 8.94331C13.6222 8.90835 13.6158 8.86863 13.6217 8.82978C13.6276 8.79094 13.6457 8.75495 13.6732 8.72694C13.7297 8.65677 13.8013 8.60025 13.8827 8.56157C13.964 8.52289 14.0531 8.50306 14.1432 8.50355ZM14.2134 8.73748C14.0863 8.73326 13.9584 8.82599 13.9647 8.90818C13.968 8.95781 13.9904 9.00423 14.0272 9.03765C14.0641 9.07107 14.1124 9.08888 14.1621 9.08732C14.2809 9.09575 14.3244 8.99599 14.3321 8.90537C14.3355 8.88638 14.3351 8.8669 14.3308 8.84808C14.3266 8.82927 14.3186 8.8115 14.3073 8.79584C14.296 8.78018 14.2817 8.76694 14.2652 8.75692C14.2487 8.74689 14.2304 8.74028 14.2113 8.73748H14.2134Z" fill="#070606"/>
<path d="M30.9509 18.6475C30.952 18.6988 30.9427 18.7498 30.9235 18.7975C30.9044 18.8451 30.8758 18.8884 30.8395 18.9247C30.8033 18.9611 30.7601 18.9897 30.7125 19.0089C30.6649 19.0282 30.6139 19.0376 30.5625 19.0366C30.5112 19.0357 30.4606 19.0244 30.4137 19.0034C30.3669 18.9825 30.3247 18.9522 30.2898 18.9146C30.2549 18.8769 30.228 18.8326 30.2106 18.7843C30.1932 18.736 30.1858 18.6847 30.1887 18.6334C30.1874 18.5847 30.196 18.5362 30.2139 18.4909C30.2319 18.4455 30.2588 18.4043 30.2932 18.3697C30.3275 18.3351 30.3685 18.3078 30.4137 18.2895C30.4589 18.2712 30.5074 18.2623 30.5561 18.2632C30.6076 18.2614 30.6589 18.2701 30.7069 18.2886C30.7549 18.3071 30.7987 18.3352 30.8356 18.3711C30.8724 18.407 30.9017 18.45 30.9215 18.4975C30.9413 18.545 30.9513 18.596 30.9509 18.6475ZM30.7177 18.6594C30.7114 18.5527 30.6882 18.4578 30.566 18.4613C30.545 18.4601 30.524 18.463 30.5042 18.4699C30.4844 18.4768 30.4661 18.4875 30.4505 18.5015C30.4348 18.5155 30.4221 18.5324 30.4129 18.5513C30.4038 18.5702 30.3985 18.5907 30.3974 18.6117C30.3896 18.7065 30.4894 18.8315 30.573 18.833C30.6966 18.8351 30.703 18.7402 30.7177 18.6594Z" fill="#070606"/>
<path d="M10.5956 23.8646C10.5956 23.8019 10.6423 23.8255 10.6757 23.8269C10.659 23.8625 10.6249 23.8583 10.5949 23.8646H10.5956Z" fill="#F8F2EA"/>
<path d="M10.5338 23.8898C10.5338 23.8341 10.5665 23.8536 10.5944 23.8648C10.5811 23.8892 10.5567 23.8892 10.5338 23.8898Z" fill="#F8F2EA"/>
<path d="M10.531 23.8874C10.5541 23.8874 10.5787 23.8874 10.5921 23.8621C10.6223 23.8558 10.6567 23.8621 10.6736 23.8242C11.0382 23.7476 11.3409 23.5319 11.6704 23.3774C11.9444 23.2488 12.1565 23.0395 12.3764 22.8365C12.6167 22.6145 12.604 22.3229 12.6377 22.0398C12.6377 22.0349 12.6377 22.03 12.6377 22.0251C12.6932 21.5376 12.4747 21.2151 12.0561 20.977C11.5327 20.6798 10.9686 20.526 10.3841 20.4213C10.3139 20.4094 10.25 20.3967 10.1818 20.3883C9.99637 20.3644 9.97108 20.3321 9.99988 20.141C10.0617 19.7399 10.1355 19.3416 10.1874 18.9397C10.2977 18.0968 10.4958 17.2692 10.6525 16.434C10.7305 16.3911 10.7326 16.3757 10.6869 16.1755C10.6461 16.2441 10.6221 16.3213 10.6167 16.401C10.4059 17.2439 10.2205 18.1017 10.0469 18.958C9.98203 19.2937 9.93699 19.6329 9.91207 19.9738C9.91145 20.0596 9.88201 20.1428 9.82847 20.2099C9.77368 20.122 9.78983 20.0335 9.79475 19.9492C9.83198 19.2587 9.98723 18.5871 10.1214 17.912C10.2247 17.395 10.3441 16.8822 10.4677 16.3665C10.5224 16.1392 10.6158 15.9229 10.7438 15.7273C10.7679 15.6844 10.8063 15.6513 10.8522 15.6337C10.8981 15.6162 10.9487 15.6152 10.9953 15.631C11.2055 15.6945 11.4113 15.7718 11.6114 15.8621C11.8631 15.9766 12.135 16.0401 12.4115 16.0491C12.6879 16.058 12.9633 16.0122 13.2219 15.9143C13.4806 15.8163 13.7173 15.6682 13.9184 15.4784C14.1196 15.2886 14.2812 15.0609 14.3939 14.8084C14.5035 14.5668 14.4572 14.3167 14.4157 14.0736C14.3237 13.5404 14.0849 13.0824 13.6809 12.6328C13.7315 12.597 13.7793 12.5625 13.8306 12.5274C14.8955 11.8748 16.0034 11.3142 17.2025 10.9567C17.4027 10.8976 17.6078 10.8534 17.8116 10.8035C17.8959 10.7831 17.945 10.7993 17.9584 10.904C17.9823 11.068 18.0154 11.2305 18.0574 11.3908C18.1558 11.7891 18.3138 12.1586 18.5984 12.4635L18.5681 12.493L18.5344 12.4684C18.5334 12.465 18.532 12.4617 18.5302 12.4586C18.5302 12.4586 18.5253 12.4586 18.5232 12.4586L18.5358 12.4691L18.5478 12.5113L18.6236 12.618C18.6398 12.637 18.6538 12.6609 18.6848 12.649C18.6945 12.7079 18.7224 12.7624 18.7646 12.8047C18.8068 12.847 18.8612 12.8751 18.9201 12.885C19.0241 13.0529 19.1948 13.0993 19.3725 13.1337C19.6317 13.1758 19.8846 13.2636 20.1944 13.2215C19.3606 13.1245 18.8126 12.7087 18.5197 11.9444C18.5941 11.9542 18.6243 12.0076 18.6658 12.0434C19.036 12.3666 19.3788 12.722 19.86 12.8976C20.3223 13.0662 20.7374 12.9285 21.1414 12.7347C21.2819 12.6644 21.357 12.4993 21.4462 12.3659C21.7452 11.93 21.9632 11.4438 22.0897 10.9307C22.134 10.7452 22.181 10.7262 22.3707 10.8112C22.9317 11.0641 23.4795 11.3454 24.0117 11.6542C24.6908 12.0481 25.3725 12.4389 26.0567 12.8267C26.1536 12.8815 26.1417 12.9285 26.0911 12.9939C26.047 13.0577 25.9951 13.1157 25.9366 13.1667C25.3788 13.5882 25.0936 14.1748 24.9383 14.84C24.921 14.912 24.9083 14.9849 24.9004 15.0585C25.2256 14.4066 25.4469 13.6851 26.1318 13.2826C26.023 13.4695 25.9148 13.657 25.8038 13.8446C25.4827 14.3834 25.1947 14.9335 25.0676 15.5573C24.9545 16.115 25.2706 16.5948 25.5874 16.8309C25.7595 16.9594 25.9836 16.9594 26.1937 16.9714C26.591 16.9807 26.9854 16.9 27.3472 16.7353C27.5944 16.6307 27.8452 16.5337 28.0897 16.4241C28.181 16.3834 28.2035 16.4073 28.2218 16.4944C28.4177 17.4561 28.5892 18.422 28.7465 19.3907C28.8528 20.0422 28.9465 20.6948 29.0275 21.3486C29.0416 21.4568 29.0057 21.4814 28.9172 21.475C28.7416 21.4638 28.566 21.4399 28.3911 21.4371C27.7841 21.4273 27.1926 21.5031 26.6383 21.7701C26.5146 21.8294 26.4031 21.9113 26.3096 22.0117C26.2273 22.09 26.1737 22.1935 26.1572 22.3059C26.1408 22.4182 26.1625 22.5328 26.219 22.6313C26.4164 23.0184 26.7444 23.2811 27.0922 23.5207C27.4512 23.7657 27.837 23.9688 28.2421 24.1262C28.3482 24.1684 28.3651 24.207 28.3082 24.3152C27.8354 25.2137 27.2249 26.0201 26.6278 26.835C26.3222 27.2523 26.0328 27.6822 25.69 28.0707C25.6605 28.103 25.6303 28.1346 25.6008 28.1677C25.5165 28.2653 25.4532 28.266 25.3556 28.1613C25.0264 27.8087 24.6631 27.4897 24.271 27.2088C23.8958 26.9404 23.4729 26.7585 22.9959 26.7514C22.9174 26.7443 22.8385 26.7597 22.7683 26.7957C22.3468 27.0549 22.0223 27.3809 22.0075 27.9155C21.9928 28.4501 21.9675 28.9811 22.148 29.4961C22.1726 29.5663 22.1529 29.5937 22.0778 29.5951C22.0293 29.5951 21.9801 29.6078 21.9324 29.6064C21.3893 29.586 20.8491 29.6401 20.3068 29.652C19.4041 29.6731 18.5021 29.737 17.598 29.7476C17.3683 29.7476 17.1393 29.7644 16.9096 29.77C16.623 29.7778 16.5836 29.6513 16.6145 29.3991C16.6384 29.2059 16.696 29.0177 16.7332 28.8259C16.8435 28.2548 16.8864 27.6829 16.7213 27.1132C16.6947 27.0092 16.6548 26.9091 16.6026 26.8154C16.3918 26.4641 16.1958 26.3763 15.8411 26.4592C15.3908 26.5639 15.0199 26.8161 14.6693 27.0985C14.2577 27.4307 13.8678 27.7848 13.5706 28.2302C13.4547 28.4037 13.4245 28.4072 13.2833 28.2583C13.1353 28.1099 13.0035 27.9462 12.8899 27.77C12.3905 26.9502 11.7898 26.2042 11.2342 25.4251C10.9932 25.0872 10.7551 24.7472 10.5443 24.3897C10.5043 24.3229 10.4741 24.2492 10.4403 24.1789C10.4243 24.1545 10.4138 24.1269 10.4097 24.098C10.4056 24.0691 10.408 24.0396 10.4167 24.0117C10.4253 23.9838 10.4401 23.9582 10.4598 23.9367C10.4796 23.9152 10.5039 23.8984 10.531 23.8874ZM13.8327 15.9493L13.8046 15.9802L13.7835 16.0153C13.7561 16.0272 13.747 16.0413 13.7772 16.0609C13.7252 16.0244 13.6802 16.0609 13.643 16.0848C13.4101 16.2267 13.1562 16.3305 12.8906 16.3925C12.9535 16.4062 13.0189 16.4021 13.0796 16.3806C13.3332 16.3209 13.5538 16.1909 13.7751 16.0624L13.8039 16.0174L13.8341 16.0047L13.865 15.9745L13.8868 15.95L13.9247 15.9155L13.9542 15.8853L13.9788 15.8572L14.0076 15.8256L14.0132 15.7919L13.9823 15.8059L13.9514 15.834L13.9205 15.8621L13.891 15.8909L13.8587 15.9176L13.8327 15.9493ZM14.002 15.9759L13.9753 16.0076L13.9458 16.0371C13.9254 16.0553 13.9001 16.075 13.9514 16.0862C13.9106 16.0328 13.8938 16.0806 13.8706 16.1045C13.8474 16.1284 13.7624 16.1193 13.8228 16.1902C13.827 16.1551 13.8074 16.1537 13.7828 16.1628C13.7758 16.1628 13.7701 16.1748 13.7645 16.1811L13.8235 16.1888C13.8172 16.1481 13.9008 16.153 13.8685 16.0996C13.9036 16.1431 13.9191 16.0806 13.9458 16.0855L13.9598 16.0476C13.9788 16.0476 13.9914 16.0399 13.99 16.0188C13.994 16.019 13.9979 16.0184 14.0016 16.0169C14.0053 16.0155 14.0087 16.0132 14.0114 16.0104C14.0141 16.0075 14.0162 16.004 14.0175 16.0003C14.0188 15.9965 14.0192 15.9925 14.0188 15.9886C14.0265 15.9802 14.0427 15.9654 14.042 15.9647C14.0216 15.9415 14.0146 15.9661 14.002 15.9766V15.9759ZM26.2133 23.2818H26.2379V23.2685L26.2147 23.2825C26.2147 23.2706 26.2147 23.2558 26.2147 23.246C26.2021 23.2214 26.1958 23.2509 26.1852 23.2516C26.2253 23.2193 26.1789 23.1877 26.1852 23.1568L26.1424 23.1484C26.1424 23.1125 26.1199 23.0971 26.0953 23.0781C26.0862 23.0697 26.0778 23.0606 26.0679 23.0528L26.0588 23.062L26.0841 23.0865C26.0953 23.1153 26.1002 23.1505 26.1452 23.1434C26.1494 23.154 26.1375 23.1694 26.1599 23.1758C26.1824 23.1821 26.1761 23.1603 26.1845 23.1526C26.1269 23.1863 26.1909 23.2158 26.188 23.2467C26.1993 23.2551 26.2197 23.2572 26.2133 23.2832V23.2818ZM26.0202 26.6404L26.0461 26.6166L26.0335 26.6088L26.023 26.6433L25.9808 26.6538C25.9808 26.6812 25.9246 26.7016 25.9717 26.7332C25.9569 26.7093 25.9429 26.7177 25.9316 26.7332C25.9204 26.7486 25.9141 26.7634 25.9007 26.7873C25.9166 26.7864 25.9317 26.7801 25.9436 26.7695C25.9555 26.7589 25.9634 26.7446 25.9661 26.729C25.9871 26.7051 26.0286 26.6847 25.9801 26.6503C25.9885 26.6552 25.9836 26.6812 26.0033 26.6678C26.0117 26.6643 26.0152 26.6503 26.0202 26.6404ZM26.0764 26.5505C26.1009 26.5695 26.1045 26.5428 26.115 26.5323L26.1234 26.4978C26.1164 26.4978 26.1066 26.5035 26.103 26.5091C26.0995 26.5147 26.103 26.5309 26.1171 26.5351L26.0988 26.5182L26.0799 26.5526L26.0546 26.5758L26.0749 26.5842L26.0764 26.5505ZM26.488 25.9927C26.5182 26.0054 26.5196 25.9857 26.5189 25.9646L26.5421 25.9401L26.5295 25.9337C26.5295 25.945 26.5238 25.9562 26.5217 25.9682C26.4894 25.9534 26.4915 25.9759 26.4908 25.9956L26.4627 26.0159L26.4824 26.0272L26.488 25.9927ZM25.9359 22.8561C25.9401 22.8646 25.9288 22.892 25.9555 22.8716L25.9337 22.8589C25.9401 22.8365 25.9443 22.8147 25.9183 22.8013C25.9183 22.8013 25.9092 22.8063 25.9078 22.8098C25.8979 22.8365 25.9063 22.8533 25.9359 22.8561ZM22.2759 27.0437C22.2562 27.0121 22.3286 26.9966 22.2906 26.9615C22.4311 26.9144 22.5014 26.7767 22.618 26.6987C22.488 26.7592 22.3616 26.8238 22.2941 26.9636C22.2457 26.9804 22.2759 27.0163 22.2752 27.0444L22.2555 27.024L22.2478 27.0359L22.2759 27.0437ZM22.1038 26.6538L22.0518 26.6917L22.0167 26.7149L21.4027 27.2102C21.4322 26.9811 21.4961 26.7978 21.6472 26.6622C22.1649 26.1965 22.7564 26.0082 23.4329 26.2407C24.1094 26.4732 24.6643 26.9285 25.161 27.4406C25.2544 27.5368 25.2783 27.5171 25.3303 27.4167C25.4006 27.2874 25.4806 27.1659 25.5586 27.0416C26.1122 26.1557 26.717 25.3022 27.2376 24.396C27.2643 24.3489 27.3001 24.318 27.2263 24.2716C26.9436 24.0884 26.6734 23.8863 26.4178 23.6668C26.089 23.3921 25.8087 23.083 25.6261 22.6833C25.3977 22.1867 25.5558 21.3528 26.2948 21.1456C26.8716 20.9833 27.449 20.8484 28.051 20.8646C28.1431 20.8646 28.1585 20.8519 28.1417 20.7536C27.9653 19.7139 27.7967 18.6721 27.6267 17.6317C27.593 17.4252 27.5944 17.4252 27.4069 17.5039C27.3707 17.5187 27.3336 17.5311 27.2959 17.5411C26.6278 17.7266 25.9864 17.6247 25.3696 17.343C24.9805 17.1653 24.6573 16.9018 24.4705 16.5C24.311 16.1572 24.3194 15.7975 24.3623 15.4357C24.4473 14.7108 24.6953 14.0308 25.0114 13.3802C25.0409 13.3191 25.0662 13.2805 24.9763 13.2397C24.1073 12.8288 23.2678 12.3588 22.4192 11.905C22.3258 11.8551 22.2998 11.8762 22.2703 11.9668C22.1597 12.3014 21.9911 12.6138 21.7722 12.8899C21.0746 13.7835 19.9865 14.0076 18.9974 13.4561C18.3918 13.1182 17.9914 12.6019 17.723 11.9739C17.6914 11.8994 17.6739 11.8699 17.5826 11.9113C17.1611 12.1059 16.7396 12.2914 16.3139 12.479C15.8053 12.7045 15.2735 12.8723 14.7684 13.1056C14.6827 13.1449 14.6623 13.1864 14.6904 13.2805C14.8394 13.7876 14.8998 14.3166 14.8688 14.8442C14.8379 15.4013 14.6475 15.8895 14.1755 16.2028C13.4294 16.6981 12.6209 16.8007 11.7737 16.4747C11.6718 16.4354 11.5742 16.3841 11.473 16.3342C11.3199 17.4582 11.1288 18.5667 10.8871 19.664C10.8625 19.7771 10.8801 19.8143 11.0051 19.8143C11.3344 19.8183 11.6588 19.8943 11.9556 20.037C12.8527 20.4508 13.3051 21.3282 13.0796 22.2443C12.9047 22.9594 12.4256 23.4385 11.8207 23.8108C11.6489 23.9054 11.4708 23.9881 11.2875 24.0581C11.5861 24.4395 11.8818 24.8098 12.1692 25.1856C12.7143 25.8816 13.2157 26.6108 13.6704 27.3689C13.7238 27.4595 13.7406 27.4146 13.7891 27.3647C14.3372 26.754 15.0496 26.314 15.8411 26.0974C16.4382 25.9295 16.8808 26.2688 17.0353 26.769C17.218 27.3478 17.324 27.9358 17.2461 28.5442C17.2285 28.6798 17.2713 28.6987 17.3957 28.7008C18.74 28.7136 20.0839 28.6432 21.4195 28.4901C21.5053 28.4803 21.5095 28.4458 21.5038 28.3777C21.4483 27.7539 21.6577 27.2179 22.0518 26.7437C22.0559 26.7429 22.0596 26.7408 22.0625 26.7378C22.0654 26.7348 22.0673 26.731 22.0679 26.7268L22.1171 26.6735C22.1291 26.6735 22.1466 26.6699 22.1368 26.651C22.1375 26.6454 22.1164 26.6524 22.1038 26.6538ZM12.179 25.8108C12.1699 25.8024 12.1537 25.7848 12.1509 25.7869C12.1291 25.801 12.1397 25.8178 12.1509 25.8333L12.1874 25.8895C12.1966 25.9014 12.2022 25.9274 12.224 25.9099C12.2457 25.8923 12.224 25.8789 12.2155 25.8656L12.179 25.8108ZM12.0596 25.6373L12.035 25.6022L12.0006 25.5488L11.9718 25.534L11.9809 25.5684L12.0181 25.6197L12.0392 25.657L12.0736 25.7103C12.0814 25.7377 12.1052 25.7771 12.1221 25.7644C12.1593 25.7356 12.1151 25.7118 12.0982 25.6879L12.0596 25.6373ZM26.2976 26.2189C26.3061 26.2435 26.3222 26.2463 26.337 26.2281C26.3517 26.2098 26.3791 26.2035 26.337 26.1578C26.3236 26.1789 26.311 26.1986 26.2997 26.2189L26.292 26.2562L26.3131 26.2442L26.2976 26.2189ZM26.2211 26.4163C26.2154 26.3939 26.2007 26.3826 26.1817 26.3981C26.158 26.4259 26.1368 26.4557 26.1185 26.4873C26.1754 26.4473 26.1972 26.4325 26.2169 26.417L26.2112 26.3798C26.2049 26.3798 26.1937 26.384 26.193 26.3882C26.188 26.4107 26.2014 26.4178 26.2211 26.4163ZM12.408 25.8171C12.3827 25.8515 12.408 25.8656 12.434 25.8775C12.4417 25.9068 12.4551 25.9343 12.4734 25.9584C12.4917 25.9825 12.5146 26.0028 12.5408 26.018C12.505 25.9724 12.5106 25.8895 12.4298 25.8818C12.4551 25.8473 12.4333 25.8326 12.4045 25.8213C12.4034 25.8027 12.3976 25.7846 12.3877 25.7687C12.3777 25.7529 12.364 25.7398 12.3476 25.7307C12.3476 25.6998 12.3153 25.6605 12.3026 25.6717C12.2661 25.7054 12.3188 25.723 12.3321 25.749C12.3567 25.7708 12.3462 25.8333 12.408 25.8171ZM12.4038 26.2007C12.4042 26.2194 12.4098 26.2377 12.42 26.2535C12.4301 26.2692 12.4445 26.2818 12.4614 26.2899C12.494 26.3842 12.5596 26.4635 12.6462 26.5133L12.4755 26.2794C12.4668 26.2423 12.4445 26.21 12.4129 26.1887C12.3919 26.1543 12.3982 26.0827 12.3237 26.122C12.3616 26.122 12.356 26.1002 12.3469 26.0777C12.3469 26.0707 12.33 26.0609 12.3279 26.0623C12.3047 26.0806 12.3279 26.1016 12.3279 26.122L12.4038 26.2007ZM26.0026 22.9264H25.964C25.9696 22.9327 25.9731 22.9432 25.9794 22.9453C25.9984 22.951 25.9998 22.9341 26.0033 22.9222C25.9506 22.9826 26.0096 23.0015 26.0476 23.0275C26.0328 22.9931 26.018 22.9594 26.0026 22.9264ZM14.9159 12.9082C14.9368 12.9117 14.9583 12.9087 14.9774 12.8995C14.9966 12.8903 15.0124 12.8754 15.0227 12.8569C14.9679 12.8281 14.9335 12.8569 14.899 12.8913L14.8562 12.9271C14.8836 12.9419 14.8962 12.9152 14.9159 12.9082ZM15.2116 12.7508C15.1702 12.7599 15.1266 12.7663 15.1035 12.8126C15.159 12.8393 15.1955 12.7965 15.2376 12.7789C15.251 12.7649 15.2959 12.7698 15.2735 12.7375C15.251 12.7052 15.2299 12.7311 15.2088 12.7508H15.2116ZM26.9896 23.9106C26.9748 23.8747 26.9257 23.8761 26.9193 23.8902C26.9095 23.926 26.9615 23.9049 26.9741 23.9281C27.0647 24.0098 27.1783 24.0616 27.2994 24.0764C27.2036 24.0082 27.0995 23.9525 26.9896 23.9106ZM16.6784 26.5948C16.6862 26.6046 16.6932 26.6229 16.7016 26.6236C16.7269 26.6236 16.7143 26.6039 16.7108 26.5962C16.6988 26.5709 16.6862 26.58 16.6756 26.5997C16.7164 26.5772 16.6925 26.5498 16.6756 26.5294C16.6331 26.4688 16.5751 26.4205 16.5077 26.3898C16.4402 26.359 16.3658 26.3469 16.2921 26.3545C16.4375 26.41 16.5801 26.4662 16.6784 26.5948ZM28.1571 19.7806C28.1142 19.4097 28.0504 19.0415 27.966 18.6777C27.9981 19.0565 28.0499 19.4333 28.1213 19.8066C28.1571 20.1108 28.1915 20.4157 28.2309 20.7199C28.2379 20.7754 28.2161 20.8849 28.292 20.873C28.384 20.8597 28.311 20.7683 28.3018 20.717C28.2463 20.4058 28.1915 20.0946 28.1571 19.7806ZM12.2254 25.5867C12.2352 25.6155 12.2478 25.664 12.2802 25.6408C12.3125 25.6176 12.2612 25.5909 12.2443 25.5705L11.5074 24.5063L11.4695 24.5323C11.7168 24.8842 11.9591 25.2439 12.2254 25.5867ZM11.832 20.2836C11.8088 20.271 11.7849 20.2576 11.7659 20.2899L11.8158 20.3047C11.8425 20.3489 11.8917 20.3616 11.9324 20.3862C12.291 20.6001 12.5795 20.9137 12.7628 21.2889C12.7877 21.3697 12.8285 21.4447 12.8829 21.5095C12.7326 20.9018 12.3659 20.5211 11.832 20.2836ZM10.519 19.8572C10.8 18.8456 10.9799 17.8101 11.1709 16.7782C10.8794 17.7891 10.6005 18.8007 10.519 19.8572ZM12.205 20.9538C11.9978 20.5042 10.4895 20.0047 10.2612 20.2977C10.4277 20.3265 10.5921 20.3855 10.7529 20.3777C11.3227 20.3511 11.7666 20.6061 12.2078 20.9538H12.205ZM17.5973 11.6774C16.9271 11.9984 16.2534 12.3097 15.5776 12.6145C16.2717 12.3491 16.9465 12.036 17.5973 11.6774ZM14.5906 12.7023C15.0241 12.5394 15.4582 12.3743 15.8551 12.1263C15.4089 12.2579 14.9833 12.4514 14.5906 12.7009V12.7023ZM28.1346 19.1393C28.1557 18.866 27.9344 17.7237 27.8473 17.5889C27.9457 18.1242 28.0398 18.6321 28.1346 19.1393ZM27.1441 25.3507C27.22 25.3415 27.2319 25.2804 27.2572 25.2383C27.3612 25.0676 27.4603 24.8941 27.56 24.7205C27.5937 24.6615 27.6211 24.599 27.6527 24.5386C27.6647 24.5147 27.6703 24.4894 27.6457 24.474C27.6211 24.4585 27.6022 24.481 27.5902 24.5028C27.5783 24.5245 27.5579 24.5625 27.5424 24.5927L27.1441 25.3507ZM25.8937 26.8147C25.6879 27.0795 25.4645 27.3317 25.3219 27.6394C25.5593 27.397 25.7167 27.0992 25.893 26.8147H25.8937ZM26.8659 17.4294C26.6396 17.3918 26.4091 17.3855 26.181 17.4104C26.4067 17.4525 26.6376 17.4589 26.8652 17.4294H26.8659ZM20.9882 28.6777C21.1547 28.7149 21.3198 28.6889 21.4842 28.6882C21.513 28.6882 21.5622 28.7079 21.5544 28.6496C21.5467 28.5913 21.5074 28.6088 21.4757 28.6123C21.3163 28.6341 21.1547 28.6566 20.9882 28.6777ZM25.9288 21.6064L26.3573 21.3135C26.2683 21.3264 26.1834 21.3595 26.1091 21.4103C26.0349 21.4611 25.9732 21.5281 25.9288 21.6064ZM18.0188 29.0942V29.0851C17.8586 29.0746 17.6992 29.0619 17.539 29.0542C17.5144 29.0542 17.4624 29.0247 17.4687 29.0879C17.4687 29.135 17.5095 29.1336 17.5453 29.1308L18.0188 29.0942ZM19.2924 28.9537V28.9411H18.5808V28.9537H19.2924ZM11.2552 24.1663C11.2644 24.3068 11.3466 24.3595 11.4189 24.4185C11.4189 24.4185 11.4189 24.4185 11.4189 24.422C11.3844 24.3255 11.3284 24.238 11.2552 24.1663ZM24.8835 16.1474C24.8983 16.3953 24.8983 16.3953 25.0135 16.4283C24.9734 16.3412 24.9327 16.2576 24.8814 16.1474H24.8835ZM20.5836 13.2931C20.4487 13.304 20.3151 13.3275 20.1846 13.3634C20.3518 13.3978 20.467 13.3873 20.5836 13.2931ZM14.6258 13.0325C14.6516 13.0359 14.6779 13.0317 14.7014 13.0203C14.7248 13.009 14.7445 12.991 14.7578 12.9686C14.7319 12.9662 14.7059 12.971 14.6826 12.9826C14.6592 12.9941 14.6396 13.0119 14.6258 13.0339V13.0325ZM23.0908 11.8804C23.0297 11.8242 22.9945 11.7856 22.9116 11.7996C22.9342 11.825 22.9617 11.8454 22.9926 11.8596C23.0234 11.8737 23.0568 11.8813 23.0908 11.8818V11.8804ZM23.9534 12.4347C23.9389 12.4074 23.917 12.3847 23.8901 12.3693C23.8633 12.3539 23.8326 12.3463 23.8017 12.3476C23.8153 12.3758 23.837 12.3992 23.8641 12.415C23.8911 12.4308 23.9222 12.4381 23.9534 12.4361V12.4347ZM23.645 12.2661C23.7083 12.3251 23.7392 12.3694 23.8094 12.342C23.7929 12.3143 23.7683 12.2923 23.7389 12.279C23.7095 12.2657 23.6768 12.2617 23.645 12.2675V12.2661ZM26.4599 26.0426C26.4065 26.0637 26.3974 26.1023 26.3503 26.1592C26.4255 26.1255 26.4487 26.0988 26.4599 26.044V26.0426ZM25.8403 22.6587C25.8494 22.5955 25.8403 22.5569 25.7897 22.5351C25.7729 22.5878 25.7939 22.6215 25.8403 22.6601V22.6587ZM26.2681 26.2829C26.2549 26.2965 26.2427 26.3111 26.2316 26.3264C26.2316 26.3299 26.2372 26.3412 26.24 26.3482C26.2531 26.3355 26.2653 26.3219 26.2766 26.3075C26.2766 26.3075 26.2723 26.2948 26.2681 26.2843V26.2829ZM12.5541 26.0784L12.5949 26.115C12.5949 26.1065 12.6054 26.0953 12.6026 26.0911C12.5911 26.0767 12.5787 26.0631 12.5654 26.0504L12.5541 26.0784ZM26.5632 25.8782L26.5491 25.9007C26.5564 25.9039 26.5639 25.9065 26.5716 25.9084C26.5716 25.9084 26.5786 25.8993 26.5772 25.8972C26.5734 25.8905 26.5686 25.8844 26.5632 25.8789V25.8782ZM12.6293 26.1719C12.6327 26.1644 12.6355 26.1566 12.6377 26.1487C12.6377 26.1487 12.63 26.1403 12.6293 26.141C12.6286 26.1417 12.6138 26.1508 12.6145 26.1536C12.6152 26.1564 12.6237 26.1663 12.6293 26.1726V26.1719ZM12.271 25.9457L12.2429 25.9253C12.2364 25.9352 12.2316 25.9461 12.2289 25.9576C12.2289 25.9632 12.2401 25.9731 12.2478 25.9752C12.2668 25.9815 12.2717 25.9689 12.271 25.9464V25.9457ZM22.9074 11.7687C22.8941 11.7673 22.8807 11.7673 22.8674 11.7687C22.8533 11.7722 22.8533 11.7814 22.8674 11.787C22.8751 11.7911 22.884 11.7926 22.8927 11.7912C22.8969 11.7905 22.8997 11.7807 22.9074 11.7687ZM15.3662 12.722C15.3599 12.7122 15.3543 12.6988 15.3514 12.6995C15.3387 12.7035 15.3262 12.7085 15.3142 12.7143C15.3191 12.7206 15.3233 12.7333 15.3276 12.7333C15.3407 12.7306 15.3537 12.7269 15.3662 12.722ZM25.7462 22.3918L25.7413 22.3791L25.737 22.3918H25.7462ZM25.7841 22.4782L25.7743 22.4557C25.7687 22.4634 25.7595 22.4705 25.7581 22.4789C25.7567 22.4873 25.7659 22.4922 25.7708 22.4993L25.7841 22.4782ZM14.0631 15.9296C14.0666 15.9296 14.0722 15.924 14.0729 15.9204C14.0736 15.9169 14.068 15.9134 14.0652 15.9099C14.0624 15.9064 14.0561 15.9155 14.0554 15.919C14.0546 15.9226 14.0603 15.9261 14.0631 15.9296ZM25.8733 22.6939C25.8698 22.6939 25.8663 22.684 25.8642 22.6847C25.8575 22.6868 25.8511 22.6899 25.8452 22.6939C25.8452 22.6974 25.8523 22.7037 25.8544 22.703C25.8611 22.7008 25.8675 22.6977 25.8733 22.6939ZM25.8902 22.7641C25.8937 22.7641 25.8993 22.7578 25.8993 22.7543C25.8993 22.7508 25.8937 22.7472 25.8909 22.7437L25.8804 22.7592L25.8902 22.7641ZM14.8056 12.9496L14.7965 12.9391C14.7926 12.9447 14.7895 12.9509 14.7873 12.9573C14.7873 12.9573 14.793 12.963 14.7958 12.9665L14.8056 12.9496ZM15.0655 12.8442L15.0747 12.8344C15.0687 12.8303 15.062 12.8275 15.055 12.826C15.055 12.826 15.0494 12.8309 15.0459 12.8344L15.0655 12.8442ZM24.0384 12.4761L24.0293 12.4825C24.0293 12.4825 24.0342 12.4895 24.037 12.4902C24.0398 12.4909 24.0426 12.4902 24.0462 12.4846L24.0384 12.4761ZM23.99 12.4502C23.99 12.4466 23.9836 12.441 23.9801 12.441C23.9766 12.441 23.9731 12.4466 23.9696 12.4494L23.985 12.46C23.985 12.46 23.99 12.4558 23.99 12.4502ZM23.1666 11.9247C23.1631 11.9247 23.1603 11.9163 23.1575 11.9163C23.1547 11.9163 23.1505 11.9205 23.147 11.9233C23.1435 11.9261 23.1533 11.9317 23.1561 11.9317C23.1589 11.9317 23.1645 11.9296 23.168 11.9268L23.1666 11.9247ZM23.1097 11.8903L23.0992 11.8797C23.0957 11.8858 23.0927 11.8922 23.0901 11.8987C23.0901 11.8987 23.0964 11.905 23.0992 11.9078L23.1097 11.8903ZM12.6644 26.5632L12.6546 26.5526C12.6512 26.5587 12.6484 26.565 12.6462 26.5716C12.6462 26.5716 12.6518 26.5779 12.6546 26.5814L12.6644 26.5632Z" fill="#070606"/>
<path d="M19.3711 13.1273C19.1934 13.0929 19.0199 13.0466 18.9187 12.8787C18.9377 12.8681 18.9693 12.8836 18.977 12.8499L19.3711 13.1273Z" fill="#646464"/>
<path d="M10.6146 16.4012C10.62 16.3214 10.6441 16.2441 10.6849 16.1754C10.7306 16.3758 10.7285 16.3913 10.6504 16.4342C10.6427 16.4201 10.6427 16.3934 10.6146 16.4012Z" fill="#646464"/>
<path d="M18.6546 12.5267L18.7706 12.6611L18.7411 12.6786L18.6841 12.6463C18.6801 12.6341 18.6714 12.624 18.6599 12.6182C18.6484 12.6124 18.6351 12.6113 18.6229 12.6153C18.6461 12.5907 18.6067 12.5443 18.6546 12.5267Z" fill="#070606"/>
<path d="M18.6547 12.5268C18.6069 12.5444 18.6462 12.5901 18.6265 12.6161L18.5506 12.5099C18.5583 12.5055 18.5652 12.4998 18.571 12.493L18.6012 12.4635C18.6145 12.4691 18.6262 12.4777 18.6355 12.4887C18.6448 12.4997 18.6514 12.5128 18.6547 12.5268Z" fill="#646464"/>
<path d="M18.9767 12.8497C18.969 12.8832 18.9376 12.8679 18.9187 12.8784V12.8182L18.9767 12.8497Z" fill="#070606"/>
<path d="M18.7702 12.6609L18.8058 12.6999L18.8023 12.7041C18.7966 12.7069 18.7904 12.7085 18.7841 12.7087C18.7778 12.7089 18.7715 12.7077 18.7657 12.7053C18.7599 12.7028 18.7547 12.6991 18.7504 12.6945C18.7461 12.6898 18.7429 12.6843 18.741 12.6783L18.7702 12.6609Z" fill="#070606"/>
<path d="M18.8941 12.7866L18.9228 12.8168C18.9025 12.8168 18.8906 12.8104 18.8934 12.788L18.8941 12.7866Z" fill="#070606"/>
<path d="M18.8618 12.7578C18.8716 12.7676 18.8814 12.7774 18.8919 12.7865L18.8884 12.79C18.8665 12.79 18.8566 12.7802 18.859 12.7606L18.8618 12.7578Z" fill="#070606"/>
<path d="M18.8344 12.7311L18.8635 12.7595C18.842 12.7595 18.8309 12.7533 18.8351 12.7304L18.8344 12.7311Z" fill="#070606"/>
<path d="M18.8063 12.6974L18.8343 12.7289C18.811 12.7327 18.8012 12.7228 18.8049 12.6995L18.8063 12.6974Z" fill="#070606"/>
<path d="M9.17093 13.9464C9.11529 13.9473 9.06005 13.9369 9.00859 13.9157C8.95712 13.8946 8.91051 13.8631 8.87159 13.8234C8.83267 13.7836 8.80227 13.7363 8.78223 13.6844C8.76219 13.6325 8.75295 13.577 8.75505 13.5214C8.75927 13.3001 9.022 13.0522 9.25452 13.05C9.4463 13.05 9.61279 13.2538 9.61069 13.4891C9.60788 13.7659 9.43366 13.9464 9.17093 13.9464Z" fill="#F8F2EA"/>
<path d="M23.7792 31.9393C23.5341 31.9506 23.4181 31.7763 23.2938 31.6246C23.2481 31.5691 23.3008 31.515 23.343 31.4729C23.4835 31.3324 23.8347 31.2776 24.0174 31.3689C24.0439 31.3804 24.0662 31.3998 24.0813 31.4244C24.1712 31.6063 23.9661 31.9421 23.7792 31.9393Z" fill="#F8F2EA"/>
<path d="M23.1976 31.378C23.4027 31.0204 23.8024 30.9347 24.0349 31.1925C23.8905 31.1573 23.7399 31.1557 23.5947 31.1879C23.4495 31.22 23.3136 31.2851 23.1976 31.378Z" fill="#F8F2EA"/>
<path d="M31.4729 27.0739C31.4687 26.9966 31.5431 26.965 31.6415 26.9636C31.8059 26.9636 31.9801 27.0724 31.9808 27.182C31.9815 27.2916 31.8403 27.4188 31.723 27.4223C31.6352 27.4251 31.4736 27.227 31.4729 27.0739Z" fill="#F8F2EA"/>
<path d="M31.5399 26.6699C31.4695 26.7403 31.3809 26.7909 31.3162 26.8697C31.3324 26.7593 31.376 26.6735 31.504 26.6587L31.5399 26.6699Z" fill="#F8F2EA"/>
<path d="M31.5397 26.67L31.5038 26.6594C31.5537 26.5793 31.6318 26.6285 31.6979 26.6201C31.6505 26.6504 31.5959 26.6677 31.5397 26.67Z" fill="#646464"/>
<path d="M6.85904 26.9404C7.02413 26.9404 7.07611 26.9874 7.07681 27.1385C7.07751 27.2895 6.96793 27.4532 6.85342 27.4553C6.72838 27.4553 6.5654 27.2832 6.57242 27.1504C6.57945 27.0176 6.66726 26.9404 6.85904 26.9404Z" fill="#F8F2EA"/>
<path d="M14.2113 8.7375C14.2302 8.74056 14.2483 8.74735 14.2646 8.75749C14.2808 8.76762 14.2949 8.78089 14.3059 8.79653C14.317 8.81216 14.3248 8.82984 14.3289 8.84853C14.3331 8.86723 14.3335 8.88656 14.33 8.9054C14.3223 8.99602 14.2787 9.09577 14.16 9.08734C14.1103 9.08891 14.0619 9.0711 14.0251 9.03768C13.9883 9.00426 13.9659 8.95784 13.9626 8.90821C13.9563 8.82602 14.0849 8.73329 14.2113 8.7375Z" fill="#F8F2EA"/>
<path d="M30.7177 18.6594C30.703 18.7402 30.6967 18.8351 30.573 18.833C30.4894 18.833 30.3897 18.7065 30.3974 18.6117C30.3986 18.5907 30.4039 18.5702 30.413 18.5513C30.4221 18.5324 30.4348 18.5155 30.4505 18.5015C30.4662 18.4875 30.4844 18.4768 30.5042 18.4699C30.5241 18.463 30.545 18.4601 30.566 18.4613C30.6882 18.4578 30.7114 18.5527 30.7177 18.6594Z" fill="#F8F2EA"/>
<path d="M22.0546 26.7416C21.6605 27.2157 21.4512 27.7517 21.5067 28.3756C21.5123 28.4458 21.5067 28.4781 21.4224 28.488C20.0867 28.641 18.7429 28.7114 17.3985 28.6987C17.2742 28.6987 17.2313 28.6776 17.2489 28.542C17.3276 27.9337 17.2215 27.3478 17.0381 26.7669C16.8808 26.2667 16.4382 25.9274 15.8439 26.0953C15.0526 26.3122 14.3404 26.7524 13.7926 27.3633C13.7477 27.4131 13.7273 27.4581 13.6739 27.3675C13.2192 26.6093 12.7178 25.8801 12.1727 25.1841C11.8854 24.8083 11.5896 24.4381 11.2911 24.0566C11.4743 23.9866 11.6525 23.904 11.8243 23.8094C12.4291 23.4364 12.9082 22.958 13.0831 22.2428C13.3072 21.3296 12.8548 20.4494 11.9591 20.0356C11.6623 19.8953 11.3384 19.8214 11.0101 19.8192C10.885 19.8192 10.8696 19.782 10.8921 19.6689C11.1337 18.5716 11.3248 17.4659 11.4779 16.3391C11.5791 16.3855 11.6767 16.4367 11.7786 16.4796C12.6258 16.8056 13.4344 16.703 14.1804 16.2077C14.6525 15.8944 14.8429 15.4062 14.8738 14.8491C14.9047 14.3215 14.8444 13.7925 14.6953 13.2854C14.6672 13.1912 14.6876 13.1498 14.7733 13.1105C15.2791 12.8772 15.8109 12.7093 16.3188 12.4838C16.7403 12.2963 17.1674 12.1108 17.5875 11.9162C17.6774 11.8748 17.695 11.9043 17.728 11.9787C17.9963 12.6068 18.3968 13.1231 19.0023 13.461C19.9914 14.0125 21.0796 13.7884 21.7771 12.8948C21.9961 12.6187 22.1647 12.3063 22.2752 11.9717C22.3047 11.8811 22.3307 11.86 22.4241 11.9099C23.2727 12.3609 24.1101 12.8309 24.9812 13.2446C25.0711 13.2875 25.0458 13.3261 25.0163 13.3851C24.7002 14.0384 24.4543 14.7156 24.3672 15.4406C24.3244 15.801 24.3159 16.1621 24.4754 16.5049C24.6623 16.9074 24.9854 17.1708 25.3746 17.3479C25.9914 17.6289 26.6327 17.7314 27.3008 17.546C27.3386 17.536 27.3757 17.5236 27.4118 17.5087C27.5994 17.4301 27.598 17.4301 27.6317 17.6366C27.8017 18.677 27.9703 19.7188 28.1466 20.7585C28.1635 20.8568 28.1466 20.8716 28.056 20.8695C27.4533 20.8533 26.8758 20.9882 26.2998 21.1504C25.5622 21.3577 25.4027 22.1915 25.631 22.6882C25.8136 23.0872 26.0939 23.3963 26.4227 23.6717C26.6784 23.8912 26.9485 24.0933 27.2313 24.2765C27.305 24.3229 27.2692 24.3538 27.2425 24.4009C26.722 25.3071 26.1185 26.1606 25.5636 27.0464C25.4856 27.1708 25.4034 27.2923 25.3352 27.4216C25.2833 27.522 25.2594 27.5417 25.1659 27.4455C24.6693 26.9333 24.1221 26.4838 23.4378 26.2456C22.7536 26.0075 22.1698 26.1985 21.6521 26.6671C21.5011 26.8027 21.4371 26.986 21.4076 27.215L22.0216 26.7198L22.0546 26.7416ZM23.7715 22.4845L23.7378 22.4599C23.7708 22.3791 23.8024 22.2976 23.8382 22.2175C24.1669 21.4967 24.3575 20.7206 24.4002 19.9295C24.4087 19.7588 24.4066 19.5846 24.3089 19.4343C24.2625 19.364 24.1916 19.3022 24.0982 19.3408C24.0047 19.3795 24.0532 19.461 24.0623 19.5235C24.1031 19.819 24.1031 20.1187 24.0623 20.4142C23.9464 21.2881 23.6619 22.1108 23.2805 22.9011C23.2425 22.9804 23.225 23.0345 23.2959 23.1041C23.3669 23.1736 23.4294 23.1427 23.4933 23.1041C23.6699 22.9986 23.8202 22.8545 23.9331 22.6826C24.304 22.1677 24.4691 21.5712 24.6082 20.9657C24.6509 20.7621 24.657 20.5526 24.6264 20.3468C24.5653 20.3644 24.5688 20.4114 24.5527 20.443C24.389 20.762 24.3019 21.1076 24.1972 21.4476C24.0911 21.8073 23.9935 22.1726 23.7715 22.4845ZM19.494 16.3293C18.6282 16.329 17.7822 16.5887 17.0655 17.0746C15.0859 18.377 14.6005 20.9334 15.9956 22.8027C16.7522 23.815 17.7905 24.3784 19.0438 24.5294C20.1396 24.6615 21.1435 24.3995 21.9837 23.6822C23.213 22.6327 23.7287 21.2888 23.4638 19.678C23.1393 17.7293 21.4744 16.3328 19.494 16.3293ZM19.3992 15.0339C19.1754 15.0379 18.9519 15.0536 18.7297 15.0809C18.1356 15.1671 17.5613 15.3573 17.0332 15.6429C16.9634 15.6731 16.9023 15.7204 16.8557 15.7804C16.809 15.8405 16.7783 15.9113 16.7663 15.9864C16.7466 16.1368 16.7958 16.1874 16.9447 16.1487C17.0016 16.1333 17.0564 16.1122 17.1112 16.0918C17.3346 16.0089 17.5566 15.9197 17.7821 15.8424C18.5 15.5966 19.2475 15.4863 19.9928 15.3662C20.1024 15.3486 20.257 15.324 20.2548 15.206C20.2527 15.088 20.0996 15.0655 19.9865 15.0606C19.8074 15.0493 19.6345 15.0493 19.3957 15.0339H19.3992ZM15.4899 23.5291C15.5601 23.5417 15.5868 23.5993 15.6212 23.6401C15.8671 23.952 16.1544 24.2238 16.4235 24.5133C16.5998 24.7029 16.7747 24.6608 16.9967 24.6222C16.7776 24.4637 16.5679 24.2927 16.3687 24.11C15.8924 23.645 15.5257 23.0992 15.2025 22.5238C15.1861 22.486 15.1576 22.4547 15.1216 22.4347C15.0855 22.4148 15.0438 22.4073 15.003 22.4135C14.9012 22.4241 14.9117 22.5119 14.9033 22.5821C14.8907 22.7586 14.9233 22.9353 14.9981 23.0956C15.2342 23.6899 15.6535 24.1494 16.0968 24.5948C16.1341 24.6318 16.1803 24.6587 16.231 24.6727C16.2817 24.6867 16.3352 24.6875 16.3862 24.6748C16.0153 24.3327 15.6648 23.999 15.4899 23.5291Z" fill="#F8F2EA"/>
<path d="M10.519 19.8572C10.6005 18.8035 10.8794 17.7877 11.171 16.7782C10.9799 17.8102 10.8021 18.8428 10.519 19.8572Z" fill="#F8F2EA"/>
<path d="M12.2078 20.9538C11.7695 20.6061 11.3227 20.3511 10.7558 20.3778C10.5949 20.3855 10.4305 20.3265 10.264 20.2977C10.4923 20.0047 12.0006 20.5042 12.2078 20.9538Z" fill="#F8F2EA"/>
<path d="M11.8327 20.2836C12.3658 20.5211 12.7325 20.9018 12.8829 21.5095C12.8285 21.4447 12.7876 21.3697 12.7628 21.2889C12.5791 20.9145 12.2907 20.6016 11.9324 20.3883C11.8917 20.3637 11.8425 20.3511 11.8158 20.3068C11.8223 20.2998 11.828 20.292 11.8327 20.2836Z" fill="#F8F2EA"/>
<path d="M17.5973 11.6774C16.9465 12.036 16.2717 12.3491 15.5776 12.6146C16.2534 12.3097 16.9271 11.9971 17.5973 11.6774Z" fill="#F8F2EA"/>
<path d="M14.5906 12.7009C14.9832 12.4508 15.4088 12.257 15.8551 12.1249C15.4582 12.3729 15.0241 12.5379 14.5906 12.7009Z" fill="#F8F2EA"/>
<path d="M28.1347 19.1393C28.0405 18.6321 27.9464 18.1242 27.8474 17.5889C27.9338 17.7237 28.155 18.866 28.1347 19.1393Z" fill="#F8F2EA"/>
<path d="M12.2254 25.5867C11.9591 25.2439 11.7168 24.8842 11.4695 24.5287L11.5074 24.5027L12.2443 25.567L12.2254 25.5867Z" fill="#F8F2EA"/>
<path d="M27.1434 25.3506L27.5417 24.5927C27.5572 24.5624 27.5734 24.5322 27.5895 24.5027C27.6057 24.4732 27.6162 24.4557 27.645 24.4739C27.6738 24.4922 27.664 24.5147 27.652 24.5386C27.6204 24.599 27.593 24.6615 27.5593 24.7205C27.4596 24.894 27.3605 25.0675 27.2565 25.2382C27.2312 25.2804 27.2214 25.3415 27.1434 25.3506Z" fill="#F8F2EA"/>
<path d="M28.1572 19.7806C28.1916 20.0947 28.2464 20.4059 28.3019 20.7164C28.311 20.7676 28.3841 20.8569 28.292 20.8723C28.2162 20.8843 28.238 20.7747 28.2309 20.7192C28.1909 20.4157 28.1572 20.1108 28.1213 19.8059L28.1572 19.7806Z" fill="#F8F2EA"/>
<path d="M25.893 26.8146C25.7167 27.0956 25.5593 27.397 25.3212 27.6394C25.4652 27.3317 25.6872 27.0795 25.893 26.8146Z" fill="#F8F2EA"/>
<path d="M28.1571 19.7806L28.1213 19.8066C28.05 19.4333 27.9981 19.0565 27.9661 18.6777C28.0504 19.0415 28.1142 19.4097 28.1571 19.7806Z" fill="#646464"/>
<path d="M13.7751 16.0623C13.5538 16.1909 13.3332 16.3209 13.0796 16.3806C13.0189 16.4021 12.9535 16.4062 12.8906 16.3925C13.1561 16.3308 13.4101 16.2271 13.643 16.0855C13.6802 16.0631 13.7252 16.0251 13.7772 16.0616L13.7751 16.0623Z" fill="#F8F2EA"/>
<path d="M26.8652 17.4294C26.6373 17.459 26.4062 17.4526 26.1803 17.4104C26.4084 17.3855 26.6389 17.3918 26.8652 17.4294Z" fill="#F8F2EA"/>
<path d="M20.9882 28.6777C21.1547 28.6552 21.3163 28.6327 21.48 28.6123C21.5116 28.6123 21.5551 28.5976 21.5586 28.6496C21.5622 28.7016 21.5144 28.6882 21.4884 28.6882C21.3205 28.6903 21.1547 28.7163 20.9882 28.6777Z" fill="#F8F2EA"/>
<path d="M25.9288 21.6064C25.9732 21.5281 26.0349 21.4611 26.1092 21.4103C26.1834 21.3595 26.2683 21.3264 26.3574 21.3135L25.9288 21.6064Z" fill="#F8F2EA"/>
<path d="M18.0188 29.0942L17.5432 29.1308C17.5074 29.1308 17.4695 29.135 17.4667 29.0879C17.4625 29.0247 17.5144 29.0535 17.5369 29.0542C17.6971 29.0619 17.8566 29.0746 18.0167 29.0851L18.0188 29.0942Z" fill="#F8F2EA"/>
<path d="M16.677 26.5954C16.5801 26.4662 16.4375 26.41 16.2942 26.3538C16.3679 26.3461 16.4423 26.3583 16.5098 26.3891C16.5772 26.4198 16.6352 26.468 16.6777 26.5287C16.6925 26.5498 16.7164 26.5772 16.6777 26.599L16.677 26.5954Z" fill="#F8F2EA"/>
<path d="M22.2942 26.9636C22.3644 26.8231 22.488 26.7591 22.618 26.6987C22.5014 26.7767 22.4311 26.9144 22.2906 26.9615L22.2942 26.9636Z" fill="#F8F2EA"/>
<path d="M19.291 28.9509H18.5808V28.9383H19.2938L19.291 28.9509Z" fill="#646464"/>
<path d="M11.2552 24.1663C11.3288 24.238 11.385 24.3256 11.4198 24.4222V24.4187C11.3453 24.3597 11.2644 24.3069 11.2552 24.1663Z" fill="#F8F2EA"/>
<path d="M18.8029 12.7017C18.7996 12.7247 18.8095 12.7345 18.8324 12.7312C18.8282 12.7544 18.8395 12.7629 18.8613 12.7608C18.8613 12.7828 18.8711 12.7926 18.8908 12.7903C18.8908 12.8128 18.8999 12.8198 18.9203 12.8191V12.8796C18.8613 12.8697 18.8069 12.8416 18.7647 12.7992C18.7224 12.7569 18.6945 12.7023 18.6848 12.6433L18.7417 12.6757C18.7437 12.6816 18.7469 12.6871 18.7512 12.6917C18.7554 12.6964 18.7606 12.7 18.7664 12.7025C18.7722 12.7049 18.7785 12.7062 18.7848 12.706C18.791 12.7059 18.7972 12.7044 18.8029 12.7017Z" fill="#646464"/>
<path d="M26.9896 23.9106C27.1004 23.9523 27.2055 24.008 27.3022 24.0764C27.1811 24.0616 27.0675 24.0098 26.9769 23.9281L26.9896 23.9106Z" fill="#F8F2EA"/>
<path d="M24.8814 16.1473C24.9327 16.2577 24.9714 16.3414 25.0115 16.4286C24.8962 16.3956 24.8962 16.3956 24.8814 16.1473Z" fill="#646464"/>
<path d="M12.4755 26.2794L12.6464 26.5135C12.5598 26.4637 12.4941 26.3843 12.4614 26.2899L12.4755 26.2794Z" fill="#F8F2EA"/>
<path d="M20.5836 13.2932C20.467 13.3859 20.3518 13.3964 20.1846 13.3634C20.3151 13.3275 20.4487 13.304 20.5836 13.2932Z" fill="#646464"/>
<path d="M12.4298 25.8796C12.5107 25.8874 12.5051 25.9704 12.5409 26.0161C12.5147 26.0008 12.4918 25.9805 12.4735 25.9564C12.4551 25.9323 12.4417 25.9047 12.434 25.8754L12.4298 25.8796Z" fill="#F8F2EA"/>
<path d="M14.6258 13.034C14.6398 13.0122 14.6596 12.9946 14.6829 12.9834C14.7062 12.9721 14.7322 12.9674 14.758 12.97C14.7446 12.9924 14.725 13.0104 14.7015 13.0218C14.678 13.0332 14.6517 13.0374 14.6258 13.034Z" fill="#F8F2EA"/>
<path d="M23.0909 11.8819C23.0571 11.8816 23.0237 11.8742 22.9928 11.8603C22.9619 11.8464 22.9343 11.8262 22.9116 11.8011C22.9946 11.787 23.0298 11.8257 23.0909 11.8819Z" fill="#646464"/>
<path d="M23.9536 12.4362C23.9225 12.4383 23.8914 12.4312 23.8644 12.4157C23.8374 12.4001 23.8155 12.3769 23.8017 12.349C23.8327 12.3478 23.8633 12.3553 23.8902 12.3707C23.9171 12.3861 23.9391 12.4088 23.9536 12.4362Z" fill="#646464"/>
<path d="M23.645 12.2675C23.6769 12.2618 23.7098 12.266 23.7393 12.2796C23.7687 12.2932 23.7932 12.3155 23.8096 12.3434C23.7393 12.3709 23.709 12.3266 23.645 12.2675Z" fill="#646464"/>
<path d="M26.4598 26.044C26.4499 26.0987 26.4254 26.1254 26.3503 26.1604C26.3973 26.1036 26.4065 26.065 26.4598 26.044Z" fill="#F8F2EA"/>
<path d="M25.8403 22.66C25.794 22.6214 25.7701 22.5898 25.7898 22.5365C25.841 22.5582 25.8494 22.5968 25.8403 22.66Z" fill="#646464"/>
<path d="M15.2378 12.7789C15.1956 12.7965 15.159 12.8394 15.1035 12.8127C15.1267 12.7663 15.1703 12.7599 15.2118 12.7508L15.2378 12.7789Z" fill="#646464"/>
<path d="M14.899 12.8912C14.9334 12.859 14.9692 12.8281 15.0225 12.8569C15.0122 12.8754 14.9964 12.8903 14.9773 12.8994C14.9582 12.9086 14.9368 12.9116 14.9159 12.9081L14.899 12.8912Z" fill="#646464"/>
<path d="M26.0033 22.925L26.0475 23.0267C26.0096 23.0007 25.9507 22.9818 26.0033 22.9214V22.925Z" fill="#F8F2EA"/>
<path d="M12.3223 26.122C12.3978 26.0828 12.3923 26.1541 12.4125 26.1884C12.4099 26.1926 12.4069 26.1966 12.4034 26.2003L12.3286 26.122H12.3223Z" fill="#F8F2EA"/>
<path d="M12.4613 26.2891C12.4444 26.281 12.4301 26.2684 12.4199 26.2527C12.4098 26.2369 12.4042 26.2187 12.4038 26.2C12.4072 26.1963 12.4103 26.1923 12.4129 26.188C12.4444 26.2092 12.4667 26.2416 12.4754 26.2785L12.4613 26.2891Z" fill="#F8F2EA"/>
<path d="M12.4077 25.8167C12.3461 25.8328 12.3566 25.7705 12.3322 25.7468L12.3475 25.7286C12.3638 25.7376 12.3775 25.7506 12.3874 25.7664C12.3973 25.7822 12.4031 25.8002 12.4042 25.8188L12.4077 25.8167Z" fill="#F8F2EA"/>
<path d="M26.2678 26.2842C26.272 26.2947 26.279 26.3051 26.2762 26.3086C26.2651 26.3229 26.253 26.3364 26.24 26.349C26.24 26.3421 26.2295 26.3309 26.2316 26.3274C26.2426 26.3122 26.2547 26.2978 26.2678 26.2842Z" fill="#F8F2EA"/>
<path d="M12.2442 25.567C12.2609 25.5907 12.309 25.6179 12.2797 25.6367C12.2504 25.6555 12.2351 25.6116 12.2253 25.583L12.2442 25.567Z" fill="#F8F2EA"/>
<path d="M12.3318 25.7462C12.3186 25.7204 12.2663 25.703 12.3026 25.6696C12.3151 25.6584 12.3451 25.6974 12.3472 25.7281L12.3318 25.7462Z" fill="#F8F2EA"/>
<path d="M26.1398 23.1464C26.0952 23.1534 26.0903 23.1185 26.0792 23.09L26.0903 23.0816C26.1147 23.0983 26.1398 23.1137 26.137 23.1513L26.1398 23.1464Z" fill="#F8F2EA"/>
<path d="M13.8682 16.1031C13.9004 16.1562 13.8172 16.1513 13.8235 16.1919C13.7633 16.122 13.8507 16.1325 13.871 16.1066L13.8682 16.1031Z" fill="#F8F2EA"/>
<path d="M12.098 25.6857C12.1147 25.7101 12.1586 25.7338 12.1217 25.7624C12.105 25.7749 12.0813 25.7359 12.0736 25.7087L12.098 25.6857Z" fill="#646464"/>
<path d="M26.2181 26.417L26.1185 26.4871C26.1369 26.4556 26.158 26.4258 26.1817 26.3981C26.2006 26.3826 26.2153 26.3939 26.2209 26.4163L26.2181 26.417Z" fill="#F8F2EA"/>
<path d="M12.5541 26.0782L12.5653 26.0504C12.5785 26.063 12.5908 26.0765 12.6022 26.0908C12.6022 26.095 12.5973 26.1061 12.5946 26.1145L12.5541 26.0782Z" fill="#F8F2EA"/>
<path d="M26.5631 25.8789C26.5686 25.8846 26.5734 25.8909 26.5772 25.8978C26.5772 25.8978 26.5723 25.9097 26.5716 25.909C26.5639 25.9071 26.5564 25.9045 26.5491 25.9013L26.5631 25.8789Z" fill="#F8F2EA"/>
<path d="M12.6293 26.1725C12.6237 26.1662 12.6167 26.1613 12.6146 26.1543C12.6125 26.1473 12.6237 26.1452 12.6293 26.1417C12.6349 26.1382 12.6384 26.1473 12.6377 26.1494C12.6355 26.1573 12.6327 26.165 12.6293 26.1725Z" fill="#F8F2EA"/>
<path d="M25.9663 26.7309C25.9636 26.7466 25.9556 26.7609 25.9437 26.7714C25.9318 26.7819 25.9166 26.7881 25.9008 26.7888C25.914 26.7651 25.9217 26.7491 25.9314 26.7351C25.9412 26.7212 25.9565 26.7093 25.9711 26.7351L25.9663 26.7309Z" fill="#F8F2EA"/>
<path d="M12.2708 25.9463C12.2708 25.9687 12.2666 25.9812 12.2478 25.9757C12.2401 25.9757 12.2289 25.9638 12.2289 25.9582C12.2316 25.9467 12.2363 25.9358 12.2429 25.926L12.2708 25.9463Z" fill="#646464"/>
<path d="M26.3018 26.2184L26.3402 26.1585C26.3785 26.201 26.3478 26.2115 26.3402 26.2282C26.3325 26.2449 26.3095 26.2435 26.3011 26.2191L26.3018 26.2184Z" fill="#F8F2EA"/>
<path d="M26.9765 23.9278C26.9639 23.9048 26.9124 23.9278 26.9221 23.8901C26.9256 23.8762 26.9744 23.8748 26.9918 23.9103L26.9765 23.9278Z" fill="#F8F2EA"/>
<path d="M12.0004 25.5474L12.0346 25.6003L12.0178 25.6177L11.9809 25.5669L12.0004 25.5474Z" fill="#646464"/>
<path d="M12.0594 25.6359C12.0719 25.6526 12.0845 25.6693 12.0977 25.6853L12.0733 25.7083C12.0622 25.6902 12.051 25.6728 12.0392 25.6554L12.0594 25.6359Z" fill="#646464"/>
<path d="M12.1878 25.8874L12.1516 25.8317L12.1788 25.8094L12.2157 25.8637L12.1878 25.8874Z" fill="#646464"/>
<path d="M12.4044 25.8192C12.4331 25.8304 12.4548 25.8451 12.4296 25.8793H12.4338C12.4065 25.8674 12.3828 25.8535 12.4079 25.8192H12.4044Z" fill="#F8F2EA"/>
<path d="M12.3286 26.1217C12.3286 26.1014 12.3083 26.0804 12.3286 26.0623C12.3286 26.0623 12.3454 26.0706 12.3475 26.0776C12.3566 26.1 12.3621 26.1231 12.3237 26.1217H12.3286Z" fill="#F8F2EA"/>
<path d="M22.9072 11.7687C22.8995 11.7806 22.8967 11.7904 22.8918 11.7918C22.8832 11.7931 22.8744 11.7916 22.8667 11.7876C22.8534 11.782 22.8534 11.7729 22.8667 11.7694C22.8801 11.7677 22.8937 11.7674 22.9072 11.7687Z" fill="#646464"/>
<path d="M18.6243 12.6138C18.6364 12.6098 18.6496 12.6108 18.661 12.6166C18.6724 12.6223 18.681 12.6323 18.685 12.6444C18.6543 12.6563 18.6404 12.6326 18.6243 12.6138Z" fill="#646464"/>
<path d="M16.6757 26.5995C16.6861 26.58 16.6987 26.571 16.7105 26.5961C16.714 26.6037 16.7265 26.6253 16.7014 26.6232C16.6931 26.6232 16.6861 26.6044 16.6777 26.5947C16.6769 26.5962 16.6762 26.5978 16.6757 26.5995Z" fill="#F8F2EA"/>
<path d="M22.0518 26.6914L22.1034 26.6538C22.1082 26.6601 22.1135 26.6659 22.1194 26.6712L22.0706 26.7242L22.0518 26.6914Z" fill="#F8F2EA"/>
<path d="M15.2089 12.7506C15.227 12.7339 15.2549 12.7151 15.2702 12.7374C15.2855 12.7597 15.2479 12.7645 15.2346 12.7785C15.2291 12.7687 15.22 12.7597 15.2089 12.7506Z" fill="#646464"/>
<path d="M25.9716 26.7325C25.9249 26.7011 25.9827 26.6809 25.9806 26.6544V26.6509C26.0287 26.6865 25.9876 26.7067 25.9674 26.7304L25.9716 26.7325Z" fill="#F8F2EA"/>
<path d="M14.9156 12.9081C14.896 12.9151 14.8835 12.943 14.8562 12.9269L14.8988 12.8913L14.9156 12.9081Z" fill="#F8F2EA"/>
<path d="M13.8741 16.1029C13.8971 16.0791 13.9139 16.033 13.9545 16.0847H13.944C13.916 16.0798 13.9006 16.1421 13.8657 16.0987L13.8741 16.1029Z" fill="#F8F2EA"/>
<path d="M13.8232 16.1894L13.7645 16.1817C13.7701 16.1754 13.7757 16.1663 13.7827 16.1635C13.8072 16.1544 13.8267 16.1558 13.8225 16.1908L13.8232 16.1894Z" fill="#F8F2EA"/>
<path d="M11.8154 20.3044L11.7659 20.2897C11.7847 20.2577 11.8084 20.2709 11.8314 20.2835C11.8271 20.2912 11.8217 20.2982 11.8154 20.3044Z" fill="#F8F2EA"/>
<path d="M22.2751 27.0437C22.2751 27.0158 22.2458 26.9803 22.2939 26.9636H22.2905C22.3281 26.9984 22.2563 27.0137 22.2758 27.0451L22.2751 27.0437Z" fill="#F8F2EA"/>
<path d="M15.3659 12.7219C15.3535 12.7267 15.3406 12.7305 15.3275 12.7331C15.3233 12.7331 15.3191 12.7205 15.3142 12.7142C15.3262 12.7084 15.3386 12.7035 15.3513 12.6995C15.3513 12.6995 15.3596 12.7121 15.3659 12.7219Z" fill="#646464"/>
<path d="M25.7473 22.3914H25.7385L25.7426 22.3792L25.7473 22.3914Z" fill="#646464"/>
<path d="M25.7854 22.4781L25.7721 22.499C25.7673 22.492 25.7589 22.485 25.7596 22.4788C25.7603 22.4725 25.77 22.4634 25.7756 22.4557L25.7854 22.4781Z" fill="#646464"/>
<path d="M25.9364 22.8559C25.9064 22.8559 25.898 22.8363 25.9078 22.8097C25.9078 22.8062 25.9161 22.8006 25.9182 22.8013C25.9441 22.8146 25.9399 22.8363 25.9336 22.8586L25.9364 22.8559Z" fill="#646464"/>
<path d="M26.1823 23.2505C26.1858 23.219 26.1222 23.1896 26.1823 23.1561C26.1767 23.1875 26.2229 23.219 26.1823 23.2512V23.2505Z" fill="#F8F2EA"/>
<path d="M14.0628 15.9288C14.0628 15.9254 14.0554 15.922 14.0554 15.9187C14.0554 15.9153 14.0614 15.9126 14.0648 15.9099C14.0682 15.9072 14.0723 15.9173 14.0723 15.92C14.0723 15.9227 14.0662 15.9261 14.0628 15.9288Z" fill="#F8F2EA"/>
<path d="M12.0349 25.6008L12.0594 25.6357L12.0391 25.6553L12.0181 25.6182L12.0349 25.6008Z" fill="#646464"/>
<path d="M13.8586 15.9174L13.8907 15.8909L13.9248 15.9153L13.8865 15.9495L13.8586 15.9174Z" fill="#646464"/>
<path d="M13.9544 15.8851C13.944 15.8949 13.9342 15.9053 13.9244 15.9151L13.891 15.8907L13.9203 15.8621L13.9544 15.8851Z" fill="#646464"/>
<path d="M13.9785 15.8578L13.954 15.8851L13.9205 15.862L13.9512 15.834L13.9785 15.8578Z" fill="#646464"/>
<path d="M12.1516 25.8317C12.1397 25.8163 12.1292 25.7995 12.1516 25.7855C12.1516 25.7855 12.1704 25.8009 12.1795 25.8093L12.1516 25.8317Z" fill="#646464"/>
<path d="M25.8729 22.6937C25.8671 22.6975 25.8608 22.7006 25.8542 22.7027C25.8542 22.7027 25.8487 22.6972 25.8452 22.6937C25.851 22.6898 25.8573 22.6867 25.8639 22.6847C25.8639 22.6847 25.8695 22.6909 25.8729 22.6937Z" fill="#646464"/>
<path d="M25.8898 22.7619L25.8804 22.7572L25.8905 22.7423C25.8905 22.7457 25.8986 22.7491 25.8986 22.7525C25.8986 22.7558 25.8932 22.7592 25.8898 22.7619Z" fill="#646464"/>
<path d="M13.9514 15.8339L13.9822 15.8059L14.0073 15.8255L13.9787 15.8576L13.9514 15.8339Z" fill="#646464"/>
<path d="M12.2161 25.8677C12.2252 25.881 12.2433 25.8956 12.2245 25.9117C12.2056 25.9278 12.1972 25.9033 12.1881 25.8914L12.2161 25.8677Z" fill="#646464"/>
<path d="M13.9823 15.8059L14.0131 15.7919C14.0131 15.8031 14.0131 15.8143 14.0075 15.8255L13.9823 15.8059Z" fill="#646464"/>
<path d="M14.8055 12.9496L14.7957 12.9664C14.7957 12.9664 14.7866 12.9594 14.7873 12.9573C14.7895 12.9508 14.7926 12.9447 14.7964 12.9391L14.8055 12.9496Z" fill="#F8F2EA"/>
<path d="M26.5189 25.9681L26.5266 25.9337L26.5392 25.94L26.5161 25.9645L26.5189 25.9681Z" fill="#F8F2EA"/>
<path d="M26.4908 25.9955C26.4908 25.9758 26.4908 25.9534 26.5217 25.9681V25.9646C26.5217 25.9856 26.5217 26.0053 26.4908 25.9927V25.9955Z" fill="#F8F2EA"/>
<path d="M15.0681 12.844L15.0487 12.8343C15.0487 12.8308 15.0556 12.8253 15.0577 12.826C15.0647 12.8274 15.0713 12.8303 15.0771 12.8343L15.0681 12.844Z" fill="#646464"/>
<path d="M24.0384 12.4761L24.0461 12.4845C24.0426 12.4845 24.0398 12.4901 24.037 12.4901C24.0342 12.4901 24.0314 12.4852 24.0293 12.4824L24.0384 12.4761Z" fill="#646464"/>
<path d="M18.5505 12.5095L18.5386 12.4677L18.5721 12.4921C18.566 12.4991 18.5587 12.505 18.5505 12.5095Z" fill="#646464"/>
<path d="M23.9892 12.4498C23.9892 12.4531 23.9892 12.4559 23.9845 12.4592L23.9696 12.4491C23.9696 12.4491 23.9764 12.441 23.9797 12.441C23.9831 12.441 23.9892 12.4498 23.9892 12.4498Z" fill="#646464"/>
<path d="M26.2976 26.2189L26.3164 26.2468L26.2955 26.2587C26.2955 26.2461 26.3004 26.2343 26.3025 26.221L26.2976 26.2189Z" fill="#F8F2EA"/>
<path d="M18.5383 12.4674L18.526 12.4572C18.526 12.4572 18.5315 12.4572 18.5328 12.4572C18.5346 12.4601 18.536 12.4634 18.5369 12.4667L18.5383 12.4674Z" fill="#646464"/>
<path d="M23.1673 11.9265C23.1639 11.9265 23.1605 11.9339 23.1572 11.9332C23.1538 11.9325 23.1511 11.9278 23.1484 11.9251C23.1457 11.9224 23.1551 11.9177 23.1585 11.9183C23.1619 11.919 23.1639 11.9237 23.1673 11.9265Z" fill="#646464"/>
<path d="M23.1109 11.8922L23.1005 11.9095C23.1005 11.9095 23.0915 11.9026 23.0915 11.9005C23.0941 11.8941 23.0971 11.8879 23.1005 11.8818L23.1109 11.8922Z" fill="#646464"/>
<path d="M26.2207 26.4159C26.2013 26.4159 26.1881 26.4104 26.193 26.3882C26.193 26.384 26.2048 26.3826 26.211 26.3798L26.2173 26.4166L26.2207 26.4159Z" fill="#F8F2EA"/>
<path d="M25.9338 22.8589L25.9553 22.8714C25.9289 22.8916 25.94 22.8645 25.9366 22.8561L25.9338 22.8589Z" fill="#F8F2EA"/>
<path d="M26.117 26.5361C26.1051 26.5306 26.0926 26.5243 26.103 26.509C26.1135 26.4936 26.1163 26.5013 26.1232 26.4978C26.1232 26.509 26.1177 26.5208 26.1149 26.5313C26.1121 26.5417 26.117 26.5361 26.117 26.5361Z" fill="#F8F2EA"/>
<path d="M26.003 22.9214C25.9995 22.9333 25.9981 22.95 25.9793 22.9444C25.973 22.9444 25.9696 22.9319 25.964 22.9256H26.0023L26.003 22.9214Z" fill="#F8F2EA"/>
<path d="M26.0799 26.5523L26.0987 26.5182L26.1168 26.5356V26.5314C26.1064 26.5426 26.1029 26.5691 26.0785 26.5502L26.0799 26.5523Z" fill="#F8F2EA"/>
<path d="M12.6642 26.563L12.6545 26.581C12.6545 26.5775 12.6455 26.5741 12.6462 26.5713C12.6483 26.5648 12.6511 26.5586 12.6545 26.5526L12.6642 26.563Z" fill="#F8F2EA"/>
<path d="M26.0763 26.5505V26.5842L26.056 26.5758L26.0812 26.5526L26.0763 26.5505Z" fill="#F8F2EA"/>
<path d="M26.0229 26.6404L26.0335 26.606L26.0461 26.6137L26.0201 26.6376L26.0229 26.6404Z" fill="#F8F2EA"/>
<path d="M22.1038 26.6537C22.1163 26.6537 22.1372 26.6454 22.1393 26.6489C22.1491 26.6677 22.1316 26.6684 22.1198 26.6712C22.1139 26.6659 22.1085 26.66 22.1038 26.6537Z" fill="#F8F2EA"/>
<path d="M26.02 26.6404C26.0151 26.6502 26.0116 26.6642 26.0032 26.6698C25.9836 26.6831 25.9885 26.6572 25.9801 26.6516L26.022 26.6404H26.02Z" fill="#F8F2EA"/>
<path d="M26.0789 23.0897L26.0539 23.0654L26.0629 23.0563C26.0726 23.064 26.081 23.073 26.09 23.0813L26.0789 23.0897Z" fill="#F8F2EA"/>
<path d="M26.1793 23.156C26.1709 23.1637 26.1793 23.1853 26.1549 23.179C26.1305 23.1727 26.1445 23.1574 26.1403 23.147L26.1827 23.1546L26.1793 23.156Z" fill="#F8F2EA"/>
<path d="M13.9512 16.0867C13.9002 16.0755 13.9254 16.056 13.9456 16.0378L13.9596 16.0483L13.9463 16.086L13.9512 16.0867Z" fill="#F8F2EA"/>
<path d="M22.0167 26.7148L22.0516 26.6917L22.0705 26.7246C22.0698 26.7287 22.068 26.7325 22.0651 26.7355C22.0622 26.7385 22.0585 26.7405 22.0544 26.7413L22.0167 26.7148Z" fill="#F8F2EA"/>
<path d="M26.2132 23.283C26.2195 23.2572 26.1992 23.2551 26.1824 23.2502C26.1929 23.2502 26.1992 23.2201 26.2118 23.2446C26.2174 23.2544 26.2118 23.269 26.2118 23.2809L26.2132 23.283Z" fill="#F8F2EA"/>
<path d="M13.9443 16.0376L13.9737 16.0082L13.9884 16.0194C13.9884 16.0404 13.9772 16.0474 13.9583 16.0481L13.9443 16.0376Z" fill="#F8F2EA"/>
<path d="M26.2133 23.2839L26.2364 23.2699L26.2406 23.2832H26.2133V23.2839Z" fill="#F8F2EA"/>
<path d="M13.7771 16.0614C13.747 16.0419 13.7561 16.0279 13.7834 16.016L13.7925 16.0237L13.8037 16.0174L13.775 16.0621L13.7771 16.0614Z" fill="#F8F2EA"/>
<path d="M13.9753 16.0081L14.0018 15.9766L14.0186 15.9892C14.019 15.9931 14.0186 15.9971 14.0173 16.0008C14.016 16.0046 14.014 16.008 14.0112 16.0109C14.0085 16.0137 14.0052 16.0159 14.0015 16.0174C13.9978 16.0189 13.9939 16.0195 13.99 16.0193L13.9753 16.0081Z" fill="#F8F2EA"/>
<path d="M13.8338 16.0046L13.8038 16.0172L13.7926 16.0235L13.7835 16.0158L13.8045 15.9808L13.8338 16.0046Z" fill="#646464"/>
<path d="M22.2755 27.0434L22.2478 27.0358L22.2554 27.024L22.2748 27.0441L22.2755 27.0434Z" fill="#F8F2EA"/>
<path d="M14.002 15.9765C14.0138 15.966 14.0215 15.9416 14.0417 15.9653C14.0417 15.9653 14.0263 15.9807 14.0187 15.989L14.002 15.9765Z" fill="#F8F2EA"/>
<path d="M13.8039 15.9807L13.8319 15.95L13.864 15.9744L13.8333 16.0045L13.8039 15.9807Z" fill="#646464"/>
<path d="M13.8865 15.9498L13.8648 15.9742L13.8326 15.9498L13.8585 15.9176L13.8865 15.9498Z" fill="#646464"/>
<path d="M11.9809 25.5669L11.9718 25.5326L12.0005 25.5473L11.9809 25.5669Z" fill="#646464"/>
<path d="M26.4879 25.9927L26.4823 26.0271L26.4627 26.0159L26.4907 25.9955L26.4879 25.9927Z" fill="#F8F2EA"/>
<path d="M19.494 16.3293C21.4779 16.3328 23.1428 17.7293 23.4638 19.6781C23.7286 21.2889 23.213 22.6327 21.9836 23.6822C21.1407 24.3995 20.1396 24.6615 19.0437 24.5294C17.7905 24.3784 16.7522 23.815 15.9956 22.8027C14.6005 20.9334 15.0824 18.377 17.0655 17.0746C17.7822 16.5887 18.6282 16.3291 19.494 16.3293ZM17.272 17.7132C17.2601 17.7244 17.2348 17.735 17.2573 17.7539C17.2798 17.7729 17.2861 17.7462 17.2966 17.7329L17.303 17.7005L17.272 17.7132ZM21.8565 21.5066C21.9794 21.4174 22.0497 21.2313 21.9886 21.1371L21.8579 21.508L21.8523 21.5137L21.8565 21.5066ZM18.0427 18.0174C18.1776 17.9555 18.2731 17.8677 18.2569 17.671C18.1712 17.8003 18.0785 17.8909 18.0462 18.0223L18.0272 18.0167V18.0356L18.0427 18.0174ZM19.5467 22.6327C20.7992 22.6714 21.7125 21.579 21.7055 20.4241C21.6977 19.2123 20.8864 18.2098 19.5235 18.1705C18.1607 18.1312 17.2208 19.2095 17.2299 20.4185C17.2362 21.678 18.3096 22.6531 19.5432 22.6299L19.5467 22.6327ZM16.9805 19.9457C16.8077 20.0714 16.7698 20.5618 16.9327 20.7648C16.9306 20.4761 16.9173 20.2098 16.977 19.9429L16.9805 19.9457ZM22.8582 21.8326C23.003 21.5614 23.083 21.1905 23.0381 21.0725C22.9144 21.2931 22.8913 21.546 22.8547 21.8298L22.8582 21.8326ZM19.0135 23.2755C19.147 23.3872 19.3072 23.3317 19.4568 23.3458C19.4912 23.35 19.5565 23.3774 19.5608 23.3071C19.565 23.2369 19.5025 23.2586 19.4631 23.2516C19.3093 23.2249 19.1639 23.3078 19.01 23.2727L19.0135 23.2755ZM16.9763 23.0563C16.8358 22.9088 16.7831 22.6868 16.5787 22.6004C16.6744 22.7787 16.8085 22.9334 16.9714 23.0535L16.9763 23.0563ZM21.7771 21.7511C21.6443 21.8642 21.6029 22.0152 21.5776 22.1902L21.7771 21.7511ZM21.9422 18.6405C21.997 18.781 22.0174 18.9313 22.089 19.0395C22.0717 18.8952 22.0196 18.7574 21.9373 18.6377L21.9422 18.6405ZM19.5537 17.6886C19.4835 17.5671 19.4519 17.5678 19.343 17.6851C19.4104 17.703 19.4813 17.7032 19.5488 17.6858L19.5537 17.6886ZM21.9633 23.2615C21.7996 23.2713 21.7617 23.39 21.6998 23.4799L21.9633 23.2615ZM20.6988 17.114C20.5752 16.9995 20.5344 16.9889 20.4375 17.0325L20.6988 17.114ZM17.2629 17.7532C17.1838 17.788 17.1202 17.8508 17.0845 17.9296C17.1948 17.8839 17.1948 17.8839 17.2608 17.7504L17.2629 17.7532ZM21.7785 19.0437C21.778 19.0716 21.7841 19.0991 21.7963 19.1241C21.8086 19.1492 21.8265 19.171 21.8488 19.1877C21.8528 19.1588 21.8481 19.1293 21.8352 19.1032C21.8223 19.077 21.8018 19.0553 21.7764 19.0409L21.7785 19.0437ZM21.8979 19.3114L21.9043 19.3001H21.8958L21.8979 19.3114ZM21.7855 21.7089L21.7947 21.6998C21.7895 21.6961 21.7838 21.693 21.7778 21.6907C21.7778 21.6907 21.7722 21.6963 21.7694 21.6991L21.7855 21.7089ZM20.7515 17.109L20.7409 17.1168C20.7409 17.1168 20.7466 17.1259 20.7494 17.1259C20.7522 17.1259 20.7564 17.1217 20.7606 17.1189L20.7515 17.109ZM21.867 19.239C21.867 19.239 21.8748 19.2341 21.8748 19.2313C21.8748 19.2285 21.8712 19.2249 21.8684 19.2214C21.8656 19.2179 21.8614 19.2271 21.8614 19.2299C21.8614 19.2327 21.8649 19.2362 21.867 19.239Z" fill="#070606"/>
<path d="M23.7715 22.4845C23.9935 22.1726 24.0911 21.8073 24.2021 21.4497C24.3068 21.1097 24.3939 20.7641 24.5576 20.4452C24.5738 20.4136 24.5702 20.3665 24.6314 20.3489C24.662 20.5547 24.6558 20.7642 24.6131 20.9678C24.4726 21.5734 24.3089 22.1698 23.938 22.6847C23.8252 22.8567 23.6748 23.0008 23.4982 23.1062C23.4343 23.1413 23.3725 23.1765 23.3008 23.1062C23.2292 23.036 23.2475 22.9826 23.2854 22.9032C23.6668 22.1129 23.9513 21.2875 24.0673 20.4164C24.108 20.1209 24.108 19.8211 24.0673 19.5256C24.0581 19.4631 24.0167 19.3788 24.1031 19.343C24.1895 19.3071 24.2661 19.3648 24.3138 19.4364C24.4115 19.5867 24.4136 19.761 24.4052 19.9317C24.3624 20.7227 24.1718 21.4988 23.8432 22.2197C23.8073 22.2998 23.7729 22.3812 23.7427 22.462C23.7371 22.4782 23.7146 22.495 23.7371 22.5105C23.7596 22.526 23.7624 22.4958 23.7715 22.4845ZM23.7364 22.5435C23.7319 22.5351 23.727 22.5268 23.7216 22.5189C23.7084 22.5215 23.6962 22.5279 23.6865 22.5372C23.6746 22.5534 23.6935 22.5597 23.7027 22.559C23.7147 22.5558 23.7261 22.5505 23.7364 22.5435Z" fill="#070606"/>
<path d="M19.3957 15.0339C19.6317 15.0458 19.8073 15.0521 19.9829 15.0634C20.096 15.0711 20.2492 15.0838 20.2513 15.2088C20.2534 15.3338 20.0989 15.3493 19.9893 15.369C19.2439 15.4891 18.4965 15.5994 17.7785 15.8453C17.553 15.9225 17.331 16.0117 17.1077 16.0946C17.0529 16.115 16.9981 16.1361 16.9412 16.1515C16.7922 16.1902 16.7431 16.1396 16.7627 15.9893C16.7747 15.9142 16.8055 15.8433 16.8521 15.7832C16.8988 15.7232 16.9599 15.6759 17.0297 15.6457C17.5577 15.3601 18.132 15.1699 18.7262 15.0838C18.9483 15.0555 19.1718 15.0389 19.3957 15.0339Z" fill="#070606"/>
<path d="M15.4899 23.5291C15.6634 23.9991 16.0139 24.3328 16.3862 24.6749C16.3352 24.6875 16.2817 24.6868 16.231 24.6727C16.1803 24.6587 16.1341 24.6319 16.0968 24.5948C15.6535 24.1508 15.2341 23.69 14.9981 23.0957C14.9233 22.9354 14.8907 22.7586 14.9033 22.5822C14.9117 22.5119 14.9033 22.4241 15.003 22.4136C15.0438 22.4074 15.0855 22.4148 15.1215 22.4348C15.1576 22.4547 15.1861 22.486 15.2025 22.5239C15.5264 23.0992 15.8924 23.6478 16.3687 24.1101C16.5679 24.2928 16.7776 24.4638 16.9967 24.6222C16.7726 24.6608 16.5998 24.703 16.4235 24.5133C16.1544 24.2239 15.8671 23.9513 15.6212 23.6401C15.5882 23.5966 15.5601 23.5418 15.4899 23.5291Z" fill="#070606"/>
<path d="M19.5432 22.6299C18.3096 22.6531 17.2362 21.6781 17.225 20.415C17.2158 19.2067 18.1614 18.1298 19.5186 18.167C20.8758 18.2042 21.6928 19.2088 21.7005 20.4206C21.709 21.5783 20.7957 22.6686 19.5432 22.6299ZM19.4238 18.3869L19.2629 18.3946C18.448 18.4466 17.6935 19.0543 17.4807 19.8305C17.2538 20.658 17.5594 21.5565 18.2534 22.0181C19.0016 22.5154 19.7891 22.4972 20.5583 22.0785C21.2271 21.7139 21.6029 21.1301 21.5741 20.3567C21.5355 19.2425 20.5723 18.3813 19.4238 18.3869Z" fill="#F8F2EA"/>
<path d="M16.977 19.9429C16.9173 20.2098 16.9306 20.4761 16.9292 20.762C16.7677 20.559 16.8042 20.0686 16.977 19.9429Z" fill="#F8F2EA"/>
<path d="M22.8547 21.8298C22.8913 21.5488 22.9144 21.2931 23.0346 21.0697C23.0767 21.1877 22.9994 21.5586 22.8547 21.8298Z" fill="#F8F2EA"/>
<path d="M19.01 23.2727C19.1639 23.3078 19.3093 23.2249 19.4596 23.2509C19.4989 23.258 19.5608 23.2411 19.5572 23.3064C19.5537 23.3718 19.487 23.3493 19.4533 23.3451C19.3037 23.3289 19.1428 23.3844 19.01 23.2727Z" fill="#F8F2EA"/>
<path d="M16.9714 23.0535C16.8064 22.9332 16.6706 22.7774 16.5738 22.5976C16.7782 22.684 16.8337 22.906 16.9714 23.0535Z" fill="#F8F2EA"/>
<path d="M18.042 18.0188C18.075 17.8881 18.1677 17.7975 18.2527 17.6675C18.2689 17.8642 18.1733 17.952 18.0385 18.0139L18.042 18.0188Z" fill="#F8F2EA"/>
<path d="M21.7722 21.7483L21.5727 22.1873C21.6015 22.0124 21.6394 21.8635 21.7722 21.7483Z" fill="#F8F2EA"/>
<path d="M21.9373 18.6377C22.0175 18.757 22.0679 18.8939 22.0841 19.0367C22.0125 18.9285 21.9921 18.7768 21.9373 18.6377Z" fill="#F8F2EA"/>
<path d="M21.8544 21.5053L21.985 21.1343C22.0462 21.2285 21.9759 21.4153 21.853 21.5038L21.8544 21.5053Z" fill="#646464"/>
<path d="M19.549 17.6859C19.4796 17.7033 19.4069 17.7021 19.3381 17.6824C19.4471 17.5649 19.4759 17.5642 19.549 17.6859Z" fill="#F8F2EA"/>
<path d="M21.9587 23.2587L21.6949 23.4795C21.7568 23.3874 21.7948 23.2685 21.9587 23.2587Z" fill="#F8F2EA"/>
<path d="M20.697 17.1113L20.4354 17.0297C20.5324 16.9861 20.5732 16.9967 20.697 17.1113Z" fill="#646464"/>
<path d="M17.261 17.7504C17.1949 17.884 17.1949 17.884 17.0845 17.9276C17.1196 17.8489 17.1824 17.7859 17.261 17.7504Z" fill="#646464"/>
<path d="M21.7764 19.0409C21.8009 19.0554 21.8207 19.0768 21.8332 19.1024C21.8457 19.128 21.8504 19.1568 21.8467 19.1851C21.8244 19.1683 21.8065 19.1465 21.7942 19.1214C21.782 19.0964 21.7759 19.0688 21.7764 19.0409Z" fill="#646464"/>
<path d="M21.8958 19.3085L21.8937 19.2952L21.9021 19.2973L21.8958 19.3085Z" fill="#646464"/>
<path d="M17.2936 17.7328C17.2824 17.746 17.2747 17.7726 17.2537 17.7537C17.2328 17.7349 17.2537 17.7244 17.2684 17.7132L17.2936 17.7328Z" fill="#646464"/>
<path d="M21.8534 21.5038L21.8488 21.5116L21.8549 21.5054L21.8534 21.5038Z" fill="#646464"/>
<path d="M17.2686 17.7132L17.2994 17.7006L17.2931 17.7328L17.2686 17.7132Z" fill="#646464"/>
<path d="M21.7833 21.7059L21.7673 21.6962C21.7673 21.6962 21.7742 21.6879 21.7756 21.6879C21.7815 21.6902 21.7871 21.6932 21.7923 21.6969L21.7833 21.7059Z" fill="#F8F2EA"/>
<path d="M20.7511 17.1091L20.7599 17.1185C20.7558 17.1185 20.7525 17.126 20.7491 17.1253C20.7457 17.1246 20.7437 17.1199 20.741 17.1165L20.7511 17.1091Z" fill="#646464"/>
<path d="M21.867 19.2388C21.867 19.2388 21.8607 19.2325 21.8614 19.2298C21.8621 19.227 21.8663 19.2242 21.8684 19.2214C21.8704 19.2187 21.8753 19.2284 21.8746 19.2311C21.8739 19.2339 21.8698 19.236 21.867 19.2388Z" fill="#646464"/>
<path d="M18.0386 18.0145L18.0237 18.0314V18.0132L18.0427 18.0186L18.0386 18.0145Z" fill="#F8F2EA"/>
<path d="M23.7361 22.5434C23.7259 22.5504 23.7145 22.5556 23.7026 22.5588C23.6935 22.5588 23.6746 22.5532 23.6865 22.5371C23.6962 22.5278 23.7083 22.5215 23.7214 22.5189C23.7268 22.5268 23.7317 22.535 23.7361 22.5434Z" fill="#F8F2EA"/>
<path d="M23.7713 22.4844C23.7622 22.4983 23.7566 22.5242 23.7321 22.5081C23.7076 22.4921 23.7321 22.476 23.7377 22.4599L23.7713 22.4844Z" fill="#F8F2EA"/>
<defs>
<filter id="filter0_d_8060_60011" x="0" y="0.976074" width="48" height="46.709" filterUnits="userSpaceOnUse" color-interpolation-filters="sRGB">
<feFlood flood-opacity="0" result="BackgroundImageFix"/>
<feColorMatrix in="SourceAlpha" type="matrix" values="0 0 0 0 0 0 0 0 0 0 0 0 0 0 0 0 0 0 127 0" result="hardAlpha"/>
<feOffset dx="5" dy="4"/>
<feGaussianBlur stdDeviation="2"/>
<feComposite in2="hardAlpha" operator="out"/>
<feColorMatrix type="matrix" values="0 0 0 0 0 0 0 0 0 0 0 0 0 0 0 0 0 0 0.25 0"/>
<feBlend mode="normal" in2="BackgroundImageFix" result="effect1_dropShadow_8060_60011"/>
<feBlend mode="normal" in="SourceGraphic" in2="effect1_dropShadow_8060_60011" result="shape"/>
</filter>
</defs>
</svg>
