<svg width="126" height="125" viewBox="0 0 126 125" fill="none" xmlns="http://www.w3.org/2000/svg">
<g filter="url(#filter0_d_1_1698)">
<path d="M0 58.5437C0.213973 43.6772 5.16194 30.5876 15.1739 19.5151C23.3339 10.4926 33.4329 4.69723 45.1797 1.74918C48.8027 0.84013 52.4849 0.312176 56.2144 0.0997805C63.9258 -0.340788 71.4306 0.669 78.7081 3.30027C86.156 5.99345 92.7372 10.0969 98.4818 15.5585C103.371 20.2057 107.182 25.6333 110.279 31.6217C113.468 37.7896 115.54 44.2829 116.47 51.1608C116.887 54.2448 117.074 57.3421 116.973 60.4492C116.503 74.9151 111.494 87.5763 101.728 98.2337C93.4528 107.262 83.2704 113.064 71.3169 115.683C67.8885 116.434 64.4191 116.905 60.906 116.983C45.2014 117.331 31.3536 112.408 19.5452 102.005C10.1679 93.7418 4.2178 83.366 1.43495 71.1636C0.571802 67.3818 0.1088 63.5441 0.0556087 59.6603C0.0507732 59.3083 0.0217599 58.9576 0.00120888 58.5449L0 58.5437Z" fill="#464646"/>
<path d="M61.4963 111.18C53.3798 111.328 45.8098 109.988 38.5504 107.006C33.3426 104.868 28.4768 102.128 24.2421 98.3684C17.2801 92.1883 12.1895 84.712 8.98233 75.9504C7.58124 72.1248 6.64314 68.184 6.14387 64.1424C5.65065 60.1591 5.50195 56.1588 6.04474 52.1767C6.77491 46.8219 8.33921 41.6989 10.6772 36.8247C15.2879 27.2123 22.0903 19.5321 31.0578 13.8326C36.9958 10.0593 43.4585 7.54696 50.3854 6.2738C53.7957 5.64633 57.235 5.3514 60.6996 5.38417C66.0671 5.43515 71.339 6.18035 76.4357 7.88194C79.985 9.0665 83.2901 10.8118 86.4187 12.8702C96.5721 19.5515 103.773 28.6518 108.301 39.916C110.265 44.8035 111.489 49.8804 111.978 55.1332C112.215 57.6698 112.348 60.2125 112.135 62.7527C111.883 65.77 111.278 68.7302 110.46 71.6442C108.03 80.2845 103.738 87.8761 97.6226 94.4166C91.2288 101.255 83.5862 106.172 74.7275 109.142C72.0668 110.034 69.2912 110.476 66.5059 110.814C64.7482 111.026 62.9832 111.121 61.4963 111.181V111.18Z" fill="#F8F2EA"/>
<path d="M61.3211 106.9C53.8075 107.037 46.7997 105.803 40.0796 103.056C35.2585 101.087 30.7542 98.5638 26.834 95.1009C20.3891 89.4091 15.6766 82.5235 12.7077 74.4541C11.4106 70.9309 10.5422 67.3014 10.08 63.5791C9.62345 59.9105 9.4858 56.2263 9.98828 52.5588C10.6642 47.6271 12.1123 42.9089 14.2766 38.4198C18.5449 29.5669 24.842 22.4935 33.1434 17.2443C38.6404 13.7691 44.6231 11.4553 51.0355 10.2827C54.1924 9.70483 57.3763 9.4332 60.5836 9.46338C65.5524 9.51033 70.4327 10.1967 75.1508 11.7638C78.4365 12.8548 81.4961 14.4622 84.3923 16.3579C93.7915 22.5114 100.458 30.8926 104.649 41.2669C106.468 45.7682 107.6 50.4439 108.053 55.2817C108.273 57.6179 108.396 59.9597 108.199 62.2993C107.965 65.0781 107.405 67.8044 106.648 70.4882C104.398 78.4458 100.426 85.4376 94.764 91.4614C88.8452 97.759 81.7702 102.288 73.5695 105.024C71.1064 105.845 68.537 106.252 65.9586 106.563C64.3314 106.758 62.6975 106.846 61.3211 106.901V106.9Z" fill="#464646"/>
<path d="M16.2522 23.1865C17.4865 21.3199 18.8827 19.577 20.3745 17.9167C21.2026 16.9955 22.1878 16.2309 23.2021 15.3947C21.0067 18.1704 18.6228 20.679 16.355 23.2897C16.2655 23.3103 16.2184 23.2897 16.2522 23.1865Z" fill="#F8F2EA"/>
<path d="M93.6899 17.219C96.3627 19.4048 98.789 21.8371 100.943 24.5399C100.961 24.6285 100.936 24.6734 100.838 24.6407C98.5351 22.0871 96.0569 19.7082 93.5762 17.3318C93.5593 17.2396 93.5908 17.1947 93.6887 17.219H93.6899Z" fill="#F8F2EA"/>
<path d="M115.668 54.9066C115.959 57.1762 116.112 59.4518 115.891 61.736C115.808 62.5929 115.678 63.4449 115.569 64.2993C115.316 64.1804 115.484 63.985 115.482 63.8199C115.616 61.6984 115.739 59.5769 115.667 57.4493C115.639 56.6349 115.603 55.8205 115.569 55.0061C115.536 54.9078 115.579 54.8835 115.668 54.9054V54.9066Z" fill="#F8F2EA"/>
<path d="M65.4852 112.915C64.2436 113.077 63.0033 113.243 61.7606 113.398C60.5928 113.545 59.4214 113.668 58.2548 113.831C57.9465 113.874 57.6528 113.826 57.353 113.818C57.2647 113.816 57.0991 113.895 57.1197 113.695C57.133 113.567 57.2369 113.517 57.3614 113.509C57.8063 113.48 58.25 113.434 58.6961 113.418C60.7016 113.347 62.6926 113.117 64.6812 112.861C64.946 112.827 65.2132 112.784 65.4852 112.914V112.915Z" fill="#F8F2EA"/>
<path d="M36.7474 9.65995C39.1458 8.30911 41.7679 7.54935 44.3731 6.7471C44.477 6.7119 44.5024 6.75924 44.4843 6.8539C41.9093 7.74475 39.3453 8.66837 36.8477 9.76311C36.7486 9.79224 36.7244 9.74976 36.7474 9.65995Z" fill="#F8F2EA"/>
<path d="M90.9873 102.725C93.0823 100.882 95.2269 99.0935 97.1683 97.0764C96.6993 97.9963 92.3062 102.033 90.9873 102.725Z" fill="#F8F2EA"/>
<path d="M100.359 19.3987C101.275 20.0748 104.794 24.2232 105.285 25.1662C103.515 23.3554 102.124 21.2168 100.359 19.3987Z" fill="#F8F2EA"/>
<path d="M91.2692 13.7839C89.9999 13.0436 88.7317 12.302 87.4624 11.5616C88.8611 12.075 90.3408 12.444 91.2692 13.7839Z" fill="#F8F2EA"/>
<path d="M15.9624 26.2535C16.8316 24.9973 17.8132 23.8273 18.7876 22.6537C18.8553 22.5712 18.9133 22.377 19.0741 22.4983C19.2518 22.6331 19.0946 22.7411 19.0052 22.8479C18.0248 24.0179 17.0444 25.1891 16.0652 26.3603C15.9793 26.3749 15.931 26.3518 15.9636 26.2535H15.9624Z" fill="#F8F2EA"/>
<path d="M114.936 68.9527C114.684 70.6398 114.292 72.294 113.761 73.9155C113.732 73.9507 113.702 73.9519 113.669 73.9191C114.094 72.1678 114.525 70.4189 114.831 68.6408C115.06 68.6784 114.93 68.8386 114.936 68.9515V68.9527Z" fill="#F8F2EA"/>
<path d="M100.84 24.641C100.875 24.607 100.91 24.5742 100.945 24.5402C102.118 25.8923 103.14 27.3548 104.111 28.8561C104.144 28.9508 104.099 28.9665 104.019 28.9471C103.04 27.4519 101.929 26.0549 100.84 24.641Z" fill="#F8F2EA"/>
<path d="M114.937 68.9523C114.89 68.8528 114.958 68.7132 114.832 68.6416C115.048 67.0347 115.265 65.4278 115.481 63.8209C115.542 63.975 115.448 64.1571 115.568 64.3003C115.358 65.8514 115.147 67.4012 114.938 68.9523H114.937Z" fill="#F8F2EA"/>
<path d="M113.2 75.7501C112.936 77.0863 112.377 78.3219 111.91 79.5889C111.828 79.8123 111.732 80.0307 111.643 80.2516C111.563 80.2625 111.506 80.254 111.559 80.1521C112.102 78.6653 112.673 77.1871 113.125 75.6687C113.161 75.6554 113.197 75.6432 113.222 75.6857C113.231 75.7027 113.218 75.727 113.201 75.7501H113.2Z" fill="#F8F2EA"/>
<path d="M114.031 43.4492C114.477 44.8413 114.906 46.2383 114.951 47.7141C114.644 46.2929 114.338 44.8717 114.031 43.4492Z" fill="#F8F2EA"/>
<path d="M56.0721 4.27387C57.1166 4.17192 58.1562 4.00686 59.2055 3.97894C59.2104 4.0372 59.2164 4.09424 59.2213 4.1525C58.2046 4.22775 57.1879 4.303 56.17 4.37825C56.0733 4.40373 56.0455 4.36368 56.0709 4.27265L56.0721 4.27387Z" fill="#F8F2EA"/>
<path d="M4.31447 58.4844V61.3524C4.26369 61.3524 4.21292 61.35 4.16215 61.3487C3.94697 60.3171 4.32414 59.3049 4.31447 58.4844Z" fill="#F8F2EA"/>
<path d="M7.28935 40.9657C7.09835 41.4876 6.90251 42.0094 6.71755 42.5337C6.6692 42.6709 6.61117 42.7813 6.4516 42.717C6.24609 42.6333 6.40203 42.5143 6.44797 42.4197C6.6837 41.9318 6.92548 41.4487 7.16605 40.9632C7.20836 40.9232 7.24946 40.9244 7.29056 40.9669L7.28935 40.9657Z" fill="#F8F2EA"/>
<path d="M47.0569 5.30269C46.1285 5.5345 45.2013 5.76632 44.2728 5.99934C45.1106 5.52965 46.0342 5.36701 46.9578 5.20195C47.0521 5.17525 47.0799 5.21409 47.0569 5.3039V5.30269Z" fill="#F8F2EA"/>
<path d="M6.41564 73.54C5.97077 72.6394 5.84505 71.6491 5.7157 70.6587C5.94901 71.6187 6.18233 72.58 6.41564 73.54Z" fill="#F8F2EA"/>
<path d="M15.9617 26.2537C15.9956 26.2889 16.0294 26.3253 16.0633 26.3605C15.639 26.9467 15.2146 27.5341 14.7903 28.1203C14.7541 28.096 14.719 28.0718 14.6827 28.0475C15.0926 27.4394 15.4818 26.8168 15.9617 26.2537Z" fill="#F8F2EA"/>
<path d="M23.6792 100.585C24.2474 101.038 24.8156 101.49 25.3837 101.943C24.4952 101.532 23.9452 101.091 23.6792 100.585Z" fill="#F8F2EA"/>
<path d="M67.9142 3.42431C67.2686 3.37576 66.6219 3.326 65.9292 3.27381C66.6412 2.9 67.2747 3.33935 67.9263 3.30537C67.9214 3.34421 67.9178 3.38426 67.913 3.42309L67.9142 3.42431Z" fill="#F8F2EA"/>
<path d="M79.7571 8.28033C80.503 8.37622 81.1497 8.66386 81.7384 9.09593C81.0784 8.82407 80.4171 8.5522 79.7571 8.28033Z" fill="#F8F2EA"/>
<path d="M44.4839 6.85404C44.4464 6.81884 44.4102 6.78243 44.3727 6.74723C44.9143 6.49721 45.4933 6.38919 46.0627 6.24719C46.0748 6.28603 46.0869 6.32487 46.099 6.36371C45.5598 6.52755 45.0219 6.69019 44.4827 6.85404H44.4839Z" fill="#F8F2EA"/>
<path d="M71.1897 112.449C71.6503 112.312 72.1109 112.174 72.5715 112.037C72.2971 112.515 71.7918 112.406 71.3892 112.554C71.2901 112.58 71.1777 112.635 71.1897 112.449Z" fill="#F8F2EA"/>
<path d="M62.2722 114.5C63.0108 114.487 63.7398 114.277 64.4857 114.418C63.7471 114.431 63.0205 114.672 62.2722 114.5Z" fill="#F8F2EA"/>
<path d="M22.0181 97.6487C22.4375 98.0444 22.8582 98.4413 23.2777 98.8369C23.2511 98.8649 23.2233 98.894 23.1967 98.9219C22.7325 98.5711 22.3263 98.1609 22.0181 97.6487Z" fill="#F8F2EA"/>
<path d="M24.5463 100.081C24.1003 99.7737 23.6965 99.4205 23.3556 98.9969C23.8222 99.2773 24.2296 99.6293 24.614 100.01C24.6237 100.064 24.6007 100.088 24.5463 100.081Z" fill="#F8F2EA"/>
<path d="M8.85581 81.541C8.56084 81.0568 8.36742 80.5337 8.29126 79.962C8.50402 80.4669 8.71679 80.973 8.92955 81.4779C8.92955 81.5277 8.90537 81.5483 8.85702 81.5423L8.85581 81.541Z" fill="#F8F2EA"/>
<path d="M93.691 17.2187C93.6535 17.2563 93.6161 17.2939 93.5786 17.3315C93.2897 17.0669 93.0007 16.8024 92.713 16.5378C93.1132 16.6701 93.4214 16.9189 93.6922 17.2187H93.691Z" fill="#F8F2EA"/>
<path d="M104.02 28.9467C104.05 28.9163 104.081 28.886 104.112 28.8557C104.427 29.2076 104.643 29.6178 104.795 30.0742C104.536 29.698 104.278 29.3217 104.02 28.9467Z" fill="#F8F2EA"/>
<path d="M47.0568 5.30297C47.0241 5.26898 46.9903 5.235 46.9576 5.20102C47.4255 5.04566 47.9006 4.92672 48.3962 4.92065C48.4071 4.93279 48.4168 4.94614 48.4276 4.95828C47.9888 5.14761 47.5174 5.20102 47.0568 5.30175V5.30297Z" fill="#F8F2EA"/>
<path d="M31.5535 104.937C31.8992 105.139 32.2462 105.342 32.5919 105.544C32.1724 105.476 31.8194 105.279 31.5535 104.937Z" fill="#F8F2EA"/>
<path d="M71.1892 112.45C71.2134 112.566 71.3222 112.519 71.3886 112.554C70.9752 112.651 70.563 112.749 70.1495 112.847C70.4663 112.616 70.8241 112.521 71.1892 112.45Z" fill="#F8F2EA"/>
<path d="M115.667 54.9061C115.635 54.9401 115.602 54.9728 115.568 55.0068C115.44 54.6536 115.475 54.2932 115.562 53.9279L115.667 54.9061Z" fill="#F8F2EA"/>
<path d="M26.0175 101.24C25.6983 101.049 25.3949 100.838 25.141 100.564C25.1386 100.517 25.1628 100.5 25.2075 100.511C25.5243 100.649 25.7491 100.91 26.0151 101.116C26.0574 101.156 26.0586 101.198 26.0175 101.24Z" fill="#F8F2EA"/>
<path d="M36.7483 9.66003C36.7822 9.69401 36.8148 9.72921 36.8487 9.76319C36.5936 9.9416 36.3107 10.0533 36.0024 10.1018C36.2212 9.89912 36.4679 9.75105 36.7471 9.65881L36.7483 9.66003Z" fill="#F8F2EA"/>
<path d="M56.0717 4.27393C56.1043 4.30912 56.1381 4.34432 56.1708 4.37952C55.8529 4.54215 55.5216 4.46326 55.1855 4.38801C55.4805 4.35039 55.7767 4.31155 56.0717 4.27393Z" fill="#F8F2EA"/>
<path d="M7.28943 40.9659C7.24833 40.9659 7.20602 40.9634 7.16492 40.9622C7.28701 40.6916 7.40911 40.4209 7.53121 40.1515C7.52275 40.4525 7.47439 40.7341 7.28943 40.9659Z" fill="#F8F2EA"/>
<path d="M9.32544 35.7436C9.47171 35.4438 9.61799 35.1428 9.76426 34.843C9.80053 34.86 9.83801 34.877 9.87427 34.894C9.73525 35.1974 9.64821 35.5251 9.32544 35.7436Z" fill="#F8F2EA"/>
<path d="M112.352 44.7068C112.28 44.4203 112.209 44.1339 112.138 43.8475C112.347 44.0599 112.436 44.3123 112.44 44.5939C112.486 44.691 112.44 44.7165 112.35 44.7068H112.352Z" fill="#F8F2EA"/>
<path d="M111.56 80.1524C111.587 80.1852 111.615 80.2192 111.643 80.2519C111.554 80.5056 111.453 80.7532 111.211 81.0226C111.301 80.6634 111.408 80.4 111.56 80.1524Z" fill="#F8F2EA"/>
<path d="M16.2526 23.1864C16.2865 23.2204 16.3215 23.2556 16.3554 23.2896C16.2405 23.5517 16.0326 23.7374 15.8198 23.9243C15.9057 23.6427 16.0435 23.3939 16.2526 23.1864Z" fill="#F8F2EA"/>
<path d="M8.928 81.4773C9.08032 81.7443 9.22418 82.0125 9.25561 82.3305C9.07186 82.0926 8.92196 81.839 8.85547 81.5416C8.87965 81.5198 8.90382 81.4991 8.928 81.4773Z" fill="#F8F2EA"/>
<path d="M26.0176 101.241C26.0176 101.199 26.0164 101.158 26.0151 101.116C26.2567 101.256 26.4775 101.421 26.6446 101.659C26.4116 101.557 26.1774 101.459 26.0176 101.242V101.241Z" fill="#F8F2EA"/>
<path d="M111.582 41.5317C111.396 41.3266 111.257 41.1045 111.306 40.7197C111.421 41.0583 111.502 41.295 111.582 41.5317Z" fill="#F8F2EA"/>
<path d="M112.352 44.7066C112.382 44.669 112.411 44.6314 112.442 44.5938C112.562 44.8195 112.597 45.0634 112.56 45.3256C112.491 45.1193 112.421 44.9129 112.352 44.7066Z" fill="#F8F2EA"/>
<path d="M113.671 73.9187C113.702 73.9321 113.733 73.9297 113.763 73.9151C113.694 74.136 113.625 74.3581 113.515 74.7113C113.476 74.329 113.539 74.1166 113.671 73.92V73.9187Z" fill="#F8F2EA"/>
<path d="M48.3961 4.92166C48.6476 4.79422 48.9111 4.73839 49.2919 4.7833C48.9401 4.8549 48.6995 4.97749 48.4276 4.95928C48.4167 4.94715 48.407 4.9338 48.3961 4.92166Z" fill="#F8F2EA"/>
<path d="M25.1465 100.569C24.9464 100.406 24.7463 100.244 24.5463 100.082C24.5694 100.058 24.5914 100.034 24.6146 100.011C24.8427 100.145 25.044 100.312 25.2136 100.515C25.1843 100.524 25.1623 100.542 25.1465 100.569Z" fill="#F8F2EA"/>
<path d="M113.202 75.7503C113.176 75.7236 113.151 75.6956 113.126 75.6689C113.186 75.4578 113.247 75.2466 113.307 75.0354C113.34 75.2878 113.349 75.5342 113.201 75.7503H113.202Z" fill="#F8F2EA"/>
</g>
<path d="M70.776 68.7422C70.8433 69.3382 71.0132 69.9178 71.2782 70.455C72.1694 72.3512 73.3327 74.0736 74.5114 75.798C75.9009 77.8313 77.4553 79.7449 78.8237 81.784C80.5321 84.3593 81.9368 87.1264 83.0095 90.0293C83.7071 91.883 84.399 93.7445 84.6961 95.7199C84.8721 96.8589 84.8324 98.0213 84.5792 99.1454C84.4156 99.9033 84.0169 100.589 83.4407 101.103C81.0891 103.228 78.3446 104.666 75.4065 105.767C71.2157 107.324 66.8067 108.202 62.3431 108.37C59.6491 108.481 56.9506 108.379 54.2724 108.065C52.3252 107.841 50.3818 107.628 48.471 107.186C46.2861 106.678 44.0859 106.221 41.9738 105.448C40.1464 104.811 38.4158 103.92 36.8317 102.803C36.387 102.486 35.9765 102.123 35.607 101.719C35.0193 101.076 34.6971 100.232 34.7062 99.3579C34.7062 93.9337 36.295 89.0773 39.7295 84.835C41.418 82.7476 43.3902 80.973 45.3067 79.1135C47.0173 77.5015 48.6283 75.7855 50.1307 73.9751C51.5413 72.2372 52.3022 70.1943 52.6587 67.9891C52.697 67.7554 52.5514 67.7014 52.4038 67.6183C50.1353 66.3304 48.1935 64.5307 46.7307 62.3603C45.1132 59.9524 44.4309 57.2355 44.4769 54.3429C44.5305 50.7512 45.7456 47.5574 47.7868 44.6455C49.2299 42.5851 50.8648 40.7082 53.0267 39.4164C58.2551 36.2882 63.656 35.6742 69.1259 38.7521C72.2422 40.5074 74.2642 43.2861 75.5713 46.5996C76.4912 48.9303 77.0336 51.3498 76.8554 53.8678C76.5506 58.1797 75.0078 61.9239 71.696 64.8068C71.5139 64.9751 71.314 65.1228 71.0999 65.2471C70.7856 65.417 70.7607 65.5406 71.052 65.7839C71.9414 66.5441 72.7879 67.3539 73.5876 68.2092C74.3236 68.9816 75.0883 69.7308 75.6192 70.6712C75.8108 71.0188 76.1348 71.4204 75.8722 71.7873C75.6096 72.1542 75.1055 72.0171 74.7012 71.963C74.2968 71.909 73.9575 71.6657 73.624 71.4417C72.7262 70.8177 71.9147 70.0762 71.2111 69.2365L70.776 68.7422ZM61.3848 106.659C64.4082 106.702 67.4268 106.401 70.3831 105.761C73.9978 104.948 77.5128 103.869 80.6119 101.706C81.7081 100.943 82.6818 100.105 83.2337 98.8481C83.3795 98.5283 83.4308 98.173 83.3813 97.8247C83.2567 96.919 83.0689 96.0269 82.8677 95.1348C81.8902 90.7901 80.403 86.6578 77.8846 82.9523C76.3111 80.6351 74.7318 78.3179 72.8689 76.2286C71.7625 74.9622 70.9024 73.4976 70.3333 71.9109C69.551 69.8835 69.2111 67.7102 69.3367 65.5387C69.3501 65.3205 69.2389 64.9922 69.5571 64.857C69.7292 64.7695 69.8853 64.6533 70.019 64.5133C73.9805 60.9681 75.9009 56.5403 75.5444 51.1896C75.4488 49.435 75.0027 47.7179 74.2327 46.1412C73.4627 44.5645 72.3848 43.1606 71.0635 42.0136C67.3626 38.7212 63.035 37.6746 58.2225 38.6884C55.0726 39.3241 52.209 40.963 50.0541 43.3633C46.9454 46.7734 45.4984 50.7802 46.1864 55.3721C46.9531 60.4757 49.6842 64.27 54.2686 66.6529C54.3632 66.685 54.4438 66.7491 54.4969 66.8342C54.55 66.9194 54.5722 67.0204 54.5599 67.1202C54.4821 69.1957 53.8171 71.2056 52.6434 72.9131C50.9606 75.4369 48.9444 77.6826 46.8361 79.8472C45.575 81.1429 44.2622 82.3865 42.9781 83.659C40.753 85.8642 39.145 88.4536 37.8685 91.3057C36.7189 93.8696 36.1362 96.6546 36.1609 99.4679C36.1609 99.8754 36.1839 100.329 36.617 100.547C37.9241 101.206 39.2255 101.878 40.5709 102.455C47.2195 105.321 54.1843 106.586 61.3848 106.659ZM75.1056 71.1578C75.0601 70.9233 74.9521 70.7057 74.7932 70.5283C74.0265 69.5184 73.2177 68.5298 72.3649 67.5855C72.0353 67.1997 71.66 66.856 71.2475 66.5621C70.9849 66.3883 70.7971 66.3883 70.5614 66.676C70.2758 67.0255 70.4483 67.2901 70.5997 67.5643C71.4226 69.0185 72.563 70.2651 73.9345 71.21C74.1426 71.3655 74.3761 71.4831 74.6245 71.5575C74.9254 71.6406 75.0979 71.5035 75.1056 71.1578Z" fill="#F8F2EA"/>
<path d="M45.2818 45.078C45.3796 45.9913 44.7068 46.3602 43.9575 46.1864C42.7595 45.8912 41.6012 45.4517 40.5076 44.8772C38.3534 43.79 36.1302 42.8535 33.9645 41.7876C32.5558 41.0982 31.1375 40.4205 29.9224 39.3932C29.6944 39.2001 29.472 39.007 29.2574 38.7946C28.899 38.447 28.9431 38.1342 29.3954 37.9025C29.7587 37.726 30.1632 37.6539 30.5645 37.6939C32.2894 37.804 33.9108 38.3311 35.4901 39.0263C38.4243 40.3201 41.2283 41.8668 44.0265 43.427C44.2406 43.549 44.4473 43.6838 44.6455 43.8306C45.1764 44.2187 45.278 44.4311 45.2818 45.078ZM45.0902 45.2344C45.0994 45.1435 45.0878 45.0516 45.0563 44.9659C45.0247 44.8802 44.974 44.8029 44.9081 44.7401C44.3761 44.1152 43.7309 43.5981 43.0068 43.2165C40.5153 41.8648 38.0008 40.5537 35.3923 39.4395C34.0335 38.8602 32.6535 38.3408 31.1759 38.1477C30.8903 38.1091 30.6316 38.1612 30.4993 38.4065C30.3671 38.6517 30.5894 38.8332 30.7657 38.9858C31.2456 39.3649 31.7588 39.699 32.299 39.9841C36.0919 42.2028 40.1876 43.7553 44.2105 45.4681C44.3797 45.5334 44.557 45.575 44.7375 45.5916C44.9771 45.6187 45.14 45.5298 45.0882 45.2344H45.0902Z" fill="#F8F2EA"/>
<path d="M79.4504 50.1893C78.8946 50.2125 78.3369 50.3438 77.783 50.1739L77.7293 50.1024C77.3326 49.6216 77.3671 49.3976 77.921 49.1022C78.2098 48.9577 78.506 48.8288 78.8084 48.716C80.0963 48.1985 81.4417 47.8586 82.7527 47.4106C84.2457 46.9009 85.7291 46.3525 87.2719 45.9933C88.1046 45.7901 88.967 45.741 89.8172 45.8485C90.2465 45.9045 90.3385 46.1053 90.1602 46.4992C89.9699 46.8575 89.6748 47.148 89.315 47.3315C87.7607 48.297 86.0262 48.7662 84.2878 49.2431C82.701 49.6796 81.084 49.9959 79.4504 50.1893ZM79.4715 49.1505C82.3464 48.5615 85.2519 48.0846 87.9044 46.7C85.0271 47.2641 82.205 48.0841 79.4715 49.1505Z" fill="#464646"/>
<path d="M28.6901 68.6128C28.0212 68.6128 27.6072 67.9929 27.8085 67.2765C28.053 66.4706 28.5482 65.7652 29.221 65.2644C30.646 64.1528 32.1832 63.1956 33.8073 62.4085C35.9752 61.2943 38.2076 60.3123 40.4923 59.4676C41.372 59.1548 42.2747 58.8883 43.2292 59.0274C43.5689 59.0444 43.888 59.1964 44.1166 59.4503C44.1808 59.5134 44.2222 59.5964 44.234 59.6861C44.2458 59.7757 44.2274 59.8667 44.1817 59.9446C43.9423 60.3807 43.6 60.7507 43.1851 61.0221C41.8725 61.933 40.4887 62.7351 39.0472 63.4203C36.5097 64.6948 34.0181 66.0561 31.5726 67.5044C30.9312 67.8746 30.2568 68.1837 29.5583 68.4274C29.2816 68.5389 28.9879 68.6016 28.6901 68.6128ZM28.9431 67.989C29.2735 67.9946 29.601 67.9253 29.9014 67.7863C31.012 67.3204 32.0897 66.7785 33.1269 66.1643C35.6779 64.7295 38.2231 63.2794 40.8066 61.9026C41.4238 61.5743 42.0735 61.3059 42.637 60.8811C43.1314 60.5084 43.3844 60.0199 43.2522 59.7109C43.1065 59.3692 42.522 59.1915 41.9317 59.2765C40.7821 59.4627 39.6665 59.8206 38.6217 60.3385C35.7325 61.7157 32.9434 63.2966 30.2751 65.0694C29.5315 65.556 28.8377 66.0793 28.3298 66.8305C28.232 66.9536 28.1715 67.1025 28.1556 67.2593C28.1396 67.4161 28.1688 67.5743 28.2397 67.7148C28.3834 67.989 28.6556 67.989 28.9431 67.989Z" fill="#F8F2EA"/>
<path d="M81.0661 27.1373C81.0532 27.583 80.93 28.0184 80.7077 28.404C79.7322 30.335 78.4327 32.0458 77.0125 33.664C75.9833 34.838 75.096 36.1395 74.0189 37.2672C73.4784 37.8311 72.9341 38.3891 72.0812 38.4644C71.2992 38.5339 70.8699 38.0898 71.0175 37.3058C71.137 36.7965 71.3481 36.3135 71.6404 35.8808C72.8575 33.9207 74.2338 32.0658 75.7553 30.335C76.6752 29.2575 77.5588 28.1472 78.611 27.1894C78.9652 26.8632 79.3586 26.583 79.782 26.3552C80.585 25.9324 81.068 26.2239 81.0661 27.1373ZM72.0582 38.3563C72.1817 38.3598 72.3045 38.3368 72.4185 38.2888C72.5325 38.2409 72.635 38.1691 72.7194 38.0782C72.905 37.9145 73.0768 37.7356 73.2331 37.5433C75.4429 34.699 77.7255 31.9068 79.8184 28.9621C80.067 28.6453 80.2613 28.289 80.3934 27.9077C80.449 27.7146 80.5371 27.51 80.378 27.3516C80.219 27.1933 79.9851 27.2493 79.7897 27.3207C79.2489 27.5086 78.7528 27.8078 78.3331 28.1993C76.1923 30.2655 74.2067 32.4649 72.6159 34.9964C72.1253 35.7688 71.6404 36.5682 71.3893 37.4719C71.3611 37.5753 71.3569 37.6839 71.377 37.7893C71.3971 37.8946 71.441 37.9939 71.5053 38.0794C71.5696 38.1649 71.6526 38.2344 71.7478 38.2824C71.843 38.3304 71.9479 38.3557 72.0544 38.3563H72.0582Z" fill="#F8F2EA"/>
<path d="M79.4504 50.1893C81.0834 49.9957 82.6997 49.6794 84.2859 49.2431C86.0243 48.7662 87.7588 48.2969 89.3131 47.3314C89.6729 47.148 89.968 46.8574 90.1583 46.4992C90.3365 46.113 90.2446 45.9044 89.8152 45.8484C88.9651 45.7409 88.1027 45.79 87.27 45.9933C85.7272 46.3524 84.2438 46.9008 82.7508 47.4106C81.4398 47.8586 80.0944 48.1984 78.8065 48.7159C78.5041 48.8288 78.2079 48.9577 77.9191 49.1021C77.3671 49.3976 77.3326 49.6216 77.7274 50.1024C77.5787 50.0812 77.44 50.0141 77.3306 49.9104C77.2211 49.8067 77.1462 49.6714 77.116 49.5231C77.0394 49.2045 77.2195 49.0075 77.4399 48.8279C78.0456 48.3336 78.7662 48.0556 79.4792 47.7891C82.1432 46.7734 84.8322 45.8253 87.615 45.1803C88.3066 45.0102 89.0124 44.9049 89.7232 44.8656C90.1871 44.8463 90.6815 44.9196 90.8828 45.3387C91.1013 45.7886 90.8004 46.2308 90.4899 46.5706C89.8267 47.2986 88.9566 47.7292 88.0827 48.1154C85.4906 49.2585 82.7335 49.9756 79.9162 50.2395C79.7667 50.2627 79.5923 50.3283 79.4504 50.1893Z" fill="#F8F2EA"/>
<path d="M76.8918 61.6458C77.8923 61.6728 78.7202 62.0802 79.5539 62.4761C81.8883 63.5825 84.1134 64.9033 86.4267 66.0465C87.013 66.3055 87.517 66.7224 87.8833 67.2514C88.2015 67.7496 88.0884 68.0759 87.5269 68.2671C87.1553 68.3914 86.7562 68.4055 86.3769 68.3076C85.4485 68.0619 84.5466 67.7242 83.6841 67.2997C82.4863 66.7378 81.2846 66.1816 80.1116 65.5618C78.9965 64.9508 77.9129 64.2831 76.865 63.5613C76.6407 63.4041 76.446 63.208 76.29 62.982C76.186 62.8553 76.1182 62.7024 76.0939 62.5398C76.0696 62.3772 76.0897 62.211 76.152 62.059C76.205 61.9117 76.3091 61.7888 76.4451 61.7128C76.5811 61.6369 76.7398 61.6131 76.8918 61.6458ZM77.3652 62.3293C77.0796 62.3293 76.7711 62.368 76.6771 62.6557C76.5832 62.9434 76.9129 63.0419 77.0892 63.1963C77.0988 63.1963 77.1122 63.2079 77.1218 63.2157C79.2703 64.5673 81.5107 65.7665 83.7589 66.9424C84.6132 67.407 85.5066 67.7947 86.4287 68.101C86.6989 68.186 86.95 68.2092 87.109 67.9485C87.2681 67.6878 87.0765 67.4735 86.8944 67.3093C86.6169 67.0553 86.3257 66.8168 86.0223 66.5949C84.9472 65.8225 83.757 65.2335 82.6377 64.5326C81.306 63.7023 79.8784 63.0395 78.3867 62.5591C78.0583 62.4355 77.7146 62.3582 77.3652 62.3293Z" fill="#F8F2EA"/>
<path d="M48.8141 23.8507C48.9575 23.8575 49.0977 23.8956 49.2251 23.9623C49.3525 24.0289 49.464 24.1226 49.5519 24.2369C50.2342 25.0248 50.7019 25.942 51.1331 26.8766C52.515 29.8889 53.7972 32.9399 54.6788 36.1453C54.7631 36.4465 54.834 36.7535 54.9011 37.0586C54.9539 37.2895 54.9282 37.5316 54.8283 37.7461C54.5906 38.2694 54.167 38.391 53.6937 38.057C53.3234 37.7671 53.0255 37.3942 52.8235 36.9679C51.7775 34.9851 50.8414 32.9455 50.0196 30.8583C49.285 29.0033 48.6767 27.1001 48.1989 25.1619C48.1313 24.9227 48.0997 24.6748 48.1049 24.4262C48.1241 23.9898 48.2966 23.8314 48.8141 23.8507ZM54.8033 37.4487C54.7827 37.1807 54.7352 36.9154 54.6615 36.657C54.3031 35.5834 53.8642 34.5329 53.4426 33.4883C52.5169 31.1846 51.7637 28.8114 50.6981 26.5638C50.3397 25.8107 49.9947 25.0499 49.4849 24.3856C49.2108 24.0323 48.9731 24.0516 48.7067 24.4069C48.4403 24.7622 48.5745 25.1039 48.6627 25.4554C49.2549 27.8112 50.171 30.053 51.1063 32.2833C51.7424 33.8664 52.5306 35.383 53.4598 36.8115C53.6878 37.1621 53.9822 37.4639 54.3261 37.6997C54.6098 37.889 54.8091 37.775 54.8033 37.4487Z" fill="#F8F2EA"/>
<path d="M64.252 34.979C64.2803 34.1866 64.3953 33.3997 64.5951 32.6328C64.9611 31.1286 65.2218 29.5877 65.9673 28.2031C66.0961 27.9477 66.2448 27.703 66.412 27.4713C66.7321 27.0523 67.2342 27.0619 67.5734 27.4713C67.6998 27.6299 67.7931 27.8125 67.8477 28.0083C67.9024 28.204 67.9173 28.4089 67.8916 28.6106C67.7306 30.7945 67.33 32.9282 66.4906 34.9596C66.2909 35.3989 66.0469 35.8163 65.7623 36.2051C65.4844 36.6126 65.0167 36.6396 64.6296 36.2418C64.2424 35.844 64.2731 35.4636 64.252 34.979ZM67.6271 29.0335C67.6531 28.7696 67.6304 28.5031 67.56 28.2476C67.3875 27.7764 67.1882 27.7069 66.7934 27.9946C66.4484 28.2545 66.1978 28.6216 66.0804 29.0393C65.5055 30.81 64.9554 32.5865 64.6871 34.4363C64.6181 34.9075 64.5242 35.4018 64.666 35.873C64.6834 35.9762 64.7283 36.0727 64.7957 36.1522C64.8632 36.2318 64.9509 36.2914 65.0493 36.3248C65.241 36.3712 65.379 36.2071 65.4863 36.0603C65.5978 35.9166 65.6947 35.762 65.7757 35.5988C66.763 33.5339 67.3893 31.3129 67.6271 29.0335Z" fill="#F8F2EA"/>
<path d="M82.9558 57.6409C82.1355 57.359 81.2462 57.5135 80.424 57.2296C80.0777 57.1406 79.7521 56.9838 79.4657 56.7681C79.2511 56.2873 79.4255 55.9822 79.9947 55.9282C81.5644 55.7737 83.1206 55.9591 84.6731 56.1541C84.8935 56.18 85.1054 56.2554 85.2931 56.3747C85.4808 56.494 85.6396 56.6542 85.7578 56.8434C85.8575 56.9979 85.8767 57.1736 85.6793 57.2296C85.4014 57.2972 85.1675 57.4594 84.8762 57.5019C84.2395 57.5879 83.5982 57.6344 82.9558 57.6409ZM84.4297 56.9748C83.2797 56.9612 82.1451 56.687 80.9894 56.8087C82.1355 56.8821 83.2682 57.0945 84.4297 56.9825V56.9748ZM80.4049 56.3858C81.137 56.4881 81.873 56.436 82.6051 56.5094C81.8923 56.2976 81.1405 56.2552 80.4087 56.3858H80.4049Z" fill="#464646"/>
<path d="M48.1643 40.938C48.2927 41.1446 48.4212 41.3512 48.5476 41.5578C48.5832 41.6083 48.6152 41.6612 48.6435 41.7162C48.7259 41.9093 48.9655 42.0869 48.8025 42.3051C48.6396 42.5233 48.3675 42.4789 48.1241 42.4229C48.0364 42.4046 47.9509 42.3768 47.8692 42.3399C47.5472 42.1835 47.231 42.0213 46.9109 41.861C46.8764 41.7934 46.8419 41.7258 46.7461 41.7722L46.7595 41.7838C46.7595 41.664 46.6771 41.6467 46.5947 41.6216C46.5391 41.5694 46.4854 41.5154 46.4279 41.4652C45.4581 40.6213 44.473 39.7929 43.7256 38.729C43.5339 38.449 43.2694 38.0975 43.5588 37.7751C43.8482 37.4526 44.2392 37.6573 44.5554 37.8311C45.1012 38.1564 45.6119 38.5383 46.0791 38.9703C46.6752 39.4801 47.1926 40.0768 47.827 40.5402V40.5306C47.8155 40.6039 47.827 40.6541 47.9171 40.6175L47.9056 40.6059C47.8749 40.7468 47.9938 40.7835 48.0743 40.8492V40.8395C48.0819 40.9013 48.0953 40.9554 48.1643 40.938ZM47.6794 41.4845C47.7024 41.5038 47.7389 41.5463 47.7465 41.5405C47.8155 41.4961 47.7465 41.4729 47.7274 41.442C46.6637 40.1579 45.5099 38.9819 44.0073 38.1419C44.0068 38.227 44.0235 38.3113 44.0565 38.3897C44.0894 38.4681 44.1379 38.5388 44.1989 38.5977C45.2193 39.7193 46.3909 40.6911 47.6794 41.4845Z" fill="#464646"/>
<path d="M81.8135 39.6751C81.4771 40.1569 81.0515 40.5686 80.5601 40.8878C80.4068 40.9901 80.3225 41.1504 80.1653 41.2315C80.058 41.2315 79.9736 41.2643 79.9736 41.3956L79.9851 41.386C79.7207 41.4343 79.5482 41.6254 79.3565 41.7896C79.3077 41.7979 79.2612 41.8168 79.2202 41.8447C79.1792 41.8727 79.1447 41.9092 79.1188 41.9518C79.069 41.9567 79.021 41.9739 78.9793 42.0018C78.9375 42.0298 78.9032 42.0676 78.8793 42.112C78.8314 42.112 78.7585 42.0985 78.7911 42.1931H78.8007C78.6531 42.1429 78.5669 42.2684 78.4615 42.3244C78.1843 42.4917 77.8883 42.6252 77.5798 42.7222C77.3709 42.7744 77.1314 42.8419 76.9723 42.6295C76.9032 42.5326 76.8682 42.4152 76.8727 42.296C76.8772 42.1768 76.921 42.0624 76.9972 41.9711C77.1042 41.808 77.2214 41.6519 77.3479 41.5038C77.8883 40.9239 78.4906 40.4058 79.1438 39.959C79.7341 39.5342 80.3263 39.1055 81.0278 38.8854C81.3114 38.7965 81.6257 38.7116 81.8768 38.951C82.1279 39.1905 81.873 39.426 81.8135 39.6751ZM81.2386 39.764C81.4302 39.5998 81.7407 39.3546 81.6391 39.1731C81.505 38.9317 81.1753 39.1403 80.9338 39.2078C80.9147 39.2078 80.9013 39.2329 80.8763 39.2542C81.1351 39.3025 81.3018 39.4087 81.1811 39.706C81.1581 39.7466 81.0431 39.7524 81.1121 39.8238C81.1811 39.8953 81.2213 39.8335 81.2424 39.764H81.2386ZM77.6776 42.114C78.4538 41.8436 80.5524 40.1444 80.9358 39.5033C79.5692 40.1366 78.4768 40.938 77.6776 42.114Z" fill="#464646"/>
<path d="M59.842 35.8305C59.5928 35.8769 59.5526 35.6626 59.4951 35.5158C58.8578 33.9886 58.4017 32.3909 58.1362 30.7559C58.0465 30.3611 58.0155 29.955 58.0443 29.551C58.0922 29.244 58.1209 28.881 58.4716 28.7786C58.8224 28.6763 59.0907 28.908 59.3341 29.1648C59.9723 29.8638 60.1506 30.7521 60.3346 31.6287C60.5741 32.6715 60.726 33.7328 60.7888 34.8013C60.8293 35.1536 60.751 35.5093 60.5665 35.8112C60.3461 36.1241 60.0164 36.1202 59.8343 35.8112C60.2541 35.9619 60.3671 35.9001 60.4265 35.4656C60.4476 35.3107 60.4515 35.154 60.438 34.9983C60.3269 33.7219 59.9972 32.488 59.773 31.2252C59.6949 30.6686 59.5177 30.1309 59.2498 29.6379C59.175 29.5143 59.0869 29.3482 58.8914 29.3888C58.8159 29.4098 58.7473 29.4505 58.6924 29.5068C58.6376 29.563 58.5984 29.6329 58.579 29.7093C58.5105 29.9204 58.4806 30.1422 58.4908 30.3639C58.4908 31.7794 58.8741 33.1214 59.2574 34.4634C59.3974 34.95 59.5296 35.4308 59.842 35.8305Z" fill="#F8F2EA"/>
<path d="M43.1199 52.7343C43.4113 52.8135 43.6336 52.9912 43.6048 53.304C43.5761 53.6168 43.4668 53.9315 43.0835 54.0474C42.6102 54.1855 42.1197 54.2544 41.6269 54.2521C40.1358 54.2695 38.6428 54.2849 37.1901 53.8659C36.8267 53.7676 36.477 53.6235 36.1494 53.4372C35.7507 53.2036 35.7047 52.8579 36.0095 52.4949C36.1516 52.3242 36.327 52.1847 36.5248 52.085C36.7226 51.9854 36.9386 51.9277 37.1594 51.9156C39.058 51.7605 40.9681 51.9937 42.7749 52.6011C41.2726 52.2617 39.7425 52.0619 38.2039 52.0044C37.7639 51.9702 37.3216 52.0274 36.9045 52.1724C36.7943 52.2134 36.6983 52.2858 36.6282 52.3807C36.5581 52.4757 36.5169 52.5892 36.5097 52.7073C36.4809 52.9603 36.6496 53.0819 36.8278 53.1997C37.1 53.3774 37.4181 53.3716 37.7229 53.4198C39.0376 53.6361 40.339 53.9624 41.6825 53.9547C42.0927 53.9547 42.5028 53.9856 42.9053 53.808C43.3078 53.6303 43.4975 53.0781 43.0624 52.7845L43.1199 52.7343Z" fill="#F8F2EA"/>
<path d="M46.3589 64.6832C46.4481 64.7606 46.5055 64.8687 46.5199 64.9864C46.4764 65.033 46.4355 65.082 46.3972 65.1331C45.5385 66.3483 44.4668 67.3953 43.2349 68.2227C42.9455 68.4158 42.5392 68.6707 42.2479 68.3637C41.9566 68.0566 42.2479 67.6782 42.4721 67.3982C43.1592 66.4583 44.0332 65.6731 45.0384 65.0926C45.4466 64.8667 45.8721 64.6639 46.3589 64.6832ZM43.0509 67.7728C43.954 67.2529 44.7409 66.5509 45.3623 65.7105C45.3853 65.6893 45.4294 65.6526 45.4255 65.6468C45.3872 65.5831 45.3489 65.6275 45.3125 65.6468C44.4577 66.2396 43.6067 66.8401 42.9992 67.7149C42.9628 67.7284 42.9302 67.7515 42.9608 67.7902C42.9685 67.8133 43.0203 67.796 43.0509 67.7805V67.7728Z" fill="#464646"/>
<path d="M82.9558 57.641C83.5971 57.6317 84.2371 57.5827 84.8724 57.4942C85.1637 57.4517 85.3975 57.2895 85.6754 57.2219C85.8671 57.1737 85.8537 56.9979 85.754 56.8357C85.6358 56.6465 85.477 56.4863 85.2893 56.367C85.1016 56.2477 84.8897 56.1723 84.6692 56.1464C83.1168 55.9533 81.5606 55.7602 79.9909 55.9205C79.4159 55.9745 79.2473 56.2796 79.4619 56.7604C79.0652 56.6909 79.0058 56.3742 78.9885 56.0576C78.9713 55.7409 79.2377 55.6714 79.4926 55.6327C81.7027 55.2996 83.959 55.4766 86.0913 56.1502C86.6663 56.3433 86.72 56.6697 86.2638 57.0752C85.7349 57.5463 85.0736 57.6352 84.4201 57.6834C83.9352 57.7259 83.4369 57.807 82.9558 57.641Z" fill="#F8F2EA"/>
<path d="M46.3589 64.6832C45.8721 64.6639 45.4467 64.8667 45.0384 65.0926C44.034 65.6708 43.16 66.4534 42.4721 67.3905C42.2536 67.6743 41.9393 68.0335 42.2479 68.356C42.5565 68.6784 42.9455 68.4158 43.2349 68.215C44.4668 67.3876 45.5385 66.3406 46.3973 65.1254C46.4355 65.0743 46.4764 65.0253 46.5199 64.9787C46.5065 65.4035 46.2631 65.7163 45.9871 65.9886C45.117 66.8459 44.2775 67.7361 43.3039 68.4718C43.0456 68.6905 42.7545 68.8665 42.4415 68.9932C42.0677 69.1226 41.8397 68.9835 41.763 68.5935C41.7147 68.3886 41.7398 68.1732 41.8339 67.9852C42.6368 66.4289 43.9832 65.2272 45.6134 64.6118C45.8453 64.5288 46.1309 64.411 46.3589 64.6832Z" fill="#F8F2EA"/>
<path d="M81.8135 39.6751C81.873 39.426 82.1643 39.1885 81.8902 38.9239C81.6161 38.6594 81.3248 38.7695 81.0412 38.8583C80.3397 39.0784 79.7475 39.5071 79.1572 39.9319C78.504 40.3787 77.9017 40.8968 77.3614 41.4767C77.2348 41.6249 77.1176 41.7809 77.0106 41.944C76.9344 42.0353 76.8906 42.1497 76.8861 42.2689C76.8816 42.3882 76.9166 42.5055 76.9857 42.6025C77.1448 42.8149 77.3844 42.7473 77.5933 42.6951C77.902 42.6014 78.1985 42.4711 78.4768 42.307C78.5822 42.251 78.6685 42.1255 78.816 42.1757C78.3273 42.5947 77.7983 42.9288 77.1237 42.8535C76.7116 42.8091 76.612 42.5889 76.75 42.197C76.9704 41.5655 77.4495 41.1407 77.9114 40.7043C78.6547 39.9587 79.4797 39.3005 80.3704 38.7424C80.725 38.525 81.1139 38.3702 81.5203 38.2848C82.057 38.1824 82.3502 38.4431 82.2869 38.9935C82.2808 39.1407 82.233 39.2832 82.1491 39.404C82.0652 39.5248 81.9488 39.6188 81.8135 39.6751Z" fill="#F8F2EA"/>
<path d="M47.8366 40.5499C47.2022 40.0864 46.6867 39.4898 46.0887 38.98C45.6215 38.5479 45.1108 38.1661 44.565 37.8407C44.2488 37.6669 43.8674 37.4545 43.5684 37.7847C43.2694 38.1149 43.5397 38.4586 43.7352 38.7386C44.4826 39.8026 45.4601 40.631 46.4375 41.4748C46.495 41.525 46.5487 41.5791 46.6043 41.6312C46.4797 41.6891 46.4126 41.5868 46.3321 41.5289C45.2301 40.6792 44.1568 39.791 43.3308 38.6575C43.2593 38.5656 43.1952 38.4681 43.1391 38.3659C43.0107 38.113 42.8075 37.8311 43.049 37.5781C43.1651 37.4439 43.3208 37.3508 43.4934 37.3125C43.6659 37.2743 43.8461 37.2929 44.0073 37.3657C45.0557 37.8214 45.9239 38.5359 46.7538 39.316C47.1505 39.6925 47.576 40.0497 47.8366 40.5499Z" fill="#F8F2EA"/>
<path d="M46.9109 41.861C47.231 42.0212 47.5472 42.1834 47.8692 42.3398C47.9509 42.3767 48.0364 42.4046 48.1241 42.4229C48.3675 42.4789 48.6377 42.5233 48.8025 42.3051C48.9674 42.0869 48.7259 41.9073 48.6435 41.7161C48.6152 41.6612 48.5832 41.6083 48.5476 41.5578C48.8179 41.6814 49.1226 42.2703 49.0153 42.4731C48.908 42.6758 48.4556 42.8226 48.1528 42.6662C47.7197 42.4248 47.2367 42.2723 46.9109 41.861Z" fill="#F8F2EA"/>
<path d="M79.3565 41.7932C79.5499 41.6276 79.724 41.4347 79.9909 41.386C79.8729 41.6705 79.6292 41.7543 79.3565 41.7932Z" fill="#F8F2EA"/>
<path d="M79.1227 41.9486C79.1489 41.9053 79.1841 41.8683 79.2257 41.8398C79.2674 41.8114 79.3146 41.7923 79.3642 41.7838C79.3584 41.9506 79.2454 41.9682 79.1227 41.9486Z" fill="#F8F2EA"/>
<path d="M78.887 42.1031C78.9112 42.0579 78.9461 42.0195 78.9886 41.9911C79.031 41.9627 79.0797 41.9452 79.1304 41.9402C79.1265 42.1168 79.0155 42.1168 78.887 42.1031Z" fill="#F8F2EA"/>
<path d="M48.079 40.8627C47.9972 40.796 47.8842 40.7587 47.9076 40.6155C47.9559 40.6369 47.9974 40.6713 48.0276 40.7149C48.0578 40.7585 48.0756 40.8097 48.079 40.8627Z" fill="#F8F2EA"/>
<path d="M79.9736 41.4014C79.9736 41.2655 80.0609 41.2375 80.172 41.2315C80.1648 41.2792 80.1408 41.3226 80.1043 41.3538C80.0679 41.385 80.0215 41.4019 79.9736 41.4014Z" fill="#F8F2EA"/>
<path d="M46.6005 41.6273C46.6858 41.6533 46.779 41.6713 46.7711 41.7952C46.6739 41.7792 46.5787 41.7632 46.6005 41.6273Z" fill="#F8F2EA"/>
<path d="M42.9321 52.7041C42.9644 52.6862 43.0018 52.6803 43.038 52.6872C43.0742 52.6941 43.1069 52.7135 43.1304 52.7421L43.0828 52.796C43.0253 52.778 42.95 52.782 42.9381 52.6961L42.9321 52.7041Z" fill="#F8F2EA"/>
<path d="M42.7788 52.6146C42.8268 52.6549 42.9268 52.6146 42.9388 52.7073C42.8728 52.7073 42.8008 52.7073 42.7848 52.6166L42.7788 52.6146Z" fill="#F8F2EA"/>
<path d="M46.7518 41.7786C46.8518 41.7303 46.8878 41.8008 46.9238 41.8713C46.9066 41.8789 46.8879 41.8825 46.8692 41.8818C46.8504 41.8811 46.832 41.876 46.8155 41.8671C46.7989 41.8582 46.7846 41.8456 46.7735 41.8303C46.7625 41.8149 46.7551 41.7973 46.7518 41.7786Z" fill="#F8F2EA"/>
<path d="M77.7293 50.1024L77.7838 50.178C77.7994 50.1249 77.7799 50.1004 77.7293 50.1024Z" fill="#F8F2EA"/>
<path d="M48.1634 40.941C48.0951 40.953 48.0818 40.9031 48.0685 40.8491L48.1634 40.941Z" fill="#F8F2EA"/>
<path d="M47.9181 40.6301C47.827 40.6681 47.8175 40.6161 47.8289 40.5402C47.8518 40.5407 47.8737 40.5502 47.8902 40.5668C47.9067 40.5835 47.9167 40.6061 47.9181 40.6301Z" fill="#F8F2EA"/>
<path d="M78.8045 42.1805C78.7722 42.0826 78.8443 42.1026 78.8918 42.0966C78.9184 42.1865 78.8595 42.1845 78.8045 42.1805Z" fill="#F8F2EA"/>
<path d="M61.3848 106.659C54.1843 106.585 47.2195 105.321 40.569 102.472C39.2274 101.893 37.9222 101.223 36.6151 100.565C36.182 100.346 36.1609 99.8927 36.159 99.4852C36.1343 96.672 36.717 93.8869 37.8666 91.323C39.1354 88.4709 40.7415 85.8815 42.9762 83.6763C44.2603 82.4038 45.5731 81.166 46.8342 79.8646C48.9425 77.6999 50.9587 75.4542 52.6415 72.9304C53.8152 71.2229 54.4802 69.213 54.558 67.1375C54.5703 67.0377 54.5481 66.9367 54.495 66.8516C54.4419 66.7664 54.3613 66.7023 54.2667 66.6702C49.6823 64.2874 46.9473 60.4911 46.1845 55.3894C45.4965 50.7975 46.9512 46.7907 50.0522 43.3806C52.2071 40.9803 55.0707 39.3414 58.2206 38.7057C63.0408 37.692 67.3684 38.7386 71.0616 42.0309C72.3829 43.1779 73.4608 44.5818 74.2308 46.1585C75.0008 47.7352 75.4469 49.4523 75.5426 51.2069C75.899 56.5499 73.9786 60.9777 70.0171 64.5307C69.8834 64.6707 69.7273 64.7869 69.5552 64.8744C69.237 65.0095 69.3482 65.3378 69.3348 65.556C69.2092 67.7275 69.5491 69.9008 70.3314 71.9282C70.9005 73.5149 71.7606 74.9796 72.867 76.2459C74.7299 78.3391 76.3168 80.6543 77.8827 82.9696C80.3991 86.6751 81.8864 90.8074 82.8658 95.1521C83.0574 96.0442 83.2491 96.9364 83.3794 97.842C83.4289 98.1903 83.3776 98.5456 83.2318 98.8654C82.6799 100.122 81.6986 100.961 80.61 101.723C77.5109 103.88 73.9959 104.96 70.3812 105.778C67.4249 106.412 64.407 106.707 61.3848 106.659ZM42.3476 86.9126C42.3801 86.8837 42.4319 86.8566 42.3686 86.8103C42.3467 86.8293 42.3262 86.85 42.3073 86.8721C42.269 86.8914 42.2038 86.9069 42.2536 86.9609C42.3035 87.015 42.3226 86.9397 42.3476 86.9126ZM51.7388 77.5513C51.7043 77.5609 51.6506 77.5609 51.71 77.613C51.71 77.5918 51.7273 77.5706 51.7349 77.5474C51.7426 77.5242 51.8154 77.5474 51.7675 77.4933L51.7388 77.5513ZM51.5854 77.7888C51.5548 77.7888 51.5145 77.7791 51.5471 77.8332L51.5797 77.783C51.5969 77.7695 51.664 77.783 51.6008 77.7289L51.5854 77.7888ZM52.2045 76.9218L52.2869 76.8503C52.3142 76.8371 52.3372 76.8162 52.3532 76.7902C52.3692 76.7642 52.3774 76.7341 52.377 76.7036L52.446 76.6167C52.5111 76.5954 52.5284 76.5394 52.5418 76.4796L52.605 76.3869L52.7047 76.2498L52.7584 76.1494C52.7862 76.1349 52.8089 76.1121 52.8233 76.084C52.8377 76.056 52.8431 76.0242 52.8389 75.993L52.904 75.9022L52.9692 75.8192L52.9213 75.796C52.9213 75.8308 52.9098 75.8674 52.9059 75.9041C52.8504 75.8945 52.8312 75.9312 52.8197 75.9756L52.722 76.1088L52.6568 76.2015C52.6261 76.2498 52.5974 76.2981 52.5686 76.3483L52.5035 76.439C52.4709 76.4854 52.4402 76.5317 52.4096 76.58L52.3521 76.6785L52.2543 76.8136C52.2371 76.8503 52.2198 76.8851 52.2045 76.9218L52.1278 77.0029C52.098 77.0146 52.0736 77.0372 52.0594 77.0661C52.0452 77.095 52.0423 77.1283 52.0512 77.1593C51.9707 77.1863 51.9687 77.25 51.9764 77.3195L51.8748 77.3331L51.8921 77.3775L51.9707 77.3157C51.9961 77.2976 52.0164 77.2731 52.0295 77.2446C52.0426 77.2162 52.0481 77.1847 52.0454 77.1535C52.1297 77.1322 52.1412 77.0724 52.124 76.999C52.1796 77.0048 52.1949 76.9681 52.2006 76.9179L52.2045 76.9218ZM78.5841 88.8436C78.5818 88.8328 78.5779 88.8224 78.5726 88.8127C78.5657 88.8113 78.5585 88.8113 78.5516 88.8127L78.588 88.8456L78.6186 88.9247C78.6186 88.9247 78.6282 88.9054 78.6186 88.8996C78.6084 88.8802 78.5968 88.8615 78.5841 88.8436ZM68.1561 58.8845C68.0833 58.9019 68.0679 58.9617 68.0545 59.0216C68.0125 59.0429 67.9755 59.073 67.946 59.11C67.9166 59.147 67.8954 59.1899 67.8839 59.2359C67.836 59.2977 67.7153 59.3556 67.8111 59.4387C67.8514 59.4715 67.9184 59.3653 67.9357 59.29C67.9754 59.2619 68.0091 59.226 68.0347 59.1846C68.0604 59.1431 68.0776 59.0969 68.0852 59.0486C68.1009 59.0433 68.1153 59.0347 68.1276 59.0235C68.1399 59.0123 68.1498 58.9987 68.1566 58.9835C68.1634 58.9683 68.1671 58.9518 68.1673 58.9351C68.1676 58.9184 68.1644 58.9018 68.158 58.8864C68.2059 58.8864 68.2347 58.8729 68.1925 58.8208L68.1561 58.8845ZM54.282 52.2014L54.2054 52.3597L54.1268 52.5161C54.077 52.5644 54.0406 52.6146 54.098 52.6802L54.1843 52.5682L54.259 52.4099L54.3357 52.2516C54.3664 52.2168 54.3951 52.182 54.3472 52.1415C54.324 52.1598 54.3023 52.1798 54.282 52.2014ZM56.0932 42.7396C56.1545 42.7396 56.1871 42.6797 56.1526 42.6411C56.1181 42.6025 56.0836 42.6681 56.0529 42.6913L55.9744 42.7704C54.3204 44.7014 52.5801 46.5648 51.4723 48.9148C50.3032 51.3826 48.8601 55.3546 48.9444 56.0749C48.9616 56.0633 48.9885 56.0556 48.9961 56.0382C49.0287 55.9532 49.0575 55.8683 49.0862 55.7814C50.1959 52.4987 51.5605 49.3454 53.4215 46.42C54.2188 45.1687 55.1311 44.0024 56.0204 42.8168C56.0308 42.8169 56.0411 42.8147 56.0506 42.8104C56.0602 42.8062 56.0687 42.7999 56.0756 42.792C56.0825 42.7841 56.0876 42.7749 56.0907 42.7648C56.0937 42.7548 56.0946 42.7442 56.0932 42.7338V42.7396ZM78.4347 88.5192C78.4538 88.5482 78.3925 88.6216 78.4845 88.6119L78.4289 88.5231C78.4174 88.4632 78.4155 88.3995 78.3503 88.3686C78.335 88.3589 78.3503 88.2856 78.3024 88.3377L78.3561 88.3628C78.3486 88.394 78.3524 88.4269 78.3668 88.4556C78.3812 88.4842 78.4052 88.5068 78.4347 88.5192ZM77.1065 102.476L77.2253 102.447L77.1084 102.478L77.1065 102.476ZM39.35 91.9679C39.5401 91.7792 39.6483 91.5223 39.6509 91.2535C39.4845 91.4592 39.3819 91.7097 39.3558 91.9737L39.3079 92.0259L39.3405 92.0413L39.35 91.9679ZM37.9605 96.1311C37.8117 96.4183 37.7354 96.7379 37.7382 97.0619L37.8475 97.0773C37.8973 96.778 37.949 96.4768 37.9989 96.1756L38.4224 94.4686C38.1872 94.9963 38.0328 95.5568 37.9644 96.1311H37.9605ZM71.0022 51.6587C71.5273 51.4232 71.7592 50.867 72.225 50.5677C71.7409 50.8297 71.3273 51.206 71.0194 51.6645L70.9792 51.7553C70.9984 51.7553 71.0252 51.7553 71.0348 51.7553C71.075 51.707 71.0693 51.6703 71.0022 51.6587ZM40.7606 89.2298L42.2536 87.044C41.5733 87.6368 41.1689 88.4207 40.7357 89.1873C40.627 89.2964 40.5651 89.4441 40.5632 89.5986C40.6586 89.4943 40.7265 89.3675 40.7606 89.2298ZM72.8459 103.214C70.9945 103.722 69.1123 104.109 67.2112 104.373C69.1278 104.266 70.9639 103.807 72.8076 103.33C73.1558 103.271 73.4916 103.153 73.8004 102.98C73.4714 103.003 73.1488 103.082 72.8459 103.214ZM63.6464 105.514C63.7633 105.514 63.8783 105.531 63.9952 105.529C65.1068 105.502 66.2127 105.384 67.3147 105.249C68.1484 105.145 68.9802 105.018 69.8063 104.9C69.3654 104.863 68.9304 104.761 68.4953 104.85C66.8975 105.163 65.2819 105.376 63.6579 105.489C63.0293 105.421 62.4121 105.585 61.7854 105.581C62.1036 105.616 62.4241 105.625 62.7437 105.608C63.0542 105.589 63.3704 105.73 63.6483 105.514H63.6464ZM59.5449 104.218C61.2449 104.218 62.4198 104.206 63.5697 104.145C66.86 104.004 70.1247 103.496 73.304 102.631C75.7342 101.947 78.0628 101.022 80.1902 99.6243C80.3309 99.547 80.4485 99.4332 80.5307 99.2946C80.613 99.1561 80.6569 98.9979 80.6579 98.8364C80.6794 98.5501 80.673 98.2623 80.6387 97.9772C80.3321 96.2296 80.0637 94.4608 79.4447 92.7983C78.0228 88.8824 75.9709 85.2291 73.3711 81.9848C72.4396 80.8262 71.4545 79.7101 70.6457 78.4665C68.319 74.9386 67.2783 71.0188 67.2131 66.8131C67.2131 66.5215 67.2131 66.4153 66.8758 66.5756C63.8773 68.077 60.4555 68.4864 57.1914 67.7342C56.9595 67.682 56.8828 67.6994 56.8464 67.9543C56.4995 70.3526 55.5834 72.5191 54.3894 74.6181C52.9991 77.1154 51.21 79.3648 49.0939 81.2761C46.574 83.5117 44.233 85.9439 42.0927 88.5501C40.7511 90.1876 39.9135 92.0799 39.1622 94.0148C38.8853 94.7558 38.6924 95.526 38.5872 96.3107C38.4646 97.1546 38.3592 97.9984 38.2461 98.8442C38.2231 98.9434 38.2382 99.0476 38.2883 99.1361C38.3384 99.2246 38.4199 99.2907 38.5163 99.3211C39.706 99.9548 40.9337 100.513 42.1923 100.993C47.9593 103.193 53.9447 104.129 59.5469 104.218H59.5449ZM69.1719 71.6038C69.2313 71.7969 69.2869 71.99 69.3348 72.1619C69.6457 73.3097 70.1771 74.385 70.8987 75.3268C71.8206 76.5433 72.9111 77.615 73.8081 78.8469C74.5114 79.8124 75.1497 80.8359 75.8837 81.7782C77.234 83.4973 78.4229 85.3389 79.4351 87.2795C80.2343 88.8243 80.7652 90.4637 81.3517 92.1591C81.3653 92.091 81.373 92.0219 81.3747 91.9525C81.3688 91.8869 81.356 91.8222 81.3363 91.7594C80.6916 89.6267 79.8336 87.5655 78.7758 85.6073C77.1851 82.7224 75.1861 80.1098 73.0778 77.6015C71.5676 75.8057 70.1282 74.0021 69.352 71.7487C69.3424 71.6888 69.3386 71.5865 69.1738 71.6038H69.1719ZM50.562 56.6947C51.3985 54.2366 52.4238 51.8478 53.6285 49.5501C54.8685 47.2329 56.3117 45.0567 58.1938 43.1489C57.9772 43.118 57.9139 42.6874 57.6188 43.0736C56.2197 44.937 54.8014 46.785 53.6496 48.8202C52.2331 51.2734 51.1928 53.9282 50.5639 56.6947H50.562ZM53.4234 43.0002C50.8437 46.1342 47.6354 52.9274 48.0034 54.4085C48.1203 54.3525 48.0992 54.2289 48.1279 54.1401C49.2779 50.4712 50.8303 46.9954 53.0497 43.8306C53.2354 43.5858 53.3638 43.302 53.4253 43.0002H53.4234ZM51.342 43.483C50.5658 43.8866 50.2898 44.6223 49.9084 45.2209C48.8121 46.9182 47.9478 48.743 47.5165 50.7454C47.4974 50.8323 47.3613 50.9385 47.5472 50.9771C47.6239 50.9906 47.6258 50.8593 47.6507 50.7937C48.5917 48.239 49.7283 45.7924 51.3439 43.483H51.342ZM53.4502 59.2784C54.7497 56.8512 55.8191 54.3003 57.1473 51.8808C56.7295 52.4794 56.3404 53.0915 55.9744 53.7191C54.949 55.4821 53.985 57.2721 53.4502 59.2784ZM80.3436 93.478C80.6272 95.1058 80.9933 96.7201 81.1102 98.3962C81.7005 97.2453 81.2443 94.4087 80.3436 93.478ZM61.2756 56.5306C60.5454 57.8012 59.9187 59.066 59.315 60.3462C59.4606 60.4042 59.4549 60.2728 59.4798 60.2246C60.0317 59.1664 60.6163 58.1262 61.2334 57.1041C61.2782 57.0162 61.305 56.9202 61.3123 56.8217C61.3195 56.7232 61.307 56.6242 61.2756 56.5306ZM59.3111 55.6578C59.8861 54.7483 60.7945 54.0319 60.9785 52.7787C60.3669 53.7044 59.8101 54.6658 59.3111 55.6578ZM55.7137 67.346C55.7423 68.07 55.6896 68.7948 55.5566 69.5068C55.7482 69.418 55.7482 69.2731 55.7635 69.1612C55.8594 68.6765 55.9245 68.186 56.0376 67.7052C56.1143 67.4098 55.9974 67.3325 55.7195 67.346H55.7137ZM56.8138 60.9738L56.9001 61.0298C57.2834 60.2793 57.6699 59.5281 58.0596 58.7763C57.3658 59.3537 57.1186 60.1763 56.8196 60.9719L56.8138 60.9738ZM61.8142 60.8927C61.3886 61.6787 61.0178 62.4937 60.7045 63.3315C61.2009 62.5823 61.6762 61.8099 61.8199 60.8908L61.8142 60.8927ZM58.7687 53.1205C58.2398 53.6013 57.751 54.5456 57.6859 55.1422L58.7687 53.1205ZM62.7111 104.755V104.871C63.4873 104.892 64.2635 104.931 64.9688 104.741L62.7111 104.755ZM70.1857 104.539C70.891 104.513 71.5902 104.398 72.2671 104.197L72.248 104.1L70.1857 104.539ZM39.7391 91.1936L40.4482 89.8033C40.1172 90.2112 39.8755 90.685 39.7391 91.1936ZM54.9318 60.7575C55.1694 60.5104 55.2097 60.128 55.2844 59.7553C55.1159 60.0689 54.997 60.4071 54.9318 60.7575ZM69.3923 59.3962C69.6714 59.178 69.8594 58.8626 69.9193 58.5118L69.3923 59.3962ZM38.0851 98.6221C38.041 98.1625 38.225 97.7145 38.1694 97.253C38.023 97.6941 37.9939 98.1662 38.0851 98.6221ZM66.0306 104.502H66.7972C66.527 104.22 66.2683 104.525 66.0306 104.502ZM69.1431 69.1071C69.1674 68.842 69.1204 68.5752 69.007 68.3347C68.9515 68.5819 69.0741 68.7962 69.1431 69.1071ZM75.4103 103.171C75.5144 103.183 75.6197 103.167 75.7162 103.126C75.8127 103.086 75.8974 103.021 75.9623 102.938L75.4103 103.171ZM54.9701 50.8999C54.8357 51.0586 54.7457 51.2506 54.7094 51.456C54.7915 51.3889 54.8575 51.3041 54.9026 51.2078C54.9477 51.1116 54.9708 51.0063 54.9701 50.8999ZM53.7531 53.3599C53.6366 53.4819 53.5684 53.6427 53.5614 53.8118C53.6243 53.7552 53.674 53.6854 53.7071 53.6074C53.7403 53.5293 53.7559 53.4448 53.7531 53.3599ZM72.9494 103.981C72.7412 103.956 72.5305 103.997 72.3457 104.096C72.5642 104.178 72.7271 104.098 72.9494 103.981ZM73.2925 103.869C73.4688 103.905 73.5666 103.869 73.6451 103.768C73.5148 103.712 73.4247 103.791 73.3021 103.869H73.2925ZM53.4042 54.1903C53.423 54.1728 53.4392 54.1526 53.4522 54.1304C53.4694 54.0841 53.5576 54.001 53.4426 54.001C53.3698 54.001 53.3563 54.1092 53.4042 54.1903ZM76.8036 102.633C76.6522 102.662 76.5679 102.658 76.5315 102.762C76.6254 102.805 76.6829 102.747 76.8036 102.633ZM76.3763 102.826C76.3294 102.81 76.2784 102.811 76.2324 102.83C76.1865 102.848 76.1485 102.882 76.1252 102.926C76.1713 102.944 76.2223 102.943 76.2676 102.923C76.3129 102.904 76.3491 102.868 76.3686 102.822L76.3763 102.826ZM68.4033 58.5948L68.3784 58.533C68.3437 58.5631 68.3123 58.5968 68.2845 58.6334C68.2653 58.6624 68.2653 58.7145 68.3152 58.6952C68.365 58.6759 68.3765 58.6219 68.4033 58.591V58.5948ZM39.9288 100.541C40.0055 100.626 40.063 100.717 40.1742 100.625C40.1445 100.59 40.106 100.564 40.0628 100.549C40.0197 100.534 39.9734 100.532 39.9288 100.541ZM54.0291 52.7613C53.9792 52.8386 53.8872 52.8811 53.9562 53.0027C54.0252 52.9409 54.0885 52.8849 54.0291 52.7613ZM54.5714 51.736C54.5921 51.731 54.6114 51.7212 54.6277 51.7074C54.644 51.6936 54.6569 51.6763 54.6654 51.6566C54.674 51.637 54.6779 51.6157 54.6769 51.5943C54.6759 51.5728 54.6699 51.552 54.6596 51.5332C54.5791 51.5757 54.5197 51.6317 54.5714 51.736ZM67.0426 60.4679C67.0229 60.5004 67.0062 60.5347 66.9927 60.5702C66.9927 60.5857 66.9927 60.6629 67.056 60.6166C67.0913 60.5836 67.1183 60.5425 67.1346 60.4968C67.1403 60.4853 67.1326 60.4138 67.0426 60.4679ZM66.8777 60.8985C66.915 60.854 66.9471 60.8054 66.9736 60.7537C66.9736 60.7363 66.9486 60.7035 66.9333 60.6784C66.8981 60.7102 66.8671 60.7465 66.8413 60.7865C66.8317 60.8039 66.8567 60.8444 66.8777 60.8985ZM66.7762 60.8985C66.7573 60.9272 66.7424 60.9584 66.7321 60.9912C66.7321 60.9912 66.7819 61.0259 66.7838 61.024C66.8056 60.9984 66.8237 60.9698 66.8375 60.939C66.8215 60.9239 66.8042 60.9104 66.7857 60.8985H66.7762ZM38.2288 97.1256C38.2476 97.0862 38.2554 97.0423 38.2513 96.9988C38.2473 96.9553 38.2315 96.9137 38.2059 96.8784C38.2059 96.9711 38.1675 97.0387 38.2288 97.1256ZM59.2728 55.7717L59.2268 55.7408C59.2268 55.7505 59.2095 55.7621 59.2115 55.7698C59.2134 55.7775 59.2287 55.8026 59.2364 55.82L59.2728 55.7717ZM67.744 59.4715C67.7133 59.4956 67.685 59.5228 67.6597 59.5526C67.6597 59.5661 67.6597 59.5931 67.6731 59.6144C67.7019 59.6144 67.744 59.6028 67.7555 59.5835C67.767 59.5642 67.744 59.5217 67.744 59.4715ZM67.2457 60.354C67.2706 60.2922 67.2457 60.2651 67.2074 60.2671C67.1691 60.269 67.1537 60.2883 67.1518 60.3037C67.1544 60.3361 67.1615 60.368 67.1729 60.3984L67.2457 60.354ZM72.9954 103.928C73.0079 103.941 73.0228 103.951 73.0393 103.958C73.0557 103.965 73.0734 103.969 73.0913 103.969C73.1091 103.969 73.1268 103.965 73.1432 103.958C73.1597 103.951 73.1746 103.941 73.1871 103.928C73.1315 103.859 73.0663 103.876 72.9993 103.928H72.9954ZM69.3827 59.5449L69.3616 59.485L69.2984 59.5178C69.2619 59.5333 69.26 59.5507 69.2984 59.568C69.3367 59.5854 69.3635 59.597 69.3827 59.5449ZM53.8987 53.1205L53.8738 53.0896C53.8738 53.0896 53.8508 53.107 53.8508 53.1166C53.8508 53.1263 53.8642 53.136 53.8719 53.1456L53.8987 53.1205ZM54.4334 52.0063C54.4334 52.0063 54.4181 51.9928 54.4124 51.9947C54.4066 51.9967 54.397 52.0102 54.3894 52.0179L54.4334 52.0314V52.0063ZM54.5216 51.8654L54.4967 51.8345C54.4967 51.8345 54.4718 51.8518 54.4718 51.8615C54.4718 51.8712 54.4852 51.8808 54.4929 51.8905L54.5216 51.8654ZM78.1529 88.0287L78.1663 88.0056H78.1453L78.1529 88.0287ZM78.2353 88.1485L78.2238 88.1697H78.2411L78.2353 88.1485ZM39.0108 100.099L39.0242 100.084H38.9955L39.0108 100.099ZM39.3175 100.267L39.3462 100.246C39.3462 100.246 39.3309 100.225 39.3213 100.225C39.3117 100.225 39.304 100.236 39.2945 100.242L39.3175 100.267ZM39.4976 100.323C39.4976 100.323 39.4842 100.302 39.4746 100.302C39.465 100.302 39.4574 100.314 39.4497 100.319C39.442 100.325 39.4631 100.341 39.4727 100.341C39.4823 100.341 39.49 100.329 39.4976 100.323ZM39.6548 100.402C39.6548 100.402 39.6394 100.379 39.6318 100.379C39.6241 100.379 39.6126 100.391 39.603 100.399C39.5934 100.406 39.6203 100.42 39.6279 100.42C39.6356 100.42 39.6471 100.408 39.6548 100.402ZM39.7851 100.495L39.8024 100.474H39.7736L39.7851 100.495ZM76.911 102.583L76.8976 102.6H76.9206L76.911 102.583ZM53.8221 53.2808L53.7991 53.2518C53.7991 53.2518 53.7761 53.2692 53.7761 53.2769C53.7761 53.2846 53.7876 53.2962 53.7952 53.3059L53.8221 53.2808ZM40.4942 89.6855L40.523 89.6604C40.5085 89.6494 40.4923 89.6409 40.4751 89.6353C40.4751 89.6353 40.4597 89.6508 40.4521 89.6585L40.4942 89.6855ZM39.1526 100.163L39.1795 100.178V100.155L39.1526 100.163Z" fill="#464646"/>
<path d="M75.1056 71.1578C75.1056 71.5034 74.9254 71.6405 74.6245 71.5575C74.3761 71.4831 74.1426 71.3654 73.9345 71.2099C72.563 70.2651 71.4226 69.0185 70.5997 67.5642C70.4483 67.29 70.2758 67.0255 70.5614 66.676C70.7971 66.3883 70.9849 66.3883 71.2475 66.5621C71.66 66.8559 72.0353 67.1996 72.3649 67.5855C73.2177 68.5297 74.0189 69.5165 74.7931 70.5283C74.9521 70.7056 75.0601 70.9233 75.1056 71.1578ZM73.9556 70.4414C73.9805 70.4607 74.0227 70.5013 74.0265 70.4974C74.0725 70.453 74.0495 70.4202 73.9978 70.3989C73.9732 70.2559 73.9102 70.1223 73.8157 70.0127C73.1369 69.0282 72.3031 68.162 71.3472 67.4484C71.3146 67.4233 71.2782 67.4213 71.2417 67.4812C71.9867 68.6077 72.9054 69.607 73.9633 70.4414H73.9556Z" fill="#464646"/>
<path d="M45.0882 45.2344C45.14 45.5298 44.9771 45.6206 44.7298 45.5916C44.5494 45.575 44.372 45.5334 44.2028 45.468C40.178 43.7553 36.0842 42.2028 32.2913 39.9841C31.7511 39.699 31.2379 39.3648 30.758 38.9857C30.5817 38.8332 30.3479 38.6671 30.4916 38.4064C30.6354 38.1458 30.875 38.1091 31.1682 38.1477C32.6459 38.3408 34.0258 38.8602 35.3847 39.4395C37.9931 40.5537 40.5019 41.8745 42.9992 43.2165C43.7232 43.5981 44.3685 44.1152 44.9004 44.7401C44.9674 44.8023 45.0191 44.8794 45.0517 44.9651C45.0843 45.0508 45.0968 45.143 45.0882 45.2344ZM37.7861 41.0229C37.8034 41.0847 37.8551 41.0924 37.9049 41.0924C37.9164 41.0924 37.9279 41.0615 37.9414 41.0461L37.8014 41.0075C37.7842 40.9341 37.7305 40.9187 37.6673 40.9283C37.6673 40.9283 37.65 40.9785 37.652 40.9804C37.696 40.9978 37.7401 41.0094 37.7861 41.0229ZM42.0026 43.8364C42.0332 43.9097 42.0811 43.9233 42.1463 43.8788L42.0428 43.7881C41.821 43.609 41.588 43.4446 41.3452 43.2957C38.9629 42.0154 36.5729 40.7507 34.0066 39.8682C33.907 39.8334 33.815 39.7852 33.7077 39.8682C33.8993 39.957 34.091 40.0401 34.2711 40.1308C36.0133 40.9862 37.7459 41.8687 39.4995 42.6952C40.3217 43.0968 41.1209 43.5583 41.9987 43.8364H42.0026ZM31.6531 38.6633C31.7674 38.7984 31.908 38.9084 32.0663 38.9864C32.2245 39.0645 32.397 39.1089 32.573 39.117C32.8313 39.1375 33.0854 39.194 33.3282 39.285C34.5605 39.7157 35.8025 40.1231 36.9697 40.6966C37.1613 40.7893 37.353 40.8704 37.5446 40.9573L37.5849 40.8511C35.6683 39.9512 33.7287 39.0977 31.6416 38.6633H31.6531ZM38.8901 41.5597L38.9552 41.525C38.9341 41.5115 38.9131 41.4902 38.892 41.4883C38.8709 41.4864 38.8498 41.5076 38.8287 41.5192L38.8901 41.5597ZM38.1004 41.1871C38.1309 41.2114 38.1636 41.2328 38.1982 41.2508C38.2089 41.2515 38.2196 41.2499 38.2296 41.2458C38.2395 41.2418 38.2485 41.2356 38.2557 41.2276C38.2959 41.1793 38.2365 41.1677 38.2173 41.162C38.1982 41.1562 38.1464 41.1697 38.0889 41.1832L38.1004 41.1871ZM38.708 41.4072C38.708 41.4072 38.685 41.4246 38.685 41.4304C38.6911 41.4465 38.6988 41.4621 38.708 41.4767C38.708 41.4767 38.731 41.4593 38.731 41.4535C38.7225 41.4349 38.7108 41.4179 38.6965 41.4033L38.708 41.4072ZM38.5872 41.3666C38.5872 41.3666 38.57 41.3435 38.5642 41.3454C38.5475 41.3498 38.5314 41.3563 38.5163 41.3647C38.5163 41.3647 38.5336 41.3879 38.5393 41.3859C38.5525 41.3801 38.5648 41.3723 38.5757 41.3628L38.5872 41.3666ZM38.4339 41.2875C38.4339 41.2875 38.4167 41.2643 38.409 41.2662C38.3915 41.2709 38.3747 41.278 38.3592 41.2875C38.3592 41.2875 38.3764 41.3106 38.3841 41.3106C38.3969 41.3026 38.4091 41.2936 38.4205 41.2836L38.4339 41.2875Z" fill="#464646"/>
<path d="M79.4715 49.1504C82.205 48.084 85.0271 47.264 87.9044 46.7C85.2519 48.0845 82.3444 48.5615 79.4715 49.1504Z" fill="#F8F2EA"/>
<path d="M28.9431 67.9891C28.6556 67.9891 28.3834 67.9891 28.2397 67.7207C28.1688 67.5801 28.1396 67.422 28.1556 67.2651C28.1715 67.1083 28.232 66.9594 28.3298 66.8363C28.8281 66.0793 29.5314 65.556 30.2732 65.0694C32.939 63.2969 35.7256 61.7161 38.6122 60.3385C39.6569 59.8207 40.7725 59.4627 41.9221 59.2765C42.5124 59.1915 43.0969 59.3692 43.2426 59.711C43.3748 60.0199 43.1218 60.5084 42.6274 60.8811C42.0639 61.3059 41.4142 61.5743 40.797 61.9026C38.2135 63.2794 35.6683 64.7296 33.1174 66.1643C32.0829 66.7815 31.0078 67.3267 29.8994 67.796C29.5989 67.9314 29.2722 67.9973 28.9431 67.9891ZM29.3935 66.4095C29.3935 66.3941 29.474 66.4095 29.4184 66.3593C29.4184 66.3786 29.405 66.3979 29.3992 66.4153H29.334L29.359 66.4559L29.3935 66.4095ZM29.1577 66.564C29.0819 66.6029 29.0197 66.6643 28.9796 66.7399C28.9395 66.8156 28.9234 66.9018 28.9335 66.9869C29.0581 66.8208 29.1558 66.7339 29.1826 66.6007L29.2267 66.5331L29.1577 66.564ZM32.0958 65.6449C35.5544 64.1865 38.848 62.359 41.9202 60.1937C41.8429 60.1616 41.7598 60.1462 41.6763 60.1485C41.5928 60.1508 41.5106 60.1708 41.4353 60.2072C40.2166 60.5625 39.0374 61.0433 37.9164 61.6419C36.2624 62.5611 34.5624 63.4049 33.0599 64.577C32.6649 64.8577 32.3359 65.2222 32.0958 65.6449ZM30.4418 66.4694C30.2502 66.6528 30.0355 66.8092 29.9684 67.0738C29.9569 67.1143 30.0393 67.151 30.0873 67.1201C30.1996 67.0548 30.2918 66.9594 30.3537 66.8446C30.4156 66.7297 30.4448 66.5999 30.438 66.4694H30.4418ZM31.9751 65.9326C31.7643 65.8746 31.8486 65.7163 31.7317 65.6333C31.6243 65.7472 31.4614 65.8051 31.4442 65.9982C31.6224 66.0306 31.8062 66.0077 31.9712 65.9326H31.9751Z" fill="#464646"/>
<path d="M72.0544 38.3563C71.9484 38.356 71.844 38.3312 71.749 38.2839C71.654 38.2365 71.571 38.1679 71.5065 38.0833C71.4419 37.9987 71.3974 37.9002 71.3765 37.7956C71.3555 37.691 71.3586 37.5829 71.3855 37.4796C71.6366 36.5759 72.1215 35.7823 72.6121 35.0041C74.2029 32.4726 76.1884 30.2732 78.3292 28.2071C78.749 27.8155 79.245 27.5163 79.7858 27.3285C79.9775 27.257 80.2075 27.1952 80.3742 27.3594C80.541 27.5235 80.4451 27.7282 80.3896 27.9155C80.2575 28.2967 80.0632 28.6531 79.8146 28.9698C77.7294 31.9145 75.4467 34.7067 73.2331 37.5511C73.0768 37.7433 72.905 37.9222 72.7194 38.0859C72.6339 38.1759 72.5304 38.2466 72.4158 38.2932C72.3011 38.3398 72.1779 38.3613 72.0544 38.3563ZM71.9701 37.862C72.706 37.497 79.4658 28.8945 79.6613 28.0815C79.4821 28.1585 79.3209 28.2723 79.1879 28.4156C77.2667 30.2234 75.5022 32.1931 73.9135 34.3032C73.2676 35.1489 72.5719 35.9696 72.1579 36.966C72.0391 37.2479 71.8992 37.5279 71.9701 37.8658V37.862Z" fill="#464646"/>
<path d="M77.3652 62.3294C77.7144 62.357 78.0582 62.433 78.3867 62.5553C79.8784 63.0357 81.306 63.6984 82.6377 64.5288C83.757 65.2297 84.9471 65.8167 86.0223 66.5911C86.3257 66.813 86.6169 67.0515 86.8944 67.3055C87.0765 67.4697 87.2777 67.6763 87.109 67.9447C86.9404 68.2131 86.6989 68.1822 86.4287 68.0972C85.5066 67.7909 84.6132 67.4032 83.7589 66.9386C81.5107 65.7627 79.2703 64.5693 77.1218 63.2119C77.1122 63.2119 77.0988 63.2003 77.0892 63.1925C76.9129 63.0361 76.5813 62.9434 76.6771 62.6519C76.773 62.3603 77.0796 62.3236 77.3652 62.3294ZM80.7614 63.907C80.792 63.9823 80.8553 63.9862 80.9223 63.9804C80.934 64.0101 80.9559 64.0346 80.9842 64.0491C81.0124 64.0637 81.0449 64.0674 81.0757 64.0596C81.0968 64.1522 81.1658 64.1426 81.2348 64.1349C81.2348 64.1909 81.2654 64.2082 81.3114 64.214C81.3402 64.2874 81.4034 64.2913 81.4667 64.2932C81.4916 64.3743 81.5548 64.3782 81.6219 64.3704C81.6468 64.4515 81.712 64.4554 81.7791 64.4477L81.8155 64.4882C81.8155 64.4882 81.8155 64.4689 81.8155 64.4651C81.8044 64.4601 81.7928 64.4562 81.781 64.4535C81.7522 64.3801 81.6909 64.3762 81.6257 64.3762C81.6066 64.2835 81.5414 64.2855 81.4705 64.299C81.4513 64.2082 81.3862 64.2082 81.3152 64.2198C81.3152 64.16 81.2846 64.1464 81.2367 64.1407C81.2117 64.0653 81.1523 64.0518 81.0833 64.0596C81.0546 63.9862 80.9952 63.9765 80.9262 63.9823C80.9147 63.8916 80.8438 63.8993 80.7786 63.8954C80.7524 63.8744 80.7248 63.855 80.6962 63.8375C80.6848 63.85 80.6745 63.8636 80.6655 63.878L80.7614 63.907ZM85.3094 67.0912C85.3305 67.0912 85.3535 67.0738 85.3726 67.0796C85.3918 67.0854 85.4301 67.0796 85.4033 67.0584C85.3765 67.0371 85.34 67.0777 85.3055 67.0912C85.4014 66.9753 85.3055 66.9599 85.227 66.929L85.0909 66.8363C83.0497 65.6333 81.1255 64.2121 78.8582 63.4281C78.8595 63.4492 78.8658 63.4696 78.8764 63.4877C78.8871 63.5058 78.9019 63.5211 78.9195 63.5324C80.6662 64.5185 82.4134 65.5033 84.1614 66.4868C84.4344 66.6593 84.7281 66.7962 85.0353 66.8942C85.0679 66.9676 85.1292 66.9734 85.1963 66.9657L85.3094 67.0912ZM82.1643 64.6891C82.1613 64.6797 82.1574 64.6707 82.1528 64.662C82.1528 64.662 82.1394 64.662 82.1317 64.662L82.1681 64.691C82.1845 64.7074 82.2017 64.7229 82.2199 64.7373C82.2199 64.7373 82.2371 64.7373 82.2467 64.7373L82.1643 64.6891ZM81.9515 64.5693L81.9765 64.5828V64.5616L81.9515 64.5693Z" fill="#464646"/>
<path d="M54.8033 37.4487C54.8033 37.7751 54.6117 37.889 54.3261 37.6998C53.9822 37.464 53.6878 37.1621 53.4598 36.8115C52.5306 35.3831 51.7423 33.8665 51.1063 32.2834C50.171 30.0531 49.2549 27.8112 48.6626 25.4554C48.5745 25.104 48.4499 24.7487 48.7067 24.4069C48.9635 24.0651 49.2108 24.0323 49.4848 24.3856C49.9946 25.0499 50.3396 25.8107 50.698 26.5638C51.7636 28.8115 52.5169 31.1846 53.4426 33.4883C53.8642 34.5387 54.3031 35.5834 54.6615 36.657C54.7351 36.9154 54.7827 37.1807 54.8033 37.4487ZM49.6573 26.473C49.6401 26.4383 49.6362 26.3649 49.5807 26.3997C49.5251 26.4344 49.5519 26.4904 49.6152 26.5117C49.6324 26.6005 49.642 26.6912 49.6669 26.7781C50.3722 29.1706 51.4704 31.4028 52.4728 33.6737C52.7813 34.3907 53.1406 35.0844 53.548 35.7495C53.6304 35.8846 53.6975 36.0468 53.9198 36.041C53.9332 35.7591 53.7914 35.5467 53.6955 35.3246C52.9289 33.5597 52.2006 31.7813 51.4857 29.9932C51.0174 28.7507 50.4036 27.569 49.6573 26.473Z" fill="#464646"/>
<path d="M67.6271 29.0335C67.3881 31.3131 66.7605 33.5342 65.7719 35.5988C65.6909 35.762 65.594 35.9166 65.4825 36.0603C65.3751 36.2071 65.2448 36.3712 65.0455 36.3249C64.9471 36.2914 64.8594 36.2318 64.7919 36.1522C64.7244 36.0727 64.6796 35.9762 64.6622 35.873C64.5204 35.3922 64.6143 34.9075 64.6833 34.4364C64.9516 32.5865 65.5055 30.81 66.0766 29.0393C66.193 28.6222 66.4421 28.2551 66.7857 27.9946C67.1882 27.7069 67.3875 27.7764 67.5524 28.2476C67.6253 28.5026 67.6506 28.7691 67.6271 29.0335ZM65.2716 35.1624C66.0824 33.0055 66.7685 30.8196 66.9506 28.5063C65.9915 30.6029 65.4225 32.8589 65.2716 35.1624Z" fill="#464646"/>
<path d="M84.4297 56.9825C83.2797 57.1022 82.1298 56.8898 80.9894 56.8164C82.1451 56.687 83.2816 56.9612 84.4297 56.9825Z" fill="#F8F2EA"/>
<path d="M80.4087 56.3858C81.1417 56.2547 81.895 56.297 82.6089 56.5094C81.8768 56.436 81.1409 56.4882 80.4087 56.3858Z" fill="#666666"/>
<path d="M47.6794 41.4844C46.3896 40.6883 45.2173 39.7132 44.197 38.588C44.136 38.5291 44.0875 38.4584 44.0546 38.38C44.0216 38.3017 44.0049 38.2174 44.0054 38.1323C45.508 38.9722 46.6617 40.1482 47.7254 41.4323L47.6794 41.4844Z" fill="#F8F2EA"/>
<path d="M47.7269 41.442C47.744 41.4739 47.8143 41.4979 47.7459 41.5438C47.7459 41.5438 47.7022 41.5059 47.6794 41.4859L47.7269 41.442Z" fill="#F8F2EA"/>
<path d="M77.6776 42.1139C78.4749 40.938 79.5693 40.1366 80.9358 39.5032C80.5601 40.1443 78.4538 41.8436 77.6776 42.1139Z" fill="#F8F2EA"/>
<path d="M81.1849 39.706C81.3057 39.4086 81.1389 39.3024 80.8802 39.2542C80.9051 39.2329 80.9185 39.2117 80.9377 39.2078C81.1792 39.1402 81.5127 38.9317 81.643 39.1731C81.7446 39.3546 81.4398 39.5998 81.2424 39.7639L81.1849 39.706Z" fill="#F8F2EA"/>
<path d="M81.246 39.7654C81.2244 39.8367 81.1694 39.8803 81.1163 39.8268C81.0632 39.7733 81.1635 39.7476 81.1871 39.706L81.246 39.7654Z" fill="#F8F2EA"/>
<path d="M59.842 35.8305C59.5296 35.4308 59.3974 34.95 59.267 34.4789C58.8837 33.1272 58.4908 31.7948 58.5004 30.3794C58.4902 30.1576 58.5201 29.9358 58.5886 29.7248C58.608 29.6484 58.6471 29.5785 58.702 29.5222C58.7569 29.4659 58.8255 29.4252 58.901 29.4042C59.0926 29.3637 59.1846 29.5298 59.2594 29.6533C59.5272 30.1463 59.7045 30.6841 59.7826 31.2406C60.0068 32.4977 60.3365 33.7374 60.4476 35.0137C60.4611 35.1694 60.4572 35.3262 60.4361 35.481C60.3767 35.9155 60.2636 35.9773 59.8439 35.8267L59.842 35.8305ZM59.0754 30.4083C59.0754 32.0226 59.5028 33.552 60.0068 35.0678C59.9116 33.4784 59.5968 31.9101 59.0715 30.4083H59.0754Z" fill="#464646"/>
<path d="M42.7864 52.6088C42.8018 52.6938 42.8708 52.6899 42.934 52.6957C42.9455 52.7788 43.0183 52.7749 43.0739 52.7923C43.509 53.0858 43.3269 53.6361 42.9168 53.8157C42.5066 53.9953 42.1041 53.9605 41.694 53.9624C40.3524 53.9624 39.0491 53.6438 37.7344 53.4276C37.4296 53.3793 37.1115 53.3851 36.8393 53.2074C36.6611 53.0896 36.4924 52.968 36.5212 52.715C36.5284 52.5969 36.5696 52.4834 36.6397 52.3885C36.7098 52.2935 36.8058 52.2211 36.916 52.1801C37.3331 52.0351 37.7754 51.9779 38.2154 52.0122C39.754 52.0697 41.2841 52.2694 42.7864 52.6088ZM37.42 52.7382C38.2959 53.246 41.8377 53.472 42.3284 53.0472C40.7083 52.7811 39.0662 52.6764 37.4258 52.7343L37.42 52.7382ZM40.6015 53.5859C41.0798 53.7247 41.583 53.7524 42.0735 53.667C41.5881 53.596 41.0974 53.5688 40.6073 53.5859H40.6015Z" fill="#464646"/>
<path d="M45.3623 65.7183C44.7409 66.5586 43.954 67.2607 43.0509 67.7806L42.9992 67.7284C43.6067 66.8537 44.4577 66.2532 45.3125 65.6603C45.3276 65.6809 45.3442 65.7003 45.3623 65.7183Z" fill="#F8F2EA"/>
<path d="M45.3201 65.6628C45.3581 65.636 45.3981 65.5887 45.4381 65.6628C45.4381 65.6628 45.3961 65.708 45.3721 65.7307C45.353 65.7095 45.3356 65.6868 45.3201 65.6628Z" fill="#F8F2EA"/>
<path d="M43.05 67.7823C43.0196 67.7923 42.9683 67.8163 42.9607 67.8063C42.9304 67.7664 42.9607 67.7424 42.9987 67.7284L43.05 67.7823Z" fill="#F8F2EA"/>
<path d="M59.5469 104.218C53.9447 104.129 47.9593 103.193 42.2 100.984C40.9414 100.504 39.7137 99.9452 38.524 99.3115C38.4275 99.281 38.3461 99.2149 38.2959 99.1265C38.2458 99.038 38.2308 98.9337 38.2538 98.8345C38.3668 97.9888 38.4723 97.1449 38.5949 96.3011C38.7001 95.5164 38.893 94.7462 39.1699 94.0052C39.9212 92.0742 40.7587 90.178 42.1003 88.5405C44.2407 85.9342 46.5817 83.502 49.1016 81.2665C51.2177 79.3552 53.0068 77.1058 54.397 74.6085C55.5911 72.5095 56.5053 70.3429 56.8541 67.9447C56.8905 67.6898 56.9672 67.6724 57.1991 67.7245C60.4631 68.4767 63.885 68.0674 66.8835 66.5659C67.2151 66.4057 67.217 66.5119 67.2208 66.8034C67.286 71.0091 68.3267 74.929 70.6534 78.4569C71.4698 79.7005 72.4473 80.8204 73.3787 81.9752C75.9785 85.2194 78.0305 88.8728 79.4524 92.7886C80.0657 94.4512 80.3397 96.22 80.6464 97.9675C80.6806 98.2526 80.6871 98.5404 80.6656 98.8268C80.6646 98.9883 80.6207 99.1465 80.5384 99.285C80.4562 99.4236 80.3386 99.5374 80.1979 99.6147C78.0705 101.013 75.7419 101.932 73.3117 102.621C70.1324 103.487 66.8677 103.994 63.5774 104.135C62.4141 104.207 61.2469 104.212 59.5469 104.218Z" fill="#F8F2EA"/>
<path d="M69.1738 71.6039C69.3386 71.5865 69.3424 71.6888 69.3654 71.7526C70.1416 74.006 71.581 75.8076 73.0912 77.6054C75.1995 80.1156 77.1984 82.7263 78.7892 85.6112C79.8477 87.5693 80.7063 89.6306 81.3517 91.7633C81.3713 91.8261 81.3841 91.8908 81.39 91.9564C81.3883 92.0258 81.3806 92.095 81.367 92.163C80.7728 90.4676 80.242 88.8244 79.4504 87.2834C78.437 85.3427 77.2468 83.501 75.8952 81.7821C75.1611 80.8398 74.5229 79.8202 73.8195 78.8509C72.9187 77.615 71.8206 76.5433 70.8987 75.3268C70.1777 74.3848 69.6471 73.3096 69.3367 72.1619C69.2888 71.9824 69.2332 71.8028 69.1738 71.6039Z" fill="#F8F2EA"/>
<path d="M56.0204 42.8168C55.1311 44.0024 54.2188 45.1687 53.4215 46.42C51.5605 49.3454 50.1959 52.5026 49.0862 55.7814C49.0575 55.8683 49.0287 55.9532 48.9961 56.0382C48.9961 56.0556 48.9616 56.0633 48.9444 56.0749C48.8601 55.3546 50.3109 51.3749 51.4724 48.909C52.5801 46.559 54.3204 44.6976 55.9744 42.7646C55.9881 42.7834 56.0035 42.8008 56.0204 42.8168Z" fill="#F8F2EA"/>
<path d="M50.5639 56.6948C51.1977 53.9302 52.2425 51.278 53.663 48.828C54.8129 46.7927 56.2331 44.9448 57.6322 43.0814C57.9216 42.6952 57.9848 43.1258 58.2072 43.1567C56.3213 45.0645 54.8819 47.2407 53.6419 49.5579C52.4336 51.8528 51.4045 54.2389 50.5639 56.6948Z" fill="#F8F2EA"/>
<path d="M53.4253 43.0002C53.3615 43.3027 53.2304 43.5865 53.042 43.8306C50.8226 46.9877 49.2798 50.4712 48.1203 54.1401C48.0915 54.2289 48.1203 54.3525 47.9957 54.4085C47.6354 52.9274 50.8437 46.1342 53.4253 43.0002Z" fill="#F8F2EA"/>
<path d="M51.3439 43.483C49.734 45.8002 48.5917 48.239 47.6526 50.7899C47.6277 50.8555 47.6258 50.983 47.5491 50.9733C47.3575 50.9385 47.4993 50.8285 47.5184 50.7416C47.9497 48.7392 48.814 46.9144 49.9103 45.2171C50.2917 44.6242 50.5677 43.8866 51.3439 43.483Z" fill="#F8F2EA"/>
<path d="M53.4503 59.2784C53.985 57.2722 54.949 55.4821 55.9744 53.7192C56.3404 53.0916 56.7295 52.4795 57.1473 51.8809C55.8191 54.3004 54.7497 56.8512 53.4503 59.2784Z" fill="#F8F2EA"/>
<path d="M80.3436 93.478C81.2444 94.4068 81.7005 97.2434 81.1102 98.3962C80.9933 96.722 80.6272 95.1077 80.3436 93.478Z" fill="#F8F2EA"/>
<path d="M63.6655 105.489C65.2921 105.377 66.9102 105.163 68.5106 104.85C68.9457 104.761 69.3808 104.863 69.8216 104.9C68.9898 105.018 68.158 105.145 67.33 105.249C66.228 105.384 65.1221 105.502 64.0105 105.529C63.8936 105.529 63.7786 105.52 63.6617 105.514L63.6655 105.489Z" fill="#F8F2EA"/>
<path d="M61.2756 56.5306C61.3078 56.625 61.3207 56.7251 61.3135 56.8246C61.3062 56.9242 61.279 57.0213 61.2334 57.1099C60.615 58.1321 60.0305 59.1722 59.4798 60.2304C59.4549 60.2787 59.4606 60.41 59.3149 60.352C59.9187 59.066 60.5454 57.8012 61.2756 56.5306Z" fill="#F8F2EA"/>
<path d="M72.8076 103.326C70.9639 103.803 69.1201 104.263 67.2112 104.369C69.1123 104.105 70.9945 103.718 72.8459 103.21C72.8337 103.212 72.8223 103.218 72.8129 103.226C72.8035 103.234 72.7965 103.245 72.7926 103.257C72.7887 103.268 72.788 103.281 72.7906 103.293C72.7933 103.306 72.7991 103.317 72.8076 103.326Z" fill="#F8F2EA"/>
<path d="M59.3111 55.6578C59.8101 54.6658 60.3669 53.7045 60.9785 52.7787C60.8003 54.032 59.8861 54.7483 59.3111 55.6578Z" fill="#F8F2EA"/>
<path d="M55.7194 67.346C55.9973 67.3325 56.1143 67.404 56.0433 67.7052C55.9303 68.186 55.8651 68.6707 55.7693 69.1611C55.7463 69.2731 55.752 69.418 55.5623 69.5068C55.6953 68.7948 55.748 68.0699 55.7194 67.346Z" fill="#F8F2EA"/>
<path d="M56.8196 60.9719C57.1186 60.1763 57.3658 59.3537 58.0654 58.7744C57.682 59.5249 57.2955 60.2761 56.9058 61.0279L56.8196 60.9719Z" fill="#F8F2EA"/>
<path d="M61.8199 60.8908C61.6762 61.8119 61.2008 62.5746 60.7102 63.3296C61.0236 62.4918 61.3944 61.6769 61.8199 60.8908Z" fill="#F8F2EA"/>
<path d="M58.7687 53.1205L57.6859 55.1423C57.751 54.5398 58.2397 53.5956 58.7687 53.1205Z" fill="#F8F2EA"/>
<path d="M40.7204 89.1873C41.1535 88.4149 41.5579 87.6425 42.2383 87.0439C41.7438 87.7713 41.2487 88.4999 40.7529 89.2298L40.7204 89.1873Z" fill="#F8F2EA"/>
<path d="M62.7111 104.749H64.9707C64.2654 104.942 63.4892 104.9 62.713 104.879L62.7111 104.749Z" fill="#666666"/>
<path d="M71.0156 51.6626C71.3252 51.2055 71.7393 50.83 72.223 50.5677C71.7573 50.8671 71.5254 51.4232 71.0002 51.6588L71.0156 51.6626Z" fill="#F8F2EA"/>
<path d="M70.1857 104.533L72.248 104.098L72.2671 104.195C71.5901 104.395 70.8908 104.508 70.1857 104.533Z" fill="#666666"/>
<path d="M39.7391 91.1937C39.8755 90.685 40.1172 90.2112 40.4482 89.8033L39.7391 91.1937Z" fill="#F8F2EA"/>
<path d="M63.6656 105.489L63.6483 105.514C63.3704 105.73 63.0542 105.589 62.7552 105.608C62.4356 105.625 62.1151 105.616 61.7969 105.581C62.4198 105.585 63.0369 105.421 63.6656 105.489Z" fill="#666666"/>
<path d="M37.9644 96.1312C38.034 95.5567 38.1897 94.9961 38.4262 94.4686C38.2844 95.0383 38.1445 95.606 38.0027 96.1756C38.0039 96.17 38.0038 96.1642 38.0024 96.1587C38.001 96.1532 37.9983 96.148 37.9946 96.1437C37.9909 96.1394 37.9862 96.136 37.9809 96.1338C37.9757 96.1317 37.97 96.1308 37.9644 96.1312Z" fill="#F8F2EA"/>
<path d="M54.9317 60.7576C54.9969 60.4071 55.1159 60.069 55.2844 59.7554C55.2096 60.1281 55.1694 60.5104 54.9317 60.7576Z" fill="#F8F2EA"/>
<path d="M69.3923 59.3962L69.9193 58.5118C69.8594 58.8626 69.6714 59.1781 69.3923 59.3962Z" fill="#F8F2EA"/>
<path d="M37.9643 96.1311C37.97 96.1307 37.9757 96.1316 37.9809 96.1338C37.9862 96.136 37.9909 96.1393 37.9946 96.1437C37.9983 96.148 38.001 96.1531 38.0024 96.1586C38.0038 96.1642 38.0039 96.17 38.0027 96.1756C37.9528 96.4768 37.9011 96.778 37.8513 97.0773L37.742 97.0619C37.7392 96.738 37.8155 96.4183 37.9643 96.1311Z" fill="#666666"/>
<path d="M38.0851 98.6221C37.9939 98.1662 38.0229 97.6941 38.1694 97.2531C38.2288 97.7146 38.0372 98.1625 38.0851 98.6221Z" fill="#666666"/>
<path d="M72.8076 103.326C72.801 103.317 72.7967 103.306 72.7951 103.295C72.7935 103.284 72.7946 103.272 72.7984 103.262C72.8022 103.251 72.8085 103.242 72.8168 103.234C72.8251 103.226 72.8351 103.221 72.8459 103.218C73.1495 103.083 73.4735 103.002 73.8042 102.977C73.4942 103.149 73.1571 103.268 72.8076 103.326Z" fill="#666666"/>
<path d="M66.0306 104.502C66.2683 104.525 66.527 104.22 66.7972 104.502H66.0306Z" fill="#666666"/>
<path d="M69.1431 69.1071C69.0741 68.7962 68.9514 68.5819 69.007 68.3347C69.1204 68.5752 69.1674 68.842 69.1431 69.1071Z" fill="#666666"/>
<path d="M39.3596 91.9738C39.3857 91.7097 39.4884 91.4592 39.6548 91.2535C39.6521 91.5224 39.5439 91.7792 39.3539 91.968L39.3596 91.9738Z" fill="#666666"/>
<path d="M75.4103 103.174L75.9673 102.938C75.9018 103.021 75.8164 103.087 75.719 103.128C75.6216 103.169 75.5154 103.185 75.4103 103.174Z" fill="#666666"/>
<path d="M54.9724 50.8999C54.9731 51.0073 54.9498 51.1135 54.9043 51.2107C54.8588 51.3078 54.7922 51.3934 54.7094 51.4611C54.746 51.2538 54.8368 51.0601 54.9724 50.8999Z" fill="#666666"/>
<path d="M53.7548 53.36C53.7577 53.4456 53.7419 53.5309 53.7085 53.6097C53.675 53.6885 53.6248 53.7589 53.5614 53.816C53.5684 53.6453 53.6372 53.4831 53.7548 53.36Z" fill="#666666"/>
<path d="M72.9549 103.981C72.7209 104.098 72.5681 104.176 72.3457 104.098C72.5322 103.997 72.7448 103.956 72.9549 103.981Z" fill="#666666"/>
<path d="M40.7625 89.2302C40.7258 89.3699 40.6546 89.498 40.5555 89.6024C40.5575 89.4465 40.6199 89.2975 40.7296 89.1874L40.7625 89.2302Z" fill="#F8F2EA"/>
<path d="M73.3021 103.87C73.4355 103.792 73.5264 103.72 73.6579 103.768C73.569 103.877 73.4703 103.907 73.3021 103.87Z" fill="#666666"/>
<path d="M53.405 54.197C53.3558 54.1131 53.3696 53.9972 53.4445 53.9972C53.5627 53.9972 53.4721 54.0831 53.4543 54.1311C53.4413 54.1555 53.4247 54.1777 53.405 54.197Z" fill="#666666"/>
<path d="M76.8081 102.633C76.6854 102.754 76.6269 102.807 76.5315 102.764C76.5607 102.658 76.6542 102.662 76.8081 102.633Z" fill="#666666"/>
<path d="M76.3726 102.822C76.3521 102.87 76.3137 102.907 76.2659 102.926C76.2181 102.945 76.1648 102.945 76.1175 102.924C76.1411 102.88 76.1798 102.845 76.2265 102.826C76.2732 102.807 76.325 102.806 76.3726 102.822Z" fill="#666666"/>
<path d="M68.4089 58.5937C68.3809 58.6259 68.3569 58.6823 68.3169 58.6984C68.2769 58.7145 68.2649 58.6642 68.2849 58.6339C68.3138 58.5957 68.3467 58.5606 68.3829 58.5292L68.4089 58.5937Z" fill="#666666"/>
<path d="M39.9288 100.542C39.9741 100.532 40.0211 100.534 40.065 100.549C40.1089 100.564 40.148 100.591 40.1781 100.626C40.0652 100.72 40.0067 100.624 39.9288 100.542Z" fill="#666666"/>
<path d="M54.0285 52.7614C54.0876 52.8869 54.0285 52.9439 53.9561 53.0066C53.8874 52.883 53.9789 52.8398 54.0285 52.7614Z" fill="#666666"/>
<path d="M54.572 51.7431C54.5188 51.6352 54.572 51.5812 54.6627 51.5333C54.6733 51.5526 54.6794 51.5743 54.6805 51.5964C54.6815 51.6186 54.6775 51.6407 54.6687 51.661C54.6599 51.6813 54.6466 51.6993 54.6299 51.7135C54.6131 51.7278 54.5933 51.7379 54.572 51.7431Z" fill="#666666"/>
<path d="M67.8839 59.2394C67.8956 59.1927 67.9171 59.1491 67.947 59.1115C67.9769 59.0739 68.0145 59.0432 68.0573 59.0216L68.0884 59.0491C68.0819 59.0999 68.0651 59.1487 68.039 59.1927C68.0128 59.2366 67.9779 59.2745 67.9365 59.3042L67.8839 59.2394Z" fill="#666666"/>
<path d="M67.0443 60.4686C67.1375 60.4127 67.1455 60.4866 67.1395 60.4986C67.1226 60.5459 67.0947 60.5884 67.0582 60.6225C67.0007 60.6705 66.9888 60.5905 66.9927 60.5745C67.0067 60.5377 67.024 60.5023 67.0443 60.4686Z" fill="#666666"/>
<path d="M66.8791 60.9062C66.8573 60.8463 66.8315 60.8083 66.8414 60.7903C66.8681 60.7489 66.9001 60.7113 66.9366 60.6784C66.9525 60.7044 66.9842 60.7384 66.9782 60.7563C66.9509 60.8099 66.9176 60.8602 66.8791 60.9062Z" fill="#666666"/>
<path d="M66.7868 60.8985C66.8091 60.9106 66.8301 60.9251 66.8496 60.9417C66.8355 60.9745 66.817 61.005 66.7946 61.0323C66.7946 61.0323 66.7397 61.0035 66.7416 60.9973C66.7522 60.9623 66.7674 60.9291 66.7868 60.8985Z" fill="#666666"/>
<path d="M38.2278 97.1297C38.1605 97.0414 38.1979 96.9727 38.2054 96.8785C38.2305 96.9143 38.2458 96.9566 38.2498 97.0008C38.2537 97.0451 38.2461 97.0896 38.2278 97.1297Z" fill="#666666"/>
<path d="M59.2769 55.7743L59.2381 55.8267C59.2381 55.8078 59.2177 55.7911 59.2115 55.7722C59.2054 55.7534 59.2217 55.7513 59.2279 55.7408L59.2769 55.7743Z" fill="#F8F2EA"/>
<path d="M67.9413 59.3016C67.9234 59.3795 67.854 59.4894 67.8124 59.4554C67.7132 59.3695 67.8381 59.3096 67.8877 59.2456L67.9413 59.3016Z" fill="#666666"/>
<path d="M67.7425 59.4715C67.7425 59.523 67.767 59.5626 67.7538 59.5864C67.7406 59.6101 67.7011 59.6082 67.6728 59.6181C67.6728 59.5963 67.6521 59.5685 67.6597 59.5547C67.6845 59.5241 67.7123 59.4962 67.7425 59.4715Z" fill="#666666"/>
<path d="M67.2476 60.3597L67.1733 60.407C67.1617 60.3746 67.1545 60.3407 67.1518 60.3062C67.1518 60.2897 67.189 60.2671 67.2085 60.2671C67.2281 60.2671 67.2731 60.2938 67.2476 60.3597Z" fill="#666666"/>
<path d="M72.9993 103.93C73.0687 103.876 73.1361 103.858 73.1976 103.93C73.1847 103.943 73.1692 103.954 73.1522 103.961C73.1352 103.968 73.1169 103.972 73.0984 103.972C73.08 103.972 73.0617 103.968 73.0447 103.961C73.0276 103.954 73.0122 103.943 72.9993 103.93Z" fill="#666666"/>
<path d="M77.1084 102.48L77.2304 102.447L77.1064 102.478L77.1084 102.48Z" fill="#666666"/>
<path d="M52.0474 77.1622C52.0383 77.1299 52.0413 77.0952 52.0558 77.065C52.0703 77.0348 52.0952 77.0113 52.1256 76.999C52.1432 77.0756 52.1256 77.138 52.0455 77.1602L52.0474 77.1622Z" fill="#666666"/>
<path d="M51.9659 77.3118L51.8881 77.3758L51.871 77.3298L51.9716 77.3158L51.9659 77.3118Z" fill="#666666"/>
<path d="M52.0435 77.1497C52.0463 77.1823 52.0407 77.2151 52.0272 77.2448C52.0137 77.2745 51.9929 77.3 51.9668 77.3189C51.9668 77.2464 51.9668 77.1799 52.0435 77.1517V77.1497Z" fill="#666666"/>
<path d="M78.4368 88.5261C78.4067 88.5131 78.382 88.4896 78.3672 88.4597C78.3524 88.4298 78.3485 88.3954 78.3562 88.3629C78.4231 88.3951 78.425 88.4616 78.4368 88.524V88.5261Z" fill="#666666"/>
<path d="M54.1867 52.5705L54.0987 52.6874C54.0399 52.6189 54.0771 52.5665 54.128 52.5161L54.1867 52.5705Z" fill="#666666"/>
<path d="M78.4289 88.5232L78.4816 88.614C78.3944 88.6239 78.4525 88.5489 78.4343 88.5193L78.4289 88.5232Z" fill="#666666"/>
<path d="M56.0529 42.6977C56.0875 42.673 56.1078 42.5886 56.1605 42.6442C56.2133 42.6998 56.1605 42.7409 56.0976 42.7492C56.0838 42.7311 56.0689 42.7139 56.0529 42.6977Z" fill="#F8F2EA"/>
<path d="M54.1364 52.5216L54.2177 52.3597L54.2732 52.4117L54.1959 52.5756L54.1364 52.5216Z" fill="#666666"/>
<path d="M54.2054 52.3652L54.2847 52.2014C54.3023 52.2197 54.3208 52.237 54.3403 52.2533L54.2609 52.4172L54.2054 52.3652Z" fill="#666666"/>
<path d="M39.3547 91.968L39.3449 92.0475L39.3117 92.0307L39.3605 91.9742L39.3547 91.968Z" fill="#666666"/>
<path d="M69.3876 59.5488C69.3676 59.6044 69.3316 59.59 69.2956 59.5735C69.2596 59.5571 69.2616 59.5365 69.2956 59.52L69.3616 59.485L69.3876 59.5488Z" fill="#F8F2EA"/>
<path d="M71.0026 51.6588C71.0728 51.6707 71.0787 51.7087 71.0358 51.7546C71.026 51.7666 70.9987 51.7546 70.9792 51.7546L71.0201 51.6588H71.0026Z" fill="#F8F2EA"/>
<path d="M52.9021 75.9098L52.9177 75.798L52.9665 75.8219L52.9002 75.9078L52.9021 75.9098Z" fill="#666666"/>
<path d="M52.7162 76.1038L52.8171 75.9679L52.8365 75.9859C52.8409 76.0182 52.8354 76.0512 52.8208 76.0802C52.8062 76.1091 52.7832 76.1328 52.755 76.1477L52.7162 76.1038Z" fill="#666666"/>
<path d="M68.0545 59.0276C68.068 58.9651 68.0833 58.9027 68.1563 58.8845C68.1627 58.9006 68.1659 58.9179 68.1657 58.9353C68.1654 58.9527 68.1618 58.9699 68.1549 58.9858C68.1481 59.0017 68.1382 59.0159 68.1259 59.0276C68.1135 59.0393 68.0991 59.0482 68.0833 59.0538L68.0545 59.0276Z" fill="#666666"/>
<path d="M52.7056 76.2477L52.6025 76.3895L52.5648 76.3476C52.5945 76.2976 52.6243 76.2477 52.656 76.1977C52.6716 76.2153 52.6881 76.232 52.7056 76.2477Z" fill="#666666"/>
<path d="M78.5841 88.8442C78.6 88.8606 78.6149 88.8781 78.6286 88.8965C78.6286 88.8965 78.6286 88.9153 78.6286 88.9237L78.5963 88.8379L78.5841 88.8442Z" fill="#666666"/>
<path d="M52.4114 76.5811L52.5086 76.4352L52.5483 76.4771C52.5344 76.5391 52.5166 76.597 52.4491 76.619L52.4114 76.5811Z" fill="#666666"/>
<path d="M52.3747 76.7026C52.3748 76.7339 52.3662 76.7646 52.3501 76.7911C52.3339 76.8176 52.3108 76.8389 52.2835 76.8525L52.2505 76.8145L52.3494 76.6746L52.3747 76.7026Z" fill="#666666"/>
<path d="M53.9001 53.1223L53.8725 53.1489C53.8725 53.1489 53.8488 53.1284 53.8508 53.1182C53.8528 53.108 53.8666 53.0998 53.8745 53.0896L53.9001 53.1223Z" fill="#666666"/>
<path d="M54.282 52.2035C54.3025 52.1812 54.3245 52.1605 54.348 52.1415C54.3964 52.1835 54.3673 52.2194 54.3363 52.2554C54.3173 52.2391 54.2992 52.2218 54.282 52.2035Z" fill="#666666"/>
<path d="M54.4359 52.0133V52.0408L54.3894 52.026C54.3894 52.026 54.4035 52.0048 54.4136 52.0006C54.4238 51.9964 54.4298 52.0091 54.4359 52.0133Z" fill="#666666"/>
<path d="M54.5194 51.873L54.4908 51.8995C54.4908 51.8995 54.4698 51.8791 54.4698 51.8689C54.4698 51.8587 54.4851 51.8484 54.4946 51.8403L54.5194 51.873Z" fill="#666666"/>
<path d="M52.8159 75.9734C52.8274 75.928 52.8467 75.8905 52.9026 75.9003C52.8814 75.9319 52.8602 75.9635 52.8371 75.9931L52.8159 75.9734Z" fill="#666666"/>
<path d="M52.7527 76.1466L52.7 76.2496C52.6834 76.234 52.6677 76.2175 52.653 76.2L52.7151 76.105L52.7527 76.1466Z" fill="#666666"/>
<path d="M52.3482 76.685L52.4069 76.58L52.4441 76.6191L52.3736 76.7138L52.3482 76.685Z" fill="#666666"/>
<path d="M52.2845 76.8478L52.2006 76.9217C52.2162 76.8837 52.2338 76.8478 52.2513 76.8098L52.2845 76.8478Z" fill="#666666"/>
<path d="M52.1241 77.0033L52.2035 76.9179C52.2035 76.9708 52.1817 77.0094 52.1201 76.9992L52.1241 77.0033Z" fill="#666666"/>
<path d="M56.0983 42.7369C56.0997 42.748 56.0988 42.7593 56.0957 42.77C56.0925 42.7807 56.0871 42.7906 56.0799 42.799C56.0727 42.8074 56.0639 42.8141 56.0539 42.8187C56.044 42.8232 56.0332 42.8255 56.0223 42.8254C56.0048 42.8084 55.9887 42.7898 55.9744 42.7699L56.0543 42.6855C56.07 42.7017 56.0847 42.7188 56.0983 42.7369Z" fill="#F8F2EA"/>
<path d="M78.1549 88.0397L78.1452 88.0095L78.1719 88.0118L78.1549 88.0397Z" fill="#666666"/>
<path d="M78.239 88.1543L78.2433 88.1827L78.2238 88.1803L78.239 88.1543Z" fill="#666666"/>
<path d="M78.3551 88.3659L78.3024 88.339C78.357 88.2833 78.3344 88.3618 78.3494 88.3721L78.3551 88.3659Z" fill="#666666"/>
<path d="M39.0136 100.105L39.0031 100.082L39.0319 100.085L39.0136 100.105Z" fill="#666666"/>
<path d="M51.575 77.7792L51.543 77.8329C51.511 77.775 51.543 77.7854 51.5807 77.7854L51.575 77.7792Z" fill="#666666"/>
<path d="M39.317 100.27L39.2945 100.243C39.3039 100.243 39.3133 100.225 39.3208 100.225C39.3283 100.225 39.3377 100.239 39.3453 100.248L39.317 100.27Z" fill="#666666"/>
<path d="M39.4991 100.326C39.4991 100.326 39.4813 100.345 39.4734 100.345C39.4655 100.345 39.4576 100.33 39.4497 100.322C39.4418 100.313 39.4675 100.302 39.4754 100.302C39.4833 100.302 39.4912 100.317 39.4991 100.326Z" fill="#666666"/>
<path d="M39.6538 100.404C39.6538 100.404 39.6368 100.425 39.6274 100.423C39.618 100.421 39.6124 100.408 39.603 100.4C39.5936 100.392 39.6218 100.379 39.6312 100.379C39.6406 100.379 39.6463 100.396 39.6538 100.404Z" fill="#666666"/>
<path d="M39.7879 100.501L39.7736 100.47L39.8094 100.475L39.7879 100.501Z" fill="#666666"/>
<path d="M51.7284 77.5436L51.7048 77.6106C51.6486 77.5574 51.7048 77.5574 51.732 77.5475L51.7284 77.5436Z" fill="#666666"/>
<path d="M76.9142 102.583L76.9261 102.606L76.8976 102.604L76.9142 102.583Z" fill="#666666"/>
<path d="M42.3073 86.8704C42.3264 86.8475 42.3471 86.8261 42.3693 86.8065C42.4333 86.8544 42.3809 86.8824 42.348 86.9123L42.3073 86.8704Z" fill="#F8F2EA"/>
<path d="M78.5885 88.845L78.5515 88.8108C78.5586 88.8094 78.5659 88.8094 78.5729 88.8108C78.5783 88.8209 78.5822 88.8318 78.5846 88.843L78.5885 88.845Z" fill="#666666"/>
<path d="M52.4996 76.4412C52.5208 76.4082 52.542 76.3753 52.5651 76.3444L52.6017 76.3856L52.5382 76.4844L52.4996 76.4412Z" fill="#666666"/>
<path d="M51.5815 77.7859L51.5967 77.7251C51.6592 77.7722 51.5967 77.7663 51.5758 77.78L51.5815 77.7859Z" fill="#666666"/>
<path d="M51.7349 77.5511L51.7632 77.4895C51.8105 77.5449 51.7632 77.5408 51.7311 77.547L51.7349 77.5511Z" fill="#666666"/>
<path d="M68.1561 58.8858L68.1905 58.8208C68.2305 58.874 68.2032 58.8858 68.1579 58.8878L68.1561 58.8858Z" fill="#666666"/>
<path d="M53.8234 53.2833L53.7958 53.3106C53.7958 53.3001 53.7741 53.2896 53.7761 53.2791C53.778 53.2686 53.7918 53.2602 53.7997 53.2518L53.8234 53.2833Z" fill="#666666"/>
<path d="M42.3482 86.9146C42.3231 86.9469 42.3039 87.0197 42.2537 86.9651C42.2036 86.9105 42.2692 86.8923 42.3077 86.8721L42.3482 86.9146Z" fill="#F8F2EA"/>
<path d="M40.4959 89.689L40.4521 89.6601C40.4521 89.6601 40.47 89.6333 40.476 89.6354C40.4939 89.6414 40.5108 89.6504 40.5258 89.6622L40.4959 89.689Z" fill="#F8F2EA"/>
<path d="M39.1469 100.165L39.1827 100.155L39.1803 100.183L39.1469 100.165Z" fill="#666666"/>
<path d="M73.9633 70.4414C72.9085 69.6076 71.9923 68.6096 71.2494 67.4851C71.2858 67.4252 71.3222 67.4272 71.3548 67.4523C72.3108 68.1659 73.1446 69.0321 73.8234 70.0166C73.9179 70.1262 73.9809 70.2597 74.0054 70.4028L73.9633 70.4414Z" fill="#F8F2EA"/>
<path d="M74.0051 70.3989C74.0563 70.4209 74.0791 70.4549 74.0335 70.5008C74.0335 70.5008 73.988 70.4628 73.9633 70.4429L74.0051 70.3989Z" fill="#F8F2EA"/>
<path d="M41.9987 43.8364C41.121 43.5583 40.3217 43.0968 39.4957 42.7048C37.742 41.8706 36.0095 40.9959 34.2673 40.1405C34.0756 40.0497 33.8974 39.9667 33.7038 39.8779C33.8035 39.7852 33.8955 39.8335 34.0028 39.8779C36.5691 40.7603 38.9591 42.0251 41.3414 43.3054C41.5842 43.4542 41.8172 43.6187 42.039 43.7978L41.9987 43.8364Z" fill="#F8F2EA"/>
<path d="M31.6416 38.6633C33.7287 39.0977 35.6664 39.9512 37.5829 40.8511L37.5427 40.9573C37.351 40.8704 37.1594 40.7893 36.9677 40.6966C35.7909 40.1173 34.549 39.7157 33.3262 39.285C33.0835 39.194 32.8293 39.1375 32.5711 39.117C32.3935 39.1103 32.2191 39.0664 32.0591 38.9883C31.8991 38.9102 31.757 38.7995 31.6416 38.6633Z" fill="#F8F2EA"/>
<path d="M38.8826 41.5606L38.8172 41.5174C38.8397 41.505 38.8642 41.4844 38.8846 41.4844C38.9051 41.4844 38.9296 41.5091 38.952 41.5235L38.8826 41.5606Z" fill="#666666"/>
<path d="M37.7919 41.0292C37.7439 41.0131 37.6979 41.001 37.6519 40.9828C37.6519 40.9828 37.6519 40.9305 37.6679 40.9284C37.7339 40.9184 37.7899 40.9284 37.8079 41.0111L37.7919 41.0292Z" fill="#F8F2EA"/>
<path d="M38.0889 41.1841C38.1484 41.1702 38.1821 41.1522 38.2099 41.1582C38.2377 41.1642 38.2912 41.1762 38.2496 41.2261C38.2421 41.2344 38.2329 41.2408 38.2226 41.245C38.2123 41.2491 38.2012 41.2509 38.1901 41.2501C38.1543 41.2315 38.1205 41.2094 38.0889 41.1841Z" fill="#666666"/>
<path d="M37.8021 41.0075L37.9481 41.0478C37.9341 41.0639 37.9221 41.0962 37.9101 41.0962C37.8581 41.0962 37.8041 41.0962 37.7861 41.0236L37.8021 41.0075Z" fill="#F8F2EA"/>
<path d="M42.04 43.7881L42.1462 43.8812C42.0793 43.9267 42.0302 43.9129 41.9987 43.8376L42.04 43.7881Z" fill="#F8F2EA"/>
<path d="M38.6982 41.4033C38.7067 41.4183 38.7138 41.4341 38.7191 41.4506C38.7191 41.4506 38.7039 41.4664 38.6963 41.4742C38.6872 41.4593 38.6796 41.4435 38.6735 41.427C38.6735 41.427 38.6887 41.4112 38.6982 41.4033Z" fill="#666666"/>
<path d="M38.5825 41.3648C38.5659 41.3746 38.548 41.3817 38.5293 41.386C38.5293 41.386 38.513 41.3712 38.5048 41.3627C38.5209 41.3535 38.5381 41.3464 38.5559 41.3416C38.5559 41.3416 38.5723 41.3564 38.5825 41.3648Z" fill="#666666"/>
<path d="M38.4255 41.2857C38.4086 41.2958 38.3908 41.3043 38.3723 41.311C38.3723 41.311 38.3539 41.2941 38.3458 41.2857C38.3623 41.2753 38.3802 41.2675 38.3989 41.2624C38.3989 41.2624 38.4255 41.2772 38.4255 41.2857Z" fill="#666666"/>
<path d="M32.0958 65.6449C32.3342 65.2229 32.6613 64.8584 33.0541 64.5771C34.5567 63.4049 36.2567 62.5611 37.9107 61.642C39.0317 61.0433 40.2108 60.5626 41.4295 60.2072C41.5049 60.1709 41.587 60.1509 41.6705 60.1485C41.7541 60.1462 41.8372 60.1616 41.9144 60.1937C38.8441 62.3587 35.5524 64.1861 32.0958 65.6449Z" fill="#F8F2EA"/>
<path d="M30.4423 66.4694C30.4488 66.6014 30.4187 66.7328 30.3556 66.8487C30.2924 66.9646 30.1986 67.0606 30.0845 67.126C30.0362 67.1572 29.953 67.126 29.9646 67.0793C30.0323 66.8123 30.2392 66.6545 30.4423 66.4694Z" fill="#F8F2EA"/>
<path d="M31.9761 65.9353C31.8084 66.0119 31.6214 66.035 31.4403 66.0016C31.4577 65.8067 31.6221 65.7483 31.7304 65.6333C31.8484 65.7171 31.7633 65.8769 31.9761 65.9353Z" fill="#F8F2EA"/>
<path d="M29.1868 66.5933C29.1578 66.7355 29.0592 66.8232 28.9335 66.983C28.9233 66.8971 28.9396 66.8101 28.9801 66.7338C29.0205 66.6575 29.0832 66.5955 29.1598 66.5563L29.1868 66.5933Z" fill="#666666"/>
<path d="M29.3994 66.4186L29.4191 66.3593C29.4763 66.4124 29.4033 66.3961 29.3935 66.4124L29.3994 66.4186Z" fill="#666666"/>
<path d="M29.3937 66.4095L29.3591 66.4682L29.334 66.4257H29.3995L29.3937 66.4095Z" fill="#666666"/>
<path d="M29.1577 66.5648L29.227 66.5254L29.1846 66.5943L29.1577 66.5648Z" fill="#666666"/>
<path d="M71.9701 37.8658C71.8991 37.5317 72.0391 37.2517 72.1617 36.9698C72.5814 35.9734 73.2714 35.1528 73.9173 34.307C75.506 32.1969 77.2706 30.2273 79.1917 28.4194C79.3247 28.2762 79.486 28.1624 79.6651 28.0854C79.4658 28.8945 72.706 37.497 71.9701 37.8658Z" fill="#F8F2EA"/>
<path d="M85.0353 66.8942C84.7281 66.7961 84.4344 66.6592 84.1614 66.4868C82.4096 65.5071 80.6623 64.5223 78.9195 63.5324C78.9019 63.5211 78.8871 63.5058 78.8764 63.4877C78.8658 63.4695 78.8595 63.4491 78.8582 63.4281C81.1255 64.2121 83.0498 65.6333 85.0909 66.8363L85.0353 66.8942Z" fill="#F8F2EA"/>
<path d="M81.0759 64.0595C81.1479 64.0595 81.2099 64.0595 81.2359 64.1441C81.1639 64.1441 81.0919 64.1623 81.0699 64.0656L81.0759 64.0595Z" fill="#666666"/>
<path d="M81.0823 64.063C81.0503 64.0712 81.0163 64.0673 80.9869 64.0521C80.9574 64.0369 80.9345 64.0114 80.9224 63.9803C80.9944 63.9803 81.0563 63.9803 81.0863 64.0589L81.0823 64.063Z" fill="#666666"/>
<path d="M81.3076 64.22C81.3816 64.2079 81.4496 64.2079 81.4696 64.3026C81.4036 64.3026 81.3376 64.3026 81.3076 64.22Z" fill="#666666"/>
<path d="M81.4628 64.2993C81.5368 64.2852 81.6048 64.2832 81.6248 64.3799C81.5548 64.3799 81.4888 64.3799 81.4628 64.2993Z" fill="#666666"/>
<path d="M81.7859 64.451C81.7159 64.451 81.6479 64.451 81.6219 64.3704C81.6899 64.3704 81.7539 64.3704 81.7839 64.451H81.7859Z" fill="#666666"/>
<path d="M82.1643 64.6898L82.2497 64.7267C82.2397 64.7267 82.2258 64.7391 82.2219 64.7267C82.2031 64.7114 82.1852 64.6949 82.1683 64.6774L82.1643 64.6898Z" fill="#666666"/>
<path d="M85.0928 66.8305L85.2336 66.9264C85.2242 66.94 85.2135 66.9527 85.2019 66.9644C85.1325 66.9644 85.069 66.9644 85.0353 66.8905L85.0928 66.8305Z" fill="#F8F2EA"/>
<path d="M85.3123 67.0982L85.1963 66.9672C85.208 66.9554 85.2187 66.9426 85.2283 66.929C85.3023 66.9612 85.4103 66.9773 85.3103 67.0982H85.3123Z" fill="#F8F2EA"/>
<path d="M85.3055 67.0921C85.3392 67.0782 85.3841 67.0465 85.4009 67.0584C85.4177 67.0703 85.4009 67.0941 85.371 67.0802C85.3411 67.0663 85.3298 67.0802 85.3093 67.0921H85.3055Z" fill="#F8F2EA"/>
<path d="M80.7658 63.9136L80.6578 63.8807C80.6672 63.8653 80.6779 63.8508 80.6898 63.8375C80.7197 63.8562 80.7484 63.8768 80.7758 63.8992L80.7658 63.9136Z" fill="#666666"/>
<path d="M80.7773 63.8954C80.8453 63.8954 80.9193 63.8954 80.9313 63.9861C80.8613 63.9861 80.7953 63.9861 80.7633 63.9095L80.7773 63.8954Z" fill="#666666"/>
<path d="M81.229 64.1406C81.2801 64.1406 81.3189 64.1616 81.3128 64.2264C81.2637 64.2264 81.227 64.2013 81.231 64.1406H81.229Z" fill="#666666"/>
<path d="M81.7735 64.4539C81.7861 64.4569 81.7984 64.4611 81.8103 64.4665C81.8103 64.4665 81.8103 64.4833 81.8103 64.4917L81.7714 64.4476L81.7735 64.4539Z" fill="#666666"/>
<path d="M81.9515 64.5707L81.9847 64.5616L81.9824 64.5867L81.9515 64.5707Z" fill="#666666"/>
<path d="M82.1687 64.6863L82.1317 64.6562C82.1317 64.6562 82.1492 64.6562 82.1531 64.6562C82.1578 64.6652 82.1617 64.6746 82.1648 64.6843L82.1687 64.6863Z" fill="#666666"/>
<path d="M49.6573 26.473C50.4036 27.569 51.0174 28.7507 51.4857 29.9932C52.2006 31.7813 52.9289 33.5597 53.6955 35.3246C53.7914 35.5467 53.9332 35.7591 53.9198 36.041C53.6975 36.041 53.6304 35.8846 53.548 35.7494C53.1407 35.0844 52.7813 34.3907 52.4728 33.6736C51.4704 31.4028 50.3646 29.1706 49.6669 26.7781C49.642 26.6912 49.6324 26.6005 49.6152 26.5116L49.6573 26.473Z" fill="#F8F2EA"/>
<path d="M49.6163 26.5271C49.5518 26.5044 49.544 26.4324 49.5811 26.4077C49.6183 26.383 49.6418 26.4488 49.6594 26.4859L49.6163 26.5271Z" fill="#F8F2EA"/>
<path d="M65.2716 35.1624C65.4225 32.8589 65.9915 30.6029 66.9505 28.5063C66.7685 30.8235 66.0823 33.0094 65.2716 35.1624Z" fill="#F8F2EA"/>
<path d="M59.0715 30.4083C59.5955 31.9103 59.909 33.4786 60.003 35.0678C59.5028 33.552 59.0639 32.0226 59.0715 30.4083Z" fill="#F8F2EA"/>
<path d="M37.4258 52.7343C39.068 52.6747 40.7121 52.7782 42.3341 53.0433C41.8435 53.472 38.3017 53.246 37.4258 52.7343Z" fill="#F8F2EA"/>
<path d="M40.6073 53.5859C41.0994 53.5685 41.592 53.5957 42.0792 53.667C41.5888 53.7524 41.0856 53.7247 40.6073 53.5859Z" fill="#666666"/>
<defs>
<filter id="filter0_d_1_1698" x="0" y="0" width="126" height="125" filterUnits="userSpaceOnUse" color-interpolation-filters="sRGB">
<feFlood flood-opacity="0" result="BackgroundImageFix"/>
<feColorMatrix in="SourceAlpha" type="matrix" values="0 0 0 0 0 0 0 0 0 0 0 0 0 0 0 0 0 0 127 0" result="hardAlpha"/>
<feOffset dx="5" dy="4"/>
<feGaussianBlur stdDeviation="2"/>
<feComposite in2="hardAlpha" operator="out"/>
<feColorMatrix type="matrix" values="0 0 0 0 0 0 0 0 0 0 0 0 0 0 0 0 0 0 0.25 0"/>
<feBlend mode="normal" in2="BackgroundImageFix" result="effect1_dropShadow_1_1698"/>
<feBlend mode="normal" in="SourceGraphic" in2="effect1_dropShadow_1_1698" result="shape"/>
</filter>
</defs>
</svg>
