<svg width="103" height="104" viewBox="0 0 103 104" fill="none" xmlns="http://www.w3.org/2000/svg">
<path d="M0 51.7287C0.188369 38.5928 4.54427 27.0269 13.3582 17.2434C20.5418 9.27116 29.4324 4.15043 39.7735 1.54556C42.963 0.742332 46.2047 0.275836 49.4879 0.0881652C56.2766 -0.301117 62.8833 0.591123 69.29 2.91609C75.8467 5.29576 81.6404 8.92155 86.6977 13.7474C91.0014 17.8536 94.3569 22.6494 97.0835 27.9406C99.8909 33.3906 101.715 39.128 102.533 45.2053C102.901 47.9302 103.066 50.667 102.976 53.4124C102.562 66.1944 98.153 77.3817 89.5551 86.7984C82.2704 94.7761 73.3064 99.9021 62.7833 102.216C59.7651 102.88 56.7108 103.296 53.6181 103.365C39.7927 103.673 27.6019 99.3231 17.2065 90.1304C8.95125 82.8295 3.71311 73.6615 1.26324 62.8796C0.503382 59.5379 0.0957809 56.147 0.0489547 52.7153C0.0446977 52.4043 0.0191562 52.0944 0.00106423 51.7298L0 51.7287Z" fill="#060000"/>
<path d="M54.1195 98.4825C46.9743 98.6134 40.3101 97.4294 33.9193 94.7945C29.3346 92.905 25.0511 90.4845 21.3231 87.1622C15.1942 81.7016 10.7127 75.0955 7.8893 67.3539C6.65585 63.9736 5.83001 60.4916 5.39048 56.9204C4.95627 53.4008 4.82537 49.8662 5.30321 46.3476C5.94601 41.6162 7.32313 37.0896 9.38135 32.7828C13.4403 24.2894 19.4288 17.5032 27.3232 12.4672C32.5507 9.13307 38.2401 6.91319 44.3382 5.78824C47.3404 5.23381 50.3681 4.97322 53.4182 5.00217C58.1434 5.04721 62.7845 5.70567 67.2713 7.20918C70.3959 8.25584 73.3055 9.79796 76.0597 11.6168C84.9982 17.5203 91.3379 25.5612 95.3234 35.5142C97.0528 39.8328 98.1298 44.3186 98.5608 48.96C98.7694 51.2013 98.8865 53.448 98.6991 55.6925C98.4767 58.3585 97.9446 60.9741 97.2241 63.549C95.085 71.1834 91.307 77.8913 85.923 83.6705C80.2943 89.7124 73.5662 94.0578 65.7675 96.682C63.4252 97.4702 60.9817 97.8605 58.5297 98.1587C56.9823 98.3463 55.4285 98.43 54.1195 98.4836V98.4825Z" fill="#F8F2EA"/>
<path d="M53.0383 93.9911C46.4867 94.1101 40.3762 93.0337 34.5165 90.6381C30.3127 88.9202 26.3851 86.7196 22.9668 83.6991C17.3472 78.7345 13.238 72.7285 10.6492 65.69C9.51827 62.6168 8.76104 59.451 8.35804 56.2043C7.95991 53.0044 7.83988 49.7908 8.27802 46.5919C8.86741 42.2902 10.1301 38.1747 12.0173 34.2592C15.739 26.5372 21.2299 20.3675 28.4684 15.7889C33.2616 12.7576 38.4783 10.7394 44.0696 9.71664C46.8224 9.21257 49.5986 8.97565 52.3952 9.00197C56.7278 9.04292 60.9833 9.64157 65.0973 11.0085C67.9623 11.9601 70.6301 13.3621 73.1555 15.0157C81.3513 20.3831 87.1642 27.6936 90.8186 36.7425C92.4043 40.6688 93.3918 44.7472 93.787 48.9669C93.9783 51.0047 94.0856 53.0473 93.9139 55.0879C93.7099 57.5118 93.222 59.8898 92.5614 62.2307C90.6 69.1717 87.1359 75.2703 82.1993 80.5245C77.0383 86.0176 70.8692 89.9683 63.7185 92.3541C61.5707 93.0707 59.3303 93.4256 57.082 93.6967C55.6632 93.8673 54.2385 93.9434 53.0383 93.9921V93.9911Z" fill="#181818"/>
<path d="M12.7023 19.7293C13.7889 18.0799 15.0181 16.54 16.3313 15.0729C17.0603 14.259 17.9277 13.5833 18.8206 12.8445C16.8879 15.297 14.7893 17.5137 12.7928 19.8204C12.714 19.8387 12.6725 19.8204 12.7023 19.7293Z" fill="#F8F2EA"/>
<path d="M80.8744 14.4558C83.2274 16.3872 85.3633 18.5363 87.2598 20.9245C87.2757 21.0028 87.2534 21.0425 87.1672 21.0135C85.1398 18.7572 82.9581 16.6553 80.7743 14.5555C80.7594 14.474 80.7871 14.4343 80.8733 14.4558H80.8744Z" fill="#F8F2EA"/>
<path d="M100.222 47.7567C100.478 49.7621 100.612 51.7728 100.417 53.7911C100.345 54.5482 100.23 55.301 100.134 56.056C99.9119 55.9509 100.06 55.7783 100.058 55.6324C100.176 53.7579 100.284 51.8833 100.221 50.0034C100.196 49.2838 100.164 48.5642 100.134 47.8446C100.106 47.7578 100.143 47.7363 100.222 47.7556V47.7567Z" fill="#F8F2EA"/>
<path d="M56.0433 99.0129C54.9503 99.1556 53.8584 99.3025 52.7644 99.4398C51.7363 99.5695 50.7051 99.6778 49.6781 99.8215C49.4067 99.8602 49.1481 99.8173 48.8842 99.8108C48.8065 99.8087 48.6607 99.8784 48.6788 99.7014C48.6905 99.5888 48.782 99.5449 48.8916 99.5374C49.2833 99.5116 49.6738 99.4709 50.0665 99.4569C51.8321 99.3947 53.5849 99.191 55.3356 98.9647C55.5686 98.9347 55.8038 98.8971 56.0433 99.0119V99.0129Z" fill="#F8F2EA"/>
<path d="M30.7449 7.77722C32.8563 6.58363 35.1646 5.91231 37.458 5.20345C37.5496 5.17235 37.5719 5.21417 37.5559 5.29782C35.2891 6.08496 33.0319 6.90106 30.8332 7.86837C30.7459 7.89411 30.7246 7.85657 30.7449 7.77722Z" fill="#F8F2EA"/>
<path d="M78.4944 90.0082C80.3387 88.3802 82.2266 86.7995 83.9358 85.0172C83.5229 85.8301 79.6555 89.3969 78.4944 90.0082Z" fill="#F8F2EA"/>
<path d="M86.7454 16.3823C87.552 16.9796 90.65 20.6451 91.0821 21.4783C89.5241 19.8783 88.2991 17.9887 86.7454 16.3823Z" fill="#F8F2EA"/>
<path d="M78.7429 11.4212C77.6254 10.767 76.509 10.1118 75.3916 9.45761C76.6229 9.91124 77.9255 10.2372 78.7429 11.4212Z" fill="#F8F2EA"/>
<path d="M12.4459 22.4388C13.2111 21.3288 14.0753 20.295 14.9331 19.258C14.9927 19.1851 15.0437 19.0135 15.1853 19.1207C15.3417 19.2398 15.2034 19.3352 15.1246 19.4296C14.2615 20.4634 13.3984 21.4983 12.5364 22.5331C12.4608 22.546 12.4183 22.5256 12.447 22.4388H12.4459Z" fill="#F8F2EA"/>
<path d="M99.5777 60.1673C99.3553 61.6579 99.0105 63.1196 98.5433 64.5524C98.5177 64.5835 98.4911 64.5845 98.4624 64.5556C98.8359 63.0081 99.2159 61.4628 99.4851 59.8917C99.6863 59.9249 99.5724 60.0665 99.5777 60.1662V60.1673Z" fill="#F8F2EA"/>
<path d="M87.168 21.0136C87.1988 20.9835 87.2297 20.9546 87.2606 20.9246C88.2929 22.1192 89.1932 23.4115 90.0478 24.738C90.0765 24.8217 90.0371 24.8356 89.9669 24.8185C89.1049 23.4973 88.1268 22.2629 87.168 21.0136Z" fill="#F8F2EA"/>
<path d="M99.5784 60.1676C99.5369 60.0797 99.5965 59.9564 99.4858 59.8931C99.6763 58.4732 99.8668 57.0534 100.057 55.6335C100.111 55.7697 100.029 55.9306 100.134 56.0571C99.9488 57.4276 99.7636 58.7971 99.5795 60.1676H99.5784Z" fill="#F8F2EA"/>
<path d="M98.0493 66.174C97.8173 67.3547 97.3246 68.4464 96.9138 69.566C96.8414 69.7633 96.7574 69.9563 96.6786 70.1515C96.6084 70.1612 96.5583 70.1537 96.6052 70.0636C97.083 68.7499 97.5853 67.4437 97.9833 66.1021C98.0153 66.0903 98.0472 66.0796 98.0685 66.1171C98.077 66.1322 98.0653 66.1536 98.0504 66.174H98.0493Z" fill="#F8F2EA"/>
<path d="M98.7798 37.6328C99.1725 38.8628 99.5503 40.0971 99.5897 41.4012C99.3193 40.1454 99.0501 38.8896 98.7798 37.6328Z" fill="#F8F2EA"/>
<path d="M47.7572 3.01758C48.6767 2.9275 49.5919 2.78165 50.5157 2.75699C50.5199 2.80846 50.5252 2.85887 50.5295 2.91034C49.6345 2.97683 48.7395 3.04332 47.8434 3.10981C47.7582 3.13233 47.7338 3.09694 47.7561 3.01651L47.7572 3.01758Z" fill="#F8F2EA"/>
<path d="M2.19259 50.9183V53.4524C2.14789 53.4524 2.10319 53.4503 2.05849 53.4492C1.86906 52.5376 2.2011 51.6432 2.19259 50.9183Z" fill="#F8F2EA"/>
<path d="M4.81112 35.4388C4.64297 35.9 4.47056 36.3611 4.30773 36.8244C4.26516 36.9456 4.21408 37.0431 4.0736 36.9863C3.89268 36.9123 4.02997 36.8072 4.07041 36.7236C4.27794 36.2925 4.49078 35.8656 4.70256 35.4367C4.73981 35.4013 4.776 35.4024 4.81218 35.4399L4.81112 35.4388Z" fill="#F8F2EA"/>
<path d="M39.8201 3.92736C39.0027 4.13218 38.1865 4.33701 37.3691 4.54291C38.1067 4.12789 38.9197 3.98419 39.7328 3.83835C39.8158 3.81475 39.8403 3.84907 39.8201 3.92843V3.92736Z" fill="#F8F2EA"/>
<path d="M4.04295 64.2208C3.65131 63.4251 3.54063 62.55 3.42676 61.675C3.63215 62.5232 3.83755 63.3726 4.04295 64.2208Z" fill="#F8F2EA"/>
<path d="M12.4463 22.4395C12.4761 22.4706 12.5059 22.5028 12.5357 22.5339C12.1621 23.0519 11.7886 23.5709 11.415 24.0889C11.3831 24.0674 11.3522 24.046 11.3203 24.0245C11.6811 23.4873 12.0238 22.9371 12.4463 22.4395Z" fill="#F8F2EA"/>
<path d="M19.239 88.1179C19.7392 88.5179 20.2394 88.9179 20.7396 89.3179C19.9574 88.9544 19.4731 88.5651 19.239 88.1179Z" fill="#F8F2EA"/>
<path d="M58.182 2.26695C57.6137 2.22405 57.0444 2.18008 56.4346 2.13397C57.0614 1.80367 57.6191 2.19188 58.1927 2.16185C58.1884 2.19617 58.1852 2.23156 58.181 2.26587L58.182 2.26695Z" fill="#F8F2EA"/>
<path d="M68.6082 6.55786C69.2648 6.64258 69.8342 6.89674 70.3524 7.27852C69.7714 7.0383 69.1892 6.79808 68.6082 6.55786Z" fill="#F8F2EA"/>
<path d="M37.5562 5.29771C37.5232 5.26661 37.4912 5.23443 37.4583 5.20334C37.935 4.98242 38.4448 4.88698 38.946 4.76151C38.9567 4.79582 38.9673 4.83014 38.978 4.86446C38.5033 5.00923 38.0297 5.15293 37.5551 5.29771H37.5562Z" fill="#F8F2EA"/>
<path d="M61.0655 98.6009C61.471 98.4797 61.8764 98.3574 62.2819 98.2362C62.0403 98.6588 61.5955 98.5622 61.2411 98.6931C61.1538 98.7167 61.0548 98.7649 61.0655 98.6009Z" fill="#F8F2EA"/>
<path d="M53.2144 100.412C53.8646 100.4 54.5063 100.215 55.163 100.339C54.5127 100.351 53.8731 100.565 53.2144 100.412Z" fill="#F8F2EA"/>
<path d="M17.7771 85.5232C18.1464 85.8728 18.5167 86.2234 18.886 86.573C18.8626 86.5977 18.8381 86.6234 18.8147 86.6481C18.4061 86.3382 18.0485 85.9757 17.7771 85.5232Z" fill="#F8F2EA"/>
<path d="M20.0029 87.6719C19.6102 87.4005 19.2547 87.0885 18.9546 86.7142C19.3654 86.9619 19.724 87.2729 20.0625 87.6097C20.071 87.6568 20.0507 87.6783 20.0029 87.6719Z" fill="#F8F2EA"/>
<path d="M6.19036 71.2905C5.93068 70.8626 5.76041 70.4004 5.69336 69.8953C5.88066 70.3414 6.06797 70.7886 6.25527 71.2347C6.25527 71.2787 6.23399 71.2969 6.19142 71.2916L6.19036 71.2905Z" fill="#F8F2EA"/>
<path d="M80.8739 14.456C80.8409 14.4893 80.8079 14.5225 80.7749 14.5558C80.5206 14.322 80.2662 14.0882 80.0129 13.8544C80.3652 13.9713 80.6366 14.1911 80.875 14.456H80.8739Z" fill="#F8F2EA"/>
<path d="M89.9668 24.8183C89.9934 24.7915 90.0211 24.7647 90.0477 24.7379C90.3254 25.0489 90.5159 25.4114 90.649 25.8146C90.4212 25.4821 90.1945 25.1497 89.9668 24.8183Z" fill="#F8F2EA"/>
<path d="M39.8207 3.92747C39.7919 3.89744 39.7621 3.86741 39.7334 3.83739C40.1453 3.70012 40.5635 3.59502 40.9998 3.58966C41.0094 3.60038 41.0179 3.61218 41.0275 3.62291C40.6412 3.7902 40.2261 3.83739 39.8207 3.9264V3.92747Z" fill="#F8F2EA"/>
<path d="M26.1714 91.9626C26.4758 92.1416 26.7812 92.3207 27.0856 92.4988C26.7163 92.4387 26.4055 92.265 26.1714 91.9626Z" fill="#F8F2EA"/>
<path d="M61.0647 98.6009C61.0859 98.7039 61.1817 98.662 61.2403 98.6931C60.8763 98.7789 60.5134 98.8658 60.1494 98.9516C60.4282 98.7478 60.7433 98.6642 61.0647 98.6009Z" fill="#F8F2EA"/>
<path d="M100.221 47.7568C100.192 47.7868 100.163 47.8158 100.134 47.8458C100.021 47.5337 100.052 47.2152 100.128 46.8924L100.221 47.7568Z" fill="#F8F2EA"/>
<path d="M21.2983 88.6964C21.0174 88.528 20.7502 88.3414 20.5268 88.099C20.5246 88.0572 20.5459 88.0422 20.5853 88.0519C20.8641 88.1741 21.0621 88.4047 21.2962 88.587C21.3334 88.6224 21.3345 88.6588 21.2983 88.6964Z" fill="#F8F2EA"/>
<path d="M30.7445 7.7775C30.7743 7.80753 30.8031 7.83863 30.8329 7.86866C30.6083 8.0263 30.3593 8.12496 30.0879 8.16786C30.2805 7.98876 30.4976 7.85793 30.7435 7.77643L30.7445 7.7775Z" fill="#F8F2EA"/>
<path d="M47.7574 3.01767C47.7861 3.04877 47.8159 3.07987 47.8446 3.11097C47.5648 3.25467 47.2732 3.18496 46.9773 3.11848C47.237 3.08523 47.4977 3.05091 47.7574 3.01767Z" fill="#F8F2EA"/>
<path d="M4.81079 35.4386C4.7746 35.4386 4.73736 35.4364 4.70117 35.4354C4.80866 35.1962 4.91615 34.9571 5.02363 34.719C5.01618 34.985 4.97362 35.2338 4.81079 35.4386Z" fill="#F8F2EA"/>
<path d="M6.60278 30.824C6.73156 30.5591 6.86033 30.2931 6.9891 30.0282C7.02103 30.0432 7.05402 30.0583 7.08594 30.0733C6.96356 30.3414 6.88693 30.6309 6.60278 30.824Z" fill="#F8F2EA"/>
<path d="M97.3019 38.7442C97.2391 38.4911 97.1763 38.238 97.1135 37.9849C97.2976 38.1726 97.3764 38.3957 97.3796 38.6445C97.42 38.7302 97.3796 38.7528 97.3008 38.7442H97.3019Z" fill="#F8F2EA"/>
<path d="M96.6048 70.0635C96.6293 70.0925 96.6538 70.1225 96.6783 70.1514C96.5995 70.3756 96.5112 70.5944 96.2983 70.8324C96.3771 70.515 96.4718 70.2823 96.6048 70.0635Z" fill="#F8F2EA"/>
<path d="M12.7013 19.7286C12.7311 19.7587 12.762 19.7898 12.7918 19.8198C12.6907 20.0514 12.5076 20.2155 12.3203 20.3807C12.3959 20.1319 12.5172 19.912 12.7013 19.7286Z" fill="#F8F2EA"/>
<path d="M6.25428 71.235C6.38838 71.4709 6.51502 71.7079 6.54269 71.9889C6.38093 71.7787 6.24896 71.5545 6.19043 71.2918C6.21171 71.2725 6.233 71.2543 6.25428 71.235Z" fill="#F8F2EA"/>
<path d="M21.2985 88.6961C21.2985 88.6597 21.2975 88.6232 21.2964 88.5868C21.5071 88.709 21.6997 88.8538 21.8455 89.0618C21.6423 88.9728 21.4379 88.887 21.2985 88.6972V88.6961Z" fill="#F8F2EA"/>
<path d="M96.6256 35.9385C96.4617 35.7572 96.3393 35.561 96.3829 35.221C96.484 35.5202 96.5553 35.7294 96.6256 35.9385Z" fill="#F8F2EA"/>
<path d="M97.303 38.7438C97.3296 38.7106 97.3551 38.6773 97.3817 38.6441C97.4882 38.8436 97.519 39.0591 97.486 39.2908C97.4254 39.1085 97.3636 38.9261 97.303 38.7438Z" fill="#F8F2EA"/>
<path d="M98.4627 64.5559C98.4903 64.5677 98.5169 64.5655 98.5435 64.5526C98.4829 64.7478 98.4222 64.9441 98.3254 65.2561C98.2913 64.9183 98.3467 64.7307 98.4627 64.5569V64.5559Z" fill="#F8F2EA"/>
<path d="M40.999 3.59047C41.2204 3.47787 41.4524 3.42854 41.7876 3.46822C41.4779 3.53149 41.2661 3.6398 41.0267 3.62372C41.0171 3.61299 41.0086 3.6012 40.999 3.59047Z" fill="#F8F2EA"/>
<path d="M20.5275 88.099C20.353 87.9563 20.1784 87.8148 20.0039 87.6721C20.0241 87.6518 20.0433 87.6303 20.0635 87.61C20.2625 87.7279 20.4381 87.8738 20.586 88.0518C20.5605 88.0593 20.5413 88.0754 20.5275 88.099Z" fill="#F8F2EA"/>
<path d="M98.0504 66.1735C98.0281 66.15 98.0057 66.1253 97.9834 66.1017C98.0366 65.9151 98.0898 65.7285 98.143 65.5419C98.1718 65.765 98.1803 65.9827 98.0494 66.1735H98.0504Z" fill="#F8F2EA"/>
<path d="M68.1269 56.473C68.2609 56.473 68.3148 56.3604 68.3792 56.2671C68.5323 56.2671 68.581 56.1158 68.6628 56.0243C70.5141 53.9516 72.616 52.273 75.3652 51.5851C76.4874 51.3035 77.6271 51.0379 78.7755 51.2719C81.0688 51.7346 82.1614 52.9346 81.8952 55.3557C81.7491 56.6806 81.3002 57.9176 80.7573 59.1211C79.6333 61.6125 78.0029 63.7521 76.2212 65.7879C74.0671 68.2512 71.6643 70.4488 69.1709 72.5497C68.9969 72.6957 68.9534 72.7995 69.0769 73.0125C69.5989 73.9098 70.1557 74.772 70.923 75.4758C72.4003 76.8165 73.6235 78.4159 75.1616 79.6986C75.5096 79.9907 75.567 80.3619 75.4487 80.7913C75.1964 81.6939 74.5004 82.2974 73.7365 82.227C73.1377 82.1755 72.5539 82.0102 72.0157 81.7397C69.4956 80.4912 67.293 78.6738 65.5779 76.4277C65.43 76.2341 65.3256 75.891 65.115 75.8875C64.9045 75.884 64.7218 76.1497 64.5234 76.2975C62.3607 77.9197 60.144 79.447 57.5845 80.3813C57.0399 80.5801 56.5614 80.2423 56.6205 79.6617C56.6573 79.4031 56.7455 79.1547 56.8798 78.9315C57.3341 78.1391 57.9063 77.4223 58.5763 76.806C59.9352 75.4828 61.475 74.3884 62.961 73.2254C63.6569 72.6834 63.6569 72.6799 63.3646 71.8635C63.3229 71.7403 63.2776 71.6172 63.2411 71.4922C62.4912 68.9532 62.2963 66.3421 62.2441 63.7116C62.2197 62.4272 62.3067 61.1463 62.3189 59.8636C62.3293 58.7709 62.3346 57.673 62.4285 56.5874C62.6182 54.432 62.7365 52.2748 62.8113 50.1159C62.9001 47.547 62.7382 44.9834 62.7156 42.4162C62.6982 40.3259 62.4494 38.2462 62.2893 36.1647C62.2023 35.0087 62.091 33.8439 61.7378 32.7319C61.5133 32.0281 61.2662 31.3155 60.7286 30.7577C60.318 30.3336 59.9386 30.2597 59.448 30.5817C59.3126 30.6763 59.1867 30.7842 59.0721 30.9037C58.2926 31.6797 57.9551 32.7055 57.588 33.7031C56.504 36.6521 56.1212 39.7594 55.6253 42.8403C55.4669 43.8256 55.5087 44.8356 55.3782 45.8315C55.1537 47.5523 55.0145 49.2801 54.9345 51.0132C54.858 52.6285 54.8893 54.2455 54.8319 55.8589C54.7344 58.5569 54.6735 61.2548 54.6492 63.9527C54.6231 66.8418 54.6074 69.7292 54.6213 72.6166C54.6213 73.8711 54.2994 74.9426 53.339 75.7942C52.7909 76.2781 52.2254 76.4752 51.5294 76.2042C51.2734 76.0984 51.0415 75.9409 50.8479 75.7412C50.6543 75.5415 50.5031 75.3039 50.4036 75.0429C50.0712 74.3197 49.8545 73.5476 49.7616 72.7556C49.4136 69.4969 49.0656 66.2454 49.2396 62.9498C49.3196 61.456 49.3179 59.9586 49.4223 58.463C49.645 55.2466 49.5963 52.0267 49.4536 48.8068C49.3823 47.1212 49.177 45.4461 49.0395 43.7658C48.8881 41.9236 48.7855 40.0708 48.4183 38.2585C48.0303 36.3494 47.6075 34.4527 46.8715 32.6439C46.6139 31.9275 46.2295 31.2645 45.7371 30.6873C45.1577 30.0556 44.4512 30.0539 43.8718 30.6873C43.6593 30.9253 43.4747 31.1875 43.322 31.4685C42.8697 32.3301 42.5193 33.2425 42.278 34.187C41.8413 35.7178 41.6342 37.3013 41.2967 38.8532C40.7188 41.4982 40.2969 44.1757 40.0335 46.8713C39.7464 49.8256 39.6281 52.7956 39.461 55.7586C39.3444 57.8454 39.3062 59.9375 39.2592 62.026C39.1774 65.6031 39.113 69.1785 39.0469 72.7591C39.0434 73.6533 38.8311 74.5341 38.4275 75.3297C37.7315 76.6687 36.2038 76.7673 35.3408 75.5426C35.023 75.0967 34.8476 74.5632 34.8379 74.0136C34.8014 72.504 34.7527 70.996 34.7405 69.4864C34.704 64.9222 34.7301 60.358 34.5996 55.7938C34.53 53.3305 34.5126 50.8566 34.6222 48.3845C34.7283 46.0127 34.7962 43.6338 34.6222 41.2585C34.5056 39.6256 34.5195 37.9805 34.0341 36.3917C33.9487 36.0838 33.8179 35.7908 33.6461 35.5225C32.8529 34.2996 31.6658 33.392 30.2862 32.9536C29.5485 32.7178 28.7898 32.5418 28.1008 32.1688C27.3387 31.7589 26.9542 31.1219 27.0412 30.397C27.1334 29.6351 27.4675 28.9894 28.1339 28.6146C29.5554 27.7964 31.057 27.5782 32.5951 28.224C33.914 28.7782 34.9597 29.6985 35.9602 30.7419C37.7489 32.6105 38.2413 34.9277 38.5702 37.2996C38.638 37.0761 38.7442 36.7875 38.8155 36.4937C39.2052 35.0403 39.5306 33.5676 40.0822 32.1618C40.6338 30.7559 41.3002 29.3765 42.4277 28.3172C43.0105 27.7735 43.6735 27.346 44.4826 27.3214C46.0485 27.2738 47.317 27.946 48.2548 29.1829C49.2096 30.4374 49.9722 31.8301 50.5167 33.3143C51.3867 35.6843 51.8339 38.1635 52.3768 40.618C52.422 40.8239 52.3924 41.0526 52.5508 41.2673C52.8084 39.4803 53.1999 37.7157 53.7218 35.9887C54.4177 33.7014 55.2599 31.4756 56.6258 29.4944C57.4331 28.326 58.3483 27.2703 59.6568 26.6369C60.7634 26.109 61.7639 26.2129 62.6808 27.0504C63.3351 27.6681 63.8821 28.3925 64.299 29.1935C65.0733 30.6204 65.5448 32.1635 65.9189 33.7365C67.0116 38.3359 67.3109 43.0285 67.4448 47.7353C67.5307 50.6948 67.5034 53.6537 67.3631 56.612C67.3251 56.8931 67.3286 57.1783 67.3735 57.4583C67.6049 57.029 67.9964 56.8689 68.1269 56.473ZM68.9812 68.4958C68.9325 68.4694 68.8751 68.4201 68.8855 68.5362C68.6298 68.5925 68.4819 68.8107 68.2783 68.9462C68.2191 68.9849 68.1043 69.0201 68.1843 69.1222C68.2644 69.2242 68.3392 69.1609 68.4001 69.1081C68.6004 68.9516 68.7638 68.7521 68.8786 68.5239L68.9812 68.4958ZM68.2852 75.6975L68.1948 75.5778C68.1583 75.4796 68.0903 75.3965 68.0016 75.342C67.9922 75.2904 67.9718 75.2414 67.9418 75.1986C67.9117 75.1557 67.8728 75.12 67.8276 75.094C67.6536 74.9374 67.6362 74.6488 67.3056 74.5432L67.8276 75.2347C67.8276 75.3192 67.8885 75.3632 67.9477 75.4107L68.1408 75.6482L68.233 75.7626L68.3635 75.9192L68.4331 75.9913C68.4577 76.0658 68.4989 76.1336 68.5535 76.1894C68.6081 76.2453 68.6747 76.2876 68.7481 76.3133L68.7724 76.3274L68.7446 76.3168C68.7446 76.1303 68.588 76.0529 68.4766 75.9456L68.414 75.8681L68.2852 75.6975ZM51.0979 37.8556L51.0857 37.7905L51.0579 37.8063L51.1014 37.8521C51.0808 38.251 51.1529 38.6494 51.3119 39.0151C51.3376 38.6166 51.264 38.2179 51.0979 37.8556ZM39.4593 42.4303C39.2897 42.9813 39.2024 43.5547 39.2 44.1318C39.3201 43.5687 39.4697 43.011 39.4558 42.4268C39.4723 42.4153 39.486 42.4004 39.4962 42.383C39.5064 42.3656 39.5127 42.3462 39.5147 42.3261C39.5166 42.306 39.5143 42.2857 39.5077 42.2666C39.5012 42.2476 39.4906 42.2302 39.4767 42.2156L39.4593 42.4303ZM66.7071 54.5023C66.5696 55.8642 66.6392 57.2472 66.293 58.5932C66.4027 58.5182 66.492 58.4166 66.5528 58.2976C66.6136 58.1786 66.6439 58.0462 66.641 57.9123C66.6827 56.7651 66.7523 55.6249 66.815 54.4724C66.9107 54.1856 66.8393 53.8988 66.8237 53.612C66.7115 53.8911 66.6714 54.1945 66.7071 54.4935V54.5023ZM50.4611 72.1081C50.462 71.8519 50.4256 71.597 50.3532 71.3515C50.3427 71.2213 50.3323 71.0911 50.3201 70.9609C50.2001 69.5884 50.2558 68.2107 50.2053 66.8365C50.1061 64.0741 50.1949 61.3064 49.8956 58.551C49.9203 58.2617 49.8847 57.9704 49.7912 57.6959C49.7324 57.9802 49.7265 58.2732 49.7738 58.5598C49.8225 60.0642 49.8991 61.5686 49.9008 63.0747C49.9008 63.9158 49.8121 64.755 49.8712 65.5978L50.2679 71.3726C50.2509 71.6154 50.2781 71.8593 50.348 72.0922C50.3897 72.3614 50.4263 72.6306 50.475 72.8981C50.6107 73.6564 50.7882 74.4025 51.2006 75.0658C51.295 75.2428 51.4493 75.3796 51.6351 75.4513C51.821 75.523 52.0261 75.5248 52.2132 75.4564C52.0334 75.3587 51.8691 75.2342 51.726 75.0869C50.9013 74.2687 50.7047 73.1778 50.4611 72.1081ZM66.5488 51.761C66.6097 49.7041 66.6967 47.649 66.5766 45.5904C66.5018 46.1957 66.4635 46.8045 66.427 47.4133C66.3452 48.8596 66.5435 50.3077 66.427 51.7557C66.3866 52.1405 66.3942 52.5289 66.4496 52.9117C66.5568 52.5384 66.5905 52.1475 66.5488 51.761ZM63.3333 29.1213L63.4255 29.1988C63.4551 29.1407 63.4481 29.0967 63.3838 29.0703C63.0458 28.4417 62.5431 27.9194 61.9309 27.5606C61.1862 27.1102 59.9334 27.3389 59.3697 28.0128C59.4067 28.0155 59.444 28.0155 59.481 28.0128C59.5397 28.0042 59.5979 27.9919 59.655 27.9759C60.331 27.8009 61.0441 27.8446 61.6943 28.1008C62.3085 28.3243 62.8026 28.7483 63.3333 29.1213ZM57.8768 78.5989C59.916 76.945 61.95 75.2875 63.9145 73.5403C63.898 73.5321 63.8798 73.5278 63.8614 73.5278C63.843 73.5278 63.8248 73.5321 63.8083 73.5403C62.8374 74.2687 61.8648 74.9919 60.9026 75.7309C59.8012 76.5807 58.712 77.4464 57.8315 78.5461L57.7498 78.6429C57.8107 78.6781 57.8611 78.6711 57.8768 78.5989ZM67.9459 67.6899C67.9459 67.8659 67.9459 68.0418 67.9459 68.2178C67.9459 68.2899 67.8955 68.4184 67.9982 68.4236C68.1008 68.4289 68.2087 68.487 68.287 68.3708C68.325 68.3251 68.3663 68.2821 68.4105 68.2424C69.3605 67.2571 70.3245 66.277 71.2623 65.2829C72.1549 64.338 73.1241 63.4671 73.961 62.4677C74.8901 61.3627 75.701 60.1715 76.5883 59.0313C76.9122 58.6411 77.1547 58.1887 77.3013 57.7013C77.4478 57.2138 77.4953 56.7015 77.4409 56.195C77.3887 55.6671 77.1504 55.3258 76.6684 55.1674C75.7723 54.8754 74.911 54.8824 74.1489 55.5369C73.9547 55.6909 73.7694 55.856 73.5939 56.0314C71.5755 58.2413 69.9208 60.68 68.9482 63.5551C68.4975 64.9152 67.9303 66.226 67.9529 67.6952L67.9459 67.6899ZM73.5138 54.8455C73.4825 54.7399 73.4025 54.7504 73.3242 54.7768C73.1061 54.8673 72.9049 54.9946 72.7291 55.1534C71.0953 56.4818 69.8356 58.1269 68.7951 59.9533C68.7286 60.0795 68.6705 60.21 68.6211 60.3439C68.604 60.3756 68.5988 60.4125 68.6064 60.4477C68.6141 60.483 68.6341 60.5142 68.6628 60.5357C68.7446 60.5955 68.7916 60.5129 68.8368 60.4636C68.9421 60.3362 69.0387 60.2015 69.1256 60.0607C69.9331 58.6502 70.9388 57.3658 72.1114 56.2478C72.449 55.9346 72.8074 55.6372 73.1397 55.3258C73.299 55.1942 73.4289 55.0298 73.5208 54.8437L73.5138 54.8455ZM28.3079 31.5776C28.0991 30.6011 28.2852 29.9518 28.9882 29.4205C29.6137 28.9319 30.3543 28.6166 31.137 28.5055C31.2327 28.4932 31.3598 28.5407 31.3754 28.3683C30.5158 28.3176 29.6571 28.4839 28.8768 28.8521C28.4329 29.0525 28.0753 29.4079 27.8694 29.8533C27.5492 30.5289 27.7058 31.1905 28.3079 31.5776ZM67.8798 59.2706C67.1647 59.3305 66.5192 60.6114 66.8654 61.1885C67.1323 60.5132 67.4725 59.87 67.8798 59.2706ZM35.7636 72.9122C35.6105 71.443 35.4869 69.9667 35.4608 68.6682C35.3942 70.09 35.4959 71.5148 35.7636 72.9122ZM66.1225 42.7206C66.0651 43.7869 66.1955 45.1241 66.2234 45.8754C66.3556 45.1206 66.4235 43.7834 66.1225 42.7206ZM65.2177 70.0336C65.3082 69.2189 65.6962 68.45 65.5465 67.5826C65.1098 68.7122 65.0037 69.4494 65.2177 70.0336ZM38.732 47.964C38.5411 49.4957 38.4377 51.0372 38.4223 52.581C38.6015 51.0484 38.678 49.5106 38.732 47.964ZM65.517 34.8662C65.5698 35.9547 65.6971 37.0382 65.898 38.1089C65.7954 37.018 65.7501 35.9342 65.517 34.8662ZM37.079 72.6535C37.0552 72.7764 37.025 72.898 36.9885 73.0177C36.8633 73.3696 36.9885 73.7726 36.7554 74.0734C36.5814 74.2969 36.7223 74.3532 36.8789 74.4641C37.0739 73.8822 37.1422 73.2646 37.079 72.6535ZM78.5562 55.9522C78.9356 55.273 78.8486 54.8279 78.2204 54.5199C78.6137 54.9651 78.5789 55.456 78.5562 55.9522ZM53.1632 69.884C53.0049 70.5034 52.8814 71.128 53.0414 71.8688C53.0814 71.1403 53.1215 70.5122 53.1632 69.884ZM66.2999 40.3611L66.4235 40.3488C66.3614 39.4989 66.2275 38.656 66.0233 37.8292L66.2999 40.3611ZM51.82 41.672C51.8064 41.0333 51.7128 40.3989 51.5416 39.784L51.4563 39.8016C51.5781 40.4268 51.6993 41.0514 51.82 41.6755V41.672ZM38.8955 38.8039L38.7964 38.7952L38.5667 40.1113L38.6554 40.1289C38.7215 39.6855 38.8816 39.2597 38.8955 38.8039ZM51.5572 54.2419C51.6495 53.5874 51.6042 52.8343 51.472 52.5106C51.4233 53.0895 51.519 53.6631 51.552 54.2419H51.5572ZM64.4886 56.7053C64.3321 57.6202 64.3321 57.6378 64.4886 57.8947V56.7053ZM65.0106 45.6203L65.0855 45.6361C65.0855 45.3335 65.0855 45.0309 65.0855 44.7282C65.0855 44.6614 65.0855 44.5664 64.9898 44.5787C64.8941 44.591 64.9115 44.6878 64.9184 44.7546C64.9428 45.0379 64.9776 45.3282 65.0106 45.6168V45.6203ZM40.2875 34.2169C40.0726 34.493 39.9572 34.835 39.9604 35.1864C40.1281 34.8866 40.239 34.5578 40.2875 34.2169ZM67.5527 65.3902C67.598 65.1685 67.6432 64.9451 67.6989 64.6776C67.4727 64.8993 67.5823 65.158 67.5527 65.3902ZM40.4093 33.8509C40.331 33.9565 40.2562 34.0269 40.3362 34.1412C40.3821 34.1109 40.4151 34.0642 40.4286 34.0104C40.4421 33.9567 40.4352 33.8998 40.4093 33.8509ZM39.9291 35.2814L39.9204 35.255C39.9204 35.255 39.9065 35.2691 39.9065 35.2779C39.9065 35.2867 39.9065 35.2955 39.9065 35.3043L39.9291 35.2814Z" fill="#020202"/>
<path d="M68.1269 56.473C67.9964 56.8689 67.6049 57.029 67.3683 57.4302C67.3234 57.1502 67.3198 56.8649 67.3578 56.5839C67.4982 53.6255 67.5255 50.6666 67.4396 47.7071C67.3039 43.0004 67.0064 38.3078 65.9137 33.7084C65.5396 32.1354 65.0681 30.5923 64.2938 29.1653C63.8768 28.3644 63.3298 27.6399 62.6756 27.0222C61.7587 26.1847 60.7617 26.0756 59.6516 26.6087C58.3431 27.2422 57.4279 28.2979 56.6205 29.4662C55.2512 31.4474 54.4073 33.675 53.7165 35.9623C53.1947 37.6893 52.8032 39.4539 52.5455 41.2409C52.3924 41.0262 52.422 40.7975 52.3715 40.5916C51.8287 38.1371 51.3798 35.665 50.5115 33.2879C49.967 31.8037 49.2044 30.411 48.2496 29.1565C47.3117 27.9249 46.045 27.2475 44.4773 27.295C43.6683 27.3196 43.0053 27.7472 42.4224 28.2908C41.288 29.3466 40.6355 30.7137 40.077 32.1354C39.5184 33.5571 39.207 35.014 38.8103 36.4673C38.7302 36.7612 38.6363 37.0497 38.5649 37.2732C38.2361 34.9013 37.7437 32.5841 35.955 30.7155C34.9545 29.6721 33.9088 28.7518 32.5899 28.1976C31.0518 27.5518 29.5502 27.77 28.1286 28.5882C27.4622 28.9718 27.1282 29.6087 27.0359 30.3706C26.949 31.0955 27.3335 31.7325 28.0956 32.1424C28.7916 32.5154 29.5432 32.6914 30.281 32.9272C31.6606 33.3656 32.8477 34.2732 33.6408 35.4961C33.8127 35.7644 33.9435 36.0574 34.0289 36.3653C34.5143 37.9488 34.5004 39.5993 34.617 41.2321C34.791 43.6074 34.7231 45.9828 34.617 48.3581C34.5074 50.8302 34.5247 53.2988 34.5943 55.7674C34.7248 60.3316 34.6987 64.8958 34.7353 69.46C34.7475 70.9697 34.7962 72.4776 34.8327 73.9872C34.8424 74.5368 35.0178 75.0703 35.3356 75.5162C36.2056 76.7479 37.728 76.6423 38.4223 75.3033C38.8296 74.5098 39.046 73.6303 39.0539 72.7362C39.12 69.1591 39.1844 65.5838 39.2661 62.0032C39.3131 59.9146 39.3514 57.8226 39.468 55.7358C39.642 52.7727 39.7533 49.8027 40.0404 46.8485C40.3039 44.1528 40.7257 41.4754 41.3036 38.8303C41.6412 37.2785 41.8483 35.6949 42.285 34.1641C42.5262 33.2197 42.8766 32.3072 43.329 31.4457C43.4817 31.1646 43.6662 30.9024 43.8788 30.6644C44.4582 30.0328 45.1646 30.0345 45.744 30.6644C46.235 31.2414 46.6183 31.9037 46.875 32.6193C47.611 34.428 48.0338 36.3248 48.4218 38.2339C48.789 40.0532 48.8916 41.8989 49.043 43.7412C49.1805 45.4215 49.391 47.0965 49.4571 48.7822C49.5963 52.0021 49.6485 55.222 49.4258 58.4384C49.3214 59.934 49.3231 61.4296 49.2431 62.9251C49.0691 66.2137 49.4067 69.4723 49.7651 72.7309C49.858 73.523 50.0747 74.295 50.4071 75.0183C50.5066 75.2792 50.6578 75.5168 50.8514 75.7165C51.045 75.9163 51.2769 76.0738 51.5329 76.1796C52.2289 76.4506 52.7944 76.2535 53.3424 75.7696C54.3029 74.918 54.6318 73.8465 54.6248 72.5919C54.6109 69.7046 54.6248 66.8172 54.6526 63.9281C54.6747 61.2301 54.7356 58.5322 54.8353 55.8343C54.8928 54.2208 54.8614 52.6038 54.938 50.9886C55.018 49.2555 55.1572 47.5276 55.3817 45.8068C55.5122 44.818 55.4704 43.808 55.6288 42.8156C56.1247 39.7347 56.5074 36.6274 57.5914 33.6785C57.9586 32.6808 58.2874 31.655 59.0756 30.8791C59.1902 30.7596 59.316 30.6517 59.4515 30.5571C59.9421 30.2333 60.3214 30.3072 60.7321 30.7331C61.2697 31.2908 61.5168 31.9999 61.7412 32.7072C62.0892 33.8192 62.2058 34.984 62.2928 36.14C62.4529 38.2215 62.7017 40.3013 62.7191 42.3916C62.7417 44.9587 62.9035 47.5224 62.8148 50.0912C62.74 52.2502 62.6217 54.4073 62.432 56.5627C62.3381 57.6484 62.3328 58.7463 62.3224 59.839C62.3102 61.1216 62.2232 62.4026 62.2476 63.687C62.2998 66.3175 62.4947 68.9286 63.2446 71.4676C63.2811 71.5925 63.3264 71.7157 63.3681 71.8389C63.6552 72.6553 63.6587 72.6588 62.9644 73.2007C61.4785 74.3638 59.9386 75.4582 58.5797 76.7813C57.9098 77.3976 57.3376 78.1145 56.8833 78.9068C56.749 79.13 56.6608 79.3784 56.624 79.637C56.5649 80.2177 57.0433 80.5555 57.588 80.3567C60.1474 79.4224 62.3642 77.8934 64.5269 76.2728C64.7253 76.125 64.9236 75.8593 65.1185 75.8629C65.3134 75.8664 65.4334 76.2148 65.5813 76.403C67.2964 78.6492 69.4991 80.4666 72.0192 81.715C72.5574 81.9856 73.1412 82.1509 73.74 82.2024C74.5039 82.2728 75.1999 81.6746 75.4522 80.7666C75.5705 80.3373 75.5165 79.9661 75.1651 79.674C73.6269 78.3983 72.4037 76.7989 70.9265 75.4511C70.1592 74.7561 69.5989 73.8869 69.0804 72.9878C68.9569 72.7749 68.9986 72.6711 69.1744 72.5251C71.6677 70.4242 74.0706 68.2248 76.2247 65.7632C78.0064 63.7275 79.6368 61.5879 80.7608 59.0964C81.3036 57.8929 81.7526 56.656 81.8987 55.3311C82.1649 52.91 81.0722 51.71 78.779 51.2472C77.6236 51.0132 76.4909 51.2789 75.3686 51.5604C72.6195 52.2484 70.5176 53.927 68.6663 55.9997C68.5845 56.0912 68.5358 56.2337 68.3827 56.2425C68.6385 55.7147 69.0456 55.2994 69.4162 54.8578C70.6203 53.4273 71.9531 52.1376 73.6113 51.2578C75.1772 50.4238 76.8615 49.9153 78.6415 49.9188C81.4446 49.9188 82.8418 52.2062 83.0193 54.3581C83.1932 56.4185 82.4973 58.1463 81.4655 59.8249C79.7436 62.5648 77.7542 65.1231 75.527 67.4612C73.787 69.3263 72.014 71.1685 70.1209 72.8805C69.5537 73.3908 69.5519 73.3925 70.0548 73.9731C71.1127 75.196 72.3863 76.1813 73.5991 77.23C74.4969 78.006 75.3286 78.84 75.9306 79.8816C76.1443 80.2383 76.2961 80.6292 76.3796 81.0376C76.5327 81.8382 76.2386 82.3572 75.487 82.6722C75.0516 82.8567 74.5823 82.9447 74.1105 82.9305C73.6387 82.9162 73.1754 82.7999 72.7517 82.5895C70.5594 81.5866 68.5619 80.3021 66.8881 78.525C66.3367 77.9784 65.8206 77.3966 65.343 76.7831C65.1933 76.579 65.0994 76.586 64.908 76.7373C63.5105 77.8632 62.0269 78.8752 60.4711 79.7637C59.5646 80.2705 58.6319 80.7139 57.5862 80.8617C57.1899 80.9187 56.7865 80.8984 56.3978 80.8018C55.7993 80.6523 55.5452 80.1561 55.761 79.5702C56.0115 78.8857 56.4813 78.3508 56.9685 77.8335C57.9551 76.7901 59.1069 75.9403 60.2014 75.0183C61.1062 74.2617 62.0022 73.4928 62.9105 72.7397C63.0549 72.6201 63.0323 72.5198 62.9818 72.372C62.3235 70.5252 61.9036 68.6002 61.7325 66.6448C61.6247 65.1773 61.5672 63.7064 61.5847 62.2301C61.6142 59.6876 61.5847 57.1434 61.5847 54.5991C61.5847 52.5769 61.6142 50.5563 61.6734 48.5376C61.7151 47.0643 61.7557 45.591 61.7952 44.1177C61.8474 42.1928 61.9239 40.2661 61.8213 38.3412C61.7134 36.3054 61.4037 34.2943 60.706 32.3747C60.6085 32.1072 60.4641 31.8591 60.358 31.5917C60.2518 31.3243 60.1248 31.3471 59.9212 31.4404C59.6061 31.6035 59.3533 31.8677 59.2026 32.1917C58.3883 33.6644 58.0038 35.2761 57.6593 36.909C57.0172 39.96 56.6553 43.0461 56.3874 46.1517C56.1908 48.4391 55.9298 50.7141 55.7732 53.0032C55.6183 55.2572 55.5748 57.5146 55.5313 59.7721C55.4617 63.3949 55.4269 67.0195 55.0685 70.6318C54.931 72.0025 54.931 73.3855 54.7205 74.7509C54.6735 75.1159 54.5727 75.4718 54.4212 75.8066C54.209 76.2464 53.8749 76.4769 53.3894 76.623C52.6778 76.8394 52.0392 76.8394 51.3902 76.4717C50.7412 76.1039 50.3462 75.4582 50.0226 74.7948C49.511 73.7603 49.3405 72.6306 49.1352 71.5063C48.6341 68.765 48.4688 65.9885 48.2652 63.2155C48.0738 60.5252 47.9033 57.8313 47.8946 55.134C47.8946 52.8027 47.9225 50.4731 47.959 48.1435C48.0005 45.98 47.9209 43.8158 47.7206 41.6614C47.4734 39.2734 47.0198 36.912 46.3652 34.604C46.0985 33.6663 45.7229 32.7638 45.2464 31.9154C45.2023 31.8068 45.1281 31.7133 45.0327 31.6462C44.9373 31.5791 44.8249 31.5412 44.7088 31.5372C44.6239 31.5284 44.5383 31.5438 44.4617 31.5818C44.3852 31.6197 44.3206 31.6786 44.2755 31.7518C43.7143 32.4898 43.3247 33.3462 43.1358 34.2574C42.5408 36.8966 41.8796 39.5254 41.4185 42.1928C41.1436 43.7763 41.0548 45.3793 40.9452 46.9804C40.6807 50.8918 40.3971 54.8032 40.1674 58.7164C40.0439 60.8278 39.8838 62.9392 39.7881 65.0506C39.6907 67.236 39.6542 69.423 39.4506 71.5996C39.3759 72.6554 39.2171 73.7033 38.9756 74.7333C38.9093 75.0481 38.7917 75.3496 38.6276 75.6253C38.3718 76.0195 38.0882 76.3714 37.5732 76.4347C37.3766 76.465 37.1855 76.5242 37.0059 76.6107C36.0751 77.0224 34.918 76.2887 34.6518 75.3192C34.3141 74.1092 34.1036 72.8665 34.0236 71.6119C33.8496 68.714 33.9123 65.8143 34.0062 62.9146C34.041 61.8466 34.0271 60.775 34.041 59.7052C34.0828 56.8056 34.2342 53.9076 34.1733 51.0062C34.1106 47.9411 34.1576 44.8708 33.8044 41.8198C33.6304 40.3207 33.4564 38.8163 33.1415 37.3436C32.9379 36.3881 32.3481 35.584 31.5755 34.9453C30.589 34.1307 29.4388 33.6134 28.2992 33.0767C27.7247 32.8309 27.1953 32.4888 26.7332 32.065C26.4634 31.8069 26.2572 31.4883 26.1312 31.135C26.0053 30.7816 25.963 30.4033 26.0079 30.0305C26.0527 29.6576 26.1834 29.3006 26.3894 28.9881C26.5955 28.6755 26.8712 28.4163 27.1943 28.231C28.0644 27.7252 29.0592 27.481 30.0617 27.5272C31.6799 27.5483 33.218 27.895 34.5978 28.7712C36.6005 30.0416 37.7593 31.9383 38.3909 34.1975C38.4658 34.4703 38.5284 34.7483 38.598 35.0228C38.598 35.0228 38.6189 35.0333 38.6328 35.0403C38.9095 33.8808 39.0643 32.6932 39.5028 31.5723C40.0718 30.1243 40.8286 28.7923 42.0483 27.8263C43.8927 26.3624 45.8293 26.1653 47.7276 27.6662C48.5116 28.2805 49.1629 29.0505 49.6415 29.929C50.2199 31.044 50.707 32.205 51.0979 33.4005C51.6616 35.0438 52.119 36.7224 52.4672 38.4257C52.6134 38.2761 52.6064 38.0878 52.6534 37.9242C53.4434 35.1442 54.3655 32.4169 55.7975 29.8938C56.3132 29.0006 56.904 28.154 57.5636 27.3636C59.0826 25.5108 60.9722 25.4281 62.8844 26.5964C64.1563 27.3724 64.8906 28.5917 65.4683 29.9395C66.1399 31.502 66.42 33.1665 66.7732 34.8134C67.3839 37.6567 67.6345 40.5441 67.8833 43.435C68.16 46.6602 68.1774 49.8942 68.153 53.1282C68.153 53.9833 68.1095 54.8384 68.0939 55.6935C68.0644 55.9535 68.0756 56.2165 68.1269 56.473Z" fill="#F8F2EA"/>
<path d="M67.953 67.6952C67.9374 66.2313 68.5046 64.9152 68.9587 63.5691C69.9314 60.6941 71.5861 58.2554 73.6044 56.0454C73.78 55.8701 73.9653 55.705 74.1595 55.551C74.9216 54.8965 75.7829 54.8894 76.6789 55.1815C77.1609 55.3399 77.3993 55.6742 77.4515 56.2091C77.5058 56.7156 77.4583 57.2279 77.3118 57.7153C77.1653 58.2028 76.9228 58.6552 76.5989 59.0454C75.7185 60.1856 74.9007 61.3768 73.9716 62.4817C73.1346 63.4776 72.1655 64.3486 71.2729 65.297C70.3298 66.2911 69.3711 67.2711 68.4211 68.2565C68.3769 68.2962 68.3356 68.3391 68.2975 68.3849C68.2192 68.501 68.0974 68.4412 68.0087 68.4377C67.92 68.4342 67.96 68.304 67.9565 68.2318C67.9391 68.0524 67.953 67.8729 67.953 67.6952ZM68.7256 66.8154C70.0288 65.5838 71.3634 64.3838 72.5935 63.0765C73.5171 62.0962 74.3811 61.0603 75.1808 59.9744C75.7289 59.2284 76.2074 58.4366 76.277 57.4671C76.2991 57.2773 76.2686 57.0851 76.1891 56.9117C76.1095 56.7384 75.9839 56.5908 75.8264 56.4853C75.5079 56.2619 75.2191 56.4413 74.9564 56.6173C74.7598 56.7457 74.5718 56.89 74.3857 57.0343C72.8754 58.2149 71.8679 59.8249 70.9057 61.4331C69.9261 63.0782 69.3398 64.9292 68.6438 66.7116C68.6055 66.7662 68.5516 66.8348 68.6125 66.8876C68.6734 66.9404 68.6925 66.8629 68.7186 66.8172L68.7256 66.8154Z" fill="#F8F2EA"/>
<path d="M50.2681 71.3726L49.8714 65.5979C49.8122 64.755 49.9027 63.9158 49.9009 63.0747C49.9009 61.5686 49.8226 60.0642 49.7739 58.5598L49.8957 58.551C50.195 61.3064 50.1063 64.0741 50.2054 66.8366C50.2559 68.2107 50.2054 69.5884 50.3203 70.9609C50.3325 71.0911 50.3429 71.2213 50.3533 71.3515L50.2681 71.3726Z" fill="#F8F2EA"/>
<path d="M73.521 54.8437C73.4304 55.0287 73.3024 55.1924 73.1452 55.324C72.8059 55.6355 72.4492 55.9328 72.1168 56.246C70.9436 57.3668 69.9378 58.6541 69.1311 60.0677C69.0441 60.2086 68.9476 60.3432 68.8422 60.4706C68.8039 60.5199 68.757 60.6026 68.6682 60.5428C68.6396 60.5213 68.6195 60.49 68.6119 60.4548C68.6042 60.4195 68.6094 60.3827 68.6265 60.351C68.6759 60.217 68.734 60.0865 68.8005 59.9604C69.8444 58.134 71.1007 56.4888 72.7345 55.1604C72.9103 55.0016 73.1115 54.8743 73.3296 54.7839C73.4096 54.7487 73.4897 54.7381 73.521 54.8437Z" fill="#F8F2EA"/>
<path d="M28.308 31.5776C27.7059 31.1905 27.5493 30.5219 27.8695 29.8533C28.0753 29.4079 28.433 29.0525 28.8769 28.8521C29.6572 28.4839 30.5159 28.3176 31.3755 28.3683C31.3598 28.5442 31.2328 28.4932 31.1371 28.5055C30.3544 28.6166 29.6138 28.9319 28.9883 29.4205C28.2819 29.9518 28.1079 30.6011 28.308 31.5776Z" fill="#F8F2EA"/>
<path d="M57.8315 78.5426C58.712 77.4447 59.8012 76.579 60.9026 75.7274C61.8648 74.9884 62.8374 74.2652 63.8083 73.5368C63.8248 73.5286 63.843 73.5243 63.8614 73.5243C63.8798 73.5243 63.8979 73.5286 63.9145 73.5368C61.95 75.284 59.9125 76.9415 57.8768 78.5954C57.8611 78.5813 57.8472 78.5655 57.8315 78.5426Z" fill="#F8F2EA"/>
<path d="M63.3333 29.1213C62.8026 28.7518 62.3085 28.3243 61.6908 28.0991C61.0407 27.8429 60.3275 27.7992 59.6516 27.9741C59.5944 27.9901 59.5363 28.0025 59.4776 28.0111C59.4405 28.0138 59.4033 28.0138 59.3662 28.0111C59.93 27.3372 61.1827 27.1085 61.9274 27.5589C62.5396 27.9176 63.0423 28.44 63.3803 29.0686L63.3333 29.1213Z" fill="#F8F2EA"/>
<path d="M66.42 51.7557C66.5435 50.3077 66.3452 48.8596 66.42 47.4133C66.4565 46.8045 66.4948 46.1957 66.5696 45.5904C66.6897 47.649 66.6027 49.7041 66.5418 51.761C66.5052 51.798 66.4617 51.7821 66.42 51.7557Z" fill="#F8F2EA"/>
<path d="M50.4612 72.1081C50.7048 73.1778 50.9015 74.2687 51.7262 75.0869C51.8693 75.2342 52.0335 75.3587 52.2134 75.4564C52.0263 75.5248 51.8212 75.523 51.6353 75.4513C51.4494 75.3796 51.2952 75.2428 51.2007 75.0658C50.7884 74.4025 50.6109 73.6582 50.4752 72.8981C50.4264 72.6306 50.3899 72.3614 50.3481 72.0922L50.4612 72.1081Z" fill="#F8F2EA"/>
<path d="M66.803 54.4636C66.7438 55.6108 66.6742 56.751 66.629 57.9035C66.6319 58.0374 66.6016 58.1698 66.5408 58.2888C66.48 58.4078 66.3907 58.5094 66.281 58.5844C66.629 57.2384 66.5577 55.8554 66.6951 54.4936L66.803 54.4636Z" fill="#F8F2EA"/>
<path d="M67.88 59.2706C67.4726 59.87 67.1324 60.5132 66.8656 61.1885C66.5193 60.6114 67.1648 59.3305 67.88 59.2706Z" fill="#F8F2EA"/>
<path d="M35.7637 72.9122C35.496 71.5148 35.3943 70.09 35.461 68.6682C35.4818 69.965 35.6054 71.4412 35.7637 72.9122Z" fill="#F8F2EA"/>
<path d="M66.1226 42.7206C66.4236 43.7763 66.3557 45.1206 66.2235 45.8754C66.1957 45.1241 66.0652 43.7869 66.1226 42.7206Z" fill="#F8F2EA"/>
<path d="M65.2178 70.0336C65.0037 69.4494 65.1099 68.7122 65.5466 67.5826C65.691 68.4483 65.3082 69.2172 65.2178 70.0336Z" fill="#F8F2EA"/>
<path d="M38.7321 47.964C38.6781 49.5071 38.6016 51.0484 38.4224 52.581C38.4378 51.0372 38.5412 49.4957 38.7321 47.964Z" fill="#555555"/>
<path d="M65.5171 34.8662C65.7555 35.9342 65.8007 37.0251 65.8981 38.1089C65.6972 37.0382 65.5699 35.9547 65.5171 34.8662Z" fill="#555555"/>
<path d="M37.0791 72.6535C37.1433 73.2669 37.075 73.887 36.879 74.4711C36.7224 74.3602 36.5885 74.3039 36.7555 74.0805C36.9834 73.7726 36.8634 73.3644 36.9887 73.0248C37.0254 72.9027 37.0556 72.7788 37.0791 72.6535Z" fill="#F8F2EA"/>
<path d="M78.5563 55.9522C78.5789 55.456 78.6137 54.9721 78.2205 54.5199C78.8486 54.8279 78.9356 55.273 78.5563 55.9522Z" fill="#F8F2EA"/>
<path d="M53.1632 69.884C53.1249 70.5122 53.0849 71.1403 53.0414 71.8688C52.8779 71.128 53.0014 70.5034 53.1632 69.884Z" fill="#F8F2EA"/>
<path d="M66.3001 40.3611L66.0234 37.8292C66.2276 38.656 66.3615 39.4989 66.4236 40.3488L66.3001 40.3611Z" fill="#555555"/>
<path d="M51.8202 41.6755C51.7042 41.0503 51.583 40.4268 51.4565 39.8051L51.5418 39.7875C51.713 40.4024 51.8066 41.0368 51.8202 41.6755Z" fill="#F8F2EA"/>
<path d="M38.8957 38.8039C38.887 39.2597 38.7218 39.6837 38.6556 40.1289L38.5669 40.1113L38.7966 38.7952L38.8957 38.8039Z" fill="#F8F2EA"/>
<path d="M51.5522 54.2419C51.5191 53.6631 51.4269 53.0895 51.4687 52.5106C51.5974 52.829 51.6444 53.5874 51.5522 54.2419Z" fill="#555555"/>
<path d="M68.8805 68.5327C68.7657 68.7609 68.6023 68.9604 68.402 69.1169C68.3411 69.1697 68.2506 69.2172 68.1862 69.131C68.1218 69.0447 68.221 68.9884 68.2802 68.955C68.4838 68.8195 68.6282 68.6031 68.8874 68.545L68.8805 68.5327Z" fill="#F8F2EA"/>
<path d="M39.456 42.418C39.4699 43.0022 39.3203 43.5599 39.2002 44.123C39.2025 43.5459 39.2899 42.9725 39.4595 42.4215L39.456 42.418Z" fill="#555555"/>
<path d="M66.4202 51.7557C66.4619 51.7821 66.5054 51.805 66.5489 51.7557C66.5884 52.1426 66.5524 52.5336 66.4428 52.9065C66.3879 52.5253 66.3803 52.1388 66.4202 51.7557Z" fill="#555555"/>
<path d="M64.4834 56.6982V57.8877C64.3268 57.6308 64.3268 57.6132 64.4834 56.6982Z" fill="#555555"/>
<path d="M51.0979 37.8556C51.264 38.2179 51.3376 38.6166 51.3119 39.0151C51.1529 38.6494 51.0808 38.251 51.1014 37.8521L51.0979 37.8556Z" fill="#555555"/>
<path d="M65.0106 45.6168C64.9776 45.3282 64.9428 45.0379 64.9167 44.7476C64.9167 44.6843 64.8993 44.5875 64.988 44.5716C65.0767 44.5558 65.0837 44.6543 65.0837 44.7212C65.0837 45.0238 65.0837 45.3265 65.0837 45.6291L65.0106 45.6168Z" fill="#555555"/>
<path d="M40.2876 34.2169C40.2391 34.5578 40.1282 34.8866 39.9605 35.1864C39.9573 34.835 40.0727 34.493 40.2876 34.2169Z" fill="#555555"/>
<path d="M66.8029 54.4636L66.7072 54.4936C66.6661 54.1926 66.702 53.8861 66.8116 53.6032C66.8272 53.89 66.8986 54.1768 66.8029 54.4636Z" fill="#555555"/>
<path d="M67.8208 75.2347L67.2988 74.5432C67.6364 74.6488 67.6607 74.9374 67.8208 75.094V75.2347Z" fill="#F8F2EA"/>
<path d="M67.5529 65.3902C67.5824 65.158 67.4728 64.8993 67.699 64.6776C67.6433 64.9451 67.6051 65.1703 67.5529 65.3902Z" fill="#F8F2EA"/>
<path d="M49.8958 58.551L49.774 58.5598C49.7267 58.2732 49.7326 57.9803 49.7914 57.6959C49.8849 57.9704 49.9205 58.2617 49.8958 58.551Z" fill="#555555"/>
<path d="M50.4612 72.1081L50.3481 72.0922C50.2782 71.8593 50.2511 71.6154 50.2681 71.3726L50.3534 71.3515C50.4258 71.597 50.4621 71.8519 50.4612 72.1081Z" fill="#555555"/>
<path d="M68.475 75.942C68.5863 76.0494 68.7394 76.118 68.7429 76.3133C68.6695 76.2876 68.6029 76.2453 68.5483 76.1894C68.4937 76.1336 68.4525 76.0658 68.428 75.9913L68.475 75.942Z" fill="#555555"/>
<path d="M68.127 75.6447L67.9338 75.4071L67.9965 75.3403C68.0849 75.3958 68.1528 75.4793 68.1896 75.5778L68.127 75.6447Z" fill="#555555"/>
<path d="M40.4094 33.8509C40.4353 33.8998 40.4422 33.9567 40.4287 34.0104C40.4152 34.0642 40.3822 34.1109 40.3363 34.1412C40.2563 34.0269 40.3311 33.96 40.4094 33.8509Z" fill="#555555"/>
<path d="M67.8208 75.2347L67.833 75.0939C67.8781 75.12 67.917 75.1557 67.9471 75.1985C67.9772 75.2414 67.9976 75.2904 68.007 75.342L67.9443 75.4071C67.8817 75.3632 67.8225 75.3192 67.8208 75.2347Z" fill="#555555"/>
<path d="M39.4593 42.4227L39.4766 42.2069C39.4904 42.2215 39.501 42.2389 39.5075 42.2581C39.514 42.2773 39.5164 42.2977 39.5144 42.3179C39.5124 42.3381 39.5062 42.3576 39.496 42.3751C39.4859 42.3926 39.4722 42.4076 39.4558 42.4191L39.4593 42.4227Z" fill="#555555"/>
<path d="M68.3573 75.9168L68.2261 75.7594L68.2873 75.6975L68.408 75.8655L68.3573 75.9168Z" fill="#555555"/>
<path d="M51.1007 37.853L51.0579 37.8066L51.0853 37.7905C51.0853 37.8137 51.0938 37.8352 51.0972 37.8566L51.1007 37.853Z" fill="#555555"/>
<path d="M39.929 35.286L39.9136 35.3098C39.9136 35.3006 39.9136 35.2915 39.9136 35.2823C39.9136 35.2732 39.9222 35.2659 39.9273 35.2585L39.929 35.286Z" fill="#555555"/>
<path d="M63.3842 29.0703C63.4489 29.0968 63.4559 29.1411 63.4262 29.1994L63.3335 29.1216L63.3842 29.0703Z" fill="#F8F2EA"/>
<path d="M68.197 75.5778L68.288 75.6981L68.2267 75.76C68.1953 75.7229 68.1655 75.684 68.134 75.645L68.197 75.5778Z" fill="#555555"/>
<path d="M57.8775 78.5992C57.8547 78.6717 57.811 78.6788 57.7498 78.6452L57.832 78.5479C57.8477 78.5656 57.8617 78.5815 57.8775 78.5992Z" fill="#F8F2EA"/>
<path d="M68.9809 68.4963L68.8804 68.5338C68.87 68.416 68.9272 68.466 68.9757 68.4927L68.9809 68.4963Z" fill="#F8F2EA"/>
<path d="M68.4074 75.8646L68.4704 75.9425L68.4267 75.9885C68.4039 75.9637 68.3812 75.9389 68.3567 75.9159L68.4074 75.8646Z" fill="#555555"/>
<path d="M68.7378 76.3136L68.7685 76.325L68.7416 76.3098L68.7378 76.3136Z" fill="#555555"/>
<path d="M68.7194 66.8177C68.6931 66.8637 68.6564 66.9345 68.6074 66.8938C68.5584 66.8531 68.6074 66.7753 68.6389 66.7169L68.7194 66.8177Z" fill="#555555"/>
</svg>
