<svg width="84" height="85" viewBox="0 0 84 85" fill="none" xmlns="http://www.w3.org/2000/svg">
<g filter="url(#filter0_d_8058_1725)">
<path d="M0 38.3543C0.137162 28.6147 3.30893 20.0392 9.72687 12.7851C14.9576 6.87411 21.4314 3.07734 28.9613 1.14596C31.2838 0.550403 33.6442 0.204519 36.0348 0.0653702C40.9781 -0.223264 45.7888 0.438288 50.4539 2.16214C55.2282 3.92655 59.4469 6.6149 63.1294 10.193C66.2632 13.2376 68.7065 16.7934 70.6919 20.7166C72.7361 24.7575 74.0643 29.0115 74.6603 33.5175C74.9276 35.5379 75.0477 37.5671 74.9826 39.6027C74.6812 49.0799 71.4707 57.3747 65.21 64.3568C59.9057 70.2718 53.3785 74.0726 45.716 75.7885C43.5183 76.2806 41.2943 76.5892 39.0423 76.64C28.9753 76.8683 20.0985 73.6432 12.529 66.8273C6.5179 61.414 2.70372 54.6164 0.919837 46.6221C0.36654 44.1445 0.0697434 41.6303 0.0356466 39.0858C0.0325469 38.8552 0.0139487 38.6254 0.000774926 38.3551L0 38.3543Z" fill="#181818"/>
<path d="M39.4208 72.8385C34.218 72.9355 29.3654 72.0577 24.7119 70.104C21.3736 68.703 18.2545 66.9084 15.5399 64.445C11.0771 60.3962 7.81391 55.4982 5.75803 49.7581C4.85989 47.2518 4.25855 44.67 3.93851 42.0222C3.62234 39.4126 3.52702 36.7918 3.87496 34.183C4.34302 30.6749 5.34577 27.3186 6.84448 24.1253C9.80005 17.8279 14.1606 12.7963 19.909 9.0623C23.7154 6.59023 27.8581 4.9443 32.2985 4.1102C34.4845 3.69912 36.6892 3.5059 38.9101 3.52737C42.3508 3.56076 45.7303 4.04897 48.9974 5.16375C51.2725 5.93981 53.3912 7.08321 55.3967 8.43176C61.9053 12.809 66.5215 18.7709 69.4236 26.1505C70.6829 29.3526 71.4671 32.6786 71.781 36.1199C71.9329 37.7818 72.0181 39.4476 71.8817 41.1118C71.7197 43.0885 71.3323 45.0278 70.8077 46.937C69.2501 52.5975 66.4991 57.5711 62.5787 61.8561C58.4801 66.3359 53.581 69.5578 47.9024 71.5035C46.1968 72.0879 44.4175 72.3773 42.6321 72.5984C41.5054 72.7375 40.374 72.7995 39.4208 72.8393V72.8385Z" fill="#F8F2EA"/>
<path d="M39.3083 70.0346C34.4919 70.1239 29.9997 69.3154 25.6919 67.5161C22.6015 66.2258 19.7141 64.573 17.2012 62.3043C13.0698 58.5754 10.049 54.0643 8.14583 48.7778C7.3144 46.4695 6.75773 44.0917 6.46145 41.6531C6.16877 39.2497 6.08053 36.836 6.40263 34.4333C6.83592 31.2023 7.76419 28.1112 9.15158 25.1702C11.8876 19.3703 15.9242 14.7363 21.2457 11.2973C24.7694 9.02059 28.6044 7.5047 32.7149 6.73651C34.7386 6.3579 36.7795 6.17995 38.8355 6.19972C42.0206 6.23048 45.1491 6.68012 48.1735 7.70682C50.2797 8.42156 52.241 9.47462 54.0975 10.7166C60.1227 14.748 64.396 20.2389 67.0826 27.0354C68.2483 29.9845 68.9743 33.0477 69.2648 36.2172C69.4054 37.7477 69.4843 39.2819 69.3581 40.8146C69.2081 42.6351 68.8495 44.4212 68.3638 46.1795C66.9219 51.3928 64.3752 55.9735 60.7461 59.9199C56.9519 64.0457 52.4167 67.0131 47.1599 68.805C45.5809 69.3433 43.9339 69.6098 42.281 69.8134C41.238 69.9416 40.1906 69.9987 39.3083 70.0353V70.0346Z" fill="#181818"/>
<path d="M10.4182 15.1903C11.2094 13.9674 12.1044 12.8256 13.0607 11.7379C13.5915 11.1344 14.2231 10.6334 14.8732 10.0856C13.466 11.904 11.9378 13.5476 10.484 15.2579C10.4267 15.2714 10.3965 15.2579 10.4182 15.1903Z" fill="#F8F2EA"/>
<path d="M60.0577 11.2809C61.771 12.7129 63.3263 14.3064 64.7072 16.0771C64.7189 16.1352 64.7026 16.1646 64.6398 16.1431C63.1636 14.4702 61.575 12.9117 59.9848 11.3548C59.974 11.2944 59.9941 11.265 60.0569 11.2809H60.0577Z" fill="#F8F2EA"/>
<path d="M74.1462 35.9715C74.3329 37.4584 74.4306 38.9493 74.2888 40.4457C74.2361 41.0071 74.1524 41.5653 74.0826 42.125C73.9207 42.0471 74.0284 41.9191 74.0268 41.811C74.1129 40.4211 74.1919 39.0312 74.1454 37.6373C74.1276 37.1038 74.1043 36.5702 74.0826 36.0367C74.0617 35.9723 74.0888 35.9564 74.1462 35.9707V35.9715Z" fill="#F8F2EA"/>
<path d="M41.9775 73.9755C41.1817 74.0812 40.3866 74.1901 39.59 74.2919C38.8414 74.3881 38.0905 74.4684 37.3427 74.575C37.1451 74.6036 36.9568 74.5718 36.7646 74.567C36.708 74.5654 36.6018 74.6171 36.615 74.4859C36.6235 74.4024 36.6902 74.3698 36.77 74.3643C37.0552 74.3452 37.3396 74.315 37.6255 74.3046C38.9111 74.2585 40.1874 74.1074 41.4622 73.9397C41.6319 73.9174 41.8031 73.8896 41.9775 73.9747V73.9755Z" fill="#F8F2EA"/>
<path d="M23.5562 6.32854C25.0936 5.44355 26.7744 4.9458 28.4444 4.42021C28.511 4.39715 28.5273 4.42816 28.5157 4.49019C26.8651 5.07381 25.2215 5.67891 23.6205 6.39612C23.5569 6.41521 23.5414 6.38738 23.5562 6.32854Z" fill="#F8F2EA"/>
<path d="M58.3252 67.2991C59.6681 66.0921 61.0429 64.92 62.2874 63.5985C61.9867 64.2012 59.1706 66.8458 58.3252 67.2991Z" fill="#F8F2EA"/>
<path d="M64.3325 12.709C64.9199 13.1519 67.1757 15.8696 67.4903 16.4875C66.3559 15.3011 65.4639 13.9001 64.3325 12.709Z" fill="#F8F2EA"/>
<path d="M58.5058 9.03048C57.6921 8.54545 56.8792 8.05962 56.0656 7.57458C56.9621 7.91093 57.9107 8.15265 58.5058 9.03048Z" fill="#F8F2EA"/>
<path d="M10.2322 17.1997C10.7894 16.3768 11.4187 15.6102 12.0432 14.8414C12.0866 14.7873 12.1238 14.6601 12.2269 14.7396C12.3408 14.8278 12.2401 14.8986 12.1827 14.9686C11.5543 15.7351 10.9258 16.5024 10.2981 17.2697C10.2431 17.2792 10.2121 17.2641 10.233 17.1997H10.2322Z" fill="#F8F2EA"/>
<path d="M73.677 45.1737C73.515 46.2789 73.264 47.3627 72.9238 48.425C72.9052 48.4481 72.8858 48.4489 72.8649 48.4274C73.1369 47.28 73.4135 46.1342 73.6096 44.9694C73.756 44.994 73.6731 45.099 73.677 45.1729V45.1737Z" fill="#F8F2EA"/>
<path d="M64.6409 16.1434C64.6633 16.1211 64.6858 16.0997 64.7083 16.0774C65.46 16.9632 66.1156 17.9213 66.7378 18.9049C66.7587 18.9669 66.7301 18.9772 66.6789 18.9645C66.0512 17.9849 65.3391 17.0697 64.6409 16.1434Z" fill="#F8F2EA"/>
<path d="M73.6775 45.1735C73.6473 45.1083 73.6907 45.0168 73.6101 44.9699C73.7488 43.9172 73.8875 42.8644 74.0262 41.8116C74.065 41.9126 74.0053 42.0319 74.082 42.1257C73.9472 43.1419 73.8124 44.1573 73.6783 45.1735H73.6775Z" fill="#F8F2EA"/>
<path d="M72.5641 49.627C72.3952 50.5024 72.0364 51.3119 71.7373 52.142C71.6846 52.2883 71.6234 52.4314 71.566 52.5762C71.5149 52.5833 71.4785 52.5777 71.5126 52.511C71.8605 51.5369 72.2263 50.5684 72.5161 49.5737C72.5393 49.565 72.5626 49.557 72.5781 49.5849C72.5843 49.596 72.5758 49.6119 72.5649 49.627H72.5641Z" fill="#F8F2EA"/>
<path d="M73.0967 28.4653C73.3826 29.3774 73.6577 30.2926 73.6864 31.2594C73.4896 30.3283 73.2935 29.3972 73.0967 28.4653Z" fill="#F8F2EA"/>
<path d="M35.9437 2.79991C36.6133 2.73312 37.2797 2.62498 37.9523 2.60669C37.9554 2.64486 37.9593 2.68223 37.9624 2.72039C37.3107 2.76969 36.659 2.81899 36.0065 2.86829C35.9445 2.88499 35.9267 2.85875 35.943 2.79911L35.9437 2.79991Z" fill="#F8F2EA"/>
<path d="M2.76572 38.3154V40.1943C2.73317 40.1943 2.70063 40.1927 2.66808 40.1919C2.53014 39.5161 2.77192 38.8529 2.76572 38.3154Z" fill="#F8F2EA"/>
<path d="M4.67263 26.8382C4.55019 27.1801 4.42466 27.522 4.30609 27.8655C4.27509 27.9554 4.2379 28.0277 4.13561 27.9856C4.00387 27.9307 4.10384 27.8528 4.13328 27.7908C4.28439 27.4711 4.43938 27.1547 4.59359 26.8366C4.62071 26.8104 4.64706 26.8112 4.67341 26.839L4.67263 26.8382Z" fill="#F8F2EA"/>
<path d="M30.1645 3.47401C29.5694 3.62588 28.975 3.77775 28.3799 3.93042C28.9169 3.6227 29.5089 3.51615 30.101 3.40802C30.1614 3.39052 30.1793 3.41597 30.1645 3.47481V3.47401Z" fill="#F8F2EA"/>
<path d="M4.11274 48.1789C3.82757 47.5889 3.74698 46.9401 3.66406 46.2913C3.81362 46.9202 3.96318 47.55 4.11274 48.1789Z" fill="#F8F2EA"/>
<path d="M10.2319 17.2C10.2536 17.223 10.2753 17.2469 10.297 17.2699C10.025 17.654 9.75295 18.0388 9.48096 18.4229C9.45771 18.407 9.43524 18.3911 9.41199 18.3752C9.67469 17.9768 9.92421 17.5689 10.2319 17.2Z" fill="#F8F2EA"/>
<path d="M15.179 65.8973C15.5432 66.1939 15.9074 66.4905 16.2716 66.7871C15.702 66.5175 15.3494 66.2289 15.179 65.8973Z" fill="#F8F2EA"/>
<path d="M43.5349 2.24334C43.1211 2.21153 42.7065 2.17893 42.2625 2.14474C42.7189 1.89984 43.1249 2.18768 43.5426 2.16542C43.5395 2.19086 43.5372 2.2171 43.5341 2.24254L43.5349 2.24334Z" fill="#F8F2EA"/>
<path d="M51.1263 5.4248C51.6045 5.48762 52.0191 5.67607 52.3964 5.95913C51.9733 5.78102 51.5495 5.60291 51.1263 5.4248Z" fill="#F8F2EA"/>
<path d="M28.5155 4.49034C28.4915 4.46728 28.4682 4.44343 28.4442 4.42037C28.7914 4.25657 29.1626 4.1858 29.5276 4.09277C29.5353 4.11822 29.5431 4.14366 29.5508 4.16911C29.2052 4.27645 28.8603 4.383 28.5147 4.49034H28.5155Z" fill="#F8F2EA"/>
<path d="M45.6345 73.67C45.9297 73.5802 46.225 73.4895 46.5202 73.3997C46.3443 73.7129 46.0204 73.6414 45.7623 73.7384C45.6988 73.7559 45.6267 73.7917 45.6345 73.67Z" fill="#F8F2EA"/>
<path d="M39.9181 75.0136C40.3916 75.0049 40.8589 74.8673 41.337 74.9596C40.8635 74.9683 40.3978 75.1265 39.9181 75.0136Z" fill="#F8F2EA"/>
<path d="M14.1141 63.9736C14.383 64.2328 14.6527 64.4929 14.9216 64.7521C14.9046 64.7704 14.8867 64.7894 14.8697 64.8077C14.5721 64.5779 14.3117 64.3092 14.1141 63.9736Z" fill="#F8F2EA"/>
<path d="M15.7347 65.567C15.4488 65.3658 15.19 65.1344 14.9714 64.8569C15.2706 65.0406 15.5317 65.2712 15.7781 65.5209C15.7843 65.5559 15.7696 65.5718 15.7347 65.567Z" fill="#F8F2EA"/>
<path d="M5.67671 53.4207C5.48763 53.1034 5.36364 52.7607 5.31482 52.3862C5.45121 52.717 5.58759 53.0486 5.72398 53.3794C5.72398 53.412 5.70848 53.4255 5.67748 53.4215L5.67671 53.4207Z" fill="#F8F2EA"/>
<path d="M60.0583 11.2807C60.0343 11.3053 60.0103 11.33 59.9862 11.3546C59.801 11.1813 59.6158 11.0079 59.4314 10.8346C59.6879 10.9213 59.8855 11.0843 60.0591 11.2807H60.0583Z" fill="#F8F2EA"/>
<path d="M66.6793 18.9641C66.6987 18.9442 66.7188 18.9243 66.7382 18.9044C66.9405 19.135 67.0792 19.4038 67.176 19.7027C67.0102 19.4562 66.8452 19.2098 66.6793 18.9641Z" fill="#F8F2EA"/>
<path d="M30.1645 3.47422C30.1436 3.45196 30.1219 3.42969 30.101 3.40743C30.4008 3.30565 30.7054 3.22773 31.0231 3.22375C31.0301 3.23171 31.0363 3.24045 31.0433 3.2484C30.762 3.37245 30.4597 3.40743 30.1645 3.47343V3.47422Z" fill="#F8F2EA"/>
<path d="M20.2264 68.7483C20.4481 68.8811 20.6705 69.0139 20.8921 69.1459C20.6232 69.1013 20.3969 68.9725 20.2264 68.7483Z" fill="#F8F2EA"/>
<path d="M45.6341 73.6704C45.6496 73.7467 45.7193 73.7157 45.762 73.7388C45.4969 73.8024 45.2327 73.8668 44.9677 73.9304C45.1707 73.7793 45.4001 73.7173 45.6341 73.6704Z" fill="#F8F2EA"/>
<path d="M74.1456 35.9711C74.1247 35.9933 74.1038 36.0148 74.0821 36.0371C74 35.8057 74.0224 35.5695 74.0782 35.3302L74.1456 35.9711Z" fill="#F8F2EA"/>
<path d="M16.6778 66.3264C16.4732 66.2016 16.2787 66.0632 16.116 65.8835C16.1144 65.8525 16.1299 65.8414 16.1586 65.8485C16.3616 65.9392 16.5057 66.1101 16.6762 66.2453C16.7033 66.2715 16.7041 66.2986 16.6778 66.3264Z" fill="#F8F2EA"/>
<path d="M23.5565 6.32868C23.5782 6.35094 23.5991 6.374 23.6208 6.39626C23.4573 6.51315 23.276 6.5863 23.0784 6.61811C23.2186 6.48532 23.3767 6.38831 23.5557 6.32788L23.5565 6.32868Z" fill="#F8F2EA"/>
<path d="M35.9435 2.79993C35.9644 2.82299 35.9861 2.84604 36.0071 2.8691C35.8032 2.97565 35.5909 2.92397 35.3755 2.87467C35.5646 2.85002 35.7544 2.82458 35.9435 2.79993Z" fill="#F8F2EA"/>
<path d="M4.67283 26.8383C4.64649 26.8383 4.61937 26.8368 4.59302 26.836C4.67129 26.6586 4.74955 26.4813 4.82782 26.3048C4.8224 26.502 4.7914 26.6865 4.67283 26.8383Z" fill="#F8F2EA"/>
<path d="M5.97778 23.4171C6.07155 23.2207 6.16532 23.0235 6.25908 22.8271C6.28233 22.8383 6.30635 22.8494 6.3296 22.8605C6.24048 23.0593 6.18469 23.274 5.97778 23.4171Z" fill="#F8F2EA"/>
<path d="M72.0203 29.289C71.9746 29.1014 71.9289 28.9137 71.8832 28.7261C72.0172 28.8652 72.0746 29.0306 72.0769 29.2151C72.1064 29.2787 72.0769 29.2954 72.0196 29.289H72.0203Z" fill="#F8F2EA"/>
<path d="M71.5126 52.511C71.5304 52.5325 71.5483 52.5547 71.5661 52.5762C71.5087 52.7424 71.4444 52.9046 71.2894 53.0811C71.3468 52.8457 71.4157 52.6732 71.5126 52.511Z" fill="#F8F2EA"/>
<path d="M10.4183 15.1903C10.44 15.2126 10.4625 15.2356 10.4842 15.2579C10.4105 15.4296 10.2773 15.5513 10.1409 15.6737C10.1959 15.4893 10.2842 15.3263 10.4183 15.1903Z" fill="#F8F2EA"/>
<path d="M5.72301 53.379C5.82065 53.554 5.91287 53.7297 5.93301 53.938C5.81523 53.7822 5.71913 53.616 5.67651 53.4212C5.69201 53.4069 5.70751 53.3933 5.72301 53.379Z" fill="#F8F2EA"/>
<path d="M16.6778 66.327C16.6778 66.2997 16.6771 66.2724 16.6763 66.2451C16.8311 66.3366 16.9726 66.4449 17.0798 66.6006C16.9304 66.534 16.7803 66.4698 16.6778 66.3278V66.327Z" fill="#F8F2EA"/>
<path d="M71.5269 27.2091C71.4076 27.0747 71.3185 26.9292 71.3502 26.6771C71.4239 26.899 71.4758 27.054 71.5269 27.2091Z" fill="#F8F2EA"/>
<path d="M72.0205 29.289C72.0399 29.2644 72.0585 29.2397 72.0779 29.2151C72.1553 29.363 72.1778 29.5228 72.1538 29.6946C72.1096 29.5594 72.0647 29.4242 72.0205 29.289Z" fill="#F8F2EA"/>
<path d="M72.8661 48.4271C72.8863 48.4358 72.9056 48.4342 72.925 48.4247C72.8808 48.5694 72.8367 48.7149 72.7661 48.9463C72.7414 48.6958 72.7816 48.5567 72.8661 48.4279V48.4271Z" fill="#F8F2EA"/>
<path d="M31.0232 3.22448C31.1844 3.14099 31.3533 3.10442 31.5974 3.13384C31.3719 3.18075 31.2177 3.26106 31.0433 3.24913C31.0364 3.24118 31.0302 3.23243 31.0232 3.22448Z" fill="#F8F2EA"/>
<path d="M16.1196 65.8868C15.9914 65.78 15.8631 65.6741 15.7349 65.5674C15.7497 65.5522 15.7638 65.5361 15.7787 65.5209C15.9249 65.6091 16.0539 65.7183 16.1626 65.8515C16.1438 65.8571 16.1298 65.8691 16.1196 65.8868Z" fill="#F8F2EA"/>
<path d="M72.5653 49.6269C72.549 49.6094 72.5328 49.5911 72.5165 49.5736C72.5552 49.4353 72.594 49.2969 72.6327 49.1586C72.6536 49.324 72.6598 49.4854 72.5645 49.6269H72.5653Z" fill="#F8F2EA"/>
</g>
<path d="M45.3691 45.0358C45.4123 45.4263 45.5212 45.806 45.691 46.1579C46.2623 47.4002 47.008 48.5286 47.7636 49.6583C48.6543 50.9905 49.6507 52.2441 50.5279 53.58C51.623 55.2672 52.5235 57.08 53.2111 58.9818C53.6583 60.1963 54.1018 61.4158 54.2922 62.71C54.4051 63.4562 54.3796 64.2177 54.2173 64.9542C54.1124 65.4507 53.8568 65.9 53.4875 66.237C51.9801 67.6285 50.2208 68.571 48.3374 69.2921C45.651 70.3122 42.8247 70.8878 39.9634 70.9974C38.2365 71.0701 36.5067 71.0033 34.7899 70.7975C33.5417 70.6508 32.2959 70.5116 31.071 70.2219C29.6705 69.8892 28.2601 69.5894 26.9062 69.0834C25.7348 68.6656 24.6254 68.0824 23.6099 67.3502C23.3249 67.1426 23.0617 66.9047 22.8249 66.6405C22.4481 66.2193 22.2416 65.666 22.2474 65.0934C22.2474 61.5398 23.2659 58.3582 25.4675 55.5788C26.5499 54.2113 27.8141 53.0487 29.0427 51.8305C30.1392 50.7744 31.1719 49.6502 32.135 48.4641C33.0392 47.3256 33.5269 45.9871 33.7555 44.5424C33.78 44.3894 33.6867 44.3539 33.5921 44.2995C32.1379 43.4557 30.8932 42.2767 29.9555 40.8548C28.9186 39.2772 28.4812 37.4973 28.5107 35.6022C28.5451 33.2492 29.324 31.1568 30.6324 29.2491C31.5575 27.8993 32.6055 26.6696 33.9913 25.8233C37.3429 23.7739 40.805 23.3716 44.3113 25.3881C46.309 26.5381 47.6051 28.3585 48.443 30.5293C49.0327 32.0563 49.3804 33.6414 49.2662 35.291C49.0708 38.1159 48.0818 40.5689 45.9588 42.4576C45.8421 42.5679 45.714 42.6646 45.5768 42.746C45.3753 42.8574 45.3593 42.9383 45.546 43.0977C46.1161 43.5958 46.6588 44.1263 47.1714 44.6867C47.6432 45.1927 48.1334 45.6835 48.4737 46.2996C48.5966 46.5273 48.8042 46.7904 48.6359 47.0308C48.4676 47.2712 48.1445 47.1813 47.8852 47.1459C47.626 47.1105 47.4086 46.9511 47.1948 46.8044C46.6192 46.3956 46.0991 45.9098 45.648 45.3597L45.3691 45.0358ZM39.3491 69.8766C41.2872 69.9046 43.2222 69.7073 45.1173 69.2883C47.4344 68.7557 49.6876 68.0485 51.6742 66.6317C52.3769 66.132 53.001 65.5829 53.3548 64.7594C53.4483 64.5499 53.4811 64.3171 53.4494 64.0889C53.3696 63.4956 53.2492 62.9111 53.1202 62.3267C52.4936 59.4803 51.5402 56.773 49.9259 54.3454C48.9172 52.8273 47.9049 51.3092 46.7107 49.9405C46.0015 49.1108 45.4501 48.1513 45.0853 47.1118C44.5839 45.7835 44.366 44.3597 44.4465 42.9371C44.4551 42.7941 44.3838 42.5791 44.5878 42.4905C44.6981 42.4332 44.7982 42.357 44.8838 42.2653C47.4233 39.9427 48.6543 37.0419 48.4258 33.5364C48.3645 32.3869 48.0785 31.262 47.5849 30.229C47.0914 29.196 46.4004 28.2763 45.5534 27.5248C43.181 25.3679 40.4069 24.6822 37.322 25.3464C35.3029 25.7628 33.4672 26.8366 32.0858 28.4091C30.0931 30.6432 29.1655 33.2682 29.6066 36.2765C30.098 39.6201 31.8487 42.1059 34.7875 43.667C34.8481 43.6881 34.8998 43.73 34.9338 43.7858C34.9678 43.8416 34.9821 43.9078 34.9742 43.9732C34.9243 45.3329 34.4981 46.6497 33.7456 47.7683C32.6669 49.4218 31.3745 50.893 30.0231 52.3112C29.2147 53.16 28.3731 53.9747 27.5499 54.8084C26.1236 56.2531 25.0928 57.9496 24.2746 59.8181C23.5376 61.4978 23.1641 63.3224 23.1799 65.1655C23.1799 65.4324 23.1947 65.7297 23.4723 65.8726C24.3102 66.304 25.1444 66.7443 26.0069 67.1225C30.2688 68.9999 34.7334 69.8285 39.3491 69.8766ZM48.1445 46.6184C48.1153 46.4647 48.0461 46.3222 47.9442 46.206C47.4528 45.5444 46.9343 44.8967 46.3876 44.278C46.1764 44.0253 45.9358 43.8001 45.6714 43.6075C45.503 43.4937 45.3826 43.4937 45.2315 43.6822C45.0485 43.9112 45.159 44.0845 45.2561 44.2641C45.7836 45.2168 46.5146 46.0336 47.3938 46.6526C47.5272 46.7544 47.6769 46.8315 47.8361 46.8803C48.029 46.9347 48.1396 46.8448 48.1445 46.6184Z" fill="#F8F2EA"/>
<path d="M29.0267 29.5325C29.0894 30.1309 28.6582 30.3725 28.1778 30.2587C27.4099 30.0653 26.6674 29.7773 25.9664 29.4009C24.5855 28.6887 23.1603 28.0752 21.772 27.3768C20.869 26.9252 19.9599 26.4812 19.181 25.8082C19.0348 25.6817 18.8923 25.5552 18.7547 25.416C18.5249 25.1883 18.5532 24.9834 18.8431 24.8315C19.076 24.716 19.3353 24.6687 19.5926 24.6949C20.6983 24.767 21.7376 25.1124 22.75 25.5678C24.6309 26.4154 26.4283 27.4287 28.222 28.4509C28.3593 28.5308 28.4918 28.6191 28.6189 28.7153C28.9592 28.9696 29.0243 29.1087 29.0267 29.5325ZM28.9039 29.635C28.9098 29.5754 28.9024 29.5152 28.8822 29.4591C28.8619 29.4029 28.8294 29.3523 28.7872 29.3111C28.4462 28.9017 28.0326 28.563 27.5684 28.313C25.9713 27.4275 24.3594 26.5685 22.6873 25.8385C21.8163 25.459 20.9317 25.1187 19.9845 24.9922C19.8014 24.9669 19.6356 25.0011 19.5508 25.1617C19.466 25.3224 19.6085 25.4413 19.7216 25.5412C20.0292 25.7896 20.3581 26.0085 20.7044 26.1953C23.1358 27.6488 25.7612 28.6659 28.34 29.7881C28.4485 29.8309 28.5621 29.8581 28.6778 29.869C28.8314 29.8867 28.9358 29.8285 28.9027 29.635H28.9039Z" fill="#F8F2EA"/>
<path d="M50.9297 32.8812C50.5734 32.8963 50.2159 32.9824 49.8609 32.871L49.8265 32.8242C49.5721 32.5092 49.5943 32.3625 49.9493 32.1689C50.1344 32.0743 50.3243 31.9898 50.5181 31.9159C51.3437 31.5769 52.2062 31.3542 53.0465 31.0607C54.0036 30.7268 54.9545 30.3675 55.9435 30.1322C56.4773 29.999 57.0301 29.9669 57.5751 30.0373C57.8503 30.074 57.9092 30.2056 57.795 30.4636C57.673 30.6983 57.4838 30.8887 57.2532 31.0089C56.2568 31.6414 55.1449 31.9488 54.0306 32.2613C53.0134 32.5472 51.9769 32.7544 50.9297 32.8812ZM50.9432 32.2006C52.7861 31.8147 54.6486 31.5022 56.3489 30.5952C54.5045 30.9647 52.6955 31.5019 50.9432 32.2006Z" fill="#181818"/>
<path d="M18.391 44.951C17.9622 44.951 17.6968 44.5449 17.8258 44.0756C17.9826 43.5476 18.3 43.0855 18.7313 42.7574C19.6447 42.0291 20.6302 41.402 21.6713 40.8864C23.0609 40.1564 24.4919 39.513 25.9565 38.9597C26.5204 38.7547 27.0991 38.5802 27.7109 38.6713C27.9287 38.6824 28.1332 38.782 28.2797 38.9483C28.3209 38.9897 28.3474 39.0441 28.355 39.1028C28.3626 39.1615 28.3508 39.2212 28.3215 39.2722C28.168 39.5579 27.9486 39.8003 27.6827 39.9781C26.8412 40.5749 25.9542 41.1003 25.0302 41.5493C23.4035 42.3842 21.8064 43.2761 20.2387 44.2249C19.8276 44.4675 19.3953 44.6699 18.9475 44.8296C18.7701 44.9026 18.5819 44.9437 18.391 44.951ZM18.5531 44.5424C18.765 44.546 18.9749 44.5006 19.1674 44.4096C19.8794 44.1044 20.5702 43.7493 21.2351 43.3469C22.8703 42.407 24.5019 41.4569 26.158 40.5549C26.5536 40.3399 26.9701 40.164 27.3313 39.8857C27.6483 39.6416 27.8104 39.3215 27.7257 39.1191C27.6323 38.8952 27.2576 38.7788 26.8792 38.8344C26.1423 38.9565 25.4271 39.191 24.7574 39.5302C22.9054 40.4325 21.1175 41.4682 19.407 42.6296C18.9303 42.9484 18.4856 43.2913 18.16 43.7834C18.0973 43.864 18.0586 43.9616 18.0483 44.0643C18.0381 44.1671 18.0568 44.2707 18.1023 44.3628C18.1944 44.5424 18.3689 44.5424 18.5531 44.5424Z" fill="#F8F2EA"/>
<path d="M51.9654 17.7788C51.9571 18.0708 51.8781 18.3561 51.7356 18.6087C51.1103 19.8737 50.2773 20.9946 49.3669 22.0547C48.7072 22.8239 48.1384 23.6765 47.4479 24.4153C47.1014 24.7847 46.7525 25.1503 46.2058 25.1997C45.7046 25.2452 45.4294 24.9542 45.524 24.4406C45.6006 24.1069 45.7359 23.7905 45.9232 23.507C46.7034 22.2229 47.5857 21.0077 48.561 19.8737C49.1507 19.1678 49.7171 18.4404 50.3916 17.813C50.6186 17.5992 50.8708 17.4156 51.1422 17.2665C51.657 16.9894 51.9666 17.1804 51.9654 17.7788ZM46.1911 25.1288C46.2702 25.1311 46.3489 25.116 46.422 25.0846C46.4951 25.0532 46.5608 25.0062 46.6149 24.9466C46.7339 24.8394 46.844 24.7222 46.9442 24.5962C48.3607 22.7328 49.824 20.9035 51.1656 18.9743C51.3249 18.7668 51.4495 18.5333 51.5341 18.2836C51.5698 18.1571 51.6263 18.023 51.5243 17.9192C51.4223 17.8155 51.2724 17.8522 51.1471 17.899C50.8005 18.022 50.4825 18.2181 50.2134 18.4746C48.8411 19.8282 47.5683 21.2691 46.5486 22.9276C46.2341 23.4336 45.9232 23.9574 45.7623 24.5494C45.7442 24.6172 45.7415 24.6883 45.7544 24.7573C45.7673 24.8264 45.7954 24.8914 45.8366 24.9474C45.8778 25.0034 45.931 25.0489 45.9921 25.0804C46.0531 25.1119 46.1204 25.1284 46.1886 25.1288H46.1911Z" fill="#F8F2EA"/>
<path d="M50.9297 32.8811C51.9764 32.7543 53.0126 32.5471 54.0293 32.2612C55.1437 31.9487 56.2555 31.6413 57.2519 31.0088C57.4826 30.8886 57.6717 30.6982 57.7937 30.4635C57.9079 30.2105 57.849 30.0739 57.5738 30.0372C57.0288 29.9668 56.476 29.9989 55.9422 30.1321C54.9532 30.3674 54.0023 30.7267 53.0453 31.0607C52.2049 31.3541 51.3425 31.5768 50.5169 31.9158C50.323 31.9897 50.1332 32.0742 49.948 32.1688C49.5942 32.3624 49.5721 32.5091 49.8252 32.8241C49.7298 32.8102 49.641 32.7663 49.5708 32.6984C49.5006 32.6304 49.4526 32.5418 49.4333 32.4446C49.3841 32.2359 49.4996 32.1069 49.6409 31.9892C50.0291 31.6654 50.4911 31.4832 50.9481 31.3086C52.6558 30.6432 54.3795 30.022 56.1634 29.5995C56.6067 29.4881 57.0591 29.419 57.5148 29.3933C57.8121 29.3806 58.1291 29.4287 58.2581 29.7032C58.3981 29.998 58.2053 30.2877 58.0062 30.5103C57.5811 30.9873 57.0234 31.2694 56.4631 31.5224C54.8016 32.2713 53.0342 32.7411 51.2282 32.914C51.1324 32.9291 51.0206 32.9722 50.9297 32.8811Z" fill="#F8F2EA"/>
<path d="M49.2895 40.3867C49.9308 40.4044 50.4616 40.6713 50.996 40.9307C52.4924 41.6555 53.9188 42.5208 55.4017 43.2698C55.7775 43.4395 56.1006 43.7126 56.3354 44.0592C56.5393 44.3855 56.4668 44.5993 56.1069 44.7246C55.8687 44.806 55.6128 44.8153 55.3697 44.7511C54.7746 44.5901 54.1964 44.3689 53.6436 44.0908C52.8757 43.7227 52.1054 43.3583 51.3535 42.9522C50.6387 42.5519 49.9441 42.1145 49.2723 41.6416C49.1285 41.5387 49.0037 41.4102 48.9037 41.2621C48.8371 41.1791 48.7936 41.0789 48.778 40.9724C48.7625 40.8659 48.7753 40.757 48.8153 40.6574C48.8493 40.5609 48.916 40.4804 49.0032 40.4306C49.0903 40.3809 49.1921 40.3653 49.2895 40.3867ZM49.593 40.8345C49.4099 40.8345 49.2121 40.8598 49.1519 41.0483C49.0917 41.2368 49.303 41.3013 49.4161 41.4025C49.4222 41.4025 49.4308 41.4101 49.4369 41.4152C50.8142 42.3007 52.2504 43.0863 53.6915 43.8567C54.2392 44.1611 54.8118 44.4151 55.4029 44.6158C55.5761 44.6714 55.7371 44.6866 55.839 44.5158C55.941 44.3451 55.8181 44.2046 55.7014 44.0971C55.5235 43.9307 55.3369 43.7744 55.1424 43.629C54.4532 43.123 53.6903 42.7372 52.9728 42.278C52.1192 41.734 51.204 41.2998 50.2478 40.9851C50.0373 40.9041 49.8169 40.8534 49.593 40.8345Z" fill="#F8F2EA"/>
<path d="M31.291 15.6257C31.3829 15.6301 31.4728 15.655 31.5545 15.6987C31.6361 15.7424 31.7076 15.8038 31.764 15.8787C32.2014 16.3948 32.5011 16.9957 32.7776 17.608C33.6634 19.5815 34.4853 21.5803 35.0504 23.6803C35.1045 23.8777 35.1499 24.0788 35.1929 24.2787C35.2268 24.4299 35.2103 24.5885 35.1462 24.729C34.9939 25.0719 34.7224 25.1516 34.4189 24.9327C34.1816 24.7428 33.9906 24.4985 33.8612 24.2192C33.1906 22.9202 32.5906 21.584 32.0638 20.2166C31.5929 19.0013 31.2029 17.7545 30.8966 16.4846C30.8533 16.328 30.833 16.1655 30.8364 16.0026C30.8487 15.7167 30.9593 15.613 31.291 15.6257ZM35.1303 24.5342C35.117 24.3586 35.0866 24.1848 35.0394 24.0155C34.8096 23.3122 34.5283 22.624 34.258 21.9396C33.6646 20.4304 33.1818 18.8756 32.4987 17.4031C32.2689 16.9097 32.0478 16.4113 31.721 15.9761C31.5453 15.7446 31.393 15.7572 31.2222 15.99C31.0514 16.2228 31.1374 16.4467 31.1939 16.6769C31.5736 18.2203 32.1608 19.689 32.7604 21.1502C33.1681 22.1873 33.6734 23.1809 34.269 24.1168C34.4152 24.3465 34.6039 24.5442 34.8244 24.6987C35.0062 24.8227 35.134 24.748 35.1303 24.5342Z" fill="#F8F2EA"/>
<path d="M41.1871 22.9163C41.2053 22.3972 41.279 21.8817 41.407 21.3792C41.6417 20.3937 41.8088 19.3842 42.2867 18.4772C42.3692 18.3098 42.4645 18.1495 42.5717 17.9977C42.7769 17.7232 43.0988 17.7295 43.3162 17.9977C43.3972 18.1016 43.457 18.2213 43.4921 18.3495C43.5271 18.4778 43.5367 18.612 43.5202 18.7441C43.417 20.1749 43.1602 21.5728 42.6221 22.9036C42.4941 23.1914 42.3377 23.4648 42.1552 23.7196C41.9771 23.9865 41.6773 24.0042 41.4292 23.7436C41.181 23.483 41.2006 23.2338 41.1871 22.9163ZM43.3506 19.0211C43.3673 18.8483 43.3527 18.6737 43.3076 18.5063C43.1971 18.1976 43.0693 18.1521 42.8162 18.3405C42.5951 18.5108 42.4345 18.7513 42.3592 19.0249C41.9906 20.185 41.638 21.3489 41.466 22.5608C41.4218 22.8695 41.3616 23.1933 41.4525 23.502C41.4637 23.5696 41.4924 23.6328 41.5357 23.6849C41.5789 23.7371 41.6351 23.7761 41.6982 23.798C41.8211 23.8284 41.9095 23.7209 41.9783 23.6247C42.0498 23.5305 42.112 23.4293 42.1638 23.3224C42.7967 21.9696 43.1982 20.5145 43.3506 19.0211Z" fill="#F8F2EA"/>
<path d="M53.1768 37.763C52.6509 37.5783 52.0809 37.6795 51.5538 37.4935C51.3318 37.4352 51.1231 37.3324 50.9396 37.1912C50.802 36.8762 50.9138 36.6763 51.2786 36.6409C52.2848 36.5397 53.2824 36.6611 54.2776 36.7889C54.4189 36.8059 54.5547 36.8553 54.675 36.9334C54.7954 37.0116 54.8972 37.1165 54.9729 37.2405C55.0368 37.3417 55.0491 37.4568 54.9226 37.4935C54.7444 37.5378 54.5946 37.6441 54.4078 37.6719C53.9997 37.7282 53.5885 37.7587 53.1768 37.763ZM54.1215 37.3265C53.3844 37.3177 52.6571 37.138 51.9163 37.2177C52.6509 37.2658 53.377 37.405 54.1215 37.3316V37.3265ZM51.5415 36.9407C52.0109 37.0077 52.4826 36.9736 52.952 37.0216C52.495 36.8829 52.0131 36.8551 51.544 36.9407H51.5415Z" fill="#181818"/>
<path d="M30.8745 26.8202C30.9568 26.9556 31.0392 27.0909 31.1202 27.2263C31.143 27.2593 31.1636 27.294 31.1817 27.33C31.2345 27.4565 31.3881 27.5729 31.2836 27.7159C31.1792 27.8588 31.0048 27.8297 30.8487 27.793C30.7925 27.781 30.7377 27.7628 30.6853 27.7386C30.4789 27.6362 30.2762 27.5299 30.071 27.4249C30.0489 27.3806 30.0268 27.3363 29.9654 27.3667L29.974 27.3743C29.974 27.2959 29.9212 27.2845 29.8683 27.268C29.8327 27.2339 29.7983 27.1984 29.7614 27.1656C29.1398 26.6127 28.5083 26.07 28.0292 25.373C27.9063 25.1895 27.7368 24.9593 27.9223 24.748C28.1078 24.5368 28.3584 24.6709 28.5611 24.7847C28.911 24.9979 29.2383 25.248 29.5378 25.5311C29.9199 25.8651 30.2516 26.256 30.6583 26.5596V26.5533C30.6509 26.6013 30.6583 26.6342 30.716 26.6102L30.7087 26.6026C30.689 26.695 30.7652 26.719 30.8168 26.762V26.7557C30.8217 26.7962 30.8303 26.8316 30.8745 26.8202ZM30.5637 27.1782C30.5784 27.1909 30.6018 27.2187 30.6067 27.2149C30.6509 27.1858 30.6067 27.1706 30.5944 27.1504C29.9126 26.3091 29.173 25.5387 28.2098 24.9884C28.2094 25.0441 28.2202 25.0994 28.2413 25.1507C28.2624 25.202 28.2935 25.2484 28.3326 25.2869C28.9867 26.0218 29.7377 26.6584 30.5637 27.1782Z" fill="#181818"/>
<path d="M52.4445 25.9929C52.2288 26.3085 51.956 26.5783 51.641 26.7873C51.5427 26.8544 51.4886 26.9594 51.3879 27.0125C51.3191 27.0125 51.265 27.034 51.265 27.1201L51.2724 27.1137C51.1029 27.1454 50.9923 27.2706 50.8694 27.3781C50.8381 27.3836 50.8084 27.3959 50.7821 27.4143C50.7558 27.4326 50.7336 27.4565 50.7171 27.4844C50.6851 27.4876 50.6544 27.4989 50.6276 27.5172C50.6008 27.5355 50.5788 27.5603 50.5635 27.5894C50.5328 27.5894 50.4861 27.5805 50.507 27.6425H50.5131C50.4185 27.6096 50.3633 27.6919 50.2957 27.7285C50.118 27.8381 49.9283 27.9256 49.7305 27.9891C49.5966 28.0233 49.4431 28.0676 49.3411 27.9284C49.2968 27.8649 49.2743 27.788 49.2772 27.7099C49.2801 27.6318 49.3082 27.5569 49.3571 27.497C49.4257 27.3902 49.5007 27.288 49.5819 27.1909C49.9283 26.811 50.3144 26.4716 50.7331 26.1788C51.1115 25.9005 51.4911 25.6197 51.9407 25.4755C52.1226 25.4173 52.3241 25.3616 52.485 25.5185C52.6459 25.6754 52.4825 25.8297 52.4445 25.9929ZM52.0759 26.0511C52.1987 25.9435 52.3978 25.7829 52.3327 25.664C52.2467 25.5058 52.0353 25.6425 51.8805 25.6867C51.8683 25.6867 51.8597 25.7032 51.8437 25.7171C52.0095 25.7487 52.1164 25.8183 52.039 26.0131C52.0243 26.0397 51.9506 26.0435 51.9948 26.0903C52.039 26.1371 52.0648 26.0966 52.0783 26.0511H52.0759ZM49.7932 27.5907C50.2908 27.4135 51.6361 26.3003 51.8818 25.8803C51.0058 26.2952 50.3055 26.8202 49.7932 27.5907Z" fill="#181818"/>
<path d="M38.3601 23.4741C38.2004 23.5045 38.1746 23.3641 38.1378 23.2679C37.7292 22.2674 37.4368 21.2207 37.2667 20.1495C37.2091 19.8909 37.1893 19.6248 37.2077 19.3601C37.2384 19.159 37.2569 18.9212 37.4817 18.8541C37.7065 18.7871 37.8785 18.9389 38.0345 19.1071C38.4437 19.5651 38.5579 20.147 38.6759 20.7213C38.8294 21.4045 38.9268 22.0998 38.967 22.7998C38.993 23.0306 38.9428 23.2636 38.8245 23.4615C38.6832 23.6664 38.4719 23.6639 38.3552 23.4615C38.6243 23.5601 38.6967 23.5197 38.7348 23.235C38.7484 23.1336 38.7508 23.0309 38.7422 22.9289C38.6709 22.0927 38.4596 21.2843 38.3159 20.4569C38.2658 20.0923 38.1522 19.7401 37.9805 19.4171C37.9326 19.3361 37.8761 19.2273 37.7507 19.2539C37.7024 19.2676 37.6584 19.2943 37.6232 19.3312C37.588 19.368 37.563 19.4138 37.5505 19.4639C37.5066 19.6021 37.4874 19.7474 37.494 19.8927C37.494 20.82 37.7397 21.6992 37.9854 22.5785C38.0751 22.8973 38.1599 23.2123 38.3601 23.4741Z" fill="#F8F2EA"/>
<path d="M27.6409 34.5485C27.8276 34.6003 27.9701 34.7167 27.9517 34.9217C27.9333 35.1266 27.8632 35.3328 27.6175 35.4087C27.3141 35.4992 26.9997 35.5443 26.6838 35.5428C25.728 35.5542 24.7709 35.5643 23.8397 35.2898C23.6067 35.2254 23.3826 35.131 23.1726 35.009C22.917 34.8559 22.8875 34.6294 23.0829 34.3916C23.174 34.2798 23.2864 34.1884 23.4132 34.1231C23.54 34.0578 23.6785 34.02 23.82 34.0121C25.0371 33.9105 26.2615 34.0632 27.4197 34.4612C26.4567 34.2388 25.4759 34.108 24.4896 34.0703C24.2075 34.0478 23.924 34.0853 23.6566 34.1803C23.586 34.2072 23.5244 34.2546 23.4795 34.3168C23.4346 34.379 23.4082 34.4534 23.4035 34.5308C23.3851 34.6965 23.4932 34.7762 23.6075 34.8534C23.7819 34.9697 23.9859 34.9659 24.1812 34.9976C25.024 35.1393 25.8582 35.3531 26.7195 35.348C26.9824 35.348 27.2453 35.3682 27.5033 35.2518C27.7613 35.1355 27.8829 34.7737 27.604 34.5814L27.6409 34.5485Z" fill="#F8F2EA"/>
<path d="M29.7172 42.3767C29.7744 42.4274 29.8112 42.4982 29.8204 42.5753C29.7925 42.6059 29.7663 42.638 29.7417 42.6714C29.1913 43.4675 28.5043 44.1535 27.7146 44.6955C27.5291 44.8221 27.2686 44.989 27.0819 44.7879C26.8951 44.5868 27.0819 44.3388 27.2256 44.1554C27.6661 43.5396 28.2263 43.0252 28.8707 42.6449C29.1324 42.4969 29.4051 42.364 29.7172 42.3767ZM27.5967 44.4008C28.1756 44.0602 28.68 43.6003 29.0783 43.0497C29.0931 43.0358 29.1213 43.0118 29.1189 43.008C29.0943 42.9662 29.0697 42.9953 29.0464 43.008C28.4984 43.3963 27.9529 43.7898 27.5635 44.3628C27.5401 44.3717 27.5193 44.3869 27.5389 44.4122C27.5438 44.4274 27.577 44.416 27.5967 44.4059V44.4008Z" fill="#181818"/>
<path d="M53.1767 37.7629C53.5878 37.7569 53.9981 37.7247 54.4053 37.6668C54.592 37.639 54.7419 37.5327 54.92 37.4884C55.0429 37.4568 55.0343 37.3417 54.9704 37.2354C54.8946 37.1114 54.7928 37.0065 54.6725 36.9283C54.5522 36.8502 54.4164 36.8008 54.275 36.7838C53.2799 36.6573 52.2823 36.5308 51.2761 36.6358C50.9075 36.6712 50.7994 36.8711 50.937 37.1861C50.6827 37.1405 50.6446 36.9331 50.6336 36.7256C50.6225 36.5181 50.7933 36.4726 50.9567 36.4473C52.3734 36.2291 53.8198 36.345 55.1866 36.7863C55.5552 36.9128 55.5896 37.1266 55.2972 37.3923C54.9581 37.701 54.5343 37.7592 54.1153 37.7908C53.8045 37.8186 53.4851 37.8717 53.1767 37.7629Z" fill="#F8F2EA"/>
<path d="M29.7171 42.3767C29.4051 42.364 29.1323 42.4969 28.8706 42.6449C28.2268 43.0237 27.6665 43.5364 27.2256 44.1503C27.0855 44.3363 26.884 44.5716 27.0818 44.7828C27.2796 44.9941 27.529 44.822 27.7146 44.6905C28.5042 44.1484 29.1912 43.4625 29.7417 42.6664C29.7662 42.6329 29.7924 42.6008 29.8203 42.5702C29.8117 42.8485 29.6557 43.0535 29.4788 43.2319C28.921 43.7936 28.3829 44.3767 27.7588 44.8587C27.5932 45.002 27.4066 45.1173 27.2059 45.2003C26.9664 45.2851 26.8202 45.194 26.771 44.9384C26.74 44.8042 26.7561 44.6631 26.8165 44.5399C27.3311 43.5203 28.1942 42.733 29.2392 42.3299C29.3879 42.2755 29.5709 42.1983 29.7171 42.3767Z" fill="#F8F2EA"/>
<path d="M52.4446 25.9929C52.4826 25.8297 52.6694 25.6741 52.4937 25.5008C52.318 25.3275 52.1313 25.3996 51.9494 25.4578C51.4998 25.602 51.1202 25.8828 50.7418 26.1612C50.3231 26.4539 49.937 26.7933 49.5906 27.1732C49.5095 27.2703 49.4344 27.3725 49.3658 27.4794C49.3169 27.5392 49.2888 27.6141 49.2859 27.6922C49.283 27.7703 49.3055 27.8472 49.3498 27.9107C49.4518 28.0499 49.6053 28.0056 49.7393 27.9715C49.9371 27.91 50.1272 27.8247 50.3056 27.7172C50.3732 27.6805 50.4285 27.5983 50.5231 27.6312C50.2098 27.9057 49.8707 28.1245 49.4383 28.0752C49.1741 28.0461 49.1102 27.9019 49.1987 27.6451C49.34 27.2314 49.6471 26.9531 49.9432 26.6672C50.4197 26.1787 50.9485 25.7475 51.5194 25.3819C51.7468 25.2394 51.9961 25.138 52.2566 25.0821C52.6006 25.015 52.7886 25.1858 52.748 25.5463C52.7441 25.6428 52.7134 25.7362 52.6597 25.8153C52.6059 25.8944 52.5313 25.9561 52.4446 25.9929Z" fill="#F8F2EA"/>
<path d="M30.6644 26.566C30.2578 26.2624 29.9273 25.8715 29.544 25.5375C29.2445 25.2544 28.9171 25.0043 28.5673 24.7911C28.3645 24.6772 28.1201 24.5381 27.9284 24.7544C27.7367 24.9707 27.91 25.1959 28.0353 25.3794C28.5144 26.0764 29.141 26.6191 29.7676 27.1719C29.8044 27.2048 29.8388 27.2403 29.8744 27.2744C29.7946 27.3124 29.7516 27.2453 29.7 27.2074C28.9936 26.6507 28.3056 26.0688 27.7761 25.3262C27.7303 25.266 27.6892 25.2021 27.6532 25.1352C27.5709 24.9695 27.4407 24.7848 27.5955 24.619C27.6698 24.5311 27.7697 24.4701 27.8803 24.4451C27.9909 24.42 28.1064 24.4322 28.2097 24.4799C28.8818 24.7784 29.4383 25.2465 29.9703 25.7576C30.2246 26.0043 30.4973 26.2383 30.6644 26.566Z" fill="#F8F2EA"/>
<path d="M30.071 27.4249C30.2762 27.5299 30.4789 27.6362 30.6853 27.7387C30.7377 27.7628 30.7925 27.7811 30.8487 27.7931C31.0048 27.8298 31.178 27.8589 31.2836 27.7159C31.3893 27.5729 31.2345 27.4553 31.1817 27.3301C31.1636 27.2941 31.143 27.2594 31.1202 27.2263C31.2935 27.3073 31.4888 27.6931 31.42 27.826C31.3512 27.9588 31.0613 28.0549 30.8672 27.9525C30.5895 27.7943 30.2799 27.6944 30.071 27.4249Z" fill="#F8F2EA"/>
<path d="M50.8695 27.3805C50.9935 27.2719 51.1051 27.1456 51.2762 27.1136C51.2005 27.3 51.0443 27.3549 50.8695 27.3805Z" fill="#F8F2EA"/>
<path d="M50.7196 27.4823C50.7364 27.4539 50.759 27.4296 50.7857 27.411C50.8124 27.3924 50.8426 27.3798 50.8744 27.3743C50.8707 27.4835 50.7983 27.4951 50.7196 27.4823Z" fill="#F8F2EA"/>
<path d="M50.5685 27.5835C50.584 27.5539 50.6064 27.5288 50.6336 27.5102C50.6608 27.4916 50.692 27.4801 50.7245 27.4768C50.7221 27.5925 50.6509 27.5925 50.5685 27.5835Z" fill="#F8F2EA"/>
<path d="M30.8198 26.7709C30.7673 26.7272 30.6949 26.7027 30.7099 26.6089C30.7408 26.6229 30.7675 26.6455 30.7868 26.674C30.8062 26.7026 30.8176 26.7361 30.8198 26.7709Z" fill="#F8F2EA"/>
<path d="M51.2651 27.1237C51.2651 27.0347 51.3211 27.0164 51.3923 27.0125C51.3877 27.0437 51.3723 27.0721 51.3489 27.0926C51.3256 27.113 51.2958 27.1241 51.2651 27.1237Z" fill="#F8F2EA"/>
<path d="M29.872 27.2719C29.9267 27.2889 29.9864 27.3007 29.9814 27.3818C29.9191 27.3713 29.858 27.3609 29.872 27.2719Z" fill="#F8F2EA"/>
<path d="M27.5205 34.5287C27.5412 34.517 27.5652 34.513 27.5884 34.5176C27.6116 34.5221 27.6326 34.5348 27.6476 34.5535L27.6171 34.5889C27.5803 34.5771 27.532 34.5797 27.5243 34.5234L27.5205 34.5287Z" fill="#F8F2EA"/>
<path d="M27.4222 34.4701C27.453 34.4965 27.5171 34.4701 27.5248 34.5308C27.4825 34.5308 27.4363 34.5308 27.4261 34.4714L27.4222 34.4701Z" fill="#F8F2EA"/>
<path d="M29.969 27.3709C30.0331 27.3392 30.0562 27.3854 30.0792 27.4316C30.0682 27.4366 30.0562 27.439 30.0442 27.4385C30.0322 27.438 30.0204 27.4347 30.0098 27.4289C29.9992 27.423 29.99 27.4148 29.9829 27.4047C29.9758 27.3947 29.9711 27.3831 29.969 27.3709Z" fill="#F8F2EA"/>
<path d="M49.8264 32.8242L49.8613 32.8737C49.8713 32.8389 49.8588 32.8228 49.8264 32.8242Z" fill="#F8F2EA"/>
<path d="M30.874 26.8222C30.8301 26.83 30.8216 26.7973 30.8131 26.762L30.874 26.8222Z" fill="#F8F2EA"/>
<path d="M30.7174 26.6192C30.6583 26.6444 30.6521 26.6099 30.6595 26.5596C30.6743 26.5599 30.6885 26.5662 30.6993 26.5772C30.71 26.5883 30.7165 26.6033 30.7174 26.6192Z" fill="#F8F2EA"/>
<path d="M50.5157 27.6349C50.4948 27.5699 50.5416 27.5832 50.5724 27.5792C50.5897 27.6389 50.5515 27.6375 50.5157 27.6349Z" fill="#F8F2EA"/>
<path d="M39.3491 69.8766C34.7334 69.8285 30.2688 68.9999 26.0056 67.1339C25.1456 66.7544 24.309 66.3155 23.4711 65.8841C23.1934 65.7411 23.1799 65.4438 23.1787 65.1769C23.1629 63.3338 23.5364 61.5092 24.2734 59.8295C25.0867 57.961 26.1162 56.2645 27.5487 54.8198C28.3719 53.9862 29.2134 53.1753 30.0218 52.3226C31.3733 50.9045 32.6657 49.4332 33.7444 47.7798C34.4968 46.6611 34.9231 45.3444 34.973 43.9846C34.9809 43.9192 34.9666 43.853 34.9326 43.7973C34.8985 43.7415 34.8469 43.6995 34.7862 43.6784C31.8475 42.1174 30.0943 39.6302 29.6054 36.2879C29.1643 33.2796 30.0968 30.6546 32.0846 28.4205C33.466 26.848 35.3016 25.7743 37.3208 25.3578C40.4106 24.6937 43.1847 25.3793 45.5522 27.5363C46.3992 28.2877 47.0902 29.2075 47.5837 30.2404C48.0773 31.2734 48.3633 32.3983 48.4246 33.5478C48.6531 37.0482 47.4221 39.949 44.8826 42.2768C44.797 42.3685 44.6969 42.4446 44.5865 42.5019C44.3826 42.5905 44.4539 42.8055 44.4453 42.9485C44.3648 44.3711 44.5827 45.795 45.0841 47.1232C45.4489 48.1627 46.0003 49.1223 46.7095 49.9519C47.9037 51.3232 48.9209 52.84 49.9247 54.3568C51.5378 56.7845 52.4912 59.4917 53.119 62.3381C53.2418 62.9226 53.3647 63.507 53.4482 64.1003C53.4799 64.3285 53.4471 64.5613 53.3536 64.7708C52.9998 65.5944 52.3708 66.1434 51.6729 66.6431C49.6863 68.0562 47.4331 68.7633 45.1161 69.2997C43.221 69.7148 41.2864 69.9083 39.3491 69.8766ZM27.1458 56.9401C27.1666 56.9211 27.1998 56.9034 27.1593 56.873C27.1452 56.8855 27.1321 56.899 27.12 56.9135C27.0954 56.9262 27.0536 56.9363 27.0856 56.9717C27.1175 57.0071 27.1298 56.9578 27.1458 56.9401ZM33.1658 50.8071C33.1436 50.8134 33.1092 50.8134 33.1473 50.8475C33.1473 50.8336 33.1584 50.8197 33.1633 50.8045C33.1682 50.7894 33.2149 50.8045 33.1842 50.7691L33.1658 50.8071ZM33.0675 50.9627C33.0478 50.9627 33.022 50.9563 33.0429 50.9918L33.0638 50.9589C33.0748 50.95 33.1178 50.9589 33.0773 50.9234L33.0675 50.9627ZM33.4643 50.3947L33.5171 50.3478C33.5347 50.3392 33.5494 50.3255 33.5596 50.3085C33.5699 50.2914 33.5752 50.2717 33.5749 50.2517L33.6191 50.1948C33.6609 50.1809 33.6719 50.1442 33.6805 50.105L33.7211 50.0442L33.785 49.9544L33.8194 49.8886C33.8372 49.8791 33.8517 49.8642 33.861 49.8458C33.8702 49.8275 33.8737 49.8066 33.871 49.7862L33.9127 49.7267L33.9545 49.6723L33.9238 49.6571C33.9238 49.6799 33.9164 49.7039 33.914 49.728C33.8783 49.7216 33.866 49.7457 33.8587 49.7748L33.796 49.8621L33.7542 49.9228C33.7346 49.9544 33.7162 49.986 33.6977 50.0189L33.656 50.0784C33.6351 50.1087 33.6154 50.1391 33.5958 50.1707L33.5589 50.2353L33.4962 50.3238C33.4852 50.3478 33.4741 50.3706 33.4643 50.3947L33.4152 50.4478C33.396 50.4555 33.3804 50.4702 33.3713 50.4892C33.3622 50.5082 33.3603 50.5299 33.366 50.5503C33.3144 50.568 33.3132 50.6097 33.3181 50.6553L33.253 50.6641L33.264 50.6932L33.3144 50.6527C33.3307 50.6409 33.3437 50.6248 33.3521 50.6062C33.3605 50.5875 33.364 50.5669 33.3623 50.5465C33.4164 50.5325 33.4238 50.4933 33.4127 50.4453C33.4483 50.449 33.4582 50.425 33.4618 50.3921L33.4643 50.3947ZM50.3743 58.2051C50.3729 58.1981 50.3704 58.1912 50.367 58.1849C50.3625 58.184 50.3579 58.184 50.3535 58.1849L50.3768 58.2064L50.3965 58.2583C50.3965 58.2583 50.4026 58.2456 50.3965 58.2418C50.3899 58.2291 50.3825 58.2169 50.3743 58.2051ZM43.6897 38.5777C43.643 38.5891 43.6332 38.6283 43.6246 38.6675C43.5976 38.6815 43.5739 38.7012 43.555 38.7255C43.5362 38.7497 43.5226 38.7778 43.5152 38.8079C43.4845 38.8484 43.4071 38.8864 43.4685 38.9408C43.4943 38.9623 43.5373 38.8927 43.5484 38.8434C43.5738 38.825 43.5954 38.8015 43.6119 38.7743C43.6284 38.7472 43.6394 38.7169 43.6442 38.6852C43.6543 38.6817 43.6636 38.6762 43.6714 38.6688C43.6793 38.6615 43.6856 38.6525 43.69 38.6426C43.6944 38.6326 43.6967 38.6218 43.6969 38.6109C43.6971 38.5999 43.695 38.5891 43.6909 38.579C43.7216 38.579 43.7401 38.5701 43.713 38.536L43.6897 38.5777ZM34.7961 34.1993L34.7469 34.3031L34.6966 34.4055C34.6646 34.4372 34.6413 34.4701 34.6781 34.5131L34.7334 34.4397L34.7813 34.336L34.8305 34.2322C34.8501 34.2094 34.8686 34.1867 34.8378 34.1601C34.823 34.1721 34.809 34.1852 34.7961 34.1993ZM35.9571 28.0005C35.9964 28.0005 36.0173 27.9613 35.9952 27.936C35.973 27.9107 35.9509 27.9537 35.9313 27.9689L35.8809 28.0208C34.8206 29.2858 33.7051 30.5066 32.995 32.0462C32.2456 33.6629 31.3204 36.2652 31.3745 36.737C31.3856 36.7295 31.4028 36.7244 31.4077 36.713C31.4286 36.6573 31.447 36.6017 31.4654 36.5448C32.1768 34.3941 33.0515 32.3283 34.2444 30.4117C34.7555 29.592 35.3403 28.8279 35.9104 28.0511C35.9171 28.0512 35.9237 28.0498 35.9298 28.047C35.9359 28.0442 35.9413 28.04 35.9458 28.0349C35.9502 28.0297 35.9535 28.0237 35.9554 28.0171C35.9574 28.0105 35.9579 28.0036 35.9571 27.9967V28.0005ZM50.2785 57.9926C50.2908 58.0116 50.2515 58.0597 50.3105 58.0533L50.2748 57.9951C50.2675 57.9559 50.2662 57.9142 50.2245 57.8939C50.2146 57.8876 50.2245 57.8395 50.1937 57.8737L50.2281 57.8901C50.2233 57.9106 50.2258 57.9321 50.235 57.9509C50.2442 57.9697 50.2597 57.9845 50.2785 57.9926ZM49.4271 67.1365L49.5033 67.1175L49.4283 67.1377L49.4271 67.1365ZM25.2243 60.252C25.3461 60.1283 25.4154 59.9601 25.4172 59.7839C25.3105 59.9187 25.2447 60.0828 25.228 60.2558L25.1972 60.29L25.2181 60.3001L25.2243 60.252ZM24.3336 62.9795C24.2382 63.1676 24.1892 63.377 24.191 63.5892L24.2611 63.5994C24.293 63.4033 24.3262 63.2059 24.3581 63.0086L24.6296 61.8903C24.4789 62.236 24.3799 62.6032 24.336 62.9795H24.3336ZM45.5141 33.8438C45.8507 33.6895 45.9994 33.3252 46.2979 33.1291C45.9877 33.3007 45.7225 33.5473 45.5252 33.8476L45.4994 33.9071C45.5117 33.9071 45.5289 33.9071 45.535 33.9071C45.5608 33.8755 45.5571 33.8514 45.5141 33.8438ZM26.1285 58.4582L27.0856 57.0261C26.6494 57.4145 26.3902 57.9281 26.1125 58.4303C26.0429 58.5018 26.0032 58.5985 26.002 58.6998C26.0631 58.6314 26.1066 58.5483 26.1285 58.4582ZM46.696 67.6197C45.5092 67.9527 44.3026 68.2063 43.084 68.3788C44.3126 68.3092 45.4895 68.0081 46.6714 67.6956C46.8946 67.6571 47.1099 67.5796 47.3078 67.4667C47.097 67.4818 46.8901 67.5336 46.696 67.6197ZM40.7989 69.1264C40.8738 69.1264 40.9475 69.1378 41.0225 69.1365C41.735 69.1188 42.4439 69.0417 43.1503 68.9531C43.6848 68.8848 44.218 68.8013 44.7475 68.7241C44.4649 68.7001 44.186 68.633 43.9071 68.6912C42.8829 68.8965 41.8473 69.0364 40.8062 69.11C40.4033 69.0657 40.0077 69.1732 39.6059 69.1707C39.8099 69.1935 40.0153 69.1994 40.2202 69.1884C40.4192 69.1758 40.6219 69.2681 40.8001 69.1264H40.7989ZM38.1697 68.2776C39.2595 68.2776 40.0126 68.27 40.7497 68.2295C42.8589 68.1373 44.9516 67.8047 46.9896 67.2377C48.5475 66.7898 50.0402 66.1839 51.4039 65.268C51.4941 65.2174 51.5694 65.1428 51.6222 65.052C51.6749 64.9613 51.703 64.8576 51.7037 64.7518C51.7174 64.5642 51.7133 64.3757 51.6914 64.1889C51.4948 63.044 51.3228 61.8852 50.926 60.796C50.0145 58.2305 48.6992 55.8371 47.0326 53.7116C46.4355 52.9526 45.8041 52.2214 45.2856 51.4067C43.7941 49.0954 43.127 46.5274 43.0852 43.7721C43.0852 43.581 43.0852 43.5114 42.869 43.6164C40.9469 44.6001 38.7534 44.8683 36.661 44.3755C36.5124 44.3413 36.4632 44.3527 36.4399 44.5197C36.2175 46.0909 35.6303 47.5103 34.8649 48.8854C33.9737 50.5215 32.8268 51.9952 31.4703 53.2474C29.855 54.712 28.3544 56.3054 26.9824 58.0129C26.1224 59.0856 25.5855 60.3254 25.1039 61.593C24.9264 62.0785 24.8027 62.583 24.7353 63.0971C24.6567 63.65 24.5891 64.2028 24.5166 64.7569C24.5019 64.8219 24.5115 64.8902 24.5437 64.9482C24.5758 65.0061 24.628 65.0494 24.6898 65.0694C25.4525 65.4845 26.2395 65.8504 27.0462 66.1649C30.743 67.6058 34.5798 68.2194 38.1709 68.2776H38.1697ZM44.3408 46.9107C44.3789 47.0372 44.4145 47.1637 44.4453 47.2763C44.6446 48.0283 44.9852 48.7327 45.4478 49.3497C46.0387 50.1467 46.7378 50.8488 47.3127 51.6559C47.7636 52.2885 48.1727 52.9589 48.6433 53.5763C49.5088 54.7025 50.271 55.9091 50.9198 57.1804C51.4321 58.1925 51.7725 59.2665 52.1484 60.3773C52.1571 60.3327 52.162 60.2874 52.1631 60.2419C52.1594 60.1989 52.1512 60.1565 52.1386 60.1154C51.7252 58.7182 51.1753 57.3678 50.4972 56.0849C49.4775 54.1949 48.1961 52.4833 46.8447 50.84C45.8765 49.6634 44.9539 48.4819 44.4563 47.0056C44.4502 46.9663 44.4477 46.8993 44.3421 46.9107H44.3408ZM32.4114 37.1431C32.9476 35.5327 33.6049 33.9677 34.3771 32.4624C35.172 30.9443 36.0971 29.5186 37.3036 28.2687C37.1648 28.2485 37.1242 27.9664 36.935 28.2194C36.0382 29.4402 35.129 30.6508 34.3906 31.9842C33.4826 33.5914 32.8158 35.3307 32.4126 37.1431H32.4114ZM34.2457 28.1713C32.592 30.2245 30.5354 34.675 30.7713 35.6453C30.8462 35.6086 30.8327 35.5276 30.8511 35.4695C31.5883 33.0658 32.5834 30.7887 34.0061 28.7153C34.1251 28.555 34.2074 28.369 34.2469 28.1713H34.2457ZM32.9114 28.4876C32.4139 28.752 32.237 29.234 31.9925 29.6261C31.2897 30.7381 30.7356 31.9336 30.4592 33.2455C30.4469 33.3024 30.3597 33.372 30.4789 33.3973C30.528 33.4061 30.5292 33.3201 30.5452 33.2771C31.1484 31.6034 31.877 30.0006 32.9127 28.4876H32.9114ZM34.2629 38.8358C35.0958 37.2456 35.7814 35.5745 36.6328 33.9893C36.365 34.3815 36.1156 34.7825 35.8809 35.1937C35.2236 36.3487 34.6056 37.5214 34.2629 38.8358ZM51.5022 61.2413C51.684 62.3077 51.9187 63.3653 51.9936 64.4634C52.372 63.7094 52.0796 61.851 51.5022 61.2413ZM39.2791 37.0356C38.811 37.868 38.4093 38.6966 38.0223 39.5354C38.1157 39.5733 38.112 39.4873 38.1279 39.4557C38.4818 38.7624 38.8565 38.081 39.2521 37.4113C39.2808 37.3537 39.298 37.2908 39.3026 37.2263C39.3073 37.1617 39.2993 37.0969 39.2791 37.0356ZM38.0198 36.4638C38.3884 35.8679 38.9708 35.3986 39.0887 34.5776C38.6966 35.1841 38.3397 35.8139 38.0198 36.4638ZM35.7138 44.1212C35.7321 44.5955 35.6983 45.0704 35.6131 45.5368C35.7359 45.4786 35.7359 45.3837 35.7458 45.3104C35.8072 44.9928 35.849 44.6715 35.9214 44.3565C35.9706 44.163 35.8956 44.1124 35.7175 44.1212H35.7138ZM36.419 39.9465L36.4743 39.9832C36.72 39.4915 36.9678 38.9994 37.2176 38.5069C36.7728 38.8851 36.6144 39.424 36.4227 39.9452L36.419 39.9465ZM39.6243 39.8934C39.3516 40.4083 39.1139 40.9422 38.913 41.4911C39.2312 41.0003 39.5359 40.4943 39.628 39.8921L39.6243 39.8934ZM37.6721 34.8015C37.3331 35.1165 37.0198 35.7351 36.978 36.126L37.6721 34.8015ZM40.1993 68.6292V68.7052C40.6969 68.7191 41.1945 68.7444 41.6466 68.6204L40.1993 68.6292ZM44.9907 68.4876C45.4428 68.4706 45.8911 68.3954 46.325 68.2636L46.3127 68.2004L44.9907 68.4876ZM25.4737 59.7447L25.9282 58.8339C25.716 59.1011 25.5611 59.4115 25.4737 59.7447ZM35.2126 39.8048C35.3649 39.6429 35.3907 39.3924 35.4386 39.1483C35.3306 39.3537 35.2544 39.5752 35.2126 39.8048ZM44.4821 38.9129C44.6611 38.77 44.7816 38.5634 44.82 38.3336L44.4821 38.9129ZM24.4134 64.6114C24.3852 64.3103 24.5031 64.0168 24.4675 63.7145C24.3736 64.0034 24.3549 64.3127 24.4134 64.6114ZM42.3272 68.4635H42.8186C42.6454 68.2788 42.4795 68.4787 42.3272 68.4635ZM44.3224 45.2749C44.338 45.1013 44.3078 44.9265 44.2352 44.7689C44.1995 44.9309 44.2782 45.0713 44.3224 45.2749ZM48.3398 67.5919C48.4066 67.5993 48.474 67.5891 48.5359 67.5623C48.5978 67.5356 48.6521 67.4931 48.6937 67.4388L48.3398 67.5919ZM35.2371 33.3467C35.151 33.4507 35.0933 33.5764 35.07 33.711C35.1226 33.6671 35.1649 33.6115 35.1938 33.5484C35.2228 33.4854 35.2376 33.4164 35.2371 33.3467ZM34.457 34.9584C34.3823 35.0383 34.3386 35.1436 34.3341 35.2544C34.3744 35.2173 34.4063 35.1716 34.4275 35.1205C34.4488 35.0693 34.4588 35.014 34.457 34.9584ZM46.7623 68.122C46.6288 68.1061 46.4938 68.1326 46.3753 68.1979C46.5154 68.251 46.6198 68.1991 46.7623 68.122ZM46.9823 68.0486C47.0953 68.0726 47.1579 68.0486 47.2083 67.9828C47.1248 67.9461 47.067 67.998 46.9884 68.0486H46.9823ZM34.2334 35.5023C34.2454 35.4909 34.2558 35.4777 34.2641 35.4631C34.2752 35.4328 34.3317 35.3784 34.258 35.3784C34.2113 35.3784 34.2027 35.4492 34.2334 35.5023ZM49.233 67.2389C49.1359 67.2579 49.0819 67.2554 49.0585 67.3237C49.1187 67.3515 49.1556 67.3136 49.233 67.2389ZM48.959 67.3655C48.929 67.355 48.8963 67.3559 48.8668 67.368C48.8374 67.38 48.813 67.4024 48.7981 67.4312C48.8276 67.4427 48.8603 67.442 48.8894 67.4292C48.9184 67.4165 48.9416 67.3928 48.9541 67.3629L48.959 67.3655ZM43.8482 38.3879L43.8322 38.3475C43.81 38.3672 43.7898 38.3892 43.772 38.4133C43.7597 38.4322 43.7597 38.4664 43.7917 38.4537C43.8236 38.4411 43.831 38.4057 43.8482 38.3854V38.3879ZM25.5953 65.8689C25.6444 65.9245 25.6813 65.984 25.7526 65.9233C25.7335 65.9005 25.7089 65.8834 25.6812 65.8738C25.6535 65.8642 25.6238 65.8625 25.5953 65.8689ZM34.6339 34.5662C34.602 34.6168 34.543 34.6446 34.5872 34.7243C34.6314 34.6838 34.672 34.6472 34.6339 34.5662ZM34.9816 33.8945C34.9948 33.8912 35.0072 33.8847 35.0176 33.8757C35.0281 33.8667 35.0364 33.8553 35.0418 33.8425C35.0473 33.8296 35.0498 33.8156 35.0492 33.8016C35.0485 33.7876 35.0447 33.7739 35.0381 33.7616C34.9865 33.7894 34.9484 33.8261 34.9816 33.8945ZM42.9759 39.6151C42.9633 39.6364 42.9526 39.6588 42.9439 39.6821C42.9439 39.6922 42.9439 39.7428 42.9845 39.7125C43.0071 39.6909 43.0244 39.664 43.0349 39.634C43.0385 39.6264 43.0336 39.5796 42.9759 39.6151ZM42.8702 39.8972C42.8941 39.868 42.9147 39.8362 42.9317 39.8023C42.9317 39.7909 42.9157 39.7694 42.9059 39.753C42.8833 39.7738 42.8634 39.7976 42.8469 39.8238C42.8407 39.8352 42.8567 39.8617 42.8702 39.8972ZM42.8051 39.8972C42.793 39.916 42.7835 39.9364 42.7769 39.9579C42.7769 39.9579 42.8088 39.9807 42.81 39.9794C42.824 39.9626 42.8356 39.9439 42.8444 39.9237C42.8342 39.9138 42.8231 39.9049 42.8113 39.8972H42.8051ZM24.5056 63.631C24.5176 63.6052 24.5226 63.5764 24.52 63.5479C24.5174 63.5194 24.5073 63.4921 24.4908 63.4691C24.4908 63.5298 24.4662 63.5741 24.5056 63.631ZM37.9953 36.5384L37.9658 36.5182C37.9658 36.5245 37.9547 36.5321 37.9559 36.5372C37.9572 36.5422 37.967 36.5587 37.9719 36.5701L37.9953 36.5384ZM43.4255 38.9623C43.4058 38.9781 43.3877 38.9959 43.3715 39.0154C43.3715 39.0243 43.3715 39.042 43.3801 39.0559C43.3985 39.0559 43.4255 39.0483 43.4329 39.0357C43.4403 39.023 43.4255 38.9952 43.4255 38.9623ZM43.1061 39.5404C43.1221 39.4999 43.1061 39.4822 43.0815 39.4835C43.057 39.4848 43.0471 39.4974 43.0459 39.5075C43.0476 39.5287 43.0522 39.5496 43.0594 39.5695L43.1061 39.5404ZM46.7918 68.0878C46.7998 68.0962 46.8094 68.1029 46.8199 68.1075C46.8305 68.112 46.8418 68.1144 46.8533 68.1144C46.8647 68.1144 46.876 68.112 46.8866 68.1075C46.8971 68.1029 46.9067 68.0962 46.9147 68.0878C46.8791 68.0423 46.8373 68.0536 46.7943 68.0878H46.7918ZM44.476 39.0104L44.4625 38.9711L44.4219 38.9926C44.3986 39.0028 44.3973 39.0142 44.4219 39.0255C44.4465 39.0369 44.4637 39.0445 44.476 39.0104ZM34.5504 34.8015L34.5344 34.7813C34.5344 34.7813 34.5196 34.7926 34.5196 34.799C34.5196 34.8053 34.5282 34.8116 34.5332 34.8179L34.5504 34.8015ZM34.8931 34.0716C34.8931 34.0716 34.8833 34.0627 34.8796 34.064C34.8759 34.0652 34.8698 34.0741 34.8649 34.0791L34.8931 34.088V34.0716ZM34.9496 33.9792L34.9337 33.959C34.9337 33.959 34.9177 33.9704 34.9177 33.9767C34.9177 33.983 34.9263 33.9893 34.9312 33.9957L34.9496 33.9792ZM50.0979 57.6713L50.1065 57.6561H50.093L50.0979 57.6713ZM50.1507 57.7497L50.1434 57.7636H50.1544L50.1507 57.7497ZM25.0068 65.5792L25.0154 65.5691H24.997L25.0068 65.5792ZM25.2034 65.6892L25.2218 65.6753C25.2218 65.6753 25.212 65.6614 25.2058 65.6614C25.1997 65.6614 25.1948 65.669 25.1886 65.6728L25.2034 65.6892ZM25.3189 65.7259C25.3189 65.7259 25.3103 65.712 25.3041 65.712C25.298 65.712 25.2931 65.7196 25.2882 65.7234C25.2832 65.7272 25.2968 65.7373 25.3029 65.7373C25.309 65.7373 25.314 65.7297 25.3189 65.7259ZM25.4196 65.7778C25.4196 65.7778 25.4098 65.7626 25.4049 65.7626C25.4 65.7626 25.3926 65.7702 25.3864 65.7753C25.3803 65.7803 25.3975 65.7892 25.4024 65.7892C25.4073 65.7892 25.4147 65.7816 25.4196 65.7778ZM25.5032 65.8385L25.5142 65.8246H25.4958L25.5032 65.8385ZM49.3018 67.2061L49.2932 67.2174H49.3079L49.3018 67.2061ZM34.5012 34.9065L34.4865 34.8875C34.4865 34.8875 34.4717 34.8989 34.4717 34.904C34.4717 34.909 34.4791 34.9166 34.484 34.9229L34.5012 34.9065ZM25.9577 58.7567L25.9762 58.7403C25.9669 58.7331 25.9565 58.7275 25.9454 58.7238C25.9454 58.7238 25.9356 58.7339 25.9307 58.739L25.9577 58.7567ZM25.0977 65.6209L25.1149 65.6311V65.6159L25.0977 65.6209Z" fill="#181818"/>
<path d="M48.1445 46.6184C48.1445 46.8449 48.029 46.9347 47.8362 46.8803C47.677 46.8315 47.5273 46.7545 47.3939 46.6526C46.5147 46.0336 45.7837 45.2169 45.2562 44.2642C45.1591 44.0845 45.0485 43.9112 45.2316 43.6822C45.3827 43.4937 45.5031 43.4937 45.6714 43.6076C45.9359 43.8001 46.1764 44.0253 46.3877 44.2781C46.9344 44.8967 47.4479 45.5431 47.9443 46.206C48.0462 46.3222 48.1154 46.4648 48.1445 46.6184ZM47.4074 46.1491C47.4234 46.1618 47.4504 46.1883 47.4528 46.1858C47.4823 46.1567 47.4676 46.1352 47.4344 46.1213C47.4187 46.0275 47.3783 45.9401 47.3177 45.8683C46.8826 45.2233 46.3481 44.6558 45.7353 44.1883C45.7144 44.1718 45.6911 44.1705 45.6677 44.2098C46.1452 44.9478 46.7342 45.6025 47.4123 46.1491H47.4074Z" fill="#181818"/>
<path d="M28.9026 29.6349C28.9358 29.8285 28.8314 29.8879 28.6729 29.869C28.5572 29.8581 28.4435 29.8308 28.3351 29.788C25.7551 28.6659 23.1308 27.6488 20.6995 26.1952C20.3532 26.0085 20.0242 25.7896 19.7166 25.5412C19.6036 25.4413 19.4537 25.3325 19.5459 25.1617C19.638 24.9909 19.7916 24.9669 19.9795 24.9922C20.9268 25.1187 21.8113 25.459 22.6824 25.8385C24.3545 26.5684 25.9627 27.4337 27.5635 28.3129C28.0276 28.5629 28.4413 28.9017 28.7823 29.3111C28.8252 29.3519 28.8584 29.4023 28.8792 29.4585C28.9001 29.5147 28.9081 29.575 28.9026 29.6349ZM24.2218 26.8758C24.2329 26.9163 24.266 26.9214 24.298 26.9214C24.3053 26.9214 24.3127 26.9011 24.3213 26.891L24.2316 26.8657C24.2206 26.8176 24.1862 26.8075 24.1456 26.8138C24.1456 26.8138 24.1346 26.8467 24.1358 26.848C24.1641 26.8594 24.1923 26.867 24.2218 26.8758ZM26.9247 28.719C26.9443 28.7671 26.975 28.776 27.0168 28.7469L26.9505 28.6874C26.8083 28.5701 26.6589 28.4623 26.5033 28.3648C24.9761 27.5261 23.4441 26.6975 21.7991 26.1193C21.7352 26.0966 21.6762 26.0649 21.6074 26.1193C21.7303 26.1775 21.8531 26.2319 21.9686 26.2914C23.0854 26.8518 24.196 27.4299 25.3201 27.9714C25.8472 28.2345 26.3595 28.5369 26.9222 28.719H26.9247ZM20.2904 25.3299C20.3636 25.4184 20.4538 25.4905 20.5552 25.5416C20.6567 25.5928 20.7673 25.6219 20.8801 25.6272C21.0456 25.6406 21.2085 25.6776 21.3641 25.7373C22.1541 26.0194 22.9502 26.2863 23.6984 26.662C23.8213 26.7228 23.9441 26.7759 24.067 26.8328L24.0928 26.7632C22.8642 26.1737 21.6209 25.6146 20.283 25.3299H20.2904ZM24.9295 27.2275L24.9712 27.2047C24.9577 27.1959 24.9442 27.182 24.9307 27.1807C24.9172 27.1794 24.9037 27.1934 24.8901 27.201L24.9295 27.2275ZM24.4233 26.9834C24.4428 26.9993 24.4638 27.0133 24.4859 27.0251C24.4928 27.0256 24.4997 27.0245 24.5061 27.0219C24.5124 27.0192 24.5182 27.0152 24.5228 27.0099C24.5486 26.9783 24.5105 26.9707 24.4982 26.9669C24.4859 26.9631 24.4528 26.972 24.4159 26.9808L24.4233 26.9834ZM24.8127 27.1276C24.8127 27.1276 24.798 27.139 24.798 27.1428C24.8019 27.1534 24.8068 27.1635 24.8127 27.1731C24.8127 27.1731 24.8275 27.1617 24.8275 27.1579C24.8221 27.1457 24.8146 27.1346 24.8054 27.125L24.8127 27.1276ZM24.7353 27.101C24.7353 27.101 24.7243 27.0858 24.7206 27.0871C24.7099 27.09 24.6996 27.0942 24.6899 27.0997C24.6899 27.0997 24.7009 27.1149 24.7046 27.1137C24.7131 27.1098 24.7209 27.1047 24.728 27.0985L24.7353 27.101ZM24.6371 27.0491C24.6371 27.0491 24.626 27.034 24.6211 27.0352C24.6098 27.0383 24.5991 27.043 24.5891 27.0491C24.5891 27.0491 24.6002 27.0643 24.6051 27.0643C24.6133 27.0591 24.6211 27.0531 24.6285 27.0466L24.6371 27.0491Z" fill="#181818"/>
<path d="M50.9432 32.2005C52.6955 31.5018 54.5045 30.9646 56.3489 30.5951C54.6486 31.5021 52.7849 31.8146 50.9432 32.2005Z" fill="#F8F2EA"/>
<path d="M18.5532 44.5424C18.3689 44.5424 18.1944 44.5424 18.1023 44.3666C18.0569 44.2745 18.0381 44.1709 18.0484 44.0681C18.0586 43.9654 18.0974 43.8678 18.16 43.7872C18.4795 43.2913 18.9304 42.9485 19.4058 42.6297C21.1147 41.4684 22.901 40.4327 24.7513 39.5303C25.421 39.191 26.1362 38.9565 26.8731 38.8345C27.2515 38.7788 27.6262 38.8952 27.7196 39.1191C27.8043 39.3215 27.6422 39.6416 27.3252 39.8857C26.964 40.1641 26.5475 40.3399 26.1519 40.555C24.4958 41.4569 22.8642 42.407 21.229 43.3469C20.5659 43.7513 19.8767 44.1085 19.1662 44.4159C18.9736 44.5046 18.7641 44.5478 18.5532 44.5424ZM18.8419 43.5076C18.8419 43.4975 18.8935 43.5076 18.8579 43.4747C18.8579 43.4874 18.8493 43.5 18.8456 43.5114H18.8038L18.8198 43.538L18.8419 43.5076ZM18.6908 43.6088C18.6422 43.6343 18.6023 43.6745 18.5766 43.7241C18.5509 43.7736 18.5406 43.8301 18.547 43.8859C18.6269 43.7771 18.6896 43.7201 18.7068 43.6328L18.735 43.5886L18.6908 43.6088ZM20.5742 43.0066C22.7912 42.0512 24.9025 40.8539 26.8718 39.4354C26.8223 39.4143 26.7691 39.4042 26.7155 39.4058C26.662 39.4073 26.6093 39.4204 26.561 39.4442C25.7798 39.677 25.0239 39.992 24.3054 40.3842C23.2451 40.9863 22.1554 41.5392 21.1922 42.3071C20.939 42.491 20.7281 42.7298 20.5742 43.0066ZM19.5139 43.5468C19.3911 43.667 19.2535 43.7695 19.2105 43.9428C19.2031 43.9694 19.2559 43.9934 19.2866 43.9732C19.3587 43.9303 19.4178 43.8679 19.4574 43.7926C19.4971 43.7174 19.5158 43.6323 19.5115 43.5468H19.5139ZM20.4968 43.1951C20.3616 43.1572 20.4157 43.0535 20.3408 42.9991C20.272 43.0737 20.1675 43.1116 20.1565 43.2382C20.2707 43.2593 20.3885 43.2443 20.4943 43.1951H20.4968Z" fill="#181818"/>
<path d="M46.1886 25.1288C46.1207 25.1286 46.0537 25.1124 45.9928 25.0814C45.932 25.0504 45.8788 25.0054 45.8374 24.95C45.796 24.8946 45.7675 24.8301 45.754 24.7615C45.7406 24.693 45.7426 24.6222 45.7598 24.5545C45.9208 23.9625 46.2316 23.4425 46.5461 22.9327C47.5658 21.2742 48.8386 19.8333 50.211 18.4797C50.48 18.2232 50.798 18.0271 51.1447 17.9041C51.2675 17.8573 51.415 17.8168 51.5218 17.9243C51.6287 18.0319 51.5673 18.1659 51.5317 18.2887C51.447 18.5384 51.3225 18.7719 51.1631 18.9794C49.8264 20.9086 48.3632 22.7379 46.9442 24.6013C46.844 24.7273 46.7339 24.8445 46.6149 24.9517C46.5601 25.0107 46.4938 25.057 46.4203 25.0875C46.3468 25.118 46.2678 25.1321 46.1886 25.1288ZM46.1346 24.805C46.6063 24.5659 50.9395 18.93 51.0648 18.3975C50.95 18.4479 50.8466 18.5224 50.7614 18.6163C49.5299 19.8007 48.3988 21.0911 47.3803 22.4735C46.9663 23.0276 46.5203 23.5652 46.255 24.218C46.1788 24.4027 46.0891 24.5861 46.1346 24.8075V24.805Z" fill="#181818"/>
<path d="M49.593 40.8346C49.8168 40.8527 50.0372 40.9025 50.2478 40.9826C51.204 41.2973 52.1192 41.7315 52.9728 42.2755C53.6903 42.7347 54.4532 43.1193 55.1424 43.6266C55.3369 43.772 55.5235 43.9282 55.7014 44.0946C55.8181 44.2022 55.9471 44.3375 55.839 44.5134C55.7309 44.6892 55.5761 44.669 55.4029 44.6133C54.8118 44.4126 54.2392 44.1586 53.6915 43.8543C52.2504 43.0839 50.8142 42.3021 49.4369 41.4127C49.4308 41.4127 49.4222 41.4051 49.4161 41.4001C49.303 41.2976 49.0905 41.2369 49.1519 41.0458C49.2133 40.8548 49.4099 40.8308 49.593 40.8346ZM51.77 41.8681C51.7897 41.9175 51.8302 41.92 51.8732 41.9162C51.8807 41.9357 51.8947 41.9517 51.9128 41.9612C51.9309 41.9708 51.9518 41.9732 51.9715 41.9681C51.985 42.0288 52.0292 42.0225 52.0735 42.0174C52.0735 42.0541 52.0931 42.0655 52.1226 42.0693C52.141 42.1174 52.1816 42.1199 52.2221 42.1211C52.2381 42.1743 52.2786 42.1768 52.3216 42.1718C52.3376 42.2249 52.3794 42.2274 52.4224 42.2224L52.4457 42.2489C52.4457 42.2489 52.4457 42.2363 52.4457 42.2337C52.4386 42.2305 52.4312 42.228 52.4236 42.2261C52.4052 42.1781 52.3659 42.1755 52.3241 42.1755C52.3118 42.1148 52.27 42.1161 52.2246 42.1249C52.2123 42.0655 52.1705 42.0655 52.1251 42.0731C52.1251 42.0339 52.1054 42.025 52.0747 42.0212C52.0587 41.9719 52.0206 41.963 51.9764 41.9681C51.958 41.92 51.9199 41.9137 51.8757 41.9175C51.8683 41.858 51.8228 41.8631 51.7811 41.8605C51.7642 41.8468 51.7466 41.8341 51.7282 41.8226C51.7209 41.8308 51.7143 41.8397 51.7086 41.8492L51.77 41.8681ZM54.6854 43.9542C54.6989 43.9542 54.7137 43.9428 54.7259 43.9466C54.7382 43.9504 54.7628 43.9466 54.7456 43.9327C54.7284 43.9188 54.7051 43.9454 54.6829 43.9542C54.7444 43.8783 54.6829 43.8682 54.6326 43.848L54.5453 43.7872C53.2369 42.9991 52.0034 42.068 50.55 41.5544C50.5509 41.5682 50.5549 41.5816 50.5617 41.5934C50.5685 41.6053 50.578 41.6153 50.5893 41.6227C51.709 42.2687 52.829 42.9139 53.9495 43.5583C54.1245 43.6713 54.3128 43.7609 54.5097 43.8252C54.5306 43.8733 54.5699 43.8771 54.6129 43.872L54.6854 43.9542ZM52.6693 42.3805C52.6674 42.3744 52.6649 42.3684 52.6619 42.3628C52.6619 42.3628 52.6533 42.3628 52.6484 42.3628L52.6718 42.3818C52.6822 42.3925 52.6933 42.4027 52.7049 42.4121C52.7049 42.4121 52.716 42.4121 52.7221 42.4121L52.6693 42.3805ZM52.5329 42.3021L52.5489 42.3109V42.297L52.5329 42.3021Z" fill="#181818"/>
<path d="M35.1302 24.5342C35.1302 24.748 35.0074 24.8227 34.8243 24.6987C34.6039 24.5442 34.4151 24.3465 34.269 24.1168C33.6734 23.1809 33.1681 22.1873 32.7603 21.1502C32.1608 19.6891 31.5735 18.2203 31.1939 16.6769C31.1374 16.4467 31.0575 16.2139 31.2222 15.99C31.3868 15.7661 31.5453 15.7446 31.721 15.9761C32.0478 16.4113 32.2689 16.9097 32.4986 17.4031C33.1817 18.8756 33.6646 20.4304 34.258 21.9396C34.5282 22.6278 34.8096 23.3122 35.0393 24.0156C35.0865 24.1849 35.117 24.3586 35.1302 24.5342ZM31.8315 17.3436C31.8205 17.3209 31.818 17.2728 31.7824 17.2956C31.7468 17.3183 31.764 17.355 31.8045 17.3689C31.8156 17.4271 31.8217 17.4866 31.8377 17.5435C32.2898 19.1109 32.9938 20.5733 33.6363 22.061C33.8341 22.5308 34.0644 22.9853 34.3255 23.421C34.3784 23.5095 34.4214 23.6158 34.5639 23.612C34.5725 23.4273 34.4816 23.2882 34.4201 23.1427C33.9287 21.9864 33.4618 20.8213 33.0036 19.6498C32.7034 18.8358 32.3099 18.0616 31.8315 17.3436Z" fill="#181818"/>
<path d="M43.3507 19.0211C43.1974 20.5146 42.7951 21.9697 42.1614 23.3224C42.1095 23.4293 42.0474 23.5305 41.9759 23.6247C41.9071 23.7209 41.8235 23.8284 41.6958 23.798C41.6327 23.7761 41.5765 23.7371 41.5332 23.6849C41.49 23.6328 41.4612 23.5696 41.4501 23.502C41.3591 23.187 41.4193 22.8695 41.4636 22.5608C41.6356 21.3489 41.9906 20.185 42.3567 19.0249C42.4314 18.7517 42.5911 18.5112 42.8113 18.3405C43.0693 18.152 43.1971 18.1976 43.3027 18.5063C43.3495 18.6734 43.3657 18.8479 43.3507 19.0211ZM41.8407 23.0365C42.3604 21.6234 42.8003 20.1913 42.917 18.6758C42.3022 20.0493 41.9374 21.5273 41.8407 23.0365Z" fill="#181818"/>
<path d="M54.1215 37.3316C53.3844 37.4101 52.6473 37.2709 51.9163 37.2228C52.6571 37.1381 53.3856 37.3177 54.1215 37.3316Z" fill="#F8F2EA"/>
<path d="M51.5439 36.9407C52.0138 36.8548 52.4967 36.8825 52.9543 37.0217C52.485 36.9736 52.0133 37.0077 51.5439 36.9407Z" fill="#666666"/>
<path d="M30.5637 27.1782C29.7368 26.6566 28.9854 26.0178 28.3314 25.2806C28.2922 25.2421 28.2612 25.1957 28.24 25.1444C28.2189 25.093 28.2082 25.0378 28.2085 24.9821C29.1717 25.5324 29.9113 26.3028 30.5932 27.144L30.5637 27.1782Z" fill="#F8F2EA"/>
<path d="M30.5945 27.1504C30.6056 27.1716 30.6512 27.1875 30.6069 27.218C30.6069 27.218 30.5785 27.1928 30.5637 27.1795L30.5945 27.1504Z" fill="#F8F2EA"/>
<path d="M49.7932 27.5906C50.3043 26.8202 51.0058 26.2952 51.8818 25.8802C51.641 26.3002 50.2908 27.4135 49.7932 27.5906Z" fill="#F8F2EA"/>
<path d="M52.0415 26.0131C52.1189 25.8183 52.012 25.7487 51.8462 25.717C51.8622 25.7031 51.8708 25.6892 51.883 25.6867C52.0378 25.6424 52.2516 25.5058 52.3352 25.6639C52.4003 25.7828 52.2049 25.9435 52.0784 26.051L52.0415 26.0131Z" fill="#F8F2EA"/>
<path d="M52.0808 26.052C52.0669 26.0987 52.0316 26.1272 51.9976 26.0922C51.9636 26.0572 52.0278 26.0403 52.043 26.0131L52.0808 26.052Z" fill="#F8F2EA"/>
<path d="M38.3602 23.4741C38.1599 23.2122 38.0751 22.8972 37.9916 22.5885C37.7459 21.703 37.494 20.8301 37.5002 19.9028C37.4936 19.7575 37.5128 19.6122 37.5567 19.474C37.5691 19.4239 37.5942 19.3781 37.6294 19.3413C37.6645 19.3044 37.7085 19.2777 37.7569 19.264C37.8798 19.2374 37.9388 19.3462 37.9867 19.4272C38.1584 19.7502 38.272 20.1024 38.3221 20.467C38.4658 21.2906 38.6771 22.1028 38.7484 22.939C38.757 23.041 38.7545 23.1437 38.741 23.2451C38.7029 23.5298 38.6304 23.5702 38.3614 23.4716L38.3602 23.4741ZM37.8687 19.9218C37.8687 20.9794 38.1427 21.9813 38.4658 22.9744C38.4048 21.9331 38.203 20.9057 37.8663 19.9218H37.8687Z" fill="#181818"/>
<path d="M27.4271 34.4662C27.4369 34.5219 27.4811 34.5193 27.5217 34.5231C27.529 34.5775 27.5757 34.575 27.6114 34.5864C27.8902 34.7787 27.7735 35.1392 27.5106 35.2569C27.2477 35.3745 26.9897 35.3517 26.7268 35.353C25.8668 35.353 25.0314 35.1443 24.1886 35.0026C23.9932 34.971 23.7893 34.9748 23.6148 34.8584C23.5006 34.7812 23.3924 34.7015 23.4109 34.5358C23.4155 34.4584 23.4419 34.3841 23.4868 34.3218C23.5318 34.2596 23.5933 34.2122 23.664 34.1854C23.9314 34.0903 24.2149 34.0528 24.4969 34.0753C25.4832 34.113 26.464 34.2438 27.4271 34.4662ZM23.9871 34.551C24.5485 34.8837 26.8189 35.0317 27.1334 34.7534C26.0949 34.5791 25.0423 34.5104 23.9908 34.5484L23.9871 34.551ZM26.0265 35.1063C26.3331 35.1972 26.6557 35.2154 26.97 35.1595C26.6589 35.1129 26.3444 35.0951 26.0302 35.1063H26.0265Z" fill="#181818"/>
<path d="M29.0783 43.0548C28.68 43.6054 28.1756 44.0653 27.5966 44.4059L27.5635 44.3717C27.9529 43.7987 28.4984 43.4052 29.0464 43.0168C29.056 43.0303 29.0667 43.043 29.0783 43.0548Z" fill="#F8F2EA"/>
<path d="M29.0513 43.0188C29.0759 43.001 29.1019 42.9696 29.1278 43.0188C29.1278 43.0188 29.1006 43.0488 29.085 43.0638C29.0726 43.0498 29.0613 43.0348 29.0513 43.0188Z" fill="#F8F2EA"/>
<path d="M27.5969 44.4075C27.5771 44.4141 27.5439 44.43 27.5389 44.4234C27.5192 44.3969 27.5389 44.381 27.5636 44.3717L27.5969 44.4075Z" fill="#F8F2EA"/>
<path d="M38.1709 68.2775C34.5798 68.2193 30.743 67.6058 27.0511 66.1585C26.2444 65.844 25.4574 65.4782 24.6947 65.063C24.6329 65.043 24.5807 64.9997 24.5485 64.9418C24.5164 64.8838 24.5068 64.8155 24.5215 64.7505C24.594 64.1964 24.6616 63.6436 24.7402 63.0908C24.8076 62.5767 24.9313 62.0721 25.1088 61.5866C25.5904 60.3215 26.1273 59.0793 26.9873 58.0065C28.3593 56.299 29.8599 54.7056 31.4752 53.241C32.8317 51.9888 33.9786 50.5151 34.8698 48.8791C35.6352 47.5039 36.2212 46.0845 36.4448 44.5133C36.4681 44.3463 36.5173 44.335 36.6659 44.3691C38.7583 44.8619 40.9518 44.5937 42.8739 43.6101C43.0864 43.5051 43.0877 43.5747 43.0901 43.7657C43.1319 46.521 43.799 49.0891 45.2905 51.4003C45.8139 52.215 46.4404 52.9488 47.0375 53.7053C48.7041 55.8307 50.0194 58.2242 50.9309 60.7896C51.324 61.8788 51.4997 63.0376 51.6963 64.1825C51.7182 64.3693 51.7223 64.5579 51.7085 64.7455C51.7079 64.8512 51.6798 64.9549 51.627 65.0456C51.5743 65.1364 51.499 65.211 51.4088 65.2616C50.0451 66.1775 48.5523 66.7797 46.9945 67.2313C44.9565 67.7983 42.8638 68.1309 40.7546 68.2231C40.0089 68.2699 39.2607 68.2737 38.1709 68.2775Z" fill="#F8F2EA"/>
<path d="M44.342 46.9107C44.4477 46.8993 44.4502 46.9664 44.4649 47.0081C44.9625 48.4844 45.8851 49.6647 46.8532 50.8425C48.2047 52.4871 49.4861 54.1975 50.5058 56.0875C51.1843 57.3703 51.7347 58.7207 52.1484 60.118C52.161 60.1591 52.1692 60.2015 52.173 60.2445C52.1719 60.2899 52.1669 60.3352 52.1582 60.3798C51.7773 59.2691 51.437 58.1925 50.9296 57.183C50.28 55.9116 49.517 54.705 48.6506 53.5788C48.1801 52.9615 47.771 52.2935 47.3201 51.6585C46.7427 50.8488 46.0387 50.1467 45.4478 49.3497C44.9856 48.7326 44.6454 48.0282 44.4465 47.2763C44.4158 47.1587 44.3801 47.041 44.342 46.9107Z" fill="#F8F2EA"/>
<path d="M35.9104 28.0511C35.3404 28.8279 34.7556 29.592 34.2445 30.4117C33.0516 32.3283 32.1768 34.3967 31.4655 36.5448C31.4471 36.6017 31.4286 36.6573 31.4077 36.713C31.4077 36.7244 31.3856 36.7295 31.3746 36.737C31.3205 36.2652 32.2505 33.6579 32.9951 32.0424C33.7052 30.5028 34.8207 29.2833 35.881 28.017C35.8898 28.0292 35.8996 28.0407 35.9104 28.0511Z" fill="#F8F2EA"/>
<path d="M32.4127 37.1431C32.819 35.3319 33.4888 33.5943 34.3993 31.9892C35.1365 30.6559 36.0468 29.4452 36.9437 28.2244C37.1292 27.9714 37.1697 28.2535 37.3123 28.2737C36.1033 29.5236 35.1807 30.9494 34.3858 32.4674C33.6113 33.9709 32.9516 35.5342 32.4127 37.1431Z" fill="#F8F2EA"/>
<path d="M34.2469 28.1713C34.206 28.3694 34.122 28.5554 34.0012 28.7152C32.5785 30.7836 31.5895 33.0658 30.8462 35.4694C30.8278 35.5276 30.8462 35.6086 30.7664 35.6453C30.5354 34.6749 32.592 30.2245 34.2469 28.1713Z" fill="#F8F2EA"/>
<path d="M32.9127 28.4875C31.8807 30.0056 31.1485 31.6034 30.5465 33.2745C30.5305 33.3176 30.5293 33.4011 30.4802 33.3947C30.3573 33.372 30.4482 33.2998 30.4605 33.2429C30.7369 31.931 31.291 30.7356 31.9938 29.6236C32.2383 29.2352 32.4152 28.7519 32.9127 28.4875Z" fill="#F8F2EA"/>
<path d="M34.2629 38.8357C34.6057 37.5213 35.2237 36.3486 35.881 35.1936C36.1156 34.7825 36.365 34.3814 36.6329 33.9893C35.7815 35.5744 35.0959 37.2455 34.2629 38.8357Z" fill="#F8F2EA"/>
<path d="M51.5022 61.2412C52.0796 61.8497 52.372 63.7081 51.9936 64.4633C51.9187 63.3665 51.684 62.3089 51.5022 61.2412Z" fill="#F8F2EA"/>
<path d="M40.8112 69.11C41.8539 69.0365 42.8911 68.8967 43.917 68.6912C44.1959 68.633 44.4748 68.7001 44.7573 68.7241C44.2241 68.8013 43.6909 68.8848 43.1602 68.9531C42.4538 69.0416 41.7449 69.1188 41.0323 69.1365C40.9574 69.1365 40.8837 69.1302 40.8087 69.1264L40.8112 69.11Z" fill="#F8F2EA"/>
<path d="M39.2792 37.0356C39.2998 37.0975 39.3081 37.163 39.3035 37.2283C39.2988 37.2935 39.2814 37.3571 39.2521 37.4152C38.8557 38.0848 38.481 38.7662 38.128 39.4595C38.112 39.4911 38.1157 39.5772 38.0223 39.5392C38.4093 38.6967 38.8111 37.8681 39.2792 37.0356Z" fill="#F8F2EA"/>
<path d="M46.6714 67.6931C45.4895 68.0056 44.3076 68.3066 43.084 68.3762C44.3026 68.2037 45.5092 67.9502 46.696 67.6172C46.6882 67.6186 46.6808 67.6222 46.6748 67.6276C46.6688 67.6329 46.6643 67.6399 46.6618 67.6476C46.6593 67.6554 46.6588 67.6637 46.6605 67.6717C46.6622 67.6797 46.666 67.6871 46.6714 67.6931Z" fill="#F8F2EA"/>
<path d="M38.0199 36.4637C38.3397 35.8138 38.6967 35.184 39.0888 34.5775C38.9745 35.3985 38.3885 35.8679 38.0199 36.4637Z" fill="#F8F2EA"/>
<path d="M35.7176 44.1213C35.8957 44.1124 35.9706 44.1592 35.9252 44.3566C35.8527 44.6716 35.8109 44.9891 35.7495 45.3104C35.7348 45.3838 35.7384 45.4787 35.6168 45.5369C35.7021 45.0704 35.7359 44.5955 35.7176 44.1213Z" fill="#F8F2EA"/>
<path d="M36.4227 39.9453C36.6144 39.4241 36.7729 38.8851 37.2213 38.5056C36.9756 38.9973 36.7278 39.4894 36.478 39.9819L36.4227 39.9453Z" fill="#F8F2EA"/>
<path d="M39.6281 39.8921C39.5359 40.4955 39.2313 40.9952 38.9167 41.4899C39.1176 40.9409 39.3553 40.4071 39.6281 39.8921Z" fill="#F8F2EA"/>
<path d="M37.6722 34.8015L36.978 36.126C37.0198 35.7313 37.3331 35.1127 37.6722 34.8015Z" fill="#F8F2EA"/>
<path d="M26.1028 58.4303C26.3804 57.9243 26.6397 57.4183 27.0758 57.0261C26.7588 57.5026 26.4415 57.98 26.1237 58.4582L26.1028 58.4303Z" fill="#F8F2EA"/>
<path d="M40.1993 68.6255H41.6478C41.1957 68.752 40.6981 68.7242 40.2006 68.7102L40.1993 68.6255Z" fill="#666666"/>
<path d="M45.5228 33.8463C45.7212 33.5468 45.9867 33.3008 46.2968 33.129C45.9982 33.3251 45.8496 33.6894 45.5129 33.8438L45.5228 33.8463Z" fill="#F8F2EA"/>
<path d="M44.9907 68.4837L46.3127 68.1991L46.325 68.2623C45.8909 68.3932 45.4427 68.4676 44.9907 68.4837Z" fill="#666666"/>
<path d="M25.4738 59.7447C25.5612 59.4115 25.7161 59.1011 25.9283 58.8339L25.4738 59.7447Z" fill="#F8F2EA"/>
<path d="M40.8111 69.1099L40.8001 69.1264C40.6219 69.2681 40.4192 69.1757 40.2276 69.1884C40.0227 69.1994 39.8173 69.1935 39.6133 69.1707C40.0126 69.1732 40.4082 69.0657 40.8111 69.1099Z" fill="#666666"/>
<path d="M24.3361 62.9795C24.3807 62.6031 24.4805 62.2358 24.6321 61.8903C24.5412 62.2635 24.4515 62.6354 24.3606 63.0086C24.3614 63.0049 24.3613 63.0011 24.3604 62.9975C24.3595 62.9939 24.3578 62.9905 24.3554 62.9877C24.3531 62.9848 24.3501 62.9826 24.3467 62.9812C24.3433 62.9798 24.3397 62.9792 24.3361 62.9795Z" fill="#F8F2EA"/>
<path d="M35.2125 39.8048C35.2543 39.5752 35.3306 39.3536 35.4386 39.1482C35.3907 39.3924 35.3649 39.6428 35.2125 39.8048Z" fill="#F8F2EA"/>
<path d="M44.4822 38.9129L44.82 38.3335C44.7816 38.5633 44.6611 38.77 44.4822 38.9129Z" fill="#F8F2EA"/>
<path d="M24.336 62.9794C24.3397 62.9792 24.3433 62.9797 24.3467 62.9812C24.35 62.9826 24.353 62.9848 24.3554 62.9876C24.3578 62.9905 24.3595 62.9938 24.3604 62.9975C24.3613 63.0011 24.3614 63.0049 24.3606 63.0085C24.3287 63.2059 24.2955 63.4032 24.2636 63.5993L24.1935 63.5892C24.1917 63.377 24.2407 63.1676 24.336 62.9794Z" fill="#666666"/>
<path d="M24.4135 64.6114C24.355 64.3127 24.3736 64.0034 24.4675 63.7145C24.5056 64.0168 24.3828 64.3103 24.4135 64.6114Z" fill="#666666"/>
<path d="M46.6714 67.6931C46.6672 67.6871 46.6644 67.6801 46.6634 67.6728C46.6624 67.6655 46.6631 67.658 46.6655 67.651C46.668 67.644 46.672 67.6377 46.6773 67.6327C46.6826 67.6277 46.689 67.6241 46.696 67.6222C46.8906 67.5341 47.0983 67.4806 47.3103 67.4641C47.1115 67.5773 46.8955 67.6548 46.6714 67.6931Z" fill="#666666"/>
<path d="M42.3273 68.4635C42.4796 68.4786 42.6455 68.2788 42.8187 68.4635H42.3273Z" fill="#666666"/>
<path d="M44.3224 45.2749C44.2782 45.0713 44.1996 44.9308 44.2352 44.7689C44.3079 44.9265 44.338 45.1013 44.3224 45.2749Z" fill="#666666"/>
<path d="M25.2305 60.2558C25.2472 60.0828 25.313 59.9187 25.4197 59.7839C25.418 59.9601 25.3486 60.1283 25.2268 60.252L25.2305 60.2558Z" fill="#666666"/>
<path d="M48.3398 67.5933L48.6969 67.4388C48.6549 67.4936 48.6002 67.5365 48.5377 67.5635C48.4753 67.5905 48.4072 67.6008 48.3398 67.5933Z" fill="#666666"/>
<path d="M35.2387 33.3467C35.2391 33.4171 35.2242 33.4866 35.195 33.5503C35.1658 33.6139 35.1231 33.67 35.0701 33.7143C35.0935 33.5785 35.1517 33.4516 35.2387 33.3467Z" fill="#666666"/>
<path d="M34.4581 34.9584C34.4599 35.0145 34.4498 35.0703 34.4284 35.1219C34.407 35.1736 34.3748 35.2197 34.3341 35.2571C34.3386 35.1453 34.3827 35.039 34.4581 34.9584Z" fill="#666666"/>
<path d="M46.7659 68.122C46.6159 68.1986 46.5179 68.2496 46.3754 68.1986C46.4949 68.1327 46.6312 68.1059 46.7659 68.122Z" fill="#666666"/>
<path d="M26.1297 58.4584C26.1062 58.5499 26.0606 58.6338 25.9971 58.7022C25.9983 58.6 26.0383 58.5024 26.1086 58.4303L26.1297 58.4584Z" fill="#F8F2EA"/>
<path d="M46.9884 68.0493C47.0739 67.9982 47.1322 67.951 47.2165 67.9829C47.1595 68.0544 47.0963 68.0736 46.9884 68.0493Z" fill="#666666"/>
<path d="M34.2339 35.5068C34.2023 35.4518 34.2112 35.3759 34.2592 35.3759C34.335 35.3759 34.2769 35.4321 34.2655 35.4636C34.2572 35.4796 34.2465 35.4941 34.2339 35.5068Z" fill="#666666"/>
<path d="M49.2359 67.2389C49.1572 67.3186 49.1198 67.3533 49.0586 67.325C49.0773 67.2556 49.1372 67.2582 49.2359 67.2389Z" fill="#666666"/>
<path d="M48.9568 67.3631C48.9436 67.3942 48.919 67.4187 48.8884 67.4312C48.8577 67.4437 48.8235 67.4433 48.7932 67.4299C48.8084 67.4006 48.8331 67.3778 48.8631 67.3656C48.893 67.3534 48.9262 67.3525 48.9568 67.3631Z" fill="#666666"/>
<path d="M43.8518 38.3872C43.8339 38.4083 43.8185 38.4453 43.7928 38.4559C43.7672 38.4664 43.7595 38.4334 43.7723 38.4136C43.7909 38.3885 43.8119 38.3655 43.8351 38.345L43.8518 38.3872Z" fill="#666666"/>
<path d="M25.5953 65.8689C25.6243 65.8625 25.6545 65.8642 25.6826 65.8739C25.7108 65.8837 25.7358 65.901 25.7551 65.9242C25.6827 65.9859 25.6453 65.9229 25.5953 65.8689Z" fill="#666666"/>
<path d="M34.6336 34.5662C34.6715 34.6484 34.6336 34.6857 34.5872 34.7269C34.5432 34.6459 34.6019 34.6176 34.6336 34.5662Z" fill="#666666"/>
<path d="M34.982 33.8991C34.9479 33.8284 34.982 33.793 35.0401 33.7616C35.0469 33.7743 35.0508 33.7885 35.0515 33.803C35.0521 33.8175 35.0496 33.832 35.0439 33.8453C35.0383 33.8586 35.0298 33.8703 35.019 33.8797C35.0083 33.889 34.9956 33.8956 34.982 33.8991Z" fill="#666666"/>
<path d="M43.5153 38.8102C43.5227 38.7796 43.5365 38.751 43.5557 38.7264C43.5749 38.7017 43.599 38.6817 43.6264 38.6675L43.6464 38.6855C43.6422 38.7187 43.6314 38.7508 43.6146 38.7795C43.5979 38.8083 43.5755 38.8332 43.549 38.8526L43.5153 38.8102Z" fill="#666666"/>
<path d="M42.977 39.6155C43.0367 39.5788 43.0418 39.6273 43.038 39.6351C43.0272 39.6661 43.0093 39.6939 42.9859 39.7163C42.949 39.7477 42.9414 39.6953 42.9439 39.6849C42.9529 39.6608 42.9639 39.6375 42.977 39.6155Z" fill="#666666"/>
<path d="M42.8711 39.9022C42.8572 39.8629 42.8406 39.838 42.847 39.8262C42.8641 39.7991 42.8846 39.7745 42.908 39.7529C42.9182 39.7699 42.9385 39.7922 42.9347 39.804C42.9172 39.8391 42.8959 39.872 42.8711 39.9022Z" fill="#666666"/>
<path d="M42.8119 39.8972C42.8262 39.9051 42.8397 39.9146 42.8522 39.9255C42.8431 39.947 42.8313 39.967 42.817 39.9849C42.817 39.9849 42.7817 39.966 42.783 39.9619C42.7898 39.939 42.7995 39.9172 42.8119 39.8972Z" fill="#666666"/>
<path d="M24.505 63.6336C24.4618 63.5757 24.4858 63.5307 24.4906 63.469C24.5066 63.4925 24.5165 63.5202 24.519 63.5491C24.5215 63.5781 24.5167 63.6073 24.505 63.6336Z" fill="#666666"/>
<path d="M37.998 36.5401L37.9731 36.5744C37.9731 36.5621 37.96 36.5511 37.9561 36.5388C37.9521 36.5264 37.9626 36.525 37.9665 36.5182L37.998 36.5401Z" fill="#F8F2EA"/>
<path d="M43.552 38.8509C43.5406 38.9019 43.4961 38.9739 43.4694 38.9517C43.4058 38.8954 43.4859 38.8561 43.5177 38.8142L43.552 38.8509Z" fill="#666666"/>
<path d="M43.4246 38.9623C43.4246 38.996 43.4403 39.022 43.4319 39.0375C43.4234 39.0531 43.3981 39.0518 43.38 39.0583C43.38 39.044 43.3667 39.0259 43.3715 39.0168C43.3875 38.9967 43.4053 38.9785 43.4246 38.9623Z" fill="#666666"/>
<path d="M43.1073 39.5442L43.0597 39.5752C43.0523 39.554 43.0476 39.5317 43.0459 39.5091C43.0459 39.4984 43.0697 39.4835 43.0823 39.4835C43.0948 39.4835 43.1236 39.5011 43.1073 39.5442Z" fill="#666666"/>
<path d="M46.7943 68.0888C46.8388 68.0535 46.882 68.0417 46.9215 68.0888C46.9132 68.0975 46.9033 68.1045 46.8924 68.1092C46.8814 68.1139 46.8697 68.1163 46.8579 68.1163C46.846 68.1163 46.8343 68.1139 46.8234 68.1092C46.8125 68.1045 46.8026 68.0975 46.7943 68.0888Z" fill="#666666"/>
<path d="M49.4284 67.1391L49.5076 67.1174L49.4271 67.1377L49.4284 67.1391Z" fill="#666666"/>
<path d="M33.3636 50.5521C33.3578 50.5309 33.3598 50.5082 33.369 50.4884C33.3783 50.4686 33.3943 50.4532 33.4138 50.4452C33.4251 50.4954 33.4138 50.5363 33.3624 50.5508L33.3636 50.5521Z" fill="#666666"/>
<path d="M33.3121 50.6501L33.2616 50.6926L33.2505 50.6621L33.3158 50.6528L33.3121 50.6501Z" fill="#666666"/>
<path d="M33.3612 50.5439C33.363 50.5653 33.3594 50.5868 33.3507 50.6062C33.3421 50.6257 33.3288 50.6425 33.312 50.6548C33.312 50.6073 33.312 50.5637 33.3612 50.5453V50.5439Z" fill="#666666"/>
<path d="M50.2799 57.9971C50.2605 57.9886 50.2447 57.9732 50.2352 57.9536C50.2257 57.934 50.2232 57.9115 50.2282 57.8901C50.2711 57.9113 50.2723 57.9548 50.2799 57.9957V57.9971Z" fill="#666666"/>
<path d="M34.735 34.4412L34.6785 34.5177C34.6409 34.4728 34.6647 34.4385 34.6973 34.4055L34.735 34.4412Z" fill="#666666"/>
<path d="M50.2749 57.9951L50.3087 58.0546C50.2528 58.0611 50.29 58.0119 50.2784 57.9926L50.2749 57.9951Z" fill="#666666"/>
<path d="M35.9313 27.973C35.9534 27.9568 35.9664 27.9016 36.0002 27.938C36.0341 27.9744 36.0002 28.0013 35.9599 28.0067C35.9511 27.9949 35.9415 27.9836 35.9313 27.973Z" fill="#F8F2EA"/>
<path d="M34.7028 34.4091L34.7549 34.3031L34.7905 34.3371L34.7409 34.4445L34.7028 34.4091Z" fill="#666666"/>
<path d="M34.7469 34.3067L34.7978 34.1993C34.809 34.2114 34.8209 34.2227 34.8334 34.2334L34.7825 34.3407L34.7469 34.3067Z" fill="#666666"/>
<path d="M25.2272 60.252L25.221 60.3041L25.1997 60.2931L25.231 60.2561L25.2272 60.252Z" fill="#666666"/>
<path d="M44.4801 39.0135C44.4671 39.0504 44.4437 39.0408 44.4204 39.0299C44.397 39.019 44.3983 39.0053 44.4204 38.9944L44.4632 38.9712L44.4801 39.0135Z" fill="#F8F2EA"/>
<path d="M45.5146 33.8439C45.5602 33.8518 45.564 33.877 45.5361 33.9075C45.5298 33.9154 45.5121 33.9075 45.4994 33.9075L45.526 33.8439H45.5146Z" fill="#F8F2EA"/>
<path d="M33.9115 49.7325L33.9217 49.6583L33.9533 49.6742L33.9103 49.7312L33.9115 49.7325Z" fill="#666666"/>
<path d="M33.7924 49.8587L33.8571 49.7697L33.8695 49.7814C33.8723 49.8026 33.8688 49.8242 33.8594 49.8432C33.85 49.8622 33.8353 49.8777 33.8172 49.8875L33.7924 49.8587Z" fill="#666666"/>
<path d="M43.6246 38.6715C43.6333 38.6306 43.6431 38.5896 43.6899 38.5778C43.694 38.5883 43.696 38.5996 43.6959 38.611C43.6957 38.6225 43.6934 38.6337 43.689 38.6441C43.6846 38.6545 43.6783 38.6638 43.6704 38.6715C43.6625 38.6792 43.6532 38.685 43.6431 38.6886L43.6246 38.6715Z" fill="#666666"/>
<path d="M33.7856 49.953L33.7195 50.046L33.6953 50.0185C33.7144 49.9857 33.7335 49.953 33.7538 49.9203C33.7638 49.9318 33.7744 49.9428 33.7856 49.953Z" fill="#666666"/>
<path d="M50.3744 58.2054C50.3846 58.2162 50.3941 58.2276 50.4029 58.2397C50.4029 58.2397 50.4029 58.252 50.4029 58.2575L50.3822 58.2013L50.3744 58.2054Z" fill="#666666"/>
<path d="M33.597 50.1714L33.6593 50.0758L33.6848 50.1033C33.6759 50.1439 33.6644 50.1818 33.6212 50.1962L33.597 50.1714Z" fill="#666666"/>
<path d="M33.5734 50.251C33.5735 50.2715 33.568 50.2916 33.5576 50.309C33.5473 50.3263 33.5325 50.3403 33.5149 50.3492L33.4938 50.3243L33.5572 50.2327L33.5734 50.251Z" fill="#666666"/>
<path d="M34.5509 34.8025L34.5334 34.8197C34.5334 34.8197 34.5184 34.8064 34.5196 34.7998C34.5209 34.7932 34.5296 34.7879 34.5346 34.7812L34.5509 34.8025Z" fill="#666666"/>
<path d="M34.7961 34.2012C34.8094 34.1865 34.8237 34.1727 34.8389 34.1602C34.8704 34.188 34.8515 34.2118 34.8314 34.2357C34.819 34.2249 34.8073 34.2134 34.7961 34.2012Z" fill="#666666"/>
<path d="M34.8945 34.0761V34.094L34.8649 34.0844C34.8649 34.0844 34.8739 34.0706 34.8803 34.0678C34.8868 34.0651 34.8907 34.0733 34.8945 34.0761Z" fill="#666666"/>
<path d="M34.948 33.984L34.9298 34.0012C34.9298 34.0012 34.9165 33.988 34.9165 33.9813C34.9165 33.9747 34.9262 33.9681 34.9322 33.9628L34.948 33.984Z" fill="#666666"/>
<path d="M33.8562 49.7732C33.8636 49.7435 33.876 49.7189 33.9118 49.7254C33.8982 49.7461 33.8846 49.7668 33.8698 49.7862L33.8562 49.7732Z" fill="#666666"/>
<path d="M33.8158 49.8867L33.782 49.9542C33.7714 49.9441 33.7613 49.9332 33.7518 49.9218L33.7917 49.8595L33.8158 49.8867Z" fill="#666666"/>
<path d="M33.5565 50.2395L33.5941 50.1708L33.618 50.1964L33.5728 50.2584L33.5565 50.2395Z" fill="#666666"/>
<path d="M33.5164 50.3465L33.4619 50.3955C33.472 50.3703 33.4834 50.3465 33.4948 50.3213L33.5164 50.3465Z" fill="#666666"/>
<path d="M33.4128 50.448L33.4637 50.3921C33.4637 50.4267 33.4497 50.452 33.4103 50.4454L33.4128 50.448Z" fill="#666666"/>
<path d="M35.9603 27.9988C35.9612 28.0061 35.9607 28.0135 35.9586 28.0205C35.9566 28.0275 35.9531 28.034 35.9485 28.0395C35.9439 28.045 35.9382 28.0494 35.9319 28.0523C35.9255 28.0553 35.9186 28.0568 35.9116 28.0568C35.9003 28.0456 35.89 28.0335 35.8809 28.0204L35.9321 27.9651C35.9422 27.9757 35.9516 27.9869 35.9603 27.9988Z" fill="#F8F2EA"/>
<path d="M50.0988 57.6777L50.093 57.6586L50.109 57.66L50.0988 57.6777Z" fill="#666666"/>
<path d="M50.153 57.7535L50.1557 57.7724L50.1434 57.7708L50.153 57.7535Z" fill="#666666"/>
<path d="M50.2273 57.892L50.1937 57.8745C50.2285 57.8382 50.2141 57.8893 50.2237 57.896L50.2273 57.892Z" fill="#666666"/>
<path d="M25.0085 65.5833L25.002 65.5677L25.02 65.5695L25.0085 65.5833Z" fill="#666666"/>
<path d="M33.0606 50.9563L33.0402 50.9913C33.0198 50.9536 33.0402 50.9603 33.0642 50.9603L33.0606 50.9563Z" fill="#666666"/>
<path d="M25.2031 65.691L25.1887 65.6735C25.1947 65.6735 25.2007 65.6614 25.2055 65.6614C25.2103 65.6614 25.2163 65.6708 25.2211 65.6762L25.2031 65.691Z" fill="#666666"/>
<path d="M25.3196 65.7276C25.3196 65.7276 25.3083 65.7403 25.3033 65.7403C25.2982 65.7403 25.2932 65.7304 25.2882 65.7247C25.2831 65.7191 25.2995 65.712 25.3045 65.712C25.3096 65.712 25.3146 65.7219 25.3196 65.7276Z" fill="#666666"/>
<path d="M25.4188 65.7787C25.4188 65.7787 25.4081 65.7922 25.4021 65.7908C25.3961 65.7895 25.3925 65.7814 25.3865 65.776C25.3805 65.7706 25.3985 65.7626 25.4045 65.7626C25.4105 65.7626 25.4141 65.7733 25.4188 65.7787Z" fill="#666666"/>
<path d="M25.5049 65.8416L25.4958 65.822L25.5184 65.825L25.5049 65.8416Z" fill="#666666"/>
<path d="M33.1588 50.802L33.1438 50.8455C33.1081 50.811 33.1438 50.811 33.1611 50.8046L33.1588 50.802Z" fill="#666666"/>
<path d="M49.3037 67.2061L49.3111 67.2218L49.2932 67.2202L49.3037 67.2061Z" fill="#666666"/>
<path d="M27.12 56.9129C27.1324 56.8977 27.1458 56.8835 27.1603 56.8705C27.2018 56.9023 27.1678 56.9208 27.1464 56.9407L27.12 56.9129Z" fill="#F8F2EA"/>
<path d="M50.3768 58.2056L50.3535 58.1836C50.358 58.1826 50.3625 58.1826 50.367 58.1836C50.3704 58.19 50.3728 58.197 50.3743 58.2043L50.3768 58.2056Z" fill="#666666"/>
<path d="M33.6536 50.0797C33.6671 50.0582 33.6807 50.0366 33.6955 50.0164L33.719 50.0433L33.6783 50.108L33.6536 50.0797Z" fill="#666666"/>
<path d="M33.065 50.9604L33.0746 50.9209C33.1143 50.9515 33.0746 50.9476 33.0614 50.9566L33.065 50.9604Z" fill="#666666"/>
<path d="M33.1633 50.8066L33.1813 50.7666C33.2113 50.8026 33.1813 50.7999 33.1609 50.8039L33.1633 50.8066Z" fill="#666666"/>
<path d="M43.6897 38.5781L43.7116 38.5359C43.7369 38.5704 43.7197 38.5781 43.6909 38.5794L43.6897 38.5781Z" fill="#666666"/>
<path d="M34.5011 34.9074L34.484 34.9247C34.484 34.918 34.4705 34.9114 34.4718 34.9047C34.473 34.8981 34.4815 34.8928 34.4864 34.8875L34.5011 34.9074Z" fill="#666666"/>
<path d="M27.1471 56.9416C27.1308 56.9631 27.1183 57.0114 27.0858 56.9752C27.0532 56.9389 27.0958 56.9269 27.1208 56.9135L27.1471 56.9416Z" fill="#F8F2EA"/>
<path d="M25.9589 58.759L25.9308 58.7401C25.9308 58.7401 25.9423 58.7225 25.9461 58.7238C25.9576 58.7278 25.9684 58.7337 25.9781 58.7414L25.9589 58.759Z" fill="#F8F2EA"/>
<path d="M25.0941 65.6218L25.1167 65.6158L25.1152 65.6336L25.0941 65.6218Z" fill="#666666"/>
<path d="M47.4123 46.1491C46.7361 45.6028 46.1488 44.949 45.6726 44.2123C45.696 44.1731 45.7193 44.1743 45.7402 44.1908C46.353 44.6583 46.8875 45.2258 47.3226 45.8708C47.3832 45.9426 47.4235 46.0301 47.4393 46.1238L47.4123 46.1491Z" fill="#F8F2EA"/>
<path d="M47.4393 46.1212C47.4726 46.1358 47.4874 46.1583 47.4578 46.1888C47.4578 46.1888 47.4283 46.1636 47.4122 46.1504L47.4393 46.1212Z" fill="#F8F2EA"/>
<path d="M26.9222 28.7191C26.3595 28.5369 25.8472 28.2346 25.3177 27.9778C24.1936 27.4313 23.083 26.8582 21.9662 26.2978C21.8433 26.2383 21.7291 26.1839 21.605 26.1257C21.6689 26.065 21.7278 26.0966 21.7966 26.1257C23.4417 26.7039 24.9737 27.5325 26.5008 28.3712C26.6565 28.4687 26.8058 28.5765 26.948 28.6938L26.9222 28.7191Z" fill="#F8F2EA"/>
<path d="M20.283 25.33C21.6209 25.6146 22.863 26.1738 24.0915 26.7633L24.0657 26.8328C23.9429 26.7759 23.82 26.7228 23.6972 26.6621C22.9428 26.2825 22.1467 26.0194 21.3629 25.7373C21.2073 25.6777 21.0443 25.6406 20.8788 25.6272C20.7649 25.6228 20.6532 25.5941 20.5506 25.5429C20.4481 25.4917 20.3569 25.4192 20.283 25.33Z" fill="#F8F2EA"/>
<path d="M24.9247 27.2281L24.8828 27.1998C24.8972 27.1917 24.9129 27.1782 24.926 27.1782C24.9391 27.1782 24.9548 27.1944 24.9692 27.2038L24.9247 27.2281Z" fill="#666666"/>
<path d="M24.2255 26.88C24.1947 26.8694 24.1652 26.8615 24.1357 26.8496C24.1357 26.8496 24.1357 26.8153 24.146 26.814C24.1883 26.8074 24.2242 26.814 24.2357 26.8681L24.2255 26.88Z" fill="#F8F2EA"/>
<path d="M24.4159 26.9814C24.454 26.9723 24.4756 26.9605 24.4934 26.9644C24.5112 26.9683 24.5456 26.9762 24.5189 27.0089C24.5141 27.0143 24.5082 27.0186 24.5016 27.0213C24.495 27.024 24.4878 27.0251 24.4807 27.0246C24.4578 27.0124 24.4361 26.9979 24.4159 26.9814Z" fill="#666666"/>
<path d="M24.2321 26.8657L24.3256 26.8921C24.3167 26.9027 24.309 26.9238 24.3013 26.9238C24.268 26.9238 24.2333 26.9238 24.2218 26.8763L24.2321 26.8657Z" fill="#F8F2EA"/>
<path d="M26.9487 28.6874L27.0167 28.7484C26.9739 28.7782 26.9424 28.7691 26.9222 28.7198L26.9487 28.6874Z" fill="#F8F2EA"/>
<path d="M24.8065 27.1251C24.812 27.1349 24.8165 27.1453 24.8199 27.1561C24.8199 27.1561 24.8102 27.1664 24.8053 27.1716C24.7994 27.1618 24.7945 27.1514 24.7906 27.1406C24.7906 27.1406 24.8004 27.1303 24.8065 27.1251Z" fill="#666666"/>
<path d="M24.7323 27.0998C24.7216 27.1062 24.7102 27.1109 24.6982 27.1137C24.6982 27.1137 24.6877 27.104 24.6825 27.0985C24.6928 27.0924 24.7038 27.0878 24.7152 27.0846C24.7152 27.0846 24.7257 27.0943 24.7323 27.0998Z" fill="#666666"/>
<path d="M24.6317 27.048C24.6208 27.0546 24.6094 27.0602 24.5976 27.0646C24.5976 27.0646 24.5858 27.0535 24.5806 27.048C24.5912 27.0412 24.6026 27.0361 24.6146 27.0327C24.6146 27.0327 24.6317 27.0424 24.6317 27.048Z" fill="#666666"/>
<path d="M20.5742 43.0067C20.727 42.7302 20.9367 42.4914 21.1885 42.3071C22.1517 41.5392 23.2414 40.9864 24.3017 40.3842C25.0203 39.992 25.7761 39.677 26.5574 39.4442C26.6057 39.4204 26.6583 39.4073 26.7119 39.4058C26.7654 39.4043 26.8187 39.4144 26.8682 39.4354C24.9 40.8537 22.79 42.051 20.5742 43.0067Z" fill="#F8F2EA"/>
<path d="M19.5142 43.5469C19.5183 43.6334 19.4991 43.7194 19.4586 43.7954C19.4181 43.8713 19.358 43.9342 19.2848 43.9771C19.2539 43.9975 19.2005 43.9771 19.208 43.9465C19.2514 43.7716 19.384 43.6682 19.5142 43.5469Z" fill="#F8F2EA"/>
<path d="M20.4973 43.197C20.3898 43.2472 20.27 43.2623 20.1539 43.2404C20.1651 43.1128 20.2705 43.0745 20.3399 42.9991C20.4155 43.054 20.361 43.1587 20.4973 43.197Z" fill="#F8F2EA"/>
<path d="M18.7095 43.628C18.6909 43.7212 18.6276 43.7787 18.547 43.8833C18.5405 43.8271 18.551 43.7701 18.5769 43.7201C18.6028 43.6701 18.6431 43.6295 18.6921 43.6038L18.7095 43.628Z" fill="#666666"/>
<path d="M18.8457 43.5132L18.8582 43.4747C18.8945 43.5092 18.8482 43.4986 18.8419 43.5092L18.8457 43.5132Z" fill="#666666"/>
<path d="M18.8417 43.5077L18.8197 43.5458L18.8038 43.5182H18.8454L18.8417 43.5077Z" fill="#666666"/>
<path d="M18.6908 43.6091L18.7348 43.5835L18.7079 43.6282L18.6908 43.6091Z" fill="#666666"/>
<path d="M46.1346 24.8074C46.0891 24.5886 46.1788 24.4052 46.2575 24.2205C46.5265 23.5677 46.9688 23.03 47.3828 22.4759C48.4012 21.0935 49.5324 19.8031 50.7639 18.6188C50.8491 18.5249 50.9525 18.4503 51.0673 18.3999C50.9395 18.93 46.6064 24.5658 46.1346 24.8074Z" fill="#F8F2EA"/>
<path d="M54.5097 43.8252C54.3128 43.761 54.1245 43.6713 53.9495 43.5583C52.8266 42.9165 51.7065 42.2713 50.5894 41.6228C50.578 41.6154 50.5686 41.6053 50.5617 41.5935C50.5549 41.5816 50.5509 41.5682 50.55 41.5544C52.0034 42.0681 53.2369 42.9991 54.5454 43.7873L54.5097 43.8252Z" fill="#F8F2EA"/>
<path d="M51.9716 41.968C52.0178 41.968 52.0575 41.968 52.0742 42.0235C52.028 42.0235 51.9819 42.0353 51.9678 41.972L51.9716 41.968Z" fill="#666666"/>
<path d="M51.9757 41.9703C51.9552 41.9756 51.9334 41.9731 51.9145 41.9631C51.8956 41.9532 51.8809 41.9365 51.8732 41.9161C51.9193 41.9161 51.9591 41.9161 51.9783 41.9676L51.9757 41.9703Z" fill="#666666"/>
<path d="M52.1201 42.0732C52.1675 42.0653 52.2111 42.0653 52.224 42.1273C52.1817 42.1273 52.1393 42.1273 52.1201 42.0732Z" fill="#666666"/>
<path d="M52.2197 42.1251C52.2672 42.1159 52.3107 42.1146 52.3236 42.1779C52.2787 42.1779 52.2364 42.1779 52.2197 42.1251Z" fill="#666666"/>
<path d="M52.4268 42.2246C52.3819 42.2246 52.3383 42.2246 52.3217 42.1718C52.3652 42.1718 52.4063 42.1718 52.4255 42.2246H52.4268Z" fill="#666666"/>
<path d="M52.6693 42.381L52.724 42.4052C52.7177 42.4052 52.7088 42.4133 52.7062 42.4052C52.6942 42.3952 52.6827 42.3844 52.6719 42.3729L52.6693 42.381Z" fill="#666666"/>
<path d="M54.5466 43.7834L54.6369 43.8463C54.6308 43.8552 54.624 43.8635 54.6166 43.8712C54.5721 43.8712 54.5314 43.8712 54.5098 43.8227L54.5466 43.7834Z" fill="#F8F2EA"/>
<path d="M54.6873 43.9588L54.6129 43.873C54.6204 43.8652 54.6273 43.8568 54.6334 43.8479C54.6809 43.869 54.7501 43.8796 54.686 43.9588H54.6873Z" fill="#F8F2EA"/>
<path d="M54.683 43.9551C54.7048 43.9459 54.734 43.9249 54.7449 43.9328C54.7558 43.9407 54.7449 43.9564 54.7255 43.9472C54.706 43.938 54.6988 43.9472 54.6854 43.9551H54.683Z" fill="#F8F2EA"/>
<path d="M51.7737 41.8732L51.7036 41.8513C51.7097 41.8411 51.7166 41.8315 51.7244 41.8226C51.7438 41.835 51.7624 41.8487 51.7802 41.8636L51.7737 41.8732Z" fill="#666666"/>
<path d="M51.7802 41.8606C51.8238 41.8606 51.8712 41.8606 51.8789 41.92C51.8341 41.92 51.7918 41.92 51.7712 41.8698L51.7802 41.8606Z" fill="#666666"/>
<path d="M52.0698 42.0212C52.1026 42.0212 52.1275 42.035 52.1235 42.0775C52.0921 42.0775 52.0685 42.061 52.0711 42.0212H52.0698Z" fill="#666666"/>
<path d="M52.4188 42.2263C52.4267 42.2283 52.4345 42.231 52.4419 42.2345C52.4419 42.2345 52.4419 42.2453 52.4419 42.2507L52.4175 42.2223L52.4188 42.2263Z" fill="#666666"/>
<path d="M52.533 42.3028L52.5538 42.297L52.5523 42.3131L52.533 42.3028Z" fill="#666666"/>
<path d="M52.6717 42.3784L52.6484 42.359C52.6484 42.359 52.6595 42.359 52.6619 42.359C52.6649 42.3648 52.6673 42.3709 52.6692 42.3771L52.6717 42.3784Z" fill="#666666"/>
<path d="M31.8316 17.3436C32.31 18.0616 32.7034 18.8358 33.0036 19.6498C33.4619 20.8213 33.9288 21.9864 34.4202 23.1427C34.4816 23.2882 34.5725 23.4273 34.5639 23.612C34.4214 23.612 34.3784 23.5095 34.3256 23.421C34.0645 22.9853 33.8342 22.5308 33.6364 22.061C32.9938 20.5733 32.2849 19.1109 31.8377 17.5435C31.8218 17.4866 31.8156 17.4271 31.8046 17.3689L31.8316 17.3436Z" fill="#F8F2EA"/>
<path d="M31.8053 17.379C31.7639 17.3642 31.7589 17.317 31.7827 17.3008C31.8065 17.2846 31.8216 17.3277 31.8329 17.352L31.8053 17.379Z" fill="#F8F2EA"/>
<path d="M41.8407 23.0364C41.9374 21.5273 42.3022 20.0493 42.9169 18.6758C42.8002 20.1939 42.3604 21.6259 41.8407 23.0364Z" fill="#F8F2EA"/>
<path d="M37.8663 19.9219C38.2022 20.9059 38.4031 21.9333 38.4634 22.9745C38.1427 21.9814 37.8614 20.9795 37.8663 19.9219Z" fill="#F8F2EA"/>
<path d="M23.9908 34.5484C25.0435 34.5094 26.0974 34.5772 27.1372 34.7508C26.8227 35.0317 24.5523 34.8837 23.9908 34.5484Z" fill="#F8F2EA"/>
<path d="M26.0303 35.1064C26.3457 35.095 26.6615 35.1128 26.9738 35.1595C26.6594 35.2154 26.3368 35.1973 26.0303 35.1064Z" fill="#666666"/>
<defs>
<filter id="filter0_d_8058_1725" x="0" y="0" width="84" height="84.6514" filterUnits="userSpaceOnUse" color-interpolation-filters="sRGB">
<feFlood flood-opacity="0" result="BackgroundImageFix"/>
<feColorMatrix in="SourceAlpha" type="matrix" values="0 0 0 0 0 0 0 0 0 0 0 0 0 0 0 0 0 0 127 0" result="hardAlpha"/>
<feOffset dx="5" dy="4"/>
<feGaussianBlur stdDeviation="2"/>
<feComposite in2="hardAlpha" operator="out"/>
<feColorMatrix type="matrix" values="0 0 0 0 0 0 0 0 0 0 0 0 0 0 0 0 0 0 0.25 0"/>
<feBlend mode="normal" in2="BackgroundImageFix" result="effect1_dropShadow_8058_1725"/>
<feBlend mode="normal" in="SourceGraphic" in2="effect1_dropShadow_8058_1725" result="shape"/>
</filter>
</defs>
</svg>
