<svg width="84" height="80" viewBox="0 0 84 80" fill="none" xmlns="http://www.w3.org/2000/svg">
<g filter="url(#filter0_d_2402_5152)">
<path d="M0 36.0269C0.135838 26.8783 3.277 18.8231 9.63301 12.0093C14.8133 6.45698 21.2245 2.8906 28.6818 1.07642C30.9819 0.517003 33.3195 0.192108 35.6871 0.0614034C40.5827 -0.209716 45.347 0.411692 49.967 2.03094C54.6953 3.68828 58.8732 6.21349 62.5202 9.57447C65.6237 12.4343 68.0435 15.7744 70.0097 19.4595C72.0342 23.2552 73.3496 27.251 73.9398 31.4836C74.2046 33.3814 74.3235 35.2875 74.259 37.1995C73.9605 46.1016 70.781 53.8931 64.5807 60.4515C59.3276 66.0076 52.8634 69.5777 45.2748 71.1895C43.0983 71.6518 40.8958 71.9416 38.6656 71.9894C28.6957 72.2037 19.9045 69.1744 12.4081 62.7721C6.455 57.6873 2.67763 51.3022 0.910961 43.793C0.363003 41.4657 0.0690703 39.1041 0.0353026 36.714C0.0322328 36.4974 0.0138141 36.2816 0.000767448 36.0276L0 36.0269Z" fill="#181818"/>
<path d="M39.041 68.4185C33.8884 68.5096 29.0826 67.685 24.4741 65.8499C21.1679 64.5339 18.0789 62.8482 15.3906 60.5343C10.9708 56.7312 7.7391 52.1304 5.70306 46.7386C4.81359 44.3845 4.21805 41.9593 3.90109 39.4722C3.58797 37.0209 3.49358 34.5592 3.83816 32.1087C4.3017 28.8134 5.29478 25.6608 6.77902 22.6613C9.70607 16.746 14.0245 12.0197 19.7174 8.51234C23.4871 6.19028 27.5899 4.64423 31.9874 3.86075C34.1524 3.47461 36.3357 3.29311 38.5353 3.31328C41.9427 3.34465 45.2896 3.80324 48.5251 4.85037C50.7784 5.57933 52.8766 6.65335 54.8627 7.92006C61.3085 12.0317 65.8802 17.6318 68.7543 24.5636C70.0014 27.5713 70.778 30.6956 71.0889 33.9281C71.2393 35.4891 71.3237 37.0538 71.1886 38.617C71.0282 40.4738 70.6445 42.2954 70.1249 44.0887C68.5824 49.4058 65.8579 54.0775 61.9754 58.1025C57.9164 62.3104 53.0646 65.3368 47.4407 67.1644C45.7516 67.7134 43.9895 67.9853 42.2213 68.1929C41.1054 68.3236 39.985 68.3819 39.041 68.4192V68.4185Z" fill="#F8F2EA"/>
<path d="M38.4695 65.9937C33.7462 66.0777 29.341 65.3179 25.1165 63.6269C22.0859 62.4143 19.2544 60.8609 16.79 58.7288C12.7387 55.2243 9.77627 50.9848 7.90991 46.0165C7.09457 43.8472 6.54866 41.6125 6.25812 39.3207C5.9711 37.0619 5.88457 34.7935 6.20043 32.5354C6.62534 29.499 7.53565 26.5939 8.8962 23.83C11.5793 18.3792 15.5378 14.0241 20.7563 10.7922C24.2119 8.65246 27.9727 7.22782 32.0037 6.50587C33.9882 6.15005 35.9897 5.98281 38.0059 6.00139C41.1294 6.0303 44.1973 6.45287 47.1632 7.41777C49.2286 8.08948 51.152 9.07916 52.9726 10.2464C58.8812 14.0351 63.0719 19.1955 65.7064 25.5829C66.8496 28.3544 67.5615 31.2333 67.8464 34.212C67.9843 35.6504 68.0617 37.0922 67.9379 38.5327C67.7909 40.2436 67.4391 41.9222 66.9629 43.5746C65.5489 48.4742 63.0515 52.779 59.4925 56.4879C55.7718 60.3654 51.3243 63.1541 46.1691 64.8382C44.6208 65.3441 43.0056 65.5946 41.3847 65.7859C40.3618 65.9063 39.3348 65.96 38.4695 65.9944V65.9937Z" fill="#181818"/>
<path d="M10.3175 14.2689C11.1011 13.1202 11.9875 12.0476 12.9345 11.0259C13.4602 10.459 14.0857 9.98848 14.7296 9.47388C13.3359 11.182 11.8225 12.7258 10.3828 14.3324C10.326 14.3451 10.296 14.3324 10.3175 14.2689Z" fill="#F8F2EA"/>
<path d="M59.4786 10.5965C61.1754 11.9417 62.7157 13.4384 64.0833 15.1017C64.0948 15.1563 64.0787 15.1839 64.0165 15.1637C62.5545 13.5923 60.9813 12.1284 59.4064 10.666C59.3957 10.6092 59.4157 10.5816 59.4778 10.5965H59.4786Z" fill="#F8F2EA"/>
<path d="M73.43 33.7885C73.6145 35.1852 73.7109 36.5856 73.5708 37.9912C73.5188 38.5185 73.4361 39.0428 73.3672 39.5687C73.2072 39.4955 73.3136 39.3752 73.3121 39.2736C73.3971 37.9681 73.4751 36.6625 73.4292 35.3532C73.4116 34.8521 73.3886 34.3509 73.3672 33.8498C73.3465 33.7893 73.3733 33.7743 73.43 33.7878V33.7885Z" fill="#F8F2EA"/>
<path d="M41.5725 69.4867C40.7843 69.586 39.9969 69.6883 39.208 69.7839C38.4666 69.8743 37.723 69.9497 36.9824 70.0498C36.7867 70.0767 36.6002 70.0468 36.4098 70.0424C36.3538 70.0409 36.2487 70.0894 36.2617 69.9662C36.2702 69.8878 36.3362 69.8571 36.4152 69.8519C36.6976 69.834 36.9793 69.8056 37.2625 69.7959C38.5357 69.7526 39.7997 69.6107 41.0621 69.4531C41.2302 69.4321 41.3998 69.406 41.5725 69.4859V69.4867Z" fill="#F8F2EA"/>
<path d="M23.3288 5.9447C24.8514 5.11341 26.516 4.64586 28.1699 4.15217C28.2359 4.13051 28.252 4.15964 28.2405 4.2179C26.6058 4.76611 24.9781 5.33449 23.3925 6.00818C23.3296 6.02611 23.3142 5.99997 23.3288 5.9447Z" fill="#F8F2EA"/>
<path d="M57.7627 63.2153C59.0927 62.0815 60.4541 60.9806 61.6867 59.7393C61.3889 60.3054 58.6 62.7895 57.7627 63.2153Z" fill="#F8F2EA"/>
<path d="M63.7122 11.9377C64.2939 12.3538 66.5279 14.9066 66.8395 15.4869C65.716 14.3726 64.8326 13.0566 63.7122 11.9377Z" fill="#F8F2EA"/>
<path d="M57.9416 8.48254C57.1358 8.02694 56.3307 7.57059 55.5249 7.11499C56.4128 7.43092 57.3522 7.65798 57.9416 8.48254Z" fill="#F8F2EA"/>
<path d="M10.1333 16.1561C10.6851 15.383 11.3083 14.663 11.9268 13.9408C11.9698 13.89 12.0066 13.7705 12.1087 13.8452C12.2215 13.9281 12.1218 13.9946 12.065 14.0603C11.4426 14.7803 10.8202 15.5011 10.1985 16.2218C10.144 16.2308 10.1134 16.2166 10.1341 16.1561H10.1333Z" fill="#F8F2EA"/>
<path d="M72.9665 42.4324C72.8061 43.4706 72.5575 44.4886 72.2206 45.4864C72.2021 45.5081 72.183 45.5088 72.1622 45.4887C72.4316 44.4109 72.7056 43.3347 72.8998 42.2405C73.0448 42.2636 72.9627 42.3622 72.9665 42.4317V42.4324Z" fill="#F8F2EA"/>
<path d="M64.0176 15.1636C64.0398 15.1426 64.0621 15.1225 64.0844 15.1016C64.8288 15.9336 65.478 16.8336 66.0943 17.7575C66.115 17.8157 66.0866 17.8255 66.036 17.8135C65.4143 16.8933 64.709 16.0337 64.0176 15.1636Z" fill="#F8F2EA"/>
<path d="M72.9667 42.4322C72.9368 42.371 72.9797 42.2851 72.9 42.241C73.0372 41.2522 73.1744 40.2633 73.3116 39.2744C73.35 39.3693 73.2909 39.4813 73.3668 39.5694C73.2334 40.524 73.1001 41.4777 72.9675 42.4322H72.9667Z" fill="#F8F2EA"/>
<path d="M71.8644 46.6153C71.6971 47.4377 71.3418 48.198 71.0455 48.9777C70.9934 49.1152 70.9327 49.2496 70.8759 49.3855C70.8253 49.3923 70.7892 49.387 70.823 49.3243C71.1676 48.4094 71.5298 47.4996 71.8168 46.5653C71.8398 46.5571 71.8629 46.5496 71.8782 46.5758C71.8844 46.5862 71.8759 46.6012 71.8652 46.6153H71.8644Z" fill="#F8F2EA"/>
<path d="M72.3912 26.738C72.6741 27.5947 72.9462 28.4544 72.9745 29.3626C72.7798 28.488 72.5859 27.6134 72.3912 26.738Z" fill="#F8F2EA"/>
<path d="M35.5971 2.63022C36.2602 2.56749 36.9202 2.46591 37.5863 2.44873C37.5894 2.48458 37.5932 2.51968 37.5963 2.55553C36.9509 2.60184 36.3055 2.64815 35.6593 2.69446C35.5979 2.71014 35.5802 2.68549 35.5963 2.62948L35.5971 2.63022Z" fill="#F8F2EA"/>
<path d="M2.73824 35.9902V37.7551C2.70621 37.7551 2.67417 37.7536 2.64214 37.7529C2.50638 37.118 2.74434 36.4951 2.73824 35.9902Z" fill="#F8F2EA"/>
<path d="M4.627 25.2096C4.5059 25.5308 4.38173 25.8519 4.26445 26.1746C4.23379 26.259 4.197 26.327 4.09582 26.2874C3.96552 26.2358 4.0644 26.1626 4.09352 26.1044C4.24299 25.8041 4.39629 25.5069 4.54882 25.2081C4.57565 25.1835 4.60171 25.1842 4.62777 25.2104L4.627 25.2096Z" fill="#F8F2EA"/>
<path d="M29.8736 3.26338C29.2842 3.40603 28.6956 3.54869 28.1062 3.69209C28.638 3.40305 29.2244 3.30296 29.8107 3.20139C29.8706 3.18496 29.8882 3.20886 29.8736 3.26413V3.26338Z" fill="#F8F2EA"/>
<path d="M4.07283 45.2555C3.79076 44.7013 3.71104 44.0919 3.62903 43.4824C3.77696 44.0732 3.9249 44.6647 4.07283 45.2555Z" fill="#F8F2EA"/>
<path d="M10.133 16.156C10.1545 16.1777 10.176 16.2001 10.1975 16.2217C9.9281 16.5825 9.65872 16.944 9.38935 17.3047C9.36632 17.2898 9.34407 17.2748 9.32104 17.2599C9.58121 16.8857 9.82833 16.5026 10.133 16.156Z" fill="#F8F2EA"/>
<path d="M15.032 61.8982C15.3927 62.1768 15.7534 62.4554 16.1141 62.734C15.55 62.4808 15.2008 62.2096 15.032 61.8982Z" fill="#F8F2EA"/>
<path d="M43.1146 2.1073C42.7048 2.07743 42.2942 2.04681 41.8545 2.01469C42.3065 1.78465 42.7087 2.05502 43.1223 2.03411C43.1192 2.05801 43.1169 2.08266 43.1139 2.10656L43.1146 2.1073Z" fill="#F8F2EA"/>
<path d="M50.6332 5.09546C51.1067 5.15446 51.5173 5.33147 51.891 5.59736C51.472 5.43006 51.0522 5.26276 50.6332 5.09546Z" fill="#F8F2EA"/>
<path d="M28.2405 4.21792C28.2167 4.19627 28.1937 4.17386 28.1699 4.1522C28.5137 3.99834 28.8813 3.93187 29.2428 3.84448C29.2505 3.86838 29.2582 3.89228 29.2658 3.91618C28.9236 4.01701 28.582 4.1171 28.2398 4.21792H28.2405Z" fill="#F8F2EA"/>
<path d="M45.1942 69.1997C45.4866 69.1153 45.779 69.0302 46.0714 68.9458C45.8972 69.2401 45.5764 69.1729 45.3208 69.264C45.2579 69.2804 45.1865 69.314 45.1942 69.1997Z" fill="#F8F2EA"/>
<path d="M39.5327 70.4614C40.0016 70.4532 40.4644 70.324 40.9379 70.4106C40.469 70.4188 40.0078 70.5675 39.5327 70.4614Z" fill="#F8F2EA"/>
<path d="M13.9777 60.0916C14.244 60.335 14.511 60.5793 14.7773 60.8228C14.7605 60.8399 14.7428 60.8579 14.7259 60.875C14.4312 60.6592 14.1734 60.4067 13.9777 60.0916Z" fill="#F8F2EA"/>
<path d="M15.5831 61.5884C15.2999 61.3994 15.0436 61.182 14.8271 60.9214C15.1234 61.0939 15.382 61.3105 15.6261 61.545C15.6322 61.5779 15.6176 61.5928 15.5831 61.5884Z" fill="#F8F2EA"/>
<path d="M5.62126 50.1787C5.43423 49.8807 5.31159 49.5588 5.26331 49.207C5.39821 49.5177 5.53311 49.8292 5.66801 50.1399C5.66801 50.1705 5.65268 50.1832 5.62202 50.1795L5.62126 50.1787Z" fill="#F8F2EA"/>
<path d="M59.4781 10.5962C59.4544 10.6194 59.4306 10.6426 59.4068 10.6657C59.2237 10.5029 59.0405 10.3401 58.858 10.1772C59.1117 10.2587 59.3072 10.4118 59.4789 10.5962H59.4781Z" fill="#F8F2EA"/>
<path d="M66.0359 17.8136C66.0551 17.7949 66.075 17.7762 66.0941 17.7576C66.2942 17.9742 66.4314 18.2266 66.5272 18.5074C66.3632 18.2759 66.1999 18.0444 66.0359 17.8136Z" fill="#F8F2EA"/>
<path d="M29.8737 3.26359C29.853 3.24268 29.8315 3.22176 29.8108 3.20085C30.1078 3.10525 30.4094 3.03205 30.7241 3.02832C30.731 3.03579 30.7371 3.044 30.744 3.05147C30.4654 3.16799 30.1661 3.20085 29.8737 3.26284V3.26359Z" fill="#F8F2EA"/>
<path d="M20.0312 64.5764C20.2505 64.7011 20.4705 64.8259 20.6897 64.9499C20.4237 64.908 20.1999 64.787 20.0312 64.5764Z" fill="#F8F2EA"/>
<path d="M45.1942 69.1997C45.2095 69.2714 45.2786 69.2423 45.3208 69.2639C45.0583 69.3237 44.7966 69.3842 44.5342 69.4439C44.7353 69.302 44.9624 69.2438 45.1942 69.1997Z" fill="#F8F2EA"/>
<path d="M73.4296 33.7888C73.409 33.8097 73.3884 33.8298 73.367 33.8507C73.2862 33.6334 73.3083 33.4116 73.3632 33.1868L73.4296 33.7888Z" fill="#F8F2EA"/>
<path d="M16.5164 62.3014C16.314 62.1842 16.1216 62.0542 15.9607 61.8854C15.9591 61.8563 15.9745 61.8458 16.0028 61.8525C16.2037 61.9377 16.3462 62.0983 16.5149 62.2252C16.5417 62.2499 16.5424 62.2753 16.5164 62.3014Z" fill="#F8F2EA"/>
<path d="M23.3283 5.94459C23.3497 5.96551 23.3704 5.98717 23.3919 6.00808C23.2302 6.11787 23.0508 6.18659 22.8553 6.21646C22.9941 6.09173 23.1504 6.00061 23.3275 5.94385L23.3283 5.94459Z" fill="#F8F2EA"/>
<path d="M35.5965 2.62988C35.6172 2.65154 35.6387 2.6732 35.6594 2.69486C35.4578 2.79494 35.2478 2.7464 35.0347 2.70009C35.2217 2.67694 35.4095 2.65304 35.5965 2.62988Z" fill="#F8F2EA"/>
<path d="M4.62702 25.2097C4.60109 25.2097 4.57439 25.2082 4.54846 25.2074C4.62549 25.0409 4.70253 24.8743 4.77956 24.7085C4.77422 24.8937 4.74371 25.067 4.62702 25.2097Z" fill="#F8F2EA"/>
<path d="M5.91992 21.9958C6.01255 21.8114 6.10518 21.6261 6.19781 21.4417C6.22078 21.4521 6.24451 21.4626 6.26748 21.473C6.17944 21.6597 6.12432 21.8614 5.91992 21.9958Z" fill="#F8F2EA"/>
<path d="M71.3249 27.5117C71.2799 27.3354 71.2349 27.1592 71.1899 26.9829C71.3219 27.1136 71.3783 27.269 71.3806 27.4422C71.4096 27.502 71.3806 27.5177 71.3242 27.5117H71.3249Z" fill="#F8F2EA"/>
<path d="M70.8219 49.3245C70.8395 49.3446 70.8571 49.3655 70.8747 49.3857C70.8181 49.5418 70.7545 49.6942 70.6014 49.86C70.6581 49.6389 70.7262 49.4768 70.8219 49.3245Z" fill="#F8F2EA"/>
<path d="M10.3167 14.2686C10.3381 14.2895 10.3603 14.3111 10.3817 14.332C10.309 14.4934 10.1773 14.6076 10.0426 14.7227C10.097 14.5494 10.1842 14.3963 10.3167 14.2686Z" fill="#F8F2EA"/>
<path d="M5.66739 50.1401C5.76385 50.3045 5.85495 50.4695 5.87485 50.6652C5.75849 50.5188 5.66356 50.3627 5.62146 50.1797C5.63677 50.1663 5.65208 50.1536 5.66739 50.1401Z" fill="#F8F2EA"/>
<path d="M16.517 62.3015C16.517 62.2761 16.5163 62.2507 16.5155 62.2253C16.6669 62.3105 16.8053 62.4113 16.91 62.5562C16.764 62.4942 16.6172 62.4345 16.517 62.3023V62.3015Z" fill="#F8F2EA"/>
<path d="M70.8358 25.5578C70.7183 25.4315 70.6306 25.2949 70.6619 25.0581C70.7344 25.2665 70.7855 25.4121 70.8358 25.5578Z" fill="#F8F2EA"/>
<path d="M71.3258 27.5116C71.3449 27.4884 71.3632 27.4653 71.3822 27.4421C71.4585 27.5811 71.4806 27.7312 71.457 27.8925C71.4135 27.7655 71.3693 27.6386 71.3258 27.5116Z" fill="#F8F2EA"/>
<path d="M72.1618 45.4886C72.1816 45.4968 72.2007 45.4953 72.2197 45.4863C72.1763 45.6223 72.1328 45.7589 72.0634 45.9763C72.039 45.741 72.0786 45.6103 72.1618 45.4893V45.4886Z" fill="#F8F2EA"/>
<path d="M30.7239 3.02892C30.8833 2.9505 31.0504 2.91614 31.2918 2.94377C31.0688 2.98784 30.9163 3.06328 30.7438 3.05207C30.7369 3.0446 30.7308 3.03639 30.7239 3.02892Z" fill="#F8F2EA"/>
<path d="M15.9601 61.8855C15.8344 61.7862 15.7087 61.6876 15.583 61.5882C15.5976 61.574 15.6114 61.5591 15.6259 61.5449C15.7693 61.6271 15.8957 61.7287 16.0023 61.8526C15.9839 61.8579 15.9701 61.8691 15.9601 61.8855Z" fill="#F8F2EA"/>
<path d="M71.8645 46.6155C71.8484 46.599 71.8324 46.5818 71.8164 46.5654C71.8545 46.4355 71.8927 46.3055 71.9308 46.1755C71.9514 46.3309 71.9575 46.4825 71.8637 46.6155H71.8645Z" fill="#F8F2EA"/>
</g>
<path d="M38.7552 17.9932C38.734 18.119 38.7191 18.2708 38.5664 18.2947C38.5399 18.2969 38.5133 18.2933 38.4885 18.2842C38.4637 18.275 38.4413 18.2606 38.4229 18.2418C38.4045 18.2231 38.3906 18.2006 38.3822 18.1759C38.3738 18.1513 38.3711 18.1251 38.3744 18.0993C38.3826 18.0378 38.4115 17.9807 38.4564 17.937C38.5013 17.8934 38.5598 17.8656 38.6226 17.858C38.718 17.8424 38.7711 17.8923 38.7552 17.9932Z" fill="#F8F2EA"/>
<path d="M22.8554 41.9346C22.9001 40.7774 22.947 39.8655 23.1354 38.9672C23.2145 38.5538 23.331 38.1481 23.4835 37.7548C23.7795 37.027 23.8679 36.269 23.9456 35.5037C24.0276 34.6865 24.0148 33.8682 24.0169 33.0478C24.0169 31.4456 23.9679 29.8412 24.0872 28.241C24.1971 26.9877 24.5209 25.7612 25.0453 24.6123C26.3495 21.6313 28.5182 19.5175 31.6343 18.3612C32.5925 18.0046 33.5645 17.6906 34.5961 17.6168C36.44 17.4837 38.2158 17.701 39.8884 18.5442C42.0059 19.6142 43.8115 21.0157 44.9986 23.0828C45.5069 23.9786 45.8772 24.9428 46.0972 25.9442C46.39 27.247 46.7456 28.5342 47.0714 29.8287C47.6601 32.1672 48.399 34.4629 49.042 36.7858C49.2315 37.471 49.4167 38.1582 49.5743 38.8518C49.7872 39.8073 50.0853 40.7441 50.2802 41.7049C50.5313 42.928 50.6797 44.1691 50.7241 45.4158C50.7709 46.504 50.6269 47.592 50.2983 48.6328C49.717 50.4347 48.6279 51.9226 47.147 53.1287C46.1526 53.9387 44.9592 54.2953 43.7061 54.496C42.3753 54.7039 41.019 54.7601 39.7106 55.1084C38.5586 55.4141 37.4099 55.7322 36.258 56.0359C35.9749 56.1226 35.6851 56.1865 35.3914 56.2272C34.2735 56.3405 33.1642 56.274 32.107 55.8809C29.8993 55.0673 27.9802 53.6466 26.5816 51.7905C24.9421 49.6569 23.87 47.2728 23.1748 44.7129C22.9427 43.8047 22.8353 42.8705 22.8554 41.9346ZM48.4384 45.3523V45.3461C48.4384 45.5405 48.3021 45.6799 48.2414 45.8504C48.0977 46.2486 47.922 46.6375 47.9625 47.1054C48.0914 46.9957 48.1872 46.8537 48.2393 46.6947C48.4522 46.0614 48.7716 45.4709 49.0654 44.8709C49.5317 43.9133 49.7926 42.9162 49.7404 41.8494C49.7351 41.7454 49.7553 41.6269 49.6052 41.5759C49.6036 42.3314 49.424 43.0764 49.0803 43.7532C48.6279 44.6276 48.0359 45.3669 47.148 45.8483C46.3883 46.2448 45.5505 46.4777 44.6909 46.5314C44.165 46.574 43.639 46.4929 43.1142 46.5314C42.9025 46.5414 42.6952 46.5937 42.5052 46.6853C42.8273 46.7203 43.151 46.7387 43.4751 46.7404C44.051 46.7706 44.6238 46.8444 45.2051 46.7872C46.2857 46.6832 47.2779 46.3838 48.0966 45.6507C48.2063 45.5499 48.2946 45.4199 48.4384 45.3523ZM30.4952 43.8769C30.9003 43.8272 31.3114 43.8508 31.7078 43.9466C31.7748 43.9611 31.8813 44.01 31.909 43.9383C31.9367 43.8665 31.8398 43.8083 31.7663 43.7844C31.4022 43.6638 31.0413 43.5265 30.6453 43.5411C30.0981 43.5608 29.5508 43.5983 29.0015 43.5691C28.6161 43.5494 28.2296 43.5276 27.8794 43.3456C27.5845 43.1917 27.4695 42.9172 27.5717 42.6365C27.6226 42.4941 27.6966 42.3607 27.791 42.2414C27.8555 42.1713 27.9035 42.0882 27.9315 41.9981C27.9453 41.9602 27.9463 41.9189 27.9344 41.8804C27.9225 41.8419 27.8984 41.8081 27.8655 41.7839C27.7942 41.7381 27.7474 41.814 27.6973 41.8515C27.3956 42.0781 27.1582 42.3762 27.0075 42.7176C26.7413 43.3061 26.95 43.8613 27.5259 44.1732C28.022 44.4415 28.549 44.401 29.0845 44.3812C29.7765 44.3573 30.4409 44.1389 31.1318 44.1275C31.1774 44.1315 31.2232 44.1219 31.2631 44.1C31.303 44.0781 31.3351 44.0449 31.3554 44.0048L30.5037 43.9372L30.4952 43.8769ZM30.6719 45.1392C30.246 45.1184 29.8606 45.2702 29.4742 45.4106C28.878 45.6279 28.2839 45.6799 27.6718 45.4719C26.6072 45.1111 26.0056 44.3282 25.6351 43.3456C25.4318 42.8028 25.3445 42.2258 25.1869 41.6674C25.1537 41.534 25.1369 41.3972 25.1369 41.2598C25.1167 40.6495 25.2529 40.0652 25.4212 39.4839C25.5042 39.198 25.5755 38.9079 25.6532 38.6199C25.3147 39.1138 25.1561 39.6659 25.0294 40.2326C24.9896 39.8919 25.0058 39.5472 25.0773 39.2115C25.1944 38.5149 25.4339 37.8526 25.6501 37.183C25.6979 37.0075 25.6979 36.8229 25.6501 36.6475C25.4563 37.0447 25.286 37.3805 25.1284 37.7226C24.8544 38.2942 24.6851 38.9083 24.628 39.537C24.5897 40.0319 24.6536 40.5216 24.6514 41.0145C24.6433 41.993 24.7614 42.9687 25.0028 43.9185C25.2327 44.8189 25.5415 45.6476 26.2356 46.3255C26.8744 46.9494 27.6058 47.2 28.3116 46.887C28.7695 46.6913 29.1683 46.3841 29.4699 45.9949C29.7421 45.6486 30.1042 45.3797 30.5186 45.2161C30.5686 45.1953 30.6378 45.1995 30.6634 45.134L30.7209 45.1142C30.7145 45.1142 30.7081 45.1049 30.7017 45.1049C30.6953 45.1049 30.6581 45.1038 30.6719 45.1392ZM45.5766 36.6069C45.5448 36.5779 45.5156 36.5463 45.4893 36.5123C44.8967 35.6019 44.3763 34.6484 43.9329 33.6602C43.0237 31.6556 42.5904 29.5438 42.4179 27.3666C42.3114 25.9962 41.926 24.6944 41.1105 23.5569C40.0193 22.0357 38.6385 20.9648 36.6136 20.9908C36.5454 20.9908 36.4475 20.9388 36.4187 21.0293C36.3964 21.0958 36.4911 21.1332 36.5412 21.1676C37.1608 21.6406 37.7932 22.0929 38.449 22.5192C39.2262 23.0225 39.9033 23.6276 40.3845 24.4334C41.0477 25.546 41.3607 26.7573 41.5321 28.0154C41.8181 30.1831 42.5126 32.2802 43.5805 34.2009C44.3257 35.5318 45.237 36.7577 46.0941 38.0189C46.1288 38.0748 46.171 38.1259 46.2197 38.1707C46.2817 38.2228 46.3597 38.253 46.4414 38.2566C46.523 38.2601 46.6035 38.2369 46.67 38.1905C46.8233 38.1052 46.7605 37.9742 46.7083 37.8661C46.6262 37.7043 46.5356 37.5467 46.4369 37.394C45.862 36.4874 45.3307 35.5599 44.9762 34.5472C44.7164 33.8079 44.5344 33.0437 44.2512 32.3117C44.1926 32.1609 44.1383 32.0091 44.0819 31.8573C44.2733 33.5149 44.7948 35.1199 45.6171 36.582L45.5766 36.6069ZM25.7012 48.8605C25.6799 48.8397 25.6873 48.7752 25.6415 48.8022C25.5958 48.8293 25.6415 48.8657 25.6682 48.8885C25.6958 48.9707 25.7171 49.056 25.7523 49.1339C26.2207 50.1685 26.9532 51.0211 27.6888 51.8768C28.647 52.9956 29.8436 53.8347 31.0584 54.6571C31.662 55.0647 32.2944 55.4141 33.0066 55.5752C34.6036 55.935 36.1419 55.7894 37.6101 55.0502C38.5065 54.6078 39.4831 54.3415 40.4845 54.2662C41.5311 54.1726 42.5861 54.1414 43.6145 53.8877C44.1309 53.7598 44.6643 53.7037 45.1519 53.4718C45.8484 53.1462 46.4992 52.7345 47.0884 52.247C48.0259 51.4584 48.7401 50.4476 49.1623 49.3117C49.7138 47.8727 49.8139 46.3703 49.6361 44.8408C49.6338 44.8949 49.6238 44.9485 49.6063 44.9999C49.3731 45.9128 49.1644 46.8319 48.8301 47.7167C48.5831 48.3676 48.3681 49.0383 47.9721 49.6195C47.296 50.6135 46.472 51.4661 45.4031 52.0765C44.611 52.5287 43.8009 52.9239 42.8736 53.032C42.3043 53.0868 41.7304 53.076 41.1638 52.9998C39.8526 52.8349 38.5215 53.0733 37.3556 53.6818C36.6114 54.0607 35.8011 54.3002 34.9666 54.3878C33.9147 54.5095 32.8629 54.5854 31.8398 54.235C31.0328 53.9595 30.2578 53.6059 29.5881 53.0788C28.4532 52.1867 27.3886 51.2228 26.5071 50.078C26.2079 49.6933 25.9907 49.2545 25.7012 48.8605ZM37.7389 24.16C37.158 23.9192 36.5372 23.7833 35.9067 23.7586C34.8633 23.7368 33.9041 24.0331 32.9949 24.5062C31.2745 25.4014 30.295 26.8041 30.0927 28.6912C29.9495 30.1424 29.8994 31.6009 29.9426 33.0582C29.9586 33.8328 29.981 34.6085 30.1332 35.3727C30.1524 35.4663 30.1705 35.5599 30.1886 35.6535C30.4441 35.2324 30.6144 34.8029 30.6144 34.333C30.6048 32.8461 30.6219 31.3603 30.7475 29.8776C30.7996 29.2714 30.8273 28.6621 31.0488 28.084C31.8334 26.0263 34.1362 24.7329 36.357 25.0687C37.2971 25.2122 37.9774 25.6853 38.4862 26.4516C39.1047 27.4159 39.5659 28.4682 39.8532 29.5709C40.2791 31.1024 40.6772 32.6402 41.3 34.1094C42.1815 36.2286 43.2915 38.2502 44.611 40.14C44.9986 40.6914 45.493 41.1633 46.0664 41.5291C46.1366 41.5728 46.2186 41.6768 46.2921 41.6196C46.3655 41.5624 46.2612 41.4688 46.241 41.3898C46.2122 41.2786 46.0855 41.2037 46.1228 41.0706C46.1718 41.0706 46.176 41.1122 46.1984 41.1372C46.2399 41.185 46.2708 41.2598 46.3496 41.2411C46.4283 41.2224 46.4145 41.1486 46.4283 41.0966C46.6061 40.4208 46.1888 39.4517 45.5766 39.1211C45.5224 39.0919 45.4542 39.0306 45.3978 39.0961C45.3414 39.1616 45.4212 39.2001 45.4553 39.2406C45.8913 39.7577 46.1292 40.407 46.1281 41.0768C46.027 41.0997 46.0217 41.0051 45.9887 40.9573C45.5224 40.2866 45.0976 39.59 44.6696 38.8944C44.2618 38.231 44.0521 37.4855 43.7114 36.7951C43.1791 35.719 42.7117 34.6116 42.271 33.5032C41.8835 32.5228 41.6897 31.484 41.4054 30.4734C41.1925 29.7133 40.9285 28.9678 40.7667 28.1911C40.4835 26.7958 39.9512 25.5169 38.8876 24.4979C38.3553 23.9905 37.7729 23.5621 37.0618 23.3323C36.828 23.2504 36.5786 23.2202 36.3314 23.2439C36.5076 23.3848 36.7011 23.5035 36.9074 23.5975C37.2237 23.724 37.5171 23.8995 37.7761 24.1173L37.7389 24.16ZM47.8528 35.8261C47.8592 35.8437 47.8635 35.8697 47.8901 35.8521C47.8965 35.8521 47.8848 35.8167 47.8816 35.799C47.8677 35.7356 47.8571 35.6701 47.839 35.6088C47.2449 33.6207 46.6892 31.6223 46.1462 29.6218C45.8268 28.4386 45.5649 27.2418 45.1881 26.0731C44.5291 24.0217 43.5528 22.1595 41.9079 20.6851C40.8806 19.7649 39.7489 19.0121 38.3894 18.6389C37.6963 18.4486 36.9819 18.3664 36.275 18.2427C35.0294 18.0244 33.8179 18.0847 32.6414 18.5193C30.047 19.4779 27.9933 21.0989 26.539 23.4176C25.8768 24.4729 25.3541 25.5907 25.1465 26.827C24.842 28.6216 24.737 30.4431 24.8335 32.2597C24.9048 33.5667 24.8282 34.8684 24.4321 36.1349C24.3258 36.4665 24.1964 36.7906 24.0446 37.105C23.9222 37.3639 24.0276 37.603 24.2628 37.6696C24.4502 37.7226 24.5556 37.6061 24.6578 37.4907C25.1906 36.8932 25.5857 36.1907 25.8161 35.431C26.3005 33.8193 26.407 32.1557 26.4304 30.4921C26.4427 29.4096 26.5578 28.3306 26.7743 27.2689C27.0278 26.097 27.4747 24.9733 28.0976 23.9416C28.2605 23.664 28.3979 23.3708 28.548 23.0828C28.4617 23.0474 28.4415 23.0953 28.4117 23.1233C28.1525 23.3927 27.9211 23.6862 27.7208 23.9999C27.5174 24.3295 27.3417 24.6726 27.1714 25.0178C27.1554 25.05 27.1618 25.1114 27.0905 25.0968C26.984 25.076 26.984 25.0791 26.9446 25.127C26.5688 25.5647 26.374 26.0877 26.2164 26.6263C26.0035 27.3541 25.962 28.11 25.8364 28.8524C25.6405 30.0149 25.5691 31.1846 25.4957 32.3564C25.4637 32.8548 25.4311 33.3528 25.3977 33.8505C25.3725 33.8128 25.3589 33.7688 25.3583 33.7237C25.3456 33.1081 25.3413 32.4926 25.3211 31.8771C25.2828 30.7167 25.4616 29.5782 25.6575 28.4459C25.7906 27.6671 25.8907 26.881 26.1898 26.1407C26.6998 24.8863 27.4015 23.7147 28.2712 22.6658C28.8205 22.0056 29.4423 21.4181 30.2386 21.0313C31.7504 20.2869 33.326 19.846 35.0347 20.0134C35.418 20.0509 35.7981 20.0685 36.1739 19.9438C34.7899 19.3521 33.3697 19.3979 31.9282 19.6984C32.0416 19.6271 32.1596 19.5632 32.2816 19.5071C33.6028 18.8759 34.9804 18.6368 36.4273 18.9716C37.774 19.2835 39.0058 19.8315 40.0534 20.7329C40.739 21.3235 41.2649 22.043 41.7568 22.7865C41.9974 23.1493 42.3019 23.4706 42.4647 23.8855C42.8438 24.8504 43.0088 25.8693 43.2664 26.8654C43.6678 28.4136 44.1894 29.9161 44.9538 31.3364C45.3744 32.1193 45.7395 32.9345 45.9248 33.8027C46.2005 35.0858 46.5401 36.3543 46.8308 37.6332C46.9883 38.3277 47.4025 38.8653 47.9082 39.3467C47.9869 39.4299 48.0938 39.4824 48.2091 39.4944C48.3244 39.5065 48.4403 39.4772 48.5352 39.4122C48.7226 39.2625 48.6076 39.0919 48.5352 38.9391C48.3564 38.5409 48.1839 38.1416 48.0402 37.7309C47.675 36.6911 47.213 35.6815 46.934 34.6116C46.7541 33.9212 46.4188 33.287 46.2229 32.6039C46.1192 32.2111 45.9851 31.8267 45.8215 31.4539C45.0959 29.8616 44.5131 28.2109 44.0798 26.5202C43.8062 25.4805 43.5475 24.4407 43.0577 23.4706C42.7301 22.8132 42.3226 22.1967 41.8441 21.6344C41.9889 21.6115 42.0293 21.7145 42.09 21.7789C43.1546 22.931 43.935 24.2556 44.5141 25.6988C45.0741 27.0983 45.418 28.5613 45.8566 29.9961C46.2953 31.431 46.6381 32.9075 47.1459 34.3351C47.3244 34.8555 47.5603 35.3555 47.8496 35.8261H47.8528ZM43.6539 40.5507C43.5799 40.4415 43.4985 40.3373 43.4101 40.2388C43.1046 39.9425 42.7927 39.6524 42.4797 39.3654C42.0815 39.0004 41.7344 38.6043 41.5151 38.1052C40.8763 36.634 40.344 35.1253 40.0736 33.55C39.8569 32.2281 39.3404 30.9701 38.5618 29.8682C37.7953 28.7921 36.3815 28.3284 34.8835 29.0947C33.7923 29.6603 33.2206 30.5826 32.9789 31.7398C32.8105 32.5419 32.7302 33.3593 32.7394 34.178C32.7447 34.7801 32.6989 35.381 32.7298 35.9831C32.7788 36.9189 32.8363 37.865 32.6723 38.8019C32.5914 39.2573 32.5659 39.7262 32.3359 40.1452C31.9718 40.8127 31.5247 41.0425 30.7517 40.9625C30.6556 40.9566 30.5595 40.9737 30.4717 41.0124C30.3003 41.0758 30.3099 41.1704 30.4004 41.2942C30.5096 41.4333 30.6664 41.5293 30.8422 41.5645C31.2968 41.683 31.7386 41.5926 32.1815 41.4896C32.4143 41.4446 32.6326 41.3455 32.8179 41.2007C33.0032 41.0559 33.1501 40.8697 33.2462 40.6578C33.6954 39.7293 33.7487 38.7488 33.721 37.7465C33.6869 36.5154 33.6028 35.2802 33.7881 34.0564C34.0159 32.5394 34.6398 31.2865 36.259 30.7458C36.5573 30.6328 36.8804 30.5969 37.197 30.6418C37.5888 30.7084 37.9145 30.8789 38.0742 31.2782C37.9883 31.276 37.9066 31.2414 37.8464 31.1815C37.4791 30.9049 37.0863 30.8955 36.6753 31.064C36.5529 31.1149 36.423 31.1524 36.3048 31.2116C35.5756 31.5755 34.99 32.0705 34.7494 32.8752C34.7123 32.9814 34.7064 33.0956 34.7324 33.2048L34.8154 33.0468C35.0891 32.5191 35.5353 32.0957 36.0834 31.8438C36.3517 31.7126 36.6456 31.6389 36.9454 31.6276C37.2452 31.6163 37.5441 31.6677 37.8219 31.7783C38.3244 31.9613 38.417 32.4021 38.6268 32.7817C38.6361 32.8015 38.644 32.822 38.6502 32.843C39.0079 33.8121 39.2102 34.8237 39.4763 35.8177C39.6893 36.6225 39.8543 37.445 40.278 38.179C40.6357 38.7967 40.9977 39.4164 41.662 39.7917C41.9285 39.9486 42.2068 40.0856 42.4946 40.2014C42.8675 40.3571 43.256 40.4742 43.6539 40.5507ZM42.3423 51.2987V51.2436C41.9005 51.1552 41.4608 51.0658 41.0041 51.0897C40.1098 51.1365 39.2496 51.3486 38.3979 51.6034C37.0139 52.0193 35.6107 52.3572 34.1394 52.2532C33.7909 52.2408 33.4447 52.1924 33.1067 52.1087C34.6674 52.1513 36.1355 51.7874 37.5515 51.1781C38.4181 50.8048 39.2613 50.3754 40.1641 50.0853C41.1585 49.7671 42.1688 49.5779 43.226 49.7016C43.951 49.7859 44.6707 49.92 45.4063 49.9356C45.369 50.0156 45.2881 50.0188 45.2243 50.0458C44.7313 50.2538 44.2086 50.2985 43.6805 50.3068C43.2547 50.313 42.8193 50.287 42.3924 50.3598C42.3253 50.3604 42.259 50.3742 42.1975 50.4005C42.136 50.4268 42.0806 50.4649 42.0346 50.5126C42.567 50.5126 43.0439 50.4856 43.5166 50.5179C44.6014 50.5917 45.5681 50.3328 46.4134 49.6476C46.8217 49.3396 47.0919 48.889 47.1672 48.3905C47.1812 48.329 47.1826 48.2654 47.1713 48.2033C47.1601 48.1413 47.1365 48.082 47.1018 48.0289C47.0671 47.9758 47.022 47.9299 46.9691 47.8938C46.9162 47.8577 46.8565 47.8322 46.7935 47.8186C46.5273 47.7504 46.2512 47.7269 45.9769 47.749C45.2065 47.8052 44.432 47.7205 43.6933 47.4994C43.2431 47.3522 42.7723 47.274 42.2976 47.2676C41.2607 47.2676 40.2748 47.514 39.2943 47.8103C39.2645 47.8197 39.2176 47.828 39.2283 47.8945C39.29 47.9372 39.3592 47.9112 39.4295 47.8945C39.6424 47.8478 39.849 47.803 40.0587 47.7594C40.8699 47.593 41.6695 47.5514 42.4488 47.9164C42.8555 48.1056 43.2792 48.2637 43.6997 48.4248C43.9786 48.5288 44.2661 48.6224 44.5514 48.7191C44.3891 48.7283 44.2264 48.7146 44.0681 48.6785C42.6489 48.3718 41.2713 48.5184 39.916 49.0237C38.9579 49.3824 38.0689 49.8742 37.1789 50.366C36.307 50.8475 35.4223 51.3018 34.429 51.5098C33.5932 51.6824 32.7511 51.803 31.893 51.7541C31.1393 51.7105 30.4685 51.4349 29.8468 51.0409C29.5128 50.8131 29.1628 50.6088 28.7992 50.4295C28.4394 50.2652 28.0817 50.0978 27.6792 50.0385C27.6792 50.1217 27.7378 50.13 27.7857 50.1508C28.4701 50.4714 29.0846 50.918 29.5956 51.4661C29.7371 51.6153 29.8999 51.7438 30.0789 51.8477C31.6322 52.7596 33.3058 53.1994 35.1242 53.1079C36.275 53.0497 37.3492 52.7034 38.4075 52.301C39.356 51.9402 40.3078 51.6096 41.3309 51.5098C41.6719 51.4583 42.0096 51.3878 42.3423 51.2987ZM35.4829 39.0181C35.5809 39.0826 35.5607 39.1554 35.5607 39.2261C35.5607 39.6253 35.4734 40.0121 35.4148 40.4052C35.3009 41.1683 35.1486 41.9035 34.726 42.5814C34.3033 43.2593 33.8743 43.9216 33.3111 44.4945C33.1982 44.6089 33.0982 44.7347 32.9917 44.8564C32.93 44.9281 32.8576 44.9936 32.9332 45.1018C33.0087 45.2099 33.1152 45.1621 33.2068 45.1257C33.3023 45.0864 33.3948 45.0405 33.4836 44.9884C34.6994 44.2928 35.4883 43.251 36.0089 41.996C36.1153 41.7423 36.2548 41.5 36.2889 41.2203C36.39 40.3885 36.3197 39.5692 36.2069 38.7499C36.1228 38.1406 35.9822 37.5385 35.962 36.9199C35.9492 36.6981 35.9944 36.4767 36.0933 36.2766C36.1922 36.0766 36.3415 35.9043 36.5273 35.7762C36.752 35.6088 36.9841 35.6545 37.1257 35.8895C37.2314 36.0734 37.2919 36.2788 37.3024 36.4894C37.3407 36.9958 37.3524 37.5032 37.4088 38.0075C37.5423 39.0585 37.8695 40.0772 38.3745 41.0145C38.5608 41.3753 38.763 41.7153 39.1197 41.943C39.6 42.2724 40.1477 42.4962 40.7251 42.5991C41.332 42.6916 41.9399 42.6729 42.4839 42.3235C42.5308 42.2934 42.6127 42.2892 42.6063 42.2195C42.6 42.1499 42.519 42.1031 42.4477 42.0916C42.2348 42.0573 42.0219 42.0345 41.8089 42.0064C40.8135 41.8743 40.0534 41.394 39.5509 40.5393C39.3032 40.0854 39.1168 39.602 38.9962 39.1013C38.6885 37.9971 38.5011 36.8627 38.1392 35.7741C37.9816 35.301 37.7282 34.8882 37.1395 34.8165C36.5699 34.7468 35.8119 35.1284 35.5127 35.6368C35.1848 36.1931 35.122 36.8034 35.1327 37.4221C35.1465 38.2269 35.3797 39.0077 35.484 39.8083L35.4829 39.0181ZM36.2633 20.7184C36.1383 20.602 35.9834 20.5208 35.8151 20.4834C35.0347 20.3721 34.2522 20.3108 33.4665 20.4252C31.877 20.6581 30.6293 21.4816 29.5913 22.6305C28.4074 23.9427 27.9039 25.5522 27.5951 27.2314C27.3684 28.4667 27.4088 29.7164 27.4205 30.9631C27.428 31.7835 27.4312 32.6039 27.2725 33.4128C27.0681 34.4525 26.918 35.5131 26.4773 36.4977C26.4487 36.5641 26.4304 36.6341 26.423 36.7057C26.4137 36.7633 26.4171 36.8222 26.4331 36.8784C26.449 36.9346 26.4771 36.9868 26.5154 37.0315C26.5538 37.0762 26.6014 37.1124 26.6553 37.1376C26.7091 37.1628 26.7678 37.1765 26.8275 37.1778C27.0767 37.1902 27.2236 37.0311 27.3449 36.8533C27.5656 36.5351 27.7428 36.1901 27.8719 35.8271C28.4319 34.1978 28.5863 32.5134 28.5607 30.8092C28.5384 29.4014 28.5522 28.0019 28.7588 26.6013C28.9621 25.2652 29.4476 24.0456 30.3461 23.0058C30.4921 22.8232 30.6241 22.6303 30.7411 22.4288C30.7651 22.3852 30.7985 22.3473 30.839 22.3175C31.6333 21.7623 32.4647 21.2778 33.4346 21.0771C34.1724 20.9242 34.9251 20.9305 35.6703 20.9045C35.8814 20.895 36.0861 20.8307 36.2633 20.7184ZM49.009 41.1839C48.8344 41.5167 48.6587 41.84 48.4831 42.1634C48.2743 42.5803 48.0109 42.969 47.6995 43.3196C46.5987 44.4862 45.2221 45.1257 43.6273 45.3544C42.8821 45.4584 42.1305 45.3544 41.3842 45.4314C41.0961 45.4572 40.8065 45.4627 40.5175 45.448C39.437 45.4116 38.3883 45.552 37.4536 46.1062C36.3506 46.7581 35.2626 47.4329 34.1266 48.0297C33.5592 48.3281 33.0056 48.6536 32.3891 48.8522C31.8515 49.0248 31.2894 49.0549 30.7262 49.1131C30.8953 49.1822 31.0754 49.2223 31.2585 49.2317C32.65 49.3045 33.9201 48.8865 35.1423 48.3021C35.5489 48.1077 35.9184 47.8509 36.3219 47.6502C37.0224 47.3008 37.758 47.0347 38.4777 46.73C38.9913 46.5237 39.5303 46.3839 40.0811 46.3141C41.0445 46.1717 42.0187 46.1914 42.9875 46.1415C44.3023 46.0739 45.5745 45.8753 46.687 45.0903C47.5153 44.506 48.2201 43.8332 48.6311 42.9068C48.8704 42.3619 48.9988 41.7768 49.009 41.1839ZM36.4283 27.8324C36.4219 27.7586 36.3783 27.7575 36.3474 27.7461C35.9944 27.608 35.6139 27.5499 35.2346 27.5762C34.8552 27.6024 34.487 27.7125 34.1575 27.8979C33.1567 28.4355 32.4456 29.2496 31.9548 30.2478C31.316 31.5402 31.152 32.9199 31.1957 34.3351C31.2287 35.4008 31.2628 36.4666 31.2489 37.5323C31.2519 38.1069 31.1628 38.6784 30.9849 39.2261C30.7933 39.7875 30.426 40.1151 29.801 40.1255C29.7267 40.126 29.6524 40.1301 29.5785 40.1379C29.5178 40.1452 29.4199 40.1119 29.4103 40.1951C29.4007 40.2783 29.4934 40.3189 29.5636 40.3272C29.7474 40.3487 29.9322 40.3608 30.1172 40.3636C30.3598 40.3741 30.6007 40.3194 30.8136 40.2053C31.0265 40.0913 31.2032 39.9223 31.3245 39.7168C31.5518 39.3502 31.7047 38.9442 31.7748 38.5211C32.0101 37.316 31.9643 36.0943 31.9665 34.882C31.9665 34.0106 31.9665 33.1435 32.1347 32.2826C32.3796 31.0276 32.864 29.8911 33.7636 28.9335C34.2554 28.4136 34.841 28.0788 35.5734 28.0206C35.8705 27.9967 36.1473 27.8927 36.4283 27.8324ZM46.8063 42.1883C46.465 42.3437 46.1381 42.5274 45.829 42.7373C44.6142 43.5847 43.21 43.8967 41.76 44.037C40.8912 44.1213 40.0129 44.115 39.1474 44.2595C38.1253 44.4311 37.1246 44.6619 36.2654 45.266C35.6615 45.6739 35.0824 46.1159 34.5312 46.5896C33.5826 47.4381 32.4913 47.9413 31.1925 47.985C30.9796 47.9923 30.7581 47.9652 30.5367 48.0276C30.5544 48.063 30.583 48.0921 30.6186 48.1107C30.6541 48.1294 30.6947 48.1367 30.7347 48.1316C31.7642 48.1857 32.7788 48.1472 33.7412 47.7157C34.5844 47.3424 35.3222 46.8018 36.1015 46.3287C36.8808 45.8556 37.6526 45.3357 38.581 45.1454C39.325 44.9763 40.0797 44.8561 40.8401 44.7857C41.9048 44.7098 42.9641 44.5954 43.9861 44.2595C44.6983 44.0256 45.4052 43.7906 45.978 43.2905C46.3155 42.9942 46.653 42.6843 46.8063 42.1883ZM29.24 36.1879C29.24 35.9924 29.2591 35.8229 29.1889 35.668C29.1058 35.4798 28.9302 35.4528 28.7843 35.6004C28.7271 35.667 28.6919 35.7489 28.6832 35.8354C28.5448 36.4988 28.2871 37.1237 28.0306 37.7475C27.7112 38.5066 27.2853 39.2094 26.8893 39.931C26.6838 40.3103 26.5743 40.732 26.5699 41.1611C26.5699 41.4335 26.6966 41.6217 26.9074 41.6976C27.1533 41.7849 27.3013 41.6373 27.4397 41.4813C27.6916 41.1683 27.9059 40.8282 28.0785 40.4675C28.3979 39.8707 28.4947 39.2032 28.7087 38.5721C28.9781 37.785 29.2176 36.9937 29.2453 36.1879H29.24ZM37.6303 48.3531C37.5238 48.3604 37.4578 48.3624 37.3918 48.3687C36.7078 48.4413 36.0478 48.6565 35.4563 48.9998C33.8375 49.953 31.9145 50.2864 30.0587 49.9356C29.7094 49.8687 29.3551 49.8298 28.9994 49.8191C28.9366 49.8191 28.8439 49.8077 28.828 49.8836C28.812 49.9595 28.9089 49.9689 28.9642 49.9876C29.2063 50.0569 29.449 50.1203 29.6924 50.1778C31.1478 50.5303 32.6116 50.6915 34.0904 50.3203C35.2988 50.0156 36.4613 49.6195 37.3471 48.6952C37.4639 48.5989 37.5617 48.4826 37.6356 48.352L37.6303 48.3531ZM42.4211 43.697C42.4833 43.694 42.5453 43.6863 42.6063 43.6742C43.3183 43.5073 44.0202 43.3022 44.709 43.0597C44.9346 42.9851 45.1377 42.8568 45.2998 42.6864C45.3642 42.6234 45.4144 42.5479 45.4471 42.4648C45.4798 42.3817 45.4944 42.2929 45.4899 42.204C45.4854 42.1151 45.4619 42.0281 45.4209 41.9486C45.3799 41.8691 45.3224 41.7988 45.2519 41.7423C44.942 41.4592 44.5494 41.2774 44.1288 41.2224C43.4634 41.1382 42.865 40.8783 42.2848 40.5653C42.1199 40.4684 41.945 40.3886 41.7632 40.3272C41.6269 40.2866 41.4842 40.2367 41.3927 40.401C41.3011 40.5653 41.4448 40.6277 41.5321 40.7015C41.8432 40.9598 42.2006 41.1597 42.5861 41.291C43.0499 41.4625 43.5225 41.6104 44.0021 41.734C44.1978 41.7817 44.3664 41.9027 44.4716 42.0709C44.5599 42.2019 44.5599 42.3069 44.4045 42.3942C44.2133 42.5048 44.0073 42.5888 43.7923 42.6438C43.3612 42.7477 42.93 42.8517 42.5009 42.9557C42.3302 43.0019 42.1621 43.0571 41.9974 43.121C41.9363 43.1389 41.8828 43.1755 41.8445 43.2252C41.8062 43.275 41.7852 43.3353 41.7845 43.3976C41.7845 43.5192 41.8909 43.5754 41.9974 43.6232C42.1293 43.6846 42.2756 43.7101 42.4211 43.697ZM37.5856 42.886C37.5907 42.8001 37.6021 42.7146 37.6196 42.6302C37.6473 42.52 37.6654 42.3755 37.7932 42.3474C37.9209 42.3194 37.9742 42.4514 38.0316 42.5408C38.2553 42.866 38.5252 43.1583 38.8333 43.409C38.9274 43.5042 39.0494 43.5685 39.1825 43.5931C39.2553 43.6092 39.3315 43.6028 39.4004 43.5746C39.4693 43.5465 39.5275 43.498 39.5668 43.4361C39.59 43.4051 39.6063 43.3698 39.6148 43.3324C39.6233 43.2949 39.6237 43.2562 39.6161 43.2186C39.6085 43.181 39.593 43.1453 39.5706 43.1139C39.5482 43.0824 39.5194 43.0558 39.4859 43.0358C39.3922 42.9661 39.3145 42.8756 39.2251 42.7997C38.7694 42.4119 38.3564 41.9887 38.0838 41.4543C37.9774 41.2546 37.9103 41.0384 37.824 40.8304C37.7955 40.759 37.7525 40.6939 37.6976 40.6391C37.6427 40.5842 37.5771 40.5407 37.5047 40.5112C37.47 40.4902 37.4311 40.4765 37.3907 40.471C37.3502 40.4656 37.309 40.4685 37.2698 40.4795C37.2305 40.4906 37.1941 40.5096 37.1629 40.5353C37.1316 40.561 37.1062 40.5928 37.0884 40.6287C36.9725 40.7895 36.9057 40.9792 36.8957 41.1756C36.8811 41.4798 36.89 41.7846 36.9223 42.0875C36.9546 42.3027 36.9496 42.5217 36.9074 42.7353C36.8382 43.068 36.7818 43.4049 36.7339 43.7417C36.7041 43.9497 36.8403 44.2263 36.9894 44.2543C37.2098 44.2949 37.3034 44.1265 37.3961 43.9799C37.6015 43.6565 37.6228 43.2978 37.5856 42.886ZM33.8168 42.0334C33.7103 42.0937 33.7039 42.1821 33.6858 42.2653C33.5818 42.7661 33.3463 43.2319 33.0024 43.617C32.5861 44.089 32.1336 44.5288 31.6854 44.9687C31.4439 45.1971 31.269 45.4842 31.1787 45.8005C31.0786 46.1654 31.3479 46.7851 31.8951 46.8496C32.4424 46.914 32.8671 46.7186 33.2685 46.4108C33.5773 46.1737 33.8753 45.9232 34.1756 45.6757C34.3459 45.5364 34.512 45.3908 34.6802 45.2473C34.3867 45.262 34.103 45.3556 33.8604 45.5177C33.5858 45.7017 33.3281 45.9128 33.0503 46.0895C32.7085 46.3079 32.3444 46.468 31.9218 46.3037C31.879 46.2913 31.8392 46.2705 31.805 46.2425C31.7708 46.2145 31.7428 46.1799 31.7228 46.1409C31.7029 46.1019 31.6913 46.0593 31.6889 46.0158C31.6865 45.9722 31.6933 45.9287 31.7088 45.8878C31.7652 45.731 31.8573 45.5888 31.9782 45.4719C32.3934 45.0285 32.7822 44.5623 33.1429 44.0755C33.5804 43.4652 33.87 42.8122 33.8168 42.0334ZM31.1978 47.0388C30.3461 47.0097 29.8447 47.1137 28.8365 47.488C28.532 47.6013 28.2286 47.7147 27.8922 47.7043C26.7615 47.67 25.5447 46.835 25.1369 45.7973C24.9304 45.2702 24.809 44.716 24.6482 44.1732C24.512 43.7137 24.4268 43.2375 24.2086 42.7997C24.2048 42.92 24.2112 43.0403 24.2277 43.1595C24.3342 44.01 24.5737 44.8335 24.7803 45.6622C25.0485 46.7217 25.7682 47.4402 26.7264 47.9143C27.4461 48.2741 28.1913 48.2117 28.9025 47.8353C29.5775 47.4776 30.279 47.1948 31.0456 47.0877C31.0976 47.0754 31.1485 47.0591 31.1978 47.0388ZM46.8734 42.1634C47.1108 41.8286 47.3216 41.526 47.5387 41.2276C47.9092 40.7171 47.8134 40.2055 47.5483 39.694C47.2598 39.1356 46.6498 39.0244 46.1579 38.7519C46.1241 38.7348 46.0851 38.7299 46.0479 38.7381C46.0107 38.7463 45.9777 38.767 45.9546 38.7967C45.9265 38.8347 45.9102 38.8798 45.9077 38.9267C45.9053 38.9736 45.9167 39.0201 45.9408 39.0608C46.0972 39.3571 46.3879 39.4943 46.6615 39.6503C47.115 39.9102 47.2651 40.2305 47.1651 40.7358C47.0891 41.0377 46.9795 41.3306 46.8382 41.6092C46.8095 41.6757 46.7733 41.8047 46.8084 41.8068C46.9862 41.8172 46.8627 41.917 46.8723 41.9721C46.8781 42.0357 46.8799 42.0996 46.8776 42.1634H46.8734ZM30.2152 25.8007C30.5558 25.0729 31.0669 24.4729 31.613 23.8969C32.1592 23.3209 32.8906 22.9861 33.6156 22.538C33.0559 22.5522 32.5174 22.75 32.0868 23.0994C31.3554 23.6796 30.8209 24.4116 30.4025 25.2278C30.3131 25.4046 30.196 25.5761 30.2152 25.8007ZM30.905 43.0254C30.6442 42.9526 30.4324 42.8673 30.1907 42.8704C29.8043 42.8858 29.4206 42.8004 29.0792 42.623C28.9451 42.5595 28.8335 42.4582 28.7589 42.3322C28.6843 42.2061 28.6502 42.0611 28.6608 41.9159C28.6608 41.8598 28.6981 41.7943 28.6385 41.7361C28.5435 41.8857 28.504 42.0626 28.5265 42.2372C28.549 42.4119 28.6321 42.5737 28.762 42.6957C29.0909 43.016 29.5072 43.1574 29.9575 43.2094C30.2858 43.265 30.6235 43.1994 30.905 43.0254ZM24.2565 42.2247C23.9722 41.0675 24.1287 39.9373 24.2437 38.7592C23.738 39.4891 23.7529 41.9294 24.2565 42.2247Z" fill="#F8F2EA"/>
<path d="M47.8496 35.8263C47.5606 35.357 47.3247 34.8585 47.1459 34.3395C46.6381 32.915 46.2942 31.4437 45.8566 30.0005C45.4191 28.5574 45.0741 27.1027 44.5141 25.7032C43.935 24.26 43.1589 22.9354 42.09 21.7833C42.0293 21.7189 41.9889 21.6159 41.8441 21.6388C42.3219 22.2012 42.7286 22.8177 43.0556 23.475C43.5421 24.4472 43.8008 25.4869 44.0777 26.5246C44.5143 28.2163 45.1007 29.8678 45.83 31.4604C45.9936 31.8332 46.1278 32.2176 46.2314 32.6103C46.4273 33.2935 46.7637 33.9277 46.9426 34.6181C47.2215 35.6859 47.6878 36.6976 48.0487 37.7374C48.1924 38.1481 48.3681 38.5474 48.5438 38.9456C48.613 39.0984 48.7279 39.2689 48.5438 39.4187C48.4488 39.4837 48.3329 39.5129 48.2176 39.5009C48.1023 39.4889 47.9954 39.4364 47.9167 39.3532C47.411 38.8718 46.9969 38.3342 46.8393 37.6396C46.5486 36.3607 46.209 35.0922 45.9333 33.8092C45.748 32.941 45.3829 32.1258 44.9624 31.3429C44.198 29.9236 43.6763 28.4211 43.2749 26.8719C43.0173 25.8758 42.8491 24.8569 42.4733 23.892C42.3104 23.4761 42.0059 23.1558 41.7653 22.7929C41.2724 22.0495 40.7464 21.33 40.0619 20.7394C39.0143 19.8379 37.7825 19.2838 36.4358 18.9781C34.9889 18.6433 33.6113 18.8824 32.2901 19.5135C32.1681 19.5697 32.0501 19.6336 31.9367 19.7049C33.3782 19.4044 34.8016 19.3586 36.1824 19.9502C35.8066 20.075 35.4265 20.0542 35.0432 20.0199C33.3271 19.8473 31.7546 20.2882 30.2397 21.0305C29.4433 21.4215 28.8216 22.0048 28.2722 22.665C27.4035 23.7148 26.7029 24.8871 26.1941 26.142C25.8907 26.8823 25.7906 27.6684 25.6618 28.4471C25.4659 29.5836 25.287 30.7221 25.3253 31.8783C25.3456 32.4939 25.3498 33.1094 25.3626 33.725C25.3631 33.77 25.3768 33.814 25.402 33.8518C25.4354 33.3541 25.468 32.8561 25.4999 32.3577C25.5734 31.1859 25.6447 30.0161 25.8406 28.8537C25.9662 28.1113 26.0078 27.3554 26.2207 26.6276C26.3783 26.089 26.5731 25.566 26.9489 25.1282C26.9904 25.0804 26.9904 25.0773 27.0947 25.0981C27.1661 25.1126 27.1597 25.0513 27.1757 25.0191C27.346 24.6739 27.5217 24.3307 27.725 24.0011C27.9253 23.6875 28.1567 23.3939 28.4159 23.1246C28.4426 23.0965 28.466 23.0487 28.5522 23.0841C28.4021 23.3721 28.2648 23.6653 28.1019 23.9429C27.479 24.9746 27.0321 26.0983 26.7786 27.2701C26.5607 28.3314 26.4441 29.4101 26.4304 30.4923C26.407 32.156 26.3005 33.8196 25.8161 35.4354C25.5857 36.1951 25.1906 36.8976 24.6578 37.4951C24.5514 37.6105 24.4502 37.727 24.2628 37.674C24.0276 37.6074 23.9222 37.3683 24.0446 37.1094C24.1964 36.795 24.3258 36.4709 24.4321 36.1393C24.8282 34.8728 24.9048 33.5711 24.8335 32.2641C24.7357 30.4462 24.8396 28.6233 25.1433 26.8272C25.3562 25.5909 25.8736 24.4732 26.5358 23.4178C27.9901 21.0992 30.0438 19.4782 32.6383 18.5195C33.8147 18.0849 35.0262 18.0246 36.2718 18.243C36.9787 18.3667 37.6931 18.4509 38.3862 18.6391C39.7457 19.0124 40.8774 19.7652 41.9048 20.6853C43.5496 22.1597 44.5259 24.0219 45.1849 26.0734C45.5617 27.2421 45.8236 28.4388 46.143 29.6221C46.686 31.6226 47.2417 33.621 47.8358 35.609C47.8539 35.6703 47.8645 35.7358 47.8784 35.7993L47.8496 35.8263ZM26.6135 26.4123C26.4677 26.665 26.4304 26.9457 26.3559 27.2161L26.4272 27.2348C26.49 26.9613 26.5539 26.6879 26.6167 26.4155C26.6274 26.3999 26.6391 26.3853 26.6487 26.3697L26.6252 26.3531L26.6135 26.4123ZM47.0661 36.0426C47.2023 37.1426 47.3407 38.2417 48.1999 39.0797C47.8475 38.0576 47.428 37.0605 47.0661 36.0426ZM26.341 27.4448C26.1834 27.9453 26.0865 28.4621 26.0525 28.9847C26.0216 29.9517 25.9311 30.9176 25.8672 31.8846C25.8534 32.0863 25.8438 32.289 25.8321 32.4908C25.8204 32.6925 25.8097 32.8724 25.7991 33.0637C26.1259 31.2025 25.9173 29.2966 26.341 27.4448Z" fill="#181818"/>
<path d="M46.1164 41.0811C46.0791 41.2142 46.2058 41.2891 46.2345 41.4003C46.2548 41.4794 46.3708 41.5636 46.2856 41.6301C46.2005 41.6967 46.1302 41.5833 46.0599 41.5397C45.4866 41.1739 44.9922 40.702 44.6046 40.1506C43.285 38.2608 42.1751 36.2392 41.2936 34.12C40.6708 32.6508 40.2694 31.113 39.8468 29.5814C39.5594 28.4787 39.0983 27.4264 38.4798 26.4621C37.9741 25.6958 37.2938 25.2227 36.3505 25.0793C34.1287 24.7393 31.827 26.0327 31.0423 28.0946C30.8209 28.6727 30.7932 29.282 30.741 29.8881C30.6154 31.3708 30.5984 32.8566 30.608 34.3435C30.608 34.8135 30.4408 35.2429 30.1821 35.664C30.164 35.5704 30.1459 35.4768 30.1268 35.3833C29.9745 34.619 29.9522 33.8434 29.9362 33.0688C29.8929 31.6115 29.943 30.153 30.0863 28.7018C30.2886 26.8146 31.268 25.412 32.9885 24.5167C33.8977 24.0437 34.8569 23.7473 35.9002 23.7692C36.5308 23.7938 37.1515 23.9298 37.7324 24.1705C37.7537 24.2007 37.791 24.2339 37.8165 24.2048C37.8421 24.1757 37.7867 24.1591 37.7686 24.1352C37.5096 23.9174 37.2162 23.7418 36.8999 23.6153C36.6936 23.5213 36.5001 23.4026 36.3239 23.2618C36.5711 23.238 36.8205 23.2682 37.0543 23.3501C37.7654 23.5841 38.3499 24.0083 38.8801 24.5157C39.9447 25.5347 40.477 26.8136 40.7592 28.2089C40.9167 28.9856 41.1797 29.7311 41.3979 30.4912C41.6822 31.5018 41.876 32.5406 42.2635 33.5211C42.7042 34.6336 43.1727 35.7368 43.7039 36.8129C44.0435 37.5033 44.2533 38.2488 44.6621 38.9122C45.0879 39.6078 45.5138 40.3044 45.9811 40.9751C46.0142 41.0229 46.0195 41.1175 46.1206 41.0947L46.1164 41.0811Z" fill="#181818"/>
<path d="M43.6539 40.5509C43.2538 40.4744 42.8631 40.357 42.4882 40.2005C42.2005 40.0847 41.9222 39.9477 41.6556 39.7908C40.9956 39.4155 40.6336 38.7958 40.2716 38.1782C39.8458 37.4441 39.6861 36.6185 39.47 35.8169C39.2038 34.8229 39.0015 33.8112 38.6438 32.8421C38.6376 32.8211 38.6298 32.8006 38.6204 32.7808C38.4075 32.4033 38.318 31.9604 37.8155 31.7774C37.5377 31.6668 37.2389 31.6154 36.939 31.6267C36.6392 31.638 36.3453 31.7117 36.077 31.8429C35.532 32.0966 35.0889 32.5202 34.8176 33.047L34.7345 33.205C34.7085 33.0957 34.7144 32.9815 34.7516 32.8754C34.9922 32.0727 35.5777 31.5778 36.307 31.2118C36.4251 31.1525 36.555 31.1151 36.6775 31.0641C37.0905 30.8957 37.4834 30.9051 37.8485 31.1816C37.9088 31.2415 37.9905 31.2762 38.0764 31.2783C37.9167 30.8791 37.5909 30.7085 37.1991 30.642C36.8825 30.5971 36.5594 30.6329 36.2612 30.746C34.6408 31.2866 34.018 32.5396 33.7902 34.0566C33.605 35.2804 33.6837 36.5156 33.7231 37.7467C33.7508 38.7479 33.6976 39.7284 33.2483 40.658C33.1522 40.8699 33.0053 41.0561 32.82 41.2009C32.6347 41.3456 32.4164 41.4447 32.1837 41.4898C31.7408 41.5938 31.299 41.6832 30.8444 41.5647C30.6686 41.5294 30.5117 41.4334 30.4026 41.2943C30.3121 41.1706 30.3025 41.076 30.4739 41.0125C30.5617 40.9739 30.6578 40.9567 30.7539 40.9626C31.5268 41.0427 31.9739 40.8129 32.338 40.1454C32.5669 39.7295 32.5936 39.2574 32.6745 38.802C32.8416 37.8662 32.7809 36.9232 32.732 35.9832C32.7011 35.3812 32.7469 34.7802 32.7415 34.1782C32.7317 33.3595 32.8113 32.5422 32.9789 31.74C33.2249 30.5848 33.7923 29.6605 34.8836 29.1C36.3815 28.3337 37.7953 28.7975 38.5618 29.8736C39.3402 30.9732 39.8574 32.2285 40.0757 33.5481C40.3494 35.1234 40.8785 36.632 41.5172 38.1033C41.7302 38.6024 42.0836 38.9985 42.4818 39.3635C42.7948 39.6505 43.1067 39.9406 43.4123 40.2369C43.5 40.3361 43.5807 40.441 43.6539 40.5509ZM34.1788 30.197C34.2107 30.2438 34.2288 30.197 34.2512 30.1866C35.0901 29.6802 35.9759 29.3101 37.0426 29.3173C36.1664 28.916 34.8452 29.3288 34.2224 30.1491C34.2164 30.1496 34.2106 30.1513 34.2053 30.1542C34.2001 30.157 34.1955 30.1609 34.192 30.1657C34.1884 30.1704 34.186 30.1759 34.1848 30.1816C34.1836 30.1874 34.1838 30.1933 34.1852 30.1991L34.1564 30.2344C34.1628 30.2344 34.1713 30.2344 34.1756 30.2344C34.1979 30.2271 34.199 30.2126 34.1788 30.197ZM33.8275 32.2599C34.1948 31.6901 34.578 31.1328 35.0688 30.6555C34.3491 30.9529 34.0127 31.5476 33.8275 32.2599ZM33.0822 39.7887C32.9513 40.2847 32.7437 40.737 32.2837 41.1061C33.1142 40.9408 33.0556 40.3398 33.0833 39.7856L33.0822 39.7887Z" fill="#181818"/>
<path d="M42.3424 51.2989C42.0102 51.3869 41.6733 51.4563 41.3331 51.5069C40.31 51.6109 39.3582 51.9374 38.4096 52.2981C37.3514 52.7005 36.2804 53.0468 35.1263 53.105C33.3079 53.1986 31.6343 52.7567 30.0811 51.8448C29.902 51.7409 29.7392 51.6124 29.5977 51.4632C29.0868 50.9151 28.4722 50.4685 27.7879 50.1479C27.7431 50.1271 27.6814 50.1188 27.6814 50.0356C28.0838 50.0949 28.4415 50.2623 28.8014 50.4266C29.1649 50.6059 29.515 50.8102 29.849 51.038C30.4707 51.432 31.1414 51.7076 31.8952 51.7512C32.7533 51.8001 33.5986 51.6795 34.4311 51.5069C35.4244 51.2989 36.3091 50.8466 37.1811 50.3632C38.0711 49.8714 38.96 49.3795 39.9182 49.0208C41.2681 48.5155 42.6458 48.3689 44.0702 48.6756C44.2285 48.7118 44.3913 48.7254 44.5536 48.7162C44.2693 48.6195 43.9819 48.5301 43.7019 48.4219C43.2814 48.2608 42.8576 48.1027 42.4509 47.9135C41.6716 47.5496 40.8721 47.5901 40.0609 47.7565C39.8479 47.8002 39.6403 47.8449 39.4317 47.8917C39.3614 47.9072 39.2922 47.9332 39.2305 47.8917C39.2198 47.8251 39.2667 47.8168 39.2965 47.8074C40.2749 47.5111 41.2628 47.2616 42.2998 47.2647C42.7745 47.2711 43.2453 47.3493 43.6955 47.4965C44.4342 47.7176 45.2086 47.8023 45.9791 47.7461C46.2534 47.724 46.5295 47.7475 46.7957 47.8157C46.8587 47.8293 46.9183 47.8548 46.9712 47.8909C47.0241 47.927 47.0692 47.9729 47.1039 48.026C47.1386 48.0791 47.1623 48.1384 47.1735 48.2005C47.1847 48.2625 47.1833 48.3261 47.1694 48.3876C47.0925 48.887 46.8199 49.3378 46.4092 49.6447C45.5639 50.3299 44.5994 50.5888 43.5124 50.515C43.0397 50.4827 42.5638 50.5098 42.0304 50.5098C42.0764 50.462 42.1318 50.4239 42.1933 50.3976C42.2547 50.3713 42.321 50.3575 42.3881 50.3569C42.814 50.2841 43.2462 50.3101 43.6763 50.3039C44.2086 50.2956 44.7271 50.2509 45.22 50.0429C45.2839 50.0159 45.3648 50.0128 45.4021 49.9327C44.6664 49.9171 43.9467 49.783 43.2217 49.6988C42.1646 49.575 41.1542 49.7643 40.1599 50.0824C39.2571 50.3725 38.4139 50.8019 37.5473 51.1752C36.1313 51.7845 34.6632 52.1484 33.1025 52.1058C33.4405 52.1895 33.7867 52.2379 34.1352 52.2503C35.6065 52.3543 37.0096 52.0174 38.3937 51.6005C39.2454 51.3457 40.1056 51.1336 40.9999 51.0868C41.4566 51.0629 41.8963 51.1523 42.3381 51.2407L42.3424 51.2989ZM46.5572 48.0643C45.977 47.9811 45.3914 48.0175 44.8102 47.9676C45.381 48.1071 45.9738 48.14 46.5572 48.0643ZM42.6777 47.5017C43.0908 47.6057 43.4868 47.7648 43.9159 47.7669C43.5081 47.6484 43.1217 47.4456 42.6777 47.5038V47.5017ZM44.0692 47.7783L44.0426 47.849C44.2161 47.9052 44.3907 47.9624 44.5876 47.8896L44.0692 47.7783Z" fill="#181818"/>
<path d="M25.7011 48.8605C25.9907 49.2546 26.2079 49.6923 26.507 50.0822C27.3886 51.226 28.4532 52.1909 29.5881 53.083C30.2577 53.6101 31.0328 53.9637 31.8398 54.2392C32.8629 54.5896 33.9147 54.5137 34.9666 54.392C35.801 54.3044 36.6113 54.0649 37.3556 53.686C38.5215 53.0775 39.8526 52.8391 41.1637 53.004C41.7304 53.0802 42.3043 53.091 42.8735 53.0362C43.8008 52.9322 44.611 52.5329 45.4031 52.0806C46.4677 51.4703 47.296 50.6177 47.972 49.6237C48.3681 49.0425 48.5831 48.376 48.8301 47.7209C49.1644 46.8361 49.3731 45.917 49.6062 45.0041C49.6237 44.9527 49.6338 44.8991 49.636 44.845C49.8138 46.3713 49.7138 47.8738 49.1623 49.3159C48.7387 50.4519 48.023 51.4623 47.0841 52.2501C46.4937 52.7365 45.8418 53.1467 45.1444 53.4708C44.6568 53.7027 44.1234 53.7588 43.6071 53.8867C42.5786 54.1404 41.5236 54.1716 40.4771 54.2652C39.4756 54.3405 38.4991 54.6068 37.6026 55.0492C36.1419 55.7895 34.6046 55.935 33.0077 55.5753C32.2954 55.4141 31.663 55.0648 31.0594 54.6572C29.8446 53.8347 28.6523 52.9936 27.6898 51.8769C26.9542 51.0211 26.2217 50.1685 25.7533 49.134C25.7182 49.056 25.6969 48.9707 25.6692 48.8886L25.7011 48.8605ZM37.7112 54.4399L35.5628 55.177C36.358 55.1573 37.0436 54.8225 37.7112 54.4399ZM44.3395 53.2629C44.792 53.215 45.1699 52.9998 45.5351 52.7575C45.138 52.9301 44.7654 53.1589 44.3395 53.2629ZM41.745 53.6496C41.4071 53.6004 41.062 53.6282 40.7368 53.7307L41.745 53.6496Z" fill="#181818"/>
<path d="M35.4829 39.0182V39.8011C35.3765 39.0005 35.1455 38.2197 35.1316 37.4149C35.121 36.7962 35.1838 36.1859 35.5117 35.6296C35.8108 35.1212 36.5689 34.7396 37.1384 34.8092C37.7272 34.881 37.9806 35.2938 38.1381 35.7669C38.5001 36.8555 38.6875 37.9899 38.9951 39.0941C39.1157 39.5948 39.3022 40.0781 39.5498 40.5321C40.0523 41.3868 40.8125 41.8671 41.8079 41.9992C42.0208 42.0273 42.2337 42.0501 42.4467 42.0844C42.518 42.0959 42.5978 42.1281 42.6053 42.2123C42.6127 42.2965 42.5297 42.2903 42.4829 42.3163C41.9388 42.6657 41.3309 42.6844 40.7241 42.5918C40.1467 42.489 39.5989 42.2652 39.1186 41.9357C38.7652 41.708 38.5629 41.368 38.3734 41.0072C37.8684 40.07 37.5413 39.0513 37.4078 38.0003C37.3514 37.496 37.3396 36.9886 37.3013 36.4822C37.2908 36.2716 37.2303 36.0662 37.1246 35.8823C36.983 35.6473 36.7509 35.6015 36.5263 35.7689C36.3405 35.8971 36.1911 36.0694 36.0922 36.2694C35.9933 36.4695 35.9482 36.6909 35.961 36.9127C35.9812 37.5365 36.1217 38.1334 36.2058 38.7427C36.3187 39.562 36.3889 40.3855 36.2878 41.2131C36.2537 41.4928 36.1132 41.733 36.0078 41.9888C35.4872 43.2438 34.6983 44.2856 33.4825 44.9812C33.3937 45.0333 33.3012 45.0792 33.2057 45.1185C33.1142 45.1548 33.0173 45.2224 32.9321 45.0945C32.8469 44.9666 32.9321 44.9209 32.9907 44.8492C33.0971 44.7275 33.1972 44.6017 33.31 44.4873C33.8743 43.9144 34.3033 43.251 34.7249 42.5742C35.1465 41.8973 35.2998 41.1611 35.4137 40.3979C35.4723 40.0049 35.5585 39.6181 35.5596 39.2189C35.5628 39.1554 35.5809 39.0827 35.4829 39.0182ZM33.6028 44.6516C33.6539 44.6849 33.6763 44.6516 33.6986 44.6142C33.7842 44.5764 33.8607 44.5215 33.9233 44.453C33.873 44.4525 33.8234 44.4641 33.7788 44.4867C33.7343 44.5094 33.6961 44.5425 33.6678 44.583C33.6422 44.6027 33.6039 44.6121 33.6081 44.6558L33.5368 44.6776C33.5464 44.6828 33.557 44.6922 33.5666 44.6922C33.5932 44.6932 33.6209 44.6911 33.6028 44.6516ZM35.4829 38.4338V38.7531H35.5277V38.4255C35.547 38.256 35.5347 38.0844 35.4915 37.9192C35.4679 38.0898 35.465 38.2626 35.4829 38.4338ZM38.3479 40.006C38.3885 40.2616 38.5103 40.4983 38.696 40.6828L38.3479 40.006ZM35.5319 38.9142C35.5319 38.9194 35.5223 38.9256 35.5234 38.9298C35.5309 38.9506 35.5426 38.9516 35.5521 38.9298C35.5521 38.9298 35.5521 38.9184 35.5458 38.9153C35.5394 38.9121 35.5362 38.9142 35.5319 38.9142Z" fill="#181818"/>
<path d="M45.6214 36.581C44.7991 35.119 44.2776 33.514 44.0862 31.8564C44.1426 32.0082 44.1927 32.16 44.2555 32.3107C44.5387 33.0386 44.7207 33.807 44.9805 34.5462C45.335 35.5589 45.8663 36.4864 46.4412 37.3931C46.5399 37.5458 46.6305 37.7033 46.7126 37.8651C46.7648 37.9691 46.8276 38.1043 46.6743 38.1895C46.6078 38.2359 46.5273 38.2592 46.4457 38.2556C46.364 38.252 46.286 38.2218 46.224 38.1698C46.1753 38.1249 46.1331 38.0739 46.0984 38.018C45.2467 36.7567 44.3289 35.5309 43.5848 34.2C42.5169 32.2793 41.8224 30.1821 41.5364 28.0145C41.365 26.7563 41.052 25.545 40.3888 24.4325C39.9076 23.6267 39.2305 23.0215 38.4533 22.5183C37.7975 22.093 37.1651 21.6407 36.5455 21.1666C36.4954 21.1281 36.4007 21.0949 36.423 21.0283C36.4518 20.9379 36.5497 20.9909 36.6179 20.9898C38.6407 20.9639 40.0247 22.0296 41.1148 23.556C41.9303 24.6935 42.3136 25.9952 42.4222 27.3656C42.5947 29.5429 43.028 31.6547 43.9372 33.6593C44.3806 34.6474 44.901 35.6009 45.4936 36.5114C45.5199 36.5453 45.5491 36.577 45.5809 36.606C45.5809 36.6247 45.5959 36.6465 45.6182 36.632C45.6406 36.6174 45.6203 36.5987 45.6214 36.581Z" fill="#181818"/>
<path d="M36.2633 20.7184C36.0873 20.8279 35.885 20.8903 35.6766 20.8994C34.9314 20.9254 34.1766 20.9191 33.4409 21.072C32.4711 21.2737 31.6396 21.7572 30.8454 22.3124C30.8049 22.3421 30.7715 22.3801 30.7474 22.4236C30.6286 22.6272 30.4944 22.8218 30.3461 23.0059C29.4433 24.0457 28.9525 25.2705 28.7544 26.6087C28.5479 28.004 28.5341 29.4087 28.5564 30.8166C28.582 32.5207 28.4276 34.2052 27.8676 35.8345C27.7384 36.1975 27.5613 36.5425 27.3406 36.8607C27.2193 37.0385 27.0723 37.1976 26.8232 37.1851C26.7635 37.1839 26.7048 37.1702 26.651 37.145C26.5971 37.1197 26.5495 37.0836 26.5111 37.0388C26.4728 36.9941 26.4447 36.9419 26.4288 36.8857C26.4128 36.8295 26.4094 36.7707 26.4187 36.713C26.4261 36.6415 26.4444 36.5714 26.473 36.5051C26.9137 35.5204 27.0638 34.463 27.2682 33.4201C27.4269 32.6112 27.4237 31.7908 27.4162 30.9705C27.4045 29.7228 27.364 28.475 27.5908 27.2388C27.8996 25.5596 28.4031 23.95 29.587 22.6378C30.625 21.4941 31.8727 20.6623 33.4622 20.4325C34.2479 20.3181 35.0304 20.3795 35.8108 20.4907C35.9799 20.5254 36.1362 20.6041 36.2633 20.7184ZM27.2917 36.3481C27.33 36.3304 27.3332 36.2961 27.3374 36.2608C27.4506 36.0916 27.5381 35.9074 27.5972 35.7138C28.0263 34.4234 28.2598 33.0786 28.2903 31.7222C28.3307 30.592 28.2999 29.4587 28.3105 28.3274C28.3065 27.4641 28.4051 26.6034 28.6043 25.7623C28.8401 24.8392 29.257 23.9695 29.8318 23.2014C29.8516 23.1921 29.8689 23.1786 29.8825 23.1618C29.8962 23.1451 29.9058 23.1256 29.9106 23.1047C29.9436 23.0693 30.0363 23.0475 29.9404 22.982L29.9734 23.0277L29.9873 23.0111L29.9394 22.9841L29.8776 23.0808L29.7967 23.1577C29.3709 23.5736 28.929 23.9895 28.6895 24.5333C28.2781 25.4983 28.0265 26.521 27.9443 27.5632C27.8378 28.7371 27.9283 29.9099 28.0124 31.0796C28.1313 32.8263 27.8905 34.5784 27.3044 36.2327L27.2586 36.3148L27.231 36.373C27.0699 36.56 26.8917 36.7323 26.6987 36.8877C26.8552 36.9491 26.9435 36.8732 27.0244 36.7838C27.1241 36.6687 27.2056 36.5398 27.2661 36.4011L27.2917 36.3481Z" fill="#181818"/>
<path d="M49.009 41.1841C48.9982 41.7755 48.8699 42.3592 48.6311 42.9028C48.2201 43.8292 47.5153 44.502 46.6871 45.0863C45.5745 45.8713 44.3023 46.0699 42.9875 46.1375C42.0187 46.1874 41.0445 46.1676 40.0811 46.3101C39.5303 46.3799 38.9913 46.5197 38.4777 46.726C37.758 47.0306 37.0224 47.2968 36.3219 47.6462C35.9184 47.8469 35.5489 48.1037 35.1423 48.2981C33.9169 48.8825 32.65 49.3004 31.2585 49.2277C31.0754 49.2183 30.8954 49.1782 30.7262 49.1091C31.2894 49.0509 31.8515 49.0207 32.3891 48.8481C33.0056 48.6495 33.5602 48.3283 34.1266 48.0257C35.2626 47.4289 36.3506 46.7541 37.4536 46.1021C38.3851 45.5521 39.437 45.4076 40.5176 45.444C40.8065 45.4587 41.0961 45.4532 41.3842 45.4273C42.1294 45.3483 42.881 45.4564 43.6273 45.3504C45.2243 45.1216 46.5987 44.4822 47.6995 43.3156C48.0113 42.965 48.275 42.5764 48.4841 42.1594C48.6577 41.8402 48.8344 41.5137 49.009 41.1841ZM46.1718 44.9449L46.2208 44.975L46.2346 44.9449H46.1739C46.1867 44.9574 46.1739 45.0042 46.2176 44.975L46.1718 44.9449ZM46.6253 44.7369C46.4827 44.7484 46.3506 44.7733 46.3059 44.9324L46.6253 44.7369ZM46.669 44.6704C46.669 44.6704 46.6604 44.6808 46.6615 44.6839C46.669 44.7037 46.6807 44.7037 46.6903 44.6839C46.6902 44.6813 46.6896 44.6788 46.6885 44.6765C46.6874 44.6742 46.6858 44.6721 46.6839 44.6704C46.6792 44.6683 46.6741 44.6672 46.669 44.6673V44.6704Z" fill="#181818"/>
<path d="M36.4283 27.8324C36.1473 27.8938 35.8705 27.9925 35.5766 28.0154C34.8421 28.0736 34.2565 28.4074 33.7668 28.9283C32.8672 29.8807 32.3828 31.0224 32.1379 32.2774C31.9697 33.1373 31.9708 34.0044 31.9697 34.8768C31.9697 36.0933 32.0133 37.315 31.7781 38.5159C31.7079 38.939 31.555 39.345 31.3277 39.7117C31.2065 39.9171 31.0297 40.0861 30.8168 40.2002C30.6039 40.3142 30.363 40.3689 30.1204 40.3584C29.9354 40.3556 29.7506 40.3435 29.5668 40.322C29.4966 40.3137 29.4039 40.2711 29.4135 40.19C29.4231 40.1089 29.52 40.14 29.5817 40.1328C29.6556 40.125 29.7299 40.1208 29.8042 40.1203C30.4292 40.1099 30.7965 39.7824 30.9881 39.2209C31.1654 38.6738 31.2541 38.103 31.2511 37.5292C31.2649 36.4635 31.2308 35.3977 31.1978 34.332C31.1542 32.9168 31.3213 31.5371 31.9569 30.2447C32.4477 29.2455 33.1589 28.4324 34.1596 27.8948C34.4891 27.7094 34.8574 27.5994 35.2367 27.5731C35.6161 27.5468 35.9966 27.6049 36.3496 27.743C36.3783 27.7576 36.422 27.7586 36.4283 27.8324Z" fill="#181818"/>
<path d="M46.8062 42.1885C46.6529 42.6844 46.3197 42.9943 45.9779 43.2927C45.4052 43.7928 44.7004 44.0278 43.986 44.2618C42.964 44.5976 41.9058 44.712 40.8401 44.7879C40.0795 44.86 39.3248 44.9819 38.5809 45.1528C37.6526 45.3431 36.8882 45.8578 36.1014 46.3361C35.3147 46.8144 34.5843 47.3498 33.7411 47.7231C32.783 48.1505 31.7641 48.1889 30.7346 48.139C30.6946 48.1441 30.654 48.1368 30.6185 48.1182C30.583 48.0995 30.5543 48.0704 30.5366 48.035C30.7581 47.9727 30.9795 47.9997 31.1924 47.9924C32.4913 47.9467 33.5825 47.4455 34.5311 46.5971C35.0823 46.1233 35.6614 45.6813 36.2654 45.2734C37.1245 44.6693 38.1253 44.4416 39.1473 44.267C40.0129 44.1224 40.8912 44.1287 41.7599 44.0444C43.2099 43.9041 44.6142 43.5922 45.8289 42.7447C46.1377 42.5323 46.4647 42.3462 46.8062 42.1885Z" fill="#181818"/>
<path d="M30.6655 45.1342C30.6399 45.1997 30.5707 45.1956 30.5207 45.2164C30.1062 45.3799 29.7442 45.6488 29.472 45.9951C29.1704 46.3843 28.7716 46.6915 28.3137 46.8872C27.6079 47.1992 26.8754 46.9486 26.2377 46.3258C25.5435 45.6479 25.2348 44.8192 25.0048 43.9187C24.7635 42.9689 24.6454 41.9933 24.6535 41.0147C24.6535 40.5218 24.5918 40.0321 24.6301 39.5372C24.6872 38.9085 24.8565 38.2945 25.1305 37.7228C25.288 37.3807 25.4584 37.0449 25.6521 36.6477C25.7 36.8231 25.7 37.0078 25.6521 37.1832C25.4392 37.8528 25.1965 38.5151 25.0794 39.2117C25.0079 39.5474 24.9917 39.8921 25.0315 40.2328C25.1581 39.6661 25.3168 39.114 25.6553 38.6201C25.5776 38.9081 25.5063 39.1982 25.4232 39.4842C25.255 40.0654 25.1188 40.6497 25.139 41.2601C25.139 41.3974 25.1558 41.5342 25.189 41.6677C25.3466 42.226 25.4339 42.8031 25.6372 43.3458C26.0077 44.3326 26.6124 45.1134 27.6739 45.4721C28.286 45.6801 28.8801 45.6281 29.4763 45.4108C29.8627 45.2704 30.2492 45.1186 30.674 45.1394L30.6655 45.1342ZM28.4116 45.8444C27.9762 45.862 27.5599 45.7404 27.1511 45.6364C27.5278 45.8647 27.9813 45.9394 28.4138 45.8444H28.4116ZM27.083 45.6021L27.0926 45.5886H27.0766L27.083 45.6021Z" fill="#181818"/>
<path d="M29.2452 36.1879C29.2175 36.9937 28.978 37.785 28.7129 38.569C28.5 39.2001 28.402 39.8676 28.0827 40.4644C27.9101 40.8251 27.6958 41.1652 27.4439 41.4782C27.3065 41.6342 27.1586 41.7818 26.9116 41.6945C26.6986 41.6186 26.5698 41.4304 26.5741 41.158C26.5784 40.7289 26.688 40.3071 26.8935 39.9279C27.2863 39.2063 27.7207 38.5035 28.0347 37.7444C28.2913 37.1206 28.549 36.4967 28.6874 35.8323C28.6961 35.7458 28.7313 35.6639 28.7885 35.5973C28.9344 35.4497 29.1079 35.4767 29.1931 35.6649C29.2644 35.823 29.2463 35.9924 29.2452 36.1879ZM27.8144 39.3841C27.4897 39.7241 27.4268 40.1535 27.3885 40.5902C27.6014 40.217 27.7164 39.8104 27.8474 39.4091C27.8516 39.3844 27.8534 39.3593 27.8527 39.3342C27.809 39.3301 27.8197 39.3613 27.8144 39.3841Z" fill="#181818"/>
<path d="M37.6356 48.3521C37.5594 48.4809 37.4598 48.595 37.3417 48.6889C36.456 49.6133 35.2934 50.0094 34.0851 50.3141C32.6063 50.6853 31.1424 50.522 29.6871 50.1716C29.4429 50.112 29.2002 50.0486 28.9589 49.9814C28.9035 49.9658 28.8045 49.9668 28.8226 49.8774C28.8407 49.788 28.9291 49.8108 28.994 49.8129C29.3498 49.8235 29.704 49.8625 30.0533 49.9294C31.9091 50.2801 33.8322 49.9467 35.451 48.9936C36.0455 48.6485 36.7094 48.4329 37.3971 48.3614C37.4631 48.3614 37.5291 48.3593 37.6356 48.3521Z" fill="#181818"/>
<path d="M42.4211 43.6972C42.2749 43.7106 42.1277 43.6851 41.9952 43.6234C41.8888 43.5756 41.7823 43.5194 41.7823 43.3978C41.783 43.3355 41.804 43.2751 41.8423 43.2254C41.8806 43.1756 41.9342 43.1391 41.9952 43.1212C42.1599 43.0572 42.328 43.0021 42.4988 42.9559C42.9246 42.8467 43.359 42.7479 43.7902 42.6439C44.0051 42.589 44.2112 42.505 44.4023 42.3944C44.5578 42.3071 44.5578 42.202 44.4694 42.071C44.3642 41.9029 44.1956 41.7819 43.9999 41.7342C43.5204 41.6106 43.0478 41.4627 42.584 41.2912C42.1984 41.1598 41.8411 40.96 41.53 40.7017C41.4427 40.6278 41.3043 40.5551 41.3905 40.4012C41.4768 40.2473 41.6247 40.2868 41.761 40.3274C41.9429 40.3888 42.1177 40.4686 42.2827 40.5655C42.8629 40.8774 43.4612 41.1384 44.1266 41.2226C44.5472 41.2776 44.9398 41.4593 45.2498 41.7425C45.3202 41.799 45.3778 41.8692 45.4187 41.9487C45.4597 42.0283 45.4832 42.1153 45.4877 42.2042C45.4922 42.2931 45.4777 42.3819 45.4449 42.465C45.4122 42.5481 45.3621 42.6235 45.2977 42.6866C45.1356 42.857 44.9325 42.9853 44.7068 43.0598C44.0181 43.3024 43.3161 43.5075 42.6042 43.6743C42.5438 43.6864 42.4826 43.694 42.4211 43.6972ZM43.4506 43.0848C43.381 43.076 43.3102 43.082 43.2432 43.1023C43.1761 43.1225 43.1143 43.1567 43.062 43.2023L43.359 43.1357C43.3952 43.1274 43.4314 43.1212 43.4474 43.0817L43.4889 43.0744L43.474 43.0557L43.4506 43.0848ZM42.7905 43.2033C42.5916 43.2096 42.3959 43.2541 42.2145 43.3343C42.4137 43.3336 42.6103 43.2903 42.7905 43.2075V43.2033Z" fill="#181818"/>
<path d="M37.5856 42.8861C37.6207 43.302 37.5994 43.6566 37.3971 43.981C37.3045 44.1276 37.2108 44.2929 36.9904 44.2555C36.8435 44.2274 36.7051 43.954 36.7349 43.7429C36.7828 43.406 36.8414 43.0691 36.9085 42.7364C36.9506 42.5228 36.9557 42.3038 36.9234 42.0886C36.8911 41.7858 36.8822 41.4809 36.8967 41.1768C36.9067 40.9803 36.9735 40.7907 37.0894 40.6299C37.1073 40.594 37.1327 40.5622 37.1639 40.5365C37.1951 40.5108 37.2316 40.4918 37.2708 40.4807C37.3101 40.4696 37.3512 40.4667 37.3917 40.4722C37.4322 40.4776 37.471 40.4913 37.5057 40.5124C37.5782 40.5419 37.6438 40.5854 37.6987 40.6402C37.7535 40.6951 37.7965 40.7601 37.8251 40.8316C37.9113 41.0395 37.9827 41.2527 38.0849 41.4554C38.3574 41.9899 38.7705 42.413 39.2261 42.8009C39.3156 42.8768 39.3933 42.9672 39.487 43.0369C39.5204 43.0569 39.5493 43.0835 39.5717 43.115C39.5941 43.1465 39.6096 43.1821 39.6172 43.2197C39.6248 43.2574 39.6243 43.2961 39.6158 43.3335C39.6074 43.3709 39.591 43.4062 39.5679 43.4372C39.5283 43.4992 39.4699 43.5475 39.4008 43.5755C39.3317 43.6035 39.2554 43.6096 39.1825 43.5932C39.0504 43.5687 38.9292 43.5052 38.8354 43.4112C38.5273 43.1605 38.2574 42.8681 38.0338 42.543C37.9763 42.4577 37.9209 42.3215 37.7953 42.3496C37.6697 42.3777 37.6494 42.5222 37.6217 42.6324C37.6036 42.7161 37.5915 42.8008 37.5856 42.8861ZM37.2896 43.1981C37.2097 43.4757 37.2097 43.4757 37.3119 43.5807C37.3865 43.4611 37.3066 43.3592 37.2917 43.196L37.2896 43.1981Z" fill="#181818"/>
<path d="M30.5058 43.9342L31.3575 44.0018C31.3372 44.0419 31.305 44.075 31.2651 44.0969C31.2252 44.1188 31.1795 44.1284 31.1339 44.1245C30.4429 44.1359 29.7786 44.3542 29.0866 44.3782C28.5543 44.3958 28.022 44.4364 27.528 44.1702C26.952 43.8583 26.7434 43.3041 27.0095 42.7145C27.1602 42.3732 27.3977 42.0751 27.6994 41.8484C27.7494 41.811 27.7963 41.7351 27.8676 41.7808C27.9005 41.8051 27.9246 41.8389 27.9365 41.8774C27.9484 41.9159 27.9473 41.9571 27.9336 41.995C27.9054 42.0865 27.8566 42.1707 27.791 42.2414C27.6958 42.362 27.6213 42.4968 27.5706 42.6407C27.4641 42.9215 27.5834 43.1959 27.8783 43.3498C28.2285 43.5318 28.615 43.5578 29.0004 43.5734C29.5497 43.6025 30.0969 43.5651 30.6442 43.5453C31.0402 43.5308 31.4011 43.668 31.7652 43.7886C31.8387 43.8125 31.9409 43.8583 31.9079 43.9425C31.8749 44.0267 31.7737 43.9654 31.7066 43.9508C31.3103 43.855 30.8992 43.8314 30.494 43.8811C30.3535 43.8614 30.2268 43.9217 30.0927 43.9435C30.2292 43.9718 30.3707 43.9686 30.5058 43.9342ZM27.578 43.5567L27.6089 43.5869C27.6408 43.6222 27.6707 43.6607 27.7239 43.6628C27.851 43.7733 28.0169 43.8318 28.187 43.826L27.7611 43.6181L27.6547 43.5547L27.6068 43.5141C27.5919 43.4798 27.5482 43.4445 27.5312 43.4632C27.4801 43.5162 27.5461 43.5307 27.578 43.5567ZM27.4918 43.3997L27.4662 43.4143C27.4662 43.4143 27.4758 43.4278 27.4801 43.4278C27.4843 43.4278 27.4982 43.4185 27.5078 43.4143L27.4918 43.3997Z" fill="#181818"/>
<path d="M48.4384 45.3525C48.2947 45.4201 48.2063 45.5501 48.0924 45.652C47.2737 46.385 46.2825 46.6855 45.2009 46.7884C44.6196 46.8446 44.0468 46.7718 43.4708 46.7416C43.1468 46.7399 42.8231 46.7215 42.501 46.6865C42.691 46.595 42.8983 46.5426 43.1099 46.5326C43.6348 46.4931 44.1607 46.5742 44.6867 46.5326C45.5463 46.4789 46.3841 46.246 47.1438 45.8495C48.0317 45.3681 48.6236 44.6288 49.0761 43.7544C49.4198 43.0776 49.5994 42.3326 49.601 41.5771C49.7511 41.6281 49.7308 41.7477 49.7362 41.8506C49.7883 42.9174 49.5232 43.9145 49.0612 44.8721C48.7695 45.4721 48.4512 46.0627 48.235 46.6959C48.1829 46.8549 48.0872 46.9969 47.9582 47.1066C47.9189 46.6387 48.0935 46.2498 48.2372 45.8516C48.2979 45.6811 48.4384 45.5397 48.4341 45.3473C48.4522 45.365 48.4661 45.3608 48.4757 45.339C48.4757 45.339 48.4757 45.3265 48.4703 45.3203L48.4384 45.3525Z" fill="#181818"/>
<path d="M33.8167 42.0334C33.87 42.8133 33.5804 43.4662 33.1396 44.0693C32.779 44.5557 32.3901 45.0216 31.9749 45.4646C31.8541 45.5816 31.762 45.7238 31.7056 45.8806C31.69 45.9214 31.6833 45.965 31.6857 46.0085C31.6881 46.0521 31.6996 46.0947 31.7196 46.1337C31.7395 46.1727 31.7675 46.2072 31.8017 46.2352C31.8359 46.2632 31.8757 46.2841 31.9185 46.2965C32.3444 46.4607 32.7053 46.2965 33.047 46.0823C33.3259 45.9055 33.5793 45.6944 33.8572 45.5104C34.0998 45.3483 34.3834 45.2548 34.677 45.2401C34.5087 45.3835 34.3427 45.5291 34.1723 45.6684C33.8721 45.9159 33.574 46.1665 33.2653 46.4036C32.8639 46.7155 32.4274 46.9058 31.8919 46.8423C31.3564 46.7789 31.0753 46.1582 31.1754 45.7932C31.2657 45.4769 31.4406 45.1898 31.6822 44.9614C32.1304 44.5195 32.5828 44.0797 32.9991 43.6097C33.343 43.2246 33.5785 42.7588 33.6826 42.258C33.7039 42.1811 33.7081 42.0927 33.8167 42.0334Z" fill="#181818"/>
<path d="M31.1978 47.0389C31.1468 47.0594 31.0941 47.0758 31.0403 47.0878C30.2737 47.1917 29.5721 47.4777 28.8972 47.8354C28.186 48.2117 27.4408 48.2741 26.7211 47.9144C25.7629 47.435 25.0443 46.7218 24.7803 45.6623C24.5737 44.8305 24.3342 44.0101 24.2277 43.1596C24.2112 43.0404 24.2048 42.92 24.2086 42.7998C24.4268 43.2386 24.512 43.7138 24.6483 44.1733C24.809 44.7161 24.9304 45.2703 25.1369 45.7974C25.5447 46.8372 26.7615 47.669 27.8922 47.7043C28.2286 47.7147 28.5309 47.6004 28.8365 47.4881C29.849 47.1138 30.3461 47.0098 31.1978 47.0389Z" fill="#181818"/>
<path d="M46.8776 42.1636C46.8816 42.0998 46.8816 42.036 46.8776 41.9722C46.868 41.9171 46.9915 41.8173 46.8137 41.8069C46.7786 41.8069 46.8137 41.6759 46.8435 41.6094C46.9848 41.3307 47.0944 41.0379 47.1704 40.736C47.2705 40.2306 47.1204 39.9104 46.6668 39.6505C46.3932 39.4945 46.1026 39.3572 45.9461 39.0609C45.9221 39.0203 45.9106 38.9737 45.913 38.9269C45.9155 38.88 45.9318 38.8348 45.9599 38.7968C45.983 38.7672 46.016 38.7464 46.0532 38.7382C46.0904 38.7301 46.1294 38.735 46.1633 38.7521C46.6551 39.0245 47.2651 39.1358 47.5537 39.6941C47.8187 40.2057 47.9146 40.7173 47.5441 41.2278C47.3258 41.5262 47.115 41.8256 46.8776 42.1636ZM47.197 41.3473L47.1523 41.391C47.1118 41.4077 47.1065 41.4409 47.1076 41.4773C47.0629 41.4856 47.0575 41.5189 47.0522 41.5543L47.0171 41.6073C47.0105 41.6087 47.0043 41.6115 46.9989 41.6153C46.9934 41.6192 46.9888 41.6241 46.9853 41.6297C46.9818 41.6353 46.9796 41.6416 46.9786 41.6481C46.9777 41.6546 46.9781 41.6612 46.9798 41.6676C46.9798 41.6676 46.9915 41.6749 46.9969 41.679L47.0192 41.6094C47.0533 41.6094 47.0597 41.5907 47.065 41.5667C47.1097 41.5501 47.114 41.5158 47.1054 41.4763C47.1157 41.4757 47.1256 41.4724 47.1341 41.4669C47.1426 41.4613 47.1494 41.4536 47.1539 41.4446C47.1583 41.4356 47.1602 41.4256 47.1594 41.4156C47.1585 41.4057 47.155 41.3961 47.1491 41.3879C47.1874 41.3962 47.1959 41.3754 47.1938 41.3442L47.2172 41.3276C47.2119 41.3276 47.2055 41.3276 47.2034 41.3276C47.1986 41.3337 47.1947 41.3403 47.1917 41.3473H47.197Z" fill="#181818"/>
<path d="M30.2151 25.8008C30.1959 25.5763 30.313 25.4047 30.4025 25.2279C30.8209 24.4117 31.3553 23.6797 32.0867 23.0996C32.5173 22.7501 33.0558 22.5524 33.6155 22.5381C32.8958 22.9862 32.1655 23.3179 31.6129 23.8971C31.0604 24.4762 30.559 25.0751 30.2151 25.8008Z" fill="#181818"/>
<path d="M30.905 43.0254C30.6235 43.1994 30.2857 43.265 29.9575 43.2094C29.5061 43.1574 29.0908 43.016 28.7619 42.6958C28.632 42.5737 28.5489 42.4119 28.5264 42.2373C28.5039 42.0626 28.5435 41.8857 28.6384 41.7361C28.698 41.7943 28.6629 41.8598 28.6607 41.916C28.6501 42.0612 28.6843 42.2061 28.7588 42.3322C28.8334 42.4582 28.945 42.5595 29.0791 42.623C29.4205 42.8004 29.8042 42.8858 30.1906 42.8705C30.4323 42.8653 30.6441 42.9526 30.905 43.0254Z" fill="#181818"/>
<path d="M46.1217 41.0864C46.1228 40.4166 45.8849 39.7673 45.4489 39.2502C45.4148 39.2096 45.3424 39.1618 45.3914 39.1057C45.4403 39.0495 45.5159 39.1057 45.5702 39.1306C46.1824 39.4592 46.5997 40.4282 46.4219 41.1062C46.4081 41.1581 46.4092 41.234 46.3431 41.2507C46.2771 41.2673 46.2367 41.1977 46.192 41.1467C46.1696 41.1218 46.1654 41.077 46.1164 41.0802L46.1217 41.0864Z" fill="#181818"/>
<path d="M24.255 42.2248C23.7533 41.9337 23.7384 39.4892 24.2422 38.7593C24.1277 39.9332 23.9718 41.0675 24.255 42.2248Z" fill="#181818"/>
<path d="M30.5052 43.9341C30.3703 43.9671 30.2295 43.9688 30.0938 43.9393C30.2277 43.9175 30.3543 43.8572 30.4946 43.877L30.5052 43.9341Z" fill="#6F6F6F"/>
<path d="M30.6718 45.1402C30.6581 45.1038 30.6866 45.1081 30.7056 45.1049C30.7247 45.1017 30.7183 45.1113 30.7247 45.1145L30.6676 45.1348L30.6718 45.1402Z" fill="#181818"/>
<path d="M25.6679 48.8886C25.6372 48.8658 25.6108 48.8211 25.6414 48.8023C25.6721 48.7836 25.6795 48.8398 25.7007 48.8606L25.6679 48.8886Z" fill="#181818"/>
<path d="M47.8781 35.7949C47.8781 35.8128 47.8929 35.8444 47.8866 35.8486C47.8602 35.8665 47.8559 35.8402 47.8496 35.8223L47.8781 35.7949Z" fill="#181818"/>
<path d="M47.066 36.0425C47.428 37.0604 47.8475 38.0575 48.1999 39.0796C47.3407 38.2416 47.2023 37.1467 47.066 36.0425Z" fill="#F8F2EA"/>
<path d="M26.3403 27.4446C25.915 29.2964 26.1276 31.2023 25.7991 33.0593C25.8097 32.868 25.8214 32.6777 25.832 32.4864C25.8427 32.2951 25.8533 32.0819 25.8671 31.8802C25.9309 30.9132 26.0213 29.9473 26.0521 28.9803C26.0865 28.4591 26.1832 27.9437 26.3403 27.4446Z" fill="#F8F2EA"/>
<path d="M26.6193 26.4152L26.4303 27.2346L26.3591 27.2158C26.4335 26.9455 26.4653 26.6648 26.6161 26.4121L26.6193 26.4152Z" fill="#6F6F6F"/>
<path d="M26.6135 26.413L26.6251 26.353L26.6484 26.3699C26.6389 26.3856 26.6273 26.4004 26.6167 26.4162L26.6135 26.413Z" fill="#6F6F6F"/>
<path d="M37.7749 24.1248C37.7929 24.1487 37.8595 24.1507 37.8225 24.1944C37.7854 24.2381 37.7601 24.1944 37.7389 24.1601L37.7749 24.1248Z" fill="#F8F2EA"/>
<path d="M34.2235 30.1512C34.8463 29.3288 36.1675 28.916 37.0437 29.3194C35.9791 29.3121 35.0912 29.6823 34.2523 30.1887L34.2235 30.1512Z" fill="#F8F2EA"/>
<path d="M33.8274 32.2599C34.0126 31.5507 34.3491 30.956 35.0687 30.6555C34.578 31.1296 34.1947 31.687 33.8274 32.2599Z" fill="#F8F2EA"/>
<path d="M33.0833 39.7856C33.0556 40.3398 33.112 40.9408 32.2848 41.103C32.7447 40.7339 32.9523 40.2816 33.0833 39.7856Z" fill="#F8F2EA"/>
<path d="M34.2517 30.187C34.2295 30.2006 34.2115 30.2448 34.1798 30.1975H34.1862C34.1848 30.1917 34.1846 30.1857 34.1858 30.1799C34.187 30.174 34.1894 30.1685 34.1929 30.1637C34.1964 30.1589 34.201 30.1549 34.2062 30.152C34.2114 30.1491 34.2172 30.1474 34.2231 30.147L34.2517 30.187Z" fill="#F8F2EA"/>
<path d="M34.1788 30.197C34.198 30.213 34.1969 30.2279 34.1788 30.2396C34.1788 30.2396 34.166 30.2396 34.1595 30.2396L34.1884 30.2034L34.1788 30.197Z" fill="#F8F2EA"/>
<path d="M46.5571 48.0642C45.9737 48.1399 45.3809 48.1071 44.8101 47.9675C45.3913 48.0195 45.9769 47.9831 46.5571 48.0642Z" fill="#F8F2EA"/>
<path d="M42.6776 47.5036C43.1194 47.4454 43.508 47.6492 43.9158 47.7688C43.4867 47.7667 43.0907 47.6055 42.6776 47.5036Z" fill="#F8F2EA"/>
<path d="M44.0691 47.7803L44.5869 47.8915C44.3902 47.9643 44.2158 47.9071 44.0425 47.851L44.0691 47.7803Z" fill="#6F6F6F"/>
<path d="M37.7111 54.4399C37.0436 54.8267 36.358 55.1574 35.5616 55.1771L37.7111 54.4399Z" fill="#F8F2EA"/>
<path d="M44.3395 53.2629C44.7653 53.1589 45.1379 52.9312 45.5351 52.7576C45.1699 52.9988 44.7919 53.214 44.3395 53.2629Z" fill="#F8F2EA"/>
<path d="M41.745 53.6487L40.7368 53.7298C41.062 53.6272 41.407 53.5995 41.745 53.6487Z" fill="#F8F2EA"/>
<path d="M38.3478 40.0061L38.695 40.683C38.5098 40.4985 38.3883 40.2617 38.3478 40.0061Z" fill="#F8F2EA"/>
<path d="M35.5273 38.4224V38.7499H35.4829V38.4307L35.5273 38.4224Z" fill="#F8F2EA"/>
<path d="M33.6677 44.5831C33.696 44.5426 33.7341 44.5095 33.7785 44.4869C33.823 44.4642 33.8725 44.4526 33.9226 44.4531C33.8602 44.5216 33.7839 44.5765 33.6985 44.6143C33.6891 44.6032 33.6788 44.5927 33.6677 44.5831Z" fill="#F8F2EA"/>
<path d="M35.5273 38.4225L35.4829 38.4339C35.4647 38.2609 35.4675 38.0864 35.4914 37.9141C35.5346 38.08 35.5468 38.2523 35.5273 38.4225Z" fill="#6F6F6F"/>
<path d="M33.6081 44.6558C33.6081 44.6121 33.6419 44.6028 33.6673 44.583C33.6783 44.5926 33.6886 44.6031 33.698 44.6142C33.6758 44.6506 33.6536 44.6849 33.6028 44.6516L33.6081 44.6558Z" fill="#F8F2EA"/>
<path d="M33.6023 44.6516C33.6202 44.6916 33.5927 44.6937 33.5663 44.6927C33.5568 44.6927 33.5463 44.6832 33.5367 44.6779L33.6075 44.6558L33.6023 44.6516Z" fill="#F8F2EA"/>
<path d="M35.5319 38.9143C35.5319 38.9143 35.5436 38.9143 35.5457 38.9143C35.5479 38.9143 35.5543 38.9262 35.5521 38.9294C35.5425 38.951 35.5308 38.9499 35.5233 38.9294C35.5222 38.9294 35.5287 38.9229 35.5319 38.9143Z" fill="#F8F2EA"/>
<path d="M45.6211 36.5811C45.6211 36.5989 45.6211 36.6274 45.6211 36.6337C45.6211 36.64 45.5894 36.6263 45.5841 36.6074L45.6211 36.5811Z" fill="#F8F2EA"/>
<path d="M29.8319 23.2014C29.257 23.9695 28.8401 24.8392 28.6044 25.7623C28.4051 26.6033 28.3065 27.4641 28.3105 28.3274C28.2999 29.4587 28.3307 30.592 28.2903 31.7222C28.2598 33.0786 28.0263 34.4234 27.5972 35.7138C27.5381 35.9074 27.4506 36.0916 27.3374 36.2607L27.3044 36.2327C27.8915 34.5787 28.1327 32.8263 28.0135 31.0796C27.9294 29.9099 27.8368 28.7371 27.9453 27.5632C28.0276 26.521 28.2792 25.4983 28.6906 24.5333C28.9301 23.9885 29.3709 23.5726 29.7978 23.1577L29.8319 23.2014Z" fill="#F8F2EA"/>
<path d="M27.2686 36.4053C27.2082 36.5439 27.1268 36.6729 27.0273 36.7879C26.9465 36.8763 26.8582 36.9522 26.7019 36.8919C26.8947 36.7364 27.0727 36.5642 27.2336 36.3772L27.2686 36.4053Z" fill="#F8F2EA"/>
<path d="M29.7968 23.1578L29.8772 23.0808C29.8871 23.09 29.8981 23.098 29.91 23.1047C29.9051 23.1256 29.8956 23.1451 29.882 23.1619C29.8685 23.1786 29.8513 23.1921 29.8317 23.2014L29.7968 23.1578Z" fill="#F8F2EA"/>
<path d="M29.9401 22.9819C30.0353 23.0474 29.9401 23.0693 29.9105 23.1046C29.8986 23.0979 29.8876 23.0899 29.8777 23.0807C29.8988 23.0485 29.9189 23.0162 29.939 22.984L29.9401 22.9819Z" fill="#F8F2EA"/>
<path d="M27.337 36.2607C27.337 36.296 27.3296 36.3304 27.2915 36.348L27.2587 36.3148C27.2745 36.2867 27.2893 36.2576 27.3042 36.2295L27.337 36.2607Z" fill="#F8F2EA"/>
<path d="M29.9395 22.9841L29.9875 23.0117L29.9736 23.0287L29.9405 22.9819L29.9395 22.9841Z" fill="#F8F2EA"/>
<path d="M27.2913 36.348L27.269 36.4052L27.231 36.3761C27.2394 36.3563 27.2489 36.3376 27.2585 36.3179L27.2913 36.348Z" fill="#F8F2EA"/>
<path d="M46.6245 44.7368L46.3059 44.9323C46.3505 44.7701 46.4822 44.7451 46.6245 44.7368Z" fill="#F8F2EA"/>
<path d="M46.1739 44.9448H46.2341L46.2204 44.9758L46.1718 44.9448H46.1739Z" fill="#F8F2EA"/>
<path d="M46.1718 44.9449L46.2177 44.9747C46.175 45.0045 46.1867 44.9566 46.1739 44.9438L46.1718 44.9449Z" fill="#F8F2EA"/>
<path d="M46.669 44.6673C46.6739 44.6662 46.679 44.6662 46.6839 44.6673C46.6859 44.6691 46.6875 44.6712 46.6886 44.6737C46.6897 44.6761 46.6903 44.6787 46.6904 44.6814C46.6807 44.7008 46.669 44.7008 46.6615 44.6814C46.6604 44.6781 46.6658 44.6716 46.669 44.6673Z" fill="#F8F2EA"/>
<path d="M28.4138 45.8442C27.982 45.9387 27.5294 45.864 27.1533 45.6362C27.5664 45.7444 27.9784 45.8619 28.4138 45.8442Z" fill="#F8F2EA"/>
<path d="M27.0853 45.6032L27.0787 45.5884H27.0953L27.0853 45.6032Z" fill="#F8F2EA"/>
<path d="M27.8448 39.4092C27.714 39.8106 27.597 40.2171 27.3865 40.5904C27.4269 40.1537 27.4928 39.7243 27.8118 39.3843C27.8223 39.3932 27.8333 39.4016 27.8448 39.4092Z" fill="#F8F2EA"/>
<path d="M27.8145 39.3842C27.8197 39.3613 27.8092 39.3259 27.8504 39.3342C27.8511 39.3593 27.8493 39.3844 27.8451 39.4091C27.8344 39.4014 27.8242 39.393 27.8145 39.3842Z" fill="#F8F2EA"/>
<path d="M42.7898 43.2075C42.6102 43.2918 42.4138 43.3365 42.2146 43.3385C42.3957 43.2583 42.5912 43.2138 42.7898 43.2075Z" fill="#F8F2EA"/>
<path d="M43.446 43.0858C43.4301 43.1253 43.394 43.1315 43.3579 43.1398L43.062 43.2064C43.1142 43.1607 43.1758 43.1266 43.2425 43.1064C43.3093 43.0861 43.3798 43.0801 43.4492 43.0889L43.446 43.0858Z" fill="#6F6F6F"/>
<path d="M43.4506 43.0901L43.4741 43.0598L43.489 43.0793L43.4474 43.0868L43.4506 43.0901Z" fill="#6F6F6F"/>
<path d="M37.2914 43.196C37.3062 43.3593 37.3855 43.4612 37.3136 43.5787C37.212 43.4737 37.212 43.4737 37.2914 43.196Z" fill="#F8F2EA"/>
<path d="M27.7547 43.6223L28.1801 43.8303C28.0102 43.836 27.8445 43.7775 27.7175 43.667L27.7547 43.6223Z" fill="#F8F2EA"/>
<path d="M27.7179 43.6628C27.665 43.6628 27.6354 43.6223 27.6036 43.5869L27.647 43.5588L27.7528 43.6223L27.7179 43.6628Z" fill="#F8F2EA"/>
<path d="M27.5776 43.5568C27.5512 43.5308 27.4856 43.5162 27.529 43.4673C27.5459 43.4486 27.5893 43.484 27.6041 43.5183L27.5776 43.5568Z" fill="#F8F2EA"/>
<path d="M27.5992 43.5183L27.6467 43.5594L27.6034 43.5878L27.5728 43.5572L27.5992 43.5183Z" fill="#F8F2EA"/>
<path d="M27.4866 43.3999L27.5026 43.415C27.493 43.415 27.4844 43.4258 27.4748 43.4291C27.4652 43.4323 27.4652 43.4193 27.4609 43.415L27.4866 43.3999Z" fill="#F8F2EA"/>
<path d="M48.4384 45.3531L48.4704 45.3191C48.4704 45.3255 48.4779 45.334 48.4757 45.3382C48.4661 45.3606 48.4522 45.3648 48.4341 45.3467L48.4384 45.3531Z" fill="#F8F2EA"/>
<path d="M47.1023 41.4772C47.1023 41.4408 47.1023 41.4075 47.1467 41.3909C47.1526 41.3991 47.1561 41.4086 47.157 41.4186C47.1578 41.4286 47.1559 41.4386 47.1515 41.4476C47.1471 41.4566 47.1403 41.4643 47.1318 41.4699C47.1233 41.4754 47.1135 41.4787 47.1034 41.4792L47.1023 41.4772Z" fill="#6F6F6F"/>
<path d="M47.0469 41.5542C47.0522 41.5189 47.0575 41.4856 47.1019 41.4773C47.1104 41.5168 47.1019 41.5511 47.0617 41.5678L47.0469 41.5542Z" fill="#6F6F6F"/>
<path d="M47.0146 41.6093L46.9914 41.6798C46.9861 41.6798 46.9755 41.6735 46.9745 41.6682C46.9727 41.6618 46.9723 41.6551 46.9733 41.6485C46.9742 41.6419 46.9765 41.6356 46.9799 41.6299C46.9834 41.6242 46.9879 41.6192 46.9934 41.6153C46.9988 41.6114 47.0049 41.6087 47.0115 41.6072L47.0146 41.6093Z" fill="#6F6F6F"/>
<path d="M47.1887 41.3442C47.1887 41.3761 47.1822 41.3974 47.1438 41.3889L47.1887 41.3442Z" fill="#6F6F6F"/>
<path d="M47.0603 41.5669C47.055 41.5911 47.0487 41.6143 47.0149 41.6101L47.0498 41.5564L47.0603 41.5669Z" fill="#6F6F6F"/>
<path d="M47.1917 41.3484C47.1932 41.3419 47.1953 41.3356 47.1981 41.3296C47.1981 41.3296 47.2066 41.3296 47.2119 41.3296L47.1885 41.3473L47.1917 41.3484Z" fill="#6F6F6F"/>
<defs>
<filter id="filter0_d_2402_5152" x="0" y="0" width="83.2762" height="80" filterUnits="userSpaceOnUse" color-interpolation-filters="sRGB">
<feFlood flood-opacity="0" result="BackgroundImageFix"/>
<feColorMatrix in="SourceAlpha" type="matrix" values="0 0 0 0 0 0 0 0 0 0 0 0 0 0 0 0 0 0 127 0" result="hardAlpha"/>
<feOffset dx="5" dy="4"/>
<feGaussianBlur stdDeviation="2"/>
<feComposite in2="hardAlpha" operator="out"/>
<feColorMatrix type="matrix" values="0 0 0 0 0 0 0 0 0 0 0 0 0 0 0 0 0 0 0.25 0"/>
<feBlend mode="normal" in2="BackgroundImageFix" result="effect1_dropShadow_2402_5152"/>
<feBlend mode="normal" in="SourceGraphic" in2="effect1_dropShadow_2402_5152" result="shape"/>
</filter>
</defs>
</svg>
