<svg width="80" height="79" viewBox="0 0 80 79" fill="none" xmlns="http://www.w3.org/2000/svg">
<g filter="url(#filter0_d_12127_2)">
<path d="M0 35.5265C0.129847 26.505 3.13246 18.5617 9.20811 11.8425C14.1599 6.3673 20.2884 2.85046 27.4167 1.06147C29.6153 0.509822 31.8498 0.18944 34.113 0.0605506C38.7926 -0.206803 43.3468 0.405974 47.763 2.00273C52.2827 3.63705 56.2764 6.12719 59.7625 9.44149C62.7291 12.2616 65.0422 15.5553 66.9216 19.1892C68.8569 22.9322 70.1142 26.8725 70.6784 31.0463C70.9315 32.9178 71.0452 34.7974 70.9836 36.6828C70.6982 45.4613 67.6589 53.1446 61.7322 59.6119C56.7107 65.0908 50.5316 68.6113 43.2778 70.2007C41.1973 70.6566 39.0919 70.9424 36.9601 70.9895C27.4299 71.2009 19.0266 68.2136 11.8608 61.9002C6.17028 56.8861 2.55952 50.5896 0.870779 43.1848C0.346991 40.8898 0.0660237 38.5609 0.0337455 36.2041C0.0308111 35.9905 0.0132047 35.7777 0.000733597 35.5272L0 35.5265Z" fill="#060000"/>
<path d="M36.8972 67.8756C31.9718 67.9654 27.378 67.1523 22.9728 65.3427C19.8124 64.045 16.8597 62.3827 14.2899 60.101C10.0651 56.3507 6.97597 51.8137 5.02974 46.4969C4.1795 44.1754 3.61023 41.7839 3.30725 39.3313C3.00794 36.9141 2.91771 34.4866 3.2471 32.0701C3.69019 28.8206 4.63946 25.7118 6.05824 22.754C8.85618 16.9208 12.9841 12.2601 18.4259 8.80149C22.0294 6.51167 25.9512 4.9871 30.1547 4.2145C32.2242 3.83372 34.3112 3.65475 36.4137 3.67463C39.6709 3.70557 42.8701 4.15778 45.963 5.19037C48.1168 5.90921 50.1225 6.96831 52.021 8.21743C58.1825 12.2719 62.5525 17.7943 65.2998 24.6299C66.4919 27.5958 67.2343 30.6766 67.5314 33.8642C67.6752 35.4035 67.7559 36.9465 67.6268 38.488C67.4735 40.319 67.1067 42.1154 66.61 43.8837C65.1355 49.1269 62.5312 53.7338 58.82 57.7029C54.94 61.8524 50.3022 64.8367 44.9264 66.639C43.3117 67.1803 41.6274 67.4484 39.9372 67.6532C38.8706 67.782 37.7995 67.8395 36.8972 67.8763V67.8756Z" fill="#F8F2EA"/>
<path d="M36.6246 64.274C32.1808 64.3554 28.0362 63.6189 24.0617 61.9798C21.2104 60.8044 18.5463 59.2987 16.2278 57.232C12.4161 53.8352 9.62901 49.7258 7.87308 44.91C7.10598 42.8073 6.59237 40.6412 6.31902 38.4197C6.04898 36.2303 5.96757 34.0315 6.26475 31.8428C6.66451 28.8995 7.52097 26.0837 8.80102 23.4046C11.3254 18.1211 15.0497 13.8997 19.9594 10.767C23.2105 8.69294 26.7489 7.31204 30.5414 6.61225C32.4085 6.26736 34.2915 6.10525 36.1884 6.12326C39.1271 6.15128 42.0135 6.56088 44.8039 7.49616C46.7472 8.14725 48.5567 9.10655 50.2696 10.238C55.8286 13.9104 59.7714 18.9123 62.2501 25.1037C63.3256 27.7901 63.9954 30.5806 64.2635 33.4678C64.3932 34.8621 64.466 36.2597 64.3495 37.6559C64.2112 39.3143 63.8802 40.9414 63.4322 42.5431C62.1018 47.2922 59.7522 51.4649 56.4038 55.06C52.9032 58.8184 48.7189 61.5215 43.8687 63.1539C42.4119 63.6442 40.8923 63.8871 39.3674 64.0725C38.405 64.1893 37.4387 64.2413 36.6246 64.2747V64.274Z" fill="#181818"/>
<path d="M9.20003 14.0125C9.94903 12.8797 10.7963 11.8221 11.7016 10.8145C12.2041 10.2555 12.802 9.79151 13.4175 9.28405C12.0853 10.9685 10.6386 12.4908 9.26238 14.0751C9.2081 14.0876 9.17949 14.0751 9.20003 14.0125Z" fill="#F8F2EA"/>
<path d="M56.1924 10.3911C57.8144 11.7176 59.2868 13.1935 60.594 14.8337C60.605 14.8875 60.5896 14.9147 60.5302 14.8949C59.1327 13.3452 57.6288 11.9017 56.1235 10.4596C56.1132 10.4036 56.1323 10.3764 56.1917 10.3911H56.1924Z" fill="#F8F2EA"/>
<path d="M69.5289 33.2612C69.7057 34.6385 69.7981 36.0194 69.6639 37.4055C69.614 37.9255 69.5348 38.4425 69.4687 38.961C69.3154 38.8889 69.4174 38.7703 69.4159 38.6701C69.4973 37.3827 69.5722 36.0953 69.5281 34.8042C69.5113 34.31 69.4893 33.8158 69.4687 33.3216C69.4489 33.2619 69.4746 33.2472 69.5289 33.2604V33.2612Z" fill="#F8F2EA"/>
<path d="M39.0763 68.4634C38.3229 68.5614 37.5703 68.6623 36.8161 68.7566C36.1075 68.8457 35.3966 68.9201 34.6887 69.0188C34.5016 69.0453 34.3234 69.0158 34.1414 69.0114C34.0879 69.0099 33.9874 69.0578 33.9998 68.9363C34.0079 68.8589 34.071 68.8287 34.1466 68.8236C34.4165 68.8059 34.6858 68.7779 34.9565 68.7683C36.1735 68.7256 37.3817 68.5857 38.5885 68.4303C38.7491 68.4097 38.9113 68.3839 39.0763 68.4627V68.4634Z" fill="#F8F2EA"/>
<path d="M21.6372 5.80402C23.0927 4.98429 24.6838 4.52323 26.2647 4.0364C26.3278 4.01504 26.3432 4.04376 26.3322 4.10121C24.7697 4.64181 23.2137 5.20229 21.6981 5.86663C21.6379 5.8843 21.6233 5.85853 21.6372 5.80402Z" fill="#F8F2EA"/>
<path d="M54.5522 62.2791C55.8236 61.1611 57.125 60.0755 58.3031 58.8514C58.0185 59.4097 55.3526 61.8593 54.5522 62.2791Z" fill="#F8F2EA"/>
<path d="M60.2393 11.7138C60.7953 12.124 62.9308 14.6414 63.2287 15.2137C62.1547 14.1148 61.3103 12.8171 60.2393 11.7138Z" fill="#F8F2EA"/>
<path d="M54.7232 8.30669C53.9529 7.85742 53.1834 7.40741 52.4131 6.95814C53.2619 7.26968 54.1598 7.49358 54.7232 8.30669Z" fill="#F8F2EA"/>
<path d="M9.02355 15.8736C9.55101 15.1114 10.1467 14.4014 10.738 13.6891C10.7791 13.6391 10.8143 13.5212 10.9118 13.5949C11.0197 13.6766 10.9243 13.7422 10.87 13.807C10.2751 14.517 9.68012 15.2277 9.08591 15.9385C9.03383 15.9473 9.00448 15.9333 9.02429 15.8736H9.02355Z" fill="#F8F2EA"/>
<path d="M69.0855 41.7849C68.9321 42.8087 68.6945 43.8125 68.3724 44.7965C68.3548 44.8179 68.3365 44.8186 68.3167 44.7987C68.5741 43.7359 68.836 42.6746 69.0216 41.5956C69.1603 41.6185 69.0818 41.7157 69.0855 41.7842V41.7849Z" fill="#F8F2EA"/>
<path d="M60.5312 14.8948C60.5525 14.8741 60.5738 14.8543 60.5951 14.8336C61.3067 15.6541 61.9273 16.5416 62.5164 17.4527C62.5362 17.5101 62.509 17.5197 62.4606 17.5079C61.8664 16.6005 61.1922 15.7528 60.5312 14.8948Z" fill="#F8F2EA"/>
<path d="M69.0856 41.7848C69.0569 41.7244 69.098 41.6397 69.0217 41.5962C69.153 40.6211 69.2844 39.646 69.4157 38.6708C69.4523 38.7644 69.3959 38.8748 69.4685 38.9617C69.3408 39.903 69.2132 40.8435 69.0863 41.7848H69.0856Z" fill="#F8F2EA"/>
<path d="M68.032 45.9099C67.8721 46.7208 67.5324 47.4706 67.2493 48.2395C67.1994 48.375 67.1414 48.5076 67.0871 48.6416C67.0387 48.6483 67.0042 48.6431 67.0365 48.5813C67.3659 47.679 67.7121 46.782 67.9865 45.8606C68.0085 45.8525 68.0305 45.8451 68.0452 45.8709C68.0511 45.8812 68.043 45.8959 68.0327 45.9099H68.032Z" fill="#F8F2EA"/>
<path d="M68.5356 26.3085C68.8063 27.1533 69.0668 28.001 69.0939 28.8966C68.9076 28.0342 68.722 27.1717 68.5356 26.3085Z" fill="#F8F2EA"/>
<path d="M33.3643 2.53544C33.9981 2.47357 34.629 2.37341 35.2658 2.35647C35.2687 2.39182 35.2724 2.42644 35.2753 2.46179C34.6583 2.50745 34.0414 2.55312 33.4237 2.59878C33.365 2.61425 33.3481 2.58994 33.3635 2.5347L33.3643 2.53544Z" fill="#F8F2EA"/>
<path d="M1.95551 35.4324V37.1728C1.9247 37.1728 1.89389 37.1713 1.86307 37.1706C1.73249 36.5445 1.96138 35.9303 1.95551 35.4324Z" fill="#F8F2EA"/>
<path d="M3.76118 24.8016C3.64527 25.1183 3.52643 25.435 3.41419 25.7532C3.38484 25.8364 3.34963 25.9034 3.25279 25.8644C3.12808 25.8136 3.22272 25.7414 3.25059 25.684C3.39364 25.3879 3.54036 25.0947 3.68635 24.8001C3.71203 24.7758 3.73697 24.7766 3.76191 24.8023L3.76118 24.8016Z" fill="#F8F2EA"/>
<path d="M27.8933 3.15995C27.3299 3.30063 26.7673 3.4413 26.2039 3.58271C26.7122 3.29768 27.2727 3.19899 27.8332 3.09882C27.8904 3.08262 27.9073 3.10619 27.8933 3.16069V3.15995Z" fill="#F8F2EA"/>
<path d="M3.23139 44.5688C2.96143 44.0223 2.88514 43.4213 2.80664 42.8203C2.94822 43.4029 3.08981 43.9862 3.23139 44.5688Z" fill="#F8F2EA"/>
<path d="M9.0237 15.8736C9.04424 15.8949 9.06479 15.917 9.08533 15.9384C8.82783 16.2941 8.57034 16.6506 8.31285 17.0063C8.29084 16.9916 8.26957 16.9769 8.24756 16.9621C8.49625 16.5932 8.73247 16.2153 9.0237 15.8736Z" fill="#F8F2EA"/>
<path d="M13.7065 60.9806C14.0513 61.2553 14.3961 61.53 14.7409 61.8047C14.2017 61.555 13.8679 61.2877 13.7065 60.9806Z" fill="#F8F2EA"/>
<path d="M40.5504 2.01991C40.1586 1.99045 39.7661 1.96025 39.3458 1.92858C39.7779 1.70173 40.1623 1.96835 40.5577 1.94773C40.5548 1.9713 40.5526 1.9956 40.5496 2.01917L40.5504 2.01991Z" fill="#F8F2EA"/>
<path d="M47.7373 4.96669C48.1899 5.02487 48.5824 5.19943 48.9397 5.46163C48.5391 5.29665 48.1378 5.13167 47.7373 4.96669Z" fill="#F8F2EA"/>
<path d="M26.3321 4.10126C26.3094 4.0799 26.2874 4.0578 26.2646 4.03644C26.5933 3.88472 26.9447 3.81917 27.2902 3.733C27.2976 3.75657 27.3049 3.78014 27.3122 3.80371C26.985 3.90314 26.6586 4.00183 26.3314 4.10126H26.3321Z" fill="#F8F2EA"/>
<path d="M42.5381 68.1806C42.8176 68.0974 43.0971 68.0134 43.3766 67.9302C43.2101 68.2204 42.9035 68.1541 42.6592 68.2439C42.599 68.2601 42.5308 68.2933 42.5381 68.1806Z" fill="#F8F2EA"/>
<path d="M37.1265 69.4246C37.5747 69.4165 38.0171 69.2891 38.4697 69.3746C38.0215 69.3827 37.5806 69.5292 37.1265 69.4246Z" fill="#F8F2EA"/>
<path d="M12.6987 59.1989C12.9533 59.439 13.2086 59.6798 13.4631 59.9199C13.447 59.9369 13.4301 59.9545 13.414 59.9715C13.1323 59.7586 12.8858 59.5097 12.6987 59.1989Z" fill="#F8F2EA"/>
<path d="M14.2333 60.6748C13.9626 60.4885 13.7176 60.2741 13.5107 60.0171C13.7939 60.1872 14.0411 60.4008 14.2744 60.6321C14.2803 60.6645 14.2663 60.6792 14.2333 60.6748Z" fill="#F8F2EA"/>
<path d="M4.71124 49.424C4.53224 49.1301 4.41487 48.8127 4.36865 48.4658C4.49777 48.7722 4.62688 49.0793 4.75599 49.3857C4.75599 49.4159 4.74132 49.4284 4.71198 49.4247L4.71124 49.424Z" fill="#F8F2EA"/>
<path d="M56.1926 10.391C56.1699 10.4138 56.1471 10.4366 56.1244 10.4594C55.949 10.2989 55.7737 10.1383 55.5991 9.97777C55.8419 10.058 56.029 10.209 56.1933 10.391H56.1926Z" fill="#F8F2EA"/>
<path d="M62.4604 17.508C62.4788 17.4896 62.4979 17.4712 62.5162 17.4527C62.7077 17.6663 62.839 17.9153 62.9307 18.1922C62.7737 17.9639 62.6174 17.7356 62.4604 17.508Z" fill="#F8F2EA"/>
<path d="M27.8934 3.16001C27.8736 3.13939 27.8531 3.11877 27.8333 3.09814C28.1172 3.00387 28.4055 2.93169 28.7062 2.92801C28.7128 2.93537 28.7187 2.94348 28.7253 2.95084C28.459 3.06574 28.1729 3.09814 27.8934 3.15927V3.16001Z" fill="#F8F2EA"/>
<path d="M18.4851 63.6216C18.6949 63.7446 18.9055 63.8676 19.1153 63.9898C18.8607 63.9486 18.6465 63.8293 18.4851 63.6216Z" fill="#F8F2EA"/>
<path d="M42.5381 68.1807C42.5528 68.2514 42.6188 68.2227 42.6592 68.244C42.4083 68.3029 42.1581 68.3626 41.9072 68.4215C42.0994 68.2816 42.3166 68.2241 42.5381 68.1807Z" fill="#F8F2EA"/>
<path d="M69.5289 33.2612C69.5091 33.2818 69.4893 33.3017 69.4687 33.3223C69.391 33.108 69.4123 32.8892 69.4651 32.6675L69.5289 33.2612Z" fill="#F8F2EA"/>
<path d="M15.1262 61.3782C14.9325 61.2625 14.7484 61.1344 14.5943 60.9679C14.5929 60.9392 14.6075 60.9289 14.6347 60.9355C14.8269 61.0195 14.9633 61.1778 15.1247 61.303C15.1504 61.3273 15.1511 61.3524 15.1262 61.3782Z" fill="#F8F2EA"/>
<path d="M21.6372 5.80407C21.6577 5.82469 21.6775 5.84605 21.6981 5.86667C21.5433 5.97494 21.3716 6.0427 21.1846 6.07216C21.3174 5.94916 21.467 5.8593 21.6365 5.80333L21.6372 5.80407Z" fill="#F8F2EA"/>
<path d="M33.3644 2.53538C33.3842 2.55674 33.4047 2.5781 33.4245 2.59945C33.2316 2.69815 33.0306 2.65027 32.8267 2.60461C33.0057 2.58178 33.1854 2.55821 33.3644 2.53538Z" fill="#F8F2EA"/>
<path d="M3.76062 24.8015C3.73568 24.8015 3.71 24.8 3.68506 24.7993C3.75915 24.6351 3.83325 24.4708 3.90734 24.3073C3.9022 24.49 3.87286 24.6608 3.76062 24.8015Z" fill="#F8F2EA"/>
<path d="M4.99609 21.6324C5.08486 21.4505 5.17362 21.2678 5.26239 21.0859C5.2844 21.0962 5.30714 21.1065 5.32915 21.1168C5.24478 21.3009 5.19196 21.4998 4.99609 21.6324Z" fill="#F8F2EA"/>
<path d="M67.5173 27.0716C67.474 26.8978 67.4307 26.7239 67.3875 26.5501C67.5144 26.679 67.5686 26.8322 67.5709 27.0031C67.5987 27.062 67.5709 27.0775 67.5166 27.0716H67.5173Z" fill="#F8F2EA"/>
<path d="M67.036 48.5813C67.0529 48.6012 67.0697 48.6218 67.0866 48.6417C67.0323 48.7957 66.9714 48.9459 66.8247 49.1094C66.879 48.8914 66.9443 48.7316 67.036 48.5813Z" fill="#F8F2EA"/>
<path d="M9.19964 14.0124C9.22018 14.033 9.24145 14.0544 9.26199 14.075C9.1923 14.2341 9.06612 14.3468 8.93701 14.4602C8.9891 14.2893 9.07273 14.1384 9.19964 14.0124Z" fill="#F8F2EA"/>
<path d="M4.75495 49.3856C4.84739 49.5477 4.93468 49.7104 4.95376 49.9034C4.84225 49.759 4.75129 49.6051 4.71094 49.4247C4.72561 49.4114 4.74028 49.3989 4.75495 49.3856Z" fill="#F8F2EA"/>
<path d="M15.126 61.3782C15.126 61.3532 15.1252 61.3281 15.1245 61.3031C15.2698 61.3871 15.4025 61.4865 15.503 61.6294C15.3629 61.5682 15.2221 61.5093 15.126 61.379V61.3782Z" fill="#F8F2EA"/>
<path d="M67.0499 25.1449C66.9369 25.0204 66.8525 24.8857 66.8826 24.6522C66.9523 24.8577 67.0014 25.0013 67.0499 25.1449Z" fill="#F8F2EA"/>
<path d="M67.5171 27.0715C67.5354 27.0487 67.553 27.0259 67.5714 27.003C67.6447 27.14 67.666 27.2881 67.6433 27.4471C67.6015 27.3219 67.5589 27.1967 67.5171 27.0715Z" fill="#F8F2EA"/>
<path d="M68.3168 44.7986C68.3359 44.8067 68.3542 44.8053 68.3726 44.7964C68.3308 44.9305 68.2889 45.0653 68.2222 45.2796C68.1987 45.0476 68.2369 44.9187 68.3168 44.7994V44.7986Z" fill="#F8F2EA"/>
<path d="M28.7061 2.9287C28.8586 2.85136 29.0186 2.81748 29.2497 2.84474C29.0362 2.88819 28.8902 2.96258 28.7251 2.95153C28.7185 2.94416 28.7127 2.93606 28.7061 2.9287Z" fill="#F8F2EA"/>
<path d="M14.5938 60.968C14.4735 60.8701 14.3532 60.7728 14.2329 60.6749C14.2468 60.6609 14.2601 60.6462 14.274 60.6322C14.4112 60.7132 14.5322 60.8133 14.6342 60.9356C14.6166 60.9408 14.6034 60.9518 14.5938 60.968Z" fill="#F8F2EA"/>
<path d="M68.0323 45.91C68.0169 45.8938 68.0015 45.8769 67.9861 45.8607C68.0228 45.7325 68.0594 45.6044 68.0961 45.4762C68.1159 45.6294 68.1218 45.7789 68.0316 45.91H68.0323Z" fill="#F8F2EA"/>
</g>
<path d="M20.0858 60.7151C19.5327 60.5963 19.0716 60.2885 18.5999 60.0022C16.8675 58.9685 15.4051 57.5973 14.0206 56.1466C13.5171 55.6214 12.9923 55.1117 12.6055 54.4831C12.4121 54.1659 12.2069 53.8534 12.109 53.4874C12.3448 53.5373 12.4934 53.3686 12.6491 53.2593C14.0489 52.2351 15.4641 51.2334 16.7425 50.0512C17.7956 49.0757 18.8476 48.099 19.8287 47.0487C20.4184 46.4201 20.8571 45.6775 21.3866 45.0038C22.3147 43.8144 23.109 42.5249 23.7547 41.1589C24.3325 39.947 24.8903 38.7255 25.4658 37.5112C25.7402 36.943 26.1366 36.4433 26.6263 36.0485C26.8739 35.8442 27.0438 35.8418 27.3209 35.9915C27.7832 36.241 27.8091 36.6616 27.6936 37.1096C27.4683 37.9793 27.2089 38.8408 27.0249 39.7236C26.9541 40.0634 26.8492 40.4008 26.8963 40.7573C26.9176 40.9189 26.9565 41.0638 27.1464 41.1197C27.3362 41.1755 27.4483 41.0745 27.545 40.9438C27.7643 40.642 27.999 40.3497 28.2219 40.0539C29.6551 38.1599 31.1988 36.3535 32.8448 34.6441C33.2929 34.1688 33.7717 33.7316 34.385 33.475C34.4685 33.4393 34.5593 33.4244 34.6497 33.4317C34.7401 33.4389 34.8275 33.468 34.9043 33.5165C34.9812 33.5651 35.0453 33.6315 35.0912 33.7104C35.1371 33.7892 35.1635 33.878 35.168 33.9692C35.1762 34.1695 35.1314 34.3684 35.0383 34.5455C34.7492 35.0755 34.4237 35.5845 34.0642 36.0687C33.1952 37.2857 32.2394 38.4373 31.2044 39.5145C30.7124 40.0105 30.2682 40.5523 29.8776 41.1328C29.8517 41.172 29.8246 41.2124 29.7998 41.2516C29.6536 41.4987 29.6583 41.7173 29.834 41.8278C30.0569 41.9704 30.2102 41.8076 30.3388 41.6603C31.0676 40.8286 31.8094 40.0147 32.5099 39.1651C33.7375 37.6752 34.9746 36.1947 36.4889 34.9839C36.6699 34.8308 36.8757 34.7102 37.0974 34.6275C37.3357 34.5385 37.5919 34.5096 37.8439 34.5431C37.7389 34.4136 37.6245 34.4849 37.5479 34.4243C37.6471 34.4048 37.7496 34.4109 37.8459 34.4419C37.9422 34.473 38.0291 34.5281 38.0986 34.602C38.1681 34.676 38.218 34.7664 38.2435 34.865C38.2691 34.9635 38.2696 35.067 38.2449 35.1657C38.1446 35.5994 37.8698 35.9321 37.6092 36.2719C37.266 36.7211 36.8379 37.093 36.4735 37.5219C35.7235 38.4059 34.9734 39.2887 34.2328 40.1822C33.5252 41.0389 32.8825 41.9455 32.1631 42.7962C31.9721 43.0208 31.9674 43.2204 32.1195 43.344C32.2716 43.4675 32.4733 43.4141 32.6573 43.2133C32.9214 42.9281 33.1821 42.6405 33.4191 42.3304C34.2953 41.1922 35.1822 40.0622 36.0584 38.9227C36.5315 38.3056 37.058 37.7318 37.6316 37.2082C37.9052 36.9599 38.1989 36.746 38.588 36.7329C38.9536 36.7258 39.0975 36.8815 39.0597 37.245C39.0246 37.5555 38.9118 37.8519 38.7319 38.1065C38.2814 38.7402 37.849 39.3873 37.4347 40.0479C36.1902 42.0343 34.8156 43.9349 33.32 45.7369C33.2658 45.8023 33.1691 45.8771 33.2269 45.9591C33.2847 46.0411 33.3884 45.9591 33.4627 45.9247C34.1397 45.6193 34.8119 45.3033 35.49 44.9991C36.1217 44.7055 36.7942 44.5108 37.4842 44.4216C37.7849 44.386 37.8946 44.5404 37.8085 44.8292C37.7369 45.0413 37.6155 45.2329 37.4547 45.3876C37.1125 45.73 36.7394 46.0394 36.3403 46.312C35.0784 47.2293 33.7128 47.9873 32.4485 48.907C31.4178 49.6567 30.2468 50.1855 29.1995 50.9162C28.6677 51.2881 28.058 51.5649 27.5839 51.9974C26.0921 53.3603 24.6167 54.7409 23.2983 56.2868C22.1942 57.5777 21.1702 58.936 20.2321 60.3539C20.1633 60.465 20.1138 60.5872 20.0858 60.7151Z" fill="#F8F2EA"/>
<path d="M20.0858 60.7151C20.113 60.5834 20.1629 60.4575 20.2332 60.3432C21.1714 58.9253 22.1954 57.567 23.2994 56.2761C24.6179 54.7314 26.0932 53.3496 27.5851 51.9868C28.0568 51.5543 28.6688 51.2739 29.2007 50.9055C30.2479 50.1748 31.419 49.646 32.4497 48.8963C33.7116 47.9767 35.0772 47.2186 36.3414 46.3013C36.7406 46.0288 37.1137 45.7193 37.4559 45.3769C37.6167 45.2222 37.7381 45.0306 37.8097 44.8185C37.8958 44.525 37.7861 44.3753 37.4854 44.4109C36.7954 44.5001 36.1229 44.6949 35.4912 44.9884C34.8131 45.2926 34.1408 45.6086 33.4639 45.914C33.3932 45.9461 33.2988 46.0423 33.2281 45.9484C33.1573 45.8546 33.267 45.7916 33.3212 45.7263C34.8168 43.9242 36.1914 42.0237 37.4358 40.0373C37.8486 39.3766 38.281 38.7295 38.7331 38.0958C38.913 37.8412 39.0258 37.5448 39.0609 37.2344C39.1034 36.8708 38.9595 36.7151 38.5892 36.7222C38.2 36.7294 37.9064 36.9432 37.6328 37.1975C37.0592 37.7211 36.5327 38.2949 36.0596 38.9121C35.1834 40.0515 34.2965 41.1815 33.4203 42.3198C33.1844 42.6299 32.9226 42.9138 32.6585 43.2026C32.4733 43.4034 32.2657 43.4533 32.1207 43.3333C31.9756 43.2133 31.9733 43.0101 32.1643 42.7855C32.8837 41.9383 33.5264 41.0318 34.234 40.1715C34.9723 39.278 35.7223 38.3952 36.4747 37.5112C36.8391 37.0823 37.2672 36.7104 37.6104 36.2612C37.871 35.9214 38.1458 35.5887 38.246 35.155C38.2707 35.0563 38.2703 34.9528 38.2447 34.8543C38.2192 34.7557 38.1693 34.6653 38.0998 34.5913C38.0303 34.5174 37.9433 34.4623 37.8471 34.4313C37.7508 34.4002 37.6483 34.3941 37.549 34.4136C37.6257 34.4766 37.7401 34.4053 37.8451 34.5324C37.5931 34.4989 37.3369 34.5278 37.0986 34.6168C36.8769 34.6995 36.671 34.8201 36.49 34.9733C34.9758 36.1864 33.7387 37.6645 32.511 39.1544C31.8105 40.0064 31.0687 40.8179 30.3399 41.6496C30.2114 41.797 30.0581 41.9597 29.8352 41.8172C29.6595 41.7066 29.6548 41.488 29.801 41.2409C29.8258 41.2005 29.8529 41.1601 29.8788 41.1221C30.2701 40.5411 30.7151 39.9989 31.2079 39.5026C32.2429 38.4254 33.1987 37.2738 34.0677 36.0569C34.4272 35.5726 34.7527 35.0636 35.0418 34.5336C35.1349 34.3565 35.1797 34.1576 35.1716 33.9574C35.167 33.8661 35.1406 33.7773 35.0947 33.6985C35.0488 33.6197 34.9847 33.5532 34.9079 33.5047C34.831 33.4562 34.7436 33.427 34.6532 33.4198C34.5628 33.4126 34.472 33.4274 34.3885 33.4631C33.7753 33.7197 33.2965 34.1617 32.8483 34.6322C31.2023 36.3416 29.6586 38.1481 28.2254 40.042C28.0025 40.3391 27.7679 40.6302 27.5485 40.932C27.4518 41.0627 27.3409 41.1696 27.1499 41.1078C26.9588 41.046 26.9211 40.907 26.8999 40.7454C26.8527 40.389 26.9577 40.0515 27.0284 39.7117C27.2124 38.8313 27.4718 37.9698 27.6971 37.0977C27.815 36.6498 27.7867 36.2292 27.3244 35.9796C27.0473 35.8299 26.8775 35.8323 26.6298 36.0367C26.1401 36.4315 25.7437 36.9311 25.4694 37.4993C24.8939 38.7136 24.3361 39.9351 23.7582 41.147C23.1125 42.513 22.3183 43.8025 21.3901 44.992C20.8606 45.6657 20.4184 46.4083 19.8323 47.0368C18.8511 48.0872 17.7991 49.0638 16.746 50.0393C15.4676 51.2275 14.0525 52.2256 12.6526 53.2474C12.497 53.3662 12.3448 53.5254 12.1125 53.4755C11.9825 53.3928 11.8756 53.278 11.8019 53.1421C11.7282 53.0061 11.6902 52.8534 11.6915 52.6985C11.7073 52.7105 11.7265 52.717 11.7463 52.717C11.7661 52.717 11.7854 52.7105 11.8012 52.6985C12.0701 52.5321 12.3472 52.3777 12.6055 52.1959C13.4593 51.5935 14.3013 50.9744 15.1115 50.3138C16.0821 49.5225 17.0373 48.7133 17.93 47.8305C18.9148 46.8562 19.7415 45.7476 20.6118 44.6759C21.8418 43.1634 22.6355 41.3977 23.4245 39.6345C23.954 38.4463 24.5071 37.2831 25.2276 36.203C25.4871 35.8121 25.7677 35.4271 26.1546 35.1562C26.6062 34.8414 27.1204 34.7107 27.6275 34.9839C28.1712 35.2762 28.4353 35.7586 28.4 36.4038C28.3557 37.0079 28.2287 37.6029 28.0226 38.1718C27.8858 38.577 27.7608 38.9857 27.6204 39.423C27.7755 39.3207 27.9159 39.1976 28.0379 39.057C28.42 38.6305 28.7455 38.1599 29.0887 37.7037C30.352 36.0179 31.836 34.5122 33.5005 33.2278C33.87 32.9257 34.3013 32.7099 34.7635 32.5957C35.477 32.4377 36.0242 32.8191 36.1127 33.5463C36.156 33.8576 36.1199 34.1749 36.0077 34.4683C36.2253 34.3323 36.4309 34.1777 36.6221 34.0061C36.8626 33.7857 37.1522 33.6267 37.4665 33.5427C38.2354 33.3395 38.8817 33.7981 38.9678 34.5942C38.996 34.993 38.933 35.393 38.7838 35.7634C38.8113 35.7652 38.8389 35.7652 38.8663 35.7634C39.5374 35.6541 39.9784 36.0854 39.8959 36.7745C39.8568 37.083 39.7709 37.3835 39.6411 37.6657C39.0261 38.9939 38.2684 40.2501 37.3816 41.412C36.674 42.3566 36.036 43.3594 35.2742 44.2636C35.3815 44.3195 35.4558 44.2505 35.5324 44.2185C35.8999 44.0539 36.2806 43.9212 36.6705 43.8216C37.1422 43.7099 37.6233 43.584 38.1198 43.7028C38.5515 43.8014 38.7354 44.0295 38.7272 44.4787C38.7189 44.9278 38.4913 45.2415 38.2272 45.5587C37.5479 46.3821 36.707 47.0178 35.8461 47.6273C34.4699 48.6028 33.004 49.4393 31.6006 50.3661C30.8211 50.8794 30.0203 51.3642 29.2868 51.9452C27.6285 53.2374 26.1053 54.6965 24.7406 56.2998C23.7963 57.4358 22.9182 58.626 22.1107 59.8644C21.7946 60.3396 21.5777 60.9005 21.1059 61.2688C20.9635 61.3111 20.8186 61.344 20.6719 61.3674C20.2887 61.4042 20.1554 61.2949 20.0988 60.9171C20.0913 60.85 20.0869 60.7826 20.0858 60.7151ZM31.8683 34.9875C31.8754 35.0243 31.8483 35.0327 31.8223 35.0422C31.8072 35.0588 31.7931 35.0763 31.7799 35.0944L31.7268 35.1313C31.7139 35.1512 31.7021 35.1718 31.6914 35.1931C31.6726 35.2061 31.6549 35.2204 31.6372 35.2347C31.6195 35.2489 31.6171 35.2846 31.5829 35.2786C31.5829 35.3083 31.5711 35.325 31.5393 35.3202C31.5378 35.3488 31.5254 35.3757 31.5048 35.3954C31.4842 35.415 31.4568 35.426 31.4284 35.4259C31.4544 35.4723 31.3341 35.5258 31.4355 35.5673C31.4166 35.5602 31.4131 35.5103 31.3765 35.546C31.34 35.5816 31.3883 35.5875 31.3954 35.6077C31.3813 35.5959 31.3647 35.5733 31.353 35.5757C31.3152 35.5757 31.3211 35.6137 31.3258 35.6422C31.3093 35.6422 31.2963 35.5994 31.2775 35.6339C31.2704 35.6493 31.2775 35.6707 31.2775 35.6897C31.2598 35.6897 31.2386 35.6802 31.2244 35.6897C31.1914 35.7064 31.2244 35.7218 31.2244 35.7373C31.2044 35.7373 31.1831 35.7206 31.1666 35.7539C31.1501 35.7872 31.1855 35.7872 31.1949 35.8038C31.1761 35.7978 31.1513 35.7824 31.1419 35.7883C31.1041 35.8133 31.1312 35.8359 31.1501 35.8573C31.1324 35.8573 31.1324 35.8074 31.0982 35.8418C31.064 35.8763 31.0982 35.8834 31.0982 35.9036L31.0499 35.8941C31.0499 35.9107 31.0499 35.9274 31.0499 35.9452C31.011 35.9452 30.9968 35.9606 30.9992 35.9963L30.9426 35.9808C30.9426 35.9808 30.9367 35.9891 30.9331 35.9939H30.9992C30.9992 35.9583 31.0074 35.9357 31.0487 35.944C31.0487 35.9095 31.0664 35.8977 31.0994 35.9024C31.0912 35.8608 31.1159 35.8537 31.1478 35.8549C31.145 35.8466 31.1447 35.8377 31.1468 35.8293C31.149 35.8209 31.1535 35.8132 31.1599 35.8073C31.1662 35.8014 31.1742 35.7975 31.1827 35.796C31.1912 35.7946 31.2 35.7956 31.2079 35.799L31.2327 35.7289C31.2389 35.7297 31.2453 35.729 31.2513 35.7269C31.2572 35.7249 31.2627 35.7215 31.2672 35.7171C31.2717 35.7126 31.2752 35.7072 31.2774 35.7013C31.2796 35.6953 31.2804 35.6889 31.2798 35.6826C31.2863 35.6834 31.2929 35.6827 31.2991 35.6805C31.3053 35.6783 31.3108 35.6747 31.3154 35.67C31.32 35.6653 31.3234 35.6596 31.3254 35.6533C31.3274 35.647 31.328 35.6404 31.327 35.6339L31.4001 35.6066C31.4001 35.578 31.4119 35.5626 31.4414 35.5662C31.4414 35.5186 31.5287 35.4652 31.4308 35.4271C31.5487 35.4557 31.577 35.4271 31.5487 35.3178C31.5629 35.3273 31.5817 35.3487 31.59 35.344C31.6266 35.3261 31.6065 35.3012 31.59 35.2774C31.6431 35.2988 31.6702 35.2917 31.6383 35.2275C31.6572 35.2275 31.6784 35.2394 31.6926 35.2335C31.728 35.218 31.6926 35.2002 31.6926 35.1836C31.7103 35.1836 31.7315 35.2228 31.7445 35.1836C31.7445 35.1669 31.7386 35.1455 31.7362 35.1277C31.7551 35.1444 31.7763 35.1705 31.7964 35.1348C31.7964 35.1242 31.7881 35.1028 31.7822 35.0861C31.8011 35.0861 31.8117 35.1206 31.8388 35.0933C31.866 35.0659 31.8388 35.0552 31.8306 35.0386C31.9072 35.0754 31.8884 35.0267 31.8789 34.9851C31.8978 34.9851 31.9061 35.0255 31.9344 34.9946C31.9627 34.9637 31.9249 34.9578 31.9202 34.94C31.9391 34.94 31.9509 34.9709 31.978 34.9459C32.0051 34.921 31.978 34.9091 31.9709 34.8913C31.9898 34.8913 31.9992 34.9281 32.0287 34.902C32.0582 34.8758 32.0228 34.8651 32.0204 34.8461C32.044 34.8604 32.07 34.8794 32.0865 34.8461C32.0865 34.8342 32.0771 34.8128 32.0712 34.7962C32.0912 34.8033 32.0971 34.8509 32.1313 34.814C32.1655 34.7772 32.1171 34.7748 32.1101 34.7558C32.1631 34.8521 32.208 34.7487 32.2575 34.7487L32.2893 34.6845L32.3294 34.6334C32.3623 34.625 32.3926 34.6085 32.4176 34.5855C32.4427 34.5625 32.4618 34.5337 32.4733 34.5015C32.379 34.4873 32.3554 34.5657 32.3023 34.6061C32.2834 34.6334 32.2339 34.6584 32.3023 34.6893C32.2799 34.6893 32.261 34.6489 32.2351 34.6893C32.2091 34.7297 32.2528 34.7309 32.2622 34.7499C32.2091 34.6524 32.1643 34.7606 32.1148 34.7558C32.1148 34.7867 32.1065 34.8022 32.0747 34.7986C32.0806 34.8378 32.0558 34.8473 32.024 34.8521C32.024 34.8841 32.0039 34.896 31.9745 34.896C31.9751 34.9025 31.9744 34.9091 31.9723 34.9154C31.9702 34.9216 31.9668 34.9272 31.9623 34.932C31.9579 34.9367 31.9524 34.9404 31.9463 34.9429C31.9403 34.9453 31.9338 34.9463 31.9273 34.9459C31.9155 34.9673 31.9002 34.9887 31.8683 34.9875ZM29.4047 37.6348C29.3764 37.6526 29.3587 37.6728 29.3882 37.7025C29.4022 37.6922 29.4156 37.681 29.4283 37.6692H29.4389L29.5262 37.5504C29.5486 37.5385 29.5946 37.5314 29.5616 37.4958C29.5286 37.4601 29.518 37.5076 29.5014 37.5266L29.4212 37.6205H29.413L29.4047 37.6348ZM30.0722 36.7722C30.0828 36.7971 30.0993 36.8007 30.1194 36.7828C30.1394 36.765 30.1194 36.7698 30.1194 36.7615L30.0746 36.7781L30.0427 36.828H30.0793L30.0722 36.7722ZM29.3092 37.7726C29.2866 37.7797 29.2667 37.7934 29.252 37.8121C29.2372 37.8307 29.2284 37.8534 29.2267 37.8772C29.2054 37.8878 29.1901 37.8997 29.2043 37.9259L29.2467 37.8962C29.268 37.887 29.2869 37.8732 29.3022 37.8557C29.3175 37.8383 29.3288 37.8176 29.3352 37.7952C29.3623 37.7785 29.3918 37.7619 29.3517 37.7298C29.3366 37.7431 29.3224 37.7574 29.3092 37.7726ZM36.661 41.5023C36.6383 41.5066 36.6182 41.5197 36.605 41.5388C36.5918 41.5579 36.5865 41.5815 36.5903 41.6045C36.5903 41.6104 36.6009 41.6211 36.6056 41.6211C36.6587 41.6211 36.6811 41.5771 36.694 41.5308C36.712 41.522 36.7271 41.5083 36.7377 41.4913C36.7483 41.4743 36.754 41.4546 36.7542 41.4346C36.789 41.4207 36.8188 41.3967 36.8399 41.3655C36.8609 41.3344 36.8721 41.2976 36.8721 41.2599C36.8383 41.2727 36.8076 41.2928 36.7823 41.3189C36.757 41.345 36.7378 41.3764 36.7259 41.4108C36.7071 41.4176 36.6908 41.43 36.6793 41.4463C36.6677 41.4627 36.6613 41.4822 36.661 41.5023ZM34.3626 36.0188C34.5762 35.7857 34.756 35.5233 34.8968 35.2394L34.8437 35.2038C34.6739 35.4652 34.5049 35.7266 34.3366 35.988C34.3071 36.0058 34.2835 36.0379 34.3118 36.0604C34.3401 36.083 34.3602 36.0545 34.3626 36.0224V36.0188ZM22.0399 58.58C21.6142 59.1158 21.1095 59.5875 20.7616 60.1864C20.9733 59.9749 21.1703 59.749 21.3512 59.5103C21.58 59.199 21.8819 58.9483 22.0706 58.6061C22.119 58.5883 22.1201 58.5574 22.0977 58.5182L22.0399 58.58ZM22.9256 42.1653C22.8627 42.2464 22.8283 42.3463 22.8277 42.4493C22.9109 42.3747 22.9714 42.2779 23.0023 42.17C23.4803 41.2132 23.9571 40.2567 24.4328 39.3006C24.4752 39.2139 24.5601 39.1378 24.5306 39.0249C24.5472 39.0439 24.5625 39.0439 24.5743 39.0249C24.5861 39.0059 24.5743 39.0107 24.5743 39.0035L24.5401 39.0344C24.487 39.1105 24.4316 39.1853 24.3821 39.2638C23.8241 40.1923 23.3372 41.1622 22.9256 42.1653ZM27.8787 36.2541C27.8138 35.9903 27.8138 35.7468 27.591 35.6291C27.4011 35.5293 27.1971 35.5626 26.9376 35.6529C27.3563 35.7075 27.5945 35.862 27.8787 36.2541ZM39.6069 37.005C39.6803 36.8596 39.702 36.6932 39.6683 36.5336C39.6346 36.374 39.5476 36.2309 39.4218 36.1282C39.2366 35.9666 39.0291 35.9939 38.8003 36.0949C39.5067 36.1804 39.6647 36.3765 39.6069 37.005ZM39.0656 36.664C38.7119 36.3563 38.1694 36.4359 37.9913 36.7828C38.3286 36.6545 38.6552 36.5048 39.0656 36.664ZM37.7684 44.02C37.9091 44.0926 38.0262 44.2044 38.1057 44.342C38.1812 44.4763 38.1705 44.6331 38.2236 44.7983C38.351 44.3254 38.2059 44.0771 37.766 44.02H37.7684ZM30.0026 36.8601C29.8533 37.0534 29.7043 37.2478 29.5557 37.4435C29.7927 37.3163 29.8965 37.0941 30.0003 36.8601H30.0026ZM35.9534 33.9538C35.9149 34.0037 35.8903 34.063 35.882 34.1256C35.8737 34.1882 35.8821 34.252 35.9063 34.3103C35.9393 34.1772 35.9912 34.0881 35.9511 33.9538H35.9534ZM29.1642 38.0197L29.1488 37.9853C29.137 37.9936 29.1205 37.9983 29.1134 38.0102C29.1064 38.0221 29.1134 38.0364 29.1134 38.0506L29.1642 38.0197ZM20.7356 60.2481C20.7262 60.2386 20.712 60.2196 20.7097 60.222C20.6932 60.2318 20.6781 60.2438 20.6649 60.2577C20.6778 60.2577 20.6908 60.2767 20.7026 60.2755C20.7144 60.2743 20.7238 60.2588 20.7356 60.2481ZM36.911 41.2088L36.8981 41.1945L36.8839 41.2076L36.9028 41.2231L36.911 41.2088ZM22.8195 42.498L22.8041 42.4802L22.7876 42.4968L22.8112 42.5146L22.8195 42.498ZM22.7699 42.5966L22.7593 42.5823C22.7593 42.5823 22.7464 42.5907 22.7464 42.5954C22.7464 42.6002 22.7534 42.6061 22.757 42.6109L22.7699 42.5966Z" fill="#080707"/>
<path d="M21.1012 61.2795C21.5729 60.9111 21.7899 60.3551 22.106 59.8751C22.9135 58.6367 23.7916 57.4465 24.7359 56.3105C26.1007 54.708 27.6239 53.2497 29.2821 51.9582C30.0156 51.3772 30.8152 50.8889 31.5959 50.3791C33.004 49.4524 34.4699 48.6159 35.8414 47.6404C36.7023 47.0309 37.5432 46.3952 38.2224 45.5718C38.4843 45.2545 38.7142 44.9266 38.7225 44.4917C38.7307 44.0569 38.5468 43.8145 38.1151 43.7159C37.6186 43.603 37.1422 43.7242 36.6658 43.8347C36.2759 43.9342 35.8952 44.067 35.5277 44.2315C35.4511 44.2636 35.3768 44.3325 35.2695 44.2767C36.0313 43.3713 36.6646 42.3685 37.3769 41.4251C38.2637 40.2632 39.0214 39.0069 39.6364 37.6787C39.7662 37.3966 39.8521 37.096 39.8912 36.7876C39.9737 36.0985 39.5374 35.6671 38.8616 35.7765C38.8341 35.7783 38.8066 35.7783 38.7791 35.7765C38.9294 35.4075 38.994 35.0088 38.9678 34.6109C38.8864 33.8148 38.2354 33.3561 37.4665 33.5593C37.1523 33.6434 36.8627 33.8023 36.6221 34.0227C36.4309 34.1943 36.2253 34.3489 36.0077 34.4849C36.1199 34.1915 36.156 33.8742 36.1127 33.5629C36.0242 32.8333 35.477 32.4519 34.7635 32.6123C34.3013 32.7265 33.87 32.9424 33.5005 33.2445C31.835 34.5275 30.3498 36.032 29.0851 37.7168C28.742 38.173 28.4165 38.6435 28.0344 39.0701C27.9124 39.2106 27.772 39.3338 27.6169 39.436C27.7572 38.9988 27.8823 38.5901 28.0191 38.1849C28.2252 37.6159 28.3522 37.0209 28.3964 36.4169C28.4318 35.7717 28.1676 35.2893 27.624 34.997C27.1169 34.7237 26.6027 34.8544 26.151 35.1693C25.7642 35.4402 25.4835 35.8252 25.2241 36.2161C24.5035 37.2961 23.9504 38.4641 23.4209 39.6475C22.632 41.4108 21.8383 43.1764 20.6083 44.689C19.7379 45.7583 18.9112 46.8693 17.9265 47.8436C17.0338 48.7264 16.0785 49.5355 15.108 50.3269C14.2978 50.9875 13.4569 51.6065 12.6019 52.2089C12.3437 52.3907 12.0665 52.5452 11.7976 52.7115C11.7819 52.7236 11.7626 52.7301 11.7428 52.7301C11.723 52.7301 11.7037 52.7236 11.688 52.7115C11.6207 52.4894 11.7776 52.405 11.9238 52.3052C13.8508 51.0041 15.6976 49.6009 17.3487 47.9517C18.4816 46.8184 19.545 45.6165 20.5328 44.3527C21.1413 43.5733 21.5529 42.6714 22.0293 41.8088C22.5258 40.9082 22.8914 39.9481 23.3266 39.0226C23.8089 38.0079 24.3538 37.0288 24.9198 36.064C25.3703 35.2976 26.0095 34.7261 26.9247 34.5443C27.2076 34.4833 27.5026 34.5171 27.7647 34.6407C28.0268 34.7642 28.2416 34.9707 28.3764 35.2287C28.8068 36.0355 28.7573 36.8684 28.5309 37.7156C28.4838 37.828 28.4651 37.9505 28.4766 38.072C28.5946 38.0946 28.6217 37.9936 28.67 37.9306C29.5381 36.7961 30.4838 35.7241 31.5004 34.7225C32.3047 33.9467 33.1243 33.1779 34.0949 32.6135C34.4223 32.4196 34.7819 32.2872 35.1562 32.2226C35.6645 32.1371 35.9818 32.3331 36.1634 32.8167C36.2783 33.0783 36.3331 33.3626 36.3238 33.6484C36.3238 33.7007 36.3155 33.7815 36.345 33.8041C36.4098 33.854 36.457 33.7768 36.5007 33.7375C36.713 33.5451 36.9634 33.4001 37.2354 33.3123C37.5074 33.2244 37.7947 33.1956 38.0786 33.2278C38.3201 33.2496 38.5485 33.3482 38.7306 33.5095C38.9128 33.6708 39.0392 33.8863 39.0916 34.1249C39.1597 34.4945 39.1485 34.8745 39.0586 35.2394C39.0267 35.3844 39.0102 35.4675 39.2213 35.4628C39.7131 35.4533 39.9949 35.7099 40.0917 36.1983C40.2226 36.8577 40.0115 37.4613 39.7756 38.0554C39.1093 39.764 38.1022 41.2646 36.904 42.6346L35.7801 43.9226C36.2258 43.7722 36.6803 43.6496 37.141 43.5555C37.555 43.4842 37.9665 43.4248 38.3876 43.5293C38.8086 43.6339 38.9937 43.8774 39.0279 44.3313C39.0751 44.9421 38.7921 45.4268 38.4536 45.8831C37.7684 46.7944 36.9122 47.5216 35.9971 48.1846C34.9859 48.8939 33.9358 49.5453 32.8519 50.1356C31.7185 50.7748 30.6926 51.5768 29.6913 52.4086C27.4334 54.2598 25.3777 56.3481 23.5589 58.6382C22.8808 59.5008 22.2451 60.3943 21.8666 61.4435C21.8623 61.467 21.8528 61.4893 21.8388 61.5087C21.8248 61.5281 21.8067 61.5441 21.7857 61.5555C21.7648 61.5669 21.7416 61.5734 21.7178 61.5746C21.6941 61.5757 21.6704 61.5715 21.6484 61.5623C21.4456 61.515 21.2576 61.4179 21.1012 61.2795Z" fill="#F8F2EA"/>
<path d="M31.8577 16.4246C32.5287 16.4009 33.2021 16.4115 33.8625 16.3058C34.5513 16.1989 35.1386 15.884 35.694 15.4646C36.5419 14.823 37.1245 13.9663 37.6988 13.0965C38.3038 12.1793 39.1576 11.603 40.1754 11.262C41.0398 10.9709 41.6814 11.262 42.1979 12.1317C42.6543 12.9005 42.8878 13.7536 43.0883 14.6162C43.2012 15.1782 43.3614 15.7296 43.5671 16.2642C43.7182 16.6068 43.9638 16.8983 44.2747 17.1043C45.0168 17.6226 45.8618 17.9725 46.7512 18.1297C47.5705 18.2738 48.3618 18.5481 49.0957 18.9424C49.4747 19.1302 49.7756 19.4471 49.9448 19.8371C50.2172 20.4953 50.025 21.0858 49.6641 21.6431C49.2124 22.3382 48.5343 22.7695 47.848 23.1877C47.252 23.5395 46.7437 24.024 46.3621 24.604C45.9481 25.2385 45.842 25.9597 45.8231 26.7035C45.8141 27.4684 45.857 28.233 45.9517 28.992C46.0393 29.6822 46.0017 30.3827 45.8408 31.0594C45.592 32.0527 44.7971 32.5161 43.8171 32.2476C43.27 32.0915 42.752 31.8458 42.284 31.5204C41.7262 31.1438 41.1766 30.7528 40.6058 30.3976C40.0634 30.0589 39.443 29.9033 38.8369 29.7393C37.7222 29.4395 36.546 29.4651 35.4452 29.813C34.951 29.9663 34.4935 30.2384 34.0123 30.4368C33.3236 30.7196 32.6313 31 31.8648 30.9643C31.3754 30.9429 30.8883 30.8966 30.5829 30.4344C30.3375 30.0664 30.237 29.6195 30.301 29.1809C30.3596 28.7873 30.4617 28.4015 30.6053 28.0307C30.9591 27.0517 31.3954 26.0976 31.6561 25.0876C31.7447 24.7632 31.7634 24.4235 31.7107 24.0912C31.658 23.759 31.5352 23.442 31.3506 23.1616C30.8643 22.461 30.3023 21.817 29.6748 21.2415C29.1295 20.7103 28.6574 20.1076 28.2714 19.4497C27.887 18.8057 28.091 17.8611 28.4613 17.4191C28.8316 16.9771 29.3552 16.7312 29.926 16.5874C30.564 16.4389 31.2079 16.4496 31.8577 16.4246ZM31.7693 26.0001C31.7386 26.012 31.7362 26.0358 31.7445 26.0631C31.5086 26.6418 31.2539 27.2156 30.9838 27.7812C30.7167 28.3192 30.6181 28.9262 30.7008 29.5219C30.7424 29.8528 30.9119 30.1538 31.1724 30.3596C31.433 30.5653 31.7635 30.6593 32.0924 30.621C32.7529 30.5635 33.4006 30.4032 34.0123 30.1457C34.872 29.769 35.7282 29.3817 36.6422 29.15C37.021 29.0407 37.4067 28.9573 37.7967 28.9005C37.8698 28.8922 37.9571 28.8827 37.9465 28.7947C37.9359 28.7068 37.8451 28.746 37.7885 28.7448C37.631 28.7482 37.4749 28.7746 37.325 28.8232C37.325 28.8161 37.3344 28.8078 37.3333 28.8007C37.3321 28.7935 37.325 28.7733 37.3215 28.7591C37.9134 28.5996 38.542 28.652 39.0999 28.9076C40.265 29.4138 41.1908 30.2716 42.192 31.0154C42.6177 31.3315 43.0022 31.7141 43.5105 31.8923C44.0388 32.0777 44.5813 32.1608 45.0625 31.764C45.4575 31.4396 45.5802 30.9774 45.6238 30.4903C45.6509 30.1908 45.5931 30.1409 45.3172 30.2039C45.4113 29.9695 45.4659 29.7209 45.4788 29.4684C45.5923 28.4788 45.5589 27.4777 45.3797 26.498C45.3003 26.1394 45.3014 25.7674 45.383 25.4093C45.4646 25.0512 45.6247 24.716 45.8514 24.4282C46.2163 23.9459 46.6568 23.5269 47.1557 23.1877C47.9023 22.6921 48.5866 22.1072 49.1936 21.4459C49.7738 20.803 49.7172 19.9939 49.0756 19.4164C48.8901 19.255 48.6886 19.1132 48.4742 18.9935C47.927 18.6774 47.3232 18.5182 46.717 18.3756C46.618 18.3518 46.4481 18.3126 46.4175 18.4279C46.3821 18.5657 46.559 18.5645 46.6533 18.5978C46.9953 18.7166 47.3444 18.8188 47.6864 18.9424C47.9943 19.0453 48.2812 19.2035 48.5332 19.4093C48.502 19.4158 48.4696 19.4129 48.44 19.401C47.5826 19.0861 46.7265 18.7653 45.8514 18.4956C45.3313 18.3352 44.8018 18.1938 44.3183 17.9348C43.7287 17.6235 43.3112 17.1649 43.1614 16.503C43.0116 15.8412 42.8831 15.1438 42.7569 14.4618C42.6166 13.6787 42.3913 12.9278 41.9467 12.2624C41.5139 11.6173 40.8594 11.3119 40.2261 11.4747C39.6199 11.6268 39.0987 11.9191 38.7484 12.4692C38.6517 12.6225 38.5397 12.8601 38.41 12.8779C38.1552 12.9124 38.0998 13.0906 38.0007 13.2462C37.4889 14.0554 36.9865 14.8634 36.3969 15.6072C35.6822 16.4983 34.7234 16.9926 33.5937 16.9783C32.9049 16.9712 32.2092 16.8999 31.5157 16.8844C30.7185 16.8654 29.9343 16.9569 29.2196 17.3478C28.5521 17.7126 28.3269 18.3982 28.6229 19.0968C28.8428 19.6002 29.1344 20.0685 29.4885 20.487C30.2303 21.3888 31.011 22.2562 31.7398 23.1687C32.1974 23.7426 32.4226 24.3224 32.1254 25.0341C32.005 25.3001 31.9075 25.5759 31.8341 25.8587C31.7752 25.892 31.7858 25.9526 31.7693 26.0001Z" fill="#F8F2EA"/>
<path d="M17.9879 36.3848C18.0931 36.0304 18.2404 35.6901 18.4266 35.3713C19.061 34.1772 19.9172 33.1458 20.7958 32.1323C21.4613 31.3343 22.2648 30.6645 23.1674 30.1552C23.242 30.1137 23.3212 30.081 23.4032 30.0578C23.4506 30.0359 23.5039 30.0304 23.5546 30.0422C23.6054 30.0541 23.6509 30.0825 23.6839 30.1231C23.7476 30.2205 23.6639 30.2978 23.612 30.3774C23.1332 31.1057 22.5034 31.7022 21.9244 32.3414C21.0034 33.3597 20.1637 34.4445 19.3405 35.5424C19.0929 35.8727 18.8444 36.2026 18.5952 36.5321C18.5733 36.5648 18.548 36.5951 18.5197 36.6224C18.4159 36.7139 18.3216 36.8684 18.1659 36.7959C18.0103 36.7234 18.0162 36.5488 17.9879 36.3848ZM22.4987 31.12C21.7911 31.3933 19.7615 33.7922 18.9856 35.2679C20.0728 33.8154 21.246 32.4302 22.4987 31.12Z" fill="#080707"/>
<path d="M19.7167 37.7263C19.7462 37.251 19.9868 36.8838 20.1884 36.5072C20.9256 35.0877 21.9298 33.8262 23.145 32.7929C23.6066 32.3819 24.129 32.046 24.6934 31.7973C24.7446 31.7763 24.798 31.7611 24.8526 31.7521C24.9705 31.7378 25.0885 31.7271 25.151 31.8412C25.2135 31.9553 25.151 32.0385 25.0849 32.1228C24.7548 32.5292 24.4003 32.9149 24.0235 33.2777C22.9504 34.4005 21.8784 35.5222 20.929 36.7567C20.6495 37.1203 20.3759 37.4898 20.0941 37.8522C20.0292 37.9377 19.9549 38.0601 19.8299 38.0102C19.7049 37.9603 19.7485 37.8035 19.7167 37.7263ZM20.5576 36.6474C20.5822 36.6289 20.6047 36.6078 20.6248 36.5844C21.4914 35.4375 22.4372 34.3536 23.4551 33.3407C23.7547 33.0341 24.0507 32.7228 24.3479 32.4139L24.2842 32.3545C22.6886 33.4607 21.5328 34.9685 20.5175 36.6106L20.4667 36.6759C20.5068 36.6985 20.5387 36.6937 20.5576 36.6474Z" fill="#080707"/>
<path d="M46.7937 46.8087C46.7937 47.3766 46.2972 47.9363 45.5283 47.9458C45.0082 47.9458 44.3053 47.4313 44.2959 46.6257C44.2888 46.0019 44.8738 45.453 45.5247 45.4541C46.1757 45.4553 46.7984 46.1029 46.7937 46.8087ZM46.0861 46.5485C46.0765 46.4176 46.0174 46.2954 45.9212 46.207C45.8249 46.1186 45.6986 46.0707 45.5684 46.0732C45.2653 46.0815 44.8997 46.4605 44.8938 46.7742C44.9055 46.9135 44.9674 47.0437 45.0677 47.1402C45.1681 47.2367 45.3 47.2929 45.4387 47.2982C45.7983 47.2875 46.0932 46.9489 46.092 46.5485H46.0861ZM44.6709 46.5093C44.7673 46.2949 44.9016 46.1001 45.0672 45.9342C44.8407 46.0435 44.6426 46.1742 44.6709 46.5093Z" fill="#080707"/>
<path d="M29.2373 59.4438C29.3399 59.9666 28.4943 60.765 27.894 60.6723C27.6157 60.6296 27.4518 60.4454 27.3044 60.2339C27.0693 59.8981 26.9702 59.4847 27.0273 59.0778C27.111 58.435 27.8068 58.0595 28.4424 58.2972C28.9672 58.4932 29.2243 58.8651 29.2373 59.4438ZM27.8304 58.7427C27.8127 58.6869 27.7808 58.6869 27.7396 58.7166C27.4365 58.9043 27.4082 59.199 27.4412 59.5127C27.4801 59.8632 27.5862 60.0521 27.795 60.1353C27.6122 59.6707 27.3693 59.2132 27.7714 58.7546L27.8304 58.7427ZM27.8575 59.4556C27.8539 59.5031 27.8539 59.5508 27.8575 59.5982C27.8858 59.799 27.9306 60.0271 28.1134 60.1079C28.2962 60.1887 28.4177 59.9891 28.5521 59.8917C28.5961 59.8571 28.6357 59.8172 28.67 59.7729C28.9259 59.4485 28.9059 59.3071 28.5521 59.098C28.5379 59.0897 28.5226 59.0849 28.5096 59.0778C28.0875 58.8413 27.8516 58.9792 27.8575 59.4544V59.4556Z" fill="#080707"/>
<path d="M44.3265 56.7751C44.3088 57.014 44.2309 57.2444 44.1 57.4444C43.9692 57.6445 43.7898 57.8075 43.5789 57.9181C43.238 58.1035 42.9574 58.0215 42.6873 57.7304C42.5066 57.5503 42.3857 57.3182 42.3413 57.0661C42.297 56.8139 42.3313 56.5541 42.4397 56.3224C42.8442 55.5121 43.6402 55.682 44.0565 56.1513C44.1403 56.2321 44.2073 56.3288 44.2537 56.4359C44.3 56.543 44.3248 56.6583 44.3265 56.7751ZM43.0293 56.2737C42.9998 56.1644 42.9479 56.2392 42.9114 56.263C42.5576 56.5006 42.5682 57.0294 42.9845 57.3644C42.7934 56.9628 42.7121 56.6028 43.0222 56.2737L43.0034 56.2178L42.981 56.2464L43.0293 56.2737ZM43.0116 56.7965C43.0207 56.9243 43.0789 57.0436 43.1737 57.129C43.2686 57.2144 43.3928 57.2592 43.5199 57.2539C43.6767 57.248 43.8654 56.9795 43.8607 56.7656C43.8607 56.5707 43.5565 56.225 43.389 56.2202C43.2215 56.2155 43.0093 56.541 43.014 56.7965H43.0116Z" fill="#080707"/>
<path d="M10.8129 34.8877C10.8129 35.5638 10.5287 35.9119 9.97798 35.9274C9.38832 35.944 8.99797 35.4117 8.96023 34.8829C8.92721 34.4362 9.42488 33.8873 9.9768 33.9086C10.4815 33.9288 10.8059 34.2948 10.8129 34.8877ZM10.373 35.5614C10.2542 35.6332 10.1155 35.6645 9.97766 35.6506C9.83977 35.6367 9.71002 35.5783 9.60768 35.4842C9.45389 35.3592 9.34679 35.1854 9.30394 34.9911C9.26108 34.7968 9.28502 34.5936 9.37181 34.4148C9.37181 34.3946 9.38597 34.3613 9.37889 34.3578C9.35177 34.3411 9.34705 34.3673 9.34233 34.3875C9.03689 34.6715 9.03689 35.1146 9.34233 35.4652C9.46643 35.6199 9.64562 35.7197 9.8417 35.7432C10.0378 35.7667 10.2352 35.7122 10.3919 35.5911C10.4061 35.578 10.4332 35.5578 10.432 35.5543C10.4131 35.5151 10.3943 35.5471 10.373 35.5614ZM10.4509 34.7938C10.4509 34.7461 10.4414 34.6989 10.423 34.6549C10.4045 34.6109 10.3775 34.5712 10.3435 34.5379C10.3096 34.5047 10.2693 34.4787 10.2251 34.4614C10.181 34.4441 10.1338 34.4359 10.0865 34.4374C9.93435 34.4374 9.76452 34.675 9.75627 34.8972C9.75037 35.1051 9.89779 35.3309 10.044 35.3345C10.2162 35.3475 10.445 35.0434 10.4521 34.795L10.4509 34.7938Z" fill="#080707"/>
<path d="M21.284 20.1424C21.1858 20.1546 21.0861 20.1455 20.9916 20.1158C20.897 20.0862 20.8099 20.0366 20.7358 19.9705C20.6618 19.9043 20.6025 19.823 20.562 19.732C20.5215 19.641 20.5007 19.5423 20.501 19.4426C20.4715 18.9566 20.7887 18.5562 21.2298 18.5241C21.6484 18.4944 22.0553 18.9269 22.0824 19.4307C22.1048 19.8347 21.7982 20.108 21.284 20.1424ZM20.7887 18.9352C20.7415 18.9459 20.7333 18.9816 20.7309 19.022C20.7085 19.0303 20.6873 19.0505 20.7085 19.0671C20.7297 19.0838 20.7368 19.0517 20.7427 19.0339C20.7612 19.0271 20.7765 19.0135 20.7854 18.9959C20.7944 18.9783 20.7964 18.9579 20.7911 18.9388C20.8123 18.9388 20.8382 18.9388 20.8123 18.9032L20.7887 18.9352ZM21.5977 19.3285C21.5977 19.0826 21.4633 18.9317 21.2557 18.934C21.197 18.9333 21.1388 18.9447 21.0846 18.9675C21.0304 18.9902 20.9814 19.0238 20.9405 19.0663C20.8997 19.1088 20.8679 19.1593 20.8471 19.2145C20.8262 19.2698 20.8168 19.3288 20.8194 19.3879C20.815 19.4413 20.8219 19.495 20.8396 19.5455C20.8573 19.596 20.8854 19.6422 20.922 19.681C20.9586 19.7198 21.003 19.7504 21.0522 19.7707C21.1013 19.7911 21.1542 19.8007 21.2074 19.799C21.4326 19.8014 21.6012 19.5982 21.5977 19.3285ZM20.6448 19.3487C20.6578 19.2846 20.7156 19.2299 20.6696 19.1444C20.6431 19.1706 20.6262 19.205 20.6217 19.2422C20.6172 19.2793 20.6254 19.3169 20.6448 19.3487Z" fill="#080707"/>
<path d="M31.2975 54.4629C31.695 54.4629 31.9556 54.7006 31.9638 55.0772C31.9721 55.4539 31.6101 55.884 31.2964 55.8887C30.9827 55.8935 30.7551 55.5572 30.7562 55.095C30.7574 54.691 30.952 54.4641 31.2975 54.4629ZM31.2622 55.3849C31.4296 55.3909 31.6678 55.2317 31.6513 55.1224C31.6383 55.056 31.6019 54.9967 31.5487 54.9554C31.4956 54.9141 31.4294 54.8936 31.3624 54.8978C31.1265 54.8812 31.1395 55.1152 31.0864 55.2471C31.0334 55.379 31.2008 55.3517 31.2622 55.3849Z" fill="#080707"/>
<path d="M52.2515 35.3832C52.2433 35.6648 52.1926 35.906 51.9555 36.0046C51.7185 36.1032 51.4638 36.1662 51.2338 35.9844C50.9767 35.7812 51.005 35.496 51.0498 35.2156C51.0617 35.0958 51.1084 34.9821 51.1842 34.8889C51.2599 34.7957 51.3613 34.7271 51.4755 34.6916C51.8293 34.5728 52.0982 34.7249 52.1949 35.0944C52.2296 35.1868 52.2488 35.2844 52.2515 35.3832ZM51.9178 35.2917C51.9567 35.1063 51.8223 35.0635 51.669 35.054C51.5787 35.0596 51.493 35.0959 51.4259 35.157C51.3588 35.2181 51.3144 35.3004 51.2998 35.3903C51.2916 35.5353 51.4402 35.7313 51.5628 35.7384C51.7362 35.7491 51.9131 35.5364 51.9178 35.2917Z" fill="#080707"/>
<path d="M24.5306 39.0237C24.5601 39.1426 24.4752 39.2138 24.4328 39.3006C23.961 40.2583 23.4842 41.2147 23.0023 42.17H22.9256C23.3356 41.1659 23.8209 40.1947 24.3773 39.2649C24.4269 39.1865 24.4823 39.1117 24.5354 39.0356L24.5306 39.0237Z" fill="#F8F2EA"/>
<path d="M22.0706 58.612C21.8819 58.9542 21.58 59.2061 21.3512 59.5162C21.1703 59.755 20.9733 59.9809 20.7616 60.1923C21.1154 59.5982 21.6142 59.1229 22.0399 58.5859L22.0706 58.612Z" fill="#F8F2EA"/>
<path d="M27.8787 36.2541C27.5945 35.862 27.3563 35.7075 26.9353 35.6529C27.1947 35.5626 27.3987 35.5341 27.5886 35.6291C27.8139 35.7467 27.8139 35.9903 27.8787 36.2541Z" fill="#F8F2EA"/>
<path d="M39.6069 37.005C39.6647 36.3765 39.5067 36.1804 38.8003 36.0949C39.0291 35.9939 39.2366 35.9666 39.4218 36.1282C39.5476 36.2309 39.6346 36.374 39.6683 36.5336C39.702 36.6932 39.6803 36.8596 39.6069 37.005Z" fill="#F8F2EA"/>
<path d="M39.0657 36.664C38.6553 36.5048 38.3286 36.6545 37.9913 36.7828C38.1658 36.4359 38.7166 36.3563 39.0657 36.664Z" fill="#F8F2EA"/>
<path d="M37.7661 44.02C38.2059 44.0771 38.3557 44.3254 38.2236 44.7983C38.1682 44.6331 38.1788 44.4763 38.1057 44.342C38.0256 44.204 37.9076 44.0922 37.7661 44.02Z" fill="#F8F2EA"/>
<path d="M34.3366 35.9915C34.5049 35.7301 34.6739 35.4687 34.8437 35.2073L34.8968 35.243C34.756 35.5268 34.5762 35.7893 34.3626 36.0224L34.3366 35.9915Z" fill="#F8F2EA"/>
<path d="M30.0008 36.8601C29.8969 37.098 29.7871 37.3168 29.5533 37.4441C29.7021 37.249 29.8512 37.0543 30.0008 36.8601Z" fill="#F8F2EA"/>
<path d="M35.9512 33.9538C35.9913 34.0882 35.9394 34.1774 35.904 34.3106C35.8797 34.2523 35.8713 34.1885 35.8796 34.1258C35.8879 34.0631 35.9126 34.0037 35.9512 33.9538Z" fill="#2180A3"/>
<path d="M22.9257 42.1653H23.0025C22.9716 42.2732 22.911 42.3701 22.8277 42.4448C22.8293 42.3434 22.8637 42.2452 22.9257 42.1653Z" fill="#2180A3"/>
<path d="M36.7212 41.4141C36.7333 41.3798 36.7528 41.3487 36.7782 41.3228C36.8037 41.297 36.8344 41.2771 36.8683 41.2646C36.8685 41.3023 36.8573 41.3391 36.8363 41.3702C36.8153 41.4013 36.7854 41.4253 36.7506 41.439C36.7396 41.4323 36.7297 41.4239 36.7212 41.4141Z" fill="#2180A3"/>
<path d="M32.2917 34.6031C32.3409 34.563 32.3679 34.485 32.4618 34.4992C32.4504 34.5311 32.4313 34.5598 32.4064 34.5827C32.3815 34.6055 32.3513 34.6219 32.3187 34.6303L32.2917 34.6031Z" fill="#F8F2EA"/>
<path d="M34.3618 36.0221C34.3618 36.0538 34.349 36.0914 34.3117 36.0632C34.2743 36.035 34.3117 36.0091 34.3362 35.9915L34.3618 36.0221Z" fill="#F8F2EA"/>
<path d="M36.6938 41.5343C36.6809 41.5805 36.6585 41.6184 36.6056 41.6244C36.6056 41.6244 36.5915 41.6137 36.5903 41.6078C36.5865 41.5849 36.5918 41.5614 36.605 41.5423C36.6181 41.5233 36.6382 41.5102 36.6609 41.5058C36.6727 41.5143 36.6837 41.5238 36.6938 41.5343Z" fill="#2180A3"/>
<path d="M29.2267 37.8766C29.2284 37.853 29.2372 37.8304 29.2518 37.8119C29.2665 37.7933 29.2863 37.7796 29.3088 37.7726L29.3346 37.795C29.3282 37.8173 29.317 37.8379 29.3018 37.8553C29.2866 37.8726 29.2677 37.8864 29.2466 37.8955C29.2394 37.8898 29.2327 37.8835 29.2267 37.8766Z" fill="#2180A3"/>
<path d="M29.161 38.0192L29.111 38.0497C29.111 38.0356 29.1052 38.0192 29.111 38.0099C29.1168 38.0005 29.1343 37.9935 29.1459 37.9853L29.161 38.0192Z" fill="#2180A3"/>
<path d="M31.5386 35.3238C31.5703 35.436 31.5386 35.4608 31.4214 35.4325C31.4495 35.4312 31.4763 35.4197 31.4967 35.4002C31.5172 35.3807 31.53 35.3544 31.5328 35.3261L31.5386 35.3238Z" fill="#F8F2EA"/>
<path d="M31.4353 35.5666C31.3344 35.5252 31.454 35.472 31.4282 35.4259C31.5256 35.4638 31.4411 35.5169 31.4388 35.5642L31.4353 35.5666Z" fill="#F8F2EA"/>
<path d="M31.0076 35.9925H30.9426C30.9426 35.9925 30.9495 35.9796 30.9519 35.9796L31.0076 35.9949V35.9925Z" fill="#F8F2EA"/>
<path d="M32.2461 34.7461C32.1968 34.7461 32.1522 34.8489 32.0995 34.7532C32.1499 34.7532 32.1945 34.6504 32.2472 34.7473L32.2461 34.7461Z" fill="#F8F2EA"/>
<path d="M36.661 41.5018C36.6609 41.4824 36.6666 41.4633 36.6772 41.4471C36.6879 41.4309 36.7031 41.4183 36.7209 41.4108C36.7301 41.4203 36.7408 41.4283 36.7525 41.4344C36.7529 41.4544 36.7476 41.474 36.7372 41.491C36.7268 41.5079 36.7117 41.5215 36.6939 41.5301C36.6838 41.5197 36.6728 41.5102 36.661 41.5018Z" fill="#2180A3"/>
<path d="M22.0399 58.5794L22.0973 58.5182C22.1195 58.5571 22.1183 58.5877 22.0704 58.6054L22.0399 58.5794Z" fill="#F8F2EA"/>
<path d="M20.7346 60.2478C20.723 60.2583 20.7137 60.2735 20.7021 60.2747C20.6904 60.2759 20.6777 60.263 20.6649 60.2571C20.678 60.2435 20.6928 60.2316 20.709 60.222C20.709 60.222 20.7253 60.2384 20.7346 60.2478Z" fill="#F8F2EA"/>
<path d="M31.9596 34.8913C31.9596 34.91 31.9944 34.9193 31.9665 34.9463C31.9386 34.9732 31.9282 34.9463 31.9096 34.9404C31.9159 34.9411 31.9223 34.9404 31.9284 34.9383C31.9344 34.9363 31.9399 34.9329 31.9444 34.9284C31.949 34.9239 31.9525 34.9185 31.9547 34.9124C31.9569 34.9064 31.9578 34.9 31.9572 34.8936L31.9596 34.8913Z" fill="#F8F2EA"/>
<path d="M31.3258 35.6412C31.3258 35.6131 31.3153 35.5815 31.3525 35.5757C31.3641 35.5757 31.3804 35.5956 31.3943 35.6073L31.3223 35.6342L31.3258 35.6412Z" fill="#F8F2EA"/>
<path d="M31.2786 35.6887C31.2786 35.6699 31.2705 35.6489 31.2786 35.6336C31.2972 35.5997 31.31 35.6336 31.3262 35.6418V35.6348C31.3272 35.6412 31.3266 35.6478 31.3247 35.654C31.3227 35.6601 31.3193 35.6658 31.3148 35.6704C31.3103 35.6751 31.3048 35.6786 31.2987 35.6807C31.2926 35.6829 31.2862 35.6836 31.2798 35.6828L31.2786 35.6887Z" fill="#F8F2EA"/>
<path d="M31.273 35.6801C31.2735 35.6864 31.2727 35.6927 31.2706 35.6985C31.2684 35.7044 31.265 35.7097 31.2605 35.7141C31.2561 35.7185 31.2507 35.7218 31.2448 35.7238C31.2389 35.7258 31.2327 35.7265 31.2265 35.7258C31.2265 35.7106 31.1882 35.6954 31.2265 35.679C31.2405 35.672 31.2614 35.679 31.2788 35.679L31.273 35.6801Z" fill="#F8F2EA"/>
<path d="M31.2074 35.798C31.1981 35.7816 31.161 35.7863 31.1795 35.7488C31.1981 35.7114 31.2167 35.7371 31.2365 35.7324L31.2074 35.798Z" fill="#F8F2EA"/>
<path d="M31.2068 35.7988C31.2003 35.7987 31.1938 35.8 31.1878 35.8028C31.1819 35.8055 31.1766 35.8095 31.1724 35.8146C31.1681 35.8196 31.1651 35.8255 31.1634 35.8319C31.1617 35.8383 31.1615 35.845 31.1627 35.8515C31.1441 35.8304 31.1174 35.8082 31.1546 35.7836C31.1639 35.7836 31.1883 35.7929 31.2068 35.7988Z" fill="#F8F2EA"/>
<path d="M31.1563 35.8533C31.1249 35.8533 31.1005 35.8533 31.1086 35.9002C31.1086 35.8803 31.0808 35.865 31.1086 35.8393C31.1365 35.8135 31.1423 35.8522 31.1598 35.8545L31.1563 35.8533Z" fill="#F8F2EA"/>
<path d="M31.0592 35.9416V35.8917L31.1065 35.901C31.0742 35.901 31.0569 35.908 31.0569 35.9416H31.0592Z" fill="#F8F2EA"/>
<path d="M31.057 35.9428C31.0167 35.9346 31.0063 35.9567 31.0086 35.9915C31.0086 35.9567 31.0201 35.9369 31.0581 35.9416L31.057 35.9428Z" fill="#F8F2EA"/>
<path d="M31.724 35.1277C31.724 35.1465 31.7391 35.1676 31.7333 35.1841C31.7205 35.2228 31.6995 35.1841 31.6832 35.1841H31.6902L31.7263 35.1241L31.724 35.1277Z" fill="#F8F2EA"/>
<path d="M32.0091 34.8485C32.0091 34.8672 32.0486 34.8766 32.0172 34.9035C31.9859 34.9304 31.9789 34.8977 31.9603 34.893C31.9893 34.893 32.0091 34.8801 32.0091 34.8485Z" fill="#F8F2EA"/>
<path d="M32.0098 34.8477C32.0412 34.8477 32.0656 34.8336 32.0598 34.795C32.0656 34.8114 32.0795 34.8325 32.0749 34.8442C32.0586 34.8805 32.0331 34.8617 32.0098 34.8442V34.8477Z" fill="#F8F2EA"/>
<path d="M31.6359 35.2327L31.6893 35.193L31.6824 35.1859C31.6824 35.2011 31.7195 35.2187 31.6824 35.2339C31.6684 35.2398 31.6475 35.2339 31.6301 35.2281L31.6359 35.2327Z" fill="#F8F2EA"/>
<path d="M30.0793 36.7766L30.1243 36.7615C30.1243 36.7696 30.1243 36.7789 30.1243 36.7824C30.1243 36.7859 30.0885 36.7964 30.0781 36.7719L30.0793 36.7766Z" fill="#F8F2EA"/>
<path d="M30.0717 36.7721L30.0843 36.8255H30.0486L30.0797 36.7756L30.0717 36.7721Z" fill="#F8F2EA"/>
<path d="M29.4967 37.5284C29.513 37.5096 29.5258 37.4652 29.556 37.4979C29.5862 37.5307 29.5432 37.5401 29.5211 37.5518L29.4967 37.5284Z" fill="#F8F2EA"/>
<path d="M29.5209 37.5527L29.4353 37.6708C29.4283 37.6555 29.4224 37.6401 29.4165 37.6247L29.4963 37.5314L29.5209 37.5527Z" fill="#F8F2EA"/>
<path d="M31.7787 35.0925L31.8216 35.0422C31.8216 35.0597 31.8577 35.0703 31.8309 35.0972C31.8042 35.1241 31.7938 35.0972 31.7763 35.0902L31.7787 35.0925Z" fill="#F8F2EA"/>
<path d="M29.4275 37.6687C29.4149 37.6804 29.4018 37.6913 29.388 37.7015C29.359 37.6722 29.3764 37.6523 29.4043 37.6348C29.4158 37.6429 29.4241 37.6549 29.4275 37.6687Z" fill="#2180A3"/>
<path d="M29.3092 37.7719C29.3222 37.757 29.3362 37.7429 29.351 37.7298C29.3905 37.7614 29.3615 37.7778 29.3348 37.7942L29.3092 37.7719Z" fill="#2180A3"/>
<path d="M24.5352 39.0302L24.5687 39C24.5687 39.007 24.5756 39.0163 24.5687 39.0209C24.5617 39.0256 24.5421 39.043 24.5259 39.0209L24.5352 39.0302Z" fill="#F8F2EA"/>
<path d="M36.91 41.2082L36.9021 41.2219L36.8839 41.2071L36.8975 41.1945L36.91 41.2082Z" fill="#2180A3"/>
<path d="M31.5829 35.2779C31.6166 35.2779 31.6259 35.258 31.6364 35.2335C31.6666 35.2967 31.6364 35.3037 31.5876 35.2826L31.5829 35.2779Z" fill="#F8F2EA"/>
<path d="M22.8183 42.4973L22.8103 42.5133L22.7876 42.4962L22.8035 42.4802L22.8183 42.4973Z" fill="#2180A3"/>
<path d="M22.769 42.596L22.7566 42.6097C22.7566 42.6097 22.7464 42.5994 22.7464 42.5949C22.7464 42.5903 22.7543 42.5858 22.7588 42.5823L22.769 42.596Z" fill="#2180A3"/>
<path d="M32.2792 34.6832L32.2465 34.7454C32.2372 34.7266 32.194 34.7243 32.2197 34.6855C32.2453 34.6467 32.264 34.6855 32.2862 34.6855L32.2792 34.6832Z" fill="#F8F2EA"/>
<path d="M32.0605 34.7947C32.0921 34.7947 32.1038 34.7829 32.1003 34.7523C32.1074 34.7711 32.1565 34.7735 32.1214 34.81C32.0863 34.8466 32.0816 34.7994 32.0617 34.7923L32.0605 34.7947Z" fill="#F8F2EA"/>
<path d="M32.2878 34.686C32.2237 34.6554 32.2726 34.6308 32.2878 34.6037L32.3146 34.6308L32.275 34.6825L32.2878 34.686Z" fill="#F8F2EA"/>
<path d="M29.2457 37.8958L29.2041 37.9249C29.1903 37.8993 29.2041 37.8876 29.2261 37.8772C29.2321 37.8839 29.2386 37.8902 29.2457 37.8958Z" fill="#2180A3"/>
<path d="M31.5393 35.3231C31.5707 35.3231 31.5823 35.3114 31.5823 35.2822C31.5962 35.3056 31.616 35.3302 31.5823 35.3477C31.5742 35.3477 31.5556 35.3313 31.5416 35.322L31.5393 35.3231Z" fill="#F8F2EA"/>
<path d="M31.8223 35.0413C31.8479 35.032 31.8746 35.0238 31.8676 34.9875C31.8769 35.0285 31.8955 35.0765 31.82 35.0402L31.8223 35.0413Z" fill="#F8F2EA"/>
<path d="M31.7268 35.1306L31.7791 35.0932C31.7763 35.0919 31.7739 35.0898 31.7721 35.0873C31.7721 35.1037 31.7907 35.1248 31.7849 35.1353C31.7651 35.1704 31.7442 35.1447 31.7245 35.1271L31.7268 35.1306Z" fill="#F8F2EA"/>
<path d="M31.9149 34.9411C31.9149 34.9587 31.9578 34.9634 31.9288 34.995C31.8998 35.0266 31.8928 34.9891 31.8742 34.9856C31.9056 34.9856 31.916 34.9681 31.9172 34.94L31.9149 34.9411Z" fill="#F8F2EA"/>
<path d="M31.3952 35.6072C31.3881 35.5871 31.3402 35.5812 31.3764 35.5458C31.4127 35.5105 31.4162 35.56 31.4349 35.5671C31.4057 35.5671 31.394 35.5789 31.394 35.6072H31.3952Z" fill="#F8F2EA"/>
<path d="M29.4048 37.6345V37.6229H29.4128C29.4186 37.638 29.4244 37.6531 29.4313 37.6683H29.4244C29.4219 37.6551 29.415 37.6431 29.4048 37.6345Z" fill="#2180A3"/>
<path d="M37.325 28.8209C37.4749 28.7722 37.631 28.7458 37.7884 28.7425C37.8451 28.7425 37.937 28.7068 37.9465 28.7924C37.9559 28.8779 37.8698 28.8898 37.7967 28.8981C37.4067 28.955 37.021 29.0383 36.6422 29.1476C35.7282 29.3793 34.8732 29.7667 34.0123 30.1433C33.4006 30.4008 32.7529 30.5611 32.0924 30.6186C31.7635 30.6569 31.4329 30.563 31.1724 30.3572C30.9119 30.1514 30.7424 29.8504 30.7008 29.5195C30.618 28.9238 30.7167 28.3168 30.9838 27.7788C31.2539 27.2133 31.5039 26.6394 31.7445 26.0607L31.794 26.0845C31.759 26.1509 31.7427 26.2257 31.7468 26.3007C31.7127 26.3371 31.6878 26.3814 31.6745 26.4296C31.6611 26.4778 31.6596 26.5286 31.6702 26.5776C31.7056 26.4505 31.7634 26.3899 31.7539 26.3067C31.8597 26.1455 31.9308 25.9638 31.9627 25.7732C32.0499 25.5356 32.1796 25.3039 32.1195 25.0318C32.4167 24.3189 32.1914 23.7402 31.7339 23.1663C31.0051 22.2538 30.2244 21.3841 29.4826 20.4846C29.1285 20.0661 28.8369 19.5978 28.617 19.0945C28.3209 18.3958 28.5462 17.7102 29.2137 17.3455C29.9283 16.9545 30.7126 16.8631 31.5098 16.8821C32.2032 16.8975 32.899 16.9688 33.5877 16.9759C34.7175 16.9902 35.6763 16.5007 36.391 15.6048C36.9865 14.8634 37.4889 14.0554 38.0007 13.2462C38.0998 13.0906 38.1552 12.9124 38.4099 12.8779C38.5397 12.8601 38.6517 12.6225 38.7484 12.4692C39.1022 11.9191 39.6199 11.6268 40.2261 11.4747C40.8594 11.3166 41.5139 11.6173 41.9467 12.2624C42.3913 12.9278 42.6165 13.6787 42.7569 14.4618C42.8748 15.1438 43.0069 15.8246 43.1602 16.4995C43.3135 17.1744 43.7333 17.6199 44.3171 17.9312C44.8018 18.1903 45.3313 18.3316 45.8502 18.492C46.7253 18.7618 47.5814 19.0861 48.4388 19.3974C48.4684 19.4093 48.5008 19.4122 48.532 19.4058C48.28 19.1999 47.9931 19.0417 47.6852 18.9388C47.3432 18.82 46.9941 18.7142 46.6521 18.5942C46.5578 18.561 46.3809 18.5622 46.4163 18.4243C46.4469 18.3055 46.6168 18.3483 46.7158 18.372C47.322 18.517 47.9258 18.6738 48.473 18.9899C48.6874 19.1097 48.8889 19.2514 49.0744 19.4129C49.7183 19.9903 49.775 20.7995 49.1924 21.4423C48.5854 22.1037 47.9011 22.6886 47.1545 23.1842C46.6556 23.5234 46.2151 23.9424 45.8502 24.4246C45.6235 24.7124 45.4634 25.0476 45.3818 25.4057C45.3002 25.7638 45.2991 26.1358 45.3785 26.4944C45.5577 27.4741 45.5911 28.4753 45.4775 29.4649C45.4647 29.7174 45.4101 29.966 45.316 30.2003C45.5919 30.1374 45.6497 30.1873 45.6226 30.4867C45.579 30.9738 45.4563 31.4372 45.0613 31.7604C44.5801 32.1573 44.0376 32.0741 43.5093 31.8887C43.001 31.7105 42.6165 31.3279 42.1908 31.0119C41.1896 30.2681 40.2638 29.4102 39.0987 28.904C38.5411 28.6477 37.9125 28.5944 37.3203 28.7531L36.161 29.0514C35.5788 29.1513 35.016 29.3434 34.4935 29.6205L36.1787 29.1179L37.325 28.8209ZM41.5257 12.1864C41.5257 12.1543 41.5092 12.1401 41.4797 12.1365C41.3168 11.9396 41.0832 11.8157 40.8299 11.7919L41.4514 12.1733L41.5056 12.209C41.5221 12.2142 41.5391 12.2174 41.5563 12.2185C41.5693 12.1888 41.5445 12.1888 41.5257 12.1864ZM29.321 17.7566C29.3065 17.7423 29.287 17.7344 29.2668 17.7344C29.2465 17.7344 29.227 17.7423 29.2125 17.7566L29.1606 17.8029C28.9248 18.0405 28.742 18.2972 28.8233 18.6572C28.8233 18.3293 29.0333 18.0952 29.1877 17.8362C29.1941 17.8363 29.2004 17.8352 29.2063 17.8328C29.2122 17.8304 29.2175 17.8268 29.2219 17.8222C29.2263 17.8176 29.2298 17.8122 29.232 17.8062C29.2343 17.8002 29.2352 17.7938 29.2349 17.7875L29.3186 17.7578C29.3021 17.7483 29.3281 17.6948 29.2797 17.7185L29.321 17.7566ZM43.3029 31.1461L43.2015 31.1568C43.2015 31.1651 43.2015 31.1758 43.2109 31.1782C43.251 31.196 43.284 31.1901 43.3017 31.1449C43.2758 31.196 43.2887 31.2281 43.3465 31.24C43.4506 31.3244 43.5822 31.3668 43.7157 31.3588C43.6095 31.3208 43.5211 31.24 43.3996 31.24C43.3701 31.202 43.3112 31.202 43.3029 31.1461ZM35.3084 17.2136C35.3496 17.2136 35.3944 17.2314 35.4393 17.1696C35.3779 17.1696 35.3343 17.1577 35.306 17.2112L35.2164 17.2314C35.2223 17.2314 35.2282 17.2457 35.2341 17.2468C35.2635 17.2492 35.2977 17.2635 35.3084 17.2136ZM42.6673 30.8467C42.6319 30.9061 42.6838 30.8907 42.7109 30.8966C42.8257 31.0068 42.9693 31.0818 43.1248 31.1129C42.9786 31.0558 42.8795 30.899 42.705 30.9014C42.738 30.8431 42.6885 30.8574 42.6625 30.8503C42.6307 30.7956 42.5835 30.7695 42.4656 30.7588C42.5564 30.8218 42.5906 30.8764 42.6673 30.8467ZM42.3288 30.659C42.3424 30.6871 42.364 30.7106 42.3909 30.7262C42.4178 30.7419 42.4487 30.7491 42.4797 30.7469C42.4538 30.678 42.396 30.6602 42.3477 30.6281C42.2993 30.596 42.2486 30.5093 42.146 30.5378C42.1663 30.5698 42.193 30.5972 42.2245 30.6181C42.256 30.6389 42.2916 30.6529 42.3288 30.659ZM35.497 17.4536C35.3629 17.4483 35.2288 17.4644 35.0996 17.5011L33.9144 17.677C34.2493 17.7245 34.6751 17.6496 35.1008 17.5748C35.2388 17.5498 35.385 17.5486 35.4994 17.4476L35.497 17.4536ZM42.8831 17.6377L42.9232 17.614L42.9067 17.5985L42.8831 17.6377C42.8442 17.2706 42.6189 16.9854 42.4856 16.6587C42.5387 17.0258 42.738 17.3169 42.8831 17.6377ZM32.1855 17.829C31.5145 17.8742 30.7857 17.778 30.0628 17.8588C29.8615 17.8866 29.6784 17.9907 29.5506 18.1499C29.4229 18.3091 29.3602 18.5113 29.3753 18.7154C29.3959 18.969 29.488 19.2114 29.6406 19.4141C30.2208 20.2161 30.9378 20.8898 31.6348 21.5825C32.1903 22.1362 32.7434 22.6923 33.3024 23.2459C33.4303 23.3604 33.5198 23.5121 33.5585 23.68C33.5972 23.848 33.5831 24.0239 33.5182 24.1834C33.3894 24.6101 33.2261 25.0253 33.0299 25.4251C32.6088 26.2449 32.2538 27.0976 31.9686 27.9749C31.9049 28.2033 31.8744 28.4398 31.8777 28.6771C31.8447 29.3258 32.5853 29.6276 33.0122 29.4981C33.6811 29.3108 34.3313 29.0614 34.9546 28.7531C35.6067 28.4133 36.2306 28.02 36.9051 27.723C37.1909 27.5727 37.4962 27.4635 37.812 27.3986C38.4373 27.3126 39.0713 27.474 39.581 27.8489C40.4824 28.4829 41.333 29.1873 42.1248 29.9556C42.5859 30.3928 43.0942 30.7517 43.7357 30.8538C44.1591 30.9216 44.4315 30.735 44.5777 30.3382C44.8136 29.6835 44.7641 29.0205 44.6237 28.3599C44.4044 27.3333 44.152 26.3126 44.0718 25.2599C44.057 25.1569 44.0667 25.0518 44.1001 24.9534C44.2984 24.4392 44.6177 23.9813 45.0306 23.619C45.6568 23.0808 46.3667 22.6578 47.013 22.1469C47.3668 21.8724 47.7631 21.6716 48.0473 21.3152C48.1458 21.2002 48.2158 21.0634 48.2517 20.916C48.2876 20.7685 48.2884 20.6146 48.2538 20.4668C48.2193 20.319 48.1506 20.1815 48.0532 20.0657C47.9557 19.9498 47.8325 19.8588 47.6935 19.8002C47.5152 19.7157 47.3281 19.6515 47.1357 19.6089C45.998 19.3786 44.8804 19.0572 43.7935 18.6477C43.1071 18.397 42.6366 17.9621 42.3842 17.2742C42.2745 16.9759 42.1778 16.6729 42.0882 16.3688C41.8335 15.5038 41.7439 14.6031 41.528 13.7298C41.4586 13.3611 41.2571 13.0309 40.962 12.8019C40.5504 12.4941 39.8581 12.4347 39.4289 12.8221C39.2233 12.9978 39.0388 13.1972 38.8793 13.4162C38.3911 14.1291 37.9712 14.8895 37.4736 15.6C37.1102 16.1107 36.7026 16.5879 36.2553 17.0258C35.7625 17.5327 35.0958 17.8303 34.392 17.8576C33.6567 17.8969 32.9196 17.8873 32.1855 17.829ZM45.0247 25.4964C44.9964 26.9436 45.1426 28.386 45.1568 29.8332C45.1981 29.8178 45.2157 29.8011 45.2181 29.7833C45.2606 29.2118 45.2936 28.6415 45.2889 28.0676C45.2806 27.2026 44.9681 26.3673 45.0247 25.4964ZM36.9865 15.2994C36.7665 15.6136 36.5262 15.9129 36.2671 16.1953C35.9733 16.4665 35.642 16.6934 35.2836 16.869C35.9086 16.85 36.6492 16.0563 36.9865 15.2994ZM42.4113 13.8665C42.4337 14.5496 42.5887 15.2218 42.8677 15.8448L42.4113 13.8665ZM44.5117 18.3055C44.1756 18.0607 43.9114 17.8302 43.6237 17.6187C43.8489 17.9122 44.0187 18.2687 44.5141 18.3055H44.5117ZM44.5329 25.5534C44.6685 25.1969 44.5872 24.8191 44.5848 24.4508C44.356 24.806 44.5341 25.1839 44.5341 25.5522L44.5329 25.5534ZM48.7784 21.087L48.4246 21.6942C48.5296 21.6303 48.6175 21.5414 48.6804 21.4354C48.7433 21.3293 48.7794 21.2093 48.7855 21.0858L48.7784 21.087ZM31.5523 26.9638L31.4945 26.9424C31.3941 27.179 31.3308 27.4299 31.307 27.6862L31.5523 26.9638ZM32.4273 24.951C32.5452 24.8322 32.6077 24.7062 32.5075 24.547C32.4544 24.6765 32.4733 24.8203 32.4273 24.951ZM35.8225 17.0484V17.0413H35.8072L35.8225 17.0484ZM35.6657 17.0876C35.6657 17.0876 35.6657 17.1007 35.6716 17.1019C35.6785 17.1042 35.6859 17.1042 35.6928 17.1019C35.7129 17.0948 35.7105 17.0852 35.6928 17.0805C35.6751 17.0757 35.6728 17.0864 35.6657 17.0876ZM35.5159 17.1399C35.5218 17.1458 35.5277 17.1542 35.5324 17.1542C35.5457 17.1523 35.5587 17.1491 35.5713 17.1447C35.5713 17.1447 35.5607 17.1304 35.556 17.1316C35.5423 17.1349 35.5289 17.1392 35.5159 17.1447V17.1399ZM37.029 15.2317L37.0419 15.24V15.2246L37.029 15.2317Z" fill="#080707"/>
<path d="M32.1195 25.0341C32.1797 25.3062 32.0499 25.5356 31.9627 25.7756C31.8836 25.7756 31.9025 25.8552 31.8612 25.8849L31.8282 25.8587C31.9016 25.5759 31.999 25.3001 32.1195 25.0341Z" fill="#2180A3"/>
<path d="M37.325 28.8209L36.1775 29.1132C36.1716 29.093 36.1669 29.0728 36.161 29.0514L37.3215 28.7567C37.3215 28.771 37.3309 28.784 37.3332 28.7983C37.3356 28.8125 37.3285 28.8137 37.325 28.8209Z" fill="#2180A3"/>
<path d="M31.7681 25.9994C31.7857 25.9521 31.7751 25.8918 31.8279 25.8587L31.8607 25.8847C31.8502 25.9332 31.8607 25.9887 31.8103 26.0254L31.7681 25.9994Z" fill="#2180A3"/>
<path d="M31.7445 26.0626C31.7363 26.0355 31.7386 26.0119 31.769 26.0001L31.81 26.0261C31.81 26.0461 31.7995 26.0661 31.7936 26.0862L31.7445 26.0626Z" fill="#2180A3"/>
<path d="M22.4987 31.12C21.246 32.4302 20.0728 33.8154 18.9855 35.2679C19.7615 33.7922 21.797 31.3933 22.4987 31.12Z" fill="#F8F2EA"/>
<path d="M20.5175 36.6106C21.5376 34.9673 22.6886 33.4607 24.2842 32.3533L24.3479 32.4127C24.0507 32.7217 23.7582 33.033 23.4551 33.3395C22.4372 34.3524 21.4914 35.4364 20.6248 36.5832C20.6047 36.6066 20.5822 36.6277 20.5576 36.6462L20.5175 36.6106Z" fill="#F8F2EA"/>
<path d="M20.5568 36.6471C20.5381 36.6931 20.5065 36.6978 20.4667 36.6754L20.517 36.6106L20.5568 36.6471Z" fill="#F8F2EA"/>
<path d="M46.092 46.5485C46.092 46.9489 45.7983 47.2875 45.4445 47.2946C45.3059 47.2893 45.174 47.2331 45.0736 47.1366C44.9732 47.0401 44.9114 46.9099 44.8997 46.7706C44.8997 46.457 45.2712 46.0779 45.5743 46.0696C45.7051 46.0672 45.8318 46.1156 45.9282 46.2047C46.0246 46.2939 46.0832 46.4169 46.092 46.5485Z" fill="#F8F2EA"/>
<path d="M44.6709 46.5099C44.6426 46.1744 44.8409 46.0436 45.0676 45.9342C44.9018 46.1003 44.7674 46.2953 44.6709 46.5099Z" fill="#F8F2EA"/>
<path d="M27.8575 59.4544C27.8516 58.9792 28.0874 58.8413 28.5085 59.0742C28.5214 59.0814 28.5368 59.0861 28.5509 59.0944C28.8976 59.3035 28.9224 59.4449 28.6688 59.7693C28.6345 59.8136 28.5949 59.8535 28.5509 59.8881C28.4165 59.9891 28.2785 60.1769 28.1122 60.1044C27.9459 60.0319 27.8846 59.7954 27.8563 59.5946C27.8533 59.5479 27.8537 59.5011 27.8575 59.4544Z" fill="#F8F2EA"/>
<path d="M27.7679 58.7522C27.3657 59.2109 27.6086 59.6683 27.7914 60.1329C27.5862 60.0497 27.4801 59.8608 27.4376 59.5103C27.4046 59.1966 27.4376 58.9019 27.736 58.7142L27.7679 58.7522Z" fill="#F8F2EA"/>
<path d="M27.7396 58.7141C27.7805 58.6846 27.8121 58.6846 27.8296 58.74L27.7676 58.7529L27.7396 58.7141Z" fill="#F8F2EA"/>
<path d="M43.014 56.7965C43.014 56.541 43.2215 56.2155 43.389 56.2202C43.5565 56.225 43.8607 56.5707 43.8607 56.7656C43.8607 56.9795 43.6768 57.248 43.5199 57.2539C43.3932 57.2586 43.2696 57.2135 43.1753 57.1282C43.0809 57.0428 43.0231 56.9239 43.014 56.7965Z" fill="#F8F2EA"/>
<path d="M43.027 56.2749C42.7144 56.6028 42.7911 56.9628 42.9869 57.3644C42.5706 57.0294 42.5564 56.5006 42.9137 56.263C42.9503 56.2392 43.0022 56.1644 43.0317 56.2737L43.027 56.2749Z" fill="#F8F2EA"/>
<path d="M43.0304 56.2722L42.9833 56.2456L43.0051 56.2178C43.0051 56.2363 43.0177 56.2549 43.0246 56.2734L43.0304 56.2722Z" fill="#F8F2EA"/>
<path d="M10.452 34.795C10.4462 35.0433 10.2162 35.3475 10.0452 35.3416C9.89895 35.3416 9.75154 35.1123 9.75743 34.9043C9.76569 34.6762 9.93551 34.4398 10.0876 34.4445C10.1345 34.4431 10.1812 34.4511 10.2249 34.468C10.2687 34.4849 10.3087 34.5104 10.3426 34.543C10.3765 34.5756 10.4036 34.6147 10.4224 34.6579C10.4412 34.7012 10.4513 34.7478 10.452 34.795Z" fill="#F8F2EA"/>
<path d="M9.37771 34.4148C9.29091 34.5936 9.26698 34.7968 9.30983 34.9911C9.35268 35.1854 9.45978 35.3592 9.61357 35.4842C9.71591 35.5783 9.84566 35.6367 9.98355 35.6506C10.1214 35.6645 10.2601 35.6332 10.3789 35.5614L10.4049 35.5899C10.2482 35.711 10.0507 35.7655 9.85467 35.742C9.65859 35.7185 9.4794 35.6187 9.3553 35.464C9.04868 35.1135 9.04868 34.6703 9.3553 34.3863C9.36223 34.3962 9.36972 34.4057 9.37771 34.4148Z" fill="#F8F2EA"/>
<path d="M9.34821 34.387C9.34821 34.3671 9.3575 34.3413 9.38422 34.3577C9.39119 34.3577 9.38422 34.394 9.37725 34.4139C9.36702 34.4055 9.35732 34.3965 9.34821 34.387Z" fill="#F8F2EA"/>
<path d="M10.373 35.561C10.394 35.5458 10.4125 35.5142 10.4381 35.5528C10.4381 35.5528 10.4125 35.5762 10.3986 35.5891L10.373 35.561Z" fill="#F8F2EA"/>
<path d="M21.5977 19.3285C21.5977 19.5982 21.4326 19.8038 21.2074 19.8038C21.1542 19.8055 21.1014 19.7958 21.0522 19.7755C21.003 19.7552 20.9586 19.7246 20.922 19.6858C20.8854 19.647 20.8573 19.6008 20.8396 19.5503C20.8219 19.4998 20.815 19.4461 20.8194 19.3927C20.8168 19.3336 20.8262 19.2746 20.8471 19.2193C20.8679 19.164 20.8997 19.1136 20.9406 19.0711C20.9814 19.0286 21.0304 18.995 21.0846 18.9722C21.1388 18.9495 21.197 18.9381 21.2557 18.9388C21.4633 18.9269 21.5942 19.0826 21.5977 19.3285Z" fill="#F8F2EA"/>
<path d="M20.6448 19.3489C20.6254 19.3171 20.6172 19.2794 20.6217 19.2423C20.6262 19.2051 20.6431 19.1706 20.6696 19.1444C20.7121 19.224 20.6578 19.2835 20.6448 19.3489Z" fill="#2180A3"/>
<path d="M20.7309 19.0213C20.7309 18.9812 20.7415 18.9458 20.7882 18.9352C20.7936 18.9541 20.7916 18.9744 20.7827 18.9919C20.7738 19.0094 20.7586 19.0228 20.7403 19.0295L20.7309 19.0213Z" fill="#2180A3"/>
<path d="M20.7416 19.0336C20.7416 19.051 20.7336 19.0846 20.7082 19.0661C20.6829 19.0475 20.7082 19.0301 20.7301 19.022L20.7416 19.0336Z" fill="#2180A3"/>
<path d="M20.7887 18.934L20.8114 18.9032C20.8364 18.9329 20.8114 18.934 20.791 18.9375L20.7887 18.934Z" fill="#2180A3"/>
<path d="M31.2624 55.3855C31.201 55.3522 31.0404 55.3629 31.0865 55.2475C31.1325 55.1321 31.1219 54.8811 31.3627 54.8978C31.4298 54.8936 31.496 54.9141 31.5492 54.9555C31.6024 54.9968 31.6389 55.0562 31.652 55.1226C31.6685 55.232 31.43 55.3914 31.2624 55.3855Z" fill="#F8F2EA"/>
<path d="M51.9178 35.2917C51.9178 35.5364 51.7362 35.7491 51.564 35.7396C51.4461 35.7325 51.2928 35.5364 51.301 35.3915C51.3156 35.3016 51.36 35.2193 51.4271 35.1582C51.4942 35.0971 51.5799 35.0608 51.6701 35.0552C51.8223 35.0635 51.9567 35.1063 51.9178 35.2917Z" fill="#F8F2EA"/>
<path d="M32.1856 17.829C32.9196 17.8873 33.6567 17.8969 34.3921 17.8576C35.0937 17.8288 35.758 17.5313 36.2495 17.0258C36.6967 16.5879 37.1044 16.1107 37.4677 15.6C37.9654 14.8871 38.3852 14.1314 38.8734 13.4162C39.0329 13.1972 39.2174 12.9978 39.423 12.8221C39.8511 12.4347 40.5433 12.4941 40.9561 12.8019C41.2513 13.0309 41.4527 13.3611 41.5222 13.7298C41.738 14.6031 41.8276 15.5038 42.0823 16.3688C42.172 16.6729 42.2687 16.9759 42.3783 17.2742C42.6307 17.9621 43.1013 18.397 43.7876 18.6477C44.8741 19.0571 45.9913 19.3785 47.1286 19.6089C47.321 19.6515 47.5081 19.7157 47.6864 19.8002C47.8254 19.8588 47.9487 19.9498 48.0461 20.0657C48.1435 20.1815 48.2123 20.319 48.2468 20.4668C48.2813 20.6146 48.2806 20.7685 48.2447 20.916C48.2088 21.0634 48.1387 21.2002 48.0402 21.3152C47.756 21.6716 47.3538 21.8724 47.006 22.1469C46.3597 22.6578 45.6497 23.0808 45.0235 23.619C44.6107 23.9813 44.2913 24.4392 44.0931 24.9534C44.0597 25.0518 44.05 25.1569 44.0648 25.2599C44.1426 26.3126 44.3973 27.3333 44.6167 28.3599C44.757 29.0205 44.8101 29.6835 44.5707 30.3382C44.4244 30.7386 44.152 30.9216 43.7287 30.8538C43.0871 30.7517 42.5788 30.3928 42.1177 29.9556C41.3282 29.1876 40.48 28.4832 39.581 27.8489C39.0713 27.474 38.4373 27.3126 37.8121 27.3986C37.4947 27.4623 37.1878 27.5707 36.9004 27.7206C36.2259 28.0177 35.6032 28.4109 34.9499 28.7508C34.3272 29.061 33.6774 29.3123 33.0087 29.5017C32.5853 29.6288 31.8412 29.3294 31.8742 28.6807C31.8708 28.4434 31.9014 28.2069 31.965 27.9785C32.2503 27.1012 32.6052 26.2485 33.0264 25.4286C33.2226 25.0289 33.3859 24.6136 33.5146 24.187C33.5795 24.0275 33.5936 23.8516 33.555 23.6836C33.5163 23.5157 33.4268 23.364 33.2988 23.2495C32.7398 22.6982 32.1867 22.1421 31.6313 21.5861C30.9343 20.8934 30.2161 20.2197 29.6371 19.4176C29.4844 19.2149 29.3924 18.9726 29.3717 18.719C29.3554 18.5139 29.4177 18.3103 29.5458 18.1501C29.6739 17.9898 29.8581 17.8852 30.0604 17.8576C30.7857 17.778 31.5145 17.8742 32.1856 17.829ZM33.9475 18.271C33.5606 18.271 33.1726 18.271 32.7858 18.271C32.5558 18.2676 32.3277 18.3142 32.1172 18.4077C32.0499 18.4322 31.9924 18.4781 31.9532 18.5384C31.9384 18.5572 31.9295 18.5801 31.9278 18.604C31.9261 18.628 31.9317 18.6519 31.9438 18.6726C31.9815 18.7214 32.0381 18.6905 32.07 18.6655C32.3353 18.4671 32.629 18.5301 32.9156 18.5752C33.4687 18.6608 34.0182 18.7701 34.5666 18.8533C35.293 18.9626 36.0089 18.902 36.6681 18.5598C37.588 18.0845 38.134 17.2801 38.4807 16.3236C38.5857 16.0361 38.5326 15.9232 38.2838 15.8056C38.0349 15.6879 37.9807 15.8864 37.8911 16.029C37.6729 16.3795 37.4594 16.7324 37.2165 17.0662C36.6327 17.8683 35.8579 18.2794 34.8661 18.2639C34.5631 18.2675 34.2553 18.271 33.9475 18.271ZM43.1189 25.3538C43.108 25.8009 43.1767 26.2464 43.3218 26.6691C43.5356 27.2264 43.6659 27.8126 43.7086 28.4086C43.7157 28.5274 43.7086 28.7211 43.8572 28.7068C43.9846 28.6937 43.9751 28.5084 43.961 28.3777C43.9151 27.8133 43.8087 27.2556 43.6437 26.7142C43.4079 25.8956 43.4079 25.0734 43.8383 24.3082C44.0732 23.8907 44.402 23.5346 44.7983 23.2685C45.3219 22.9121 45.8479 22.5556 46.2854 22.091C46.3821 21.9889 46.5649 21.8653 46.454 21.7227C46.3432 21.5801 46.1498 21.6324 45.9894 21.6954C45.9457 21.714 45.9041 21.7376 45.8656 21.7655C45.4469 22.0506 45.02 22.3239 44.6131 22.6245C43.7015 23.3018 43.1119 24.1632 43.1189 25.3538ZM34.3661 23.8697C34.3771 23.4041 34.248 22.946 33.9958 22.5556C33.9345 22.4522 33.846 22.3358 33.7163 22.4047C33.5866 22.4736 33.6786 22.6055 33.7163 22.6958C34.0595 23.4087 34.0394 24.1216 33.7505 24.8464C33.6095 25.1762 33.4521 25.4986 33.2788 25.8124C32.9745 26.397 32.6691 26.9828 32.5594 27.6458C32.4969 28.0212 32.5535 28.3706 32.8531 28.626C33.1314 28.8636 33.4203 28.7092 33.701 28.6034C33.7623 28.5797 33.8637 28.5702 33.8331 28.4751C33.8024 28.3801 33.7222 28.4561 33.668 28.462C33.1208 28.525 32.9179 28.2874 33.0465 27.7491C33.2033 27.1004 33.5182 26.5182 33.793 25.9217C34.109 25.2706 34.3366 24.5981 34.3661 23.8697ZM46.5578 20.8767C46.5389 20.5809 46.3691 20.3801 46.1415 20.2185C45.5441 19.7977 44.8532 19.5313 44.1296 19.4426C43.3348 19.3392 42.5717 19.1776 41.9585 18.6109C41.7085 18.3732 41.4679 18.1356 41.2155 17.9098C41.1259 17.8279 40.9903 17.7007 40.8924 17.791C40.7745 17.8956 40.8275 18.0702 40.9113 18.2081C40.9278 18.2342 40.9455 18.2615 40.9643 18.2865C41.6071 19.1289 42.4184 19.698 43.4869 19.8157C44.2523 19.8988 45.0035 20.0153 45.6981 20.3753C45.9493 20.506 46.1698 20.6676 46.2571 20.9575C46.2783 21.0252 46.2571 21.1583 46.4021 21.1179C46.4285 21.1132 46.4536 21.103 46.4759 21.0881C46.4982 21.0732 46.5172 21.0539 46.5318 21.0313C46.5464 21.0087 46.5562 20.9833 46.5607 20.9567C46.5652 20.9301 46.5642 20.9029 46.5578 20.8767ZM43.0671 29.5611C43.1336 29.5646 43.2 29.5511 43.26 29.5218C43.32 29.4925 43.3717 29.4484 43.4102 29.3936C43.435 29.3603 43.4751 29.3163 43.4397 29.2664C43.4322 29.2545 43.4223 29.2444 43.4106 29.2366C43.3989 29.2289 43.3857 29.2237 43.3719 29.2215C43.3581 29.2192 43.344 29.2199 43.3304 29.2236C43.3169 29.2273 43.3043 29.2338 43.2935 29.2427C43.1142 29.4328 42.9574 29.2973 42.8088 29.2082C42.2952 28.8802 41.834 28.4756 41.4408 28.0082C40.7055 27.1833 39.6903 26.6658 38.5951 26.5574C38.4866 26.5443 38.3309 26.5217 38.3003 26.6762C38.292 26.7403 38.3064 26.8053 38.3409 26.8598C38.3754 26.9143 38.4278 26.9549 38.489 26.9744C38.5473 26.9977 38.6072 27.0168 38.6682 27.0315C39.6695 27.319 40.5799 27.7658 41.3099 28.5393C41.6864 28.913 42.1256 29.2167 42.6071 29.4363C42.7475 29.5165 42.9057 29.5594 43.0671 29.5611Z" fill="#F8F2EA"/>
<path d="M45.0247 25.4963C44.9681 26.3673 45.2806 27.2026 45.2889 28.0676C45.2889 28.6414 45.2606 29.2118 45.2181 29.7833C45.2181 29.8011 45.1981 29.8177 45.1568 29.8332C45.1403 28.386 44.9964 26.9435 45.0247 25.4963Z" fill="#F8F2EA"/>
<path d="M36.9865 15.2994C36.6445 16.0563 35.9039 16.844 35.2836 16.869C35.6437 16.6935 35.9766 16.4661 36.2719 16.1941C36.5292 15.9119 36.7679 15.613 36.9865 15.2994Z" fill="#F8F2EA"/>
<path d="M42.4113 13.8665L42.8677 15.8448C42.5887 15.2217 42.4337 14.5496 42.4113 13.8665Z" fill="#F8F2EA"/>
<path d="M36.161 29.0514C36.1669 29.0728 36.1716 29.093 36.1775 29.1132L34.4935 29.6205C35.0161 29.3434 35.5789 29.1513 36.161 29.0514Z" fill="#F8F2EA"/>
<path d="M44.5141 18.3055C44.0187 18.2687 43.8489 17.9122 43.626 17.6187C43.9138 17.8243 44.1803 18.0607 44.5141 18.3055Z" fill="#F8F2EA"/>
<path d="M44.5341 25.5522C44.527 25.1839 44.3549 24.806 44.586 24.4496C44.5895 24.8179 44.6709 25.191 44.5341 25.5522Z" fill="#F8F2EA"/>
<path d="M35.0996 17.5795C34.6739 17.6544 34.2482 17.7292 33.9132 17.6817L35.0996 17.5011C35.0996 17.5308 35.0996 17.5558 35.0996 17.5795Z" fill="#F8F2EA"/>
<path d="M29.1877 17.8362C29.0332 18.0952 28.8233 18.3293 28.8233 18.6572C28.742 18.3007 28.9248 18.0393 29.1606 17.8029C29.1687 17.8147 29.1778 17.8259 29.1877 17.8362Z" fill="#F8F2EA"/>
<path d="M42.8831 17.6377C42.738 17.3169 42.5387 17.0199 42.4857 16.6587C42.6189 16.9854 42.8394 17.2706 42.8831 17.6377Z" fill="#F8F2EA"/>
<path d="M41.4514 12.1733L40.8299 11.7979C41.0832 11.8217 41.3168 11.9456 41.4797 12.1424C41.4693 12.1518 41.4598 12.1621 41.4514 12.1733Z" fill="#F8F2EA"/>
<path d="M48.7855 21.0858C48.78 21.2084 48.7449 21.3277 48.6832 21.4335C48.6216 21.5393 48.5353 21.6284 48.4317 21.693L48.7855 21.0858Z" fill="#F8F2EA"/>
<path d="M31.5523 26.9637L31.307 27.6862C31.3308 27.4299 31.3941 27.179 31.4945 26.9424L31.5523 26.9637Z" fill="#2180A3"/>
<path d="M32.4273 24.9514C32.4733 24.8206 32.4545 24.6766 32.5076 24.547C32.6079 24.7064 32.5454 24.8337 32.4273 24.9514Z" fill="#F8F2EA"/>
<path d="M31.7976 26.0872C31.8035 26.067 31.8094 26.0468 31.8141 26.0265C31.8614 25.9897 31.8543 25.9338 31.8649 25.885C31.9062 25.8553 31.8873 25.7661 31.9664 25.7756C31.9346 25.9663 31.8634 26.1483 31.7575 26.3096H31.7504C31.7451 26.2325 31.7615 26.1554 31.7976 26.0872Z" fill="#F8F2EA"/>
<path d="M42.705 30.9014C42.8797 30.9014 42.9789 31.056 43.1253 31.1131C42.9695 31.082 42.8258 31.007 42.7109 30.8966L42.705 30.9014Z" fill="#F8F2EA"/>
<path d="M35.0996 17.5797C35.0996 17.5559 35.0996 17.5309 35.0996 17.5059C35.2298 17.4672 35.3653 17.4495 35.501 17.4536C35.3818 17.5535 35.2354 17.5547 35.0996 17.5797Z" fill="#2180A3"/>
<path d="M43.3997 31.2341C43.5177 31.2341 43.6098 31.3149 43.7161 31.353C43.5825 31.361 43.4508 31.3186 43.3466 31.2341H43.3997Z" fill="#2180A3"/>
<path d="M42.329 30.6591C42.2919 30.6533 42.2565 30.6397 42.225 30.6192C42.1934 30.5987 42.1665 30.5718 42.146 30.5402C42.2487 30.5152 42.2912 30.5901 42.3479 30.6306C42.3424 30.6406 42.336 30.6501 42.329 30.6591Z" fill="#F8F2EA"/>
<path d="M31.754 26.3091C31.7635 26.3923 31.7056 26.453 31.6702 26.5803C31.6596 26.5313 31.6611 26.4804 31.6745 26.4321C31.6879 26.3838 31.7127 26.3395 31.7469 26.3031L31.754 26.3091Z" fill="#F8F2EA"/>
<path d="M42.6687 30.8456C42.5907 30.8765 42.5565 30.8218 42.4656 30.7588C42.5837 30.7695 42.6309 30.7957 42.6628 30.8504L42.6687 30.8456Z" fill="#F8F2EA"/>
<path d="M42.3476 30.6328C42.3957 30.66 42.4531 30.6777 42.4789 30.751C42.4481 30.7532 42.4173 30.746 42.3906 30.7304C42.3638 30.7149 42.3423 30.6916 42.3288 30.6636C42.3359 30.6539 42.3422 30.6436 42.3476 30.6328Z" fill="#F8F2EA"/>
<path d="M35.306 17.211C35.3341 17.1578 35.3775 17.1696 35.4385 17.1696C35.394 17.231 35.3494 17.2145 35.3083 17.2133L35.306 17.211Z" fill="#2180A3"/>
<path d="M35.3076 17.2135C35.2971 17.2572 35.2632 17.2489 35.2339 17.2465C35.2281 17.2465 35.2222 17.2371 35.2164 17.2312L35.3053 17.2112L35.3076 17.2135Z" fill="#2180A3"/>
<path d="M43.3994 31.2338H43.3464C43.2888 31.222 43.2758 31.19 43.3017 31.139C43.3111 31.2018 43.3699 31.2018 43.3994 31.2338Z" fill="#F8F2EA"/>
<path d="M43.3009 31.1449C43.2834 31.1897 43.2506 31.1956 43.2108 31.1779C43.2108 31.1779 43.2108 31.165 43.2015 31.1567L43.3021 31.1461L43.3009 31.1449Z" fill="#F8F2EA"/>
<path d="M35.8217 17.048L35.8072 17.0424L35.8228 17.0413L35.8217 17.048Z" fill="#2180A3"/>
<path d="M35.6657 17.0876C35.6725 17.0876 35.6805 17.0876 35.6862 17.0876C35.6918 17.0876 35.7111 17.1014 35.6862 17.1082C35.6795 17.1105 35.6723 17.1105 35.6657 17.1082C35.6657 17.1082 35.668 17.0922 35.6657 17.0876Z" fill="#2180A3"/>
<path d="M35.5159 17.1444C35.5283 17.1404 35.541 17.1373 35.5539 17.1351C35.5539 17.1351 35.5643 17.1433 35.5689 17.1479C35.557 17.1526 35.5446 17.1561 35.532 17.1583C35.532 17.1583 35.5217 17.1444 35.5159 17.1444Z" fill="#2180A3"/>
<path d="M42.7101 30.8959C42.6833 30.89 42.6322 30.9052 42.6682 30.8467H42.6624C42.688 30.8537 42.7368 30.8397 42.7043 30.897L42.7101 30.8959Z" fill="#F8F2EA"/>
<path d="M42.8831 17.6371L42.9063 17.5985L42.9225 17.6137C42.909 17.6208 42.8958 17.6286 42.8831 17.6371Z" fill="#F8F2EA"/>
<path d="M29.1606 17.8024L29.2119 17.7566C29.2179 17.7677 29.2253 17.778 29.2341 17.7871C29.2344 17.7934 29.2334 17.7997 29.2312 17.8057C29.229 17.8116 29.2256 17.817 29.2212 17.8215C29.2168 17.826 29.2116 17.8296 29.2058 17.8319C29.1999 17.8343 29.1937 17.8355 29.1874 17.8353C29.1776 17.8251 29.1686 17.8141 29.1606 17.8024Z" fill="#F8F2EA"/>
<path d="M29.3208 17.7577L29.2372 17.7873C29.2284 17.7782 29.2209 17.7678 29.2149 17.7565C29.2294 17.7423 29.2488 17.7344 29.269 17.7344C29.2892 17.7344 29.3086 17.7423 29.3231 17.7565L29.3208 17.7577Z" fill="#F8F2EA"/>
<path d="M29.3202 17.7557L29.2797 17.7184C29.3271 17.6951 29.3017 17.7475 29.3178 17.7568L29.3202 17.7557Z" fill="#F8F2EA"/>
<path d="M37.029 15.2316L37.0417 15.2246V15.2397L37.029 15.2316Z" fill="#F8F2EA"/>
<path d="M41.5252 12.1864C41.5436 12.1864 41.5678 12.1864 41.5551 12.2177C41.5383 12.2167 41.5217 12.2135 41.5056 12.2084L41.5252 12.1864Z" fill="#F8F2EA"/>
<path d="M41.4794 12.1365C41.5085 12.1365 41.526 12.1541 41.5249 12.1858L41.505 12.2082L41.4514 12.1729C41.4594 12.1598 41.4688 12.1476 41.4794 12.1365Z" fill="#F8F2EA"/>
<path d="M33.9474 18.271C34.2552 18.271 34.563 18.271 34.8708 18.271C35.8626 18.2865 36.6398 17.8754 37.2212 17.0734C37.4641 16.7395 37.6776 16.3866 37.8958 16.0361C37.9854 15.8935 38.0503 15.6986 38.2885 15.8127C38.5267 15.9268 38.5904 16.0432 38.4854 16.3308C38.1387 17.2813 37.5927 18.0904 36.6728 18.5669C36.0136 18.9091 35.2978 18.9697 34.5713 18.8604C34.0182 18.7772 33.4686 18.6679 32.9203 18.5823C32.6337 18.5372 32.34 18.4742 32.0747 18.6727C32.0429 18.6976 31.9863 18.7285 31.9485 18.6798C31.9364 18.6591 31.9309 18.6351 31.9325 18.6112C31.9342 18.5872 31.9431 18.5643 31.958 18.5455C31.9971 18.4852 32.0546 18.4393 32.1219 18.4148C32.3324 18.3214 32.5605 18.2748 32.7905 18.2782C33.1774 18.2699 33.5654 18.2782 33.9522 18.2782L33.9474 18.271Z" fill="#080707"/>
<path d="M43.1189 25.3538C43.1119 24.1656 43.7015 23.3018 44.6143 22.6281C45.0212 22.3275 45.4481 22.0542 45.8667 21.769C45.9053 21.7411 45.9468 21.7176 45.9905 21.6989C46.1509 21.636 46.3561 21.5979 46.4552 21.7263C46.5543 21.8546 46.3833 21.9924 46.2866 22.0946C45.849 22.5604 45.3231 22.9156 44.7994 23.2721C44.4031 23.5382 44.0743 23.8943 43.8395 24.3117C43.409 25.0769 43.4102 25.8991 43.6449 26.7178C43.8099 27.2591 43.9162 27.8169 43.9621 28.3812C43.9704 28.5119 43.9857 28.6973 43.8584 28.7104C43.7098 28.7246 43.7168 28.531 43.7098 28.4121C43.6667 27.8161 43.5359 27.2299 43.3218 26.6726C43.1762 26.2488 43.1075 25.8021 43.1189 25.3538Z" fill="#080707"/>
<path d="M34.3661 23.8697C34.3366 24.5981 34.109 25.2706 33.8048 25.9253C33.5276 26.5194 33.2151 27.1039 33.0582 27.7527C32.9297 28.2874 33.1325 28.525 33.6797 28.4656C33.734 28.4597 33.8177 28.3943 33.8448 28.4787C33.872 28.563 33.7741 28.5832 33.7128 28.607C33.4321 28.7127 33.1432 28.8672 32.8648 28.6296C32.5653 28.3741 32.511 28.0248 32.5712 27.6493C32.6809 26.9863 32.9863 26.4005 33.2906 25.816C33.4639 25.5022 33.6213 25.1798 33.7623 24.85C34.0512 24.1252 34.0713 23.4123 33.7281 22.6994C33.6845 22.6091 33.5771 22.4855 33.7281 22.4083C33.879 22.331 33.9463 22.4558 34.0076 22.5592C34.2549 22.9499 34.3799 23.4065 34.3661 23.8697Z" fill="#080707"/>
<path d="M46.5578 20.8767C46.5637 20.9027 46.5642 20.9295 46.5595 20.9557C46.5548 20.9819 46.5448 21.0068 46.5303 21.029C46.5157 21.0512 46.4969 21.0702 46.4749 21.0849C46.4529 21.0995 46.4281 21.1096 46.4022 21.1144C46.2536 21.1547 46.2842 21.0217 46.2571 20.9539C46.1663 20.664 45.9493 20.5024 45.6981 20.3717C45.0035 20.0153 44.2523 19.8965 43.4869 19.8121C42.4184 19.6933 41.6071 19.1253 40.9644 18.2829C40.9455 18.258 40.9278 18.2306 40.9113 18.2045C40.8276 18.0667 40.7745 17.892 40.8924 17.7875C40.9903 17.7019 41.1283 17.829 41.2155 17.9063C41.4679 18.1344 41.7085 18.3815 41.9585 18.6073C42.5718 19.1776 43.3348 19.3392 44.1296 19.439C44.8532 19.5277 45.5441 19.7941 46.1415 20.2149C46.3691 20.3801 46.539 20.5809 46.5578 20.8767Z" fill="#080707"/>
<path d="M43.067 29.5611C42.9068 29.5585 42.7499 29.5151 42.6107 29.4352C42.1291 29.2156 41.6899 28.9118 41.3134 28.5381C40.5834 27.7646 39.673 27.3178 38.6718 27.0303C38.6107 27.0156 38.5508 26.9965 38.4925 26.9733C38.4313 26.9537 38.3789 26.9132 38.3444 26.8586C38.3099 26.8041 38.2956 26.7391 38.3038 26.675C38.3345 26.5217 38.4901 26.5443 38.5986 26.5562C39.6938 26.6646 40.709 27.1821 41.4443 28.007C41.8375 28.4744 42.2987 28.879 42.8123 29.207C42.9609 29.2961 43.1178 29.4316 43.297 29.2415C43.3079 29.2326 43.3205 29.2261 43.334 29.2224C43.3475 29.2188 43.3616 29.218 43.3754 29.2203C43.3892 29.2225 43.4024 29.2277 43.4141 29.2354C43.4258 29.2432 43.4357 29.2533 43.4433 29.2652C43.4786 29.3151 43.4433 29.3591 43.4138 29.3924C43.3751 29.448 43.3229 29.4926 43.2622 29.5222C43.2015 29.5517 43.1343 29.5651 43.067 29.5611Z" fill="#080707"/>
<path d="M35.9512 34.3476C35.9909 34.3476 36.0232 34.2416 36.0232 34.1109C36.0232 33.9802 35.9909 33.8742 35.9512 33.8742C35.9114 33.8742 35.8792 33.9802 35.8792 34.1109C35.8792 34.2416 35.9114 34.3476 35.9512 34.3476Z" fill="#F8F2EA"/>
<path d="M29.4181 37.9085C29.5584 37.7051 29.625 37.5072 29.5668 37.4664C29.5086 37.4256 29.3476 37.5575 29.2073 37.7609C29.0669 37.9643 29.0004 38.1622 29.0586 38.203C29.1168 38.2438 29.2778 38.1119 29.4181 37.9085Z" fill="#F8F2EA"/>
<path d="M29.4636 37.6229C29.4954 37.6229 29.5212 37.6207 29.5212 37.6181C29.5212 37.6155 29.4954 37.6134 29.4636 37.6134C29.4317 37.6134 29.4059 37.6155 29.4059 37.6181C29.4059 37.6207 29.4317 37.6229 29.4636 37.6229Z" fill="#F8F2EA"/>
<path d="M36.8584 41.5C36.9558 41.3301 36.9876 41.1649 36.9296 41.1311C36.8715 41.0973 36.7454 41.2077 36.648 41.3776C36.5507 41.5475 36.5188 41.7127 36.5769 41.7465C36.635 41.7802 36.7611 41.6699 36.8584 41.5Z" fill="#F8F2EA"/>
<path d="M31.9765 25.9062C32.122 25.4267 32.1727 25.0173 32.0898 24.9918C32.007 24.9663 31.8219 25.3343 31.6765 25.8138C31.5311 26.2933 31.4804 26.7026 31.5633 26.7281C31.6461 26.7536 31.8311 26.3856 31.9765 25.9062Z" fill="#F8F2EA"/>
<path d="M32.0449 25.4588C32.0799 25.4588 32.1082 25.4302 32.1082 25.395C32.1082 25.3598 32.0799 25.3312 32.0449 25.3312C32.0099 25.3312 31.9815 25.3598 31.9815 25.395C31.9815 25.4302 32.0099 25.4588 32.0449 25.4588Z" fill="#F8F2EA"/>
<path d="M31.4858 27.3627C31.5713 27.1252 31.6014 26.9183 31.553 26.9007C31.5046 26.883 31.3961 27.0612 31.3107 27.2987C31.2252 27.5362 31.1951 27.7431 31.2435 27.7608C31.2918 27.7785 31.4003 27.6002 31.4858 27.3627Z" fill="#F8F2EA"/>
<path d="M36.161 29.1132H36.1775L37.4276 28.7959V28.7341C37.4276 28.7341 36.1044 29.0074 36.0796 29.0549L36.0549 29.1025L36.161 29.1132Z" fill="#F8F2EA"/>
<path d="M35.8379 16.9237C35.8379 16.9237 35.0772 17.0092 35.1185 17.2171C35.1598 17.4251 35.9876 17.0983 35.5313 17.2932L35.0749 17.488C35.0749 17.488 34.6975 17.6069 35.0477 17.589L35.4015 17.5688C35.4015 17.5688 36.227 17.0472 36.227 16.9581C36.227 16.869 35.8379 16.9237 35.8379 16.9237Z" fill="#F8F2EA"/>
<path d="M42.9939 31.1129C43.7534 31.5964 43.9881 31.5263 43.9881 31.5263C43.9881 31.5263 44.0506 31.518 43.9881 31.4372C43.7381 31.1129 42.9939 31.1129 42.9939 31.1129Z" fill="#F8F2EA"/>
<defs>
<filter id="filter0_d_12127_2" x="0" y="0" width="80" height="79" filterUnits="userSpaceOnUse" color-interpolation-filters="sRGB">
<feFlood flood-opacity="0" result="BackgroundImageFix"/>
<feColorMatrix in="SourceAlpha" type="matrix" values="0 0 0 0 0 0 0 0 0 0 0 0 0 0 0 0 0 0 127 0" result="hardAlpha"/>
<feOffset dx="5" dy="4"/>
<feGaussianBlur stdDeviation="2"/>
<feComposite in2="hardAlpha" operator="out"/>
<feColorMatrix type="matrix" values="0 0 0 0 0 0 0 0 0 0 0 0 0 0 0 0 0 0 0.25 0"/>
<feBlend mode="normal" in2="BackgroundImageFix" result="effect1_dropShadow_12127_2"/>
<feBlend mode="normal" in="SourceGraphic" in2="effect1_dropShadow_12127_2" result="shape"/>
</filter>
</defs>
</svg>
