<svg xmlns="http://www.w3.org/2000/svg" fill="none" viewBox="0 0.02 64.9 64.41">
<g filter="url(#filter0_d_2312_11922)">
<path d="M0 32.2554C0.118689 24.0706 2.86329 16.8641 8.41688 10.7681C12.9432 5.80067 18.545 2.61001 25.0609 0.986946C27.0705 0.486463 29.1131 0.195796 31.1817 0.0788604C35.4593 -0.163697 39.6221 0.392247 43.6589 1.84091C47.7902 3.32364 51.4407 5.58283 54.6272 8.58974C57.339 11.1483 59.4533 14.1365 61.1712 17.4334C62.9402 20.8292 64.0895 24.4041 64.6052 28.1907C64.8365 29.8886 64.9405 31.5939 64.8841 33.3045C64.6233 41.2688 61.8452 48.2394 56.4277 54.1069C51.8377 59.0777 46.1896 62.2717 39.5591 63.7136C37.6574 64.1273 35.7328 64.3865 33.7842 64.4293C25.0729 64.6211 17.3917 61.9108 10.8416 56.183C5.64009 51.6339 2.33959 45.9215 0.795956 39.2034C0.317175 37.1213 0.0603505 35.0084 0.0308458 32.8702C0.0281636 32.6764 0.0120701 32.4833 0.000670561 32.2561L0 32.2554Z" fill="#060000"/>
<path d="M34.1123 61.2351C29.6101 61.3166 25.4111 60.5789 21.3844 58.9371C18.4956 57.7597 15.7966 56.2516 13.4476 54.1815C9.58584 50.7791 6.76211 46.6629 4.98311 41.8392C4.20593 39.733 3.68558 37.5634 3.40864 35.3383C3.13505 33.1452 3.05257 30.9428 3.35365 28.7505C3.75867 25.8024 4.62637 22.9819 5.92324 20.2984C8.48076 15.0063 12.254 10.7779 17.2282 7.64C20.522 5.56257 24.1068 4.17939 27.9491 3.47845C29.8408 3.13299 31.7485 2.97062 33.6704 2.98866C36.6477 3.01672 39.572 3.427 42.3991 4.36381C44.3678 5.01598 46.2011 5.97685 47.9366 7.11012C53.5686 10.7886 57.5631 15.7987 60.0744 22.0003C61.164 24.6912 61.8426 27.4862 62.1142 30.3782C62.2457 31.7747 62.3194 33.1746 62.2014 34.5732C62.0612 36.2343 61.726 37.8641 61.272 39.4684C59.9242 44.2253 57.5437 48.4049 54.1513 52.0059C50.6047 55.7705 46.3654 58.4781 41.4516 60.1132C39.9757 60.6043 38.4361 60.8475 36.8911 61.0333C35.9161 61.1502 34.9371 61.2023 34.1123 61.2357V61.2351Z" fill="#F8F2EA"/>
<path d="M33.7562 57.9946C29.7186 58.0673 25.9528 57.4088 22.3416 55.9433C19.7509 54.8924 17.3303 53.5461 15.2238 51.6983C11.7605 48.6611 9.2281 44.9868 7.63267 40.681C6.93568 38.8009 6.46902 36.8642 6.22065 34.8779C5.97529 32.9203 5.90132 30.9544 6.17134 28.9974C6.53456 26.3658 7.31274 23.8481 8.47579 21.4527C10.7694 16.7287 14.1533 12.9542 18.6143 10.1532C21.5682 8.2988 24.7831 7.06411 28.229 6.43842C29.9254 6.13004 31.6363 5.9851 33.3598 6.00121C36.0299 6.02626 38.6525 6.39249 41.1879 7.22873C42.9535 7.81089 44.5976 8.66861 46.154 9.68021C51.2049 12.9638 54.7872 17.4361 57.0394 22.9719C58.0166 25.3738 58.6252 27.8689 58.8687 30.4504C58.9866 31.697 59.0528 32.9466 58.9469 34.195C58.8212 35.6778 58.5205 37.1326 58.1134 38.5647C56.9047 42.8109 54.7698 46.5418 51.7275 49.7562C48.5468 53.1167 44.745 55.5336 40.3381 56.9931C39.0145 57.4315 37.6338 57.6486 36.2482 57.8144C35.3738 57.9188 34.4958 57.9654 33.7562 57.9952V57.9946Z" fill="#181818"/>
<path d="M9.01489 12.7894C9.69953 11.7617 10.474 10.8021 11.3015 9.88803C11.7608 9.38087 12.3073 8.9599 12.8699 8.49951C11.6522 10.0277 10.3299 11.4089 9.07188 12.8462C9.02226 12.8575 8.99611 12.8462 9.01489 12.7894Z" fill="#F8F2EA"/>
<path d="M51.9695 9.50407C53.4521 10.7075 54.7979 12.0466 55.9929 13.5347C56.0029 13.5834 55.9888 13.6082 55.9345 13.5901C54.6571 12.1842 53.2825 10.8746 51.9065 9.56622C51.8971 9.51543 51.9145 9.49071 51.9688 9.50407H51.9695Z" fill="#F8F2EA"/>
<path d="M64.1602 30.2533C64.3218 31.5028 64.4063 32.7557 64.2836 34.0133C64.238 34.485 64.1656 34.9541 64.1052 35.4245C63.9651 35.359 64.0583 35.2514 64.057 35.1606C64.1314 33.9925 64.1998 32.8245 64.1596 31.6532C64.1441 31.2048 64.124 30.7564 64.1052 30.3081C64.0871 30.254 64.1106 30.2406 64.1602 30.2526V30.2533Z" fill="#F8F2EA"/>
<path d="M36.3241 62.1903C35.6354 62.2792 34.9475 62.3708 34.2581 62.4563C33.6104 62.5371 32.9606 62.6046 32.3135 62.6942C32.1425 62.7182 31.9795 62.6915 31.8132 62.6875C31.7643 62.6862 31.6724 62.7296 31.6838 62.6193C31.6912 62.5492 31.7489 62.5218 31.8179 62.5171C32.0647 62.5011 32.3108 62.4757 32.5582 62.467C33.6707 62.4282 34.7751 62.3013 35.8782 62.1603C36.025 62.1416 36.1732 62.1182 36.3241 62.1897V62.1903Z" fill="#F8F2EA"/>
<path d="M20.3834 5.3425C21.7138 4.5988 23.1682 4.1805 24.6133 3.73882C24.6709 3.71944 24.685 3.7455 24.6749 3.79762C23.2467 4.28808 21.8244 4.79658 20.439 5.3993C20.384 5.41534 20.3706 5.39195 20.3834 5.3425Z" fill="#F8F2EA"/>
<path d="M50.4705 56.5795C51.6325 55.5652 52.8221 54.5803 53.899 53.4697C53.6389 53.9762 51.202 56.1987 50.4705 56.5795Z" fill="#F8F2EA"/>
<path d="M55.6689 10.7041C56.1772 11.0763 58.1292 13.3602 58.4015 13.8794C57.4198 12.8824 56.648 11.7051 55.6689 10.7041Z" fill="#F8F2EA"/>
<path d="M50.6267 7.61312C49.9226 7.20552 49.2192 6.79725 48.5151 6.38965C49.291 6.6723 50.1117 6.87543 50.6267 7.61312Z" fill="#F8F2EA"/>
<path d="M8.85389 14.478C9.33603 13.7864 9.88052 13.1422 10.421 12.4961C10.4585 12.4507 10.4907 12.3437 10.5799 12.4106C10.6785 12.4847 10.5913 12.5442 10.5417 12.603C9.99787 13.2471 9.45405 13.892 8.91089 14.5368C8.86328 14.5448 8.83646 14.5321 8.85456 14.478H8.85389Z" fill="#F8F2EA"/>
<path d="M63.755 37.9862C63.6148 38.915 63.3976 39.8257 63.1032 40.7185C63.0871 40.7378 63.0704 40.7385 63.0522 40.7205C63.2876 39.7562 63.527 38.7934 63.6967 37.8145C63.8234 37.8352 63.7516 37.9234 63.755 37.9855V37.9862Z" fill="#F8F2EA"/>
<path d="M55.9355 13.5901C55.955 13.5714 55.9744 13.5534 55.9939 13.5347C56.6443 14.279 57.2116 15.0842 57.7501 15.9108C57.7682 15.9629 57.7434 15.9716 57.6991 15.9609C57.156 15.1377 56.5397 14.3686 55.9355 13.5901Z" fill="#F8F2EA"/>
<path d="M63.7549 37.9858C63.7287 37.931 63.7663 37.8542 63.6965 37.8147C63.8166 36.93 63.9366 36.0453 64.0566 35.1606C64.0902 35.2455 64.0385 35.3457 64.1049 35.4246C63.9882 36.2785 63.8715 37.1318 63.7555 37.9858H63.7549Z" fill="#F8F2EA"/>
<path d="M62.7916 41.7289C62.6454 42.4646 62.3349 43.1448 62.0761 43.8424C62.0305 43.9654 61.9775 44.0856 61.9279 44.2072C61.8836 44.2133 61.8521 44.2086 61.8816 44.1525C62.1827 43.3339 62.4992 42.52 62.75 41.6841C62.7701 41.6768 62.7902 41.6701 62.8036 41.6935C62.809 41.7028 62.8016 41.7162 62.7922 41.7289H62.7916Z" fill="#F8F2EA"/>
<path d="M63.2522 23.9453C63.4996 24.7117 63.7377 25.4808 63.7625 26.2934C63.5922 25.5109 63.4225 24.7284 63.2522 23.9453Z" fill="#F8F2EA"/>
<path d="M31.1033 2.37722C31.6826 2.32109 32.2593 2.23021 32.8413 2.21484C32.844 2.24692 32.8474 2.27832 32.8501 2.3104C32.2861 2.35182 31.7222 2.39325 31.1576 2.43468C31.1039 2.44871 31.0885 2.42666 31.1026 2.37655L31.1033 2.37722Z" fill="#F8F2EA"/>
<path d="M2.39308 32.2227V33.8016C2.36491 33.8016 2.33675 33.8003 2.30858 33.7996C2.18922 33.2316 2.39844 32.6744 2.39308 32.2227Z" fill="#F8F2EA"/>
<path d="M4.04364 22.5779C3.93769 22.8653 3.82906 23.1526 3.72646 23.4413C3.69964 23.5168 3.66745 23.5776 3.57894 23.5421C3.46494 23.496 3.55144 23.4306 3.57692 23.3784C3.70768 23.1098 3.8418 22.8439 3.97524 22.5766C3.99871 22.5545 4.02151 22.5552 4.04431 22.5786L4.04364 22.5779Z" fill="#F8F2EA"/>
<path d="M26.1022 2.94332C25.5872 3.07095 25.0729 3.19858 24.5579 3.32687C25.0226 3.06828 25.5349 2.97874 26.0472 2.88786C26.0995 2.87316 26.1149 2.89454 26.1022 2.94399V2.94332Z" fill="#F8F2EA"/>
<path d="M3.5594 40.5116C3.31263 40.0158 3.24289 39.4705 3.17114 38.9253C3.30056 39.4538 3.42998 39.9831 3.5594 40.5116Z" fill="#F8F2EA"/>
<path d="M8.85374 14.478C8.87252 14.4974 8.89129 14.5175 8.91007 14.5368C8.6747 14.8596 8.43933 15.183 8.20397 15.5057C8.18385 15.4924 8.1644 15.479 8.14429 15.4656C8.37161 15.1309 8.58753 14.7881 8.85374 14.478Z" fill="#F8F2EA"/>
<path d="M13.1343 55.4014C13.4494 55.6506 13.7646 55.8998 14.0798 56.1491C13.5869 55.9226 13.2818 55.68 13.1343 55.4014Z" fill="#F8F2EA"/>
<path d="M37.6716 1.9095C37.3135 1.88277 36.9548 1.85537 36.5706 1.82664C36.9655 1.62083 37.3169 1.86272 37.6783 1.84401C37.6756 1.86539 37.6736 1.88744 37.6709 1.90883L37.6716 1.9095Z" fill="#F8F2EA"/>
<path d="M44.241 4.58301C44.6547 4.6358 45.0135 4.79416 45.34 5.03204C44.9739 4.88236 44.6071 4.73268 44.241 4.58301Z" fill="#F8F2EA"/>
<path d="M24.6752 3.79748C24.6544 3.7781 24.6343 3.75806 24.6135 3.73868C24.9139 3.60103 25.2351 3.54156 25.551 3.46338C25.5577 3.48476 25.5644 3.50614 25.5711 3.52753C25.272 3.61773 24.9736 3.70727 24.6745 3.79748H24.6752Z" fill="#F8F2EA"/>
<path d="M39.4888 61.9337C39.7443 61.8582 39.9997 61.782 40.2552 61.7065C40.103 61.9698 39.8227 61.9097 39.5994 61.9912C39.5444 62.0059 39.4821 62.036 39.4888 61.9337Z" fill="#F8F2EA"/>
<path d="M34.542 63.0623C34.9517 63.055 35.3561 62.9394 35.7698 63.0169C35.3601 63.0242 34.9571 63.1572 34.542 63.0623Z" fill="#F8F2EA"/>
<path d="M12.2131 53.7852C12.4458 54.003 12.6792 54.2215 12.9119 54.4393C12.8971 54.4547 12.8817 54.4707 12.8669 54.4861C12.6094 54.293 12.3841 54.0671 12.2131 53.7852Z" fill="#F8F2EA"/>
<path d="M13.6158 55.124C13.3684 54.955 13.1444 54.7605 12.9553 54.5273C13.2142 54.6817 13.4401 54.8755 13.6534 55.0853C13.6587 55.1147 13.646 55.1281 13.6158 55.124Z" fill="#F8F2EA"/>
<path d="M4.91203 44.9167C4.74841 44.6501 4.64112 44.3621 4.59888 44.0474C4.7169 44.3253 4.83491 44.604 4.95293 44.8819C4.95293 44.9093 4.93952 44.9207 4.9127 44.9174L4.91203 44.9167Z" fill="#F8F2EA"/>
<path d="M51.97 9.50426C51.9492 9.52497 51.9284 9.54568 51.9076 9.5664C51.7474 9.42073 51.5871 9.27506 51.4275 9.12939C51.6494 9.20223 51.8204 9.33921 51.9706 9.50426H51.97Z" fill="#F8F2EA"/>
<path d="M57.6992 15.9608C57.716 15.9441 57.7334 15.9273 57.7502 15.9106C57.9252 16.1044 58.0452 16.3303 58.129 16.5815C57.9855 16.3744 57.8427 16.1672 57.6992 15.9608Z" fill="#F8F2EA"/>
<path d="M26.1023 2.94388C26.0842 2.92517 26.0655 2.90646 26.0474 2.88775C26.3069 2.80222 26.5704 2.73674 26.8453 2.7334C26.8514 2.74008 26.8567 2.74743 26.8628 2.75411C26.6194 2.85835 26.3578 2.88775 26.1023 2.94321V2.94388Z" fill="#F8F2EA"/>
<path d="M17.5024 57.7979C17.6942 57.9094 17.8867 58.021 18.0785 58.132C17.8458 58.0945 17.65 57.9863 17.5024 57.7979Z" fill="#F8F2EA"/>
<path d="M39.4888 61.9336C39.5022 61.9977 39.5626 61.9717 39.5994 61.9911C39.3701 62.0445 39.1414 62.0986 38.9121 62.1521C39.0878 62.0251 39.2863 61.973 39.4888 61.9336Z" fill="#F8F2EA"/>
<path d="M64.16 30.2529C64.1419 30.2716 64.1238 30.2897 64.105 30.3084C64.0339 30.1139 64.0534 29.9155 64.1016 29.7144L64.16 30.2529Z" fill="#F8F2EA"/>
<path d="M14.4318 55.7622C14.2548 55.6573 14.0865 55.5411 13.9456 55.39C13.9443 55.364 13.9577 55.3546 13.9825 55.3606C14.1582 55.4368 14.2829 55.5805 14.4305 55.6941C14.4539 55.7161 14.4546 55.7388 14.4318 55.7622Z" fill="#F8F2EA"/>
<path d="M20.3835 5.34247C20.4022 5.36117 20.4203 5.38055 20.4391 5.39926C20.2976 5.49749 20.1407 5.55896 19.9697 5.58569C20.0911 5.4741 20.2279 5.39258 20.3828 5.3418L20.3835 5.34247Z" fill="#F8F2EA"/>
<path d="M31.1033 2.37695C31.1214 2.39633 31.1402 2.41571 31.1583 2.43509C30.982 2.52463 30.7982 2.48119 30.6118 2.43976C30.7754 2.41905 30.9397 2.39767 31.1033 2.37695Z" fill="#F8F2EA"/>
<path d="M4.04343 22.5782C4.02063 22.5782 3.99716 22.5769 3.97437 22.5762C4.04209 22.4272 4.10982 22.2782 4.17755 22.1299C4.17285 22.2956 4.14603 22.4506 4.04343 22.5782Z" fill="#F8F2EA"/>
<path d="M5.17236 19.7028C5.2535 19.5378 5.33464 19.3721 5.41578 19.207C5.43589 19.2164 5.45668 19.2257 5.4768 19.2351C5.39968 19.4021 5.3514 19.5826 5.17236 19.7028Z" fill="#F8F2EA"/>
<path d="M62.3216 24.6371C62.282 24.4795 62.2424 24.3218 62.2029 24.1641C62.3189 24.281 62.3685 24.42 62.3705 24.575C62.396 24.6285 62.3705 24.6425 62.3209 24.6371H62.3216Z" fill="#F8F2EA"/>
<path d="M61.8814 44.1523C61.8968 44.1704 61.9122 44.1891 61.9276 44.2071C61.878 44.3468 61.8223 44.4831 61.6882 44.6314C61.7379 44.4337 61.7975 44.2887 61.8814 44.1523Z" fill="#F8F2EA"/>
<path d="M9.01496 12.7896C9.03374 12.8083 9.05318 12.8276 9.07196 12.8463C9.00826 12.9907 8.89292 13.0929 8.7749 13.1958C8.82251 13.0408 8.89896 12.9038 9.01496 12.7896Z" fill="#F8F2EA"/>
<path d="M4.9521 44.8818C5.03659 45.0288 5.11639 45.1765 5.13382 45.3516C5.0319 45.2206 4.94875 45.081 4.91187 44.9172C4.92528 44.9052 4.93869 44.8939 4.9521 44.8818Z" fill="#F8F2EA"/>
<path d="M14.432 55.762C14.432 55.7393 14.4313 55.7166 14.4307 55.6938C14.5634 55.77 14.6848 55.8602 14.7767 55.9899C14.6486 55.9344 14.5198 55.8809 14.432 55.7627V55.762Z" fill="#F8F2EA"/>
<path d="M61.8941 22.8894C61.7908 22.7765 61.7137 22.6542 61.7412 22.4424C61.8049 22.6288 61.8498 22.7591 61.8941 22.8894Z" fill="#F8F2EA"/>
<path d="M62.321 24.6378C62.3378 24.6171 62.3539 24.5964 62.3707 24.5757C62.4377 24.7 62.4572 24.8343 62.4364 24.9786C62.3982 24.865 62.3593 24.7514 62.321 24.6378Z" fill="#F8F2EA"/>
<path d="M63.0525 40.7203C63.0699 40.7276 63.0867 40.7263 63.1034 40.7183C63.0652 40.8399 63.027 40.9622 62.966 41.1566C62.9445 40.9461 62.9794 40.8292 63.0525 40.7209V40.7203Z" fill="#F8F2EA"/>
<path d="M26.845 2.73404C26.9844 2.66388 27.1306 2.63314 27.3419 2.65787C27.1467 2.69729 27.0133 2.76478 26.8624 2.75476C26.8564 2.74807 26.851 2.74072 26.845 2.73404Z" fill="#F8F2EA"/>
<path d="M13.9456 55.3901C13.8357 55.3013 13.7257 55.2131 13.6157 55.1242C13.6285 55.1115 13.6405 55.0981 13.6533 55.0854C13.7787 55.159 13.8893 55.2498 13.9825 55.3607C13.9664 55.3654 13.9544 55.3754 13.9456 55.3901Z" fill="#F8F2EA"/>
<path d="M62.792 41.7285C62.7779 41.7138 62.7638 41.6985 62.7498 41.6838C62.7833 41.5675 62.8168 41.4512 62.8503 41.335C62.8684 41.4739 62.8738 41.6096 62.7913 41.7285H62.792Z" fill="#F8F2EA"/>
</g>
<path d="M37.0683 35.8291C36.6632 35.7958 36.3123 35.4159 36.2227 34.9322C36.1369 34.4696 36.3212 34.1149 36.6238 33.7985C36.8593 33.5475 37.1383 33.346 37.3226 33.0376C37.8186 32.2133 38.2041 31.3246 38.4688 30.3953C38.5989 29.9298 38.795 29.4884 38.9399 29.0319C39.0948 28.5359 39.158 28.0147 39.1262 27.4951C39.1014 26.7747 39.0063 26.0587 38.8424 25.3576C38.6935 24.7661 38.4254 24.2199 38.1662 23.6697C37.8085 22.9068 37.2634 22.3112 36.6672 21.7469C36.1527 21.2602 35.5426 20.9659 34.902 20.7019C33.8011 20.2474 32.7139 20.3391 31.6052 20.6787C30.8256 20.9175 30.1918 21.371 29.6074 21.9192C28.2798 23.1658 27.6184 24.748 27.3789 26.5478C27.2607 27.4406 27.2163 28.3305 27.3789 29.2213C27.4006 29.3382 27.4351 29.4531 27.4647 29.568C27.7355 30.5543 28.2101 31.4697 28.8563 32.2526C29.1969 32.6981 29.5639 33.1218 29.9553 33.5213C30.1115 33.664 30.2343 33.8408 30.3145 34.0386C30.3947 34.2365 30.4302 34.4503 30.4185 34.6641C30.3988 35.0017 30.2125 35.2466 29.9898 35.4753C29.8912 35.5761 29.7266 35.5973 29.6941 35.7615C29.4645 35.7454 29.2358 35.7142 29.0042 35.7162C27.92 35.7293 26.8477 35.822 25.7655 35.8109C24.7139 35.8008 23.6633 35.8996 22.6116 35.9117C21.3304 35.9278 20.0412 35.9903 18.757 36.0437C17.6571 36.0891 16.5562 36.0528 15.4572 36.1082C15.3271 36.1153 15.197 36.1142 15.063 36.1163C14.7719 36.0819 14.4936 35.9746 14.2528 35.8039C13.8044 35.5015 13.6349 35.0571 13.6299 34.526C13.625 33.9758 13.9039 33.5737 14.2765 33.2241C14.4736 33.0346 14.7338 32.9913 14.9989 32.9721C15.9766 32.8986 16.9583 32.9469 17.937 32.8764C18.5283 32.8341 19.1197 32.7756 19.7041 32.7897C20.7538 32.8089 21.7985 32.6799 22.8452 32.7081C23.5568 32.7272 24.2655 32.6658 25.0135 32.7131C24.8253 32.4249 24.6498 32.1689 24.4882 31.9069C23.8047 30.812 23.3298 29.5947 23.0887 28.3194C22.8915 27.2471 22.793 26.1497 22.9448 25.0573C23.1754 23.4369 23.6721 21.9061 24.5848 20.5477C25.0352 19.8786 25.5339 19.2376 26.1479 18.7156C26.762 18.1936 27.3661 17.6837 28.0817 17.3381C28.8701 16.9551 29.6744 16.5722 30.5456 16.4059C31.5066 16.2205 32.4725 16.0088 33.4581 16.0854C34.897 16.1953 36.2966 16.4885 37.5975 17.1567C38.2213 17.4793 38.8134 17.8623 39.3657 18.3004C40.0724 18.8587 40.7307 19.4795 41.2511 20.2242C41.6552 20.8037 42.0711 21.3851 42.3589 22.0381C42.7729 22.9804 43.1238 23.9529 43.2341 24.9818C43.3564 26.1245 43.4175 27.2814 43.1878 28.4171C42.9483 29.5972 42.626 30.7581 42.0514 31.8243C41.8564 32.1941 41.6326 32.5473 41.3822 32.8804C41.8425 32.8542 42.2692 32.7988 42.6921 32.8139C43.6451 32.8482 44.5943 32.7494 45.5454 32.7524C46.7507 32.7575 47.9591 32.7172 49.1625 32.7776C50.1481 32.827 51.1337 32.8089 52.1192 32.8855C52.2878 32.893 52.4529 32.9365 52.6039 33.0132C52.755 33.0899 52.8887 33.1981 52.9964 33.3309C53.8135 34.3386 53.573 35.2718 52.6111 35.9671C52.4474 36.085 52.2533 36.0155 52.0739 36.0346C52.1429 35.8039 51.9753 35.8331 51.8512 35.8331C50.8242 35.8089 49.7982 35.8482 48.7702 35.7908C47.6693 35.7303 46.5664 35.8059 45.4635 35.7545C44.3212 35.7001 43.178 35.7686 42.0337 35.7474C40.7692 35.7232 39.5027 35.7807 38.2372 35.7746C37.8468 35.7569 37.4555 35.7751 37.0683 35.8291ZM26.9068 24.0012C27.0069 23.6819 27.1332 23.3717 27.2843 23.0741C27.6786 22.3264 28.1162 21.6139 28.7371 21.0304C29.3284 20.4802 29.9247 19.9672 30.6807 19.6599C31.5539 19.3062 32.4252 19.022 33.3881 19.1127C34.1155 19.1822 34.831 19.2739 35.5101 19.5692C36.2759 19.9038 36.9885 20.3109 37.5926 20.9175C38.2126 21.5393 38.7753 22.1974 39.1548 23.0026C39.4426 23.6132 39.7787 24.2048 39.8063 24.9173C39.8112 25.0442 39.8309 25.1793 39.8477 25.3093C39.9994 26.4531 40.1078 27.5797 39.8545 28.7446C39.5437 30.2382 38.9725 31.6623 38.1682 32.9489C37.8232 33.4951 37.3797 33.9708 37.0762 34.5412C37.0253 34.6234 37.0008 34.7199 37.0061 34.8171C37.0114 34.9143 37.0462 35.0073 37.1057 35.0833C37.3462 35.4501 37.7296 35.5318 38.1032 35.5167C38.6866 35.4945 39.2642 35.562 39.8447 35.56C40.6588 35.56 41.4719 35.5277 42.287 35.5983C42.7798 35.6416 43.2726 35.6053 43.7654 35.5983C44.4622 35.5882 45.159 35.5882 45.8558 35.6134C46.3082 35.6305 46.7616 35.6074 47.213 35.5922C47.8832 35.5681 48.5534 35.6043 49.2226 35.5922C50.0939 35.5808 50.9648 35.5647 51.8354 35.5439C52.2543 35.5338 52.5726 35.428 52.8437 35.1065C53.2556 34.6178 53.2014 33.8337 52.7057 33.4387C52.4297 33.219 52.0946 33.1656 51.7595 33.1475C51.0144 33.1061 50.2693 33.1475 49.5222 33.1041C48.3878 33.0406 47.2504 33.1041 46.1131 33.0648C45.1403 33.0275 44.1636 33.087 43.1898 33.0648C42.6694 33.0497 42.149 33.0517 41.6296 33.0437C41.4325 33.0437 41.2304 33.0437 40.989 33.0437C41.3355 32.5955 41.6447 32.1186 41.9135 31.6177C42.4191 30.7108 42.7069 29.7131 42.9247 28.7023C43.175 27.5404 43.0774 26.3624 42.9069 25.1974C42.7818 24.3358 42.4486 23.5306 42.1027 22.7426C41.7339 21.9434 41.2554 21.2023 40.6815 20.5417C39.9127 19.6226 38.9478 18.9444 37.9533 18.3004C36.8199 17.5688 35.5751 17.1919 34.2692 17.0287C33.2274 16.8957 32.1886 17.0851 31.1567 17.2081C30.3121 17.3088 29.5147 17.6404 28.7391 17.988C27.9634 18.3357 27.2922 18.889 26.6555 19.4624C26.0957 19.9662 25.6571 20.582 25.252 21.2148C24.6607 22.1359 24.3226 23.1749 24.0092 24.2189C23.8673 24.6915 23.8811 25.1893 23.8121 25.6751C23.6826 26.5928 23.7454 27.5282 23.9964 28.4192C24.1511 28.9633 24.3118 29.5055 24.4843 30.0456C24.6373 30.5228 24.8443 30.9801 25.1012 31.4081C25.4097 31.9241 25.6847 32.4612 26.0592 32.9368C26.0307 32.953 26.0198 32.9661 26.009 32.9661C25.0855 32.9933 24.1699 33.1243 23.2404 33.081C22.175 33.0316 21.1106 33.1908 20.0402 33.1364C18.9561 33.082 17.8719 33.1918 16.7779 33.1575C16.1757 33.1394 15.5716 33.1968 14.9684 33.2261C14.4756 33.2503 13.9266 33.7602 13.9276 34.2187C13.9276 34.8989 14.3967 35.6174 15.1783 35.6557C15.4976 35.6719 15.8209 35.693 16.1383 35.693C17.2392 35.693 18.3391 35.6325 19.443 35.6567C20.5784 35.6809 21.7098 35.5388 22.8521 35.5741C23.8978 35.6053 24.9426 35.4592 25.9922 35.4864C27.0103 35.5136 28.0294 35.3857 29.0475 35.4864C29.1229 35.4915 29.1985 35.4801 29.2693 35.4532C29.4335 35.4027 29.5852 35.3168 29.7141 35.2012C29.843 35.0855 29.9461 34.9429 30.0164 34.783C30.1386 34.519 30.1278 34.2953 29.9444 34.0877C29.4408 33.5193 28.8997 32.9872 28.466 32.3554C28.0541 31.7608 27.6529 31.1703 27.3819 30.485C27.1473 29.8804 26.9423 29.2626 26.7462 28.6439L26.7078 28.5834C26.6713 28.6157 26.6841 28.6469 26.7078 28.6791C26.7247 29.2403 26.8416 29.7935 27.0527 30.3117C27.098 30.4286 27.0961 30.4296 27.0399 30.5495C26.1785 28.7527 26.2219 26.8813 26.6072 24.9838C26.6183 25.0015 26.6257 25.0214 26.6289 25.0422C26.6321 25.063 26.6311 25.0843 26.6259 25.1047C26.4644 25.9462 26.4534 26.8107 26.5934 27.6563C26.6082 27.7571 26.6013 27.9304 26.692 27.9113C26.7827 27.8921 26.7186 27.7268 26.7078 27.6311C26.5648 26.3493 26.7137 25.1188 27.2942 23.9569C27.8008 22.9411 28.4404 22.0422 29.3511 21.3559C29.9326 20.9206 30.5338 20.5255 31.2237 20.2937C32.228 19.9592 33.2353 19.7969 34.2919 20.0196C35.3267 20.2383 36.2946 20.586 37.1195 21.2854C37.7375 21.8114 38.3082 22.3727 38.6856 23.1174C38.8905 23.4897 39.0671 23.8775 39.2139 24.2773C39.3529 24.6996 39.4948 25.1208 39.5007 25.5783C39.5159 25.8511 39.5471 26.1227 39.5944 26.3916C39.6032 26.451 39.6239 26.5286 39.7057 26.5145C39.7875 26.5004 39.7491 26.4228 39.753 26.3734C39.7812 25.9569 39.7634 25.5383 39.6998 25.1259C39.5697 24.1927 39.1883 23.3432 38.73 22.537C38.3466 21.8638 37.7996 21.3196 37.1964 20.8551C36.0916 20.0045 34.8123 19.6186 33.4443 19.545C32.4912 19.4936 31.5835 19.7617 30.6974 20.0791C29.8991 20.3653 29.219 20.8752 28.605 21.4537C27.8717 22.1568 27.3102 23.0263 26.966 23.9922L26.9068 24.0012ZM39.6998 27.4003C39.6998 27.2532 39.6998 27.1061 39.6998 26.9589C39.6998 26.9085 39.6821 26.8582 39.621 26.8582C39.5599 26.8582 39.5786 26.9176 39.5776 26.9589C39.5536 27.7531 39.4106 28.5389 39.1538 29.2888C38.7144 30.6293 38.1268 31.9141 37.4024 33.1182C37.1707 33.4808 36.9166 33.8279 36.6415 34.1572C36.6231 34.1755 36.6086 34.1975 36.599 34.2219C36.5893 34.2462 36.5847 34.2723 36.5854 34.2986C36.5862 34.3248 36.5922 34.3506 36.6033 34.3743C36.6143 34.3981 36.63 34.4192 36.6494 34.4364C36.7283 34.5079 36.7943 34.4132 36.8465 34.3507C37.0131 34.1562 37.1905 33.9708 37.3393 33.7652C38.4688 32.2274 39.1568 30.487 39.5796 28.6257C39.6646 28.2232 39.7049 27.8121 39.6998 27.4003Z" fill="#F8F2EA"/>
<path d="M14.8265 44.848C14.4767 44.7019 14.1228 44.5649 13.9297 44.193C13.3797 43.1399 13.9454 41.9377 14.9744 41.6958C15.3144 41.6152 15.683 41.6596 16.0388 41.6505C16.7287 41.6334 17.4118 41.583 18.0958 41.6122C18.9828 41.6515 19.8619 41.5779 20.744 41.5941C22.0194 41.6182 23.2938 41.5537 24.5681 41.5749C25.6444 41.592 26.7197 41.5165 27.795 41.5497C28.9195 41.584 30.0421 41.4903 31.1637 41.5245C32.2134 41.5578 33.2591 41.4631 34.3048 41.4973C35.4303 41.5346 36.5529 41.4348 37.6755 41.4691C38.7459 41.5024 39.8152 41.4066 40.8836 41.4399C41.7706 41.4671 42.6626 41.4066 43.5526 41.4157C44.7353 41.4288 45.9229 41.3784 47.1076 41.3865C48.2923 41.3945 49.4809 41.332 50.6656 41.3663C51.1584 41.3804 51.6827 41.2857 52.1657 41.5185C52.3502 41.5936 52.5245 41.6929 52.6841 41.8137C53.2863 42.3247 53.3898 43.3002 52.9798 43.9804C52.7156 44.4127 52.3372 44.5608 51.8956 44.6495C51.7113 44.5941 51.5329 44.6757 51.3506 44.6707C51.0362 44.6626 50.7237 44.6354 50.4113 44.6163C49.3272 44.5498 48.2371 44.6163 47.148 44.5699C46.0353 44.5185 44.9196 44.6042 43.8029 44.5508C42.7375 44.5004 41.6691 44.5669 40.6007 44.5377C39.35 44.5044 38.0973 44.5729 36.8456 44.5236C36.7086 44.5185 36.5716 44.5336 36.4346 44.5336C35.5654 44.5286 34.6961 44.5336 33.8268 44.5266C32.6293 44.5135 31.4308 44.5568 30.2323 44.5356C29.296 44.5185 28.3597 44.5608 27.4224 44.5508C26.0889 44.5367 24.7544 44.5921 23.4199 44.582C22.524 44.576 21.6301 44.6334 20.7342 44.6042C19.7368 44.5729 18.7393 44.6626 17.74 44.6364C16.8293 44.6132 15.9176 44.6787 15.0059 44.6979C14.8906 44.7009 14.8423 44.7442 14.8265 44.848ZM42.0772 44.2837C42.6912 44.2726 43.3042 44.2263 43.9202 44.2525C44.9728 44.2988 46.0254 44.2011 47.081 44.2454C48.1868 44.2928 49.2946 44.1739 50.4044 44.2454C50.9658 44.2709 51.528 44.2652 52.0888 44.2283C52.417 44.2122 52.618 44.0318 52.7787 43.7708C53.03 43.3505 52.9807 42.8991 52.8329 42.4728C52.7274 42.1705 52.5116 41.8954 52.1578 41.8682C51.804 41.841 51.4511 41.8389 51.0983 41.8299C50.0141 41.8027 48.9388 41.8762 47.8576 41.8238C46.7765 41.7714 45.6893 41.8752 44.5953 41.8238C43.5013 41.7724 42.4103 41.8772 41.3143 41.8299C40.2183 41.7825 39.0967 41.8732 37.986 41.8178C36.9018 41.7634 35.8117 41.841 34.7237 41.7896C33.609 41.7382 32.4933 41.8329 31.3727 41.7896C30.2786 41.7472 29.1837 41.849 28.0867 41.8168C27.042 41.7865 25.9992 41.8964 24.9515 41.8722C23.8851 41.847 22.8197 41.9659 21.7503 41.9306C20.6356 41.8944 19.5199 42.0052 18.3993 41.9568C17.7764 41.9296 17.1516 41.9881 16.5267 41.9921C16.1108 41.9921 15.6968 42.0546 15.2789 41.9921C14.861 41.9296 14.5141 42.0062 14.317 42.4375C14.1081 42.8809 14.1642 43.3334 14.3357 43.7567C14.5328 44.2474 14.9754 44.4026 15.4613 44.4218C16.2261 44.452 16.9899 44.3845 17.7567 44.4218C18.8773 44.4722 19.9989 44.3774 21.1225 44.4117C22.2461 44.446 23.3894 44.3583 24.5287 44.3936C25.5547 44.4238 26.5797 44.3371 27.6077 44.3734C28.6593 44.4107 29.7139 44.3129 30.7685 44.3472C31.8694 44.3845 32.9683 44.2867 34.0722 44.321C35.176 44.3553 36.2878 44.2585 37.3976 44.2958C38.4561 44.3321 39.5156 44.2162 40.5771 44.2817C41.0738 44.3099 41.5765 44.2837 42.0772 44.2837Z" fill="#F8F2EA"/>
<path d="M14.8264 44.848C14.8422 44.7472 14.8905 44.7008 15.0038 44.6978C15.9155 44.6787 16.8272 44.6132 17.7379 44.6364C18.7372 44.6626 19.7347 44.5729 20.7321 44.6041C21.628 44.6333 22.5219 44.5759 23.4178 44.5819C24.7523 44.592 26.0868 44.5366 27.4203 44.5507C28.3576 44.5608 29.2929 44.5185 30.2302 44.5356C31.4287 44.5567 32.6272 44.5134 33.8247 44.5265C34.694 44.5366 35.5633 44.5265 36.4325 44.5336C36.5695 44.5336 36.7065 44.5185 36.8435 44.5235C38.0952 44.5729 39.3479 44.5043 40.5986 44.5376C41.667 44.5668 42.7354 44.5003 43.8008 44.5507C44.9175 44.6041 46.0332 44.5184 47.1459 44.5698C48.235 44.6192 49.3231 44.5497 50.4092 44.6162C50.7216 44.6353 51.0341 44.6626 51.3485 44.6706C51.5308 44.6757 51.7092 44.594 51.8935 44.6495C51.9034 44.7341 52.0394 44.7875 51.9635 44.8873C51.9319 44.9339 51.8892 44.9714 51.8392 44.9962C51.7893 45.0209 51.734 45.032 51.6786 45.0284C50.8172 44.9477 49.9548 45.0132 49.0925 45.0092C47.8112 45.0022 46.5299 45.0233 45.2487 44.9971C43.9191 44.9699 42.5876 45.0243 41.2619 44.9881C40.1719 44.9578 39.0828 45.0384 37.9957 44.9881C36.9086 44.9377 35.8156 45.0304 34.7285 44.9881C33.6413 44.9457 32.5749 45.0344 31.5006 44.9881C30.3958 44.9417 29.2929 45.0364 28.192 44.9881C27.0911 44.9397 25.9981 45.0264 24.9041 44.983C23.9717 44.9457 23.0403 44.9891 22.1089 44.9689C20.8553 44.9417 19.5996 44.9951 18.3469 44.9558C17.25 44.9215 16.156 44.983 15.06 44.9508C14.9703 44.9508 14.855 44.9931 14.8264 44.848Z" fill="#030202"/>
<path d="M37.0684 35.8289C37.4554 35.776 37.8463 35.7588 38.2363 35.7775C39.5018 35.7836 40.7683 35.7261 42.0328 35.7503C43.1771 35.7715 44.3203 35.7029 45.4626 35.7574C46.5655 35.8088 47.6684 35.7332 48.7693 35.7936C49.7973 35.8511 50.8233 35.8118 51.8503 35.836C51.9725 35.836 52.1459 35.8067 52.073 36.0375C52.0438 36.0674 52.0082 36.09 51.9691 36.1035C51.9299 36.1169 51.8882 36.1209 51.8473 36.1151C51.0519 36.1272 50.2546 36.1776 49.4612 36.1443C48.515 36.105 47.5698 36.1534 46.6247 36.1272C45.8677 36.1057 45.1105 36.0923 44.3529 36.0869C43.8256 36.0869 43.2924 36.1504 42.771 36.095C42.0229 36.0143 41.2778 36.0536 40.5317 36.0426C39.6398 36.0295 38.7508 35.971 37.8618 35.9186C37.6699 35.9077 37.4775 35.9114 37.2862 35.9297C37.2083 35.9367 37.0841 35.9891 37.0684 35.8289Z" fill="#030202"/>
<path d="M15.0699 36.1213C15.2 36.1213 15.3301 36.1213 15.4641 36.1132C16.563 36.0578 17.664 36.0941 18.7639 36.0487C20.0451 35.9953 21.3333 35.9328 22.6185 35.9167C23.6721 35.9036 24.7228 35.8048 25.7724 35.8159C26.8566 35.827 27.9309 35.7343 29.0111 35.7212C29.2397 35.7212 29.4684 35.7504 29.701 35.7665C29.7394 35.962 29.6685 36.0608 29.493 36.0689C28.5882 36.0971 27.6825 36.1606 26.7787 36.1485C25.5782 36.1323 24.3808 36.2321 23.1823 36.2079C22.1454 36.1868 21.1125 36.2805 20.0777 36.2513C18.959 36.219 17.8423 36.3188 16.7267 36.2865C16.1915 36.2704 15.6593 36.3087 15.1261 36.2865C15.0748 36.2865 15.0048 36.3178 14.9772 36.2533C14.9319 36.1616 15.064 36.1868 15.0699 36.1213Z" fill="#030202"/>
<path d="M26.7532 28.6509C26.9503 29.2697 27.1543 29.8854 27.3889 30.492C27.655 31.1773 28.0561 31.7678 28.473 32.3624C28.9096 32.9943 29.4507 33.5263 29.9514 34.0947C30.1347 34.3023 30.1485 34.526 30.0234 34.79C29.9531 34.95 29.85 35.0926 29.7211 35.2082C29.5922 35.3238 29.4405 35.4097 29.2763 35.4602C29.2055 35.4872 29.1299 35.4985 29.0545 35.4934C28.0354 35.3927 27.0163 35.5166 25.9992 35.4934C24.9495 35.4662 23.9048 35.6124 22.8591 35.5811C21.7188 35.5458 20.5853 35.6879 19.4499 35.6638C18.3461 35.6396 17.2462 35.697 16.1453 35.7C15.8279 35.7 15.5046 35.6789 15.1853 35.6627C14.4037 35.6245 13.9375 34.9059 13.9346 34.2257C13.9346 33.7672 14.4796 33.2573 14.9754 33.2331C15.5785 33.2039 16.1827 33.1464 16.7849 33.1646C17.8691 33.1988 18.9611 33.089 20.0472 33.1434C21.1176 33.1978 22.182 33.0426 23.2474 33.088C24.1768 33.1313 25.0924 33.0003 26.0159 32.9731C26.0268 32.9731 26.0376 32.96 26.0662 32.9439C25.6917 32.4682 25.4167 31.9361 25.1082 31.4151C24.8513 30.9871 24.6442 30.5299 24.4912 30.0527C24.3188 29.5125 24.1581 28.9704 24.0034 28.4262C23.7513 27.5351 23.6875 26.5993 23.8161 25.6811C23.8812 25.1954 23.8674 24.6975 24.0132 24.2249C24.3266 23.1809 24.6667 22.1419 25.2561 21.2208C25.6611 20.588 26.0997 19.9722 26.6595 19.4684C27.2962 18.895 27.9605 18.3447 28.7431 17.9941C29.5256 17.6434 30.32 17.3148 31.1607 17.2141C32.1926 17.0911 33.2305 16.9017 34.2732 17.0347C35.5791 17.202 36.8239 17.5748 37.9574 18.3065C38.9518 18.9504 39.9167 19.6286 40.6855 20.5477C41.2588 21.2074 41.737 21.9475 42.1057 22.7455C42.4517 23.5336 42.7848 24.3388 42.91 25.2004C43.0805 26.3653 43.178 27.5434 42.9277 28.7053C42.702 29.712 42.4182 30.7097 41.9135 31.6177C41.6451 32.1181 41.3361 32.5948 40.99 33.0426C41.2315 33.0426 41.4306 33.0426 41.6307 33.0426C42.1501 33.0507 42.6705 33.0487 43.1909 33.0638C44.1646 33.09 45.1413 33.0305 46.1141 33.0638C47.2515 33.1071 48.3889 33.0396 49.5233 33.1031C50.2704 33.1454 51.0155 33.1031 51.7606 33.1464C52.0957 33.1646 52.4308 33.218 52.7067 33.4377C53.1995 33.8327 53.2567 34.6167 52.8447 35.1055C52.5737 35.4269 52.2534 35.5327 51.8365 35.5428C50.9659 35.5643 50.0949 35.5804 49.2237 35.5912C48.5544 35.5993 47.8842 35.563 47.214 35.5912C46.7626 35.6063 46.3093 35.6295 45.8569 35.6124C45.1601 35.5872 44.4633 35.5872 43.7664 35.5972C43.2736 35.6053 42.7749 35.6416 42.2881 35.5972C41.473 35.5267 40.6599 35.5559 39.8458 35.5589C39.2652 35.5589 38.6877 35.4934 38.1042 35.5156C37.7307 35.5307 37.3473 35.4491 37.1068 35.0823C37.0473 35.0063 37.0125 34.9132 37.0072 34.816C37.0019 34.7189 37.0264 34.6224 37.0772 34.5401C37.3857 33.9697 37.8243 33.4941 38.1693 32.9479C38.9751 31.66 39.5474 30.2341 39.8586 28.7386C40.1119 27.5736 40.0035 26.447 39.8517 25.3032C39.8349 25.1732 39.8152 25.0382 39.8103 24.9112C39.7827 24.2058 39.4466 23.6122 39.1588 22.9965C38.7784 22.1903 38.2166 21.5332 37.5966 20.9115C36.9925 20.3068 36.2799 19.8977 35.5141 19.5631C34.835 19.2678 34.1195 19.1761 33.3921 19.1066C32.4292 19.0159 31.5579 19.3001 30.6847 19.6538C29.9287 19.9612 29.3285 20.4741 28.7411 21.0243C28.1202 21.6078 27.6855 22.3203 27.2883 23.068C27.1372 23.3656 27.0109 23.6758 26.9109 23.9951C26.8349 24.1616 26.7859 24.3396 26.766 24.5222L26.8202 24.5373C26.8734 24.3559 26.9276 24.1745 26.9808 23.9921C27.3251 23.0263 27.8865 22.1568 28.6199 21.4536C29.2319 20.8752 29.914 20.3653 30.7123 20.0791C31.5993 19.7616 32.5061 19.4936 33.4591 19.545C34.8271 19.6195 36.1064 20.0055 37.2113 20.855C37.8145 21.3196 38.3615 21.8628 38.7449 22.5369C39.2032 23.3431 39.5846 24.1927 39.7147 25.1258C39.7783 25.5383 39.7961 25.9568 39.7679 26.3734C39.7679 26.4228 39.7994 26.5004 39.7206 26.5145C39.6417 26.5286 39.622 26.451 39.6092 26.3915C39.562 26.1226 39.5307 25.8511 39.5156 25.5783C39.5097 25.1208 39.3677 24.6996 39.2288 24.2773C39.082 23.8774 38.9053 23.4897 38.7005 23.1174C38.323 22.3727 37.7524 21.8073 37.1344 21.2853C36.3095 20.586 35.3416 20.2383 34.3067 20.0196C33.2502 19.7969 32.2429 19.9591 31.2386 20.2937C30.5438 20.5255 29.9455 20.9205 29.366 21.3559C28.4553 22.0381 27.8156 22.941 27.309 23.9568C26.7285 25.1188 26.5797 26.3492 26.7226 27.6311C26.7335 27.7318 26.8133 27.889 26.7068 27.9112C26.6004 27.9334 26.6211 27.752 26.6083 27.6563C26.4683 26.8107 26.4793 25.9462 26.6408 25.1047C26.646 25.0843 26.647 25.063 26.6438 25.0422C26.6406 25.0214 26.6332 25.0015 26.6221 24.9837C26.2367 26.8813 26.1934 28.7527 27.0548 30.5495C27.1109 30.4296 27.1129 30.4285 27.0676 30.3117C26.8564 29.7935 26.7395 29.2402 26.7226 28.6791L26.7532 28.6509ZM28.4947 20.6636L28.4523 20.7049L28.4109 20.7432L28.3695 20.7845L28.3262 20.8248L28.2739 20.851L28.2325 20.8832C28.2212 20.8916 28.2127 20.9034 28.2085 20.917C28.2042 20.9306 28.2044 20.9453 28.2089 20.9588L28.1635 20.9931L28.1842 21.0122L28.2138 20.9629C28.2424 20.9709 28.2562 20.9538 28.2661 20.9316L28.3025 20.8853L28.3686 20.857L28.4011 20.8147L28.4405 20.7764L28.4819 20.7311L28.5243 20.6877L28.5568 20.6363L28.5755 20.5991L28.54 20.6222L28.4947 20.6636ZM26.7098 21.6139L26.6684 21.6471L26.628 21.6844C26.5203 21.7644 26.4345 21.8713 26.3786 21.9948C26.425 21.9837 26.4486 21.9847 26.4595 21.9736C26.5285 21.897 26.5935 21.8164 26.6566 21.7378L26.695 21.6915L26.7344 21.6481L26.7551 21.6058L26.7098 21.6139ZM25.6365 24.9666C25.6365 24.9505 25.6365 24.9233 25.6227 24.9192C25.5892 24.9071 25.5862 24.9354 25.5833 24.9595C25.5549 25.0596 25.5622 25.1668 25.604 25.2619C25.6257 25.1359 25.6651 25.0573 25.6365 24.9666ZM26.2663 24.2874C26.2663 24.238 26.3303 24.2592 26.3382 24.235C26.4614 23.8833 26.5817 23.5296 26.7019 23.1779C26.5133 23.531 26.3664 23.9058 26.2643 24.2944H26.2752L26.2663 24.2874ZM25.191 24.2189C25.2447 24.067 25.2659 23.9052 25.2531 23.7442C25.1726 23.8871 25.1298 24.0489 25.1289 24.2138C25.1262 24.2627 25.1192 24.3113 25.1082 24.3589C24.9426 24.9132 24.9594 25.4745 25.0313 26.0409C25.0432 26.1346 25.1112 26.1991 25.1161 26.2878C25.1161 26.3129 25.0964 26.3381 25.0855 26.3633C25.0757 26.3371 25.052 26.3049 25.0589 26.2837C25.0987 26.1927 25.1192 26.0942 25.1191 25.9945C25.073 25.4018 25.0971 24.8056 25.191 24.2189ZM41.3754 22.4281C41.5045 22.7778 41.6307 23.1255 41.7411 23.4822C42.0929 24.5713 42.267 25.7122 42.2565 26.8591C42.2348 27.9616 42.1461 29.05 41.7933 30.1041C41.6435 30.5505 41.5351 31.011 41.3488 31.4484C41.4285 31.3853 41.4929 31.3042 41.537 31.2116C41.8327 30.6435 42.0721 30.0466 42.2516 29.4299C42.6458 28.1803 42.6251 26.8884 42.4822 25.6005C42.3941 24.9476 42.2197 24.3099 41.9638 23.7049C41.7913 23.2696 41.6632 22.81 41.3754 22.4281ZM45.4557 34.7296C46.3714 34.9503 47.8586 34.9886 48.4411 34.8203C48.1553 34.7628 47.8951 34.6661 47.6359 34.6661C46.9095 34.6661 46.1821 34.7054 45.4557 34.7296ZM40.3366 24.6633C40.2772 24.2331 40.1341 23.8195 39.9157 23.4469C40.0685 23.849 40.1868 24.2632 40.3366 24.6633ZM40.7446 33.3742C41.088 33.3912 41.4322 33.3716 41.7716 33.3157C41.5941 33.2979 41.4157 33.2922 41.2374 33.2986C41.0748 33.3046 40.8954 33.2291 40.7486 33.3742H40.7446ZM29.3965 35.0531C29.6823 34.8948 29.7592 34.7114 29.6567 34.4746L29.3965 35.0531ZM25.7331 23.8369C25.6575 24.175 25.6211 24.521 25.6247 24.8678C25.6996 24.5423 25.7784 24.2158 25.7321 23.8389L25.7331 23.8369ZM17.1141 33.4054C16.7317 33.4054 16.3414 33.3359 15.9629 33.4598C16.3474 33.489 16.7339 33.4708 17.1141 33.4054ZM26.7729 33.747C26.5186 33.608 26.2495 33.6987 25.9844 33.7037C26.246 33.7397 26.5101 33.7528 26.7739 33.743L26.7729 33.747ZM18.422 33.4064C18.076 33.3792 17.7283 33.3883 17.3841 33.4336C17.7321 33.4991 18.076 33.4498 18.423 33.4064H18.422ZM26.0357 26.5951C26.1421 26.2666 26.1342 25.9229 26.152 25.5874C26.0497 25.9124 26.0105 26.2547 26.0366 26.5951H26.0357ZM26.5758 30.9546C26.5275 30.6976 26.4141 30.5303 26.2564 30.4618L26.5758 30.9546ZM40.4213 25.2518C40.3878 25.0694 40.4282 24.8709 40.2962 24.7106C40.3009 24.898 40.3438 25.0824 40.4223 25.2518H40.4213ZM26.2485 24.4224C26.1547 24.5566 26.1053 24.718 26.1076 24.883C26.2043 24.7502 26.2543 24.5879 26.2495 24.4224H26.2485ZM25.5133 29.57L25.5576 29.5458L25.3684 29.1427C25.3556 29.3372 25.4542 29.447 25.5143 29.57H25.5133ZM39.9128 23.4459C39.9164 23.3571 39.8932 23.2693 39.8463 23.1945C39.7994 23.1196 39.7311 23.0614 39.6506 23.0277C39.7728 23.1617 39.7827 23.3331 39.9138 23.4459H39.9128ZM26.1234 27.9042C26.1066 28.0503 26.0889 28.1742 26.1943 28.3073C26.1953 28.1571 26.2071 28.0332 26.1234 27.9042ZM28.6859 20.5245C28.6741 20.5245 28.6583 20.5124 28.6504 20.5174C28.6425 20.5225 28.6366 20.5396 28.6307 20.5507C28.6416 20.5507 28.6554 20.5608 28.6623 20.5567C28.6692 20.5527 28.678 20.5356 28.6859 20.5245Z" fill="#030202"/>
<path d="M39.6999 27.4002C39.707 27.8138 39.6683 28.2269 39.5845 28.6316C39.1617 30.4909 38.4738 32.2313 37.3443 33.7711C37.1935 33.9726 37.0161 34.1621 36.8515 34.3566C36.7983 34.4191 36.7322 34.5138 36.6544 34.4422C36.635 34.4251 36.6192 34.4039 36.6082 34.3802C36.5972 34.3565 36.5912 34.3307 36.5904 34.3045C36.5897 34.2782 36.5943 34.2521 36.6039 34.2278C36.6136 34.2034 36.6281 34.1814 36.6465 34.1631C36.9216 33.8337 37.1757 33.4867 37.4074 33.1241C38.1318 31.9199 38.7194 30.6352 39.1588 29.2947C39.4152 28.5427 39.5571 27.7549 39.5796 26.9588C39.5796 26.9225 39.5599 26.8651 39.623 26.858C39.6861 26.8509 39.7008 26.9094 39.7018 26.9588C39.7018 27.1059 39.6999 27.253 39.6999 27.4002Z" fill="#030202"/>
<path d="M26.9768 23.998C26.9236 24.1804 26.8694 24.3618 26.8162 24.5432L26.762 24.5281C26.7819 24.3455 26.8308 24.1675 26.9068 24.0011L26.9768 23.998Z" fill="#6E6E6E"/>
<path d="M26.7142 28.6842C26.6911 28.6526 26.6785 28.6219 26.7142 28.5903L26.7519 28.6496L26.7142 28.6842Z" fill="#030202"/>
<path d="M42.0772 44.2835C41.5765 44.2835 41.0739 44.3097 40.5752 44.2785C39.5137 44.213 38.4542 44.3289 37.3957 44.2926C36.2859 44.2553 35.1771 44.3521 34.0703 44.3178C32.9635 44.2835 31.8675 44.3813 30.7666 44.344C29.712 44.3097 28.6574 44.4075 27.6058 44.3702C26.5778 44.3339 25.5528 44.4206 24.5268 44.3904C23.3904 44.3551 22.255 44.4438 21.1206 44.4085C19.9862 44.3732 18.8754 44.469 17.7548 44.4186C16.988 44.3843 16.2242 44.4518 15.4594 44.4186C14.9735 44.3994 14.5339 44.2442 14.3338 43.7535C14.1623 43.3302 14.1061 42.8778 14.3151 42.4343C14.5122 42.0071 14.8779 41.9305 15.2829 41.9849C15.688 42.0393 16.1148 41.9849 16.5307 41.9849C17.1546 41.9849 17.7794 41.9224 18.4033 41.9496C19.52 41.998 20.6357 41.8871 21.7543 41.9234C22.8237 41.9587 23.8891 41.8398 24.9555 41.865C26.0032 41.8892 27.046 41.7793 28.0907 41.8095C29.1877 41.8418 30.2826 41.74 31.3767 41.7823C32.4943 41.8257 33.61 41.7309 34.7277 41.7823C35.8118 41.8337 36.9048 41.7561 37.99 41.8106C39.1007 41.866 40.2105 41.7753 41.3183 41.8226C42.4261 41.87 43.5073 41.7642 44.5993 41.8166C45.6914 41.869 46.7755 41.7652 47.8616 41.8166C48.9478 41.868 50.0221 41.7954 51.1023 41.8226C51.4551 41.8317 51.8109 41.8337 52.1618 41.8609C52.5127 41.8882 52.7315 42.1633 52.8369 42.4656C52.9847 42.8919 53.034 43.3433 52.7827 43.7636C52.626 44.0246 52.4249 44.2049 52.0928 44.2211C51.5321 44.258 50.9698 44.2637 50.4084 44.2382C49.2986 44.1687 48.1908 44.2876 47.085 44.2382C46.0294 44.1939 44.9768 44.2916 43.9242 44.2453C43.3043 44.2231 42.6912 44.2725 42.0772 44.2835ZM28.2612 42.913C28.072 42.8878 27.8965 42.9624 27.7142 42.9846C27.9005 42.9614 28.0927 43.041 28.272 42.9553L29.3237 42.8959C29.3379 42.9154 29.3565 42.9311 29.378 42.9417C29.3994 42.9522 29.4231 42.9572 29.4469 42.9564C29.8283 42.9453 30.2107 42.9564 30.5872 42.8697H29.3187C28.9639 42.8304 28.6131 42.8838 28.2612 42.913ZM40.6658 42.913C40.5157 42.9035 40.3652 42.9233 40.2223 42.9715C40.3741 42.9715 40.5289 43.0309 40.6757 42.9483C41.1569 42.9584 41.6379 42.9172 42.1107 42.8253C41.6051 42.7619 41.1389 42.8919 40.6658 42.9181V42.913ZM21.3552 42.7619C20.4839 42.7971 19.6018 42.645 18.7433 42.9181L21.367 42.8122C21.7997 42.8403 22.2339 42.8305 22.665 42.783C22.2303 42.7288 21.791 42.7234 21.3552 42.7669V42.7619ZM48.9202 43.82C49.3716 43.7898 49.8279 43.8875 50.2832 43.8331C49.8309 43.7748 49.3735 43.7704 48.9202 43.82ZM15.2307 43.5378C15.3082 43.6064 15.4071 43.6443 15.5096 43.6446C15.5707 43.6507 15.5944 43.6104 15.5914 43.5529C15.5885 43.4955 15.5461 43.4945 15.5037 43.5005L15.2307 43.5378ZM24.7633 42.8324V42.8777L25.2739 42.8405V42.7951L24.7633 42.8324ZM51.5123 42.7316C51.5714 42.774 51.4669 42.912 51.6039 42.9191C51.6414 42.9191 51.6394 42.8858 51.6246 42.8586C51.5892 42.7931 51.6246 42.6953 51.5468 42.6571C51.5172 42.6389 51.4876 42.6782 51.5123 42.7296V42.7316Z" fill="#030202"/>
<path d="M41.3755 22.4277C41.6633 22.8097 41.7914 23.2692 41.9668 23.7066C42.2227 24.3115 42.3971 24.9492 42.4852 25.6021C42.6281 26.888 42.6508 28.1799 42.2546 29.4315C42.0751 30.0483 41.8357 30.6451 41.5401 31.2132C41.4959 31.3059 41.4315 31.3869 41.3518 31.45C41.5381 31.0127 41.6475 30.5521 41.7963 30.1057C42.1492 29.0516 42.2379 27.9632 42.2595 26.8608C42.27 25.7138 42.0959 24.573 41.7441 23.4838C41.6307 23.1251 41.5046 22.7774 41.3755 22.4277Z" fill="#F8F2EA"/>
<path d="M45.4558 34.7295C46.1822 34.7053 46.9096 34.666 47.6359 34.666C47.8951 34.666 48.1553 34.7668 48.4412 34.8202C47.8587 34.9885 46.3714 34.9522 45.4558 34.7295Z" fill="#F8F2EA"/>
<path d="M25.191 24.2188C25.0971 24.8056 25.073 25.4018 25.1191 25.9945C25.1198 26.0948 25.0996 26.194 25.0599 26.2857C25.053 26.3069 25.0767 26.3391 25.0865 26.3653C25.0974 26.3401 25.1181 26.3149 25.1171 26.2897C25.1171 26.2011 25.0441 26.1366 25.0323 26.0429C24.9604 25.4765 24.9436 24.9152 25.1092 24.3609C25.1202 24.3133 25.1271 24.2647 25.1299 24.2158L25.191 24.2188Z" fill="#F8F2EA"/>
<path d="M40.3366 24.6631C40.1829 24.26 40.0646 23.8489 39.9158 23.4468C40.1341 23.8194 40.2772 24.233 40.3366 24.6631Z" fill="#F8F2EA"/>
<path d="M40.7485 33.3741C40.8954 33.229 41.0748 33.3046 41.2413 33.2985C41.4196 33.2922 41.598 33.2979 41.7755 33.3157C41.4361 33.3715 41.0919 33.3911 40.7485 33.3741Z" fill="#F8F2EA"/>
<path d="M26.2644 24.2953C26.3663 23.9063 26.5132 23.5312 26.702 23.1777C26.5818 23.5304 26.4615 23.8832 26.3383 24.2349C26.3304 24.259 26.2703 24.2349 26.2664 24.2873L26.2644 24.2953Z" fill="#F8F2EA"/>
<path d="M29.3965 35.0531L29.6567 34.4746C29.7582 34.7134 29.6813 34.8969 29.3965 35.0531Z" fill="#F8F2EA"/>
<path d="M25.7322 23.8389C25.7785 24.2158 25.6997 24.5443 25.6238 24.8698C25.6202 24.523 25.6566 24.177 25.7322 23.8389Z" fill="#F8F2EA"/>
<path d="M17.1141 33.4053C16.7339 33.4707 16.3474 33.4889 15.9629 33.4597C16.3414 33.3398 16.7317 33.4033 17.1141 33.4053Z" fill="#6E6E6E"/>
<path d="M26.7738 33.743C26.5103 33.7515 26.2465 33.737 25.9854 33.6997C26.2505 33.6987 26.5195 33.608 26.7738 33.743Z" fill="#F8F2EA"/>
<path d="M18.4228 33.4064C18.0759 33.4497 17.7329 33.4991 17.385 33.4336C17.7291 33.3883 18.0769 33.3792 18.4228 33.4064Z" fill="#6E6E6E"/>
<path d="M26.0367 26.5951C26.0109 26.2547 26.0504 25.9124 26.153 25.5874C26.1363 25.923 26.1442 26.2666 26.0367 26.5951Z" fill="#6E6E6E"/>
<path d="M26.5767 30.9542L26.2573 30.4614C26.415 30.53 26.5284 30.6972 26.5767 30.9542Z" fill="#F8F2EA"/>
<path d="M40.4223 25.2516C40.3441 25.0821 40.3015 24.8978 40.2971 24.7104C40.4292 24.8747 40.3888 25.0692 40.4223 25.2516Z" fill="#6E6E6E"/>
<path d="M25.191 24.2188L25.1289 24.2137C25.1298 24.0488 25.1725 23.887 25.2531 23.7441C25.2659 23.9051 25.2447 24.0669 25.191 24.2188Z" fill="#6E6E6E"/>
<path d="M26.2494 24.4224C26.2545 24.5877 26.2048 24.75 26.1085 24.8829C26.1062 24.7179 26.1556 24.5566 26.2494 24.4224Z" fill="#6E6E6E"/>
<path d="M25.5143 29.57C25.4503 29.447 25.3547 29.3372 25.3695 29.1396L25.5587 29.5427L25.5143 29.57Z" fill="#6E6E6E"/>
<path d="M39.9138 23.4456C39.7827 23.3327 39.7728 23.1624 39.6516 23.0273C39.7321 23.061 39.8004 23.1193 39.8473 23.1941C39.8942 23.2689 39.9174 23.3567 39.9138 23.4456Z" fill="#6E6E6E"/>
<path d="M26.1233 27.9038C26.2071 28.0328 26.1953 28.1568 26.1943 28.3069C26.0888 28.1739 26.1066 28.0499 26.1233 27.9038Z" fill="#6E6E6E"/>
<path d="M26.6605 21.7375C26.5935 21.8161 26.5284 21.8967 26.4634 21.9733C26.4525 21.9844 26.4289 21.9834 26.3826 21.9945C26.4384 21.8709 26.5243 21.7641 26.6319 21.6841L26.6605 21.7375Z" fill="#6E6E6E"/>
<path d="M25.6364 24.9666C25.665 25.0573 25.6255 25.1359 25.6039 25.2589C25.5621 25.1638 25.5548 25.0566 25.5832 24.9565L25.6364 24.9666Z" fill="#6E6E6E"/>
<path d="M28.2133 20.9679L28.1841 21.0158L28.1636 20.9968L28.2085 20.9629L28.2133 20.9679Z" fill="#6E6E6E"/>
<path d="M28.6853 20.5241C28.6775 20.5351 28.6716 20.55 28.6618 20.556C28.6521 20.562 28.6413 20.556 28.6306 20.55C28.6365 20.5391 28.6404 20.5221 28.6501 20.5171C28.6599 20.5121 28.6736 20.5211 28.6853 20.5241Z" fill="#6E6E6E"/>
<path d="M28.54 20.6262L28.5755 20.603L28.5568 20.6403L28.54 20.6262Z" fill="#6E6E6E"/>
<path d="M25.636 24.9658L25.5833 24.9588C25.5833 24.9348 25.5891 24.9069 25.6223 24.9189C25.6311 24.9229 25.632 24.9498 25.636 24.9658Z" fill="#F8F2EA"/>
<path d="M28.2648 20.9346C28.2551 20.9563 28.2416 20.9731 28.2136 20.9652H28.2088C28.2043 20.952 28.2042 20.9376 28.2084 20.9242C28.2125 20.9109 28.2208 20.8993 28.2319 20.8911L28.2648 20.9346Z" fill="#6E6E6E"/>
<path d="M26.2664 24.2871L26.2755 24.2942H26.2644L26.2664 24.2871Z" fill="#F8F2EA"/>
<path d="M28.2324 20.8866L28.273 20.855L28.301 20.8886L28.2653 20.934L28.2324 20.8866Z" fill="#6E6E6E"/>
<path d="M28.2739 20.8543L28.3251 20.8286L28.3677 20.8602L28.3019 20.8879L28.2739 20.8543Z" fill="#6E6E6E"/>
<path d="M28.4805 20.7343L28.4399 20.7777L28.4109 20.7422L28.4515 20.7007L28.4805 20.7343Z" fill="#6E6E6E"/>
<path d="M26.6279 21.6835L26.6675 21.647L26.6975 21.6904L26.6598 21.7359L26.6279 21.6835Z" fill="#6E6E6E"/>
<path d="M26.6685 21.6493L26.709 21.6167L26.7371 21.6503L26.6984 21.6928L26.6685 21.6493Z" fill="#6E6E6E"/>
<path d="M26.7097 21.6135L26.759 21.6055L26.7353 21.6498L26.7097 21.6135Z" fill="#6E6E6E"/>
<path d="M28.3262 20.8281L28.3687 20.7886L28.3996 20.8182L28.3677 20.8597L28.3262 20.8281Z" fill="#6E6E6E"/>
<path d="M28.3696 20.7876L28.4102 20.7432L28.4392 20.7748L28.4005 20.8133L28.3696 20.7876Z" fill="#6E6E6E"/>
<path d="M28.4524 20.7041L28.4939 20.6636C28.5027 20.6738 28.5124 20.6831 28.5229 20.6912L28.4814 20.7337L28.4524 20.7041Z" fill="#6E6E6E"/>
<path d="M28.4946 20.6625L28.5391 20.626L28.5555 20.6398L28.5236 20.6902C28.5131 20.682 28.5033 20.6727 28.4946 20.6625Z" fill="#6E6E6E"/>
<path d="M21.3668 42.8124L18.7432 42.9212C19.6016 42.6481 20.4837 42.8003 21.355 42.765L21.3668 42.8124Z" fill="#F8F2EA"/>
<path d="M40.6658 42.9181C41.1389 42.8919 41.605 42.7619 42.1136 42.8254C41.64 42.9192 41.158 42.9621 40.6756 42.9534C40.6756 42.9534 40.6835 42.9433 40.6815 42.9403C40.6796 42.9372 40.6707 42.9262 40.6658 42.9181Z" fill="#F8F2EA"/>
<path d="M21.3668 42.8123L21.355 42.765C21.7909 42.7221 22.2302 42.7282 22.6648 42.7831C22.2338 42.8306 21.7995 42.8404 21.3668 42.8123Z" fill="#6E6E6E"/>
<path d="M29.3186 42.8711H30.587C30.2105 42.9598 29.8281 42.9467 29.4467 42.9578C29.4229 42.9586 29.3993 42.9536 29.3778 42.9431C29.3563 42.9325 29.3377 42.9168 29.3235 42.8973C29.3194 42.8892 29.3177 42.8801 29.3186 42.8711Z" fill="#6E6E6E"/>
<path d="M48.9202 43.8203C49.3735 43.7707 49.8309 43.7751 50.2832 43.8334C49.8279 43.8868 49.3716 43.789 48.9202 43.8203Z" fill="#6E6E6E"/>
<path d="M29.3186 42.8709C29.3162 42.8795 29.3162 42.8886 29.3186 42.8971L28.2669 42.9566L28.2561 42.9143C28.6129 42.884 28.9638 42.8306 29.3186 42.8709Z" fill="#F8F2EA"/>
<path d="M15.2307 43.5369L15.5037 43.4996C15.5461 43.4936 15.5885 43.4905 15.5914 43.552C15.5944 43.6135 15.5707 43.6528 15.5096 43.6437C15.4071 43.6434 15.3082 43.6055 15.2307 43.5369Z" fill="#F8F2EA"/>
<path d="M24.7642 42.8346L25.2757 42.7974V42.8427L24.7651 42.88L24.7642 42.8346Z" fill="#6E6E6E"/>
<path d="M28.2611 42.9135L28.272 42.9558C28.0926 43.0414 27.9004 42.9618 27.7141 42.985C27.8964 42.9638 28.0719 42.8893 28.2611 42.9135Z" fill="#6E6E6E"/>
<path d="M51.5121 42.7297C51.4875 42.6783 51.517 42.639 51.5466 42.6542C51.6254 42.6935 51.589 42.7912 51.6245 42.8557C51.6392 42.8829 51.6412 42.9182 51.6038 42.9162C51.4668 42.9131 51.5722 42.7721 51.5121 42.7297Z" fill="#F8F2EA"/>
<path d="M40.6657 42.9183C40.6706 42.9264 40.6775 42.9324 40.6815 42.9405C40.6854 42.9486 40.6815 42.9496 40.6755 42.9536C40.5287 43.0362 40.3739 42.9738 40.2222 42.9768C40.365 42.9286 40.5156 42.9088 40.6657 42.9183Z" fill="#6E6E6E"/>
<defs>
<filter id="filter0_d_2312_11922" x="0" y="0.0239258" width="73.8992" height="72.415" filterUnits="userSpaceOnUse" color-interpolation-filters="sRGB">
<feFlood flood-opacity="0" result="BackgroundImageFix"/>
<feColorMatrix in="SourceAlpha" type="matrix" values="0 0 0 0 0 0 0 0 0 0 0 0 0 0 0 0 0 0 127 0" result="hardAlpha"/>
<feOffset dx="5" dy="4"/>
<feGaussianBlur stdDeviation="2"/>
<feComposite in2="hardAlpha" operator="out"/>
<feColorMatrix type="matrix" values="0 0 0 0 0 0 0 0 0 0 0 0 0 0 0 0 0 0 0.25 0"/>
<feBlend mode="normal" in2="BackgroundImageFix" result="effect1_dropShadow_2312_11922"/>
<feBlend mode="normal" in="SourceGraphic" in2="effect1_dropShadow_2312_11922" result="shape"/>
</filter>
</defs>
</svg>