<svg width="69" height="68" viewBox="0 0 69 68" fill="none" xmlns="http://www.w3.org/2000/svg">
<g filter="url(#filter0_d_2409_121661)">
<path d="M0.0383301 29.6351C0.14737 22.1157 2.66885 15.495 7.77095 9.89462C11.9293 5.33104 17.0757 2.39977 23.0619 0.908656C24.9082 0.448861 26.7846 0.181823 28.6851 0.0743945C32.6149 -0.148444 36.4393 0.362304 40.1479 1.69319C43.9434 3.05539 47.2972 5.13092 50.2246 7.89337C52.7159 10.2439 54.6583 12.9892 56.2366 16.0181C57.8618 19.1378 58.9177 22.4221 59.3914 25.9009C59.6039 27.4608 59.6994 29.0274 59.6477 30.5989C59.408 37.9158 56.8558 44.3197 51.8787 49.7102C47.6619 54.2769 42.4729 57.2112 36.3814 58.536C34.6343 58.9159 32.8663 59.1541 31.076 59.1934C23.073 59.3696 16.0161 56.8797 9.99858 51.6175C5.2199 47.4382 2.18772 42.1902 0.769578 36.0182C0.32972 34.1054 0.0937743 32.1643 0.0666683 30.1999C0.0642041 30.0219 0.0494189 29.8445 0.0389461 29.6357L0.0383301 29.6351Z" fill="#060000"/>
<path d="M31.3772 56.2586C27.2411 56.3335 23.3834 55.6557 19.684 54.1474C17.0301 53.0658 14.5505 51.6803 12.3925 49.7785C8.84467 46.6526 6.25049 42.8711 4.61612 38.4395C3.90212 36.5046 3.42407 34.5113 3.16964 32.4671C2.91829 30.4523 2.84252 28.429 3.11912 26.4148C3.49122 23.7064 4.28838 21.1152 5.47982 18.6499C7.82942 13.788 11.2959 9.90333 15.8658 7.02055C18.8918 5.112 22.1852 3.84127 25.7151 3.19731C27.453 2.87993 29.2056 2.73076 30.9712 2.74734C33.7065 2.77312 36.3931 3.15004 38.9903 4.0107C40.799 4.60985 42.4833 5.4926 44.0776 6.53374C49.2518 9.91315 52.9216 14.516 55.2287 20.2134C56.2298 22.6855 56.8532 25.2534 57.1027 27.9102C57.2235 29.1933 57.2912 30.4793 57.1828 31.7642C57.0541 33.2903 56.746 34.7875 56.329 36.2615C55.0907 40.6317 52.9038 44.4715 49.7872 47.7797C46.5289 51.2383 42.6342 53.7257 38.1198 55.2279C36.7639 55.6791 35.3495 55.9025 33.9301 56.0732C33.0344 56.1806 32.1349 56.2285 31.3772 56.2592V56.2586Z" fill="#F8F2EA"/>
<path d="M31.185 53.9949C27.376 54.0635 23.8234 53.443 20.4166 52.062C17.9725 51.0716 15.689 49.8031 13.7017 48.0618C10.4344 45.1999 8.04538 41.7376 6.54025 37.6801C5.88272 35.9085 5.44247 34.0835 5.20816 32.2119C4.97669 30.3672 4.90691 28.5147 5.16164 26.6706C5.50431 24.1908 6.23843 21.8184 7.33565 19.5612C9.49944 15.1097 12.6918 11.553 16.9003 8.9136C19.687 7.16617 22.7199 6.00272 25.9707 5.41312C27.5712 5.12254 29.1852 4.98596 30.8112 5.00114C33.3301 5.02474 35.8042 5.36985 38.1961 6.15785C39.8618 6.70641 41.4129 7.51465 42.8811 8.46789C47.6461 11.562 51.0257 15.7763 53.1504 20.9927C54.0723 23.2561 54.6464 25.6072 54.8762 28.0398C54.9874 29.2145 55.0498 30.392 54.9499 31.5683C54.8313 32.9656 54.5477 34.3365 54.1636 35.686C53.0233 39.6872 51.0092 43.2029 48.1391 46.2318C45.1385 49.3984 41.5519 51.6759 37.3945 53.0512C36.1458 53.4643 34.8432 53.6689 33.5361 53.8251C32.7112 53.9235 31.8829 53.9674 31.185 53.9955V53.9949Z" fill="#181818"/>
<path d="M8.32005 11.7521C8.94904 10.808 9.66057 9.92646 10.4208 9.08668C10.8428 8.62074 11.3448 8.234 11.8617 7.81104C10.743 9.21498 9.52812 10.4839 8.37242 11.8043C8.32683 11.8148 8.30281 11.8043 8.32005 11.7521Z" fill="#F8F2EA"/>
<path d="M47.783 8.73327C49.1451 9.83887 50.3815 11.0691 51.4793 12.4362C51.4886 12.481 51.4756 12.5037 51.4257 12.4871C50.2521 11.1955 48.9892 9.99234 47.7251 8.79036C47.7165 8.74371 47.7325 8.721 47.7824 8.73327H47.783Z" fill="#F8F2EA"/>
<path d="M58.9825 27.7959C59.1309 28.9438 59.2086 30.0949 59.0958 31.2502C59.0539 31.6836 58.9874 32.1145 58.932 32.5467C58.8032 32.4865 58.8888 32.3877 58.8876 32.3042C58.956 31.2311 59.0188 30.1581 58.9819 29.0819C58.9677 28.67 58.9492 28.2581 58.932 27.8462C58.9153 27.7965 58.9369 27.7842 58.9825 27.7953V27.7959Z" fill="#F8F2EA"/>
<path d="M33.4094 57.1365C32.7768 57.2182 32.1447 57.3023 31.5114 57.3809C30.9163 57.4551 30.3194 57.5171 29.7249 57.5994C29.5678 57.6215 29.4181 57.597 29.2653 57.5933C29.2203 57.592 29.1359 57.6319 29.1464 57.5307C29.1532 57.4662 29.2062 57.441 29.2696 57.4367C29.4963 57.422 29.7224 57.3987 29.9497 57.3907C30.9717 57.3551 31.9864 57.2384 32.9998 57.1089C33.1347 57.0917 33.2708 57.0702 33.4094 57.1359V57.1365Z" fill="#F8F2EA"/>
<path d="M18.7646 4.90985C19.9868 4.22661 21.323 3.84232 22.6506 3.43654C22.7036 3.41874 22.7165 3.44268 22.7073 3.49057C21.3951 3.94115 20.0885 4.40831 18.8157 4.96203C18.7652 4.97677 18.7529 4.95528 18.7646 4.90985Z" fill="#F8F2EA"/>
<path d="M46.4053 51.9815C47.4729 51.0496 48.5658 50.1448 49.5551 49.1245C49.3161 49.5898 47.0774 51.6316 46.4053 51.9815Z" fill="#F8F2EA"/>
<path d="M51.1814 9.83545C51.6484 10.1774 53.4417 12.2756 53.6918 12.7526C52.7899 11.8367 52.0808 10.755 51.1814 9.83545Z" fill="#F8F2EA"/>
<path d="M46.5491 6.99608C45.9022 6.62162 45.256 6.24654 44.6091 5.87207C45.3219 6.13174 46.0759 6.31836 46.5491 6.99608Z" fill="#F8F2EA"/>
<path d="M8.17258 13.3033C8.61552 12.6679 9.11575 12.0761 9.61228 11.4825C9.64678 11.4408 9.67635 11.3425 9.75828 11.4039C9.84884 11.4721 9.76876 11.5267 9.72317 11.5807C9.22355 12.1725 8.72394 12.7649 8.22494 13.3573C8.1812 13.3647 8.15656 13.353 8.17319 13.3033H8.17258Z" fill="#F8F2EA"/>
<path d="M58.6102 34.9C58.4815 35.7532 58.2819 36.59 58.0114 37.4101C57.9966 37.4279 57.9812 37.4285 57.9646 37.4119C58.1808 36.5261 58.4008 35.6415 58.5566 34.7422C58.6731 34.7612 58.6071 34.8422 58.6102 34.8993V34.9Z" fill="#F8F2EA"/>
<path d="M51.4265 12.4865C51.4444 12.4693 51.4622 12.4527 51.4801 12.4355C52.0777 13.1194 52.5989 13.8591 53.0935 14.6185C53.1102 14.6664 53.0874 14.6744 53.0467 14.6645C52.5477 13.9082 51.9816 13.2017 51.4265 12.4865Z" fill="#F8F2EA"/>
<path d="M58.61 34.8997C58.586 34.8493 58.6205 34.7787 58.5564 34.7425C58.6667 33.9298 58.7769 33.117 58.8872 32.3042C58.918 32.3822 58.8706 32.4742 58.9316 32.5467C58.8244 33.3312 58.7172 34.1151 58.6106 34.8997H58.61Z" fill="#F8F2EA"/>
<path d="M57.7254 38.3385C57.5911 39.0143 57.3059 39.6393 57.0681 40.2802C57.0262 40.3931 56.9776 40.5036 56.932 40.6153C56.8913 40.6209 56.8624 40.6166 56.8895 40.565C57.1661 39.813 57.4569 39.0653 57.6873 38.2973C57.7057 38.2906 57.7242 38.2844 57.7365 38.3059C57.7415 38.3145 57.7347 38.3268 57.7261 38.3385H57.7254Z" fill="#F8F2EA"/>
<path d="M58.1482 22.001C58.3755 22.7051 58.5942 23.4117 58.617 24.1581C58.4605 23.4393 58.3047 22.7204 58.1482 22.001Z" fill="#F8F2EA"/>
<path d="M28.6128 2.18579C29.1451 2.13423 29.6749 2.05074 30.2096 2.03662C30.2121 2.06609 30.2151 2.09494 30.2176 2.12441C29.6995 2.16247 29.1814 2.20053 28.6627 2.23859C28.6134 2.25148 28.5993 2.23122 28.6122 2.18518L28.6128 2.18579Z" fill="#F8F2EA"/>
<path d="M2.23673 29.6055V31.0561C2.21085 31.0561 2.18498 31.0548 2.1591 31.0542C2.04945 30.5324 2.24165 30.0205 2.23673 29.6055Z" fill="#F8F2EA"/>
<path d="M3.75314 20.7445C3.6558 21.0085 3.556 21.2724 3.46175 21.5376C3.43711 21.607 3.40754 21.6629 3.32622 21.6303C3.22149 21.588 3.30096 21.5278 3.32437 21.4799C3.4445 21.2331 3.56771 20.9888 3.6903 20.7433C3.71186 20.723 3.73281 20.7236 3.75376 20.7451L3.75314 20.7445Z" fill="#F8F2EA"/>
<path d="M24.0184 2.70651C23.5452 2.82376 23.0727 2.94101 22.5996 3.05888C23.0265 2.82131 23.4972 2.73905 23.9678 2.65556C24.0159 2.64205 24.0301 2.6617 24.0184 2.70712V2.70651Z" fill="#F8F2EA"/>
<path d="M3.30811 37.221C3.0814 36.7655 3.01733 36.2646 2.95142 35.7637C3.07031 36.2493 3.18921 36.7354 3.30811 37.221Z" fill="#F8F2EA"/>
<path d="M8.17229 13.3027C8.18953 13.3205 8.20678 13.339 8.22403 13.3568C8.0078 13.6533 7.79157 13.9504 7.57534 14.2469C7.55685 14.2346 7.53899 14.2223 7.52051 14.21C7.72935 13.9025 7.92771 13.5876 8.17229 13.3027Z" fill="#F8F2EA"/>
<path d="M12.1047 50.8994C12.3943 51.1284 12.6838 51.3574 12.9734 51.5863C12.5206 51.3782 12.2403 51.1554 12.1047 50.8994Z" fill="#F8F2EA"/>
<path d="M34.6473 1.75584C34.3183 1.73128 33.9887 1.70611 33.6357 1.67972C33.9986 1.49064 34.3214 1.71287 34.6535 1.69568C34.651 1.71532 34.6491 1.73558 34.6467 1.75522L34.6473 1.75584Z" fill="#F8F2EA"/>
<path d="M40.6826 4.21191C41.0627 4.26041 41.3923 4.4059 41.6923 4.62444C41.356 4.48693 41.019 4.34942 40.6826 4.21191Z" fill="#F8F2EA"/>
<path d="M22.7076 3.49053C22.6885 3.47273 22.67 3.45431 22.6509 3.43651C22.9269 3.31005 23.222 3.25542 23.5121 3.18359C23.5183 3.20324 23.5244 3.22288 23.5306 3.24253C23.2558 3.3254 22.9817 3.40766 22.7069 3.49053H22.7076Z" fill="#F8F2EA"/>
<path d="M36.3166 56.9006C36.5513 56.8312 36.786 56.7613 37.0208 56.6919C36.8809 56.9338 36.6234 56.8785 36.4183 56.9534C36.3677 56.9669 36.3105 56.9945 36.3166 56.9006Z" fill="#F8F2EA"/>
<path d="M31.772 57.9373C32.1484 57.9306 32.5199 57.8244 32.9 57.8956C32.5236 57.9023 32.1533 58.0245 31.772 57.9373Z" fill="#F8F2EA"/>
<path d="M11.2583 49.4146C11.4721 49.6147 11.6865 49.8154 11.9002 50.0155C11.8867 50.0297 11.8725 50.0444 11.8589 50.0585C11.6224 49.8811 11.4154 49.6736 11.2583 49.4146Z" fill="#F8F2EA"/>
<path d="M12.5472 50.6444C12.3199 50.4891 12.1142 50.3104 11.9404 50.0962C12.1782 50.238 12.3858 50.416 12.5817 50.6088C12.5867 50.6358 12.575 50.6481 12.5472 50.6444Z" fill="#F8F2EA"/>
<path d="M4.55088 41.2674C4.40056 41.0225 4.30199 40.7579 4.26318 40.4688C4.37161 40.7241 4.48003 40.9801 4.58846 41.2355C4.58846 41.2607 4.57614 41.2711 4.55149 41.268L4.55088 41.2674Z" fill="#F8F2EA"/>
<path d="M47.7831 8.73355C47.764 8.75258 47.7449 8.77161 47.7258 8.79064C47.5785 8.65681 47.4313 8.52299 47.2847 8.38916C47.4886 8.45607 47.6457 8.58192 47.7837 8.73355H47.7831Z" fill="#F8F2EA"/>
<path d="M53.0466 14.6657C53.062 14.6503 53.078 14.635 53.0934 14.6196C53.2542 14.7977 53.3645 15.0051 53.4415 15.236C53.3097 15.0457 53.1785 14.8554 53.0466 14.6657Z" fill="#F8F2EA"/>
<path d="M24.0188 2.70656C24.0021 2.68937 23.9849 2.67218 23.9683 2.65499C24.2067 2.57641 24.4488 2.51625 24.7014 2.51318C24.7069 2.51932 24.7118 2.52608 24.7174 2.53221C24.4938 2.62798 24.2535 2.65499 24.0188 2.70594V2.70656Z" fill="#F8F2EA"/>
<path d="M16.1177 53.1006C16.2939 53.2031 16.4707 53.3056 16.6469 53.4075C16.4331 53.3731 16.2532 53.2737 16.1177 53.1006Z" fill="#F8F2EA"/>
<path d="M36.3164 56.9004C36.3287 56.9593 36.3842 56.9354 36.4181 56.9532C36.2074 57.0023 35.9973 57.052 35.7866 57.1011C35.948 56.9845 36.1304 56.9366 36.3164 56.9004Z" fill="#F8F2EA"/>
<path d="M58.9823 27.7956C58.9656 27.8128 58.949 27.8293 58.9318 27.8465C58.8665 27.6679 58.8843 27.4856 58.9287 27.3008L58.9823 27.7956Z" fill="#F8F2EA"/>
<path d="M13.2968 51.2309C13.1342 51.1345 12.9796 51.0277 12.8502 50.889C12.8489 50.865 12.8613 50.8564 12.8841 50.862C13.0455 50.9319 13.1601 51.0639 13.2956 51.1683C13.3171 51.1885 13.3178 51.2094 13.2968 51.2309Z" fill="#F8F2EA"/>
<path d="M18.7649 4.91028C18.7821 4.92747 18.7987 4.94527 18.816 4.96246C18.686 5.0527 18.5419 5.10918 18.3848 5.13373C18.4963 5.03122 18.6219 4.95632 18.7643 4.90967L18.7649 4.91028Z" fill="#F8F2EA"/>
<path d="M28.6127 2.18555C28.6293 2.20335 28.6466 2.22115 28.6632 2.23895C28.5012 2.32121 28.3324 2.28131 28.1611 2.24325C28.3114 2.22422 28.4624 2.20458 28.6127 2.18555Z" fill="#F8F2EA"/>
<path d="M3.75266 20.7449C3.73172 20.7449 3.71015 20.7437 3.68921 20.7431C3.75143 20.6062 3.81365 20.4693 3.87587 20.333C3.87156 20.4852 3.84692 20.6277 3.75266 20.7449Z" fill="#F8F2EA"/>
<path d="M4.79053 18.103C4.86507 17.9513 4.93961 17.7991 5.01415 17.6475C5.03263 17.6561 5.05173 17.6647 5.07021 17.6732C4.99937 17.8267 4.95501 17.9925 4.79053 18.103Z" fill="#F8F2EA"/>
<path d="M57.2931 22.6363C57.2568 22.4914 57.2204 22.3465 57.1841 22.2017C57.2907 22.3091 57.3362 22.4368 57.3381 22.5792C57.3615 22.6283 57.3381 22.6412 57.2925 22.6363H57.2931Z" fill="#F8F2EA"/>
<path d="M56.8888 40.5649C56.903 40.5815 56.9172 40.5987 56.9314 40.6153C56.8858 40.7436 56.8346 40.8688 56.7114 41.0051C56.757 40.8234 56.8118 40.6902 56.8888 40.5649Z" fill="#F8F2EA"/>
<path d="M8.32015 11.752C8.3374 11.7691 8.35527 11.7869 8.37252 11.8041C8.31399 11.9367 8.20803 12.0307 8.09961 12.1252C8.14335 11.9828 8.21358 11.8569 8.32015 11.752Z" fill="#F8F2EA"/>
<path d="M4.5875 41.2354C4.66512 41.3704 4.73843 41.5061 4.75445 41.6669C4.66081 41.5466 4.58442 41.4183 4.55054 41.2679C4.56286 41.2568 4.57518 41.2464 4.5875 41.2354Z" fill="#F8F2EA"/>
<path d="M13.2969 51.2311C13.2969 51.2102 13.2963 51.1893 13.2957 51.1685C13.4176 51.2384 13.5291 51.3213 13.6135 51.4404C13.4959 51.3895 13.3776 51.3403 13.2969 51.2317V51.2311Z" fill="#F8F2EA"/>
<path d="M56.9005 21.0308C56.8056 20.9271 56.7348 20.8147 56.76 20.6201C56.8186 20.7914 56.8598 20.9111 56.9005 21.0308Z" fill="#F8F2EA"/>
<path d="M57.2927 22.6362C57.3081 22.6172 57.3229 22.5981 57.3383 22.5791C57.3999 22.6933 57.4178 22.8167 57.3987 22.9493C57.3636 22.8449 57.3278 22.7406 57.2927 22.6362Z" fill="#F8F2EA"/>
<path d="M57.9646 37.4125C57.9806 37.4192 57.996 37.418 58.0114 37.4106C57.9763 37.5224 57.9412 37.6347 57.8851 37.8133C57.8654 37.62 57.8975 37.5125 57.9646 37.4131V37.4125Z" fill="#F8F2EA"/>
<path d="M24.7009 2.51329C24.8291 2.44884 24.9634 2.4206 25.1574 2.44331C24.9781 2.47953 24.8556 2.54153 24.7169 2.53232C24.7114 2.52619 24.7065 2.51943 24.7009 2.51329Z" fill="#F8F2EA"/>
<path d="M12.8502 50.8893C12.7492 50.8077 12.6482 50.7266 12.5471 50.645C12.5588 50.6333 12.5699 50.621 12.5816 50.6094C12.6968 50.6769 12.7985 50.7604 12.8841 50.8623C12.8693 50.8666 12.8582 50.8758 12.8502 50.8893Z" fill="#F8F2EA"/>
<path d="M57.7256 38.3381C57.7126 38.3246 57.6997 38.3105 57.6868 38.297C57.7176 38.1902 57.7484 38.0834 57.7792 37.9766C57.7958 38.1042 57.8007 38.2289 57.725 38.3381H57.7256Z" fill="#F8F2EA"/>
</g>
<path d="M39.8013 42.8364C39.8242 42.9214 39.7604 42.9665 39.723 43.021C39.1854 43.8053 38.447 44.354 37.6244 44.8031C36.2957 45.5304 34.8606 45.9405 33.377 46.1923C32.0258 46.4208 30.6548 46.5117 29.2853 46.4636C26.8106 46.3786 24.3998 45.9643 22.0971 45.0175C21.0763 44.5998 20.1167 44.0818 19.2822 43.3519C19.1291 43.2183 18.9964 43.0601 18.8432 42.9265C18.4689 42.5982 18.429 42.1524 18.4043 41.7024C18.3735 41.1955 18.3909 40.6868 18.4562 40.1831C18.4749 40.0402 18.4358 40.0266 18.3048 40.0317C16.9182 40.0844 15.5571 39.9747 14.2411 39.5145C13.9035 39.4023 13.5838 39.2422 13.2917 39.039C13.1354 38.9348 13.0256 38.7741 12.9855 38.5907C12.5449 36.7067 12.731 34.7304 13.5155 32.9617C13.6072 32.7604 13.7124 32.5654 13.8302 32.3782C13.8555 32.3441 13.8681 32.3022 13.8658 32.2598C13.8634 32.2174 13.8463 32.1771 13.8175 32.1459C13.5325 31.7206 13.2807 31.2808 13.1641 30.7849C13.0255 30.1945 13.1242 29.6126 13.313 29.0478C13.598 28.1971 14.0786 27.4553 14.6222 26.751C15.0171 26.2538 15.3794 25.7315 15.7068 25.1874C16.009 24.6542 16.1894 24.0607 16.2351 23.4495C16.2844 22.9102 16.2708 22.3683 16.3669 21.8332C16.7208 19.858 18.0946 18.3948 20.0401 17.9814C21.3493 17.7024 22.6245 17.8768 23.8682 18.3565C24.0604 18.424 24.2472 18.5059 24.4271 18.6015C24.5776 18.6866 24.6712 18.6551 24.7911 18.5488C25.6073 17.8209 26.5744 17.2826 27.623 16.9725C29.4945 16.4127 31.2733 16.6747 32.9746 17.5943C33.5538 17.9094 34.0885 18.3002 34.5645 18.7563C34.7449 18.9265 34.7423 18.9154 34.9456 18.7768C36.6359 17.6258 38.4138 17.3621 40.3151 18.2323C41.4363 18.7433 42.3709 19.5903 42.9896 20.6559C43.3222 21.2114 43.4149 21.8145 43.4209 22.45C43.426 22.8872 43.4209 23.3253 43.4439 23.7617C43.4805 24.4139 43.6914 25.0443 44.0546 25.5873C44.4468 26.1887 44.9291 26.7229 45.3434 27.3073C45.7186 27.8356 46.0895 28.3707 46.2239 29.0214C46.3489 29.6263 46.3413 30.2387 46.2911 30.8504C46.2496 31.4272 46.1205 31.9943 45.9083 32.5322C45.8921 32.5659 45.8837 32.6028 45.8837 32.6402C45.8837 32.6776 45.8921 32.7145 45.9083 32.7482C46.368 33.7841 46.649 34.8903 46.7394 36.0199C46.8066 36.7421 46.7947 37.4661 46.6152 38.1755C46.5714 38.3986 46.4511 38.5993 46.2749 38.7429C45.3859 39.4345 44.3898 39.9151 43.3333 40.2852C42.3408 40.6258 41.3108 40.8451 40.2657 40.9385C40.1296 40.9513 40.1058 40.9989 40.1092 41.1189C40.1203 41.457 40.099 41.7954 40.0454 42.1295C40.0395 42.1652 40.0573 42.2196 39.9884 42.2145C40.0046 41.9882 40.0352 41.7611 40.0335 41.534C40.0276 40.8152 39.9136 40.1117 39.7783 39.4073C39.6134 38.4901 39.341 37.5956 38.9668 36.7421C38.8324 36.4436 38.7924 36.2105 38.9557 35.8957C39.336 35.1641 39.4712 34.3526 39.5852 33.5445C39.6992 32.7363 39.7264 31.9069 39.4534 31.1056C39.2372 30.4534 38.9882 29.8126 38.7073 29.1856C38.4589 28.6446 38.0999 28.1648 37.809 27.6493C37.5921 27.2622 37.3837 26.8701 37.1608 26.4532C38.0001 26.6418 38.8779 26.5522 39.6618 26.198C39.6322 26.4503 39.6379 26.7054 39.6788 26.956C39.8047 27.7122 40.2419 28.2898 40.7685 28.8062C41.3359 29.3617 41.9722 29.8364 42.5949 30.3264C43.2618 30.8512 43.8854 31.4135 44.3447 32.1417C44.9351 33.0774 45.1954 34.1289 45.3953 35.1948C45.5408 35.9791 45.5816 36.7804 45.6165 37.5766C45.6284 37.8557 45.6522 38.1347 45.7756 38.3941C45.83 38.509 45.887 38.6306 46.0248 38.6349C46.1626 38.6391 46.2451 38.5166 46.3013 38.3993C46.415 38.1361 46.473 37.8523 46.4714 37.5656C46.4954 36.8368 46.4412 36.1076 46.3098 35.3904C46.133 34.3553 45.8123 33.35 45.357 32.4037C45.3153 32.3186 45.3196 32.2744 45.3962 32.2166C45.4962 32.1353 45.5765 32.0323 45.6309 31.9154C45.9666 31.2497 46.0856 30.4957 45.9712 29.759C45.8436 28.8768 45.4251 28.1427 44.8713 27.457C44.0772 26.4933 43.4362 25.4131 42.9709 24.2543C42.8534 23.9744 42.8055 23.6702 42.8314 23.3678C42.8858 22.8056 42.9352 22.2458 42.7752 21.6852C42.5881 21.0319 42.3337 20.4169 41.8497 19.9286C41.241 19.3058 40.5047 18.8221 39.6915 18.5105C38.8372 18.1704 37.9059 18.0715 36.9992 18.2247C36.1896 18.3771 35.4259 18.7136 34.767 19.2081C34.7555 19.2215 34.7412 19.2323 34.7251 19.2397C34.709 19.2472 34.6916 19.251 34.6738 19.251C34.6561 19.251 34.6386 19.2472 34.6226 19.2397C34.6065 19.2323 34.5922 19.2215 34.5807 19.2081C34.294 18.9707 34.0397 18.6925 33.7156 18.502C32.95 18.0511 32.1843 17.6096 31.2988 17.3961C30.6423 17.2343 29.9658 17.1678 29.2904 17.1988C28.2262 17.2541 27.2487 17.6181 26.313 18.1166C25.7901 18.4122 25.3063 18.772 24.8728 19.1876C24.8252 19.231 24.7877 19.3144 24.6899 19.237C24.2878 18.9402 23.8485 18.6974 23.3833 18.5148C22.6217 18.1948 21.786 18.0931 20.9699 18.2213C19.8366 18.381 18.7771 18.8763 17.9279 19.6436C16.8799 20.5734 16.4596 21.7388 16.6009 23.1178C16.6476 23.5729 16.64 24.0118 16.412 24.4261C16.344 24.5612 16.2829 24.6998 16.2291 24.8412C15.975 25.4345 15.6684 26.0038 15.3129 26.5426C15.028 26.9815 14.7056 27.3975 14.4325 27.8449C14.0463 28.4787 13.6992 29.1303 13.5912 29.8806C13.4712 30.7058 13.5912 31.4722 14.145 32.1306C14.2054 32.2021 14.1781 32.2506 14.145 32.3152C13.3324 33.9518 12.9339 35.7629 12.9846 37.5894C12.9923 37.8846 13.0246 38.1849 13.1709 38.4528C13.2279 38.5575 13.3062 38.6604 13.4347 38.6528C13.5631 38.6451 13.6158 38.5422 13.666 38.4375C13.8013 38.1568 13.82 37.8548 13.8362 37.552C13.8949 36.5865 13.9357 35.6184 14.162 34.6716C14.3406 33.9349 14.5363 33.2067 14.8919 32.5305C15.2968 31.758 15.8761 31.1328 16.5498 30.5918C17.1538 30.1069 17.7705 29.6365 18.3567 29.1286C18.8611 28.6905 19.3103 28.2048 19.591 27.5855C19.7774 27.1543 19.8478 26.6819 19.7951 26.2151C20.5753 26.567 21.4479 26.6588 22.2842 26.4771L22.2255 26.5953C21.7474 27.537 21.1792 28.4243 20.6297 29.3243C20.0342 30.294 19.6088 31.3327 19.5544 32.482C19.5127 33.3241 19.688 34.1195 20.2783 34.7694C20.3549 34.8545 20.3149 34.9149 20.2783 34.9863C20.0142 35.5053 19.7848 36.0413 19.5918 36.5907C19.2556 37.5538 19.0224 38.5499 18.896 39.5621C18.7675 40.4919 18.7063 41.4336 18.8883 42.3642C18.9165 42.5437 18.989 42.7133 19.0993 42.8576C19.2779 43.0771 19.4719 43.0601 19.6097 42.8142C19.6975 42.6628 19.7593 42.4978 19.7926 42.326C19.9006 41.7509 19.8777 41.1648 19.9304 40.5855C20.0223 39.6106 20.0954 38.6357 20.3506 37.6838C20.5667 36.8782 20.7862 36.0752 21.1724 35.3309C21.6904 34.3305 22.4365 33.5215 23.3084 32.8222C24.1804 32.123 25.1042 31.4467 25.9234 30.6649C26.5452 30.0695 27.0675 29.4068 27.2947 28.5527C27.3914 28.1517 27.4202 27.7374 27.3797 27.3269C28.7961 27.9453 30.1946 27.9045 31.6059 27.2869C31.6059 27.3396 31.6059 27.372 31.6059 27.4043C31.6245 28.0342 31.7449 28.657 31.9623 29.2486C32.3613 30.2872 33.0316 31.12 33.8593 31.8465C34.3272 32.2565 34.8189 32.6436 35.24 33.1047C35.7716 33.6865 36.2038 34.3432 36.647 34.9932C37.729 36.5805 38.4087 38.3337 38.817 40.2001C38.9872 40.9657 39.0986 41.7467 39.2016 42.5267C39.211 42.611 39.2423 42.6913 39.2922 42.7598C39.3422 42.8282 39.4092 42.8825 39.4865 42.9172C39.6167 42.9784 39.7162 42.9231 39.8013 42.8364Z" fill="#F8F2EA"/>
<path d="M39.8014 42.8363C39.7164 42.9213 39.6177 42.9783 39.4901 42.9171C39.4129 42.8823 39.3461 42.828 39.2963 42.7595C39.2464 42.691 39.2153 42.6108 39.2059 42.5266C39.103 41.7465 38.9899 40.9682 38.8214 40.2C38.4131 38.3336 37.7334 36.5804 36.6514 34.993C36.2082 34.3431 35.776 33.6864 35.2444 33.1046C34.819 32.6435 34.3316 32.2539 33.8637 31.8464C33.036 31.1208 32.3657 30.2871 31.9667 29.2485C31.7493 28.6569 31.6289 28.0341 31.6103 27.4042C31.6103 27.3719 31.6103 27.3395 31.6103 27.2868C30.199 27.9044 28.8031 27.9452 27.3841 27.3268C27.4246 27.7373 27.3958 28.1516 27.2991 28.5526C27.0719 29.4033 26.5496 30.0711 25.9278 30.6648C25.1086 31.4466 24.1941 32.111 23.3128 32.8221C22.4315 33.5333 21.6965 34.3304 21.1768 35.3308C20.7906 36.0751 20.5711 36.8781 20.355 37.6837C20.0998 38.6356 20.0267 39.6105 19.9348 40.5854C19.8795 41.1647 19.905 41.7508 19.797 42.3259C19.7637 42.4977 19.7019 42.6627 19.6141 42.8141C19.4737 43.06 19.2798 43.077 19.1037 42.8575C18.9934 42.7132 18.9208 42.5436 18.8927 42.3641C18.7107 41.4284 18.7719 40.4927 18.9004 39.562C19.0268 38.5498 19.26 37.5537 19.5962 36.5906C19.7892 36.0412 20.0186 35.5052 20.2827 34.9862C20.3201 34.9148 20.3601 34.8544 20.2827 34.7693C19.6923 34.1194 19.5171 33.3232 19.5588 32.4819C19.6158 31.3326 20.0411 30.2939 20.634 29.3242C21.1836 28.4241 21.7518 27.5377 22.2299 26.5952L22.2886 26.477C21.4523 26.6587 20.5797 26.5669 19.7995 26.2149C19.8522 26.6817 19.7818 27.1542 19.5954 27.5854C19.3147 28.2047 18.8655 28.6913 18.361 29.1285C17.7749 29.6389 17.1582 30.1068 16.5542 30.5917C15.8805 31.1327 15.3012 31.7579 14.8963 32.5303C14.5364 33.2066 14.3408 33.9348 14.1655 34.6749C13.9392 35.6217 13.8984 36.5898 13.8397 37.5553C13.821 37.8581 13.8023 38.1601 13.6696 38.4408C13.6194 38.5455 13.5573 38.6484 13.4382 38.656C13.3191 38.6637 13.2315 38.5608 13.1745 38.4561C13.0282 38.1873 12.9958 37.8879 12.9882 37.5927C12.9375 35.7662 13.3359 33.9551 14.1485 32.3185C14.1808 32.2539 14.2081 32.2054 14.1485 32.1339C13.5981 31.4755 13.4748 30.7091 13.5947 29.8839C13.7028 29.1336 14.0498 28.482 14.436 27.8482C14.7091 27.4008 15.0315 26.9848 15.3165 26.5459C15.6719 26.0071 15.9785 25.4378 16.2327 24.8445C16.2865 24.7031 16.3475 24.5645 16.4156 24.4294C16.6435 24.0151 16.6512 23.5787 16.6044 23.121C16.4632 21.7421 16.8834 20.5767 17.9315 19.6469C18.7792 18.8795 19.8371 18.3832 20.9692 18.222C21.7855 18.0935 22.6215 18.1948 23.3834 18.5146C23.8503 18.6961 24.2913 18.938 24.6952 19.2343C24.7947 19.3117 24.8304 19.2284 24.8781 19.185C25.3101 18.769 25.7925 18.4086 26.314 18.1123C27.2497 17.6138 28.228 17.2497 29.2914 17.1944C29.9668 17.1634 30.6433 17.2299 31.2998 17.3918C32.1828 17.6036 32.9492 18.0451 33.7166 18.4976C34.0407 18.6882 34.295 18.9664 34.5817 19.2037C34.5932 19.2172 34.6075 19.228 34.6236 19.2354C34.6396 19.2428 34.6571 19.2466 34.6748 19.2466C34.6925 19.2466 34.71 19.2428 34.7261 19.2354C34.7422 19.228 34.7565 19.2172 34.768 19.2037C35.4269 18.7092 36.1906 18.3728 37.0002 18.2203C37.9069 18.0672 38.8382 18.166 39.6925 18.5061C40.5057 18.8177 41.242 19.3015 41.8507 19.9242C42.3347 20.4125 42.5891 21.0301 42.7762 21.6809C42.9362 22.2415 42.8868 22.8012 42.8324 23.3635C42.8065 23.6659 42.8544 23.97 42.9719 24.2499C43.4372 25.4087 44.0782 26.489 44.8723 27.4527C45.4261 28.1332 45.8446 28.8725 45.9722 29.7546C46.0866 30.4913 45.9676 31.2453 45.6319 31.9111C45.5775 32.0279 45.4972 32.1309 45.3972 32.2122C45.3206 32.27 45.3163 32.316 45.358 32.3993C45.8125 33.3452 46.1327 34.3499 46.3091 35.3844C46.4405 36.1016 46.4947 36.8308 46.4707 37.5595C46.4723 37.8462 46.4143 38.1301 46.3006 38.3932C46.2444 38.5106 46.1687 38.6322 46.0241 38.6288C45.8795 38.6254 45.8293 38.5029 45.7749 38.3881C45.6515 38.1286 45.6277 37.8496 45.6158 37.5706C45.5809 36.7718 45.5401 35.9705 45.3946 35.1887C45.1972 34.1228 44.9344 33.0722 44.344 32.1356C43.8847 31.4075 43.2611 30.8452 42.5942 30.3203C41.9715 29.8303 41.3352 29.3556 40.7678 28.8001C40.2412 28.2838 39.804 27.7062 39.6781 26.9499C39.6372 26.6993 39.6315 26.4442 39.6611 26.192C38.8772 26.5461 37.9993 26.6357 37.1601 26.4472C37.3847 26.864 37.5914 27.2562 37.8083 27.6432C38.0992 28.1604 38.4582 28.6385 38.7066 29.1795C38.9875 29.8065 39.2365 30.4473 39.4526 31.0995C39.7257 31.9009 39.701 32.7158 39.5845 33.5384C39.468 34.361 39.3353 35.1547 38.955 35.8897C38.7917 36.2044 38.8317 36.4375 38.9661 36.7361C39.3401 37.5898 39.6122 38.4847 39.7768 39.4021C39.9129 40.1081 40.0268 40.8117 40.032 41.5288C40.032 41.7551 40.003 41.9822 39.9869 42.2093C39.9645 42.4063 39.9132 42.5989 39.8346 42.781L39.7955 42.8371L39.8014 42.8363ZM19.1062 27.5548C19.1224 27.5411 19.1454 27.5216 19.1267 27.5037C19.1079 27.4859 19.0816 27.5114 19.0646 27.5284L19.045 27.5548L18.9812 27.6398L18.948 27.6764L18.9131 27.7113C18.891 27.7283 18.8612 27.7598 18.8783 27.7751C18.9157 27.8083 18.931 27.7606 18.9506 27.7385L18.9752 27.7121L19.011 27.673L19.0765 27.5947L19.1062 27.5548ZM19.1819 27.4637L19.2143 27.4178C19.2279 27.4016 19.2517 27.3846 19.227 27.3642C19.2024 27.3438 19.1913 27.3744 19.176 27.3863L19.1513 27.4255C19.1352 27.4391 19.113 27.4544 19.1326 27.4773C19.1522 27.5003 19.1683 27.4739 19.1819 27.4603V27.4637ZM41.0859 28.197L41.0553 28.2217L41.0757 28.2421L41.0834 28.197L41.0255 28.1732L40.9932 28.1366L40.9549 28.1043L40.9235 28.0677C40.903 28.0405 40.8877 27.9997 40.846 28.0439C40.8605 27.9588 40.8018 27.9452 40.7423 27.9316C40.7525 27.9154 40.7499 27.9018 40.7304 27.895C40.7304 27.895 40.7167 27.9001 40.7167 27.9035C40.7167 27.924 40.727 27.9299 40.7457 27.9291C40.7531 27.9539 40.7663 27.9766 40.7842 27.9954C40.8021 28.0141 40.8242 28.0284 40.8486 28.0371C40.8682 28.0686 40.8843 28.1137 40.9337 28.0643C40.8877 28.0873 40.9192 28.1051 40.9337 28.123C40.9481 28.1409 40.9694 28.174 40.9975 28.1341C40.9975 28.1468 40.9694 28.1519 40.989 28.1732C41.0085 28.1945 41.0162 28.1732 41.0289 28.1732C41.0289 28.1953 41.0289 28.22 41.0536 28.2242C41.063 28.2183 41.0774 28.2021 41.0859 28.1936V28.197ZM18.7541 27.9418L18.7889 27.9069C18.8017 27.8908 18.8323 27.8755 18.8017 27.855C18.7711 27.8346 18.7651 27.8687 18.7498 27.8831L18.7251 27.9163C18.7132 27.9316 18.6954 27.9478 18.7251 27.9631C18.7268 27.9597 18.743 27.9427 18.7541 27.935V27.9418ZM26.075 29.473L26.1047 29.4509L26.1388 29.4152L26.1736 29.3795L26.2077 29.3437L26.2434 29.3097L26.2791 29.2757L26.3114 29.2374C26.3276 29.2229 26.3506 29.2042 26.3319 29.1855C26.3131 29.1668 26.2868 29.1923 26.2689 29.2102L26.2408 29.2433L26.206 29.2774L26.1694 29.3131C26.1583 29.325 26.1473 29.3361 26.1371 29.348L26.109 29.3726L26.0664 29.4194C26.0664 29.4305 26.0571 29.4407 26.0528 29.4509L26.006 29.4926L25.8946 29.587L25.5884 29.8737L25.6181 29.906C25.7191 29.8096 25.8198 29.7129 25.9201 29.6159C25.9437 29.6061 25.965 29.5918 25.983 29.5737C26.001 29.5556 26.0152 29.5341 26.0248 29.5105L26.075 29.473ZM26.3812 29.1481L26.4229 29.1166L26.4331 29.1098V29.0979L26.5122 28.9813L26.5428 28.9482C26.5326 28.9482 26.5199 28.9397 26.5139 28.9482C26.4952 28.9609 26.5062 28.9754 26.5139 28.9881C26.445 28.9609 26.451 29.0451 26.4093 29.0579C26.3982 29.0579 26.3923 29.0647 26.3914 29.0775L26.3582 29.1149C26.3429 29.1268 26.3208 29.1396 26.337 29.1625C26.3531 29.1855 26.3693 29.16 26.3812 29.143V29.1481ZM20.2478 33.9544L20.2419 33.9067L20.2232 33.9169L20.2495 33.9527L20.2853 34.0216C20.2864 34.0262 20.2884 34.0305 20.2912 34.0343C20.2912 34.0343 20.2963 34.0343 20.2997 34.0343L20.2827 34.0199C20.2819 33.9901 20.2793 33.962 20.2478 33.9493V33.9544ZM41.0774 20.6643C41.0613 20.649 41.0647 20.5979 41.0289 20.6218C40.9932 20.6456 41.0289 20.6703 41.0485 20.6898L41.0834 20.7596L41.1174 20.831C41.1217 20.8854 41.1474 20.9359 41.1889 20.9714C41.2169 20.894 41.1736 20.854 41.1421 20.8098C41.1319 20.7859 41.1208 20.7621 41.1098 20.7375C41.0987 20.7128 41.0902 20.6864 41.0774 20.6643ZM25.6335 24.6727C25.6335 24.6438 25.6437 24.6097 25.6003 24.6004L25.5884 24.5442C25.5833 24.5442 25.5756 24.5442 25.5748 24.5527C25.5731 24.5576 25.5724 24.5627 25.5729 24.5679C25.5733 24.573 25.5748 24.5779 25.5773 24.5824C25.5798 24.5869 25.5832 24.5908 25.5873 24.5939C25.5914 24.597 25.5961 24.5992 25.6011 24.6004C25.5998 24.6141 25.6023 24.628 25.6083 24.6404C25.6143 24.6529 25.6236 24.6634 25.6352 24.671L25.6547 24.6931L25.6335 24.6727ZM18.327 23.9343C18.3338 23.9385 18.3228 23.9717 18.3483 23.9479L18.3245 23.9368L18.3177 23.8892L18.3023 23.8952L18.327 23.9343ZM18.3959 24.0738L18.4087 24.0823L18.3942 24.0764C18.3866 24.0627 18.4121 24.0296 18.3713 24.0347L18.3959 24.0738ZM26.6721 28.6998C26.6976 28.7372 26.5871 28.7797 26.6764 28.8138C26.6075 28.8061 26.6075 28.8061 26.5462 28.9252L26.673 28.8146C26.673 28.7755 26.7325 28.7372 26.673 28.6989C26.6823 28.7117 26.673 28.7517 26.7104 28.7236L26.6721 28.6998ZM41.1974 23.7267C41.2061 23.7124 41.2141 23.6977 41.2212 23.6825C41.2212 23.6825 41.2212 23.674 41.2152 23.6697L41.1999 23.7293C41.1957 23.7437 41.1557 23.7505 41.1906 23.7735C41.1931 23.7539 41.1948 23.7378 41.1974 23.7267ZM37.9699 29.137C37.9521 29.1515 37.9384 29.1685 37.9538 29.1932C37.9538 29.1932 37.964 29.1974 37.9691 29.1991V29.137C37.9342 29.137 37.9342 29.0749 37.8883 29.0936C37.8993 29.1396 37.918 29.171 37.9699 29.137ZM37.8049 28.9805C37.816 29.0103 37.8253 29.0426 37.8653 29.0434C37.8789 29.0171 37.8585 29.0026 37.8457 28.9864C37.833 28.9703 37.816 28.9567 37.8006 28.9864C37.8415 28.9201 37.7887 28.8971 37.7462 28.8486C37.7432 28.8739 37.7471 28.8994 37.7574 28.9226C37.7678 28.9458 37.7842 28.9658 37.8049 28.9805ZM40.9779 20.5512C40.989 20.5614 41.0077 20.5809 41.0111 20.5792C41.0349 20.5614 41.023 20.5418 41.0111 20.5231C41 20.4712 40.9719 20.4244 40.9311 20.3904C40.9234 20.4189 40.9237 20.449 40.9319 20.4773C40.9402 20.5057 40.9561 20.5312 40.9779 20.5512ZM38.4403 35.1385C38.4091 35.1675 38.3842 35.2026 38.3672 35.2417C38.3502 35.2808 38.3415 35.323 38.3417 35.3656C38.3775 35.3401 38.4054 35.3051 38.4224 35.2645C38.4394 35.2239 38.4447 35.1794 38.4378 35.136L38.4676 35.1079L38.4506 35.0926L38.4403 35.1385ZM23.9908 22.5715L23.9797 22.563L23.9934 22.569C23.9829 22.7575 24.0012 22.9465 24.0478 23.1296C24.0771 22.9417 24.0574 22.7495 23.9908 22.5715ZM41.3326 21.2428C41.318 21.1498 41.2803 21.0621 41.2229 20.9876L41.1829 21.0054L41.268 21.2343C41.3466 21.4587 41.3961 21.6922 41.4151 21.9293C41.4288 22.2151 41.4704 22.5001 41.4024 22.7859C41.3633 22.956 41.3505 23.1262 41.3258 23.2963C41.3046 23.3099 41.2918 23.3414 41.3122 23.3482C41.3326 23.355 41.3301 23.3218 41.336 23.3048C41.3515 23.2816 41.3643 23.2568 41.3743 23.2308C41.5053 22.8242 41.4475 22.4022 41.467 21.9862C41.467 21.9692 41.4415 21.9522 41.4279 21.9344C41.4564 21.6995 41.4236 21.4612 41.3326 21.2428ZM19.4652 40.5837C19.4652 40.3072 19.5273 40.0316 19.478 39.7543C19.4403 40.0179 19.4255 40.2843 19.4337 40.5505C19.4048 40.6211 19.4009 40.6994 19.4227 40.7725C19.4469 40.7483 19.4638 40.7177 19.4713 40.6843C19.4788 40.6508 19.4767 40.616 19.4652 40.5837ZM37.6484 28.7457C37.6555 28.7708 37.6687 28.7938 37.6868 28.8126C37.7049 28.8315 37.7273 28.8456 37.7521 28.8537C37.7215 28.795 37.7156 28.7517 37.6671 28.7329C37.4818 28.3872 37.2738 28.0542 37.0444 27.736C37.1711 28.1162 37.4391 28.4114 37.6484 28.7457ZM25.3927 24.0755C25.3978 24.1987 25.4498 24.3153 25.5382 24.4013L25.391 24.0772C25.3783 24.0211 25.3689 23.9632 25.3527 23.9071C25.233 23.5024 25.1618 23.0849 25.1409 22.6634C25.1282 22.3725 25.163 22.0858 25.1775 21.7974C25.2524 21.1492 25.4999 20.5597 25.8325 19.9846C25.7925 19.9906 25.7781 19.9846 25.773 19.9948C25.7364 20.0399 25.7024 20.0867 25.6675 20.1335C25.3042 20.6158 25.1571 21.1713 25.1222 21.7625C25.1136 21.7957 25.1079 21.8296 25.1052 21.8638C25.1052 22.2457 25.0941 22.6294 25.1052 23.0105C25.1205 23.3817 25.2187 23.7447 25.3927 24.073V24.0755ZM18.0361 21.9335C18.0934 21.3963 18.2707 20.8788 18.555 20.4193C18.5652 20.404 18.5882 20.3895 18.555 20.3725C18.555 20.3725 18.538 20.3895 18.5286 20.3989C18.1641 20.8267 17.9798 21.3793 18.0148 21.9403C18.0003 21.9502 17.9888 21.964 17.9817 21.9801C17.9747 21.9962 17.9723 22.0139 17.9748 22.0313C17.9748 22.2755 17.9672 22.5213 17.9884 22.7638C18.0038 22.9424 17.9978 23.1313 18.1118 23.2912C18.048 22.8386 17.9502 22.3895 18.0361 21.931V21.9335ZM16.7601 24.2227C16.5551 24.7526 16.3347 25.2775 16.0914 25.7913C16.4122 25.3022 16.7184 24.8071 16.8094 24.2125C16.8651 24.0411 16.8918 23.8617 16.8885 23.6816L16.7601 24.2227ZM31.0633 18.2986C31.9695 18.6315 32.7317 19.2694 33.2189 20.1029C34.0815 21.5728 34.0781 23.0887 33.389 24.6242C33.3669 24.6744 33.3108 24.7203 33.3499 24.8122C33.4914 24.6057 33.6087 24.3836 33.6995 24.1504C34.261 22.7102 34.2176 21.3091 33.3814 19.9821C32.8319 19.1101 32.0297 18.5521 31.0548 18.2382C30.9444 18.1844 30.8217 18.161 30.6992 18.1701C30.8139 18.2265 30.935 18.2687 31.0599 18.296L31.0633 18.2986ZM18.2454 19.8987C18.0985 20.0037 17.9705 20.1329 17.8668 20.2806C17.5779 20.6217 17.3639 21.0197 17.2386 21.4488C17.1133 21.8779 17.0795 22.3285 17.1395 22.7714C17.1817 23.0006 17.207 23.2326 17.2152 23.4656C17.1888 24.551 16.9089 25.5455 16.2684 26.4429C15.8133 27.0818 15.3522 27.7189 14.9167 28.374C14.4811 29.029 14.3603 29.7019 14.4063 30.4505C14.4328 30.7962 14.5289 31.1329 14.6887 31.4406C15.1387 30.7176 15.7444 30.1646 16.3407 29.5981C16.4122 29.53 16.5236 29.4841 16.5585 29.4024C16.5933 29.3208 16.4794 29.2382 16.4521 29.1472C16.4368 29.097 16.4156 29.0494 16.3977 29.0001C16.1595 28.3518 16.339 27.7308 16.5525 27.1286C16.766 26.5263 17.1123 25.9521 17.4313 25.3847C17.8566 24.6191 18.0004 23.8373 17.7162 22.9841C17.5291 22.4209 17.5546 21.8382 17.6822 21.2581C17.7988 20.7817 18.0011 20.3306 18.2794 19.9268C18.2913 19.9098 18.3126 19.891 18.2794 19.874C18.2794 19.8706 18.2573 19.8902 18.2454 19.8987ZM33.5132 22.415C33.5178 22.1401 33.491 21.8655 33.4333 21.5966C33.0079 19.4308 30.8557 17.9728 28.7001 18.3939C26.8287 18.7588 25.5076 20.3045 25.4352 22.2508C25.38 23.7463 25.9975 24.944 27.1681 25.8458C28.0766 26.545 29.1246 26.8087 30.2475 26.5646C31.1829 26.3479 32.0163 25.8186 32.6101 25.0641C33.2039 24.3096 33.5225 23.3751 33.5132 22.415ZM41.2067 22.1955C41.1761 21.2019 40.7338 20.267 39.7972 19.5788C38.3816 18.5376 36.5382 18.6363 35.3413 19.8213C35.2486 19.9132 35.2444 19.9685 35.3175 20.0765C35.6221 20.5299 35.913 20.9893 36.0661 21.5269C36.2881 22.3095 36.3528 23.1176 36.477 23.9156C36.5621 24.4847 36.6242 25.0589 36.8394 25.6008C36.8526 25.6411 36.8766 25.6771 36.9089 25.7047C36.9411 25.7323 36.9804 25.7505 37.0223 25.7573C37.4414 25.8645 37.8781 25.8839 38.3051 25.8143C39.9979 25.531 41.2152 24.067 41.2067 22.1955ZM21.7263 18.8779C21.5902 18.8923 21.3971 18.9 21.2091 18.9357C20.1959 19.1271 19.3648 19.6299 18.8017 20.4942C18.3809 21.1395 18.186 21.9063 18.2475 22.6742C18.3091 23.4422 18.6237 24.1681 19.142 24.7382C20.0114 25.7062 21.1062 26.0431 22.3796 25.793C22.4536 25.7786 22.5557 25.7888 22.5855 25.6909C22.6289 25.5463 22.7012 25.4136 22.7395 25.2656C22.93 24.5187 23.0202 23.7522 23.1087 22.9917C23.2329 21.9173 23.5221 20.9178 24.1473 20.0288C24.2154 19.9319 24.1584 19.8978 24.1056 19.8468C23.4608 19.2097 22.6842 18.8923 21.7272 18.8719L21.7263 18.8779ZM41.5147 20.4533C41.5052 20.5515 41.5332 20.6497 41.5929 20.7281C41.8366 21.2018 41.964 21.7266 41.9647 22.2593C41.9567 22.8375 41.8497 23.4101 41.6482 23.9522C41.5682 24.1568 41.5595 24.3825 41.6236 24.5927C41.6525 24.6939 41.6831 24.7943 41.7137 24.8947C41.8618 25.3796 42.1467 25.793 42.4036 26.2218C43.017 27.2426 43.3326 28.3178 42.9464 29.5054C42.9208 29.5819 42.9617 29.6117 43.0068 29.6474C43.1896 29.7999 43.3635 29.963 43.5274 30.1357C43.877 30.4853 44.2734 30.7873 44.5737 31.1863C44.6324 31.2628 44.6962 31.3352 44.7702 31.4253C44.8936 31.1157 45.0135 30.8299 45.0356 30.51C45.0858 29.7725 45.0024 29.0851 44.5822 28.4378C44.1764 27.8117 43.7426 27.2051 43.3062 26.6046C42.6307 25.7099 42.2583 24.6231 42.2429 23.5021C42.2361 23.0598 42.2735 22.6157 42.2182 22.1742C42.1374 21.5482 41.8864 21.0046 41.5155 20.4474L41.5147 20.4533ZM24.5557 24.1453C24.5165 24.6914 24.4417 25.2418 24.1822 25.7513C23.9142 26.2779 23.557 26.7466 23.2269 27.2332C22.4741 28.3442 22.0547 29.5377 22.2376 30.9064C22.2963 31.3386 22.4307 31.7154 22.7216 32.0463L23.1197 31.706C23.4174 31.4508 23.4157 31.4508 23.2626 31.0834C23.0576 30.5883 22.9011 30.0821 23.0006 29.5377C23.1705 28.6164 23.5708 27.753 24.1643 27.0282C24.4017 26.7339 24.6467 26.4404 24.7794 26.0797C25.0312 25.3915 24.9257 24.7475 24.5565 24.1393L24.5557 24.1453ZM34.5936 20.4448C34.7238 20.8617 34.7374 21.3049 34.8488 21.7208C35.0531 22.4715 35.0636 23.2618 34.8794 24.0177C34.7144 24.7144 34.4881 25.3957 34.358 26.1018C34.1478 27.2375 34.3367 28.2906 34.9994 29.2493C35.1789 29.5045 35.3601 29.7648 35.5481 30.0149C36.021 30.6487 36.0857 31.3292 35.7599 32.0395C35.6748 32.2224 35.6995 32.3245 35.8449 32.4487C35.9445 32.5338 35.9717 32.5338 36.0261 32.4147C36.3766 31.6695 36.3188 30.9149 36.038 30.1757C35.805 29.5606 35.4341 29.0086 35.1567 28.4122C34.8165 27.6866 34.6957 26.9321 34.8565 26.1477C35.0036 25.4289 35.1006 24.7016 35.2316 23.9802C35.3626 23.2589 35.2758 22.5536 35.1976 21.8374C35.1423 21.2998 34.8888 20.8693 34.5979 20.4389L34.5936 20.4448ZM18.4308 25.1661C18.3389 25.651 18.0769 26.004 17.8047 26.357C17.5907 26.6259 17.4186 26.9256 17.2943 27.246C17.1055 27.7513 17.0187 28.2668 17.1658 28.8001C17.1956 28.9099 17.216 28.9703 17.353 28.8852C17.632 28.7151 17.8549 28.4896 18.0829 28.2668C18.7166 27.6483 19.1147 26.9116 19.1888 26.0159C19.1939 25.9546 19.2202 25.8874 19.1522 25.8407C18.8936 25.6527 18.6817 25.4213 18.4351 25.1601L18.4308 25.1661ZM38.0677 35.0951C38.8682 32.8519 38.3825 30.8511 37.4867 29.7954L37.5038 29.8899C37.6441 30.607 37.7453 31.3241 37.599 32.0548C37.4927 32.5848 37.2792 33.0756 37.0512 33.558C37.0265 33.6116 36.9738 33.6634 37.0308 33.7323C37.3898 34.1653 37.7275 34.6154 38.0677 35.0951ZM41.0017 25.1474C40.7704 25.4549 40.5018 25.7327 40.2021 25.9742C40.1476 26.0159 40.1698 26.0661 40.174 26.1171C40.2121 26.7027 40.4503 27.2574 40.8486 27.6883C41.0077 27.858 41.1549 28.0385 41.2892 28.2285C41.4704 28.4999 41.7299 28.6879 41.9945 28.869C42.0549 28.9107 42.0965 28.9422 42.1187 28.8299C42.2446 28.1979 42.2097 27.5743 41.8779 27.0197C41.5283 26.4344 41.1974 25.8466 41.0017 25.1474ZM35.9734 23.879C35.856 24.6165 35.5778 25.3107 35.4256 26.038C35.2511 26.8001 35.3461 27.5991 35.6944 28.2991C35.93 28.7738 36.1605 29.251 36.3979 29.724C36.9125 30.7516 36.9083 31.7715 36.3604 32.7864C36.3494 32.8068 36.3409 32.8289 36.3281 32.8485C36.2966 32.897 36.3281 32.9293 36.363 32.9489C36.414 32.9795 36.4174 32.9234 36.4285 32.8978C36.5799 32.5644 36.7688 32.2454 36.8334 31.877C36.9979 30.9348 36.885 29.9652 36.5085 29.086C36.0108 27.8763 35.8517 26.6071 35.913 25.3064C35.9309 24.8326 36.0142 24.3605 35.9734 23.879ZM25.539 25.9155C25.3689 26.4897 25.0584 26.9703 24.6807 27.4127C24.4153 27.724 24.1788 28.0567 24.0504 28.4497C23.9057 28.8946 23.9287 29.3565 23.9449 29.8107C23.9481 30.1213 24.0177 30.4276 24.149 30.7091C24.1652 30.7422 24.1763 30.8281 24.2341 30.7839C24.3974 30.6538 24.5522 30.5125 24.7045 30.3688C24.7411 30.3339 24.6986 30.2795 24.6892 30.2361C24.6328 30.0098 24.6104 29.7765 24.6229 29.5436C24.685 28.7687 24.975 28.0686 25.3383 27.3931C25.5056 27.1077 25.643 26.8059 25.7483 26.4923C25.8223 26.2456 25.7653 26.0669 25.539 25.9155ZM20.9607 33.8846C21.2313 33.5364 21.5233 33.2054 21.8352 32.8936C21.899 32.8323 21.8794 32.7924 21.8463 32.732C21.7613 32.5864 21.6852 32.4358 21.6183 32.2811C21.3137 31.53 21.2261 30.7414 21.2287 29.9375C21.2287 29.9069 21.2635 29.8592 21.2057 29.8371C20.4911 31.0144 20.5762 32.7592 20.9607 33.8846ZM34.1019 24.9364C34.073 24.9679 34.0543 24.9781 34.0509 24.9917C33.9301 25.4885 33.7599 25.9742 33.6859 26.4804C33.4843 27.8508 33.8901 29.0834 34.603 30.2301C34.8701 30.6597 35.0776 31.0961 35.0725 31.6116C35.0663 31.6527 35.0762 31.6946 35.1001 31.7285C35.1241 31.7624 35.1602 31.7858 35.201 31.7937C35.2468 31.6056 35.2577 31.4107 35.2333 31.2186C35.1635 30.493 34.8428 29.8575 34.4898 29.2408C33.9003 28.2089 33.7429 27.0988 33.8841 25.9376C33.9233 25.6076 34.0236 25.2852 34.1019 24.9364ZM25.4769 29.6347L25.6564 29.456C26.3029 28.8189 26.6908 28.0601 26.7393 27.1422C26.7393 27.0767 26.7785 26.9993 26.7104 26.9465C26.5947 26.8564 26.4748 26.7764 26.3659 26.6913C26.063 27.6773 25.4497 28.55 25.4769 29.6347ZM33.2181 26.1392C33.0845 26.2983 33.0683 26.5008 33.0564 26.6862C33.0028 27.5428 33.1296 28.3723 33.5141 29.1481C33.7446 29.6125 34.0202 30.0642 34.0747 30.5874C34.1104 30.9319 34.3775 31.034 34.591 31.2611C34.5867 31.0174 34.5335 30.777 34.4345 30.5542C34.3078 30.299 34.1666 30.0515 34.0185 29.8073C33.6034 29.1452 33.3268 28.4059 33.2053 27.6339C33.1357 27.1378 33.1397 26.6341 33.2172 26.1392H33.2181ZM32.7281 26.5646C32.6124 26.7194 32.4167 26.7254 32.4125 26.921C32.3963 27.6662 32.472 28.3961 32.7698 29.0902C32.9499 29.5055 33.198 29.8879 33.5039 30.2216C33.2827 29.6415 32.9935 29.0885 32.8412 28.4845C32.6807 27.8566 32.642 27.2037 32.7272 26.5612L32.7281 26.5646ZM22.1627 27.7912C22.6008 27.2808 23.0219 26.7662 23.3315 26.1665C23.6939 25.4638 23.8879 24.7084 23.8249 24.255C23.7971 24.2908 23.7818 24.3347 23.7815 24.38C23.694 24.8803 23.517 25.3606 23.2592 25.7981C22.8645 26.4421 22.5208 27.1184 22.1619 27.7878L22.1627 27.7912ZM21.7671 31.5197L21.728 31.5427C21.7931 31.8367 21.8918 32.1221 22.0223 32.3934C22.127 32.5959 22.121 32.5916 22.2869 32.4393C22.3643 32.367 22.3822 32.327 22.2869 32.2615C22.1287 32.1414 22.0039 31.9826 21.9245 31.8005C21.876 31.7035 21.8216 31.6125 21.7671 31.5197ZM42.1722 27.0282C42.1093 26.4821 41.6618 26.169 41.3828 25.7522C41.4645 25.9856 41.5791 26.2062 41.7231 26.4072C41.8677 26.619 42.0438 26.8036 42.1748 27.0282H42.1722ZM37.9708 37.0151C37.9903 36.7148 37.2528 35.3401 37.0418 35.25C37.3821 35.8222 37.693 36.4113 37.9733 37.0151H37.9708ZM42.6937 24.2261C42.7065 24.6233 42.9744 25.2469 43.3147 25.6603C43.1071 25.1822 42.9001 24.7042 42.6937 24.2261ZM23.5102 29.5777C23.3868 30.003 23.6012 30.7567 23.819 31.0936C23.6279 30.6103 23.5234 30.0972 23.5102 29.5777ZM24.4706 21.0803C24.2832 21.4698 24.2208 21.9078 24.2919 22.3342C24.3093 21.9113 24.3691 21.4912 24.4706 21.0803ZM26.7334 28.18C26.8873 28.015 27.0039 27.4484 26.9435 27.1371C26.9287 27.4936 26.8578 27.8456 26.7334 28.18ZM42.7175 27.9537C42.7141 28.2719 42.6747 28.5886 42.6001 28.898C42.7243 28.5926 42.8196 28.2838 42.7175 27.9537ZM16.8571 28.9252C16.7875 28.6334 16.7445 28.3358 16.7286 28.0362C16.6554 28.2481 16.6963 28.5424 16.8571 28.9252ZM39.5598 40.5701H39.5147C39.5635 40.8468 39.6114 41.1227 39.6585 41.3978L39.7104 41.3884C39.6483 41.1153 39.644 40.8346 39.5598 40.5701ZM32.2304 28.5611C32.2312 28.8523 32.295 29.1399 32.4176 29.4041C32.3529 29.1234 32.2905 28.8424 32.2304 28.5611ZM45.9263 36.0836C45.9054 36.29 45.9117 36.4982 45.945 36.7029C45.9673 36.4966 45.961 36.2882 45.9263 36.0836ZM13.4305 37.2567C13.4203 36.9164 13.4246 36.5762 13.4093 36.2308C13.4016 36.5719 13.3574 36.9122 13.4305 37.2567ZM32.2815 27.086C32.2454 27.3318 32.2529 27.5821 32.3036 27.8253C32.3273 27.5789 32.3198 27.3305 32.2815 27.086ZM39.9877 26.1299C39.9877 26.4004 40.0081 26.6641 40.1715 26.8955C40.0924 26.6428 40.0609 26.3808 39.9877 26.1299ZM26.0154 27.0979C26.1309 26.9437 26.1881 26.7536 26.177 26.5612C26.1234 26.7407 26.069 26.9193 26.0154 27.0979ZM36.4932 26.6505C36.5263 26.9057 36.551 27.1609 36.6897 27.394L36.4932 26.6505ZM42.4317 27.9529C42.4742 27.6977 42.3654 27.4893 42.2658 27.2723L42.4317 27.9529ZM16.8554 23.3116C16.8894 23.0904 16.8247 22.8778 16.8026 22.6659C16.7643 22.8812 16.8332 23.0938 16.8554 23.3116ZM42.6035 23.2835C42.6197 23.0794 42.6886 22.8761 42.6529 22.6498C42.624 22.8709 42.5619 23.0717 42.6035 23.2835ZM46.0326 37.2439C46.0729 36.9971 46.0757 36.7456 46.0411 36.4979C46.0241 36.6233 46.019 36.7501 46.0258 36.8764C46.0318 36.9972 45.9484 37.1206 46.0326 37.2439ZM42.6401 24.0823C42.6129 23.8926 42.5848 23.7029 42.5644 23.5115C42.578 23.7038 42.5593 23.8969 42.6401 24.0823ZM37.2953 32.2488C37.3762 32.0673 37.4143 31.8697 37.4068 31.6712C37.3321 31.8545 37.2942 32.0508 37.2953 32.2488ZM39.4526 32.037C39.3191 32.2207 39.4127 32.4044 39.4526 32.589V32.037ZM36.9159 28.8784C36.8766 28.7175 36.8025 28.5671 36.699 28.4378C36.7445 28.5964 36.8179 28.7456 36.9159 28.8784ZM19.4627 26.0712C19.438 26.2303 19.3776 26.3859 19.4142 26.5501C19.4801 26.3995 19.4971 26.232 19.4627 26.0712ZM19.3597 41.2804C19.3955 41.0847 19.3444 40.9469 19.3198 40.8048C19.3026 40.9645 19.3161 41.1259 19.3597 41.2804ZM19.3487 39.9082C19.3094 40.0363 19.3001 40.1716 19.3215 40.3038C19.3535 40.1745 19.3627 40.0407 19.3487 39.9082ZM41.0349 24.0483C41.04 24.0764 41.0502 24.0806 41.0596 24.0678C41.1131 24.0067 41.1403 23.9269 41.1353 23.8458C41.1012 23.9164 41.0664 23.9862 41.0349 24.0483ZM17.182 26.3451C17.2188 26.3191 17.2494 26.2854 17.2718 26.2463C17.2941 26.2072 17.3076 26.1637 17.3113 26.1188C17.2466 26.181 17.2017 26.2609 17.182 26.3485V26.3451ZM38.619 30.0209C38.6232 30.1164 38.6545 30.2087 38.7092 30.2871C38.7237 30.2388 38.7226 30.1872 38.7061 30.1396C38.6896 30.0919 38.6585 30.0507 38.6173 30.0217L38.619 30.0209ZM39.3301 39.1937C39.3456 39.1135 39.3317 39.0305 39.291 38.9597C39.2672 39.0542 39.3089 39.1239 39.3284 39.1971L39.3301 39.1937ZM18.1484 23.4239C18.15 23.4061 18.15 23.3881 18.1484 23.3703C18.1484 23.3652 18.1365 23.3609 18.1297 23.3558C18.1264 23.3718 18.1244 23.388 18.1237 23.4043C18.1212 23.4128 18.1322 23.4179 18.1433 23.4273L18.1484 23.4239ZM39.2663 38.8211C39.2578 38.8347 39.2476 38.844 39.2476 38.8517C39.2508 38.8669 39.2556 38.8818 39.2621 38.8959C39.2672 38.8874 39.2774 38.8789 39.2774 38.8704C39.2735 38.8549 39.2681 38.8398 39.2612 38.8253L39.2663 38.8211ZM33.2989 24.8947C33.2895 24.8828 33.2802 24.8666 33.2768 24.8683C33.2614 24.8748 33.2466 24.8825 33.2325 24.8913C33.2402 24.899 33.2487 24.9134 33.2546 24.9134C33.2701 24.909 33.285 24.9027 33.2989 24.8947ZM18.2794 23.7922L18.2717 23.7778C18.2717 23.782 18.2615 23.788 18.2624 23.7905C18.2661 23.7966 18.2703 23.8023 18.2751 23.8075L18.2794 23.7922ZM18.2292 23.6936H18.2385V23.6782L18.2292 23.6936ZM41.3122 25.7096C41.3212 25.7162 41.3306 25.7222 41.3403 25.7275C41.3684 25.7403 41.3658 25.7182 41.3624 25.7045C41.359 25.6909 41.3454 25.6909 41.3369 25.6918C41.3284 25.6926 41.3241 25.7028 41.3156 25.7096H41.3122ZM41.5249 20.4721C41.5036 20.4542 41.4951 20.4431 41.4832 20.4389C41.4784 20.4383 41.4736 20.439 41.4692 20.4408C41.4647 20.4425 41.4608 20.4454 41.4577 20.4491C41.4407 20.4703 41.4662 20.4746 41.4755 20.478C41.4849 20.4814 41.5028 20.4763 41.5283 20.4721H41.5249ZM20.3848 34.1747L20.3729 34.1628C20.3681 34.1717 20.3644 34.1811 20.3618 34.1909C20.3618 34.1909 20.3686 34.1994 20.372 34.2036L20.3848 34.1747ZM38.4931 34.9973H38.4854V35.0109L38.4931 34.9973ZM17.1165 26.4429C17.102 26.4514 17.0867 26.4557 17.0842 26.4633C17.0774 26.4838 17.0935 26.4897 17.1097 26.4855C17.1146 26.484 17.1191 26.4814 17.1228 26.4778C17.1265 26.4743 17.1293 26.4699 17.131 26.465C17.1327 26.4591 17.1216 26.4489 17.1165 26.4429ZM38.032 37.016L38.0371 37.0364H38.0286C38.0286 37.0364 38.0303 37.0245 38.032 37.016ZM18.8383 27.8185L18.8502 27.8066L18.8383 27.7946L18.8264 27.8117L18.8383 27.8185ZM38.5382 29.8337C38.5382 29.8337 38.5305 29.8218 38.5263 29.8218C38.522 29.8218 38.5178 29.8286 38.5135 29.832L38.5314 29.8456L38.5382 29.8337ZM38.5773 29.9043C38.573 29.9001 38.5679 29.8924 38.5654 29.8933C38.5574 29.8958 38.5497 29.8992 38.5424 29.9035C38.5424 29.9035 38.5509 29.9154 38.5535 29.9145C38.5617 29.9117 38.5696 29.9083 38.5773 29.9043ZM38.6062 29.9792L38.5943 29.9562C38.5901 29.9605 38.5824 29.9647 38.5833 29.9681C38.5859 29.9762 38.5896 29.984 38.5943 29.9911L38.6062 29.9792ZM33.3252 24.8232L33.3125 24.8105C33.3083 24.8182 33.3046 24.8261 33.3014 24.8343C33.3014 24.8343 33.3091 24.8411 33.3125 24.8454L33.3252 24.8232ZM17.1624 26.4157L17.1752 26.4029C17.1675 26.3988 17.1596 26.3951 17.1514 26.3919C17.1514 26.3919 17.1437 26.3995 17.1403 26.4029L17.1624 26.4157ZM19.273 27.314C19.273 27.314 19.2653 27.303 19.2628 27.3038C19.2551 27.3062 19.2477 27.3093 19.2406 27.3132C19.2406 27.3174 19.2483 27.3251 19.2508 27.3242C19.2575 27.3217 19.2638 27.3183 19.2696 27.314H19.273ZM25.5467 24.4923C25.5467 24.4923 25.5569 24.4847 25.5569 24.4804C25.5569 24.4762 25.5518 24.4719 25.5484 24.4677C25.545 24.4634 25.5373 24.4745 25.5373 24.4787C25.5373 24.483 25.5433 24.4855 25.5467 24.4923Z" fill="#050504"/>
<path d="M25.0762 13.2633C25.5586 13.2429 25.778 13.5185 25.6555 13.9642C25.627 14.0771 25.586 14.1864 25.533 14.29C25.4046 14.5308 25.2064 14.6558 24.9376 14.6303C24.8024 14.6213 24.6729 14.5727 24.5652 14.4905C24.4575 14.4084 24.3764 14.2963 24.3319 14.1684C24.2307 13.9132 24.3098 13.6895 24.4816 13.4878C24.6534 13.2862 24.8602 13.2633 25.0762 13.2633ZM25.2277 13.5032C25.0448 13.5032 24.8712 13.6325 24.8653 13.7813C24.8647 13.8713 24.8985 13.9581 24.9599 14.0239C25.0213 14.0897 25.1055 14.1296 25.1953 14.1352C25.3331 14.1352 25.4437 13.9855 25.4505 13.7949C25.4548 13.6223 25.368 13.5074 25.2277 13.5057V13.5032ZM24.5471 13.6571C24.3498 14.0204 24.5207 14.393 24.838 14.3921C24.605 14.2245 24.4748 14.0051 24.5497 13.6597L24.5471 13.6571ZM24.7317 13.7652C24.6586 13.9753 24.7742 14.1709 25.0073 14.2288C24.9278 14.1799 24.8614 14.1123 24.8138 14.032C24.7662 13.9517 24.7389 13.861 24.7343 13.7677L24.7317 13.7652Z" fill="#050504"/>
<path d="M12.3526 25.3429C12.0226 25.3429 11.6933 24.9908 11.6899 24.6343C11.6899 24.306 12.0353 24.0057 12.4207 24.004C12.4963 24.0027 12.5715 24.0165 12.6418 24.0443C12.7122 24.0722 12.7764 24.1137 12.8307 24.1664C12.8849 24.2191 12.9283 24.282 12.9582 24.3515C12.9882 24.421 13.0041 24.4957 13.0051 24.5714C13.0051 24.9865 12.7082 25.3429 12.3526 25.3429ZM12.7499 24.6029C12.7499 24.4149 12.6452 24.2736 12.5151 24.2779C12.299 24.2847 12.1272 24.4429 12.1331 24.6284C12.1453 24.7086 12.1858 24.7819 12.2473 24.835C12.3087 24.888 12.3871 24.9173 12.4683 24.9176C12.6597 24.9176 12.7499 24.8138 12.7499 24.6029Z" fill="#050504"/>
<path d="M46.2665 24.9177C46.3189 24.916 46.3712 24.9255 46.4197 24.9455C46.4682 24.9656 46.512 24.9957 46.548 25.0339C46.584 25.0721 46.6115 25.1175 46.6287 25.1671C46.6458 25.2167 46.6523 25.2694 46.6476 25.3217C46.6382 25.5676 46.3779 25.8772 46.1771 25.8815C45.9492 25.8857 45.7314 25.6144 45.7322 25.326C45.728 25.1048 45.9806 24.9126 46.2665 24.9177ZM46.0249 25.4834C46.0189 25.5897 46.0249 25.5999 46.115 25.6076C46.1524 25.6115 46.1901 25.6078 46.2259 25.5967C46.2618 25.5855 46.2949 25.5671 46.3234 25.5427C46.3518 25.5182 46.375 25.4882 46.3914 25.4544C46.4078 25.4207 46.4171 25.3839 46.4187 25.3464C46.4315 25.2426 46.3796 25.212 46.2928 25.2069C46.1363 25.1975 46.0308 25.3073 46.0206 25.4817L46.0249 25.4834Z" fill="#050504"/>
<path d="M33.9914 14.5675C33.9888 14.5103 33.998 14.4532 34.0183 14.3997C34.0386 14.3462 34.0696 14.2974 34.1094 14.2563C34.1492 14.2152 34.197 14.1826 34.2499 14.1607C34.3027 14.1387 34.3595 14.1278 34.4167 14.1285C34.5336 14.1262 34.6467 14.1703 34.7311 14.2511C34.8156 14.3319 34.8647 14.4429 34.8676 14.5598C34.8676 14.849 34.6702 15.0966 34.4278 15.1C34.1853 15.1034 33.9948 14.8796 33.9914 14.5675ZM34.6226 14.5547C34.6226 14.4228 34.5426 14.3565 34.4108 14.3412C34.3807 14.3359 34.3499 14.3367 34.3201 14.3434C34.2904 14.3501 34.2622 14.3626 34.2373 14.3803C34.2124 14.3979 34.1912 14.4203 34.175 14.4461C34.1588 14.472 34.1478 14.5008 34.1428 14.5309C34.1394 14.598 34.1616 14.6639 34.2051 14.7151C34.2486 14.7663 34.31 14.799 34.3767 14.8065C34.5001 14.8184 34.6124 14.7095 34.6226 14.5547Z" fill="#050504"/>
<path d="M30.8506 12.1577C30.8506 12.372 30.7204 12.5201 30.5341 12.5218C30.4341 12.5221 30.3378 12.4836 30.2655 12.4145C30.1931 12.3453 30.1504 12.2508 30.1462 12.1509C30.1462 11.9807 30.3453 11.8259 30.5563 11.8251C30.7468 11.8174 30.8514 11.9382 30.8506 12.1577ZM30.4635 12.3278C30.626 12.3355 30.6771 12.2597 30.6728 12.1475C30.6728 12.0717 30.6728 11.9646 30.5529 11.9773C30.4329 11.9901 30.3053 12.0301 30.2977 12.1628C30.2849 12.2665 30.3895 12.315 30.4635 12.3201V12.3278Z" fill="#050504"/>
<path d="M39.8013 42.8406L39.8409 42.7837C39.8263 42.8052 39.8383 42.8406 39.8013 42.8406Z" fill="#F8F2EA"/>
<path d="M33.5131 22.4151C33.5224 23.3752 33.2038 24.3097 32.61 25.0642C32.0162 25.8187 31.1827 26.348 30.2474 26.5647C29.1236 26.8088 28.0765 26.5451 27.1679 25.8459C25.9974 24.9442 25.3815 23.7464 25.4351 22.2509C25.5074 20.3046 26.8277 18.7589 28.7 18.394C30.8556 17.9686 33.0112 19.431 33.4331 21.5968C33.4909 21.8656 33.5177 22.1402 33.5131 22.4151Z" fill="#F8F2EA"/>
<path d="M41.2068 22.1956C41.2153 24.0739 39.998 25.5345 38.3052 25.8161C37.8782 25.8857 37.4414 25.8663 37.0223 25.7591C36.9804 25.7523 36.9412 25.7341 36.9089 25.7065C36.8767 25.6789 36.8526 25.6429 36.8394 25.6025C36.6242 25.0607 36.5655 24.4865 36.4771 23.9174C36.3529 23.1194 36.2882 22.3113 36.0662 21.5287C35.9139 20.991 35.6221 20.5317 35.3176 20.0783C35.2444 19.9685 35.2487 19.9132 35.3414 19.8231C36.5383 18.633 38.3817 18.5377 39.8015 19.5755C40.7372 20.2637 41.1762 21.1986 41.2068 22.1956Z" fill="#F8F2EA"/>
<path d="M21.7271 18.8721C22.6841 18.8925 23.4608 19.2123 24.109 19.841C24.1617 19.892 24.2187 19.9261 24.1507 20.023C23.5254 20.912 23.2362 21.9115 23.112 22.9859C23.0269 23.7464 22.9334 24.5171 22.7428 25.2598C22.7045 25.4078 22.6322 25.5405 22.5888 25.6851C22.5591 25.7829 22.457 25.7702 22.383 25.7872C21.107 26.0373 20.0147 25.7021 19.1453 24.7324C18.627 24.1623 18.3125 23.4364 18.2509 22.6684C18.1893 21.9004 18.3842 21.1337 18.805 20.4883C19.3682 19.6241 20.1993 19.1213 21.2124 18.9299C21.3979 18.8942 21.591 18.8865 21.7271 18.8721Z" fill="#F8F2EA"/>
<path d="M18.2793 19.927C18.0015 20.3315 17.7997 20.7832 17.6839 21.26C17.5563 21.8402 17.5307 22.4229 17.7179 22.986C18.002 23.8367 17.8625 24.6236 17.4329 25.3866C17.1139 25.954 16.7719 26.5146 16.5542 27.1305C16.3364 27.7464 16.1612 28.3563 16.3993 29.002C16.4172 29.0513 16.4385 29.099 16.4538 29.1492C16.481 29.2402 16.5959 29.3193 16.5601 29.4044C16.5244 29.4894 16.4138 29.532 16.3424 29.6C15.7469 30.164 15.1403 30.7195 14.6903 31.4426C14.5305 31.1349 14.4345 30.7981 14.4079 30.4524C14.3577 29.7038 14.487 29.0181 14.9183 28.3759C15.3496 27.7336 15.8124 27.0846 16.2683 26.4491C16.9089 25.5491 17.1888 24.5547 17.2151 23.4718C17.207 23.2388 17.1817 23.0068 17.1394 22.7776C17.0795 22.3347 17.1133 21.884 17.2386 21.455C17.3638 21.0259 17.5779 20.6279 17.8668 20.2868C17.9699 20.1369 18.098 20.0057 18.2453 19.8989L18.2793 19.927Z" fill="#F8F2EA"/>
<path d="M41.5156 20.4473C41.8865 21.0002 42.1374 21.548 42.2157 22.1673C42.271 22.6088 42.2335 23.0529 42.2403 23.4952C42.2557 24.6161 42.6282 25.7029 43.3037 26.5976C43.7435 27.1982 44.1773 27.8047 44.5797 28.4308C44.9999 29.0782 45.0833 29.7655 45.0331 30.5031C45.011 30.8263 44.891 31.1088 44.7677 31.4184C44.6937 31.3282 44.6299 31.2559 44.5712 31.1794C44.2709 30.7804 43.8745 30.4784 43.5249 30.1288C43.3609 29.9561 43.1871 29.793 43.0042 29.6405C42.9592 29.6048 42.9192 29.575 42.9438 29.4984C43.3301 28.3075 43.0145 27.2365 42.4011 26.2148C42.1459 25.7895 41.8592 25.3727 41.7112 24.8878C41.6806 24.7874 41.65 24.687 41.621 24.5858C41.557 24.3756 41.5657 24.1499 41.6457 23.9452C41.8472 23.4032 41.9542 22.8306 41.9622 22.2524C41.9615 21.7197 41.8341 21.1949 41.5904 20.7212C41.5321 20.6425 41.5053 20.5447 41.5156 20.4473Z" fill="#F8F2EA"/>
<path d="M24.5565 24.1392C24.9257 24.7431 25.0312 25.3914 24.7803 26.0753C24.6476 26.436 24.4026 26.7295 24.1652 27.0238C23.5717 27.7486 23.1713 28.612 23.0015 29.5333C22.902 30.0777 23.0585 30.5839 23.2635 31.079C23.4166 31.4464 23.4183 31.4464 23.1206 31.7016L22.7225 32.0419C22.4316 31.711 22.2971 31.3342 22.2384 30.902C22.0556 29.5333 22.4749 28.3398 23.2278 27.2288C23.5578 26.7422 23.9151 26.2735 24.1831 25.7469C24.4425 25.2357 24.5174 24.6853 24.5565 24.1392Z" fill="#F8F2EA"/>
<path d="M34.5978 20.439C34.8888 20.8694 35.1423 21.2998 35.201 21.8332C35.2792 22.5495 35.3634 23.2675 35.235 23.9761C35.1065 24.6847 35.007 25.4222 34.8598 26.1436C34.6991 26.9279 34.8216 27.6824 35.1601 28.4081C35.4374 29.0035 35.8083 29.5565 36.0414 30.1715C36.3221 30.9108 36.3817 31.6653 36.0295 32.4105C35.9751 32.5262 35.9444 32.5313 35.8483 32.4445C35.7046 32.3203 35.6782 32.2182 35.7633 32.0353C36.0891 31.325 36.0244 30.6445 35.5514 30.0107C35.3634 29.7555 35.1822 29.5003 35.0028 29.2451C34.3401 28.289 34.1521 27.2358 34.3613 26.0976C34.4915 25.3916 34.7178 24.7102 34.8828 24.0135C35.067 23.2576 35.0564 22.4674 34.8522 21.7167C34.7416 21.299 34.728 20.8558 34.5978 20.439Z" fill="#F8F2EA"/>
<path d="M18.435 25.1602C18.6817 25.4213 18.8935 25.6527 19.1521 25.8322C19.2201 25.879 19.1938 25.9462 19.1887 26.0074C19.1172 26.9032 18.7191 27.6399 18.0828 28.2583C17.8548 28.4812 17.6319 28.7092 17.3529 28.8767C17.2159 28.9618 17.1955 28.9023 17.1658 28.7917C17.0186 28.2575 17.1054 27.7428 17.2942 27.2375C17.4185 26.9171 17.5906 26.6174 17.8046 26.3485C18.0811 25.9981 18.3431 25.645 18.435 25.1602Z" fill="#F8F2EA"/>
<path d="M38.0676 35.0954C37.7274 34.6164 37.3871 34.1656 37.0307 33.7343C36.9737 33.6654 37.0264 33.6135 37.0511 33.5599C37.2791 33.075 37.4926 32.5867 37.5989 32.0568C37.7452 31.326 37.644 30.6106 37.5036 29.8918L37.4866 29.7974C38.3824 30.8513 38.8656 32.8521 38.0676 35.0954Z" fill="#F8F2EA"/>
<path d="M41.0018 25.1475C41.1974 25.8467 41.5283 26.4345 41.8779 27.0189C42.2097 27.5736 42.2446 28.1971 42.1187 28.8292C42.0966 28.9415 42.0549 28.91 41.9945 28.8683C41.7299 28.6871 41.4705 28.4991 41.2893 28.2278C41.155 28.0378 41.0077 27.8573 40.8486 27.6876C40.4503 27.2566 40.2122 26.702 40.174 26.1164C40.1698 26.0653 40.1477 26.0151 40.2021 25.9735C40.5017 25.7322 40.7703 25.4548 41.0018 25.1475Z" fill="#F8F2EA"/>
<path d="M35.9734 23.8789C36.0177 24.3604 35.9343 24.8334 35.913 25.3097C35.8552 26.6104 36.0143 27.8796 36.5085 29.0893C36.8834 29.968 36.9951 30.9368 36.8301 31.8778C36.7654 32.2444 36.5749 32.5634 36.4251 32.8986C36.4141 32.9241 36.4107 32.9837 36.3596 32.9496C36.3282 32.9301 36.2933 32.8977 36.3248 32.8493C36.3375 32.8297 36.346 32.8076 36.3571 32.7872C36.9041 31.7732 36.9092 30.7532 36.3945 29.7247C36.1572 29.2518 35.9267 28.7745 35.691 28.2999C35.3427 27.5999 35.2477 26.8009 35.4222 26.0388C35.5745 25.3106 35.8526 24.6164 35.9734 23.8789Z" fill="#F8F2EA"/>
<path d="M25.539 25.9155C25.7636 26.0669 25.8223 26.2456 25.7491 26.4923C25.6441 26.8058 25.507 27.1077 25.34 27.3931C24.9767 28.0686 24.6866 28.7687 24.6245 29.5437C24.6121 29.7765 24.6345 30.0099 24.6909 30.2361C24.7003 30.2795 24.7428 30.3339 24.7062 30.3688C24.5539 30.5126 24.3991 30.6538 24.2358 30.7839C24.1788 30.8282 24.1677 30.7422 24.1507 30.7091C24.0194 30.429 23.9493 30.1243 23.9449 29.815C23.9287 29.3565 23.9057 28.8946 24.0503 28.4539C24.1788 28.0609 24.4153 27.7283 24.6807 27.417C25.0584 26.9704 25.3689 26.4897 25.539 25.9155Z" fill="#F8F2EA"/>
<path d="M20.9606 33.8849C20.5727 32.7595 20.4893 31.0147 21.2056 29.8374C21.2634 29.8595 21.2285 29.9072 21.2285 29.9378C21.2285 30.7417 21.3136 31.5302 21.6181 32.2814C21.6851 32.4361 21.7612 32.5866 21.8461 32.7322C21.8793 32.7926 21.8989 32.8326 21.8351 32.8939C21.5232 33.2057 21.2311 33.5367 20.9606 33.8849Z" fill="#F8F2EA"/>
<path d="M34.1019 24.9365C34.0245 25.2853 33.9241 25.6077 33.8841 25.9378C33.7429 27.0989 33.9003 28.2091 34.4898 29.2409C34.8428 29.8594 35.1636 30.4931 35.2333 31.2187C35.2577 31.4108 35.2468 31.6057 35.201 31.7938C35.1602 31.7859 35.1241 31.7626 35.1001 31.7286C35.0762 31.6947 35.0663 31.6528 35.0725 31.6118C35.0776 31.0963 34.8701 30.6599 34.603 30.2303C33.8901 29.0836 33.4843 27.8484 33.6859 26.4805C33.7599 25.9701 33.9301 25.4886 34.0509 24.9918C34.0534 24.9782 34.0721 24.968 34.1019 24.9365Z" fill="#F8F2EA"/>
<path d="M25.477 29.6349C25.4497 28.5503 26.0631 27.6783 26.3659 26.6924C26.4748 26.7723 26.5947 26.8566 26.7104 26.9476C26.7785 27.0003 26.7428 27.0777 26.7394 27.1432C26.6909 28.0611 26.303 28.8199 25.6564 29.4571L25.477 29.6349Z" fill="#F8F2EA"/>
<path d="M31.0513 18.2363C32.0261 18.5502 32.8283 19.1083 33.3779 19.9802C34.2141 21.3064 34.2575 22.7075 33.696 24.1485C33.6052 24.3818 33.4879 24.6038 33.3464 24.8103C33.3073 24.7185 33.3634 24.6725 33.3855 24.6223C34.0746 23.0869 34.078 21.571 33.2154 20.101C32.7281 19.2675 31.966 18.6296 31.0598 18.2967L31.0513 18.2363Z" fill="#F8F2EA"/>
<path d="M33.2171 26.1392C33.1393 26.634 33.135 27.1377 33.2044 27.6338C33.3256 28.4057 33.6019 29.1451 34.0168 29.8073C34.1648 30.0514 34.306 30.299 34.4327 30.5542C34.5317 30.7769 34.5849 31.0173 34.5893 31.2611C34.3757 31.0339 34.1086 30.9319 34.0729 30.5873C34.0185 30.0642 33.7428 29.6125 33.5123 29.148C33.1278 28.3722 33.0019 27.5428 33.0546 26.6861C33.0674 26.5007 33.081 26.2982 33.2171 26.1392Z" fill="#F8F2EA"/>
<path d="M32.7271 26.561C32.642 27.2024 32.6804 27.8541 32.8402 28.481C32.9916 29.085 33.2817 29.6379 33.5029 30.2181C33.197 29.8844 32.9489 29.502 32.7688 29.0867C32.471 28.3925 32.3953 27.6627 32.4115 26.9175C32.4157 26.7218 32.6114 26.7159 32.7271 26.561Z" fill="#F8F2EA"/>
<path d="M22.1619 27.7877C22.5208 27.1182 22.8645 26.4419 23.2584 25.7946C23.5162 25.3571 23.6931 24.8767 23.7807 24.3765C23.781 24.3312 23.7962 24.2872 23.8241 24.2515C23.887 24.7049 23.6931 25.4603 23.3307 26.1629C23.021 26.7627 22.6 27.2807 22.1619 27.7877Z" fill="#F8F2EA"/>
<path d="M21.767 31.52C21.8189 31.6127 21.8734 31.7038 21.9218 31.7982C22.0012 31.9803 22.126 32.1391 22.2842 32.2593C22.3821 32.3248 22.3642 32.3647 22.2842 32.437C22.1184 32.5893 22.1243 32.5936 22.0197 32.3911C21.8892 32.1198 21.7904 31.8344 21.7253 31.5404L21.767 31.52Z" fill="#F8F2EA"/>
<path d="M25.1221 21.7608C25.1595 21.1696 25.3041 20.6141 25.6674 20.1318C25.7022 20.085 25.7363 20.0382 25.7728 19.9931C25.7779 19.9872 25.7924 19.9889 25.8324 19.9829C25.4998 20.558 25.2522 21.1475 25.1774 21.7957L25.1221 21.7608Z" fill="#F8F2EA"/>
<path d="M42.1747 27.0283C42.0437 26.8037 41.8676 26.6175 41.7272 26.4065C41.5832 26.2055 41.4686 25.9849 41.387 25.7515C41.6643 26.1691 42.1117 26.4822 42.1747 27.0283Z" fill="#F8F2EA"/>
<path d="M37.9734 37.0151C37.6938 36.4114 37.3838 35.8223 37.0444 35.25C37.2554 35.3402 37.9929 36.7149 37.9734 37.0151Z" fill="#F8F2EA"/>
<path d="M16.8061 24.21C16.7151 24.8054 16.4088 25.2997 16.0881 25.7888C16.3323 25.2784 16.5518 24.7501 16.7568 24.2202L16.8061 24.21Z" fill="#F8F2EA"/>
<path d="M42.6936 24.2261C42.9 24.7042 43.107 25.1822 43.3146 25.6603C42.9743 25.2443 42.7064 24.6233 42.6936 24.2261Z" fill="#F8F2EA"/>
<path d="M18.0147 21.9405C17.9807 21.3778 18.1671 20.824 18.5345 20.3965C18.5412 20.4039 18.5486 20.4108 18.5566 20.4169C18.2723 20.8764 18.095 21.3939 18.0377 21.9311H18.0241L18.0147 21.9405Z" fill="#F8F2EA"/>
<path d="M25.1222 21.7607L25.1775 21.7956C25.163 22.084 25.1281 22.3707 25.1409 22.6616C25.1618 23.0831 25.2329 23.5006 25.3527 23.9053C25.3689 23.9606 25.3782 24.0184 25.391 24.0754C25.2182 23.7463 25.1214 23.3827 25.1077 23.0112C25.0924 22.6293 25.1026 22.2456 25.1077 21.8645C25.1095 21.8296 25.1143 21.7948 25.1222 21.7607Z" fill="#6A6A6A"/>
<path d="M23.5101 29.5776C23.5234 30.0971 23.6279 30.6103 23.8189 31.0935C23.6012 30.7567 23.3834 30.0047 23.5101 29.5776Z" fill="#F8F2EA"/>
<path d="M24.4706 21.0806C24.3692 21.4915 24.3094 21.9116 24.292 22.3345C24.2209 21.9081 24.2833 21.4701 24.4706 21.0806Z" fill="#F8F2EA"/>
<path d="M37.6483 28.7456C37.439 28.4138 37.1711 28.1186 37.0452 27.7358C37.2745 28.054 37.4825 28.3871 37.6679 28.7328L37.6483 28.7456Z" fill="#F8F2EA"/>
<path d="M26.7334 28.1801C26.8578 27.8457 26.9287 27.4937 26.9435 27.1372C27.0039 27.4486 26.8874 28.0151 26.7334 28.1801Z" fill="#F8F2EA"/>
<path d="M42.7175 27.9536C42.8196 28.2837 42.7243 28.5925 42.6001 28.8979C42.6746 28.5885 42.714 28.2718 42.7175 27.9536Z" fill="#F8F2EA"/>
<path d="M41.3325 23.3016C41.3572 23.1315 41.3699 22.9571 41.4091 22.7912C41.4771 22.5054 41.4354 22.2204 41.4218 21.9346H41.4312V21.9431C41.4448 21.9609 41.4712 21.978 41.4703 21.995C41.4508 22.4109 41.5086 22.8329 41.3776 23.2395C41.3676 23.2655 41.3547 23.2903 41.3393 23.3135L41.3325 23.3016Z" fill="#6A6A6A"/>
<path d="M16.8571 28.9251C16.6963 28.5423 16.6555 28.2445 16.7286 28.0361C16.7445 28.3357 16.7875 28.6333 16.8571 28.9251Z" fill="#F8F2EA"/>
<path d="M18.0149 21.9401L18.0225 21.9282H18.0362C17.9511 22.3867 18.0481 22.8359 18.1119 23.2893C17.9979 23.1294 18.0038 22.9405 17.9885 22.7619C17.9672 22.5194 17.9775 22.2736 17.9749 22.0295C17.9727 22.0123 17.9752 21.9949 17.9823 21.9791C17.9893 21.9634 18.0006 21.9499 18.0149 21.9401Z" fill="#6A6A6A"/>
<path d="M39.5597 40.5703C39.6448 40.8374 39.6448 41.1181 39.7103 41.3887L39.6584 41.398C39.6108 41.1224 39.5629 40.8465 39.5146 40.5703H39.5597Z" fill="#F8F2EA"/>
<path d="M32.2305 28.561C32.2929 28.8418 32.3552 29.1228 32.4176 29.4041C32.2951 29.1399 32.2312 28.8523 32.2305 28.561Z" fill="#F8F2EA"/>
<path d="M19.4338 40.5506C19.4256 40.2844 19.4404 40.018 19.4781 39.7544C19.5274 40.0317 19.4653 40.3073 19.4653 40.5838C19.4704 40.5617 19.4577 40.5498 19.4338 40.5506Z" fill="#F8F2EA"/>
<path d="M45.9264 36.0835C45.9611 36.2881 45.9674 36.4965 45.9451 36.7028C45.9118 36.4981 45.9055 36.2899 45.9264 36.0835Z" fill="#F8F2EA"/>
<path d="M13.4306 37.2569C13.3549 36.9166 13.3991 36.5763 13.4093 36.231C13.4306 36.5721 13.4229 36.9123 13.4306 37.2569Z" fill="#6A6A6A"/>
<path d="M32.2815 27.0859C32.3199 27.3304 32.3273 27.5788 32.3036 27.8252C32.2529 27.582 32.2454 27.3317 32.2815 27.0859Z" fill="#6A6A6A"/>
<path d="M39.9876 26.1299C40.0608 26.3808 40.0922 26.6403 40.1713 26.8955C40.008 26.6641 39.9842 26.4004 39.9876 26.1299Z" fill="#6A6A6A"/>
<path d="M26.0154 27.0983C26.069 26.9195 26.1235 26.7407 26.1772 26.561C26.1882 26.7536 26.1309 26.9439 26.0154 27.0983Z" fill="#F8F2EA"/>
<path d="M41.4346 21.9403V21.9318H41.4252C41.4062 21.6948 41.3567 21.4612 41.2781 21.2368L41.3393 21.2445C41.431 21.4642 41.4639 21.704 41.4346 21.9403Z" fill="#F8F2EA"/>
<path d="M36.4932 26.6504L36.6897 27.3939C36.551 27.1642 36.5263 26.9064 36.4932 26.6504Z" fill="#6A6A6A"/>
<path d="M42.4318 27.953L42.2659 27.2725C42.3654 27.4894 42.4743 27.6995 42.4318 27.953Z" fill="#6A6A6A"/>
<path d="M16.8554 23.3117C16.835 23.0939 16.7644 22.8812 16.8027 22.666C16.8248 22.8761 16.8895 23.0905 16.8554 23.3117Z" fill="#6A6A6A"/>
<path d="M42.6036 23.2837C42.5619 23.0718 42.624 22.8711 42.6529 22.6499C42.6861 22.8762 42.6197 23.0795 42.6036 23.2837Z" fill="#6A6A6A"/>
<path d="M46.0327 37.2441C45.9476 37.1207 46.0327 36.9999 46.0259 36.8766C46.0191 36.7502 46.0242 36.6235 46.0412 36.498C46.0758 36.7457 46.0729 36.9972 46.0327 37.2441Z" fill="#6A6A6A"/>
<path d="M42.6402 24.0825C42.5593 23.9005 42.5781 23.704 42.5645 23.5117C42.5849 23.7031 42.6129 23.8971 42.6402 24.0825Z" fill="#6A6A6A"/>
<path d="M37.2952 32.249C37.294 32.051 37.3319 31.8547 37.4066 31.6714C37.4141 31.8699 37.376 32.0675 37.2952 32.249Z" fill="#6A6A6A"/>
<path d="M39.4526 32.0371V32.5897C39.4126 32.4041 39.319 32.221 39.4526 32.0371Z" fill="#6A6A6A"/>
<path d="M36.9163 28.8795C36.8181 28.7465 36.7445 28.5969 36.699 28.438C36.8027 28.5676 36.8769 28.7183 36.9163 28.8795Z" fill="#6A6A6A"/>
<path d="M25.9208 29.611C25.8202 29.7082 25.7194 29.8051 25.6182 29.9017L25.5884 29.8693L25.8952 29.582L25.9208 29.611Z" fill="#F8F2EA"/>
<path d="M19.4628 26.0713C19.4973 26.2322 19.4803 26.3999 19.4143 26.5507C19.3802 26.3863 19.4381 26.2305 19.4628 26.0713Z" fill="#6A6A6A"/>
<path d="M16.806 24.2105L16.7566 24.2207L16.8852 23.6792C16.8885 23.8595 16.8617 24.039 16.806 24.2105Z" fill="#6A6A6A"/>
<path d="M19.3597 41.2807C19.3161 41.126 19.3025 40.9644 19.3197 40.8047C19.3444 40.9469 19.3955 41.0848 19.3597 41.2807Z" fill="#F8F2EA"/>
<path d="M23.9916 22.5714C24.0578 22.7496 24.0771 22.9417 24.0478 23.1294C24.0012 22.9464 23.9829 22.7574 23.9933 22.5688L23.9916 22.5714Z" fill="#6A6A6A"/>
<path d="M19.3488 39.9082C19.3629 40.0409 19.3537 40.175 19.3215 40.3046C19.3001 40.1721 19.3094 40.0365 19.3488 39.9082Z" fill="#6A6A6A"/>
<path d="M31.0521 18.2366L31.0606 18.2963C30.9343 18.2687 30.8118 18.2258 30.6958 18.1684C30.8185 18.1593 30.9415 18.1828 31.0521 18.2366Z" fill="#6A6A6A"/>
<path d="M25.3909 24.0749L25.5383 24.3997C25.4498 24.3135 25.3976 24.1967 25.3926 24.0732L25.3909 24.0749Z" fill="#6A6A6A"/>
<path d="M41.3329 21.2431L41.2715 21.2355L41.1863 21.0062L41.2263 20.9883C41.2825 21.0631 41.3191 21.1507 41.3329 21.2431Z" fill="#6A6A6A"/>
<path d="M41.0349 24.0486C41.0665 23.9863 41.1014 23.9165 41.1355 23.8457C41.1405 23.927 41.1133 24.0069 41.0596 24.0682C41.0503 24.081 41.04 24.0767 41.0349 24.0486Z" fill="#6A6A6A"/>
<path d="M17.1819 26.3488C17.2022 26.2623 17.2472 26.1835 17.3114 26.1221C17.3077 26.167 17.2942 26.2106 17.2718 26.2498C17.2494 26.289 17.2187 26.3228 17.1819 26.3488Z" fill="#F8F2EA"/>
<path d="M38.6172 30.022C38.6584 30.0513 38.6893 30.0928 38.7055 30.1407C38.7218 30.1887 38.7225 30.2404 38.7075 30.2888C38.6528 30.2102 38.6214 30.1177 38.6172 30.022Z" fill="#6A6A6A"/>
<path d="M39.3285 39.1978C39.3089 39.1202 39.2671 39.0546 39.2893 38.9634C39.33 39.0343 39.3439 39.1175 39.3285 39.1978Z" fill="#6A6A6A"/>
<path d="M38.4354 35.1362C38.4424 35.1798 38.437 35.2244 38.42 35.265C38.403 35.3057 38.375 35.3408 38.3391 35.3664C38.3389 35.3237 38.3476 35.2814 38.3647 35.2422C38.3817 35.203 38.4067 35.1678 38.438 35.1388L38.4354 35.1362Z" fill="#6A6A6A"/>
<path d="M19.4337 40.5508C19.4576 40.5508 19.4661 40.5619 19.4653 40.584C19.4768 40.6164 19.4789 40.6513 19.4713 40.6848C19.4638 40.7183 19.4469 40.749 19.4226 40.7733C19.4008 40.7 19.4047 40.6215 19.4337 40.5508Z" fill="#6A6A6A"/>
<path d="M26.0241 29.5051C26.0145 29.5286 26.0004 29.55 25.9825 29.568C25.9646 29.586 25.9434 29.6003 25.9199 29.6101L25.8945 29.5813L26.0055 29.4873L26.0241 29.5051Z" fill="#F8F2EA"/>
<path d="M40.8481 28.0342C40.8239 28.0251 40.802 28.0107 40.7843 27.9919C40.7665 27.9731 40.7533 27.9505 40.7456 27.9258C40.8049 27.9393 40.8633 27.9546 40.8489 28.0376L40.8481 28.0342Z" fill="#F8F2EA"/>
<path d="M26.6723 28.8147L26.5461 28.9247C26.6071 28.8062 26.6071 28.8062 26.6757 28.8138L26.6723 28.8147Z" fill="#F8F2EA"/>
<path d="M40.9779 20.5517C40.9558 20.532 40.9395 20.5065 40.9309 20.478C40.9224 20.4496 40.9218 20.4193 40.9293 20.3906C40.9702 20.4247 40.9984 20.4716 41.0095 20.5236L40.9779 20.5517Z" fill="#6A6A6A"/>
<path d="M41.1446 20.8071C41.1761 20.8515 41.2196 20.8924 41.1915 20.9691C41.1499 20.9335 41.1242 20.883 41.1199 20.8284L41.1446 20.8071Z" fill="#6A6A6A"/>
<path d="M37.6678 28.7305C37.7152 28.7491 37.7212 28.7923 37.7525 28.8507C37.7278 28.8426 37.7055 28.8285 37.6875 28.8098C37.6694 28.791 37.6563 28.7682 37.6492 28.7432L37.6678 28.7305Z" fill="#F8F2EA"/>
<path d="M37.8037 28.9809C37.7836 28.9659 37.7677 28.9459 37.7576 28.9229C37.7475 28.8999 37.7435 28.8746 37.7461 28.8496C37.7885 28.8979 37.841 28.9207 37.8003 28.9868L37.8037 28.9809Z" fill="#F8F2EA"/>
<path d="M18.9785 27.6345L19.042 27.5498L19.0734 27.5879L19.0082 27.6658L18.9785 27.6345Z" fill="#6A6A6A"/>
<path d="M26.4102 29.0484C26.4517 29.0357 26.4457 28.9519 26.5143 28.979H26.5092L26.4305 29.095L26.4102 29.0484Z" fill="#F8F2EA"/>
<path d="M37.8005 28.9879C37.8162 28.9567 37.8326 28.9688 37.8465 28.9879C37.8604 29.007 37.8804 29.0191 37.8665 29.046C37.8257 29.046 37.8162 29.0122 37.804 28.9827L37.8005 28.9879Z" fill="#F8F2EA"/>
<path d="M37.9715 29.1381C37.9186 29.1711 37.8995 29.1381 37.8848 29.0939C37.9316 29.0748 37.9316 29.139 37.9672 29.1381H37.9715Z" fill="#F8F2EA"/>
<path d="M18.1437 23.4288C18.1324 23.4193 18.1211 23.414 18.1211 23.4088C18.1218 23.3922 18.1239 23.3757 18.1272 23.3594C18.1341 23.3646 18.1463 23.3689 18.1463 23.3741C18.147 23.3924 18.1461 23.4107 18.1437 23.4288Z" fill="#6A6A6A"/>
<path d="M39.2615 38.8252C39.267 38.8415 39.2708 38.8584 39.2728 38.8755C39.2728 38.8842 39.2624 38.8929 39.2572 38.9016C39.2506 38.8871 39.2456 38.872 39.2424 38.8564C39.2424 38.8486 39.2528 38.8391 39.2615 38.8252Z" fill="#6A6A6A"/>
<path d="M41.1999 23.7279L41.2155 23.668C41.2155 23.6723 41.2233 23.6784 41.2216 23.681C41.2143 23.6965 41.2062 23.7116 41.1973 23.7261L41.1999 23.7279Z" fill="#6A6A6A"/>
<path d="M25.6015 24.6013C25.5964 24.6001 25.5917 24.5979 25.5875 24.5948C25.5834 24.5917 25.5799 24.5877 25.5774 24.5831C25.5749 24.5786 25.5733 24.5736 25.5729 24.5684C25.5724 24.5632 25.5731 24.558 25.5748 24.5531C25.5748 24.5487 25.5834 24.547 25.5886 24.5444L25.6007 24.6013H25.6015Z" fill="#6A6A6A"/>
<path d="M26.6737 28.6982C26.7321 28.7372 26.6694 28.7753 26.6737 28.8143C26.5805 28.7804 26.6948 28.738 26.6694 28.7008L26.6737 28.6982Z" fill="#F8F2EA"/>
<path d="M18.9504 27.7338C18.9295 27.7564 18.9139 27.805 18.8757 27.7711C18.8584 27.7555 18.8888 27.7234 18.9113 27.7061L18.9504 27.7338Z" fill="#6A6A6A"/>
<path d="M33.2999 24.895C33.2857 24.9031 33.2706 24.9095 33.2549 24.914C33.2489 24.914 33.2402 24.8993 33.2324 24.8915C33.2468 24.8826 33.2618 24.8747 33.2774 24.8682C33.2774 24.8682 33.2904 24.8829 33.2999 24.895Z" fill="#F8F2EA"/>
<path d="M18.2799 23.7929V23.8088C18.2749 23.8034 18.2705 23.7974 18.2666 23.7911C18.2666 23.7911 18.2728 23.7823 18.2763 23.7778L18.2799 23.7929Z" fill="#6A6A6A"/>
<path d="M18.397 24.0754L18.3713 24.0347C18.4138 24.0294 18.3873 24.0639 18.3952 24.0781L18.397 24.0754Z" fill="#6A6A6A"/>
<path d="M41.1977 23.7266L41.1908 23.7744C41.1551 23.7509 41.196 23.744 41.2003 23.7292L41.1977 23.7266Z" fill="#6A6A6A"/>
<path d="M18.2327 23.6939L18.2387 23.6792L18.2422 23.6948L18.2327 23.6939Z" fill="#6A6A6A"/>
<path d="M18.3272 23.9348L18.3022 23.8952L18.3178 23.8892L18.3247 23.9374L18.3272 23.9348Z" fill="#6A6A6A"/>
<path d="M41.3157 25.7101C41.3243 25.7032 41.332 25.6928 41.3407 25.692C41.3493 25.6911 41.3648 25.698 41.3665 25.7049C41.3682 25.7118 41.3726 25.7411 41.3441 25.7282C41.3343 25.7228 41.3247 25.7167 41.3157 25.7101Z" fill="#F8F2EA"/>
<path d="M25.6333 24.6727L25.6561 24.6946L25.6351 24.6709L25.6333 24.6727Z" fill="#6A6A6A"/>
<path d="M25.6359 24.6726C25.6241 24.6649 25.6146 24.6541 25.6085 24.6414C25.6024 24.6287 25.5998 24.6146 25.6012 24.6006C25.6454 24.6101 25.6342 24.6448 25.635 24.6743L25.6359 24.6726Z" fill="#6A6A6A"/>
<path d="M40.8461 28.0407C40.8886 27.9956 40.9042 28.0407 40.9251 28.065H40.932C40.8851 28.1154 40.8686 28.0694 40.8452 28.0373L40.8461 28.0407Z" fill="#F8F2EA"/>
<path d="M41.3433 23.3084C41.3373 23.3257 41.3485 23.3636 41.3192 23.3524C41.2899 23.3412 41.3114 23.3136 41.333 23.2998L41.3433 23.3084Z" fill="#6A6A6A"/>
<path d="M41.1126 20.7349C41.1237 20.7598 41.1349 20.7838 41.1452 20.8078L41.1203 20.8293C41.1091 20.8053 41.098 20.7812 41.0859 20.7572L41.1126 20.7349Z" fill="#6A6A6A"/>
<path d="M41.0857 20.7565L41.051 20.687L41.0798 20.6616C41.09 20.6862 41.101 20.7099 41.112 20.7344L41.0857 20.7565Z" fill="#6A6A6A"/>
<path d="M41.0517 20.6889C41.0309 20.6689 41.0049 20.6377 41.0318 20.6194C41.0587 20.6012 41.0647 20.6472 41.0812 20.6628L41.0517 20.6889Z" fill="#6A6A6A"/>
<path d="M41.5297 20.473C41.5037 20.473 41.4889 20.4834 41.4794 20.4791C41.4698 20.4747 41.4438 20.4713 41.4611 20.4496C41.4643 20.4458 41.4683 20.4429 41.4728 20.4411C41.4774 20.4393 41.4823 20.4386 41.4872 20.4392C41.5037 20.4435 41.508 20.4548 41.5297 20.473Z" fill="#F8F2EA"/>
<path d="M37.9695 29.1372V29.2004C37.9643 29.2004 37.9557 29.2004 37.9539 29.1943C37.9384 29.1692 37.9539 29.1519 37.9704 29.1372H37.9695Z" fill="#F8F2EA"/>
<path d="M20.2479 33.9492C20.28 33.9622 20.2827 33.9909 20.2835 34.0195L20.2471 33.9492H20.2479Z" fill="#6A6A6A"/>
<path d="M20.3858 34.1755L20.3725 34.2056C20.3725 34.2012 20.361 34.1958 20.3619 34.1923C20.3645 34.1821 20.3684 34.1723 20.3734 34.1631L20.3858 34.1755Z" fill="#6A6A6A"/>
<path d="M38.493 34.9974L38.4879 35.0103L38.4854 34.9966L38.493 34.9974Z" fill="#6A6A6A"/>
<path d="M38.4404 35.14L38.4509 35.0928L38.4684 35.1085L38.4377 35.1374L38.4404 35.14Z" fill="#6A6A6A"/>
<path d="M17.1169 26.4429C17.1221 26.4498 17.1333 26.4592 17.1315 26.4653C17.1298 26.4702 17.127 26.4746 17.1233 26.4782C17.1195 26.4818 17.115 26.4845 17.11 26.486C17.0936 26.486 17.0772 26.486 17.0841 26.4636C17.0884 26.4558 17.1022 26.4489 17.1169 26.4429Z" fill="#F8F2EA"/>
<path d="M38.0319 37.0161C38.0319 37.0247 38.0276 37.029 38.0319 37.0325C38.0363 37.0359 38.0371 37.0325 38.0406 37.0325L38.0319 37.0161Z" fill="#F8F2EA"/>
<path d="M20.2499 33.9484L20.2231 33.9122L20.2421 33.9019C20.2421 33.9174 20.2464 33.9337 20.2481 33.9501L20.2499 33.9484Z" fill="#6A6A6A"/>
<path d="M26.6721 28.6996L26.7121 28.7245C26.6739 28.7538 26.6828 28.7121 26.6739 28.6987L26.6721 28.6996Z" fill="#F8F2EA"/>
<path d="M18.3943 24.0765L18.4098 24.0829L18.3961 24.0737L18.3943 24.0765Z" fill="#6A6A6A"/>
<path d="M18.3245 23.9373L18.3503 23.9493C18.3226 23.9752 18.3346 23.9392 18.3272 23.9346L18.3245 23.9373Z" fill="#6A6A6A"/>
<path d="M26.5152 28.9805C26.5037 28.9673 26.4922 28.9522 26.5152 28.939C26.5214 28.9346 26.5347 28.939 26.5453 28.939L26.5135 28.9735L26.5152 28.9805Z" fill="#F8F2EA"/>
<path d="M26.4312 29.0938V29.1059L26.4208 29.1129L26.3896 29.0687C26.3896 29.0557 26.3966 29.0497 26.4078 29.0488L26.4312 29.0938Z" fill="#6A6A6A"/>
<path d="M26.4242 29.1126L26.3817 29.1447L26.3591 29.1065L26.393 29.0684L26.4242 29.1126Z" fill="#6A6A6A"/>
<path d="M26.382 29.1435C26.3699 29.1608 26.3569 29.1807 26.3379 29.1539C26.3189 29.1271 26.344 29.1176 26.3595 29.1055L26.382 29.1435Z" fill="#6A6A6A"/>
<path d="M26.2681 29.2048C26.2872 29.1874 26.3028 29.1501 26.3332 29.1805C26.3635 29.2108 26.3332 29.2187 26.3123 29.2334L26.2681 29.2048Z" fill="#6A6A6A"/>
<path d="M26.3128 29.2328L26.2798 29.2719L26.2407 29.2381L26.2694 29.2051L26.3128 29.2328Z" fill="#6A6A6A"/>
<path d="M26.2773 29.2713L26.2408 29.306L26.2026 29.273L26.2382 29.2383L26.2773 29.2713Z" fill="#6A6A6A"/>
<path d="M26.1694 29.3089L26.2067 29.2725L26.2449 29.3054L26.2085 29.3401L26.1694 29.3089Z" fill="#6A6A6A"/>
<path d="M26.1362 29.3417L26.1701 29.3062L26.2091 29.3374L26.1744 29.3738L26.1362 29.3417Z" fill="#6A6A6A"/>
<path d="M18.9453 27.6721L18.9792 27.6348L19.0095 27.6686L18.9731 27.7085L18.9453 27.6721Z" fill="#6A6A6A"/>
<path d="M26.0657 29.4154L26.1099 29.3677L26.1403 29.4111L26.1056 29.4475L26.0657 29.4154Z" fill="#6A6A6A"/>
<path d="M26.0527 29.4464C26.057 29.4361 26.0622 29.4258 26.0657 29.4146L26.1053 29.4464L26.0751 29.4688C26.0651 29.4644 26.0572 29.4564 26.0527 29.4464Z" fill="#6A6A6A"/>
<path d="M26.0764 29.4684L26.0252 29.5065L26.0061 29.4883L26.0538 29.4458C26.0583 29.4559 26.0663 29.4639 26.0764 29.4684Z" fill="#F8F2EA"/>
<path d="M18.5347 20.3972C18.5442 20.3876 18.559 20.3685 18.5616 20.3702C18.5912 20.3876 18.5677 20.4024 18.5616 20.4181C18.552 20.412 18.543 20.405 18.5347 20.3972Z" fill="#F8F2EA"/>
<path d="M18.9738 27.7077L18.9487 27.7345L18.9106 27.7069L18.9461 27.6714L18.9738 27.7077Z" fill="#6A6A6A"/>
<path d="M23.9934 22.569L23.9797 22.563L23.9917 22.5715L23.9934 22.569Z" fill="#6A6A6A"/>
<path d="M18.8393 27.8207L18.8264 27.8134L18.8393 27.7949L18.8522 27.8078L18.8393 27.8207Z" fill="#6A6A6A"/>
<path d="M18.749 27.8771C18.7655 27.8624 18.7758 27.8295 18.8027 27.8485C18.8295 27.8676 18.8027 27.8849 18.7897 27.9013L18.749 27.8771Z" fill="#6A6A6A"/>
<path d="M38.5402 29.8347L38.5328 29.8477L38.5134 29.8329C38.518 29.8329 38.5227 29.8209 38.5273 29.8218C38.5319 29.8228 38.5356 29.8301 38.5402 29.8347Z" fill="#6A6A6A"/>
<path d="M38.5789 29.9051C38.5709 29.9092 38.5626 29.9128 38.554 29.9158C38.554 29.9158 38.546 29.9086 38.5425 29.9042C38.55 29.8998 38.5581 29.8962 38.5665 29.8936C38.5665 29.8936 38.5744 29.9007 38.5789 29.9051Z" fill="#6A6A6A"/>
<path d="M38.6114 29.98L38.5989 29.9925C38.594 29.985 38.5901 29.977 38.5874 29.9685C38.5874 29.9685 38.5945 29.9605 38.5989 29.9561L38.6114 29.98Z" fill="#6A6A6A"/>
<path d="M33.3264 24.8239L33.3131 24.847C33.3131 24.8425 33.3015 24.8381 33.3015 24.8354C33.3048 24.8269 33.3087 24.8186 33.3131 24.8105L33.3264 24.8239Z" fill="#F8F2EA"/>
<path d="M41.0097 20.5229C41.0235 20.5419 41.0355 20.5617 41.0097 20.5798C41.0097 20.5798 40.9873 20.5617 40.9761 20.5514L41.0097 20.5229Z" fill="#6A6A6A"/>
<path d="M18.7244 27.9102L18.7503 27.8765L18.7901 27.9007L18.7546 27.9362L18.7244 27.9102Z" fill="#6A6A6A"/>
<path d="M18.2454 19.8989C18.2574 19.8903 18.2755 19.8705 18.2807 19.8739C18.3117 19.8912 18.2902 19.9101 18.2807 19.9274L18.2454 19.8989Z" fill="#F8F2EA"/>
<path d="M40.7469 27.9272C40.7274 27.9272 40.7149 27.9218 40.7167 27.9005C40.7167 27.9005 40.7274 27.8908 40.7309 27.8917C40.7514 27.8988 40.754 27.913 40.7434 27.9298L40.7469 27.9272Z" fill="#F8F2EA"/>
<path d="M40.9238 28.0655L40.9559 28.1028C40.9481 28.1085 40.9409 28.1149 40.9342 28.1219C40.916 28.1037 40.8839 28.0855 40.9342 28.062L40.9238 28.0655Z" fill="#F8F2EA"/>
<path d="M20.2827 34.02L20.2992 34.034C20.2992 34.034 20.2918 34.034 20.291 34.034C20.2882 34.0303 20.2863 34.0261 20.2852 34.0217L20.2827 34.02Z" fill="#6A6A6A"/>
<path d="M40.9552 28.1011L40.9942 28.1348L40.9993 28.1305C40.9699 28.172 40.9535 28.1348 40.9336 28.1201C40.9402 28.1131 40.9474 28.1067 40.9552 28.1011Z" fill="#F8F2EA"/>
<path d="M41.0295 28.166C41.0166 28.166 41.0079 28.191 40.989 28.166C40.97 28.141 40.995 28.1393 40.9976 28.1255L40.9933 28.1298L41.026 28.166H41.0295Z" fill="#F8F2EA"/>
<path d="M41.0881 28.1942C41.0768 28.2029 41.0638 28.2193 41.0542 28.2176C41.0264 28.2133 41.0273 28.1881 41.029 28.1655L41.0881 28.1898V28.1942Z" fill="#F8F2EA"/>
<path d="M41.084 28.1939L41.0779 28.2368L41.0569 28.2158L41.0892 28.1904L41.084 28.1939Z" fill="#F8F2EA"/>
<path d="M17.1601 26.417L17.137 26.4036C17.137 26.4036 17.1458 26.3921 17.1485 26.3921C17.157 26.3954 17.1653 26.3993 17.1734 26.4036L17.1601 26.417Z" fill="#F8F2EA"/>
<path d="M18.7545 27.9355C18.7433 27.9433 18.727 27.9605 18.7218 27.9571C18.6951 27.9416 18.7132 27.9252 18.7218 27.9097L18.7545 27.9355Z" fill="#6A6A6A"/>
<path d="M26.1746 29.3748L26.1391 29.411L26.1089 29.3678L26.1374 29.3428L26.1746 29.3748Z" fill="#6A6A6A"/>
<path d="M19.271 27.3144C19.264 27.3192 19.2562 27.3228 19.248 27.325C19.248 27.325 19.2409 27.3179 19.2373 27.3135C19.2447 27.3095 19.2524 27.3062 19.2604 27.3037C19.2604 27.3037 19.2675 27.3108 19.271 27.3144Z" fill="#6A6A6A"/>
<path d="M19.176 27.3853C19.1916 27.3732 19.202 27.3412 19.2279 27.3628C19.2539 27.3844 19.2279 27.4009 19.215 27.4173L19.176 27.3853Z" fill="#6A6A6A"/>
<path d="M19.2163 27.4149L19.1833 27.4618L19.1521 27.4227L19.1773 27.3828L19.2163 27.4149Z" fill="#6A6A6A"/>
<path d="M19.1829 27.4608C19.169 27.4746 19.1552 27.4997 19.1327 27.4747C19.1102 27.4496 19.1327 27.4357 19.1517 27.4219L19.1829 27.4608Z" fill="#6A6A6A"/>
<path d="M19.0637 27.5258C19.0819 27.5084 19.0976 27.4703 19.1279 27.5006C19.1583 27.531 19.1236 27.5388 19.1071 27.5527L19.0637 27.5258Z" fill="#6A6A6A"/>
<path d="M19.0449 27.5551L19.0674 27.5283L19.1098 27.5551L19.0769 27.5941L19.0449 27.5551Z" fill="#6A6A6A"/>
<path d="M25.5475 24.4947C25.5475 24.4892 25.5374 24.4845 25.5374 24.4799C25.5374 24.4753 25.5447 24.4716 25.5493 24.4679C25.554 24.4642 25.5595 24.4772 25.5586 24.4818C25.5576 24.4864 25.5512 24.4882 25.5475 24.4947Z" fill="#6A6A6A"/>
<path d="M25.2277 13.5059C25.3681 13.5059 25.4549 13.6225 25.4498 13.7986C25.4438 13.9883 25.3332 14.1388 25.1946 14.1388C25.1048 14.1332 25.0205 14.0934 24.9591 14.0276C24.8978 13.9617 24.8639 13.8749 24.8645 13.7849C24.8713 13.6352 25.0449 13.5025 25.2277 13.5059Z" fill="#F8F2EA"/>
<path d="M24.5498 13.6597C24.4749 14.005 24.6051 14.2245 24.8407 14.3947C24.5234 14.3955 24.3524 14.0229 24.5498 13.6597Z" fill="#F8F2EA"/>
<path d="M24.7344 13.7681C24.739 13.8622 24.7665 13.9537 24.8147 14.0347C24.8628 14.1157 24.9301 14.1837 25.0106 14.2326C24.777 14.1747 24.6594 13.9786 24.7344 13.7681Z" fill="#F8F2EA"/>
<path d="M12.7499 24.6029C12.7499 24.8139 12.6598 24.9185 12.4684 24.9193C12.3869 24.919 12.3083 24.8894 12.2468 24.836C12.1853 24.7827 12.145 24.709 12.1332 24.6284C12.1272 24.443 12.3033 24.2881 12.5152 24.2779C12.6453 24.2737 12.7499 24.4149 12.7499 24.6029Z" fill="#F8F2EA"/>
<path d="M46.0206 25.4825C46.0309 25.312 46.1366 25.1978 46.2891 25.2054C46.3744 25.2106 46.4281 25.2412 46.4153 25.3452C46.4136 25.3828 46.4043 25.4196 46.3879 25.4535C46.3714 25.4873 46.3483 25.5174 46.3197 25.5419C46.2912 25.5664 46.258 25.5848 46.2221 25.596C46.1862 25.6072 46.1484 25.6109 46.111 25.6069C46.0215 25.5992 46.0113 25.589 46.0206 25.4825Z" fill="#F8F2EA"/>
<path d="M34.6229 14.5551C34.6101 14.7117 34.5003 14.819 34.3768 14.8105C34.31 14.803 34.2486 14.7703 34.205 14.719C34.1615 14.6677 34.1392 14.6018 34.1427 14.5346C34.1477 14.5045 34.1587 14.4757 34.1749 14.4498C34.1912 14.4239 34.2123 14.4015 34.2373 14.3839C34.2622 14.3662 34.2904 14.3537 34.3202 14.347C34.35 14.3403 34.3808 14.3395 34.4109 14.3448C34.5429 14.3567 34.6255 14.4231 34.6229 14.5551Z" fill="#F8F2EA"/>
<path d="M30.4639 12.321C30.3898 12.3159 30.2849 12.2673 30.2935 12.1565C30.3045 12.0235 30.4384 11.986 30.5492 11.9707C30.66 11.9554 30.666 12.0645 30.6694 12.1412C30.6779 12.2528 30.6267 12.3287 30.4639 12.321Z" fill="#F8F2EA"/>
<defs>
<filter id="filter0_d_2409_121661" x="0.0383301" y="0.0239258" width="68.623" height="67.1782" filterUnits="userSpaceOnUse" color-interpolation-filters="sRGB">
<feFlood flood-opacity="0" result="BackgroundImageFix"/>
<feColorMatrix in="SourceAlpha" type="matrix" values="0 0 0 0 0 0 0 0 0 0 0 0 0 0 0 0 0 0 127 0" result="hardAlpha"/>
<feOffset dx="5" dy="4"/>
<feGaussianBlur stdDeviation="2"/>
<feComposite in2="hardAlpha" operator="out"/>
<feColorMatrix type="matrix" values="0 0 0 0 0 0 0 0 0 0 0 0 0 0 0 0 0 0 0.25 0"/>
<feBlend mode="normal" in2="BackgroundImageFix" result="effect1_dropShadow_2409_121661"/>
<feBlend mode="normal" in="SourceGraphic" in2="effect1_dropShadow_2409_121661" result="shape"/>
</filter>
</defs>
</svg>
