<svg width="68" height="66" viewBox="0 0 68 66" fill="none" xmlns="http://www.w3.org/2000/svg">
<g filter="url(#filter0_d_2409_121377)">
<path d="M0 28.9868C0.106653 21.632 2.57292 15.1563 7.56331 9.67849C11.6306 5.21484 16.6643 2.34775 22.5194 0.889284C24.3253 0.439556 26.1607 0.178366 28.0196 0.0732894C31.8633 -0.144669 35.604 0.354895 39.2313 1.65664C42.9437 2.98901 46.224 5.01909 49.0874 7.72106C51.5241 10.0201 53.424 12.7053 54.9678 15.6679C56.5573 18.7193 57.5901 21.9316 58.0535 25.3343C58.2613 26.86 58.3547 28.3923 58.3041 29.9294C58.0697 37.0861 55.5733 43.3498 50.7053 48.6223C46.5808 53.0889 41.5054 55.959 35.5473 57.2547C33.8385 57.6264 32.1091 57.8594 30.3581 57.8978C22.5302 58.0701 15.6279 55.6348 9.74216 50.4878C5.06812 46.4 2.10233 41.2669 0.715236 35.2301C0.28501 33.3591 0.0542302 31.4606 0.0277177 29.5392C0.0253074 29.365 0.010846 29.1915 0.000602558 28.9874L0 28.9868Z" fill="#060000"/>
<path d="M30.6528 55.0268C26.6072 55.1 22.834 54.4372 19.2157 52.9619C16.6198 51.9039 14.1945 50.5487 12.0838 48.6886C8.61365 45.6311 6.07628 41.9324 4.47769 37.5979C3.77932 35.7053 3.31174 33.7557 3.06288 31.7562C2.81704 29.7856 2.74292 27.8066 3.01347 25.8365C3.37742 23.1874 4.15713 20.6529 5.32248 18.2416C7.62063 13.4861 11.0112 9.68655 15.481 6.8669C18.4408 5.00014 21.662 3.75723 25.1147 3.12737C26.8145 2.81695 28.5288 2.67104 30.2557 2.68725C32.9311 2.71247 35.5588 3.08114 38.0992 3.92295C39.8683 4.50898 41.5157 5.37241 43.0751 6.39075C48.136 9.69616 51.7255 14.1982 53.982 19.7709C54.9612 22.1889 55.571 24.7005 55.815 27.2992C55.9331 28.5541 55.9994 29.812 55.8934 31.0687C55.7674 32.5614 55.4661 34.0259 55.0582 35.4675C53.8471 39.7421 51.708 43.4978 48.6597 46.7335C45.4727 50.1164 41.6633 52.5494 37.2478 54.0187C35.9216 54.46 34.5381 54.6785 33.1498 54.8455C32.2737 54.9505 31.394 54.9974 30.6528 55.0274V55.0268Z" fill="#F8F2EA"/>
<path d="M30.6613 52.995C26.9285 53.0622 23.4469 52.4543 20.1082 51.1015C17.7131 50.1314 15.4752 48.8887 13.5276 47.183C10.3257 44.3795 7.98447 40.9879 6.50945 37.0132C5.86506 35.2777 5.43362 33.49 5.204 31.6566C4.97716 29.8495 4.90877 28.0348 5.15841 26.2283C5.49422 23.7992 6.21366 21.4751 7.28893 19.264C9.40945 14.9034 12.538 11.4193 16.6623 8.83373C19.3932 7.12197 22.3655 5.98226 25.5513 5.40469C27.1197 5.12004 28.7015 4.98625 30.295 5.00111C32.7635 5.02424 35.1882 5.3623 37.5322 6.13422C39.1646 6.67159 40.6846 7.46333 42.1235 8.39712C46.7932 11.4281 50.1052 15.5564 52.1873 20.6663C53.0908 22.8835 53.6535 25.1866 53.8786 27.5696C53.9876 28.7203 54.0488 29.8738 53.9509 31.0261C53.8347 32.3949 53.5567 33.7378 53.1803 35.0597C52.0628 38.9793 50.0891 42.4232 47.2763 45.3903C44.3358 48.4923 40.8208 50.7233 36.7466 52.0706C35.5229 52.4752 34.2463 52.6757 32.9653 52.8287C32.1569 52.9251 31.3452 52.968 30.6613 52.9955V52.995Z" fill="#181818"/>
<path d="M8.10045 11.4945C8.71566 10.571 9.41162 9.70876 10.1552 8.88736C10.5679 8.43163 11.059 8.05335 11.5646 7.63965C10.4703 9.01285 9.28207 10.254 8.15167 11.5455C8.10708 11.5557 8.08358 11.5455 8.10045 11.4945Z" fill="#F8F2EA"/>
<path d="M46.6992 8.54228C48.0314 9.62367 49.2408 10.8269 50.3145 12.1641C50.3236 12.208 50.3109 12.2302 50.2621 12.214C49.1142 10.9506 47.879 9.77378 46.6425 8.59812C46.6341 8.55249 46.6498 8.53027 46.6986 8.54228H46.6992Z" fill="#F8F2EA"/>
<path d="M57.6536 27.1874C57.7989 28.3102 57.8748 29.436 57.7645 30.566C57.7235 30.9899 57.6585 31.4115 57.6042 31.8342C57.4783 31.7753 57.5621 31.6787 57.5609 31.597C57.6277 30.5474 57.6892 29.4979 57.653 28.4453C57.6392 28.0424 57.6211 27.6395 57.6042 27.2366C57.588 27.188 57.6091 27.176 57.6536 27.1868V27.1874Z" fill="#F8F2EA"/>
<path d="M32.6405 55.8856C32.0217 55.9654 31.4035 56.0477 30.7841 56.1245C30.202 56.1972 29.6181 56.2578 29.0366 56.3383C28.883 56.3599 28.7366 56.3359 28.5871 56.3323C28.5431 56.3311 28.4606 56.3701 28.4708 56.271C28.4775 56.208 28.5293 56.1834 28.5914 56.1792C28.8131 56.1648 29.0342 56.1419 29.2566 56.1341C30.2562 56.0993 31.2486 55.9852 32.2398 55.8585C32.3718 55.8417 32.505 55.8207 32.6405 55.8849V55.8856Z" fill="#F8F2EA"/>
<path d="M18.3165 4.80276C19.512 4.13447 20.8189 3.7586 22.1174 3.36171C22.1693 3.3443 22.1819 3.36771 22.1729 3.41455C20.8894 3.85527 19.6114 4.3122 18.3665 4.8538C18.3171 4.86821 18.3051 4.84719 18.3165 4.80276Z" fill="#F8F2EA"/>
<path d="M45.3521 50.8442C46.3963 49.9328 47.4652 49.0477 48.4329 48.0498C48.1991 48.5049 46.0094 50.502 45.3521 50.8442Z" fill="#F8F2EA"/>
<path d="M50.0229 9.62109C50.4797 9.95554 52.2337 12.0078 52.4784 12.4744C51.5962 11.5785 50.9027 10.5205 50.0229 9.62109Z" fill="#F8F2EA"/>
<path d="M45.4924 6.84305C44.8597 6.47679 44.2277 6.10992 43.595 5.74365C44.2921 5.99764 45.0297 6.18017 45.4924 6.84305Z" fill="#F8F2EA"/>
<path d="M7.95592 13.0117C8.38916 12.3903 8.87844 11.8115 9.3641 11.2309C9.39785 11.19 9.42677 11.094 9.50691 11.154C9.59548 11.2206 9.51715 11.2741 9.47256 11.3269C8.98389 11.9057 8.49521 12.4852 8.00714 13.0646C7.96436 13.0718 7.94026 13.0604 7.95653 13.0117H7.95592Z" fill="#F8F2EA"/>
<path d="M57.2892 34.1358C57.1633 34.9704 56.968 35.7888 56.7035 36.5909C56.689 36.6084 56.674 36.609 56.6577 36.5927C56.8692 35.7263 57.0843 34.8611 57.2368 33.9814C57.3507 34.0001 57.2862 34.0793 57.2892 34.1352V34.1358Z" fill="#F8F2EA"/>
<path d="M50.2632 12.2139C50.2807 12.1971 50.2981 12.1809 50.3156 12.1641C50.9001 12.8329 51.4099 13.5565 51.8937 14.2992C51.91 14.3461 51.8877 14.3539 51.8479 14.3443C51.3598 13.6045 50.8061 12.9134 50.2632 12.2139Z" fill="#F8F2EA"/>
<path d="M57.2895 34.1358C57.266 34.0866 57.2997 34.0175 57.2371 33.9821C57.3449 33.1871 57.4528 32.3921 57.5606 31.5972C57.5908 31.6734 57.5444 31.7635 57.604 31.8343C57.4992 32.6017 57.3943 33.3685 57.2901 34.1358H57.2895Z" fill="#F8F2EA"/>
<path d="M56.424 37.4995C56.2926 38.1606 56.0136 38.7719 55.781 39.3987C55.7401 39.5092 55.6925 39.6173 55.6479 39.7266C55.6081 39.732 55.5798 39.7278 55.6063 39.6773C55.8768 38.9418 56.1612 38.2104 56.3866 37.4593C56.4047 37.4527 56.4228 37.4467 56.4348 37.4677C56.4396 37.4761 56.433 37.4881 56.4246 37.4995H56.424Z" fill="#F8F2EA"/>
<path d="M56.8379 21.519C57.0602 22.2077 57.2741 22.8988 57.2964 23.629C57.1434 22.9259 56.9909 22.2228 56.8379 21.519Z" fill="#F8F2EA"/>
<path d="M27.9489 2.13858C28.4695 2.08815 28.9877 2.00649 29.5107 1.99268C29.5131 2.0215 29.5161 2.04972 29.5185 2.07854C29.0118 2.11577 28.505 2.15299 27.9977 2.19022C27.9495 2.20283 27.9356 2.18301 27.9483 2.13798L27.9489 2.13858Z" fill="#F8F2EA"/>
<path d="M2.15079 28.957V30.3759C2.12548 30.3759 2.10017 30.3747 2.07487 30.3741C1.96761 29.8637 2.15561 29.3629 2.15079 28.957Z" fill="#F8F2EA"/>
<path d="M3.63375 20.2905C3.53855 20.5487 3.44093 20.8069 3.34874 21.0663C3.32464 21.1341 3.29571 21.1888 3.21618 21.157C3.11374 21.1155 3.19147 21.0567 3.21437 21.0099C3.33187 20.7685 3.45238 20.5295 3.57229 20.2893C3.59338 20.2695 3.61386 20.2701 3.63435 20.2911L3.63375 20.2905Z" fill="#F8F2EA"/>
<path d="M23.4553 2.6472C22.9926 2.76188 22.5304 2.87656 22.0676 2.99185C22.4852 2.75948 22.9456 2.67902 23.4059 2.59736C23.4529 2.58415 23.4668 2.60337 23.4553 2.6478V2.6472Z" fill="#F8F2EA"/>
<path d="M3.19825 36.4054C2.97651 35.9599 2.91384 35.4699 2.84937 34.98C2.96566 35.4549 3.08195 35.9305 3.19825 36.4054Z" fill="#F8F2EA"/>
<path d="M7.95587 13.0117C7.97274 13.0291 7.98961 13.0471 8.00648 13.0646C7.79498 13.3546 7.58348 13.6452 7.37199 13.9352C7.35391 13.9232 7.33644 13.9112 7.31836 13.8992C7.52263 13.5983 7.71665 13.2903 7.95587 13.0117Z" fill="#F8F2EA"/>
<path d="M11.8022 49.7856C12.0854 50.0096 12.3687 50.2336 12.6519 50.4575C12.209 50.254 11.9348 50.036 11.8022 49.7856Z" fill="#F8F2EA"/>
<path d="M33.8512 1.71782C33.5294 1.69381 33.2071 1.66919 32.8618 1.64337C33.2167 1.45843 33.5325 1.67579 33.8572 1.65898C33.8548 1.67819 33.853 1.69801 33.8506 1.71722L33.8512 1.71782Z" fill="#F8F2EA"/>
<path d="M39.7542 4.12012C40.1259 4.16755 40.4483 4.30986 40.7417 4.52361C40.4127 4.38911 40.0831 4.25462 39.7542 4.12012Z" fill="#F8F2EA"/>
<path d="M22.1729 3.41448C22.1542 3.39706 22.1361 3.37905 22.1174 3.36164C22.3874 3.23795 22.676 3.18451 22.9598 3.11426C22.9658 3.13347 22.9719 3.15269 22.9779 3.1719C22.7091 3.25296 22.441 3.33342 22.1723 3.41448H22.1729Z" fill="#F8F2EA"/>
<path d="M35.4838 55.6548C35.7134 55.587 35.943 55.5185 36.1726 55.4507C36.0358 55.6873 35.7839 55.6332 35.5833 55.7065C35.5339 55.7197 35.4778 55.7467 35.4838 55.6548Z" fill="#F8F2EA"/>
<path d="M31.0391 56.6693C31.4072 56.6627 31.7706 56.5588 32.1423 56.6284C31.7742 56.635 31.412 56.7545 31.0391 56.6693Z" fill="#F8F2EA"/>
<path d="M10.9746 48.333C11.1837 48.5288 11.3934 48.7251 11.6025 48.9208C11.5892 48.9346 11.5754 48.9491 11.5621 48.9629C11.3307 48.7893 11.1283 48.5864 10.9746 48.333Z" fill="#F8F2EA"/>
<path d="M12.2351 49.5357C12.0128 49.3838 11.8115 49.2091 11.6416 48.9995C11.8742 49.1382 12.0773 49.3123 12.2689 49.5009C12.2737 49.5273 12.2622 49.5393 12.2351 49.5357Z" fill="#F8F2EA"/>
<path d="M4.41372 40.3637C4.26669 40.1241 4.17029 39.8653 4.13232 39.5825C4.23837 39.8323 4.34442 40.0827 4.45047 40.3325C4.45047 40.3571 4.43842 40.3673 4.41432 40.3643L4.41372 40.3637Z" fill="#F8F2EA"/>
<path d="M46.6996 8.5429C46.6809 8.56151 46.6623 8.58013 46.6436 8.59874C46.4996 8.46784 46.3556 8.33695 46.2122 8.20605C46.4116 8.2715 46.5653 8.39459 46.7002 8.5429H46.6996Z" fill="#F8F2EA"/>
<path d="M51.8477 14.3443C51.8627 14.3293 51.8784 14.3143 51.8934 14.2993C52.0507 14.4734 52.1586 14.6764 52.2339 14.9022C52.1049 14.716 51.9766 14.5299 51.8477 14.3443Z" fill="#F8F2EA"/>
<path d="M23.4554 2.64763C23.4391 2.63082 23.4223 2.61401 23.406 2.5972C23.6392 2.52034 23.876 2.4615 24.123 2.4585C24.1285 2.4645 24.1333 2.47111 24.1387 2.47711C23.92 2.57078 23.685 2.5972 23.4554 2.64703V2.64763Z" fill="#F8F2EA"/>
<path d="M15.7275 51.9385C15.8999 52.0387 16.0728 52.139 16.2451 52.2387C16.036 52.2051 15.8601 52.1078 15.7275 51.9385Z" fill="#F8F2EA"/>
<path d="M35.484 55.6548C35.4961 55.7124 35.5503 55.689 35.5834 55.7064C35.3774 55.7545 35.1719 55.8031 34.9658 55.8511C35.1237 55.737 35.302 55.6902 35.484 55.6548Z" fill="#F8F2EA"/>
<path d="M57.6536 27.1876C57.6373 27.2044 57.621 27.2206 57.6042 27.2374C57.5403 27.0627 57.5578 26.8843 57.6012 26.7036L57.6536 27.1876Z" fill="#F8F2EA"/>
<path d="M12.9682 50.1095C12.8091 50.0152 12.6579 49.9108 12.5313 49.7751C12.5301 49.7516 12.5422 49.7432 12.5645 49.7486C12.7223 49.8171 12.8344 49.9462 12.967 50.0483C12.9881 50.0681 12.9887 50.0885 12.9682 50.1095Z" fill="#F8F2EA"/>
<path d="M18.3164 4.80285C18.3332 4.81966 18.3495 4.83707 18.3664 4.85388C18.2392 4.94215 18.0982 4.99739 17.9446 5.02141C18.0536 4.92113 18.1766 4.84788 18.3158 4.80225L18.3164 4.80285Z" fill="#F8F2EA"/>
<path d="M27.949 2.1377C27.9653 2.15511 27.9821 2.17252 27.9984 2.18993C27.8399 2.27039 27.6748 2.23136 27.5073 2.19414C27.6543 2.17552 27.802 2.15631 27.949 2.1377Z" fill="#F8F2EA"/>
<path d="M3.63311 20.2906C3.61262 20.2906 3.59153 20.2894 3.57104 20.2888C3.6319 20.1549 3.69276 20.021 3.75362 19.8877C3.7494 20.0366 3.7253 20.1759 3.63311 20.2906Z" fill="#F8F2EA"/>
<path d="M4.64795 17.7072C4.72086 17.5589 4.79377 17.41 4.86668 17.2617C4.88475 17.2701 4.90343 17.2785 4.92151 17.2869C4.85222 17.437 4.80883 17.5992 4.64795 17.7072Z" fill="#F8F2EA"/>
<path d="M56.0012 22.1409C55.9656 21.9992 55.9301 21.8575 55.8945 21.7158C55.9988 21.8209 56.0434 21.9458 56.0452 22.0851C56.0681 22.1331 56.0452 22.1457 56.0006 22.1409H56.0012Z" fill="#F8F2EA"/>
<path d="M55.6059 39.6768C55.6198 39.693 55.6336 39.7098 55.6475 39.726C55.6029 39.8515 55.5529 39.974 55.4324 40.1073C55.477 39.9295 55.5306 39.7992 55.6059 39.6768Z" fill="#F8F2EA"/>
<path d="M8.10073 11.4946C8.1176 11.5114 8.13507 11.5289 8.15194 11.5457C8.0947 11.6754 7.99106 11.7672 7.88501 11.8597C7.92779 11.7204 7.99648 11.5973 8.10073 11.4946Z" fill="#F8F2EA"/>
<path d="M4.44973 40.333C4.52565 40.4651 4.59735 40.5978 4.61302 40.7551C4.52143 40.6374 4.44671 40.5119 4.41357 40.3648C4.42563 40.354 4.43768 40.3438 4.44973 40.333Z" fill="#F8F2EA"/>
<path d="M12.9682 50.1096C12.9682 50.0892 12.9676 50.0688 12.967 50.0483C13.0863 50.1168 13.1954 50.1978 13.278 50.3143C13.1629 50.2645 13.0472 50.2165 12.9682 50.1102V50.1096Z" fill="#F8F2EA"/>
<path d="M55.6173 20.5701C55.5245 20.4687 55.4552 20.3588 55.4799 20.1685C55.5371 20.336 55.5775 20.4531 55.6173 20.5701Z" fill="#F8F2EA"/>
<path d="M56.001 22.1413C56.016 22.1227 56.0305 22.1041 56.0456 22.0854C56.1058 22.1971 56.1233 22.3178 56.1046 22.4475C56.0703 22.3454 56.0353 22.2434 56.001 22.1413Z" fill="#F8F2EA"/>
<path d="M56.6581 36.5936C56.6737 36.6002 56.6888 36.599 56.7039 36.5918C56.6695 36.7011 56.6352 36.811 56.5803 36.9857C56.5611 36.7965 56.5924 36.6915 56.6581 36.5942V36.5936Z" fill="#F8F2EA"/>
<path d="M24.1226 2.45935C24.2479 2.3963 24.3792 2.36868 24.5691 2.3909C24.3937 2.42632 24.2738 2.48697 24.1382 2.47796C24.1328 2.47196 24.128 2.46535 24.1226 2.45935Z" fill="#F8F2EA"/>
<path d="M12.5316 49.7748C12.4327 49.6949 12.3339 49.6157 12.2351 49.5358C12.2466 49.5244 12.2574 49.5124 12.2689 49.501C12.3815 49.567 12.481 49.6487 12.5647 49.7484C12.5502 49.7526 12.5394 49.7616 12.5316 49.7748Z" fill="#F8F2EA"/>
<path d="M56.4242 37.4992C56.4115 37.486 56.3989 37.4721 56.3862 37.4589C56.4164 37.3545 56.4465 37.25 56.4766 37.1455C56.4929 37.2704 56.4977 37.3923 56.4236 37.4992H56.4242Z" fill="#F8F2EA"/>
</g>
<path d="M31.4745 27.4856C31.7673 27.589 32.0454 27.5422 32.3148 27.5305C32.9881 27.5012 33.6624 27.5178 34.3358 27.507C35.256 27.4924 36.1782 27.4778 37.0994 27.4768C37.5698 27.4768 38.0411 27.4241 38.5095 27.4583C38.7447 27.4758 38.9779 27.4641 39.2112 27.4758C39.4834 27.4895 39.6893 27.6242 39.7401 27.8886C39.8634 28.4588 39.9204 29.0414 39.9099 29.6247C39.9001 29.8686 39.9167 30.1126 39.9011 30.3556C39.8512 31.1655 39.6832 31.9637 39.4024 32.725C39.0258 33.735 38.5652 34.7177 37.883 35.5677C37.2213 36.3781 36.4577 37.0997 35.6112 37.7145C35.0442 38.1351 34.406 38.4484 33.7629 38.7412L33.7249 38.7568C33.438 38.869 33.4487 38.867 33.519 39.1676C33.641 39.6848 33.7766 40.201 33.8508 40.729C33.9064 41.1193 34.0011 41.496 34.0586 41.8815C34.1562 42.5197 34.2431 43.1579 34.3387 43.7961C34.3455 43.8638 34.3256 43.9314 34.2831 43.9845C33.8927 44.57 33.3336 44.9798 32.708 45.2765C32.3779 45.4406 32.0345 45.5764 31.6814 45.6824C30.8426 45.9158 29.9747 46.0275 29.1042 46.0142C28.673 46.0209 28.2422 45.9849 27.818 45.9069C26.9173 45.7117 26.0351 45.456 25.311 44.8461C25.0229 44.6112 24.7678 44.3384 24.5528 44.0352C24.4452 43.8602 24.4102 43.6501 24.4552 43.4497C24.5684 42.6524 24.8231 41.8883 24.9841 41.1018C25.1207 40.4352 25.3276 39.7843 25.4623 39.1159C25.4886 38.9851 25.473 38.9373 25.3471 38.8787C24.7558 38.5997 24.1517 38.3459 23.5837 38.02C22.9695 37.6788 22.3965 37.2682 21.876 36.7963C21.1334 36.1024 20.421 35.3725 19.854 34.5215C19.4164 33.8524 19.0479 33.1406 18.7542 32.3971C18.6178 32.083 18.5021 31.7602 18.4078 31.431C18.2823 30.9994 18.1878 30.5595 18.1248 30.1145C18.0828 29.7164 18.0126 29.3163 18.0184 28.9133C18.0184 28.6381 18.0867 28.3678 18.0565 28.0896C18.0418 27.9628 18.1541 27.952 18.2516 27.9335C18.8167 27.8291 19.3905 27.8359 19.9594 27.7793C20.5283 27.7227 21.0894 27.7003 21.6545 27.6749C22.6089 27.632 23.5642 27.6027 24.5196 27.5715C24.7235 27.5646 24.9304 27.5851 25.1324 27.5715C25.1519 27.5207 25.1197 27.4983 25.0983 27.4739C24.666 27.0211 24.4435 26.458 24.2805 25.8715C24.1829 25.5241 24.0912 25.1621 24.1224 24.7981C24.2054 23.8105 24.3488 22.8346 24.946 21.9983C25.3403 21.4429 25.772 20.915 26.2381 20.4184C26.9641 19.6465 27.7907 18.9858 28.627 18.3398C29.1374 17.9495 29.6438 17.5484 30.1454 17.1434C30.7173 16.6828 31.2442 16.1675 31.7995 15.6913C32.5753 15.0287 33.0252 14.1963 33.2701 13.2204C33.3482 12.9062 33.4185 12.6076 33.3345 12.2895C33.3219 12.2397 33.3121 12.1734 33.3785 12.149C33.4104 12.1362 33.4456 12.1342 33.4787 12.1434C33.5119 12.1525 33.5411 12.1723 33.5619 12.1997C33.8488 12.6349 34.2109 13.0253 34.4187 13.5132C34.4576 13.5993 34.5026 13.6824 34.5534 13.7621C34.8171 14.1933 35.039 14.6489 35.216 15.1224C35.5238 15.9637 35.7207 16.8416 35.8015 17.7338C35.8418 18.0755 35.86 18.4193 35.8562 18.7633C35.8366 19.4045 35.8054 20.0495 35.661 20.6731C35.4941 21.3864 35.3292 22.1096 35.0052 22.7741C34.5247 23.7925 33.9312 24.7535 33.236 25.6392C32.8134 26.1652 32.3958 26.6951 31.86 27.1157C31.7273 27.2192 31.6336 27.3704 31.4745 27.4856ZM26.9963 27.9735C26.7608 27.9892 26.5247 27.9928 26.2888 27.9842C25.6828 27.993 25.0768 27.9842 24.4698 27.9842L21.8047 27.9911C21.4339 27.9911 21.0631 28.0155 20.6952 28.0369C20.0433 28.074 19.3905 28.0711 18.7435 28.117C18.4507 28.1384 18.3531 28.2302 18.3961 28.518C18.5015 29.1953 18.5337 29.8842 18.6644 30.5566C18.7835 31.1118 18.9308 31.6606 19.1055 32.2009C19.2161 32.5164 19.3525 32.8223 19.5134 33.1153C19.8267 33.7695 20.2046 34.3906 20.6415 34.9695C21.0536 35.5103 21.5181 36.0091 22.0282 36.4586C22.9416 37.2569 23.9716 37.9108 25.0827 38.3976C25.3313 38.5021 25.585 38.5939 25.8429 38.6728C25.9512 38.708 25.9736 38.7519 25.9404 38.8583C25.8136 39.2769 25.7209 39.7043 25.5882 40.122C25.393 40.7505 25.3032 41.4082 25.108 42.0415C24.9714 42.4846 24.9548 42.9647 24.8153 43.4077C24.7079 43.7483 24.8338 43.9669 25.0417 44.1816C25.1737 44.327 25.3209 44.4579 25.4808 44.5719C25.9561 44.8891 26.4977 45.0667 27.0344 45.2384C27.5711 45.4102 28.1215 45.4238 28.667 45.5087C29.1481 45.5839 29.6429 45.5478 30.1201 45.5234C30.7316 45.5052 31.3385 45.4121 31.9274 45.2462C32.0815 45.1994 32.2299 45.134 32.3831 45.0852C32.9159 44.9154 33.4009 44.6637 33.7581 44.2226C33.9649 43.9679 34.0967 43.6644 34.0303 43.3316C33.924 42.7998 33.7854 42.2738 33.6595 41.7458C33.5004 41.0735 33.3423 40.4011 33.1774 39.7297C33.0916 39.3803 32.9705 39.0398 32.9052 38.6826C32.8886 38.5909 32.9052 38.5665 32.9852 38.5392C33.2612 38.438 33.5319 38.3227 33.7961 38.1937C34.3101 37.9492 34.8049 37.6663 35.2765 37.3476C35.8397 36.9638 36.3608 36.5216 36.831 36.0283C37.2313 35.607 37.5958 35.1533 37.9211 34.6718C38.1504 34.3303 38.3534 33.9731 38.5632 33.6208C39.015 32.8635 39.2629 32.0175 39.4932 31.1763C39.7585 30.1274 39.7945 29.0336 39.5986 27.9696C39.5761 27.8564 39.5137 27.8281 39.4366 27.8408C39.2373 27.8576 39.0368 27.8533 38.8384 27.8281C38.3827 27.8057 37.9279 27.8662 37.4722 27.8379C37.0165 27.8096 36.548 27.8847 36.0826 27.8623C35.6171 27.8398 35.1292 27.8896 34.652 27.8974C33.9689 27.9081 33.2926 27.912 32.6124 27.9354C31.7995 27.9628 30.9856 27.9657 30.1728 27.9813C30.0752 27.9813 30.0537 27.9462 30.042 27.8506C30.0257 27.6508 30.0309 27.45 30.0576 27.2514C30.0957 26.8522 30.0254 26.4521 30.0517 26.0559C30.0981 25.5948 30.0777 25.1294 29.9912 24.6741C29.9822 24.6161 29.9608 24.5607 29.9285 24.5116C29.8961 24.4626 29.8536 24.4211 29.8038 24.39C29.754 24.3589 29.698 24.3389 29.6398 24.3313C29.5815 24.3238 29.5223 24.3289 29.4662 24.3462C29.3159 24.3887 29.1809 24.4732 29.0771 24.59C28.9734 24.7067 28.9052 24.8507 28.8807 25.0049C28.8016 25.415 28.7792 25.834 28.8144 26.2501C28.8524 26.7673 28.8007 27.2836 28.8144 27.7998C28.8144 27.8681 28.8427 27.995 28.6924 27.9852C28.5421 27.9755 28.5948 27.8701 28.5948 27.8037C28.5986 27.7575 28.5886 27.7112 28.566 27.6707C28.5434 27.6302 28.5093 27.5973 28.4679 27.5763C27.9664 27.2994 27.4812 26.9938 27.0149 26.661C26.7171 26.4301 26.4401 26.1734 26.1873 25.8939C26.1131 25.8243 26.0523 25.7416 26.0078 25.65C25.8126 25.1943 25.6116 24.7444 25.6174 24.2272C25.6233 23.71 25.6399 23.2025 25.9375 22.7331C26.1576 22.3646 26.4196 22.0227 26.7182 21.7143C27.1742 21.2773 27.6569 20.8689 28.1635 20.4916C28.6914 20.0886 29.2301 19.6963 29.7473 19.2786C30.3699 18.775 31.0022 18.2793 31.5575 17.6996C31.9713 17.2664 32.4016 16.8389 32.7129 16.3256C33.0643 15.7559 33.3424 15.1441 33.5404 14.5047C33.598 14.3154 33.679 14.1319 33.7493 13.9465C33.7825 14.491 33.9327 15.0053 33.9747 15.5371C34.0225 16.149 34.0635 16.7609 34.1064 17.3737C34.1287 17.5682 34.1307 17.7644 34.1123 17.9592C34.0284 18.5389 34.0235 19.1303 33.963 19.707C33.8908 20.3901 33.8195 21.0732 33.7229 21.7563C33.679 22.0627 33.5785 22.3574 33.519 22.6678C33.6039 22.6678 33.6039 22.6063 33.6224 22.5702C33.9308 21.9485 34.044 21.2654 34.2196 20.6048C34.3473 20.0738 34.4322 19.5334 34.4734 18.9888C34.525 18.5072 34.5397 18.0224 34.5173 17.5386C34.4783 16.8341 34.4822 16.1236 34.3221 15.4298C34.3085 15.3722 34.3465 15.3625 34.3709 15.341C34.5105 15.7313 34.5202 16.1519 34.5573 16.5657C34.5768 16.7804 34.6324 16.9941 34.6344 17.2088C34.6422 17.8392 34.6724 18.4677 34.5436 19.0981C34.4295 19.6631 34.407 20.2437 34.2509 20.8097C34.0459 21.5621 33.8478 22.3096 33.5082 23.0181C33.1614 23.7252 32.7703 24.4096 32.3372 25.0674C32.1419 25.375 31.9226 25.6667 31.6814 25.9398C31.2774 26.3916 30.8432 26.8132 30.4177 27.2426C30.3467 27.3066 30.2946 27.3888 30.2669 27.4803C30.2392 27.5718 30.237 27.6691 30.2606 27.7617C30.407 27.7091 30.4987 27.59 30.6129 27.5012C31.1582 27.0766 31.6682 26.6086 32.1381 26.1018C32.6975 25.4716 33.1968 24.7904 33.6293 24.0671C34.1172 23.2865 34.3836 22.4013 34.6734 21.5299C34.8471 21.0117 34.891 20.4565 34.9955 19.9266C35.1067 19.3576 35.0823 18.7711 35.1077 18.1925C35.1252 17.7894 35.0618 17.3854 35.0267 16.9834C34.9746 16.4568 34.8829 15.9348 34.7525 15.422C34.6091 14.8026 34.4232 14.1939 34.1962 13.6001C34.0547 13.2419 33.8225 12.917 33.6244 12.5842C33.5951 12.5354 33.5629 12.4642 33.4653 12.4681C33.5317 12.7228 33.4653 12.9677 33.4516 13.2146C33.4272 13.8128 33.1921 14.3554 32.8935 14.8482C32.5332 15.4347 32.096 15.9703 31.5936 16.4408C31.01 16.9985 30.3955 17.523 29.7531 18.0119C29.2974 18.3564 28.8378 18.6999 28.4035 19.0737C27.7341 19.6484 27.0695 20.2271 26.4518 20.8605C26.0596 21.2787 25.6982 21.7249 25.3705 22.1954C24.9578 22.7663 24.7675 23.4182 24.6874 24.0886C24.5899 24.9366 24.9334 25.6998 25.3598 26.4053C25.6223 26.8559 25.976 27.2468 26.3981 27.5529C26.5982 27.6876 26.7719 27.8584 26.9963 27.9696V27.9735ZM33.4887 15.5186C33.2563 15.7476 33.0725 16.0211 32.9481 16.3227C32.5373 17.242 31.942 18.0207 31.2364 18.7243C31.1289 18.846 31.0125 18.9595 30.8881 19.0639C30.2811 19.5069 29.6468 19.9158 29.0612 20.3842C28.404 20.8934 27.8494 21.5225 27.4267 22.2384C27.1583 22.7097 26.8412 23.1674 26.7699 23.7236C26.6889 24.3238 26.6597 24.922 26.9758 25.4802C27.0553 25.6355 27.1494 25.7829 27.2569 25.9203C27.3711 26.053 27.4521 26.2531 27.6785 26.2521C27.6785 26.2296 27.6785 26.214 27.6726 26.2043C27.6384 26.1457 27.6004 26.0901 27.5672 26.0315C27.2744 25.5124 27.0158 24.9913 27.1144 24.3618C27.1808 23.9334 27.2354 23.5089 27.4472 23.1176C27.729 22.6194 28.0578 22.1492 28.4289 21.7134C28.9763 21.0429 29.6399 20.5023 30.3386 19.9929C30.9572 19.5371 31.511 18.9993 31.9849 18.3945C32.3811 17.8919 32.7734 17.3815 33.0184 16.7833C33.1872 16.3588 33.3326 15.9353 33.4887 15.5147V15.5186ZM30.3045 26.3399C30.4419 26.2145 30.5656 26.0748 30.6734 25.9232C31.1267 25.3712 31.5483 24.7939 31.9361 24.194C32.4153 23.4728 32.6085 22.6248 32.912 21.8256C33.041 21.4406 33.1239 21.0416 33.1589 20.637C33.1869 20.5417 33.1893 20.4407 33.1657 20.3442C33.1434 20.3571 33.1241 20.3746 33.1093 20.3957C33.0944 20.4168 33.0844 20.4408 33.0798 20.4662C32.8564 21.164 32.6963 21.8822 32.3314 22.5331C32.1586 22.8424 32.0327 23.1801 31.8708 23.4992C31.522 24.2242 31.0826 24.902 30.5631 25.5163C30.3406 25.7671 30.2372 26.0042 30.3045 26.3399ZM30.2801 27.2104C30.3582 27.144 30.4079 27.1128 30.4479 27.0679C30.8536 26.6358 31.2305 26.1774 31.576 25.6959C32.1746 24.8553 32.6826 23.9538 33.0916 23.0064C33.2275 22.7009 33.3062 22.3732 33.3238 22.0393C33.2792 22.1204 33.2388 22.2038 33.2028 22.2891C32.9188 22.862 32.5782 23.4075 32.2992 23.9783C31.8444 24.9103 31.1506 25.6305 30.4509 26.3594C30.3757 26.4375 30.2733 26.5058 30.2791 26.6424C30.286 26.8181 30.2801 26.9937 30.2801 27.2104Z" fill="#F8F2EA"/>
<path d="M44.3539 21.4015C44.5209 21.4192 44.6867 21.4463 44.8506 21.4825C45.4967 21.6552 45.9241 22.4408 45.603 23.2185C45.402 23.7006 45.0663 24.0129 44.5403 24.1095C44.109 24.1885 43.5362 23.9046 43.3371 23.5064C43.2288 23.2917 43.0843 23.1005 43.0297 22.8526C42.9516 22.4954 43.0824 22.1988 43.2883 21.9567C43.5069 21.6949 43.801 21.5068 44.1305 21.4181C44.2043 21.406 44.2791 21.4005 44.3539 21.4015ZM44.0895 22.7179C44.0953 22.9697 44.39 23.24 44.6584 23.24C44.8058 23.24 44.9512 23.0341 44.9512 22.8311C44.9512 22.6281 44.6701 22.4174 44.4427 22.4252C44.2476 22.431 44.0856 22.5676 44.0895 22.7179ZM43.7733 22.3061C43.5332 22.4203 43.5205 22.6154 43.5781 22.7989C43.6581 23.0546 43.7225 23.3405 44.0768 23.4557C43.9241 23.3114 43.8148 23.1273 43.7611 22.9242C43.7075 22.721 43.7117 22.507 43.7733 22.3061Z" fill="#050505"/>
<path d="M23.0245 12.5836C23.0141 12.4631 23.0141 12.342 23.0245 12.2215C23.1016 11.8058 23.4002 11.5609 23.8315 11.5316C24.0121 11.5199 24.1906 11.4672 24.3731 11.5131C24.9469 11.6594 25.185 12.0703 25.023 12.6353C24.9669 12.8235 24.8802 13.0012 24.7664 13.1613C24.5302 13.5019 24.1906 13.5877 23.8032 13.4999C23.624 13.4645 23.4533 13.3945 23.3007 13.294C23.1878 13.2177 23.1009 13.1089 23.0516 12.9819C23.0022 12.855 22.9928 12.716 23.0245 12.5836ZM23.5436 12.1474C23.4535 12.1882 23.3808 12.2595 23.3382 12.3489C23.2957 12.4382 23.2862 12.5396 23.3114 12.6353C23.3534 12.7866 23.3836 12.9671 23.6149 12.9691C23.4783 12.649 23.4783 12.649 23.5407 12.1386C23.5466 12.1571 23.5573 12.1601 23.569 12.1454C23.5807 12.1308 23.569 12.1327 23.569 12.1259L23.5436 12.1474ZM24.1477 12.1845C23.9389 12.1845 23.8052 12.2733 23.7574 12.4431C23.7349 12.5217 23.7384 12.6055 23.7674 12.682C23.7964 12.7585 23.8494 12.8236 23.9184 12.8676C24.0882 12.9886 24.2111 12.9388 24.3819 12.6802C24.4512 12.5748 24.5595 12.4499 24.5 12.3328C24.4405 12.2157 24.2677 12.1884 24.1448 12.1796L24.1477 12.1845Z" fill="#050505"/>
<path d="M10.9951 34.188C10.9951 33.7303 11.281 33.4239 11.7299 33.3907C11.8373 33.3819 11.9437 33.3604 12.051 33.3516C12.3155 33.3292 12.5731 33.3868 12.7019 33.6259C12.7861 33.7666 12.8267 33.9291 12.8185 34.0929C12.8103 34.2567 12.7538 34.4144 12.656 34.5461C12.5027 34.744 12.3137 34.9115 12.0988 35.0399C11.8861 35.1824 11.443 35.0584 11.2283 34.7998C11.0792 34.6308 10.9963 34.4134 10.9951 34.188ZM12.0168 33.9225C11.931 33.9655 11.7748 33.9294 11.767 34.1079C11.7602 34.2582 11.9124 34.5676 11.9924 34.5676C12.133 34.5676 12.3389 34.346 12.3399 34.1919C12.3369 34.0718 12.173 33.9245 12.0168 33.9225ZM11.7241 34.7257C11.6177 34.3978 11.4313 34.1138 11.6548 33.7908C11.5626 33.8034 11.4789 33.851 11.4208 33.9236C11.3627 33.9963 11.3347 34.0884 11.3425 34.1811C11.3406 34.4329 11.4655 34.6007 11.7231 34.7257H11.7241Z" fill="#050505"/>
<path d="M43.7949 34.6008C43.3791 34.594 42.9927 34.2153 43.0044 33.826C43.0181 33.3829 43.3547 33.0219 43.7422 33.0355C44.1628 33.0502 44.6107 33.3722 44.6048 33.6552C44.5941 34.2261 44.2652 34.6086 43.7949 34.6008ZM43.8759 34.0329C43.943 34.0327 44.0078 34.0085 44.0587 33.9646C44.1095 33.9208 44.143 33.8602 44.153 33.7938C44.153 33.6074 43.9988 33.5849 43.8729 33.5713C43.7636 33.5586 43.6358 33.5888 43.6085 33.7294C43.5841 33.8533 43.7412 34.0221 43.8759 34.0329ZM43.3586 33.5283C43.1693 33.7762 43.2279 34.0163 43.5021 34.1607C43.3918 33.9646 43.2835 33.7811 43.3586 33.5283Z" fill="#050505"/>
<path d="M43.0023 38.8859C43.0023 39.247 42.773 39.5329 42.3368 39.5261C41.9006 39.5192 41.7093 39.1474 41.6693 38.7103C41.6381 38.355 41.8957 38.1413 42.2802 38.1491C42.3763 38.149 42.4715 38.168 42.5601 38.2052C42.6488 38.2424 42.7291 38.2969 42.7964 38.3655C42.8636 38.4341 42.9165 38.5155 42.9519 38.6049C42.9873 38.6943 43.0044 38.7898 43.0023 38.8859ZM42.5886 38.8859C42.5886 38.7454 42.5466 38.6332 42.4002 38.64C42.2831 38.64 42.1485 38.72 42.1611 38.8352C42.1758 38.9013 42.2104 38.9613 42.2604 39.007C42.3103 39.0528 42.3731 39.082 42.4402 39.0908C42.5632 39.1113 42.5622 38.9689 42.5886 38.8859Z" fill="#050505"/>
<path d="M37.5141 48.0861C37.5043 48.4862 37.1745 48.8727 36.831 48.8502C36.4562 48.8248 36.2376 48.5272 36.2269 48.011C36.2201 47.6997 36.5382 47.483 36.9647 47.4889C37.0402 47.4914 37.1144 47.5089 37.1831 47.5404C37.2517 47.5719 37.3134 47.6167 37.3646 47.6723C37.4157 47.7279 37.4553 47.7931 37.4809 47.8642C37.5066 47.9352 37.5179 48.0107 37.5141 48.0861ZM36.831 48.3857C36.8624 48.3874 36.8939 48.3824 36.9233 48.3712C36.9527 48.3599 36.9794 48.3426 37.0017 48.3203C37.024 48.298 37.0413 48.2713 37.0526 48.2419C37.0639 48.2125 37.0688 48.181 37.0671 48.1495C37.0671 48.0071 36.9178 47.9875 36.8115 47.9885C36.7314 47.9885 36.6036 47.9778 36.6163 48.1456C36.629 48.3135 36.6953 48.375 36.831 48.3857Z" fill="#050505"/>
<path d="M19.0119 18.6856C18.483 18.7325 18.2586 18.2953 18.2312 17.9157C18.2117 17.6014 18.564 17.3536 18.9944 17.3506C19.155 17.3485 19.3104 17.408 19.4286 17.5169C19.5467 17.6258 19.6187 17.7758 19.6297 17.9362C19.6404 18.3675 19.3798 18.6856 19.0119 18.6856ZM18.9143 17.8269C18.7621 17.8386 18.6216 17.863 18.5767 18.0113C18.5455 18.1089 18.8324 18.3929 18.9339 18.3831C19.051 18.3724 19.21 18.1596 19.1983 18.0172C19.1817 17.8298 19.0227 17.8552 18.9134 17.8269H18.9143Z" fill="#050505"/>
<path d="M19.889 38.8925C19.889 39.236 19.6353 39.5229 19.3396 39.52C19.044 39.5171 18.7971 39.2048 18.8049 38.8076C18.8097 38.5022 19.0196 38.3441 19.4099 38.3529C19.4768 38.3567 19.5424 38.3738 19.6027 38.403C19.663 38.4322 19.717 38.4731 19.7615 38.5232C19.806 38.5734 19.8402 38.6318 19.8621 38.6952C19.884 38.7585 19.8931 38.8256 19.889 38.8925ZM19.1259 38.8594C19.1347 39.0262 19.2508 39.1755 19.365 39.1521C19.4255 39.1419 19.4804 39.1108 19.5203 39.0643C19.5603 39.0177 19.5826 38.9587 19.5836 38.8974C19.5836 38.7686 19.445 38.7022 19.3289 38.6925C19.243 38.6905 19.122 38.7179 19.1259 38.8594Z" fill="#050505"/>
<path d="M26.9962 27.9698C26.7718 27.8586 26.5981 27.6878 26.4009 27.5492C25.9788 27.2431 25.6251 26.8522 25.3626 26.4016C24.9362 25.6961 24.5888 24.9378 24.6903 24.0849C24.7703 23.4145 24.9606 22.7626 25.3734 22.1917C25.701 21.7212 26.0624 21.275 26.4546 20.8568C27.0694 20.2234 27.734 19.6447 28.4063 19.07C28.8406 18.6962 29.3002 18.3527 29.7559 18.0082C30.3972 17.5205 31.0107 16.9973 31.5935 16.441C32.0967 15.9719 32.5348 15.4376 32.8963 14.8523C33.1949 14.3595 33.4301 13.8169 33.4545 13.2187C33.4652 12.9718 33.5345 12.7308 33.4681 12.4722C33.5657 12.4722 33.5979 12.5395 33.6272 12.5883C33.8224 12.923 34.0575 13.246 34.199 13.6042C34.425 14.1981 34.6099 14.8068 34.7524 15.4261C34.8828 15.9389 34.9745 16.4609 35.0266 16.9875C35.0617 17.3895 35.1242 17.7935 35.1076 18.1966C35.0822 18.7753 35.1076 19.3617 34.9953 19.9307C34.8909 20.4654 34.847 21.0158 34.6733 21.534C34.3806 22.4015 34.118 23.2847 33.6291 24.0712C33.1964 24.7931 32.6972 25.473 32.138 26.102C31.6659 26.6111 31.1532 27.0811 30.6049 27.5073C30.4908 27.5961 30.399 27.7151 30.2527 27.7678C30.2291 27.6752 30.2313 27.5779 30.259 27.4864C30.2867 27.3949 30.3388 27.3127 30.4098 27.2486C30.8353 26.8193 31.2695 26.3977 31.6735 25.9459C31.9147 25.6728 32.134 25.3811 32.3293 25.0735C32.7624 24.4157 33.1535 23.7312 33.5003 23.0241C33.8399 22.3157 34.038 21.5682 34.243 20.8158C34.3962 20.2498 34.4186 19.6691 34.5357 19.1041C34.6645 18.4737 34.6333 17.8453 34.6265 17.2149C34.6265 17.0002 34.5689 16.7864 34.5494 16.5718C34.5123 16.158 34.5025 15.7423 34.363 15.3471C34.3386 15.3685 34.3005 15.3783 34.3142 15.4359C34.4752 16.1297 34.4713 16.8401 34.5094 17.5447C34.5318 18.0285 34.5171 18.5133 34.4655 18.9948C34.4243 19.5394 34.3394 20.0798 34.2117 20.6108C34.0361 21.2715 33.919 21.9546 33.6145 22.5762C33.596 22.6143 33.596 22.6738 33.5111 22.6738C33.5706 22.3635 33.6711 22.0688 33.715 21.7624C33.8126 21.0793 33.8829 20.3962 33.9551 19.7131C34.0156 19.1275 34.0205 18.542 34.1044 17.9653C34.1228 17.7704 34.1208 17.5742 34.0985 17.3798C34.0556 16.7669 34.0146 16.1551 33.9668 15.5432C33.9248 15.0114 33.7716 14.4971 33.7414 13.9525C33.6711 14.138 33.5901 14.3214 33.5325 14.5107C33.3344 15.1501 33.0564 15.762 32.705 16.3317C32.3937 16.845 31.9633 17.2724 31.5496 17.7057C30.9943 18.2854 30.362 18.7792 29.7394 19.2847C29.2222 19.7023 28.6835 20.0946 28.1555 20.4976C27.6496 20.8719 27.1673 21.277 26.7113 21.7106C26.4126 22.019 26.1507 22.3609 25.9306 22.7294C25.6329 23.1988 25.6183 23.6994 25.6105 24.2235C25.6027 24.7475 25.8057 25.1906 26.0008 25.6463C26.0453 25.7379 26.1062 25.8206 26.1804 25.8903C26.4332 26.1697 26.7101 26.4264 27.0079 26.6573C27.4743 26.9901 27.9594 27.2957 28.461 27.5726C28.5023 27.5936 28.5365 27.6265 28.5591 27.667C28.5817 27.7075 28.5917 27.7538 28.5878 27.8C28.5878 27.8664 28.5488 27.9737 28.6854 27.9815C28.822 27.9893 28.8084 27.8644 28.8074 27.7961C28.7967 27.2799 28.8484 26.7636 28.8074 26.2464C28.7723 25.8303 28.7946 25.4113 28.8738 25.0012C28.8983 24.847 28.9664 24.703 29.0702 24.5863C29.174 24.4695 29.309 24.385 29.4593 24.3425C29.5154 24.3252 29.5746 24.3201 29.6328 24.3276C29.6911 24.3352 29.747 24.3552 29.7968 24.3863C29.8467 24.4174 29.8892 24.4589 29.9215 24.5079C29.9539 24.557 29.9753 24.6124 29.9843 24.6704C30.0708 25.1257 30.0911 25.5911 30.0448 26.0522C30.0185 26.4484 30.0887 26.8485 30.0507 27.2477C30.024 27.4463 30.0187 27.6471 30.035 27.8469C30.0468 27.9444 30.0721 27.9796 30.1658 27.9776C30.9787 27.962 31.7926 27.9591 32.6055 27.9318C33.2886 27.9083 33.9658 27.9044 34.645 27.8937C35.1222 27.8859 35.5994 27.8361 36.0756 27.8586C36.5518 27.881 37.0046 27.8049 37.4652 27.8342C37.9259 27.8634 38.3787 27.802 38.8314 27.8244C39.0299 27.8496 39.2304 27.8539 39.4297 27.8371C39.5067 27.8244 39.5692 27.8527 39.5916 27.9659C39.79 29.0308 39.756 30.1259 39.4921 31.1765C39.2618 32.0177 39.0139 32.8637 38.5621 33.621C38.3523 33.9733 38.1493 34.3305 37.92 34.672C37.5951 35.1535 37.2308 35.6072 36.8309 36.0285C36.3616 36.5216 35.8415 36.9639 35.2793 37.3478C34.8078 37.6665 34.3129 37.9494 33.7989 38.1939C33.5347 38.3229 33.2641 38.4382 32.988 38.5394C32.9119 38.5667 32.8904 38.5911 32.908 38.6828C32.9734 39.04 33.0944 39.3805 33.1802 39.7299C33.3452 40.4013 33.5033 41.0737 33.6623 41.746C33.7882 42.274 33.9268 42.8 34.0331 43.3318C34.0995 43.6646 33.9678 43.9681 33.7609 44.2228C33.4037 44.6639 32.9187 44.9156 32.3859 45.0854C32.2327 45.1342 32.0844 45.1996 31.9302 45.2464C31.3409 45.4117 30.7336 45.5042 30.1219 45.5216C29.6418 45.546 29.146 45.5821 28.6688 45.507C28.1233 45.4221 27.5642 45.4045 27.0362 45.2367C26.5083 45.0688 25.9628 44.8873 25.4827 44.5702C25.3227 44.4561 25.1755 44.3253 25.0435 44.1798C24.8357 43.9651 24.7098 43.7465 24.8171 43.406C24.9557 42.9629 24.9723 42.4828 25.1099 42.0398C25.305 41.4064 25.3919 40.7487 25.59 40.1203C25.7227 39.7026 25.8154 39.2752 25.9423 38.8565C25.9745 38.7501 25.952 38.7062 25.8447 38.6711C25.5868 38.5922 25.3331 38.5004 25.0845 38.3959C23.9718 37.9079 22.9404 37.2523 22.0262 36.452C21.516 36.0024 21.0516 35.5036 20.6395 34.9628C20.2025 34.384 19.8246 33.7628 19.5114 33.1087C19.3505 32.8156 19.214 32.5098 19.1035 32.1943C18.9287 31.654 18.7815 31.1052 18.6624 30.55C18.5316 29.8737 18.4994 29.1887 18.394 28.5114C18.3491 28.2187 18.4457 28.1318 18.7414 28.1103C19.3923 28.0645 20.0452 28.0674 20.6931 28.0303C21.061 28.0088 21.4319 27.9854 21.8027 27.9844L24.4678 27.9776C25.0747 27.9776 25.6808 27.9874 26.2868 27.9776C26.5232 27.9872 26.76 27.9846 26.9962 27.9698ZM21.4553 34.956C21.4397 34.9736 21.4114 34.9921 21.4484 35.0126C21.4563 35.0126 21.4758 34.9989 21.4904 34.9911C21.4836 35.0058 21.468 35.0263 21.4728 35.036C21.4894 35.0702 21.5138 35.0497 21.5343 35.036C21.5285 35.0497 21.5129 35.0672 21.5168 35.0751C21.5333 35.1053 21.5538 35.0877 21.5734 35.0751C21.5451 35.1424 21.5948 35.116 21.6231 35.117C21.6151 35.127 21.6076 35.1374 21.6007 35.1482C21.6007 35.1482 21.6007 35.1541 21.6065 35.158L21.6222 35.117C21.5841 35.1287 21.5792 35.1004 21.5724 35.0751L21.5343 35.036C21.506 35.036 21.4885 35.0224 21.4904 34.9921C21.4641 34.9921 21.4514 34.9833 21.4553 34.956C21.425 34.956 21.4143 34.9394 21.4114 34.9131C21.406 34.9133 21.4007 34.9125 21.3957 34.9106C21.3907 34.9087 21.3862 34.9057 21.3824 34.902C21.3787 34.8982 21.3757 34.8937 21.3738 34.8887C21.3719 34.8837 21.3711 34.8784 21.3714 34.873C21.3658 34.8737 21.3602 34.873 21.355 34.8712C21.3497 34.8694 21.3449 34.8664 21.341 34.8624C21.3371 34.8585 21.3341 34.8537 21.3322 34.8485C21.3304 34.8432 21.3297 34.8376 21.3304 34.8321C21.303 34.8321 21.2816 34.8194 21.2874 34.7862L21.2289 34.7706C21.2289 34.7413 21.2191 34.7257 21.1879 34.7306C21.1812 34.7017 21.1684 34.6746 21.1504 34.651C21.1324 34.6275 21.1096 34.608 21.0835 34.594L21.0464 34.5471L21.0113 34.5042C20.9837 34.4301 20.9445 34.361 20.8951 34.2992C20.7 34.0211 20.456 33.7791 20.2872 33.4766C20.1471 33.2502 19.9953 33.0313 19.8324 32.8208C20.1041 33.354 20.4351 33.8548 20.819 34.3139C20.8776 34.3832 20.9293 34.4583 20.9849 34.5315C20.9844 34.5369 20.985 34.5424 20.9867 34.5475C20.9884 34.5526 20.9912 34.5574 20.9949 34.5613C20.9986 34.5653 21.0031 34.5685 21.0081 34.5705C21.0131 34.5726 21.0185 34.5736 21.0239 34.5735C21.0239 34.5988 21.0366 34.6144 21.064 34.6144C21.0971 34.6642 21.1186 34.7257 21.1918 34.7306C21.185 34.7657 21.184 34.794 21.2328 34.7706C21.2377 34.7872 21.2201 34.8086 21.2513 34.8184C21.2826 34.8282 21.2747 34.796 21.2865 34.7872C21.2796 34.8057 21.2445 34.8145 21.2718 34.8447C21.2991 34.875 21.3118 34.8447 21.3304 34.836C21.3245 34.8545 21.2904 34.8643 21.3187 34.8926C21.347 34.9209 21.3548 34.8838 21.3714 34.877C21.3645 34.8926 21.3489 34.9121 21.3538 34.9218C21.3723 34.957 21.3928 34.9326 21.4114 34.9218C21.3977 34.9414 21.3753 34.9638 21.4114 34.9804C21.4201 34.9765 21.4397 34.9619 21.4553 34.956ZM22.8703 36.2558L22.8264 36.2197C22.802 36.1973 22.7717 36.167 22.7483 36.2061C22.7346 36.2285 22.7717 36.2441 22.7971 36.249L22.839 36.288C22.8566 36.3037 22.8771 36.3193 22.8956 36.2939C22.8986 36.29 22.8761 36.2685 22.8703 36.2558ZM35.3232 36.2734L35.2979 36.3027C35.3037 36.3027 35.3115 36.3076 35.3154 36.3027C35.3193 36.2978 35.3359 36.2802 35.3154 36.2656C35.3457 36.3076 35.3623 36.2656 35.3828 36.2549C35.6511 36.127 35.8482 35.9123 36.0542 35.7074C36.0734 35.7016 36.0908 35.6911 36.1051 35.677C36.1194 35.6629 36.13 35.6455 36.1361 35.6264L36.1761 35.5854C36.2132 35.5522 36.2737 35.562 36.2991 35.5054L36.343 35.4703C36.56 35.2815 36.7542 35.0679 36.9217 34.834C36.9422 34.8077 37.0329 34.8262 36.9754 34.752C36.9802 34.7735 36.992 34.7852 37.0144 34.7755C37.0193 34.7755 37.0193 34.7638 37.0222 34.7569H36.9763C36.9549 34.7784 36.9041 34.7569 36.9012 34.8096C36.6611 34.9833 36.5109 35.24 36.303 35.4459C36.297 35.4471 36.2915 35.4501 36.2871 35.4544C36.2828 35.4587 36.2798 35.4643 36.2786 35.4703C36.2376 35.5093 36.1674 35.5064 36.142 35.5679C36.1364 35.5688 36.1312 35.5715 36.1272 35.5755C36.1231 35.5795 36.1205 35.5847 36.1195 35.5903L36.0288 35.6801C35.8024 35.8606 35.6062 36.0763 35.3623 36.2363C35.3388 36.2353 35.3232 36.251 35.3232 36.2734ZM26.277 43.8568L26.2458 43.8461L26.2594 43.8744C26.279 43.8988 26.3131 43.931 26.3307 43.8978C26.3482 43.8646 26.2995 43.8627 26.277 43.8568ZM21.2025 34.3558C21.1977 34.3705 21.1664 34.3734 21.1869 34.4017C21.2074 34.43 21.2201 34.4017 21.2357 34.4017C21.2191 34.5334 21.3333 34.5871 21.4026 34.6603C21.67 34.9531 21.9071 35.2722 22.2535 35.482C21.9347 35.1041 21.5935 34.7456 21.2318 34.4085L21.1977 34.3636C21.183 34.3402 21.1664 34.3217 21.1371 34.3334C21.1371 34.3334 21.1303 34.3578 21.1371 34.3597C21.1547 34.3715 21.1791 34.4066 21.2006 34.3558H21.2025ZM22.9923 36.3378L22.9444 36.3242L22.9649 36.3671L23.042 36.4149C23.0537 36.4378 23.0715 36.4571 23.0933 36.4707C23.1151 36.4842 23.1402 36.4916 23.166 36.492L23.2089 36.5291C23.2372 36.5466 23.2557 36.614 23.2958 36.5632C23.3172 36.5349 23.2694 36.5105 23.2372 36.5008L23.1933 36.4647L23.0713 36.3817L22.9923 36.3378ZM19.4235 31.3414C19.4099 31.3199 19.4157 31.2663 19.3728 31.2916C19.3299 31.317 19.366 31.3473 19.3874 31.3717C19.3885 31.4114 19.3997 31.4502 19.42 31.4844C19.4403 31.5186 19.4691 31.547 19.5036 31.5668C19.5059 31.5257 19.4999 31.4844 19.4858 31.4457C19.4717 31.4069 19.4498 31.3714 19.4216 31.3414H19.4235ZM19.4958 32.1221C19.485 32.1065 19.4889 32.0655 19.4587 32.0831C19.4284 32.1006 19.4587 32.125 19.4733 32.1426C19.4956 32.2699 19.5595 32.3862 19.6548 32.4734C19.6394 32.3417 19.5831 32.2181 19.4938 32.1201L19.4958 32.1221ZM30.9231 44.3057C31.119 44.2936 31.3096 44.2369 31.4803 44.1398C31.2988 44.175 31.1104 44.174 30.9397 44.252L30.361 44.3643L30.3659 44.3848L30.9231 44.3057ZM37.6116 33.9918C37.7118 33.822 37.813 33.6522 37.9151 33.4824L37.8634 33.4541C37.7531 33.62 37.6087 33.7674 37.6106 33.9938C37.5989 33.9811 37.6106 33.9372 37.5697 33.9655L37.6116 33.9918ZM33.5784 37.2903C33.8594 37.3264 34.0117 37.1068 34.2156 36.9877C33.9824 37.0482 33.7989 37.221 33.5599 37.2649C33.4388 37.3283 33.2895 37.3478 33.2085 37.4776C33.3364 37.422 33.4906 37.422 33.5784 37.2903ZM26.6605 43.9944C26.5717 43.9612 26.4927 43.89 26.3678 43.9163C26.4471 44.0022 26.5543 44.0571 26.6703 44.0715C27.0938 44.2208 27.5193 44.3574 27.9721 44.377C28.2756 44.3906 28.5791 44.4004 28.8826 44.4121C29.2153 44.5633 29.5393 44.4023 29.8691 44.4384V44.3496L28.9001 44.3994C28.8455 44.3213 28.7654 44.3652 28.7001 44.3662C28.0024 44.3773 27.3094 44.251 26.6605 43.9944ZM20.0676 29.2999H19.5797C19.4753 29.2999 19.447 29.3341 19.4675 29.4473C19.5958 30.0983 19.7853 30.7358 20.0335 31.3512C20.3001 31.9835 20.6269 32.5887 21.0093 33.1585C21.3783 33.7541 21.8242 34.2984 22.3355 34.7774C22.8929 35.2702 23.4866 35.7204 24.1116 36.1241C24.8805 36.6423 25.7647 36.937 26.6342 37.2473C27.1894 37.4425 27.7769 37.5186 28.3527 37.5967C29.308 37.7265 30.2722 37.6708 31.2285 37.5518C31.6073 37.4933 31.9818 37.4102 32.3498 37.3029C33.0828 37.1045 33.7847 36.8049 34.4352 36.413C35.016 36.0727 35.5562 35.6674 36.0454 35.2048C36.7519 34.5325 37.3072 33.741 37.7941 32.8969C38.1971 32.2031 38.3943 31.4283 38.6216 30.669C38.7465 30.2533 38.7661 29.8191 38.81 29.3887C38.8236 29.2589 38.7807 29.2365 38.6568 29.2365C38.2206 29.2365 37.7883 29.2901 37.3481 29.2619C36.908 29.2335 36.4367 29.3067 35.9819 29.2775C35.5272 29.2482 35.0705 29.3214 34.6109 29.2853C34.1161 29.2462 33.6194 29.3331 33.1188 29.2921C32.6582 29.255 32.1946 29.338 31.7272 29.2999C31.2598 29.2619 30.7767 29.3419 30.2966 29.2999C29.8438 29.2609 29.388 29.3399 28.9304 29.2999C28.4727 29.2599 28.0072 29.338 27.5417 29.2999C27.0762 29.2619 26.5903 29.337 26.1111 29.2999C25.6154 29.2638 25.1167 29.3311 24.6161 29.2999C24.1477 29.2687 23.6763 29.3253 23.203 29.2999C22.7298 29.2745 22.2623 29.3097 21.79 29.2999C21.2113 29.2941 20.6395 29.3224 20.0676 29.2999ZM32.5986 40.5857L32.6299 40.5799C32.6074 40.4628 32.584 40.3466 32.5606 40.2295C32.4786 39.807 32.3986 39.3845 32.3137 38.9609C32.2912 38.8477 32.259 38.7658 32.097 38.8145C31.2964 39.0704 30.4618 39.204 29.6213 39.2107C29.1577 39.2107 28.6991 39.2527 28.2326 39.1756C27.7867 39.1034 27.3319 39.078 26.8879 38.9873C26.7435 38.958 26.7005 39.0097 26.6732 39.1415C26.5551 39.727 26.478 40.3232 26.3024 40.898C26.1784 41.304 26.116 41.7285 26.0184 42.1422C25.9715 42.3239 25.9145 42.5027 25.8476 42.678C25.6925 43.1044 25.5949 43.285 26.1511 43.5465C26.4806 43.6874 26.8215 43.8004 27.1699 43.8841C27.6969 44.0315 28.2502 44.0276 28.7918 44.0891C29.267 44.1437 29.7569 44.0979 30.239 44.0744C30.5903 44.0569 30.9328 43.9603 31.2802 43.9134C31.8706 43.848 32.4344 43.6323 32.9177 43.2869C32.9764 43.248 33.021 43.1912 33.045 43.1249C33.0689 43.0587 33.0708 42.9865 33.0505 42.919C32.9365 42.4638 32.847 42.0029 32.7821 41.5382C32.7323 41.2181 32.6591 40.9029 32.5986 40.5857ZM26.1999 26.6514C26.4 27.1013 27.8159 27.9874 28.4815 27.92C27.6676 27.6013 26.9002 27.1746 26.1999 26.6514ZM25.186 44.0383C25.6212 44.66 27.4959 45.2523 28.1263 45.1557C27.0245 45.0142 26.0428 44.6941 25.186 44.0383ZM35.1242 28.1982H38.2089C37.9737 28.124 35.4472 28.0937 35.1242 28.1982ZM29.8487 38.2681C29.4827 38.23 28.9206 38.2251 28.3614 38.1607C28.8345 38.348 29.3536 38.3855 29.8487 38.2681ZM24.254 36.9594C24.4961 37.1966 25.2104 37.5645 25.4934 37.5957C25.0777 37.3244 24.6424 37.1858 24.254 36.9594ZM20.2989 28.7368C20.0374 28.6988 19.7758 28.6597 19.5182 28.6246C19.4801 28.6197 19.4148 28.5846 19.4079 28.6636C19.4079 28.7173 19.4372 28.7515 19.4958 28.7505C19.7534 28.7466 20.0237 28.7485 20.2989 28.7368ZM28.9587 45.2582V45.3157H29.6671C29.431 45.2377 29.1948 45.2552 28.9587 45.2582ZM18.8312 29.9703L18.7336 29.1125C18.7141 29.4053 18.6975 29.6971 18.8312 29.9703ZM26.1267 37.8182L25.5002 37.6035C25.6769 37.7626 25.9013 37.7909 26.1267 37.8182ZM21.0737 28.9379C20.8264 28.9063 20.5752 28.9263 20.336 28.9964C20.5653 28.9769 20.8005 29.0491 21.0737 28.932V28.9379ZM20.092 28.9379C19.8695 28.9457 19.6431 28.8832 19.4245 28.9632C19.6558 29.0423 19.8695 28.9408 20.092 28.9369V28.9379ZM28.2892 45.226C28.4844 45.3362 28.6698 45.2611 28.8503 45.2738L28.2892 45.226ZM26.4585 38.8692C26.4361 38.9873 26.4146 39.1054 26.3931 39.2244L26.4566 39.2351C26.4614 39.1132 26.5278 39.0019 26.4585 38.8682V38.8692ZM26.0457 40.333C26.0711 40.1729 26.1355 40.0627 26.074 39.9046C26.0682 40.0568 25.9989 40.1642 26.0457 40.3291V40.333ZM19.3494 31.2419C19.3571 31.228 19.3618 31.2127 19.3631 31.1969C19.3645 31.1811 19.3626 31.1652 19.3574 31.1502C19.3523 31.1352 19.344 31.1214 19.3332 31.1098C19.3224 31.0982 19.3093 31.089 19.2947 31.0828C19.2576 31.1453 19.284 31.1901 19.3494 31.238V31.2419ZM19.7788 32.771L19.809 32.7613C19.8031 32.7301 19.7973 32.6988 19.7895 32.6686C19.7775 32.6672 19.7654 32.6672 19.7534 32.6686L19.7788 32.771ZM19.2801 31.0028C19.2752 30.993 19.2733 30.9755 19.2664 30.9735C19.2596 30.9716 19.2352 30.9803 19.2411 31.0008C19.2456 31.0115 19.2518 31.0214 19.2596 31.0301L19.2801 31.0028Z" fill="#050505"/>
<path d="M33.4887 15.5146C33.3325 15.9352 33.1871 16.3588 33.0183 16.7735C32.7734 17.3717 32.3811 17.8821 31.9849 18.3847C31.511 18.9895 30.9572 19.5272 30.3386 19.9831C29.6399 20.4925 28.9724 21.0331 28.4288 21.7036C28.0577 22.1394 27.729 22.6096 27.4471 23.1078C27.2354 23.4982 27.1807 23.9236 27.1144 24.352C27.0168 24.9815 27.2764 25.5026 27.5672 26.0217C27.6003 26.0803 27.6384 26.1359 27.6726 26.1945C27.6784 26.2042 27.6726 26.2198 27.6784 26.2423C27.4471 26.2423 27.371 26.0471 27.2568 25.9105C27.1494 25.7731 27.0552 25.6257 26.9758 25.4704C26.6596 24.9161 26.6889 24.3179 26.7699 23.7138C26.845 23.1576 27.1602 22.6999 27.4266 22.2286C27.8493 21.5127 28.404 20.8836 29.0612 20.3744C29.6467 19.906 30.281 19.4962 30.888 19.0541C31.0124 18.9497 31.1289 18.8362 31.2364 18.7145C31.9419 18.0109 32.5372 17.2322 32.9481 16.3129C33.0731 16.0134 33.2569 15.7419 33.4887 15.5146Z" fill="#050505"/>
<path d="M30.3045 26.3399C30.2372 26.0062 30.3406 25.7671 30.5631 25.5144C31.0822 24.9019 31.5216 24.2261 31.8708 23.5031C32.0328 23.184 32.1586 22.8463 32.3314 22.537C32.6963 21.8861 32.8564 21.1708 33.0799 20.4701C33.0844 20.4448 33.0944 20.4207 33.1093 20.3996C33.1241 20.3786 33.1434 20.361 33.1657 20.3481C33.1893 20.4446 33.187 20.5456 33.1589 20.6409C33.1222 21.045 33.0377 21.4433 32.9071 21.8275C32.6085 22.6268 32.4192 23.4748 31.9313 24.196C31.5435 24.7959 31.1219 25.3732 30.6685 25.9252C30.5621 26.0759 30.4401 26.2149 30.3045 26.3399Z" fill="#050505"/>
<path d="M30.28 27.2106C30.28 26.994 30.2859 26.8203 30.28 26.6427C30.2742 26.5061 30.3776 26.4378 30.4518 26.3597C31.1515 25.6307 31.8453 24.9105 32.3001 23.9786C32.5792 23.4077 32.9197 22.8622 33.2037 22.2894C33.2397 22.2041 33.2801 22.1207 33.3247 22.0396C33.3071 22.3734 33.2284 22.7012 33.0925 23.0066C32.6835 23.954 32.1755 24.8555 31.5769 25.6961C31.2314 26.1777 30.8545 26.636 30.4488 27.0682C30.4079 27.1101 30.3581 27.1443 30.28 27.2106Z" fill="#050505"/>
<path d="M44.0896 22.7178C44.0896 22.5675 44.2477 22.4309 44.439 22.425C44.6663 22.4172 44.9435 22.6387 44.9474 22.831C44.9513 23.0232 44.8059 23.2398 44.6546 23.2398C44.3902 23.2398 44.0955 22.9695 44.0896 22.7178Z" fill="#F8F2EA"/>
<path d="M43.7733 22.3057C43.7118 22.5065 43.7076 22.7206 43.7612 22.9237C43.8148 23.1268 43.9241 23.3109 44.0768 23.4552C43.7226 23.3401 43.6582 23.0541 43.5782 22.7985C43.5206 22.615 43.5333 22.4198 43.7733 22.3057Z" fill="#F8F2EA"/>
<path d="M24.1448 12.1794C24.2649 12.1882 24.4317 12.1999 24.4981 12.3277C24.5644 12.4555 24.4493 12.5697 24.38 12.6751C24.2092 12.9337 24.0873 12.9835 23.9165 12.8625C23.8477 12.8188 23.7948 12.7541 23.7656 12.678C23.7365 12.6019 23.7326 12.5184 23.7545 12.4399C23.8052 12.2682 23.9389 12.1745 24.1448 12.1794Z" fill="#F8F2EA"/>
<path d="M23.5407 12.1362C23.4783 12.6476 23.4783 12.6476 23.6149 12.9677C23.3836 12.9677 23.3534 12.7852 23.3114 12.6339C23.2862 12.5383 23.2957 12.4368 23.3382 12.3475C23.3808 12.2581 23.4535 12.1868 23.5436 12.146L23.5407 12.1362Z" fill="#F8F2EA"/>
<path d="M23.5437 12.1464L23.5701 12.1294C23.5701 12.136 23.5701 12.1435 23.5701 12.1482C23.5701 12.153 23.5484 12.1596 23.5427 12.1407L23.5437 12.1464Z" fill="#F8F2EA"/>
<path d="M12.0169 33.9224C12.173 33.9224 12.3409 34.0717 12.3399 34.1917C12.3399 34.3459 12.133 34.5674 11.9925 34.5674C11.9125 34.5674 11.7602 34.2581 11.7671 34.1078C11.7749 33.9292 11.931 33.9653 12.0169 33.9224Z" fill="#F8F2EA"/>
<path d="M11.7232 34.7254C11.4656 34.6005 11.3407 34.4326 11.3416 34.1838C11.3338 34.0911 11.3618 33.9989 11.4199 33.9263C11.478 33.8537 11.5618 33.8061 11.6539 33.7935C11.4304 34.1135 11.6168 34.3965 11.7232 34.7254Z" fill="#F8F2EA"/>
<path d="M43.8758 34.0326C43.7411 34.0218 43.583 33.853 43.6084 33.7291C43.6357 33.5885 43.7636 33.5583 43.8729 33.571C43.9988 33.5846 44.1539 33.6071 44.1529 33.7935C44.1429 33.8599 44.1095 33.9205 44.0586 33.9643C44.0078 34.0082 43.9429 34.0324 43.8758 34.0326Z" fill="#F8F2EA"/>
<path d="M43.3587 33.5283C43.2835 33.7811 43.3919 33.9645 43.5021 34.1607C43.2279 34.0123 43.1742 33.7762 43.3587 33.5283Z" fill="#F8F2EA"/>
<path d="M42.5891 38.886C42.5667 38.9671 42.5676 39.1097 42.4406 39.0911C42.3734 39.0823 42.3105 39.053 42.2606 39.0072C42.2106 38.9614 42.1759 38.9014 42.1612 38.8352C42.1485 38.7199 42.2833 38.6398 42.4006 38.6398C42.5432 38.6349 42.5833 38.7473 42.5891 38.886Z" fill="#F8F2EA"/>
<path d="M36.8312 48.3864C36.6944 48.3756 36.6251 48.3043 36.6153 48.1461C36.6055 47.9878 36.7315 47.9897 36.8107 47.9888C36.9171 47.9888 37.0627 48.0073 37.0666 48.15C37.0683 48.1814 37.0634 48.2128 37.0521 48.2421C37.0409 48.2715 37.0236 48.2982 37.0015 48.3205C36.9793 48.3428 36.9526 48.3602 36.9233 48.3715C36.894 48.3829 36.8626 48.3879 36.8312 48.3864Z" fill="#F8F2EA"/>
<path d="M18.9133 17.8267C19.0225 17.855 19.1816 17.8267 19.1972 18.0218C19.2089 18.1643 19.0499 18.377 18.9328 18.3878C18.8352 18.3975 18.5424 18.1175 18.5756 18.016C18.6205 17.8628 18.761 17.8384 18.9133 17.8267Z" fill="#F8F2EA"/>
<path d="M19.126 38.8596C19.126 38.7181 19.2431 38.6859 19.329 38.6898C19.4451 38.6956 19.5788 38.7659 19.5837 38.8947C19.5826 38.9563 19.56 39.0155 19.5196 39.0621C19.4793 39.1086 19.4239 39.1396 19.3631 39.1494C19.2509 39.1787 19.1348 39.0264 19.126 38.8596Z" fill="#F8F2EA"/>
<path d="M20.0678 29.2998C20.6397 29.3193 21.2115 29.2939 21.7824 29.2998C22.2547 29.3076 22.727 29.2724 23.1954 29.2998C23.6638 29.3271 24.1401 29.2695 24.6085 29.2998C25.1091 29.332 25.6078 29.2646 26.1035 29.2998C26.5826 29.3349 27.0598 29.2607 27.5341 29.2998C28.0084 29.3388 28.4631 29.2597 28.9228 29.2998C29.3824 29.3398 29.8381 29.2597 30.289 29.2998C30.7691 29.3407 31.2453 29.2597 31.7196 29.2998C32.1938 29.3398 32.6505 29.2549 33.1111 29.292C33.6118 29.3329 34.1085 29.2461 34.6032 29.2851C35.0629 29.3212 35.5186 29.248 35.9743 29.2773C36.43 29.3066 36.8907 29.2324 37.3405 29.2617C37.7904 29.291 38.2129 29.2363 38.6492 29.2363C38.7731 29.2363 38.816 29.2588 38.8024 29.3886C38.7585 29.8189 38.7389 30.2532 38.614 30.6689C38.3866 31.4281 38.1895 32.2029 37.7865 32.8968C37.2986 33.738 36.7443 34.5323 36.0378 35.2047C35.5486 35.6672 35.0084 36.0725 34.4276 36.4128C33.7771 36.8048 33.0752 37.1043 32.3422 37.3028C31.9742 37.41 31.5997 37.4932 31.2209 37.5516C30.2646 37.6707 29.3004 37.7263 28.345 37.5965C27.7693 37.5185 27.1818 37.4453 26.6266 37.2472C25.7571 36.9368 24.87 36.6421 24.104 36.124C23.479 35.7202 22.8853 35.2701 22.3279 34.7773C21.8166 34.2983 21.3706 33.7539 21.0017 33.1583C20.6192 32.5885 20.2925 31.9833 20.0258 31.351C19.7777 30.7356 19.5882 30.0981 19.4598 29.4471C19.4393 29.3339 19.4676 29.2988 19.5721 29.2998H20.0678Z" fill="#F8F2EA"/>
<path d="M32.5987 40.5858C32.6592 40.9029 32.7363 41.2181 32.7773 41.5382C32.8421 42.0029 32.9317 42.4638 33.0456 42.919C33.066 42.9865 33.064 43.0587 33.0401 43.1249C33.0162 43.1912 32.9716 43.248 32.9129 43.2869C32.4296 43.6323 31.8658 43.848 31.2754 43.9134C30.928 43.9603 30.5855 44.0569 30.2342 44.0745C29.7521 44.0979 29.2583 44.1437 28.787 44.0891C28.2454 44.0276 27.692 44.0315 27.1651 43.8842C26.8184 43.8011 26.4792 43.6891 26.1512 43.5494C25.5949 43.2879 25.6925 43.1074 25.8477 42.6809C25.9146 42.5057 25.9716 42.3268 26.0184 42.1452C26.116 41.7314 26.1785 41.3069 26.3024 40.901C26.4791 40.3242 26.5552 39.7299 26.6733 39.1444C26.7006 39.0127 26.7435 38.9609 26.8879 38.9902C27.332 39.081 27.7867 39.1063 28.2327 39.1786C28.6991 39.2557 29.1578 39.2147 29.6213 39.2137C30.4618 39.207 31.2965 39.0734 32.0971 38.8175C32.2591 38.7677 32.2923 38.8507 32.3137 38.9639C32.3986 39.3864 32.4786 39.809 32.5606 40.2325C32.584 40.3496 32.6075 40.4657 32.6299 40.5828L32.5987 40.5858Z" fill="#F8F2EA"/>
<path d="M26.2 26.6514C26.9002 27.1745 27.6676 27.6012 28.4815 27.92C27.816 27.9873 26.4 27.1012 26.2 26.6514Z" fill="#F8F2EA"/>
<path d="M25.186 44.0381C26.0428 44.6939 27.0246 45.0139 28.1263 45.1554C27.4959 45.2521 25.6213 44.6597 25.186 44.0381Z" fill="#F8F2EA"/>
<path d="M35.1243 28.1983C35.4473 28.0939 37.9738 28.1241 38.209 28.1983H35.1243Z" fill="#F8F2EA"/>
<path d="M29.8488 38.268C29.3538 38.3854 28.8346 38.3479 28.3616 38.1606C28.9207 38.2251 29.4828 38.2299 29.8488 38.268Z" fill="#F8F2EA"/>
<path d="M20.985 34.5276C20.9294 34.4544 20.8777 34.3792 20.8191 34.31C20.4352 33.8509 20.1042 33.3501 19.8325 32.8169C19.9954 33.0274 20.1472 33.2463 20.2873 33.4727C20.4561 33.7752 20.6981 34.0172 20.8952 34.2953C20.9449 34.3582 20.9841 34.4288 21.0114 34.5042C21.0017 34.5109 20.9929 34.5188 20.985 34.5276Z" fill="#F8F2EA"/>
<path d="M28.8837 44.4118C28.5802 44.4001 28.2767 44.3903 27.9732 44.3767C27.5204 44.3572 27.0949 44.2205 26.6714 44.0712L26.6606 43.9941C27.3092 44.2506 28.0019 44.3769 28.6992 44.3659C28.7646 44.3659 28.8446 44.3211 28.8993 44.3991C28.8895 44.3972 28.8837 44.4011 28.8837 44.4118Z" fill="#F8F2EA"/>
<path d="M21.23 34.4048C21.5917 34.7418 21.9329 35.1003 22.2517 35.4782C21.9053 35.2684 21.6662 34.9464 21.4008 34.6566C21.3334 34.5834 21.2173 34.5297 21.2329 34.3979L21.23 34.4048Z" fill="#F8F2EA"/>
<path d="M24.2542 36.9595C24.6445 37.1859 25.0778 37.3225 25.4935 37.5957C25.2105 37.5645 24.4962 37.1966 24.2542 36.9595Z" fill="#F8F2EA"/>
<path d="M20.2989 28.737C20.0237 28.7477 19.7573 28.7458 19.4919 28.7507C19.4333 28.7507 19.3991 28.7175 19.404 28.6638C19.4109 28.5848 19.4762 28.6199 19.5143 28.6248C19.7758 28.6609 20.0374 28.6999 20.2989 28.737Z" fill="#F8F2EA"/>
<path d="M36.304 35.4419C36.5108 35.236 36.6621 34.9794 36.9022 34.8057L36.9227 34.8301C36.7551 35.0654 36.5606 35.2802 36.343 35.4702L36.304 35.4419Z" fill="#F8F2EA"/>
<path d="M28.8835 44.4121C28.8835 44.4013 28.8894 44.3974 28.8992 44.3994L29.8682 44.3496V44.4384C29.5403 44.4023 29.2192 44.5633 28.8835 44.4121Z" fill="#3F3D3E"/>
<path d="M35.3672 36.2325C35.6112 36.0725 35.8073 35.8568 36.0337 35.6763L36.063 35.7095C35.8571 35.9144 35.6599 36.1291 35.3916 36.2569C35.3842 36.2481 35.376 36.2399 35.3672 36.2325Z" fill="#F8F2EA"/>
<path d="M33.5601 37.2649C33.7991 37.221 33.9826 37.0483 34.2158 36.9878C34.0119 37.1068 33.8596 37.3264 33.5786 37.2903L33.5601 37.2649Z" fill="#F8F2EA"/>
<path d="M28.9587 45.2583C29.1949 45.2583 29.4311 45.2378 29.6672 45.3159H28.9587V45.2583Z" fill="#3F3D3E"/>
<path d="M18.8314 29.9701C18.6977 29.6968 18.7143 29.4051 18.7338 29.1123L18.8314 29.9701Z" fill="#3F3D3E"/>
<path d="M26.1267 37.8182C25.8994 37.7909 25.6769 37.7626 25.5002 37.6035L26.1267 37.8182Z" fill="#F8F2EA"/>
<path d="M21.0739 28.932C20.8007 29.0472 20.5655 28.9749 20.3362 28.9906C20.5754 28.9204 20.8266 28.9005 21.0739 28.932Z" fill="#3F3D3E"/>
<path d="M37.6118 33.9938C37.6118 33.7674 37.7543 33.62 37.8646 33.4541L37.9163 33.4824C37.8148 33.6522 37.7136 33.822 37.6128 33.9918L37.6118 33.9938Z" fill="#F8F2EA"/>
<path d="M20.092 28.9368C19.8696 28.9368 19.651 29.0422 19.4246 28.9621C19.6432 28.8821 19.8696 28.9446 20.092 28.9368Z" fill="#3F3D3E"/>
<path d="M30.9397 44.2528C31.1105 44.1748 31.2988 44.1758 31.4804 44.1406C31.3097 44.2377 31.1191 44.2944 30.9231 44.3065C30.9203 44.302 30.9185 44.2969 30.9178 44.2916C30.9171 44.2864 30.9176 44.281 30.9191 44.2759C30.9207 44.2708 30.9234 44.2661 30.9269 44.2621C30.9305 44.2581 30.9348 44.255 30.9397 44.2528Z" fill="#3F3D3E"/>
<path d="M28.2893 45.229L28.8504 45.2768C28.6699 45.2602 28.4825 45.3354 28.2893 45.229Z" fill="#F8F2EA"/>
<path d="M30.9398 44.2529C30.9349 44.2551 30.9305 44.2582 30.927 44.2622C30.9234 44.2662 30.9207 44.2709 30.9192 44.276C30.9176 44.2811 30.9171 44.2864 30.9178 44.2917C30.9185 44.297 30.9203 44.3021 30.9232 44.3066L30.366 44.3856L30.3611 44.3652L30.9398 44.2529Z" fill="#F8F2EA"/>
<path d="M33.579 37.29C33.4911 37.4219 33.3367 37.4229 33.2087 37.4776C33.2898 37.3477 33.4393 37.3281 33.5604 37.2646L33.579 37.29Z" fill="#F8F2EA"/>
<path d="M26.4588 38.8682C26.5281 39.002 26.4588 39.1134 26.4588 39.2345L26.3953 39.2238C26.4148 39.1046 26.4363 38.9834 26.4588 38.8682Z" fill="#F8F2EA"/>
<path d="M19.4939 32.1201C19.5823 32.2179 19.6379 32.3409 19.6531 32.4718C19.5577 32.3845 19.4938 32.268 19.4714 32.1406L19.4939 32.1201Z" fill="#3F3D3E"/>
<path d="M26.0458 40.3293C25.997 40.1642 26.0683 40.0538 26.0741 39.9004C26.1357 40.0567 26.0712 40.169 26.0458 40.3293Z" fill="#3F3D3E"/>
<path d="M26.661 43.9946L26.6717 44.0718C26.5556 44.0574 26.4483 44.0024 26.3689 43.9164C26.493 43.8901 26.5721 43.9604 26.661 43.9946Z" fill="#3F3D3E"/>
<path d="M19.4216 31.3413C19.4493 31.3713 19.4707 31.4066 19.4845 31.445C19.4982 31.4834 19.5041 31.5243 19.5018 31.565C19.4673 31.5451 19.4385 31.5167 19.4181 31.4825C19.3978 31.4483 19.3865 31.4094 19.3855 31.3696L19.4216 31.3413Z" fill="#3F3D3E"/>
<path d="M21.1915 34.7262C21.1185 34.7213 21.0942 34.66 21.064 34.6103L21.0834 34.5928C21.1095 34.6071 21.1322 34.6267 21.1501 34.6504C21.1681 34.674 21.1809 34.7012 21.1877 34.7301L21.1915 34.7262Z" fill="#F8F2EA"/>
<path d="M19.3495 31.2379C19.284 31.19 19.2577 31.145 19.2948 31.0786C19.3094 31.0848 19.3225 31.094 19.3333 31.1057C19.3441 31.1173 19.3524 31.131 19.3576 31.1461C19.3627 31.1611 19.3647 31.177 19.3633 31.1928C19.3619 31.2086 19.3572 31.224 19.3495 31.2379Z" fill="#3F3D3E"/>
<path d="M23.0715 36.3818L23.1932 36.4646C23.1836 36.4732 23.1745 36.4823 23.1659 36.4919C23.1403 36.4915 23.1152 36.4842 23.0934 36.4706C23.0716 36.457 23.0539 36.4378 23.0422 36.4149L23.0715 36.3818Z" fill="#3F3D3E"/>
<path d="M36.3043 35.5073C36.2828 35.564 36.2183 35.5542 36.1812 35.5874L36.1479 35.5679C36.1733 35.5064 36.2456 35.5093 36.2847 35.4702L36.3043 35.5073Z" fill="#F8F2EA"/>
<path d="M19.7787 32.7665L19.7534 32.6695C19.7653 32.6681 19.7774 32.6681 19.7893 32.6695C19.7971 32.6996 19.8029 32.7306 19.8087 32.7617L19.7787 32.7665Z" fill="#F8F2EA"/>
<path d="M36.1404 35.6282C36.1344 35.6472 36.1238 35.6645 36.1096 35.6785C36.0954 35.6925 36.078 35.7029 36.0589 35.7087L36.0298 35.6757L36.12 35.5864L36.1404 35.6282Z" fill="#F8F2EA"/>
<path d="M23.2352 36.5005C23.2672 36.5102 23.3148 36.5345 23.2934 36.5626C23.2536 36.6131 23.2352 36.5461 23.207 36.5286L23.2352 36.5005Z" fill="#3F3D3E"/>
<path d="M19.3854 31.3712C19.364 31.3468 19.3407 31.3098 19.3708 31.2913C19.401 31.2729 19.4078 31.3196 19.4215 31.341L19.3854 31.3712Z" fill="#3F3D3E"/>
<path d="M19.2799 30.9996L19.2595 31.0258C19.2518 31.0172 19.2456 31.0074 19.2411 30.9967C19.2353 30.9763 19.2411 30.9627 19.2663 30.9695C19.2916 30.9763 19.2751 30.989 19.2799 30.9996Z" fill="#3F3D3E"/>
<path d="M36.9751 34.7461C37.0334 34.8218 36.9431 34.8034 36.9227 34.8296L36.9023 34.8053C36.9023 34.7558 36.9557 34.7742 36.9771 34.7529L36.9751 34.7461Z" fill="#F8F2EA"/>
<path d="M23.0398 36.4146L22.9631 36.367C22.9729 36.358 22.982 36.3483 22.9903 36.3379L23.0689 36.3816L23.0398 36.4146Z" fill="#3F3D3E"/>
<path d="M22.797 36.2506C22.7717 36.2457 22.7347 36.2301 22.7483 36.2077C22.7717 36.1688 22.8018 36.199 22.8262 36.2214L22.797 36.2506Z" fill="#3F3D3E"/>
<path d="M21.2014 34.3546C21.1791 34.4062 21.1547 34.3711 21.1313 34.3546C21.1313 34.3546 21.1313 34.3303 21.1313 34.3283C21.1606 34.3166 21.1771 34.3351 21.1917 34.3585L21.2014 34.3546Z" fill="#F8F2EA"/>
<path d="M26.277 43.8569C26.2994 43.8667 26.353 43.8569 26.3306 43.8978C26.3082 43.9387 26.279 43.8978 26.2595 43.8745L26.277 43.8569Z" fill="#3F3D3E"/>
<path d="M19.4714 32.1405C19.454 32.123 19.4355 32.0939 19.4569 32.0813C19.4782 32.0686 19.4831 32.1045 19.4938 32.1201L19.4714 32.1405Z" fill="#3F3D3E"/>
<path d="M21.4903 34.9912C21.4903 35.0223 21.5058 35.0339 21.534 35.0359C21.5126 35.0494 21.4884 35.0698 21.4719 35.0359C21.467 35.0262 21.4825 35.0058 21.4893 34.9912H21.4903Z" fill="#F8F2EA"/>
<path d="M21.5342 35.0361L21.5719 35.0748C21.5526 35.0874 21.5323 35.1048 21.5159 35.0748C21.5159 35.0671 21.5275 35.0497 21.5333 35.0361H21.5342Z" fill="#F8F2EA"/>
<path d="M21.6228 35.1169C21.5947 35.1169 21.5452 35.1422 21.5733 35.0752C21.5801 35.1004 21.585 35.1286 21.6228 35.1169Z" fill="#F8F2EA"/>
<path d="M23.1913 36.4648L23.2351 36.5009L23.2069 36.5291L23.1641 36.4921C23.1727 36.4825 23.1818 36.4734 23.1913 36.4648Z" fill="#3F3D3E"/>
<path d="M36.9775 34.7529H37.0254C37.0254 34.7596 37.0254 34.7692 37.0177 34.7711C36.9957 34.7807 36.9842 34.7711 36.9794 34.7472C36.9756 34.7462 36.9775 34.7529 36.9775 34.7529Z" fill="#F8F2EA"/>
<path d="M21.1879 34.7304C21.2185 34.7256 21.23 34.7409 21.2281 34.7696C21.1802 34.7926 21.1812 34.7648 21.1879 34.7304Z" fill="#F8F2EA"/>
<path d="M22.9627 36.3663L22.9426 36.3242L22.9895 36.3376C22.9813 36.3479 22.9724 36.3575 22.9627 36.3663Z" fill="#3F3D3E"/>
<path d="M21.064 34.61C21.0368 34.61 21.0261 34.5944 21.0242 34.5692L21.0465 34.5469L21.0834 34.5935L21.064 34.61Z" fill="#F8F2EA"/>
<path d="M21.0114 34.5039L21.0464 34.5467L21.024 34.5691C21.0186 34.5693 21.0132 34.5683 21.0082 34.5662C21.0032 34.5641 20.9987 34.561 20.995 34.557C20.9913 34.5531 20.9885 34.5484 20.9868 34.5432C20.9851 34.5381 20.9845 34.5327 20.9851 34.5273C20.9929 34.5185 21.0017 34.5106 21.0114 34.5039Z" fill="#F8F2EA"/>
<path d="M21.1956 34.3598L21.2296 34.4045V34.3996C21.2151 34.3996 21.2034 34.4287 21.1821 34.3996C21.1607 34.3705 21.1927 34.3686 21.1986 34.354L21.1956 34.3598Z" fill="#F8F2EA"/>
<path d="M37.6105 33.9906L37.5698 33.9651C37.6086 33.9377 37.5982 33.9802 37.6096 33.9925L37.6105 33.9906Z" fill="#F8F2EA"/>
<path d="M35.32 36.2676C35.3353 36.2819 35.3334 36.2953 35.32 36.304C35.3066 36.3126 35.3085 36.304 35.3027 36.304L35.3276 36.2752L35.32 36.2676Z" fill="#F8F2EA"/>
<path d="M22.8703 36.2559C22.879 36.2685 22.8985 36.2899 22.8956 36.2938C22.8771 36.3192 22.8566 36.3036 22.8391 36.288L22.8703 36.2559Z" fill="#3F3D3E"/>
<path d="M21.2875 34.7871C21.2817 34.8202 21.3031 34.829 21.3304 34.8329C21.3119 34.8387 21.2992 34.8718 21.272 34.8416C21.2447 34.8114 21.2797 34.8027 21.2866 34.7842L21.2875 34.7871Z" fill="#F8F2EA"/>
<path d="M21.3305 34.832C21.3299 34.8376 21.3305 34.8431 21.3324 34.8484C21.3342 34.8536 21.3372 34.8584 21.3411 34.8623C21.3451 34.8662 21.3498 34.8692 21.3551 34.8711C21.3603 34.8729 21.3659 34.8735 21.3714 34.8729C21.3549 34.8797 21.3481 34.9177 21.3189 34.8885C21.2896 34.8593 21.3247 34.8505 21.3305 34.832Z" fill="#F8F2EA"/>
<path d="M35.3875 36.2568C35.367 36.2694 35.3505 36.3093 35.3203 36.2675V36.2733C35.3203 36.2461 35.3359 36.2353 35.3602 36.2324C35.3701 36.2397 35.3792 36.2478 35.3875 36.2568Z" fill="#F8F2EA"/>
<path d="M22.839 36.2879L22.7971 36.2489L22.8263 36.2197L22.8701 36.2557L22.839 36.2879Z" fill="#3F3D3E"/>
<path d="M21.4124 34.9129C21.3939 34.9285 21.3734 34.9529 21.3549 34.9129C21.3501 34.9032 21.3656 34.8837 21.3725 34.8682C21.3722 34.8735 21.373 34.8788 21.3749 34.8838C21.3768 34.8887 21.3798 34.8932 21.3835 34.897C21.3873 34.9008 21.3918 34.9037 21.3968 34.9056C21.4017 34.9075 21.4071 34.9084 21.4124 34.9081V34.9129Z" fill="#F8F2EA"/>
<path d="M21.229 34.7705L21.2872 34.786C21.2756 34.7948 21.2872 34.8287 21.2523 34.8171C21.2174 34.8054 21.2387 34.786 21.2339 34.7695L21.229 34.7705Z" fill="#F8F2EA"/>
<path d="M21.4123 34.9131C21.4123 34.9393 21.4259 34.9577 21.456 34.9558C21.4404 34.9616 21.421 34.9762 21.4113 34.9713C21.3764 34.9548 21.3987 34.9325 21.4113 34.9131H21.4123Z" fill="#F8F2EA"/>
<path d="M36.1808 35.5873L36.141 35.6281L36.1206 35.5863C36.1225 35.5807 36.1262 35.5759 36.1311 35.5726C36.136 35.5692 36.1419 35.5676 36.1478 35.5679L36.1808 35.5873Z" fill="#F8F2EA"/>
<path d="M36.2798 35.4701C36.281 35.4641 36.284 35.4586 36.2883 35.4543C36.2926 35.45 36.2981 35.447 36.3041 35.4458L36.344 35.4701L36.3041 35.511L36.2798 35.4701Z" fill="#F8F2EA"/>
<path d="M21.4551 34.9561C21.4551 34.9832 21.4639 34.9939 21.4901 34.991C21.4755 34.9988 21.4561 35.0162 21.4483 35.0123C21.4115 34.992 21.4396 34.9735 21.4551 34.9561Z" fill="#F8F2EA"/>
<path d="M21.6217 35.1172L21.6064 35.1574C21.6064 35.1574 21.5997 35.1488 21.6007 35.1478C21.6075 35.1372 21.6148 35.127 21.6227 35.1172H21.6217Z" fill="#F8F2EA"/>
<path d="M26.2591 43.8736L26.2458 43.8462L26.2761 43.8566L26.2591 43.8736Z" fill="#3F3D3E"/>
<defs>
<filter id="filter0_d_2409_121377" x="0" y="0.0239258" width="67.3176" height="65.8823" filterUnits="userSpaceOnUse" color-interpolation-filters="sRGB">
<feFlood flood-opacity="0" result="BackgroundImageFix"/>
<feColorMatrix in="SourceAlpha" type="matrix" values="0 0 0 0 0 0 0 0 0 0 0 0 0 0 0 0 0 0 127 0" result="hardAlpha"/>
<feOffset dx="5" dy="4"/>
<feGaussianBlur stdDeviation="2"/>
<feComposite in2="hardAlpha" operator="out"/>
<feColorMatrix type="matrix" values="0 0 0 0 0 0 0 0 0 0 0 0 0 0 0 0 0 0 0.25 0"/>
<feBlend mode="normal" in2="BackgroundImageFix" result="effect1_dropShadow_2409_121377"/>
<feBlend mode="normal" in="SourceGraphic" in2="effect1_dropShadow_2409_121377" result="shape"/>
</filter>
</defs>
</svg>
