<svg width="108" height="106" viewBox="0 0 108 106" fill="none" xmlns="http://www.w3.org/2000/svg">
<g filter="url(#filter0_d_2409_117677)">
<path d="M0 48.7356C0.179723 36.3598 4.33568 25.4631 12.7451 16.2457C19.5989 8.73471 28.0814 3.91028 37.9479 1.45613C40.991 0.699379 44.0839 0.259875 47.2163 0.0830638C53.6934 -0.283694 59.9969 0.556919 66.1096 2.74736C72.3653 4.98933 77.8931 8.40533 82.7182 12.9519C86.8244 16.8206 90.0259 21.3388 92.6273 26.3239C95.3059 31.4585 97.0462 36.8639 97.8271 42.5896C98.1774 45.1569 98.3348 47.7353 98.2495 50.3218C97.8545 62.3642 93.6477 72.9042 85.4445 81.7761C78.4942 89.2921 69.9416 94.1216 59.9015 96.3019C57.0219 96.9273 54.1077 97.3193 51.157 97.384C37.9662 97.674 26.335 93.576 16.4167 84.9153C8.54038 78.0368 3.54267 69.3993 1.20526 59.2412C0.480276 56.0929 0.0913845 52.8982 0.0467076 49.6651C0.0426461 49.3721 0.0182769 49.0801 0.00101538 48.7366L0 48.7356Z" fill="#060000"/>
<path d="M51.6537 92.5536C44.8364 92.6769 38.4781 91.5615 32.3807 89.079C28.0064 87.2988 23.9195 85.0184 20.3626 81.8884C14.515 76.7437 10.2392 70.5199 7.54543 63.2262C6.3686 60.0415 5.58067 56.7609 5.16131 53.3964C4.74704 50.0805 4.62215 46.7503 5.07805 43.4354C5.69134 38.9777 7.00525 34.713 8.969 30.6554C12.8417 22.6535 18.5552 16.2599 26.0873 11.5153C31.0749 8.37415 36.5031 6.28272 42.3213 5.22286C45.1857 4.70051 48.0744 4.45499 50.9845 4.48227C55.4928 4.5247 59.9209 5.14506 64.2018 6.56157C67.1829 7.54768 69.959 9.00056 72.5868 10.7141C81.115 16.2761 87.1636 23.8517 90.9662 33.2288C92.6162 37.2975 93.6438 41.5238 94.055 45.8966C94.2541 48.0082 94.3657 50.1249 94.187 52.2396C93.9748 54.7513 93.4671 57.2156 92.7797 59.6414C90.7388 66.8341 87.1342 73.1539 81.9974 78.5987C76.627 84.291 70.2077 88.3849 62.767 90.8573C60.5322 91.5999 58.2009 91.9676 55.8614 92.2485C54.385 92.4253 52.9026 92.5041 51.6537 92.5546V92.5536Z" fill="#F8F2EA"/>
<path d="M52.0047 89.4291C45.6817 89.5424 39.7843 88.5167 34.129 86.2338C30.0719 84.5967 26.2813 82.4997 22.9823 79.6214C17.5586 74.8903 13.5929 69.167 11.0944 62.4598C10.0028 59.5312 9.27203 56.5144 8.88308 53.4204C8.49884 50.3711 8.383 47.3087 8.80586 44.2603C9.37469 40.1611 10.5933 36.2393 12.4147 32.508C16.0066 25.1494 21.3059 19.27 28.292 14.9069C32.9179 12.0183 37.9526 10.0951 43.3489 9.12042C46.0057 8.64007 48.685 8.41429 51.3841 8.43938C55.5655 8.4784 59.6726 9.04888 63.6431 10.3515C66.4081 11.2583 68.9829 12.5944 71.4202 14.1701C79.3301 19.2849 84.9402 26.2514 88.4671 34.8744C89.9975 38.616 90.9506 42.5024 91.332 46.5236C91.5166 48.4655 91.6201 50.412 91.4544 52.3566C91.2576 54.6664 90.7867 56.9325 90.1491 59.1633C88.2562 65.7776 84.9129 71.5892 80.1485 76.5962C75.1675 81.8308 69.2136 85.5955 62.3124 87.8691C60.2395 88.552 58.0772 88.8902 55.9074 89.1485C54.5381 89.3111 53.1631 89.3835 52.0047 89.43V89.4291Z" fill="#181818"/>
<path d="M13.6507 19.3021C14.6874 17.7482 15.8601 16.2973 17.1131 14.9152C17.8086 14.1483 18.6362 13.5118 19.4881 12.8157C17.6442 15.1263 15.6418 17.2147 13.737 19.388C13.6618 19.4052 13.6222 19.388 13.6507 19.3021Z" fill="#F8F2EA"/>
<path d="M78.6939 14.3343C80.939 16.1539 82.9768 18.1787 84.7862 20.4287C84.8015 20.5025 84.7802 20.5399 84.6979 20.5126C82.7636 18.3868 80.6821 16.4065 78.5985 14.4282C78.5843 14.3515 78.6107 14.3141 78.6929 14.3343H78.6939Z" fill="#F8F2EA"/>
<path d="M97.1532 45.7076C97.398 47.597 97.5259 49.4914 97.3401 51.3929C97.271 52.1062 97.1614 52.8155 97.07 53.5267C96.8578 53.4277 96.9989 53.2651 96.9969 53.1277C97.1096 51.3616 97.2132 49.5955 97.1522 47.8243C97.1289 47.1464 97.0984 46.4684 97.07 45.7905C97.0426 45.7086 97.0781 45.6884 97.1532 45.7066V45.7076Z" fill="#F8F2EA"/>
<path d="M55.0031 93.9983C53.9603 94.1327 52.9186 94.2711 51.8747 94.4004C50.8939 94.5227 49.91 94.6247 48.9301 94.7601C48.6712 94.7965 48.4245 94.756 48.1727 94.75C48.0985 94.748 47.9594 94.8136 47.9767 94.6469C47.9879 94.5408 48.0752 94.4994 48.1798 94.4923C48.5534 94.4681 48.9261 94.4297 49.3007 94.4166C50.9853 94.358 52.6576 94.166 54.3279 93.9528C54.5503 93.9245 54.7747 93.8892 55.0031 93.9973V93.9983Z" fill="#F8F2EA"/>
<path d="M30.8653 8.0417C32.8798 6.91718 35.0822 6.2847 37.2704 5.61685C37.3577 5.58755 37.379 5.62696 37.3638 5.70577C35.201 6.44736 33.0474 7.21624 30.9496 8.12758C30.8663 8.15183 30.846 8.11647 30.8653 8.0417Z" fill="#F8F2EA"/>
<path d="M76.4236 85.5147C78.1833 83.981 79.9846 82.4917 81.6153 80.8125C81.2213 81.5783 77.5314 84.9388 76.4236 85.5147Z" fill="#F8F2EA"/>
<path d="M84.2952 16.1487C85.0648 16.7114 88.0206 20.1648 88.4329 20.9499C86.9463 19.4424 85.7776 17.6622 84.2952 16.1487Z" fill="#F8F2EA"/>
<path d="M76.6603 11.4747C75.5942 10.8584 74.529 10.2411 73.4629 9.62476C74.6377 10.0521 75.8805 10.3593 76.6603 11.4747Z" fill="#F8F2EA"/>
<path d="M13.4071 21.8552C14.1372 20.8094 14.9617 19.8355 15.7801 18.8585C15.8369 18.7898 15.8857 18.6281 16.0207 18.7291C16.17 18.8413 16.038 18.9312 15.9629 19.0201C15.1394 19.9941 14.3159 20.9691 13.4934 21.9441C13.4213 21.9562 13.3807 21.937 13.4081 21.8552H13.4071Z" fill="#F8F2EA"/>
<path d="M96.5394 57.4005C96.3272 58.8049 95.9982 60.182 95.5525 61.5319C95.5281 61.5612 95.5027 61.5622 95.4753 61.5349C95.8317 60.077 96.1942 58.621 96.4511 57.1409C96.643 57.1722 96.5343 57.3056 96.5394 57.3995V57.4005Z" fill="#F8F2EA"/>
<path d="M84.6994 20.5123C84.7288 20.484 84.7583 20.4568 84.7877 20.4285C85.7727 21.554 86.6317 22.7715 87.447 24.0213C87.4744 24.1001 87.4369 24.1132 87.3699 24.0971C86.5474 22.8523 85.6143 21.6894 84.6994 20.5123Z" fill="#F8F2EA"/>
<path d="M96.5398 57.4002C96.5002 57.3173 96.557 57.2012 96.4514 57.1415C96.6332 55.8038 96.8149 54.4661 96.9967 53.1284C97.0474 53.2567 96.9693 53.4083 97.0698 53.5275C96.8931 54.8187 96.7164 56.109 96.5408 57.4002H96.5398Z" fill="#F8F2EA"/>
<path d="M95.0812 63.0593C94.8598 64.1717 94.3897 65.2002 93.9978 66.255C93.9287 66.4409 93.8485 66.6228 93.7734 66.8067C93.7064 66.8158 93.6587 66.8087 93.7033 66.7238C94.1592 65.4861 94.6385 64.2555 95.0182 62.9916C95.0487 62.9805 95.0792 62.9704 95.0995 63.0057C95.1076 63.0199 95.0964 63.0401 95.0822 63.0593H95.0812Z" fill="#F8F2EA"/>
<path d="M95.7784 36.1699C96.1531 37.3288 96.5135 38.4917 96.5511 39.7203C96.2932 38.5372 96.0363 37.3541 95.7784 36.1699Z" fill="#F8F2EA"/>
<path d="M47.0972 3.55777C47.9745 3.4729 48.8477 3.33549 49.7291 3.31226C49.7332 3.36075 49.7382 3.40824 49.7423 3.45674C48.8884 3.51938 48.0344 3.58202 47.1795 3.64466C47.0982 3.66588 47.0749 3.63254 47.0962 3.55676L47.0972 3.55777Z" fill="#F8F2EA"/>
<path d="M3.62342 48.686V51.0735C3.5809 51.0735 3.53837 51.0715 3.49584 51.0705C3.3156 50.2117 3.63152 49.369 3.62342 48.686Z" fill="#F8F2EA"/>
<path d="M6.12275 34.1027C5.96232 34.5372 5.79783 34.9716 5.64247 35.4081C5.60186 35.5223 5.55312 35.6142 5.41909 35.5606C5.24647 35.4909 5.37746 35.3919 5.41604 35.3131C5.61404 34.9069 5.81712 34.5048 6.01918 34.1007C6.05472 34.0673 6.08924 34.0684 6.12376 34.1037L6.12275 34.1027Z" fill="#F8F2EA"/>
<path d="M39.5246 4.41449C38.7448 4.60746 37.966 4.80044 37.1862 4.99443C37.8899 4.60342 38.6656 4.46804 39.4414 4.33063C39.5206 4.3084 39.5439 4.34073 39.5246 4.4155V4.41449Z" fill="#F8F2EA"/>
<path d="M5.38942 61.2194C5.01576 60.4697 4.91016 59.6452 4.80151 58.8208C4.99748 59.62 5.19345 60.4202 5.38942 61.2194Z" fill="#F8F2EA"/>
<path d="M13.4068 21.8552C13.4352 21.8845 13.4637 21.9148 13.4921 21.9441C13.1357 22.4321 12.7793 22.9211 12.4229 23.4091C12.3924 23.3889 12.363 23.3687 12.3325 23.3485C12.6767 22.8423 13.0037 22.324 13.4068 21.8552Z" fill="#F8F2EA"/>
<path d="M19.8884 83.7332C20.3657 84.11 20.8429 84.4869 21.3201 84.8637C20.5738 84.5212 20.1118 84.1545 19.8884 83.7332Z" fill="#F8F2EA"/>
<path d="M57.0434 2.85038C56.5012 2.80996 55.958 2.76854 55.3762 2.72509C55.9742 2.41391 56.5063 2.77965 57.0536 2.75136C57.0495 2.78369 57.0465 2.81704 57.0424 2.84937L57.0434 2.85038Z" fill="#F8F2EA"/>
<path d="M66.9909 6.89307C67.6174 6.97288 68.1606 7.21234 68.6551 7.57202C68.1007 7.3457 67.5453 7.11939 66.9909 6.89307Z" fill="#F8F2EA"/>
<path d="M37.3638 5.70586C37.3323 5.67656 37.3019 5.64625 37.2704 5.61695C37.7253 5.40882 38.2116 5.31889 38.6899 5.20068C38.7 5.23301 38.7102 5.26535 38.7204 5.29768C38.2675 5.43407 37.8156 5.56946 37.3628 5.70586H37.3638Z" fill="#F8F2EA"/>
<path d="M59.7949 93.6104C60.1817 93.4962 60.5686 93.381 60.9555 93.2668C60.725 93.6649 60.3005 93.574 59.9624 93.6973C59.8792 93.7195 59.7847 93.765 59.7949 93.6104Z" fill="#F8F2EA"/>
<path d="M52.3044 95.317C52.9248 95.3059 53.5371 95.1311 54.1636 95.2483C53.5432 95.2594 52.933 95.4605 52.3044 95.317Z" fill="#F8F2EA"/>
<path d="M18.4935 81.2893C18.8458 81.6187 19.1992 81.9491 19.5515 82.2784C19.5292 82.3017 19.5058 82.3259 19.4835 82.3492C19.0936 82.0572 18.7524 81.7157 18.4935 81.2893Z" fill="#F8F2EA"/>
<path d="M20.6174 83.3139C20.2427 83.0582 19.9036 82.7642 19.6172 82.4116C20.0092 82.645 20.3514 82.938 20.6743 83.2553C20.6824 83.2997 20.6631 83.3199 20.6174 83.3139Z" fill="#F8F2EA"/>
<path d="M7.43787 67.8796C7.19011 67.4765 7.02765 67.0411 6.96368 66.5652C7.14239 66.9855 7.3211 67.4068 7.49981 67.8271C7.49981 67.8685 7.4795 67.8857 7.43888 67.8807L7.43787 67.8796Z" fill="#F8F2EA"/>
<path d="M78.6944 14.3341C78.6629 14.3655 78.6314 14.3968 78.5999 14.4281C78.3573 14.2078 78.1146 13.9876 77.8729 13.7673C78.209 13.8775 78.4679 14.0846 78.6954 14.3341H78.6944Z" fill="#F8F2EA"/>
<path d="M87.3696 24.0973C87.395 24.072 87.4213 24.0467 87.4467 24.0215C87.7117 24.3145 87.8935 24.656 88.0204 25.0359C87.8031 24.7227 87.5869 24.4095 87.3696 24.0973Z" fill="#F8F2EA"/>
<path d="M39.5248 4.4147C39.4974 4.38641 39.4689 4.35812 39.4415 4.32983C39.8345 4.2005 40.2335 4.10149 40.6498 4.09644C40.659 4.10654 40.6671 4.11765 40.6762 4.12776C40.3077 4.28537 39.9117 4.32983 39.5248 4.41369V4.4147Z" fill="#F8F2EA"/>
<path d="M26.5026 87.3562C26.793 87.5249 27.0844 87.6937 27.3748 87.8614C27.0225 87.8048 26.726 87.6411 26.5026 87.3562Z" fill="#F8F2EA"/>
<path d="M59.7948 93.6104C59.8151 93.7073 59.9065 93.6679 59.9623 93.6972C59.6151 93.7781 59.2688 93.8599 58.9216 93.9407C59.1876 93.7488 59.4882 93.67 59.7948 93.6104Z" fill="#F8F2EA"/>
<path d="M97.1524 45.7077C97.125 45.7359 97.0977 45.7632 97.0693 45.7915C96.962 45.4975 96.9914 45.1974 97.0643 44.8933L97.1524 45.7077Z" fill="#F8F2EA"/>
<path d="M21.8532 84.2786C21.5851 84.1199 21.3303 83.9442 21.117 83.7158C21.115 83.6764 21.1353 83.6623 21.1729 83.6714C21.4389 83.7865 21.6278 84.0038 21.8511 84.1755C21.8867 84.2089 21.8877 84.2432 21.8532 84.2786Z" fill="#F8F2EA"/>
<path d="M30.8655 8.04178C30.8939 8.07007 30.9214 8.09937 30.9498 8.12766C30.7355 8.27618 30.4979 8.36914 30.239 8.40955C30.4228 8.24082 30.6299 8.11756 30.8645 8.04077L30.8655 8.04178Z" fill="#F8F2EA"/>
<path d="M47.0973 3.55762C47.1247 3.58692 47.1531 3.61622 47.1806 3.64552C46.9135 3.7809 46.6353 3.71523 46.353 3.65259C46.6008 3.62127 46.8495 3.58894 47.0973 3.55762Z" fill="#F8F2EA"/>
<path d="M6.12212 34.1016C6.08769 34.1016 6.05225 34.0996 6.01782 34.0986C6.12009 33.8736 6.22236 33.6486 6.32463 33.4246C6.31754 33.6748 6.27704 33.9089 6.12212 34.1016Z" fill="#F8F2EA"/>
<path d="M7.83246 29.7551C7.95532 29.5055 8.07818 29.2549 8.20104 29.0054C8.2315 29.0195 8.26298 29.0337 8.29344 29.0478C8.17667 29.3004 8.10357 29.5732 7.83246 29.7551Z" fill="#F8F2EA"/>
<path d="M94.3682 37.2156C94.3085 36.9775 94.2487 36.7393 94.189 36.5012C94.3641 36.6778 94.4391 36.8877 94.4421 37.1218C94.4806 37.2025 94.4421 37.2237 94.3672 37.2156H94.3682Z" fill="#F8F2EA"/>
<path d="M93.7026 66.7241C93.726 66.7514 93.7494 66.7797 93.7727 66.807C93.6976 67.0181 93.6133 67.2242 93.4102 67.4485C93.4854 67.1495 93.5757 66.9302 93.7026 66.7241Z" fill="#F8F2EA"/>
<path d="M13.6506 19.302C13.679 19.3303 13.7085 19.3596 13.7369 19.3879C13.6405 19.6061 13.4658 19.7607 13.2871 19.9163C13.3592 19.6819 13.475 19.4748 13.6506 19.302Z" fill="#F8F2EA"/>
<path d="M7.49844 67.8271C7.62602 68.0491 7.74652 68.2721 7.77284 68.5365C7.61893 68.3387 7.49337 68.1278 7.43768 67.8806C7.45793 67.8625 7.47819 67.8453 7.49844 67.8271Z" fill="#F8F2EA"/>
<path d="M21.8532 84.2786C21.8532 84.2442 21.8522 84.2099 21.8511 84.1755C22.0522 84.2907 22.236 84.4271 22.3751 84.6231C22.1811 84.5393 21.9862 84.4584 21.8532 84.2796V84.2786Z" fill="#F8F2EA"/>
<path d="M93.7212 34.5727C93.5653 34.4022 93.4488 34.2176 93.4903 33.8977C93.5865 34.1792 93.6544 34.376 93.7212 34.5727Z" fill="#F8F2EA"/>
<path d="M94.3686 37.2164C94.3939 37.1851 94.4182 37.1538 94.4435 37.1226C94.5448 37.3102 94.5741 37.513 94.5428 37.731C94.485 37.5595 94.4263 37.3879 94.3686 37.2164Z" fill="#F8F2EA"/>
<path d="M95.4752 61.5348C95.5015 61.5459 95.5268 61.5438 95.5521 61.5317C95.4944 61.7154 95.4367 61.9 95.3445 62.1936C95.3121 61.8758 95.3648 61.6992 95.4752 61.5358V61.5348Z" fill="#F8F2EA"/>
<path d="M40.6495 4.09744C40.8607 3.99136 41.0821 3.94488 41.4019 3.98226C41.1065 4.04187 40.9044 4.14392 40.6759 4.12876C40.6668 4.11866 40.6587 4.10755 40.6495 4.09744Z" fill="#F8F2EA"/>
<path d="M21.117 83.7161C20.9505 83.5817 20.784 83.4483 20.6174 83.314C20.6367 83.2948 20.655 83.2746 20.6743 83.2554C20.8642 83.3665 21.0317 83.5039 21.1728 83.6716C21.1485 83.6787 21.1302 83.6939 21.117 83.7161Z" fill="#F8F2EA"/>
<path d="M95.0814 63.0587C95.0601 63.0365 95.0388 63.0133 95.0176 62.9911C95.0682 62.8155 95.1188 62.6399 95.1695 62.4644C95.1968 62.6742 95.2049 62.8791 95.0804 63.0587H95.0814Z" fill="#F8F2EA"/>
</g>
<path d="M27.7823 47.0647C27.7971 45.7896 27.8366 44.5162 27.8809 43.2428C27.907 42.8033 28.0651 42.3818 28.3345 42.0333C30.5202 38.9417 34.0864 38.6594 36.9163 39.9607C38.1777 40.5555 39.2406 41.5007 39.9779 42.6832C40.1033 42.9168 40.1635 43.1798 40.1521 43.4446C40.2244 44.7197 40.1241 45.9915 40.0863 47.2633C40.0518 48.4284 40.0502 49.5918 40.0239 50.7553C40.0239 50.9966 40.111 51.0441 40.3328 51.0409C40.5173 51.047 40.7007 51.0107 40.8688 50.9347C41.0369 50.8587 41.1853 50.7451 41.3024 50.6027C42.3345 49.4261 43.6853 48.6335 44.8949 47.6653C46.5136 46.3755 48.1225 45.0791 49.2597 43.3051C49.7437 42.5703 50.1329 41.7774 50.4183 40.9454C50.4375 40.9105 50.4495 40.8722 50.4537 40.8327C50.4579 40.7932 50.4541 40.7532 50.4426 40.7152C50.4312 40.6771 50.4122 40.6417 50.3868 40.6111C50.3615 40.5805 50.3303 40.5552 50.295 40.5367C47.7248 38.7004 46.4035 36.1306 46.0633 33.0586C45.6804 29.6125 46.6977 26.5602 48.9984 23.9641C50.5642 22.1758 52.7229 21.0107 55.0789 20.6821C56.7223 20.4278 58.3197 20.4064 59.9121 20.8905C62.0025 21.5256 63.8825 22.5053 65.2728 24.253C66.3699 25.6419 67.0599 27.3074 67.2662 29.0644C67.6853 32.2857 66.9162 35.2116 65.0033 37.834C64.4794 38.5564 63.8501 39.1964 63.1364 39.7326C62.8718 39.9312 62.8176 40.1478 62.8274 40.4596C62.8817 42.2943 63.7231 43.8122 64.7502 45.2448C65.6228 46.4641 66.7124 47.4963 67.7757 48.5465C69.2679 50.0234 70.7683 51.5003 72.1109 53.1085C73.6951 55.017 75.0016 57.0847 75.7264 59.4872C76.4415 61.9223 76.9127 64.4224 77.1331 66.9505C77.2859 68.5915 76.6401 69.7829 75.2563 70.6083C73.6472 71.5632 71.9103 72.2848 70.0978 72.7515C68.6187 73.1355 67.1495 73.5539 65.6426 73.8181C62.7275 74.3354 59.7749 74.6136 56.8143 74.6501C54.1409 74.6871 51.4688 74.5082 48.8242 74.1152C45.9762 73.6836 43.1989 72.9911 40.5514 71.8325C40.3098 71.7258 40.0502 71.6602 39.8135 71.547C39.6065 71.4469 39.5802 71.5273 39.5736 71.7111C39.5423 72.2827 39.3999 72.8429 39.1545 73.3603C38.8351 74.0303 38.314 74.584 37.664 74.9439C35.6706 76.1352 33.5901 76.3633 31.3994 75.5379C30.3999 75.1879 29.4921 74.6175 28.7437 73.869C28.0404 73.1371 27.7347 72.2428 27.6722 71.2204C27.5375 69.0018 27.5605 66.7897 27.549 64.5645C27.549 64.2855 27.4652 64.2281 27.2006 64.2248C24.9344 64.1936 22.6747 63.9638 20.4151 63.8818C17.6443 63.7801 15.8793 61.2398 15.5326 59.136C15.2417 57.3686 15.3995 55.6702 16.3411 54.1079C17.055 52.9475 18.0796 52.0097 19.2992 51.4002C19.6887 51.1968 20.0963 51.2821 20.4972 51.2821C22.798 51.2821 25.0987 51.2876 27.3994 51.2985C27.6985 51.2985 27.8152 51.2214 27.8086 50.8899C27.7643 49.6148 27.7823 48.3398 27.7823 47.0647ZM60.5547 40.5646C60.5834 41.56 60.7313 42.5483 60.9951 43.5086C61.6886 45.788 63.0625 47.5997 64.8406 49.1455C65.7116 49.9004 66.6204 50.6224 67.4043 51.4675C68.5382 52.6999 69.4618 54.0932 70.3706 55.4913C71.0573 56.5392 71.6659 57.6362 72.1914 58.7733C73.6984 62.0767 74.4626 65.5688 74.8948 69.1478C74.9196 69.4235 75.0468 69.6799 75.2514 69.8666C75.5259 70.1176 75.8118 70.0898 76.0485 69.8075C76.2179 69.6033 76.3237 69.354 76.3525 69.0904C76.4609 68.3181 76.5005 67.5378 76.4708 66.7585C76.3811 65.6107 76.2198 64.4696 75.9876 63.3419C75.606 61.2002 74.9111 59.1263 73.9252 57.1865C72.8176 55.0285 71.2876 53.1693 69.6738 51.3822C68.2802 49.8396 66.7157 48.4776 65.1495 47.1041C64.0452 46.131 63.1611 45.0036 62.6368 43.612C62.1734 42.3862 62.0649 41.116 62.0814 39.8245C62.0832 39.7653 62.1005 39.7077 62.1316 39.6573C62.1628 39.6069 62.2067 39.5655 62.2588 39.5374C64.9901 37.4467 66.4265 34.6504 66.6434 31.2535C66.8965 27.3052 64.8587 24.0331 61.2514 22.3921C58.9639 21.3566 56.6204 21.3385 54.2227 21.9572C49.194 23.2585 46.3197 27.9042 46.8275 32.3432C47.1808 35.4381 48.5941 37.939 51.1463 39.7655C51.2256 39.8089 51.2904 39.8747 51.3325 39.9547C51.3746 40.0346 51.3921 40.1252 51.3829 40.2151C51.3321 41.5548 50.8439 42.8411 49.9926 43.8778C48.8949 45.2038 47.613 46.3394 46.2802 47.4257C44.6237 48.7697 42.9738 50.117 41.5391 51.7071C41.5044 51.7551 41.4594 51.7948 41.4073 51.8232C41.3553 51.8516 41.2976 51.868 41.2384 51.8712C40.6665 51.8712 40.088 51.8843 39.5227 51.8975C39.3748 51.8975 39.3057 51.8696 39.314 51.6989C39.332 51.3264 39.3271 50.9523 39.3304 50.5781C39.355 48.3594 39.3846 46.1474 39.3978 43.9205C39.3978 43.6202 39.4339 43.3084 39.2877 43.0147C39.0311 42.4659 38.6731 41.9704 38.2326 41.5542C36.5711 40.0395 34.6303 39.6194 32.4693 40.1166C30.9557 40.4645 29.692 41.1997 28.8538 42.5601C28.6784 42.8012 28.5696 43.0842 28.5383 43.3806C28.5142 44.7755 28.5016 46.1698 28.5005 47.5636C28.5005 48.9584 28.5153 50.3533 28.5301 51.7481C28.5301 51.9024 28.489 51.9549 28.3247 51.9483C28.0174 51.9352 27.7084 51.9483 27.4011 51.9483C25.6953 51.9303 23.9911 52.0123 22.2852 51.9598C21.6279 51.9385 20.9442 51.8614 20.3132 51.9927C19.4081 52.1692 18.5906 52.6492 17.996 53.3531C16.8243 54.7381 16.3296 56.343 16.3526 58.1317C16.3773 59.6266 16.7848 60.9936 17.7889 62.1358C18.4003 62.8283 19.1398 63.3583 20.0749 63.4633C20.9672 63.5634 21.8826 63.5766 22.775 63.5897C24.4479 63.6127 26.1209 63.6077 27.7922 63.6143C28.2261 63.6143 28.2047 63.6143 28.2113 64.0311C28.2491 66.5025 28.0782 68.9739 28.1981 71.4452C28.1926 71.6322 28.2216 71.8185 28.2836 71.995C28.7002 72.9607 29.4177 73.7664 30.3296 74.2924C31.5666 75.0058 32.9969 75.3129 34.4183 75.1703C35.664 75.0555 36.8094 74.678 37.7708 73.8575C38.5498 73.1913 39.1332 72.3806 39.1233 71.3107C39.0987 68.795 39.1398 66.2793 39.1562 63.762C39.1562 63.5339 39.2351 63.4912 39.4438 63.5011C39.9713 63.5257 40.4988 63.5273 41.028 63.5355C43.0001 63.5634 44.9885 63.6012 46.9688 63.5355C47.4783 63.5191 48.0288 63.6209 48.5054 63.2943C48.7924 63.111 49.0644 62.9052 49.3189 62.6789C51.3944 60.6966 51.9483 57.3555 50.6336 54.7742C50.0403 53.6008 49.1118 52.7508 48.0748 51.9943C47.9868 51.9292 47.8803 51.8936 47.7708 51.8926C46.9014 51.8696 46.0337 51.8351 45.1644 51.8138C44.765 51.8023 44.3641 51.8138 43.8908 51.8138C44.2441 51.5102 44.5317 51.2444 44.8374 50.9933C46.4117 49.7248 48.0403 48.5219 49.5341 47.1566C50.6977 46.0965 51.7067 44.9166 52.2556 43.4085C52.5688 42.514 52.6767 41.5606 52.5711 40.6188C56.3016 41.7544 56.9458 41.7494 60.5547 40.5646Z" fill="#F8F2EA"/>
<path d="M60.5547 40.5649C56.9393 41.7497 56.3016 41.7546 52.5892 40.6321C52.6948 41.5739 52.587 42.5273 52.2737 43.4219C51.7248 44.93 50.7158 46.1098 49.5522 47.1699C48.0584 48.5353 46.4298 49.7381 44.8555 51.0066C44.5498 51.2511 44.2622 51.517 43.9089 51.8271C44.3822 51.8271 44.7832 51.8189 45.1825 51.8271C46.0519 51.8485 46.9196 51.8829 47.7889 51.9059C47.8985 51.9069 48.0049 51.9426 48.0929 52.0076C49.1299 52.7642 50.065 53.6142 50.6517 54.7875C51.9664 57.3688 51.4093 60.7099 49.337 62.6923C49.0816 62.9198 48.8085 63.1267 48.5202 63.3109C48.0436 63.6391 47.4931 63.5358 46.9836 63.5522C45.0116 63.6145 43.0231 63.5768 41.0428 63.5522C40.5137 63.544 39.9861 63.5423 39.4586 63.5177C39.2499 63.5079 39.1727 63.5505 39.171 63.7786C39.1546 66.2943 39.1135 68.81 39.1381 71.3273C39.148 72.3989 38.5646 73.2079 37.7856 73.8741C36.8243 74.6947 35.6788 75.0754 34.4331 75.187C33.0114 75.3286 31.5811 75.0203 30.3444 74.3057C29.4326 73.7798 28.715 72.974 28.2984 72.0083C28.2364 71.8318 28.2075 71.6455 28.2129 71.4586C28.093 68.9872 28.2639 66.5158 28.2261 64.0445C28.2261 63.6293 28.2409 63.6293 27.807 63.6277C26.1357 63.6277 24.4628 63.6277 22.7898 63.603C21.8892 63.5899 20.9821 63.5768 20.0897 63.4767C19.1546 63.3717 18.4151 62.8416 17.8038 62.1491C16.7997 61.0004 16.3921 59.64 16.3675 58.145C16.3379 56.3563 16.8325 54.7514 18.0108 53.3664C18.6054 52.6625 19.4229 52.1825 20.328 52.006C20.9624 51.8747 21.6427 51.9519 22.3001 51.9732C24.0059 52.0257 25.7101 51.9436 27.4159 51.9617C27.7232 51.9617 28.0322 51.9453 28.3395 51.9617C28.5038 51.9617 28.5466 51.9157 28.5449 51.7615C28.5301 50.3666 28.5137 48.9718 28.5153 47.5769C28.517 46.182 28.5285 44.7872 28.5531 43.394C28.5844 43.0976 28.6932 42.8146 28.8687 42.5735C29.7002 41.2131 30.964 40.4779 32.4841 40.13C34.6451 39.6377 36.5925 40.0529 38.2474 41.5675C38.6879 41.9838 39.0459 42.4793 39.3025 43.028C39.4487 43.3218 39.4142 43.6336 39.4126 43.9339C39.3994 46.1541 39.3699 48.3728 39.3452 50.5914C39.3452 50.9656 39.3452 51.3398 39.3288 51.7123C39.3206 51.8764 39.3896 51.9157 39.5375 51.9108C40.1094 51.8977 40.6879 51.8878 41.2532 51.8846C41.3124 51.8813 41.3701 51.8649 41.4222 51.8365C41.4742 51.8081 41.5192 51.7685 41.5539 51.7205C42.9886 50.1303 44.6385 48.7831 46.2951 47.4391C47.6279 46.3593 48.9097 45.2171 50.0075 43.8912C50.8587 42.8544 51.3469 41.5681 51.3978 40.2284C51.407 40.1386 51.3894 40.048 51.3473 39.968C51.3052 39.888 51.2405 39.8222 51.1611 39.7788C48.609 37.9524 47.1956 35.4515 46.8423 32.3565C46.3345 27.9258 49.2088 23.2719 54.2375 21.9705C56.6303 21.3519 58.9738 21.3699 61.2613 22.4054C64.8768 24.0382 66.9064 27.3137 66.6533 31.2669C66.4364 34.6638 65 37.4601 62.2687 39.5507C62.2166 39.5789 62.1727 39.6202 62.1415 39.6706C62.1104 39.721 62.0931 39.7787 62.0913 39.8379C62.0748 41.1294 62.1833 42.3995 62.6467 43.6253C63.171 45.0169 64.0551 46.1443 65.1594 47.1174C66.7174 48.491 68.2901 49.853 69.6837 51.3955C71.2975 53.1826 72.8275 55.0419 73.9351 57.1998C74.921 59.1396 75.6159 61.2136 75.9975 63.3553C76.2257 64.4783 76.3838 65.6144 76.4708 66.7571C76.5005 67.5363 76.4609 68.3167 76.3525 69.089C76.3237 69.3526 76.218 69.6019 76.0485 69.8061C75.8118 70.0883 75.5259 70.1162 75.2514 69.8652C75.0468 69.6785 74.9196 69.4221 74.8948 69.1464C74.4626 65.5673 73.6985 62.0753 72.1915 58.7719C71.6659 57.6348 71.0574 56.5378 70.3706 55.4899C69.4618 54.0884 68.5382 52.7002 67.4043 51.4661C66.6204 50.6177 65.7116 49.8989 64.8406 49.1441C63.0625 47.5982 61.6886 45.7866 60.9951 43.5072C60.7314 42.5474 60.5836 41.5597 60.5547 40.5649ZM50.7355 43.9814C50.7141 43.9814 50.6895 43.9306 50.6714 43.9814C50.6632 44.0028 50.6714 44.0307 50.6714 44.0553C50.6467 44.0553 50.6122 44.0175 50.6024 44.0684C50.6024 44.0898 50.6172 44.116 50.6254 44.1406C50.5103 44.034 50.5054 44.221 50.4282 44.2145L50.3641 44.2719C50.3641 44.3179 50.3312 44.3343 50.2934 44.3425C50.2939 44.3511 50.2925 44.3597 50.2895 44.3677C50.2865 44.3758 50.2818 44.3831 50.2758 44.3893C50.2697 44.3955 50.2625 44.4003 50.2545 44.4036C50.2465 44.4068 50.2379 44.4083 50.2293 44.4081L50.1899 44.5016C50.1812 44.5018 50.1727 44.5038 50.1649 44.5074C50.157 44.5111 50.15 44.5163 50.1443 44.5228C50.1386 44.5293 50.1343 44.5368 50.1317 44.5451C50.1291 44.5533 50.1282 44.562 50.1291 44.5706C50.1202 44.5691 50.111 44.5696 50.1024 44.5721C50.0937 44.5746 50.0857 44.579 50.0789 44.585C50.0721 44.591 50.0668 44.5984 50.0632 44.6066C50.0597 44.6149 50.0581 44.6239 50.0584 44.6329C49.8019 44.8164 49.5665 45.0277 49.3567 45.2631L49.3041 45.3123L49.1792 45.4075C49.1644 45.437 49.1529 45.4715 49.1085 45.4502C49.1217 45.5076 49.0806 45.5191 49.0395 45.5306V45.611L49.0691 45.6011C49.056 45.5782 49.0444 45.5535 49.0329 45.5306C49.0675 45.5486 49.1069 45.5798 49.1299 45.5306C49.1381 45.5125 49.1118 45.4813 49.102 45.4567C49.1283 45.4715 49.1283 45.5388 49.1841 45.4945C49.24 45.4502 49.1693 45.4387 49.1644 45.4091C49.2515 45.547 49.286 45.4305 49.3288 45.3747L49.3961 45.309C49.6473 45.1238 49.8776 44.912 50.0831 44.6772C50.111 44.6461 50.1669 44.6231 50.111 44.5722C50.1357 44.5722 50.1652 44.5722 50.185 44.564C50.231 44.5361 50.1751 44.523 50.1718 44.5016C50.1981 44.5016 50.226 44.5345 50.2507 44.4869C50.2753 44.4393 50.2293 44.4393 50.2178 44.4163C50.249 44.4376 50.2836 44.4721 50.3099 44.4163C50.3099 44.4015 50.2918 44.372 50.2819 44.349C50.3066 44.3572 50.3394 44.3802 50.3559 44.372C50.4085 44.3441 50.3772 44.308 50.3559 44.2768C50.3789 44.2883 50.4101 44.3146 50.4232 44.308C50.4791 44.2768 50.438 44.2473 50.4134 44.2194C50.5383 44.3392 50.5366 44.1538 50.604 44.139C50.6221 44.1111 50.6385 44.0832 50.655 44.0553C50.6639 44.0558 50.6728 44.0542 50.681 44.0506C50.6892 44.0471 50.6965 44.0417 50.7023 44.0348C50.708 44.028 50.7121 44.0199 50.7141 44.0112C50.7162 44.0025 50.7162 43.9934 50.7141 43.9847L50.77 43.9273C50.7519 43.9273 50.7289 43.9142 50.7191 43.9273C50.696 43.9339 50.7158 43.9585 50.7355 43.9814ZM48.2491 46.1771L48.1143 46.2559C48.1143 46.3002 48.0946 46.3182 48.0518 46.3084V46.4085C48.0633 46.4085 48.0765 46.4085 48.0831 46.4085C48.1439 46.3609 48.0617 46.3445 48.0601 46.3117C48.0896 46.3363 48.1209 46.3757 48.1554 46.3215C48.1554 46.3215 48.1324 46.2805 48.1192 46.2592C48.208 46.3937 48.2458 46.2805 48.2951 46.2247C48.3038 46.2256 48.3127 46.2247 48.3211 46.2222C48.3295 46.2196 48.3374 46.2153 48.3441 46.2097C48.3509 46.204 48.3564 46.197 48.3604 46.1892C48.3644 46.1813 48.3668 46.1728 48.3674 46.164C48.5168 46.0944 48.6479 45.991 48.7503 45.862C48.5366 45.8456 48.4348 45.9917 48.3246 46.123L48.2491 46.1771ZM51.0182 43.5515L50.8538 43.7796C50.8348 43.7962 50.8173 43.8143 50.8012 43.8338C50.8423 43.8879 50.8637 43.8338 50.8932 43.8141C50.9426 43.7353 51.0395 43.6877 51.0576 43.5827C51.1299 43.5417 51.1973 43.499 51.1578 43.3759L51.0182 43.5515ZM18.4299 61.7864C18.4677 61.8791 18.5386 61.9545 18.6288 61.9981C18.6403 61.8669 18.5252 61.8209 18.4644 61.7372C18.3501 61.5307 18.1966 61.3484 18.0125 61.2006C18.1407 61.4107 18.2327 61.6371 18.4299 61.7864ZM23.2614 53.862C23.7035 53.862 24.1456 53.9047 24.586 53.7635H23.2549C22.7707 53.6995 22.2794 53.7111 21.7988 53.798C22.2827 53.8709 22.773 53.8924 23.2614 53.862ZM49.0149 55.974C49.0576 56.2335 49.1431 56.4841 49.2679 56.7157C49.282 56.4699 49.2381 56.2243 49.1398 55.9986C48.959 55.5063 48.8933 54.9615 48.4676 54.5955C48.681 55.0421 48.8639 55.5027 49.0149 55.974ZM42.0765 60.6853V60.7362C43.6936 60.7362 45.3107 60.7181 46.9278 60.7477C47.1231 60.7599 47.3185 60.7243 47.497 60.644C47.6754 60.5636 47.8315 60.4409 47.9516 60.2866C49.4421 58.5487 48.9294 55.5654 46.9393 54.4331C46.7759 54.3209 46.5836 54.2582 46.3855 54.2525C45.0346 54.2952 43.6837 54.3543 42.3312 54.3674C40.6287 54.3871 38.9278 54.4987 37.222 54.415C36.9902 54.4035 36.9229 54.3297 36.9262 54.1163C36.9262 53.6667 36.8555 53.2204 36.8686 52.7674C36.9524 49.935 37.0872 47.1027 37.1266 44.267C37.1453 44.0798 37.1085 43.8912 37.0209 43.7246C36.9332 43.5581 36.7986 43.4209 36.6336 43.33C35.0231 42.2928 32.3066 42.4356 30.7783 43.6582C30.7274 43.6984 30.6879 43.7512 30.6636 43.8113C30.6394 43.8715 30.6314 43.9369 30.6402 44.0011C30.6484 45.4781 30.6517 46.9435 30.6599 48.4155C30.6709 50.3584 30.6862 52.3014 30.706 54.2443C30.706 54.4774 30.6369 54.5315 30.4069 54.5282C27.4373 54.4938 24.4677 54.4708 21.4997 54.438C21.3368 54.4338 21.1775 54.4866 21.0495 54.5873C20.5269 54.9631 20.2623 55.5178 19.9829 56.0642C19.4324 57.1522 19.3551 58.9262 20.3987 60.042C20.7898 60.4605 21.2204 60.7149 21.8383 60.6985C23.3173 60.6689 24.7816 60.6985 26.254 60.6985C27.2516 60.6985 28.2507 60.6837 29.2499 60.6837C29.6509 60.6837 30.0453 60.5803 30.4496 60.6033C30.6337 60.6131 30.7092 60.6689 30.6994 60.8511C30.6862 61.1021 30.6731 61.3549 30.6731 61.6059C30.6731 62.7907 30.6928 63.9756 30.6731 65.162C30.6435 67.1312 30.6534 69.1152 30.6402 71.091C30.6388 71.244 30.6978 71.3914 30.8046 71.5012C31.2335 72.0034 31.8054 72.2824 32.4003 72.5154C32.8933 72.709 33.3863 72.9043 33.9549 72.8223C34.563 72.7336 35.1546 72.604 35.664 72.2692C36.0995 71.9821 36.5613 71.7375 36.5613 71.0385C36.5613 67.7745 36.6156 64.5122 36.655 61.2482C36.655 60.687 36.6698 60.6902 37.2285 60.6902L42.0765 60.6853ZM65.2038 30.9173C65.1867 29.5357 64.7954 28.1844 64.0715 27.0068C62.1389 23.8708 58.5777 22.4678 55.0329 23.5262C51.59 24.5535 49.0132 27.2579 48.9097 31.3177C48.8456 33.9023 49.8251 36.1111 51.7807 37.8194C53.8119 39.5934 56.203 40.1874 58.8209 39.5606C62.5711 38.6695 65.2022 35.1758 65.2038 30.9239V30.9173ZM50.4988 37.4994C47.9549 34.0779 47.5539 30.489 49.6492 26.695C48.2129 28.5379 47.7363 30.6334 48.1028 32.8915C48.376 34.6495 49.2174 36.27 50.4988 37.506V37.4994ZM70.8324 55.5342C71.4911 56.6389 72.0907 57.7777 72.6286 58.9459C72.6976 58.4437 71.2498 55.7032 70.8324 55.5342ZM43.9352 53.4403C43.337 53.3812 42.7421 53.2253 42.1275 53.3992C42.7306 53.5289 43.3337 53.437 43.9352 53.4403ZM42.1176 61.6453C42.5301 61.9144 43.0806 61.7159 43.6246 61.6453H42.1176ZM30.0355 47.0649C30.1686 46.4167 30.1308 45.7603 30.1078 45.1055C29.9737 45.75 29.9493 46.4124 30.0355 47.0649ZM75.5571 65.5739C75.6048 66.0662 75.6327 66.5585 75.7675 66.8867C75.792 66.4369 75.7179 65.9873 75.5505 65.569L75.5571 65.5739ZM62.06 44.546C62.0798 44.5755 62.0945 44.5706 62.088 44.546C61.9746 44.0225 61.8579 43.5006 61.7429 42.9771C61.7552 43.5147 61.8626 44.0457 62.06 44.546ZM26.0979 53.6503C25.4225 53.4665 24.7832 53.5239 24.042 53.6503C24.7268 53.6889 25.4132 53.6889 26.0979 53.6503ZM51.429 42.1747C51.6545 41.7154 51.7671 41.2092 51.7577 40.6978C51.6804 41.195 51.544 41.6824 51.429 42.1747ZM36.0897 72.4251C35.8572 72.4929 35.6357 72.5941 35.4323 72.7254C35.3847 72.7517 35.3321 72.7845 35.36 72.8485C35.388 72.9125 35.4455 72.8928 35.4997 72.8945C35.7922 72.8977 35.9007 72.6647 36.0897 72.4251ZM48.8965 60.7247C49.4208 60.8018 49.3255 60.3965 49.4372 60.1602L48.8965 60.7247ZM20.2048 54.438C19.9221 54.6612 19.8235 54.9828 19.7775 55.3291L20.2048 54.438ZM33.2433 73.3605C33.2154 73.3457 33.1973 73.3343 33.1776 73.326C32.964 73.2424 32.8834 73.3736 32.8325 73.5443C32.8161 73.5985 32.7355 73.669 32.8325 73.7084C33.0281 73.7822 33.0494 73.5755 33.1464 73.4934C33.1844 73.4532 33.2175 73.4086 33.245 73.3605H33.2433ZM37.0231 41.6397C36.8259 41.4083 36.6205 41.1901 36.2869 41.1753L37.0231 41.6397ZM18.7816 57.9268C18.7159 58.3223 18.7732 58.7284 18.9459 59.0903C18.9301 58.6981 18.8762 58.3085 18.7849 57.9268H18.7816ZM35.9944 73.5492C36.2409 73.436 36.4709 73.4065 36.6517 73.1981C36.5193 73.1773 36.3836 73.2004 36.2656 73.2638C36.1475 73.3272 36.0534 73.4275 35.9976 73.5492H35.9944ZM47.1694 54.2411L47.7314 54.7645C47.5999 54.4823 47.5588 54.2279 47.1743 54.2411H47.1694ZM61.9466 39.8444H61.8447V41.3C61.8908 40.8094 61.9023 40.3253 61.9466 39.8444ZM50.2786 58.9344C50.2622 59.2002 50.2474 59.4661 50.2326 59.7319C50.4512 59.4792 50.4117 59.2084 50.2786 58.9344ZM33.7035 41.5888C33.1875 41.4247 33.1299 41.4247 32.9295 41.5741C33.1846 41.624 33.4466 41.629 33.7035 41.5888ZM75.2153 63.2158C75.226 62.9151 75.1427 62.6186 74.977 62.3674C75.051 62.6266 75.1233 62.8859 75.2153 63.2158ZM41.8284 53.4649C41.7562 53.4361 41.6785 53.4237 41.6009 53.4285C41.5233 53.4334 41.4478 53.4553 41.3797 53.4928C41.4522 53.5202 41.5297 53.5319 41.6071 53.5271C41.6844 53.5223 41.7599 53.5011 41.8284 53.4649ZM33.8793 41.6496L33.9056 41.6414C33.899 41.635 33.8912 41.6299 33.8826 41.6266C33.8826 41.6266 33.8662 41.6266 33.858 41.6266L33.8793 41.6496Z" fill="#040404"/>
<path d="M42.0765 60.6851H37.2253C36.6665 60.6851 36.6583 60.6851 36.6517 61.243C36.6123 64.507 36.5564 67.7693 36.558 71.0333C36.558 71.7324 36.0963 71.9769 35.6608 72.2641C35.1513 72.5923 34.5597 72.7285 33.9516 72.8171C33.383 72.8992 32.895 72.7039 32.397 72.5102C31.8021 72.2772 31.2302 71.9982 30.8013 71.4961C30.6945 71.3863 30.6355 71.2389 30.6369 71.0858C30.6501 69.1166 30.6369 67.1326 30.6698 65.1568C30.6879 63.9704 30.6698 62.7856 30.6698 61.6008C30.6698 61.3497 30.683 61.097 30.6961 60.8459C30.706 60.6638 30.6304 60.608 30.4463 60.5981C30.042 60.5751 29.6476 60.6785 29.2466 60.6785C28.2475 60.6785 27.2483 60.6916 26.2508 60.6933C24.7717 60.6933 23.3058 60.6703 21.835 60.6933C21.222 60.7064 20.7865 60.4521 20.3954 60.0369C19.3518 58.921 19.4291 57.1471 19.9796 56.0591C20.259 55.5093 20.5236 54.9547 21.0462 54.5822C21.1742 54.4814 21.3335 54.4286 21.4965 54.4328C24.4644 54.4656 27.434 54.4886 30.4036 54.5231C30.6337 54.5231 30.7043 54.4722 30.7027 54.2392C30.6819 52.2962 30.6665 50.3533 30.6567 48.4103C30.6567 46.9334 30.6452 45.4663 30.6369 43.996C30.6281 43.9318 30.6362 43.8663 30.6604 43.8062C30.6846 43.746 30.7241 43.6932 30.775 43.653C32.3033 42.4354 35.0198 42.2926 36.6304 43.3248C36.7953 43.4157 36.93 43.5529 37.0176 43.7195C37.1052 43.886 37.142 44.0746 37.1234 44.2618C37.0839 47.0975 36.9492 49.9299 36.8654 52.7623C36.8522 53.2152 36.9295 53.6615 36.9229 54.1112C36.9229 54.3245 36.987 54.3984 37.2187 54.4098C38.9245 54.4935 40.6254 54.382 42.328 54.3623C43.6805 54.3491 45.0313 54.2901 46.3822 54.2474C46.5803 54.253 46.7727 54.3157 46.936 54.4279C48.9261 55.5602 49.4389 58.5436 47.9483 60.2814C47.8282 60.4357 47.6721 60.5584 47.4937 60.6388C47.3153 60.7192 47.1199 60.7548 46.9245 60.7425C45.3074 60.713 43.6903 60.731 42.0732 60.731L42.0765 60.6851Z" fill="#F8F2EA"/>
<path d="M65.2039 30.9237C65.2039 35.1755 62.5745 38.6693 58.8145 39.5669C56.1965 40.1938 53.8054 39.5997 51.7742 37.8258C49.8186 36.1175 48.8391 33.9087 48.9032 31.3241C49.0068 27.2642 51.5836 24.5598 55.0265 23.5326C58.5778 22.4741 62.139 23.8772 64.0651 27.0131C64.7912 28.1901 65.1848 29.5414 65.2039 30.9237Z" fill="#F8F2EA"/>
<path d="M50.4989 37.5056C49.2187 36.2713 48.3774 34.6533 48.1028 32.8976C47.7363 30.633 48.2129 28.544 49.6492 26.7012C47.5539 30.4903 47.9549 34.0841 50.4989 37.5056Z" fill="#F8F2EA"/>
<path d="M70.8324 55.5339C71.2498 55.698 72.6976 58.4435 72.6237 58.9456C72.0874 57.7776 71.4894 56.6388 70.8324 55.5339Z" fill="#F8F2EA"/>
<path d="M43.9352 53.4402C43.3337 53.4402 42.7306 53.5288 42.1275 53.3991C42.7421 53.2252 43.337 53.3811 43.9352 53.4402Z" fill="#F8F2EA"/>
<path d="M30.0353 47.0646C29.9494 46.412 29.9738 45.7497 30.1074 45.1052C30.1304 45.7518 30.1681 46.4082 30.0353 47.0646Z" fill="#5E5E5E"/>
<path d="M49.0149 55.9739C48.8639 55.5026 48.6811 55.0421 48.4677 54.5955C48.8933 54.9614 48.9607 55.5079 49.1398 55.9985L49.0149 55.9739Z" fill="#F8F2EA"/>
<path d="M62.0592 44.5457C61.862 44.0445 61.7549 43.5122 61.7429 42.9736C61.8576 43.4971 61.974 44.019 62.0871 44.5424C62.0936 44.5703 62.0789 44.5753 62.0592 44.5457Z" fill="#F8F2EA"/>
<path d="M26.0979 53.6502C25.4131 53.6888 24.7267 53.6888 24.042 53.6502C24.7766 53.5238 25.4224 53.4647 26.0979 53.6502Z" fill="#5E5E5E"/>
<path d="M23.2616 53.8618C22.7731 53.8922 22.2828 53.8708 21.799 53.7978C22.2796 53.7109 22.7708 53.6993 23.255 53.7634L23.2616 53.8618Z" fill="#5E5E5E"/>
<path d="M51.4291 42.1744C51.5389 41.6821 51.6749 41.1898 51.7568 40.6975C51.7663 41.2089 51.6539 41.7152 51.4291 42.1744Z" fill="#F8F2EA"/>
<path d="M20.2048 54.438L19.7775 55.3291C19.8252 54.9828 19.9238 54.6612 20.2048 54.438Z" fill="#F8F2EA"/>
<path d="M37.0271 41.64L36.2901 41.175C36.6241 41.1898 36.8297 41.4083 37.0271 41.64Z" fill="#F8F2EA"/>
<path d="M18.7847 57.9268C18.8769 58.3083 18.9318 58.698 18.9486 59.0902C18.7764 58.7283 18.7192 58.3222 18.7847 57.9268Z" fill="#5E5E5E"/>
<path d="M50.1004 44.6672C49.8947 44.9022 49.6641 45.1143 49.4127 45.2997C49.3964 45.2862 49.3794 45.2736 49.3617 45.2619C49.5718 45.0263 49.8074 44.8148 50.0642 44.6311L50.1004 44.6672Z" fill="#F8F2EA"/>
<path d="M47.1742 54.241C47.5592 54.2278 47.6003 54.4825 47.7368 54.765L47.1742 54.241Z" fill="#F8F2EA"/>
<path d="M61.9465 39.8442C61.9022 40.3267 61.8907 40.8108 61.8448 41.2949V39.8442H61.9465Z" fill="#5E5E5E"/>
<path d="M50.2787 58.9341C50.4083 59.2101 50.4428 59.4795 50.2328 59.7325C50.2508 59.4663 50.2656 59.2084 50.2787 58.9341Z" fill="#5E5E5E"/>
<path d="M33.7044 41.5886C33.4473 41.6288 33.185 41.6238 32.9296 41.5738C33.1303 41.4244 33.1879 41.426 33.7044 41.5886Z" fill="#5E5E5E"/>
<path d="M23.2616 53.8616V53.7632H24.5927C24.149 53.9043 23.7037 53.8616 23.2616 53.8616Z" fill="#F8F2EA"/>
<path d="M49.015 55.9739L49.1396 55.9985C49.2378 56.2241 49.2817 56.4697 49.2676 56.7154C49.143 56.4839 49.0576 56.2333 49.015 55.9739Z" fill="#5E5E5E"/>
<path d="M48.3164 46.1199C48.4266 45.9885 48.5286 45.8423 48.7425 45.8587C48.64 45.9878 48.5087 46.0913 48.3592 46.161L48.3164 46.1199Z" fill="#F8F2EA"/>
<path d="M41.8288 53.4649C41.7602 53.5011 41.6847 53.5224 41.6073 53.5272C41.5298 53.532 41.4523 53.5203 41.3797 53.4928C41.4478 53.4553 41.5235 53.4333 41.6011 53.4285C41.6788 53.4237 41.7565 53.4361 41.8288 53.4649Z" fill="#5E5E5E"/>
<path d="M50.8605 43.782L51.024 43.5547L51.0649 43.5858C51.0518 43.6904 50.9553 43.7379 50.9014 43.8164L50.8605 43.782Z" fill="#F8F2EA"/>
<path d="M51.0182 43.5484L51.1584 43.374C51.1975 43.4963 51.1307 43.537 51.0589 43.5794L51.0182 43.5484Z" fill="#F8F2EA"/>
<path d="M48.0518 46.3068C48.0518 46.3409 48.1346 46.3571 48.0745 46.4042C48.0745 46.4042 48.055 46.4042 48.0436 46.4042V46.3052L48.0518 46.3068Z" fill="#F8F2EA"/>
<path d="M50.619 44.1302C50.5489 44.1433 50.5505 44.3275 50.4266 44.2085C50.5049 44.2085 50.5098 44.0308 50.6222 44.1351L50.619 44.1302Z" fill="#F8F2EA"/>
<path d="M49.3443 45.3643C49.2969 45.4199 49.2625 45.5359 49.1808 45.3986L49.3067 45.3054C49.3163 45.3268 49.3289 45.3466 49.3443 45.3643Z" fill="#F8F2EA"/>
<path d="M33.8785 41.6485L33.858 41.6343C33.858 41.6343 33.8738 41.6249 33.8816 41.6343C33.8898 41.6375 33.8973 41.6423 33.9036 41.6485H33.8785Z" fill="#5E5E5E"/>
<path d="M48.2855 46.221C48.2366 46.2764 48.1991 46.384 48.1111 46.2552L48.2447 46.177C48.2574 46.1925 48.271 46.2072 48.2855 46.221Z" fill="#F8F2EA"/>
<path d="M49.0446 45.5288L49.0799 45.5978L49.051 45.6074V45.5288H49.0446Z" fill="#F8F2EA"/>
<path d="M49.0446 45.5281C49.0854 45.5167 49.1261 45.5053 49.1131 45.4482C49.1229 45.4727 49.1489 45.5037 49.1408 45.5216C49.118 45.5786 49.0788 45.5477 49.0446 45.5216V45.5281Z" fill="#F8F2EA"/>
<path d="M49.1135 45.4481C49.1575 45.4693 49.1689 45.4351 49.1836 45.4058C49.1836 45.4351 49.2602 45.4465 49.2032 45.4905C49.1461 45.5345 49.1478 45.4677 49.1217 45.453L49.1135 45.4481Z" fill="#F8F2EA"/>
<path d="M49.3091 45.3099L49.361 45.2612C49.3785 45.2728 49.3953 45.2852 49.4114 45.2986L49.3448 45.3635C49.3305 45.3474 49.3185 45.3293 49.3091 45.3099Z" fill="#F8F2EA"/>
<path d="M50.1253 44.5605C50.1824 44.6127 50.1253 44.6355 50.0993 44.6665L50.0634 44.6306C50.063 44.6217 50.0647 44.6128 50.0682 44.6045C50.0717 44.5963 50.077 44.5889 50.0837 44.583C50.0904 44.5771 50.0984 44.5727 50.107 44.5702C50.1156 44.5678 50.1247 44.5672 50.1335 44.5687L50.1253 44.5605Z" fill="#F8F2EA"/>
<path d="M50.134 44.568C50.1331 44.5595 50.134 44.5509 50.1366 44.5428C50.1392 44.5346 50.1434 44.5271 50.1491 44.5207C50.1547 44.5143 50.1616 44.5091 50.1694 44.5055C50.1771 44.5019 50.1855 44.5 50.1941 44.4998L50.186 44.4917C50.186 44.5128 50.246 44.5258 50.2006 44.5534C50.1811 44.5648 50.1519 44.5534 50.1275 44.5534L50.134 44.568Z" fill="#F8F2EA"/>
<path d="M50.2337 44.4062C50.245 44.429 50.2921 44.429 50.2661 44.4761C50.2402 44.5231 50.2142 44.4874 50.1866 44.4907L50.1947 44.4988L50.2337 44.4062Z" fill="#F8F2EA"/>
<path d="M50.2959 44.3389C50.3072 44.3616 50.3316 44.3908 50.3251 44.4054C50.2991 44.4606 50.265 44.4265 50.2342 44.4054C50.2427 44.4057 50.2512 44.4041 50.2591 44.4009C50.267 44.3977 50.2741 44.3929 50.2801 44.3868C50.286 44.3807 50.2906 44.3735 50.2936 44.3655C50.2966 44.3575 50.298 44.349 50.2975 44.3405L50.2959 44.3389Z" fill="#F8F2EA"/>
<path d="M50.2983 44.3403C50.3359 44.3322 50.3686 44.3158 50.3686 44.27C50.3931 44.3011 50.4242 44.3371 50.3686 44.3649C50.3522 44.3731 50.3195 44.3502 50.295 44.342L50.2983 44.3403Z" fill="#F8F2EA"/>
<path d="M50.3691 44.2744L50.4325 44.2175C50.4568 44.2451 50.4974 44.2744 50.4422 44.3052C50.4292 44.3052 50.3984 44.2857 50.3756 44.2744H50.3691Z" fill="#F8F2EA"/>
<path d="M50.6674 44.0467L50.6187 44.1279H50.6285C50.6285 44.1052 50.6041 44.0792 50.6074 44.0581C50.6171 44.0077 50.6512 44.0467 50.6755 44.0451L50.6674 44.0467Z" fill="#F8F2EA"/>
<path d="M50.6764 44.0522C50.6764 44.0279 50.6634 44.0003 50.6764 43.9792C50.6942 43.9305 50.7186 43.9792 50.7397 43.9792C50.7417 43.9878 50.7416 43.9969 50.7396 44.0055C50.7376 44.0142 50.7336 44.0223 50.7279 44.0292C50.7223 44.0361 50.7152 44.0416 50.7071 44.0453C50.699 44.049 50.6901 44.0508 50.6812 44.0506L50.6764 44.0522Z" fill="#F8F2EA"/>
<path d="M50.735 43.9797C50.7157 43.9572 50.6965 43.9331 50.735 43.9106C50.7446 43.9106 50.7671 43.9106 50.7848 43.9106L50.7302 43.9668L50.735 43.9797Z" fill="#F8F2EA"/>
<path d="M50.8987 43.8119C50.8695 43.833 50.8484 43.885 50.8078 43.8314C50.8236 43.8122 50.841 43.7943 50.8598 43.7778L50.8987 43.8119Z" fill="#F8F2EA"/>
<path d="M48.3584 46.1601C48.3577 46.1689 48.3554 46.1774 48.3514 46.1852C48.3475 46.1929 48.342 46.1999 48.3353 46.2055C48.3286 46.2111 48.3208 46.2153 48.3125 46.2179C48.3041 46.2205 48.2953 46.2213 48.2866 46.2204C48.2733 46.2065 48.2608 46.1918 48.2491 46.1764L48.316 46.1194L48.3584 46.1601Z" fill="#F8F2EA"/>
<path d="M48.0519 46.3078C48.0942 46.3176 48.1153 46.3078 48.1136 46.2559C48.1266 46.277 48.1559 46.3094 48.1494 46.3176C48.1153 46.3711 48.0844 46.3322 48.0552 46.3062L48.0519 46.3078Z" fill="#F8F2EA"/>
<defs>
<filter id="filter0_d_2409_117677" x="0" y="0" width="107.272" height="105.398" filterUnits="userSpaceOnUse" color-interpolation-filters="sRGB">
<feFlood flood-opacity="0" result="BackgroundImageFix"/>
<feColorMatrix in="SourceAlpha" type="matrix" values="0 0 0 0 0 0 0 0 0 0 0 0 0 0 0 0 0 0 127 0" result="hardAlpha"/>
<feOffset dx="5" dy="4"/>
<feGaussianBlur stdDeviation="2"/>
<feComposite in2="hardAlpha" operator="out"/>
<feColorMatrix type="matrix" values="0 0 0 0 0 0 0 0 0 0 0 0 0 0 0 0 0 0 0.25 0"/>
<feBlend mode="normal" in2="BackgroundImageFix" result="effect1_dropShadow_2409_117677"/>
<feBlend mode="normal" in="SourceGraphic" in2="effect1_dropShadow_2409_117677" result="shape"/>
</filter>
</defs>
</svg>
