<svg width="50" height="50" viewBox="0 0 50 50" fill="none" xmlns="http://www.w3.org/2000/svg">
<path d="M0 25.0187C0.0914413 18.6655 2.20596 13.0716 6.48458 8.3398C9.97175 4.48401 14.2876 2.00736 19.3075 0.747514C20.8558 0.35903 22.4295 0.133408 24.0232 0.0426413C27.3187 -0.145636 30.5259 0.285897 33.6359 1.41037C36.8188 2.5613 39.6313 4.31492 42.0862 6.64894C44.1754 8.63493 45.8043 10.9544 47.1279 13.5135C48.4907 16.1494 49.3762 18.9243 49.7735 21.8636C49.9517 23.1815 50.0318 24.5052 49.9884 25.833C49.7875 32.015 47.6471 37.4258 43.4734 41.9802C39.9371 45.8386 35.5856 48.3178 30.4773 49.4371C29.0122 49.7582 27.5295 49.9594 26.0282 49.9926C19.3168 50.1415 13.399 48.0378 8.35267 43.5917C4.34527 40.0606 1.80248 35.6265 0.613225 30.4118C0.24436 28.7956 0.0464956 27.1556 0.0237644 25.4958C0.0216979 25.3454 0.00929911 25.1955 0.000516617 25.0192L0 25.0187Z" fill="#181818"/>
<path d="M26.2807 47.5128C22.8121 47.5761 19.5771 47.0035 16.4748 45.7291C14.2492 44.8152 12.1698 43.6446 10.3601 42.0377C7.38491 39.3966 5.20944 36.2016 3.83885 32.4574C3.24009 30.8225 2.8392 29.1384 2.62583 27.4112C2.41505 25.7089 2.35151 23.9994 2.58347 22.2977C2.89551 20.0093 3.56401 17.82 4.56315 15.737C6.53353 11.6291 9.44053 8.34699 13.2728 5.91132C15.8104 4.29877 18.5723 3.22512 21.5325 2.68104C22.9899 2.41289 24.4596 2.28685 25.9403 2.30085C28.234 2.32264 30.487 2.6411 32.6651 3.36828C34.1819 3.8745 35.5943 4.62035 36.9313 5.50001C41.2704 8.35529 44.3479 12.2443 46.2826 17.0581C47.1221 19.1467 47.6449 21.3163 47.8541 23.5611C47.9554 24.6452 48.0122 25.7318 47.9213 26.8173C47.8133 28.1068 47.555 29.3718 47.2053 30.6171C46.1669 34.3095 44.3329 37.5538 41.7193 40.3489C38.9869 43.2711 35.7209 45.3728 31.9351 46.6419C30.798 47.0232 29.6119 47.212 28.4216 47.3561C27.6704 47.4469 26.9161 47.4874 26.2807 47.5133V47.5128Z" fill="#F8F2EA"/>
<path d="M25.948 44.9958C22.9008 45.0518 20.0587 44.5453 17.3333 43.4179C15.378 42.6095 13.5512 41.574 11.9613 40.1525C9.34752 37.8162 7.4363 34.9899 6.2322 31.6777C5.70617 30.2315 5.35397 28.7417 5.16653 27.2138C4.98135 25.7079 4.92553 24.1957 5.12931 22.6903C5.40345 20.666 5.99074 18.7293 6.86852 16.8867C8.59955 13.2528 11.1534 10.3494 14.5202 8.19478C16.7496 6.7683 19.1759 5.81855 21.7766 5.33724C23.0569 5.10003 24.3482 4.98854 25.6489 5.00093C27.6641 5.0202 29.6434 5.30191 31.5569 5.94518C32.8894 6.39299 34.1303 7.05277 35.3049 7.83093C39.1169 10.3567 41.8206 13.797 43.5203 18.0553C44.2578 19.903 44.7171 21.8222 44.9009 23.808C44.9899 24.7669 45.0398 25.7281 44.9599 26.6884C44.8651 27.8291 44.6381 28.9481 44.3309 30.0498C43.4186 33.3161 41.8074 36.186 39.5113 38.6586C37.1108 41.2436 34.2415 43.1027 30.9156 44.2255C29.9166 44.5627 28.8746 44.7297 27.8289 44.8573C27.1689 44.9376 26.5063 44.9734 25.948 44.9963V44.9958Z" fill="#181818"/>
<path d="M6.94513 9.90896C7.47259 9.11125 8.06929 8.36644 8.70679 7.6569C9.06067 7.26323 9.48172 6.93647 9.91516 6.5791C8.97698 7.7653 7.95821 8.83739 6.98904 9.95305C6.95081 9.96187 6.93066 9.95305 6.94513 9.90896Z" fill="#F8F2EA"/>
<path d="M40.0387 7.35874C41.1809 8.29286 42.2178 9.33228 43.1384 10.4874C43.1462 10.5252 43.1353 10.5444 43.0935 10.5304C42.1093 9.43912 41.0502 8.42253 39.9901 7.40698C39.9829 7.36756 39.9963 7.34837 40.0382 7.35874H40.0387Z" fill="#F8F2EA"/>
<path d="M49.4306 23.4644C49.5551 24.4343 49.6202 25.4068 49.5257 26.3829C49.4905 26.7491 49.4348 27.1132 49.3883 27.4784C49.2803 27.4275 49.3521 27.344 49.3511 27.2735C49.4084 26.3669 49.4611 25.4602 49.4301 24.551C49.4182 24.203 49.4027 23.8549 49.3883 23.5069C49.3743 23.4649 49.3924 23.4545 49.4306 23.4639V23.4644Z" fill="#F8F2EA"/>
<path d="M27.9847 48.2545C27.4541 48.3235 26.9241 48.3946 26.393 48.461C25.8939 48.5237 25.3933 48.5761 24.8948 48.6456C24.763 48.6643 24.6375 48.6435 24.5094 48.6404C24.4717 48.6394 24.4009 48.6731 24.4097 48.5875C24.4154 48.5331 24.4598 48.5118 24.513 48.5082C24.7031 48.4957 24.8927 48.476 25.0834 48.4693C25.9404 48.4392 26.7913 48.3406 27.6411 48.2312C27.7543 48.2167 27.8684 48.1985 27.9847 48.254V48.2545Z" fill="#F8F2EA"/>
<path d="M15.7041 4.12844C16.7291 3.55116 17.8496 3.22647 18.9629 2.88363C19.0074 2.86859 19.0182 2.88882 19.0105 2.92927C17.9101 3.30998 16.8143 3.70468 15.747 4.17252C15.7046 4.18497 15.6943 4.16682 15.7041 4.12844Z" fill="#F8F2EA"/>
<path d="M38.8835 43.8995C39.7788 43.1121 40.6953 42.3476 41.525 41.4856C41.3246 41.8787 39.4472 43.6038 38.8835 43.8995Z" fill="#F8F2EA"/>
<path d="M42.8887 8.29028C43.2803 8.57918 44.7841 10.352 44.9939 10.755C44.2376 9.98115 43.6429 9.06725 42.8887 8.29028Z" fill="#F8F2EA"/>
<path d="M39.0038 5.8906C38.4613 5.57421 37.9194 5.25731 37.377 4.94092C37.9747 5.16032 38.607 5.31799 39.0038 5.8906Z" fill="#F8F2EA"/>
<path d="M6.82174 11.2195C7.19318 10.6827 7.61268 10.1827 8.02907 9.68114C8.058 9.64587 8.0828 9.56289 8.15151 9.61475C8.22745 9.67233 8.16029 9.71849 8.12206 9.76413C7.70309 10.2641 7.28411 10.7646 6.86565 11.2652C6.82897 11.2714 6.8083 11.2615 6.82225 11.2195H6.82174Z" fill="#F8F2EA"/>
<path d="M49.1186 29.467C49.0106 30.188 48.8432 30.8949 48.6164 31.5879C48.604 31.6029 48.5911 31.6034 48.5771 31.5894C48.7585 30.841 48.9429 30.0936 49.0736 29.3337C49.1713 29.3498 49.116 29.4183 49.1186 29.4665V29.467Z" fill="#F8F2EA"/>
<path d="M43.0945 10.5304C43.1095 10.5158 43.1244 10.5018 43.1394 10.4873C43.6405 11.0651 44.0776 11.6901 44.4924 12.3317C44.5064 12.3722 44.4873 12.3789 44.4532 12.3706C44.0347 11.7316 43.56 11.1346 43.0945 10.5304Z" fill="#F8F2EA"/>
<path d="M49.1184 29.4669C49.0983 29.4243 49.1272 29.3647 49.0735 29.3341C49.166 28.6474 49.2584 27.9606 49.3509 27.2739C49.3767 27.3398 49.337 27.4176 49.3881 27.4788C49.2982 28.1417 49.2083 28.804 49.1189 29.4669H49.1184Z" fill="#F8F2EA"/>
<path d="M48.3762 32.3719C48.2635 32.9429 48.0244 33.4709 47.8249 34.0124C47.7898 34.1079 47.749 34.2012 47.7108 34.2956C47.6767 34.3003 47.6524 34.2967 47.6751 34.2531C47.9071 33.6177 48.1509 32.986 48.3441 32.3371C48.3596 32.3314 48.3751 32.3262 48.3855 32.3444C48.3896 32.3516 48.3839 32.362 48.3767 32.3719H48.3762Z" fill="#F8F2EA"/>
<path d="M48.7314 18.5681C48.9221 19.163 49.1055 19.76 49.1246 20.3907C48.9934 19.7834 48.8627 19.176 48.7314 18.5681Z" fill="#F8F2EA"/>
<path d="M23.9626 1.82648C24.4089 1.78291 24.8532 1.71237 25.3016 1.70044C25.3037 1.72534 25.3063 1.74971 25.3084 1.77461C24.8739 1.80677 24.4394 1.83892 24.0044 1.87108C23.9631 1.88197 23.9512 1.86486 23.962 1.82596L23.9626 1.82648Z" fill="#F8F2EA"/>
<path d="M1.84422 24.9932V26.2188C1.82252 26.2188 1.80083 26.2177 1.77913 26.2172C1.68717 25.7764 1.84835 25.3438 1.84422 24.9932Z" fill="#F8F2EA"/>
<path d="M3.11517 17.5067C3.03354 17.7297 2.94985 17.9527 2.87081 18.1768C2.85014 18.2354 2.82535 18.2826 2.75715 18.2551C2.66933 18.2193 2.73597 18.1685 2.7556 18.128C2.85634 17.9195 2.95967 17.7131 3.06247 17.5056C3.08056 17.4885 3.09812 17.489 3.11569 17.5072L3.11517 17.5067Z" fill="#F8F2EA"/>
<path d="M20.1097 2.26607C19.7129 2.36514 19.3167 2.4642 18.9199 2.56379C19.2779 2.36306 19.6726 2.29356 20.0673 2.22302C20.1076 2.21161 20.1195 2.22821 20.1097 2.26659V2.26607Z" fill="#F8F2EA"/>
<path d="M2.74199 31.4274C2.55188 31.0425 2.49815 30.6193 2.44287 30.196C2.54258 30.6063 2.64229 31.0171 2.74199 31.4274Z" fill="#F8F2EA"/>
<path d="M6.82124 11.2195C6.8357 11.2345 6.85017 11.2501 6.86464 11.2651C6.6833 11.5156 6.50197 11.7667 6.32064 12.0172C6.30514 12.0068 6.29016 11.9964 6.27466 11.9861C6.44979 11.7262 6.61614 11.4601 6.82124 11.2195Z" fill="#F8F2EA"/>
<path d="M10.1187 42.9849C10.3615 43.1783 10.6043 43.3718 10.8471 43.5653C10.4674 43.3894 10.2323 43.2011 10.1187 42.9849Z" fill="#F8F2EA"/>
<path d="M29.0231 1.46358C28.7472 1.44284 28.4708 1.42157 28.1748 1.39927C28.4791 1.23952 28.7498 1.42728 29.0283 1.41275C29.0262 1.42935 29.0246 1.44647 29.0226 1.46306L29.0231 1.46358Z" fill="#F8F2EA"/>
<path d="M34.0845 3.53857C34.4032 3.57955 34.6796 3.70247 34.9312 3.88712C34.6491 3.77094 34.3665 3.65476 34.0845 3.53857Z" fill="#F8F2EA"/>
<path d="M19.0104 2.92901C18.9944 2.91397 18.9789 2.89841 18.9629 2.88337C19.1943 2.77652 19.4418 2.73036 19.6851 2.66968C19.6903 2.68628 19.6955 2.70287 19.7006 2.71947C19.4702 2.78949 19.2403 2.85899 19.0099 2.92901H19.0104Z" fill="#F8F2EA"/>
<path d="M30.4232 48.0555C30.6201 47.9969 30.8169 47.9378 31.0137 47.8792C30.8965 48.0835 30.6805 48.0368 30.5085 48.1001C30.4661 48.1115 30.4181 48.1349 30.4232 48.0555Z" fill="#F8F2EA"/>
<path d="M26.6123 48.9314C26.928 48.9257 27.2395 48.836 27.5582 48.8962C27.2426 48.9019 26.9321 49.0051 26.6123 48.9314Z" fill="#F8F2EA"/>
<path d="M9.40918 41.7302C9.58845 41.8993 9.76823 42.0689 9.94749 42.238C9.93613 42.2499 9.92425 42.2624 9.91288 42.2743C9.7145 42.1244 9.54092 41.9491 9.40918 41.7302Z" fill="#F8F2EA"/>
<path d="M10.4901 42.7696C10.2994 42.6383 10.1269 42.4874 9.9812 42.3064C10.1806 42.4262 10.3547 42.5766 10.519 42.7395C10.5231 42.7623 10.5133 42.7727 10.4901 42.7696Z" fill="#F8F2EA"/>
<path d="M3.78423 34.8467C3.65817 34.6397 3.57552 34.4162 3.54297 34.1719C3.63389 34.3876 3.72482 34.6039 3.81574 34.8197C3.81574 34.841 3.80541 34.8498 3.78475 34.8472L3.78423 34.8467Z" fill="#F8F2EA"/>
<path d="M40.039 7.3586C40.023 7.37468 40.007 7.39076 39.991 7.40684C39.8675 7.29377 39.744 7.1807 39.6211 7.06763C39.7921 7.12416 39.9238 7.23049 40.0396 7.3586H40.039Z" fill="#F8F2EA"/>
<path d="M44.4526 12.3704C44.4656 12.3575 44.479 12.3445 44.4919 12.3315C44.6267 12.482 44.7192 12.6573 44.7838 12.8523C44.6732 12.6915 44.5632 12.5307 44.4526 12.3704Z" fill="#F8F2EA"/>
<path d="M20.1097 2.26641C20.0958 2.25189 20.0813 2.23736 20.0674 2.22284C20.2673 2.15645 20.4703 2.10562 20.6822 2.10303C20.6868 2.10821 20.6909 2.11392 20.6956 2.11911C20.5081 2.20002 20.3066 2.22284 20.1097 2.26589V2.26641Z" fill="#F8F2EA"/>
<path d="M13.4844 44.8447C13.6321 44.9313 13.7804 45.018 13.9281 45.1041C13.7489 45.075 13.598 44.991 13.4844 44.8447Z" fill="#F8F2EA"/>
<path d="M30.4233 48.0554C30.4336 48.1052 30.4801 48.085 30.5085 48.1C30.3319 48.1415 30.1557 48.1835 29.979 48.225C30.1144 48.1265 30.2673 48.086 30.4233 48.0554Z" fill="#F8F2EA"/>
<path d="M49.4318 23.4642C49.4176 23.4787 49.4034 23.4927 49.3887 23.5072C49.3329 23.3563 49.3481 23.2023 49.386 23.0461L49.4318 23.4642Z" fill="#F8F2EA"/>
<path d="M11.1188 43.265C10.9824 43.1836 10.8527 43.0933 10.7442 42.9761C10.7432 42.9559 10.7535 42.9486 10.7726 42.9533C10.908 43.0124 11.0041 43.1239 11.1177 43.2121C11.1358 43.2292 11.1363 43.2468 11.1188 43.265Z" fill="#F8F2EA"/>
<path d="M15.704 4.12845C15.7185 4.14297 15.7324 4.15801 15.7469 4.17254C15.6379 4.24878 15.517 4.2965 15.3853 4.31724C15.4788 4.23063 15.5842 4.16735 15.7035 4.12793L15.704 4.12845Z" fill="#F8F2EA"/>
<path d="M23.9627 1.82642C23.9766 1.84146 23.9911 1.8565 24.005 1.87154C23.8692 1.94104 23.7276 1.90733 23.584 1.87517C23.71 1.85909 23.8366 1.84249 23.9627 1.82642Z" fill="#F8F2EA"/>
<path d="M3.11498 17.5067C3.09741 17.5067 3.07933 17.5057 3.06177 17.5052C3.11395 17.3895 3.16612 17.2738 3.2183 17.1587C3.21469 17.2873 3.19402 17.4077 3.11498 17.5067Z" fill="#F8F2EA"/>
<path d="M3.98511 15.275C4.04762 15.1469 4.11013 15.0182 4.17264 14.8901C4.18814 14.8974 4.20415 14.9047 4.21965 14.9119C4.16024 15.0416 4.12304 15.1816 3.98511 15.275Z" fill="#F8F2EA"/>
<path d="M48.0138 19.1053C47.9833 18.9828 47.9528 18.8604 47.9224 18.738C48.0117 18.8288 48.05 18.9367 48.0515 19.057C48.0711 19.0985 48.0515 19.1094 48.0133 19.1053H48.0138Z" fill="#F8F2EA"/>
<path d="M47.6749 34.2532C47.6868 34.2672 47.6987 34.2817 47.7106 34.2957C47.6723 34.4041 47.6294 34.5099 47.5261 34.6251C47.5644 34.4715 47.6103 34.359 47.6749 34.2532Z" fill="#F8F2EA"/>
<path d="M6.9452 9.90869C6.95967 9.92321 6.97465 9.93826 6.98912 9.95278C6.94004 10.0648 6.85118 10.1442 6.76025 10.224C6.79693 10.1037 6.85583 9.99738 6.9452 9.90869Z" fill="#F8F2EA"/>
<path d="M3.81518 34.8196C3.88027 34.9337 3.94175 35.0483 3.95518 35.1842C3.87665 35.0825 3.81259 34.9741 3.78418 34.8471C3.79451 34.8377 3.80484 34.8289 3.81518 34.8196Z" fill="#F8F2EA"/>
<path d="M11.1187 43.2648C11.1187 43.2472 11.1182 43.2295 11.1177 43.2119C11.22 43.271 11.3135 43.3411 11.3843 43.4417C11.2856 43.3986 11.1864 43.3571 11.1187 43.2653V43.2648Z" fill="#F8F2EA"/>
<path d="M47.6849 17.7486C47.6053 17.6609 47.5459 17.566 47.5671 17.4016C47.6161 17.5463 47.6508 17.6475 47.6849 17.7486Z" fill="#F8F2EA"/>
<path d="M48.0139 19.1054C48.0268 19.0893 48.0392 19.0732 48.0521 19.0571C48.1038 19.1536 48.1188 19.2579 48.1028 19.3699C48.0733 19.2817 48.0434 19.1935 48.0139 19.1054Z" fill="#F8F2EA"/>
<path d="M48.5768 31.5892C48.5903 31.5949 48.6032 31.5939 48.6161 31.5876C48.5867 31.682 48.5572 31.777 48.5102 31.9279C48.4937 31.7645 48.5205 31.6737 48.5768 31.5897V31.5892Z" fill="#F8F2EA"/>
<path d="M20.6819 2.10353C20.7893 2.04907 20.902 2.02521 21.0647 2.0444C20.9144 2.075 20.8116 2.12739 20.6953 2.11961C20.6907 2.11442 20.6865 2.10872 20.6819 2.10353Z" fill="#F8F2EA"/>
<path d="M10.7442 42.976C10.6594 42.907 10.5747 42.8386 10.49 42.7696C10.4998 42.7597 10.5091 42.7494 10.5189 42.7395C10.6155 42.7966 10.7008 42.8671 10.7726 42.9532C10.7602 42.9568 10.7509 42.9646 10.7442 42.976Z" fill="#F8F2EA"/>
<path d="M48.3771 32.3719C48.3661 32.3605 48.355 32.3486 48.344 32.3372C48.3703 32.2469 48.3966 32.1567 48.4229 32.0664C48.4371 32.1743 48.4414 32.2796 48.3766 32.3719H48.3771Z" fill="#F8F2EA"/>
<path d="M14.1353 24.161C14.1428 23.5064 14.1629 22.8527 14.1854 22.199C14.1987 21.9734 14.2791 21.757 14.4162 21.5781C15.5283 19.991 17.3427 19.8461 18.7825 20.5141C19.4243 20.8194 19.9651 21.3047 20.3402 21.9117C20.4041 22.0316 20.4347 22.1667 20.4289 22.3026C20.4657 22.9572 20.4147 23.61 20.3954 24.2629C20.3779 24.861 20.377 25.4583 20.3637 26.0556C20.3637 26.1794 20.408 26.2039 20.5209 26.2022C20.6147 26.2053 20.708 26.1867 20.7935 26.1477C20.8791 26.1087 20.9546 26.0504 21.0142 25.9773C21.5393 25.3732 22.2266 24.9664 22.842 24.4693C23.6656 23.8072 24.4841 23.1417 25.0627 22.231C25.309 21.8538 25.507 21.4468 25.6522 21.0196C25.662 21.0017 25.6681 20.9821 25.6702 20.9618C25.6724 20.9415 25.6705 20.921 25.6646 20.9014C25.6588 20.8819 25.6491 20.8637 25.6362 20.848C25.6233 20.8323 25.6075 20.8193 25.5895 20.8098C24.2818 19.8672 23.6095 18.5479 23.4365 16.9709C23.2416 15.2018 23.7592 13.6349 24.9298 12.3022C25.7265 11.3842 26.8248 10.786 28.0235 10.6174C28.8596 10.4868 29.6724 10.4758 30.4826 10.7243C31.5462 11.0504 32.5027 11.5533 33.2101 12.4505C33.7683 13.1635 34.1193 14.0185 34.2243 14.9204C34.4375 16.5741 34.0462 18.0762 33.0729 19.4224C32.8064 19.7932 32.4862 20.1218 32.1231 20.397C31.9885 20.499 31.9609 20.6102 31.9659 20.7702C31.9935 21.7121 32.4216 22.4913 32.9442 23.2267C33.3882 23.8527 33.9425 24.3826 34.4835 24.9217C35.2427 25.6799 36.0061 26.4381 36.6892 27.2636C37.4953 28.2434 38.16 29.3048 38.5287 30.5381C38.8926 31.7882 39.1323 33.0716 39.2445 34.3695C39.3222 35.2119 38.9936 35.8235 38.2896 36.2472C37.4709 36.7374 36.5872 37.1079 35.665 37.3475C34.9124 37.5446 34.1649 37.7594 33.3982 37.895C31.915 38.1605 30.4128 38.3034 28.9065 38.3221C27.5462 38.3411 26.1867 38.2493 24.8412 38.0475C23.3921 37.8259 21.9791 37.4704 20.6321 36.8757C20.5091 36.8209 20.377 36.7872 20.2566 36.7291C20.1513 36.6777 20.1379 36.719 20.1346 36.8134C20.1186 37.1068 20.0462 37.3944 19.9213 37.66C19.7588 38.004 19.4937 38.2882 19.163 38.4729C18.1487 39.0845 17.0902 39.2016 15.9756 38.7779C15.467 38.5982 15.0052 38.3054 14.6244 37.9211C14.2665 37.5454 14.111 37.0863 14.0792 36.5615C14.0107 35.4225 14.0224 34.2869 14.0165 33.1446C14.0165 33.0014 13.9739 32.9719 13.8393 32.9702C12.6862 32.9542 11.5366 32.8363 10.3869 32.7942C8.97714 32.7419 8.07913 31.4378 7.9027 30.3579C7.75471 29.4506 7.83498 28.5787 8.31408 27.7767C8.67728 27.181 9.19859 26.6995 9.81913 26.3867C10.0173 26.2822 10.2247 26.326 10.4287 26.326C11.5993 26.326 12.7699 26.3288 13.9405 26.3344C14.0926 26.3344 14.152 26.2949 14.1486 26.1247C14.1261 25.4701 14.1353 24.8156 14.1353 24.161ZM30.8095 20.8242C30.8241 21.3351 30.8994 21.8425 31.0336 22.3355C31.3865 23.5056 32.0855 24.4356 32.9902 25.2292C33.4333 25.6167 33.8957 25.9874 34.2945 26.4212C34.8715 27.0539 35.3414 27.7691 35.8038 28.4868C36.1532 29.0248 36.4628 29.5879 36.7302 30.1717C37.4969 31.8675 37.8858 33.6602 38.1057 35.4975C38.1183 35.639 38.183 35.7706 38.2871 35.8665C38.4267 35.9954 38.5722 35.981 38.6926 35.8361C38.7789 35.7313 38.8326 35.6033 38.8473 35.468C38.9024 35.0716 38.9226 34.671 38.9075 34.2709C38.8619 33.6817 38.7798 33.0959 38.6617 32.517C38.4675 31.4176 38.1139 30.3529 37.6123 29.3571C37.0488 28.2493 36.2703 27.2948 35.4492 26.3774C34.7402 25.5855 33.9442 24.8863 33.1474 24.1812C32.5855 23.6817 32.1356 23.1029 31.8689 22.3885C31.6331 21.7592 31.5779 21.1072 31.5863 20.4442C31.5872 20.4138 31.596 20.3842 31.6119 20.3583C31.6277 20.3325 31.65 20.3112 31.6766 20.2968C33.0663 19.2235 33.797 17.7881 33.9074 16.0442C34.0362 14.0174 32.9994 12.3376 31.164 11.4952C30.0001 10.9636 28.8078 10.9543 27.5879 11.2719C25.0293 11.94 23.5669 14.3249 23.8253 16.6036C24.005 18.1924 24.7241 19.4763 26.0226 20.4139C26.063 20.4362 26.096 20.47 26.1174 20.511C26.1388 20.5521 26.1477 20.5986 26.143 20.6447C26.1172 21.3325 25.8688 21.9928 25.4357 22.525C24.8771 23.2057 24.2249 23.7886 23.5468 24.3463C22.704 25.0363 21.8645 25.7279 21.1346 26.5442C21.1169 26.5689 21.094 26.5892 21.0675 26.6038C21.0411 26.6184 21.0117 26.6268 20.9816 26.6285C20.6906 26.6285 20.3963 26.6352 20.1086 26.6419C20.0334 26.6419 19.9983 26.6276 20.0024 26.54C20.0116 26.3488 20.0091 26.1567 20.0108 25.9646C20.0233 24.8257 20.0384 23.6901 20.0451 22.5469C20.0451 22.3927 20.0635 22.2327 19.9891 22.0819C19.8585 21.8002 19.6764 21.5458 19.4523 21.3321C18.6069 20.5546 17.6195 20.3389 16.5199 20.5942C15.7499 20.7728 15.1069 21.1502 14.6804 21.8485C14.5912 21.9723 14.5358 22.1176 14.5199 22.2698C14.5076 22.9858 14.5012 23.7016 14.5007 24.4171C14.5007 25.1332 14.5082 25.8492 14.5157 26.5653C14.5157 26.6445 14.4948 26.6714 14.4112 26.668C14.2548 26.6613 14.0976 26.668 13.9413 26.668C13.0734 26.6588 12.2063 26.7009 11.3384 26.6739C11.0039 26.663 10.6561 26.6234 10.335 26.6908C9.87453 26.7814 9.45858 27.0278 9.15607 27.3892C8.55991 28.1002 8.30823 28.9241 8.31994 29.8423C8.33248 30.6097 8.53984 31.3115 9.05072 31.8978C9.36176 32.2533 9.73802 32.5254 10.2138 32.5793C10.6678 32.6307 11.1335 32.6375 11.5876 32.6442C12.4387 32.656 13.2899 32.6535 14.1403 32.6568C14.361 32.6568 14.3502 32.6568 14.3535 32.8708C14.3727 34.1395 14.2858 35.4082 14.3468 36.6769C14.344 36.7728 14.3588 36.8685 14.3903 36.9591C14.6023 37.4549 14.9673 37.8685 15.4313 38.1385C16.0607 38.5047 16.7884 38.6624 17.5116 38.5892C18.1454 38.5302 18.7282 38.3365 19.2173 37.9152C19.6136 37.5732 19.9105 37.1571 19.9055 36.6078C19.8929 35.3164 19.9138 34.0249 19.9222 32.7327C19.9222 32.6156 19.9623 32.5937 20.0685 32.5987C20.3369 32.6113 20.6053 32.6122 20.8745 32.6164C21.8779 32.6307 22.8896 32.6501 23.8972 32.6164C24.1564 32.608 24.4365 32.6602 24.679 32.4926C24.825 32.3984 24.9634 32.2928 25.0928 32.1767C26.1489 31.159 26.4307 29.4438 25.7618 28.1187C25.4599 27.5164 24.9875 27.08 24.4599 26.6916C24.4151 26.6582 24.3609 26.6399 24.3052 26.6394C23.8629 26.6276 23.4214 26.6099 22.9791 26.599C22.7759 26.5931 22.5719 26.599 22.3311 26.599C22.5109 26.4431 22.6572 26.3066 22.8127 26.1778C23.6137 25.5266 24.4423 24.9091 25.2024 24.2082C25.7944 23.664 26.3078 23.0583 26.587 22.2841C26.7464 21.8249 26.8013 21.3354 26.7476 20.852C28.6456 21.4349 28.9734 21.4324 30.8095 20.8242Z" fill="#F8F2EA"/>
<path d="M30.8094 20.8243C28.9699 21.4325 28.6454 21.435 26.7566 20.8588C26.8103 21.3423 26.7554 21.8317 26.5961 22.2909C26.3168 23.0651 25.8034 23.6708 25.2114 24.215C24.4514 24.9159 23.6228 25.5334 22.8217 26.1846C22.6662 26.3101 22.5199 26.4466 22.3401 26.6058C22.5809 26.6058 22.7849 26.6016 22.9881 26.6058C23.4304 26.6168 23.8719 26.6345 24.3142 26.6463C24.37 26.6468 24.4241 26.6651 24.4689 26.6985C24.9965 27.0868 25.4723 27.5232 25.7708 28.1256C26.4397 29.4507 26.1562 31.1659 25.1019 32.1835C24.9719 32.3003 24.833 32.4065 24.6863 32.5011C24.4438 32.6696 24.1637 32.6165 23.9045 32.6249C22.9012 32.657 21.8894 32.6376 20.8819 32.6249C20.6127 32.6207 20.3443 32.6199 20.0759 32.6073C19.9697 32.6022 19.9304 32.6241 19.9295 32.7412C19.9212 34.0326 19.9003 35.3241 19.9128 36.6163C19.9178 37.1664 19.621 37.5818 19.2247 37.9238C18.7355 38.345 18.1527 38.5404 17.519 38.5977C16.7956 38.6704 16.0678 38.5122 15.4386 38.1453C14.9747 37.8753 14.6096 37.4617 14.3977 36.9659C14.3661 36.8754 14.3514 36.7797 14.3542 36.6837C14.2931 35.415 14.3801 34.1464 14.3609 32.8777C14.3609 32.6645 14.3684 32.6645 14.1476 32.6637C13.2973 32.6637 12.4461 32.6637 11.5949 32.6511C11.1367 32.6443 10.6752 32.6376 10.2211 32.5862C9.74538 32.5323 9.36912 32.2602 9.05808 31.9047C8.5472 31.315 8.33984 30.6166 8.3273 29.8492C8.31224 28.9309 8.56392 28.107 9.16343 27.396C9.46594 27.0347 9.88189 26.7883 10.3424 26.6976C10.6651 26.6303 11.0113 26.6698 11.3458 26.6808C12.2137 26.7078 13.0807 26.6656 13.9486 26.6749C14.105 26.6749 14.2622 26.6665 14.4186 26.6749C14.5022 26.6749 14.5239 26.6513 14.5231 26.5721C14.5155 25.8561 14.5072 25.14 14.508 24.4239C14.5089 23.7079 14.5147 22.9918 14.5273 22.2766C14.5432 22.1244 14.5985 21.9792 14.6878 21.8554C15.1109 21.157 15.7539 20.7796 16.5273 20.601C17.6268 20.3483 18.6176 20.5614 19.4596 21.339C19.6838 21.5527 19.8659 21.807 19.9964 22.0887C20.0708 22.2395 20.0533 22.3996 20.0524 22.5538C20.0458 23.6936 20.0307 24.8325 20.0182 25.9715C20.0182 26.1635 20.0182 26.3556 20.0098 26.5469C20.0056 26.6311 20.0407 26.6513 20.116 26.6488C20.407 26.642 20.7013 26.637 20.9889 26.6353C21.019 26.6336 21.0484 26.6252 21.0749 26.6106C21.1014 26.5961 21.1243 26.5757 21.1419 26.5511C21.8719 25.7348 22.7114 25.0431 23.5542 24.3532C24.2323 23.7989 24.8845 23.2125 25.443 22.5319C25.8761 21.9996 26.1245 21.3393 26.1504 20.6516C26.1551 20.6054 26.1461 20.5589 26.1247 20.5179C26.1033 20.4768 26.0704 20.443 26.03 20.4207C24.7315 19.4831 24.0124 18.1993 23.8326 16.6105C23.5743 14.3359 25.0367 11.9468 27.5952 11.2788C28.8127 10.9612 30.005 10.9704 31.1689 11.502C33.0084 12.3402 34.041 14.0217 33.9123 16.0511C33.8019 17.7949 33.0711 19.2304 31.6814 20.3037C31.6549 20.3181 31.6326 20.3393 31.6167 20.3652C31.6009 20.3911 31.5921 20.4207 31.5911 20.4511C31.5828 21.1141 31.638 21.7661 31.8738 22.3954C32.1405 23.1098 32.5903 23.6885 33.1522 24.1881C33.9449 24.8932 34.7451 25.5924 35.4541 26.3843C36.2752 27.3017 37.0536 28.2561 37.6172 29.3639C38.1188 30.3597 38.4723 31.4244 38.6665 32.5238C38.7826 33.1004 38.8631 33.6836 38.9073 34.2702C38.9224 34.6702 38.9023 35.0708 38.8471 35.4673C38.8325 35.6026 38.7787 35.7306 38.6925 35.8354C38.5721 35.9803 38.4266 35.9946 38.2869 35.8657C38.1828 35.7699 38.1181 35.6383 38.1055 35.4968C37.8856 33.6594 37.4968 31.8668 36.73 30.171C36.4627 29.5872 36.153 29.0241 35.8036 28.4861C35.3412 27.7667 34.8713 27.054 34.2944 26.4205C33.8955 25.985 33.4332 25.616 32.99 25.2285C32.0853 24.4349 31.3863 23.5049 31.0334 22.3347C30.8993 21.842 30.824 21.335 30.8094 20.8243ZM25.8134 22.5782C25.8026 22.5782 25.79 22.5521 25.7808 22.5782C25.7766 22.5891 25.7808 22.6035 25.7808 22.6161C25.7683 22.6161 25.7507 22.5967 25.7457 22.6228C25.7457 22.6338 25.7532 22.6473 25.7574 22.6599C25.6989 22.6052 25.6964 22.7012 25.6571 22.6978L25.6245 22.7273C25.6245 22.7509 25.6077 22.7593 25.5885 22.7635C25.5887 22.7679 25.5881 22.7724 25.5865 22.7765C25.585 22.7806 25.5826 22.7844 25.5795 22.7876C25.5765 22.7907 25.5728 22.7932 25.5687 22.7949C25.5647 22.7966 25.5603 22.7973 25.5559 22.7972L25.5358 22.8452C25.5314 22.8453 25.5271 22.8463 25.5231 22.8482C25.5191 22.8501 25.5156 22.8528 25.5127 22.8561C25.5097 22.8594 25.5076 22.8633 25.5062 22.8675C25.5049 22.8718 25.5044 22.8762 25.5049 22.8806C25.5004 22.8799 25.4957 22.8801 25.4913 22.8814C25.4869 22.8827 25.4828 22.885 25.4794 22.888C25.4759 22.8911 25.4732 22.8949 25.4714 22.8991C25.4696 22.9034 25.4688 22.908 25.4689 22.9126C25.3384 23.0068 25.2187 23.1153 25.1119 23.2361L25.0852 23.2614L25.0216 23.3103C25.0141 23.3254 25.0082 23.3431 24.9857 23.3322C24.9923 23.3616 24.9714 23.3675 24.9505 23.3734V23.4147L24.9656 23.4097C24.9589 23.3979 24.953 23.3852 24.9472 23.3734C24.9648 23.3827 24.9848 23.3987 24.9965 23.3734C25.0007 23.3642 24.9873 23.3482 24.9823 23.3355C24.9957 23.3431 24.9957 23.3777 25.0241 23.3549C25.0525 23.3322 25.0166 23.3263 25.0141 23.3111C25.0584 23.3819 25.076 23.3221 25.0977 23.2934L25.132 23.2597C25.2598 23.1646 25.3769 23.0559 25.4815 22.9354C25.4957 22.9194 25.5241 22.9076 25.4957 22.8815C25.5082 22.8815 25.5233 22.8815 25.5333 22.8773C25.5567 22.8629 25.5283 22.8562 25.5266 22.8452C25.54 22.8452 25.5542 22.8621 25.5668 22.8377C25.5793 22.8132 25.5559 22.8132 25.5501 22.8014C25.5659 22.8124 25.5835 22.8301 25.5969 22.8014C25.5969 22.7939 25.5877 22.7787 25.5827 22.7669C25.5952 22.7711 25.6119 22.7829 25.6203 22.7787C25.647 22.7644 25.6312 22.7458 25.6203 22.7298C25.632 22.7357 25.6479 22.7492 25.6546 22.7458C25.683 22.7298 25.6621 22.7147 25.6496 22.7003C25.7131 22.7618 25.7123 22.6666 25.7465 22.6591C25.7557 22.6447 25.7641 22.6304 25.7725 22.6161C25.777 22.6164 25.7815 22.6155 25.7857 22.6137C25.7899 22.6119 25.7936 22.6091 25.7965 22.6056C25.7994 22.6021 25.8015 22.5979 25.8026 22.5935C25.8036 22.589 25.8036 22.5843 25.8026 22.5799L25.831 22.5504C25.8218 22.5504 25.8101 22.5437 25.8051 22.5504C25.7934 22.5538 25.8034 22.5664 25.8134 22.5782ZM24.5484 23.7054L24.4798 23.7458C24.4798 23.7685 24.4698 23.7778 24.448 23.7728V23.8241C24.4539 23.8241 24.4606 23.8241 24.4639 23.8241C24.4948 23.7997 24.453 23.7913 24.4522 23.7744C24.4673 23.7871 24.4831 23.8073 24.5007 23.7795C24.5007 23.7795 24.489 23.7584 24.4823 23.7475C24.5275 23.8166 24.5467 23.7584 24.5718 23.7298C24.5762 23.7303 24.5807 23.7298 24.585 23.7285C24.5893 23.7271 24.5933 23.725 24.5967 23.7221C24.6002 23.7192 24.603 23.7156 24.605 23.7116C24.607 23.7075 24.6082 23.7031 24.6086 23.6986C24.6846 23.6629 24.7513 23.6098 24.8034 23.5436C24.6947 23.5352 24.6428 23.6102 24.5868 23.6776L24.5484 23.7054ZM25.9572 22.3575L25.8736 22.4746C25.864 22.4831 25.855 22.4924 25.8469 22.5024C25.8678 22.5302 25.8787 22.5024 25.8937 22.4923C25.9188 22.4518 25.9681 22.4274 25.9773 22.3735C26.0141 22.3524 26.0484 22.3305 26.0283 22.2673L25.9572 22.3575ZM9.37665 31.7185C9.3959 31.7661 9.43194 31.8048 9.47782 31.8272C9.48367 31.7598 9.42514 31.7362 9.39421 31.6932C9.33606 31.5872 9.25796 31.4936 9.16427 31.4177C9.22949 31.5256 9.27631 31.6418 9.37665 31.7185ZM11.8349 27.6504C12.0598 27.6504 12.2847 27.6723 12.5088 27.5999H11.8315C11.5852 27.567 11.3353 27.573 11.0907 27.6176C11.3369 27.655 11.5864 27.666 11.8349 27.6504ZM24.938 28.7346C24.9598 28.8678 25.0033 28.9965 25.0668 29.1154C25.0739 28.9892 25.0516 28.8631 25.0015 28.7473C24.9096 28.4945 24.8761 28.2149 24.6596 28.027C24.7681 28.2563 24.8612 28.4927 24.938 28.7346ZM21.4078 31.1532V31.1793C22.2306 31.1793 23.0533 31.1701 23.8761 31.1852C23.9755 31.1915 24.0749 31.1732 24.1657 31.132C24.2565 31.0907 24.3359 31.0277 24.397 30.9485C25.1554 30.0564 24.8945 28.5249 23.882 27.9436C23.7989 27.886 23.701 27.8538 23.6002 27.8509C22.9129 27.8728 22.2256 27.9032 21.5374 27.9099C20.6712 27.92 19.8058 27.9773 18.9379 27.9343C18.82 27.9284 18.7857 27.8905 18.7874 27.781C18.7874 27.5502 18.7514 27.321 18.7581 27.0885C18.8007 25.6345 18.8693 24.1805 18.8894 22.7248C18.8989 22.6287 18.8801 22.5319 18.8356 22.4464C18.791 22.3609 18.7225 22.2904 18.6385 22.2438C17.8191 21.7113 16.437 21.7846 15.6594 22.4122C15.6335 22.4329 15.6134 22.46 15.6011 22.4909C15.5887 22.5218 15.5846 22.5553 15.5891 22.5883C15.5933 23.3465 15.595 24.0988 15.5992 24.8544C15.6048 25.8519 15.6126 26.8493 15.6226 27.8467C15.6226 27.9663 15.5875 27.9941 15.4704 27.9925C13.9595 27.9748 12.4486 27.963 10.9386 27.9461C10.8556 27.944 10.7746 27.9711 10.7095 28.0228C10.4436 28.2157 10.3089 28.5004 10.1668 28.781C9.88669 29.3395 9.84739 30.2501 10.3783 30.823C10.5773 31.0378 10.7964 31.1684 11.1108 31.16C11.8633 31.1448 12.6083 31.16 13.3575 31.16C13.865 31.16 14.3734 31.1524 14.8818 31.1524C15.0858 31.1524 15.2865 31.0993 15.4922 31.1111C15.5858 31.1162 15.6243 31.1448 15.6192 31.2383C15.6126 31.3672 15.6059 31.4969 15.6059 31.6258C15.6059 32.2341 15.6159 32.8423 15.6059 33.4514C15.5908 34.4623 15.5958 35.4808 15.5891 36.495C15.5884 36.5736 15.6184 36.6493 15.6728 36.7056C15.891 36.9634 16.182 37.1066 16.4847 37.2263C16.7355 37.3257 16.9863 37.4259 17.2756 37.3838C17.585 37.3383 17.886 37.2717 18.1452 37.0999C18.3668 36.9525 18.6017 36.8269 18.6017 36.4681C18.6017 34.7925 18.6293 33.1178 18.6494 31.4422C18.6494 31.1541 18.6569 31.1558 18.9412 31.1558L21.4078 31.1532ZM33.1748 15.8717C33.1661 15.1624 32.967 14.4687 32.5987 13.8642C31.6154 12.2543 29.8035 11.534 27.9999 12.0774C26.2482 12.6047 24.9372 13.9931 24.8845 16.0772C24.8519 17.404 25.3502 18.5379 26.3452 19.4149C27.3787 20.3256 28.5953 20.6305 29.9272 20.3087C31.8353 19.8513 33.174 18.0577 33.1748 15.875V15.8717ZM25.693 19.2506C24.3987 17.4942 24.1947 15.6518 25.2607 13.7041C24.53 14.6501 24.2875 15.7259 24.4739 16.8851C24.6129 17.7876 25.0411 18.6195 25.693 19.254V19.2506ZM36.0386 28.5089C36.3737 29.076 36.6788 29.6606 36.9525 30.2603C36.9876 30.0025 36.2509 28.5956 36.0386 28.5089ZM22.3535 27.4339C22.0491 27.4036 21.7465 27.3236 21.4337 27.4129C21.7406 27.4794 22.0475 27.4322 22.3535 27.4339ZM21.4287 31.646C21.6386 31.7842 21.9187 31.6823 22.1955 31.646H21.4287ZM15.2814 24.1611C15.3492 23.8284 15.3299 23.4914 15.3182 23.1553C15.25 23.4861 15.2376 23.8261 15.2814 24.1611ZM38.4425 33.6628C38.4667 33.9155 38.4809 34.1683 38.5495 34.3367C38.5619 34.1059 38.5243 33.875 38.4391 33.6603L38.4425 33.6628ZM31.5753 22.868C31.5853 22.8832 31.5928 22.8806 31.5895 22.868C31.5318 22.5993 31.4724 22.3314 31.4139 22.0626C31.4202 22.3386 31.4748 22.6112 31.5753 22.868ZM13.2781 27.5418C12.9344 27.4474 12.6092 27.4769 12.2321 27.5418C12.5804 27.5616 12.9297 27.5616 13.2781 27.5418ZM26.1663 21.6507C26.281 21.4149 26.3383 21.155 26.3335 20.8925C26.2942 21.1478 26.2248 21.398 26.1663 21.6507ZM18.3618 37.1799C18.2435 37.2147 18.1308 37.2667 18.0273 37.3341C18.0031 37.3476 17.9763 37.3644 17.9905 37.3973C18.0047 37.4301 18.034 37.42 18.0616 37.4209C18.2104 37.4225 18.2656 37.3029 18.3618 37.1799ZM24.8778 31.1734C25.1445 31.213 25.096 31.005 25.1529 30.8836L24.8778 31.1734ZM10.2797 27.9461C10.1359 28.0607 10.0857 28.2258 10.0623 28.4036L10.2797 27.9461ZM16.9136 37.6601C16.8994 37.6525 16.8902 37.6466 16.8801 37.6424C16.7714 37.5995 16.7305 37.6668 16.7046 37.7545C16.6962 37.7823 16.6552 37.8185 16.7046 37.8387C16.8041 37.8766 16.8149 37.7705 16.8643 37.7283C16.8836 37.7077 16.9005 37.6848 16.9144 37.6601H16.9136ZM18.8367 21.3761C18.7364 21.2573 18.6319 21.1452 18.4621 21.1377L18.8367 21.3761ZM9.55558 29.7371C9.52215 29.9401 9.55133 30.1486 9.63919 30.3344C9.63115 30.1331 9.60371 29.9331 9.55725 29.7371H9.55558ZM18.3133 37.757C18.4387 37.6989 18.5558 37.6837 18.6477 37.5767C18.5803 37.5661 18.5113 37.5779 18.4513 37.6105C18.3912 37.643 18.3433 37.6945 18.315 37.757H18.3133ZM23.999 27.845L24.285 28.1138C24.2181 27.9689 24.1972 27.8383 24.0015 27.845H23.999ZM31.5176 20.4544H31.4657V21.2017C31.4891 20.9498 31.495 20.7013 31.5176 20.4544ZM25.581 30.2544C25.5726 30.3908 25.5651 30.5273 25.5576 30.6638C25.6688 30.534 25.6487 30.395 25.581 30.2544ZM17.1477 21.3499C16.8852 21.2657 16.8559 21.2657 16.7539 21.3424C16.8837 21.368 17.017 21.3705 17.1477 21.3499ZM38.2685 32.4522C38.274 32.2979 38.2316 32.1457 38.1473 32.0167C38.1849 32.1498 38.2217 32.2829 38.2685 32.4522ZM21.2816 27.4466C21.2448 27.4318 21.2053 27.4254 21.1658 27.4279C21.1264 27.4304 21.0879 27.4417 21.0533 27.4609C21.0902 27.475 21.1296 27.481 21.169 27.4785C21.2083 27.476 21.2467 27.4651 21.2816 27.4466ZM17.2372 21.3811L17.2506 21.3769C17.2472 21.3736 17.2432 21.371 17.2388 21.3693C17.2388 21.3693 17.2305 21.3693 17.2263 21.3693L17.2372 21.3811Z" fill="#181818"/>
<path d="M21.4079 31.1531H18.9397C18.6554 31.1531 18.6512 31.1531 18.6478 31.4395C18.6278 33.1151 18.5993 34.7898 18.6002 36.4654C18.6002 36.8243 18.3652 36.9498 18.1437 37.0972C17.8845 37.2657 17.5834 37.3356 17.2741 37.3811C16.9848 37.4232 16.7364 37.323 16.4831 37.2236C16.1804 37.1039 15.8894 36.9607 15.6712 36.7029C15.6169 36.6466 15.5868 36.5709 15.5876 36.4923C15.5943 35.4814 15.5876 34.4629 15.6043 33.4487C15.6135 32.8396 15.6043 32.2314 15.6043 31.6231C15.6043 31.4942 15.611 31.3645 15.6177 31.2356C15.6227 31.1421 15.5842 31.1135 15.4906 31.1084C15.2849 31.0966 15.0842 31.1497 14.8802 31.1497C14.3718 31.1497 13.8635 31.1564 13.3559 31.1573C12.6034 31.1573 11.8576 31.1455 11.1092 31.1573C10.7974 31.164 10.5758 31.0334 10.3768 30.8203C9.84583 30.2475 9.88513 29.3368 10.1652 28.7783C10.3074 28.4961 10.442 28.2113 10.7079 28.0201C10.773 27.9684 10.8541 27.9413 10.937 27.9434C12.4471 27.9603 13.958 27.9721 15.4689 27.9898C15.5859 27.9898 15.6219 27.9636 15.621 27.844C15.6104 26.8466 15.6026 25.8492 15.5976 24.8517C15.5976 24.0935 15.5918 23.3404 15.5876 22.5856C15.5831 22.5526 15.5872 22.5191 15.5995 22.4882C15.6118 22.4573 15.6319 22.4302 15.6578 22.4095C16.4354 21.7845 17.8176 21.7112 18.637 22.2411C18.7209 22.2877 18.7894 22.3582 18.834 22.4437C18.8786 22.5292 18.8973 22.626 18.8878 22.7221C18.8678 24.1778 18.7992 25.6318 18.7565 27.0858C18.7499 27.3183 18.7892 27.5475 18.7858 27.7783C18.7858 27.8878 18.8184 27.9257 18.9363 27.9316C19.8042 27.9746 20.6696 27.9173 21.5359 27.9072C22.224 27.9005 22.9113 27.8701 23.5986 27.8482C23.6994 27.8511 23.7973 27.8833 23.8804 27.9409C24.893 28.5222 25.1538 30.0537 24.3955 30.9458C24.3343 31.0251 24.2549 31.088 24.1641 31.1293C24.0734 31.1706 23.9739 31.1888 23.8745 31.1825C23.0518 31.1674 22.229 31.1766 21.4063 31.1766L21.4079 31.1531Z" fill="#F8F2EA"/>
<path d="M33.175 15.875C33.175 18.0577 31.8372 19.8513 29.9241 20.3121C28.5922 20.6339 27.3756 20.3289 26.3421 19.4183C25.3471 18.5413 24.8488 17.4074 24.8814 16.0806C24.9341 13.9964 26.2451 12.6081 27.9968 12.0808C29.8037 11.5374 31.6156 12.2577 32.5956 13.8675C32.9651 14.4717 33.1653 15.1654 33.175 15.875Z" fill="#F8F2EA"/>
<path d="M25.6933 19.2538C25.042 18.6202 24.6139 17.7895 24.4743 16.8883C24.2878 15.7257 24.5303 14.6533 25.2611 13.7073C24.195 15.6524 24.399 17.4973 25.6933 19.2538Z" fill="#F8F2EA"/>
<path d="M36.0388 28.5088C36.2512 28.593 36.9878 30.0024 36.9502 30.2602C36.6773 29.6606 36.3731 29.076 36.0388 28.5088Z" fill="#F8F2EA"/>
<path d="M22.3538 27.4339C22.0478 27.4339 21.7409 27.4793 21.4341 27.4128C21.7468 27.3235 22.0495 27.4035 22.3538 27.4339Z" fill="#F8F2EA"/>
<path d="M15.282 24.1609C15.2373 23.8259 15.25 23.4859 15.3195 23.155C15.3314 23.4869 15.351 23.8239 15.282 24.1609Z" fill="#5E5E5E"/>
<path d="M24.9381 28.7347C24.8613 28.4928 24.7682 28.2564 24.6597 28.0271C24.8762 28.215 24.9105 28.4955 25.0016 28.7474L24.9381 28.7347Z" fill="#F8F2EA"/>
<path d="M31.5754 22.8678C31.4748 22.6105 31.4202 22.3373 31.4141 22.0608C31.4726 22.3295 31.532 22.5974 31.5896 22.8661C31.593 22.8805 31.5855 22.883 31.5754 22.8678Z" fill="#F8F2EA"/>
<path d="M13.2784 27.5418C12.93 27.5616 12.5808 27.5616 12.2324 27.5418C12.6062 27.4769 12.9348 27.4466 13.2784 27.5418Z" fill="#5E5E5E"/>
<path d="M11.835 27.6501C11.5865 27.6657 11.337 27.6546 11.0908 27.6172C11.3353 27.5726 11.5853 27.5666 11.8316 27.5995L11.835 27.6501Z" fill="#5E5E5E"/>
<path d="M26.1665 21.6505C26.2225 21.3978 26.2919 21.1451 26.3337 20.8923C26.3386 21.1549 26.2812 21.4148 26.1665 21.6505Z" fill="#F8F2EA"/>
<path d="M10.2801 27.946L10.0627 28.4035C10.087 28.2257 10.1372 28.0606 10.2801 27.946Z" fill="#F8F2EA"/>
<path d="M18.8389 21.3761L18.4639 21.1375C18.6338 21.145 18.7384 21.2572 18.8389 21.3761Z" fill="#F8F2EA"/>
<path d="M9.55741 29.7368C9.60443 29.9327 9.63243 30.1327 9.64102 30.3341C9.55316 30.1483 9.52398 29.9398 9.55741 29.7368Z" fill="#5E5E5E"/>
<path d="M25.4908 22.9302C25.3862 23.0508 25.2689 23.1597 25.1409 23.2549C25.1326 23.2479 25.124 23.2414 25.115 23.2355C25.2219 23.1145 25.3417 23.0059 25.4724 22.9116L25.4908 22.9302Z" fill="#F8F2EA"/>
<path d="M24.002 27.845C24.1978 27.8382 24.2187 27.9689 24.2882 28.114L24.002 27.845Z" fill="#F8F2EA"/>
<path d="M31.5189 20.4543C31.4959 20.702 31.4899 20.9505 31.4661 21.199V20.4543H31.5189Z" fill="#5E5E5E"/>
<path d="M25.5817 30.2544C25.6491 30.3961 25.667 30.5344 25.5579 30.6643C25.5672 30.5276 25.5749 30.3952 25.5817 30.2544Z" fill="#5E5E5E"/>
<path d="M17.1486 21.3498C17.0178 21.3704 16.8844 21.3679 16.7544 21.3422C16.8565 21.2655 16.8858 21.2663 17.1486 21.3498Z" fill="#5E5E5E"/>
<path d="M11.8352 27.6502V27.5996H12.5125C12.2867 27.6721 12.0601 27.6502 11.8352 27.6502Z" fill="#F8F2EA"/>
<path d="M24.938 28.7346L25.0016 28.7473C25.0517 28.8633 25.0741 28.9895 25.0669 29.1158C25.0033 28.9968 24.9598 28.868 24.938 28.7346Z" fill="#5E5E5E"/>
<path d="M24.583 23.676C24.6391 23.6085 24.691 23.5335 24.7998 23.5419C24.7476 23.6082 24.6809 23.6613 24.6048 23.6971L24.583 23.676Z" fill="#F8F2EA"/>
<path d="M21.282 27.4464C21.2471 27.465 21.2087 27.4759 21.1693 27.4784C21.1299 27.4809 21.0904 27.4749 21.0535 27.4608C21.0881 27.4415 21.1266 27.4302 21.1661 27.4278C21.2056 27.4253 21.2452 27.4317 21.282 27.4464Z" fill="#5E5E5E"/>
<path d="M25.8774 22.476L25.9609 22.3591L25.9818 22.3751C25.9751 22.4289 25.9258 22.4533 25.8983 22.4937L25.8774 22.476Z" fill="#F8F2EA"/>
<path d="M25.9575 22.3558L26.0304 22.2661C26.0507 22.329 26.016 22.3499 25.9787 22.3717L25.9575 22.3558Z" fill="#F8F2EA"/>
<path d="M24.4482 23.7718C24.4482 23.7894 24.4901 23.7977 24.4597 23.8219C24.4597 23.8219 24.4498 23.8219 24.4441 23.8219V23.771L24.4482 23.7718Z" fill="#F8F2EA"/>
<path d="M25.7549 22.6545C25.7191 22.6612 25.7199 22.7559 25.6567 22.6947C25.6967 22.6947 25.6992 22.6034 25.7565 22.657L25.7549 22.6545Z" fill="#F8F2EA"/>
<path d="M25.1079 23.2883C25.0833 23.3169 25.0654 23.3766 25.0229 23.306L25.0884 23.2581C25.0934 23.269 25.0999 23.2792 25.1079 23.2883Z" fill="#F8F2EA"/>
<path d="M17.2367 21.3808L17.2266 21.3733C17.2266 21.3733 17.2344 21.3683 17.2383 21.3733C17.2424 21.375 17.2461 21.3776 17.2492 21.3808H17.2367Z" fill="#5E5E5E"/>
<path d="M24.5689 23.7279C24.5435 23.7564 24.524 23.8117 24.4783 23.7455L24.5477 23.7053C24.5543 23.7133 24.5614 23.7208 24.5689 23.7279Z" fill="#F8F2EA"/>
<path d="M24.9536 23.3723L24.9715 23.4071L24.9569 23.4119V23.3723H24.9536Z" fill="#F8F2EA"/>
<path d="M24.9536 23.3721C24.9748 23.3662 24.996 23.3604 24.9892 23.3311C24.9943 23.3436 25.0078 23.3595 25.0036 23.3688C24.9917 23.3981 24.9714 23.3822 24.9536 23.3688V23.3721Z" fill="#F8F2EA"/>
<path d="M24.9888 23.3311C25.0116 23.342 25.0176 23.3244 25.0252 23.3093C25.0252 23.3244 25.065 23.3303 25.0354 23.3529C25.0057 23.3755 25.0066 23.3412 24.993 23.3336L24.9888 23.3311Z" fill="#F8F2EA"/>
<path d="M25.0879 23.2604L25.1149 23.2354C25.124 23.2413 25.1327 23.2477 25.1411 23.2545L25.1065 23.2879C25.099 23.2796 25.0928 23.2704 25.0879 23.2604Z" fill="#F8F2EA"/>
<path d="M25.5031 22.8755C25.532 22.9023 25.5031 22.914 25.4899 22.9299L25.4717 22.9115C25.4715 22.9069 25.4724 22.9023 25.4741 22.8981C25.4759 22.8939 25.4786 22.8901 25.482 22.887C25.4854 22.884 25.4894 22.8817 25.4938 22.8805C25.4981 22.8792 25.5027 22.8789 25.5072 22.8797L25.5031 22.8755Z" fill="#F8F2EA"/>
<path d="M25.5074 22.8785C25.507 22.8742 25.5074 22.8699 25.5087 22.8658C25.5101 22.8617 25.5122 22.8579 25.5151 22.8547C25.5179 22.8515 25.5214 22.8489 25.5254 22.8471C25.5293 22.8452 25.5335 22.8443 25.5379 22.8442L25.5337 22.8401C25.5337 22.8507 25.5642 22.8573 25.5411 22.8712C25.5313 22.8769 25.5165 22.8712 25.5042 22.8712L25.5074 22.8785Z" fill="#F8F2EA"/>
<path d="M25.5585 22.7964C25.5643 22.8078 25.5881 22.8078 25.575 22.8316C25.5618 22.8553 25.5486 22.8373 25.5347 22.8389L25.5388 22.843L25.5585 22.7964Z" fill="#F8F2EA"/>
<path d="M25.5898 22.7617C25.5956 22.7732 25.6079 22.7879 25.6046 22.7953C25.5915 22.8231 25.5742 22.8059 25.5586 22.7953C25.5629 22.7954 25.5672 22.7946 25.5712 22.793C25.5752 22.7914 25.5788 22.789 25.5818 22.7859C25.5848 22.7828 25.5872 22.7791 25.5887 22.7751C25.5902 22.7711 25.5909 22.7668 25.5907 22.7625L25.5898 22.7617Z" fill="#F8F2EA"/>
<path d="M25.5913 22.7617C25.6108 22.7576 25.6279 22.7494 25.6279 22.7263C25.6406 22.742 25.6568 22.7601 25.6279 22.7741C25.6193 22.7782 25.6024 22.7667 25.5896 22.7626L25.5913 22.7617Z" fill="#F8F2EA"/>
<path d="M25.6277 22.7278L25.6606 22.6992C25.6733 22.7131 25.6943 22.7278 25.6657 22.7434C25.6589 22.7434 25.6429 22.7336 25.6311 22.7278H25.6277Z" fill="#F8F2EA"/>
<path d="M25.7789 22.6115L25.7542 22.6524H25.7591C25.7591 22.641 25.7468 22.6279 25.7484 22.6173C25.7534 22.5919 25.7706 22.6115 25.783 22.6107L25.7789 22.6115Z" fill="#F8F2EA"/>
<path d="M25.7839 22.6136C25.7839 22.6014 25.7774 22.5875 25.7839 22.5768C25.793 22.5523 25.8053 22.5768 25.816 22.5768C25.817 22.5812 25.817 22.5857 25.8159 22.5901C25.8149 22.5945 25.8129 22.5985 25.81 22.602C25.8072 22.6055 25.8036 22.6083 25.7995 22.6101C25.7954 22.612 25.7909 22.6129 25.7864 22.6128L25.7839 22.6136Z" fill="#F8F2EA"/>
<path d="M25.8133 22.5765C25.8035 22.5652 25.7938 22.5531 25.8133 22.5417C25.8181 22.5417 25.8295 22.5417 25.8385 22.5417L25.8108 22.57L25.8133 22.5765Z" fill="#F8F2EA"/>
<path d="M25.8964 22.4908C25.8816 22.5014 25.8709 22.5276 25.8503 22.5006C25.8584 22.4909 25.8672 22.4819 25.8767 22.4736L25.8964 22.4908Z" fill="#F8F2EA"/>
<path d="M24.6053 23.6967C24.605 23.7012 24.6038 23.7056 24.6017 23.7096C24.5997 23.7136 24.5968 23.7171 24.5933 23.72C24.5899 23.7229 24.5858 23.7251 24.5815 23.7264C24.5772 23.7277 24.5726 23.7282 24.5681 23.7277C24.5611 23.7206 24.5546 23.713 24.5486 23.7051L24.5833 23.6758L24.6053 23.6967Z" fill="#F8F2EA"/>
<path d="M24.4482 23.7718C24.4702 23.7767 24.4812 23.7718 24.4803 23.7456C24.4871 23.7562 24.5022 23.7726 24.4989 23.7767C24.4812 23.8037 24.4651 23.784 24.4499 23.771L24.4482 23.7718Z" fill="#F8F2EA"/>
</svg>
