<svg width="29" height="23" viewBox="0 0 29 23" fill="none" xmlns="http://www.w3.org/2000/svg">
<path d="M14.9092 10.9112C14.9786 10.7122 15.0456 10.514 15.1326 10.3203C15.5691 9.34347 16.2574 8.47972 17.1366 7.70153C17.7618 7.14636 18.466 6.65622 19.2833 6.26821C19.8875 5.98059 20.5337 5.78025 21.243 5.71042C21.4159 5.69705 21.5905 5.713 21.7545 5.75712C21.9933 5.81561 22.0899 5.95789 22.1001 6.13465C22.1189 6.4537 21.9927 6.72911 21.6704 6.94733C20.9316 7.4462 20.2103 7.95729 19.5215 8.49587C18.9736 8.92447 18.524 9.41243 18.0943 9.91348C17.2293 10.9245 16.5927 12.0403 16.2113 13.2139C16.0977 13.5657 16.0533 13.928 15.9988 14.2885C15.9038 14.9161 15.8896 15.5468 15.8692 16.1775C15.8544 16.6484 15.8732 17.1211 15.7964 17.5903C15.7589 17.8181 15.7095 18.0416 15.5287 18.2393C15.4717 18.3007 15.3994 18.3529 15.316 18.3928C15.2326 18.4327 15.1398 18.4595 15.0428 18.4717C14.9458 18.4838 14.8467 18.4811 14.7511 18.4637C14.6555 18.4463 14.5653 18.4145 14.4858 18.3702C14.1289 18.1673 13.9976 17.9023 13.9873 17.5693C13.962 16.6731 13.8637 15.7789 13.6929 14.8921C13.4863 13.7946 13.1374 12.7158 12.6517 11.6715C12.2892 10.8912 11.8285 10.1398 11.2763 9.42814C10.7255 8.72588 10.0782 8.08211 9.28075 7.53349C8.85241 7.23236 8.37612 6.97411 7.86326 6.7649C7.71906 6.70914 7.58269 6.64216 7.45632 6.565C7.04141 6.30313 7.1153 5.90552 7.59954 5.73268C7.95988 5.60524 8.32818 5.61353 8.70387 5.67812C9.60983 5.83306 10.4044 6.1639 11.137 6.59031C12.0803 7.14651 12.8884 7.82616 13.5241 8.598C14.113 9.29214 14.5638 10.0499 14.8615 10.8462C14.87 10.8676 14.8666 10.8951 14.9092 10.9112ZM10.5965 6.70205C10.5985 6.70503 10.6014 6.70762 10.6049 6.70964C10.6084 6.71166 10.6125 6.71306 10.6168 6.71372C10.6211 6.71439 10.6255 6.71432 10.6298 6.71351C10.634 6.71269 10.638 6.71116 10.6414 6.70903C10.6539 6.7003 10.6414 6.69026 10.6278 6.68546C10.1585 6.36232 9.62489 6.099 9.04716 5.90552C8.62373 5.76367 8.19462 5.77458 7.76835 5.89199C7.50633 5.96313 7.42733 6.10105 7.51429 6.30531C7.57624 6.44978 7.70696 6.54929 7.8661 6.63309C8.48277 6.95781 9.09603 7.28428 9.66553 7.6605C10.3345 8.10263 10.9728 8.56396 11.4775 9.12262C11.719 9.38799 11.989 9.64026 12.1856 9.92744C12.6562 10.6096 12.9813 11.335 13.2598 12.0748C13.6471 13.0959 13.9042 14.1435 14.0277 15.2029C14.1141 15.9632 14.1715 16.7248 14.2465 17.4855C14.2778 17.7971 14.3954 18.0712 14.8308 18.2017C15.1877 18.3091 15.4702 18.2183 15.5628 17.9355C15.6555 17.6527 15.6583 17.3681 15.6685 17.0835C15.6953 16.3263 15.6998 15.5686 15.768 14.814C15.7822 14.6621 15.768 14.5085 15.768 14.3339C15.6922 14.5055 15.6296 14.6804 15.5805 14.8576C15.4463 15.3569 15.4514 15.865 15.4247 16.3708C15.4099 16.6519 15.4082 16.933 15.3599 17.2127C15.3599 17.0464 15.3474 16.8793 15.3599 16.7134C15.4094 16.0317 15.4304 15.3482 15.51 14.6673C15.5633 14.1325 15.6553 13.6004 15.7856 13.0734C15.9743 12.3615 16.2892 11.6768 16.6626 11.0116C17.2105 10.0318 17.8829 9.11127 18.79 8.29729C19.4004 7.74954 20.1126 7.28951 20.8565 6.85699C21.1225 6.70205 21.409 6.56893 21.6562 6.39522C21.7225 6.34826 21.7619 6.28304 21.7657 6.21384C21.7696 6.14464 21.7376 6.07709 21.6767 6.02598C21.5971 5.96356 21.488 5.96051 21.388 5.95222C20.7679 5.90028 20.2007 6.04693 19.6715 6.26952C18.8127 6.63003 18.1125 7.13894 17.5055 7.72728C16.2432 8.94935 15.4026 10.3299 14.9393 11.8457C14.8564 12.1163 14.7967 12.3912 14.7217 12.6828C14.6256 12.2769 14.558 11.8893 14.429 11.5092C14.1306 10.6271 13.7469 9.77381 13.1291 8.98907C12.7352 8.48889 12.3283 7.99744 11.7963 7.57452C11.4308 7.29268 11.0357 7.03431 10.6153 6.80199C9.96051 6.42752 9.26427 6.11371 8.48391 5.93563C8.55346 5.9291 8.62399 5.93251 8.69193 5.94567C8.92147 5.99397 9.14235 6.06389 9.34952 6.15386C9.77579 6.32495 10.168 6.53532 10.5965 6.70074V6.70205ZM21.8705 6.22718C21.832 6.36739 21.7365 6.49456 21.5977 6.59031C21.4933 6.67293 21.3792 6.74789 21.2567 6.81421C20.237 7.37357 19.329 8.04419 18.5615 8.80488C17.5385 9.80655 16.7263 10.8999 16.213 12.1145C15.9658 12.7002 15.8055 13.2986 15.8254 13.9193C15.8254 13.9572 15.8044 14.0065 15.8823 14.0257C15.9249 13.7949 15.9607 13.5649 16.0118 13.3366C16.1681 12.6383 16.487 11.9792 16.8877 11.3433C17.6225 10.1809 18.5717 9.10586 19.7062 8.15151C20.0181 7.87921 20.3536 7.62344 20.7105 7.38597C20.981 7.21139 21.2788 7.0643 21.5238 6.86615C21.7409 6.68677 21.8847 6.47989 21.8705 6.22718ZM14.7205 11.8404C14.7388 11.8228 14.7509 11.8019 14.7556 11.7796C14.7603 11.7574 14.7574 11.7346 14.7472 11.7134C14.7165 11.5349 14.6773 11.3581 14.6239 11.1827C14.2546 9.96386 13.5103 8.83075 12.4533 7.87829C12.1326 7.58461 11.7792 7.31285 11.3973 7.06605C11.3638 7.04466 11.3234 7.01629 11.2888 7.04815C11.2541 7.08002 11.3138 7.09616 11.3376 7.11188C11.5227 7.23532 11.6987 7.36646 11.8651 7.50468C12.3874 7.95322 12.847 8.44254 13.2365 8.96462C13.7924 9.69307 14.2681 10.4486 14.558 11.2682C14.6222 11.4537 14.6694 11.6405 14.7205 11.8404Z" fill="#F8F2EA"/>
<path d="M10.5965 6.70078C10.168 6.53536 9.77579 6.32499 9.34952 6.1539C9.14227 6.06439 8.92139 5.9949 8.69193 5.94702C8.62399 5.93386 8.55346 5.93045 8.48391 5.93698C9.26654 6.11462 9.96164 6.42843 10.6158 6.80291C11.0363 7.03522 11.4313 7.2936 11.7969 7.57543C12.3289 7.99836 12.7358 8.4898 13.1297 8.98998C13.7469 9.7756 14.1311 10.628 14.4295 11.5101C14.5585 11.8902 14.6262 12.2778 14.7222 12.6837C14.7973 12.3921 14.8569 12.1163 14.9399 11.8466C15.4026 10.3299 16.2437 8.95114 17.5055 7.72732C18.1119 7.13898 18.8127 6.63007 19.6726 6.26869C20.2018 6.0461 20.769 5.89945 21.3891 5.95138C21.4891 5.95968 21.5982 5.96273 21.6778 6.02515C21.7387 6.07626 21.7707 6.14381 21.7669 6.21301C21.763 6.28221 21.7237 6.34743 21.6574 6.39439C21.4101 6.56897 21.1237 6.6999 20.8577 6.85615C20.1137 7.28955 19.4015 7.74958 18.7911 8.29645C17.8817 9.11044 17.2116 10.0309 16.6637 11.0108C16.2903 11.6781 15.9755 12.3607 15.7868 13.0726C15.6564 13.5995 15.5644 14.1317 15.5111 14.6665C15.4315 15.3474 15.4105 16.0309 15.3611 16.7126C15.3491 16.8785 15.3611 17.0456 15.3611 17.2119C15.4094 16.9321 15.4111 16.6511 15.4259 16.37C15.4526 15.8641 15.4475 15.3561 15.5816 14.8568C15.6307 14.6795 15.6933 14.5047 15.7691 14.3331C15.7691 14.5076 15.7811 14.66 15.7691 14.8132C15.7009 15.5691 15.6964 16.3268 15.6697 17.0827C15.6595 17.3677 15.6549 17.6553 15.564 17.9347C15.473 18.214 15.1889 18.3083 14.8319 18.2009C14.3966 18.07 14.2789 17.7963 14.2476 17.4847C14.1726 16.724 14.1152 15.9623 14.0288 15.202C13.9054 14.1427 13.6482 13.0951 13.261 12.074C12.9836 11.3342 12.6574 10.6088 12.1868 9.92661C11.989 9.63942 11.7202 9.38715 11.4786 9.12179C10.9716 8.56313 10.3356 8.1018 9.66667 7.65967C9.09831 7.28344 8.48391 6.95698 7.86724 6.63225C7.7081 6.54845 7.57737 6.44894 7.51542 6.30448C7.4279 6.10022 7.50747 5.9623 7.76948 5.89115C8.19632 5.77462 8.62202 5.76284 9.04829 5.90468C9.62579 6.09807 10.1592 6.36124 10.6283 6.68419L10.5965 6.70078ZM11.9083 9.41116L11.9321 9.41683L11.9236 9.3985L11.9037 9.38453C11.8918 9.39457 11.8986 9.4033 11.9083 9.41116ZM11.5178 8.98387L11.5354 9.00395L11.5661 9.03537L11.5826 9.05676C11.6321 9.13968 11.7338 9.19075 11.7957 9.26582C11.8153 9.31335 11.8554 9.35432 11.9094 9.38192C11.8902 9.33388 11.8585 9.28933 11.8162 9.25098C11.7776 9.16369 11.6792 9.1087 11.6036 9.04235L11.5866 9.02228C11.5769 9.01093 11.5667 9.00002 11.557 8.98911L11.54 8.96859C11.5309 8.96292 11.5246 8.94721 11.5087 8.95812C11.4928 8.96903 11.5099 8.97601 11.5178 8.98387ZM9.21198 7.20401L9.24324 7.19833L9.2313 7.18786L9.21255 7.20532C9.21255 7.19746 9.2404 7.19048 9.21255 7.18175L9.21198 7.20401ZM11.4206 8.88261L11.4496 8.91229C11.4633 8.92626 11.4729 8.95594 11.4991 8.93979C11.5252 8.92364 11.4877 8.90662 11.4706 8.89309L11.4422 8.86603C11.4286 8.85293 11.4132 8.84682 11.3939 8.85861L11.4206 8.88261ZM9.39272 7.30308L9.52742 7.39561C9.69159 7.52008 9.8677 7.6349 10.0543 7.7391C9.8963 7.61136 9.7271 7.49207 9.54788 7.38208C9.51001 7.34507 9.46159 7.3152 9.40636 7.29479C9.36476 7.25184 9.30735 7.21946 9.24153 7.20183C9.28475 7.24142 9.33576 7.27559 9.39272 7.30308ZM9.06705 7.07482L9.07216 7.08704L9.06818 7.07613C9.05454 7.02899 9.1199 7.08617 9.1182 7.05038C8.99874 6.98913 8.87084 6.93819 8.73683 6.89849C8.83913 6.98665 8.98293 6.99495 9.06705 7.07482ZM14.4665 15.2435H14.4363C14.4398 15.6136 14.45 15.9833 14.55 16.3482C14.5224 15.9801 14.4951 15.6119 14.4682 15.2435H14.4665ZM17.8374 8.29253C17.6189 8.47153 17.4325 8.67218 17.2833 8.88916C17.5129 8.7172 17.6709 8.50421 17.8374 8.29253ZM14.5978 14.941C14.5949 14.7372 14.6944 14.5316 14.5767 14.3038C14.5892 14.5338 14.5057 14.7381 14.5972 14.9423L14.5978 14.941ZM14.9388 17.6326C14.9297 17.5275 14.9212 17.4218 14.9098 17.3167C14.9098 17.3005 14.903 17.2778 14.8757 17.2761C14.8484 17.2743 14.8336 17.2944 14.8302 17.3105C14.8128 17.3919 14.8095 17.4747 14.8206 17.5567C14.8262 17.6082 14.9007 17.6034 14.9388 17.6326ZM19.5755 7.05649L19.5351 7.02681C19.3606 7.07525 19.2623 7.19572 19.1333 7.2865C19.1284 7.2902 19.1247 7.2947 19.1224 7.29967C19.1202 7.30464 19.1194 7.30994 19.1203 7.31516C19.1211 7.32039 19.1234 7.3254 19.1272 7.32981C19.1309 7.33422 19.1359 7.33792 19.1418 7.34062C19.1696 7.35546 19.1821 7.33364 19.1986 7.32272L19.5755 7.05649ZM19.1424 6.84743L19.1213 6.83215C19.0004 6.89772 18.8891 6.97324 18.7894 7.05736C18.7735 7.07133 18.728 7.08966 18.7661 7.11192C18.7883 7.12501 18.8343 7.13941 18.861 7.11541C18.9571 7.02899 19.0492 6.93952 19.1424 6.84873V6.84743ZM9.3211 6.82604L9.93152 7.05954C9.7506 6.95094 9.54298 6.87151 9.3211 6.82604ZM13.29 10.9287C13.2837 10.7814 13.2186 10.639 13.1035 10.5211L13.29 10.9287ZM20.6383 6.55195C20.749 6.51114 20.8473 6.45302 20.927 6.38129C20.7736 6.37955 20.7315 6.49215 20.6383 6.55195ZM15.1701 13.0219L15.1241 13.2681L15.1548 13.2716C15.1627 13.1878 15.2036 13.1066 15.1701 13.0219ZM15.2787 11.5642C15.2031 11.6484 15.1894 11.7479 15.165 11.8448C15.2286 11.7592 15.2674 11.6641 15.2787 11.5659V11.5642ZM11.952 9.44913L11.9555 9.44477H11.9503L11.952 9.44913Z" fill="#030202"/>
<path d="M21.8705 6.22729C21.8847 6.48 21.7409 6.68688 21.5221 6.86539C21.2788 7.06354 20.9793 7.2115 20.7088 7.38521C20.3519 7.62268 20.0163 7.87845 19.7045 8.15075C18.57 9.1051 17.6208 10.1801 16.886 11.3425C16.4853 11.9785 16.1664 12.6366 16.0101 13.3358C15.959 13.5641 15.9232 13.7941 15.8805 14.025C15.8044 14.0036 15.8237 13.9565 15.8237 13.9185C15.8038 13.2979 15.9641 12.6995 16.2113 12.1138C16.7229 10.8978 17.535 9.80578 18.5598 8.80412C19.3278 8.04334 20.2364 7.37271 21.2567 6.81345C21.3792 6.74713 21.4933 6.67217 21.5977 6.58955C21.7363 6.49403 21.8318 6.36719 21.8705 6.22729Z" fill="#030202"/>
<path d="M14.7205 11.8403C14.6699 11.6405 14.6228 11.4536 14.558 11.2699C14.2681 10.4511 13.7924 9.69474 13.2365 8.9663C12.8468 8.44434 12.387 7.95517 11.8645 7.50679C11.6982 7.36856 11.5221 7.23743 11.3371 7.11398C11.3132 7.09827 11.2496 7.08561 11.2882 7.05026C11.3268 7.01491 11.3632 7.04677 11.3968 7.06816C11.7787 7.31495 12.132 7.58672 12.4528 7.8804C13.5097 8.83286 14.254 9.96597 14.6233 11.1848C14.6768 11.3594 14.716 11.537 14.7467 11.7155C14.7564 11.7363 14.7591 11.7587 14.7545 11.7805C14.7499 11.8023 14.7383 11.8229 14.7205 11.8403Z" fill="#030202"/>
<path d="M10.6283 6.68408C10.642 6.68888 10.6545 6.6989 10.642 6.70762C10.6386 6.70975 10.6346 6.71128 10.6304 6.71209C10.6261 6.7129 10.6217 6.71298 10.6174 6.71231C10.6131 6.71164 10.609 6.71025 10.6055 6.70823C10.602 6.70621 10.5991 6.70362 10.5971 6.70065L10.6283 6.68408Z" fill="#030202"/>
<path d="M14.4682 15.2436C14.4955 15.612 14.5225 15.98 14.5494 16.3478C14.4511 15.983 14.4409 15.6133 14.4358 15.2432L14.4682 15.2436Z" fill="#F8F2EA"/>
<path d="M17.8374 8.29248C17.6709 8.50257 17.5129 8.71528 17.2833 8.88832C17.4325 8.67163 17.6189 8.47124 17.8374 8.29248Z" fill="#F8F2EA"/>
<path d="M14.5972 14.9415C14.5057 14.7376 14.5892 14.5336 14.5762 14.3052C14.6938 14.5336 14.5943 14.738 14.5972 14.9415Z" fill="#F8F2EA"/>
<path d="M14.9388 17.6321C14.9007 17.6016 14.8251 17.6064 14.8206 17.5563C14.8095 17.4743 14.8128 17.3917 14.8302 17.3104C14.8336 17.2943 14.8484 17.2742 14.8757 17.276C14.903 17.2777 14.9081 17.3004 14.9098 17.3165C14.9212 17.4229 14.9297 17.5284 14.9388 17.6321Z" fill="#F8F2EA"/>
<path d="M19.5755 7.05772L19.1975 7.3236C19.1822 7.33449 19.1696 7.35629 19.1407 7.34147C19.1348 7.33877 19.1298 7.33508 19.126 7.33067C19.1223 7.32627 19.1199 7.32126 19.1191 7.31605C19.1183 7.31083 19.119 7.30554 19.1213 7.30058C19.1236 7.29561 19.1273 7.29111 19.1321 7.28742C19.2612 7.19676 19.3595 7.07646 19.534 7.02808L19.5755 7.05772Z" fill="#F8F2EA"/>
<path d="M19.1424 6.84875C19.0492 6.93811 18.9571 7.02877 18.861 7.11638C18.8343 7.14035 18.7883 7.12597 18.7661 7.11289C18.728 7.09066 18.7735 7.07235 18.7894 7.05841C18.8891 6.9744 19.0004 6.89898 19.1213 6.8335L19.1424 6.84875Z" fill="#F8F2EA"/>
<path d="M9.54845 7.38208C9.72766 7.49192 9.89686 7.61105 10.0549 7.73862C9.86827 7.63457 9.69215 7.5199 9.52798 7.39559L9.54845 7.38208Z" fill="#F8F2EA"/>
<path d="M9.32111 6.82593C9.54298 6.87134 9.7506 6.95066 9.93152 7.05912L9.32111 6.82593Z" fill="#F8F2EA"/>
<path d="M13.2871 10.9298L13.1007 10.5227C13.2158 10.6405 13.2809 10.7827 13.2871 10.9298Z" fill="#F8F2EA"/>
<path d="M9.06705 7.07425C8.98293 6.99492 8.8397 6.98708 8.73683 6.8999C8.87084 6.93955 8.99874 6.99042 9.1182 7.05159C9.1182 7.08733 9.05454 7.03023 9.06819 7.0773L9.06705 7.07425Z" fill="#F8F2EA"/>
<path d="M20.6383 6.55163C20.7315 6.49191 20.7736 6.37728 20.927 6.3812C20.8473 6.45283 20.749 6.51088 20.6383 6.55163Z" fill="#F8F2EA"/>
<path d="M11.6042 9.04224C11.6798 9.10849 11.7781 9.16167 11.8168 9.25058L11.7957 9.2654C11.7338 9.19043 11.6321 9.13944 11.5826 9.05662L11.6042 9.04224Z" fill="#5C5C5C"/>
<path d="M15.1701 13.022C15.2036 13.1065 15.1627 13.1876 15.1548 13.2722L15.1241 13.2687L15.1701 13.022Z" fill="#F8F2EA"/>
<path d="M15.2787 11.5659C15.2677 11.6646 15.2289 11.7602 15.165 11.8462C15.1894 11.7477 15.2031 11.6483 15.2787 11.5659Z" fill="#5C5C5C"/>
<path d="M9.39271 7.30289C9.33584 7.27569 9.28484 7.24187 9.24153 7.20264C9.30735 7.22024 9.36476 7.25258 9.40636 7.29548L9.39271 7.30289Z" fill="#F8F2EA"/>
<path d="M9.40636 7.29565C9.46159 7.31604 9.51001 7.34586 9.54788 7.38283L9.52742 7.39634L9.39272 7.30394L9.40636 7.29565Z" fill="#F8F2EA"/>
<path d="M11.8168 9.25269C11.8591 9.29099 11.8908 9.33547 11.91 9.38345C11.8559 9.35589 11.8158 9.31497 11.7963 9.26751L11.8168 9.25269Z" fill="#5C5C5C"/>
<path d="M11.4706 8.89307C11.4877 8.90658 11.5212 8.92489 11.4991 8.93971C11.4769 8.95452 11.4633 8.92619 11.4496 8.91224L11.4706 8.89307Z" fill="#5C5C5C"/>
<path d="M11.5576 8.99072L11.5872 9.02385L11.5661 9.03693L11.5354 9.00554L11.5576 8.99072Z" fill="#5C5C5C"/>
<path d="M11.4206 8.88298L11.3939 8.85857C11.4132 8.8468 11.4286 8.8529 11.4422 8.86598L11.4206 8.88298Z" fill="#5C5C5C"/>
<path d="M11.4496 8.91217L11.4206 8.88297L11.4422 8.86597L11.4706 8.89299L11.4496 8.91217Z" fill="#5C5C5C"/>
<path d="M9.06828 7.07607L9.0726 7.08746L9.06705 7.07471L9.06828 7.07607Z" fill="#F8F2EA"/>
<path d="M9.21198 7.20431V7.18164C9.23999 7.19036 9.21198 7.19733 9.21198 7.20518V7.20431Z" fill="#F8F2EA"/>
<path d="M9.21254 7.20518L9.2313 7.18774L9.24324 7.1982L9.21198 7.20387L9.21254 7.20518Z" fill="#F8F2EA"/>
<path d="M11.5178 8.9837C11.5099 8.97586 11.4939 8.96801 11.5093 8.95798C11.5246 8.94796 11.5315 8.96278 11.5406 8.96845L11.5178 8.9837Z" fill="#5C5C5C"/>
<path d="M11.5405 8.96851L11.5576 8.98899L11.5354 9.00381C11.5298 8.99727 11.5241 8.9903 11.5178 8.98376L11.5405 8.96851Z" fill="#5C5C5C"/>
<path d="M11.5872 9.02222L11.6042 9.04227L11.5826 9.05665L11.5661 9.03529L11.5872 9.02222Z" fill="#5C5C5C"/>
<path d="M11.9083 9.41111C11.8986 9.40326 11.8918 9.39455 11.9037 9.38452L11.9236 9.39847L11.9083 9.41111Z" fill="#5C5C5C"/>
<path d="M11.9242 9.39844L11.933 9.41757L11.9083 9.41165L11.9242 9.39844Z" fill="#5C5C5C"/>
<path d="M11.9524 9.45008L11.9503 9.44385L11.9564 9.44489L11.9524 9.45008Z" fill="#5C5C5C"/>
</svg>
