<svg width="71" height="70" viewBox="0 0 71 70" fill="none" xmlns="http://www.w3.org/2000/svg">
<path d="M0 35.0261C0.129847 26.1317 3.13246 18.3003 9.20811 11.6757C14.1599 6.27762 20.2884 2.81031 27.4167 1.04652C29.6153 0.502642 31.8498 0.186772 34.113 0.0596978C38.7926 -0.20389 43.3468 0.400256 47.763 1.97452C52.2827 3.58582 56.2764 6.04089 59.7625 9.30851C62.7291 12.0889 65.0422 15.3362 66.9216 18.9189C68.8569 22.6092 70.1142 26.494 70.6784 30.609C70.9315 32.4542 71.0452 34.3073 70.9836 36.1662C70.6982 44.821 67.6589 52.3961 61.7322 58.7723C56.7107 64.174 50.5316 67.645 43.2778 69.212C41.1973 69.6615 39.0919 69.9432 36.9601 69.9897C27.4299 70.1981 19.0266 67.2529 11.8608 61.0284C6.17028 56.0849 2.55952 49.8771 0.870779 42.5765C0.346991 40.3139 0.0660237 38.0178 0.0337455 35.6942C0.0308111 35.4836 0.0132047 35.2738 0.000733597 35.0269L0 35.0261Z" fill="#181818"/>
<path d="M37.3188 66.5179C32.3934 66.6065 27.7997 65.8048 23.3944 64.0207C20.2341 62.7413 17.2813 61.1024 14.7116 58.8528C10.4868 55.1553 7.3976 50.6823 5.45137 45.4403C4.60113 43.1515 4.03186 40.7937 3.72888 38.3757C3.42958 35.9925 3.33934 33.5992 3.66873 31.2167C4.11182 28.013 5.06109 24.948 6.47987 22.0318C9.27781 16.2808 13.4058 11.6858 18.8476 8.27584C22.451 6.01828 26.3728 4.51517 30.5763 3.75346C32.6458 3.37804 34.7329 3.20159 36.8354 3.2212C40.0925 3.25169 43.2917 3.69754 46.3846 4.71559C48.5384 5.4243 50.5441 6.46849 52.4426 7.70001C58.6041 11.6974 62.9742 17.142 65.7215 23.8813C66.9136 26.8054 67.656 29.8429 67.9531 32.9856C68.0969 34.5032 68.1776 36.0245 68.0484 37.5443C67.8951 39.3495 67.5283 41.1205 67.0317 42.864C65.5571 48.0333 62.9529 52.5753 59.2416 56.4885C55.3616 60.5795 50.7238 63.5219 45.348 65.2987C43.7334 65.8324 42.049 66.0967 40.3588 66.2986C39.2922 66.4257 38.2211 66.4823 37.3188 66.5186V66.5179Z" fill="#F8F2EA"/>
<path d="M37.3747 62.9941C32.9562 63.0738 28.8351 62.352 24.8832 60.7456C22.0481 59.5935 19.3992 58.1179 17.0939 56.0924C13.3039 52.7631 10.5326 48.7356 8.78669 44.0157C8.02395 41.9548 7.51326 39.8319 7.24147 37.6547C6.97296 35.5088 6.89201 33.3538 7.1875 31.2087C7.585 28.324 8.43658 25.5642 9.70935 22.9385C12.2194 17.7603 15.9225 13.6229 20.8043 10.5526C24.0369 8.51983 27.5551 7.16643 31.326 6.48057C33.1825 6.14255 35.0548 5.98367 36.941 6.00132C39.8629 6.02878 42.7329 6.43023 45.5075 7.34688C47.4397 7.98501 49.2389 8.9252 50.9421 10.0341C56.4695 13.6334 60.3898 18.5357 62.8544 24.6038C63.9238 27.2367 64.5898 29.9716 64.8564 32.8014C64.9853 34.1678 65.0577 35.5376 64.9419 36.906C64.8044 38.5314 64.4753 40.1261 64.0298 41.6959C62.707 46.3504 60.3707 50.4401 57.0414 53.9635C53.5607 57.6471 49.4002 60.2964 44.5776 61.8963C43.1291 62.3769 41.6181 62.6148 40.1018 62.7966C39.145 62.911 38.1841 62.962 37.3747 62.9947V62.9941Z" fill="#181818"/>
<path d="M9.86214 13.8723C10.6111 12.7555 11.4584 11.7127 12.3637 10.7194C12.8662 10.1682 13.4641 9.71076 14.0796 9.21045C12.7474 10.8711 11.3007 12.3721 9.92449 13.934C9.87021 13.9463 9.8416 13.934 9.86214 13.8723Z" fill="#F8F2EA"/>
<path d="M56.8553 10.302C58.4773 11.6098 59.9496 13.0649 61.2569 14.6821C61.2679 14.7351 61.2525 14.7619 61.193 14.7423C59.7955 13.2145 58.2917 11.7913 56.7863 10.3695C56.7761 10.3143 56.7951 10.2875 56.8546 10.302H56.8553Z" fill="#F8F2EA"/>
<path d="M70.1915 32.8501C70.3683 34.208 70.4607 35.5695 70.3265 36.9361C70.2766 37.4488 70.1973 37.9585 70.1313 38.4697C69.978 38.3986 70.08 38.2817 70.0785 38.1829C70.1599 36.9136 70.2348 35.6443 70.1907 34.3714C70.1739 33.8842 70.1519 33.3969 70.1313 32.9097C70.1115 32.8509 70.1372 32.8363 70.1915 32.8494V32.8501Z" fill="#F8F2EA"/>
<path d="M39.7389 67.5564C38.9855 67.653 38.2329 67.7525 37.4787 67.8454C36.7701 67.9333 36.0592 68.0066 35.3513 68.1039C35.1642 68.1301 34.986 68.101 34.804 68.0967C34.7505 68.0952 34.65 68.1424 34.6624 68.0226C34.6705 67.9464 34.7336 67.9166 34.8092 67.9115C35.0791 67.8941 35.3484 67.8665 35.619 67.8571C36.8361 67.8149 38.0443 67.677 39.2511 67.5238C39.4117 67.5034 39.5739 67.478 39.7389 67.5557V67.5564Z" fill="#F8F2EA"/>
<path d="M22.2995 5.77947C23.755 4.97128 25.3462 4.51672 26.9271 4.03674C26.9902 4.01568 27.0056 4.044 26.9946 4.10064C25.432 4.63363 23.876 5.18622 22.3604 5.84119C22.3003 5.85862 22.2856 5.83321 22.2995 5.77947Z" fill="#F8F2EA"/>
<path d="M55.2151 61.459C56.4864 60.3568 57.7878 59.2864 58.966 58.0796C58.6813 58.63 56.0154 61.0451 55.2151 61.459Z" fill="#F8F2EA"/>
<path d="M60.9019 11.6062C61.4579 12.0107 63.5934 14.4926 63.8913 15.0568C62.8173 13.9734 61.9729 12.694 60.9019 11.6062Z" fill="#F8F2EA"/>
<path d="M55.3858 8.24704C54.6155 7.8041 53.846 7.36042 53.0757 6.91748C53.9245 7.22464 54.8224 7.44538 55.3858 8.24704Z" fill="#F8F2EA"/>
<path d="M9.68664 15.7072C10.2141 14.9556 10.8098 14.2556 11.4011 13.5535C11.4421 13.5041 11.4774 13.3879 11.5749 13.4605C11.6828 13.5411 11.5874 13.6057 11.5331 13.6696C10.9382 14.3696 10.3432 15.0704 9.749 15.7711C9.69691 15.7798 9.66757 15.766 9.68737 15.7072H9.68664Z" fill="#F8F2EA"/>
<path d="M69.7483 41.2535C69.595 42.2628 69.3573 43.2526 69.0352 44.2227C69.0176 44.2437 68.9993 44.2445 68.9795 44.2249C69.237 43.1771 69.4989 42.1307 69.6845 41.0669C69.8231 41.0894 69.7446 41.1853 69.7483 41.2528V41.2535Z" fill="#F8F2EA"/>
<path d="M61.1941 14.7422C61.2154 14.7218 61.2366 14.7022 61.2579 14.6819C61.9695 15.4908 62.5901 16.3658 63.1792 17.264C63.199 17.3207 63.1719 17.3301 63.1235 17.3185C62.5292 16.4239 61.8551 15.5881 61.1941 14.7422Z" fill="#F8F2EA"/>
<path d="M69.7481 41.2535C69.7195 41.1939 69.7606 41.1104 69.6843 41.0676C69.8156 40.1062 69.947 39.1448 70.0783 38.1833C70.1149 38.2756 70.0585 38.3845 70.1311 38.4702C70.0034 39.3982 69.8758 40.3255 69.7489 41.2535H69.7481Z" fill="#F8F2EA"/>
<path d="M68.6946 45.3205C68.5347 46.12 68.195 46.8592 67.9118 47.6173C67.862 47.7509 67.804 47.8816 67.7497 48.0138C67.7013 48.0203 67.6668 48.0152 67.6991 47.9542C68.0285 47.0647 68.3747 46.1803 68.6491 45.2719C68.6711 45.2639 68.6931 45.2566 68.7078 45.282C68.7137 45.2922 68.7056 45.3067 68.6953 45.3205H68.6946Z" fill="#F8F2EA"/>
<path d="M69.1982 25.9954C69.4689 26.8282 69.7294 27.664 69.7565 28.547C69.5702 27.6967 69.3846 26.8464 69.1982 25.9954Z" fill="#F8F2EA"/>
<path d="M34.0269 2.55707C34.6607 2.49607 35.2916 2.39732 35.9284 2.38062C35.9313 2.41547 35.935 2.4496 35.9379 2.48445C35.3209 2.52947 34.704 2.57449 34.0863 2.61951C34.0276 2.63476 34.0107 2.6108 34.0261 2.55634L34.0269 2.55707Z" fill="#F8F2EA"/>
<path d="M2.61811 34.9905V36.7063C2.58729 36.7063 2.55648 36.7049 2.52567 36.7042C2.39509 36.0869 2.62397 35.4813 2.61811 34.9905Z" fill="#F8F2EA"/>
<path d="M4.42329 24.5096C4.30738 24.8219 4.18854 25.1341 4.07629 25.4478C4.04695 25.5298 4.01174 25.5959 3.9149 25.5574C3.79019 25.5073 3.88483 25.4362 3.9127 25.3795C4.05575 25.0876 4.20247 24.7986 4.34846 24.5082C4.37414 24.4842 4.39908 24.4849 4.42402 24.5103L4.42329 24.5096Z" fill="#F8F2EA"/>
<path d="M28.5559 3.17265C27.9925 3.31134 27.4299 3.45003 26.8665 3.58945C27.3748 3.30844 27.9353 3.21113 28.4958 3.11238C28.553 3.0964 28.5699 3.11964 28.5559 3.17337V3.17265Z" fill="#F8F2EA"/>
<path d="M3.89375 43.9985C3.62378 43.4597 3.54749 42.8672 3.46899 42.2747C3.61058 42.849 3.75216 43.4241 3.89375 43.9985Z" fill="#F8F2EA"/>
<path d="M9.6863 15.707C9.70684 15.7281 9.72738 15.7499 9.74792 15.7709C9.49043 16.1217 9.23294 16.4731 8.97545 16.8238C8.95344 16.8093 8.93216 16.7948 8.91016 16.7803C9.15885 16.4165 9.39506 16.044 9.6863 15.707Z" fill="#F8F2EA"/>
<path d="M14.3691 60.1787C14.7139 60.4496 15.0587 60.7204 15.4035 60.9913C14.8643 60.7451 14.5305 60.4815 14.3691 60.1787Z" fill="#F8F2EA"/>
<path d="M41.2129 2.04843C40.8211 2.01938 40.4287 1.98961 40.0083 1.95839C40.4404 1.73474 40.8248 1.9976 41.2202 1.97727C41.2173 2.0005 41.2151 2.02447 41.2121 2.0477L41.2129 2.04843Z" fill="#F8F2EA"/>
<path d="M48.3997 4.9541C48.8523 5.01147 49.2448 5.18356 49.602 5.44207C49.2015 5.27941 48.8002 5.11676 48.3997 4.9541Z" fill="#F8F2EA"/>
<path d="M26.9947 4.10086C26.972 4.0798 26.95 4.05802 26.9272 4.03696C27.2559 3.88738 27.6073 3.82275 27.9528 3.73779C27.9602 3.76103 27.9675 3.78427 27.9748 3.8075C27.6476 3.90553 27.3212 4.00283 26.994 4.10086H26.9947Z" fill="#F8F2EA"/>
<path d="M43.2005 67.2777C43.48 67.1956 43.7595 67.1128 44.039 67.0308C43.8725 67.3169 43.5658 67.2515 43.3215 67.3401C43.2614 67.3561 43.1932 67.3887 43.2005 67.2777Z" fill="#F8F2EA"/>
<path d="M37.7891 68.5037C38.2373 68.4957 38.6796 68.3708 39.1323 68.4546C38.6841 68.4625 38.2432 68.6062 37.7891 68.5037Z" fill="#F8F2EA"/>
<path d="M13.3613 58.4226C13.6159 58.6593 13.8712 58.8968 14.1257 59.1335C14.1096 59.1502 14.0927 59.1676 14.0766 59.1843C13.7949 58.9745 13.5484 58.729 13.3613 58.4226Z" fill="#F8F2EA"/>
<path d="M14.8954 59.8774C14.6247 59.6937 14.3797 59.4824 14.1729 59.229C14.456 59.3967 14.7032 59.6073 14.9365 59.8353C14.9424 59.8673 14.9285 59.8818 14.8954 59.8774Z" fill="#F8F2EA"/>
<path d="M5.37408 48.785C5.19509 48.4953 5.07771 48.1823 5.03149 47.8403C5.16061 48.1424 5.28972 48.4452 5.41883 48.7473C5.41883 48.777 5.40416 48.7894 5.37482 48.7858L5.37408 48.785Z" fill="#F8F2EA"/>
<path d="M56.8557 10.3021C56.8329 10.3246 56.8102 10.3472 56.7875 10.3697C56.6121 10.2114 56.4368 10.0531 56.2622 9.89478C56.505 9.97392 56.6921 10.1228 56.8564 10.3021H56.8557Z" fill="#F8F2EA"/>
<path d="M63.1228 17.3186C63.1411 17.3005 63.1602 17.2823 63.1786 17.2642C63.37 17.4747 63.5013 17.7202 63.593 17.9932C63.436 17.7681 63.2798 17.543 63.1228 17.3186Z" fill="#F8F2EA"/>
<path d="M28.556 3.17283C28.5362 3.15249 28.5157 3.13216 28.4958 3.11183C28.7798 3.01888 29.0681 2.94772 29.3688 2.94409C29.3754 2.95135 29.3813 2.95934 29.3879 2.9666C29.1216 3.07988 28.8355 3.11183 28.556 3.1721V3.17283Z" fill="#F8F2EA"/>
<path d="M19.1475 62.7825C19.3573 62.9037 19.5678 63.025 19.7776 63.1455C19.5231 63.1049 19.3089 62.9872 19.1475 62.7825Z" fill="#F8F2EA"/>
<path d="M43.2007 67.2776C43.2154 67.3473 43.2814 67.319 43.3218 67.34C43.0709 67.3981 42.8207 67.4569 42.5698 67.515C42.762 67.3771 42.9792 67.3204 43.2007 67.2776Z" fill="#F8F2EA"/>
<path d="M70.1913 32.8502C70.1714 32.8705 70.1516 32.8901 70.1311 32.9104C70.0533 32.6991 70.0746 32.4835 70.1274 32.2649L70.1913 32.8502Z" fill="#F8F2EA"/>
<path d="M15.7883 60.5711C15.5946 60.4571 15.4105 60.3308 15.2564 60.1667C15.255 60.1384 15.2697 60.1282 15.2968 60.1347C15.489 60.2175 15.6254 60.3736 15.7868 60.4971C15.8125 60.521 15.8132 60.5457 15.7883 60.5711Z" fill="#F8F2EA"/>
<path d="M22.3 5.77953C22.3206 5.79987 22.3404 5.82092 22.3609 5.84126C22.2061 5.948 22.0345 6.0148 21.8474 6.04385C21.9802 5.92258 22.1298 5.834 22.2993 5.77881L22.3 5.77953Z" fill="#F8F2EA"/>
<path d="M34.027 2.55713C34.0468 2.57807 34.0673 2.599 34.0871 2.61994C33.8942 2.71669 33.6932 2.66976 33.4893 2.625C33.6683 2.60261 33.848 2.57951 34.027 2.55713Z" fill="#F8F2EA"/>
<path d="M4.4237 24.5097C4.39876 24.5097 4.37309 24.5082 4.34814 24.5075C4.42224 24.3456 4.49633 24.1837 4.57042 24.0225C4.56529 24.2025 4.53595 24.371 4.4237 24.5097Z" fill="#F8F2EA"/>
<path d="M5.65869 21.3852C5.74746 21.2059 5.83622 21.0258 5.92499 20.8464C5.94699 20.8566 5.96974 20.8668 5.99174 20.8769C5.90738 21.0585 5.85456 21.2545 5.65869 21.3852Z" fill="#F8F2EA"/>
<path d="M68.1799 26.7473C68.1366 26.5759 68.0933 26.4045 68.05 26.2332C68.177 26.3602 68.2312 26.5113 68.2334 26.6797C68.2613 26.7378 68.2334 26.7531 68.1792 26.7473H68.1799Z" fill="#F8F2EA"/>
<path d="M67.6988 47.9543C67.7157 47.974 67.7326 47.9943 67.7494 48.0139C67.6952 48.1657 67.6343 48.3138 67.4875 48.475C67.5418 48.2601 67.6071 48.1025 67.6988 47.9543Z" fill="#F8F2EA"/>
<path d="M9.86248 13.8723C9.88302 13.8926 9.9043 13.9137 9.92484 13.934C9.85514 14.0909 9.72897 14.202 9.59985 14.3138C9.65194 14.1453 9.73557 13.9965 9.86248 13.8723Z" fill="#F8F2EA"/>
<path d="M5.41755 48.7471C5.50998 48.9068 5.59728 49.0673 5.61636 49.2575C5.50485 49.1152 5.41388 48.9635 5.37354 48.7856C5.38821 48.7725 5.40288 48.7601 5.41755 48.7471Z" fill="#F8F2EA"/>
<path d="M15.7888 60.5709C15.7888 60.5462 15.7881 60.5215 15.7874 60.4968C15.9326 60.5796 16.0654 60.6776 16.1659 60.8185C16.0258 60.7582 15.8849 60.7001 15.7888 60.5716V60.5709Z" fill="#F8F2EA"/>
<path d="M67.7125 24.8481C67.5995 24.7254 67.5151 24.5925 67.5452 24.3623C67.6149 24.5649 67.664 24.7065 67.7125 24.8481Z" fill="#F8F2EA"/>
<path d="M68.1799 26.7475C68.1983 26.725 68.2159 26.7024 68.2342 26.6799C68.3076 26.815 68.3288 26.9609 68.3061 27.1178C68.2643 26.9943 68.2217 26.8709 68.1799 26.7475Z" fill="#F8F2EA"/>
<path d="M68.9792 44.2251C68.9982 44.2331 69.0166 44.2316 69.0349 44.2229C68.9931 44.3551 68.9513 44.4879 68.8845 44.6992C68.8611 44.4705 68.8992 44.3434 68.9792 44.2258V44.2251Z" fill="#F8F2EA"/>
<path d="M29.3689 2.94422C29.5215 2.86841 29.6814 2.8352 29.9125 2.86192C29.699 2.90451 29.553 2.97744 29.388 2.96661C29.3814 2.95939 29.3755 2.95144 29.3689 2.94422Z" fill="#F8F2EA"/>
<path d="M15.2567 60.1666C15.1364 60.07 15.0161 59.9741 14.8958 59.8776C14.9097 59.8638 14.9229 59.8492 14.9368 59.8354C15.074 59.9153 15.1951 60.0141 15.297 60.1346C15.2794 60.1397 15.2662 60.1506 15.2567 60.1666Z" fill="#F8F2EA"/>
<path d="M68.6949 45.3205C68.6795 45.3045 68.6641 45.2878 68.6487 45.2719C68.6854 45.1455 68.722 45.0192 68.7587 44.8928C68.7785 45.0439 68.7844 45.1913 68.6942 45.3205H68.6949Z" fill="#F8F2EA"/>
<path d="M25.9314 23.9348C25.9904 22.7696 25.6794 21.8039 24.8076 21.0377C24.4292 20.6988 24.0282 20.3855 23.6074 20.1002C23.3596 19.9378 23.1449 19.7304 22.9745 19.4889C22.7716 19.1973 22.8654 18.7161 23.172 18.5394C23.7176 18.2251 24.3199 18.081 24.9418 17.9867C25.9445 17.836 26.9353 17.6084 27.7558 16.9776C28.2457 16.5813 28.6438 16.0849 28.9233 15.5221C29.291 14.8241 29.6194 14.1131 29.9336 13.3847C29.9685 13.3113 30.0101 13.2413 30.058 13.1756C30.1025 13.1003 30.1636 13.0362 30.2368 12.988C30.31 12.9398 30.3933 12.9089 30.4804 12.8976C30.5674 12.8863 30.6559 12.895 30.7391 12.9228C30.8223 12.9507 30.898 12.9971 30.9604 13.0585C31.2473 13.3067 31.4056 13.6405 31.5659 13.9743C31.9042 14.6777 32.2152 15.405 32.704 16.0184C33.5627 17.1023 34.668 17.8122 36.0559 18.0615C36.536 18.1482 37.0215 18.224 37.4165 18.5557C37.6969 18.7909 37.7253 19.0142 37.5332 19.3231C37.3674 19.5897 37.1143 19.7468 36.8786 19.9376C36.1845 20.4966 35.6431 21.22 35.3041 22.0413C34.9768 22.8282 35.0859 23.6302 35.2201 24.4333C35.3052 24.8368 35.4145 25.2349 35.5474 25.6255C35.6226 25.8575 35.6576 26.1005 35.6511 26.3441C35.6205 26.9305 35.4536 27.1396 34.7422 26.9413C34.3537 26.8329 34.0242 26.5912 33.6925 26.3701C33.1874 26.0201 32.6474 25.7227 32.081 25.4825C31.3149 25.1855 30.4722 25.1444 29.6805 25.3654C28.9707 25.5536 28.304 25.8756 27.7165 26.3138C27.3892 26.5511 27.0487 26.7776 26.7127 27.0063C26.6033 27.0827 26.4821 27.1405 26.3537 27.1776C25.9031 27.299 25.5965 27.0757 25.5539 26.6162C25.5146 26.1945 25.6412 25.7989 25.7165 25.3947C25.8027 24.8939 25.9413 24.4019 25.9314 23.9348ZM25.7841 26.4276C25.7907 26.9467 26.0264 27.0855 26.4956 26.8546C26.8321 26.6829 27.1389 26.459 27.4044 26.1913C27.9042 25.7057 28.4094 25.2408 29.1077 25.0327C29.9806 24.7726 30.8425 24.5937 31.7449 24.8929C32.4083 25.1096 32.98 25.4879 33.5409 25.8878C33.9315 26.1664 34.3134 26.459 34.7204 26.7137C35.0477 26.9175 35.3085 26.7679 35.3401 26.3886C35.3644 26.1543 35.3425 25.9176 35.2757 25.6916C35.0433 24.933 34.7193 24.1992 34.6974 23.3885C34.6854 22.9235 34.656 22.4456 34.8065 22.0099C35.0433 21.3227 35.4023 20.6952 36.0155 20.2519C36.261 20.0741 36.5098 19.8996 36.7444 19.71C36.9345 19.558 37.1121 19.3913 37.2757 19.2114C37.4678 18.9947 37.4296 18.8137 37.1775 18.6695C37.017 18.5769 36.8417 18.5124 36.6593 18.4787C36.3537 18.4224 36.0395 18.3975 35.7416 18.314C34.2141 17.8805 33.0673 16.9267 32.1879 15.6424C31.8766 15.1587 31.6205 14.6421 31.4241 14.1022C31.3126 13.7974 31.1587 13.5096 30.9669 13.2471C30.7236 12.9339 30.369 12.9653 30.1759 13.3121C30.0612 13.5183 29.9697 13.7364 29.9031 13.9624C29.8092 14.3168 29.6922 14.6647 29.5528 15.004C29.3128 15.5743 29.0153 16.119 28.6647 16.6297C28.2135 17.2594 27.5717 17.7295 26.8327 17.9715C26.0912 18.2043 25.3313 18.3747 24.561 18.4809C24.202 18.5362 23.8365 18.5535 23.4874 18.6608C23.0673 18.7898 22.9549 19.1757 23.2397 19.5062C23.3217 19.6014 23.4135 19.6879 23.5135 19.7642C23.8496 20.0167 24.1922 20.2627 24.5305 20.512C24.9985 20.8567 25.4459 21.2284 25.6881 21.7703C26.1051 22.6581 26.2351 23.6524 26.0602 24.6165C25.9445 25.2126 25.8463 25.8163 25.7852 26.4243L25.7841 26.4276Z" fill="#F8F2EA"/>
<path d="M36.8055 36.8021C36.6172 36.8691 36.4365 36.9555 36.2665 37.0601C35.8115 37.292 35.3619 37.5327 34.9058 37.7624C34.8109 37.8101 34.6931 37.9163 34.6036 37.7505C34.5141 37.5847 34.5491 37.4806 34.7127 37.3831C35.2768 37.0428 35.8311 36.6862 36.3952 36.348C39.5758 34.4459 42.7957 32.6088 46.0352 30.8086C46.2032 30.7153 46.3745 30.6265 46.5426 30.5322C46.6595 30.4682 46.7883 30.4284 46.9212 30.4151C47.2223 30.3772 47.3914 30.4433 47.4536 30.6189C47.4858 30.7366 47.4785 30.8615 47.4328 30.9747C47.3871 31.088 47.3056 31.1833 47.2005 31.2464C45.043 32.5673 42.8673 33.8581 40.6735 35.119C38.8088 36.1952 36.9517 37.2866 35.0575 38.3108L34.86 38.4127C34.8022 38.4431 34.7367 38.494 34.6909 38.4041C34.6788 38.3877 34.6704 38.369 34.6663 38.3492C34.6621 38.3293 34.6623 38.3088 34.6669 38.2891C34.6714 38.2693 34.6802 38.2508 34.6927 38.2347C34.7051 38.2186 34.7209 38.2054 34.7389 38.196C34.884 38.106 35.0215 38.0052 35.1655 37.9142C35.6522 37.6042 36.1399 37.2964 36.6265 36.9853C36.6822 36.9474 36.7607 36.9279 36.8055 36.8021ZM37.0128 36.6678C36.9604 36.6916 36.8917 36.7013 36.8851 36.7848C36.9491 36.7854 37.0106 36.7609 37.0564 36.7165C37.0717 36.7003 37.1088 36.6873 37.0804 36.6602C37.0695 36.6493 37.0357 36.6678 37.0128 36.6678ZM37.1906 36.6342L37.6096 36.3816L37.5856 36.3415L37.1492 36.5919C37.1372 36.6071 37.111 36.6309 37.1143 36.6363C37.1393 36.6678 37.1655 36.6472 37.1906 36.6331V36.6342ZM37.7471 36.2927C37.77 36.2841 37.77 36.27 37.7471 36.27C37.7263 36.2744 37.7067 36.2828 37.6893 36.2949C37.6696 36.3058 37.6707 36.3231 37.6893 36.322C37.7078 36.3209 37.7286 36.3025 37.7471 36.2917V36.2927ZM36.8502 36.8L36.8349 36.7837C36.8289 36.7932 36.8241 36.8034 36.8207 36.8141C36.8207 36.8141 36.8295 36.8238 36.8349 36.8282L36.8502 36.8Z" fill="#F8F2EA"/>
<path d="M29.1612 28.14L29.8159 27.3174C29.5911 27.974 29.2897 28.6021 28.9179 29.1892C27.6708 31.1769 26.2992 33.091 25.099 35.1004C24.2141 36.582 23.3532 38.0766 22.5458 39.6026C22.4099 39.8893 22.2395 40.1586 22.0384 40.4047C21.8693 40.5954 21.614 40.6529 21.4449 40.5456C21.2758 40.4383 21.2398 40.2345 21.3358 39.9895C21.6151 39.297 22.0144 38.6651 22.3843 38.0202C24.6189 34.1239 27.0226 30.325 29.4002 26.5175C29.4193 26.4786 29.4431 26.4422 29.4711 26.4091C29.5802 26.3008 29.7166 26.2205 29.8672 26.2856C30.0177 26.3506 29.9512 26.5023 29.9228 26.6172C29.853 26.8925 29.6697 27.1136 29.5333 27.3575C29.4089 27.5829 29.2747 27.804 29.1459 28.0284C29.1416 28.037 29.1525 28.0631 29.1612 28.14ZM29.087 28.127L29.0532 28.191L29.0041 28.2755L28.9517 28.3579C28.9365 28.3806 28.9146 28.4034 28.9517 28.4261C28.9649 28.4143 28.9772 28.4016 28.9888 28.3882L29.0445 28.308L29.1012 28.2278L29.1372 28.1801C29.1514 28.1584 29.183 28.1389 29.1569 28.1108C29.1307 28.0826 29.1067 28.1118 29.087 28.127ZM28.308 29.4384L28.3189 29.4222L28.3112 29.4417L28.2992 29.4569L28.308 29.4384ZM28.5327 29.0884C28.5666 29.058 28.6048 29.0298 28.5807 28.98C28.562 28.9925 28.5477 29.0105 28.5396 29.0314C28.5316 29.0524 28.5304 29.0753 28.536 29.097C28.5044 29.097 28.4946 29.1133 28.4847 29.1361C28.4594 29.1594 28.439 29.1875 28.4248 29.2188C28.4106 29.2501 28.4027 29.2838 28.4018 29.3181C28.3887 29.3181 28.3603 29.3181 28.38 29.3442L28.3985 29.3138C28.4242 29.291 28.4449 29.2631 28.4591 29.232C28.4734 29.2008 28.481 29.167 28.4815 29.1328C28.5131 29.1371 28.524 29.1122 28.5327 29.0884ZM22.7422 38.5101C22.5554 38.7429 22.408 39.0042 22.3058 39.284C22.4955 39.0516 22.6431 38.7883 22.7422 38.5058L22.7739 38.4993L22.7629 38.4787L22.7422 38.5101ZM28.6866 28.7946L28.6342 28.8835C28.644 28.8835 28.6593 28.8965 28.6626 28.8933C28.6714 28.8888 28.6791 28.8824 28.6852 28.8746C28.6913 28.8669 28.6956 28.8579 28.6979 28.8484C28.7002 28.8388 28.7003 28.8288 28.6984 28.8192C28.6964 28.8095 28.6924 28.8004 28.6866 28.7925V28.7946Z" fill="#F8F2EA"/>
<path d="M34.1115 37.9487C34.1115 39.0823 33.3477 40.1391 32.3232 40.4415C31.922 40.559 31.4944 40.5533 31.0966 40.4251C30.6987 40.2968 30.3493 40.0521 30.094 39.7229C28.8862 38.1947 29.8638 36.3056 31.5321 35.9945C32.4967 35.8146 33.3314 36.1278 33.8147 36.8616C34.0232 37.1853 34.1268 37.5647 34.1115 37.9487ZM30.7793 39.5668C30.8175 39.5896 30.8633 39.6589 30.8982 39.6047C30.9331 39.5506 30.8578 39.531 30.8153 39.5105L30.6265 39.3446C30.1999 38.781 29.9489 38.1795 30.2217 37.462C29.8442 37.9909 30.0319 38.8873 30.6189 39.4281L30.7793 39.5668ZM31.9107 37.1737C31.9664 37.1929 32.0273 37.1902 32.081 37.1661C32.0607 37.146 32.0351 37.1317 32.0072 37.125C31.9793 37.1184 31.9501 37.1194 31.9227 37.1282C31.7029 37.0895 31.4764 37.1165 31.2721 37.2059C31.0677 37.2952 30.8947 37.4428 30.7749 37.63C30.6966 37.7501 30.6531 37.8893 30.6493 38.0323C30.6454 38.1753 30.6813 38.3166 30.7531 38.4407C30.7771 37.5346 31.0913 37.1921 31.9107 37.1737ZM32.6451 38.3052C32.6451 37.8511 32.4268 37.6343 31.962 37.6333C31.579 37.6333 31.2364 37.94 31.2528 38.3009C31.2714 38.7095 31.4437 39.0834 31.9075 39.0802C32.2228 39.078 32.6876 38.7128 32.6451 38.3052ZM31.1764 36.5646C31.9631 36.3673 32.6407 36.5256 33.0695 37.2333C33.4863 37.9194 33.3641 38.6163 32.9375 39.2774C33.5823 38.8374 33.8431 37.7503 33.4776 37.1174C33.0662 36.4064 32.0624 36.1571 31.1764 36.5646ZM32.896 39.2861L32.8698 39.3284C32.8818 39.3284 32.8949 39.3435 32.9058 39.3414C32.9167 39.3392 32.9462 39.3262 32.9331 39.3013C32.9298 39.2937 32.9124 39.2926 32.896 39.2861ZM30.9637 39.6514L30.98 39.6351C30.9704 39.6297 30.9601 39.6253 30.9495 39.6221C30.9495 39.6221 30.9407 39.6308 30.9353 39.6351L30.9637 39.6514Z" fill="#181818"/>
<path d="M34.4847 50.324C34.3966 50.3231 34.3101 50.2996 34.2338 50.2558C32.847 49.5729 31.506 48.8088 30.1465 48.0675C27.6729 46.716 25.2245 45.3221 22.7782 43.9229C22.5087 43.769 22.2228 43.6455 21.9457 43.5056C21.8666 43.4652 21.7901 43.4199 21.7166 43.3702C21.4481 43.1913 21.3892 43.0548 21.4983 42.8727C21.5294 42.8163 21.5716 42.7667 21.6223 42.7269C21.6731 42.687 21.7314 42.6576 21.7938 42.6406C21.8561 42.6235 21.9213 42.619 21.9855 42.6274C22.0496 42.6358 22.1114 42.6569 22.1672 42.6895C24.8502 44.0985 27.5016 45.5758 30.1519 47.0509C31.5922 47.8529 33.0317 48.6578 34.4706 49.4656C34.5881 49.5282 34.6965 49.6066 34.7924 49.6987C35.0543 49.9599 34.9943 50.1961 34.6375 50.2991C34.5871 50.3103 34.5361 50.3186 34.4847 50.324ZM22.0264 43.0407L21.9871 43.1111C22.1909 43.2519 22.418 43.3557 22.6582 43.4179L22.0264 43.0407ZM22.7215 43.4655L22.7051 43.4785C22.7051 43.484 22.7149 43.4926 22.7204 43.4926C22.7258 43.4926 22.7313 43.4851 22.7367 43.4807C22.7315 43.477 22.7264 43.473 22.7215 43.4688V43.4655ZM22.7935 43.5241L22.8088 43.5306V43.5186L22.7935 43.5241Z" fill="#F8F2EA"/>
<path d="M52.092 29.4764C52.0669 30.1527 51.8519 30.7553 51.3697 31.2354C50.631 31.9681 49.5093 31.9443 48.7117 31.1867C48.2689 30.7544 47.9733 30.1954 47.8661 29.588C47.6948 28.7394 48.1018 28.1162 48.7957 27.6935C50.2305 26.8177 51.8334 27.6935 52.0614 29.1025C52.0811 29.2271 52.0811 29.3528 52.092 29.4764ZM49.4558 29.976C49.853 29.9847 50.1956 29.6075 50.2065 29.1502C50.2142 28.7892 49.9523 28.5551 49.5038 28.5649C49.074 28.5746 48.6844 28.7318 48.6833 29.2304C48.6833 29.6693 48.9845 29.9663 49.4558 29.976ZM49.9294 31.1401C50.6157 31.1607 51.0838 30.8149 51.3827 30.247C51.6948 29.6552 51.6828 29.0548 51.2736 28.4847C51.4373 29.0429 51.4558 29.5913 51.2213 30.1364C51.1152 30.4027 50.9396 30.6361 50.7125 30.8125C50.4854 30.9889 50.2151 31.102 49.9294 31.1401ZM50.3353 29.7842C50.3484 29.7842 50.368 29.7939 50.3756 29.7842C50.3985 29.7662 50.4177 29.7442 50.4324 29.7192C50.6081 29.4171 50.6655 29.0614 50.5939 28.7199C50.5251 28.4056 50.3756 28.2744 50.0483 28.2311C49.8795 28.2108 49.7084 28.223 49.5442 28.2668C50.4247 28.4012 50.7313 29.0103 50.3353 29.7842Z" fill="#181818"/>
<path d="M35.027 57.4338C35.0783 56.9949 35.1165 56.5548 35.1852 56.1191C35.326 55.2337 35.0576 54.4934 34.4313 53.8659C34.26 53.6946 34.0352 53.6112 33.8388 53.48C33.6064 53.3239 33.4122 53.1484 33.3576 52.8525C33.3315 52.7438 33.3348 52.6302 33.3672 52.5232C33.3996 52.4163 33.4599 52.3197 33.542 52.2434C33.7067 52.093 33.9139 51.9965 34.1356 51.967C34.7619 51.8532 35.3925 51.7502 35.997 51.554C36.3811 51.4262 36.7663 51.2777 37.0685 50.9883C37.3489 50.7217 37.5049 50.3748 37.6479 50.0291C37.8399 49.5685 38.0014 49.0948 38.1771 48.6266C38.1786 48.6192 38.1808 48.612 38.1836 48.6049C38.2818 48.3817 38.3647 48.1313 38.6539 48.0977C38.943 48.0641 39.1482 48.2494 39.3085 48.4781C39.4513 48.702 39.5743 48.9377 39.6763 49.1826C40.0494 49.976 40.511 50.7076 41.1798 51.2907C41.6229 51.6778 42.1769 51.9173 42.7641 51.9757C43.0732 52.0103 43.3817 52.0522 43.6894 52.1014C43.913 52.1371 44.0963 52.2336 44.1694 52.4699C44.2426 52.7062 44.1422 52.8676 43.996 53.0216C43.709 53.3239 43.3206 53.4984 43.014 53.7802C42.7826 53.997 42.547 54.2138 42.3244 54.437C41.8388 54.9302 41.8443 55.5209 42.0221 56.1278C42.1509 56.5733 42.3015 57.0133 42.4346 57.4577C42.5677 57.902 42.3255 58.1643 41.8552 58.108C41.3849 58.0516 41.0511 57.7655 40.6692 57.5541C40.0347 57.2046 39.3367 56.9836 38.6157 56.9038C38.0821 56.8421 37.6468 57.1206 37.2027 57.3612C36.7586 57.6018 36.4051 57.9465 35.9708 58.1882C35.8702 58.2491 35.7593 58.2913 35.6435 58.3128C35.5912 58.3269 35.5365 58.3304 35.4828 58.323C35.4292 58.3156 35.3775 58.2976 35.331 58.27C35.2844 58.2424 35.244 58.2058 35.212 58.1623C35.18 58.1188 35.1572 58.0694 35.1449 58.0169C35.0691 57.8316 35.0291 57.6338 35.027 57.4338ZM40.0003 56.841C40.1988 56.8753 40.3842 56.9622 40.5371 57.0924C40.8681 57.354 41.2002 57.6134 41.5333 57.8706C41.6254 57.9453 41.7337 57.9977 41.8497 58.0234C42.1356 58.083 42.2131 58.0093 42.1771 57.7145C42.1264 57.3426 42.0213 56.98 41.865 56.6383C41.6334 56.113 41.5805 55.527 41.7144 54.9692C41.8236 54.4847 42.164 54.113 42.559 53.8106C42.9387 53.516 43.3424 53.2532 43.7657 53.0248C43.8357 52.9892 43.8923 52.9324 43.9274 52.8626C43.9626 52.7928 43.9743 52.7137 43.961 52.6368C43.953 52.5633 43.9233 52.4937 43.8755 52.437C43.8277 52.3803 43.7641 52.3389 43.6926 52.3181C43.5199 52.2473 43.3338 52.2147 43.1471 52.2228C42.2044 52.2455 41.4417 51.8261 40.7586 51.2473C40.1247 50.6971 39.6419 49.996 39.3555 49.2097C39.2752 48.9725 39.1577 48.7494 39.0074 48.5486C38.8317 48.3318 38.5895 48.3513 38.4488 48.5952C38.3648 48.7424 38.2992 48.8993 38.2534 49.0623C38.0726 49.7541 37.7644 50.4067 37.3445 50.9872C36.9943 51.4609 36.4908 51.8006 35.9185 51.9496C35.2457 52.1302 34.5615 52.2656 33.8704 52.355C33.6871 52.3778 33.4918 52.4211 33.434 52.6357C33.3762 52.8503 33.5038 53.0031 33.6522 53.1256C33.8846 53.3088 34.1181 53.4908 34.3647 53.6534C34.6578 53.8348 34.9097 54.0748 35.1045 54.358C35.2992 54.6412 35.4326 54.9615 35.4962 55.2987C35.5595 55.6019 35.5768 55.9128 35.5475 56.221C35.5104 56.5798 35.4591 56.9364 35.3969 57.2918C35.3455 57.4924 35.3271 57.7 35.3424 57.9064C35.3827 58.1882 35.5606 58.289 35.8181 58.1611C35.9483 58.0906 36.072 58.009 36.188 57.9172C36.4193 57.746 36.6495 57.5715 36.8765 57.3948C37.721 56.7348 38.6692 56.699 39.6621 56.9385C39.8901 56.9938 40.116 57.0577 40.3429 57.1184L40.3538 57.087L40.0003 56.841Z" fill="#F8F2EA"/>
<path d="M45.5835 20.2433C44.6669 20.2227 43.9075 19.4629 43.9108 18.6034C43.9108 18.1038 44.2196 17.7851 44.6189 17.5564C45.4656 17.0709 46.0788 17.1392 46.6473 17.6854C47.1099 18.1309 47.159 19.0207 46.7717 19.5821C46.6447 19.7819 46.4695 19.947 46.262 20.0624C46.0545 20.1779 45.8213 20.24 45.5835 20.2433ZM45.279 19.6385C44.6909 19.2765 44.4542 18.869 44.4814 18.2371C44.2894 18.521 44.333 18.779 44.4171 19.0239C44.5524 19.4098 44.8251 19.6244 45.279 19.6385ZM45.7438 18.3379C45.5333 18.3379 45.3292 18.4625 45.3227 18.585C45.315 18.727 45.4983 18.9362 45.6347 18.9416C45.7711 18.947 46.0363 18.6641 46.0166 18.508C45.997 18.352 45.841 18.365 45.7438 18.34V18.3379ZM45.0052 18.9188C44.9581 18.7466 44.9462 18.5668 44.9702 18.3899C45.026 18.2126 45.1353 18.0567 45.2834 17.9434C44.8099 18.0366 44.6124 18.4712 45.0052 18.921V18.9188Z" fill="#181818"/>
<path d="M46.751 21.1526C46.7411 20.9608 46.6419 20.8036 46.6484 20.6259C46.6484 20.5457 46.632 20.4481 46.7226 20.4091C46.8132 20.3701 46.8895 20.4514 46.9408 20.5175C47.195 20.86 47.3173 21.2653 47.4689 21.6544C48.0679 23.1924 48.6222 24.7455 49.1492 26.3073C49.1874 26.4157 49.2343 26.5241 49.2823 26.6325C49.3434 26.769 49.3707 26.9045 49.2594 27.0248C49.2084 27.084 49.1417 27.1278 49.0669 27.1514C48.9921 27.1749 48.9121 27.1773 48.8361 27.1581C48.7309 27.1345 48.6339 27.0835 48.5551 27.0104C48.4763 26.9372 48.4185 26.8446 48.3876 26.7419C47.8977 25.3611 47.4056 23.9836 46.9081 22.6028C46.7575 22.1801 46.6157 21.7541 46.4782 21.3271C46.4455 21.2187 46.3353 21.0919 46.4465 21.0019C46.5578 20.912 46.6386 21.0919 46.751 21.1526ZM46.8601 21.3195C46.8503 21.2859 46.8306 21.2361 46.7979 21.2566C46.7651 21.2772 46.7881 21.3293 46.8132 21.365C46.8383 21.4008 46.8306 21.4517 46.8666 21.4322C46.9026 21.4127 46.8764 21.3564 46.8612 21.3195H46.8601ZM46.751 21.2003L46.7662 21.2155C46.7723 21.2064 46.7771 21.1965 46.7804 21.1862C46.7804 21.1862 46.7717 21.1764 46.7662 21.171L46.751 21.2003Z" fill="#F8F2EA"/>
<path d="M39.41 42.2517C39.0161 41.9439 38.5513 41.7618 38.1149 41.5342C37.1656 41.0519 36.2043 40.5945 35.2474 40.1252C34.9877 40.0012 34.7456 39.8438 34.5273 39.657C34.7941 39.6908 35.0527 39.7715 35.2911 39.8954C36.6804 40.5392 38.0672 41.1874 39.4515 41.8398C39.6734 41.9423 39.8712 42.09 40.0319 42.2734C40.1661 42.4273 40.188 42.5779 40.0538 42.7481C39.9463 42.8984 39.8036 43.0204 39.638 43.1036C39.5688 43.1383 39.4917 43.1548 39.4141 43.1516C39.3366 43.1484 39.2612 43.1255 39.1951 43.0851C37.6675 42.23 36.1399 41.3684 34.6309 40.4764C34.4825 40.3886 34.3036 40.3311 34.2414 40.136C34.189 39.9637 34.2414 39.8954 34.4171 39.9193C34.6353 39.9518 34.8164 40.0721 35.0085 40.1653C36.4633 40.8727 37.9181 41.5822 39.3729 42.2939L39.4198 42.3254L39.4755 42.3568L39.53 42.3926C39.5366 42.411 39.5453 42.4283 39.5682 42.4132C39.5618 42.3987 39.5545 42.3845 39.5464 42.3709L39.5115 42.3232L39.4646 42.2809L39.41 42.2517Z" fill="#F8F2EA"/>
<path d="M21.8212 41.7433C21.8212 42.347 21.5288 42.7979 21.064 43.1458C20.9513 43.2321 20.8173 43.2868 20.676 43.3041C20.5348 43.3215 20.3914 43.3009 20.2609 43.2444C20.0001 43.1434 19.769 42.9789 19.5889 42.766C19.4087 42.5532 19.2853 42.2988 19.2298 42.0262C19.1687 41.7571 19.2047 41.4752 19.3316 41.2297C19.4584 40.9843 19.668 40.7909 19.9238 40.6833C20.2434 40.536 20.6053 40.506 20.9451 40.5988C21.5299 40.7646 21.8158 41.1288 21.8212 41.7433ZM20.6777 41.4182C20.4486 41.4182 20.2413 41.5894 20.2413 41.7715C20.2413 42.0197 20.4508 42.2636 20.6581 42.2647C20.8818 42.2647 21.0946 41.9742 21.0891 41.6686C21.0935 41.5038 20.9374 41.4117 20.6777 41.4139V41.4182ZM19.8496 41.3315C19.6172 41.4984 19.5681 41.6989 19.7077 41.9959C19.6916 41.7646 19.7408 41.5334 19.8496 41.3282V41.3315ZM19.9423 41.2719C19.9303 41.2437 19.9336 41.2123 19.9041 41.2285C19.8798 41.2425 19.8601 41.2632 19.8474 41.2881C19.8461 41.2927 19.8462 41.2976 19.8476 41.3022C19.849 41.3068 19.8517 41.3108 19.8554 41.3139C19.8591 41.317 19.8636 41.319 19.8683 41.3196C19.8731 41.3202 19.878 41.3194 19.8823 41.3174C19.9041 41.303 19.9242 41.2863 19.9423 41.2675V41.2719Z" fill="#181818"/>
<path d="M41.1285 44.7455C40.5676 44.7314 40.1257 44.2285 40.1465 43.6183C40.1617 43.149 40.5283 42.8001 41.1896 42.7827C41.3038 42.7841 41.4166 42.8089 41.5208 42.8555C41.625 42.9021 41.7183 42.9696 41.795 43.0538C41.8718 43.1379 41.9302 43.2369 41.9666 43.3445C42.003 43.4521 42.0167 43.566 42.0068 43.679C41.9632 44.3044 41.6904 44.7705 41.1285 44.7455ZM41.4831 43.6043C41.5114 43.459 41.4176 43.4525 41.3227 43.4601C41.1656 43.4731 41.0117 43.5316 41.0117 43.7051C41.0109 43.7368 41.0167 43.7684 41.0287 43.7978C41.0407 43.8272 41.0587 43.8539 41.0815 43.8762C41.1043 43.8984 41.1315 43.9158 41.1614 43.9272C41.1912 43.9386 41.2231 43.9438 41.255 43.9424C41.4536 43.9294 41.4547 43.7484 41.4831 43.6043ZM40.6713 43.9294C40.6405 43.7663 40.6476 43.5984 40.692 43.4384C40.5229 43.64 40.5218 43.678 40.6713 43.9294Z" fill="#181818"/>
<path d="M41.17 45.8804C41.2049 45.656 41.2365 45.4316 41.2791 45.2095C41.2911 45.1444 41.2911 45.0328 41.3882 45.048C41.4853 45.0631 41.4362 45.1564 41.4297 45.2192C41.3162 46.2308 41.2009 47.2398 41.0838 48.2464C41.0765 48.2972 41.0659 48.3475 41.0521 48.397C41.0041 48.5845 40.8645 48.6886 40.703 48.6582C40.621 48.6367 40.5499 48.5859 40.5034 48.5154C40.4568 48.445 40.4382 48.36 40.4509 48.2767C40.5601 47.2752 40.7346 46.2825 40.8808 45.2853C40.8808 45.2485 40.8994 45.2138 40.9038 45.1769C40.9147 45.0848 40.9539 45.0209 41.0576 45.0317C41.1613 45.0426 41.1667 45.1195 41.1613 45.1965C41.1536 45.372 41.1416 45.5487 41.1329 45.7243C41.1329 45.7752 41.1329 45.8251 41.1329 45.876L41.17 45.8804Z" fill="#F8F2EA"/>
<path d="M25.7852 26.4245C25.8474 25.8165 25.9456 25.2128 26.0569 24.6123C26.2318 23.6482 26.1018 22.654 25.6849 21.7662C25.4426 21.2243 24.9953 20.8525 24.5272 20.5079C24.1889 20.2586 23.8463 20.0126 23.5103 19.76C23.4102 19.6837 23.3184 19.5973 23.2364 19.5021C22.9516 19.1715 23.064 18.7857 23.4841 18.6567C23.8332 18.5483 24.1988 18.532 24.5577 18.4768C25.328 18.3705 26.0879 18.2001 26.8294 17.9674C27.5684 17.7254 28.2102 17.2553 28.6614 16.6256C29.012 16.1148 29.3096 15.5702 29.5496 14.9998C29.6889 14.6606 29.8059 14.3126 29.8998 13.9583C29.9664 13.7322 30.0579 13.5141 30.1726 13.308C30.3657 12.9611 30.7182 12.9297 30.9637 13.2429C31.1554 13.5054 31.3093 13.7933 31.4208 14.0981C31.6172 14.638 31.8733 15.1545 32.1846 15.6382C33.064 16.9225 34.2064 17.8796 35.7384 18.3099C36.0362 18.3933 36.3505 18.4182 36.656 18.4746C36.8385 18.5083 37.0138 18.5728 37.1743 18.6653C37.4263 18.8106 37.4645 18.9905 37.2725 19.2073C37.1089 19.3871 36.9312 19.5538 36.7411 19.7058C36.5065 19.8966 36.2577 20.0711 36.0122 20.2477C35.399 20.691 35.04 21.3186 34.8033 22.0057C34.6538 22.4393 34.6833 22.9194 34.6942 23.3844C34.716 24.1951 35.04 24.931 35.2725 25.6875C35.3392 25.9135 35.3611 26.1501 35.3368 26.3844C35.3052 26.7637 35.0411 26.9133 34.7171 26.7095C34.3101 26.4548 33.9282 26.1676 33.5376 25.8837C32.9768 25.4837 32.405 25.1098 31.7416 24.8887C30.8393 24.5896 29.9762 24.7684 29.1044 25.0285C28.4061 25.2366 27.9042 25.7016 27.4012 26.1871C27.1357 26.4549 26.8288 26.6788 26.4923 26.8504C26.0264 27.0824 25.7907 26.9437 25.7852 26.4245ZM28.645 17.4287L28.5992 17.4731L27.9827 18.0497C28.24 17.9236 28.4614 17.7355 28.6265 17.5024L28.6712 17.4569C28.692 17.446 28.7301 17.4385 28.7029 17.4059C28.6756 17.3734 28.6614 17.4189 28.6439 17.433L28.645 17.4287ZM25.9544 21.0725C25.9358 21.0368 25.9096 21.0259 25.8747 21.053L25.9336 21.0986L25.9871 21.1744L26.0187 21.2308L26.0733 21.3088L26.0962 21.3663C26.1289 21.3955 26.1158 21.4963 26.1857 21.4519C26.2315 21.4237 26.1791 21.3652 26.1398 21.3327L26.1126 21.2774L26.0504 21.2015L26.0231 21.1441L25.9544 21.0725ZM34.9266 20.6032C34.8447 20.5089 34.8284 20.6238 34.7836 20.6477C34.1355 21.2124 33.7547 21.9114 33.7013 22.7742C33.6894 22.8216 33.6905 22.8714 33.7045 22.9182C33.7185 22.9651 33.7449 23.0074 33.7809 23.0408C33.7801 22.5993 33.8816 22.1635 34.0777 21.7673C34.273 21.376 34.561 21.0465 34.812 20.6932C34.8469 20.6639 34.8807 20.6347 34.9124 20.6054L34.9528 20.5154C34.9342 20.523 34.908 20.5263 34.8971 20.5393C34.8862 20.5523 34.8655 20.6032 34.9255 20.6076L34.9266 20.6032ZM28.7978 17.2791C28.7771 17.2841 28.7584 17.2949 28.7438 17.3103C28.7293 17.3257 28.7196 17.345 28.716 17.3658C28.716 17.3658 28.7421 17.3821 28.7454 17.3788C28.7694 17.3539 28.7912 17.3268 28.8142 17.2997L28.8687 17.2379C28.9189 17.2379 28.9287 17.1935 28.9418 17.1567L29.0007 17.0819C29.0291 17.0461 29.0989 17.0027 29.052 16.9681C29.0051 16.9334 28.9789 17.0006 28.9615 17.0439L28.9058 17.109C28.8785 17.1393 28.8371 17.1599 28.8414 17.2098L28.7978 17.2791ZM33.4187 25.5163L33.4939 25.5748L33.5965 25.6496L33.6663 25.7092L33.7754 25.7818C33.7929 25.8078 33.8245 25.8284 33.8453 25.8046C33.866 25.7807 33.8256 25.7644 33.8093 25.746L33.7067 25.6712L33.6412 25.6127L33.5321 25.5379L33.4612 25.4794C33.4361 25.4566 33.4056 25.4263 33.3794 25.4653C33.3532 25.5043 33.3903 25.5097 33.423 25.5163H33.4187ZM29.1459 16.7849C29.1022 16.8261 29.0466 16.8629 29.0717 16.9496C29.0976 16.9352 29.1201 16.9154 29.1378 16.8917C29.1555 16.868 29.1679 16.8408 29.1742 16.812C29.1742 16.7947 29.1928 16.7654 29.1873 16.7611C29.1677 16.7437 29.1535 16.7654 29.1459 16.7849ZM31.7864 16.075L31.7525 16.0327C31.722 16.0587 31.7405 16.0804 31.7591 16.101C31.7657 16.1297 31.78 16.1562 31.8003 16.1777C31.8206 16.1993 31.8463 16.215 31.8747 16.2235C31.871 16.194 31.8613 16.1657 31.8461 16.1401C31.8308 16.1146 31.8105 16.0924 31.7864 16.075ZM31.603 15.7715L31.5878 15.7336L31.5681 15.7563L31.6009 15.7726C31.5967 15.8172 31.6065 15.862 31.629 15.9008C31.6514 15.9396 31.6854 15.9705 31.7263 15.9894C31.6936 15.9135 31.6827 15.8246 31.6041 15.7759L31.603 15.7715ZM34.596 18.4139C34.5551 18.3661 34.4981 18.3349 34.4356 18.3261C33.8376 17.872 33.1993 17.4742 32.6003 17.0255C33.0793 17.6411 33.7263 18.0324 34.4083 18.377L34.5578 18.4573C34.6472 18.4941 34.7225 18.5786 34.8447 18.5505C34.7763 18.4842 34.6904 18.4384 34.5971 18.4182L34.596 18.4139ZM25.8562 18.3803C25.6959 18.3907 25.5388 18.4296 25.3924 18.4952C25.5506 18.4627 25.7132 18.4648 25.854 18.3792L25.878 18.3684C25.878 18.3684 25.878 18.3781 25.8725 18.3792C25.8679 18.382 25.8627 18.3839 25.8573 18.3846L25.8562 18.3803ZM26.6734 23.8135V24.1788C26.7341 24.068 26.7575 23.9407 26.74 23.8157C26.74 23.6997 26.74 23.5827 26.74 23.4678C26.74 23.4364 26.7181 23.3963 26.6679 23.4104C26.6178 23.4245 26.6483 23.4591 26.6516 23.4895C26.6581 23.6011 26.6669 23.7095 26.6745 23.8179L26.6734 23.8135ZM33.8158 24.5408C33.8289 24.5614 33.8355 24.6026 33.8715 24.5766C33.9075 24.5506 33.8715 24.5289 33.8573 24.5061C33.5569 23.8871 33.4121 23.2051 33.435 22.5184C33.4558 21.5863 33.7624 20.7983 34.5163 20.2001C34.8879 19.908 35.2787 19.6408 35.686 19.4002C35.7547 19.359 35.8846 19.3438 35.8486 19.2257C35.8224 19.1412 35.7154 19.1455 35.638 19.1368C34.9053 19.0654 34.1986 18.8293 33.5714 18.4464C32.6985 17.9045 31.866 17.3246 31.3608 16.3871C31.0841 15.8776 30.8723 15.3359 30.7302 14.7744C30.7105 14.6953 30.7094 14.576 30.585 14.5858C30.4607 14.5956 30.4399 14.6942 30.4257 14.7939C30.3265 15.3599 30.148 15.9093 29.8955 16.4262C29.2408 17.8872 28.1497 18.8106 26.5381 19.0729C26.0635 19.1498 25.5845 19.2062 25.1087 19.2766C25.04 19.2875 24.9407 19.2918 24.9243 19.3731C24.908 19.4544 24.9985 19.5097 25.0695 19.5454C25.2528 19.6397 25.4492 19.7134 25.6248 19.8196C26.9778 20.6336 27.4372 21.932 27.5583 23.3963C27.5813 23.8694 27.5193 24.3429 27.375 24.7944C27.639 24.621 27.8758 24.4248 28.1257 24.2525C28.5523 23.9501 28.9615 23.612 29.4994 23.5101C30.3856 23.3485 31.2982 23.405 32.1573 23.6748C32.7684 23.8591 33.3019 24.1821 33.8169 24.5451L33.8158 24.5408ZM30.453 13.5085C30.7258 13.8022 30.8164 14.188 31.0269 14.5663C31.029 14.4977 31.0242 14.4291 31.0128 14.3615C30.9364 14.1089 30.848 13.8596 30.776 13.6028C30.7182 13.4023 30.6167 13.386 30.453 13.5085ZM36.405 19.5844C36.7771 19.3568 36.7804 19.1281 36.4334 18.9341C36.2281 18.8235 36.0025 18.755 35.77 18.7325C35.9424 18.8344 36.069 18.9222 36.2064 18.9872C36.6833 19.2181 36.5545 19.2181 36.405 19.5844ZM34.3374 23.4201C34.3025 23.7388 34.1868 24.2731 34.6582 24.75C34.5013 24.3201 34.3936 23.874 34.3374 23.4201ZM29.9522 23.8146C29.5507 23.8222 29.1666 23.9035 28.8502 24.1777L29.9522 23.8146ZM24.3963 19.0935C24.3144 18.9287 23.9489 18.8919 23.8671 19.0143C23.86 19.0262 23.8556 19.0393 23.8541 19.053C23.8526 19.0666 23.854 19.0804 23.8583 19.0935C23.8812 19.1444 23.9238 19.1336 23.9674 19.1173C24.1046 19.0663 24.2542 19.058 24.3963 19.0935ZM26.1671 25.1792C26.0253 25.4035 26.1322 25.6127 26.0962 25.8154C26.2031 25.6279 26.1715 25.4187 26.1671 25.1792ZM24.5927 19.3915C24.6221 19.1878 24.7847 19.1227 24.98 19.0512C24.6352 19.0349 24.5632 19.1032 24.5927 19.3959V19.3915ZM27.5878 18.3077C27.6614 18.2987 27.7317 18.2723 27.793 18.2309C27.8543 18.1894 27.9048 18.134 27.9402 18.0692L27.5878 18.3077ZM31.1099 24.4747C30.9704 24.4202 30.8164 24.4148 30.6734 24.4595C30.8172 24.4869 30.9645 24.492 31.1099 24.4747ZM27.5594 18.3359C27.5048 18.3586 27.4503 18.3532 27.4437 18.4215C27.5005 18.428 27.5387 18.4117 27.5594 18.3359ZM28.7967 24.2037C28.7836 24.1961 28.7727 24.1842 28.7607 24.1842C28.7487 24.1842 28.7356 24.1951 28.7225 24.2016C28.7345 24.2091 28.7465 24.2211 28.7585 24.2211C28.7705 24.2211 28.7836 24.2037 28.7967 24.2037ZM31.9053 16.2809L31.8933 16.2668L31.8802 16.2798L31.8955 16.2918L31.9053 16.2809Z" fill="#181818"/>
<path d="M37.1525 36.591L37.5894 36.3403L37.6134 36.3805L37.194 36.6333L37.1525 36.591Z" fill="#909090"/>
<path d="M37.0555 36.7147C37.01 36.7586 36.9487 36.7828 36.8851 36.7823C36.8916 36.6997 36.96 36.6901 37.0121 36.6665L37.0555 36.7147Z" fill="#909090"/>
<path d="M37.7469 36.2914C37.7284 36.3021 37.7099 36.3193 37.6903 36.3204C37.6707 36.3215 37.6686 36.3043 37.6903 36.2935C37.7077 36.2815 37.7273 36.2731 37.748 36.2688C37.7698 36.2688 37.7698 36.2828 37.7469 36.2914Z" fill="#909090"/>
<path d="M37.19 36.6324C37.1651 36.6463 37.1392 36.6687 37.1176 36.6324C37.1176 36.6271 37.1403 36.6036 37.1521 36.5886L37.19 36.6324Z" fill="#909090"/>
<path d="M37.0128 36.6677C37.0356 36.6677 37.0692 36.6505 37.0801 36.6602C37.1083 36.687 37.0714 36.6998 37.0562 36.7159L37.0128 36.6677Z" fill="#909090"/>
<path d="M36.8473 36.7981L36.8335 36.8253C36.8335 36.8253 36.8197 36.8148 36.8207 36.8117C36.8238 36.8014 36.828 36.7916 36.8335 36.7825L36.8473 36.7981Z" fill="#909090"/>
<path d="M22.7389 38.5037C22.6399 38.7862 22.4922 39.0495 22.3025 39.2819C22.4048 39.0021 22.5522 38.7407 22.7389 38.508V38.5037Z" fill="#909090"/>
<path d="M28.4039 29.3123C28.4049 29.2781 28.4127 29.2444 28.4269 29.2132C28.4411 29.182 28.4614 29.1539 28.4867 29.1306C28.4862 29.1648 28.4787 29.1985 28.4644 29.2296C28.4502 29.2607 28.4296 29.2885 28.4039 29.3113V29.3123Z" fill="#909090"/>
<path d="M28.6864 28.7925C28.6918 28.8003 28.6955 28.8092 28.6973 28.8185C28.699 28.8278 28.6987 28.8374 28.6965 28.8467C28.6942 28.8559 28.69 28.8645 28.6842 28.8721C28.6783 28.8796 28.6709 28.8858 28.6625 28.8903C28.6625 28.8903 28.644 28.8839 28.6342 28.8806L28.6864 28.7925Z" fill="#909090"/>
<path d="M28.5359 29.0907C28.5303 29.0692 28.5316 29.0465 28.5396 29.0257C28.5475 29.0049 28.5619 28.987 28.5806 28.9746C28.6045 29.0294 28.5664 29.0574 28.5327 29.0821L28.5359 29.0907Z" fill="#909090"/>
<path d="M29.0966 28.2275L29.0399 28.307L29.004 28.2748L29.053 28.1909L29.0966 28.2275Z" fill="#909090"/>
<path d="M29.0398 28.3079L28.9843 28.3874L28.9517 28.3573L29.0039 28.2756L29.0398 28.3079Z" fill="#909090"/>
<path d="M28.4847 29.1297C28.4944 29.1075 28.504 29.0863 28.5351 29.0916C28.5265 29.1149 28.519 29.1393 28.4847 29.1297Z" fill="#909090"/>
<path d="M28.4015 29.3083L28.3847 29.337C28.367 29.3073 28.3926 29.3155 28.4045 29.3124L28.4015 29.3083Z" fill="#909090"/>
<path d="M28.3106 29.4398L28.3171 29.4224L28.3079 29.4369L28.3106 29.4398Z" fill="#909090"/>
<path d="M28.3065 29.4385L28.2992 29.4548L28.3092 29.4414L28.3065 29.4385Z" fill="#909090"/>
<path d="M28.9839 28.3878C28.9725 28.401 28.9602 28.4135 28.9472 28.4252C28.9148 28.4028 28.9364 28.3803 28.9472 28.3579L28.9839 28.3878Z" fill="#909090"/>
<path d="M29.0586 28.1906L29.0923 28.1272L29.1381 28.1799L29.1021 28.2272L29.0586 28.1906Z" fill="#909090"/>
<path d="M29.0869 28.1268C29.1064 28.1118 29.1249 28.0796 29.152 28.1107C29.1792 28.1418 29.1466 28.1579 29.1325 28.1793L29.0869 28.1268Z" fill="#909090"/>
<path d="M22.7418 38.5082L22.7576 38.4788L22.7675 38.4981L22.7389 38.5042L22.7418 38.5082Z" fill="#909090"/>
<path d="M32.6451 38.3053C32.6876 38.7128 32.2173 39.0781 31.9129 39.0802C31.4437 39.0802 31.2713 38.7095 31.2583 38.3009C31.2419 37.94 31.5856 37.6322 31.9675 37.6333C32.4279 37.6344 32.6483 37.8512 32.6451 38.3053Z" fill="#F8F2EA"/>
<path d="M31.1765 36.5648C32.0625 36.1573 33.0663 36.4066 33.4777 37.1176C33.8432 37.7505 33.5868 38.8376 32.9376 39.2776C33.3642 38.6165 33.4831 37.9196 33.0696 37.2335C32.6408 36.5258 31.9632 36.3675 31.1765 36.5648Z" fill="#F8F2EA"/>
<path d="M31.9108 37.1738C31.0914 37.1922 30.7771 37.5358 30.7531 38.4408C30.6814 38.3167 30.6455 38.1754 30.6493 38.0324C30.6532 37.8894 30.6966 37.7502 30.775 37.6301C30.8947 37.4429 31.0678 37.2953 31.2721 37.2059C31.4765 37.1166 31.703 37.0896 31.9228 37.1283L31.9108 37.1738Z" fill="#F8F2EA"/>
<path d="M30.6189 39.4282C30.0318 38.8863 29.8442 37.9911 30.2217 37.4622C29.9489 38.1797 30.1999 38.7812 30.6265 39.3448L30.6189 39.4282Z" fill="#F8F2EA"/>
<path d="M30.6189 39.4283L30.6265 39.3447L30.8155 39.5107L30.7795 39.5671L30.6189 39.4283Z" fill="#909090"/>
<path d="M30.8151 39.5105C30.8574 39.5309 30.9312 39.5534 30.8976 39.6037C30.8639 39.6541 30.8173 39.5887 30.7793 39.5662L30.8151 39.5105Z" fill="#909090"/>
<path d="M31.9108 37.1733L31.9227 37.1282C31.9499 37.1196 31.979 37.1185 32.0067 37.1251C32.0345 37.1317 32.0599 37.1458 32.0801 37.1658C32.0267 37.1895 31.9661 37.1922 31.9108 37.1733Z" fill="#909090"/>
<path d="M32.8958 39.2861C32.912 39.2925 32.9293 39.2936 32.9326 39.3011C32.9455 39.3256 32.9261 39.3384 32.9055 39.3406C32.885 39.3427 32.8818 39.332 32.8699 39.3278L32.8958 39.2861Z" fill="#F8F2EA"/>
<path d="M30.9632 39.6509L30.9353 39.6349C30.9407 39.6349 30.946 39.6211 30.9492 39.6221C30.9597 39.6253 30.9697 39.6296 30.9792 39.6349L30.9632 39.6509Z" fill="#909090"/>
<path d="M22.0263 43.0439L22.6581 43.4211C22.4179 43.359 22.1908 43.2552 21.9871 43.1144L22.0263 43.0439Z" fill="#909090"/>
<path d="M22.7199 43.4688C22.7242 43.4738 22.7288 43.4786 22.7337 43.4831C22.7287 43.4831 22.7228 43.4943 22.7189 43.4943C22.7149 43.4943 22.71 43.4861 22.7051 43.481L22.7199 43.4688Z" fill="#909090"/>
<path d="M22.7935 43.5267L22.8067 43.5217V43.5336L22.7935 43.5267Z" fill="#909090"/>
<path d="M49.4559 29.9761C48.9845 29.9664 48.6833 29.6694 48.6833 29.2305C48.6833 28.7319 49.074 28.5802 49.5039 28.565C49.9523 28.5552 50.2142 28.7893 50.2065 29.1503C50.1956 29.6076 49.853 29.9848 49.4559 29.9761Z" fill="#F8F2EA"/>
<path d="M49.9294 31.1403C50.2159 31.1029 50.4872 30.9901 50.7151 30.8137C50.943 30.6372 51.1193 30.4035 51.2257 30.1366C51.4603 29.5947 51.4439 29.043 51.2781 28.4849C51.6829 29.0528 51.6949 29.6554 51.3872 30.2472C51.0838 30.8151 50.6158 31.1619 49.9294 31.1403Z" fill="#F8F2EA"/>
<path d="M50.3353 29.7831C50.7357 29.0103 50.4291 28.4012 49.5453 28.2657C49.7095 28.2219 49.8806 28.2097 50.0494 28.23C50.3767 28.2733 50.5251 28.4045 50.5949 28.7188C50.6666 29.0603 50.6091 29.416 50.4335 29.7181C50.4188 29.7431 50.3996 29.7651 50.3767 29.7831C50.3636 29.7939 50.344 29.7853 50.3353 29.7831Z" fill="#F8F2EA"/>
<path d="M40.0003 56.8409L40.3571 57.087L40.3462 57.1184C40.1192 57.0577 39.8934 56.9938 39.6653 56.9385C38.6724 56.699 37.7242 56.7347 36.8797 57.3948C36.6528 57.5714 36.4226 57.7459 36.1912 57.9172C36.0753 58.009 35.9515 58.0906 35.8214 58.1611C35.5671 58.2889 35.3849 58.1881 35.3456 57.9064C35.3304 57.6999 35.3488 57.4924 35.4002 57.2918C35.4624 56.9363 35.5093 56.5797 35.5508 56.221C35.5801 55.9127 35.5628 55.6018 35.4995 55.2986C35.4362 54.9611 35.3029 54.6404 35.1081 54.3567C34.9133 54.0731 34.6613 53.8329 34.368 53.6512C34.1214 53.4887 33.8879 53.3066 33.6555 53.1234C33.5016 53.0009 33.3685 52.8524 33.4373 52.6335C33.506 52.4146 33.6926 52.3756 33.8737 52.3528C34.5636 52.2639 35.2467 52.1292 35.9185 51.9496C36.4903 51.8007 36.9933 51.4613 37.3435 50.9883C37.7633 50.4078 38.0715 49.7552 38.2523 49.0634C38.2981 48.9004 38.3637 48.7435 38.4477 48.5962C38.5884 48.3524 38.8306 48.3307 39.0063 48.5496C39.1566 48.7504 39.2741 48.9736 39.3544 49.2108C39.6408 49.9971 40.1236 50.6982 40.7575 51.2484C41.4406 51.8282 42.2033 52.2477 43.146 52.2238C43.3327 52.2158 43.5188 52.2483 43.6915 52.3192C43.763 52.34 43.8266 52.3814 43.8744 52.4381C43.9222 52.4948 43.952 52.5643 43.96 52.6378C43.9732 52.7147 43.9615 52.7939 43.9263 52.8637C43.8912 52.9334 43.8346 52.9903 43.7646 53.0259C43.3413 53.2543 42.9376 53.5171 42.5579 53.8116C42.1629 54.114 41.8225 54.4858 41.7134 54.9702C41.5794 55.5281 41.6323 56.1141 41.8639 56.6393C42.0202 56.9811 42.1253 57.3437 42.176 57.7156C42.2142 58.0104 42.1367 58.0841 41.8487 58.0245C41.7326 57.9987 41.6243 57.9464 41.5322 57.8717C41.1998 57.6137 40.8677 57.3543 40.536 57.0935C40.3835 56.963 40.1985 56.8758 40.0003 56.8409ZM37.111 51.7621L37.0641 51.8044L36.9616 51.8857C36.9488 51.8896 36.9377 51.8976 36.9299 51.9084L36.8437 51.9832L36.7128 52.0742L36.6571 52.1046C36.6342 52.1252 36.5688 52.1263 36.6059 52.1729C36.643 52.2195 36.6681 52.1729 36.691 52.1414L36.7455 52.1165L36.8808 52.0222L36.9561 51.9626L37.0063 51.9236L37.1154 51.8434L37.1678 51.7957C37.1727 51.7944 37.1772 51.7919 37.181 51.7885C37.1848 51.7851 37.1877 51.7809 37.1896 51.7762L37.2682 51.6971L37.2769 51.6895L37.3315 51.632L37.3751 51.58L37.4198 51.5367C37.434 51.5182 37.4667 51.5009 37.4406 51.4738C37.4144 51.4467 37.398 51.4738 37.3838 51.4976C37.3696 51.5215 37.3533 51.5258 37.3391 51.541L37.2965 51.5865L37.2507 51.631L37.2071 51.6754L37.1634 51.7198L37.111 51.7621ZM39.7035 50.7574L39.7155 50.7682C39.7184 50.7691 39.7214 50.7691 39.7243 50.7682L39.7003 50.7585C39.7003 50.7205 39.7003 50.6848 39.661 50.6674C39.6544 50.6425 39.6512 50.6176 39.6151 50.623C39.6151 50.584 39.6151 50.5482 39.5715 50.5352L39.5595 50.4962L39.541 50.5168L39.5748 50.5309C39.5748 50.5699 39.5748 50.6035 39.6184 50.6197C39.6184 50.6479 39.6315 50.6664 39.6642 50.6631C39.6611 50.6809 39.6632 50.6992 39.6701 50.7159C39.6771 50.7326 39.6887 50.747 39.7035 50.7574ZM36.5208 56.7185C36.6441 56.6253 36.7673 56.531 36.8917 56.4388C37.2551 56.1722 37.6064 55.8742 38.0745 55.8113C39.0172 55.6867 39.9054 55.8395 40.715 56.3532C40.8175 56.4183 40.9179 56.4844 41.0194 56.5505C40.9452 56.2535 40.8285 55.9847 40.8012 55.691C40.7281 54.954 40.7586 54.2441 41.3326 53.6751C41.5996 53.4196 41.8954 53.1955 42.2142 53.0074C42.3091 52.9489 42.4913 52.9175 42.4673 52.8015C42.4433 52.6855 42.2611 52.7332 42.152 52.7083C40.9387 52.4612 39.9818 51.8412 39.3151 50.7975C39.0986 50.4447 38.9447 50.0575 38.8601 49.653C38.8459 49.5923 38.8372 49.5001 38.7564 49.5012C38.6757 49.5023 38.6473 49.5793 38.6353 49.6595C38.5537 50.0939 38.4104 50.5147 38.2098 50.9091C37.7537 51.8597 37.0259 52.4742 35.9676 52.6639C35.625 52.7245 35.2791 52.7636 34.9354 52.8188C34.8623 52.8308 34.7444 52.8123 34.7357 52.9121C34.727 53.0118 34.8372 53.0204 34.9103 53.0562C35.2329 53.1895 35.5247 53.387 35.7675 53.6366C36.0104 53.8862 36.1991 54.1826 36.3222 54.5075C36.5993 55.2119 36.6953 55.9273 36.4924 56.6675C36.4866 56.6705 36.4816 56.6747 36.4776 56.6798C36.4736 56.6849 36.4708 56.6908 36.4693 56.6971C36.4679 56.7034 36.4678 56.7099 36.4692 56.7162C36.4705 56.7225 36.4732 56.7285 36.4771 56.7336C36.4771 56.7336 36.5033 56.7271 36.5208 56.7185ZM41.6599 53.9135C41.4298 54.0961 41.2478 54.3315 41.1296 54.5994C41.0114 54.8673 40.9605 55.1597 40.9812 55.4515C41.026 54.864 41.302 54.3752 41.6599 53.9168V53.9135ZM41.5628 56.5743C41.494 56.3175 41.4537 56.0595 41.41 55.8015L41.398 55.8081C41.4002 56.0801 41.3129 56.3662 41.5628 56.5776V56.5743ZM38.3887 56.6361C38.8252 56.5505 39.2169 56.6263 39.6097 56.6675C39.2213 56.5201 38.8306 56.4074 38.3887 56.6393V56.6361ZM38.9878 49.3679C38.9896 49.1466 38.9391 48.928 38.8405 48.7295C38.8154 48.6634 38.7477 48.6688 38.6921 48.7079C38.6364 48.7469 38.6855 48.7805 38.7084 48.8097C38.822 48.985 38.9157 49.1722 38.9878 49.3679ZM38.1683 56.0985C38.0577 56.0827 37.9449 56.0918 37.8382 56.125C37.7315 56.1582 37.6337 56.2147 37.5519 56.2904L38.1683 56.0985ZM34.3745 52.6834C34.2425 52.5251 34.1149 52.5815 33.9916 52.6183C33.9844 52.6204 33.9778 52.6239 33.972 52.6286C33.9663 52.6334 33.9616 52.6392 33.9582 52.6458C33.9548 52.6524 33.9529 52.6596 33.9524 52.667C33.9519 52.6744 33.953 52.6818 33.9556 52.6888C33.9665 52.7332 33.997 52.7386 34.0396 52.7311C34.1421 52.7137 34.2436 52.7018 34.3767 52.6834H34.3745ZM34.7564 52.6834C34.5077 52.6541 34.4651 52.692 34.4706 52.9597C34.4926 52.8938 34.5302 52.834 34.5804 52.7856C34.6305 52.7371 34.6916 52.7013 34.7586 52.6812L34.7564 52.6834ZM39.9698 56.8269L39.9861 56.7662C39.877 56.7434 39.7919 56.6578 39.6141 56.6935L39.9698 56.8269ZM39.4657 50.3477L39.4722 50.3347H39.4613L39.4657 50.3477ZM39.5224 50.4257L39.5104 50.4117C39.5104 50.4117 39.4995 50.4192 39.4995 50.4236C39.4995 50.4279 39.506 50.4322 39.5093 50.4377L39.5224 50.4257Z" fill="#181818"/>
<path d="M45.279 19.6385C44.8251 19.6244 44.5491 19.4098 44.4171 19.0239C44.333 18.7779 44.2894 18.521 44.4814 18.2371C44.4542 18.8689 44.6909 19.2765 45.279 19.6385Z" fill="#F8F2EA"/>
<path d="M45.7439 18.3401C45.841 18.365 45.9971 18.3401 46.0167 18.5081C46.0363 18.6761 45.7745 18.9492 45.6348 18.9416C45.4951 18.934 45.3151 18.7249 45.3227 18.585C45.3293 18.4647 45.5344 18.339 45.7439 18.3401Z" fill="#F8F2EA"/>
<path d="M45.0051 18.921C44.6123 18.4712 44.8098 18.0366 45.2834 17.9456C45.1353 18.0589 45.026 18.2148 44.9702 18.3921C44.9462 18.5689 44.9581 18.7488 45.0051 18.921Z" fill="#F8F2EA"/>
<path d="M46.861 21.3184C46.8763 21.356 46.9111 21.4065 46.8675 21.4259C46.824 21.4452 46.824 21.3893 46.8142 21.3592L46.861 21.3184Z" fill="#909090"/>
<path d="M46.8142 21.3619C46.7892 21.3286 46.7532 21.2845 46.7989 21.2544C46.8447 21.2243 46.8512 21.2834 46.861 21.3167L46.8142 21.3619Z" fill="#909090"/>
<path d="M46.7477 21.1993L46.7614 21.1711C46.7663 21.1711 46.7752 21.1816 46.7742 21.1858C46.7712 21.1957 46.7669 21.2052 46.7614 21.2139L46.7477 21.1993Z" fill="#909090"/>
<path d="M39.4099 42.2517L39.4622 42.2893L39.4175 42.3334L39.3707 42.3022L39.4099 42.2517Z" fill="#909090"/>
<path d="M39.4622 42.2896L39.509 42.3315L39.4731 42.3648L39.4176 42.3336L39.4622 42.2896Z" fill="#909090"/>
<path d="M39.5328 42.4001L39.4788 42.3649L39.5144 42.3318L39.549 42.3788L39.5328 42.4001Z" fill="#909090"/>
<path d="M39.5439 42.3794C39.5519 42.3927 39.559 42.4065 39.5653 42.4207C39.5428 42.4355 39.5343 42.4207 39.5278 42.4006L39.5439 42.3794Z" fill="#909090"/>
<path d="M20.6778 41.4138C20.9375 41.4138 21.0892 41.5038 21.0914 41.6642C21.0914 41.9698 20.8841 42.2625 20.6604 42.2603C20.4531 42.2603 20.2479 42.0153 20.2436 41.7671C20.2403 41.5851 20.4487 41.4149 20.6778 41.4138Z" fill="#F8F2EA"/>
<path d="M19.8496 41.3281C19.7414 41.5323 19.6923 41.7623 19.7078 41.9925C19.5659 41.6945 19.6172 41.494 19.8496 41.3281Z" fill="#909090"/>
<path d="M19.9422 41.2671C19.9239 41.2842 19.9038 41.2993 19.8823 41.3123C19.878 41.3143 19.8731 41.3151 19.8684 41.3145C19.8636 41.3139 19.8591 41.3119 19.8554 41.3089C19.8518 41.3058 19.8491 41.3018 19.8477 41.2972C19.8463 41.2927 19.8462 41.2878 19.8475 41.2833C19.8601 41.2585 19.8798 41.238 19.9041 41.2241C19.9335 41.208 19.9302 41.2392 19.9422 41.2671Z" fill="#909090"/>
<path d="M41.4837 43.6043C41.4553 43.7464 41.4542 43.9298 41.2554 43.9428C41.2234 43.9441 41.1915 43.939 41.1616 43.9275C41.1317 43.9161 41.1045 43.8988 41.0817 43.8765C41.0588 43.8542 41.0409 43.8275 41.0288 43.798C41.0168 43.7686 41.011 43.737 41.0118 43.7052C41.0118 43.5316 41.1658 43.473 41.3231 43.46C41.4181 43.4546 41.5121 43.4611 41.4837 43.6043Z" fill="#F8F2EA"/>
<path d="M40.6714 43.93C40.5217 43.6815 40.5228 43.6435 40.6921 43.4385C40.6477 43.5986 40.6406 43.7667 40.6714 43.93Z" fill="#F8F2EA"/>
<path d="M33.8169 24.545C33.3019 24.1819 32.7662 23.8589 32.1573 23.6779C31.2971 23.4063 30.3829 23.3487 29.495 23.5099C28.9571 23.6118 28.548 23.95 28.1213 24.2524C27.8715 24.429 27.6347 24.6252 27.3706 24.7943C27.5149 24.3428 27.577 23.8693 27.5539 23.3961C27.4328 21.9275 26.9735 20.6291 25.6205 19.8195C25.4448 19.7111 25.2484 19.6396 25.0651 19.5453C24.9942 19.5095 24.9004 19.4683 24.92 19.3729C24.9396 19.2776 25.0357 19.2873 25.1044 19.2765C25.5801 19.206 26.0591 19.1497 26.5338 19.0727C28.1464 18.8104 29.2375 17.887 29.8911 16.426C30.1437 15.9092 30.3222 15.3597 30.4214 14.7938C30.4356 14.693 30.4639 14.5943 30.5807 14.5857C30.6974 14.577 30.7062 14.694 30.7258 14.7742C30.8678 15.3376 31.0801 15.8812 31.3576 16.3924C31.8627 17.3288 32.6985 17.9098 33.5682 18.4517C34.1953 18.8346 34.902 19.0707 35.6347 19.1421C35.7122 19.1508 35.8191 19.1421 35.8453 19.231C35.8813 19.3491 35.7515 19.3643 35.6827 19.4055C35.2758 19.6457 34.8854 19.9126 34.5141 20.2042C33.7624 20.8025 33.4536 21.5905 33.4329 22.5226C33.4113 23.2097 33.5576 23.8917 33.8595 24.5103L33.8169 24.545ZM30.5305 21.6241C31.3183 21.6327 31.9708 20.964 31.9948 20.123C31.9956 19.762 31.8525 19.4154 31.5967 19.159C31.3408 18.9027 30.9932 18.7575 30.6298 18.7552C29.7569 18.7411 29.0728 19.3253 29.0608 20.0991C29.0585 20.4931 29.2106 20.8725 29.4849 21.1571C29.7592 21.4417 30.1341 21.6092 30.5305 21.6241Z" fill="#F8F2EA"/>
<path d="M34.8164 20.693C34.5654 21.0464 34.2773 21.3759 34.082 21.7671C33.8835 22.1642 33.78 22.6016 33.7798 23.045C33.7438 23.0116 33.7174 22.9693 33.7034 22.9224C33.6894 22.8755 33.6883 22.8258 33.7002 22.7783C33.7536 21.9113 34.1366 21.2165 34.7825 20.6519L34.8164 20.693Z" fill="#F8F2EA"/>
<path d="M34.405 18.3769C33.7231 18.0323 33.076 17.641 32.597 17.0254C33.1961 17.4784 33.8344 17.8762 34.4323 18.326L34.405 18.3769Z" fill="#F8F2EA"/>
<path d="M30.453 13.5084C30.6167 13.3859 30.7181 13.4 30.7803 13.6059C30.8523 13.8596 30.9407 14.1088 31.0171 14.3646C31.0286 14.4323 31.0334 14.5009 31.0313 14.5695C30.8163 14.188 30.7258 13.7989 30.453 13.5084Z" fill="#F8F2EA"/>
<path d="M36.405 19.5844C36.5545 19.2213 36.6833 19.2127 36.2065 18.9861C36.069 18.9211 35.9424 18.8333 35.77 18.7314C36.0025 18.7539 36.2281 18.8224 36.4334 18.933C36.7804 19.1281 36.7771 19.3568 36.405 19.5844Z" fill="#F8F2EA"/>
<path d="M34.3375 23.4199C34.3941 23.8723 34.5017 24.3169 34.6582 24.7454C34.1869 24.2729 34.3025 23.7386 34.3375 23.4199Z" fill="#F8F2EA"/>
<path d="M29.9522 23.8145L28.8502 24.1775C29.1677 23.9033 29.5507 23.822 29.9522 23.8145Z" fill="#F8F2EA"/>
<path d="M24.3968 19.0935C24.255 19.0582 24.1057 19.0665 23.9687 19.1173C23.9239 19.1336 23.8813 19.1445 23.8594 19.0935C23.8551 19.0804 23.8537 19.0666 23.8552 19.0529C23.8567 19.0393 23.8611 19.0261 23.8682 19.0143C23.949 18.8927 24.3149 18.9285 24.3968 19.0935Z" fill="#F8F2EA"/>
<path d="M28.6221 17.5066C28.457 17.7396 28.2357 17.9278 27.9784 18.0539L28.5949 17.4773L28.6221 17.5066Z" fill="#F8F2EA"/>
<path d="M26.1672 25.179C26.1672 25.4141 26.2032 25.6233 26.0963 25.8152C26.1323 25.6201 26.0253 25.4076 26.1672 25.179Z" fill="#909090"/>
<path d="M24.5926 19.3961C24.5632 19.1031 24.6352 19.0348 24.9804 19.0554C24.7849 19.127 24.6221 19.1921 24.5926 19.3961Z" fill="#F8F2EA"/>
<path d="M26.6745 23.8181C26.6669 23.7096 26.6625 23.6011 26.6494 23.4926C26.6494 23.4622 26.6079 23.4307 26.6658 23.4134C26.7237 23.396 26.7368 23.4394 26.7379 23.4709C26.7444 23.5859 26.7379 23.7031 26.7379 23.8192L26.6745 23.8181Z" fill="#F8F2EA"/>
<path d="M27.5878 18.3068L27.9406 18.0681C27.9051 18.1329 27.8546 18.1884 27.7933 18.2299C27.7319 18.2714 27.6615 18.2978 27.5878 18.3068Z" fill="#F8F2EA"/>
<path d="M31.1104 24.4744C30.9648 24.4917 30.8174 24.4866 30.6735 24.4593C30.8166 24.4148 30.9708 24.4202 31.1104 24.4744Z" fill="#909090"/>
<path d="M26.6746 23.8179H26.7412C26.7587 23.943 26.7354 24.0704 26.6746 24.1813V23.8179Z" fill="#909090"/>
<path d="M25.8556 18.3835C25.7147 18.4688 25.5519 18.4666 25.3936 18.499C25.5401 18.4337 25.6974 18.395 25.8578 18.3846L25.8556 18.3835Z" fill="#909090"/>
<path d="M34.5972 18.4182C34.6895 18.4389 34.7742 18.4844 34.8418 18.5498C34.7195 18.5779 34.6441 18.4937 34.5546 18.4571L34.5972 18.4182Z" fill="#909090"/>
<path d="M31.6042 15.7756C31.6828 15.8245 31.6938 15.9134 31.7276 15.9926C31.6867 15.9738 31.6526 15.9428 31.6301 15.9039C31.6077 15.8651 31.5978 15.8203 31.602 15.7756H31.6042Z" fill="#909090"/>
<path d="M34.5586 18.4583L34.405 18.3766L34.4323 18.3303C34.4946 18.339 34.5516 18.37 34.5923 18.4174L34.5586 18.4583Z" fill="#909090"/>
<path d="M31.7863 16.075C31.8103 16.0922 31.8305 16.1141 31.8457 16.1394C31.8608 16.1646 31.8705 16.1927 31.8742 16.2218C31.8459 16.2134 31.8203 16.1978 31.8001 16.1766C31.7799 16.1553 31.7658 16.1291 31.7592 16.1007L31.7863 16.075Z" fill="#909090"/>
<path d="M29.1737 16.8125C29.1672 16.8409 29.1548 16.8675 29.1372 16.8908C29.1196 16.914 29.0973 16.9334 29.0717 16.9476C29.0467 16.8618 29.102 16.8254 29.1454 16.7847L29.1737 16.8125Z" fill="#909090"/>
<path d="M26.1385 21.3369C26.1776 21.3691 26.2297 21.4269 26.1841 21.4548C26.1146 21.4988 26.1276 21.3991 26.0951 21.3701L26.1385 21.3369Z" fill="#909090"/>
<path d="M27.5591 18.3357C27.5384 18.4109 27.5003 18.4271 27.4437 18.4206C27.4524 18.3507 27.5047 18.3583 27.5591 18.3357Z" fill="#F8F2EA"/>
<path d="M33.7065 25.6711L33.8085 25.7451L33.7749 25.7805L33.6664 25.7087L33.7065 25.6711Z" fill="#909090"/>
<path d="M33.596 25.6481L33.494 25.5741L33.5298 25.5366L33.6383 25.6106L33.596 25.6481Z" fill="#909090"/>
<path d="M28.9615 17.0429C28.9789 17 28.9995 16.9282 29.0516 16.9678C29.1037 17.0075 29.0288 17.045 29.0006 17.0804L28.9615 17.0429Z" fill="#909090"/>
<path d="M28.9414 17.1582C28.9283 17.1947 28.9186 17.2343 28.8687 17.2386C28.8491 17.2386 28.8404 17.229 28.8415 17.2108C28.8415 17.1615 28.8784 17.1411 28.9055 17.1111L28.9414 17.1582Z" fill="#909090"/>
<path d="M33.4229 25.5157C33.3946 25.5092 33.362 25.492 33.3816 25.4641C33.4012 25.4361 33.4382 25.4555 33.4632 25.478L33.4229 25.5157Z" fill="#909090"/>
<path d="M28.8139 17.2995C28.7911 17.3264 28.7693 17.3532 28.7454 17.378C28.7454 17.378 28.7149 17.3672 28.716 17.3651C28.7196 17.3444 28.7293 17.3253 28.7438 17.31C28.7583 17.2947 28.777 17.284 28.7976 17.2791L28.8139 17.2995Z" fill="#F8F2EA"/>
<path d="M34.7826 20.6509C34.8271 20.6274 34.8434 20.5137 34.9248 20.607H34.9182L34.8162 20.6927L34.7826 20.6509Z" fill="#F8F2EA"/>
<path d="M34.9255 20.6068C34.8656 20.6068 34.8787 20.5681 34.9015 20.539C34.9244 20.51 34.9385 20.5229 34.957 20.5154C34.944 20.5455 34.9298 20.5745 34.9178 20.6057L34.9255 20.6068Z" fill="#F8F2EA"/>
<path d="M33.6662 25.7083L33.5966 25.6492L33.6401 25.6116L33.7065 25.6707L33.6662 25.7083Z" fill="#909090"/>
<path d="M28.796 24.2033C28.7831 24.2097 28.7701 24.2214 28.7582 24.2204C28.7463 24.2193 28.7344 24.2086 28.7225 24.2012C28.7355 24.1948 28.7485 24.1841 28.7604 24.1841C28.7723 24.1841 28.7831 24.1937 28.796 24.2033Z" fill="#F8F2EA"/>
<path d="M26.0721 21.3122L26.0177 21.2348L26.0482 21.2058L26.1102 21.2811L26.0721 21.3122Z" fill="#909090"/>
<path d="M25.986 21.1777L25.9326 21.1025L25.9533 21.0767L26.0208 21.1476L25.986 21.1777Z" fill="#909090"/>
<path d="M29.0006 17.0813L28.9418 17.1555L28.9059 17.1082L28.9614 17.0437L29.0006 17.0813Z" fill="#909090"/>
<path d="M25.9323 21.102L25.8737 21.057C25.9084 21.0302 25.9344 21.0409 25.9529 21.0763L25.9323 21.102Z" fill="#909090"/>
<path d="M33.8092 25.7458C33.8254 25.7641 33.871 25.7726 33.845 25.8037C33.8189 25.8348 33.7929 25.8037 33.7755 25.7812L33.8092 25.7458Z" fill="#909090"/>
<path d="M33.4938 25.574L33.4187 25.5159L33.459 25.4783L33.5297 25.5363L33.4938 25.574Z" fill="#909090"/>
<path d="M25.8571 18.3839C25.8621 18.385 25.8673 18.385 25.8723 18.3839C25.8723 18.3839 25.8723 18.3778 25.8774 18.3738L25.8551 18.3839H25.8571Z" fill="#909090"/>
<path d="M33.8592 24.5103C33.869 24.5328 33.9048 24.5563 33.8733 24.5799C33.8419 24.6035 33.831 24.5649 33.818 24.5446L33.8592 24.5103Z" fill="#F8F2EA"/>
<path d="M31.5979 15.7743L31.5692 15.7591L31.5864 15.7378C31.5864 15.75 31.595 15.7611 31.5998 15.7733L31.5979 15.7743Z" fill="#909090"/>
<path d="M31.76 16.1041C31.7416 16.0838 31.7233 16.0625 31.7535 16.0369L31.786 16.0742L31.76 16.1041Z" fill="#909090"/>
<path d="M31.9026 16.28L31.8937 16.2902L31.877 16.2769L31.8888 16.2646L31.9026 16.28Z" fill="#909090"/>
<path d="M26.1126 21.2773L26.1409 21.3322L26.0973 21.3655L26.0745 21.3085L26.1126 21.2773Z" fill="#909090"/>
<path d="M29.1459 16.784C29.1534 16.765 29.163 16.7439 29.1865 16.7608C29.1865 16.7608 29.1779 16.7935 29.1736 16.8104L29.1459 16.784Z" fill="#909090"/>
<path d="M28.8686 17.2377L28.8142 17.2989L28.7979 17.2785C28.812 17.2559 28.8262 17.2323 28.8414 17.2097C28.8403 17.228 28.849 17.2377 28.8686 17.2377Z" fill="#F8F2EA"/>
<path d="M28.6695 17.4606L28.6252 17.5055L28.5981 17.4766L28.6435 17.4329C28.6513 17.4429 28.66 17.4521 28.6695 17.4606Z" fill="#F8F2EA"/>
<path d="M26.0177 21.2342L25.9861 21.1783L26.0209 21.1482C26.0296 21.1675 26.0394 21.1858 26.0481 21.2052L26.0177 21.2342Z" fill="#909090"/>
<path d="M28.6439 17.4324C28.6612 17.4186 28.6753 17.3801 28.7012 17.41C28.7272 17.4399 28.6904 17.4495 28.6699 17.4602C28.6604 17.4517 28.6517 17.4424 28.6439 17.4324Z" fill="#F8F2EA"/>
<path d="M36.4858 56.6697C36.6888 55.9295 36.5949 55.2141 36.3156 54.5096C36.1926 54.1848 36.0038 53.8884 35.761 53.6388C35.5181 53.3892 35.2264 53.1917 34.9037 53.0584C34.8306 53.0259 34.7215 53.0053 34.7291 52.9142C34.7368 52.8232 34.8557 52.833 34.9288 52.821C35.2725 52.7658 35.6184 52.7267 35.961 52.666C37.0194 52.4764 37.7472 51.8618 38.2032 50.9113C38.4039 50.5169 38.5471 50.0961 38.6288 49.6617C38.6419 49.5815 38.6648 49.5045 38.7499 49.5034C38.835 49.5023 38.8394 49.5945 38.8535 49.6552C38.9381 50.0597 39.092 50.4469 39.3085 50.7997C39.9763 51.8391 40.9332 52.4634 42.1454 52.7105C42.2545 52.7332 42.4389 52.6921 42.464 52.8069C42.4891 52.9218 42.3058 52.9543 42.2109 53.0129C41.8921 53.201 41.5963 53.425 41.3293 53.6805C40.7553 54.2495 40.7248 54.9594 40.7979 55.6964C40.8274 55.9902 40.9441 56.259 41.0161 56.5559C40.9147 56.4898 40.8143 56.4237 40.7117 56.3587C39.9021 55.8428 39.0139 55.6899 38.0712 55.8167C37.6031 55.8796 37.2518 56.1777 36.8885 56.4443C36.7641 56.5364 36.6408 56.6307 36.5175 56.7239L36.4858 56.6697ZM38.751 52.4612C38.14 52.4547 37.6599 52.8861 37.6599 53.4453C37.6599 53.9872 38.153 54.4923 38.6866 54.5021C39.2616 54.5129 39.7461 54.0154 39.745 53.4182C39.7401 53.1607 39.6328 52.9155 39.4466 52.7362C39.2604 52.5569 39.0103 52.458 38.751 52.4612Z" fill="#F8F2EA"/>
<path d="M41.6599 53.917C41.302 54.3755 41.0259 54.8643 40.9812 55.4549C40.9605 55.1632 41.0114 54.8707 41.1296 54.6028C41.2478 54.3349 41.4298 54.0996 41.6599 53.917Z" fill="#F8F2EA"/>
<path d="M41.5628 56.5777C41.3129 56.3664 41.4002 56.0802 41.398 55.8114L41.41 55.8049C41.4526 56.0683 41.4973 56.3208 41.5628 56.5777Z" fill="#F8F2EA"/>
<path d="M38.3887 56.6387C38.8306 56.4081 39.2212 56.5202 39.6096 56.67C39.2168 56.629 38.8251 56.5536 38.3887 56.6387Z" fill="#F8F2EA"/>
<path d="M38.9878 49.3681C38.9157 49.1724 38.822 48.9852 38.7084 48.8099C38.6855 48.7807 38.6299 48.7514 38.6921 48.7081C38.7543 48.6647 38.8154 48.6636 38.8405 48.7297C38.9391 48.9282 38.9896 49.1468 38.9878 49.3681Z" fill="#F8F2EA"/>
<path d="M38.1704 56.0986L37.554 56.2904C37.6358 56.2148 37.7336 56.1583 37.8403 56.1251C37.947 56.0919 38.0598 56.0828 38.1704 56.0986Z" fill="#F8F2EA"/>
<path d="M34.3772 52.6831C34.2439 52.7014 34.1423 52.7133 34.0418 52.7306C33.9992 52.7381 33.9686 52.7306 33.9577 52.6885C33.9552 52.6816 33.9541 52.6742 33.9546 52.6668C33.955 52.6595 33.957 52.6523 33.9604 52.6457C33.9638 52.6392 33.9685 52.6333 33.9742 52.6286C33.9799 52.6239 33.9866 52.6204 33.9938 52.6184C34.1172 52.5817 34.245 52.5256 34.3772 52.6831Z" fill="#909090"/>
<path d="M34.7589 52.6814C34.6925 52.7016 34.6319 52.7373 34.5821 52.7854C34.5323 52.8335 34.4948 52.8927 34.4727 52.9581C34.4672 52.6901 34.5142 52.6521 34.7589 52.6814Z" fill="#909090"/>
<path d="M39.9701 56.8263L39.614 56.6936C39.7921 56.658 39.8794 56.7433 39.9865 56.7659L39.9701 56.8263Z" fill="#F8F2EA"/>
<path d="M36.8799 52.022L36.7453 52.1152L36.7128 52.0734L36.843 51.9834L36.8799 52.022Z" fill="#909090"/>
<path d="M36.9615 51.8848L37.0636 51.8044L37.1091 51.843L37.0006 51.9223L36.9615 51.8848Z" fill="#909090"/>
<path d="M39.6183 50.6236C39.5769 50.6074 39.5704 50.5741 39.5748 50.5354C39.6216 50.5483 39.6227 50.5838 39.6183 50.6225V50.6236Z" fill="#909090"/>
<path d="M39.7034 50.7567C39.6889 50.7465 39.6776 50.7326 39.6707 50.7165C39.6638 50.7003 39.6615 50.6826 39.6642 50.6653C39.7066 50.6825 39.7077 50.718 39.7034 50.7556V50.7567Z" fill="#909090"/>
<path d="M36.9557 51.9622L36.8806 52.0213L36.8436 51.9826L36.9296 51.9084L36.9557 51.9622Z" fill="#909090"/>
<path d="M36.6962 52.1413C36.6734 52.1692 36.6374 52.2058 36.6113 52.1725C36.5852 52.1391 36.6396 52.1252 36.6625 52.1047L36.6962 52.1413Z" fill="#909090"/>
<path d="M39.4597 50.3494L39.4569 50.3369L39.4653 50.3379L39.4597 50.3494Z" fill="#909090"/>
<path d="M39.5149 50.4319L39.503 50.4435C39.503 50.4382 39.494 50.434 39.494 50.4298C39.494 50.4256 39.501 50.4214 39.504 50.4182L39.5149 50.4319Z" fill="#909090"/>
<path d="M39.5705 50.5386L39.5409 50.5254L39.5571 50.5061L39.5677 50.5427L39.5705 50.5386Z" fill="#909090"/>
<path d="M39.6151 50.6274C39.6505 50.6221 39.6537 50.6465 39.6601 50.6708C39.628 50.6708 39.6173 50.656 39.6151 50.6285V50.6274Z" fill="#909090"/>
<path d="M39.7002 50.7627L39.7225 50.7719C39.7199 50.7727 39.717 50.7727 39.7144 50.7719L39.7032 50.7617L39.7002 50.7627Z" fill="#909090"/>
<path d="M37.3783 51.4972C37.3923 51.478 37.4053 51.446 37.4345 51.4737C37.4637 51.5015 37.428 51.5175 37.414 51.5357L37.3783 51.4972Z" fill="#909090"/>
<path d="M37.3336 51.5407L37.3781 51.4978L37.4139 51.5364L37.3694 51.5793L37.3336 51.5407Z" fill="#909090"/>
<path d="M37.3694 51.5797L37.3258 51.6313L37.291 51.5862L37.3335 51.541L37.3694 51.5797Z" fill="#909090"/>
<path d="M37.3258 51.6318C37.3073 51.6512 37.2888 51.6695 37.2714 51.6888C37.2627 51.6684 37.2539 51.6501 37.2452 51.6307L37.291 51.5867L37.3258 51.6318Z" fill="#909090"/>
<path d="M37.2625 51.697L37.1841 51.7755L37.158 51.7196L37.2015 51.6755L37.2625 51.697Z" fill="#909090"/>
<path d="M37.0641 51.8041L37.1109 51.7622L37.1631 51.7955L37.1098 51.8428L37.0641 51.8041Z" fill="#909090"/>
<path d="M37.0059 51.9233L36.956 51.9618L36.9299 51.9082C36.9376 51.8975 36.9487 51.8896 36.9614 51.8857L37.0059 51.9233Z" fill="#909090"/>
<path d="M36.7453 52.1164L36.6908 52.1411L36.6571 52.1046L36.7126 52.0745L36.7453 52.1164Z" fill="#909090"/>
<path d="M37.2015 51.6749L37.2448 51.6311C37.2534 51.6503 37.2621 51.6685 37.2707 51.6888L37.2621 51.6962L37.2015 51.6749Z" fill="#909090"/>
<path d="M36.5201 56.7178C36.5028 56.7231 36.4736 56.737 36.4704 56.7316C36.4665 56.7265 36.4638 56.7207 36.4625 56.7145C36.4612 56.7082 36.4612 56.7018 36.4627 56.6956C36.4641 56.6894 36.4669 56.6836 36.4708 56.6786C36.4748 56.6735 36.4798 56.6694 36.4855 56.6665L36.5201 56.7178Z" fill="#F8F2EA"/>
<path d="M37.111 51.7619L37.1578 51.72L37.1839 51.7759C37.1821 51.7806 37.1791 51.7848 37.1754 51.7881C37.1716 51.7915 37.167 51.7939 37.1621 51.7953L37.111 51.7619Z" fill="#909090"/>
<path d="M30.5305 21.624C30.1338 21.6097 29.7583 21.4425 29.4835 21.1578C29.2088 20.8732 29.0564 20.4934 29.0586 20.0991C29.0706 19.3252 29.7526 18.741 30.6276 18.7551C30.991 18.7574 31.3387 18.9026 31.5945 19.159C31.8503 19.4154 31.9935 19.762 31.9926 20.1229C31.9708 20.964 31.3183 21.6327 30.5305 21.624ZM29.6435 20.9521L29.6871 20.9976C29.7731 21.1101 29.8978 21.1872 30.0373 21.2143L29.71 20.9586L29.6729 20.9239L29.5376 20.7505C29.5147 20.7158 29.5038 20.6713 29.4285 20.6508C29.4743 20.6984 29.446 20.7591 29.5125 20.7754C29.5322 20.8486 29.5789 20.9117 29.6435 20.9521ZM31.1863 19.7262H31.1285V20.5933C31.279 20.2779 31.3096 20.0048 31.1863 19.7252V19.7262ZM30.1661 21.2772H30.1857V21.2924L30.1661 21.2772ZM30.0657 21.2479L30.081 21.236C30.081 21.236 30.0723 21.223 30.0679 21.223C30.0635 21.223 30.057 21.2295 30.0526 21.2339L30.0657 21.2479Z" fill="#181818"/>
<path d="M38.7509 52.4613C39.0095 52.4586 39.2587 52.5574 39.4444 52.7362C39.6301 52.915 39.7373 53.1593 39.7427 53.4161C39.7427 54.0155 39.2593 54.5129 38.6843 54.4999C38.1508 54.4902 37.6565 53.9808 37.6576 53.4432C37.6587 52.8861 38.1399 52.4548 38.7509 52.4613ZM38.992 53.4367C38.9953 53.3905 38.9953 53.3442 38.992 53.298C38.9767 53.2145 38.98 53.1202 38.9047 53.0606C38.8796 53.04 38.8447 53.0671 38.8327 53.092C38.8151 53.1364 38.8087 53.1844 38.814 53.2318C38.8193 53.2792 38.8362 53.3246 38.8633 53.3641C38.8745 53.3868 38.8924 53.4056 38.9146 53.418C38.9368 53.4304 38.9623 53.4358 38.9877 53.4335L38.992 53.4367ZM38.0929 53.6264V53.1419C37.9762 53.3196 38.0057 53.4432 38.0929 53.6231V53.6264Z" fill="#181818"/>
<path d="M31.1862 19.7253C31.3095 20.005 31.279 20.2781 31.1284 20.5924V19.7253H31.1862Z" fill="#909090"/>
<path d="M29.7132 20.9597L30.0409 21.2158C29.9012 21.1886 29.7764 21.1114 29.6903 20.9988C29.7002 20.9872 29.708 20.974 29.7132 20.9597Z" fill="#F8F2EA"/>
<path d="M29.5376 20.7517C29.5822 20.809 29.6269 20.8674 29.6726 20.9248C29.6618 20.9323 29.652 20.941 29.6432 20.9507C29.5776 20.9118 29.5294 20.8495 29.5082 20.7766L29.5376 20.7517Z" fill="#F8F2EA"/>
<path d="M29.5076 20.7751C29.4414 20.7569 29.4696 20.699 29.4241 20.6519C29.5033 20.6722 29.5141 20.7162 29.5326 20.7505L29.5076 20.7751Z" fill="#F8F2EA"/>
<path d="M30.1661 21.279L30.1813 21.2887L30.1833 21.2751L30.1661 21.279Z" fill="#F8F2EA"/>
<path d="M30.0644 21.2479L30.0526 21.2352C30.0526 21.2352 30.0615 21.2253 30.0664 21.2253C30.0713 21.2253 30.0743 21.2332 30.0782 21.2371L30.0644 21.2479Z" fill="#F8F2EA"/>
<path d="M29.6867 20.9955L29.6434 20.9507C29.6521 20.941 29.6619 20.9324 29.6726 20.925L29.7094 20.9592C29.7039 20.9725 29.6962 20.9848 29.6867 20.9955Z" fill="#F8F2EA"/>
<path d="M38.9879 53.4338C38.9612 53.4371 38.9342 53.4318 38.9109 53.4187C38.8875 53.4056 38.8689 53.3855 38.8579 53.3611C38.8308 53.3217 38.8139 53.2762 38.8086 53.2287C38.8033 53.1813 38.8097 53.1332 38.8273 53.0888C38.8393 53.0638 38.8743 53.0367 38.8994 53.0573C38.9748 53.117 38.9715 53.2114 38.9868 53.295C38.9905 53.3412 38.9908 53.3876 38.9879 53.4338Z" fill="#F8F2EA"/>
<path d="M38.0931 53.6236C38.0068 53.4435 37.9762 53.3198 38.0931 53.144V53.6236Z" fill="#909090"/>
</svg>
