<svg width="192" height="189" viewBox="0 0 192 189" fill="none" xmlns="http://www.w3.org/2000/svg">
    <g filter="url(#filter0_d_43_57780)">
        <path
            d="M0 90.2574C0.334675 67.3377 8.0738 47.1573 23.7336 30.0867C36.4966 16.1765 52.2925 7.24177 70.6656 2.69673C76.3324 1.29524 82.0918 0.481285 87.925 0.153833C99.9866 -0.525397 111.725 1.0314 123.107 5.08807C134.757 9.24016 145.05 15.5665 154.036 23.9867C161.682 31.1514 167.644 39.5192 172.488 48.7515C177.476 58.2607 180.717 68.2714 182.171 78.8752C182.823 83.6298 183.116 88.405 182.958 93.1952C182.222 115.497 174.388 135.017 159.112 151.448C146.17 165.367 130.243 174.312 111.547 178.35C106.185 179.508 100.758 180.234 95.2633 180.354C70.6996 180.891 49.0403 173.301 30.5708 157.262C15.9037 144.523 6.59707 128.526 2.2444 109.714C0.894358 103.883 0.170174 97.9666 0.0869777 91.9789C0.0794144 91.4363 0.0340348 90.8955 0.00189082 90.2593L0 90.2574Z"
            fill="#060000" />
        <path
            d="M96.1896 171.408C83.4946 171.636 71.6543 169.57 60.2999 164.973C52.1543 161.676 44.5437 157.453 37.9202 151.656C27.0309 142.128 19.0687 130.602 14.0524 117.094C11.8609 111.196 10.3936 105.12 9.61271 98.8894C8.84126 92.7482 8.60869 86.5809 9.45766 80.4417C10.5997 72.1861 13.0464 64.288 16.7033 56.7734C23.9149 41.9539 34.5545 30.1132 48.5806 21.3263C57.8683 15.5088 67.9766 11.6356 78.811 9.67271C84.1451 8.70532 89.5244 8.25063 94.9435 8.30115C103.339 8.37974 111.585 9.52863 119.556 12.152C125.108 13.9782 130.277 16.669 135.171 19.8424C151.052 30.1431 162.315 44.1731 169.396 61.5393C172.469 69.0744 174.383 76.9014 175.148 84.9998C175.519 88.9105 175.727 92.8306 175.394 96.7469C174.999 101.399 174.054 105.962 172.773 110.455C168.973 123.776 162.26 135.48 152.695 145.563C142.694 156.106 130.741 163.687 116.885 168.266C112.723 169.642 108.382 170.323 104.025 170.843C101.276 171.17 98.5153 171.316 96.1896 171.41V171.408Z"
            fill="#F8F2EA" />
        <path
            d="M96.0314 162.818C84.6805 163.022 74.0937 161.173 63.9414 157.059C56.6581 154.108 49.8532 150.328 43.9309 145.14C34.1945 136.612 27.0752 126.296 22.5899 114.206C20.6305 108.928 19.3186 103.49 18.6203 97.9133C17.9305 92.417 17.7226 86.8972 18.4817 81.4025C19.5028 74.0138 21.6905 66.9449 24.9602 60.2193C31.4083 46.9558 40.9216 36.3583 53.4628 28.4939C61.7672 23.2873 70.8054 19.8207 80.4928 18.0639C85.2621 17.1981 90.0719 16.7912 94.9173 16.8364C102.424 16.9067 109.797 17.935 116.924 20.2829C121.888 21.9174 126.51 24.3256 130.886 27.1659C145.085 36.3851 155.157 48.942 161.488 64.4848C164.235 71.2288 165.946 78.234 166.631 85.4821C166.962 88.9822 167.148 92.4907 166.851 95.9958C166.497 100.159 165.652 104.244 164.508 108.265C161.109 120.187 155.108 130.662 146.555 139.687C137.613 149.122 126.925 155.908 114.536 160.006C110.814 161.237 106.933 161.846 103.037 162.312C100.579 162.605 98.1109 162.736 96.0314 162.819V162.818Z"
            fill="#181818" />
        <path
            d="M25.4215 35.7477C27.352 32.8698 29.5359 30.1829 31.8692 27.6231C33.1644 26.2029 34.7054 25.0241 36.2918 23.7349C32.8581 28.0142 29.1294 31.8819 25.5822 35.9067C25.4423 35.9385 25.3685 35.9067 25.4215 35.7477Z"
            fill="#F8F2EA" />
        <path
            d="M146.543 26.5464C150.724 29.9164 154.519 33.6662 157.888 37.8332C157.917 37.9698 157.877 38.039 157.724 37.9885C154.122 34.0516 150.246 30.3842 146.366 26.7204C146.339 26.5782 146.388 26.509 146.542 26.5464H146.543Z"
            fill="#F8F2EA" />
        <path
            d="M180.917 84.6505C181.373 88.1496 181.611 91.658 181.265 95.1795C181.137 96.5006 180.932 97.8141 180.762 99.1314C180.367 98.948 180.63 98.6468 180.626 98.3923C180.836 95.1215 181.029 91.8507 180.915 88.5706C180.872 87.315 180.815 86.0595 180.762 84.804C180.711 84.6524 180.777 84.615 180.917 84.6487V84.6505Z"
            fill="#F8F2EA" />
        <path
            d="M102.426 174.084C100.484 174.333 98.5442 174.589 96.6005 174.828C94.7739 175.055 92.9417 175.244 91.1171 175.495C90.6349 175.562 90.1755 175.487 89.7065 175.476C89.5685 175.472 89.3095 175.594 89.3416 175.285C89.3624 175.088 89.525 175.012 89.7198 174.999C90.4156 174.954 91.1095 174.883 91.8072 174.858C94.9441 174.75 98.0583 174.394 101.169 173.999C101.583 173.947 102.001 173.882 102.426 174.082V174.084Z"
            fill="#F8F2EA" />
        <path
            d="M57.4784 14.8935C61.2298 12.8109 65.331 11.6395 69.4057 10.4027C69.5683 10.3484 69.608 10.4214 69.5796 10.5673C65.5522 11.9408 61.5417 13.3647 57.6353 15.0525C57.4803 15.0974 57.4425 15.0319 57.4784 14.8935Z"
            fill="#F8F2EA" />
        <path
            d="M142.314 158.372C145.591 155.532 148.946 152.773 151.982 149.664C151.249 151.082 144.377 157.305 142.314 158.372Z"
            fill="#F8F2EA" />
        <path
            d="M156.975 29.9077C158.408 30.9499 163.912 37.3456 164.68 38.7994C161.912 36.0077 159.735 32.7107 156.975 29.9077Z"
            fill="#F8F2EA" />
        <path
            d="M142.756 21.2515C140.771 20.1101 138.787 18.9668 136.802 17.8254C138.989 18.6169 141.304 19.1858 142.756 21.2515Z"
            fill="#F8F2EA" />
        <path
            d="M24.9663 40.4753C26.3258 38.5386 27.8611 36.7348 29.3851 34.9254C29.491 34.7982 29.5818 34.4988 29.8333 34.6859C30.1112 34.8936 29.8654 35.0601 29.7255 35.2248C28.192 37.0286 26.6586 38.8342 25.127 40.6399C24.9928 40.6624 24.9171 40.6268 24.9682 40.4753H24.9663Z"
            fill="#F8F2EA" />
        <path
            d="M179.774 106.305C179.378 108.906 178.766 111.456 177.936 113.956C177.89 114.01 177.843 114.012 177.792 113.962C178.456 111.262 179.131 108.565 179.609 105.824C179.966 105.882 179.764 106.129 179.774 106.303V106.305Z"
            fill="#F8F2EA" />
        <path
            d="M157.725 37.9886C157.78 37.9362 157.835 37.8856 157.89 37.8333C159.724 39.9177 161.323 42.1725 162.842 44.4871C162.893 44.633 162.823 44.6574 162.698 44.6274C161.166 42.3222 159.429 40.1685 157.725 37.9886Z"
            fill="#F8F2EA" />
        <path
            d="M179.775 106.306C179.701 106.152 179.807 105.937 179.61 105.827C179.949 103.349 180.287 100.872 180.626 98.3943C180.72 98.6319 180.575 98.9126 180.762 99.1334C180.433 101.525 180.104 103.914 179.777 106.306H179.775Z"
            fill="#F8F2EA" />
        <path
            d="M177.058 116.785C176.646 118.846 175.771 120.75 175.041 122.704C174.912 123.048 174.763 123.385 174.623 123.726C174.498 123.742 174.409 123.729 174.492 123.572C175.341 121.28 176.234 119.001 176.941 116.66C176.998 116.64 177.054 116.621 177.092 116.686C177.107 116.713 177.087 116.75 177.06 116.785H177.058Z"
            fill="#F8F2EA" />
        <path
            d="M178.355 66.9861C179.053 69.1323 179.724 71.286 179.794 73.5613C179.314 71.3702 178.836 69.1791 178.355 66.9861Z"
            fill="#F8F2EA" />
        <path
            d="M87.7038 6.58872C89.3374 6.43155 90.9636 6.17707 92.6048 6.13403C92.6123 6.22385 92.6218 6.31179 92.6294 6.40161C91.0392 6.51762 89.449 6.63363 87.8569 6.74964C87.7057 6.78894 87.6622 6.72719 87.7019 6.58685L87.7038 6.58872Z"
            fill="#F8F2EA" />
        <path
            d="M6.74939 90.167V94.5885C6.66998 94.5885 6.59057 94.5848 6.51115 94.5829C6.17459 92.9924 6.76452 91.4319 6.74939 90.167Z"
            fill="#F8F2EA" />
        <path
            d="M11.402 63.1581C11.1033 63.9627 10.797 64.7673 10.5077 65.5756C10.432 65.787 10.3413 65.9573 10.0917 65.8581C9.77025 65.729 10.0142 65.5457 10.086 65.3997C10.4547 64.6475 10.8329 63.9028 11.2092 63.1543C11.2753 63.0926 11.3396 63.0944 11.4039 63.1599L11.402 63.1581Z"
            fill="#F8F2EA" />
        <path
            d="M73.6016 8.17614C72.1495 8.53353 70.6992 8.89092 69.2471 9.25018C70.5574 8.52604 72.002 8.27531 73.4466 8.02083C73.5941 7.97967 73.6376 8.03954 73.6016 8.17801V8.17614Z"
            fill="#F8F2EA" />
        <path
            d="M10.0367 113.378C9.34086 111.989 9.14421 110.462 8.94189 108.936C9.30682 110.416 9.67175 111.898 10.0367 113.378Z"
            fill="#F8F2EA" />
        <path
            d="M24.9673 40.4766C25.0202 40.5308 25.0732 40.587 25.1261 40.6412C24.4624 41.545 23.7988 42.4506 23.1351 43.3544C23.0784 43.317 23.0235 43.2796 22.9668 43.2421C23.6078 42.3047 24.2166 41.3448 24.9673 40.4766Z"
            fill="#F8F2EA" />
        <path
            d="M37.0361 155.074C37.9248 155.772 38.8135 156.47 39.7022 157.168C38.3124 156.533 37.4521 155.854 37.0361 155.074Z"
            fill="#F8F2EA" />
        <path
            d="M106.226 5.27901C105.216 5.20416 104.205 5.12744 103.121 5.04698C104.235 4.47067 105.226 5.14803 106.245 5.09563C106.237 5.15551 106.231 5.21726 106.224 5.27714L106.226 5.27901Z"
            fill="#F8F2EA" />
        <path
            d="M124.75 12.7659C125.917 12.9137 126.928 13.3572 127.849 14.0233C126.817 13.6041 125.782 13.185 124.75 12.7659Z"
            fill="#F8F2EA" />
        <path
            d="M69.5802 10.5672C69.5216 10.5129 69.4649 10.4568 69.4062 10.4025C70.2533 10.017 71.159 9.85052 72.0496 9.63159C72.0685 9.69147 72.0874 9.75135 72.1063 9.81122C71.263 10.0638 70.4216 10.3146 69.5783 10.5672H69.5802Z"
            fill="#F8F2EA" />
        <path
            d="M111.349 173.365C112.069 173.153 112.79 172.94 113.51 172.729C113.081 173.466 112.291 173.297 111.661 173.526C111.506 173.567 111.33 173.651 111.349 173.365Z"
            fill="#F8F2EA" />
        <path
            d="M97.3999 176.525C98.5552 176.505 99.6954 176.181 100.862 176.398C99.7067 176.419 98.5703 176.791 97.3999 176.525Z"
            fill="#F8F2EA" />
        <path
            d="M34.4385 150.546C35.0946 151.156 35.7526 151.768 36.4087 152.378C36.3671 152.421 36.3236 152.466 36.282 152.509C35.556 151.968 34.9206 151.336 34.4385 150.546Z"
            fill="#F8F2EA" />
        <path
            d="M38.3927 154.295C37.695 153.822 37.0635 153.278 36.5303 152.625C37.2601 153.057 37.8973 153.599 38.4986 154.187C38.5137 154.269 38.4778 154.307 38.3927 154.295Z"
            fill="#F8F2EA" />
        <path
            d="M13.8523 125.713C13.3909 124.966 13.0884 124.16 12.9692 123.279C13.302 124.057 13.6348 124.837 13.9676 125.616C13.9676 125.692 13.9298 125.724 13.8541 125.715L13.8523 125.713Z"
            fill="#F8F2EA" />
        <path
            d="M146.542 26.5468C146.484 26.6048 146.425 26.6628 146.367 26.7208C145.915 26.3129 145.463 25.905 145.013 25.4971C145.639 25.701 146.121 26.0846 146.544 26.5468H146.542Z"
            fill="#F8F2EA" />
        <path
            d="M162.698 44.6272C162.746 44.5804 162.795 44.5336 162.842 44.4868C163.335 45.0295 163.674 45.6619 163.91 46.3655C163.506 45.7854 163.103 45.2053 162.698 44.6272Z"
            fill="#F8F2EA" />
        <path
            d="M73.6033 8.17633C73.5522 8.12394 73.4993 8.07154 73.4482 8.01915C74.18 7.77964 74.9231 7.59627 75.6983 7.58691C75.7153 7.60563 75.7305 7.62621 75.7475 7.64492C75.0611 7.93682 74.3237 8.01915 73.6033 8.17446V8.17633Z"
            fill="#F8F2EA" />
        <path
            d="M49.3525 161.782C49.8933 162.094 50.436 162.407 50.9768 162.718C50.3206 162.613 49.7685 162.31 49.3525 161.782Z"
            fill="#F8F2EA" />
        <path
            d="M111.347 173.365C111.385 173.544 111.555 173.471 111.659 173.526C111.013 173.675 110.368 173.827 109.721 173.977C110.217 173.621 110.776 173.475 111.347 173.365Z"
            fill="#F8F2EA" />
        <path
            d="M180.916 84.6507C180.865 84.7031 180.814 84.7536 180.761 84.806C180.561 84.2615 180.616 83.7058 180.752 83.1426L180.916 84.6507Z"
            fill="#F8F2EA" />
        <path
            d="M40.6943 156.083C40.1952 155.789 39.7206 155.464 39.3235 155.041C39.3197 154.968 39.3575 154.942 39.4275 154.959C39.9229 155.172 40.2746 155.574 40.6906 155.892C40.7567 155.954 40.7586 156.018 40.6943 156.083Z"
            fill="#F8F2EA" />
        <path
            d="M57.4772 14.894C57.5301 14.9464 57.5812 15.0006 57.6341 15.053C57.2352 15.3281 56.7927 15.5002 56.3105 15.5751C56.6528 15.2626 57.0385 15.0343 57.4753 14.8921L57.4772 14.894Z"
            fill="#F8F2EA" />
        <path
            d="M87.7043 6.58887C87.7554 6.64313 87.8083 6.69739 87.8594 6.75166C87.3621 7.00239 86.844 6.88077 86.3184 6.76476C86.7797 6.70675 87.243 6.64687 87.7043 6.58887Z"
            fill="#F8F2EA" />
        <path
            d="M11.4013 63.1576C11.337 63.1576 11.2708 63.1539 11.2065 63.152C11.3975 62.7348 11.5885 62.3175 11.7795 61.9021C11.7662 62.3661 11.6906 62.8003 11.4013 63.1576Z"
            fill="#F8F2EA" />
        <path
            d="M14.585 55.1059C14.8138 54.6438 15.0425 54.1797 15.2713 53.7175C15.3281 53.7437 15.3867 53.7699 15.4434 53.7961C15.2259 54.2639 15.0898 54.7691 14.585 55.1059Z"
            fill="#F8F2EA" />
        <path
            d="M175.73 68.9254C175.619 68.4838 175.507 68.0422 175.396 67.6006C175.723 67.928 175.863 68.3172 175.868 68.7513C175.94 68.901 175.868 68.9403 175.728 68.9254H175.73Z"
            fill="#F8F2EA" />
        <path
            d="M174.492 123.572C174.535 123.623 174.579 123.675 174.622 123.725C174.482 124.117 174.325 124.498 173.947 124.914C174.087 124.36 174.255 123.954 174.492 123.572Z"
            fill="#F8F2EA" />
        <path
            d="M25.4201 35.7466C25.473 35.799 25.5279 35.8532 25.5808 35.9056C25.4012 36.3098 25.0759 36.5961 24.7432 36.8842C24.8774 36.4501 25.093 36.0665 25.4201 35.7466Z"
            fill="#F8F2EA" />
        <path
            d="M13.966 125.616C14.2042 126.028 14.4292 126.441 14.4784 126.931C14.191 126.565 13.9565 126.174 13.8525 125.715C13.8904 125.681 13.9282 125.65 13.966 125.616Z"
            fill="#F8F2EA" />
        <path
            d="M40.6952 156.083C40.6952 156.019 40.6933 155.955 40.6914 155.892C41.0658 156.105 41.408 156.358 41.6671 156.721C41.3059 156.565 40.9429 156.416 40.6952 156.085V156.083Z"
            fill="#F8F2EA" />
        <path
            d="M174.528 64.0299C174.237 63.7137 174.019 63.3712 174.097 62.7781C174.277 63.3001 174.403 63.665 174.528 64.0299Z"
            fill="#F8F2EA" />
        <path
            d="M175.732 68.9247C175.78 68.8667 175.825 68.8087 175.872 68.7507C176.061 69.0988 176.116 69.4749 176.058 69.879C175.95 69.5609 175.84 69.2428 175.732 68.9247Z"
            fill="#F8F2EA" />
        <path
            d="M177.793 113.962C177.842 113.983 177.889 113.979 177.937 113.957C177.829 114.297 177.721 114.64 177.549 115.184C177.488 114.595 177.587 114.267 177.793 113.964V113.962Z"
            fill="#F8F2EA" />
        <path
            d="M75.6968 7.5883C76.0901 7.39183 76.5023 7.30576 77.0979 7.37499C76.5476 7.48539 76.1714 7.67437 75.7459 7.64631C75.7289 7.62759 75.7138 7.60701 75.6968 7.5883Z"
            fill="#F8F2EA" />
        <path
            d="M39.3248 155.041C39.0147 154.792 38.7046 154.545 38.3945 154.296C38.4305 154.26 38.4645 154.223 38.5004 154.188C38.854 154.393 39.166 154.648 39.4288 154.958C39.3834 154.972 39.3494 155 39.3248 155.041Z"
            fill="#F8F2EA" />
        <path
            d="M177.061 116.785C177.021 116.744 176.981 116.701 176.941 116.659C177.036 116.334 177.13 116.008 177.225 115.683C177.276 116.072 177.291 116.452 177.059 116.785H177.061Z"
            fill="#F8F2EA" />
    </g>
    <path
        d="M121.041 98.5355C121.279 98.5355 121.375 98.339 121.489 98.1763C121.761 98.1763 121.848 97.9122 121.993 97.7526C125.282 94.1361 129.017 91.2073 133.901 90.0069C135.895 89.5157 137.92 89.0521 139.96 89.4604C144.035 90.2678 145.976 92.3616 145.503 96.586C145.243 98.8977 144.446 101.056 143.481 103.156C141.484 107.503 138.588 111.236 135.422 114.788C131.595 119.086 127.326 122.921 122.896 126.586C122.587 126.841 122.509 127.022 122.729 127.394C123.656 128.96 124.646 130.464 126.009 131.692C128.633 134.031 130.807 136.822 133.539 139.06C134.158 139.57 134.26 140.217 134.05 140.967C133.601 142.541 132.365 143.595 131.008 143.472C129.944 143.382 128.906 143.093 127.95 142.621C123.473 140.443 119.559 137.272 116.512 133.353C116.249 133.015 116.064 132.416 115.69 132.41C115.316 132.404 114.991 132.868 114.639 133.126C110.796 135.956 106.858 138.621 102.31 140.251C101.343 140.598 100.493 140.009 100.598 138.996C100.663 138.544 100.82 138.111 101.058 137.722C101.865 136.339 102.882 135.088 104.072 134.013C106.487 131.704 109.223 129.795 111.863 127.765C113.099 126.82 113.099 126.814 112.58 125.389C112.506 125.174 112.425 124.959 112.36 124.741C111.028 120.311 110.682 115.755 110.589 111.166C110.546 108.924 110.7 106.69 110.722 104.451C110.74 102.545 110.75 100.629 110.917 98.735C111.254 94.9742 111.464 91.2103 111.597 87.4434C111.754 82.9611 111.467 78.4881 111.427 74.0089C111.396 70.3617 110.954 66.7329 110.669 63.101C110.515 61.084 110.317 59.0516 109.689 57.1114C109.291 55.8833 108.852 54.64 107.896 53.6668C107.167 52.9269 106.493 52.798 105.621 53.3598C105.381 53.5249 105.157 53.713 104.953 53.9216C103.568 55.2755 102.969 57.0653 102.316 58.806C100.39 63.9514 99.7104 69.3731 98.8293 74.7488C98.548 76.468 98.6222 78.2302 98.3904 79.9678C97.9916 82.9703 97.7443 85.9851 97.6021 89.0091C97.466 91.8274 97.5217 94.6488 97.4197 97.464C97.2466 102.171 97.1384 106.879 97.0951 111.586C97.0487 116.627 97.0209 121.665 97.0456 126.703C97.0456 128.892 96.4737 130.762 94.7673 132.248C93.7935 133.092 92.7888 133.436 91.5522 132.963C91.0974 132.778 90.6853 132.503 90.3414 132.155C89.9974 131.807 89.7288 131.392 89.5521 130.937C88.9614 129.675 88.5764 128.328 88.4114 126.946C87.7931 121.26 87.1748 115.586 87.4839 109.836C87.6261 107.23 87.6231 104.617 87.8085 102.008C88.2042 96.3956 88.1177 90.7775 87.8642 85.1593C87.7374 82.2182 87.3727 79.2955 87.1284 76.3636C86.8595 73.1493 86.6771 69.9165 86.0248 66.7544C85.3354 63.4234 84.5842 60.1139 83.2766 56.9579C82.8189 55.7079 82.1359 54.5511 81.261 53.544C80.2315 52.4418 78.9764 52.4388 77.947 53.544C77.5693 53.9592 77.2415 54.4167 76.9701 54.9071C76.1665 56.4104 75.5439 58.0024 75.1153 59.6503C74.3393 62.3212 73.9715 65.0843 73.3717 67.792C72.345 72.4071 71.5955 77.0788 71.1274 81.7822C70.6173 86.9368 70.4071 92.1191 70.1103 97.289C69.9032 100.93 69.8352 104.58 69.7517 108.225C69.6064 114.466 69.492 120.704 69.3746 126.952C69.3683 128.512 68.9912 130.049 68.274 131.437C67.0375 133.773 64.3232 133.945 62.7899 131.809C62.2253 131.031 61.9136 130.1 61.8965 129.141C61.8316 126.507 61.745 123.876 61.7234 121.242C61.6585 113.278 61.7048 105.314 61.473 97.3504C61.3493 93.0524 61.3184 88.7359 61.5132 84.4225C61.7017 80.2841 61.8223 76.1334 61.5132 71.9888C61.306 69.1398 61.3308 66.2693 60.4683 63.4971C60.3166 62.96 60.0842 62.4487 59.7789 61.9805C58.3697 59.8468 56.2606 58.2632 53.8094 57.4982C52.4987 57.0868 51.1508 56.7798 49.9266 56.129C48.5726 55.4136 47.8894 54.3023 48.044 53.0374C48.2078 51.7081 48.8014 50.5814 49.9854 49.9275C52.511 48.4999 55.1789 48.1192 57.9117 49.2459C60.255 50.213 62.1129 51.8186 63.8905 53.6391C67.0684 56.8995 67.9433 60.9428 68.5275 65.0812C68.6481 64.6913 68.8367 64.1878 68.9634 63.6751C69.6559 61.1393 70.234 58.5696 71.214 56.1167C72.1939 53.6637 73.3779 51.2568 75.3811 49.4086C76.4168 48.46 77.5946 47.714 79.0321 47.671C81.8143 47.5881 84.068 48.7608 85.7342 50.9191C87.4307 53.1079 88.7855 55.538 89.753 58.1275C91.2987 62.2629 92.0932 66.5886 93.0577 70.8713C93.1381 71.2305 93.0855 71.6296 93.3669 72.0041C93.8247 68.8862 94.5202 65.8074 95.4474 62.794C96.6839 58.803 98.1801 54.9194 100.607 51.4625C102.041 49.424 103.667 47.5819 105.992 46.4767C107.958 45.5557 109.736 45.7368 111.365 47.1982C112.527 48.276 113.499 49.54 114.24 50.9375C115.616 53.4273 116.453 56.1197 117.118 58.8644C119.059 66.8895 119.591 75.0773 119.829 83.2896C119.982 88.4534 119.933 93.6162 119.684 98.778C119.616 99.2684 119.623 99.7661 119.702 100.255C120.114 99.5056 120.809 99.2262 121.041 98.5355ZM122.559 119.513C122.472 119.467 122.37 119.381 122.389 119.584C121.934 119.682 121.672 120.063 121.31 120.299C121.205 120.367 121.001 120.428 121.143 120.606C121.285 120.784 121.418 120.674 121.526 120.581C121.882 120.308 122.173 119.96 122.376 119.562L122.559 119.513ZM121.322 132.079L121.162 131.87C121.097 131.699 120.976 131.554 120.818 131.459C120.802 131.368 120.765 131.283 120.712 131.208C120.659 131.133 120.589 131.071 120.509 131.026C120.2 130.753 120.169 130.249 119.582 130.065L120.509 131.271C120.509 131.419 120.617 131.495 120.723 131.578L121.066 131.993L121.23 132.192L121.461 132.466L121.585 132.591C121.629 132.721 121.702 132.84 121.799 132.937C121.896 133.035 122.014 133.109 122.145 133.153L122.188 133.178L122.138 133.159C122.138 132.834 121.86 132.699 121.662 132.512L121.551 132.377L121.322 132.079ZM90.7855 66.0513L90.7639 65.9377L90.7144 65.9654L90.7917 66.0452C90.7551 66.7414 90.8833 67.4363 91.1658 68.0745C91.2114 67.3791 91.0807 66.6835 90.7855 66.0513ZM70.1072 74.0334C69.806 74.9948 69.6508 75.9954 69.6466 77.0022C69.8599 76.0198 70.1258 75.0466 70.1011 74.0273C70.1303 74.0073 70.1548 73.9813 70.1728 73.9509C70.1909 73.9206 70.2021 73.8867 70.2056 73.8516C70.2091 73.8166 70.2049 73.7812 70.1933 73.7479C70.1816 73.7146 70.1628 73.6842 70.1381 73.6589L70.1072 74.0334ZM118.518 95.097C118.274 97.4732 118.398 99.8863 117.783 102.235C117.978 102.104 118.136 101.927 118.244 101.719C118.352 101.512 118.406 101.28 118.401 101.047C118.475 99.0451 118.599 97.0557 118.71 95.0448C118.88 94.5444 118.753 94.044 118.726 93.5436C118.526 94.0305 118.455 94.5598 118.518 95.0817V95.097ZM89.6541 125.816C89.6557 125.369 89.5911 124.924 89.4624 124.496C89.4439 124.269 89.4253 124.041 89.4037 123.814C89.1904 121.42 89.2893 119.016 89.1997 116.618C89.0235 111.798 89.1811 106.969 88.6494 102.161C88.6933 101.656 88.6301 101.148 88.4639 100.669C88.3595 101.165 88.349 101.677 88.433 102.177C88.5196 104.801 88.6556 107.426 88.6587 110.054C88.6587 111.522 88.501 112.986 88.6061 114.457L89.311 124.533C89.2808 124.956 89.329 125.382 89.4532 125.788C89.5274 126.258 89.5923 126.728 89.6788 127.194C89.92 128.518 90.2353 129.819 90.9679 130.977C91.1358 131.286 91.4098 131.524 91.74 131.649C92.0703 131.774 92.4348 131.778 92.7671 131.658C92.4476 131.488 92.1558 131.27 91.9015 131.013C90.4362 129.586 90.0869 127.682 89.6541 125.816ZM118.237 90.3139C118.345 86.725 118.5 83.1392 118.287 79.5472C118.154 80.6033 118.086 81.6656 118.021 82.7278C117.875 85.2514 118.228 87.778 118.021 90.3047C117.949 90.976 117.963 91.6537 118.061 92.3217C118.251 91.6703 118.311 90.9882 118.237 90.3139ZM112.524 50.8116L112.688 50.9467C112.741 50.8454 112.728 50.7687 112.614 50.7226C112.013 49.6258 111.12 48.7145 110.033 48.0885C108.709 47.3026 106.484 47.7017 105.482 48.8775C105.548 48.8822 105.614 48.8822 105.68 48.8775C105.784 48.8625 105.887 48.8409 105.989 48.813C107.19 48.5078 108.457 48.584 109.612 49.031C110.703 49.4209 111.581 50.1608 112.524 50.8116ZM102.83 137.141C106.453 134.255 110.067 131.363 113.557 128.315C113.527 128.301 113.495 128.293 113.462 128.293C113.43 128.293 113.397 128.301 113.368 128.315C111.643 129.586 109.915 130.848 108.206 132.137C106.249 133.62 104.313 135.13 102.749 137.049L102.604 137.218C102.712 137.279 102.802 137.267 102.83 137.141ZM120.719 118.107C120.719 118.414 120.719 118.721 120.719 119.028C120.719 119.154 120.63 119.378 120.812 119.387C120.995 119.396 121.186 119.498 121.325 119.295C121.393 119.215 121.466 119.14 121.545 119.071C123.233 117.352 124.945 115.642 126.612 113.907C128.198 112.259 129.919 110.739 131.406 108.995C133.057 107.067 134.498 104.989 136.074 102.999C136.65 102.318 137.081 101.529 137.341 100.679C137.601 99.8281 137.686 98.9341 137.589 98.0504C137.496 97.1294 137.073 96.5338 136.217 96.2575C134.625 95.7479 133.094 95.7601 131.74 96.9022C131.395 97.1709 131.066 97.4589 130.754 97.7649C127.168 101.621 124.228 105.876 122.5 110.892C121.699 113.266 120.692 115.553 120.732 118.116L120.719 118.107ZM130.612 95.6957C130.556 95.5115 130.414 95.5299 130.275 95.5759C129.888 95.7337 129.53 95.9559 129.218 96.2329C126.315 98.5508 124.077 101.421 122.228 104.608C122.11 104.828 122.007 105.056 121.919 105.29C121.889 105.345 121.879 105.409 121.893 105.471C121.907 105.532 121.942 105.587 121.993 105.624C122.138 105.729 122.222 105.584 122.302 105.498C122.489 105.276 122.661 105.041 122.815 104.795C124.25 102.334 126.037 100.093 128.12 98.1425C128.72 97.596 129.357 97.0772 129.947 96.5338C130.23 96.3041 130.461 96.0174 130.624 95.6926L130.612 95.6957ZM50.2945 55.0974C49.9235 53.3935 50.2543 52.2607 51.5032 51.3335C52.6146 50.4811 53.9305 49.9309 55.3211 49.7371C55.4911 49.7156 55.7168 49.7985 55.7446 49.4977C54.2173 49.4093 52.6918 49.6994 51.3054 50.3419C50.5167 50.6916 49.8812 51.3117 49.5155 52.0888C48.9467 53.2677 49.2249 54.422 50.2945 55.0974ZM120.602 103.417C119.331 103.521 118.185 105.756 118.8 106.763C119.274 105.585 119.878 104.463 120.602 103.417ZM63.5411 127.219C63.2691 124.655 63.0496 122.08 63.0032 119.814C62.8849 122.295 63.0654 124.781 63.5411 127.219ZM117.48 74.54C117.378 76.4005 117.61 78.7337 117.659 80.0446C117.894 78.7275 118.015 76.3943 117.48 74.54ZM115.872 122.196C116.033 120.775 116.722 119.433 116.456 117.92C115.681 119.891 115.492 121.177 115.872 122.196ZM68.815 83.6887C68.4758 86.3613 68.2921 89.051 68.2648 91.7445C68.5832 89.0705 68.7192 86.3873 68.815 83.6887ZM116.404 60.8353C116.498 62.7346 116.724 64.6252 117.081 66.4934C116.899 64.59 116.818 62.6988 116.404 60.8353ZM65.8782 126.768C65.8359 126.982 65.7823 127.194 65.7175 127.403C65.4949 128.017 65.7175 128.72 65.3032 129.245C64.9941 129.635 65.2445 129.733 65.5227 129.927C65.8691 128.911 65.9904 127.834 65.8782 126.768ZM139.571 97.6267C140.245 96.4417 140.09 95.665 138.974 95.1277C139.673 95.9044 139.611 96.761 139.571 97.6267ZM94.455 121.935C94.1737 123.016 93.9542 124.106 94.2386 125.398C94.3097 124.127 94.3808 123.031 94.455 121.935ZM117.795 70.4231L118.015 70.4016C117.904 68.9187 117.666 67.4479 117.303 66.0053L117.795 70.4231ZM92.0685 72.7103C92.0443 71.5959 91.8781 70.489 91.5738 69.4161L91.4224 69.4468C91.6388 70.5377 91.8541 71.6276 92.0685 72.7164V72.7103ZM69.1056 67.7061L68.9294 67.6907L68.5214 69.9871L68.679 70.0178C68.7965 69.2442 69.0809 68.5012 69.1056 67.7061ZM91.6017 94.6427C91.7655 93.5006 91.6851 92.1866 91.4502 91.6217C91.3636 92.6318 91.5337 93.6326 91.5924 94.6427H91.6017ZM114.577 98.9407C114.299 100.537 114.299 100.568 114.577 101.016V98.9407ZM115.504 79.5994L115.637 79.6271C115.637 79.099 115.637 78.571 115.637 78.0429C115.637 77.9263 115.637 77.7605 115.467 77.782C115.297 77.8035 115.328 77.9723 115.34 78.089C115.384 78.5833 115.446 79.0898 115.504 79.5933V79.5994ZM71.5787 59.7025C71.1969 60.1843 70.9919 60.781 70.9976 61.3941C71.2954 60.871 71.4925 60.2973 71.5787 59.7025ZM120.021 114.094C120.101 113.708 120.182 113.318 120.281 112.851C119.879 113.238 120.073 113.689 120.021 114.094ZM71.7951 59.0639C71.656 59.2481 71.5231 59.3709 71.6653 59.5705C71.7468 59.5175 71.8054 59.436 71.8294 59.3423C71.8534 59.2485 71.8412 59.1492 71.7951 59.0639ZM70.9419 61.5599L70.9265 61.5138C70.9265 61.5138 70.9017 61.5384 70.9017 61.5537C70.9017 61.5691 70.9017 61.5844 70.9017 61.5998L70.9419 61.5599Z"
        fill="#020202" />
    <path
        d="M121.041 98.5353C120.809 99.2261 120.114 99.5055 119.693 100.205C119.613 99.7168 119.607 99.2192 119.675 98.7287C119.924 93.567 119.972 88.4042 119.82 83.2404C119.579 75.028 119.05 66.8402 117.109 58.8151C116.444 56.0705 115.606 53.378 114.231 50.8882C113.49 49.4907 112.518 48.2267 111.356 47.1489C109.727 45.6876 107.955 45.4972 105.983 46.4275C103.658 47.5327 102.032 49.3747 100.598 51.4132C98.1647 54.8701 96.6654 58.7568 95.4381 62.7478C94.5109 65.7612 93.8154 68.84 93.3576 71.9579C93.0856 71.5834 93.1381 71.1843 93.0485 70.8251C92.084 66.5424 91.2864 62.229 89.7438 58.0813C88.7762 55.4918 87.4214 53.0617 85.725 50.8729C84.0587 48.7238 81.8082 47.5419 79.0228 47.6248C77.5853 47.6678 76.4075 48.4138 75.3719 49.3624C73.3563 51.2044 72.197 53.5899 71.2047 56.0705C70.2124 58.5511 69.659 61.0931 68.9542 63.6289C68.812 64.1416 68.645 64.6451 68.5183 65.035C67.934 60.8966 67.0592 56.8533 63.8812 53.5929C62.1037 51.7724 60.2457 50.1668 57.9025 49.1997C55.1697 48.073 52.5018 48.4537 49.9761 49.8813C48.7921 50.5505 48.1986 51.6619 48.0347 52.9912C47.8802 54.2561 48.5634 55.3674 49.9174 56.0827C51.1539 56.7336 52.4894 57.0406 53.8002 57.452C56.2514 58.2169 58.3605 59.8006 59.7697 61.9343C60.075 62.4025 60.3074 62.9138 60.459 63.4508C61.3215 66.2139 61.2968 69.0936 61.5039 71.9426C61.8131 76.0872 61.6925 80.2317 61.5039 84.3763C61.3092 88.6897 61.3401 92.997 61.4637 97.3042C61.6956 105.268 61.6492 113.232 61.7141 121.195C61.7358 123.829 61.8223 126.46 61.8873 129.095C61.9044 130.053 62.2161 130.984 62.7807 131.762C64.3264 133.911 67.0313 133.727 68.2648 131.391C68.9885 130.006 69.373 128.472 69.387 126.912C69.5044 120.67 69.6188 114.432 69.7641 108.184C69.8476 104.54 69.9156 100.89 70.1227 97.249C70.4319 92.079 70.6297 86.8968 71.1398 81.7422C71.6079 77.0387 72.3573 72.3671 73.3841 67.752C73.9839 65.0442 74.3517 62.2812 75.1277 59.6102C75.5563 57.9623 76.1789 56.3703 76.9825 54.867C77.2539 54.3766 77.5817 53.9192 77.9594 53.5039C78.9888 52.4018 80.2439 52.4048 81.2734 53.5039C82.1457 54.5106 82.8266 55.6663 83.2828 56.9147C84.5904 60.0707 85.3416 63.3802 86.031 66.7112C86.6833 69.8857 86.8657 73.1061 87.1346 76.3205C87.3789 79.2524 87.7529 82.1751 87.8704 85.1162C88.1177 90.7343 88.2104 96.3525 87.8147 101.965C87.6293 104.574 87.6324 107.184 87.4902 109.793C87.181 115.531 87.7807 121.217 88.4176 126.903C88.5826 128.284 88.9676 129.632 89.5583 130.894C89.735 131.349 90.0036 131.763 90.3476 132.112C90.6915 132.46 91.1036 132.735 91.5584 132.92C92.795 133.393 93.7997 133.049 94.7735 132.204C96.4799 130.719 97.0642 128.849 97.0518 126.66C97.0271 121.622 97.0518 116.584 97.1013 111.543C97.1404 106.836 97.2486 102.128 97.4259 97.4209C97.5279 94.6057 97.4723 91.7843 97.6083 88.966C97.7505 85.942 97.9978 82.9272 98.3966 79.9247C98.6284 78.1993 98.5542 76.4371 98.8356 74.7056C99.7166 69.33 100.397 63.9083 102.323 58.7629C102.975 57.0222 103.559 55.2323 104.96 53.8785C105.163 53.6699 105.387 53.4817 105.627 53.3166C106.499 52.7517 107.173 52.8807 107.903 53.6236C108.858 54.5968 109.297 55.8341 109.696 57.0682C110.314 59.0085 110.521 61.0409 110.676 63.0579C110.96 66.6897 111.402 70.3185 111.433 73.9658C111.473 78.445 111.761 82.918 111.603 87.4003C111.47 91.1672 111.26 94.9311 110.923 98.6919C110.756 100.586 110.747 102.502 110.728 104.408C110.706 106.646 110.552 108.881 110.595 111.123C110.688 115.712 111.034 120.268 112.367 124.698C112.431 124.916 112.512 125.131 112.586 125.346C113.096 126.771 113.102 126.777 111.869 127.722C109.229 129.752 106.493 131.661 104.079 133.97C102.888 135.045 101.872 136.296 101.064 137.678C100.826 138.068 100.669 138.501 100.604 138.952C100.499 139.966 101.349 140.555 102.316 140.208C106.864 138.578 110.802 135.91 114.645 133.083C114.997 132.825 115.35 132.361 115.696 132.367C116.042 132.373 116.256 132.981 116.518 133.31C119.566 137.229 123.479 140.4 127.956 142.578C128.913 143.05 129.95 143.339 131.014 143.429C132.371 143.551 133.608 142.508 134.056 140.923C134.266 140.174 134.17 139.527 133.546 139.017C130.813 136.791 128.64 134 126.015 131.649C124.652 130.436 123.656 128.92 122.735 127.351C122.516 126.979 122.59 126.798 122.902 126.543C127.332 122.878 131.601 119.04 135.428 114.745C138.594 111.193 141.491 107.46 143.488 103.113C144.452 101.013 145.25 98.8546 145.509 96.5429C145.982 92.3185 144.041 90.2247 139.966 89.4173C137.914 89.009 135.901 89.4725 133.907 89.9638C129.023 91.1641 125.289 94.093 121.999 97.7095C121.854 97.8691 121.767 98.1178 121.495 98.1331C121.95 97.2121 122.673 96.4876 123.332 95.717C125.471 93.2211 127.839 90.9707 130.785 89.4357C133.567 87.9805 136.56 87.0933 139.722 87.0994C144.703 87.0994 147.185 91.0905 147.5 94.8451C147.809 98.4401 146.573 101.455 144.74 104.384C141.68 109.165 138.146 113.628 134.189 117.708C131.097 120.962 127.947 124.176 124.584 127.163C123.576 128.054 123.573 128.057 124.466 129.07C126.346 131.204 128.609 132.923 130.763 134.753C132.359 136.107 133.836 137.562 134.906 139.379C135.286 140.001 135.555 140.684 135.703 141.396C135.976 142.793 135.453 143.699 134.118 144.248C133.344 144.57 132.51 144.724 131.672 144.699C130.834 144.674 130.011 144.471 129.258 144.104C125.363 142.354 121.814 140.113 118.84 137.012C117.86 136.058 116.943 135.043 116.095 133.973C115.829 133.617 115.662 133.629 115.322 133.893C112.839 135.857 110.203 137.623 107.439 139.174C105.828 140.058 104.171 140.831 102.313 141.089C101.609 141.189 100.893 141.153 100.202 140.985C99.1385 140.724 98.6872 139.858 99.0705 138.836C99.5157 137.642 100.35 136.708 101.216 135.806C102.969 133.985 105.015 132.502 106.96 130.894C108.567 129.573 110.159 128.232 111.773 126.918C112.03 126.709 111.989 126.534 111.9 126.276C110.73 123.054 109.984 119.695 109.68 116.283C109.488 113.723 109.386 111.156 109.417 108.581C109.47 104.144 109.417 99.705 109.417 95.2657C109.417 91.7372 109.47 88.2118 109.575 84.6894C109.649 82.1188 109.721 79.5481 109.791 76.9775C109.884 73.6188 110.02 70.2571 109.838 66.8985C109.646 63.3465 109.096 59.8374 107.856 56.488C107.683 56.0213 107.427 55.5885 107.238 55.1218C107.049 54.6552 106.824 54.6951 106.462 54.8578C105.902 55.1424 105.453 55.6034 105.185 56.1687C103.738 58.7383 103.055 61.5505 102.443 64.3995C101.302 69.723 100.659 75.1078 100.183 80.5264C99.8341 84.5175 99.3704 88.4871 99.0921 92.4812C98.817 96.4139 98.7397 100.353 98.6624 104.292C98.5388 110.613 98.477 116.937 97.8401 123.24C97.5959 125.632 97.5959 128.045 97.2218 130.427C97.1384 131.064 96.9592 131.685 96.6901 132.269C96.313 133.036 95.7194 133.439 94.8569 133.693C93.5926 134.071 92.458 134.071 91.3049 133.429C90.1518 132.788 89.4501 131.661 88.8751 130.504C87.9662 128.699 87.6633 126.728 87.2985 124.766C86.4082 119.983 86.1145 115.138 85.7528 110.3C85.4127 105.606 85.1098 100.905 85.0943 96.199C85.0943 92.1312 85.1438 88.0665 85.2087 84.0017C85.2825 80.2268 85.1411 76.4508 84.7852 72.6917C84.3458 68.5251 83.54 64.4047 82.377 60.3777C81.9031 58.7416 81.2359 57.167 80.3892 55.6867C80.3108 55.4971 80.179 55.3339 80.0096 55.2169C79.8401 55.0998 79.6403 55.0337 79.434 55.0267C79.2832 55.0113 79.1312 55.0383 78.9951 55.1045C78.8591 55.1707 78.7444 55.2735 78.6642 55.4012C77.6671 56.6888 76.975 58.1831 76.6394 59.7729C75.5821 64.378 74.4074 68.9647 73.5882 73.6188C73.0997 76.3819 72.9421 79.1787 72.7473 81.9724C72.2774 88.7971 71.7735 95.6218 71.3655 102.45C71.146 106.134 70.8616 109.818 70.6915 113.502C70.5184 117.315 70.4535 121.131 70.0918 124.928C69.9592 126.771 69.6769 128.599 69.2479 130.396C69.1302 130.946 68.9212 131.472 68.6296 131.953C68.1751 132.64 67.6712 133.254 66.7562 133.365C66.4069 133.418 66.0674 133.521 65.7484 133.672C64.0945 134.39 62.0387 133.11 61.5658 131.419C60.9659 129.307 60.5918 127.139 60.4498 124.95C60.1406 119.894 60.2519 114.834 60.4188 109.775C60.4807 107.911 60.4559 106.042 60.4807 104.175C60.5549 99.1156 60.8238 94.0592 60.7156 88.9967C60.6043 83.6487 60.6878 78.2914 60.0602 72.968C59.7511 70.3523 59.442 67.7274 58.8824 65.1578C58.5207 63.4908 57.4727 62.0878 56.1002 60.9733C54.3474 59.5519 52.3039 58.6493 50.2791 57.7129C49.2584 57.284 48.3178 56.6872 47.4968 55.9477C47.0175 55.4972 46.6512 54.9414 46.4273 54.3249C46.2035 53.7084 46.1284 53.0483 46.2081 52.3977C46.2878 51.7472 46.52 51.1242 46.8861 50.5789C47.2522 50.0336 47.7419 49.5812 48.316 49.258C49.8619 48.3755 51.6294 47.9494 53.4107 48.03C56.2857 48.0669 59.0184 48.6717 61.4699 50.2005C65.0281 52.4171 67.087 55.7266 68.2091 59.6686C68.3421 60.1444 68.4534 60.6295 68.577 61.1084C68.577 61.1084 68.6141 61.1268 68.6389 61.1391C69.1304 59.1159 69.4055 57.0437 70.1845 55.0881C71.1954 52.5614 72.5402 50.2374 74.7072 48.5519C77.9841 45.9976 81.4248 45.6538 84.7975 48.2726C86.1904 49.3444 87.3477 50.688 88.1981 52.2206C89.2256 54.1662 90.091 56.192 90.7856 58.2778C91.787 61.1451 92.5997 64.0739 93.2185 67.0459C93.4782 66.7849 93.4658 66.4564 93.5493 66.1709C94.9528 61.3202 96.5912 56.5617 99.1354 52.1592C100.052 50.6008 101.101 49.1237 102.273 47.7445C104.972 44.5117 108.329 44.3675 111.727 46.406C113.986 47.7599 115.291 49.8874 116.317 52.239C117.511 54.9652 118.008 57.8695 118.636 60.7431C119.721 65.7043 120.166 70.7422 120.608 75.7863C121.1 81.4137 121.131 87.0564 121.087 92.6992C121.087 94.1912 121.01 95.6833 120.982 97.1753C120.93 97.6289 120.95 98.0878 121.041 98.5353Z"
        fill="#F8F2EA" />
    <path
        d="M120.732 118.116C120.704 115.562 121.712 113.266 122.518 110.917C124.246 105.901 127.186 101.645 130.772 97.7895C131.084 97.4835 131.414 97.1955 131.759 96.9268C133.113 95.7848 134.643 95.7725 136.235 96.2821C137.091 96.5584 137.515 97.1417 137.607 98.075C137.704 98.9587 137.62 99.8527 137.359 100.703C137.099 101.554 136.668 102.343 136.093 103.024C134.528 105.013 133.075 107.092 131.425 109.02C129.938 110.757 128.216 112.277 126.63 113.932C124.954 115.666 123.251 117.376 121.563 119.096C121.485 119.165 121.411 119.24 121.344 119.32C121.205 119.522 120.988 119.418 120.83 119.412C120.673 119.406 120.744 119.179 120.738 119.053C120.707 118.739 120.732 118.426 120.732 118.116ZM122.104 116.581C124.42 114.432 126.791 112.338 128.976 110.057C130.617 108.347 132.152 106.54 133.573 104.645C134.547 103.343 135.397 101.962 135.521 100.27C135.56 99.939 135.506 99.6035 135.364 99.3011C135.223 98.9986 135 98.7411 134.72 98.557C134.154 98.1671 133.641 98.4803 133.174 98.7873C132.825 99.0114 132.491 99.2631 132.16 99.5149C129.477 101.575 127.687 104.384 125.978 107.19C124.237 110.06 123.195 113.29 121.959 116.4C121.891 116.495 121.795 116.615 121.903 116.707C122.011 116.799 122.045 116.664 122.092 116.584L122.104 116.581Z"
        fill="#F8F2EA" />
    <path
        d="M89.3111 124.533L88.6062 114.457C88.5011 112.986 88.6619 111.522 88.6588 110.054C88.6588 107.426 88.5197 104.801 88.4331 102.176L88.6495 102.161C89.1812 106.969 89.0236 111.798 89.1998 116.618C89.2894 119.016 89.1998 121.42 89.4038 123.814C89.4254 124.041 89.444 124.269 89.4625 124.496L89.3111 124.533Z"
        fill="#F8F2EA" />
    <path
        d="M130.624 95.6926C130.463 96.0155 130.236 96.301 129.956 96.5308C129.354 97.0742 128.72 97.593 128.129 98.1395C126.045 100.095 124.258 102.341 122.825 104.808C122.67 105.053 122.499 105.288 122.311 105.511C122.243 105.597 122.16 105.741 122.002 105.637C121.951 105.599 121.916 105.544 121.902 105.483C121.889 105.421 121.898 105.357 121.928 105.302C122.016 105.068 122.119 104.84 122.237 104.62C124.092 101.434 126.324 98.5631 129.227 96.2452C129.539 95.9682 129.897 95.7461 130.284 95.5883C130.426 95.5269 130.569 95.5084 130.624 95.6926Z"
        fill="#F8F2EA" />
    <path
        d="M50.2942 55.0975C49.2246 54.4221 48.9464 53.2554 49.5152 52.0888C49.881 51.3118 50.5164 50.6916 51.3051 50.342C52.6915 49.6994 54.217 49.4093 55.7443 49.4977C55.7165 49.8047 55.4908 49.7157 55.3208 49.7372C53.9302 49.931 52.6144 50.4812 51.503 51.3336C50.2478 52.2607 49.9387 53.3936 50.2942 55.0975Z"
        fill="#F8F2EA" />
    <path
        d="M102.749 137.043C104.313 135.127 106.248 133.617 108.205 132.131C109.915 130.841 111.643 129.58 113.368 128.309C113.397 128.294 113.43 128.287 113.462 128.287C113.495 128.287 113.527 128.294 113.557 128.309C110.066 131.357 106.446 134.249 102.829 137.135C102.802 137.11 102.777 137.083 102.749 137.043Z"
        fill="#F8F2EA" />
    <path
        d="M112.524 50.8117C111.581 50.167 110.703 49.421 109.606 49.028C108.451 48.581 107.184 48.5048 105.983 48.81C105.881 48.8379 105.778 48.8595 105.673 48.8745C105.608 48.8792 105.541 48.8792 105.476 48.8745C106.477 47.6987 108.703 47.2996 110.026 48.0855C111.114 48.7114 112.007 49.6228 112.607 50.7196L112.524 50.8117Z"
        fill="#F8F2EA" />
    <path
        d="M118.008 90.3046C118.228 87.7779 117.876 85.2513 118.008 82.7277C118.073 81.6654 118.141 80.6032 118.274 79.5471C118.488 83.1391 118.333 86.7249 118.225 90.3138C118.16 90.3782 118.083 90.3506 118.008 90.3046Z"
        fill="#F8F2EA" />
    <path
        d="M89.6541 125.816C90.0869 127.682 90.4362 129.586 91.9015 131.013C92.1557 131.27 92.4475 131.488 92.7671 131.658C92.4347 131.777 92.0702 131.774 91.74 131.649C91.4098 131.524 91.1358 131.285 90.9679 130.976C90.2352 129.819 89.9199 128.52 89.6788 127.194C89.5922 126.728 89.5273 126.258 89.4531 125.788L89.6541 125.816Z"
        fill="#F8F2EA" />
    <path
        d="M118.688 95.0295C118.583 97.0312 118.459 99.0206 118.379 101.031C118.384 101.265 118.33 101.496 118.222 101.704C118.114 101.911 117.956 102.089 117.761 102.22C118.379 99.871 118.252 97.458 118.496 95.0817L118.688 95.0295Z"
        fill="#F8F2EA" />
    <path
        d="M120.602 103.417C119.878 104.462 119.274 105.585 118.799 106.763C118.184 105.756 119.331 103.521 120.602 103.417Z"
        fill="#F8F2EA" />
    <path
        d="M63.5409 127.219C63.0652 124.781 62.8846 122.295 63.003 119.814C63.04 122.077 63.2595 124.652 63.5409 127.219Z"
        fill="#F8F2EA" />
    <path
        d="M117.48 74.54C118.015 76.3821 117.894 78.7276 117.659 80.0446C117.61 78.7337 117.378 76.4005 117.48 74.54Z"
        fill="#F8F2EA" />
    <path
        d="M115.872 122.196C115.492 121.177 115.68 119.891 116.456 117.92C116.713 119.43 116.033 120.772 115.872 122.196Z"
        fill="#F8F2EA" />
    <path
        d="M68.8149 83.6887C68.7191 86.3811 68.5831 89.0705 68.2646 91.7445C68.292 89.051 68.4757 86.3612 68.8149 83.6887Z"
        fill="#555555" />
    <path
        d="M116.404 60.8352C116.827 62.6987 116.908 64.6021 117.081 66.4933C116.724 64.6251 116.498 62.7345 116.404 60.8352Z"
        fill="#555555" />
    <path
        d="M65.8779 126.768C65.9919 127.838 65.8706 128.92 65.5224 129.939C65.2442 129.746 65.0061 129.647 65.3029 129.257C65.7079 128.72 65.4945 128.008 65.7171 127.415C65.7824 127.202 65.836 126.986 65.8779 126.768Z"
        fill="#F8F2EA" />
    <path
        d="M139.571 97.6267C139.611 96.7609 139.673 95.9167 138.974 95.1277C140.09 95.6649 140.245 96.4417 139.571 97.6267Z"
        fill="#F8F2EA" />
    <path
        d="M94.4549 121.935C94.3869 123.031 94.3158 124.127 94.2385 125.398C93.9479 124.106 94.1674 123.016 94.4549 121.935Z"
        fill="#F8F2EA" />
    <path
        d="M117.795 70.4229L117.303 66.0051C117.666 67.4477 117.904 68.9185 118.014 70.4014L117.795 70.4229Z"
        fill="#555555" />
    <path
        d="M92.0685 72.7163C91.8624 71.6254 91.647 70.5376 91.4224 69.4528L91.5738 69.4221C91.8781 70.495 92.0443 71.6019 92.0685 72.7163Z"
        fill="#F8F2EA" />
    <path
        d="M69.1058 67.706C69.0903 68.5012 68.7966 69.241 68.6791 70.0178L68.5215 69.9871L68.9295 67.6907L69.1058 67.706Z"
        fill="#F8F2EA" />
    <path
        d="M91.5921 94.6425C91.5334 93.6325 91.3695 92.6316 91.4437 91.6216C91.6725 92.1773 91.756 93.5005 91.5921 94.6425Z"
        fill="#555555" />
    <path
        d="M122.38 119.577C122.176 119.975 121.885 120.324 121.529 120.597C121.421 120.689 121.26 120.772 121.146 120.621C121.032 120.471 121.208 120.373 121.313 120.314C121.675 120.078 121.931 119.7 122.392 119.599L122.38 119.577Z"
        fill="#F8F2EA" />
    <path
        d="M70.1009 74.012C70.1257 75.0312 69.8598 76.0044 69.6465 76.9868C69.6506 75.98 69.8059 74.9795 70.1071 74.0181L70.1009 74.012Z"
        fill="#555555" />
    <path
        d="M118.008 90.3047C118.082 90.3507 118.16 90.3906 118.237 90.3047C118.307 90.9798 118.243 91.662 118.048 92.3125C117.951 91.6475 117.937 90.973 118.008 90.3047Z"
        fill="#555555" />
    <path d="M114.568 98.9285V101.004C114.289 100.556 114.289 100.525 114.568 98.9285Z"
        fill="#555555" />
    <path
        d="M90.7856 66.0513C91.0808 66.6835 91.2115 67.3791 91.1659 68.0745C90.8834 67.4363 90.7552 66.7413 90.7918 66.0452L90.7856 66.0513Z"
        fill="#555555" />
    <path
        d="M115.504 79.5932C115.446 79.0897 115.384 78.5831 115.337 78.0766C115.337 77.966 115.307 77.7972 115.464 77.7696C115.622 77.7419 115.634 77.9139 115.634 78.0305C115.634 78.5586 115.634 79.0866 115.634 79.6147L115.504 79.5932Z"
        fill="#555555" />
    <path
        d="M71.5789 59.7024C71.4927 60.2972 71.2956 60.8709 70.9977 61.394C70.992 60.7809 71.197 60.1842 71.5789 59.7024Z"
        fill="#555555" />
    <path
        d="M118.688 95.0293L118.518 95.0815C118.445 94.5565 118.509 94.0216 118.704 93.5281C118.731 94.0285 118.858 94.5289 118.688 95.0293Z"
        fill="#555555" />
    <path
        d="M120.497 131.271L119.569 130.065C120.169 130.249 120.212 130.752 120.497 131.026V131.271Z"
        fill="#F8F2EA" />
    <path
        d="M120.021 114.094C120.074 113.689 119.879 113.238 120.281 112.851C120.182 113.318 120.114 113.711 120.021 114.094Z"
        fill="#F8F2EA" />
    <path
        d="M88.6494 102.161L88.433 102.177C88.349 101.677 88.3595 101.165 88.4639 100.669C88.6301 101.148 88.6933 101.656 88.6494 102.161Z"
        fill="#555555" />
    <path
        d="M89.6541 125.816L89.4532 125.788C89.329 125.382 89.2808 124.956 89.311 124.532L89.4625 124.496C89.5911 124.924 89.6557 125.369 89.6541 125.816Z"
        fill="#555555" />
    <path
        d="M121.659 132.505C121.857 132.693 122.129 132.812 122.135 133.153C122.005 133.108 121.887 133.034 121.789 132.937C121.692 132.84 121.619 132.721 121.576 132.591L121.659 132.505Z"
        fill="#555555" />
    <path
        d="M121.041 131.987L120.698 131.572L120.809 131.456C120.966 131.552 121.087 131.698 121.152 131.87L121.041 131.987Z"
        fill="#555555" />
    <path
        d="M71.7948 59.064C71.8409 59.1492 71.8531 59.2485 71.8291 59.3423C71.805 59.4361 71.7465 59.5175 71.665 59.5705C71.5228 59.371 71.6557 59.2543 71.7948 59.064Z"
        fill="#555555" />
    <path
        d="M120.497 131.271L120.518 131.026C120.598 131.071 120.668 131.133 120.721 131.208C120.774 131.283 120.811 131.368 120.827 131.459L120.716 131.572C120.605 131.495 120.5 131.419 120.497 131.271Z"
        fill="#555555" />
    <path
        d="M70.1073 74.0201L70.1384 73.6436C70.1632 73.669 70.1821 73.6995 70.1938 73.733C70.2055 73.7665 70.2097 73.8021 70.2062 73.8373C70.2026 73.8726 70.1914 73.9066 70.1732 73.9371C70.1551 73.9676 70.1305 73.9938 70.1011 74.0139L70.1073 74.0201Z"
        fill="#555555" />
    <path d="M121.45 132.461L121.217 132.187L121.326 132.079L121.541 132.372L121.45 132.461Z"
        fill="#555555" />
    <path
        d="M90.7924 66.0469L90.7144 65.9658L90.7643 65.9377C90.7643 65.9783 90.78 66.0157 90.7862 66.0532L90.7924 66.0469Z"
        fill="#555555" />
    <path
        d="M70.9424 61.5677L70.9141 61.6092C70.9141 61.5932 70.9141 61.5773 70.9141 61.5613C70.9141 61.5453 70.9298 61.5326 70.9392 61.5198L70.9424 61.5677Z"
        fill="#555555" />
    <path
        d="M112.614 50.7227C112.729 50.769 112.741 50.8461 112.689 50.948L112.524 50.8122L112.614 50.7227Z"
        fill="#F8F2EA" />
    <path
        d="M121.165 131.87L121.327 132.08L121.218 132.188C121.162 132.123 121.109 132.055 121.053 131.987L121.165 131.87Z"
        fill="#555555" />
    <path
        d="M102.831 137.142C102.79 137.268 102.713 137.281 102.604 137.222L102.75 137.052C102.778 137.083 102.803 137.111 102.831 137.142Z"
        fill="#F8F2EA" />
    <path
        d="M122.56 119.514L122.38 119.579C122.361 119.374 122.464 119.461 122.551 119.508L122.56 119.514Z"
        fill="#F8F2EA" />
    <path
        d="M121.539 132.37L121.651 132.506L121.573 132.586C121.533 132.543 121.492 132.5 121.449 132.46L121.539 132.37Z"
        fill="#555555" />
    <path d="M122.126 133.154L122.181 133.174L122.133 133.147L122.126 133.154Z" fill="#555555" />
    <path
        d="M122.093 116.585C122.047 116.665 121.981 116.789 121.894 116.718C121.807 116.647 121.894 116.511 121.95 116.409L122.093 116.585Z"
        fill="#555555" />
    <defs>
        <filter id="filter0_d_43_57780" x="0" y="0" width="192" height="188.38"
            filterUnits="userSpaceOnUse" color-interpolation-filters="sRGB">
            <feFlood flood-opacity="0" result="BackgroundImageFix" />
            <feColorMatrix in="SourceAlpha" type="matrix"
                values="0 0 0 0 0 0 0 0 0 0 0 0 0 0 0 0 0 0 127 0" result="hardAlpha" />
            <feOffset dx="5" dy="4" />
            <feGaussianBlur stdDeviation="2" />
            <feComposite in2="hardAlpha" operator="out" />
            <feColorMatrix type="matrix" values="0 0 0 0 0 0 0 0 0 0 0 0 0 0 0 0 0 0 0.25 0" />
            <feBlend mode="normal" in2="BackgroundImageFix" result="effect1_dropShadow_43_57780" />
            <feBlend mode="normal" in="SourceGraphic" in2="effect1_dropShadow_43_57780"
                result="shape" />
        </filter>
    </defs>
</svg>