<svg width="108" height="106" viewBox="0 0 108 106" fill="none" xmlns="http://www.w3.org/2000/svg">
<g filter="url(#filter0_d_2409_117000)">
<path d="M0 48.7356C0.179723 36.3598 4.33568 25.4631 12.7451 16.2457C19.5989 8.73471 28.0814 3.91028 37.9479 1.45613C40.991 0.699379 44.0839 0.259875 47.2163 0.0830638C53.6934 -0.283694 59.9969 0.556919 66.1096 2.74736C72.3653 4.98933 77.8931 8.40533 82.7182 12.9519C86.8244 16.8206 90.0259 21.3388 92.6273 26.3239C95.3059 31.4585 97.0462 36.8639 97.8271 42.5896C98.1774 45.1569 98.3348 47.7353 98.2495 50.3218C97.8545 62.3642 93.6477 72.9042 85.4445 81.7761C78.4942 89.2921 69.9416 94.1216 59.9015 96.3019C57.0219 96.9273 54.1077 97.3193 51.157 97.384C37.9662 97.674 26.335 93.576 16.4167 84.9153C8.54038 78.0368 3.54267 69.3993 1.20526 59.2412C0.480276 56.0929 0.0913845 52.8982 0.0467076 49.6651C0.0426461 49.3721 0.0182769 49.0801 0.00101538 48.7366L0 48.7356Z" fill="#060000"/>
<path d="M50.8649 92.0734C44.0476 92.1967 37.6893 91.0812 31.5919 88.5988C27.2177 86.8186 23.1307 84.5382 19.5739 81.4081C13.7263 76.2634 9.45049 70.0397 6.75668 62.7459C5.57985 59.5613 4.79191 56.2807 4.37256 52.9162C3.95828 49.6002 3.83339 46.2701 4.2893 42.9552C4.90259 38.4975 6.21649 34.2328 8.18024 30.1752C12.0529 22.1732 17.7665 15.7797 25.2986 11.0351C30.2861 7.89392 35.7144 5.80249 41.5325 4.74263C44.3969 4.22028 47.2857 3.97477 50.1958 4.00205C54.7041 4.04448 59.1321 4.66484 63.413 6.08135C66.3942 7.06745 69.1702 8.52034 71.798 10.2339C80.3262 15.7959 86.3749 23.3715 90.1775 32.7486C91.8275 36.8173 92.855 41.0436 93.2663 45.4164C93.4653 47.528 93.577 49.6447 93.3983 51.7594C93.1861 54.2711 92.6784 56.7353 91.991 59.1612C89.95 66.3539 86.3454 72.6736 81.2086 78.1184C75.8382 83.8108 69.419 87.9047 61.9783 90.377C59.7434 91.1196 57.4121 91.4874 55.0727 91.7683C53.5963 91.9451 52.1138 92.0239 50.8649 92.0744V92.0734Z" fill="#F8F2EA"/>
<path d="M51.4672 88.9916C45.1442 89.1049 39.2468 88.0792 33.5915 85.7963C29.5344 84.1592 25.7438 82.0622 22.4447 79.1839C17.0211 74.4528 13.0553 68.7295 10.5568 62.0223C9.46531 59.0937 8.7345 56.0769 8.34555 52.9829C7.96131 49.9336 7.84547 46.8712 8.26832 43.8228C8.83715 39.7236 10.0558 35.8018 11.8772 32.0705C15.4691 24.7119 20.7684 18.8325 27.7544 14.4694C32.3804 11.5808 37.4151 9.65756 42.8114 8.68292C45.4681 8.20257 48.1474 7.97679 50.8466 8.00188C55.028 8.0409 59.135 8.61138 63.1055 9.91399C65.8706 10.8208 68.4454 12.1569 70.8827 13.7326C78.7926 18.8474 84.4027 25.8139 87.9296 34.4369C89.46 38.1785 90.413 42.0649 90.7944 46.0861C90.979 48.028 91.0826 49.9745 90.9169 51.9191C90.72 54.2289 90.2492 56.495 89.6116 58.7258C87.7186 65.3401 84.3754 71.1517 79.6109 76.1587C74.6299 81.3933 68.6761 85.158 61.7748 87.4316C59.702 88.1145 57.5397 88.4527 55.3699 88.711C54.0005 88.8736 52.6256 88.946 51.4672 88.9925V88.9916Z" fill="#181818"/>
<path d="M12.2105 18.7033C13.2472 17.1493 14.4199 15.6985 15.6729 14.3163C16.3685 13.5495 17.196 12.9129 18.0479 12.2168C16.204 14.5275 14.2016 16.6159 12.2968 18.7891C12.2216 18.8063 12.182 18.7891 12.2105 18.7033Z" fill="#F8F2EA"/>
<path d="M77.2538 13.7354C79.4988 15.555 81.5366 17.5798 83.3461 19.8298C83.3613 19.9036 83.34 19.941 83.2577 19.9137C81.3234 17.7879 79.2419 15.8076 77.1583 13.8294C77.1441 13.7526 77.1705 13.7152 77.2527 13.7354H77.2538Z" fill="#F8F2EA"/>
<path d="M95.7131 45.1088C95.9578 46.9981 96.0857 48.8925 95.8999 50.794C95.8309 51.5073 95.7212 52.2166 95.6298 52.9279C95.4176 52.8288 95.5587 52.6662 95.5567 52.5288C95.6694 50.7627 95.773 48.9966 95.712 47.2254C95.6887 46.5475 95.6582 45.8695 95.6298 45.1916C95.6024 45.1098 95.6379 45.0896 95.7131 45.1077V45.1088Z" fill="#F8F2EA"/>
<path d="M53.563 93.3994C52.5202 93.5338 51.4784 93.6722 50.4346 93.8015C49.4537 93.9238 48.4698 94.0258 47.4899 94.1612C47.231 94.1976 46.9843 94.1572 46.7325 94.1511C46.6583 94.1491 46.5192 94.2148 46.5365 94.048C46.5477 93.942 46.635 93.9005 46.7396 93.8935C47.1132 93.8692 47.4859 93.8308 47.8606 93.8177C49.5451 93.7591 51.2174 93.5671 52.8877 93.3539C53.1101 93.3256 53.3345 93.2903 53.563 93.3984V93.3994Z" fill="#F8F2EA"/>
<path d="M29.4251 7.44282C31.4397 6.3183 33.642 5.68582 35.8302 5.01798C35.9175 4.98868 35.9388 5.02808 35.9236 5.10689C33.7608 5.84849 31.6072 6.61736 29.5094 7.5287C29.4262 7.55295 29.4058 7.51759 29.4251 7.44282Z" fill="#F8F2EA"/>
<path d="M74.9835 84.9158C76.7431 83.3821 78.5444 81.8928 80.1751 80.2136C79.7811 80.9795 76.0912 84.3399 74.9835 84.9158Z" fill="#F8F2EA"/>
<path d="M82.855 15.5498C83.6246 16.1126 86.5804 19.566 86.9927 20.351C85.5061 18.8436 84.3374 17.0633 82.855 15.5498Z" fill="#F8F2EA"/>
<path d="M75.2201 10.8758C74.154 10.2595 73.0889 9.64219 72.0227 9.02588C73.1975 9.45326 74.4403 9.76041 75.2201 10.8758Z" fill="#F8F2EA"/>
<path d="M11.9669 21.2563C12.697 20.2106 13.5215 19.2366 14.3399 18.2596C14.3968 18.1909 14.4455 18.0292 14.5805 18.1303C14.7298 18.2424 14.5978 18.3323 14.5227 18.4212C13.6992 19.3952 12.8757 20.3702 12.0533 21.3452C11.9812 21.3573 11.9405 21.3381 11.968 21.2563H11.9669Z" fill="#F8F2EA"/>
<path d="M95.0992 56.8017C94.887 58.206 94.558 59.5832 94.1123 60.933C94.0879 60.9623 94.0625 60.9633 94.0351 60.936C94.3915 59.4781 94.754 58.0222 95.0109 56.542C95.2028 56.5733 95.0941 56.7067 95.0992 56.8006V56.8017Z" fill="#F8F2EA"/>
<path d="M83.2592 19.9134C83.2886 19.8852 83.3181 19.8579 83.3475 19.8296C84.3324 20.9551 85.1914 22.1726 86.0068 23.4224C86.0342 23.5012 85.9966 23.5143 85.9296 23.4982C85.1072 22.2534 84.174 21.0905 83.2592 19.9134Z" fill="#F8F2EA"/>
<path d="M95.0996 56.8013C95.06 56.7185 95.1168 56.6023 95.0112 56.5427C95.193 55.205 95.3747 53.8672 95.5565 52.5295C95.6073 52.6579 95.5291 52.8094 95.6296 52.9286C95.4529 54.2199 95.2762 55.5101 95.1006 56.8013H95.0996Z" fill="#F8F2EA"/>
<path d="M93.641 62.4604C93.4197 63.5728 92.9495 64.6013 92.5576 65.6562C92.4886 65.8421 92.4083 66.0239 92.3332 66.2078C92.2662 66.2169 92.2185 66.2098 92.2631 66.125C92.7191 64.8873 93.1983 63.6567 93.5781 62.3927C93.6085 62.3816 93.639 62.3715 93.6593 62.4069C93.6674 62.421 93.6562 62.4412 93.642 62.4604H93.641Z" fill="#F8F2EA"/>
<path d="M94.3382 35.571C94.7129 36.7299 95.0733 37.8928 95.1109 39.1214C94.853 37.9383 94.5961 36.7552 94.3382 35.571Z" fill="#F8F2EA"/>
<path d="M45.657 2.95889C46.5343 2.87402 47.4076 2.73662 48.2889 2.71338C48.293 2.76188 48.2981 2.80936 48.3021 2.85786C47.4482 2.9205 46.5942 2.98314 45.7393 3.04578C45.6581 3.067 45.6347 3.03366 45.656 2.95788L45.657 2.95889Z" fill="#F8F2EA"/>
<path d="M2.18324 48.0872V50.4746C2.14071 50.4746 2.09818 50.4726 2.05565 50.4716C1.87542 49.6128 2.19134 48.7702 2.18324 48.0872Z" fill="#F8F2EA"/>
<path d="M4.68256 33.5038C4.52213 33.9383 4.35764 34.3727 4.20229 34.8092C4.16167 34.9234 4.11293 35.0153 3.9789 34.9618C3.80629 34.8921 3.93727 34.793 3.97586 34.7142C4.17386 34.3081 4.37693 33.906 4.57899 33.5018C4.61453 33.4685 4.64906 33.4695 4.68358 33.5048L4.68256 33.5038Z" fill="#F8F2EA"/>
<path d="M38.0845 3.81561C37.3046 4.00859 36.5258 4.20157 35.746 4.39555C36.4497 4.00455 37.2254 3.86916 38.0012 3.73175C38.0804 3.70952 38.1038 3.74185 38.0845 3.81662V3.81561Z" fill="#F8F2EA"/>
<path d="M3.94923 60.6205C3.57557 59.8708 3.46997 59.0464 3.36133 58.2219C3.5573 59.0211 3.75327 59.8213 3.94923 60.6205Z" fill="#F8F2EA"/>
<path d="M11.9666 21.2563C11.995 21.2856 12.0235 21.316 12.0519 21.3453C11.6955 21.8333 11.3391 22.3223 10.9827 22.8103C10.9522 22.7901 10.9228 22.7699 10.8923 22.7496C11.2365 22.2435 11.5635 21.7252 11.9666 21.2563Z" fill="#F8F2EA"/>
<path d="M18.4482 83.1343C18.9255 83.5111 19.4027 83.888 19.8799 84.2649C19.1336 83.9224 18.6716 83.5556 18.4482 83.1343Z" fill="#F8F2EA"/>
<path d="M55.6032 2.2515C55.061 2.21109 54.5178 2.16966 53.936 2.12622C54.534 1.81503 55.0661 2.18078 55.6134 2.15249C55.6093 2.18482 55.6063 2.21816 55.6022 2.25049L55.6032 2.2515Z" fill="#F8F2EA"/>
<path d="M65.5507 6.29419C66.1772 6.37401 66.7204 6.61346 67.2149 6.97315C66.6605 6.74683 66.1051 6.52051 65.5507 6.29419Z" fill="#F8F2EA"/>
<path d="M35.9236 5.10698C35.8921 5.07768 35.8617 5.04737 35.8302 5.01807C36.2851 4.80994 36.7715 4.72002 37.2497 4.60181C37.2599 4.63414 37.27 4.66647 37.2802 4.6988C36.8273 4.8352 36.3755 4.97059 35.9226 5.10698H35.9236Z" fill="#F8F2EA"/>
<path d="M58.3547 93.0115C58.7416 92.8973 59.1284 92.7821 59.5153 92.668C59.2848 93.066 58.8604 92.9751 58.5222 93.0984C58.439 93.1206 58.3445 93.1661 58.3547 93.0115Z" fill="#F8F2EA"/>
<path d="M50.8643 94.7181C51.4847 94.707 52.0969 94.5322 52.7234 94.6494C52.103 94.6605 51.4928 94.8616 50.8643 94.7181Z" fill="#F8F2EA"/>
<path d="M17.0533 80.6904C17.4056 81.0198 17.759 81.3502 18.1113 81.6796C18.089 81.7028 18.0656 81.727 18.0433 81.7503C17.6534 81.4583 17.3122 81.1168 17.0533 80.6904Z" fill="#F8F2EA"/>
<path d="M19.1772 82.715C18.8025 82.4594 18.4634 82.1654 18.1771 81.8127C18.569 82.0461 18.9112 82.3391 19.2341 82.6564C19.2422 82.7008 19.2229 82.721 19.1772 82.715Z" fill="#F8F2EA"/>
<path d="M5.99768 67.2808C5.74993 66.8776 5.58747 66.4422 5.5235 65.9663C5.70221 66.3866 5.88091 66.8079 6.05962 67.2282C6.05962 67.2697 6.03931 67.2868 5.9987 67.2818L5.99768 67.2808Z" fill="#F8F2EA"/>
<path d="M77.2542 13.7353C77.2227 13.7666 77.1912 13.7979 77.1598 13.8292C76.9171 13.609 76.6744 13.3887 76.4327 13.1685C76.7688 13.2786 77.0278 13.4857 77.2552 13.7353H77.2542Z" fill="#F8F2EA"/>
<path d="M85.9294 23.4984C85.9548 23.4731 85.9812 23.4479 86.0065 23.4226C86.2716 23.7156 86.4533 24.0571 86.5802 24.437C86.3629 24.1238 86.1467 23.8106 85.9294 23.4984Z" fill="#F8F2EA"/>
<path d="M38.0846 3.81582C38.0572 3.78753 38.0288 3.75924 38.0013 3.73095C38.3943 3.60162 38.7933 3.50261 39.2096 3.49756C39.2188 3.50766 39.2269 3.51878 39.236 3.52888C38.8675 3.68649 38.4715 3.73095 38.0846 3.81481V3.81582Z" fill="#F8F2EA"/>
<path d="M25.0624 86.7573C25.3528 86.9261 25.6443 87.0948 25.9347 87.2625C25.5823 87.2059 25.2858 87.0422 25.0624 86.7573Z" fill="#F8F2EA"/>
<path d="M58.3546 93.0115C58.3749 93.1085 58.4663 93.0691 58.5222 93.0984C58.1749 93.1792 57.8286 93.261 57.4814 93.3419C57.7474 93.1499 58.048 93.0711 58.3546 93.0115Z" fill="#F8F2EA"/>
<path d="M95.7122 45.1088C95.6848 45.1371 95.6575 45.1643 95.6291 45.1926C95.5218 44.8986 95.5512 44.5985 95.6241 44.2944L95.7122 45.1088Z" fill="#F8F2EA"/>
<path d="M20.413 83.6797C20.1449 83.5211 19.8901 83.3453 19.6768 83.1169C19.6748 83.0775 19.6951 83.0634 19.7327 83.0725C19.9987 83.1877 20.1876 83.4049 20.411 83.5766C20.4465 83.61 20.4475 83.6443 20.413 83.6797Z" fill="#F8F2EA"/>
<path d="M29.4253 7.44291C29.4538 7.47119 29.4812 7.5005 29.5096 7.52878C29.2954 7.67731 29.0578 7.77026 28.7988 7.81067C28.9826 7.64194 29.1898 7.51868 29.4243 7.44189L29.4253 7.44291Z" fill="#F8F2EA"/>
<path d="M45.6571 2.95874C45.6845 2.98804 45.713 3.01734 45.7404 3.04664C45.4733 3.18203 45.1951 3.11636 44.9128 3.05371C45.1606 3.02239 45.4094 2.99006 45.6571 2.95874Z" fill="#F8F2EA"/>
<path d="M4.68193 33.5027C4.6475 33.5027 4.61206 33.5007 4.57764 33.4997C4.67991 33.2747 4.78218 33.0497 4.88445 32.8257C4.87736 33.0759 4.83685 33.31 4.68193 33.5027Z" fill="#F8F2EA"/>
<path d="M6.39227 29.1562C6.51513 28.9066 6.638 28.6561 6.76086 28.4065C6.79132 28.4206 6.8228 28.4348 6.85326 28.4489C6.73649 28.7015 6.66338 28.9743 6.39227 29.1562Z" fill="#F8F2EA"/>
<path d="M92.928 36.6167C92.8683 36.3786 92.8085 36.1405 92.7488 35.9023C92.924 36.0789 92.9989 36.2888 93.0019 36.5229C93.0404 36.6036 93.0019 36.6248 92.927 36.6167H92.928Z" fill="#F8F2EA"/>
<path d="M92.2625 66.1252C92.2858 66.1525 92.3092 66.1808 92.3325 66.2081C92.2574 66.4193 92.1731 66.6254 91.97 66.8497C92.0452 66.5506 92.1355 66.3314 92.2625 66.1252Z" fill="#F8F2EA"/>
<path d="M12.2104 18.7031C12.2389 18.7314 12.2683 18.7607 12.2967 18.789C12.2003 19.0072 12.0256 19.1618 11.8469 19.3174C11.919 19.083 12.0348 18.8759 12.2104 18.7031Z" fill="#F8F2EA"/>
<path d="M6.05825 67.2283C6.18584 67.4503 6.30633 67.6732 6.33266 67.9376C6.17875 67.7398 6.05319 67.529 5.9975 67.2817C6.01775 67.2636 6.038 67.2464 6.05825 67.2283Z" fill="#F8F2EA"/>
<path d="M20.413 83.6797C20.413 83.6454 20.412 83.611 20.4109 83.5767C20.612 83.6918 20.7958 83.8282 20.9349 84.0242C20.7409 83.9404 20.546 83.8596 20.413 83.6807V83.6797Z" fill="#F8F2EA"/>
<path d="M92.281 33.9739C92.1251 33.8033 92.0086 33.6187 92.0502 33.2988C92.1464 33.5803 92.2142 33.7771 92.281 33.9739Z" fill="#F8F2EA"/>
<path d="M92.9284 36.6175C92.9537 36.5862 92.978 36.555 93.0033 36.5237C93.1046 36.7114 93.134 36.9142 93.1026 37.1321C93.0448 36.9606 92.9861 36.789 92.9284 36.6175Z" fill="#F8F2EA"/>
<path d="M94.035 60.9359C94.0613 60.947 94.0866 60.945 94.1119 60.9329C94.0542 61.1165 93.9965 61.3011 93.9044 61.5948C93.872 61.2769 93.9246 61.1004 94.035 60.9369V60.9359Z" fill="#F8F2EA"/>
<path d="M39.2094 3.49857C39.4206 3.39248 39.6419 3.346 39.9617 3.38339C39.6663 3.443 39.4642 3.54504 39.2358 3.52989C39.2266 3.51978 39.2185 3.50867 39.2094 3.49857Z" fill="#F8F2EA"/>
<path d="M19.6768 83.1172C19.5103 82.9828 19.3438 82.8495 19.1772 82.7151C19.1965 82.6959 19.2148 82.6757 19.2341 82.6565C19.424 82.7676 19.5915 82.905 19.7327 83.0728C19.7083 83.0798 19.69 83.095 19.6768 83.1172Z" fill="#F8F2EA"/>
<path d="M93.6412 62.4598C93.6199 62.4376 93.5987 62.4144 93.5774 62.3922C93.628 62.2166 93.6786 62.041 93.7293 61.8655C93.7566 62.0754 93.7647 62.2802 93.6402 62.4598H93.6412Z" fill="#F8F2EA"/>
</g>
<path d="M48.9668 35.1112C50.5675 35.1528 52.1681 35.2713 53.7687 35.212C54.0104 35.204 54.2569 35.2408 54.5034 35.2408C55.2941 35.2408 56.0432 35.028 56.7907 34.8039C56.9218 34.774 57.0388 34.7003 57.1223 34.5949C57.2058 34.4896 57.2509 34.3589 57.2501 34.2244C57.2689 33.9891 57.2428 33.7522 57.1733 33.5266C57.0132 33.0464 56.9172 32.5422 56.6787 32.11C56.0608 30.9896 56.0528 29.8131 56.2609 28.5886C56.4354 27.5706 56.7619 26.6279 57.5062 25.8916C58.1444 25.224 58.9566 24.7483 59.8511 24.5182C60.8115 24.2942 61.8135 24.1053 62.8075 24.3326C64.208 24.6527 65.4485 25.2929 66.2984 26.479C66.817 27.2041 67.246 28.0316 67.2988 28.9392C67.3586 29.9108 67.2503 30.8855 66.9787 31.8203C66.8114 32.3077 66.7985 32.8348 66.9419 33.3297C67.2092 34.1572 67.8574 34.4998 68.6386 34.679C70.1186 35.0386 71.6392 35.2032 73.1619 35.1688C73.5285 35.1826 73.8908 35.2527 74.2359 35.3769C74.5801 35.4761 74.7257 35.7594 74.7994 36.1004C75.0059 37.0688 74.9786 38.0532 75.0251 39.0327C75.0507 39.6026 75.1371 40.174 75.1195 40.7422C75.0875 41.8834 75.2427 43.0199 75.2123 44.1547C75.1835 45.1967 75.3116 46.2356 75.2716 47.2696C75.2283 48.3436 75.3532 49.416 75.3068 50.4836C75.2571 51.5929 75.3868 52.7005 75.3164 53.8017C75.2507 54.8213 75.3868 55.8361 75.3164 56.8429C75.2475 57.9634 75.406 59.0838 75.3388 60.1914C75.2956 60.9357 75.4284 61.6848 75.2459 62.4323C75.0859 63.0838 74.8602 63.3335 74.1751 63.3207C73.6485 63.3094 73.1347 63.3991 72.6145 63.4279C71.1739 63.5111 69.7334 63.5751 68.3056 63.748C67.8489 63.803 67.3858 63.7693 66.9419 63.6488C66.4425 63.5159 66.2728 63.1014 66.2792 62.6356C66.2888 61.9425 65.9591 61.3759 65.6822 60.7837C65.202 59.7481 64.3393 59.175 63.3309 58.7028C62.8916 58.4935 62.4142 58.3758 61.9279 58.3571C61.4416 58.3384 60.9566 58.419 60.5026 58.594C58.7083 59.223 57.7175 60.9629 57.7031 62.5491C57.7031 62.8405 57.6839 63.1318 57.6823 63.4231C57.6823 63.6392 57.6102 63.7608 57.3621 63.7432C56.6659 63.684 55.976 63.8265 55.2813 63.82C54.2729 63.8104 53.2693 63.9449 52.2657 63.9017C51.1565 63.8537 50.0473 63.9673 48.9444 63.9017C47.8016 63.8296 46.6619 63.8649 45.5223 63.8585C45.2262 63.8585 44.9269 63.8088 44.6275 63.82C43.9617 63.8441 43.6047 64.1402 43.4399 64.8028C43.3254 65.3209 43.3649 65.8611 43.5535 66.357C43.8512 67.2582 44.1826 68.1513 44.3458 69.0893C44.4533 69.6673 44.429 70.2622 44.2746 70.8295C44.1202 71.3968 43.8398 71.9219 43.4543 72.3658C43.2126 72.6747 42.9488 72.9657 42.6652 73.2365C41.9081 73.9248 41.0405 74.477 40.0449 74.6595C38.065 75.0228 36.1922 74.7987 34.7629 73.1629C34.4121 72.7878 34.1025 72.3762 33.8393 71.9352C33.484 71.2993 33.2593 70.5987 33.1785 69.8747C33.0977 69.1507 33.1623 68.4178 33.3687 67.7192C33.5592 67.0357 33.9001 66.3939 34.0474 65.6896C34.0554 65.656 34.0698 65.6256 34.0778 65.5935C34.2699 64.6844 34.0362 64.3322 33.159 64.0153C32.0866 63.628 30.9918 63.6744 29.881 63.6952C28.6085 63.716 27.3344 63.812 26.0619 63.7144C25.3304 63.6584 24.959 63.2614 24.8534 62.5219C24.7525 61.8241 24.5749 61.1262 24.5941 60.4235C24.6245 59.2327 24.4212 58.0642 24.3732 56.8845C24.3396 56.1082 24.3012 55.3255 24.3348 54.5444C24.3652 53.8017 24.6933 53.2559 25.3128 53.1151C25.6329 53.043 25.9674 53.0414 26.294 52.9886C26.9905 52.8632 27.646 52.5698 28.2035 52.1339C29.1463 51.4216 29.3415 50.4244 29.0822 49.3008C28.7621 47.8986 27.8017 47.2327 26.4716 46.8998C25.905 46.7574 25.2696 46.7606 24.791 46.3156C24.5528 46.1092 24.4027 45.8193 24.3716 45.5057C24.2468 44.3036 24.2387 43.1047 24.1843 41.8915C24.1219 40.4957 24.1843 39.0968 24.2387 37.7042C24.2556 37.1146 24.3091 36.5265 24.3988 35.9435C24.474 35.4969 24.6021 35.4185 25.0727 35.3833C25.5753 35.3433 26.0779 35.3161 26.5821 35.3097C28.0787 35.2905 29.5752 35.4057 31.0734 35.2857C31.568 35.2472 32.0754 35.2713 32.578 35.2505C33.1943 35.2264 33.7481 34.9751 34.3259 34.8183C34.3968 34.7831 34.4554 34.7273 34.494 34.6582C34.6503 34.4594 34.7403 34.2166 34.7515 33.964C34.7627 33.7113 34.6945 33.4615 34.5564 33.2497C34.4219 33.0304 34.2763 32.8175 34.1402 32.5998C33.5704 31.6987 33.0054 30.7607 32.9382 29.6899C32.8309 27.9932 33.3687 26.4886 34.8253 25.4866C35.6256 24.944 36.5572 24.6575 37.5288 24.4798C38.4758 24.2848 39.4546 24.3061 40.3923 24.5423C41.3527 24.7984 42.313 25.1121 43.1053 25.7395C43.8112 26.2981 44.3154 27.0376 44.349 27.958C44.3802 28.7521 44.2657 29.5452 44.0113 30.2981C43.7856 30.964 43.5599 31.6298 43.371 32.3053C42.9437 33.8259 43.6175 34.7847 45.2166 34.9511C45.8568 35.0184 46.4971 34.9735 47.1293 35.0552C47.7616 35.1368 48.357 35.044 48.9668 35.1112ZM30.1723 63.183C30.8525 63.2422 31.536 63.1702 32.2099 63.2838C32.7925 63.3831 33.3975 63.3367 33.9706 63.5447C34.7437 63.828 35.3567 64.6252 34.8861 65.5791C34.6196 66.0684 34.3834 66.5736 34.1786 67.0917C33.823 68.0744 33.7444 69.1358 33.9514 70.1601C34.153 71.1925 34.678 71.9912 35.3743 72.7051C36.0418 73.3902 36.9573 73.6031 37.8457 73.8368C38.212 73.9388 38.5872 74.0057 38.9661 74.0368C39.9265 74.0993 40.8004 73.7631 41.5992 73.299C42.558 72.7331 43.2563 71.8135 43.5439 70.738C43.9713 69.243 43.6864 67.8136 42.734 66.5571C42.5481 66.2915 42.4305 65.9842 42.3915 65.6624C42.3583 65.3744 42.3524 65.0839 42.3739 64.7948C42.3745 64.6012 42.4134 64.4096 42.4885 64.2311C42.5636 64.0526 42.6732 63.8908 42.8112 63.7549C42.9492 63.6191 43.1127 63.5119 43.2923 63.4395C43.4719 63.3672 43.664 63.3311 43.8576 63.3335C44.3026 63.3335 44.746 63.3431 45.191 63.3575C46.2986 63.3943 47.4046 63.311 48.5139 63.3655C49.5383 63.4167 50.5643 63.3207 51.5951 63.3655C52.7155 63.4135 53.8456 63.295 54.974 63.3447C55.7007 63.3767 56.429 63.2934 57.1573 63.2982C57.4021 63.2982 57.4518 63.1958 57.4502 63.0101C57.4408 61.7059 57.8436 60.4321 58.601 59.3703C58.9041 58.905 59.3395 58.541 59.8511 58.3251C61.4085 57.6624 62.8923 57.8321 64.3761 58.5444C65.3934 59.0348 66.1946 59.8826 66.6266 60.9261C66.7866 61.2911 66.9211 61.6672 66.8587 62.0898C66.8387 62.3245 66.8452 62.5607 66.8779 62.794C66.8907 62.9429 66.9563 63.1142 67.1116 63.127C67.3051 63.1665 67.5016 63.1906 67.699 63.199C68.3792 63.1478 69.0611 63.0998 69.743 63.095C70.9515 63.0854 72.1583 63.0597 73.362 62.9557C73.5067 62.9439 73.6522 62.9669 73.7862 63.0229C74.1239 63.1526 74.6937 62.8325 74.6441 62.5267C74.5513 61.9473 74.6089 61.3807 74.6441 60.8013C74.7161 59.6072 74.6169 58.4083 74.6729 57.2111C74.7193 56.2651 74.6137 55.3207 74.6473 54.3699C74.6873 53.2239 74.5561 52.0746 74.5849 50.9238C74.6089 49.9778 74.4744 49.0367 74.5113 48.0859C74.5529 46.9943 74.3832 45.9058 74.4232 44.8078C74.46 43.785 74.2936 42.7638 74.3224 41.7346C74.3528 40.6526 74.1847 39.5737 74.2023 38.4869C74.2135 37.8083 74.0871 37.128 74.0759 36.4461C74.0759 36.0988 73.903 35.9963 73.6245 35.9563C73.5015 35.9459 73.3778 35.9459 73.2548 35.9563C72.3844 35.9697 71.5142 35.9221 70.6505 35.8139C69.895 35.737 69.1315 35.7322 68.3745 35.6426C67.5261 35.5418 66.8026 35.2328 66.26 34.551C66.0694 34.3102 65.9788 34.0052 66.0071 33.6994C66.0907 32.6532 66.2735 31.6172 66.5529 30.6054C66.713 30.05 66.9435 29.485 66.8042 28.8752C66.6932 28.409 66.5261 27.9581 66.3064 27.5322C65.7944 26.5263 64.9443 25.7329 63.9055 25.2913C62.7842 24.7771 61.5175 24.6745 60.3281 25.0016C58.441 25.5202 57.0852 26.6791 56.5362 28.6207C56.3073 29.421 56.2049 30.2661 56.5602 31.0776C56.8899 31.8331 57.122 32.6254 57.3941 33.4017C57.4697 33.6242 57.528 33.8522 57.5686 34.0836C57.7463 35.044 57.2021 35.7162 56.2289 35.7242C55.5486 35.7242 54.8716 35.7675 54.1881 35.7082C53.1109 35.6138 52.0256 35.721 50.9404 35.6618C49.6711 35.5914 48.3954 35.6938 47.1245 35.593C46.2122 35.521 45.2966 35.601 44.3794 35.5258C44.1413 35.5071 43.9102 35.4358 43.7029 35.3171C43.4956 35.1984 43.3172 35.0351 43.1806 34.8391C42.5723 34.0692 42.4827 33.2497 42.9037 32.3325C43.2238 31.625 43.5807 30.9208 43.7424 30.146C43.8432 29.6659 43.7792 29.1633 43.8144 28.6783C43.9041 27.4266 43.2302 26.5574 42.4123 25.7971C42.0457 25.453 41.5079 25.2769 41.0261 25.0721C39.72 24.5134 38.3835 24.5519 37.0758 25.0304C36.0258 25.413 34.995 25.8724 34.3547 26.868C33.7657 27.7755 33.3047 28.7327 33.4199 29.8675C33.5 30.6502 33.8377 31.3401 34.1514 32.0412C34.4652 32.7423 34.9918 33.2945 35.2463 34.0212C35.4063 34.4741 35.1902 35.2681 34.7661 35.4313C34.3092 35.6205 33.82 35.7194 33.3255 35.7226C32.4035 35.7114 31.4816 35.633 30.5564 35.6938C29.9089 35.7434 29.2591 35.7562 28.6101 35.7322C27.516 35.6582 26.4175 35.6797 25.3272 35.7963C25.2194 35.8051 25.1172 35.848 25.0355 35.9188C24.9538 35.9896 24.8967 36.0846 24.8726 36.19C24.7837 36.522 24.7274 36.8619 24.7045 37.2048C24.6789 38.2964 24.799 39.3865 24.7702 40.4813C24.7429 41.4593 24.8886 42.4357 24.8566 43.4201C24.8326 44.1451 24.9366 44.8734 24.967 45.6001C24.9782 45.8546 25.1271 45.9202 25.3288 45.9875C26.326 46.3076 27.3488 46.5573 28.2243 47.1799C28.8486 47.6249 29.3143 48.1403 29.5544 48.9086C29.9402 50.1427 29.6521 52.0314 28.1139 52.9102C27.4096 53.3119 26.6829 53.616 25.841 53.6064C25.0407 53.6064 24.9366 53.7537 24.9366 54.5668C24.9366 55.1446 24.975 55.7209 24.975 56.2987C24.975 57.4335 25.1351 58.5636 25.1207 59.7064C25.1095 60.4171 25.2263 61.1326 25.3016 61.8433C25.3432 62.2258 25.3016 62.6164 25.404 62.9941C25.444 63.135 25.46 63.207 25.6585 63.2038C27.1615 63.175 28.6693 63.183 30.1723 63.183Z" fill="#F8F2EA"/>
<path d="M52.4914 80.4363C51.5486 80.4267 51.1725 79.9561 51.1421 79.0869C51.1085 78.1682 51.7487 77.4143 52.4962 77.4175C53.3765 77.4175 54.1304 78.0289 54.1401 78.7268C54.1593 79.9257 53.2821 80.4683 52.4914 80.4363ZM52.2209 78.1762C51.9408 78.213 51.8447 78.5908 52.0368 78.9125C52.0672 78.6532 51.9824 78.3683 52.2241 78.1698H52.2145L52.2209 78.1762ZM52.8692 78.4371C52.5074 78.3795 52.4754 78.6372 52.453 78.8741C52.4306 79.111 52.7411 79.4759 52.9156 79.4615C53.1429 79.4423 53.511 79.0181 53.4694 78.778C53.4102 78.4371 53.0868 78.5059 52.8692 78.4371Z" fill="#030202"/>
<path d="M82.0614 51.0118C82.0694 51.8441 81.3667 52.7069 80.5536 52.8237C80.2079 52.8733 79.8925 52.7069 79.6268 52.5036C79.3973 52.3214 79.2187 52.0831 79.1081 51.8117C78.9975 51.5403 78.9588 51.2449 78.9956 50.9542C79.0325 50.6635 79.1437 50.3871 79.3184 50.1519C79.4932 49.9167 79.7257 49.7305 79.9934 49.6113C80.3215 49.4704 80.6336 49.6369 80.941 49.7089C81.5444 49.8529 82.0566 50.4676 82.0614 51.0118ZM80.7713 50.8437C80.4976 50.8437 80.3119 51.079 80.3087 51.4328C80.3087 51.7433 80.48 52.0426 80.6688 52.0474C80.8577 52.0522 81.3699 51.5672 81.3779 51.3847C81.3875 51.1671 81.0274 50.8453 80.7713 50.8437ZM80.56 50.3796C80.123 50.3331 79.7741 50.5236 79.6524 50.8597C79.5928 51.031 79.5918 51.2173 79.6498 51.3892C79.7078 51.5611 79.8213 51.7088 79.9726 51.8089C79.9005 51.2279 79.9534 50.6965 80.56 50.3796Z" fill="#030202"/>
<path d="M51.5583 25.3457C51.6568 25.3385 51.7558 25.3385 51.8544 25.3457C52.8676 25.4802 53.3798 26.1748 52.8612 27.2168C52.413 28.1196 51.4782 28.3485 50.7195 27.9067C50.2281 27.6218 50.0185 27.0024 50.1737 26.4101C50.3674 25.693 50.766 25.3777 51.5583 25.3457ZM51.0781 25.8259C50.8915 25.9176 50.7374 26.0641 50.6361 26.2457C50.5349 26.4272 50.4914 26.6354 50.5115 26.8423C50.5243 27.1368 50.6523 27.3865 51.0445 27.5594C50.5979 26.9191 50.7772 26.3957 51.1213 25.8883C51.1517 25.8883 51.1853 25.8643 51.1597 25.8307C51.1341 25.7971 51.1069 25.8339 51.0781 25.8323V25.8259ZM52.4098 26.6934C52.4098 26.3893 52.0817 26.0836 51.7375 26.0772C51.451 26.0772 51.1837 26.3973 51.1837 26.7655C51.176 26.9116 51.225 27.055 51.3204 27.1659C51.4158 27.2768 51.5503 27.3467 51.6959 27.3609C51.8744 27.3541 52.0446 27.2838 52.1758 27.1625C52.307 27.0413 52.3905 26.8772 52.4114 26.6998L52.4098 26.6934Z" fill="#030202"/>
<path d="M18.8782 60.7212C19.5409 60.7212 20.0627 61.2687 20.0723 61.9889C20.0835 62.6756 19.6161 63.3207 19.1039 63.3303C18.4637 63.3415 17.6826 62.5572 17.6746 61.9073C17.6754 61.7503 17.7072 61.595 17.7682 61.4503C17.8292 61.3057 17.9182 61.1745 18.03 61.0643C18.1419 60.9541 18.2744 60.867 18.4199 60.8082C18.5655 60.7493 18.7212 60.7198 18.8782 60.7212ZM19.6017 61.9409C19.6017 61.664 19.376 61.4079 19.1487 61.4127C18.8622 61.4207 18.6686 61.6816 18.691 62.0658C18.7054 62.2835 18.7934 62.4947 19.0543 62.5156C19.3152 62.5364 19.6065 62.2098 19.6017 61.9409ZM18.0907 61.7633C17.9803 62.0754 18.1323 62.3059 18.318 62.5268C18.2428 62.2787 18.166 62.0242 18.0907 61.7633Z" fill="#030202"/>
<path d="M57.9047 72.4619C57.9047 71.9097 58.3513 71.4183 58.8347 71.4231C59.499 71.4231 60.1152 71.9801 60.0992 72.5436C60.0816 73.0734 59.3917 73.656 58.7979 73.6432C58.3081 73.6352 57.8983 73.0926 57.9047 72.4619ZM59.3165 72.3723C59.3437 72.2683 59.3949 72.1546 59.2253 72.1578C58.982 72.1578 58.9051 72.3179 58.9259 72.534C58.9371 72.6236 58.8299 72.8045 59.0236 72.7789C59.2173 72.7533 59.3917 72.6236 59.3165 72.3723Z" fill="#030202"/>
<path d="M17.6057 53.7504C17.6057 54.0104 17.5029 54.2598 17.3197 54.4442C17.1364 54.6287 16.8877 54.7331 16.6277 54.7348C16.2212 54.7348 15.6962 54.0786 15.6802 53.5408C15.6641 53.0606 16.0643 52.7308 16.6405 52.7404C16.7708 52.7414 16.8996 52.7685 17.0192 52.8202C17.1388 52.8719 17.2468 52.947 17.3368 53.0412C17.4268 53.1354 17.497 53.2467 17.5432 53.3686C17.5894 53.4904 17.6106 53.6202 17.6057 53.7504ZM16.9318 53.7664C16.8905 53.679 16.831 53.6013 16.7574 53.5387C16.6837 53.476 16.5974 53.4298 16.5045 53.4031C16.4792 53.3983 16.4532 53.3987 16.4281 53.4042C16.4029 53.4097 16.3792 53.4203 16.3582 53.4352C16.3373 53.4502 16.3196 53.4692 16.3062 53.4912C16.2928 53.5132 16.284 53.5377 16.2804 53.5632C16.258 53.672 16.5861 54.0658 16.6965 54.053C16.8422 54.0353 16.895 53.9201 16.9318 53.76V53.7664Z" fill="#030202"/>
<path d="M47.8192 19.4298C47.8192 18.8792 48.1249 18.6295 48.7987 18.6487C49.3366 18.6487 49.8119 19.0681 49.8167 19.5307C49.8219 19.6742 49.7974 19.8172 49.7449 19.9508C49.6923 20.0844 49.6128 20.2057 49.5113 20.3072C49.4098 20.4088 49.2884 20.4883 49.1548 20.5408C49.0212 20.5934 48.8782 20.6179 48.7347 20.6127C48.2561 20.6127 47.8128 20.0413 47.8192 19.4298ZM48.5522 19.1657C48.317 19.1657 48.2033 19.2842 48.2017 19.5339C48.2017 19.9116 48.3714 20.1005 48.7667 20.1197C48.8933 20.1336 49.0204 20.0984 49.1217 20.0212C49.223 19.944 49.2908 19.8309 49.3109 19.7051C49.3302 19.3466 49.1093 19.1865 48.5522 19.1657Z" fill="#030202"/>
<path d="M80.4399 46.4277C80.4399 45.9684 80.9041 45.5282 81.3891 45.5298C81.8485 45.5298 82.127 45.7891 82.1302 46.2117C82.1302 46.8855 81.714 47.3097 81.0402 47.3065C80.7088 47.3065 80.4415 46.9143 80.4399 46.4277ZM81.3603 46.13C81.1698 46.1844 80.9473 46.2245 80.9313 46.471C80.9306 46.5077 80.938 46.5442 80.953 46.5779C80.9679 46.6115 80.9901 46.6414 81.0178 46.6655C81.0456 46.6897 81.0784 46.7074 81.1138 46.7175C81.1492 46.7275 81.1863 46.7297 81.2226 46.7239C81.4643 46.7079 81.5428 46.5206 81.5812 46.3125C81.6084 46.1412 81.4707 46.1556 81.3603 46.13Z" fill="#030202"/>
<path d="M30.1722 63.1831C28.6677 63.1831 27.1615 63.1751 25.6553 63.1927C25.4568 63.1927 25.4408 63.1239 25.4008 62.9831C25.2935 62.6053 25.34 62.2148 25.2983 61.8322C25.2231 61.1215 25.1063 60.4061 25.1175 59.6954C25.1351 58.5525 24.9734 57.4225 24.9718 56.2876C24.9718 55.7098 24.9318 55.1336 24.9334 54.5558C24.9334 53.741 25.031 53.5858 25.8377 53.5954C26.6797 53.605 27.4064 53.3009 28.1106 52.8991C29.6488 52.0204 29.937 50.1316 29.5512 48.8975C29.3111 48.1276 28.8453 47.617 28.2211 47.1689C27.3455 46.5462 26.3227 46.2949 25.3255 45.9764C25.1191 45.9108 24.975 45.8435 24.9638 45.589C24.9334 44.8624 24.8294 44.1341 24.8534 43.409C24.8854 42.4246 24.7397 41.4482 24.7669 40.4702C24.7957 39.3754 24.6757 38.2854 24.7013 37.1938C24.7242 36.8508 24.7805 36.511 24.8694 36.179C24.8935 36.0736 24.9506 35.9786 25.0323 35.9078C25.114 35.837 25.2162 35.794 25.3239 35.7852C26.4143 35.6686 27.5128 35.6472 28.6068 35.7212C29.2558 35.7452 29.9057 35.7324 30.5532 35.6828C31.4784 35.6219 32.4003 35.7004 33.3223 35.7116C33.8168 35.7083 34.306 35.6094 34.7628 35.4203C35.187 35.2602 35.4031 34.4599 35.243 34.0101C34.9885 33.2834 34.4555 32.72 34.1482 32.0301C33.8409 31.3403 33.4968 30.6392 33.4167 29.8565C33.3015 28.7216 33.7625 27.7645 34.3515 26.8569C34.9917 25.8613 36.0289 25.4019 37.0726 25.0194C38.3803 24.5392 39.7168 24.5024 41.0229 25.061C41.5031 25.2659 42.0425 25.4419 42.409 25.7861C43.227 26.5512 43.9008 27.4203 43.8112 28.6672C43.776 29.1474 43.84 29.6468 43.7392 30.135C43.5791 30.9097 43.2238 31.614 42.9004 32.3214C42.4795 33.2386 42.5691 34.0581 43.1773 34.828C43.3139 35.024 43.4923 35.1873 43.6996 35.306C43.907 35.4248 44.138 35.496 44.3762 35.5147C45.2934 35.5899 46.2089 35.5147 47.1213 35.5819C48.3922 35.6828 49.6679 35.5819 50.9372 35.6508C52.0224 35.71 53.1076 35.6027 54.1849 35.6972C54.8683 35.7564 55.5454 35.718 56.2257 35.7132C57.1988 35.7052 57.7431 35.0297 57.5654 34.0725C57.5248 33.8411 57.4665 33.6131 57.3909 33.3907C57.1188 32.6144 56.8867 31.822 56.557 31.0666C56.2017 30.255 56.3041 29.4179 56.533 28.6096C57.082 26.668 58.4377 25.5092 60.3249 24.9906C61.5143 24.6635 62.781 24.766 63.9023 25.2803C64.9411 25.7218 65.7912 26.5152 66.3032 27.5212C66.5229 27.947 66.69 28.398 66.801 28.8641C66.9403 29.4803 66.7066 30.0389 66.5497 30.5944C66.2703 31.6061 66.0875 32.6421 66.0039 33.6884C65.9756 33.9942 66.0661 34.2992 66.2568 34.5399C66.7994 35.2218 67.5229 35.5307 68.3712 35.6315C69.1283 35.7212 69.8918 35.726 70.6473 35.8028C71.511 35.911 72.3812 35.9586 73.2515 35.9453C73.3746 35.9349 73.4983 35.9349 73.6213 35.9453C73.8998 35.9853 74.0679 36.0877 74.0727 36.4351C74.0839 37.1169 74.2103 37.7972 74.1991 38.4759C74.1815 39.5627 74.3496 40.6415 74.3192 41.7235C74.2903 42.7527 74.4568 43.7739 74.42 44.7967C74.38 45.8948 74.5497 46.9832 74.508 48.0748C74.4712 49.0256 74.6057 49.9668 74.5817 50.9127C74.5528 52.0636 74.6841 53.2128 74.6441 54.3589C74.6105 55.3097 74.7161 56.254 74.6697 57.2C74.6137 58.3973 74.7129 59.6009 74.6409 60.7902C74.6073 61.3696 74.5496 61.9363 74.6409 62.5157C74.6905 62.8214 74.1207 63.1415 73.783 63.0119C73.649 62.9559 73.5035 62.9328 73.3588 62.9447C72.1551 63.0487 70.9482 63.0743 69.7398 63.0839C69.0579 63.0839 68.376 63.1367 67.6958 63.1879C67.4984 63.1795 67.3019 63.1555 67.1083 63.1159C66.9483 63.1047 66.8874 62.9318 66.8746 62.783C66.8419 62.5497 66.8355 62.3135 66.8554 62.0787C66.9179 61.6561 66.7834 61.2784 66.6233 60.9151C66.1867 59.8741 65.3822 59.0303 64.3633 58.5445C62.8843 57.8323 61.3957 57.6626 59.8383 58.3252C59.3267 58.5411 58.8913 58.9051 58.5882 59.3704C57.8279 60.4323 57.4228 61.7075 57.4309 63.0135C57.4309 63.1992 57.3829 63.3032 57.138 63.3016C56.4097 63.3016 55.6815 63.38 54.9548 63.348C53.8263 63.2984 52.6995 63.4168 51.5758 63.3688C50.545 63.3256 49.519 63.4216 48.4946 63.3688C47.3854 63.3144 46.2794 63.3976 45.1717 63.3608C44.7268 63.3464 44.2834 63.3336 43.8384 63.3368C43.6448 63.3345 43.4526 63.3705 43.273 63.4429C43.0934 63.5152 42.9299 63.6224 42.792 63.7583C42.654 63.8941 42.5443 64.056 42.4693 64.2345C42.3942 64.413 42.3552 64.6046 42.3546 64.7982C42.3332 65.0873 42.3391 65.3777 42.3722 65.6657C42.4112 65.9876 42.5289 66.2949 42.7148 66.5605C43.6671 67.817 43.9521 69.2463 43.5247 70.7413C43.2371 71.8168 42.5387 72.7365 41.5799 73.3023C40.7796 73.7665 39.9057 74.1026 38.9469 74.0402C38.5679 74.0091 38.1928 73.9421 37.8265 73.8401C36.9381 73.6064 36.0225 73.3936 35.3551 72.7085C34.6588 71.9946 34.1338 71.1959 33.9321 70.1635C33.7252 69.1392 33.8038 68.0777 34.1594 67.0951C34.3641 66.5769 34.6004 66.0718 34.8669 65.5825C35.3375 64.6221 34.7244 63.8314 33.9513 63.5481C33.3847 63.34 32.7797 63.388 32.1906 63.2872C31.536 63.1703 30.8525 63.2424 30.1722 63.1831ZM42.3642 35.0329C42.3642 35.0777 42.3866 35.1001 42.4331 35.0969C42.4523 35.2314 42.5691 35.2954 42.6539 35.3754C42.7388 35.4555 42.8236 35.6043 42.9132 35.5019C43.0285 35.3658 42.822 35.3418 42.7532 35.289C42.6539 35.2154 42.5835 35.0777 42.4331 35.1033C42.4539 35.0249 42.4138 35.0265 42.3578 35.0441V35.0201L42.3642 35.0329ZM58.1496 58.4021L57.8695 58.8102C57.8439 58.8454 57.8103 58.8807 57.8423 58.9239C57.8517 58.9355 57.8637 58.9449 57.8773 58.9513C57.8909 58.9577 57.9057 58.9609 57.9207 58.9607C57.9976 58.9463 58.1704 58.5061 58.1496 58.3957L58.2024 58.4485L58.2329 58.4053L58.1496 58.4021ZM46.4042 44.2429L46.4298 44.347C46.4298 44.347 46.4506 44.3358 46.4522 44.3278C46.4618 44.2829 46.4522 44.2509 46.3994 44.2477C46.4414 43.9523 46.3952 43.651 46.2666 43.3818C46.3514 43.6635 46.0937 43.9964 46.4042 44.2429ZM46.1385 39.329C45.9784 39.5611 46.0729 39.7772 46.1929 39.9933V39.3274C46.3016 39.0412 46.293 38.7237 46.1689 38.4438C46.1142 38.7357 46.1039 39.0341 46.1385 39.329ZM52.4466 37.0401C52.7443 37.2274 53.0228 37.0849 53.3045 36.9889H51.443C51.7728 37.0585 52.1114 37.0758 52.4466 37.0401ZM38.1658 41.5555C38.2282 41.1985 38.1658 40.8432 38.1402 40.4862C38.0696 40.8402 38.0444 41.2016 38.0649 41.5619C38.0729 41.6019 38.0777 41.6515 38.1354 41.6323C38.1514 41.6275 38.1562 41.5827 38.1658 41.5555ZM65.3476 57.3521L65.4437 57.3184C65.4437 57.3104 65.4309 57.2992 65.4229 57.296C65.3604 57.2688 65.3572 57.3136 65.3508 57.3537C65.3829 57.3217 65.4085 57.2832 65.3701 57.2432C65.0947 56.9567 64.7298 56.8255 64.3841 56.6494C64.3168 56.6158 64.256 56.6494 64.2336 56.7406C64.6412 56.87 65.0196 57.0777 65.3476 57.3521ZM48.2657 42.5318C48.2561 42.9896 48.3634 43.4522 48.2241 43.9084C48.2049 43.9708 48.1105 44.0556 48.1985 44.1133C48.2866 44.1709 48.3666 44.1709 48.4066 44.1213C48.3186 43.5611 48.3602 43.0328 48.3426 42.5078C48.3661 42.4521 48.3751 42.3912 48.3687 42.331C48.3622 42.2708 48.3406 42.2132 48.3058 42.1637L48.1969 39.5147C48.1326 40.3931 48.1412 41.2754 48.2225 42.1525C48.1998 42.2148 48.1919 42.2814 48.1994 42.3473C48.2069 42.4131 48.2296 42.4763 48.2657 42.5318ZM65.7126 35.1033C65.7126 35.1305 65.7286 35.1658 65.7638 35.1417C65.799 35.1177 65.7638 35.0921 65.7638 35.0649C65.4277 34.644 65.2836 34.1334 65.0771 33.6468C65.0659 34.2326 65.218 34.74 65.7046 35.1033H65.7126ZM40.1346 64.1643C40.1276 63.9393 40.0655 63.7195 39.9537 63.5241C39.9386 63.7378 39.9715 63.9521 40.0497 64.1515C40.0672 64.2386 40.0784 64.3269 40.0833 64.4156C40.065 65.1625 40.2258 65.9029 40.5523 66.5749C40.5379 65.7954 40.1458 65.0143 40.1346 64.1643ZM37.1142 52.5806C37.0838 51.5194 37.4599 50.4998 37.4599 49.4418C37.255 49.4418 37.247 49.5682 37.2342 49.7091C37.1462 50.6598 37.0245 51.6074 37.0053 52.563V54.4101C37.0053 53.7987 37.1702 53.1968 37.1142 52.5822V52.5806ZM58.601 58.4213C58.7243 58.1962 58.9 58.004 59.1132 57.8611C59.7534 57.4001 60.3857 56.9007 61.2116 56.5533C60.2512 56.6302 58.8763 57.693 58.5354 58.3396C58.5114 58.3877 58.545 58.4229 58.5994 58.4261C58.5994 58.3749 58.5882 58.338 58.5322 58.3508C58.5082 58.3508 58.4922 58.3941 58.4729 58.4165L58.601 58.4213ZM26.4284 58.242C26.3948 59.3624 26.5036 60.4829 26.3676 61.5889C26.3163 62.0035 26.3371 62.0067 26.7597 61.9843C26.7789 61.9843 26.7965 61.9667 26.7853 61.9731C26.6044 60.7278 26.5356 59.4873 26.478 58.2452C26.5857 57.6835 26.6068 57.1086 26.5404 56.5405H26.4284V58.242ZM64.3312 26.4599C64.3585 26.4599 64.4033 26.4792 64.4113 26.4599C64.4193 26.4407 64.4033 26.4119 64.3713 26.4039C63.3773 25.3843 61.17 24.941 59.9551 25.5412C60.0752 25.53 60.1648 25.5284 60.2512 25.5124C60.8915 25.3939 61.5317 25.4708 62.172 25.5124C62.9963 25.5796 63.6574 26.0422 64.3312 26.4599ZM40.4163 50.3701C40.4046 50.8027 40.3704 51.2344 40.3138 51.6634C40.2402 52.5758 40.245 53.4961 40.2146 54.4117C40.2241 54.523 40.2143 54.6351 40.1858 54.743C40.1057 54.9559 40.1506 55.1832 40.1362 55.4041C40.1137 55.7242 40.5187 55.5802 40.5427 55.8011V50.3733C40.5889 50.1486 40.5501 49.9148 40.4339 49.7171C40.3877 49.9318 40.3817 50.1532 40.4163 50.3701ZM72.7025 38.788V37.4771C72.7025 37.365 72.7233 37.2146 72.5425 37.2626C72.304 37.3314 72.0831 37.221 71.8494 37.2386C70.5481 37.3321 69.2406 37.2875 67.9487 37.1057C67.2476 37.0113 66.5577 36.8736 65.9543 36.4655C65.2388 35.9853 64.5729 35.4891 64.6002 34.4727C64.6162 33.8805 64.6001 33.2882 64.7922 32.7232C65.0147 32.0461 65.2596 31.3771 65.5397 30.7176C65.9207 29.8213 65.4885 27.6572 64.3184 27.0202C64.0928 26.8969 63.8863 26.7401 63.659 26.6216C62.8666 26.2283 61.9757 26.0774 61.098 26.1878C60.2977 26.2647 59.6574 26.6392 59.0572 27.1146C58.5018 27.5628 58.0264 28.075 57.8167 28.8161C57.5366 29.8005 57.8391 30.6824 58.1464 31.5788C58.4185 32.3711 58.8987 33.0881 59.078 33.9077C59.2893 34.868 58.9835 35.7276 58.3161 36.4575C57.5846 37.2578 56.6674 37.5667 55.603 37.5971C54.3929 37.6291 53.1845 37.5475 51.9776 37.5891C51.0172 37.6227 51.1053 37.429 51.0252 38.5111C50.9292 39.7804 50.8972 41.0497 50.9052 42.3206C50.9052 42.9688 50.99 43.6171 51.0252 44.2653C51.0492 44.6879 50.9868 44.7919 50.577 44.7679C49.6087 44.7103 48.8356 45.1505 48.0753 45.6531C48.0096 45.6947 47.9456 45.7427 47.88 45.7843C47.4295 46.0646 47.041 46.4339 46.7382 46.8696C46.4355 47.3053 46.2249 47.7982 46.1193 48.3181C45.9048 49.3489 46.2794 50.2389 46.7339 51.1336C47.0941 51.8475 47.6703 52.3005 48.3874 52.6158C49.2325 52.9888 50.1225 53.0288 51.0204 53.0048C51.2285 53.0048 51.2813 53.056 51.3053 53.2561C51.3502 53.6146 51.2845 53.9683 51.3053 54.3221C51.3486 55.4041 51.4302 56.4829 51.3325 57.5697C51.2842 58.2093 51.289 58.8517 51.347 59.4905C51.3934 60.1003 51.3085 60.7198 51.4862 61.3216C51.5534 61.5441 51.6351 61.6529 51.8912 61.6609C53.1204 61.6962 54.3481 61.7506 55.5726 61.805C55.7327 61.805 55.8111 61.773 55.8239 61.5921C55.9103 60.3692 56.1856 59.2168 56.9588 58.2164C57.3749 57.677 57.7591 57.1296 58.3273 56.7246C59.0764 56.1932 59.8159 55.6938 60.7554 55.5289C61.671 55.3689 62.5561 55.2088 63.5021 55.4009C65.4229 55.7946 66.9163 56.7262 67.8654 58.4629C68.2192 59.1031 68.5633 59.7594 68.5985 60.5213C68.6065 60.6814 68.6529 60.851 68.6753 61.0175C68.7058 61.2496 68.8242 61.3488 69.0611 61.3024C69.1506 61.2968 69.2405 61.2968 69.33 61.3024C70.7225 61.2288 72.1199 61.312 73.5092 61.1423C73.7445 61.1135 73.8006 61.0575 73.7861 60.8222C73.7397 60.0459 73.7125 59.2664 73.6885 58.4885C73.6437 57.0063 73.6229 55.5225 73.5973 54.0404C73.5653 52.142 73.5396 50.2421 73.5797 48.3421C73.5989 47.4826 73.5172 46.6263 73.5717 45.7635C73.6421 44.6431 73.522 43.5114 73.5717 42.3814C73.6149 41.4642 73.5012 40.5407 73.5621 39.6267C73.6085 38.9208 73.5701 38.2182 73.6133 37.5171C73.6277 37.2738 73.514 37.229 73.3156 37.2514C73.1171 37.2738 73.1555 37.4451 73.1651 37.5715C73.1651 38.351 73.2627 39.1225 73.2403 39.9068C73.2083 41.0273 73.3524 42.1477 73.2948 43.2857C73.2419 44.3085 73.3796 45.3297 73.3156 46.3589C73.2483 47.449 73.3444 48.5438 73.338 49.6386C73.338 51.0216 73.338 52.4093 73.3604 53.8003C73.3764 55.276 73.3865 56.7518 73.3908 58.2276C73.3908 58.3541 73.5429 58.5861 73.2643 58.5829C73.1624 58.592 73.0609 58.5613 72.9812 58.4971C72.9015 58.4329 72.8498 58.3403 72.837 58.2388C72.8247 58.1385 72.8204 58.0373 72.8242 57.9363C72.8386 57.3377 72.7858 56.7406 72.8242 56.1372C72.885 55.0808 72.7361 54.0228 72.7922 52.9583C72.8498 51.8699 72.6961 50.7799 72.7489 49.6835C72.8018 48.587 72.6561 47.5258 72.7121 46.4406C72.7666 45.4066 72.6657 44.371 72.6769 43.3322C72.6945 41.8052 72.6481 40.2958 72.7025 38.788ZM27.504 55.0055C27.4714 55.1641 27.4479 55.3245 27.4336 55.4857C27.4192 56.078 27.5936 56.6462 27.6609 57.2304C27.7697 58.2836 27.9458 59.3288 27.8209 60.3917C27.7553 60.9391 27.8209 61.5217 27.3647 61.9923C27.6449 62.0659 27.8898 61.9795 28.1298 62.0067C28.3107 62.0259 28.3315 61.9491 28.3075 61.7938C28.1558 60.9965 28.0776 60.1869 28.0738 59.3753C28.0866 58.7638 28.0594 58.146 28.029 57.5313C27.9842 56.6942 27.9234 55.8507 27.504 55.0055ZM28.935 38.3942C28.7633 38.9004 28.6768 39.4316 28.6789 39.966C28.6997 40.4798 28.7413 40.992 28.7573 41.5058C28.7957 42.6999 28.6292 43.8844 28.5972 45.0752C28.5972 45.3137 28.6581 45.4466 28.8869 45.4498C29.1158 45.453 29.0054 45.2497 29.007 45.1505C29.0406 43.4762 29.0902 41.8004 29.071 40.1261C29.063 39.5755 29.1238 39.0025 28.935 38.3942ZM27.3487 37.5571C27.1599 37.8772 27.1054 38.0533 27.1695 38.2726C27.4896 39.3482 27.5024 40.451 27.4896 41.5603C27.4924 42.6987 27.4003 43.8353 27.2143 44.9584C27.1919 45.08 27.1535 45.2193 27.3744 45.1777C27.5072 45.1521 27.6945 45.2385 27.6625 44.952C27.5776 44.3294 27.6625 43.7019 27.6385 43.0761C27.5931 41.9815 27.6504 40.8851 27.8097 39.8012C27.933 39.0345 27.7089 38.287 27.3487 37.5635V37.5571ZM32.6308 56.2716C32.6484 55.5401 32.7909 54.8231 32.8085 54.0948C32.8293 53.1344 32.7589 52.174 32.706 51.2233C32.706 51.1512 32.7413 51.0312 32.5844 51.0392C32.4836 51.0392 32.4243 51.0536 32.4131 51.18C32.3667 51.7227 32.3171 52.2637 32.2291 52.8047C32.1026 53.5826 32.3267 54.3381 32.4451 55.0984C32.5012 55.4953 32.4083 55.9051 32.626 56.278L32.6308 56.2716ZM26.2523 43.6363C26.3019 42.908 26.2955 42.1765 26.3259 41.4434C26.3628 40.5631 26.2475 39.6827 26.3483 38.796C26.3958 38.5357 26.3553 38.2671 26.2331 38.0325C25.5961 39.9324 25.9482 41.786 26.2475 43.6427L26.2523 43.6363ZM39.3102 27.606C39.1357 28.448 39.0936 29.312 39.1854 30.167C39.3384 31.1273 39.3862 32.1015 39.3278 33.0721C39.3278 33.1426 39.2526 33.2786 39.4079 33.2754C39.5327 33.2754 39.4687 33.1586 39.4703 33.0913C39.4799 32.8593 39.4895 32.6272 39.4879 32.3951C39.4879 31.5019 39.3855 30.6088 39.4463 29.7124C39.4639 29.4579 39.5823 29.2178 39.5359 28.9553C39.4511 28.5152 39.3807 28.0638 39.3054 27.6124L39.3102 27.606ZM38.1338 41.7187C38.0473 42.1109 37.8473 42.4774 37.7768 42.8392C37.6808 43.3514 37.8104 43.9084 37.8713 44.4398C37.8857 44.5742 38.0761 44.5742 38.1914 44.5662C38.3066 44.5582 38.249 44.435 38.2458 44.3566C38.2104 44.137 38.197 43.9145 38.2058 43.6923C38.289 43.036 38.129 42.3958 38.129 41.7251L38.1338 41.7187ZM69.4356 61.7858V61.8466C69.4586 61.8589 69.4835 61.867 69.5093 61.8706C70.8698 61.8818 72.2303 61.8418 73.5877 61.9411C73.7878 61.9555 73.8758 61.8754 73.8726 61.6754C73.8726 61.4257 73.6917 61.5153 73.5877 61.5425C72.7874 61.6946 71.987 61.6658 71.1867 61.725C70.6057 61.7634 70.0183 61.7634 69.4356 61.7858ZM42.4683 71.6873C41.6151 72.614 40.4723 73.051 39.315 73.56C40.5315 73.5456 42.0697 72.7229 42.4683 71.6873ZM44.8356 37.5763C44.3842 38.5815 44.7652 39.5115 44.954 40.4574C44.9348 39.5147 45.271 38.5447 44.8356 37.5763ZM43.7152 49.9139C43.6943 51.4041 43.5983 52.8911 43.6511 54.3957C43.8352 54.3125 43.9809 54.2661 43.9553 54.026C43.8848 53.3601 43.848 52.6926 43.7856 52.0252C43.7328 51.3241 43.9777 50.6118 43.728 49.9187L43.7152 49.9139ZM42.2218 57.6946C42.3034 58.6037 42.209 59.5177 42.3098 60.4269C42.5035 59.5129 42.6876 58.5989 42.2346 57.6946H42.2218ZM30.169 38.2966C30.1995 39.257 29.9418 40.2269 30.2187 41.1777C30.2299 41.2209 30.2059 41.277 30.1594 41.2786C30.1481 41.2784 30.137 41.2755 30.1271 41.27C30.1171 41.2646 30.1087 41.2567 30.1025 41.2472C30.0964 41.2377 30.0926 41.2269 30.0917 41.2156C30.0907 41.2043 30.0925 41.1929 30.097 41.1825C30.1529 41.0884 30.1888 40.9838 30.2027 40.8752C30.2619 40.2638 30.3243 39.6523 30.3851 39.0409C30.3971 38.7757 30.3212 38.5141 30.169 38.2966ZM40.5379 28.0526C40.4243 28.4831 40.269 28.8929 40.3955 29.3555C40.494 29.792 40.5699 30.2333 40.6227 30.6776C40.7188 29.7957 40.6259 28.9265 40.5379 28.0574V28.0526ZM33.9881 45.7747C34.3723 45.6531 34.4187 45.445 34.3899 45.1345C34.3378 44.7022 34.3518 44.2644 34.4315 43.8364C33.7561 44.3886 34.1402 45.1169 33.9881 45.7747ZM34.5452 40.4926C34.5148 39.7708 34.574 39.0425 34.4219 38.327C34.3995 38.2182 34.4107 38.0357 34.2394 38.0613C34.0682 38.0869 34.1818 38.2598 34.1546 38.3622C34.1504 38.4073 34.1564 38.4527 34.1722 38.4951C34.3378 39.1542 34.4623 39.8229 34.5452 40.4974V40.4926ZM43.3486 37.7956C43.3238 38.628 43.3736 39.461 43.4975 40.2846C43.4815 39.457 43.7984 38.6103 43.3438 37.8004L43.3486 37.7956ZM37.4359 61.2224C37.441 60.4324 37.373 59.6437 37.2326 58.8663C37.199 59.4377 37.2326 60.0075 37.1862 60.5725C37.1654 60.8462 37.1606 61.0623 37.4359 61.2224ZM29.8457 48.1725C30.2923 49.1456 30.486 50.0932 30.1851 51.1368C30.6396 50.6982 30.4075 48.6014 29.8457 48.1725ZM40.3923 42.5863C40.4067 42.6119 40.4419 42.6471 40.4355 42.6631C40.2626 43.0985 40.3234 43.5595 40.2642 44.0076C40.229 44.2797 40.2722 44.4878 40.5027 44.6479C40.5827 44.7039 40.5955 44.7599 40.5267 44.7919C40.5283 44.062 40.4275 43.329 40.3923 42.5863ZM31.4896 60.7166C31.4608 61.1696 31.4704 61.6129 31.115 61.9635C31.2275 61.9569 31.3403 61.9569 31.4527 61.9635C31.7169 62.0003 31.7857 61.9251 31.6976 61.6545C31.6125 61.3456 31.5431 61.0325 31.4896 60.7166ZM38.4875 68.0635C38.4475 68.7133 38.3274 69.2879 38.4459 69.8722C38.4827 69.2943 38.8332 68.7341 38.4875 68.0635ZM43.2158 29.6036C42.9709 30.1446 42.7116 30.6776 42.782 31.2938C42.9148 30.7256 43.2862 30.2214 43.2158 29.6036ZM57.9607 57.9763C58.4025 57.4641 58.9755 57.1184 59.4861 56.6958C58.8475 56.9695 58.2649 57.3056 57.9607 57.9763ZM42.1786 38.5175H42.2826C42.4106 37.9108 42.193 37.341 42.0473 36.7568L42.1786 38.5175ZM45.86 46.423C45.6416 46.6162 45.4697 46.8565 45.3575 47.1257C45.2452 47.3948 45.1954 47.686 45.2117 47.9772C45.3445 47.4292 45.561 46.9049 45.8536 46.423H45.86ZM43.7488 45.2609L43.6815 45.2721C43.712 45.6675 43.744 46.0644 43.7696 46.4614C43.7792 46.6215 43.8672 46.6487 44.0145 46.6567C43.9152 46.1733 43.8288 45.7171 43.7424 45.2609H43.7488ZM66.8778 59.3945C66.7738 58.8903 66.212 58.2932 65.7942 58.2516C66.0871 58.6598 66.5657 58.8823 66.8714 59.3945H66.8778ZM32.7893 47.449C32.658 47.5882 32.57 47.6699 32.4964 47.7691C32.4606 47.8191 32.4414 47.879 32.4414 47.9404C32.4414 48.0018 32.4606 48.0617 32.4964 48.1116C32.5309 48.1456 32.5729 48.171 32.6191 48.1857C32.6652 48.2005 32.7142 48.2042 32.7621 48.1965C32.9093 48.1677 32.8549 48.0108 32.8597 47.9164C32.8522 47.7586 32.8286 47.602 32.7893 47.449ZM57.7415 27.1722C57.9319 27.0474 58.1176 26.9129 58.3145 26.8009C58.5258 26.678 58.7196 26.5273 58.8907 26.3527C58.6507 26.3964 58.4233 26.4926 58.2246 26.6342C58.026 26.7759 57.861 26.9596 57.7415 27.1722ZM66.1816 28.4527C66.1816 28.6976 66.164 28.9441 66.1816 29.1874C66.1992 29.4307 65.9975 29.6772 66.1816 29.9493C66.3512 29.4851 66.3512 29.4851 66.1816 28.4447V28.4527ZM44.9156 57.6658C44.8652 58.3752 44.9191 59.0881 45.0757 59.7818C45.0223 59.0754 44.969 58.3701 44.9156 57.6658ZM28.0402 37.0177C28.0833 37.1151 28.1314 37.2102 28.1843 37.3026C28.2371 37.3826 28.2211 37.5027 28.3299 37.5491C28.5748 37.0017 28.5748 37.0017 28.0402 37.0161V37.0177ZM37.9817 29.0145V30.7752H38.0681C38.0249 30.1846 38.1482 29.5988 37.9817 29.0049V29.0145ZM35.4751 39.2153C35.5112 38.8161 35.5032 38.414 35.4511 38.0165C35.4101 38.4124 35.4182 38.8118 35.4751 39.2057V39.2153ZM58.5242 35.0201C58.673 34.7 58.6954 34.4007 58.6074 33.8661C58.5699 33.9943 58.5431 34.1255 58.5274 34.2582C58.521 34.4967 58.5306 34.7464 58.5306 35.0105L58.5242 35.0201ZM33.9193 61.9347C34.5003 61.9459 34.5372 62.0211 34.2955 61.3488C34.2257 61.5747 34.0956 61.7772 33.9193 61.9347ZM38.9581 72.4524C39.4583 72.4127 39.9524 72.3161 40.4307 72.1643C39.9201 72.1675 39.4463 72.3419 38.9581 72.4524ZM55.3117 62.2804C54.8955 62.1716 54.4858 62.3236 54.0728 62.3012C54.4858 62.3252 54.9003 62.3908 55.3117 62.2804ZM56.5298 36.2878C56.8195 36.1998 57.1444 36.1966 57.3589 35.9373C57.0836 36.0621 56.7379 36.0109 56.5298 36.2878ZM39.792 58.0707C39.5311 58.3749 39.6992 58.6582 39.792 58.9015V58.0707ZM28.8293 47.012C28.5924 46.6919 28.0706 46.4246 27.8545 46.4342L28.8293 47.012ZM37.4103 70.8614C37.5897 70.9489 37.7869 70.9938 37.9865 70.9926L37.6664 70.5668L37.4103 70.8614ZM39.243 66.4052C39.3214 65.9442 39.0829 65.6049 39.1038 65.2255C39.0285 65.6145 39.1406 65.9746 39.243 66.4052ZM26.5164 56.2204C26.5372 55.9611 26.6605 55.7002 26.5164 55.3881C26.4668 55.6644 26.4668 55.9473 26.5164 56.2236V56.2204ZM43.7456 58.5893C43.7152 58.9591 43.5247 59.332 43.7616 59.7354C43.8304 59.332 43.7632 58.9623 43.7456 58.5925V58.5893ZM35.9713 31.9037C35.9009 32.1406 35.688 32.3022 35.9713 32.4831C36.0169 32.3933 36.0406 32.2941 36.0406 32.1934C36.0406 32.0927 36.0169 31.9935 35.9713 31.9037ZM41.263 64.4957C41.2901 64.4202 41.3016 64.34 41.2969 64.26C41.2922 64.18 41.2714 64.1017 41.2358 64.0299C41.2358 64.0171 41.1606 64.0155 41.1558 64.0299C41.0869 64.1899 41.1734 64.3212 41.2134 64.4636C41.215 64.4669 41.2294 64.4717 41.263 64.4957ZM45.3046 44.7615H45.2486C45.2486 44.9584 45.2486 45.1553 45.2486 45.3506C45.2486 45.4018 45.2486 45.4754 45.3174 45.4786C45.3862 45.4818 45.4134 45.3986 45.4038 45.3361C45.3766 45.1457 45.3382 44.9568 45.3046 44.7615ZM30.4524 53.1568C30.3239 53.2198 30.2137 53.3146 30.1322 53.4321L30.4299 53.5586L30.4524 53.1568ZM48.317 37.0657C48.2288 37.1635 48.1193 37.2397 47.9968 37.2882C48.3202 37.4835 48.3122 37.2594 48.317 37.0657ZM29.7993 51.8811C29.8856 51.8131 29.9551 51.7263 30.0025 51.6272C30.05 51.5281 30.0741 51.4195 30.073 51.3097L29.7993 51.8811ZM26.2779 43.6299C26.1947 43.7739 26.2235 43.8636 26.3628 43.966C26.3483 43.8364 26.4012 43.7387 26.2683 43.6299H26.2779ZM29.0934 47.1513C29.0406 47.0904 29.0214 47.0648 28.999 47.0424C28.9766 47.02 28.911 46.9736 28.9046 47.0424C28.8981 47.1112 28.9574 47.1385 29.087 47.1465L29.0934 47.1513ZM43.2718 29.3987C43.271 29.3907 43.271 29.3827 43.2718 29.3747H43.2894C43.2909 29.3826 43.2909 29.3908 43.2894 29.3987C43.2894 29.3987 43.2718 29.3923 43.2654 29.3939L43.2718 29.3987ZM29.7257 52.0396L29.7705 52.0012C29.7561 51.9916 29.7417 51.9724 29.7305 51.9756C29.7106 51.9822 29.6921 51.9925 29.6761 52.006L29.7257 52.0396Z" fill="#030202"/>
<path d="M52.8692 78.437C53.0868 78.5058 53.4102 78.437 53.4694 78.7779C53.511 79.018 53.1493 79.4422 52.9156 79.4614C52.7411 79.4758 52.4354 79.1061 52.453 78.874C52.4706 78.6419 52.5074 78.3794 52.8692 78.437Z" fill="#F8F2EA"/>
<path d="M52.226 78.1682C51.9824 78.3685 52.0658 78.6489 52.0369 78.9133C51.8446 78.5928 51.9408 78.2131 52.2212 78.1762L52.226 78.1682Z" fill="#F8F2EA"/>
<path d="M52.2209 78.1768V78.165H52.2326L52.2209 78.1768Z" fill="#F8F2EA"/>
<path d="M80.7713 50.8438C81.0274 50.8438 81.3876 51.1639 81.378 51.3848C81.37 51.5608 80.845 52.0506 80.6689 52.0474C80.4928 52.0442 80.3039 51.7433 80.3087 51.4328C80.3119 51.079 80.4976 50.8438 80.7713 50.8438Z" fill="#F8F2EA"/>
<path d="M80.56 50.3797C79.9534 50.6998 79.9006 51.228 79.9694 51.8091C79.8182 51.7089 79.7046 51.5612 79.6466 51.3894C79.5887 51.2175 79.5896 51.0312 79.6493 50.8599C79.7741 50.5238 80.1231 50.3333 80.56 50.3797Z" fill="#F8F2EA"/>
<path d="M52.4114 26.6998C52.392 26.8781 52.3093 27.0435 52.1783 27.166C52.0473 27.2885 51.8767 27.3599 51.6975 27.3673C51.5519 27.3531 51.4174 27.2832 51.322 27.1723C51.2265 27.0614 51.1776 26.918 51.1853 26.7719C51.1853 26.4117 51.4526 26.0772 51.7391 26.0836C52.0832 26.09 52.4162 26.3893 52.4114 26.6998Z" fill="#F8F2EA"/>
<path d="M51.1229 25.8947C50.7788 26.4021 50.5995 26.9255 51.0461 27.5658C50.6539 27.3929 50.5259 27.1432 50.5131 26.8487C50.493 26.6417 50.5365 26.4336 50.6377 26.252C50.739 26.0705 50.8931 25.924 51.0797 25.8323L51.1229 25.8947Z" fill="#F8F2EA"/>
<path d="M51.0781 25.8324C51.105 25.8324 51.1494 25.8228 51.1589 25.8324C51.1685 25.8419 51.1589 25.8815 51.1209 25.8894L51.0781 25.8324Z" fill="#F8F2EA"/>
<path d="M19.6017 61.9409C19.6017 62.2098 19.312 62.5363 19.0543 62.5155C18.7966 62.4947 18.7054 62.2834 18.691 62.0657C18.6653 61.6816 18.8622 61.4255 19.1487 61.4127C19.376 61.4079 19.5969 61.664 19.6017 61.9409Z" fill="#F8F2EA"/>
<path d="M18.0908 61.7632C18.1661 62.018 18.251 62.2727 18.3183 62.5275C18.1325 62.3128 17.9802 62.0837 18.0908 61.7632Z" fill="#F8F2EA"/>
<path d="M59.3169 72.3725C59.3923 72.6241 59.2304 72.7523 59.0237 72.7795C58.817 72.8067 58.9372 72.6193 58.926 72.5343C58.8971 72.3132 58.9821 72.1642 59.2256 72.1578C59.4019 72.1546 59.3442 72.2683 59.3169 72.3725Z" fill="#F8F2EA"/>
<path d="M16.9326 53.7605C16.8957 53.9128 16.8428 54.0297 16.7018 54.0457C16.5913 54.0586 16.2628 53.6644 16.2852 53.5554C16.2889 53.5299 16.2977 53.5054 16.3111 53.4834C16.3244 53.4614 16.3422 53.4423 16.3631 53.4274C16.3841 53.4124 16.4079 53.4018 16.433 53.3963C16.4582 53.3908 16.4842 53.3904 16.5095 53.3952C16.6019 53.4227 16.6873 53.4695 16.7603 53.5325C16.8332 53.5954 16.8919 53.6732 16.9326 53.7605Z" fill="#F8F2EA"/>
<path d="M48.5523 19.1658C49.1093 19.1914 49.3302 19.3482 49.311 19.7052C49.2908 19.8309 49.223 19.9441 49.1217 20.0212C49.0204 20.0984 48.8933 20.1337 48.7668 20.1197C48.3714 20.1005 48.1969 19.9117 48.2017 19.5339C48.1969 19.2842 48.317 19.1706 48.5523 19.1658Z" fill="#F8F2EA"/>
<path d="M81.3608 46.1299C81.4714 46.1555 81.6092 46.1411 81.5819 46.3126C81.5467 46.5209 81.465 46.7083 81.223 46.7244C81.1866 46.7302 81.1494 46.728 81.114 46.718C81.0786 46.7079 81.0458 46.6901 81.018 46.666C80.9902 46.6418 80.968 46.6119 80.953 46.5782C80.9381 46.5445 80.9307 46.508 80.9314 46.4712C80.9474 46.2244 81.1701 46.1844 81.3608 46.1299Z" fill="#F8F2EA"/>
<path d="M72.7026 38.7878C72.6481 40.2956 72.6946 41.805 72.6801 43.3128C72.6689 44.3516 72.7698 45.3936 72.7154 46.4212C72.6593 47.5064 72.8034 48.5869 72.7522 49.6641C72.701 50.7413 72.853 51.8505 72.7954 52.939C72.7394 54.0034 72.8882 55.0614 72.8274 56.1178C72.7938 56.7213 72.8466 57.3183 72.8274 57.9169C72.8237 58.0179 72.8279 58.1191 72.8402 58.2194C72.8531 58.321 72.9048 58.4135 72.9845 58.4777C73.0642 58.5419 73.1657 58.5727 73.2676 58.5636C73.5461 58.5636 73.394 58.3347 73.394 58.2082C73.394 56.7325 73.3839 55.2567 73.3636 53.7809C73.3476 52.3948 73.3348 51.007 73.3412 49.6193C73.3412 48.5244 73.2516 47.4296 73.3188 46.3396C73.3828 45.3104 73.2452 44.2892 73.298 43.2664C73.3556 42.1363 73.2116 41.0127 73.2436 39.8875C73.266 39.1031 73.1747 38.3316 73.1683 37.5521C73.1683 37.4337 73.1043 37.264 73.3188 37.232C73.5333 37.2 73.6309 37.2544 73.6165 37.4977C73.5733 38.1988 73.6165 38.9015 73.5653 39.6073C73.5045 40.5213 73.6181 41.4449 73.5749 42.362C73.5221 43.4921 73.6421 44.6205 73.5749 45.7442C73.5205 46.6069 73.6021 47.4632 73.5829 48.3228C73.5429 50.2227 73.5685 52.1227 73.6005 54.021C73.6261 55.5032 73.6469 56.987 73.6917 58.4691C73.7158 59.247 73.743 60.0266 73.7894 60.8029C73.8038 61.0365 73.7478 61.0926 73.5125 61.123C72.1231 61.283 70.7258 61.2062 69.3332 61.283C69.2437 61.2774 69.1539 61.2774 69.0643 61.283C68.8274 61.3295 68.709 61.2302 68.6786 60.9981C68.6562 60.8381 68.6098 60.6684 68.6018 60.5019C68.5665 59.74 68.2224 59.0902 67.8687 58.4435C66.9195 56.7069 65.4197 55.7753 63.5054 55.3815C62.5594 55.1863 61.6742 55.3479 60.7587 55.5096C59.8191 55.6696 59.0796 56.1738 58.3305 56.7052C57.7591 57.1102 57.3782 57.6576 56.962 58.197C56.1889 59.1974 55.9136 60.3499 55.8271 61.5728C55.8143 61.7536 55.7407 61.792 55.5758 61.7856C54.3482 61.7312 53.1205 61.6768 51.8944 61.6416C51.6383 61.6336 51.5567 61.5247 51.4894 61.3022C51.3118 60.7004 51.3966 60.081 51.3502 59.4711C51.2922 58.8324 51.2874 58.1899 51.3358 57.5504C51.4334 56.4636 51.3518 55.3847 51.3086 54.3027C51.2942 53.949 51.3598 53.5952 51.3086 53.2367C51.2846 53.0366 51.2317 52.9806 51.0237 52.9854C50.1257 53.0094 49.2358 52.9694 48.3906 52.5964C47.6735 52.2763 47.0973 51.8281 46.7372 51.1143C46.2874 50.2259 45.9081 49.3296 46.1225 48.2988C46.2281 47.7788 46.4387 47.2859 46.7415 46.8502C47.0442 46.4145 47.4327 46.0452 47.8832 45.765C47.9489 45.7233 48.0129 45.6753 48.0785 45.6337C48.8388 45.1311 49.6119 44.6909 50.5803 44.7486C50.99 44.7726 51.0525 44.6685 51.0285 44.246C50.9932 43.5977 50.9116 42.9495 50.9084 42.3012C50.9004 41.0303 50.9324 39.761 51.0285 38.4917C51.1085 37.4129 51.0157 37.6034 51.9808 37.5697C53.1877 37.5281 54.3962 37.6098 55.6063 37.5777C56.6707 37.5473 57.5878 37.2368 58.3193 36.4381C58.9868 35.7082 59.2925 34.8535 59.0812 33.8883C58.9019 33.0688 58.4218 32.3517 58.1497 31.5594C57.8423 30.663 57.5398 29.7811 57.8199 28.7967C58.0296 28.0588 58.505 27.5434 59.0604 27.0952C59.6526 26.6151 60.2961 26.2453 61.1012 26.1685C61.979 26.0581 62.8698 26.2089 63.6622 26.6022C63.8895 26.7207 64.096 26.8776 64.3217 27.0008C65.4917 27.6411 65.9223 29.8019 65.543 30.6983C65.2628 31.3577 65.018 32.0268 64.7955 32.7038C64.6082 33.2689 64.6194 33.8611 64.6034 34.4533C64.5762 35.4697 65.2436 35.9627 65.9575 36.4461C66.561 36.8527 67.2508 36.9903 67.9519 37.0864C69.2438 37.2682 70.5513 37.3127 71.8526 37.2192C72.0863 37.2016 72.3072 37.312 72.5457 37.2432C72.7202 37.1952 72.7058 37.3457 72.7058 37.4577L72.7026 38.7878ZM58.9019 30.6822C59.0129 30.5317 59.0622 30.3445 59.0396 30.1588C59.0149 29.8093 59.1197 29.4629 59.3341 29.1857C59.6654 28.7354 60.1393 28.4104 60.6786 28.2637C61.5926 28.0252 62.497 27.7211 63.3997 28.3181C63.5742 28.435 63.6942 28.3533 63.7599 28.1725C63.7931 28.0942 63.8051 28.0085 63.7944 27.9241C63.7837 27.8398 63.7508 27.7598 63.699 27.6923C63.2573 27.052 62.6122 26.8151 61.8807 26.8023C61.3194 26.8139 60.7637 26.9166 60.2353 27.1064C59.2541 27.4266 58.6346 28.0668 58.5034 29.1056C58.4266 29.6658 58.4698 30.2213 58.9019 30.6822ZM51.5215 45.9554C50.0505 45.1871 48.4418 46.4564 47.728 47.6569C47.3454 48.2972 47.3598 49.7009 47.7136 49.989C47.7856 49.9218 47.7312 49.8434 47.7296 49.7713C47.7104 48.827 47.9328 47.969 48.6611 47.316C49.0901 46.926 49.6017 46.6382 50.1577 46.474C50.5979 46.3444 50.9628 46.0323 51.5215 45.9554ZM48.3762 50.6869L48.3282 50.7669C48.545 50.9547 48.7716 51.131 49.0069 51.2951C49.7448 51.7609 50.5355 52.0618 51.4286 51.993C51.5135 51.993 51.6207 52.0202 51.6399 51.8906C51.6623 51.7305 51.5391 51.7465 51.4446 51.7305C51.3886 51.7209 51.3326 51.7161 51.2846 51.7097C50.7425 51.6405 50.2129 51.4955 49.7111 51.2791C49.2598 51.0886 48.8196 50.879 48.3762 50.6869Z" fill="#F8F2EA"/>
<path d="M27.504 55.0054C27.9234 55.8505 27.9842 56.694 28.0258 57.5344C28.0562 58.149 28.0835 58.7668 28.0707 59.3783C28.0744 60.1899 28.1527 60.9995 28.3043 61.7968C28.3284 61.9569 28.3043 62.0289 28.1267 62.0097C27.8866 61.9825 27.6465 62.0689 27.3616 61.9953C27.8162 61.5263 27.7521 60.9437 27.8178 60.3947C27.9458 59.3319 27.7697 58.2867 27.6577 57.2334C27.5969 56.6492 27.416 56.081 27.4304 55.4888C27.4457 55.3264 27.4702 55.165 27.504 55.0054Z" fill="#F8F2EA"/>
<path d="M28.935 38.394C29.1238 38.9959 29.063 39.5689 29.0678 40.1259C29.087 41.8002 29.0374 43.476 29.0038 45.1503C29.0038 45.2495 29.1222 45.4512 28.8837 45.4496C28.6453 45.448 28.5876 45.3136 28.594 45.0751C28.6292 43.8842 28.7957 42.6997 28.7541 41.5057C28.7381 40.9919 28.6965 40.4797 28.6757 39.9659C28.6746 39.4312 28.7622 38.9 28.935 38.394Z" fill="#F8F2EA"/>
<path d="M27.3488 37.5635C27.7137 38.287 27.933 39.0281 27.8098 39.8044C27.6505 40.8882 27.5931 41.9847 27.6385 43.0792C27.6609 43.7051 27.5777 44.3325 27.6625 44.9552C27.7025 45.2417 27.5024 45.1553 27.3744 45.1809C27.1583 45.2225 27.1967 45.0832 27.2143 44.9616C27.4003 43.8385 27.4924 42.7018 27.4896 41.5634C27.4896 40.4542 27.4896 39.3514 27.1695 38.2758C27.1055 38.0597 27.1599 37.8868 27.3488 37.5635Z" fill="#F8F2EA"/>
<path d="M32.626 56.278C32.4084 55.9051 32.5012 55.4953 32.4404 55.1047C32.3219 54.3444 32.0978 53.5889 32.2243 52.811C32.3123 52.27 32.3619 51.729 32.4084 51.1864C32.4196 51.06 32.4788 51.0503 32.5796 51.0455C32.7397 51.0375 32.6981 51.1576 32.7013 51.2296C32.7541 52.19 32.8245 53.1408 32.8037 54.1011C32.7877 54.8294 32.6436 55.5465 32.626 56.278Z" fill="#F8F2EA"/>
<path d="M26.2475 43.6425C25.9546 41.7858 25.5961 39.9322 26.2283 38.0403C26.3505 38.2749 26.391 38.5435 26.3436 38.8038C26.2427 39.6841 26.358 40.5645 26.3212 41.4512C26.2908 42.1827 26.2972 42.9142 26.2475 43.6425Z" fill="#F8F2EA"/>
<path d="M40.5427 50.3732V55.8009C40.5187 55.58 40.1137 55.7273 40.1362 55.404C40.1506 55.1831 40.1057 54.9558 40.1858 54.7429C40.2143 54.6349 40.2241 54.5229 40.2146 54.4116C40.245 53.496 40.2402 52.5757 40.3138 51.6633C40.3704 51.2343 40.4046 50.8026 40.4163 50.37C40.4595 50.3284 40.5011 50.346 40.5427 50.3732Z" fill="#F8F2EA"/>
<path d="M39.3054 27.6123C39.3807 28.0637 39.4511 28.5151 39.5311 28.9648C39.5776 29.2273 39.4591 29.4674 39.4415 29.7219C39.3807 30.6183 39.4767 31.5114 39.4831 32.4046C39.4831 32.6367 39.4751 32.8688 39.4655 33.1009C39.4655 33.1681 39.5279 33.2833 39.4031 33.2849C39.243 33.2849 39.3167 33.1521 39.3231 33.0816C39.3814 32.111 39.3336 31.1368 39.1806 30.1765C39.0885 29.3205 39.1306 28.4553 39.3054 27.6123Z" fill="#F8F2EA"/>
<path d="M38.129 41.7251C38.129 42.391 38.2891 43.0408 38.1946 43.7051C38.1858 43.9273 38.1992 44.1498 38.2346 44.3693C38.2346 44.4478 38.3083 44.571 38.1802 44.579C38.0522 44.587 37.8809 44.587 37.8601 44.4526C37.7993 43.918 37.6696 43.3609 37.7656 42.8519C37.8425 42.4838 38.0426 42.1173 38.129 41.7251Z" fill="#F8F2EA"/>
<path d="M69.4357 61.7856C70.0183 61.7664 70.6025 61.7664 71.1852 61.7248C71.9855 61.6656 72.7858 61.6944 73.5861 61.5423C73.6902 61.5215 73.8678 61.4255 73.871 61.6752C73.871 61.8753 73.7862 61.9553 73.5861 61.9409C72.2288 61.8417 70.865 61.8817 69.5077 61.8705C69.4819 61.8669 69.457 61.8587 69.4341 61.8465L69.4357 61.7856Z" fill="#F8F2EA"/>
<path d="M42.4683 71.6873C42.0697 72.7165 40.5315 73.5392 39.3151 73.56C40.4723 73.0574 41.6152 72.6204 42.4683 71.6873Z" fill="#F8F2EA"/>
<path d="M44.8356 37.5762C45.2646 38.5446 44.9285 39.5065 44.9541 40.4573C44.7716 39.5145 44.3907 38.5814 44.8356 37.5762Z" fill="#F8F2EA"/>
<path d="M43.728 49.9187C43.9777 50.6166 43.728 51.3289 43.7984 52.0331C43.8608 52.7006 43.8977 53.3681 43.9681 54.0339C43.9937 54.274 43.848 54.3204 43.664 54.4037C43.6111 52.8911 43.7152 51.4041 43.728 49.9187Z" fill="#F8F2EA"/>
<path d="M64.3297 26.4597C63.6574 26.042 62.9964 25.5794 62.1752 25.5234C61.535 25.4786 60.8947 25.4017 60.2545 25.5234C60.1681 25.5394 60.0784 25.541 59.9584 25.5522C61.1749 24.9519 63.3805 25.3921 64.3745 26.4149C64.3584 26.4287 64.3434 26.4437 64.3297 26.4597Z" fill="#F8F2EA"/>
<path d="M26.478 58.242C26.5356 59.4841 26.6045 60.7245 26.7853 61.9698C26.7965 61.9698 26.7853 61.981 26.7597 61.981C26.3371 62.0034 26.3163 62.0002 26.3676 61.5857C26.5036 60.4652 26.3948 59.3544 26.4284 58.2388L26.478 58.242Z" fill="#F8F2EA"/>
<path d="M42.2346 57.6946C42.6876 58.5989 42.5035 59.5129 42.3227 60.4269C42.2218 59.5225 42.3163 58.6037 42.2346 57.6946Z" fill="#F8F2EA"/>
<path d="M58.601 58.4292C58.5482 58.4292 58.5146 58.3875 58.5386 58.3395C58.8795 57.6993 60.2577 56.6301 61.2148 56.5532C60.3889 56.9054 59.7631 57.4 59.1164 57.8609C58.9032 58.0039 58.7276 58.196 58.6042 58.4212L58.601 58.4292Z" fill="#F8F2EA"/>
<path d="M30.1691 38.2964C30.3215 38.5143 30.3975 38.7766 30.3852 39.0423C30.3243 39.6537 30.2619 40.2652 30.2027 40.8766C30.1889 40.9852 30.1529 41.0898 30.097 41.1839C30.0926 41.1943 30.0907 41.2057 30.0917 41.217C30.0926 41.2283 30.0964 41.2391 30.1025 41.2486C30.1087 41.2581 30.1172 41.266 30.1271 41.2714C30.137 41.2769 30.1481 41.2798 30.1595 41.28C30.2059 41.28 30.2299 41.2223 30.2187 41.1791C29.9498 40.2267 30.1995 39.2616 30.1691 38.2964Z" fill="#F8F2EA"/>
<path d="M37.0054 52.5646C37.0246 51.6042 37.1462 50.6614 37.2343 49.7107C37.2471 49.5698 37.2551 49.4466 37.4599 49.4434C37.4599 50.503 37.0838 51.5242 37.1142 52.5822L37.0054 52.5646Z" fill="#F8F2EA"/>
<path d="M40.5379 28.0574C40.626 28.9265 40.7188 29.7957 40.6228 30.6824C40.5699 30.2381 40.494 29.7968 40.3955 29.3603C40.269 28.8977 40.4243 28.4879 40.5379 28.0574Z" fill="#F8F2EA"/>
<path d="M33.9882 45.7747C34.1482 45.1232 33.7561 44.3885 34.4267 43.8379C34.3494 44.2636 34.337 44.6986 34.3899 45.128C34.4187 45.4449 34.3723 45.653 33.9882 45.7747Z" fill="#F8F2EA"/>
<path d="M34.5451 40.4972C34.4621 39.8243 34.3376 39.1572 34.1722 38.4996C34.1564 38.4573 34.1503 38.4118 34.1546 38.3668C34.1818 38.2644 34.0666 38.0915 34.2394 38.0659C34.4123 38.0403 34.3995 38.2259 34.4219 38.3316C34.574 39.0471 34.5147 39.7753 34.5451 40.4972Z" fill="#F8F2EA"/>
<path d="M43.3438 37.8003C43.7984 38.6102 43.4815 39.4569 43.4927 40.2893C43.3688 39.4657 43.319 38.6327 43.3438 37.8003Z" fill="#F8F2EA"/>
<path d="M37.4359 61.2223C37.1606 61.0623 37.1654 60.8462 37.1862 60.5725C37.2278 60.0075 37.199 59.4376 37.2326 58.8662C37.373 59.6436 37.441 60.4324 37.4359 61.2223Z" fill="#F8F2EA"/>
<path d="M29.8458 48.1724C30.4076 48.6013 30.6461 50.6982 30.1851 51.1367C30.4876 50.0979 30.2923 49.1455 29.8458 48.1724Z" fill="#F8F2EA"/>
<path d="M40.3923 42.5862C40.4275 43.3289 40.5283 44.062 40.5267 44.795C40.5955 44.763 40.5827 44.707 40.5027 44.651C40.2722 44.4909 40.229 44.2796 40.2642 44.0107C40.3234 43.5626 40.2642 43.1016 40.4355 42.6662C40.4419 42.647 40.4067 42.6118 40.3923 42.5862Z" fill="#F8F2EA"/>
<path d="M40.1346 64.1643C40.1458 65.0126 40.5379 65.7937 40.5523 66.5652C40.2258 65.8932 40.065 65.1528 40.0834 64.406C40.0785 64.3172 40.0672 64.229 40.0497 64.1418L40.1346 64.1643Z" fill="#F8F2EA"/>
<path d="M31.4896 60.7166C31.5431 61.0331 31.6125 61.3466 31.6977 61.6561C31.7857 61.9266 31.7169 62.0019 31.4528 61.965C31.3403 61.9585 31.2275 61.9585 31.1151 61.965C31.4704 61.6129 31.4608 61.1695 31.4896 60.7166Z" fill="#F8F2EA"/>
<path d="M38.4875 68.0632C38.8332 68.7339 38.4875 69.2941 38.4459 69.8719C38.3258 69.2861 38.4475 68.7131 38.4875 68.0632Z" fill="#F8F2EA"/>
<path d="M43.2158 29.6035C43.2862 30.2214 42.9149 30.724 42.782 31.2938C42.7116 30.6775 42.9709 30.1445 43.2158 29.6035Z" fill="#F8F2EA"/>
<path d="M57.9608 57.9763C58.2697 57.3056 58.8523 56.9695 59.4862 56.6958C58.9708 57.1216 58.3977 57.4641 57.9608 57.9763Z" fill="#F8F2EA"/>
<path d="M48.2257 42.1509C48.1434 41.2744 48.1338 40.3927 48.1969 39.5146L48.3026 42.1653L48.2257 42.1509Z" fill="#F8F2EA"/>
<path d="M42.1786 38.5173L42.0473 36.7566C42.193 37.3344 42.4106 37.9042 42.2826 38.5173H42.1786Z" fill="#F8F2EA"/>
<path d="M65.7046 35.1033C65.2244 34.74 65.0643 34.2278 65.0643 33.6467C65.266 34.1269 65.4149 34.6439 65.751 35.0649C65.7335 35.075 65.7178 35.088 65.7046 35.1033Z" fill="#F8F2EA"/>
<path d="M45.8536 46.4229C45.5588 46.9044 45.3401 47.4287 45.2054 47.9771C45.189 47.6859 45.2388 47.3947 45.3511 47.1255C45.4634 46.8564 45.6352 46.6161 45.8536 46.4229Z" fill="#F8F2EA"/>
<path d="M43.7424 45.2607C43.8288 45.7169 43.9153 46.1731 44.0081 46.6565C43.8608 46.6485 43.7728 46.6181 43.7632 46.4612C43.7376 46.0643 43.7056 45.6609 43.6752 45.2719L43.7424 45.2607Z" fill="#F8F2EA"/>
<path d="M66.8715 59.3943C66.5657 58.8773 66.0872 58.6596 65.7878 58.2515C66.2056 58.2931 66.7642 58.8901 66.8715 59.3943Z" fill="#F8F2EA"/>
<path d="M32.7897 47.449C32.8303 47.5999 32.8555 47.7545 32.865 47.9104C32.865 48.005 32.9147 48.162 32.7673 48.1909C32.7194 48.1986 32.6703 48.1949 32.6241 48.1801C32.5779 48.1654 32.5358 48.14 32.5013 48.1059C32.4655 48.0559 32.4463 47.996 32.4463 47.9345C32.4463 47.873 32.4655 47.8131 32.5013 47.763C32.5702 47.6781 32.6583 47.5884 32.7897 47.449Z" fill="#F8F2EA"/>
<path d="M57.7415 27.1721C57.861 26.9594 58.026 26.7757 58.2246 26.6341C58.4233 26.4924 58.6507 26.3963 58.8907 26.3525C58.7196 26.5271 58.5258 26.6779 58.3145 26.8007C58.1208 26.9128 57.9319 27.0472 57.7415 27.1721Z" fill="#F8F2EA"/>
<path d="M37.0054 52.5645L37.1142 52.5821C37.1702 53.1967 37.0054 53.7985 37.0054 54.4116V52.5645Z" fill="#5B5B5B"/>
<path d="M26.478 58.242H26.4284V56.5405H26.5404C26.6065 57.1076 26.5854 57.6813 26.478 58.242Z" fill="#5B5B5B"/>
<path d="M66.1816 28.4446C66.3513 29.485 66.3513 29.485 66.1816 29.9412C65.9959 29.6691 66.2024 29.4226 66.1816 29.1793C66.1608 28.936 66.1816 28.6895 66.1816 28.4446Z" fill="#F8F2EA"/>
<path d="M44.9156 57.6658C44.9701 58.37 45.0234 59.0754 45.0757 59.7818C44.9191 59.0881 44.8652 58.3751 44.9156 57.6658Z" fill="#5B5B5B"/>
<path d="M48.3426 42.5078C48.3602 43.0328 48.3186 43.561 48.4066 44.1212C48.3666 44.1709 48.2626 44.1549 48.1985 44.1132C48.1345 44.0716 48.1985 43.9708 48.2242 43.9084C48.3634 43.4522 48.2562 42.9896 48.2658 42.5318L48.3426 42.5078Z" fill="#F8F2EA"/>
<path d="M65.3493 57.3519C65.019 57.0773 64.6385 56.8696 64.2288 56.7405C64.2512 56.6444 64.3121 56.6156 64.3793 56.6492C64.7202 56.8253 65.09 56.9565 65.3653 57.2431C65.4037 57.2831 65.3781 57.3215 65.3461 57.3535L65.3493 57.3519Z" fill="#F8F2EA"/>
<path d="M28.0402 37.016C28.5754 37.0015 28.5754 37.0015 28.3302 37.5479C28.2213 37.5015 28.2373 37.3877 28.1844 37.3012C28.1315 37.2086 28.0834 37.1134 28.0402 37.016Z" fill="#F8F2EA"/>
<path d="M37.9818 29.0049C38.1418 29.5987 38.025 30.1845 38.0682 30.7656H37.9818V29.0049Z" fill="#F8F2EA"/>
<path d="M35.4752 39.2057C35.4174 38.8086 35.4094 38.4059 35.4511 38.0068C35.5032 38.4044 35.5112 38.8064 35.4752 39.2057Z" fill="#F8F2EA"/>
<path d="M58.5306 35.0105C58.5306 34.7464 58.521 34.4967 58.5306 34.2486C58.5463 34.1159 58.5731 33.9847 58.6106 33.8564C58.7018 34.3927 58.6794 34.6984 58.5306 35.0105Z" fill="#F8F2EA"/>
<path d="M33.9193 61.9351C34.0958 61.7775 34.226 61.5747 34.2959 61.3486C34.5378 62.0216 34.501 61.9463 33.9193 61.9351Z" fill="#F8F2EA"/>
<path d="M38.9581 72.4522C39.4463 72.3418 39.9185 72.1609 40.4307 72.1641C39.9524 72.3159 39.4584 72.4126 38.9581 72.4522Z" fill="#5B5B5B"/>
<path d="M55.3117 62.2804C54.9003 62.3908 54.4858 62.3252 54.0728 62.3012C54.4858 62.3236 54.8955 62.1716 55.3117 62.2804Z" fill="#F8F2EA"/>
<path d="M56.5298 36.2882C56.7381 36.011 57.0842 36.0622 57.3598 35.9373C57.1451 36.1968 56.8198 36.2 56.5298 36.2882Z" fill="#F8F2EA"/>
<path d="M39.7922 58.0706V58.9022C39.6993 58.6586 39.531 58.375 39.7922 58.0706Z" fill="#F8F2EA"/>
<path d="M38.065 41.5617C38.0444 41.2014 38.0697 40.84 38.1402 40.4861C38.161 40.843 38.2282 41.1984 38.1658 41.5553L38.065 41.5617Z" fill="#5B5B5B"/>
<path d="M28.8293 47.0119L27.869 46.4341C28.077 46.4245 28.5988 46.6998 28.8293 47.0119Z" fill="#F8F2EA"/>
<path d="M37.4167 70.8537L37.6795 70.5588L37.9999 70.9851C37.7979 70.9872 37.5982 70.9423 37.4167 70.8537Z" fill="#F8F2EA"/>
<path d="M39.243 66.405C39.1406 65.9712 39.0285 65.6047 39.1037 65.2253C39.0877 65.6047 39.3214 65.9472 39.243 66.405Z" fill="#F8F2EA"/>
<path d="M26.5165 56.2243C26.4672 55.9488 26.4672 55.6667 26.5165 55.3911C26.6607 55.7036 26.5373 55.9648 26.5165 56.2243Z" fill="#F8F2EA"/>
<path d="M52.4466 37.04C52.1114 37.0757 51.7728 37.0584 51.443 36.9888H52.4466C52.4498 37.0057 52.4498 37.0231 52.4466 37.04Z" fill="#F8F2EA"/>
<path d="M43.7456 58.5925C43.7632 58.9623 43.8304 59.332 43.7616 59.7386C43.5247 59.3352 43.7152 58.9623 43.7456 58.5925Z" fill="#5B5B5B"/>
<path d="M46.1385 39.329C46.104 39.0341 46.1142 38.7357 46.169 38.4438C46.293 38.7237 46.3016 39.0412 46.193 39.3274C46.185 39.3328 46.1756 39.3357 46.166 39.336C46.1564 39.3363 46.1468 39.3339 46.1385 39.329Z" fill="#F8F2EA"/>
<path d="M35.9715 31.9036C36.0171 31.9934 36.0408 32.0928 36.0408 32.1936C36.0408 32.2944 36.0171 32.3937 35.9715 32.4836C35.6879 32.3026 35.901 32.1407 35.9715 31.9036Z" fill="#F8F2EA"/>
<path d="M42.4347 35.1016C42.5949 35.076 42.6622 35.2138 42.7552 35.2875C42.8241 35.3388 43.0308 35.3644 42.9154 35.5006C42.8257 35.6032 42.7279 35.4397 42.6558 35.374C42.5837 35.3083 42.4539 35.2298 42.4347 35.0952V35.1016Z" fill="#F8F2EA"/>
<path d="M52.4466 37.04C52.4498 37.0231 52.4498 37.0057 52.4466 36.9888H53.3045C53.0228 37.0848 52.7443 37.2273 52.4466 37.04Z" fill="#5B5B5B"/>
<path d="M46.4042 44.2427C46.0937 43.9914 46.3514 43.6633 46.2666 43.3816C46.3952 43.6508 46.4414 43.9521 46.3994 44.2475L46.4042 44.2427Z" fill="#5B5B5B"/>
<path d="M41.2632 64.496C41.2295 64.472 41.2151 64.4672 41.2135 64.4592C41.1734 64.3166 41.0869 64.1788 41.1558 64.0249C41.1558 64.0153 41.2295 64.0169 41.2359 64.0249C41.2723 64.0975 41.2935 64.1767 41.2981 64.2577C41.3028 64.3387 41.2909 64.4198 41.2632 64.496Z" fill="#F8F2EA"/>
<path d="M45.3046 44.7615C45.3383 44.9538 45.3767 45.146 45.4056 45.3399C45.4152 45.4024 45.4168 45.4857 45.3191 45.4825C45.2213 45.4793 45.2518 45.4056 45.2502 45.3543C45.2502 45.1589 45.2502 44.9618 45.2502 44.7647L45.3046 44.7615Z" fill="#5B5B5B"/>
<path d="M58.15 58.3923C58.1708 58.5045 57.9977 58.9451 57.9208 58.9596C57.9058 58.9598 57.8909 58.9565 57.8773 58.9502C57.8637 58.9438 57.8518 58.9344 57.8423 58.9227C57.8103 58.8794 57.8423 58.8442 57.8696 58.8089L58.15 58.4003V58.3923Z" fill="#F8F2EA"/>
<path d="M30.4527 53.1567L30.4255 53.5589L30.1274 53.4323C30.2103 53.314 30.3224 53.2191 30.4527 53.1567Z" fill="#F8F2EA"/>
<path d="M48.3173 37.0657C48.3173 37.2596 48.3173 37.4839 47.9968 37.2884C48.1194 37.2398 48.2291 37.1636 48.3173 37.0657Z" fill="#F8F2EA"/>
<path d="M29.7993 51.8816L30.0733 51.3096C30.0744 51.4195 30.0503 51.5282 30.0028 51.6274C29.9553 51.7266 29.8857 51.8135 29.7993 51.8816Z" fill="#F8F2EA"/>
<path d="M46.1386 39.3289C46.1468 39.334 46.1562 39.3367 46.1659 39.3367C46.1755 39.3367 46.1849 39.334 46.1931 39.3289V39.9954C46.0729 39.7775 45.98 39.5612 46.1386 39.3289Z" fill="#5B5B5B"/>
<path d="M40.5429 50.374C40.5013 50.3467 40.4596 50.3291 40.4163 50.374C40.3817 50.1568 40.3877 49.9352 40.434 49.7202C40.5495 49.9173 40.5883 50.1501 40.5429 50.374Z" fill="#5B5B5B"/>
<path d="M40.1348 64.1649L40.0498 64.1489C39.9715 63.9492 39.9386 63.7347 39.9537 63.5208C40.0661 63.7173 40.1283 63.9386 40.1348 64.1649Z" fill="#5B5B5B"/>
<path d="M48.3428 42.5082L48.2659 42.5322C48.23 42.4762 48.2077 42.4125 48.2007 42.3463C48.1938 42.2801 48.2023 42.2132 48.2258 42.1509L48.3059 42.1637C48.3408 42.2133 48.3624 42.2709 48.3689 42.3312C48.3753 42.3915 48.3663 42.4524 48.3428 42.5082Z" fill="#5B5B5B"/>
<path d="M26.2684 43.6299C26.3982 43.7388 26.3453 43.8366 26.3533 43.9664C26.2171 43.8638 26.1883 43.7741 26.2684 43.6299Z" fill="#5B5B5B"/>
<path d="M29.086 47.1454C28.9571 47.1375 28.8886 47.0977 28.8982 47.0324C28.9077 46.9672 28.9618 47.0101 28.9921 47.0324C29.0223 47.0547 29.0335 47.085 29.086 47.1454Z" fill="#F8F2EA"/>
<path d="M58.6007 58.421H58.473C58.4921 58.3987 58.5081 58.362 58.532 58.3556C58.5879 58.3428 58.6055 58.3795 58.5975 58.4322L58.6007 58.421Z" fill="#F8F2EA"/>
<path d="M65.3508 57.3529C65.3508 57.3133 65.3603 57.2689 65.4222 57.2958C65.4301 57.2958 65.4365 57.3101 65.4428 57.318L65.3492 57.3513L65.3508 57.3529Z" fill="#F8F2EA"/>
<path d="M43.2654 29.3932H43.2825C43.284 29.3855 43.284 29.3776 43.2825 29.3699H43.2654C43.2646 29.3776 43.2646 29.3855 43.2654 29.3932Z" fill="#F8F2EA"/>
<path d="M29.7252 52.0388L29.6761 52.0055C29.692 51.9922 29.7103 51.9819 29.73 51.9753C29.7411 51.9753 29.7554 51.9912 29.7696 52.0007L29.7252 52.0388Z" fill="#F8F2EA"/>
<path d="M46.3994 44.2477C46.4517 44.2477 46.4613 44.2826 46.4517 44.327C46.4517 44.3349 46.4375 44.3397 46.4295 44.346C46.4216 44.3111 46.4121 44.2778 46.4042 44.2429L46.3994 44.2477Z" fill="#5B5B5B"/>
<path d="M58.1497 58.4018H58.2311L58.2014 58.4441L58.1497 58.3909V58.4018Z" fill="#F8F2EA"/>
<path d="M42.3623 35.0308L42.3483 35.0183L42.3529 35.0417L42.3623 35.0308Z" fill="#F8F2EA"/>
<path d="M65.7515 35.0647C65.7515 35.0913 65.7656 35.1336 65.7515 35.1399C65.7374 35.1462 65.7076 35.1289 65.7014 35.1023C65.7157 35.0869 65.7327 35.0742 65.7515 35.0647Z" fill="#F8F2EA"/>
<path d="M42.433 35.0939C42.3875 35.0939 42.3671 35.0751 42.364 35.0312L42.3546 35.0422C42.4079 35.025 42.4471 35.0234 42.4267 35.1002L42.433 35.0939Z" fill="#F8F2EA"/>
<path d="M38.0649 41.5618H38.1648C38.1553 41.5887 38.1506 41.6331 38.1347 41.6379C38.0776 41.6506 38.0729 41.5951 38.0649 41.5618Z" fill="#F8F2EA"/>
<path d="M64.3709 26.4119C64.4026 26.4119 64.4359 26.4325 64.4105 26.4674C64.3851 26.5023 64.3582 26.4674 64.3297 26.4674C64.3418 26.4477 64.3556 26.4292 64.3709 26.4119Z" fill="#F8F2EA"/>
<path d="M58.9019 30.6822C58.4698 30.2213 58.4217 29.6658 58.497 29.1104C58.6298 28.0748 59.2477 27.425 60.2289 27.1112C60.7573 26.9214 61.313 26.8187 61.8743 26.8071C62.6058 26.8199 63.2508 27.0584 63.6926 27.6971C63.7444 27.7646 63.7773 27.8446 63.788 27.9289C63.7986 28.0133 63.7867 28.099 63.7534 28.1773C63.6878 28.3581 63.5678 28.4398 63.3933 28.3229C62.4969 27.7259 61.5926 28.03 60.6722 28.2685C60.1328 28.4152 59.659 28.7402 59.3277 29.1905C59.1133 29.4677 59.0085 29.8141 59.0332 30.1636C59.0563 30.3469 59.0095 30.5321 58.9019 30.6822Z" fill="#030202"/>
<path d="M51.5214 45.9554C50.9628 46.0322 50.6011 46.3444 50.1577 46.474C49.6017 46.6381 49.0901 46.926 48.6611 47.3159C47.9328 47.969 47.7103 48.8269 47.7296 49.7713C47.7296 49.8433 47.7856 49.9218 47.7135 49.989C47.3598 49.7009 47.3454 48.3035 47.728 47.6569C48.4418 46.4564 50.0505 45.1871 51.5214 45.9554Z" fill="#030202"/>
<path d="M48.3762 50.687C48.8196 50.8855 49.2597 51.0888 49.7047 51.2792C50.2065 51.4957 50.7361 51.6406 51.2781 51.7098C51.3326 51.7098 51.3886 51.721 51.4382 51.7306C51.5326 51.7466 51.6559 51.7306 51.6335 51.8907C51.6143 52.0203 51.507 51.9867 51.4222 51.9931C50.529 52.062 49.7383 51.761 49.0004 51.2953C48.7651 51.1312 48.5386 50.9548 48.3218 50.767L48.3762 50.687Z" fill="#030202"/>
<defs>
<filter id="filter0_d_2409_117000" x="0" y="0" width="107.272" height="105.398" filterUnits="userSpaceOnUse" color-interpolation-filters="sRGB">
<feFlood flood-opacity="0" result="BackgroundImageFix"/>
<feColorMatrix in="SourceAlpha" type="matrix" values="0 0 0 0 0 0 0 0 0 0 0 0 0 0 0 0 0 0 127 0" result="hardAlpha"/>
<feOffset dx="5" dy="4"/>
<feGaussianBlur stdDeviation="2"/>
<feComposite in2="hardAlpha" operator="out"/>
<feColorMatrix type="matrix" values="0 0 0 0 0 0 0 0 0 0 0 0 0 0 0 0 0 0 0.25 0"/>
<feBlend mode="normal" in2="BackgroundImageFix" result="effect1_dropShadow_2409_117000"/>
<feBlend mode="normal" in="SourceGraphic" in2="effect1_dropShadow_2409_117000" result="shape"/>
</filter>
</defs>
</svg>
