<svg width="170" height="167" viewBox="0 0 170 167" fill="none" xmlns="http://www.w3.org/2000/svg">
<g filter="url(#filter0_d_2409_117946)">
<path d="M0.277771 79.4649C0.570411 59.3135 7.33751 41.5706 21.0304 26.562C32.1904 14.332 46.0024 6.47643 62.0679 2.48038C67.0229 1.24816 72.059 0.532527 77.1595 0.244627C87.7061 -0.35256 97.97 1.0162 107.923 4.58287C118.109 8.23344 127.11 13.7957 134.967 21.1988C141.653 27.4981 146.866 34.8551 151.102 42.9723C155.463 51.3329 158.297 60.1344 159.568 69.4575C160.139 73.6378 160.395 77.8362 160.256 82.0477C159.613 101.656 152.763 118.818 139.406 133.264C128.089 145.503 114.163 153.366 97.8146 156.917C93.1257 157.935 88.3807 158.573 83.5761 158.679C62.0976 159.151 43.1587 152.478 27.0089 138.376C14.184 127.176 6.04626 113.111 2.24028 96.5711C1.0598 91.4448 0.426571 86.2429 0.353824 80.9784C0.347211 80.5013 0.307531 80.0259 0.279424 79.4665L0.277771 79.4649Z" fill="#060000"/>
<path d="M84.3848 150.813C73.2843 151.014 62.9311 149.198 53.0028 145.156C45.8802 142.257 39.2256 138.544 33.4339 133.447C23.9124 125.07 16.9502 114.936 12.5639 103.06C10.6477 97.8743 9.36468 92.5325 8.68186 87.0542C8.0073 81.6548 7.80393 76.2324 8.54628 70.8347C9.5449 63.5764 11.6843 56.6322 14.8819 50.0253C21.1877 36.9958 30.491 26.5853 42.7554 18.8597C50.8766 13.745 59.7153 10.3395 69.1889 8.61376C73.853 7.76322 78.5567 7.36345 83.2952 7.40787C90.636 7.47697 97.8462 8.48709 104.817 10.7936C109.671 12.3992 114.191 14.765 118.47 17.5551C132.356 26.6116 142.205 38.9469 148.397 54.2155C151.084 60.8405 152.757 67.7221 153.426 74.8423C153.75 78.2806 153.932 81.7272 153.641 85.1705C153.296 89.2603 152.469 93.2728 151.35 97.2228C148.027 108.935 142.157 119.225 133.793 128.091C125.049 137.359 114.596 144.025 102.48 148.051C98.8415 149.26 95.0455 149.859 91.2362 150.317C88.8322 150.604 86.4184 150.733 84.3848 150.815V150.813Z" fill="#F8F2EA"/>
<path d="M84.0337 141.987C74.2826 142.163 65.1879 140.568 56.4664 137.017C50.2096 134.47 44.3639 131.208 39.2762 126.73C30.9121 119.371 24.7962 110.468 20.943 100.035C19.2598 95.4791 18.1327 90.7862 17.5329 85.9734C16.9403 81.23 16.7617 76.4664 17.4138 71.7244C18.291 65.3478 20.1704 59.2473 22.9793 53.443C28.5186 41.9964 36.691 32.8506 47.4647 26.0635C54.5987 21.5702 62.363 18.5784 70.685 17.0623C74.7822 16.3151 78.9141 15.9639 83.0766 16.0029C89.5251 16.0636 95.8589 16.951 101.982 18.9773C106.246 20.3879 110.217 22.4662 113.976 24.9174C126.174 32.8737 134.826 43.7105 140.265 57.1241C142.625 62.9443 144.095 68.9899 144.683 75.2451C144.968 78.2657 145.127 81.2936 144.872 84.3186C144.568 87.9116 143.842 91.4366 142.859 94.9067C139.94 105.196 134.784 114.236 127.436 122.025C119.755 130.167 110.573 136.024 99.9298 139.56C96.7332 140.623 93.3986 141.149 90.0523 141.55C87.9406 141.803 85.8201 141.916 84.0337 141.988V141.987Z" fill="#181818"/>
<path d="M22.5049 31.5386C24.193 29.0084 26.1026 26.646 28.1428 24.3954C29.2753 23.1468 30.6228 22.1103 32.01 20.9768C29.0075 24.7392 25.7471 28.1398 22.6455 31.6785C22.5231 31.7064 22.4586 31.6785 22.5049 31.5386Z" fill="#F8F2EA"/>
<path d="M128.414 23.4497C132.07 26.4126 135.388 29.7095 138.334 33.3732C138.359 33.4933 138.324 33.5542 138.19 33.5098C135.041 30.0484 131.651 26.8239 128.259 23.6027C128.236 23.4777 128.279 23.4168 128.412 23.4497H128.414Z" fill="#F8F2EA"/>
<path d="M158.471 74.5347C158.869 77.6111 159.078 80.6957 158.775 83.7919C158.663 84.9533 158.484 86.1082 158.335 87.2664C157.99 87.1052 158.22 86.8403 158.216 86.6166C158.4 83.7409 158.569 80.8652 158.469 77.9812C158.431 76.8773 158.382 75.7735 158.335 74.6696C158.291 74.5363 158.349 74.5034 158.471 74.533V74.5347Z" fill="#F8F2EA"/>
<path d="M89.8387 153.166C88.1408 153.384 86.4444 153.61 84.7448 153.82C83.1477 154.019 81.5456 154.186 79.9501 154.406C79.5285 154.465 79.1268 154.4 78.7167 154.39C78.5961 154.386 78.3695 154.493 78.3977 154.222C78.4158 154.049 78.558 153.982 78.7283 153.97C79.3367 153.931 79.9435 153.868 80.5536 153.847C83.2965 153.751 86.0195 153.439 88.7393 153.092C89.1013 153.046 89.4667 152.988 89.8387 153.164V153.166Z" fill="#F8F2EA"/>
<path d="M50.5354 13.2036C53.8156 11.3726 57.4017 10.3427 60.9646 9.25526C61.1068 9.20755 61.1415 9.27171 61.1167 9.40003C57.5951 10.6076 54.0884 11.8595 50.6726 13.3434C50.537 13.3829 50.504 13.3253 50.5354 13.2036Z" fill="#F8F2EA"/>
<path d="M124.717 139.352C127.583 136.854 130.516 134.429 133.171 131.695C132.529 132.942 126.521 138.414 124.717 139.352Z" fill="#F8F2EA"/>
<path d="M137.535 26.4043C138.788 27.3206 143.601 32.9437 144.272 34.222C141.852 31.7675 139.949 28.8687 137.535 26.4043Z" fill="#F8F2EA"/>
<path d="M125.103 18.7935C123.367 17.79 121.633 16.7848 119.897 15.7812C121.81 16.4771 123.833 16.9773 125.103 18.7935Z" fill="#F8F2EA"/>
<path d="M22.1084 35.696C23.2972 33.9933 24.6397 32.4073 25.9723 30.8165C26.0648 30.7046 26.1442 30.4414 26.3641 30.6059C26.6071 30.7885 26.3922 30.9349 26.2699 31.0797C24.929 32.6656 23.5881 34.2532 22.2489 35.8408C22.1316 35.8605 22.0654 35.8292 22.1101 35.696H22.1084Z" fill="#F8F2EA"/>
<path d="M157.472 93.5739C157.126 95.8607 156.59 98.103 155.865 100.301C155.825 100.349 155.784 100.35 155.739 100.306C156.319 97.9319 156.91 95.5613 157.328 93.1511C157.64 93.2021 157.463 93.4193 157.472 93.5723V93.5739Z" fill="#F8F2EA"/>
<path d="M138.193 33.5096C138.241 33.4635 138.289 33.4191 138.337 33.373C139.94 35.2057 141.339 37.1881 142.667 39.2232C142.711 39.3515 142.65 39.3729 142.541 39.3466C141.202 37.3197 139.682 35.4262 138.193 33.5096Z" fill="#F8F2EA"/>
<path d="M157.472 93.5736C157.408 93.4387 157.5 93.2495 157.328 93.1524C157.624 90.9743 157.92 88.7961 158.216 86.6179C158.299 86.8269 158.171 87.0736 158.335 87.2678C158.047 89.3702 157.76 91.4711 157.474 93.5736H157.472Z" fill="#F8F2EA"/>
<path d="M155.097 102.788C154.737 104.599 153.971 106.274 153.333 107.991C153.221 108.294 153.09 108.59 152.968 108.89C152.859 108.904 152.781 108.893 152.854 108.755C153.596 106.739 154.376 104.736 154.995 102.678C155.044 102.659 155.094 102.643 155.127 102.701C155.14 102.724 155.122 102.757 155.099 102.788H155.097Z" fill="#F8F2EA"/>
<path d="M156.232 59.0046C156.842 60.8916 157.429 62.7852 157.49 64.7857C157.071 62.8592 156.652 60.9327 156.232 59.0046Z" fill="#F8F2EA"/>
<path d="M76.9655 5.9027C78.394 5.76451 79.8159 5.54077 81.251 5.50293C81.2576 5.5819 81.2659 5.65922 81.2725 5.73819C79.882 5.84018 78.4916 5.94218 77.0994 6.04418C76.9672 6.07873 76.9292 6.02444 76.9639 5.90105L76.9655 5.9027Z" fill="#F8F2EA"/>
<path d="M6.17773 79.3843V83.2718C6.10848 83.2718 6.03923 83.2685 5.96998 83.2668C5.67651 81.8684 6.19092 80.4964 6.17773 79.3843Z" fill="#F8F2EA"/>
<path d="M10.2473 55.6383C9.98609 56.3457 9.71825 57.0531 9.46529 57.7638C9.39915 57.9497 9.31979 58.0994 9.10155 58.0122C8.82049 57.8987 9.03377 57.7375 9.09659 57.6092C9.41899 56.9478 9.74966 56.293 10.0787 55.635C10.1365 55.5807 10.1928 55.5823 10.249 55.6399L10.2473 55.6383Z" fill="#F8F2EA"/>
<path d="M64.6352 7.29744C63.3654 7.61166 62.0973 7.92588 60.8276 8.24175C61.9733 7.60508 63.2365 7.38463 64.4996 7.16089C64.6286 7.1247 64.6666 7.17734 64.6352 7.29908V7.29744Z" fill="#F8F2EA"/>
<path d="M9.05326 99.7923C8.44483 98.5716 8.27288 97.2292 8.09598 95.8867C8.41507 97.188 8.73417 98.491 9.05326 99.7923Z" fill="#F8F2EA"/>
<path d="M22.1079 35.6958C22.1542 35.7435 22.2005 35.7929 22.2468 35.8406C21.6664 36.6352 21.0861 37.4314 20.5058 38.226C20.4562 38.1931 20.4082 38.1602 20.3586 38.1273C20.9191 37.3031 21.4515 36.4591 22.1079 35.6958Z" fill="#F8F2EA"/>
<path d="M32.6618 136.451C33.4389 137.065 34.2159 137.678 34.993 138.292C33.7778 137.734 33.0255 137.137 32.6618 136.451Z" fill="#F8F2EA"/>
<path d="M93.161 4.75082C92.2781 4.68502 91.3936 4.61757 90.4462 4.54683C91.42 4.04012 92.2864 4.63566 93.1775 4.5896C93.1709 4.64225 93.1659 4.69653 93.1593 4.74918L93.161 4.75082Z" fill="#F8F2EA"/>
<path d="M109.358 11.333C110.378 11.463 111.263 11.8529 112.068 12.4385C111.165 12.07 110.261 11.7015 109.358 11.333Z" fill="#F8F2EA"/>
<path d="M61.1167 9.40021C61.0655 9.3525 61.0159 9.30314 60.9646 9.25544C61.7053 8.91654 62.4973 8.77012 63.276 8.57764C63.2925 8.63028 63.3091 8.68293 63.3256 8.73557C62.5882 8.95766 61.8525 9.17811 61.1151 9.40021H61.1167Z" fill="#F8F2EA"/>
<path d="M97.641 152.534C98.2709 152.348 98.9008 152.161 99.5308 151.975C99.1555 152.623 98.4644 152.475 97.9138 152.675C97.7782 152.712 97.6245 152.786 97.641 152.534Z" fill="#F8F2EA"/>
<path d="M85.4442 155.313C86.4544 155.295 87.4514 155.01 88.4715 155.201C87.4613 155.219 86.4677 155.546 85.4442 155.313Z" fill="#F8F2EA"/>
<path d="M30.3904 132.472C30.9641 133.008 31.5395 133.546 32.1132 134.082C32.0768 134.12 32.0388 134.16 32.0024 134.197C31.3676 133.722 30.812 133.166 30.3904 132.472Z" fill="#F8F2EA"/>
<path d="M33.8489 135.768C33.2388 135.352 32.6866 134.873 32.2203 134.299C32.8585 134.679 33.4157 135.156 33.9415 135.673C33.9547 135.745 33.9233 135.778 33.8489 135.768Z" fill="#F8F2EA"/>
<path d="M12.3888 110.637C11.9854 109.981 11.7208 109.272 11.6167 108.497C11.9077 109.181 12.1986 109.867 12.4896 110.552C12.4896 110.619 12.4566 110.647 12.3904 110.639L12.3888 110.637Z" fill="#F8F2EA"/>
<path d="M128.415 23.4495C128.364 23.5005 128.312 23.5515 128.261 23.6025C127.866 23.2439 127.471 22.8853 127.077 22.5266C127.625 22.7059 128.046 23.0432 128.416 23.4495H128.415Z" fill="#F8F2EA"/>
<path d="M142.541 39.3465C142.582 39.3054 142.625 39.2643 142.666 39.2231C143.098 39.7002 143.394 40.2563 143.6 40.8749C143.247 40.3649 142.895 39.8549 142.541 39.3465Z" fill="#F8F2EA"/>
<path d="M64.6355 7.29776C64.5909 7.2517 64.5446 7.20563 64.4999 7.15957C65.1398 6.94899 65.7895 6.78777 66.4674 6.77954C66.4823 6.79599 66.4955 6.81409 66.5104 6.83054C65.9102 7.08718 65.2654 7.15957 64.6355 7.29612V7.29776Z" fill="#F8F2EA"/>
<path d="M43.4317 142.35C43.9045 142.625 44.379 142.9 44.8519 143.173C44.2782 143.081 43.7954 142.814 43.4317 142.35Z" fill="#F8F2EA"/>
<path d="M97.6409 152.534C97.674 152.692 97.8228 152.628 97.9137 152.676C97.3483 152.807 96.7845 152.941 96.219 153.072C96.6522 152.76 97.1416 152.631 97.6409 152.534Z" fill="#F8F2EA"/>
<path d="M158.47 74.5345C158.425 74.5805 158.381 74.625 158.335 74.671C158.16 74.1923 158.208 73.7037 158.326 73.2085L158.47 74.5345Z" fill="#F8F2EA"/>
<path d="M35.861 137.339C35.4245 137.081 35.0095 136.795 34.6623 136.423C34.659 136.359 34.6921 136.336 34.7533 136.351C35.1864 136.538 35.494 136.892 35.8577 137.171C35.9156 137.226 35.9172 137.282 35.861 137.339Z" fill="#F8F2EA"/>
<path d="M50.5357 13.2038C50.582 13.2499 50.6266 13.2976 50.6729 13.3436C50.324 13.5855 49.9372 13.7368 49.5156 13.8026C49.8148 13.5279 50.1521 13.3272 50.534 13.2021L50.5357 13.2038Z" fill="#F8F2EA"/>
<path d="M76.9657 5.90234C77.0103 5.95005 77.0566 5.99776 77.1013 6.04547C76.6664 6.26592 76.2134 6.15899 75.7538 6.05699C76.1572 6.00599 76.5623 5.95334 76.9657 5.90234Z" fill="#F8F2EA"/>
<path d="M10.2468 55.6381C10.1906 55.6381 10.1328 55.6348 10.0765 55.6331C10.2435 55.2663 10.4105 54.8994 10.5775 54.5342C10.5659 54.9422 10.4998 55.3239 10.2468 55.6381Z" fill="#F8F2EA"/>
<path d="M13.0312 48.5593C13.2313 48.153 13.4314 47.745 13.6314 47.3386C13.681 47.3617 13.7323 47.3847 13.7819 47.4077C13.5917 47.819 13.4727 48.2632 13.0312 48.5593Z" fill="#F8F2EA"/>
<path d="M153.937 60.7087C153.84 60.3205 153.742 59.9322 153.644 59.5439C153.93 59.8318 154.053 60.174 154.058 60.5557C154.121 60.6873 154.058 60.7219 153.935 60.7087H153.937Z" fill="#F8F2EA"/>
<path d="M152.853 108.755C152.891 108.8 152.929 108.846 152.967 108.89C152.844 109.234 152.707 109.569 152.376 109.935C152.499 109.448 152.646 109.091 152.853 108.755Z" fill="#F8F2EA"/>
<path d="M22.5049 31.5386C22.5512 31.5846 22.5992 31.6323 22.6455 31.6784C22.4884 32.0338 22.204 32.2855 21.9131 32.5388C22.0304 32.1571 22.2189 31.8199 22.5049 31.5386Z" fill="#F8F2EA"/>
<path d="M12.4876 110.552C12.6959 110.913 12.8927 111.277 12.9357 111.708C12.6843 111.386 12.4793 111.042 12.3884 110.639C12.4215 110.609 12.4545 110.581 12.4876 110.552Z" fill="#F8F2EA"/>
<path d="M35.861 137.339C35.861 137.283 35.8593 137.227 35.8577 137.171C36.185 137.359 36.4843 137.581 36.7108 137.9C36.395 137.764 36.0776 137.632 35.861 137.341V137.339Z" fill="#F8F2EA"/>
<path d="M152.884 56.405C152.629 56.127 152.439 55.826 152.507 55.3044C152.664 55.7634 152.775 56.0842 152.884 56.405Z" fill="#F8F2EA"/>
<path d="M153.937 60.7087C153.978 60.6577 154.018 60.6067 154.059 60.5557C154.224 60.8617 154.272 61.1923 154.221 61.5477C154.127 61.268 154.031 60.9883 153.937 60.7087Z" fill="#F8F2EA"/>
<path d="M155.739 100.305C155.782 100.324 155.823 100.32 155.864 100.301C155.77 100.6 155.676 100.901 155.526 101.38C155.473 100.862 155.559 100.574 155.739 100.307V100.305Z" fill="#F8F2EA"/>
<path d="M66.4669 6.78111C66.8108 6.60837 67.1712 6.53269 67.692 6.59356C67.2109 6.69063 66.8819 6.85679 66.5099 6.83211C66.495 6.81566 66.4818 6.79756 66.4669 6.78111Z" fill="#F8F2EA"/>
<path d="M34.6623 136.423C34.3912 136.204 34.12 135.987 33.8489 135.769C33.8803 135.737 33.91 135.704 33.9415 135.673C34.2506 135.854 34.5234 136.078 34.7533 136.351C34.7136 136.362 34.6838 136.387 34.6623 136.423Z" fill="#F8F2EA"/>
<path d="M155.098 102.788C155.063 102.752 155.029 102.714 154.994 102.678C155.076 102.392 155.159 102.105 155.241 101.819C155.286 102.161 155.299 102.495 155.096 102.788H155.098Z" fill="#F8F2EA"/>
</g>
<path d="M79.1751 58.7845C81.7813 58.8523 84.3876 59.0452 86.9939 58.9487C87.3874 58.9357 87.7888 58.9957 88.1902 58.9957C89.4777 58.9957 90.6974 58.649 91.9146 58.2841C92.128 58.2355 92.3185 58.1155 92.4545 57.9439C92.5905 57.7724 92.6639 57.5596 92.6626 57.3407C92.6932 56.9574 92.6507 56.5718 92.5375 56.2043C92.2768 55.4224 92.1204 54.6015 91.7321 53.8978C90.7261 52.0734 90.7131 50.1578 91.0519 48.164C91.336 46.5064 91.8676 44.9713 93.0796 43.7724C94.1187 42.6853 95.4413 41.9107 96.8978 41.5362C98.4615 41.1713 100.093 40.8638 101.712 41.2339C103.992 41.7551 106.012 42.7976 107.396 44.7289C108.24 45.9095 108.939 47.257 109.025 48.7347C109.122 50.3168 108.946 51.9039 108.504 53.426C108.231 54.2196 108.21 55.0779 108.444 55.8838C108.879 57.2312 109.934 57.7889 111.206 58.0809C113.616 58.6663 116.092 58.9344 118.572 58.8784C119.168 58.9007 119.758 59.015 120.32 59.2172C120.881 59.3788 121.118 59.8401 121.238 60.3952C121.574 61.972 121.53 63.5749 121.605 65.1699C121.647 66.0978 121.788 67.0282 121.759 67.9534C121.707 69.8117 121.96 71.6622 121.91 73.51C121.863 75.2067 122.072 76.8982 122.007 78.5819C121.936 80.3307 122.14 82.0769 122.064 83.8153C121.983 85.6214 122.194 87.425 122.08 89.2181C121.973 90.8783 122.194 92.5307 122.08 94.17C121.968 95.9944 122.226 97.8188 122.116 99.6224C122.046 100.834 122.262 102.054 121.965 103.271C121.704 104.332 121.337 104.738 120.221 104.718C119.364 104.699 118.527 104.845 117.68 104.892C115.335 105.028 112.989 105.132 110.664 105.414C109.92 105.503 109.166 105.448 108.444 105.252C107.63 105.036 107.354 104.361 107.365 103.602C107.38 102.474 106.843 101.551 106.392 100.587C105.611 98.9004 104.206 97.9674 102.564 97.1985C101.849 96.8576 101.071 96.666 100.279 96.6356C99.4876 96.6051 98.6979 96.7363 97.9585 97.0213C95.0369 98.0456 93.4236 100.879 93.4001 103.461C93.4001 103.936 93.3689 104.41 93.3663 104.884C93.3663 105.236 93.249 105.434 92.845 105.406C91.7113 105.309 90.588 105.541 89.4568 105.531C87.8149 105.515 86.1807 105.734 84.5466 105.664C82.7405 105.586 80.9343 105.771 79.1386 105.664C77.2777 105.546 75.422 105.604 73.5663 105.593C73.0842 105.593 72.5968 105.513 72.1094 105.531C71.0252 105.57 70.444 106.052 70.1756 107.131C69.9892 107.975 70.0535 108.854 70.3606 109.662C70.8454 111.129 71.3849 112.583 71.6507 114.111C71.8257 115.052 71.7861 116.02 71.5347 116.944C71.2834 117.868 70.8268 118.723 70.199 119.446C69.8055 119.949 69.376 120.423 68.9141 120.864C67.6814 121.984 66.2688 122.883 64.6476 123.181C61.4237 123.772 58.3743 123.407 56.0469 120.744C55.4758 120.133 54.9717 119.463 54.5431 118.745C53.9645 117.709 53.5986 116.568 53.4671 115.39C53.3355 114.211 53.4408 113.017 53.7768 111.88C54.087 110.767 54.6421 109.722 54.8819 108.575C54.8949 108.52 54.9184 108.471 54.9314 108.419C55.2442 106.938 54.8637 106.365 53.4354 105.849C51.6892 105.218 49.9065 105.294 48.0978 105.328C46.0258 105.361 43.9512 105.518 41.8792 105.359C40.6881 105.268 40.0834 104.621 39.9114 103.417C39.7472 102.281 39.4579 101.144 39.4892 100C39.5387 98.0612 39.2077 96.1586 39.1295 94.2378C39.0748 92.9737 39.0123 91.6993 39.067 90.4274C39.1165 89.2181 39.6508 88.3293 40.6594 88.1C41.1807 87.9827 41.7254 87.9801 42.2571 87.8941C43.3913 87.6899 44.4585 87.2122 45.3664 86.5023C46.9015 85.3425 47.2194 83.7188 46.7972 81.8892C46.276 79.6061 44.7122 78.5219 42.5464 77.9798C41.6238 77.7478 40.5891 77.7531 39.8098 77.0285C39.4219 76.6924 39.1775 76.2205 39.1269 75.7097C38.9237 73.7524 38.9106 71.8003 38.822 69.8248C38.7204 67.5521 38.822 65.2742 38.9106 63.0067C38.9381 62.0466 39.0251 61.0891 39.1712 60.1398C39.2937 59.4127 39.5022 59.285 40.2685 59.2276C41.0869 59.1625 41.9052 59.1182 42.7262 59.1077C45.1631 59.0765 47.6 59.2641 50.0394 59.0686C50.8448 59.0061 51.671 59.0452 52.4893 59.0113C53.4928 58.9722 54.3945 58.563 55.3354 58.3076C55.4508 58.2503 55.5462 58.1595 55.6091 58.047C55.8635 57.7232 56.0102 57.3279 56.0284 56.9165C56.0467 56.5052 55.9355 56.0984 55.7107 55.7534C55.4918 55.3964 55.2546 55.0497 55.0331 54.6953C54.1052 53.228 53.1852 51.7007 53.0758 49.9571C52.9011 47.1944 53.7768 44.7445 56.1486 43.113C57.4517 42.2295 58.9686 41.7629 60.5506 41.4736C62.0926 41.1561 63.6865 41.1908 65.2132 41.5753C66.777 41.9923 68.3407 42.5031 69.6309 43.5248C70.7802 44.4344 71.6012 45.6385 71.6559 47.1371C71.7067 48.4301 71.5203 49.7215 71.106 50.9475C70.7385 52.0317 70.371 53.1159 70.0635 54.2157C69.3676 56.6917 70.4649 58.2529 73.0685 58.5239C74.1111 58.6334 75.1536 58.5604 76.183 58.6933C77.2125 58.8262 78.1821 58.6751 79.1751 58.7845ZM48.5721 104.494C49.6798 104.59 50.7927 104.473 51.8899 104.658C52.8386 104.819 53.8238 104.744 54.7568 105.083C56.0156 105.544 57.0138 106.842 56.2476 108.395C55.8137 109.192 55.429 110.014 55.0956 110.858C54.5166 112.458 54.3886 114.186 54.7255 115.854C55.0539 117.535 55.9088 118.836 57.0425 119.998C58.1293 121.114 59.6201 121.46 61.0666 121.841C61.6631 122.007 62.2739 122.116 62.891 122.167C64.4548 122.268 65.8778 121.721 67.1783 120.965C68.7395 120.044 69.8766 118.546 70.345 116.795C71.0409 114.361 70.5769 112.033 69.0262 109.988C68.7235 109.555 68.532 109.055 68.4685 108.531C68.4145 108.062 68.4049 107.589 68.4398 107.118C68.4408 106.803 68.5042 106.491 68.6265 106.2C68.7487 105.91 68.9273 105.646 69.1519 105.425C69.3765 105.204 69.6428 105.029 69.9352 104.911C70.2277 104.793 70.5405 104.735 70.8558 104.738C71.5804 104.738 72.3023 104.754 73.0268 104.778C74.8304 104.838 76.6313 104.702 78.4375 104.791C80.1055 104.874 81.7761 104.718 83.4546 104.791C85.279 104.869 87.119 104.676 88.9564 104.757C90.1397 104.809 91.3255 104.673 92.5114 104.681C92.9102 104.681 92.991 104.514 92.9883 104.212C92.9731 102.088 93.629 100.014 94.8623 98.2853C95.3558 97.5277 96.0647 96.935 96.8978 96.5834C99.4337 95.5044 101.85 95.7807 104.266 96.9405C105.922 97.739 107.227 99.1196 107.93 100.819C108.191 101.413 108.41 102.025 108.308 102.713C108.276 103.096 108.286 103.48 108.339 103.86C108.36 104.103 108.467 104.381 108.72 104.402C109.035 104.467 109.355 104.506 109.676 104.52C110.784 104.436 111.894 104.358 113.005 104.35C114.972 104.335 116.937 104.293 118.897 104.123C119.133 104.104 119.37 104.142 119.588 104.233C120.138 104.444 121.066 103.923 120.985 103.425C120.834 102.481 120.928 101.559 120.985 100.615C121.102 98.6711 120.941 96.719 121.032 94.7695C121.108 93.2292 120.936 91.6915 120.99 90.1433C121.055 88.2772 120.842 86.4059 120.889 84.532C120.928 82.9917 120.709 81.4592 120.769 79.9111C120.836 78.1336 120.56 76.3613 120.625 74.5734C120.685 72.908 120.414 71.2452 120.461 69.5693C120.511 67.8075 120.237 66.0509 120.266 64.2812C120.284 63.1761 120.078 62.0685 120.06 60.9582C120.06 60.3926 119.778 60.2258 119.325 60.1607C119.124 60.1437 118.923 60.1437 118.723 60.1607C117.306 60.1824 115.889 60.1049 114.482 59.9287C113.252 59.8036 112.009 59.7958 110.776 59.6498C109.395 59.4856 108.217 58.9826 107.333 57.8724C107.023 57.4803 106.875 56.9837 106.922 56.4858C107.058 54.7821 107.355 53.0953 107.81 51.4479C108.071 50.5435 108.446 49.6235 108.219 48.6305C108.039 47.8715 107.767 47.1372 107.409 46.4438C106.575 44.8059 105.191 43.514 103.499 42.795C101.674 41.9577 99.6112 41.7907 97.6744 42.3233C94.6016 43.1677 92.3941 45.0547 91.5002 48.2161C91.1275 49.5192 90.9607 50.8953 91.5393 52.2167C92.0761 53.4469 92.4541 54.737 92.8971 56.001C93.0201 56.3633 93.1151 56.7345 93.1812 57.1113C93.4705 58.6751 92.5844 59.7697 90.9998 59.7828C89.8921 59.7828 88.7896 59.8531 87.6767 59.7567C85.9227 59.6029 84.1557 59.7775 82.3886 59.6811C80.3218 59.5664 78.2446 59.7332 76.1752 59.569C74.6896 59.4518 73.1989 59.5821 71.7055 59.4596C71.3176 59.4292 70.9414 59.3132 70.6038 59.1198C70.2662 58.9265 69.9758 58.6606 69.7534 58.3415C68.763 57.0879 68.617 55.7534 69.3025 54.26C69.8237 53.1081 70.4049 51.9613 70.6682 50.6999C70.8324 49.918 70.7281 49.0996 70.7854 48.3099C70.9314 46.2718 69.8341 44.8566 68.5023 43.6186C67.9055 43.0582 67.0298 42.7716 66.2453 42.438C64.1186 41.5284 61.9423 41.5909 59.813 42.3702C58.1033 42.9931 56.4248 43.7411 55.3823 45.3622C54.4232 46.84 53.6726 48.3985 53.8602 50.2464C53.9906 51.5208 54.5405 52.6441 55.0513 53.7857C55.5622 54.9273 56.4196 55.8264 56.834 57.0097C57.0946 57.7472 56.7428 59.04 56.0521 59.3058C55.3082 59.6138 54.5116 59.7749 53.7065 59.7801C52.2053 59.7619 50.704 59.6342 49.1976 59.7332C48.1432 59.814 47.0851 59.8349 46.0284 59.7958C44.2469 59.6753 42.4583 59.7102 40.6829 59.9C40.5074 59.9144 40.3411 59.9843 40.208 60.0996C40.0749 60.2149 39.982 60.3695 39.9427 60.5412C39.7979 61.0818 39.7063 61.6352 39.669 62.1936C39.6273 63.9711 39.8228 65.7459 39.7759 67.5286C39.7316 69.1211 39.9688 70.7109 39.9166 72.3138C39.8776 73.4944 40.047 74.6803 40.0965 75.8635C40.1147 76.2779 40.3571 76.3848 40.6855 76.4942C42.3092 77.0155 43.9746 77.4221 45.4003 78.4359C46.4167 79.1604 47.1751 79.9997 47.5661 81.2507C48.1942 83.2601 47.7251 86.3355 45.2204 87.7664C44.0737 88.4206 42.8904 88.9158 41.5195 88.9001C40.2164 88.9001 40.047 89.1399 40.047 90.4639C40.047 91.4048 40.1095 92.343 40.1095 93.2839C40.1095 95.1317 40.3701 96.9718 40.3467 98.8327C40.3284 99.9898 40.5187 101.155 40.6412 102.312C40.709 102.935 40.6412 103.571 40.808 104.186C40.8732 104.415 40.8992 104.533 41.2224 104.527C43.6697 104.48 46.1248 104.494 48.5721 104.494Z" fill="#F8F2EA"/>
<path d="M84.9141 132.587C83.379 132.571 82.7665 131.805 82.717 130.39C82.6623 128.894 83.7048 127.666 84.9219 127.671C86.3554 127.671 87.5829 128.667 87.5986 129.803C87.6298 131.755 86.2016 132.639 84.9141 132.587ZM84.4736 128.907C84.0175 128.966 83.8612 129.582 84.1739 130.105C84.2234 129.683 84.0853 129.219 84.4788 128.896H84.4632L84.4736 128.907ZM85.5292 129.331C84.9402 129.238 84.888 129.657 84.8515 130.043C84.8151 130.429 85.3207 131.023 85.6048 130.999C85.9749 130.968 86.5743 130.277 86.5065 129.886C86.4101 129.331 85.8836 129.443 85.5292 129.331Z" fill="#030202"/>
<path d="M133.063 84.6755C133.076 86.0307 131.931 87.4355 130.607 87.6258C130.044 87.7066 129.531 87.4355 129.098 87.1045C128.725 86.8078 128.434 86.4198 128.254 85.9779C128.074 85.536 128.011 85.0551 128.071 84.5817C128.131 84.1083 128.312 83.6584 128.596 83.2753C128.881 82.8923 129.259 82.5891 129.695 82.395C130.229 82.1656 130.738 82.4367 131.238 82.554C132.221 82.7885 133.055 83.7893 133.063 84.6755ZM130.962 84.4018C130.516 84.4018 130.214 84.7849 130.209 85.3609C130.209 85.8665 130.488 86.3539 130.795 86.3617C131.103 86.3696 131.937 85.5799 131.95 85.2827C131.965 84.9283 131.379 84.4044 130.962 84.4018ZM130.618 83.646C129.906 83.5704 129.338 83.8806 129.14 84.4279C129.043 84.7068 129.041 85.0101 129.136 85.29C129.23 85.5699 129.415 85.8103 129.661 85.9734C129.544 85.0273 129.63 84.162 130.618 83.646Z" fill="#030202"/>
<path d="M83.3946 42.8837C83.5551 42.8721 83.7163 42.8721 83.8768 42.8837C85.5266 43.1027 86.3606 44.2338 85.5161 45.9305C84.7864 47.4004 83.2643 47.7731 82.0289 47.0538C81.2288 46.5899 80.8874 45.5812 81.1402 44.6169C81.4555 43.4493 82.1045 42.9359 83.3946 42.8837ZM82.6127 43.6656C82.309 43.815 82.058 44.0535 81.8931 44.3491C81.7283 44.6448 81.6575 44.9837 81.6901 45.3206C81.711 45.8002 81.9195 46.2068 82.558 46.4882C81.8309 45.4457 82.1228 44.5935 82.6831 43.7673C82.7326 43.7673 82.7874 43.7282 82.7457 43.6735C82.704 43.6187 82.6596 43.6787 82.6127 43.6761V43.6656ZM84.7812 45.0782C84.7812 44.583 84.2469 44.0852 83.6865 44.0748C83.22 44.0748 82.7847 44.5961 82.7847 45.1955C82.7722 45.4334 82.8519 45.667 83.0073 45.8476C83.1626 46.0282 83.3817 46.1419 83.6188 46.1651C83.9094 46.154 84.1865 46.0395 84.4001 45.8421C84.6137 45.6447 84.7498 45.3775 84.7838 45.0887L84.7812 45.0782Z" fill="#030202"/>
<path d="M30.1822 100.485C31.2612 100.485 32.1108 101.377 32.1265 102.549C32.1447 103.667 31.3837 104.718 30.5497 104.733C29.5072 104.752 28.2353 103.475 28.2223 102.416C28.2236 102.161 28.2755 101.908 28.3748 101.672C28.4741 101.437 28.619 101.223 28.8011 101.044C28.9832 100.864 29.1989 100.723 29.4359 100.627C29.6729 100.531 29.9265 100.483 30.1822 100.485ZM31.3602 102.471C31.3602 102.02 30.9927 101.603 30.6226 101.611C30.1561 101.624 29.8408 102.049 29.8772 102.674C29.9007 103.029 30.0441 103.373 30.4689 103.407C30.8937 103.441 31.368 102.909 31.3602 102.471ZM28.8999 102.182C28.7201 102.69 28.9677 103.065 29.27 103.425C29.1475 103.021 29.0224 102.607 28.8999 102.182Z" fill="#030202"/>
<path d="M93.7285 119.602C93.7285 118.703 94.4557 117.903 95.2428 117.911C96.3244 117.911 97.3278 118.818 97.3018 119.735C97.2731 120.598 96.1498 121.546 95.1829 121.526C94.3853 121.513 93.7181 120.629 93.7285 119.602ZM96.0273 119.456C96.0716 119.287 96.155 119.102 95.8787 119.107C95.4826 119.107 95.3575 119.368 95.3914 119.719C95.4096 119.865 95.235 120.16 95.5503 120.118C95.8657 120.077 96.1498 119.865 96.0273 119.456Z" fill="#030202"/>
<path d="M28.1102 89.1349C28.1102 89.5582 27.9428 89.9643 27.6444 90.2646C27.3461 90.5649 26.9411 90.735 26.5178 90.7377C25.8558 90.7377 25.0009 89.6692 24.9748 88.7935C24.9488 88.0116 25.6004 87.4747 26.5386 87.4903C26.7508 87.4919 26.9604 87.5361 27.1552 87.6202C27.3499 87.7044 27.5258 87.8267 27.6723 87.9801C27.8189 88.1335 27.9332 88.3147 28.0084 88.5131C28.0836 88.7114 28.1182 88.9229 28.1102 89.1349ZM27.013 89.161C26.9457 89.0185 26.8488 88.8921 26.7288 88.7901C26.6088 88.688 26.4685 88.6128 26.3171 88.5693C26.2759 88.5615 26.2336 88.5621 26.1926 88.5711C26.1517 88.5801 26.113 88.5973 26.0789 88.6216C26.0448 88.646 26.016 88.677 25.9942 88.7128C25.9725 88.7486 25.9582 88.7885 25.9522 88.8299C25.9157 89.0072 26.45 89.6483 26.6298 89.6275C26.867 89.5988 26.953 89.4112 27.013 89.1505V89.161Z" fill="#030202"/>
<path d="M77.3064 33.2508C77.3064 32.3543 77.8042 31.9477 78.9014 31.979C79.7771 31.979 80.5512 32.6618 80.559 33.415C80.5674 33.6487 80.5275 33.8815 80.442 34.0991C80.3564 34.3166 80.2269 34.5142 80.0616 34.6795C79.8963 34.8448 79.6987 34.9743 79.4812 35.0598C79.2636 35.1454 79.0308 35.1853 78.7971 35.1769C78.0179 35.1769 77.2959 34.2464 77.3064 33.2508ZM78.5 32.8208C78.1169 32.8208 77.9319 33.0137 77.9293 33.4202C77.9293 34.0353 78.2055 34.3429 78.8493 34.3741C79.0554 34.3968 79.2623 34.3394 79.4273 34.2138C79.5922 34.0881 79.7025 33.9038 79.7354 33.6991C79.7667 33.1153 79.407 32.8547 78.5 32.8208Z" fill="#030202"/>
<path d="M130.422 77.2112C130.422 76.4632 131.178 75.7464 131.968 75.749C132.716 75.749 133.169 76.1712 133.175 76.8593C133.175 77.9565 132.497 78.6472 131.4 78.642C130.86 78.642 130.425 78.0035 130.422 77.2112ZM131.921 76.7264C131.611 76.815 131.249 76.8802 131.222 77.2815C131.221 77.3414 131.233 77.4008 131.258 77.4556C131.282 77.5103 131.318 77.5591 131.363 77.5984C131.409 77.6376 131.462 77.6665 131.52 77.6829C131.577 77.6993 131.638 77.7029 131.697 77.6933C132.09 77.6673 132.218 77.3623 132.281 77.0235C132.325 76.7446 132.101 76.7681 131.921 76.7264Z" fill="#030202"/>
<path d="M48.5721 104.494C46.1222 104.494 43.6697 104.481 41.2172 104.509C40.894 104.509 40.8679 104.397 40.8028 104.168C40.6282 103.553 40.7037 102.917 40.636 102.294C40.5135 101.137 40.3232 99.9718 40.3415 98.8146C40.3701 96.9537 40.1069 95.1137 40.1043 93.2659C40.1043 92.325 40.0391 91.3867 40.0417 90.4459C40.0417 89.1193 40.2007 88.8664 41.5143 88.8821C42.8852 88.8977 44.0685 88.4025 45.2152 87.7483C47.7199 86.3175 48.189 83.2421 47.5609 81.2326C47.1699 79.979 46.4115 79.1476 45.395 78.4179C43.9694 77.404 42.304 76.9948 40.6803 76.4762C40.3441 76.3693 40.1095 76.2599 40.0913 75.8455C40.0417 74.6622 39.8723 73.4764 39.9114 72.2957C39.9636 70.6928 39.7264 69.103 39.7707 67.5106C39.8176 65.7279 39.6221 63.953 39.6638 62.1755C39.7011 61.6171 39.7927 61.0637 39.9375 60.5231C39.9768 60.3515 40.0697 60.1968 40.2028 60.0816C40.3359 59.9663 40.5022 59.8964 40.6777 59.882C42.4531 59.6921 44.2417 59.6572 46.0232 59.7777C47.0799 59.8168 48.138 59.7959 49.1924 59.7152C50.6988 59.6161 52.2001 59.7439 53.7013 59.7621C54.5064 59.7568 55.303 59.5957 56.0469 59.2878C56.7376 59.0271 57.0894 57.724 56.8288 56.9916C56.4144 55.8084 55.5465 54.891 55.0461 53.7676C54.5457 52.6443 53.9854 51.5028 53.855 50.2283C53.6674 48.3805 54.418 46.8219 55.3771 45.3441C56.4196 43.723 58.1085 42.975 59.8078 42.3521C61.9371 41.5703 64.1134 41.5103 66.2401 42.4199C67.022 42.7535 67.9003 43.0402 68.4971 43.6005C69.8289 44.8463 70.9262 46.2616 70.7802 48.2919C70.7229 49.0737 70.8271 49.8869 70.6629 50.6818C70.4023 51.9432 69.8237 53.09 69.2973 54.242C68.6118 55.7354 68.7578 57.0698 69.7481 58.3234C69.9706 58.6426 70.261 58.9084 70.5986 59.1018C70.9362 59.2951 71.3124 59.4111 71.7002 59.4415C73.1936 59.564 74.6844 59.4415 76.17 59.551C78.2394 59.7152 80.3166 59.551 82.3834 59.6631C84.1505 59.7595 85.9175 59.5849 87.6715 59.7386C88.7844 59.8351 89.8869 59.7725 90.9946 59.7647C92.5792 59.7517 93.4653 58.6518 93.176 57.0933C93.1099 56.7164 93.0149 56.3452 92.8919 55.983C92.4489 54.7189 92.0709 53.4288 91.5341 52.1987C90.9555 50.8773 91.1223 49.5142 91.495 48.198C92.3889 45.0366 94.5964 43.1497 97.6692 42.3052C99.606 41.7726 101.668 41.9396 103.494 42.777C105.186 43.4959 106.57 44.7878 107.404 46.4258C107.761 47.1192 108.034 47.8534 108.214 48.6124C108.441 49.6158 108.06 50.5254 107.805 51.4298C107.35 53.0772 107.052 54.7641 106.916 56.4678C106.87 56.9657 107.018 57.4623 107.328 57.8543C108.212 58.9646 109.39 59.4676 110.771 59.6318C112.004 59.7777 113.247 59.7856 114.477 59.9107C115.883 60.0868 117.3 60.1643 118.718 60.1426C118.918 60.1257 119.119 60.1257 119.32 60.1426C119.773 60.2078 120.047 60.3746 120.055 60.9401C120.073 62.0504 120.279 63.1581 120.26 64.2631C120.232 66.0328 120.505 67.7894 120.456 69.5513C120.409 71.2271 120.68 72.8899 120.62 74.5554C120.555 76.3433 120.831 78.1155 120.763 79.893C120.704 81.4411 120.922 82.9736 120.883 84.514C120.836 86.3879 121.05 88.2592 120.985 90.1253C120.93 91.6734 121.102 93.2111 121.027 94.7514C120.936 96.7009 121.097 98.6609 120.98 100.597C120.925 101.541 120.831 102.463 120.98 103.407C121.061 103.905 120.133 104.426 119.583 104.215C119.365 104.124 119.128 104.086 118.892 104.105C116.932 104.275 114.967 104.316 112.999 104.332C111.889 104.332 110.779 104.418 109.671 104.502C109.35 104.488 109.03 104.449 108.715 104.384C108.454 104.366 108.355 104.085 108.334 103.842C108.281 103.462 108.27 103.078 108.303 102.695C108.405 102.007 108.186 101.392 107.925 100.801C107.214 99.1057 105.904 97.7317 104.245 96.9407C101.837 95.7809 99.4128 95.5046 96.8769 96.5836C96.0438 96.9352 95.335 97.5279 94.8414 98.2855C93.6034 100.015 92.9438 102.091 92.9571 104.217C92.9571 104.52 92.8789 104.689 92.4801 104.687C91.2943 104.687 90.1084 104.814 88.9252 104.762C87.0877 104.681 85.2529 104.874 83.4233 104.796C81.7449 104.726 80.0742 104.882 78.4062 104.796C76.6001 104.707 74.7991 104.843 72.9956 104.783C72.271 104.76 71.5491 104.739 70.8245 104.744C70.5093 104.74 70.1964 104.799 69.9039 104.917C69.6115 105.034 69.3453 105.209 69.1206 105.43C68.896 105.651 68.7174 105.915 68.5952 106.206C68.473 106.496 68.4095 106.808 68.4085 107.123C68.3736 107.594 68.3832 108.067 68.4372 108.536C68.5007 109.06 68.6923 109.56 68.9949 109.993C70.5457 112.039 71.0096 114.366 70.3137 116.801C69.8454 118.552 68.7083 120.049 67.1471 120.971C65.8439 121.726 64.4209 122.274 62.8597 122.172C62.2427 122.121 61.6318 122.012 61.0353 121.846C59.5889 121.466 58.0981 121.119 57.0112 120.004C55.8775 118.841 55.0227 117.541 54.6943 115.86C54.3573 114.192 54.4853 112.463 55.0644 110.863C55.3977 110.02 55.7824 109.197 56.2163 108.401C56.9826 106.837 55.9844 105.549 54.7255 105.088C53.8029 104.749 52.8177 104.827 51.8586 104.663C50.7927 104.473 49.6798 104.59 48.5721 104.494ZM68.4242 58.657C68.4242 58.73 68.4606 58.7665 68.5362 58.7613C68.5675 58.9802 68.7578 59.0845 68.8959 59.2148C69.034 59.3451 69.1722 59.5875 69.3181 59.4207C69.5058 59.1991 69.1695 59.16 69.0575 59.074C68.8959 58.9541 68.7812 58.73 68.5362 58.7717C68.5701 58.644 68.5049 58.6466 68.4137 58.6753V58.6362L68.4242 58.657ZM94.1273 96.7087L93.6712 97.3733C93.6295 97.4307 93.5748 97.488 93.6269 97.5584C93.6423 97.5774 93.6617 97.5927 93.6839 97.603C93.706 97.6134 93.7302 97.6187 93.7546 97.6183C93.8797 97.5949 94.1612 96.8782 94.1273 96.6983L94.2133 96.7843L94.2628 96.714L94.1273 96.7087ZM75.0024 73.6536L75.0441 73.823C75.0441 73.823 75.078 73.8047 75.0806 73.7917C75.0962 73.7187 75.0806 73.6666 74.9946 73.6614C75.063 73.1803 74.9877 72.6898 74.7783 72.2514C74.9164 72.7101 74.4968 73.2522 75.0024 73.6536ZM74.5698 65.6523C74.3091 66.0302 74.4629 66.3821 74.6584 66.7339V65.6497C74.8354 65.1837 74.8213 64.6667 74.6193 64.211C74.5302 64.6862 74.5135 65.1721 74.5698 65.6523ZM84.8411 61.9253C85.3259 62.2302 85.7794 61.9983 86.2381 61.8419H83.207C83.7439 61.9553 84.2954 61.9834 84.8411 61.9253ZM61.5879 69.2776C61.6895 68.6964 61.5879 68.1178 61.5462 67.5366C61.4313 68.1129 61.3902 68.7014 61.4237 69.2881C61.4367 69.3532 61.4445 69.434 61.5384 69.4027C61.5644 69.3949 61.5722 69.3219 61.5879 69.2776ZM105.848 94.999L106.004 94.9443C106.004 94.9313 105.983 94.913 105.97 94.9078C105.869 94.8635 105.863 94.9365 105.853 95.0016C105.905 94.9495 105.947 94.887 105.884 94.8218C105.436 94.3553 104.842 94.1416 104.279 93.8549C104.169 93.8001 104.07 93.8549 104.034 94.0034C104.697 94.214 105.314 94.5522 105.848 94.999ZM78.0335 70.8675C78.0179 71.6129 78.1925 72.3661 77.9657 73.1089C77.9345 73.2105 77.7807 73.3486 77.924 73.4425C78.0674 73.5363 78.1977 73.5363 78.2629 73.4555C78.1195 72.5433 78.1873 71.6832 78.1586 70.8284C78.197 70.7375 78.2116 70.6385 78.2011 70.5404C78.1906 70.4424 78.1554 70.3487 78.0987 70.268L77.9214 65.9546C77.8167 67.385 77.8307 68.8217 77.9631 70.2498C77.9262 70.3511 77.9133 70.4597 77.9255 70.5669C77.9377 70.6741 77.9747 70.777 78.0335 70.8675ZM106.442 58.7717C106.442 58.816 106.468 58.8734 106.525 58.8343C106.583 58.7952 106.525 58.7535 106.525 58.7092C105.978 58.0237 105.743 57.1923 105.407 56.4C105.389 57.3539 105.637 58.1801 106.429 58.7717H106.442ZM64.7936 106.091C64.7823 105.725 64.6811 105.367 64.4991 105.049C64.4746 105.397 64.528 105.746 64.6555 106.071C64.6839 106.212 64.7022 106.356 64.7102 106.501C64.6803 107.717 64.9421 108.922 65.4738 110.016C65.4504 108.747 64.8118 107.475 64.7936 106.091ZM59.8755 87.2297C59.826 85.5017 60.4385 83.8415 60.4385 82.1188C60.1049 82.1188 60.0919 82.3247 60.071 82.554C59.9277 84.1022 59.7296 85.6451 59.6983 87.201V90.2087C59.6983 89.2131 59.9668 88.2331 59.8755 87.2323V87.2297ZM94.8623 96.74C95.0631 96.3735 95.3492 96.0606 95.6963 95.8278C96.7388 95.0772 97.7683 94.2641 99.1131 93.6985C97.5493 93.8236 95.3106 95.5542 94.7554 96.6071C94.7163 96.6853 94.771 96.7426 94.8597 96.7478C94.8597 96.6644 94.8414 96.6045 94.7502 96.6253C94.7111 96.6253 94.685 96.6957 94.6538 96.7322L94.8623 96.74ZM42.476 96.4481C42.4213 98.2725 42.5985 100.097 42.377 101.898C42.2936 102.573 42.3275 102.578 43.0155 102.542C43.0468 102.542 43.0755 102.513 43.0572 102.523C42.7627 100.496 42.6506 98.4758 42.5568 96.4533C42.7322 95.5387 42.7665 94.6026 42.6585 93.6776H42.476V96.4481ZM104.193 44.6978C104.237 44.6978 104.31 44.7291 104.323 44.6978C104.336 44.6665 104.31 44.6196 104.258 44.6066C102.639 42.9464 99.0453 42.2244 97.0672 43.2018C97.2627 43.1835 97.4086 43.1809 97.5493 43.1549C98.5919 42.962 99.6344 43.0871 100.677 43.1549C102.019 43.2643 103.096 44.0175 104.193 44.6978ZM65.2523 83.6304C65.2333 84.3348 65.1776 85.0377 65.0855 85.7363C64.9656 87.2219 64.9734 88.7205 64.9239 90.2113C64.9394 90.3925 64.9235 90.575 64.877 90.7508C64.7467 91.0974 64.8197 91.4675 64.7962 91.8272C64.7597 92.3484 65.4191 92.1139 65.4582 92.4735V83.6356C65.5334 83.2698 65.4703 82.889 65.281 82.5671C65.2057 82.9167 65.196 83.2773 65.2523 83.6304ZM117.824 64.7714V62.6368C117.824 62.4544 117.857 62.2094 117.563 62.2876C117.175 62.3997 116.815 62.2198 116.434 62.2485C114.316 62.4007 112.187 62.3282 110.083 62.0322C108.941 61.8784 107.818 61.6543 106.836 60.9897C105.671 60.2078 104.586 59.3998 104.631 57.7448C104.657 56.7805 104.631 55.8162 104.943 54.8962C105.306 53.7937 105.704 52.7043 106.16 51.6305C106.781 50.171 106.077 46.6473 104.172 45.61C103.804 45.4093 103.468 45.1539 103.098 44.961C101.808 44.3206 100.357 44.0749 98.9281 44.2547C97.6249 44.3798 96.5824 44.9897 95.6051 45.7638C94.7007 46.4935 93.9266 47.3275 93.5852 48.5342C93.1291 50.1371 93.6217 51.5732 94.1221 53.0327C94.5652 54.3228 95.347 55.4904 95.6389 56.8248C95.983 58.3886 95.4852 59.7882 94.3984 60.9766C93.2073 62.2798 91.7139 62.7828 89.9807 62.8323C88.0104 62.8844 86.0426 62.7515 84.0775 62.8193C82.5137 62.874 82.6571 62.5586 82.5267 64.3205C82.3704 66.3873 82.3182 68.454 82.3313 70.5234C82.3313 71.579 82.4694 72.6345 82.5267 73.6901C82.5658 74.3781 82.4642 74.5475 81.797 74.5084C80.2202 74.4146 78.9613 75.1313 77.7234 75.9497C77.6165 76.0175 77.5123 76.0957 77.4054 76.1634C76.6719 76.6198 76.0393 77.2211 75.5463 77.9305C75.0533 78.6399 74.7104 79.4426 74.5385 80.2892C74.1893 81.9676 74.7991 83.4167 75.5393 84.8736C76.1257 86.036 77.064 86.7736 78.2316 87.287C79.6077 87.8943 81.0568 87.9595 82.5189 87.9204C82.8577 87.9204 82.9438 88.0038 82.9828 88.3296C83.0558 88.9134 82.949 89.4893 82.9828 90.0653C83.0532 91.8272 83.1861 93.5838 83.0271 95.3535C82.9484 96.3948 82.9562 97.4409 83.0506 98.481C83.1262 99.474 82.9881 100.483 83.2773 101.463C83.3868 101.825 83.5197 102.002 83.9367 102.015C85.9384 102.072 87.9374 102.161 89.9312 102.25C90.1918 102.25 90.3195 102.198 90.3404 101.903C90.4811 99.9119 90.9294 98.0353 92.1882 96.4064C92.8659 95.5281 93.4914 94.6367 94.4166 93.9774C95.6363 93.1121 96.8404 92.2989 98.3703 92.0305C99.8611 91.7698 101.302 91.5092 102.843 91.822C105.97 92.4631 108.402 93.98 109.947 96.8078C110.523 97.8503 111.084 98.9189 111.141 100.159C111.154 100.42 111.23 100.696 111.266 100.967C111.316 101.345 111.509 101.507 111.894 101.431C112.04 101.422 112.186 101.422 112.332 101.431C114.6 101.311 116.875 101.447 119.137 101.171C119.52 101.124 119.612 101.033 119.588 100.649C119.512 99.3854 119.468 98.1161 119.429 96.8495C119.356 94.4361 119.322 92.02 119.281 89.6066C119.228 86.5156 119.187 83.4219 119.252 80.3283C119.283 78.9287 119.15 77.5343 119.239 76.1295C119.354 74.3051 119.158 72.4625 119.239 70.6225C119.309 69.1291 119.124 67.6252 119.223 66.1371C119.299 64.9877 119.236 63.8435 119.307 62.702C119.33 62.3058 119.145 62.2329 118.822 62.2693C118.499 62.3058 118.561 62.5847 118.577 62.7906C118.577 64.0599 118.736 65.3161 118.699 66.5932C118.647 68.4176 118.882 70.242 118.788 72.095C118.702 73.7604 118.926 75.4232 118.822 77.0991C118.712 78.874 118.869 80.6567 118.858 82.4394C118.858 84.6912 118.858 86.9508 118.895 89.2157C118.921 91.6187 118.937 94.0217 118.944 96.4247C118.944 96.6306 119.192 97.0085 118.738 97.0033C118.572 97.0181 118.407 96.968 118.277 96.8635C118.148 96.759 118.063 96.6082 118.043 96.4429C118.023 96.2795 118.016 96.1148 118.022 95.9503C118.045 94.9756 117.959 94.0034 118.022 93.0209C118.121 91.3007 117.878 89.578 117.97 87.8448C118.063 86.0725 117.813 84.2976 117.899 82.5123C117.985 80.727 117.748 78.9991 117.839 77.232C117.928 75.5483 117.764 73.8621 117.782 72.1706C117.811 69.6842 117.735 67.2265 117.824 64.7714ZM44.2274 91.1782C44.1744 91.4365 44.1361 91.6975 44.1128 91.9601C44.0893 92.9244 44.3734 93.8497 44.4829 94.8009C44.6601 96.5159 44.9468 98.2178 44.7435 99.9484C44.6366 100.84 44.7435 101.788 44.0007 102.555C44.4568 102.675 44.8555 102.534 45.2465 102.578C45.541 102.609 45.5749 102.484 45.5358 102.231C45.2888 100.933 45.1614 99.6149 45.1553 98.2934C45.1761 97.2978 45.1318 96.2917 45.0823 95.2909C45.0093 93.9278 44.9103 92.5543 44.2274 91.1782ZM46.5575 64.1302C46.278 64.9544 46.137 65.8193 46.1404 66.6896C46.1743 67.5262 46.2421 68.3602 46.2682 69.1968C46.3307 71.1411 46.0597 73.0698 46.0075 75.0088C46.0075 75.3972 46.1066 75.6135 46.4793 75.6187C46.852 75.6239 46.6721 75.2929 46.6747 75.1313C46.7295 72.4052 46.8103 69.6764 46.779 66.9502C46.766 66.0537 46.865 65.1206 46.5575 64.1302ZM43.9746 62.7671C43.6671 63.2884 43.5785 63.5751 43.6827 63.9321C44.204 65.6836 44.2248 67.4793 44.204 69.2854C44.2085 71.1391 44.0586 72.9899 43.7557 74.8186C43.7192 75.0167 43.6567 75.2434 44.0163 75.1756C44.2326 75.1339 44.5376 75.2747 44.4855 74.8082C44.3473 73.7943 44.4855 72.7727 44.4464 71.7536C44.3725 69.9713 44.4659 68.186 44.7252 66.4211C44.9259 65.1727 44.561 63.9556 43.9746 62.7776V62.7671ZM52.5754 93.2398C52.604 92.0487 52.836 90.8811 52.8647 89.6952C52.8985 88.1315 52.7839 86.5677 52.6979 85.0196C52.6979 84.9023 52.7552 84.7068 52.4998 84.7198C52.3356 84.7198 52.2391 84.7433 52.2209 84.9492C52.1453 85.8327 52.0645 86.7137 51.9212 87.5946C51.7153 88.8612 52.0802 90.0914 52.273 91.3294C52.3642 91.9757 52.2131 92.6429 52.5675 93.2502L52.5754 93.2398ZM42.1893 72.6658C42.2701 71.4799 42.2597 70.2889 42.3092 69.0952C42.3692 67.6617 42.1815 66.2283 42.3457 64.7844C42.423 64.3607 42.3569 63.9233 42.158 63.5412C41.1207 66.6349 41.6941 69.6529 42.1815 72.6762L42.1893 72.6658ZM63.4514 46.5639C63.1672 47.9349 63.0986 49.3418 63.2481 50.7339C63.4973 52.2976 63.5751 53.8838 63.48 55.4643C63.48 55.579 63.3575 55.8005 63.6103 55.7953C63.8136 55.7953 63.7094 55.6051 63.712 55.4956C63.7276 55.1177 63.7433 54.7398 63.7407 54.3619C63.7407 52.9076 63.5739 51.4533 63.6729 49.9938C63.7016 49.5794 63.8944 49.1884 63.8189 48.761C63.6807 48.0443 63.566 47.3093 63.4435 46.5743L63.4514 46.5639ZM61.5358 69.5435C61.395 70.182 61.0692 70.7788 60.9545 71.3679C60.7982 72.2019 61.0093 73.1089 61.1083 73.9742C61.1318 74.1931 61.4419 74.1931 61.6296 74.18C61.8172 74.167 61.7234 73.9663 61.7182 73.8386C61.6606 73.4812 61.6387 73.1188 61.653 72.757C61.7886 71.6884 61.5279 70.6459 61.5279 69.5539L61.5358 69.5435ZM112.504 102.218V102.317C112.542 102.337 112.582 102.351 112.624 102.357C114.839 102.375 117.055 102.31 119.265 102.471C119.591 102.495 119.734 102.364 119.729 102.039C119.729 101.632 119.434 101.778 119.265 101.822C117.962 102.07 116.659 102.023 115.355 102.119C114.409 102.182 113.453 102.182 112.504 102.218ZM68.5936 118.341C67.2044 119.85 65.3435 120.561 63.4592 121.39C65.44 121.367 67.9446 120.027 68.5936 118.341ZM72.4482 62.7984C71.7133 64.4352 72.3336 65.9494 72.6411 67.4897C72.6098 65.9546 73.1572 64.3752 72.4482 62.7984ZM70.6239 82.8876C70.59 85.3141 70.4336 87.7353 70.5196 90.1852C70.8193 90.0497 71.0565 89.9741 71.0148 89.5832C70.9001 88.499 70.8402 87.4121 70.7385 86.3253C70.6525 85.1838 71.0513 84.024 70.6447 82.8955L70.6239 82.8876ZM68.1922 95.5568C68.3251 97.0371 68.1713 98.5253 68.3355 100.006C68.6509 98.5175 68.9506 97.0293 68.213 95.5568H68.1922ZM48.5669 63.9712C48.6164 65.535 48.1968 67.1144 48.6477 68.6625C48.6659 68.7329 48.6268 68.8241 48.5513 68.8267C48.5328 68.8265 48.5147 68.8218 48.4985 68.8129C48.4824 68.804 48.4686 68.7912 48.4586 68.7758C48.4485 68.7603 48.4424 68.7426 48.4409 68.7242C48.4393 68.7058 48.4423 68.6873 48.4496 68.6704C48.5406 68.5171 48.5991 68.3468 48.6216 68.17C48.7181 67.1744 48.8197 66.1788 48.9187 65.1832C48.9383 64.7514 48.8146 64.3254 48.5669 63.9712ZM65.4504 47.291C65.2653 47.9921 65.0125 48.6593 65.2184 49.4126C65.3789 50.1233 65.5024 50.8418 65.5885 51.5653C65.7449 50.1293 65.5937 48.7141 65.4504 47.2989V47.291ZM54.7855 76.1478C55.411 75.9497 55.4866 75.6109 55.4397 75.1053C55.3548 74.4014 55.3776 73.6886 55.5074 72.9916C54.4076 73.8907 55.0331 75.0766 54.7855 76.1478ZM55.6925 67.5471C55.643 66.3716 55.7394 65.1858 55.4918 64.0208C55.4553 63.8435 55.4735 63.5464 55.1947 63.5881C54.9158 63.6298 55.1008 63.9113 55.0565 64.0781C55.0496 64.1514 55.0594 64.2254 55.0852 64.2944C55.3548 65.3676 55.5576 66.4566 55.6925 67.5549V67.5471ZM70.027 63.1555C69.9866 64.5109 70.0677 65.8673 70.2694 67.2082C70.2433 65.8608 70.7594 64.4821 70.0192 63.1633L70.027 63.1555ZM60.3994 101.301C60.4077 100.015 60.2969 98.7304 60.0684 97.4646C60.0137 98.395 60.0684 99.3228 59.9928 100.243C59.959 100.689 59.9511 101.04 60.3994 101.301ZM48.0404 80.052C48.7676 81.6366 49.0829 83.1795 48.593 84.8788C49.3331 84.1647 48.9552 80.7505 48.0404 80.052ZM65.2132 70.9561C65.2367 70.9978 65.294 71.0551 65.2836 71.0812C65.0021 71.7901 65.1011 72.5407 65.0047 73.2705C64.9474 73.7135 65.0177 74.0523 65.393 74.313C65.5234 74.4042 65.5442 74.4954 65.4321 74.5475C65.4347 73.3591 65.2706 72.1654 65.2132 70.9561ZM50.7171 100.477C50.6702 101.215 50.6858 101.937 50.1072 102.508C50.2904 102.497 50.474 102.497 50.6571 102.508C51.0872 102.568 51.1992 102.445 51.0559 102.005C50.9173 101.502 50.8042 100.992 50.7171 100.477ZM62.1117 112.44C62.0466 113.498 61.8511 114.434 62.044 115.385C62.1039 114.444 62.6747 113.532 62.1117 112.44ZM69.8107 49.8165C69.4119 50.6974 68.9897 51.5653 69.1044 52.5688C69.3207 51.6435 69.9254 50.8226 69.8107 49.8165ZM93.8198 96.0155C94.5391 95.1815 95.4721 94.6185 96.3035 93.9305C95.2636 94.3761 94.315 94.9234 93.8198 96.0155ZM68.1218 64.3309H68.2912C68.4997 63.3431 68.1453 62.4153 67.9081 61.464L68.1218 64.3309ZM74.1163 77.2033C73.7606 77.518 73.4808 77.9092 73.298 78.3475C73.1152 78.7858 73.0341 79.2599 73.0607 79.734C73.2768 78.8417 73.6294 77.9881 74.1058 77.2033H74.1163ZM70.6786 75.3112L70.5691 75.3294C70.6186 75.9732 70.6708 76.6195 70.7125 77.2659C70.7281 77.5265 70.8714 77.5708 71.1112 77.5839C70.9496 76.7968 70.8089 76.054 70.6682 75.3112H70.6786ZM108.339 98.3246C108.17 97.5037 107.255 96.5315 106.575 96.4638C107.052 97.1284 107.831 97.4906 108.329 98.3246H108.339ZM52.8334 78.874C52.6197 79.1007 52.4763 79.2336 52.3564 79.3952C52.2983 79.4766 52.267 79.5741 52.267 79.6741C52.267 79.7741 52.2983 79.8716 52.3564 79.953C52.4127 80.0083 52.4811 80.0496 52.5563 80.0736C52.6314 80.0976 52.7112 80.1036 52.7891 80.0911C53.0288 80.0442 52.9402 79.7888 52.9481 79.635C52.9359 79.3781 52.8975 79.1231 52.8334 78.874ZM93.4627 45.8576C93.7728 45.6543 94.0752 45.4354 94.3957 45.2529C94.7399 45.0529 95.0555 44.8075 95.334 44.5232C94.9432 44.5944 94.5729 44.7509 94.2494 44.9815C93.926 45.2122 93.6574 45.5113 93.4627 45.8576ZM107.206 47.9426C107.206 48.3414 107.177 48.7427 107.206 49.1389C107.234 49.535 106.906 49.9364 107.206 50.3795C107.482 49.6237 107.482 49.6237 107.206 47.9296V47.9426ZM72.5786 95.5099C72.4965 96.6649 72.5843 97.8258 72.8392 98.9554C72.7523 97.8051 72.6654 96.6566 72.5786 95.5099ZM45.1005 61.8888C45.1707 62.0474 45.249 62.2022 45.3351 62.3527C45.4211 62.4831 45.395 62.6785 45.5723 62.7541C45.971 61.8628 45.971 61.8628 45.1005 61.8862V61.8888ZM61.2882 48.8574V51.7243H61.4289C61.3585 50.7626 61.5592 49.8087 61.2882 48.8418V48.8574ZM57.2067 65.4672C57.2655 64.8171 57.2524 64.1624 57.1676 63.5151C57.1009 64.1598 57.114 64.8102 57.2067 65.4516V65.4672ZM94.7372 58.6362C94.9796 58.1149 95.016 57.6276 94.8727 56.7571C94.8116 56.9659 94.768 57.1795 94.7424 57.3956C94.732 57.7839 94.7476 58.1905 94.7476 58.6205L94.7372 58.6362ZM54.6734 102.461C55.6195 102.479 55.6794 102.602 55.2859 101.507C55.1723 101.875 54.9605 102.204 54.6734 102.461ZM62.878 119.587C63.6925 119.522 64.497 119.365 65.2758 119.118C64.4444 119.123 63.6729 119.407 62.878 119.587ZM89.5064 103.024C88.8287 102.847 88.1615 103.094 87.4891 103.058C88.1615 103.097 88.8366 103.204 89.5064 103.024ZM91.4897 60.7004C91.9615 60.557 92.4906 60.5518 92.8398 60.1296C92.3915 60.3329 91.8286 60.2495 91.4897 60.7004ZM64.2359 96.1692C63.811 96.6644 64.0847 97.1258 64.2359 97.5219V96.1692ZM46.3854 78.1624C45.9997 77.6412 45.1501 77.2059 44.7982 77.2216L46.3854 78.1624ZM60.3577 116.996C60.6498 117.139 60.9709 117.212 61.296 117.21L60.7747 116.516L60.3577 116.996ZM63.3419 109.74C63.4696 108.99 63.0813 108.437 63.1152 107.819C62.9927 108.453 63.1751 109.039 63.3419 109.74ZM42.6194 93.1564C42.6532 92.7342 42.8539 92.3093 42.6194 91.8011C42.5386 92.251 42.5386 92.7117 42.6194 93.1616V93.1564ZM70.6734 97.0137C70.6239 97.6157 70.3137 98.223 70.6994 98.8798C70.8115 98.223 70.702 97.6209 70.6734 97.0189V97.0137ZM58.0147 53.5618C57.9 53.9475 57.5534 54.2107 58.0147 54.5052C58.0888 54.359 58.1275 54.1974 58.1275 54.0335C58.1275 53.8696 58.0888 53.7079 58.0147 53.5618ZM66.631 106.631C66.6751 106.508 66.6939 106.377 66.6863 106.247C66.6786 106.117 66.6448 105.989 66.5867 105.872C66.5867 105.852 66.4642 105.849 66.4564 105.872C66.3443 106.133 66.4851 106.347 66.5502 106.579C66.5528 106.584 66.5763 106.592 66.631 106.631ZM73.2119 74.498H73.1207C73.1207 74.8186 73.1207 75.1392 73.1207 75.4571C73.1207 75.5405 73.1207 75.6604 73.2327 75.6656C73.3448 75.6708 73.3891 75.5353 73.3735 75.4337C73.3292 75.1235 73.2666 74.816 73.2119 74.498ZM49.0282 88.168C48.8191 88.2705 48.6396 88.4248 48.5069 88.6162L48.9917 88.8221L49.0282 88.168ZM78.1169 61.967C77.9734 62.1263 77.795 62.2503 77.5957 62.3293C78.1221 62.6472 78.1091 62.2824 78.1169 61.967ZM47.9648 86.0908C48.1053 85.98 48.2185 85.8386 48.2957 85.6773C48.373 85.516 48.4123 85.3391 48.4105 85.1603L47.9648 86.0908ZM42.231 72.6554C42.0955 72.8899 42.1424 73.0359 42.3692 73.2027C42.3457 72.9916 42.4317 72.8326 42.2154 72.6554H42.231ZM46.8155 78.3892C46.7295 78.2902 46.6982 78.2485 46.6617 78.212C46.6252 78.1755 46.5184 78.0999 46.5079 78.212C46.4975 78.324 46.5939 78.3683 46.805 78.3814L46.8155 78.3892ZM69.9019 49.4829C69.9006 49.4699 69.9006 49.4568 69.9019 49.4438H69.9306C69.9331 49.4567 69.9331 49.47 69.9306 49.4829C69.9306 49.4829 69.9019 49.4725 69.8915 49.4751L69.9019 49.4829ZM47.845 86.3488L47.9179 86.2862C47.8945 86.2706 47.871 86.2393 47.8528 86.2445C47.8204 86.2554 47.7903 86.2722 47.7642 86.294L47.845 86.3488Z" fill="#030202"/>
<path d="M85.5292 129.331C85.8836 129.444 86.4101 129.331 86.5065 129.887C86.5743 130.278 85.9853 130.968 85.6048 130.999C85.3207 131.023 84.8229 130.421 84.8516 130.043C84.8802 129.665 84.9402 129.238 85.5292 129.331Z" fill="#F8F2EA"/>
<path d="M84.482 128.894C84.0854 129.22 84.2211 129.676 84.1741 130.107C83.861 129.585 84.0176 128.967 84.4741 128.907L84.482 128.894Z" fill="#F8F2EA"/>
<path d="M84.4736 128.906V128.888H84.4915L84.4736 128.906Z" fill="#F8F2EA"/>
<path d="M130.962 84.4019C131.379 84.4019 131.965 84.9231 131.95 85.2828C131.937 85.5695 131.082 86.367 130.795 86.3618C130.508 86.3566 130.201 85.8666 130.209 85.361C130.214 84.785 130.516 84.4019 130.962 84.4019Z" fill="#F8F2EA"/>
<path d="M130.618 83.646C129.63 84.1673 129.544 85.0273 129.656 85.9734C129.41 85.8103 129.225 85.5699 129.131 85.29C129.036 85.0101 129.038 84.7068 129.135 84.4279C129.338 83.8806 129.906 83.5704 130.618 83.646Z" fill="#F8F2EA"/>
<path d="M84.7838 45.0885C84.7522 45.3788 84.6175 45.6482 84.4042 45.8476C84.1909 46.047 83.9131 46.1633 83.6214 46.1753C83.3843 46.1522 83.1652 46.0385 83.0099 45.8579C82.8545 45.6773 82.7748 45.4437 82.7874 45.2058C82.7874 44.6194 83.2226 44.0747 83.6891 44.0851C84.2495 44.0955 84.7916 44.5829 84.7838 45.0885Z" fill="#F8F2EA"/>
<path d="M82.6857 43.7777C82.1254 44.6039 81.8335 45.4561 82.5606 46.4986C81.9221 46.2172 81.7136 45.8106 81.6928 45.331C81.6601 44.9941 81.7309 44.6552 81.8958 44.3595C82.0606 44.0639 82.3116 43.8254 82.6154 43.676L82.6857 43.7777Z" fill="#F8F2EA"/>
<path d="M82.6128 43.6761C82.6567 43.6761 82.729 43.6606 82.7444 43.6761C82.7599 43.6916 82.7444 43.7561 82.6825 43.769L82.6128 43.6761Z" fill="#F8F2EA"/>
<path d="M31.3602 102.471C31.3602 102.909 30.8885 103.441 30.4689 103.407C30.0493 103.373 29.9007 103.029 29.8773 102.674C29.8356 102.049 30.1561 101.632 30.6227 101.611C30.9928 101.603 31.3524 102.02 31.3602 102.471Z" fill="#F8F2EA"/>
<path d="M28.9 102.182C29.0226 102.597 29.1609 103.012 29.2705 103.426C28.9678 103.077 28.72 102.704 28.9 102.182Z" fill="#F8F2EA"/>
<path d="M96.028 119.457C96.1506 119.866 95.8871 120.075 95.5505 120.119C95.214 120.164 95.4097 119.858 95.3914 119.72C95.3444 119.36 95.4827 119.117 95.8793 119.107C96.1663 119.102 96.0724 119.287 96.028 119.457Z" fill="#F8F2EA"/>
<path d="M27.0141 89.1511C26.9541 89.399 26.868 89.5894 26.6384 89.6155C26.4583 89.6364 25.9235 88.9946 25.96 88.8171C25.966 88.7756 25.9803 88.7357 26.0021 88.6999C26.0239 88.6641 26.0527 88.633 26.0869 88.6086C26.121 88.5842 26.1597 88.567 26.2007 88.558C26.2417 88.549 26.2841 88.5484 26.3253 88.5562C26.4756 88.601 26.6148 88.6772 26.7335 88.7797C26.8523 88.8823 26.9479 89.0089 27.0141 89.1511Z" fill="#F8F2EA"/>
<path d="M78.5 32.8208C79.407 32.8625 79.7667 33.1179 79.7354 33.6991C79.7025 33.9038 79.5922 34.0881 79.4273 34.2138C79.2623 34.3394 79.0554 34.3968 78.8493 34.3741C78.2055 34.3429 77.9214 34.0353 77.9292 33.4202C77.9214 33.0137 78.1169 32.8286 78.5 32.8208Z" fill="#F8F2EA"/>
<path d="M131.922 76.7263C132.102 76.7681 132.326 76.7446 132.282 77.0238C132.224 77.3629 132.091 77.6682 131.697 77.6943C131.638 77.7038 131.578 77.7003 131.52 77.6839C131.462 77.6674 131.409 77.6385 131.364 77.5992C131.318 77.5599 131.282 77.5111 131.258 77.4563C131.233 77.4015 131.221 77.342 131.223 77.2821C131.249 76.8803 131.611 76.815 131.922 76.7263Z" fill="#F8F2EA"/>
<path d="M117.824 64.7712C117.735 67.2263 117.811 69.6841 117.787 72.1392C117.769 73.8306 117.933 75.5273 117.844 77.2006C117.753 78.9676 117.988 80.7269 117.904 82.4809C117.821 84.2349 118.069 86.0411 117.975 87.8134C117.884 89.5465 118.126 91.2693 118.027 92.9894C117.972 93.972 118.058 94.9441 118.027 95.9189C118.021 96.0834 118.028 96.2481 118.048 96.4115C118.069 96.5768 118.153 96.7275 118.283 96.832C118.412 96.9365 118.578 96.9866 118.744 96.9718C119.197 96.9718 118.95 96.5991 118.95 96.3932C118.95 93.9902 118.933 91.5872 118.9 89.1843C118.874 86.9272 118.853 84.6676 118.864 82.4079C118.864 80.6252 118.718 78.8425 118.827 77.0676C118.931 75.3918 118.707 73.729 118.793 72.0636C118.887 70.2236 118.652 68.3939 118.705 66.5617C118.741 65.2847 118.592 64.0284 118.582 62.7592C118.582 62.5663 118.478 62.29 118.827 62.2379C119.176 62.1858 119.335 62.2744 119.312 62.6705C119.241 63.8121 119.312 64.9563 119.228 66.1056C119.129 67.5938 119.314 69.0976 119.244 70.591C119.158 72.4311 119.353 74.2685 119.244 76.0981C119.155 77.5029 119.288 78.8973 119.257 80.2968C119.192 83.3905 119.234 86.4841 119.286 89.5752C119.327 91.9886 119.361 94.4046 119.434 96.8181C119.473 98.0847 119.518 99.354 119.593 100.618C119.617 100.999 119.526 101.09 119.142 101.139C116.88 101.4 114.605 101.275 112.337 101.4C112.192 101.391 112.045 101.391 111.9 101.4C111.514 101.475 111.321 101.314 111.271 100.936C111.235 100.675 111.159 100.399 111.146 100.128C111.089 98.8874 110.529 97.8293 109.953 96.7764C108.407 93.9485 105.965 92.4317 102.848 91.7905C101.308 91.4726 99.8663 91.7358 98.3755 91.999C96.8457 92.2597 95.6416 93.0806 94.4218 93.9459C93.4914 94.6053 92.8711 95.4967 92.1934 96.375C90.9346 98.0039 90.4863 99.8804 90.3456 101.872C90.3247 102.166 90.2048 102.229 89.9364 102.218C87.9374 102.13 85.9384 102.041 83.942 101.984C83.525 101.971 83.392 101.793 83.2826 101.431C82.9933 100.451 83.1314 99.4426 83.0558 98.4496C82.9614 97.4095 82.9536 96.3634 83.0324 95.322C83.1913 93.5524 83.0584 91.7958 82.9881 90.0339C82.9646 89.4579 83.0715 88.8819 82.9881 88.2981C82.949 87.9723 82.863 87.8811 82.5241 87.8889C81.062 87.928 79.6129 87.8629 78.2368 87.2556C77.0692 86.7344 76.1309 86.0046 75.5445 84.8422C74.8122 83.3957 74.1945 81.9362 74.5437 80.2577C74.7156 79.4111 75.0585 78.6085 75.5515 77.8991C76.0445 77.1897 76.6771 76.5884 77.4106 76.132C77.5175 76.0642 77.6217 75.986 77.7286 75.9183C78.9666 75.0999 80.2254 74.3832 81.8022 74.477C82.4694 74.5161 82.5711 74.3467 82.532 73.6586C82.4746 72.6031 82.3417 71.5475 82.3365 70.492C82.3235 68.4226 82.3756 66.3558 82.532 64.2891C82.6623 62.5324 82.5111 62.8426 84.0827 62.7878C86.0478 62.7201 88.0156 62.853 89.9859 62.8009C91.7191 62.7513 93.2125 62.2457 94.4036 60.9452C95.4904 59.7567 95.9882 58.365 95.6442 56.7934C95.3523 55.459 94.5704 54.2914 94.1273 53.0012C93.6269 51.5417 93.1343 50.1057 93.5904 48.5028C93.9318 47.3013 94.7059 46.4621 95.6103 45.7323C96.5746 44.9504 97.6223 44.3484 98.9333 44.2233C100.363 44.0435 101.813 44.2892 103.103 44.9296C103.473 45.1225 103.81 45.3779 104.177 45.5786C106.082 46.6211 106.783 50.1395 106.166 51.5991C105.71 52.6729 105.311 53.7623 104.949 54.8647C104.644 55.7848 104.662 56.7491 104.636 57.7134C104.592 59.3684 105.678 60.1711 106.841 60.9582C107.823 61.6202 108.947 61.8444 110.088 62.0007C112.192 62.2968 114.321 62.3693 116.44 62.2171C116.82 62.1884 117.18 62.3682 117.568 62.2562C117.852 62.178 117.829 62.423 117.829 62.6054L117.824 64.7712ZM95.3523 51.573C95.5329 51.3279 95.6131 51.023 95.5764 50.7208C95.5361 50.1516 95.7068 49.5875 96.0559 49.1361C96.5953 48.403 97.3669 47.8739 98.2452 47.6349C99.7334 47.2466 101.206 46.7514 102.676 47.7235C102.96 47.9138 103.155 47.7809 103.262 47.4864C103.317 47.3589 103.336 47.2194 103.319 47.082C103.301 46.9446 103.248 46.8144 103.163 46.7045C102.444 45.662 101.394 45.2762 100.203 45.2554C99.2885 45.2743 98.3837 45.4415 97.5233 45.7506C95.9256 46.2718 94.917 47.3143 94.7033 49.0058C94.5782 49.918 94.6486 50.8224 95.3523 51.573ZM83.3347 76.4421C80.9395 75.1911 78.3202 77.2579 77.1578 79.2126C76.5349 80.2551 76.5584 82.5408 77.1343 83.01C77.2516 82.9005 77.163 82.7728 77.1604 82.6555C77.1291 81.1178 77.4914 79.7208 78.6773 78.6575C79.3757 78.0225 80.2088 77.5538 81.1141 77.2866C81.8309 77.0755 82.4251 76.5672 83.3347 76.4421ZM78.2133 84.1463L78.1352 84.2766C78.4882 84.5824 78.8571 84.8695 79.2402 85.1367C80.4417 85.8951 81.7292 86.3851 83.1835 86.273C83.3217 86.273 83.4963 86.3173 83.5276 86.1062C83.564 85.8456 83.3634 85.8717 83.2096 85.8456C83.1184 85.83 83.0272 85.8222 82.949 85.8117C82.0664 85.699 81.204 85.463 80.387 85.1106C79.652 84.8005 78.9353 84.4591 78.2133 84.1463Z" fill="#F8F2EA"/>
<path d="M44.2274 91.1782C44.9103 92.5543 45.0093 93.9278 45.0771 95.2961C45.1266 96.297 45.1709 97.303 45.1501 98.2986C45.1562 99.6202 45.2836 100.938 45.5306 102.237C45.5697 102.497 45.5306 102.615 45.2413 102.583C44.8503 102.539 44.4594 102.68 43.9955 102.56C44.7357 101.796 44.6314 100.848 44.7383 99.9536C44.9468 98.223 44.6601 96.5211 44.4776 94.8062C44.3786 93.8549 44.0841 92.9296 44.1076 91.9653C44.1324 91.7009 44.1724 91.4381 44.2274 91.1782Z" fill="#F8F2EA"/>
<path d="M46.5575 64.1301C46.865 65.1101 46.766 66.0431 46.7738 66.9501C46.8051 69.6763 46.7243 72.4051 46.6695 75.1312C46.6695 75.2928 46.8624 75.6212 46.4741 75.6186C46.0857 75.616 45.9919 75.3971 46.0023 75.0087C46.0597 73.0697 46.3307 71.141 46.2629 69.1967C46.2369 68.3601 46.1691 67.5261 46.1352 66.6895C46.1335 65.8189 46.2762 64.954 46.5575 64.1301Z" fill="#F8F2EA"/>
<path d="M43.9746 62.7773C44.5689 63.9554 44.9259 65.1621 44.7252 66.4261C44.4659 68.191 44.3725 69.9763 44.4464 71.7586C44.4829 72.7776 44.3473 73.7993 44.4855 74.8132C44.5506 75.2797 44.2248 75.1389 44.0163 75.1806C43.6645 75.2484 43.727 75.0217 43.7557 74.8236C44.0586 72.9949 44.2085 71.1441 44.204 69.2904C44.204 67.4843 44.204 65.6886 43.6827 63.9371C43.5785 63.5853 43.6671 63.3038 43.9746 62.7773Z" fill="#F8F2EA"/>
<path d="M52.5676 93.25C52.2131 92.6428 52.3643 91.9756 52.2652 91.3396C52.0724 90.1017 51.7075 88.8715 51.9134 87.6048C52.0567 86.7239 52.1375 85.843 52.2131 84.9595C52.2313 84.7536 52.3278 84.7379 52.492 84.7301C52.7526 84.7171 52.6848 84.9126 52.69 85.0298C52.7761 86.5936 52.8907 88.1417 52.8568 89.7055C52.8308 90.8914 52.5962 92.059 52.5676 93.25Z" fill="#F8F2EA"/>
<path d="M42.1815 72.6762C41.7046 69.6529 41.1207 66.6348 42.1502 63.5542C42.3491 63.9363 42.4151 64.3737 42.3379 64.7974C42.1737 66.2309 42.3613 67.6643 42.3014 69.1082C42.2519 70.2993 42.2623 71.4903 42.1815 72.6762Z" fill="#F8F2EA"/>
<path d="M65.4582 83.6354V92.4733C65.4191 92.1136 64.7597 92.3534 64.7962 91.8269C64.8197 91.4673 64.7467 91.0972 64.877 90.7506C64.9235 90.5747 64.9393 90.3922 64.9239 90.2111C64.9734 88.7203 64.9656 87.2216 65.0855 85.7361C65.1776 85.0375 65.2333 84.3346 65.2523 83.6302C65.3227 83.5624 65.3904 83.5911 65.4582 83.6354Z" fill="#F8F2EA"/>
<path d="M63.4436 46.5742C63.5661 47.3092 63.6807 48.0442 63.8111 48.7765C63.8866 49.204 63.6938 49.5949 63.6651 50.0093C63.5661 51.4688 63.7224 52.9231 63.7329 54.3774C63.7329 54.7553 63.7198 55.1332 63.7042 55.5112C63.7042 55.6206 63.8058 55.8083 63.6025 55.8109C63.3419 55.8109 63.4618 55.5946 63.4722 55.4799C63.5673 53.8993 63.4895 52.3131 63.2403 50.7495C63.0903 49.3556 63.1588 47.9469 63.4436 46.5742Z" fill="#F8F2EA"/>
<path d="M61.528 69.5537C61.528 70.6379 61.7886 71.6961 61.6348 72.7777C61.6205 73.1395 61.6423 73.5018 61.7 73.8593C61.7 73.987 61.8199 74.1877 61.6114 74.2007C61.4028 74.2137 61.124 74.2137 61.0901 73.9948C60.9911 73.1243 60.7799 72.2173 60.9363 71.3885C61.0614 70.7891 61.3872 70.1922 61.528 69.5537Z" fill="#F8F2EA"/>
<path d="M112.504 102.218C113.453 102.187 114.404 102.187 115.353 102.119C116.656 102.023 117.959 102.07 119.262 101.822C119.432 101.788 119.721 101.632 119.726 102.039C119.726 102.364 119.588 102.495 119.262 102.471C117.052 102.31 114.832 102.375 112.621 102.357C112.58 102.351 112.539 102.337 112.502 102.317L112.504 102.218Z" fill="#F8F2EA"/>
<path d="M68.5936 118.341C67.9446 120.017 65.44 121.356 63.4592 121.39C65.3435 120.572 67.2044 119.86 68.5936 118.341Z" fill="#F8F2EA"/>
<path d="M72.4483 62.7983C73.1467 64.3751 72.5994 65.9415 72.6411 67.4896C72.344 65.9545 71.7237 64.4351 72.4483 62.7983Z" fill="#F8F2EA"/>
<path d="M70.6447 82.8953C71.0513 84.0316 70.6447 85.1914 70.7594 86.3382C70.861 87.425 70.921 88.5118 71.0356 89.596C71.0773 89.987 70.8402 90.0625 70.5405 90.1981C70.4544 87.7351 70.6239 85.3139 70.6447 82.8953Z" fill="#F8F2EA"/>
<path d="M104.19 44.6976C103.096 44.0174 102.019 43.2641 100.682 43.1729C99.6396 43.1 98.5971 42.9749 97.5545 43.1729C97.4138 43.199 97.2679 43.2016 97.0724 43.2198C99.0532 42.2425 102.645 42.9592 104.263 44.6246C104.237 44.647 104.213 44.6714 104.19 44.6976Z" fill="#F8F2EA"/>
<path d="M42.5568 96.4481C42.6506 98.4706 42.7627 100.49 43.0572 102.518C43.0755 102.518 43.0572 102.536 43.0155 102.536C42.3275 102.573 42.2936 102.568 42.377 101.893C42.5985 100.068 42.4213 98.2594 42.476 96.4429L42.5568 96.4481Z" fill="#F8F2EA"/>
<path d="M68.213 95.5566C68.9506 97.0292 68.6509 98.5174 68.3564 100.006C68.1922 98.533 68.346 97.037 68.213 95.5566Z" fill="#F8F2EA"/>
<path d="M94.8623 96.753C94.7763 96.753 94.7215 96.6853 94.7606 96.6071C95.3158 95.5646 97.5598 93.8236 99.1183 93.6985C97.7735 94.2719 96.7544 95.0772 95.7015 95.8278C95.3544 96.0606 95.0683 96.3735 94.8675 96.74L94.8623 96.753Z" fill="#F8F2EA"/>
<path d="M48.5669 63.9712C48.8151 64.326 48.9389 64.7531 48.9188 65.1857C48.8197 66.1813 48.7181 67.1769 48.6216 68.1725C48.5991 68.3493 48.5406 68.5196 48.4496 68.6729C48.4423 68.6899 48.4393 68.7084 48.4409 68.7267C48.4425 68.7451 48.4485 68.7628 48.4586 68.7783C48.4687 68.7938 48.4824 68.8065 48.4985 68.8154C48.5147 68.8243 48.5328 68.8291 48.5513 68.8293C48.6269 68.8293 48.6659 68.7355 48.6477 68.6651C48.2098 67.1144 48.6164 65.5428 48.5669 63.9712Z" fill="#F8F2EA"/>
<path d="M59.6983 87.2036C59.7296 85.6398 59.9277 84.1047 60.071 82.5566C60.0919 82.3272 60.1049 82.1266 60.4385 82.1213C60.4385 83.8467 59.826 85.5095 59.8756 87.2323L59.6983 87.2036Z" fill="#F8F2EA"/>
<path d="M65.4504 47.2988C65.5937 48.714 65.7449 50.1293 65.5885 51.5731C65.5024 50.8496 65.3789 50.1311 65.2184 49.4203C65.0125 48.6671 65.2653 47.9999 65.4504 47.2988Z" fill="#F8F2EA"/>
<path d="M54.7855 76.1477C55.0461 75.087 54.4076 73.8907 55.4996 72.9941C55.3738 73.6873 55.3536 74.3956 55.4397 75.0948C55.4866 75.6109 55.411 75.9497 54.7855 76.1477Z" fill="#F8F2EA"/>
<path d="M55.6925 67.5549C55.5573 66.4592 55.3545 65.3729 55.0852 64.3022C55.0594 64.2332 55.0496 64.1593 55.0565 64.0859C55.1008 63.9191 54.9132 63.6376 55.1947 63.5959C55.4761 63.5542 55.4553 63.8566 55.4918 64.0286C55.7394 65.1936 55.6429 66.3795 55.6925 67.5549Z" fill="#F8F2EA"/>
<path d="M70.0192 63.1631C70.7594 64.4819 70.2433 65.8606 70.2616 67.2159C70.0599 65.8749 69.9787 64.5185 70.0192 63.1631Z" fill="#F8F2EA"/>
<path d="M60.3994 101.301C59.9511 101.04 59.959 100.688 59.9928 100.243C60.0606 99.3226 60.0137 98.3948 60.0684 97.4644C60.2969 98.7302 60.4077 100.015 60.3994 101.301Z" fill="#F8F2EA"/>
<path d="M48.0404 80.052C48.9552 80.7505 49.3436 84.1647 48.593 84.8788C49.0856 83.1874 48.7676 81.6366 48.0404 80.052Z" fill="#F8F2EA"/>
<path d="M65.2132 70.9561C65.2706 72.1654 65.4348 73.359 65.4322 74.5527C65.5442 74.5006 65.5234 74.4094 65.3931 74.3182C65.0178 74.0575 64.9474 73.7135 65.0047 73.2756C65.1012 72.5459 65.0047 71.7953 65.2836 71.0864C65.294 71.0551 65.2367 70.9978 65.2132 70.9561Z" fill="#F8F2EA"/>
<path d="M64.7936 106.091C64.8118 107.473 65.4504 108.744 65.4738 110.001C64.9421 108.906 64.6803 107.701 64.7102 106.485C64.7022 106.34 64.6839 106.197 64.6555 106.055L64.7936 106.091Z" fill="#F8F2EA"/>
<path d="M50.7171 100.477C50.8041 100.993 50.9172 101.503 51.0559 102.007C51.1992 102.448 51.0872 102.57 50.6571 102.51C50.474 102.5 50.2904 102.5 50.1072 102.51C50.6858 101.937 50.6702 101.215 50.7171 100.477Z" fill="#F8F2EA"/>
<path d="M62.1117 112.44C62.6747 113.532 62.1118 114.444 62.044 115.385C61.8485 114.431 62.0466 113.498 62.1117 112.44Z" fill="#F8F2EA"/>
<path d="M69.8107 49.8164C69.9254 50.8224 69.3207 51.6408 69.1044 52.5686C68.9897 51.5652 69.412 50.6973 69.8107 49.8164Z" fill="#F8F2EA"/>
<path d="M93.8198 96.0154C94.3228 94.9234 95.2715 94.3761 96.3035 93.9304C95.4643 94.6237 94.5313 95.1814 93.8198 96.0154Z" fill="#F8F2EA"/>
<path d="M77.9683 70.2471C77.8343 68.82 77.8186 67.3843 77.9214 65.9546L78.0935 70.2706L77.9683 70.2471Z" fill="#F8F2EA"/>
<path d="M68.1218 64.3308L67.9081 61.4639C68.1453 62.4047 68.4997 63.3326 68.2912 64.3308H68.1218Z" fill="#F8F2EA"/>
<path d="M106.429 58.7716C105.647 58.18 105.386 57.346 105.386 56.3999C105.715 57.1818 105.957 58.0236 106.505 58.7091C106.476 58.7255 106.45 58.7467 106.429 58.7716Z" fill="#F8F2EA"/>
<path d="M74.1059 77.2031C73.6257 77.9873 73.2697 78.8409 73.0503 79.7338C73.0236 79.2597 73.1048 78.7856 73.2876 78.3473C73.4704 77.909 73.7502 77.5178 74.1059 77.2031Z" fill="#F8F2EA"/>
<path d="M70.6681 75.311C70.8089 76.0538 70.9496 76.7966 71.1008 77.5837C70.861 77.5707 70.7177 77.5212 70.702 77.2657C70.6603 76.6194 70.6082 75.9626 70.5587 75.3293L70.6681 75.311Z" fill="#F8F2EA"/>
<path d="M108.329 98.3245C107.831 97.4827 107.052 97.1282 106.564 96.4636C107.245 96.5314 108.154 97.5035 108.329 98.3245Z" fill="#F8F2EA"/>
<path d="M52.834 78.8738C52.9001 79.1195 52.9412 79.3712 52.9566 79.6252C52.9566 79.7791 53.0375 80.0348 52.7975 80.0818C52.7195 80.0943 52.6397 80.0883 52.5644 80.0643C52.4892 80.0403 52.4207 79.9989 52.3644 79.9435C52.3061 79.8621 52.2748 79.7644 52.2748 79.6643C52.2748 79.5642 52.3061 79.4666 52.3644 79.3852C52.4766 79.2469 52.6201 79.1008 52.834 78.8738Z" fill="#F8F2EA"/>
<path d="M93.4627 45.8574C93.6574 45.5111 93.926 45.212 94.2495 44.9813C94.5729 44.7507 94.9432 44.5942 95.334 44.5229C95.0555 44.8072 94.7399 45.0527 94.3958 45.2527C94.0804 45.4351 93.7729 45.6541 93.4627 45.8574Z" fill="#F8F2EA"/>
<path d="M59.6983 87.2036L59.8756 87.2323C59.9668 88.2331 59.6983 89.2131 59.6983 90.2113V87.2036Z" fill="#5B5B5B"/>
<path d="M42.5568 96.448H42.476V93.6775H42.6585C42.7659 94.6008 42.7316 95.535 42.5568 96.448Z" fill="#5B5B5B"/>
<path d="M107.206 47.9294C107.482 49.6235 107.482 49.6235 107.206 50.3663C106.903 49.9232 107.239 49.5219 107.206 49.1257C107.172 48.7296 107.206 48.3282 107.206 47.9294Z" fill="#F8F2EA"/>
<path d="M72.5786 95.5098C72.6672 96.6565 72.7541 97.805 72.8392 98.9553C72.5843 97.8257 72.4965 96.6648 72.5786 95.5098Z" fill="#5B5B5B"/>
<path d="M78.1586 70.8284C78.1873 71.6832 78.1195 72.5433 78.2629 73.4555C78.1977 73.5363 78.0283 73.5102 77.924 73.4425C77.8198 73.3747 77.924 73.2105 77.9657 73.1089C78.1925 72.3661 78.0179 71.6129 78.0335 70.8675L78.1586 70.8284Z" fill="#F8F2EA"/>
<path d="M105.85 94.9989C105.313 94.5517 104.693 94.2135 104.026 94.0033C104.062 93.8469 104.161 93.8 104.271 93.8547C104.826 94.1414 105.428 94.3551 105.876 94.8217C105.939 94.8868 105.897 94.9494 105.845 95.0015L105.85 94.9989Z" fill="#F8F2EA"/>
<path d="M45.1006 61.8862C45.972 61.8627 45.972 61.8628 45.5728 62.7524C45.3954 62.6768 45.4215 62.4915 45.3354 62.3506C45.2492 62.2 45.1708 62.045 45.1006 61.8862Z" fill="#F8F2EA"/>
<path d="M61.2881 48.8418C61.5488 49.8087 61.3585 50.7626 61.4289 51.7087H61.2881V48.8418Z" fill="#F8F2EA"/>
<path d="M57.2067 65.4516C57.1127 64.8051 57.0996 64.1493 57.1676 63.4995C57.2524 64.1468 57.2655 64.8015 57.2067 65.4516Z" fill="#F8F2EA"/>
<path d="M94.7476 58.6203C94.7476 58.1903 94.7319 57.7837 94.7476 57.3798C94.7732 57.1637 94.8168 56.9501 94.8779 56.7412C95.0265 57.6143 94.99 58.1121 94.7476 58.6203Z" fill="#F8F2EA"/>
<path d="M54.6734 102.462C54.9608 102.205 55.1728 101.875 55.2865 101.507C55.6805 102.603 55.6205 102.48 54.6734 102.462Z" fill="#F8F2EA"/>
<path d="M62.878 119.587C63.6729 119.407 64.4418 119.112 65.2758 119.117C64.497 119.365 63.6925 119.522 62.878 119.587Z" fill="#5B5B5B"/>
<path d="M89.5064 103.024C88.8366 103.203 88.1615 103.097 87.4891 103.057C88.1615 103.094 88.8287 102.846 89.5064 103.024Z" fill="#F8F2EA"/>
<path d="M91.4897 60.7008C91.8289 60.2494 92.3925 60.3329 92.8412 60.1294C92.4916 60.5521 91.962 60.5573 91.4897 60.7008Z" fill="#F8F2EA"/>
<path d="M64.2361 96.1692V97.5233C64.0848 97.1267 63.8108 96.6649 64.2361 96.1692Z" fill="#F8F2EA"/>
<path d="M61.4237 69.288C61.3902 68.7014 61.4313 68.1129 61.5462 67.5366C61.5801 68.1178 61.6895 68.6964 61.5879 69.2776L61.4237 69.288Z" fill="#5B5B5B"/>
<path d="M46.3855 78.1625L44.8217 77.2216C45.1605 77.206 46.0102 77.6542 46.3855 78.1625Z" fill="#F8F2EA"/>
<path d="M60.3681 116.983L60.796 116.503L61.3178 117.197C60.9889 117.201 60.6637 117.128 60.3681 116.983Z" fill="#F8F2EA"/>
<path d="M63.3419 109.74C63.1751 109.034 62.9927 108.437 63.1152 107.819C63.0891 108.437 63.4696 108.995 63.3419 109.74Z" fill="#F8F2EA"/>
<path d="M42.6194 93.1629C42.5393 92.7142 42.5393 92.2548 42.6194 91.8062C42.8542 92.3149 42.6533 92.7402 42.6194 93.1629Z" fill="#F8F2EA"/>
<path d="M84.8411 61.9252C84.2954 61.9833 83.7439 61.9552 83.207 61.8418H84.8411C84.8463 61.8694 84.8463 61.8976 84.8411 61.9252Z" fill="#F8F2EA"/>
<path d="M70.6734 97.0188C70.7021 97.6208 70.8115 98.2229 70.6995 98.8849C70.3137 98.2281 70.6239 97.6208 70.6734 97.0188Z" fill="#5B5B5B"/>
<path d="M74.5698 65.6522C74.5135 65.172 74.5302 64.6861 74.6193 64.2109C74.8213 64.6666 74.8353 65.1836 74.6584 65.6496C74.6453 65.6583 74.6301 65.6632 74.6144 65.6637C74.5988 65.6641 74.5833 65.6602 74.5698 65.6522Z" fill="#F8F2EA"/>
<path d="M58.0149 53.5618C58.0892 53.7081 58.1279 53.8699 58.1279 54.034C58.1279 54.1981 58.0892 54.3599 58.0149 54.5063C57.5531 54.2114 57.9001 53.9479 58.0149 53.5618Z" fill="#F8F2EA"/>
<path d="M68.5388 58.769C68.7997 58.7272 68.9093 58.9516 69.0606 59.0716C69.1728 59.1551 69.5094 59.1969 69.3215 59.4186C69.1754 59.5856 69.0163 59.3195 68.8989 59.2125C68.7815 59.1056 68.5701 58.9777 68.5388 58.7585V58.769Z" fill="#F8F2EA"/>
<path d="M84.8411 61.9252C84.8463 61.8976 84.8463 61.8694 84.8411 61.8418H86.2381C85.7794 61.9982 85.3259 62.2301 84.8411 61.9252Z" fill="#5B5B5B"/>
<path d="M75.0024 73.6534C74.4968 73.2442 74.9164 72.7099 74.7783 72.2512C74.9878 72.6896 75.063 73.1802 74.9946 73.6612L75.0024 73.6534Z" fill="#5B5B5B"/>
<path d="M66.6313 106.632C66.5765 106.592 66.553 106.585 66.5504 106.572C66.4852 106.339 66.3443 106.115 66.4565 105.865C66.4565 105.849 66.5765 105.851 66.5869 105.865C66.6461 105.983 66.6806 106.112 66.6882 106.244C66.6959 106.375 66.6765 106.507 66.6313 106.632Z" fill="#F8F2EA"/>
<path d="M73.212 74.4978C73.2668 74.8109 73.3294 75.124 73.3764 75.4397C73.392 75.5414 73.3946 75.6771 73.2355 75.6719C73.0763 75.6667 73.1259 75.5467 73.1233 75.4632C73.1233 75.1449 73.1233 74.8239 73.1233 74.503L73.212 74.4978Z" fill="#5B5B5B"/>
<path d="M94.1279 96.6929C94.1618 96.8755 93.88 97.593 93.7548 97.6165C93.7303 97.6168 93.7061 97.6116 93.6839 97.6012C93.6618 97.5908 93.6423 97.5755 93.6269 97.5565C93.5747 97.486 93.6269 97.4286 93.6713 97.3712L94.1279 96.7059V96.6929Z" fill="#F8F2EA"/>
<path d="M49.0288 88.168L48.9844 88.8228L48.4991 88.6167C48.6341 88.4241 48.8166 88.2695 49.0288 88.168Z" fill="#F8F2EA"/>
<path d="M78.1175 61.9668C78.1175 62.2825 78.1175 62.6478 77.5956 62.3295C77.7952 62.2504 77.9738 62.1263 78.1175 61.9668Z" fill="#F8F2EA"/>
<path d="M47.9648 86.0916L48.411 85.1602C48.4128 85.3392 48.3734 85.5162 48.2961 85.6777C48.2188 85.8392 48.1054 85.9808 47.9648 86.0916Z" fill="#F8F2EA"/>
<path d="M74.5699 65.6521C74.5832 65.6604 74.5986 65.6649 74.6143 65.6649C74.63 65.6649 74.6453 65.6604 74.6586 65.6521V66.7375C74.4629 66.3826 74.3116 66.0304 74.5699 65.6521Z" fill="#5B5B5B"/>
<path d="M65.4585 83.6368C65.3906 83.5924 65.3228 83.5637 65.2523 83.6368C65.196 83.2832 65.2057 82.9223 65.281 82.5723C65.4692 82.8932 65.5324 83.2722 65.4585 83.6368Z" fill="#5B5B5B"/>
<path d="M64.7939 106.092L64.6557 106.066C64.5281 105.741 64.4746 105.392 64.4991 105.043C64.6822 105.364 64.7834 105.724 64.7939 106.092Z" fill="#5B5B5B"/>
<path d="M78.1589 70.8289L78.0337 70.868C77.9752 70.7767 77.9389 70.6731 77.9276 70.5653C77.9163 70.4575 77.9302 70.3485 77.9684 70.2471L78.0989 70.2679C78.1556 70.3487 78.1909 70.4425 78.2014 70.5407C78.2119 70.6388 78.1973 70.738 78.1589 70.8289Z" fill="#5B5B5B"/>
<path d="M42.2155 72.6553C42.4268 72.8327 42.3407 72.9918 42.3538 73.2032C42.132 73.0362 42.085 72.8901 42.2155 72.6553Z" fill="#5B5B5B"/>
<path d="M46.8034 78.3801C46.5934 78.3671 46.4819 78.3023 46.4975 78.196C46.5131 78.0897 46.6012 78.1597 46.6504 78.196C46.6997 78.2323 46.7178 78.2816 46.8034 78.3801Z" fill="#F8F2EA"/>
<path d="M94.8618 96.7397H94.6538C94.685 96.7033 94.711 96.6435 94.75 96.6331C94.841 96.6123 94.8696 96.6721 94.8566 96.7579L94.8618 96.7397Z" fill="#F8F2EA"/>
<path d="M105.853 95.0004C105.853 94.9359 105.868 94.8636 105.969 94.9075C105.982 94.9075 105.992 94.9307 106.003 94.9436L105.85 94.9978L105.853 95.0004Z" fill="#F8F2EA"/>
<path d="M69.8915 49.4734H69.9191C69.9215 49.461 69.9215 49.4482 69.9191 49.4358H69.8915C69.8902 49.4483 69.8902 49.4609 69.8915 49.4734Z" fill="#F8F2EA"/>
<path d="M47.8442 86.3477L47.7642 86.2934C47.7901 86.2718 47.8199 86.2551 47.852 86.2444C47.87 86.2444 47.8933 86.2702 47.9165 86.2857L47.8442 86.3477Z" fill="#F8F2EA"/>
<path d="M74.9946 73.6613C75.0798 73.6613 75.0953 73.7181 75.0798 73.7904C75.0798 73.8033 75.0566 73.8111 75.0437 73.8214C75.0307 73.7646 75.0153 73.7104 75.0023 73.6536L74.9946 73.6613Z" fill="#5B5B5B"/>
<path d="M94.1273 96.7083H94.26L94.2115 96.7772L94.1273 96.6904V96.7083Z" fill="#F8F2EA"/>
<path d="M68.4207 58.6536L68.3981 58.6335L68.4056 58.6712L68.4207 58.6536Z" fill="#F8F2EA"/>
<path d="M106.505 58.709C106.505 58.7524 106.528 58.8212 106.505 58.8315C106.482 58.8417 106.434 58.8136 106.424 58.7702C106.447 58.7451 106.475 58.7244 106.505 58.709Z" fill="#F8F2EA"/>
<path d="M68.5361 58.7564C68.4621 58.7564 68.4289 58.7257 68.4238 58.6543L68.4085 58.6722C68.4953 58.6441 68.559 58.6415 68.5259 58.7666L68.5361 58.7564Z" fill="#F8F2EA"/>
<path d="M61.4237 69.2878H61.5863C61.5709 69.3317 61.5631 69.404 61.5373 69.4118C61.4443 69.4324 61.4366 69.3421 61.4237 69.2878Z" fill="#F8F2EA"/>
<path d="M104.257 44.6194C104.309 44.6194 104.363 44.653 104.322 44.7098C104.281 44.7666 104.237 44.7098 104.19 44.7098C104.21 44.6778 104.232 44.6475 104.257 44.6194Z" fill="#F8F2EA"/>
<path d="M95.3522 51.573C94.6485 50.8224 94.5704 49.918 94.6929 49.0136C94.9092 47.3274 95.9152 46.2692 97.5129 45.7584C98.3732 45.4493 99.2781 45.2821 100.192 45.2632C101.383 45.284 102.434 45.6724 103.153 46.7123C103.237 46.8222 103.291 46.9525 103.308 47.0898C103.325 47.2272 103.306 47.3667 103.252 47.4942C103.145 47.7887 102.95 47.9216 102.665 47.7313C101.206 46.7592 99.7334 47.2544 98.2348 47.6427C97.3565 47.8817 96.5849 48.4108 96.0455 49.1439C95.6964 49.5953 95.5257 50.1594 95.566 50.7286C95.6036 51.0269 95.5273 51.3285 95.3522 51.573Z" fill="#030202"/>
<path d="M83.3347 76.4423C82.4251 76.5674 81.8361 77.0756 81.1141 77.2867C80.2088 77.5539 79.3757 78.0226 78.6773 78.6576C77.4914 79.721 77.1291 81.1179 77.1604 82.6556C77.1604 82.7729 77.2516 82.9006 77.1344 83.0101C76.5584 82.541 76.5349 80.2657 77.1578 79.2127C78.3202 77.258 80.9395 75.1912 83.3347 76.4423Z" fill="#030202"/>
<path d="M78.2133 84.1462C78.9353 84.4694 79.652 84.8004 80.3766 85.1106C81.1935 85.463 82.0559 85.699 82.9385 85.8117C83.0271 85.8117 83.1184 85.8299 83.1992 85.8455C83.3529 85.8716 83.5536 85.8455 83.5171 86.1062C83.4858 86.3173 83.3112 86.2625 83.1731 86.273C81.7188 86.385 80.4313 85.8951 79.2298 85.1366C78.8467 84.8694 78.4778 84.5824 78.1247 84.2766L78.2133 84.1462Z" fill="#030202"/>
<defs>
<filter id="filter0_d_2409_117946" x="0.277771" y="0.109375" width="169.015" height="166.593" filterUnits="userSpaceOnUse" color-interpolation-filters="sRGB">
<feFlood flood-opacity="0" result="BackgroundImageFix"/>
<feColorMatrix in="SourceAlpha" type="matrix" values="0 0 0 0 0 0 0 0 0 0 0 0 0 0 0 0 0 0 127 0" result="hardAlpha"/>
<feOffset dx="5" dy="4"/>
<feGaussianBlur stdDeviation="2"/>
<feComposite in2="hardAlpha" operator="out"/>
<feColorMatrix type="matrix" values="0 0 0 0 0 0 0 0 0 0 0 0 0 0 0 0 0 0 0.25 0"/>
<feBlend mode="normal" in2="BackgroundImageFix" result="effect1_dropShadow_2409_117946"/>
<feBlend mode="normal" in="SourceGraphic" in2="effect1_dropShadow_2409_117946" result="shape"/>
</filter>
</defs>
</svg>
