<svg width="19" height="22" viewBox="0 0 19 22" fill="none" xmlns="http://www.w3.org/2000/svg">
<path d="M18.6547 16.1745C18.5511 15.5106 18.2089 14.9458 17.8975 14.3684C17.8853 14.2921 17.8516 14.2265 17.8026 14.1676C17.7823 14.1212 17.7619 14.0745 17.7416 14.0281C17.6984 13.9423 17.6549 13.8564 17.6116 13.7706C17.4552 13.4135 17.2967 13.0573 17.1432 12.6991C16.3375 10.8188 15.7693 8.87749 15.583 6.83063C15.4939 5.85086 15.4109 4.86731 15.1622 3.90958C14.979 3.2039 14.719 2.52287 14.5562 1.80791C14.3559 0.928197 13.738 0.389581 12.8709 0.145362C12.1645 -0.0536093 11.4499 -0.0312758 10.7404 0.109687C9.26023 0.403503 7.85005 0.928197 6.439 1.44709C6.34874 1.46101 6.26052 1.48044 6.18825 1.54251C6.06839 1.57471 5.94882 1.60864 5.84463 1.68029C5.70736 1.70726 5.57908 1.75802 5.45864 1.82937C5.32107 1.86389 5.19134 1.91609 5.07119 1.99209C4.94495 2.01442 4.83321 2.0733 4.72148 2.13218C4.70581 2.1287 4.69188 2.13218 4.67998 2.1432C4.57637 2.17859 4.47073 2.21049 4.38395 2.28213C4.25683 2.33521 4.1274 2.38365 4.00289 2.44224C3.05445 2.88891 2.09615 3.31615 1.2014 3.86897C1.07515 3.947 1.04265 4.03807 1.05919 4.1712C1.10127 4.51056 1.13406 4.85136 1.18311 5.18955C1.2014 5.3163 1.17934 5.38011 1.047 5.41869C0.792766 5.49294 0.575391 5.63855 0.386457 5.82272C-0.0363936 6.23546 -0.119687 6.79554 0.173436 7.26715C0.306647 7.4815 0.489776 7.64276 0.739946 7.7028C0.979958 7.76023 1.21359 7.71934 1.43009 7.59665C1.47914 7.75994 1.45447 7.84319 1.2844 7.89916C0.887668 8.02998 0.594255 8.29856 0.426798 8.68316C0.268047 9.04833 0.25876 9.41988 0.515025 9.74734C0.755037 10.0542 1.09547 10.1154 1.46375 10.0603C1.51948 10.0519 1.57201 10.0252 1.62773 10.0145C1.66691 10.0066 1.7264 9.96226 1.73598 10.0481C1.74266 10.1084 1.77487 10.1821 1.67358 10.2021C1.59377 10.2178 1.51338 10.2332 1.43589 10.2567C0.911756 10.4165 0.701637 10.8217 0.873447 11.3382C1.03713 11.831 1.40397 12.1066 1.92608 12.1321C1.98354 12.135 2.06335 12.0956 2.08192 12.1979C2.09615 12.2762 2.08396 12.329 2.00298 12.3772C1.89241 12.4427 1.78561 12.5245 1.69912 12.6194C1.21852 13.147 1.31197 13.7682 1.9194 14.145C2.09556 14.2544 2.28827 14.3124 2.48968 14.3518C2.55701 14.3652 2.66701 14.3246 2.68326 14.409C2.703 14.5125 2.57762 14.5105 2.51348 14.5447C1.90721 14.8693 1.8274 15.5703 2.35502 16.0164C2.57095 16.1988 2.82431 16.3047 3.11017 16.3233C3.24658 16.3972 3.42245 16.3091 3.54783 16.4294C3.55015 16.4674 3.5487 16.5069 3.58875 16.5295C3.61835 16.6487 3.48659 16.6101 3.45322 16.6678C3.13978 16.7752 2.88583 16.959 2.71112 17.2447C2.62754 17.3718 2.59532 17.504 2.67165 17.647C2.7117 18.0032 2.93691 18.2512 3.17954 18.4795C3.47353 18.7562 3.82586 18.8374 4.22085 18.7364C4.26873 18.7243 4.33432 18.6419 4.38018 18.7356C4.42981 18.8374 4.3352 18.8539 4.27599 18.8893C4.01508 19.0451 3.82441 19.2617 3.72486 19.5503C3.5458 20.0695 3.89812 20.6362 4.44345 20.6745C4.62716 20.6873 4.64921 20.745 4.63847 20.9025C4.61932 21.1833 4.74208 21.2639 5.00938 21.1572C5.08338 21.1276 5.151 21.0777 5.21601 21.0293C6.36587 20.1725 7.6202 19.5056 8.9526 18.9827C10.9197 18.2106 12.9707 17.7799 15.0562 17.4924C15.127 17.504 15.1938 17.4956 15.2536 17.453C15.8685 17.3944 16.4829 17.3257 17.0991 17.2816C17.4354 17.2575 17.7707 17.1667 18.1137 17.2598C18.2489 17.2967 18.3633 17.221 18.4437 17.1015C18.6338 16.819 18.7072 16.5103 18.655 16.1745H18.6547ZM17.2726 14.1157C17.2683 14.1186 17.2645 14.1215 17.2602 14.1241C17.259 14.1221 17.2581 14.1201 17.2573 14.118C17.2625 14.1175 17.2677 14.1166 17.2726 14.1157ZM2.59532 15.2536C2.57414 15.1152 2.64002 14.9943 2.75959 14.9569C2.90325 14.9119 2.87423 15.0784 2.91631 15.15C3.04168 15.3644 3.06345 15.6332 3.2608 15.811C3.26428 15.8125 3.26776 15.8131 3.27154 15.8139C3.27502 15.8279 3.2785 15.8418 3.28228 15.8557C3.27618 15.8522 3.26951 15.8493 3.26225 15.847C3.21523 15.8374 3.17199 15.8398 3.13571 15.867C3.13049 15.8606 3.12498 15.8543 3.11917 15.8485C3.06403 15.7983 2.99351 15.7739 2.93024 15.7377C2.74101 15.6295 2.62841 15.4679 2.5959 15.2539L2.59532 15.2536ZM3.70222 15.8142C3.70222 15.8142 3.70106 15.8128 3.70048 15.8119C3.70193 15.8119 3.70309 15.8122 3.70426 15.8125C3.70339 15.8131 3.7028 15.8137 3.70193 15.8142H3.70222ZM17.0544 16.7998C16.4977 16.8654 15.9362 16.892 15.3859 17.0101C15.3537 17.0217 15.3212 17.0327 15.2928 17.0458C15.1221 16.993 14.9358 17.0182 14.8061 17.1107C14.7849 17.1046 14.7628 17.1 14.7396 17.0977C14.6659 17.0913 14.5927 17.0951 14.5199 17.1061C13.2368 17.2998 11.9636 17.5377 10.7105 17.8811C8.80807 18.4023 7.01161 19.1532 5.38347 20.2807C5.3588 20.2978 5.33239 20.3259 5.28305 20.2902C5.22356 19.9741 5.22414 19.6379 5.15478 19.311C5.11153 19.108 5.14375 19.0874 5.35416 19.1074C5.6142 19.1324 5.8664 19.2098 6.12731 19.2243C6.2611 19.2318 6.40417 19.2191 6.43 19.0482C6.4538 18.8908 6.32785 18.8388 6.20886 18.8011C5.89716 18.7022 5.5785 18.6222 5.25113 18.6149C5.05262 18.6106 4.95743 18.5288 4.90519 18.3458C4.79316 17.9539 4.65415 17.5705 4.5073 17.1902C4.48756 17.1389 4.44025 17.078 4.48263 17.0307C4.53458 16.9724 4.60568 17.0194 4.66547 17.0376C4.83728 17.0899 5.00676 17.1482 5.16755 17.2297C5.2549 17.274 5.34429 17.3164 5.44384 17.3242C5.57473 17.3347 5.69168 17.2998 5.75756 17.1792C5.82228 17.0603 5.7358 16.9776 5.66237 16.9022C5.40698 16.6409 5.09093 16.5028 4.73135 16.4602C4.52906 16.4361 4.32533 16.4222 4.13059 16.3549C4.11114 16.3557 4.09257 16.3552 4.074 16.3543C4.01682 16.2487 4.13668 16.0947 4.06355 16.0573C3.89986 15.9732 3.87084 15.8151 3.79509 15.6857C3.79684 15.6602 3.79829 15.6312 3.79974 15.5967C3.7623 15.385 3.6494 15.2014 3.5725 15.0044C3.51068 14.8466 3.54057 14.7834 3.71906 14.7756C4.1155 14.7585 4.47682 14.8632 4.81812 15.0552C4.89619 15.099 4.96933 15.1532 5.05726 15.177C5.20034 15.2162 5.31701 15.1674 5.40059 15.0514C5.48969 14.9276 5.40553 14.8353 5.32398 14.7532C5.1362 14.5638 4.90838 14.4432 4.65299 14.3669C4.28789 14.2578 3.91496 14.2375 3.53854 14.2535C3.37079 14.2607 3.26805 14.2039 3.20421 14.0374C3.05213 13.6406 2.94301 13.2311 2.81734 12.8265C2.75959 12.64 2.83447 12.6153 2.99641 12.6469C3.27705 12.7017 3.55189 12.7795 3.8305 12.8407C4.00667 12.8793 4.17238 12.852 4.24261 12.6713C4.31662 12.4802 4.14336 12.4169 4.01711 12.3531C3.67785 12.1814 3.31942 12.0723 2.93401 12.1016C2.72012 12.1179 2.62522 12.0294 2.59271 11.8203C2.54744 11.5305 2.48388 11.2437 2.43977 10.9534C2.39914 10.6851 2.42584 10.6639 2.68761 10.7512C2.88903 10.8182 3.07651 10.9223 3.27966 10.9826C3.46511 11.0375 3.6851 10.9658 3.73357 10.835C3.80322 10.6462 3.63867 10.576 3.52809 10.4936C3.28199 10.31 2.99989 10.205 2.69806 10.1531C2.6258 10.1406 2.55324 10.1296 2.48098 10.116C2.37331 10.0954 2.3112 10.0426 2.29437 9.92514C2.22384 9.43293 2.16754 8.93927 2.10079 8.44648C2.0767 8.26926 2.15216 8.20951 2.31932 8.21996C2.42525 8.22663 2.5306 8.23243 2.63566 8.24925C2.82112 8.27884 3.00453 8.31886 3.1897 8.34758C3.36122 8.37426 3.51764 8.32495 3.56379 8.1515C3.61342 7.965 3.43812 7.92411 3.31101 7.8864C2.9671 7.78431 2.62086 7.68076 2.25635 7.69758C2.07148 7.70628 1.98673 7.6242 1.96845 7.44698C1.92085 6.98494 1.85439 6.52522 1.79896 6.06404C1.7798 5.90539 1.81086 5.83259 1.9876 5.86217C2.11588 5.88363 2.24851 5.88015 2.37795 5.86072C2.5039 5.84187 2.62638 5.79952 2.65163 5.65682C2.67542 5.52282 2.5724 5.45321 2.47227 5.3923C2.29262 5.28324 2.09179 5.24901 1.88719 5.23422C1.73975 5.22378 1.67126 5.15591 1.66169 5.00508C1.64775 4.78581 1.61699 4.56712 1.58129 4.35016C1.55459 4.18919 1.60741 4.08448 1.75339 4.01371C2.15738 3.81851 2.55469 3.61083 2.96071 3.4194C3.41694 3.20448 3.89203 3.02871 4.32591 2.76709C4.32881 2.75027 4.33142 2.73344 4.33374 2.71691C4.48263 2.7929 4.58275 2.69951 4.68578 2.61568C4.68752 2.6035 4.68839 2.59132 4.68897 2.57914C4.84511 2.6183 4.96526 2.57015 5.05204 2.44224C5.06046 2.44601 5.06916 2.44949 5.07816 2.45268C5.19425 2.43499 5.32543 2.44456 5.3649 2.29112C5.36606 2.28735 5.3678 2.28416 5.36896 2.28068C5.37825 2.29257 5.39102 2.30447 5.40901 2.31694C5.70126 2.3004 5.95027 2.14813 6.21553 2.05097C7.49482 1.58254 8.77295 1.11006 10.1007 0.795066C10.7732 0.63554 11.4494 0.482106 12.1543 0.582752C13.171 0.727775 13.7639 1.27741 13.9757 2.28561C14.0805 2.78362 14.0956 3.28946 14.1011 3.79211C14.1127 4.89197 14.115 5.9895 14.2459 7.0853C14.5626 9.73632 15.2637 12.2792 16.3399 14.7208C16.3793 14.8101 16.4145 14.9029 16.5027 14.9592C16.5154 14.9525 16.5279 14.9458 16.5401 14.9389C16.5378 14.9438 16.5349 14.9487 16.5326 14.9537C16.5233 14.9801 16.5271 15.0004 16.5584 15.0076C16.5636 15.0088 16.5686 15.0108 16.5735 15.012C16.5668 15.0149 16.5601 15.0178 16.5535 15.0215C16.5363 15.2428 16.6698 15.3992 16.7877 15.5622C16.8007 15.5628 16.8123 15.5642 16.8234 15.5657C16.8509 15.646 16.8817 15.7249 16.9284 15.7962C16.9212 15.829 16.9162 15.8609 16.9215 15.8885C16.9743 16.1153 17.124 16.2943 17.2256 16.497C17.3527 16.7505 17.3397 16.7665 17.0541 16.8001L17.0544 16.7998Z" fill="#181818"/>
<path d="M4.70346 2.53506C4.83231 2.48199 4.96088 2.42862 5.08974 2.37554C5.19335 2.34392 5.30102 2.32159 5.38692 2.2485C6.27471 1.93061 7.15988 1.60518 8.05115 1.29715C9.02019 0.961855 9.99823 0.654986 11.0163 0.500971C11.5608 0.418598 12.1032 0.405256 12.6389 0.564781C13.4402 0.803489 13.8811 1.36763 14.0512 2.15742C14.2505 3.0818 14.1641 4.02358 14.1916 4.95811C14.2848 8.12628 14.9732 11.1642 16.1857 14.0876C16.3009 14.3652 16.4313 14.6367 16.5546 14.9108C16.5752 14.9229 16.5833 14.9412 16.5804 14.9647C16.6666 15.1439 16.7525 15.3235 16.8387 15.5027C16.9537 15.5697 16.9499 15.6947 16.985 15.8009C17.1455 16.1165 17.306 16.4323 17.4763 16.7679C16.7676 16.8549 16.0717 16.9402 15.3754 17.0255C15.1763 17.0539 14.9773 17.082 14.7782 17.1105C13.3363 17.2862 11.916 17.5699 10.5192 17.9664C8.65742 18.4951 6.90013 19.253 5.31901 20.3862C5.30102 20.399 5.27577 20.4016 5.24094 20.4135C5.20641 19.9761 5.17506 19.546 5.07465 19.1272C5.03808 18.9743 5.12282 18.9821 5.21744 18.9862C5.4708 18.9978 5.71836 19.0483 5.96591 19.099C6.0376 19.1138 6.11015 19.1324 6.18271 19.1347C6.28574 19.1382 6.38993 19.1092 6.41605 18.9984C6.44594 18.8716 6.32259 18.8618 6.24569 18.8348C5.88204 18.7066 5.50795 18.6315 5.11992 18.6367C5.04301 18.6378 4.96349 18.6625 4.93157 18.5421C4.78182 17.9765 4.57024 17.4315 4.35084 16.8735C4.60101 16.8677 4.812 16.953 5.02212 17.0368C5.1353 17.082 5.24356 17.1392 5.35384 17.1923C5.50214 17.2633 5.66321 17.2688 5.74477 17.1232C5.81761 16.993 5.66786 16.9092 5.5805 16.8352C5.23253 16.5405 4.81432 16.4541 4.37231 16.4489C4.26813 16.4477 4.15436 16.4712 4.1117 16.3331C4.03276 16.0698 3.81306 15.8691 3.7791 15.5857C3.65953 15.2858 3.53967 14.9859 3.41285 14.668C3.9544 14.6088 4.43965 14.6979 4.89065 14.9621C4.96088 15.0033 5.02734 15.0546 5.1028 15.0816C5.22469 15.1254 5.33294 15.0764 5.40318 14.9772C5.47892 14.8701 5.36835 14.8168 5.30944 14.7608C4.9455 14.4165 4.49043 14.3092 4.01012 14.2753C3.88039 14.266 3.74399 14.2515 3.61977 14.2793C3.32636 14.3449 3.20186 14.2158 3.13133 13.9466C3.02598 13.5461 2.88871 13.1542 2.77204 12.7566C2.696 12.4973 2.71313 12.4767 2.98477 12.5306C3.2718 12.5878 3.55476 12.6641 3.84005 12.7293C3.90274 12.7438 3.9692 12.7601 4.0316 12.7534C4.1352 12.7427 4.22662 12.682 4.24781 12.5817C4.26755 12.4871 4.16858 12.4517 4.09806 12.4135C3.70307 12.1988 3.28051 12.0793 2.83125 12.1153C2.64579 12.1301 2.59443 12.0715 2.56889 11.905C2.5001 11.4575 2.41565 11.012 2.33381 10.545C2.6635 10.5925 2.9276 10.7173 3.1946 10.8333C3.27644 10.869 3.35364 10.9217 3.44825 10.9058C3.56028 10.8869 3.6932 10.8762 3.73267 10.7532C3.77098 10.6343 3.64328 10.5943 3.57015 10.5386C3.23494 10.2825 2.84343 10.1786 2.43277 10.1375C2.33003 10.1273 2.27025 10.105 2.25661 9.98751C2.19044 9.41293 2.12108 8.83864 2.04214 8.2658C2.02472 8.13905 2.05926 8.11526 2.1768 8.11236C2.5062 8.10424 2.82631 8.16022 3.14526 8.22867C3.21753 8.24404 3.28747 8.26899 3.36148 8.25013C3.45203 8.22722 3.54403 8.18719 3.55825 8.08945C3.57334 7.98503 3.47147 7.96473 3.39688 7.93833C2.99464 7.79563 2.58282 7.69788 2.153 7.71732C2.00934 7.72399 1.95971 7.68454 1.94317 7.53517C1.88193 6.97654 1.8059 6.41965 1.72841 5.86276C1.70954 5.72731 1.76178 5.71194 1.87526 5.72876C2.03633 5.75255 2.19886 5.77256 2.36138 5.77836C2.48008 5.78242 2.60255 5.73746 2.63854 5.61796C2.67975 5.48048 2.54219 5.4509 2.45396 5.40188C2.25661 5.29253 2.03807 5.25048 1.81838 5.2499C1.67559 5.24932 1.64134 5.19218 1.62886 5.06949C1.59897 4.7777 1.56734 4.48591 1.5209 4.19674C1.49884 4.05926 1.54209 4.00096 1.66514 3.94034C2.54044 3.50875 3.42068 3.0876 4.3192 2.70532C4.33372 2.69923 4.34474 2.68531 4.35722 2.67487C4.48376 2.65485 4.59404 2.59481 4.70491 2.53535L4.70346 2.53506Z" fill="#F8F2EA"/>
<path d="M1.38206 7.17926C1.4285 7.32979 1.34317 7.33734 1.22796 7.32602C0.856474 7.28977 0.579024 7.0412 0.543907 6.70765C0.506469 6.35176 0.763894 5.95092 1.09504 5.84157C1.19458 5.80879 1.24856 5.81517 1.24769 5.93931C1.24711 6.01995 1.26917 6.10058 1.27787 6.18179C1.31328 6.51418 1.34753 6.84658 1.38206 7.17955V7.17926Z" fill="#F8F2EA"/>
<path d="M0.94068 9.04772C0.961286 8.73737 1.13019 8.52534 1.38762 8.36901C1.5011 8.30027 1.51938 8.35247 1.53012 8.4566C1.55798 8.7304 1.60093 9.00276 1.62444 9.27714C1.63227 9.36938 1.70454 9.4851 1.56436 9.5553C1.42157 9.62665 1.28314 9.63651 1.15341 9.53905C0.991759 9.41752 0.929071 9.24814 0.94068 9.04801V9.04772Z" fill="#F8F2EA"/>
<path d="M3.28082 15.9122C3.22045 15.9122 3.16038 15.9122 3.10001 15.9124C2.85564 15.8214 2.65133 15.6851 2.55411 15.4284C2.49954 15.2842 2.48881 15.1435 2.58922 15.0133C2.64494 14.9411 2.71402 14.8642 2.8037 14.8663C2.90208 14.8683 2.89076 14.9834 2.92123 15.0507C3.03529 15.3016 3.14354 15.5548 3.25383 15.8075C3.27733 15.8388 3.29185 15.8721 3.28053 15.9124L3.28082 15.9122Z" fill="#F8F2EA"/>
<path d="M1.94538 11.5438C1.95495 11.6021 1.9982 11.6801 1.87601 11.6636C1.71204 11.6416 1.45084 11.3219 1.40208 11.0821C1.35971 10.8735 1.50018 10.7708 1.6421 10.6725C1.73729 10.6067 1.81275 10.5832 1.83045 10.75C1.8586 11.0156 1.9062 11.2793 1.94538 11.5438Z" fill="#F8F2EA"/>
<path d="M2.48973 13.88C2.20212 13.797 2.01116 13.6523 1.94122 13.4005C1.87214 13.1528 1.9833 12.9498 2.18181 12.7549C2.28513 13.1322 2.38148 13.4841 2.48973 13.8797V13.88Z" fill="#F8F2EA"/>
<path d="M4.00516 18.3868C3.86121 18.3688 3.73613 18.3157 3.63368 18.2157C3.4816 18.0669 3.36116 17.8946 3.25088 17.7136C3.16816 17.5781 3.14059 17.4383 3.23927 17.3046C3.35478 17.148 3.52804 17.0694 3.70797 17.0157C3.78256 16.9934 3.78807 17.0822 3.80636 17.1297C3.93435 17.4624 4.04811 17.8009 4.18771 18.1284C4.28 18.3445 4.14098 18.3569 4.00487 18.3868H4.00516Z" fill="#F8F2EA"/>
<path d="M4.63148 20.1207C4.65528 20.3043 4.55863 20.3002 4.44487 20.2358C4.2777 20.1413 4.19209 19.9881 4.18164 19.797C4.17061 19.5945 4.26783 19.4356 4.40801 19.3051C4.49508 19.2241 4.50988 19.3051 4.52003 19.3747C4.5566 19.6232 4.59404 19.8718 4.63119 20.1207H4.63148Z" fill="#F8F2EA"/>
<path d="M13.061 12.6616C13.0474 12.6965 13.0246 12.727 12.995 12.7498C12.7464 12.9959 12.4642 13.2054 12.1567 13.372C11.9169 13.504 11.6794 13.6402 11.4295 13.7527C11.0086 13.942 10.575 14.1016 10.1319 14.2305C9.71336 14.3525 9.28645 14.4439 8.8546 14.5039C8.25068 14.5879 7.6471 14.605 7.03985 14.516C6.84481 14.4884 6.65263 14.4434 6.46556 14.3816C6.42962 14.3715 6.3954 14.3561 6.36405 14.3358C6.42187 14.3374 6.45085 14.3014 6.4638 14.2528C6.481 14.1962 6.48844 14.137 6.48581 14.0778C6.47208 13.8507 6.41466 13.6304 6.37635 13.4072C6.3025 12.9815 6.27932 12.5486 6.30728 12.1175C6.33045 11.6962 6.46119 11.2878 6.68701 10.9313C6.8486 10.6777 7.04325 10.4495 7.22229 10.2093C7.37646 10.0023 7.53826 9.80061 7.65654 9.56879C7.76472 9.3581 7.84362 9.13841 7.83545 8.89603C7.83133 8.76966 7.80707 8.64474 7.76358 8.52601C8.28088 8.61466 8.73748 8.48684 9.14889 8.17118C9.21662 8.43118 9.3367 8.67463 9.50177 8.88662C9.70942 9.14555 9.97035 9.3342 10.2624 9.48571C10.4442 9.58028 10.6316 9.66504 10.8034 9.77742C11.0335 9.92769 11.2342 10.1147 11.4382 10.2979C11.89 10.7033 12.2384 11.1863 12.5161 11.7228C12.6509 11.9903 12.771 12.265 12.876 12.5456C12.9103 12.6372 12.9741 12.6774 13.061 12.6616Z" fill="#F8F2EA"/>
<path d="M13.0609 12.6614C12.9746 12.677 12.9103 12.637 12.8751 12.5456C12.7697 12.2649 12.6492 11.9901 12.514 11.7225C12.2362 11.1859 11.8879 10.703 11.436 10.2975C11.2321 10.1144 11.0313 9.92736 10.8012 9.77709C10.6296 9.66499 10.442 9.57995 10.2602 9.48537C9.96821 9.33387 9.70727 9.14521 9.49962 8.88629C9.33455 8.6743 9.21448 8.43085 9.14674 8.17085C8.73619 8.4863 8.27958 8.61412 7.76144 8.52568C7.80492 8.64441 7.82918 8.76932 7.83331 8.8957C7.84147 9.13807 7.76257 9.35776 7.6544 9.56845C7.53824 9.79915 7.37516 10.0018 7.22085 10.2082C7.04181 10.4484 6.84717 10.6766 6.68557 10.9302C6.46011 11.2871 6.32986 11.6958 6.30725 12.1173C6.27999 12.5485 6.30389 12.9814 6.37845 13.407C6.41676 13.6302 6.47418 13.8505 6.48791 14.0777C6.49054 14.1368 6.4831 14.196 6.4659 14.2526C6.45239 14.3014 6.42341 14.3374 6.36615 14.3356L6.28135 14.288L6.26545 14.2784L6.26687 14.2781C6.24921 14.2406 6.22034 14.2114 6.20006 14.1743C6.08807 13.9546 6.04195 13.7156 6.00072 13.4769C5.93391 13.084 5.91648 12.6844 5.94885 12.2873C5.97659 11.9347 6.02994 11.5861 6.16528 11.2553C6.32235 10.8727 6.55009 10.5314 6.79654 10.2027C7.02488 9.89801 7.25329 9.59359 7.42992 9.25477C7.5496 9.02747 7.58752 8.76594 7.53731 8.51401C7.53552 8.49679 7.52867 8.48049 7.51762 8.46717C7.50657 8.45385 7.49182 8.4441 7.47524 8.43916C6.91699 8.21634 6.54922 7.80939 6.37529 7.24033C6.21818 6.72603 6.30732 6.23507 6.59835 5.78622C6.97306 5.20758 7.85209 4.7698 8.66508 5.01627C9.20255 5.17929 9.57509 5.52164 9.74297 6.05522C9.95582 6.7319 9.83727 7.36059 9.39778 7.92276C9.39032 7.93136 9.3851 7.94168 9.3826 7.95279C9.3801 7.9639 9.38039 7.97545 9.38345 7.98642C9.41704 8.14687 9.47053 8.3025 9.54268 8.4497C9.69211 8.74796 9.92813 8.95869 10.2201 9.11232C10.6195 9.32267 11.0223 9.528 11.3867 9.79749C11.6913 10.0229 11.9905 10.2544 12.2358 10.5476C12.5711 10.9487 12.8084 11.4056 12.991 11.8917C13.0732 12.1098 13.1321 12.3348 13.1247 12.5717L13.1264 12.5713C13.1157 12.5763 13.1172 12.585 13.1191 12.5938C13.09 12.6085 13.092 12.6486 13.0609 12.6614ZM7.55038 9.23132L7.56304 9.23511L7.56434 9.22577L7.55264 9.23317L7.541 9.24326C7.54614 9.25311 7.53948 9.25656 7.53204 9.2593C7.53159 9.26723 7.53355 9.27636 7.52109 9.27583L7.52806 9.29064L7.53381 9.28351L7.52031 9.27633C7.52781 9.27868 7.53601 9.28147 7.53901 9.27171C7.54008 9.26874 7.53436 9.26384 7.5319 9.25994C7.5365 9.2603 7.54356 9.26337 7.54569 9.26104C7.55378 9.25363 7.54672 9.24816 7.54129 9.24319C7.54475 9.24504 7.55004 9.24944 7.55182 9.2481C7.56004 9.24246 7.55411 9.23671 7.55038 9.23132ZM7.58248 9.19333L7.5898 9.18161C7.58668 9.18237 7.58244 9.18102 7.58102 9.18377C7.57959 9.18653 7.57958 9.19255 7.58396 9.19567C7.57774 9.1924 7.57398 9.19423 7.57325 9.20102C7.5736 9.20244 7.57409 9.20442 7.57621 9.2057L7.58248 9.19333ZM7.20945 9.73007C7.21022 9.73319 7.21099 9.7363 7.21176 9.73942C7.21253 9.74254 7.21176 9.73942 7.21416 9.74063C7.21657 9.74184 7.21234 9.73326 7.21143 9.72958C7.21773 9.73073 7.2253 9.73337 7.22646 9.72347C7.22604 9.72177 7.22045 9.71864 7.21713 9.71615C7.22223 9.71489 7.22956 9.72751 7.23187 9.71251L7.2177 9.71601C7.21916 9.72437 7.21738 9.72811 7.20945 9.73007ZM7.59081 9.15039C7.60641 9.16488 7.60709 9.14938 7.61087 9.14033C7.62487 9.12378 7.63189 9.10242 7.63043 9.08079C7.61485 9.10658 7.60385 9.11922 7.60535 9.13748C7.60131 9.14179 7.59698 9.14616 7.59328 9.15068L7.59345 9.16597C7.59615 9.1635 7.60026 9.16189 7.60083 9.15934C7.60262 9.15198 7.59597 9.15182 7.59088 9.15068L7.59081 9.15039ZM7.36527 9.51753C7.36786 9.52801 7.36451 9.53515 7.35332 9.53732C7.35692 9.54094 7.35582 9.55353 7.36633 9.54372L7.35282 9.53774C7.35906 9.5362 7.36583 9.54294 7.37152 9.53312C7.37721 9.5233 7.36858 9.52122 7.3652 9.51605L7.37742 9.52535L7.3819 9.51673L7.36527 9.51753ZM6.69222 6.11023L6.70714 6.11345L6.70751 6.10765L6.6925 6.11136C6.69432 6.11873 6.69325 6.1229 6.68517 6.12429L6.66802 6.18384C6.60808 6.27951 6.59822 6.38806 6.58603 6.49688C6.56343 6.57209 6.56237 6.65212 6.58297 6.7279L6.59184 6.5204C6.60886 6.40802 6.63652 6.29752 6.67444 6.19037C6.67741 6.1683 6.71136 6.15119 6.68284 6.12457C6.68708 6.12593 6.69365 6.12941 6.69507 6.12786C6.70493 6.11911 6.69759 6.11491 6.69229 6.11051L6.69222 6.11023ZM7.49348 9.3539C7.49647 9.34895 7.50618 9.34324 7.4965 9.33812C7.48682 9.333 7.48686 9.34291 7.48571 9.3492C7.48416 9.34954 7.4827 9.35019 7.48142 9.35112C7.48013 9.35204 7.47905 9.35321 7.47823 9.35457C7.47741 9.35592 7.47688 9.35743 7.47666 9.359C7.47644 9.36057 7.47654 9.36216 7.47696 9.36369C7.44294 9.40142 7.41433 9.44369 7.39196 9.4893C7.3889 9.49516 7.38095 9.50193 7.39326 9.50551C7.39326 9.50551 7.39866 9.49816 7.40129 9.49421C7.43377 9.45547 7.46196 9.41333 7.48537 9.36852L7.49348 9.3539ZM7.25402 9.689C7.28133 9.66405 7.30458 9.63498 7.32291 9.60285C7.2785 9.61532 7.26262 9.6496 7.24836 9.68559L7.24118 9.69909C7.24118 9.69909 7.24605 9.70179 7.24627 9.70144C7.24648 9.70108 7.25167 9.69289 7.25402 9.689ZM9.5854 8.81249L9.5847 8.80966L9.58222 8.81298C9.55029 8.71295 9.49413 8.62432 9.44689 8.53288C9.47814 8.63276 9.52488 8.72711 9.5854 8.81249ZM11.5528 10.2894L11.5321 10.2946C11.535 10.2977 11.5371 10.3029 11.5403 10.3036C11.5539 10.3063 11.5549 10.2982 11.5521 10.2878C11.5299 10.3197 11.5659 10.3268 11.5777 10.3392C11.7542 10.5189 11.9201 10.7088 12.0744 10.9079C12.0805 10.8826 12.0643 10.8671 12.0532 10.8503C11.9987 10.7685 11.9391 10.6902 11.875 10.6156C11.7763 10.4982 11.6597 10.3986 11.5528 10.2897L11.5528 10.2894ZM7.19751 8.03041C7.20336 8.03948 7.21302 8.05423 7.22112 8.04321C7.22922 8.0322 7.21104 8.02677 7.20072 8.0227C7.19084 8.01312 7.18173 8.00304 7.17121 7.99452C6.96031 7.82459 6.78847 7.61124 6.66739 7.36897C6.64473 7.30903 6.61668 7.25126 6.58357 7.19639C6.60617 7.26355 6.61538 7.33613 6.65946 7.39528C6.68734 7.44851 6.7121 7.50252 6.7431 7.55137C6.86113 7.74196 7.00512 7.9099 7.19751 8.03041ZM9.42311 6.20968C9.36486 5.98359 9.11689 5.69044 8.74441 5.50048C8.44014 5.34568 8.1162 5.31448 7.78302 5.37244C7.61299 5.40211 7.4394 5.44169 7.30075 5.54237C7.04972 5.71814 6.86098 5.96906 6.76173 6.25899C6.6404 6.61962 6.65064 6.98112 6.80843 7.32662C7.05752 7.87381 7.48131 8.18996 8.08848 8.23236C8.31607 8.24829 8.54273 8.21545 8.74144 8.10113C9.32644 7.77024 9.629 7.04681 9.42255 6.20982L9.42311 6.20968ZM7.82856 5.28543C8.49333 5.20689 9.04252 5.4064 9.41832 6.00165C9.16341 5.4553 8.45907 5.10834 7.828 5.28557L7.82856 5.28543ZM12.9378 12.1327C12.9158 12.0469 12.8813 11.9647 12.8355 11.8889C12.859 11.9742 12.8934 12.0562 12.9378 12.1327ZM9.56854 6.39561C9.53407 6.21955 9.47321 6.06444 9.4181 6.02996C9.48904 6.14801 9.51255 6.26875 9.56854 6.39561ZM9.34876 7.99079C9.35867 8.11745 9.39169 8.24123 9.44619 8.356C9.41475 8.2336 9.36851 8.11456 9.34876 7.99079ZM6.23028 13.5191C6.21215 13.4225 6.21434 13.3219 6.17317 13.238C6.17762 13.3341 6.19688 13.4289 6.23028 13.5191ZM6.21654 13.6728L6.22788 13.67L6.17231 13.445L6.16097 13.4478L6.21654 13.6728ZM7.62882 8.69461L7.62212 8.83905C7.65396 8.79151 7.64121 8.74235 7.62882 8.69461ZM12.6406 11.4332C12.639 11.4162 12.6338 11.3996 12.6252 11.3848C12.6166 11.3699 12.6049 11.3571 12.5908 11.3473C12.6075 11.3759 12.6242 11.4045 12.6406 11.4332ZM7.52192 9.3096C7.51996 9.30166 7.51607 9.30172 7.5128 9.30674L7.50576 9.31599C7.50852 9.31742 7.51297 9.32083 7.51346 9.3204C7.51672 9.31716 7.51956 9.31353 7.52192 9.3096ZM12.663 11.4641L12.6613 11.4645L12.6622 11.4685L12.663 11.4641ZM7.6359 9.07372L7.63123 9.07067C7.63054 9.07333 7.6301 9.07606 7.62994 9.0788C7.62994 9.0788 7.63255 9.08086 7.63396 9.08172L7.6359 9.07372Z" fill="#050404"/>
<path d="M13.123 12.5717C13.1303 12.3349 13.0714 12.1098 12.9893 11.8917C12.8055 11.406 12.5693 10.9488 12.234 10.5476C11.9887 10.2544 11.6895 10.0229 11.385 9.79755C11.0202 9.52693 10.6178 9.32273 10.2183 9.11239C9.92635 8.95875 9.69033 8.74802 9.5409 8.44976C9.46875 8.30256 9.41526 8.14693 9.38167 7.98649C9.37861 7.97552 9.37832 7.96396 9.38082 7.95285C9.38332 7.94174 9.38854 7.93142 9.396 7.92282C9.83549 7.36065 9.95425 6.73281 9.74119 6.05528C9.57331 5.5217 9.20077 5.17936 8.6633 5.01633C7.85088 4.76972 6.97127 5.20765 6.59657 5.78628C6.30533 6.23668 6.2164 6.72609 6.3735 7.24039C6.54744 7.80945 6.9152 8.2164 7.47346 8.43922C7.49004 8.44416 7.50479 8.45391 7.51584 8.46723C7.52689 8.48056 7.53374 8.49685 7.53553 8.51407C7.58625 8.76575 7.54896 9.02722 7.4299 9.25469C7.25328 9.59352 7.02487 9.89793 6.79653 10.2026C6.55007 10.5314 6.32234 10.8726 6.16527 11.2553C6.02993 11.586 5.97658 11.9347 5.94883 12.2872C5.91647 12.6843 5.9339 13.084 6.00071 13.4768C6.04194 13.7155 6.08862 13.9544 6.20005 14.1742C6.2192 14.2116 6.2492 14.2406 6.26686 14.278C6.19335 14.242 6.16155 14.1717 6.12536 14.1055C5.94762 13.7803 5.88591 13.4222 5.83391 13.062C5.77704 12.6687 5.7681 12.2747 5.84677 11.8838C5.96161 11.3143 6.17804 10.791 6.56249 10.3455C6.79483 10.0777 7.01348 9.79584 7.18416 9.48283C7.3196 9.24275 7.40193 8.97639 7.42558 8.70175C7.42829 8.66892 7.42537 8.6498 7.38868 8.63511C6.82215 8.41043 6.47192 7.98442 6.29317 7.41534C6.12032 6.86405 6.17824 6.32579 6.44715 5.81417C6.64469 5.43166 6.9733 5.13303 7.3729 4.97286C7.64104 4.86093 7.91403 4.78929 8.2056 4.80264C8.59052 4.82028 8.95565 4.90503 9.27088 5.14069C9.56563 5.36037 9.76037 5.65104 9.87548 5.99776C10.062 6.55801 10.0289 7.10547 9.76939 7.637C9.71524 7.74904 9.64786 7.85419 9.5687 7.9502C9.5582 7.96163 9.55105 7.97573 9.54802 7.99095C9.545 8.00617 9.54621 8.02193 9.55154 8.03651C9.59104 8.18533 9.65758 8.32561 9.74786 8.45034C9.93923 8.70667 10.1808 8.90221 10.4508 9.06668C10.7019 9.21927 10.9568 9.36615 11.2059 9.52164C11.5944 9.76444 11.9717 10.0224 12.2818 10.3666C12.5332 10.6457 12.7111 10.97 12.8701 11.3061C12.994 11.5578 13.097 11.8192 13.1783 12.0876C13.2242 12.2467 13.2327 12.4025 13.1424 12.5507C13.1375 12.56 13.1354 12.5708 13.123 12.5717Z" fill="#F8F2EA"/>
<path d="M13.1172 12.5927C13.1151 12.584 13.113 12.5755 13.1246 12.5702C13.1219 12.5778 13.1196 12.5853 13.1172 12.5927Z" fill="#F8F2EA"/>
<path d="M9.42244 6.21003C9.62918 7.04694 9.3269 7.77031 8.74162 8.10247C8.54262 8.21565 8.31596 8.2485 8.08866 8.23371C7.48121 8.19017 7.05742 7.87401 6.80719 7.32711C6.6494 6.98161 6.63874 6.61962 6.7605 6.25948C6.85975 5.96955 7.04848 5.71863 7.29951 5.54286C7.4393 5.44189 7.61176 5.4026 7.78178 5.37292C8.11496 5.31497 8.4389 5.34617 8.74318 5.50097C9.11622 5.69079 9.36447 5.98508 9.42244 6.21003Z" fill="#F8F2EA"/>
<path d="M7.82803 5.28575C8.4591 5.10852 9.1626 5.45568 9.41778 6.00197C9.04226 5.40785 8.4928 5.20721 7.82803 5.28575Z" fill="#F8F2EA"/>
<path d="M6.6674 7.36899C6.78842 7.6118 6.96039 7.82565 7.17158 7.99595C7.1821 8.00448 7.1912 8.01455 7.20108 8.02413C7.20023 8.02675 7.19902 8.02915 7.19788 8.03184C7.00548 7.91133 6.86163 7.74396 6.74276 7.55358C6.71148 7.50359 6.687 7.44952 6.65911 7.39749C6.65978 7.3868 6.65464 7.37575 6.6674 7.36899Z" fill="#F8F2EA"/>
<path d="M11.5527 10.2894C11.6597 10.3988 11.7762 10.4984 11.8739 10.6164C11.9381 10.6909 11.9976 10.7693 12.0521 10.8511C12.0632 10.8679 12.0794 10.8834 12.0733 10.9087C11.919 10.7096 11.7531 10.5197 11.5766 10.34C11.5648 10.3276 11.5282 10.3219 11.551 10.2886L11.5527 10.2894Z" fill="#F8F2EA"/>
<path d="M6.58574 6.49616C6.59737 6.38748 6.60815 6.28021 6.66773 6.18312C6.67035 6.18518 6.67353 6.1871 6.67642 6.18909C6.6385 6.29624 6.61084 6.40674 6.59382 6.51912L6.58574 6.49616Z" fill="#F8F2EA"/>
<path d="M12.9378 12.1329C12.8933 12.0564 12.8589 11.9745 12.8354 11.8892C12.8812 11.965 12.9157 12.0471 12.9378 12.1329Z" fill="#F8F2EA"/>
<path d="M9.56866 6.39567C9.51267 6.26882 9.48916 6.14808 9.41821 6.03003C9.47332 6.06451 9.53418 6.21962 9.56866 6.39567Z" fill="#6E6E6E"/>
<path d="M9.34877 7.99079C9.36874 8.11542 9.41476 8.23361 9.4462 8.356C9.39171 8.24123 9.35869 8.11745 9.34877 7.99079Z" fill="#6E6E6E"/>
<path d="M9.58533 8.81247C9.525 8.72701 9.47845 8.63261 9.44739 8.53271C9.49476 8.62472 9.55192 8.7125 9.58271 8.81282L9.58533 8.81247Z" fill="#F8F2EA"/>
<path d="M6.23009 13.519C6.19669 13.4288 6.17743 13.334 6.17298 13.2379C6.21401 13.3225 6.2121 13.423 6.23009 13.519Z" fill="#F8F2EA"/>
<path d="M6.58574 6.49603L6.59381 6.51899C6.59022 6.58841 6.58684 6.65748 6.58495 6.72649C6.56372 6.6511 6.56399 6.57127 6.58574 6.49603Z" fill="#6E6E6E"/>
<path d="M6.66743 7.36912C6.65538 7.3751 6.66052 7.38615 6.6595 7.39542C6.61486 7.33641 6.60622 7.2637 6.58362 7.19653C6.61672 7.2514 6.64478 7.30917 6.66743 7.36912Z" fill="#6E6E6E"/>
<path d="M6.21644 13.6726L6.16101 13.4482L6.17234 13.4454L6.22777 13.6698L6.21644 13.6726Z" fill="#6E6E6E"/>
<path d="M7.62881 8.69448C7.64099 8.74377 7.65317 8.79307 7.62211 8.83892L7.62881 8.69448Z" fill="#F8F2EA"/>
<path d="M7.3923 9.48957C7.4147 9.44391 7.44334 9.40159 7.4774 9.36383L7.48582 9.36867C7.46238 9.41352 7.43416 9.45571 7.40164 9.49448C7.39873 9.49249 7.3956 9.49084 7.3923 9.48957Z" fill="#F8F2EA"/>
<path d="M7.24876 9.68521C7.26303 9.64918 7.27893 9.61486 7.32339 9.60237C7.30503 9.63454 7.28176 9.66364 7.25442 9.68862L7.24876 9.68521Z" fill="#F8F2EA"/>
<path d="M12.6407 11.4333C12.624 11.4046 12.6075 11.3758 12.5908 11.3472C12.6049 11.3571 12.6166 11.3699 12.6252 11.3847C12.6338 11.3996 12.6391 11.4162 12.6407 11.4333Z" fill="#6E6E6E"/>
<path d="M6.68485 6.12294C6.71326 6.14903 6.67941 6.16672 6.67645 6.18882C6.67355 6.18683 6.67036 6.1849 6.66775 6.18284C6.67333 6.1628 6.67927 6.14298 6.68492 6.12323L6.68485 6.12294Z" fill="#F8F2EA"/>
<path d="M7.6054 9.13798C7.60389 9.11969 7.61491 9.10704 7.6305 9.08122C7.63196 9.10288 7.62494 9.12426 7.61092 9.14083C7.60899 9.14007 7.60714 9.13911 7.6054 9.13798Z" fill="#F8F2EA"/>
<path d="M7.20047 8.02274C7.21074 8.02678 7.22818 8.03324 7.22076 8.04314C7.21334 8.05305 7.2031 8.03943 7.19728 8.03041C7.19841 8.02773 7.19962 8.02534 7.20047 8.02274Z" fill="#F8F2EA"/>
<path d="M7.52179 9.30962C7.51945 9.31354 7.51662 9.31715 7.51339 9.32037C7.51339 9.32037 7.50847 9.3174 7.50573 9.31598L7.51272 9.30678C7.51597 9.30179 7.51872 9.30201 7.52179 9.30962Z" fill="#F8F2EA"/>
<path d="M11.5521 10.2884C11.5547 10.2989 11.5539 10.3069 11.5404 10.3042C11.5372 10.3035 11.535 10.2983 11.5322 10.2952L11.5528 10.2901L11.5521 10.2884Z" fill="#F8F2EA"/>
<path d="M12.6629 11.4642L12.6627 11.4681L12.6611 11.4644L12.6629 11.4642Z" fill="#6E6E6E"/>
<path d="M7.5321 9.25944C7.53973 9.25756 7.54617 9.25327 7.54104 9.24344C7.54646 9.2484 7.55351 9.25386 7.54544 9.26125C7.54331 9.26357 7.53626 9.26051 7.53167 9.26015L7.5321 9.25944Z" fill="#F8F2EA"/>
<path d="M7.52071 9.27587C7.53341 9.27633 7.53146 9.26722 7.53191 9.25931C7.53437 9.2632 7.54008 9.26809 7.53901 9.27105C7.53608 9.28107 7.5279 9.27829 7.52035 9.27566L7.52071 9.27587Z" fill="#F8F2EA"/>
<path d="M7.52033 9.27665L7.53376 9.2838L7.52804 9.29089C7.52671 9.28554 7.52349 9.28095 7.52111 9.27616L7.52033 9.27665Z" fill="#F8F2EA"/>
<path d="M9.5829 8.81382L9.58586 8.80988C9.58586 8.80988 9.58644 8.81223 9.58669 8.81324L9.5829 8.81382Z" fill="#F8F2EA"/>
<path d="M7.48719 9.34905C7.48834 9.34278 7.48829 9.33293 7.49792 9.33802C7.50755 9.34312 7.49789 9.34879 7.49492 9.35371L7.48719 9.34905Z" fill="#F8F2EA"/>
<path d="M7.47699 9.3634C7.47657 9.36187 7.47647 9.36028 7.47668 9.35872C7.4769 9.35716 7.47743 9.35565 7.47825 9.3543C7.47907 9.35295 7.48015 9.35178 7.48143 9.35086C7.48271 9.34994 7.48417 9.34929 7.48571 9.34895L7.49347 9.35363L7.48538 9.36822L7.47699 9.3634Z" fill="#F8F2EA"/>
<path d="M6.69229 6.1105L6.70717 6.10682L6.7068 6.11257L6.69202 6.10938L6.69229 6.1105Z" fill="#F8F2EA"/>
<path d="M7.4026 9.49398C7.39999 9.49791 7.39595 9.50578 7.39462 9.50522C7.38238 9.50166 7.39028 9.49493 7.39332 9.48909C7.3966 9.49035 7.39971 9.49199 7.4026 9.49398Z" fill="#F8F2EA"/>
<path d="M6.6923 6.11067C6.69756 6.11505 6.70487 6.11923 6.69626 6.12674C6.69457 6.12715 6.68831 6.12481 6.68409 6.12346C6.69198 6.12151 6.69404 6.11772 6.69138 6.1106L6.6923 6.11067Z" fill="#F8F2EA"/>
<path d="M7.36531 9.51712C7.36812 9.52242 7.37764 9.52457 7.37162 9.53416C7.36559 9.54374 7.35918 9.53723 7.35296 9.53876C7.36398 9.53604 7.36718 9.52955 7.36488 9.51903L7.36531 9.51712Z" fill="#F8F2EA"/>
<path d="M7.35346 9.53787L7.36655 9.54367C7.35637 9.55318 7.35743 9.54097 7.35394 9.53746L7.35346 9.53787Z" fill="#F8F2EA"/>
<path d="M7.63549 9.07375L7.63361 9.0815C7.63361 9.0815 7.62964 9.07956 7.62971 9.07867C7.62987 9.07601 7.63029 9.07336 7.63097 9.07078L7.63549 9.07375Z" fill="#F8F2EA"/>
<path d="M7.25393 9.68884C7.25167 9.69299 7.24941 9.69714 7.24679 9.70107C7.24417 9.70501 7.24342 9.69951 7.24173 9.69873L7.24888 9.68531L7.25393 9.68884Z" fill="#F8F2EA"/>
<path d="M7.21541 9.71691L7.22973 9.71338C7.22724 9.72739 7.2197 9.71377 7.21513 9.71698L7.21541 9.71691Z" fill="#F8F2EA"/>
<path d="M7.5931 9.15097L7.60542 9.13773C7.60716 9.13885 7.609 9.1398 7.61092 9.14057C7.60715 9.14959 7.60647 9.16506 7.59091 9.15061L7.5931 9.15097Z" fill="#F8F2EA"/>
<path d="M7.20932 9.73024L7.21197 9.74095C7.21197 9.74095 7.21004 9.74142 7.20964 9.73978C7.20923 9.73813 7.20814 9.73373 7.2074 9.73071L7.20932 9.73024Z" fill="#F8F2EA"/>
<path d="M7.36537 9.5179L7.38213 9.51794L7.37767 9.52652L7.36552 9.51726L7.36537 9.5179Z" fill="#F8F2EA"/>
<path d="M7.59085 9.15084C7.59591 9.15199 7.60246 9.15186 7.60082 9.15974C7.60138 9.162 7.59616 9.16388 7.59348 9.16634C7.5923 9.16155 7.59337 9.1562 7.59303 9.1512L7.59085 9.15084Z" fill="#F8F2EA"/>
<path d="M7.58349 9.19312C7.57891 9.19012 7.57504 9.18636 7.5806 9.18145C7.58617 9.17653 7.58616 9.18007 7.58922 9.17932L7.58204 9.19083L7.58349 9.19312Z" fill="#F8F2EA"/>
<path d="M7.20945 9.73002C7.21734 9.72807 7.21989 9.72386 7.2154 9.71659C7.2187 9.71907 7.22482 9.72204 7.22467 9.72387C7.22352 9.73372 7.21599 9.7311 7.20973 9.72995L7.20945 9.73002Z" fill="#F8F2EA"/>
<path d="M7.58179 9.19231L7.57573 9.20314C7.57532 9.20149 7.57292 9.20004 7.57286 9.1986C7.57356 9.19201 7.5772 9.19024 7.58323 9.19341L7.58179 9.19231Z" fill="#F8F2EA"/>
<path d="M7.55209 9.23276L7.56398 9.22599L7.5627 9.23515L7.55035 9.23172L7.55209 9.23276Z" fill="#F8F2EA"/>
<path d="M7.54098 9.24335C7.54493 9.23999 7.54888 9.23662 7.55248 9.23304L7.55037 9.23177C7.55402 9.23684 7.55991 9.24256 7.55166 9.24789C7.54969 9.24838 7.54463 9.24484 7.54119 9.243L7.54098 9.24335Z" fill="#F8F2EA"/>
</svg>
