<svg width="171" height="169" viewBox="0 0 171 169" fill="none" xmlns="http://www.w3.org/2000/svg">
<g filter="url(#filter0_d_2409_118408)">
<path d="M0.0821533 80.3072C0.377856 59.945 7.21576 42.0164 21.052 26.8507C32.3288 14.4928 46.2852 6.55502 62.5188 2.51715C67.5257 1.27204 72.6145 0.548917 77.7684 0.258005C88.4253 -0.345431 98.7966 1.03765 108.854 4.64164C119.147 8.33041 128.242 13.9508 136.18 21.4315C142.937 27.7966 148.204 35.2307 152.484 43.4328C156.891 51.8809 159.755 60.7745 161.04 70.1951C161.616 74.4191 161.875 78.6614 161.734 82.9171C161.085 102.731 154.163 120.072 140.666 134.67C129.231 147.036 115.159 154.982 98.6396 158.569C93.9017 159.598 89.107 160.243 84.2521 160.35C62.5489 160.827 43.4117 154.084 27.093 139.835C14.1339 128.517 5.911 114.306 2.0652 97.5924C0.872364 92.4125 0.23251 87.1561 0.159003 81.8365C0.15232 81.3545 0.112225 80.874 0.083824 80.3088L0.0821533 80.3072Z" fill="#060000"/>
<path d="M85.0692 152.402C73.8525 152.605 63.391 150.77 53.3589 146.685C46.1618 143.756 39.4375 140.004 33.5852 134.854C23.964 126.39 16.929 116.15 12.4968 104.149C10.5605 98.9093 9.26413 93.5117 8.57416 87.976C7.89254 82.5201 7.68705 77.041 8.43717 71.5868C9.44623 64.2525 11.608 57.2357 14.839 50.5597C21.2108 37.3938 30.6115 26.8744 43.0043 19.068C51.2104 13.8997 60.1416 10.4586 69.7144 8.71479C74.4272 7.85535 79.1802 7.4514 83.9682 7.49629C91.3859 7.5661 98.6715 8.58679 105.715 10.9174C110.62 12.5399 115.187 14.9303 119.511 17.7497C133.543 26.901 143.495 39.3653 149.751 54.7937C152.466 61.488 154.157 68.4416 154.833 75.6363C155.161 79.1106 155.344 82.5933 155.05 86.0726C154.701 90.2052 153.866 94.2597 152.735 98.251C149.377 110.085 143.446 120.483 134.994 129.442C126.158 138.808 115.597 145.543 103.354 149.611C99.6772 150.833 95.8415 151.438 91.9923 151.9C89.5632 152.191 87.1241 152.321 85.0692 152.404V152.402Z" fill="#F8F2EA"/>
<path d="M84.6996 145.986C74.4152 146.171 64.8231 144.499 55.6247 140.779C49.0258 138.111 42.8603 134.694 37.4945 130.003C28.6729 122.293 22.2225 112.967 18.1587 102.036C16.3833 97.2638 15.1947 92.3475 14.562 87.3055C13.9371 82.3362 13.7487 77.3457 14.4364 72.3779C15.3616 65.6977 17.3438 59.3067 20.3062 53.226C26.1485 41.2343 34.7679 31.653 46.1307 24.5428C53.6549 19.8354 61.8438 16.7012 70.6209 15.1129C74.9421 14.3301 79.3001 13.9622 83.6902 14.0031C90.4913 14.0667 97.1715 14.9963 103.629 17.1191C108.127 18.5969 112.315 20.7742 116.279 23.3421C129.145 31.6772 138.269 43.03 144.006 57.0824C146.495 63.1797 148.045 69.5132 148.666 76.0663C148.966 79.2308 149.134 82.4028 148.865 85.5719C148.545 89.3359 147.779 93.0288 146.742 96.6642C143.663 107.443 138.225 116.914 130.476 125.073C122.374 133.604 112.69 139.739 101.465 143.444C98.0936 144.557 94.5766 145.108 91.0474 145.529C88.8202 145.794 86.5837 145.912 84.6996 145.988V145.986Z" fill="#181818"/>
<path d="M22.542 31.8794C24.2477 29.3227 26.1773 26.9355 28.2388 24.6614C29.3832 23.3997 30.7448 22.3524 32.1465 21.207C29.1126 25.0088 25.8181 28.4449 22.684 32.0207C22.5604 32.0489 22.4952 32.0207 22.542 31.8794Z" fill="#F8F2EA"/>
<path d="M129.559 23.7059C133.253 26.6998 136.606 30.0312 139.583 33.7333C139.608 33.8546 139.573 33.9161 139.438 33.8713C136.255 30.3737 132.83 27.1154 129.402 23.8605C129.379 23.7342 129.422 23.6727 129.558 23.7059H129.559Z" fill="#F8F2EA"/>
<path d="M159.931 75.3256C160.333 78.4342 160.544 81.5511 160.238 84.6796C160.125 85.8533 159.944 87.0202 159.794 88.1905C159.445 88.0276 159.677 87.76 159.673 87.5339C159.859 84.6281 160.029 81.7223 159.929 78.8082C159.891 77.6927 159.84 76.5773 159.794 75.4619C159.749 75.3272 159.807 75.294 159.931 75.3239V75.3256Z" fill="#F8F2EA"/>
<path d="M90.5802 154.779C88.8645 155 87.1504 155.228 85.433 155.441C83.8192 155.642 82.2003 155.81 80.5882 156.033C80.1622 156.092 79.7562 156.026 79.3419 156.016C79.2199 156.013 78.991 156.121 79.0194 155.846C79.0378 155.672 79.1815 155.604 79.3536 155.592C79.9684 155.552 80.5815 155.489 81.198 155.467C83.9695 155.371 86.7211 155.055 89.4693 154.704C89.8351 154.658 90.2043 154.6 90.5802 154.778V154.779Z" fill="#F8F2EA"/>
<path d="M50.8658 13.3525C54.1804 11.5023 57.804 10.4617 61.4042 9.36285C61.5479 9.31464 61.583 9.37947 61.5579 9.50913C57.9994 10.7293 54.456 11.9944 51.0045 13.4938C50.8675 13.5337 50.8341 13.4755 50.8658 13.3525Z" fill="#F8F2EA"/>
<path d="M125.824 140.821C128.719 138.297 131.683 135.847 134.366 133.084C133.718 134.344 127.647 139.873 125.824 140.821Z" fill="#F8F2EA"/>
<path d="M138.775 26.6914C140.042 27.6173 144.905 33.2993 145.583 34.5909C143.137 32.1107 141.214 29.1816 138.775 26.6914Z" fill="#F8F2EA"/>
<path d="M126.213 19.0008C124.459 17.9868 122.707 16.9711 120.953 15.957C122.886 16.6602 124.93 17.1656 126.213 19.0008Z" fill="#F8F2EA"/>
<path d="M22.1412 36.0804C23.3423 34.3598 24.6989 32.7573 26.0454 31.1498C26.139 31.0368 26.2192 30.7708 26.4414 30.937C26.687 31.1215 26.4698 31.2695 26.3462 31.4158C24.9913 33.0183 23.6364 34.6225 22.2832 36.2266C22.1645 36.2466 22.0977 36.215 22.1428 36.0804H22.1412Z" fill="#F8F2EA"/>
<path d="M158.921 94.5639C158.572 96.8746 158.03 99.1404 157.297 101.361C157.257 101.41 157.215 101.411 157.17 101.366C157.756 98.9675 158.353 96.5721 158.775 94.1367C159.091 94.1883 158.912 94.4077 158.921 94.5623V94.5639Z" fill="#F8F2EA"/>
<path d="M139.44 33.8709C139.489 33.8243 139.537 33.7795 139.586 33.7329C141.206 35.5848 142.619 37.5879 143.961 39.6443C144.006 39.7739 143.944 39.7955 143.834 39.7689C142.481 37.7209 140.945 35.8075 139.44 33.8709Z" fill="#F8F2EA"/>
<path d="M158.921 94.5634C158.856 94.4271 158.95 94.2359 158.776 94.1378C159.075 91.9368 159.374 89.7359 159.673 87.5349C159.757 87.746 159.628 87.9954 159.793 88.1915C159.503 90.316 159.212 92.4389 158.923 94.5634H158.921Z" fill="#F8F2EA"/>
<path d="M156.522 103.874C156.157 105.705 155.384 107.397 154.739 109.132C154.625 109.438 154.494 109.737 154.37 110.04C154.26 110.055 154.181 110.043 154.255 109.904C155.005 107.867 155.793 105.843 156.418 103.763C156.468 103.745 156.518 103.728 156.552 103.786C156.565 103.809 156.547 103.843 156.523 103.874H156.522Z" fill="#F8F2EA"/>
<path d="M157.669 59.6326C158.285 61.5393 158.878 63.4527 158.94 65.4741C158.516 63.5275 158.093 61.5809 157.669 59.6326Z" fill="#F8F2EA"/>
<path d="M77.5725 5.97524C79.016 5.8356 80.4527 5.60952 81.9028 5.57129C81.9095 5.65108 81.9179 5.72921 81.9246 5.80901C80.5195 5.91207 79.1145 6.01514 77.7079 6.1182C77.5742 6.15311 77.5358 6.09826 77.5709 5.97358L77.5725 5.97524Z" fill="#F8F2EA"/>
<path d="M6.04386 80.2258V84.154C5.97388 84.154 5.90391 84.1507 5.83394 84.149C5.53739 82.736 6.05718 81.3496 6.04386 80.2258Z" fill="#F8F2EA"/>
<path d="M10.1562 56.2312C9.89227 56.9461 9.62163 57.6609 9.36602 58.379C9.2992 58.5669 9.21901 58.7181 8.99848 58.63C8.71447 58.5153 8.92999 58.3524 8.99347 58.2228C9.31924 57.5545 9.65337 56.8929 9.98583 56.2279C10.0443 56.1731 10.1011 56.1747 10.1579 56.2329L10.1562 56.2312Z" fill="#F8F2EA"/>
<path d="M65.1132 7.38468C63.8302 7.70219 62.5488 8.0197 61.2657 8.33887C62.4235 7.69554 63.6999 7.47278 64.9762 7.2467C65.1065 7.21013 65.145 7.26332 65.1132 7.38634V7.38468Z" fill="#F8F2EA"/>
<path d="M8.94929 100.847C8.3345 99.6136 8.16075 98.2571 7.98199 96.9006C8.30443 98.2156 8.62686 99.5321 8.94929 100.847Z" fill="#F8F2EA"/>
<path d="M22.1405 36.0798C22.1873 36.128 22.2341 36.1779 22.2809 36.2261C21.6945 37.029 21.1081 37.8336 20.5217 38.6365C20.4716 38.6033 20.4231 38.57 20.373 38.5368C20.9393 37.704 21.4773 36.8512 22.1405 36.0798Z" fill="#F8F2EA"/>
<path d="M32.8049 137.89C33.5901 138.51 34.3753 139.13 35.1605 139.75C33.9326 139.186 33.1725 138.583 32.8049 137.89Z" fill="#F8F2EA"/>
<path d="M93.9372 4.81126C93.0451 4.74477 92.1513 4.67661 91.194 4.60513C92.178 4.09312 93.0535 4.6949 93.9539 4.64835C93.9472 4.70155 93.9422 4.7564 93.9355 4.8096L93.9372 4.81126Z" fill="#F8F2EA"/>
<path d="M110.304 11.4624C111.335 11.5937 112.229 11.9877 113.042 12.5795C112.13 12.2071 111.216 11.8348 110.304 11.4624Z" fill="#F8F2EA"/>
<path d="M61.558 9.5094C61.5062 9.46119 61.4561 9.41132 61.4043 9.36311C62.1527 9.02067 62.953 8.87272 63.7398 8.67822C63.7566 8.73142 63.7733 8.78461 63.79 8.83781C63.0449 9.06223 62.3014 9.28498 61.5563 9.5094H61.558Z" fill="#F8F2EA"/>
<path d="M98.4641 154.141C99.1006 153.953 99.7372 153.764 100.374 153.576C99.9944 154.231 99.2961 154.081 98.7398 154.284C98.6028 154.32 98.4474 154.395 98.4641 154.141Z" fill="#F8F2EA"/>
<path d="M86.1398 156.949C87.1606 156.93 88.168 156.643 89.1988 156.836C88.178 156.854 87.174 157.185 86.1398 156.949Z" fill="#F8F2EA"/>
<path d="M30.5098 133.868C31.0895 134.41 31.6709 134.954 32.2506 135.496C32.2139 135.534 32.1754 135.574 32.1387 135.612C31.4972 135.132 30.9358 134.57 30.5098 133.868Z" fill="#F8F2EA"/>
<path d="M34.0045 137.2C33.388 136.779 32.83 136.295 32.3589 135.715C33.0038 136.099 33.5668 136.581 34.098 137.103C34.1114 137.177 34.0796 137.21 34.0045 137.2Z" fill="#F8F2EA"/>
<path d="M12.3198 111.806C11.9122 111.142 11.6449 110.426 11.5396 109.643C11.8336 110.334 12.1277 111.028 12.4217 111.719C12.4217 111.787 12.3883 111.816 12.3215 111.807L12.3198 111.806Z" fill="#F8F2EA"/>
<path d="M129.56 23.7055C129.508 23.7571 129.456 23.8086 129.405 23.8601C129.005 23.4977 128.606 23.1353 128.208 22.7729C128.761 22.9541 129.187 23.2949 129.562 23.7055H129.56Z" fill="#F8F2EA"/>
<path d="M143.834 39.769C143.875 39.7274 143.919 39.6858 143.961 39.6443C144.397 40.1264 144.696 40.6882 144.905 41.3133C144.547 40.798 144.191 40.2826 143.834 39.769Z" fill="#F8F2EA"/>
<path d="M65.1134 7.38473C65.0683 7.33818 65.0215 7.29163 64.9764 7.24509C65.6229 7.03231 66.2795 6.8694 66.9644 6.86108C66.9795 6.87771 66.9928 6.89599 67.0079 6.91262C66.4014 7.17195 65.7499 7.24509 65.1134 7.38306V7.38473Z" fill="#F8F2EA"/>
<path d="M43.6875 143.851C44.1653 144.128 44.6448 144.406 45.1226 144.682C44.5429 144.589 44.055 144.319 43.6875 143.851Z" fill="#F8F2EA"/>
<path d="M98.4641 154.141C98.4975 154.3 98.6479 154.236 98.7397 154.284C98.1684 154.417 97.5987 154.551 97.0273 154.684C97.4651 154.369 97.9596 154.239 98.4641 154.141Z" fill="#F8F2EA"/>
<path d="M159.929 75.3252C159.885 75.3718 159.84 75.4166 159.793 75.4632C159.616 74.9794 159.665 74.4857 159.785 73.9854L159.929 75.3252Z" fill="#F8F2EA"/>
<path d="M36.0379 138.787C35.5969 138.526 35.1775 138.237 34.8267 137.861C34.8234 137.796 34.8568 137.773 34.9186 137.788C35.3563 137.978 35.667 138.335 36.0346 138.618C36.093 138.672 36.0947 138.729 36.0379 138.787Z" fill="#F8F2EA"/>
<path d="M50.866 13.3527C50.9128 13.3993 50.9579 13.4475 51.0046 13.494C50.6521 13.7384 50.2612 13.8913 49.8352 13.9578C50.1376 13.6802 50.4784 13.4774 50.8643 13.3511L50.866 13.3527Z" fill="#F8F2EA"/>
<path d="M77.5725 5.97485C77.6176 6.02306 77.6644 6.07127 77.7095 6.11948C77.2702 6.34223 76.8124 6.23418 76.348 6.13111C76.7556 6.07958 77.1649 6.02639 77.5725 5.97485Z" fill="#F8F2EA"/>
<path d="M10.1555 56.2309C10.0987 56.2309 10.0403 56.2276 9.98346 56.2259C10.1522 55.8552 10.3209 55.4845 10.4897 55.1155C10.478 55.5277 10.4111 55.9134 10.1555 56.2309Z" fill="#F8F2EA"/>
<path d="M12.9691 49.0782C13.1712 48.6676 13.3733 48.2553 13.5755 47.8447C13.6256 47.868 13.6774 47.8913 13.7275 47.9145C13.5354 48.3301 13.4151 48.779 12.9691 49.0782Z" fill="#F8F2EA"/>
<path d="M155.349 61.3547C155.251 60.9624 155.152 60.5701 155.054 60.1777C155.343 60.4686 155.466 60.8144 155.471 61.2001C155.535 61.3331 155.471 61.368 155.348 61.3547H155.349Z" fill="#F8F2EA"/>
<path d="M154.253 109.904C154.292 109.949 154.33 109.995 154.369 110.04C154.245 110.388 154.106 110.727 153.772 111.096C153.896 110.604 154.045 110.243 154.253 109.904Z" fill="#F8F2EA"/>
<path d="M22.5418 31.8794C22.5886 31.9259 22.637 31.9741 22.6838 32.0207C22.5251 32.3798 22.2378 32.6341 21.9437 32.8901C22.0623 32.5044 22.2528 32.1637 22.5418 31.8794Z" fill="#F8F2EA"/>
<path d="M12.4197 111.719C12.6302 112.085 12.829 112.452 12.8724 112.888C12.6185 112.562 12.4113 112.215 12.3195 111.807C12.3529 111.777 12.3863 111.749 12.4197 111.719Z" fill="#F8F2EA"/>
<path d="M36.0375 138.787C36.0375 138.731 36.0359 138.674 36.0342 138.618C36.365 138.807 36.6674 139.032 36.8962 139.354C36.5771 139.216 36.2564 139.083 36.0375 138.789V138.787Z" fill="#F8F2EA"/>
<path d="M154.285 57.0062C154.028 56.7252 153.836 56.421 153.904 55.894C154.063 56.3578 154.175 56.682 154.285 57.0062Z" fill="#F8F2EA"/>
<path d="M155.349 61.3548C155.391 61.3033 155.431 61.2517 155.473 61.2002C155.639 61.5094 155.687 61.8435 155.636 62.2026C155.541 61.92 155.444 61.6374 155.349 61.3548Z" fill="#F8F2EA"/>
<path d="M157.17 101.366C157.213 101.384 157.255 101.381 157.296 101.361C157.201 101.663 157.106 101.967 156.955 102.451C156.902 101.927 156.988 101.637 157.17 101.367V101.366Z" fill="#F8F2EA"/>
<path d="M66.964 6.86288C67.3115 6.68833 67.6757 6.61187 68.2019 6.67337C67.7158 6.77145 67.3833 6.93935 67.0074 6.91441C66.9924 6.89779 66.979 6.87951 66.964 6.86288Z" fill="#F8F2EA"/>
<path d="M34.8263 137.862C34.5523 137.64 34.2783 137.421 34.0043 137.2C34.0361 137.168 34.0661 137.135 34.0979 137.104C34.4103 137.286 34.686 137.512 34.9182 137.788C34.8781 137.8 34.848 137.825 34.8263 137.862Z" fill="#F8F2EA"/>
<path d="M156.522 103.874C156.487 103.838 156.452 103.8 156.417 103.763C156.5 103.474 156.584 103.185 156.667 102.895C156.712 103.241 156.725 103.578 156.52 103.874H156.522Z" fill="#F8F2EA"/>
</g>
<path d="M57.7506 124.806C50.5603 124.806 44.2944 119.954 42.7777 113.254C41.8432 109.128 42.8875 105.441 45.6502 102.254C48.5202 98.9349 52.2685 97.4029 56.5556 97.2804C61.9585 97.1246 66.4524 99.0677 69.4041 103.768C71.8578 107.678 72.0315 111.886 70.2926 116.106C68.3827 120.746 64.9102 123.595 59.9567 124.576C59.2287 124.712 58.4909 124.789 57.7506 124.806ZM56.7292 123.84C57.449 123.824 58.1667 123.756 58.8766 123.636C67.4252 122.147 70.8978 113.346 69.5292 107.443C68.564 103.273 65.9264 100.528 62.0044 98.9988C58.0825 97.4693 54.1963 97.9238 50.5144 99.7443C46.5745 101.693 44.2816 104.953 43.7224 109.342C43.3624 112.151 44.0671 114.778 45.5251 117.186C48.0708 121.389 51.837 123.572 56.7241 123.84H56.7292Z" fill="#F8F2EA"/>
<path d="M70.2747 80.7729C70.4739 87.8278 65.2753 94.6938 57.3318 95.2223C50.0982 95.7023 43.3062 90.7871 41.6772 83.745C40.6916 79.4758 41.8483 75.7019 44.7617 72.4617C47.2895 69.653 50.5348 68.2564 54.2091 67.8146C58.0697 67.3499 61.6572 68.1951 64.8131 70.4727C68.107 72.8498 69.9198 76.1258 70.2237 80.1984C70.2441 80.3899 70.2594 80.5814 70.2747 80.7729ZM69.0696 80.2316C69.0944 78.2528 68.6101 76.3009 67.663 74.5632C66.716 72.8256 65.338 71.3607 63.6616 70.3092C60.2554 68.1951 56.6143 67.7738 52.7639 68.7491C49.6666 69.533 47.0801 71.1008 45.2034 73.718C40.9699 79.6213 43.0228 86.6175 47.3227 90.4424C51.2038 93.8971 55.6721 94.9185 60.6205 93.0596C66.746 90.7565 69.0977 84.4804 69.0696 80.2316Z" fill="#F8F2EA"/>
<path d="M70.239 51.177C70.2083 58.1809 66.5213 63.5021 60.8835 65.4171C56.1598 67.0231 51.717 66.1678 47.6393 63.405C44.5565 61.3672 42.3993 58.1984 41.6338 54.5832C40.7273 50.531 41.741 46.9078 44.4144 43.757C47.2231 40.4376 50.9126 38.9388 55.1614 38.6656C58.4998 38.4094 61.8234 39.322 64.5629 41.247C68.3418 43.877 70.1471 47.5819 70.239 51.177ZM68.6278 51.177C68.6278 50.794 68.6457 50.411 68.6278 50.028C68.607 49.6979 68.5643 49.3695 68.5001 49.045C67.6243 44.4898 64.8616 41.5483 60.6052 39.9525C57.1326 38.6503 53.6779 39.041 50.2998 40.3585C47.9915 41.2531 46.0101 42.829 44.619 44.8769C43.2279 46.9247 42.4931 49.3475 42.5121 51.823C42.5657 55.4794 44.0186 58.6073 46.6486 61.1223C51.099 65.3788 57.0764 66.0478 62.0376 63.0986C66.5213 60.4278 68.3342 56.1918 68.6278 51.1745V51.177Z" fill="#F8F2EA"/>
<path d="M98.0756 83.5816C92.1604 83.5816 86.2451 83.5816 80.3299 83.5816C78.6217 83.5816 76.9135 83.4999 75.2053 83.4692C75.0039 83.471 74.8048 83.4258 74.624 83.3371C74.4431 83.2485 74.2855 83.1188 74.1635 82.9585C73.1651 81.7457 72.8434 80.4358 73.6196 78.9906C74.0614 78.1633 74.8963 77.9974 75.7134 77.9463C77.105 77.8595 78.5016 77.8595 79.8958 77.8212C80.7134 77.8338 81.5309 77.7878 82.3419 77.6833C82.9266 77.5863 83.5522 77.7395 84.1599 77.7369C90.0198 77.7037 95.8823 77.6961 101.742 77.6118C107.104 77.5327 112.454 77.5122 117.808 77.5225C118.855 77.5225 119.902 77.5608 120.946 77.6067C122.174 77.6603 123.668 79.1387 123.622 80.6197C123.619 81.3337 123.337 82.0184 122.836 82.5271C122.335 83.0359 121.655 83.3282 120.941 83.3415C118.868 83.413 116.792 83.4616 114.716 83.4692C109.17 83.4845 103.622 83.4692 98.0756 83.4692V83.5816ZM104.771 78.0331C106.545 78.0893 108.315 78.0331 110.087 78.0331V77.8978H104.824C101.824 77.8978 98.8238 77.8544 95.8236 77.8621C91.3782 77.8621 86.9303 77.908 82.4823 77.931C80.8431 77.931 79.2038 77.9438 77.5646 77.9514C77.4241 77.9055 77.2939 77.9514 77.3092 78.0944C77.3092 78.1659 77.488 78.148 77.585 78.0944L104.771 78.0331ZM77.9986 78.3421V78.4391C77.5813 78.4685 77.1623 78.4685 76.7449 78.4391C75.9483 78.3268 75.4198 78.7251 74.9397 79.269C74.6724 79.5376 74.4918 79.8802 74.4213 80.2525C74.3507 80.6249 74.3935 81.0098 74.544 81.3576C74.9065 82.2053 75.6444 82.8743 76.4998 82.91C78.0446 82.9739 79.6021 82.9815 81.152 82.933C83.7309 82.8539 86.3098 82.7339 88.8887 82.6777C93.929 82.5832 98.9693 82.7339 104.012 82.7722C109.558 82.813 115.104 82.6445 120.65 82.5475C121.051 82.5273 121.445 82.4302 121.809 82.2615C122.631 81.9193 123.303 81.018 123.277 80.3235C123.249 79.5268 122.631 78.8451 121.745 78.4544C120.859 78.0638 119.884 78.1991 118.96 78.2144C116.151 78.2451 113.342 78.2553 110.533 78.2604C105.822 78.274 101.11 78.2902 96.3981 78.3089C94.1486 78.3089 91.8991 78.3395 89.6496 78.3421C85.7668 78.3455 81.8831 78.3455 77.9986 78.3421ZM110.378 77.8748L110.355 77.9029H110.393L110.378 77.8748Z" fill="#F8F2EA"/>
<path d="M99.4161 107.226C105.764 107.118 112.111 107.019 118.459 107.062C119.68 107.062 120.9 107.093 122.118 107.159C123.461 107.233 124.728 108.732 124.72 110.177C124.721 110.875 124.452 111.545 123.969 112.049C123.487 112.552 122.828 112.848 122.131 112.876C119.971 112.955 117.808 112.978 115.645 113.011C105.759 113.162 95.8695 113.175 85.9804 113.154C82.7708 113.154 79.5638 113.111 76.3568 113.004C76.122 113.005 75.8904 112.949 75.6821 112.84C75.4739 112.732 75.2953 112.574 75.1619 112.381C74.3269 111.252 73.9975 110.083 74.6308 108.719C75.0597 107.79 75.8742 107.57 76.7143 107.501C78.1033 107.386 79.5 107.384 80.8941 107.366C85.7795 107.313 90.6624 107.266 95.5427 107.226C96.8347 107.218 98.1242 107.226 99.4161 107.226ZM87.8239 107.971C92.374 107.971 96.9241 107.958 101.474 107.935C104.559 107.935 107.643 107.882 110.727 107.854H112.9V107.792H110.73C109.709 107.792 108.675 107.792 107.646 107.792L87.8163 107.769H77.9859V107.986H80.3043L87.8239 107.971ZM99.2093 108.129V108.234C94.7103 108.234 90.2113 108.234 85.7123 108.234C82.9751 108.234 80.2354 108.316 77.4982 108.275C76.5356 108.262 75.9662 108.717 75.4759 109.409C75.2687 109.683 75.145 110.011 75.1197 110.354C75.0943 110.697 75.1684 111.04 75.3329 111.342C75.744 112.108 76.413 112.718 77.2658 112.777C78.7811 112.864 80.3001 112.868 81.8159 112.789C85.6663 112.641 89.5194 112.501 93.3724 112.519C97.3658 112.537 101.359 112.626 105.355 112.651C110.237 112.682 115.119 112.542 120.001 112.442C120.795 112.424 121.605 112.496 122.381 112.2C123.504 111.773 124.202 110.703 123.928 109.748C123.655 108.793 122.491 108.068 121.332 108.076C118.012 108.091 114.672 108.119 111.343 108.124C107.298 108.137 103.254 108.129 99.2093 108.129Z" fill="#F8F2EA"/>
<path d="M77.7867 48.8841C77.9501 48.6977 78.1723 48.759 78.374 48.759C85.1404 48.6951 91.9068 48.6492 98.6757 48.5751C104.972 48.5036 111.269 48.4143 117.571 48.4449C118.668 48.4449 119.766 48.5113 120.864 48.519C121.962 48.5266 123.602 49.8824 123.591 51.4911C123.6 51.8502 123.538 52.2076 123.408 52.5425C123.278 52.8773 123.082 53.1829 122.832 53.4414C122.583 53.7 122.285 53.9063 121.955 54.0484C121.625 54.1905 121.27 54.2655 120.91 54.2691C117.984 54.3483 115.053 54.4121 112.124 54.4453C102.617 54.5491 93.1103 54.5823 83.6033 54.5449C80.7793 54.5449 77.9553 54.4325 75.1287 54.3789C74.9904 54.3906 74.8511 54.374 74.7194 54.3301C74.5877 54.2862 74.4663 54.216 74.3627 54.1236C73.0528 52.7243 72.7745 51.3711 73.6988 49.7548C74.0129 49.2084 74.6231 49.0781 75.1695 48.9505C75.7826 48.7794 76.4307 48.7794 77.0437 48.9505C77.0182 48.9735 76.9339 48.9505 76.9875 49.0245C76.9875 49.0245 77.0182 49.0373 77.036 49.0373C77.3144 49.0373 77.5952 49.0373 77.8735 49.0373C86.6979 49.0118 95.5249 49.0833 104.352 48.9556C106.093 48.93 107.837 48.9249 109.581 48.9096H111.825V48.856H106.609C102.651 48.856 98.6936 48.8228 94.7359 48.8305C89.0853 48.8305 83.4373 48.8611 77.7867 48.8841ZM93.0047 49.1956V49.2594C91.7842 49.2594 90.5637 49.2594 89.3432 49.2594C85.0204 49.2875 80.6976 49.3488 76.3747 49.3284C76.0037 49.3209 75.6365 49.4035 75.3043 49.5689C74.9722 49.7343 74.685 49.9777 74.4674 50.2782C74.2189 50.5498 74.0579 50.8897 74.005 51.254C73.9522 51.6182 74.0101 51.99 74.1712 52.3209C74.5567 53.1329 75.2513 53.7508 76.1143 53.8172C77.6285 53.9116 79.147 53.9168 80.6618 53.8325C84.2518 53.6946 87.8393 53.5567 91.4293 53.5644C95.5147 53.5644 99.6256 53.6589 103.721 53.6921C108.797 53.7329 113.868 53.5823 118.942 53.4852C119.733 53.4699 120.543 53.5337 121.316 53.2299C122.422 52.7856 123.076 51.6979 122.772 50.7302C122.496 49.8544 121.306 49.119 120.175 49.1241L110.156 49.1803C108.85 49.1803 107.544 49.1803 106.239 49.1803L93.0047 49.1956Z" fill="#F8F2EA"/>
<path d="M109.573 48.9044C107.829 48.9197 106.086 48.9248 104.344 48.9503C95.5172 49.078 86.6903 49.0065 77.8659 49.032C77.5876 49.032 77.3067 49.032 77.0284 49.032C77.0105 49.032 76.9875 49.032 76.9799 49.0193C76.9262 48.9427 77.0105 48.9682 77.036 48.9452C77.287 48.9863 77.5441 48.9679 77.7867 48.8916C83.4373 48.8686 89.0853 48.838 94.7359 48.8303C98.6936 48.8303 102.651 48.8456 106.609 48.8559H109.591L109.561 48.8763L109.573 48.9044Z" fill="#050505"/>
<path d="M56.7241 123.84C51.837 123.572 48.0708 121.389 45.52 117.186C44.062 114.778 43.3573 112.161 43.7173 109.342C44.2765 104.953 46.5694 101.682 50.5092 99.7443C54.1912 97.9238 58.0723 97.4642 61.9993 98.9988C65.9264 100.533 68.5589 103.273 69.5241 107.443C70.8927 113.346 67.4201 122.147 58.8715 123.636C58.1616 123.756 57.4439 123.824 56.7241 123.84ZM50.8999 118.685C50.8284 118.772 50.6624 118.879 50.7722 118.969C50.882 119.058 50.9382 118.887 50.9918 118.795C51.0531 118.746 51.1323 118.675 51.0684 118.606C51.0046 118.537 50.951 118.642 50.8999 118.685ZM49.3321 119.058C50.9893 116.063 52.1817 115.082 55.1129 114.436C58.1923 113.755 60.9142 114.436 63.1662 116.716C63.4589 117.014 63.7327 117.329 63.9858 117.661C64.2667 118.029 64.4403 117.917 64.6855 117.608C66.6924 115.11 67.5937 112.263 67.2694 109.084C66.9554 106.02 65.5127 103.579 62.87 101.973C59.1523 99.7188 55.3581 99.8746 51.6761 102.03C46.2196 105.224 44.994 111.071 47.0801 115.887C47.5896 117.096 48.3584 118.178 49.3321 119.058ZM56.7369 121.509C58.7438 121.575 60.7278 120.728 62.5943 119.489C63.0105 119.211 62.8956 118.992 62.63 118.785C61.2665 117.715 59.8647 116.696 58.034 116.648C55.2534 116.576 52.7562 117.12 51.2701 119.829C51.094 120.146 51.0148 120.276 51.4387 120.449C53.1113 121.163 54.9133 121.524 56.7318 121.509H56.7369ZM58.823 115.968C60.5797 116.387 62.0632 117.204 63.0692 118.759C63.1228 118.843 63.1432 119.032 63.3245 118.91C63.374 118.873 63.4082 118.819 63.4209 118.758C63.4336 118.697 63.4238 118.634 63.3935 118.58C63.3498 118.49 63.2968 118.404 63.2351 118.325C62.1423 116.798 60.549 116.247 58.8178 115.968H58.823ZM45.6349 109.125C45.957 107.998 46.3624 106.896 46.8477 105.829C46.1642 106.804 45.7462 107.94 45.6349 109.125ZM45.5021 109.708C45.387 110.058 45.3772 110.434 45.474 110.79C45.4613 110.425 45.6936 110.08 45.5021 109.708ZM50.7237 119.063C50.5981 119.134 50.4935 119.236 50.4204 119.361C50.3473 119.485 50.3084 119.626 50.3075 119.77C50.422 119.688 50.5181 119.582 50.5898 119.46C50.6614 119.339 50.707 119.203 50.7237 119.063ZM51.2497 118.402C51.2497 118.402 51.2293 118.374 51.2191 118.371C51.2089 118.368 51.1986 118.389 51.1884 118.399C51.1782 118.409 51.2063 118.427 51.2165 118.427C51.2267 118.427 51.2369 118.412 51.2523 118.402H51.2497Z" fill="#050505"/>
<path d="M69.0696 80.2316C69.0977 84.4804 66.746 90.7565 60.6205 93.0596C55.6721 94.9185 51.2038 93.8971 47.3227 90.4424C43.0228 86.6124 40.9699 79.6213 45.2034 73.718C47.0801 71.1008 49.6666 69.533 52.7639 68.7492C56.6143 67.7738 60.2554 68.1951 63.6616 70.3093C65.3381 71.3607 66.716 72.8256 67.663 74.5633C68.6101 76.3009 69.0945 78.2528 69.0696 80.2316ZM50.2769 88.913C50.3535 88.8594 50.4173 88.7777 50.3382 88.7062C50.259 88.6347 50.2207 88.7291 50.1977 88.7981C50.1748 88.867 50.0905 88.8926 50.1569 88.9564C50.1697 88.9641 50.2309 88.9232 50.2769 88.9079V88.913ZM49.9782 89.1045C49.8458 89.2144 49.7421 89.3547 49.6758 89.5135C49.6096 89.6722 49.5828 89.8447 49.5977 90.016C49.8096 89.6611 49.9501 89.4288 50.088 89.1939C50.1211 89.1402 50.1901 89.0841 50.1135 89.0253C50.0369 88.9666 50.0114 89.0483 49.9756 89.0994L49.9782 89.1045ZM44.8715 79.9124C45.0374 78.4493 45.6017 77.1037 46.2324 75.7964C45.4179 76.8458 44.9787 78.0944 44.7412 79.9431C44.5855 80.2699 44.7055 80.5967 44.754 80.9261C44.7897 80.5839 44.828 80.2444 44.8689 79.9073L44.8715 79.9124ZM48.6223 89.227C49.7254 86.6737 51.5893 85.1596 54.2397 84.5851C57.3573 83.9084 60.1124 84.5187 62.4104 86.8141C62.7293 87.1341 63.0262 87.4753 63.299 87.8355C63.5339 88.1419 63.6897 88.0448 63.8863 87.8074C64.4179 87.1807 64.8763 86.4954 65.2523 85.7647C66.8431 82.6088 67.1877 79.3481 65.6813 76.0977C63.6897 71.803 58.9455 69.6505 54.2167 70.8123C48.1729 72.2958 43.8731 78.0612 45.9158 84.8327C46.4103 86.5104 47.3437 88.0257 48.6198 89.2219L48.6223 89.227ZM50.3458 90.3761C50.3903 90.4129 50.4382 90.4454 50.4888 90.4731C54.398 92.1736 58.1795 92.1557 61.7849 89.656C62.2598 89.3266 62.2828 89.2245 61.8334 88.8594C60.2018 87.5291 58.4272 86.5613 56.216 86.7503C53.6473 86.9571 51.454 87.7767 50.3433 90.3709L50.3458 90.3761ZM58.5166 86.2703C60.0659 86.5958 61.4245 87.5187 62.2981 88.8389C62.3594 88.9283 62.39 89.1632 62.5815 89.0355C62.7347 88.9309 62.7041 88.7623 62.6096 88.6168C62.5406 88.5172 62.4768 88.4151 62.4028 88.3181C61.6061 87.2533 60.4929 86.6865 59.2545 86.3162C59.0298 86.2473 58.8076 86.1171 58.5115 86.2652L58.5166 86.2703Z" fill="#050505"/>
<path d="M68.6279 51.1743C68.3342 56.1916 66.5213 60.4276 62.0326 63.0857C57.0714 66.045 51.094 65.3837 46.6563 61.1196C44.0263 58.6046 42.5709 55.4767 42.5198 51.8203C42.5008 49.3471 43.2343 46.9266 44.6229 44.8799C46.0115 42.8332 47.9896 41.2572 50.2948 40.3609C53.6729 39.0433 57.1276 38.6527 60.6001 39.9549C64.8566 41.5507 67.6193 44.4922 68.4951 49.0474C68.5593 49.3719 68.6019 49.7003 68.6228 50.0304C68.6457 50.4083 68.6279 50.7913 68.6279 51.1743ZM49.6258 59.8812C49.6567 59.9081 49.69 59.9321 49.7254 59.9527C49.7254 59.9527 49.7586 59.9119 49.7739 59.8914H49.6411V60.037L49.7075 59.9808L49.6258 59.8812ZM45.8596 46.7749L45.8877 46.5961C45.863 46.6145 45.8399 46.6351 45.8188 46.6574C45.7702 46.7238 45.783 46.7723 45.8673 46.7902C45.8417 46.7519 45.8239 46.6906 45.7651 46.7391C45.7064 46.7876 45.7447 46.7979 45.7371 46.8259L45.8596 46.7749ZM44.3582 50.9777C44.1438 51.233 44.3021 51.5267 44.3582 51.8075C44.3863 51.5394 44.417 51.2688 44.4476 51.0007C44.6477 49.589 45.079 48.2199 45.7243 46.9485C44.971 47.8115 44.3991 49.5657 44.3582 50.9777ZM48.173 60.1034C48.2044 60.0743 48.2334 60.0427 48.2598 60.0089C48.3108 59.917 48.3593 59.8251 48.4053 59.7306C48.8851 58.6801 49.6039 57.7564 50.5044 57.0333C51.4048 56.3102 52.4619 55.8077 53.5912 55.5661C56.7675 54.8001 59.6018 55.3669 61.9764 57.7083C62.2924 58.0303 62.5883 58.3714 62.8624 58.7297C63.0999 59.031 63.2709 58.985 63.5033 58.7092C64.4112 57.6292 65.1061 56.3867 65.5511 55.0477C66.7026 51.4143 66.4703 47.9392 63.9271 44.9518C61.2946 41.8597 57.8246 40.8664 53.918 41.732C48.3976 42.9448 43.6893 48.2022 45.3081 55.0937C45.7428 57.0116 46.7404 58.756 48.173 60.1034ZM55.5777 62.5622C57.6204 62.6235 59.5864 61.7784 61.4376 60.5477C61.8794 60.254 61.744 60.037 61.4529 59.8072C60.9704 59.4344 60.4648 59.0922 59.9592 58.7501C58.2255 57.5704 56.3207 57.499 54.3419 57.8794C52.4473 58.2445 51.0225 59.2123 50.088 60.9434C49.9143 61.2728 49.9552 61.3596 50.2693 61.4924C51.9424 62.2241 53.7516 62.5931 55.5777 62.575V62.5622ZM57.6204 57.0164C59.3898 57.4275 60.8963 58.2318 61.9125 59.8046C61.9662 59.8863 61.9943 60.0753 62.1679 59.9629C62.2879 59.8863 62.2751 59.751 62.2394 59.6336C62.209 59.5516 62.1659 59.4749 62.1117 59.4063C61.0214 57.859 59.4077 57.2794 57.6357 57.0164H57.6204ZM49.6182 60.1774C49.5005 60.2256 49.4009 60.3093 49.3331 60.4169C49.2654 60.5245 49.2329 60.6505 49.2403 60.7775L49.6182 60.1774Z" fill="#050505"/>
<path d="M77.9987 78.3422C81.8814 78.3422 85.7651 78.3422 89.6496 78.3422C91.8991 78.3422 94.1486 78.3166 96.3981 78.309C101.11 78.2902 105.822 78.2741 110.533 78.2604C113.342 78.2604 116.151 78.2451 118.96 78.2145C119.884 78.2145 120.831 78.0485 121.745 78.4545C122.659 78.8605 123.252 79.5269 123.277 80.3236C123.303 81.0181 122.631 81.9194 121.809 82.2616C121.445 82.4303 121.051 82.5273 120.65 82.5475C115.104 82.6446 109.558 82.8029 104.012 82.7722C98.9693 82.7339 93.929 82.5833 88.8887 82.6778C86.3098 82.7263 83.7309 82.8463 81.152 82.9331C79.6022 82.9816 78.0446 82.9739 76.4998 82.9101C75.6445 82.8744 74.9065 82.2054 74.544 81.3577C74.3935 81.0099 74.3508 80.6249 74.4213 80.2526C74.4919 79.8803 74.6724 79.5377 74.9397 79.269C75.4198 78.7252 75.9483 78.3268 76.745 78.4392C77.1623 78.4686 77.5813 78.4686 77.9987 78.4392V78.3422ZM102.286 81.1508C105.263 81.0232 108.248 81.0896 111.223 80.8061C109.923 80.7398 108.621 80.7704 107.324 80.7295C105.631 80.6785 103.956 80.8751 102.276 80.9849C101.786 80.944 101.318 81.0947 100.838 81.1381C101.318 81.2108 101.805 81.216 102.286 81.1534V81.1508ZM95.2338 81.1662V80.9772L92.9077 81.0819V81.1662H95.2338ZM119.309 80.9491C118.704 80.6657 118.561 80.6938 118.288 81.0232L119.309 80.9491ZM117.639 79.8435C118.158 80.0365 118.718 80.0902 119.263 79.9993C118.773 79.7669 118.288 79.7899 117.639 79.8435ZM99.9039 80.6095C99.5924 80.6095 99.2732 80.4895 98.8672 80.6402C99.2987 80.7806 99.6 80.6249 99.9115 80.5993L99.9039 80.6095Z" fill="#050505"/>
<path d="M77.5646 77.9514C79.2038 77.9514 80.8431 77.9514 82.4823 77.931C86.9303 77.908 91.3782 77.8723 95.8236 77.8621C98.8238 77.8621 101.824 77.885 104.824 77.8978L104.771 78.0331L77.5824 78.1021L77.5646 77.9514Z" fill="#050505"/>
<path d="M104.771 78.033L104.824 77.8977H110.081V78.033C108.315 78.033 106.545 78.0892 104.771 78.033Z" fill="#737373"/>
<path d="M77.5636 77.9513L77.5814 78.1014C77.4847 78.1472 77.3143 78.165 77.3067 78.1014C77.2965 77.9539 77.4237 77.8954 77.5636 77.9513Z" fill="#737373"/>
<path d="M110.377 77.8748L110.392 77.9073L110.355 77.9023L110.377 77.8748Z" fill="#737373"/>
<path d="M99.2093 108.13C103.254 108.13 107.298 108.13 111.343 108.13C114.662 108.13 118.002 108.096 121.332 108.081C122.491 108.081 123.665 108.847 123.928 109.753C124.191 110.66 123.504 111.778 122.381 112.205C121.615 112.501 120.795 112.429 120.001 112.447C115.119 112.547 110.237 112.687 105.355 112.657C101.359 112.631 97.3658 112.542 93.3724 112.524C89.5194 112.506 85.6663 112.646 81.8159 112.795C80.3001 112.873 78.7811 112.869 77.2658 112.782C76.413 112.723 75.7338 112.113 75.3329 111.347C75.1684 111.045 75.0943 110.702 75.1197 110.359C75.145 110.016 75.2687 109.688 75.4759 109.414C75.9559 108.722 76.5356 108.267 77.4982 108.28C80.2354 108.321 82.9751 108.244 85.7123 108.239C90.2113 108.227 94.7103 108.239 99.2093 108.239V108.13ZM103.425 110.834L102.342 110.951V111.01H103.41C103.552 111.056 103.704 111.056 103.846 111.01L112.145 110.8C111.758 110.667 111.35 110.607 110.942 110.622C108.504 110.647 106.06 110.509 103.629 110.826C103.6 110.801 103.563 110.788 103.526 110.79C103.488 110.791 103.452 110.807 103.425 110.834ZM93.6813 110.905V111.02H95.9589V110.905H93.6813ZM118.449 109.728C119.018 109.983 119.611 109.874 120.203 109.815C119.629 109.703 119.041 109.675 118.459 109.733L118.449 109.728ZM118.96 110.915L120.042 110.8C119.695 110.675 119.325 110.44 118.972 110.92L118.96 110.915ZM93.403 110.992C92.9998 110.891 92.578 110.891 92.1748 110.992C92.5961 111.089 93.0047 111.196 93.4158 110.997L93.403 110.992ZM100.619 110.399C100.238 110.443 99.9498 110.315 99.6179 110.53C99.7863 110.58 99.9633 110.594 100.138 110.573C100.312 110.551 100.48 110.494 100.632 110.405L100.619 110.399Z" fill="#050505"/>
<path d="M110.728 107.854C107.643 107.882 104.559 107.923 101.474 107.935C96.9241 107.958 92.374 107.961 87.824 107.971C87.7831 107.907 87.7397 107.846 87.824 107.777L107.653 107.792C108.675 107.792 109.711 107.792 110.738 107.792C110.733 107.795 110.728 107.8 110.725 107.804C110.722 107.809 110.719 107.815 110.719 107.821C110.718 107.827 110.718 107.832 110.719 107.838C110.721 107.844 110.724 107.849 110.728 107.854Z" fill="#050505"/>
<path d="M87.8163 107.77C87.7397 107.838 87.7831 107.9 87.8163 107.964L80.2992 107.994H77.9808V107.777L87.8163 107.77Z" fill="#737373"/>
<path d="M110.728 107.854C110.723 107.85 110.72 107.845 110.717 107.84C110.715 107.835 110.714 107.829 110.714 107.823C110.714 107.817 110.715 107.812 110.717 107.806C110.72 107.801 110.723 107.796 110.728 107.792H112.898V107.854H110.728Z" fill="#737373"/>
<path d="M93.0047 49.1956H106.239C107.543 49.1956 108.848 49.1956 110.156 49.1956L120.175 49.1394C121.306 49.1394 122.496 49.8697 122.772 50.7455C123.076 51.7106 122.422 52.8009 121.316 53.2452C120.55 53.5567 119.733 53.5005 118.942 53.5005C113.868 53.5976 108.797 53.7559 103.721 53.7074C99.6358 53.6742 95.5274 53.5899 91.4293 53.5797C87.8393 53.5797 84.2518 53.7099 80.6618 53.8478C79.147 53.9321 77.6285 53.9269 76.1143 53.8325C75.2512 53.7661 74.5567 53.1482 74.1712 52.3362C74.0101 52.0053 73.9522 51.6335 74.005 51.2693C74.0578 50.905 74.2189 50.5651 74.4674 50.2935C74.685 49.993 74.9721 49.7496 75.3043 49.5842C75.6365 49.4188 76.0037 49.3362 76.3747 49.3437C80.6975 49.3641 85.0204 49.3028 89.3432 49.2747C90.5637 49.2747 91.7842 49.2747 93.0047 49.2747V49.1956ZM102.541 51.9558C102.541 51.8332 102.442 51.8868 102.381 51.8766L101.135 51.9736C101.646 52.0992 102.176 52.1278 102.697 52.0579L110.452 51.8613C110.127 51.7597 109.792 51.6946 109.453 51.6672C108.202 51.6877 106.949 51.6672 105.697 51.6672C104.642 51.6435 103.587 51.742 102.554 51.9609L102.541 51.9558ZM94.8201 52.0068C93.6175 52.0068 92.4047 51.9072 91.534 52.0707C92.4047 52.2519 93.6073 52.0885 94.8201 52.0068ZM119.077 50.8604C118.51 50.8604 117.954 50.6357 117.389 50.8093C117.936 50.965 118.514 50.9826 119.069 50.8604H119.077ZM117.834 51.9736L118.916 51.8638C118.556 51.777 118.188 51.4732 117.826 51.9736H117.834ZM99.6281 51.491C99.3549 51.4757 99.1991 51.4527 99.0459 51.4604C98.8927 51.4681 98.7089 51.4068 98.5506 51.5523C98.8417 51.6442 98.8417 51.6442 99.6204 51.491H99.6281Z" fill="#050505"/>
<path d="M109.573 48.9045L109.561 48.8713L109.591 48.8508H111.818V48.9045H109.573Z" fill="#737373"/>
<path d="M49.3322 119.058C48.3621 118.177 47.5968 117.095 47.0903 115.887C44.994 111.071 46.2196 105.224 51.6864 102.03C55.3683 99.8745 59.1626 99.7315 62.8803 101.973C65.523 103.579 66.9656 106.028 67.2797 109.084C67.604 112.263 66.7026 115.11 64.6957 117.608C64.4404 117.909 64.2769 118.029 63.9961 117.661C63.7429 117.329 63.4692 117.014 63.1765 116.716C60.9244 114.436 58.2025 113.755 55.1232 114.436C52.1817 115.082 50.997 116.063 49.3322 119.058ZM52.7332 108.25C52.7332 110.32 54.4899 112.12 56.4816 112.115C58.5242 112.115 60.0563 110.53 60.0384 108.403C60.0384 106.541 58.4068 104.994 56.4637 104.979C54.3163 104.961 52.723 106.365 52.7332 108.25Z" fill="#F8F2EA"/>
<path d="M56.7318 121.509C54.9107 121.525 53.1061 121.164 51.431 120.45C51.0174 120.276 51.0863 120.146 51.2625 119.829C52.7485 117.12 55.2457 116.576 58.0263 116.648C59.8596 116.696 61.2614 117.715 62.6224 118.785C62.8777 118.992 63.0028 119.211 62.5866 119.489C60.7227 120.728 58.7387 121.576 56.7318 121.509Z" fill="#F8F2EA"/>
<path d="M58.8179 115.968C60.549 116.247 62.1372 116.798 63.225 118.312C63.2866 118.392 63.3397 118.477 63.3833 118.568C63.4137 118.622 63.4234 118.685 63.4107 118.745C63.3981 118.806 63.3638 118.86 63.3143 118.897C63.1381 119.02 63.1177 118.831 63.059 118.746C62.0581 117.217 60.5746 116.387 58.8179 115.968Z" fill="#F8F2EA"/>
<path d="M45.6349 109.125C45.7462 107.94 46.1642 106.804 46.8477 105.829C46.3624 106.896 45.957 107.998 45.6349 109.125Z" fill="#F8F2EA"/>
<path d="M45.5022 109.708C45.694 110.081 45.4614 110.426 45.4741 110.791C45.3773 110.435 45.387 110.058 45.5022 109.708Z" fill="#737373"/>
<path d="M50.7242 119.063C50.7075 119.203 50.6618 119.339 50.5901 119.461C50.5184 119.583 50.4222 119.688 50.3076 119.771C50.3084 119.627 50.3474 119.485 50.4205 119.361C50.4937 119.237 50.5985 119.134 50.7242 119.063Z" fill="#737373"/>
<path d="M50.9959 118.794C50.9425 118.886 50.9069 119.077 50.7772 118.967C50.6474 118.858 50.8331 118.772 50.9044 118.685L50.9959 118.794Z" fill="#737373"/>
<path d="M50.8999 118.685C50.9509 118.642 50.9816 118.511 51.0683 118.606C51.155 118.7 51.053 118.746 50.9918 118.795L50.8999 118.685Z" fill="#737373"/>
<path d="M51.2515 118.401C51.2389 118.401 51.2288 118.427 51.2187 118.427C51.2086 118.427 51.1985 118.409 51.191 118.399C51.1834 118.389 51.2111 118.371 51.2212 118.371C51.2313 118.371 51.2515 118.391 51.2515 118.401Z" fill="#737373"/>
<path d="M48.6197 89.2219C47.343 88.0284 46.4078 86.5159 45.9106 84.8403C43.8679 78.0688 48.1678 72.3034 54.2116 70.8199C58.9404 69.6581 63.6845 71.8106 65.6761 76.1053C67.1826 79.3557 66.8379 82.6164 65.2472 85.7723C64.8711 86.503 64.4128 87.1883 63.8811 87.815C63.6845 88.0525 63.5288 88.1495 63.2939 87.8431C63.0211 87.483 62.7242 87.1417 62.4053 86.8217C60.1073 84.5237 57.3496 83.916 54.2346 84.5927C51.5867 85.1544 49.7202 86.6685 48.6197 89.2219ZM55.6823 82.2359C57.7556 82.2359 59.2928 80.7039 59.3055 78.5897C59.3183 76.6977 57.7148 75.1427 55.7308 75.1095C53.6524 75.0763 52.0157 76.4602 52.0029 78.2603C51.9851 80.3873 53.6881 82.2359 55.6823 82.2359Z" fill="#F8F2EA"/>
<path d="M50.3433 90.3709C51.454 87.7767 53.6473 86.9571 56.216 86.7451C58.4195 86.5638 60.1941 87.5111 61.8333 88.8542C62.2827 89.2193 62.2598 89.3215 61.7848 89.6509C58.1795 92.1506 54.398 92.1685 50.4888 90.4679C50.4373 90.4404 50.3885 90.4079 50.3433 90.3709Z" fill="#F8F2EA"/>
<path d="M58.5115 86.2651C58.8077 86.117 59.0221 86.2472 59.2494 86.3111C60.4878 86.6813 61.601 87.2482 62.3977 88.3129C62.4717 88.4099 62.5356 88.5121 62.6045 88.6116C62.699 88.7572 62.7296 88.9257 62.5764 89.0304C62.3849 89.1581 62.3543 88.9232 62.293 88.8338C61.4194 87.5135 60.0608 86.5906 58.5115 86.2651Z" fill="#F8F2EA"/>
<path d="M44.7386 79.9379C44.9761 78.0918 45.4153 76.8407 46.2298 75.7913C45.5991 77.1062 45.0348 78.4442 44.8689 79.9073L44.7386 79.9379Z" fill="#F8F2EA"/>
<path d="M44.7387 79.9379L44.8691 79.9072C44.8282 80.2446 44.7899 80.5846 44.7515 80.9297C44.703 80.5923 44.5828 80.2651 44.7387 79.9379Z" fill="#737373"/>
<path d="M50.091 89.1888L49.5977 90.0119C49.5828 89.8403 49.6096 89.6677 49.6759 89.5088C49.7423 89.3499 49.8461 89.2094 49.9786 89.0994L50.091 89.1888Z" fill="#737373"/>
<path d="M50.1978 88.793C50.2207 88.7241 50.2743 88.6475 50.3381 88.7011C50.4019 88.7547 50.3534 88.8542 50.2768 88.9078L50.1978 88.793Z" fill="#737373"/>
<path d="M49.9756 89.0993C50.0088 89.0483 50.0292 88.959 50.1108 89.0202C50.1925 89.0815 50.1108 89.135 50.0853 89.1886C50.0521 89.158 50.0164 89.1299 49.9756 89.0993Z" fill="#737373"/>
<path d="M50.276 88.9072C50.2354 88.9224 50.1694 88.963 50.1567 88.9503C50.0907 88.8869 50.1567 88.8387 50.1973 88.793L50.276 88.9072Z" fill="#737373"/>
<path d="M48.1729 60.1034C46.7441 58.7547 45.7502 57.0104 45.3183 55.0937C43.6994 48.1996 48.4078 42.9448 53.9282 41.732C57.8348 40.8741 61.3048 41.8597 63.9373 44.9518C66.4907 47.9392 66.7128 51.4143 65.5612 55.0477C65.1156 56.3898 64.4189 57.6349 63.5083 58.7169C63.276 59.0003 63.1049 59.0386 62.8675 58.7373C62.5933 58.379 62.2975 58.0379 61.9814 57.716C59.6068 55.3746 56.7726 54.8077 53.5962 55.5737C52.467 55.8154 51.4099 56.3179 50.5094 57.041C49.609 57.7641 48.8901 58.6878 48.4104 59.7382C48.3644 59.8327 48.3159 59.9246 48.2648 60.0166C48.2365 60.0479 48.2058 60.0769 48.1729 60.1034ZM55.3223 53.1634C57.3982 53.1634 58.897 51.6007 58.897 49.4738C58.8756 48.5462 58.4873 47.6649 57.8172 47.0231C57.1471 46.3812 56.25 46.0312 55.3223 46.0497C52.6719 46.1033 51.5433 47.7324 51.5765 49.3921C51.6276 51.3735 53.3843 53.1736 55.3223 53.1634Z" fill="#F8F2EA"/>
<path d="M55.5777 62.575C53.7511 62.595 51.941 62.2278 50.2667 61.4975C49.9526 61.3647 49.9118 61.2779 50.0854 60.9485C51.0097 59.225 52.4447 58.2573 54.3393 57.8845C56.3207 57.504 58.2255 57.5755 59.9567 58.7552C60.4673 59.0973 60.978 59.4395 61.4504 59.8123C61.7415 60.0344 61.8768 60.2591 61.435 60.5527C59.5864 61.7784 57.6152 62.6235 55.5777 62.575Z" fill="#F8F2EA"/>
<path d="M57.6356 57.0164C59.423 57.2717 61.029 57.859 62.127 59.4063C62.1812 59.4749 62.2242 59.5516 62.2546 59.6335C62.2904 59.751 62.3031 59.8889 62.1831 59.9629C62.0095 60.0753 61.9814 59.8863 61.9278 59.8046C60.9039 58.2343 59.3974 57.4274 57.6356 57.0164Z" fill="#F8F2EA"/>
<path d="M44.3582 50.9779C44.3991 49.5659 44.971 47.8118 45.7115 46.9487C45.0662 48.2201 44.6349 49.5892 44.4348 51.0009C44.4324 50.9934 44.4282 50.9866 44.4226 50.9811C44.417 50.9756 44.4101 50.9715 44.4026 50.9693C44.395 50.967 44.387 50.9666 44.3793 50.9681C44.3716 50.9696 44.3643 50.973 44.3582 50.9779Z" fill="#F8F2EA"/>
<path d="M49.6185 60.1775L49.2402 60.7884C49.2306 60.6597 49.2621 60.5312 49.33 60.4214C49.398 60.3117 49.499 60.2263 49.6185 60.1775Z" fill="#F8F2EA"/>
<path d="M44.3583 50.9778C44.3645 50.9728 44.3717 50.9695 44.3794 50.9679C44.3872 50.9664 44.3952 50.9668 44.4027 50.9691C44.4103 50.9714 44.4171 50.9754 44.4228 50.9809C44.4284 50.9865 44.4326 50.9933 44.435 51.0008C44.4043 51.2692 44.3737 51.5401 44.3455 51.8085C44.3021 51.5273 44.1436 51.2462 44.3583 50.9778Z" fill="#737373"/>
<path d="M45.8671 46.7925C45.783 46.7721 45.7702 46.7237 45.8187 46.6574C45.8398 46.635 45.8629 46.6146 45.8875 46.5962L45.8595 46.7747L45.8671 46.7925Z" fill="#F8F2EA"/>
<path d="M49.6359 59.8839H49.7728C49.7575 59.9042 49.7297 59.9473 49.7246 59.9447C49.6895 59.9242 49.6564 59.9005 49.6258 59.8738L49.6359 59.8839Z" fill="#F8F2EA"/>
<path d="M49.6258 59.8813L49.7119 59.9726L49.6461 60.0283C49.6486 59.9802 49.6486 59.932 49.6461 59.8839L49.6258 59.8813Z" fill="#F8F2EA"/>
<path d="M45.857 46.774L45.737 46.824C45.737 46.7965 45.737 46.7565 45.7645 46.739C45.792 46.7215 45.8395 46.739 45.8645 46.789L45.857 46.774Z" fill="#F8F2EA"/>
<path d="M102.276 80.9848C103.956 80.8776 105.631 80.681 107.324 80.7295C108.621 80.7703 109.923 80.7295 111.223 80.8061C108.248 81.0895 105.263 81.0231 102.286 81.1508L102.276 80.9848Z" fill="#F8F2EA"/>
<path d="M95.2338 81.1687H92.9026V81.0844L95.2287 80.9797L95.2338 81.1687Z" fill="#F8F2EA"/>
<path d="M119.31 80.9594L118.288 81.0336C118.561 80.6859 118.705 80.668 119.31 80.9594Z" fill="#F8F2EA"/>
<path d="M117.639 79.8434C118.28 79.7898 118.765 79.7668 119.263 79.9992C118.718 80.0901 118.158 80.0364 117.639 79.8434Z" fill="#737373"/>
<path d="M102.276 80.9847V81.1533C101.795 81.2158 101.308 81.2107 100.828 81.1379C101.318 81.0945 101.786 80.9439 102.276 80.9847Z" fill="#737373"/>
<path d="M99.9127 80.5993C99.6008 80.6249 99.2992 80.7808 98.8749 80.63C99.2813 80.4792 99.6008 80.6019 99.9127 80.5993Z" fill="#737373"/>
<path d="M103.629 110.818C106.06 110.501 108.504 110.639 110.942 110.614C111.35 110.599 111.758 110.659 112.145 110.793L103.846 111.002L103.629 110.818Z" fill="#F8F2EA"/>
<path d="M93.6813 110.91H95.964V111.025H93.689L93.6813 110.91Z" fill="#F8F2EA"/>
<path d="M118.459 109.733C119.045 109.676 119.636 109.705 120.213 109.82C119.621 109.878 119.028 109.978 118.459 109.733Z" fill="#737373"/>
<path d="M118.972 110.921C119.325 110.44 119.696 110.665 120.056 110.806L118.972 110.921Z" fill="#F8F2EA"/>
<path d="M93.4171 110.997C93.0056 111.196 92.5966 111.099 92.1876 110.997C92.5912 110.896 93.0135 110.896 93.4171 110.997Z" fill="#737373"/>
<path d="M100.633 110.405C100.483 110.493 100.317 110.551 100.145 110.573C99.9728 110.595 99.7977 110.582 99.6306 110.535C99.9629 110.323 100.252 110.448 100.633 110.405Z" fill="#737373"/>
<path d="M103.411 111.015H102.342V110.956L103.426 110.839L103.411 111.015Z" fill="#F8F2EA"/>
<path d="M103.41 111.015L103.425 110.838C103.45 110.81 103.485 110.792 103.523 110.788C103.561 110.784 103.599 110.795 103.629 110.818L103.846 111.002C103.706 111.052 103.553 111.056 103.41 111.015Z" fill="#737373"/>
<path d="M102.554 51.9507C103.587 51.7318 104.642 51.6333 105.697 51.657C106.949 51.657 108.202 51.6877 109.453 51.657C109.792 51.6844 110.127 51.7495 110.452 51.8511L102.697 52.0477L102.554 51.9507Z" fill="#F8F2EA"/>
<path d="M94.8201 52.0069C93.6073 52.0886 92.4046 52.2622 91.5339 52.0707C92.4046 51.9073 93.6175 52.0018 94.8201 52.0069Z" fill="#F8F2EA"/>
<path d="M119.069 50.8603C118.511 50.9837 117.931 50.9662 117.382 50.8092C117.946 50.6356 118.502 50.8577 119.069 50.8603Z" fill="#737373"/>
<path d="M117.826 51.974C118.189 51.4628 118.557 51.7772 118.91 51.8641L117.826 51.974Z" fill="#F8F2EA"/>
<path d="M102.554 51.9505L102.697 52.0578C102.176 52.1277 101.646 52.0991 101.135 51.9735L102.381 51.8765C102.398 51.9786 102.457 51.9939 102.541 51.9556L102.554 51.9505Z" fill="#737373"/>
<path d="M99.6216 51.4911C98.842 51.6445 98.842 51.6445 98.5429 51.5525C98.7014 51.4068 98.8803 51.4707 99.0388 51.4605C99.1973 51.4502 99.3481 51.4758 99.6216 51.4911Z" fill="#737373"/>
<path d="M102.541 51.9553C102.457 51.9934 102.398 51.9782 102.381 51.8767C102.442 51.8868 102.533 51.8335 102.541 51.9553Z" fill="#F8F2EA"/>
<path d="M52.7332 108.249C52.7332 106.365 54.3137 104.963 56.4509 104.979C58.4068 104.994 60.0256 106.541 60.0256 108.403C60.0256 110.53 58.5217 112.108 56.4688 112.115C54.4899 112.11 52.7434 110.323 52.7332 108.249ZM58.8127 108.638C58.8282 108.225 58.7169 107.817 58.4936 107.47C58.2704 107.123 57.946 106.852 57.5642 106.694C57.1695 106.483 56.7221 106.391 56.2761 106.429C55.8302 106.467 55.4048 106.634 55.0517 106.909C54.8092 107.073 54.6102 107.294 54.472 107.552C54.3337 107.811 54.2603 108.099 54.2581 108.392C54.2558 108.684 54.3248 108.974 54.459 109.234C54.5932 109.494 54.7887 109.718 55.0287 109.886C55.5443 110.281 56.1794 110.488 56.8288 110.473C57.8501 110.468 58.8204 109.557 58.8127 108.638ZM57.5003 110.92C56.479 111.091 55.5623 110.826 54.6712 110.369C55.6057 111.188 56.6705 111.39 57.5003 110.92ZM53.8516 107.499C53.6957 107.728 53.6078 107.996 53.5978 108.273C53.5879 108.55 53.6564 108.824 53.7954 109.064C53.7623 108.542 53.7812 108.017 53.8516 107.499Z" fill="#050505"/>
<path d="M55.6824 82.2359C53.6882 82.2359 51.9851 80.3847 51.9979 78.2603C52.0106 76.4602 53.6473 75.0763 55.7258 75.1095C57.7148 75.1427 59.3183 76.6977 59.3005 78.5897C59.2928 80.7039 57.7557 82.2486 55.6824 82.2359ZM53.295 79.5829C53.2643 79.5523 53.2133 79.4885 53.2031 79.4961C53.129 79.5421 53.1622 79.6034 53.2031 79.6595L53.3154 79.8204C53.3767 79.8587 53.392 80.04 53.512 79.8817C53.3384 80.0196 53.4967 80.0706 53.581 80.137C54.347 81.2273 56.0986 81.669 56.9003 80.9796C56.3255 81.1246 55.723 81.119 55.151 80.9634C54.579 80.8077 54.0567 80.5073 53.6346 80.0911C53.5861 80.0272 53.5375 79.9634 53.4865 79.9021L53.3665 79.7566C53.4073 79.6825 53.3614 79.6238 53.295 79.5829ZM53.055 79.1948L53.0907 79.3812C53.1137 79.3659 53.1494 79.3531 53.1545 79.3353C53.1579 79.3195 53.1581 79.3032 53.1552 79.2874C53.1523 79.2715 53.1463 79.2564 53.1375 79.2429C53.1287 79.2294 53.1174 79.2177 53.1041 79.2086C53.0908 79.1995 53.0758 79.1931 53.0601 79.1897V77.8569C52.9271 78.0543 52.8554 78.2867 52.854 78.5247C52.8527 78.7627 52.9217 78.9959 53.0524 79.1948H53.055ZM55.9045 80.5839C57.2042 80.663 58.3813 79.3812 58.0161 78.1965C57.9041 77.8738 57.7251 77.5785 57.491 77.3298C57.2569 77.0811 56.973 76.8846 56.6577 76.7532C56.3424 76.6219 56.0029 76.5586 55.6615 76.5675C55.3201 76.5764 54.9843 76.6573 54.6763 76.8049C54.0227 77.1317 53.5733 77.6322 53.5478 78.4237C53.5275 78.7909 53.6154 79.1559 53.8006 79.4737C53.9857 79.7914 54.2601 80.0478 54.5895 80.2111C54.9905 80.4394 55.4408 80.5673 55.902 80.5839H55.9045ZM53.1111 77.553C53.0896 77.5772 53.0723 77.6048 53.0601 77.6347C53.0396 77.6909 53.0601 77.7241 53.1265 77.7088C53.1443 77.7088 53.1622 77.6577 53.1597 77.6296C53.1571 77.6015 53.1265 77.5811 53.1086 77.553H53.1111Z" fill="#050505"/>
<path d="M55.3223 53.1634C53.3843 53.1634 51.6276 51.3761 51.5868 49.3921C51.5536 47.7324 52.6822 46.1034 55.3325 46.0498C56.2602 46.0313 57.1574 46.3813 57.8274 47.0231C58.4975 47.6649 58.8858 48.5462 58.9072 49.4738C58.9123 51.5957 57.3982 53.1558 55.3223 53.1634ZM52.769 50.2781C52.7358 50.2245 52.7817 50.0841 52.6719 50.13C52.5622 50.176 52.6541 50.2705 52.7051 50.3343L52.7792 50.5513L52.963 50.8654C53.0856 51.0441 53.1647 51.2612 53.3869 51.3556C54.3189 52.211 55.736 52.5098 56.3794 51.9506C55.3045 52.0936 54.3367 51.9352 53.4967 51.2535L53.0958 50.7913C53.0243 50.6867 52.9554 50.582 52.8839 50.4798C52.8609 50.3981 52.8507 50.319 52.7613 50.2781H52.769ZM53.1494 49.4662C53.1377 49.7259 53.1878 49.9848 53.2957 50.2214C53.4035 50.458 53.5661 50.6656 53.7699 50.8271C54.0684 51.0949 54.4231 51.2924 54.808 51.4051C55.1928 51.5177 55.5981 51.5427 55.9939 51.4782C56.2671 51.4499 56.5307 51.3617 56.7659 51.2198C57.0011 51.0779 57.2021 50.8859 57.3546 50.6573C57.507 50.4288 57.6071 50.1695 57.6477 49.8978C57.6884 49.6261 57.6686 49.3488 57.5897 49.0857C57.3344 48.0414 56.0577 47.2984 54.9266 47.5231C53.8465 47.7401 53.152 48.4703 53.1418 49.4662H53.1494ZM52.6566 50.0636C52.6358 49.5614 52.6443 49.0584 52.6822 48.5572C52.5463 48.784 52.4724 49.0426 52.4679 49.307C52.4634 49.5714 52.5285 49.8323 52.6566 50.0636Z" fill="#050505"/>
<path d="M58.8127 108.638C58.8127 109.547 57.8501 110.468 56.8288 110.473C56.1794 110.488 55.5443 110.281 55.0287 109.886C54.7887 109.718 54.5932 109.494 54.459 109.234C54.3247 108.974 54.2558 108.684 54.258 108.392C54.2603 108.099 54.3337 107.811 54.472 107.552C54.6102 107.294 54.8091 107.073 55.0516 106.909C55.4048 106.634 55.8301 106.467 56.2761 106.429C56.7221 106.391 57.1695 106.483 57.5641 106.694C57.9459 106.852 58.2703 107.122 58.4936 107.47C58.7168 107.817 58.8282 108.225 58.8127 108.638Z" fill="#F8F2EA"/>
<path d="M57.5003 110.92C56.6705 111.39 55.6057 111.188 54.6712 110.369C55.5623 110.833 56.4892 111.089 57.5003 110.92Z" fill="#F8F2EA"/>
<path d="M53.8516 107.499C53.7812 108.017 53.7623 108.542 53.7954 109.064C53.6564 108.824 53.5879 108.55 53.5978 108.273C53.6077 107.996 53.6957 107.728 53.8516 107.499Z" fill="#737373"/>
<path d="M55.9019 80.584C55.4397 80.567 54.9884 80.4382 54.5869 80.2086C54.2575 80.0453 53.9831 79.7889 53.798 79.4712C53.6128 79.1535 53.5249 78.7885 53.5452 78.4213C53.5707 77.6297 54.0201 77.1293 54.6737 76.8025C54.9817 76.6548 55.3175 76.5739 55.6589 76.565C56.0003 76.5561 56.3398 76.6194 56.6551 76.7508C56.9703 76.8822 57.2543 77.0786 57.4884 77.3273C57.7225 77.5761 57.9015 77.8714 58.0135 78.194C58.3787 79.3813 57.2016 80.6631 55.9019 80.584Z" fill="#F8F2EA"/>
<path d="M53.6371 80.0938C54.0592 80.51 54.5815 80.8104 55.1535 80.9661C55.7255 81.1217 56.328 81.1273 56.9029 80.9823C56.0909 81.6819 54.3495 81.2376 53.5835 80.1397L53.6371 80.0938Z" fill="#F8F2EA"/>
<path d="M53.0526 79.1963C52.9206 78.9979 52.8502 78.7649 52.8502 78.5266C52.8502 78.2883 52.9206 78.0553 53.0526 77.8569V79.1912V79.1963Z" fill="#737373"/>
<path d="M53.0575 79.1897C53.0732 79.193 53.0882 79.1994 53.1015 79.2086C53.1147 79.2177 53.1261 79.2293 53.1349 79.2428C53.1436 79.2564 53.1496 79.2715 53.1526 79.2873C53.1555 79.3032 53.1553 79.3194 53.1519 79.3352C53.1519 79.353 53.1111 79.3658 53.0881 79.3811C53.0881 79.3173 53.0651 79.256 53.0524 79.1948L53.0575 79.1897Z" fill="#737373"/>
<path d="M53.5731 80.1394C53.4889 80.0705 53.318 80.0195 53.5042 79.8843V79.9047L53.6497 80.096L53.5731 80.1394Z" fill="#F8F2EA"/>
<path d="M53.1082 77.553C53.126 77.5809 53.1539 77.6037 53.1564 77.6291C53.159 77.6545 53.1412 77.7027 53.1234 77.7078C53.0676 77.723 53.0372 77.69 53.0575 77.6342C53.0697 77.6044 53.0868 77.577 53.1082 77.553Z" fill="#737373"/>
<path d="M53.3076 79.8203L53.1954 79.6596L53.2923 79.583C53.3612 79.6238 53.4071 79.6749 53.3689 79.7591L53.3076 79.8203Z" fill="#737373"/>
<path d="M53.1951 79.6585C53.1596 79.6027 53.1266 79.5418 53.1951 79.4961C53.1951 79.4961 53.256 79.5519 53.2865 79.5824L53.1951 79.6585Z" fill="#737373"/>
<path d="M53.3689 79.7593L53.4912 79.902V79.8816C53.3714 80.0397 53.3561 79.8587 53.2949 79.8205L53.3689 79.7593Z" fill="#F8F2EA"/>
<path d="M53.1417 49.4663C53.1417 48.4705 53.8464 47.7402 54.9291 47.5232C56.0679 47.2959 57.3343 48.0339 57.5922 49.0858C57.6711 49.349 57.6909 49.6263 57.6503 49.8979C57.6096 50.1696 57.5095 50.429 57.3571 50.6575C57.2046 50.886 57.0037 51.0781 56.7684 51.2199C56.5332 51.3618 56.2696 51.4501 55.9964 51.4783C55.6006 51.5429 55.1954 51.5179 54.8105 51.4052C54.4256 51.2925 54.0709 51.095 53.7724 50.8272C53.5667 50.6668 53.4022 50.4597 53.2926 50.223C53.1829 49.9863 53.1312 49.7269 53.1417 49.4663Z" fill="#F8F2EA"/>
<path d="M53.489 51.2537C54.3265 51.9354 55.2968 52.0937 56.3717 51.9507C55.7283 52.5099 54.3112 52.2061 53.3792 51.3558L53.489 51.2537Z" fill="#F8F2EA"/>
<path d="M52.6566 50.0636C52.5285 49.8323 52.4634 49.5713 52.4679 49.307C52.4724 49.0426 52.5463 48.784 52.6822 48.5571C52.6443 49.0584 52.6358 49.5614 52.6566 50.0636Z" fill="#737373"/>
<path d="M53.3804 51.3573C53.1576 51.2626 53.0783 51.045 52.9554 50.8658L53.0885 50.7915L53.4905 51.2549L53.3804 51.3573Z" fill="#737373"/>
<path d="M52.8758 50.48L53.0869 50.7903L52.9546 50.8641L52.7715 50.5512L52.8758 50.48Z" fill="#737373"/>
<path d="M52.7612 50.2781C52.8505 50.3163 52.8607 50.398 52.8761 50.4796L52.7714 50.5511C52.7459 50.4796 52.723 50.4082 52.6974 50.3342L52.7612 50.2781Z" fill="#737373"/>
<path d="M52.6974 50.3343C52.6464 50.2705 52.5851 50.1634 52.6642 50.1302C52.7433 50.097 52.728 50.2246 52.7612 50.2782L52.6974 50.3343Z" fill="#737373"/>
<defs>
<filter id="filter0_d_2409_118408" x="0.0821533" y="0.121338" width="170.69" height="168.252" filterUnits="userSpaceOnUse" color-interpolation-filters="sRGB">
<feFlood flood-opacity="0" result="BackgroundImageFix"/>
<feColorMatrix in="SourceAlpha" type="matrix" values="0 0 0 0 0 0 0 0 0 0 0 0 0 0 0 0 0 0 127 0" result="hardAlpha"/>
<feOffset dx="5" dy="4"/>
<feGaussianBlur stdDeviation="2"/>
<feComposite in2="hardAlpha" operator="out"/>
<feColorMatrix type="matrix" values="0 0 0 0 0 0 0 0 0 0 0 0 0 0 0 0 0 0 0.25 0"/>
<feBlend mode="normal" in2="BackgroundImageFix" result="effect1_dropShadow_2409_118408"/>
<feBlend mode="normal" in="SourceGraphic" in2="effect1_dropShadow_2409_118408" result="shape"/>
</filter>
</defs>
</svg>
