<svg width="29" height="31" viewBox="0 0 29 31" fill="none" xmlns="http://www.w3.org/2000/svg">
<path d="M14.9382 12.175C15.1391 11.8731 15.3334 11.5887 15.5365 11.3116C16.48 10.0231 17.5558 8.88433 18.8214 7.97018C19.527 7.46058 20.2752 7.05241 21.1113 6.86342C21.4766 6.7807 21.8446 6.73179 22.2142 6.8115C22.7571 6.92863 23.17 7.24442 23.5009 7.74074C23.9901 8.47314 24.1124 9.2931 24.0897 10.162C24.0515 11.6268 23.6841 13.0137 23.2187 14.3734C22.6099 16.1595 21.7931 17.8302 20.8346 19.4236C20.274 20.3553 19.6305 21.2126 18.973 22.0604C18.2702 22.9661 17.4789 23.7746 16.6659 24.5589C16.262 24.9629 15.8345 25.3379 15.3859 25.6813C15.2703 25.7616 15.1467 25.827 15.0174 25.8764C14.9238 25.915 14.8475 25.8637 14.7833 25.8051C14.5509 25.592 14.3184 25.3788 14.0949 25.1548C13.4363 24.4991 12.764 23.8609 12.1231 23.1859C11.5342 22.5546 10.9789 21.8869 10.4602 21.1861C9.99311 20.5648 9.51553 19.9525 9.08001 19.3034C7.9854 17.6732 7.07562 15.93 6.4442 14.0238C6.0928 12.963 5.83547 11.8786 5.78013 10.7458C5.74527 9.99954 5.80503 9.26774 6.10165 8.58002C6.43369 7.80414 6.98099 7.26857 7.72365 7.01377C8.28313 6.82236 8.86253 6.84833 9.43474 7.01015C10.1486 7.21181 10.8016 7.55839 11.4192 7.9889C12.6165 8.81282 13.6409 9.90332 14.4252 11.189C14.6161 11.5049 14.7874 11.8343 14.9382 12.175ZM14.998 12.806C14.9714 12.8006 14.9709 12.7764 14.9626 12.7601C14.4939 11.8049 13.9399 10.9131 13.2437 10.1378C12.6145 9.43741 11.9709 8.74908 11.2156 8.20566C10.4602 7.66225 9.65665 7.31325 8.74078 7.34103C8.17079 7.35854 7.64839 7.54149 7.19958 7.93516C6.60247 8.45865 6.33906 9.17113 6.25882 9.9772C6.17581 10.8104 6.25882 11.6304 6.44531 12.4401C6.74248 13.7461 7.24662 14.9603 7.82879 16.1396C8.34677 17.1902 8.95163 18.181 9.56368 19.167C9.9018 19.7104 10.2244 20.2677 10.6339 20.7544C10.842 21.0013 11.0501 21.2477 11.2488 21.5025C12.1641 22.6775 13.1403 23.786 14.2205 24.7823C14.4463 24.9906 14.6671 25.205 14.9189 25.3788C14.9379 25.3973 14.9625 25.4076 14.988 25.4076C15.0135 25.4076 15.0382 25.3973 15.0572 25.3788C15.1601 25.2931 15.2719 25.2206 15.3743 25.1343C16.501 24.19 17.496 23.0971 18.4052 21.9094C18.7566 21.4505 19.0693 20.9572 19.4229 20.5026C20.1522 19.5826 20.8149 18.6023 21.4052 17.5705C22.0432 16.4366 22.6298 15.2761 23.051 14.0226C23.4384 12.8754 23.7256 11.6986 23.6957 10.456C23.6818 9.85765 23.6199 9.27076 23.3919 8.7207C23.1052 8.02935 22.6957 7.52096 21.9403 7.41107C21.2418 7.30051 20.5289 7.39019 19.8717 7.6713C19.3796 7.88385 18.912 8.15843 18.4783 8.48945C17.4163 9.2925 16.5458 10.3008 15.7971 11.4444C15.5085 11.8823 15.2417 12.3368 14.998 12.806Z" fill="#F8F2EA"/>
<path d="M14.998 12.8058C15.2409 12.3369 15.5067 11.8826 15.7944 11.4449C16.5431 10.3037 17.4136 9.29296 18.4756 8.48991C18.9092 8.15888 19.3769 7.88431 19.869 7.67176C20.5262 7.39065 21.2391 7.30096 21.9376 7.41153C22.693 7.52142 23.1025 8.02981 23.3891 8.72116C23.6171 9.27122 23.6791 9.85811 23.693 10.4565C23.7228 11.6991 23.4345 12.8717 23.0483 14.0231C22.6271 15.276 22.0405 16.4371 21.4052 17.5704C20.8155 18.6021 20.1533 19.5824 19.4246 20.5024C19.0699 20.9571 18.7606 21.4504 18.4069 21.9093C17.4977 23.097 16.5027 24.1898 15.376 25.1342C15.2736 25.2205 15.1619 25.293 15.0589 25.3787C15.0399 25.3972 15.0153 25.4074 14.9897 25.4074C14.9642 25.4074 14.9396 25.3972 14.9206 25.3787C14.6688 25.2066 14.448 24.9905 14.2222 24.7821C13.142 23.7859 12.1658 22.6773 11.2505 21.5023C11.0518 21.2475 10.8437 21.0012 10.6356 20.7542C10.2261 20.2676 9.90351 19.7109 9.56539 19.1668C8.95333 18.1808 8.34792 17.19 7.8305 16.1394C7.24944 14.9602 6.74529 13.746 6.44702 12.4399C6.26329 11.6303 6.17751 10.8097 6.26052 9.97706C6.34076 9.17099 6.60418 8.45851 7.20129 7.93502C7.65009 7.54134 8.17249 7.35839 8.74249 7.34088C9.65836 7.31311 10.4674 7.66693 11.2173 8.20552C11.9671 8.7441 12.6162 9.43726 13.2455 10.1377C13.9416 10.9129 14.4956 11.8047 14.9643 12.76C14.9709 12.7763 14.9715 12.8004 14.998 12.8058ZM13.1209 23.3022L13.142 23.3137L13.1337 23.2884L13.1115 23.2636L13.0883 23.2515L13.1005 23.2757L13.1209 23.3022ZM11.3827 8.99649C11.3932 9.00615 11.4049 9.01461 11.4137 8.99649C11.4137 8.99166 11.406 8.98019 11.4015 8.97174C11.3971 8.96328 11.3805 8.94879 11.3689 8.96449C11.3573 8.98019 11.3755 8.98985 11.3827 8.99649ZM13.7623 23.0354L13.7806 23.0631C14.1187 23.5018 14.4791 23.9192 14.8603 24.3136C14.8868 24.2774 14.904 24.2369 14.9327 24.2194C15.0108 24.1705 14.9837 24.1379 14.9294 24.0938C14.8104 23.9978 14.6948 23.8976 14.5775 23.7992C14.3008 23.5661 14.0562 23.2986 13.7966 23.0468L13.7728 23.0239C13.7667 23.0173 13.7562 23.004 13.7557 23.0046C13.7374 23.0221 13.7529 23.0293 13.7629 23.0378L13.7623 23.0354ZM12.8276 10.4076L12.8492 10.4293L12.9007 10.4728C12.9007 10.5102 12.9621 10.4692 12.9533 10.5199V10.5132L12.9505 10.5187C12.9123 10.5223 12.9505 10.4583 12.9084 10.4631C12.9067 10.4509 12.9014 10.4397 12.8933 10.4311C12.8852 10.4225 12.8748 10.417 12.8636 10.4154C12.8639 10.4122 12.8636 10.4089 12.8627 10.4058C12.8617 10.4027 12.8601 10.3999 12.8581 10.3976C12.856 10.3952 12.8535 10.3934 12.8508 10.3922C12.848 10.391 12.845 10.3905 12.842 10.3907C12.842 10.3874 12.8413 10.3843 12.8401 10.3813C12.8389 10.3784 12.8371 10.3757 12.835 10.3735C12.8328 10.3713 12.8302 10.3696 12.8275 10.3685C12.8247 10.3674 12.8217 10.3669 12.8188 10.3671C12.8121 10.3599 12.8011 10.3454 12.7994 10.3466C12.7789 10.3617 12.7994 10.3707 12.8055 10.3822L12.8276 10.4076ZM13.3257 11.0222C13.3242 11.0186 13.3223 11.0152 13.3202 11.012C13.3202 11.012 13.3152 11.012 13.3124 11.012L13.3246 11.0246C13.329 11.0355 13.3329 11.047 13.3373 11.0579L13.355 11.0826C13.3628 11.0917 13.3677 11.1116 13.3832 11.0989C13.3987 11.0862 13.3832 11.076 13.3749 11.0663L13.3517 11.044L13.3257 11.0222ZM17.4258 9.72105L17.4485 9.6969L17.4723 9.67637L17.4944 9.65342L17.5337 9.62021L17.5564 9.59667C17.5807 9.57915 17.6117 9.5707 17.6161 9.53025C17.6267 9.51515 17.6499 9.50187 17.6233 9.48013C17.6333 9.48013 17.6444 9.48375 17.6521 9.48013C17.6715 9.46987 17.6488 9.46323 17.6482 9.45477C17.6715 9.48194 17.6953 9.45477 17.7185 9.45477C17.7158 9.43726 17.7218 9.43002 17.7384 9.43485L17.8419 9.30986C17.8037 9.3485 17.7257 9.35092 17.7384 9.43485C17.729 9.42579 17.7191 9.41009 17.7075 9.43062C17.7075 9.43485 17.7147 9.44632 17.7191 9.45477C17.6958 9.43062 17.6726 9.45477 17.6505 9.45477C17.646 9.46866 17.6449 9.48677 17.6239 9.47953L17.6062 9.51576C17.568 9.51576 17.5553 9.54957 17.537 9.57614L17.5176 9.59606L17.4778 9.63108L17.4551 9.65463L17.4341 9.68059L17.4119 9.70474C17.402 9.71078 17.3931 9.71803 17.402 9.7301C17.4036 9.73554 17.4175 9.72709 17.4258 9.72105ZM13.4225 11.1261C13.4153 11.1219 13.4026 11.1116 13.401 11.1134C13.3871 11.1279 13.401 11.1388 13.4087 11.1484L13.4297 11.1744C13.4487 11.2223 13.4811 11.2624 13.5221 11.2891C13.5349 11.3036 13.5509 11.3386 13.5653 11.3145C13.5797 11.2903 13.5443 11.2686 13.5271 11.248C13.5166 11.2003 13.4801 11.1756 13.448 11.1478L13.4225 11.1261ZM21.418 15.7753C21.4113 15.785 21.3886 15.791 21.4113 15.8079C21.4113 15.7964 21.4152 15.785 21.4169 15.7741L21.4224 15.7663L21.418 15.7753ZM12.8177 22.8796C12.8138 22.8663 12.8072 22.856 12.7922 22.8603C12.786 22.8391 12.7755 22.8196 12.7617 22.8032C12.7478 22.7868 12.7309 22.774 12.712 22.7655C12.7352 22.8017 12.743 22.8554 12.7944 22.8579C12.7944 22.8669 12.7944 22.879 12.8005 22.885C12.8066 22.8911 12.8133 22.8778 12.821 22.8748C12.7834 22.8929 12.8315 22.9194 12.8155 22.9406C12.8332 22.9285 12.8387 22.9508 12.8503 22.9551C12.8567 22.9577 12.8628 22.9609 12.8686 22.9647V22.9677C12.8655 22.9613 12.863 22.9547 12.8608 22.9478C12.8514 22.9068 12.8332 22.9249 12.8155 22.94C12.8625 22.9225 12.8348 22.9001 12.8177 22.8796ZM20.6332 17.347C20.6205 17.3603 20.6095 17.3742 20.6249 17.3941L20.651 17.3651L20.6692 17.3373C20.6847 17.3132 20.7002 17.2896 20.7151 17.2655C20.729 17.2546 20.7406 17.2425 20.7301 17.2214C20.7401 17.2117 20.7605 17.2027 20.7445 17.187C20.7284 17.1713 20.7246 17.1973 20.7163 17.2063C20.709 17.2087 20.7027 17.2137 20.6985 17.2205C20.6943 17.2273 20.6923 17.2355 20.693 17.2437C20.6626 17.2576 20.6576 17.2896 20.6476 17.3186L20.6332 17.347ZM16.7827 11.5662C16.775 11.5777 16.7429 11.5765 16.76 11.6001C16.7772 11.6236 16.791 11.6067 16.7977 11.5844L16.8237 11.5644L16.8591 11.5542L16.874 11.5687C16.5763 12.0016 16.2249 12.3856 15.9217 12.8143C15.6688 13.1723 15.4358 13.5467 15.1801 13.9011C15.0617 14.0672 15.0396 14.0611 14.9256 13.9011C14.9189 13.8915 14.9106 13.883 14.9034 13.874C14.5039 13.4193 14.1364 12.9332 13.7341 12.481C12.9439 11.5928 12.1082 10.7644 11.1531 10.0833C10.5216 9.6335 9.85813 9.25673 9.11658 9.06774C8.50785 8.91317 8.02142 9.18548 7.78125 9.81343C7.68193 10.0838 7.6274 10.3712 7.62021 10.6624C7.58977 11.4322 7.72314 12.1773 7.93066 12.9079C8.27112 14.0822 8.75508 15.201 9.36948 16.2342C9.54657 16.5361 9.73694 16.8301 9.93007 17.1212C9.94723 17.1471 9.98873 17.1816 9.94723 17.2105C9.919 17.2311 9.88525 17.2033 9.86532 17.1707C9.85924 17.1604 9.85149 17.1514 9.84485 17.1417C8.93064 15.826 8.15866 14.4246 7.64456 12.862C7.46138 12.3071 7.31806 11.7395 7.27323 11.1478L7.25165 10.7101C7.22551 10.8549 7.22195 11.0035 7.24113 11.1496C7.24501 11.178 7.2511 11.2058 7.25331 11.2336C7.30491 11.8532 7.42686 12.4635 7.61634 13.0504C7.87422 13.8552 8.21234 14.6203 8.5571 15.3865C8.75085 15.8181 8.98016 16.2295 9.2422 16.6158C9.4868 16.9751 9.74856 17.321 9.97324 17.6948C10.6 18.7498 11.295 19.7546 12.0529 20.7017C12.5399 21.3055 13.0612 21.8731 13.5659 22.4581C14.0296 22.9967 14.4845 23.545 15.0075 24.0183C15.0528 24.0588 15.0744 24.0787 15.1286 24.0232C15.5525 23.577 15.9715 23.1253 16.3716 22.6538C17.474 21.3676 18.486 19.9927 19.3992 18.5407C20.2359 17.196 20.9885 15.8007 21.5414 14.2857C21.8922 13.3233 22.1667 12.3391 22.2248 11.2957C22.2624 10.6068 22.1014 9.98128 21.703 9.4433C21.4224 9.06472 21.0599 8.87634 20.5962 8.95121C20.1777 9.01537 19.7733 9.16163 19.4025 9.38292C18.695 9.81593 18.0427 10.3484 17.4623 10.9667C17.4335 10.9975 17.4136 11.0579 17.3516 11.0385C17.6316 10.6352 17.9808 10.314 18.3001 9.95653C18.2728 9.95429 18.2458 9.96383 18.2249 9.98309C17.7175 10.4663 17.2418 10.9878 16.8016 11.5439L16.7827 11.5662ZM14.1851 11.8078L14.2061 11.8192L14.1962 11.7957C14.1952 11.7922 14.1937 11.789 14.1916 11.7862C14.1894 11.7834 14.1868 11.7811 14.1839 11.7794C14.181 11.7777 14.1777 11.7767 14.1744 11.7764C14.1711 11.776 14.1678 11.7765 14.1646 11.7776C14.1613 11.7776 14.158 11.7927 14.1591 11.7933C14.1673 11.7991 14.176 11.8039 14.1851 11.8078ZM18.4058 9.84181L18.3677 9.87743C18.3328 9.89313 18.2952 9.90641 18.2946 9.96317C18.3444 9.96317 18.3621 9.92332 18.3881 9.89796L18.4197 9.86113C18.4296 9.86113 18.4407 9.85388 18.433 9.8412C18.4252 9.82852 18.4169 9.84181 18.4058 9.84181ZM12.7551 10.2753L12.7186 10.2862C12.723 10.291 12.7275 10.2977 12.733 10.2995C12.7557 10.3085 12.7457 10.2814 12.7546 10.2747C12.7352 10.285 12.7297 10.3007 12.7446 10.3194C12.7496 10.3248 12.7601 10.3254 12.7684 10.3279L12.7551 10.2753ZM11.3163 8.94698C11.3263 8.95543 11.3379 8.96932 11.3495 8.95423C11.3611 8.93913 11.344 8.93188 11.3357 8.92343L11.2986 8.89566C11.2844 8.87593 11.2661 8.86016 11.2452 8.84966C11.2244 8.83916 11.2015 8.83423 11.1785 8.83528C11.2006 8.87379 11.2343 8.90279 11.2737 8.91739L11.3163 8.94698ZM14.2493 11.9056L14.2775 11.9491L14.3135 12.0022C14.3268 12.0269 14.3307 12.0626 14.3688 12.0626C14.3799 12.0245 14.3567 12.0052 14.3367 11.9841L14.2991 11.9273L14.2698 11.8869C14.262 11.8663 14.2449 11.8337 14.2322 11.8446C14.2006 11.8712 14.2338 11.8893 14.2471 11.908L14.2493 11.9056ZM21.3499 15.9468C21.3574 15.9432 21.3642 15.938 21.3699 15.9315C21.3756 15.9251 21.38 15.9174 21.383 15.9091C21.386 15.9007 21.3875 15.8918 21.3873 15.8828C21.3871 15.8739 21.3853 15.865 21.382 15.8568C21.3695 15.867 21.3599 15.8807 21.3542 15.8965C21.3484 15.9123 21.3467 15.9295 21.3493 15.9462L21.3388 15.9565C21.3388 15.9565 21.3444 15.9565 21.3455 15.9565C21.3475 15.9536 21.349 15.9503 21.3499 15.9468ZM13.0252 23.1857C13.034 23.1949 13.0435 23.2034 13.0534 23.2111C13.0728 23.1911 13.0534 23.1797 13.0429 23.167C13.0335 23.1416 13.0246 23.1151 12.9975 23.1066C12.9925 23.1066 12.9798 23.1108 12.9798 23.1145C12.9754 23.1543 13.0009 23.1712 13.0252 23.1857ZM15.5802 12.1797C15.5769 12.1314 15.6356 12.1133 15.6317 12.0439C15.5952 12.094 15.5564 12.1211 15.5802 12.1803C15.5719 12.1713 15.5703 12.1495 15.5514 12.1604C15.547 12.1604 15.5448 12.1707 15.5415 12.1761L15.5802 12.1797ZM14.4369 12.161C14.4369 12.1429 14.4325 12.1242 14.4109 12.1205C14.4109 12.1205 14.4043 12.126 14.4043 12.1284C14.4045 12.133 14.4055 12.1375 14.4074 12.1416C14.4092 12.1457 14.4119 12.1493 14.4151 12.1523C14.4183 12.1552 14.4221 12.1574 14.4261 12.1587C14.4302 12.16 14.4344 12.1604 14.4386 12.1598C14.443 12.1924 14.4386 12.2316 14.4856 12.2425C14.4911 12.2002 14.4601 12.1839 14.4369 12.1634V12.161ZM10.5078 19.6366L10.4663 19.6408C10.473 19.6481 10.479 19.6601 10.4868 19.662C10.505 19.665 10.5089 19.6505 10.5067 19.633C10.4984 19.6982 10.4984 19.6982 10.5676 19.7495L10.5078 19.6366ZM15.7025 11.9684C15.7436 11.93 15.7785 11.8845 15.806 11.8337C15.8286 11.8149 15.8472 11.7911 15.8606 11.7638C15.8741 11.7365 15.8821 11.7064 15.884 11.6755L15.7905 11.8217C15.7514 11.8594 15.7179 11.9034 15.6909 11.9521C15.6721 11.9798 15.6439 12.0004 15.6389 12.0432C15.682 12.0336 15.6937 12.0016 15.7053 11.9696L15.7025 11.9684ZM20.7041 16.8676C20.6608 16.9127 20.6345 16.9739 20.6305 17.0391C20.6532 16.9787 20.7151 16.9418 20.7057 16.8664C20.7318 16.8827 20.7262 16.8579 20.7295 16.8446C20.7688 16.7967 20.7956 16.7381 20.807 16.675C20.7849 16.7354 20.7135 16.7667 20.7312 16.8477C20.7024 16.8277 20.7091 16.8537 20.7068 16.8688L20.7041 16.8676ZM7.66061 9.22956C7.57483 9.24888 7.55934 9.32254 7.54993 9.40043C7.53997 9.39077 7.53222 9.39319 7.52835 9.40647C7.52835 9.40949 7.52835 9.41371 7.53167 9.41734L7.54771 9.39741C7.59303 9.34777 7.63044 9.29022 7.65839 9.22714L7.67333 9.20963C7.67001 9.20963 7.66614 9.20661 7.66393 9.20963C7.65286 9.21325 7.65175 9.2205 7.66061 9.22956ZM20.9514 16.3839C20.895 16.4632 20.8528 16.5533 20.8269 16.6496C20.8684 16.5609 20.9431 16.4896 20.9498 16.3809C20.9581 16.3864 20.9669 16.39 20.9703 16.3761C20.9736 16.3622 20.9658 16.3652 20.9631 16.3598L20.9514 16.3839ZM17.9963 9.18125L18.4446 8.81897L18.4224 8.78818C18.2691 8.90611 18.1213 9.03246 17.9797 9.16676L17.8508 9.28752L17.8679 9.30745L17.9963 9.18125ZM23.3283 10.3888C23.3283 9.85207 23.1938 9.04781 23.0366 8.87573C23.0983 9.05481 23.1356 9.24278 23.1473 9.43364C23.0995 9.3351 23.034 9.24805 22.9547 9.17763C23.0139 9.38051 23.0831 9.57795 23.1473 9.7772C23.2143 9.97788 23.2674 10.1837 23.3061 10.3931C23.3016 10.4066 23.3006 10.4212 23.3032 10.4352C23.3059 10.4493 23.312 10.4623 23.3211 10.4728C23.3279 10.4605 23.3321 10.4466 23.3334 10.4323C23.3346 10.418 23.3329 10.4035 23.3283 10.3901V10.3888ZM21.0179 16.2632C21.0299 16.2487 21.0408 16.2331 21.0505 16.2167C21.4538 15.3878 21.799 14.5267 22.0831 13.6409C22.1545 13.4108 22.1689 13.1663 22.1888 12.9248C22.1512 13.0419 22.1246 13.1627 22.0981 13.2834C21.8601 14.2701 21.4982 15.2035 21.0726 16.1092C21.05 16.1587 21.0029 16.2016 21.0206 16.268C20.9802 16.2728 20.9791 16.3024 20.9653 16.3531C21.0079 16.3163 21.0179 16.2922 21.0179 16.2632ZM12.5819 10.893C12.593 10.8997 12.6046 10.9063 12.614 10.893C12.6086 10.8867 12.6026 10.8808 12.5963 10.8755C12.5808 10.8538 12.567 10.8296 12.5498 10.8097C12.2908 10.5104 12.0167 10.2272 11.7286 9.96136C10.9849 9.25544 10.0759 8.78905 9.1033 8.61429C8.72195 8.53998 8.32884 8.61869 7.99652 8.83588C8.03669 8.84385 8.07803 8.84137 8.11716 8.82864C8.40372 8.76258 8.69898 8.7546 8.9882 8.80509C9.59693 8.9023 10.1542 9.15227 10.6915 9.46504C11.3706 9.85932 11.9904 10.3538 12.5819 10.893ZM22.4976 11.9799C22.5601 11.5568 22.5809 11.1277 22.5596 10.6998C22.5342 10.2204 22.4628 9.75305 22.2569 9.32133C21.9752 8.73082 21.512 8.48025 20.8812 8.56176C21.5646 8.74773 21.9697 9.24405 22.2093 9.92513C22.3507 10.3465 22.435 10.7881 22.4594 11.236C22.4777 11.4775 22.4849 11.719 22.4976 11.9805V11.9799ZM20.5608 17.196L20.5392 17.1791C20.5295 17.1906 20.5205 17.2027 20.5121 17.2154C20.3405 17.5173 20.175 17.8228 19.9974 18.1211C18.812 20.0997 17.4125 21.8857 15.8934 23.5655C15.6311 23.8559 15.3661 24.1433 15.0916 24.4205C15.0716 24.4404 15.013 24.4664 15.0539 24.5129C15.0949 24.5593 15.112 24.4972 15.132 24.4778C15.314 24.3003 15.5016 24.1282 15.6721 23.938C16.4092 23.1145 17.1397 22.2848 17.8049 21.39C18.5951 20.3267 19.3992 19.2767 20.0538 18.1011C20.2199 17.7986 20.3898 17.4979 20.5585 17.1967L20.5608 17.196ZM12.7026 22.7401C11.9832 21.765 11.3047 20.753 10.5836 19.7815C11.2383 20.8092 11.944 21.7971 12.6976 22.7407L12.7026 22.7401ZM22.5707 8.77671C22.5009 8.28703 22.1069 7.9797 21.5912 8.00083C22.0355 8.10106 22.3233 8.40356 22.5707 8.77671ZM14.3279 12.3633C14.1184 11.9853 13.8651 11.6385 13.5742 11.3314C13.8099 11.6894 14.0451 12.0481 14.3279 12.3633ZM10.1398 8.16506C10.4829 8.30997 10.8011 8.51285 11.1414 8.66138C10.8238 8.45307 10.5194 8.2188 10.1398 8.16506ZM22.9968 11.8688C23.1075 11.466 23.0947 11.0542 23.0665 10.6412C23.0593 11.0494 23.0411 11.4612 22.9968 11.8688ZM9.1022 8.00445C9.53218 8.05034 9.93229 8.20793 10.3307 8.36673C9.93395 8.19042 9.54602 7.97849 9.1022 8.00325V8.00445ZM20.9802 16.6931L20.7445 17.155L20.7694 17.1695C20.8581 17.0212 20.9289 16.8611 20.9802 16.6931ZM22.7538 13.8522C22.6581 13.9887 22.6487 14.0195 22.6565 14.1722C22.6891 14.0684 22.7212 13.9591 22.7538 13.8522ZM21.159 16.3833L21.128 16.3664L20.9852 16.6726L21.0168 16.6889C21.0766 16.5945 21.1245 16.4917 21.159 16.3833ZM21.227 16.2173C21.203 16.2349 21.1832 16.2586 21.1693 16.2863C21.1554 16.3141 21.1479 16.3451 21.1474 16.3767C21.2005 16.3423 21.2149 16.3024 21.227 16.2173ZM10.9489 8.70244C10.9832 8.74229 11.0136 8.77611 11.0728 8.7592C11.0363 8.71633 11.0048 8.68674 10.9489 8.70244ZM11.0595 8.77188C11.1016 8.81113 11.1254 8.85339 11.189 8.82864C11.1509 8.79724 11.1287 8.75497 11.0607 8.77188H11.0595ZM20.6083 17.0608C20.5845 17.088 20.553 17.1127 20.5563 17.1659C20.5724 17.1545 20.5856 17.1389 20.5946 17.1206C20.6037 17.1022 20.6084 17.0817 20.6083 17.0608ZM21.4534 15.7041H21.4489V15.7119L21.4534 15.7041ZM7.51506 9.44934C7.51506 9.44934 7.50953 9.45296 7.50898 9.45538C7.50842 9.45779 7.50898 9.46021 7.5134 9.46323C7.51783 9.46624 7.51949 9.459 7.51949 9.45658C7.51949 9.45417 7.51506 9.45175 7.51506 9.44934Z" fill="#181818"/>
<path d="M4.31152 18.7L4.32682 18.6917C4.32682 18.7018 4.32682 18.7024 4.31862 18.6946L4.31207 18.7006L4.31152 18.7Z" fill="#F8F2EA"/>
<path d="M16.8591 11.5542L16.8236 11.5645L16.8004 11.5439C17.2407 10.9879 17.7163 10.4663 18.2237 9.98313C18.2447 9.96387 18.2717 9.95433 18.299 9.95657C17.9797 10.3122 17.6305 10.6352 17.3505 11.0386C17.4141 11.0579 17.434 10.9975 17.4611 10.9667C18.0416 10.3484 18.6939 9.81597 19.4013 9.38296C19.7721 9.16167 20.1765 9.01541 20.595 8.95125C21.0565 8.87637 21.419 9.06476 21.7018 9.44334C22.1002 9.98132 22.2613 10.6069 22.2236 11.2958C22.1683 12.3391 21.8916 13.3233 21.5402 14.2858C20.9868 15.8007 20.2347 17.1961 19.398 18.5407C18.4845 19.9928 17.4721 21.3677 16.3693 22.6538C15.9692 23.1254 15.5503 23.577 15.1264 24.0232C15.071 24.0806 15.0506 24.0588 15.0052 24.0184C14.4822 23.545 14.0273 22.9968 13.5636 22.4582C13.0589 21.8731 12.5376 21.3049 12.0506 20.7017C11.2939 19.7551 10.6001 18.7509 9.97429 17.6966C9.74961 17.3229 9.48786 16.9769 9.24326 16.6177C8.98121 16.2314 8.7519 15.8199 8.55816 15.3883C8.21339 14.6239 7.87527 13.8571 7.61739 13.0522C7.42791 12.4654 7.30597 11.8551 7.25436 11.2354C7.25436 11.2076 7.24606 11.1799 7.24219 11.1515H7.27428C7.31911 11.7432 7.46244 12.3108 7.64561 12.8657C8.15971 14.4259 8.9317 15.8297 9.8459 17.1454C9.85254 17.155 9.86029 17.1641 9.86638 17.1744C9.8863 17.207 9.92172 17.2347 9.94828 17.2142C9.98978 17.184 9.94828 17.1508 9.93112 17.1248C9.73799 16.8338 9.54762 16.541 9.37054 16.2379C8.75613 15.2047 8.27217 14.0858 7.93172 12.9115C7.72419 12.181 7.59083 11.4359 7.62126 10.666C7.62845 10.3749 7.68298 10.0874 7.7823 9.81709C8.02247 9.18914 8.51056 8.91683 9.11764 9.0714C9.85918 9.26039 10.5227 9.63716 11.1541 10.087C12.1076 10.7663 12.9449 11.5965 13.7351 12.4847C14.1375 12.9369 14.5049 13.423 14.9045 13.8776C14.9117 13.8867 14.92 13.8951 14.9266 13.9048C15.0406 14.0642 15.0627 14.0702 15.1812 13.9048C15.4368 13.5492 15.6698 13.1748 15.9227 12.818C16.226 12.3893 16.5774 12.0052 16.8751 11.5723C16.8801 11.5615 16.9 11.5518 16.879 11.5391C16.8751 11.5325 16.8674 11.5476 16.8591 11.5542Z" fill="#F8F2EA"/>
<path d="M12.5819 10.8931C11.9903 10.3539 11.3705 9.85943 10.6893 9.46274C10.1519 9.14997 9.59357 8.9 8.98594 8.80279C8.69673 8.7523 8.40147 8.76028 8.1149 8.82634C8.07577 8.83907 8.03444 8.84156 7.99426 8.83358C8.32659 8.61639 8.7197 8.53769 9.10105 8.61199C10.0737 8.78675 10.9826 9.25314 11.7263 9.95906C12.0156 10.225 12.2908 10.5084 12.5509 10.808C12.5681 10.8279 12.5819 10.8521 12.5974 10.8738L12.5819 10.8931Z" fill="#F8F2EA"/>
<path d="M22.4977 11.9804C22.485 11.719 22.4778 11.4775 22.4606 11.2366C22.4361 10.7887 22.3518 10.3471 22.2105 9.92573C21.9697 9.24464 21.5647 8.74832 20.8823 8.56235C21.5132 8.48084 21.9764 8.73142 22.2581 9.32193C22.4639 9.75365 22.5348 10.221 22.5608 10.7004C22.5817 11.1283 22.5606 11.5574 22.4977 11.9804Z" fill="#F8F2EA"/>
<path d="M20.5585 17.1967C20.3897 17.4986 20.2198 17.8005 20.0516 18.1024C19.3969 19.2762 18.5929 20.328 17.8026 21.3913C17.1385 22.2861 16.407 23.1157 15.6698 23.9393C15.4994 24.1295 15.3118 24.3016 15.1297 24.4791C15.1098 24.4984 15.0866 24.5528 15.0517 24.5141C15.0168 24.4755 15.0694 24.4417 15.0893 24.4218C15.366 24.1446 15.6289 23.8572 15.8912 23.5668C17.4103 21.887 18.8098 20.101 19.9952 18.1223C20.1728 17.8259 20.3383 17.5185 20.5098 17.2166C20.5182 17.204 20.5273 17.1919 20.5369 17.1804L20.5585 17.1967Z" fill="#F8F2EA"/>
<path d="M12.6976 22.7408C11.9423 21.7975 11.2349 20.8099 10.5786 19.7822C11.2997 20.7537 11.9765 21.7657 12.6976 22.7408Z" fill="#F8F2EA"/>
<path d="M13.7972 23.0493C14.0567 23.3011 14.303 23.5686 14.578 23.8016C14.6953 23.9001 14.811 24.0003 14.93 24.0963C14.9853 24.1404 15.0113 24.173 14.9333 24.2219C14.9045 24.2394 14.8874 24.2823 14.8608 24.3161C14.4797 23.9215 14.1192 23.5038 13.7811 23.065L13.7972 23.0493Z" fill="#F8F2EA"/>
<path d="M21.0206 16.2662C21.0029 16.1998 21.05 16.1569 21.0726 16.1074C21.4982 15.2017 21.8601 14.2683 22.0981 13.2816C22.1263 13.1609 22.1534 13.0401 22.1888 12.9248C22.1689 13.1663 22.1545 13.4109 22.0831 13.6409C21.799 14.5267 21.4538 15.3878 21.0505 16.2167C21.0408 16.2331 21.0299 16.2487 21.0179 16.2632L21.0206 16.2662Z" fill="#F8F2EA"/>
<path d="M23.3067 10.3925C23.2679 10.1832 23.2149 9.97729 23.1479 9.77661C23.0837 9.57736 23.0145 9.37992 22.9553 9.17704C23.0347 9.24799 23.1002 9.33567 23.1479 9.43486C23.1362 9.244 23.0989 9.05604 23.0372 8.87695C23.1944 9.04904 23.3311 9.85329 23.3289 10.3901L23.3067 10.3925Z" fill="#F8F2EA"/>
<path d="M22.5707 8.7769C22.3233 8.40376 22.0356 8.10125 21.5912 8.00102C22.1069 7.97989 22.501 8.28722 22.5707 8.7769Z" fill="#F8F2EA"/>
<path d="M14.3279 12.3634C14.044 12.0482 13.81 11.6896 13.5742 11.3315C13.8652 11.6386 14.1185 11.9855 14.3279 12.3634Z" fill="#F8F2EA"/>
<path d="M10.1398 8.16504C10.5194 8.21878 10.8238 8.45547 11.1414 8.66136C10.8011 8.51343 10.4829 8.30995 10.1398 8.16504Z" fill="#F8F2EA"/>
<path d="M22.9968 11.8689C23.0411 11.4613 23.0594 11.0519 23.0666 10.6414C23.0948 11.0544 23.1064 11.4661 22.9968 11.8689Z" fill="#F8F2EA"/>
<path d="M9.10217 8.0032C9.54489 7.97845 9.93226 8.19038 10.3307 8.36548C9.93171 8.20668 9.53216 8.04909 9.10217 8.0032Z" fill="#F8F2EA"/>
<path d="M17.9825 9.16447C18.1241 9.03017 18.2719 8.90381 18.4253 8.78589L18.4474 8.81668L17.9991 9.17896L17.9825 9.16447Z" fill="#F8F2EA"/>
<path d="M20.9803 16.6931C20.929 16.8611 20.8581 17.0212 20.7694 17.1695L20.7445 17.155L20.9803 16.6931Z" fill="#F8F2EA"/>
<path d="M22.7539 13.8523C22.7212 13.9593 22.6891 14.0663 22.6564 14.1727C22.6487 14.0197 22.6581 13.9889 22.7539 13.8523Z" fill="#F8F2EA"/>
<path d="M21.1592 16.3834C21.125 16.4918 21.0774 16.5947 21.0179 16.6892L20.9863 16.6729L21.1293 16.3665L21.1592 16.3834Z" fill="#5A5A5A"/>
<path d="M7.27484 11.1498H7.24274C7.22356 11.0036 7.22711 10.855 7.25325 10.7102L7.27484 11.1498Z" fill="#5A5A5A"/>
<path d="M20.9499 16.3811C20.9432 16.4899 20.8685 16.5624 20.8269 16.6501C20.8527 16.5537 20.895 16.4634 20.9516 16.3841L20.9499 16.3811Z" fill="#F8F2EA"/>
<path d="M7.54883 9.40079C7.55935 9.32282 7.57487 9.24908 7.65963 9.22974C7.63164 9.29288 7.59419 9.35049 7.54883 9.40019V9.40079Z" fill="#F8F2EA"/>
<path d="M17.9964 9.18132L17.8707 9.30221L17.8535 9.28227L17.9826 9.16138L17.9964 9.18132Z" fill="#F8F2EA"/>
<path d="M15.7933 11.823L15.887 11.6768C15.885 11.7077 15.877 11.7378 15.8636 11.7651C15.8501 11.7924 15.8314 11.8163 15.8088 11.8351C15.8039 11.8308 15.7987 11.8267 15.7933 11.823Z" fill="#F8F2EA"/>
<path d="M17.7384 9.43689C17.7257 9.35287 17.8038 9.35045 17.842 9.31177L17.7384 9.43689Z" fill="#F8F2EA"/>
<path d="M20.7307 16.8462C20.7129 16.7652 20.786 16.7326 20.8065 16.6733C20.7952 16.7367 20.7682 16.7954 20.7284 16.8432L20.7307 16.8462Z" fill="#F8F2EA"/>
<path d="M20.7052 16.8665C20.7146 16.942 20.6498 16.9807 20.6299 17.0393C20.6351 16.974 20.6626 16.9132 20.7069 16.8689L20.7052 16.8665Z" fill="#F8F2EA"/>
<path d="M15.809 11.8344C15.7815 11.8852 15.7464 11.9307 15.7054 11.9691L15.6937 11.9528C15.7207 11.9041 15.7543 11.86 15.7934 11.8223C15.7988 11.8259 15.804 11.83 15.809 11.8344Z" fill="#F8F2EA"/>
<path d="M13.5222 11.2911C13.4811 11.2644 13.4487 11.2242 13.4297 11.1763L13.448 11.1497C13.4801 11.1775 13.5167 11.2022 13.5272 11.25L13.5222 11.2911Z" fill="#5A5A5A"/>
<path d="M12.794 22.8575C12.7429 22.8575 12.7352 22.8017 12.712 22.7656C12.7308 22.7741 12.7477 22.7869 12.7615 22.8032C12.7753 22.8194 12.7856 22.8388 12.7918 22.8599L12.794 22.8575Z" fill="#F8F2EA"/>
<path d="M21.2271 16.2173C21.2149 16.2995 21.2005 16.3424 21.1473 16.3769C21.1479 16.3452 21.1554 16.3142 21.1693 16.2864C21.1832 16.2586 21.203 16.2349 21.2271 16.2173Z" fill="#5A5A5A"/>
<path d="M10.9489 8.70251C11.0043 8.6868 11.0364 8.71641 11.0729 8.75933C11.0137 8.77626 10.9832 8.74241 10.9489 8.70251Z" fill="#5A5A5A"/>
<path d="M11.0607 8.77187C11.1288 8.75736 11.151 8.79726 11.1903 8.82869C11.1266 8.85347 11.1028 8.81116 11.0607 8.77187Z" fill="#5A5A5A"/>
<path d="M11.2733 8.92243C11.2338 8.90781 11.2001 8.87878 11.178 8.84023C11.201 8.83918 11.2239 8.84412 11.2448 8.85463C11.2657 8.86513 11.284 8.88092 11.2982 8.90067L11.2733 8.92243Z" fill="#5A5A5A"/>
<path d="M10.51 19.6379L10.5702 19.7518C10.5012 19.7006 10.5012 19.7006 10.5095 19.6355L10.51 19.6379Z" fill="#F8F2EA"/>
<path d="M14.4369 12.1636C14.46 12.184 14.4919 12.2002 14.4853 12.2446C14.438 12.2338 14.4429 12.1948 14.4385 12.1624L14.4369 12.1636Z" fill="#5A5A5A"/>
<path d="M20.6083 17.0608C20.6084 17.0816 20.6037 17.1021 20.5946 17.1205C20.5856 17.1388 20.5724 17.1543 20.5564 17.1656C20.5509 17.1126 20.5846 17.0873 20.6083 17.0608Z" fill="#F8F2EA"/>
<path d="M15.5802 12.183C15.5564 12.1225 15.5952 12.0966 15.6317 12.0464C15.6345 12.1159 15.5763 12.134 15.5802 12.1824V12.183Z" fill="#F8F2EA"/>
<path d="M18.3876 9.89786C18.3617 9.92308 18.3441 9.95791 18.2946 9.96271C18.2946 9.90627 18.3325 9.89305 18.3672 9.87744L18.3876 9.89786Z" fill="#F8F2EA"/>
<path d="M12.8149 22.9393C12.8326 22.9249 12.8508 22.9068 12.8602 22.9478C12.8623 22.9546 12.8649 22.9612 12.8679 22.9676V22.9646C12.8622 22.9608 12.8561 22.9576 12.8497 22.955C12.8381 22.9508 12.8326 22.9285 12.8155 22.9405L12.8149 22.9393Z" fill="#F8F2EA"/>
<path d="M13.025 23.1854C13.0008 23.1686 12.9755 23.1518 12.9799 23.1146C12.9799 23.111 12.9925 23.105 12.9975 23.1068C13.0245 23.1152 13.0333 23.1416 13.0426 23.1668L13.025 23.1854Z" fill="#5A5A5A"/>
<path d="M17.5365 9.57885C17.5552 9.55243 17.5679 9.5188 17.6058 9.5188L17.6158 9.53261C17.6158 9.57285 17.5805 9.58125 17.5563 9.59867L17.5365 9.57885Z" fill="#5A5A5A"/>
<path d="M15.7049 11.9696C15.6933 12.0014 15.6818 12.0332 15.6416 12.044C15.6466 12.0014 15.6746 11.984 15.6933 11.9534L15.7049 11.9696Z" fill="#F8F2EA"/>
<path d="M21.3499 15.9458C21.3474 15.9292 21.349 15.9121 21.3547 15.8964C21.3605 15.8807 21.37 15.8671 21.3824 15.8569C21.3857 15.8651 21.3875 15.8739 21.3877 15.8828C21.3879 15.8917 21.3864 15.9006 21.3835 15.9089C21.3805 15.9172 21.3761 15.9248 21.3704 15.9312C21.3647 15.9377 21.358 15.9428 21.3505 15.9464L21.3499 15.9458Z" fill="#5A5A5A"/>
<path d="M21.0176 16.2632C21.0176 16.292 21.0077 16.316 20.9664 16.3509C20.9791 16.3004 20.9802 16.271 21.0215 16.2662L21.0176 16.2632Z" fill="#F8F2EA"/>
<path d="M14.3327 11.9866C14.3525 12.0076 14.3756 12.0268 14.3646 12.0646C14.3283 12.0646 14.3244 12.0292 14.3096 12.0046L14.3327 11.9866Z" fill="#5A5A5A"/>
<path d="M20.6476 17.3184C20.6575 17.2895 20.6624 17.2583 20.6927 17.2439L20.7147 17.2655C20.6999 17.2895 20.6845 17.313 20.669 17.337L20.6476 17.3184Z" fill="#5A5A5A"/>
<path d="M14.4383 12.1619C14.4342 12.1625 14.43 12.1622 14.426 12.1609C14.4219 12.1596 14.4182 12.1574 14.415 12.1545C14.4118 12.1516 14.4092 12.148 14.4074 12.1439C14.4055 12.1398 14.4045 12.1354 14.4043 12.1308C14.4043 12.1308 14.4087 12.123 14.4109 12.123C14.4323 12.1266 14.4344 12.1452 14.4366 12.1631L14.4383 12.1619Z" fill="#5A5A5A"/>
<path d="M13.5221 11.2908L13.527 11.25C13.5441 11.2704 13.5821 11.2854 13.565 11.3161C13.548 11.3467 13.5348 11.3058 13.5221 11.2908Z" fill="#F8F2EA"/>
<path d="M14.2951 11.9299L14.3325 11.9864L14.311 12.0044L14.2753 11.9516L14.2951 11.9299Z" fill="#5A5A5A"/>
<path d="M14.247 11.9086C14.2337 11.8893 14.2006 11.8712 14.2282 11.8483C14.2409 11.8375 14.258 11.87 14.2657 11.8905L14.247 11.9086Z" fill="#5A5A5A"/>
<path d="M12.9051 10.4631C12.9448 10.4583 12.9089 10.5234 12.947 10.5186H12.9514C12.9597 10.4674 12.9001 10.5083 12.8962 10.471L12.9051 10.4631Z" fill="#F8F2EA"/>
<path d="M12.8984 10.4728L12.847 10.4294C12.8519 10.4252 12.8563 10.4206 12.8603 10.4155C12.8715 10.4171 12.8819 10.4226 12.89 10.4312C12.898 10.4397 12.9033 10.451 12.905 10.4631L12.8984 10.4728Z" fill="#F8F2EA"/>
<path d="M23.3067 10.3926H23.3282C23.3327 10.4059 23.3345 10.4201 23.3334 10.4342C23.3322 10.4484 23.3282 10.462 23.3216 10.4742C23.3121 10.4636 23.3057 10.4503 23.3031 10.4358C23.3005 10.4213 23.3017 10.4063 23.3067 10.3926Z" fill="#5A5A5A"/>
<path d="M11.298 8.89868L11.335 8.92639L11.3157 8.94988L11.2732 8.92217L11.298 8.89868Z" fill="#5A5A5A"/>
<path d="M12.7551 10.2755L12.7683 10.3279C12.7601 10.3279 12.7496 10.3249 12.7446 10.3195C12.7297 10.3008 12.7352 10.2851 12.7545 10.2749L12.7551 10.2755Z" fill="#F8F2EA"/>
<path d="M18.4196 9.86107L18.3881 9.89782L18.3677 9.87734L18.4058 9.8418L18.4196 9.86107Z" fill="#F8F2EA"/>
<path d="M14.2665 11.8894L14.2957 11.9298L14.2758 11.9514L14.2477 11.9087L14.2665 11.8894Z" fill="#5A5A5A"/>
<path d="M21.4549 15.7042L21.4512 15.7118L21.449 15.7036L21.4549 15.7042Z" fill="#5A5A5A"/>
<path d="M17.5313 9.62261L17.4921 9.65514L17.4756 9.63406L17.5153 9.59912L17.5313 9.62261Z" fill="#5A5A5A"/>
<path d="M20.693 17.2436C20.6923 17.2355 20.6942 17.2273 20.6985 17.2204C20.7027 17.2136 20.709 17.2086 20.7162 17.2063C20.7174 17.2097 20.7193 17.2128 20.7216 17.2154C20.724 17.218 20.7269 17.22 20.73 17.2214C20.7405 17.2424 20.73 17.2545 20.7151 17.2653L20.693 17.2436Z" fill="#5A5A5A"/>
<path d="M17.7181 9.4565C17.695 9.4565 17.6713 9.48352 17.6482 9.4565C17.6708 9.4565 17.6939 9.43188 17.717 9.4565H17.7181Z" fill="#F8F2EA"/>
<path d="M14.1848 11.8076C14.1758 11.8038 14.1672 11.799 14.1591 11.7932C14.1591 11.7932 14.1591 11.7789 14.1645 11.7777C14.1677 11.7766 14.171 11.7762 14.1743 11.7765C14.1775 11.7768 14.1807 11.7778 14.1836 11.7795C14.1865 11.7811 14.1891 11.7834 14.1912 11.7862C14.1933 11.789 14.1949 11.7922 14.1958 11.7956L14.1848 11.8076Z" fill="#5A5A5A"/>
<path d="M10.5093 19.6355C10.5093 19.6529 10.5093 19.6673 10.4895 19.6643C10.4818 19.6643 10.4757 19.6505 10.4691 19.6433L10.5104 19.6385C10.5099 19.6376 10.5095 19.6366 10.5093 19.6355Z" fill="#F8F2EA"/>
<path d="M16.7976 11.5845C16.7909 11.6068 16.7727 11.617 16.76 11.6002C16.7473 11.5833 16.7749 11.5779 16.7827 11.5664C16.7876 11.5724 16.792 11.5785 16.7976 11.5845Z" fill="#F8F2EA"/>
<path d="M20.6508 17.3652L20.625 17.394C20.6096 17.3742 20.6206 17.3604 20.6332 17.3472L20.6508 17.3652Z" fill="#5A5A5A"/>
<path d="M15.5799 12.182L15.5415 12.1784C15.5448 12.173 15.547 12.1653 15.5514 12.1629C15.57 12.1521 15.5717 12.1736 15.5799 12.1826V12.182Z" fill="#F8F2EA"/>
<path d="M12.8182 22.879C12.8347 22.9 12.8623 22.9223 12.8149 22.9392C12.8303 22.9181 12.7823 22.8916 12.8193 22.8735L12.8182 22.879Z" fill="#F8F2EA"/>
<path d="M12.7543 10.2749C12.7455 10.2815 12.7543 10.3084 12.7329 10.2994C12.7274 10.2994 12.723 10.2911 12.7186 10.2863L12.7548 10.2755L12.7543 10.2749Z" fill="#F8F2EA"/>
<path d="M21.4166 15.7766L21.4111 15.8097C21.3889 15.7932 21.4111 15.7873 21.4176 15.7778L21.4166 15.7766Z" fill="#5A5A5A"/>
<path d="M13.0427 23.1694C13.0542 23.182 13.0723 23.1934 13.0531 23.2131C13.0432 23.2055 13.0339 23.1971 13.0251 23.188L13.0427 23.1694Z" fill="#5A5A5A"/>
<path d="M20.9515 16.3829L20.9632 16.3599C20.966 16.3651 20.9716 16.3708 20.9705 16.3754C20.9694 16.3801 20.9582 16.3853 20.9498 16.3801L20.9515 16.3829Z" fill="#F8F2EA"/>
<path d="M7.66082 9.2293C7.65166 9.22043 7.65281 9.21333 7.66369 9.20801C7.66369 9.20801 7.66999 9.20801 7.67342 9.20801L7.65796 9.22516L7.66082 9.2293Z" fill="#F8F2EA"/>
<path d="M17.7377 9.43637C17.7215 9.43165 17.7155 9.43637 17.7182 9.45588C17.7139 9.44761 17.7047 9.43638 17.7069 9.43224C17.7182 9.41214 17.728 9.42751 17.7372 9.43637H17.7377Z" fill="#F8F2EA"/>
<path d="M7.5153 9.44946C7.5153 9.44946 7.52043 9.45464 7.51986 9.45636C7.51929 9.45808 7.51587 9.46038 7.51359 9.46268C7.51131 9.46498 7.50903 9.45751 7.50903 9.45521C7.50903 9.45291 7.51188 9.45119 7.5153 9.44946Z" fill="#F8F2EA"/>
<path d="M17.648 9.45654C17.648 9.46492 17.671 9.4715 17.6518 9.48167C17.6441 9.48585 17.6332 9.48167 17.6233 9.48167C17.6441 9.48884 17.6452 9.4709 17.6491 9.45654H17.648Z" fill="#F8F2EA"/>
<path d="M17.6233 9.48267C17.6497 9.50428 17.6266 9.5175 17.6161 9.53251L17.6062 9.5187C17.6123 9.50669 17.6183 9.49468 17.6238 9.48267H17.6233Z" fill="#F8F2EA"/>
<path d="M17.5561 9.60006L17.5336 9.62339L17.5177 9.60006L17.5363 9.58032L17.5561 9.60006Z" fill="#5A5A5A"/>
<path d="M20.7068 16.8683C20.7068 16.8536 20.7022 16.8282 20.7314 16.8477C20.7314 16.8607 20.7343 16.8849 20.7074 16.8689L20.7068 16.8683Z" fill="#F8F2EA"/>
<path d="M17.4551 9.66054L17.4776 9.63721L17.494 9.65814L17.4721 9.68087C17.466 9.6713 17.4606 9.66472 17.4551 9.66054Z" fill="#5A5A5A"/>
<path d="M13.4296 11.1767L13.4087 11.1509L13.4225 11.1287L13.4478 11.1503L13.4296 11.1767Z" fill="#5A5A5A"/>
<path d="M13.4085 11.1502C13.3987 11.1408 13.3873 11.1302 13.4009 11.116C13.4009 11.116 13.415 11.1242 13.422 11.1284L13.4085 11.1502Z" fill="#5A5A5A"/>
<path d="M20.7163 17.2079C20.7245 17.1989 20.7273 17.172 20.7443 17.1887C20.7613 17.2055 20.7399 17.2133 20.73 17.2228C20.7269 17.2215 20.7241 17.2195 20.7217 17.2169C20.7194 17.2143 20.7175 17.2113 20.7163 17.2079Z" fill="#F8F2EA"/>
<path d="M17.4341 9.68344L17.4549 9.65771C17.4604 9.66489 17.4659 9.67147 17.4719 9.67805L17.4483 9.69899L17.4341 9.68344Z" fill="#5A5A5A"/>
<path d="M17.4482 9.69915L17.4257 9.72307L17.412 9.70752L17.4339 9.68359L17.4482 9.69915Z" fill="#5A5A5A"/>
<path d="M20.6333 17.3468L20.6476 17.3186L20.6691 17.3372L20.6509 17.3648L20.6333 17.3468Z" fill="#5A5A5A"/>
<path d="M17.4253 9.72074C17.4171 9.7243 17.4035 9.7326 17.4019 9.73023C17.3932 9.71837 17.4019 9.71125 17.4117 9.70532L17.4253 9.72074Z" fill="#5A5A5A"/>
<path d="M13.3758 11.0652C13.384 11.0748 13.3994 11.0843 13.384 11.0975C13.3687 11.1106 13.3638 11.0903 13.3561 11.0813L13.3758 11.0652Z" fill="#5A5A5A"/>
<path d="M18.4059 9.84195C18.4151 9.84195 18.4292 9.83722 18.4324 9.84195C18.4357 9.84668 18.4292 9.85909 18.4194 9.86146L18.4059 9.84195Z" fill="#F8F2EA"/>
<path d="M13.3388 11.0559L13.3257 11.0234L13.3526 11.0435L13.3388 11.0559Z" fill="#5A5A5A"/>
<path d="M13.3267 11.0228L13.3135 11.0107C13.3165 11.0107 13.3201 11.0107 13.3219 11.0107C13.3242 11.0138 13.3263 11.0171 13.3279 11.0205L13.3267 11.0228Z" fill="#5A5A5A"/>
<path d="M12.596 10.873C12.6022 10.8783 12.608 10.884 12.6133 10.8902C12.6041 10.9056 12.5927 10.8991 12.5819 10.8902L12.596 10.873Z" fill="#F8F2EA"/>
<path d="M12.8019 10.3845C12.7948 10.3733 12.7759 10.3644 12.7959 10.3496C12.7959 10.3496 12.8084 10.3626 12.8149 10.3697C12.8101 10.3742 12.8058 10.3791 12.8019 10.3845Z" fill="#F8F2EA"/>
<path d="M12.8153 10.3672C12.8182 10.3671 12.8211 10.3675 12.8239 10.3686C12.8266 10.3697 12.8292 10.3714 12.8313 10.3736C12.8335 10.3758 12.8352 10.3784 12.8364 10.3813C12.8376 10.3842 12.8382 10.3874 12.8383 10.3905C12.8335 10.3957 12.8291 10.4013 12.8252 10.4073L12.8021 10.3822C12.8061 10.3768 12.8105 10.3717 12.8153 10.3672Z" fill="#F8F2EA"/>
<path d="M14.1962 11.7957L14.2063 11.8182L14.1851 11.8072L14.1962 11.7957Z" fill="#5A5A5A"/>
<path d="M12.9471 10.5185L12.952 10.5132V10.5196L12.9471 10.5185Z" fill="#F8F2EA"/>
<path d="M16.8236 11.5644L16.7976 11.5843C16.7921 11.5783 16.7877 11.5723 16.7827 11.5662L16.8004 11.5439L16.8236 11.5644Z" fill="#F8F2EA"/>
<path d="M7.54683 9.39726L7.53063 9.41631C7.53063 9.41285 7.52672 9.4088 7.52728 9.40592C7.53119 9.39322 7.53901 9.39091 7.54907 9.40015L7.54683 9.39726Z" fill="#F8F2EA"/>
<path d="M13.3526 11.0427L13.3757 11.0649L13.3559 11.081C13.3499 11.0732 13.3444 11.0649 13.3384 11.0565L13.3526 11.0427Z" fill="#5A5A5A"/>
<path d="M21.4181 15.7768L21.423 15.7688L21.4169 15.7758L21.4181 15.7768Z" fill="#5A5A5A"/>
<path d="M11.3333 8.92651C11.3415 8.93489 11.3601 8.93967 11.347 8.95702C11.3338 8.97437 11.324 8.95702 11.3141 8.94984L11.3333 8.92651Z" fill="#5A5A5A"/>
<path d="M13.7633 23.0372C13.753 23.029 13.737 23.0219 13.7565 23.0071C13.7565 23.0071 13.7679 23.0195 13.7742 23.026L13.7633 23.0372Z" fill="#F8F2EA"/>
<path d="M13.7732 23.0264L13.7968 23.0491L13.7809 23.0653L13.7628 23.0377L13.7732 23.0264Z" fill="#F8F2EA"/>
<path d="M11.3825 8.99925C11.3754 8.98967 11.3562 8.98489 11.3688 8.96814C11.3814 8.95139 11.3913 8.96814 11.4012 8.97532L11.3825 8.99925Z" fill="#5A5A5A"/>
<path d="M21.3504 15.9466C21.3494 15.9496 21.3479 15.9523 21.3458 15.9547C21.3458 15.9547 21.3412 15.9547 21.3389 15.9547L21.3498 15.9456L21.3504 15.9466Z" fill="#5A5A5A"/>
<path d="M11.4011 8.97534C11.4054 8.98362 11.4152 8.99485 11.413 8.99958C11.4044 9.01613 11.393 9.00785 11.3827 8.99958L11.4011 8.97534Z" fill="#5A5A5A"/>
<path d="M13.1009 23.2754L13.0883 23.2517L13.1124 23.2636L13.1009 23.2754Z" fill="#5A5A5A"/>
<path d="M13.1114 23.2637L13.1334 23.2882C13.129 23.2924 13.1251 23.2972 13.1207 23.302L13.1005 23.2756L13.1114 23.2637Z" fill="#5A5A5A"/>
<path d="M13.1342 23.2883L13.1428 23.3132L13.121 23.302C13.1256 23.2972 13.1296 23.2925 13.1342 23.2883Z" fill="#5A5A5A"/>
<path d="M12.8468 10.4289L12.8254 10.4074C12.8294 10.4014 12.8338 10.3958 12.8386 10.3907C12.8415 10.3905 12.8445 10.391 12.8472 10.3922C12.85 10.3933 12.8525 10.3952 12.8545 10.3975C12.8566 10.3998 12.8581 10.4026 12.859 10.4057C12.86 10.4087 12.8603 10.412 12.86 10.4152C12.856 10.4202 12.8516 10.4248 12.8468 10.4289Z" fill="#F8F2EA"/>
<path d="M12.7922 22.8603C12.807 22.8561 12.8136 22.8663 12.8175 22.8794L12.8202 22.8747C12.8131 22.8747 12.8131 22.8992 12.8005 22.8848C12.7879 22.8705 12.7961 22.8669 12.7944 22.8579L12.7922 22.8603Z" fill="#F8F2EA"/>
<path d="M16.8591 11.5538C16.8651 11.5473 16.8748 11.5343 16.8776 11.5355C16.8981 11.5479 16.8775 11.5573 16.8738 11.568L16.8591 11.5538Z" fill="#181818"/>
</svg>
