<svg width="22" height="22" viewBox="0 0 22 22" fill="none" xmlns="http://www.w3.org/2000/svg">
<path d="M12.7557 12.7077C12.5785 12.694 12.425 12.537 12.3858 12.3372C12.3483 12.1462 12.4289 11.9996 12.5613 11.8689C12.6643 11.7653 12.7863 11.682 12.867 11.5546C13.0839 11.2141 13.2526 10.847 13.3684 10.4632C13.4253 10.2708 13.5111 10.0885 13.5745 9.89994C13.6423 9.69506 13.6699 9.47978 13.656 9.26512C13.6452 8.96756 13.6036 8.67178 13.5318 8.3822C13.4667 8.13785 13.3494 7.91223 13.236 7.68494C13.0795 7.36982 12.8411 7.1238 12.5802 6.89069C12.3552 6.68963 12.0883 6.56808 11.808 6.45901C11.3264 6.27127 10.8508 6.30915 10.3657 6.44944C10.0247 6.5481 9.74745 6.73542 9.49177 6.96187C8.91098 7.4768 8.62167 8.13035 8.51689 8.87382C8.46515 9.24264 8.44575 9.61021 8.51689 9.9782C8.52638 10.0265 8.54147 10.0739 8.5544 10.1214C8.67288 10.5288 8.88049 10.907 9.16322 11.2304C9.31222 11.4144 9.47277 11.5894 9.64397 11.7544C9.71232 11.8134 9.76604 11.8864 9.80112 11.9681C9.83621 12.0499 9.85176 12.1382 9.84662 12.2265C9.838 12.3659 9.75651 12.4671 9.65906 12.5616C9.61594 12.6032 9.54394 12.612 9.52971 12.6798C9.42925 12.6732 9.32922 12.6603 9.22789 12.6611C8.75361 12.6665 8.28449 12.7048 7.81107 12.7002C7.35101 12.6961 6.89138 12.7368 6.43133 12.7418C5.87081 12.7485 5.30684 12.7743 4.74502 12.7964C4.26384 12.8151 3.78222 12.8001 3.30147 12.823C3.24455 12.8259 3.18764 12.8255 3.129 12.8263C3.00166 12.8121 2.87992 12.7678 2.77458 12.6973C2.57839 12.5724 2.50423 12.3888 2.50208 12.1695C2.49992 11.9422 2.62194 11.7761 2.78492 11.6316C2.87116 11.5534 2.98499 11.5355 3.10097 11.5276C3.52869 11.4972 3.95814 11.5172 4.38629 11.488C4.64499 11.4705 4.90369 11.4464 5.15938 11.4522C5.61857 11.4601 6.07561 11.4069 6.53351 11.4185C6.84482 11.4264 7.15483 11.401 7.48209 11.4206C7.39973 11.3015 7.32298 11.1958 7.25227 11.0876C6.95326 10.6353 6.74552 10.1325 6.64001 9.60563C6.55378 9.16272 6.51066 8.70939 6.57706 8.25815C6.67795 7.58878 6.89526 6.95646 7.29453 6.39532C7.49157 6.11892 7.70974 5.85417 7.97836 5.63854C8.24698 5.42291 8.51129 5.21227 8.82432 5.06949C9.16925 4.9113 9.52109 4.75312 9.90224 4.68443C10.3226 4.60784 10.7452 4.52042 11.1763 4.55206C11.8059 4.59743 12.4181 4.71857 12.9873 4.99456C13.2601 5.12783 13.5192 5.28604 13.7608 5.46703C14.0699 5.69765 14.3579 5.95407 14.5856 6.2617C14.7624 6.50106 14.9443 6.74125 15.0702 7.01099C15.2513 7.40021 15.4048 7.80191 15.4531 8.22693C15.5066 8.69899 15.5333 9.17687 15.4329 9.64601C15.3281 10.1335 15.1871 10.613 14.9357 11.0534C14.8504 11.2062 14.7525 11.3521 14.643 11.4897C14.8443 11.4789 15.031 11.456 15.216 11.4622C15.6329 11.4764 16.0481 11.4356 16.4642 11.4368C16.9915 11.4389 17.5201 11.4223 18.0466 11.4472C18.4778 11.4676 18.9089 11.4601 19.3401 11.4918C19.4138 11.4949 19.4861 11.5129 19.5522 11.5445C19.6182 11.5762 19.6767 11.6209 19.7239 11.6758C20.0813 12.092 19.9761 12.4775 19.5553 12.7647C19.4837 12.8134 19.3988 12.7847 19.3203 12.7926C19.3505 12.6973 19.2772 12.7094 19.2228 12.7094C18.7736 12.6994 18.3247 12.7156 17.875 12.6919C17.3934 12.6669 16.9109 12.6981 16.4284 12.6769C15.9287 12.6544 15.4285 12.6827 14.928 12.674C14.3748 12.664 13.8207 12.6877 13.2671 12.6852C13.0963 12.6779 12.9251 12.6854 12.7557 12.7077ZM8.31036 7.8219C8.35412 7.68997 8.40937 7.56186 8.4755 7.43892C8.64797 7.13005 8.83941 6.83574 9.11104 6.59472C9.36975 6.36743 9.6306 6.15555 9.96131 6.02858C10.3433 5.88247 10.7245 5.76508 11.1457 5.80255C11.4639 5.83127 11.777 5.86915 12.074 5.99112C12.4091 6.12932 12.7208 6.2975 12.9851 6.5481C13.2563 6.80494 13.5025 7.07676 13.6685 7.40937C13.7944 7.66163 13.9414 7.90598 13.9535 8.20029C13.9557 8.25274 13.9643 8.30852 13.9716 8.36222C14.038 8.83469 14.0854 9.30009 13.9746 9.7813C13.8386 10.3982 13.5888 10.9865 13.2369 11.518C13.086 11.7436 12.892 11.9401 12.7592 12.1757C12.7369 12.2097 12.7262 12.2495 12.7285 12.2897C12.7308 12.3298 12.7461 12.3683 12.7721 12.3997C12.8773 12.5512 13.045 12.5849 13.2085 12.5787C13.4637 12.5695 13.7164 12.5974 13.9703 12.5966C14.3265 12.5966 14.6822 12.5832 15.0388 12.6124C15.2543 12.6303 15.4699 12.6153 15.6855 12.6124C15.9904 12.6082 16.2952 12.6082 16.6 12.6186C16.7979 12.6257 16.9963 12.6161 17.1938 12.6099C17.4869 12.5999 17.7801 12.6149 18.0729 12.6099C18.4541 12.6052 18.8351 12.5985 19.2159 12.5899C19.3992 12.5857 19.5385 12.542 19.657 12.4092C19.8373 12.2073 19.8135 11.8835 19.5967 11.7203C19.4759 11.6296 19.3293 11.6075 19.1827 11.6C18.8568 11.5829 18.5308 11.6 18.204 11.5821C17.7077 11.5559 17.2101 11.5821 16.7126 11.5659C16.287 11.5505 15.8597 11.575 15.4337 11.5659C15.2061 11.5596 14.9784 11.5605 14.7512 11.5571C14.6649 11.5571 14.5766 11.5571 14.4709 11.5571C14.6225 11.372 14.7578 11.175 14.8754 10.9681C15.0965 10.5935 15.2224 10.1813 15.3177 9.76382C15.4272 9.28385 15.3846 8.79723 15.31 8.31601C15.2552 7.9601 15.1095 7.6275 14.9581 7.30197C14.7968 6.97186 14.5875 6.66572 14.3364 6.39282C14.0001 6.01318 13.578 5.73303 13.1429 5.46703C12.6471 5.16481 12.1025 5.00913 11.5312 4.94169C11.0755 4.88674 10.621 4.965 10.1696 5.01579C9.80005 5.05742 9.45124 5.19437 9.11191 5.33799C8.77258 5.4816 8.47895 5.71013 8.20042 5.94699C7.95551 6.15513 7.76364 6.40948 7.58643 6.6709C7.32773 7.05137 7.17984 7.48055 7.04272 7.91181C6.98064 8.10704 6.98667 8.31268 6.95649 8.51333C6.89985 8.89241 6.92734 9.27879 7.03712 9.64684C7.10481 9.87163 7.17509 10.0956 7.25055 10.3187C7.31749 10.5158 7.40807 10.7047 7.52046 10.8815C7.65542 11.0946 7.77571 11.3165 7.93956 11.513C7.92705 11.5197 7.92231 11.5251 7.91757 11.5251C7.51356 11.5363 7.113 11.5904 6.70641 11.5725C6.24032 11.5521 5.77465 11.6179 5.3064 11.5954C4.83212 11.5729 4.35783 11.6183 3.87923 11.6042C3.61579 11.5967 3.35148 11.6204 3.08761 11.6325C2.87202 11.6425 2.63186 11.8531 2.63229 12.0425C2.63229 12.3235 2.83753 12.6203 3.17944 12.6361C3.31914 12.6428 3.46057 12.6515 3.5994 12.6515C4.08102 12.6515 4.56221 12.6265 5.04512 12.6365C5.54182 12.6465 6.03681 12.5878 6.53653 12.6024C6.994 12.6153 7.45104 12.5549 7.91024 12.5662C8.35564 12.5774 8.80147 12.5245 9.24686 12.5662C9.27984 12.5683 9.31291 12.5636 9.34388 12.5524C9.41572 12.5316 9.48208 12.4961 9.53847 12.4483C9.59486 12.4006 9.63995 12.3417 9.6707 12.2756C9.72417 12.1666 9.71943 12.0741 9.63923 11.9884C9.4189 11.7536 9.18219 11.5338 8.99247 11.2728C8.81224 11.0272 8.63676 10.7833 8.51819 10.5002C8.41557 10.2504 8.32589 9.99526 8.24008 9.73967L8.22327 9.7147C8.20731 9.72802 8.21292 9.74092 8.22327 9.75424C8.23066 9.98602 8.2818 10.2146 8.37418 10.4286C8.39401 10.4769 8.39315 10.4773 8.36857 10.5268C7.99173 9.78463 8.0107 9.01161 8.17929 8.22776C8.18414 8.2351 8.18737 8.24332 8.18878 8.25191C8.19019 8.26051 8.18975 8.26929 8.18748 8.27772C8.11681 8.62534 8.11199 8.98244 8.17325 9.33172C8.17972 9.37335 8.1767 9.44495 8.21637 9.43704C8.25604 9.42913 8.22801 9.36086 8.22327 9.32132C8.16075 8.79182 8.22585 8.28354 8.47981 7.80358C8.70143 7.38397 8.98126 7.01266 9.37966 6.72917C9.63405 6.54934 9.89707 6.38616 10.1989 6.29042C10.6382 6.15222 11.0789 6.0852 11.5411 6.1772C11.9938 6.26753 12.4173 6.41114 12.7781 6.70004C13.0485 6.91733 13.2981 7.1492 13.4633 7.45682C13.5529 7.61059 13.6301 7.77077 13.6944 7.93595C13.7552 8.11037 13.8173 8.28438 13.8198 8.47336C13.8265 8.58604 13.8402 8.69822 13.8608 8.8093C13.8647 8.83386 13.8737 8.86591 13.9095 8.86008C13.9453 8.85426 13.9285 8.8222 13.9302 8.80181C13.9426 8.62972 13.9348 8.45685 13.9069 8.28646C13.85 7.90099 13.6832 7.55007 13.4827 7.21705C13.3149 6.93898 13.0757 6.71419 12.8118 6.52229C12.3284 6.17095 11.7688 6.01152 11.1703 5.98113C10.7534 5.9599 10.3563 6.07063 9.96864 6.20176C9.61939 6.31998 9.32189 6.53061 9.05327 6.76955C8.73244 7.06 8.48682 7.4192 8.33623 7.81815L8.31036 7.8219ZM13.9069 9.22599C13.9069 9.16521 13.9069 9.10444 13.9069 9.04366C13.9069 9.02285 13.8992 9.00203 13.8725 9.00203C13.8457 9.00203 13.8539 9.02659 13.8535 9.04366C13.843 9.37173 13.7804 9.69631 13.6681 10.0061C13.4759 10.5598 13.2188 11.0905 12.9019 11.5879C12.8005 11.7377 12.6894 11.8811 12.569 12.0171C12.561 12.0247 12.5546 12.0338 12.5504 12.0438C12.5462 12.0539 12.5442 12.0647 12.5445 12.0755C12.5448 12.0863 12.5475 12.097 12.5523 12.1068C12.5571 12.1166 12.564 12.1253 12.5725 12.1324C12.607 12.162 12.6359 12.1228 12.6587 12.097C12.7316 12.0167 12.8092 11.9401 12.8743 11.8552C13.3684 11.2199 13.6694 10.501 13.8543 9.73218C13.8915 9.5659 13.9092 9.39609 13.9069 9.22599Z" fill="#F8F2EA"/>
<path d="M3.02552 16.4335C2.87245 16.3731 2.71766 16.3165 2.63315 16.1629C2.39256 15.7279 2.64005 15.2313 3.09019 15.1314C3.23895 15.0981 3.4002 15.1164 3.55586 15.1126C3.85768 15.1056 4.15648 15.0847 4.45571 15.0968C4.84376 15.113 5.22836 15.0827 5.61426 15.0893C6.17219 15.0993 6.7297 15.0727 7.2872 15.0814C7.75804 15.0885 8.22844 15.0573 8.69885 15.071C9.19081 15.0852 9.68191 15.0464 10.1726 15.0606C10.6318 15.0743 11.0893 15.0352 11.5467 15.0494C12.0391 15.0648 12.5302 15.0235 13.0213 15.0377C13.4896 15.0514 13.9574 15.0119 14.4248 15.0256C14.8128 15.0369 15.203 15.0119 15.5924 15.0156C16.1098 15.0211 16.6294 15.0002 17.1476 15.0036C17.6659 15.0069 18.1859 14.9811 18.7041 14.9952C18.9197 15.0011 19.1491 14.9619 19.3604 15.0581C19.4411 15.0891 19.5173 15.1301 19.5872 15.1801C19.8506 15.3911 19.8959 15.7941 19.7165 16.0751C19.601 16.2536 19.4354 16.3148 19.2422 16.3515C19.1616 16.3286 19.0836 16.3623 19.0038 16.3602C18.8663 16.3569 18.7296 16.3456 18.5929 16.3377C18.1186 16.3103 17.6417 16.3377 17.1653 16.3186C16.6785 16.2973 16.1904 16.3327 15.7019 16.3107C15.2358 16.2899 14.7684 16.3173 14.301 16.3053C13.7539 16.2915 13.2059 16.3198 12.6583 16.2994C12.5983 16.2973 12.5384 16.3036 12.4785 16.3036C12.0982 16.3015 11.7179 16.3036 11.3376 16.3007C10.8137 16.2953 10.2894 16.3132 9.76513 16.3044C9.35552 16.2973 8.94591 16.3148 8.53587 16.3107C7.95249 16.3048 7.36869 16.3277 6.78489 16.3236C6.39295 16.3211 6.00188 16.3448 5.60995 16.3327C5.1736 16.3198 4.73726 16.3569 4.30006 16.3461C3.90165 16.3365 3.50282 16.3635 3.10399 16.3714C3.05354 16.3727 3.03242 16.3906 3.02552 16.4335ZM14.9469 16.2004C15.2155 16.1958 15.4837 16.1766 15.7532 16.1875C16.2137 16.2066 16.6742 16.1662 17.136 16.1845C17.6197 16.2041 18.1044 16.155 18.5899 16.1845C18.8355 16.1951 19.0814 16.1927 19.3267 16.1775C19.4703 16.1708 19.5583 16.0963 19.6286 15.9885C19.7385 15.8149 19.717 15.6284 19.6523 15.4523C19.6061 15.3274 19.5117 15.2138 19.3569 15.2025C19.2021 15.1913 19.0478 15.1905 18.8934 15.1867C18.4191 15.1755 17.9487 15.2059 17.4757 15.1842C17.0027 15.1626 16.5272 15.2055 16.0486 15.1842C15.57 15.163 15.0927 15.2063 14.6132 15.1867C14.1337 15.1672 13.6431 15.2046 13.1571 15.1817C12.6829 15.1593 12.206 15.1913 11.73 15.1701C11.2423 15.1488 10.7542 15.188 10.264 15.1701C9.7854 15.1526 9.30637 15.1946 8.82647 15.1813C8.36943 15.1688 7.91326 15.2142 7.45492 15.2042C6.9884 15.1938 6.5223 15.2429 6.05448 15.2284C5.56683 15.2134 5.07875 15.2592 4.58851 15.2392C4.31601 15.2279 4.04265 15.2521 3.76929 15.2537C3.58733 15.2537 3.40624 15.2796 3.22342 15.2537C3.04061 15.2279 2.88884 15.2596 2.8026 15.4377C2.7112 15.6209 2.73577 15.8078 2.8108 15.9826C2.89703 16.1854 3.09062 16.2495 3.30319 16.2574C3.63778 16.2699 3.97194 16.242 4.30739 16.2574C4.79763 16.2782 5.2883 16.2391 5.77983 16.2532C6.27136 16.2674 6.77152 16.2312 7.26995 16.2457C7.7188 16.2582 8.16722 16.2224 8.61693 16.2374C9.07698 16.2528 9.53834 16.2124 9.99969 16.2266C10.4813 16.242 10.9621 16.2016 11.445 16.2158C11.9279 16.2299 12.4142 16.1899 12.8997 16.2054C13.3628 16.2203 13.8263 16.1725 14.2907 16.1995C14.508 16.2112 14.7279 16.2004 14.9469 16.2004Z" fill="#F8F2EA"/>
<path d="M3.02552 16.4335C3.03242 16.3919 3.05354 16.3728 3.10313 16.3715C3.50196 16.3636 3.90079 16.3365 4.29919 16.3461C4.7364 16.3569 5.17274 16.3199 5.60908 16.3328C6.00102 16.3449 6.39209 16.3211 6.78402 16.3236C7.36783 16.3278 7.95163 16.3049 8.535 16.3107C8.94504 16.3149 9.35422 16.2974 9.76427 16.3045C10.2886 16.3132 10.8129 16.2953 11.3367 16.3007C11.717 16.3049 12.0973 16.3007 12.4776 16.3037C12.5376 16.3037 12.5975 16.2974 12.6574 16.2995C13.205 16.3199 13.753 16.2916 14.3002 16.3053C14.7676 16.3174 15.2349 16.2899 15.701 16.3107C16.1896 16.3328 16.6776 16.2974 17.1644 16.3186C17.6409 16.339 18.1169 16.3103 18.592 16.3378C18.7287 16.3457 18.8654 16.3569 19.0029 16.3603C19.0827 16.3624 19.1607 16.3286 19.2414 16.3515C19.2457 16.3865 19.3052 16.4086 19.272 16.4498C19.2582 16.469 19.2395 16.4845 19.2176 16.4948C19.1958 16.505 19.1716 16.5095 19.1474 16.508C18.7705 16.4747 18.3933 16.5018 18.016 16.5001C17.4555 16.4972 16.8949 16.506 16.3344 16.4951C15.7528 16.4839 15.1703 16.5064 14.5904 16.4914C14.1135 16.4789 13.637 16.5122 13.1615 16.4914C12.6859 16.4706 12.2077 16.5089 11.7321 16.4914C11.2565 16.4739 10.79 16.5105 10.32 16.4914C9.8367 16.4723 9.35422 16.5114 8.87261 16.4914C8.39099 16.4714 7.91282 16.5072 7.43423 16.4893C7.02634 16.4739 6.61888 16.4918 6.21143 16.4835C5.66298 16.4723 5.11367 16.4943 4.56565 16.4781C4.08576 16.4639 3.60716 16.4893 3.1277 16.476C3.08847 16.476 3.03802 16.4935 3.02552 16.4335Z" fill="#030202"/>
<path d="M12.7557 12.7079C12.925 12.686 13.096 12.6789 13.2667 12.6866C13.8203 12.6891 14.3743 12.6654 14.9275 12.6754C15.4281 12.6842 15.9283 12.6558 16.428 12.6783C16.9105 12.6996 17.393 12.6683 17.8746 12.6933C18.3243 12.717 18.7731 12.7008 19.2224 12.7108C19.2759 12.7108 19.3518 12.6987 19.3198 12.794C19.3071 12.8064 19.2915 12.8157 19.2744 12.8213C19.2573 12.8268 19.239 12.8285 19.2211 12.8261C18.8732 12.8311 18.5243 12.8519 18.1772 12.8382C17.7633 12.8219 17.3498 12.8419 16.9363 12.8311C16.6052 12.8222 16.2739 12.8167 15.9425 12.8144C15.7118 12.8144 15.4786 12.8407 15.2505 12.8178C14.9232 12.7845 14.5972 12.8007 14.2709 12.7961C13.8806 12.7907 13.4917 12.7666 13.1028 12.7449C13.0189 12.7404 12.9347 12.742 12.851 12.7495C12.8169 12.7524 12.7626 12.7741 12.7557 12.7079Z" fill="#030202"/>
<path d="M3.13202 12.8286C3.18893 12.8286 3.24585 12.8286 3.30448 12.8253C3.78524 12.8024 4.26686 12.8174 4.74804 12.7986C5.30856 12.7766 5.8721 12.7507 6.43434 12.7441C6.89527 12.7387 7.35489 12.6979 7.81409 12.7025C8.28837 12.707 8.75835 12.6687 9.23091 12.6633C9.33094 12.6633 9.43097 12.6754 9.53273 12.6821C9.54955 12.7628 9.5185 12.8036 9.44175 12.8069C9.04594 12.8186 8.64969 12.8448 8.25431 12.8398C7.72915 12.8332 7.20528 12.8744 6.68097 12.8644C6.22738 12.8556 5.77552 12.8944 5.32279 12.8823C4.83341 12.869 4.3449 12.9102 3.85681 12.8969C3.62269 12.8902 3.38986 12.906 3.15659 12.8969C3.13417 12.8969 3.10356 12.9098 3.09149 12.8831C3.07165 12.8452 3.12943 12.8556 3.13202 12.8286Z" fill="#030202"/>
<path d="M8.2431 9.7427C8.32934 9.99829 8.41859 10.2526 8.52121 10.5032C8.63762 10.7863 8.81311 11.0302 8.99549 11.2758C9.1865 11.5368 9.42321 11.7566 9.64225 11.9914C9.72245 12.0772 9.72848 12.1696 9.67372 12.2786C9.64297 12.3447 9.59788 12.4036 9.54149 12.4514C9.4851 12.4991 9.41874 12.5346 9.3469 12.5555C9.31593 12.5666 9.28286 12.5713 9.24988 12.5692C8.80405 12.5276 8.35822 12.5788 7.91326 12.5692C7.45406 12.558 6.99702 12.6183 6.53955 12.6054C6.04069 12.5908 5.54484 12.6495 5.04813 12.6396C4.56522 12.6296 4.08404 12.6533 3.60242 12.6545C3.46359 12.6545 3.32216 12.6458 3.18246 12.6391C2.84055 12.6233 2.6366 12.3265 2.63531 12.0455C2.63531 11.8561 2.87375 11.6455 3.09062 11.6355C3.3545 11.6234 3.61881 11.5997 3.88225 11.6072C4.35654 11.6213 4.83427 11.576 5.30942 11.5985C5.77767 11.6209 6.24334 11.5568 6.70943 11.5756C7.11602 11.5935 7.51658 11.5393 7.92059 11.5281C7.92533 11.5281 7.93007 11.5227 7.94258 11.516C7.77873 11.3195 7.65844 11.0998 7.52348 10.8845C7.41109 10.7077 7.32051 10.5189 7.25357 10.3217C7.17811 10.0986 7.10783 9.87466 7.04014 9.64987C6.92986 9.28178 6.90194 8.89525 6.95822 8.51594C6.98667 8.31529 6.98064 8.10965 7.04445 7.91442C7.18156 7.48316 7.33032 7.05398 7.58816 6.67351C7.76537 6.41209 7.95724 6.15774 8.20214 5.94961C8.48068 5.71275 8.77128 5.48546 9.11363 5.3406C9.45598 5.19573 9.8035 5.06003 10.1713 5.0184C10.6227 4.96761 11.0767 4.88936 11.5329 4.9443C12.1042 5.0134 12.6488 5.16743 13.1446 5.46964C13.5797 5.73564 14.0018 6.01579 14.3381 6.39544C14.5889 6.66797 14.7981 6.97369 14.9594 7.30333C15.1108 7.62886 15.2565 7.96146 15.3113 8.31738C15.3859 8.79859 15.4285 9.28521 15.319 9.76518C15.2203 10.181 15.0961 10.5931 14.8754 10.9682C14.7579 11.1749 14.6228 11.3718 14.4713 11.5568C14.577 11.5568 14.6641 11.5568 14.7516 11.5568C14.9788 11.5602 15.2065 11.5593 15.4341 11.5656C15.8601 11.5764 16.2874 11.5518 16.713 11.5656C17.2106 11.5835 17.7081 11.5556 18.2044 11.5818C18.5312 11.5993 18.8572 11.5818 19.1832 11.5997C19.3298 11.6072 19.4764 11.6293 19.5971 11.72C19.8127 11.8832 19.8377 12.207 19.6575 12.4089C19.5389 12.5417 19.3988 12.5854 19.2164 12.5896C18.8355 12.5985 18.4545 12.6051 18.0733 12.6096C17.7806 12.6129 17.4874 12.5979 17.1942 12.6096C16.9967 12.6158 16.7984 12.6254 16.6005 12.6183C16.2956 12.6079 15.9908 12.6079 15.686 12.6121C15.4704 12.6154 15.2522 12.6304 15.0392 12.6121C14.6826 12.5829 14.3269 12.595 13.9708 12.5963C13.7168 12.5963 13.4641 12.5692 13.2089 12.5784C13.0455 12.5846 12.8777 12.5509 12.7725 12.3994C12.7465 12.368 12.7313 12.3295 12.7289 12.2894C12.7266 12.2492 12.7373 12.2094 12.7596 12.1754C12.8946 11.9398 13.0864 11.7433 13.2373 11.5177C13.5899 10.9857 13.8402 10.3967 13.9764 9.77892C14.0872 9.2977 14.0397 8.83231 13.9733 8.35984C13.966 8.30614 13.9574 8.25036 13.9552 8.19791C13.9432 7.90651 13.7961 7.66133 13.6702 7.40698C13.5038 7.07396 13.258 6.80255 12.9868 6.54571C12.7225 6.29595 12.4108 6.12694 12.0758 5.98874C11.7787 5.86677 11.4657 5.82889 11.1475 5.80016C10.7262 5.7627 10.3451 5.88009 9.96304 6.0262C9.63233 6.15316 9.36975 6.36505 9.11277 6.59233C8.84113 6.83336 8.65099 7.12766 8.47723 7.43654C8.41109 7.55947 8.35585 7.68759 8.31209 7.81951C8.27884 7.88827 8.25743 7.96181 8.24871 8.03722L8.27242 8.04347C8.2957 7.96854 8.31942 7.89361 8.3427 7.81826C8.49329 7.41931 8.73891 7.06012 9.05974 6.76967C9.32749 6.53073 9.62586 6.32009 9.97511 6.20187C10.3632 6.07074 10.7598 5.96001 11.1768 5.98124C11.7752 6.01205 12.3349 6.17148 12.8182 6.5224C13.0821 6.7143 13.3214 6.93867 13.4891 7.21716C13.6896 7.55018 13.8565 7.9011 13.9134 8.28657C13.9412 8.45696 13.949 8.62984 13.9367 8.80192C13.9367 8.82232 13.9505 8.85437 13.916 8.8602C13.8815 8.86603 13.8729 8.83397 13.8673 8.80941C13.8466 8.69833 13.8329 8.58615 13.8263 8.47348C13.8237 8.28449 13.7616 8.11049 13.7008 7.93607C13.6366 7.77089 13.5594 7.61071 13.4697 7.45694C13.3046 7.14931 13.055 6.91578 12.7846 6.70015C12.4237 6.41126 12.0003 6.26764 11.5476 6.17731C11.0854 6.08531 10.6447 6.15233 10.2054 6.29053C9.90138 6.38628 9.63966 6.54946 9.38613 6.72929C8.98773 7.01111 8.7079 7.38409 8.48628 7.80369C8.23232 8.28366 8.16722 8.79193 8.22974 9.32143C8.23448 9.36306 8.2694 9.428 8.22284 9.43715C8.17627 9.44631 8.18533 9.37138 8.17972 9.33184C8.11846 8.98256 8.12328 8.62545 8.19395 8.27783C8.19621 8.26941 8.19666 8.26062 8.19525 8.25203C8.19384 8.24343 8.19061 8.23521 8.18576 8.22788C8.01717 9.01172 7.9982 9.78474 8.37504 10.527C8.39962 10.4774 8.40048 10.477 8.38064 10.4287C8.28827 10.2147 8.23713 9.98613 8.22974 9.75436L8.2431 9.7427ZM9.00498 6.44331L8.98644 6.46038L8.96833 6.47619L8.95022 6.49326L8.93125 6.50991L8.9084 6.52074L8.89029 6.53406C8.88532 6.5375 8.88163 6.54239 8.87976 6.54801C8.8779 6.55364 8.87796 6.55969 8.87994 6.56528L8.86011 6.57943L8.86916 6.58734L8.8821 6.56694C8.8946 6.57027 8.90064 6.56319 8.90495 6.55404L8.9209 6.53489L8.94979 6.52323L8.96402 6.50575L8.98126 6.48993L8.99937 6.4712L9.01791 6.4533L9.03214 6.43207L9.04033 6.41667L9.02481 6.42624L9.00498 6.44331ZM8.22413 6.83585L8.20602 6.84959L8.18834 6.86499C8.14124 6.89804 8.10369 6.94218 8.07926 6.99321C8.09952 6.98863 8.10987 6.98904 8.11461 6.98447C8.14479 6.95283 8.17325 6.91953 8.20085 6.88706L8.21766 6.86791L8.23491 6.85001L8.24396 6.83252L8.22413 6.83585ZM7.75459 8.2208C7.75459 8.21414 7.75459 8.2029 7.74855 8.20124C7.73389 8.19624 7.7326 8.2079 7.7313 8.21789C7.71889 8.25923 7.7221 8.3035 7.74036 8.34277C7.74984 8.29073 7.76709 8.25827 7.75459 8.2208ZM8.0301 7.94023C8.0301 7.91983 8.05813 7.92858 8.06158 7.91858C8.11548 7.7733 8.16808 7.62719 8.22068 7.48191C8.13818 7.6278 8.07392 7.78263 8.02924 7.94315H8.03398L8.0301 7.94023ZM7.5597 7.91192C7.5832 7.8492 7.59246 7.78234 7.58686 7.71586C7.55163 7.77487 7.5329 7.84173 7.53253 7.90984C7.53133 7.93004 7.5283 7.9501 7.52348 7.96979C7.45104 8.19874 7.45837 8.4306 7.48985 8.66455C7.49502 8.70326 7.52477 8.7299 7.52693 8.76654C7.52693 8.77694 7.51831 8.78735 7.51356 8.79776C7.50925 8.78693 7.4989 8.77361 7.50192 8.76487C7.51933 8.72729 7.5283 8.68657 7.52822 8.6454C7.50806 8.40058 7.51863 8.1543 7.5597 7.91192ZM14.6399 7.1722C14.6964 7.31665 14.7516 7.46027 14.7999 7.60763C14.9538 8.05752 15.03 8.52879 15.0254 9.00256C15.0159 9.45797 14.9771 9.90754 14.8228 10.343C14.7572 10.5274 14.7098 10.7176 14.6283 10.8983C14.6632 10.8722 14.6913 10.8387 14.7106 10.8005C14.84 10.5658 14.9447 10.3192 15.0232 10.0645C15.1957 9.5483 15.1867 9.01464 15.1241 8.48264C15.0856 8.21293 15.0093 7.94952 14.8973 7.69962C14.8219 7.51979 14.7658 7.32997 14.6399 7.1722ZM16.425 12.2537C16.8255 12.3448 17.4762 12.3607 17.731 12.2911C17.606 12.2674 17.4921 12.2274 17.3787 12.2274C17.061 12.2274 16.7427 12.2437 16.425 12.2537ZM14.1855 8.0955C14.1595 7.91782 14.0969 7.74698 14.0014 7.59306C14.0682 7.75915 14.1199 7.93024 14.1855 8.0955ZM14.364 11.6938C14.5142 11.7008 14.6648 11.6927 14.8133 11.6696C14.7356 11.6623 14.6575 11.6599 14.5796 11.6626C14.5084 11.6651 14.43 11.6338 14.3657 11.6938H14.364ZM9.3995 12.3873C9.52454 12.3219 9.55817 12.2462 9.51333 12.1484L9.3995 12.3873ZM7.79684 7.75416C7.76377 7.89382 7.74785 8.03675 7.74941 8.18001C7.78218 8.04555 7.81668 7.91068 7.79641 7.75499L7.79684 7.75416ZM4.02626 11.7067C3.85897 11.7067 3.68823 11.678 3.52266 11.7292C3.69085 11.7412 3.85994 11.7337 4.02626 11.7067ZM8.25173 11.8478C8.14048 11.7904 8.02277 11.8278 7.90679 11.8299C8.02123 11.8448 8.13677 11.8502 8.25216 11.8461L8.25173 11.8478ZM4.59842 11.7071C4.44708 11.6959 4.29495 11.6996 4.1444 11.7183C4.29661 11.7454 4.44708 11.725 4.59886 11.7071H4.59842ZM7.92921 8.8935C7.97578 8.75779 7.97233 8.61584 7.98009 8.47723C7.93534 8.61149 7.9182 8.75289 7.92964 8.8935H7.92921ZM8.16549 10.6943C8.14436 10.5882 8.09478 10.5191 8.02579 10.4907L8.16549 10.6943ZM14.2226 8.33861C14.2079 8.26326 14.2256 8.18125 14.1678 8.11507C14.1699 8.19248 14.1887 8.26862 14.223 8.33861H14.2226ZM8.02234 7.99601C7.98129 8.05145 7.95968 8.11811 7.96069 8.18625C8.00299 8.1314 8.02487 8.06437 8.02277 7.99601H8.02234ZM7.70069 10.1223L7.72009 10.1124L7.63731 9.94584C7.6317 10.0262 7.67482 10.0716 7.70112 10.1223H7.70069ZM14.0001 7.59264C14.0017 7.55596 13.9915 7.51969 13.971 7.48877C13.9505 7.45786 13.9206 7.43381 13.8854 7.41989C13.9389 7.47525 13.9432 7.54602 14.0005 7.59264H14.0001ZM7.96758 9.43424C7.96025 9.4946 7.95249 9.5458 7.99863 9.60075C7.99906 9.53873 8.00423 9.48752 7.96758 9.43424ZM9.08863 6.38586C9.08345 6.38586 9.07655 6.38087 9.0731 6.38295C9.06965 6.38503 9.06707 6.39211 9.06448 6.39669C9.06922 6.39669 9.07526 6.40085 9.07828 6.39918C9.0813 6.39752 9.08518 6.39044 9.08863 6.38586Z" fill="#030202"/>
<path d="M13.9069 9.22615C13.9101 9.39701 13.8932 9.56766 13.8565 9.73484C13.6715 10.5029 13.3706 11.2218 12.8765 11.8578C12.8105 11.9411 12.7329 12.0194 12.6609 12.0997C12.6376 12.1255 12.6087 12.1646 12.5746 12.1351C12.5661 12.128 12.5593 12.1193 12.5544 12.1095C12.5496 12.0997 12.547 12.089 12.5466 12.0782C12.5463 12.0673 12.5483 12.0565 12.5526 12.0465C12.5568 12.0364 12.5631 12.0273 12.5712 12.0198C12.6915 11.8837 12.8027 11.7404 12.904 11.5906C13.2209 11.0932 13.478 10.5625 13.6702 10.0087C13.7824 9.6981 13.8445 9.37267 13.8543 9.04382C13.8543 9.02884 13.8457 9.00511 13.8733 9.00219C13.9009 8.99928 13.9074 9.02342 13.9078 9.04382C13.9078 9.1046 13.9069 9.16537 13.9069 9.22615Z" fill="#030202"/>
<path d="M8.34098 7.8208C8.31769 7.89615 8.29398 7.97108 8.2707 8.04601L8.24698 8.03976C8.25571 7.96435 8.27711 7.89081 8.31036 7.82205L8.34098 7.8208Z" fill="#6E6E6E"/>
<path d="M8.22628 9.75732C8.21594 9.744 8.21033 9.73109 8.22628 9.71777L8.2431 9.74275L8.22628 9.75732Z" fill="#030202"/>
<path d="M14.9469 16.2003C14.7279 16.2003 14.508 16.2112 14.2898 16.1983C13.8255 16.1712 13.3619 16.2191 12.8989 16.2041C12.4134 16.1887 11.9283 16.2286 11.4441 16.2145C10.9599 16.2003 10.4804 16.2407 9.99882 16.2253C9.53747 16.2112 9.07612 16.2515 8.61606 16.2361C8.16635 16.2212 7.71794 16.257 7.26909 16.2445C6.77195 16.2299 6.27524 16.2665 5.77897 16.252C5.28269 16.2374 4.79676 16.2769 4.30652 16.2561C3.97107 16.242 3.63692 16.2699 3.30233 16.2561C3.08976 16.2482 2.89746 16.1841 2.80993 15.9814C2.73491 15.8065 2.71033 15.6196 2.80174 15.4365C2.88798 15.26 3.04794 15.2283 3.22515 15.2508C3.40236 15.2733 3.58906 15.2508 3.77101 15.2508C4.04394 15.2508 4.3173 15.225 4.59023 15.2362C5.07875 15.2562 5.56683 15.2104 6.05621 15.2254C6.52403 15.24 6.99012 15.1909 7.45665 15.2013C7.91498 15.2113 8.37116 15.1659 8.8282 15.1784C9.30809 15.1917 9.78712 15.1497 10.2657 15.1671C10.7547 15.185 11.2427 15.1459 11.7317 15.1671C12.206 15.1884 12.6841 15.1563 13.1589 15.1788C13.6448 15.2017 14.1303 15.1642 14.6149 15.1838C15.0996 15.2034 15.5726 15.1597 16.0503 15.1813C16.528 15.2029 17.0023 15.1601 17.4775 15.1813C17.9526 15.2025 18.4226 15.1726 18.8951 15.1838C19.0495 15.1875 19.2052 15.1884 19.3587 15.1996C19.5122 15.2109 19.6079 15.3245 19.654 15.4494C19.7187 15.6255 19.7402 15.812 19.6303 15.9855C19.5617 16.0934 19.4738 16.1679 19.3285 16.1745C19.0832 16.1898 18.8372 16.1921 18.5916 16.1816C18.1061 16.1529 17.6215 16.202 17.1377 16.1816C16.6759 16.1633 16.2154 16.2037 15.7549 16.1845C15.4837 16.1754 15.2155 16.1958 14.9469 16.2003ZM8.90279 15.6342C8.82001 15.6238 8.74326 15.6546 8.66349 15.6638C8.74498 15.6542 8.82906 15.6871 8.90753 15.6517L9.36759 15.6271C9.37381 15.6352 9.38196 15.6417 9.39135 15.646C9.40074 15.6504 9.41108 15.6525 9.42149 15.6521C9.58835 15.6475 9.75565 15.6521 9.92035 15.6163H9.36544C9.21022 15.6001 9.05672 15.6221 8.90279 15.6342ZM14.3295 15.6342C14.2638 15.6303 14.198 15.6385 14.1355 15.6583C14.2019 15.6583 14.2696 15.6829 14.3338 15.6488C14.5443 15.653 14.7547 15.6359 14.9616 15.598C14.7404 15.5718 14.5365 15.6255 14.3295 15.6363V15.6342ZM5.88159 15.5718C5.50043 15.5863 5.11454 15.5235 4.73899 15.6363L5.88676 15.5926C6.07605 15.6042 6.26603 15.6001 6.45461 15.5805C6.26443 15.5581 6.07227 15.5559 5.88159 15.5738V15.5718ZM17.9405 16.0089C18.138 15.9964 18.3376 16.0367 18.5368 16.0143C18.339 15.9902 18.1389 15.9884 17.9405 16.0089ZM3.2023 15.8923C3.23618 15.9206 3.27948 15.9363 3.32432 15.9364C3.35105 15.9389 3.3614 15.9223 3.36011 15.8985C3.35881 15.8748 3.34027 15.8744 3.32173 15.8769L3.2023 15.8923ZM7.37257 15.6009V15.6196L7.59592 15.6042V15.5855L7.37257 15.6009ZM19.0745 15.5593C19.1004 15.5768 19.0547 15.6338 19.1146 15.6367C19.131 15.6367 19.1301 15.623 19.1237 15.6117C19.1081 15.5847 19.1237 15.5443 19.0896 15.5285C19.0767 15.521 19.0637 15.5372 19.0745 15.5584V15.5593Z" fill="#030202"/>
<path d="M14.6399 7.17212C14.7658 7.32989 14.8219 7.51971 14.8986 7.70037C15.0106 7.95027 15.0869 8.21368 15.1254 8.48338C15.188 9.01455 15.1979 9.54821 15.0245 10.0652C14.946 10.32 14.8413 10.5665 14.7119 10.8012C14.6926 10.8395 14.6645 10.873 14.6296 10.899C14.7111 10.7184 14.7589 10.5281 14.824 10.3437C14.9784 9.90829 15.0172 9.45872 15.0267 9.00331C15.0313 8.52954 14.9551 8.05826 14.8012 7.60837C14.7516 7.46018 14.6964 7.31657 14.6399 7.17212Z" fill="#F8F2EA"/>
<path d="M16.425 12.2538C16.7427 12.2438 17.061 12.2275 17.3787 12.2275C17.4921 12.2275 17.606 12.2692 17.731 12.2912C17.4762 12.3607 16.8255 12.3458 16.425 12.2538Z" fill="#F8F2EA"/>
<path d="M7.5597 7.91189C7.51863 8.15427 7.50806 8.40055 7.52822 8.64537C7.52855 8.68679 7.51973 8.7278 7.50235 8.76567C7.49933 8.77441 7.50968 8.78773 7.51399 8.79856C7.51874 8.78815 7.52779 8.77774 7.52736 8.76734C7.52736 8.7307 7.49545 8.70406 7.49028 8.66535C7.4588 8.4314 7.45147 8.19954 7.52391 7.97059C7.52873 7.9509 7.53176 7.93084 7.53297 7.91064L7.5597 7.91189Z" fill="#F8F2EA"/>
<path d="M14.1855 8.09546C14.1182 7.92895 14.0665 7.75911 14.0014 7.59302C14.0969 7.74694 14.1595 7.91778 14.1855 8.09546Z" fill="#F8F2EA"/>
<path d="M14.3657 11.6936C14.43 11.6337 14.5084 11.6649 14.5813 11.6624C14.6593 11.6598 14.7373 11.6622 14.815 11.6695C14.6665 11.6926 14.5159 11.7007 14.3657 11.6936Z" fill="#F8F2EA"/>
<path d="M8.02924 7.94358C8.07384 7.7829 8.1381 7.62793 8.22068 7.48193C8.16808 7.62763 8.11547 7.77333 8.06158 7.91861C8.05813 7.9286 8.03183 7.91861 8.0301 7.94025L8.02924 7.94358Z" fill="#F8F2EA"/>
<path d="M9.3995 12.3874L9.51333 12.1484C9.55774 12.2471 9.52411 12.3229 9.3995 12.3874Z" fill="#F8F2EA"/>
<path d="M7.79641 7.75488C7.81668 7.91057 7.78218 8.04627 7.74898 8.18073C7.74742 8.03748 7.76334 7.89454 7.79641 7.75488Z" fill="#F8F2EA"/>
<path d="M4.02626 11.7066C3.85994 11.7336 3.69085 11.7412 3.52266 11.7291C3.68822 11.6796 3.85897 11.7058 4.02626 11.7066Z" fill="#6E6E6E"/>
<path d="M8.25215 11.846C8.13686 11.8495 8.02146 11.8435 7.90722 11.8281C8.0232 11.8277 8.14091 11.7902 8.25215 11.846Z" fill="#F8F2EA"/>
<path d="M4.59886 11.707C4.44708 11.7249 4.29704 11.7453 4.14483 11.7182C4.29538 11.6995 4.44752 11.6958 4.59886 11.707Z" fill="#6E6E6E"/>
<path d="M7.92964 8.89357C7.91834 8.75294 7.93562 8.61153 7.98052 8.47729C7.97319 8.61591 7.97664 8.75786 7.92964 8.89357Z" fill="#6E6E6E"/>
<path d="M8.16592 10.6943L8.02622 10.4907C8.09521 10.519 8.14479 10.5881 8.16592 10.6943Z" fill="#F8F2EA"/>
<path d="M14.223 8.33853C14.1888 8.26852 14.1702 8.19237 14.1682 8.11499C14.226 8.18284 14.2083 8.26318 14.223 8.33853Z" fill="#6E6E6E"/>
<path d="M7.5597 7.91189L7.53253 7.9098C7.5329 7.84169 7.55163 7.77484 7.58686 7.71582C7.59246 7.7823 7.5832 7.84917 7.5597 7.91189Z" fill="#6E6E6E"/>
<path d="M8.02277 7.99609C8.02499 8.0644 8.00327 8.13143 7.96112 8.18633C7.96011 8.11819 7.98172 8.05153 8.02277 7.99609Z" fill="#6E6E6E"/>
<path d="M7.70112 10.1223C7.6731 10.0715 7.63127 10.0262 7.63774 9.94458L7.72052 10.1111L7.70112 10.1223Z" fill="#6E6E6E"/>
<path d="M14.0005 7.59268C13.9432 7.54605 13.9389 7.4757 13.8858 7.41992C13.921 7.43384 13.9509 7.45789 13.9714 7.48881C13.992 7.51972 14.0021 7.55599 14.0005 7.59268Z" fill="#6E6E6E"/>
<path d="M7.96758 9.43433C8.00423 9.48761 7.99906 9.53881 7.99863 9.60084C7.95249 9.54589 7.96025 9.49469 7.96758 9.43433Z" fill="#6E6E6E"/>
<path d="M8.20257 6.88705C8.17325 6.91952 8.1448 6.95282 8.11634 6.98446C8.1116 6.98904 8.10125 6.98862 8.08098 6.9932C8.10541 6.94218 8.14297 6.89804 8.19007 6.86499L8.20257 6.88705Z" fill="#6E6E6E"/>
<path d="M7.75459 8.22072C7.76709 8.25818 7.74984 8.29065 7.74036 8.34144C7.72209 8.30216 7.71888 8.2579 7.7313 8.21655L7.75459 8.22072Z" fill="#6E6E6E"/>
<path d="M8.88209 6.56898L8.86916 6.58896L8.86011 6.58105L8.87994 6.56689L8.88209 6.56898Z" fill="#6E6E6E"/>
<path d="M9.08863 6.38586C9.08518 6.39043 9.08259 6.39668 9.07828 6.39918C9.07397 6.40167 9.06922 6.39918 9.06448 6.39668C9.06707 6.3921 9.06879 6.38502 9.0731 6.38294C9.07741 6.38086 9.08345 6.38461 9.08863 6.38586Z" fill="#6E6E6E"/>
<path d="M9.02481 6.42824L9.04033 6.41821L9.03214 6.43434L9.02481 6.42824Z" fill="#6E6E6E"/>
<path d="M7.75459 8.22071L7.7313 8.2178C7.7313 8.20781 7.73389 8.19615 7.74855 8.20115C7.75243 8.20281 7.75286 8.21405 7.75459 8.22071Z" fill="#F8F2EA"/>
<path d="M8.90495 6.55567C8.90064 6.56483 8.8946 6.5719 8.8821 6.56857H8.87994C8.87796 6.56299 8.8779 6.55693 8.87976 6.55131C8.88163 6.54569 8.88532 6.54079 8.89029 6.53735L8.90495 6.55567Z" fill="#6E6E6E"/>
<path d="M8.03026 7.94019L8.03484 7.94379H8.02924L8.03026 7.94019Z" fill="#F8F2EA"/>
<path d="M8.89029 6.53578L8.9084 6.52246L8.9209 6.53661L8.90495 6.55576L8.89029 6.53578Z" fill="#6E6E6E"/>
<path d="M8.9084 6.5223L8.93125 6.51147L8.95022 6.5248L8.9209 6.53645L8.9084 6.5223Z" fill="#6E6E6E"/>
<path d="M8.99937 6.47289L8.98126 6.49121L8.96833 6.47622L8.98644 6.45874L8.99937 6.47289Z" fill="#6E6E6E"/>
<path d="M8.18834 6.86501L8.20602 6.84961L8.21939 6.86793L8.20257 6.88707L8.18834 6.86501Z" fill="#6E6E6E"/>
<path d="M8.20602 6.8509L8.22413 6.83716L8.23663 6.85131L8.21939 6.86921L8.20602 6.8509Z" fill="#6E6E6E"/>
<path d="M8.22413 6.83601L8.24569 6.83252L8.23534 6.8517L8.22413 6.83601Z" fill="#6E6E6E"/>
<path d="M8.93125 6.51152L8.95022 6.49487L8.96402 6.50736L8.94979 6.52484L8.93125 6.51152Z" fill="#6E6E6E"/>
<path d="M8.95022 6.49481L8.96833 6.47607L8.98126 6.4894L8.96402 6.50563L8.95022 6.49481Z" fill="#6E6E6E"/>
<path d="M8.98644 6.46043L9.00498 6.44336C9.00887 6.44766 9.0132 6.45157 9.01791 6.45502L8.99937 6.47291L8.98644 6.46043Z" fill="#6E6E6E"/>
<path d="M9.00498 6.44338L9.02481 6.42798L9.03214 6.43381L9.01791 6.45504C9.0132 6.45159 9.00886 6.44768 9.00498 6.44338Z" fill="#6E6E6E"/>
<path d="M5.88676 15.5925L4.73899 15.6375C5.11454 15.5247 5.50043 15.5875 5.88159 15.5729L5.88676 15.5925Z" fill="#F8F2EA"/>
<path d="M14.3295 15.6363C14.5365 15.6254 14.7404 15.5717 14.9629 15.598C14.7557 15.6367 14.5448 15.6544 14.3338 15.6508C14.3338 15.6508 14.3373 15.6467 14.3364 15.6454C14.3355 15.6442 14.3316 15.6396 14.3295 15.6363Z" fill="#F8F2EA"/>
<path d="M5.88676 15.5925L5.88159 15.5729C6.07231 15.5552 6.26446 15.5577 6.45461 15.5804C6.26603 15.6 6.07605 15.6041 5.88676 15.5925Z" fill="#6E6E6E"/>
<path d="M9.36544 15.6167H9.92035C9.75564 15.6533 9.58835 15.6479 9.42149 15.6525C9.41108 15.6529 9.40074 15.6508 9.39135 15.6464C9.38196 15.6421 9.3738 15.6356 9.36759 15.6275C9.36581 15.6242 9.36507 15.6204 9.36544 15.6167Z" fill="#6E6E6E"/>
<path d="M17.9405 16.009C18.1389 15.9885 18.339 15.9903 18.5368 16.0144C18.3376 16.0365 18.138 15.9961 17.9405 16.009Z" fill="#6E6E6E"/>
<path d="M9.36544 15.6168C9.36438 15.6204 9.36438 15.6241 9.36544 15.6276L8.90538 15.6522L8.90063 15.6347C9.05672 15.6222 9.21022 15.6002 9.36544 15.6168Z" fill="#F8F2EA"/>
<path d="M3.2023 15.8919L3.32173 15.8765C3.34027 15.874 3.35881 15.8727 3.36011 15.8981C3.3614 15.9235 3.35105 15.9398 3.32432 15.936C3.27948 15.9359 3.23618 15.9202 3.2023 15.8919Z" fill="#F8F2EA"/>
<path d="M7.373 15.6018L7.59678 15.5864V15.6052L7.37343 15.6206L7.373 15.6018Z" fill="#6E6E6E"/>
<path d="M8.90279 15.6343L8.90753 15.6518C8.82906 15.6872 8.74498 15.6543 8.66349 15.6639C8.74326 15.6551 8.82001 15.6243 8.90279 15.6343Z" fill="#6E6E6E"/>
<path d="M19.0745 15.5585C19.0637 15.5372 19.0767 15.521 19.0896 15.5272C19.1241 15.5435 19.1081 15.5838 19.1237 15.6105C19.1301 15.6217 19.131 15.6363 19.1146 15.6355C19.0547 15.6342 19.1008 15.5759 19.0745 15.5585Z" fill="#F8F2EA"/>
<path d="M14.3295 15.6362C14.3316 15.6395 14.3347 15.642 14.3364 15.6454C14.3381 15.6487 14.3364 15.6491 14.3338 15.6508C14.2696 15.6849 14.2019 15.6591 14.1355 15.6604C14.198 15.6405 14.2638 15.6323 14.3295 15.6362Z" fill="#6E6E6E"/>
</svg>
