<svg width="19" height="23" viewBox="0 0 19 23" fill="none" xmlns="http://www.w3.org/2000/svg">
<path d="M9.49429 22.2392C8.54918 22.2565 7.25926 22.2612 5.96777 22.3105C5.12297 22.3425 4.28052 22.3371 3.43651 22.3324C2.75236 22.3277 2.06822 22.2964 1.38642 22.2299C0.9507 22.1876 0.437394 21.8128 0.331599 21.3417C0.236349 20.8852 0.176353 20.4222 0.152139 19.9566C0.0784734 18.8563 0.0933627 17.7537 0.0659341 16.6519C0.0330199 15.302 0.0894448 13.9498 0.0823918 12.5983C0.0753387 11.2993 0.122358 10.0026 0.177215 8.70673C0.19524 8.28025 0.228154 7.84593 0.417019 7.44997C0.513813 7.23552 0.662848 7.04869 0.850523 6.90653C1.0382 6.76437 1.25854 6.67141 1.49143 6.63612C2.0353 6.54144 2.58152 6.46396 3.12852 6.38884C3.24137 6.37397 3.27507 6.32858 3.29701 6.22685C3.52349 5.17746 3.87928 4.17659 4.48114 3.2798C5.67467 1.49951 7.33684 0.53542 9.49664 0.50177C10.6557 0.483772 11.687 0.909475 12.6313 1.55429C13.9361 2.44482 14.7778 3.6875 15.3428 5.13755C15.4577 5.42256 15.5546 5.71451 15.6328 6.01165C15.6665 6.14547 15.7198 6.19477 15.8679 6.19399C16.3242 6.17936 16.781 6.20397 17.233 6.26755C18.0716 6.40449 18.4242 6.76916 18.5582 7.6863C18.715 8.76308 18.7283 9.85003 18.7628 10.9362C18.7988 12.0897 18.8521 13.2439 18.8631 14.3982C18.8741 15.5062 18.8788 16.6143 18.885 17.7216C18.8897 18.6176 18.8897 19.5129 18.8498 20.4081C18.8381 20.721 18.7767 21.03 18.6679 21.3237C18.5112 21.7447 18.0536 22.028 17.5951 22.0358C16.9956 22.042 16.3961 22.0757 15.7966 22.0906C14.7888 22.1164 13.781 22.1352 12.7724 22.1586C11.7912 22.1813 10.8171 22.2064 9.49429 22.2392ZM11.0287 21.7838C12.973 21.7009 14.5646 21.6829 16.1555 21.6492C16.686 21.6483 17.216 21.6149 17.7424 21.549C18.2126 21.481 18.4078 21.265 18.4415 20.7939C18.5042 19.9041 18.4462 19.0144 18.4556 18.1246C18.4658 17.2505 18.4446 16.3757 18.4446 15.5016C18.4446 14.093 18.4618 12.6844 18.3803 11.2758C18.3122 10.0965 18.2691 8.91645 18.1452 7.74107C18.1272 7.56265 18.128 7.37171 18.0026 7.22929C17.8114 7.01174 17.5912 6.82628 17.2856 6.7942C16.7158 6.73472 16.1461 6.67212 15.5717 6.69325C15.3146 6.70342 15.3201 6.7042 15.2754 6.45144C14.9988 4.87071 14.3021 3.51221 13.0968 2.43935C12.0114 1.47369 10.7458 0.958775 9.27408 1.03077C7.26709 1.12624 5.73345 2.05747 4.63396 3.71802C4.0368 4.62108 3.69355 5.62351 3.53682 6.69168C3.52114 6.79498 3.49136 6.84819 3.38008 6.83332C3.17241 6.80985 2.96709 6.84898 2.7602 6.8568C2.30371 6.86986 1.85153 6.94894 1.41777 7.09156C1.2576 7.13924 1.11305 7.22869 0.998996 7.35069C0.884945 7.47269 0.805517 7.62284 0.768888 7.78568C0.6435 8.24112 0.625476 8.70673 0.598048 9.17078C0.528301 10.3188 0.555729 11.4691 0.532219 12.6187C0.498521 14.2816 0.48128 15.946 0.55181 17.6097C0.592561 18.5613 0.603533 19.5152 0.660741 20.4668C0.670656 20.7264 0.705029 20.9844 0.763403 21.2376C0.788037 21.3626 0.848334 21.4779 0.937036 21.5695C1.02574 21.6612 1.13907 21.7252 1.26338 21.7541C1.64033 21.8613 2.02276 21.8104 2.40206 21.8151C3.56346 21.8292 4.72565 21.7916 5.88783 21.8073C6.82824 21.8198 7.76864 21.8198 8.70905 21.8206C9.60087 21.8135 10.4927 21.812 11.0287 21.7838Z" fill="#F8F2EA"/>
<path d="M11.0287 21.784C10.4927 21.8121 9.60084 21.8137 8.70903 21.8129C7.76862 21.8129 6.82821 21.8129 5.88781 21.7996C4.72562 21.784 3.56344 21.8215 2.40203 21.8074C2.02274 21.8027 1.64031 21.8536 1.26336 21.7464C1.13904 21.7176 1.02571 21.6535 0.937011 21.5619C0.848309 21.4702 0.788013 21.355 0.763378 21.2299C0.705005 20.9768 0.670632 20.7187 0.660716 20.4591C0.603508 19.5075 0.592537 18.5536 0.551786 17.6021C0.481255 15.9384 0.498496 14.2739 0.532194 12.611C0.555704 11.4614 0.528276 10.3111 0.598023 9.16311C0.625452 8.69906 0.643476 8.23345 0.768863 7.77801C0.805492 7.61517 0.884921 7.46502 0.998971 7.34302C1.11302 7.22102 1.25757 7.13157 1.41774 7.08389C1.85151 6.94127 2.30369 6.86219 2.76017 6.84913C2.96706 6.8413 3.17238 6.80218 3.38006 6.82565C3.4882 6.83818 3.51798 6.78731 3.53679 6.68401C3.69353 5.61819 4.03756 4.61575 4.63393 3.71035C5.73107 2.04979 7.26707 1.11857 9.27405 1.0231C10.7427 0.953452 12.0114 1.46837 13.0968 2.43168C14.3021 3.50454 14.9988 4.86304 15.2754 6.44377C15.3201 6.69653 15.3146 6.69575 15.5716 6.68558C16.1461 6.66445 16.7158 6.72705 17.2855 6.78653C17.5912 6.81861 17.8114 7.00407 18.0026 7.22162C18.128 7.36404 18.1272 7.55498 18.1452 7.7334C18.2683 8.90722 18.3114 10.0889 18.3803 11.2681C18.4587 12.6767 18.4454 14.0853 18.4446 15.4939C18.4446 16.368 18.4657 17.2429 18.4556 18.117C18.4461 19.0067 18.5041 19.8965 18.4414 20.7862C18.4077 21.2557 18.2118 21.4733 17.7424 21.5414C17.216 21.6072 16.686 21.6407 16.1555 21.6415C14.5646 21.683 12.973 21.701 11.0287 21.784ZM13.777 3.77608V3.78782L13.7864 3.79408L13.8272 3.80973C13.8284 3.80222 13.8284 3.79456 13.8272 3.78704C13.8131 3.76513 13.7951 3.75652 13.777 3.77608ZM5.02185 4.0891C5.01009 4.0891 4.98972 4.0891 5.00853 4.11101C5.01245 4.10319 5.01558 4.09458 5.01871 4.08675L5.03987 4.07502L5.02655 4.06484L5.02185 4.0891ZM4.92546 4.24561C4.91684 4.24561 4.89333 4.24561 4.91527 4.26674C4.91527 4.25891 4.92076 4.25109 4.92311 4.24326C4.94035 4.24326 4.95602 4.24326 4.93643 4.219L4.92546 4.24561ZM4.76872 4.53202L4.7601 4.55784L4.76716 4.52967L4.77578 4.51872L4.76872 4.53202ZM4.60729 4.59228L4.63001 4.57271L4.61669 4.56332C4.61669 4.5735 4.61121 4.58367 4.60885 4.59384C4.6065 4.60401 4.56967 4.61419 4.60102 4.63453L4.60729 4.59228ZM12.0592 4.21822L12.0921 4.24874C12.1029 4.28306 12.1219 4.31425 12.1474 4.33961C12.1729 4.36497 12.2043 4.38374 12.2387 4.39429C12.2019 4.33404 12.1736 4.26596 12.0976 4.24326L12.071 4.20492C12.0702 4.1929 12.0657 4.18142 12.0581 4.17204C12.0505 4.16266 12.0402 4.15583 12.0287 4.15249C12.0266 4.14619 12.0232 4.14039 12.0188 4.13542C12.0144 4.13045 12.009 4.12642 12.003 4.12357C11.997 4.12072 11.9905 4.11911 11.9839 4.11884C11.9772 4.11856 11.9706 4.11963 11.9644 4.12197L11.9566 4.11179L11.966 4.1204C11.9816 4.14466 11.9989 4.16501 12.0318 4.15014C12.0114 4.18301 12.0302 4.20179 12.0592 4.21822ZM5.11589 3.93025L5.08533 3.99363C5.06965 3.99363 5.05163 3.99363 5.072 4.01789L5.08298 3.99128C5.1104 3.97876 5.11119 3.95294 5.11354 3.9279L5.12373 3.91851L5.11589 3.93025ZM13.5976 3.47637C13.5913 3.46307 13.5827 3.44742 13.5662 3.46072C13.5615 3.46072 13.5709 3.48576 13.5741 3.49906L13.614 3.55541L13.6673 3.62897C13.6947 3.67827 13.7104 3.74009 13.8045 3.75965C13.7828 3.69912 13.7458 3.64521 13.6971 3.60314L13.6422 3.52489L13.5976 3.47637ZM12.3171 4.5015C12.3123 4.47411 12.3045 4.44907 12.2747 4.44203C12.2708 4.44203 12.2583 4.45533 12.2598 4.46081C12.2603 4.46731 12.2621 4.47364 12.2651 4.47941C12.2682 4.48519 12.2723 4.49029 12.2774 4.49439C12.2825 4.4985 12.2883 4.50152 12.2946 4.50328C12.3009 4.50504 12.3075 4.5055 12.3139 4.50463C12.3084 4.54298 12.3139 4.57428 12.3617 4.58289C12.3719 4.54141 12.3468 4.5195 12.3171 4.49994V4.5015ZM15.2166 21.0914C15.3405 21.0672 15.476 21.1094 15.6085 21.0132L15.226 21.0492C15.0952 21.0202 14.9721 21.0672 14.8467 21.0898C14.9706 21.0977 15.0912 21.1337 15.2143 21.0906L15.2166 21.0914ZM5.78358 5.64401C5.87907 5.50301 5.95203 5.34804 5.99987 5.18466C5.90191 5.3263 5.79298 5.46246 5.78515 5.64558C5.78515 5.65419 5.75693 5.65575 5.77574 5.67219L5.78358 5.64401ZM4.54773 4.75661C4.45715 4.91489 4.39932 5.08972 4.37767 5.27074C4.43801 5.10015 4.52657 4.93894 4.54538 4.75426L4.57045 4.72609L4.55478 4.71592L4.54773 4.75661ZM0.975752 16.7773C0.954429 17.1662 0.972018 17.5562 1.02826 17.9417C1.02434 17.5543 1.06744 17.1662 1.0071 16.7796V16.0659H0.975752V16.7773ZM8.08601 6.89452C7.52019 6.864 6.95438 6.89452 6.38857 6.89452C6.61819 6.91252 6.84859 6.9313 7.07899 6.93521C7.41675 6.94147 7.75451 6.97825 8.09228 6.92973L8.58285 6.9446C9.20274 6.9759 9.82106 6.9446 10.4409 6.91643C10.3742 6.89027 10.302 6.88138 10.2309 6.8906C9.84535 6.93834 9.45978 6.90939 9.07422 6.8906C8.91043 6.88356 8.74664 6.8906 8.58285 6.8906L8.08601 6.89452ZM14.5631 5.42725C14.4348 4.86313 14.1935 4.33075 13.8538 3.86216C14.14 4.35077 14.364 4.8731 14.5207 5.41708C14.5623 5.59471 14.6046 5.77235 14.6461 5.94999C14.6383 5.77157 14.6383 5.59237 14.5631 5.42725ZM6.39014 21.3864C6.08059 21.3176 5.20288 21.3395 5.13078 21.4232H6.39014C8.46374 21.4655 10.5365 21.5555 12.6101 21.4631L6.39014 21.3864ZM18.1452 17.2851C18.1452 16.9831 18.1515 16.6818 18.1538 16.3797C18.1538 15.8875 18.1687 15.3953 18.1632 14.9031C18.146 13.5579 18.1452 12.2119 18.0449 10.8691C18.0645 10.6899 18.0136 10.5161 18.0034 10.3385C17.9791 10.5153 17.9791 10.6946 18.0034 10.8714C18.0073 11.2423 18.0089 11.6133 18.0175 11.9842C18.0582 13.7527 18.0465 15.5228 18.106 17.2906C18.0676 17.4659 18.1319 17.6381 18.0841 17.8133H18.1476L18.1452 17.2851ZM8.36813 7.59255H6.45754C5.81492 7.59255 5.1731 7.58629 4.53049 7.59255C3.94822 7.59255 3.36203 7.56751 2.78995 7.71932C2.26724 7.85783 1.68811 8.20528 1.67636 9.02147C1.66617 9.67724 1.64579 10.3338 1.62777 10.9896C1.59015 12.3355 1.58858 13.6815 1.56978 15.0267C1.5541 16.1027 1.60112 17.1779 1.61053 18.2531C1.61128 18.8201 1.65293 19.3863 1.73513 19.9473C1.76135 20.1585 1.85034 20.3569 1.99061 20.517C2.26959 20.83 2.64497 20.9083 3.03054 20.9083C4.24053 20.9036 5.44973 20.9349 6.66051 20.8997C7.41283 20.8778 8.16672 20.9451 8.92062 20.9466C10.4441 20.9466 11.966 20.8762 13.4894 20.8934C14.0841 20.9014 14.6787 20.8729 15.2699 20.8081C15.6477 20.7659 16.023 20.7299 16.3867 20.5804C17.0614 20.3081 17.389 19.8229 17.4125 19.1061C17.4595 17.6756 17.4909 16.2451 17.483 14.8146C17.4689 13.0719 17.4242 11.3284 17.3898 9.58568C17.3909 9.21923 17.3335 8.85494 17.2197 8.50656C17.157 8.30249 17.0391 8.11968 16.879 7.97829C16.7188 7.83689 16.5227 7.7424 16.3122 7.70523C15.8229 7.60855 15.3265 7.55227 14.8279 7.53699C14.0592 7.51038 13.2896 7.50881 12.5208 7.50021C11.1353 7.48534 9.75288 7.59646 8.36813 7.59255ZM9.74582 1.65696C8.5037 1.66244 7.58054 1.9598 6.75533 2.53654C5.3024 3.55384 4.51325 4.98433 4.19978 6.7028C4.18175 6.79826 4.21937 6.81 4.29774 6.80687C4.45447 6.79905 4.60102 6.76149 4.75697 6.76383C5.02655 6.76931 5.03517 6.75131 5.08376 6.48368C5.41133 4.69714 6.72947 2.96224 8.89476 2.66879C10.488 2.45124 11.8014 2.9638 12.8202 4.201C13.335 4.83437 13.6669 5.59602 13.7802 6.40386C13.8068 6.57837 13.8656 6.63237 14.0349 6.61358C14.1569 6.60538 14.2795 6.60932 14.4008 6.62532C14.5137 6.6355 14.5576 6.61202 14.5427 6.48055C14.4298 5.57359 14.172 4.7167 13.6532 3.95763C12.6603 2.50445 11.2912 1.71408 9.74582 1.65696ZM9.41511 6.63471V6.64254C9.7756 6.64254 10.1361 6.64723 10.4966 6.64254C11.2497 6.63002 12.002 6.61124 12.7551 6.59715C12.8531 6.59715 12.8797 6.56272 12.8641 6.46334C12.7846 5.88431 12.5806 5.32931 12.2661 4.83643C11.2324 3.25178 9.32812 2.79556 7.69652 3.75652C6.63229 4.38255 5.98812 5.33021 5.6864 6.51733C5.64252 6.69262 5.64957 6.70827 5.82198 6.67384C6.14407 6.61515 6.46694 6.63471 6.78981 6.63315C7.66517 6.63237 8.54445 6.63471 9.41511 6.63471ZM0.975752 15.9063C0.970267 14.1894 0.975752 12.474 0.945189 10.7595C0.839394 12.4764 0.931867 14.1925 0.975752 15.9063ZM2.22414 21.2777L2.22806 21.3317C2.92083 21.327 3.60967 21.4647 4.29304 21.3418L2.22414 21.2777ZM7.67693 6.75523V6.71453H6.06335C6.60016 6.78261 7.13933 6.75366 7.67693 6.75601V6.75523ZM0.961647 9.50821C0.911885 9.90471 0.911885 10.3059 0.961647 10.7024V9.50821ZM1.18264 8.89939C1.20847 8.62818 1.19554 8.35469 1.14424 8.08711C1.11982 8.35861 1.13274 8.63218 1.18264 8.90018V8.89939ZM5.70756 7.16215C5.43982 7.10147 5.16186 7.10147 4.89411 7.16215H5.70756ZM16.512 7.65045L16.9736 7.72871C16.8459 7.61289 16.8459 7.61289 16.512 7.65124V7.65045ZM1.44596 11.0342C1.50395 10.8777 1.47965 10.7212 1.49376 10.5646C1.49376 10.5396 1.49376 10.5083 1.45536 10.5114C1.41696 10.5146 1.41461 10.5427 1.41539 10.5686C1.41931 10.7258 1.39815 10.8816 1.44596 11.0342ZM2.29624 7.71697C2.26568 7.68097 2.22571 7.69897 2.19279 7.70132C2.16399 7.69801 2.13481 7.70046 2.10696 7.70852C2.07911 7.71658 2.05315 7.7301 2.03058 7.74827C2.01177 7.76705 2.04076 7.78349 2.05408 7.79679C2.11599 7.85705 2.15753 7.78427 2.20612 7.76862C2.23668 7.75844 2.27508 7.75688 2.29624 7.71697ZM5.60568 6.16362L5.56885 6.15189C5.50466 6.30908 5.47602 6.47849 5.485 6.64802L5.60568 6.16362ZM18.2079 21.0531C18.2739 20.8913 18.2927 20.7141 18.262 20.5421C18.1938 20.7377 18.215 20.8981 18.2079 21.0531ZM10.4934 3.16414C10.3636 3.08906 10.2094 3.06771 10.064 3.10466L10.4934 3.16414ZM17.7338 8.17241C17.7399 8.11435 17.7321 8.05566 17.711 8.00122C17.6899 7.94678 17.656 7.89816 17.6123 7.85939C17.6523 7.96191 17.693 8.06677 17.7338 8.17163V8.17241ZM17.0504 21.1501C17.1178 21.1501 17.1891 21.1908 17.2479 21.1313C17.2503 21.1245 17.2512 21.1173 17.2506 21.1102C17.2499 21.103 17.2476 21.0961 17.244 21.0898C17.2094 21.086 17.1743 21.0893 17.141 21.0995C17.1077 21.1098 17.0769 21.1267 17.0504 21.1493V21.1501ZM2.17164 21.2957C2.14656 21.2786 2.11693 21.2695 2.08661 21.2695C2.05628 21.2695 2.02666 21.2786 2.00158 21.2957C2.02699 21.3119 2.05656 21.3204 2.08672 21.3203C2.11689 21.3202 2.14637 21.3113 2.17164 21.2949V21.2957ZM4.34084 5.37638L4.33379 5.35604C4.33379 5.35604 4.3283 5.36465 4.32908 5.36856C4.33045 5.37554 4.33255 5.38236 4.33535 5.38891C4.33535 5.38891 4.33927 5.38108 4.34084 5.37638ZM4.87217 4.32543L4.87844 4.33091V4.3223L4.87217 4.32543ZM4.98032 4.16892L4.97326 4.15875C4.97326 4.15875 4.96621 4.16423 4.96543 4.16736C4.96464 4.17049 4.96543 4.17362 4.97169 4.17753C4.97431 4.17393 4.97719 4.17053 4.98032 4.16736V4.16892ZM12.4064 4.64471L12.3986 4.63375C12.3986 4.63375 12.3899 4.63923 12.3899 4.64236C12.3899 4.64549 12.3938 4.6494 12.3962 4.65331L12.4064 4.64471Z" fill="#0C0505"/>
<path d="M8.36817 7.59229C9.75292 7.59229 11.1353 7.48508 12.5216 7.49995C13.2904 7.50856 14.06 7.51012 14.8288 7.53673C15.3273 7.55202 15.8237 7.60829 16.313 7.70498C16.5234 7.74227 16.7193 7.83682 16.8793 7.97821C17.0393 8.1196 17.1571 8.30234 17.2197 8.5063C17.3336 8.85468 17.391 9.21897 17.3898 9.58543C17.4243 11.3281 17.4682 13.0717 17.4831 14.8144C17.4948 16.2449 17.4595 17.6754 17.4125 19.1058C17.389 19.8227 17.0614 20.3078 16.3867 20.5802C16.0231 20.7273 15.6477 20.7656 15.27 20.8079C14.6787 20.8721 14.0841 20.9001 13.4895 20.8916C11.966 20.8744 10.4441 20.9479 8.92066 20.9448C8.16677 20.9448 7.41288 20.876 6.66055 20.8979C5.44978 20.9331 4.24058 20.9018 3.03059 20.9065C2.64502 20.9065 2.26964 20.8282 1.99065 20.5152C1.85039 20.3551 1.7614 20.1566 1.73518 19.9455C1.65293 19.3842 1.61129 18.8178 1.61057 18.2505C1.60117 17.1753 1.55415 16.1001 1.56982 15.0241C1.58863 13.6789 1.5902 12.3329 1.62781 10.987C1.64584 10.3312 1.66621 9.67464 1.6764 9.01887C1.68816 8.20267 2.26729 7.85522 2.79 7.71671C3.36208 7.5649 3.94827 7.59385 4.53053 7.58994C5.17314 7.58603 5.81497 7.58994 6.45758 7.58994L8.36817 7.59229ZM8.81408 19.2185C9.43654 19.3266 10.0732 19.3245 10.6949 19.2123C10.9104 19.1724 10.9519 19.1098 10.9692 18.8695C10.9953 18.3352 10.9901 17.7998 10.9535 17.2661C10.9258 16.6108 10.8953 15.9561 10.8618 15.3019C10.8587 15.2656 10.8667 15.2291 10.8849 15.1975C10.9032 15.1659 10.9306 15.1406 10.9637 15.125C11.6941 14.6633 12.1321 13.9911 12.3061 13.1593C12.5107 12.185 12.2685 11.3227 11.5146 10.6505C10.7944 10.0088 9.93709 9.79671 8.98414 9.93679C7.31335 10.1833 6.21073 11.7186 6.6441 13.3495C6.7388 13.7339 6.91026 14.0953 7.14821 14.412C7.38616 14.7286 7.68569 14.9941 8.02884 15.1923C8.09075 15.2291 8.15266 15.2534 8.14875 15.3535C8.12053 16.122 8.13464 16.8905 8.13934 17.6581C8.13934 18.04 8.14326 18.4211 8.17774 18.8014C8.1989 19.0307 8.25611 19.0863 8.4724 19.0863C9.02881 19.0863 9.58522 19.0863 10.1408 19.0824H10.611C10.0162 19.1997 9.40654 19.1098 8.81408 19.2185ZM12.7599 12.833C12.7418 12.3188 12.6752 11.9393 12.5365 11.5754C12.2944 10.9369 11.9018 10.4181 11.3101 10.062C11.2693 10.037 11.2098 9.97592 11.1745 10.0283C11.1392 10.0808 11.2176 10.1105 11.2576 10.1371C11.4106 10.2346 11.552 10.3491 11.6792 10.4783C12.3061 11.1411 12.5553 11.944 12.5122 12.8369C12.466 13.8072 12.1016 14.625 11.2693 15.1845C11.1706 15.251 11.1463 15.3528 11.1189 15.4529C11.1008 15.5194 11.1306 15.539 11.1972 15.5069C11.3325 15.446 11.461 15.371 11.5804 15.2831C12.419 14.6305 12.7324 13.7353 12.7599 12.833ZM7.858 15.6008C7.8533 15.6478 7.84782 15.694 7.84311 15.7401C7.77258 16.4358 7.77023 17.1346 7.75221 17.8319C7.74202 18.2106 7.73418 18.5948 7.81804 18.9705C7.87289 19.217 8.15267 19.3476 8.40893 19.2397C8.35784 19.208 8.3024 19.184 8.24435 19.1684C8.05471 19.1497 7.99985 19.0299 7.99201 18.864C7.96929 18.3781 7.9544 17.8913 7.97399 17.4046C7.99593 16.802 8.01474 16.2003 7.858 15.6008ZM6.6825 11.0707C6.06575 11.8345 6.05007 12.696 6.32749 13.5827C6.52655 14.2181 7.30395 15.0695 7.63074 15.0797C6.59551 14.3159 6.15587 13.3315 6.3847 12.0708C6.44504 11.7249 6.60413 11.4103 6.68015 11.0707H6.6825ZM7.09236 10.5088C7.4072 10.2585 7.75336 10.0501 8.1221 9.88905C8.48808 9.73254 8.88932 9.6895 9.27645 9.53769C8.62287 9.38275 7.16445 10.0346 7.09001 10.5088H7.09236ZM12.832 11.6161C12.955 12.023 12.9581 12.4472 13.0083 12.8682C13.098 12.4428 13.0347 11.9995 12.8296 11.6161H12.832Z" fill="#F8F2EA"/>
<path d="M9.74577 1.65674C11.2912 1.71543 12.6602 2.50423 13.6532 3.95741C14.172 4.71648 14.4298 5.57337 14.5426 6.48033C14.5591 6.6118 14.5136 6.63684 14.4008 6.6251C14.2795 6.6091 14.1569 6.60516 14.0348 6.61337C13.8655 6.63215 13.8068 6.57815 13.7801 6.40364C13.6668 5.5958 13.3349 4.83415 12.8201 4.20079C11.8013 2.96593 10.4879 2.45102 8.8947 2.66857C6.72864 2.96593 5.40972 4.69692 5.08371 6.48738C5.03512 6.75501 5.0265 6.773 4.75692 6.76753C4.60018 6.76753 4.45129 6.80274 4.29769 6.81057C4.21932 6.81057 4.1817 6.80196 4.19973 6.70649C4.5132 4.98489 5.30235 3.55754 6.75528 2.54023C7.58049 1.95958 8.50365 1.66222 9.74577 1.65674Z" fill="#F8F2EA"/>
<path d="M9.41508 6.63457C8.5405 6.63457 7.66514 6.63457 6.78978 6.63457C6.46691 6.63457 6.14403 6.61657 5.82194 6.67526C5.64954 6.70735 5.64248 6.6917 5.68637 6.51876C5.98808 5.33164 6.63226 4.38633 7.69649 3.75794C9.32496 2.79698 11.2324 3.2532 12.2661 4.83707C12.5806 5.32995 12.7846 5.88495 12.864 6.46398C12.8797 6.56336 12.853 6.59623 12.7551 6.59779C12.002 6.61188 11.2497 6.63066 10.4965 6.64318C10.1361 6.64866 9.77557 6.64318 9.41508 6.64318V6.63457ZM6.00141 6.15096C6.1072 6.15096 6.19027 6.15096 6.27412 6.15096C6.67693 6.14392 7.08052 6.12201 7.48333 6.13061C9.09613 6.16348 10.7089 6.13687 12.3217 6.09227C12.4495 6.09227 12.4659 6.05549 12.4197 5.9475C12.3734 5.83951 12.3491 5.73621 12.3092 5.63448C11.7238 4.12574 10.1933 3.32442 8.67608 3.74073C7.78818 3.9841 7.09855 4.52327 6.54214 5.24165C6.32421 5.52077 6.14252 5.8263 6.00141 6.15096Z" fill="#F8F2EA"/>
<path d="M18.0432 10.8694C18.1432 12.2122 18.144 13.5582 18.1612 14.9034C18.1667 15.3956 18.1558 15.8878 18.1518 16.3801C18.1518 16.6821 18.1464 16.9834 18.1432 17.2855L18.1018 17.2909C18.0424 15.5232 18.0542 13.7531 18.0135 11.9845C18.0049 11.6136 18.0034 11.2427 17.9995 10.8717L18.0432 10.8694Z" fill="#F8F2EA"/>
<path d="M6.39017 21.3862L12.6102 21.4645C10.5366 21.5568 8.46376 21.4645 6.39017 21.4246V21.3862Z" fill="#F8F2EA"/>
<path d="M0.975531 15.9063C0.931767 14.1925 0.83955 12.4764 0.945052 10.7595C0.973186 12.4741 0.97006 14.1894 0.975531 15.9063Z" fill="#F8F2EA"/>
<path d="M2.22421 21.2776L4.29311 21.3418C3.60974 21.4646 2.9209 21.3269 2.22813 21.3316L2.22421 21.2776Z" fill="#F8F2EA"/>
<path d="M14.5207 5.41771C14.364 4.87373 14.14 4.3514 13.8538 3.86279C14.1935 4.33138 14.4348 4.86376 14.563 5.42788L14.5207 5.41771Z" fill="#F8F2EA"/>
<path d="M8.58286 6.89274C8.74664 6.89274 8.91043 6.88413 9.07422 6.89274C9.45978 6.90918 9.84535 6.93813 10.2309 6.89274C10.302 6.88352 10.3742 6.8924 10.4409 6.91857C9.82106 6.94361 9.20274 6.97804 8.58286 6.94674V6.89274Z" fill="#6F6F6F"/>
<path d="M7.67687 6.75578C7.13927 6.75578 6.60011 6.78239 6.06329 6.71509H7.67531L7.67687 6.75578Z" fill="#6F6F6F"/>
<path d="M8.09225 6.92797C7.75449 6.97648 7.41673 6.9397 7.07896 6.93344C6.84856 6.93344 6.61817 6.91075 6.38855 6.89275C6.95436 6.89275 7.52017 6.8638 8.08598 6.89275C8.08598 6.89275 8.09382 6.89901 8.09382 6.90292C8.09419 6.9113 8.09366 6.9197 8.09225 6.92797Z" fill="#6F6F6F"/>
<path d="M6.39013 21.3864V21.4232H5.13077C5.20287 21.3394 6.08058 21.3175 6.39013 21.3864Z" fill="#6F6F6F"/>
<path d="M1.00689 16.7794C1.06707 17.166 1.02409 17.5542 1.02799 17.9415C0.971909 17.5561 0.954369 17.166 0.975633 16.7771L1.00689 16.7794Z" fill="#6F6F6F"/>
<path d="M0.961595 9.50879V10.7029C0.911971 10.3064 0.911971 9.90529 0.961595 9.50879Z" fill="#6F6F6F"/>
<path d="M1.1825 8.89993C1.13281 8.63218 1.11992 8.35889 1.14421 8.08765C1.19536 8.35522 1.20825 8.62872 1.1825 8.89993Z" fill="#6F6F6F"/>
<path d="M5.70768 7.1627H4.89423C5.16197 7.10202 5.43993 7.10202 5.70768 7.1627Z" fill="#6F6F6F"/>
<path d="M16.5119 7.65103C16.8457 7.61269 16.8457 7.61269 16.9735 7.72928L16.5119 7.65103Z" fill="#F8F2EA"/>
<path d="M1.44574 11.0332C1.39806 10.8808 1.41917 10.7253 1.41526 10.5713C1.41526 10.5455 1.42073 10.5166 1.45511 10.5143C1.4895 10.5119 1.49575 10.5424 1.49341 10.5674C1.47934 10.7222 1.50357 10.88 1.44574 11.0332Z" fill="#6F6F6F"/>
<path d="M8.09219 6.92794C8.09297 6.92013 8.09297 6.91227 8.09219 6.90446C8.09219 6.90055 8.08749 6.89742 8.08435 6.89429H8.5812V6.94437L8.09219 6.92794Z" fill="#F8F2EA"/>
<path d="M18.1052 17.2904L18.1466 17.2849V17.8116H18.0833C18.1279 17.6374 18.0638 17.4654 18.1052 17.2904Z" fill="#6F6F6F"/>
<path d="M2.29552 7.71677C2.27755 7.75663 2.23613 7.75819 2.20565 7.76835C2.15719 7.78398 2.11577 7.85666 2.05404 7.79648C2.04075 7.7832 2.01184 7.76678 2.03059 7.74803C2.0531 7.72988 2.07899 7.71638 2.10677 7.70833C2.13454 7.70028 2.16364 7.69784 2.19236 7.70114C2.22518 7.69879 2.26504 7.68082 2.29552 7.71677Z" fill="#F8F2EA"/>
<path d="M4.54093 4.75415C4.52217 4.93858 4.43386 5.09957 4.37369 5.26994C4.39527 5.08917 4.45294 4.91457 4.54327 4.75649L4.54093 4.75415Z" fill="#6F6F6F"/>
<path d="M14.5207 5.41772L14.5629 5.4271C14.6411 5.592 14.6411 5.77096 14.6458 5.94993C14.6043 5.77253 14.5621 5.59513 14.5207 5.41772Z" fill="#6F6F6F"/>
<path d="M5.60534 6.16358L5.48812 6.64733C5.47917 6.47803 5.50772 6.30884 5.57174 6.15186L5.60534 6.16358Z" fill="#6F6F6F"/>
<path d="M18.2079 21.0521C18.215 20.8958 18.1939 20.7395 18.2619 20.5417C18.2925 20.7135 18.2738 20.8905 18.2079 21.0521Z" fill="#6F6F6F"/>
<path d="M5.78519 5.64439C5.79301 5.46151 5.90164 5.32553 5.99932 5.18408C5.95162 5.34724 5.87885 5.502 5.78363 5.64282L5.78519 5.64439Z" fill="#6F6F6F"/>
<path d="M1.007 16.7786H0.975739V16.0698H1.007V16.7786Z" fill="#F8F2EA"/>
<path d="M18.0432 10.8691H17.9995C17.9752 10.6925 17.9752 10.5135 17.9995 10.3369C18.012 10.5159 18.0628 10.6894 18.0432 10.8691Z" fill="#6F6F6F"/>
<path d="M10.4934 3.1641L10.064 3.10463C10.2094 3.06768 10.3635 3.08902 10.4934 3.1641Z" fill="#6F6F6F"/>
<path d="M15.2144 21.0901C15.0913 21.1332 14.9675 21.0972 14.8437 21.0901C14.9691 21.0674 15.0921 21.0205 15.223 21.0494C15.2259 21.0524 15.228 21.056 15.2291 21.0599C15.2302 21.0639 15.2304 21.0681 15.2295 21.0721C15.2287 21.0761 15.2269 21.0799 15.2242 21.083C15.2216 21.0862 15.2182 21.0886 15.2144 21.0901Z" fill="#6F6F6F"/>
<path d="M15.2144 21.0903C15.218 21.0887 15.2213 21.0863 15.2238 21.0832C15.2264 21.0801 15.2281 21.0765 15.229 21.0726C15.2298 21.0687 15.2297 21.0646 15.2287 21.0608C15.2276 21.0569 15.2257 21.0534 15.223 21.0504L15.6054 21.0144C15.4738 21.1083 15.3382 21.066 15.2144 21.0903Z" fill="#F8F2EA"/>
<path d="M17.7335 8.171C17.6928 8.06628 17.6553 7.96156 17.6123 7.8584C17.6559 7.89711 17.6897 7.94567 17.7107 8.00004C17.7318 8.0544 17.7396 8.11301 17.7335 8.171Z" fill="#6F6F6F"/>
<path d="M17.0504 21.149C17.0768 21.1263 17.1075 21.1093 17.1407 21.0989C17.1739 21.0886 17.2089 21.0851 17.2434 21.0889C17.2471 21.0951 17.2493 21.102 17.25 21.1091C17.2507 21.1163 17.2498 21.1235 17.2474 21.1303C17.1887 21.1897 17.1176 21.1467 17.0504 21.149Z" fill="#F8F2EA"/>
<path d="M12.0975 4.24146C12.1757 4.26412 12.2015 4.33211 12.2382 4.39228C12.2039 4.38174 12.1726 4.363 12.1471 4.33767C12.1217 4.31234 12.1028 4.2812 12.092 4.24693L12.0975 4.24146Z" fill="#6F6F6F"/>
<path d="M2.17114 21.2946C2.14587 21.311 2.11643 21.3196 2.08635 21.3196C2.05627 21.3196 2.02683 21.311 2.00156 21.2946C2.02657 21.2776 2.05611 21.2686 2.08635 21.2686C2.11659 21.2686 2.14613 21.2776 2.17114 21.2946Z" fill="#F8F2EA"/>
<path d="M13.6971 3.59961C13.7457 3.64162 13.7825 3.69546 13.8042 3.75591C13.7104 3.73637 13.6948 3.67776 13.6674 3.6254L13.6971 3.59961Z" fill="#6F6F6F"/>
<path d="M12.3169 4.49976C12.3466 4.51929 12.3716 4.54118 12.3615 4.58416C12.3146 4.57244 12.3083 4.54118 12.3138 4.50601L12.3169 4.49976Z" fill="#6F6F6F"/>
<path d="M13.6672 3.62708L13.6141 3.55362L13.6422 3.52393L13.6969 3.60208L13.6672 3.62708Z" fill="#6F6F6F"/>
<path d="M12.3138 4.50274C12.3073 4.50361 12.3008 4.50315 12.2945 4.50139C12.2882 4.49963 12.2824 4.49661 12.2774 4.49251C12.2723 4.48841 12.2682 4.48332 12.2651 4.47755C12.2621 4.47178 12.2603 4.46546 12.2599 4.45897C12.2599 4.4535 12.2708 4.43944 12.2747 4.44022C12.3044 4.44725 12.3122 4.47226 12.3169 4.49961L12.3138 4.50274Z" fill="#6F6F6F"/>
<path d="M4.34103 5.37624C4.34103 5.38097 4.33709 5.38492 4.33551 5.38886C4.33268 5.38226 4.33057 5.37539 4.32919 5.36834C4.32919 5.36834 4.32919 5.35966 4.33393 5.35571L4.34103 5.37624Z" fill="#6F6F6F"/>
<path d="M13.5975 3.47461C13.6124 3.49102 13.6272 3.50821 13.6421 3.52384L13.6139 3.55354L13.5741 3.49727L13.5975 3.47461Z" fill="#6F6F6F"/>
<path d="M5.08527 3.99177L5.11574 3.92847C5.11574 3.95347 5.11574 3.97926 5.08527 3.99177Z" fill="#6F6F6F"/>
<path d="M12.0316 4.14835C11.9988 4.16319 11.9816 4.14288 11.966 4.11865C11.9722 4.11631 11.9788 4.11525 11.9854 4.11552C11.992 4.1158 11.9985 4.11741 12.0045 4.12025C12.0105 4.1231 12.0158 4.12712 12.0202 4.13208C12.0246 4.13705 12.028 4.14284 12.0301 4.14913L12.0316 4.14835Z" fill="#6F6F6F"/>
<path d="M12.0592 4.21814C12.0303 4.20329 12.0115 4.18453 12.0318 4.15015C12.0435 4.15353 12.0539 4.16047 12.0614 4.16999C12.069 4.17951 12.0734 4.19115 12.074 4.20329L12.0592 4.21814Z" fill="#6F6F6F"/>
<path d="M4.6057 4.59548L4.6136 4.5647L4.62702 4.57417L4.60413 4.5939L4.6057 4.59548Z" fill="#6F6F6F"/>
<path d="M4.76409 4.53125L4.75699 4.55967L4.76567 4.53362L4.76409 4.53125Z" fill="#6F6F6F"/>
<path d="M4.60422 4.59375L4.59797 4.63595C4.56671 4.61563 4.59797 4.60782 4.60579 4.59531L4.60422 4.59375Z" fill="#6F6F6F"/>
<path d="M4.54775 4.75621L4.55479 4.71558L4.57042 4.72574L4.54541 4.75387L4.54775 4.75621Z" fill="#6F6F6F"/>
<path d="M5.78358 5.6438L5.77569 5.67221C5.75675 5.65564 5.782 5.65406 5.78516 5.64538L5.78358 5.6438Z" fill="#6F6F6F"/>
<path d="M4.76575 4.53289L4.7736 4.51807L4.76401 4.53027L4.76575 4.53289Z" fill="#6F6F6F"/>
<path d="M4.87137 4.32611L4.88158 4.32202L4.88056 4.33325L4.87137 4.32611Z" fill="#6F6F6F"/>
<path d="M4.92348 4.24487L4.91547 4.26891C4.89304 4.24888 4.91547 4.25128 4.92589 4.24728L4.92348 4.24487Z" fill="#6F6F6F"/>
<path d="M12.0921 4.24708L12.0593 4.21661L12.071 4.2041L12.0976 4.24161L12.0921 4.24708Z" fill="#6F6F6F"/>
<path d="M4.92538 4.24747L4.93959 4.21826C4.95932 4.23957 4.93959 4.24115 4.92617 4.24273L4.92538 4.24747Z" fill="#6F6F6F"/>
<path d="M4.98088 4.16758C4.97769 4.17036 4.97469 4.17335 4.97191 4.17654C4.97191 4.17654 4.96539 4.16921 4.96539 4.16595C4.96539 4.16269 4.9711 4.16024 4.97354 4.15698L4.98088 4.16758Z" fill="#6F6F6F"/>
<path d="M12.407 4.64349L12.3964 4.65245C12.3964 4.64838 12.3891 4.64431 12.3899 4.64105C12.3907 4.63779 12.3956 4.63534 12.3989 4.63208L12.407 4.64349Z" fill="#6F6F6F"/>
<path d="M11.9671 4.11945L11.9567 4.10986L11.9654 4.1212L11.9671 4.11945Z" fill="#6F6F6F"/>
<path d="M5.01813 4.08594L5.00787 4.11041C4.98893 4.08988 5.00787 4.09146 5.02129 4.08831L5.01813 4.08594Z" fill="#6F6F6F"/>
<path d="M5.02187 4.08795L5.0266 4.06348L5.04002 4.07374L5.01871 4.08558L5.02187 4.08795Z" fill="#6F6F6F"/>
<path d="M5.08316 3.98975L5.07211 4.01658C5.05158 3.99448 5.0721 3.99448 5.08552 3.99211L5.08316 3.98975Z" fill="#6F6F6F"/>
<path d="M5.11605 3.92982L5.12477 3.91675L5.11343 3.92721L5.11605 3.92982Z" fill="#6F6F6F"/>
<path d="M13.7769 3.7758C13.798 3.75626 13.8129 3.76485 13.8223 3.78674C13.8235 3.79424 13.8235 3.80189 13.8223 3.8094L13.7816 3.79377V3.78205L13.7769 3.7758Z" fill="#F8F2EA"/>
<path d="M13.785 3.79545L13.7747 3.78864L13.7773 3.77588L13.7884 3.78269L13.785 3.79545Z" fill="#6F6F6F"/>
<path d="M13.574 3.49711C13.574 3.48382 13.5615 3.46272 13.5662 3.45881C13.5826 3.44553 13.5912 3.45881 13.5974 3.47444L13.574 3.49711Z" fill="#6F6F6F"/>
<path d="M8.81403 19.2187C9.40805 19.11 10.0162 19.2 10.6094 19.0818H10.1392C9.58359 19.0818 9.02719 19.0865 8.47078 19.0857C8.2537 19.0857 8.19728 19.0301 8.17612 18.8009C8.14164 18.4205 8.14007 18.0394 8.13772 17.6576C8.13302 16.8899 8.11891 16.1214 8.14712 15.353C8.14712 15.2528 8.08913 15.2286 8.02722 15.1918C7.68406 14.9935 7.38453 14.7281 7.14659 14.4114C6.90864 14.0947 6.73718 13.7333 6.64247 13.3489C6.2091 11.7181 7.31173 10.1827 8.98252 9.93622C9.93546 9.79614 10.7928 10.0082 11.513 10.6499C12.2669 11.3221 12.509 12.1845 12.3045 13.1587C12.1305 13.9906 11.6925 14.6628 10.9621 15.1245C10.929 15.14 10.9015 15.1653 10.8833 15.1969C10.8651 15.2286 10.857 15.265 10.8602 15.3013C10.8942 15.9555 10.9247 16.6103 10.9519 17.2655C10.9884 17.7992 10.9937 18.3346 10.9676 18.8689C10.9503 19.1092 10.9088 19.1718 10.6933 19.2117C10.0721 19.324 9.43602 19.3264 8.81403 19.2187ZM8.71215 13.8802C8.82684 13.8647 8.93647 13.8232 9.03267 13.7589C8.92456 13.7595 8.81776 13.7827 8.7192 13.827C8.60635 13.8771 8.47313 13.8771 8.38066 13.9781L8.71215 13.8802ZM9.34849 14.1933C9.10482 14.2382 8.86871 14.3173 8.6471 14.428L9.41197 14.2261C9.54073 14.2089 9.66588 14.1711 9.78264 14.1142C9.63342 14.1006 9.48329 14.1279 9.34849 14.1933ZM9.8712 13.1392C9.3626 13.2018 8.85948 13.3027 8.39398 13.5304L8.41122 13.5883L9.8712 13.1392ZM8.37282 13.0351L8.38536 13.0797L9.81477 12.6696L9.8038 12.6305C9.3195 12.7385 8.81638 12.7784 8.37282 13.0382V13.0351ZM11.3821 13.5523C11.1243 13.4929 10.2474 13.6306 10.0209 13.773C10.4879 13.7018 10.9315 13.6674 11.3821 13.5555V13.5523ZM10.3469 11.8386C10.7616 11.8481 11.1765 11.8308 11.589 11.7869C11.5664 11.766 11.5397 11.75 11.5105 11.74C11.4814 11.7301 11.4504 11.7263 11.4197 11.729C11.0522 11.7048 10.6972 11.7689 10.3469 11.8386ZM9.65569 10.9989C9.10061 11.0581 8.55825 11.2039 8.04838 11.4309C8.57814 11.2736 9.11731 11.1429 9.65334 10.9989H9.65569ZM11.5749 12.5992C11.2403 12.5875 10.9158 12.6634 10.5922 12.7377C10.9238 12.7365 11.2536 12.6899 11.5726 12.5992H11.5749ZM10.0718 10.495C9.60604 10.4504 9.13606 10.5018 8.69099 10.646C9.1474 10.5707 9.60757 10.5203 10.0695 10.495H10.0718ZM10.3853 11.5592C10.7262 11.5138 11.0726 11.5162 11.4041 11.4137C11.0577 11.4403 10.7129 11.4575 10.3806 11.5592H10.3853ZM8.69726 11.7705C8.50604 11.7705 7.83522 11.9747 7.67065 12.0874L8.69726 11.7705ZM7.9128 12.3566L8.5993 12.1219C8.35414 12.1403 8.11779 12.2211 7.9128 12.3566ZM11.3766 13.1024C11.1334 13.1038 10.892 13.1448 10.6619 13.2237C10.9041 13.2033 11.1478 13.1971 11.3766 13.1047V13.1024ZM9.2905 14.6933C9.52304 14.6679 9.75137 14.613 9.96994 14.5297C9.73549 14.5449 9.50552 14.6011 9.2905 14.6956V14.6933ZM9.6745 17.5363C9.42556 17.597 9.18247 17.6795 8.94803 17.7828L8.96371 17.8219L9.6745 17.5363ZM10.1016 10.7587C10.3491 10.7766 10.5978 10.7619 10.8414 10.7148C10.5942 10.6789 10.3423 10.6946 10.1016 10.761V10.7587ZM9.50758 17.019C9.3253 17.0413 9.15277 17.1137 9.00916 17.228L9.50758 17.019ZM8.83832 11.4254L8.84929 11.4802L9.50366 11.301C9.27639 11.3049 9.05142 11.3472 8.83832 11.4262V11.4254ZM9.77481 12.1798C9.52247 12.161 9.29442 12.2181 9.21605 12.323L9.77481 12.1798ZM10.7058 12.2212C10.8892 12.258 11.0671 12.2158 11.2928 12.1837C11.0616 12.1305 10.8845 12.179 10.7058 12.222V12.2212ZM7.47943 13.1556C7.3227 13.2135 7.27568 13.255 7.24433 13.3841C7.32505 13.2878 7.42301 13.2558 7.47943 13.1564V13.1556ZM9.85318 17.4596C9.88923 17.4596 9.92449 17.4682 9.94878 17.4314C9.93153 17.4247 9.91246 17.4244 9.89496 17.4304C9.87746 17.4364 9.86266 17.4484 9.85318 17.4643V17.4596ZM9.77951 17.494C9.77951 17.494 9.77951 17.4862 9.77559 17.4846C9.77102 17.4831 9.76606 17.4831 9.76149 17.4846C9.74816 17.4901 9.74973 17.4964 9.7654 17.4995C9.78108 17.5026 9.77481 17.5003 9.77951 17.4987V17.494Z" fill="#0C0505"/>
<path d="M12.7599 12.8328C12.7325 13.7351 12.419 14.6326 11.5774 15.2845C11.4579 15.3724 11.3294 15.4474 11.1941 15.5083C11.1275 15.5404 11.0977 15.5208 11.1158 15.4543C11.1432 15.3542 11.1675 15.2524 11.2662 15.1859C12.0985 14.624 12.4629 13.8063 12.5091 12.8383C12.5522 11.943 12.3062 11.1402 11.6792 10.4781C11.553 10.3493 11.4126 10.2351 11.2607 10.1377C11.2208 10.1111 11.1377 10.0892 11.1777 10.0289C11.2176 9.96869 11.2725 10.0376 11.3133 10.0626C11.9049 10.4187 12.2975 10.9375 12.5397 11.576C12.6753 11.9391 12.7419 12.3187 12.7599 12.8328Z" fill="#0C0505"/>
<path d="M7.85782 15.6008C8.01455 16.2003 7.99731 16.802 7.9738 17.4007C7.95421 17.8874 7.9691 18.3742 7.99182 18.8601C7.99966 19.026 8.05452 19.1457 8.24417 19.1645C8.30221 19.1801 8.35765 19.2041 8.40874 19.2357C8.15248 19.3437 7.87271 19.213 7.81785 18.9665C7.734 18.5909 7.73948 18.2067 7.75202 17.8279C7.77004 17.1307 7.7724 16.4319 7.84293 15.7362C7.84763 15.694 7.85311 15.6478 7.85782 15.6008Z" fill="#0C0505"/>
<path d="M6.68017 11.0708C6.60181 11.4104 6.44507 11.725 6.38238 12.0709C6.15354 13.3316 6.59318 14.316 7.62841 15.0798C7.30162 15.0727 6.52422 14.219 6.32517 13.5828C6.04775 12.6961 6.06342 11.8346 6.68017 11.0708Z" fill="#0C0505"/>
<path d="M7.0899 10.5089C7.16435 10.0347 8.62277 9.38283 9.274 9.53934C8.88686 9.69115 8.48562 9.73497 8.11965 9.8907C7.75099 10.0513 7.40484 10.2591 7.0899 10.5089Z" fill="#0C0505"/>
<path d="M12.8296 11.6162C13.0333 11.9999 13.0956 12.4432 13.0055 12.8683C12.9554 12.4473 12.9523 12.0231 12.8296 11.6162Z" fill="#0C0505"/>
<path d="M9.87111 13.1389L8.41113 13.5842L8.39389 13.5263C8.85782 13.3056 9.36251 13.2046 9.87111 13.1389Z" fill="#F8F2EA"/>
<path d="M8.37286 13.038C8.81642 12.7782 9.31954 12.7383 9.80385 12.6311L9.81482 12.6702L8.38775 13.0826L8.37286 13.038Z" fill="#F8F2EA"/>
<path d="M11.3821 13.5555C10.9315 13.6674 10.4879 13.7019 10.0208 13.7762C10.2473 13.6361 11.1243 13.4961 11.3821 13.5555Z" fill="#F8F2EA"/>
<path d="M10.3469 11.8384C10.6996 11.7688 11.0522 11.7046 11.4198 11.7289C11.4505 11.7261 11.4814 11.7299 11.5106 11.7399C11.5397 11.7498 11.5665 11.7658 11.589 11.7868C11.1765 11.8306 10.7616 11.8479 10.3469 11.8384Z" fill="#F8F2EA"/>
<path d="M9.65339 10.9985C9.11736 11.1425 8.57819 11.2732 8.04608 11.4305C8.55596 11.2035 9.09831 11.0578 9.65339 10.9985Z" fill="#6F6F6F"/>
<path d="M11.5725 12.5992C11.2529 12.6901 10.9222 12.7367 10.5898 12.7377C10.9135 12.6634 11.2379 12.5914 11.5725 12.5992Z" fill="#F8F2EA"/>
<path d="M10.0694 10.495C9.60675 10.5203 9.14579 10.5707 8.6886 10.6461C9.13367 10.5019 9.60365 10.4505 10.0694 10.495Z" fill="#6F6F6F"/>
<path d="M10.3806 11.5591C10.7129 11.4574 11.0577 11.4402 11.3994 11.4136C11.0679 11.5161 10.7215 11.5137 10.3806 11.5591Z" fill="#F8F2EA"/>
<path d="M8.69272 11.7703L7.66611 12.0872C7.83068 11.9745 8.5015 11.7672 8.69272 11.7703Z" fill="#6F6F6F"/>
<path d="M9.41196 14.2294L8.64709 14.4313C8.8687 14.3206 9.10481 14.2415 9.34848 14.1965C9.37199 14.2012 9.40647 14.1965 9.41196 14.2294Z" fill="#F8F2EA"/>
<path d="M7.91275 12.3566C8.11774 12.2211 8.35409 12.1402 8.59925 12.1218L7.91275 12.3566Z" fill="#F8F2EA"/>
<path d="M11.3767 13.1045C11.1479 13.1968 10.9065 13.2031 10.662 13.2258C10.892 13.1469 11.1334 13.1059 11.3767 13.1045Z" fill="#6F6F6F"/>
<path d="M9.29041 14.6953C9.50557 14.6015 9.73553 14.5462 9.96985 14.5317C9.75128 14.615 9.52294 14.6699 9.29041 14.6953Z" fill="#6F6F6F"/>
<path d="M9.67449 17.5383L8.9637 17.824L8.94803 17.7848C9.18246 17.6815 9.42556 17.599 9.67449 17.5383Z" fill="#6F6F6F"/>
<path d="M10.1018 10.761C10.3427 10.6953 10.5946 10.6804 10.8416 10.7171C10.598 10.7642 10.3492 10.7789 10.1018 10.761Z" fill="#6F6F6F"/>
<path d="M9.50745 17.0198L9.00903 17.2287C9.15264 17.1144 9.32517 17.0421 9.50745 17.0198Z" fill="#F8F2EA"/>
<path d="M8.83826 11.4259C9.0514 11.3472 9.27637 11.3051 9.50359 11.3015L8.84923 11.4807L8.83826 11.4259Z" fill="#6F6F6F"/>
<path d="M9.7747 12.1805L9.21594 12.3237C9.29431 12.2189 9.52236 12.1618 9.7747 12.1805Z" fill="#6F6F6F"/>
<path d="M10.7058 12.2218C10.8845 12.1788 11.0616 12.1303 11.2928 12.1843C11.0671 12.2164 10.8892 12.2586 10.7058 12.2218Z" fill="#6F6F6F"/>
<path d="M9.41205 14.2291C9.40343 14.1963 9.37208 14.201 9.34857 14.1931C9.48345 14.128 9.63357 14.101 9.78273 14.1149C9.6661 14.1726 9.54094 14.2111 9.41205 14.2291Z" fill="#6F6F6F"/>
<path d="M7.47884 13.1562C7.42257 13.2555 7.32253 13.2875 7.24438 13.3844C7.27564 13.2555 7.32175 13.2172 7.47884 13.1562Z" fill="#F8F2EA"/>
<path d="M8.7111 13.8798L8.38287 13.9775C8.47509 13.8767 8.60795 13.8767 8.72048 13.8267L8.7111 13.8798Z" fill="#F8F2EA"/>
<path d="M8.71216 13.8802L8.72154 13.827C8.81982 13.7827 8.92632 13.7596 9.03414 13.759C8.93751 13.8236 8.82735 13.865 8.71216 13.8802Z" fill="#6F6F6F"/>
<path d="M9.85327 17.4641C9.86343 17.449 9.8785 17.438 9.89589 17.4329C9.91329 17.4278 9.93193 17.4288 9.94861 17.4359C9.92439 17.4727 9.88922 17.4672 9.85327 17.4641Z" fill="#6F6F6F"/>
<path d="M9.77978 17.4986C9.77505 17.4986 9.76952 17.5033 9.76557 17.5025C9.76162 17.5017 9.74821 17.493 9.76163 17.4875C9.76623 17.4859 9.77123 17.4859 9.77583 17.4875C9.77583 17.4875 9.7782 17.4954 9.77978 17.4986Z" fill="#6F6F6F"/>
</svg>
