<svg xmlns="http://www.w3.org/2000/svg" fill="none" viewBox="0.05 0.07 159.7 158.28">
<g filter="url(#filter0_d_2409_117782)">
<path d="M0.050354 79.2728C0.342414 59.1614 7.09609 41.4537 20.7619 26.4749C31.8997 14.2691 45.6843 6.42913 61.7179 2.44101C66.6631 1.21124 71.6892 0.49702 76.7796 0.20969C87.3053 -0.386312 97.5489 0.979732 107.482 4.53933C117.648 8.18266 126.631 13.7339 134.472 21.1223C141.145 27.4091 146.348 34.7516 150.575 42.8526C154.928 51.1966 157.756 59.9807 159.025 69.2852C159.594 73.4573 159.85 77.6473 159.711 81.8506C159.07 101.42 152.233 118.548 138.903 132.966C127.608 145.18 113.709 153.028 97.3937 156.571C92.7142 157.587 87.9785 158.224 83.1835 158.329C61.7476 158.801 42.8462 152.141 26.7285 138.067C13.929 126.889 5.8074 112.853 2.00897 96.3451C0.83083 91.229 0.198859 86.0373 0.126257 80.7833C0.119656 80.3072 0.080055 79.8327 0.0520041 79.2744L0.050354 79.2728Z" fill="#060000"/>
<path d="M83.9904 150.48C72.9119 150.68 62.5793 148.867 52.6707 144.833C45.5622 141.94 38.9208 138.234 33.1406 133.148C23.638 124.787 16.6896 114.673 12.312 102.821C10.3996 97.6455 9.11911 92.3144 8.43764 86.8469C7.76442 81.4582 7.56146 76.0466 8.30234 70.6596C9.29897 63.4156 11.4341 56.4852 14.6254 49.8915C20.9187 36.8878 30.2035 26.4979 42.4436 18.7877C50.5487 13.6831 59.3699 10.2844 68.8247 8.56205C73.4795 7.7132 78.1739 7.31422 82.903 7.35855C90.2293 7.42751 97.4251 8.43562 104.382 10.7375C109.226 12.34 113.738 14.701 118.008 17.4857C131.867 26.5242 141.696 38.835 147.876 54.0733C150.557 60.6852 152.227 67.5532 152.895 74.6592C153.218 78.0907 153.4 81.5305 153.11 84.9669C152.765 89.0487 151.94 93.0532 150.823 96.9954C147.506 108.684 141.648 118.954 133.301 127.802C124.574 137.052 114.142 143.705 102.05 147.723C98.4185 148.93 94.63 149.527 90.8282 149.984C88.429 150.271 86.02 150.399 83.9904 150.481V150.48Z" fill="#F8F2EA"/>
<path d="M83.4626 140.987C73.94 141.161 65.0584 139.59 56.5414 136.096C50.4313 133.589 44.7225 130.379 39.7541 125.973C31.586 118.73 25.6134 109.969 21.8506 99.7007C20.2068 95.2175 19.1062 90.5992 18.5204 85.8628C17.9417 81.1946 17.7673 76.5066 18.4041 71.8399C19.2608 65.5645 21.0961 59.5608 23.8391 53.8487C29.2486 42.5837 37.2295 33.5831 47.7506 26.9038C54.7175 22.4817 62.2998 19.5375 70.4268 18.0455C74.4279 17.3101 78.463 16.9645 82.5279 17.0029C88.8253 17.0626 95.0106 17.9359 100.99 19.9301C105.154 21.3183 109.032 23.3636 112.703 25.7759C124.615 33.6059 133.064 44.2706 138.376 57.4714C140.681 63.1991 142.116 69.1488 142.69 75.3047C142.968 78.2774 143.124 81.2572 142.875 84.2342C142.578 87.7701 141.869 91.2392 140.909 94.6543C138.058 104.78 133.023 113.677 125.848 121.342C118.346 129.355 109.38 135.118 98.9862 138.599C95.8644 139.644 92.608 140.162 89.3402 140.558C87.2779 140.806 85.2072 140.917 83.4626 140.988V140.987Z" fill="#181818"/>
<path d="M22.2335 31.4415C23.9182 28.9163 25.824 26.5586 27.8602 24.3125C28.9905 23.0663 30.3353 22.0319 31.7197 20.9006C28.7232 24.6556 25.4693 28.0494 22.3738 31.5811C22.2517 31.609 22.1873 31.5811 22.2335 31.4415Z" fill="#F8F2EA"/>
<path d="M127.932 23.3687C131.581 26.3257 134.892 29.616 137.833 33.2725C137.857 33.3923 137.823 33.4531 137.689 33.4088C134.546 29.9543 131.163 26.7362 127.777 23.5214C127.754 23.3966 127.797 23.3358 127.931 23.3687H127.932Z" fill="#F8F2EA"/>
<path d="M157.93 74.3523C158.327 77.4226 158.535 80.5011 158.233 83.5911C158.121 84.7503 157.943 85.9029 157.795 87.0588C157.45 86.8979 157.679 86.6335 157.676 86.4102C157.859 83.5402 158.027 80.6702 157.928 77.792C157.89 76.6903 157.841 75.5886 157.795 74.4869C157.75 74.3539 157.808 74.3211 157.93 74.3506V74.3523Z" fill="#F8F2EA"/>
<path d="M89.4337 152.827C87.739 153.046 86.0461 153.271 84.3498 153.481C82.7559 153.679 81.157 153.845 79.5647 154.065C79.1439 154.124 78.7429 154.059 78.3337 154.049C78.2133 154.046 77.9872 154.152 78.0153 153.881C78.0334 153.709 78.1753 153.642 78.3453 153.63C78.9525 153.591 79.5581 153.528 80.1669 153.507C82.9044 153.412 85.622 153.1 88.3364 152.753C88.6977 152.707 89.0624 152.65 89.4337 152.826V152.827Z" fill="#F8F2EA"/>
<path d="M50.2084 13.143C53.4821 11.3156 57.0611 10.2878 60.617 9.20249C60.7589 9.15488 60.7935 9.21891 60.7688 9.34698C57.2541 10.5521 53.7544 11.8016 50.3454 13.2826C50.2101 13.322 50.1771 13.2645 50.2084 13.143Z" fill="#F8F2EA"/>
<path d="M124.243 139.041C127.103 136.548 130.03 134.128 132.68 131.399C132.04 132.644 126.043 138.105 124.243 139.041Z" fill="#F8F2EA"/>
<path d="M137.035 26.3174C138.286 27.2319 143.089 32.8439 143.759 34.1196C141.343 31.6699 139.444 28.7769 137.035 26.3174Z" fill="#F8F2EA"/>
<path d="M124.628 18.7216C122.895 17.7201 121.164 16.7169 119.432 15.7153C121.341 16.4098 123.36 16.909 124.628 18.7216Z" fill="#F8F2EA"/>
<path d="M21.8375 35.5908C23.0239 33.8915 24.3638 32.3087 25.6937 30.721C25.7861 30.6093 25.8653 30.3466 26.0848 30.5108C26.3273 30.6931 26.1128 30.8392 25.9907 30.9837C24.6525 32.5665 23.3143 34.1509 21.9778 35.7353C21.8606 35.755 21.7946 35.7238 21.8392 35.5908H21.8375Z" fill="#F8F2EA"/>
<path d="M156.932 93.3541C156.587 95.6363 156.053 97.8742 155.328 100.068C155.289 100.115 155.248 100.117 155.203 100.073C155.782 97.7034 156.371 95.3375 156.789 92.9321C157.101 92.983 156.924 93.1998 156.932 93.3524V93.3541Z" fill="#F8F2EA"/>
<path d="M137.692 33.4085C137.739 33.3625 137.787 33.3182 137.835 33.2722C139.436 35.1013 140.832 37.0797 142.157 39.1107C142.201 39.2388 142.14 39.2602 142.031 39.2339C140.695 37.2111 139.178 35.3213 137.692 33.4085Z" fill="#F8F2EA"/>
<path d="M156.933 93.3535C156.869 93.2189 156.961 93.03 156.789 92.9332C157.085 90.7593 157.38 88.5855 157.676 86.4116C157.758 86.6201 157.631 86.8664 157.794 87.0602C157.507 89.1585 157.22 91.2552 156.935 93.3535H156.933Z" fill="#F8F2EA"/>
<path d="M154.563 102.55C154.203 104.357 153.439 106.029 152.802 107.743C152.69 108.045 152.559 108.341 152.437 108.639C152.328 108.654 152.251 108.643 152.324 108.505C153.064 106.494 153.843 104.494 154.46 102.44C154.51 102.422 154.559 102.405 154.592 102.463C154.606 102.486 154.587 102.519 154.564 102.55H154.563Z" fill="#F8F2EA"/>
<path d="M155.696 58.853C156.305 60.7363 156.89 62.6261 156.951 64.6226C156.532 62.7 156.115 60.7773 155.696 58.853Z" fill="#F8F2EA"/>
<path d="M76.5859 5.85625C78.0116 5.71833 79.4306 5.49504 80.8629 5.45728C80.8695 5.53609 80.8777 5.61325 80.8843 5.69206C79.4966 5.79386 78.1089 5.89566 76.7196 5.99745C76.5876 6.03193 76.5496 5.97775 76.5843 5.85461L76.5859 5.85625Z" fill="#F8F2EA"/>
<path d="M5.93846 79.1921V83.0719C5.86935 83.0719 5.80024 83.0686 5.73113 83.067C5.43823 81.6714 5.95162 80.302 5.93846 79.1921Z" fill="#F8F2EA"/>
<path d="M10.0001 55.4934C9.73936 56.1994 9.47205 56.9054 9.2196 57.6147C9.15359 57.8003 9.07439 57.9497 8.85658 57.8626C8.57607 57.7494 8.78893 57.5884 8.85163 57.4604C9.17339 56.8003 9.5034 56.1469 9.83177 55.4901C9.88952 55.4359 9.94562 55.4376 10.0017 55.4951L10.0001 55.4934Z" fill="#F8F2EA"/>
<path d="M64.2801 7.2488C63.0128 7.5624 61.7472 7.876 60.48 8.19124C61.6235 7.55584 62.8841 7.33582 64.1448 7.11253C64.2735 7.07641 64.3114 7.12895 64.2801 7.25045V7.2488Z" fill="#F8F2EA"/>
<path d="M8.80835 99.5597C8.20113 98.3414 8.02952 97.0016 7.85297 95.6619C8.17143 96.9606 8.48989 98.261 8.80835 99.5597Z" fill="#F8F2EA"/>
<path d="M21.837 35.5903C21.8832 35.6379 21.9294 35.6872 21.9756 35.7348C21.3964 36.5278 20.8173 37.3225 20.2381 38.1155C20.1886 38.0827 20.1407 38.0499 20.0912 38.017C20.6506 37.1944 21.1819 36.3522 21.837 35.5903Z" fill="#F8F2EA"/>
<path d="M32.3702 136.146C33.1457 136.758 33.9212 137.371 34.6968 137.983C33.484 137.427 32.7332 136.831 32.3702 136.146Z" fill="#F8F2EA"/>
<path d="M92.7489 4.7068C91.8678 4.64112 90.985 4.57381 90.0396 4.50321C91.0114 3.99751 91.8761 4.59187 92.7654 4.5459C92.7588 4.59844 92.7539 4.65262 92.7473 4.70516L92.7489 4.7068Z" fill="#F8F2EA"/>
<path d="M108.914 11.2761C109.933 11.4058 110.815 11.795 111.619 12.3795C110.718 12.0117 109.815 11.6439 108.914 11.2761Z" fill="#F8F2EA"/>
<path d="M60.7686 9.34706C60.7174 9.29945 60.6679 9.25019 60.6168 9.20258C61.356 8.86435 62.1464 8.71822 62.9235 8.52612C62.94 8.57866 62.9565 8.6312 62.973 8.68374C62.2371 8.9054 61.5028 9.12541 60.7669 9.34706H60.7686Z" fill="#F8F2EA"/>
<path d="M97.2205 152.197C97.8491 152.011 98.4778 151.824 99.1065 151.639C98.7319 152.286 98.0422 152.138 97.4927 152.338C97.3574 152.374 97.204 152.448 97.2205 152.197Z" fill="#F8F2EA"/>
<path d="M85.048 154.97C86.0562 154.952 87.0512 154.668 88.0693 154.859C87.0611 154.877 86.0694 155.203 85.048 154.97Z" fill="#F8F2EA"/>
<path d="M30.1031 132.174C30.6757 132.709 31.2499 133.246 31.8224 133.781C31.7861 133.819 31.7482 133.859 31.7119 133.896C31.0783 133.422 30.5239 132.867 30.1031 132.174Z" fill="#F8F2EA"/>
<path d="M33.5547 135.464C32.9458 135.049 32.3947 134.571 31.9294 133.998C32.5663 134.377 33.1224 134.853 33.6471 135.369C33.6603 135.441 33.6289 135.474 33.5547 135.464Z" fill="#F8F2EA"/>
<path d="M12.1372 110.383C11.7346 109.728 11.4706 109.02 11.3666 108.247C11.657 108.93 11.9475 109.615 12.2379 110.298C12.2379 110.365 12.2049 110.393 12.1389 110.385L12.1372 110.383Z" fill="#F8F2EA"/>
<path d="M127.933 23.3684C127.882 23.4193 127.831 23.4702 127.78 23.5211C127.385 23.1631 126.991 22.8052 126.598 22.4473C127.144 22.6262 127.565 22.9628 127.935 23.3684H127.933Z" fill="#F8F2EA"/>
<path d="M142.031 39.234C142.072 39.1929 142.115 39.1519 142.156 39.1108C142.587 39.587 142.882 40.1419 143.089 40.7593C142.735 40.2503 142.384 39.7413 142.031 39.234Z" fill="#F8F2EA"/>
<path d="M64.2804 7.24888C64.2358 7.20291 64.1896 7.15694 64.1451 7.11096C64.7837 6.9008 65.4321 6.7399 66.1086 6.73169C66.1235 6.74811 66.1367 6.76617 66.1515 6.78259C65.5526 7.03872 64.9091 7.11096 64.2804 7.24724V7.24888Z" fill="#F8F2EA"/>
<path d="M43.1186 142.034C43.5905 142.308 44.0641 142.582 44.536 142.855C43.9634 142.763 43.4816 142.497 43.1186 142.034Z" fill="#F8F2EA"/>
<path d="M97.2202 152.197C97.2532 152.354 97.4017 152.29 97.4925 152.338C96.9281 152.469 96.3655 152.602 95.8011 152.734C96.2335 152.422 96.7219 152.294 97.2202 152.197Z" fill="#F8F2EA"/>
<path d="M157.928 74.3522C157.884 74.3981 157.84 74.4425 157.794 74.4884C157.619 74.0107 157.667 73.523 157.785 73.0288L157.928 74.3522Z" fill="#F8F2EA"/>
<path d="M35.5628 137.032C35.1272 136.774 34.7131 136.489 34.3666 136.118C34.3633 136.054 34.3963 136.031 34.4573 136.045C34.8896 136.233 35.1965 136.586 35.5595 136.865C35.6173 136.919 35.619 136.975 35.5628 137.032Z" fill="#F8F2EA"/>
<path d="M50.2085 13.143C50.2547 13.189 50.2992 13.2366 50.3454 13.2826C49.9972 13.5239 49.6111 13.675 49.1904 13.7406C49.489 13.4664 49.8256 13.2661 50.2068 13.1414L50.2085 13.143Z" fill="#F8F2EA"/>
<path d="M76.5861 5.8562C76.6306 5.90382 76.6768 5.95143 76.7214 5.99904C76.2874 6.21906 75.8353 6.11233 75.3766 6.01054C75.7792 5.95964 76.1835 5.9071 76.5861 5.8562Z" fill="#F8F2EA"/>
<path d="M9.99967 55.4931C9.94357 55.4931 9.88581 55.4898 9.82971 55.4881C9.99637 55.122 10.163 54.7559 10.3297 54.3914C10.3181 54.7985 10.2521 55.1795 9.99967 55.4931Z" fill="#F8F2EA"/>
<path d="M12.7786 48.4285C12.9782 48.0229 13.1779 47.6157 13.3775 47.2102C13.427 47.2332 13.4782 47.2562 13.5277 47.2792C13.3379 47.6896 13.2191 48.1329 12.7786 48.4285Z" fill="#F8F2EA"/>
<path d="M153.405 60.5538C153.308 60.1663 153.21 59.7788 153.113 59.3914C153.398 59.6787 153.52 60.0202 153.525 60.4011C153.588 60.5325 153.525 60.5669 153.403 60.5538H153.405Z" fill="#F8F2EA"/>
<path d="M152.323 108.505C152.361 108.549 152.398 108.595 152.436 108.64C152.314 108.983 152.177 109.318 151.847 109.682C151.969 109.196 152.116 108.84 152.323 108.505Z" fill="#F8F2EA"/>
<path d="M22.2333 31.4414C22.2795 31.4874 22.3274 31.535 22.3736 31.581C22.2168 31.9356 21.933 32.1868 21.6426 32.4397C21.7597 32.0588 21.9478 31.7222 22.2333 31.4414Z" fill="#F8F2EA"/>
<path d="M12.2357 110.298C12.4436 110.659 12.64 111.022 12.6829 111.452C12.4321 111.13 12.2275 110.787 12.1367 110.385C12.1697 110.355 12.2027 110.327 12.2357 110.298Z" fill="#F8F2EA"/>
<path d="M35.5628 137.032C35.5628 136.976 35.5612 136.921 35.5595 136.865C35.8862 137.052 36.1849 137.274 36.4109 137.592C36.0958 137.456 35.779 137.324 35.5628 137.034V137.032Z" fill="#F8F2EA"/>
<path d="M152.354 56.2586C152.099 55.9811 151.91 55.6806 151.977 55.1602C152.134 55.6182 152.245 55.9384 152.354 56.2586Z" fill="#F8F2EA"/>
<path d="M153.405 60.5538C153.446 60.5029 153.485 60.452 153.526 60.4011C153.691 60.7065 153.739 61.0365 153.688 61.3912C153.594 61.1121 153.498 60.8329 153.405 60.5538Z" fill="#F8F2EA"/>
<path d="M155.203 100.072C155.246 100.09 155.287 100.087 155.328 100.067C155.234 100.366 155.14 100.666 154.991 101.144C154.938 100.627 155.023 100.34 155.203 100.074V100.072Z" fill="#F8F2EA"/>
<path d="M66.1082 6.73309C66.4514 6.56069 66.8111 6.48517 67.3308 6.54592C66.8507 6.64279 66.5223 6.80862 66.1511 6.78399C66.1362 6.76757 66.123 6.74951 66.1082 6.73309Z" fill="#F8F2EA"/>
<path d="M34.3667 136.118C34.0961 135.9 33.8255 135.683 33.5549 135.465C33.5862 135.433 33.6159 135.401 33.6473 135.369C33.9558 135.55 34.2281 135.773 34.4575 136.046C34.4178 136.057 34.3881 136.082 34.3667 136.118Z" fill="#F8F2EA"/>
<path d="M154.563 102.55C154.528 102.514 154.494 102.476 154.459 102.44C154.542 102.154 154.624 101.868 154.706 101.583C154.751 101.924 154.764 102.258 154.561 102.55H154.563Z" fill="#F8F2EA"/>
</g>
<path d="M102.886 116.027C102.317 116.809 101.508 117.271 100.686 117.712C98.2863 118.998 95.6932 119.734 93.061 120.334C87.6909 121.524 82.2277 122.246 76.7328 122.491C71.5552 122.751 66.3661 122.664 61.2002 122.23C56.6297 121.849 52.0878 121.268 47.6842 119.916C45.2738 119.175 42.9885 118.192 41.0945 116.457C40.9797 116.35 40.878 116.233 40.7684 116.12C41.3919 116.293 41.9528 116.287 42.2711 115.599C42.5027 115.143 42.6779 114.662 42.7928 114.164C43.1137 112.424 43.0537 110.655 43.2076 108.902C43.4841 105.972 43.7033 103.043 44.4703 100.184C45.1303 97.7339 45.7929 95.2895 46.9694 93.0251C48.5138 90.0486 50.7182 87.625 53.3166 85.5432C55.6383 83.6806 58.0123 81.8727 60.2585 79.9266C61.5618 78.8201 62.7299 77.5635 63.7385 76.183C65.3165 74.0852 66.0332 71.4638 65.7421 68.855C65.8011 68.8653 65.8595 68.8793 65.9169 68.8967C70.0074 70.642 74.0953 70.5924 78.178 68.8472C78.5041 68.7063 78.5406 68.8185 78.5537 69.1081C78.5925 70.5193 78.801 71.9207 79.1746 73.2821C80.2181 76.7778 82.1955 79.6396 84.8956 82.0579C86.4191 83.4197 88.0261 84.6849 89.4322 86.1772C91.0888 87.9407 92.401 89.9677 93.7706 91.9582C96.7106 96.2339 98.6489 100.943 99.9481 105.936C100.699 108.821 101.132 111.766 101.513 114.717C101.615 115.51 102.119 116.003 102.886 116.027Z" fill="#F8F2EA"/>
<path d="M102.886 116.027C102.119 115.998 101.615 115.505 101.508 114.722C101.119 111.772 100.686 108.827 99.9429 105.941C98.6385 100.948 96.7054 96.2393 93.7653 91.9635C92.3957 89.973 91.0835 87.946 89.4269 86.1825C88.0287 84.6903 86.4138 83.425 84.8903 82.0633C82.1903 79.6449 80.1946 76.7831 79.1693 73.2874C78.7957 71.926 78.5873 70.5246 78.5484 69.1134C78.5354 68.8134 78.4989 68.7012 78.1728 68.8525C74.0979 70.5978 70.01 70.6473 65.9116 68.9021C65.8543 68.8846 65.7959 68.8706 65.7368 68.8603C66.028 71.4691 65.3112 74.0906 63.7333 76.1883C62.7247 77.5688 61.5566 78.8254 60.2532 79.9319C57.9992 81.878 55.6331 83.6859 53.3113 85.5486C50.7026 87.6356 48.5086 90.0539 46.9642 93.0305C45.7877 95.2949 45.125 97.7393 44.465 100.189C43.698 103.059 43.4789 105.978 43.2024 108.907C43.0354 110.66 43.1085 112.429 42.7876 114.169C42.6727 114.667 42.4975 115.149 42.2658 115.604C41.9476 116.301 41.3867 116.306 40.7632 116.126L40.5414 115.797C40.4188 115.254 40.1162 114.777 40.0197 114.232C39.5214 111.649 39.6597 109.053 39.9806 106.486C40.4209 102.615 41.3673 98.8183 42.7954 95.1931C44.0033 92.2165 45.5111 89.4382 47.6738 87.0303C49.6597 84.855 51.8152 82.8408 54.12 81.0067C56.544 79.0958 58.8306 77.0167 60.9628 74.7848C62.6669 72.999 63.6764 70.6626 63.809 68.1977C63.8362 68.0705 63.824 67.9379 63.7742 67.8177C63.7243 67.6975 63.6391 67.5953 63.5298 67.5247C61.2972 66.0238 59.498 63.9628 58.3123 61.548C55.7661 56.44 55.7035 51.3425 58.508 46.3207C62.4498 39.277 71.0952 37.0961 77.0771 38.6901C81.9633 39.9944 85.5816 42.8641 87.3947 47.6955C89.0409 52.086 88.4121 56.4035 86.6304 60.5906C85.6243 62.9577 84.0029 65.0123 81.9346 66.5412C81.152 67.1229 80.9589 67.7725 80.972 68.6282C80.9689 70.5894 81.3657 72.5307 82.1381 74.3335C82.6035 75.3434 83.1886 76.2937 83.8807 77.164C84.2851 75.4422 85.2712 74.1926 86.3408 72.99C86.6897 72.618 86.9681 72.1858 87.1625 71.7143C88.0947 69.3613 88.4731 66.8255 88.2687 64.3028C88.0913 61.9263 88.2374 59.6071 89.0513 57.3218C89.6565 55.6131 90.327 53.9617 91.7696 52.7513C93.6833 51.1309 95.9211 49.9381 98.3332 49.2529C102.142 48.1677 105.69 48.6607 108.951 50.946C110.458 52.0513 111.834 53.3247 113.052 54.7417C114.724 56.6044 115.838 58.7566 116.644 61.0862C117.039 62.2229 117.195 63.4292 117.101 64.6289C116.97 66.3403 116.511 67.9916 116.185 69.6664C115.981 70.723 115.744 71.7743 115.828 72.8622C115.935 74.2709 116.73 75.3561 117.555 76.4153C118.429 77.5031 119.248 78.635 120.007 79.8067C120.941 81.2963 121.935 82.7572 122.292 84.5338C122.876 87.4399 122.438 90.273 121.786 93.114C121.625 93.7337 121.613 94.3825 121.749 95.0079C122.433 98.1384 123.054 101.287 123.547 104.452C123.808 106.137 124.309 107.827 123.737 109.547H123.75C123.612 109.502 123.638 109.596 123.641 109.672L123.654 109.659C123.534 109.659 123.531 109.747 123.544 109.839C123.239 109.854 123.129 110.256 122.798 110.217C122.462 110.214 122.136 110.106 121.865 109.907C121.594 109.709 121.392 109.43 121.288 109.111C121.005 108.356 120.83 107.566 120.766 106.763C120.394 103.03 119.805 99.3217 119 95.6575C117.695 89.9652 115.045 85.1025 110.532 81.2806C108.425 79.4944 107.015 77.0225 106.551 74.2996C106.442 73.586 106.406 72.8631 106.444 72.1422C106.35 72.1578 106.298 72.163 106.248 72.1761C103.491 72.9117 100.736 73.1726 97.9889 72.1448C97.7071 72.0378 97.6654 72.1735 97.6158 72.3926C97.3315 73.6657 96.9115 74.8996 96.5384 76.1466C95.594 79.2197 94.2088 82.0607 91.7227 84.2285C91.4331 84.4894 91.6913 84.5912 91.8218 84.7164C93.1008 85.98 94.2972 87.3245 95.4036 88.7417C97.4071 91.2487 99.3167 93.8131 100.621 96.7767C102.595 101.267 103.744 106.076 104.013 110.974C104.106 112.554 104.13 114.18 103.412 115.669C103.313 115.651 103.285 115.724 103.253 115.792L102.886 116.027ZM62.4733 63.828L62.3715 63.7185C62.339 63.6584 62.3033 63.6 62.2646 63.5437C58.3332 58.6471 57.7175 51.893 61.1298 46.5476C61.1663 46.4929 61.2367 46.4459 61.1767 46.365C57.6523 50.1999 56.8462 58.1983 62.3063 63.802L62.3924 63.8907C62.4394 63.922 62.4733 64.0237 62.5411 63.9559C62.6089 63.8881 62.5228 63.8489 62.4733 63.828ZM60.3184 76.5118C60.3993 76.6579 60.4515 76.5327 60.5115 76.491C60.5715 76.4492 60.6445 76.4153 60.5715 76.3527C60.4984 76.2901 60.4776 76.3788 60.4541 76.431C60.4306 76.4831 60.3732 76.4936 60.3367 76.5275L60.188 76.5718C60.188 76.6527 60.1567 76.7127 60.0602 76.7075L60.0863 76.8431L60.1489 76.791L60.0497 76.7075C60.1097 76.7336 60.1776 76.7675 60.2167 76.6892C60.2297 76.6605 60.201 76.6083 60.1906 76.5692C60.2245 76.6162 60.2532 76.684 60.321 76.6214C60.3393 76.5953 60.321 76.5379 60.3184 76.5014V76.5118ZM61.5811 45.6424V45.7859L61.6489 45.7389L61.5759 45.6398L61.6489 45.752L61.6802 45.7154L61.5811 45.6424ZM92.0096 53.3513C91.9105 53.26 91.8818 53.3513 91.8374 53.4139L91.7305 53.5208C91.6887 53.5626 91.587 53.5913 91.6913 53.6695C91.3992 53.6513 91.3966 53.9069 91.2818 54.0556C91.4597 53.9802 91.6017 53.8391 91.6783 53.6617C91.6925 53.6643 91.707 53.6635 91.7208 53.6594C91.7346 53.6553 91.7472 53.648 91.7577 53.6381C91.7681 53.6281 91.776 53.6159 91.7808 53.6023C91.7856 53.5888 91.7871 53.5742 91.7853 53.56C91.8583 53.56 91.8896 53.5208 91.8896 53.453C91.9627 53.453 91.9992 53.4165 91.994 53.3434C92.008 53.3466 92.0226 53.3465 92.0367 53.3432C92.0507 53.34 92.0639 53.3336 92.0751 53.3246C92.0864 53.3156 92.0955 53.3042 92.1018 53.2912C92.108 53.2782 92.1113 53.264 92.1114 53.2495C92.1851 53.2233 92.2519 53.1809 92.307 53.1253C92.3621 53.0698 92.404 53.0026 92.4296 52.9287C92.234 52.9469 92.1688 53.0904 92.0566 53.1895C92.0174 53.2391 91.9027 53.2626 92.0096 53.3513ZM61.868 75.004C61.9046 75.0222 61.9541 75.0666 61.9776 75.0535C62.0637 75.0144 62.0219 74.9466 61.9933 74.8866C62.0272 74.9022 62.0715 74.9387 62.0976 74.9283C62.1837 74.8944 62.1289 74.8396 62.0976 74.7927L62.1889 74.8579L62.2437 74.7848L62.1237 74.8031C62.083 74.8306 62.0438 74.8602 62.0063 74.8918C61.9646 74.9309 61.9228 74.9674 61.8863 75.0066L61.8393 75.1579C61.4221 75.4478 61.0395 75.7848 60.6993 76.1623C60.6602 76.204 60.5871 76.2483 60.6628 76.3031C60.7384 76.3579 60.7619 76.277 60.7906 76.2249C61.1637 75.8909 61.6228 75.6431 61.8341 75.1448C61.8733 75.1448 61.928 75.1866 61.9541 75.1057C61.9802 75.0248 61.8915 75.0457 61.868 74.9987V75.004ZM58.4767 77.9753C58.507 78.0042 58.5413 78.0288 58.5784 78.0484C58.5784 78.0484 58.6149 78.0066 58.6358 77.9858L58.4871 77.9727L58.5132 78.111L58.5758 78.0536L58.4767 77.9753ZM109.462 77.3779L109.428 77.3023L109.397 77.3492L109.47 77.3701L109.486 77.5162L109.548 77.4901L109.462 77.3779ZM120.988 83.9416C120.984 83.9914 120.993 84.0412 121.014 84.0868C121.034 84.1323 121.066 84.172 121.105 84.2024C121.115 84.3086 121.146 84.4117 121.196 84.5055C121.247 84.5992 121.316 84.6817 121.4 84.7477C121.293 84.5572 121.4 84.2964 121.17 84.1503L121.108 83.939C121.222 83.8137 121.162 83.7485 121.032 83.7068C120.161 81.2624 118.58 79.2588 117.017 77.2449C117.042 77.4139 117.101 77.5763 117.189 77.7223C118.006 79.3241 119.172 80.7093 119.983 82.3163C120.251 82.9032 120.591 83.4544 120.996 83.9572L120.988 83.9416ZM84.9112 59.0697C84.7051 59.1975 84.7129 59.4166 84.6503 59.6097C84.7936 59.4619 84.8788 59.2674 84.8903 59.0618C84.9646 58.9859 85.0205 58.8941 85.054 58.7933C85.0874 58.6925 85.0975 58.5854 85.0834 58.4801C85.0143 58.5604 84.9632 58.6546 84.9335 58.7563C84.9039 58.858 84.8962 58.9648 84.9112 59.0697ZM59.4758 77.2423C59.1941 77.2423 59.0714 77.4771 58.9019 77.6388C58.881 77.6832 58.8314 77.7536 58.8419 77.7614C58.9201 77.8371 58.9567 77.7614 58.988 77.7066C59.168 77.5684 59.4393 77.524 59.4654 77.2345C59.4993 77.2345 59.5488 77.3023 59.5567 77.211L59.4758 77.2423ZM120.941 90.6382C120.941 91.0478 120.716 91.4339 120.836 92.0078C120.985 91.5653 121.018 91.0918 120.93 90.633C121.296 90.4035 120.93 90.0643 121.022 89.913L120.941 90.6382ZM80.578 74.0831C80.6485 74.4744 80.6902 74.8787 81.0398 75.1814L80.7659 74.1092L80.3746 72.4109C80.3198 73.0813 80.505 73.5718 80.578 74.0831ZM110.986 77.6936C111.147 78.2153 111.247 78.7501 111.714 79.1258L111.145 77.7014C110.834 76.6997 110.605 75.6796 110.334 74.6674C110.381 75.7054 110.602 76.7282 110.986 77.6936ZM110.725 64.7724C111.26 63.7576 111.554 62.7011 111.325 61.548C111.266 62.6194 111.016 63.6716 110.587 64.655C110.373 64.9556 110.236 65.304 110.187 65.6698C110.438 65.4199 110.623 65.1115 110.725 64.7724ZM115.728 65.6072V66.9586C115.894 66.5367 115.947 66.0794 115.885 65.6307C115.859 64.8063 115.859 63.9767 115.801 63.155C115.727 61.7537 115.36 60.3835 114.724 59.1323C114.651 58.994 114.633 58.7488 114.338 58.7618C114.589 59.1914 114.796 59.6449 114.956 60.1158C115.629 61.8819 115.723 63.7394 115.723 65.6072H115.728ZM97.9263 98.4358C98.0015 98.7583 98.1369 99.0636 98.3254 99.3358C98.3382 99.0247 98.2602 98.7165 98.1011 98.4489C97.2089 95.9732 95.6045 93.067 95.1036 92.9861C96.152 94.745 97.0946 96.5648 97.9263 98.4358ZM97.6654 70.0186C98.1141 70.5586 98.782 70.5247 99.3715 70.6969C98.8498 70.3186 98.1819 70.376 97.6602 70.0212C97.555 69.9267 97.4434 69.8395 97.3263 69.7604C95.4628 68.7437 93.9396 67.2014 92.9462 65.3255C92.8966 65.2316 92.8862 65.0646 92.6853 65.1037C92.7859 65.445 92.9205 65.7754 93.087 66.0898C94.0991 67.7062 95.5177 69.0285 97.201 69.9247C97.3289 69.9951 97.4619 70.1934 97.6576 70.0186H97.6654ZM85.9625 54.3948C86.0022 53.5227 85.955 52.6488 85.8216 51.786C85.1147 47.2207 82.6572 43.9102 78.4623 41.9745C76.2945 40.9753 74.0118 40.464 71.6091 41.0901C71.5804 41.0901 71.5309 41.0406 71.463 40.991C74.9901 40.8449 78.1623 41.7267 80.8833 43.965C84.1546 46.6546 85.819 50.1242 85.7903 54.3791C85.6986 55.6181 85.5243 56.8496 85.2686 58.0653C85.7178 56.8935 85.9503 55.6498 85.9547 54.3948H85.9625ZM117.163 85.1312L117.244 85.1599C117.244 85.1599 117.244 85.1312 117.244 85.1259C117.244 85.1207 117.176 85.1025 117.155 85.152C117.281 84.9198 117.101 84.7529 117.015 84.5755C116.37 83.232 115.405 82.0998 114.557 80.8893C112.825 78.4652 111.875 75.5699 111.834 72.5909C111.8 70.7047 112.28 68.9386 112.791 67.1516C113.115 66.1505 113.204 65.0883 113.052 64.0472C112.83 64.6868 112.561 65.3093 112.248 65.9098C112.032 66.2915 111.892 66.7114 111.836 67.1464C111.588 68.7977 111.121 70.423 111.179 72.103C111.226 73.4596 111.419 74.8057 111.583 76.1518C111.87 78.5091 112.92 80.7079 114.573 82.4128C115.415 83.3442 116.295 84.2337 117.163 85.1312ZM59.8958 53.0669C59.9923 57.8227 61.3463 61.0471 64.1377 63.575C66.976 66.1472 70.3543 67.3264 74.1709 66.7055C78.7337 65.9672 81.8355 63.2933 83.5886 59.0488C85.6756 53.9826 84.3399 48.392 80.2728 45.0502C75.0814 40.7849 67.889 41.231 63.2298 46.0937C61.0906 48.3294 59.7184 50.8651 59.8958 53.0669ZM100.538 52.0417C99.6971 51.9792 98.8526 52.0918 98.0578 52.3725C97.263 52.6531 96.5351 53.0957 95.9201 53.6722C93.3636 56.0331 92.2809 59.0097 92.6149 62.435C92.8079 64.3968 93.8984 66.0011 95.3071 67.342C97.441 69.3717 100.037 70.4256 102.935 70.016C107.37 69.3925 110.472 65.5811 110.662 61.4671C110.761 59.3488 110.297 57.3635 108.87 55.7644C106.655 53.2965 103.806 52.146 100.527 52.0417H100.538ZM113.636 59.1532C113.652 60.6271 113.524 62.0854 113.986 63.5567C114.484 65.1403 114.114 66.7733 113.621 68.3334C112.754 71.0007 112.75 73.8731 113.608 76.5431C114.187 78.3901 115.155 80.0441 116.248 81.6328C117.03 82.7702 117.755 83.9598 117.982 85.3373C118.121 86.1843 118.438 86.9924 118.911 87.7086C119.356 88.4671 119.756 89.2511 120.109 90.0565C120.583 86.8712 120.414 84.9694 118.729 82.0815C117.557 80.0728 116.357 78.0823 115.188 76.0814C114.245 74.4888 113.924 72.6032 114.288 70.7882C114.721 68.4847 115.071 66.1785 114.862 63.8124C114.732 62.1767 114.419 60.6141 113.636 59.1532ZM93.4236 68.936C93.3721 68.9675 93.3319 69.0145 93.3089 69.0703C93.286 69.1262 93.2813 69.1878 93.2957 69.2464C93.3531 71.4221 92.6644 73.3631 91.4696 75.1501C90.8331 76.1022 90.1339 77.0075 89.5365 77.9832C89.0021 78.899 88.7102 79.9361 88.6887 80.9963C88.6597 81.2443 88.6968 81.4956 88.7962 81.7246C88.8956 81.9537 89.0538 82.1524 89.2548 82.3007C89.7348 82.6789 90.0061 82.6659 90.2983 82.1233C90.3557 81.9762 90.384 81.8194 90.3817 81.6615C90.455 80.4593 90.8635 79.3017 91.5609 78.3197C92.3259 77.2023 93.0128 76.0335 93.6166 74.8214C94.2297 73.6631 94.7227 72.4604 94.8192 71.1352C94.8453 70.7934 94.9027 70.4386 94.6053 70.1491C94.2062 69.7656 93.8279 69.3508 93.4314 68.936H93.4236ZM90.4678 56.7688C89.7362 57.9169 89.3122 59.2339 89.2365 60.5932C89.1426 62.3985 89.4556 64.175 89.5365 65.9646C89.6643 68.7195 89.0982 71.2734 87.2826 73.41C86.3301 74.5847 85.5943 75.9194 85.1095 77.3518C84.7547 78.3067 84.7808 78.3145 85.6495 78.9771C85.9047 77.9128 86.3255 76.8951 86.8965 75.9614C87.7782 74.4796 88.6339 72.9822 89.4869 71.4821C89.8307 70.8683 90.103 70.2171 90.2983 69.5412C90.82 67.796 90.5592 66.0507 90.3478 64.3002C90.16 62.735 89.9357 61.1932 90.0191 59.6201C90.1003 58.6597 90.2529 57.7066 90.4757 56.7688H90.4678ZM91.6522 66.5464C91.8818 68.8264 91.2453 70.7752 90.16 72.5961C89.3122 74.0152 88.4356 75.4188 87.5513 76.8171C87.0284 77.5911 86.6558 78.4566 86.453 79.3684C86.4217 79.5302 86.3669 79.6736 86.5182 79.8015L87.8643 80.965C87.9243 80.4797 87.9608 80.078 88.026 79.6789C88.2869 78.0771 89.2156 76.8092 90.1365 75.5309C90.76 74.6753 91.4409 73.8457 91.8244 72.8596C92.6175 70.7986 93.4288 68.7012 91.66 66.5464H91.6522ZM111.312 57.5488C110.104 52.6234 104.033 49.1747 98.1976 51.4364C100.737 50.8556 103.397 51.1478 105.75 52.266C108.142 53.3591 110.102 55.2179 111.32 57.5488H111.312ZM41.7336 109.04C41.8761 108.146 41.9163 107.239 41.8536 106.335C41.6807 107.226 41.6402 108.138 41.7336 109.04ZM109.705 72.5178V69.6769H109.462C109.238 70.6265 109.514 71.5734 109.705 72.5178ZM64.4951 68.2186C64.3516 69.296 64.0829 70.3395 63.8585 71.3908C64.4142 70.4021 64.5133 69.3064 64.4951 68.2186ZM102.891 111.349L103.06 111.315C102.839 110.509 102.875 109.656 102.468 108.884L102.891 111.349ZM95.2445 74.8761C94.96 75.3195 94.7733 75.8184 94.6966 76.3396C95.0092 75.9108 95.1986 75.4048 95.2445 74.8761ZM120.962 100.442L120.808 100.484C120.922 101.136 121.035 101.788 121.149 102.443L121.301 102.414C121.252 101.748 121.138 101.089 120.962 100.445V100.442ZM121.303 86.0651L121.564 87.993C121.674 87.3277 121.723 86.6703 121.303 86.0677V86.0651ZM119.115 93.2574C119.1 92.693 118.899 92.1492 118.543 91.7104L119.115 93.2574ZM80.6433 70.4256V68.6386C80.5232 69.2282 80.5232 69.836 80.6433 70.4256ZM109.765 72.5283H109.577C109.562 72.8939 109.653 73.2561 109.838 73.5718L109.765 72.5283ZM41.3189 109.573L41.3841 109.617V108.122H41.3189V109.573ZM107.161 74.3153C107.138 74.4025 107.139 74.4946 107.165 74.5812C107.191 74.6678 107.24 74.7455 107.307 74.8057C107.327 74.7183 107.324 74.6272 107.299 74.5413C107.273 74.4554 107.226 74.3776 107.161 74.3153ZM61.4793 45.9372C61.3593 46.0233 61.195 46.0755 61.2185 46.3024C61.2883 46.2672 61.3485 46.2156 61.3939 46.152C61.4394 46.0884 61.4687 46.0146 61.4793 45.9372ZM107.36 74.837C107.335 74.9524 107.344 75.0723 107.384 75.183C107.425 75.2937 107.496 75.3908 107.589 75.4631C107.579 75.3574 107.561 75.2527 107.534 75.1501C107.482 75.0423 107.424 74.9378 107.36 74.837ZM118.395 91.1678C118.394 91.2388 118.401 91.3096 118.415 91.3791C118.45 91.4487 118.489 91.5159 118.533 91.58C118.543 91.5152 118.543 91.4492 118.533 91.3844C118.493 91.3082 118.447 91.2358 118.395 91.1678ZM109.22 76.924C109.207 76.9631 109.186 76.9892 109.191 77.0101C109.201 77.0389 109.219 77.0643 109.243 77.0831C109.243 77.0831 109.295 77.0518 109.295 77.0492C109.295 77.0466 109.251 76.9736 109.22 76.924ZM62.9846 64.2924C62.9377 64.246 62.8851 64.2056 62.8281 64.1724C62.7811 64.1515 62.7159 64.1724 62.7654 64.2428C62.8092 64.2962 62.8572 64.3459 62.9089 64.3915L62.9846 64.2924ZM107.571 75.4814C107.56 75.5293 107.555 75.5783 107.555 75.6275C107.555 75.6614 107.597 75.6901 107.618 75.7214C107.631 75.6588 107.647 75.5988 107.654 75.5362C107.654 75.5231 107.613 75.5075 107.571 75.4814ZM84.5277 59.8653C84.5214 59.8786 84.517 59.8926 84.5147 59.9071C84.5147 59.9071 84.5303 59.9071 84.5407 59.9227C84.5419 59.9088 84.5419 59.8949 84.5407 59.881C84.5407 59.881 84.5355 59.8706 84.5277 59.8653ZM116.949 77.2031C116.952 77.1693 116.952 77.1353 116.949 77.1014C116.907 77.0908 116.863 77.0908 116.822 77.1014C116.772 77.1171 116.777 77.151 116.822 77.1692L116.949 77.2031ZM85.2008 58.3314L85.1721 58.2479C85.1564 58.2662 85.1251 58.2818 85.1225 58.3001C85.1251 58.3303 85.134 58.3596 85.1486 58.3862L85.2008 58.3314ZM110.075 65.8577C110.054 65.8394 110.023 65.8003 110.013 65.8055C109.975 65.8287 109.94 65.8558 109.908 65.8864C109.93 65.9085 109.954 65.927 109.981 65.9411C110.062 65.962 110.073 65.9151 110.086 65.8577H110.075ZM98.388 99.495H98.4063V99.4559L98.388 99.495ZM110.112 65.6542L110.148 65.722C110.161 65.722 110.182 65.6959 110.182 65.6881C110.174 65.6632 110.163 65.6395 110.148 65.6177L110.112 65.6542ZM62.6689 64.0889L62.635 64.0524L62.5959 64.0863L62.6507 64.1254L62.6689 64.0889Z" fill="#050505"/>
<path d="M103.41 115.682C104.127 114.18 104.104 112.552 104.01 110.987C103.742 106.089 102.593 101.28 100.619 96.7897C99.3142 93.8261 97.3993 91.2617 95.401 88.7547C94.2946 87.3375 93.0982 85.993 91.8192 84.7294C91.6888 84.6041 91.4305 84.4946 91.7201 84.2415C94.2192 82.0737 95.6045 79.2405 96.5306 76.1387C96.9037 74.8917 97.3132 73.6578 97.608 72.3847C97.6576 72.1656 97.6993 72.0299 97.9811 72.1369C100.728 73.1647 103.483 72.9039 106.24 72.1682C106.29 72.1682 106.342 72.1499 106.436 72.1343C106.398 72.8552 106.434 73.5781 106.543 74.2917C107.005 77.0074 108.408 79.4739 110.506 81.2597C115.019 85.0816 117.672 89.9443 118.974 95.6366C119.779 99.3008 120.368 103.009 120.74 106.742C120.804 107.545 120.979 108.335 121.262 109.09C121.366 109.409 121.568 109.688 121.839 109.886C122.11 110.085 122.436 110.193 122.772 110.196C122.801 110.295 122.759 110.35 122.673 110.405C120.954 111.477 119.25 112.607 117.315 113.233C115.642 113.823 113.935 114.312 112.204 114.699C109.574 115.221 106.937 115.654 104.25 115.711C103.984 115.708 103.692 115.69 103.41 115.682Z" fill="#F8F2EA"/>
<path d="M123.724 109.541C124.296 107.822 123.797 106.132 123.534 104.446C123.036 101.282 122.42 98.1332 121.736 95.0027C121.6 94.3772 121.612 93.7284 121.773 93.1087C122.425 90.2808 122.863 87.4347 122.279 84.5285C121.922 82.7519 120.928 81.291 119.994 79.8014C119.235 78.6298 118.416 77.4978 117.542 76.4101C116.717 75.3509 115.921 74.2657 115.815 72.8569C115.731 71.7691 115.968 70.7177 116.172 69.6612C116.498 67.9864 116.955 66.335 117.088 64.6237C117.182 63.4239 117.026 62.2177 116.631 61.081C115.825 58.7514 114.711 56.5991 113.039 54.7365C111.821 53.3242 110.446 52.0551 108.94 50.9538C105.679 48.6685 102.132 48.1755 98.3228 49.2607C95.9107 49.9459 93.6728 51.1386 91.7592 52.7591C90.3165 53.9695 89.6461 55.6287 89.0408 57.3296C88.2321 59.6018 88.086 61.9341 88.2582 64.3106C88.4627 66.8333 88.0842 69.3691 87.1521 71.7221C86.9576 72.1936 86.6792 72.6258 86.3303 72.9978C85.2607 74.1978 84.2746 75.4474 83.8703 77.1718C83.1782 76.3015 82.5931 75.3512 82.1276 74.3413C81.3552 72.5385 80.9584 70.5972 80.9615 68.636C80.9615 67.7751 81.1415 67.1255 81.9242 66.5489C83.9925 65.0201 85.6138 62.9655 86.6199 60.5984C88.4017 56.4113 89.0304 52.0938 87.3843 47.7033C85.5712 42.8719 81.9529 39.9996 77.0666 38.6979C71.0848 37.1039 62.4393 39.2744 58.4975 46.3285C55.6905 51.3503 55.7557 56.4478 58.3019 61.5558C59.4875 63.9706 61.2868 66.0316 63.5194 67.5324C63.6286 67.6031 63.7139 67.7053 63.7637 67.8255C63.8136 67.9457 63.8257 68.0782 63.7985 68.2055C63.667 70.6663 62.6614 72.9994 60.9628 74.7848C58.828 77.0078 56.5397 79.0782 54.1148 80.9806C51.81 82.8146 49.6545 84.8289 47.6686 87.0042C45.5059 89.4121 43.998 92.1904 42.7902 95.167C41.362 98.7921 40.4157 102.589 39.9753 106.46C39.6545 109.027 39.5162 111.623 40.0145 114.206C40.1214 114.761 40.424 115.249 40.5362 115.771C39.8319 115.562 39.7536 114.871 39.4927 114.352C39.1223 113.647 39.1484 112.852 39.0988 112.082C38.8953 108.952 39.4953 105.912 39.9127 102.837C40.2649 100.262 41.0319 97.8097 41.7389 95.3496C42.5867 92.4043 44.2485 89.8478 46.1085 87.3825C48.939 83.6546 52.5913 80.8423 56.1444 77.9153C58.4354 76.0334 60.4407 73.8285 62.0976 71.3699C62.5925 70.5967 62.9294 69.7331 63.0889 68.829C63.1568 68.5003 62.9794 68.3933 62.7654 68.2551C60.5174 66.7708 58.6921 64.7297 57.4671 62.3306C55.7862 59.1154 55.2005 55.4395 55.7989 51.8611C56.3974 48.2827 58.1472 44.9974 60.7828 42.504C65.4785 38.1161 70.9908 36.7361 77.218 38.33C78.9979 38.789 80.6823 39.5601 82.1929 40.6075C85.8842 43.1406 87.953 46.6885 88.7147 51.0425C88.8897 52.2236 88.9882 53.4148 89.0095 54.6087C89.5313 53.8626 89.9513 53.2025 90.4626 52.6104C94.0966 48.405 98.6776 46.9859 104.067 48.0137C106.976 48.5694 109.439 50.0486 111.727 51.8773C113.621 53.3878 115.259 55.0991 116.409 57.2592C117.907 60.0714 118.382 63.0558 118.183 66.2124C118.073 67.7067 117.842 69.1898 117.495 70.6473C116.876 73.3708 117.648 75.6587 119.55 77.6179C120.739 78.8024 121.725 80.1736 122.469 81.6771C123.294 83.3989 123.513 85.2537 123.544 87.132C123.644 89.7269 123.335 92.3212 122.629 94.82C122.569 95.0804 122.587 95.3526 122.681 95.6027C123.651 99.4036 124.387 103.239 124.436 107.178C124.458 107.725 124.408 108.272 124.288 108.806C124.204 109.111 124.108 109.437 123.724 109.541ZM83.4398 75.1057C86.2573 71.1925 87.7182 66.8542 87.0791 61.9758C87.0791 61.9758 87.0451 62.0697 87.0086 62.148C86.5237 63.1908 85.9168 64.1725 85.2007 65.0724C84.319 66.1655 83.4607 67.2977 82.1902 67.9942C81.9581 68.122 81.9581 68.3307 81.9294 68.5368C81.8828 69.3286 81.916 70.1231 82.0285 70.9082C82.2085 72.4369 82.592 73.8874 83.4398 75.1135V75.1057Z" fill="#F8F2EA"/>
<path d="M38.3084 69.828C38.3632 68.1454 39.6493 67.0732 41.5511 67.1254C43.072 67.1697 44.3555 68.4297 44.2277 69.8619C44.1773 70.4513 44.0013 71.0231 43.7115 71.5388C43.4217 72.0544 43.0249 72.5021 42.5476 72.8516C42.3083 73.0197 42.0344 73.1322 41.746 73.181C41.4576 73.2297 41.1619 73.2134 40.8806 73.1333C39.5267 72.8229 38.264 71.1976 38.3084 69.828ZM43.0772 70.2533C43.079 70.0488 43.0396 69.846 42.9611 69.6571C42.8827 69.4683 42.7669 69.2972 42.6207 69.1542C42.4746 69.0112 42.301 68.8992 42.1105 68.8249C41.9199 68.7506 41.7163 68.7156 41.5119 68.7219C41.3249 68.7142 41.1381 68.7435 40.9623 68.8081C40.7866 68.8726 40.6252 68.9712 40.4876 69.0982C40.35 69.2251 40.2387 69.378 40.1603 69.548C40.0818 69.718 40.0376 69.9018 40.0302 70.0889C40.0302 70.9681 40.7684 71.8107 41.5563 71.8263C42.1954 71.842 43.0642 70.9341 43.0772 70.2402V70.2533ZM39.8267 68.7845C39.1823 69.348 39.0962 69.9324 39.5006 70.6394C39.4746 70.3469 39.4746 70.0527 39.5006 69.7602C39.586 69.4277 39.695 69.1016 39.8267 68.7845Z" fill="#050505"/>
<path d="M39.4693 42.7726C39.4693 44.557 37.7997 46.1301 36.4718 45.8431C35.9767 45.7414 35.5249 45.4899 35.1777 45.1226C34.8304 44.7553 34.6046 44.2901 34.5309 43.79C34.4057 42.7074 35.0057 41.5204 35.9031 41.0717C36.9466 40.55 38.0136 40.6673 38.7727 41.4265C39.1571 41.7785 39.4039 42.2555 39.4693 42.7726ZM38.011 43.0126C38.011 42.9396 37.9797 42.7309 37.9353 42.5248C37.8623 42.183 37.724 41.8778 37.3275 41.8256C37.145 41.7922 36.9569 41.8098 36.7838 41.8766C36.6107 41.9433 36.4594 42.0566 36.3466 42.2039C35.8457 42.8457 36.0466 44.2205 36.7092 44.6927C36.7731 44.754 36.8505 44.7994 36.9352 44.8253C37.0199 44.8513 37.1095 44.857 37.1967 44.842C37.284 44.8271 37.3666 44.7918 37.4378 44.7391C37.509 44.6865 37.5668 44.6178 37.6066 44.5387C37.9002 44.0859 38.0419 43.5514 38.011 43.0126ZM36.0596 44.6092C35.7048 43.9895 35.603 43.2568 35.7753 42.5639C35.1127 43.2448 35.217 44.0013 36.0596 44.6092Z" fill="#050505"/>
<path d="M95.3958 31.0984C95.3828 32.5854 94.7619 33.4463 93.361 33.8846C92.5262 34.1455 91.3757 33.642 90.7261 32.7185C90.4866 32.4018 90.3313 32.0296 90.2748 31.6367C90.2182 31.2437 90.2622 30.8428 90.4026 30.4714C90.5431 30.1001 90.7754 29.7704 91.0779 29.5133C91.3804 29.2561 91.7432 29.0799 92.1323 29.001C92.8038 28.8427 93.505 28.8616 94.1671 29.0558C94.981 29.2853 95.4062 30.0054 95.3958 31.0984ZM93.061 32.7185C93.2865 32.7286 93.5116 32.6909 93.7216 32.6079C93.9315 32.5249 94.1215 32.3985 94.2792 32.2369C94.4368 32.0753 94.5586 31.8822 94.6363 31.6702C94.7141 31.4583 94.7462 31.2323 94.7306 31.0071C94.7306 30.3184 93.9088 29.6714 93.0792 29.6845C92.8675 29.68 92.657 29.7174 92.4599 29.7945C92.2627 29.8716 92.0826 29.9869 91.9302 30.1338C91.7777 30.2807 91.6557 30.4563 91.5713 30.6505C91.4869 30.8447 91.4417 31.0537 91.4383 31.2654C91.4409 32.095 92.1375 32.7185 93.061 32.7185Z" fill="#050505"/>
<path d="M127.037 85.624C128.026 85.624 128.639 86.1249 128.631 86.9128C128.64 87.1112 128.607 87.3093 128.535 87.4945C128.464 87.6797 128.354 87.8481 128.215 87.9892C128.075 88.1303 127.907 88.2409 127.723 88.3143C127.538 88.3876 127.34 88.422 127.142 88.4154C126.375 88.4154 125.577 87.6928 125.577 86.991C125.558 86.1536 126.13 85.6214 127.037 85.624ZM126.996 86.4719C126.735 86.5319 126.299 86.4849 126.289 86.9258C126.289 87.3197 126.644 87.4658 127.004 87.471C127.364 87.4763 127.494 87.1632 127.525 86.8632C127.583 86.5241 127.332 86.4614 126.996 86.4719Z" fill="#050505"/>
<path d="M49.7713 62.0017C49.7713 62.8652 49.2495 63.4783 48.5217 63.4679C47.7938 63.4574 47.186 62.7635 47.1938 61.9183C47.1938 61.1356 47.7312 60.6556 48.5712 60.6713C48.7383 60.6772 48.9024 60.7166 49.0539 60.7872C49.2054 60.8578 49.3411 60.9582 49.4531 61.0823C49.565 61.2064 49.6509 61.3518 49.7055 61.5097C49.7602 61.6677 49.7825 61.835 49.7713 62.0017ZM48.4669 62.6722C48.6429 62.6596 48.8076 62.5807 48.9277 62.4514C49.0477 62.3222 49.1143 62.1521 49.1138 61.9756C49.1295 61.5296 48.7721 61.4539 48.4695 61.4539C48.2086 61.4539 47.846 61.4382 47.8095 61.8609C47.7986 61.9588 47.8074 62.0579 47.8352 62.1524C47.863 62.2469 47.9093 62.335 47.9715 62.4115C48.0336 62.4879 48.1103 62.5513 48.1972 62.5978C48.284 62.6444 48.3792 62.6732 48.4773 62.6826L48.4669 62.6722Z" fill="#050505"/>
<path d="M101.318 41.4945C101.324 41.6484 101.298 41.8019 101.242 41.9455C101.187 42.089 101.102 42.2196 100.994 42.329C100.885 42.4384 100.755 42.5243 100.612 42.5813C100.469 42.6384 100.316 42.6654 100.162 42.6606C99.853 42.6519 99.5592 42.5246 99.3415 42.305C99.1239 42.0855 98.9992 41.7905 98.9933 41.4814C98.9929 41.3318 99.0224 41.1836 99.0801 41.0455C99.1377 40.9074 99.2224 40.7822 99.329 40.6772C99.4357 40.5722 99.5622 40.4896 99.7012 40.4342C99.8402 40.3788 99.9889 40.3517 100.139 40.3544C100.942 40.3492 101.331 40.7275 101.318 41.4945ZM100.013 41.8988C100.363 41.938 100.566 41.8988 100.579 41.6536C100.595 41.2936 100.319 41.1318 100.021 41.0823C99.789 41.0432 99.6585 41.1945 99.6611 41.4162C99.6498 41.524 99.6779 41.6324 99.7403 41.7211C99.8026 41.8098 99.895 41.8729 100 41.8988H100.013Z" fill="#050505"/>
<path d="M123.628 109.659C123.628 109.583 123.599 109.489 123.738 109.533C123.745 109.612 123.698 109.646 123.628 109.659Z" fill="#F8F2EA"/>
<path d="M123.531 109.825C123.518 109.734 123.531 109.653 123.64 109.646L123.531 109.825Z" fill="#F8F2EA"/>
<path d="M103.261 115.8C103.293 115.732 103.321 115.659 103.421 115.677C103.431 115.8 103.334 115.787 103.261 115.8Z" fill="#F8F2EA"/>
<path d="M59.8959 53.0668C59.7289 50.865 61.1011 48.3293 63.2298 46.104C67.8891 41.2361 75.0814 40.79 80.2729 45.0605C84.3399 48.4023 85.6808 53.9929 83.5886 59.0591C81.8355 63.3035 78.7337 65.9775 74.171 66.7158C70.3544 67.3315 66.976 66.1523 64.1377 63.5853C61.3359 61.047 59.9819 57.8278 59.8959 53.0668Z" fill="#F8F2EA"/>
<path d="M100.527 52.0417C103.806 52.146 106.655 53.2965 108.86 55.7644C110.287 57.3635 110.751 59.3488 110.652 61.4671C110.461 65.5889 107.362 69.3925 102.925 70.016C100.026 70.4256 97.4306 69.3716 95.2967 67.342C93.8879 66.0011 92.7975 64.3967 92.6044 62.435C92.2705 59.0097 93.3531 56.0331 95.9097 53.6721C96.5247 53.0957 97.2526 52.6531 98.0474 52.3725C98.8422 52.0918 99.6866 51.9792 100.527 52.0417Z" fill="#F8F2EA"/>
<path d="M113.636 59.1531C114.419 60.614 114.724 62.1766 114.862 63.8071C115.066 66.1732 114.721 68.4794 114.288 70.7829C113.925 72.6037 114.25 74.4947 115.201 76.0891C116.37 78.0979 117.57 80.0884 118.742 82.0893C120.427 84.9772 120.596 86.879 120.122 90.0642C119.769 89.2588 119.369 88.4748 118.924 87.7164C118.451 87.0002 118.134 86.1921 117.995 85.345C117.768 83.9676 117.041 82.778 116.261 81.6406C115.168 80.0518 114.2 78.3979 113.621 76.5509C112.763 73.8808 112.767 71.0084 113.634 68.3411C114.127 66.7759 114.497 65.148 113.999 63.5645C113.532 62.0853 113.66 60.627 113.636 59.1531Z" fill="#F8F2EA"/>
<path d="M93.4314 68.9358C93.828 69.3506 94.2141 69.7654 94.6054 70.1593C94.9028 70.4489 94.8454 70.8037 94.8193 71.1454C94.7228 72.4707 94.2297 73.6733 93.6167 74.8316C93.0129 76.0437 92.326 77.2126 91.561 78.3299C90.8635 79.3119 90.4551 80.4695 90.3818 81.6717C90.3841 81.8296 90.3557 81.9864 90.2983 82.1335C90.0166 82.6761 89.7453 82.6892 89.2548 82.3109C89.0539 82.1627 88.8957 81.9639 88.7962 81.7349C88.6968 81.5058 88.6597 81.2545 88.6887 81.0065C88.7103 79.9464 89.0021 78.9092 89.5366 77.9934C90.134 77.0177 90.8409 76.1125 91.4696 75.1603C92.6618 73.3733 93.3506 71.4324 93.2958 69.2567C93.2796 69.1957 93.2842 69.1311 93.3087 69.073C93.3333 69.0149 93.3764 68.9667 93.4314 68.9358Z" fill="#F8F2EA"/>
<path d="M90.4757 56.7686C90.2556 57.7066 90.1056 58.6597 90.027 59.6199C89.9435 61.1852 90.1679 62.7504 90.3557 64.3C90.567 66.0505 90.8253 67.7958 90.3062 69.541C90.1108 70.2169 89.8386 70.8681 89.4948 71.4819C88.6418 72.982 87.7861 74.4794 86.9043 75.9612C86.3334 76.8949 85.9126 77.9126 85.6573 78.9769C84.7886 78.3143 84.7625 78.3065 85.1173 77.3517C85.6014 75.9194 86.3363 74.5847 87.2878 73.4098C89.1139 71.2732 89.6696 68.7141 89.5418 65.9644C89.4609 64.1748 89.1479 62.3983 89.2418 60.593C89.3183 59.2335 89.7432 57.9164 90.4757 56.7686Z" fill="#F8F2EA"/>
<path d="M91.6601 66.5464C93.4288 68.7012 92.6175 70.7987 91.8297 72.8596C91.454 73.8457 90.7653 74.6857 90.1418 75.5309C89.2209 76.8014 88.3 78.0771 88.0313 79.6789C87.9661 80.078 87.9296 80.4798 87.8696 80.965L86.5234 79.8015C86.3721 79.6737 86.4269 79.5406 86.4582 79.3684C86.6611 78.4566 87.0337 77.5911 87.5565 76.8171C88.4435 75.4188 89.32 74.0153 90.1653 72.5961C91.2531 70.7752 91.8897 68.8264 91.6601 66.5464Z" fill="#F8F2EA"/>
<path d="M117.163 85.1338C116.295 84.2337 115.415 83.3441 114.555 82.4311C112.902 80.7261 111.852 78.5273 111.565 76.1701C111.401 74.8239 111.207 73.4778 111.161 72.1213C111.103 70.4308 111.57 68.8055 111.818 67.1646C111.874 66.7297 112.014 66.3097 112.23 65.9281C112.543 65.3276 112.811 64.705 113.034 64.0654C113.186 65.1066 113.097 66.1687 112.773 67.1698C112.251 68.949 111.781 70.723 111.815 72.6091C111.857 75.5881 112.807 78.4835 114.539 80.9076C115.387 82.118 116.365 83.2554 116.996 84.5937C117.082 84.7711 117.257 84.9381 117.137 85.1703L117.163 85.1338Z" fill="#F8F2EA"/>
<path d="M111.32 57.5486C110.104 55.219 108.147 53.3604 105.758 52.2659C103.405 51.1477 100.745 50.8554 98.2054 51.4363C104.041 49.1745 110.112 52.6233 111.32 57.5486Z" fill="#F8F2EA"/>
<path d="M62.3063 63.7914C56.8462 58.1878 57.6523 50.1894 61.1767 46.3545C61.2367 46.4354 61.1767 46.4823 61.1298 46.5371C57.7175 51.8824 58.3332 58.6365 62.2646 63.5332C62.3033 63.5895 62.339 63.6479 62.3715 63.7079L62.3063 63.7914Z" fill="#F8F2EA"/>
<path d="M85.7826 54.3815C85.8113 50.1267 84.1469 46.657 80.8755 43.9674C78.1546 41.7291 74.9823 40.8369 71.4553 40.9934C71.5231 41.043 71.5727 41.1004 71.6014 41.0925C74.004 40.4664 76.2971 40.9777 78.4546 41.9769C82.6494 43.9126 85.1069 47.2231 85.8139 51.7884C85.9472 52.6512 85.9944 53.5251 85.9547 54.3972L85.7826 54.3815Z" fill="#F8F2EA"/>
<path d="M120.99 83.9572C120.586 83.4544 120.246 82.9032 119.978 82.3163C119.167 80.7093 118.001 79.3241 117.184 77.7223C117.095 77.5763 117.037 77.4139 117.012 77.2449C118.577 79.2588 120.156 81.2624 121.027 83.7068L120.99 83.9572Z" fill="#F8F2EA"/>
<path d="M97.6602 70.0185C97.4672 70.1933 97.3289 69.995 97.1959 69.9246C95.5093 69.0314 94.0871 67.7107 93.0714 66.095C92.9049 65.7805 92.7703 65.4502 92.6697 65.1088C92.8784 65.0749 92.8888 65.2367 92.9306 65.3306C93.924 67.2065 95.4472 68.7488 97.3107 69.7655C97.4278 69.8446 97.5394 69.9318 97.6446 70.0264L97.6602 70.0185Z" fill="#F8F2EA"/>
<path d="M97.9263 98.4358C97.098 96.565 96.1589 94.7452 95.1141 92.9861C95.615 93.067 97.2193 95.9731 98.1115 98.4488L97.9263 98.4358Z" fill="#F8F2EA"/>
<path d="M115.723 65.6071C115.705 63.7393 115.624 61.8818 114.941 60.1079C114.78 59.637 114.573 59.1834 114.322 58.7539C114.617 58.7409 114.635 58.9861 114.708 59.1244C115.346 60.3811 115.713 61.7578 115.786 63.1653C115.843 63.9871 115.843 64.8167 115.869 65.641L115.723 65.6071Z" fill="#F8F2EA"/>
<path d="M110.587 64.6549C111.016 63.6714 111.266 62.6192 111.325 61.5479C111.554 62.7009 111.26 63.7575 110.725 64.7723C110.636 64.7827 110.61 64.7227 110.587 64.6549Z" fill="#F8F2EA"/>
<path d="M41.7336 109.04C41.6402 108.137 41.6807 107.226 41.8536 106.335C41.9163 107.238 41.8761 108.146 41.7336 109.04Z" fill="#F8F2EA"/>
<path d="M109.705 72.5178C109.514 71.5734 109.238 70.6264 109.467 69.6794H109.705V72.5178Z" fill="#F8F2EA"/>
<path d="M64.4951 68.2185C64.5133 69.3168 64.4142 70.402 63.8585 71.3908C64.0829 70.3499 64.3516 69.3064 64.4951 68.2185Z" fill="#737373"/>
<path d="M85.7825 54.3816L85.9547 54.3946C85.9465 55.6513 85.7096 56.896 85.2556 58.0678C85.513 56.8521 85.6891 55.6207 85.7825 54.3816Z" fill="#737373"/>
<path d="M102.891 111.349L102.468 108.884C102.875 109.666 102.839 110.509 103.06 111.315L102.891 111.349Z" fill="#F8F2EA"/>
<path d="M110.986 77.6934C110.602 76.728 110.381 75.7052 110.334 74.6672C110.594 75.6794 110.834 76.6995 111.145 77.7012L110.986 77.6934Z" fill="#737373"/>
<path d="M97.6524 70.0212C98.1742 70.376 98.8524 70.3186 99.3637 70.6968C98.7742 70.5247 98.1063 70.5586 97.6602 70.0186L97.6524 70.0212Z" fill="#F8F2EA"/>
<path d="M95.2445 74.876C95.1987 75.4046 95.0092 75.9107 94.6967 76.3395C94.7733 75.8183 94.96 75.3194 95.2445 74.876Z" fill="#F8F2EA"/>
<path d="M110.986 77.6934H111.145L111.714 79.1177C111.239 78.7499 111.147 78.2047 110.986 77.6934Z" fill="#F8F2EA"/>
<path d="M120.962 100.444C121.138 101.089 121.252 101.75 121.301 102.417L121.149 102.445C121.035 101.793 120.923 101.141 120.808 100.486L120.962 100.444Z" fill="#737373"/>
<path d="M121.303 86.0676C121.729 86.6702 121.674 87.3277 121.564 87.9955L121.303 86.0676Z" fill="#737373"/>
<path d="M61.8249 75.1421C61.6186 75.6409 61.159 75.889 60.7803 76.2233L60.6889 76.1606C61.0295 75.7828 61.4124 75.4454 61.8302 75.1552L61.8249 75.1421Z" fill="#F8F2EA"/>
<path d="M80.578 74.0829C80.5128 73.5611 80.3172 73.0811 80.3641 72.4106L80.7554 74.1089L80.578 74.0829Z" fill="#F8F2EA"/>
<path d="M119.115 93.2574L118.543 91.7104C118.899 92.1492 119.099 92.693 119.115 93.2574Z" fill="#737373"/>
<path d="M115.723 65.6072L115.88 65.6411C115.94 66.0864 115.887 66.5398 115.723 66.9585V65.6072Z" fill="#737373"/>
<path d="M120.941 90.6328C121.028 91.0915 120.996 91.565 120.847 92.0076C120.727 91.4337 120.956 91.0476 120.951 90.638L120.941 90.6328Z" fill="#F8F2EA"/>
<path d="M80.5781 74.083L80.7557 74.1091L81.0403 75.1825C80.6904 74.8795 80.6486 74.4747 80.5781 74.083Z" fill="#737373"/>
<path d="M80.6433 70.4254C80.5233 69.8358 80.5233 69.228 80.6433 68.6384V70.4254Z" fill="#737373"/>
<path d="M110.587 64.655C110.611 64.7229 110.637 64.783 110.725 64.7725C110.623 65.112 110.439 65.4207 110.187 65.6709C110.236 65.3047 110.373 64.956 110.587 64.655Z" fill="#737373"/>
<path d="M109.765 72.5281L109.838 73.5727C109.653 73.2567 109.562 72.8941 109.577 72.5281H109.765Z" fill="#737373"/>
<path d="M41.3188 109.567V108.114H41.3736V109.609L41.3188 109.567Z" fill="#737373"/>
<path d="M97.9263 98.4358H98.1012C98.2606 98.7038 98.3386 99.0122 98.3258 99.3237C98.1386 99.0551 98.0031 98.754 97.9263 98.4358Z" fill="#737373"/>
<path d="M121.165 84.1501C121.392 84.2964 121.288 84.5576 121.395 84.7482C121.311 84.6821 121.242 84.5996 121.191 84.5057C121.14 84.4119 121.109 84.3087 121.1 84.2024L121.165 84.1501Z" fill="#737373"/>
<path d="M120.941 90.6337L121.022 89.9077C120.941 90.0644 121.304 90.4039 120.941 90.6337Z" fill="#737373"/>
<path d="M58.9019 77.6393C59.0717 77.4773 59.1944 77.2449 59.4765 77.2423V77.2292C59.453 77.5244 59.1814 77.5688 59.0012 77.7072L58.9019 77.6393Z" fill="#F8F2EA"/>
<path d="M91.6775 53.6538C91.6011 53.8309 91.4594 53.9717 91.2818 54.0469C91.3964 53.8985 91.399 53.6434 91.6906 53.6616L91.6775 53.6538Z" fill="#F8F2EA"/>
<path d="M84.901 59.0618C84.8895 59.2675 84.8042 59.4622 84.6608 59.6102C84.713 59.4169 84.7052 59.1976 84.9219 59.0696L84.901 59.0618Z" fill="#737373"/>
<path d="M107.161 74.3152C107.226 74.3776 107.273 74.4555 107.299 74.5415C107.324 74.6275 107.327 74.7186 107.308 74.8062C107.24 74.7459 107.191 74.6681 107.165 74.5814C107.139 74.4947 107.138 74.4025 107.161 74.3152Z" fill="#737373"/>
<path d="M84.9112 59.0702C84.8976 58.9645 84.9069 58.857 84.9385 58.7552C84.97 58.6534 85.0231 58.5595 85.094 58.48C85.1081 58.5854 85.0981 58.6926 85.0646 58.7935C85.0311 58.8944 84.9751 58.9863 84.9008 59.0624L84.9112 59.0702Z" fill="#737373"/>
<path d="M61.4779 45.937C61.4673 46.014 61.4382 46.0874 61.393 46.1506C61.3478 46.2139 61.2879 46.2653 61.2185 46.3003C61.2003 46.0875 61.3586 46.0226 61.4779 45.937Z" fill="#F8F2EA"/>
<path d="M92.0566 53.1906C92.1578 53.0894 92.233 52.9467 92.4276 52.9312C92.4021 53.0047 92.3605 53.0715 92.3057 53.1268C92.2509 53.182 92.1844 53.2242 92.1111 53.2503L92.0566 53.1906Z" fill="#F8F2EA"/>
<path d="M107.36 74.8369C107.424 74.9378 107.483 75.0424 107.535 75.1503C107.561 75.2531 107.58 75.3579 107.589 75.4637C107.496 75.3913 107.425 75.2941 107.385 75.1833C107.344 75.0724 107.335 74.9524 107.36 74.8369Z" fill="#737373"/>
<path d="M118.395 91.1677C118.449 91.2353 118.497 91.3076 118.538 91.3838C118.548 91.4485 118.548 91.5144 118.538 91.5791C118.494 91.5151 118.455 91.4481 118.421 91.3786C118.405 91.3094 118.396 91.2387 118.395 91.1677Z" fill="#737373"/>
<path d="M109.22 76.9238C109.251 76.9735 109.275 77.0101 109.296 77.0494C109.316 77.0886 109.248 77.0886 109.243 77.0834C109.219 77.0645 109.201 77.0391 109.191 77.0101C109.186 76.9892 109.201 76.9631 109.22 76.9238Z" fill="#737373"/>
<path d="M62.984 64.292L62.9086 64.3909C62.857 64.3453 62.8091 64.2957 62.7654 64.2425C62.716 64.1671 62.781 64.1514 62.8279 64.1723C62.8848 64.2054 62.9373 64.2456 62.984 64.292Z" fill="#F8F2EA"/>
<path d="M120.99 83.9565L121.027 83.6963C121.157 83.7379 121.217 83.803 121.102 83.9279H120.982L120.99 83.9565Z" fill="#737373"/>
<path d="M107.571 75.4812C107.612 75.5072 107.654 75.5228 107.654 75.5359C107.654 75.5983 107.631 75.6582 107.618 75.7206C107.597 75.6894 107.56 75.6608 107.555 75.6269C107.555 75.5779 107.56 75.529 107.571 75.4812Z" fill="#737373"/>
<path d="M84.5276 59.8652C84.5276 59.8652 84.5503 59.8652 84.5503 59.8804C84.5514 59.8938 84.5514 59.9073 84.5503 59.9207C84.5503 59.9207 84.5251 59.9207 84.5251 59.9056C84.5241 59.8921 84.5249 59.8785 84.5276 59.8652Z" fill="#737373"/>
<path d="M109.462 77.378L109.549 77.4904L109.486 77.5166L109.47 77.3701L109.462 77.378Z" fill="#737373"/>
<path d="M116.948 77.2025L116.827 77.1584C116.777 77.1402 116.772 77.1065 116.827 77.0909C116.868 77.0804 116.912 77.0804 116.954 77.0909C116.956 77.1282 116.954 77.1655 116.948 77.2025Z" fill="#F8F2EA"/>
<path d="M85.201 58.3315L85.1487 58.3864C85.1341 58.3598 85.1252 58.3304 85.1225 58.3001C85.1225 58.2818 85.1565 58.2661 85.1722 58.2478L85.201 58.3315Z" fill="#737373"/>
<path d="M120.982 83.9414H121.102L121.164 84.1516L121.099 84.2035C121.059 84.1729 121.028 84.133 121.008 84.0872C120.987 84.0415 120.979 83.9914 120.982 83.9414Z" fill="#F8F2EA"/>
<path d="M110.085 65.8573C110.072 65.904 110.061 65.9611 109.991 65.9403C109.964 65.9262 109.94 65.9078 109.919 65.8859C109.95 65.8554 109.985 65.8285 110.023 65.8054C110.023 65.8054 110.064 65.8391 110.085 65.8573Z" fill="#737373"/>
<path d="M98.3881 99.4931L98.4005 99.4583L98.4055 99.4956L98.3881 99.4931Z" fill="#737373"/>
<path d="M60.1899 76.5562C60.1899 76.5977 60.2288 76.6496 60.2158 76.6781C60.1769 76.7559 60.1094 76.7222 60.0497 76.6963C60.1483 76.6963 60.1743 76.6418 60.1821 76.5613L60.1899 76.5562Z" fill="#F8F2EA"/>
<path d="M60.0497 76.697L60.1491 76.7807L60.0864 76.8331C60.0864 76.7886 60.0681 76.7415 60.0602 76.697H60.0497Z" fill="#F8F2EA"/>
<path d="M59.4758 77.2421L59.5562 77.2109C59.5562 77.3017 59.4991 77.2395 59.4654 77.2317L59.4758 77.2421Z" fill="#F8F2EA"/>
<path d="M109.461 77.3687L109.389 77.3483L109.42 77.3022L109.453 77.3764L109.461 77.3687Z" fill="#737373"/>
<path d="M58.9884 77.7067C58.957 77.7721 58.9204 77.8375 58.8419 77.7616C58.8419 77.7616 58.8812 77.6831 58.9021 77.6387L58.9884 77.7067Z" fill="#F8F2EA"/>
<path d="M62.1133 74.7977L62.2441 74.7847L62.1997 74.8553L62.1081 74.7899L62.1133 74.7977Z" fill="#F8F2EA"/>
<path d="M58.4741 77.9675L58.6258 77.9806C58.6049 78.0015 58.5735 78.0486 58.5683 78.0434C58.5311 78.0238 58.4967 77.9991 58.4662 77.9701L58.4741 77.9675Z" fill="#F8F2EA"/>
<path d="M58.4662 77.9701L58.5656 78.0486L58.5029 78.1062C58.5029 78.0591 58.4846 78.0146 58.4741 77.9675L58.4662 77.9701Z" fill="#F8F2EA"/>
<path d="M62.1031 74.7847C62.1293 74.8318 62.1842 74.8867 62.1031 74.9207C62.077 74.9207 62.0325 74.8945 61.9985 74.8788L62.1162 74.7899L62.1031 74.7847Z" fill="#F8F2EA"/>
<path d="M61.9821 74.8813C62.0107 74.941 62.0522 75.0085 61.9666 75.0474C61.9432 75.0604 61.8939 75.0163 61.8576 74.9981L61.9796 74.8865L61.9821 74.8813Z" fill="#F8F2EA"/>
<path d="M91.6915 53.6699C91.5868 53.5914 91.6915 53.5626 91.7307 53.5208L91.7856 53.56C91.7875 53.5743 91.786 53.5888 91.7812 53.6025C91.7764 53.6161 91.7684 53.6283 91.758 53.6383C91.7475 53.6482 91.7349 53.6556 91.721 53.6597C91.7072 53.6638 91.6926 53.6646 91.6784 53.662L91.6915 53.6699Z" fill="#F8F2EA"/>
<path d="M117.153 85.1516C117.174 85.1023 117.202 85.0868 117.241 85.1257C117.28 85.1646 117.241 85.149 117.241 85.1594L117.161 85.1334L117.153 85.1516Z" fill="#F8F2EA"/>
<path d="M91.7227 53.5211L91.83 53.4138L91.8823 53.4531C91.8823 53.5211 91.8509 53.5629 91.7776 53.5603L91.7227 53.5211Z" fill="#F8F2EA"/>
<path d="M91.8375 53.4132C91.8816 53.3587 91.9101 53.2601 92.0061 53.3509C92.0061 53.4235 91.975 53.4573 91.9023 53.4599L91.8375 53.4132Z" fill="#F8F2EA"/>
<path d="M61.8682 74.9985C61.8917 75.0325 61.9702 75.0195 61.9441 75.1032C61.9179 75.1869 61.863 75.1346 61.8237 75.1424V75.1555C61.8394 75.1032 61.8551 75.0535 61.8682 75.0011V74.9985Z" fill="#F8F2EA"/>
<path d="M92.1118 53.2497C92.1118 53.2642 92.1085 53.2784 92.1022 53.2915C92.0959 53.3045 92.0868 53.3159 92.0755 53.325C92.0642 53.334 92.0511 53.3404 92.037 53.3437C92.0229 53.3469 92.0082 53.347 91.9941 53.3439C91.8895 53.255 91.9941 53.2314 92.0438 53.1843L92.1118 53.2497Z" fill="#F8F2EA"/>
<path d="M60.7859 76.2222C60.7571 76.2745 60.7362 76.3582 60.6577 76.3007C60.5792 76.2431 60.6577 76.2013 60.6943 76.1594L60.7859 76.2222Z" fill="#F8F2EA"/>
<path d="M60.4541 76.4206C60.4776 76.3683 60.4907 76.2741 60.5718 76.3421C60.6529 76.4102 60.5535 76.4416 60.5117 76.4808L60.4541 76.4206Z" fill="#F8F2EA"/>
<path d="M61.5863 45.6267L61.6595 45.7287L61.5915 45.7758V45.6319L61.5863 45.6267Z" fill="#F8F2EA"/>
<path d="M61.5811 45.6319L61.6897 45.7043L61.6587 45.7405C61.6328 45.7043 61.6096 45.6655 61.5863 45.6267L61.5811 45.6319Z" fill="#F8F2EA"/>
<path d="M60.5111 76.4803C60.4512 76.5219 60.3992 76.6468 60.3185 76.5011L60.3341 76.5141L60.4538 76.4204L60.5111 76.4803Z" fill="#F8F2EA"/>
<path d="M60.3188 76.5012C60.3188 76.5378 60.3397 76.5954 60.3188 76.6111C60.2508 76.6739 60.222 76.6111 60.188 76.5562L60.3319 76.5091L60.3188 76.5012Z" fill="#F8F2EA"/>
<path d="M110.112 65.6537L110.148 65.6174C110.162 65.6391 110.174 65.6627 110.182 65.6875C110.182 65.6875 110.161 65.7108 110.148 65.7212L110.112 65.6537Z" fill="#737373"/>
<path d="M62.668 64.0883L62.65 64.1244L62.5959 64.0857L62.6345 64.0522L62.668 64.0883Z" fill="#F8F2EA"/>
<path d="M62.4728 63.8279C62.5221 63.859 62.6181 63.8798 62.5403 63.955C62.4624 64.0303 62.4391 63.9213 62.3924 63.8902C62.4214 63.8723 62.4483 63.8515 62.4728 63.8279Z" fill="#F8F2EA"/>
<path d="M62.392 63.8793L62.3063 63.791L62.3712 63.708L62.4724 63.817C62.4479 63.8406 62.4209 63.8614 62.392 63.8793Z" fill="#F8F2EA"/>
<path d="M43.0772 70.2404C43.0772 70.9343 42.1954 71.8422 41.5563 71.8317C40.7737 71.8161 40.0275 70.9734 40.0302 70.0943C40.0351 69.9045 40.078 69.7176 40.1563 69.5446C40.2345 69.3716 40.3466 69.216 40.4859 69.0869C40.6251 68.9578 40.7888 68.8579 40.9673 68.793C41.1457 68.7281 41.3353 68.6996 41.525 68.709C41.7283 68.7045 41.9305 68.7408 42.1195 68.8159C42.3085 68.891 42.4805 69.0033 42.6253 69.1461C42.77 69.2889 42.8846 69.4594 42.9623 69.6474C43.0399 69.8354 43.079 70.037 43.0772 70.2404Z" fill="#F8F2EA"/>
<path d="M39.8267 68.7847C39.6986 69.102 39.5931 69.4281 39.511 69.7603C39.485 70.0528 39.485 70.347 39.511 70.6395C39.0962 69.9351 39.1823 69.3508 39.8267 68.7847Z" fill="#F8F2EA"/>
<path d="M38.011 43.0128C38.0418 43.5515 37.9002 44.0861 37.6066 44.5389C37.5668 44.618 37.5089 44.6866 37.4378 44.7393C37.3666 44.792 37.284 44.8272 37.1967 44.8422C37.1094 44.8572 37.0199 44.8514 36.9352 44.8255C36.8505 44.7996 36.7731 44.7541 36.7092 44.6928C36.0466 44.2206 35.8457 42.8458 36.3466 42.2041C36.4594 42.0568 36.6107 41.9435 36.7837 41.8768C36.9568 41.81 37.145 41.7924 37.3275 41.8258C37.724 41.878 37.8623 42.1832 37.9353 42.5249C37.9823 42.731 38.0005 42.9397 38.011 43.0128Z" fill="#F8F2EA"/>
<path d="M36.0596 44.6092C35.217 44.0014 35.1126 43.2449 35.7753 42.564C35.6029 43.2569 35.7048 43.9896 36.0596 44.6092Z" fill="#F8F2EA"/>
<path d="M93.061 32.7184C92.1375 32.7184 91.441 32.0949 91.4384 31.2654C91.4417 31.0536 91.4869 30.8447 91.5713 30.6505C91.6557 30.4563 91.7777 30.2807 91.9302 30.1338C92.0827 29.9869 92.2627 29.8716 92.4599 29.7944C92.6571 29.7173 92.8676 29.6799 93.0793 29.6844C93.9089 29.6714 94.7176 30.3184 94.7306 31.0071C94.7463 31.2323 94.7142 31.4583 94.6364 31.6702C94.5586 31.8821 94.4369 32.0752 94.2792 32.2368C94.1216 32.3984 93.9315 32.5248 93.7216 32.6078C93.5116 32.6908 93.2865 32.7285 93.061 32.7184Z" fill="#F8F2EA"/>
<path d="M126.996 86.4719C127.333 86.4719 127.584 86.5189 127.537 86.8637C127.495 87.164 127.401 87.48 127.015 87.4722C126.628 87.4643 126.291 87.3207 126.299 86.9263C126.299 86.485 126.743 86.5242 126.996 86.4719Z" fill="#F8F2EA"/>
<path d="M48.478 62.6839C48.2851 62.6622 48.1083 62.5659 47.9853 62.4156C47.8624 62.2654 47.803 62.073 47.8199 61.8796C47.8565 61.4565 48.2247 61.4774 48.4806 61.4722C48.7836 61.4722 49.1414 61.5401 49.1257 61.9945C49.1242 62.1698 49.0567 62.3381 48.9367 62.4658C48.8166 62.5936 48.6529 62.6715 48.478 62.6839Z" fill="#F8F2EA"/>
<path d="M100.001 41.8995C99.8928 41.8763 99.7973 41.8143 99.7323 41.7252C99.6673 41.6361 99.6373 41.5262 99.6481 41.4164C99.6481 41.1944 99.7761 41.0429 100.008 41.0821C100.317 41.1369 100.583 41.2936 100.567 41.654C100.554 41.8943 100.351 41.9387 100.001 41.8995Z" fill="#F8F2EA"/>
<defs>
<filter id="filter0_d_2409_117782" x="0.050354" y="0.074707" width="168.698" height="166.278" filterUnits="userSpaceOnUse" color-interpolation-filters="sRGB">
<feFlood flood-opacity="0" result="BackgroundImageFix"/>
<feColorMatrix in="SourceAlpha" type="matrix" values="0 0 0 0 0 0 0 0 0 0 0 0 0 0 0 0 0 0 127 0" result="hardAlpha"/>
<feOffset dx="5" dy="4"/>
<feGaussianBlur stdDeviation="2"/>
<feComposite in2="hardAlpha" operator="out"/>
<feColorMatrix type="matrix" values="0 0 0 0 0 0 0 0 0 0 0 0 0 0 0 0 0 0 0.25 0"/>
<feBlend mode="normal" in2="BackgroundImageFix" result="effect1_dropShadow_2409_117782"/>
<feBlend mode="normal" in="SourceGraphic" in2="effect1_dropShadow_2409_117782" result="shape"/>
</filter>
</defs>
</svg>