<svg width="20" height="12" viewBox="0 0 20 12" fill="none" xmlns="http://www.w3.org/2000/svg">
<path d="M2.06694 4.76983C3.49862 4.81196 4.65516 4.89022 5.42463 4.95042C5.42463 4.95042 8.0175 5.14908 11.0208 4.70963C11.2633 4.67351 11.7669 4.58923 12.1866 4.10763C12.4944 3.75246 12.6343 3.33106 12.6996 3.08425C12.8535 2.80131 13.0121 2.52439 13.166 2.24146C13.7396 2.47021 14.1826 2.72305 14.4717 2.90365C15.8101 3.72838 16.7708 4.81196 17.7361 5.91361C17.96 6.17247 18.1419 6.38317 18.2491 6.5156C17.6289 7.0574 17.004 7.59919 16.3837 8.14099C15.2971 8.64064 14.2059 9.14631 13.1193 9.64597C12.9328 8.96572 12.7462 8.27944 12.5597 7.59919C11.0814 7.61725 9.89687 7.73765 9.10875 7.83999C7.35529 8.06875 6.5252 8.33964 4.53857 8.62258C3.27011 8.80318 2.23949 8.88144 1.6006 8.92358C1.55396 7.71959 1.50733 6.5156 1.46069 5.31162C1.66122 5.13102 1.86641 4.95042 2.06694 4.76983Z" fill="#F8F2EA"/>
<path d="M0.940407 4.50282L1.02916 4.42791C1.04821 4.41183 1.07045 4.38963 1.10043 4.35817C1.10591 4.35242 1.11179 4.3462 1.11797 4.33967C1.14201 4.31427 1.17068 4.28396 1.19869 4.25676C1.23422 4.22225 1.28017 4.18113 1.33398 4.14796C1.38788 4.11472 1.46483 4.08 1.55882 4.08H1.55935C2.69347 4.08242 3.82508 4.02342 4.9643 3.96402C5.23605 3.94985 5.50823 3.93566 5.78098 3.92228C7.16089 3.85456 8.55099 3.8078 9.94642 3.89371L10.0738 3.79095L10.1953 3.85554C10.2439 3.83884 10.2938 3.82571 10.3454 3.81642C10.4595 3.77479 10.6104 3.73096 10.7752 3.75792C11.2444 3.82699 11.4196 3.71865 11.5026 3.57731C11.5548 3.48837 11.5924 3.35338 11.6016 3.15367C11.6107 2.95533 11.5911 2.70979 11.5436 2.41309L11.5435 2.4128C11.5416 2.4006 11.5396 2.38815 11.5376 2.37549C11.5122 2.21637 11.4812 2.02254 11.4653 1.83258C11.4485 1.63195 11.4455 1.40756 11.4974 1.21736C11.5516 1.01864 11.683 0.81035 11.9544 0.76046C12.1881 0.717497 12.4593 0.809673 12.7596 0.983169L12.7627 0.98496L12.7627 0.984982C12.9489 1.09615 13.1363 1.20734 13.324 1.31874L13.3245 1.31902C13.5082 1.42802 13.6922 1.5372 13.8752 1.64642C15.5228 2.40924 16.8786 3.77085 18.1939 5.09192C18.3851 5.2839 18.5754 5.47503 18.7656 5.66333L18.5897 5.841M0.940407 4.50282L13.5363 10.8358C13.6359 10.7767 13.7295 10.7075 13.8144 10.6423C13.8405 10.6223 13.8654 10.603 13.8896 10.5842C13.9467 10.5398 13.9998 10.4986 14.0549 10.459C14.4032 10.2252 14.7516 9.99285 15.1003 9.76027C15.361 9.5864 15.6219 9.4124 15.8828 9.23773C15.8917 9.26369 15.9003 9.28948 15.9088 9.31501L16.0092 9.61723L16.2789 9.44803C16.463 9.3326 16.6561 9.23274 16.8602 9.12724C16.8731 9.12054 16.8862 9.11381 16.8992 9.10706C17.1142 8.99582 17.3402 8.87741 17.5565 8.73443C17.9778 8.45589 18.3639 8.08296 18.6205 7.46823C18.9521 7.27881 19.1996 7.02589 19.2434 6.68891C19.2902 6.32828 19.0885 5.9815 18.7652 5.66293L18.5897 5.841M0.940407 4.50282V4.59044M0.940407 4.50282V4.59044M18.5897 5.841C19.2006 6.44299 19.1167 6.93061 18.4219 7.29181L13.1965 1.53377C13.3842 1.64513 13.5719 1.75649 13.7584 1.86785C15.3674 2.60926 16.6917 3.93855 18.0142 5.26601C18.2058 5.45831 18.3974 5.65057 18.5897 5.841ZM0.940407 4.59044C0.737837 5.32042 0.731005 6.05047 0.766422 6.75873C0.777851 6.98729 0.793383 7.21118 0.80872 7.43226C0.842543 7.91982 0.875417 8.39368 0.861233 8.87368L0.861199 8.87508C0.852756 9.22747 0.969252 9.48989 1.21163 9.63615C1.42535 9.76512 1.68701 9.76907 1.88661 9.75667C3.15373 9.67878 4.43671 9.55843 5.70184 9.18305L5.97161 9.16673L6.2699 9.14867L6.26991 9.14886L6.27961 9.1479C6.70422 9.10574 7.12875 9.06208 7.55278 9.01847L7.55361 9.01838C7.97806 8.97473 8.40199 8.93113 8.82586 8.88904L9.01524 8.87024L9.03526 8.75395C9.30353 8.75767 9.56431 8.72851 9.81547 8.68938C9.96096 8.66672 10.1059 8.64024 10.2472 8.61442L10.2779 8.60882C10.4301 8.58103 10.5784 8.55429 10.7264 8.53241L10.7272 8.53229C11.0408 8.48494 11.253 8.45828 11.4085 8.46302C11.5559 8.46751 11.6108 8.49935 11.6447 8.53411C11.6903 8.58095 11.7423 8.67866 11.7922 8.90248C11.8411 9.12147 11.8799 9.41953 11.9293 9.83181L11.9293 9.83193C11.9638 10.1193 12.0089 10.3623 12.0751 10.5548C12.1403 10.7446 12.2371 10.9182 12.3978 11.0248C12.5677 11.1375 12.7607 11.1444 12.9468 11.1002C13.1272 11.0573 13.3242 10.9618 13.5362 10.8359L0.940407 4.59044ZM11.3015 6.50126C11.7822 6.38209 12.2881 6.32286 12.7109 6.54725C13.1482 6.77932 13.4153 7.26711 13.5344 8.03612L13.5345 8.03643C13.5595 8.19929 13.5968 8.28508 13.6261 8.32763C13.6498 8.36196 13.6671 8.368 13.6829 8.37121C13.7093 8.37659 13.7559 8.37566 13.834 8.35453C13.9113 8.33366 13.9963 8.29984 14.0973 8.25846L14.0994 8.25759L14.0994 8.2576C14.5887 8.06217 15.0426 7.75121 15.5229 7.41883L15.5512 7.39927C16.0141 7.07881 16.5033 6.74025 17.0393 6.51893L17.0572 6.51157L17.0759 6.50703C17.1152 6.49753 17.1563 6.48899 17.199 6.48251C17.2032 6.46723 17.2051 6.45395 17.2057 6.44248C17.2074 6.41376 17.202 6.38119 17.1852 6.34067C17.0446 6.12944 16.8963 5.96672 16.7202 5.86466L16.7016 5.85387L16.6851 5.84005C16.4985 5.68384 16.3133 5.52721 16.1286 5.37115C15.2573 4.63455 14.4006 3.91034 13.4883 3.29968C13.4721 3.33355 13.4558 3.36854 13.4389 3.40474C13.4176 3.4503 13.3955 3.49778 13.3716 3.54742C13.3028 3.69047 13.2201 3.84922 13.1056 3.98931C13.1164 4.04961 13.1157 4.11117 13.1046 4.17201C13.1939 4.46299 13.2255 4.75005 13.1155 4.98088C12.9802 5.26475 12.6901 5.36007 12.3799 5.35655L12.3787 5.35654L11.8213 5.34751L11.3243 5.33945C11.0107 5.48338 10.6765 5.47512 10.4081 5.46848C10.3887 5.468 10.3697 5.46753 10.351 5.46713C10.0324 5.46022 9.79917 5.46888 9.59747 5.60348L9.55475 5.63199L9.50424 5.64135C8.97672 5.73908 8.45285 5.75395 7.94169 5.74633C7.72618 5.74312 7.51838 5.7362 7.3133 5.72936C7.01935 5.71957 6.73101 5.70996 6.43362 5.71174L6.42179 5.71181L6.41 5.71076C5.84497 5.66056 5.27569 5.65154 4.69647 5.64551C4.65158 5.64505 4.60662 5.6446 4.56161 5.64415C4.02863 5.63883 3.4869 5.63342 2.94564 5.5968L2.9443 5.5967C2.72896 5.58097 2.59532 5.61463 2.5097 5.66243C2.42726 5.70846 2.36469 5.7813 2.31633 5.89469C2.26602 6.01262 2.23472 6.16663 2.21656 6.3588C2.19849 6.55011 2.19472 6.76237 2.19119 6.99449L11.3015 6.50126ZM11.3015 6.50126C11.1285 6.54371 10.9623 6.57271 10.787 6.60331C10.6815 6.62172 10.5727 6.6407 10.4572 6.66353C10.1684 6.72059 9.86519 6.79783 9.56778 6.94593C8.56046 7.28008 7.52036 7.39773 6.46568 7.43324L6.44535 7.43393L6.4254 7.43789C6.28719 7.46534 6.15379 7.50662 6.02552 7.56182L6.02545 7.56166L6.01715 7.5656C5.72632 7.70363 5.42917 7.78781 5.12287 7.83901C5.06606 7.84613 5.00681 7.85298 4.94621 7.85998C4.81804 7.87479 4.68378 7.89031 4.5536 7.91061C4.35223 7.93063 4.14882 7.94227 3.93871 7.95423L3.93397 7.9545C3.72475 7.9664 3.50891 7.97868 3.29224 8.0002L3.2792 8.00149L3.26637 8.00414C3.14782 8.02863 3.01856 8.06105 2.88971 8.11461C2.69753 8.16643 2.57482 8.16209 2.49798 8.13939C2.4276 8.11861 2.37413 8.07637 2.3284 7.99734C2.27861 7.9113 2.24023 7.78398 2.21699 7.60755C2.19401 7.43322 2.18777 7.22738 2.19119 6.99461L11.3015 6.50126Z" fill="black" stroke="#181818" stroke-width="0.5"/>
</svg>
