<svg width="25" height="25" viewBox="0 0 25 25" fill="none" xmlns="http://www.w3.org/2000/svg">
<path d="M14.699 7.90333C14.4814 8.00405 14.2766 8.09953 14.0713 8.19312C13.9313 8.25997 13.7832 8.3093 13.6304 8.33992C13.159 8.42638 12.8239 8.05203 12.9797 7.60974C13.0209 7.47728 13.1098 7.36352 13.2301 7.28906C14.2124 6.68335 15.1899 6.06956 16.1698 5.46289C16.5785 5.21016 16.9832 4.95029 17.4099 4.72653C17.4738 4.69199 17.5456 4.67354 17.6187 4.67285C17.8034 4.67285 17.9087 4.78449 17.8823 4.95789C17.6603 6.44106 17.4447 7.92471 17.1669 9.39933C17.1311 9.63255 17.0199 9.84877 16.8494 10.0169C16.5344 10.32 16.1924 10.1409 16.039 9.901C15.9696 9.78723 15.9301 9.65869 15.9239 9.52665C15.9094 9.24416 15.937 8.96112 16.0057 8.68625C16.0145 8.64777 16.0376 8.60786 16.014 8.5651C15.965 8.5651 15.9587 8.60786 15.9415 8.63494C15.2445 9.73647 14.5477 10.8385 13.8513 11.941C13.6063 12.3262 13.3643 12.7125 13.1164 13.0958C13.0747 13.16 13.0806 13.1856 13.1497 13.2246C13.5907 13.4764 14.0375 13.7234 14.4236 14.0564C14.451 14.0802 14.4775 14.1044 14.503 14.1291C14.572 14.1985 14.6252 14.2812 14.6593 14.3717C14.6933 14.4623 14.7074 14.5588 14.7007 14.655C14.694 14.7511 14.6665 14.8449 14.6201 14.9302C14.5738 15.0154 14.5095 15.0903 14.4314 15.1501C14.3572 15.2071 14.2703 15.2465 14.1775 15.265C14.0848 15.2836 13.9888 15.2808 13.8974 15.2569C13.597 15.19 13.3423 15.0375 13.1002 14.8603C12.868 14.6902 12.6156 14.5481 12.3711 14.3947C12.3221 14.3638 12.3001 14.3738 12.2731 14.4184C11.7675 15.201 11.2612 15.983 10.7543 16.7643C10.4167 17.2822 10.0815 17.8014 9.72925 18.3097C9.59304 18.5059 9.43184 18.6855 9.19029 18.791C8.80762 18.9592 8.12559 18.7197 8.09766 18.1677C8.08964 18.0614 8.11638 17.9553 8.1741 17.8646C9.10503 16.4565 10.036 15.0484 10.9669 13.6403C11.0193 13.5614 11.0159 13.5296 10.9253 13.4873C10.507 13.2945 10.1126 13.0565 9.74934 12.778C9.60507 12.6722 9.4923 12.5313 9.42253 12.3695C9.38132 12.2705 9.36759 12.1628 9.3827 12.0571C9.39782 11.9514 9.44125 11.8513 9.50868 11.767C9.5761 11.6826 9.66515 11.6169 9.76696 11.5763C9.86876 11.5357 9.97976 11.5217 10.0889 11.5357C10.3917 11.5709 10.6425 11.7191 10.8934 11.8683C11.1634 12.0303 11.4245 12.2056 11.6822 12.3847C11.7445 12.4279 11.7695 12.4189 11.8092 12.3585C12.549 11.2222 13.2905 10.0868 14.0336 8.95229C14.2374 8.64111 14.4427 8.33042 14.6465 8.01925C14.6756 7.98658 14.6939 7.94619 14.699 7.90333ZM15.1992 7.40071L15.2134 7.41353C15.1889 7.43908 15.1661 7.46622 15.1453 7.49477C14.9461 7.79375 14.7475 8.09288 14.5495 8.39218C13.6526 9.75721 12.7563 11.1229 11.8606 12.4892C11.8116 12.5642 11.7812 12.5652 11.7063 12.5191C11.2227 12.2236 10.7489 11.9129 10.255 11.6326C10.1684 11.5842 10.0663 11.5692 9.96884 11.5904C9.85742 11.6095 9.7521 11.6534 9.66114 11.7186C9.35981 11.9395 9.38137 12.3695 9.67731 12.5514C10.1575 12.8464 10.6254 13.1609 11.1016 13.4621C11.1751 13.5096 11.1781 13.5367 11.133 13.607C10.2119 15.0294 9.28975 16.4517 8.39948 17.8926C8.35912 17.9575 8.33546 18.0308 8.33051 18.1064C8.32556 18.182 8.33946 18.2577 8.37103 18.327C8.40261 18.3963 8.45093 18.4572 8.51192 18.5045C8.5729 18.5519 8.64475 18.5843 8.72139 18.5991C8.97323 18.6466 9.17657 18.5516 9.33091 18.3615C9.42596 18.247 9.50239 18.1178 9.58569 17.9948C10.4348 16.7406 11.2653 15.4769 12.0987 14.2104C12.1477 14.1391 12.1732 14.1424 12.2384 14.1842C12.696 14.4774 13.1526 14.7719 13.6225 15.047C13.6997 15.0955 13.788 15.1252 13.8796 15.1334C13.9712 15.1417 14.0636 15.1283 14.1487 15.0945C14.4383 14.9947 14.6848 14.4726 14.3619 14.2227C14.3006 14.1752 14.2492 14.1154 14.187 14.0669C13.7715 13.7467 13.3138 13.4878 12.864 13.2189C12.8038 13.1833 12.7891 13.16 12.8322 13.0963C13.0243 12.8113 13.2105 12.5262 13.3976 12.2369L16.0405 8.17887C16.0846 8.11094 16.1297 8.04395 16.1752 7.97697C16.2208 7.90998 16.262 7.8506 16.3056 7.78694C16.1586 8.37222 16.0924 8.96511 16.0238 9.55752C15.989 9.86204 16.2958 10.111 16.5917 10.0031C16.8039 9.9257 16.9533 9.77891 16.9969 9.5542C17.0248 9.41168 17.0351 9.26156 17.0631 9.11666C17.1503 8.65964 17.2487 8.20452 17.3311 7.74703C17.4462 7.10901 17.5295 6.46434 17.6667 5.83155C17.7243 5.59807 17.7544 5.359 17.7564 5.11894C17.7564 5.05291 17.751 4.98165 17.6878 4.94744C17.5702 4.88378 17.4428 4.86145 17.3188 4.92891C17.0973 5.05006 16.8778 5.17215 16.6598 5.30137C15.8752 5.76821 15.0942 6.23789 14.3168 6.71043C13.964 6.92469 13.6098 7.13799 13.2967 7.40736C13.0561 7.61496 13.0458 7.81354 13.1345 8.0449C13.2232 8.27626 13.3844 8.34942 13.6176 8.23968C13.8043 8.15132 13.988 8.05583 14.1703 7.95844C14.5138 7.77411 14.8558 7.58693 15.1982 7.40071H15.1992ZM16.0429 8.52472L16.0273 8.50999C16.02 8.52008 16.0139 8.53091 16.0091 8.5423C16.0091 8.548 16.016 8.56225 16.0189 8.56178C16.0376 8.55988 16.0395 8.5442 16.042 8.52472H16.0429Z" fill="#F8F2EA"/>
<path d="M15.1982 7.4007C14.8553 7.58693 14.5123 7.77411 14.1693 7.95843C13.987 8.05345 13.8033 8.15131 13.6166 8.23968C13.3834 8.34942 13.2247 8.28196 13.1335 8.0449C13.0424 7.80784 13.0551 7.61496 13.2957 7.40735C13.6088 7.13704 13.963 6.92468 14.3158 6.71042C15.0955 6.23789 15.8765 5.76678 16.6588 5.29709C16.8749 5.16787 17.0964 5.04578 17.3178 4.92463C17.4418 4.85717 17.5692 4.87713 17.6868 4.94316C17.75 4.97737 17.7539 5.04863 17.7554 5.11466C17.7534 5.35472 17.7233 5.59379 17.6657 5.82727C17.5285 6.46149 17.4452 7.10473 17.3301 7.74275C17.2478 8.20024 17.1493 8.65536 17.0621 9.11238C17.0341 9.25728 17.0239 9.40502 16.9959 9.54992C16.9523 9.77463 16.8029 9.92142 16.5907 9.99886C16.2967 10.1067 15.9881 9.85634 16.0229 9.55324C16.0914 8.96083 16.1556 8.36794 16.3046 7.78266C16.2611 7.846 16.2177 7.90934 16.1742 7.97269C16.1287 8.03967 16.0836 8.10666 16.0395 8.17459L13.3966 12.2326C13.2095 12.5177 13.0233 12.808 12.8312 13.092C12.7881 13.1557 12.8028 13.179 12.8631 13.2146C13.3133 13.4835 13.771 13.7424 14.186 14.0626C14.2482 14.1101 14.2996 14.1709 14.3609 14.2184C14.6838 14.4683 14.4373 14.9904 14.1478 15.0902C14.0626 15.1241 13.9703 15.1374 13.8786 15.1292C13.787 15.1209 13.6988 15.0912 13.6215 15.0427C13.1517 14.7676 12.695 14.4726 12.2374 14.18C12.1722 14.1381 12.1448 14.1348 12.0977 14.2061C11.2648 15.4702 10.4319 16.7363 9.5847 17.9905C9.50141 18.1135 9.42498 18.2428 9.32992 18.3572C9.17558 18.544 8.97225 18.6394 8.72041 18.5948C8.64422 18.5798 8.57285 18.5473 8.51227 18.5C8.4517 18.4528 8.40369 18.3921 8.37226 18.3232C8.34083 18.2542 8.3269 18.179 8.33164 18.1037C8.33637 18.0285 8.35964 17.9555 8.39948 17.8907C9.28974 16.4498 10.2124 15.0275 11.133 13.6051C11.1781 13.5348 11.1751 13.5068 11.1016 13.4602C10.6254 13.159 10.1575 12.8426 9.67731 12.5495C9.38333 12.3676 9.35981 11.9376 9.66114 11.7167C9.75209 11.6515 9.85742 11.6076 9.96884 11.5884C10.0663 11.5673 10.1684 11.5823 10.255 11.6307C10.7479 11.9129 11.2202 12.2236 11.7053 12.5182C11.7802 12.5657 11.8106 12.5657 11.8596 12.4882C12.754 11.1216 13.6503 9.75594 14.5485 8.39122C14.7445 8.09098 14.9431 7.79184 15.1443 7.49381C15.1651 7.46527 15.1879 7.43813 15.2124 7.41258C15.2193 7.40545 15.2365 7.40023 15.2232 7.38835C15.21 7.37647 15.2041 7.3912 15.1982 7.4007ZM12.645 12.8032C12.6515 12.8001 12.6567 12.7949 12.6596 12.7884C12.6624 12.782 12.6628 12.7748 12.6607 12.768L12.7352 12.6507L12.722 12.6436C12.696 12.683 12.673 12.7224 12.645 12.7619L12.6269 12.788L12.6137 12.8113C12.601 12.8208 12.5911 12.8335 12.5851 12.8479C12.5791 12.8623 12.5771 12.878 12.5794 12.8935C12.5686 12.8935 12.5603 12.8935 12.5706 12.9077L12.5794 12.8939C12.6107 12.8816 12.6166 12.8512 12.6284 12.826L12.645 12.8032ZM10.618 15.6931L10.643 15.6574C10.6514 15.6474 10.6582 15.637 10.643 15.6275C10.643 15.6275 10.6308 15.6375 10.6244 15.6427L10.5999 15.6783C10.5916 15.6878 10.5842 15.6983 10.5999 15.7083C10.6009 15.7106 10.6117 15.7011 10.618 15.6945V15.6931ZM10.1349 16.4185C10.1506 16.408 10.1658 16.3976 10.1575 16.371C10.1498 16.3768 10.1438 16.3845 10.14 16.3932C10.1362 16.4019 10.1348 16.4115 10.1359 16.4209L10.1261 16.4294C10.1261 16.4294 10.131 16.4294 10.1315 16.4294C10.1333 16.4265 10.1344 16.4233 10.1349 16.4199V16.4185ZM15.9239 7.77601C15.9425 7.75653 15.9694 7.7399 15.9508 7.70617C15.9209 7.71472 15.9146 7.7399 15.9018 7.76128L15.8646 7.81354C15.8489 7.83492 15.8239 7.85107 15.8234 7.88242C15.8661 7.89002 15.87 7.85677 15.8827 7.83491L15.9239 7.77601ZM10.5529 12.1048L10.5612 12.1148C10.5612 12.1148 10.5612 12.1096 10.5612 12.1086C10.5587 12.107 10.5559 12.1058 10.5529 12.1053C10.5486 12.0945 10.5403 12.0855 10.5296 12.0802C10.519 12.0748 10.5067 12.0735 10.4951 12.0763C10.5107 12.1044 10.5294 12.111 10.5529 12.1048ZM16.0635 7.56508L16.1037 7.50712C16.1204 7.48716 16.1478 7.47006 16.1287 7.43633C16.1071 7.44807 16.0911 7.4675 16.0841 7.49049C16.0709 7.50997 16.0581 7.52992 16.0454 7.5494C16.0385 7.55842 16.0263 7.5684 16.0395 7.57838C16.0527 7.58835 16.0576 7.57315 16.0635 7.56508ZM16.1718 7.36175C16.1542 7.38027 16.1262 7.39595 16.1439 7.42968C16.1547 7.42424 16.1641 7.4165 16.1714 7.40704C16.1787 7.39758 16.1837 7.38664 16.186 7.37505L16.2002 7.35082C16.2125 7.3435 16.2217 7.33208 16.2259 7.31869C16.2301 7.30531 16.2292 7.29089 16.2232 7.27813C16.209 7.30094 16.1978 7.31946 16.187 7.33799L16.1718 7.36175ZM13.0218 11.5899C13.0715 11.5375 13.1054 11.4729 13.1198 11.4032C13.0652 11.4503 13.0245 11.5106 13.0017 11.578C12.9939 11.5846 12.99 11.5941 13.0017 11.5998C13.0135 11.6055 13.015 11.5941 13.0218 11.5903V11.5899ZM14.6676 8.96653C14.7211 8.92051 14.7703 8.86995 14.8146 8.81546C14.846 8.76795 14.9062 8.72852 14.8803 8.65821L14.892 8.68054C14.8964 8.67674 14.9043 8.67294 14.9048 8.66914C14.9048 8.64729 14.8852 8.66914 14.8798 8.65821C14.8224 8.76843 14.7264 8.85109 14.6578 8.95371C14.648 8.96083 14.6362 8.97223 14.648 8.98173C14.6598 8.99124 14.6656 8.97983 14.6676 8.96701V8.96653ZM10.6381 15.1757L10.6156 15.1638C10.4578 15.4147 10.2236 15.6204 10.1501 15.9211L10.6381 15.1757ZM13.523 8.03729C13.6778 7.99938 13.8262 7.94052 13.964 7.86247C13.9802 7.85439 13.9915 7.84489 13.9851 7.82589C13.9787 7.80689 13.9645 7.79786 13.9474 7.80879C13.8116 7.8943 13.6455 7.92898 13.523 8.03729ZM16.5398 9.29718C16.6329 9.21737 16.7211 8.96463 16.6755 8.9005L16.5398 9.29718ZM12.8263 12.5182L12.8057 12.5063L12.7352 12.6193L12.7528 12.6293L12.8263 12.5182ZM9.84831 16.9192C9.87149 16.9012 9.88987 16.878 9.9019 16.8516C9.91392 16.8252 9.91923 16.7964 9.91739 16.7677C9.88143 16.8117 9.85765 16.8638 9.84831 16.9192ZM13.7136 14.2935C13.6769 14.2716 13.6504 14.2503 13.6181 14.2764C13.6137 14.2797 13.6152 14.2978 13.6181 14.3025C13.648 14.3296 13.6764 14.3187 13.7122 14.2935H13.7136ZM10.3329 12.0046L10.4598 12.0664C10.4509 12.0421 10.4326 12.0222 10.4089 12.0107C10.3851 11.9992 10.3577 11.997 10.3324 12.0046H10.3329ZM13.3481 11.0758C13.3303 11.0889 13.3154 11.1054 13.3044 11.1242C13.2935 11.1431 13.2867 11.164 13.2844 11.1856C13.3231 11.1485 13.3501 11.1305 13.3476 11.0758H13.3481ZM10.0619 16.5425C10.0938 16.5173 10.1109 16.4978 10.105 16.4641C10.0901 16.4709 10.0779 16.4823 10.0701 16.4964C10.0624 16.5105 10.0595 16.5267 10.0619 16.5425ZM9.98305 16.6688C10.0213 16.6456 10.0423 16.6256 10.0286 16.5876C10.0137 16.5954 10.0015 16.6072 9.99336 16.6217C9.98527 16.6361 9.98169 16.6525 9.98305 16.6688ZM9.82969 16.9425C9.8243 16.9468 9.81695 16.9491 9.8145 16.9539C9.81205 16.9586 9.78853 16.9857 9.8145 16.9876C9.83214 16.9895 9.84096 16.9639 9.82969 16.9425ZM13.1566 11.3842C13.1531 11.3775 13.1536 11.3633 13.1414 11.3694C13.1307 11.3757 13.1223 11.385 13.1174 11.396C13.1149 11.4008 13.1247 11.4169 13.1262 11.4165C13.1343 11.4152 13.1418 11.4112 13.1473 11.4053C13.1528 11.3993 13.1561 11.3917 13.1566 11.3837V11.3842ZM10.6891 15.5942C10.6891 15.5809 10.6891 15.5695 10.6773 15.5724C10.673 15.574 10.669 15.5765 10.6657 15.5797C10.6625 15.5829 10.6599 15.5867 10.6582 15.5909C10.6553 15.5976 10.6607 15.6066 10.6621 15.6147L10.6891 15.5942ZM16.04 7.62493C16.0327 7.60451 16.0346 7.58978 16.0214 7.59643C16.011 7.60291 16.0029 7.61238 15.9984 7.62351C15.9984 7.62921 15.9984 7.64346 16.0116 7.63919C16.0216 7.63545 16.0311 7.63067 16.04 7.62493ZM10.741 15.5035L10.7322 15.4883C10.7268 15.4911 10.7195 15.493 10.7175 15.4973C10.7155 15.5016 10.7141 15.5154 10.7278 15.513C10.7327 15.5111 10.7371 15.5064 10.741 15.5035ZM15.9993 7.67244L15.9856 7.64821C15.976 7.65572 15.9676 7.66452 15.9606 7.67434C15.9577 7.67909 15.9655 7.68907 15.9685 7.69667L15.9993 7.67244ZM13.3878 11.0388C13.3805 11.0388 13.3746 11.0331 13.3716 11.0345C13.367 11.0378 13.3636 11.0425 13.3618 11.0478C13.3618 11.0478 13.3672 11.054 13.3707 11.0573L13.3878 11.0388ZM13.182 11.3471C13.1899 11.3305 13.182 11.3234 13.1732 11.3238C13.1693 11.3249 13.1656 11.3268 13.1626 11.3295C13.1595 11.3321 13.1571 11.3354 13.1556 11.339C13.1556 11.3443 13.1619 11.3519 13.1659 11.3585L13.182 11.3471ZM10.1099 15.9463L10.1188 15.9439V15.951L10.1099 15.9463ZM15.2546 7.3722L15.2492 7.36602L15.2433 7.37172L15.2521 7.37695L15.2546 7.3722ZM10.6979 15.5377C10.6979 15.5401 10.6945 15.5425 10.695 15.5439C10.6955 15.5453 10.7028 15.5529 10.7062 15.5439C10.7097 15.5349 10.7062 15.5391 10.7038 15.5377C10.7013 15.5363 10.7008 15.5396 10.6989 15.5391L10.6979 15.5377ZM10.5774 15.7277C10.5774 15.7301 10.573 15.733 10.5739 15.7344C10.5774 15.7434 10.5823 15.7439 10.5867 15.7344C10.5867 15.7344 10.5867 15.7296 10.5837 15.7277C10.5808 15.7258 10.5803 15.7311 10.5784 15.7306L10.5774 15.7277ZM10.0502 16.5591C10.0502 16.5591 10.0453 16.5558 10.0443 16.5563C10.0433 16.5567 10.0399 16.5601 10.0374 16.562L10.0497 16.5658C10.0501 16.5645 10.0506 16.5632 10.0512 16.562L10.0502 16.5591Z" fill="#020202"/>
<path d="M16.042 8.52474C16.0395 8.54421 16.0376 8.55989 16.018 8.56179C16.015 8.56179 16.0062 8.54802 16.0082 8.54231C16.0129 8.53093 16.019 8.52009 16.0263 8.51001L16.042 8.52474Z" fill="#5F5F5F"/>
<path d="M10.6381 15.1759L10.1482 15.9213C10.2231 15.6206 10.4559 15.4149 10.6136 15.1641L10.6381 15.1759Z" fill="#F8F2EA"/>
<path d="M13.523 8.03734C13.648 7.92902 13.8141 7.89481 13.9518 7.80883C13.9689 7.7979 13.9831 7.80883 13.9895 7.82593C13.9959 7.84303 13.9846 7.85443 13.9684 7.86251C13.8293 7.94093 13.6793 7.9998 13.523 8.03734Z" fill="#F8F2EA"/>
<path d="M16.5373 9.29732L16.673 8.90063C16.7186 8.96382 16.6304 9.21751 16.5373 9.29732Z" fill="#F8F2EA"/>
<path d="M14.8783 8.65845C14.9043 8.72923 14.844 8.77009 14.8126 8.81617C14.7684 8.87066 14.7192 8.92122 14.6656 8.96724L14.6539 8.95442C14.7225 8.8518 14.8185 8.76914 14.8758 8.65892L14.8783 8.65845Z" fill="#F8F2EA"/>
<path d="M13.0022 11.5786C13.0253 11.5113 13.0662 11.4511 13.1208 11.4038C13.1064 11.4736 13.0725 11.5381 13.0228 11.5905L13.0022 11.5786Z" fill="#5F5F5F"/>
<path d="M12.8263 12.5182L12.7528 12.6294L12.7352 12.6194L12.8057 12.5063L12.8263 12.5182Z" fill="#F8F2EA"/>
<path d="M9.8483 16.9194C9.85765 16.864 9.88143 16.8118 9.91739 16.7678C9.91923 16.7966 9.91392 16.8254 9.90189 16.8518C9.88987 16.8781 9.87149 16.9013 9.8483 16.9194Z" fill="#5F5F5F"/>
<path d="M13.7122 14.2935C13.6764 14.3187 13.648 14.3296 13.6191 14.3026C13.6137 14.2978 13.6122 14.2798 13.6191 14.2764C13.649 14.2503 13.6754 14.2717 13.7122 14.2935Z" fill="#5F5F5F"/>
<path d="M10.3324 12.0048C10.3577 11.9974 10.385 11.9996 10.4086 12.0111C10.4322 12.0226 10.4504 12.0425 10.4593 12.0666L10.3324 12.0048Z" fill="#5F5F5F"/>
<path d="M12.645 12.7633C12.6705 12.7239 12.694 12.6845 12.722 12.645L12.7352 12.6521C12.7107 12.6916 12.6862 12.7305 12.6607 12.7695L12.645 12.7633Z" fill="#F8F2EA"/>
<path d="M13.3476 11.0759C13.3501 11.1306 13.3231 11.1486 13.2839 11.1857C13.2862 11.1641 13.293 11.1432 13.3039 11.1243C13.3149 11.1054 13.3298 11.089 13.3476 11.0759Z" fill="#5F5F5F"/>
<path d="M10.0619 16.5425C10.0595 16.5267 10.0624 16.5105 10.0701 16.4964C10.0779 16.4823 10.0901 16.471 10.1051 16.4641C10.1119 16.4978 10.0933 16.5173 10.0619 16.5425Z" fill="#5F5F5F"/>
<path d="M9.98305 16.6689C9.98169 16.6525 9.98527 16.6361 9.99336 16.6217C10.0015 16.6073 10.0137 16.5954 10.0286 16.5876C10.0443 16.6257 10.0213 16.6456 9.98305 16.6689Z" fill="#5F5F5F"/>
<path d="M16.187 7.33989L16.2232 7.28003C16.2292 7.29279 16.2301 7.30721 16.2259 7.32059C16.2217 7.33397 16.2125 7.3454 16.2002 7.35272L16.187 7.33989Z" fill="#5F5F5F"/>
<path d="M12.5794 12.8949C12.5771 12.8795 12.5791 12.8638 12.5851 12.8494C12.5911 12.8349 12.601 12.8223 12.6137 12.8127L12.6298 12.8275C12.6166 12.8526 12.6107 12.8831 12.5808 12.8954L12.5794 12.8949Z" fill="#5F5F5F"/>
<path d="M15.8842 7.83412C15.8715 7.85693 15.8675 7.89018 15.8249 7.88163C15.8249 7.85027 15.8504 7.83412 15.8661 7.81274L15.8842 7.83412Z" fill="#5F5F5F"/>
<path d="M16.186 7.37512C16.1837 7.38671 16.1787 7.39765 16.1714 7.40711C16.1641 7.41657 16.1547 7.42431 16.1439 7.42975C16.1262 7.39602 16.1542 7.38224 16.1718 7.36182L16.186 7.37512Z" fill="#5F5F5F"/>
<path d="M16.0836 7.49068C16.091 7.46775 16.1071 7.4484 16.1287 7.43652C16.1478 7.47025 16.1204 7.48736 16.1037 7.50731L16.0836 7.49068Z" fill="#5F5F5F"/>
<path d="M16.0454 7.54963C16.0581 7.53015 16.0709 7.5102 16.0841 7.49072L16.1037 7.50735L16.0635 7.56531L16.0454 7.54963Z" fill="#5F5F5F"/>
<path d="M10.5529 12.1049C10.5294 12.1111 10.5107 12.1049 10.4946 12.0764C10.5062 12.0736 10.5185 12.0749 10.5292 12.0803C10.5398 12.0856 10.5481 12.0945 10.5524 12.1054L10.5529 12.1049Z" fill="#5F5F5F"/>
<path d="M15.9028 7.76141C15.9146 7.74003 15.9209 7.7139 15.9518 7.7063C15.9704 7.74003 15.9435 7.75666 15.9249 7.77613L15.9028 7.76141Z" fill="#5F5F5F"/>
<path d="M15.9239 7.7762L15.8842 7.83416L15.8661 7.81373L15.9033 7.76147L15.9239 7.7762Z" fill="#5F5F5F"/>
<path d="M10.1365 16.4215C10.1351 16.4121 10.1364 16.4026 10.1403 16.3938C10.1441 16.3851 10.1504 16.3774 10.1584 16.3716C10.167 16.3991 10.1512 16.4096 10.1349 16.4191L10.1365 16.4215Z" fill="#5F5F5F"/>
<path d="M9.82969 16.9426C9.84096 16.964 9.82969 16.9901 9.81401 16.9878C9.78853 16.9878 9.80813 16.9659 9.81401 16.954C9.81989 16.9422 9.8243 16.9469 9.82969 16.9426Z" fill="#5F5F5F"/>
<path d="M13.1566 11.3843C13.156 11.3922 13.1527 11.3996 13.1471 11.4054C13.1416 11.4112 13.1342 11.415 13.1262 11.4162C13.1262 11.4162 13.1149 11.4005 13.1174 11.3957C13.1223 11.3847 13.1307 11.3754 13.1414 11.3691C13.1536 11.3629 13.1531 11.3782 13.1566 11.3843Z" fill="#5F5F5F"/>
<path d="M10.6891 15.5938L10.6621 15.6143C10.6621 15.6062 10.6553 15.5972 10.6582 15.5905C10.6599 15.5863 10.6625 15.5825 10.6657 15.5793C10.669 15.5761 10.673 15.5736 10.6773 15.572C10.6906 15.5691 10.6881 15.5805 10.6891 15.5938Z" fill="#5F5F5F"/>
<path d="M16.04 7.62496C16.0311 7.6307 16.0216 7.63548 16.0116 7.63921C15.9974 7.64349 15.9959 7.62924 15.9984 7.62354C16.0029 7.6124 16.011 7.60294 16.0214 7.59646C16.0346 7.58791 16.0327 7.60263 16.04 7.62496Z" fill="#5F5F5F"/>
<path d="M10.741 15.5037C10.7371 15.5066 10.7327 15.5128 10.7278 15.5132C10.7141 15.5132 10.7141 15.5052 10.7175 15.4976C10.7209 15.49 10.7268 15.4914 10.7322 15.4885L10.741 15.5037Z" fill="#5F5F5F"/>
<path d="M15.9993 7.67267L15.9685 7.69689C15.9655 7.68929 15.9577 7.67932 15.9606 7.67457C15.9676 7.66474 15.976 7.65594 15.9856 7.64844L15.9993 7.67267Z" fill="#5F5F5F"/>
<path d="M14.8778 8.65869C14.8832 8.66884 14.9038 8.64808 14.9028 8.6693C14.9028 8.67299 14.8945 8.67668 14.89 8.68037L14.8783 8.65869H14.8778Z" fill="#F8F2EA"/>
<path d="M14.6676 8.96717C14.6676 8.98 14.6598 8.9933 14.646 8.98238C14.6323 8.97145 14.646 8.96147 14.6558 8.95435L14.6676 8.96717Z" fill="#F8F2EA"/>
<path d="M13.3878 11.0401L13.3707 11.0581C13.3672 11.0549 13.3614 11.0512 13.3619 11.0489C13.3636 11.0437 13.367 11.0392 13.3717 11.0359C13.3761 11.0346 13.3805 11.0383 13.3878 11.0401Z" fill="#5F5F5F"/>
<path d="M13.1801 11.3487L13.1639 11.3601C13.16 11.3535 13.1521 11.3459 13.1536 11.3407C13.1552 11.337 13.1576 11.3337 13.1606 11.3311C13.1637 11.3285 13.1673 11.3265 13.1713 11.3255C13.1801 11.325 13.1899 11.3307 13.1801 11.3487Z" fill="#5F5F5F"/>
<path d="M10.6014 15.6799L10.6259 15.6443L10.643 15.659L10.618 15.6946L10.6014 15.6799Z" fill="#5F5F5F"/>
<path d="M10.1099 15.9481L10.118 15.9531L10.119 15.9456L10.1099 15.9481Z" fill="#F8F2EA"/>
<path d="M12.6264 12.7896L12.645 12.7634L12.6607 12.7696C12.6628 12.7763 12.6624 12.7835 12.6596 12.79C12.6567 12.7964 12.6515 12.8017 12.645 12.8048L12.6264 12.7896Z" fill="#5F5F5F"/>
<path d="M15.2552 7.37367L15.2527 7.37828L15.2438 7.37321L15.2498 7.36768L15.2552 7.37367Z" fill="#F8F2EA"/>
<path d="M12.5795 12.8955L12.5706 12.9094C12.5602 12.8969 12.5706 12.8955 12.5795 12.895V12.8955Z" fill="#5F5F5F"/>
<path d="M16.1718 7.36189L16.187 7.33813L16.2002 7.35096L16.186 7.37519L16.1718 7.36189Z" fill="#5F5F5F"/>
<path d="M13.0221 11.5906C13.0152 11.5945 13.0048 11.6026 13.0008 11.6007C12.9968 11.5988 12.9948 11.5853 13.0008 11.5786L13.0221 11.5906Z" fill="#5F5F5F"/>
<path d="M10.5524 12.1055C10.5555 12.106 10.5584 12.1071 10.561 12.1088C10.561 12.1088 10.561 12.1131 10.561 12.1151L10.5524 12.105V12.1055Z" fill="#5F5F5F"/>
<path d="M10.6989 15.5393C10.6989 15.5393 10.7039 15.5393 10.7049 15.5393C10.7059 15.5393 10.7084 15.5439 10.7074 15.5453C10.7064 15.5467 10.6989 15.5531 10.696 15.5453C10.693 15.5375 10.6979 15.5416 10.6989 15.5393Z" fill="#5F5F5F"/>
<path d="M10.6259 15.6442C10.6323 15.6389 10.643 15.628 10.6445 15.629C10.6582 15.6385 10.6514 15.6489 10.6445 15.6589L10.6259 15.6442Z" fill="#5F5F5F"/>
<path d="M10.618 15.6947C10.6117 15.6999 10.6009 15.7108 10.5994 15.7099C10.5857 15.6999 10.5931 15.6894 10.5994 15.6799L10.618 15.6947Z" fill="#5F5F5F"/>
<path d="M10.5784 15.7307C10.5784 15.7307 10.5834 15.7307 10.5849 15.7307C10.5863 15.7307 10.5883 15.736 10.5878 15.7374C10.5834 15.7466 10.5784 15.7461 10.5749 15.7374C10.5739 15.736 10.5769 15.7331 10.5784 15.7307Z" fill="#5F5F5F"/>
<path d="M10.135 16.4199C10.1344 16.4229 10.1332 16.4257 10.1316 16.4282C10.1316 16.4282 10.1281 16.4282 10.1261 16.4282L10.1365 16.4199H10.135Z" fill="#5F5F5F"/>
<path d="M16.0635 7.56524C16.0576 7.57331 16.0542 7.58994 16.0395 7.57854C16.0248 7.56714 16.0395 7.55859 16.0454 7.54956L16.0635 7.56524Z" fill="#5F5F5F"/>
<path d="M10.0508 16.562V16.5685L10.0384 16.5648C10.0409 16.5648 10.0424 16.5602 10.0454 16.5593C10.0483 16.5583 10.0493 16.5611 10.0508 16.562Z" fill="#5F5F5F"/>
<path d="M15.1982 7.40077C15.2041 7.39127 15.2105 7.37749 15.2232 7.38937C15.236 7.40124 15.2193 7.40647 15.2125 7.4136L15.1982 7.40077Z" fill="#F8F2EA"/>
<path d="M12.645 12.8033L12.6298 12.8261L12.6137 12.8114L12.6264 12.7881L12.645 12.8033Z" fill="#5F5F5F"/>
</svg>
