<svg width="17" height="20" viewBox="0 0 17 20" fill="none" xmlns="http://www.w3.org/2000/svg">
<path d="M14.1004 6.13129C13.9975 7.95528 13.7297 9.65285 12.453 11.0615C12.0617 11.4949 12.3706 11.7116 12.5766 11.9825C13.6062 13.3369 14.6564 14.6553 15.6861 16.0097C16.2833 16.7862 16.3245 17.6531 16.0773 18.5199C15.9126 19.0978 15.5831 19.5313 14.8212 19.6757C14.0592 19.8021 13.5444 19.6035 13.1531 19.0798C11.7116 17.1835 10.3525 15.2512 9.19931 13.1925C8.95219 12.759 8.72568 12.6326 8.14908 12.5965C5.57496 12.5062 3.33034 11.7838 1.45638 10.1043C-0.911803 7.97334 -0.211652 3.24181 2.2595 1.58036C3.86574 0.496804 5.61614 -0.0810939 7.55188 0.00920239C9.5082 0.0814394 11.238 0.803807 12.5971 2.14019C13.8121 3.31404 13.9769 4.75879 14.1004 6.13129Z" fill="black"/>
<path d="M14.9446 17.5087C14.8622 17.8518 14.8828 18.2311 14.4298 18.3394C14.0385 18.4478 13.9149 18.1046 13.7502 17.906C12.5146 16.2807 11.382 14.6192 10.373 12.8855C10.2494 12.6688 10.0023 12.4521 10.4347 12.3076C10.6818 12.2173 11.0113 11.9464 11.2379 12.2896C12.4117 13.8968 13.8943 15.3416 14.821 17.0933C14.9034 17.2378 14.924 17.3823 14.9446 17.5087Z" fill="#F8F2EA"/>
<path d="M2.5891 4.1991C2.07428 5.58966 2.13605 6.98022 2.81562 8.28049C3.90704 10.4295 6.43997 11.3867 8.84934 10.6643C11.1763 9.97806 12.659 7.55812 12.206 5.37295C11.9795 4.30745 11.3617 3.44061 10.5585 2.66406C11.8971 3.11554 12.2472 4.16298 12.4119 5.22848C12.5766 6.25786 12.5561 7.32335 12.2884 8.37078C11.9795 9.63493 11.1763 10.4476 9.79662 10.881C6.85183 11.8382 3.39221 10.6643 2.01249 8.20826C1.20936 6.76351 1.78598 5.46325 2.5891 4.1991Z" fill="#F8F2EA"/>
<path d="M10.1051 2.30277C9.98158 2.30277 9.81683 2.35695 9.71386 2.30277C7.03679 1.36369 4.85394 2.08606 2.97998 3.83781C3.37125 2.66396 4.50385 2.17635 5.61587 1.81517C7.18093 1.34563 8.70482 1.4901 10.1051 2.30277Z" fill="#F8F2EA"/>
<path d="M11.135 6.14939C11.1144 7.63025 10.0024 9.07499 8.45794 9.58065C6.91347 10.0863 5.34841 9.72513 4.1952 8.56933C3.41267 7.79279 3.12437 6.98011 3.598 5.93268C4.27757 4.4157 5.80145 3.31409 7.55184 3.20573C9.75528 3.06126 11.1556 4.21705 11.135 6.14939Z" fill="#F8F2EA"/>
</svg>
