<svg width="175" height="172" viewBox="0 0 175 172" fill="none" xmlns="http://www.w3.org/2000/svg">
<g filter="url(#filter0_d_2409_118294)">
<path d="M0.272217 81.9769C0.574101 61.189 7.55496 42.8857 21.6804 27.4029C33.1929 14.7866 47.4412 6.68292 64.0141 2.56064C69.1257 1.28951 74.3208 0.551264 79.5825 0.25427C90.4622 -0.361781 101.05 1.05021 111.318 4.72955C121.826 8.49543 131.111 14.2334 139.216 21.8704C146.113 28.3686 151.491 35.9581 155.86 44.3316C160.359 52.9563 163.283 62.0359 164.594 71.6534C165.183 75.9657 165.447 80.2968 165.304 84.6413C164.64 104.869 157.574 122.573 143.795 137.476C132.121 150.101 117.755 158.213 100.89 161.875C96.0531 162.926 91.1581 163.584 86.2017 163.693C64.0448 164.18 44.5076 157.296 27.8477 142.749C14.6177 131.195 6.22292 116.686 2.29672 99.6234C1.07895 94.3352 0.425717 88.969 0.350673 83.5382C0.34385 83.0461 0.302917 82.5556 0.273922 81.9786L0.272217 81.9769Z" fill="#060000"/>
<path d="M87.0359 155.579C75.5848 155.786 64.9045 153.912 54.6627 149.743C47.3151 146.752 40.4502 142.922 34.4756 137.664C24.6533 129.023 17.4712 118.568 12.9464 106.317C10.9696 100.968 9.64611 95.4571 8.94171 89.8057C8.24584 84.2358 8.03606 78.6421 8.80185 73.0739C9.83201 65.5863 12.039 58.4228 15.3376 51.6072C21.8426 38.1661 31.4398 27.4268 44.0916 19.4572C52.4693 14.1808 61.5872 10.6678 71.3601 8.88755C76.1715 8.01015 81.0238 7.59775 85.9119 7.64357C93.4846 7.71485 100.923 8.75688 108.113 11.1362C113.121 12.7926 117.784 15.233 122.198 18.1113C136.523 27.4539 146.683 40.1789 153.07 55.9297C155.842 62.764 157.568 69.863 158.258 77.2081C158.593 80.755 158.78 84.3105 158.48 87.8625C158.124 92.0816 157.271 96.2208 156.116 100.296C152.688 112.377 146.633 122.993 138.005 132.138C128.984 141.7 118.202 148.577 105.703 152.729C101.949 153.977 98.0333 154.595 94.1037 155.066C91.6238 155.363 89.1337 155.496 87.0359 155.581V155.579Z" fill="#F8F2EA"/>
<path d="M86.6996 147.986C76.4152 148.172 66.8231 146.488 57.6247 142.74C51.0258 140.052 44.8603 136.608 39.4945 131.882C30.6729 124.114 24.2225 114.716 20.1587 103.703C18.3833 98.8946 17.1947 93.941 16.562 88.8609C15.9371 83.8539 15.7487 78.8256 16.4364 73.8202C17.3616 67.0893 19.3438 60.6499 22.3062 54.5232C28.1485 42.4406 36.7679 32.7867 48.1307 25.6226C55.6549 20.8796 63.8438 17.7217 72.6209 16.1213C76.9421 15.3326 81.3001 14.9619 85.6902 15.0031C92.4913 15.0672 99.1715 16.0039 105.629 18.1427C110.127 19.6317 114.315 21.8255 118.279 24.4129C131.145 32.8112 140.269 44.2499 146.006 58.4088C148.495 64.5523 150.045 70.9338 150.666 77.5365C150.966 80.725 151.134 83.921 150.865 87.1141C150.545 90.9067 149.779 94.6275 148.742 98.2905C145.663 109.151 140.225 118.694 132.476 126.915C124.374 135.51 114.69 141.692 103.465 145.425C100.094 146.546 96.5766 147.101 93.0474 147.525C90.8202 147.792 88.5837 147.911 86.6996 147.988V147.986Z" fill="#181818"/>
<path d="M23.2017 32.5368C24.943 29.9266 26.913 27.4896 29.0176 25.168C30.1859 23.8798 31.576 22.8107 33.0069 21.6414C29.9096 25.5226 26.5463 29.0306 23.3466 32.6811C23.2204 32.7099 23.1539 32.6811 23.2017 32.5368Z" fill="#F8F2EA"/>
<path d="M132.456 24.1925C136.227 27.2489 139.65 30.65 142.689 34.4294C142.715 34.5533 142.679 34.6161 142.541 34.5703C139.292 30.9996 135.796 27.6732 132.296 24.3503C132.272 24.2213 132.316 24.1585 132.454 24.1925H132.456Z" fill="#F8F2EA"/>
<path d="M163.462 76.891C163.873 80.0646 164.088 83.2467 163.776 86.4406C163.66 87.6388 163.476 88.8301 163.323 90.0249C162.966 89.8586 163.203 89.5854 163.2 89.3546C163.389 86.388 163.563 83.4215 163.461 80.4464C163.421 79.3077 163.37 78.1689 163.323 77.0301C163.276 76.8927 163.336 76.8587 163.462 76.8893V76.891Z" fill="#F8F2EA"/>
<path d="M92.6622 158.006C90.9105 158.231 89.1606 158.464 87.4073 158.681C85.7598 158.886 84.1071 159.058 82.4612 159.285C82.0263 159.346 81.6118 159.278 81.1888 159.268C81.0643 159.265 80.8307 159.375 80.8597 159.095C80.8784 158.917 81.0251 158.847 81.2008 158.836C81.8284 158.795 82.4544 158.73 83.0837 158.708C85.9133 158.61 88.7223 158.287 91.5279 157.929C91.9015 157.882 92.2784 157.822 92.6622 158.004V158.006Z" fill="#F8F2EA"/>
<path d="M52.1175 13.6228C55.5013 11.7339 59.2007 10.6715 62.8762 9.5497C63.0228 9.50049 63.0587 9.56667 63.0331 9.69905C59.4002 10.9447 55.7827 12.2362 52.2591 13.767C52.1192 13.8077 52.0851 13.7484 52.1175 13.6228Z" fill="#F8F2EA"/>
<path d="M128.643 143.755C131.599 141.179 134.624 138.678 137.363 135.857C136.702 137.143 130.504 142.788 128.643 143.755Z" fill="#F8F2EA"/>
<path d="M141.865 27.2405C143.158 28.1858 148.123 33.9865 148.815 35.3051C146.318 32.7731 144.355 29.7827 141.865 27.2405Z" fill="#F8F2EA"/>
<path d="M129.04 19.3891C127.25 18.3539 125.46 17.317 123.67 16.2817C125.643 16.9996 127.73 17.5155 129.04 19.3891Z" fill="#F8F2EA"/>
<path d="M22.7923 36.8257C24.0186 35.0692 25.4035 33.4332 26.7782 31.7921C26.8737 31.6767 26.9555 31.4051 27.1824 31.5749C27.4331 31.7632 27.2114 31.9143 27.0852 32.0636C25.702 33.6996 24.3187 35.3373 22.9372 36.9751C22.8161 36.9954 22.7479 36.9632 22.794 36.8257H22.7923Z" fill="#F8F2EA"/>
<path d="M162.431 96.5319C162.075 98.8908 161.522 101.204 160.774 103.471C160.733 103.521 160.69 103.522 160.644 103.476C161.243 101.028 161.852 98.582 162.283 96.0957C162.605 96.1483 162.423 96.3723 162.431 96.5302V96.5319Z" fill="#F8F2EA"/>
<path d="M142.544 34.5701C142.593 34.5225 142.642 34.4767 142.692 34.4292C144.346 36.3198 145.789 38.3648 147.159 40.4641C147.205 40.5965 147.142 40.6186 147.029 40.5914C145.648 38.5006 144.08 36.5472 142.544 34.5701Z" fill="#F8F2EA"/>
<path d="M162.432 96.5313C162.365 96.3922 162.461 96.197 162.283 96.0969C162.589 93.8499 162.894 91.6029 163.199 89.356C163.285 89.5715 163.153 89.8261 163.322 90.0263C163.025 92.1952 162.729 94.3624 162.434 96.5313H162.432Z" fill="#F8F2EA"/>
<path d="M159.982 106.037C159.61 107.905 158.821 109.633 158.162 111.405C158.046 111.717 157.912 112.022 157.785 112.331C157.673 112.347 157.593 112.335 157.668 112.192C158.434 110.113 159.239 108.046 159.876 105.923C159.928 105.904 159.979 105.887 160.013 105.947C160.027 105.97 160.008 106.004 159.984 106.037H159.982Z" fill="#F8F2EA"/>
<path d="M161.153 60.8704C161.782 62.8169 162.388 64.7703 162.451 66.834C162.018 64.8467 161.586 62.8594 161.153 60.8704Z" fill="#F8F2EA"/>
<path d="M79.3824 6.09111C80.856 5.94855 82.3228 5.71774 83.8032 5.67871C83.81 5.76017 83.8185 5.83994 83.8254 5.9214C82.391 6.02662 80.9566 6.13184 79.5205 6.23706C79.3841 6.2727 79.3449 6.21669 79.3807 6.08941L79.3824 6.09111Z" fill="#F8F2EA"/>
<path d="M6.35848 81.8938V85.9041C6.28704 85.9041 6.21561 85.9007 6.14417 85.899C5.84142 84.4564 6.37208 83.041 6.35848 81.8938Z" fill="#F8F2EA"/>
<path d="M10.5568 57.3977C10.2873 58.1274 10.011 58.8572 9.75005 59.5903C9.68183 59.7821 9.59996 59.9366 9.37483 59.8466C9.08488 59.7295 9.3049 59.5632 9.36971 59.4308C9.70229 58.7486 10.0434 58.0731 10.3828 57.3943C10.4425 57.3383 10.5005 57.34 10.5585 57.3994L10.5568 57.3977Z" fill="#F8F2EA"/>
<path d="M66.6627 7.53013C65.3528 7.85428 64.0447 8.17843 62.7348 8.50427C63.9168 7.84749 65.2198 7.62008 66.5228 7.38927C66.6559 7.35194 66.6951 7.40624 66.6627 7.53183V7.53013Z" fill="#F8F2EA"/>
<path d="M9.32465 102.946C8.697 101.687 8.51962 100.302 8.33713 98.9175C8.6663 100.26 8.99547 101.604 9.32465 102.946Z" fill="#F8F2EA"/>
<path d="M22.7917 36.8252C22.8394 36.8744 22.8872 36.9253 22.9349 36.9745C22.3363 37.7942 21.7376 38.6156 21.139 39.4353C21.0878 39.4014 21.0383 39.3675 20.9872 39.3335C21.5654 38.4833 22.1146 37.6127 22.7917 36.8252Z" fill="#F8F2EA"/>
<path d="M33.679 140.763C34.4806 141.396 35.2822 142.029 36.0839 142.662C34.8303 142.087 34.0542 141.471 33.679 140.763Z" fill="#F8F2EA"/>
<path d="M96.0893 4.90292C95.1786 4.83504 94.2661 4.76545 93.2888 4.69248C94.2934 4.16977 95.1871 4.78412 96.1064 4.7366C96.0996 4.79091 96.0945 4.84692 96.0876 4.90122L96.0893 4.90292Z" fill="#F8F2EA"/>
<path d="M112.798 11.6931C113.851 11.8272 114.763 12.2294 115.594 12.8336C114.662 12.4534 113.73 12.0733 112.798 11.6931Z" fill="#F8F2EA"/>
<path d="M63.0331 9.69914C62.9803 9.64992 62.9291 9.59901 62.8762 9.54979C63.6403 9.20019 64.4573 9.04915 65.2606 8.85059C65.2777 8.90489 65.2947 8.9592 65.3118 9.01351C64.5511 9.24262 63.7921 9.47003 63.0314 9.69914H63.0331Z" fill="#F8F2EA"/>
<path d="M100.711 157.354C101.361 157.162 102.01 156.969 102.66 156.777C102.273 157.446 101.56 157.293 100.992 157.5C100.852 157.537 100.694 157.614 100.711 157.354Z" fill="#F8F2EA"/>
<path d="M88.1289 160.221C89.171 160.202 90.1995 159.908 91.2518 160.105C90.2097 160.124 89.1846 160.462 88.1289 160.221Z" fill="#F8F2EA"/>
<path d="M31.3359 136.658C31.9277 137.211 32.5212 137.766 33.1131 138.319C33.0755 138.358 33.0363 138.399 32.9988 138.438C32.3439 137.948 31.7708 137.374 31.3359 136.658Z" fill="#F8F2EA"/>
<path d="M34.9037 140.059C34.2743 139.63 33.7047 139.136 33.2237 138.543C33.882 138.935 34.4568 139.428 34.9992 139.961C35.0128 140.035 34.9804 140.069 34.9037 140.059Z" fill="#F8F2EA"/>
<path d="M12.7658 114.134C12.3497 113.457 12.0768 112.725 11.9693 111.926C12.2695 112.632 12.5697 113.339 12.8699 114.045C12.8699 114.115 12.8358 114.144 12.7675 114.135L12.7658 114.134Z" fill="#F8F2EA"/>
<path d="M132.457 24.1921C132.404 24.2447 132.351 24.2973 132.298 24.3499C131.891 23.9799 131.483 23.61 131.077 23.24C131.642 23.425 132.076 23.7729 132.459 24.1921H132.457Z" fill="#F8F2EA"/>
<path d="M147.029 40.5914C147.072 40.549 147.116 40.5065 147.159 40.4641C147.604 40.9563 147.909 41.5299 148.122 42.168C147.757 41.6419 147.394 41.1158 147.029 40.5914Z" fill="#F8F2EA"/>
<path d="M66.663 7.53044C66.6169 7.48292 66.5692 7.4354 66.5231 7.38788C67.1832 7.17065 67.8534 7.00434 68.5527 6.99585C68.5681 7.01282 68.5817 7.03149 68.5971 7.04846C67.9779 7.31321 67.3128 7.38788 66.663 7.52874V7.53044Z" fill="#F8F2EA"/>
<path d="M44.7893 146.849C45.2771 147.132 45.7666 147.416 46.2544 147.697C45.6626 147.602 45.1645 147.327 44.7893 146.849Z" fill="#F8F2EA"/>
<path d="M100.711 157.354C100.745 157.517 100.898 157.451 100.992 157.5C100.409 157.636 99.8274 157.773 99.2441 157.909C99.6909 157.587 100.196 157.454 100.711 157.354Z" fill="#F8F2EA"/>
<path d="M163.461 76.8908C163.415 76.9383 163.369 76.9842 163.322 77.0317C163.141 76.5378 163.191 76.0338 163.313 75.5229L163.461 76.8908Z" fill="#F8F2EA"/>
<path d="M36.9796 141.679C36.5294 141.413 36.1013 141.118 35.7431 140.734C35.7397 140.668 35.7738 140.644 35.8369 140.659C36.2838 140.853 36.601 141.218 36.9762 141.506C37.0359 141.562 37.0376 141.62 36.9796 141.679Z" fill="#F8F2EA"/>
<path d="M52.1178 13.6228C52.1655 13.6703 52.2116 13.7195 52.2593 13.767C51.8994 14.0165 51.5003 14.1727 51.0654 14.2405C51.3741 13.9571 51.7221 13.7501 52.1161 13.6211L52.1178 13.6228Z" fill="#F8F2EA"/>
<path d="M79.3826 6.09058C79.4286 6.13979 79.4764 6.18901 79.5224 6.23822C79.0739 6.46564 78.6065 6.35533 78.1324 6.2501C78.5485 6.19749 78.9664 6.14319 79.3826 6.09058Z" fill="#F8F2EA"/>
<path d="M10.5562 57.3978C10.4982 57.3978 10.4385 57.3944 10.3805 57.3927C10.5528 57.0143 10.725 56.6358 10.8973 56.259C10.8854 56.6799 10.8171 57.0736 10.5562 57.3978Z" fill="#F8F2EA"/>
<path d="M13.4285 50.0952C13.6349 49.676 13.8413 49.2551 14.0476 48.8359C14.0988 48.8597 14.1517 48.8835 14.2029 48.9072C14.0067 49.3315 13.8839 49.7897 13.4285 50.0952Z" fill="#F8F2EA"/>
<path d="M158.785 62.6283C158.685 62.2278 158.584 61.8273 158.483 61.4268C158.778 61.7238 158.905 62.0767 158.91 62.4705C158.975 62.6062 158.91 62.6419 158.784 62.6283H158.785Z" fill="#F8F2EA"/>
<path d="M157.667 112.192C157.706 112.238 157.745 112.286 157.784 112.332C157.658 112.686 157.516 113.032 157.175 113.409C157.302 112.907 157.453 112.539 157.667 112.192Z" fill="#F8F2EA"/>
<path d="M23.2013 32.5366C23.249 32.5841 23.2985 32.6334 23.3462 32.6809C23.1842 33.0474 22.8908 33.3071 22.5907 33.5685C22.7118 33.1747 22.9062 32.8268 23.2013 32.5366Z" fill="#F8F2EA"/>
<path d="M12.8675 114.046C13.0824 114.419 13.2854 114.794 13.3297 115.239C13.0705 114.906 12.859 114.551 12.7652 114.136C12.7993 114.105 12.8334 114.076 12.8675 114.046Z" fill="#F8F2EA"/>
<path d="M36.9793 141.68C36.9793 141.622 36.9776 141.564 36.9759 141.507C37.3136 141.7 37.6223 141.929 37.8559 142.258C37.5302 142.118 37.2027 141.982 36.9793 141.681V141.68Z" fill="#F8F2EA"/>
<path d="M157.699 58.1888C157.436 57.902 157.24 57.5915 157.31 57.0535C157.472 57.527 157.586 57.8579 157.699 58.1888Z" fill="#F8F2EA"/>
<path d="M158.785 62.6283C158.828 62.5757 158.869 62.5231 158.911 62.4705C159.081 62.7861 159.131 63.1272 159.078 63.4938C158.981 63.2053 158.882 62.9168 158.785 62.6283Z" fill="#F8F2EA"/>
<path d="M160.645 103.476C160.689 103.494 160.731 103.491 160.774 103.471C160.677 103.78 160.58 104.09 160.424 104.584C160.37 104.049 160.459 103.752 160.645 103.477V103.476Z" fill="#F8F2EA"/>
<path d="M68.5522 6.99717C68.9069 6.81897 69.2788 6.7409 69.816 6.80369C69.3197 6.90382 68.9803 7.07523 68.5965 7.04978C68.5812 7.0328 68.5675 7.01414 68.5522 6.99717Z" fill="#F8F2EA"/>
<path d="M35.7427 140.735C35.463 140.509 35.1833 140.285 34.9036 140.059C34.936 140.027 34.9667 139.993 34.9991 139.961C35.318 140.147 35.5995 140.378 35.8365 140.66C35.7956 140.672 35.7649 140.697 35.7427 140.735Z" fill="#F8F2EA"/>
<path d="M159.983 106.037C159.947 106 159.911 105.961 159.875 105.923C159.961 105.628 160.046 105.333 160.131 105.037C160.177 105.39 160.19 105.735 159.981 106.037H159.983Z" fill="#F8F2EA"/>
</g>
<path d="M51.6523 79.6072C51.6742 77.7201 51.7326 75.8354 51.7982 73.9507C51.8368 73.3002 52.0707 72.6764 52.4696 72.1607C55.7045 67.5849 60.9825 67.1672 65.1708 69.0932C67.0377 69.9734 68.611 71.3723 69.7021 73.1225C69.8878 73.4682 69.9768 73.8575 69.9599 74.2494C70.0669 76.1366 69.9186 78.0188 69.8626 79.9011C69.8116 81.6255 69.8091 83.3475 69.7702 85.0695C69.7702 85.4265 69.8991 85.497 70.2275 85.4921C70.5005 85.5012 70.7719 85.4474 71.0207 85.335C71.2696 85.2225 71.4891 85.0544 71.6625 84.8436C73.19 83.1022 75.1893 81.9291 76.9794 80.4962C79.3752 78.5872 81.7564 76.6684 83.4395 74.043C84.1558 72.9554 84.7319 71.7819 85.1542 70.5504C85.1827 70.4989 85.2005 70.4422 85.2067 70.3837C85.2129 70.3252 85.2073 70.2661 85.1903 70.2098C85.1733 70.1534 85.1452 70.1011 85.1077 70.0557C85.0702 70.0104 85.024 69.9729 84.9718 69.9457C81.1678 67.2279 79.2122 63.4245 78.7088 58.8778C78.142 53.7774 79.6476 49.26 83.0528 45.4177C85.3703 42.7709 88.5651 41.0464 92.0521 40.5602C94.4844 40.1837 96.8485 40.1521 99.2054 40.8686C102.299 41.8085 105.082 43.2585 107.139 45.8451C108.763 47.9009 109.784 50.3658 110.09 52.9662C110.71 57.7339 109.572 62.0644 106.741 65.9455C105.965 67.0147 105.034 67.9619 103.977 68.7556C103.586 69.0494 103.506 69.37 103.52 69.8315C103.6 72.5469 104.846 74.7934 106.366 76.9138C107.657 78.7183 109.27 80.246 110.844 81.8004C113.052 83.9863 115.273 86.1722 117.26 88.5523C119.605 91.377 121.538 94.4372 122.611 97.9929C123.669 101.597 124.367 105.297 124.693 109.039C124.919 111.468 123.963 113.231 121.915 114.453C119.534 115.866 116.963 116.934 114.281 117.625C112.092 118.193 109.917 118.812 107.687 119.203C103.372 119.969 99.0023 120.381 94.6206 120.435C90.6638 120.489 86.709 120.225 82.7949 119.643C78.5798 119.004 74.4693 117.979 70.551 116.264C70.1934 116.107 69.8091 116.009 69.4589 115.842C69.1524 115.694 69.1135 115.813 69.1038 116.085C69.0574 116.931 68.8467 117.76 68.4835 118.526C68.0107 119.517 67.2394 120.337 66.2775 120.869C63.3272 122.633 60.2479 122.97 57.0057 121.749C55.5263 121.231 54.1829 120.386 53.0752 119.279C52.0342 118.195 51.5818 116.872 51.4894 115.359C51.2899 112.075 51.324 108.801 51.3069 105.507C51.3069 105.095 51.1829 105.01 50.7913 105.005C47.4372 104.959 44.0929 104.619 40.7485 104.497C36.6477 104.347 34.0355 100.587 33.5223 97.4732C33.0917 94.8574 33.3252 92.3436 34.7189 90.0315C35.7754 88.3141 37.2919 86.926 39.097 86.024C39.6734 85.7228 40.2766 85.8491 40.8701 85.8491C44.2753 85.8491 47.6804 85.8572 51.0856 85.8734C51.5283 85.8734 51.701 85.7593 51.6912 85.2687C51.6256 83.3815 51.6523 81.4944 51.6523 79.6072ZM100.156 69.9869C100.199 71.4601 100.418 72.9229 100.808 74.3441C101.835 77.7177 103.868 80.399 106.5 82.6869C107.789 83.8041 109.134 84.8728 110.294 86.1236C111.972 87.9476 113.339 90.0096 114.684 92.0789C115.701 93.6299 116.601 95.2534 117.379 96.9364C119.61 101.825 120.741 106.994 121.38 112.291C121.417 112.699 121.605 113.078 121.908 113.355C122.314 113.726 122.738 113.685 123.088 113.267C123.339 112.965 123.495 112.596 123.538 112.206C123.698 111.063 123.757 109.908 123.713 108.755C123.58 107.056 123.341 105.367 122.998 103.698C122.433 100.528 121.404 97.4588 119.945 94.5878C118.306 91.394 116.041 88.6422 113.653 85.9973C111.59 83.7143 109.275 81.6984 106.957 79.6655C105.323 78.2253 104.014 76.5567 103.238 74.4971C102.552 72.6829 102.392 70.803 102.416 68.8916C102.419 68.804 102.444 68.7186 102.49 68.644C102.537 68.5694 102.601 68.5082 102.679 68.4665C106.721 65.3723 108.847 61.2337 109.168 56.2062C109.542 50.3626 106.526 45.5197 101.188 43.0909C97.802 41.5584 94.3336 41.5317 90.7849 42.4473C83.3422 44.3733 79.0882 51.2491 79.8398 57.8189C80.3627 62.3995 82.4544 66.1009 86.2317 68.8041C86.3492 68.8684 86.445 68.9658 86.5073 69.0842C86.5696 69.2025 86.5956 69.3366 86.582 69.4696C86.5067 71.4524 85.7841 73.3562 84.5243 74.8906C82.8995 76.853 81.0024 78.5337 79.0298 80.1416C76.5781 82.1307 74.1361 84.1247 72.0127 86.4782C71.9614 86.5492 71.8948 86.6079 71.8177 86.65C71.7407 86.692 71.6553 86.7163 71.5676 86.7211C70.7212 86.7211 69.8651 86.7405 69.0284 86.7599C68.8095 86.7599 68.7073 86.7186 68.7195 86.466C68.7462 85.9147 68.7389 85.361 68.7438 84.8072C68.7803 81.5235 68.8241 78.2496 68.8435 74.9537C68.8435 74.5093 68.897 74.0478 68.6806 73.6131C68.3008 72.8009 67.771 72.0676 67.119 71.4515C64.66 69.2097 61.7875 68.588 58.5891 69.3239C56.349 69.8388 54.4786 70.9269 53.2381 72.9403C52.9785 73.2972 52.8174 73.716 52.7712 74.1547C52.7355 76.2191 52.7168 78.2828 52.7152 80.3456C52.7152 82.41 52.7371 84.4745 52.759 86.5389C52.759 86.7672 52.6982 86.8449 52.455 86.8352C52.0001 86.8158 51.5429 86.8352 51.088 86.8352C48.5633 86.8085 46.0411 86.9299 43.5164 86.8522C42.5435 86.8206 41.5317 86.7065 40.5977 86.9008C39.2582 87.1621 38.0482 87.8724 37.1682 88.9142C35.434 90.9641 34.7019 93.3394 34.736 95.9868C34.7724 98.1994 35.3756 100.223 36.8617 101.913C37.7665 102.938 38.8611 103.722 40.245 103.878C41.5657 104.026 42.9205 104.045 44.2412 104.065C46.7173 104.099 49.1933 104.092 51.6669 104.101C52.309 104.101 52.2774 104.101 52.2871 104.718C52.3431 108.376 52.0901 112.034 52.2677 115.691C52.2596 115.968 52.3024 116.244 52.3942 116.505C53.0108 117.934 54.0728 119.127 55.4223 119.905C57.2532 120.961 59.3701 121.416 61.4738 121.205C63.3174 121.035 65.0127 120.476 66.4356 119.262C67.5885 118.275 68.4519 117.076 68.4373 115.492C68.4008 111.769 68.4617 108.046 68.486 104.32C68.486 103.982 68.6027 103.919 68.9116 103.934C69.6924 103.97 70.4731 103.973 71.2563 103.985C74.175 104.026 77.1181 104.082 80.0489 103.985C80.8029 103.96 81.6177 104.111 82.3231 103.628C82.7479 103.356 83.1505 103.052 83.5271 102.717C86.599 99.7829 87.4187 94.838 85.4729 91.0175C84.5948 89.281 83.2206 88.0229 81.6858 86.9032C81.5555 86.8069 81.398 86.7542 81.2359 86.7526C79.9492 86.7186 78.665 86.6676 77.3783 86.6361C76.7873 86.6191 76.1938 86.6361 75.4933 86.6361C76.0162 86.1867 76.4419 85.7933 76.8943 85.4217C79.2244 83.5443 81.6348 81.764 83.8457 79.7433C85.5677 78.1743 87.0611 76.428 87.8735 74.196C88.3371 72.872 88.4967 71.4609 88.3405 70.0671C93.8617 71.7478 94.8152 71.7405 100.156 69.9869Z" fill="#F8F2EA"/>
<path d="M100.155 69.9876C94.8042 71.7412 93.8604 71.7485 88.366 70.0872C88.5222 71.4811 88.3626 72.8922 87.899 74.2161C87.0866 76.4481 85.5932 78.1944 83.8712 79.7634C81.6602 81.7841 79.2499 83.5644 76.9198 85.4418C76.4674 85.8037 76.0417 86.1971 75.5188 86.6562C76.2193 86.6562 76.8128 86.644 77.4038 86.6562C78.6905 86.6877 79.9747 86.7388 81.2613 86.7728C81.4235 86.7743 81.581 86.827 81.7113 86.9233C83.2461 88.043 84.63 89.3011 85.4983 91.0376C87.4441 94.8581 86.6196 99.803 83.5525 102.737C83.1746 103.074 82.7703 103.38 82.3437 103.653C81.6383 104.138 80.8235 103.985 80.0695 104.01C77.1508 104.102 74.2078 104.046 71.2769 104.01C70.4937 103.997 69.713 103.995 68.9322 103.959C68.6233 103.944 68.509 104.007 68.5066 104.345C68.4823 108.068 68.4215 111.791 68.4579 115.517C68.4725 117.103 67.6091 118.3 66.4562 119.286C65.0333 120.501 63.338 121.064 61.4944 121.229C59.3902 121.439 57.2732 120.983 55.4429 119.925C54.0934 119.147 53.0314 117.954 52.4148 116.525C52.323 116.264 52.2802 115.988 52.2883 115.711C52.1107 112.054 52.3637 108.396 52.3078 104.738C52.3078 104.124 52.3296 104.124 51.6875 104.121C49.2139 104.121 46.7379 104.121 44.2618 104.085C42.929 104.065 41.5864 104.046 40.2656 103.898C38.8817 103.742 37.7872 102.958 36.8824 101.933C35.3963 100.233 34.7931 98.2195 34.7566 96.0069C34.7128 93.3595 35.4449 90.9842 37.1888 88.9343C38.0688 87.8925 39.2788 87.1822 40.6183 86.9209C41.5572 86.7266 42.5641 86.8408 43.537 86.8723C46.0617 86.9501 48.584 86.8286 51.1086 86.8553C51.5635 86.8553 52.0207 86.831 52.4756 86.8553C52.7188 86.8553 52.782 86.7873 52.7796 86.559C52.7577 84.4946 52.7334 82.4301 52.7358 80.3657C52.7383 78.3013 52.7553 76.2368 52.7918 74.1748C52.838 73.7361 52.9991 73.3173 53.2588 72.9604C54.4895 70.947 56.3599 69.8589 58.6097 69.344C61.8082 68.6154 64.6904 69.2299 67.1397 71.4716C67.7916 72.0877 68.3214 72.821 68.7012 73.6332C68.9176 74.0679 68.8666 74.5294 68.8641 74.9739C68.8447 78.26 68.8009 81.5436 68.7644 84.8273C68.7644 85.3811 68.7644 85.9348 68.7401 86.4862C68.7279 86.729 68.8301 86.7873 69.049 86.78C69.8954 86.7606 70.7516 86.746 71.5883 86.7412C71.6759 86.7364 71.7613 86.7121 71.8384 86.6701C71.9154 86.6281 71.982 86.5694 72.0334 86.4983C74.1567 84.1448 76.5987 82.1508 79.0504 80.1617C81.023 78.5636 82.9202 76.8731 84.5449 74.9107C85.8047 73.3763 86.5274 71.4725 86.6026 69.4897C86.6162 69.3567 86.5902 69.2226 86.5279 69.1043C86.4656 68.9859 86.3698 68.8885 86.2523 68.8243C82.475 66.1211 80.3833 62.4196 79.8604 57.839C79.1088 51.2814 83.3628 44.3934 90.8055 42.4674C94.3469 41.5518 97.8153 41.5785 101.201 43.111C106.552 45.5276 109.556 50.3754 109.181 56.2263C108.86 61.2538 106.734 65.3924 102.692 68.4867C102.615 68.5283 102.55 68.5895 102.504 68.6641C102.458 68.7387 102.432 68.8241 102.429 68.9117C102.405 70.8231 102.566 72.703 103.251 74.5173C104.027 76.5768 105.336 78.2454 106.97 79.6856C109.276 81.7185 111.604 83.7344 113.666 86.0174C116.055 88.6623 118.319 91.4141 119.959 94.6079C121.418 97.4789 122.446 100.548 123.011 103.718C123.349 105.38 123.583 107.062 123.712 108.753C123.755 109.906 123.697 111.061 123.536 112.204C123.494 112.594 123.337 112.963 123.086 113.266C122.736 113.683 122.313 113.725 121.907 113.353C121.604 113.077 121.416 112.697 121.379 112.289C120.739 106.992 119.608 101.824 117.378 96.9347C116.6 95.2517 115.699 93.6281 114.683 92.0772C113.338 90.003 111.971 87.9483 110.293 86.1218C109.133 84.8662 107.788 83.8024 106.498 82.6852C103.867 80.3973 101.833 77.7159 100.807 74.3424C100.417 72.9219 100.198 71.46 100.155 69.9876ZM85.6224 75.0443C85.5908 75.0443 85.5543 74.969 85.5275 75.0443C85.5154 75.0759 85.5275 75.1172 85.5275 75.1536C85.4911 75.1536 85.44 75.0977 85.4254 75.173C85.4254 75.2046 85.4473 75.2435 85.4594 75.2799C85.2892 75.122 85.2819 75.3989 85.1676 75.3892L85.0727 75.4742C85.0727 75.5422 85.0241 75.5665 84.9681 75.5786C84.9688 75.5914 84.9668 75.6041 84.9623 75.616C84.9578 75.6279 84.9509 75.6388 84.942 75.6479C84.9331 75.6571 84.9224 75.6643 84.9105 75.669C84.8987 75.6738 84.886 75.6761 84.8733 75.6758L84.8149 75.8142C84.8021 75.8145 84.7895 75.8174 84.7779 75.8228C84.7663 75.8282 84.7559 75.8359 84.7474 75.8455C84.739 75.8551 84.7326 75.8663 84.7287 75.8785C84.7248 75.8907 84.7235 75.9035 84.7249 75.9162C84.7117 75.914 84.6982 75.9148 84.6853 75.9185C84.6725 75.9222 84.6606 75.9287 84.6506 75.9375C84.6406 75.9464 84.6327 75.9573 84.6274 75.9696C84.6222 75.9819 84.6198 75.9952 84.6203 76.0085C84.2406 76.28 83.8923 76.5928 83.5817 76.9412L83.5039 77.014L83.319 77.1549C83.2971 77.1986 83.2801 77.2496 83.2145 77.218C83.2339 77.303 83.1731 77.32 83.1123 77.337V77.4561L83.1561 77.4415C83.1366 77.4075 83.1196 77.371 83.1026 77.337C83.1536 77.3638 83.212 77.4099 83.2461 77.337C83.2582 77.3103 83.2193 77.2642 83.2047 77.2277C83.2436 77.2496 83.2436 77.3492 83.3263 77.2836C83.409 77.218 83.3044 77.201 83.2971 77.1573C83.4261 77.3613 83.4771 77.1889 83.5404 77.1063L83.6401 77.0092C84.0118 76.735 84.3527 76.4215 84.6568 76.0741C84.6981 76.0279 84.7808 75.9939 84.6981 75.9186C84.7346 75.9186 84.7784 75.9186 84.8076 75.9065C84.8757 75.8652 84.793 75.8458 84.7881 75.8142C84.827 75.8142 84.8684 75.8628 84.9049 75.7924C84.9414 75.7219 84.8733 75.7219 84.8562 75.6879C84.9024 75.7195 84.9535 75.7705 84.9924 75.6879C84.9924 75.6661 84.9657 75.6223 84.9511 75.5883C84.9876 75.6005 85.0362 75.6345 85.0605 75.6223C85.1384 75.5811 85.0922 75.5276 85.0605 75.4815C85.0946 75.4985 85.1408 75.5373 85.1603 75.5276C85.243 75.4815 85.1822 75.4378 85.1457 75.3965C85.3305 75.5738 85.3281 75.2993 85.4278 75.2775C85.4546 75.2362 85.4789 75.1949 85.5032 75.1536C85.5164 75.1543 85.5296 75.152 85.5418 75.1467C85.5539 75.1414 85.5647 75.1334 85.5732 75.1233C85.5817 75.1131 85.5877 75.1012 85.5908 75.0883C85.5938 75.0754 85.5938 75.062 85.5908 75.0492L85.6735 74.9641C85.6467 74.9641 85.6127 74.9447 85.5981 74.9641C85.564 74.9739 85.5932 75.0103 85.6224 75.0443ZM81.9424 78.294L81.7429 78.4106C81.7429 78.4761 81.7137 78.5028 81.6505 78.4883V78.6364C81.6675 78.6364 81.687 78.6364 81.6967 78.6364C81.7867 78.566 81.6651 78.5417 81.6627 78.4931C81.7065 78.5296 81.7527 78.5878 81.8037 78.5077C81.8037 78.5077 81.7697 78.447 81.7502 78.4154C81.8816 78.6146 81.9375 78.447 82.0105 78.3644C82.0235 78.3657 82.0366 78.3645 82.049 78.3606C82.0615 78.3568 82.0731 78.3505 82.0831 78.3421C82.093 78.3337 82.1012 78.3234 82.1072 78.3118C82.1131 78.3002 82.1166 78.2875 82.1175 78.2745C82.3386 78.1715 82.5326 78.0185 82.6842 77.8276C82.368 77.8034 82.2172 78.0195 82.0543 78.2138L81.9424 78.294ZM86.0407 74.408L85.7975 74.7456C85.7694 74.7701 85.7434 74.7969 85.7197 74.8257C85.7805 74.9059 85.8121 74.8257 85.8559 74.7966C85.9288 74.68 86.0724 74.6096 86.0991 74.4541C86.2061 74.3934 86.3059 74.3302 86.2475 74.1481L86.0407 74.408ZM37.8091 101.396C37.8651 101.533 37.9699 101.645 38.1034 101.71C38.1204 101.515 37.9501 101.447 37.8601 101.323C37.691 101.018 37.4638 100.748 37.1913 100.529C37.381 100.84 37.5172 101.175 37.8091 101.396ZM44.9599 89.6678C45.6142 89.6678 46.2685 89.731 46.9203 89.5221H44.9502C44.2335 89.4273 43.5065 89.4445 42.7952 89.5731C43.5114 89.6811 44.237 89.7128 44.9599 89.6678ZM83.0758 92.7936C83.1391 93.1777 83.2657 93.5487 83.4504 93.8914C83.4712 93.5277 83.4062 93.1641 83.2607 92.8301C82.9931 92.1014 82.8958 91.2951 82.2659 90.7535C82.5817 91.4145 82.8523 92.0961 83.0758 92.7936ZM72.8068 99.7666V99.8419C75.2002 99.8419 77.5935 99.8152 79.9868 99.8589C80.276 99.877 80.5652 99.8243 80.8293 99.7054C81.0934 99.5864 81.3244 99.4048 81.5021 99.1764C83.7082 96.6044 82.9493 92.1889 80.0039 90.513C79.7621 90.347 79.4775 90.2542 79.1842 90.2459C77.1849 90.309 75.1856 90.3965 73.1838 90.4159C70.664 90.445 68.1466 90.6102 65.6219 90.4863C65.279 90.4693 65.1793 90.36 65.1841 90.0443C65.1841 89.3788 65.0795 88.7182 65.099 88.0478C65.223 83.8558 65.4225 79.6638 65.4809 75.4669C65.5084 75.1898 65.454 74.9107 65.3243 74.6642C65.1946 74.4177 64.9953 74.2146 64.7512 74.0801C62.3676 72.5451 58.347 72.7564 56.085 74.5658C56.0097 74.6254 55.9512 74.7035 55.9154 74.7925C55.8796 74.8816 55.8676 74.9784 55.8807 75.0734C55.8929 77.2593 55.8978 79.4282 55.9099 81.6068C55.9261 84.4824 55.9488 87.3581 55.978 90.2337C55.978 90.5786 55.8759 90.6588 55.5354 90.6539C51.1403 90.6029 46.7452 90.5689 42.3525 90.5203C42.1114 90.5141 41.8756 90.5923 41.6861 90.7413C40.9126 91.2975 40.521 92.1184 40.1075 92.9272C39.2927 94.5375 39.1784 97.163 40.7229 98.8145C41.3018 99.4338 41.939 99.8103 42.8536 99.786C45.0426 99.7423 47.2097 99.786 49.389 99.786C50.8654 99.786 52.3442 99.7642 53.823 99.7642C54.4165 99.7642 55.0003 99.6111 55.5986 99.6452C55.871 99.6597 55.9829 99.7423 55.9683 100.012C55.9488 100.383 55.9294 100.758 55.9294 101.129C55.9294 102.883 55.9586 104.636 55.9294 106.392C55.8856 109.307 55.9002 112.243 55.8807 115.167C55.8786 115.394 55.966 115.612 56.124 115.775C56.7588 116.518 57.6052 116.931 58.4857 117.275C59.2154 117.562 59.945 117.851 60.7866 117.73C61.6865 117.598 62.5622 117.407 63.3162 116.911C63.9607 116.486 64.6442 116.124 64.6442 115.09C64.6442 110.259 64.7244 105.43 64.7828 100.6C64.7828 99.769 64.8047 99.7739 65.6317 99.7739L72.8068 99.7666ZM107.036 55.709C107.011 53.6641 106.432 51.6642 105.36 49.9213C102.5 45.2799 97.2291 43.2033 91.9827 44.7699C86.8872 46.2903 83.0734 50.2929 82.9201 56.3016C82.8253 60.1269 84.2749 63.396 87.1693 65.9243C90.1756 68.5498 93.7145 69.429 97.5891 68.5012C103.14 67.1824 107.034 62.0116 107.036 55.7187V55.709ZM85.2721 65.4507C81.507 60.3868 80.9135 55.0751 84.0147 49.4598C81.8889 52.1873 81.1835 55.2888 81.7259 58.6308C82.1302 61.2327 83.3756 63.6311 85.2721 65.4604V65.4507ZM115.366 92.1427C116.341 93.7777 117.229 95.4632 118.025 97.1921C118.127 96.4489 115.984 92.3929 115.366 92.1427ZM75.5577 89.0436C74.6724 88.9562 73.7919 88.7255 72.8822 88.9829C73.7749 89.1748 74.6675 89.0388 75.5577 89.0436ZM72.8676 101.187C73.4781 101.586 74.2929 101.292 75.098 101.187H72.8676ZM54.9857 79.6079C55.1827 78.6486 55.1267 77.6771 55.0927 76.708C54.8943 77.6618 54.8581 78.6421 54.9857 79.6079ZM122.359 107.002C122.43 107.73 122.471 108.459 122.671 108.945C122.707 108.279 122.597 107.614 122.349 106.995L122.359 107.002ZM102.383 75.8798C102.412 75.9235 102.434 75.9162 102.424 75.8798C102.257 75.105 102.084 74.3327 101.914 73.5579C101.932 74.3534 102.091 75.1395 102.383 75.8798ZM49.158 89.3545C48.1583 89.0825 47.2122 89.1675 46.1152 89.3545C47.1287 89.4116 48.1445 89.4116 49.158 89.3545ZM86.6488 72.3702C86.9825 71.6905 87.1493 70.9412 87.1353 70.1844C87.0209 70.9203 86.8191 71.6416 86.6488 72.3702ZM63.9461 117.142C63.602 117.242 63.2743 117.392 62.9732 117.586C62.9027 117.625 62.8248 117.674 62.8662 117.769C62.9075 117.863 62.9927 117.834 63.0729 117.837C63.5059 117.841 63.6664 117.496 63.9461 117.142ZM82.9007 99.8249C83.6766 99.939 83.5355 99.3391 83.7009 98.9894L82.9007 99.8249ZM40.4359 90.5203C40.0176 90.8506 39.8716 91.3267 39.8035 91.8391L40.4359 90.5203ZM59.7334 118.526C59.6921 118.504 59.6653 118.487 59.6361 118.475C59.32 118.351 59.2008 118.546 59.1254 118.798C59.101 118.878 58.9819 118.983 59.1254 119.041C59.4148 119.15 59.4464 118.844 59.5899 118.723C59.6462 118.663 59.6952 118.597 59.7359 118.526H59.7334ZM65.3276 71.5785C65.0358 71.236 64.7317 70.913 64.238 70.8911L65.3276 71.5785ZM38.3296 95.6839C38.2323 96.2692 38.3172 96.8702 38.5728 97.4058C38.5494 96.8255 38.4696 96.2488 38.3344 95.6839H38.3296ZM63.805 118.806C64.1699 118.638 64.5104 118.594 64.7779 118.286C64.5819 118.255 64.3812 118.289 64.2064 118.383C64.0317 118.477 63.8924 118.625 63.8099 118.806H63.805ZM80.3444 90.2289L81.1762 91.0036C80.9816 90.5859 80.9208 90.2094 80.3517 90.2289H80.3444ZM102.215 68.9214H102.064V71.0757C102.133 70.3495 102.15 69.633 102.215 68.9214ZM84.9462 97.1751C84.9219 97.5686 84.9 97.962 84.8781 98.3555C85.2016 97.9815 85.1432 97.5807 84.9462 97.1751ZM60.4145 71.5032C59.6507 71.2603 59.5656 71.2603 59.2689 71.4813C59.6466 71.5551 60.0342 71.5625 60.4145 71.5032ZM121.853 103.512C121.869 103.067 121.746 102.628 121.501 102.256C121.61 102.64 121.717 103.024 121.853 103.512ZM72.4395 89.0801C72.3327 89.0375 72.2177 89.0192 72.1029 89.0263C71.9881 89.0334 71.8763 89.0659 71.7755 89.1214C71.8828 89.162 71.9975 89.1793 72.112 89.1722C72.2265 89.1651 72.3382 89.1337 72.4395 89.0801ZM60.6747 71.593L60.7136 71.5809C60.7039 71.5714 60.6923 71.564 60.6796 71.559C60.6796 71.559 60.6553 71.559 60.6431 71.559L60.6747 71.593Z" fill="#040404"/>
<path d="M72.8063 99.766H65.6263C64.7993 99.766 64.7872 99.766 64.7775 100.592C64.7191 105.423 64.6364 110.251 64.6388 115.082C64.6388 116.116 63.9553 116.478 63.3108 116.903C62.5568 117.389 61.6812 117.591 60.7812 117.722C59.9397 117.843 59.2173 117.554 58.4803 117.268C57.5999 116.923 56.7534 116.51 56.1186 115.767C55.9606 115.604 55.8732 115.386 55.8754 115.159C55.8948 112.245 55.8754 109.309 55.924 106.384C55.9508 104.628 55.924 102.875 55.924 101.121C55.924 100.75 55.9435 100.376 55.9629 100.004C55.9775 99.7344 55.8657 99.6518 55.5932 99.6373C54.9949 99.6033 54.4112 99.7563 53.8177 99.7563C52.3389 99.7563 50.8601 99.7757 49.3837 99.7781C47.1947 99.7781 45.0251 99.7441 42.8482 99.7781C41.941 99.7976 41.2964 99.4211 40.7176 98.8066C39.1731 97.1551 39.2874 94.5296 40.1022 92.9193C40.5157 92.1057 40.9073 91.2848 41.6807 90.7335C41.8702 90.5844 42.106 90.5062 42.3472 90.5124C46.7398 90.561 51.1349 90.595 55.53 90.646C55.8705 90.646 55.9751 90.5707 55.9727 90.2258C55.9419 87.3502 55.9192 84.4746 55.9046 81.5989C55.9046 79.413 55.8875 77.2417 55.8754 75.0656C55.8623 74.9705 55.8742 74.8737 55.91 74.7847C55.9459 74.6956 56.0044 74.6175 56.0797 74.558C58.3417 72.7558 62.3622 72.5445 64.7458 74.0722C64.99 74.2067 65.1892 74.4098 65.3189 74.6563C65.4486 74.9028 65.5031 75.1819 65.4755 75.459C65.4171 79.6559 65.2177 83.8479 65.0936 88.04C65.0742 88.7103 65.1885 89.3709 65.1788 90.0364C65.1788 90.3521 65.2736 90.4614 65.6166 90.4784C68.1413 90.6023 70.6586 90.4371 73.1785 90.408C75.1802 90.3886 77.1795 90.3011 79.1788 90.238C79.4721 90.2463 79.7568 90.3391 79.9985 90.5051C82.944 92.181 83.7029 96.5965 81.4968 99.1685C81.319 99.3969 81.088 99.5785 80.8239 99.6975C80.5598 99.8164 80.2706 99.8691 79.9815 99.851C77.5882 99.8073 75.1948 99.834 72.8015 99.834L72.8063 99.766Z" fill="#F8F2EA"/>
<path d="M107.036 55.7183C107.036 62.0112 103.144 67.182 97.5792 68.5105C93.7046 69.4383 90.1657 68.5591 87.1594 65.9336C84.2651 63.4053 82.8154 60.1362 82.9103 56.3109C83.0635 50.3022 86.8773 46.2996 91.9729 44.7792C97.229 43.2126 102.5 45.2892 105.35 49.9306C106.425 51.6725 107.008 53.6725 107.036 55.7183Z" fill="#F8F2EA"/>
<path d="M85.2729 65.4599C83.3783 63.6332 82.133 61.2384 81.7267 58.64C81.1843 55.2883 81.8897 52.1965 84.0155 49.469C80.9143 55.077 81.5078 60.396 85.2729 65.4599Z" fill="#F8F2EA"/>
<path d="M115.366 92.1418C115.984 92.3847 118.127 96.448 118.017 97.1912C117.223 95.4625 116.338 93.777 115.366 92.1418Z" fill="#F8F2EA"/>
<path d="M75.5575 89.0431C74.6673 89.0431 73.7747 89.1743 72.882 88.9824C73.7917 88.7249 74.6722 88.9557 75.5575 89.0431Z" fill="#F8F2EA"/>
<path d="M72.8677 101.192H75.0981C74.293 101.296 73.4782 101.59 72.8677 101.192Z" fill="#F8F2EA"/>
<path d="M54.9846 79.6072C54.8574 78.6414 54.8935 77.6611 55.0913 76.7073C55.1253 77.6642 55.1811 78.6357 54.9846 79.6072Z" fill="#5E5E5E"/>
<path d="M83.0753 92.7928C82.8518 92.0953 82.5812 91.4137 82.2654 90.7527C82.8953 91.2943 82.9951 92.1031 83.2602 92.8293L83.0753 92.7928Z" fill="#F8F2EA"/>
<path d="M122.35 106.994C122.592 107.611 122.698 108.274 122.66 108.937C122.461 108.461 122.42 107.725 122.35 106.994Z" fill="#F8F2EA"/>
<path d="M102.382 75.8792C102.09 75.1374 101.931 74.3497 101.913 73.5525C102.083 74.3273 102.256 75.0996 102.424 75.8744C102.433 75.9157 102.412 75.923 102.382 75.8792Z" fill="#F8F2EA"/>
<path d="M49.157 89.354C48.1435 89.4111 47.1276 89.4111 46.1142 89.354C47.2014 89.167 48.1573 89.0796 49.157 89.354Z" fill="#5E5E5E"/>
<path d="M44.9604 89.6674C44.2375 89.7124 43.5118 89.6806 42.7957 89.5727C43.507 89.444 44.234 89.4268 44.9506 89.5217L44.9604 89.6674Z" fill="#5E5E5E"/>
<path d="M86.6479 72.37C86.8108 71.6413 87.0127 70.9127 87.1343 70.1841C87.1484 70.9409 86.9816 71.6903 86.6479 72.37Z" fill="#F8F2EA"/>
<path d="M63.9474 117.141C63.6674 117.496 63.5067 117.841 63.0611 117.836C62.9808 117.836 62.8931 117.858 62.8541 117.768C62.8152 117.678 62.8907 117.625 62.9613 117.586C63.2664 117.39 63.5987 117.24 63.9474 117.141Z" fill="#F8F2EA"/>
<path d="M82.9003 99.8254L83.7013 98.989C83.5358 99.3294 83.677 99.9397 82.9003 99.8254Z" fill="#F8F2EA"/>
<path d="M40.4357 90.5203L39.8033 91.8391C39.8739 91.3266 40.0198 90.8506 40.4357 90.5203Z" fill="#F8F2EA"/>
<path d="M59.7354 118.526C59.696 118.595 59.6487 118.659 59.5945 118.718C59.4512 118.839 59.4196 119.144 59.1306 119.035C58.9849 118.982 59.1039 118.878 59.1306 118.793C59.2059 118.55 59.3249 118.346 59.6407 118.47C59.6674 118.487 59.6941 118.504 59.7354 118.526Z" fill="#F8F2EA"/>
<path d="M65.3336 71.5792L64.2427 70.8911C64.737 70.913 65.0414 71.2364 65.3336 71.5792Z" fill="#F8F2EA"/>
<path d="M38.3344 95.6833C38.4708 96.2481 38.552 96.8248 38.5769 97.4053C38.3221 96.8697 38.2374 96.2687 38.3344 95.6833Z" fill="#5E5E5E"/>
<path d="M84.6821 76.0591C84.3777 76.4069 84.0364 76.7208 83.6643 76.9952C83.6402 76.9752 83.615 76.9565 83.5888 76.9393C83.8997 76.5906 84.2484 76.2774 84.6285 76.0056L84.6821 76.0591Z" fill="#F8F2EA"/>
<path d="M63.8092 118.806C63.8921 118.624 64.0322 118.475 64.2082 118.381C64.3842 118.287 64.5862 118.254 64.7832 118.285C64.5153 118.594 64.1745 118.638 63.8092 118.806Z" fill="#F8F2EA"/>
<path d="M80.3515 90.2285C80.9212 90.2091 80.9821 90.5859 81.1842 91.0041L80.3515 90.2285Z" fill="#F8F2EA"/>
<path d="M102.214 68.9211C102.149 69.6352 102.132 70.3517 102.064 71.0682V68.9211H102.214Z" fill="#5E5E5E"/>
<path d="M84.9459 97.1741C85.1377 97.5825 85.1887 97.9813 84.8779 98.3557C84.9046 97.9618 84.9265 97.5801 84.9459 97.1741Z" fill="#5E5E5E"/>
<path d="M60.4157 71.5027C60.0351 71.5621 59.647 71.5547 59.2689 71.4808C59.5659 71.2595 59.6512 71.262 60.4157 71.5027Z" fill="#5E5E5E"/>
<path d="M44.9596 89.6675V89.5217H46.9298C46.273 89.7306 45.6139 89.6675 44.9596 89.6675Z" fill="#F8F2EA"/>
<path d="M37.8095 101.397C37.5125 101.176 37.381 100.84 37.1984 100.536C37.4712 100.755 37.6986 101.025 37.868 101.331L37.8095 101.397Z" fill="#F8F2EA"/>
<path d="M121.852 103.511C121.716 103.026 121.61 102.639 121.501 102.256C121.745 102.627 121.868 103.066 121.852 103.511Z" fill="#5E5E5E"/>
<path d="M83.0759 92.793L83.261 92.8294C83.4067 93.1639 83.4718 93.5278 83.4509 93.8919C83.266 93.5488 83.1393 93.1775 83.0759 92.793Z" fill="#5E5E5E"/>
<path d="M82.0416 78.2085C82.2043 78.0145 82.3549 77.7987 82.6706 77.8229C82.5192 78.0135 82.3255 78.1663 82.1047 78.2692L82.0416 78.2085Z" fill="#F8F2EA"/>
<path d="M72.4387 89.0791C72.3375 89.1326 72.226 89.164 72.1116 89.1711C71.9973 89.1782 71.8828 89.1609 71.7757 89.1204C71.8763 89.065 71.9879 89.0326 72.1026 89.0254C72.2172 89.0183 72.332 89.0366 72.4387 89.0791Z" fill="#5E5E5E"/>
<path d="M37.867 101.33C37.9493 101.454 38.1091 101.522 38.1091 101.715C37.9749 101.649 37.8704 101.535 37.8162 101.396L37.867 101.33Z" fill="#F8F2EA"/>
<path d="M85.8074 74.7486L86.0494 74.4121L86.11 74.4581C86.0906 74.613 85.9478 74.6832 85.8679 74.7994L85.8074 74.7486Z" fill="#F8F2EA"/>
<path d="M86.0406 74.4036L86.2481 74.1455C86.306 74.3264 86.2071 74.3867 86.101 74.4495L86.0406 74.4036Z" fill="#F8F2EA"/>
<path d="M81.6506 78.4853C81.6506 78.5354 81.7722 78.5592 81.684 78.6284C81.684 78.6284 81.6554 78.6284 81.6387 78.6284V78.4829L81.6506 78.4853Z" fill="#F8F2EA"/>
<path d="M85.449 75.2642C85.3453 75.2835 85.3477 75.5561 85.1644 75.38C85.2802 75.38 85.2874 75.1171 85.4538 75.2715L85.449 75.2642Z" fill="#F8F2EA"/>
<path d="M83.562 77.0899C83.4924 77.1715 83.4419 77.3421 83.3218 77.1403L83.5068 77.0034C83.5208 77.0348 83.5395 77.0639 83.562 77.0899Z" fill="#F8F2EA"/>
<path d="M60.6746 71.5917L60.6439 71.5705C60.6439 71.5705 60.6675 71.5563 60.6793 71.5705C60.6916 71.5753 60.7028 71.5825 60.7123 71.5917H60.6746Z" fill="#5E5E5E"/>
<path d="M81.9944 78.3581C81.9225 78.4395 81.8675 78.5975 81.7382 78.4084L81.9345 78.2935C81.9531 78.3162 81.9731 78.3378 81.9944 78.3581Z" fill="#F8F2EA"/>
<path d="M83.1192 77.3342L83.1711 77.4356L83.1286 77.4497V77.3342H83.1192Z" fill="#F8F2EA"/>
<path d="M83.1192 77.3328C83.1793 77.316 83.2393 77.2992 83.2201 77.2151C83.2345 77.2511 83.273 77.2968 83.261 77.3232C83.2273 77.4073 83.1697 77.3617 83.1192 77.3232V77.3328Z" fill="#F8F2EA"/>
<path d="M83.2224 77.2144C83.287 77.2455 83.3038 77.1952 83.3253 77.1521C83.3253 77.1952 83.4378 77.212 83.354 77.2766C83.2702 77.3413 83.2726 77.2431 83.2343 77.2215L83.2224 77.2144Z" fill="#F8F2EA"/>
<path d="M83.5113 77.01L83.5876 76.9385C83.6132 76.9554 83.6379 76.9737 83.6616 76.9933L83.5638 77.0887C83.5428 77.065 83.5251 77.0385 83.5113 77.01Z" fill="#F8F2EA"/>
<path d="M84.7184 75.9014C84.8025 75.9783 84.7184 76.0119 84.6799 76.0575L84.6271 76.0047C84.6265 75.9915 84.6289 75.9783 84.6341 75.9662C84.6393 75.9541 84.6471 75.9432 84.657 75.9345C84.6669 75.9257 84.6786 75.9193 84.6913 75.9157C84.704 75.912 84.7173 75.9112 84.7304 75.9134L84.7184 75.9014Z" fill="#F8F2EA"/>
<path d="M84.731 75.9109C84.7297 75.8984 84.7309 75.8858 84.7347 75.8739C84.7386 75.8619 84.7448 75.8509 84.7531 75.8415C84.7614 75.832 84.7716 75.8244 84.7829 75.8192C84.7943 75.8139 84.8067 75.811 84.8192 75.8108L84.8073 75.7988C84.8073 75.8298 84.8955 75.8489 84.8288 75.8895C84.8001 75.9062 84.7572 75.8895 84.7214 75.8895L84.731 75.9109Z" fill="#F8F2EA"/>
<path d="M84.8788 75.6733C84.8955 75.7067 84.9647 75.7067 84.9265 75.7759C84.8884 75.8451 84.8502 75.7926 84.8097 75.7974L84.8216 75.8093L84.8788 75.6733Z" fill="#F8F2EA"/>
<path d="M84.9711 75.5735C84.9878 75.6069 85.0235 75.6498 85.014 75.6713C84.9758 75.7524 84.9257 75.7023 84.8804 75.6713C84.8929 75.6716 84.9054 75.6694 84.917 75.6647C84.9286 75.66 84.9391 75.6529 84.9478 75.6439C84.9566 75.635 84.9634 75.6243 84.9678 75.6126C84.9722 75.6009 84.9741 75.5884 84.9734 75.5759L84.9711 75.5735Z" fill="#F8F2EA"/>
<path d="M84.9746 75.5737C85.0295 75.5618 85.0772 75.538 85.0772 75.4712C85.113 75.5165 85.1583 75.569 85.0772 75.6095C85.0534 75.6215 85.0057 75.5881 84.9699 75.5761L84.9746 75.5737Z" fill="#F8F2EA"/>
<path d="M85.0805 75.4773L85.1736 75.3938C85.2093 75.4343 85.269 75.4773 85.1879 75.5226C85.1688 75.5226 85.1235 75.494 85.0901 75.4773H85.0805Z" fill="#F8F2EA"/>
<path d="M85.5208 75.1409L85.4492 75.2602H85.4635C85.4635 75.2268 85.4278 75.1886 85.4325 75.1576C85.4468 75.0837 85.4969 75.1409 85.5327 75.1385L85.5208 75.1409Z" fill="#F8F2EA"/>
<path d="M85.5343 75.1479C85.5343 75.1121 85.5152 75.0716 85.5343 75.0406C85.5605 74.969 85.5963 75.0406 85.6273 75.0406C85.6302 75.0533 85.6302 75.0666 85.6272 75.0793C85.6242 75.0921 85.6183 75.1039 85.6101 75.1141C85.6018 75.1242 85.5913 75.1323 85.5794 75.1377C85.5675 75.1432 85.5545 75.1459 85.5415 75.1455L85.5343 75.1479Z" fill="#F8F2EA"/>
<path d="M85.6211 75.0408C85.5928 75.0078 85.5645 74.9725 85.6211 74.9395C85.6353 74.9395 85.6683 74.9395 85.6942 74.9395L85.614 75.022L85.6211 75.0408Z" fill="#F8F2EA"/>
<path d="M85.8634 74.7923C85.8205 74.8233 85.7895 74.8996 85.7299 74.8209C85.7531 74.7926 85.7786 74.7663 85.8062 74.7422L85.8634 74.7923Z" fill="#F8F2EA"/>
<path d="M82.103 78.2684C82.1021 78.2812 82.0986 78.2937 82.0928 78.3051C82.087 78.3166 82.0789 78.3267 82.0691 78.335C82.0593 78.3432 82.0479 78.3494 82.0356 78.3532C82.0233 78.357 82.0104 78.3583 81.9976 78.3569C81.978 78.3365 81.9596 78.3149 81.9426 78.2923L82.0407 78.2085L82.103 78.2684Z" fill="#F8F2EA"/>
<path d="M81.6511 78.4865C81.7131 78.5008 81.7441 78.4865 81.7417 78.4102C81.7608 78.4412 81.8037 78.4889 81.7942 78.5008C81.7441 78.5795 81.6988 78.5223 81.6559 78.4841L81.6511 78.4865Z" fill="#F8F2EA"/>
<defs>
<filter id="filter0_d_2409_118294" x="0.272217" y="0.114746" width="174.07" height="171.602" filterUnits="userSpaceOnUse" color-interpolation-filters="sRGB">
<feFlood flood-opacity="0" result="BackgroundImageFix"/>
<feColorMatrix in="SourceAlpha" type="matrix" values="0 0 0 0 0 0 0 0 0 0 0 0 0 0 0 0 0 0 127 0" result="hardAlpha"/>
<feOffset dx="5" dy="4"/>
<feGaussianBlur stdDeviation="2"/>
<feComposite in2="hardAlpha" operator="out"/>
<feColorMatrix type="matrix" values="0 0 0 0 0 0 0 0 0 0 0 0 0 0 0 0 0 0 0.25 0"/>
<feBlend mode="normal" in2="BackgroundImageFix" result="effect1_dropShadow_2409_118294"/>
<feBlend mode="normal" in="SourceGraphic" in2="effect1_dropShadow_2409_118294" result="shape"/>
</filter>
</defs>
</svg>
