<svg width="113" height="111" viewBox="0 0 113 111" fill="none" xmlns="http://www.w3.org/2000/svg">
<g filter="url(#filter0_d_2409_117324)">
<path d="M0 51.1061C0.188465 38.1284 4.54658 26.7017 13.365 17.0359C20.5522 9.15958 29.4474 4.10048 39.7938 1.52696C42.9849 0.733398 46.2282 0.272516 49.513 0.0871041C56.3052 -0.297493 62.9153 0.584008 69.3252 2.881C75.8853 5.23202 81.6819 8.81418 86.7417 13.5819C91.0477 17.6387 94.4049 22.3768 97.1328 27.6044C99.9417 32.9887 101.767 38.657 102.586 44.6612C102.953 47.3534 103.118 50.0572 103.028 52.7696C102.614 65.3977 98.2029 76.4504 89.6006 85.7538C82.3123 93.6354 73.3437 98.6998 62.8152 100.986C59.7955 101.642 56.7396 102.053 53.6454 102.121C39.8129 102.425 27.6159 98.1277 17.2152 89.0457C8.9558 81.8326 3.71499 72.775 1.26389 62.1228C0.503638 58.8214 0.0958296 55.4713 0.0489796 52.0809C0.0447205 51.7736 0.0191659 51.4674 0.00106477 51.1072L0 51.1061Z" fill="#060000"/>
<path d="M54.1445 97.3575C46.9956 97.4867 40.328 96.317 33.934 93.7138C29.347 91.847 25.0613 89.4557 21.3314 86.1734C15.1994 80.7785 10.7156 74.2519 7.89077 66.6034C6.65669 63.2639 5.83043 59.8237 5.39068 56.2956C4.95625 52.8183 4.82528 49.3262 5.30337 45.85C5.94649 41.1755 7.32431 36.7034 9.38358 32.4484C13.4446 24.0572 19.4361 17.3527 27.3346 12.3773C32.5647 9.08333 38.257 6.89017 44.3582 5.77876C47.3619 5.231 50.3912 4.97354 53.4428 5.00214C58.1704 5.04664 62.8139 5.69717 67.303 7.18259C70.4291 8.21666 73.3402 9.74022 76.0959 11.5371C85.0389 17.3697 91.3817 25.3138 95.3693 35.147C97.0996 39.4136 98.1771 43.8454 98.6084 48.4309C98.817 50.6453 98.9342 52.8649 98.7468 55.0825C98.5242 57.7164 97.9918 60.3005 97.271 62.8443C95.1308 70.3869 91.3509 77.0141 85.9642 82.7237C80.3326 88.6929 73.6011 92.986 65.7984 95.5786C63.4549 96.3573 61.0102 96.743 58.5569 97.0375C57.0087 97.2229 55.4542 97.3055 54.1445 97.3585V97.3575Z" fill="#F8F2EA"/>
<path d="M53.4672 90.9916C47.1442 91.1049 41.2468 90.0792 35.5915 87.7963C31.5344 86.1592 27.7438 84.0622 24.4447 81.1839C19.0211 76.4528 15.0553 70.7295 12.5568 64.0223C11.4653 61.0937 10.7345 58.0769 10.3455 54.9829C9.96131 51.9336 9.84547 48.8712 10.2683 45.8228C10.8371 41.7236 12.0558 37.8018 13.8772 34.0705C17.4691 26.7119 22.7684 20.8325 29.7544 16.4694C34.3804 13.5808 39.4151 11.6576 44.8114 10.6829C47.4681 10.2026 50.1474 9.97679 52.8466 10.0019C57.028 10.0409 61.135 10.6114 65.1055 11.914C67.8706 12.8208 70.4454 14.1569 72.8827 15.7326C80.7926 20.8474 86.4027 27.8139 89.9296 36.4369C91.46 40.1785 92.413 44.0649 92.7944 48.0861C92.979 50.028 93.0826 51.9745 92.9169 53.9191C92.72 56.2289 92.2492 58.495 91.6116 60.7258C89.7186 67.3401 86.3754 73.1517 81.6109 78.1587C76.6299 83.3933 70.6761 87.158 63.7748 89.4316C61.702 90.1145 59.5397 90.4527 57.3699 90.711C56.0005 90.8736 54.6256 90.946 53.4672 90.9925V90.9916Z" fill="#181818"/>
<path d="M12.7071 19.5156C13.7943 17.8861 15.0241 16.3647 16.338 14.9153C17.0674 14.1111 17.9352 13.4436 18.8285 12.7136C16.8949 15.1367 14.7951 17.3267 12.7976 19.6057C12.7188 19.6237 12.6773 19.6057 12.7071 19.5156Z" fill="#F8F2EA"/>
<path d="M80.9143 14.3062C83.2685 16.2144 85.4055 18.3376 87.3029 20.6971C87.3189 20.7745 87.2965 20.8137 87.2103 20.785C85.1819 18.5559 82.9991 16.4792 80.8142 14.4048C80.7993 14.3242 80.827 14.285 80.9132 14.3062H80.9143Z" fill="#F8F2EA"/>
<path d="M100.271 47.2058C100.528 49.187 100.662 51.1736 100.467 53.1676C100.395 53.9156 100.28 54.6593 100.184 55.4052C99.9616 55.3014 100.11 55.1308 100.107 54.9867C100.226 53.1347 100.334 51.2827 100.27 49.4254C100.246 48.7145 100.214 48.0036 100.184 47.2927C100.155 47.2068 100.193 47.1857 100.271 47.2047V47.2058Z" fill="#F8F2EA"/>
<path d="M56.0711 97.8454C54.9776 97.9863 53.8851 98.1315 52.7906 98.2671C51.762 98.3953 50.7302 98.5023 49.7027 98.6443C49.4312 98.6824 49.1725 98.64 48.9084 98.6337C48.8307 98.6315 48.6848 98.7004 48.7029 98.5256C48.7146 98.4144 48.8062 98.3709 48.9158 98.3635C49.3077 98.3381 49.6985 98.2978 50.0914 98.284C51.8578 98.2226 53.6115 98.0213 55.363 97.7977C55.5962 97.7681 55.8316 97.731 56.0711 97.8443V97.8454Z" fill="#F8F2EA"/>
<path d="M30.7591 7.70748C32.8717 6.52826 35.1811 5.86502 37.4757 5.16469C37.5673 5.13396 37.5897 5.17528 37.5737 5.25792C35.3057 6.0356 33.0473 6.84187 30.8475 7.79754C30.7602 7.82297 30.7389 7.78588 30.7591 7.70748Z" fill="#F8F2EA"/>
<path d="M78.5336 88.9487C80.3788 87.3404 82.2677 85.7787 83.9778 84.0178C83.5646 84.8209 79.6952 88.3448 78.5336 88.9487Z" fill="#F8F2EA"/>
<path d="M86.788 16.209C87.5951 16.7991 90.6946 20.4205 91.1269 21.2437C89.5681 19.6629 88.3425 17.7961 86.788 16.209Z" fill="#F8F2EA"/>
<path d="M78.7817 11.3076C77.6637 10.6613 76.5468 10.014 75.4288 9.36768C76.6607 9.81584 77.964 10.1379 78.7817 11.3076Z" fill="#F8F2EA"/>
<path d="M12.4518 22.1931C13.2173 21.0965 14.0819 20.0752 14.9401 19.0506C14.9998 18.9786 15.0509 18.8091 15.1925 18.915C15.349 19.0326 15.2106 19.1269 15.1318 19.2202C14.2683 20.2415 13.4047 21.2639 12.5423 22.2864C12.4667 22.2991 12.4241 22.2789 12.4528 22.1931H12.4518Z" fill="#F8F2EA"/>
<path d="M99.6278 59.4674C99.4053 60.9401 99.0603 62.3842 98.5928 63.7996C98.5673 63.8304 98.5407 63.8314 98.5119 63.8028C98.8856 62.274 99.2658 60.7472 99.5352 59.1951C99.7364 59.2279 99.6225 59.3678 99.6278 59.4663V59.4674Z" fill="#F8F2EA"/>
<path d="M87.2118 20.785C87.2427 20.7553 87.2736 20.7267 87.3044 20.697C88.3373 21.8773 89.2381 23.154 90.0931 24.4646C90.1218 24.5472 90.0824 24.561 90.0121 24.5441C89.1497 23.2388 88.1712 22.0193 87.2118 20.785Z" fill="#F8F2EA"/>
<path d="M99.6281 59.4671C99.5866 59.3802 99.6462 59.2584 99.5355 59.1959C99.7261 57.7931 99.9166 56.3903 100.107 54.9875C100.16 55.1221 100.078 55.281 100.184 55.4061C99.9986 56.7601 99.8134 58.1131 99.6292 59.4671H99.6281Z" fill="#F8F2EA"/>
<path d="M98.0987 65.4012C97.8665 66.5677 97.3735 67.6463 96.9625 68.7524C96.8901 68.9474 96.806 69.1381 96.7272 69.3309C96.657 69.3404 96.6069 69.333 96.6538 69.244C97.1318 67.9461 97.6344 66.6557 98.0326 65.3302C98.0646 65.3186 98.0965 65.308 98.1178 65.3451C98.1263 65.3599 98.1146 65.3811 98.0997 65.4012H98.0987Z" fill="#F8F2EA"/>
<path d="M98.8297 37.2041C99.2226 38.4193 99.6006 39.6388 99.64 40.9272C99.3696 39.6865 99.1002 38.4458 98.8297 37.2041Z" fill="#F8F2EA"/>
<path d="M47.7806 3.0055C48.7006 2.91651 49.6163 2.77242 50.5405 2.74805C50.5448 2.7989 50.5501 2.8487 50.5544 2.89956C49.6589 2.96524 48.7634 3.03093 47.8669 3.09662C47.7817 3.11887 47.7572 3.08391 47.7796 3.00445L47.7806 3.0055Z" fill="#F8F2EA"/>
<path d="M2.19215 50.3289V52.8324C2.14755 52.8324 2.10296 52.8303 2.05836 52.8293C1.86936 51.9287 2.20065 51.0451 2.19215 50.3289Z" fill="#F8F2EA"/>
<path d="M4.81306 35.0361C4.64483 35.4917 4.47234 35.9473 4.30942 36.405C4.26683 36.5247 4.21572 36.6211 4.07517 36.565C3.89416 36.4919 4.03152 36.388 4.07198 36.3054C4.27961 35.8795 4.49257 35.4578 4.70446 35.034C4.74172 34.999 4.77793 35.0001 4.81413 35.0372L4.81306 35.0361Z" fill="#F8F2EA"/>
<path d="M39.8397 3.90401C39.0219 4.10637 38.2053 4.30874 37.3875 4.51216C38.1254 4.10214 38.9389 3.96016 39.7524 3.81607C39.8354 3.79276 39.8599 3.82667 39.8397 3.90507V3.90401Z" fill="#F8F2EA"/>
<path d="M4.04405 63.472C3.65222 62.6859 3.54148 61.8213 3.42755 60.9568C3.63305 61.7948 3.83855 62.634 4.04405 63.472Z" fill="#F8F2EA"/>
<path d="M12.4514 22.1929C12.4812 22.2236 12.511 22.2554 12.5409 22.2861C12.1671 22.7978 11.7934 23.3106 11.4197 23.8224C11.3877 23.8012 11.3568 23.78 11.3249 23.7588C11.6858 23.228 12.0287 22.6845 12.4514 22.1929Z" fill="#F8F2EA"/>
<path d="M19.2484 87.0808C19.7488 87.476 20.2492 87.8712 20.7497 88.2664C19.9671 87.9072 19.4826 87.5226 19.2484 87.0808Z" fill="#F8F2EA"/>
<path d="M58.2106 2.26373C57.642 2.22135 57.0723 2.17792 56.4622 2.13236C57.0894 1.80603 57.6473 2.18957 58.2212 2.1599C58.217 2.19381 58.2138 2.22877 58.2095 2.26267L58.2106 2.26373Z" fill="#F8F2EA"/>
<path d="M68.642 6.50293C69.2989 6.58663 69.8686 6.83773 70.3871 7.21491C69.8058 6.97758 69.2233 6.74026 68.642 6.50293Z" fill="#F8F2EA"/>
<path d="M37.5737 5.25802C37.5407 5.22729 37.5088 5.19551 37.4758 5.16478C37.9528 4.94653 38.4628 4.85223 38.9643 4.72827C38.975 4.76218 38.9856 4.79608 38.9963 4.82998C38.5214 4.97302 38.0476 5.11499 37.5727 5.25802H37.5737Z" fill="#F8F2EA"/>
<path d="M61.0959 97.4384C61.5016 97.3186 61.9072 97.1978 62.3129 97.0781C62.0712 97.4956 61.6261 97.4002 61.2716 97.5295C61.1843 97.5528 61.0852 97.6005 61.0959 97.4384Z" fill="#F8F2EA"/>
<path d="M53.2411 99.228C53.8917 99.2164 54.5338 99.0331 55.1907 99.156C54.5402 99.1677 53.9002 99.3785 53.2411 99.228Z" fill="#F8F2EA"/>
<path d="M17.7855 84.5178C18.155 84.8632 18.5255 85.2097 18.895 85.5551C18.8716 85.5794 18.8471 85.6049 18.8237 85.6292C18.4148 85.323 18.057 84.9649 17.7855 84.5178Z" fill="#F8F2EA"/>
<path d="M20.0128 86.641C19.6199 86.3729 19.2643 86.0646 18.964 85.6948C19.375 85.9396 19.7338 86.2468 20.0724 86.5795C20.0809 86.6261 20.0607 86.6473 20.0128 86.641Z" fill="#F8F2EA"/>
<path d="M6.1922 70.4563C5.93239 70.0335 5.76203 69.5769 5.69495 69.0779C5.88235 69.5186 6.06975 69.9604 6.25715 70.4012C6.25715 70.4446 6.23585 70.4626 6.19326 70.4573L6.1922 70.4563Z" fill="#F8F2EA"/>
<path d="M80.9147 14.306C80.8817 14.3389 80.8487 14.3717 80.8157 14.4046C80.5612 14.1736 80.3067 13.9426 80.0533 13.7117C80.4057 13.8272 80.6772 14.0444 80.9158 14.306H80.9147Z" fill="#F8F2EA"/>
<path d="M90.0119 24.5441C90.0385 24.5176 90.0662 24.4911 90.0928 24.4646C90.3707 24.7719 90.5613 25.13 90.6944 25.5283C90.4666 25.1999 90.2398 24.8714 90.0119 24.5441Z" fill="#F8F2EA"/>
<path d="M39.8399 3.90405C39.8111 3.87439 39.7813 3.84472 39.7526 3.81506C40.1646 3.67944 40.5831 3.57561 41.0196 3.57031C41.0292 3.58091 41.0377 3.59256 41.0473 3.60316C40.6608 3.76844 40.2456 3.81506 39.8399 3.90299V3.90405Z" fill="#F8F2EA"/>
<path d="M26.1843 90.8799C26.4888 91.0568 26.7944 91.2338 27.0989 91.4096C26.7294 91.3503 26.4185 91.1787 26.1843 90.8799Z" fill="#F8F2EA"/>
<path d="M61.0959 97.4385C61.1172 97.5402 61.213 97.4989 61.2716 97.5296C60.9074 97.6144 60.5443 97.7002 60.1802 97.7849C60.4591 97.5836 60.7743 97.501 61.0959 97.4385Z" fill="#F8F2EA"/>
<path d="M100.271 47.2055C100.242 47.2352 100.213 47.2638 100.183 47.2935C100.071 46.9851 100.102 46.6705 100.178 46.3516L100.271 47.2055Z" fill="#F8F2EA"/>
<path d="M21.3087 87.6527C21.0276 87.4864 20.7603 87.302 20.5367 87.0626C20.5346 87.0213 20.5559 87.0064 20.5953 87.016C20.8742 87.1367 21.0723 87.3645 21.3065 87.5447C21.3438 87.5796 21.3449 87.6156 21.3087 87.6527Z" fill="#F8F2EA"/>
<path d="M30.7594 7.7076C30.7892 7.73727 30.8179 7.76799 30.8478 7.79766C30.6231 7.95341 30.3739 8.05088 30.1024 8.09326C30.2951 7.91632 30.5124 7.78706 30.7583 7.70654L30.7594 7.7076Z" fill="#F8F2EA"/>
<path d="M47.7807 3.00537C47.8095 3.0361 47.8393 3.06682 47.868 3.09755C47.588 3.23952 47.2963 3.17065 47.0002 3.10496C47.26 3.07212 47.5209 3.03822 47.7807 3.00537Z" fill="#F8F2EA"/>
<path d="M4.81243 35.0349C4.77633 35.0349 4.73917 35.0328 4.70306 35.0318C4.81031 34.7958 4.91755 34.5598 5.0248 34.325C5.01736 34.5874 4.97489 34.8328 4.81243 35.0349Z" fill="#F8F2EA"/>
<path d="M6.60596 30.4771C6.73479 30.2154 6.86363 29.9526 6.99247 29.6909C7.02441 29.7058 7.05742 29.7206 7.08936 29.7354C6.96692 30.0003 6.89025 30.2864 6.60596 30.4771Z" fill="#F8F2EA"/>
<path d="M97.3509 38.3014C97.2883 38.0514 97.2256 37.8013 97.163 37.5513C97.3467 37.7367 97.4252 37.9571 97.4284 38.2029C97.4688 38.2876 97.4284 38.3099 97.3498 38.3014H97.3509Z" fill="#F8F2EA"/>
<path d="M96.653 69.2441C96.6775 69.2727 96.702 69.3024 96.7265 69.331C96.6477 69.5525 96.5593 69.7686 96.3464 70.0038C96.4252 69.6902 96.5199 69.4603 96.653 69.2441Z" fill="#F8F2EA"/>
<path d="M12.7072 19.5156C12.737 19.5453 12.7679 19.576 12.7977 19.6057C12.6965 19.8345 12.5134 19.9966 12.326 20.1598C12.4016 19.914 12.523 19.6968 12.7072 19.5156Z" fill="#F8F2EA"/>
<path d="M6.25566 70.4011C6.38945 70.6339 6.51581 70.8677 6.54342 71.145C6.38202 70.9376 6.25036 70.7164 6.19196 70.4572C6.21319 70.4382 6.23443 70.4202 6.25566 70.4011Z" fill="#F8F2EA"/>
<path d="M21.3086 87.6527C21.3086 87.6167 21.3076 87.5807 21.3065 87.5447C21.5173 87.6655 21.7101 87.8085 21.8559 88.014C21.6526 87.9261 21.4481 87.8413 21.3086 87.6538V87.6527Z" fill="#F8F2EA"/>
<path d="M96.6725 35.5289C96.509 35.3501 96.3869 35.1565 96.4304 34.821C96.5313 35.1163 96.6024 35.3226 96.6725 35.5289Z" fill="#F8F2EA"/>
<path d="M97.3514 38.3013C97.3779 38.2685 97.4034 38.2357 97.43 38.2029C97.5361 38.3997 97.5669 38.6124 97.534 38.8409C97.4735 38.661 97.4119 38.4812 97.3514 38.3013Z" fill="#F8F2EA"/>
<path d="M98.5118 63.8025C98.5394 63.8141 98.5659 63.812 98.5925 63.7993C98.5319 63.9919 98.4714 64.1855 98.3748 64.4934C98.3408 64.1601 98.396 63.975 98.5118 63.8035V63.8025Z" fill="#F8F2EA"/>
<path d="M41.0193 3.57144C41.2408 3.46019 41.4729 3.41146 41.8083 3.45066C41.4985 3.51317 41.2866 3.62018 41.047 3.60429C41.0375 3.59369 41.0289 3.58204 41.0193 3.57144Z" fill="#F8F2EA"/>
<path d="M20.5367 87.0627C20.3621 86.9218 20.1874 86.7819 20.0128 86.641C20.033 86.6209 20.0522 86.5997 20.0724 86.5796C20.2716 86.6961 20.4472 86.8402 20.5952 87.0161C20.5697 87.0235 20.5505 87.0394 20.5367 87.0627Z" fill="#F8F2EA"/>
<path d="M98.0988 65.4006C98.0765 65.3773 98.0542 65.3529 98.0319 65.3297C98.085 65.1456 98.1381 64.9615 98.1912 64.7773C98.2199 64.9974 98.2284 65.2122 98.0978 65.4006H98.0988Z" fill="#F8F2EA"/>
</g>
<path d="M48.6208 67.7896C48.8513 68.2561 49.1828 68.6654 49.5914 68.9876C50.428 69.6977 51.2665 70.4077 52.1196 71.0957C53.2205 71.9892 53.7709 73.1855 53.936 74.5505C54.0516 75.4844 53.725 76.3467 53.2535 77.1484C52.0976 79.1153 50.34 80.2675 48.1989 80.939C46.3848 81.5014 44.4967 81.7889 42.5975 81.7921C40.926 81.8031 39.251 81.7481 37.5814 81.8802C37.2447 81.9004 36.9106 81.9514 36.5833 82.0325C36.3319 82.1003 36.2273 81.9738 36.2365 81.7426C36.2373 81.5679 36.2727 81.395 36.3407 81.2341C36.4088 81.0732 36.508 80.9273 36.6328 80.805C37.6731 79.7978 38.7427 78.818 39.7206 77.7539C40.8485 76.483 41.8221 75.0831 42.6213 73.5836C43.0763 72.7616 43.1938 71.8058 43.1717 70.8572C43.1497 69.9087 43.1112 68.9381 43.0763 67.9785C43.0639 67.8551 43.0436 67.7325 43.0158 67.6116C42.8033 68.2 42.5483 68.7721 42.2525 69.3234C41.9283 69.9318 41.4926 70.4739 40.9682 70.9214C39.4693 72.1745 37.9263 73.4001 36.0017 73.9505C34.9871 74.2478 33.9541 74.4074 32.8716 74.1487C31.7565 73.8503 30.5877 73.812 29.4554 74.0368C28.483 74.2551 27.6005 74.6477 27.0923 75.5834C26.8888 75.9976 26.8013 76.4592 26.8391 76.9191C26.6886 76.9466 26.6556 76.8274 26.6006 76.7613C25.7328 75.7779 25.3016 74.5982 25.0117 73.3396C24.5255 71.2278 24.7365 69.2206 25.8006 67.3272C26.9327 65.309 28.6793 64.1348 30.8901 63.5771C32.4864 63.1734 34.055 62.6707 35.6182 62.1515C36.2613 61.9371 36.8246 61.5336 37.2346 60.9938C37.6309 60.4929 37.6547 60.0636 37.3025 59.5352C37.2291 59.4294 37.1821 59.3075 37.1655 59.1798C37.1489 59.0521 37.1632 58.9223 37.2071 58.8013C37.9996 56.355 39.0141 53.9863 40.238 51.7248C43.1204 46.2683 46.7861 41.3843 51.0427 36.9315C54.1195 33.7134 57.4 30.7246 61.0309 28.1395C63.6747 26.2571 66.4561 24.6205 69.5733 23.639C71.164 23.1399 72.7786 22.773 74.4683 22.9051C77.0168 23.1051 78.7047 24.7214 79.0093 27.268C79.2661 29.422 78.8661 31.4971 78.224 33.5354C77.3066 36.4306 75.9031 39.1019 74.4188 41.7329C71.1345 47.5149 67.054 52.8066 62.2968 57.4528C59.6158 60.0495 56.7651 62.465 53.7636 64.6834C52.4533 65.7014 51.0774 66.6318 49.6446 67.4685C49.3394 67.6676 48.9851 67.7787 48.6208 67.7896ZM28.6224 65.9824L28.7013 66.0521C28.4775 66.2704 28.2427 66.4777 28.0335 66.7071C26.8483 68.0061 26.0703 69.4903 25.9401 71.2737C25.8337 72.7415 26.3345 74.1322 26.4446 75.5724C26.4446 75.6587 26.4446 75.7999 26.5749 75.8146C26.7052 75.8293 26.7584 75.7284 26.8079 75.6477C26.8567 75.5612 26.892 75.4678 26.9125 75.3706C27.0794 74.7046 27.4501 74.1725 28.0775 73.9028C29.2469 73.3847 30.5318 73.1823 31.8038 73.3157C33.1851 73.4905 34.5881 73.3372 35.8989 72.8681C37.551 72.2561 39.0642 71.3204 40.3499 70.116C42.0764 68.5271 42.6452 66.6172 42.1847 64.3586C42.0819 63.8596 41.9205 63.3734 41.7902 62.878C41.7087 62.677 41.6939 62.4551 41.748 62.2451L42.0709 62.346C42.4442 62.4909 42.8481 62.5395 43.2451 62.4872C43.6121 62.4212 43.6323 62.0616 43.8359 61.8616C43.9258 61.7735 44.0029 61.6781 44.0836 61.5791C44.4505 61.1406 44.8303 60.7076 45.1844 60.2599C46.3586 58.7848 47.5292 57.3078 48.6961 55.8291C48.7493 55.7612 48.808 55.697 48.863 55.6291C48.8724 55.6125 48.8857 55.5986 48.9018 55.5883C48.9178 55.5781 48.9361 55.5718 48.955 55.5702C48.974 55.5686 48.993 55.5716 49.0106 55.579C49.0281 55.5863 49.0436 55.5979 49.0557 55.6126C49.1144 55.6694 49.1896 55.7355 49.1217 55.8346C49.0777 55.8969 49.0318 55.9557 48.986 56.018C47.3347 58.0711 45.8339 60.2379 44.1111 62.2322C43.9859 62.3636 43.9052 62.5311 43.8805 62.7109C43.8558 62.8907 43.8883 63.0737 43.9735 63.234C44.0964 63.5203 44.2515 63.7918 44.4359 64.0431C44.4777 64.094 44.5027 64.1567 44.5073 64.2224C44.5119 64.2882 44.4959 64.3538 44.4615 64.41C43.7277 65.9897 43.6011 67.674 43.6671 69.3839C43.6965 70.1325 43.7607 70.8792 43.7937 71.626C43.8377 72.591 43.4268 73.413 42.9718 74.2276C41.8893 76.1632 40.6178 77.9319 38.7519 79.2125C38.1318 79.6382 37.6346 80.2051 37.1337 80.7628C36.9581 80.9446 36.8219 81.1608 36.7337 81.3977C37.7594 81.3164 38.7897 81.3121 39.816 81.3848C42.1076 81.5683 44.3405 81.2729 46.5715 80.7647C48.8649 80.2418 50.7821 79.1703 52.1453 77.2218C52.8003 76.2861 53.3085 75.2697 53.1544 74.0881C52.9581 72.6057 52.1141 71.4792 50.9418 70.6205C49.9235 69.8738 48.8997 69.1418 47.997 68.2574C47.5732 67.8391 47.4466 67.2869 47.2632 66.6869C47.57 66.879 47.8998 67.0319 48.2447 67.1419C48.597 67.2281 48.9584 67.3988 49.3144 67.1236C50.173 66.4594 51.0188 65.7806 51.9013 65.1494C53.9507 63.6816 55.9744 62.179 57.888 60.5424C64.4471 54.9374 69.9366 48.4333 74.1454 40.8908C75.7159 38.0727 77.0204 35.1371 77.6883 31.9557C78.024 30.3595 78.2148 28.7523 77.8717 27.1304C77.4736 25.2333 76.1709 23.9619 74.2757 23.6445C73.184 23.461 72.1126 23.6757 71.0576 23.9344C68.2211 24.6279 65.6782 25.9874 63.2417 27.5341C59.8658 29.6788 56.7633 32.1906 53.7581 34.8234C50.7528 37.4562 48.2539 40.511 45.8247 43.63C44.4579 45.3877 43.3424 47.2995 42.2617 49.2461C40.6674 52.1138 39.1427 55.0108 38.0419 58.1096C37.8951 58.5243 37.774 58.9426 38.0584 59.3572C38.0895 59.3958 38.1075 59.4432 38.1098 59.4927C38.1121 59.5422 38.0986 59.5911 38.0712 59.6324C37.8107 60.0397 37.7997 60.5021 37.7722 60.9644C37.7171 61.9001 37.2951 62.5625 36.3521 62.8505C34.9339 63.2853 33.4899 63.6193 32.0479 63.9623C30.6058 64.3054 29.2151 64.6962 28.0867 65.753C26.5419 67.2025 25.3071 68.7932 25.219 71.0242C25.1529 72.0598 25.2703 73.0989 25.5658 74.0936C25.6667 74.4669 25.8887 74.796 26.1969 75.0294C26.1346 74.5248 26.0777 74.0973 25.9841 73.6698C25.2264 70.2077 26.0759 68.1143 28.6243 65.9824H28.6224ZM43.3093 65.7182C43.449 65.3434 43.6076 64.976 43.7845 64.6173C44.0194 64.2009 44.1515 63.8192 43.7423 63.4395C43.7093 63.4083 43.7111 63.3404 43.6818 63.3055C43.6047 63.2119 43.691 62.9936 43.4781 63.0138C43.2653 63.034 43.247 63.2211 43.2249 63.3991C43.1473 64.1724 43.1763 64.9527 43.3112 65.7182H43.3093Z" fill="#F8F2EA"/>
<path d="M25.7236 36.3976C26.2745 36.3951 26.8184 36.5207 27.3124 36.7645C28.5289 37.3571 28.8958 38.4029 28.3234 39.6322C27.8317 40.6908 26.9675 41.2412 25.8465 41.3862C25.2704 41.4614 24.7879 41.2155 24.3787 40.7917C23.399 39.779 23.2779 38.124 24.1292 37.0581C24.5347 36.5517 25.0961 36.3884 25.7236 36.3976ZM25.4796 38.0892C25.0686 38.5736 25.0447 39.1497 25.4355 39.7404C25.2851 39.19 25.2631 38.6579 25.5474 38.1479C25.5474 38.1479 25.5034 38.1094 25.4796 38.091L25.5364 38.1571L25.5768 38.1112L25.4796 38.0892ZM26.5382 38.0397C26.0318 38.0286 25.6869 38.3974 25.6795 38.957C25.6795 39.4597 26.0208 39.9569 26.3877 39.9661C26.8207 39.9771 27.2372 39.4836 27.2427 38.9533C27.2482 38.3809 26.9932 38.047 26.5382 38.0397Z" fill="#050504"/>
<path d="M82.9521 60.3847C82.9575 60.211 82.9722 60.0376 82.9961 59.8655C83.2787 58.3977 84.9299 57.8748 86.161 58.8454C86.8472 59.3848 87.027 60.0031 86.6472 60.7883C86.3041 61.4984 85.9005 62.1845 85.0675 62.4396C84.8518 62.4989 84.6261 62.5125 84.4048 62.4795C84.1836 62.4465 83.9716 62.3676 83.7827 62.2479C83.5937 62.1282 83.4318 61.9703 83.3074 61.7843C83.183 61.5984 83.0989 61.3885 83.0603 61.1681C82.9989 60.9111 82.9627 60.6487 82.9521 60.3847ZM85.1281 59.893C84.6767 59.893 84.2951 60.1553 84.2988 60.4654C84.2988 60.8544 84.6914 61.2984 85.0235 61.2984C85.1974 61.2798 85.3589 61.1997 85.479 61.0725C85.5991 60.9454 85.6698 60.7795 85.6785 60.6049C85.6913 60.126 85.5207 59.893 85.1336 59.893H85.1281Z" fill="#050504"/>
<path d="M61.862 74.4626C61.8778 74.1432 61.9308 73.8267 62.0198 73.5195C62.2675 72.7453 62.8307 72.4187 63.7224 72.5435C64.2178 72.6202 64.6856 72.8216 65.0819 73.1287C65.614 73.5214 65.7424 74.0956 65.6048 74.7359C65.5108 75.2245 65.2498 75.6652 64.8665 75.9825C64.4833 76.2998 64.0016 76.474 63.5041 76.4753C62.7702 76.4753 62.2858 76.1267 62.0363 75.4295C61.9288 75.1181 61.87 74.7919 61.862 74.4626ZM63.1261 75.5175V75.5689L63.172 75.5561L63.1206 75.5249C62.772 74.791 62.4363 74.0424 63.1555 73.27C62.6876 73.3397 62.5684 73.6553 62.5445 73.9727C62.5078 74.4662 62.3721 75.0056 62.8454 75.3946C62.917 75.457 62.9904 75.5744 63.1261 75.5175ZM64.4765 74.9323C64.5415 74.8751 64.5932 74.8044 64.6281 74.7252C64.6629 74.646 64.6801 74.5601 64.6783 74.4736C64.7076 74.2369 64.6783 74.0277 64.3939 73.9507C64.1095 73.8736 63.5426 73.9855 63.46 74.1727C63.4461 74.2336 63.4499 74.2973 63.471 74.3562C63.5591 74.78 63.7279 74.8717 64.2049 74.791C64.2728 74.7781 64.5077 74.5543 64.4361 74.8974C64.3994 74.9249 64.293 74.9121 64.3462 74.9928C64.3847 75.0368 64.4545 75.002 64.4765 74.9323Z" fill="#050504"/>
<path d="M45.8578 22.6906C44.8267 22.6906 43.9735 21.8925 44.0231 20.9238C44.0799 19.7881 44.7404 18.9863 46.1715 19.0175C46.5985 19.0295 47.0033 19.2098 47.2979 19.5191C47.5924 19.8285 47.7527 20.2417 47.7439 20.6687C47.7255 21.8815 46.9714 22.6998 45.8578 22.6906ZM46.8797 20.7605C46.8925 20.3935 46.7366 20.2376 46.3293 20.2211C45.8174 20.2009 45.3881 20.4798 45.3661 20.8449C45.3385 21.3127 45.7789 21.8815 46.1642 21.8778C46.5036 21.8741 46.8577 21.3127 46.8797 20.7605ZM45.0597 22.0283C44.8432 21.5916 44.6835 21.2467 44.6927 20.8504C44.7019 20.4541 44.8964 20.1293 45.0743 19.7495C44.1827 20.2688 44.1496 21.4044 45.0597 22.0283Z" fill="#050504"/>
<path d="M81.2421 46.5675C81.2421 47.4207 80.7063 48.0592 79.9963 48.0555C79.1175 48.0555 78.4662 47.4482 78.4808 46.6483C78.4918 45.8905 79.1285 45.3896 80.0752 45.3896C80.8476 45.3915 81.2457 45.7915 81.2421 46.5675ZM79.5119 46.5107C79.5264 46.6405 79.5763 46.7638 79.6562 46.867C79.7362 46.9703 79.8431 47.0495 79.9651 47.0959C80.0752 47.1491 80.2146 47.1932 80.31 47.0758C80.3603 47.0192 80.3953 46.9508 80.4116 46.8769C80.428 46.8031 80.4253 46.7263 80.4036 46.6538C80.3504 46.4868 79.7376 46.2318 79.5798 46.307C79.4954 46.3492 79.5193 46.4299 79.5119 46.5107Z" fill="#050504"/>
<path d="M69.1348 68.263C68.6046 68.263 68.2175 67.775 68.2395 67.1512C68.2578 66.6228 68.8082 65.9623 69.3183 65.8522C70.0962 65.687 70.665 66.2687 70.476 67.0337C70.287 67.7988 69.7806 68.263 69.1348 68.263ZM69.4247 66.8337C69.2302 66.8337 69.0853 66.8521 69.0853 67.0943C69.0853 67.2998 69.1752 67.4264 69.3532 67.4099C69.5311 67.3933 69.7916 67.353 69.7916 67.0961C69.7898 66.8741 69.5586 66.8723 69.4247 66.8282V66.8337Z" fill="#050504"/>
<path d="M25.0594 54.6108C25.7016 54.6108 26.1749 55.0035 26.1804 55.552C26.1833 55.692 26.1586 55.8311 26.1077 55.9614C26.0568 56.0917 25.9807 56.2108 25.8837 56.3117C25.7868 56.4125 25.6708 56.4933 25.5426 56.5494C25.4144 56.6054 25.2764 56.6356 25.1365 56.6382C24.586 56.6382 24.1512 56.1557 24.142 55.508C24.1347 54.8897 24.4246 54.6145 25.0594 54.6108ZM25.2796 55.3741C25.2154 55.4291 25.0154 55.4034 25.0355 55.5832C25.0402 55.6637 25.0737 55.7398 25.13 55.7975C25.1863 55.8551 25.2616 55.8905 25.3419 55.897C25.5254 55.897 25.5254 55.7135 25.5254 55.5869C25.5254 55.4603 25.4832 55.3557 25.2796 55.3741Z" fill="#050504"/>
<path d="M37.8676 35.117C37.8573 34.9832 37.8752 34.8487 37.92 34.7222C37.9649 34.5956 38.0357 34.4799 38.128 34.3824C38.2203 34.285 38.332 34.2079 38.4559 34.1562C38.5798 34.1045 38.7131 34.0793 38.8473 34.0823C39.3977 34.0823 39.8784 34.4987 39.8766 34.9996C39.8766 35.55 39.2198 36.227 38.6748 36.2436C38.2363 36.2491 37.8731 35.7482 37.8676 35.117ZM38.6528 35.1684C38.6528 35.295 38.8491 35.6858 38.9482 35.6473C39.1427 35.5739 39.3684 35.4638 39.361 35.2235C39.3567 35.1162 39.3105 35.015 39.2322 34.9415C39.154 34.8681 39.05 34.8283 38.9427 34.8308C38.7684 34.8217 38.6565 34.8987 38.6528 35.1684Z" fill="#050504"/>
<path d="M28.6243 65.9824C26.0795 68.1143 25.2264 70.2022 25.9859 73.6882C26.0795 74.1157 26.1364 74.5432 26.1988 75.0477C25.8905 74.8144 25.6685 74.4852 25.5676 74.112C25.2721 73.1173 25.1547 72.0781 25.2209 71.0425C25.3089 68.8115 26.5437 67.2208 28.0885 65.7714C29.2169 64.7109 30.6058 64.3238 32.0497 63.9807C33.4936 63.6376 34.9357 63.3037 36.3539 62.8689C37.297 62.5808 37.7189 61.9185 37.774 60.9828C37.8015 60.5204 37.8125 60.0654 38.073 59.6508C38.1004 59.6095 38.114 59.5606 38.1117 59.5111C38.1093 59.4616 38.0913 59.4141 38.0602 59.3756C37.7758 58.9609 37.8969 58.5426 38.0437 58.128C39.1445 55.0291 40.6747 52.1321 42.2635 49.2645C43.3442 47.3215 44.4652 45.4116 45.8266 43.6484C48.2576 40.5294 50.7693 37.4654 53.7599 34.8418C56.7505 32.2181 59.8676 29.7045 63.2435 27.5524C65.68 26.0058 68.2229 24.6462 71.0594 23.9527C72.1144 23.694 73.1858 23.4794 74.2775 23.6628C76.1728 23.9802 77.4754 25.2517 77.8735 27.1488C78.2148 28.7707 78.024 30.3779 77.6901 31.9741C77.0222 35.1555 75.7178 38.091 74.1472 40.9092C69.9421 48.448 64.4526 54.9521 57.8935 60.5571C55.9817 62.1937 53.9635 63.6982 51.9068 65.1641C51.0243 65.7952 50.1785 66.4741 49.3199 67.1383C48.9639 67.4135 48.6025 67.2428 48.2502 67.1566C47.9053 67.0466 47.5755 66.8937 47.2686 66.7016C47.4521 67.3016 47.5787 67.8538 48.0025 68.2721C48.9052 69.1564 49.929 69.8885 50.9473 70.6352C52.1196 71.4939 52.9654 72.6204 53.1599 74.1028C53.314 75.2844 52.8058 76.3045 52.1508 77.2365C50.7876 79.185 48.8704 80.2565 46.577 80.7794C44.3459 81.2876 42.1131 81.5812 39.8215 81.3995C38.7952 81.3268 37.7649 81.3311 36.7392 81.4124C36.8274 81.1755 36.9635 80.9593 37.1392 80.7775C37.6401 80.2271 38.1373 79.6529 38.7574 79.2272C40.616 77.9429 41.8874 76.1779 42.9772 74.2423C43.4341 73.4277 43.8432 72.6057 43.7992 71.6407C43.7662 70.8939 43.702 70.1472 43.6726 69.3986C43.6066 67.6887 43.7276 66.0044 44.467 64.4247C44.5014 64.3685 44.5174 64.3029 44.5128 64.2371C44.5082 64.1714 44.4832 64.1087 44.4413 64.0578C44.257 63.8065 44.1019 63.535 43.979 63.2487C43.8938 63.0884 43.8613 62.9054 43.886 62.7256C43.9107 62.5457 43.9914 62.3783 44.1166 62.2469C45.8394 60.2526 47.3439 58.0858 48.9914 56.0327C49.0373 55.974 49.0832 55.9153 49.1272 55.8493C49.1951 55.7502 49.1272 55.6841 49.0612 55.6273C49.0491 55.6126 49.0336 55.601 49.0161 55.5937C48.9985 55.5863 48.9795 55.5833 48.9605 55.5849C48.9416 55.5865 48.9233 55.5928 48.9073 55.603C48.8912 55.6133 48.8779 55.6272 48.8685 55.6438C48.8135 55.7117 48.7548 55.7759 48.7016 55.8438C47.531 57.3201 46.3605 58.797 45.1899 60.2746C44.8321 60.7223 44.456 61.1553 44.0891 61.5938C44.0084 61.6892 43.9313 61.7882 43.8414 61.8763C43.6377 62.0763 43.6139 62.4359 43.2506 62.5019C42.8536 62.5542 42.4497 62.5056 42.0764 62.3607L41.7535 62.2598C41.6994 62.4698 41.7142 62.6917 41.7957 62.8927C41.9259 63.3881 42.0874 63.8743 42.1901 64.3733C42.658 66.6319 42.0892 68.5418 40.3554 70.1307C39.0697 71.3351 37.5565 72.2708 35.9044 72.8828C34.5936 73.3519 33.1906 73.5052 31.8093 73.3304C30.5373 73.197 29.2524 73.3994 28.083 73.9175C27.4555 74.1817 27.0849 74.7138 26.918 75.3853C26.8975 75.4825 26.8622 75.5759 26.8134 75.6623C26.762 75.7431 26.685 75.8458 26.5804 75.8293C26.4758 75.8128 26.4556 75.6734 26.4501 75.5871C26.34 74.1469 25.8392 72.7543 25.9456 71.2884C26.0758 69.505 26.8629 68.0208 28.039 66.7218C28.2481 66.4924 28.483 66.2851 28.7068 66.0668L28.8206 65.964C29.0307 65.8556 29.209 65.6944 29.338 65.4962C29.1071 65.577 28.9006 65.7153 28.738 65.898L28.6243 65.9824ZM37.6474 63.5386H37.5557L37.5758 63.5936C37.5979 63.5716 37.618 63.5496 37.6382 63.5257L37.7098 63.4652L37.6547 63.4413L37.6474 63.5386ZM65.2507 51.2001L65.3369 51.2404L65.3479 51.2056C65.3167 51.2056 65.2856 51.2056 65.2562 51.2056C65.2562 51.2441 65.2397 51.2808 65.1865 51.2716C65.1993 51.345 65.0489 51.4349 65.2048 51.4973C64.9883 51.3854 65.0214 51.6056 64.9645 51.6936L65.1975 51.4991C65.1847 51.4239 65.2929 51.3414 65.1865 51.2698C65.2085 51.2826 65.2415 51.3138 65.2525 51.3065C65.3076 51.2771 65.2727 51.2368 65.2507 51.2001ZM62.7408 54.0109C62.7308 54.0108 62.7208 54.0129 62.7116 54.0169C62.7024 54.021 62.6942 54.0269 62.6874 54.0344C62.6807 54.0418 62.6756 54.0506 62.6724 54.0601C62.6693 54.0697 62.6682 54.0798 62.6693 54.0898L62.5867 54.1485L62.4913 54.2054L62.4271 54.2971L62.4179 54.3888L62.4729 54.3576L62.4197 54.2879C62.4601 54.3081 62.5078 54.3448 62.5335 54.2769C62.5335 54.2586 62.5041 54.2255 62.4894 54.2017C62.5225 54.2164 62.5298 54.2842 62.5904 54.2402C62.6509 54.1962 62.5904 54.1705 62.5904 54.1393C62.6326 54.2365 62.6711 54.1705 62.7114 54.1393L62.7977 54.0567L62.8656 53.9889L62.939 53.921L64.0618 52.7853C64.2321 52.6478 64.3689 52.4734 64.4618 52.2752C64.2783 52.3894 64.1263 52.5478 64.0196 52.7357C63.5389 53.0054 63.2582 53.4696 62.8949 53.8604C62.8851 53.8607 62.8755 53.8629 62.8665 53.8669C62.8576 53.8709 62.8496 53.8767 62.8429 53.8839C62.8362 53.891 62.8311 53.8995 62.8277 53.9087C62.8243 53.9179 62.8229 53.9277 62.8234 53.9375L62.7408 54.0109ZM54.0626 59.5774V59.5591V59.5737L53.947 59.5113C53.947 59.482 54.0057 59.4655 53.958 59.4233C53.9103 59.3811 53.9066 59.4453 53.881 59.4508C53.8938 59.4251 53.9488 59.4251 53.9213 59.3682C53.8938 59.3114 53.8608 59.3462 53.8296 59.3407C53.9085 59.2783 53.8296 59.2582 53.7984 59.2251C53.5709 58.9664 53.3691 58.6747 53.0517 58.5169C53.281 58.7738 53.3617 59.1756 53.7562 59.2673C53.7563 59.2775 53.7586 59.2876 53.763 59.2968C53.7674 59.306 53.7738 59.3141 53.7816 59.3205C53.7895 59.327 53.7987 59.3317 53.8086 59.3342C53.8184 59.3368 53.8287 59.3371 53.8388 59.3352L53.881 59.449C53.9268 59.449 53.9488 59.4673 53.9488 59.5132C53.9892 59.5169 54.0498 59.504 54.0626 59.5792V59.5774ZM38.0125 63.0047C38.0694 62.9936 38.0841 62.9533 38.0822 62.9037C38.0681 62.8943 38.0515 62.8891 38.0345 62.8891C38.0107 62.9258 37.9795 62.9661 38.0198 63.012C37.9886 62.9955 37.9575 62.9863 37.9483 63.0303C37.9483 63.045 37.9648 63.0652 37.974 63.0817L38.0125 63.0047ZM62.1592 54.5136C62.1757 54.587 62.2124 54.6163 62.2785 54.5613C62.2973 54.5379 62.3128 54.512 62.3243 54.4842L62.1629 54.5117C62.1794 54.5393 62.1629 54.6163 62.2344 54.5705L62.1592 54.5136ZM29.5013 65.443L29.6022 65.3568C29.5914 65.3459 29.5781 65.338 29.5635 65.3336C29.5489 65.3292 29.5334 65.3285 29.5185 65.3316C29.5036 65.3347 29.4896 65.3415 29.478 65.3513C29.4663 65.3612 29.4573 65.3737 29.4517 65.3879C29.4077 65.4026 29.338 65.4118 29.3857 65.476C29.4334 65.5402 29.4701 65.4668 29.5068 65.4448L29.5013 65.443ZM36.4035 64.2431L36.253 64.3073C36.1246 64.3403 35.9815 64.3513 35.8861 64.5018C35.9611 64.5147 36.038 64.5119 36.1119 64.4936C36.1858 64.4753 36.2551 64.4418 36.3154 64.3954L36.4787 64.3256C36.5227 64.2963 36.6236 64.2834 36.5833 64.2174C36.5429 64.1513 36.4677 64.1991 36.409 64.2449L36.4035 64.2431ZM37.8217 63.3514C37.8529 63.2835 37.9868 63.2395 37.8987 63.1551C37.8676 63.1257 37.7978 63.2285 37.7758 63.2964C37.7391 63.3166 37.6786 63.3349 37.7245 63.3863C37.7703 63.4376 37.7997 63.3808 37.8272 63.3532L37.8217 63.3514ZM37.3997 63.6707C37.3465 63.6707 37.2915 63.7 37.3373 63.7569C37.3832 63.8138 37.4217 63.7569 37.4529 63.7184C37.4841 63.6798 37.5446 63.6578 37.4731 63.6119C37.4713 63.6083 37.4309 63.6523 37.4052 63.6762L37.3997 63.6707ZM42.6562 57.2381C42.6423 57.2135 42.6201 57.1944 42.5937 57.1844C42.5672 57.1743 42.538 57.1739 42.5112 57.1831C42.5021 57.1831 42.5002 57.2014 42.4947 57.2106L42.6598 57.2326C42.7185 57.3629 42.8433 57.3794 42.9571 57.3849C42.9599 57.3961 42.9651 57.4065 42.9723 57.4155C42.9794 57.4245 42.9884 57.432 42.9986 57.4373C43.0088 57.4427 43.02 57.4458 43.0315 57.4466C43.043 57.4474 43.0545 57.4457 43.0653 57.4418C43.0745 57.4418 43.0763 57.4216 43.0818 57.4106L42.9516 57.3904C42.9039 57.2546 42.7718 57.2547 42.6617 57.24L42.6562 57.2381ZM43.6304 57.6858C43.6304 57.7519 43.6854 57.7775 43.7442 57.7904C43.7485 57.7868 43.7521 57.7823 43.7546 57.7773C43.7571 57.7722 43.7586 57.7667 43.7588 57.761C43.746 57.684 43.6873 57.6858 43.6286 57.6876C43.5776 57.6157 43.5085 57.5586 43.4282 57.5221C43.3479 57.4857 43.2594 57.4713 43.1717 57.4803C43.2308 57.5447 43.3025 57.5964 43.3824 57.632C43.4622 57.6677 43.5485 57.6866 43.6359 57.6876L43.6304 57.6858ZM42.713 75.5633C42.2929 76.1449 41.7572 76.6384 41.4398 77.2953C41.9859 76.8289 42.4358 76.2605 42.7644 75.622C42.7919 75.5669 42.7351 75.5706 42.7094 75.5559C42.7094 75.5945 42.7406 75.6165 42.7828 75.6C42.7851 75.5951 42.7862 75.5898 42.7862 75.5844C42.7862 75.579 42.7851 75.5737 42.7828 75.5688C42.7718 75.5284 42.7442 75.5468 42.7167 75.5651L42.713 75.5633ZM35.3852 64.7275C35.5654 64.7136 35.7367 64.6437 35.8751 64.5275C35.6916 64.4394 35.5485 64.5385 35.4035 64.5898C35.2953 64.6137 35.187 64.6431 35.077 64.6614C33.7541 64.8779 32.4662 65.2118 31.2846 65.8613C29.4095 66.8906 27.9436 68.2905 27.2757 70.3912C27.0796 71.0334 27.0135 71.7083 27.0813 72.3764C27.1177 72.3401 27.1503 72.3001 27.1785 72.2571C27.3198 71.9672 27.4702 71.6792 27.5968 71.382C28.4958 69.2812 30.2003 68.2629 32.3671 68.0428C33.9871 67.8758 35.5099 67.5492 36.8897 66.6594C37.2301 66.4685 37.6036 66.344 37.9905 66.2925C37.7898 66.7598 37.4796 67.172 37.086 67.4942C35.7246 68.6592 34.1908 69.4207 32.3891 69.6151C31.546 69.7179 30.7316 69.9867 29.993 70.4059C30.0857 70.4413 30.1883 70.4413 30.281 70.4059C31.3935 70.029 32.5593 69.8333 33.7339 69.8261C35.1614 69.8151 36.4658 69.4592 37.6107 68.5822C37.9399 68.3307 38.3056 68.1309 38.695 67.9896C37.818 69.3638 36.62 70.0977 35.1063 70.3875C35.2017 70.4829 35.299 70.4463 35.3907 70.4371C35.9246 70.382 36.4603 70.3417 36.9906 70.2646C38.1024 70.1032 39.1555 69.8261 39.9738 68.9528C41.1939 67.6538 41.3645 66.0539 41.2581 64.4155C41.17 63.0505 41.1425 61.702 41.3774 60.3535C41.401 60.2716 41.3942 60.1838 41.3581 60.1065C41.322 60.0293 41.2591 59.9677 41.1811 59.9333C40.7878 59.6919 40.3797 59.4756 39.9591 59.2857C39.3665 59.0178 39.2252 59.082 38.9555 59.6856C38.8923 59.8481 38.8486 60.0174 38.8253 60.1902C38.78 60.6619 38.7972 61.1376 38.8767 61.6048C39.0344 63.0579 38.5996 64.0963 37.2034 64.7348C36.7244 64.945 36.2285 65.1144 35.7209 65.2412C34.3467 65.6081 32.8661 65.6081 31.6222 66.4301C31.6025 66.4463 31.5795 66.458 31.5547 66.4642C31.53 66.4704 31.5042 66.471 31.4792 66.4659C31.4542 66.4608 31.4306 66.4501 31.4103 66.4347C31.39 66.4193 31.3733 66.3995 31.3617 66.3769C31.2846 66.2503 31.3928 66.1934 31.4699 66.1402C31.7993 65.8897 32.1727 65.703 32.5707 65.5898L35.3852 64.7275ZM72.7749 25.281C71.1236 25.3966 69.4595 25.9122 67.8505 26.6075C63.9462 28.2973 60.5116 30.721 57.2532 33.4198C53.7562 36.3389 50.661 39.6194 47.7603 43.1273C45.9938 45.2946 44.4927 47.6654 43.2891 50.1892C43.1625 50.4497 43.2176 50.5561 43.4726 50.6478C44.1001 50.8919 44.7074 51.1982 45.344 51.4056C47.6888 52.1963 49.718 53.4935 51.5472 55.1392C52.8095 56.2731 54.0865 57.3886 55.2827 58.5958C55.8111 59.1297 55.9267 59.104 56.5193 58.5958L56.6312 58.4949C58.3723 56.9226 60.0731 55.3043 61.6987 53.6109C65.6048 49.536 69.155 45.184 72.0153 40.3019C73.9619 36.9755 75.5398 33.5134 75.9232 29.6091C76.0168 28.6569 75.9232 27.7249 75.4719 26.8791C74.9288 25.8645 74.1234 25.215 72.7785 25.2902L72.7749 25.281ZM43.557 79.4786C44.7129 79.3703 45.8669 79.3189 46.9971 79.0144C47.9053 78.7685 48.597 78.2383 49.2079 77.5613C49.685 77.0329 49.9638 76.3926 50.2354 75.7486C50.9509 74.0515 50.5179 72.5507 49.4189 71.1856C48.9125 70.5563 48.3273 69.9894 47.8062 69.3693C46.9989 68.4553 46.4984 67.3112 46.3751 66.098C46.3054 65.3457 46.5311 64.643 46.7421 63.9385C46.7733 63.8358 46.8412 63.7367 46.7586 63.6211C46.4412 63.1808 46.0247 63.1533 45.6688 63.5569C45.5941 63.6411 45.5248 63.7299 45.4614 63.8229C44.7138 64.9633 44.426 66.3446 44.656 67.6887C44.7844 68.5345 45.1184 69.3197 45.4614 70.0922C46.1036 71.5361 45.9788 72.9048 45.1404 74.2221C44.8376 74.6955 44.5349 75.1688 44.2102 75.6257C43.5122 76.6093 42.7471 77.5436 41.9204 78.4218C42.0178 78.4689 42.1297 78.4762 42.2323 78.442C43.5993 78.2094 44.8403 77.5018 45.7367 76.4439C46.1635 75.9067 46.6477 75.4176 47.1806 74.9853C47.254 74.9303 47.309 74.8019 47.4228 74.8569C47.5365 74.912 47.4705 75.0404 47.4815 75.1303C47.5073 75.4277 47.4728 75.7272 47.3801 76.0109C47.2874 76.2946 47.1384 76.5567 46.9421 76.7815C46.0265 77.9539 44.9569 78.9171 43.557 79.4786ZM40.1518 78.9282L40.183 78.9887C40.2449 78.9801 40.3062 78.9672 40.3664 78.9502C41.1572 78.6676 41.7278 78.0897 42.2874 77.5044C43.269 76.4751 43.8542 75.2165 44.4175 73.9285C44.9367 72.7415 45.1514 71.5654 44.834 70.294C44.5936 69.3087 44.3019 68.3327 44.2138 67.3126C44.121 68.3172 44.1432 69.3292 44.2799 70.3288C44.4193 71.6131 44.4322 72.8681 43.7937 74.0515C43.6251 74.3846 43.4786 74.7284 43.3552 75.0807C42.9657 76.0985 42.3415 77.01 41.5333 77.7411C41.0838 78.1521 40.6105 78.5374 40.1518 78.9282ZM39.4014 80.5794C39.5647 80.4638 39.7261 80.5794 39.8931 80.5794C42.0792 80.6541 44.2634 80.3816 46.3641 79.7721C47.5163 79.4455 48.6704 79.1336 49.6336 78.3704C50.773 77.4677 51.6903 76.4017 52.0536 74.956C52.2517 74.1689 51.8958 73.5176 51.4591 72.8424C51.4483 72.8753 51.4403 72.909 51.4353 72.9433C51.4353 72.991 51.4518 73.0405 51.461 73.0882C51.6811 74.1689 51.6279 75.2092 51.094 76.2073C49.9932 78.2878 48.2319 79.4015 45.9275 79.6932C44.4689 79.8767 42.9919 79.9629 41.5443 80.2198C40.8306 80.3721 40.1059 80.4179 39.4014 80.5867V80.5794ZM37.9189 62.1442C37.552 62.8982 36.875 63.2542 36.1246 63.5C35.3471 63.764 34.5449 63.9484 33.7303 64.0504C32.6213 64.1718 31.5712 64.6114 30.7067 65.3164C30.5837 65.4173 30.3819 65.5586 30.4681 65.6833C30.5544 65.8081 30.7617 65.6833 30.8773 65.5953C31.9598 64.8339 33.178 64.5201 34.4807 64.3972C35.532 64.2981 36.5301 63.9899 37.352 63.2725C37.5206 63.1366 37.6584 62.9663 37.7561 62.773C37.8539 62.5798 37.9094 62.3679 37.9189 62.1515V62.1442ZM47.0925 65.1201C47.0723 65.2026 47.1255 65.2852 47.2246 65.3623C47.5473 65.6138 47.9036 65.8189 48.2832 65.9714C48.3786 66.0099 48.4979 66.087 48.586 65.9714C48.6264 65.9226 48.6497 65.8619 48.6523 65.7986C48.655 65.7354 48.6368 65.6729 48.6006 65.621C48.386 65.3329 48.2686 64.977 47.9952 64.7348C47.7897 64.5513 47.5824 64.1422 47.3806 64.2394C47.1512 64.3513 47.1751 64.777 47.0925 65.1274V65.1201ZM40.948 53.8054C42.0489 53.6641 42.9662 54.1026 43.8946 54.5393C44.823 54.9759 45.6431 55.5484 46.5678 56.0823C46.5513 56.0223 46.523 55.9663 46.4846 55.9175C46.4462 55.8686 46.3983 55.828 46.3439 55.7979C45.5761 55.2034 44.7373 54.7067 43.8469 54.3191C43.0616 53.9522 42.2213 53.7834 41.4012 53.5393C41.1022 53.4568 40.9719 53.4605 40.948 53.8127V53.8054ZM35.2366 71.6517C33.1542 71.5434 30.1673 71.9159 29.2352 72.3544C31.2351 72.0718 33.2312 71.8168 35.2366 71.659V71.6517ZM34.5724 70.5013C32.9432 70.4371 31.3451 70.5912 29.8021 71.1618C31.3767 70.8426 32.97 70.6245 34.5724 70.5086V70.5013ZM42.8965 61.9038C42.715 61.334 42.3619 60.8342 41.8856 60.4727C41.8397 60.8287 41.7994 61.1351 41.7627 61.4433C41.7561 61.4672 41.7544 61.4921 41.7577 61.5166C41.7611 61.5412 41.7693 61.5648 41.782 61.586C41.7947 61.6073 41.8115 61.6257 41.8315 61.6403C41.8516 61.6549 41.8743 61.6653 41.8984 61.6708C42.2146 61.8085 42.5524 61.8898 42.8965 61.9112V61.9038ZM47.3549 60.8764C48.4557 61.4763 49.4648 62.2469 50.584 62.8267C49.6923 61.8763 48.564 61.3149 47.3585 60.8837L47.3549 60.8764ZM49.8593 57.8693C50.6764 58.2646 51.4391 58.7634 52.1288 59.3536C51.927 58.6013 50.4023 57.6216 49.8593 57.8766V57.8693ZM50.3308 71.6003C50.3583 71.6535 50.3877 71.7067 50.4152 71.7617C50.9668 72.8493 51.1188 74.0962 50.8445 75.2844C50.828 75.3615 50.661 75.455 50.8298 75.5174C50.9417 75.5578 50.9509 75.411 50.9711 75.3339C51.1478 74.7043 51.182 74.0431 51.0712 73.3986C50.9605 72.754 50.7075 72.1422 50.3308 71.6076V71.6003ZM45.6596 62.9441C45.3873 62.7875 45.0938 62.6714 44.7881 62.5992C44.6927 62.5772 44.5423 62.5203 44.5349 62.7019C44.5353 62.8516 44.5723 62.9988 44.6426 63.1309C44.713 63.263 44.8146 63.3759 44.9386 63.4597C45.122 63.5991 45.1789 63.3074 45.3055 63.2303C45.4301 63.146 45.5484 63.0528 45.6596 62.9514V62.9441ZM50.3987 60.7718C50.1583 60.2636 48.6795 59.4049 48.1842 59.4875C48.9594 59.851 49.7006 60.2833 50.3987 60.7791V60.7718ZM41.2746 54.4732C41.6732 54.6703 42.1146 54.7648 42.5589 54.7484C42.1223 54.5741 41.7315 54.4402 41.2746 54.4806V54.4732ZM32.7872 72.7763C33.5211 72.8717 34.0036 72.8369 34.3596 72.6736C33.822 72.6039 33.3101 72.736 32.7872 72.7837V72.7763ZM42.0782 52.7082C41.5755 52.3743 41.5608 52.378 41.3865 52.9064C41.5984 52.788 41.8357 52.7225 42.0782 52.7156V52.7082ZM76.4571 29.255C76.3536 29.5463 76.3389 29.8618 76.4149 30.1614C76.4852 30.0217 76.5253 29.8689 76.5325 29.7127C76.5398 29.5566 76.5141 29.4006 76.4571 29.255ZM36.1319 71.4957C35.8349 71.4705 35.5361 71.5164 35.2604 71.6296C35.5575 71.6943 35.868 71.6466 36.1319 71.4957ZM38.251 61.5185V62.2084C38.3296 62.1106 38.3725 61.9889 38.3725 61.8635C38.3725 61.738 38.3296 61.6163 38.251 61.5185ZM64.4526 52.1963L64.5242 52.2679L64.9223 51.7909L64.8544 51.734L64.4526 52.1963ZM36.6144 64.1935C36.6414 64.2047 36.6703 64.2104 36.6994 64.2101C36.7286 64.2099 36.7574 64.2038 36.7841 64.1921C36.8109 64.1805 36.835 64.1635 36.855 64.1423C36.875 64.1212 36.8905 64.0961 36.9007 64.0688C36.7612 64.0082 36.6988 64.0761 36.6144 64.1935ZM40.0747 78.9667C40.0747 78.9758 40.0509 78.9869 40.0527 78.9942C40.0585 79.0114 40.0659 79.0279 40.0747 79.0437C40.0747 79.0346 40.1004 79.0254 40.0986 79.0199C40.093 79.0012 40.0849 78.9833 40.0747 78.9667Z" fill="#050504"/>
<path d="M26.5382 38.0398C26.9895 38.0398 27.2482 38.381 27.2427 38.9571C27.2427 39.4874 26.8208 39.9809 26.3878 39.9699C26.0208 39.9607 25.6722 39.4635 25.6796 38.9608C25.6869 38.3976 26.0318 38.0288 26.5382 38.0398Z" fill="#F8F2EA"/>
<path d="M25.4796 38.0784C25.5034 38.1004 25.5493 38.1334 25.5475 38.1389C25.2631 38.649 25.2851 39.1847 25.4356 39.7315C25.0448 39.1498 25.0686 38.5737 25.4796 38.0802V38.0784Z" fill="#F8F2EA"/>
<path d="M25.4796 38.0892L25.5766 38.102L25.5363 38.1478C25.518 38.1259 25.4979 38.1039 25.4796 38.0801V38.0892Z" fill="#F8F2EA"/>
<path d="M85.1335 59.8931C85.5115 59.8931 85.6839 60.1261 85.6839 60.6049C85.6753 60.7796 85.6046 60.9455 85.4845 61.0726C85.3644 61.1998 85.2028 61.2799 85.0289 61.2985C84.6969 61.2985 84.3097 60.8545 84.3042 60.4655C84.3006 60.1554 84.6822 59.8912 85.1335 59.8931Z" fill="#F8F2EA"/>
<path d="M64.4416 74.8901C64.5132 74.547 64.2783 74.7709 64.2104 74.7837C63.7279 74.8644 63.5591 74.7727 63.4765 74.3489C63.4554 74.2901 63.4516 74.2264 63.4655 74.1654C63.5481 73.9819 64.0967 73.8609 64.3994 73.9434C64.7021 74.026 64.7131 74.2296 64.6838 74.4663C64.6856 74.5528 64.6684 74.6387 64.6336 74.718C64.5987 74.7972 64.547 74.8678 64.482 74.925C64.4677 74.9143 64.4542 74.9027 64.4416 74.8901Z" fill="#F8F2EA"/>
<path d="M63.1261 75.5175C62.9904 75.5744 62.917 75.457 62.8418 75.3946C62.3684 75.0057 62.5042 74.4663 62.5409 73.9727C62.5647 73.6553 62.684 73.3397 63.1518 73.27C62.4326 74.0424 62.7684 74.7837 63.117 75.5249L63.1261 75.5175Z" fill="#F8F2EA"/>
<path d="M64.4761 74.9322C64.4542 75.0018 64.3846 75.0366 64.3517 74.9853C64.2986 74.9048 64.4048 74.9176 64.4414 74.8901C64.4519 74.905 64.4636 74.919 64.4761 74.9322Z" fill="#F8F2EA"/>
<path d="M63.1169 75.5248L63.1676 75.5556L63.1224 75.5683C63.1233 75.5514 63.1233 75.5345 63.1224 75.5176L63.1169 75.5248Z" fill="#F8F2EA"/>
<path d="M46.8797 20.7604C46.8577 21.3108 46.5128 21.8741 46.1715 21.8778C45.7862 21.8778 45.3459 21.3127 45.3734 20.8448C45.3954 20.4779 45.8248 20.2008 46.3366 20.221C46.7366 20.2375 46.8926 20.3935 46.8797 20.7604Z" fill="#F8F2EA"/>
<path d="M45.0597 22.0282C44.1423 21.4044 44.1827 20.2688 45.0817 19.7422C44.8982 20.1293 44.7147 20.4614 44.7001 20.843C44.6854 21.2246 44.8432 21.5916 45.0597 22.0282Z" fill="#F8F2EA"/>
<path d="M79.512 46.5108C79.512 46.4337 79.4955 46.3493 79.5799 46.3071C79.7377 46.2319 80.3504 46.4906 80.4037 46.6539C80.4253 46.7263 80.4281 46.8032 80.4117 46.877C80.3953 46.9509 80.3603 47.0193 80.3101 47.0758C80.2147 47.1933 80.0752 47.1492 79.9652 47.096C79.8431 47.0496 79.7362 46.9704 79.6563 46.8671C79.5763 46.7639 79.5264 46.6406 79.512 46.5108Z" fill="#F8F2EA"/>
<path d="M69.425 66.8284C69.5628 66.8724 69.7924 66.8743 69.7924 67.091C69.7924 67.3482 69.5371 67.3867 69.3534 67.4051C69.1698 67.4235 69.0853 67.2949 69.0853 67.0892C69.0853 66.8467 69.2304 66.8357 69.425 66.8284Z" fill="#F8F2EA"/>
<path d="M25.2799 55.3742C25.4837 55.3558 25.5572 55.4366 25.5407 55.5872C25.5241 55.7378 25.5407 55.8976 25.357 55.8976C25.2753 55.8928 25.1982 55.8582 25.1403 55.8003C25.0824 55.7424 25.0477 55.6653 25.0429 55.5835C25.0154 55.4035 25.2156 55.4293 25.2799 55.3742Z" fill="#F8F2EA"/>
<path d="M38.6528 35.1687C38.6528 34.8988 38.7685 34.8216 38.943 34.8308C39.0504 34.8283 39.1545 34.8681 39.2328 34.9416C39.3112 35.0151 39.3575 35.1165 39.3618 35.2238C39.3618 35.4589 39.1432 35.5747 38.9485 35.6481C38.8493 35.6867 38.6491 35.2955 38.6528 35.1687Z" fill="#F8F2EA"/>
<path d="M72.7785 25.2903C74.1234 25.2151 74.9288 25.8646 75.4664 26.8774C75.9141 27.7232 76.0168 28.6552 75.9177 29.6074C75.5343 33.508 73.9564 36.9738 72.0098 40.3001C69.1495 45.1823 65.5993 49.5343 61.6932 53.6092C60.0676 55.3026 58.3668 56.9208 56.6257 58.4932L56.5138 58.5941C55.9212 59.0968 55.8056 59.1225 55.2772 58.5941C54.0809 57.3869 52.804 56.2714 51.5417 55.1375C49.707 53.4863 47.6888 52.202 45.3385 51.4038C44.7019 51.1892 44.0946 50.8901 43.4671 50.6461C43.2176 50.5489 43.1625 50.448 43.2836 50.1874C44.4891 47.6641 45.992 45.2939 47.7603 43.1274C50.661 39.6195 53.7562 36.339 57.266 33.4291C60.5245 30.7303 63.9591 28.3066 67.8633 26.6168C69.4632 25.9215 71.1273 25.4059 72.7785 25.2903ZM55.9175 42.3936C55.9127 42.743 55.9422 43.092 56.0056 43.4357C56.2422 44.4356 56.6752 45.2961 57.7137 45.6777C58.356 45.8959 59.0483 45.9201 59.7044 45.7474C60.7667 45.5052 61.6602 44.9438 62.4784 44.2576C63.8655 43.0926 64.9406 41.711 65.3021 39.8873C65.7607 37.5774 64.2012 35.851 61.7262 36.0711C59.9319 36.2326 58.5466 37.172 57.4128 38.5058C56.4679 39.6305 55.9028 40.9056 55.9175 42.3936Z" fill="#F8F2EA"/>
<path d="M35.3889 64.7294L32.5652 65.5899C32.1672 65.7031 31.7938 65.8898 31.4644 66.1403C31.3873 66.2008 31.2809 66.2504 31.3561 66.3769C31.3678 66.3996 31.3845 66.4194 31.4048 66.4348C31.4251 66.4502 31.4487 66.4608 31.4737 66.4659C31.4987 66.4711 31.5245 66.4705 31.5492 66.4643C31.574 66.4581 31.597 66.4464 31.6167 66.4302C32.8606 65.61 34.3412 65.6082 35.7154 65.2413C36.223 65.1145 36.7189 64.9451 37.1979 64.7349C38.5941 64.0964 39.0326 63.0579 38.8711 61.6049C38.7917 61.1377 38.7745 60.662 38.8198 60.1903C38.8431 60.0175 38.8868 59.8482 38.95 59.6857C39.2142 59.0821 39.361 59.0179 39.9536 59.2858C40.3742 59.4757 40.7823 59.692 41.1756 59.9334C41.2536 59.9678 41.3165 60.0294 41.3526 60.1066C41.3887 60.1839 41.3955 60.2716 41.3719 60.3536C41.137 61.7021 41.1645 63.0506 41.2526 64.4156C41.3572 66.054 41.1866 67.6539 39.9683 68.9529C39.15 69.8262 38.0969 70.1033 36.9851 70.2647C36.4548 70.3418 35.9191 70.3821 35.3852 70.4372C35.2935 70.4372 35.2017 70.483 35.1008 70.3876C36.62 70.0978 37.818 69.3639 38.6877 67.9805C38.2982 68.1218 37.9326 68.3216 37.6034 68.5731C36.4585 69.4574 35.154 69.806 33.7266 69.817C32.552 69.8242 31.3862 70.0199 30.2737 70.3968C30.1809 70.4322 30.0784 70.4322 29.9856 70.3968C30.7243 69.9776 31.5387 69.7089 32.3818 69.6061C34.1834 69.4116 35.7173 68.6502 37.0786 67.4851C37.4722 67.1629 37.7825 66.7507 37.9831 66.2834C37.5963 66.3349 37.2227 66.4595 36.8823 66.6503C35.5026 67.5402 33.9798 67.8667 32.3597 68.0337C30.1966 68.2557 28.4922 69.2721 27.5895 71.3729C27.4629 71.6701 27.3124 71.9582 27.1712 72.248C27.143 72.291 27.1104 72.331 27.0739 72.3673C27.0062 71.6992 27.0723 71.0244 27.2684 70.3821C27.9362 68.2814 29.4022 66.8815 31.2773 65.8522C32.4588 65.2027 33.7468 64.8688 35.0696 64.6523C35.1797 64.634 35.2879 64.6046 35.3962 64.5808L35.3889 64.7294Z" fill="#F8F2EA"/>
<path d="M43.557 79.4787C44.9569 78.9173 46.0266 77.954 46.9403 76.789C47.1366 76.5642 47.2856 76.3021 47.3783 76.0184C47.471 75.7346 47.5055 75.4351 47.4797 75.1378C47.4687 75.0424 47.5255 74.9176 47.421 74.8644C47.3164 74.8112 47.2522 74.9378 47.1788 74.9928C46.6459 75.4251 46.1617 75.9142 45.7348 76.4514C44.8385 77.5093 43.5975 78.2168 42.2305 78.4494C42.1279 78.4836 42.016 78.4764 41.9186 78.4292C42.7453 77.551 43.5104 76.6168 44.2084 75.6331C44.5331 75.1763 44.8358 74.7029 45.1386 74.2296C45.977 72.9122 46.1018 71.5435 45.4596 70.0996C45.1165 69.3272 44.7826 68.542 44.6542 67.6961C44.4242 66.3521 44.712 64.9708 45.4596 63.8304C45.523 63.7374 45.5923 63.6486 45.667 63.5644C46.0211 63.1607 46.4394 63.1882 46.7568 63.6286C46.8393 63.7442 46.7715 63.8432 46.7403 63.946C46.5311 64.6505 46.3054 65.3532 46.3733 66.1054C46.4966 67.3187 46.9971 68.4627 47.8044 69.3767C48.3255 69.9969 48.9052 70.5638 49.4171 71.1931C50.518 72.5581 50.9491 74.0589 50.2336 75.7561C49.962 76.4 49.6832 77.0404 49.2061 77.5688C48.5952 78.2458 47.9035 78.776 46.9953 79.0219C45.8669 79.3191 44.7129 79.3704 43.557 79.4787Z" fill="#F8F2EA"/>
<path d="M40.1518 78.9283C40.6105 78.5339 41.0838 78.1522 41.526 77.7413C42.3342 77.0102 42.9584 76.0987 43.3479 75.0809C43.4713 74.7286 43.6178 74.3847 43.7864 74.0517C44.4248 72.8683 44.412 71.6097 44.2726 70.329C44.1359 69.3294 44.1137 68.3174 44.2065 67.3127C44.2946 68.3328 44.5863 69.3089 44.8267 70.2942C45.1386 71.5656 44.9294 72.7417 44.4102 73.9287C43.8469 75.213 43.2616 76.4753 42.2801 77.5046C41.7297 78.0899 41.1499 78.6678 40.3591 78.9503C40.2989 78.9674 40.2376 78.9803 40.1756 78.9889L40.1518 78.9283Z" fill="#F8F2EA"/>
<path d="M39.4014 80.5868C40.106 80.418 40.8307 80.3722 41.5425 80.2456C42.9938 79.9887 44.4671 79.908 45.9257 79.719C48.2301 79.4199 49.9822 78.3063 51.0922 76.233C51.628 75.2313 51.6812 74.191 51.4592 73.114C51.45 73.0663 51.4408 73.0168 51.4335 72.9691C51.4386 72.9348 51.4465 72.9011 51.4573 72.8682C51.894 73.5433 52.2499 74.1947 52.0518 74.9818C51.6849 76.4275 50.7675 77.4935 49.6318 78.3962C48.6686 79.1594 47.5145 79.4713 46.3623 79.7979C44.2616 80.4074 42.0774 80.6799 39.8913 80.6052C39.7262 80.5868 39.5647 80.4712 39.4014 80.5868Z" fill="#F8F2EA"/>
<path d="M37.919 62.1516C37.9125 62.3718 37.8585 62.5879 37.7606 62.7852C37.6628 62.9825 37.5234 63.1563 37.352 63.2946C36.5301 64.012 35.532 64.3202 34.4807 64.4193C33.1781 64.5422 31.9598 64.856 30.8773 65.6174C30.7617 65.6999 30.5673 65.8596 30.4682 65.7055C30.3691 65.5513 30.5838 65.4321 30.7067 65.3385C31.5713 64.6336 32.6214 64.1939 33.7303 64.0726C34.545 63.9705 35.3472 63.7861 36.1246 63.5221C36.875 63.2616 37.5447 62.9057 37.919 62.1516Z" fill="#F8F2EA"/>
<path d="M47.0926 65.1275C47.1696 64.7844 47.1513 64.3514 47.3806 64.2413C47.5824 64.1441 47.7897 64.5532 47.9952 64.7367C48.2686 64.9789 48.386 65.3348 48.6007 65.6228C48.6369 65.6748 48.655 65.7372 48.6524 65.8005C48.6497 65.8638 48.6264 65.9245 48.586 65.9733C48.4979 66.0944 48.3787 66.0173 48.2833 65.9733C47.9037 65.8207 47.5473 65.6157 47.2247 65.3641C47.1256 65.2926 47.0724 65.21 47.0926 65.1275Z" fill="#F8F2EA"/>
<path d="M40.9481 53.8129C40.9719 53.4606 41.1022 53.4569 41.4012 53.5468C42.2214 53.7908 43.0617 53.9615 43.8469 54.3266C44.7373 54.7142 45.5761 55.2109 46.344 55.8054C46.3983 55.8354 46.4462 55.8761 46.4846 55.9249C46.5231 55.9738 46.5513 56.0298 46.5678 56.0897C45.6504 55.5558 44.8083 54.9779 43.8946 54.5467C42.9809 54.1156 42.0379 53.6716 40.9481 53.8129Z" fill="#F8F2EA"/>
<path d="M35.2366 71.6592C33.2312 71.817 31.2351 72.072 29.2352 72.3619C30.1673 71.9326 33.1542 71.551 35.2366 71.6592Z" fill="#F8F2EA"/>
<path d="M34.5724 70.5087C32.9699 70.6269 31.3766 70.8476 29.8022 71.1692C31.3452 70.5986 32.9432 70.4445 34.5724 70.5087Z" fill="#F8F2EA"/>
<path d="M42.8965 61.9113C42.5528 61.8923 42.2151 61.8134 41.8985 61.6783C41.8743 61.6727 41.8516 61.6624 41.8316 61.6478C41.8116 61.6332 41.7947 61.6148 41.782 61.5935C41.7693 61.5723 41.7611 61.5487 41.7578 61.5241C41.7544 61.4996 41.7561 61.4747 41.7627 61.4508C41.7994 61.1426 41.8397 60.8362 41.8856 60.4802C42.362 60.8417 42.715 61.3415 42.8965 61.9113Z" fill="#F8F2EA"/>
<path d="M47.3586 60.8838C48.5677 61.3149 49.696 61.8764 50.5877 62.8341C49.4648 62.2543 48.4594 61.4837 47.3586 60.8838Z" fill="#F8F2EA"/>
<path d="M49.8593 57.8767C50.4097 57.6125 51.927 58.6014 52.1197 59.3537C51.4324 58.7668 50.6728 58.2704 49.8593 57.8767Z" fill="#F8F2EA"/>
<path d="M50.3308 71.6077C50.7068 72.1436 50.9586 72.7567 51.0678 73.4023C51.177 74.0479 51.1408 74.7097 50.962 75.3395C50.9418 75.411 50.9326 75.5578 50.8207 75.523C50.6372 75.4606 50.8207 75.367 50.8354 75.2899C51.1107 74.1051 50.962 72.8612 50.4152 71.7746C50.3877 71.7141 50.3583 71.6609 50.3308 71.6077Z" fill="#F8F2EA"/>
<path d="M45.6596 62.9516C45.5499 63.0554 45.4328 63.151 45.3092 63.2378C45.179 63.3149 45.1166 63.6048 44.9423 63.4672C44.8183 63.3834 44.7167 63.2705 44.6463 63.1384C44.576 63.0064 44.539 62.8591 44.5386 62.7094C44.5386 62.526 44.6964 62.5847 44.7918 62.6067C45.0962 62.6792 45.3885 62.7954 45.6596 62.9516Z" fill="#F8F2EA"/>
<path d="M50.3987 60.7791C49.7003 60.2858 48.9592 59.856 48.1842 59.4948C48.6796 59.4122 50.1584 60.2709 50.3987 60.7791Z" fill="#F8F2EA"/>
<path d="M42.713 75.5542C42.7387 75.5725 42.7956 75.5689 42.7681 75.6239C42.4395 76.2625 41.9895 76.8308 41.4434 77.2972C41.7608 76.6404 42.2966 76.1468 42.7167 75.5652L42.713 75.5542Z" fill="#F8F2EA"/>
<path d="M64.0545 52.7854L62.9317 53.9211C62.9203 53.8986 62.9055 53.8782 62.8876 53.8605C63.2546 53.4752 63.5316 53.0055 64.0123 52.7358L64.0545 52.7854Z" fill="#F8F2EA"/>
<path d="M41.2747 54.4806C41.7315 54.4402 42.1223 54.5742 42.559 54.7558C42.1146 54.7722 41.6732 54.6777 41.2747 54.4806Z" fill="#F8F2EA"/>
<path d="M32.7872 72.7838C33.3101 72.7361 33.822 72.6004 34.3596 72.6811C34.0036 72.8499 33.5211 72.8792 32.7872 72.7838Z" fill="#5D5D5D"/>
<path d="M53.7441 59.2737C53.3492 59.1818 53.2684 58.7796 53.0388 58.5225C53.3566 58.6841 53.5586 58.9724 53.7864 59.2314L53.7441 59.2737Z" fill="#F8F2EA"/>
<path d="M42.079 52.7158C41.8356 52.725 41.598 52.7931 41.3866 52.9142C41.5611 52.3852 41.5758 52.3815 42.079 52.7158Z" fill="#F8F2EA"/>
<path d="M76.4572 29.2551C76.5141 29.4007 76.5398 29.5566 76.5326 29.7128C76.5253 29.869 76.4852 30.0218 76.415 30.1615C76.3389 29.8619 76.3536 29.5464 76.4572 29.2551Z" fill="#5D5D5D"/>
<path d="M36.1329 71.4958C35.8686 71.6468 35.5578 71.6946 35.2604 71.6298C35.5365 71.5164 35.8355 71.4705 36.1329 71.4958Z" fill="#5D5D5D"/>
<path d="M28.7344 65.8783C28.8972 65.6954 29.1039 65.557 29.335 65.4761C29.2059 65.6745 29.0274 65.8359 28.817 65.9444L28.7344 65.8783Z" fill="#F8F2EA"/>
<path d="M38.251 61.5186C38.3316 61.617 38.3756 61.7403 38.3756 61.8675C38.3756 61.9947 38.3316 62.118 38.251 62.2165V61.5186Z" fill="#F8F2EA"/>
<path d="M64.4526 52.197L64.8549 51.7341L64.9228 51.7911L64.5243 52.2686L64.4526 52.197Z" fill="#F8F2EA"/>
<path d="M64.0123 52.7364C64.119 52.5482 64.2712 52.3897 64.4549 52.2754C64.3619 52.4738 64.225 52.6484 64.0545 52.786L64.0123 52.7364Z" fill="#F8F2EA"/>
<path d="M35.3889 64.7295L35.4072 64.5918C35.5523 64.5403 35.6919 64.4412 35.8793 64.5293C35.7407 64.6457 35.5692 64.7157 35.3889 64.7295Z" fill="#5D5D5D"/>
<path d="M43.6364 57.6881C43.55 57.6865 43.4647 57.6675 43.3858 57.6322C43.3069 57.5968 43.236 57.5458 43.1772 57.4824C43.265 57.4733 43.3536 57.4878 43.434 57.5242C43.5144 57.5607 43.5836 57.6179 43.6346 57.6899L43.6364 57.6881Z" fill="#5D5D5D"/>
<path d="M36.3269 64.3975C36.2665 64.444 36.1971 64.4775 36.1232 64.4958C36.0492 64.5142 35.9722 64.5169 35.8971 64.504C35.9871 64.3534 36.1304 64.3424 36.2644 64.3093L36.3269 64.3975Z" fill="#5D5D5D"/>
<path d="M65.1981 51.501L64.9719 51.6944C65.0339 51.6068 64.9956 51.3878 65.2109 51.4991L65.1981 51.501Z" fill="#F8F2EA"/>
<path d="M42.9556 57.3871C42.8325 57.3871 42.7168 57.365 42.658 57.2346C42.7737 57.2511 42.9005 57.2475 42.9537 57.3871H42.9556Z" fill="#5D5D5D"/>
<path d="M36.6145 64.1934C36.6987 64.0762 36.761 64.0103 36.9001 64.0689C36.8901 64.0962 36.8745 64.1211 36.8546 64.1423C36.8346 64.1634 36.8105 64.1803 36.7838 64.192C36.7572 64.2036 36.7284 64.2097 36.6993 64.2099C36.6702 64.2102 36.6414 64.2046 36.6145 64.1934Z" fill="#5D5D5D"/>
<path d="M37.4518 63.7205C37.4204 63.7611 37.3743 63.8072 37.3356 63.7593C37.2969 63.7113 37.3448 63.6781 37.3983 63.6726L37.4518 63.7205Z" fill="#F8F2EA"/>
<path d="M37.7814 63.2975C37.8033 63.23 37.8726 63.1278 37.9036 63.157C37.9912 63.2409 37.858 63.2847 37.827 63.3522L37.7814 63.2975Z" fill="#F8F2EA"/>
<path d="M43.6341 57.6896C43.6931 57.6896 43.7521 57.6896 43.765 57.7633C43.7647 57.769 43.7633 57.7746 43.7608 57.7797C43.7582 57.7847 43.7546 57.7892 43.7503 57.7928C43.6913 57.7799 43.6452 57.7541 43.6359 57.6877L43.6341 57.6896Z" fill="#5D5D5D"/>
<path d="M42.665 57.2345L42.5002 57.2125C42.5002 57.2125 42.5002 57.1869 42.5167 57.1851C42.5434 57.1759 42.5725 57.1763 42.599 57.1863C42.6254 57.1964 42.6474 57.2153 42.6613 57.24L42.665 57.2345Z" fill="#5D5D5D"/>
<path d="M36.4903 64.3272L36.3261 64.3966L36.2585 64.309L36.4082 64.2451L36.4903 64.3272Z" fill="#5D5D5D"/>
<path d="M42.9553 57.3925L43.0862 57.4128C43.0862 57.4238 43.0862 57.4404 43.0696 57.4441C43.0587 57.4481 43.0471 57.4497 43.0356 57.449C43.024 57.4482 43.0128 57.445 43.0025 57.4396C42.9923 57.4342 42.9833 57.4268 42.9761 57.4177C42.9689 57.4086 42.9637 57.3982 42.9608 57.387L42.9553 57.3925Z" fill="#5D5D5D"/>
<path d="M29.4572 65.3896C29.4628 65.3755 29.4718 65.3629 29.4834 65.3531C29.495 65.3433 29.5089 65.3365 29.5238 65.3334C29.5387 65.3304 29.5542 65.331 29.5687 65.3354C29.5833 65.3398 29.5966 65.3477 29.6073 65.3585L29.5066 65.4446L29.4572 65.3896Z" fill="#F8F2EA"/>
<path d="M28.8159 65.949L28.7027 66.0512L28.6243 65.9818L28.7338 65.8833L28.8159 65.949Z" fill="#F8F2EA"/>
<path d="M62.1629 54.5154L62.324 54.4861C62.3124 54.5137 62.297 54.5396 62.2782 54.563C62.2123 54.6179 62.1757 54.5886 62.1592 54.5154H62.1629Z" fill="#F8F2EA"/>
<path d="M38.0199 63.014C37.9795 62.9681 38.0199 62.9276 38.0346 62.8909C38.0516 62.891 38.0683 62.8961 38.0824 62.9056C38.0824 62.9552 38.0695 62.9956 38.0126 63.0067L38.0199 63.014Z" fill="#F8F2EA"/>
<path d="M65.1862 51.2717C65.292 51.3429 65.1862 51.425 65.1971 51.4998C65.042 51.4378 65.1971 51.3484 65.1789 51.2754L65.1862 51.2717Z" fill="#F8F2EA"/>
<path d="M36.409 64.2447C36.4674 64.1991 36.5459 64.1462 36.5915 64.2192C36.6371 64.2922 36.5313 64.2977 36.4875 64.3269L36.409 64.2447Z" fill="#5D5D5D"/>
<path d="M62.1592 54.5156L62.2334 54.5717C62.1574 54.617 62.1791 54.541 62.1629 54.5156H62.1592Z" fill="#F8F2EA"/>
<path d="M53.8682 59.4567L53.826 59.3427H53.8168C53.848 59.3427 53.8829 59.3188 53.9087 59.3703C53.9344 59.4217 53.8811 59.4273 53.8682 59.453V59.4567Z" fill="#F8F2EA"/>
<path d="M53.8682 59.4564C53.8938 59.4564 53.8938 59.3813 53.9451 59.4289C53.9963 59.4765 53.9451 59.4875 53.9341 59.5168C53.9341 59.471 53.9121 59.4472 53.8663 59.4527L53.8682 59.4564Z" fill="#F8F2EA"/>
<path d="M54.0651 59.5797C54.0503 59.5041 53.9895 59.517 53.936 59.5151L54.0522 59.5778L54.0651 59.5797Z" fill="#F8F2EA"/>
<path d="M62.4179 54.2881L62.4728 54.3595L62.4179 54.3906L62.4271 54.2991L62.4179 54.2881Z" fill="#F8F2EA"/>
<path d="M62.4271 54.2992L62.4914 54.2073C62.5061 54.233 62.5411 54.2661 62.5355 54.2845C62.5098 54.3525 62.462 54.3157 62.4197 54.2955L62.4271 54.2992Z" fill="#F8F2EA"/>
<path d="M62.9322 53.9214L62.8585 53.9897C62.8454 53.9716 62.8312 53.9544 62.8161 53.938C62.8156 53.9282 62.8171 53.9184 62.8204 53.9091C62.8238 53.8998 62.829 53.8914 62.8357 53.8841C62.8424 53.8769 62.8505 53.8711 62.8594 53.8671C62.8684 53.863 62.8781 53.8608 62.888 53.8606C62.9059 53.8784 62.9209 53.8989 62.9322 53.9214Z" fill="#F8F2EA"/>
<path d="M62.4914 54.2076L62.5872 54.1523V54.1394C62.5872 54.1726 62.6592 54.1984 62.5872 54.2427C62.5153 54.2869 62.519 54.2187 62.4858 54.2039L62.4914 54.2076Z" fill="#F8F2EA"/>
<path d="M62.7043 54.1358C62.6639 54.1689 62.6253 54.2351 62.5812 54.1358V54.1468L62.6639 54.0862C62.6762 54.1037 62.6897 54.1202 62.7043 54.1358Z" fill="#F8F2EA"/>
<path d="M62.6693 54.092C62.6682 54.0819 62.6693 54.0718 62.6725 54.0622C62.6756 54.0526 62.6807 54.0438 62.6875 54.0363C62.6943 54.0288 62.7026 54.0229 62.7118 54.0188C62.7211 54.0147 62.7311 54.0126 62.7412 54.0127C62.756 54.0293 62.7727 54.0442 62.7909 54.057L62.7043 54.1399C62.6916 54.1247 62.6799 54.1087 62.6693 54.092Z" fill="#F8F2EA"/>
<path d="M38.0116 63.0065L37.9736 63.0825C37.9736 63.0662 37.9447 63.0463 37.9483 63.0318C37.9483 62.9884 37.9881 62.9974 38.0189 63.0137L38.0116 63.0065Z" fill="#F8F2EA"/>
<path d="M62.7408 54.0129L62.8162 53.9375C62.8313 53.9538 62.8454 53.971 62.8585 53.989L62.7905 54.057C62.7723 54.0443 62.7556 54.0294 62.7408 54.0129Z" fill="#F8F2EA"/>
<path d="M65.2544 51.2001H65.3478L65.3368 51.2349L65.2507 51.1946L65.2544 51.2001Z" fill="#F8F2EA"/>
<path d="M37.4052 63.676C37.4308 63.6559 37.4711 63.6119 37.4785 63.6174C37.5499 63.6632 37.4785 63.6925 37.4583 63.7236L37.4052 63.676Z" fill="#F8F2EA"/>
<path d="M37.6344 63.5312L37.5721 63.599L37.552 63.5441H37.6436L37.6344 63.5312Z" fill="#F8F2EA"/>
<path d="M37.6474 63.5386V63.447L37.7023 63.4708L37.6309 63.5312L37.6474 63.5386Z" fill="#F8F2EA"/>
<path d="M37.8274 63.3535C37.7998 63.3811 37.7741 63.4417 37.73 63.3884C37.6859 63.3351 37.7447 63.3186 37.7814 63.2983L37.8274 63.3535Z" fill="#F8F2EA"/>
<path d="M65.2506 51.2002C65.2726 51.235 65.3074 51.2753 65.2506 51.3064C65.2396 51.3064 65.2067 51.2826 65.1847 51.2698C65.2378 51.2789 65.2469 51.2423 65.2524 51.202L65.2506 51.2002Z" fill="#F8F2EA"/>
<path d="M53.8261 59.3373C53.8161 59.3392 53.8058 59.3389 53.7959 59.3363C53.786 59.3338 53.7768 59.3291 53.7689 59.3226C53.761 59.3162 53.7546 59.308 53.7502 59.2988C53.7458 59.2896 53.7435 59.2795 53.7434 59.2693L53.7857 59.2271C53.8188 59.2601 53.896 59.2804 53.8169 59.3429L53.8261 59.3373Z" fill="#F8F2EA"/>
<path d="M29.5074 65.4452C29.4705 65.4673 29.4355 65.5392 29.3912 65.4784C29.347 65.4176 29.4134 65.4046 29.4576 65.3899L29.5074 65.4452Z" fill="#F8F2EA"/>
<path d="M42.7167 75.5648C42.7439 75.5467 42.7728 75.5287 42.7945 75.5648C42.7968 75.5696 42.798 75.5749 42.798 75.5802C42.798 75.5855 42.7968 75.5908 42.7945 75.5956C42.7529 75.6119 42.7312 75.5956 42.7222 75.5504L42.7167 75.5648Z" fill="#F8F2EA"/>
<path d="M40.0745 78.9668C40.0845 78.9832 40.0924 79.0008 40.098 79.0193C40.098 79.0193 40.0835 79.0338 40.0745 79.0428C40.0657 79.0272 40.0584 79.0109 40.0527 78.9939C40.0527 78.9939 40.0672 78.9758 40.0745 78.9668Z" fill="#F8F2EA"/>
<path d="M55.9175 42.3936C55.9028 40.9001 56.4679 39.625 57.4128 38.5058C58.5466 37.1665 59.9319 36.2326 61.7262 36.0712C64.2012 35.851 65.7626 37.5775 65.3021 39.8874C64.9351 41.7111 63.8655 43.0926 62.4784 44.2577C61.6602 44.9439 60.7667 45.5053 59.7044 45.7475C59.0483 45.9202 58.356 45.8959 57.7137 45.6777C56.6752 45.2961 56.2459 44.4356 56.0056 43.4357C55.9422 43.0921 55.9127 42.743 55.9175 42.3936ZM61.0547 40.3204C61.007 40.2268 60.9575 40.3039 60.9079 40.3204C60.9079 40.4103 60.7997 40.4928 60.8932 40.5882C60.8694 40.5607 60.8731 40.4782 60.8052 40.5479L60.8932 40.5846C60.8639 40.4928 61.0657 40.4121 60.9079 40.3149C60.9501 40.447 60.996 40.3589 61.04 40.3149L61.0639 40.2213C61.0437 40.2323 61.018 40.2378 61.0088 40.2525C60.9887 40.302 61.0327 40.3112 61.0602 40.3259L61.0547 40.3204ZM59.5245 37.9077L59.6255 37.8619C59.7352 37.8354 59.8352 37.7781 59.9135 37.6967C59.9337 37.6747 59.9759 37.6344 59.9722 37.6289C59.9355 37.5775 59.8952 37.605 59.8585 37.6289C59.7465 37.6526 59.6461 37.7142 59.5741 37.8031L59.5007 37.8784C59.4768 37.8949 59.4365 37.9077 59.4823 37.9426C59.4915 37.9554 59.5154 37.9279 59.5301 37.9132L59.5245 37.9077ZM61.6455 39.5957C61.6455 39.5094 61.7702 39.4324 61.6638 39.337C61.6913 39.3553 61.6803 39.4452 61.7482 39.381L61.6638 39.3406C61.695 39.4287 61.4932 39.5021 61.6455 39.5993C61.6216 39.5828 61.6455 39.5223 61.5776 39.5443C61.5097 39.5663 61.5556 39.6012 61.5464 39.6305C61.3794 39.6067 61.3996 39.7626 61.3299 39.8323C61.4602 39.8177 61.5134 39.7259 61.5391 39.6214L61.6455 39.5957ZM61.2529 40.0085C61.1464 39.9938 61.1189 40.0525 61.1171 40.1461C61.2107 40.1461 61.2382 40.08 61.2437 40.003L61.3116 39.9406L61.2547 39.9204L61.2529 40.0085ZM60.2529 37.5261C60.7736 37.2816 61.3319 37.1271 61.9042 37.0693C62.0344 37.0894 62.1647 37.1133 62.2711 36.983C62.2156 36.9479 62.1524 36.9267 62.0869 36.9212C62.0214 36.9158 61.9556 36.9263 61.895 36.9518C61.3066 36.9974 60.7345 37.1669 60.2162 37.449C60.1153 37.449 59.9942 37.4912 60.0328 37.5922C60.0713 37.6931 60.2016 37.5848 60.2529 37.5261ZM57.8329 43.8192C57.1174 41.5496 57.8843 39.8342 59.7099 38.4692C59.6535 38.4495 59.5926 38.4467 59.5346 38.461C59.4766 38.4754 59.424 38.5062 59.3833 38.5499C57.8495 39.5278 57.3504 41.0304 57.3064 42.7404C57.3084 42.948 57.3567 43.1526 57.4478 43.3393C57.5389 43.5259 57.6705 43.6898 57.8329 43.8192ZM62.8399 41.2139L62.5206 41.9203C62.6446 41.8545 62.7432 41.7495 62.801 41.6217C62.8588 41.4938 62.8725 41.3504 62.8399 41.2139Z" fill="#050504"/>
<path d="M57.833 43.8191C57.6705 43.6897 57.5389 43.5258 57.4478 43.3391C57.3567 43.1525 57.3084 42.9479 57.3064 42.7402C57.3504 41.0303 57.8568 39.5277 59.3833 38.5498C59.4241 38.5061 59.4766 38.4752 59.5346 38.4609C59.5926 38.4466 59.6535 38.4494 59.7099 38.469C57.8843 39.8341 57.1174 41.5495 57.833 43.8191Z" fill="#F8F2EA"/>
<path d="M61.906 37.073C61.3337 37.1309 60.7754 37.2853 60.2548 37.5298L60.2217 37.4528C60.74 37.1706 61.3121 37.0011 61.9005 36.9556L61.906 37.073Z" fill="#F8F2EA"/>
<path d="M62.8403 41.2139C62.8729 41.3505 62.8592 41.4941 62.8014 41.6221C62.7435 41.7501 62.6448 41.8552 62.5207 41.921L62.8403 41.2139Z" fill="#F8F2EA"/>
<path d="M61.906 37.0729V36.9554C61.9666 36.9298 62.0325 36.9193 62.0981 36.9247C62.1637 36.9302 62.2269 36.9514 62.2825 36.9866C62.1668 37.1133 62.0364 37.0894 61.906 37.0729Z" fill="#5D5D5D"/>
<path d="M61.5435 39.6287C61.5106 39.7308 61.465 39.8221 61.3354 39.8367C61.4048 39.7673 61.3847 39.6122 61.5508 39.636L61.5435 39.6287Z" fill="#F8F2EA"/>
<path d="M59.5796 37.8071C59.6517 37.718 59.7522 37.6564 59.8643 37.6326L59.9194 37.695C59.841 37.7765 59.7409 37.8338 59.631 37.8603C59.6148 37.8417 59.5977 37.8239 59.5796 37.8071Z" fill="#5D5D5D"/>
<path d="M60.2518 37.5257C60.1915 37.584 60.0839 37.6716 60.0456 37.5913C60.0072 37.5111 60.1185 37.4472 60.228 37.449L60.2518 37.5257Z" fill="#5D5D5D"/>
<path d="M61.2434 40.0083C61.2434 40.0852 61.2105 40.1437 61.1171 40.1511C61.1171 40.0577 61.1464 39.9991 61.2526 40.0138L61.2434 40.0083Z" fill="#F8F2EA"/>
<path d="M60.9134 40.3147C61.0708 40.4154 60.8694 40.4978 60.8987 40.5875C60.8072 40.4923 60.9115 40.4044 60.9152 40.3202L60.9134 40.3147Z" fill="#F8F2EA"/>
<path d="M61.6692 39.3425C61.7754 39.4377 61.6527 39.5147 61.6509 39.6007C61.4989 39.5037 61.7004 39.4304 61.6692 39.3425Z" fill="#F8F2EA"/>
<path d="M59.864 37.6399C59.9008 37.6105 59.9412 37.5829 59.978 37.6399C59.978 37.6399 59.9394 37.6858 59.9192 37.7079L59.864 37.6399Z" fill="#5D5D5D"/>
<path d="M60.8986 40.588L60.8107 40.5514C60.8785 40.4818 60.8748 40.5642 60.8986 40.5917V40.588Z" fill="#F8F2EA"/>
<path d="M59.6316 37.8674L59.5302 37.9135L59.5044 37.8896C59.5302 37.8637 59.556 37.8398 59.58 37.814C59.5981 37.8309 59.6154 37.8487 59.6316 37.8674Z" fill="#5D5D5D"/>
<path d="M60.9135 40.3239C60.9629 40.3093 61.0123 40.2324 61.0599 40.3239H61.0471C61.0013 40.366 60.9555 40.4539 60.9135 40.3239Z" fill="#F8F2EA"/>
<path d="M61.0601 40.3256C61.0326 40.3109 60.9887 40.3018 61.0143 40.256C61.0235 40.2413 61.0491 40.2358 61.0693 40.2249C61.06 40.2561 61.0527 40.2879 61.0473 40.3201L61.0601 40.3256Z" fill="#F8F2EA"/>
<path d="M61.2529 40.0083V39.9204L61.3096 39.9406L61.2419 40.0028L61.2529 40.0083Z" fill="#F8F2EA"/>
<path d="M61.6508 39.601L61.5446 39.6266V39.6358C61.5537 39.6065 61.5208 39.568 61.5757 39.5497C61.6306 39.5314 61.6196 39.5882 61.6434 39.6047L61.6508 39.601Z" fill="#F8F2EA"/>
<path d="M61.6694 39.3461L61.7526 39.386C61.6857 39.4493 61.6965 39.3606 61.6694 39.3425V39.3461Z" fill="#F8F2EA"/>
<path d="M59.5294 37.913C59.5149 37.9275 59.4913 37.9548 59.4877 37.9529C59.4423 37.9185 59.4877 37.9057 59.504 37.8894L59.5294 37.913Z" fill="#5D5D5D"/>
<defs>
<filter id="filter0_d_2409_117324" x="0" y="0" width="112.052" height="110.136" filterUnits="userSpaceOnUse" color-interpolation-filters="sRGB">
<feFlood flood-opacity="0" result="BackgroundImageFix"/>
<feColorMatrix in="SourceAlpha" type="matrix" values="0 0 0 0 0 0 0 0 0 0 0 0 0 0 0 0 0 0 127 0" result="hardAlpha"/>
<feOffset dx="5" dy="4"/>
<feGaussianBlur stdDeviation="2"/>
<feComposite in2="hardAlpha" operator="out"/>
<feColorMatrix type="matrix" values="0 0 0 0 0 0 0 0 0 0 0 0 0 0 0 0 0 0 0.25 0"/>
<feBlend mode="normal" in2="BackgroundImageFix" result="effect1_dropShadow_2409_117324"/>
<feBlend mode="normal" in="SourceGraphic" in2="effect1_dropShadow_2409_117324" result="shape"/>
</filter>
</defs>
</svg>
