<svg width="26" height="26" viewBox="0 0 26 26" fill="none" xmlns="http://www.w3.org/2000/svg">
<path d="M4.69906 8.41907C5.3759 8.29056 6.06071 8.1984 6.71354 7.98415C7.39489 7.76428 7.93977 7.33843 8.43546 6.80606C9.19193 5.99193 9.64449 4.98945 10.0866 3.9743C10.5521 2.90379 11.3251 2.1584 12.3024 1.6385C13.1322 1.19535 13.83 1.4069 14.4945 2.25429C15.0817 3.00331 15.4563 3.8765 15.7991 4.76489C16.0044 5.34644 16.256 5.90931 16.551 6.44742C16.7596 6.78921 17.0558 7.06216 17.4045 7.23377C18.241 7.67202 19.1547 7.91489 20.0823 7.94561C20.9367 7.97323 21.7837 8.14386 22.5918 8.45111C23.0067 8.59295 23.363 8.88445 23.5977 9.27395C23.9804 9.9335 23.8808 10.5923 23.6047 11.2417C23.2589 12.0518 22.6407 12.6157 22.012 13.167C21.4643 13.6335 21.027 14.2279 20.7335 14.9047C20.4161 15.6445 20.425 16.4294 20.526 17.2249C20.6404 18.0414 20.8075 18.8495 21.0261 19.6438C21.2265 20.3658 21.3016 21.1181 21.2476 21.8639C21.1557 22.9607 20.4243 23.5767 19.3868 23.4413C18.8065 23.3591 18.2415 23.1769 17.7141 22.9022C17.0874 22.5866 16.4668 22.2545 15.8304 21.9637C15.2254 21.6863 14.571 21.6158 13.9297 21.5343C12.7506 21.3862 11.5615 21.5944 10.5011 22.1344C10.0246 22.3737 9.6044 22.734 9.14837 23.0195C8.49543 23.4267 7.83852 23.832 7.05518 23.9119C6.55526 23.9644 6.05371 23.9899 5.66921 23.5444C5.3608 23.19 5.18666 22.7292 5.18079 22.2519C5.17666 21.8235 5.21786 21.3967 5.30362 20.9795C5.50433 19.8818 5.79281 18.7979 5.89403 17.6816C5.93158 17.3223 5.89558 16.9574 5.78846 16.6114C5.68133 16.2655 5.50558 15.9466 5.27304 15.6762C4.66659 15.0043 3.99241 14.4045 3.26293 13.8878C2.62391 13.4055 2.04774 12.8359 1.54989 12.1942C1.05587 11.5671 1.11022 10.5291 1.41444 10.0012C1.71867 9.4732 2.21008 9.13059 2.76585 8.8896C3.38905 8.63322 4.04394 8.54559 4.69906 8.41907ZM6.15629 18.6366C6.12711 18.654 6.12856 18.6797 6.14135 18.7075C5.99557 19.3604 5.82989 20.0111 5.64731 20.6554C5.46328 21.2697 5.46122 21.9317 5.64142 22.5538C5.73707 22.9 5.9576 23.1947 6.25513 23.3739C6.55266 23.5531 6.90318 23.6024 7.23058 23.511C7.89131 23.3482 8.5224 23.0777 9.10134 22.7093C9.91258 22.1757 10.7185 21.6313 11.6082 21.2438C11.9748 21.0691 12.3526 20.9209 12.739 20.8004C12.8119 20.7803 12.8989 20.7567 12.8739 20.6646C12.8489 20.5726 12.7631 20.6283 12.7055 20.6358C12.5463 20.6636 12.3922 20.7157 12.248 20.7906C12.2469 20.783 12.2551 20.7727 12.2528 20.7653C12.2504 20.7579 12.24 20.7374 12.2341 20.7228C12.8088 20.4617 13.4549 20.421 14.0621 20.6076C15.3258 20.9678 16.4034 21.7396 17.5392 22.3782C18.0222 22.6495 18.474 22.9981 19.0183 23.1099C19.5842 23.2261 20.1479 23.2313 20.5719 22.7344C20.9203 22.328 20.97 21.8166 20.9356 21.2908C20.9147 20.9676 20.848 20.9233 20.5783 21.0328C20.6359 20.7686 20.6511 20.4953 20.6233 20.2242C20.5787 19.1522 20.3831 18.0905 20.043 17.0741C19.9045 16.7041 19.8455 16.3076 19.8705 15.9134C19.8954 15.5192 20.0036 15.1374 20.1871 14.7959C20.4793 14.2259 20.8585 13.7116 21.3098 13.2734C21.9871 12.6305 22.5867 11.902 23.0956 11.1038C23.5803 10.3296 23.3921 9.47608 22.6481 8.95939C22.4338 8.81587 22.2065 8.69581 21.9696 8.60113C21.3635 8.34849 20.7253 8.27168 20.0874 8.21296C19.983 8.20287 19.8044 8.1872 19.792 8.31474C19.7783 8.46705 19.9576 8.43858 20.0587 8.45953C20.4248 8.53355 20.7954 8.58875 21.1623 8.66784C21.4912 8.73013 21.8078 8.8546 22.0966 9.03522C22.066 9.04691 22.0327 9.04881 22.0008 9.04068C21.0802 8.837 20.1599 8.62681 19.2287 8.47396C18.6752 8.38301 18.1152 8.31377 17.5829 8.1121C16.9345 7.87105 16.4369 7.44652 16.1781 6.7643C15.9192 6.08209 15.6761 5.35862 15.438 4.65126C15.1691 3.83844 14.8193 3.07287 14.2608 2.4322C13.7175 1.81124 13.0043 1.58649 12.3882 1.85734C11.7979 2.11263 11.3163 2.50426 11.0499 3.14436C10.9766 3.32256 10.9013 3.59302 10.7726 3.63197C10.5198 3.70786 10.4923 3.9063 10.417 4.0874C10.0285 5.02837 9.64945 5.96661 9.17147 6.8499C8.59049 7.90942 7.69777 8.58359 6.54943 8.74214C5.84966 8.84046 5.13233 8.87149 4.42643 8.96167C3.61467 9.06401 2.83393 9.28211 2.17213 9.80858C1.55397 10.2999 1.43624 11.0651 1.84937 11.7641C2.15377 12.2667 2.52523 12.7209 2.95203 13.1124C3.85018 13.9593 4.78224 14.7636 5.66896 15.6239C6.22583 16.1651 6.54799 16.7483 6.36151 17.5525C6.28228 17.8543 6.22799 18.1633 6.19925 18.476C6.14481 18.5205 6.16536 18.5834 6.15629 18.6366Z" fill="#F8F2EA"/>
<path d="M12.2477 20.7883C12.3919 20.7134 12.546 20.6613 12.7052 20.6335C12.7626 20.6248 12.8502 20.5726 12.8735 20.6624C12.8969 20.7521 12.8115 20.778 12.7387 20.7981C12.3523 20.9187 11.9745 21.0668 11.6079 21.2415C10.7182 21.629 9.91345 22.1732 9.10101 22.707C8.52207 23.0754 7.89098 23.3459 7.23025 23.5087C6.90285 23.6001 6.55233 23.5509 6.2548 23.3716C5.95727 23.1924 5.73674 22.8977 5.64109 22.5515C5.46089 21.9294 5.46295 21.2674 5.64698 20.6531C5.82956 20.0089 5.99046 19.3589 6.14102 18.7052L6.1951 18.7229C6.17032 18.7991 6.16586 18.8813 6.18218 18.9606C6.15339 19.0047 6.13534 19.0556 6.12958 19.1091C6.12382 19.1625 6.13054 19.2169 6.14915 19.2674C6.1645 19.1265 6.21333 19.0531 6.19032 18.9659C6.27161 18.7778 6.31438 18.5733 6.31587 18.3653C6.36601 18.0986 6.46017 17.8318 6.3552 17.5511C6.54149 16.7457 6.21952 16.1637 5.66265 15.6225C4.77593 14.7622 3.84348 13.9554 2.94571 13.111C2.51892 12.7195 2.14746 12.2653 1.84306 11.7627C1.42993 11.0638 1.54766 10.2986 2.16582 9.8072C2.82761 9.28073 3.60836 9.06263 4.42011 8.96029C5.12602 8.87011 5.84334 8.83907 6.54312 8.74076C7.69146 8.58221 8.58495 7.91311 9.16516 6.84852C9.6495 5.96685 10.0286 5.02861 10.4171 4.08765C10.4924 3.90655 10.5198 3.7081 10.7727 3.63221C10.9014 3.59327 10.9766 3.32281 11.05 3.1446C11.32 2.50396 11.7979 2.11287 12.3882 1.85758C13.0051 1.59179 13.7176 1.81148 14.2609 2.43244C14.8194 3.07311 15.1692 3.83868 15.438 4.6515C15.6678 5.36013 15.9118 6.06533 16.1763 6.76093C16.4409 7.45653 16.9387 7.86677 17.5812 8.10873C18.1147 8.31021 18.6747 8.37945 19.227 8.47059C20.1582 8.62343 21.0791 8.83743 21.9991 9.03731C22.031 9.04544 22.0643 9.04354 22.0949 9.03185C21.8061 8.85122 21.4895 8.72676 21.1605 8.66446C20.7944 8.59044 20.4232 8.53144 20.0569 8.45615C19.9559 8.43521 19.7766 8.46368 19.7902 8.31136C19.8021 8.18003 19.9813 8.1995 20.0856 8.20959C20.7239 8.27084 21.3618 8.34511 21.9679 8.59776C22.2047 8.69244 22.4321 8.81249 22.6463 8.95602C23.3928 9.47235 23.5809 10.3259 23.0938 11.1005C22.585 11.8986 21.9853 12.6271 21.3081 13.27C20.8568 13.7082 20.4776 14.2225 20.1854 14.7925C20.0019 15.134 19.8937 15.5159 19.8688 15.91C19.8438 16.3042 19.9028 16.7007 20.0413 17.0707C20.3813 18.0871 20.5769 19.1488 20.6216 20.2208C20.6494 20.4919 20.6342 20.7652 20.5766 21.0294C20.8463 20.9199 20.913 20.9642 20.9338 21.2874C20.9683 21.8133 20.9187 22.3259 20.5702 22.7311C20.1462 23.228 19.5825 23.2228 19.0166 23.1065C18.4722 22.9947 18.0204 22.6461 17.5375 22.3748C16.4017 21.7362 15.324 20.9644 14.0604 20.6042C13.4534 20.4168 12.8071 20.4566 12.232 20.7169L11.1042 21.213C10.5298 21.409 9.98997 21.7002 9.50463 22.0759L11.1329 21.2811L12.2477 20.7883ZM13.8215 2.41615C13.8163 2.38197 13.7973 2.36931 13.7668 2.37005C13.5698 2.1853 13.3128 2.08921 13.052 2.10279L13.744 2.41365L13.8048 2.44329C13.8224 2.44635 13.8401 2.44713 13.8578 2.44562C13.8662 2.41197 13.841 2.41578 13.8215 2.41615ZM2.3411 10.2288C2.32406 10.2159 2.30304 10.2104 2.28249 10.2135C2.26193 10.2166 2.24348 10.2281 2.23104 10.2455L2.18589 10.3028C1.98503 10.5923 1.84107 10.8939 1.98177 11.2651C1.92879 10.9156 2.10391 10.6339 2.21878 10.3341C2.22524 10.3333 2.23146 10.3311 2.23703 10.3277C2.24261 10.3242 2.24742 10.3195 2.25118 10.314C2.25493 10.3084 2.25755 10.3021 2.25885 10.2954C2.26016 10.2886 2.26013 10.2817 2.25876 10.2749L2.3389 10.2304C2.32061 10.2228 2.33829 10.1619 2.29309 10.1946L2.3411 10.2288ZM18.6873 22.3469L18.5862 22.3739C18.5875 22.3827 18.5892 22.3941 18.5992 22.3952C18.6427 22.408 18.6753 22.3966 18.6859 22.3458C18.6678 22.4042 18.6862 22.4364 18.7467 22.4402C18.866 22.5142 19.0063 22.5391 19.1404 22.51C19.0266 22.4858 18.9238 22.4133 18.8006 22.432C18.7645 22.396 18.7047 22.4051 18.6873 22.3469ZM8.32688 8.72938C8.36875 8.72304 8.41709 8.73514 8.45257 8.6624C8.39036 8.67183 8.34418 8.66588 8.32411 8.72721L8.23645 8.76252C8.24243 8.76161 8.25072 8.7759 8.25689 8.77626C8.28718 8.77426 8.32418 8.78419 8.32688 8.72938ZM17.9941 22.1256C17.9678 22.1943 18.018 22.1699 18.0465 22.172C18.1807 22.2718 18.3385 22.3297 18.5013 22.3388C18.3437 22.3005 18.2179 22.1486 18.0412 22.178C18.0653 22.1109 18.0174 22.1337 17.9899 22.1301C17.9488 22.0767 17.8967 22.0561 17.7754 22.0629C17.8777 22.116 17.9212 22.169 17.9941 22.1256ZM17.6205 21.9776C17.6388 22.0055 17.6645 22.0271 17.6943 22.0397C17.7242 22.0522 17.7567 22.0551 17.7878 22.048C17.7504 21.9786 17.6889 21.9685 17.6346 21.9417C17.5804 21.915 17.5149 21.8303 17.4155 21.8765C17.4412 21.9075 17.4728 21.9326 17.5081 21.95C17.5434 21.9674 17.5817 21.9768 17.6205 21.9776ZM8.55706 8.95613C8.42015 8.97115 8.2867 9.00887 8.16159 9.06789L6.98774 9.43755C7.33516 9.43669 7.75493 9.29145 8.17469 9.14621C8.31063 9.0984 8.45877 9.07465 8.5585 8.94943L8.55706 8.95613ZM16.0791 8.01652L16.1159 7.98503L16.0967 7.97111L16.0791 8.01652C15.9803 7.63127 15.7058 7.36203 15.5178 7.03433C15.6309 7.41741 15.8801 7.69697 16.0791 8.01652ZM5.25857 9.86549C4.58518 10.0168 3.83033 10.0263 3.11007 10.2236C2.9104 10.2842 2.74142 10.4233 2.63755 10.6126C2.53369 10.8019 2.50275 11.027 2.55104 11.2422C2.61295 11.5093 2.74548 11.7534 2.93307 11.9459C3.6512 12.7113 4.48738 13.319 5.30629 13.95C5.95919 14.4546 6.61007 14.9621 7.26656 15.4661C7.41487 15.5684 7.53017 15.7163 7.59652 15.8893C7.66288 16.0624 7.677 16.252 7.63693 16.432C7.57523 16.9064 7.47668 17.374 7.34226 17.8302C7.04749 18.7686 6.82519 19.7318 6.67755 20.7106C6.64992 20.9638 6.6571 21.2205 6.69888 21.4728C6.77019 22.1692 7.57021 22.3769 7.98234 22.1733C8.63058 21.8707 9.24986 21.505 9.83225 21.0807C10.4389 20.6183 11.0082 20.1032 11.6445 19.683C11.91 19.4788 12.2021 19.3155 12.512 19.1978C13.1324 19.01 13.8016 19.0845 14.3792 19.4057C15.396 19.9426 16.3726 20.5624 17.2999 21.2594C17.8383 21.6544 18.4118 21.9586 19.0791 21.9688C19.5195 21.9759 19.7657 21.7352 19.85 21.2898C19.9834 20.5559 19.8261 19.857 19.577 19.1746C19.1886 18.1144 18.7678 17.0656 18.5163 15.9561C18.4847 15.8486 18.4776 15.7352 18.4955 15.6251C18.6136 15.0467 18.8635 14.5096 19.2238 14.0601C19.7721 13.3902 20.4239 12.8303 20.9969 12.1865C21.3115 11.8396 21.681 11.5647 21.9117 11.1411C21.993 11.0035 22.042 10.8469 22.0546 10.6843C22.0672 10.5216 22.0431 10.3575 21.9842 10.2053C21.9253 10.0531 21.8333 9.91719 21.7158 9.8087C21.5983 9.70022 21.4586 9.62224 21.3081 9.58116C21.1136 9.51848 20.9134 9.47888 20.7113 9.46309C19.5201 9.39257 18.3345 9.22192 17.1658 8.95275C16.4291 8.79114 15.8815 8.40009 15.5143 7.7058C15.3549 7.40486 15.2079 7.09686 15.0678 6.78651C14.6697 5.90392 14.4333 4.95796 14.0732 4.06052C13.9432 3.67825 13.6855 3.35733 13.3491 3.15871C12.8819 2.89407 12.1701 2.93722 11.7972 3.416C11.617 3.63485 11.4621 3.87569 11.3357 4.13359C10.9556 4.96837 10.6526 5.84327 10.2626 6.67697C9.97653 7.27707 9.64007 7.84823 9.25716 8.3837C8.83907 8.99958 8.21086 9.41923 7.50141 9.55656C6.76186 9.71152 6.01263 9.81473 5.25857 9.86549ZM19.5211 16.0615C19.7262 17.608 20.1076 19.1227 20.3557 20.6627C20.3951 20.6399 20.4104 20.6194 20.4099 20.6001C20.3606 19.9845 20.302 19.3717 20.2045 18.7609C20.0564 17.8404 19.6044 16.9983 19.5211 16.0615ZM9.71995 6.43153C9.54749 6.80018 9.35206 7.15605 9.13495 7.49684C8.88069 7.83106 8.5813 8.12382 8.24609 8.36601C8.87705 8.24963 9.50009 7.28994 9.71995 6.43153ZM14.9913 4.07029C15.1243 4.79485 15.3902 5.48724 15.7739 6.10825L14.9913 4.07029ZM17.839 8.47764C17.4586 8.2685 17.1534 8.06349 16.8273 7.88237C17.1032 8.16047 17.333 8.5142 17.8414 8.47728L17.839 8.47764ZM19.0315 16.1979C19.1115 15.7972 18.9679 15.4071 18.906 15.015C18.7313 15.4287 18.973 15.804 19.0325 16.1965L19.0315 16.1979ZM22.6165 10.7856L22.3557 11.487C22.4519 11.4028 22.5267 11.2945 22.5734 11.1718C22.62 11.0491 22.6373 10.9157 22.6235 10.7832L22.6165 10.7856ZM6.09191 19.6971L6.02983 19.6832C5.96622 19.9508 5.94259 20.2279 5.95979 20.5046L6.09191 19.6971ZM6.65438 17.4176C6.75481 17.2729 6.79786 17.1291 6.67046 16.9748C6.63755 17.121 6.67992 17.2713 6.65438 17.4176ZM8.82178 8.47431L8.82063 8.46672L8.80508 8.46907L8.82178 8.47431ZM8.66901 8.54022C8.66901 8.54022 8.67112 8.55415 8.67729 8.5545C8.68466 8.55595 8.69222 8.55481 8.69883 8.55124C8.71801 8.54056 8.71408 8.53079 8.69537 8.52845C8.67666 8.52611 8.67599 8.53786 8.66901 8.54022ZM8.52553 8.61896C8.53247 8.62439 8.53979 8.63234 8.54458 8.63162C8.55773 8.62762 8.57044 8.62222 8.58252 8.6155C8.58252 8.6155 8.56945 8.60194 8.56486 8.60393C8.5515 8.60953 8.53861 8.61625 8.52629 8.62403L8.52553 8.61896ZM9.75207 6.35283L9.76658 6.3597L9.76408 6.34324L9.75207 6.35283Z" fill="#080707"/>
<path d="M6.35554 17.5536C6.46051 17.8343 6.36596 18.0986 6.31621 18.3678C6.23606 18.3799 6.26806 18.4619 6.23099 18.4999L6.19327 18.4771C6.22202 18.1645 6.27631 17.8555 6.35554 17.5536Z" fill="#2180A3"/>
<path d="M12.2477 20.7883L11.131 21.2762C11.1217 21.2556 11.1137 21.2348 11.1042 21.2129L12.2338 20.7205C12.2361 20.7357 12.2478 20.7481 12.2525 20.763C12.2572 20.7778 12.2502 20.7802 12.2477 20.7883Z" fill="#2180A3"/>
<path d="M6.15504 18.6359C6.16525 18.5829 6.14481 18.5203 6.193 18.4769L6.23052 18.4995C6.22763 18.5528 6.24732 18.6104 6.20207 18.6571L6.15504 18.6359Z" fill="#2180A3"/>
<path d="M6.14124 18.7074C6.12848 18.6796 6.12704 18.654 6.15615 18.6367L6.20214 18.6581C6.20539 18.6796 6.19791 18.7027 6.1952 18.7251L6.14124 18.7074Z" fill="#2180A3"/>
<path d="M5.25865 9.86552C6.01271 9.81476 6.76195 9.71155 7.5015 9.55658C8.20862 9.41798 8.83444 8.99882 9.25127 8.38463C9.63417 7.84916 9.97063 7.278 10.2567 6.6779C10.6463 5.84167 10.9501 4.97184 11.3298 4.13453C11.4562 3.87663 11.6111 3.63578 11.7913 3.41694C12.163 2.93834 12.8748 2.89519 13.3432 3.15964C13.6796 3.35827 13.9373 3.67918 14.0674 4.06146C14.4274 4.95889 14.6638 5.90485 15.0619 6.78744C15.202 7.09779 15.349 7.40579 15.5084 7.70673C15.8756 8.40102 16.4232 8.79207 17.1599 8.95368C18.3282 9.22285 19.5134 9.39356 20.7042 9.46421C20.9063 9.47999 21.1065 9.5196 21.301 9.58227C21.4515 9.62336 21.5912 9.70134 21.7087 9.80982C21.8262 9.9183 21.9182 10.0542 21.9771 10.2064C22.036 10.3586 22.0601 10.5227 22.0475 10.6854C22.0349 10.8481 21.986 11.0046 21.9046 11.1422C21.6739 11.5658 21.2984 11.8416 20.9898 12.1876C20.4168 12.8314 19.765 13.3913 19.2167 14.0612C18.8564 14.5107 18.6065 15.0478 18.4884 15.6262C18.4705 15.7363 18.4776 15.8497 18.5092 15.9572C18.7583 17.0671 19.1816 18.1155 19.5699 19.1757C19.819 19.8581 19.9799 20.5565 19.8429 21.291C19.7592 21.7401 19.5124 21.977 19.072 21.97C18.4047 21.9597 17.8312 21.6555 17.2928 21.2605C16.3678 20.5635 15.3936 19.9433 14.3793 19.4057C13.8017 19.0845 13.1325 19.01 12.5121 19.1979C12.2004 19.3145 11.9067 19.4772 11.6394 19.6812C11.0031 20.1015 10.435 20.6163 9.82717 21.0789C9.24569 21.5052 8.62713 21.873 7.97941 22.1776C7.57049 22.3782 6.76726 22.1736 6.69595 21.4772C6.65418 21.2249 6.64699 20.9682 6.67462 20.7149C6.82227 19.7362 7.04456 18.773 7.33934 17.8345C7.47375 17.3784 7.5723 16.9108 7.634 16.4363C7.67407 16.2563 7.65995 16.0667 7.5936 15.8937C7.52724 15.7207 7.41194 15.5728 7.26363 15.4705C6.60753 14.969 5.95664 14.4615 5.30336 13.9543C4.48445 13.3234 3.64708 12.7159 2.93014 11.9503C2.74255 11.7578 2.61002 11.5136 2.54811 11.2466C2.49841 11.0306 2.52871 10.804 2.63278 10.6136C2.73684 10.4231 2.90675 10.2833 3.10757 10.2227C3.83042 10.0263 4.58527 10.0168 5.25865 9.86552ZM7.1173 10.0656C6.72492 10.1251 6.33135 10.1847 5.93897 10.2442C5.70506 10.276 5.48124 10.3607 5.28275 10.4927C5.2185 10.5291 5.16756 10.5869 5.13759 10.6571C5.12554 10.6795 5.12025 10.7052 5.12242 10.731C5.12458 10.7568 5.1341 10.7815 5.14971 10.8017C5.19586 10.8478 5.24829 10.8062 5.27655 10.7747C5.51366 10.5224 5.82171 10.5444 6.1197 10.5484C6.69457 10.5545 7.2697 10.5865 7.83941 10.5908C8.59397 10.5955 9.31032 10.4209 9.92376 9.95486C10.7801 9.30693 11.204 8.36578 11.4012 7.2932C11.4612 6.97065 11.3891 6.85853 11.1177 6.77145C10.8463 6.68436 10.8233 6.90415 10.7554 7.06987C10.5908 7.47694 10.4312 7.88582 10.2387 8.27897C9.77616 9.22339 9.05662 9.78064 8.04805 9.9167C7.74118 9.96711 7.42953 10.0182 7.1173 10.0656ZM17.565 16.2027C17.6261 16.6809 17.7677 17.145 17.9832 17.5731C18.2901 18.1342 18.5171 18.7388 18.6566 19.3673C18.683 19.4928 18.7071 19.7003 18.8556 19.6622C18.9826 19.6287 18.9431 19.4327 18.9077 19.2956C18.7699 18.7012 18.5719 18.1232 18.3171 17.5717C17.9456 16.7356 17.8128 15.8594 18.1258 14.9778C18.2966 14.4969 18.5726 14.0669 18.9316 13.7223C19.4052 13.262 19.8811 12.8012 20.2499 12.2389C20.3315 12.1151 20.4969 11.9553 20.3615 11.8204C20.226 11.6855 20.0382 11.771 19.8857 11.8628C19.8444 11.8894 19.806 11.9208 19.7714 11.9565C19.3928 12.3248 19.0039 12.6816 18.6398 13.0645C17.8245 13.9264 17.3655 14.9351 17.565 16.2027ZM8.44647 15.9673C8.38237 15.4694 8.17742 15.0011 7.85854 14.6239C7.77963 14.5232 7.6711 14.4127 7.55064 14.5061C7.43018 14.5995 7.5448 14.7259 7.59767 14.8163C8.06096 15.5232 8.15579 16.286 7.97979 17.1028C7.89007 17.4759 7.78245 17.8437 7.65734 18.2047C7.44314 18.8744 7.22794 19.5456 7.2238 20.269C7.22105 20.6787 7.33491 21.0423 7.68003 21.2684C8.00074 21.4788 8.26888 21.2698 8.53651 21.114C8.59488 21.0792 8.69622 21.0535 8.64976 20.9569C8.6033 20.8603 8.53424 20.9537 8.48017 20.9684C7.93527 21.1196 7.69112 20.8976 7.73456 20.3043C7.78886 19.5888 8.01421 18.92 8.19658 18.2421C8.41199 17.4996 8.53423 16.748 8.44647 15.9673ZM20.3301 10.903C20.2631 10.5906 20.0584 10.4027 19.8014 10.2655C19.1274 9.90905 18.3836 9.73137 17.6352 9.74814C16.8122 9.76022 16.0121 9.70537 15.2985 9.19572C15.0065 8.98094 14.7241 8.7647 14.4316 8.56294C14.3274 8.48936 14.1693 8.37474 14.0846 8.48602C13.9819 8.61558 14.064 8.79354 14.1712 8.92754C14.1921 8.95286 14.2145 8.97926 14.2377 9.00294C15.0257 9.80181 15.9407 10.2835 17.0435 10.2446C17.8334 10.2155 18.6142 10.224 19.377 10.5009C19.6529 10.6015 19.9027 10.7398 20.0381 11.0353C20.0705 11.1042 20.0705 11.2493 20.2111 11.1839C20.2371 11.1748 20.2609 11.1602 20.2811 11.1409C20.3013 11.1216 20.3175 11.098 20.3287 11.0717C20.3398 11.0453 20.3457 11.0168 20.3459 10.9878C20.3462 10.9588 20.3408 10.9299 20.3301 10.903ZM18.1921 20.6941C18.2602 20.6876 18.3253 20.663 18.3815 20.6226C18.4376 20.5821 18.4829 20.5272 18.5131 20.4628C18.5329 20.4236 18.5664 20.3705 18.5225 20.3228C18.5129 20.3113 18.5012 20.302 18.4881 20.2955C18.475 20.2891 18.4608 20.2856 18.4464 20.2853C18.432 20.285 18.4178 20.288 18.4047 20.294C18.3916 20.2999 18.3799 20.3088 18.3703 20.32C18.2192 20.5501 18.0382 20.4299 17.8731 20.3578C17.2991 20.0872 16.7658 19.727 16.2915 19.2894C15.4124 18.5235 14.2989 18.1281 13.1705 18.181C13.0584 18.1838 12.8968 18.1836 12.8906 18.353C12.8926 18.4225 12.9177 18.4896 12.9615 18.5424C13.0053 18.5952 13.065 18.6303 13.1302 18.6417C13.1932 18.6576 13.257 18.6687 13.3213 18.675C14.3834 18.8274 15.3791 19.1635 16.2445 19.8755C16.6869 20.2158 17.1814 20.4719 17.7054 20.6319C17.8607 20.6957 18.0282 20.7171 18.1921 20.6941Z" fill="#F8F2EA"/>
<path d="M19.5211 16.0614C19.6044 16.9982 20.0563 17.8403 20.2045 18.7608C20.2972 19.3723 20.3606 19.9844 20.4099 20.6C20.4127 20.619 20.3951 20.6398 20.3557 20.6626C20.1052 19.123 19.7262 17.608 19.5211 16.0614Z" fill="#F8F2EA"/>
<path d="M9.71986 6.43148C9.49521 7.29061 8.87121 8.24396 8.246 8.36595C8.58297 8.12353 8.88394 7.83007 9.13945 7.49479C9.35492 7.1545 9.5488 6.7993 9.71986 6.43148Z" fill="#F8F2EA"/>
<path d="M14.9915 4.07007L15.774 6.10803C15.3903 5.48701 15.1244 4.79463 14.9915 4.07007Z" fill="#F8F2EA"/>
<path d="M11.1041 21.2128C11.1136 21.2347 11.1216 21.2555 11.1309 21.2761L9.50454 22.0757C9.98989 21.7001 10.5298 21.4088 11.1041 21.2128Z" fill="#F8F2EA"/>
<path d="M17.8413 8.47711C17.3329 8.51403 17.1031 8.1603 16.8296 7.88184C17.1547 8.05663 17.4632 8.26761 17.8413 8.47711Z" fill="#F8F2EA"/>
<path d="M19.0325 16.1965C18.9659 15.8051 18.7302 15.4289 18.907 15.0135C18.9701 15.4055 19.113 15.7905 19.0325 16.1965Z" fill="#F8F2EA"/>
<path d="M8.17438 9.15136C7.75461 9.2966 7.33485 9.44184 6.98743 9.4427L8.16171 9.0678C8.16651 9.09945 8.17054 9.12604 8.17438 9.15136Z" fill="#F8F2EA"/>
<path d="M2.21893 10.3338C2.10407 10.6336 1.92894 10.9153 1.98192 11.2648C1.84179 10.8974 1.98499 10.5908 2.18605 10.3025C2.19617 10.3139 2.20717 10.3244 2.21893 10.3338Z" fill="#F8F2EA"/>
<path d="M16.0791 8.01637C15.8802 7.69682 15.63 7.41093 15.5178 7.03418C15.7058 7.36188 15.9756 7.63184 16.0791 8.01637Z" fill="#F8F2EA"/>
<path d="M13.7438 2.41366L13.0527 2.10913C13.3135 2.09555 13.5705 2.19164 13.7676 2.37639C13.7585 2.38795 13.7506 2.40043 13.7438 2.41366Z" fill="#F8F2EA"/>
<path d="M6.09188 19.697L5.95976 20.5045C5.94256 20.2278 5.9662 19.9507 6.02981 19.6831L6.09188 19.697Z" fill="#2180A3"/>
<path d="M6.65445 17.418C6.68001 17.2715 6.6376 17.121 6.67055 16.9747C6.79809 17.1291 6.75518 17.2744 6.65445 17.418Z" fill="#F8F2EA"/>
<path d="M6.19919 18.7251C6.20191 18.7026 6.20463 18.6802 6.20615 18.6579C6.2481 18.6114 6.23188 18.5529 6.23478 18.4993C6.27189 18.4612 6.23832 18.3691 6.32009 18.367C6.3186 18.5752 6.27578 18.7801 6.19441 18.9683L6.18722 18.9694C6.16944 18.888 6.17358 18.8033 6.19919 18.7251Z" fill="#F8F2EA"/>
<path d="M8.17452 9.15158C8.17067 9.12623 8.16664 9.09961 8.1626 9.07299C8.28841 9.01166 8.423 8.97199 8.56132 8.95549C8.4565 9.0803 8.3082 9.10408 8.17452 9.15158Z" fill="#2180A3"/>
<path d="M6.19095 18.9682C6.21398 19.0555 6.1651 19.129 6.14974 19.2701C6.13111 19.2195 6.12438 19.1651 6.13015 19.1116C6.13591 19.058 6.15399 19.007 6.18281 18.963L6.19095 18.9682Z" fill="#F8F2EA"/>
<path d="M8.324 8.72691C8.34396 8.66591 8.3899 8.67183 8.45176 8.66245C8.41648 8.73479 8.36859 8.72401 8.32676 8.72907L8.324 8.72691Z" fill="#2180A3"/>
<path d="M8.32662 8.72938C8.32297 8.77775 8.28702 8.77415 8.2568 8.77615C8.25084 8.77705 8.24333 8.76785 8.23641 8.76244L8.32386 8.72722L8.32662 8.72938Z" fill="#2180A3"/>
<path d="M8.82121 8.47402L8.80536 8.47021L8.82125 8.46656L8.82121 8.47402Z" fill="#2180A3"/>
<path d="M8.66919 8.54004C8.67622 8.53897 8.68443 8.53773 8.69029 8.53684C8.69615 8.53595 8.71833 8.54782 8.69367 8.55917C8.68721 8.56266 8.67979 8.56379 8.67257 8.56237C8.67257 8.56237 8.67229 8.54465 8.66919 8.54004Z" fill="#2180A3"/>
<path d="M8.52641 8.62369C8.53838 8.61744 8.55079 8.61217 8.56355 8.60791C8.56355 8.60791 8.5754 8.61499 8.58084 8.61924C8.56949 8.62609 8.5575 8.63173 8.54506 8.63607C8.54506 8.63607 8.53226 8.6228 8.52641 8.62369Z" fill="#2180A3"/>
<path d="M16.0792 8.01565L16.0965 7.97105L16.1154 7.98472C16.1028 7.99435 16.0908 8.00468 16.0792 8.01565Z" fill="#F8F2EA"/>
<path d="M2.18591 10.3023L2.23082 10.2452C2.23868 10.2563 2.24796 10.2662 2.25839 10.2746C2.25974 10.2813 2.25977 10.2882 2.25848 10.2949C2.25718 10.3015 2.25458 10.3078 2.25084 10.3134C2.24711 10.3189 2.24232 10.3235 2.23677 10.327C2.23123 10.3304 2.22505 10.3326 2.21862 10.3334C2.20692 10.324 2.19598 10.3136 2.18591 10.3023Z" fill="#F8F2EA"/>
<path d="M2.34115 10.23L2.26121 10.2744C2.25075 10.266 2.24144 10.2561 2.23356 10.245C2.24596 10.2277 2.26438 10.2162 2.28488 10.2131C2.30538 10.21 2.32636 10.2155 2.34335 10.2284L2.34115 10.23Z" fill="#F8F2EA"/>
<path d="M2.34035 10.2279L2.29319 10.1943C2.3376 10.1621 2.32023 10.222 2.33819 10.2295L2.34035 10.2279Z" fill="#F8F2EA"/>
<path d="M9.75237 6.35256L9.76437 6.34298L9.76687 6.35943L9.75237 6.35256Z" fill="#F8F2EA"/>
<path d="M13.8212 2.41617C13.8399 2.41333 13.8645 2.4096 13.8567 2.44502C13.8394 2.4465 13.822 2.44573 13.8048 2.44274L13.8212 2.41617Z" fill="#F8F2EA"/>
<path d="M13.7666 2.36994C13.7963 2.36543 13.817 2.38161 13.821 2.41579L13.8044 2.44279L13.744 2.41331C13.75 2.39801 13.7576 2.38347 13.7666 2.36994Z" fill="#F8F2EA"/>
<path d="M7.1173 10.0653C7.42953 10.018 7.74176 9.97068 8.05399 9.92334C9.06255 9.78728 9.78449 9.22968 10.2447 8.28561C10.4372 7.89246 10.5967 7.48359 10.7614 7.07652C10.8293 6.9108 10.8636 6.69317 11.1237 6.77809C11.3837 6.86301 11.4671 6.9773 11.4071 7.29985C11.209 8.36609 10.7858 9.31231 9.9297 9.9615C9.31626 10.4275 8.59991 10.6022 7.84534 10.5974C7.27085 10.5939 6.69573 10.5619 6.12564 10.555C5.82765 10.551 5.5196 10.5291 5.28249 10.7813C5.25422 10.8128 5.20179 10.8544 5.15564 10.8083C5.14003 10.7881 5.13052 10.7635 5.12836 10.7377C5.12619 10.7119 5.13148 10.6861 5.14352 10.6638C5.17349 10.5935 5.22444 10.5358 5.28869 10.4993C5.48717 10.3673 5.711 10.2826 5.9449 10.2509C6.33594 10.1825 6.73086 10.1317 7.12324 10.0722L7.1173 10.0653Z" fill="#080707"/>
<path d="M17.5649 16.2025C17.3658 14.9375 17.8244 13.9263 18.6415 13.068C19.0056 12.6851 19.3945 12.3282 19.7731 11.96C19.8078 11.9243 19.8461 11.8929 19.8874 11.8662C20.04 11.7745 20.242 11.7024 20.3632 11.8239C20.4844 11.9454 20.3332 12.1186 20.2516 12.2423C19.883 12.806 19.4069 13.2654 18.9333 13.7258C18.5743 14.0703 18.2983 14.5004 18.1275 14.9813C17.8145 15.8629 17.9485 16.7389 18.3188 17.5752C18.5736 18.1267 18.7716 18.7047 18.9094 19.299C18.9389 19.437 18.9844 19.6322 18.8573 19.6657C18.7089 19.7038 18.6847 19.4963 18.6584 19.3708C18.5184 18.7423 18.291 18.1377 17.9838 17.5768C17.7677 17.1475 17.6258 16.682 17.5649 16.2025Z" fill="#080707"/>
<path d="M8.44656 15.9669C8.53432 16.7476 8.41208 17.4993 8.20921 18.2437C8.02406 18.9194 7.80149 19.5904 7.74719 20.3058C7.70317 20.8954 7.94733 21.1174 8.4928 20.97C8.54687 20.9553 8.62125 20.8728 8.66239 20.9585C8.70353 21.0442 8.60751 21.0808 8.54914 21.1156C8.28151 21.2714 8.01337 21.4804 7.69266 21.27C7.34754 21.0439 7.23607 20.6799 7.23643 20.2706C7.24057 19.5472 7.45577 18.876 7.66997 18.2063C7.79508 17.8453 7.9027 17.4775 7.99243 17.1044C8.16842 16.2876 8.07359 15.5248 7.6103 14.8179C7.55145 14.7284 7.42262 14.6132 7.56327 14.5077C7.70391 14.4022 7.79226 14.5248 7.87116 14.6255C8.18519 15.0038 8.38568 15.4712 8.44656 15.9669Z" fill="#080707"/>
<path d="M20.3299 10.9027C20.34 10.9295 20.3449 10.958 20.3443 10.9866C20.3437 11.0152 20.3377 11.0433 20.3265 11.0692C20.3154 11.0951 20.2993 11.1183 20.2794 11.1373C20.2594 11.1563 20.2359 11.1708 20.2103 11.1799C20.0661 11.2458 20.0757 11.0993 20.0373 11.0313C19.8983 10.7363 19.6521 10.5975 19.3762 10.4968C18.614 10.2238 17.8328 10.2127 17.0428 10.2405C15.9397 10.2782 15.0249 9.79776 14.2369 8.9989C14.2137 8.97521 14.1913 8.94881 14.1704 8.92349C14.0632 8.7895 13.9811 8.61153 14.0839 8.48198C14.1693 8.37576 14.3298 8.49002 14.4308 8.5589C14.7237 8.76319 15.0077 8.98955 15.2977 9.19167C16.0119 9.70512 16.812 9.75998 17.6345 9.7441C18.3828 9.72733 19.1267 9.905 19.8007 10.2615C20.0582 10.4025 20.2629 10.5904 20.3299 10.9027Z" fill="#080707"/>
<path d="M18.1922 20.694C18.0293 20.7158 17.8631 20.6938 17.7089 20.6299C17.185 20.47 16.6904 20.2139 16.2481 19.8735C15.3827 19.1615 14.387 18.8254 13.3249 18.673C13.2606 18.6667 13.1967 18.6556 13.1338 18.6398C13.0686 18.6284 13.0089 18.5932 12.9651 18.5404C12.9213 18.4876 12.8962 18.4206 12.8942 18.351C12.9006 18.1829 13.0621 18.1831 13.1741 18.179C14.3025 18.1261 15.4159 18.5215 16.2951 19.2874C16.7694 19.725 17.3027 20.0852 17.8766 20.3558C18.0418 20.4279 18.2228 20.5482 18.3739 20.318C18.3834 20.3068 18.3952 20.298 18.4083 20.292C18.4214 20.286 18.4356 20.2831 18.45 20.2833C18.4644 20.2836 18.4786 20.2871 18.4917 20.2935C18.5048 20.3 18.5165 20.3093 18.5261 20.3208C18.57 20.3686 18.5412 20.4209 18.5167 20.4608C18.4864 20.526 18.4407 20.5817 18.3839 20.6225C18.3271 20.6633 18.2611 20.6879 18.1922 20.694Z" fill="#080707"/>
<path d="M6.35133 18.5049C6.42136 17.9716 6.40667 17.5276 6.31852 17.5131C6.23036 17.4987 6.10212 17.9193 6.03208 18.4526C5.96205 18.9859 5.97674 19.4299 6.06489 19.4444C6.15305 19.4588 6.28129 19.0382 6.35133 18.5049Z" fill="#F8F2EA"/>
<path d="M6.34854 18.0176C6.38402 18.0122 6.40817 17.9774 6.40248 17.9399C6.39678 17.9023 6.3634 17.8762 6.32792 17.8816C6.29244 17.887 6.26829 17.9218 6.27398 17.9594C6.27967 17.9969 6.31306 18.023 6.34854 18.0176Z" fill="#F8F2EA"/>
<path d="M6.08903 20.1324C6.13736 19.8662 6.13445 19.6411 6.08253 19.6297C6.03061 19.6183 5.94933 19.8249 5.901 20.0912C5.85266 20.3574 5.85557 20.5825 5.90749 20.5939C5.95942 20.6053 6.04069 20.3987 6.08903 20.1324Z" fill="#F8F2EA"/>
<path d="M11.1142 21.2787L11.131 21.2762L12.3478 20.7459L12.3378 20.68C12.3378 20.68 11.0397 21.1747 11.0223 21.2292L11.0048 21.2836L11.1142 21.2787Z" fill="#F8F2EA"/>
<path d="M8.81708 8.33884C8.81708 8.33884 8.0593 8.54698 8.13476 8.76221C8.21023 8.97744 8.99723 8.50193 8.56575 8.77976L8.13427 9.0576C8.13427 9.0576 7.77065 9.24225 8.12307 9.16939L8.47869 9.09346C8.47869 9.09346 9.23182 8.41067 9.21742 8.31571C9.20302 8.22075 8.81708 8.33884 8.81708 8.33884Z" fill="#F8F2EA"/>
</svg>
