<svg width="82" height="78" viewBox="0 0 82 78" fill="none" xmlns="http://www.w3.org/2000/svg">
<g filter="url(#filter0_d_4001_42102)">
<path d="M0.266113 34.8454C0.39913 25.9968 3.47506 18.2058 9.69906 11.6155C14.7717 6.24522 21.0499 2.7958 28.3523 1.04112C30.6046 0.500048 32.8937 0.185808 35.2121 0.0593897C40.0059 -0.202838 44.6713 0.398191 49.1954 1.96433C53.8254 3.56732 57.9167 6.00972 61.4878 9.26048C64.5269 12.0265 66.8964 15.257 68.8218 18.8213C70.8043 22.4925 72.0924 26.3573 72.6703 30.4511C72.9296 32.2867 73.0461 34.1302 72.9829 35.9795C72.6906 44.5897 69.5771 52.1257 63.5056 58.469C58.3616 63.8428 52.0316 67.2959 44.6007 68.8548C42.4694 69.3019 40.3126 69.5822 38.1287 69.6285C28.3658 69.8358 19.7573 66.9058 12.4165 60.7135C6.58706 55.7954 2.88813 49.6197 1.15816 42.3568C0.621577 40.1058 0.333749 37.8216 0.300683 35.51C0.297677 35.3005 0.27964 35.0917 0.266865 34.8461L0.266113 34.8454Z" fill="#060000"/>
<path d="M38.4966 66.1746C33.451 66.2628 28.7451 65.4652 24.2322 63.6903C20.9947 62.4175 17.9699 60.787 15.3374 58.5491C11.0094 54.8707 7.84483 50.4207 5.85107 45.2058C4.98007 42.9288 4.3969 40.5832 4.08653 38.1777C3.77991 35.8068 3.68748 33.4258 4.02491 31.0556C4.47882 27.8684 5.45127 24.8192 6.90469 21.9181C9.77095 16.1968 13.9997 11.6255 19.5744 8.23315C23.2658 5.98723 27.2834 4.49189 31.5895 3.7341C33.7095 3.36062 35.8476 3.18508 38.0014 3.20459C41.3381 3.23493 44.6154 3.67848 47.7838 4.69127C49.9902 5.39632 52.0449 6.43512 53.9898 7.66029C60.3017 11.637 64.7784 17.0535 67.5928 23.758C68.814 26.6671 69.5746 29.6889 69.8789 32.8154C70.0262 34.3252 70.1089 35.8386 69.9766 37.3505C69.8196 39.1464 69.4438 40.9083 68.935 42.6428C67.4245 47.7855 64.7566 52.304 60.9548 56.197C56.98 60.2669 52.229 63.194 46.7219 64.9617C45.0678 65.4927 43.3424 65.7556 41.6109 65.9565C40.5182 66.0829 39.421 66.1392 38.4966 66.1753V66.1746Z" fill="#F8F2EA"/>
<path d="M38.3747 62.8272C33.9562 62.9055 29.8351 62.1964 25.8832 60.6181C23.0481 59.4863 20.3992 58.0365 18.0939 56.0465C14.3039 52.7757 11.5326 48.8188 9.78669 44.1817C9.02395 42.157 8.51326 40.0713 8.24147 37.9323C7.97296 35.8241 7.89201 33.7069 8.1875 31.5994C8.585 28.7654 9.43658 26.054 10.7094 23.4743C13.2194 18.3869 16.9225 14.3222 21.8043 11.3057C25.0369 9.30863 28.5551 7.97897 32.326 7.30515C34.1825 6.97306 36.0548 6.81696 37.941 6.83431C40.8629 6.86129 43.7329 7.25569 46.5075 8.15626C48.4397 8.78319 50.2389 9.70689 51.9421 10.7963C57.4695 14.3324 61.3898 19.1488 63.8544 25.1104C64.9238 27.6971 65.5898 30.3841 65.8564 33.1642C65.9853 34.5067 66.0577 35.8524 65.9419 37.1968C65.8044 38.7937 65.4753 40.3604 65.0298 41.9027C63.707 46.4756 61.3707 50.4934 58.0414 53.9551C54.5607 57.574 50.4002 60.1768 45.5776 61.7487C44.1291 62.2208 42.6181 62.4546 41.1018 62.6332C40.145 62.7456 39.1841 62.7957 38.3747 62.8278V62.8272Z" fill="#181818"/>
<path d="M10.3699 13.8008C11.1372 12.6898 12.0052 11.6524 12.9325 10.6642C13.4473 10.1159 14.0598 9.66081 14.6903 9.16309C13.3256 10.8152 11.8436 12.3084 10.4337 13.8622C10.3781 13.8745 10.3488 13.8622 10.3699 13.8008Z" fill="#F8F2EA"/>
<path d="M58.5099 10.2487C60.1715 11.5498 61.6797 12.9974 63.0189 14.6062C63.0302 14.6589 63.0144 14.6857 62.9535 14.6662C61.5219 13.1463 59.9813 11.7304 58.4392 10.3159C58.4287 10.261 58.4482 10.2343 58.5091 10.2487H58.5099Z" fill="#F8F2EA"/>
<path d="M72.1718 32.6804C72.3529 34.0313 72.4476 35.3858 72.3101 36.7453C72.259 37.2553 72.1778 37.7624 72.1102 38.271C71.9531 38.2002 72.0576 38.0839 72.0561 37.9857C72.1395 36.7229 72.2162 35.4602 72.1711 34.1938C72.1538 33.7091 72.1312 33.2244 72.1102 32.7397C72.0899 32.6812 72.1162 32.6667 72.1718 32.6797V32.6804Z" fill="#F8F2EA"/>
<path d="M40.9757 67.2078C40.2039 67.3038 39.4329 67.4028 38.6603 67.4953C37.9343 67.5827 37.2061 67.6557 36.4809 67.7525C36.2893 67.7785 36.1067 67.7496 35.9203 67.7452C35.8654 67.7438 35.7625 67.7907 35.7753 67.6715C35.7835 67.5957 35.8482 67.5661 35.9256 67.561C36.2021 67.5437 36.4779 67.5162 36.7552 67.5068C38.002 67.4649 39.2397 67.3277 40.4759 67.1753C40.6405 67.155 40.8066 67.1298 40.9757 67.207V67.2078Z" fill="#F8F2EA"/>
<path d="M23.1107 5.74969C24.6017 4.94567 26.2317 4.49345 27.8512 4.01595C27.9159 3.995 27.9316 4.02318 27.9204 4.07952C26.3196 4.60976 24.7257 5.1595 23.1731 5.81109C23.1115 5.82843 23.0964 5.80315 23.1107 5.74969Z" fill="#F8F2EA"/>
<path d="M56.8293 61.1418C58.1317 60.0452 59.4649 58.9804 60.6718 57.7798C60.3802 58.3274 57.6492 60.73 56.8293 61.1418Z" fill="#F8F2EA"/>
<path d="M62.6558 11.5461C63.2254 11.9485 65.413 14.4176 65.7182 14.9789C64.618 13.9011 63.753 12.6283 62.6558 11.5461Z" fill="#F8F2EA"/>
<path d="M57.0047 8.20429C56.2156 7.76363 55.4273 7.32225 54.6382 6.88159C55.5077 7.18716 56.4275 7.40677 57.0047 8.20429Z" fill="#F8F2EA"/>
<path d="M10.1892 15.6264C10.7296 14.8787 11.3398 14.1823 11.9455 13.4838C11.9876 13.4346 12.0237 13.3191 12.1236 13.3913C12.2341 13.4715 12.1364 13.5358 12.0808 13.5993C11.4713 14.2957 10.8618 14.9928 10.2531 15.6899C10.1997 15.6986 10.1697 15.6849 10.19 15.6264H10.1892Z" fill="#F8F2EA"/>
<path d="M71.7178 41.0406C71.5607 42.0448 71.3172 43.0294 70.9873 43.9945C70.9693 44.0154 70.9505 44.0162 70.9302 43.9967C71.194 42.9542 71.4622 41.9133 71.6524 40.855C71.7944 40.8774 71.714 40.9727 71.7178 41.0399V41.0406Z" fill="#F8F2EA"/>
<path d="M62.9546 14.6662C62.9764 14.6459 62.9982 14.6264 63.02 14.6062C63.7489 15.4109 64.3847 16.2814 64.9882 17.175C65.0085 17.2314 64.9807 17.2408 64.9311 17.2292C64.3223 16.3392 63.6317 15.5077 62.9546 14.6662Z" fill="#F8F2EA"/>
<path d="M71.7182 41.0406C71.6889 40.9814 71.731 40.8983 71.6528 40.8557C71.7874 39.8992 71.9219 38.9428 72.0564 37.9863C72.094 38.0781 72.0361 38.1864 72.1105 38.2717C71.9797 39.1949 71.849 40.1174 71.719 41.0406H71.7182Z" fill="#F8F2EA"/>
<path d="M70.6386 45.0866C70.4748 45.8819 70.1269 46.6173 69.8368 47.3715C69.7857 47.5044 69.7263 47.6345 69.6707 47.7659C69.6211 47.7724 69.5858 47.7674 69.6188 47.7067C69.9563 46.8218 70.311 45.9419 70.5921 45.0382C70.6146 45.0302 70.6371 45.023 70.6522 45.0483C70.6582 45.0584 70.6499 45.0729 70.6394 45.0866H70.6386Z" fill="#F8F2EA"/>
<path d="M71.1543 25.8611C71.4316 26.6897 71.6984 27.5211 71.7262 28.3996C71.5353 27.5536 71.3452 26.7077 71.1543 25.8611Z" fill="#F8F2EA"/>
<path d="M35.1244 2.5437C35.7737 2.48302 36.42 2.38478 37.0724 2.36816C37.0754 2.40284 37.0791 2.43679 37.0821 2.47147C36.4501 2.51625 35.8181 2.56104 35.1853 2.60583C35.1252 2.621 35.1079 2.59716 35.1237 2.54298L35.1244 2.5437Z" fill="#F8F2EA"/>
<path d="M2.9485 34.8101V36.5171C2.91693 36.5171 2.88537 36.5156 2.85381 36.5149C2.72004 35.9009 2.95451 35.2984 2.9485 34.8101Z" fill="#F8F2EA"/>
<path d="M4.79807 24.3831C4.67934 24.6937 4.55759 25.0043 4.44261 25.3164C4.41255 25.398 4.37648 25.4638 4.27728 25.4255C4.14952 25.3756 4.24647 25.3048 4.27502 25.2485C4.42157 24.9581 4.57187 24.6706 4.72142 24.3816C4.74772 24.3578 4.77327 24.3585 4.79883 24.3838L4.79807 24.3831Z" fill="#F8F2EA"/>
<path d="M29.5198 3.1562C28.9426 3.29418 28.3662 3.43215 27.7891 3.57085C28.3099 3.29129 28.884 3.19449 29.4582 3.09624C29.5168 3.08035 29.5341 3.10346 29.5198 3.15692V3.1562Z" fill="#F8F2EA"/>
<path d="M4.25519 43.7711C3.97864 43.2351 3.90048 42.6456 3.82007 42.0562C3.96511 42.6276 4.11015 43.1997 4.25519 43.7711Z" fill="#F8F2EA"/>
<path d="M10.1891 15.626C10.2102 15.6469 10.2312 15.6686 10.2523 15.6895C9.98849 16.0385 9.72471 16.3881 9.46093 16.737C9.43838 16.7226 9.41659 16.7081 9.39404 16.6937C9.6488 16.3318 9.89079 15.9612 10.1891 15.626Z" fill="#F8F2EA"/>
<path d="M14.9863 59.8682C15.3395 60.1376 15.6927 60.4071 16.046 60.6765C15.4936 60.4316 15.1517 60.1694 14.9863 59.8682Z" fill="#F8F2EA"/>
<path d="M42.4857 2.03797C42.0844 2.00908 41.6823 1.97946 41.2517 1.9484C41.6943 1.7259 42.0881 1.98741 42.4932 1.96718C42.4902 1.9903 42.4879 2.01414 42.4849 2.03725L42.4857 2.03797Z" fill="#F8F2EA"/>
<path d="M49.8481 4.92822C50.3118 4.98529 50.7139 5.1565 51.0799 5.41367C50.6695 5.25185 50.2585 5.09004 49.8481 4.92822Z" fill="#F8F2EA"/>
<path d="M27.9205 4.07946C27.8972 4.05851 27.8746 4.03684 27.8513 4.01589C28.188 3.86707 28.548 3.80278 28.9019 3.71826C28.9094 3.74138 28.917 3.76449 28.9245 3.78761C28.5893 3.88513 28.2549 3.98193 27.9197 4.07946H27.9205Z" fill="#F8F2EA"/>
<path d="M44.522 66.9304C44.8084 66.8488 45.0947 66.7664 45.381 66.6848C45.2104 66.9694 44.8963 66.9044 44.646 66.9926C44.5844 67.0084 44.5145 67.041 44.522 66.9304Z" fill="#F8F2EA"/>
<path d="M38.9783 68.1507C39.4374 68.1427 39.8906 68.0178 40.3543 68.1015C39.8951 68.1095 39.4435 68.2532 38.9783 68.1507Z" fill="#F8F2EA"/>
<path d="M13.9539 58.1208C14.2146 58.3563 14.4762 58.5926 14.7369 58.8281C14.7204 58.8447 14.7031 58.862 14.6866 58.8786C14.398 58.6699 14.1455 58.4257 13.9539 58.1208Z" fill="#F8F2EA"/>
<path d="M15.5259 59.5684C15.2486 59.3857 14.9976 59.1755 14.7856 58.9233C15.0757 59.0902 15.329 59.2997 15.568 59.5265C15.574 59.5583 15.5597 59.5728 15.5259 59.5684Z" fill="#F8F2EA"/>
<path d="M5.77161 48.5331C5.58824 48.2449 5.468 47.9335 5.42065 47.5933C5.55292 47.8938 5.68519 48.195 5.81745 48.4955C5.81745 48.5251 5.80242 48.5374 5.77236 48.5338L5.77161 48.5331Z" fill="#F8F2EA"/>
<path d="M58.5098 10.2488C58.4865 10.2712 58.4632 10.2936 58.4399 10.3159C58.2603 10.1585 58.0807 10.001 57.9019 9.84351C58.1506 9.92225 58.3422 10.0703 58.5106 10.2488H58.5098Z" fill="#F8F2EA"/>
<path d="M64.9312 17.2292C64.9499 17.2112 64.9695 17.1931 64.9883 17.175C65.1844 17.3845 65.3189 17.6287 65.4129 17.9003C65.252 17.6764 65.092 17.4524 64.9312 17.2292Z" fill="#F8F2EA"/>
<path d="M29.5201 3.15651C29.4998 3.13628 29.4788 3.11605 29.4585 3.09583C29.7493 3.00336 30.0447 2.93257 30.3528 2.92896C30.3596 2.93618 30.3656 2.94413 30.3723 2.95135C30.0995 3.06404 29.8064 3.09583 29.5201 3.15579V3.15651Z" fill="#F8F2EA"/>
<path d="M19.8818 62.4585C20.0968 62.5791 20.3125 62.6998 20.5274 62.8197C20.2666 62.7792 20.0472 62.6622 19.8818 62.4585Z" fill="#F8F2EA"/>
<path d="M44.522 66.9302C44.5371 66.9995 44.6047 66.9714 44.646 66.9923C44.389 67.0501 44.1327 67.1086 43.8757 67.1664C44.0726 67.0291 44.2951 66.9728 44.522 66.9302Z" fill="#F8F2EA"/>
<path d="M72.1715 32.6804C72.1512 32.7006 72.1309 32.7201 72.1099 32.7404C72.0302 32.5301 72.052 32.3156 72.1061 32.0981L72.1715 32.6804Z" fill="#F8F2EA"/>
<path d="M16.4407 60.2583C16.2423 60.1449 16.0537 60.0192 15.8959 59.8559C15.8944 59.8278 15.9094 59.8177 15.9372 59.8242C16.1341 59.9065 16.2739 60.0618 16.4392 60.1846C16.4655 60.2085 16.4663 60.233 16.4407 60.2583Z" fill="#F8F2EA"/>
<path d="M23.1111 5.74975C23.1322 5.76997 23.1525 5.79092 23.1735 5.81115C23.0149 5.91734 22.8391 5.9838 22.6475 6.0127C22.7835 5.89206 22.9368 5.80393 23.1104 5.74902L23.1111 5.74975Z" fill="#F8F2EA"/>
<path d="M35.1241 2.5437C35.1444 2.56465 35.1654 2.5856 35.1857 2.60655C34.9881 2.70335 34.7822 2.65639 34.5732 2.61161C34.7566 2.58921 34.9407 2.5661 35.1241 2.5437Z" fill="#F8F2EA"/>
<path d="M4.79811 24.3829C4.77256 24.3829 4.74625 24.3815 4.7207 24.3808C4.79661 24.2197 4.87251 24.0586 4.94841 23.8982C4.94315 24.0773 4.91309 24.2449 4.79811 24.3829Z" fill="#F8F2EA"/>
<path d="M6.06348 21.2745C6.15441 21.0961 6.24534 20.917 6.33627 20.7385C6.35882 20.7486 6.38212 20.7588 6.40466 20.7689C6.31824 20.9495 6.26413 21.1445 6.06348 21.2745Z" fill="#F8F2EA"/>
<path d="M70.111 26.6096C70.0667 26.4391 70.0224 26.2686 69.978 26.0981C70.108 26.2246 70.1637 26.3748 70.1659 26.5424C70.1945 26.6002 70.1659 26.6154 70.1103 26.6096H70.111Z" fill="#F8F2EA"/>
<path d="M69.618 47.707C69.6353 47.7265 69.6526 47.7468 69.6699 47.7663C69.6143 47.9172 69.5519 48.0646 69.4016 48.225C69.4572 48.0112 69.5241 47.8544 69.618 47.707Z" fill="#F8F2EA"/>
<path d="M10.3696 13.8008C10.3907 13.821 10.4125 13.842 10.4335 13.8622C10.3621 14.0182 10.2329 14.1287 10.1006 14.24C10.1539 14.0724 10.2396 13.9243 10.3696 13.8008Z" fill="#F8F2EA"/>
<path d="M5.81633 48.4956C5.91102 48.6545 6.00045 48.8142 6.01999 49.0034C5.90576 48.8619 5.81257 48.7109 5.77124 48.5339C5.78627 48.5209 5.8013 48.5086 5.81633 48.4956Z" fill="#F8F2EA"/>
<path d="M16.4407 60.2583C16.4407 60.2337 16.44 60.2091 16.4392 60.1846C16.588 60.2669 16.724 60.3644 16.827 60.5046C16.6834 60.4446 16.5392 60.3868 16.4407 60.259V60.2583Z" fill="#F8F2EA"/>
<path d="M69.6322 24.7196C69.5165 24.5975 69.4301 24.4653 69.4609 24.2363C69.5323 24.4379 69.5826 24.5787 69.6322 24.7196Z" fill="#F8F2EA"/>
<path d="M70.1108 26.6094C70.1296 26.587 70.1477 26.5646 70.1665 26.5422C70.2416 26.6766 70.2634 26.8218 70.2401 26.9778C70.1973 26.855 70.1537 26.7322 70.1108 26.6094Z" fill="#F8F2EA"/>
<path d="M70.9304 43.9965C70.9499 44.0045 70.9687 44.0031 70.9875 43.9944C70.9447 44.1259 70.9018 44.2581 70.8334 44.4683C70.8094 44.2407 70.8485 44.1143 70.9304 43.9973V43.9965Z" fill="#F8F2EA"/>
<path d="M30.3523 2.92938C30.5086 2.85353 30.6724 2.8203 30.9092 2.84703C30.6905 2.88965 30.5409 2.96261 30.3718 2.95178C30.3651 2.94455 30.3591 2.93661 30.3523 2.92938Z" fill="#F8F2EA"/>
<path d="M15.8956 59.856C15.7724 59.7599 15.6491 59.6646 15.5259 59.5685C15.5402 59.5548 15.5537 59.5403 15.568 59.5266C15.7085 59.6061 15.8325 59.7043 15.937 59.8242C15.9189 59.8293 15.9054 59.8401 15.8956 59.856Z" fill="#F8F2EA"/>
<path d="M70.6389 45.0866C70.6231 45.0707 70.6073 45.0541 70.5916 45.0382C70.6291 44.9125 70.6667 44.7868 70.7043 44.6611C70.7246 44.8114 70.7306 44.958 70.6381 45.0866H70.6389Z" fill="#F8F2EA"/>
</g>
<path d="M23.4047 36.8105C23.3723 35.1908 23.2848 33.5711 23.3196 31.9515C23.3363 31.1544 23.3675 30.3584 23.4395 29.5625C23.503 28.8591 23.9 28.3501 24.4253 27.9116C24.4657 27.8816 24.4992 27.844 24.524 27.801C24.5487 27.758 24.5641 27.7106 24.5692 27.6617C24.6712 27.0347 24.6891 26.3776 25.0489 25.8188C25.8021 24.648 26.8803 24.3241 28.287 24.8574C28.6288 24.987 28.8543 24.9731 29.1517 24.7799C29.647 24.449 30.1735 24.1633 30.6736 23.837C30.7316 23.8019 30.7806 23.7546 30.8171 23.6987C30.8537 23.6429 30.8768 23.5798 30.8847 23.5142C31.0046 22.8548 31.2049 22.2255 31.6606 21.7014C32.1185 21.1957 32.7376 20.8511 33.4206 20.7219C34.1036 20.5927 34.8117 20.6862 35.4336 20.9876C35.519 21.0388 35.6188 21.0634 35.7192 21.0581C35.8196 21.0527 35.9159 21.0176 35.9949 20.9575C36.486 20.6485 36.9958 20.368 37.5216 20.1176C37.6175 20.0702 37.6967 20.0389 37.6763 19.8862C37.5012 18.6252 38.3227 17.7043 39.3889 17.341C40.4959 16.9604 41.4613 17.2254 42.2456 18.0479C42.5026 18.3348 42.8237 18.5619 43.1847 18.712C44.1189 19.0845 43.9486 18.9248 44.2448 19.8307C44.4871 20.5181 44.7909 21.1839 45.1527 21.8205C45.7632 22.9497 46.3268 24.1031 47.0116 25.1964C48.0046 26.7813 49.2159 28.2043 50.5076 29.559C51.9759 31.1239 53.7224 32.4231 55.6645 33.3953C56.8027 33.9599 58.0523 34.1808 59.2996 34.3821C59.7937 34.462 60.2914 34.5453 60.7987 34.4978C61.0002 34.4805 61.0386 34.5545 60.9342 34.7211C60.6223 35.1619 60.2831 35.5842 59.9184 35.9856C57.8013 38.4845 55.6805 40.9803 53.5562 43.473C51.0305 46.4331 48.4999 49.3894 45.9646 52.3418C45.738 52.6067 45.5461 52.8948 45.3098 53.1516C45.2659 53.203 45.2084 53.242 45.1433 53.2644C45.0783 53.2868 45.0082 53.2918 44.9404 53.2789C44.3192 53.2129 43.7411 52.9954 43.1499 52.8161C41.9722 52.4691 40.8161 52.0641 39.7403 51.4741C39.3877 51.2821 39.0327 51.0935 38.6873 50.8957C38.5518 50.8159 38.475 50.8124 38.3623 50.9408C37.8747 51.4764 37.4156 52.0355 36.9867 52.616C36.561 53.2141 36.3091 53.2338 35.7287 52.7583C35.1782 52.3094 34.7033 51.7876 34.2103 51.2821C34.0652 51.134 33.9993 51.1664 33.8745 51.2913C33.2425 51.944 32.5496 52.5392 31.8046 53.0695C31.4076 53.3518 31.2217 53.3899 30.7804 53.0151C30.1951 52.5188 29.8305 51.8582 29.4396 51.2173C29.2297 50.8702 29.0234 50.5289 28.8267 50.1761C28.7512 50.0407 28.684 50.0072 28.5425 50.0963C27.7102 50.6134 26.8299 51.0588 26.024 51.6187C25.8431 51.745 25.6499 51.8539 25.4471 51.9438C24.9422 52.1671 24.6903 52.0537 24.5692 51.525C24.4637 51.0576 24.3669 50.5883 24.279 50.1171C24.0369 48.6999 23.8768 47.2709 23.7993 45.8366C23.659 43.7206 23.581 41.6012 23.4958 39.4817C23.4563 38.5956 23.4347 37.7024 23.4047 36.8105ZM34.1984 50.3161C34.3835 50.6023 34.5903 50.8749 34.8172 51.1317C35.1314 51.4788 35.4 51.8698 35.8066 52.1289C36.1112 52.3221 36.3451 52.3025 36.6137 52.0653C36.84 51.8437 37.0411 51.5994 37.2134 51.3365C37.5912 50.8216 37.8754 50.2536 38.2148 49.7168C38.3119 49.5629 38.3803 49.556 38.5338 49.6566C39.0927 50.0268 39.6743 50.3589 40.2644 50.6805C41.6805 51.4499 43.1726 52.0812 44.7186 52.5651C44.8013 52.5905 44.8853 52.6437 44.9692 52.557C45.1107 52.4135 45.2619 52.2782 45.401 52.1312C47.2239 50.1977 49.0136 48.2352 50.7702 46.2438C54.0275 42.5672 57.328 38.9241 60.337 35.0497C60.4137 34.9502 60.5109 34.8495 60.4377 34.7304C60.3646 34.6112 60.229 34.6528 60.1043 34.6667C59.4481 34.7504 58.7832 34.7473 58.1279 34.6575C56.7547 34.455 55.5266 33.902 54.3681 33.1952C52.117 31.8208 50.2905 30.0056 48.7086 27.9637C46.7082 25.3884 45.0568 22.6223 43.9402 19.5773C43.9287 19.5273 43.903 19.4813 43.8659 19.4445C43.8288 19.4077 43.7819 19.3816 43.7303 19.3691C43.2878 19.2638 42.8908 19.0463 42.4651 18.8982C42.4189 18.8815 42.3798 18.8506 42.3536 18.8103C42.025 18.2689 41.4709 18.0306 40.9036 17.8304C40.2452 17.599 39.6312 17.7529 39.0807 18.137C38.5122 18.5338 38.3827 19.1192 38.4211 19.7497C38.4324 19.8134 38.42 19.879 38.3863 19.9348C38.3525 19.9906 38.2994 20.0332 38.2364 20.0551C37.4281 20.4693 36.6197 20.8835 35.8234 21.3185C35.6051 21.4341 35.4468 21.4561 35.2238 21.3289C34.3555 20.8372 33.1442 21.138 32.5853 21.883C32.1633 22.4065 31.8672 23.0138 31.7182 23.6612C31.7071 23.7306 31.6797 23.7967 31.6381 23.8545C31.5966 23.9122 31.5419 23.96 31.4784 23.9944C30.6029 24.5358 29.7502 25.1108 28.9023 25.6927C28.7895 25.7702 28.72 25.7852 28.606 25.7008C28.3778 25.5425 28.1285 25.4145 27.8649 25.3202C27.0254 24.9881 25.9532 25.1339 25.3991 26.0837C25.222 26.3765 25.0781 26.6868 24.9698 27.0092C24.831 27.4531 24.7762 27.9175 24.8079 28.3802C24.814 28.4207 24.8094 28.4622 24.7945 28.5006C24.7796 28.539 24.7549 28.5732 24.7227 28.6C24.0943 29.2062 23.7525 29.8726 23.8412 30.7981C23.9936 32.3749 24.0127 33.9645 24.0907 35.5413C24.195 37.6238 24.297 39.6969 24.4097 41.7747C24.5033 43.51 24.6004 45.2454 24.6496 46.9807C24.6736 47.8334 24.7227 48.6848 24.7407 49.5375C24.7465 50.115 24.7829 50.6919 24.8498 51.2659C24.8894 51.5736 24.9386 51.6049 25.2348 51.4672C25.2801 51.4474 25.3242 51.425 25.3667 51.4001C26.5313 50.7198 27.7413 50.1113 28.8207 49.3015C28.9682 49.1858 29.0066 49.2297 29.0714 49.3686C29.3652 50.0002 29.671 50.6296 30.0224 51.2335C30.2982 51.7043 30.5489 52.1902 30.9123 52.609C31.103 52.83 31.2925 52.8636 31.5323 52.6935C31.6044 52.6404 31.6714 52.5811 31.7326 52.5165C32.4966 51.7402 33.3696 51.0576 34.1936 50.3161H34.1984Z" fill="#F8F2EA"/>
<path d="M59.9436 26.293C60.837 26.3635 61.1896 26.8575 61.2328 27.6743C61.2396 27.8428 61.211 28.0108 61.1488 28.1684C61.0865 28.3259 60.9919 28.4697 60.8705 28.591C60.7492 28.7124 60.6037 28.8088 60.4428 28.8746C60.2818 28.9403 60.1087 28.9739 59.934 28.9735C59.2432 28.9735 58.6147 28.3488 58.6147 27.6662C58.6279 26.9142 59.2276 26.2918 59.9436 26.293ZM60.2914 27.0311C59.9472 27.0311 59.6222 27.2301 59.615 27.4557C59.6054 27.8027 59.9879 28.247 60.3046 28.2435C60.6212 28.24 60.843 27.9624 60.843 27.5956C60.8442 27.2463 60.6344 27.0357 60.2914 27.0311ZM59.591 26.7997C59.2312 26.9802 58.9817 27.3932 59.0201 27.6928C59.0346 27.8526 59.0943 28.0054 59.1926 28.1348C59.291 28.2641 59.4242 28.3649 59.5778 28.4263C59.3019 27.8583 58.9793 27.3515 59.591 26.7974V26.7997ZM59.6881 26.7418C59.6329 26.7418 59.5682 26.7418 59.555 26.8228C59.6234 26.8332 59.6569 26.7881 59.6881 26.7395V26.7418Z" fill="#070606"/>
<path d="M14.4268 41.9228C14.4268 41.2541 14.651 40.9348 15.1247 40.7879C15.6716 40.6201 16.1166 40.7451 16.4212 41.1546C16.5952 41.4086 16.688 41.7063 16.688 42.0107C16.688 42.3151 16.5952 42.6129 16.4212 42.8668C16.0698 43.3296 15.5421 43.296 14.9976 42.9304C14.8295 42.8152 14.6907 42.6646 14.5918 42.4901C14.4929 42.3155 14.4365 42.1215 14.4268 41.9228ZM16.2161 41.8788C16.2245 41.6474 16.1166 41.5433 15.8479 41.5318C15.5793 41.5202 15.4402 41.6474 15.4294 41.8707C15.4162 42.1229 15.6428 42.492 15.8071 42.4862C15.9714 42.4804 16.2089 42.1067 16.2161 41.8788ZM15.3238 41.3004C14.8441 41.5225 14.8069 41.8545 15.1739 42.4098C15.2015 42.197 15.0996 42.0281 15.114 41.8487C15.1421 41.6535 15.2137 41.4664 15.3238 41.3004ZM15.3586 41.3004C15.3586 41.3004 15.349 41.2877 15.343 41.2877C15.337 41.2877 15.3322 41.2958 15.3274 41.3004L15.3502 41.3143L15.3586 41.3004Z" fill="#070606"/>
<path d="M26.7136 14.9716C26.7031 15.1717 26.6497 15.3675 26.5569 15.5467C26.464 15.7259 26.3336 15.8846 26.1739 16.0128C25.8141 16.2997 25.1365 16.2025 24.8823 15.8184C24.7679 15.6443 24.6681 15.4617 24.5836 15.2724C24.5085 15.1156 24.488 14.9396 24.5252 14.7707C24.5623 14.6018 24.6552 14.449 24.7899 14.3353C24.9319 14.2074 25.0999 14.1094 25.2832 14.0475C25.4666 13.9855 25.6612 13.961 25.8549 13.9755C26.3958 14.0021 26.728 14.3977 26.7136 14.9716ZM25.2337 14.5088C25.0298 14.6372 24.8235 14.7656 24.8871 15.0525C24.959 15.3695 25.2864 15.6981 25.5779 15.7467C25.1113 15.3499 25.0478 15.1127 25.2552 14.5539C25.2684 14.5204 25.2433 14.5146 25.2289 14.5007L25.2564 14.525L25.272 14.4961L25.2337 14.5088ZM26.295 15.0005C26.295 14.665 26.1859 14.5377 25.9065 14.5377C25.79 14.5335 25.6764 14.573 25.5894 14.6478C25.5024 14.7226 25.4488 14.8271 25.4399 14.9392C25.4429 15.0715 25.4985 15.1978 25.5951 15.2918C25.6917 15.3859 25.822 15.4406 25.9592 15.4447C26.2015 15.4482 26.2962 15.3244 26.295 14.9982V15.0005Z" fill="#070606"/>
<path d="M18.4457 36.6704C18.5449 36.6649 18.6443 36.6786 18.738 36.7108C18.8316 36.7429 18.9177 36.7928 18.9911 36.8574C19.0645 36.9221 19.1238 37.0003 19.1654 37.0873C19.2071 37.1744 19.2303 37.2686 19.2336 37.3645C19.2516 37.8504 18.8594 38.312 18.4253 38.3189C18.0319 38.3247 17.5702 37.8654 17.5498 37.4478C17.5294 37.0301 17.9396 36.6889 18.4457 36.6704ZM18.5584 37.221C18.3629 37.221 18.1986 37.3599 18.1986 37.5022C18.1986 37.6445 18.3725 37.8851 18.4817 37.8816C18.6184 37.8758 18.8318 37.6063 18.8318 37.4316C18.8342 37.2349 18.6591 37.265 18.5584 37.221Z" fill="#070606"/>
<path d="M39.1671 53.5137C39.63 53.5137 39.9706 53.7693 39.9539 54.1291C39.9371 54.4889 39.7704 54.939 39.3542 54.939C38.9189 54.9309 38.4475 54.4959 38.4487 54.0829C38.4475 53.737 38.7354 53.5125 39.1671 53.5137ZM39.5989 54.1662C39.5989 54.01 39.4945 53.8816 39.3698 53.8908C39.312 53.8945 39.2573 53.9175 39.2152 53.956C39.1732 53.9944 39.1464 54.0459 39.1395 54.1014C39.1215 54.1974 39.3662 54.4635 39.4477 54.4357C39.5785 54.3883 39.5761 54.2541 39.5941 54.1662H39.5989Z" fill="#070606"/>
<path d="M33.0316 18.2121C33.04 18.6748 32.7234 19.0381 32.3216 19.0358C31.9462 19.0358 31.5049 18.573 31.5049 18.1751C31.5049 17.8372 31.8911 17.5411 32.33 17.5422C32.5117 17.5515 32.6836 17.6249 32.8129 17.7484C32.9423 17.8719 33.0201 18.0369 33.0316 18.2121ZM32.6718 18.2445C32.7078 18.0698 32.583 18.0131 32.4163 17.9992C32.2688 17.9876 32.0086 18.1866 31.993 18.3139C31.9774 18.4411 32.1597 18.6263 32.3 18.6378C32.4811 18.6529 32.6574 18.4747 32.6754 18.2445H32.6718Z" fill="#070606"/>
<path d="M34.3099 57.2146C34.3074 57.1488 34.3189 57.0832 34.3436 57.0219C34.3683 56.9605 34.4057 56.9046 34.4535 56.8576C34.5013 56.8106 34.5585 56.7735 34.6216 56.7486C34.6848 56.7236 34.7526 56.7114 34.8208 56.7125C35.1062 56.7056 35.3917 57.0307 35.4025 57.3766C35.4062 57.5124 35.3572 57.6448 35.2652 57.7477C35.1731 57.8506 35.0446 57.9167 34.9047 57.933C34.6265 57.9377 34.3171 57.5686 34.3099 57.2146ZM35.105 57.3951C35.1398 57.188 35.0319 57.1544 34.9059 57.1452C34.8004 57.1359 34.7488 57.1915 34.7644 57.2898C34.7848 57.4228 34.8436 57.5524 34.9971 57.5605C35.1506 57.5686 35.0894 57.4252 35.105 57.3951Z" fill="#070606"/>
<path d="M34.1937 50.316C33.3697 51.0576 32.4967 51.7401 31.7231 52.5268C31.662 52.5915 31.5949 52.6507 31.5228 52.7038C31.283 52.8739 31.0935 52.8404 30.9028 52.6194C30.543 52.2006 30.2888 51.7147 30.0129 51.2438C29.6591 50.6399 29.3557 50.0106 29.0619 49.3789C28.9971 49.2401 28.9587 49.2008 28.8112 49.3118C27.7319 50.1216 26.5218 50.7302 25.3573 51.4104C25.3147 51.4353 25.2706 51.4577 25.2253 51.4775C24.9291 51.6152 24.8799 51.584 24.8404 51.2762C24.7734 50.7023 24.737 50.1254 24.7312 49.5478C24.7132 48.6952 24.6641 47.8437 24.6401 46.9911C24.5933 45.2557 24.4962 43.5204 24.4002 41.7851C24.2875 39.7026 24.1855 37.6295 24.0812 35.5517C24.0033 33.9691 23.9841 32.3795 23.8318 30.8084C23.743 29.8829 24.0848 29.2177 24.7132 28.6103C24.7454 28.5835 24.7701 28.5493 24.785 28.5109C24.7999 28.4725 24.8045 28.4311 24.7984 28.3905C24.7667 27.9279 24.8215 27.4635 24.9603 27.0196C25.0686 26.6971 25.2125 26.3868 25.3896 26.0941C25.9437 25.1443 27.0159 24.9985 27.8554 25.3305C28.119 25.4248 28.3683 25.5528 28.5966 25.7111C28.7165 25.7956 28.78 25.7805 28.8928 25.703C29.7407 25.1246 30.5934 24.5461 31.4689 24.0047C31.5324 23.9704 31.5871 23.9226 31.6287 23.8648C31.6702 23.8071 31.6976 23.741 31.7087 23.6715C31.8577 23.0242 32.1538 22.4168 32.5758 21.8934C33.1383 21.1483 34.3496 20.8522 35.2143 21.3392C35.4373 21.4665 35.5956 21.448 35.8139 21.3288C36.6102 20.8938 37.4186 20.4796 38.2269 20.0655C38.2899 20.0436 38.343 20.001 38.3768 19.9451C38.4105 19.8893 38.4229 19.8238 38.4116 19.7601C38.3732 19.1295 38.5027 18.5442 39.0712 18.1473C39.6217 17.7633 40.2357 17.6105 40.8941 17.8408C41.4614 18.0409 42.0155 18.2792 42.3441 18.8207C42.3703 18.8609 42.4095 18.8918 42.4556 18.9086C42.8814 19.0567 43.2783 19.2742 43.7209 19.3794C43.7724 19.392 43.8194 19.4181 43.8564 19.4548C43.8935 19.4916 43.9192 19.5376 43.9307 19.5877C45.0473 22.6326 46.6987 25.3988 48.6991 27.974C50.2846 30.0159 52.1075 31.8311 54.3586 33.2055C55.5171 33.9124 56.7452 34.4654 58.1184 34.6678C58.7737 34.7577 59.4387 34.7608 60.0948 34.6771C60.2148 34.6632 60.3563 34.625 60.4282 34.7407C60.5002 34.8564 60.4043 34.9605 60.3275 35.06C57.3185 38.9345 54.018 42.5798 50.7607 46.2541C49.0018 48.2402 47.212 50.2026 45.3915 52.1416C45.2524 52.2885 45.1012 52.4239 44.9597 52.5673C44.8758 52.6541 44.7918 52.6009 44.7091 52.5754C43.1631 52.0916 41.671 51.4603 40.2549 50.6908C39.6648 50.3692 39.0832 50.0372 38.5243 49.667C38.3708 49.5663 38.3024 49.5733 38.2053 49.7271C37.8659 50.2651 37.5817 50.8331 37.2039 51.3468C37.0316 51.6097 36.8305 51.8541 36.6042 52.0756C36.3356 52.3128 36.1017 52.3325 35.7971 52.1393C35.3906 51.8801 35.1219 51.4891 34.8077 51.142C34.5821 50.8818 34.3768 50.6057 34.1937 50.316ZM37.0924 50.2385C37.1259 50.2385 37.1379 50.22 37.1415 50.1911C37.1492 50.1892 37.1565 50.1861 37.1631 50.1818C37.1631 50.1818 37.1631 50.1726 37.1631 50.1668L37.1427 50.1945C37.1103 50.1945 37.0972 50.2142 37.0936 50.242L37.042 50.2894C37.0232 50.2973 37.008 50.3115 36.9992 50.3293C36.9904 50.3472 36.9885 50.3675 36.994 50.3866C36.97 50.3866 36.9484 50.3866 36.9688 50.4167L36.9916 50.3831C37.0384 50.3658 37.0444 50.3287 37.0396 50.2871C37.0768 50.2882 37.0924 50.2709 37.0924 50.2385ZM37.2411 50.0465L37.2914 50.0002L37.343 49.9539C37.3614 49.9454 37.3761 49.9308 37.3845 49.9128C37.3928 49.8948 37.3943 49.8745 37.3886 49.8556C37.4126 49.8556 37.433 49.8613 37.4162 49.8278L37.3922 49.859C37.3823 49.8623 37.3733 49.8674 37.3656 49.8741C37.3578 49.8807 37.3516 49.8889 37.3472 49.898C37.3429 49.9071 37.3404 49.9169 37.3401 49.9269C37.3398 49.9369 37.3416 49.9469 37.3454 49.9562C37.3118 49.9562 37.2974 49.9736 37.2938 50.0025L37.2435 50.0499C37.2315 50.0592 37.1859 50.0557 37.2279 50.0881L37.2411 50.0465ZM27.6323 49.4923C27.6467 49.4784 27.6731 49.4553 27.6719 49.4541C27.6455 49.4252 27.6239 49.4425 27.6023 49.4622C27.5807 49.4819 27.5652 49.5027 27.5676 49.505C27.5939 49.5316 27.6143 49.5096 27.6323 49.4923ZM36.7985 47.706L36.8117 47.7766C36.8464 47.7814 36.8793 47.7945 36.9073 47.8147C36.9354 47.835 36.9578 47.8616 36.9724 47.8923C36.9868 47.8761 37.042 47.9154 37.024 47.8564L36.9736 47.8946C36.964 47.7627 36.9161 47.7292 36.8093 47.7789C36.8213 47.765 36.8597 47.7789 36.8489 47.7396C36.8381 47.7003 36.8129 47.7199 36.7937 47.713C36.8093 47.6667 36.7805 47.6621 36.7446 47.6644L36.7254 47.5961C36.6798 47.5961 36.6462 47.5348 36.5934 47.573C36.615 47.4932 36.5455 47.492 36.4987 47.4712L36.4519 47.4388V47.4758L36.5035 47.4631C36.4651 47.5568 36.5455 47.5499 36.5982 47.5672C36.633 47.6135 36.6606 47.6922 36.7278 47.5961C36.7182 47.6112 36.6702 47.6031 36.6954 47.6378C36.705 47.6505 36.7314 47.6528 36.7506 47.6598C36.729 47.7037 36.7685 47.7026 36.7985 47.7003V47.706ZM36.2253 47.2942L36.2912 47.3335C36.2991 47.3545 36.3127 47.373 36.3307 47.3871C36.3487 47.4012 36.3703 47.4103 36.3932 47.4134C36.3932 47.4134 36.4088 47.3995 36.4076 47.396C36.4008 47.3741 36.3868 47.355 36.3678 47.3414C36.3488 47.3278 36.3257 47.3206 36.302 47.3208C36.302 47.2861 36.284 47.2745 36.2517 47.2734C36.2392 47.2585 36.2255 47.2446 36.2109 47.2317C36.1689 47.2595 36.2049 47.2745 36.2253 47.2942ZM35.9087 46.983L35.8931 47.0212L35.9566 47.0304C35.9482 47.1311 36.037 47.1461 36.1017 47.1797C36.1141 47.1936 36.1273 47.2067 36.1413 47.219C36.1857 47.1854 36.1413 47.1739 36.1233 47.1554C36.0682 47.1126 36.031 47.0455 35.9518 47.0397C35.9518 47.0061 35.9374 46.9899 35.9027 46.9911L35.8607 46.9564V46.9922L35.9087 46.983ZM32.9104 43.7622C32.9272 43.7518 32.9752 43.7865 32.9596 43.731L32.9116 43.7645L32.9176 43.7136L32.9104 43.7622ZM32.8684 43.5701C32.8337 43.5701 32.8121 43.5817 32.8205 43.6199C32.8225 43.6229 32.8251 43.6255 32.8282 43.6274C32.8313 43.6294 32.8348 43.6308 32.8385 43.6315C32.884 43.6257 32.8624 43.5921 32.8648 43.569L32.7809 43.5389C32.7819 43.5326 32.7815 43.5262 32.7798 43.5201C32.7781 43.5139 32.775 43.5082 32.7708 43.5033C32.7666 43.4984 32.7614 43.4944 32.7555 43.4915C32.7496 43.4887 32.7431 43.4871 32.7365 43.4868L32.607 43.3214C32.5878 43.3052 32.571 43.2636 32.541 43.2971C32.5111 43.3307 32.5554 43.3399 32.5782 43.3526L32.7065 43.5181C32.7305 43.5366 32.7473 43.584 32.7857 43.5343C32.7857 43.5644 32.7857 43.5991 32.8217 43.6037C32.8337 43.6037 32.8505 43.5794 32.866 43.5678L32.8684 43.5701ZM26.7053 50.0835L26.7952 50.0187C26.8444 50.0002 26.9271 49.9713 26.89 49.9238C26.8384 49.8567 26.7916 49.9458 26.7448 49.9736L26.6657 50.0372C26.6477 50.0522 26.6033 50.0569 26.6309 50.0927C26.6585 50.1286 26.6789 50.0939 26.7029 50.0812L26.7053 50.0835ZM39.5005 49.6924L39.4382 49.6577C39.4166 49.6253 39.3734 49.5906 39.3494 49.6172C39.3003 49.6716 39.3782 49.6786 39.4034 49.7052L39.4598 49.7329L39.5401 49.7942C39.5821 49.8232 39.6373 49.8937 39.6732 49.8463C39.7092 49.7989 39.6325 49.7723 39.5881 49.7514L39.5005 49.6924ZM27.4548 49.5536L27.3637 49.6091L27.3013 49.6357C27.2509 49.6681 27.1814 49.6774 27.1538 49.8L27.3361 49.6786L27.3973 49.6415L27.4848 49.5814L27.528 49.542C27.4956 49.5096 27.474 49.5293 27.4524 49.5513L27.4548 49.5536ZM27.9957 49.2123L27.9118 49.276L27.847 49.3083C27.7978 49.335 27.7379 49.3488 27.7115 49.4298C27.7443 49.4273 27.7763 49.4184 27.8054 49.4034C27.8345 49.3885 27.8601 49.3679 27.8806 49.3431L27.9441 49.3072L28.0317 49.2493L28.0952 49.2193C28.1228 49.1984 28.1864 49.1869 28.1492 49.1429C28.112 49.099 28.0833 49.151 28.0593 49.1788L27.9957 49.2123ZM51.6218 44.1613C51.6686 44.1393 51.7154 44.1174 51.659 44.0607C51.6891 44.0581 51.7183 44.0497 51.745 44.0361C51.7718 44.0225 51.7954 44.0039 51.8146 43.9814C51.8338 43.9589 51.8481 43.933 51.8568 43.9051C51.8656 43.8772 51.8684 43.8479 51.8653 43.8189C52.008 43.8293 52.008 43.7159 52.0236 43.6187C51.972 43.687 51.9216 43.7564 51.8701 43.8258C51.7862 43.8908 51.7178 43.9725 51.6698 44.0653C51.6266 44.0884 51.5762 44.1081 51.6266 44.1671C51.6098 44.1671 51.5978 44.1266 51.5798 44.1602C51.5714 44.174 51.5798 44.1949 51.5798 44.2134C51.5007 44.1821 51.5031 44.2759 51.4599 44.2932L51.4515 44.3557C51.4635 44.3476 51.4815 44.3418 51.4863 44.3314C51.5007 44.3001 51.4707 44.2978 51.4503 44.2897C51.5607 44.3615 51.5535 44.2608 51.5786 44.2087C51.6098 44.2087 51.6254 44.1926 51.6254 44.159L51.6218 44.1613ZM27.8686 36.4969L27.8806 36.5073L27.8662 36.4992L27.8566 36.4124C27.8458 36.4124 27.8254 36.4205 27.8242 36.4263C27.8212 36.4413 27.824 36.4568 27.8322 36.4699C27.8404 36.4829 27.8534 36.4926 27.8686 36.4969ZM35.7348 46.9251C35.7587 46.9251 35.7923 46.939 35.7983 46.8985C35.7983 46.8985 35.7911 46.8835 35.7851 46.8823C35.7467 46.8754 35.736 46.8974 35.736 46.9298C35.7803 46.8407 35.7455 46.806 35.616 46.8141C35.6268 46.7967 35.6808 46.7933 35.634 46.7597L35.6172 46.8141C35.6465 46.8181 35.6737 46.8311 35.6948 46.8511C35.716 46.871 35.73 46.897 35.7348 46.9251ZM32.2112 42.8471C32.1896 42.817 32.1812 42.7754 32.1333 42.7707C32.1177 42.7198 32.1129 42.655 32.0301 42.677L32.0193 42.6203L31.9846 42.6388L32.0337 42.6747C32.0241 42.7302 32.0613 42.7592 32.1009 42.7904L32.1812 42.8714C32.2028 42.9177 32.198 42.9929 32.2892 42.9628C32.2412 43.0195 32.2892 43.0403 32.33 43.0623C32.3548 43.1279 32.3995 43.1847 32.4583 43.2254C32.4739 43.2451 32.4871 43.2867 32.5182 43.2543C32.5494 43.2219 32.5063 43.2127 32.4835 43.2023C32.4715 43.1282 32.4031 43.0866 32.3635 43.038L32.2832 42.9662C32.288 42.9072 32.2412 42.8818 32.2112 42.8471ZM52.0764 43.5192C52.0883 43.5516 52.1075 43.5782 52.1447 43.5505C52.1555 43.5424 52.1519 43.5146 52.1555 43.4949L52.0799 43.5181L52.1015 43.584L52.1279 43.5539L52.0764 43.5192ZM39.8519 49.9921C39.8771 50.0013 39.9059 50.0303 39.9287 49.9921C39.9515 49.9539 39.9107 49.9481 39.8891 49.9342C39.8375 49.8926 39.7956 49.8313 39.702 49.859C39.7248 49.9412 39.7956 49.9551 39.8519 49.9921ZM27.0543 49.7746C26.9967 49.8058 26.9235 49.822 26.9043 49.9111C26.9979 49.925 27.0435 49.8706 27.0938 49.8266C27.1154 49.8116 27.1574 49.8058 27.131 49.7688C27.1046 49.7318 27.0782 49.763 27.0543 49.7746ZM31.9438 42.5266C31.927 42.544 31.9126 42.5613 31.9438 42.5798C31.951 42.5856 31.969 42.5798 31.9822 42.5798L31.9426 42.5359C31.9342 42.4561 31.8646 42.4202 31.8227 42.3623C31.7603 42.2825 31.7183 42.183 31.5888 42.1715L31.7987 42.3924C31.8239 42.4491 31.8382 42.5347 31.9426 42.5266H31.9438ZM27.6263 35.9728C27.6239 35.9667 27.6206 35.9608 27.6167 35.9555C27.6167 35.9555 27.6083 35.9555 27.6047 35.9555L27.6299 35.9705C27.6155 36.0259 27.6203 36.0843 27.6438 36.1368C27.6672 36.1893 27.7078 36.2329 27.7594 36.2609C27.7517 36.1515 27.7021 36.0489 27.6203 35.9728H27.6263ZM41.7612 51.0125L41.7192 50.9766L41.7048 50.9905L41.7648 51.0078C41.8723 51.1022 42.0128 51.1539 42.1582 51.1524C42.1714 51.1605 42.1726 51.1976 42.2002 51.1686L42.1558 51.1559C42.0477 51.0578 41.9036 51.0049 41.7552 51.009L41.7612 51.0125ZM36.5911 26.8692C36.7506 26.8345 36.8249 26.7535 36.7518 26.536C36.6858 26.6818 36.6414 26.7766 36.5982 26.8727L36.5671 26.912C36.5743 26.912 36.5839 26.9178 36.5899 26.912C36.5958 26.9062 36.6138 26.8854 36.5911 26.8692ZM29.7827 31.351C29.8414 31.4054 29.8714 31.351 29.8966 31.3163C29.9609 31.2312 30.0066 31.1345 30.0309 31.0318C30.0553 30.9292 30.0577 30.8229 30.0381 30.7193C29.9266 30.9507 29.911 31.174 29.7791 31.3568H29.7887L29.7827 31.351ZM25.7986 27.8225C26.0552 27.6096 26.3731 27.4754 26.6513 27.2047C26.3322 27.2459 26.0418 27.4041 25.8406 27.6466C25.8022 27.6929 25.7098 27.7426 25.7986 27.8225C25.7943 27.8085 25.7886 27.795 25.7818 27.782C25.7818 27.782 25.7734 27.782 25.7686 27.782L25.7986 27.8225ZM58.844 35.399C57.6195 35.3585 56.5233 35.0369 55.468 34.5614C54.5373 34.1414 53.6954 33.5815 52.8415 33.0366C51.6102 32.2578 50.4894 31.3276 49.5075 30.2693C48.2962 28.9539 47.3151 27.4789 46.3833 25.9703C45.3406 24.2982 44.4313 22.552 43.6633 20.7469C43.4438 20.2251 43.4522 20.224 42.9713 20.5155C42.9387 20.5298 42.9123 20.5546 42.8966 20.5856C42.8808 20.6166 42.8767 20.652 42.885 20.6856C42.9257 21.0353 42.8935 21.3893 42.7902 21.7268C42.7727 21.7857 42.7713 21.8479 42.786 21.9075C42.8007 21.967 42.831 22.022 42.8742 22.0669C43.3419 22.6697 43.4102 23.3395 43.162 24.0336C43.1375 24.1111 43.0955 24.1824 43.0391 24.2424C42.9828 24.3024 42.9133 24.3496 42.8358 24.3807C42.3884 24.5589 41.9639 24.5357 41.5837 24.2245C41.062 23.7976 40.8797 23.1555 41.1772 22.5609C41.3247 22.2519 41.3728 21.9074 41.3151 21.5718C41.2995 21.4387 41.2911 21.3832 41.1328 21.4665C39.804 22.1722 38.4715 22.8729 37.1355 23.5686C37.0856 23.5852 37.0438 23.6188 37.0177 23.6631C36.9917 23.7074 36.9832 23.7593 36.994 23.8092C37.0678 24.3793 37.0678 24.956 36.994 25.526C36.9861 25.5604 36.986 25.596 36.9939 25.6304C37.0018 25.6648 37.0174 25.6971 37.0396 25.725C37.2697 26.01 37.4025 26.3568 37.4198 26.7176C37.4533 27.207 37.409 27.701 36.9952 28.0307C36.3764 28.527 35.4673 28.3176 35.0679 27.6293C34.6938 26.986 34.8449 26.3856 35.2347 25.8095C35.3256 25.7068 35.3865 25.5826 35.4109 25.4497C35.4259 25.2108 35.4259 24.9713 35.4109 24.7324C35.4014 24.5542 35.3426 24.5635 35.2083 24.6445C33.5293 25.6487 31.8215 26.595 30.2156 27.7045C30.1485 27.7384 30.0961 27.7943 30.0679 27.8622C30.0398 27.9301 30.0377 28.0054 30.0621 28.0747C30.2014 28.6343 30.2347 29.2135 30.1604 29.7846C30.1437 29.8376 30.148 29.8947 30.1723 29.9449C30.1967 29.9951 30.2394 30.0348 30.2924 30.0564C30.4199 30.1235 30.5312 30.2162 30.6187 30.3281C30.7062 30.44 30.7679 30.5687 30.7997 30.7055C30.958 31.3163 30.7997 31.8624 30.3907 32.3355C30.1796 32.5843 29.887 32.634 29.58 32.5669C28.563 32.3448 27.9861 30.9472 28.5618 30.1178C28.6072 30.0623 28.6298 29.9927 28.6253 29.9222C28.6009 29.5315 28.5371 29.1441 28.4346 28.7653C28.3903 28.6149 28.3411 28.5976 28.2032 28.6682C27.5244 29.0152 26.9547 29.4988 26.3934 29.994C26.3456 30.0383 26.3136 30.0963 26.3023 30.1594C26.2239 30.4857 26.1924 30.8209 26.2088 31.1555C26.2939 32.28 26.6885 33.3177 27.1958 34.3173C28.5982 37.0725 30.321 39.6648 32.3312 42.0442C34.0485 44.0954 35.9099 46.0089 38.0158 47.6945C39.7464 49.0828 41.5729 50.3114 43.7077 51.061C43.9147 51.1402 44.1297 51.1984 44.3493 51.2346C44.4159 51.2478 44.4851 51.2426 44.5488 51.2195C44.6125 51.1963 44.6681 51.1562 44.7091 51.1039C46.6511 48.9304 48.5968 46.7605 50.546 44.594C52.5888 42.3249 54.6344 40.0593 56.6828 37.7972C57.3964 37.0105 58.1004 36.2239 58.844 35.399ZM31.2602 51.6395C31.3957 51.5088 31.5264 51.3873 31.6512 51.26C32.2268 50.6677 32.7653 50.0384 33.4129 49.5154C33.5928 49.3708 33.5712 49.2841 33.4393 49.1256C31.1037 46.3187 29.1874 43.21 27.7463 39.8901C26.6861 37.4293 25.7842 34.9154 25.4676 32.2545C25.4064 31.7386 25.3369 31.2133 25.3872 30.7043C25.4168 30.3608 25.5265 30.0282 25.708 29.7313C25.8895 29.4345 26.1381 29.181 26.4354 28.9898C26.9295 28.6566 27.4296 28.3315 27.9249 28.0018C27.9825 27.9625 28.1024 27.9335 27.9933 27.8317C27.9249 27.7693 27.8902 27.664 27.7415 27.76C27.0483 28.2066 26.3551 28.6531 25.6883 29.1367C25.4217 29.3166 25.2073 29.5594 25.0656 29.8419C24.9238 30.1244 24.8595 30.4373 24.8787 30.7506C24.8858 31.2197 24.9223 31.6879 24.9879 32.1527C25.2013 33.5318 25.3728 34.9177 25.5815 36.2979C26.0165 39.2659 26.8219 42.1723 27.9801 44.9538C28.9239 47.2476 30.0191 49.4808 31.259 51.6395H31.2602ZM25.6487 50.2015C25.7194 50.1679 25.7566 50.1529 25.7902 50.1344C26.7233 49.6184 27.5604 48.9659 28.4574 48.399C28.5774 48.3215 28.5378 48.2521 28.4982 48.1619C28.2763 47.6656 28.0497 47.1704 27.835 46.6706C26.5302 43.6407 25.5923 40.5125 25.1534 37.2546C24.8631 35.0959 24.6845 32.9267 24.5321 30.7564C24.477 29.9743 24.832 29.3299 25.4424 28.829C25.9955 28.387 26.5763 27.9782 27.1814 27.605C27.2757 27.5624 27.358 27.4985 27.4212 27.4187C27.3133 27.3227 27.2246 27.3435 27.1118 27.4187C26.5062 27.8329 25.8945 28.2389 25.2817 28.6439C24.6689 29.0488 24.2671 29.5694 24.2287 30.3121C24.2095 30.5744 24.2095 30.8377 24.2287 31.1C24.3486 32.4651 24.4686 33.8325 24.6281 35.1931C24.8823 37.3229 25.0898 39.4551 25.2001 41.5965C25.3081 43.6731 25.4244 45.7497 25.5348 47.8264C25.5743 48.6061 25.6151 49.3859 25.6475 50.2015H25.6487ZM27.1742 36.7884C27.1598 36.9011 27.1851 37.0152 27.2461 37.1123C28.5303 40.393 30.2336 43.5064 32.3168 46.3802C33.2474 47.6598 34.3004 48.8467 35.2778 50.0893C35.5009 50.3727 35.7288 50.6515 35.9602 50.9396C36.4303 50.3114 36.9341 49.741 37.4306 49.1649C37.5349 49.0434 37.5265 48.989 37.3958 48.8965C35.9307 47.8608 34.5659 46.6991 33.3182 45.4258C31.2016 43.2727 29.3967 40.8533 27.9525 38.2334C27.6983 37.7614 27.4488 37.2882 27.1742 36.7884ZM25.2649 27.7531C25.4352 27.5043 25.5048 27.2116 25.7314 26.9976C26.5218 26.2433 28.0101 26.4539 28.5366 27.4037C28.8034 27.8996 28.9602 28.4437 28.9971 29.0013C29.0523 29.6446 28.9204 30.2739 28.8604 30.9044C28.8417 30.9912 28.8574 31.0815 28.9042 31.1577C28.951 31.2339 29.0256 31.2904 29.1134 31.3163C29.3329 31.3869 29.4001 31.2237 29.4516 31.0652C29.8765 29.8139 29.846 28.4602 29.3653 27.2278C29.1487 26.7056 28.7596 26.2668 28.2583 25.9795C27.6335 25.5931 26.3635 25.5584 25.831 26.1866C25.4496 26.6424 25.3189 27.1862 25.2697 27.7531H25.2649ZM32.5158 22.4764C32.6167 22.4682 32.7118 22.4274 32.7857 22.3608C33.0109 22.2104 33.2782 22.1297 33.552 22.1294C33.9013 22.1238 34.2465 22.2019 34.5567 22.3568C34.867 22.5117 35.1325 22.7384 35.3294 23.0167C36.049 24.014 36.0909 25.1188 35.7911 26.256C35.7667 26.3237 35.7592 26.3961 35.7695 26.4671C35.7797 26.5381 35.8072 26.6057 35.8499 26.6644C35.9878 26.8437 36.0897 26.8495 36.2301 26.6644C36.3248 26.5334 36.3957 26.3879 36.4399 26.234C36.7368 25.2477 36.7272 24.1991 36.4124 23.218C36.2988 22.8291 36.088 22.473 35.7983 22.1811C35.5087 21.8892 35.1492 21.6704 34.7513 21.544C34.5315 21.4623 34.2951 21.4303 34.0604 21.4503C33.8257 21.4704 33.5989 21.542 33.3973 21.6597C33.0507 21.8621 32.7881 22.1502 32.5206 22.4764H32.5158ZM38.8805 19.4558C38.9848 19.4084 39.0652 19.3702 39.1467 19.3343C39.708 19.0891 40.2657 19.0069 40.8186 19.3586C41.1433 19.5819 41.396 19.8891 41.5477 20.2448C41.8931 20.9632 41.8536 21.7129 41.7012 22.466C41.6869 22.5401 41.6149 22.6106 41.6869 22.6905C41.7588 22.7703 41.7708 22.871 41.9039 22.8501C41.9779 22.8458 42.0487 22.8202 42.1075 22.7767C42.1663 22.7332 42.2102 22.6738 42.2337 22.606C42.5935 21.6504 42.6283 20.689 42.2337 19.7404C41.8979 18.9306 41.3738 18.3162 40.3844 18.2225C40.0167 18.1969 39.6533 18.3119 39.3727 18.5427C39.0922 18.7735 38.9171 19.1015 38.8853 19.4558H38.8805ZM29.6711 26.8599C29.7515 26.809 29.827 26.7604 29.9014 26.7107C31.5067 25.609 33.17 24.5881 34.8845 23.6519C34.9768 23.6021 35.1039 23.5813 35.0044 23.4112C34.9048 23.2412 34.8245 23.314 34.7178 23.3777C33.4537 24.1412 32.186 24.9001 30.9256 25.6683C30.4722 25.9437 30.0357 26.2468 29.5908 26.5325C29.5284 26.573 29.4492 26.6089 29.52 26.6945C29.5728 26.7523 29.5728 26.8495 29.6759 26.8599H29.6711ZM34.5678 22.9381C34.5511 22.8652 34.4827 22.8328 34.4275 22.7934C34.392 22.7551 34.3427 22.731 34.2896 22.7261C34.2365 22.7212 34.1834 22.7357 34.1409 22.7668C33.6852 23.0684 33.225 23.3638 32.7605 23.653C31.5548 24.405 30.3659 25.1813 29.1938 25.9818C29.147 26.0142 29.0571 26.0316 29.0847 26.1103C29.1073 26.1626 29.1504 26.2041 29.2046 26.226C29.2825 26.2537 29.3329 26.1774 29.3905 26.1392C31.0515 25.0436 32.7485 24.0001 34.4887 23.0294C34.5343 23.0063 34.5427 22.9716 34.5726 22.9381H34.5678ZM40.4444 19.8931C40.0846 19.6363 40.0234 19.6305 39.672 19.8063C39.2331 20.025 38.7918 20.239 38.3528 20.4623C37.5901 20.8556 36.8305 21.2525 36.0742 21.6527C36.0226 21.6805 35.9314 21.6863 35.935 21.7684C35.935 21.8691 36.2385 22.0137 36.332 21.9628C37.6704 21.227 39.0388 20.5479 40.448 19.8931H40.4444ZM40.9085 20.3859C40.8677 20.261 40.8018 20.2332 40.6687 20.2934C39.3015 20.9274 37.9523 21.5937 36.6294 22.3099C36.5155 22.3712 36.4987 22.4186 36.5695 22.5216C36.6402 22.6245 36.6558 22.6963 36.8093 22.6153C38.1397 21.898 39.473 21.1846 40.809 20.475C40.8462 20.4542 40.9109 20.4542 40.9121 20.3859H40.9085ZM42.5671 22.4394C42.4028 22.761 42.2565 23.0433 42.1006 23.3464C42.5144 23.2747 42.6955 22.9276 42.5707 22.4394H42.5671ZM30.6785 40.8885L30.6174 40.9324L31.3477 41.8857L31.4017 41.8464L30.6785 40.8885ZM32.7965 23.1405L33.6048 22.6106C33.4364 22.6314 33.2754 22.6902 33.1349 22.7823C32.9945 22.8743 32.8785 22.9971 32.7965 23.1405ZM40.2861 18.1011C40.743 18.0606 41.1352 18.2353 41.5178 18.4481C41.2515 18.1404 40.7466 17.9946 40.2861 18.1011ZM30.2276 31.5211C30.1077 31.6587 29.9434 31.7189 29.7815 31.8091C30.0753 31.9133 30.1652 31.8577 30.2276 31.5257V31.5211ZM41.4662 22.0553H41.5333C41.5848 21.8036 41.5615 21.5429 41.4662 21.3034V22.0553ZM36.344 27.2799C36.4363 27.3678 36.5431 27.4372 36.6546 27.4014C36.7398 27.3736 36.753 27.2602 36.7661 27.1584L36.344 27.2799ZM26.6057 26.8599C26.8012 26.8194 26.9979 26.9756 27.2258 26.853C26.9955 26.7859 26.8012 26.7442 26.6057 26.8541V26.8599ZM26.7652 34.286C26.6837 34.0639 26.6213 33.8337 26.4606 33.6463C26.541 33.8626 26.6021 34.094 26.7652 34.2803V34.286ZM43.8516 52.0652C43.6623 51.8975 43.4196 51.7968 43.1632 51.7795L43.8516 52.0652ZM26.469 25.6232C26.6177 25.6341 26.7669 25.6107 26.9043 25.555C26.7554 25.5345 26.6035 25.5583 26.469 25.6232ZM31.3945 41.9042C31.4425 41.9829 31.4701 42.0812 31.6152 42.124C31.5372 42.013 31.5036 41.925 31.3945 41.9042ZM27.9885 25.6163C27.9645 25.578 27.9273 25.5492 27.8833 25.535C27.8394 25.5208 27.7917 25.5222 27.7486 25.5388C27.8206 25.6082 27.8806 25.6602 27.9885 25.6163ZM41.5405 18.4933C41.5645 18.5107 41.5912 18.5244 41.6197 18.5337C41.6389 18.5337 41.6593 18.5118 41.6341 18.4909C41.61 18.476 41.5847 18.4629 41.5585 18.4516L41.5405 18.4933ZM27.3889 25.4612C27.4488 25.4809 27.5088 25.5249 27.5664 25.4543C27.5411 25.4347 27.5093 25.4247 27.4769 25.4259C27.4445 25.4272 27.4136 25.4397 27.3901 25.4612H27.3889ZM27.1838 36.7664C27.1646 36.7364 27.1766 36.6912 27.1286 36.6982C27.1186 36.7011 27.1095 36.7064 27.102 36.7134C27.0945 36.7204 27.0888 36.7291 27.0854 36.7387C27.0758 36.7757 27.1094 36.7919 27.1406 36.7965C27.1526 36.8011 27.1742 36.7792 27.1838 36.7664ZM27.7319 25.5087C27.7108 25.4958 27.6883 25.4853 27.6647 25.4774C27.6539 25.4774 27.6407 25.4879 27.6287 25.4936C27.6395 25.5075 27.6491 25.5295 27.6611 25.5307C27.6731 25.5318 27.6995 25.5226 27.7319 25.511V25.5087ZM26.397 25.6602L26.4162 25.6487C26.4102 25.6487 26.4018 25.6359 26.3982 25.6371C26.3899 25.6419 26.3822 25.6477 26.3755 25.6544L26.397 25.6602ZM51.4215 44.4135C51.4119 44.4043 51.3975 44.3858 51.3951 44.3869C51.3786 44.3972 51.3634 44.4092 51.3496 44.4228C51.3616 44.4286 51.376 44.4413 51.388 44.4401C51.3999 44.439 51.4107 44.4262 51.4215 44.4158V44.4135ZM33.0579 43.8119C33.0591 43.8177 33.0591 43.8236 33.0579 43.8293H33.0447C33.0442 43.8235 33.0442 43.8177 33.0447 43.8119H33.0579ZM37.1355 47.9386C37.1283 47.9282 37.1223 47.9073 37.1139 47.9062C37.1056 47.905 37.0612 47.8981 37.084 47.9374C37.0912 47.9502 37.102 47.9617 37.1103 47.9744L37.1355 47.9386ZM28.1408 25.6741C28.1408 25.6741 28.1252 25.6857 28.1264 25.6892C28.13 25.7001 28.1348 25.7105 28.1408 25.7204C28.1408 25.7204 28.1564 25.71 28.1564 25.7053C28.1525 25.6951 28.1473 25.6854 28.1408 25.6764V25.6741ZM27.8014 36.3442L27.8194 36.328C27.8091 36.3213 27.7978 36.3162 27.7858 36.3129C27.7858 36.3129 27.775 36.3222 27.7702 36.328L27.8014 36.3442ZM28.0245 25.6417L28.0425 25.673C28.0425 25.673 28.0593 25.6614 28.0581 25.6568C28.0544 25.6457 28.0491 25.6352 28.0425 25.6255L28.0245 25.6417ZM40.0174 50.0175L40.0006 50.0002C39.994 50.0099 39.9888 50.0204 39.9851 50.0314C39.9851 50.0314 39.9947 50.0418 39.9994 50.0476L40.0174 50.0175ZM26.5853 50.1182L26.5685 50.0997L26.5494 50.1159L26.5757 50.1344L26.5853 50.1182Z" fill="#070606"/>
<path d="M60.2916 27.0311C60.6382 27.0311 60.8444 27.2463 60.8432 27.5956C60.8432 27.9624 60.6118 28.2412 60.3048 28.2435C59.9977 28.2458 59.6056 27.8085 59.6152 27.4557C59.6224 27.2301 59.9474 27.0265 60.2916 27.0311Z" fill="#F8F2EA"/>
<path d="M59.5911 26.7974C58.9794 27.3515 59.3021 27.8629 59.5779 28.424C59.4243 28.3626 59.2911 28.2617 59.1928 28.1324C59.0944 28.0031 59.0348 27.8502 59.0202 27.6905C58.9818 27.3955 59.2337 26.9778 59.5911 26.7974Z" fill="#F8F2EA"/>
<path d="M59.6876 26.7395C59.6566 26.7878 59.6232 26.8327 59.5552 26.82C59.5707 26.7372 59.6327 26.7418 59.6876 26.7395Z" fill="#F8F2EA"/>
<path d="M16.2162 41.8786C16.209 42.11 15.956 42.4848 15.8073 42.4895C15.6585 42.4941 15.4163 42.1262 15.4295 41.874C15.4403 41.6542 15.5962 41.5269 15.848 41.535C16.0999 41.5431 16.2246 41.6449 16.2162 41.8786Z" fill="#F8F2EA"/>
<path d="M15.324 41.3003C15.2138 41.4663 15.1422 41.6534 15.1141 41.8487C15.0997 42.028 15.2017 42.1957 15.1741 42.4098C14.8071 41.8568 14.8431 41.5224 15.324 41.3003Z" fill="#F8F2EA"/>
<path d="M15.3567 41.3043L15.3488 41.3174L15.3274 41.3043C15.3274 41.3043 15.3375 41.2922 15.342 41.2922C15.3465 41.2922 15.3522 41.2999 15.3567 41.3043Z" fill="#F8F2EA"/>
<path d="M26.295 14.9982C26.295 15.3245 26.2015 15.4483 25.9592 15.4425C25.822 15.4384 25.6917 15.3836 25.5951 15.2896C25.4985 15.1955 25.4429 15.0693 25.4399 14.9369C25.4488 14.8248 25.5024 14.7204 25.5894 14.6455C25.6764 14.5707 25.79 14.5312 25.9065 14.5355C26.1859 14.5331 26.295 14.6627 26.295 14.9982Z" fill="#F8F2EA"/>
<path d="M25.2312 14.4985C25.2456 14.5136 25.2707 14.5194 25.2575 14.5529C25.0477 15.1128 25.1112 15.35 25.5778 15.7457C25.2863 15.6959 24.9589 15.3674 24.887 15.0515C24.8234 14.7646 25.0297 14.6362 25.2336 14.5078L25.2312 14.4985Z" fill="#F8F2EA"/>
<path d="M25.2335 14.506L25.273 14.4949L25.2579 14.5226L25.2312 14.4993C25.2321 14.5015 25.2329 14.5037 25.2335 14.506Z" fill="#F8F2EA"/>
<path d="M18.5584 37.2209C18.6555 37.2649 18.8342 37.2348 18.8342 37.4315C18.8342 37.6062 18.6207 37.8758 18.484 37.8815C18.3749 37.8815 18.2046 37.6571 18.201 37.5021C18.1974 37.347 18.3629 37.2209 18.5584 37.2209Z" fill="#F8F2EA"/>
<path d="M39.5946 54.1665C39.5765 54.2545 39.5789 54.3889 39.4433 54.4363C39.3616 54.4641 39.1167 54.1978 39.1347 54.1016C39.1416 54.0461 39.1684 53.9946 39.2105 53.9561C39.2526 53.9176 39.3074 53.8945 39.3652 53.8909C39.4901 53.8816 39.5994 54.0101 39.5946 54.1665Z" fill="#F8F2EA"/>
<path d="M32.6753 18.2445C32.6574 18.4759 32.4811 18.6529 32.3036 18.6379C32.1632 18.6263 31.981 18.4354 31.9965 18.3139C32.0121 18.1925 32.2724 17.9877 32.4199 17.9992C32.5866 18.0131 32.7113 18.0698 32.6753 18.2445Z" fill="#F8F2EA"/>
<path d="M35.1054 57.3952C35.0922 57.4253 35.1402 57.5689 34.9974 57.5608C34.8545 57.5527 34.7849 57.423 34.7645 57.2898C34.7488 57.1914 34.8005 57.1358 34.9061 57.145C35.0322 57.1543 35.1402 57.1879 35.1054 57.3952Z" fill="#F8F2EA"/>
<path d="M58.8438 35.399C58.1002 36.2239 57.3927 37.0106 56.6851 37.7972C54.6391 40.0624 52.5935 42.328 50.5483 44.594C48.5982 46.7597 46.6526 48.9297 44.7113 51.1039C44.6703 51.1562 44.6147 51.1963 44.551 51.2195C44.4874 51.2426 44.4182 51.2479 44.3515 51.2346C44.132 51.1984 43.917 51.1402 43.7099 51.0611C41.5752 50.3114 39.7522 49.0805 38.0181 47.6945C35.9121 46.0089 34.0508 44.0954 32.3334 42.0442C30.3231 39.6637 28.6002 37.0703 27.198 34.3138C26.6943 33.3143 26.2961 32.2765 26.211 31.152C26.1946 30.8174 26.2261 30.4822 26.3045 30.1559C26.3159 30.0928 26.3478 30.0349 26.3957 29.9905C26.957 29.4953 27.5266 29.0129 28.2054 28.6647C28.3433 28.5941 28.3925 28.6115 28.4369 28.7619C28.5393 29.1406 28.6032 29.5281 28.6276 29.9188C28.6321 29.9893 28.6094 30.0589 28.564 30.1143C27.9884 30.9484 28.564 32.3413 29.5822 32.5634C29.8892 32.6305 30.1819 32.5808 30.3929 32.3321C30.7983 31.8543 30.9602 31.3128 30.8019 30.702C30.7694 30.5656 30.7071 30.4375 30.6192 30.3262C30.5313 30.2149 30.4198 30.1229 30.2922 30.0564C30.2401 30.0351 30.1979 29.9962 30.1734 29.947C30.1489 29.8979 30.1438 29.8417 30.1591 29.7892C30.2333 29.2182 30.2 28.6389 30.0607 28.0793C30.0364 28.0101 30.0384 27.9347 30.0666 27.8668C30.0947 27.799 30.1471 27.743 30.2142 27.7091C31.8201 26.5996 33.5327 25.6533 35.2069 24.6491C35.3412 24.5681 35.4 24.5589 35.4096 24.737C35.4246 24.9759 35.4246 25.2154 35.4096 25.4543C35.3851 25.5872 35.3242 25.7115 35.2333 25.8141C34.8435 26.3926 34.6924 26.9907 35.0666 27.6339C35.466 28.328 36.375 28.5317 36.9939 28.0353C37.4076 27.7056 37.452 27.2116 37.4184 26.7223C37.4011 26.3614 37.2683 26.0146 37.0382 25.7297C37.016 25.7017 37.0004 25.6694 36.9925 25.635C36.9847 25.6007 36.9847 25.565 36.9927 25.5307C37.0664 24.9606 37.0664 24.3839 36.9927 23.8138C36.9819 23.764 36.9903 23.712 37.0164 23.6678C37.0424 23.6235 37.0843 23.5898 37.1342 23.5732C38.4686 22.8791 39.801 22.1784 41.1314 21.4711C41.2897 21.3878 41.2981 21.4433 41.3137 21.5764C41.3714 21.912 41.3234 22.2566 41.1758 22.5655C40.8784 23.1602 41.0559 23.8023 41.5824 24.2292C41.9625 24.5404 42.3871 24.5635 42.8344 24.3853C42.9119 24.3542 42.9814 24.307 43.0378 24.247C43.0942 24.187 43.1361 24.1157 43.1606 24.0383C43.4089 23.336 43.3405 22.6708 42.8728 22.0715C42.8297 22.0266 42.7993 21.9717 42.7846 21.9121C42.7699 21.8525 42.7714 21.7903 42.7889 21.7314C42.8921 21.3939 42.9244 21.0399 42.8836 20.6902C42.8751 20.6563 42.8793 20.6206 42.8953 20.5893C42.9113 20.558 42.9381 20.5332 42.9711 20.519C43.4509 20.2286 43.4437 20.2298 43.6631 20.7504C44.4312 22.5555 45.3405 24.3017 46.3831 25.9738C47.315 27.4777 48.296 28.9574 49.5073 30.2728C50.4888 31.3297 51.6087 32.2587 52.8389 33.0366C53.6928 33.5815 54.5347 34.1414 55.4654 34.5614C56.5232 35.0369 57.6193 35.3585 58.8438 35.399ZM37.3764 38.7841C37.397 39.4009 37.6111 39.9971 37.9905 40.494C38.4624 41.0695 38.984 41.6055 39.5496 42.0963C40.9887 43.3955 42.5202 44.5767 44.318 45.3981C44.5854 45.5195 44.6454 45.4987 44.8145 45.2511C45.4556 44.2763 46.1518 43.3363 46.9 42.4352C48.2265 40.8862 49.6584 39.4331 51.0976 37.9858C51.3794 37.7024 51.413 37.4224 51.1467 37.1401C50.6346 36.5987 50.1465 36.0318 49.5625 35.561C48.6258 34.8043 47.8535 33.9066 47.1123 32.9788C46.8724 32.6768 46.6698 32.3436 46.3232 32.1308C45.6456 31.7154 44.9572 31.7837 44.2688 32.0845C43.2713 32.548 42.3328 33.1214 41.472 33.7932C41.3353 33.8962 41.2597 33.9089 41.1278 33.7863C40.5382 33.2143 40.0478 32.5545 39.6755 31.8323C39.6398 31.7694 39.6248 31.6976 39.6323 31.6264C39.7414 30.5146 39.3433 29.8991 38.2723 29.5C38.0324 29.4109 37.7794 29.36 37.5755 29.2003C37.5425 29.1644 37.4979 29.1403 37.4489 29.1319C37.4 29.1235 37.3495 29.1313 37.3057 29.1541C37.2523 29.1759 37.2072 29.213 37.1765 29.2604C37.1459 29.3078 37.1311 29.3632 37.1342 29.419C37.121 29.9134 37.1414 30.408 37.1953 30.8998C37.2601 31.3626 37.3956 31.7964 37.795 32.1238C37.9869 32.2823 38.2927 32.2962 38.4066 32.4836C38.5206 32.671 38.5266 32.9464 38.6465 33.1523C38.9747 33.7518 39.3696 34.3151 39.8242 34.8321C40.0401 35.0635 40.0341 35.0635 39.7894 35.2833C38.9631 36.0341 38.1836 36.822 37.6403 37.7996C37.4644 38.0997 37.3738 38.4393 37.3776 38.7841H37.3764Z" fill="#F8F2EA"/>
<path d="M31.259 51.6395C30.0174 49.4801 28.9206 47.2462 27.9754 44.9514C26.8171 42.1699 26.0117 39.2636 25.5768 36.2955C25.3753 34.9154 25.2014 33.5271 24.9879 32.1504C24.9223 31.6855 24.8859 31.2173 24.8788 30.7482C24.8597 30.4359 24.9236 30.1241 25.0644 29.8422C25.2052 29.5604 25.4183 29.3179 25.6835 29.1378C26.3503 28.6542 27.0435 28.2123 27.7367 27.7611C27.8854 27.6651 27.9202 27.7704 27.9886 27.8328C28.0977 27.9347 27.9778 27.9636 27.9202 28.0029C27.4249 28.3326 26.9248 28.6577 26.4307 28.9909C26.1334 29.1821 25.8847 29.4356 25.7032 29.7325C25.5217 30.0293 25.4121 30.3619 25.3825 30.7054C25.3321 31.2179 25.4017 31.7397 25.4629 32.2557C25.7843 34.9235 26.6861 37.4339 27.7415 39.8912C29.1827 43.2094 31.0986 46.3166 33.4334 49.1221C33.5653 49.2829 33.5869 49.3673 33.407 49.5119C32.7594 50.0348 32.2209 50.6688 31.6452 51.2565C31.5253 51.3873 31.3946 51.5087 31.259 51.6395Z" fill="#F8F2EA"/>
<path d="M25.6474 50.2015C25.609 49.3859 25.5742 48.6062 25.5275 47.8276C25.4171 45.751 25.3008 43.6743 25.1928 41.5977C25.0825 39.4563 24.875 37.3241 24.6208 35.1943C24.4589 33.8338 24.3461 32.4663 24.2214 31.1012C24.2022 30.8389 24.2022 30.5756 24.2214 30.3133C24.2598 29.5752 24.664 29.05 25.2744 28.6451C25.8848 28.2402 26.4989 27.8353 27.1045 27.4199C27.2173 27.3424 27.306 27.3216 27.4139 27.4199C27.3507 27.4998 27.2684 27.5637 27.1741 27.6062C26.569 27.9794 25.9882 28.3882 25.4351 28.8302C24.8247 29.3311 24.4697 29.9755 24.5248 30.7576C24.6772 32.9279 24.8558 35.0971 25.1461 37.2559C25.585 40.5137 26.5229 43.6419 27.8277 46.6718C28.0424 47.1716 28.269 47.6668 28.4909 48.1631C28.5305 48.2533 28.5737 48.3227 28.4501 48.4003C27.5531 48.9683 26.716 49.6208 25.7829 50.1356C25.7553 50.153 25.7181 50.168 25.6474 50.2015Z" fill="#F8F2EA"/>
<path d="M27.1742 36.7883C27.444 37.2881 27.6935 37.7613 27.9525 38.2287C29.3967 40.8486 31.2016 43.268 33.3182 45.4211C34.5659 46.6944 35.9307 47.8561 37.3958 48.8918C37.5265 48.9843 37.5349 49.0387 37.4306 49.1602C36.9341 49.7386 36.4303 50.3067 35.9602 50.9349C35.7288 50.6468 35.5009 50.368 35.2778 50.0845C34.3004 48.842 33.2474 47.6551 32.3168 46.3755C30.2358 43.5032 28.534 40.3918 27.2509 37.1134C27.188 37.0165 27.1609 36.9019 27.1742 36.7883Z" fill="#F8F2EA"/>
<path d="M25.2695 27.7529C25.3187 27.1861 25.4494 26.6423 25.8356 26.1865C26.3681 25.5583 27.6345 25.593 28.263 25.9794C28.7643 26.2667 29.1533 26.7055 29.3699 27.2277C29.8506 28.4601 29.8811 29.8138 29.4563 31.0651C29.4047 31.2236 29.3363 31.3867 29.1181 31.3162C29.0302 31.2903 28.9556 31.2338 28.9088 31.1576C28.862 31.0814 28.8464 30.991 28.865 30.9043C28.925 30.2715 29.0569 29.6445 29.0017 29.0012C28.9649 28.4436 28.808 27.8995 28.5412 27.4035C28.0087 26.4537 26.5264 26.2467 25.7361 26.9975C25.5118 27.2115 25.4398 27.5042 25.2695 27.7529Z" fill="#F8F2EA"/>
<path d="M32.5205 22.4764C32.788 22.1502 33.0446 21.8621 33.3984 21.6666C33.6 21.5489 33.8268 21.4773 34.0615 21.4572C34.2962 21.4372 34.5325 21.4692 34.7524 21.5509C35.1492 21.6779 35.5077 21.8968 35.7964 22.1884C36.0852 22.4801 36.2954 22.8356 36.4086 23.2238C36.7234 24.2049 36.733 25.2535 36.4362 26.2398C36.392 26.3937 36.321 26.5392 36.2263 26.6702C36.0908 26.8541 35.9865 26.8483 35.8462 26.6702C35.8035 26.6115 35.7759 26.5438 35.7657 26.4728C35.7555 26.4018 35.7629 26.3295 35.7874 26.2618C36.0872 25.1199 36.0404 24.0151 35.3257 23.0225C35.1296 22.7438 34.8649 22.5165 34.5553 22.3608C34.2458 22.2051 33.901 22.126 33.5519 22.1305C33.278 22.1308 33.0107 22.2115 32.7856 22.3619C32.7127 22.4272 32.6195 22.4675 32.5205 22.4764Z" fill="#F8F2EA"/>
<path d="M38.8853 19.4557C38.917 19.1003 39.093 18.7714 39.3748 18.5404C39.6567 18.3095 40.0217 18.1952 40.3904 18.2225C41.3798 18.3162 41.9039 18.9316 42.2397 19.7403C42.6331 20.689 42.5995 21.6503 42.2397 22.6059C42.2162 22.6737 42.1722 22.7331 42.1134 22.7766C42.0547 22.8201 41.9838 22.8457 41.9099 22.85C41.7768 22.8709 41.754 22.7575 41.6928 22.6904C41.6316 22.6233 41.6928 22.54 41.7072 22.466C41.8595 21.7128 41.8991 20.962 41.5537 20.2447C41.402 19.889 41.1492 19.5818 40.8245 19.3585C40.2716 19.0115 39.714 19.089 39.1527 19.3342C39.0699 19.3701 38.9896 19.4129 38.8853 19.4557Z" fill="#F8F2EA"/>
<path d="M29.6758 26.8599C29.5762 26.8495 29.5714 26.7523 29.5247 26.6945C29.4539 26.6089 29.5331 26.573 29.5954 26.5325C30.0404 26.2445 30.4769 25.9437 30.9302 25.6683C32.1907 24.9001 33.4584 24.1412 34.7224 23.3777C34.8291 23.314 34.9107 23.2435 35.009 23.4112C35.1074 23.579 34.9815 23.6021 34.8891 23.6518C33.1746 24.5881 31.5114 25.609 29.906 26.7107C29.8317 26.7604 29.7561 26.809 29.6758 26.8599Z" fill="#F8F2EA"/>
<path d="M34.5725 22.938C34.5426 22.9716 34.5342 23.0063 34.4922 23.0294C32.7496 24 31.055 25.0436 29.394 26.1391C29.3364 26.1773 29.286 26.2548 29.2081 26.2259C29.1539 26.2041 29.1108 26.1625 29.0882 26.1102C29.0606 26.0315 29.1505 26.0142 29.1973 25.9818C30.367 25.1789 31.5559 24.4026 32.764 23.653C33.2285 23.3637 33.6887 23.0684 34.1444 22.7668C34.1869 22.7357 34.24 22.7211 34.2931 22.726C34.3462 22.731 34.3955 22.755 34.431 22.7934C34.4898 22.8327 34.5557 22.8651 34.5725 22.938Z" fill="#F8F2EA"/>
<path d="M40.448 19.893C39.0389 20.5478 37.6705 21.2269 36.3332 21.9615C36.2397 22.0124 35.9411 21.8678 35.9363 21.7672C35.9363 21.6862 36.0238 21.6804 36.0754 21.6515C36.8358 21.252 37.5953 20.8552 38.3541 20.461C38.7906 20.2378 39.2319 20.0237 39.6733 19.8051C40.0271 19.6304 40.0882 19.6362 40.448 19.893Z" fill="#F8F2EA"/>
<path d="M40.9121 20.386C40.9121 20.4508 40.8498 20.4543 40.8102 20.4751C39.4766 21.1877 38.1434 21.9011 36.8105 22.6153C36.6606 22.6963 36.6355 22.6096 36.5707 22.5216C36.5059 22.4337 36.5167 22.3712 36.6307 22.3099C37.9499 21.5938 39.3027 20.9274 40.6699 20.2934C40.8054 20.2333 40.8714 20.2611 40.9121 20.386Z" fill="#F8F2EA"/>
<path d="M42.5708 22.4395C42.6907 22.9277 42.5144 23.2747 42.1042 23.3465C42.2602 23.0434 42.4053 22.7611 42.5708 22.4395Z" fill="#F8F2EA"/>
<path d="M25.7998 27.8224C25.7099 27.7425 25.7998 27.6928 25.8406 27.6465C26.0418 27.4041 26.3322 27.2458 26.6513 27.2046C26.3731 27.4718 26.0517 27.6095 25.7986 27.8224H25.7998Z" fill="#F8F2EA"/>
<path d="M30.6784 40.8884L31.3979 41.8463L31.344 41.8857L30.6172 40.9312L30.6784 40.8884Z" fill="#F8F2EA"/>
<path d="M32.7964 23.1405C32.8784 22.997 32.9944 22.8743 33.1348 22.7822C33.2753 22.6902 33.4363 22.6314 33.6047 22.6106L32.7964 23.1405Z" fill="#F8F2EA"/>
<path d="M40.2861 18.101C40.7467 17.9946 41.2516 18.1357 41.5178 18.4481C41.1352 18.2352 40.7431 18.0605 40.2861 18.101Z" fill="#F8F2EA"/>
<path d="M30.2281 31.5256C30.1657 31.858 30.0756 31.9136 29.7815 31.814C29.9436 31.7237 30.1129 31.6635 30.2281 31.5256Z" fill="#F8F2EA"/>
<path d="M41.4661 22.06V21.3022C41.5614 21.5418 41.5847 21.8025 41.5332 22.0542L41.4661 22.06Z" fill="#F8F2EA"/>
<path d="M36.344 27.2799L36.7666 27.1641C36.7534 27.266 36.7402 27.3795 36.6549 27.4073C36.5433 27.4316 36.4364 27.3621 36.344 27.2799Z" fill="#F8F2EA"/>
<path d="M29.7791 31.3567C29.911 31.1739 29.9266 30.9448 30.0381 30.7192C30.0577 30.8228 30.0553 30.9291 30.0309 31.0317C30.0066 31.1344 29.9609 31.2311 29.8966 31.3162C29.8714 31.3509 29.8414 31.4053 29.7827 31.3509L29.7791 31.3567Z" fill="#F8F2EA"/>
<path d="M26.6057 26.8543C26.8014 26.7443 26.9959 26.786 27.2264 26.8473C26.9983 26.9724 26.8014 26.8172 26.6057 26.8543Z" fill="#F8F2EA"/>
<path d="M26.7651 34.2801C26.602 34.0939 26.5408 33.8625 26.4604 33.6404C26.6212 33.8278 26.6835 34.058 26.7651 34.2801Z" fill="#F8F2EA"/>
<path d="M43.8515 52.0653L43.1631 51.7795C43.4195 51.7968 43.6622 51.8976 43.8515 52.0653Z" fill="#F8F2EA"/>
<path d="M36.5983 26.8729C36.6415 26.7768 36.6859 26.6818 36.7519 26.5359C36.8252 26.7559 36.7519 26.8347 36.5911 26.8694L36.5983 26.8729Z" fill="#F8F2EA"/>
<path d="M26.469 25.6233C26.6037 25.5583 26.7557 25.5345 26.9048 25.555C26.7672 25.6108 26.6178 25.6342 26.469 25.6233Z" fill="#787878"/>
<path d="M42.1526 51.1491C42.0071 51.1505 41.8664 51.0988 41.7588 51.0043C41.9048 51.0008 42.0465 51.0524 42.1538 51.1479L42.1526 51.1491Z" fill="#787878"/>
<path d="M31.7868 42.388L31.5767 42.1667C31.7063 42.1783 31.7483 42.2826 31.8108 42.3578C31.8024 42.3683 31.794 42.3775 31.7868 42.388Z" fill="#F8F2EA"/>
<path d="M51.6721 44.0619C51.7231 43.9692 51.7939 43.8879 51.8798 43.8234V43.8164C51.883 43.8454 51.8801 43.8747 51.8714 43.9027C51.8627 43.9306 51.8483 43.9566 51.8291 43.9791C51.8099 44.0016 51.7862 44.0203 51.7595 44.0339C51.7327 44.0475 51.7034 44.0559 51.6733 44.0585L51.6721 44.0619Z" fill="#F8F2EA"/>
<path d="M31.3945 41.9043C31.5038 41.9251 31.5374 42.0132 31.6154 42.1243C31.4702 42.0815 31.4426 41.9831 31.3945 41.9043Z" fill="#F8F2EA"/>
<path d="M27.6203 35.9729C27.6994 36.0494 27.7468 36.1511 27.7535 36.259C27.7018 36.2309 27.6612 36.1873 27.6377 36.1348C27.6143 36.0822 27.6094 36.0237 27.6239 35.9683L27.6203 35.9729Z" fill="#787878"/>
<path d="M51.8796 43.8238C51.9312 43.7543 51.9816 43.6848 52.0332 43.6165C52.0176 43.7137 52.0176 43.8272 51.8748 43.8168L51.8796 43.8238Z" fill="#F8F2EA"/>
<path d="M36.1009 47.1777C36.0365 47.1432 35.9483 47.1294 35.9566 47.0293V47.0351C36.0353 47.0443 36.0759 47.111 36.1272 47.1501L36.1009 47.1777Z" fill="#F8F2EA"/>
<path d="M32.6046 43.3191L32.7338 43.4842L32.7039 43.5154L32.571 43.3503L32.6046 43.3191Z" fill="#F8F2EA"/>
<path d="M32.3633 43.0344C32.404 43.0887 32.4723 43.1245 32.483 43.1984L32.4579 43.2215C32.3992 43.1809 32.3546 43.1241 32.3298 43.0587L32.3633 43.0344Z" fill="#F8F2EA"/>
<path d="M31.8104 42.3577C31.8569 42.4117 31.9296 42.4509 31.9296 42.5303H31.9368C31.833 42.5383 31.8175 42.4532 31.7817 42.3922C31.7937 42.3772 31.802 42.368 31.8104 42.3577Z" fill="#F8F2EA"/>
<path d="M27.9887 25.6162C27.8806 25.6579 27.8206 25.6081 27.7485 25.5386C27.7916 25.522 27.8394 25.5207 27.8834 25.5349C27.9273 25.5491 27.9647 25.578 27.9887 25.6162Z" fill="#787878"/>
<path d="M27.3327 49.6759L27.1514 49.7967C27.174 49.6747 27.248 49.6655 27.2981 49.6333L27.3327 49.6759Z" fill="#787878"/>
<path d="M27.8772 49.3404C27.8568 49.3652 27.8313 49.3856 27.8024 49.4005C27.7735 49.4153 27.7417 49.4243 27.709 49.4267C27.7352 49.3462 27.7949 49.3324 27.8438 49.3059C27.8545 49.3186 27.8664 49.3289 27.8772 49.3404Z" fill="#787878"/>
<path d="M27.0922 49.8266C27.0419 49.8705 26.9964 49.9248 26.9031 49.9109C26.9222 49.822 26.9952 49.8058 27.0527 49.7747L27.0922 49.8266Z" fill="#787878"/>
<path d="M36.8093 47.7708C36.9155 47.719 36.9632 47.7524 36.9727 47.8858C36.9583 47.8552 36.936 47.8287 36.9081 47.8086C36.8802 47.7885 36.8474 47.7755 36.8129 47.7708H36.8093Z" fill="#F8F2EA"/>
<path d="M39.8515 49.9917C39.7953 49.9582 39.7246 49.9409 39.7019 49.8612C39.7953 49.8335 39.8372 49.8947 39.8886 49.9363L39.8515 49.9917Z" fill="#787878"/>
<path d="M41.5464 18.4932L41.5643 18.4517C41.5904 18.4629 41.6156 18.476 41.6397 18.4909C41.6648 18.5117 41.6397 18.5371 41.6254 18.5336C41.597 18.5243 41.5703 18.5106 41.5464 18.4932Z" fill="#F8F2EA"/>
<path d="M52.0798 43.5179L52.1561 43.4949C52.1561 43.5144 52.1561 43.542 52.1454 43.5501C52.1084 43.5777 52.0893 43.5501 52.0774 43.519L52.0798 43.5179Z" fill="#F8F2EA"/>
<path d="M27.3899 25.461C27.4134 25.4393 27.4443 25.4267 27.4768 25.4254C27.5093 25.4241 27.5412 25.4343 27.5664 25.4541C27.5068 25.5243 27.4495 25.4806 27.3899 25.461Z" fill="#787878"/>
<path d="M32.0312 42.6769C32.1138 42.6584 32.1186 42.7196 32.1341 42.7704L32.1018 42.7866C32.0624 42.7589 32.0253 42.73 32.0348 42.6711L32.0312 42.6769Z" fill="#F8F2EA"/>
<path d="M32.2901 42.9591C32.1991 42.9891 32.2039 42.9141 32.1824 42.8679L32.2123 42.8472C32.241 42.8818 32.2877 42.9072 32.2829 42.9626L32.2901 42.9591Z" fill="#F8F2EA"/>
<path d="M51.4538 44.2857C51.5027 44.2696 51.5003 44.1764 51.579 44.2075C51.554 44.2592 51.5612 44.3593 51.4514 44.288L51.4538 44.2857Z" fill="#F8F2EA"/>
<path d="M35.616 46.8141C35.7448 46.8061 35.7794 46.8406 35.7352 46.9292C35.7313 46.9 35.7175 46.8729 35.6959 46.8521C35.6743 46.8313 35.6462 46.8179 35.616 46.8141Z" fill="#F8F2EA"/>
<path d="M36.302 47.3184C36.3256 47.3182 36.3487 47.3254 36.3677 47.3389C36.3867 47.3524 36.4006 47.3716 36.4073 47.3934C36.4073 47.3934 36.3977 47.4119 36.393 47.4107C36.3701 47.4076 36.3485 47.3986 36.3306 47.3845C36.3127 47.3705 36.2991 47.352 36.2913 47.3311L36.302 47.3184Z" fill="#F8F2EA"/>
<path d="M36.5968 47.5589C36.5453 47.5416 36.4651 47.5486 36.5034 47.4551V47.4632C36.5501 47.4839 36.6231 47.4851 36.5979 47.5647L36.5968 47.5589Z" fill="#F8F2EA"/>
<path d="M39.5853 49.749C39.6294 49.7697 39.7153 49.7847 39.67 49.8434C39.6247 49.9021 39.5793 49.8204 39.5376 49.7916L39.5853 49.749Z" fill="#787878"/>
<path d="M26.7412 49.9708C26.7889 49.9432 26.8354 49.8557 26.8867 49.9213C26.9237 49.9685 26.8414 49.9973 26.7925 50.0157L26.7412 49.9708Z" fill="#787878"/>
<path d="M27.1835 36.7662C27.168 36.7766 27.1524 36.7985 27.1404 36.7962C27.1093 36.7962 27.0758 36.7754 27.0854 36.7385C27.0887 36.7289 27.0944 36.7203 27.1019 36.7133C27.1094 36.7062 27.1185 36.701 27.1285 36.6981C27.1739 36.6935 27.1644 36.7385 27.1835 36.7662Z" fill="#F8F2EA"/>
<path d="M32.1344 42.7708C32.1822 42.7708 32.1906 42.8169 32.2121 42.8469L32.1822 42.8677C32.1547 42.8412 32.1284 42.8146 32.1021 42.7869L32.1344 42.7708Z" fill="#F8F2EA"/>
<path d="M27.7316 25.5109C27.6993 25.5225 27.6789 25.5352 27.661 25.5329C27.643 25.5306 27.6394 25.5098 27.6287 25.4959C27.6406 25.4902 27.6538 25.4775 27.6646 25.4798C27.6881 25.4876 27.7105 25.4981 27.7316 25.5109Z" fill="#787878"/>
<path d="M26.3958 25.6586L26.3755 25.6532C26.3818 25.6469 26.3891 25.6414 26.3969 25.637C26.3969 25.637 26.4082 25.6445 26.4139 25.6478L26.3958 25.6586Z" fill="#787878"/>
<path d="M27.8678 36.4966C27.8529 36.4923 27.8401 36.4827 27.8321 36.4697C27.824 36.4566 27.8212 36.4411 27.8242 36.4262C27.8242 36.4204 27.8454 36.417 27.856 36.4124L27.8654 36.4989L27.8678 36.4966Z" fill="#787878"/>
<path d="M51.4198 44.4155C51.4093 44.4258 51.3988 44.4407 51.3871 44.4419C51.3754 44.443 51.3613 44.4304 51.3496 44.4247C51.3631 44.4113 51.378 44.3994 51.3941 44.3892C51.3941 44.3892 51.4105 44.4018 51.4198 44.4155Z" fill="#F8F2EA"/>
<path d="M32.2831 42.9627L32.3632 43.0342L32.3309 43.0585C32.2891 43.0366 32.2424 43.0158 32.2903 42.9592L32.2831 42.9627Z" fill="#F8F2EA"/>
<path d="M33.0548 43.8142H33.0433C33.0429 43.8194 33.0429 43.8247 33.0433 43.8299H33.0539C33.0551 43.8248 33.0555 43.8194 33.0548 43.8142Z" fill="#F8F2EA"/>
<path d="M51.6302 44.1703C51.5799 44.1115 51.6302 44.0919 51.672 44.0676H51.6625C51.7187 44.1242 51.672 44.1461 51.6254 44.168L51.6302 44.1703Z" fill="#F8F2EA"/>
<path d="M36.5935 47.5647C36.646 47.5267 36.6794 47.5877 36.7247 47.5888C36.6567 47.6843 36.6293 47.6061 36.5947 47.5601L36.5935 47.5647Z" fill="#F8F2EA"/>
<path d="M37.1389 47.9417L37.1144 47.9761C37.1062 47.9634 37.0956 47.952 37.0886 47.9394C37.0664 47.9004 37.1003 47.9061 37.1179 47.9084C37.1354 47.9107 37.1272 47.9302 37.1389 47.9417Z" fill="#F8F2EA"/>
<path d="M28.0569 49.1762C28.0808 49.1485 28.1143 49.1023 28.1466 49.1404C28.1789 49.1785 28.1203 49.1958 28.0928 49.2166L28.0569 49.1762Z" fill="#787878"/>
<path d="M27.9092 49.2734L27.9929 49.21L28.0288 49.2469L27.9415 49.3046L27.9092 49.2734Z" fill="#787878"/>
<path d="M27.3613 49.6079L27.4523 49.5525L27.4822 49.5802L27.3948 49.6402L27.3613 49.6079Z" fill="#787878"/>
<path d="M39.4067 49.7026C39.3815 49.6761 39.3038 49.6691 39.3528 49.6149C39.3767 49.5884 39.4198 49.623 39.4414 49.6553L39.4067 49.7026Z" fill="#787878"/>
<path d="M39.4978 49.6902L39.5849 49.7489L39.5372 49.7914L39.4573 49.7305L39.4978 49.6902Z" fill="#787878"/>
<path d="M37.3453 49.9549C37.3416 49.9456 37.3398 49.9356 37.3401 49.9256C37.3404 49.9156 37.3428 49.9058 37.3471 49.8967C37.3514 49.8877 37.3575 49.8796 37.3651 49.8729C37.3727 49.8662 37.3816 49.8611 37.3913 49.8579C37.3969 49.8768 37.3955 49.897 37.3873 49.915C37.3791 49.933 37.3646 49.9475 37.3465 49.956L37.3453 49.9549Z" fill="#787878"/>
<path d="M26.6633 50.0345C26.6896 50.0138 26.7158 49.9931 26.7409 49.9712L26.7921 50.0161L26.7027 50.0805L26.6633 50.0345Z" fill="#787878"/>
<path d="M36.9976 50.3863C36.9916 50.3674 36.993 50.347 37.0015 50.3291C37.01 50.3112 37.0249 50.297 37.0435 50.2893C37.0435 50.3309 37.0435 50.3678 36.9964 50.3851L36.9976 50.3863Z" fill="#787878"/>
<path d="M41.7566 51.0037L41.6987 50.9867L41.7126 50.9731L41.7531 51.0083L41.7566 51.0037Z" fill="#787878"/>
<path d="M42.1497 51.1523L42.1926 51.1645C42.1659 51.1922 42.1647 51.1567 42.152 51.1489L42.1497 51.1523Z" fill="#787878"/>
<path d="M32.484 43.1987C32.5063 43.209 32.5484 43.2171 32.518 43.2503C32.4876 43.2835 32.4747 43.2411 32.4595 43.2217L32.484 43.1987Z" fill="#F8F2EA"/>
<path d="M32.5705 43.3496C32.5479 43.337 32.504 43.329 32.5337 43.2946C32.5634 43.2602 32.58 43.3026 32.599 43.3187L32.5705 43.3496Z" fill="#F8F2EA"/>
<path d="M32.7338 43.4846C32.7404 43.4849 32.7468 43.4865 32.7527 43.4893C32.7586 43.4921 32.7637 43.4961 32.7679 43.501C32.7721 43.5058 32.7751 43.5115 32.7769 43.5176C32.7786 43.5237 32.779 43.5301 32.7779 43.5364C32.7398 43.5859 32.7231 43.5364 32.6992 43.5203L32.7338 43.4846Z" fill="#F8F2EA"/>
<path d="M32.8655 43.5677C32.85 43.5792 32.8333 43.6033 32.819 43.601C32.7796 43.601 32.7808 43.5619 32.7832 43.532L32.8667 43.5619L32.8655 43.5677Z" fill="#F8F2EA"/>
<path d="M52.0774 43.5192L52.1277 43.5536L52.102 43.5834L52.0809 43.5181L52.0774 43.5192Z" fill="#F8F2EA"/>
<path d="M32.8612 43.5667C32.8612 43.5896 32.88 43.6228 32.8355 43.6285C32.8319 43.6279 32.8285 43.6265 32.8255 43.6246C32.8225 43.6226 32.8199 43.62 32.8179 43.6171C32.8097 43.5793 32.8308 43.5678 32.8647 43.5678L32.8612 43.5667Z" fill="#F8F2EA"/>
<path d="M32.908 43.7588L32.9136 43.7112L32.9089 43.761L32.908 43.7588Z" fill="#F8F2EA"/>
<path d="M32.9091 43.7607L32.9555 43.7285C32.9706 43.7818 32.9242 43.7485 32.908 43.7585L32.9091 43.7607Z" fill="#F8F2EA"/>
<path d="M51.5797 44.2104C51.5797 44.1921 51.5797 44.1714 51.5797 44.1577C51.5972 44.1244 51.6089 44.1634 51.6253 44.1646V44.1588C51.6253 44.1921 51.6101 44.2081 51.5762 44.2058L51.5797 44.2104Z" fill="#F8F2EA"/>
<path d="M51.4468 44.2861C51.4667 44.2942 51.4959 44.2964 51.4819 44.3274C51.4819 44.3377 51.4596 44.3434 51.4479 44.3515C51.4515 44.3306 51.4538 44.3095 51.455 44.2884L51.4468 44.2861Z" fill="#F8F2EA"/>
<path d="M35.6183 46.8136L35.6345 46.7598C35.6794 46.793 35.6276 46.7964 35.6172 46.8136H35.6183Z" fill="#F8F2EA"/>
<path d="M35.7358 46.9294C35.7358 46.8973 35.7463 46.8755 35.7838 46.8824C35.7838 46.8824 35.7978 46.8938 35.7967 46.8984C35.7967 46.9385 35.758 46.9202 35.7346 46.9248L35.7358 46.9294Z" fill="#F8F2EA"/>
<path d="M35.9069 46.9801H35.8582V46.9448L35.8988 46.9789L35.9069 46.9801Z" fill="#F8F2EA"/>
<path d="M35.9551 47.0277L35.8931 47.0185L35.9083 46.9807H35.9024C35.9364 46.9807 35.9528 46.9956 35.9504 47.0288L35.9551 47.0277Z" fill="#F8F2EA"/>
<path d="M27.8662 36.4989L27.8777 36.506L27.8681 36.4968L27.8662 36.4989Z" fill="#787878"/>
<path d="M36.1226 47.1531C36.1414 47.1714 36.1835 47.1829 36.1402 47.2161C36.1265 47.2039 36.1136 47.1909 36.1016 47.1771L36.1226 47.1531Z" fill="#F8F2EA"/>
<path d="M36.2244 47.2935C36.2045 47.2752 36.1635 47.2603 36.2103 47.2305C36.2246 47.2432 36.2379 47.257 36.2501 47.2717L36.2244 47.2935Z" fill="#F8F2EA"/>
<path d="M36.2512 47.271C36.2833 47.271 36.3023 47.2836 36.3011 47.318L36.2904 47.3306L36.2251 47.2928L36.2512 47.271Z" fill="#F8F2EA"/>
<path d="M28.1402 25.6763C28.1465 25.6858 28.1515 25.6961 28.155 25.707C28.155 25.707 28.1447 25.7172 28.1402 25.7217C28.1345 25.712 28.1299 25.7018 28.1265 25.691C28.1265 25.691 28.1333 25.6808 28.1402 25.6763Z" fill="#787878"/>
<path d="M36.7489 47.6509C36.7301 47.644 36.7044 47.6418 36.695 47.6291C36.6705 47.5948 36.7173 47.6028 36.7278 47.5879C36.7348 47.6097 36.7407 47.6314 36.7465 47.6544L36.7489 47.6509Z" fill="#F8F2EA"/>
<path d="M36.7966 47.6992C36.763 47.6992 36.7295 47.6992 36.7503 47.6516C36.785 47.6516 36.8128 47.6516 36.7977 47.6992H36.7966Z" fill="#F8F2EA"/>
<path d="M36.8115 47.7701C36.8115 47.7472 36.8033 47.7231 36.7986 47.7002C36.8173 47.7071 36.8431 47.691 36.8524 47.7266C36.8618 47.7621 36.8255 47.7518 36.8138 47.7655L36.8115 47.7701Z" fill="#F8F2EA"/>
<path d="M27.8004 36.3453L27.7703 36.3297C27.7703 36.3242 27.7819 36.3142 27.7853 36.3153C27.7969 36.3184 27.8079 36.3233 27.8178 36.3297L27.8004 36.3453Z" fill="#787878"/>
<path d="M36.9736 47.8833L37.0222 47.8459C37.0395 47.9037 36.9863 47.8652 36.9724 47.8811L36.9736 47.8833Z" fill="#F8F2EA"/>
<path d="M36.5901 26.8691C36.6121 26.885 36.6109 26.9009 36.5901 26.9145C36.5693 26.9281 36.5751 26.9145 36.5681 26.9145L36.5982 26.8759L36.5901 26.8691Z" fill="#F8F2EA"/>
<path d="M25.7971 27.8217L25.7686 27.7808C25.7686 27.7808 25.78 27.7808 25.7811 27.7808C25.7875 27.7937 25.7932 27.807 25.7983 27.8205L25.7971 27.8217Z" fill="#F8F2EA"/>
<path d="M28.0925 49.2169L28.0291 49.2469L27.9932 49.21L28.0566 49.1765L28.0925 49.2169Z" fill="#787878"/>
<path d="M29.782 31.3511L29.7868 31.3577L29.7791 31.3566L29.782 31.3511Z" fill="#F8F2EA"/>
<path d="M27.6202 35.9671L27.5986 35.9531C27.5986 35.9531 27.6068 35.9531 27.6089 35.9531C27.6122 35.9581 27.615 35.9635 27.6171 35.9692L27.6202 35.9671Z" fill="#787878"/>
<path d="M27.9414 49.3048L27.878 49.3406C27.8672 49.3291 27.8553 49.3187 27.8445 49.306L27.9091 49.2737L27.9414 49.3048Z" fill="#787878"/>
<path d="M27.6023 49.4561C27.6234 49.4366 27.6444 49.4194 27.6702 49.4481C27.6702 49.4481 27.6456 49.4721 27.6316 49.4859L27.6023 49.4561Z" fill="#787878"/>
<path d="M27.6306 49.492C27.613 49.5149 27.5931 49.5367 27.5674 49.5046C27.5674 49.5046 27.5896 49.4771 27.6013 49.4622L27.6306 49.492Z" fill="#787878"/>
<path d="M27.4524 49.5511C27.4735 49.5293 27.4945 49.5098 27.5238 49.5396L27.4817 49.5786L27.4524 49.5511Z" fill="#787878"/>
<path d="M27.3945 49.639L27.3335 49.6759L27.2988 49.6332L27.361 49.6067L27.3945 49.639Z" fill="#787878"/>
<path d="M39.4356 49.6553L39.4978 49.6899L39.4571 49.7303L39.4009 49.7026C39.4128 49.6876 39.4248 49.6714 39.4356 49.6553Z" fill="#787878"/>
<path d="M27.0542 49.7744C27.0792 49.7629 27.1079 49.7352 27.1305 49.7686C27.1532 49.802 27.115 49.8112 27.0936 49.8261L27.0542 49.7744Z" fill="#787878"/>
<path d="M28.0244 25.6436L28.0416 25.6277C28.0479 25.6372 28.0529 25.6475 28.0564 25.6584C28.0564 25.6584 28.0473 25.6686 28.0416 25.6743L28.0244 25.6436Z" fill="#787878"/>
<path d="M37.3918 49.8574L37.4143 49.8279C37.4301 49.8596 37.4143 49.8585 37.3884 49.8541L37.3918 49.8574Z" fill="#787878"/>
<path d="M37.2937 50.0017C37.2937 49.9733 37.3111 49.954 37.3436 49.9562L37.2937 50.0017Z" fill="#787878"/>
<path d="M39.8863 49.9365C39.9078 49.9503 39.9484 49.9572 39.9257 49.9941C39.903 50.0309 39.8744 50.001 39.8494 49.9941C39.8637 49.9733 39.8756 49.9549 39.8863 49.9365Z" fill="#787878"/>
<path d="M37.2483 50.049L37.297 50.0024L37.2483 50.0479V50.049Z" fill="#787878"/>
<path d="M40.0111 50.0195L39.994 50.049C39.994 50.0434 39.9791 50.0365 39.9803 50.0331C39.9838 50.0223 39.9888 50.012 39.9951 50.0024L40.0111 50.0195Z" fill="#787878"/>
<path d="M26.7024 50.0809C26.6785 50.0936 26.6523 50.1201 26.6284 50.0901C26.6046 50.0602 26.6451 50.0499 26.663 50.0349L26.7024 50.0809Z" fill="#787878"/>
<path d="M37.2396 50.0464L37.227 50.0873C37.187 50.0555 37.227 50.0589 37.2418 50.0498L37.2396 50.0464Z" fill="#787878"/>
<path d="M26.5721 50.1194L26.5632 50.1346L26.5386 50.1173L26.5565 50.1021L26.5721 50.1194Z" fill="#787878"/>
<path d="M37.1449 50.193L37.1629 50.1667C37.1629 50.1722 37.1629 50.1788 37.1629 50.181C37.1571 50.185 37.1506 50.1879 37.1438 50.1897L37.1449 50.193Z" fill="#787878"/>
<path d="M37.1399 50.1865C37.1399 50.2149 37.1248 50.2343 37.0923 50.2331C37.0923 50.2058 37.1085 50.1865 37.1399 50.1865Z" fill="#787878"/>
<path d="M37.0444 50.2885L37.0943 50.2419C37.0943 50.2738 37.0792 50.2908 37.0456 50.2897L37.0444 50.2885Z" fill="#787878"/>
<path d="M31.9349 42.531L31.9731 42.5741C31.9604 42.5741 31.943 42.5843 31.9361 42.5741C31.9118 42.5559 31.9257 42.539 31.9361 42.522L31.9349 42.531Z" fill="#F8F2EA"/>
<path d="M36.9921 50.3831L36.9707 50.4148C36.9516 50.3831 36.9707 50.3842 36.9943 50.3863L36.9921 50.3831Z" fill="#787878"/>
<path d="M32.033 42.6736L31.9856 42.6385L32.0191 42.6204L32.0295 42.6759L32.033 42.6736Z" fill="#F8F2EA"/>
<path d="M36.5018 47.4545L36.4519 47.467V47.4307L36.4972 47.4625L36.5018 47.4545Z" fill="#F8F2EA"/>
<path d="M37.3777 38.7841C37.3737 38.4389 37.4643 38.0989 37.6404 37.7984C38.1836 36.8208 38.9596 36.033 39.7895 35.2821C40.0294 35.06 40.0402 35.0658 39.8243 34.8309C39.3696 34.3139 38.9747 33.7507 38.6466 33.1511C38.5266 32.9417 38.5266 32.6756 38.4067 32.4824C38.2868 32.2892 37.987 32.2811 37.7951 32.1227C37.3993 31.7953 37.2638 31.366 37.1954 30.8987C37.1415 30.4069 37.1211 29.9122 37.1343 29.4178C37.1312 29.362 37.1459 29.3066 37.1766 29.2592C37.2073 29.2118 37.2524 29.1747 37.3058 29.1529C37.3496 29.1301 37.4 29.1223 37.449 29.1307C37.498 29.1391 37.5426 29.1632 37.5756 29.1992C37.7795 29.3588 38.0349 29.4097 38.2724 29.4988C39.3434 29.8979 39.7415 30.5134 39.6324 31.6252C39.6249 31.6965 39.6399 31.7683 39.6756 31.8311C40.0479 32.5534 40.5383 33.2131 41.1279 33.7851C41.2598 33.9077 41.3354 33.9008 41.4721 33.7921C42.3329 33.1203 43.2714 32.5469 44.2689 32.0833C44.9573 31.7767 45.6457 31.7143 46.3233 32.1296C46.6699 32.3425 46.8725 32.6756 47.1124 32.9776C47.8536 33.9031 48.6259 34.8032 49.5626 35.5598C50.1466 36.0306 50.6347 36.601 51.1468 37.139C51.4131 37.4212 51.3795 37.7012 51.0977 37.9846C49.6585 39.4319 48.2193 40.885 46.9001 42.4341C46.1511 43.3354 45.454 44.2759 44.8121 45.2511C44.643 45.4987 44.5831 45.5195 44.3156 45.398C42.5167 44.5766 40.9888 43.3955 39.5472 42.0963C38.9816 41.6055 38.4601 41.0695 37.9882 40.494C37.6101 39.9967 37.3972 39.4005 37.3777 38.7841ZM46.5427 40.2059C46.5607 40.1839 46.6111 40.17 46.5595 40.133C46.5787 40.133 46.6051 40.133 46.6171 40.1203C46.6495 40.0925 46.6027 40.089 46.5967 40.074C46.6279 40.0809 46.6627 40.0914 46.6758 40.0532C46.6758 40.0416 46.6579 40.0208 46.6483 40.0057C46.6483 40.0266 46.6483 40.0532 46.6854 40.0462C46.6962 40.0462 46.7046 40.0266 46.7142 40.0173L46.6471 40.0092L46.6027 40.0786L46.5667 40.1376C46.5601 40.1367 46.5533 40.1373 46.547 40.1393C46.5406 40.1412 46.5348 40.1446 46.5299 40.149C46.5251 40.1535 46.5214 40.1589 46.519 40.165C46.5166 40.171 46.5157 40.1775 46.5163 40.1839C46.484 40.1839 46.4696 40.2013 46.466 40.2302C46.424 40.2556 46.3676 40.2765 46.4228 40.3378C46.3844 40.2834 46.3664 40.3378 46.3436 40.3528C45.7835 40.9049 45.2828 41.5103 44.8493 42.1599C44.8193 42.2027 44.7294 42.2663 44.8193 42.3184C44.8853 42.3589 44.9117 42.2756 44.9393 42.2316C45.3734 41.5826 45.8723 40.981 46.3688 40.3806C46.4012 40.3806 46.4144 40.3598 46.4168 40.332C46.4648 40.3089 46.5151 40.2857 46.46 40.2244C46.502 40.2776 46.5199 40.2267 46.5427 40.2059ZM42.7194 33.5954L42.6906 33.6683L42.681 33.6787V33.6625C42.753 33.6694 42.7206 33.6243 42.717 33.5942C42.7422 33.6104 42.7685 33.6324 42.7901 33.5942C42.7901 33.5884 42.7697 33.5676 42.759 33.5537C42.8789 33.5884 42.8789 33.5884 42.9988 33.4288L42.759 33.5537C42.765 33.5884 42.7578 33.6035 42.7194 33.5954ZM45.9947 39.9653L45.9527 40.0243C45.9191 40.0358 45.8963 40.0624 45.9263 40.0844C45.9563 40.1064 45.9755 40.0786 45.9755 40.0439C46.0078 40.0439 46.021 40.0243 46.0222 39.9942L46.0714 39.9467L48.3009 37.8713C47.778 38.1246 46.6099 39.2086 46.0366 39.919L45.9947 39.9653ZM48.7194 35.79L48.6511 35.8074L48.6763 35.8363L48.7171 35.7865C48.7171 35.8074 48.6547 35.8247 48.7171 35.8502C48.7147 35.8293 48.7171 35.8097 48.7194 35.79ZM43.5409 37.1204L43.4917 37.169H43.4845V37.1609L43.5349 37.1135H43.5421L43.5409 37.1204ZM44.1777 32.7821C44.1214 32.7451 44.0698 32.7347 44.035 32.8087C44.0062 32.8145 43.9523 32.8087 43.993 32.8619C43.8623 32.8619 43.7532 32.885 43.7532 33.0424C43.6632 32.9105 43.5985 33.1083 43.5133 33.0586C43.4977 33.1569 43.2914 33.1303 43.3574 33.2807C43.2615 33.165 43.2375 33.29 43.1931 33.3316L43.3586 33.2784C43.3586 33.1731 43.5817 33.209 43.5133 33.0586C43.6045 33.1835 43.6692 32.995 43.7532 33.0401C43.7975 32.9429 43.9331 32.9498 43.9822 32.8573C44.0134 32.8573 44.0386 32.8573 44.0482 32.8237L44.1681 32.7832L44.1609 32.693H44.2041C44.2041 32.693 44.1969 32.708 44.1945 32.708C44.1881 32.7063 44.182 32.7036 44.1765 32.6999C44.1465 32.7289 44.1154 32.7589 44.1777 32.7821ZM38.2352 37.6006C38.18 37.6387 38.1213 37.6758 38.1549 37.7648C38.222 37.7151 38.2532 37.6653 38.2316 37.5959C38.2568 37.5959 38.2748 37.5959 38.2556 37.5682L38.2352 37.6006ZM43.3418 37.3125C43.2818 37.3599 43.1943 37.3877 43.1955 37.4976C43.2353 37.4828 43.2701 37.4575 43.2957 37.4245C43.3214 37.3916 43.3369 37.3524 43.3406 37.3113H43.3478L43.3418 37.3125ZM38.0649 37.8215C38.0224 37.8607 37.9884 37.9078 37.9649 37.9598C37.9414 38.0118 37.929 38.0679 37.9282 38.1246C38.0149 38.0551 38.0801 37.9638 38.1165 37.8609C38.1309 37.8377 38.1585 37.8111 38.1249 37.7868C38.0913 37.7625 38.0877 37.8007 38.0685 37.8215H38.0649ZM38.6106 40.0624C38.6334 40.0763 38.6214 40.1284 38.667 40.1133C38.6742 40.1133 38.6778 40.0694 38.667 40.0555C38.6418 40.0208 38.619 40.0358 38.6058 40.0694C38.6454 39.8704 38.4487 39.7721 38.4091 39.536C38.3527 39.8137 38.5422 39.912 38.6142 40.0624H38.6106ZM48.1822 34.8865L48.3129 35.0658C48.3237 34.9212 48.2445 34.9061 48.2097 34.8599C48.1083 34.6923 47.9709 34.5476 47.8068 34.4353C47.6365 34.2525 47.4614 34.0732 47.2971 33.8858C46.9662 33.5012 46.6143 33.134 46.2429 32.7856C46.2225 32.7763 46.2081 32.7335 46.1805 32.774C46.1805 32.774 46.2033 32.7983 46.2153 32.811C46.6519 33.4623 47.2191 34.0026 47.7984 34.5325C47.906 34.6706 48.0369 34.7903 48.1858 34.8865H48.1822ZM43.2651 38.968L43.7244 38.4844L43.6704 38.4347C43.5015 38.5822 43.3535 38.7507 43.2303 38.9356C43.1943 38.9588 43.1355 38.9854 43.1847 39.0293C43.2219 39.0536 43.2447 38.9923 43.2735 38.9645L43.2651 38.968ZM48.536 35.7368C48.5527 35.7507 48.5779 35.7796 48.5839 35.7761C48.6319 35.7484 48.5911 35.7287 48.5731 35.7079L48.0203 35.2081L47.9651 35.2659C48.1378 35.4449 48.3323 35.603 48.5444 35.7368H48.536ZM38.6202 38.7991C38.6243 38.8645 38.6336 38.9294 38.6478 38.9935C38.8073 39.5939 39.2078 40.0485 39.6252 40.4974C39.7367 40.6131 39.7559 40.4743 39.7919 40.428C40.1349 39.9803 40.4647 39.521 40.8161 39.0791C41.6364 38.0471 42.5683 37.1123 43.5097 36.1868C44.312 35.3955 45.1264 34.6111 46.1745 34.1125C46.2285 34.0913 46.2726 34.0519 46.2986 34.0017C46.3246 33.9515 46.3308 33.8938 46.3161 33.8395C46.2629 33.505 46.0808 33.2022 45.8064 32.9915C45.5437 32.8029 45.2571 32.6849 44.9333 32.8457C44.67 32.9592 44.4186 33.0967 44.1825 33.2564C42.2361 34.7291 40.3939 36.3083 38.8325 38.1721C38.6943 38.3535 38.6225 38.5741 38.6286 38.7991H38.6202ZM49.3407 36.7595C49.3407 36.697 49.2831 36.682 49.2435 36.6588C48.8446 36.4032 48.4643 36.1214 48.1054 35.8155C47.7972 35.5667 47.8068 35.576 47.4686 35.7808C46.8676 36.1314 46.3072 36.5429 45.7968 37.0082C44.998 37.7602 44.2461 38.5538 43.4941 39.3486C42.7377 40.1169 42.0331 40.9311 41.3846 41.7862C41.2646 41.9516 41.2646 42.0326 41.4397 42.1587C41.959 42.5255 42.4615 42.9153 42.9724 43.2936C43.2914 43.525 43.2926 43.525 43.4677 43.1837C44.3072 41.5386 45.3206 40.0057 46.6447 38.6718C47.4422 37.8898 48.2565 37.1436 49.3491 36.7595H49.3407ZM37.5552 29.6076C37.5852 30.1987 37.5804 30.7795 37.7351 31.3429C37.7808 31.5089 37.8655 31.6625 37.9825 31.7919C38.0996 31.9213 38.246 32.023 38.4103 32.0891C38.4499 32.1115 38.4969 32.1183 38.5415 32.1082C38.5862 32.098 38.6251 32.0718 38.6502 32.0347C38.7293 31.9503 38.6873 31.8936 38.6382 31.8276C38.4787 31.6159 38.3156 31.4054 38.1585 31.1914C38.0115 30.9986 37.9115 30.7764 37.8658 30.5412C37.8478 30.4394 37.837 30.3445 37.9354 30.2878C38.0337 30.2311 38.1309 30.2948 38.2124 30.3723C38.5722 30.7124 38.7245 31.1624 38.9152 31.5928C38.9392 31.6472 38.9248 31.7698 39.0291 31.7258C39.1335 31.6819 39.269 31.6992 39.3086 31.5673C39.4573 31.1046 39.1587 30.3561 38.7245 30.0888C38.3719 29.869 37.9678 29.7614 37.5636 29.6076H37.5552ZM40.8929 34.2803C40.8557 34.2409 40.8353 34.2166 40.8125 34.1958C40.2248 33.6393 39.7931 32.9741 39.3937 32.2881C39.3614 32.2326 39.3422 32.1227 39.2438 32.2106C39.1851 32.2638 39.0327 32.2638 39.1023 32.4119C39.4549 33.1627 39.8842 33.8615 40.5295 34.4179C40.5666 34.4503 40.5942 34.5336 40.665 34.4735C40.7357 34.4133 40.8209 34.3485 40.9012 34.2803H40.8929ZM46.9121 40.6999C46.0642 41.4334 45.341 42.2605 44.9261 43.3064C45.5473 42.4063 46.1602 41.5016 46.9121 40.6999ZM42.8453 37.847C42.2047 38.4541 41.6341 39.1263 41.1435 39.8519C41.7767 39.2353 42.2648 38.5018 42.8453 37.8435V37.847ZM37.8275 38.3201C37.8958 38.2473 37.9702 38.2045 37.9282 38.098C37.8884 38.1183 37.8568 38.1508 37.8385 38.1905C37.8202 38.2302 37.8163 38.2746 37.8275 38.3167V38.3201ZM43.1439 39.0756C43.078 39.0895 43.0432 39.1172 43.0444 39.1843C43.0729 39.182 43.0994 39.1689 43.118 39.1479C43.1366 39.1269 43.1459 39.0997 43.1439 39.0721V39.0756ZM43.0888 33.3409C43.0694 33.3614 43.0536 33.3849 43.042 33.4103C43.042 33.4276 43.0612 33.4496 43.0864 33.4288C43.108 33.4087 43.1284 33.3875 43.1475 33.3652L43.0888 33.3409ZM46.9805 40.5657L46.9013 40.6663C46.9181 40.6767 46.9253 40.7126 46.9553 40.6883C46.9772 40.6696 46.9955 40.6473 47.0093 40.6224C47.0141 40.6085 46.9949 40.5842 46.9805 40.5622V40.5657ZM42.9808 37.7359V37.7533H42.9676C42.9665 37.7475 42.9665 37.7416 42.9676 37.7359H42.9808Z" fill="#070606"/>
<path d="M38.6285 38.799C38.6227 38.5698 38.6975 38.3456 38.8408 38.1627C40.3998 36.2989 42.2444 34.7198 44.1908 33.247C44.4269 33.0874 44.6783 32.9498 44.9416 32.8363C45.2654 32.6755 45.552 32.7935 45.8147 32.9821C46.0891 33.1928 46.2712 33.4956 46.3244 33.8301C46.3398 33.8848 46.3339 33.943 46.3078 33.9937C46.2818 34.0445 46.2373 34.0842 46.1828 34.1055C45.1347 34.6041 44.3203 35.3885 43.518 36.1798C42.5766 37.1053 41.6447 38.0447 40.8244 39.072C40.473 39.5139 40.1432 39.9732 39.8002 40.421C39.7642 40.4672 39.745 40.6084 39.6335 40.4904C39.2161 40.0461 38.8156 39.5915 38.6561 38.9864C38.6422 38.9247 38.633 38.862 38.6285 38.799Z" fill="#F8F2EA"/>
<path d="M49.349 36.7593C48.2564 37.1434 47.4385 37.8896 46.653 38.6775C45.3337 40.0056 44.3167 41.5385 43.476 43.1894C43.3009 43.5364 43.2997 43.5364 42.9807 43.2993C42.4698 42.921 41.9673 42.5311 41.448 42.1644C41.2693 42.0383 41.2729 41.9573 41.3929 41.7918C42.0414 40.9367 42.746 40.1225 43.5024 39.3543C44.2544 38.5595 45.0063 37.7658 45.8051 37.0139C46.3155 36.5485 46.8759 36.137 47.4769 35.7864C47.8151 35.5816 47.8055 35.5724 48.1137 35.8211C48.4726 36.127 48.8529 36.4088 49.2518 36.6645C49.2914 36.6818 49.3466 36.6969 49.349 36.7593Z" fill="#F8F2EA"/>
<path d="M37.5637 29.6074C37.9667 29.7613 38.372 29.8689 38.7294 30.0887C39.1636 30.3559 39.4622 31.1044 39.3135 31.5672C39.2715 31.6991 39.13 31.6829 39.0341 31.7257C38.9381 31.7685 38.9441 31.647 38.9201 31.5927C38.7294 31.1623 38.5783 30.7123 38.2173 30.3721C38.1358 30.2946 38.0554 30.2217 37.9403 30.2877C37.8252 30.3536 37.8528 30.4392 37.8707 30.541C37.9164 30.7762 38.0164 30.9985 38.1634 31.1912C38.3205 31.4052 38.4836 31.6158 38.6431 31.8275C38.6923 31.8934 38.7342 31.9501 38.6551 32.0346C38.63 32.0716 38.5911 32.0979 38.5464 32.108C38.5018 32.1182 38.4548 32.1113 38.4152 32.089C38.2509 32.0229 38.1045 31.9212 37.9874 31.7918C37.8704 31.6624 37.7857 31.5088 37.74 31.3428C37.5889 30.7794 37.5937 30.1986 37.5637 29.6074Z" fill="#F8F2EA"/>
<path d="M40.9012 34.2803C40.8208 34.3486 40.7512 34.4157 40.6733 34.4735C40.5953 34.5314 40.5749 34.4504 40.5378 34.418C39.8925 33.8615 39.4584 33.1628 39.1106 32.412C39.0411 32.2639 39.1934 32.2639 39.2521 32.2107C39.3505 32.1227 39.3721 32.2326 39.402 32.2882C39.8014 32.9742 40.2332 33.6394 40.8208 34.1959C40.846 34.2213 40.864 34.241 40.9012 34.2803Z" fill="#F8F2EA"/>
<path d="M46.9121 40.7C46.1601 41.5098 45.5473 42.4098 44.926 43.3064C45.341 42.2571 46.0642 41.43 46.9121 40.7Z" fill="#F8F2EA"/>
<path d="M46.0366 39.919C46.6099 39.2087 47.778 38.1247 48.3009 37.8713L46.0714 39.9468C46.0613 39.936 46.0496 39.9266 46.0366 39.919Z" fill="#F8F2EA"/>
<path d="M42.8454 37.8435C42.2649 38.5041 41.7768 39.2318 41.1436 39.8484C41.6341 39.1228 42.2047 38.4506 42.8454 37.8435Z" fill="#F8F2EA"/>
<path d="M46.3701 40.3782C45.8736 40.981 45.3747 41.5826 44.9405 42.2293C44.9117 42.2732 44.8854 42.3565 44.8206 42.316C44.7331 42.264 44.8206 42.2003 44.8506 42.1575C45.2838 41.5089 45.7841 40.9042 46.3437 40.3528L46.3701 40.3782Z" fill="#F8F2EA"/>
<path d="M46.2429 32.7854C46.6143 33.1338 46.9662 33.5011 47.2971 33.8856C47.4614 34.073 47.6365 34.2523 47.8068 34.4351C47.8068 34.4675 47.8008 34.4999 47.7984 34.5323C47.2191 34.0025 46.6519 33.4622 46.2153 32.8109L46.2429 32.7854Z" fill="#F8F2EA"/>
<path d="M48.5449 35.7373C48.3355 35.6028 48.1437 35.4445 47.9734 35.2659L48.0286 35.208L48.5821 35.7083L48.5449 35.7373Z" fill="#F8F2EA"/>
<path d="M43.2446 38.936C43.368 38.7509 43.5161 38.5823 43.6852 38.4346L43.7393 38.4844L43.2734 38.965L43.2446 38.936Z" fill="#F8F2EA"/>
<path d="M47.802 34.5326C47.802 34.5002 47.802 34.4677 47.8104 34.4353C47.9747 34.5477 48.1122 34.6926 48.2138 34.8603L48.1862 34.887C48.0385 34.7904 47.9086 34.6706 47.802 34.5326Z" fill="#787878"/>
<path d="M38.6132 40.0642C38.5424 39.9125 38.3527 39.8141 38.4127 39.5361C38.4523 39.7678 38.6528 39.8708 38.6096 40.07L38.6132 40.0642Z" fill="#F8F2EA"/>
<path d="M43.9874 32.8572C43.9381 32.9498 43.8025 32.9429 43.7581 33.0402C43.7581 32.8815 43.8637 32.8549 43.9982 32.8583L43.9874 32.8572Z" fill="#F8F2EA"/>
<path d="M38.1204 37.8609C38.0839 37.964 38.0187 38.0554 37.9319 38.125C37.9326 38.0682 37.9451 38.0121 37.9686 37.96C37.9921 37.9079 38.0262 37.8608 38.0688 37.8215L38.1204 37.8609Z" fill="#787878"/>
<path d="M43.3404 37.3113C43.3367 37.3522 43.3212 37.3914 43.2956 37.4243C43.27 37.4571 43.2353 37.4824 43.1956 37.4972C43.1956 37.3875 43.2817 37.3598 43.3416 37.3124L43.3404 37.3113Z" fill="#787878"/>
<path d="M48.2134 34.8599C48.2482 34.9062 48.3275 34.9212 48.3167 35.066L48.1858 34.8865L48.2134 34.8599Z" fill="#787878"/>
<path d="M43.5194 33.0574C43.5866 33.2091 43.3681 33.1732 43.3633 33.2786C43.2973 33.128 43.5038 33.1547 43.5194 33.0574Z" fill="#F8F2EA"/>
<path d="M42.7649 33.5538L43.005 33.4287C42.885 33.5885 42.885 33.5885 42.7649 33.5538Z" fill="#F8F2EA"/>
<path d="M37.8274 38.3168C37.8153 38.2742 37.8188 38.229 37.8371 38.1885C37.8555 38.1481 37.8876 38.1149 37.9282 38.0945C37.9678 38.2033 37.8958 38.2439 37.8274 38.3168Z" fill="#787878"/>
<path d="M43.1438 39.072C43.1448 39.0989 43.1351 39.1252 43.1166 39.1454C43.0981 39.1656 43.0723 39.1782 43.0445 39.1805C43.0433 39.1136 43.078 39.0859 43.1438 39.072Z" fill="#F8F2EA"/>
<path d="M43.7582 33.0401C43.6741 32.9949 43.6093 33.1837 43.5181 33.0575C43.6021 33.1061 43.6669 32.9081 43.7582 33.0413V33.0401Z" fill="#F8F2EA"/>
<path d="M43.3638 33.2781L43.1992 33.331C43.2457 33.2896 43.2672 33.1618 43.3626 33.2804L43.3638 33.2781Z" fill="#F8F2EA"/>
<path d="M38.2311 37.5959C38.2526 37.665 38.2216 37.711 38.1548 37.7639C38.1214 37.6753 38.1799 37.6385 38.2347 37.6005L38.2311 37.5959Z" fill="#787878"/>
<path d="M45.9738 40.0437C45.9738 40.078 45.9586 40.1078 45.9258 40.0838C45.8931 40.0597 45.9188 40.0356 45.9516 40.0242L45.9738 40.0437Z" fill="#F8F2EA"/>
<path d="M43.0888 33.3374L43.1474 33.3616C43.1283 33.3839 43.1079 33.4051 43.0864 33.4251C43.0613 33.4459 43.0373 33.4251 43.0421 33.4067C43.0537 33.3813 43.0694 33.3579 43.0888 33.3374Z" fill="#F8F2EA"/>
<path d="M46.9801 40.5623C46.9944 40.5887 47.0135 40.6083 47.0087 40.6186C46.995 40.6434 46.9768 40.6656 46.955 40.6842C46.9252 40.7084 46.9181 40.6727 46.9014 40.6624L46.9801 40.5623Z" fill="#F8F2EA"/>
<path d="M43.2732 38.9644C43.2469 38.9887 43.2218 39.0499 43.1931 39.0256C43.144 38.9818 43.2026 38.9552 43.2385 38.9321L43.2732 38.9644Z" fill="#F8F2EA"/>
<path d="M42.9778 37.7358H42.9663C42.9653 37.741 42.9653 37.7463 42.9663 37.7515H42.9768L42.9778 37.7358Z" fill="#F8F2EA"/>
<path d="M44.1703 32.6985C44.1757 32.7025 44.1818 32.7056 44.1883 32.7074C44.1883 32.7074 44.1939 32.6973 44.1973 32.6929H44.1658L44.1703 32.6985Z" fill="#F8F2EA"/>
<path d="M46.4228 40.3376C46.3677 40.2764 46.4228 40.2556 46.4658 40.2302V40.2222C46.5209 40.2833 46.4658 40.3064 46.4228 40.3295V40.3376Z" fill="#F8F2EA"/>
<path d="M38.6094 40.0691C38.6223 40.0357 38.6446 40.0208 38.6693 40.0553C38.6799 40.0691 38.6763 40.1105 38.6693 40.1128C38.6246 40.1278 38.6364 40.076 38.6129 40.0622L38.6094 40.0691Z" fill="#F8F2EA"/>
<path d="M44.0349 32.8083C44.0695 32.7347 44.1208 32.745 44.1769 32.7818L44.0576 32.8221L44.0349 32.8083Z" fill="#F8F2EA"/>
<path d="M43.3415 37.3123L43.3461 37.3066L43.3406 37.31L43.3415 37.3123Z" fill="#787878"/>
<path d="M43.4881 37.1667L43.4846 37.1739L43.4898 37.1688L43.4881 37.1667Z" fill="#787878"/>
<path d="M46.5947 40.0728C46.6017 40.0888 46.6473 40.0922 46.6157 40.1197C46.604 40.1312 46.5783 40.1289 46.5596 40.1324H46.5666L46.6017 40.0739L46.5947 40.0728Z" fill="#F8F2EA"/>
<path d="M43.4916 37.1681L43.5392 37.1204L43.4905 37.167L43.4916 37.1681Z" fill="#787878"/>
<path d="M43.5407 37.1198L43.545 37.1157L43.5398 37.1188L43.5407 37.1198Z" fill="#787878"/>
<path d="M46.3438 40.3525C46.3664 40.3329 46.3843 40.2834 46.4225 40.3375V40.3294C46.4225 40.3571 46.407 40.3766 46.3748 40.3778L46.3438 40.3525Z" fill="#F8F2EA"/>
<path d="M46.6026 40.0783L46.6467 40.0093C46.6563 40.0254 46.679 40.0461 46.6742 40.0576C46.6611 40.0956 46.6265 40.0852 46.5955 40.0783H46.6026Z" fill="#F8F2EA"/>
<path d="M48.7172 35.7889V35.8497C48.6608 35.8244 48.7172 35.8073 48.7172 35.7866V35.7889Z" fill="#F8F2EA"/>
<path d="M44.1649 32.6929C44.1649 32.7229 44.1649 32.7529 44.173 32.7829C44.1127 32.7598 44.1429 32.7298 44.173 32.6998L44.1649 32.6929Z" fill="#F8F2EA"/>
<path d="M45.9526 40.024L45.9938 39.9653C46.0022 39.9755 46.0112 39.9851 46.0208 39.9941C46.0208 40.024 46.0067 40.0424 45.975 40.0436L45.9526 40.024Z" fill="#F8F2EA"/>
<path d="M48.7155 35.7866L48.6757 35.8359L48.6511 35.8073L48.7167 35.7889L48.7155 35.7866Z" fill="#F8F2EA"/>
<path d="M46.0712 39.9467L46.0222 39.994C46.0124 39.9849 46.0032 39.9753 45.9946 39.9651L46.0365 39.9189C46.0494 39.9265 46.0611 39.9358 46.0712 39.9467Z" fill="#F8F2EA"/>
<path d="M38.0686 37.8213C38.0841 37.8006 38.0913 37.7603 38.1282 37.7868C38.1652 37.8133 38.1282 37.8374 38.1199 37.8604L38.0686 37.8213Z" fill="#787878"/>
<path d="M48.5807 35.7078C48.5983 35.7284 48.6381 35.7479 48.5912 35.7754C48.5912 35.7754 48.5608 35.7502 48.5444 35.7364L48.5807 35.7078Z" fill="#F8F2EA"/>
<path d="M46.647 40.0056L46.7125 40.0136C46.7032 40.0228 46.695 40.0399 46.6844 40.0422C46.6528 40.0491 46.6528 40.0228 46.6481 40.001L46.647 40.0056Z" fill="#F8F2EA"/>
<path d="M38.2351 37.5987L38.2542 37.5681C38.2722 37.5966 38.2542 37.5987 38.2317 37.5944L38.2351 37.5987Z" fill="#787878"/>
<path d="M42.6828 33.6624L42.6809 33.677L42.6886 33.6676L42.6828 33.6624Z" fill="#F8F2EA"/>
<path d="M42.7185 33.5942C42.7185 33.624 42.7536 33.6687 42.6833 33.6619L42.6904 33.6676L42.7185 33.5954V33.5942Z" fill="#F8F2EA"/>
<path d="M46.5163 40.1835C46.5157 40.1771 46.5166 40.1707 46.5189 40.1647C46.5212 40.1587 46.5248 40.1533 46.5296 40.1489C46.5343 40.1445 46.54 40.1412 46.5462 40.1392C46.5524 40.1373 46.559 40.1367 46.5655 40.1376H46.5584C46.6088 40.1743 46.5584 40.188 46.542 40.2098L46.5163 40.1835Z" fill="#F8F2EA"/>
<path d="M42.7639 33.5536C42.7744 33.5674 42.7978 33.588 42.7943 33.5938C42.7732 33.6316 42.7475 33.6098 42.7229 33.5938C42.7604 33.6018 42.7721 33.5869 42.7662 33.5525L42.7639 33.5536Z" fill="#F8F2EA"/>
<path d="M43.9926 32.8613C43.9528 32.804 44.0055 32.8143 44.0336 32.8086L44.0511 32.8235C44.0418 32.8556 44.0172 32.8625 43.9868 32.8567L43.9926 32.8613Z" fill="#F8F2EA"/>
<path d="M46.2182 32.8105C46.2065 32.7978 46.1819 32.7772 46.1842 32.7738C46.2112 32.7337 46.2252 32.7738 46.2451 32.7852L46.2182 32.8105Z" fill="#F8F2EA"/>
<path d="M46.466 40.2299C46.466 40.2011 46.4838 40.1838 46.516 40.1838L46.5423 40.2057C46.5196 40.2264 46.5017 40.277 46.4612 40.2218L46.466 40.2299Z" fill="#F8F2EA"/>
<defs>
<filter id="filter0_d_4001_42102" x="0.266113" y="0" width="81.7336" height="77.6387" filterUnits="userSpaceOnUse" color-interpolation-filters="sRGB">
<feFlood flood-opacity="0" result="BackgroundImageFix"/>
<feColorMatrix in="SourceAlpha" type="matrix" values="0 0 0 0 0 0 0 0 0 0 0 0 0 0 0 0 0 0 127 0" result="hardAlpha"/>
<feOffset dx="5" dy="4"/>
<feGaussianBlur stdDeviation="2"/>
<feComposite in2="hardAlpha" operator="out"/>
<feColorMatrix type="matrix" values="0 0 0 0 0 0 0 0 0 0 0 0 0 0 0 0 0 0 0.25 0"/>
<feBlend mode="normal" in2="BackgroundImageFix" result="effect1_dropShadow_4001_42102"/>
<feBlend mode="normal" in="SourceGraphic" in2="effect1_dropShadow_4001_42102" result="shape"/>
</filter>
</defs>
</svg>
