<svg width="109" height="107" viewBox="0 0 109 107" fill="none" xmlns="http://www.w3.org/2000/svg">
<g filter="url(#filter0_d_2409_116523)">
<path d="M0 49.3678C0.182054 36.8315 4.39193 25.7934 12.9104 16.4564C19.8532 8.84803 28.4457 3.96101 38.4402 1.47502C41.5228 0.708452 44.6558 0.263247 47.8289 0.0841414C54.39 -0.287374 60.7753 0.564144 66.9672 2.783C73.3041 5.05406 78.9036 8.51438 83.7913 13.1199C87.9508 17.0388 91.1938 21.6157 93.829 26.6654C96.5423 31.8667 98.3053 37.3422 99.0962 43.1421C99.4511 45.7427 99.6105 48.3546 99.5241 50.9747C99.124 63.1733 94.8627 73.85 86.553 82.837C79.5125 90.4505 70.849 95.3426 60.6786 97.5513C57.7616 98.1848 54.8097 98.5819 51.8207 98.6474C38.4587 98.9411 26.6766 94.79 16.6297 86.0169C8.65118 79.0492 3.58863 70.2996 1.2209 60.0098C0.486507 56.8206 0.09257 53.5845 0.0473136 50.3094C0.0431993 50.0126 0.018514 49.7168 0.00102856 49.3688L0 49.3678Z" fill="#060000"/>
<path d="M52.3239 93.7543C45.4181 93.8792 38.9773 92.7493 32.8008 90.2347C28.3698 88.4313 24.2299 86.1214 20.6269 82.9507C14.7034 77.7393 10.3721 71.4347 7.64339 64.0464C6.45129 60.8204 5.65314 57.4973 5.22834 54.0891C4.80869 50.7302 4.68218 47.3568 5.144 43.9989C5.76525 39.4834 7.0962 35.1633 9.08543 31.0531C13.0083 22.9473 18.796 16.4709 26.4259 11.6647C31.4781 8.48277 36.9768 6.36421 42.8704 5.2906C45.772 4.76147 48.6982 4.51277 51.646 4.5404C56.2128 4.58339 60.6984 5.21179 65.0347 6.64668C68.0546 7.64558 70.8667 9.11731 73.5286 10.8531C82.1674 16.4872 88.2945 24.1611 92.1465 33.6599C93.8179 37.7813 94.8588 42.0625 95.2753 46.492C95.4769 48.631 95.5901 50.7752 95.409 52.9173C95.1941 55.4616 94.6798 57.9578 93.9835 60.4152C91.9161 67.7012 88.2647 74.1029 83.0612 79.6183C77.6212 85.3845 71.1187 89.5316 63.5814 92.036C61.3175 92.7882 58.956 93.1607 56.5862 93.4453C55.0907 93.6244 53.589 93.7042 52.3239 93.7554V93.7543Z" fill="#F8F2EA"/>
<path d="M52.2686 89.6129C45.9455 89.7262 40.0482 88.7005 34.3929 86.4177C30.3358 84.7806 26.5451 82.6836 23.2461 79.8052C17.8225 75.0742 13.8567 69.3508 11.3582 62.6436C10.2667 59.715 9.53589 56.6982 9.14694 53.6043C8.7627 50.5549 8.64686 47.4926 9.06971 44.4442C9.63854 40.3449 10.8572 36.4231 12.6786 32.6918C16.2705 25.3333 21.5698 19.4539 28.5558 15.0908C33.1818 12.2022 38.2165 10.2789 43.6128 9.30426C46.2695 8.82391 48.9488 8.59813 51.6479 8.62322C55.8294 8.66224 59.9364 9.23272 63.9069 10.5353C66.672 11.4421 69.2467 12.7782 71.684 14.354C79.5939 19.4687 85.2041 26.4352 88.731 35.0583C90.2613 38.7998 91.2144 42.6863 91.5958 46.7075C91.7804 48.6493 91.884 50.5958 91.7183 52.5404C91.5214 54.8502 91.0505 57.1163 90.413 59.3471C88.52 65.9614 85.1767 71.773 80.4123 76.78C75.4313 82.0146 69.4775 85.7794 62.5762 88.0529C60.5034 88.7358 58.3411 89.074 56.1713 89.3323C54.8019 89.4949 53.4269 89.5674 52.2686 89.6138V89.6129Z" fill="#181818"/>
<path d="M13.8278 19.5523C14.878 17.9782 16.066 16.5085 17.3352 15.1084C18.0398 14.3316 18.878 13.6869 19.741 12.9817C17.8731 15.3223 15.8448 17.4378 13.9153 19.6393C13.8391 19.6567 13.799 19.6393 13.8278 19.5523Z" fill="#F8F2EA"/>
<path d="M79.7149 14.5201C81.9891 16.3634 84.0534 18.4144 85.8863 20.6936C85.9017 20.7684 85.8801 20.8062 85.7968 20.7786C83.8374 18.6252 81.7289 16.6193 79.6183 14.6153C79.6039 14.5375 79.6306 14.4997 79.7139 14.5201H79.7149Z" fill="#F8F2EA"/>
<path d="M98.4137 46.3007C98.6616 48.2146 98.7912 50.1336 98.603 52.0597C98.533 52.7823 98.422 53.5008 98.3294 54.2213C98.1144 54.121 98.2574 53.9562 98.2553 53.817C98.3695 52.028 98.4744 50.239 98.4127 48.4449C98.389 47.7581 98.3582 47.0714 98.3294 46.3847C98.3016 46.3018 98.3376 46.2813 98.4137 46.2997V46.3007Z" fill="#F8F2EA"/>
<path d="M55.7168 95.2177C54.6605 95.3539 53.6052 95.4941 52.5478 95.6251C51.5542 95.7489 50.5576 95.8523 49.565 95.9894C49.3027 96.0263 49.0528 95.9853 48.7977 95.9792C48.7226 95.9772 48.5817 96.0437 48.5992 95.8748C48.6105 95.7673 48.699 95.7254 48.8049 95.7182C49.1834 95.6937 49.5609 95.6548 49.9404 95.6415C51.6468 95.5821 53.3408 95.3876 55.0328 95.1717C55.2581 95.143 55.4854 95.1072 55.7168 95.2167V95.2177Z" fill="#F8F2EA"/>
<path d="M31.2658 8.14604C33.3065 7.00693 35.5374 6.36624 37.7539 5.68973C37.8424 5.66005 37.864 5.69997 37.8486 5.7798C35.6577 6.53102 33.4762 7.30987 31.3512 8.23303C31.2668 8.25759 31.2463 8.22177 31.2658 8.14604Z" fill="#F8F2EA"/>
<path d="M77.4152 86.624C79.1977 85.0704 81.0224 83.5618 82.6742 81.8608C82.2751 82.6366 78.5374 86.0407 77.4152 86.624Z" fill="#F8F2EA"/>
<path d="M85.3889 16.3582C86.1685 16.9282 89.1626 20.4264 89.5802 21.2216C88.0744 19.6946 86.8905 17.8913 85.3889 16.3582Z" fill="#F8F2EA"/>
<path d="M77.6549 11.6235C76.575 10.9992 75.496 10.3738 74.416 9.74951C75.6061 10.1824 76.865 10.4936 77.6549 11.6235Z" fill="#F8F2EA"/>
<path d="M13.5811 22.1388C14.3207 21.0795 15.1558 20.0929 15.9849 19.1032C16.0425 19.0336 16.0918 18.8699 16.2286 18.9722C16.3798 19.0858 16.2461 19.1769 16.17 19.267C15.3358 20.2536 14.5017 21.2412 13.6685 22.2289C13.5955 22.2412 13.5544 22.2217 13.5821 22.1388H13.5811Z" fill="#F8F2EA"/>
<path d="M97.7919 58.1451C97.577 59.5677 97.2437 60.9627 96.7922 62.33C96.7675 62.3597 96.7418 62.3607 96.714 62.3331C97.075 60.8563 97.4422 59.3814 97.7024 57.8821C97.8968 57.9138 97.7868 58.0489 97.7919 58.1441V58.1451Z" fill="#F8F2EA"/>
<path d="M85.7983 20.7786C85.8281 20.7499 85.8579 20.7223 85.8878 20.6936C86.8855 21.8337 87.7556 23.067 88.5816 24.333C88.6093 24.4129 88.5713 24.4262 88.5034 24.4098C87.6703 23.1489 86.725 21.9709 85.7983 20.7786Z" fill="#F8F2EA"/>
<path d="M97.7923 58.1448C97.7522 58.0609 97.8098 57.9432 97.7028 57.8828C97.8869 56.5278 98.071 55.1727 98.2552 53.8176C98.3066 53.9476 98.2274 54.1011 98.3292 54.2219C98.1502 55.5299 97.9713 56.8368 97.7933 58.1448H97.7923Z" fill="#F8F2EA"/>
<path d="M96.3148 63.8772C96.0906 65.004 95.6144 66.0459 95.2174 67.1144C95.1474 67.3027 95.0662 67.4869 94.99 67.6732C94.9222 67.6824 94.8738 67.6753 94.9191 67.5893C95.3809 66.3355 95.8664 65.089 96.251 63.8086C96.2819 63.7974 96.3128 63.7871 96.3333 63.8229C96.3416 63.8373 96.3302 63.8577 96.3158 63.8772H96.3148Z" fill="#F8F2EA"/>
<path d="M97.021 36.6392C97.4005 37.8131 97.7657 38.9911 97.8037 40.2356C97.5425 39.0371 97.2822 37.8387 97.021 36.6392Z" fill="#F8F2EA"/>
<path d="M47.7083 3.60393C48.597 3.51795 49.4815 3.37876 50.3743 3.35522C50.3784 3.40435 50.3836 3.45245 50.3877 3.50158C49.5227 3.56503 48.6577 3.62849 47.7916 3.69194C47.7093 3.71344 47.6857 3.67966 47.7073 3.6029L47.7083 3.60393Z" fill="#F8F2EA"/>
<path d="M3.67054 49.3176V51.7361C3.62746 51.7361 3.58438 51.734 3.5413 51.733C3.35872 50.8631 3.67874 50.0095 3.67054 49.3176Z" fill="#F8F2EA"/>
<path d="M6.20222 34.5449C6.03971 34.985 5.87308 35.4251 5.71571 35.8673C5.67457 35.9829 5.6252 36.076 5.48943 36.0218C5.31458 35.9512 5.44726 35.8509 5.48634 35.771C5.68691 35.3596 5.89262 34.9523 6.09731 34.5429C6.13331 34.5091 6.16828 34.5101 6.20325 34.546L6.20222 34.5449Z" fill="#F8F2EA"/>
<path d="M40.0375 4.47182C39.2475 4.6673 38.4586 4.86278 37.6687 5.05928C38.3815 4.6632 39.1673 4.52606 39.9531 4.38687C40.0333 4.36435 40.057 4.3971 40.0375 4.47284V4.47182Z" fill="#F8F2EA"/>
<path d="M5.45943 62.0137C5.08092 61.2543 4.97395 60.4191 4.86389 59.584C5.0624 60.3935 5.26091 61.2041 5.45943 62.0137Z" fill="#F8F2EA"/>
<path d="M13.5808 22.1387C13.6096 22.1684 13.6384 22.1991 13.6672 22.2287C13.3062 22.7231 12.9452 23.2184 12.5842 23.7128C12.5533 23.6923 12.5235 23.6718 12.4926 23.6513C12.8413 23.1386 13.1725 22.6136 13.5808 22.1387Z" fill="#F8F2EA"/>
<path d="M20.1465 84.8196C20.63 85.2013 21.1134 85.5831 21.5968 85.9648C20.8408 85.6179 20.3728 85.2464 20.1465 84.8196Z" fill="#F8F2EA"/>
<path d="M57.7836 2.88733C57.2343 2.84639 56.684 2.80443 56.0947 2.76042C56.7005 2.4452 57.2395 2.81569 57.7938 2.78703C57.7897 2.81978 57.7866 2.85356 57.7825 2.88631L57.7836 2.88733Z" fill="#F8F2EA"/>
<path d="M67.8601 6.98242C68.4947 7.06328 69.045 7.30583 69.5459 7.67019C68.9843 7.44093 68.4217 7.21168 67.8601 6.98242Z" fill="#F8F2EA"/>
<path d="M37.8486 5.7798C37.8167 5.75012 37.7859 5.71941 37.754 5.68973C38.2148 5.4789 38.7074 5.38781 39.1919 5.26807C39.2022 5.30082 39.2125 5.33357 39.2227 5.36632C38.764 5.50449 38.3063 5.64163 37.8476 5.7798H37.8486Z" fill="#F8F2EA"/>
<path d="M60.5707 94.8248C60.9626 94.7091 61.3545 94.5925 61.7463 94.4768C61.5129 94.88 61.0829 94.7879 60.7404 94.9128C60.6561 94.9353 60.5604 94.9814 60.5707 94.8248Z" fill="#F8F2EA"/>
<path d="M52.9831 96.5535C53.6115 96.5422 54.2318 96.3652 54.8664 96.4839C54.2379 96.4952 53.6198 96.6988 52.9831 96.5535Z" fill="#F8F2EA"/>
<path d="M18.7335 82.3438C19.0904 82.6774 19.4483 83.0121 19.8052 83.3457C19.7826 83.3693 19.7589 83.3938 19.7363 83.4174C19.3413 83.1216 18.9957 82.7756 18.7335 82.3438Z" fill="#F8F2EA"/>
<path d="M20.885 84.3947C20.5055 84.1357 20.1619 83.8379 19.8719 83.4807C20.2689 83.7171 20.6155 84.0139 20.9426 84.3353C20.9508 84.3803 20.9313 84.4008 20.885 84.3947Z" fill="#F8F2EA"/>
<path d="M7.53447 68.7602C7.28351 68.3519 7.11894 67.9108 7.05414 67.4287C7.23516 67.8545 7.41619 68.2813 7.59722 68.707C7.59722 68.749 7.57664 68.7664 7.5355 68.7613L7.53447 68.7602Z" fill="#F8F2EA"/>
<path d="M79.7154 14.52C79.6835 14.5517 79.6516 14.5834 79.6198 14.6151C79.3739 14.392 79.1281 14.1689 78.8833 13.9458C79.2238 14.0574 79.486 14.2672 79.7164 14.52H79.7154Z" fill="#F8F2EA"/>
<path d="M88.5032 24.4098C88.5289 24.3842 88.5556 24.3586 88.5813 24.333C88.8498 24.6298 89.0339 24.9757 89.1625 25.3606C88.9424 25.0433 88.7233 24.726 88.5032 24.4098Z" fill="#F8F2EA"/>
<path d="M40.0377 4.4718C40.0099 4.44315 39.9811 4.41449 39.9533 4.38583C40.3514 4.25483 40.7556 4.15453 41.1773 4.14941C41.1865 4.15965 41.1948 4.17091 41.204 4.18114C40.8307 4.3408 40.4295 4.38583 40.0377 4.47078V4.4718Z" fill="#F8F2EA"/>
<path d="M26.8466 88.4895C27.1407 88.6604 27.4359 88.8313 27.7301 89.0012C27.3732 88.9439 27.0728 88.7781 26.8466 88.4895Z" fill="#F8F2EA"/>
<path d="M60.5707 94.8247C60.5912 94.923 60.6838 94.883 60.7404 94.9127C60.3886 94.9946 60.0379 95.0775 59.6861 95.1594C59.9556 94.9649 60.26 94.8851 60.5707 94.8247Z" fill="#F8F2EA"/>
<path d="M98.4128 46.3005C98.3851 46.3292 98.3574 46.3568 98.3287 46.3854C98.22 46.0876 98.2497 45.7836 98.3236 45.4756L98.4128 46.3005Z" fill="#F8F2EA"/>
<path d="M22.1368 85.3719C21.8652 85.2112 21.6071 85.0332 21.3911 84.8019C21.389 84.762 21.4096 84.7476 21.4476 84.7568C21.7171 84.8735 21.9084 85.0936 22.1347 85.2675C22.1707 85.3013 22.1717 85.3361 22.1368 85.3719Z" fill="#F8F2EA"/>
<path d="M31.266 8.14604C31.2948 8.1747 31.3226 8.20438 31.3514 8.23304C31.1344 8.38349 30.8937 8.47764 30.6314 8.51858C30.8176 8.34766 31.0274 8.2228 31.265 8.14502L31.266 8.14604Z" fill="#F8F2EA"/>
<path d="M47.7084 3.60376C47.7362 3.63344 47.765 3.66312 47.7927 3.6928C47.5222 3.82994 47.2404 3.76342 46.9545 3.69996C47.2054 3.66824 47.4574 3.63549 47.7084 3.60376Z" fill="#F8F2EA"/>
<path d="M6.20166 34.544C6.16678 34.544 6.13088 34.5419 6.09601 34.5409C6.1996 34.313 6.3032 34.0851 6.4068 33.8582C6.39962 34.1116 6.35859 34.3488 6.20166 34.544Z" fill="#F8F2EA"/>
<path d="M7.93414 30.141C8.0586 29.8882 8.18305 29.6344 8.30751 29.3816C8.33837 29.3959 8.37025 29.4103 8.40111 29.4246C8.28282 29.6804 8.20877 29.9568 7.93414 30.141Z" fill="#F8F2EA"/>
<path d="M95.5926 37.6983C95.532 37.457 95.4715 37.2158 95.411 36.9746C95.5885 37.1535 95.6644 37.3661 95.6674 37.6032C95.7064 37.685 95.6674 37.7064 95.5915 37.6983H95.5926Z" fill="#F8F2EA"/>
<path d="M94.9184 67.5896C94.942 67.6172 94.9657 67.6459 94.9893 67.6735C94.9132 67.8874 94.8278 68.0962 94.6221 68.3234C94.6982 68.0205 94.7898 67.7984 94.9184 67.5896Z" fill="#F8F2EA"/>
<path d="M13.8278 19.5522C13.8566 19.5809 13.8864 19.6106 13.9152 19.6392C13.8175 19.8603 13.6406 20.0169 13.4596 20.1745C13.5326 19.9371 13.6499 19.7273 13.8278 19.5522Z" fill="#F8F2EA"/>
<path d="M7.59578 68.707C7.72502 68.9319 7.84708 69.1578 7.87375 69.4256C7.71784 69.2252 7.59065 69.0116 7.53424 68.7612C7.55475 68.7428 7.57527 68.7254 7.59578 68.707Z" fill="#F8F2EA"/>
<path d="M22.1368 85.372C22.1368 85.3372 22.1357 85.3024 22.1347 85.2676C22.3384 85.3843 22.5245 85.5224 22.6654 85.721C22.469 85.636 22.2715 85.5541 22.1368 85.373V85.372Z" fill="#F8F2EA"/>
<path d="M94.9372 35.0212C94.7792 34.8485 94.6612 34.6614 94.7033 34.3374C94.8007 34.6226 94.8695 34.8219 94.9372 35.0212Z" fill="#F8F2EA"/>
<path d="M95.593 37.6993C95.6186 37.6676 95.6432 37.6359 95.6689 37.6042C95.7714 37.7944 95.8012 37.9998 95.7694 38.2206C95.7109 38.0468 95.6514 37.8731 95.593 37.6993Z" fill="#F8F2EA"/>
<path d="M96.7139 62.3329C96.7406 62.3441 96.7662 62.3421 96.7919 62.3298C96.7334 62.5159 96.6749 62.7029 96.5816 63.0003C96.5488 62.6784 96.6021 62.4995 96.7139 62.3339V62.3329Z" fill="#F8F2EA"/>
<path d="M41.177 4.15037C41.3909 4.04291 41.6152 3.99583 41.9392 4.0337C41.6399 4.09408 41.4352 4.19745 41.2037 4.1821C41.1945 4.17187 41.1863 4.16061 41.177 4.15037Z" fill="#F8F2EA"/>
<path d="M21.3911 84.8021C21.2224 84.666 21.0537 84.5309 20.885 84.3948C20.9046 84.3754 20.9231 84.3549 20.9426 84.3354C21.1349 84.448 21.3047 84.5872 21.4476 84.7571C21.4229 84.7643 21.4044 84.7796 21.3911 84.8021Z" fill="#F8F2EA"/>
<path d="M96.315 63.8767C96.2934 63.8542 96.2719 63.8307 96.2504 63.8082C96.3017 63.6303 96.3529 63.4525 96.4042 63.2747C96.4319 63.4873 96.4401 63.6947 96.314 63.8767H96.315Z" fill="#F8F2EA"/>
</g>
<path d="M31.4526 51.7276C31.4084 49.4359 31.2889 47.1443 31.3364 44.8527C31.3593 43.7249 31.4019 42.5987 31.5001 41.4726C31.5868 40.4773 32.1286 39.7571 32.8456 39.1367C32.9007 39.0943 32.9465 39.041 32.9803 38.9802C33.0141 38.9194 33.0351 38.8524 33.042 38.7832C33.1811 37.896 33.2057 36.9662 33.6968 36.1756C34.7247 34.5191 36.1963 34.0608 38.1163 34.8154C38.5828 34.9987 38.8906 34.9791 39.2965 34.7057C39.9725 34.2376 40.6911 33.8333 41.3737 33.3717C41.4528 33.3219 41.5197 33.2551 41.5696 33.176C41.6194 33.097 41.6509 33.0078 41.6618 32.915C41.8255 31.982 42.0988 31.0915 42.7208 30.35C43.3457 29.6345 44.1907 29.147 45.1229 28.9642C46.0551 28.7814 47.0216 28.9136 47.8704 29.3401C47.987 29.4126 48.1231 29.4474 48.2602 29.4398C48.3973 29.4321 48.5287 29.3825 48.6365 29.2975C49.3068 28.8603 50.0026 28.4635 50.7202 28.1091C50.8512 28.042 50.9592 27.9978 50.9314 27.7818C50.6924 25.9976 51.8137 24.6946 53.2688 24.1806C54.7797 23.6421 56.0974 24.0169 57.1679 25.1808C57.5187 25.5867 57.9568 25.908 58.4495 26.1203C59.7247 26.6474 59.4922 26.4215 59.8965 27.7032C60.2272 28.6758 60.6418 29.6178 61.1356 30.5186C61.9688 32.1162 62.7381 33.7482 63.6728 35.295C65.0281 37.5375 66.6814 39.5509 68.4443 41.4676C70.4484 43.6818 72.832 45.52 75.4828 46.8955C77.0362 47.6943 78.7418 48.0069 80.4442 48.2918C81.1186 48.4047 81.7979 48.5226 82.4903 48.4554C82.7653 48.4309 82.8177 48.5357 82.6753 48.7714C82.2495 49.3951 81.7865 49.9925 81.2888 50.5605C78.3992 54.0961 75.5047 57.6274 72.6052 61.1543C69.158 65.3425 65.7042 69.5253 62.2438 73.7026C61.9344 74.0774 61.6725 74.485 61.3501 74.8484C61.2901 74.9211 61.2116 74.9762 61.1228 75.0079C61.0341 75.0396 60.9384 75.0467 60.8459 75.0284C59.998 74.9351 59.209 74.6274 58.4021 74.3737C56.7947 73.8826 55.2167 73.3097 53.7484 72.4749C53.2672 72.2032 52.7827 71.9364 52.3113 71.6565C52.1263 71.5435 52.0215 71.5386 51.8677 71.7203C51.2021 72.4781 50.5755 73.2692 49.9902 74.0905C49.4091 74.9368 49.0654 74.9646 48.2731 74.2918C47.5218 73.6567 46.8736 72.9185 46.2008 72.2032C46.0028 71.9937 45.9127 72.0395 45.7425 72.2163C44.8798 73.1397 43.9341 73.9819 42.9173 74.7322C42.3755 75.1316 42.1217 75.1856 41.5194 74.6552C40.7206 73.953 40.223 73.0184 39.6894 72.1115C39.4029 71.6205 39.1214 71.1376 38.8529 70.6383C38.7498 70.4468 38.6581 70.3994 38.465 70.5254C37.329 71.2571 36.1275 71.8873 35.0275 72.6795C34.7807 72.8582 34.517 73.0122 34.2402 73.1395C33.5511 73.4554 33.2073 73.295 33.042 72.5469C32.898 71.8856 32.7659 71.2216 32.6459 70.5549C32.3155 68.5498 32.0969 66.5278 31.9911 64.4984C31.7996 61.5046 31.6932 58.5058 31.577 55.5071C31.523 54.2533 31.4935 52.9896 31.4526 51.7276ZM46.1845 70.8364C46.4371 71.2414 46.7195 71.6271 47.0291 71.9904C47.4579 72.4815 47.8246 73.0347 48.3795 73.4014C48.7953 73.6747 49.1145 73.6469 49.4811 73.3114C49.79 72.9978 50.0644 72.6521 50.2996 72.2801C50.8152 71.5517 51.2031 70.748 51.6663 69.9885C51.7989 69.7708 51.8922 69.761 52.1018 69.9034C52.8645 70.4272 53.6584 70.897 54.4638 71.352C56.3965 72.4407 58.4331 73.3339 60.5431 74.0185C60.656 74.0545 60.7706 74.1298 60.8852 74.007C61.0784 73.8041 61.2846 73.6125 61.4745 73.4047C63.9625 70.6689 66.4053 67.8922 68.8028 65.0746C73.2485 59.8726 77.7532 54.7181 81.8601 49.2362C81.9648 49.0955 82.0974 48.9531 81.9976 48.7845C81.8977 48.6159 81.7128 48.6748 81.5425 48.6944C80.6469 48.8128 79.7394 48.8084 78.845 48.6813C76.9708 48.3949 75.2946 47.6125 73.7134 46.6123C70.641 44.6677 68.148 42.0995 65.989 39.2104C63.2587 35.5667 61.0047 31.653 59.4808 27.3447C59.465 27.2739 59.4299 27.2088 59.3793 27.1568C59.3288 27.1047 59.2647 27.0678 59.1943 27.0501C58.5903 26.9011 58.0485 26.5934 57.4674 26.3839C57.4044 26.3602 57.351 26.3165 57.3152 26.2595C56.8667 25.4934 56.1105 25.1562 55.3362 24.873C54.4376 24.5457 53.5995 24.7634 52.8482 25.3068C52.0723 25.8683 51.8955 26.6965 51.9479 27.5886C51.9633 27.6788 51.9465 27.7715 51.9004 27.8505C51.8543 27.9295 51.7819 27.9898 51.6958 28.0207C50.5926 28.6067 49.4893 29.1927 48.4024 29.8082C48.1045 29.9719 47.8884 30.003 47.584 29.8229C46.3989 29.1273 44.7456 29.5529 43.9829 30.607C43.4069 31.3476 43.0027 32.207 42.7994 33.1229C42.7842 33.2211 42.7469 33.3147 42.6901 33.3964C42.6334 33.478 42.5588 33.5457 42.472 33.5943C41.2771 34.3603 40.1133 35.1739 38.956 35.9972C38.8022 36.1069 38.7072 36.1282 38.5517 36.0087C38.2401 35.7847 37.8999 35.6036 37.5401 35.4701C36.3943 35.0004 34.931 35.2066 34.1747 36.5505C33.933 36.9647 33.7366 37.4037 33.5887 37.86C33.3994 38.4881 33.3245 39.1451 33.3678 39.7997C33.3761 39.8571 33.3698 39.9157 33.3495 39.9701C33.3292 40.0244 33.2955 40.0728 33.2515 40.1107C32.3938 40.9684 31.9273 41.9112 32.0484 43.2207C32.2563 45.4518 32.2825 47.7009 32.3889 49.9319C32.5313 52.8783 32.6704 55.8116 32.8243 58.7514C32.952 61.2067 33.0846 63.662 33.1517 66.1173C33.1844 67.3237 33.2515 68.5284 33.2761 69.7348C33.2839 70.552 33.3336 71.3682 33.425 72.1803C33.4791 72.6157 33.5462 72.6599 33.9505 72.4651C34.0123 72.437 34.0725 72.4053 34.1305 72.3701C35.7199 71.4077 37.3715 70.5467 38.8447 69.4009C39.0461 69.2372 39.0984 69.2994 39.1868 69.4958C39.5879 70.3895 40.0053 71.28 40.4849 72.1344C40.8614 72.8006 41.2035 73.4881 41.6994 74.0807C41.9597 74.3933 42.2183 74.4408 42.5457 74.2002C42.6441 74.125 42.7356 74.0412 42.819 73.9497C43.8617 72.8514 45.0534 71.8856 46.1779 70.8364H46.1845Z" fill="#F8F2EA"/>
<path d="M81.3232 36.8469C82.5426 36.9468 83.0239 37.6457 83.0828 38.8014C83.0921 39.0397 83.0531 39.2775 82.9681 39.5004C82.8831 39.7233 82.754 39.9267 82.5884 40.0984C82.4228 40.2701 82.2242 40.4066 82.0045 40.4996C81.7848 40.5926 81.5486 40.6402 81.3101 40.6396C80.3672 40.6396 79.5095 39.7556 79.5095 38.7899C79.5275 37.7259 80.346 36.8453 81.3232 36.8469ZM81.7979 37.8913C81.3281 37.8913 80.8845 38.1728 80.8747 38.492C80.8616 38.983 81.3837 39.6116 81.8159 39.6067C82.248 39.6018 82.5508 39.2089 82.5508 38.69C82.5525 38.1957 82.266 37.8978 81.7979 37.8913ZM80.8419 37.5639C80.3509 37.8192 80.0104 38.4036 80.0628 38.8275C80.0826 39.0536 80.1641 39.2699 80.2983 39.4528C80.4325 39.6358 80.6143 39.7785 80.8239 39.8653C80.4474 39.0616 80.0071 38.3447 80.8419 37.5606V37.5639ZM80.9745 37.482C80.8992 37.482 80.8108 37.482 80.7928 37.5966C80.8861 37.6113 80.932 37.5475 80.9745 37.4788V37.482Z" fill="#070606"/>
<path d="M19.199 58.961C19.199 58.0149 19.5051 57.5631 20.1516 57.3552C20.898 57.1179 21.5053 57.2947 21.9211 57.8741C22.1586 58.2334 22.2852 58.6547 22.2852 59.0854C22.2852 59.5161 22.1586 59.9374 21.9211 60.2967C21.4415 60.9514 20.7213 60.904 19.9781 60.3867C19.7487 60.2237 19.5593 60.0106 19.4243 59.7636C19.2893 59.5166 19.2122 59.2422 19.199 58.961ZM21.6412 58.8988C21.6526 58.5714 21.5053 58.4241 21.1387 58.4077C20.772 58.3914 20.5821 58.5714 20.5674 58.8873C20.5494 59.2442 20.8588 59.7663 21.083 59.7581C21.3073 59.75 21.6314 59.2213 21.6412 58.8988ZM20.4234 58.0804C19.7686 58.3946 19.7179 58.8644 20.2187 59.6501C20.2564 59.3489 20.1173 59.1099 20.1369 58.8562C20.1753 58.58 20.273 58.3153 20.4234 58.0804ZM20.4708 58.0804C20.4708 58.0804 20.4577 58.0623 20.4495 58.0623C20.4414 58.0623 20.4348 58.0738 20.4283 58.0804L20.4594 58.1L20.4708 58.0804Z" fill="#070606"/>
<path d="M35.9687 20.8284C35.9544 21.1115 35.8816 21.3886 35.7548 21.6422C35.628 21.8957 35.4501 22.1203 35.2321 22.3016C34.7411 22.7075 33.8162 22.57 33.4692 22.0266C33.3132 21.7802 33.1769 21.5219 33.0616 21.254C32.9591 21.0322 32.9311 20.7832 32.9818 20.5442C33.0326 20.3052 33.1594 20.0891 33.3432 19.9281C33.537 19.7472 33.7663 19.6085 34.0165 19.5209C34.2667 19.4333 34.5324 19.3986 34.7967 19.419C35.535 19.4567 35.9884 20.0165 35.9687 20.8284ZM33.9488 20.1736C33.6706 20.3553 33.389 20.537 33.4758 20.943C33.574 21.3915 34.0209 21.8563 34.4186 21.9251C33.7819 21.3636 33.6951 21.0281 33.9783 20.2375C33.9963 20.19 33.9619 20.1818 33.9423 20.1622L33.9799 20.1966L34.0012 20.1556L33.9488 20.1736ZM35.3975 20.8693C35.3975 20.3946 35.2485 20.2146 34.8671 20.2146C34.7082 20.2086 34.5531 20.2644 34.4343 20.3703C34.3156 20.4762 34.2425 20.6239 34.2304 20.7826C34.2345 20.9699 34.3103 21.1485 34.4421 21.2815C34.574 21.4146 34.7519 21.492 34.9391 21.4979C35.2698 21.5028 35.3991 21.3276 35.3975 20.866V20.8693Z" fill="#070606"/>
<path d="M24.6841 51.5295C24.8196 51.5218 24.9552 51.5412 25.0831 51.5867C25.2109 51.6321 25.3284 51.7027 25.4286 51.7942C25.5288 51.8857 25.6097 51.9963 25.6665 52.1195C25.7233 52.2427 25.755 52.376 25.7596 52.5116C25.7841 53.1991 25.2488 53.8522 24.6563 53.862C24.1194 53.8702 23.4892 53.2204 23.4614 52.6295C23.4336 52.0385 23.9934 51.5557 24.6841 51.5295ZM24.838 52.3086C24.5712 52.3086 24.3469 52.505 24.3469 52.7064C24.3469 52.9077 24.5843 53.2482 24.7332 53.2433C24.9198 53.2351 25.2112 52.8537 25.2112 52.6065C25.2145 52.3283 24.9755 52.3708 24.838 52.3086Z" fill="#070606"/>
<path d="M52.966 75.3608C53.5979 75.3608 54.0627 75.7226 54.0398 76.2317C54.0169 76.7407 53.7894 77.3775 53.2214 77.3775C52.6272 77.366 51.9839 76.7505 51.9855 76.1662C51.9839 75.6768 52.3768 75.3592 52.966 75.3608ZM53.5553 76.284C53.5553 76.0631 53.4129 75.8814 53.2427 75.8945C53.1637 75.8996 53.0891 75.9323 53.0317 75.9867C52.9743 76.0411 52.9378 76.1138 52.9284 76.1924C52.9038 76.3282 53.2377 76.7047 53.3491 76.6654C53.5275 76.5983 53.5242 76.4084 53.5488 76.284H53.5553Z" fill="#070606"/>
<path d="M44.5918 25.4133C44.6033 26.0681 44.1711 26.5821 43.6228 26.5788C43.1104 26.5788 42.5081 25.924 42.5081 25.361C42.5081 24.883 43.0351 24.4639 43.6342 24.4656C43.8823 24.4787 44.1168 24.5825 44.2934 24.7572C44.4699 24.932 44.5761 25.1654 44.5918 25.4133ZM44.1007 25.4592C44.1498 25.212 43.9796 25.1318 43.7521 25.1121C43.5507 25.0958 43.1955 25.3773 43.1743 25.5574C43.153 25.7374 43.4018 25.9993 43.5933 26.0157C43.8405 26.037 44.0811 25.7849 44.1056 25.4592H44.1007Z" fill="#070606"/>
<path d="M46.3367 80.5973C46.3333 80.5042 46.349 80.4114 46.3827 80.3246C46.4164 80.2377 46.4674 80.1587 46.5326 80.0922C46.5979 80.0257 46.676 79.9732 46.7622 79.9379C46.8484 79.9026 46.9409 79.8853 47.034 79.8869C47.4236 79.8771 47.8131 80.337 47.8279 80.8264C47.8329 81.0187 47.7661 81.2059 47.6405 81.3515C47.5149 81.4971 47.3395 81.5906 47.1486 81.6138C46.7688 81.6203 46.3465 81.0982 46.3367 80.5973ZM47.4219 80.8526C47.4694 80.5596 47.3221 80.5122 47.1502 80.4991C47.0062 80.486 46.9358 80.5645 46.9571 80.7037C46.9849 80.8919 47.0651 81.0752 47.2746 81.0867C47.4841 81.0982 47.4007 80.8952 47.4219 80.8526Z" fill="#070606"/>
<path d="M46.1779 70.8365C45.0533 71.8858 43.8617 72.8515 42.8059 73.9646C42.7225 74.0561 42.631 74.1399 42.5326 74.215C42.2052 74.4557 41.9466 74.4082 41.6863 74.0955C41.1952 73.503 40.8482 72.8155 40.4717 72.1493C39.9889 71.2949 39.5747 70.4044 39.1737 69.5107C39.0853 69.3142 39.0329 69.2586 38.8316 69.4157C37.3584 70.5615 35.7068 71.4225 34.1174 72.385C34.0593 72.4202 33.9992 72.4519 33.9373 72.48C33.533 72.6747 33.4659 72.6306 33.4119 72.1951C33.3205 71.3831 33.2708 70.5668 33.263 69.7497C33.2384 68.5433 33.1713 67.3385 33.1386 66.1322C33.0747 63.6769 32.9421 61.2216 32.8112 58.7662C32.6573 55.8199 32.5182 52.8866 32.3758 49.9468C32.2694 47.7075 32.2432 45.4585 32.0353 43.2356C31.9142 41.9261 32.3807 40.9849 33.2384 40.1256C33.2823 40.0876 33.316 40.0393 33.3363 39.9849C33.3566 39.9306 33.3629 39.872 33.3546 39.8145C33.3114 39.16 33.3862 38.5029 33.5756 37.8749C33.7234 37.4186 33.9199 36.9796 34.1616 36.5654C34.9178 35.2215 36.3812 35.0152 37.527 35.485C37.8868 35.6185 38.227 35.7996 38.5386 36.0236C38.7023 36.143 38.789 36.1218 38.9429 36.0121C40.1002 35.1937 41.264 34.3752 42.4589 33.6092C42.5457 33.5606 42.6203 33.4929 42.677 33.4112C42.7337 33.3296 42.7711 33.236 42.7863 33.1377C42.9896 32.2218 43.3938 31.3625 43.9697 30.6219C44.7374 29.5677 46.3907 29.1487 47.5709 29.8378C47.8753 30.0179 48.0914 29.9917 48.3893 29.8231C49.4762 29.2076 50.5794 28.6216 51.6827 28.0356C51.7687 28.0046 51.8412 27.9444 51.8872 27.8654C51.9333 27.7864 51.9502 27.6936 51.9348 27.6035C51.8824 26.7114 52.0592 25.8831 52.835 25.3217C53.5864 24.7782 54.4244 24.5622 55.3231 24.8879C56.0973 25.1711 56.8536 25.5083 57.3021 26.2743C57.3378 26.3313 57.3913 26.375 57.4543 26.3987C58.0354 26.6083 58.5772 26.916 59.1812 27.065C59.2516 27.0827 59.3156 27.1196 59.3662 27.1716C59.4168 27.2237 59.4519 27.2887 59.4676 27.3596C60.9916 31.6678 63.2455 35.5816 65.9758 39.2253C68.1398 42.1143 70.6278 44.6826 73.7002 46.6272C75.2815 47.6273 76.9576 48.4098 78.8318 48.6962C79.7262 48.8233 80.6338 48.8277 81.5294 48.7093C81.6931 48.6897 81.8862 48.6356 81.9845 48.7993C82.0827 48.963 81.9517 49.1103 81.847 49.2511C77.74 54.733 73.2354 59.8908 68.7896 65.0895C66.3889 67.8994 63.9461 70.6761 61.4614 73.4195C61.2715 73.6274 61.0652 73.8189 60.8721 74.0219C60.7575 74.1446 60.6429 74.0694 60.53 74.0333C58.4199 73.3488 56.3834 72.4555 54.4506 71.3669C53.6453 70.9118 52.8514 70.4421 52.0886 69.9183C51.8791 69.7758 51.7858 69.7857 51.6532 70.0034C51.19 70.7645 50.802 71.5682 50.2864 72.295C50.0512 72.667 49.7769 73.0127 49.468 73.3262C49.1013 73.6618 48.7821 73.6896 48.3664 73.4162C47.8115 73.0496 47.4448 72.4963 47.016 72.0053C46.708 71.637 46.4279 71.2464 46.1779 70.8365ZM50.1342 70.7269C50.18 70.7269 50.1964 70.7007 50.2013 70.6598C50.2118 70.6571 50.2218 70.6527 50.2308 70.6467C50.2308 70.6467 50.2308 70.6336 50.2308 70.6254L50.2029 70.6647C50.1588 70.6647 50.1407 70.6925 50.1358 70.7318L50.0655 70.7989C50.0398 70.8101 50.0191 70.8302 50.0071 70.8554C49.995 70.8807 49.9925 70.9094 50 70.9364C49.9672 70.9364 49.9378 70.9364 49.9656 70.9789L49.9967 70.9315C50.0605 70.9069 50.0687 70.8545 50.0622 70.7956C50.1129 70.7972 50.1342 70.7727 50.1342 70.7269ZM50.3372 70.4551L50.4059 70.3897L50.4763 70.3242C50.5015 70.3121 50.5215 70.2915 50.5329 70.266C50.5443 70.2406 50.5463 70.2119 50.5385 70.1851C50.5712 70.1851 50.5991 70.1932 50.5762 70.1458L50.5434 70.19C50.53 70.1945 50.5176 70.2018 50.5071 70.2112C50.4966 70.2207 50.488 70.2322 50.4821 70.2451C50.4761 70.2579 50.4728 70.2718 50.4724 70.286C50.4719 70.3002 50.4744 70.3143 50.4796 70.3275C50.4337 70.3275 50.4141 70.352 50.4092 70.3929L50.3404 70.4601C50.3241 70.4732 50.2619 70.4682 50.3192 70.5141L50.3372 70.4551ZM37.2226 69.6711C37.2422 69.6514 37.2782 69.6187 37.2766 69.6171C37.2406 69.5761 37.2111 69.6007 37.1816 69.6285C37.1522 69.6563 37.1309 69.6858 37.1342 69.6891C37.1702 69.7267 37.198 69.6956 37.2226 69.6711ZM49.7332 67.1438L49.7512 67.2436C49.7985 67.2504 49.8433 67.269 49.8817 67.2976C49.92 67.3261 49.9505 67.3639 49.9705 67.4073C49.9902 67.3844 50.0655 67.44 50.0409 67.3565L49.9722 67.4106C49.9591 67.224 49.8936 67.1765 49.7479 67.2469C49.7643 67.2272 49.8166 67.2469 49.8019 67.1912C49.7872 67.1356 49.7528 67.1634 49.7266 67.1536C49.7479 67.0881 49.7086 67.0816 49.6595 67.0848L49.6333 66.9882C49.5711 66.9882 49.5253 66.9015 49.4533 66.9555C49.4827 66.8426 49.3878 66.8409 49.3239 66.8115L49.2601 66.7656V66.818L49.3305 66.8C49.2781 66.9326 49.3878 66.9228 49.4598 66.9473C49.5073 67.0128 49.5449 67.1241 49.6366 66.9882C49.6235 67.0095 49.558 66.9981 49.5924 67.0472C49.6055 67.0652 49.6415 67.0685 49.6677 67.0783C49.6382 67.1405 49.6922 67.1388 49.7332 67.1356V67.1438ZM48.9507 66.561L49.0408 66.6167C49.0515 66.6464 49.0701 66.6726 49.0946 66.6925C49.1191 66.7124 49.1486 66.7252 49.1799 66.7296C49.1799 66.7296 49.2012 66.71 49.1995 66.7051C49.1903 66.6741 49.1713 66.647 49.1453 66.6278C49.1193 66.6086 49.0878 66.5984 49.0555 66.5987C49.0555 66.5496 49.0309 66.5332 48.9868 66.5316C48.9697 66.5105 48.9511 66.4908 48.9311 66.4726C48.8738 66.5119 48.9229 66.5332 48.9507 66.561ZM48.5186 66.1207L48.4973 66.1747L48.5841 66.1878C48.5726 66.3302 48.6938 66.3515 48.7821 66.399C48.7989 66.4187 48.817 66.4372 48.8362 66.4546C48.8967 66.4072 48.8362 66.3908 48.8116 66.3646C48.7363 66.304 48.6856 66.2091 48.5775 66.2009C48.5775 66.1534 48.5579 66.1305 48.5104 66.1322L48.4531 66.0831V66.1338L48.5186 66.1207ZM44.4264 61.5637C44.4493 61.5489 44.5148 61.598 44.4935 61.5195L44.4281 61.5669L44.4362 61.4949L44.4264 61.5637ZM44.3691 61.2919C44.3217 61.2919 44.2922 61.3083 44.3037 61.3623C44.3064 61.3666 44.31 61.3702 44.3143 61.373C44.3185 61.3758 44.3232 61.3778 44.3282 61.3787C44.3904 61.3705 44.361 61.323 44.3642 61.2903L44.2496 61.2477C44.251 61.2388 44.2505 61.2298 44.2482 61.2211C44.2458 61.2124 44.2416 61.2043 44.2359 61.1973C44.2302 61.1904 44.223 61.1847 44.215 61.1807C44.2069 61.1767 44.1981 61.1744 44.1891 61.1741L44.0123 60.94C43.9861 60.9171 43.9632 60.8582 43.9223 60.9056C43.8813 60.9531 43.9419 60.9662 43.973 60.9842L44.1482 61.2183C44.1809 61.2445 44.2038 61.3116 44.2562 61.2412C44.2562 61.2838 44.2562 61.3329 44.3053 61.3394C44.3217 61.3394 44.3446 61.305 44.3659 61.2887L44.3691 61.2919ZM35.9572 70.5075L36.08 70.4159C36.1471 70.3897 36.2601 70.3488 36.2093 70.2816C36.1389 70.1867 36.0751 70.3127 36.0113 70.352L35.9032 70.442C35.8787 70.4633 35.8181 70.4699 35.8558 70.5206C35.8934 70.5714 35.9212 70.5223 35.954 70.5042L35.9572 70.5075ZM53.421 69.9543L53.3359 69.9052C53.3065 69.8593 53.2475 69.8102 53.2148 69.8479C53.1477 69.9248 53.2541 69.9346 53.2885 69.9723L53.3654 70.0116L53.4751 70.0983C53.5323 70.1392 53.6076 70.2391 53.6567 70.172C53.7059 70.1049 53.6011 70.0672 53.5405 70.0377L53.421 69.9543ZM36.9803 69.7578L36.8559 69.8364L36.7708 69.8741C36.702 69.9199 36.6071 69.933 36.5694 70.1065L36.8182 69.9346L36.9017 69.8822L37.0212 69.7971L37.0801 69.7415C37.0359 69.6956 37.0065 69.7235 36.977 69.7546L36.9803 69.7578ZM37.7185 69.275L37.6039 69.365L37.5156 69.4108C37.4484 69.4485 37.3666 69.4681 37.3306 69.5827C37.3754 69.5792 37.4191 69.5665 37.4588 69.5453C37.4985 69.5242 37.5334 69.4951 37.5614 69.4599L37.6481 69.4092L37.7676 69.3273L37.8544 69.2848C37.892 69.2553 37.9788 69.239 37.928 69.1768C37.8773 69.1145 37.838 69.1882 37.8053 69.2275L37.7185 69.275ZM69.9649 62.1284C70.0287 62.0973 70.0926 62.0662 70.0156 61.986C70.0567 61.9823 70.0966 61.9705 70.1331 61.9512C70.1695 61.932 70.2018 61.9057 70.228 61.8738C70.2542 61.842 70.2738 61.8053 70.2857 61.7658C70.2976 61.7263 70.3015 61.6849 70.2972 61.6439C70.492 61.6586 70.492 61.4982 70.5133 61.3607C70.4429 61.4573 70.3741 61.5555 70.3037 61.6537C70.1892 61.7456 70.096 61.8612 70.0304 61.9925C69.9715 62.0253 69.9027 62.0531 69.9715 62.1366C69.9485 62.1366 69.9322 62.0793 69.9076 62.1267C69.8962 62.1464 69.9076 62.1758 69.9076 62.202C69.7996 62.1578 69.8029 62.2904 69.7439 62.315L69.7325 62.4034C69.7488 62.3919 69.7734 62.3837 69.7799 62.369C69.7996 62.3248 69.7587 62.3215 69.7308 62.3101C69.8814 62.4116 69.8716 62.2691 69.906 62.1955C69.9485 62.1955 69.9698 62.1726 69.9698 62.1251L69.9649 62.1284ZM37.545 51.2841L37.5614 51.2988L37.5417 51.2874L37.5286 51.1646C37.5139 51.1646 37.4861 51.1761 37.4845 51.1843C37.4803 51.2055 37.4842 51.2274 37.4954 51.2459C37.5066 51.2644 37.5243 51.278 37.545 51.2841ZM48.2813 66.0389C48.314 66.0389 48.3598 66.0585 48.368 66.0012C48.368 66.0012 48.3582 65.9799 48.35 65.9783C48.2976 65.9685 48.2829 65.9996 48.2829 66.0454C48.3435 65.9194 48.296 65.8703 48.1192 65.8817C48.1339 65.8572 48.2076 65.8523 48.1438 65.8048L48.1208 65.8817C48.1608 65.8875 48.1979 65.9058 48.2268 65.934C48.2556 65.9623 48.2747 65.999 48.2813 66.0389ZM43.4721 60.2689C43.4427 60.2263 43.4312 60.1674 43.3657 60.1609C43.3445 60.0888 43.3379 59.9972 43.225 60.0283L43.2102 59.9481L43.1628 59.9743L43.2299 60.025C43.2168 60.1036 43.2675 60.1445 43.3215 60.1887L43.4312 60.3033C43.4607 60.3687 43.4541 60.4751 43.5785 60.4326C43.5131 60.5128 43.5785 60.5423 43.6342 60.5734C43.668 60.6662 43.7291 60.7466 43.8093 60.8041C43.8306 60.832 43.8486 60.8909 43.8912 60.8451C43.9337 60.7992 43.8748 60.7861 43.8437 60.7714C43.8273 60.6667 43.734 60.6077 43.68 60.539L43.5703 60.4375C43.5769 60.354 43.5131 60.318 43.4721 60.2689ZM70.5853 61.2199C70.6017 61.2657 70.6278 61.3034 70.6786 61.2641C70.6933 61.2527 70.6884 61.2134 70.6933 61.1855L70.5902 61.2183L70.6197 61.3116L70.6557 61.269L70.5853 61.2199ZM53.9006 70.3782C53.935 70.3913 53.9743 70.4322 54.0054 70.3782C54.0365 70.3242 53.9808 70.316 53.9514 70.2964C53.881 70.2374 53.8237 70.1507 53.696 70.19C53.7271 70.3062 53.8237 70.3258 53.9006 70.3782ZM36.4336 70.0705C36.355 70.1147 36.2552 70.1376 36.229 70.2636C36.3566 70.2833 36.4188 70.2063 36.4876 70.1441C36.5171 70.1229 36.5743 70.1147 36.5383 70.0623C36.5023 70.0099 36.4663 70.0541 36.4336 70.0705ZM43.1071 59.8155C43.0842 59.84 43.0645 59.8646 43.1071 59.8908C43.1169 59.899 43.1415 59.8908 43.1595 59.8908L43.1055 59.8286C43.094 59.7156 42.9991 59.6649 42.9418 59.583C42.8567 59.4701 42.7994 59.3293 42.6226 59.313L42.909 59.6256C42.9434 59.7058 42.9631 59.8269 43.1055 59.8155H43.1071ZM37.2144 50.5426C37.211 50.5339 37.2066 50.5257 37.2013 50.518C37.2013 50.518 37.1898 50.518 37.1849 50.518L37.2193 50.5393C37.1996 50.6177 37.2062 50.7004 37.2382 50.7747C37.2701 50.8489 37.3256 50.9106 37.3961 50.9502C37.3855 50.7955 37.3178 50.6502 37.2062 50.5426H37.2144ZM56.5065 71.8219L56.4493 71.7712L56.4296 71.7908L56.5115 71.8154C56.6582 71.9489 56.85 72.022 57.0483 72.02C57.0664 72.0315 57.068 72.0838 57.1056 72.0429L57.0451 72.0249C56.8975 71.886 56.7009 71.8113 56.4984 71.817L56.5065 71.8219ZM49.45 37.6621C49.6677 37.613 49.7692 37.4984 49.6693 37.1906C49.5793 37.3969 49.5187 37.5311 49.4598 37.667L49.4172 37.7226C49.4271 37.7226 49.4402 37.7308 49.4483 37.7226C49.4565 37.7144 49.4811 37.685 49.45 37.6621ZM40.1575 44.0033C40.2377 44.0802 40.2786 44.0033 40.313 43.9542C40.4007 43.8339 40.4631 43.6969 40.4963 43.5517C40.5296 43.4065 40.5329 43.2561 40.5061 43.1096C40.3539 43.4369 40.3326 43.7529 40.1526 44.0115H40.1656L40.1575 44.0033ZM34.7198 39.0108C35.0701 38.7097 35.5038 38.5198 35.8836 38.1368C35.448 38.195 35.0517 38.419 34.7771 38.762C34.7247 38.8275 34.5986 38.8979 34.7198 39.0108C34.7138 38.9911 34.7062 38.9719 34.6969 38.9535C34.6969 38.9535 34.6854 38.9535 34.6789 38.9535L34.7198 39.0108ZM79.8222 49.7307C78.1509 49.6734 76.6548 49.2184 75.2144 48.5456C73.9441 47.9514 72.7951 47.1592 71.6296 46.3882C69.9491 45.2863 68.4194 43.9701 67.0791 42.4728C65.4259 40.6117 64.0869 38.5247 62.8151 36.3902C61.392 34.0244 60.1509 31.5538 59.1026 28.9997C58.8031 28.2615 58.8145 28.2599 58.1581 28.6724C58.1137 28.6926 58.0777 28.7277 58.0562 28.7716C58.0347 28.8155 58.0291 28.8654 58.0403 28.913C58.0959 29.4078 58.052 29.9087 57.911 30.3862C57.8871 30.4695 57.8851 30.5575 57.9052 30.6418C57.9253 30.7261 57.9667 30.8038 58.0256 30.8674C58.6639 31.7202 58.7572 32.668 58.4184 33.6501C58.385 33.7597 58.3277 33.8605 58.2507 33.9454C58.1738 34.0303 58.079 34.0972 57.9732 34.1411C57.3626 34.3932 56.7832 34.3605 56.2643 33.9202C55.5522 33.3162 55.3034 32.4077 55.7094 31.5663C55.9108 31.1292 55.9764 30.6417 55.8976 30.1668C55.8763 29.9786 55.8649 29.9 55.6488 30.0179C53.8352 31.0164 52.0166 32.0078 50.1931 32.9921C50.125 33.0156 50.0679 33.0632 50.0323 33.1259C49.9968 33.1885 49.9853 33.262 50 33.3325C50.1006 34.1391 50.1006 34.9551 50 35.7617C49.9891 35.8103 49.9891 35.8607 49.9998 35.9093C50.0105 35.958 50.0318 36.0037 50.0622 36.0432C50.3762 36.4464 50.5575 36.9371 50.5811 37.4476C50.6269 38.14 50.5663 38.839 50.0016 39.3055C49.157 40.0077 47.9162 39.7114 47.3712 38.7375C46.8605 37.8274 47.0667 36.9778 47.5987 36.1627C47.7228 36.0175 47.8059 35.8417 47.8393 35.6536C47.8598 35.3156 47.8598 34.9767 47.8393 34.6388C47.8262 34.3867 47.746 34.3998 47.5627 34.5144C45.2711 35.9352 42.9401 37.2741 40.7484 38.8439C40.6567 38.8919 40.5852 38.971 40.5468 39.0671C40.5084 39.1631 40.5056 39.2697 40.5389 39.3677C40.729 40.1594 40.7744 40.979 40.6731 41.787C40.6503 41.862 40.6561 41.9428 40.6893 42.0138C40.7226 42.0849 40.7809 42.1411 40.8531 42.1716C41.0273 42.2666 41.1791 42.3976 41.2985 42.556C41.4179 42.7144 41.5021 42.8964 41.5455 43.0899C41.7616 43.9542 41.5455 44.7268 40.9874 45.3963C40.6993 45.7482 40.2999 45.8186 39.8808 45.7237C38.4928 45.4094 37.7054 43.432 38.4911 42.2584C38.5531 42.18 38.584 42.0815 38.5779 41.9818C38.5446 41.429 38.4574 40.8807 38.3176 40.3449C38.2571 40.1321 38.1899 40.1075 38.0017 40.2074C37.0752 40.6985 36.2977 41.3827 35.5317 42.0833C35.4663 42.146 35.4228 42.228 35.4073 42.3173C35.3002 42.779 35.2572 43.2533 35.2796 43.7267C35.3958 45.3177 35.9343 46.786 36.6267 48.2002C38.5408 52.0985 40.8923 55.7664 43.6358 59.1329C45.9798 62.0351 48.5202 64.7425 51.3946 67.1274C53.7566 69.0916 56.2496 70.83 59.1632 71.8907C59.4458 72.0027 59.7393 72.085 60.0389 72.1362C60.1299 72.155 60.2243 72.1476 60.3112 72.1148C60.3981 72.0821 60.474 72.0254 60.53 71.9512C63.1806 68.8761 65.8362 65.8059 68.4966 62.7406C71.2848 59.5301 74.0767 56.3246 76.8725 53.124C77.8464 52.0109 78.8073 50.8978 79.8222 49.7307ZM42.1741 72.7091C42.3591 72.5242 42.5375 72.3523 42.7077 72.1722C43.4934 71.3341 44.2284 70.4437 45.1123 69.7038C45.3578 69.4992 45.3283 69.3764 45.1483 69.1522C41.9605 65.1808 39.345 60.7824 37.3781 56.0851C35.9311 52.6034 34.7001 49.0465 34.268 45.2817C34.1845 44.5517 34.0896 43.8085 34.1583 43.0883C34.1987 42.6023 34.3483 42.1317 34.5961 41.7117C34.8438 41.2916 35.1832 40.933 35.589 40.6624C36.2633 40.191 36.9459 39.7311 37.6219 39.2646C37.7005 39.2089 37.8642 39.168 37.7153 39.0239C37.6219 38.9355 37.5745 38.7866 37.3715 38.9224C36.4254 39.5543 35.4793 40.1861 34.5692 40.8703C34.2053 41.1249 33.9127 41.4684 33.7193 41.8681C33.5259 42.2678 33.4381 42.7105 33.4643 43.1538C33.474 43.8175 33.5237 44.48 33.6132 45.1377C33.9046 47.0888 34.1387 49.0498 34.4235 51.0026C35.0172 55.2019 36.1164 59.3141 37.6972 63.2496C38.9854 66.4951 40.4802 69.6548 42.1725 72.7091H42.1741ZM34.5152 70.6745C34.6117 70.627 34.6625 70.6057 34.7083 70.5795C35.9818 69.8495 37.1243 68.9263 38.3487 68.1242C38.5124 68.0146 38.4584 67.9164 38.4044 67.7887C38.1016 67.0865 37.7922 66.3859 37.4992 65.6788C35.7183 61.3918 34.4382 56.9657 33.8391 52.3563C33.443 49.3019 33.1991 46.2327 32.9912 43.1619C32.9159 42.0554 33.4005 41.1437 34.2336 40.4349C34.9885 39.8095 35.7812 39.2312 36.6071 38.7031C36.7358 38.6429 36.8482 38.5525 36.9345 38.4396C36.7871 38.3037 36.666 38.3332 36.5121 38.4396C35.6855 39.0256 34.8507 39.6001 34.0143 40.173C33.1778 40.7459 32.6295 41.4825 32.5771 42.5334C32.5509 42.9045 32.5509 43.277 32.5771 43.6481C32.7408 45.5796 32.9045 47.5144 33.1222 49.4394C33.4692 52.4528 33.7524 55.4696 33.903 58.4994C34.0503 61.4376 34.2091 64.3758 34.3597 67.314C34.4137 68.4172 34.4693 69.5205 34.5135 70.6745H34.5152ZM36.5973 51.6966C36.5776 51.8561 36.6122 52.0175 36.6955 52.1549C38.4482 56.7967 40.773 61.2017 43.6162 65.2679C44.8864 67.0783 46.3236 68.7577 47.6576 70.5157C47.9621 70.9167 48.2731 71.3112 48.589 71.7188C49.2306 70.83 49.9181 70.023 50.5958 69.2079C50.7382 69.036 50.7267 68.959 50.5483 68.8281C48.5487 67.3627 46.686 65.7191 44.983 63.9175C42.0941 60.8711 39.6307 57.4479 37.6596 53.741C37.3126 53.0732 36.9721 52.4037 36.5973 51.6966ZM33.9914 38.9126C34.2238 38.5607 34.3187 38.1466 34.6281 37.8438C35.7068 36.7765 37.7382 37.0744 38.4568 38.4183C38.8209 39.12 39.035 39.8898 39.0853 40.6788C39.1606 41.5889 38.9806 42.4794 38.8987 43.3715C38.8732 43.4942 38.8946 43.622 38.9585 43.7298C39.0224 43.8376 39.1242 43.9176 39.2441 43.9542C39.5436 44.054 39.6353 43.8232 39.7057 43.599C40.2855 41.8285 40.2439 39.9132 39.5878 38.1695C39.2922 37.4306 38.7612 36.8098 38.077 36.4033C37.2242 35.8566 35.4907 35.8075 34.764 36.6963C34.2434 37.3412 34.065 38.1106 33.9979 38.9126H33.9914ZM43.8879 31.4469C44.0256 31.4352 44.1553 31.3775 44.2562 31.2832C44.5635 31.0704 44.9284 30.9562 45.3022 30.9558C45.7788 30.9479 46.25 31.0584 46.6734 31.2776C47.0968 31.4967 47.4592 31.8175 47.728 32.2113C48.7101 33.6223 48.7674 35.1855 48.3582 36.7945C48.3248 36.8903 48.3147 36.9926 48.3286 37.0931C48.3426 37.1936 48.3802 37.2893 48.4384 37.3723C48.6266 37.626 48.7658 37.6342 48.9573 37.3723C49.0865 37.187 49.1834 36.9811 49.2437 36.7634C49.6489 35.3679 49.6358 33.8842 49.2061 32.4961C49.0511 31.9458 48.7633 31.442 48.368 31.029C47.9727 30.616 47.482 30.3064 46.939 30.1275C46.6389 30.012 46.3164 29.9666 45.996 29.995C45.6757 30.0234 45.3661 30.1247 45.091 30.2912C44.6179 30.5777 44.2595 30.9853 43.8944 31.4469H43.8879ZM52.5748 27.173C52.7172 27.1059 52.8269 27.0519 52.9382 27.0011C53.7042 26.6541 54.4654 26.5379 55.22 27.0355C55.6631 27.3514 56.0081 27.786 56.2152 28.2893C56.6866 29.3058 56.6326 30.3665 56.4247 31.4321C56.4051 31.5369 56.3068 31.6367 56.4051 31.7497C56.5033 31.8626 56.5196 32.005 56.7013 31.9756C56.8022 31.9694 56.899 31.9332 56.9792 31.8717C57.0594 31.8101 57.1194 31.726 57.1515 31.6302C57.6425 30.2781 57.69 28.9179 57.1515 27.5757C56.6931 26.4298 55.9778 25.5607 54.6274 25.4281C54.1255 25.3918 53.6295 25.5545 53.2466 25.881C52.8637 26.2076 52.6247 26.6717 52.5813 27.173H52.5748ZM40.0052 37.649C40.1149 37.5769 40.218 37.5082 40.3195 37.4378C42.5106 35.8791 44.7807 34.4346 47.1207 33.1099C47.2468 33.0395 47.4203 33.0101 47.2844 32.7694C47.1485 32.5288 47.0389 32.632 46.8932 32.722C45.1679 33.8023 43.4378 34.8761 41.7174 35.963C41.0987 36.3526 40.5028 36.7814 39.8956 37.1857C39.8104 37.243 39.7024 37.2938 39.799 37.4149C39.871 37.4967 39.871 37.6342 40.0118 37.649H40.0052ZM46.6886 32.1C46.6657 31.9968 46.5724 31.951 46.4971 31.8954C46.4485 31.8411 46.3813 31.807 46.3088 31.8001C46.2363 31.7931 46.1639 31.8137 46.1059 31.8577C45.4838 32.2844 44.8558 32.7023 44.2218 33.1116C42.5762 34.1755 40.9535 35.2739 39.3538 36.4066C39.2899 36.4524 39.1672 36.477 39.2048 36.5883C39.2357 36.6623 39.2945 36.7211 39.3685 36.752C39.4749 36.7912 39.5436 36.6832 39.6222 36.6292C41.8893 35.0791 44.2054 33.6026 46.5806 32.2293C46.6428 32.1965 46.6542 32.1474 46.6951 32.1H46.6886ZM54.7093 27.7917C54.2182 27.4283 54.1347 27.4202 53.6551 27.669C53.056 27.9783 52.4536 28.2811 51.8546 28.5971C50.8135 29.1536 49.7768 29.715 48.7445 30.2814C48.6741 30.3207 48.5497 30.3289 48.5546 30.4451C48.5546 30.5875 48.9687 30.7921 49.0964 30.7201C50.9232 29.679 52.7908 28.7182 54.7142 27.7917H54.7093ZM55.3427 28.489C55.2871 28.3122 55.197 28.273 55.0154 28.3581C53.1493 29.2551 51.3078 30.1979 49.5024 31.2111C49.3469 31.2979 49.3239 31.365 49.4205 31.5107C49.5171 31.6564 49.5384 31.7579 49.7479 31.6433C51.5637 30.6284 53.3834 29.619 55.2069 28.6151C55.2576 28.5856 55.346 28.5856 55.3476 28.489H55.3427ZM57.6065 31.3945C57.3823 31.8495 57.1826 32.2489 56.9698 32.6778C57.5345 32.5763 57.7817 32.0852 57.6114 31.3945H57.6065ZM41.3802 57.4977L41.2967 57.5599L42.2936 58.9087L42.3672 58.853L41.3802 57.4977ZM44.2709 32.3864L45.3742 31.6367C45.1443 31.6661 44.9245 31.7493 44.7328 31.8796C44.5411 32.0098 44.3829 32.1835 44.2709 32.3864ZM54.4932 25.2562C55.1168 25.1989 55.6521 25.4461 56.1743 25.7473C55.8109 25.3119 55.1217 25.1056 54.4932 25.2562ZM40.7647 44.2439C40.6011 44.4387 40.3768 44.5238 40.1558 44.6515C40.5569 44.7988 40.6796 44.7202 40.7647 44.2505V44.2439ZM56.1039 30.851H56.1955C56.2658 30.4948 56.234 30.126 56.1039 29.7871V30.851ZM49.1128 38.2431C49.2388 38.3675 49.3845 38.4658 49.5367 38.415C49.653 38.3757 49.671 38.2153 49.689 38.0713L49.1128 38.2431ZM35.8214 37.649C36.0882 37.5917 36.3566 37.8126 36.6677 37.6391C36.3534 37.5442 36.0882 37.4853 35.8214 37.6408V37.649ZM36.0391 48.156C35.9278 47.8418 35.8427 47.516 35.6233 47.2509C35.733 47.5569 35.8165 47.8843 36.0391 48.1479V48.156ZM59.3596 73.3115C59.1013 73.0742 58.77 72.9316 58.42 72.9072L59.3596 73.3115ZM35.6348 35.8991C35.8377 35.9145 36.0414 35.8814 36.229 35.8026C36.0257 35.7736 35.8184 35.8073 35.6348 35.8991ZM42.3574 58.9348C42.4229 59.0462 42.4605 59.1853 42.6586 59.2458C42.5522 59.0887 42.5064 58.9643 42.3574 58.9348ZM37.7087 35.8893C37.676 35.8352 37.6251 35.7945 37.5651 35.7744C37.5052 35.7543 37.44 35.7562 37.3813 35.7797C37.4795 35.8779 37.5614 35.9515 37.7087 35.8893ZM56.2054 25.8111C56.2381 25.8358 56.2746 25.8552 56.3134 25.8684C56.3396 25.8684 56.3674 25.8373 56.333 25.8078C56.3001 25.7867 56.2656 25.7681 56.2299 25.7522L56.2054 25.8111ZM36.8903 35.67C36.9721 35.6978 37.054 35.76 37.1325 35.6602C37.098 35.6325 37.0546 35.6182 37.0104 35.62C36.9661 35.6218 36.9241 35.6396 36.8919 35.67H36.8903ZM36.6104 51.6655C36.5842 51.6229 36.6005 51.5591 36.5351 51.5689C36.5214 51.5731 36.5089 51.5805 36.4987 51.5905C36.4884 51.6004 36.4807 51.6127 36.4761 51.6262C36.463 51.6786 36.5089 51.7015 36.5514 51.7081C36.5678 51.7146 36.5973 51.6835 36.6104 51.6655ZM37.3584 35.7371C37.3297 35.7189 37.2989 35.7041 37.2667 35.6929C37.252 35.6929 37.234 35.7076 37.2176 35.7158C37.2324 35.7355 37.2455 35.7666 37.2618 35.7682C37.2782 35.7698 37.3142 35.7567 37.3584 35.7404V35.7371ZM35.5366 35.9515L35.5628 35.9352C35.5546 35.9352 35.5431 35.9172 35.5382 35.9188C35.5268 35.9255 35.5163 35.9338 35.5071 35.9433L35.5366 35.9515ZM69.6915 62.4852C69.6785 62.4721 69.6588 62.4459 69.6555 62.4476C69.633 62.4622 69.6121 62.4792 69.5933 62.4983C69.6097 62.5065 69.6293 62.5245 69.6457 62.5229C69.6621 62.5212 69.6768 62.5032 69.6915 62.4885V62.4852ZM44.6278 61.634C44.6294 61.6421 44.6294 61.6505 44.6278 61.6586H44.6098C44.609 61.6504 44.609 61.6422 44.6098 61.634H44.6278ZM50.1931 67.4728C50.1833 67.458 50.1751 67.4286 50.1637 67.4269C50.1522 67.4253 50.0916 67.4155 50.1227 67.4711C50.1326 67.4891 50.1473 67.5055 50.1588 67.5235L50.1931 67.4728ZM37.9166 35.9712C37.9166 35.9712 37.8953 35.9875 37.8969 35.9924C37.9018 36.0079 37.9084 36.0227 37.9166 36.0366C37.9166 36.0366 37.9379 36.0219 37.9379 36.0154C37.9325 36.0009 37.9254 35.9871 37.9166 35.9744V35.9712ZM37.4533 51.068L37.4779 51.0451C37.4638 51.0357 37.4484 51.0285 37.4321 51.0238C37.4321 51.0238 37.4173 51.0369 37.4108 51.0451L37.4533 51.068ZM37.7578 35.9253L37.7824 35.9695C37.7824 35.9695 37.8053 35.9532 37.8036 35.9466C37.7986 35.931 37.7914 35.9161 37.7824 35.9024L37.7578 35.9253ZM54.1265 70.4142L54.1036 70.3897C54.0946 70.4034 54.0874 70.4182 54.0823 70.4339C54.0823 70.4339 54.0954 70.4486 54.102 70.4568L54.1265 70.4142ZM35.7936 70.5566L35.7706 70.5304L35.7445 70.5534L35.7805 70.5795L35.7936 70.5566Z" fill="#070606"/>
<path d="M81.7979 37.8912C82.2709 37.8912 82.5525 38.1957 82.5508 38.69C82.5508 39.2089 82.2349 39.6034 81.8159 39.6067C81.3968 39.6099 80.8616 38.9912 80.8747 38.492C80.8845 38.1728 81.3281 37.8847 81.7979 37.8912Z" fill="#F8F2EA"/>
<path d="M80.8419 37.5605C80.0071 38.3446 80.4474 39.0681 80.8239 39.862C80.6143 39.7751 80.4325 39.6325 80.2983 39.4495C80.1641 39.2665 80.0826 39.0503 80.0628 38.8242C80.0104 38.4068 80.3541 37.8159 80.8419 37.5605Z" fill="#F8F2EA"/>
<path d="M80.9735 37.4788C80.9312 37.5471 80.8856 37.6106 80.7928 37.5927C80.814 37.4755 80.8987 37.482 80.9735 37.4788Z" fill="#F8F2EA"/>
<path d="M21.6412 58.8988C21.6314 59.2262 21.286 59.7565 21.083 59.763C20.8801 59.7696 20.5494 59.2491 20.5674 58.8922C20.5821 58.5812 20.7949 58.4012 21.1387 58.4126C21.4824 58.4241 21.6527 58.5681 21.6412 58.8988Z" fill="#F8F2EA"/>
<path d="M20.4233 58.0803C20.273 58.3153 20.1753 58.5799 20.1369 58.8562C20.1172 59.1099 20.2564 59.3473 20.2187 59.6501C19.7178 58.8677 19.767 58.3946 20.4233 58.0803Z" fill="#F8F2EA"/>
<path d="M20.4695 58.0863L20.4584 58.1053L20.4283 58.0863C20.4283 58.0863 20.4425 58.0688 20.4489 58.0688C20.4552 58.0688 20.4631 58.0799 20.4695 58.0863Z" fill="#F8F2EA"/>
<path d="M35.3974 20.8661C35.3974 21.3277 35.2698 21.5029 34.9391 21.4947C34.7519 21.4889 34.574 21.4114 34.4421 21.2783C34.3102 21.1453 34.2344 20.9667 34.2303 20.7794C34.2425 20.6208 34.3156 20.473 34.4343 20.3671C34.553 20.2612 34.7081 20.2054 34.8671 20.2114C35.2485 20.2081 35.3974 20.3914 35.3974 20.8661Z" fill="#F8F2EA"/>
<path d="M33.9456 20.1589C33.9652 20.1802 33.9996 20.1884 33.9816 20.2359C33.6951 21.0281 33.7819 21.3637 34.4186 21.9235C34.0209 21.8531 33.574 21.3882 33.4758 20.9414C33.389 20.5354 33.6706 20.3537 33.9488 20.172L33.9456 20.1589Z" fill="#F8F2EA"/>
<path d="M33.9488 20.1701L34.0034 20.1541L33.9825 20.1942L33.9456 20.1605C33.9469 20.1636 33.9479 20.1668 33.9488 20.1701Z" fill="#F8F2EA"/>
<path d="M24.838 52.3088C24.9706 52.371 25.2145 52.3285 25.2145 52.6067C25.2145 52.8539 24.9231 53.2353 24.7365 53.2435C24.5876 53.2435 24.3551 52.9259 24.3502 52.7066C24.3453 52.4873 24.5712 52.3088 24.838 52.3088Z" fill="#F8F2EA"/>
<path d="M53.5494 76.2845C53.5248 76.409 53.5281 76.5991 53.3429 76.6663C53.2315 76.7056 52.8972 76.3287 52.9218 76.1927C52.9312 76.1141 52.9678 76.0412 53.0253 75.9868C53.0827 75.9323 53.1574 75.8996 53.2364 75.8945C53.4069 75.8814 53.556 76.0632 53.5494 76.2845Z" fill="#F8F2EA"/>
<path d="M44.1056 25.459C44.081 25.7864 43.8404 26.0368 43.5982 26.0155C43.4067 25.9992 43.1579 25.7291 43.1791 25.5572C43.2004 25.3854 43.5556 25.0956 43.757 25.112C43.9845 25.1316 44.1547 25.2118 44.1056 25.459Z" fill="#F8F2EA"/>
<path d="M47.4224 80.8529C47.4044 80.8955 47.4699 81.0987 47.2749 81.0872C47.0799 81.0758 46.9849 80.8922 46.957 80.7038C46.9357 80.5645 47.0062 80.4859 47.1504 80.499C47.3225 80.5121 47.4699 80.5596 47.4224 80.8529Z" fill="#F8F2EA"/>
<path d="M79.8222 49.7306C78.8073 50.8977 77.8416 52.0108 76.8758 53.1239C74.0833 56.3289 71.2914 59.5344 68.4999 62.7405C65.8384 65.8047 63.1828 68.8749 60.5333 71.9512C60.4773 72.0253 60.4015 72.082 60.3145 72.1147C60.2276 72.1475 60.1332 72.1549 60.0422 72.1361C59.7426 72.0849 59.4491 72.0026 59.1665 71.8906C56.2529 70.8299 53.7648 69.0883 51.3979 67.1273C48.5236 64.7424 45.9831 62.035 43.6391 59.1328C40.8953 55.7648 38.5438 52.0953 36.63 48.1952C35.9426 46.781 35.3991 45.3127 35.2829 43.7217C35.2606 43.2483 35.3035 42.774 35.4106 42.3123C35.4261 42.2231 35.4697 42.141 35.535 42.0783C36.301 41.3777 37.0786 40.6951 38.005 40.2024C38.1933 40.1026 38.2604 40.1271 38.3209 40.3399C38.4607 40.8758 38.5479 41.424 38.5812 41.9768C38.5873 42.0765 38.5564 42.175 38.4944 42.2534C37.7087 43.4336 38.4944 45.4044 39.8842 45.7187C40.3032 45.8136 40.7026 45.7432 40.9907 45.3913C41.5439 44.7153 41.7649 43.9492 41.5489 43.0849C41.5045 42.892 41.4195 42.7107 41.2995 42.5532C41.1795 42.3957 41.0274 42.2656 40.8532 42.1716C40.7821 42.1414 40.7244 42.0864 40.691 42.0168C40.6576 41.9472 40.6506 41.8678 40.6715 41.7934C40.7728 40.9855 40.7274 40.1659 40.5373 39.3741C40.504 39.2762 40.5068 39.1696 40.5452 39.0735C40.5837 38.9775 40.6551 38.8983 40.7468 38.8503C42.9386 37.2806 45.276 35.9416 47.5611 34.5208C47.7444 34.4062 47.8246 34.3931 47.8377 34.6452C47.8582 34.9832 47.8582 35.3221 47.8377 35.6601C47.8043 35.8482 47.7212 36.0239 47.5971 36.1691C47.0651 36.9876 46.8589 37.8338 47.3696 38.7439C47.9146 39.7261 49.1554 40.0142 50 39.3119C50.5647 38.8454 50.6253 38.1465 50.5795 37.4541C50.5559 36.9436 50.3746 36.4529 50.0606 36.0497C50.0302 36.0101 50.009 35.9644 49.9982 35.9158C49.9875 35.8671 49.9875 35.8167 49.9984 35.7681C50.0991 34.9615 50.0991 34.1456 49.9984 33.339C49.9837 33.2685 49.9952 33.195 50.0307 33.1323C50.0663 33.0697 50.1234 33.0221 50.1915 32.9985C52.0128 32.0164 53.8314 31.025 55.6472 30.0243C55.8633 29.9065 55.8748 29.985 55.896 30.1733C55.9748 30.6481 55.9092 31.1357 55.7078 31.5728C55.3018 32.4142 55.5441 33.3226 56.2627 33.9266C56.7816 34.367 57.361 34.3997 57.9716 34.1476C58.0774 34.1036 58.1722 34.0368 58.2492 33.9519C58.3261 33.867 58.3834 33.7662 58.4168 33.6565C58.7556 32.663 58.6623 31.7218 58.024 30.8739C57.9651 30.8103 57.9237 30.7326 57.9036 30.6483C57.8835 30.564 57.8855 30.4759 57.9094 30.3926C58.0504 29.9151 58.0943 29.4142 58.0387 28.9194C58.0272 28.8715 58.0328 28.821 58.0546 28.7767C58.0765 28.7325 58.1131 28.6972 58.1582 28.6772C58.8129 28.2663 58.8031 28.268 59.1027 29.0046C60.1509 31.5586 61.392 34.0292 62.8151 36.395C64.0869 38.523 65.4259 40.6165 67.0791 42.4777C68.4187 43.973 69.9473 45.2875 71.6264 46.3881C72.7918 47.1591 73.9409 47.9514 75.2111 48.5455C76.6548 49.2183 78.1509 49.6733 79.8222 49.7306ZM50.5222 54.5201C50.5502 55.3928 50.8425 56.2364 51.3603 56.9394C52.0044 57.7538 52.7162 58.5121 53.4882 59.2065C55.4524 61.0447 57.5427 62.7159 59.9964 63.8781C60.3614 64.05 60.4433 64.0205 60.6741 63.6702C61.5491 62.291 62.4994 60.9609 63.5206 59.6861C65.331 57.4943 67.2854 55.4384 69.2496 53.3907C69.6343 52.9896 69.6801 52.5935 69.3167 52.1941C68.6178 51.4281 67.9516 50.626 67.1544 49.9598C65.876 48.8893 64.8219 47.6191 63.8103 46.3063C63.4829 45.8791 63.2063 45.4077 62.7332 45.1065C61.8084 44.5188 60.8689 44.6154 59.9293 45.041C58.5679 45.6969 57.2869 46.5082 56.1121 47.4587C55.9255 47.6043 55.8224 47.6223 55.6423 47.4488C54.8376 46.6396 54.1683 45.7061 53.6601 44.6842C53.6114 44.5952 53.5908 44.4936 53.6011 44.3928C53.7501 42.8198 53.2067 41.9489 51.7449 41.3842C51.4175 41.2582 51.0722 41.1862 50.7939 40.9603C50.7489 40.9094 50.688 40.8753 50.6212 40.8634C50.5543 40.8515 50.4854 40.8626 50.4256 40.8948C50.3528 40.9256 50.2913 40.9782 50.2494 41.0453C50.2075 41.1123 50.1873 41.1907 50.1915 41.2696C50.1735 41.9691 50.2014 42.669 50.275 43.3648C50.3634 44.0196 50.5484 44.6334 51.0934 45.0966C51.3554 45.3209 51.7728 45.3405 51.9283 45.6057C52.0838 45.8709 52.0919 46.2605 52.2556 46.5518C52.7035 47.4001 53.2425 48.197 53.863 48.9286C54.1577 49.2559 54.1495 49.2559 53.8156 49.5669C52.6878 50.6293 51.6238 51.744 50.8823 53.1271C50.6423 53.5518 50.5186 54.0323 50.5238 54.5201H50.5222Z" fill="#F8F2EA"/>
<path d="M42.1725 72.7089C40.4778 69.6537 38.9808 66.493 37.6907 63.2462C36.1098 59.3107 35.0106 55.1985 34.417 50.9991C34.142 49.0463 33.9046 47.0821 33.6133 45.1342C33.5237 44.4765 33.474 43.814 33.4643 43.1503C33.4382 42.7084 33.5254 42.2672 33.7176 41.8684C33.9098 41.4697 34.2007 41.1266 34.5626 40.8718C35.4727 40.1876 36.4188 39.5623 37.365 38.9239C37.5679 38.788 37.6154 38.937 37.7087 39.0254C37.8577 39.1694 37.694 39.2104 37.6154 39.266C36.9394 39.7325 36.2568 40.1925 35.5824 40.6639C35.1767 40.9344 34.8372 41.2931 34.5895 41.7131C34.3418 42.1332 34.1922 42.6038 34.1518 43.0897C34.083 43.8149 34.178 44.5531 34.2615 45.2831C34.7001 49.0578 35.9311 52.6098 37.3715 56.0865C39.3385 60.7814 41.9534 65.1777 45.1401 69.1471C45.3202 69.3746 45.3496 69.4941 45.1041 69.6987C44.2202 70.4386 43.4852 71.3356 42.6995 72.1671C42.5358 72.3521 42.3574 72.524 42.1725 72.7089Z" fill="#F8F2EA"/>
<path d="M34.5135 70.6743C34.4612 69.5203 34.4137 68.4171 34.3499 67.3155C34.1993 64.3773 34.0405 61.4391 33.8932 58.5009C33.7426 55.4711 33.4594 52.4543 33.1124 49.4408C32.8914 47.5159 32.7375 45.5811 32.5673 43.6496C32.5411 43.2785 32.5411 42.906 32.5673 42.5349C32.6197 41.4905 33.1713 40.7474 34.0045 40.1745C34.8376 39.6016 35.6757 39.0287 36.5023 38.441C36.6562 38.3314 36.7773 38.3019 36.9247 38.441C36.8384 38.554 36.726 38.6444 36.5973 38.7046C35.7714 39.2326 34.9787 39.811 34.2238 40.4364C33.3907 41.1451 32.9061 42.0569 32.9814 43.1634C33.1893 46.2342 33.4332 49.3033 33.8293 52.3577C34.4284 56.9672 35.7085 61.3933 37.4894 65.6802C37.7824 66.3874 38.0917 67.0879 38.3946 67.7902C38.4486 67.9178 38.5075 68.016 38.3389 68.1257C37.1145 68.9294 35.972 69.8526 34.6985 70.581C34.6609 70.6056 34.6101 70.6269 34.5135 70.6743Z" fill="#F8F2EA"/>
<path d="M36.5973 51.6965C36.9656 52.4037 37.306 53.0731 37.6596 53.7344C39.6307 57.4413 42.0941 60.8645 44.983 63.9109C46.686 65.7125 48.5487 67.3561 50.5483 68.8215C50.7267 68.9524 50.7382 69.0294 50.5958 69.2012C49.9181 70.0197 49.2306 70.8234 48.589 71.7122C48.2731 71.3046 47.9621 70.9101 47.6576 70.5091C46.3236 68.7511 44.8864 67.0717 43.6162 65.2613C40.7759 61.1973 38.4533 56.7951 36.702 52.1565C36.6161 52.0194 36.5792 51.8573 36.5973 51.6965Z" fill="#F8F2EA"/>
<path d="M33.9979 38.9126C34.065 38.1106 34.2435 37.3412 34.7705 36.6963C35.4973 35.8075 37.2258 35.8566 38.0836 36.4033C38.7677 36.8098 39.2988 37.4306 39.5944 38.1695C40.2505 39.9132 40.2921 41.8285 39.7122 43.599C39.6419 43.8233 39.5486 44.0541 39.2506 43.9542C39.1308 43.9176 39.0289 43.8376 38.965 43.7298C38.9011 43.622 38.8798 43.4942 38.9053 43.3715C38.9871 42.4761 39.1672 41.5889 39.0919 40.6788C39.0415 39.8899 38.8275 39.12 38.4633 38.4183C37.7365 37.0744 35.7134 36.7814 34.6347 37.8438C34.3286 38.1466 34.2304 38.5607 33.9979 38.9126Z" fill="#F8F2EA"/>
<path d="M43.8945 31.4468C44.2595 30.9852 44.6098 30.5777 45.0927 30.301C45.3678 30.1345 45.6774 30.0332 45.9977 30.0048C46.318 29.9764 46.6406 30.0218 46.9407 30.1373C47.4823 30.317 47.9715 30.6267 48.3656 31.0394C48.7597 31.452 49.0466 31.955 49.2012 32.5043C49.6309 33.8924 49.644 35.3761 49.2389 36.7716C49.1785 36.9893 49.0816 37.1952 48.9524 37.3805C48.7674 37.6408 48.625 37.6326 48.4335 37.3805C48.3753 37.2974 48.3377 37.2017 48.3238 37.1013C48.3098 37.0008 48.3199 36.8985 48.3533 36.8027C48.7625 35.1871 48.6987 33.6239 47.7231 32.2194C47.4555 31.8252 47.0943 31.5035 46.6717 31.2832C46.2492 31.063 45.7786 30.951 45.3022 30.9574C44.9284 30.9579 44.5636 31.072 44.2562 31.2848C44.1568 31.3772 44.0296 31.4342 43.8945 31.4468Z" fill="#F8F2EA"/>
<path d="M52.5814 27.1729C52.6248 26.67 52.8649 26.2046 53.2496 25.8779C53.6343 25.5511 54.1324 25.3894 54.6356 25.428C55.9861 25.5605 56.7014 26.4314 57.1597 27.5755C57.6966 28.9178 57.6508 30.278 57.1597 31.6301C57.1276 31.7259 57.0676 31.81 56.9874 31.8715C56.9072 31.9331 56.8104 31.9693 56.7096 31.9754C56.5279 32.0049 56.4968 31.8445 56.4133 31.7496C56.3298 31.6546 56.4133 31.5368 56.4329 31.432C56.6408 30.3664 56.6948 29.3041 56.2234 28.2892C56.0163 27.7859 55.6713 27.3513 55.2282 27.0354C54.4736 26.5443 53.7124 26.654 52.9464 27.001C52.8334 27.0517 52.7238 27.1123 52.5814 27.1729Z" fill="#F8F2EA"/>
<path d="M40.0118 37.6488C39.876 37.6341 39.8694 37.4966 39.8056 37.4148C39.709 37.2937 39.817 37.2429 39.9021 37.1856C40.5094 36.778 41.1052 36.3524 41.724 35.9629C43.4443 34.876 45.1745 33.8022 46.8998 32.7219C47.0455 32.6318 47.1568 32.532 47.291 32.7693C47.4252 33.0067 47.2533 33.0394 47.1273 33.1098C44.7873 34.4344 42.5172 35.879 40.3261 37.4377C40.2246 37.5081 40.1215 37.5768 40.0118 37.6488Z" fill="#F8F2EA"/>
<path d="M46.6951 32.0998C46.6542 32.1473 46.6428 32.1964 46.5855 32.2291C44.2071 33.6025 41.8942 35.0789 39.6271 36.6291C39.5486 36.6831 39.4798 36.7927 39.3734 36.7518C39.2994 36.7209 39.2406 36.6621 39.2097 36.5881C39.1721 36.4768 39.2948 36.4523 39.3587 36.4064C40.9552 35.2704 42.5779 34.1721 44.2267 33.1114C44.8608 32.7022 45.4888 32.2842 46.1108 31.8576C46.1688 31.8135 46.2412 31.7929 46.3137 31.7999C46.3862 31.8069 46.4535 31.8409 46.502 31.8952C46.5822 31.9509 46.6722 31.9967 46.6951 32.0998Z" fill="#F8F2EA"/>
<path d="M54.7142 27.7917C52.7909 28.7181 50.9232 29.679 49.0981 30.7184C48.9704 30.7904 48.5628 30.5858 48.5563 30.4434C48.5563 30.3288 48.6758 30.3206 48.7462 30.2797C49.7839 29.7145 50.8206 29.153 51.8562 28.5954C52.452 28.2795 53.0544 27.9766 53.6568 27.6673C54.1396 27.4201 54.2231 27.4283 54.7142 27.7917Z" fill="#F8F2EA"/>
<path d="M55.3477 28.4891C55.3477 28.5807 55.2626 28.5856 55.2085 28.6151C53.3883 29.6234 51.5687 30.6328 49.7496 31.6433C49.545 31.7579 49.5106 31.6351 49.4222 31.5107C49.3338 31.3863 49.3485 31.2979 49.504 31.2112C51.3046 30.198 53.151 29.2551 55.017 28.3581C55.202 28.273 55.292 28.3123 55.3477 28.4891Z" fill="#F8F2EA"/>
<path d="M57.6115 31.3945C57.7752 32.0853 57.5345 32.5764 56.9747 32.6778C57.1875 32.249 57.3856 31.8496 57.6115 31.3945Z" fill="#F8F2EA"/>
<path d="M34.7215 39.0108C34.5987 38.8979 34.7215 38.8275 34.7771 38.762C35.0517 38.4189 35.4481 38.195 35.8836 38.1367C35.5039 38.5148 35.0652 38.7096 34.7198 39.0108H34.7215Z" fill="#F8F2EA"/>
<path d="M41.3802 57.4976L42.3624 58.8529L42.2887 58.9085L41.2968 57.5581L41.3802 57.4976Z" fill="#F8F2EA"/>
<path d="M44.2709 32.3864C44.3829 32.1835 44.5412 32.0098 44.7329 31.8795C44.9246 31.7493 45.1443 31.6661 45.3742 31.6367L44.2709 32.3864Z" fill="#F8F2EA"/>
<path d="M54.4932 25.2562C55.1218 25.1056 55.8109 25.3053 56.1743 25.7473C55.6521 25.4461 55.1169 25.1989 54.4932 25.2562Z" fill="#F8F2EA"/>
<path d="M40.7655 44.2505C40.6802 44.7208 40.5573 44.7994 40.1559 44.6585C40.3771 44.5307 40.6081 44.4455 40.7655 44.2505Z" fill="#F8F2EA"/>
<path d="M56.1039 30.8576V29.7854C56.234 30.1244 56.2658 30.4932 56.1955 30.8494L56.1039 30.8576Z" fill="#F8F2EA"/>
<path d="M49.1128 38.2432L49.6896 38.0793C49.6716 38.2235 49.6535 38.3841 49.5372 38.4235C49.3848 38.4579 49.239 38.3596 49.1128 38.2432Z" fill="#F8F2EA"/>
<path d="M40.1526 44.0115C40.3326 43.7529 40.3539 43.4288 40.5062 43.1096C40.5329 43.2561 40.5296 43.4066 40.4964 43.5518C40.4632 43.697 40.4008 43.8339 40.313 43.9542C40.2786 44.0034 40.2377 44.0803 40.1575 44.0034L40.1526 44.0115Z" fill="#F8F2EA"/>
<path d="M35.8214 37.6407C36.0885 37.485 36.354 37.544 36.6686 37.6309C36.3572 37.8079 36.0885 37.5883 35.8214 37.6407Z" fill="#F8F2EA"/>
<path d="M36.0391 48.1479C35.8165 47.8843 35.733 47.557 35.6234 47.2427C35.8427 47.5078 35.9278 47.8336 36.0391 48.1479Z" fill="#F8F2EA"/>
<path d="M59.3596 73.3115L58.42 72.9072C58.77 72.9317 59.1013 73.0742 59.3596 73.3115Z" fill="#F8F2EA"/>
<path d="M49.4598 37.6675C49.5188 37.5315 49.5795 37.3971 49.6696 37.1907C49.7695 37.502 49.6696 37.6134 49.45 37.6626L49.4598 37.6675Z" fill="#F8F2EA"/>
<path d="M35.6348 35.8993C35.8187 35.8073 36.0262 35.7736 36.2297 35.8026C36.0418 35.8815 35.838 35.9147 35.6348 35.8993Z" fill="#787878"/>
<path d="M57.0408 72.0151C56.8422 72.0171 56.6502 71.944 56.5033 71.8103C56.7026 71.8054 56.8959 71.8783 57.0424 72.0135L57.0408 72.0151Z" fill="#787878"/>
<path d="M42.893 59.6194L42.6063 59.3064C42.7832 59.3228 42.8406 59.4703 42.9258 59.5768C42.9143 59.5915 42.9029 59.6046 42.893 59.6194Z" fill="#F8F2EA"/>
<path d="M70.0337 61.988C70.1033 61.8568 70.1999 61.7417 70.3172 61.6505V61.6406C70.3215 61.6817 70.3176 61.7232 70.3057 61.7627C70.2938 61.8022 70.2741 61.839 70.2479 61.8708C70.2217 61.9027 70.1894 61.929 70.1529 61.9483C70.1164 61.9676 70.0764 61.9794 70.0353 61.9831L70.0337 61.988Z" fill="#F8F2EA"/>
<path d="M42.3574 58.9348C42.5065 58.9643 42.5524 59.0888 42.6589 59.2462C42.4607 59.1855 42.423 59.0462 42.3574 58.9348Z" fill="#F8F2EA"/>
<path d="M37.2062 50.5424C37.3142 50.6506 37.3789 50.7946 37.3881 50.9472C37.3176 50.9075 37.262 50.8458 37.23 50.7715C37.1981 50.6971 37.1914 50.6144 37.2111 50.5359L37.2062 50.5424Z" fill="#787878"/>
<path d="M70.3169 61.6507C70.3873 61.5524 70.4561 61.4541 70.5266 61.3574C70.5053 61.4951 70.5053 61.6557 70.3103 61.6409L70.3169 61.6507Z" fill="#F8F2EA"/>
<path d="M48.7811 66.396C48.6932 66.3472 48.5727 66.3277 48.5841 66.186V66.1942C48.6916 66.2072 48.7469 66.3016 48.8169 66.357L48.7811 66.396Z" fill="#F8F2EA"/>
<path d="M44.0089 60.9368L44.1854 61.1704L44.1445 61.2145L43.9632 60.9809L44.0089 60.9368Z" fill="#F8F2EA"/>
<path d="M43.68 60.5339C43.7355 60.6107 43.8286 60.6614 43.8433 60.7659L43.809 60.7986C43.7289 60.7411 43.668 60.6609 43.6342 60.5682L43.68 60.5339Z" fill="#F8F2EA"/>
<path d="M42.9252 59.5764C42.9887 59.6529 43.088 59.7083 43.088 59.8206H43.0978C42.9562 59.832 42.935 59.7115 42.8862 59.6253C42.9024 59.6041 42.9138 59.5911 42.9252 59.5764Z" fill="#F8F2EA"/>
<path d="M37.7091 35.8894C37.5616 35.9484 37.4797 35.8779 37.3813 35.7796C37.4401 35.7561 37.5053 35.7542 37.5654 35.7743C37.6254 35.7944 37.6763 35.8352 37.7091 35.8894Z" fill="#787878"/>
<path d="M36.8136 69.9308L36.5662 70.1018C36.5971 69.9292 36.698 69.9162 36.7664 69.8706L36.8136 69.9308Z" fill="#787878"/>
<path d="M37.5569 69.4563C37.5291 69.4913 37.4943 69.5203 37.4548 69.5413C37.4153 69.5623 37.3719 69.5749 37.3273 69.5784C37.3631 69.4644 37.4445 69.4449 37.5113 69.4075C37.5259 69.4254 37.5422 69.44 37.5569 69.4563Z" fill="#787878"/>
<path d="M36.4855 70.1438C36.4169 70.2059 36.3548 70.2827 36.2274 70.2631C36.2535 70.1373 36.3531 70.1144 36.4316 70.0703L36.4855 70.1438Z" fill="#787878"/>
<path d="M49.7479 67.2352C49.8928 67.162 49.9579 67.2092 49.971 67.398C49.9512 67.3548 49.9208 67.3172 49.8827 67.2887C49.8446 67.2603 49.7999 67.2419 49.7528 67.2352H49.7479Z" fill="#F8F2EA"/>
<path d="M53.9002 70.3778C53.8235 70.3304 53.7271 70.3059 53.696 70.1932C53.8235 70.154 53.8806 70.2406 53.9509 70.2994L53.9002 70.3778Z" fill="#787878"/>
<path d="M56.2136 25.811L56.2381 25.7522C56.2737 25.7681 56.3081 25.7867 56.3409 25.8077C56.3752 25.8371 56.3409 25.873 56.3213 25.8681C56.2826 25.855 56.2462 25.8357 56.2136 25.811Z" fill="#F8F2EA"/>
<path d="M70.5902 61.2181L70.6944 61.1855C70.6944 61.2132 70.6944 61.2523 70.6798 61.2637C70.6293 61.3028 70.6033 61.2637 70.587 61.2197L70.5902 61.2181Z" fill="#F8F2EA"/>
<path d="M36.8919 35.6697C36.924 35.639 36.9662 35.6211 37.0105 35.6193C37.0549 35.6175 37.0984 35.6319 37.1328 35.6599C37.0514 35.7592 36.9733 35.6974 36.8919 35.6697Z" fill="#787878"/>
<path d="M43.2266 60.0282C43.3393 60.0021 43.3458 60.0886 43.3671 60.1605L43.323 60.1833C43.2691 60.1441 43.2185 60.1033 43.2315 60.02L43.2266 60.0282Z" fill="#F8F2EA"/>
<path d="M43.5798 60.4272C43.4557 60.4697 43.4623 60.3635 43.4329 60.2982L43.4737 60.2688C43.5129 60.3178 43.5766 60.3537 43.57 60.4321L43.5798 60.4272Z" fill="#F8F2EA"/>
<path d="M69.7357 62.3044C69.8025 62.2816 69.7992 62.1498 69.9067 62.1937C69.8725 62.267 69.8823 62.4086 69.7325 62.3077L69.7357 62.3044Z" fill="#F8F2EA"/>
<path d="M48.1193 65.8817C48.2951 65.8703 48.3423 65.9192 48.2821 66.0445C48.2767 66.0032 48.2578 65.9649 48.2283 65.9355C48.1989 65.906 48.1605 65.8871 48.1193 65.8817Z" fill="#F8F2EA"/>
<path d="M49.0555 66.5955C49.0877 66.5952 49.1191 66.6054 49.145 66.6245C49.171 66.6437 49.19 66.6707 49.1992 66.7016C49.1992 66.7016 49.1861 66.7277 49.1796 66.7261C49.1484 66.7217 49.119 66.7089 49.0945 66.6891C49.07 66.6692 49.0515 66.6431 49.0408 66.6134L49.0555 66.5955Z" fill="#F8F2EA"/>
<path d="M49.4578 66.9355C49.3876 66.911 49.2782 66.9208 49.3304 66.7886V66.8C49.3941 66.8294 49.4937 66.831 49.4595 66.9437L49.4578 66.9355Z" fill="#F8F2EA"/>
<path d="M53.5369 70.0344C53.5972 70.0637 53.7144 70.0849 53.6525 70.1679C53.5906 70.2509 53.5288 70.1354 53.4718 70.0947L53.5369 70.0344Z" fill="#787878"/>
<path d="M36.0064 70.3482C36.0715 70.3091 36.135 70.1854 36.205 70.2781C36.2555 70.3449 36.1432 70.3856 36.0764 70.4116L36.0064 70.3482Z" fill="#787878"/>
<path d="M36.6101 51.6652C36.5888 51.6799 36.5676 51.7109 36.5513 51.7076C36.5088 51.7076 36.4631 51.6782 36.4761 51.626C36.4807 51.6125 36.4884 51.6002 36.4986 51.5903C36.5089 51.5804 36.5213 51.573 36.5349 51.5688C36.597 51.5623 36.5839 51.626 36.6101 51.6652Z" fill="#F8F2EA"/>
<path d="M43.3673 60.1609C43.4326 60.1609 43.444 60.2262 43.4734 60.2687L43.4326 60.2981C43.395 60.2605 43.3591 60.2229 43.3232 60.1838L43.3673 60.1609Z" fill="#F8F2EA"/>
<path d="M37.3581 35.7403C37.314 35.7566 37.2862 35.7746 37.2617 35.7713C37.2372 35.768 37.2323 35.7386 37.2177 35.7191C37.234 35.7109 37.2519 35.6929 37.2666 35.6962C37.2987 35.7073 37.3294 35.7221 37.3581 35.7403Z" fill="#787878"/>
<path d="M35.5353 35.95L35.5071 35.9422C35.5159 35.933 35.5259 35.9251 35.5369 35.9187C35.5369 35.9187 35.5525 35.9297 35.5603 35.9343L35.5353 35.95Z" fill="#787878"/>
<path d="M37.5449 51.2838C37.5242 51.2777 37.5066 51.2641 37.4954 51.2456C37.4842 51.2272 37.4803 51.2053 37.4845 51.1841C37.4845 51.176 37.5139 51.1711 37.5285 51.1646L37.5416 51.287L37.5449 51.2838Z" fill="#787878"/>
<path d="M69.6907 62.488C69.6761 62.5026 69.6615 62.5237 69.6453 62.5253C69.6291 62.5269 69.6096 62.5091 69.5934 62.501C69.612 62.482 69.6327 62.4651 69.655 62.4507C69.655 62.4507 69.6777 62.4685 69.6907 62.488Z" fill="#F8F2EA"/>
<path d="M43.5703 60.4326L43.6797 60.5339L43.6356 60.5682C43.5785 60.5371 43.5148 60.5077 43.5801 60.4277L43.5703 60.4326Z" fill="#F8F2EA"/>
<path d="M44.6267 61.6372H44.6081C44.6074 61.6449 44.6074 61.6527 44.6081 61.6604H44.6251C44.6272 61.6528 44.6277 61.645 44.6267 61.6372Z" fill="#F8F2EA"/>
<path d="M69.9763 62.1412C69.9078 62.0579 69.9763 62.0301 70.0335 61.9958H70.0204C70.0972 62.0759 70.0335 62.1069 69.9698 62.1379L69.9763 62.1412Z" fill="#F8F2EA"/>
<path d="M49.4533 66.9439C49.5249 66.8901 49.5705 66.9764 49.6324 66.9781C49.5396 67.1132 49.5021 67.0025 49.4549 66.9374L49.4533 66.9439Z" fill="#F8F2EA"/>
<path d="M50.1989 67.4772L50.1649 67.5258C50.1535 67.508 50.1389 67.4917 50.1292 67.4739C50.0984 67.4188 50.1454 67.4269 50.1698 67.4301C50.1941 67.4334 50.1827 67.4609 50.1989 67.4772Z" fill="#F8F2EA"/>
<path d="M37.802 69.2239C37.8347 69.1847 37.8804 69.1194 37.9245 69.1733C37.9686 69.2272 37.8885 69.2517 37.851 69.281L37.802 69.2239Z" fill="#787878"/>
<path d="M37.6007 69.3615L37.715 69.2717L37.764 69.324L37.6448 69.4056L37.6007 69.3615Z" fill="#787878"/>
<path d="M36.8527 69.8345L36.9768 69.7561L37.0176 69.7953L36.8984 69.8802L36.8527 69.8345Z" fill="#787878"/>
<path d="M53.2931 69.9685C53.2588 69.9309 53.1527 69.9211 53.2196 69.8444C53.2523 69.8068 53.3111 69.8558 53.3405 69.9016L53.2931 69.9685Z" fill="#787878"/>
<path d="M53.4175 69.9509L53.5363 70.034L53.4712 70.0942L53.3621 70.0079L53.4175 69.9509Z" fill="#787878"/>
<path d="M50.4796 70.3254C50.4744 70.3122 50.472 70.2982 50.4724 70.284C50.4728 70.2699 50.4761 70.256 50.4821 70.2432C50.488 70.2304 50.4965 70.2189 50.507 70.2094C50.5176 70.2 50.5299 70.1928 50.5433 70.1882C50.551 70.215 50.5491 70.2436 50.5377 70.269C50.5263 70.2944 50.5063 70.315 50.4812 70.327L50.4796 70.3254Z" fill="#787878"/>
<path d="M35.9 70.4382C35.9358 70.4089 35.9716 70.3796 36.0058 70.3486L36.0758 70.4121L35.9537 70.5033L35.9 70.4382Z" fill="#787878"/>
<path d="M50.0049 70.936C49.9966 70.9093 49.9985 70.8805 50.0103 70.8551C50.0221 70.8298 50.0428 70.8097 50.0686 70.7988C50.0686 70.8576 50.0686 70.9099 50.0032 70.9344L50.0049 70.936Z" fill="#787878"/>
<path d="M56.5016 71.8094L56.4214 71.7853L56.4407 71.7661L56.4968 71.8158L56.5016 71.8094Z" fill="#787878"/>
<path d="M57.0369 72.02L57.0964 72.0376C57.0594 72.0778 57.0578 72.0264 57.0401 72.0151L57.0369 72.02Z" fill="#787878"/>
<path d="M43.845 60.7664C43.8758 60.781 43.9342 60.7923 43.8921 60.8393C43.8499 60.8864 43.8321 60.8264 43.811 60.7988L43.845 60.7664Z" fill="#F8F2EA"/>
<path d="M43.9626 60.9799C43.9318 60.9621 43.8718 60.9507 43.9124 60.9021C43.9529 60.8534 43.9756 60.9134 44.0015 60.9361L43.9626 60.9799Z" fill="#F8F2EA"/>
<path d="M44.1856 61.1707C44.1945 61.171 44.2033 61.1732 44.2113 61.1772C44.2193 61.1812 44.2264 61.1869 44.2321 61.1938C44.2378 61.2007 44.242 61.2087 44.2443 61.2174C44.2467 61.226 44.2472 61.2351 44.2458 61.2439C44.1937 61.3139 44.1709 61.2439 44.1384 61.2211L44.1856 61.1707Z" fill="#F8F2EA"/>
<path d="M44.3653 61.2883C44.3441 61.3045 44.3213 61.3387 44.3018 61.3355C44.248 61.3355 44.2497 61.2801 44.2529 61.2378L44.3669 61.2801L44.3653 61.2883Z" fill="#F8F2EA"/>
<path d="M70.587 61.2199L70.6567 61.2685L70.621 61.3107L70.5918 61.2183L70.587 61.2199Z" fill="#F8F2EA"/>
<path d="M44.3604 61.2869C44.3604 61.3193 44.3863 61.3663 44.3247 61.3744C44.3198 61.3735 44.3151 61.3716 44.3109 61.3688C44.3067 61.366 44.3031 61.3624 44.3004 61.3582C44.289 61.3047 44.3182 61.2885 44.3652 61.2885L44.3604 61.2869Z" fill="#F8F2EA"/>
<path d="M44.4232 61.5588L44.4328 61.4915L44.4248 61.562L44.4232 61.5588Z" fill="#F8F2EA"/>
<path d="M44.4248 61.5627L44.4891 61.5161C44.51 61.5933 44.4457 61.5451 44.4232 61.5595L44.4248 61.5627Z" fill="#F8F2EA"/>
<path d="M69.9076 62.1978C69.9076 62.1718 69.9076 62.1427 69.9076 62.1232C69.9319 62.0762 69.9481 62.1313 69.9708 62.1329V62.1248C69.9708 62.1718 69.9497 62.1945 69.9027 62.1913L69.9076 62.1978Z" fill="#F8F2EA"/>
<path d="M69.726 62.3052C69.7535 62.3165 69.7941 62.3198 69.7746 62.3636C69.7746 62.3781 69.7438 62.3863 69.7276 62.3976C69.7325 62.3681 69.7357 62.3383 69.7373 62.3084L69.726 62.3052Z" fill="#F8F2EA"/>
<path d="M48.1225 65.8809L48.1452 65.8047C48.2084 65.8517 48.1354 65.8566 48.1208 65.8809H48.1225Z" fill="#F8F2EA"/>
<path d="M48.2829 66.0446C48.2829 65.9992 48.2975 65.9684 48.3494 65.9781C48.3494 65.9781 48.3689 65.9943 48.3673 66.0008C48.3673 66.0576 48.3137 66.0316 48.2813 66.0381L48.2829 66.0446Z" fill="#F8F2EA"/>
<path d="M48.5174 66.1165H48.4499V66.0667L48.5062 66.1149L48.5174 66.1165Z" fill="#F8F2EA"/>
<path d="M48.5833 66.1839L48.4974 66.1709L48.5185 66.1174H48.5103C48.5574 66.1174 48.5801 66.1385 48.5768 66.1855L48.5833 66.1839Z" fill="#F8F2EA"/>
<path d="M37.5417 51.2871L37.5607 51.2981L37.5449 51.2839L37.5417 51.2871Z" fill="#787878"/>
<path d="M48.8114 66.3613C48.8373 66.3873 48.8957 66.4035 48.8357 66.4505C48.8167 66.4333 48.7988 66.4149 48.7822 66.3954L48.8114 66.3613Z" fill="#F8F2EA"/>
<path d="M48.9503 66.5601C48.9227 66.5342 48.866 66.5131 48.9309 66.4709C48.9507 66.489 48.9691 66.5085 48.986 66.5293L48.9503 66.5601Z" fill="#F8F2EA"/>
<path d="M48.9864 66.5283C49.0302 66.5283 49.0562 66.5462 49.0545 66.5948L49.0399 66.6126L48.9507 66.5591L48.9864 66.5283Z" fill="#F8F2EA"/>
<path d="M37.9163 35.9744C37.9252 35.9878 37.9322 36.0024 37.9372 36.0178C37.9372 36.0178 37.9227 36.0322 37.9163 36.0387C37.9082 36.025 37.9017 36.0104 37.897 35.9953C37.897 35.9953 37.9066 35.9808 37.9163 35.9744Z" fill="#787878"/>
<path d="M49.6669 67.066C49.641 67.0563 49.6053 67.053 49.5923 67.0352C49.5583 66.9865 49.6231 66.9979 49.6377 66.9768C49.6475 67.0076 49.6556 67.0384 49.6637 67.0709L49.6669 67.066Z" fill="#F8F2EA"/>
<path d="M49.7316 67.134C49.6852 67.134 49.6387 67.134 49.6675 67.0667C49.7156 67.0667 49.7541 67.0667 49.7332 67.134H49.7316Z" fill="#F8F2EA"/>
<path d="M49.7511 67.2344C49.7511 67.202 49.7397 67.1679 49.7332 67.1355C49.7592 67.1452 49.7948 67.1225 49.8078 67.1728C49.8208 67.2231 49.7705 67.2085 49.7543 67.2279L49.7511 67.2344Z" fill="#F8F2EA"/>
<path d="M37.4526 51.0704L37.4108 51.0479C37.4108 51.0398 37.4269 51.0254 37.4317 51.027C37.4477 51.0316 37.4629 51.0386 37.4767 51.0479L37.4526 51.0704Z" fill="#787878"/>
<path d="M49.9721 67.3947L50.0394 67.3418C50.0635 67.4235 49.9898 67.369 49.9705 67.3915L49.9721 67.3947Z" fill="#F8F2EA"/>
<path d="M49.4493 37.6621C49.4798 37.6846 49.4782 37.707 49.4493 37.7262C49.4205 37.7455 49.4285 37.7262 49.4189 37.7262L49.4606 37.6717L49.4493 37.6621Z" fill="#F8F2EA"/>
<path d="M34.7191 39.0098L34.6789 38.9519C34.6789 38.9519 34.695 38.9519 34.6966 38.9519C34.7056 38.9702 34.7136 38.989 34.7207 39.0082L34.7191 39.0098Z" fill="#F8F2EA"/>
<path d="M37.8508 69.2813L37.7643 69.3237L37.7153 69.2715L37.8018 69.2241L37.8508 69.2813Z" fill="#787878"/>
<path d="M40.1571 44.0032L40.1647 44.0122L40.1526 44.0107L40.1571 44.0032Z" fill="#F8F2EA"/>
<path d="M37.2101 50.5353L37.1768 50.5146C37.1768 50.5146 37.1895 50.5146 37.1926 50.5146C37.1978 50.5221 37.2021 50.5301 37.2054 50.5385L37.2101 50.5353Z" fill="#787878"/>
<path d="M37.6446 69.4057L37.5581 69.4563C37.5434 69.44 37.527 69.4253 37.5123 69.4073L37.6005 69.3616L37.6446 69.4057Z" fill="#787878"/>
<path d="M37.1816 69.62C37.2108 69.5924 37.24 69.5681 37.2757 69.6087C37.2757 69.6087 37.2416 69.6427 37.2222 69.6622L37.1816 69.62Z" fill="#787878"/>
<path d="M37.2217 69.6706C37.1974 69.703 37.1698 69.7338 37.1342 69.6884C37.1342 69.6884 37.165 69.6495 37.1812 69.6284L37.2217 69.6706Z" fill="#787878"/>
<path d="M36.9771 69.7541C37.0062 69.7232 37.0354 69.6957 37.076 69.7378L37.0176 69.793L36.9771 69.7541Z" fill="#787878"/>
<path d="M36.8982 69.8787L36.8149 69.931L36.7675 69.8706L36.8524 69.833L36.8982 69.8787Z" fill="#787878"/>
<path d="M53.3326 69.9019L53.4175 69.9508L53.362 70.008L53.2852 69.9688C53.3015 69.9476 53.3179 69.9247 53.3326 69.9019Z" fill="#787878"/>
<path d="M36.4336 70.0702C36.4678 70.0539 36.5069 70.0149 36.5378 70.0621C36.5687 70.1093 36.5166 70.1223 36.4873 70.1435L36.4336 70.0702Z" fill="#787878"/>
<path d="M37.7578 35.928L37.7819 35.9055C37.7908 35.919 37.7979 35.9336 37.8028 35.9489C37.8028 35.9489 37.79 35.9634 37.7819 35.9714L37.7578 35.928Z" fill="#787878"/>
<path d="M50.5433 70.1885L50.5749 70.1458C50.5971 70.1917 50.5749 70.1901 50.5385 70.1838L50.5433 70.1885Z" fill="#787878"/>
<path d="M50.4092 70.3917C50.4092 70.3515 50.4334 70.3242 50.4784 70.3274L50.4092 70.3917Z" fill="#787878"/>
<path d="M53.9479 70.2996C53.9772 70.3191 54.0325 70.3289 54.0016 70.381C53.9707 70.4331 53.9316 70.3907 53.8974 70.381C53.9169 70.3517 53.9332 70.3256 53.9479 70.2996Z" fill="#787878"/>
<path d="M50.347 70.4587L50.4146 70.3928L50.347 70.4571V70.4587Z" fill="#787878"/>
<path d="M54.1192 70.4169L54.0951 70.4587C54.0951 70.4507 54.0742 70.4411 54.0758 70.4362C54.0808 70.4209 54.0878 70.4063 54.0967 70.3928L54.1192 70.4169Z" fill="#787878"/>
<path d="M35.9534 70.5038C35.9208 70.5217 35.885 70.5592 35.8525 70.5169C35.8199 70.4745 35.8753 70.4599 35.8997 70.4387L35.9534 70.5038Z" fill="#787878"/>
<path d="M50.3364 70.4551L50.3187 70.513C50.2625 70.4679 50.3187 70.4728 50.3396 70.4599L50.3364 70.4551Z" fill="#787878"/>
<path d="M35.7769 70.5588L35.7643 70.5809L35.7297 70.5557L35.7549 70.5337L35.7769 70.5588Z" fill="#787878"/>
<path d="M50.2062 70.6633L50.2331 70.6252C50.2331 70.6332 50.2331 70.6427 50.2331 70.6458C50.2244 70.6516 50.2147 70.6559 50.2046 70.6585L50.2062 70.6633Z" fill="#787878"/>
<path d="M50.2001 70.6531C50.2001 70.6933 50.1792 70.7206 50.1342 70.719C50.1342 70.6804 50.1567 70.6531 50.2001 70.6531Z" fill="#787878"/>
<path d="M50.0687 70.7976L50.1379 70.7317C50.1379 70.7767 50.117 70.8008 50.0703 70.7992L50.0687 70.7976Z" fill="#787878"/>
<path d="M43.0953 59.8217L43.1482 59.8825C43.1305 59.8825 43.1065 59.897 43.0969 59.8825C43.0632 59.8569 43.0825 59.8329 43.0969 59.8088L43.0953 59.8217Z" fill="#F8F2EA"/>
<path d="M49.9986 70.9314L49.9685 70.9773C49.9416 70.9314 49.9685 70.933 50.0018 70.9361L49.9986 70.9314Z" fill="#787878"/>
<path d="M43.2301 60.0233L43.1644 59.9736L43.2109 59.948L43.2253 60.0265L43.2301 60.0233Z" fill="#F8F2EA"/>
<path d="M49.3293 66.7879L49.2601 66.8056V66.7542L49.3228 66.7992L49.3293 66.7879Z" fill="#F8F2EA"/>
<path d="M50.5238 54.5202C50.5183 54.0318 50.642 53.5507 50.8823 53.1255C51.6238 51.7424 52.6828 50.6277 53.8156 49.5653C54.1429 49.2511 54.1577 49.2592 53.863 48.927C53.2425 48.1954 52.7035 47.3985 52.2556 46.5502C52.0919 46.254 52.0919 45.8775 51.9283 45.6041C51.7646 45.3308 51.3553 45.3193 51.0934 45.095C50.5533 44.6318 50.3683 44.0245 50.275 43.3632C50.2014 42.6674 50.1735 41.9675 50.1915 41.268C50.1873 41.1891 50.2075 41.1107 50.2494 41.0437C50.2912 40.9766 50.3528 40.924 50.4256 40.8932C50.4854 40.861 50.5543 40.8499 50.6211 40.8618C50.688 40.8737 50.7489 40.9078 50.7939 40.9587C51.0722 41.1846 51.4208 41.2566 51.7449 41.3826C53.2066 41.9473 53.7501 42.8182 53.6011 44.3912C53.5908 44.492 53.6114 44.5936 53.6601 44.6826C54.1683 45.7045 54.8376 46.638 55.6423 47.4472C55.8224 47.6207 55.9255 47.6109 56.1121 47.4571C57.2869 46.5066 58.5678 45.6953 59.9293 45.0394C60.8688 44.6056 61.8084 44.5172 62.7332 45.1049C63.2063 45.4061 63.4829 45.8775 63.8103 46.3047C64.8219 47.6142 65.876 48.8877 67.1544 49.9582C67.9516 50.6244 68.6178 51.4314 69.3167 52.1925C69.6801 52.5919 69.6343 52.988 69.2496 53.3891C67.2854 55.4368 65.3211 57.4927 63.5206 59.6845C62.4982 60.9598 61.5469 62.2904 60.6708 63.6703C60.44 64.0206 60.3581 64.05 59.9931 63.8781C57.5378 62.716 55.4524 61.0447 53.4849 59.2065C52.713 58.5122 52.0011 57.7538 51.357 56.9395C50.8409 56.2359 50.5504 55.3923 50.5238 54.5202ZM63.0328 56.5319C63.0573 56.5008 63.1261 56.4811 63.0557 56.4287C63.0819 56.4287 63.1179 56.4287 63.1343 56.4107C63.1785 56.3715 63.1146 56.3665 63.1065 56.3453C63.149 56.3551 63.1965 56.3698 63.2145 56.3158C63.2145 56.2994 63.1899 56.27 63.1768 56.2487C63.1768 56.2782 63.1768 56.3158 63.2276 56.306C63.2423 56.306 63.2538 56.2782 63.2669 56.2651L63.1752 56.2536L63.1146 56.3518L63.0655 56.4353C63.0565 56.434 63.0473 56.4348 63.0386 56.4376C63.0299 56.4404 63.0219 56.4451 63.0153 56.4514C63.0087 56.4577 63.0036 56.4654 63.0004 56.474C62.9972 56.4825 62.9959 56.4917 62.9968 56.5008C62.9526 56.5008 62.9329 56.5253 62.928 56.5662C62.8707 56.6023 62.7938 56.6317 62.8691 56.7185C62.8167 56.6415 62.7922 56.7185 62.7611 56.7398C61.9965 57.5209 61.3132 58.3775 60.7215 59.2965C60.6806 59.3571 60.5578 59.4471 60.6806 59.5208C60.7706 59.5781 60.8066 59.4602 60.8443 59.398C61.4368 58.4797 62.1178 57.6286 62.7954 56.779C62.8396 56.779 62.8576 56.7496 62.8609 56.7103C62.9264 56.6776 62.9951 56.6448 62.9198 56.5581C62.9771 56.6334 63.0017 56.5613 63.0328 56.5319ZM57.8144 47.1788L57.7752 47.2819L57.7621 47.2966V47.2737C57.8603 47.2835 57.8161 47.2197 57.8112 47.1771C57.8455 47.2001 57.8816 47.2312 57.911 47.1771C57.911 47.169 57.8832 47.1395 57.8685 47.1199C58.0321 47.169 58.0321 47.169 58.1958 46.9431L57.8685 47.1199C57.8766 47.169 57.8668 47.1902 57.8144 47.1788ZM62.2847 56.1914L62.2274 56.2749C62.1816 56.2913 62.1505 56.3289 62.1914 56.36C62.2324 56.3911 62.2585 56.3518 62.2585 56.3027C62.3027 56.3027 62.3208 56.2749 62.3224 56.2323L62.3895 56.1652L65.4324 53.2287C64.7188 53.5871 63.1245 55.1209 62.342 56.1259L62.2847 56.1914ZM66.0037 50.2839L65.9104 50.3085L65.9448 50.3494L66.0004 50.279C66.0004 50.3085 65.9153 50.333 66.0004 50.369C65.9972 50.3396 66.0004 50.3118 66.0037 50.2839ZM58.9357 52.1663L58.8686 52.2351H58.8588V52.2236L58.9275 52.1565H58.9373L58.9357 52.1663ZM59.8049 46.0281C59.7279 45.9757 59.6576 45.961 59.6101 46.0657C59.5708 46.0739 59.4971 46.0657 59.5528 46.141C59.3744 46.141 59.2254 46.1737 59.2254 46.3964C59.1027 46.2098 59.0143 46.4897 58.898 46.4193C58.8768 46.5584 58.5952 46.5208 58.6853 46.7336C58.5543 46.5699 58.5216 46.7467 58.461 46.8056L58.6869 46.7303C58.6869 46.5813 58.9914 46.6321 58.898 46.4193C59.0225 46.5961 59.1108 46.3292 59.2254 46.3931C59.286 46.2556 59.471 46.2654 59.5381 46.1345C59.5806 46.1345 59.615 46.1345 59.6281 46.087L59.7918 46.0297L59.782 45.902H59.8409C59.8409 45.902 59.8311 45.9233 59.8278 45.9233C59.8191 45.9208 59.8108 45.917 59.8032 45.9118C59.7623 45.9528 59.7198 45.9953 59.8049 46.0281ZM51.6942 52.8456C51.6189 52.8996 51.5387 52.952 51.5845 53.0781C51.6762 53.0077 51.7187 52.9373 51.6893 52.8391C51.7236 52.8391 51.7482 52.8391 51.722 52.7998L51.6942 52.8456ZM58.664 52.4381C58.5821 52.5052 58.4626 52.5445 58.4643 52.7C58.5187 52.679 58.5661 52.6432 58.6011 52.5966C58.6361 52.55 58.6573 52.4945 58.6623 52.4364H58.6722L58.664 52.4381ZM51.4617 53.1583C51.4037 53.2138 51.3573 53.2803 51.3252 53.3539C51.2932 53.4276 51.2762 53.5068 51.2751 53.5871C51.3935 53.4887 51.4824 53.3596 51.5321 53.2139C51.5518 53.1812 51.5894 53.1435 51.5436 53.1092C51.4978 53.0748 51.4928 53.1288 51.4667 53.1583H51.4617ZM52.2065 56.3289C52.2376 56.3485 52.2212 56.4222 52.2834 56.4009C52.2933 56.4009 52.2982 56.3387 52.2834 56.3191C52.2491 56.27 52.218 56.2912 52.2 56.3387C52.254 56.0572 51.9855 55.918 51.9315 55.5841C51.8546 55.977 52.1132 56.1161 52.2114 56.3289H52.2065ZM65.2704 49.0055L65.4488 49.2592C65.4635 49.0546 65.3555 49.0334 65.308 48.9679C65.1695 48.7308 64.982 48.526 64.7581 48.3672C64.5256 48.1085 64.2866 47.8548 64.0624 47.5896C63.6107 47.0456 63.1305 46.526 62.6236 46.033C62.5957 46.0199 62.5761 45.9593 62.5385 46.0166C62.5385 46.0166 62.5696 46.051 62.5859 46.069C63.1817 46.9905 63.956 47.755 64.7466 48.5047C64.8934 48.7001 65.0722 48.8695 65.2753 49.0055H65.2704ZM58.5592 54.7804L59.1861 54.0962L59.1125 54.0258C58.8819 54.2346 58.6799 54.4729 58.5117 54.7346C58.4626 54.7673 58.3824 54.805 58.4495 54.8672C58.5003 54.9015 58.5314 54.8148 58.5707 54.7755L58.5592 54.7804ZM65.7533 50.2086C65.7762 50.2283 65.8106 50.2692 65.8187 50.2643C65.8842 50.225 65.8286 50.1972 65.804 50.1677L65.0494 49.4606L64.9741 49.5424C65.2098 49.7956 65.4753 50.0193 65.7647 50.2086H65.7533ZM52.2196 54.5414C52.2253 54.6339 52.2379 54.7258 52.2573 54.8164C52.475 55.666 53.0217 56.3093 53.5913 56.9444C53.7435 57.108 53.7697 56.9116 53.8188 56.8461C54.287 56.2127 54.7371 55.5628 55.2167 54.9376C56.3363 53.4775 57.6082 52.1549 58.8931 50.8454C59.9882 49.7258 61.0996 48.616 62.5303 47.9105C62.6039 47.8805 62.664 47.8248 62.6996 47.7537C62.7351 47.6826 62.7436 47.601 62.7234 47.5242C62.6508 47.0509 62.4024 46.6225 62.0277 46.3243C61.6693 46.0575 61.2781 45.8906 60.8361 46.1181C60.4768 46.2787 60.1337 46.4733 59.8114 46.6992C57.1548 48.7829 54.6405 51.0172 52.5093 53.6542C52.3207 53.9109 52.2228 54.223 52.2311 54.5414H52.2196ZM66.8516 51.6556C66.8516 51.5672 66.773 51.546 66.719 51.5132C66.1745 51.1515 65.6555 50.7528 65.1656 50.3199C64.745 49.968 64.7581 49.9811 64.2965 50.2708C63.4762 50.7669 62.7113 51.3491 62.0147 52.0076C60.9245 53.0715 59.8982 54.1944 58.8719 55.3189C57.8395 56.406 56.8778 57.5579 55.9926 58.7678C55.8289 59.0019 55.8289 59.1165 56.0679 59.2949C56.7767 59.8138 57.4625 60.3654 58.1598 60.9007C58.5952 61.2281 58.5969 61.2281 58.8358 60.7452C59.9817 58.4175 61.3648 56.2487 63.1719 54.3614C64.2604 53.2549 65.3719 52.1991 66.8631 51.6556H66.8516ZM50.7661 41.5365C50.807 42.3729 50.8004 43.1946 51.0116 43.9918C51.074 44.2267 51.1895 44.444 51.3493 44.6271C51.5091 44.8102 51.7089 44.954 51.9332 45.0476C51.9872 45.0792 52.0513 45.0889 52.1122 45.0746C52.1732 45.0602 52.2263 45.023 52.2605 44.9706C52.3686 44.8512 52.3113 44.7709 52.2442 44.6776C52.0265 44.3781 51.8038 44.0802 51.5894 43.7774C51.3888 43.5046 51.2523 43.1902 51.19 42.8574C51.1655 42.7134 51.1507 42.5792 51.285 42.499C51.4192 42.4188 51.5518 42.5088 51.6631 42.6185C52.1541 43.0997 52.362 43.7364 52.6223 44.3454C52.655 44.4223 52.6354 44.5958 52.7778 44.5336C52.9202 44.4714 53.1052 44.496 53.1592 44.3093C53.3621 43.6546 52.9546 42.5955 52.362 42.2174C51.8808 41.9064 51.3292 41.7542 50.7775 41.5365H50.7661ZM55.3215 48.1478C55.2707 48.0922 55.2429 48.0578 55.2118 48.0283C54.4097 47.241 53.8205 46.2998 53.2754 45.3291C53.2312 45.2505 53.205 45.095 53.0708 45.2194C52.9906 45.2947 52.7827 45.2947 52.8776 45.5043C53.3589 46.5666 53.9449 47.5553 54.8255 48.3426C54.8763 48.3884 54.9139 48.5063 55.0105 48.4212C55.1071 48.3361 55.2233 48.2444 55.3329 48.1478H55.3215ZM63.5369 57.2308C62.3797 58.2686 61.3926 59.439 60.8263 60.9187C61.6742 59.6452 62.5106 58.3652 63.5369 57.2308ZM57.9863 53.1943C57.112 54.0532 56.3332 55.0044 55.6636 56.031C56.5279 55.1585 57.1941 54.1208 57.9863 53.1894V53.1943ZM51.1376 53.8638C51.2309 53.7606 51.3324 53.7001 51.2751 53.5495C51.2208 53.5781 51.1777 53.6242 51.1527 53.6803C51.1278 53.7365 51.1225 53.7993 51.1376 53.8589V53.8638ZM58.3939 54.9326C58.3039 54.9523 58.2564 54.9916 58.258 55.0865C58.297 55.0832 58.3331 55.0646 58.3585 55.0349C58.3839 55.0052 58.3966 54.9667 58.3939 54.9277V54.9326ZM58.3186 46.8187C58.2921 46.8477 58.2706 46.8809 58.2548 46.9169C58.2548 46.9414 58.2809 46.9725 58.3153 46.9431C58.3448 46.9147 58.3727 46.8846 58.3988 46.853L58.3186 46.8187ZM63.6302 57.0409L63.5222 57.1833C63.5451 57.1981 63.555 57.2488 63.5959 57.2144C63.6258 57.188 63.6507 57.1564 63.6695 57.1211C63.6761 57.1015 63.6499 57.0671 63.6302 57.036V57.0409ZM58.1713 53.0371V53.0617H58.1533C58.1517 53.0536 58.1517 53.0453 58.1533 53.0371H58.1713Z" fill="#070606"/>
<path d="M52.2311 54.5414C52.2232 54.2172 52.3253 53.8999 52.5208 53.6412C54.6487 51.0042 57.1662 48.7698 59.8229 46.6861C60.1451 46.4602 60.4883 46.2656 60.8476 46.105C61.2895 45.8775 61.6807 46.0444 62.0392 46.3113C62.4138 46.6094 62.6623 47.0378 62.7349 47.5111C62.756 47.5884 62.7479 47.6708 62.7123 47.7426C62.6767 47.8144 62.616 47.8706 62.5417 47.9007C61.1111 48.6061 59.9997 49.7159 58.9046 50.8356C57.6197 52.1451 56.3478 53.4742 55.2282 54.9277C54.7486 55.553 54.2984 56.2029 53.8303 56.8363C53.7812 56.9018 53.755 57.1015 53.6028 56.9346C53.0331 56.306 52.4864 55.6627 52.2687 54.8066C52.2498 54.7193 52.2372 54.6306 52.2311 54.5414Z" fill="#F8F2EA"/>
<path d="M66.863 51.6556C65.3719 52.1991 64.2555 53.2548 63.1834 54.3695C61.3828 56.2487 59.9947 58.4175 58.8473 60.7533C58.6083 61.2444 58.6067 61.2444 58.1713 60.9088C57.4739 60.3736 56.7881 59.822 56.0793 59.3031C55.8354 59.1247 55.8404 59.0101 56.004 58.776C56.8892 57.5661 57.8509 56.4141 58.8833 55.3271C59.9096 54.2026 60.9359 53.0797 62.0261 52.0157C62.7228 51.3573 63.4877 50.7751 64.3079 50.279C64.7695 49.9893 64.7564 49.9762 65.1771 50.3281C65.6669 50.761 66.1859 51.1597 66.7305 51.5214C66.7845 51.5459 66.8598 51.5672 66.863 51.6556Z" fill="#F8F2EA"/>
<path d="M50.7775 41.5364C51.3275 41.7541 51.8808 41.9063 52.3686 42.2173C52.9611 42.5954 53.3687 43.6545 53.1657 44.3092C53.1084 44.4958 52.9153 44.4729 52.7843 44.5335C52.6534 44.5941 52.6616 44.4222 52.6288 44.3452C52.3686 43.7363 52.1623 43.0996 51.6696 42.6183C51.5583 42.5087 51.4486 42.4056 51.2915 42.4989C51.1344 42.5922 51.172 42.7133 51.1966 42.8573C51.2589 43.1901 51.3954 43.5045 51.596 43.7773C51.8104 44.0801 52.033 44.378 52.2507 44.6775C52.3178 44.7708 52.3751 44.851 52.2671 44.9705C52.2328 45.0229 52.1797 45.0601 52.1188 45.0744C52.0578 45.0888 51.9937 45.0791 51.9397 45.0475C51.7154 44.9539 51.5157 44.8101 51.3559 44.627C51.1961 44.4439 51.0805 44.2266 51.0181 43.9917C50.8119 43.1945 50.8184 42.3728 50.7775 41.5364Z" fill="#F8F2EA"/>
<path d="M55.3329 48.1478C55.2233 48.2444 55.1283 48.3393 55.0219 48.4211C54.9155 48.503 54.8877 48.3884 54.837 48.3426C53.9563 47.5552 53.3638 46.5666 52.8891 45.5042C52.7942 45.2947 53.002 45.2947 53.0822 45.2194C53.2165 45.095 53.2459 45.2505 53.2868 45.3291C53.8319 46.2998 54.4212 47.241 55.2233 48.0283C55.2576 48.0643 55.2822 48.0921 55.3329 48.1478Z" fill="#F8F2EA"/>
<path d="M63.537 57.2307C62.5106 58.3765 61.6742 59.65 60.8263 60.9186C61.3927 59.4339 62.3797 58.2636 63.537 57.2307Z" fill="#F8F2EA"/>
<path d="M62.342 56.126C63.1244 55.121 64.7187 53.5872 65.4324 53.2288L62.3895 56.1653C62.3757 56.1499 62.3597 56.1367 62.342 56.126Z" fill="#F8F2EA"/>
<path d="M57.9863 53.1895C57.194 54.1241 56.5278 55.1537 55.6636 56.0262C56.3332 54.9995 57.1119 54.0484 57.9863 53.1895Z" fill="#F8F2EA"/>
<path d="M62.797 56.7758C62.1194 57.6286 61.4384 58.4797 60.8459 59.3948C60.8066 59.457 60.7706 59.5748 60.6822 59.5175C60.5627 59.4439 60.6822 59.3538 60.7231 59.2933C61.3145 58.3755 61.9972 57.5199 62.761 56.7397L62.797 56.7758Z" fill="#F8F2EA"/>
<path d="M62.6236 46.033C63.1305 46.526 63.6108 47.0456 64.0624 47.5896C64.2867 47.8548 64.5256 48.1085 64.7581 48.3671C64.7581 48.413 64.7499 48.4588 64.7466 48.5046C63.956 47.7549 63.1818 46.9905 62.5859 46.069L62.6236 46.033Z" fill="#F8F2EA"/>
<path d="M65.7655 50.2093C65.4798 50.019 65.2179 49.7951 64.9855 49.5424L65.0609 49.4604L65.8163 50.1683L65.7655 50.2093Z" fill="#F8F2EA"/>
<path d="M58.5314 54.7354C58.6997 54.4734 58.9019 54.2349 59.1328 54.0259L59.2065 54.0963L58.5707 54.7764L58.5314 54.7354Z" fill="#F8F2EA"/>
<path d="M64.7515 48.5048C64.7515 48.459 64.7515 48.4131 64.7629 48.3672C64.9872 48.5262 65.1749 48.7312 65.3135 48.9686L65.2758 49.0063C65.0742 48.8696 64.897 48.7001 64.7515 48.5048Z" fill="#787878"/>
<path d="M52.2101 56.3314C52.1134 56.1168 51.8545 55.9775 51.9364 55.5842C51.9905 55.912 52.2642 56.0578 52.2052 56.3396L52.2101 56.3314Z" fill="#F8F2EA"/>
<path d="M59.5449 46.1345C59.4777 46.2656 59.2926 46.2558 59.2319 46.3934C59.2319 46.1689 59.3761 46.1312 59.5597 46.1362L59.5449 46.1345Z" fill="#F8F2EA"/>
<path d="M51.5373 53.2139C51.4875 53.3598 51.3985 53.489 51.28 53.5875C51.2811 53.5071 51.2981 53.4278 51.3302 53.3541C51.3623 53.2803 51.4087 53.2138 51.4668 53.1582L51.5373 53.2139Z" fill="#787878"/>
<path d="M58.6619 52.4365C58.6569 52.4945 58.6357 52.5499 58.6008 52.5964C58.5658 52.6429 58.5185 52.6786 58.4642 52.6995C58.4642 52.5443 58.5819 52.5051 58.6635 52.4382L58.6619 52.4365Z" fill="#787878"/>
<path d="M65.313 48.9678C65.3605 49.0333 65.4686 49.0546 65.4539 49.2594L65.2753 49.0055L65.313 48.9678Z" fill="#787878"/>
<path d="M58.9065 46.4177C58.9982 46.6324 58.7 46.5816 58.6934 46.7307C58.6033 46.5177 58.8852 46.5554 58.9065 46.4177Z" fill="#F8F2EA"/>
<path d="M57.8766 47.1201L58.2044 46.9431C58.0405 47.1692 58.0405 47.1692 57.8766 47.1201Z" fill="#F8F2EA"/>
<path d="M51.1377 53.8593C51.1213 53.799 51.126 53.7349 51.151 53.6777C51.176 53.6205 51.2199 53.5735 51.2753 53.5447C51.3294 53.6987 51.2311 53.7561 51.1377 53.8593Z" fill="#787878"/>
<path d="M58.3936 54.9277C58.395 54.9658 58.3817 55.003 58.3565 55.0316C58.3312 55.0601 58.296 55.0779 58.258 55.0812C58.2564 54.9865 58.3038 54.9473 58.3936 54.9277Z" fill="#F8F2EA"/>
<path d="M59.2323 46.393C59.1176 46.3291 59.0291 46.5962 58.9046 46.4176C59.0193 46.4864 59.1078 46.2062 59.2323 46.3947V46.393Z" fill="#F8F2EA"/>
<path d="M58.6938 46.7299L58.4692 46.8048C58.5327 46.7462 58.562 46.5654 58.6922 46.7331L58.6938 46.7299Z" fill="#F8F2EA"/>
<path d="M51.6886 52.8391C51.7179 52.9368 51.6756 53.0019 51.5844 53.0768C51.5388 52.9514 51.6186 52.8993 51.6935 52.8456L51.6886 52.8391Z" fill="#787878"/>
<path d="M62.2577 56.3025C62.2577 56.3511 62.2366 56.3933 62.1912 56.3592C62.1458 56.3252 62.1815 56.2911 62.2269 56.2749L62.2577 56.3025Z" fill="#F8F2EA"/>
<path d="M58.3184 46.8137L58.3984 46.848C58.3724 46.8795 58.3446 46.9095 58.3152 46.9378C58.2809 46.9672 58.2482 46.9378 58.2547 46.9117C58.2705 46.8758 58.292 46.8427 58.3184 46.8137Z" fill="#F8F2EA"/>
<path d="M63.6297 57.0361C63.6492 57.0736 63.6752 57.1012 63.6687 57.1159C63.65 57.1509 63.6252 57.1823 63.5955 57.2087C63.5548 57.2429 63.545 57.1924 63.5222 57.1778L63.6297 57.0361Z" fill="#F8F2EA"/>
<path d="M58.5704 54.7755C58.5344 54.8098 58.5001 54.8963 58.461 54.862C58.394 54.8 58.474 54.7624 58.523 54.7297L58.5704 54.7755Z" fill="#F8F2EA"/>
<path d="M58.1701 53.0371H58.1515C58.1501 53.0448 58.1501 53.0526 58.1515 53.0603H58.1685L58.1701 53.0371Z" fill="#F8F2EA"/>
<path d="M59.7948 45.91C59.8024 45.9158 59.811 45.9201 59.8202 45.9227C59.8202 45.9227 59.8281 45.9084 59.8329 45.9021H59.7885L59.7948 45.91Z" fill="#F8F2EA"/>
<path d="M62.869 56.718C62.7939 56.6314 62.869 56.602 62.9278 56.5661V56.5547C63.0029 56.6412 62.9278 56.6739 62.869 56.7066V56.718Z" fill="#F8F2EA"/>
<path d="M52.2048 56.3384C52.2227 56.2912 52.2537 56.27 52.2879 56.3188C52.3025 56.3384 52.2976 56.397 52.2879 56.4002C52.226 56.4214 52.2423 56.3481 52.2097 56.3286L52.2048 56.3384Z" fill="#F8F2EA"/>
<path d="M59.61 46.0652C59.6573 45.961 59.7273 45.9757 59.8038 46.0278L59.641 46.0847L59.61 46.0652Z" fill="#F8F2EA"/>
<path d="M58.6639 52.4379L58.6719 52.4299L58.6624 52.4347L58.6639 52.4379Z" fill="#787878"/>
<path d="M58.8649 52.2317L58.8588 52.2424L58.8679 52.2347L58.8649 52.2317Z" fill="#787878"/>
<path d="M63.1043 56.3435C63.114 56.3662 63.1773 56.3711 63.1335 56.41C63.1173 56.4262 63.0816 56.423 63.0557 56.4278H63.0654L63.114 56.3451L63.1043 56.3435Z" fill="#F8F2EA"/>
<path d="M58.8686 52.2338L58.9345 52.1663L58.8669 52.2322L58.8686 52.2338Z" fill="#787878"/>
<path d="M58.9356 52.166L58.9435 52.1597L58.934 52.1644L58.9356 52.166Z" fill="#787878"/>
<path d="M62.761 56.7394C62.792 56.7118 62.8164 56.6417 62.8685 56.7183V56.7069C62.8685 56.7459 62.8473 56.7736 62.8034 56.7752L62.761 56.7394Z" fill="#F8F2EA"/>
<path d="M63.1146 56.3513L63.1748 56.2537C63.1878 56.2765 63.2188 56.3058 63.2122 56.322C63.1943 56.3758 63.1471 56.3611 63.1048 56.3513H63.1146Z" fill="#F8F2EA"/>
<path d="M66.0017 50.2823V50.3682C65.9223 50.3326 66.0017 50.3082 66.0017 50.2791V50.2823Z" fill="#F8F2EA"/>
<path d="M59.7884 45.9021C59.7884 45.9446 59.7884 45.987 59.7998 46.0295C59.7149 45.9968 59.7574 45.9544 59.7998 45.9119L59.7884 45.9021Z" fill="#F8F2EA"/>
<path d="M62.2274 56.2744L62.2844 56.1914C62.296 56.2057 62.3085 56.2193 62.3218 56.2321C62.3218 56.2744 62.3023 56.3005 62.2583 56.3021L62.2274 56.2744Z" fill="#F8F2EA"/>
<path d="M65.9996 50.2791L65.9445 50.3488L65.9104 50.3082L66.0012 50.2823L65.9996 50.2791Z" fill="#F8F2EA"/>
<path d="M62.3893 56.1652L62.3223 56.2322C62.3089 56.2193 62.2964 56.2057 62.2847 56.1913L62.3419 56.126C62.3595 56.1366 62.3755 56.1498 62.3893 56.1652Z" fill="#F8F2EA"/>
<path d="M51.4666 53.1579C51.4878 53.1286 51.4975 53.0716 51.548 53.109C51.5985 53.1465 51.548 53.1806 51.5366 53.2132L51.4666 53.1579Z" fill="#787878"/>
<path d="M65.815 50.1677C65.8393 50.1969 65.8944 50.2245 65.8296 50.2634C65.8296 50.2634 65.7874 50.2277 65.7647 50.2083L65.815 50.1677Z" fill="#F8F2EA"/>
<path d="M63.1752 56.2487L63.266 56.26C63.253 56.273 63.2417 56.2973 63.2271 56.3006C63.1833 56.3103 63.1833 56.273 63.1768 56.2422L63.1752 56.2487Z" fill="#F8F2EA"/>
<path d="M51.694 52.8441L51.7209 52.7998C51.7463 52.841 51.7209 52.8441 51.6893 52.8378L51.694 52.8441Z" fill="#787878"/>
<path d="M57.7651 47.2737L57.762 47.2953L57.7744 47.2814L57.7651 47.2737Z" fill="#F8F2EA"/>
<path d="M57.814 47.1772C57.814 47.2194 57.8626 47.2827 57.7653 47.2729L57.775 47.281L57.814 47.1789V47.1772Z" fill="#F8F2EA"/>
<path d="M62.9968 56.5C62.9959 56.491 62.9972 56.4819 63.0004 56.4735C63.0035 56.465 63.0086 56.4574 63.0151 56.4511C63.0217 56.4449 63.0296 56.4402 63.0382 56.4374C63.0468 56.4347 63.0559 56.4339 63.0649 56.4352H63.0552C63.1249 56.487 63.0551 56.5065 63.0324 56.5373L62.9968 56.5Z" fill="#F8F2EA"/>
<path d="M57.8761 47.1198C57.8907 47.1392 57.9231 47.1684 57.9183 47.1765C57.8891 47.2301 57.8534 47.1992 57.8193 47.1765C57.8712 47.1879 57.8874 47.1668 57.8793 47.1182L57.8761 47.1198Z" fill="#F8F2EA"/>
<path d="M59.5526 46.1403C59.4975 46.0592 59.5704 46.0738 59.6094 46.0657L59.6337 46.0868C59.6207 46.1322 59.5866 46.1419 59.5445 46.1338L59.5526 46.1403Z" fill="#F8F2EA"/>
<path d="M62.5904 46.0683C62.5742 46.0504 62.5401 46.0212 62.5434 46.0164C62.5807 45.9596 62.6001 46.0164 62.6277 46.0326L62.5904 46.0683Z" fill="#F8F2EA"/>
<path d="M62.928 56.5659C62.928 56.5252 62.9524 56.5007 62.9963 56.5007L63.0321 56.5317C63.0012 56.561 62.9768 56.6326 62.9214 56.5545L62.928 56.5659Z" fill="#F8F2EA"/>
<defs>
<filter id="filter0_d_2409_116523" x="0" y="0" width="108.547" height="106.662" filterUnits="userSpaceOnUse" color-interpolation-filters="sRGB">
<feFlood flood-opacity="0" result="BackgroundImageFix"/>
<feColorMatrix in="SourceAlpha" type="matrix" values="0 0 0 0 0 0 0 0 0 0 0 0 0 0 0 0 0 0 127 0" result="hardAlpha"/>
<feOffset dx="5" dy="4"/>
<feGaussianBlur stdDeviation="2"/>
<feComposite in2="hardAlpha" operator="out"/>
<feColorMatrix type="matrix" values="0 0 0 0 0 0 0 0 0 0 0 0 0 0 0 0 0 0 0.25 0"/>
<feBlend mode="normal" in2="BackgroundImageFix" result="effect1_dropShadow_2409_116523"/>
<feBlend mode="normal" in="SourceGraphic" in2="effect1_dropShadow_2409_116523" result="shape"/>
</filter>
</defs>
</svg>
