<svg width="55" height="55" viewBox="0 0 55 55" fill="none" xmlns="http://www.w3.org/2000/svg">
    <g filter="url(#filter0_d_0_1)">
        <path
            d="M0 23.0404C0.083884 17.1896 2.02364 12.0381 5.94865 7.68038C9.14762 4.12946 13.1068 1.84864 17.7118 0.688408C19.1322 0.330641 20.5757 0.12286 22.0378 0.0392696C25.0609 -0.13412 28.003 0.263292 30.856 1.29886C33.7759 2.35878 36.3559 3.97374 38.608 6.12321C40.5245 7.95216 42.0188 10.0883 43.233 12.445C44.4832 14.8725 45.2955 17.428 45.6599 20.1348C45.8234 21.3486 45.8969 22.5676 45.8571 23.7904C45.6727 29.4836 43.7092 34.4665 39.8804 38.6608C36.6364 42.2141 32.6446 44.4974 27.9585 45.5281C26.6144 45.8238 25.2543 46.0091 23.8771 46.0397C17.7204 46.1768 12.2916 44.2394 7.66235 40.1449C3.98615 36.893 1.65351 32.8095 0.562544 28.0071C0.224165 26.5188 0.0426529 25.0084 0.0218004 23.4799C0.0199047 23.3414 0.00853057 23.2033 0.000473921 23.0409L0 23.0404Z"
            fill="black" />
        <path
            d="M24.1089 43.7562C20.927 43.8144 17.9593 43.2871 15.1134 42.1135C13.0717 41.2719 11.1642 40.1938 9.50406 38.714C6.77475 36.2818 4.77907 33.3394 3.52176 29.8912C2.97249 28.3856 2.60472 26.8346 2.409 25.244C2.21564 23.6763 2.15734 22.102 2.37013 20.5348C2.65638 18.4274 3.26964 16.4112 4.1862 14.4929C5.99373 10.7098 8.66048 7.6872 12.176 5.44411C14.5039 3.95907 17.0375 2.97032 19.7531 2.46925C21.09 2.22231 22.4383 2.10623 23.7966 2.11913C25.9008 2.13919 27.9675 2.43248 29.9656 3.10215C31.357 3.56835 32.6527 4.25522 33.8792 5.06533C37.8597 7.69484 40.6828 11.2763 42.4577 15.7095C43.2278 17.633 43.7074 19.6311 43.8993 21.6984C43.9922 22.6967 44.0444 23.6974 43.9609 24.6971C43.8619 25.8846 43.6249 27.0496 43.3041 28.1964C42.3515 31.5969 40.6691 34.5846 38.2715 37.1587C35.765 39.8499 32.7688 41.7853 29.2959 42.9542C28.2528 43.3052 27.1647 43.4791 26.0728 43.6119C25.3837 43.6955 24.6918 43.7327 24.1089 43.7566V43.7562Z"
            fill="#F8F2EA" />
        <path
            d="M23.9054 41.6273C21.0703 41.6794 18.426 41.2081 15.8903 40.1593C14.0711 39.4071 12.3715 38.4436 10.8923 37.1211C8.46042 34.9475 6.68224 32.3179 5.56196 29.2362C5.07254 27.8907 4.74486 26.5046 4.57046 25.0831C4.39818 23.682 4.34624 22.275 4.53584 20.8744C4.79089 18.991 5.33731 17.1891 6.15398 15.4748C7.76452 12.0939 10.1406 9.39256 13.273 7.38792C15.3472 6.06074 17.6047 5.1771 20.0243 4.7293C21.2155 4.5086 22.4169 4.40487 23.6271 4.41639C25.502 4.43432 27.3435 4.69643 29.1238 5.29492C30.3636 5.71155 31.5181 6.32541 32.6109 7.0494C36.1576 9.39939 38.6731 12.6002 40.2545 16.5621C40.9407 18.2811 41.368 20.0668 41.539 21.9143C41.6218 22.8065 41.6682 23.7008 41.5939 24.5943C41.5057 25.6555 41.2945 26.6967 41.0087 27.7216C40.1599 30.7606 38.6608 33.4307 36.5246 35.7312C34.2912 38.1363 31.6216 39.866 28.5272 40.9106C27.5977 41.2243 26.6282 41.3797 25.6553 41.4984C25.0413 41.5731 24.4248 41.6064 23.9054 41.6277V41.6273Z"
            fill="black" />
        <path
            d="M6.37125 9.12516C6.85513 8.39052 7.4025 7.70461 7.98732 7.05117C8.31196 6.68863 8.6982 6.3877 9.09582 6.05859C8.23518 7.151 7.30061 8.13832 6.41154 9.16576C6.37647 9.17388 6.35798 9.16576 6.37125 9.12516Z"
            fill="#F8F2EA" />
        <path
            d="M36.7296 6.77673C37.7774 7.637 38.7286 8.59422 39.5731 9.65797C39.5802 9.69284 39.5703 9.71051 39.5319 9.69761C38.6291 8.69262 37.6575 7.75641 36.6851 6.82115C36.6784 6.78485 36.6907 6.76718 36.7291 6.77673H36.7296Z"
            fill="#F8F2EA" />
        <path
            d="M45.3453 21.6091C45.4595 22.5023 45.5192 23.3979 45.4325 24.2969C45.4003 24.6341 45.3491 24.9694 45.3064 25.3057C45.2074 25.2589 45.2733 25.182 45.2723 25.117C45.3249 24.2821 45.3732 23.4471 45.3448 22.6098C45.3339 22.2893 45.3197 21.9688 45.3064 21.6483C45.2936 21.6096 45.3102 21.6 45.3453 21.6086V21.6091Z"
            fill="#F8F2EA" />
        <path
            d="M25.6723 44.439C25.1856 44.5025 24.6993 44.568 24.2122 44.6291C23.7544 44.6869 23.2951 44.7352 22.8378 44.7992C22.7169 44.8164 22.6018 44.7972 22.4842 44.7944C22.4496 44.7934 22.3847 44.8245 22.3928 44.7457C22.398 44.6955 22.4387 44.6759 22.4876 44.6726C22.662 44.6611 22.8359 44.643 23.0108 44.6368C23.797 44.6091 24.5775 44.5183 25.3571 44.4175C25.4609 44.4041 25.5657 44.3874 25.6723 44.4385V44.439Z"
            fill="#F8F2EA" />
        <path
            d="M14.4062 3.80183C15.3465 3.2702 16.3744 2.97119 17.3957 2.65545C17.4365 2.6416 17.4464 2.66023 17.4393 2.69749C16.4299 3.04809 15.4247 3.41159 14.4456 3.84244C14.4067 3.8539 14.3972 3.83718 14.4062 3.80183Z"
            fill="#F8F2EA" />
        <path
            d="M35.6702 40.4281C36.4915 39.703 37.3322 38.9989 38.0933 38.2051C37.9094 38.5671 36.1872 40.1558 35.6702 40.4281Z"
            fill="#F8F2EA" />
        <path
            d="M39.344 7.63452C39.7032 7.90058 41.0828 9.53322 41.2752 9.90436C40.5814 9.19169 40.0359 8.35005 39.344 7.63452Z"
            fill="#F8F2EA" />
        <path
            d="M35.7805 5.42489C35.2828 5.13351 34.7857 4.84166 34.2881 4.55029C34.8364 4.75234 35.4165 4.89755 35.7805 5.42489Z"
            fill="#F8F2EA" />
        <path
            d="M6.2577 10.3325C6.59844 9.83815 6.98327 9.37769 7.36525 8.91579C7.39179 8.88331 7.41454 8.80689 7.47757 8.85465C7.54723 8.90767 7.48563 8.95018 7.45056 8.99222C7.06621 9.45268 6.68186 9.91362 6.29798 10.3746C6.26433 10.3803 6.24537 10.3712 6.25817 10.3325H6.2577Z"
            fill="#F8F2EA" />
        <path
            d="M45.0587 27.1369C44.9596 27.8009 44.8061 28.4519 44.598 29.0901C44.5867 29.1039 44.5748 29.1044 44.562 29.0915C44.7284 28.4022 44.8975 27.7139 45.0175 27.0142C45.107 27.029 45.0563 27.092 45.0587 27.1364V27.1369Z"
            fill="#F8F2EA" />
        <path
            d="M39.5327 9.6976C39.5465 9.68423 39.5602 9.67133 39.5739 9.65796C40.0337 10.1901 40.4346 10.7656 40.8151 11.3565C40.8279 11.3938 40.8104 11.4 40.7791 11.3923C40.3953 10.8039 39.9597 10.2541 39.5327 9.6976Z"
            fill="#F8F2EA" />
        <path
            d="M45.0591 27.1367C45.0406 27.0976 45.0671 27.0426 45.0178 27.0144C45.1027 26.382 45.1875 25.7496 45.2723 25.1172C45.296 25.1779 45.2595 25.2495 45.3064 25.3059C45.224 25.9163 45.1415 26.5263 45.0595 27.1367H45.0591Z"
            fill="#F8F2EA" />
        <path
            d="M44.3783 29.8121C44.275 30.338 44.0555 30.8242 43.8726 31.3229C43.8404 31.4108 43.803 31.4968 43.7679 31.5837C43.7366 31.588 43.7143 31.5847 43.7352 31.5445C43.948 30.9594 44.1717 30.3776 44.3489 29.7801C44.3631 29.7748 44.3773 29.77 44.3868 29.7867C44.3906 29.7934 44.3854 29.803 44.3788 29.8121H44.3783Z"
            fill="#F8F2EA" />
        <path
            d="M44.7036 17.0999C44.8785 17.6477 45.0467 18.1975 45.0643 18.7783C44.9439 18.219 44.824 17.6597 44.7036 17.0999Z"
            fill="#F8F2EA" />
        <path
            d="M21.9822 1.68199C22.3917 1.64187 22.7993 1.5769 23.2106 1.56592C23.2125 1.58885 23.2149 1.6113 23.2168 1.63422C22.8182 1.66384 22.4197 1.69345 22.0206 1.72307C21.9827 1.7331 21.9718 1.71734 21.9818 1.68151L21.9822 1.68199Z"
            fill="#F8F2EA" />
        <path
            d="M1.69123 23.0171V24.1458C1.67133 24.1458 1.65142 24.1448 1.63152 24.1444C1.54716 23.7384 1.69502 23.34 1.69123 23.0171Z"
            fill="#F8F2EA" />
        <path
            d="M2.8578 16.1225C2.78292 16.3279 2.70615 16.5333 2.63364 16.7397C2.61468 16.7936 2.59193 16.8371 2.52937 16.8118C2.44881 16.7788 2.50994 16.732 2.52795 16.6948C2.62037 16.5028 2.71515 16.3126 2.80946 16.1216C2.82605 16.1058 2.84216 16.1063 2.85828 16.123L2.8578 16.1225Z"
            fill="#F8F2EA" />
        <path
            d="M18.4479 2.0871C18.0839 2.17833 17.7204 2.26956 17.3564 2.36127C17.6849 2.17642 18.0469 2.11241 18.409 2.04745C18.446 2.03694 18.4569 2.05223 18.4479 2.08757V2.0871Z"
            fill="#F8F2EA" />
        <path
            d="M2.51537 28.9423C2.34096 28.5879 2.29168 28.1981 2.24097 27.8083C2.33243 28.1862 2.4239 28.5645 2.51537 28.9423Z"
            fill="#F8F2EA" />
        <path
            d="M6.25727 10.3323C6.27054 10.3461 6.28381 10.3605 6.29708 10.3743C6.13073 10.605 5.96438 10.8362 5.79804 11.0669C5.78382 11.0574 5.77008 11.0478 5.75586 11.0383C5.91652 10.7989 6.06912 10.5539 6.25727 10.3323Z"
            fill="#F8F2EA" />
        <path
            d="M9.28271 39.5862C9.50546 39.7643 9.7282 39.9425 9.95094 40.1207C9.60261 39.9588 9.38698 39.7854 9.28271 39.5862Z"
            fill="#F8F2EA" />
        <path
            d="M26.6246 1.34766C26.3715 1.32855 26.118 1.30897 25.8464 1.28843C26.1256 1.14131 26.3739 1.31422 26.6294 1.30085C26.6275 1.31614 26.626 1.3319 26.6241 1.34718L26.6246 1.34766Z"
            fill="#F8F2EA" />
        <path
            d="M31.2673 3.25879C31.5597 3.29652 31.8133 3.40973 32.0441 3.57978C31.7853 3.47278 31.5261 3.36578 31.2673 3.25879Z"
            fill="#F8F2EA" />
        <path
            d="M17.4394 2.69733C17.4247 2.68347 17.4104 2.66914 17.3958 2.65529C17.6081 2.55689 17.8351 2.51438 18.0583 2.4585C18.063 2.47378 18.0678 2.48907 18.0725 2.50435C17.8611 2.56884 17.6502 2.63284 17.4389 2.69733H17.4394Z"
            fill="#F8F2EA" />
        <path
            d="M27.9088 44.2557C28.0894 44.2017 28.2699 44.1472 28.4505 44.0933C28.3429 44.2815 28.1448 44.2385 27.987 44.2967C27.9481 44.3073 27.9041 44.3287 27.9088 44.2557Z"
            fill="#F8F2EA" />
        <path
            d="M24.4126 45.0625C24.7022 45.0573 24.9879 44.9746 25.2803 45.03C24.9908 45.0353 24.706 45.1303 24.4126 45.0625Z"
            fill="#F8F2EA" />
        <path
            d="M8.63159 38.4307C8.79604 38.5864 8.96097 38.7426 9.12542 38.8983C9.11499 38.9093 9.10409 38.9207 9.09366 38.9317C8.91168 38.7937 8.75244 38.6322 8.63159 38.4307Z"
            fill="#F8F2EA" />
        <path
            d="M9.62282 39.3877C9.44794 39.2669 9.28965 39.1279 9.15601 38.9612C9.33894 39.0715 9.49865 39.21 9.64936 39.36C9.65315 39.381 9.64414 39.3906 9.62282 39.3877Z"
            fill="#F8F2EA" />
        <path
            d="M3.47157 32.0912C3.35593 31.9006 3.2801 31.6947 3.25024 31.4697C3.33365 31.6684 3.41706 31.8676 3.50047 32.0663C3.50047 32.0859 3.491 32.094 3.47204 32.0916L3.47157 32.0912Z"
            fill="#F8F2EA" />
        <path
            d="M36.7298 6.77676C36.7151 6.79156 36.7005 6.80637 36.6858 6.82118C36.5725 6.71705 36.4592 6.61292 36.3464 6.50879C36.5033 6.56085 36.6242 6.65877 36.7303 6.77676H36.7298Z"
            fill="#F8F2EA" />
        <path
            d="M40.7791 11.3923C40.7909 11.3803 40.8032 11.3684 40.8151 11.3564C40.9388 11.495 41.0236 11.6564 41.0828 11.836C40.9814 11.6879 40.8805 11.5399 40.7791 11.3923Z"
            fill="#F8F2EA" />
        <path
            d="M18.4478 2.08699C18.435 2.07361 18.4217 2.06024 18.4089 2.04686C18.5923 1.98572 18.7786 1.93891 18.9729 1.93652C18.9772 1.9413 18.981 1.94655 18.9852 1.95133C18.8132 2.02585 18.6284 2.04686 18.4478 2.08651V2.08699Z"
            fill="#F8F2EA" />
        <path
            d="M12.3699 41.2988C12.5054 41.3786 12.6414 41.4584 12.777 41.5377C12.6125 41.5109 12.4741 41.4335 12.3699 41.2988Z"
            fill="#F8F2EA" />
        <path
            d="M27.9088 44.2556C27.9183 44.3015 27.9609 44.2828 27.987 44.2967C27.8249 44.3349 27.6633 44.3736 27.5012 44.4118C27.6254 44.3211 27.7657 44.2838 27.9088 44.2556Z"
            fill="#F8F2EA" />
        <path
            d="M45.3453 21.6089C45.3325 21.6222 45.3197 21.6351 45.3064 21.6485C45.2562 21.5095 45.2699 21.3677 45.304 21.2239L45.3453 21.6089Z"
            fill="#F8F2EA" />
        <path
            d="M10.1999 39.844C10.0747 39.769 9.95579 39.6859 9.85627 39.5779C9.85532 39.5593 9.8648 39.5526 9.88233 39.5569C10.0065 39.6114 10.0946 39.7141 10.1989 39.7953C10.2155 39.811 10.216 39.8273 10.1999 39.844Z"
            fill="#F8F2EA" />
        <path
            d="M14.4062 3.80175C14.4194 3.81512 14.4322 3.82897 14.4455 3.84235C14.3455 3.91256 14.2346 3.95651 14.1138 3.97562C14.1995 3.89585 14.2962 3.83757 14.4057 3.80127L14.4062 3.80175Z"
            fill="#F8F2EA" />
        <path
            d="M21.9821 1.68188C21.9949 1.69574 22.0082 1.70959 22.021 1.72344C21.8964 1.78745 21.7665 1.7564 21.6348 1.72678C21.7504 1.71198 21.8665 1.69669 21.9821 1.68188Z"
            fill="#F8F2EA" />
        <path
            d="M2.85765 16.1225C2.84154 16.1225 2.82495 16.1216 2.80884 16.1211C2.8567 16.0146 2.90457 15.908 2.95244 15.802C2.94912 15.9205 2.93016 16.0313 2.85765 16.1225Z"
            fill="#F8F2EA" />
        <path
            d="M3.65552 14.0673C3.71286 13.9493 3.77021 13.8309 3.82755 13.7129C3.84177 13.7196 3.85646 13.7263 3.87068 13.733C3.81618 13.8524 3.78205 13.9813 3.65552 14.0673Z"
            fill="#F8F2EA" />
        <path
            d="M44.0458 17.5948C44.0178 17.482 43.9899 17.3693 43.9619 17.2566C44.0439 17.3402 44.079 17.4395 44.0804 17.5504C44.0984 17.5886 44.0804 17.5986 44.0453 17.5948H44.0458Z"
            fill="#F8F2EA" />
        <path
            d="M43.7349 31.5447C43.7458 31.5576 43.7567 31.5709 43.7676 31.5838C43.7325 31.6837 43.6932 31.7811 43.5984 31.8872C43.6335 31.7458 43.6756 31.6421 43.7349 31.5447Z"
            fill="#F8F2EA" />
        <path
            d="M6.37132 9.12524C6.38459 9.13862 6.39834 9.15247 6.41161 9.16584C6.36658 9.26902 6.28507 9.3421 6.20166 9.41566C6.23531 9.30484 6.28934 9.20692 6.37132 9.12524Z"
            fill="#F8F2EA" />
        <path
            d="M3.49987 32.0664C3.55958 32.1715 3.61598 32.2771 3.6283 32.4022C3.55627 32.3086 3.4975 32.2087 3.47144 32.0917C3.48091 32.0831 3.49039 32.075 3.49987 32.0664Z"
            fill="#F8F2EA" />
        <path
            d="M10.1997 39.8439C10.1997 39.8276 10.1992 39.8114 10.1987 39.7952C10.2926 39.8496 10.3783 39.9141 10.4433 40.0068C10.3528 39.9671 10.2618 39.9289 10.1997 39.8444V39.8439Z"
            fill="#F8F2EA" />
        <path
            d="M43.7439 16.3452C43.6709 16.2645 43.6164 16.1771 43.6358 16.0256C43.6808 16.1589 43.7126 16.252 43.7439 16.3452Z"
            fill="#F8F2EA" />
        <path
            d="M44.0457 17.5947C44.0575 17.5799 44.0689 17.5651 44.0807 17.5503C44.1281 17.6391 44.1419 17.7351 44.1272 17.8383C44.1002 17.7571 44.0727 17.6759 44.0457 17.5947Z"
            fill="#F8F2EA" />
        <path
            d="M44.5626 29.0915C44.575 29.0968 44.5868 29.0958 44.5986 29.0901C44.5716 29.177 44.5446 29.2644 44.5015 29.4034C44.4863 29.253 44.511 29.1694 44.5626 29.092V29.0915Z"
            fill="#F8F2EA" />
        <path
            d="M18.9729 1.93696C19.0715 1.88681 19.1748 1.86483 19.3241 1.88251C19.1862 1.91069 19.0919 1.95893 18.9852 1.95177C18.981 1.94699 18.9772 1.94174 18.9729 1.93696Z"
            fill="#F8F2EA" />
        <path
            d="M9.85622 39.5779C9.77849 39.5144 9.70077 39.4513 9.62305 39.3878C9.63205 39.3787 9.64058 39.3692 9.64959 39.3601C9.73821 39.4126 9.81641 39.4776 9.88228 39.5569C9.87091 39.5602 9.86238 39.5674 9.85622 39.5779Z"
            fill="#F8F2EA" />
        <path
            d="M44.3785 29.8123C44.3685 29.8018 44.3586 29.7909 44.3486 29.7803C44.3723 29.6972 44.396 29.6141 44.4197 29.531C44.4325 29.6304 44.4363 29.7273 44.378 29.8123H44.3785Z"
            fill="#F8F2EA" />
    </g>
    <g clip-path="url(#clip0_0_1)">
        <path
            d="M31.1692 24.5687C31.3584 24.3254 31.4503 24.0118 31.3665 23.6919L28.8821 14.2751C28.7379 13.7308 28.1783 13.4046 27.6349 13.5488L11.7596 17.7345C11.2181 17.8778 10.891 18.4392 11.0333 18.9826L13.5178 28.3985C13.6601 28.9419 14.2224 29.2681 14.7659 29.1258L20.3754 27.6461V30.7992C20.3754 32.5627 23.2978 33.4855 26.1868 33.4855C29.0741 33.4855 32 32.5627 32 30.7992V26.0177C32 25.4437 31.6855 24.9607 31.1692 24.5687ZM29.3714 21.3228L29.6309 22.3033L26.4751 23.1368L26.2174 22.1546L29.3714 21.3228ZM27.5403 15.1194L28.0332 16.9866L23.1031 18.2878L22.6102 16.4207L27.5403 15.1194ZM25.328 22.3889L25.5803 23.3477C24.4134 23.3999 23.2779 23.6036 22.366 23.9514L22.1731 23.2233L25.328 22.3889ZM14.3414 26.3358L14.0837 25.3572L17.2385 24.5227L17.498 25.5067L14.3414 26.3358ZM18.128 24.2894L21.281 23.4558L21.5198 24.3542C21.4432 24.4011 21.3711 24.4497 21.3008 24.4993L18.3857 25.2689L18.128 24.2894ZM30.9475 30.7216C30.9475 31.7498 28.8172 32.5825 26.1868 32.5825C23.5591 32.5825 21.427 31.749 21.427 30.7216V29.5637C21.427 29.5249 21.4495 29.4898 21.4559 29.4529C21.6063 30.4279 23.6555 31.2011 26.1868 31.2011C28.719 31.2011 30.7691 30.4279 30.9187 29.4529C30.925 29.4898 30.9475 29.525 30.9475 29.5637V30.7216ZM30.9475 28.4436C30.9475 29.4709 28.8172 30.3035 26.1868 30.3035C23.5591 30.3035 21.427 29.4709 21.427 28.4436V27.2856C21.427 27.2478 21.4495 27.2117 21.4559 27.1748C21.6063 28.1489 23.6555 28.9239 26.1868 28.9239C28.719 28.9239 30.7691 28.1489 30.9187 27.1748C30.925 27.2117 30.9475 27.2478 30.9475 27.2856V28.4436ZM26.1868 27.8768C23.5591 27.8768 21.427 27.0441 21.427 26.0177C21.427 24.9913 23.5591 24.1587 26.1868 24.1587C28.8172 24.1587 30.9475 24.9913 30.9475 26.0177C30.9475 27.0441 28.8172 27.8768 26.1868 27.8768Z"
            fill="#F8F2EA" />
    </g>
    <defs>
        <filter id="filter0_d_0_1" x="0" y="0" width="54.8677" height="54.0464"
            filterUnits="userSpaceOnUse" color-interpolation-filters="sRGB">
            <feFlood flood-opacity="0" result="BackgroundImageFix" />
            <feColorMatrix in="SourceAlpha" type="matrix"
                values="0 0 0 0 0 0 0 0 0 0 0 0 0 0 0 0 0 0 127 0" result="hardAlpha" />
            <feOffset dx="5" dy="4" />
            <feGaussianBlur stdDeviation="2" />
            <feComposite in2="hardAlpha" operator="out" />
            <feColorMatrix type="matrix" values="0 0 0 0 0 0 0 0 0 0 0 0 0 0 0 0 0 0 0.25 0" />
            <feBlend mode="normal" in2="BackgroundImageFix" result="effect1_dropShadow_0_1" />
            <feBlend mode="normal" in="SourceGraphic" in2="effect1_dropShadow_0_1" result="shape" />
        </filter>
        <clipPath id="clip0_0_1">
            <rect width="21" height="21" fill="white" transform="translate(11 13)" />
        </clipPath>
    </defs>
</svg>