<svg width="124" height="123" viewBox="0 0 124 123" fill="none" xmlns="http://www.w3.org/2000/svg">
<g filter="url(#filter0_d_2246_630)">
<path d="M0 57.0665C0.210054 42.5812 5.0674 29.8272 14.896 19.0387C22.9065 10.2475 32.8206 4.60071 44.3522 1.72826C47.9088 0.842514 51.5237 0.328097 55.1848 0.121148C62.755 -0.308124 70.1223 0.675772 77.2665 3.23958C84.578 5.86369 91.0387 9.86195 96.6781 15.1835C101.477 19.7116 105.219 25 108.26 30.8348C111.39 36.8446 113.424 43.1713 114.337 49.8729C114.746 52.8778 114.93 55.8958 114.831 58.9231C114.369 73.0182 109.452 85.3547 99.8645 95.7388C91.7412 104.536 81.7453 110.189 70.0108 112.741C66.6452 113.473 63.2392 113.931 59.7905 114.007C44.3735 114.347 30.7794 109.55 19.1873 99.413C9.9817 91.3621 4.14055 81.2524 1.40866 69.3628C0.56133 65.6779 0.106807 61.9387 0.0545902 58.1545C0.0498432 57.8115 0.0213614 57.4697 0.00118674 57.0677L0 57.0665Z" fill="#060000"/>
<path d="M60.3712 108.353C52.4034 108.498 44.972 107.192 37.8456 104.287C32.7331 102.203 27.9565 99.5338 23.7993 95.8702C16.9649 89.8485 11.9675 82.5639 8.81907 74.027C7.44364 70.2995 6.52272 66.4597 6.0326 62.5218C5.54841 58.6406 5.40244 54.7429 5.93529 50.8629C6.65208 45.6454 8.18773 40.6537 10.4829 35.9046C15.0091 26.5386 21.6869 19.0553 30.4902 13.502C36.3195 9.8254 42.6638 7.37749 49.4639 6.13698C52.8117 5.52559 56.1879 5.23823 59.5892 5.27016C64.8583 5.31982 70.0337 6.04592 75.037 7.70388C78.5213 8.85806 81.7658 10.5586 84.8371 12.5642C94.8046 19.0743 101.874 27.9412 106.318 38.9166C108.247 43.6788 109.448 48.6254 109.928 53.7436C110.161 56.2151 110.292 58.6926 110.083 61.1677C109.835 64.1076 109.241 66.9919 108.438 69.8312C106.053 78.2499 101.84 85.6469 95.8359 92.0197C89.5592 98.6823 82.0566 103.474 73.3601 106.368C70.7481 107.237 68.0233 107.667 65.2891 107.996C63.5636 108.203 61.8309 108.295 60.3712 108.355V108.353Z" fill="#F8F2EA"/>
<path d="M59.7042 102.99C52.6194 103.119 46.0115 101.954 39.6748 99.3613C35.1289 97.5019 30.8816 95.1201 27.1851 91.8508C21.108 86.4773 16.6644 79.9767 13.8649 72.3586C12.6419 69.0323 11.823 65.6058 11.3872 62.0917C10.9566 58.6283 10.8268 55.15 11.3006 51.6877C11.938 47.0317 13.3035 42.5774 15.3443 38.3393C19.369 29.9815 25.3068 23.3036 33.1345 18.348C38.3178 15.0671 43.9591 12.8827 50.0055 11.7757C52.9824 11.2301 55.9845 10.9736 59.0088 11.0021C63.694 11.0465 68.2959 11.6944 72.7448 13.1739C75.8429 14.2039 78.7279 15.7214 81.4589 17.5111C90.3218 23.3205 96.6078 31.233 100.56 41.0271C102.274 45.2768 103.342 49.691 103.77 54.2583C103.976 56.4639 104.093 58.6747 103.907 60.8834C103.686 63.5069 103.159 66.0807 102.444 68.6145C100.323 76.127 96.5772 82.7279 91.2388 88.4148C85.6576 94.3603 78.9865 98.6363 71.2537 101.219C68.9311 101.994 66.5083 102.378 64.0771 102.672C62.5428 102.856 61.0021 102.939 59.7042 102.991V102.99Z" fill="#181818"/>
<path d="M15.9546 22.616C17.1663 20.7972 18.537 19.0991 20.0014 17.4813C20.8144 16.5837 21.7815 15.8387 22.7772 15.0239C20.6221 17.7285 18.2818 20.1728 16.0555 22.7165C15.9677 22.7366 15.9214 22.7165 15.9546 22.616Z" fill="#F8F2EA"/>
<path d="M91.9747 16.8014C94.5986 18.9312 96.9804 21.3011 99.0952 23.9346C99.113 24.021 99.0881 24.0647 98.9919 24.0328C96.7312 21.5447 94.2984 19.2268 91.8632 16.9114C91.8465 16.8215 91.8774 16.7777 91.9735 16.8014H91.9747Z" fill="#F8F2EA"/>
<path d="M113.549 53.5225C113.835 55.7339 113.985 57.9512 113.768 60.1768C113.687 61.0117 113.559 61.8418 113.452 62.6743C113.204 62.5584 113.369 62.3681 113.367 62.2072C113.498 60.1401 113.619 58.073 113.548 55.9999C113.521 55.2064 113.485 54.4129 113.452 53.6194C113.42 53.5236 113.461 53.5 113.549 53.5213V53.5225Z" fill="#F8F2EA"/>
<path d="M64.2858 110.044C63.067 110.202 61.8494 110.364 60.6294 110.515C59.483 110.658 58.3331 110.778 57.1878 110.936C56.8852 110.979 56.5968 110.931 56.3025 110.924C56.2159 110.922 56.0533 110.999 56.0735 110.804C56.0865 110.679 56.1886 110.631 56.3108 110.623C56.7476 110.594 57.1831 110.549 57.621 110.534C59.5898 110.465 61.5444 110.241 63.4966 109.991C63.7565 109.958 64.0187 109.917 64.2858 110.043V110.044Z" fill="#F8F2EA"/>
<path d="M36.0743 9.43628C38.4288 8.12008 41.0028 7.3798 43.5603 6.59812C43.6623 6.56382 43.6872 6.60994 43.6694 6.70218C41.1417 7.57019 38.6246 8.47012 36.1728 9.5368C36.0755 9.56518 36.0517 9.52379 36.0743 9.43628Z" fill="#F8F2EA"/>
<path d="M89.3213 100.115C91.3779 98.3194 93.4832 96.5763 95.3891 94.6109C94.9287 95.5073 90.616 99.4405 89.3213 100.115Z" fill="#F8F2EA"/>
<path d="M98.5215 18.9252C99.421 19.5839 102.876 23.6259 103.357 24.5448C101.62 22.7804 100.254 20.6967 98.5215 18.9252Z" fill="#F8F2EA"/>
<path d="M89.5979 13.4547C88.3518 12.7333 87.1069 12.0108 85.8608 11.2894C87.2339 11.7897 88.6865 12.1492 89.5979 13.4547Z" fill="#F8F2EA"/>
<path d="M15.6695 25.6044C16.5228 24.3805 17.4864 23.2405 18.4429 22.097C18.5094 22.0165 18.5664 21.8273 18.7242 21.9456C18.8987 22.0769 18.7444 22.1821 18.6566 22.2862C17.6941 23.4262 16.7317 24.5673 15.7704 25.7085C15.6861 25.7227 15.6387 25.7002 15.6707 25.6044H15.6695Z" fill="#F8F2EA"/>
<path d="M112.832 67.2084C112.584 68.8522 112.199 70.464 111.678 72.0439C111.65 72.0782 111.62 72.0794 111.588 72.0475C112.004 70.341 112.428 68.6369 112.728 66.9045C112.953 66.9411 112.826 67.0972 112.832 67.2072V67.2084Z" fill="#F8F2EA"/>
<path d="M98.9937 24.0327C99.0281 23.9996 99.0625 23.9677 99.0969 23.9346C100.248 25.252 101.252 26.6769 102.205 28.1398C102.237 28.232 102.193 28.2474 102.115 28.2285C101.154 26.7715 100.063 25.4104 98.9937 24.0327Z" fill="#F8F2EA"/>
<path d="M112.832 67.2082C112.786 67.1112 112.852 66.9752 112.729 66.9055C112.941 65.3398 113.154 63.774 113.366 62.2083C113.426 62.3585 113.334 62.5359 113.452 62.6754C113.245 64.1867 113.039 65.6969 112.833 67.2082H112.832Z" fill="#F8F2EA"/>
<path d="M111.127 73.8317C110.869 75.1337 110.319 76.3376 109.861 77.5722C109.78 77.7897 109.687 78.0026 109.599 78.2178C109.521 78.2285 109.465 78.2202 109.517 78.1209C110.05 76.6722 110.61 75.2318 111.054 73.7525C111.089 73.7394 111.125 73.7276 111.149 73.769C111.158 73.7856 111.145 73.8092 111.129 73.8317H111.127Z" fill="#F8F2EA"/>
<path d="M111.942 42.359C112.38 43.7154 112.802 45.0766 112.845 46.5146C112.544 45.1298 112.244 43.745 111.942 42.359Z" fill="#F8F2EA"/>
<path d="M55.0456 4.18812C56.0709 4.08879 57.0915 3.92796 58.1216 3.90076C58.1263 3.95752 58.1323 4.0131 58.137 4.06986C57.139 4.14318 56.1409 4.2165 55.1417 4.28982C55.0467 4.31466 55.0194 4.27563 55.0444 4.18694L55.0456 4.18812Z" fill="#F8F2EA"/>
<path d="M4.23526 57.0086V59.803C4.18542 59.803 4.13558 59.8006 4.08573 59.7995C3.87449 58.7943 4.24476 57.808 4.23526 57.0086Z" fill="#F8F2EA"/>
<path d="M7.15602 39.9395C6.96852 40.448 6.77627 40.9565 6.59469 41.4673C6.54722 41.601 6.49026 41.7086 6.33361 41.6459C6.13186 41.5643 6.28495 41.4484 6.33005 41.3562C6.56147 40.8808 6.79881 40.4101 7.03498 39.9371C7.07651 39.8981 7.11686 39.8993 7.15721 39.9406L7.15602 39.9395Z" fill="#F8F2EA"/>
<path d="M46.195 5.19088C45.2836 5.41675 44.3733 5.64262 43.4619 5.86968C44.2843 5.41202 45.191 5.25356 46.0977 5.09273C46.1902 5.06671 46.2175 5.10456 46.195 5.19207V5.19088Z" fill="#F8F2EA"/>
<path d="M6.29894 71.6784C5.86222 70.8009 5.7388 69.8359 5.61182 68.871C5.84086 69.8064 6.0699 70.743 6.29894 71.6784Z" fill="#F8F2EA"/>
<path d="M15.6691 25.6044C15.7024 25.6387 15.7356 25.6741 15.7688 25.7084C15.3523 26.2796 14.9357 26.852 14.5192 27.4232C14.4836 27.3995 14.4492 27.3759 14.4136 27.3522C14.8159 26.7597 15.198 26.1531 15.6691 25.6044Z" fill="#F8F2EA"/>
<path d="M23.2446 98.0296C23.8024 98.4707 24.3602 98.9118 24.9179 99.3529C24.0457 98.952 23.5057 98.5227 23.2446 98.0296Z" fill="#F8F2EA"/>
<path d="M66.6703 3.36041C66.0366 3.31311 65.4017 3.26462 64.7217 3.21377C65.4207 2.84954 66.0425 3.27763 66.6822 3.24452C66.6774 3.28236 66.6739 3.32138 66.6691 3.35923L66.6703 3.36041Z" fill="#F8F2EA"/>
<path d="M78.2969 8.0918C79.0291 8.18522 79.664 8.46549 80.2419 8.88648C79.594 8.62159 78.9448 8.35669 78.2969 8.0918Z" fill="#F8F2EA"/>
<path d="M43.6697 6.70225C43.6329 6.66795 43.5973 6.63247 43.5605 6.59818C44.0922 6.35457 44.6607 6.24932 45.2196 6.11096C45.2315 6.1488 45.2433 6.18665 45.2552 6.22449C44.7259 6.38413 44.1978 6.5426 43.6685 6.70225H43.6697Z" fill="#F8F2EA"/>
<path d="M69.8861 109.59C70.3383 109.457 70.7904 109.322 71.2426 109.188C70.9732 109.654 70.4771 109.548 70.0819 109.692C69.9846 109.718 69.8743 109.771 69.8861 109.59Z" fill="#F8F2EA"/>
<path d="M61.1313 111.588C61.8564 111.575 62.5721 111.37 63.3043 111.507C62.5792 111.52 61.8659 111.756 61.1313 111.588Z" fill="#F8F2EA"/>
<path d="M21.6143 95.1689C22.0261 95.5544 22.439 95.9411 22.8508 96.3266C22.8247 96.3538 22.7974 96.3822 22.7713 96.4094C22.3156 96.0676 21.9169 95.6679 21.6143 95.1689Z" fill="#F8F2EA"/>
<path d="M24.0967 97.5387C23.6588 97.2395 23.2624 96.8954 22.9277 96.4826C23.3858 96.7558 23.7858 97.0988 24.1631 97.4701C24.1726 97.5221 24.1501 97.5458 24.0967 97.5387Z" fill="#F8F2EA"/>
<path d="M8.69288 79.4739C8.40332 79.0021 8.21344 78.4924 8.13867 77.9354C8.34754 78.4274 8.55641 78.9205 8.76527 79.4125C8.76527 79.4609 8.74154 79.481 8.69407 79.4751L8.69288 79.4739Z" fill="#F8F2EA"/>
<path d="M91.9752 16.8012C91.9384 16.8379 91.9016 16.8746 91.8648 16.9112C91.5812 16.6534 91.2976 16.3956 91.0151 16.1378C91.4079 16.2667 91.7106 16.5091 91.9764 16.8012H91.9752Z" fill="#F8F2EA"/>
<path d="M102.115 28.2286C102.144 28.199 102.175 28.1695 102.205 28.1399C102.515 28.4828 102.727 28.8825 102.875 29.3272C102.621 28.9606 102.369 28.594 102.115 28.2286Z" fill="#F8F2EA"/>
<path d="M46.1955 5.19099C46.1634 5.15788 46.1302 5.12477 46.0981 5.09165C46.5574 4.94029 47.0238 4.82439 47.5104 4.81848C47.521 4.83031 47.5305 4.84332 47.5412 4.85514C47.1104 5.03962 46.6476 5.09165 46.1955 5.18981V5.19099Z" fill="#F8F2EA"/>
<path d="M30.9751 102.27C31.3145 102.468 31.6551 102.665 31.9945 102.861C31.5827 102.795 31.2362 102.604 30.9751 102.27Z" fill="#F8F2EA"/>
<path d="M69.8858 109.59C69.9096 109.704 70.0164 109.658 70.0816 109.692C69.6758 109.787 69.2711 109.882 68.8652 109.977C69.1762 109.752 69.5274 109.66 69.8858 109.59Z" fill="#F8F2EA"/>
<path d="M113.549 53.5224C113.517 53.5555 113.485 53.5874 113.452 53.6205C113.326 53.2764 113.36 52.9252 113.446 52.5692L113.549 53.5224Z" fill="#F8F2EA"/>
<path d="M25.5412 98.668C25.2279 98.4824 24.93 98.2766 24.6808 98.0093C24.6785 97.9632 24.7022 97.9467 24.7461 97.9573C25.057 98.0921 25.2778 98.3464 25.5388 98.5474C25.5804 98.5864 25.5816 98.6266 25.5412 98.668Z" fill="#F8F2EA"/>
<path d="M36.0745 9.43636C36.1077 9.46948 36.1398 9.50377 36.173 9.53688C35.9226 9.71072 35.6449 9.81952 35.3423 9.86682C35.5571 9.66933 35.7992 9.52506 36.0733 9.43518L36.0745 9.43636Z" fill="#F8F2EA"/>
<path d="M55.0457 4.18805C55.0777 4.22234 55.1109 4.25664 55.143 4.29093C54.8309 4.4494 54.5057 4.37253 54.1758 4.29921C54.4653 4.26255 54.7561 4.22471 55.0457 4.18805Z" fill="#F8F2EA"/>
<path d="M7.15544 39.9393C7.11509 39.9393 7.07355 39.937 7.0332 39.9358C7.15306 39.6721 7.27293 39.4083 7.39279 39.1458C7.38448 39.4391 7.33701 39.7134 7.15544 39.9393Z" fill="#F8F2EA"/>
<path d="M9.1543 34.8508C9.29789 34.5587 9.44149 34.2654 9.58508 33.9733C9.62069 33.9899 9.65748 34.0064 9.69308 34.023C9.5566 34.3186 9.47116 34.6379 9.1543 34.8508Z" fill="#F8F2EA"/>
<path d="M110.295 43.5842C110.225 43.3051 110.154 43.026 110.084 42.7469C110.29 42.9539 110.378 43.1999 110.381 43.4742C110.426 43.5688 110.381 43.5937 110.293 43.5842H110.295Z" fill="#F8F2EA"/>
<path d="M109.517 78.121C109.544 78.1529 109.571 78.186 109.598 78.2179C109.511 78.4651 109.412 78.7063 109.175 78.9689C109.263 78.6188 109.368 78.3622 109.517 78.121Z" fill="#F8F2EA"/>
<path d="M15.9542 22.616C15.9874 22.6491 16.0218 22.6834 16.055 22.7165C15.9423 22.9719 15.7382 23.1529 15.5293 23.335C15.6136 23.0606 15.7488 22.8182 15.9542 22.616Z" fill="#F8F2EA"/>
<path d="M8.76408 79.4124C8.91361 79.6725 9.05483 79.9339 9.08568 80.2437C8.9053 80.0119 8.75814 79.7648 8.69287 79.475C8.71661 79.4537 8.74034 79.4336 8.76408 79.4124Z" fill="#F8F2EA"/>
<path d="M25.5409 98.6681C25.5409 98.6279 25.5398 98.5877 25.5386 98.5475C25.7735 98.6823 25.9884 98.8419 26.1509 99.0714C25.9243 98.9732 25.6964 98.8786 25.5409 98.6693V98.6681Z" fill="#F8F2EA"/>
<path d="M109.539 40.4907C109.356 40.2908 109.22 40.0744 109.268 39.6995C109.381 40.0295 109.46 40.2601 109.539 40.4907Z" fill="#F8F2EA"/>
<path d="M110.295 43.5841C110.325 43.5474 110.353 43.5108 110.383 43.4741C110.501 43.6941 110.536 43.9318 110.499 44.1872C110.431 43.9862 110.363 43.7851 110.295 43.5841Z" fill="#F8F2EA"/>
<path d="M111.588 72.0474C111.619 72.0604 111.649 72.058 111.679 72.0438C111.611 72.2591 111.543 72.4755 111.435 72.8196C111.397 72.4471 111.459 72.2401 111.588 72.0486V72.0474Z" fill="#F8F2EA"/>
<path d="M47.5098 4.81957C47.7566 4.6954 48.0153 4.641 48.3891 4.68476C48.0438 4.75453 47.8076 4.87397 47.5406 4.85623C47.5299 4.84441 47.5204 4.8314 47.5098 4.81957Z" fill="#F8F2EA"/>
<path d="M24.6806 98.0095C24.4859 97.8522 24.2913 97.6961 24.0967 97.5388C24.1192 97.5163 24.1406 97.4927 24.1631 97.4702C24.3851 97.6003 24.5809 97.7611 24.7458 97.9574C24.7173 97.9657 24.696 97.9834 24.6806 98.0095Z" fill="#F8F2EA"/>
<path d="M111.128 73.8318C111.103 73.8058 111.078 73.7786 111.053 73.7526C111.113 73.5468 111.172 73.3411 111.231 73.1353C111.263 73.3813 111.273 73.6214 111.127 73.8318H111.128Z" fill="#F8F2EA"/>
</g>
<g clip-path="url(#clip0_2246_630)">
<path d="M101.559 104.554C101.559 104.385 101.559 104.216 101.559 104.047V14.0627C101.559 13.587 101.559 13.587 101.082 13.587H9.51209L9.00003 13.5834C9.01456 13.5616 8.96371 13.5089 9.03635 13.5107C9.10898 13.5125 9.22882 13.5107 9.32506 13.5107C39.976 13.5107 70.6275 13.5107 101.28 13.5107C101.574 13.5107 101.632 13.5688 101.632 13.8612C101.623 43.9867 101.619 74.1116 101.619 104.236C101.626 104.334 101.71 104.474 101.559 104.554Z" fill="#F6F1E9"/>
<path d="M53.8504 84.5562C51.0431 84.5562 48.2359 84.5817 45.4305 84.5562C41.6354 84.5139 37.8422 84.4267 34.0508 84.2948C33.5213 84.3066 32.992 84.2646 32.471 84.1695C32.3283 84.1438 32.1975 84.0736 32.0973 83.9688C31.9971 83.8641 31.9328 83.7303 31.9135 83.5866C31.8172 83.0895 31.7704 82.584 31.7737 82.0777C31.7556 79.5482 31.6938 77.0206 31.6085 74.493C31.4977 71.1719 31.3924 67.8489 31.3397 64.526C31.2998 62.071 31.2599 59.6142 31.189 57.1593C31.0819 53.4732 31.0619 49.7871 31.0311 46.101C31.0183 44.3778 31.0783 42.6509 31.0855 40.9332C31.0849 40.826 31.1105 40.7203 31.1602 40.6253C31.2099 40.5303 31.2822 40.449 31.3706 40.3884L34.9913 37.2816C36.6365 35.8707 38.2907 34.4707 39.9812 33.1143C40.046 33.0438 40.1309 32.9948 40.2244 32.974C40.3179 32.9533 40.4156 32.9617 40.5042 32.9981C40.5941 33.0335 40.6914 33.046 40.7874 33.0344C42.9392 32.8855 45.0963 32.9164 47.2517 32.8837C52.011 32.8147 56.7702 32.8274 61.5313 32.8383C66.6882 32.8492 71.8451 32.8891 77.002 32.9254C77.8808 32.9254 78.7579 32.9908 79.6367 33.0071C79.9225 33.0267 80.2006 33.1078 80.452 33.245C80.6645 33.3449 80.7026 33.5773 80.7171 33.7898C80.9169 37.0709 81.0222 40.3557 81.1112 43.6424C81.1783 46.1355 81.2328 48.6286 81.3145 51.1199C81.5379 58.0708 81.5524 65.0235 81.6577 71.9745C81.656 72.3822 81.5504 72.7828 81.3509 73.1384C79.733 76.3179 77.9008 79.3739 76.065 82.4299C75.7436 82.9747 75.4095 83.4976 75.1026 84.0424C75.0153 84.2136 74.8796 84.3555 74.7124 84.4504C74.5452 84.5453 74.3539 84.589 74.162 84.5762C71.5001 84.6035 68.8363 84.6743 66.1725 84.6815C62.4628 84.6906 58.7512 84.6579 55.0415 84.6416H53.8504V84.5562ZM32.5218 61.3738H32.54C32.54 62.131 32.54 62.8882 32.54 63.6472C32.5582 67.0554 32.5563 70.4637 32.6072 73.8702C32.6435 76.376 32.6653 78.8818 32.7506 81.3876C32.7833 81.9172 32.9772 82.4241 33.3063 82.8403C33.3766 82.9593 33.4763 83.0582 33.5959 83.1275C33.7155 83.1968 33.8508 83.2342 33.989 83.2361C35.2189 83.2047 36.4476 83.1859 37.6751 83.1799C43.9288 83.1435 50.1818 83.1762 56.4343 83.2779C59.5302 83.3288 62.6262 83.3614 65.7222 83.4141C68.4313 83.4601 71.1405 83.514 73.8497 83.5757C73.9618 83.5942 74.0768 83.5782 74.1796 83.5299C74.2823 83.4816 74.368 83.4032 74.4253 83.3051C76.3392 80.0742 78.221 76.8245 80.0707 73.556C80.446 72.8876 80.6301 72.1287 80.6027 71.3625C80.5555 67.1698 80.5701 62.9789 80.5428 58.7862C80.5247 55.8591 80.4793 52.9302 80.4321 50.0031C80.3685 46.1482 80.2868 42.2932 80.1488 38.4401C80.0998 37.08 80.0598 35.7163 80.0199 34.3599C80.009 33.9968 79.8383 33.8152 79.4915 33.7444C79.1132 33.6733 78.7286 33.6417 78.3439 33.6499C74.803 33.59 71.2622 33.5247 67.7195 33.4974C58.8039 33.4302 49.8883 33.3794 40.9726 33.4575C40.7825 33.4603 40.6001 33.5334 40.4606 33.6627C37.8276 35.7708 35.3327 38.0424 32.7633 40.2232C32.4619 40.4792 32.3058 40.6808 32.3348 41.1438C32.4946 43.7422 32.4329 46.3461 32.471 48.9518C32.5109 51.6356 32.5091 54.323 32.5218 57.0086C32.5273 58.4612 32.5218 59.9175 32.5218 61.3738Z" fill="#F6F1E9"/>
<path d="M32.522 61.3738C32.522 59.9211 32.522 58.4685 32.522 57.0049C32.5093 54.3193 32.5111 51.6319 32.4712 48.9481C32.433 46.3461 32.4948 43.7422 32.335 41.1402C32.3059 40.6771 32.4621 40.4756 32.7635 40.2195C35.3329 38.0406 37.8278 35.7672 40.4607 33.659C40.6002 33.5297 40.7826 33.4566 40.9728 33.4538C49.8884 33.3757 58.8041 33.4266 67.7197 33.4938C71.2606 33.521 74.8014 33.5864 78.344 33.6463C78.7288 33.638 79.1134 33.6697 79.4916 33.7407C79.8421 33.8206 80.0091 34.0022 80.02 34.3563C80.06 35.7163 80.0999 37.08 80.1489 38.4364C80.2869 42.2896 80.3687 46.1445 80.4322 49.9995C80.4794 52.9266 80.5248 55.8555 80.543 58.7826C80.5702 62.9753 80.5557 67.1662 80.6029 71.3589C80.6309 72.1263 80.4468 72.8865 80.0709 73.556C78.2187 76.8245 76.3376 80.0736 74.4273 83.3033C74.37 83.4014 74.2843 83.4797 74.1816 83.528C74.0788 83.5763 73.9638 83.5923 73.8517 83.5739C71.1425 83.5158 68.4333 83.4619 65.7241 83.4123C62.6282 83.3596 59.5322 83.3269 56.4363 83.2761C50.1838 83.172 43.9308 83.1393 37.6771 83.178C36.4472 83.1853 35.2185 83.2041 33.991 83.2343C33.8528 83.2324 33.7174 83.195 33.5979 83.1256C33.4783 83.0563 33.3786 82.9574 33.3083 82.8385C32.9792 82.4223 32.7853 81.9154 32.7526 81.3858C32.6673 78.88 32.6455 76.3742 32.6092 73.8684C32.5583 70.4619 32.5601 67.0536 32.542 63.6453C32.542 62.8863 32.542 62.1291 32.542 61.3719L32.522 61.3738ZM38.9373 35.9251C38.9663 35.9251 39.0135 35.9451 38.9827 35.8816L38.9445 35.9306C38.9336 35.9433 38.8701 35.9306 38.9209 35.9742L38.9373 35.9251ZM34.6392 39.4188L34.5648 39.4968L34.494 39.5749L34.4213 39.6439L34.267 39.7892L34.2035 39.8509L33.8911 40.0961C34.1272 40.1723 34.1835 40.0307 34.2652 39.9254L34.3342 39.8491L34.4758 39.702L34.5503 39.6312L34.6229 39.5586L34.6901 39.4805L34.7591 39.4061L34.7936 39.3334L34.7137 39.3588L34.6392 39.4188ZM39.8379 35.3005L40.0195 35.1679C40.074 35.1316 40.1684 35.079 40.1085 35.0191C40.0486 34.9591 39.9759 35.0445 39.9269 35.1008C39.8499 35.1229 39.7847 35.1744 39.7453 35.2442C39.7163 35.2733 39.6763 35.306 39.7326 35.3423C39.7889 35.3786 39.8107 35.3386 39.8379 35.306V35.3005ZM39.2151 35.6891C39.1552 35.7072 39.0735 35.7672 39.1007 35.798C39.1715 35.8761 39.2115 35.7762 39.2587 35.7345C39.2768 35.7109 39.315 35.6709 39.3095 35.6655C39.2678 35.6201 39.2405 35.6582 39.2151 35.6945V35.6891ZM78.1334 74.6183C78.0897 74.6333 78.0534 74.6643 78.0318 74.7051C78.0102 74.746 78.005 74.7935 78.0172 74.838C78.0595 74.8199 78.094 74.7873 78.1143 74.7459C78.1346 74.7046 78.1395 74.6574 78.128 74.6128C78.1588 74.6128 78.1969 74.6128 78.157 74.5656L78.1334 74.6183ZM39.571 35.3967C39.4947 35.4567 39.3549 35.4694 39.3803 35.6273C39.4878 35.602 39.5818 35.5372 39.6436 35.4458C39.669 35.4167 39.7199 35.3877 39.669 35.3477C39.6182 35.3078 39.5964 35.3695 39.571 35.4022V35.3967ZM48.2088 42.0117C48.1872 41.9936 48.1599 41.9836 48.1316 41.9836C48.1034 41.9836 48.0761 41.9936 48.0545 42.0117C47.3809 41.9682 46.7052 41.9682 46.0317 42.0117C45.2672 41.9663 44.5173 42.1715 44.0197 42.1189C44.5173 42.0935 45.2799 42.2097 46.0444 42.1334H47.8965C47.996 42.167 48.1038 42.167 48.2034 42.1334H50.0192V42.0481H48.6028L48.2088 42.0117ZM77.3798 75.8167C77.2056 76.0527 77.065 76.3119 76.9622 76.5866C76.2746 77.8093 75.5864 79.0325 74.8976 80.2564C74.8214 80.3926 74.716 80.5342 74.8268 80.7212C75.5695 79.3467 76.3031 77.9975 77.0385 76.6302C77.211 76.3932 77.3548 76.1366 77.467 75.8657C77.4833 75.8294 77.5287 75.7895 77.467 75.7586C77.4053 75.7277 77.4016 75.784 77.3798 75.8167ZM72.646 49.0081C72.6106 49.6168 72.6197 50.2273 72.6733 50.8348C72.7377 50.2273 72.745 49.6151 72.695 49.0063V47.7352C72.7096 47.2231 72.7713 46.7092 72.6369 46.2045V43.1248H72.5806V46.1827C72.5222 46.693 72.5374 47.2092 72.626 47.7152C72.6315 48.1456 72.6388 48.5777 72.646 49.0081ZM79.3046 39.7819L79.3845 41.5977H79.4281V39.7656C79.456 39.2425 79.4145 38.718 79.3046 38.2058V39.7819ZM45.289 34.1747C45.7642 34.231 46.2448 34.2237 46.718 34.1529C46.2422 34.1102 45.7636 34.1066 45.2872 34.142C44.5245 34.142 43.7637 34.0367 43.1264 34.1584C43.7619 34.2673 44.5263 34.1529 45.289 34.1747ZM34.3106 59.7268C34.4613 66.4017 34.5648 70.8832 34.6737 75.3628C34.7149 77.2185 34.7549 79.0737 34.7936 80.9282C34.7936 81.1098 34.7754 81.2642 35.0678 81.2642C35.9575 81.2642 36.8491 81.3132 37.7388 81.3277C40.8463 81.3786 43.9532 81.4252 47.0594 81.4675C49.5652 81.4984 52.0692 81.5275 54.5751 81.5329C60.5872 81.5474 66.5994 81.5456 72.6115 81.562C72.902 81.562 72.9747 81.4821 72.9601 81.1988C72.9039 79.3939 72.8603 77.589 72.8185 75.784C72.7604 73.2419 72.7053 70.6998 72.6533 68.1576L72.4408 57.8656C72.3936 55.4578 72.3428 53.0501 72.301 50.6423C72.2592 48.2345 72.2229 45.7759 72.1957 43.3427C72.1957 43.1194 72.1376 43.0613 71.9179 43.0613C71.039 43.0613 70.1584 43.0468 69.2795 43.0377L62.4157 42.9632L49.0495 42.8162C47.0993 42.7925 45.1492 42.7617 43.199 42.7399C40.2356 42.7054 37.274 42.6818 34.3106 42.6382C33.9964 42.6382 33.9674 42.7526 33.9747 43.0123C34.0255 44.747 34.0673 46.4811 34.1 48.2146C34.1798 52.7904 34.2652 57.3572 34.3106 59.7268ZM34.5612 40.2595H34.8571C36.7492 40.2395 38.6395 40.2595 40.5316 40.2904C45.0372 40.3436 49.5428 40.389 54.0485 40.4265C60.4347 40.4792 66.8209 40.5155 73.2071 40.5682C73.2947 40.5714 73.3817 40.5523 73.4599 40.5126C73.538 40.4729 73.6048 40.4139 73.6538 40.3412C74.4255 39.4006 75.2717 38.5254 76.1197 37.6556C77.1486 36.5976 78.1806 35.5384 79.2156 34.4779H77.5287C74.4201 34.4779 71.3114 34.4689 68.2027 34.4779C64.4095 34.4925 60.6144 34.5306 56.8212 34.5488C51.7599 34.5718 46.6999 34.5893 41.641 34.6014C41.4499 34.5927 41.2627 34.6577 41.1181 34.783C40.3754 35.4149 39.6255 36.0377 38.8755 36.6624L34.5612 40.2595ZM74.7324 79.5337L74.8504 79.5518C75.199 78.9417 75.5441 78.3298 75.8963 77.7233C76.9749 75.8585 78.1479 74.0499 79.2774 72.2141C79.3906 72.0594 79.454 71.8738 79.4589 71.6821C79.3264 65.5882 79.2102 59.4908 79.0704 53.3969C78.9632 48.6867 78.8234 43.9765 78.7925 39.2662C78.7925 38.5617 78.7925 37.8572 78.7925 37.1018C78.7359 37.1279 78.6812 37.1582 78.6291 37.1926C77.0791 38.6697 75.6236 40.2428 74.2712 41.9028C74.1662 42.033 74.1166 42.1994 74.1332 42.3658C74.1913 46.2698 74.2367 50.1738 74.3039 54.076C74.4431 61.9784 74.5859 69.8814 74.7324 77.7851C74.7487 78.3679 74.7324 78.9508 74.7324 79.5337ZM33.5697 50.8094H33.4426C33.5062 52.7323 33.5389 54.6571 33.7477 56.5746L33.5697 50.8094ZM79.4807 41.7303C79.2193 42.9632 79.5497 44.1199 79.4807 44.9842V41.7303ZM50.6402 42.4893V42.4475H46.9123V42.4893H50.6402ZM42.7741 42.0644C41.6327 41.9691 40.4854 41.9691 39.344 42.0644H42.7741ZM73.8535 40.6789L73.9552 40.7679L74.7451 39.8128L74.6725 39.7492L73.8535 40.6789ZM34.0582 65.9714C33.9954 66.5153 34.0083 67.0652 34.0963 67.6056C34.2543 67.0554 34.0818 66.5161 34.0582 65.9714ZM72.1521 42.7726V42.6872H70.6813C71.1698 42.7126 71.6564 42.8543 72.1521 42.7726ZM72.7368 51.7245H72.6406C72.6769 52.3274 72.7259 52.9284 72.7368 53.5294V51.7245ZM80.0001 70.273C79.8711 70.9213 79.9129 71.7475 80.0872 71.9599C80.0636 71.3625 80.0364 70.8178 80.0073 70.273H80.0001ZM34.198 69.6066H34.109C34.2452 70.2494 34.1363 70.8977 34.198 71.5623V69.6066ZM79.9129 66.5652H79.8929V67.8526H79.9129V66.5652ZM78.0154 74.8271C77.9269 74.8957 77.853 74.9813 77.7981 75.079C77.7432 75.1766 77.7084 75.2842 77.6958 75.3955C77.8556 75.2413 77.9667 75.0437 78.0154 74.8271ZM77.703 75.3319C77.5687 75.4753 77.4507 75.5534 77.4997 75.7296C77.6377 75.6569 77.6849 75.5534 77.703 75.3373V75.3319ZM78.2478 74.4149L78.2351 74.4349H78.2532L78.2478 74.4149Z" fill="#050404"/>
<path d="M34.3108 59.7268C34.2654 57.3663 34.1801 52.7904 34.0911 48.2255C34.0572 46.4908 34.0155 44.7567 33.9658 43.0232C33.9658 42.7635 33.9876 42.6437 34.3017 42.6491C37.2651 42.6927 40.2267 42.7163 43.1901 42.7508C45.1403 42.7726 47.0905 42.8034 49.0407 42.8271L62.4069 42.9741L69.2707 43.0486C70.1495 43.0486 71.0302 43.0758 71.909 43.0722C72.1287 43.0722 72.185 43.1303 72.1869 43.3536C72.2135 45.7868 72.2486 48.22 72.2922 50.6532C72.3339 53.061 72.3848 55.4687 72.432 57.8765L72.6444 68.1685C72.6989 70.7107 72.754 73.2528 72.8097 75.7949C72.8514 77.5999 72.895 79.4048 72.9513 81.2097C72.9604 81.4875 72.8932 81.5729 72.6027 81.5729C66.5905 81.5565 60.5784 81.5583 54.5662 81.5438C52.0604 81.5438 49.5564 81.5093 47.0506 81.4784C43.9431 81.4409 40.8362 81.3943 37.73 81.3386C36.8403 81.3241 35.9487 81.2751 35.0589 81.2751C34.7666 81.2751 34.7884 81.1243 34.7848 80.9391C34.7448 79.0834 34.7049 77.2282 34.6649 75.3737C34.565 70.8832 34.4615 66.4017 34.3108 59.7268ZM55.4669 59.5452L55.3797 59.4726C55.5613 59.0114 55.7737 58.8316 56.1696 58.8952C56.3911 58.9315 56.5327 58.8952 56.5981 58.6954C56.6299 58.6039 56.6279 58.5041 56.5927 58.4139C56.5574 58.3237 56.4911 58.249 56.4056 58.2034C56.2225 58.0707 55.9966 58.0112 55.7719 58.0364C55.5472 58.0616 55.34 58.1697 55.1908 58.3395C55.036 58.524 54.9171 58.7359 54.8404 58.9642C54.5826 59.6433 54.5081 60.3678 54.3302 61.0651C54.2775 61.2739 54.2067 61.3719 53.9761 61.3502C53.7844 61.3439 53.5925 61.353 53.4023 61.3774C53.3477 61.3771 53.2935 61.3877 53.243 61.4083C53.1925 61.429 53.1465 61.4595 53.1077 61.4979C53.0689 61.5363 53.0381 61.582 53.017 61.6324C52.9959 61.6828 52.9849 61.7368 52.9846 61.7914C52.9846 62.0202 53.1953 62.1273 53.4259 62.1273C53.5702 62.1313 53.7146 62.1252 53.858 62.1092C54.0923 62.0747 54.1177 62.1473 54.0923 62.3779C54.0178 63.0098 53.9107 63.649 54.0523 64.2827C54.1014 64.5115 54.1776 64.7711 54.4954 64.7693C54.8132 64.7675 54.8259 64.497 54.8586 64.2809C54.9475 63.7089 55.0292 63.1369 55.0855 62.5631C55.1182 62.2435 55.1745 62.0184 55.5812 62.0765C55.7263 62.0838 55.8713 62.0596 56.0061 62.0057C56.0835 61.9868 56.1513 61.9405 56.197 61.8753C56.2428 61.8102 56.2633 61.7307 56.2549 61.6516C56.2527 61.5781 56.2238 61.508 56.1737 61.4542C56.1236 61.4004 56.0557 61.3667 55.9825 61.3592C55.8402 61.3368 55.6963 61.3253 55.5522 61.3247C55.3706 61.3247 55.3016 61.2757 55.3397 61.0723C55.4269 60.5984 55.4923 60.1209 55.5595 59.6451C55.5631 59.607 55.6557 59.4218 55.4669 59.5398V59.5452ZM65.4411 60.5621L65.3939 60.5076C65.4115 60.3525 65.4583 60.2022 65.5319 60.0646C66.0442 58.8234 66.898 57.753 67.9941 56.9777C68.2899 56.7721 68.5568 56.5278 68.7877 56.2514C68.8893 56.1279 69.0382 55.9862 68.9257 55.8047C68.8131 55.6231 68.6242 55.6812 68.4608 55.7012C68.2825 55.7291 68.1112 55.7907 67.956 55.8827C65.9986 56.9722 64.7874 58.6065 64.4261 60.8381C64.2354 62.0093 64.2808 63.166 64.8346 64.2518C65.2722 65.1107 66.0385 65.4539 66.9337 65.216C68.5915 64.7766 69.6574 62.7774 69.0909 61.1522C68.8603 60.4895 68.4281 60.0228 67.7054 59.9447C66.8792 59.8448 66.0984 59.9956 65.4411 60.5566V60.5621ZM48.5849 58.7844C48.7538 58.2799 48.9577 57.7879 49.195 57.3118C49.232 57.2181 49.2993 57.1396 49.3863 57.0889C49.4732 57.0382 49.5747 57.0182 49.6744 57.0322C50.4933 57.0399 51.3087 56.9242 52.0931 56.689C52.2928 56.6218 52.5089 56.5074 52.4853 56.2786C52.4617 56.0498 52.2093 56.0698 52.0422 56.0516C51.0714 55.9553 50.0926 55.9736 49.126 56.1061C49.0061 56.1197 48.8906 56.1593 48.7874 56.222C48.6843 56.2847 48.596 56.3691 48.5286 56.4692C47.9174 57.4056 47.3807 58.3886 46.9235 59.409C46.7419 59.7922 46.9471 60.0718 47.3611 60.0192C47.8382 59.9708 48.3179 59.9514 48.7974 59.9611C49.0263 59.9502 49.255 59.9877 49.4686 60.071C49.6821 60.1543 49.8758 60.2816 50.0369 60.4446C50.1981 60.6076 50.3231 60.8027 50.4039 61.0173C50.4848 61.2318 50.5196 61.4609 50.5061 61.6897C50.4316 63.0897 49.353 63.9849 47.9639 63.7997C47.6008 63.7507 47.2376 63.6599 46.8563 63.7543C46.6892 63.7961 46.4931 63.7979 46.4241 63.9649C46.3551 64.132 46.5095 64.2736 46.6057 64.4098C46.6521 64.4791 46.7144 64.5363 46.7873 64.5768C47.8132 65.098 48.8627 65.2868 49.925 64.7112C51.2741 63.9849 51.9387 62.1691 51.4757 60.6075C51.3638 60.1588 51.1226 59.7529 50.7821 59.4401C50.4415 59.1273 50.0166 58.9214 49.56 58.848C49.2381 58.7926 48.9113 58.7713 48.5849 58.7844ZM37.4485 59.9919L37.5175 59.9284L38.2166 60.524C38.3056 60.5984 38.2875 60.6965 38.2747 60.7909C38.1767 61.47 38.2312 62.1582 38.1658 62.8428C38.1313 63.1841 37.9842 63.2241 37.7282 63.166C37.4032 63.0879 37.0836 62.9844 36.7604 62.8936C36.6616 62.8631 36.5555 62.8663 36.4589 62.9028C36.3622 62.9393 36.2804 63.007 36.2265 63.0952C36.0958 63.2767 36.1684 63.4402 36.2628 63.5963C36.4193 63.8607 36.6341 64.0859 36.8909 64.2546C37.1477 64.4233 37.4397 64.531 37.7445 64.5696C37.9552 64.6041 38.0369 64.6749 38.0078 64.891C37.985 65.12 38.0181 65.3512 38.1041 65.5647C38.129 65.6706 38.1879 65.7654 38.2719 65.8346C38.3559 65.9038 38.4602 65.9435 38.5689 65.9478C38.8177 65.9369 38.8249 65.6881 38.8485 65.5047C38.8806 65.2786 38.8891 65.0498 38.874 64.822C38.8552 64.7125 38.8729 64.5999 38.9244 64.5014C38.9759 64.403 39.0584 64.3242 39.159 64.2772C39.5549 64.0357 39.9217 63.7634 40.1123 63.2876C40.5717 62.1473 40.1741 61.2103 39.386 60.4386C39.2135 60.2796 39.0832 60.0802 39.0068 59.8583C38.9304 59.6364 38.9104 59.3991 38.9484 59.1675C38.9666 58.9515 38.972 58.7354 38.972 58.5193C38.972 58.0018 38.972 57.9963 39.4895 58.0781C39.8981 58.1434 40.185 57.9183 40.1705 57.5333C40.1744 57.3855 40.1245 57.2414 40.0299 57.1277C39.9353 57.0141 39.8026 56.9388 39.6566 56.9159C39.1409 56.8633 39.0937 56.5818 39.1554 56.1805C39.1657 56.12 39.162 56.0578 39.1445 55.999C39.1028 55.8591 39.1227 55.6358 38.9012 55.6667C38.862 55.6716 38.8242 55.6842 38.79 55.704C38.7558 55.7237 38.7258 55.7501 38.702 55.7816C38.6781 55.813 38.6608 55.849 38.651 55.8872C38.6413 55.9255 38.6393 55.9653 38.6452 56.0044C38.6724 56.5836 38.4382 56.8633 37.8426 57.0667C36.3899 57.5642 36.0395 58.9914 36.9946 60.1535C37.158 60.3533 37.3469 60.5294 37.661 60.4931L37.4485 59.9919ZM44.1017 59.972C45.627 58.9533 45.1712 56.7035 43.822 55.9772C43.1793 55.6285 42.1987 55.6903 41.6812 56.1587C41.5668 56.2604 41.4234 56.3621 41.4996 56.551C41.5363 56.6281 41.5983 56.6903 41.6753 56.7273C41.7523 56.7643 41.8396 56.7738 41.9227 56.7543C41.9935 56.7543 42.0643 56.7271 42.1352 56.7216C42.581 56.671 43.0317 56.7585 43.4262 56.9722C43.6312 57.0895 43.8013 57.2594 43.9187 57.4643C44.0362 57.6692 44.0968 57.9018 44.0944 58.138C44.1089 58.6391 43.8475 58.9587 43.4153 59.1893C43.0921 59.3709 42.7344 59.4236 42.4112 59.5852C42.3334 59.6177 42.2684 59.6746 42.2258 59.7473C42.1832 59.82 42.1654 59.9046 42.1751 59.9883C42.1759 60.073 42.2063 60.1547 42.261 60.2194C42.3157 60.2841 42.3913 60.3276 42.4747 60.3424C42.5804 60.3657 42.688 60.3791 42.7961 60.3823C43.773 60.4749 44.2869 61.0124 44.4576 61.8259C44.522 62.0792 44.5141 62.3455 44.4349 62.5946C44.3556 62.8436 44.2081 63.0655 44.0091 63.235C43.1393 63.9903 42.1697 64.1828 41.0893 63.7797C40.8387 63.6871 40.5808 63.6653 40.4664 63.9304C40.3666 64.1647 40.5282 64.3735 40.7388 64.4988C41.3284 64.8605 42.0176 65.0258 42.7071 64.9709C43.2997 64.9292 43.8653 64.7068 44.3277 64.3338C44.79 63.9607 45.1269 63.4549 45.2929 62.8845C45.6106 61.7387 45.2021 60.7491 44.1035 59.972H44.1017ZM60.6873 61.6062C60.6546 61.4428 60.6601 61.3029 60.4948 61.2957C60.434 61.297 60.375 61.3163 60.3252 61.3512C60.2754 61.3862 60.2371 61.4351 60.2152 61.4918C60.1694 61.5758 60.1335 61.6647 60.1081 61.7569C59.905 62.4374 59.7831 63.1396 59.7449 63.8487C59.7218 64.0763 59.7428 64.3063 59.8066 64.526C59.8629 64.684 59.9501 64.822 60.1153 64.842C60.2806 64.8619 60.3895 64.6931 60.4349 64.5514C60.5221 64.2791 60.5584 63.9885 60.6474 63.7162C60.6873 63.5891 60.6474 63.3748 60.8162 63.353C60.9181 63.3371 61.0223 63.3488 61.1181 63.3868C61.2138 63.4248 61.2977 63.4877 61.361 63.5691C61.593 63.829 61.7952 64.114 61.9638 64.4189C62.1182 64.7457 62.4123 64.8983 62.6175 64.7675C62.9044 64.5859 62.7737 64.3226 62.6902 64.0884C62.6458 63.9762 62.5846 63.8715 62.5086 63.7779C62.2889 63.4928 62.071 63.2041 61.8295 62.9372C61.706 62.801 61.6606 62.7211 61.8077 62.574C61.9812 62.3877 62.0911 62.1512 62.1218 61.8985C62.1944 61.3629 61.8966 61.0959 61.3737 61.2122C61.1155 61.2846 60.88 61.4214 60.6891 61.6098L60.6873 61.6062ZM59.2583 62.3852C59.2583 62.3634 59.2583 62.2671 59.2583 62.1709C59.231 61.6625 59.0168 61.3611 58.6028 61.2448C58.0889 61.1014 57.7366 61.2158 57.4316 61.6262C57.0555 62.1484 56.8861 62.7913 56.9558 63.4311C56.9867 63.8433 57.4043 64.3517 57.7511 64.4189C58.2233 64.5115 58.5664 64.2809 58.8243 63.9159C59.1381 63.4708 59.2917 62.9325 59.2601 62.3888L59.2583 62.3852Z" fill="#F6F1E9"/>
<path d="M34.561 40.2595L38.8754 36.6642C39.6253 36.0395 40.3753 35.4167 41.1179 34.7848C41.2625 34.6595 41.4497 34.5945 41.6409 34.6032C46.7022 34.5899 51.7622 34.5724 56.8211 34.5506C60.6143 34.5324 64.4094 34.4943 68.2026 34.4798C71.3113 34.4689 74.4199 34.4798 77.5286 34.4798H79.2155C78.1805 35.5414 77.1485 36.6006 76.1195 37.6574C75.2715 38.529 74.4254 39.4024 73.6537 40.343C73.6046 40.4157 73.5379 40.4747 73.4597 40.5144C73.3816 40.5541 73.2946 40.5732 73.207 40.57C66.8208 40.5173 60.4345 40.481 54.0483 40.4284C49.5427 40.392 45.0371 40.3466 40.5314 40.2922C38.6393 40.2686 36.7491 40.2413 34.857 40.2613L34.561 40.2595Z" fill="#F6F1E9"/>
<path d="M74.7323 79.5337C74.7323 78.9508 74.7323 78.368 74.7323 77.7851C74.5882 69.8827 74.4436 61.9796 74.2983 54.076C74.2311 50.1738 74.1857 46.268 74.1276 42.3658C74.1111 42.1994 74.1607 42.0331 74.2656 41.9028C75.618 40.2429 77.0736 38.6697 78.6236 37.1926C78.6757 37.1583 78.7303 37.1279 78.787 37.1018C78.787 37.8572 78.787 38.5545 78.787 39.2663C78.8179 43.9765 78.9577 48.6867 79.0648 53.3969C79.2046 59.4908 79.3209 65.5883 79.4534 71.6821C79.4484 71.8738 79.3851 72.0594 79.2718 72.2142C78.1424 74.0499 76.9694 75.8585 75.8908 77.7233C75.5385 78.3298 75.1935 78.9417 74.8449 79.5519L74.7323 79.5337Z" fill="#F6F1E9"/>
<path d="M77.0387 76.6302C76.3033 77.9884 75.5697 79.3539 74.827 80.7212C74.709 80.5396 74.827 80.3925 74.8978 80.2564C75.5842 79.0313 76.2724 77.808 76.9624 76.5866L77.0387 76.6302Z" fill="#F6F1E9"/>
<path d="M33.5698 50.8093L33.7513 56.58C33.5425 54.6625 33.5098 52.7377 33.4463 50.8148L33.5698 50.8093Z" fill="#6E6E6E"/>
<path d="M79.4807 41.7357V44.9897C79.5497 44.1253 79.2193 42.9687 79.4807 41.7357Z" fill="#6E6E6E"/>
<path d="M46.0317 42.0063C46.7053 41.9627 47.381 41.9627 48.0546 42.0063L47.8966 42.1316H46.0444L46.0317 42.0063Z" fill="#F6F1E9"/>
<path d="M72.5806 46.1826V43.1248H72.6369V46.1972L72.6132 46.1699L72.5806 46.1826Z" fill="#F6F1E9"/>
<path d="M50.64 42.4948H46.9121V42.453H50.64V42.4948Z" fill="#6E6E6E"/>
<path d="M42.774 42.0644H39.3403C40.4829 41.9689 41.6315 41.9689 42.774 42.0644Z" fill="#6E6E6E"/>
<path d="M46.0315 42.0063L46.0442 42.128C45.2797 42.2042 44.5171 42.088 44.0195 42.1134C44.5171 42.1661 45.267 41.9609 46.0315 42.0063Z" fill="#6E6E6E"/>
<path d="M73.8501 40.679L74.669 39.7493L74.7417 39.8128L73.9518 40.7679L73.8501 40.679Z" fill="#F6F1E9"/>
<path d="M72.5807 46.1826L72.6134 46.1699L72.637 46.1972C72.7714 46.702 72.7096 47.2158 72.6951 47.7279L72.6261 47.7152C72.5375 47.2092 72.5222 46.693 72.5807 46.1826Z" fill="#6E6E6E"/>
<path d="M34.0581 65.9714C34.0817 66.5161 34.2542 67.0609 34.0963 67.6056C34.0082 67.0652 33.9954 66.5153 34.0581 65.9714Z" fill="#6E6E6E"/>
<path d="M45.2891 34.1747C44.5265 34.1565 43.762 34.2673 43.1265 34.1583C43.7638 34.0367 44.5246 34.142 45.2873 34.142L45.2764 34.1583L45.2891 34.1747Z" fill="#F6F1E9"/>
<path d="M72.1523 42.7726C71.6566 42.8543 71.17 42.7126 70.6797 42.6836H72.1505L72.1523 42.7726Z" fill="#F6F1E9"/>
<path d="M72.7349 51.7245V53.5276C72.724 52.9266 72.675 52.3256 72.6387 51.7227L72.7349 51.7245Z" fill="#6E6E6E"/>
<path d="M79.3047 39.7819V38.2131C79.4146 38.7253 79.4561 39.2498 79.4282 39.7729L79.3047 39.7819Z" fill="#6E6E6E"/>
<path d="M80.0074 70.2731C80.0364 70.8178 80.0636 71.3626 80.0945 71.96C79.9202 71.7402 79.8784 70.9213 80.0074 70.2731Z" fill="#6E6E6E"/>
<path d="M34.2052 69.6066V71.5695C34.1434 70.9049 34.2524 70.2567 34.1162 69.6139L34.2052 69.6066Z" fill="#6E6E6E"/>
<path d="M79.3047 39.7819L79.4282 39.7728V41.5977H79.3846L79.3047 39.7819Z" fill="#F6F1E9"/>
<path d="M72.6952 49.0062C72.7451 49.6151 72.7378 50.2273 72.6734 50.8347C72.6198 50.2273 72.6107 49.6168 72.6461 49.008H72.6716L72.6952 49.0062Z" fill="#6E6E6E"/>
<path d="M48.603 42.0535H50.0375V42.1425H48.6212L48.603 42.0535Z" fill="#6E6E6E"/>
<path d="M79.913 66.5652V67.8489H79.8931V66.5615L79.913 66.5652Z" fill="#6E6E6E"/>
<path d="M77.469 75.8657C77.3555 76.1363 77.211 76.3928 77.0387 76.6302L76.9624 76.5866C77.0652 76.3118 77.2058 76.0527 77.38 75.8167L77.469 75.8657Z" fill="#6E6E6E"/>
<path d="M45.2891 34.1747L45.2764 34.1583L45.2873 34.142C45.7637 34.1066 46.2423 34.1102 46.7181 34.1529C46.2449 34.2237 45.7643 34.231 45.2891 34.1747Z" fill="#6E6E6E"/>
<path d="M72.695 49.0062H72.6714H72.646C72.646 48.5759 72.6314 48.1437 72.626 47.7134L72.695 47.7261V49.0062Z" fill="#F6F1E9"/>
<path d="M78.0154 74.8271C77.9667 75.0437 77.8556 75.2413 77.6958 75.3954C77.7084 75.2842 77.7432 75.1766 77.7981 75.0789C77.853 74.9813 77.9269 74.8957 78.0154 74.8271Z" fill="#6E6E6E"/>
<path d="M48.6031 42.0535L48.6213 42.1389H48.2036V42.0154L48.6031 42.0535Z" fill="#F6F1E9"/>
<path d="M34.2652 39.9308C34.1835 40.0362 34.1272 40.1778 33.8911 40.1015L34.2034 39.8564L34.2652 39.9308Z" fill="#6E6E6E"/>
<path d="M77.7031 75.3373C77.685 75.5516 77.6341 75.6569 77.4998 75.735C77.4562 75.5534 77.5688 75.4808 77.7031 75.3373Z" fill="#6E6E6E"/>
<path d="M39.6456 35.4567C39.5826 35.5477 39.4882 35.6124 39.3805 35.6383C39.3551 35.4803 39.4949 35.4676 39.5711 35.4077L39.6456 35.4567Z" fill="#6E6E6E"/>
<path d="M48.2087 42.0172V42.1407C48.1092 42.1743 48.0014 42.1743 47.9019 42.1407L48.0598 42.0154C48.0812 41.9989 48.1076 41.99 48.1346 41.9904C48.1616 41.9907 48.1877 42.0002 48.2087 42.0172Z" fill="#6E6E6E"/>
<path d="M78.128 74.6129C78.1395 74.6574 78.1346 74.7047 78.1143 74.746C78.094 74.7873 78.0595 74.8199 78.0172 74.838C78.005 74.7935 78.0102 74.746 78.0318 74.7052C78.0534 74.6643 78.0897 74.6333 78.1334 74.6183L78.128 74.6129Z" fill="#6E6E6E"/>
<path d="M39.2586 35.7399C39.2114 35.7817 39.1714 35.8815 39.1006 35.8035C39.0734 35.7726 39.1551 35.7127 39.215 35.6945L39.2586 35.7399Z" fill="#6E6E6E"/>
<path d="M40.0214 35.1734L39.8398 35.3059L39.749 35.2496C39.7884 35.1798 39.8536 35.1283 39.9306 35.1062L40.0214 35.1734Z" fill="#6E6E6E"/>
<path d="M34.4759 39.7075L34.3343 39.8545L34.2671 39.7946L34.4214 39.6494L34.4759 39.7075Z" fill="#6E6E6E"/>
<path d="M39.9287 35.1062C39.9777 35.0499 40.0304 34.941 40.1103 35.0245C40.1902 35.108 40.0758 35.1371 40.0213 35.1734L39.9287 35.1062Z" fill="#6E6E6E"/>
<path d="M34.2036 39.8564L34.2672 39.7946L34.3344 39.8545L34.2654 39.9308L34.2036 39.8564Z" fill="#6E6E6E"/>
<path d="M34.6231 39.5641L34.5504 39.6367L34.4941 39.5804L34.565 39.5023L34.6231 39.5641Z" fill="#6E6E6E"/>
<path d="M34.7139 39.3643L34.7938 39.3389L34.7593 39.4115C34.7451 39.3949 34.7299 39.3791 34.7139 39.3643Z" fill="#6E6E6E"/>
<path d="M34.6902 39.4859L34.623 39.564L34.5649 39.5023L34.6394 39.426L34.6902 39.4859Z" fill="#6E6E6E"/>
<path d="M34.4214 39.6494L34.494 39.5804L34.5503 39.6367L34.4759 39.7075L34.4214 39.6494Z" fill="#6E6E6E"/>
<path d="M34.759 39.4188L34.69 39.4932L34.6392 39.4333L34.7136 39.3716C34.7297 39.3864 34.7448 39.4022 34.759 39.4188Z" fill="#6E6E6E"/>
<path d="M38.9448 35.9306L38.9829 35.8816C39.0138 35.9451 38.9666 35.9252 38.9375 35.9252L38.9448 35.9306Z" fill="#6E6E6E"/>
<path d="M78.2442 74.4203L78.2496 74.444L78.2314 74.4421L78.2442 74.4203Z" fill="#6E6E6E"/>
<path d="M78.1334 74.6183L78.157 74.5656C78.1969 74.611 78.157 74.611 78.1279 74.6128L78.1334 74.6183Z" fill="#6E6E6E"/>
<path d="M38.9372 35.9252L38.9208 35.9742C38.87 35.9288 38.9335 35.9433 38.9444 35.9306L38.9372 35.9252Z" fill="#6E6E6E"/>
<path d="M39.2153 35.6945C39.2408 35.6582 39.268 35.6201 39.3098 35.6709C39.3098 35.6709 39.2771 35.7163 39.2589 35.7399L39.2153 35.6945Z" fill="#6E6E6E"/>
<path d="M77.3799 75.8168C77.4017 75.7841 77.4162 75.7278 77.4707 75.7586C77.5251 75.7895 77.4834 75.8295 77.4707 75.8658L77.3799 75.8168Z" fill="#6E6E6E"/>
<path d="M39.5708 35.4022C39.5962 35.3695 39.6198 35.3205 39.6689 35.3586C39.7179 35.3967 39.6689 35.4276 39.6452 35.4567L39.5708 35.4022Z" fill="#6E6E6E"/>
<path d="M39.8378 35.3059C39.8106 35.3386 39.7816 35.3804 39.7343 35.3477C39.6871 35.315 39.718 35.2787 39.7471 35.2496L39.8378 35.3059Z" fill="#6E6E6E"/>
<path d="M65.4407 60.5566C66.098 59.9956 66.8788 59.8448 67.705 59.9356C68.4313 60.0137 68.8599 60.4804 69.0905 61.1431C69.6552 62.7683 68.5911 64.7748 66.9333 65.2069C66.0381 65.4448 65.2718 65.1016 64.8342 64.2427C64.2804 63.1532 64.235 62.0002 64.4256 60.829C64.7888 58.601 65.9981 56.9704 67.9556 55.8737C68.1108 55.7816 68.2821 55.72 68.4604 55.6921C68.6238 55.6721 68.8235 55.6249 68.9252 55.7956C69.0269 55.9663 68.8889 56.1188 68.7872 56.2423C68.5563 56.5187 68.2895 56.763 67.9937 56.9686C66.8975 57.744 66.0437 58.8143 65.5315 60.0555C65.4579 60.1931 65.4111 60.3435 65.3935 60.4985C65.3481 60.5221 65.3299 60.5548 65.368 60.5948C65.3735 60.602 65.4153 60.5712 65.4407 60.5566ZM66.5447 57.3953L66.4739 57.4679L66.4012 57.5406L66.3341 57.6168L66.2215 57.7385L66.1652 57.8111C66.1398 57.842 66.0998 57.8729 66.1525 57.9092C66.1525 57.9092 66.1942 57.8783 66.216 57.862L66.285 57.7875L66.3813 57.6677L66.4557 57.6023L66.5374 57.5242L66.6101 57.4516L66.6718 57.3917L66.7444 57.3118C66.7717 57.2791 66.8025 57.2446 66.7553 57.2101C66.7553 57.2101 66.7136 57.2373 66.69 57.2519L66.6191 57.3245L66.5447 57.3953ZM66.1979 60.9525C66.1687 60.9448 66.1378 60.946 66.1093 60.9561C66.0808 60.9661 66.056 60.9845 66.0381 61.0088C66.0072 61.0215 65.9763 61.0342 65.9963 61.076L66.0708 61.0415L66.1924 60.947C66.2051 60.9325 66.276 60.947 66.2233 60.898L66.1979 60.9525ZM68.1353 62.3652C68.1438 62.206 68.1196 62.0469 68.0642 61.8974C68.0089 61.748 67.9236 61.6114 67.8136 61.4961C67.7036 61.3808 67.5711 61.2892 67.4244 61.227C67.2777 61.1647 67.1199 61.1331 66.9605 61.1341C65.9981 61.1341 65.2791 62.2708 65.6277 63.2459C65.8093 63.7525 66.1452 64.132 66.7172 64.181C67.2202 64.2264 67.567 63.925 67.8521 63.54C68.1136 63.1877 68.0809 62.7665 68.1408 62.3652H68.1353ZM68.7654 61.7914C68.7436 61.519 68.7436 61.2466 68.5021 60.9834C68.5412 61.2669 68.6323 61.5409 68.7709 61.7914H68.7654ZM66.5737 60.7418L66.5175 60.7655C66.5175 60.7655 66.5338 60.7872 66.5411 60.7854C66.5605 60.7807 66.5793 60.774 66.5974 60.7655L66.5737 60.7418Z" fill="#050404"/>
<path d="M48.5847 58.7844C48.9105 58.7726 49.2368 58.7951 49.5579 58.8516C50.0123 58.9253 50.4353 59.1303 50.7747 59.4413C51.1141 59.7523 51.3551 60.1558 51.4682 60.602C51.9312 62.16 51.2666 63.9722 49.9175 64.7057C48.8552 65.2814 47.8057 65.0925 46.7797 64.5714C46.7068 64.5308 46.6446 64.4736 46.5982 64.4043C46.5074 64.2681 46.3494 64.1319 46.4166 63.9594C46.4838 63.7869 46.6817 63.7906 46.8487 63.7488C47.2264 63.6544 47.5878 63.7488 47.9564 63.7942C49.3437 63.9758 50.4223 63.0842 50.4985 61.6842C50.512 61.4554 50.4772 61.2263 50.3964 61.0118C50.3156 60.7973 50.1905 60.6022 50.0294 60.4391C49.8683 60.2761 49.6746 60.1488 49.4611 60.0655C49.2475 59.9822 49.0188 59.9447 48.7898 59.9556C48.3103 59.9459 47.8307 59.9653 47.3535 60.0137C46.9395 60.0663 46.7325 59.7867 46.9159 59.4036C47.3731 58.3831 47.9099 57.4001 48.5211 56.4638C48.5884 56.3636 48.6767 56.2792 48.7799 56.2165C48.883 56.1538 48.9986 56.1143 49.1185 56.1006C50.0851 55.9681 51.0639 55.9498 52.0347 56.0461C52.2018 56.0643 52.4523 56.0461 52.4778 56.2731C52.5032 56.5001 52.2853 56.6163 52.0855 56.6835C51.3038 56.9199 50.4909 57.0374 49.6741 57.0321C49.5745 57.0205 49.4738 57.0426 49.3882 57.095C49.3027 57.1473 49.2371 57.2268 49.202 57.3208C48.9626 57.7938 48.7563 58.2828 48.5847 58.7844ZM50.2679 59.8884C50.2933 59.9211 50.3151 59.9665 50.366 59.9374C50.4168 59.9084 50.3914 59.872 50.366 59.843C50.3405 59.8139 50.3115 59.7704 50.2643 59.7958C50.2171 59.8212 50.2407 59.8612 50.2697 59.8884H50.2679ZM50.5276 60.0173C50.5003 60.0082 50.4549 59.9846 50.4477 59.9937C50.4041 60.0445 50.4477 60.0754 50.4858 60.1045L50.5512 60.1826C50.602 60.2534 50.651 60.3242 50.7019 60.3932L50.7545 60.4785C50.7836 60.5148 50.78 60.6165 50.8544 60.5657C50.9289 60.5148 50.8689 60.4622 50.8217 60.4204L50.7872 60.3405L50.6165 60.0863L50.5276 60.0173ZM49.6015 63.8178C49.6342 63.7815 49.7413 63.7888 49.6905 63.7125C49.6396 63.6362 49.587 63.698 49.5488 63.7488C49.5162 63.767 49.4526 63.7724 49.4926 63.8305C49.5325 63.8886 49.5688 63.8378 49.6033 63.8178H49.6015ZM48.0399 58.1216C47.9237 58.2264 47.8473 58.3682 47.8238 58.5229C47.9457 58.4355 48.0391 58.3143 48.0926 58.1743C48.1289 58.0944 48.2251 58.0344 48.1616 57.9255C48.127 57.9459 48.0978 57.9744 48.0766 58.0086C48.0554 58.0427 48.0428 58.0815 48.0399 58.1216ZM50.9452 60.809L50.9198 60.6873C50.9107 60.6873 50.8962 60.6982 50.8944 60.7055C50.8904 60.7157 50.8889 60.7267 50.8898 60.7377C50.8907 60.7486 50.8941 60.7592 50.8997 60.7686C50.9053 60.778 50.9129 60.7861 50.9221 60.7921C50.9312 60.7982 50.9416 60.8021 50.9525 60.8036C50.9942 61.272 51.0996 61.7369 51.0124 62.209C51.0923 61.7387 51.1486 61.2684 50.9452 60.809ZM48.1743 64.3734C49.2783 64.5314 50.5076 63.885 50.6402 63.0189C50.0373 63.9776 49.2129 64.3753 48.1688 64.3734H48.1743ZM49.4326 63.8541C48.8483 64.0157 48.235 64.043 47.6386 63.934C47.9236 64.0557 48.2324 64.1117 48.542 64.0978C48.8516 64.084 49.1541 64.0007 49.4272 63.8541H49.4326ZM50.6365 63.1278C50.7702 63.0121 50.8546 62.8497 50.8726 62.6738C50.7509 62.7972 50.6671 62.9529 50.6311 63.1224L50.6365 63.1278ZM47.8256 58.6028L47.8075 58.5792C47.7984 58.5792 47.7875 58.5919 47.7857 58.5992C47.7839 58.6064 47.7966 58.6155 47.802 58.6228L47.8256 58.6028Z" fill="#050404"/>
<path d="M37.45 59.9919L37.6661 60.5003C37.3519 60.5366 37.1631 60.3605 36.9997 60.1608C36.0446 58.9932 36.3986 57.566 37.8477 57.0739C38.4432 56.8705 38.6775 56.5909 38.6502 56.0116C38.6444 55.9726 38.6464 55.9327 38.6561 55.8945C38.6659 55.8562 38.6832 55.8203 38.7071 55.7888C38.7309 55.7573 38.7608 55.7309 38.7951 55.7112C38.8293 55.6915 38.8671 55.6788 38.9063 55.6739C39.1278 55.6503 39.1078 55.8664 39.1496 56.0062C39.1671 56.0651 39.1708 56.1272 39.1605 56.1878C39.0988 56.5891 39.146 56.8705 39.6617 56.9232C39.8077 56.9461 39.9404 57.0214 40.035 57.135C40.1296 57.2486 40.1795 57.3928 40.1755 57.5406C40.1901 57.931 39.9032 58.1561 39.4946 58.0853C38.9825 58.0036 38.9771 58.009 38.9771 58.5265C38.9771 58.7426 38.9771 58.9587 38.9535 59.1748C38.9154 59.4063 38.9355 59.6437 39.0119 59.8656C39.0883 60.0874 39.2186 60.2868 39.3911 60.4459C40.1755 61.2176 40.5732 62.1545 40.1174 63.2949C39.9358 63.7706 39.56 64.043 39.1641 64.2845C39.0634 64.3315 38.981 64.4102 38.9295 64.5087C38.878 64.6071 38.8603 64.7197 38.879 64.8292C38.8942 65.0571 38.8856 65.2859 38.8536 65.512C38.83 65.6936 38.8227 65.9441 38.574 65.955C38.4653 65.9508 38.3609 65.911 38.277 65.8418C38.193 65.7726 38.1341 65.6778 38.1091 65.5719C38.0231 65.3584 37.9901 65.1273 38.0129 64.8982C38.0419 64.6821 37.9602 64.6113 37.7496 64.5768C37.4448 64.5383 37.1528 64.4305 36.896 64.2618C36.6392 64.0932 36.4244 63.868 36.2679 63.6036C36.1735 63.4474 36.1008 63.2785 36.2316 63.1024C36.2855 63.0142 36.3673 62.9466 36.4639 62.9101C36.5606 62.8736 36.6667 62.8703 36.7654 62.9008C37.0886 62.9898 37.4082 63.0951 37.7333 63.1732C37.9857 63.2313 38.1364 63.1914 38.1709 62.85C38.2362 62.1654 38.1818 61.4772 38.2798 60.7981C38.2925 60.7037 38.3107 60.6056 38.2217 60.5312L37.519 59.9374L37.45 59.9919ZM38.2653 59.7813C38.2925 59.7813 38.3361 59.8103 38.3434 59.8012C38.3797 59.7595 38.3434 59.725 38.3143 59.6959C38.2853 59.6015 38.189 59.5271 38.2326 59.4108C38.2962 59.4018 38.396 59.5924 38.4142 59.4272C38.4505 59.0204 38.5613 58.6155 38.5141 58.1797C38.12 58.4485 38.0746 58.5574 38.1001 59.1167C38.0329 59.1693 37.9729 59.2238 38.0419 59.3146C38.0414 59.4042 38.0612 59.4928 38.0999 59.5736C38.1386 59.6545 38.1952 59.7255 38.2653 59.7813ZM39.037 63.1387C39.4619 62.7465 39.5545 62.3797 39.2949 61.9693C39.4256 62.4378 39.2041 62.7737 39.0116 63.1169L38.9517 63.1714L38.9716 63.1968L39.037 63.1387ZM37.3864 59.9229C37.41 59.9665 37.45 59.9974 37.4899 59.961C37.5299 59.9247 37.4899 59.8684 37.4536 59.8357C37.2796 59.5639 37.1647 59.2586 37.1162 58.9396C37.0677 58.6205 37.0868 58.2948 37.1722 57.9836C37.0189 58.1029 36.9143 58.274 36.878 58.4648C36.7436 59.0549 37.0124 59.5071 37.3864 59.9229ZM38.879 62.6884C39.1895 62.1999 39.1986 61.7623 38.879 61.3465V62.6884ZM38.0674 63.5001C37.6515 63.5146 37.2848 63.3421 36.9071 63.2132C37.3592 63.5545 37.6897 63.6362 38.0674 63.5001ZM38.4305 62.3615V60.7691C38.3282 61.2949 38.3276 61.8355 38.4287 62.3615H38.4305Z" fill="#050404"/>
<path d="M44.1031 59.972C45.2017 60.7491 45.6103 61.7388 45.3034 62.8773C45.1374 63.4477 44.8005 63.9535 44.3382 64.3265C43.8759 64.6996 43.3103 64.9219 42.7177 64.9636C42.0281 65.0185 41.339 64.8532 40.7493 64.4915C40.5387 64.3662 40.3862 64.1574 40.477 63.9232C40.5914 63.6581 40.8492 63.6799 41.0998 63.7725C42.1802 64.1701 43.1498 63.9776 44.0196 63.2277C44.2186 63.0582 44.3661 62.8364 44.4454 62.5873C44.5247 62.3383 44.5325 62.072 44.4681 61.8186C44.2974 61.0052 43.7835 60.4677 42.8066 60.3751C42.6985 60.3718 42.5909 60.3585 42.4852 60.3351C42.4018 60.3203 42.3263 60.2768 42.2715 60.2121C42.2168 60.1475 42.1864 60.0657 42.1856 59.981C42.176 59.8973 42.1937 59.8128 42.2363 59.7401C42.2789 59.6673 42.344 59.6104 42.4217 59.5779C42.7449 59.4163 43.1026 59.3546 43.4258 59.1821C43.858 58.9515 44.1195 58.6373 44.1049 58.1307C44.1074 57.8945 44.0467 57.662 43.9292 57.4571C43.8118 57.2521 43.6418 57.0823 43.4367 56.965C43.0422 56.7513 42.5915 56.6638 42.1457 56.7144C42.0749 56.7144 42.0041 56.7416 41.9332 56.7471C41.8501 56.7666 41.7628 56.757 41.6858 56.72C41.6089 56.683 41.5469 56.6208 41.5102 56.5437C41.4248 56.3621 41.5683 56.2532 41.6917 56.1515C42.2092 55.6921 43.1898 55.6304 43.8326 55.9699C45.1726 56.7071 45.6284 58.9533 44.1031 59.972Z" fill="#050404"/>
<path d="M55.4666 59.5398C55.6482 59.4218 55.5628 59.607 55.5592 59.6396C55.492 60.1154 55.4266 60.593 55.3395 61.0669C55.3014 61.2702 55.3685 61.3211 55.5519 61.3193C55.696 61.3199 55.8399 61.3314 55.9823 61.3538C56.0554 61.3612 56.1233 61.395 56.1734 61.4487C56.2235 61.5025 56.2524 61.5727 56.2547 61.6461C56.2631 61.7253 56.2425 61.8048 56.1968 61.8699C56.151 61.935 56.0832 61.9813 56.0059 62.0002C55.871 62.0542 55.7261 62.0783 55.581 62.071C55.1742 62.0057 55.118 62.2381 55.0853 62.5577C55.029 63.1315 54.9473 63.7034 54.8583 64.2754C54.8256 64.4915 54.8202 64.7621 54.4951 64.7639C54.1701 64.7657 54.1011 64.506 54.0521 64.2772C53.9177 63.6435 54.0176 63.0062 54.092 62.3724C54.1174 62.1418 54.092 62.0692 53.8578 62.1037C53.7143 62.1198 53.5699 62.1258 53.4256 62.1219C53.195 62.1219 52.9844 62.0147 52.9844 61.7859C52.9846 61.7313 52.9956 61.6773 53.0167 61.6269C53.0378 61.5766 53.0687 61.5309 53.1074 61.4924C53.1462 61.454 53.1922 61.4236 53.2427 61.4029C53.2933 61.3822 53.3474 61.3717 53.402 61.3719C53.5922 61.3475 53.7841 61.3384 53.9758 61.3447C54.2064 61.3665 54.2772 61.2684 54.3299 61.0596C54.5115 60.3623 54.5823 59.6378 54.8401 58.9587C54.9168 58.7304 55.0357 58.5185 55.1906 58.3341C55.3398 58.1642 55.547 58.0561 55.7716 58.0309C55.9963 58.0057 56.2223 58.0653 56.4054 58.1979C56.4908 58.2436 56.5571 58.3182 56.5924 58.4084C56.6277 58.4986 56.6296 58.5985 56.5978 58.69C56.5252 58.8861 56.3908 58.926 56.1693 58.8897C55.7735 58.8262 55.561 59.0059 55.3794 59.4671C55.3576 59.5361 55.334 59.6051 55.3104 59.676L54.9727 61.283L55.0798 61.3047C55.1815 60.7872 55.285 60.2679 55.3867 59.7486C55.4139 59.6796 55.4394 59.6088 55.4666 59.5398ZM53.9685 61.7732C53.7351 61.7311 53.4955 61.736 53.264 61.7878C53.5382 61.9439 53.7398 61.8404 53.9685 61.7732Z" fill="#050404"/>
<path d="M60.689 61.6098C60.8823 61.4179 61.1218 61.279 61.3844 61.2067C61.9074 61.0905 62.2052 61.3574 62.1326 61.8931C62.1019 62.1458 61.9919 62.3823 61.8184 62.5686C61.6714 62.7229 61.7167 62.8028 61.8402 62.9317C62.0817 63.1987 62.2996 63.4874 62.5193 63.7725C62.5953 63.8661 62.6566 63.9708 62.7009 64.083C62.7844 64.3172 62.9152 64.5769 62.6283 64.7621C62.4231 64.8928 62.1289 64.7403 61.9746 64.4134C61.8059 64.1086 61.6037 63.8236 61.3717 63.5636C61.3085 63.4823 61.2246 63.4194 61.1288 63.3814C61.033 63.3434 60.9288 63.3317 60.827 63.3476C60.6618 63.3712 60.6981 63.5854 60.6581 63.7107C60.5691 63.9831 60.5328 64.2736 60.4457 64.546C60.4003 64.6876 60.3131 64.8583 60.1261 64.8365C59.9391 64.8147 59.8737 64.6786 59.8174 64.5206C59.7536 64.3009 59.7326 64.0709 59.7557 63.8433C59.7939 63.1341 59.9158 62.432 60.1188 61.7515C60.1443 61.6593 60.1802 61.5703 60.226 61.4864C60.2479 61.4296 60.2862 61.3807 60.336 61.3458C60.3858 61.3109 60.4448 61.2916 60.5056 61.2903C60.6618 61.3066 60.6563 61.4464 60.689 61.6098ZM62.2796 64.5569C62.2942 64.5169 62.3777 64.5678 62.3595 64.4915C62.3575 64.4868 62.3542 64.4826 62.3501 64.4794C62.3459 64.4762 62.3411 64.4742 62.3359 64.4734C62.2506 64.4625 62.2942 64.526 62.2851 64.5605C62.385 64.3426 62.2088 64.2482 62.0617 64.1447C62.1344 64.2827 62.2034 64.4207 62.2796 64.5569ZM61.4498 61.815C61.0776 61.9548 60.9051 62.2744 60.6781 62.6539C60.8684 62.593 61.0396 62.4836 61.1749 62.3365C61.3102 62.1894 61.4049 62.0097 61.4498 61.815ZM62.0218 63.974L61.9401 64.0321C61.957 64.047 61.9753 64.0604 61.9946 64.0721C62.0218 64.0866 62.0599 64.0975 62.0672 64.0539C62.0745 64.0103 62.049 64.0085 62.0218 63.974Z" fill="#050404"/>
<path d="M59.26 62.3888C59.2925 62.9337 59.1388 63.4734 58.8243 63.9195C58.5664 64.2827 58.2232 64.5151 57.7511 64.4225C57.4043 64.3553 56.9867 63.8469 56.9558 63.4347C56.886 62.7949 57.0555 62.152 57.4315 61.6298C57.7366 61.2194 58.0889 61.105 58.6027 61.2485C59.0167 61.3647 59.231 61.6661 59.2582 62.1745C59.2637 62.2708 59.26 62.367 59.26 62.3888ZM58.7807 62.4451C58.7425 62.1309 58.8097 61.8059 58.3757 61.8132C58.078 61.8132 57.9381 61.9748 57.8891 62.396C57.8427 62.6689 57.8538 62.9485 57.9218 63.2168C57.9367 63.2943 57.9782 63.3642 58.0392 63.4143C58.1003 63.4644 58.1769 63.4915 58.2559 63.491C58.3289 63.4968 58.4016 63.4777 58.4623 63.4368C58.523 63.3959 58.568 63.3356 58.59 63.2658C58.7012 63.0055 58.7657 62.7277 58.7807 62.4451Z" fill="#050404"/>
<path d="M68.1409 62.3652C68.081 62.7665 68.1137 63.1877 67.8504 63.54C67.5653 63.925 67.2185 64.2264 66.7155 64.181C66.1508 64.132 65.8076 63.7525 65.626 63.2459C65.2774 62.2708 65.9892 61.1413 66.9588 61.1341C67.1188 61.1321 67.2775 61.163 67.425 61.2248C67.5726 61.2866 67.7059 61.378 67.8167 61.4934C67.9275 61.6088 68.0134 61.7457 68.0692 61.8957C68.125 62.0456 68.1494 62.2054 68.1409 62.3652Z" fill="#F6F1E9"/>
<path d="M68.7711 61.7914C68.6345 61.5405 68.5452 61.2666 68.5078 60.9833C68.7493 61.2448 68.7493 61.519 68.7711 61.7914Z" fill="#6E6E6E"/>
<path d="M66.5792 60.7418L66.6028 60.7654C66.5848 60.774 66.5659 60.7807 66.5466 60.7854C66.5466 60.7854 66.5302 60.7727 66.5229 60.7654L66.5792 60.7418Z" fill="#6E6E6E"/>
<path d="M66.2217 57.7312L66.3343 57.6096C66.349 57.6274 66.3648 57.6443 66.3815 57.6604L66.2852 57.7802L66.2217 57.7312Z" fill="#6E6E6E"/>
<path d="M66.1983 60.947L66.0766 61.0414L66.0439 61.0088C66.0619 60.9844 66.0867 60.9661 66.1152 60.956C66.1437 60.946 66.1745 60.9448 66.2037 60.9525L66.1983 60.947Z" fill="#6E6E6E"/>
<path d="M66.6899 57.2446C66.7135 57.2301 66.7499 57.1974 66.7553 57.2028C66.8025 57.2373 66.7717 57.2718 66.7444 57.3045L66.6899 57.2446Z" fill="#6E6E6E"/>
<path d="M65.441 60.5566C65.4155 60.5711 65.3738 60.602 65.3683 60.5984C65.3302 60.5584 65.3484 60.5257 65.3938 60.5021L65.441 60.5566Z" fill="#F6F1E9"/>
<path d="M66.6191 57.3172L66.69 57.2446L66.7444 57.3045L66.6718 57.3844L66.6191 57.3172Z" fill="#6E6E6E"/>
<path d="M66.2164 57.8547C66.1946 57.871 66.1583 57.9073 66.1528 57.9019C66.1002 57.8656 66.1401 57.8347 66.1655 57.8038C66.1819 57.8202 66.1982 57.8383 66.2164 57.8547Z" fill="#6E6E6E"/>
<path d="M66.2854 57.7802L66.2164 57.8547C66.1982 57.8383 66.1819 57.8202 66.1655 57.8038C66.1837 57.7784 66.2037 57.7548 66.2218 57.7312L66.2854 57.7802Z" fill="#6E6E6E"/>
<path d="M66.1983 60.9525L66.2237 60.898C66.2764 60.9543 66.2056 60.9325 66.1929 60.947L66.1983 60.9525Z" fill="#6E6E6E"/>
<path d="M66.0764 61.0415L66.0019 61.076C65.982 61.0342 66.0128 61.0215 66.0437 61.0088L66.0764 61.0415Z" fill="#6E6E6E"/>
<path d="M66.4014 57.5333L66.474 57.4607L66.5376 57.517L66.4558 57.5951L66.4014 57.5333Z" fill="#6E6E6E"/>
<path d="M66.4741 57.4607L66.5449 57.3881L66.6103 57.4444L66.5377 57.517L66.4741 57.4607Z" fill="#6E6E6E"/>
<path d="M66.3345 57.6096L66.4017 57.5333L66.4561 57.5951L66.3817 57.6604C66.365 57.6444 66.3493 57.6274 66.3345 57.6096Z" fill="#6E6E6E"/>
<path d="M66.5449 57.3953L66.6194 57.3245L66.672 57.3916L66.6103 57.4516L66.5449 57.3953Z" fill="#6E6E6E"/>
<path d="M48.1689 64.3735C49.213 64.3735 50.0392 63.9776 50.6348 63.0189C50.5023 63.885 49.273 64.5314 48.1689 64.3735Z" fill="#F6F1E9"/>
<path d="M49.4273 63.8541C49.1536 64.0016 48.8501 64.0853 48.5394 64.0991C48.2288 64.113 47.9191 64.0565 47.6333 63.934C48.2297 64.043 48.843 64.0157 49.4273 63.8541Z" fill="#6E6E6E"/>
<path d="M50.9453 60.809C51.1541 61.2684 51.0978 61.7387 51.0125 62.209C51.0997 61.7369 50.9943 61.2721 50.9526 60.8036L50.9453 60.809Z" fill="#6E6E6E"/>
<path d="M50.6313 63.1224C50.6649 62.9516 50.7468 62.794 50.8674 62.6685C50.8494 62.8443 50.765 63.0067 50.6313 63.1224Z" fill="#F6F1E9"/>
<path d="M48.0964 58.1725C48.0429 58.3125 47.9495 58.4338 47.8276 58.5211C47.8506 58.3675 47.9256 58.2265 48.0401 58.1216L48.0964 58.1725Z" fill="#F6F1E9"/>
<path d="M48.04 58.1216C48.043 58.0816 48.0556 58.0428 48.0768 58.0086C48.0979 57.9745 48.1271 57.946 48.1617 57.9255C48.2253 58.0345 48.129 58.0944 48.0927 58.1743L48.04 58.1216Z" fill="#F6F1E9"/>
<path d="M50.6186 60.0845L50.7893 60.3406L50.7039 60.3932C50.6531 60.3242 50.6041 60.2534 50.5532 60.1826L50.6186 60.0845Z" fill="#6E6E6E"/>
<path d="M50.8235 60.4205C50.8707 60.4622 50.9089 60.5312 50.8562 60.5657C50.8036 60.6002 50.7854 60.5149 50.7563 60.4786L50.8235 60.4205Z" fill="#6E6E6E"/>
<path d="M50.9453 60.8036C50.9344 60.8021 50.924 60.7982 50.9149 60.7922C50.9057 60.7861 50.8981 60.7781 50.8925 60.7686C50.8869 60.7592 50.8835 60.7486 50.8826 60.7377C50.8817 60.7268 50.8832 60.7158 50.8872 60.7055C50.8872 60.7055 50.9035 60.6928 50.9126 60.6874C50.9126 60.7273 50.9307 60.7673 50.938 60.809L50.9453 60.8036Z" fill="#6E6E6E"/>
<path d="M49.5508 63.7507C49.5889 63.6998 49.6543 63.6563 49.6924 63.7144C49.7305 63.7725 49.6361 63.7834 49.6034 63.8197L49.5508 63.7507Z" fill="#6E6E6E"/>
<path d="M50.7636 60.4822L50.7109 60.3968L50.7963 60.3442C50.8072 60.3714 50.8199 60.3968 50.8308 60.4241L50.7636 60.4822Z" fill="#6E6E6E"/>
<path d="M50.5296 60.0155L50.6185 60.0845L50.5532 60.1826L50.4878 60.1045L50.5296 60.0155Z" fill="#6E6E6E"/>
<path d="M49.6034 63.8178C49.5689 63.8378 49.529 63.8796 49.4945 63.8306C49.46 63.7815 49.5181 63.767 49.5508 63.7488L49.6034 63.8178Z" fill="#6E6E6E"/>
<path d="M50.2696 59.8884C50.2405 59.8612 50.1951 59.8303 50.2569 59.7958C50.3186 59.7613 50.3368 59.7958 50.3585 59.843L50.2696 59.8884Z" fill="#6E6E6E"/>
<path d="M50.3588 59.843C50.3933 59.8721 50.4242 59.9066 50.3588 59.9374C50.2934 59.9683 50.2862 59.9211 50.2607 59.8884L50.3588 59.843Z" fill="#6E6E6E"/>
<path d="M50.4878 60.1045C50.4479 60.0755 50.4061 60.0446 50.4497 59.9937C50.4497 59.9847 50.5023 60.0083 50.5296 60.0155C50.5151 60.0446 50.5023 60.0755 50.4878 60.1045Z" fill="#6E6E6E"/>
<path d="M47.8202 58.5974L47.7966 58.6174C47.7966 58.6174 47.7803 58.601 47.7803 58.5938C47.7803 58.5865 47.793 58.5792 47.8021 58.5738L47.8202 58.5974Z" fill="#F6F1E9"/>
<path d="M38.0964 59.1167C38.0709 58.5574 38.1163 58.4485 38.5104 58.1797C38.5576 58.6155 38.4468 59.0205 38.4105 59.4272C38.396 59.5852 38.2961 59.4018 38.2289 59.4109V59.4272C38.2507 59.3491 38.2289 59.2965 38.1472 59.2765C38.1472 59.2129 38.1708 59.1403 38.0728 59.1258L38.0964 59.1167Z" fill="#F6F1E9"/>
<path d="M37.3868 59.9229C37.0127 59.5071 36.744 59.055 36.8784 58.4703C36.9147 58.2794 37.0193 58.1084 37.1725 57.9891C37.0871 58.3003 37.0681 58.626 37.1165 58.945C37.165 59.2641 37.28 59.5694 37.454 59.8412L37.3868 59.9229Z" fill="#F6F1E9"/>
<path d="M38.8794 62.6884V61.3465C39.199 61.7623 39.1899 62.1999 38.8794 62.6884Z" fill="#F6F1E9"/>
<path d="M39.0117 63.117C39.2042 62.7738 39.4257 62.4378 39.295 61.9694C39.5546 62.3797 39.462 62.7465 39.0371 63.1387L39.0117 63.117Z" fill="#F6F1E9"/>
<path d="M38.0675 63.5001C37.6844 63.6363 37.3594 63.5546 36.9072 63.2132C37.2849 63.3421 37.6517 63.5146 38.0675 63.5001Z" fill="#F6F1E9"/>
<path d="M38.4288 62.3616C38.3271 61.8356 38.3271 61.2951 38.4288 60.7691V62.3616Z" fill="#6E6E6E"/>
<path d="M38.2656 59.7813C38.1948 59.7259 38.1375 59.655 38.0982 59.5742C38.0589 59.4933 38.0385 59.4046 38.0386 59.3147C38.0533 59.3042 38.0672 59.2926 38.0803 59.2802H38.1566C38.1566 59.3455 38.1566 59.4127 38.2383 59.4309V59.4145C38.1947 59.5307 38.291 59.5961 38.32 59.6996L38.2656 59.7813Z" fill="#6E6E6E"/>
<path d="M38.0386 59.3146C37.9696 59.2238 38.0386 59.1694 38.0967 59.1167L38.0822 59.1294V59.2801C38.0685 59.2927 38.054 59.3042 38.0386 59.3146Z" fill="#6E6E6E"/>
<path d="M39.037 63.1387L38.9716 63.1968L38.9517 63.1714L39.0116 63.1169L39.037 63.1387Z" fill="#F6F1E9"/>
<path d="M37.4539 59.8358C37.4993 59.8684 37.5556 59.9048 37.4902 59.961C37.4248 60.0173 37.4103 59.961 37.3867 59.9229L37.4539 59.8358Z" fill="#F6F1E9"/>
<path d="M38.3147 59.6959C38.3492 59.725 38.38 59.7595 38.3437 59.8012C38.3437 59.8103 38.2929 59.7885 38.2656 59.7813L38.3147 59.6959Z" fill="#6E6E6E"/>
<path d="M55.3867 59.7559C55.285 60.2752 55.1815 60.7945 55.0798 61.312L54.9727 61.2902L55.3104 59.6832L55.3867 59.7559Z" fill="#F6F1E9"/>
<path d="M53.9687 61.7732C53.7399 61.8404 53.5383 61.9439 53.2642 61.7878C53.4957 61.7361 53.7352 61.7311 53.9687 61.7732Z" fill="#6E6E6E"/>
<path d="M55.4667 59.5398C55.4395 59.6088 55.4141 59.6796 55.3868 59.7486L55.3105 59.676C55.3342 59.6052 55.3578 59.5362 55.3795 59.4672L55.4667 59.5398Z" fill="#F6F1E9"/>
<path d="M61.4499 61.815C61.4062 62.011 61.3119 62.1923 61.1766 62.3407C61.0412 62.4891 60.8694 62.5996 60.6782 62.6612C60.9016 62.2744 61.0777 61.9548 61.4499 61.815Z" fill="#F6F1E9"/>
<path d="M62.2812 64.5568L62.0615 64.1447C62.2086 64.2482 62.3847 64.3426 62.2849 64.5605L62.2812 64.5568Z" fill="#F6F1E9"/>
<path d="M62.0217 63.974C62.0416 64.0085 62.0707 64.0321 62.0671 64.0539C62.0634 64.0757 62.0217 64.0866 61.9944 64.072C61.9751 64.0604 61.9569 64.047 61.9399 64.0321L62.0217 63.974Z" fill="#F6F1E9"/>
<path d="M62.2849 64.5605C62.294 64.526 62.2504 64.4625 62.3357 64.4733C62.3409 64.4741 62.3457 64.4762 62.3499 64.4794C62.354 64.4826 62.3572 64.4867 62.3593 64.4915C62.3775 64.5678 62.294 64.5169 62.2812 64.5569L62.2849 64.5605Z" fill="#F6F1E9"/>
<path d="M58.7803 62.4451C58.7682 62.7272 58.7067 63.005 58.5987 63.2658C58.5767 63.3356 58.5317 63.3959 58.471 63.4368C58.4103 63.4777 58.3375 63.4968 58.2646 63.491C58.1856 63.4915 58.109 63.4644 58.0479 63.4143C57.9869 63.3642 57.9453 63.2943 57.9305 63.2168C57.8625 62.9485 57.8513 62.6689 57.8978 62.396C57.9468 61.9748 58.0794 61.8168 58.3844 61.8132C58.8093 61.8059 58.7421 62.1309 58.7803 62.4451Z" fill="#F6F1E9"/>
<path d="M38.2346 59.4272C38.1475 59.409 38.1529 59.3419 38.1529 59.2765C38.2346 59.2965 38.2546 59.3491 38.2346 59.4272Z" fill="#050404"/>
<path d="M38.0801 59.2801V59.1294C38.1781 59.1439 38.1582 59.2166 38.1545 59.2801H38.0801Z" fill="#050404"/>
</g>
<defs>
<filter id="filter0_d_2246_630" x="0" y="0.0239258" width="123.857" height="122" filterUnits="userSpaceOnUse" color-interpolation-filters="sRGB">
<feFlood flood-opacity="0" result="BackgroundImageFix"/>
<feColorMatrix in="SourceAlpha" type="matrix" values="0 0 0 0 0 0 0 0 0 0 0 0 0 0 0 0 0 0 127 0" result="hardAlpha"/>
<feOffset dx="5" dy="4"/>
<feGaussianBlur stdDeviation="2"/>
<feComposite in2="hardAlpha" operator="out"/>
<feColorMatrix type="matrix" values="0 0 0 0 0 0 0 0 0 0 0 0 0 0 0 0 0 0 0.25 0"/>
<feBlend mode="normal" in2="BackgroundImageFix" result="effect1_dropShadow_2246_630"/>
<feBlend mode="normal" in="SourceGraphic" in2="effect1_dropShadow_2246_630" result="shape"/>
</filter>
<clipPath id="clip0_2246_630">
<rect width="92.65" height="92.65" fill="white" transform="translate(9 12)"/>
</clipPath>
</defs>
</svg>
