<svg width="124" height="123" viewBox="0 0 124 123" fill="none" xmlns="http://www.w3.org/2000/svg">
<g filter="url(#filter0_d_2246_630)">
<path d="M0 57.0665C0.210054 42.5812 5.0674 29.8272 14.896 19.0387C22.9065 10.2475 32.8206 4.60071 44.3522 1.72826C47.9088 0.842514 51.5237 0.328097 55.1848 0.121148C62.755 -0.308124 70.1223 0.675772 77.2665 3.23958C84.578 5.86369 91.0387 9.86195 96.6781 15.1835C101.477 19.7116 105.219 25 108.26 30.8348C111.39 36.8446 113.424 43.1713 114.337 49.8729C114.746 52.8778 114.93 55.8958 114.831 58.9231C114.369 73.0182 109.452 85.3547 99.8645 95.7388C91.7412 104.536 81.7453 110.189 70.0108 112.741C66.6452 113.473 63.2392 113.931 59.7905 114.007C44.3735 114.347 30.7794 109.55 19.1873 99.413C9.9817 91.3621 4.14055 81.2524 1.40866 69.3628C0.56133 65.6779 0.106807 61.9387 0.0545902 58.1545C0.0498432 57.8115 0.0213614 57.4697 0.00118674 57.0677L0 57.0665Z" fill="#060000"/>
<path d="M60.3712 108.353C52.4034 108.498 44.972 107.192 37.8456 104.287C32.7331 102.203 27.9565 99.5338 23.7993 95.8702C16.9649 89.8485 11.9675 82.5639 8.81907 74.027C7.44364 70.2995 6.52272 66.4597 6.0326 62.5218C5.54841 58.6406 5.40244 54.7429 5.93529 50.8629C6.65208 45.6454 8.18773 40.6537 10.4829 35.9046C15.0091 26.5386 21.6869 19.0553 30.4902 13.502C36.3195 9.8254 42.6638 7.37749 49.4639 6.13698C52.8117 5.52559 56.1879 5.23823 59.5892 5.27016C64.8583 5.31982 70.0337 6.04592 75.037 7.70388C78.5213 8.85806 81.7658 10.5586 84.8371 12.5642C94.8046 19.0743 101.874 27.9412 106.318 38.9166C108.247 43.6788 109.448 48.6254 109.928 53.7436C110.161 56.2151 110.292 58.6926 110.083 61.1677C109.835 64.1076 109.241 66.9919 108.438 69.8312C106.053 78.2499 101.84 85.6469 95.8359 92.0197C89.5592 98.6823 82.0566 103.474 73.3601 106.368C70.7481 107.237 68.0233 107.667 65.2891 107.996C63.5636 108.203 61.8309 108.295 60.3712 108.355V108.353Z" fill="#F8F2EA"/>
<path d="M59.7516 103.99C52.5144 104.122 45.7644 102.931 39.2915 100.282C34.6478 98.3823 30.3091 95.9488 26.5331 92.6084C20.3254 87.1181 15.7862 80.4762 12.9265 72.6925C11.6772 69.2939 10.8407 65.7929 10.3955 62.2024C9.95571 58.6637 9.82313 55.1098 10.3071 51.5722C10.9582 46.815 12.353 42.2638 14.4377 37.9337C18.5489 29.3941 24.6144 22.5711 32.6105 17.5077C37.9053 14.1555 43.6679 11.9236 49.8444 10.7925C52.8852 10.2351 55.9519 9.97307 59.0412 10.0022C63.8272 10.0475 68.5281 10.7095 73.0726 12.2212C76.2374 13.2735 79.1844 14.824 81.9741 16.6527C91.0276 22.5883 97.4488 30.6729 101.486 40.6799C103.237 45.0219 104.328 49.5322 104.765 54.1987C104.976 56.4522 105.095 58.7111 104.905 60.9678C104.68 63.6483 104.141 66.2781 103.411 68.8669C101.244 76.5428 97.4176 83.2872 91.9643 89.0977C86.2632 95.1725 79.4485 99.5414 71.5495 102.18C69.177 102.972 66.7021 103.365 64.2185 103.665C62.6512 103.853 61.0774 103.937 59.7516 103.991V103.99Z" fill="#181818"/>
<path d="M15.9546 22.616C17.1663 20.7972 18.537 19.0991 20.0014 17.4813C20.8144 16.5837 21.7815 15.8387 22.7772 15.0239C20.6221 17.7285 18.2818 20.1728 16.0555 22.7165C15.9677 22.7366 15.9214 22.7165 15.9546 22.616Z" fill="#F8F2EA"/>
<path d="M91.9747 16.8014C94.5986 18.9312 96.9804 21.3011 99.0952 23.9346C99.113 24.021 99.0881 24.0647 98.9919 24.0328C96.7312 21.5447 94.2984 19.2268 91.8632 16.9114C91.8465 16.8215 91.8774 16.7777 91.9735 16.8014H91.9747Z" fill="#F8F2EA"/>
<path d="M113.549 53.5225C113.835 55.7339 113.985 57.9512 113.768 60.1768C113.687 61.0117 113.559 61.8418 113.452 62.6743C113.204 62.5584 113.369 62.3681 113.367 62.2072C113.498 60.1401 113.619 58.073 113.548 55.9999C113.521 55.2064 113.485 54.4129 113.452 53.6194C113.42 53.5236 113.461 53.5 113.549 53.5213V53.5225Z" fill="#F8F2EA"/>
<path d="M64.2858 110.044C63.067 110.202 61.8494 110.364 60.6294 110.515C59.483 110.658 58.3331 110.778 57.1878 110.936C56.8852 110.979 56.5968 110.931 56.3025 110.924C56.2159 110.922 56.0533 110.999 56.0735 110.804C56.0865 110.679 56.1886 110.631 56.3108 110.623C56.7476 110.594 57.1831 110.549 57.621 110.534C59.5898 110.465 61.5444 110.241 63.4966 109.991C63.7565 109.958 64.0187 109.917 64.2858 110.043V110.044Z" fill="#F8F2EA"/>
<path d="M36.0743 9.43628C38.4288 8.12008 41.0028 7.3798 43.5603 6.59812C43.6623 6.56382 43.6872 6.60994 43.6694 6.70218C41.1417 7.57019 38.6246 8.47012 36.1728 9.5368C36.0755 9.56518 36.0517 9.52379 36.0743 9.43628Z" fill="#F8F2EA"/>
<path d="M89.3213 100.115C91.3779 98.3194 93.4832 96.5763 95.3891 94.6109C94.9287 95.5073 90.616 99.4405 89.3213 100.115Z" fill="#F8F2EA"/>
<path d="M98.5215 18.9252C99.421 19.5839 102.876 23.6259 103.357 24.5448C101.62 22.7804 100.254 20.6967 98.5215 18.9252Z" fill="#F8F2EA"/>
<path d="M89.5979 13.4547C88.3518 12.7333 87.1069 12.0108 85.8608 11.2894C87.2339 11.7897 88.6865 12.1492 89.5979 13.4547Z" fill="#F8F2EA"/>
<path d="M15.6695 25.6044C16.5228 24.3805 17.4864 23.2405 18.4429 22.097C18.5094 22.0165 18.5664 21.8273 18.7242 21.9456C18.8987 22.0769 18.7444 22.1821 18.6566 22.2862C17.6941 23.4262 16.7317 24.5673 15.7704 25.7085C15.6861 25.7227 15.6387 25.7002 15.6707 25.6044H15.6695Z" fill="#F8F2EA"/>
<path d="M112.832 67.2084C112.584 68.8522 112.199 70.464 111.678 72.0439C111.65 72.0782 111.62 72.0794 111.588 72.0475C112.004 70.341 112.428 68.6369 112.728 66.9045C112.953 66.9411 112.826 67.0972 112.832 67.2072V67.2084Z" fill="#F8F2EA"/>
<path d="M98.9937 24.0327C99.0281 23.9996 99.0625 23.9677 99.0969 23.9346C100.248 25.252 101.252 26.6769 102.205 28.1398C102.237 28.232 102.193 28.2474 102.115 28.2285C101.154 26.7715 100.063 25.4104 98.9937 24.0327Z" fill="#F8F2EA"/>
<path d="M112.832 67.2082C112.786 67.1112 112.852 66.9752 112.729 66.9055C112.941 65.3398 113.154 63.774 113.366 62.2083C113.426 62.3585 113.334 62.5359 113.452 62.6754C113.245 64.1867 113.039 65.6969 112.833 67.2082H112.832Z" fill="#F8F2EA"/>
<path d="M111.127 73.8317C110.869 75.1337 110.319 76.3376 109.861 77.5722C109.78 77.7897 109.687 78.0026 109.599 78.2178C109.521 78.2285 109.465 78.2202 109.517 78.1209C110.05 76.6722 110.61 75.2318 111.054 73.7525C111.089 73.7394 111.125 73.7276 111.149 73.769C111.158 73.7856 111.145 73.8092 111.129 73.8317H111.127Z" fill="#F8F2EA"/>
<path d="M111.942 42.359C112.38 43.7154 112.802 45.0766 112.845 46.5146C112.544 45.1298 112.244 43.745 111.942 42.359Z" fill="#F8F2EA"/>
<path d="M55.0456 4.18812C56.0709 4.08879 57.0915 3.92796 58.1216 3.90076C58.1263 3.95752 58.1323 4.0131 58.137 4.06986C57.139 4.14318 56.1409 4.2165 55.1417 4.28982C55.0467 4.31466 55.0194 4.27563 55.0444 4.18694L55.0456 4.18812Z" fill="#F8F2EA"/>
<path d="M4.23526 57.0086V59.803C4.18542 59.803 4.13558 59.8006 4.08573 59.7995C3.87449 58.7943 4.24476 57.808 4.23526 57.0086Z" fill="#F8F2EA"/>
<path d="M7.15602 39.9395C6.96852 40.448 6.77627 40.9565 6.59469 41.4673C6.54722 41.601 6.49026 41.7086 6.33361 41.6459C6.13186 41.5643 6.28495 41.4484 6.33005 41.3562C6.56147 40.8808 6.79881 40.4101 7.03498 39.9371C7.07651 39.8981 7.11686 39.8993 7.15721 39.9406L7.15602 39.9395Z" fill="#F8F2EA"/>
<path d="M46.195 5.19088C45.2836 5.41675 44.3733 5.64262 43.4619 5.86968C44.2843 5.41202 45.191 5.25356 46.0977 5.09273C46.1902 5.06671 46.2175 5.10456 46.195 5.19207V5.19088Z" fill="#F8F2EA"/>
<path d="M6.29894 71.6784C5.86222 70.8009 5.7388 69.8359 5.61182 68.871C5.84086 69.8064 6.0699 70.743 6.29894 71.6784Z" fill="#F8F2EA"/>
<path d="M15.6691 25.6044C15.7024 25.6387 15.7356 25.6741 15.7688 25.7084C15.3523 26.2796 14.9357 26.852 14.5192 27.4232C14.4836 27.3995 14.4492 27.3759 14.4136 27.3522C14.8159 26.7597 15.198 26.1531 15.6691 25.6044Z" fill="#F8F2EA"/>
<path d="M23.2446 98.0296C23.8024 98.4707 24.3602 98.9118 24.9179 99.3529C24.0457 98.952 23.5057 98.5227 23.2446 98.0296Z" fill="#F8F2EA"/>
<path d="M66.6703 3.36041C66.0366 3.31311 65.4017 3.26462 64.7217 3.21377C65.4207 2.84954 66.0425 3.27763 66.6822 3.24452C66.6774 3.28236 66.6739 3.32138 66.6691 3.35923L66.6703 3.36041Z" fill="#F8F2EA"/>
<path d="M78.2969 8.0918C79.0291 8.18522 79.664 8.46549 80.2419 8.88648C79.594 8.62159 78.9448 8.35669 78.2969 8.0918Z" fill="#F8F2EA"/>
<path d="M43.6697 6.70225C43.6329 6.66795 43.5973 6.63247 43.5605 6.59818C44.0922 6.35457 44.6607 6.24932 45.2196 6.11096C45.2315 6.1488 45.2433 6.18665 45.2552 6.22449C44.7259 6.38413 44.1978 6.5426 43.6685 6.70225H43.6697Z" fill="#F8F2EA"/>
<path d="M69.8861 109.59C70.3383 109.457 70.7904 109.322 71.2426 109.188C70.9732 109.654 70.4771 109.548 70.0819 109.692C69.9846 109.718 69.8743 109.771 69.8861 109.59Z" fill="#F8F2EA"/>
<path d="M61.1313 111.588C61.8564 111.575 62.5721 111.37 63.3043 111.507C62.5792 111.52 61.8659 111.756 61.1313 111.588Z" fill="#F8F2EA"/>
<path d="M21.6143 95.1689C22.0261 95.5544 22.439 95.9411 22.8508 96.3266C22.8247 96.3538 22.7974 96.3822 22.7713 96.4094C22.3156 96.0676 21.9169 95.6679 21.6143 95.1689Z" fill="#F8F2EA"/>
<path d="M24.0967 97.5387C23.6588 97.2395 23.2624 96.8954 22.9277 96.4826C23.3858 96.7558 23.7858 97.0988 24.1631 97.4701C24.1726 97.5221 24.1501 97.5458 24.0967 97.5387Z" fill="#F8F2EA"/>
<path d="M8.69288 79.4739C8.40332 79.0021 8.21344 78.4924 8.13867 77.9354C8.34754 78.4274 8.55641 78.9205 8.76527 79.4125C8.76527 79.4609 8.74154 79.481 8.69407 79.4751L8.69288 79.4739Z" fill="#F8F2EA"/>
<path d="M91.9752 16.8012C91.9384 16.8379 91.9016 16.8746 91.8648 16.9112C91.5812 16.6534 91.2976 16.3956 91.0151 16.1378C91.4079 16.2667 91.7106 16.5091 91.9764 16.8012H91.9752Z" fill="#F8F2EA"/>
<path d="M102.115 28.2286C102.144 28.199 102.175 28.1695 102.205 28.1399C102.515 28.4828 102.727 28.8825 102.875 29.3272C102.621 28.9606 102.369 28.594 102.115 28.2286Z" fill="#F8F2EA"/>
<path d="M46.1955 5.19099C46.1634 5.15788 46.1302 5.12477 46.0981 5.09165C46.5574 4.94029 47.0238 4.82439 47.5104 4.81848C47.521 4.83031 47.5305 4.84332 47.5412 4.85514C47.1104 5.03962 46.6476 5.09165 46.1955 5.18981V5.19099Z" fill="#F8F2EA"/>
<path d="M30.9751 102.27C31.3145 102.468 31.6551 102.665 31.9945 102.861C31.5827 102.795 31.2362 102.604 30.9751 102.27Z" fill="#F8F2EA"/>
<path d="M69.8858 109.59C69.9096 109.704 70.0164 109.658 70.0816 109.692C69.6758 109.787 69.2711 109.882 68.8652 109.977C69.1762 109.752 69.5274 109.66 69.8858 109.59Z" fill="#F8F2EA"/>
<path d="M113.549 53.5224C113.517 53.5555 113.485 53.5874 113.452 53.6205C113.326 53.2764 113.36 52.9252 113.446 52.5692L113.549 53.5224Z" fill="#F8F2EA"/>
<path d="M25.5412 98.668C25.2279 98.4824 24.93 98.2766 24.6808 98.0093C24.6785 97.9632 24.7022 97.9467 24.7461 97.9573C25.057 98.0921 25.2778 98.3464 25.5388 98.5474C25.5804 98.5864 25.5816 98.6266 25.5412 98.668Z" fill="#F8F2EA"/>
<path d="M36.0745 9.43636C36.1077 9.46948 36.1398 9.50377 36.173 9.53688C35.9226 9.71072 35.6449 9.81952 35.3423 9.86682C35.5571 9.66933 35.7992 9.52506 36.0733 9.43518L36.0745 9.43636Z" fill="#F8F2EA"/>
<path d="M55.0457 4.18805C55.0777 4.22234 55.1109 4.25664 55.143 4.29093C54.8309 4.4494 54.5057 4.37253 54.1758 4.29921C54.4653 4.26255 54.7561 4.22471 55.0457 4.18805Z" fill="#F8F2EA"/>
<path d="M7.15544 39.9393C7.11509 39.9393 7.07355 39.937 7.0332 39.9358C7.15306 39.6721 7.27293 39.4083 7.39279 39.1458C7.38448 39.4391 7.33701 39.7134 7.15544 39.9393Z" fill="#F8F2EA"/>
<path d="M9.1543 34.8508C9.29789 34.5587 9.44149 34.2654 9.58508 33.9733C9.62069 33.9899 9.65748 34.0064 9.69308 34.023C9.5566 34.3186 9.47116 34.6379 9.1543 34.8508Z" fill="#F8F2EA"/>
<path d="M110.295 43.5842C110.225 43.3051 110.154 43.026 110.084 42.7469C110.29 42.9539 110.378 43.1999 110.381 43.4742C110.426 43.5688 110.381 43.5937 110.293 43.5842H110.295Z" fill="#F8F2EA"/>
<path d="M109.517 78.121C109.544 78.1529 109.571 78.186 109.598 78.218C109.511 78.4651 109.412 78.7064 109.175 78.9689C109.263 78.6189 109.368 78.3622 109.517 78.121Z" fill="#F8F2EA"/>
<path d="M15.9542 22.616C15.9874 22.6491 16.0218 22.6834 16.055 22.7165C15.9423 22.9719 15.7382 23.1529 15.5293 23.335C15.6136 23.0606 15.7488 22.8182 15.9542 22.616Z" fill="#F8F2EA"/>
<path d="M8.76408 79.4124C8.91361 79.6725 9.05483 79.9339 9.08568 80.2437C8.9053 80.0119 8.75814 79.7648 8.69287 79.4751C8.71661 79.4538 8.74034 79.4337 8.76408 79.4124Z" fill="#F8F2EA"/>
<path d="M25.5409 98.6681C25.5409 98.6279 25.5398 98.5877 25.5386 98.5475C25.7735 98.6823 25.9884 98.8419 26.1509 99.0714C25.9243 98.9732 25.6964 98.8786 25.5409 98.6693V98.6681Z" fill="#F8F2EA"/>
<path d="M109.539 40.4907C109.356 40.2908 109.22 40.0744 109.268 39.6995C109.381 40.0295 109.46 40.2601 109.539 40.4907Z" fill="#F8F2EA"/>
<path d="M110.295 43.5841C110.325 43.5474 110.353 43.5108 110.383 43.4741C110.501 43.6941 110.536 43.9318 110.499 44.1872C110.431 43.9862 110.363 43.7851 110.295 43.5841Z" fill="#F8F2EA"/>
<path d="M111.588 72.0473C111.619 72.0603 111.649 72.058 111.679 72.0438C111.611 72.259 111.543 72.4754 111.435 72.8196C111.397 72.447 111.459 72.2401 111.588 72.0485V72.0473Z" fill="#F8F2EA"/>
<path d="M47.5098 4.81957C47.7566 4.6954 48.0153 4.641 48.3891 4.68476C48.0438 4.75453 47.8076 4.87397 47.5406 4.85623C47.5299 4.84441 47.5204 4.8314 47.5098 4.81957Z" fill="#F8F2EA"/>
<path d="M24.6806 98.0095C24.4859 97.8522 24.2913 97.6961 24.0967 97.5388C24.1192 97.5163 24.1406 97.4927 24.1631 97.4702C24.3851 97.6003 24.5809 97.7611 24.7458 97.9574C24.7173 97.9657 24.696 97.9834 24.6806 98.0095Z" fill="#F8F2EA"/>
<path d="M111.128 73.8318C111.103 73.8058 111.078 73.7786 111.053 73.7526C111.113 73.5468 111.172 73.3411 111.231 73.1353C111.263 73.3813 111.273 73.6214 111.127 73.8318H111.128Z" fill="#F8F2EA"/>
</g>
<g clip-path="url(#clip0_2246_630)">
<path d="M12.0908 11.5997C12.0908 11.696 12.0908 11.7922 12.0908 11.8884V102.354C12.0908 102.45 12.0908 102.547 12.0908 102.643C12.069 102.626 12.0145 102.679 12.0181 102.606C12.0218 102.534 12.0181 102.414 12.0181 102.318C12.0181 72.1861 12.0199 42.0551 12.0236 11.9248C12.0236 11.8158 11.94 11.6796 12.0908 11.5997Z" fill="#F6F0E9"/>
<path d="M56.936 82.6325C54.1287 82.6325 51.3215 82.6579 48.5142 82.6325C44.7204 82.5913 40.9278 82.5041 37.1364 82.371C36.6069 82.3828 36.0776 82.3408 35.5566 82.2457C35.4139 82.2199 35.2831 82.1493 35.1832 82.0442C35.0833 81.939 35.0195 81.8048 35.001 81.661C34.9049 81.1638 34.8575 80.6584 34.8593 80.1521C34.8412 77.6208 34.7794 75.0914 34.6959 72.5601C34.5851 69.2372 34.478 65.9125 34.4253 62.5859C34.3872 60.1273 34.3454 57.6687 34.2746 55.2119C34.1693 51.5221 34.1475 47.8342 34.1185 44.1445C34.1039 42.4213 34.1639 40.6945 34.1711 38.9731C34.1713 38.8658 34.1975 38.7602 34.2475 38.6654C34.2975 38.5705 34.3697 38.4891 34.458 38.4283L38.0769 35.3197C39.7221 33.907 41.3781 32.5051 43.0686 31.1433C43.1338 31.0733 43.2188 31.0249 43.3122 31.0044C43.4057 30.984 43.5031 30.9925 43.5916 31.0289C43.6816 31.064 43.7787 31.0771 43.8748 31.067C46.0393 30.9145 48.2074 30.9472 50.3754 30.9145C55.1474 30.8455 59.9193 30.8582 64.6913 30.8691C69.8246 30.88 74.9561 30.9199 80.0894 30.9563C80.9682 30.9563 81.8453 31.0234 82.7241 31.038C83.0095 31.0597 83.2872 31.1408 83.5394 31.2758C83.7428 31.3666 83.7918 31.5918 83.8027 31.7952C83.9444 34.4426 84.0733 37.0901 84.1368 39.7412C84.2119 42.9104 84.2997 46.0796 84.4001 49.2487C84.5817 55.2881 84.6471 61.3294 84.6961 67.3706C84.6961 68.3239 84.7215 69.2772 84.7415 70.2286C84.7492 70.4576 84.6992 70.6849 84.5962 70.8896C83.2525 73.5734 81.7454 76.1663 80.2074 78.743C79.5465 79.8488 78.8728 80.9492 78.23 82.0659C78.1326 82.2581 77.9804 82.4171 77.7926 82.5228C77.6048 82.6285 77.3899 82.6761 77.175 82.6597C74.5366 82.6815 71.8983 82.7559 69.2599 82.7632C65.5484 82.7632 61.8387 82.7396 58.1271 82.7251H56.936V82.6325ZM35.6056 59.4336H35.6401C35.6401 60.9153 35.6401 62.397 35.6401 63.8787C35.651 66.5553 35.6528 69.2299 35.6855 71.9065C35.7182 74.3887 35.8054 76.8727 35.8308 79.3513C35.8398 79.8946 36.0196 80.4212 36.3447 80.8566C36.5099 81.0908 36.7242 81.3105 37.071 81.3033C38.2876 81.2742 39.5036 81.2555 40.719 81.247C47.4375 81.1998 54.1414 81.267 60.8527 81.3487C62.0457 81.3632 63.2387 81.3777 64.4298 81.3995C68.6207 81.4794 72.8116 81.5617 77.0025 81.6465C77.1039 81.655 77.2056 81.6332 77.2945 81.5837C77.3835 81.5342 77.4557 81.4593 77.5019 81.3687C79.4048 78.1559 81.2745 74.9249 83.1109 71.6758C83.5133 70.9782 83.7127 70.182 83.6865 69.377C83.6375 65.2007 83.6556 61.0116 83.6284 56.828C83.6084 53.8972 83.5649 50.9683 83.5158 48.0376C83.4523 44.179 83.3706 40.3222 83.2326 36.4654C83.1835 35.1054 83.1436 33.7417 83.1036 32.3817C83.1131 32.2365 83.067 32.0932 82.9746 31.9809C82.8821 31.8685 82.7504 31.7956 82.6061 31.777C82.217 31.6998 81.8206 31.6657 81.424 31.6753C77.8941 31.6172 74.3641 31.5518 70.8342 31.5246C61.9077 31.4574 52.9793 31.4048 44.051 31.4847C43.8725 31.4836 43.7 31.5482 43.5661 31.6662C40.9368 33.778 38.4401 36.0478 35.8707 38.2322C35.562 38.4955 35.3895 38.6989 35.4186 39.1801C35.5802 41.7785 35.5166 44.386 35.5566 46.9881C35.5965 49.6755 35.5947 52.3629 35.6056 55.0503C35.6056 56.5174 35.6056 57.9755 35.6056 59.4336Z" fill="#F6F0E9"/>
<path d="M35.6057 59.4336C35.6057 57.981 35.6057 56.5175 35.6057 55.0594C35.5948 52.372 35.5966 49.6846 35.5567 46.9972C35.5167 44.3933 35.5803 41.7858 35.4187 39.1892C35.3896 38.708 35.5621 38.5046 35.8708 38.2413C38.4402 36.0623 40.9369 33.7871 43.5662 31.6753C43.7001 31.5573 43.8726 31.4927 44.0511 31.4937C52.9794 31.4139 61.9078 31.4665 70.8343 31.5337C74.3642 31.5609 77.8942 31.6263 81.4241 31.6844C81.8207 31.6748 82.2171 31.7089 82.6062 31.7861C82.7505 31.8047 82.8822 31.8776 82.9747 31.9899C83.0671 32.1023 83.1132 32.2456 83.1037 32.3908C83.1437 33.7526 83.1836 35.1145 83.2327 36.4745C83.3707 40.3313 83.4524 44.1881 83.5159 48.0467C83.565 50.9774 83.6085 53.9063 83.6285 56.837C83.6557 61.0134 83.6285 65.2043 83.6866 69.3861C83.7154 70.1888 83.5199 70.9836 83.1219 71.6813C81.2807 74.9292 79.411 78.1601 77.5129 81.3741C77.4667 81.4648 77.3945 81.5397 77.3055 81.5892C77.2166 81.6386 77.1149 81.6605 77.0135 81.6519C72.8226 81.5672 68.6317 81.4849 64.4408 81.405C63.2496 81.3832 62.0567 81.3687 60.8637 81.3541C54.1452 81.2724 47.443 81.2052 40.7299 81.2524C39.5194 81.2621 38.3034 81.2809 37.082 81.3087C36.7279 81.3087 36.5136 81.0963 36.3557 80.862C36.0306 80.4267 35.8508 79.9 35.8418 79.3567C35.8164 76.8745 35.7292 74.3905 35.6965 71.9119C35.6638 69.2354 35.662 66.5607 35.6511 63.8842C35.6511 62.4025 35.6511 60.9208 35.6511 59.4391L35.6057 59.4336ZM37.7992 37.4006L37.7211 37.4605L37.6503 37.5386L37.5795 37.6167L37.5051 37.6857L37.3507 37.8309L37.289 37.8927L36.9748 38.1451C37.2109 38.2213 37.2672 38.0797 37.3489 37.9744L37.4179 37.8981L37.5614 37.751L37.6358 37.6802L37.7084 37.6076L37.7738 37.5295L37.8428 37.4532L37.8791 37.3824L37.7992 37.4006ZM42.0228 33.9505C42.0519 33.9505 42.0973 33.9705 42.0664 33.9088L42.0282 33.956C42.0174 33.9687 41.9538 33.956 42.0046 34.0014L42.0228 33.9505ZM42.9216 33.3314L43.1032 33.1988C43.1595 33.1625 43.2521 33.1098 43.194 33.0499C43.1359 32.99 43.0614 33.0753 43.0124 33.1316C42.9354 33.1537 42.8702 33.2053 42.8308 33.2751C42.8018 33.3041 42.7618 33.3368 42.8181 33.3731C42.8744 33.4094 42.8944 33.3713 42.9216 33.3386V33.3314ZM42.2988 33.7199C42.2407 33.7399 42.159 33.798 42.1862 33.8289C42.2552 33.907 42.2952 33.8071 42.3424 33.7653C42.3605 33.7417 42.3987 33.7018 42.395 33.6981C42.3515 33.6527 42.3242 33.6909 42.2988 33.7272V33.7199ZM81.2171 72.6836C81.1742 72.699 81.1386 72.7299 81.1174 72.7702C81.0962 72.8106 81.0909 72.8575 81.1027 72.9015C81.1446 72.8835 81.1786 72.851 81.1986 72.81C81.2186 72.7691 81.2232 72.7223 81.2117 72.6782C81.2444 72.6782 81.2807 72.6782 81.2407 72.6292L81.2171 72.6836ZM42.6565 33.4349C42.5784 33.4966 42.4386 33.5075 42.4659 33.6655C42.5729 33.6392 42.6666 33.5746 42.7292 33.4839C42.7528 33.4548 42.8036 33.4258 42.7528 33.3858C42.7019 33.3459 42.6874 33.4022 42.6565 33.4349ZM51.2925 40.0553C51.2709 40.0371 51.2436 40.0271 51.2154 40.0271C51.1871 40.0271 51.1598 40.0371 51.1382 40.0553C50.4646 40.0117 49.7889 40.0117 49.1154 40.0553C48.3527 40.0099 47.601 40.2151 47.1034 40.1624C47.601 40.137 48.3636 40.2532 49.1281 40.177H50.982C51.0809 40.2106 51.1882 40.2106 51.2871 40.177H53.1029V40.0916H51.6775L51.2925 40.0553ZM80.4563 73.8821C80.285 74.1167 80.1458 74.3732 80.0423 74.6447C79.3547 75.871 78.6665 77.0961 77.9777 78.3199C77.9014 78.4579 77.7961 78.5995 77.9033 78.792L80.1131 74.6992C80.2865 74.4611 80.431 74.2033 80.5434 73.9311C80.5616 73.8966 80.6052 73.8548 80.5434 73.824C80.4817 73.7931 80.4853 73.8494 80.4563 73.8821ZM75.7352 47.0516C75.7007 47.661 75.7098 48.2721 75.7624 48.8801C75.8265 48.2721 75.8344 47.6594 75.786 47.0498C75.786 46.6231 75.786 46.1964 75.786 45.7787C75.8005 45.2667 75.8623 44.7546 75.7279 44.248V41.1629H75.6734V44.2244C75.6134 44.7353 75.6281 45.2521 75.717 45.7588C75.717 46.1891 75.7225 46.6213 75.7352 47.0516ZM82.5172 37.8019C82.5461 37.2782 82.5046 36.753 82.3938 36.2403V37.811C82.421 38.4193 82.4464 39.0257 82.4736 39.6268H82.5172V37.8019ZM48.38 32.1729C47.6191 32.1729 46.8565 32.0675 46.221 32.191C46.8547 32.2982 47.6191 32.191 48.3818 32.2055C48.8575 32.2613 49.3385 32.2552 49.8126 32.1874C49.3334 32.1403 48.851 32.1354 48.3709 32.1729H48.38ZM37.3943 57.7413L37.7575 73.4336C37.7986 75.2893 37.8367 77.1457 37.8719 79.0027C37.8719 79.2369 37.9227 79.3313 38.1896 79.3331C39.0685 79.3331 39.9473 79.384 40.8262 79.3985C43.9324 79.4493 47.0393 79.496 50.1467 79.5383C52.6271 79.5692 55.1094 79.5964 57.5916 79.6037C63.6273 79.6182 69.6649 79.6164 75.7007 79.6327C76.0003 79.6327 76.0511 79.5383 76.0439 79.2696C75.9894 77.4756 75.9428 75.6809 75.904 73.8857C75.8229 70.1863 75.7436 66.4875 75.6662 62.7893C75.619 60.5122 75.5724 58.2358 75.5264 55.96C75.4767 53.5389 75.4295 51.1178 75.3847 48.6968C75.3399 46.2757 75.3054 43.8407 75.2812 41.3917C75.2812 41.1593 75.2086 41.1157 74.9961 41.1157C74.0882 41.1157 73.1894 41.1012 72.2869 41.0903L65.4958 41.0177L52.1568 40.8688C50.194 40.847 48.2311 40.8161 46.2682 40.7943C43.3066 40.7617 40.3432 40.7344 37.3816 40.6945C37.1092 40.6945 37.0402 40.7635 37.0493 41.0358C37.102 42.7718 37.1401 44.5077 37.1746 46.2436C37.2654 50.8194 37.3489 55.3953 37.3943 57.7413ZM37.7121 38.234L37.7393 38.3285C39.6877 38.3285 41.636 38.3158 43.5862 38.3285C48.4889 38.3684 53.3916 38.4301 58.2943 38.4701C64.2949 38.5197 70.2956 38.5621 76.2963 38.5972C76.366 38.6076 76.4371 38.5998 76.503 38.5747C76.5688 38.5496 76.6271 38.5079 76.6721 38.4538C77.6872 37.2117 78.8202 36.0787 79.9406 34.9311L82.3012 32.5052H80.607C77.4983 32.5052 74.3897 32.5052 71.281 32.5052C67.4878 32.5197 63.6927 32.5578 59.8977 32.576C54.8388 32.599 49.7793 32.6165 44.7193 32.6286C44.5288 32.6205 44.3424 32.6855 44.1981 32.8102C42.9271 33.8815 41.656 34.9498 40.3849 36.0151C39.4988 36.762 38.6079 37.5017 37.7121 38.234ZM77.7907 77.599L77.945 77.6154C78.2955 77.0034 78.6405 76.3861 79.0036 75.7741C80.075 73.9166 81.2498 72.1008 82.3774 70.2632C82.4911 70.1073 82.5545 69.9204 82.559 69.7275C82.45 64.99 82.401 60.2508 82.263 55.5133C82.142 51.4507 82.0439 47.3882 81.9689 43.3256C81.9162 40.7326 81.898 38.1414 81.8599 35.5485C81.8599 35.425 81.9017 35.2906 81.8145 35.1708C80.5126 36.282 78.3881 38.6862 77.324 39.979C77.2358 40.1087 77.2006 40.2673 77.226 40.4221C77.2804 44.3279 77.3258 48.2301 77.3948 52.1413C77.5159 59.2835 77.6478 66.4215 77.7907 73.5552C77.8106 74.9026 77.7907 76.2517 77.7907 77.599ZM36.5681 48.8584C36.6062 50.7868 36.6117 52.7151 36.7715 54.6399C36.8151 54.235 36.668 49.029 36.5681 48.8584ZM82.5663 39.7684C82.3048 41.0159 82.6353 42.1762 82.5663 43.0478V39.7684ZM49.9797 40.4947V40.5365H53.7057V40.4947H49.9797ZM42.4423 40.1116H45.8651C44.7211 39.9718 43.5771 40.0408 42.4423 40.1043V40.1116ZM76.9427 38.7225L77.0462 38.8133L77.8343 37.8564L77.7616 37.7928L76.9427 38.7225ZM37.1437 64.0404C37.082 64.5805 37.0929 65.1265 37.1764 65.6637C37.3416 65.1208 37.1655 64.5851 37.1437 64.0404ZM73.7614 40.7235C74.2517 40.7471 74.7383 40.9051 75.234 40.7235H73.7614ZM75.7769 49.7663V51.5948C75.8705 50.9889 75.8705 50.3722 75.7769 49.7663ZM83.0583 69.9744H83.18C83.1497 69.4236 83.1201 68.8741 83.091 68.3257H83.0602L83.0583 69.9744ZM82.9766 65.9016H82.993V64.6142H82.9766V65.9016ZM80.8067 73.419C80.9615 73.2786 81.0548 73.0829 81.0664 72.8743C80.9193 73.0958 80.8067 73.2266 80.8067 73.419ZM80.5634 73.8276C80.6319 73.7917 80.6878 73.7358 80.7238 73.6674C80.7598 73.599 80.7742 73.5212 80.765 73.4445C80.6992 73.4833 80.6454 73.5398 80.6099 73.6074C80.5743 73.6751 80.5582 73.7513 80.5634 73.8276ZM81.3134 72.5002L81.3279 72.5129V72.4912L81.3134 72.5002Z" fill="#050404"/>
<path d="M37.3943 57.7413C37.3489 55.3989 37.2654 50.8195 37.1746 46.2382C37.1401 44.5022 37.102 42.7663 37.0493 41.0304C37.0493 40.758 37.1092 40.6854 37.3816 40.689C40.3432 40.729 43.3066 40.7562 46.2682 40.7889C48.2311 40.8107 50.194 40.8416 52.1569 40.8634L65.4868 41.0141L72.2779 41.0867C73.1858 41.0976 74.0937 41.1139 74.9871 41.1121C75.1995 41.1121 75.2685 41.1557 75.2722 41.3881C75.2976 43.8237 75.3321 46.2587 75.3757 48.6931C75.4192 51.1275 75.4665 53.5486 75.5173 55.9564C75.5633 58.231 75.6099 60.5074 75.6571 62.7857C75.7358 66.4839 75.8151 70.1827 75.895 73.8821C75.9349 75.6785 75.9815 77.4732 76.0348 79.266C76.0348 79.5347 75.9912 79.6291 75.6916 79.6291C69.6559 79.6128 63.6183 79.6146 57.5825 79.6001C55.1021 79.6001 52.6199 79.5656 50.1377 79.5347C47.0314 79.4948 43.9246 79.4482 40.8171 79.3949C39.9383 79.3804 39.0594 79.3313 38.1806 79.3295C37.9136 79.3295 37.8664 79.2333 37.8628 78.999C37.8301 77.1433 37.792 75.2869 37.7484 73.4299L37.3943 57.7413ZM39.8947 57.9048C40.0763 58.0609 40.2579 58.2134 40.4394 58.3732C40.5339 58.4586 40.6464 58.533 40.621 58.6983C40.5211 59.4028 40.5847 60.1164 40.503 60.8246C40.4721 61.0861 40.3831 61.1442 40.1398 61.1314C39.7767 61.1097 39.4498 60.9244 39.0994 60.8482C39.0064 60.8242 38.9084 60.8275 38.8173 60.8578C38.7261 60.8881 38.6457 60.944 38.5855 61.0189C38.4257 61.1877 38.4838 61.3566 38.571 61.5164C38.7261 61.7962 38.9457 62.0349 39.2116 62.2127C39.4776 62.3905 39.7821 62.5022 40.0999 62.5387C40.3051 62.5714 40.3595 62.6422 40.345 62.831C40.3162 63.084 40.3544 63.3401 40.4558 63.5737C40.5448 63.7553 40.6864 63.9369 40.9115 63.9151C41.1367 63.8933 41.1531 63.6681 41.173 63.4938C41.2036 63.2311 41.2169 62.9666 41.213 62.7021C41.2019 62.6158 41.2182 62.5282 41.2596 62.4517C41.301 62.3751 41.3653 62.3135 41.4436 62.2754C41.8594 62.0176 42.2553 61.7434 42.4514 61.2386C42.829 60.2599 42.6475 59.3429 41.9357 58.6728C41.2783 58.0536 41.2348 57.3818 41.3038 56.6083C41.3038 56.5847 41.3038 56.561 41.3038 56.5374C41.3038 55.9782 41.3038 55.9655 41.8485 56.0526C41.9643 56.0878 42.089 56.0784 42.1982 56.0263C42.3073 55.9743 42.3931 55.8833 42.4386 55.7712C42.4987 55.6658 42.5218 55.5433 42.5044 55.4232C42.487 55.3032 42.43 55.1924 42.3424 55.1084C42.2658 55.0149 42.1701 54.9389 42.0618 54.8854C41.9534 54.8318 41.8349 54.802 41.7141 54.7979C41.5326 54.7979 41.4708 54.7234 41.4872 54.5346C41.5005 54.3182 41.4919 54.101 41.4617 53.8864C41.4472 53.7774 41.4254 53.6176 41.2674 53.6212C41.1943 53.623 41.1245 53.6525 41.0723 53.7037C41.02 53.755 40.9892 53.8241 40.986 53.8973C40.9551 54.1115 40.917 54.3258 40.9061 54.5419C40.9096 54.5831 40.9046 54.6246 40.8913 54.6638C40.8781 54.7029 40.8569 54.739 40.8292 54.7696C40.8014 54.8003 40.7676 54.8249 40.73 54.842C40.6923 54.859 40.6515 54.8681 40.6101 54.8687C40.2558 54.942 39.9198 55.0859 39.6223 55.2918C38.5837 55.94 38.5328 57.38 39.4807 58.2806C39.5437 58.3522 39.6241 58.4065 39.714 58.4382C39.804 58.47 39.9005 58.4783 39.9946 58.4622C39.9256 58.2988 39.8675 58.1553 39.813 58.0119L39.8947 57.9048ZM74.2825 57.6015C74.2825 57.4581 74.2825 57.3128 74.2825 57.1693C74.2353 56.098 74.0701 55.0557 73.4364 54.1551C72.8027 53.2545 71.7386 53.1382 70.9178 53.9172C70.6747 54.1507 70.4657 54.4172 70.2968 54.7089C69.2364 56.5411 68.9858 58.5076 69.3363 60.5685C69.446 61.3736 69.7852 62.13 70.3132 62.7475C70.9306 63.4412 71.744 63.4866 72.4522 62.8837C72.8514 62.5302 73.1724 62.0973 73.3946 61.6126C73.9991 60.363 74.3031 58.9895 74.2825 57.6015ZM49.5875 59.2012C49.5788 59.6722 49.6104 60.143 49.6819 60.6085C49.8199 61.4619 50.0451 62.2827 50.6116 62.969C51.1782 63.6554 51.8918 63.7081 52.5654 63.1307C52.934 62.7993 53.2296 62.3949 53.4334 61.9431C54.2741 60.1981 54.4956 58.3533 54.265 56.4485C54.1706 55.6659 53.9799 54.9068 53.5133 54.2495C52.9213 53.4124 52.0007 53.3253 51.2526 54.0298C51.0307 54.2344 50.841 54.4713 50.6897 54.7325C49.8998 56.1216 49.6329 57.6306 49.5966 59.2085L49.5875 59.2012ZM47.3795 54.7398C47.7426 54.7507 48.1058 54.7906 48.4435 54.6181C48.6251 54.5273 48.8067 54.4184 48.7668 54.1914C48.7268 53.9644 48.5325 53.9354 48.3491 53.919C47.3932 53.8183 46.4308 53.7946 45.4711 53.8482C45.2223 53.8682 45.0788 53.9899 45.0716 54.2205C45.0298 55.3208 44.7084 56.3795 44.5613 57.4617C44.4905 57.9701 44.5759 58.0954 45.0788 58.1481C45.6318 58.1897 46.1756 58.3121 46.6931 58.5112C47.374 58.7927 47.9315 59.2521 48.0786 60.0093C48.2601 60.9662 47.5792 62.0394 46.8202 62.3571C46.3918 62.5108 45.9358 62.5727 45.4819 62.5387C44.8482 62.5387 44.2617 62.2772 43.6443 62.1901C43.4918 62.1701 43.3084 62.141 43.2394 62.3299C43.1704 62.5187 43.3302 62.5895 43.4446 62.6713C43.9003 63.0208 44.4301 63.2612 44.9932 63.3742C45.5563 63.4872 46.1378 63.4698 46.6931 63.3231C47.8806 63.0181 48.7359 62.3045 49.0355 61.0697C49.3224 59.8876 48.9247 58.9089 48.0259 58.1317C47.3927 57.5813 46.5859 57.2714 45.7471 57.2565C45.511 57.2565 45.462 57.1984 45.5092 56.9714C45.6569 56.2645 45.7906 55.5551 45.9105 54.8433C45.9395 54.6744 45.9849 54.6272 46.1574 54.6435C46.5733 54.6944 46.9818 54.7126 47.3886 54.7398H47.3795ZM67.1046 55.2609L67.19 55.2954C67.0072 56.8243 66.8256 58.3527 66.6452 59.8804C66.5345 60.7992 66.3402 61.7107 66.4328 62.6458C66.4582 62.9073 66.5127 63.1216 66.8413 63.1216C66.9746 63.1353 67.108 63.0973 67.2141 63.0156C67.3202 62.9338 67.3908 62.8145 67.4115 62.6822C67.4847 62.3663 67.5326 62.0451 67.555 61.7216C67.7202 59.7405 67.8618 57.7577 68.0997 55.7839C68.1796 55.1193 68.3594 54.4547 68.1978 53.7756C68.1052 53.3888 67.88 53.2908 67.5404 53.505C67.4579 53.5536 67.3811 53.6115 67.3116 53.6775C66.638 54.3829 66.0074 55.1281 65.4232 55.9092C65.258 56.1289 65.3433 56.2923 65.4958 56.4539C65.5622 56.5265 65.6541 56.5705 65.7522 56.577C65.8503 56.5834 65.9471 56.5517 66.0224 56.4884C66.1728 56.3693 66.3103 56.2348 66.4328 56.0871C66.6561 55.8111 66.8867 55.5351 67.1137 55.2609H67.1046ZM58.2017 57.2111C58.1527 56.6664 57.8476 56.4358 57.341 56.5538C57.0127 56.6429 56.721 56.8336 56.5076 57.0985C56.05 57.616 55.8956 58.2588 55.7722 58.9143C55.7231 59.1831 55.7939 59.5299 55.6105 59.7006C55.4272 59.8713 55.0821 59.8132 54.808 59.8186C54.4811 59.8186 54.4956 60.0129 54.561 60.2272C54.5774 60.2822 54.6046 60.3335 54.6409 60.378C54.6772 60.4226 54.7219 60.4595 54.7726 60.4867C54.8232 60.5138 54.8787 60.5307 54.9359 60.5364C54.9931 60.542 55.0508 60.5363 55.1058 60.5195C55.5089 60.4451 55.5506 60.5976 55.4689 60.9517C55.3792 61.4122 55.3132 61.8771 55.271 62.3444C55.2183 62.8274 55.4798 63.1234 55.8847 63.0417C56.208 62.9781 56.2824 62.6785 56.3187 62.4207C56.3968 61.8505 56.4549 61.2731 56.4785 60.6975C56.4894 60.4233 56.5675 60.3343 56.8417 60.3615C57.0098 60.3624 57.1773 60.3398 57.3392 60.2944C57.5444 60.2526 57.6679 60.1346 57.6207 59.9112C57.6141 59.869 57.5984 59.8286 57.5747 59.793C57.551 59.7574 57.5199 59.7273 57.4835 59.7049C57.4471 59.6825 57.4062 59.6682 57.3638 59.6631C57.3213 59.6579 57.2782 59.6621 57.2375 59.6752C57.0832 59.7017 56.9273 59.7174 56.7709 59.7224C56.6056 59.7224 56.5294 59.6933 56.5566 59.5027C56.6565 58.8235 56.7636 58.1444 57.114 57.538C57.43 56.9968 57.7042 56.9224 58.2017 57.2111ZM62.0567 61.5691C62.1962 61.6341 62.3193 61.7297 62.4167 61.8489C62.5142 61.968 62.5835 62.1076 62.6196 62.2573C62.643 62.3745 62.6733 62.4904 62.7104 62.6041C62.7921 62.8002 62.8647 63.0453 63.1498 62.9854C63.4349 62.9255 63.4022 62.6676 63.3877 62.4606C63.3692 62.1588 63.2735 61.8669 63.1099 61.6126C62.8847 61.2676 62.7467 60.9753 63.0862 60.603C63.1731 60.5153 63.2252 60.3991 63.2328 60.2759C63.2405 60.1527 63.2033 60.0308 63.128 59.933C62.9464 59.7187 62.6886 59.7115 62.4289 59.7678C62.2868 59.8267 62.1358 59.8617 61.9822 59.8713C61.6536 59.8186 61.5428 60.0038 61.4793 60.2544C61.2793 60.9852 61.178 61.7393 61.1778 62.4969C61.1721 62.6057 61.1933 62.7143 61.2396 62.8129C61.2959 62.9182 61.3431 63.0489 61.4774 63.0544C61.6118 63.0598 61.6499 62.9146 61.7099 62.8147C61.935 62.4388 61.935 61.9921 62.0567 61.5691ZM60.4824 61.0824C60.4987 60.4324 60.3317 60.0347 59.9631 59.8713C59.7859 59.793 59.5916 59.7617 59.3988 59.7805C59.206 59.7992 59.0214 59.8674 58.8627 59.9784C58.0365 60.5431 58.0129 62.3226 58.7973 62.9491C59.1096 63.1978 59.4002 63.1797 59.7052 62.9218C60.2899 62.4207 60.4243 61.7343 60.4824 61.0824Z" fill="#F6F0E9"/>
<path d="M37.7119 38.2341C38.6005 37.4981 39.4884 36.7621 40.3757 36.0261C41.6516 34.9596 42.9227 33.8913 44.1889 32.8211C44.3331 32.6964 44.5195 32.6315 44.7101 32.6396C49.7713 32.6275 54.8308 32.6099 59.8884 32.5869C63.6835 32.5687 67.4785 32.5306 71.2718 32.5161C74.3804 32.5034 77.4891 32.5161 80.5978 32.5161H82.2919L79.9314 34.942C78.8146 36.0896 77.6816 37.2227 76.6629 38.4647C76.6178 38.5189 76.5596 38.5605 76.4938 38.5856C76.4279 38.6108 76.3567 38.6185 76.287 38.6081C70.2852 38.5646 64.2845 38.5222 58.2851 38.481C53.3824 38.4411 48.4797 38.3793 43.577 38.3394C41.6268 38.3231 39.6784 38.3394 37.7301 38.3394L37.7119 38.2341Z" fill="#F6F0E9"/>
<path d="M77.7905 77.599C77.7905 76.2517 77.8105 74.9026 77.7905 73.5552C77.6634 66.413 77.5315 59.2751 77.3947 52.1414C77.3257 48.2355 77.2803 44.3334 77.2258 40.4221C77.2005 40.2673 77.2356 40.1087 77.3238 39.979C78.3879 38.6862 80.5124 36.2821 81.8144 35.1708C81.9015 35.2906 81.8579 35.425 81.8597 35.5485C81.8979 38.1414 81.916 40.7326 81.9687 43.3256C82.0522 47.3894 82.1503 51.452 82.2629 55.5133C82.4009 60.2508 82.4444 64.99 82.5588 69.7275C82.5543 69.9204 82.491 70.1073 82.3773 70.2632C81.2496 72.1008 80.0748 73.9166 79.0035 75.7742C78.6494 76.3861 78.3026 77.0016 77.9521 77.6154L77.7905 77.599Z" fill="#F6F0E9"/>
<path d="M80.1204 74.6992L77.9142 78.792C77.7998 78.5996 77.9142 78.4579 77.9886 78.3199C78.675 77.0948 79.3632 75.8698 80.0532 74.6447L80.1204 74.6992Z" fill="#F6F0E9"/>
<path d="M36.5679 48.8584C36.6677 49.0291 36.8148 54.235 36.7712 54.6399C36.6114 52.7152 36.606 50.7868 36.5679 48.8584Z" fill="#6E6E6E"/>
<path d="M82.5662 39.7684V43.0478C82.6352 42.1762 82.3047 41.0159 82.5662 39.7684Z" fill="#6E6E6E"/>
<path d="M50.9819 40.1733H49.1279L49.1152 40.0517C49.7888 40.0081 50.4645 40.0081 51.138 40.0517L50.9819 40.1733Z" fill="#F6F0E9"/>
<path d="M75.666 44.2244V41.163H75.7205V44.239L75.6987 44.2117L75.666 44.2244Z" fill="#F6F0E9"/>
<path d="M51.8428 40.5401C53.2979 40.5401 54.4775 40.5263 54.4775 40.5093C54.4775 40.4922 53.2979 40.4784 51.8428 40.4784C50.3876 40.4784 49.208 40.4922 49.208 40.5093C49.208 40.5263 50.3876 40.5401 51.8428 40.5401Z" fill="#6E6E6E"/>
<path d="M42.4419 40.1044C43.5768 40.0408 44.7207 39.9718 45.8647 40.1044H42.4419Z" fill="#6E6E6E"/>
<path d="M49.1154 40.0445L49.1281 40.1661C48.3637 40.2424 47.601 40.1262 47.1035 40.1516C47.601 40.2042 48.3528 39.9991 49.1154 40.0445Z" fill="#6E6E6E"/>
<path d="M76.9336 38.7153L77.7525 37.7856L77.8252 37.8491L77.0371 38.8061L76.9336 38.7153Z" fill="#F6F0E9"/>
<path d="M75.6661 44.2244L75.6988 44.2117L75.7205 44.239C75.8549 44.7456 75.7932 45.2576 75.7786 45.7697L75.7096 45.7588C75.6207 45.2522 75.6061 44.7353 75.6661 44.2244Z" fill="#6E6E6E"/>
<path d="M37.1433 64.0404C37.1651 64.5851 37.3413 65.1208 37.176 65.6637C37.0926 65.1265 37.0816 64.5805 37.1433 64.0404Z" fill="#6E6E6E"/>
<path d="M48.3727 32.2055C47.6101 32.1892 46.8456 32.2982 46.2119 32.191C46.8474 32.0675 47.6101 32.1747 48.3709 32.1729L48.36 32.191L48.3727 32.2055Z" fill="#F6F0E9"/>
<path d="M73.7612 40.7236H75.2339C74.7381 40.9033 74.2515 40.7472 73.7612 40.7236Z" fill="#F6F0E9"/>
<path d="M75.7769 49.7663C75.8704 50.3722 75.8704 50.9889 75.7769 51.5948V49.7663Z" fill="#6E6E6E"/>
<path d="M82.3882 37.811V36.2403C82.499 36.753 82.5405 37.2782 82.5117 37.8019L82.3882 37.811Z" fill="#6E6E6E"/>
<path d="M83.0581 69.9745V68.3275H83.089C83.118 68.8759 83.1477 69.4255 83.1779 69.9763L83.0581 69.9745Z" fill="#6E6E6E"/>
<path d="M82.3882 37.811H82.5117V39.6395H82.4681C82.4408 39.0258 82.4154 38.4193 82.3882 37.811Z" fill="#F6F0E9"/>
<path d="M75.7803 47.0425C75.8287 47.6521 75.8208 48.2648 75.7567 48.8729C75.7041 48.2648 75.695 47.6537 75.7295 47.0444H75.7549L75.7803 47.0425Z" fill="#6E6E6E"/>
<path d="M51.6865 40.0916H53.1119V40.177H51.7065L51.6865 40.0916Z" fill="#6E6E6E"/>
<path d="M48.3726 32.2055L48.3599 32.191L48.3708 32.1729C48.8478 32.1359 49.3272 32.1408 49.8034 32.1874C49.3293 32.2551 48.8483 32.2612 48.3726 32.2055Z" fill="#6E6E6E"/>
<path d="M82.9766 65.9016V64.6105H82.9984V65.8979L82.9766 65.9016Z" fill="#6E6E6E"/>
<path d="M80.0493 74.6429C80.1528 74.3714 80.292 74.115 80.4633 73.8803L80.5523 73.9293C80.4384 74.2012 80.2934 74.4589 80.1201 74.6974L80.0493 74.6429Z" fill="#6E6E6E"/>
<path d="M75.7803 47.0426H75.7549H75.7294C75.7294 46.6122 75.7167 46.18 75.7095 45.7497L75.7785 45.7606C75.7785 46.1964 75.7803 46.6231 75.7803 47.0426Z" fill="#F6F0E9"/>
<path d="M51.6866 40.0917L51.7066 40.177H51.2871V40.0535L51.6866 40.0917Z" fill="#F6F0E9"/>
<path d="M80.8066 73.4191C80.8066 73.2266 80.9192 73.0959 81.0663 72.8743C81.0547 73.083 80.9614 73.2787 80.8066 73.4191Z" fill="#6E6E6E"/>
<path d="M37.3487 37.9635C37.267 38.0688 37.2107 38.2104 36.9746 38.1342L37.2887 37.889L37.3487 37.9635Z" fill="#6E6E6E"/>
<path d="M80.5635 73.8276C80.5582 73.7514 80.5743 73.6751 80.6099 73.6075C80.6455 73.5398 80.6992 73.4834 80.765 73.4445C80.7742 73.5213 80.7599 73.599 80.7239 73.6674C80.6879 73.7359 80.6319 73.7917 80.5635 73.8276Z" fill="#6E6E6E"/>
<path d="M42.7292 33.4893C42.6666 33.58 42.5729 33.6446 42.4659 33.6709C42.4386 33.5129 42.5784 33.502 42.6565 33.4403L42.7292 33.4893Z" fill="#6E6E6E"/>
<path d="M51.2924 40.0554V40.1788C51.1935 40.2124 51.0862 40.2124 50.9873 40.1788L51.1435 40.0535C51.1649 40.037 51.1912 40.0282 51.2182 40.0285C51.2453 40.0288 51.2714 40.0383 51.2924 40.0554Z" fill="#6E6E6E"/>
<path d="M81.2113 72.6782C81.2228 72.7223 81.2182 72.7691 81.1982 72.8101C81.1782 72.851 81.1442 72.8835 81.1023 72.9015C81.0906 72.8575 81.0958 72.8106 81.117 72.7703C81.1382 72.7299 81.1738 72.699 81.2167 72.6836L81.2113 72.6782Z" fill="#6E6E6E"/>
<path d="M37.5612 37.7438L37.4178 37.8909L37.3506 37.8309L37.5049 37.6857L37.5612 37.7438Z" fill="#6E6E6E"/>
<path d="M42.3422 33.7726C42.295 33.8144 42.2551 33.9143 42.1861 33.8362C42.1588 33.8053 42.2405 33.7472 42.2986 33.7272L42.3422 33.7726Z" fill="#6E6E6E"/>
<path d="M42.8306 33.2824C42.8699 33.2126 42.9351 33.161 43.0121 33.1389L43.1048 33.2061L42.9232 33.3387L42.8306 33.2824Z" fill="#6E6E6E"/>
<path d="M43.0122 33.1389C43.063 33.0826 43.1139 32.9736 43.1938 33.0572C43.2737 33.1407 43.1593 33.1697 43.103 33.2061L43.0122 33.1389Z" fill="#6E6E6E"/>
<path d="M42.0279 33.9687L42.066 33.9215C42.0969 33.9832 42.0515 33.9651 42.0225 33.9633L42.0279 33.9687Z" fill="#6E6E6E"/>
<path d="M42.2988 33.7272C42.3242 33.6909 42.3515 33.6527 42.3951 33.7054C42.3951 33.7054 42.3606 33.749 42.3424 33.7726L42.2988 33.7272Z" fill="#6E6E6E"/>
<path d="M42.6562 33.4348C42.6799 33.4022 42.7053 33.3531 42.7525 33.3913C42.7997 33.4294 42.7525 33.4603 42.7289 33.4893L42.6562 33.4348Z" fill="#6E6E6E"/>
<path d="M42.9213 33.3386C42.8941 33.3713 42.8651 33.4131 42.8178 33.3804C42.7706 33.3477 42.8015 33.3114 42.8306 33.2823L42.9213 33.3386Z" fill="#6E6E6E"/>
<path d="M37.4214 37.8909L37.3524 37.9671L37.2925 37.8927L37.3542 37.8309L37.4214 37.8909Z" fill="#6E6E6E"/>
<path d="M37.6356 37.673L37.5612 37.7438L37.5049 37.6857L37.5793 37.6167C37.6029 37.6349 37.6156 37.6548 37.6356 37.673Z" fill="#6E6E6E"/>
<path d="M37.708 37.6004L37.6354 37.673C37.6154 37.6548 37.5973 37.6349 37.5791 37.6167L37.6499 37.5386C37.6681 37.5604 37.6881 37.5804 37.708 37.6004Z" fill="#6E6E6E"/>
<path d="M37.7739 37.5223L37.7085 37.6003C37.6885 37.5804 37.6685 37.5604 37.6504 37.5386L37.723 37.4623L37.7739 37.5223Z" fill="#6E6E6E"/>
<path d="M37.8425 37.446L37.7735 37.5223L37.7227 37.4624L37.7989 37.4006L37.8425 37.446Z" fill="#6E6E6E"/>
<path d="M81.313 72.5003L81.3311 72.4912L81.3275 72.513L81.313 72.5003Z" fill="#6E6E6E"/>
<path d="M81.2169 72.6837L81.2405 72.6292C81.2804 72.6746 81.2405 72.6746 81.2114 72.6782L81.2169 72.6837Z" fill="#6E6E6E"/>
<path d="M37.7988 37.4006L37.8787 37.3752L37.8424 37.446L37.7988 37.4006Z" fill="#6E6E6E"/>
<path d="M80.4561 73.8821C80.4778 73.8494 80.4924 73.7931 80.5468 73.824C80.6013 73.8549 80.5614 73.8966 80.5468 73.9311L80.4561 73.8821Z" fill="#6E6E6E"/>
<path d="M42.0225 33.9578L42.0043 34.0087C41.9535 33.9633 42.017 33.976 42.0279 33.9633L42.0225 33.9578Z" fill="#6E6E6E"/>
<path d="M74.2822 57.6015C74.3036 58.9913 73.9996 60.3669 73.3943 61.6181C73.1721 62.1028 72.8511 62.5357 72.4519 62.8892C71.7437 63.492 70.9302 63.4466 70.3128 62.753C69.7848 62.1355 69.4457 61.379 69.3359 60.574C68.9855 58.5131 69.2361 56.5465 70.2965 54.7144C70.4653 54.4227 70.6744 54.1561 70.9175 53.9227C71.7383 53.1437 72.786 53.2363 73.436 54.1606C74.0861 55.0848 74.235 56.1035 74.2822 57.1748C74.2822 57.3128 74.2822 57.4581 74.2822 57.6015ZM72.7188 61.8578L72.6589 61.9486L72.5663 62.0848C72.5445 62.1156 72.5336 62.1501 72.5663 62.1701C72.5663 62.1701 72.6008 62.1465 72.6189 62.1338L72.7279 62.0049L72.7769 61.9268C72.806 61.8959 72.855 61.8632 72.8096 61.8197C72.7642 61.7761 72.7478 61.8287 72.7206 61.8578H72.7188ZM73.6031 55.2555C73.6249 55.2918 73.6031 55.3844 73.6721 55.3517C73.7411 55.3191 73.6884 55.2555 73.6539 55.2101C73.6522 55.1453 73.6364 55.0817 73.6076 55.0237C73.5787 54.9656 73.5375 54.9146 73.4869 54.8742C73.4803 54.9424 73.4874 55.0112 73.5077 55.0767C73.5279 55.1421 73.561 55.2029 73.6049 55.2555H73.6031ZM73.3743 60.8627C73.4734 60.675 73.5444 60.4737 73.5849 60.2653C73.6293 60.2002 73.6596 60.1264 73.6736 60.0488C73.6877 59.9713 73.6853 59.8916 73.6666 59.815C73.5808 59.9311 73.5315 60.0702 73.525 60.2145C73.4244 60.3943 73.3498 60.5875 73.3035 60.7883C73.2545 60.8391 73.2018 60.9118 73.2708 60.959C73.3398 61.0062 73.3525 60.9045 73.3743 60.8627ZM73.0257 57.2565C73.0257 56.9206 73.0438 56.581 73.0257 56.2469C73.0193 55.8605 72.9347 55.4794 72.7769 55.1266C72.4501 54.482 71.918 54.3912 71.4278 54.9032C71.2864 55.0513 71.1688 55.2204 71.0791 55.4044C70.1912 57.1748 70.0786 59.0233 70.5344 60.9245C70.6046 61.2214 70.7768 61.4843 71.021 61.6671C71.0914 61.7288 71.1738 61.7754 71.2629 61.8039C71.3521 61.8325 71.4462 61.8424 71.5393 61.833C71.6325 61.8236 71.7227 61.7952 71.8044 61.7495C71.8861 61.7038 71.9576 61.6418 72.0143 61.5673C72.1709 61.3678 72.2936 61.1438 72.3774 60.9045C72.8738 59.7552 73.0975 58.5067 73.0311 57.2565H73.0257ZM73.0166 59.1613C73.2049 58.6675 73.2751 58.1364 73.2218 57.6106C73.151 58.1953 73.0856 58.6783 73.022 59.1613H73.0166ZM70.2311 56.926C70.0262 57.2698 69.9532 57.6764 70.0259 58.07C70.1058 57.6251 70.1748 57.2747 70.2366 56.926H70.2311ZM69.868 56.3813L69.9588 56.4104L70.2311 55.537C70.0143 55.7673 69.8891 56.0688 69.8789 56.3849L69.868 56.3813ZM70.1821 60.1164C70.0713 60.407 70.1912 60.6376 70.3546 60.8573C70.2965 60.6176 70.2402 60.3706 70.1821 60.1164ZM69.6737 57.2783C69.8176 57.0287 69.8934 56.7457 69.8934 56.4576C69.7345 56.7034 69.6576 56.9933 69.6737 57.2856V57.2783ZM72.8967 60.002C73.0529 59.6933 73.0783 59.5208 72.9857 59.3247C72.8441 59.7751 72.8405 59.8114 72.8967 60.0129V60.002ZM70.2529 55.4371C70.3167 55.3819 70.3656 55.3116 70.3951 55.2326C70.4246 55.1536 70.4338 55.0684 70.4218 54.9849C70.3056 55.1574 70.2148 55.2755 70.2529 55.448V55.4371ZM72.8441 61.8251C72.9512 61.6726 73.0765 61.5999 73.0257 61.3875C72.9589 61.4399 72.907 61.5089 72.8752 61.5876C72.8433 61.6663 72.8326 61.7519 72.8441 61.836V61.8251ZM73.8083 55.7984C73.8194 55.7386 73.817 55.6771 73.8013 55.6184C73.7856 55.5596 73.7569 55.5051 73.7175 55.4589C73.6982 55.5199 73.6966 55.5852 73.7126 55.6471C73.7287 55.7091 73.7618 55.7653 73.8083 55.8093V55.7984ZM73.9063 58.9253L73.8827 58.8472C73.8684 58.8778 73.858 58.9102 73.8519 58.9434C73.8519 58.967 73.87 58.9924 73.8809 59.0179L73.9063 58.9253ZM73.8101 59.2085C73.7883 59.235 73.7754 59.2678 73.7735 59.3021C73.7715 59.3364 73.7805 59.3704 73.7992 59.3992C73.8208 59.3726 73.8334 59.3398 73.8354 59.3056C73.8374 59.2714 73.8285 59.2374 73.8101 59.2085ZM73.7774 59.6425L73.7375 59.5481C73.7248 59.5681 73.7048 59.5844 73.703 59.6044C73.7042 59.6363 73.7091 59.668 73.7175 59.6988L73.7774 59.6425ZM70.2584 56.7209C70.2672 56.7025 70.2733 56.6829 70.2765 56.6628C70.2765 56.65 70.262 56.6391 70.2529 56.6264C70.2477 56.6361 70.244 56.6465 70.242 56.6573C70.2462 56.6788 70.2517 56.7 70.2584 56.7209ZM73.2508 61.0788L73.2254 61.0334C73.2254 61.0334 73.2018 61.0498 73.2036 61.057C73.209 61.0736 73.2163 61.0894 73.2254 61.1042L73.2508 61.0788ZM73.1419 61.2386L73.1927 61.2059C73.1927 61.2059 73.1746 61.1823 73.1691 61.1841C73.1521 61.1899 73.1357 61.1971 73.1201 61.2059L73.1419 61.2386ZM73.0547 61.3693L73.0801 61.3948C73.0902 61.3796 73.0981 61.3631 73.1038 61.3457C73.1038 61.3457 73.0892 61.3294 73.0801 61.3221L73.0547 61.3693ZM73.3089 54.4874L73.2926 54.4747V54.4965L73.3089 54.4874ZM73.4306 54.7525C73.4306 54.7616 73.4179 54.7725 73.4197 54.7779C73.4324 54.8124 73.4488 54.8124 73.4633 54.7779C73.4633 54.7779 73.4633 54.7598 73.4524 54.7543C73.4415 54.7489 73.4379 54.7507 73.4306 54.7489V54.7525ZM73.3725 54.6054C73.3634 54.6054 73.3507 54.62 73.3489 54.629C73.3471 54.6381 73.3616 54.6454 73.3689 54.6545C73.3761 54.6635 73.3906 54.6381 73.3906 54.6309C73.3906 54.6236 73.3743 54.6091 73.3743 54.6018L73.3725 54.6054Z" fill="#050404"/>
<path d="M39.8256 58.0192C39.8855 58.1626 39.9437 58.3061 40.0072 58.4695C39.9132 58.4856 39.8166 58.4773 39.7267 58.4455C39.6367 58.4138 39.5564 58.3595 39.4933 58.2879C38.5509 57.38 38.5963 55.9473 39.635 55.2991C39.9325 55.0932 40.2684 54.9493 40.6228 54.876C40.6641 54.8754 40.7049 54.8663 40.7426 54.8493C40.7803 54.8322 40.8141 54.8076 40.8418 54.7769C40.8696 54.7463 40.8907 54.7102 40.904 54.671C40.9172 54.6319 40.9222 54.5904 40.9187 54.5492C40.9296 54.3331 40.9678 54.1188 40.9986 53.9045C41.0018 53.8314 41.0327 53.7623 41.0849 53.711C41.1372 53.6598 41.2069 53.6303 41.2801 53.6285C41.4381 53.6285 41.4617 53.7847 41.4744 53.8936C41.5046 54.1083 41.5131 54.3255 41.4998 54.5419C41.4835 54.7235 41.5416 54.7997 41.7268 54.8052C41.8476 54.8093 41.9661 54.8391 42.0744 54.8927C42.1828 54.9462 42.2784 55.0222 42.3551 55.1157C42.4426 55.1997 42.4996 55.3105 42.5171 55.4305C42.5345 55.5506 42.5113 55.673 42.4513 55.7785C42.4058 55.8905 42.32 55.9816 42.2108 56.0336C42.1016 56.0857 41.9769 56.0951 41.8611 56.0599C41.3164 55.9728 41.3164 55.9855 41.3164 56.5447C41.3164 56.5683 41.3164 56.5919 41.3164 56.6156C41.2474 57.3891 41.291 58.0682 41.9483 58.6801C42.6601 59.3502 42.8417 60.2671 42.464 61.2459C42.2679 61.7507 41.872 62.0249 41.4562 62.2827C41.378 62.3208 41.3136 62.3824 41.2723 62.459C41.2309 62.5355 41.2146 62.6231 41.2256 62.7094C41.2296 62.9739 41.2162 63.2384 41.1857 63.5011C41.1657 63.6827 41.1512 63.9006 40.9242 63.9224C40.6972 63.9442 40.561 63.768 40.4684 63.581C40.3671 63.3474 40.3289 63.0913 40.3577 62.8383C40.3722 62.6568 40.3177 62.5787 40.1125 62.546C39.7947 62.5095 39.4902 62.3978 39.2243 62.22C38.9584 62.0422 38.7387 61.8035 38.5836 61.5237C38.4964 61.3639 38.4383 61.195 38.5981 61.0262C38.6583 60.9513 38.7388 60.8954 38.8299 60.8651C38.9211 60.8348 39.019 60.8315 39.112 60.8555C39.4625 60.9317 39.7839 61.117 40.1525 61.1387C40.3885 61.1515 40.4775 61.0933 40.5156 60.8319C40.5973 60.1237 40.5338 59.4101 40.6337 58.7056C40.6555 58.5403 40.5429 58.4659 40.4521 58.3805C40.2705 58.2207 40.0889 58.0682 39.9073 57.912L39.8311 57.8122L39.782 57.745C39.5151 57.2438 39.3335 56.7263 39.497 56.1489L39.5569 56.0054C39.5569 55.9746 39.5714 55.9292 39.5569 55.9183C39.5424 55.9074 39.5042 55.9183 39.4933 55.9582L39.3971 56.0799C39.0575 56.6555 39.1483 57.193 39.6876 57.8176L39.7421 57.8884L39.8256 58.0192ZM41.449 61.0243C41.5671 60.9453 41.656 60.8296 41.7019 60.6951C41.7478 60.5605 41.7483 60.4147 41.7032 60.2799C41.6485 60.5277 41.5488 60.7634 41.409 60.9753L41.3219 61.0697C41.3836 61.1151 41.429 61.1079 41.449 61.0243ZM40.8951 56.1453C40.3504 56.4376 40.2923 56.9751 40.7462 57.4617C40.7971 57.0296 40.8443 56.6156 40.8951 56.1525V56.1453ZM41.2147 59.3447V60.6339C41.4453 60.2218 41.5724 59.7969 41.2147 59.352V59.3447ZM40.7263 60.3271C40.8085 59.8032 40.8201 59.2706 40.7608 58.7437C40.7099 59.2775 40.601 59.8005 40.7263 60.3343V60.3271ZM39.5787 61.3276C39.9146 61.5546 40.0417 61.5745 40.4176 61.4674C40.1358 61.4381 39.8558 61.3938 39.5787 61.3348V61.3276ZM39.3027 61.186C39.3027 61.186 39.2881 61.2023 39.29 61.2077C39.2964 61.2169 39.3044 61.2249 39.3136 61.2313L39.3263 61.186H39.3027ZM39.4588 61.2386C39.4588 61.2386 39.4352 61.2568 39.437 61.2622C39.4424 61.2793 39.4497 61.2958 39.4588 61.3112C39.4588 61.3112 39.4824 61.2931 39.4806 61.2876C39.4753 61.2728 39.468 61.2587 39.4588 61.2459V61.2386Z" fill="#050404"/>
<path d="M49.5966 59.2085C49.6329 57.6378 49.8998 56.1216 50.6987 54.7361C50.85 54.4749 51.0398 54.238 51.2617 54.0334C52.0098 53.3289 52.9304 53.416 53.5223 54.2531C53.989 54.9105 54.1797 55.6695 54.2741 56.4521C54.5047 58.3569 54.2832 60.2017 53.4424 61.9467C53.2386 62.3985 52.9431 62.8029 52.5745 63.1343C51.9008 63.7117 51.1854 63.6572 50.6207 62.9727C50.056 62.2881 49.829 61.4692 49.691 60.6121C49.6197 60.1478 49.5881 59.6782 49.5966 59.2085ZM53.3916 58.0228C53.4014 57.5773 53.371 57.1318 53.3008 56.6918C53.1991 56.0962 53.0738 55.506 52.7161 55.0013C52.3584 54.4965 51.8808 54.4565 51.4287 54.8814C51.2347 55.0629 51.079 55.2814 50.9711 55.5242C50.5503 56.4465 50.3163 57.443 50.2827 58.4562C50.249 59.4694 50.4163 60.4792 50.775 61.4274C50.8732 61.7028 51.0342 61.9515 51.2453 62.1537C51.5449 62.4352 51.83 62.4406 52.1532 62.1773C52.44 61.9182 52.662 61.5954 52.8015 61.2349C53.2241 60.2155 53.4282 59.1187 53.4007 58.0155L53.3916 58.0228ZM54.0308 57.6796C53.9443 58.1698 53.9266 58.6698 53.9781 59.1649C54.0707 58.6637 54.1869 58.1735 54.0308 57.6723V57.6796ZM53.8492 55.7875C53.7769 56.1117 53.8364 56.4513 54.0144 56.7317C54.0517 56.4051 53.9937 56.0746 53.8474 55.7802L53.8492 55.7875Z" fill="#050404"/>
<path d="M47.3883 54.7398C46.9815 54.7126 46.573 54.6944 46.1662 54.6545C45.9937 54.6381 45.9483 54.6853 45.9193 54.8542C45.7982 55.566 45.6645 56.2754 45.518 56.9823C45.4708 57.2093 45.518 57.2601 45.7559 57.2674C46.5947 57.2823 47.4015 57.5922 48.0347 58.1426C48.9426 58.9198 49.3312 59.8985 49.0443 61.0806C48.7447 62.3154 47.8894 63.029 46.7019 63.334C46.1466 63.4807 45.5651 63.4981 45.002 63.3851C44.4389 63.2721 43.9092 63.0317 43.4534 62.6822C43.339 62.6005 43.1847 62.5133 43.2482 62.3408C43.3118 62.1683 43.5006 62.181 43.6532 62.201C44.2705 62.2881 44.857 62.5478 45.4908 62.5496C45.9446 62.5836 46.4006 62.5217 46.829 62.368C47.588 62.0503 48.2708 60.9771 48.0874 60.0202C47.9403 59.263 47.3828 58.8036 46.7019 58.5221C46.1844 58.323 45.6406 58.2006 45.0876 58.159C44.5847 58.1063 44.4993 57.9774 44.5701 57.4726C44.7208 56.3831 45.0386 55.3318 45.0804 54.2314C45.0804 54.0008 45.2311 53.8791 45.4799 53.8591C46.4396 53.8055 47.402 53.8292 48.3579 53.9299C48.5395 53.9463 48.7429 53.9899 48.7756 54.2023C48.8082 54.4148 48.6285 54.5382 48.4523 54.629C48.1128 54.7906 47.7496 54.7507 47.3883 54.7398ZM47.4101 62.3662C47.4282 62.339 47.47 62.2954 47.4627 62.2863C47.4228 62.2318 47.3846 62.2682 47.3501 62.3027C47.3156 62.3372 47.2575 62.3353 47.3011 62.3898C47.3447 62.4443 47.3774 62.3953 47.4083 62.3698L47.4101 62.3662ZM47.608 62.1973C47.6334 62.1701 47.6897 62.1429 47.637 62.1011C47.5844 62.0593 47.5699 62.1265 47.5408 62.1501C47.5118 62.1737 47.499 62.2228 47.5081 62.23C47.5535 62.2791 47.5898 62.2409 47.608 62.201V62.1973ZM47.7732 62.0158C47.8005 61.9831 47.8368 61.9468 47.7878 61.9104C47.7769 61.9104 47.7387 61.934 47.7133 61.9468C47.6879 61.9595 47.637 62.0031 47.677 62.0484C47.7169 62.0938 47.746 62.0394 47.7714 62.0139L47.7732 62.0158ZM47.5916 58.7092C47.5626 58.6402 47.5154 58.6329 47.4555 58.671L47.5499 58.7582L47.9439 59.154C47.9439 59.2212 47.9857 59.2539 48.0383 59.2811C48.0747 59.2085 48.0184 59.1613 47.9929 59.0996C47.9135 58.9222 47.7693 58.782 47.5898 58.7073L47.5916 58.7092ZM44.0127 62.5532C44.7717 62.9055 45.5362 63.1833 46.3587 62.7838C45.5693 62.8399 44.7761 62.7619 44.0127 62.5532ZM48.8609 60.3325C48.8355 60.7138 48.6793 61.0679 48.6448 61.4474C48.8391 61.1103 48.9152 60.7178 48.8609 60.3325ZM46.711 62.6803C46.9906 62.6404 46.9906 62.6404 47.0941 62.4407C46.9525 62.5151 46.8199 62.5351 46.7073 62.6803H46.711ZM46.5839 62.7748L46.642 62.7221C46.6256 62.713 46.6057 62.6912 46.5911 62.6949C46.5668 62.7061 46.5442 62.7208 46.524 62.7385L46.5839 62.7748ZM48.5922 61.5691L48.574 61.5436C48.574 61.5436 48.5522 61.5582 48.5522 61.5673C48.5522 61.5763 48.5631 61.5854 48.5704 61.5945L48.5922 61.5691ZM47.2267 62.4497L47.2013 62.4043C47.1922 62.4043 47.1776 62.4225 47.1776 62.428C47.1833 62.4453 47.1912 62.4618 47.2013 62.477L47.2267 62.4497Z" fill="#050404"/>
<path d="M67.1138 55.2609C66.8868 55.5351 66.6634 55.8057 66.431 56.0799C66.3087 56.2288 66.1712 56.3645 66.0206 56.4848C65.9454 56.5481 65.8485 56.5798 65.7504 56.5733C65.6523 56.5669 65.5605 56.5228 65.4941 56.4503C65.3415 56.296 65.2562 56.1325 65.4214 55.9056C66.0056 55.1245 66.6362 54.3793 67.3099 53.6739C67.3793 53.6079 67.4561 53.55 67.5387 53.5014C67.8782 53.2872 68.1034 53.3852 68.196 53.772C68.3576 54.4511 68.1778 55.1157 68.0979 55.7803C67.8637 57.754 67.7221 59.7369 67.5532 61.718C67.5309 62.0414 67.4829 62.3626 67.4097 62.6785C67.3891 62.8109 67.3184 62.9302 67.2123 63.012C67.1062 63.0937 66.9728 63.1317 66.8396 63.118C66.5109 63.118 66.4564 62.9037 66.431 62.6422C66.3384 61.7071 66.5327 60.7955 66.6435 59.8767C66.8287 58.3502 67.0103 56.8219 67.1882 55.2918L67.1138 55.2609ZM67.0193 61.9686C67.1312 61.804 67.2055 61.6169 67.2369 61.4204C67.2683 61.224 67.256 61.023 67.2009 60.8319C67.1446 61.2059 67.0902 61.5346 67.0193 61.9686Z" fill="#050404"/>
<path d="M58.2017 57.2111C57.7041 56.917 57.4299 56.9914 57.1122 57.5362C56.7617 58.1427 56.6546 58.8218 56.5547 59.5009C56.5275 59.6915 56.6038 59.7297 56.769 59.7206C56.9255 59.7157 57.0814 59.6999 57.2357 59.6734C57.2764 59.6603 57.3194 59.6561 57.3619 59.6613C57.4044 59.6664 57.4452 59.6807 57.4816 59.7031C57.518 59.7256 57.5491 59.7556 57.5728 59.7912C57.5965 59.8269 57.6122 59.8672 57.6188 59.9094C57.666 60.1328 57.5425 60.2508 57.3373 60.2926C57.1754 60.338 57.008 60.3607 56.8398 60.3598C56.5747 60.3398 56.4966 60.4215 56.4766 60.6957C56.453 61.2713 56.3949 61.8487 56.3169 62.4189C56.2805 62.6804 56.2061 62.9763 55.8829 63.0399C55.4779 63.1216 55.2165 62.8256 55.2691 62.3426C55.3113 61.8753 55.3774 61.4105 55.4671 60.9499C55.5433 60.5958 55.5016 60.4433 55.1039 60.5177C55.0489 60.5345 54.9912 60.5402 54.934 60.5346C54.8768 60.5289 54.8213 60.5121 54.7707 60.4849C54.7201 60.4577 54.6753 60.4208 54.639 60.3763C54.6027 60.3317 54.5756 60.2805 54.5591 60.2254C54.4938 60.0111 54.4793 59.8223 54.8061 59.8168C55.0803 59.8168 55.4235 59.8731 55.6087 59.6988C55.7939 59.5245 55.7213 59.1813 55.7703 58.9126C55.8938 58.2589 56.0481 57.6161 56.5057 57.0967C56.7191 56.8318 57.0108 56.6411 57.3392 56.552C57.8476 56.4412 58.1526 56.6755 58.2017 57.2111Z" fill="#050404"/>
<path d="M62.0565 61.5691C61.9331 61.9904 61.9403 62.437 61.7097 62.8147C61.6498 62.9146 61.6262 63.0617 61.4773 63.0544C61.3284 63.0472 61.2957 62.9182 61.2394 62.8129C61.1931 62.7143 61.1719 62.6058 61.1777 62.497C61.1778 61.7394 61.2792 60.9852 61.4791 60.2544C61.5427 60.0039 61.6607 59.8186 61.9821 59.8713C62.1357 59.8617 62.2866 59.8267 62.4288 59.7678C62.6884 59.7115 62.9499 59.7188 63.1279 59.933C63.2031 60.0309 63.2404 60.1527 63.2327 60.2759C63.225 60.3991 63.1729 60.5153 63.0861 60.6031C62.7411 60.9753 62.8846 61.2677 63.1097 61.6127C63.2734 61.8669 63.369 62.1589 63.3875 62.4606C63.4021 62.6677 63.4366 62.9255 63.1497 62.9854C62.8628 63.0453 62.7865 62.8038 62.7102 62.6041C62.6732 62.4904 62.6428 62.3746 62.6194 62.2573C62.5834 62.1076 62.514 61.9681 62.4166 61.8489C62.3191 61.7298 62.1961 61.6341 62.0565 61.5691ZM62.1455 60.7919C62.289 60.643 62.6158 60.6594 62.5595 60.3416C62.5395 60.2236 62.4215 60.229 62.3235 60.2508C62.0039 60.3271 62.1165 60.574 62.1455 60.7937V60.7919Z" fill="#050404"/>
<path d="M60.4824 61.0824C60.4334 61.7343 60.3008 62.4207 59.7053 62.9218C59.4002 63.1797 59.1097 63.1978 58.7973 62.9491C58.0129 62.3226 58.0365 60.5431 58.8627 59.9784C59.0214 59.8674 59.2061 59.7992 59.3989 59.7804C59.5916 59.7617 59.786 59.793 59.9631 59.8713C60.3226 60.0347 60.4824 60.4323 60.4824 61.0824ZM59.8887 61.1387C59.8978 61.0554 59.8978 60.9714 59.8887 60.8881C59.8664 60.7816 59.8134 60.6839 59.7363 60.6071C59.6592 60.5303 59.5613 60.4778 59.4547 60.4559C59.2114 60.3942 59.1623 60.6103 59.0915 60.7683C59.0045 60.9667 58.9625 61.182 58.9684 61.3986C58.9744 61.6152 59.0282 61.8278 59.126 62.0212C59.1425 62.0872 59.1806 62.1458 59.2342 62.1877C59.2878 62.2296 59.3539 62.2524 59.422 62.2524C59.49 62.2524 59.5561 62.2296 59.6098 62.1877C59.6634 62.1458 59.7015 62.0872 59.718 62.0212C59.8255 61.7394 59.8802 61.4403 59.8796 61.1387H59.8887Z" fill="#050404"/>
<path d="M73.0311 57.2565C73.0958 58.5071 72.8702 59.7557 72.372 60.9045C72.2881 61.1439 72.1654 61.3678 72.0088 61.5673C71.9521 61.6418 71.8807 61.7038 71.799 61.7495C71.7173 61.7952 71.627 61.8237 71.5339 61.833C71.4407 61.8424 71.3466 61.8325 71.2575 61.804C71.1683 61.7754 71.086 61.7289 71.0156 61.6671C70.7713 61.4843 70.5991 61.2214 70.5289 60.9245C70.0804 59.0233 70.193 57.1748 71.0737 55.4044C71.1634 55.2204 71.281 55.0513 71.4223 54.9032C71.9126 54.3912 72.4446 54.482 72.7714 55.1266C72.9293 55.4794 73.0139 55.8605 73.0202 56.2469C73.0493 56.5811 73.0311 56.9206 73.0311 57.2565Z" fill="#F6F0E9"/>
<path d="M73.022 59.1613C73.0855 58.6783 73.1509 58.1953 73.2272 57.6106C73.2805 58.1364 73.2102 58.6674 73.022 59.1613Z" fill="#6E6E6E"/>
<path d="M70.2365 56.926C70.1748 57.2747 70.1113 57.6251 70.0314 58.07C69.9586 57.6764 70.0316 57.2698 70.2365 56.926Z" fill="#6E6E6E"/>
<path d="M69.8789 56.3849C69.893 56.0686 70.0221 55.7683 70.2421 55.5406L69.9697 56.414L69.8789 56.3849Z" fill="#6E6E6E"/>
<path d="M70.1821 60.1164C70.2402 60.3633 70.2965 60.6103 70.3546 60.8572C70.1912 60.6448 70.0714 60.4142 70.1821 60.1164Z" fill="#6E6E6E"/>
<path d="M69.6736 57.2856C69.6591 56.9958 69.7359 56.7087 69.8933 56.4648C69.8933 56.753 69.8175 57.036 69.6736 57.2856Z" fill="#6E6E6E"/>
<path d="M72.8967 60.0129C72.8404 59.8114 72.8441 59.7751 72.9857 59.3356C73.0747 59.5317 73.0529 59.7042 72.8967 60.0129Z" fill="#6E6E6E"/>
<path d="M73.3091 60.7883C73.3554 60.5875 73.43 60.3943 73.5306 60.2145L73.5905 60.2653C73.5499 60.4737 73.479 60.675 73.3799 60.8627L73.3091 60.7883Z" fill="#6E6E6E"/>
<path d="M70.253 55.448C70.2148 55.2755 70.3056 55.1575 70.4218 54.9958C70.4339 55.0793 70.4247 55.1645 70.3952 55.2435C70.3657 55.3225 70.3168 55.3928 70.253 55.448Z" fill="#6E6E6E"/>
<path d="M72.844 61.836C72.8345 61.7536 72.8462 61.6702 72.878 61.5936C72.9098 61.517 72.9606 61.4498 73.0256 61.3984C73.0765 61.6108 72.9512 61.6835 72.844 61.836Z" fill="#6E6E6E"/>
<path d="M73.8086 55.8093C73.7641 55.7662 73.7322 55.7119 73.7162 55.6521C73.7002 55.5923 73.7008 55.5292 73.7178 55.4697C73.7573 55.516 73.7859 55.5705 73.8016 55.6292C73.8173 55.688 73.8197 55.7495 73.8086 55.8093Z" fill="#6E6E6E"/>
<path d="M73.5308 60.2145C73.5372 60.0702 73.5865 59.9311 73.6724 59.815C73.6911 59.8916 73.6935 59.9713 73.6794 60.0488C73.6653 60.1264 73.6351 60.2002 73.5907 60.2653L73.5308 60.2145Z" fill="#6E6E6E"/>
<path d="M73.6051 55.2555C73.5615 55.2027 73.5288 55.1419 73.5088 55.0764C73.4889 55.011 73.4821 54.9422 73.4889 54.8741C73.5395 54.9146 73.5807 54.9656 73.6096 55.0236C73.6384 55.0817 73.6542 55.1453 73.6559 55.2101L73.6051 55.2555Z" fill="#6E6E6E"/>
<path d="M73.9066 58.9361L73.8812 59.0287C73.8703 59.0033 73.8504 58.9779 73.8522 58.9543C73.8583 58.921 73.8687 58.8887 73.883 58.858L73.9066 58.9361Z" fill="#6E6E6E"/>
<path d="M73.8103 59.2085C73.8287 59.2374 73.8376 59.2714 73.8356 59.3056C73.8337 59.3398 73.821 59.3725 73.7994 59.3992C73.7808 59.3703 73.7717 59.3363 73.7737 59.302C73.7757 59.2678 73.7885 59.235 73.8103 59.2085Z" fill="#6E6E6E"/>
<path d="M73.7776 59.6407L73.7177 59.697C73.7093 59.6662 73.7044 59.6345 73.7031 59.6026C73.7031 59.5826 73.7249 59.5662 73.7376 59.5463L73.7776 59.6407Z" fill="#6E6E6E"/>
<path d="M70.2585 56.7208C70.2518 56.7 70.2464 56.6788 70.2422 56.6573C70.2442 56.6465 70.2479 56.6361 70.2531 56.6264C70.2622 56.6391 70.2767 56.65 70.2767 56.6627C70.2735 56.6829 70.2674 56.7024 70.2585 56.7208Z" fill="#6E6E6E"/>
<path d="M73.3746 60.8627C73.3474 60.9045 73.3328 60.9989 73.2711 60.959C73.2094 60.919 73.2548 60.8391 73.3038 60.7883L73.3746 60.8627Z" fill="#6E6E6E"/>
<path d="M72.7372 62.0048L72.6283 62.1338L72.5684 62.0847L72.661 61.9485L72.7372 62.0048Z" fill="#6E6E6E"/>
<path d="M73.6558 55.2137C73.6903 55.2591 73.7248 55.3336 73.674 55.3554C73.6231 55.3772 73.6268 55.2955 73.605 55.2591L73.6558 55.2137Z" fill="#6E6E6E"/>
<path d="M73.2508 61.0752L73.2254 61.1006C73.2163 61.0858 73.209 61.0699 73.2036 61.0534C73.2036 61.0534 73.2181 61.037 73.2254 61.0298L73.2508 61.0752Z" fill="#6E6E6E"/>
<path d="M73.1421 61.235L73.1167 61.2095C73.1323 61.2008 73.1487 61.1935 73.1657 61.1877C73.1657 61.1877 73.1821 61.2023 73.1893 61.2095L73.1421 61.235Z" fill="#6E6E6E"/>
<path d="M73.0547 61.3657L73.0801 61.3185C73.0892 61.3185 73.1055 61.3366 73.1037 61.3421C73.0981 61.3594 73.0902 61.3759 73.0801 61.3911L73.0547 61.3657Z" fill="#6E6E6E"/>
<path d="M73.309 54.4838L73.2891 54.4929L73.2927 54.4711L73.309 54.4838Z" fill="#6E6E6E"/>
<path d="M72.7859 61.9322L72.7369 62.0103L72.6606 61.954L72.7206 61.8632L72.7859 61.9322Z" fill="#6E6E6E"/>
<path d="M72.628 62.1338C72.6099 62.1465 72.5844 62.1756 72.5754 62.1701C72.5354 62.1501 72.5463 62.1156 72.5754 62.0848L72.628 62.1338Z" fill="#6E6E6E"/>
<path d="M72.7207 61.8578C72.7479 61.8287 72.7697 61.7706 72.8188 61.8196C72.8678 61.8687 72.8188 61.8959 72.7861 61.9268L72.7207 61.8578Z" fill="#6E6E6E"/>
<path d="M73.4306 54.7507C73.4306 54.7507 73.4487 54.7507 73.4524 54.7507C73.456 54.7507 73.4669 54.7688 73.4632 54.7743C73.4487 54.8088 73.4324 54.8088 73.4197 54.7743C73.4179 54.7688 73.4269 54.7579 73.4306 54.7507Z" fill="#6E6E6E"/>
<path d="M73.3747 54.6018C73.3747 54.6018 73.3928 54.6181 73.3928 54.6272C73.3928 54.6363 73.3783 54.6436 73.3711 54.6508C73.3638 54.6581 73.3511 54.6327 73.3511 54.6254C73.3511 54.6181 73.3638 54.6091 73.3747 54.6018Z" fill="#6E6E6E"/>
<path d="M40.895 56.1525C40.8441 56.6156 40.7969 57.0278 40.7461 57.469C40.2921 56.9824 40.3412 56.4449 40.895 56.1525Z" fill="#F6F0E9"/>
<path d="M39.484 56.1416C39.3206 56.7191 39.5021 57.2311 39.7691 57.7377L39.6765 57.8104C39.1317 57.1857 39.0464 56.6482 39.3859 56.0726L39.484 56.1416Z" fill="#F6F0E9"/>
<path d="M41.2148 59.352C41.578 59.7969 41.4455 60.2218 41.2148 60.6412V59.352Z" fill="#F6F0E9"/>
<path d="M40.726 60.3343C40.6007 59.8005 40.7097 59.2775 40.7605 58.7509C40.8199 59.2779 40.8083 59.8104 40.726 60.3343Z" fill="#6E6E6E"/>
<path d="M39.5786 61.3348C39.8556 61.3963 40.1356 61.443 40.4175 61.4747C40.0416 61.5818 39.9145 61.5691 39.5786 61.3348Z" fill="#F6F0E9"/>
<path d="M41.416 60.9826C41.5558 60.7707 41.6555 60.535 41.7102 60.2871C41.7553 60.4219 41.7548 60.5678 41.7089 60.7023C41.663 60.8368 41.5741 60.9525 41.456 61.0316L41.416 60.9826Z" fill="#F6F0E9"/>
<path d="M39.8254 58.0191L39.731 57.8811L39.8181 57.8049L39.8944 57.9047L39.8254 58.0191Z" fill="#F6F0E9"/>
<path d="M41.4489 61.0243C41.4289 61.1006 41.3835 61.1078 41.3218 61.0697L41.4089 60.9753L41.4489 61.0243Z" fill="#F6F0E9"/>
<path d="M39.3862 56.0726L39.4825 55.9509L39.5442 55.9981L39.4843 56.1416L39.3862 56.0726Z" fill="#F6F0E9"/>
<path d="M39.3028 61.1932H39.3264L39.3136 61.2386C39.3045 61.2321 39.2965 61.2241 39.29 61.215C39.29 61.215 39.2973 61.2059 39.3028 61.1932Z" fill="#F6F0E9"/>
<path d="M39.4824 55.9509C39.4933 55.9182 39.5097 55.8837 39.546 55.911C39.5823 55.9382 39.546 55.9673 39.546 55.9981L39.4824 55.9509Z" fill="#F6F0E9"/>
<path d="M39.7312 57.8811L39.6768 57.8103L39.7694 57.7377L39.8184 57.8049L39.7312 57.8811Z" fill="#F6F0E9"/>
<path d="M39.4588 61.2458C39.4686 61.2609 39.476 61.2775 39.4806 61.2949C39.4806 61.2949 39.4661 61.3112 39.4588 61.3185C39.4497 61.303 39.4424 61.2866 39.437 61.2695C39.437 61.2695 39.4515 61.2549 39.4588 61.2458Z" fill="#F6F0E9"/>
<path d="M53.4006 58.0155C53.4264 59.1145 53.2223 60.2068 52.8014 61.2223C52.6619 61.5827 52.4399 61.9055 52.1531 62.1647C51.839 62.428 51.5539 62.4225 51.2452 62.1411C51.0341 61.9388 50.8731 61.6901 50.7749 61.4147C50.4162 60.4666 50.2489 59.4567 50.2826 58.4435C50.3162 57.4303 50.5502 56.4338 50.971 55.5115C51.0789 55.2688 51.2346 55.0502 51.4286 54.8687C51.8807 54.4438 52.3565 54.4838 52.716 54.9886C53.0755 55.4934 53.199 56.0781 53.3007 56.6791C53.3743 57.1207 53.4077 57.568 53.4006 58.0155Z" fill="#F6F0E9"/>
<path d="M54.0306 57.6724C54.1868 58.1735 54.0706 58.6656 53.978 59.1577C53.9265 58.6625 53.9442 58.1626 54.0306 57.6724Z" fill="#6E6E6E"/>
<path d="M53.8474 55.7803C53.9917 56.0727 54.0491 56.4004 54.0126 56.7245C53.8346 56.4441 53.7751 56.1045 53.8474 55.7803Z" fill="#6E6E6E"/>
<path d="M44.0127 62.5532C44.7761 62.7619 45.5693 62.8399 46.3587 62.7838C45.5362 63.1833 44.7717 62.9055 44.0127 62.5532Z" fill="#F6F0E9"/>
<path d="M48.8611 60.3325C48.9154 60.7179 48.8393 61.1103 48.645 61.4474C48.6795 61.0679 48.832 60.7138 48.8611 60.3325Z" fill="#6E6E6E"/>
<path d="M47.9531 59.1522L47.5591 58.7564L47.6008 58.7073C47.7803 58.7832 47.9238 58.9248 48.0021 59.1032L47.9531 59.1522Z" fill="#F6F0E9"/>
<path d="M46.7075 62.6804C46.8201 62.5351 46.9527 62.5151 47.0907 62.4407C46.9872 62.6404 46.9872 62.6404 46.7075 62.6804Z" fill="#6E6E6E"/>
<path d="M47.9985 59.1032C48.0239 59.1595 48.0802 59.2067 48.0438 59.2848C47.9912 59.2576 47.9458 59.2249 47.9494 59.1577L47.9985 59.1032Z" fill="#F6F0E9"/>
<path d="M46.5804 62.7748L46.5205 62.7385C46.5407 62.7208 46.5633 62.7061 46.5877 62.6949C46.6022 62.6949 46.6222 62.713 46.6385 62.7221L46.5804 62.7748Z" fill="#6E6E6E"/>
<path d="M47.5554 58.7564L47.4609 58.6692C47.5209 58.6311 47.5681 58.6384 47.5971 58.7074L47.5554 58.7564Z" fill="#F6F0E9"/>
<path d="M48.5923 61.5691L48.5705 61.5945C48.5705 61.5945 48.5505 61.5763 48.5524 61.5672C48.5542 61.5582 48.5651 61.5509 48.5742 61.5436L48.5923 61.5691Z" fill="#6E6E6E"/>
<path d="M47.7134 61.9449C47.7388 61.9322 47.7769 61.9014 47.7878 61.9086C47.8369 61.9449 47.8005 61.9813 47.7733 62.0139L47.7134 61.9449Z" fill="#6E6E6E"/>
<path d="M47.7717 62.0139C47.7445 62.0394 47.719 62.0938 47.6755 62.0466C47.6319 61.9994 47.6755 61.9722 47.7118 61.9449L47.7717 62.0139Z" fill="#6E6E6E"/>
<path d="M47.541 62.1538C47.5701 62.1302 47.5882 62.0648 47.6373 62.1047C47.6863 62.1447 47.6373 62.1737 47.6082 62.201L47.541 62.1538Z" fill="#6E6E6E"/>
<path d="M47.6079 62.201C47.5825 62.2409 47.5535 62.279 47.5081 62.2336C47.499 62.2336 47.528 62.181 47.5408 62.1537L47.6079 62.201Z" fill="#6E6E6E"/>
<path d="M47.3501 62.3063C47.3846 62.2718 47.4227 62.2355 47.4627 62.29C47.4627 62.29 47.4282 62.3426 47.41 62.3699L47.3501 62.3063Z" fill="#6E6E6E"/>
<path d="M47.4081 62.3698C47.3755 62.3953 47.3373 62.4388 47.2992 62.3934C47.2611 62.348 47.3192 62.3281 47.3482 62.3063L47.4081 62.3698Z" fill="#6E6E6E"/>
<path d="M47.2268 62.4498L47.2013 62.477C47.1913 62.4618 47.1834 62.4453 47.1777 62.428C47.1777 62.428 47.1923 62.4116 47.2013 62.4044L47.2268 62.4498Z" fill="#6E6E6E"/>
<path d="M67.019 61.9685C67.0917 61.5346 67.1461 61.2005 67.2006 60.8318C67.2557 61.023 67.268 61.224 67.2366 61.4204C67.2052 61.6169 67.1309 61.804 67.019 61.9685Z" fill="#6E6E6E"/>
<path d="M62.1456 60.7937C62.1238 60.574 62.004 60.327 62.3272 60.249C62.4253 60.2272 62.5433 60.2217 62.5633 60.3398C62.6159 60.6612 62.2982 60.6448 62.1456 60.7937Z" fill="#F6F0E9"/>
<path d="M59.8794 61.1387C59.8731 61.4397 59.8115 61.737 59.6978 62.0157C59.6814 62.0818 59.6433 62.1404 59.5897 62.1823C59.536 62.2242 59.4699 62.2469 59.4019 62.2469C59.3338 62.2469 59.2677 62.2242 59.2141 62.1823C59.1605 62.1404 59.1224 62.0818 59.1059 62.0157C59.0081 61.8224 58.9543 61.6098 58.9483 61.3931C58.9423 61.1765 58.9844 60.9613 59.0714 60.7628C59.144 60.6048 59.1931 60.3888 59.4346 60.4505C59.5412 60.4723 59.6391 60.5248 59.7162 60.6016C59.7933 60.6784 59.8463 60.7761 59.8685 60.8827C59.8817 60.9673 59.8853 61.0532 59.8794 61.1387Z" fill="#F6F0E9"/>
</g>
<defs>
<filter id="filter0_d_2246_630" x="0" y="0.0239258" width="123.857" height="122" filterUnits="userSpaceOnUse" color-interpolation-filters="sRGB">
<feFlood flood-opacity="0" result="BackgroundImageFix"/>
<feColorMatrix in="SourceAlpha" type="matrix" values="0 0 0 0 0 0 0 0 0 0 0 0 0 0 0 0 0 0 127 0" result="hardAlpha"/>
<feOffset dx="5" dy="4"/>
<feGaussianBlur stdDeviation="2"/>
<feComposite in2="hardAlpha" operator="out"/>
<feColorMatrix type="matrix" values="0 0 0 0 0 0 0 0 0 0 0 0 0 0 0 0 0 0 0.25 0"/>
<feBlend mode="normal" in2="BackgroundImageFix" result="effect1_dropShadow_2246_630"/>
<feBlend mode="normal" in="SourceGraphic" in2="effect1_dropShadow_2246_630" result="shape"/>
</filter>
<clipPath id="clip0_2246_630">
<rect width="92.65" height="92.65" fill="white" transform="translate(12 10)"/>
</clipPath>
</defs>
</svg>
