<svg width="19" height="19" viewBox="0 0 19 19" fill="none" xmlns="http://www.w3.org/2000/svg">
    <path fill-rule="evenodd" clip-rule="evenodd"
        d="M8.23773 17.7365C3.69448 17.7365 0.0012207 14.0432 0.0012207 9.49998C0.0012207 4.95673 3.69448 1.26343 8.23773 1.26343C10.5248 1.26343 12.6574 2.17518 14.2336 3.8441C14.3133 3.93395 14.3045 4.03459 14.2535 4.10774L14.737 4.73959C14.8291 4.69265 14.9489 4.70234 15.0218 4.81761C15.9799 6.19296 16.4744 7.81555 16.4744 9.49994C16.4743 14.0432 12.781 17.7365 8.23773 17.7365ZM8.23773 16.0367C4.63713 16.0367 1.70104 13.1006 1.70104 9.49998C1.70104 5.89938 4.63713 2.96325 8.23773 2.96325C9.95302 2.96325 11.5757 3.62771 12.7965 4.81765C12.8946 4.91452 12.8793 5.0301 12.8154 5.10785L13.4274 5.86739C13.5208 5.81277 13.6498 5.81803 13.7236 5.93028C16.5017 10.1579 13.4868 16.0367 8.23773 16.0367Z"
        fill="#F8F2EA" />
    <path fill-rule="evenodd" clip-rule="evenodd"
        d="M8.45413 13.7341C8.36143 13.7341 8.28416 13.6723 8.25326 13.5951C8.23783 13.5642 6.90881 10.1335 4.85353 8.83547C4.45174 8.58823 4.14274 8.32551 4.26634 7.73827C4.38994 7.16651 4.7763 6.84199 5.47167 6.68745C6.7079 6.42473 8.03687 8.34094 8.5314 9.12909C10.2621 6.61022 13.7236 2.65416 18.7614 2.19056C19.0044 2.16207 19.0943 2.52231 18.8696 2.62325C18.7923 2.65416 11.5911 5.94575 8.67043 13.6105C8.6241 13.6878 8.54683 13.7341 8.45413 13.7341Z"
        fill="#F8F2EA" />
</svg>
    