<svg width="16" height="16" viewBox="0 0 16 16" fill="none" xmlns="http://www.w3.org/2000/svg">
<g clip-path="url(#clip0_12127_4131)">
<path d="M7.59168 1.34067C8.08332 1.3407 8.55813 1.52958 8.92733 1.872L9.02468 1.96867L9.46589 2.434C9.58698 2.56088 9.7451 2.64097 9.91469 2.66133L10 2.66667H10.6321C11.1487 2.66664 11.6457 2.87505 12.0213 3.24916C12.3968 3.62327 12.6224 4.13474 12.6517 4.67867L12.6549 4.8V5.46667C12.6549 5.64667 12.7131 5.822 12.818 5.962L12.8749 6.02867L13.3155 6.494C13.6807 6.87697 13.8936 7.39241 13.9108 7.93525C13.9281 8.47808 13.7484 9.00742 13.4084 9.41533L13.3167 9.518L12.8755 9.98334C12.7552 10.111 12.6793 10.2778 12.66 10.4567L12.6549 10.5467V11.2133C12.6549 11.7581 12.4573 12.2823 12.1026 12.6784C11.7479 13.0744 11.2629 13.3123 10.7472 13.3433L10.6321 13.3467H10C9.8296 13.3467 9.66416 13.4073 9.53037 13.5187L9.46716 13.5787L9.02594 14.0433C8.66283 14.4285 8.17409 14.6531 7.65939 14.6713C7.1447 14.6895 6.64279 14.4999 6.25602 14.1413L6.15867 14.0447L5.71746 13.5793C5.59637 13.4525 5.43825 13.3724 5.26866 13.352L5.18332 13.3467H4.55121C4.03463 13.3467 3.53762 13.1383 3.16209 12.7642C2.78657 12.3901 2.56098 11.8786 2.5316 11.3347L2.52844 11.2133V10.5467C2.52839 10.3669 2.47094 10.1924 2.36536 10.0513L2.30847 9.98467L1.86788 9.51933C1.5027 9.13637 1.28977 8.62092 1.2725 8.07809C1.25523 7.53526 1.43494 7.00592 1.77496 6.598L1.86662 6.49533L2.30783 6.03C2.42813 5.9023 2.50408 5.73553 2.52339 5.55667L2.52844 5.46667V4.8L2.5316 4.67867C2.55983 4.15563 2.76955 3.66183 3.12079 3.29139C3.47203 2.92095 3.94023 2.69977 4.43616 2.67L4.55121 2.66667H5.18332C5.35375 2.66661 5.51919 2.60602 5.65298 2.49467L5.71619 2.43467L6.15741 1.97C6.34536 1.77059 6.56883 1.61234 6.81498 1.50433C7.06112 1.39633 7.32508 1.34071 7.59168 1.34067ZM9.9286 6.19533C9.81006 6.07035 9.64931 6.00014 9.4817 6.00014C9.31408 6.00014 9.15333 6.07035 9.03479 6.19533L6.95324 8.39L6.13592 7.52867L6.0765 7.47333C5.94945 7.36973 5.78977 7.32101 5.62989 7.33707C5.47002 7.35313 5.32193 7.43277 5.21572 7.55982C5.1095 7.68686 5.05312 7.85178 5.05802 8.02108C5.06292 8.19038 5.12874 8.35136 5.24211 8.47133L6.50634 9.80467L6.56575 9.86C6.68738 9.9595 6.83924 10.0088 6.99286 9.99859C7.14648 9.98841 7.2913 9.91945 7.40014 9.80467L9.9286 7.138L9.98107 7.07533C10.0754 6.94707 10.1221 6.7869 10.1125 6.62488C10.1028 6.46286 10.0374 6.31013 9.9286 6.19533Z" fill="#03122B"/>
<path d="M9.68243 6.40814C9.47847 6.59249 9.30488 6.80274 9.14042 7.0209C9.0267 7.17174 8.9047 7.31958 8.76233 7.44436C8.63117 7.5593 8.49745 7.6594 8.39692 7.80391C8.20222 8.08379 7.92156 8.30681 7.64854 8.50497C7.45074 8.64853 7.28004 8.8213 7.07335 8.95282C7.04094 8.97345 7.01506 8.99772 6.99529 9.03088C6.96282 9.08538 6.91475 9.1318 6.88553 9.187C6.87677 9.20353 6.85611 9.23335 6.84113 9.21041C6.6992 8.99308 6.52527 8.80464 6.36498 8.60059C6.16498 8.34598 5.92364 8.1711 5.64294 8.01516" stroke="black" stroke-width="1.5" stroke-linecap="round"/>
<path d="M11.1668 2.61569C10.7755 2.58628 10.3881 2.49095 10.0044 2.41264C9.86862 2.38492 9.74145 2.37521 9.62482 2.30523C9.57543 2.2756 9.5485 2.24152 9.51152 2.19782C9.43029 2.10182 9.32781 2.02266 9.23049 1.94401C9.08945 1.83004 8.94516 1.7205 8.80086 1.61075C8.51094 1.39025 8.12618 1.23078 7.77091 1.15758C7.58196 1.11864 7.38996 1.14286 7.2015 1.17229C7.0192 1.20076 6.87266 1.23667 6.72625 1.34885C6.46936 1.54569 6.15169 1.67093 5.86331 1.81306C5.62956 1.92827 5.47142 2.08285 5.33289 2.30229C5.27777 2.3896 5.22247 2.51064 5.11807 2.548C4.88181 2.63256 4.62032 2.65244 4.37945 2.72751C4.04528 2.83166 3.72749 2.96705 3.41498 3.1233C3.25496 3.20331 3.07688 3.28766 2.95518 3.42346C2.81039 3.58502 2.70124 3.79152 2.61898 3.99066C2.54328 4.17394 2.51586 4.3661 2.47773 4.55934C2.42671 4.8179 2.36084 5.07248 2.30043 5.32886C2.26478 5.48018 2.25997 5.63733 2.22539 5.78718C2.21609 5.82749 2.20054 5.83628 2.1658 5.86737C2.02002 5.99788 1.85996 6.11173 1.71189 6.23962C1.59342 6.34195 1.4706 6.44878 1.41026 6.59716C1.35068 6.74372 1.30873 6.90085 1.25651 7.05034C1.18296 7.26088 1.17578 7.46373 1.16014 7.68449C1.14546 7.89151 1.1188 8.09847 1.0954 8.30466C1.07803 8.45767 1.04547 8.61806 1.06303 8.77255C1.0824 8.94306 1.17104 9.10578 1.26166 9.24853C1.35448 9.39477 1.46628 9.52779 1.55887 9.67449C1.64723 9.81449 1.7274 9.95922 1.84578 10.0769C1.98739 10.2177 2.10364 10.3405 2.20112 10.5154C2.37711 10.8311 2.36167 11.2071 2.3843 11.5556C2.39959 11.7912 2.42882 12.0283 2.46743 12.2611C2.48158 12.3465 2.48786 12.416 2.53879 12.4884C2.62554 12.6118 2.78635 12.6806 2.90957 12.7577C3.33161 13.0219 3.72483 13.2563 4.21319 13.3757C4.56208 13.461 4.90613 13.5735 5.24975 13.678C5.42934 13.7327 5.59253 13.781 5.72868 13.9171C5.90474 14.0932 6.03693 14.3103 6.25469 14.4417C6.74492 14.7373 7.37694 14.7579 7.92688 14.6822C8.23545 14.6398 8.52351 14.5706 8.7295 14.3188C8.87944 14.1355 8.96283 13.9362 9.16134 13.7935C9.66836 13.4292 10.3662 13.4418 10.9608 13.3823C11.2358 13.3548 11.2813 13.351 11.5552 13.3308C11.7778 13.3144 12.0275 13.3174 12.232 13.2109C12.6321 13.0026 12.691 12.6026 12.6536 12.1956C12.6365 12.0094 12.6001 11.8462 12.6536 11.6645C12.7252 11.4211 12.749 11.1815 12.7779 10.9303C12.8023 10.7187 12.8338 10.4921 12.928 10.2983C12.9716 10.2087 13.0014 10.1735 13.0582 10.0901C13.1518 9.95296 13.2343 9.81093 13.3208 9.66934C13.4583 9.44449 13.6294 9.23867 13.7578 9.0087C13.9524 8.66031 13.9677 8.25567 13.9447 7.86546C13.9156 7.37007 13.7261 6.93324 13.4577 6.52065C13.2387 6.18409 12.9273 5.8991 12.8022 5.50836C12.6943 5.17116 12.7059 4.81637 12.6448 4.47106C12.5957 4.19414 12.5004 3.89538 12.3939 3.63533C12.2672 3.32594 12.0566 3.1535 11.7612 3.01221C11.5941 2.93231 11.4395 2.86192 11.286 2.76135" stroke="#F8F2EA" stroke-linecap="round"/>
<path d="M11.8951 12.1633C11.7809 12.2267 11.8099 12.2137 11.6303 12.2839C11.3005 12.4128 10.9619 12.5434 10.6136 12.6135C10.4262 12.6512 10.2591 12.6123 10.0751 12.587C9.78174 12.5468 9.55682 12.528 9.31069 12.7099C9.17249 12.812 9.05133 12.9348 8.91489 13.0409C8.77141 13.1525 8.67472 13.314 8.53896 13.4345C8.35608 13.5969 8.16038 13.8532 7.91217 13.9054C7.56567 13.9782 7.18764 13.9776 6.85942 13.834C6.60254 13.7216 6.3484 13.6028 6.1745 13.3786C6.10286 13.2863 6.03744 13.211 5.93394 13.152C5.78151 13.0651 5.61419 13.0341 5.45133 12.9747C5.32308 12.928 5.20263 12.8681 5.08717 12.796C4.96913 12.7222 4.83621 12.6751 4.7083 12.6216C4.43915 12.5091 4.13265 12.5094 3.88361 12.3516C3.79841 12.2976 3.73034 12.2262 3.65408 12.1611C3.55185 12.0738 3.44541 11.9929 3.35981 11.8881C3.29079 11.8037 3.23321 11.7099 3.19796 11.6064C3.14893 11.4624 3.15527 11.3069 3.12145 11.1591C3.09211 11.0309 3.06954 10.8971 3.0214 10.7743C2.94415 10.5773 2.83965 10.3852 2.73448 10.202C2.63585 10.0301 2.50947 9.87463 2.41373 9.70171C2.34271 9.57345 2.3129 9.42834 2.24894 9.29709C2.17037 9.13587 2.07339 8.98568 1.97894 8.83362C1.84229 8.6136 1.75139 8.37233 1.66923 8.12737C1.60619 7.93946 1.5845 7.7438 1.6089 7.54619C1.64543 7.25036 1.85154 6.95155 2.06502 6.75166C2.21529 6.61096 2.4009 6.51362 2.54394 6.36396C2.67861 6.22305 2.78325 6.04477 2.84483 5.86002C2.96052 5.51295 3.04162 5.15425 3.14278 4.80285C3.19588 4.61841 3.28483 4.47539 3.39659 4.32098C3.49625 4.1833 3.55999 4.01953 3.671 3.89061C3.81145 3.72751 4.00228 3.65104 4.20289 3.58972C4.43288 3.51943 4.65881 3.42172 4.90031 3.40286C5.12177 3.38557 5.3151 3.38236 5.5043 3.25058C5.68512 3.12463 5.82364 2.95006 5.995 2.81285C6.32395 2.54945 6.72246 2.31456 7.13014 2.20518C7.33566 2.15004 7.54504 2.0716 7.75767 2.05069C8.04827 2.02212 8.28195 2.13022 8.53455 2.26257C8.77373 2.38788 9.02784 2.51871 9.24962 2.67381C9.45845 2.81984 9.56546 3.04766 9.74621 3.22041C9.88915 3.35704 10.0662 3.45377 10.2604 3.49409C10.5169 3.54732 10.7722 3.5038 11.03 3.49335C11.1726 3.48757 11.2632 3.52224 11.3801 3.60297C11.6084 3.76048 11.8666 3.92552 11.9981 4.17826C12.2305 4.62487 12.1063 5.1214 12.2438 5.58635C12.3668 6.00237 12.6978 6.26653 12.9515 6.60084C13.0863 6.77841 13.1231 6.96591 13.1664 7.18129C13.2095 7.39584 13.2599 7.61227 13.2833 7.83016C13.3053 8.03472 13.3129 8.26393 13.2517 8.46284C13.1709 8.72523 12.9397 8.89646 12.7838 9.1117C12.6423 9.30708 12.5412 9.52311 12.4292 9.73556C12.2561 10.0638 12.0958 10.3941 11.9885 10.7508C11.922 10.9719 11.8636 11.2058 11.8995 11.4379C11.9283 11.624 11.9893 11.8064 12.0275 11.9911" stroke="black" stroke-linecap="round"/>
<path d="M9.3795 5.76526C8.69018 6.2553 8.12921 6.92334 7.55871 7.54219C7.42943 7.68242 7.27185 7.79324 7.13081 7.92085C7.09326 7.95483 7.05314 8.00761 7.00101 8.02022C6.8816 8.04911 6.73151 7.97161 6.62593 7.92622C6.48348 7.86498 6.3287 7.79443 6.20699 7.69706C5.98316 7.518 5.75853 7.31267 5.45146 7.29781C5.28598 7.2898 5.12801 7.36443 5.00029 7.46342C4.90012 7.54105 4.88211 7.6682 4.87138 7.78837C4.85897 7.92738 4.86955 8.06546 4.85079 8.20462C4.83318 8.33522 4.79925 8.40315 4.8857 8.51167C5.04338 8.7096 5.29513 8.88058 5.50696 9.02013C5.6329 9.10311 5.78212 9.14806 5.90084 9.24303C5.96256 9.29241 6.00932 9.3571 6.06734 9.41043C6.25239 9.58052 6.46115 9.70131 6.67248 9.83295C6.74186 9.87618 6.86404 9.9669 6.95088 9.93859C7.06998 9.89975 7.196 9.78959 7.29194 9.70942C7.4649 9.56489 7.68157 9.48867 7.83621 9.31912C8.00003 9.13951 8.14861 8.94453 8.34109 8.79455C8.62034 8.57695 8.86076 8.30755 9.13243 8.08019C9.35763 7.89173 9.50412 7.62967 9.73757 7.44462C9.88442 7.32822 9.99226 7.18478 10.1109 7.04C10.2274 6.89771 10.3451 6.7478 10.4358 6.58704C10.5219 6.43459 10.5595 6.25984 10.5781 6.08753C10.5944 5.93742 10.6329 5.75976 10.5235 5.63457C10.4133 5.50841 10.1566 5.50331 10.0043 5.51193C9.7785 5.52471 9.55844 5.57928 9.33116 5.58802" stroke="#F8F2EA" stroke-width="0.5" stroke-linecap="round"/>
</g>
<defs>
<clipPath id="clip0_12127_4131">
<rect width="15.1707" height="16" fill="white"/>
</clipPath>
</defs>
</svg>
