<svg width="126" height="124" viewBox="0 0 126 124" fill="none" xmlns="http://www.w3.org/2000/svg" xmlns:xlink="http://www.w3.org/1999/xlink">
<g filter="url(#filter0_d_8060_58258)">
<path d="M0 58.0557C0.213696 43.3192 5.15527 30.3441 15.1543 19.3684C23.3038 10.4248 33.3897 4.68008 45.1213 1.75781C48.7396 0.856709 52.4171 0.333372 56.1417 0.122834C63.8433 -0.313882 71.3383 0.687076 78.6064 3.29534C86.0447 5.96496 92.6174 10.0326 98.3546 15.4464C103.237 20.053 107.044 25.4331 110.137 31.3691C113.322 37.4831 115.391 43.9195 116.32 50.7374C116.736 53.7944 116.923 56.8646 116.822 59.9445C116.352 74.2839 111.35 86.8344 101.596 97.3986C93.3321 106.348 83.1628 112.099 71.2248 114.695C67.8008 115.44 64.3358 115.907 60.8274 115.984C45.143 116.329 31.3131 111.449 19.52 101.137C10.1548 92.946 4.21235 82.6609 1.43309 70.5652C0.571064 66.8165 0.108659 63.0123 0.0555369 59.1625C0.0507076 58.8136 0.0217318 58.4659 0.00120732 58.0569L0 58.0557Z" fill="#060000"/>
<path d="M60.7239 110.897C52.6179 111.044 45.0577 109.716 37.8077 106.76C32.6065 104.64 27.7471 101.925 23.5178 98.1975C16.5648 92.0714 11.4808 84.6605 8.27778 75.9755C6.87849 72.1834 5.94161 68.277 5.44298 64.2708C4.95039 60.3223 4.80189 56.357 5.34398 52.4097C6.0732 47.1017 7.63548 42.0235 9.97044 37.192C14.5752 27.6637 21.3688 20.0506 30.3247 14.401C36.2551 10.6606 42.7094 8.17024 49.6274 6.90821C53.0332 6.28623 56.4681 5.99388 59.9283 6.02636C65.2888 6.07689 70.5539 6.81558 75.644 8.50229C79.1887 9.67649 82.4895 11.4065 85.6141 13.4469C95.7544 20.0698 102.946 29.0905 107.468 40.2562C109.43 45.101 110.652 50.1335 111.14 55.3404C111.377 57.8548 111.51 60.3752 111.297 62.8933C111.045 65.8841 110.441 68.8184 109.624 71.707C107.197 80.2717 102.911 87.7969 96.8035 94.2803C90.418 101.058 82.7853 105.933 73.938 108.877C71.2807 109.761 68.5087 110.199 65.727 110.534C63.9716 110.744 62.2089 110.838 60.7239 110.898V110.897Z" fill="#F8F2EA"/>
<path d="M60.2753 105.014C52.9619 105.147 46.1409 103.944 39.5998 101.267C34.9072 99.3465 30.5229 96.8871 26.7072 93.5112C20.434 87.9624 15.8471 81.2499 12.9573 73.3834C11.6948 69.9486 10.8495 66.4104 10.3997 62.7817C9.95524 59.2053 9.82126 55.6136 10.3103 52.0383C10.9683 47.2306 12.3778 42.631 14.4844 38.2548C18.6389 29.6244 24.7683 22.7287 32.8485 17.6115C38.199 14.2236 44.0223 11.968 50.2638 10.8249C53.3366 10.2615 56.4356 9.99671 59.5575 10.0261C64.3938 10.0719 69.1441 10.741 73.7365 12.2687C76.9346 13.3323 79.9127 14.8993 82.7317 16.7474C91.8805 22.7462 98.3693 30.9167 102.449 41.0302C104.219 45.4184 105.321 49.9766 105.762 54.6929C105.976 56.9703 106.096 59.2532 105.904 61.534C105.676 64.243 105.132 66.9007 104.394 69.5171C102.205 77.2747 98.3378 84.0907 92.8271 89.9631C87.066 96.1025 80.1796 100.518 72.1974 103.184C69.7999 103.985 67.2989 104.382 64.7892 104.685C63.2054 104.876 61.6151 104.961 60.2753 105.015V105.014Z" fill="#181818"/>
<path d="M15.1406 22.9129C16.3733 21.0626 17.7678 19.335 19.2576 17.6892C20.0846 16.7761 21.0686 16.0181 22.0815 15.1892C19.889 17.9406 17.5082 20.4274 15.2432 23.0152C15.1539 23.0357 15.1068 23.0152 15.1406 22.9129Z" fill="#F8F2EA"/>
<path d="M92.4792 16.9975C95.1486 19.1643 97.5717 21.5752 99.7231 24.2545C99.7412 24.3423 99.7159 24.3868 99.6181 24.3543C97.3181 21.8231 94.8431 19.465 92.3657 17.1094C92.3488 17.018 92.3802 16.9735 92.478 16.9975H92.4792Z" fill="#F8F2EA"/>
<path d="M114.428 54.3554C114.719 56.6051 114.871 58.8609 114.65 61.1251C114.568 61.9744 114.438 62.819 114.329 63.666C114.077 63.548 114.244 63.3544 114.242 63.1907C114.376 61.0878 114.499 58.9848 114.427 56.8758C114.399 56.0685 114.363 55.2613 114.329 54.454C114.296 54.3566 114.339 54.3325 114.428 54.3542V54.3554Z" fill="#F8F2EA"/>
<path d="M64.31 111.857C63.0701 112.017 61.8314 112.182 60.5903 112.336C59.424 112.482 58.2541 112.603 57.089 112.765C56.7812 112.808 56.4878 112.76 56.1884 112.752C56.1002 112.75 55.9348 112.828 55.9554 112.63C55.9686 112.503 56.0725 112.454 56.1968 112.446C56.6411 112.417 57.0842 112.371 57.5297 112.355C59.5327 112.286 61.5211 112.057 63.5072 111.803C63.7716 111.77 64.0384 111.727 64.31 111.856V111.857Z" fill="#F8F2EA"/>
<path d="M35.6093 9.50468C38.0047 8.16565 40.6233 7.41253 43.2251 6.6173C43.329 6.58241 43.3543 6.62933 43.3362 6.72317C40.7646 7.60622 38.2039 8.52176 35.7095 9.60694C35.6105 9.63581 35.5864 9.5937 35.6093 9.50468Z" fill="#F8F2EA"/>
<path d="M89.7798 101.755C91.8721 99.9292 94.0139 98.1558 95.9528 96.1563C95.4844 97.0682 91.097 101.07 89.7798 101.755Z" fill="#F8F2EA"/>
<path d="M99.1392 19.1581C100.054 19.8283 103.569 23.9404 104.059 24.8752C102.291 23.0802 100.902 20.9603 99.1392 19.1581Z" fill="#F8F2EA"/>
<path d="M90.0611 13.5927C88.7934 12.8588 87.527 12.1238 86.2593 11.3899C87.6562 11.8988 89.1339 12.2645 90.0611 13.5927Z" fill="#F8F2EA"/>
<path d="M14.8511 25.9532C15.7191 24.708 16.6995 23.5482 17.6726 22.3848C17.7402 22.303 17.7981 22.1105 17.9587 22.2308C18.1362 22.3644 17.9792 22.4715 17.8899 22.5773C16.9108 23.7371 15.9316 24.8981 14.9537 26.059C14.868 26.0735 14.8197 26.0506 14.8523 25.9532H14.8511Z" fill="#F8F2EA"/>
<path d="M113.698 68.2786C113.446 69.9509 113.055 71.5907 112.524 73.198C112.496 73.2329 112.465 73.2341 112.433 73.2016C112.857 71.4656 113.288 69.7319 113.593 67.9694C113.821 68.0067 113.692 68.1655 113.698 68.2774V68.2786Z" fill="#F8F2EA"/>
<path d="M99.6199 24.3542C99.6549 24.3205 99.6899 24.288 99.7249 24.2543C100.896 25.5946 101.917 27.0443 102.887 28.5325C102.919 28.6263 102.875 28.6419 102.795 28.6227C101.817 27.1405 100.708 25.7558 99.6199 24.3542Z" fill="#F8F2EA"/>
<path d="M113.698 68.2784C113.651 68.1798 113.719 68.0414 113.593 67.9704C113.809 66.3776 114.026 64.7847 114.242 63.1918C114.302 63.3446 114.209 63.5251 114.329 63.667C114.119 65.2046 113.908 66.7409 113.7 68.2784H113.698Z" fill="#F8F2EA"/>
<path d="M111.964 75.0167C111.701 76.3413 111.142 77.5661 110.676 78.8221C110.594 79.0434 110.499 79.26 110.409 79.4789C110.33 79.4898 110.273 79.4814 110.326 79.3803C110.868 77.9065 111.438 76.4412 111.889 74.9361C111.926 74.9229 111.962 74.9109 111.986 74.953C111.996 74.9698 111.982 74.9939 111.965 75.0167H111.964Z" fill="#F8F2EA"/>
<path d="M112.793 42.9983C113.239 44.3782 113.667 45.763 113.712 47.2259C113.405 45.8171 113.1 44.4083 112.793 42.9983Z" fill="#F8F2EA"/>
<path d="M54.9096 4.16552C55.9527 4.06446 56.991 3.90084 58.039 3.87317C58.0438 3.93092 58.0499 3.98746 58.0547 4.04521C57.0393 4.1198 56.024 4.19439 55.0074 4.26898C54.9108 4.29425 54.8831 4.25454 54.9084 4.16431L54.9096 4.16552Z" fill="#F8F2EA"/>
<path d="M3.21848 57.9019V60.7448C3.16777 60.7448 3.11707 60.7424 3.06636 60.7412C2.85145 59.7186 3.22814 58.7152 3.21848 57.9019Z" fill="#F8F2EA"/>
<path d="M6.18963 40.5369C5.99887 41.0542 5.80328 41.5715 5.61856 42.0912C5.57027 42.2272 5.51232 42.3367 5.35295 42.2729C5.14771 42.1899 5.30345 42.072 5.34933 41.9781C5.58476 41.4945 5.82622 41.0157 6.06648 40.5345C6.10874 40.4948 6.14979 40.496 6.19083 40.5381L6.18963 40.5369Z" fill="#F8F2EA"/>
<path d="M45.9056 5.18564C44.9784 5.41543 44.0523 5.64522 43.1251 5.87621C43.9618 5.41062 44.8842 5.24941 45.8066 5.08579C45.9008 5.05932 45.9285 5.09782 45.9056 5.18685V5.18564Z" fill="#F8F2EA"/>
<path d="M5.31769 72.8261C4.8734 71.9334 4.74784 70.9517 4.61865 69.97C4.85167 70.9216 5.08468 71.8744 5.31769 72.8261Z" fill="#F8F2EA"/>
<path d="M14.8506 25.9531C14.8844 25.988 14.9182 26.024 14.952 26.0589C14.5282 26.64 14.1045 27.2223 13.6807 27.8034C13.6445 27.7793 13.6095 27.7553 13.5732 27.7312C13.9825 27.1285 14.3713 26.5113 14.8506 25.9531Z" fill="#F8F2EA"/>
<path d="M22.5575 99.6343C23.1249 100.083 23.6924 100.532 24.2598 100.981C23.3724 100.573 22.8231 100.136 22.5575 99.6343Z" fill="#F8F2EA"/>
<path d="M66.736 3.3234C66.0913 3.27528 65.4453 3.22595 64.7535 3.17422C65.4647 2.80367 66.0973 3.23918 66.748 3.2055C66.7432 3.244 66.7396 3.2837 66.7348 3.3222L66.736 3.3234Z" fill="#F8F2EA"/>
<path d="M78.564 8.1369C79.3089 8.23194 79.9548 8.51707 80.5428 8.94537C79.8836 8.67588 79.2232 8.40639 78.564 8.1369Z" fill="#F8F2EA"/>
<path d="M43.3363 6.72324C43.2989 6.68835 43.2626 6.65226 43.2252 6.61737C43.7661 6.36954 44.3444 6.26246 44.9131 6.1217C44.9251 6.1602 44.9372 6.1987 44.9493 6.2372C44.4108 6.39961 43.8736 6.56083 43.3351 6.72324H43.3363Z" fill="#F8F2EA"/>
<path d="M70.0076 111.395C70.4676 111.259 70.9276 111.122 71.3876 110.986C71.1135 111.46 70.6089 111.352 70.2068 111.499C70.1078 111.525 69.9955 111.579 70.0076 111.395Z" fill="#F8F2EA"/>
<path d="M61.1012 113.427C61.8389 113.414 62.5669 113.206 63.3118 113.346C62.5741 113.359 61.8485 113.598 61.1012 113.427Z" fill="#F8F2EA"/>
<path d="M20.8989 96.7239C21.3179 97.1161 21.738 97.5095 22.157 97.9017C22.1304 97.9294 22.1026 97.9583 22.0761 97.986C21.6125 97.6383 21.2068 97.2316 20.8989 96.7239Z" fill="#F8F2EA"/>
<path d="M23.4243 99.1348C22.9788 98.8305 22.5756 98.4804 22.2351 98.0605C22.7011 98.3384 23.108 98.6873 23.4919 99.0651C23.5016 99.118 23.4787 99.142 23.4243 99.1348Z" fill="#F8F2EA"/>
<path d="M7.75339 80.7568C7.45881 80.2768 7.26564 79.7583 7.18958 79.1917C7.40206 79.6921 7.61455 80.1938 7.82704 80.6943C7.82704 80.7436 7.8029 80.7641 7.7546 80.758L7.75339 80.7568Z" fill="#F8F2EA"/>
<path d="M92.4797 16.9973C92.4422 17.0346 92.4048 17.0719 92.3674 17.1092C92.0788 16.8469 91.7903 16.5847 91.5029 16.3224C91.9026 16.4535 92.2104 16.7002 92.4809 16.9973H92.4797Z" fill="#F8F2EA"/>
<path d="M102.795 28.6228C102.825 28.5927 102.856 28.5627 102.887 28.5326C103.202 28.8815 103.418 29.2881 103.569 29.7405C103.31 29.3675 103.053 28.9946 102.795 28.6228Z" fill="#F8F2EA"/>
<path d="M45.9059 5.18573C45.8733 5.15205 45.8395 5.11836 45.8069 5.08467C46.2741 4.93068 46.7486 4.81278 47.2436 4.80676C47.2545 4.81879 47.2641 4.83203 47.275 4.84406C46.8367 5.03174 46.3659 5.08467 45.9059 5.18453V5.18573Z" fill="#F8F2EA"/>
<path d="M30.4221 103.948C30.7674 104.149 31.1139 104.35 31.4592 104.55C31.0403 104.482 30.6877 104.288 30.4221 103.948Z" fill="#F8F2EA"/>
<path d="M70.0075 111.396C70.0317 111.511 70.1403 111.464 70.2067 111.499C69.7938 111.595 69.3821 111.693 68.9692 111.789C69.2856 111.56 69.6429 111.466 70.0075 111.396Z" fill="#F8F2EA"/>
<path d="M114.427 54.3553C114.395 54.389 114.362 54.4215 114.328 54.4552C114.2 54.1051 114.235 53.7477 114.322 53.3856L114.427 54.3553Z" fill="#F8F2EA"/>
<path d="M24.8937 100.284C24.5749 100.095 24.2719 99.8855 24.0184 99.6137C24.0159 99.5667 24.0401 99.5499 24.0848 99.5607C24.4011 99.6979 24.6256 99.9565 24.8912 100.161C24.9335 100.201 24.9347 100.242 24.8937 100.284Z" fill="#F8F2EA"/>
<path d="M35.6097 9.5048C35.6435 9.53849 35.6761 9.57338 35.7099 9.60707C35.4551 9.78392 35.1726 9.8946 34.8647 9.94272C35.0833 9.74181 35.3296 9.59503 35.6085 9.5036L35.6097 9.5048Z" fill="#F8F2EA"/>
<path d="M54.9097 4.16541C54.9423 4.20029 54.9762 4.23518 55.0087 4.27007C54.6912 4.43128 54.3604 4.35308 54.0248 4.27849C54.3194 4.2412 54.6152 4.2027 54.9097 4.16541Z" fill="#F8F2EA"/>
<path d="M6.1893 40.5366C6.14825 40.5366 6.10599 40.5342 6.06494 40.533C6.18688 40.2647 6.30882 39.9965 6.43076 39.7294C6.42231 40.0277 6.37402 40.3068 6.1893 40.5366Z" fill="#F8F2EA"/>
<path d="M8.22266 35.3599C8.36874 35.0627 8.51483 34.7644 8.66091 34.4672C8.69713 34.4841 8.73456 34.5009 8.77078 34.5178C8.63194 34.8185 8.54501 35.1434 8.22266 35.3599Z" fill="#F8F2EA"/>
<path d="M111.117 44.2447C111.046 43.9608 110.975 43.6769 110.903 43.3929C111.112 43.6035 111.202 43.8537 111.205 44.1328C111.251 44.2291 111.205 44.2543 111.116 44.2447H111.117Z" fill="#F8F2EA"/>
<path d="M110.325 79.3804C110.353 79.4129 110.381 79.4466 110.408 79.4791C110.319 79.7305 110.219 79.976 109.977 80.243C110.067 79.8869 110.174 79.6259 110.325 79.3804Z" fill="#F8F2EA"/>
<path d="M15.1406 22.9129C15.1744 22.9466 15.2094 22.9815 15.2432 23.0152C15.1285 23.275 14.9209 23.4591 14.7084 23.6444C14.7941 23.3653 14.9317 23.1186 15.1406 22.9129Z" fill="#F8F2EA"/>
<path d="M7.82561 80.6942C7.97774 80.9589 8.12141 81.2248 8.1528 81.54C7.96928 81.3042 7.81958 81.0527 7.75317 80.758C7.77732 80.7363 7.80147 80.7159 7.82561 80.6942Z" fill="#F8F2EA"/>
<path d="M24.8937 100.284C24.8937 100.243 24.8924 100.202 24.8912 100.161C25.1303 100.298 25.3488 100.461 25.5142 100.694C25.2836 100.594 25.0518 100.498 24.8937 100.285V100.284Z" fill="#F8F2EA"/>
<path d="M110.348 41.0976C110.162 40.8943 110.023 40.6741 110.073 40.2927C110.187 40.6284 110.268 40.863 110.348 41.0976Z" fill="#F8F2EA"/>
<path d="M111.117 44.2447C111.147 44.2074 111.176 44.1701 111.206 44.1328C111.327 44.3566 111.362 44.5984 111.324 44.8583C111.256 44.6537 111.186 44.4492 111.117 44.2447Z" fill="#F8F2EA"/>
<path d="M112.433 73.2015C112.465 73.2147 112.495 73.2123 112.525 73.1979C112.456 73.4168 112.387 73.637 112.277 73.9871C112.239 73.6081 112.302 73.3976 112.433 73.2027V73.2015Z" fill="#F8F2EA"/>
<path d="M47.2432 4.80789C47.4943 4.68156 47.7575 4.62622 48.1378 4.67074C47.7865 4.74172 47.5462 4.86323 47.2746 4.84518C47.2637 4.83315 47.254 4.81992 47.2432 4.80789Z" fill="#F8F2EA"/>
<path d="M24.0183 99.6138C23.8203 99.4538 23.6223 99.295 23.4243 99.135C23.4473 99.1121 23.469 99.088 23.4919 99.0652C23.7177 99.1975 23.9169 99.3611 24.0847 99.5609C24.0557 99.5693 24.034 99.5873 24.0183 99.6138Z" fill="#F8F2EA"/>
<path d="M111.965 75.0169C111.939 74.9904 111.914 74.9628 111.889 74.9363C111.949 74.727 112.009 74.5176 112.07 74.3083C112.102 74.5585 112.112 74.8028 111.963 75.0169H111.965Z" fill="#F8F2EA"/>
</g>
<rect x="14.26" y="15.5403" width="92.9628" height="86.6878" fill="url(#pattern0_8060_58258)"/>
<defs>
<filter id="filter0_d_8060_58258" x="0" y="0.0239258" width="125.849" height="123.977" filterUnits="userSpaceOnUse" color-interpolation-filters="sRGB">
<feFlood flood-opacity="0" result="BackgroundImageFix"/>
<feColorMatrix in="SourceAlpha" type="matrix" values="0 0 0 0 0 0 0 0 0 0 0 0 0 0 0 0 0 0 127 0" result="hardAlpha"/>
<feOffset dx="5" dy="4"/>
<feGaussianBlur stdDeviation="2"/>
<feComposite in2="hardAlpha" operator="out"/>
<feColorMatrix type="matrix" values="0 0 0 0 0 0 0 0 0 0 0 0 0 0 0 0 0 0 0.25 0"/>
<feBlend mode="normal" in2="BackgroundImageFix" result="effect1_dropShadow_8060_58258"/>
<feBlend mode="normal" in="SourceGraphic" in2="effect1_dropShadow_8060_58258" result="shape"/>
</filter>
<pattern id="pattern0_8060_58258" patternContentUnits="objectBoundingBox" width="1" height="1">
<use xlink:href="#image0_8060_58258" transform="matrix(0.000249688 0 0 0.000267762 0 -0.0270892)"/>
</pattern>
</defs>
</svg>
