<svg width="14" height="10" viewBox="0 0 14 10" fill="none" xmlns="http://www.w3.org/2000/svg">
<path d="M1.99313 1.04974C1.89311 1.08723 1.77497 1.11027 1.65671 1.13333C1.39406 1.18454 1.13083 1.23586 1.06413 1.44591C0.96208 1.77012 1.22318 2.09683 1.59707 2.27256C2.15142 2.53286 2.52794 2.93735 2.83269 3.37206C3.26052 3.98087 3.76138 4.55282 4.26226 5.12479C5.19914 6.19464 6.13608 7.26456 6.59523 8.57592L1.99313 1.04974ZM1.99313 1.04974C2.40793 0.895581 2.6342 1.16551 2.81244 1.41455M1.99313 1.04974L7.15196 7.02041C6.47528 5.78079 5.53199 4.68934 4.589 3.59825C3.97173 2.88402 3.35458 2.16994 2.81244 1.41455M12.1077 1.54664L12.1079 1.54669C12.1843 1.5729 12.2709 1.58964 12.368 1.60689C12.3772 1.60853 12.3866 1.61018 12.396 1.61185C12.4822 1.62705 12.5761 1.64361 12.6643 1.66877C12.763 1.69695 12.8639 1.73833 12.9501 1.80883C13.0383 1.88104 13.1052 1.97902 13.1416 2.10974C13.1416 2.10977 13.1416 2.10981 13.1416 2.10984L13.0212 2.14355C13.098 2.41863 12.9075 2.56232 12.7133 2.70876C12.6366 2.76666 12.5592 2.82499 12.4976 2.89204L12.1077 1.54664ZM12.1077 1.54664C11.7017 1.40794 11.4244 1.6227 11.2188 1.78193C11.1973 1.79859 11.1765 1.81465 11.1565 1.82962L12.1077 1.54664ZM7.8926 8.6452L8.0005 8.70813C8.10153 8.53522 8.21022 8.36813 8.32082 8.19808C8.37409 8.11619 8.4278 8.03361 8.48132 7.94938C8.72294 7.56968 9.02437 7.22334 9.33468 6.86719L9.33776 6.86365C9.64492 6.51112 9.96046 6.14896 10.2182 5.74623L10.2183 5.74617C10.7008 4.99114 11.3433 4.30823 11.9937 3.61692C12.1931 3.40495 12.3933 3.19218 12.5898 2.97631L11.2313 1.92966C9.58298 3.16288 8.3888 4.65493 7.62929 6.39156L7.51491 6.34136C7.5149 6.34137 7.5149 6.34137 7.51489 6.34138C7.49182 6.39379 7.47334 6.44354 7.45588 6.49057C7.40022 6.64045 7.35483 6.76267 7.20346 6.85518C6.64444 5.85957 5.91951 4.95965 5.17135 4.08309C5.00869 3.8925 4.84504 3.70315 4.68171 3.51415C4.06492 2.80046 3.45256 2.0919 2.91403 1.34155L2.81244 1.41455M7.8926 8.6452L8.00064 8.70787C7.83528 8.9924 7.61562 9.17365 7.35663 9.19598C7.09847 9.21825 6.84734 9.07849 6.62756 8.82639L6.62745 8.82626C6.61871 8.81621 6.60954 8.80619 6.59904 8.79472C6.59712 8.79263 6.59517 8.79049 6.59316 8.78829C6.58073 8.77469 6.56671 8.75924 6.55317 8.74299C6.52694 8.71153 6.49578 8.6694 6.47748 8.61809L6.47724 8.61741C6.13267 7.6333 5.51124 6.78341 4.81454 5.95524C4.60608 5.70743 4.39011 5.4608 4.17319 5.21308C3.67026 4.63874 3.16217 4.05851 2.73037 3.44405L2.73029 3.44393C2.43245 3.01907 2.07119 2.63337 1.54378 2.38572L1.54374 2.3857C1.34148 2.29064 1.16355 2.15212 1.04912 1.98592C0.933685 1.81825 0.879636 1.61592 0.944899 1.40857L0.944994 1.40827C1.01561 1.18588 1.23333 1.10367 1.4134 1.05776C1.4854 1.0394 1.56265 1.02434 1.63558 1.01012C1.65797 1.00576 1.67996 1.00148 1.70125 0.997199C1.79542 0.978292 1.8791 0.959068 1.94944 0.932705L1.94977 0.932584C2.19238 0.842415 2.39263 0.874581 2.5565 0.974064C2.71131 1.06804 2.82525 1.21749 2.91413 1.34169L2.81244 1.41455M7.8926 8.6452C7.58372 9.17667 7.13442 9.21741 6.72185 8.74416L10.113 5.67898C9.8602 6.07391 9.54974 6.43023 9.24059 6.78506C8.93137 7.13996 8.62346 7.49336 8.37589 7.8824C8.32394 7.96418 8.27104 8.04551 8.21816 8.12681C8.10662 8.29831 7.99513 8.46973 7.8926 8.6452Z" fill="black" stroke="black" stroke-width="0.25"/>
</svg>
