<svg width="23" height="23" viewBox="0 0 23 23" fill="none" xmlns="http://www.w3.org/2000/svg">
    <g clip-path="url(#clip0_14_41989)">
        <path
            d="M15.6849 4.8868L6.76038 5.02711C6.44724 5.03205 6.21609 5.27059 6.22099 5.58373L6.32563 12.238L4.13361 12.2725C3.89875 12.2762 3.7049 12.3967 3.66883 12.593C3.55447 12.7906 3.55819 13.0254 3.71721 13.1795L11.0672 22.4606C11.1865 22.5762 11.3443 22.652 11.5009 22.6495C11.6574 22.6471 11.7742 22.6061 11.8898 22.4868L11.9283 22.447L19.0214 12.8997C19.1756 12.7407 19.1719 12.5059 19.0513 12.312C18.9308 12.1181 18.7333 12.0038 18.5767 12.0062L16.3065 12.0419L16.2018 5.38761C16.1981 5.15279 15.9596 4.92164 15.6849 4.8868ZM15.2203 12.6854C15.2252 12.9986 15.4637 13.2298 15.7769 13.2248L17.4209 13.199L11.4402 21.2802L5.20834 13.391L6.85235 13.3652C7.1655 13.3602 7.39664 13.1217 7.39174 12.8086L7.2871 6.15427L15.0373 6.03242L15.2203 12.6854Z"
            fill="white" />
    </g>
    <defs>
        <clipPath id="clip0_14_41989">
            <rect width="16" height="16" fill="white"
                transform="translate(0 11.7648) rotate(-45.9007)" />
        </clipPath>
    </defs>
</svg>
    