<svg width="13" height="9" viewBox="0 0 13 9" fill="none" xmlns="http://www.w3.org/2000/svg">
<path d="M6.15196 6.02041C6.50683 5.87364 6.53304 5.61014 6.62929 5.39156C7.3888 3.65493 8.58298 2.16288 10.2313 0.929665C10.4601 0.758444 10.693 0.537132 11.0672 0.664935C11.414 0.783919 11.9025 0.717184 12.0212 1.14355C12.1284 1.52739 11.715 1.65541 11.4976 1.89204C10.6686 2.80273 9.75117 3.68041 9.11296 4.67898C8.60739 5.46893 7.87098 6.1044 7.37589 6.8824C7.21436 7.13667 7.04374 7.38654 6.8926 7.6452C6.58372 8.17667 6.13442 8.21741 5.72185 7.74416C5.67529 7.6906 5.61701 7.637 5.59523 7.57592C4.89061 5.56348 3.06076 4.11965 1.83269 2.37206C1.52794 1.93735 1.15142 1.53286 0.597075 1.27256C0.223182 1.09683 -0.0379201 0.770123 0.0641274 0.445913C0.160858 0.141291 0.670946 0.170496 0.993134 0.0497435C1.40793 -0.104419 1.6342 0.165507 1.81244 0.414551C3.18278 2.3239 5.03232 3.96933 6.15196 6.02041Z" fill="#F8F2EA"/>
</svg>
