<svg width="12" height="16" viewBox="0 0 12 16" fill="none" xmlns="http://www.w3.org/2000/svg">
<path d="M0.498307 14.5583C0.554739 14.6791 0.591944 14.8222 0.629187 14.9655C0.7119 15.2837 0.794799 15.6027 1.08894 15.6792C1.54291 15.7962 1.98412 15.4716 2.21102 15.0132C2.5471 14.3335 3.09098 13.8669 3.67996 13.4869C4.50479 12.9535 5.27525 12.332 6.04573 11.7106C7.48692 10.5482 8.92818 9.38568 10.7255 8.79884L0.498307 14.5583ZM0.498307 14.5583C0.266094 14.0574 0.630157 13.7764 0.967419 13.5542L0.498307 14.5583ZM0.901349 2.29671C0.755807 2.71187 1.00324 2.9795 1.23524 3.23043C1.25901 3.25614 1.28262 3.28168 1.30562 3.30718M0.901349 2.29671L1.21352 3.3897L1.30562 3.30718M0.901349 2.29671C0.942294 2.18045 0.96344 2.05157 0.984609 1.92256C1.0407 1.58067 1.09696 1.23783 1.5222 1.12633M0.901349 2.29671L8.36899 8.10376M1.30562 3.30718L1.21354 3.38972L1.30562 3.30718ZM8.36899 8.10376C8.40591 8.08474 8.44293 8.06588 8.48006 8.04717L8.43331 8.21088C8.41301 8.17122 8.39154 8.13571 8.36899 8.10376ZM8.36899 8.10376C7.00829 8.80458 5.78836 9.70862 4.59942 10.6431C4.343 10.8446 4.08817 11.0474 3.83369 11.25C2.87173 12.0156 1.91487 12.7772 0.896905 13.4496C0.729492 13.5598 0.533507 13.6978 0.413916 13.8822C0.352539 13.9769 0.309819 14.0857 0.301437 14.2103C0.293058 14.3348 0.319504 14.4674 0.385024 14.6088L0.385185 14.6091C0.425473 14.6954 0.45609 14.7977 0.486489 14.9117C0.493409 14.9377 0.500356 14.9644 0.50742 14.9916C0.530365 15.0799 0.554556 15.173 0.583093 15.2597C0.656852 15.484 0.778232 15.7268 1.05988 15.8L1.06015 15.8001C1.59719 15.9385 2.08487 15.5523 2.32336 15.0705L2.32338 15.0704C2.64566 14.4187 3.16912 13.9667 3.74938 13.5923L3.7495 13.5922C4.57985 13.0552 5.35846 12.4272 6.13128 11.8039C6.46543 11.5344 6.79851 11.2658 7.13422 11.0057C8.25168 10.1402 9.40784 9.36134 10.7666 8.91768L10.7672 8.91748C10.8281 8.89724 10.8796 8.86277 10.9211 8.83096C10.9427 8.8144 10.9707 8.79085 10.9948 8.77061C11.0097 8.75814 11.0231 8.74692 11.0325 8.73937L11.0326 8.73927C11.3646 8.47274 11.5446 8.17055 11.5028 7.86098C11.461 7.5522 11.2065 7.29712 10.8165 7.1079C10.5712 6.9883 10.3329 6.8588 10.0916 6.72769C9.9759 6.66483 9.85955 6.60161 9.74143 6.53893C9.20052 6.25142 8.70422 5.89036 8.1973 5.52131L8.19372 5.5187C7.69033 5.15221 7.1765 4.77812 6.60991 4.47522L6.60984 4.47518C5.53735 3.90263 4.55742 3.13273 3.56942 2.35649C3.26723 2.11907 2.96429 1.88106 2.65771 1.64792C2.58333 1.59079 2.51456 1.5187 2.44058 1.43769C2.43107 1.42729 2.42145 1.41669 2.41171 1.40597C2.34813 1.33598 2.27944 1.26037 2.20587 1.19481C2.11971 1.11803 2.01977 1.04824 1.89886 1.00942C1.77618 0.970027 1.64065 0.965316 1.48804 1.00544C1.48801 1.00545 1.48798 1.00546 1.48795 1.00546L1.5222 1.12633M1.5222 1.12633C1.90008 1.02694 2.10777 1.25545 2.31942 1.4883C2.40311 1.58038 2.48742 1.67313 2.58311 1.74657L1.5222 1.12633Z" fill="#F8F2EA" stroke="#F8F2EA" stroke-width="0.25"/>
</svg>
