<svg width="20" height="16" viewBox="0 0 20 16" fill="none" xmlns="http://www.w3.org/2000/svg">
<path d="M18.464 1.58953C17.4676 0.564738 16.1425 0 14.7331 0C13.3238 0 11.9987 0.564738 11.0022 1.58953L10.0006 2.61966L8.99905 1.58953C8.00264 0.564738 6.67755 0 5.26818 0C3.85881 0 2.53372 0.564738 1.53731 1.58953C0.874112 2.27162 0.397623 3.17173 0.160351 4.19186C-0.360221 6.43014 0.407347 8.7751 2.1629 10.3106L8.62045 15.4626C9.01007 15.8213 9.50471 16 10 16C10.4953 16 10.9899 15.8206 11.3795 15.4626L17.8157 10.3286L17.8371 10.3106C19.5927 8.7751 20.3602 6.4308 19.8396 4.19186C19.6024 3.17173 19.1265 2.27162 18.4627 1.58953H18.464ZM17.0656 9.35517L10.6224 14.4951L10.5841 14.5285C10.2522 14.8425 9.75106 14.8425 9.41914 14.5285L9.40034 14.5111L2.93695 9.35584C1.55805 8.14302 0.929864 6.23145 1.33699 4.48123C1.52239 3.68446 1.88738 2.98837 2.39304 2.46831C3.16126 1.67821 4.18295 1.24282 5.26947 1.24282C6.356 1.24282 7.37769 1.67821 8.14591 2.46831L9.38283 3.74047C9.54815 3.91049 9.76792 4.0045 10.0013 4.0045C10.2347 4.0045 10.4544 3.91116 10.6198 3.74113L11.8567 2.46898C12.6249 1.67888 13.6466 1.24349 14.7331 1.24349C15.8196 1.24349 16.8413 1.67888 17.6096 2.46898C18.1152 2.98904 18.4802 3.68513 18.6656 4.48189C19.0727 6.23145 18.4445 8.14368 17.0656 9.3565V9.35517Z" fill="#0A0A0A"/>
</svg>
