<svg width="30" height="18" viewBox="0 0 30 18" fill="none" xmlns="http://www.w3.org/2000/svg">
<path d="M0.317344 6.25366V6.26402C-0.351083 8.67856 0.255164 11.1449 0.185212 13.5905C0.161895 14.5957 0.807005 14.7097 1.45212 14.6683C3.57398 14.5336 5.68808 14.3263 7.76332 13.6838C8.09753 13.6631 8.42397 13.6424 8.75819 13.6216C10.1728 13.4765 11.5873 13.3211 13.0019 13.176C13.0175 13.0828 13.0486 12.9999 13.0874 12.9273H13.0952C14.1289 13.0102 15.1316 12.7201 16.1498 12.5646C18.2094 12.2434 18.3027 12.3574 18.6292 15.1761C18.8546 17.1139 19.3131 17.4248 20.6811 16.5854C20.9687 16.4092 21.2407 16.1605 21.5205 15.9533C22.6864 15.145 23.8522 14.347 25.0181 13.5387C25.0958 13.7563 25.1735 13.9843 25.2435 14.2019C26.6192 13.3107 28.2592 12.948 29.0364 10.8548C30.1945 10.233 30.3344 9.3936 29.3162 8.35732C26.7824 5.76661 24.3341 2.97901 21.264 1.51785C20.6422 1.13443 20.0126 0.751007 19.3909 0.367583C17.4633 -0.78269 17.8053 1.2277 17.984 2.38833C18.3105 4.49199 17.9219 5.45573 16.2275 5.19665C16.0487 5.16557 15.8699 5.21738 15.6834 5.28992C15.5513 5.31065 15.4269 5.3521 15.3026 5.41428L15.1704 5.34174L15.0461 5.44536C10.336 5.12412 5.64145 5.76661 0.931365 5.75625C0.72151 5.75625 0.519427 6.0775 0.317344 6.25366ZM27.342 9.01017C27.4586 9.26924 27.4742 9.54904 27.2643 9.87029C27.14 9.87029 27.0156 9.89102 26.8912 9.92211C25.1658 10.6579 23.7201 12.2019 21.9868 12.917C21.3262 13.1968 20.6655 13.4558 20.479 12.2019C20.0981 9.66304 18.8468 9.50759 17.269 9.91174C16.3285 10.1501 15.3492 10.1812 14.4398 10.6579C12.6988 11.2589 10.9111 11.4662 9.12349 11.5283C8.92141 11.5698 8.7271 11.632 8.54056 11.7149C8.01204 11.9739 7.47574 12.1294 6.93167 12.2226C6.613 12.2641 6.29433 12.2952 5.97566 12.347C5.27614 12.4195 4.56885 12.4299 3.86156 12.5024C3.66725 12.5439 3.47294 12.5957 3.28641 12.6786C1.77856 13.1139 1.54538 11.9739 1.5687 10.3366C1.59202 8.75111 1.62311 7.38321 3.27086 7.50756C5.19842 7.64228 7.13375 7.52829 9.05354 7.70446C10.7324 7.6941 12.419 7.91172 14.0978 7.59047C15.015 6.95834 16.1653 7.5801 17.1135 7.06196C17.7353 7.07233 18.3493 7.08269 18.9711 7.09305C19.8572 7.10341 20.0826 6.54382 19.7406 5.49718C19.795 5.34174 19.7795 5.19665 19.694 5.0723C20.1681 4.6267 20.3469 3.84949 20.7122 3.27953C20.7199 3.33135 20.7355 3.3728 20.751 3.42462C22.733 4.75106 24.5517 6.41947 26.4093 8.0257C26.7902 8.25369 27.0855 8.60602 27.342 9.01017ZM18.6058 3.67332V3.71477C18.5981 3.70441 18.5981 3.68368 18.6058 3.67332ZM17.7198 6.07749C17.7198 6.06713 17.712 6.06713 17.712 6.05677C17.7198 6.05677 17.7276 6.05677 17.7353 6.05677C17.7353 6.06713 17.7276 6.06713 17.7198 6.07749Z" fill="#F8F2EA"/>
</svg>
