<svg width="18" height="9" viewBox="0 0 18 9" fill="none" xmlns="http://www.w3.org/2000/svg">
<path d="M0.190407 3.2981V3.30358C-0.21065 4.58187 0.153098 5.88758 0.111127 7.18233C0.097137 7.71449 0.484203 7.77484 0.871269 7.75289C2.14439 7.68157 3.41285 7.57185 4.65799 7.2317C4.85852 7.22073 5.05438 7.20976 5.25491 7.19878C6.10366 7.12198 6.95241 7.03968 7.80116 6.96288C7.81048 6.9135 7.82914 6.86961 7.85245 6.83121H7.85712C8.47736 6.8751 9.07894 6.72149 9.68985 6.63919C10.9257 6.46912 10.9816 6.52947 11.1775 8.02171C11.3127 9.04763 11.5879 9.21222 12.4086 8.76784C12.5812 8.67457 12.7444 8.5429 12.9123 8.43318C13.6118 8.00525 14.3113 7.58282 15.0108 7.15489C15.0575 7.2701 15.1041 7.3908 15.1461 7.50601C15.9715 7.0342 16.9555 6.84218 17.4219 5.73397C18.1167 5.4048 18.2006 4.96041 17.5897 4.41179C16.0695 3.04025 14.6005 1.56446 12.7584 0.790903C12.3853 0.587914 12.0076 0.384926 11.6345 0.181936C10.478 -0.427032 10.6832 0.637291 10.7904 1.25175C10.9863 2.36544 10.7531 2.87566 9.73649 2.7385C9.62923 2.72205 9.52197 2.74948 9.41005 2.78788C9.33077 2.79885 9.25615 2.8208 9.18154 2.85372L9.10226 2.81531L9.02764 2.87017C6.20159 2.7001 3.38487 3.04025 0.558819 3.03476C0.432906 3.03476 0.311656 3.20483 0.190407 3.2981ZM16.4052 4.75742C16.4752 4.89458 16.4845 5.04271 16.3586 5.21278C16.284 5.21278 16.2094 5.22375 16.1347 5.24021C15.0995 5.62973 14.2321 6.44718 13.1921 6.82572C12.7957 6.97385 12.3993 7.11101 12.2874 6.44718C12.0589 5.10306 11.3081 5.02076 10.3614 5.23472C9.79711 5.36091 9.20952 5.37737 8.66389 5.62973C7.61928 5.94793 6.54669 6.05766 5.47409 6.09057C5.35284 6.11252 5.23626 6.14544 5.12434 6.18932C4.80722 6.32648 4.48544 6.40877 4.159 6.45815C3.9678 6.48009 3.7766 6.49655 3.5854 6.52398C3.16569 6.56239 2.74131 6.56787 2.31694 6.60627C2.20035 6.62822 2.08377 6.65565 1.97184 6.69954C1.06713 6.92996 0.92723 6.32648 0.941221 5.45966C0.955211 4.62027 0.973866 3.89609 1.96252 3.96193C3.11905 4.03325 4.28025 3.9729 5.43212 4.06616C6.43943 4.06068 7.4514 4.17589 8.4587 4.00582C9.00899 3.67116 9.69918 4.00033 10.2681 3.72602C10.6412 3.73151 11.0096 3.73699 11.3827 3.74248C11.9143 3.74796 12.0496 3.45171 11.8444 2.8976C11.877 2.81531 11.8677 2.7385 11.8164 2.67267C12.1009 2.43676 12.2081 2.0253 12.4273 1.72356C12.432 1.75099 12.4413 1.77293 12.4506 1.80036C13.6398 2.5026 14.731 3.38587 15.8456 4.23624C16.0741 4.35693 16.2513 4.54346 16.4052 4.75742ZM11.1635 1.93203V1.95398C11.1588 1.94849 11.1588 1.93752 11.1635 1.93203ZM10.6319 3.20483C10.6319 3.19934 10.6272 3.19934 10.6272 3.19386C10.6319 3.19386 10.6365 3.19386 10.6412 3.19386C10.6412 3.19934 10.6365 3.19934 10.6319 3.20483Z" fill="#F8F2EA"/>
</svg>
