<svg width="24" height="13" viewBox="0 0 24 13" fill="none" xmlns="http://www.w3.org/2000/svg">
    <path d="M2.31481 5.16039C4.07873 5.2069 5.50366 5.29327 6.4517 5.35971C6.4517 5.35971 9.6463 5.57897 13.3465 5.09395C13.6453 5.05409 14.2658 4.96107 14.7829 4.42954C15.1621 4.03754 15.3345 3.57245 15.415 3.30005C15.6046 2.98777 15.7999 2.68215 15.9895 2.36987C16.6962 2.62235 17.2421 2.9014 17.5983 3.10072C19.2473 4.01096 20.4309 5.2069 21.6203 6.42277C21.8961 6.70847 22.1202 6.94101 22.2523 7.08718C21.4881 7.68515 20.7182 8.28311 19.954 8.88108C18.6153 9.43254 17.2708 9.99065 15.9321 10.5421C15.7022 9.79132 15.4724 9.0339 15.2426 8.28311C13.4212 8.30305 11.9618 8.43593 10.9908 8.54888C8.83041 8.80135 7.80768 9.10034 5.36002 9.41261C3.79719 9.61193 2.5274 9.69831 1.74024 9.74481C1.68278 8.416 1.62533 7.08718 1.56787 5.75836C1.81494 5.55904 2.06775 5.35971 2.31481 5.16039Z" fill="#F8F2EA"/>
    <path d="M0.984594 4.86978L1.08382 4.79476C1.1096 4.77527 1.13856 4.74926 1.17549 4.71455C1.18246 4.70799 1.18986 4.70099 1.19759 4.69367C1.22717 4.66567 1.26159 4.63309 1.2953 4.60376C1.36928 4.53939 1.50883 4.42526 1.6885 4.42526H1.68898C3.08879 4.42793 4.48585 4.36268 5.88962 4.29711C6.22419 4.28149 6.55914 4.26584 6.8946 4.2511C8.60449 4.17593 10.3236 4.12436 12.0483 4.22124L12.0681 4.20688L12.1883 4.12007L12.3221 4.18378L12.323 4.18421C12.3919 4.161 12.4624 4.14352 12.5357 4.13211C12.6748 4.08632 12.8464 4.04172 13.0308 4.06891C13.6291 4.14791 13.8805 4.02394 13.9964 3.84719C14.0627 3.74606 14.1087 3.59607 14.1199 3.37682C14.1311 3.15823 14.107 2.88744 14.0484 2.55996L14.0484 2.55965C14.046 2.54617 14.0435 2.53243 14.041 2.51844C14.0097 2.34285 13.9716 2.12888 13.952 1.91914C13.9312 1.69749 13.9275 1.4495 13.9914 1.23968C14.0243 1.13166 14.0784 1.02267 14.1674 0.933451C14.2589 0.841655 14.3756 0.782718 14.5116 0.76032C14.7686 0.718001 15.0809 0.807575 15.4494 0.99831L15.4524 0.999863L15.4524 0.999883C15.6819 1.12262 15.9129 1.24538 16.1442 1.36832C16.3717 1.48927 16.5996 1.61039 16.8262 1.73153C18.8463 2.56846 20.5095 4.06466 22.1324 5.52451C22.368 5.73644 22.6027 5.94761 22.8376 6.15588C23.2278 6.50046 23.477 6.87948 23.419 7.27909C23.3648 7.65268 23.0594 7.92589 22.6561 8.12927C22.3414 8.80986 21.8684 9.21797 21.3562 9.5213C21.093 9.6772 20.8174 9.80657 20.5525 9.92938C20.5362 9.93692 20.52 9.94444 20.5038 9.95194C20.2529 10.0681 20.0126 10.1794 19.7834 10.3082L19.5283 10.4515L19.4266 10.1771C19.4087 10.1289 19.3902 10.0799 19.3711 10.0306C19.024 10.2389 18.6769 10.4463 18.33 10.6535L18.3298 10.6536C17.8999 10.9105 17.4704 11.1671 17.0409 11.4253C16.9717 11.4699 16.9048 11.5164 16.8338 11.5658C16.8042 11.5864 16.7738 11.6075 16.7423 11.6292C16.6379 11.7009 16.5249 11.7757 16.4056 11.8391M0.984594 4.86978L16.2883 11.6183M0.984594 4.86978V4.96244C0.735053 5.76794 0.726584 6.57396 0.770237 7.35597C0.784326 7.60835 0.803468 7.85553 0.822367 8.09957C0.864034 8.63759 0.904518 9.16034 0.887047 9.68995L0.887006 9.69151C0.88189 9.88279 0.91286 10.0522 0.986424 10.1958C1.06136 10.342 1.17257 10.4458 1.301 10.5153C1.54383 10.6465 1.84446 10.6523 2.08737 10.6388M0.984594 4.86978L2.07346 10.3892M16.4056 11.8391L16.2883 11.6183M16.4056 11.8391C16.4056 11.8391 16.4057 11.8391 16.4057 11.839L16.2883 11.6183M16.4056 11.8391C16.1457 11.9774 15.9107 12.0786 15.7001 12.1234C15.4859 12.169 15.2733 12.1609 15.0854 12.0492C14.9017 11.94 14.7843 11.7569 14.7031 11.5454C14.6217 11.3333 14.5662 11.0654 14.5236 10.748L14.5236 10.7478C14.4629 10.2928 14.4149 9.96389 14.3547 9.72217C14.2938 9.4774 14.2297 9.36496 14.1663 9.30674C14.1106 9.25559 14.0223 9.21626 13.8265 9.21092C13.626 9.20545 13.3568 9.23613 12.9721 9.28818L12.9714 9.28827C12.7872 9.31265 12.5977 9.34369 12.4041 9.37539C11.9043 9.45726 11.3775 9.54355 10.8472 9.53089M16.2883 11.6183C15.277 12.1565 14.938 11.9572 14.7714 10.7147C14.5301 8.90755 14.4611 8.83447 12.9385 9.04043C12.738 9.06699 12.5382 9.09968 12.3386 9.13234C11.7892 9.22225 11.241 9.31196 10.6805 9.27297M10.8472 9.53089L10.857 9.47961C10.862 9.45398 10.8722 9.42907 10.8874 9.40436L10.6805 9.27652V9.27297M10.8472 9.53089C10.7859 9.52943 10.7245 9.52664 10.6631 9.52237L10.6686 9.4434L10.6747 9.35558V9.27297M10.8472 9.53089L10.8215 9.66474L10.6337 9.68145C10.1114 9.72791 9.58902 9.77603 9.06619 9.8242L9.06591 9.82422C8.54311 9.87239 8.01987 9.92059 7.49655 9.96714L7.48783 9.96792L7.48783 9.96777L7.12026 9.98769L6.77845 10.0062M10.6805 9.27297L10.6803 9.27638M10.6805 9.27297H10.6747M10.6803 9.27638L10.6115 9.43243C10.623 9.37263 10.646 9.31948 10.6747 9.27297M10.6803 9.27638L10.6747 9.27297M10.6803 9.27638L6.73895 9.75799M6.77845 10.0062C6.78689 10.004 6.79534 10.0017 6.80379 9.99944L6.73895 9.75799M6.77845 10.0062L6.75238 10.0076L6.73895 9.75799M6.77845 10.0062C5.22613 10.4199 3.65025 10.5527 2.08737 10.6388M6.73895 9.75799C5.20486 10.1699 3.64203 10.3028 2.07346 10.3892M2.08737 10.6388L2.07346 10.3892M2.08737 10.6388C2.08732 10.6388 2.08726 10.6388 2.08721 10.6388L2.07346 10.3892M19.5628 9.91551L19.661 10.0902L19.8954 10.0033C19.8915 9.99272 19.8875 9.98209 19.8835 9.97143C20.0522 9.88555 20.2243 9.80583 20.3965 9.7261C21.2105 9.34916 22.0248 8.97213 22.4649 7.94416C23.321 7.54551 23.4244 7.00734 22.6717 6.34293L19.5628 9.91551ZM20.8261 7.10187L20.8089 7.1056L20.7924 7.11171C20.1389 7.35337 19.5413 7.72391 18.9687 8.07892L18.9367 8.09876C18.3464 8.46473 17.781 8.8121 17.1693 9.03093L17.1673 9.03166C17.0436 9.0771 16.9345 9.11609 16.8339 9.14045C16.7325 9.16501 16.6605 9.16918 16.6096 9.15991C16.5678 9.15228 16.5342 9.13505 16.5007 9.09151C16.4618 9.04087 16.4159 8.94434 16.3853 8.76562L16.3852 8.76528C16.2373 7.9102 15.9067 7.38525 15.3916 7.14034C14.8978 6.90559 14.3015 6.96449 13.712 7.09542C13.4967 7.14275 13.2868 7.17559 13.0684 7.20976C12.9389 7.23002 12.8064 7.25075 12.668 7.27525C12.3138 7.33795 11.9463 7.42217 11.5869 7.58315C10.3342 7.9561 9.04228 8.08676 7.73691 8.12614L7.71865 8.12669L7.70066 8.12989C7.53594 8.15919 7.37683 8.20329 7.22361 8.26234L7.22355 8.26221L7.21571 8.26554C6.84968 8.42116 6.47588 8.51584 6.09173 8.57325C6.01951 8.58137 5.94501 8.58908 5.86926 8.59692C5.71153 8.61324 5.54835 8.63013 5.38888 8.65246C5.13797 8.67487 4.88483 8.68784 4.62546 8.70106L4.62038 8.70132C4.36209 8.71448 4.09766 8.72796 3.83247 8.75155L3.82073 8.75259L3.80914 8.75474C3.664 8.78159 3.50859 8.81671 3.35475 8.87445C3.10691 8.93489 2.93734 8.933 2.82231 8.90256C2.7134 8.87374 2.63847 8.81577 2.58007 8.72538C2.51709 8.62788 2.4699 8.48623 2.44137 8.2923C2.41309 8.10004 2.4054 7.87302 2.40961 7.61619C2.41396 7.35994 2.4186 7.12574 2.44086 6.91469C2.46317 6.70305 2.50167 6.53272 2.5642 6.40141C2.62405 6.27571 2.70509 6.18687 2.82172 6.12853C2.94327 6.06773 3.12494 6.02947 3.40162 6.04758L3.40283 6.04765C4.06716 6.08792 4.73225 6.09387 5.38936 6.09975C5.44469 6.10025 5.49996 6.10074 5.55517 6.10125C6.26868 6.1079 6.9731 6.11787 7.6729 6.17356L7.68347 6.1744L7.69408 6.17435C8.06113 6.17238 8.42017 6.18307 8.78435 6.19392C9.03692 6.20144 9.29197 6.20904 9.55387 6.21253C10.1815 6.22091 10.8206 6.20445 11.4626 6.09789L11.5093 6.09014L11.55 6.06585C11.8194 5.90477 12.131 5.89678 12.5229 5.90439C12.5452 5.90482 12.5678 5.90531 12.5908 5.90581C12.9286 5.91316 13.3291 5.92187 13.7027 5.76319L14.334 5.77236L15.0206 5.78232L15.0217 5.78234C15.3811 5.78598 15.7112 5.69035 15.8698 5.39234C16.0045 5.13906 15.9656 4.82166 15.8557 4.50084C15.8695 4.43295 15.8702 4.3645 15.8567 4.29799C15.9969 4.14573 16.0991 3.97081 16.1853 3.81021C16.2144 3.75603 16.2415 3.704 16.2676 3.65394C16.299 3.59368 16.3289 3.53626 16.359 3.48137C17.5126 4.16593 18.5925 4.98379 19.6883 5.81357C19.9155 5.98567 20.1434 6.15828 20.3728 6.33032L20.3893 6.34269L20.4076 6.35219C20.6365 6.47103 20.8242 6.65767 20.9982 6.89229C21.0201 6.93898 21.0265 6.9754 21.0246 7.0066C21.0235 7.02361 21.0196 7.04501 21.0089 7.07131C20.9457 7.07831 20.8846 7.08918 20.8261 7.10187Z" fill="black" stroke="#F8F2EA" stroke-width="0.5"/>
    </svg>
    