<svg width="161" height="155" viewBox="0 0 161 155" fill="none" xmlns="http://www.w3.org/2000/svg">
<path d="M7.35193 8.12667C7.12894 8.12667 6.91452 8.04193 6.74298 7.88093L5.20772 6.36408C4.87322 6.0336 4.87322 5.49974 5.20772 5.16925C5.54222 4.83877 6.08256 4.83877 6.41706 5.16925L7.95231 6.68609C8.28681 7.01658 8.28681 7.55044 7.95231 7.88093C7.78935 8.05041 7.56636 8.12667 7.35193 8.12667Z" fill="#181818"/>
<path d="M5.03621 13.4485H2.85769C2.38596 13.4485 2 13.0671 2 12.6011C2 12.135 2.38596 11.7537 2.85769 11.7537H5.03621C5.50793 11.7537 5.89389 12.135 5.89389 12.6011C5.89389 13.0671 5.50793 13.4485 5.03621 13.4485Z" fill="#181818"/>
<path d="M12.8068 5.83875C12.3608 5.83875 11.9834 5.49979 11.9491 5.05067L11.7947 2.90675C11.7604 2.44068 12.1207 2.03393 12.5924 2.00004C13.0727 1.96614 13.4758 2.32205 13.5101 2.78812L13.6645 4.93203C13.6988 5.3981 13.3386 5.80486 12.8668 5.83875C12.8497 5.83875 12.824 5.83875 12.8068 5.83875Z" fill="#181818"/>
<path fill-rule="evenodd" clip-rule="evenodd" d="M128 106H139.196C145.138 106 149.99 101.014 150 94.9071V13.1028C150 6.99628 145.138 2 139.196 2H12.8036C6.86163 2 2 6.99628 2 13.1028V94.8971C2 101.004 6.86163 106 12.8036 106H91.25L128 142V106Z" fill="#F8F2EA"/>
<g filter="url(#filter0_d_2246_630)">
<path fill-rule="evenodd" clip-rule="evenodd" d="M113 91H135V17H17V91H97.3728L113 106.308V91ZM128 142L91.25 106H12.8036C6.86163 106 2 101.004 2 94.8971V13.1028C2 6.99628 6.86163 2 12.8036 2H139.196C145.138 2 150 6.99628 150 13.1028V94.9071C149.99 101.014 145.138 106 139.196 106H128V142Z" fill="#F8F2EA"/>
<path d="M113 90H112V91V103.929L98.0726 90.2856L97.781 90H97.3728H18V18H134V90H113ZM127.3 142.714L129 144.379V142V107H139.196C145.716 107 150.99 101.54 151 94.9086V94.9071V13.1028C151 6.46992 145.716 1 139.196 1H12.8036C6.28377 1 1 6.46993 1 13.1028V94.8971C1 101.53 6.28377 107 12.8036 107H90.8418L127.3 142.714Z" stroke="#181818" stroke-width="2"/>
</g>
<path fill-rule="evenodd" clip-rule="evenodd" d="M120.549 98.0441H132.402C137.686 98.0441 142 93.7817 142.009 88.5617V18.6344C142.009 13.4144 137.686 9.14355 132.402 9.14355H20.02C14.7366 9.14355 10.4139 13.4144 10.4139 18.6344V88.5533C10.4139 93.7732 14.7366 98.0441 20.02 98.0441H94.9195L120.549 123.373V98.0441Z" fill="#181818"/>
<path d="M39.4717 23.2335L39.4715 23.2337C33.2458 27.3401 29.0168 33.5979 27.5493 40.8473C26.0817 48.0971 27.5674 55.4784 31.724 61.6305C32.0723 62.1518 32.6455 62.4196 33.2112 62.4196C33.552 62.4196 33.8998 62.3261 34.2115 62.1136C35.0194 61.5721 35.2495 60.4746 34.6978 59.657L34.6977 59.6569C31.0757 54.2932 29.7826 47.8622 31.0596 41.5369C32.3368 35.2112 36.0241 29.758 41.4543 26.1786L41.4543 26.1786L41.4569 26.1768C42.2665 25.6357 42.4974 24.5371 41.9452 23.7188L41.9452 23.7188L41.9433 23.716C41.395 22.9152 40.2916 22.6935 39.4717 23.2335Z" fill="#F8F2EA" stroke="#181818"/>
<path d="M45.5904 29.1168L45.5904 29.1168C46.1426 29.9351 45.9117 31.0337 45.1021 31.5747L45.0997 31.5763L45.0997 31.5763C41.1271 34.1985 38.4263 38.1859 37.4923 42.8164L37.4923 42.8166C36.5584 47.4382 37.5081 52.1491 40.1527 56.0725L45.5904 29.1168ZM45.5904 29.1168L45.5885 29.114M45.5904 29.1168L45.5885 29.114M45.5885 29.114C45.0402 28.3131 43.9368 28.0914 43.1169 28.6315C38.3492 31.7718 35.1064 36.5637 33.982 42.1184C32.8574 47.6738 34.0003 53.3262 37.1788 58.0375C37.5271 58.5588 38.1003 58.8266 38.6661 58.8266C39.007 58.8266 39.3506 58.7333 39.6579 58.5348L39.6579 58.5348M45.5885 29.114L39.6579 58.5348M39.6579 58.5348L39.6644 58.5305M39.6579 58.5348L39.6644 58.5305M39.6644 58.5305C40.4739 57.9895 40.7048 56.891 40.1528 56.0727L39.6644 58.5305Z" fill="#F8F2EA" stroke="#181818"/>
<path d="M46.7535 34.0123L46.7532 34.0125C43.4436 36.1954 41.1959 39.5212 40.4146 43.3809C39.6331 47.2328 40.4241 51.1651 42.6337 54.436C42.9821 54.9573 43.5552 55.2251 44.1209 55.2251C44.455 55.2251 44.8024 55.1306 45.1129 54.919C45.9206 54.3774 46.1506 53.28 45.5989 52.4625C43.9239 49.98 43.3254 46.9979 43.9163 44.0705C44.5072 41.1433 46.2216 38.6136 48.7359 36.9575L48.7359 36.9575L48.7387 36.9556C49.5482 36.4145 49.7791 35.3159 49.227 34.4977L49.227 34.4976L49.2251 34.4948C48.6767 33.694 47.5733 33.4723 46.7535 34.0123Z" fill="#F8F2EA" stroke="#181818"/>
<path d="M106.565 76.9646L106.563 76.9654C105.694 77.4124 105.344 78.4758 105.799 79.3515C106.113 79.9596 106.745 80.3082 107.384 80.3082C107.646 80.3082 107.936 80.2531 108.203 80.1052C114.843 76.7146 119.758 70.9685 122.029 63.9289C124.3 56.8867 123.662 49.3842 120.229 42.817C119.775 41.9444 118.704 41.6067 117.827 42.0514L117.827 42.0514L117.825 42.0526C116.955 42.4998 116.606 43.5637 117.061 44.4396L117.062 44.441C120.061 50.1691 120.615 56.7076 118.633 62.8507C116.65 68.9939 112.366 74.0077 106.565 76.9646Z" fill="#F8F2EA" stroke="#181818"/>
<path d="M103.561 71.2116L103.563 71.2109C107.811 69.042 110.946 65.3753 112.397 60.8846C113.848 56.3857 113.44 51.6097 111.246 47.4151L111.246 47.414C110.791 46.5381 111.14 45.4741 112.01 45.027L112.012 45.0257L112.012 45.0257C112.889 44.5811 113.96 44.9187 114.414 45.7911L103.561 71.2116ZM103.561 71.2116C102.692 71.6587 102.342 72.7227 102.798 73.5986L103.241 73.368M103.561 71.2116L105.187 74.3671M105.187 74.3671L105.187 74.3671C104.926 74.4959 104.652 74.5544 104.382 74.5544C103.743 74.5544 103.111 74.2056 102.797 73.5973L103.241 73.368M105.187 74.3671L105.193 74.364M105.187 74.3671L105.193 74.364M103.241 73.368C103.464 73.8002 103.919 74.0544 104.382 74.0544C104.579 74.0544 104.776 74.012 104.965 73.9188L103.241 73.368ZM105.193 74.364C110.284 71.7622 114.054 67.3618 115.793 61.9628M105.193 74.364L115.793 61.9628M115.793 61.9628C117.533 56.5726 117.04 50.8245 114.414 45.7915L115.793 61.9628Z" fill="#F8F2EA" stroke="#181818"/>
<path d="M100.552 65.4571L100.551 65.4577C99.6818 65.9048 99.332 66.9683 99.7867 67.8441C100.101 68.452 100.733 68.8005 101.371 68.8005C101.634 68.8005 101.924 68.7454 102.19 68.5975C109.487 64.8688 112.364 55.9777 108.59 48.7567L108.59 48.7552C108.135 47.8922 107.064 47.5559 106.188 48.0001L106.188 48.0001L106.186 48.0013C105.317 48.4485 104.967 49.5124 105.422 50.3883L105.422 50.3889C106.81 53.0497 107.064 56.0719 106.145 58.9187C105.225 61.7652 103.24 64.0847 100.552 65.4571Z" fill="#F8F2EA" stroke="#181818"/>
<path d="M95.4359 45.3721C95.3687 47.3301 95.0114 49.2678 94.3756 51.1232C93.7607 52.9409 93.0177 54.7131 92.3848 56.5211C91.6039 58.7457 90.8017 60.9817 90.5206 63.3446C90.2239 65.6162 90.2239 67.9161 90.5206 70.1877C90.6521 71.1218 90.7326 72.0624 90.8494 72.9981C90.8726 73.2572 90.8498 73.5183 90.782 73.7695C90.6472 74.3456 90.0093 74.6646 89.4093 74.4823C88.7729 74.2839 88.1578 74.0239 87.573 73.706C83.0555 71.2943 78.5923 68.7865 74.106 66.3178C69.3995 63.7303 64.6962 61.1363 60.0324 58.4739C57.4991 57.0289 55.0431 55.4601 52.5575 53.9385C51.9624 53.5723 51.8999 53.2745 52.1087 52.6773C52.3388 52.0263 52.8501 51.7009 53.46 51.447C54.323 51.0987 55.2256 50.866 56.11 50.5878C58.2076 49.927 59.9979 48.7619 61.673 47.4014C63.0704 46.2622 64.4447 45.1068 65.745 43.8619C66.5264 43.0862 67.2671 42.2715 67.9643 41.4208C69.1579 39.981 70.4364 38.6122 71.793 37.3215C74.1751 35.1148 76.9664 33.6404 80.0455 32.6526C81.433 32.2083 82.8533 32.1644 84.2983 32.3092C85.837 32.472 87.2278 33.0383 88.5364 33.795C91.1864 35.3296 93.2544 37.4094 94.4676 40.2426C95.0052 41.4924 95.3636 43.4013 95.4359 45.3721ZM94.6139 45.403C94.5942 45.1215 94.5794 44.8399 94.558 44.5584C94.4134 42.6951 94.0566 40.8643 93.141 39.2239C90.6751 34.8203 86.682 32.9944 81.8144 33.3654C79.983 33.5054 78.2734 34.1205 76.6524 34.97C74.4562 36.1156 72.6478 37.7153 71.0204 39.5412C69.1973 41.5885 67.4185 43.6731 65.4442 45.5885C63.8282 47.1589 62.3109 48.8302 60.4039 50.0816C59.628 50.5926 58.8685 51.1118 57.9479 51.3526C56.8028 51.6393 55.6412 51.8567 54.4694 52.0036C53.9557 52.0526 53.4586 52.2096 53.0112 52.4641C52.5493 52.7489 52.5082 53.2127 52.9208 53.5675C53.0706 53.6926 53.2364 53.7977 53.414 53.8799C54.7817 54.5309 56.1166 55.2518 57.4301 56.0069C61.7815 58.5065 66.1264 61.0159 70.4861 63.4927C74.5679 65.8215 78.7353 68.0005 82.7119 70.5067C84.4134 71.5791 86.2283 72.4383 88.0432 73.296C88.3836 73.4479 88.755 73.5197 89.1282 73.5059C89.3218 73.5098 89.5115 73.4517 89.669 73.3403C89.8266 73.2288 89.9437 73.07 90.0027 72.8875C90.2362 72.3114 90.1836 71.7142 90.1096 71.1251C89.9304 69.6946 89.6641 68.2772 89.5342 66.8402C89.2548 63.7775 89.6707 60.8336 90.9677 58.0248C92.2385 55.2729 93.358 52.469 93.9892 49.4942C94.2786 48.1467 94.7126 46.8139 94.609 45.403H94.6139Z" fill="#F8F2EA"/>
<path d="M95.9991 28.9067C95.9511 31.2556 94.9991 33.2075 93.5447 34.9542C93.3991 35.1296 93.2375 35.2851 93.0791 35.4505C93.0499 35.4903 93.0118 35.5223 92.9682 35.5439C92.9246 35.5655 92.8766 35.5759 92.8282 35.5745C92.7799 35.573 92.7326 35.5597 92.6902 35.5355C92.6479 35.5114 92.6117 35.4771 92.5847 35.4356C90.8615 33.5532 88.7271 32.4416 86.3079 31.8428C86.0793 31.7922 85.8479 31.7558 85.6151 31.7336C85.2647 31.689 85.2055 31.5963 85.3687 31.2606C85.7716 30.4478 86.2535 29.6796 86.8071 28.9679C87.6295 27.8961 88.4743 26.8308 89.5831 26.0666C90.9591 25.1188 92.4631 24.6788 94.0967 25.2643C95.1095 25.6266 95.5671 26.4752 95.8439 27.466C95.9553 27.9373 96.0075 28.4216 95.9991 28.9067ZM92.5959 25.5621C92.2904 25.5525 91.9847 25.5708 91.6823 25.6167C90.7847 25.8069 90.0727 26.3379 89.3911 26.93C87.9847 28.1491 87.0439 29.7652 85.9431 31.244C85.7831 31.4624 85.8359 31.5616 86.1031 31.598C86.5975 31.6658 87.0951 31.7386 87.5831 31.8511C89.5959 32.3159 91.2151 33.4672 92.6183 34.984C92.8519 35.2371 92.9959 35.2503 93.2375 35.0171C93.5211 34.7332 93.7684 34.413 93.9735 34.0643C95.0359 32.3341 95.7335 30.4848 95.5143 28.3956C95.3959 27.3188 94.8951 26.4106 93.9335 25.8648C93.5235 25.6374 93.0603 25.5325 92.5959 25.5621Z" fill="#F8F2EA"/>
<path d="M66.952 76.2033C64.2587 76.182 61.9226 74.1694 61.626 71.4974C61.4032 69.4799 62.2125 67.8724 63.8557 66.6997C65.9346 65.2152 68.7016 65.2776 70.6069 66.8637C71.8716 67.92 72.3418 69.3438 72.3058 70.9496C72.3 71.6552 72.1679 72.354 71.9159 73.013C71.177 74.8648 69.7435 75.8145 67.8317 76.1295C67.5352 76.1639 67.2452 76.1754 66.952 76.2033ZM71.8667 70.8774C71.8765 69.6472 71.7029 68.8041 71.1754 68.107C69.909 66.4372 68.2708 65.5925 66.1181 65.9402C62.8662 66.4651 61.0494 70.1557 62.6778 73.0048C63.4592 74.3711 64.6978 75.183 66.1967 75.5833C67.1248 75.8311 68.1114 75.7301 68.9703 75.2995C70.9755 74.3416 71.6963 72.5931 71.8733 70.8807L71.8667 70.8774Z" fill="#F8F2EA"/>
<path d="M94.2921 45.3918C94.3951 46.7986 93.9652 48.1275 93.6792 49.4775C93.0515 52.4436 91.9385 55.2393 90.675 57.9831C89.3854 60.7836 88.9719 63.7189 89.2498 66.7726C89.3789 68.2053 89.6437 69.6186 89.8218 71.0449C89.8954 71.6322 89.9477 72.2277 89.7156 72.8021C89.6569 72.9841 89.5405 73.1425 89.3838 73.2536C89.2272 73.3647 89.0385 73.4226 88.8461 73.4187C88.475 73.4325 88.1058 73.3609 87.7673 73.2094C85.9694 72.3543 84.1584 71.4976 82.4668 70.4283C78.513 67.9295 74.3696 65.7569 70.3113 63.4349C65.9767 60.9573 61.6486 58.4552 57.3304 55.9711C56.0228 55.2182 54.6973 54.5107 53.3374 53.8503C53.1609 53.7683 52.996 53.6636 52.8471 53.5388C52.4368 53.1851 52.4777 52.7275 52.937 52.4387C53.3818 52.185 53.8761 52.0284 54.3867 51.9795C55.5518 51.8331 56.7067 51.6163 57.8452 51.3305C58.7605 51.0903 59.5157 50.5727 60.2871 50.0632C62.1831 48.8155 63.6917 47.1426 65.2984 45.5833C67.2597 43.6735 69.0299 41.5949 70.8425 39.5537C72.4573 37.7332 74.2601 36.1382 76.4372 34.9943C78.0488 34.1473 79.7486 33.5339 81.5694 33.3944C86.4091 33.0261 90.3857 34.8466 92.8309 39.2357C93.7413 40.8713 94.0959 42.6967 94.2398 44.5545C94.2578 44.8304 94.2725 45.1062 94.2921 45.3918ZM88.5813 35.064L88.5143 35.0056L88.3819 34.9375C88.3525 34.9034 88.3165 34.8823 88.2838 34.9261C88.2838 34.9342 88.3132 34.9716 88.3296 34.9943L88.4587 35.064L88.5273 35.1225C88.56 35.1517 88.596 35.176 88.6287 35.1306C88.6385 35.1225 88.5976 35.0868 88.5813 35.064ZM65.6416 47.3957C65.6416 47.4411 65.622 47.4622 65.5762 47.4606L65.5207 47.5336C65.367 47.6699 65.2216 47.8176 65.0565 47.9409C63.5855 49.054 62.2158 50.3001 60.6434 51.298C60.6859 51.3163 60.7328 51.3222 60.7785 51.315C60.8242 51.3079 60.867 51.2879 60.9017 51.2574C62.6156 50.3082 64.1678 49.0964 65.5011 47.6667C65.5337 47.6293 65.6269 47.5855 65.5174 47.5287C65.5419 47.5287 65.5599 47.5936 65.586 47.5401C65.5959 47.519 65.586 47.4866 65.5762 47.4606C65.6498 47.4914 65.6612 47.4606 65.64 47.3973L65.6694 47.4054H65.6612L65.6416 47.3957ZM78.6405 66.9332C78.6111 66.9024 78.5784 66.8846 78.5457 66.9251C78.5457 66.9251 78.5751 66.9657 78.5915 66.9884C78.6339 67.0225 78.6879 67.0614 78.7238 67.003C78.7598 66.9446 78.6813 66.9478 78.6405 66.9365V66.9332ZM90.4511 53.0747C90.4184 53.1104 90.3792 53.1429 90.4299 53.2224C90.438 53.1591 90.4429 53.1153 90.4478 53.0731L90.5132 52.9417C90.5786 52.8914 90.5704 52.8167 90.5802 52.7486C90.5982 52.7243 90.6587 52.7129 90.6015 52.6691L90.5819 52.7502C90.5132 52.7989 90.5279 52.8752 90.5165 52.9433L90.4511 53.0747ZM88.0533 34.7395C88.0239 34.7022 87.9896 34.6795 87.9536 34.7265C87.9536 34.7265 87.9847 34.772 88.0027 34.7963C88.0746 34.8482 88.1334 34.9424 88.2478 34.8774C88.2336 34.8377 88.2072 34.8034 88.1723 34.7792C88.1374 34.7551 88.0959 34.7423 88.0533 34.7428V34.7395ZM83.1042 69.7874C83.1271 69.8085 83.1549 69.8344 83.1777 69.7874C83.1777 69.7776 83.1598 69.7533 83.1483 69.7354C82.9859 69.5924 82.7812 69.5053 82.5648 69.4872C82.716 69.6301 82.9018 69.7318 83.1042 69.7825V69.7874ZM53.3783 52.6107C53.1102 52.7405 53.1102 52.7405 53.0334 52.9482C53.3358 52.7989 53.3358 52.7989 53.375 52.6026C53.375 52.6383 53.4011 52.6496 53.4289 52.6301C53.4567 52.6107 53.4502 52.5863 53.4453 52.5831C53.4126 52.5604 53.393 52.5847 53.3783 52.6107ZM78.3855 67.3162C78.4329 67.2853 78.4378 67.2545 78.3855 67.2367C78.3659 67.2367 78.312 67.2075 78.3267 67.2659C78.3267 67.2853 78.3741 67.2967 78.4002 67.3113L78.7075 67.4882C79.5607 67.9636 80.4073 68.4504 81.2981 68.8528C81.4413 68.9763 81.6219 69.0488 81.8113 69.0588L81.3357 68.8073C80.4188 68.3205 79.5002 67.8175 78.5816 67.3259C78.5195 67.2967 78.4525 67.2188 78.3871 67.3162H78.3855ZM87.8262 66.4562L87.7493 65.8072C87.6966 65.9716 87.6755 66.1445 87.6872 66.3167C87.6918 66.3581 87.7011 66.399 87.715 66.4384C87.7297 66.5227 87.751 66.6006 87.7575 66.6931C87.8341 67.6823 88.0373 68.6577 88.3623 69.5959C88.5103 70.0457 88.7013 70.4803 88.9327 70.894C88.9997 70.7317 88.9147 70.6295 88.8722 70.524C88.3394 69.2081 88.1187 67.8224 87.8213 66.4562H87.8262ZM92.3879 43.3214C92.4314 43.1274 92.4314 42.9263 92.3879 42.7324C92.1162 40.9201 91.2107 39.2606 89.83 38.0447C88.8101 37.141 87.7918 36.2842 86.3976 35.9484C85.1424 35.6498 83.8985 35.3707 82.591 35.507C79.7862 35.7958 77.3378 36.9203 75.1722 38.6678C72.1451 41.1017 69.4712 43.9039 66.99 46.883C65.9049 48.1778 64.7377 49.4026 63.4956 50.55C62.0671 51.8773 60.3705 52.8038 58.5595 53.5258C58.3062 53.6264 58.0512 53.7222 57.7586 53.8341C67.6209 59.2617 77.3444 64.8352 87.0155 70.4964C87.0318 70.4581 87.0393 70.4166 87.0373 70.3751C87.0353 70.3335 87.0239 70.2929 87.004 70.2563C86.8146 69.6699 86.6736 69.0692 86.5823 68.4601C86.3323 66.5876 86.4712 64.7281 86.8112 62.88C87.1045 61.4092 87.5217 59.9655 88.0583 58.5639C88.833 56.4335 89.5293 54.2722 90.2337 52.1174C90.7355 50.5906 91.2912 49.0816 91.4596 47.4606C91.7489 44.6649 91.2291 42.0671 89.7189 39.6722C89.5275 39.4092 89.3817 39.1163 89.2874 38.8057C89.2236 38.5299 89.3266 38.4147 89.6045 38.4812C89.8586 38.5532 90.0798 38.7103 90.2304 38.9258C90.5213 39.3036 90.7846 39.7016 91.0183 40.1168C91.5805 41.139 91.9466 42.2342 92.3879 43.3214ZM88.475 63.1672C88.1939 65.2652 88.2364 67.3324 89.0749 69.3217C88.6256 67.3017 88.4242 65.2352 88.475 63.1672ZM74.6655 38.0415C75.8596 37.1494 77.1332 36.3673 78.4705 35.705C76.9472 36.0668 75.7638 36.9933 74.6655 38.0415ZM72.4426 63.6524C73.8041 64.4864 75.164 65.3236 76.6644 65.8948C75.2768 65.1095 73.8858 64.329 72.4426 63.6524ZM56.8286 55.3415C56.7207 55.0348 55.6845 54.4166 55.4344 54.4864L56.8286 55.3415ZM90.8712 55.1971L90.7845 55.163L90.0131 57.1442L90.0997 57.1783L90.8712 55.1971ZM80.8634 34.2852C81.5126 34.3441 82.1669 34.3201 82.81 34.2138C82.1608 34.1533 81.5063 34.1773 80.8634 34.2852ZM84.1437 34.0337L86.0413 34.501C85.4469 34.22 84.8015 34.0611 84.1437 34.0337ZM79.9758 34.4702C79.4544 34.4442 78.9952 34.6762 78.5048 34.8174C79.0393 34.8401 79.4969 34.5951 79.9758 34.4702ZM87.9357 69.6543C87.9526 70.0635 88.099 70.457 88.3541 70.7788L87.9357 69.6543ZM86.5349 71.8172L86.5856 71.7361L85.7291 71.3613L85.6965 71.4359C85.9587 71.5975 86.2404 71.7256 86.5349 71.8172ZM92.3618 43.9234C92.3928 44.2106 92.3618 44.5188 92.5023 44.7963C92.5456 44.6496 92.5555 44.4951 92.5312 44.3441C92.5069 44.1931 92.449 44.0494 92.3618 43.9234ZM71.7333 63.2597C71.9229 63.3668 72.0601 63.5648 72.387 63.5842C72.1386 63.4187 71.967 63.2792 71.7333 63.2597ZM88.0043 63.8844C88.0838 63.6534 88.1057 63.4068 88.0681 63.1656C88.0321 63.3717 87.921 63.5696 88.0043 63.8844ZM76.7265 65.95C76.9205 66.1044 77.1424 66.2207 77.3803 66.2923C77.1877 66.1322 76.9624 66.0154 76.72 65.95H76.7265ZM77.8102 66.4935C77.686 66.4237 77.5961 66.3718 77.5013 66.3231C77.4882 66.3231 77.4637 66.3313 77.4441 66.3361C77.4669 66.4059 77.5307 66.4254 77.5879 66.4497C77.6451 66.474 77.6876 66.5389 77.8036 66.4935H77.8102ZM90.7469 52.317C90.7159 52.3592 90.6865 52.3819 90.6816 52.4095C90.6767 52.4371 90.6211 52.5263 90.7241 52.4906C90.7633 52.4744 90.7764 52.4079 90.7404 52.317H90.7469ZM86.5137 34.6422C86.5513 34.6957 86.6019 34.7866 86.7147 34.7411L86.5137 34.6422ZM86.3502 34.6422C86.3061 34.5708 86.2538 34.488 86.1378 34.5432L86.3502 34.6422ZM77.9033 66.5909C77.9033 66.6558 77.954 66.6736 77.9981 66.6963C78.0158 66.7073 78.0369 66.7117 78.0575 66.7087C78.0782 66.7057 78.0971 66.6956 78.1109 66.6801C78.1067 66.655 78.0954 66.6317 78.0783 66.6127C78.0612 66.5938 78.0391 66.58 78.0145 66.573C77.997 66.562 77.976 66.5578 77.9555 66.5611C77.935 66.5643 77.9165 66.575 77.9033 66.5909ZM71.5894 63.138L71.5486 63.1072C71.5424 63.121 71.5369 63.135 71.5322 63.1494C71.5322 63.1494 71.5486 63.1672 71.5535 63.164C71.5659 63.156 71.5779 63.1473 71.5894 63.138ZM90.9447 51.8416C90.9494 51.8324 90.9527 51.8225 90.9545 51.8124C90.9545 51.7783 90.9398 51.7734 90.9284 51.7978C90.9251 51.8078 90.9251 51.8186 90.9284 51.8286C90.9284 51.8286 90.9382 51.8367 90.9447 51.8416ZM90.8319 52.1531L90.8123 52.132C90.8031 52.1474 90.7954 52.1637 90.7894 52.1807C90.7894 52.1807 90.8009 52.1953 90.8074 52.2034L90.8319 52.1531ZM88.4211 70.9297C88.4211 70.9118 88.4113 70.8826 88.3999 70.8794C88.3639 70.8696 88.3525 70.8956 88.3606 70.9264C88.3686 70.9442 88.3784 70.9611 88.39 70.9767L88.4211 70.9297ZM85.5771 71.3564C85.5771 71.3564 85.5771 71.3369 85.5771 71.3353C85.5771 71.3337 85.5559 71.3256 85.5494 71.3353C85.5428 71.345 85.5265 71.3629 85.5494 71.371C85.5722 71.3791 85.5673 71.3596 85.5771 71.3564ZM86.8406 34.8077C86.8324 34.7996 86.8259 34.7866 86.8193 34.785C86.8128 34.7833 86.803 34.7979 86.7964 34.8044C86.7899 34.8109 86.8112 34.8239 86.8177 34.8239C86.8242 34.8239 86.8308 34.8125 86.8406 34.8077ZM87.8703 34.6454C87.8703 34.6454 87.849 34.66 87.8507 34.6649C87.8555 34.6791 87.8621 34.6928 87.8703 34.7055C87.8703 34.7055 87.8915 34.6908 87.8899 34.686C87.8849 34.6707 87.8772 34.6564 87.867 34.6438L87.8703 34.6454ZM78.2008 66.7158L78.16 66.7385C78.16 66.7466 78.1747 66.7612 78.1812 66.7596C78.1964 66.7549 78.2108 66.7478 78.2237 66.7385L78.2008 66.7158ZM78.3528 66.8051C78.3528 66.8051 78.3381 66.784 78.3332 66.7856C78.3185 66.7901 78.3043 66.7961 78.2907 66.8034C78.2907 66.8034 78.3054 66.8229 78.312 66.8229C78.3263 66.8186 78.34 66.8126 78.3528 66.8051ZM78.4623 66.8911L78.4836 66.8716C78.4711 66.8633 78.4573 66.8573 78.4427 66.8537C78.4427 66.8537 78.4296 66.8635 78.4231 66.87L78.4623 66.8911ZM88.7137 35.1776L88.6924 35.1906C88.6924 35.1906 88.7022 35.2085 88.7088 35.2085C88.7153 35.2085 88.7235 35.2003 88.73 35.1955L88.7137 35.1776ZM87.7542 34.5984C87.7542 34.5984 87.7363 34.5854 87.7314 34.5886C87.6987 34.6 87.6987 34.6162 87.7314 34.6308C87.7314 34.6308 87.7477 34.6308 87.7542 34.6195C87.7608 34.6081 87.7542 34.6065 87.7542 34.5984ZM87.612 34.5286L87.5924 34.5464C87.5924 34.5464 87.6039 34.5643 87.612 34.5643C87.6202 34.5643 87.6251 34.5529 87.6317 34.5481L87.612 34.5286Z" fill="#181818"/>
<path d="M92.5098 25.5614C92.9687 25.5324 93.4264 25.6354 93.8316 25.859C94.7803 26.3987 95.2768 27.2881 95.3938 28.3465C95.6184 30.3999 94.9195 32.2176 93.8712 33.9183C93.6684 34.261 93.424 34.5757 93.1438 34.8547C92.9051 35.084 92.7627 35.071 92.5319 34.8222C91.1452 33.3313 89.545 32.1997 87.5559 31.7429C87.0737 31.6323 86.5819 31.5608 86.0933 31.4941C85.8293 31.4584 85.7771 31.3608 85.9352 31.1462C87.0231 29.6927 87.9528 28.1043 89.3427 26.906C90.0162 26.324 90.7199 25.8021 91.6069 25.6151C91.9057 25.57 92.2079 25.552 92.5098 25.5614ZM88.9821 28.5351C88.9821 28.5075 89.0043 28.4619 88.9964 28.4554C88.9568 28.4311 88.9521 28.4701 88.9442 28.4961L88.881 28.5611C88.2342 29.1464 87.7947 29.8927 87.3108 30.6406C87.3994 30.6536 87.469 30.678 87.4769 30.6617C87.9639 29.9767 88.4477 29.2906 88.9284 28.6034L88.9821 28.5351ZM94.0735 33.25L94.1241 33.1834L94.0878 33.1655C94.0878 33.1948 94.0799 33.224 94.0767 33.2533L94.0609 33.2761L94.0735 33.25ZM94.7961 31.4519C94.941 31.1222 95.0247 30.7677 95.0428 30.4064C95.0719 30.3469 95.087 30.2812 95.087 30.2146C95.087 30.148 95.0719 30.0823 95.0428 30.0227C95.0254 30.174 95.0128 30.2748 95.0017 30.3772C94.8841 30.715 94.7998 31.0642 94.7503 31.4193C94.706 31.4665 94.6681 31.5559 94.7203 31.5819C94.8041 31.6031 94.7677 31.4925 94.7961 31.4519ZM87.8263 30.7381C89.447 31.2714 90.9887 31.8599 92.2441 33.0289C92.3469 33.1249 92.3943 33.081 92.4544 32.9802C93.0442 31.9933 93.5265 30.969 93.5612 29.7789C93.5771 29.2911 93.468 28.8034 93.1138 28.5091C92.3437 27.8685 91.569 27.6084 90.5428 28.1742C89.4375 28.7822 88.7149 29.8358 87.8263 30.7381ZM93.9929 28.7383C94.0514 27.7076 93.3604 26.6377 92.728 26.7125C93.43 27.1726 93.7874 27.8653 93.9913 28.7465L93.9929 28.7383ZM93.3383 32.8956C93.1707 33.2094 93.0031 33.476 93.0063 33.8142C93.1318 33.5967 93.2417 33.3701 93.3351 33.1362C93.3538 33.0991 93.3637 33.0579 93.364 33.0161C93.3643 32.9743 93.3549 32.933 93.3367 32.8956H93.3383ZM94.2744 32.8143C94.423 32.6013 94.423 32.6013 94.4325 32.4176C94.3813 32.4687 94.3408 32.5299 94.3134 32.5975C94.2859 32.6651 94.2721 32.7378 94.2728 32.8111L94.2744 32.8143ZM94.7076 31.777L94.6823 31.7266C94.6712 31.7396 94.6491 31.7559 94.6507 31.7673C94.658 31.7894 94.6687 31.8103 94.6823 31.8291C94.6911 31.8122 94.6991 31.7948 94.706 31.777H94.7076ZM94.4783 32.2453C94.4783 32.268 94.4625 32.2892 94.4673 32.3038C94.472 32.3184 94.4957 32.3363 94.5099 32.3038C94.5242 32.2713 94.5179 32.281 94.5099 32.2745C94.4998 32.2638 94.4886 32.254 94.4767 32.2453H94.4783ZM94.1906 33.0257L94.1732 33.0013C94.1653 33.0094 94.1542 33.0159 94.1542 33.0224C94.1542 33.0289 94.1637 33.0387 94.17 33.0468L94.1906 33.0257ZM94.2554 32.8956L94.238 32.8712C94.2301 32.8712 94.219 32.8859 94.2174 32.8924C94.2159 32.8989 94.2285 32.9086 94.2348 32.9167C94.2415 32.9101 94.2479 32.903 94.2538 32.8956H94.2554Z" fill="#181818"/>
<path d="M71.7432 70.7204C71.5598 72.4648 70.8162 74.2425 68.7448 75.2231C67.8548 75.6609 66.8323 75.7635 65.8705 75.5116C64.317 75.1047 63.0335 74.2792 62.2236 72.89C60.5258 69.9933 62.4155 66.2411 65.789 65.7075C68.0199 65.3539 69.7177 66.2078 71.0301 67.9104C71.5751 68.6092 71.7533 69.4664 71.7432 70.7204ZM68.643 73.3887C68.5853 73.3286 68.536 73.3887 68.4834 73.402C68.4812 73.4102 68.4812 73.4188 68.4834 73.427C68.5089 73.4353 68.5364 73.4352 68.5618 73.4267C68.5872 73.4183 68.6091 73.402 68.6243 73.3803C68.6617 73.367 68.7313 73.3703 68.6735 73.3019C68.8433 73.3353 68.9248 73.2019 69.0301 73.1135C69.115 73.0885 69.1591 73.0385 69.1252 72.9467L68.9825 73.0668C68.8824 73.1469 68.7822 73.2336 68.6837 73.3086C68.6498 73.3236 68.5683 73.3153 68.643 73.3887ZM66.4596 73.317C67.1321 73.3269 67.7913 73.1325 68.3469 72.7602C68.9025 72.3879 69.3273 71.856 69.5632 71.2374C70.0725 69.9767 69.8162 68.5692 68.8654 67.6986C68.0063 66.9132 66.9774 66.7531 65.8637 67.0316C64.4273 67.3918 63.227 68.7559 63.1913 70.055C63.1878 70.4801 63.2695 70.9017 63.4318 71.2958C63.5941 71.6899 63.8338 72.0487 64.1373 72.3517C64.4408 72.6548 64.8021 72.8961 65.2006 73.062C65.599 73.2279 66.0268 73.3151 66.4596 73.3186V73.317Z" fill="#181818"/>
<path d="M92.5839 42.9943C92.1386 41.8834 91.774 40.7692 91.2083 39.7392C90.9724 39.3169 90.7067 38.912 90.4132 38.5276C90.2611 38.3084 90.0379 38.1486 89.7814 38.0753C89.501 38.0044 89.3971 38.1216 89.4614 38.4055C89.5567 38.7215 89.7038 39.0194 89.8969 39.2869C91.421 41.7183 91.9456 44.361 91.6536 47.2101C91.4887 48.8607 90.9229 50.3942 90.4165 51.9475C89.7023 54.1395 89.0029 56.3382 88.221 58.5055C87.6795 59.9313 87.2585 61.4 86.9625 62.8963C86.6194 64.7813 86.4792 66.668 86.7315 68.5729C86.8218 69.1906 86.9619 69.8001 87.1505 70.3952C87.1711 70.4318 87.1833 70.4727 87.1862 70.5146C87.1891 70.5566 87.1825 70.5987 87.167 70.6378C77.402 64.8787 67.5892 59.2087 57.6411 53.6872C57.9363 53.5734 58.1936 53.476 58.4493 53.3736C60.2769 52.6391 61.9891 51.6966 63.4308 50.3463C64.6846 49.1823 65.863 47.9396 66.959 46.6257C69.463 43.5951 72.1615 40.7511 75.2164 38.2685C77.402 36.4907 79.8729 35.3468 82.7035 35.053C84.0231 34.9176 85.2717 35.1983 86.5385 35.5069C87.9406 35.8486 88.9682 36.7202 90.0025 37.6396C91.3959 38.8765 92.3097 40.5647 92.5839 42.4083C92.6259 42.6014 92.6259 42.8012 92.5839 42.9943ZM76.221 62.8831C76.4997 62.8946 76.5838 62.7741 76.4535 62.5249C76.311 62.2282 76.1082 61.9645 75.8581 61.7507C75.4894 61.4386 75.0967 61.156 74.6836 60.9056C73.237 60.0555 71.7145 59.3374 70.23 58.5831C69.7747 58.3537 69.3327 58.0879 68.8147 57.9905C68.5426 57.936 68.3413 57.9905 68.2341 58.2134C68.1269 58.4362 68.3991 58.4576 68.4964 58.5633C68.5464 58.6062 68.6019 58.6422 68.6613 58.6706C70.9805 60.0489 73.2914 61.4387 75.6667 62.7196C75.8362 62.8173 76.0258 62.8749 76.221 62.888V62.8831ZM74.2976 59.5322C74.2295 59.5351 74.1633 59.5557 74.1055 59.5918C74.0477 59.628 74.0002 59.6785 73.9677 59.7386C73.8919 59.8657 74.0189 59.9201 74.0849 59.9746C74.6307 60.4336 75.2151 60.8445 75.8317 61.2027C75.9422 61.2687 76.122 61.3909 76.2424 61.2208C76.3628 61.0508 76.2325 60.9188 76.1269 60.8131C75.6601 60.3493 75.19 59.8855 74.5632 59.6346C74.4725 59.6015 74.3801 59.5685 74.2976 59.5372V59.5322Z" fill="#F8F2EA"/>
<path d="M65.4839 47.2625C65.5984 47.3225 65.5024 47.3675 65.4687 47.4059C64.0944 48.8752 62.4944 50.1206 60.7277 51.0961C60.692 51.1274 60.6479 51.1479 60.6008 51.1553C60.5536 51.1627 60.5053 51.1566 60.4615 51.1378C62.0823 50.1123 63.4941 48.8316 65.0104 47.6877C65.1789 47.5609 65.3306 47.4092 65.4906 47.2708L65.4839 47.2625Z" fill="#F8F2EA"/>
<path d="M88.7838 62.8459C88.7459 65.0901 88.896 67.3326 89.2308 69.5247C88.6047 67.3694 88.5731 65.1227 88.7838 62.8459Z" fill="#F8F2EA"/>
<path d="M74.5641 37.8009C75.7039 36.7945 76.9387 35.9195 78.5128 35.5747C77.125 36.2058 75.8033 36.9509 74.5641 37.8009Z" fill="#F8F2EA"/>
<path d="M87.6898 66.2145C88.0861 67.5814 88.3866 68.9709 89.1145 70.2681C89.1724 70.3735 89.2882 70.474 89.1969 70.6378C88.8817 70.2244 88.6216 69.7901 88.42 69.3406C87.9774 68.4031 87.7007 67.4283 87.5963 66.4399C87.5963 66.3539 87.5585 66.2696 87.5385 66.1853L87.6898 66.2145Z" fill="#F8F2EA"/>
<path d="M72.3077 63.4023C73.8504 64.0741 75.3372 64.8521 76.8205 65.6286C75.2166 65.0616 73.763 64.2303 72.3077 63.4023Z" fill="#F8F2EA"/>
<path d="M81.2973 68.9683C80.4442 68.5457 79.6334 68.0346 78.8164 67.5354L78.5221 67.3497H78.5128C78.5769 67.2458 78.6411 67.3275 78.6959 67.3582C79.5755 67.8693 80.4552 68.3958 81.3333 68.9137L81.2973 68.9683Z" fill="#F8F2EA"/>
<path d="M57.077 55.0541L55.3846 54.5011C55.6941 54.456 56.946 54.8558 57.077 55.0541Z" fill="#F8F2EA"/>
<path d="M90.9231 55.0881L90.4159 57.2802L90.3589 57.2425L90.8661 55.054L90.9231 55.0881Z" fill="#F8F2EA"/>
<path d="M84.1539 33.9048C84.936 33.9374 85.7035 34.1267 86.4103 34.4613L84.1539 33.9048Z" fill="#F8F2EA"/>
<path d="M88.1025 69.5247L88.6666 70.6378C88.3227 70.3192 88.1253 69.9297 88.1025 69.5247Z" fill="#F8F2EA"/>
<path d="M86.3781 71.7511C86.1912 71.6393 86.0125 71.4829 85.8461 71.2857L85.8669 71.1946L86.4102 71.6521L86.3781 71.7511Z" fill="#484848"/>
<path d="M76.8205 65.6287C77.0277 65.7364 77.2201 65.9262 77.3846 66.1852C77.1793 66.0687 76.9878 65.8798 76.8205 65.6287Z" fill="#F8F2EA"/>
<path d="M53.6871 52.2712C53.6229 52.5885 53.6229 52.5885 53.1283 52.8278C53.2539 52.4949 53.2539 52.4949 53.6924 52.2868L53.6871 52.2712Z" fill="#F8F2EA"/>
<path d="M88.1026 66.1852L87.6613 66.1646C87.6061 66.1311 87.5691 66.0965 87.551 66.0612C87.5044 65.915 87.588 65.7683 87.7976 65.6287L88.1026 66.1852Z" fill="#484848"/>
<path d="M87.5385 30.8491C88.4992 29.887 89.2804 28.7688 90.4787 28.1153C91.5881 27.512 92.4257 27.7894 93.2582 28.4724C93.6411 28.7879 93.7591 29.3028 93.742 29.8263C93.701 31.0952 93.1796 32.1874 92.5454 33.2397C92.4804 33.3471 92.4291 33.3939 92.318 33.2917C90.9573 32.0452 89.2906 31.4177 87.5385 30.8491Z" fill="#F8F2EA"/>
<path d="M88.6667 28.384C88.1627 29.1089 87.6565 29.8337 87.1481 30.5586C87.1365 30.5758 87.067 30.5586 86.9744 30.5363C87.4806 29.7461 87.9405 28.9577 88.617 28.3394C88.6328 28.3551 88.6494 28.3701 88.6667 28.384Z" fill="#F8F2EA"/>
<path d="M94.3031 28.8959C94.0309 27.9388 93.5478 27.1796 92.6154 26.6752C93.4529 26.579 94.3811 27.757 94.3031 28.8959Z" fill="#F8F2EA"/>
<path d="M94.8718 30.5231C94.9456 30.3746 95.03 30.2284 95.146 30.009C95.3367 30.0956 95.4359 30.1908 95.4359 30.2873C95.4359 30.3838 95.3367 30.479 95.146 30.5656L94.8718 30.5231Z" fill="#484848"/>
<path d="M66.6189 73.42C66.177 73.4164 65.74 73.3256 65.3331 73.1528C64.9262 72.98 64.5572 72.7286 64.2473 72.413C63.9375 72.0973 63.6927 71.7237 63.5271 71.3133C63.3615 70.9029 63.2783 70.4638 63.2822 70.0212C63.3186 68.669 64.5441 67.2438 66.0105 66.8741C67.1476 66.5842 68.198 66.7508 69.0751 67.5684C70.0458 68.4728 70.311 69.9396 69.7876 71.2519C69.5473 71.8965 69.1138 72.4509 68.5465 72.8391C67.9792 73.2273 67.3059 73.4302 66.6189 73.42ZM65.6049 72.8437C65.8169 72.9941 66.0681 73.0792 66.3277 73.0885L65.6049 72.8437Z" fill="#F8F2EA"/>
<path d="M76.5252 62.8452C76.3238 62.8342 76.1277 62.7766 75.9523 62.6769C73.5329 61.3709 71.179 59.9539 68.8168 58.5486C68.7562 58.5198 68.6997 58.483 68.6487 58.4392C68.5429 58.3315 68.2808 58.2962 68.3816 58.0825C68.4824 57.8687 68.6958 57.7997 68.973 57.8553C69.5006 57.9596 69.9509 58.2255 70.4146 58.4594C71.9401 59.2285 73.4859 59.9606 74.9509 60.8273C75.3717 61.0827 75.7716 61.3708 76.1472 61.689C76.402 61.907 76.6086 62.1758 76.7537 62.4783C76.8949 62.7341 76.8092 62.857 76.5252 62.8452ZM72.4677 59.9993C72.4492 59.9758 72.4291 59.9522 72.4022 59.9892C72.4146 60.0026 72.4281 60.015 72.4425 60.0263L72.5651 60.1087C72.677 60.2125 72.8154 60.283 72.965 60.3124L73.0373 60.3309L73.007 60.2686C72.8952 60.1644 72.7578 60.0919 72.6088 60.0582L72.4677 59.9993ZM73.1549 60.3696L73.133 60.3864C73.133 60.3864 73.1465 60.4049 73.1532 60.4049C73.1599 60.4049 73.1683 60.3948 73.1767 60.3898L73.1549 60.3696ZM73.2876 60.4419L73.2758 60.4588H73.296L73.2876 60.4419Z" fill="#181818"/>
<path d="M74.3389 59.5066C74.4184 59.5362 74.5074 59.5674 74.5965 59.6033C75.2006 59.8402 75.6536 60.2783 76.1035 60.7164C76.2052 60.8162 76.3197 60.9565 76.2148 61.1015C76.1099 61.2465 75.9255 61.1467 75.8189 61.0844C75.2247 60.746 74.6615 60.3579 74.1355 59.9244C74.0719 59.873 73.9495 59.8215 74.0226 59.7015C74.0537 59.645 74.0992 59.5974 74.1546 59.5633C74.2101 59.5291 74.2736 59.5096 74.3389 59.5066Z" fill="#181818"/>
<defs>
<filter id="filter0_d_2246_630" x="0" y="0" width="161" height="154.759" filterUnits="userSpaceOnUse" color-interpolation-filters="sRGB">
<feFlood flood-opacity="0" result="BackgroundImageFix"/>
<feColorMatrix in="SourceAlpha" type="matrix" values="0 0 0 0 0 0 0 0 0 0 0 0 0 0 0 0 0 0 127 0" result="hardAlpha"/>
<feOffset dx="5" dy="4"/>
<feGaussianBlur stdDeviation="2"/>
<feComposite in2="hardAlpha" operator="out"/>
<feColorMatrix type="matrix" values="0 0 0 0 0 0 0 0 0 0 0 0 0 0 0 0 0 0 0.25 0"/>
<feBlend mode="normal" in2="BackgroundImageFix" result="effect1_dropShadow_2246_630"/>
<feBlend mode="normal" in="SourceGraphic" in2="effect1_dropShadow_2246_630" result="shape"/>
</filter>
</defs>
</svg>
