<svg width="82" height="81" viewBox="0 0 82 81" fill="none" xmlns="http://www.w3.org/2000/svg">
<g filter="url(#filter0_d_2402_8417)">
<path d="M0 36.5273C0.132986 27.2516 3.20819 19.0846 9.43072 12.1761C14.5022 6.54666 20.7788 2.93075 28.0795 1.09137C30.3313 0.524184 32.6198 0.194776 34.9377 0.0622562C39.7304 -0.212628 44.3947 0.41741 48.9177 2.05915C53.5467 3.7395 57.6369 6.29979 61.2073 9.70745C64.2457 12.607 66.6146 15.9934 68.5395 19.7298C70.5215 23.5781 71.8093 27.6295 72.3871 31.9209C72.6463 33.8451 72.7628 35.7776 72.6996 37.7162C72.4074 46.7419 69.2946 54.6416 63.2246 61.2911C58.0817 66.9244 51.7533 70.544 44.3241 72.1782C42.1933 72.6469 40.037 72.9408 37.8536 72.9892C28.0931 73.2066 19.4865 70.1351 12.1475 63.6439C6.31945 58.4885 2.6214 52.0147 0.891831 44.4012C0.35538 42.0416 0.0676199 39.6472 0.0345613 37.2239C0.031556 37.0043 0.013524 36.7855 0.000751332 36.528L0 36.5273Z" fill="#181818"/>
<path d="M38.2211 69.3689C33.1766 69.4612 28.4718 68.6252 23.96 66.7646C20.7233 65.4304 17.6992 63.7212 15.0673 61.3752C10.7403 57.5193 7.57648 52.8546 5.5832 47.3879C4.7124 45.0011 4.12937 42.5422 3.81907 40.0206C3.51253 37.5352 3.42011 35.0393 3.75746 32.5548C4.21126 29.2137 5.18349 26.0174 6.63656 22.9762C9.50215 16.9787 13.7299 12.1868 19.3033 8.63072C22.9938 6.2764 27.0104 4.70888 31.3156 3.91451C33.4351 3.52301 35.5726 3.339 37.7259 3.35944C41.0619 3.39125 44.3384 3.8562 47.506 4.91788C49.7119 5.65696 51.7661 6.7459 53.7105 8.03021C60.021 12.1989 64.4967 17.8768 67.3104 24.9049C68.5313 27.9544 69.2916 31.122 69.5959 34.3994C69.7432 35.9821 69.8258 37.5686 69.6936 39.1535C69.5366 41.036 69.1609 42.883 68.6523 44.7012C67.1421 50.0921 64.4749 54.8287 60.6739 58.9096C56.7001 63.176 51.9502 66.2444 46.4444 68.0974C44.7907 68.654 43.0657 68.9296 41.3346 69.1402C40.2421 69.2727 39.1452 69.3317 38.2211 69.3696V69.3689Z" fill="#F8F2EA"/>
<path d="M37.8984 65.9939C33.4037 66.0764 29.2116 65.3293 25.1915 63.6665C22.3076 62.474 19.613 60.9466 17.2679 58.85C13.4126 55.4039 10.5935 51.2351 8.8175 46.3495C8.0416 44.2164 7.52211 42.019 7.24563 39.7653C6.97249 37.5442 6.89015 35.3136 7.19073 33.0932C7.59508 30.1073 8.46135 27.2507 9.75606 24.5328C12.3093 19.1729 16.0763 14.8904 21.0423 11.7123C24.3306 9.60825 27.9095 8.20736 31.7455 7.49744C33.634 7.14755 35.5385 6.9831 37.4572 7.00137C40.4295 7.02979 43.349 7.44532 46.1714 8.39414C48.1369 9.05466 49.9672 10.0278 51.6997 11.1756C57.3224 14.9012 61.3103 19.9755 63.8174 26.2565C64.9053 28.9819 65.5827 31.8127 65.8539 34.7418C65.9851 36.1562 66.0587 37.574 65.9409 38.9905C65.801 40.6729 65.4663 42.3235 65.0131 43.9484C63.6675 48.7663 61.2909 52.9994 57.9042 56.6464C54.3635 60.4593 50.1312 63.2015 45.2255 64.8576C43.752 65.355 42.215 65.6013 40.6726 65.7895C39.6992 65.9079 38.7218 65.9607 37.8984 65.9945V65.9939Z" fill="#181818"/>
<path d="M10.1009 14.4668C10.868 13.3022 11.7358 12.2147 12.6629 11.1788C13.1776 10.604 13.7899 10.127 14.4203 9.60522C13.0559 11.3371 11.5742 12.9023 10.1647 14.5312C10.1092 14.5441 10.0798 14.5312 10.1009 14.4668Z" fill="#F8F2EA"/>
<path d="M58.2295 10.7436C59.8907 12.1074 61.3986 13.6249 62.7375 15.3113C62.7488 15.3666 62.733 15.3946 62.6721 15.3742C61.2409 13.7809 59.7006 12.2967 58.1589 10.814C58.1484 10.7564 58.1679 10.7284 58.2288 10.7436H58.2295Z" fill="#F8F2EA"/>
<path d="M71.8884 34.2581C72.0695 35.6741 72.1641 37.094 72.0267 38.5192C71.9756 39.0538 71.8944 39.5854 71.8268 40.1185C71.6698 40.0443 71.7742 39.9224 71.7727 39.8194C71.8561 38.4957 71.9327 37.172 71.8877 35.8445C71.8704 35.3364 71.8478 34.8283 71.8268 34.3202C71.8065 34.2588 71.8328 34.2437 71.8884 34.2573V34.2581Z" fill="#F8F2EA"/>
<path d="M40.6995 70.4518C39.9279 70.5525 39.157 70.6563 38.3847 70.7532C37.6589 70.8448 36.9308 70.9213 36.2058 71.0228C36.0142 71.05 35.8316 71.0197 35.6453 71.0152C35.5905 71.0137 35.4875 71.0629 35.5003 70.938C35.5086 70.8584 35.5732 70.8274 35.6506 70.8221C35.927 70.8039 36.2028 70.7751 36.48 70.7653C37.7265 70.7214 38.9639 70.5775 40.1999 70.4177C40.3644 70.3965 40.5305 70.37 40.6995 70.451V70.4518Z" fill="#F8F2EA"/>
<path d="M22.8389 6.02731C24.3295 5.18448 25.9591 4.71044 27.5783 4.20989C27.6429 4.18793 27.6586 4.21746 27.6474 4.27653C26.047 4.83236 24.4535 5.40863 22.9012 6.09168C22.8396 6.10985 22.8246 6.08335 22.8389 6.02731Z" fill="#F8F2EA"/>
<path d="M56.5497 64.0929C57.8518 62.9434 59.1847 61.8272 60.3913 60.5686C60.0998 61.1426 57.3694 63.6612 56.5497 64.0929Z" fill="#F8F2EA"/>
<path d="M62.3743 12.1033C62.9438 12.5251 65.1309 15.1134 65.4359 15.7018C64.336 14.5719 63.4712 13.2376 62.3743 12.1033Z" fill="#F8F2EA"/>
<path d="M56.7248 8.60041C55.9359 8.13848 55.1478 7.67579 54.3589 7.21387C55.2282 7.53419 56.1478 7.76439 56.7248 8.60041Z" fill="#F8F2EA"/>
<path d="M9.9206 16.3806C10.4608 15.5969 11.0709 14.8669 11.6765 14.1346C11.7185 14.0831 11.7546 13.962 11.8545 14.0377C11.965 14.1217 11.8673 14.1891 11.8117 14.2558C11.2024 14.9858 10.593 15.7165 9.98446 16.4473C9.93112 16.4564 9.90106 16.442 9.92135 16.3806H9.9206Z" fill="#F8F2EA"/>
<path d="M71.4342 43.0218C71.2772 44.0744 71.0337 45.1065 70.7039 46.1182C70.6859 46.1402 70.6671 46.1409 70.6468 46.1205C70.9105 45.0277 71.1787 43.9365 71.3688 42.8271C71.5108 42.8506 71.4304 42.9506 71.4342 43.021V43.0218Z" fill="#F8F2EA"/>
<path d="M62.6733 15.3739C62.6951 15.3527 62.7169 15.3322 62.7386 15.311C63.4674 16.1546 64.1031 17.0671 64.7064 18.0038C64.7267 18.0629 64.6989 18.0728 64.6493 18.0606C64.0407 17.1277 63.3502 16.2561 62.6733 15.3739Z" fill="#F8F2EA"/>
<path d="M71.4345 43.0215C71.4052 42.9594 71.4473 42.8723 71.3691 42.8277C71.5036 41.825 71.6381 40.8224 71.7726 39.8198C71.8102 39.916 71.7523 40.0296 71.8267 40.1189C71.696 41.0867 71.5652 42.0537 71.4353 43.0215H71.4345Z" fill="#F8F2EA"/>
<path d="M70.3554 47.2629C70.1916 48.0966 69.8437 48.8675 69.5537 49.6581C69.5026 49.7974 69.4433 49.9337 69.3877 50.0715C69.3381 50.0784 69.3028 50.0731 69.3358 50.0094C69.6732 49.0818 70.0278 48.1595 70.3088 47.2121C70.3313 47.2038 70.3539 47.1962 70.3689 47.2227C70.3749 47.2333 70.3667 47.2485 70.3561 47.2629H70.3554Z" fill="#F8F2EA"/>
<path d="M70.8711 27.1094C71.1483 27.9779 71.4151 28.8496 71.4429 29.7704C71.252 28.8836 71.0619 27.9969 70.8711 27.1094Z" fill="#F8F2EA"/>
<path d="M34.8496 2.66668C35.4987 2.60307 36.1449 2.50008 36.7971 2.48267C36.8001 2.51901 36.8038 2.55461 36.8068 2.59095C36.1749 2.6379 35.5431 2.68485 34.9105 2.7318C34.8503 2.74771 34.8331 2.72272 34.8488 2.66592L34.8496 2.66668Z" fill="#F8F2EA"/>
<path d="M2.6815 36.49V38.2794C2.64994 38.2794 2.61838 38.2779 2.58683 38.2771C2.45309 37.6335 2.68751 37.0019 2.6815 36.49Z" fill="#F8F2EA"/>
<path d="M4.5306 25.56C4.41189 25.8856 4.29018 26.2112 4.17522 26.5384C4.14517 26.6239 4.1091 26.6928 4.00993 26.6527C3.8822 26.6005 3.97912 26.5262 4.00767 26.4672C4.15418 26.1628 4.30445 25.8614 4.45397 25.5585C4.48026 25.5335 4.50581 25.5342 4.53135 25.5607L4.5306 25.56Z" fill="#F8F2EA"/>
<path d="M29.2464 3.30899C28.6693 3.45363 28.0931 3.59826 27.5161 3.74366C28.0367 3.4506 28.6107 3.34912 29.1848 3.24614C29.2434 3.22948 29.2606 3.25371 29.2464 3.30975V3.30899Z" fill="#F8F2EA"/>
<path d="M3.98776 45.8839C3.71127 45.322 3.63313 44.7041 3.55273 44.0862C3.69774 44.6852 3.84275 45.2849 3.98776 45.8839Z" fill="#F8F2EA"/>
<path d="M9.92021 16.3804C9.94125 16.4023 9.96229 16.425 9.98333 16.447C9.71961 16.8128 9.45589 17.1793 9.19217 17.545C9.16963 17.5299 9.14785 17.5147 9.12531 17.4996C9.38001 17.1202 9.62194 16.7317 9.92021 16.3804Z" fill="#F8F2EA"/>
<path d="M14.7164 62.7581C15.0695 63.0405 15.4226 63.323 15.7757 63.6054C15.2235 63.3487 14.8817 63.0738 14.7164 62.7581Z" fill="#F8F2EA"/>
<path d="M42.2093 2.1365C41.8081 2.10621 41.4061 2.07516 40.9756 2.0426C41.4181 1.80936 41.8118 2.08349 42.2168 2.06229C42.2138 2.08652 42.2115 2.11151 42.2085 2.13574L42.2093 2.1365Z" fill="#F8F2EA"/>
<path d="M49.5699 5.1665C50.0335 5.22633 50.4355 5.4058 50.8014 5.67538C50.3912 5.50576 49.9802 5.33613 49.5699 5.1665Z" fill="#F8F2EA"/>
<path d="M27.6474 4.27633C27.6241 4.25437 27.6016 4.23166 27.5783 4.2097C27.9149 4.0537 28.2748 3.9863 28.6287 3.89771C28.6362 3.92194 28.6437 3.94617 28.6512 3.9704C28.3161 4.07263 27.9818 4.1741 27.6467 4.27633H27.6474Z" fill="#F8F2EA"/>
<path d="M44.2452 70.161C44.5315 70.0755 44.8178 69.9891 45.104 69.9036C44.9335 70.2019 44.6194 70.1338 44.3692 70.2262C44.3076 70.2428 44.2377 70.2769 44.2452 70.161Z" fill="#F8F2EA"/>
<path d="M38.7026 71.4401C39.1616 71.4317 39.6147 71.3007 40.0783 71.3886C39.6192 71.3969 39.1677 71.5476 38.7026 71.4401Z" fill="#F8F2EA"/>
<path d="M13.6841 60.9263C13.9449 61.1731 14.2063 61.4208 14.467 61.6676C14.4505 61.685 14.4332 61.7032 14.4167 61.7206C14.1282 61.5018 13.8757 61.2458 13.6841 60.9263Z" fill="#F8F2EA"/>
<path d="M15.2558 62.4436C14.9786 62.252 14.7276 62.0316 14.5157 61.7673C14.8058 61.9423 15.059 62.1619 15.2979 62.3996C15.3039 62.433 15.2896 62.4481 15.2558 62.4436Z" fill="#F8F2EA"/>
<path d="M5.50364 50.8758C5.32032 50.5737 5.2001 50.2473 5.15277 49.8906C5.28501 50.2056 5.41724 50.5214 5.54947 50.8364C5.54947 50.8675 5.53445 50.8804 5.50439 50.8766L5.50364 50.8758Z" fill="#F8F2EA"/>
<path d="M58.2298 10.7434C58.2065 10.7669 58.1833 10.7904 58.16 10.8138C57.9804 10.6488 57.8008 10.4837 57.622 10.3186C57.8707 10.4011 58.0623 10.5564 58.2306 10.7434H58.2298Z" fill="#F8F2EA"/>
<path d="M64.6492 18.0609C64.668 18.042 64.6875 18.0231 64.7063 18.0042C64.9024 18.2238 65.0369 18.4797 65.1308 18.7644C64.97 18.5297 64.81 18.2949 64.6492 18.0609Z" fill="#F8F2EA"/>
<path d="M29.2464 3.30885C29.2261 3.28765 29.205 3.26644 29.1848 3.24524C29.4755 3.14831 29.7708 3.0741 30.0788 3.07031C30.0856 3.07789 30.0916 3.08622 30.0984 3.09379C29.8256 3.21192 29.5326 3.24524 29.2464 3.30809V3.30885Z" fill="#F8F2EA"/>
<path d="M19.6106 65.4734C19.8255 65.5999 20.0411 65.7263 20.256 65.852C19.9953 65.8096 19.7759 65.6869 19.6106 65.4734Z" fill="#F8F2EA"/>
<path d="M44.2451 70.1609C44.2602 70.2336 44.3278 70.2041 44.3691 70.226C44.1122 70.2866 43.856 70.3479 43.599 70.4085C43.7958 70.2646 44.0182 70.2056 44.2451 70.1609Z" fill="#F8F2EA"/>
<path d="M71.8883 34.2578C71.868 34.279 71.8477 34.2995 71.8267 34.3207C71.747 34.1003 71.7688 33.8754 71.8229 33.6475L71.8883 34.2578Z" fill="#F8F2EA"/>
<path d="M16.1703 63.1668C15.972 63.0479 15.7834 62.9162 15.6256 62.745C15.6241 62.7155 15.6391 62.7049 15.6669 62.7117C15.8638 62.798 16.0035 62.9608 16.1688 63.0896C16.1951 63.1146 16.1959 63.1403 16.1703 63.1668Z" fill="#F8F2EA"/>
<path d="M22.8389 6.02712C22.86 6.04833 22.8803 6.07029 22.9013 6.09149C22.7428 6.20281 22.567 6.27248 22.3754 6.30277C22.5114 6.1763 22.6646 6.08392 22.8382 6.02637L22.8389 6.02712Z" fill="#F8F2EA"/>
<path d="M34.8496 2.6665C34.8699 2.68846 34.8909 2.71042 34.9112 2.73239C34.7136 2.83386 34.5078 2.78464 34.2989 2.73769C34.4822 2.71421 34.6663 2.68998 34.8496 2.6665Z" fill="#F8F2EA"/>
<path d="M4.53033 25.5599C4.50478 25.5599 4.47849 25.5584 4.45294 25.5576C4.52883 25.3887 4.60471 25.2199 4.6806 25.0518C4.67534 25.2396 4.64528 25.4152 4.53033 25.5599Z" fill="#F8F2EA"/>
<path d="M5.79553 22.3014C5.88644 22.1143 5.97735 21.9265 6.06827 21.7395C6.09081 21.7501 6.1141 21.7607 6.13664 21.7713C6.05023 21.9606 5.99614 22.1651 5.79553 22.3014Z" fill="#F8F2EA"/>
<path d="M69.828 27.8938C69.7837 27.7151 69.7393 27.5364 69.695 27.3577C69.825 27.4902 69.8806 27.6477 69.8828 27.8234C69.9114 27.884 69.8828 27.8999 69.8272 27.8938H69.828Z" fill="#F8F2EA"/>
<path d="M69.3352 50.0095C69.3525 50.03 69.3698 50.0512 69.3871 50.0716C69.3315 50.2299 69.2691 50.3844 69.1188 50.5525C69.1744 50.3283 69.2413 50.164 69.3352 50.0095Z" fill="#F8F2EA"/>
<path d="M10.1007 14.4668C10.1217 14.488 10.1435 14.51 10.1646 14.5312C10.0932 14.6947 9.96396 14.8106 9.83173 14.9272C9.88507 14.7515 9.97072 14.5963 10.1007 14.4668Z" fill="#F8F2EA"/>
<path d="M5.5485 50.8364C5.64317 51.003 5.73257 51.1704 5.75211 51.3688C5.63791 51.2204 5.54474 51.0621 5.50342 50.8766C5.51844 50.8629 5.53347 50.8501 5.5485 50.8364Z" fill="#F8F2EA"/>
<path d="M16.1701 63.1668C16.1701 63.1411 16.1694 63.1153 16.1686 63.0896C16.3174 63.1759 16.4534 63.2782 16.5563 63.4251C16.4128 63.3622 16.2686 63.3016 16.1701 63.1676V63.1668Z" fill="#F8F2EA"/>
<path d="M69.3494 25.9129C69.2337 25.7849 69.1473 25.6463 69.1781 25.4062C69.2495 25.6175 69.2998 25.7652 69.3494 25.9129Z" fill="#F8F2EA"/>
<path d="M69.8281 27.8937C69.8468 27.8702 69.8649 27.8467 69.8837 27.8232C69.9588 27.9641 69.9806 28.1163 69.9573 28.2799C69.9145 28.1511 69.8709 28.0224 69.8281 27.8937Z" fill="#F8F2EA"/>
<path d="M70.6471 46.1202C70.6666 46.1285 70.6854 46.127 70.7042 46.1179C70.6614 46.2557 70.6185 46.3943 70.5502 46.6147C70.5261 46.3761 70.5652 46.2436 70.6471 46.1209V46.1202Z" fill="#F8F2EA"/>
<path d="M30.0787 3.071C30.235 2.99149 30.3987 2.95666 30.6354 2.98468C30.4168 3.02936 30.2673 3.10584 30.0982 3.09448C30.0914 3.08691 30.0854 3.07858 30.0787 3.071Z" fill="#F8F2EA"/>
<path d="M15.6255 62.7452C15.5022 62.6445 15.379 62.5445 15.2558 62.4438C15.2701 62.4294 15.2836 62.4143 15.2979 62.3999C15.4384 62.4832 15.5623 62.5862 15.6668 62.7119C15.6487 62.7172 15.6352 62.7286 15.6255 62.7452Z" fill="#F8F2EA"/>
<path d="M70.3557 47.2632C70.3399 47.2465 70.3241 47.2291 70.3083 47.2124C70.3459 47.0807 70.3835 46.9489 70.421 46.8171C70.4413 46.9746 70.4473 47.1284 70.3549 47.2632H70.3557Z" fill="#F8F2EA"/>
</g>
<path d="M50.3562 33.1689C50.3029 34.7564 50.0194 36.3274 49.5149 37.8316C49.027 39.3053 48.4374 40.7421 47.9352 42.208C47.3155 44.0116 46.679 45.8244 46.4559 47.7401C46.2205 49.5818 46.2205 51.4465 46.4559 53.2882C46.5603 54.0455 46.6242 54.8081 46.7168 55.5667C46.7353 55.7768 46.7172 55.9884 46.6633 56.1921C46.5564 56.6592 46.0502 56.9178 45.5741 56.77C45.0691 56.6092 44.5811 56.3984 44.117 56.1407C40.5324 54.1853 36.9908 52.1522 33.431 50.1507C29.6963 48.0528 25.9643 45.9497 22.2635 43.7912C20.2534 42.6196 18.3045 41.3477 16.3322 40.1141C15.86 39.8172 15.8104 39.5758 15.9761 39.0916C16.1587 38.5638 16.5644 38.3 17.0483 38.0941C17.7332 37.8118 18.4493 37.6231 19.1511 37.3975C20.8156 36.8618 22.2361 35.9171 23.5654 34.8141C24.6742 33.8906 25.7647 32.9538 26.7965 31.9445C27.4165 31.3156 28.0043 30.6551 28.5575 29.9654C29.5047 28.7981 30.5191 27.6883 31.5956 26.6419C33.4857 24.8528 35.7007 23.6574 38.1439 22.8566C39.2449 22.4964 40.3719 22.4607 41.5186 22.5782C42.7395 22.7101 43.8431 23.1693 44.8814 23.7828C46.9842 25.0269 48.6252 26.7131 49.5879 29.0102C50.0145 30.0235 50.2988 31.5711 50.3562 33.1689ZM49.704 33.1939C49.6883 32.9657 49.6766 32.7374 49.6596 32.5092C49.5449 30.9985 49.2618 29.5142 48.5352 28.1842C46.5785 24.614 43.41 23.1336 39.5475 23.4344C38.0944 23.5479 36.7377 24.0466 35.4515 24.7354C33.7088 25.6642 32.2739 26.9612 30.9825 28.4415C29.5359 30.1013 28.1244 31.7914 26.5578 33.3443C25.2755 34.6175 24.0715 35.9726 22.5583 36.9872C21.9426 37.4015 21.34 37.8223 20.6095 38.0176C19.7009 38.2501 18.7791 38.4263 17.8493 38.5454C17.4417 38.5851 17.0472 38.7124 16.6922 38.9187C16.3257 39.1496 16.2931 39.5257 16.6205 39.8133C16.7393 39.9147 16.8709 39.9999 17.0118 40.0666C18.0971 40.5944 19.1563 41.1789 20.1986 41.791C23.6515 43.8176 27.0991 45.8521 30.5585 47.8602C33.7975 49.7482 37.1043 51.5149 40.2598 53.5468C41.6099 54.4162 43.05 55.1129 44.4901 55.8082C44.7602 55.9313 45.0549 55.9896 45.351 55.9784C45.5047 55.9815 45.6552 55.9344 45.7802 55.8441C45.9053 55.7538 45.9981 55.625 46.045 55.477C46.2302 55.01 46.1885 54.5257 46.1298 54.0481C45.9876 52.8884 45.7763 51.7392 45.6732 50.5742C45.4515 48.0911 45.7815 45.7043 46.8107 43.4271C47.8191 41.196 48.7074 38.9227 49.2083 36.5109C49.4379 35.4184 49.7823 34.3378 49.7001 33.1939H49.704Z" fill="#F8F2EA"/>
<path d="M50.9863 19.9831C50.9472 21.8566 50.171 23.4135 48.9853 24.8067C48.8666 24.9466 48.7348 25.0706 48.6057 25.2025C48.5818 25.2343 48.5508 25.2598 48.5152 25.277C48.4796 25.2943 48.4405 25.3026 48.4011 25.3015C48.3617 25.3003 48.3231 25.2896 48.2886 25.2704C48.2541 25.2511 48.2246 25.2238 48.2026 25.1907C46.7977 23.6892 45.0576 22.8026 43.0852 22.325C42.8988 22.2846 42.7102 22.2555 42.5204 22.2379C42.2347 22.2023 42.1865 22.1284 42.3195 21.8605C42.6479 21.2123 43.0409 20.5995 43.4922 20.0319C44.1627 19.1769 44.8515 18.3272 45.7554 17.7177C46.8773 16.9617 48.1035 16.6107 49.4353 17.0778C50.261 17.3667 50.6341 18.0436 50.8598 18.8339C50.9506 19.2098 50.9931 19.5961 50.9863 19.9831ZM48.2117 17.3153C47.9627 17.3076 47.7134 17.3222 47.4669 17.3588C46.7351 17.5105 46.1546 17.9341 45.5989 18.4064C44.4523 19.3788 43.6853 20.6678 42.7878 21.8474C42.6574 22.0215 42.7004 22.1007 42.9183 22.1297C43.3213 22.1838 43.727 22.2418 44.1249 22.3316C45.7659 22.7023 47.086 23.6206 48.23 24.8305C48.4204 25.0323 48.5378 25.0429 48.7348 24.8569C48.966 24.6304 49.1676 24.375 49.3349 24.0969C50.201 22.7168 50.7698 21.2418 50.591 19.5754C50.4945 18.7165 50.0862 17.9921 49.3022 17.5567C48.968 17.3753 48.5903 17.2917 48.2117 17.3153Z" fill="#F8F2EA"/>
<path d="M27.6353 58.0895C25.4908 58.0724 23.6306 56.4535 23.3945 54.3042C23.2171 52.6813 23.8615 51.3884 25.1699 50.445C26.8252 49.251 29.0285 49.3011 30.5455 50.5769C31.5526 51.4266 31.9269 52.5718 31.8983 53.8635C31.8936 54.4311 31.7885 54.9932 31.5878 55.5233C30.9995 57.0129 29.8581 57.7768 28.3358 58.0301C28.0997 58.0578 27.8688 58.0671 27.6353 58.0895ZM31.5487 53.8055C31.5565 52.8159 31.4182 52.1378 30.9982 51.577C29.9898 50.2339 28.6854 49.5544 26.9713 49.8341C24.382 50.2563 22.9354 53.2249 24.232 55.5167C24.8542 56.6158 25.8404 57.2688 27.0339 57.5908C27.7729 57.7901 28.5585 57.7089 29.2424 57.3625C30.839 56.592 31.413 55.1855 31.5539 53.8081L31.5487 53.8055Z" fill="#F8F2EA"/>
<path d="M34.9976 17.6358C34.7817 17.633 34.5715 17.5656 34.3935 17.4421C34.2154 17.3186 34.0775 17.1445 33.9971 16.9418C33.7623 16.4141 33.8106 15.9378 34.1797 15.4905C34.3948 15.2604 34.6407 15.0618 34.9102 14.9007C35.2729 14.6527 35.766 14.8928 36.1416 15.2002C36.5173 15.5077 36.5552 15.9074 36.4521 16.3481C36.2851 17.0566 35.9264 17.6332 34.9976 17.6358ZM35.2077 15.4628C34.8268 15.4562 34.618 15.662 34.6859 15.9906C34.772 16.3864 35.0263 16.6503 35.3381 16.8772C35.363 16.8955 35.3924 16.9064 35.4231 16.9085C35.4538 16.9106 35.4845 16.9038 35.5116 16.8891C35.7138 16.7914 35.8938 16.3244 35.8351 16.0473C35.7464 15.6132 35.5912 15.4681 35.2077 15.4628ZM34.3924 16.104C34.3611 16.3837 34.5228 16.583 34.6689 16.8046C34.678 16.7677 34.6898 16.7479 34.6846 16.7347C34.5972 16.5196 34.4628 16.327 34.3924 16.104Z" fill="#181818"/>
<path d="M18.5028 24.0295C17.8949 24.0229 17.3288 23.5017 17.227 22.842C17.182 22.5489 17.2403 22.2492 17.3917 21.9952C17.5432 21.7412 17.7781 21.5492 18.0554 21.4527C18.2977 21.3564 18.557 21.3115 18.8172 21.3208C19.5007 21.3841 19.8881 21.9079 19.802 22.6019C19.742 23.0808 19.4798 23.4476 19.1759 23.7893C19.0872 23.8757 18.9812 23.9418 18.8651 23.9833C18.749 24.0247 18.6254 24.0404 18.5028 24.0295ZM17.9288 23.3051L17.9862 23.3249C17.9862 23.3117 17.9862 23.2932 17.9706 23.288C17.9406 23.2682 17.9341 23.2972 17.9249 23.3157L17.9706 23.2919C17.8821 23.1172 17.8304 22.9258 17.8187 22.7298C17.8071 22.5338 17.8357 22.3375 17.9027 22.1533C17.5505 22.462 17.574 22.8803 17.9249 23.3051H17.9288ZM19.2607 22.6058C19.2607 22.2958 18.9998 22.0781 18.6411 22.0781C18.5674 22.0752 18.494 22.0876 18.4253 22.1146C18.3566 22.1416 18.2941 22.1826 18.2417 22.2351C18.1894 22.2875 18.1482 22.3503 18.1209 22.4196C18.0935 22.4888 18.0806 22.563 18.0828 22.6375C18.0828 23.0333 18.375 23.3962 18.6985 23.3948C19.022 23.3935 19.2607 23.0558 19.2607 22.6058Z" fill="#181818"/>
<path d="M56.0306 39.2738C56.0463 39.6696 55.9315 40.0193 55.5897 40.2238C55.1905 40.4626 54.7692 40.5365 54.3387 40.2528C53.9604 40.0034 53.7622 39.3292 53.9357 38.8094C54.1092 38.2895 54.4835 38.0573 55.0171 38.1127C55.7189 38.184 56.0319 38.5429 56.0306 39.2738ZM55.4501 39.0851C55.4548 39.0267 55.4471 38.968 55.4277 38.9127C55.4083 38.8575 55.3776 38.8071 55.3376 38.7647C55.2975 38.7224 55.2491 38.689 55.1954 38.6669C55.1418 38.6449 55.0841 38.6345 55.0262 38.6365C54.7405 38.6365 54.5631 38.8542 54.5605 39.2105C54.5605 39.5403 54.7796 39.8702 55.0027 39.8636C55.2258 39.857 55.4449 39.4691 55.4501 39.0851Z" fill="#181818"/>
<path d="M56.5368 47.5198C56.2917 47.5076 56.0603 47.402 55.889 47.2243C55.7177 47.0467 55.6192 46.81 55.6132 46.562C55.6156 46.3317 55.7045 46.1111 55.8621 45.9449C56.0196 45.7787 56.2338 45.6795 56.4611 45.6674C57.1825 45.6397 57.4695 46.0263 57.2438 46.7229C57.2006 46.883 57.1456 47.0395 57.0794 47.1913C57.037 47.2986 56.9609 47.3888 56.8629 47.4482C56.7649 47.5075 56.6503 47.5327 56.5368 47.5198ZM56.7677 46.7071C56.7585 46.5844 56.6646 46.5751 56.5798 46.5751C56.4389 46.5751 56.3398 46.657 56.3489 46.8008C56.3489 46.8958 56.3894 47.0462 56.5185 47.0211C56.6476 46.996 56.7285 46.8456 56.7729 46.7071H56.7677ZM56.6803 46.0236C56.4481 45.8983 56.2889 45.955 56.1089 46.0857L56.6803 46.0236Z" fill="#181818"/>
<path d="M22.5245 27.0668C22.4671 27.3637 22.3862 27.7265 22.0262 27.9442C21.5539 28.2266 21.1678 28.0854 20.9826 27.5642C20.9423 27.4485 20.9276 27.3252 20.9397 27.2031C20.9518 27.081 20.9904 26.9631 21.0527 26.8578C21.1149 26.7525 21.1994 26.6624 21.3 26.5939C21.4006 26.5253 21.5149 26.48 21.6348 26.4612C21.8305 26.4322 22.0262 26.3939 22.2192 26.4942C22.4397 26.6129 22.5231 26.7291 22.5245 27.0668ZM22.0522 27.1024C22.0783 26.9494 21.9727 26.9111 21.8514 26.919C21.6739 26.9296 21.4952 26.9692 21.477 27.1922C21.4644 27.2673 21.4816 27.3445 21.5248 27.4069C21.568 27.4694 21.6338 27.5121 21.7079 27.526C21.854 27.5589 22.0444 27.3228 22.0522 27.1024Z" fill="#181818"/>
<path d="M49.7001 33.194C49.7823 34.3379 49.4392 35.4185 49.2109 36.5162C48.71 38.9281 47.8217 41.2014 46.8134 43.4324C45.7841 45.7097 45.4541 48.0965 45.6759 50.5795C45.7789 51.7446 45.9902 52.8937 46.1324 54.0535C46.1911 54.5311 46.2329 55.0153 46.0476 55.4824C46.0008 55.6304 45.9079 55.7591 45.7829 55.8495C45.6578 55.9398 45.5073 55.9869 45.3537 55.9837C45.0576 55.995 44.7629 55.9367 44.4927 55.8135C43.0578 55.1182 41.6125 54.4216 40.2624 53.5521C37.1069 51.5203 33.8001 49.7536 30.5612 47.8656C27.1018 45.8509 23.6476 43.8164 20.2012 41.7964C19.1577 41.1842 18.0998 40.609 17.0144 40.072C16.8736 40.0053 16.742 39.9201 16.6231 39.8186C16.2957 39.531 16.3283 39.159 16.6949 38.9241C17.0499 38.7178 17.4444 38.5905 17.8519 38.5507C18.7817 38.4317 19.7035 38.2554 20.6121 38.023C21.3426 37.8277 21.9453 37.4068 22.561 36.9925C24.0741 35.9779 25.2782 34.6176 26.5604 33.3497C28.1258 31.7968 29.5385 30.1067 30.9851 28.4469C32.2739 26.9665 33.7127 25.6696 35.4503 24.7394C36.7365 24.0507 38.0931 23.552 39.5463 23.4385C43.4087 23.139 46.5825 24.6193 48.5339 28.1883C49.2605 29.5182 49.5436 31.0025 49.6584 32.5132C49.6727 32.7375 49.6845 32.9618 49.7001 33.194ZM45.1424 24.7961L45.0889 24.7486L44.9832 24.6932C44.9597 24.6655 44.931 24.6484 44.9049 24.684C44.9049 24.6906 44.9284 24.7209 44.9415 24.7394L45.0445 24.7961L45.0993 24.8436C45.1254 24.8674 45.1541 24.8872 45.1802 24.8502C45.188 24.8436 45.1554 24.8146 45.1424 24.7961ZM26.8344 34.8235C26.8344 34.8604 26.8187 34.8776 26.7822 34.8762L26.7378 34.9356C26.6152 35.0464 26.4991 35.1665 26.3674 35.2668C25.1934 36.1719 24.1002 37.1852 22.8454 37.9966C22.8793 38.0115 22.9166 38.0163 22.9531 38.0104C22.9897 38.0046 23.0238 37.9883 23.0515 37.9636C24.4193 37.1917 25.6581 36.2063 26.7222 35.0438C26.7483 35.0135 26.8226 34.9778 26.7352 34.9316C26.7548 34.9316 26.7691 34.9844 26.79 34.9409C26.7978 34.9237 26.79 34.8973 26.7822 34.8762C26.8409 34.9013 26.85 34.8762 26.8331 34.8248L26.8565 34.8314H26.85L26.8344 34.8235ZM37.2087 50.7102C37.1852 50.6851 37.1591 50.6706 37.133 50.7036C37.133 50.7036 37.1565 50.7366 37.1695 50.755C37.2035 50.7827 37.2465 50.8144 37.2752 50.7669C37.3039 50.7194 37.2413 50.722 37.2087 50.7128V50.7102ZM46.6347 39.4413C46.6086 39.4703 46.5773 39.4967 46.6177 39.5614C46.6242 39.5099 46.6281 39.4743 46.632 39.44L46.6842 39.3331C46.7364 39.2922 46.7299 39.2315 46.7377 39.1761C46.7521 39.1563 46.8003 39.1471 46.7547 39.1115L46.739 39.1774C46.6842 39.217 46.696 39.279 46.6868 39.3344L46.6347 39.4413ZM44.721 24.5323C44.6975 24.5019 44.6701 24.4834 44.6414 24.5217C44.6414 24.5217 44.6662 24.5587 44.6806 24.5784C44.738 24.6207 44.7849 24.6972 44.8762 24.6444C44.8649 24.6121 44.8438 24.5842 44.8159 24.5645C44.7881 24.5449 44.7549 24.5346 44.721 24.5349V24.5323ZM40.7711 53.031C40.7894 53.0481 40.8116 53.0692 40.8298 53.031C40.8298 53.023 40.8155 53.0033 40.8064 52.9887C40.6767 52.8724 40.5134 52.8016 40.3407 52.7869C40.4613 52.9031 40.6096 52.9858 40.7711 53.027V53.031ZM17.0471 39.064C16.8331 39.1695 16.8331 39.1695 16.7718 39.3384C17.0131 39.217 17.0131 39.217 17.0445 39.0574C17.0445 39.0864 17.0653 39.0956 17.0875 39.0798C17.1097 39.064 17.1045 39.0442 17.1005 39.0415C17.0745 39.0231 17.0588 39.0429 17.0471 39.064ZM37.0052 51.0215C37.043 50.9965 37.0469 50.9714 37.0052 50.9569C36.9895 50.9569 36.9465 50.9331 36.9582 50.9806C36.9582 50.9965 36.996 51.0057 37.0169 51.0176L37.2622 51.1614C37.9431 51.548 38.6188 51.9438 39.3297 52.271C39.444 52.3714 39.5881 52.4304 39.7393 52.4386L39.3597 52.2341C38.6279 51.8382 37.8948 51.4292 37.1617 51.0295C37.1121 51.0057 37.0587 50.9424 37.0065 51.0215H37.0052ZM44.5397 50.3223L44.4784 49.7945C44.4363 49.9282 44.4194 50.0688 44.4288 50.2088C44.4325 50.2425 44.4399 50.2757 44.451 50.3078C44.4627 50.3764 44.4797 50.4397 44.4849 50.5149C44.5461 51.3192 44.7082 52.1124 44.9676 52.8753C45.0857 53.241 45.2381 53.5944 45.4228 53.9308C45.4763 53.7988 45.4085 53.7157 45.3745 53.63C44.9493 52.5599 44.7732 51.4332 44.5358 50.3223H44.5397ZM48.1804 31.5105C48.2152 31.3528 48.2152 31.1893 48.1804 31.0315C47.9636 29.5579 47.2409 28.2085 46.139 27.2198C45.325 26.485 44.5123 25.7883 43.3996 25.5152C42.3978 25.2724 41.4051 25.0455 40.3615 25.1563C38.1231 25.3912 36.169 26.3055 34.4406 27.7265C32.0248 29.7056 29.8907 31.9841 27.9105 34.4065C27.0445 35.4594 26.113 36.4553 25.1216 37.3883C23.9815 38.4676 22.6275 39.221 21.1822 39.8081C20.98 39.8899 20.7765 39.9677 20.543 40.0588C28.4141 44.4721 36.1742 49.0042 43.8927 53.6075C43.9057 53.5764 43.9117 53.5426 43.9101 53.5088C43.9085 53.475 43.8995 53.442 43.8836 53.4123C43.7324 52.9354 43.6199 52.447 43.547 51.9517C43.3474 50.4291 43.4583 48.9171 43.7296 47.4143C43.9638 46.2184 44.2967 45.0444 44.7249 43.9048C45.3432 42.1724 45.8989 40.415 46.4612 38.6629C46.8616 37.4213 47.3051 36.1943 47.4395 34.8762C47.6704 32.6029 47.2556 30.4906 46.0503 28.5432C45.8976 28.3293 45.7812 28.0912 45.7059 27.8386C45.655 27.6143 45.7372 27.5207 45.9589 27.5748C46.1618 27.6333 46.3383 27.761 46.4585 27.9363C46.6907 28.2435 46.9008 28.5671 47.0873 28.9047C47.536 29.7359 47.8282 30.6265 48.1804 31.5105ZM45.0576 47.6479C44.8332 49.3538 44.8671 51.0347 45.5363 52.6523C45.1778 51.0098 45.017 49.3294 45.0576 47.6479ZM34.0362 27.2172C34.9893 26.4918 36.0057 25.8559 37.073 25.3173C35.8573 25.6115 34.9128 26.3649 34.0362 27.2172ZM32.2622 48.0424C33.3488 48.7205 34.4341 49.4013 35.6316 49.8658C34.5241 49.2272 33.414 48.5926 32.2622 48.0424ZM19.8008 41.2845C19.7147 41.0351 18.8876 40.5324 18.6881 40.5892L19.8008 41.2845ZM46.9699 41.1671L46.9008 41.1394L46.2851 42.7503L46.3542 42.778L46.9699 41.1671ZM38.9827 24.1628C39.5009 24.2107 40.0231 24.1912 40.5363 24.1048C40.0182 24.0556 39.4959 24.0751 38.9827 24.1628ZM41.6008 23.9583L43.1152 24.3383C42.6408 24.1098 42.1257 23.9806 41.6008 23.9583ZM38.2744 24.3132C37.8583 24.2921 37.4917 24.4808 37.1004 24.5956C37.527 24.6141 37.8922 24.4148 38.2744 24.3132ZM44.6271 52.9228C44.6406 53.2555 44.7574 53.5754 44.961 53.8371L44.6271 52.9228ZM43.5092 54.6815L43.5496 54.6155L42.8661 54.3108L42.84 54.3715C43.0493 54.5028 43.2741 54.607 43.5092 54.6815ZM48.1596 32C48.1843 32.2335 48.1596 32.4842 48.2717 32.7098C48.3063 32.5905 48.3141 32.4649 48.2947 32.3421C48.2753 32.2193 48.2292 32.1025 48.1596 32ZM31.6961 47.7231C31.8474 47.8102 31.957 47.9711 32.2178 47.987C32.0196 47.8524 31.8826 47.7389 31.6961 47.7231ZM44.6819 48.231C44.7453 48.0432 44.7628 47.8427 44.7328 47.6466C44.7041 47.8141 44.6154 47.9751 44.6819 48.231ZM35.6812 49.9106C35.8359 50.0362 36.013 50.1307 36.2029 50.189C36.0492 50.0588 35.8694 49.9638 35.6759 49.9106H35.6812ZM36.546 50.3526C36.4469 50.2959 36.3751 50.2537 36.2995 50.2141C36.289 50.2141 36.2695 50.2207 36.2538 50.2246C36.2721 50.2814 36.323 50.2972 36.3686 50.317C36.4143 50.3368 36.4482 50.3896 36.5408 50.3526H36.546ZM46.8708 38.8252C46.846 38.8595 46.8225 38.8779 46.8186 38.9004C46.8147 38.9228 46.7703 38.9954 46.8525 38.9663C46.8838 38.9531 46.8942 38.899 46.8655 38.8252H46.8708ZM43.4922 24.4531C43.5222 24.4966 43.5627 24.5705 43.6527 24.5336L43.4922 24.4531ZM43.3618 24.4531C43.3266 24.395 43.2848 24.3278 43.1922 24.3726L43.3618 24.4531ZM36.6204 50.4318C36.6204 50.4846 36.6608 50.4991 36.696 50.5175C36.7102 50.5264 36.7269 50.53 36.7434 50.5276C36.7599 50.5252 36.775 50.5169 36.786 50.5043C36.7826 50.484 36.7736 50.465 36.76 50.4496C36.7464 50.4341 36.7287 50.4229 36.7091 50.4173C36.6951 50.4083 36.6783 50.4049 36.662 50.4075C36.6457 50.4102 36.6309 50.4188 36.6204 50.4318ZM31.5813 47.6241L31.5487 47.5991C31.5437 47.6103 31.5394 47.6217 31.5356 47.6334C31.5356 47.6334 31.5487 47.6479 31.5526 47.6452C31.5625 47.6388 31.5721 47.6317 31.5813 47.6241ZM47.0286 38.4386C47.0324 38.4311 47.035 38.4231 47.0364 38.4148C47.0364 38.3871 47.0247 38.3832 47.0156 38.4029C47.013 38.4111 47.013 38.4199 47.0156 38.428C47.0156 38.428 47.0234 38.4346 47.0286 38.4386ZM46.9386 38.6919L46.9229 38.6747C46.9155 38.6873 46.9094 38.7005 46.9047 38.7143C46.9047 38.7143 46.9138 38.7262 46.919 38.7328L46.9386 38.6919ZM45.0145 53.9598C45.0145 53.9453 45.0067 53.9215 44.9976 53.9189C44.9689 53.911 44.9597 53.9321 44.9663 53.9572C44.9726 53.9716 44.9805 53.9853 44.9897 53.9981L45.0145 53.9598ZM42.7448 54.3068C42.7448 54.3068 42.7448 54.291 42.7448 54.2897C42.7448 54.2883 42.7278 54.2817 42.7226 54.2897C42.7174 54.2976 42.7043 54.3121 42.7226 54.3187C42.7409 54.3253 42.7369 54.3094 42.7448 54.3068ZM43.7531 24.5877C43.7466 24.5811 43.7414 24.5705 43.7362 24.5692C43.7309 24.5679 43.7231 24.5798 43.7179 24.585C43.7127 24.5903 43.7296 24.6009 43.7349 24.6009C43.7401 24.6009 43.7453 24.5916 43.7531 24.5877ZM44.5749 24.4557C44.5749 24.4557 44.558 24.4676 44.5593 24.4716C44.5632 24.4832 44.5684 24.4942 44.5749 24.5046C44.5749 24.5046 44.5919 24.4927 44.5906 24.4887C44.5866 24.4763 44.5804 24.4646 44.5723 24.4544L44.5749 24.4557ZM36.8578 50.5334L36.8252 50.5518C36.8252 50.5584 36.8369 50.5703 36.8421 50.569C36.8543 50.5651 36.8657 50.5594 36.876 50.5518L36.8578 50.5334ZM36.9791 50.6059C36.9791 50.6059 36.9674 50.5888 36.9634 50.5901C36.9517 50.5938 36.9403 50.5987 36.9295 50.6046C36.9295 50.6046 36.9413 50.6204 36.9465 50.6204C36.9579 50.617 36.9689 50.6121 36.9791 50.6059ZM37.0665 50.6759L37.0835 50.66C37.0735 50.6533 37.0625 50.6484 37.0508 50.6455C37.0508 50.6455 37.0404 50.6534 37.0352 50.6587L37.0665 50.6759ZM45.248 24.8885L45.2311 24.8991C45.2311 24.8991 45.2389 24.9136 45.2441 24.9136C45.2493 24.9136 45.2558 24.907 45.2611 24.903L45.248 24.8885ZM44.4823 24.4175C44.4823 24.4175 44.468 24.4069 44.464 24.4096C44.438 24.4188 44.438 24.432 44.464 24.4439C44.464 24.4439 44.4771 24.4439 44.4823 24.4346C44.4875 24.4254 44.4823 24.4241 44.4823 24.4175ZM44.3688 24.3607L44.3532 24.3753C44.3532 24.3753 44.3623 24.3898 44.3688 24.3898C44.3753 24.3898 44.3793 24.3805 44.3845 24.3766L44.3688 24.3607Z" fill="#181818"/>
<path d="M48.2117 17.3152C48.5903 17.2916 48.968 17.3752 49.3022 17.5566C50.0849 17.9947 50.4945 18.7164 50.591 19.5753C50.7763 21.2417 50.1997 22.7167 49.3348 24.0968C49.1676 24.3749 48.9659 24.6303 48.7348 24.8568C48.5378 25.0428 48.4204 25.0323 48.23 24.8304C47.086 23.6205 45.7658 22.7022 44.1248 22.3315C43.727 22.2418 43.3213 22.1837 42.9182 22.1296C42.7004 22.1006 42.6573 22.0214 42.7878 21.8473C43.6852 20.6677 44.4523 19.3787 45.5989 18.4063C46.1546 17.934 46.7351 17.5104 47.4669 17.3587C47.7134 17.3221 47.9626 17.3075 48.2117 17.3152ZM45.3015 19.7283C45.3015 19.7059 45.3197 19.669 45.3132 19.6637C45.2806 19.6439 45.2767 19.6756 45.2702 19.6967L45.218 19.7494C44.6845 20.2244 44.3218 20.83 43.9227 21.4369C43.9957 21.4475 44.0531 21.4673 44.0596 21.4541C44.4614 20.8982 44.8606 20.3414 45.2571 19.7837L45.3015 19.7283ZM49.5018 23.5545L49.5435 23.5004L49.5135 23.4859C49.5135 23.5097 49.507 23.5334 49.5044 23.5572L49.4914 23.5757L49.5018 23.5545ZM50.0979 22.0953C50.2174 21.8278 50.2865 21.5401 50.3014 21.2469C50.3254 21.1986 50.3379 21.1453 50.3379 21.0913C50.3379 21.0372 50.3254 20.9839 50.3014 20.9356C50.2871 21.0583 50.2766 21.1401 50.2675 21.2232C50.1705 21.4973 50.101 21.7807 50.0601 22.0689C50.0236 22.1072 49.9923 22.1797 50.0353 22.2009C50.1045 22.218 50.0745 22.1283 50.0979 22.0953ZM44.3479 21.5161C45.685 21.9489 46.9568 22.4265 47.9925 23.3751C48.0773 23.4529 48.1165 23.4173 48.166 23.3355C48.6526 22.5347 49.0505 21.7034 49.0792 20.7377C49.0922 20.3418 49.0022 19.946 48.71 19.7072C48.0747 19.1874 47.4355 18.9763 46.589 19.4354C45.6771 19.9289 45.081 20.7838 44.3479 21.5161ZM49.4353 19.8933C49.4835 19.0568 48.9135 18.1886 48.3917 18.2493C48.9709 18.6227 49.2657 19.1847 49.434 19.8998L49.4353 19.8933ZM48.8952 23.2669C48.757 23.5216 48.6187 23.7379 48.6213 24.0124C48.7248 23.8359 48.8155 23.652 48.8926 23.4622C48.9081 23.4321 48.9162 23.3986 48.9165 23.3647C48.9167 23.3308 48.909 23.2973 48.8939 23.2669H48.8952ZM49.6675 23.2009C49.7901 23.0281 49.7901 23.0281 49.7979 22.879C49.7557 22.9204 49.7223 22.9701 49.6997 23.025C49.677 23.0799 49.6656 23.1388 49.6662 23.1983L49.6675 23.2009ZM50.0249 22.3592L50.004 22.3183C49.9949 22.3288 49.9766 22.342 49.9779 22.3513C49.984 22.3693 49.9928 22.3862 50.004 22.4014C50.0113 22.3877 50.0178 22.3736 50.0236 22.3592H50.0249ZM49.8357 22.7392C49.8357 22.7576 49.8227 22.7748 49.8266 22.7867C49.8305 22.7985 49.8501 22.813 49.8618 22.7867C49.8736 22.7603 49.8684 22.7682 49.8618 22.7629C49.8534 22.7542 49.8442 22.7462 49.8344 22.7392H49.8357ZM49.5983 23.3725L49.584 23.3527C49.5775 23.3593 49.5683 23.3646 49.5683 23.3698C49.5683 23.3751 49.5762 23.383 49.5814 23.3896L49.5983 23.3725ZM49.6518 23.2669L49.6375 23.2471C49.6309 23.2471 49.6218 23.259 49.6205 23.2643C49.6192 23.2696 49.6296 23.2775 49.6349 23.2841C49.6404 23.2786 49.6456 23.2729 49.6505 23.2669H49.6518Z" fill="#181818"/>
<path d="M31.5539 53.8082C31.413 55.1883 30.8417 56.5947 29.2502 57.3705C28.5664 57.7169 27.7808 57.7981 27.0418 57.5988C25.8482 57.2769 24.8621 56.6238 24.2398 55.5247C22.9354 53.233 24.3872 50.2643 26.9792 49.8421C28.6932 49.5624 29.9977 50.2379 31.006 51.585C31.4248 52.1379 31.5617 52.816 31.5539 53.8082ZM29.172 55.9192C29.1276 55.8717 29.0898 55.9192 29.0493 55.9298C29.0476 55.9363 29.0476 55.9431 29.0493 55.9496C29.0689 55.9561 29.09 55.956 29.1096 55.9493C29.1291 55.9427 29.1459 55.9298 29.1576 55.9126C29.1863 55.9021 29.2398 55.9047 29.1954 55.8506C29.3259 55.877 29.3885 55.7714 29.4694 55.7015C29.5346 55.6817 29.5685 55.6421 29.5424 55.5696L29.4329 55.6646C29.3559 55.7279 29.2789 55.7965 29.2033 55.8559C29.1772 55.8678 29.1146 55.8612 29.172 55.9192ZM27.4944 55.8625C28.0111 55.8704 28.5176 55.7165 28.9444 55.422C29.3713 55.1275 29.6977 54.7067 29.879 54.2172C30.2703 53.2198 30.0733 52.1062 29.3428 51.4175C28.6828 50.796 27.8923 50.6694 27.0366 50.8897C25.933 51.1747 25.0108 52.254 24.9834 53.2818C24.9806 53.6181 25.0434 53.9516 25.1681 54.2634C25.2928 54.5752 25.477 54.8591 25.7102 55.0988C25.9434 55.3386 26.2209 55.5296 26.5271 55.6608C26.8332 55.7921 27.1619 55.861 27.4944 55.8638V55.8625Z" fill="#181818"/>
<path d="M35.2077 15.4628C35.5912 15.4628 35.7464 15.6132 35.839 16.0499C35.8977 16.327 35.7177 16.7941 35.5155 16.8917C35.4884 16.9065 35.4578 16.9132 35.4271 16.9111C35.3964 16.909 35.3669 16.8982 35.342 16.8798C35.0316 16.6542 34.7772 16.3837 34.6898 15.9932C34.622 15.662 34.8268 15.4562 35.2077 15.4628Z" fill="#F8F2EA"/>
<path d="M34.3923 16.104C34.4628 16.327 34.5971 16.5196 34.6845 16.7347C34.6845 16.7479 34.6845 16.7677 34.6689 16.8046C34.5202 16.5829 34.361 16.3837 34.3923 16.104Z" fill="#F8F2EA"/>
<path d="M19.2607 22.6059C19.2607 23.0558 19.0207 23.3896 18.6985 23.3975C18.3763 23.4054 18.0788 23.0333 18.0828 22.6402C18.0806 22.5656 18.0935 22.4915 18.1209 22.4222C18.1482 22.353 18.1894 22.2902 18.2417 22.2377C18.2941 22.1853 18.3566 22.1443 18.4253 22.1172C18.494 22.0902 18.5674 22.0778 18.6411 22.0807C19.0037 22.0755 19.2607 22.2958 19.2607 22.6059Z" fill="#F8F2EA"/>
<path d="M17.9249 23.3065C17.5701 22.8803 17.5466 22.4621 17.8988 22.1533C17.8318 22.3376 17.8032 22.5338 17.8148 22.7298C17.8265 22.9258 17.8782 23.1172 17.9667 23.2919L17.921 23.3157L17.9249 23.3065Z" fill="#F8F2EA"/>
<path d="M17.9249 23.3163C17.934 23.2976 17.9404 23.2682 17.9702 23.2882C17.9792 23.2882 17.9805 23.3123 17.9857 23.3257L17.9288 23.3056L17.9249 23.3163Z" fill="#F8F2EA"/>
<path d="M55.4501 39.0851C55.4501 39.469 55.2218 39.8569 55.0027 39.8635C54.7835 39.8701 54.5566 39.5403 54.5605 39.2104C54.5605 38.8542 54.7405 38.6365 55.0262 38.6365C55.0841 38.6344 55.1417 38.6448 55.1954 38.6669C55.2491 38.689 55.2975 38.7223 55.3376 38.7647C55.3776 38.807 55.4083 38.8575 55.4277 38.9127C55.4471 38.9679 55.4547 39.0267 55.4501 39.0851Z" fill="#F8F2EA"/>
<path d="M56.7733 46.7074C56.7289 46.8461 56.6675 46.9927 56.5239 47.0204C56.3802 47.0481 56.3606 46.8949 56.3541 46.7998C56.345 46.6559 56.4442 46.5753 56.5852 46.574C56.6675 46.574 56.7641 46.5845 56.7733 46.7074Z" fill="#F8F2EA"/>
<path d="M56.6802 46.0237L56.1089 46.0857C56.2928 45.9485 56.448 45.8917 56.6802 46.0237Z" fill="#F8F2EA"/>
<path d="M22.0522 27.1023C22.0444 27.3227 21.8539 27.5588 21.7026 27.5259C21.6295 27.5108 21.565 27.4676 21.5229 27.4052C21.4807 27.3429 21.4643 27.2665 21.477 27.1921C21.4952 26.9691 21.6739 26.9282 21.8513 26.9189C21.9687 26.911 22.0783 26.9493 22.0522 27.1023Z" fill="#F8F2EA"/>
<path d="M48.1804 31.5105C47.8282 30.6225 47.5399 29.732 47.0925 28.9087C46.906 28.5711 46.6959 28.2475 46.4637 27.9402C46.3435 27.765 46.1669 27.6372 45.9641 27.5787C45.7424 27.522 45.6602 27.6157 45.7111 27.8426C45.7864 28.0952 45.9028 28.3333 46.0554 28.5471C47.2608 30.4906 47.6756 32.6029 47.4447 34.8802C47.3142 36.1996 46.8668 37.4253 46.4663 38.6668C45.9015 40.419 45.3484 42.1764 44.7301 43.9087C44.3019 45.0484 43.9689 46.2223 43.7348 47.4183C43.4635 48.925 43.3526 50.4331 43.5522 51.9557C43.6236 52.4495 43.7344 52.9366 43.8835 53.4123C43.8999 53.4416 43.9095 53.4742 43.9118 53.5077C43.914 53.5413 43.9088 53.5749 43.8966 53.6062C36.1742 49.0029 28.414 44.4708 20.5469 40.0575C20.7804 39.9664 20.9839 39.8886 21.1861 39.8068C22.6314 39.2196 23.9854 38.4663 25.1255 37.387C26.117 36.4566 27.049 35.4633 27.9157 34.4131C29.8959 31.9907 32.03 29.7174 34.4458 27.7331C36.1742 26.3121 38.1283 25.3978 40.3667 25.1629C41.4103 25.0547 42.3978 25.279 43.3996 25.5258C44.5084 25.7989 45.321 26.4955 46.1389 27.2304C47.2408 28.2191 47.9636 29.5685 48.1804 31.0421C48.2136 31.1964 48.2136 31.3562 48.1804 31.5105ZM35.2402 47.4077C35.4607 47.417 35.5272 47.3207 35.4242 47.1214C35.3115 46.8843 35.1511 46.6735 34.9532 46.5026C34.6617 46.2532 34.3511 46.0273 34.0245 45.8271C32.8805 45.1476 31.6765 44.5737 30.5025 43.9708C30.1424 43.7874 29.7928 43.5749 29.3832 43.4971C29.168 43.4536 29.0089 43.4971 28.9241 43.6752C28.8393 43.8533 29.0545 43.8705 29.1315 43.9549C29.171 43.9892 29.2149 44.018 29.2619 44.0407C31.096 45.1424 32.9235 46.2533 34.8019 47.2771C34.936 47.3552 35.0859 47.4013 35.2402 47.4117V47.4077ZM33.7192 44.7294C33.6654 44.7317 33.613 44.7481 33.5673 44.777C33.5215 44.8059 33.484 44.8464 33.4583 44.8943C33.3983 44.9959 33.4988 45.0394 33.551 45.083C33.9826 45.4498 34.4448 45.7783 34.9324 46.0646C35.0198 46.1174 35.162 46.215 35.2572 46.0791C35.3524 45.9432 35.2494 45.8377 35.1659 45.7532C34.7967 45.3825 34.4249 45.0117 33.9293 44.8112C33.8575 44.7848 33.7845 44.7584 33.7192 44.7334V44.7294Z" fill="#F8F2EA"/>
<path d="M26.7339 34.9329C26.8226 34.9804 26.7483 35.016 26.7222 35.0463C25.6581 36.2089 24.4193 37.1943 23.0514 37.9661C23.0237 37.9909 22.9896 38.0071 22.9531 38.013C22.9166 38.0188 22.8792 38.014 22.8453 37.9991C24.1002 37.1877 25.1934 36.1744 26.3674 35.2693C26.4978 35.169 26.6152 35.049 26.7391 34.9395L26.7339 34.9329Z" fill="#F8F2EA"/>
<path d="M45.0576 47.6479C45.017 49.3295 45.1778 51.0099 45.5363 52.6524C44.8658 51.0374 44.8319 49.3539 45.0576 47.6479Z" fill="#F8F2EA"/>
<path d="M34.0363 27.2173C34.9128 26.3584 35.8625 25.6116 37.073 25.3174C36.0057 25.8559 34.9893 26.4919 34.0363 27.2173Z" fill="#F8F2EA"/>
<path d="M44.5358 50.3223C44.768 51.4346 44.9441 52.5653 45.3706 53.6208C45.4045 53.7066 45.4724 53.7884 45.4189 53.9216C45.2342 53.5853 45.0818 53.2318 44.9636 52.8661C44.7043 52.1032 44.5421 51.3101 44.481 50.5057C44.481 50.4358 44.4588 50.3672 44.4471 50.2986L44.5358 50.3223Z" fill="#F8F2EA"/>
<path d="M32.2622 48.0425C33.414 48.5927 34.5241 49.2299 35.6316 49.8659C34.4341 49.4014 33.3488 48.7206 32.2622 48.0425Z" fill="#F8F2EA"/>
<path d="M39.3258 52.271C38.6149 51.9438 37.9392 51.548 37.2583 51.1614L37.013 51.0176H37.0052C37.0587 50.9371 37.1122 51.0004 37.1578 51.0242C37.8909 51.42 38.624 51.8277 39.3558 52.2288L39.3258 52.271Z" fill="#F8F2EA"/>
<path d="M19.8007 41.2845L18.688 40.5891C18.8915 40.5324 19.7147 41.0351 19.8007 41.2845Z" fill="#F8F2EA"/>
<path d="M46.9699 41.1672L46.3542 42.7781L46.285 42.7504L46.9007 41.1421L46.9699 41.1672Z" fill="#F8F2EA"/>
<path d="M38.9827 24.1629C39.4959 24.0751 40.0182 24.0556 40.5363 24.1048C40.023 24.1913 39.5009 24.2108 38.9827 24.1629Z" fill="#F8F2EA"/>
<path d="M41.6008 23.9583C42.1257 23.9805 42.6408 24.1098 43.1152 24.3382L41.6008 23.9583Z" fill="#F8F2EA"/>
<path d="M38.2744 24.3132C37.8831 24.4147 37.5217 24.614 37.1004 24.5955C37.4917 24.4807 37.8635 24.292 38.2744 24.3132Z" fill="#F8F2EA"/>
<path d="M44.6271 52.9229L44.961 53.8372C44.7574 53.5755 44.6406 53.2556 44.6271 52.9229Z" fill="#F8F2EA"/>
<path d="M43.5092 54.6815C43.2741 54.607 43.0493 54.5029 42.84 54.3715L42.8661 54.3108L43.5496 54.6156L43.5092 54.6815Z" fill="#484848"/>
<path d="M48.1595 32C48.2291 32.1025 48.2753 32.2194 48.2947 32.3421C48.3141 32.4649 48.3063 32.5905 48.2717 32.7098C48.1556 32.4842 48.1882 32.2335 48.1595 32Z" fill="#484848"/>
<path d="M31.696 47.7231C31.8841 47.739 32.0199 47.8552 32.2184 47.9873C31.9585 47.9715 31.8475 47.8103 31.696 47.7231Z" fill="#484848"/>
<path d="M44.6816 48.231C44.6157 47.975 44.7036 47.814 44.732 47.6465C44.7617 47.8426 44.7444 48.0432 44.6816 48.231Z" fill="#F8F2EA"/>
<path d="M35.676 49.9106C35.8678 49.9646 36.0459 50.0597 36.1983 50.1893C36.0082 50.131 35.8309 50.0364 35.676 49.9106Z" fill="#F8F2EA"/>
<path d="M17.0447 39.0562C17.0134 39.2173 17.0134 39.2173 16.7718 39.3388C16.8332 39.1697 16.8332 39.1697 17.0473 39.0641L17.0447 39.0562Z" fill="#F8F2EA"/>
<path d="M40.7703 53.0272C40.6092 52.9859 40.4613 52.9036 40.3406 52.7881C40.5135 52.8028 40.677 52.8737 40.8068 52.9902L40.7703 53.0272Z" fill="#484848"/>
<path d="M39.3558 52.2341L39.7358 52.4389C39.5845 52.4307 39.4402 52.3717 39.3258 52.2711L39.3558 52.2341Z" fill="#F8F2EA"/>
<path d="M44.5359 50.3229L44.4471 50.3031C44.436 50.271 44.4285 50.2378 44.4249 50.204C44.4155 50.0639 44.4323 49.9232 44.4745 49.7893L44.5359 50.3229Z" fill="#484848"/>
<path d="M36.5411 50.3527C36.4419 50.3896 36.4105 50.3368 36.3635 50.317C36.3165 50.2972 36.2669 50.2813 36.2486 50.2245C36.2643 50.2245 36.2839 50.2087 36.2943 50.214C36.37 50.2536 36.4484 50.2959 36.5411 50.3527Z" fill="#F8F2EA"/>
<path d="M46.8645 38.8252C46.8927 38.8987 46.885 38.9564 46.8465 38.9656C46.7656 38.9945 46.8079 38.9249 46.8131 38.9C46.8182 38.8751 46.8401 38.8593 46.8645 38.8252Z" fill="#484848"/>
<path d="M43.4922 24.4531L43.6518 24.5332C43.5661 24.5699 43.5259 24.4964 43.4922 24.4531Z" fill="#F8F2EA"/>
<path d="M43.3614 24.4516L43.1922 24.3713C43.2846 24.3265 43.3263 24.3937 43.3614 24.4516Z" fill="#F8F2EA"/>
<path d="M44.721 24.5349C44.7553 24.5348 44.7888 24.5455 44.8167 24.5657C44.8445 24.5858 44.8655 24.6143 44.8764 24.6472C44.785 24.7 44.738 24.6234 44.6805 24.5811L44.721 24.5349Z" fill="#484848"/>
<path d="M36.6204 50.4318C36.6308 50.4189 36.6456 50.4103 36.6619 50.4076C36.6782 50.4049 36.6949 50.4084 36.7089 50.4173C36.7285 50.423 36.7461 50.4342 36.7597 50.4496C36.7733 50.4649 36.7823 50.4839 36.7857 50.5042C36.7747 50.5168 36.7596 50.525 36.7432 50.5274C36.7267 50.5299 36.71 50.5263 36.6959 50.5174C36.6607 50.499 36.6177 50.4845 36.6204 50.4318Z" fill="#484848"/>
<path d="M31.5804 47.6237C31.5714 47.6312 31.562 47.6381 31.5522 47.6445C31.5522 47.6445 31.5356 47.6367 31.5356 47.6328C31.5393 47.6214 31.5436 47.6101 31.5484 47.5991L31.5804 47.6237Z" fill="#484848"/>
<path d="M46.6868 39.3363C46.6959 39.2812 46.6868 39.2195 46.7387 39.1802C46.731 39.2353 46.7387 39.2957 46.6855 39.3363H46.6868Z" fill="#484848"/>
<path d="M46.632 39.4426C46.632 39.4767 46.6242 39.5122 46.6177 39.5634C46.5772 39.4991 46.6085 39.4728 46.6346 39.4439L46.632 39.4426Z" fill="#484848"/>
<path d="M47.0279 38.4378C47.0279 38.4378 47.0154 38.4378 47.0141 38.4274C47.0116 38.4194 47.0116 38.4108 47.0141 38.4028C47.0229 38.3833 47.0316 38.3872 47.0342 38.4144C47.0332 38.4225 47.0311 38.4303 47.0279 38.4378Z" fill="#484848"/>
<path d="M46.6841 39.3357C46.6672 39.3712 46.6502 39.4068 46.632 39.4423C46.6489 39.4068 46.6659 39.3712 46.6841 39.3357Z" fill="#484848"/>
<path d="M46.739 39.1794L46.7546 39.114C46.8001 39.1493 46.7546 39.1585 46.7377 39.1781L46.739 39.1794Z" fill="#484848"/>
<path d="M45.044 24.7968L44.9415 24.739L44.983 24.6931L45.0881 24.7482L45.044 24.7968Z" fill="#484848"/>
<path d="M17.047 39.0637C17.0586 39.0427 17.0742 39.0231 17.1 39.0414C17.1 39.0414 17.1 39.0728 17.0871 39.0793C17.0742 39.0859 17.047 39.0859 17.0444 39.0558L17.047 39.0637Z" fill="#F8F2EA"/>
<path d="M37.2086 50.7129C37.2411 50.7221 37.2906 50.7418 37.275 50.7695C37.2593 50.7971 37.2034 50.7853 37.1696 50.7576L37.2086 50.7129Z" fill="#484848"/>
<path d="M37.0122 51.0174C36.9916 51.0056 36.9568 50.9964 36.9542 50.9806C36.9427 50.9332 36.9852 50.9529 37.0006 50.9569C37.047 50.9714 37.0432 50.9964 37.0006 51.0227L37.0122 51.0174Z" fill="#F8F2EA"/>
<path d="M46.9385 38.6918L46.919 38.7323C46.919 38.7258 46.9034 38.7179 46.9047 38.714C46.9094 38.7004 46.9155 38.6872 46.9229 38.6748L46.9385 38.6918Z" fill="#484848"/>
<path d="M45.0142 53.9596L44.9896 53.9976C44.9804 53.9849 44.9726 53.9713 44.9663 53.9569C44.9598 53.932 44.9663 53.911 44.9974 53.9189C45.0064 53.9215 45.009 53.9399 45.0142 53.9596Z" fill="#F8F2EA"/>
<path d="M42.7434 54.3063C42.7359 54.3063 42.7284 54.3141 42.7221 54.3128C42.7158 54.3115 42.697 54.2947 42.7221 54.2844C42.7472 54.274 42.7371 54.2844 42.7434 54.2844C42.7497 54.2844 42.7422 54.2999 42.7434 54.3063Z" fill="#484848"/>
<path d="M44.9409 24.7389C44.928 24.7206 44.9011 24.6904 44.9049 24.6838C44.9306 24.6484 44.9589 24.6655 44.982 24.693C44.9679 24.7074 44.955 24.7232 44.9409 24.7389Z" fill="#484848"/>
<path d="M43.7517 24.5872C43.7517 24.5872 43.7404 24.6001 43.7342 24.6001C43.7279 24.6001 43.7229 24.5897 43.7179 24.5846C43.7128 24.5794 43.7292 24.5691 43.7354 24.5691C43.7417 24.5691 43.7429 24.5807 43.7517 24.5872Z" fill="#F8F2EA"/>
<path d="M44.6799 24.5805C44.6658 24.5608 44.6376 24.5307 44.6414 24.5241C44.6696 24.4861 44.6966 24.5044 44.7197 24.5346L44.6799 24.5805Z" fill="#484848"/>
<path d="M44.5733 24.4543C44.5794 24.4645 44.5841 24.4753 44.5875 24.4866C44.5875 24.4866 44.5772 24.497 44.5721 24.5021C44.5656 24.492 44.5605 24.4812 44.5566 24.4698C44.5566 24.4698 44.5669 24.4595 44.5733 24.4543Z" fill="#484848"/>
<path d="M26.782 34.8788C26.782 34.8999 26.7977 34.9262 26.7898 34.9433C26.769 34.9867 26.7547 34.9354 26.7339 34.9341C26.7469 34.913 26.7625 34.8933 26.7768 34.8735L26.782 34.8788Z" fill="#F8F2EA"/>
<path d="M26.8326 34.8275C26.8494 34.8785 26.8403 34.9033 26.7822 34.8785C26.8184 34.8785 26.8364 34.8628 26.8339 34.8262L26.8326 34.8275Z" fill="#F8F2EA"/>
<path d="M36.8575 50.5334L36.8756 50.5522C36.8654 50.5598 36.854 50.5657 36.842 50.5696C36.842 50.5696 36.8304 50.5589 36.8252 50.5522L36.8575 50.5334Z" fill="#484848"/>
<path d="M36.978 50.606C36.968 50.6121 36.9573 50.617 36.9461 50.6205C36.9461 50.6205 36.9346 50.6099 36.9295 50.6046C36.9401 50.5987 36.9512 50.5938 36.9627 50.5901C36.9627 50.5901 36.9691 50.6007 36.978 50.606Z" fill="#484848"/>
<path d="M37.0658 50.676L37.0352 50.6588C37.0352 50.6588 37.0467 50.6443 37.0505 50.6456C37.0619 50.6485 37.0727 50.6534 37.0824 50.6601L37.0658 50.676Z" fill="#484848"/>
<path d="M26.8344 34.8262L26.8499 34.8374H26.8563L26.8331 34.8312L26.8344 34.8262Z" fill="#F8F2EA"/>
<path d="M45.2479 24.8884L45.2609 24.9031C45.2609 24.9031 45.2492 24.9151 45.244 24.9138C45.2389 24.9124 45.235 24.9044 45.2311 24.8991L45.2479 24.8884Z" fill="#484848"/>
<path d="M44.4808 24.4172C44.4808 24.4172 44.4808 24.4314 44.4808 24.434C44.4808 24.4366 44.467 24.4443 44.4633 24.443C44.4382 24.4314 44.4382 24.4185 44.4633 24.4095C44.467 24.4069 44.4746 24.4146 44.4808 24.4172Z" fill="#484848"/>
<path d="M44.3687 24.3608L44.3842 24.3768C44.3842 24.3768 44.3739 24.3902 44.3687 24.3902C44.3635 24.3902 44.3583 24.3808 44.3531 24.3755L44.3687 24.3608Z" fill="#484848"/>
<path d="M37.169 50.7573C37.1561 50.7389 37.1291 50.7113 37.133 50.7061C37.1587 50.6733 37.1844 50.6877 37.2075 50.7126L37.169 50.7573Z" fill="#484848"/>
<path d="M45.1418 24.7961C45.1547 24.8146 45.1831 24.8435 45.1792 24.8501C45.1534 24.887 45.1251 24.8672 45.0993 24.8435L45.1418 24.7961Z" fill="#484848"/>
<path d="M45.0986 24.8433L45.0445 24.7959L45.0883 24.7485L45.1411 24.7959L45.0986 24.8433Z" fill="#484848"/>
<path d="M40.806 52.99C40.8151 53.0044 40.8332 53.024 40.8293 53.0318C40.8112 53.0645 40.7892 53.0436 40.7698 53.0318L40.806 52.99Z" fill="#484848"/>
<path d="M44.348 21.5162C45.0811 20.7839 45.6772 19.9329 46.5916 19.4355C47.4382 18.9764 48.0774 19.1875 48.7127 19.7073C49.0049 19.9475 49.0949 20.3393 49.0818 20.7378C49.0505 21.7036 48.6527 22.5348 48.1687 23.3356C48.1191 23.4174 48.08 23.4531 47.9952 23.3752C46.9569 22.4266 45.685 21.949 44.348 21.5162Z" fill="#F8F2EA"/>
<path d="M45.2571 19.7838C44.8597 20.3406 44.4605 20.8974 44.0596 21.4542C44.0505 21.4673 43.9957 21.4542 43.9227 21.437C44.3218 20.8301 44.6845 20.2245 45.218 19.7495C45.2304 19.7616 45.2435 19.7731 45.2571 19.7838Z" fill="#F8F2EA"/>
<path d="M49.434 19.9C49.2657 19.1915 48.967 18.6294 48.3904 18.256C48.9083 18.1848 49.4823 19.0569 49.434 19.9Z" fill="#F8F2EA"/>
<path d="M48.8939 23.2671C48.91 23.298 48.9185 23.3324 48.9185 23.3674C48.9185 23.4023 48.91 23.4367 48.8939 23.4676C48.8162 23.6557 48.7251 23.8378 48.6213 24.0125C48.6174 23.7381 48.7557 23.5217 48.8939 23.2671Z" fill="#F8F2EA"/>
<path d="M50.3028 21.2469C50.2867 21.5401 50.2173 21.8277 50.098 22.0953L50.0654 22.0689C50.1068 21.7792 50.1772 21.4946 50.2754 21.2192L50.3028 21.2469Z" fill="#484848"/>
<path d="M49.6662 23.1987C49.6651 23.1389 49.6762 23.0794 49.6986 23.024C49.7211 22.9686 49.7545 22.9184 49.7968 22.8765C49.789 23.0284 49.789 23.0284 49.6662 23.1987Z" fill="#484848"/>
<path d="M50.2754 21.2196C50.2845 21.1364 50.295 21.0545 50.3093 20.9316C50.333 20.9801 50.3452 21.0334 50.3452 21.0875C50.3452 21.1415 50.333 21.1949 50.3093 21.2434L50.2754 21.2196Z" fill="#484848"/>
<path d="M50.0968 22.0952C50.0736 22.128 50.1032 22.2172 50.0402 22.1949C49.9978 22.1792 50.0287 22.107 50.0646 22.0637L50.0968 22.0952Z" fill="#484848"/>
<path d="M50.0235 22.3592C50.0173 22.3736 50.0104 22.3876 50.0027 22.4013C49.9914 22.3861 49.9827 22.3692 49.9766 22.3513C49.9766 22.3421 49.9935 22.3289 50.0027 22.3184L50.0235 22.3592Z" fill="#484848"/>
<path d="M49.8342 22.7393C49.8446 22.7466 49.8543 22.7549 49.8632 22.7641C49.8632 22.7641 49.8632 22.7811 49.8632 22.7876C49.8632 22.7942 49.8367 22.8125 49.8291 22.7876C49.8216 22.7628 49.8304 22.7576 49.8342 22.7393Z" fill="#484848"/>
<path d="M49.5044 23.5572L49.5133 23.4861L49.5425 23.5006L49.5018 23.5546L49.5044 23.5572Z" fill="#484848"/>
<path d="M45.2702 19.6966C45.2767 19.6756 45.2806 19.644 45.3132 19.6637C45.3197 19.6637 45.3054 19.7058 45.3014 19.7282L45.2702 19.6966Z" fill="#F8F2EA"/>
<path d="M49.5959 23.3721L49.5796 23.3889C49.5796 23.3889 49.5658 23.376 49.567 23.3696C49.5683 23.3631 49.5758 23.3592 49.5821 23.3528L49.5959 23.3721Z" fill="#484848"/>
<path d="M49.5008 23.5547L49.4914 23.5746L49.5031 23.5572L49.5008 23.5547Z" fill="#484848"/>
<path d="M45.3005 19.7284L45.2567 19.7836C45.2432 19.773 45.2303 19.7615 45.218 19.7494L45.2696 19.6968L45.3005 19.7284Z" fill="#F8F2EA"/>
<path d="M49.6494 23.2664C49.6442 23.2723 49.6388 23.278 49.6331 23.2832C49.6331 23.2768 49.6193 23.2703 49.6193 23.2639C49.6193 23.2574 49.6293 23.2535 49.6356 23.2471L49.6494 23.2664Z" fill="#484848"/>
<path d="M27.4944 55.8636C27.1618 55.8609 26.833 55.7918 26.5267 55.6605C26.2205 55.5292 25.9428 55.3381 25.7097 55.0982C25.4765 54.8583 25.2923 54.5742 25.1677 54.2623C25.043 53.9504 24.9804 53.6167 24.9833 53.2803C25.0107 52.2525 25.933 51.1693 27.0365 50.8882C27.8922 50.6679 28.6827 50.7945 29.3428 51.416C30.0733 52.1034 30.2729 53.2183 29.8789 54.2157C29.6981 54.7057 29.3719 55.127 28.945 55.4221C28.5181 55.7171 28.0114 55.8713 27.4944 55.8636ZM26.7313 55.4256C26.8908 55.5399 27.0799 55.6045 27.2752 55.6116L26.7313 55.4256Z" fill="#F8F2EA"/>
<path d="M29.4736 55.7027C29.3926 55.7727 29.3299 55.8783 29.1993 55.8519H29.2072C29.2829 55.7872 29.36 55.7198 29.437 55.6604L29.4736 55.7027Z" fill="#F8F2EA"/>
<path d="M29.4368 55.6653L29.5457 55.5708C29.5717 55.643 29.538 55.6823 29.4731 55.702L29.4368 55.6653Z" fill="#F8F2EA"/>
<path d="M29.1622 55.9191C29.1499 55.9357 29.1328 55.9481 29.1133 55.9544C29.0938 55.9608 29.0728 55.9608 29.0532 55.9545C29.0515 55.948 29.0515 55.9413 29.0532 55.9348C29.0934 55.9204 29.1311 55.8771 29.1739 55.9243L29.1622 55.9191Z" fill="#F8F2EA"/>
<path d="M29.1989 55.8518C29.2428 55.9054 29.1898 55.9028 29.1627 55.9145H29.1704C29.1149 55.8557 29.1704 55.8623 29.2066 55.8518H29.1989Z" fill="#F8F2EA"/>
<path d="M35.2402 47.4117C35.0839 47.4031 34.9316 47.3579 34.7954 47.2798C32.917 46.2559 31.0895 45.145 29.2554 44.0433C29.2084 44.0207 29.1645 43.9918 29.125 43.9576C29.0428 43.8731 28.8393 43.8454 28.9176 43.6779C28.9958 43.5103 29.1615 43.4562 29.3767 43.4997C29.7863 43.5815 30.1359 43.79 30.4959 43.9734C31.6804 44.5764 32.8805 45.1503 34.018 45.8298C34.3446 46.0299 34.6551 46.2558 34.9467 46.5053C35.1446 46.6762 35.305 46.8869 35.4176 47.1241C35.5272 47.3246 35.4607 47.421 35.2402 47.4117ZM32.09 45.1806C32.0756 45.1622 32.06 45.1437 32.0391 45.1727C32.0487 45.1832 32.0592 45.1929 32.0704 45.2017L32.1656 45.2664C32.2524 45.3478 32.36 45.4031 32.4761 45.426L32.5322 45.4406L32.5087 45.3917C32.4219 45.3101 32.3152 45.2532 32.1996 45.2268L32.09 45.1806ZM32.6235 45.4709L32.6065 45.4841C32.6065 45.4841 32.617 45.4986 32.6222 45.4986C32.6274 45.4986 32.6339 45.4907 32.6405 45.4867L32.6235 45.4709ZM32.7266 45.5276L32.7174 45.5408H32.7331L32.7266 45.5276Z" fill="#181818"/>
<path d="M33.7193 44.7334C33.7845 44.7585 33.8576 44.7849 33.9306 44.8152C34.4263 45.0157 34.7981 45.3865 35.1672 45.7572C35.2507 45.8417 35.3446 45.9604 35.2585 46.0831C35.1724 46.2058 35.0211 46.1214 34.9337 46.0686C34.4461 45.7823 33.984 45.4538 33.5523 45.087C33.5001 45.0435 33.3997 44.9999 33.4597 44.8983C33.4853 44.8505 33.5226 44.8103 33.5681 44.7814C33.6135 44.7525 33.6656 44.7359 33.7193 44.7334Z" fill="#181818"/>
<path d="M26.7313 55.4255L27.2759 55.6118C27.0803 55.6047 26.891 55.54 26.7313 55.4255Z" fill="#484848"/>
<path d="M32.2009 45.2322C32.3161 45.2599 32.4222 45.3172 32.5091 45.3986L32.4764 45.4329C32.3602 45.4099 32.2525 45.3546 32.1656 45.2731L32.2009 45.2322Z" fill="#484848"/>
<path d="M32.0899 45.1807L32.1989 45.2253L32.1651 45.266L32.0704 45.2017L32.0899 45.1807Z" fill="#484848"/>
<path d="M32.0701 45.2022C32.059 45.1933 32.0487 45.1835 32.0391 45.1728C32.0598 45.1434 32.0753 45.1621 32.0895 45.1808L32.0701 45.2022Z" fill="#484848"/>
<path d="M32.5084 45.3918L32.5317 45.4402L32.4761 45.4258L32.5084 45.3918Z" fill="#484848"/>
<path d="M32.6233 45.4709L32.64 45.4868C32.6336 45.4868 32.6271 45.5001 32.622 45.4987C32.6169 45.4974 32.6117 45.4895 32.6066 45.4842L32.6233 45.4709Z" fill="#484848"/>
<path d="M32.7264 45.5276L32.7329 45.5406L32.7175 45.5394L32.7264 45.5276Z" fill="#484848"/>
<defs>
<filter id="filter0_d_2402_8417" x="0" y="0" width="81.7165" height="81" filterUnits="userSpaceOnUse" color-interpolation-filters="sRGB">
<feFlood flood-opacity="0" result="BackgroundImageFix"/>
<feColorMatrix in="SourceAlpha" type="matrix" values="0 0 0 0 0 0 0 0 0 0 0 0 0 0 0 0 0 0 127 0" result="hardAlpha"/>
<feOffset dx="5" dy="4"/>
<feGaussianBlur stdDeviation="2"/>
<feComposite in2="hardAlpha" operator="out"/>
<feColorMatrix type="matrix" values="0 0 0 0 0 0 0 0 0 0 0 0 0 0 0 0 0 0 0.25 0"/>
<feBlend mode="normal" in2="BackgroundImageFix" result="effect1_dropShadow_2402_8417"/>
<feBlend mode="normal" in="SourceGraphic" in2="effect1_dropShadow_2402_8417" result="shape"/>
</filter>
</defs>
</svg>
