<svg width="17" height="16" viewBox="0 0 17 16" fill="none" xmlns="http://www.w3.org/2000/svg">
    <path
        d="M1.69994 10.316H4.80642C4.79143 10.354 4.77483 10.3909 4.75556 10.4263L4.74485 10.4461L4.73521 10.4664L4.33686 11.2942C4.1666 11.6486 4.04827 12.0138 3.98563 12.3795C3.92567 12.7296 3.91656 13.0396 3.95618 13.4166C4.08254 14.6288 4.82516 15.9041 6.0004 15.9962C6.03199 15.9989 6.06411 16 6.0957 16C6.76497 16 7.30788 15.472 7.33198 14.7979L7.37909 13.4723C7.43263 13.0466 7.68053 12.5439 8.15598 11.8928C8.54898 11.3547 9.07261 10.9108 9.71136 10.573C9.73171 10.5623 9.75152 10.5516 9.77079 10.5409L9.7981 10.5259C9.99835 10.4145 10.1916 10.2549 10.3881 10.0376C11.0156 9.34528 11.1313 8.50039 11.1613 7.8413L11.4863 1.46878L11.4873 1.44362V1.41846C11.4873 0.711707 10.9123 0.137207 10.2061 0.137207H2.31299C1.50398 0.137207 0.821327 0.734195 0.724952 1.52607C0.673553 1.95012 0.795627 2.37685 1.06226 2.70827C0.720133 2.95885 0.481874 3.34167 0.427797 3.78553C0.377468 4.19726 0.492047 4.61167 0.742086 4.93881C0.369972 5.19474 0.113508 5.6038 0.0669269 6.08192C0.0256999 6.5033 0.156341 6.9252 0.426191 7.24913C0.16116 7.5495 0 7.94517 0 8.37832V8.61604C0 9.55356 0.762431 10.316 1.69994 10.316ZM0.986235 8.37778C0.986235 7.98854 1.29731 7.66408 1.68549 7.66408C1.6887 7.66408 1.69138 7.66408 1.69459 7.66408C1.6962 7.66408 1.69834 7.66408 1.69994 7.66408C1.9366 7.66408 2.12774 7.46597 2.11543 7.22664C2.10418 7.0023 1.90768 6.8315 1.68335 6.8315H1.64051C1.2941 6.8315 1.01408 6.53114 1.04888 6.17776C1.07886 5.87043 1.35032 5.64235 1.65925 5.64235H1.99763C2.26052 5.64235 2.47362 5.42925 2.47362 5.16636V5.03733C2.47362 4.77337 2.25785 4.57312 1.99442 4.57152C1.6448 4.56937 1.36424 4.26151 1.40761 3.90332C1.44402 3.60188 1.71279 3.38236 2.01637 3.38236H2.29533C2.55821 3.38236 2.77131 3.16926 2.77131 2.90691V2.77787C2.77131 2.51392 2.55554 2.31367 2.29211 2.31206C1.94249 2.30992 1.66193 2.00206 1.7053 1.64387C1.74171 1.34243 2.01048 1.12291 2.31406 1.12291H10.2072C10.3699 1.12291 10.5016 1.25462 10.5016 1.41739L10.1766 7.79258C10.1504 8.37725 10.0508 8.94104 9.65782 9.37419C9.54806 9.4952 9.43241 9.5996 9.3189 9.66278L9.29213 9.67777C9.27875 9.68527 9.26536 9.69276 9.25091 9.70026C8.50989 10.0922 7.85508 10.6335 7.36035 11.3103C6.86724 11.9849 6.47156 12.6761 6.395 13.3978L6.34628 14.7621C6.34146 14.8991 6.23063 15.0127 6.09624 15.0127C6.08981 15.0127 6.08392 15.0127 6.0775 15.0121C5.48426 14.9655 5.01898 14.0944 4.9376 13.3138C4.91136 13.0637 4.90815 12.8373 4.95848 12.546C5.00774 12.2601 5.1009 11.9833 5.22672 11.722L5.62507 10.8942C5.78141 10.6035 5.86333 10.278 5.86333 9.94816V9.7008C5.86333 9.49573 5.69735 9.32975 5.49229 9.32975H1.70048C1.30802 9.32975 0.98677 9.0085 0.98677 8.61604V8.37832L0.986235 8.37778Z"
        fill="#0A0A0A" />
    <path
        d="M12.98 9.78525H14.742C15.5071 9.78525 16.0859 9.09349 16.0998 8.17097L16.5052 1.48149L16.5068 1.45151V1.42153C16.5068 0.610909 15.9778 0 15.2758 0H13.2589C12.5672 0 12.0435 0.59324 12.028 1.38619L11.6227 8.07727L11.6211 8.10726V8.13724C11.6211 9.07689 12.2052 9.78578 12.9794 9.78578L12.98 9.78525ZM13.0148 1.42206C13.0148 1.18166 13.124 0.98677 13.2589 0.98677H15.2758C15.4108 0.98677 15.52 1.18166 15.52 1.42206L15.1131 8.13724C15.1131 8.50293 14.9466 8.79901 14.7415 8.79901H12.9794C12.7744 8.79901 12.6079 8.50293 12.6079 8.13724L13.0148 1.42206Z"
        fill="#0A0A0A" />
</svg>