<svg width="20" height="16" viewBox="0 0 20 16" fill="none" xmlns="http://www.w3.org/2000/svg">
    <path
        d="M10.723 0.096757C10.4623 0.242608 10.3009 0.528817 10.3009 0.843709V2.12463C7.95401 2.67814 5.72121 4.00361 3.97021 5.89235C1.75928 8.27722 0.387799 11.4927 0.00413808 15.1914L0 15.2329L0.00532019 15.3843C0.0153698 15.6558 0.18917 15.892 0.438047 15.9719C0.497162 15.9908 0.55746 16 0.617167 16C0.806337 16 0.990187 15.9085 1.10783 15.7455C1.79002 14.8002 5.34701 10.2276 10.3003 10.1483V11.7233C10.3003 12.0382 10.4623 12.3244 10.7224 12.4703C10.9701 12.6088 11.271 12.5966 11.508 12.4379L19.6305 6.99813C19.8623 6.84312 20 6.57583 20 6.28291C20 5.98999 19.8617 5.72331 19.6305 5.5683L11.5086 0.12849C11.2716 -0.0301763 10.9707 -0.0429915 10.723 0.0961466V0.096757ZM11.4182 11.1241V9.03211L10.8861 9.00587C6.52105 8.79289 3.10712 11.7337 1.36321 13.6517C2.65843 7.0561 7.22216 3.87912 10.9618 3.16207L11.4188 3.0748V1.4442L18.6457 6.28474L11.4188 11.1253L11.4182 11.1241Z"
        fill="#0A0A0A" />
</svg>