<svg width="17" height="16" viewBox="0 0 17 16" fill="none" xmlns="http://www.w3.org/2000/svg">
    <path
        d="M14.8051 5.68402H11.6986C11.7135 5.64601 11.7301 5.60906 11.7494 5.57372L11.7601 5.55391L11.7698 5.53357L12.1681 4.70581C12.3384 4.35136 12.4567 3.9862 12.5194 3.62051C12.5793 3.27035 12.5884 2.96034 12.5488 2.5834C12.4224 1.37121 11.6798 0.0958402 10.5046 0.00374793C10.473 0.00107082 10.4408 0 10.4093 0C9.73998 0 9.19707 0.527924 9.17297 1.20202L9.12586 2.52772C9.07232 2.95338 8.82442 3.45614 8.34896 4.10721C7.95596 4.64531 7.43232 5.08917 6.79357 5.42702C6.77322 5.43773 6.75341 5.44844 6.73414 5.45915L6.70683 5.47414C6.50658 5.5855 6.3133 5.74506 6.1168 5.96244C5.48928 6.65474 5.37363 7.49963 5.34365 8.15873L5.01865 14.5313L5.01758 14.5565V14.5816C5.01758 15.2884 5.59262 15.8629 6.29884 15.8629H14.192C15.001 15.8629 15.6837 15.2659 15.7801 14.474C15.8315 14.05 15.7094 13.6232 15.4427 13.2918C15.7849 13.0412 16.0231 12.6584 16.0772 12.2145C16.1275 11.8028 16.013 11.3884 15.7629 11.0612C16.135 10.8053 16.3915 10.3963 16.4381 9.91812C16.4793 9.49675 16.3487 9.07484 16.0788 8.75091C16.3439 8.45054 16.505 8.05486 16.505 7.62171V7.38398C16.505 6.44646 15.7426 5.68402 14.8051 5.68402ZM15.5188 7.62224C15.5188 8.01149 15.2077 8.33596 14.8195 8.33596C14.8163 8.33596 14.8136 8.33596 14.8104 8.33596C14.8088 8.33596 14.8067 8.33596 14.8051 8.33596C14.5684 8.33596 14.3773 8.53406 14.3896 8.7734C14.4008 8.99774 14.5973 9.16854 14.8217 9.16854H14.8645C15.2109 9.16854 15.4909 9.46891 15.4561 9.82228C15.4261 10.1296 15.1547 10.3577 14.8458 10.3577H14.5074C14.2445 10.3577 14.0314 10.5708 14.0314 10.8337V10.9627C14.0314 11.2267 14.2472 11.4269 14.5106 11.4285C14.8602 11.4307 15.1408 11.7386 15.0974 12.0967C15.061 12.3982 14.7922 12.6177 14.4886 12.6177H14.2097C13.9468 12.6177 13.7337 12.8308 13.7337 13.0932V13.2222C13.7337 13.4862 13.9495 13.6864 14.2129 13.688C14.5625 13.6902 14.8431 13.998 14.7997 14.3562C14.7633 14.6577 14.4945 14.8772 14.1909 14.8772H6.29884C6.13607 14.8772 6.00436 14.7455 6.00436 14.5827L6.32936 8.20746C6.35559 7.62278 6.45518 7.05898 6.84818 6.62583C6.95794 6.50482 7.07359 6.40041 7.1871 6.33723L7.21387 6.32224C7.22726 6.31475 7.24064 6.30725 7.2551 6.29975C7.99612 5.90783 8.65094 5.36652 9.14567 4.68975C9.63879 4.01512 10.0345 3.32389 10.111 2.60214L10.1598 1.23789C10.1646 1.10082 10.2754 0.987315 10.4098 0.987315C10.4162 0.987315 10.4221 0.987315 10.4285 0.98785C11.0218 1.03443 11.4871 1.90556 11.5684 2.6862C11.5947 2.93624 11.5979 3.16273 11.5476 3.454C11.4983 3.73991 11.4051 4.01672 11.2793 4.27801L10.881 5.10577C10.7246 5.3965 10.6427 5.72204 10.6427 6.05185V6.29922C10.6427 6.50429 10.8087 6.67027 11.0137 6.67027H14.8056C15.1981 6.67027 15.5193 6.99152 15.5193 7.38398V7.62171L15.5188 7.62224Z"
        fill="#0A0A0A" />
    <path
        d="M3.52681 6.21465H1.76475C0.99963 6.21465 0.42084 6.90641 0.406919 7.82894L0.0016062 14.5185L0 14.5485V14.5784C0 15.3891 0.528995 16 1.23093 16H3.24786C3.93962 16 4.46326 15.4067 4.47879 14.6138L4.8841 7.92264L4.88571 7.89265V7.86267C4.88571 6.92301 4.30157 6.21411 3.52735 6.21411L3.52681 6.21465ZM3.49201 14.5779C3.49201 14.8183 3.38278 15.0132 3.24786 15.0132H1.23093C1.09601 15.0132 0.98678 14.8183 0.98678 14.5779L1.3937 7.86267C1.3937 7.49698 1.56021 7.20089 1.76528 7.20089H3.52735C3.73241 7.20089 3.89893 7.49698 3.89893 7.86267L3.49201 14.5779Z"
        fill="#0A0A0A" />
</svg>