<svg width="22" height="29" viewBox="0 0 22 29" fill="none" xmlns="http://www.w3.org/2000/svg">
<mask id="path-1-outside-1_6005_13470" maskUnits="userSpaceOnUse" x="0.86084" y="0.0239258" width="21" height="29" fill="black">
<rect fill="white" x="0.86084" y="0.0239258" width="21" height="29"/>
<path d="M11.5236 27.606C10.1235 27.5961 8.64415 27.1118 7.28858 26.2321C5.99028 25.3891 4.97625 24.2728 4.14749 22.9773C3.67819 22.2565 3.27219 21.4966 2.93405 20.706C2.50019 19.6595 2.19783 18.5634 2.03387 17.4427C1.75732 15.5863 1.81263 13.6957 2.19722 11.8587C2.5928 9.86279 3.36375 7.95985 4.46924 6.25068C5.33447 4.9182 6.42676 3.74733 7.69659 2.79112C8.36125 2.28251 9.06542 1.82756 9.80244 1.4306C10.2841 1.16788 10.8234 1.02818 11.3723 1.02393C11.9783 1.02393 12.4132 1.33034 12.532 1.83233C12.5757 2.04794 12.5845 2.26914 12.5581 2.48753C12.4719 3.49645 12.3403 4.50254 12.3722 5.51781C12.4019 6.46601 12.5249 7.39445 13.0001 8.24027C13.1338 8.49881 13.3002 8.73917 13.4951 8.95548C13.6026 9.07398 13.7524 9.1455 13.9123 9.15458C14.0133 9.16662 14.1155 9.1456 14.2035 9.09467C14.2914 9.04374 14.3605 8.96565 14.4002 8.87217C14.4951 8.65261 14.5476 8.41715 14.5551 8.17814C14.5756 7.9162 14.5933 7.65426 14.6145 7.39233C14.6208 7.31678 14.6343 7.24124 14.6477 7.16569C14.7354 6.67853 15.2841 6.51756 15.6151 6.63052C15.9976 6.76255 16.3095 7.00542 16.6298 7.23982C17.0795 7.56813 17.4331 7.98751 17.7824 8.41184C18.1318 8.83616 18.5292 9.25907 18.7922 9.76389C19.4612 11.0475 20.1259 12.3324 20.5105 13.7381C20.7461 14.6398 20.8953 15.5618 20.956 16.4917C21.021 17.2908 21.0139 18.0942 20.9348 18.8922C20.8118 20.0712 20.4851 21.1846 19.8932 22.2162C18.9796 23.8083 17.8227 25.1815 16.2748 26.1989C14.8627 27.1211 13.211 27.6103 11.5236 27.606ZM5.67631 24.0427C5.68197 24.0561 5.69116 24.0674 5.70531 24.0568C5.70531 24.0568 5.70036 24.0356 5.69682 24.0243L5.66924 23.9939L5.64096 23.9657C5.62823 23.9579 5.61762 23.9325 5.60065 23.9572C5.60065 23.9608 5.61197 23.9756 5.61833 23.9855L5.64803 24.013L5.67631 24.0427ZM18.358 23.9389C18.3639 23.9419 18.3701 23.9442 18.3764 23.9459C18.3835 23.9325 18.3814 23.9318 18.3708 23.9459C18.3708 23.9459 18.363 23.9424 18.3595 23.941L18.3418 23.9784L17.7153 24.5743C17.7283 24.5821 17.7436 24.5855 17.7587 24.584C17.7739 24.5825 17.7882 24.5761 17.7994 24.5658C18.0118 24.4209 18.1962 24.2389 18.3439 24.0285C18.3545 24.0137 18.3778 23.989 18.3397 23.9756C18.3496 23.9756 18.3616 24.0031 18.3686 23.9756C18.3729 23.9636 18.3616 23.9509 18.358 23.9389ZM18.4896 9.75753C18.4832 9.75753 18.4896 9.72647 18.4698 9.74977L18.4917 9.75541C18.4917 9.76742 18.4832 9.78507 18.5087 9.77518L18.4896 9.75753ZM18.5468 9.84437C18.5398 9.84437 18.5468 9.81472 18.5285 9.83378L18.549 9.84226C18.5486 9.84578 18.5486 9.84932 18.549 9.85285C18.549 9.85285 18.5532 9.85285 18.5546 9.85708L18.5468 9.84437ZM7.31191 3.7598L7.28292 3.78874L7.2511 3.81416C7.23457 3.82255 7.21873 3.83223 7.20372 3.84311C6.57246 4.38516 6.00456 4.9967 5.51085 5.66608C4.07764 7.65242 3.11902 9.94006 2.70848 12.3536C2.42663 13.9039 2.45499 15.4946 2.79192 17.0339C3.03164 18.1155 3.41985 19.1435 3.88585 20.1447C4.4848 21.4289 5.15869 22.6687 6.07797 23.756C6.09494 23.7765 6.12252 23.7977 6.06665 23.8499C4.66229 22.4011 3.76988 20.6403 2.97012 18.8209C3.07265 19.224 3.16316 19.6314 3.31096 20.0169C3.59456 20.7316 3.95444 21.4138 4.38438 22.0517C5.00595 22.9977 5.70036 23.8831 6.56872 24.6188C6.91875 24.9153 7.2709 25.2154 7.67326 25.4371C8.66324 25.9821 9.71617 26.3387 10.8476 26.4382C11.757 26.518 12.6628 26.5173 13.5587 26.3062C14.1548 26.165 14.7007 25.9016 15.2403 25.6256C16.0775 25.1984 16.7797 24.5877 17.4069 23.9071C18.5116 22.7096 19.3299 21.2776 19.8006 19.7189C20.146 18.6341 20.313 17.5006 20.2949 16.3625C20.2772 15.6409 20.1987 14.9285 19.9646 14.2352C19.7525 13.6082 19.5439 12.9841 19.2497 12.3903C19.2073 12.3049 19.1826 12.211 19.1415 12.1256C18.7498 11.3066 18.3418 10.4939 17.8143 9.75541C17.3094 9.04938 16.7656 8.36665 16.033 7.86749C15.7763 7.6931 15.4772 7.78488 15.3796 8.0793C15.3379 8.20638 15.3089 8.337 15.2721 8.46549C15.1618 8.84958 15.0861 9.24213 14.8761 9.59514C14.813 9.71409 14.7209 9.81525 14.6083 9.88929C14.4957 9.96333 14.3663 10.0079 14.2319 10.0188C13.9172 10.0483 13.6003 9.99499 13.3126 9.86414C12.9082 9.67987 12.6119 9.36498 12.3757 9.00137C11.8376 8.1739 11.6092 7.24971 11.5788 6.27397C11.554 5.4698 11.6459 4.67199 11.7294 3.87347C11.7626 3.55575 11.8234 3.23804 11.8001 2.9175C11.7435 2.20653 11.2478 1.84645 10.5428 1.97495C10.1001 2.05614 9.7296 2.27007 9.37108 2.51718C7.51203 3.7951 6.05958 5.44156 4.93736 7.38527C4.90474 7.46352 4.85827 7.53527 4.80018 7.59708C4.71815 7.52647 4.77472 7.46293 4.80654 7.40292C5.0307 6.9793 5.27466 6.56062 5.53347 6.15395C6.05572 5.33691 6.64087 4.5617 7.28363 3.83534L7.30696 3.80781L7.33383 3.77886L7.36 3.75556C7.37697 3.7372 7.41798 3.71885 7.39323 3.69484C7.36848 3.67084 7.35505 3.71249 7.34373 3.73367L7.31191 3.7598ZM5.76117 24.1288C5.76541 24.1175 5.77461 24.1041 5.75056 24.1069L5.76329 24.1267C5.77027 24.1359 5.7796 24.143 5.7903 24.1474C5.80101 24.1517 5.81268 24.1531 5.82411 24.1514V24.1563V24.1521C5.80855 24.1288 5.79016 24.1154 5.76117 24.1288ZM18.8905 10.3901L18.8827 10.3675L18.8721 10.3795L18.8926 10.388L18.8976 10.4276L18.9138 10.4205L18.8905 10.3901ZM18.6904 10.0731C18.6946 10.0894 18.6975 10.1063 18.7222 10.0993C18.7215 10.1218 18.7259 10.1442 18.7349 10.1648C18.744 10.1854 18.7575 10.2038 18.7745 10.2186C18.7936 10.256 18.8014 10.3012 18.8636 10.3287C18.8311 10.2793 18.8375 10.2214 18.7731 10.22C18.7751 10.1973 18.7712 10.1744 18.7618 10.1536C18.7524 10.1329 18.7378 10.1149 18.7194 10.1014C18.7151 10.0865 18.7102 10.0703 18.6883 10.0752C18.6918 10.0498 18.6883 10.0279 18.6621 10.0166C18.6621 10.0131 18.6579 10.0089 18.655 10.0054C18.6527 10.005 18.6503 10.005 18.648 10.0054L18.6642 10.0174C18.6628 10.0385 18.6628 10.0618 18.6904 10.0731ZM12.6359 8.89194C12.6288 8.88352 12.6213 8.87551 12.6133 8.86793C12.5935 8.88347 12.6062 8.89688 12.6182 8.90959C12.6303 8.9223 12.6324 8.95124 12.6578 8.95619C12.6614 8.96748 12.6642 8.98655 12.6791 8.97454C12.6939 8.96254 12.6791 8.95266 12.6663 8.94701C12.6676 8.93581 12.6654 8.9245 12.6599 8.91464C12.6545 8.90477 12.6461 8.89684 12.6359 8.89194ZM12.4535 8.61588L12.4747 8.642C12.4931 8.62647 12.4832 8.61164 12.4747 8.59682C12.4662 8.58199 12.4648 8.54245 12.4358 8.56151C12.4068 8.58058 12.433 8.60176 12.4535 8.61588ZM14.671 8.84393C14.6505 8.8637 14.6322 8.88417 14.6611 8.91453C14.6647 8.88911 14.6675 8.86581 14.6703 8.84393C14.67 8.84041 14.67 8.83686 14.6703 8.83334C14.6703 8.83334 14.6753 8.83334 14.6774 8.8291L14.671 8.84393ZM4.68633 22.8579C4.67501 22.8699 4.66441 22.8699 4.65592 22.8579C4.65592 22.8579 4.65592 22.8502 4.65592 22.8466L4.68562 22.8629C4.6439 22.9335 4.72451 22.9533 4.74573 22.9977C4.86751 23.1777 5.00551 23.3462 5.15799 23.5011C5.20765 23.5827 5.28017 23.648 5.36659 23.6889L5.17991 23.4814L4.76058 22.9808C4.73724 22.9356 4.71179 22.8947 4.68633 22.8579ZM14.572 9.12069C14.5934 9.09524 14.6093 9.0657 14.6188 9.03389C14.6282 9.00208 14.6311 8.96867 14.6272 8.93571L14.5473 9.09033C14.5303 9.10798 14.4921 9.12563 14.5247 9.15176C14.5572 9.17788 14.5586 9.13411 14.572 9.11787V9.12069ZM13.7235 9.36286L13.7164 9.35227L13.7263 9.36074C13.787 9.42343 13.8687 9.46151 13.9558 9.46763C14.0429 9.47376 14.1291 9.44751 14.198 9.39393C14.0382 9.39551 13.8786 9.38417 13.7207 9.36004L13.7235 9.36286ZM12.0066 7.1198C12.0596 7.36973 12.0943 7.62602 12.2307 7.86537C12.218 7.59778 12.0935 7.37115 12.0547 7.12545C12.0283 6.96212 12.0026 6.79903 11.9776 6.63617C11.9733 6.61005 11.9776 6.57121 11.9323 6.58533C11.9069 6.59381 11.9203 6.62134 11.9245 6.64535C11.9514 6.79997 11.9769 6.95882 12.0037 7.11698L12.0066 7.1198ZM13.7242 27.0235C14.1959 26.9381 14.652 26.8075 15.06 26.5448C14.5958 26.6457 14.1467 26.8066 13.7242 27.0235ZM19.7645 20.4659C19.9328 19.942 20.2263 19.457 20.2595 18.8922C20.1245 19.4231 19.9392 19.942 19.7645 20.4631V20.4659ZM16.3441 25.8099C16.7453 25.5705 17.1177 25.2863 17.4543 24.9626C17.4055 24.9626 17.3886 24.9626 17.3801 24.9676C17.0399 25.2493 16.7161 25.5564 16.3441 25.807V25.8099ZM12.486 27.3059H11.3772C11.7463 27.4196 12.1176 27.3405 12.486 27.3059ZM11.5667 2.02014C11.4112 1.74478 11.1587 1.64523 10.8723 1.7582C11.1236 1.77505 11.3645 1.86487 11.5653 2.01661L11.5667 2.02014ZM15.0883 7.77994C15.1336 7.65006 15.1927 7.52533 15.2643 7.40786C15.2001 7.4433 15.1485 7.49782 15.1167 7.56386C15.0849 7.6299 15.0745 7.70418 15.0868 7.77641L15.0883 7.77994ZM20.594 19.8164C20.6487 19.6656 20.6741 19.5057 20.6689 19.3454C20.6154 19.4953 20.5895 19.6537 20.5926 19.8128L20.594 19.8164ZM12.597 8.85664C12.5976 8.82851 12.5909 8.80071 12.5775 8.77596C12.5641 8.7512 12.5445 8.73035 12.5207 8.71543C12.5206 8.74346 12.5275 8.77106 12.5409 8.79572C12.5542 8.82039 12.5735 8.84133 12.597 8.85664ZM18.6126 9.93757L18.5956 9.91639L18.5864 9.92345C18.5917 9.93059 18.5974 9.93742 18.6034 9.94392C18.6034 9.94392 18.6091 9.93757 18.6126 9.93757ZM12.4089 8.5368L12.4252 8.52198C12.4195 8.51633 12.4146 8.50786 12.4082 8.50574C12.4019 8.50362 12.3835 8.50574 12.3884 8.52268C12.3934 8.53963 12.4019 8.52551 12.4089 8.53327V8.5368ZM12.5108 8.69072L12.5037 8.66671C12.5037 8.66671 12.4945 8.67377 12.4945 8.6766C12.497 8.68322 12.5001 8.6896 12.5037 8.69566L12.5108 8.69072ZM5.40619 23.7292C5.40619 23.7292 5.397 23.7348 5.3977 23.737C5.39963 23.7428 5.402 23.7484 5.40478 23.7539C5.40478 23.7539 5.41397 23.7482 5.41326 23.7461C5.4123 23.7387 5.4099 23.7315 5.40619 23.7249V23.7292Z"/>
</mask>
<path d="M11.5236 27.606C10.1235 27.5961 8.64415 27.1118 7.28858 26.2321C5.99028 25.3891 4.97625 24.2728 4.14749 22.9773C3.67819 22.2565 3.27219 21.4966 2.93405 20.706C2.50019 19.6595 2.19783 18.5634 2.03387 17.4427C1.75732 15.5863 1.81263 13.6957 2.19722 11.8587C2.5928 9.86279 3.36375 7.95985 4.46924 6.25068C5.33447 4.9182 6.42676 3.74733 7.69659 2.79112C8.36125 2.28251 9.06542 1.82756 9.80244 1.4306C10.2841 1.16788 10.8234 1.02818 11.3723 1.02393C11.9783 1.02393 12.4132 1.33034 12.532 1.83233C12.5757 2.04794 12.5845 2.26914 12.5581 2.48753C12.4719 3.49645 12.3403 4.50254 12.3722 5.51781C12.4019 6.46601 12.5249 7.39445 13.0001 8.24027C13.1338 8.49881 13.3002 8.73917 13.4951 8.95548C13.6026 9.07398 13.7524 9.1455 13.9123 9.15458C14.0133 9.16662 14.1155 9.1456 14.2035 9.09467C14.2914 9.04374 14.3605 8.96565 14.4002 8.87217C14.4951 8.65261 14.5476 8.41715 14.5551 8.17814C14.5756 7.9162 14.5933 7.65426 14.6145 7.39233C14.6208 7.31678 14.6343 7.24124 14.6477 7.16569C14.7354 6.67853 15.2841 6.51756 15.6151 6.63052C15.9976 6.76255 16.3095 7.00542 16.6298 7.23982C17.0795 7.56813 17.4331 7.98751 17.7824 8.41184C18.1318 8.83616 18.5292 9.25907 18.7922 9.76389C19.4612 11.0475 20.1259 12.3324 20.5105 13.7381C20.7461 14.6398 20.8953 15.5618 20.956 16.4917C21.021 17.2908 21.0139 18.0942 20.9348 18.8922C20.8118 20.0712 20.4851 21.1846 19.8932 22.2162C18.9796 23.8083 17.8227 25.1815 16.2748 26.1989C14.8627 27.1211 13.211 27.6103 11.5236 27.606ZM5.67631 24.0427C5.68197 24.0561 5.69116 24.0674 5.70531 24.0568C5.70531 24.0568 5.70036 24.0356 5.69682 24.0243L5.66924 23.9939L5.64096 23.9657C5.62823 23.9579 5.61762 23.9325 5.60065 23.9572C5.60065 23.9608 5.61197 23.9756 5.61833 23.9855L5.64803 24.013L5.67631 24.0427ZM18.358 23.9389C18.3639 23.9419 18.3701 23.9442 18.3764 23.9459C18.3835 23.9325 18.3814 23.9318 18.3708 23.9459C18.3708 23.9459 18.363 23.9424 18.3595 23.941L18.3418 23.9784L17.7153 24.5743C17.7283 24.5821 17.7436 24.5855 17.7587 24.584C17.7739 24.5825 17.7882 24.5761 17.7994 24.5658C18.0118 24.4209 18.1962 24.2389 18.3439 24.0285C18.3545 24.0137 18.3778 23.989 18.3397 23.9756C18.3496 23.9756 18.3616 24.0031 18.3686 23.9756C18.3729 23.9636 18.3616 23.9509 18.358 23.9389ZM18.4896 9.75753C18.4832 9.75753 18.4896 9.72647 18.4698 9.74977L18.4917 9.75541C18.4917 9.76742 18.4832 9.78507 18.5087 9.77518L18.4896 9.75753ZM18.5468 9.84437C18.5398 9.84437 18.5468 9.81472 18.5285 9.83378L18.549 9.84226C18.5486 9.84578 18.5486 9.84932 18.549 9.85285C18.549 9.85285 18.5532 9.85285 18.5546 9.85708L18.5468 9.84437ZM7.31191 3.7598L7.28292 3.78874L7.2511 3.81416C7.23457 3.82255 7.21873 3.83223 7.20372 3.84311C6.57246 4.38516 6.00456 4.9967 5.51085 5.66608C4.07764 7.65242 3.11902 9.94006 2.70848 12.3536C2.42663 13.9039 2.45499 15.4946 2.79192 17.0339C3.03164 18.1155 3.41985 19.1435 3.88585 20.1447C4.4848 21.4289 5.15869 22.6687 6.07797 23.756C6.09494 23.7765 6.12252 23.7977 6.06665 23.8499C4.66229 22.4011 3.76988 20.6403 2.97012 18.8209C3.07265 19.224 3.16316 19.6314 3.31096 20.0169C3.59456 20.7316 3.95444 21.4138 4.38438 22.0517C5.00595 22.9977 5.70036 23.8831 6.56872 24.6188C6.91875 24.9153 7.2709 25.2154 7.67326 25.4371C8.66324 25.9821 9.71617 26.3387 10.8476 26.4382C11.757 26.518 12.6628 26.5173 13.5587 26.3062C14.1548 26.165 14.7007 25.9016 15.2403 25.6256C16.0775 25.1984 16.7797 24.5877 17.4069 23.9071C18.5116 22.7096 19.3299 21.2776 19.8006 19.7189C20.146 18.6341 20.313 17.5006 20.2949 16.3625C20.2772 15.6409 20.1987 14.9285 19.9646 14.2352C19.7525 13.6082 19.5439 12.9841 19.2497 12.3903C19.2073 12.3049 19.1826 12.211 19.1415 12.1256C18.7498 11.3066 18.3418 10.4939 17.8143 9.75541C17.3094 9.04938 16.7656 8.36665 16.033 7.86749C15.7763 7.6931 15.4772 7.78488 15.3796 8.0793C15.3379 8.20638 15.3089 8.337 15.2721 8.46549C15.1618 8.84958 15.0861 9.24213 14.8761 9.59514C14.813 9.71409 14.7209 9.81525 14.6083 9.88929C14.4957 9.96333 14.3663 10.0079 14.2319 10.0188C13.9172 10.0483 13.6003 9.99499 13.3126 9.86414C12.9082 9.67987 12.6119 9.36498 12.3757 9.00137C11.8376 8.1739 11.6092 7.24971 11.5788 6.27397C11.554 5.4698 11.6459 4.67199 11.7294 3.87347C11.7626 3.55575 11.8234 3.23804 11.8001 2.9175C11.7435 2.20653 11.2478 1.84645 10.5428 1.97495C10.1001 2.05614 9.7296 2.27007 9.37108 2.51718C7.51203 3.7951 6.05958 5.44156 4.93736 7.38527C4.90474 7.46352 4.85827 7.53527 4.80018 7.59708C4.71815 7.52647 4.77472 7.46293 4.80654 7.40292C5.0307 6.9793 5.27466 6.56062 5.53347 6.15395C6.05572 5.33691 6.64087 4.5617 7.28363 3.83534L7.30696 3.80781L7.33383 3.77886L7.36 3.75556C7.37697 3.7372 7.41798 3.71885 7.39323 3.69484C7.36848 3.67084 7.35505 3.71249 7.34373 3.73367L7.31191 3.7598ZM5.76117 24.1288C5.76541 24.1175 5.77461 24.1041 5.75056 24.1069L5.76329 24.1267C5.77027 24.1359 5.7796 24.143 5.7903 24.1474C5.80101 24.1517 5.81268 24.1531 5.82411 24.1514V24.1563V24.1521C5.80855 24.1288 5.79016 24.1154 5.76117 24.1288ZM18.8905 10.3901L18.8827 10.3675L18.8721 10.3795L18.8926 10.388L18.8976 10.4276L18.9138 10.4205L18.8905 10.3901ZM18.6904 10.0731C18.6946 10.0894 18.6975 10.1063 18.7222 10.0993C18.7215 10.1218 18.7259 10.1442 18.7349 10.1648C18.744 10.1854 18.7575 10.2038 18.7745 10.2186C18.7936 10.256 18.8014 10.3012 18.8636 10.3287C18.8311 10.2793 18.8375 10.2214 18.7731 10.22C18.7751 10.1973 18.7712 10.1744 18.7618 10.1536C18.7524 10.1329 18.7378 10.1149 18.7194 10.1014C18.7151 10.0865 18.7102 10.0703 18.6883 10.0752C18.6918 10.0498 18.6883 10.0279 18.6621 10.0166C18.6621 10.0131 18.6579 10.0089 18.655 10.0054C18.6527 10.005 18.6503 10.005 18.648 10.0054L18.6642 10.0174C18.6628 10.0385 18.6628 10.0618 18.6904 10.0731ZM12.6359 8.89194C12.6288 8.88352 12.6213 8.87551 12.6133 8.86793C12.5935 8.88347 12.6062 8.89688 12.6182 8.90959C12.6303 8.9223 12.6324 8.95124 12.6578 8.95619C12.6614 8.96748 12.6642 8.98655 12.6791 8.97454C12.6939 8.96254 12.6791 8.95266 12.6663 8.94701C12.6676 8.93581 12.6654 8.9245 12.6599 8.91464C12.6545 8.90477 12.6461 8.89684 12.6359 8.89194ZM12.4535 8.61588L12.4747 8.642C12.4931 8.62647 12.4832 8.61164 12.4747 8.59682C12.4662 8.58199 12.4648 8.54245 12.4358 8.56151C12.4068 8.58058 12.433 8.60176 12.4535 8.61588ZM14.671 8.84393C14.6505 8.8637 14.6322 8.88417 14.6611 8.91453C14.6647 8.88911 14.6675 8.86581 14.6703 8.84393C14.67 8.84041 14.67 8.83686 14.6703 8.83334C14.6703 8.83334 14.6753 8.83334 14.6774 8.8291L14.671 8.84393ZM4.68633 22.8579C4.67501 22.8699 4.66441 22.8699 4.65592 22.8579C4.65592 22.8579 4.65592 22.8502 4.65592 22.8466L4.68562 22.8629C4.6439 22.9335 4.72451 22.9533 4.74573 22.9977C4.86751 23.1777 5.00551 23.3462 5.15799 23.5011C5.20765 23.5827 5.28017 23.648 5.36659 23.6889L5.17991 23.4814L4.76058 22.9808C4.73724 22.9356 4.71179 22.8947 4.68633 22.8579ZM14.572 9.12069C14.5934 9.09524 14.6093 9.0657 14.6188 9.03389C14.6282 9.00208 14.6311 8.96867 14.6272 8.93571L14.5473 9.09033C14.5303 9.10798 14.4921 9.12563 14.5247 9.15176C14.5572 9.17788 14.5586 9.13411 14.572 9.11787V9.12069ZM13.7235 9.36286L13.7164 9.35227L13.7263 9.36074C13.787 9.42343 13.8687 9.46151 13.9558 9.46763C14.0429 9.47376 14.1291 9.44751 14.198 9.39393C14.0382 9.39551 13.8786 9.38417 13.7207 9.36004L13.7235 9.36286ZM12.0066 7.1198C12.0596 7.36973 12.0943 7.62602 12.2307 7.86537C12.218 7.59778 12.0935 7.37115 12.0547 7.12545C12.0283 6.96212 12.0026 6.79903 11.9776 6.63617C11.9733 6.61005 11.9776 6.57121 11.9323 6.58533C11.9069 6.59381 11.9203 6.62134 11.9245 6.64535C11.9514 6.79997 11.9769 6.95882 12.0037 7.11698L12.0066 7.1198ZM13.7242 27.0235C14.1959 26.9381 14.652 26.8075 15.06 26.5448C14.5958 26.6457 14.1467 26.8066 13.7242 27.0235ZM19.7645 20.4659C19.9328 19.942 20.2263 19.457 20.2595 18.8922C20.1245 19.4231 19.9392 19.942 19.7645 20.4631V20.4659ZM16.3441 25.8099C16.7453 25.5705 17.1177 25.2863 17.4543 24.9626C17.4055 24.9626 17.3886 24.9626 17.3801 24.9676C17.0399 25.2493 16.7161 25.5564 16.3441 25.807V25.8099ZM12.486 27.3059H11.3772C11.7463 27.4196 12.1176 27.3405 12.486 27.3059ZM11.5667 2.02014C11.4112 1.74478 11.1587 1.64523 10.8723 1.7582C11.1236 1.77505 11.3645 1.86487 11.5653 2.01661L11.5667 2.02014ZM15.0883 7.77994C15.1336 7.65006 15.1927 7.52533 15.2643 7.40786C15.2001 7.4433 15.1485 7.49782 15.1167 7.56386C15.0849 7.6299 15.0745 7.70418 15.0868 7.77641L15.0883 7.77994ZM20.594 19.8164C20.6487 19.6656 20.6741 19.5057 20.6689 19.3454C20.6154 19.4953 20.5895 19.6537 20.5926 19.8128L20.594 19.8164ZM12.597 8.85664C12.5976 8.82851 12.5909 8.80071 12.5775 8.77596C12.5641 8.7512 12.5445 8.73035 12.5207 8.71543C12.5206 8.74346 12.5275 8.77106 12.5409 8.79572C12.5542 8.82039 12.5735 8.84133 12.597 8.85664ZM18.6126 9.93757L18.5956 9.91639L18.5864 9.92345C18.5917 9.93059 18.5974 9.93742 18.6034 9.94392C18.6034 9.94392 18.6091 9.93757 18.6126 9.93757ZM12.4089 8.5368L12.4252 8.52198C12.4195 8.51633 12.4146 8.50786 12.4082 8.50574C12.4019 8.50362 12.3835 8.50574 12.3884 8.52268C12.3934 8.53963 12.4019 8.52551 12.4089 8.53327V8.5368ZM12.5108 8.69072L12.5037 8.66671C12.5037 8.66671 12.4945 8.67377 12.4945 8.6766C12.497 8.68322 12.5001 8.6896 12.5037 8.69566L12.5108 8.69072ZM5.40619 23.7292C5.40619 23.7292 5.397 23.7348 5.3977 23.737C5.39963 23.7428 5.402 23.7484 5.40478 23.7539C5.40478 23.7539 5.41397 23.7482 5.41326 23.7461C5.4123 23.7387 5.4099 23.7315 5.40619 23.7249V23.7292Z" fill="#040404"/>
<path d="M11.5236 27.606C10.1235 27.5961 8.64415 27.1118 7.28858 26.2321C5.99028 25.3891 4.97625 24.2728 4.14749 22.9773C3.67819 22.2565 3.27219 21.4966 2.93405 20.706C2.50019 19.6595 2.19783 18.5634 2.03387 17.4427C1.75732 15.5863 1.81263 13.6957 2.19722 11.8587C2.5928 9.86279 3.36375 7.95985 4.46924 6.25068C5.33447 4.9182 6.42676 3.74733 7.69659 2.79112C8.36125 2.28251 9.06542 1.82756 9.80244 1.4306C10.2841 1.16788 10.8234 1.02818 11.3723 1.02393C11.9783 1.02393 12.4132 1.33034 12.532 1.83233C12.5757 2.04794 12.5845 2.26914 12.5581 2.48753C12.4719 3.49645 12.3403 4.50254 12.3722 5.51781C12.4019 6.46601 12.5249 7.39445 13.0001 8.24027C13.1338 8.49881 13.3002 8.73917 13.4951 8.95548C13.6026 9.07398 13.7524 9.1455 13.9123 9.15458C14.0133 9.16662 14.1155 9.1456 14.2035 9.09467C14.2914 9.04374 14.3605 8.96565 14.4002 8.87217C14.4951 8.65261 14.5476 8.41715 14.5551 8.17814C14.5756 7.9162 14.5933 7.65426 14.6145 7.39233C14.6208 7.31678 14.6343 7.24124 14.6477 7.16569C14.7354 6.67853 15.2841 6.51756 15.6151 6.63052C15.9976 6.76255 16.3095 7.00542 16.6298 7.23982C17.0795 7.56813 17.4331 7.98751 17.7824 8.41184C18.1318 8.83616 18.5292 9.25907 18.7922 9.76389C19.4612 11.0475 20.1259 12.3324 20.5105 13.7381C20.7461 14.6398 20.8953 15.5618 20.956 16.4917C21.021 17.2908 21.0139 18.0942 20.9348 18.8922C20.8118 20.0712 20.4851 21.1846 19.8932 22.2162C18.9796 23.8083 17.8227 25.1815 16.2748 26.1989C14.8627 27.1211 13.211 27.6103 11.5236 27.606ZM5.67631 24.0427C5.68197 24.0561 5.69116 24.0674 5.70531 24.0568C5.70531 24.0568 5.70036 24.0356 5.69682 24.0243L5.66924 23.9939L5.64096 23.9657C5.62823 23.9579 5.61762 23.9325 5.60065 23.9572C5.60065 23.9608 5.61197 23.9756 5.61833 23.9855L5.64803 24.013L5.67631 24.0427ZM18.358 23.9389C18.3639 23.9419 18.3701 23.9442 18.3764 23.9459C18.3835 23.9325 18.3814 23.9318 18.3708 23.9459C18.3708 23.9459 18.363 23.9424 18.3595 23.941L18.3418 23.9784L17.7153 24.5743C17.7283 24.5821 17.7436 24.5855 17.7587 24.584C17.7739 24.5825 17.7882 24.5761 17.7994 24.5658C18.0118 24.4209 18.1962 24.2389 18.3439 24.0285C18.3545 24.0137 18.3778 23.989 18.3397 23.9756C18.3496 23.9756 18.3616 24.0031 18.3686 23.9756C18.3729 23.9636 18.3616 23.9509 18.358 23.9389ZM18.4896 9.75753C18.4832 9.75753 18.4896 9.72647 18.4698 9.74977L18.4917 9.75541C18.4917 9.76742 18.4832 9.78507 18.5087 9.77518L18.4896 9.75753ZM18.5468 9.84437C18.5398 9.84437 18.5468 9.81472 18.5285 9.83378L18.549 9.84226C18.5486 9.84578 18.5486 9.84932 18.549 9.85285C18.549 9.85285 18.5532 9.85285 18.5546 9.85708L18.5468 9.84437ZM7.31191 3.7598L7.28292 3.78874L7.2511 3.81416C7.23457 3.82255 7.21873 3.83223 7.20372 3.84311C6.57246 4.38516 6.00456 4.9967 5.51085 5.66608C4.07764 7.65242 3.11902 9.94006 2.70848 12.3536C2.42663 13.9039 2.45499 15.4946 2.79192 17.0339C3.03164 18.1155 3.41985 19.1435 3.88585 20.1447C4.4848 21.4289 5.15869 22.6687 6.07797 23.756C6.09494 23.7765 6.12252 23.7977 6.06665 23.8499C4.66229 22.4011 3.76988 20.6403 2.97012 18.8209C3.07265 19.224 3.16316 19.6314 3.31096 20.0169C3.59456 20.7316 3.95444 21.4138 4.38438 22.0517C5.00595 22.9977 5.70036 23.8831 6.56872 24.6188C6.91875 24.9153 7.2709 25.2154 7.67326 25.4371C8.66324 25.9821 9.71617 26.3387 10.8476 26.4382C11.757 26.518 12.6628 26.5173 13.5587 26.3062C14.1548 26.165 14.7007 25.9016 15.2403 25.6256C16.0775 25.1984 16.7797 24.5877 17.4069 23.9071C18.5116 22.7096 19.3299 21.2776 19.8006 19.7189C20.146 18.6341 20.313 17.5006 20.2949 16.3625C20.2772 15.6409 20.1987 14.9285 19.9646 14.2352C19.7525 13.6082 19.5439 12.9841 19.2497 12.3903C19.2073 12.3049 19.1826 12.211 19.1415 12.1256C18.7498 11.3066 18.3418 10.4939 17.8143 9.75541C17.3094 9.04938 16.7656 8.36665 16.033 7.86749C15.7763 7.6931 15.4772 7.78488 15.3796 8.0793C15.3379 8.20638 15.3089 8.337 15.2721 8.46549C15.1618 8.84958 15.0861 9.24213 14.8761 9.59514C14.813 9.71409 14.7209 9.81525 14.6083 9.88929C14.4957 9.96333 14.3663 10.0079 14.2319 10.0188C13.9172 10.0483 13.6003 9.99499 13.3126 9.86414C12.9082 9.67987 12.6119 9.36498 12.3757 9.00137C11.8376 8.1739 11.6092 7.24971 11.5788 6.27397C11.554 5.4698 11.6459 4.67199 11.7294 3.87347C11.7626 3.55575 11.8234 3.23804 11.8001 2.9175C11.7435 2.20653 11.2478 1.84645 10.5428 1.97495C10.1001 2.05614 9.7296 2.27007 9.37108 2.51718C7.51203 3.7951 6.05958 5.44156 4.93736 7.38527C4.90474 7.46352 4.85827 7.53527 4.80018 7.59708C4.71815 7.52647 4.77472 7.46293 4.80654 7.40292C5.0307 6.9793 5.27466 6.56062 5.53347 6.15395C6.05572 5.33691 6.64087 4.5617 7.28363 3.83534L7.30696 3.80781L7.33383 3.77886L7.36 3.75556C7.37697 3.7372 7.41798 3.71885 7.39323 3.69484C7.36848 3.67084 7.35505 3.71249 7.34373 3.73367L7.31191 3.7598ZM5.76117 24.1288C5.76541 24.1175 5.77461 24.1041 5.75056 24.1069L5.76329 24.1267C5.77027 24.1359 5.7796 24.143 5.7903 24.1474C5.80101 24.1517 5.81268 24.1531 5.82411 24.1514V24.1563V24.1521C5.80855 24.1288 5.79016 24.1154 5.76117 24.1288ZM18.8905 10.3901L18.8827 10.3675L18.8721 10.3795L18.8926 10.388L18.8976 10.4276L18.9138 10.4205L18.8905 10.3901ZM18.6904 10.0731C18.6946 10.0894 18.6975 10.1063 18.7222 10.0993C18.7215 10.1218 18.7259 10.1442 18.7349 10.1648C18.744 10.1854 18.7575 10.2038 18.7745 10.2186C18.7936 10.256 18.8014 10.3012 18.8636 10.3287C18.8311 10.2793 18.8375 10.2214 18.7731 10.22C18.7751 10.1973 18.7712 10.1744 18.7618 10.1536C18.7524 10.1329 18.7378 10.1149 18.7194 10.1014C18.7151 10.0865 18.7102 10.0703 18.6883 10.0752C18.6918 10.0498 18.6883 10.0279 18.6621 10.0166C18.6621 10.0131 18.6579 10.0089 18.655 10.0054C18.6527 10.005 18.6503 10.005 18.648 10.0054L18.6642 10.0174C18.6628 10.0385 18.6628 10.0618 18.6904 10.0731ZM12.6359 8.89194C12.6288 8.88352 12.6213 8.87551 12.6133 8.86793C12.5935 8.88347 12.6062 8.89688 12.6182 8.90959C12.6303 8.9223 12.6324 8.95124 12.6578 8.95619C12.6614 8.96748 12.6642 8.98655 12.6791 8.97454C12.6939 8.96254 12.6791 8.95266 12.6663 8.94701C12.6676 8.93581 12.6654 8.9245 12.6599 8.91464C12.6545 8.90477 12.6461 8.89684 12.6359 8.89194ZM12.4535 8.61588L12.4747 8.642C12.4931 8.62647 12.4832 8.61164 12.4747 8.59682C12.4662 8.58199 12.4648 8.54245 12.4358 8.56151C12.4068 8.58058 12.433 8.60176 12.4535 8.61588ZM14.671 8.84393C14.6505 8.8637 14.6322 8.88417 14.6611 8.91453C14.6647 8.88911 14.6675 8.86581 14.6703 8.84393C14.67 8.84041 14.67 8.83686 14.6703 8.83334C14.6703 8.83334 14.6753 8.83334 14.6774 8.8291L14.671 8.84393ZM4.68633 22.8579C4.67501 22.8699 4.66441 22.8699 4.65592 22.8579C4.65592 22.8579 4.65592 22.8502 4.65592 22.8466L4.68562 22.8629C4.6439 22.9335 4.72451 22.9533 4.74573 22.9977C4.86751 23.1777 5.00551 23.3462 5.15799 23.5011C5.20765 23.5827 5.28017 23.648 5.36659 23.6889L5.17991 23.4814L4.76058 22.9808C4.73724 22.9356 4.71179 22.8947 4.68633 22.8579ZM14.572 9.12069C14.5934 9.09524 14.6093 9.0657 14.6188 9.03389C14.6282 9.00208 14.6311 8.96867 14.6272 8.93571L14.5473 9.09033C14.5303 9.10798 14.4921 9.12563 14.5247 9.15176C14.5572 9.17788 14.5586 9.13411 14.572 9.11787V9.12069ZM13.7235 9.36286L13.7164 9.35227L13.7263 9.36074C13.787 9.42343 13.8687 9.46151 13.9558 9.46763C14.0429 9.47376 14.1291 9.44751 14.198 9.39393C14.0382 9.39551 13.8786 9.38417 13.7207 9.36004L13.7235 9.36286ZM12.0066 7.1198C12.0596 7.36973 12.0943 7.62602 12.2307 7.86537C12.218 7.59778 12.0935 7.37115 12.0547 7.12545C12.0283 6.96212 12.0026 6.79903 11.9776 6.63617C11.9733 6.61005 11.9776 6.57121 11.9323 6.58533C11.9069 6.59381 11.9203 6.62134 11.9245 6.64535C11.9514 6.79997 11.9769 6.95882 12.0037 7.11698L12.0066 7.1198ZM13.7242 27.0235C14.1959 26.9381 14.652 26.8075 15.06 26.5448C14.5958 26.6457 14.1467 26.8066 13.7242 27.0235ZM19.7645 20.4659C19.9328 19.942 20.2263 19.457 20.2595 18.8922C20.1245 19.4231 19.9392 19.942 19.7645 20.4631V20.4659ZM16.3441 25.8099C16.7453 25.5705 17.1177 25.2863 17.4543 24.9626C17.4055 24.9626 17.3886 24.9626 17.3801 24.9676C17.0399 25.2493 16.7161 25.5564 16.3441 25.807V25.8099ZM12.486 27.3059H11.3772C11.7463 27.4196 12.1176 27.3405 12.486 27.3059ZM11.5667 2.02014C11.4112 1.74478 11.1587 1.64523 10.8723 1.7582C11.1236 1.77505 11.3645 1.86487 11.5653 2.01661L11.5667 2.02014ZM15.0883 7.77994C15.1336 7.65006 15.1927 7.52533 15.2643 7.40786C15.2001 7.4433 15.1485 7.49782 15.1167 7.56386C15.0849 7.6299 15.0745 7.70418 15.0868 7.77641L15.0883 7.77994ZM20.594 19.8164C20.6487 19.6656 20.6741 19.5057 20.6689 19.3454C20.6154 19.4953 20.5895 19.6537 20.5926 19.8128L20.594 19.8164ZM12.597 8.85664C12.5976 8.82851 12.5909 8.80071 12.5775 8.77596C12.5641 8.7512 12.5445 8.73035 12.5207 8.71543C12.5206 8.74346 12.5275 8.77106 12.5409 8.79572C12.5542 8.82039 12.5735 8.84133 12.597 8.85664ZM18.6126 9.93757L18.5956 9.91639L18.5864 9.92345C18.5917 9.93059 18.5974 9.93742 18.6034 9.94392C18.6034 9.94392 18.6091 9.93757 18.6126 9.93757ZM12.4089 8.5368L12.4252 8.52198C12.4195 8.51633 12.4146 8.50786 12.4082 8.50574C12.4019 8.50362 12.3835 8.50574 12.3884 8.52268C12.3934 8.53963 12.4019 8.52551 12.4089 8.53327V8.5368ZM12.5108 8.69072L12.5037 8.66671C12.5037 8.66671 12.4945 8.67377 12.4945 8.6766C12.497 8.68322 12.5001 8.6896 12.5037 8.69566L12.5108 8.69072ZM5.40619 23.7292C5.40619 23.7292 5.397 23.7348 5.3977 23.737C5.39963 23.7428 5.402 23.7484 5.40478 23.7539C5.40478 23.7539 5.41397 23.7482 5.41326 23.7461C5.4123 23.7387 5.4099 23.7315 5.40619 23.7249V23.7292Z" stroke="#F8F2EA" mask="url(#path-1-outside-1_6005_13470)"/>
<path d="M7.36345 3.72076C6.72902 4.45252 6.15145 5.2335 5.63597 6.05662C5.38051 6.46632 5.13971 6.88526 4.91845 7.31488C4.88704 7.37534 4.8312 7.43864 4.91217 7.51048C4.96951 7.44821 5.01537 7.37593 5.04758 7.2971C6.15526 5.33893 7.58889 3.68235 9.41828 2.39351C9.77215 2.14456 10.1379 1.92904 10.5748 1.84724C11.2728 1.71779 11.7614 2.08054 11.8158 2.7968C11.8416 3.12115 11.7816 3.43696 11.746 3.75988C11.6637 4.56363 11.5729 5.36738 11.5974 6.17825C11.6274 7.16124 11.8528 8.09231 12.384 8.92594C12.6171 9.29225 12.9095 9.60948 13.3088 9.79513C13.5927 9.92695 13.9055 9.98065 14.2161 9.9509C14.3488 9.93991 14.4766 9.89505 14.5877 9.82046C14.6988 9.74587 14.7897 9.64396 14.852 9.52413C15.0614 9.16849 15.1312 8.7723 15.2429 8.38607C15.2792 8.25662 15.3078 8.12503 15.349 7.997C15.4453 7.69755 15.7405 7.60508 15.9939 7.78362C16.717 8.28649 17.2502 8.97288 17.7521 9.68559C18.2728 10.4296 18.6755 11.2504 19.0622 12.0734C19.1027 12.1594 19.1271 12.254 19.169 12.3401C19.4593 12.9383 19.6666 13.5671 19.8746 14.1987C20.1056 14.8972 20.1831 15.6149 20.2006 16.3418C20.2194 17.4885 20.0556 18.6307 19.7155 19.7239C19.2509 21.2943 18.4431 22.7368 17.3528 23.9433C16.7337 24.629 16.0407 25.2442 15.2143 25.6745C14.6817 25.9527 14.1429 26.2187 13.5545 26.3602C12.6701 26.5736 11.776 26.5736 10.8784 26.4932C9.76168 26.3929 8.7217 26.0337 7.74524 25.4846C7.34809 25.2613 7.0005 24.959 6.65501 24.6602C5.7979 23.9191 5.11249 23.0243 4.49897 22.074C4.07543 21.4307 3.72115 20.7427 3.44224 20.022C3.29636 19.6336 3.20702 19.2232 3.10581 18.8171C3.89522 20.65 4.77606 22.424 6.16224 23.8835C6.21738 23.8309 6.19016 23.8124 6.17341 23.7889C5.26185 22.6936 4.59808 21.4417 4.00969 20.1507C3.54973 19.1421 3.16654 18.1065 2.92993 17.0168C2.59736 15.466 2.56936 13.8635 2.84756 12.3017C3.25279 9.87019 4.19899 7.56553 5.61363 5.56441C6.10095 4.89004 6.66149 4.27396 7.28458 3.72788C7.29939 3.71692 7.31503 3.70717 7.33134 3.69871L7.36345 3.72076ZM9.19982 9.24459C8.79673 9.2464 8.39582 9.3048 8.00838 9.41815C7.2353 9.65139 6.5302 10.0744 5.95494 10.6501C4.83818 11.7341 4.37682 13.0542 4.58412 14.6055C4.72721 15.6767 5.2123 16.5843 5.98356 17.3241C7.35368 18.6428 8.94506 19.0816 10.7703 18.5276C10.8666 18.4984 10.8903 18.5276 10.9231 18.6037C11.0599 18.9152 11.1995 19.2253 11.3419 19.534C11.885 20.7442 12.5015 21.9187 13.188 23.0506C13.4148 23.4236 13.6958 23.7593 14.0214 24.0464C14.1518 24.1655 14.3028 24.2588 14.4667 24.3217C14.9365 24.4917 15.2875 24.3288 15.4502 23.87C15.5039 23.7192 15.4676 23.5748 15.4292 23.4312C15.2813 22.8721 14.9888 22.3841 14.6991 21.8934C13.8979 20.5341 12.9786 19.2495 12.2255 17.859C12.1844 17.7821 12.176 17.743 12.2514 17.6847C12.3997 17.5656 12.5363 17.432 12.659 17.2857C13.3151 16.536 13.6766 15.6554 13.7869 14.6617C13.909 13.5592 13.759 12.5016 13.1901 11.5477C12.2856 10.0263 10.9161 9.31217 9.19982 9.24459Z" fill="#F8F2EA"/>
<path d="M13.8226 27.0744C14.243 26.8335 14.6898 26.6548 15.1517 26.5427C14.7458 26.8313 14.2919 26.9764 13.8226 27.0744Z" fill="#F8F2EA"/>
<path d="M19.9365 20.4289C20.0303 19.9008 20.1298 19.3749 20.2023 18.834C20.1845 19.4064 20.0269 19.898 19.9365 20.4289Z" fill="#F8F2EA"/>
<path d="M16.481 25.7453C16.8372 25.5096 17.1474 25.2207 17.4731 24.9525C17.4813 24.9458 17.4975 24.9525 17.5442 24.9478C17.2219 25.2524 16.8652 25.52 16.481 25.7453Z" fill="#F8F2EA"/>
<path d="M11.6959 2.0872C11.4653 1.9548 11.188 1.87612 10.8984 1.86091C11.2306 1.76331 11.5172 1.84932 11.6959 2.0872Z" fill="#F8F2EA"/>
<path d="M18.3238 23.8845C18.3558 23.903 18.3366 23.9353 18.3278 23.9547C18.2062 24.2299 18.0542 24.468 17.8793 24.6577C17.87 24.6712 17.8583 24.6795 17.8458 24.6815C17.8333 24.6835 17.8207 24.6791 17.8099 24.6688L18.3267 23.8891L18.3238 23.8845Z" fill="#F8F2EA"/>
<path d="M4.80285 23.0871L5.31631 23.5985L5.28947 23.6187C5.10276 23.4604 4.93379 23.2883 4.78467 23.1044L4.80285 23.0871Z" fill="#F8F2EA"/>
<path d="M12.2281 7.13781L12.1351 7.13228C12.0831 6.97747 12.0339 6.82197 11.9765 6.66786C11.9683 6.64436 11.9423 6.6174 11.9915 6.60911C12.0736 6.59529 12.0708 6.6333 12.079 6.65887C12.1283 6.81875 12.178 6.9784 12.2281 7.13781Z" fill="#8B8B8B"/>
<path d="M15.16 7.93527C15.1406 7.83151 15.155 7.72442 15.2011 7.62906C15.2473 7.53369 15.323 7.45485 15.4174 7.40363C15.3126 7.57148 15.2264 7.74968 15.16 7.93527Z" fill="#F8F2EA"/>
<path d="M5.34428 23.3529L5.58162 23.6181C5.47175 23.5659 5.37954 23.4824 5.31641 23.3782L5.34428 23.3529Z" fill="#F8F2EA"/>
<path d="M5.70003 23.8845L5.84737 24.0429C5.80716 24.0742 5.77013 24.1101 5.73687 24.1497L5.58215 23.9954L5.70003 23.8845Z" fill="#8B8B8B"/>
<path d="M5.7359 24.1497L5.58215 23.9883C5.61686 23.9498 5.65551 23.915 5.69747 23.8845L5.84737 24.0498C5.80751 24.08 5.77023 24.1134 5.7359 24.1497Z" fill="#8B8B8B"/>
<path d="M9.16496 9.26434C10.8745 9.33198 12.2385 10.0475 13.1395 11.5646C13.7061 12.5193 13.8555 13.578 13.7339 14.6815C13.624 15.6782 13.2639 16.5575 12.6104 17.3078C12.4882 17.4543 12.3522 17.588 12.2044 17.7072C12.1293 17.7656 12.1349 17.8048 12.1787 17.8817C12.9288 19.2735 13.8472 20.5593 14.6425 21.9198C14.931 22.411 15.2223 22.8994 15.3697 23.459C15.4079 23.6014 15.4441 23.7473 15.3905 23.8983C15.2286 24.3575 14.8789 24.5205 14.411 24.3503C14.2478 24.2874 14.0974 24.194 13.9675 24.0748C13.6431 23.7875 13.3633 23.4514 13.1374 23.0781C12.4536 21.9451 11.8395 20.7695 11.2986 19.5583C11.1595 19.2493 11.0205 18.9389 10.8814 18.6271C10.8488 18.5559 10.8251 18.5217 10.7292 18.5509C8.91121 19.1055 7.32613 18.6662 5.96144 17.3463C5.19671 16.6059 4.71006 15.6974 4.56755 14.6252C4.35898 13.0725 4.82269 11.7511 5.93293 10.6662C6.50582 10.0912 7.2076 9.66877 7.97685 9.43592C8.3633 9.32307 8.7631 9.26533 9.16496 9.26434ZM12.3629 21.2748C12.3664 21.2918 12.3671 21.3132 12.3942 21.3004C12.3906 21.306 12.3882 21.3123 12.3872 21.3189C12.3862 21.3255 12.3866 21.3322 12.3884 21.3386C12.3902 21.3451 12.3933 21.351 12.3975 21.3561C12.4018 21.3612 12.407 21.3652 12.413 21.368C12.4177 21.412 12.4388 21.4523 12.4721 21.4805L12.4929 21.5069C12.511 21.4898 12.4999 21.4777 12.4867 21.4656C12.4798 21.4225 12.4572 21.3838 12.4234 21.3573C12.4234 21.3331 12.4199 21.3104 12.3914 21.3032L12.372 21.2641L12.3476 21.2477C12.3435 21.2634 12.3518 21.2705 12.365 21.2748H12.3629ZM12.1954 20.9544L12.203 20.9786L12.2148 20.9658L12.194 20.9565L12.1815 20.9067C12.178 20.9067 12.171 20.911 12.1703 20.9145C12.169 20.9352 12.1738 20.9515 12.1975 20.9544H12.1954ZM6.58921 17.2872C6.5853 17.2796 6.57924 17.2734 6.57183 17.2694C6.53499 17.2309 6.50579 17.1825 6.45086 17.1654L6.41124 17.1334C6.39177 17.1071 6.37439 17.0786 6.35284 17.0537C5.17933 15.6846 4.81434 14.1347 5.37468 12.3869C5.38581 12.3542 5.41431 12.3214 5.37885 12.2858C5.34479 12.2979 5.34201 12.33 5.33088 12.357C5.01456 13.0924 4.88665 13.8521 5.02152 14.6537C5.17485 15.6278 5.66065 16.5145 6.39247 17.1562L6.43209 17.1861C6.44322 17.2466 6.50161 17.2573 6.53777 17.295L6.56975 17.3199L6.61841 17.3591C6.63092 17.3705 6.64483 17.3833 6.65734 17.3591C6.65734 17.3591 6.64552 17.342 6.63927 17.3328L6.58921 17.2872ZM12.876 22.1661L12.8544 22.1391C12.8357 22.1561 12.8482 22.169 12.86 22.1825C12.8718 22.196 12.8662 22.2359 12.8948 22.2167C12.9233 22.1974 12.8982 22.1782 12.8781 22.1661H12.876ZM12.3066 21.1594C12.3066 21.1487 12.3156 21.1253 12.2885 21.1416L12.3087 21.1566L12.3233 21.2036C12.3233 21.2036 12.3316 21.1979 12.3323 21.1943C12.3365 21.1744 12.333 21.1587 12.3087 21.1594H12.3066ZM12.6493 21.7617L12.632 21.7354C12.6285 21.7354 12.6229 21.7425 12.6236 21.7439C12.6243 21.7454 12.634 21.7632 12.6396 21.7724C12.6451 21.8161 12.6658 21.8563 12.698 21.8856L12.7196 21.9119C12.7376 21.8963 12.7279 21.8813 12.7196 21.8664C12.7064 21.8259 12.6829 21.7897 12.6514 21.7617H12.6493ZM12.7634 21.9632L12.7411 21.9354C12.7216 21.9518 12.7328 21.9668 12.7411 21.9817C12.7604 22.0429 12.7994 22.0956 12.8516 22.1312C12.8359 22.0692 12.8064 22.0117 12.7654 21.9632H12.7634ZM13.1561 22.631C13.1506 22.6025 13.1256 22.5926 13.1124 22.6104C13.0991 22.6282 13.1318 22.6353 13.1422 22.6488C13.3014 22.9158 13.462 23.1806 13.6449 23.4319L13.6817 23.4654C13.6853 23.4611 13.6878 23.456 13.689 23.4505C13.6901 23.445 13.6899 23.4392 13.6883 23.4338C13.6867 23.4284 13.6838 23.4235 13.6798 23.4196C13.6759 23.4157 13.671 23.4128 13.6657 23.4113C13.5215 23.1353 13.3516 22.8742 13.1582 22.6317L13.1561 22.631ZM11.4007 19.4422C11.4825 19.6504 11.5799 19.8518 11.692 20.0445L11.7275 20.026L11.4313 19.428C11.2923 19.1354 11.1533 18.8428 11.0066 18.5509C10.992 18.5217 10.9808 18.459 10.9329 18.4882C10.8849 18.5174 10.9384 18.5537 10.953 18.5815C11.1004 18.8677 11.2513 19.1546 11.4007 19.4422ZM5.30725 13.8514C5.30341 14.0201 5.31248 14.1889 5.33436 14.3561C5.55405 15.9124 6.31391 17.0857 7.70502 17.7834C8.36525 18.1123 9.10852 18.2244 9.83331 18.1045C10.5581 17.9846 11.2291 17.6385 11.7546 17.1135C12.3908 16.4715 12.8081 15.6366 12.9446 14.7327C13.0811 13.8287 12.9296 12.9038 12.5124 12.095C12.1595 11.3961 11.612 10.8201 10.9393 10.4399C10.2666 10.0597 9.49882 9.8924 8.73323 9.9592C6.95767 10.1237 5.27805 11.6921 5.30725 13.8514ZM11.2165 18.37C11.2221 18.3832 11.2283 18.396 11.2353 18.4085C12.2406 20.0217 13.0804 21.7354 14.1058 23.3358C14.1869 23.4666 14.315 23.5595 14.4624 23.5943C14.6439 23.6405 14.7551 23.558 14.7669 23.3657C14.779 23.1964 14.7432 23.0272 14.6641 22.878C14.5577 22.6801 14.452 22.4822 14.3352 22.2907C13.4878 20.8989 12.5444 19.5704 11.7727 18.1323C11.7504 18.091 11.7317 18.066 11.6788 18.0988C11.5252 18.1928 11.3695 18.2796 11.2165 18.37ZM13.2125 14.4401C13.3675 13.7453 13.1888 12.3983 12.4602 11.3881C12.0626 10.8363 11.5718 10.4148 10.9468 10.1664C12.4512 11.0107 13.3223 12.6475 13.2104 14.4401H13.2125ZM14.9296 23.5914C14.8281 23.7879 14.6515 23.7957 14.4764 23.7972C14.6349 23.8463 14.7955 23.9018 14.9421 23.7836C14.9985 23.7359 14.963 23.6612 14.9275 23.5914H14.9296ZM11.8749 20.392L11.9069 20.3685C11.8784 20.3215 11.8707 20.2595 11.7935 20.2453L11.8749 20.392ZM12.5624 21.5873C12.5555 21.5927 12.549 21.5986 12.543 21.6051C12.5527 21.6193 12.5631 21.6336 12.5743 21.6471C12.5791 21.6421 12.5896 21.635 12.5889 21.6336C12.5791 21.6179 12.5701 21.6037 12.5604 21.5873H12.5624ZM12.2475 21.0234C12.2475 21.0234 12.2413 21.0185 12.2399 21.0192C12.2368 21.0214 12.2339 21.024 12.2315 21.027L12.2468 21.032L12.2475 21.0234ZM12.2788 21.0861L12.2705 21.0747C12.2705 21.0783 12.2621 21.0811 12.2614 21.0847C12.2607 21.0882 12.2663 21.0925 12.2698 21.0961L12.2788 21.0861ZM12.5305 21.5439C12.5305 21.5439 12.5242 21.5382 12.5228 21.5389C12.5214 21.5396 12.5166 21.5446 12.5131 21.5474L12.5305 21.5531V21.5439ZM12.6146 21.6863C12.6146 21.6863 12.6076 21.6806 12.6062 21.682C12.6048 21.6834 12.6 21.6877 12.5965 21.6912L12.6146 21.6962V21.6863ZM11.731 20.0588C11.731 20.0623 11.7219 20.0659 11.7219 20.0687C11.7241 20.0755 11.7271 20.082 11.731 20.088C11.7344 20.088 11.74 20.0808 11.74 20.078C11.7379 20.0712 11.7348 20.0647 11.731 20.0588ZM11.7553 20.1414L11.7734 20.1314C11.7699 20.1278 11.7664 20.1214 11.7643 20.1221C11.7574 20.1242 11.7509 20.1273 11.7449 20.1314L11.7553 20.1414ZM11.7776 20.1933L11.788 20.2033C11.7915 20.1972 11.7943 20.1908 11.7963 20.1841C11.7963 20.1841 11.7908 20.1777 11.7873 20.1748L11.7776 20.1933Z" fill="#040404"/>
<path d="M5.3172 13.86C5.2914 11.761 6.97551 10.2363 8.75581 10.0758C9.52344 10.0109 10.2932 10.1735 10.9677 10.5431C11.6422 10.9126 12.1912 11.4726 12.545 12.152C12.9622 12.9383 13.1133 13.837 12.9758 14.7152C12.8383 15.5933 12.4196 16.4042 11.7818 17.0277C11.2548 17.538 10.5821 17.8745 9.85533 17.991C9.12861 18.1076 8.38336 17.9986 7.72137 17.6789C6.32724 17.0007 5.56465 15.8601 5.34438 14.3473C5.32262 14.1858 5.31353 14.0229 5.3172 13.86ZM9.38526 10.9173C9.11916 10.9192 8.85365 10.9423 8.5913 10.9866C7.32683 11.1478 6.29099 12.2226 6.19689 13.478C6.11812 14.5493 6.44853 15.485 7.20763 16.2512C7.96673 17.0173 8.89034 17.3391 9.96522 17.1072C10.7787 16.928 11.3816 16.4387 11.8236 15.7515C12.2795 15.0407 12.5109 14.2704 12.3812 13.4282C12.1414 11.925 10.9334 10.9173 9.38177 10.9173H9.38526Z" fill="#F8F2EA"/>
<path d="M11.1646 18.3259C11.3269 18.2345 11.4901 18.1467 11.6496 18.0517C11.7049 18.0186 11.7224 18.0438 11.7479 18.0855C12.5577 19.539 13.5459 20.8817 14.4314 22.2885C14.5538 22.482 14.6645 22.6821 14.7759 22.8821C14.8588 23.0328 14.8962 23.2039 14.8837 23.375C14.8713 23.5693 14.7548 23.6528 14.5647 23.606C14.4103 23.5708 14.2761 23.477 14.1911 23.3448C13.117 21.7272 12.2372 19.9952 11.1842 18.3647C11.1769 18.3521 11.1704 18.3392 11.1646 18.3259Z" fill="#F8F2EA"/>
<path d="M6.36223 16.9732C5.68816 16.3428 5.2407 15.4716 5.09946 14.5147C4.97523 13.7292 5.09306 12.9808 5.38441 12.2583C5.39466 12.2338 5.39722 12.2024 5.4286 12.1884C5.46126 12.2234 5.435 12.2583 5.42476 12.2877C4.90863 14.0076 5.24482 15.5274 6.32573 16.8724C6.34558 16.8969 6.36159 16.9249 6.37952 16.9508L6.36223 16.9732Z" fill="#F8F2EA"/>
<path d="M13.2376 14.5808C13.3531 12.7959 12.4538 11.1662 10.8984 10.3276C11.5444 10.575 12.0468 10.9947 12.461 11.544C13.2132 12.5478 13.3976 13.8889 13.2376 14.5808Z" fill="#F8F2EA"/>
<path d="M11.3987 19.3656C11.2455 19.1303 11.0909 18.8908 10.9398 18.6519C10.9248 18.629 10.8685 18.6001 10.9191 18.5748C10.9697 18.5495 10.9797 18.6025 10.9947 18.6266C11.1415 18.8678 11.2854 19.1097 11.4301 19.3515L11.3987 19.3656Z" fill="#F8F2EA"/>
<path d="M13.791 23.3529C13.5124 23.1034 13.2678 22.8397 13.0253 22.5731L13.0465 22.5554C13.3421 22.7968 13.602 23.0567 13.8227 23.3316L13.791 23.3529Z" fill="#F8F2EA"/>
<path d="M11.4549 19.3656L11.6959 19.8813L11.667 19.8972C11.5758 19.7318 11.4966 19.5589 11.4301 19.3802L11.4549 19.3656Z" fill="#8B8B8B"/>
<path d="M11.8864 20.4283L11.696 20.1631C11.8767 20.1888 11.8946 20.3008 11.9613 20.3858L11.8864 20.4283Z" fill="#8B8B8B"/>
<path d="M12.8077 21.758C12.9096 21.8338 12.9838 21.9246 13.0245 22.0232C12.8991 21.967 12.8056 21.8838 12.7593 21.7872C12.7766 21.7784 12.7928 21.7686 12.8077 21.758Z" fill="#8B8B8B"/>
<path d="M6.56505 17.5042L6.37939 17.3554L6.45365 17.239L6.64461 17.4149L6.56505 17.5042Z" fill="#8B8B8B"/>
<path d="M12.493 21.1935L12.2278 21.0242C12.5845 20.8389 12.4473 21.1048 12.4656 21.2257L12.493 21.1935Z" fill="#8B8B8B"/>
<path d="M12.6211 21.2263C12.7367 21.3041 12.834 21.3818 12.6758 21.4915L12.4933 21.3223L12.6211 21.2263Z" fill="#8B8B8B"/>
<path d="M9.38897 10.8593C10.9763 10.8593 12.212 11.8857 12.4551 13.4134C12.5913 14.2713 12.3546 15.056 11.8847 15.78C11.4298 16.485 10.8151 16.9848 9.9801 17.1638C8.88055 17.4 7.93574 17.0715 7.15921 16.2918C6.38268 15.5121 6.04469 14.5583 6.12526 13.467C6.2201 12.1867 7.28114 11.0919 8.57465 10.9291C8.84374 10.8841 9.11607 10.8608 9.38897 10.8593ZM7.76674 11.9872L8.14467 11.7461L8.12042 11.7123C7.98009 11.7718 7.85327 11.8586 7.74749 11.9675L7.67618 12.019C7.52758 12.1325 7.39179 12.2616 7.27116 12.4039C6.93032 12.7902 6.78984 13.2498 6.7492 13.7525C6.73284 13.8235 6.73284 13.8972 6.7492 13.9682C6.7606 13.8914 6.80553 13.8272 6.78556 13.7567C6.88492 13.1013 7.20619 12.4987 7.69686 12.0472L7.76674 11.9872ZM8.53044 11.5755C8.79885 11.4772 9.08351 11.4294 9.36971 11.4345C9.8298 11.4497 10.2784 11.5804 10.6732 11.8145C11.5831 12.4363 12.0038 13.2992 11.9603 14.4194C12.2034 13.2209 11.6572 12.2897 10.711 11.7743C10.3063 11.5291 9.8415 11.3979 9.36686 11.3951C9.08268 11.3824 8.79897 11.4288 8.534 11.5311C8.39527 11.5689 8.26289 11.6266 8.1411 11.7024L8.15893 11.7398L8.53044 11.5755ZM9.30625 11.7447C9.13271 11.7392 8.95929 11.7587 8.79142 11.8025C8.23408 11.9565 7.74698 12.2947 7.4114 12.7608C7.07582 13.2269 6.91206 13.7927 6.94743 14.3637C6.98807 14.9904 7.20984 15.5473 7.69971 15.9668C8.07681 16.2882 8.54314 16.4897 9.03785 16.545C9.53255 16.6003 10.0326 16.5069 10.4728 16.277C10.8379 16.0866 11.1859 15.8702 11.4169 15.5213C11.751 15.0155 11.8691 14.3997 11.7456 13.8082C11.5339 12.6739 10.5641 11.7419 9.30625 11.7475V11.7447Z" fill="#040404"/>
<path d="M9.24293 11.6577C10.4837 11.6521 11.4403 12.5784 11.6492 13.7044C11.771 14.2923 11.6544 14.9044 11.3249 15.407C11.0998 15.7538 10.7538 15.9675 10.3936 16.1581C9.95985 16.3872 9.4668 16.4808 8.97883 16.4265C8.49087 16.3723 8.03065 16.1728 7.65822 15.854C7.17501 15.4371 6.95485 14.8836 6.91617 14.2607C6.88128 13.6931 7.04282 13.1308 7.37383 12.6676C7.70485 12.2043 8.18532 11.8681 8.73509 11.7151C8.90068 11.6716 9.07175 11.6522 9.24293 11.6577Z" fill="#F8F2EA"/>
<path d="M10.6712 11.6568C11.6058 12.2265 12.1454 13.2575 11.9052 14.5808C11.9481 13.3425 11.5326 12.3886 10.6331 11.7012C10.6317 11.6708 10.6472 11.6599 10.6712 11.6568Z" fill="#F8F2EA"/>
<path d="M7.70896 11.9491C7.29707 12.4339 7.0276 13.0805 6.9445 13.7833H6.9115C6.9457 13.2468 7.06391 12.7504 7.35073 12.3357C7.45225 12.183 7.56651 12.0445 7.69156 11.9226L7.70896 11.9491Z" fill="#F8F2EA"/>
<path d="M10.6331 11.6315C10.6091 11.6315 10.5936 11.6394 10.595 11.6567C10.2041 11.5092 9.75967 11.427 9.30396 11.4179V11.3909C9.77363 11.3934 10.2333 11.4766 10.6331 11.6315Z" fill="#8B8B8B"/>
<path d="M9.3043 11.3938V11.4553C9.03235 11.4479 8.76187 11.5162 8.50684 11.6567L8.5109 11.5892C8.76325 11.4423 9.03355 11.3757 9.3043 11.3938Z" fill="#F8F2EA"/>
<path d="M7.70874 11.9035C7.85034 11.7982 8.02009 11.7143 8.20793 11.6568L8.24038 11.6895L7.73451 11.9226C7.72775 11.9151 7.719 11.9086 7.70874 11.9035Z" fill="#8B8B8B"/>
<path d="M7.97396 11.9895L7.76836 12.1878L7.70874 12.097L7.91434 11.9226C7.93791 11.9399 7.9582 11.9627 7.97396 11.9895Z" fill="#F8F2EA"/>
</svg>
