<svg width="48" height="49" viewBox="0 0 48 49" fill="none" xmlns="http://www.w3.org/2000/svg">
<path d="M0.414368 23.6329C0.501394 17.6316 2.51381 12.3476 6.58583 7.87787C9.90462 4.23565 14.012 1.89618 18.7896 0.70611C20.2632 0.339144 21.7608 0.126019 23.2776 0.0402794C26.414 -0.137569 29.4663 0.270062 32.4261 1.33226C35.4553 2.41944 38.132 4.07593 40.4684 6.28066C42.4567 8.15665 44.007 10.3477 45.2666 12.765C46.5637 15.2549 47.4064 17.8761 47.7845 20.6526C47.9541 21.8976 48.0303 23.1479 47.989 24.4021C47.7978 30.2417 45.7608 35.3528 41.7886 39.655C38.4231 43.2997 34.2817 45.6416 29.4201 46.6989C28.0257 47.0022 26.6146 47.1922 25.1858 47.2236C18.7985 47.3642 13.1664 45.377 8.36372 41.1772C4.54982 37.8417 2.12981 33.6532 0.997982 28.7273C0.646928 27.2007 0.458618 25.6515 0.436985 24.0837C0.435018 23.9416 0.423218 23.8 0.414859 23.6334L0.414368 23.6329Z" fill="#181818"/>
<path d="M25.426 44.8812C22.125 44.941 19.0461 44.4001 16.0936 43.1963C13.9755 42.3331 11.9965 41.2273 10.2742 39.7094C7.44265 37.2146 5.37222 34.1966 4.06782 30.6597C3.49797 29.1154 3.11643 27.5246 2.91337 25.8931C2.71277 24.2851 2.65229 22.6702 2.87305 21.0627C3.17002 18.9011 3.80625 16.8331 4.75714 14.8655C6.63238 10.9851 9.39902 7.88479 13.0462 5.58402C15.4613 4.06079 18.0898 3.04661 20.9071 2.53267C22.2941 2.27937 23.6929 2.16031 25.102 2.17354C27.2851 2.19412 29.4292 2.49494 31.5021 3.18184C32.9457 3.66002 34.2899 4.36456 35.5623 5.1955C39.6919 7.89263 42.6208 11.5662 44.4621 16.1134C45.2611 18.0863 45.7586 20.1358 45.9578 22.2562C46.0541 23.2802 46.1082 24.3066 46.0217 25.3321C45.9189 26.5501 45.6731 27.7451 45.3402 28.9214C44.352 32.4093 42.6065 35.4739 40.1192 38.1142C37.5187 40.8745 34.4104 42.8597 30.8074 44.0586C29.7252 44.4187 28.5963 44.5971 27.4635 44.7333C26.7486 44.819 26.0308 44.8572 25.426 44.8817V44.8812Z" fill="#F8F2EA"/>
<path d="M25.4243 42.9959C22.4533 43.0505 19.6822 42.5566 17.0249 41.4575C15.1186 40.6693 13.3374 39.6596 11.7873 38.2737C9.23883 35.9958 7.37539 33.2401 6.2014 30.0107C5.68852 28.6007 5.34512 27.1481 5.16237 25.6584C4.98182 24.1902 4.92739 22.7158 5.12608 21.248C5.39336 19.2743 5.96598 17.3861 6.8218 15.5895C8.50956 12.0465 10.9996 9.21566 14.2822 7.11491C16.4558 5.7241 18.8215 4.79808 21.3572 4.32881C22.6055 4.09753 23.8645 3.98883 25.1327 4.00091C27.0975 4.01969 29.0273 4.29437 30.893 4.92155C32.1922 5.35816 33.402 6.00145 34.5473 6.76016C38.264 9.22282 40.9 12.577 42.5573 16.7289C43.2764 18.5304 43.7242 20.4016 43.9034 22.3378C43.9901 23.2727 44.0388 24.2099 43.9609 25.1462C43.8685 26.2583 43.6472 27.3494 43.3476 28.4235C42.4581 31.6082 40.8872 34.4064 38.6485 36.8171C36.308 39.3375 33.5105 41.1502 30.2677 42.2448C29.2937 42.5736 28.2777 42.7365 27.2581 42.8608C26.6147 42.9391 25.9686 42.974 25.4243 42.9964V42.9959Z" fill="#181818"/>
<path d="M7.02431 9.35996C7.5263 8.60643 8.09418 7.90288 8.70091 7.23264C9.0377 6.86077 9.43841 6.55211 9.85093 6.21454C8.95805 7.33503 7.98847 8.34774 7.0661 9.40161C7.02971 9.40994 7.01054 9.40161 7.02431 9.35996Z" fill="#F8F2EA"/>
<path d="M38.5196 6.95105C39.6067 7.83344 40.5935 8.81528 41.4697 9.90638C41.477 9.94215 41.4667 9.96027 41.4269 9.94705C40.4903 8.91621 39.4823 7.95592 38.4734 6.99662C38.4665 6.95938 38.4793 6.94125 38.5191 6.95105H38.5196Z" fill="#F8F2EA"/>
<path d="M47.4581 22.1646C47.5766 23.0808 47.6385 23.9995 47.5486 24.9215C47.5151 25.2674 47.462 25.6114 47.4178 25.9563C47.315 25.9083 47.3834 25.8294 47.3824 25.7628C47.437 24.9063 47.4871 24.0499 47.4576 23.191C47.4463 22.8623 47.4316 22.5335 47.4178 22.2048C47.4045 22.1651 47.4217 22.1553 47.4581 22.1641V22.1646Z" fill="#F8F2EA"/>
<path d="M27.048 45.5818C26.5431 45.647 26.0386 45.7141 25.5332 45.7768C25.0582 45.8361 24.5818 45.8856 24.1074 45.9512C23.982 45.9689 23.8625 45.9493 23.7406 45.9463C23.7047 45.9454 23.6373 45.9772 23.6457 45.8964C23.6511 45.8449 23.6934 45.8248 23.744 45.8214C23.9249 45.8096 24.1054 45.791 24.2868 45.7847C25.1025 45.7562 25.9123 45.6631 26.7211 45.5598C26.8288 45.546 26.9374 45.5289 27.048 45.5813V45.5818Z" fill="#F8F2EA"/>
<path d="M15.3599 3.89961C16.3354 3.3543 17.4018 3.0476 18.4614 2.72375C18.5036 2.70954 18.514 2.72865 18.5066 2.76686C17.4593 3.12648 16.4165 3.49932 15.4007 3.94125C15.3604 3.95301 15.3506 3.93586 15.3599 3.89961Z" fill="#F8F2EA"/>
<path d="M37.4203 41.4679C38.2724 40.7241 39.1446 40.002 39.9343 39.1877C39.7435 39.5591 37.9568 41.1886 37.4203 41.4679Z" fill="#F8F2EA"/>
<path d="M41.232 7.83087C41.6047 8.10377 43.0359 9.77839 43.2356 10.1591C42.5157 9.42808 41.9498 8.5648 41.232 7.83087Z" fill="#F8F2EA"/>
<path d="M37.535 5.56444C37.0187 5.26558 36.5029 4.96622 35.9867 4.66736C36.5556 4.8746 37.1574 5.02355 37.535 5.56444Z" fill="#F8F2EA"/>
<path d="M6.9062 10.5981C7.25972 10.091 7.65895 9.6187 8.05524 9.14493C8.08278 9.11162 8.10638 9.03322 8.17177 9.08222C8.24404 9.1366 8.18013 9.18021 8.14374 9.22332C7.745 9.69562 7.34625 10.1684 6.948 10.6412C6.91309 10.6471 6.89342 10.6378 6.9067 10.5981H6.9062Z" fill="#F8F2EA"/>
<path d="M47.1608 27.8348C47.058 28.5158 46.8987 29.1836 46.6828 29.8381C46.671 29.8524 46.6588 29.8528 46.6455 29.8396C46.8181 29.1326 46.9936 28.4266 47.118 27.7089C47.2109 27.7241 47.1583 27.7887 47.1608 27.8343V27.8348Z" fill="#F8F2EA"/>
<path d="M41.4277 9.94698C41.442 9.93326 41.4562 9.92003 41.4705 9.90631C41.9474 10.4521 42.3634 11.0425 42.7582 11.6485C42.7714 11.6868 42.7533 11.6931 42.7208 11.6853C42.3225 11.0817 41.8707 10.5178 41.4277 9.94698Z" fill="#F8F2EA"/>
<path d="M47.161 27.8347C47.1418 27.7945 47.1694 27.7381 47.1182 27.7092C47.2062 27.0606 47.2942 26.4119 47.3823 25.7632C47.4068 25.8254 47.369 25.8989 47.4177 25.9567C47.3321 26.5829 47.2466 27.2085 47.1615 27.8347H47.161Z" fill="#F8F2EA"/>
<path d="M46.4549 30.5788C46.3477 31.1182 46.12 31.6169 45.9303 32.1284C45.8968 32.2186 45.858 32.3068 45.8216 32.396C45.7891 32.4004 45.766 32.3969 45.7877 32.3558C46.0084 31.7556 46.2405 31.1588 46.4244 30.5459C46.4391 30.5405 46.4539 30.5356 46.4637 30.5528C46.4677 30.5597 46.4622 30.5695 46.4554 30.5788H46.4549Z" fill="#F8F2EA"/>
<path d="M46.7923 17.5396C46.9737 18.1015 47.1483 18.6654 47.1665 19.2612C47.0416 18.6875 46.9172 18.1138 46.7923 17.5396Z" fill="#F8F2EA"/>
<path d="M23.2197 1.72526C23.6445 1.6841 24.0674 1.61747 24.4941 1.6062C24.4961 1.62972 24.4986 1.65275 24.5005 1.67626C24.087 1.70664 23.6735 1.73702 23.2595 1.76739C23.2202 1.77768 23.2089 1.76151 23.2192 1.72477L23.2197 1.72526Z" fill="#F8F2EA"/>
<path d="M2.16911 23.6089V24.7667C2.14846 24.7667 2.12781 24.7657 2.10716 24.7652C2.01965 24.3488 2.17305 23.9401 2.16911 23.6089Z" fill="#F8F2EA"/>
<path d="M3.37907 16.5372C3.30139 16.7478 3.22173 16.9585 3.14651 17.1702C3.12684 17.2255 3.10324 17.2701 3.03834 17.2441C2.95476 17.2103 3.01818 17.1623 3.03687 17.1241C3.13274 16.9272 3.23108 16.7322 3.32892 16.5362C3.34613 16.52 3.36284 16.5205 3.37956 16.5377L3.37907 16.5372Z" fill="#F8F2EA"/>
<path d="M19.5529 2.14069C19.1753 2.23427 18.7982 2.32785 18.4206 2.42192C18.7614 2.23231 19.137 2.16666 19.5126 2.10002C19.551 2.08925 19.5623 2.10492 19.5529 2.14118V2.14069Z" fill="#F8F2EA"/>
<path d="M3.02387 29.6867C2.84294 29.3232 2.79181 28.9234 2.7392 28.5236C2.83409 28.9112 2.92898 29.2992 3.02387 29.6867Z" fill="#F8F2EA"/>
<path d="M6.90605 10.5981C6.91982 10.6123 6.93359 10.627 6.94735 10.6412C6.77478 10.8778 6.6022 11.115 6.42962 11.3516C6.41487 11.3418 6.40061 11.332 6.38586 11.3222C6.55254 11.0768 6.71086 10.8254 6.90605 10.5981Z" fill="#F8F2EA"/>
<path d="M10.0446 40.6041C10.2756 40.7869 10.5067 40.9696 10.7378 41.1524C10.3764 40.9863 10.1527 40.8084 10.0446 40.6041Z" fill="#F8F2EA"/>
<path d="M28.0361 1.38233C27.7736 1.36274 27.5105 1.34265 27.2288 1.32158C27.5184 1.17068 27.776 1.34804 28.041 1.33432C28.0391 1.35 28.0376 1.36617 28.0356 1.38184L28.0361 1.38233Z" fill="#F8F2EA"/>
<path d="M32.8528 3.34253C33.1561 3.38123 33.4192 3.49735 33.6586 3.67177C33.3902 3.56202 33.1212 3.45228 32.8528 3.34253Z" fill="#F8F2EA"/>
<path d="M18.5067 2.76688C18.4914 2.75267 18.4767 2.73798 18.4614 2.72377C18.6817 2.62284 18.9172 2.57923 19.1488 2.52191C19.1537 2.53759 19.1586 2.55327 19.1635 2.56895C18.9442 2.63509 18.7255 2.70074 18.5062 2.76688H18.5067Z" fill="#F8F2EA"/>
<path d="M29.3683 45.3938C29.5556 45.3384 29.743 45.2825 29.9303 45.2272C29.8187 45.4202 29.6132 45.3761 29.4494 45.4359C29.4091 45.4467 29.3634 45.4687 29.3683 45.3938Z" fill="#F8F2EA"/>
<path d="M25.7412 46.2212C26.0416 46.2159 26.3381 46.1311 26.6415 46.1879C26.3411 46.1933 26.0456 46.2908 25.7412 46.2212Z" fill="#F8F2EA"/>
<path d="M9.36908 39.4189C9.53969 39.5786 9.71079 39.7388 9.8814 39.8985C9.87058 39.9098 9.85928 39.9216 9.84846 39.9328C9.65966 39.7912 9.49446 39.6256 9.36908 39.4189Z" fill="#F8F2EA"/>
<path d="M10.3976 40.4007C10.2161 40.2768 10.0519 40.1342 9.91327 39.9632C10.1031 40.0764 10.2687 40.2185 10.4251 40.3723C10.429 40.3939 10.4197 40.4037 10.3976 40.4007Z" fill="#F8F2EA"/>
<path d="M4.01587 32.9164C3.8959 32.7209 3.81723 32.5098 3.78625 32.279C3.87279 32.4828 3.95932 32.6871 4.04586 32.8909C4.04586 32.911 4.03602 32.9193 4.01636 32.9169L4.01587 32.9164Z" fill="#F8F2EA"/>
<path d="M38.5198 6.95094C38.5046 6.96613 38.4894 6.98132 38.4741 6.99651C38.3566 6.8897 38.2391 6.78289 38.1221 6.67609C38.2848 6.72949 38.4102 6.82993 38.5203 6.95094H38.5198Z" fill="#F8F2EA"/>
<path d="M42.7206 11.6853C42.7329 11.6731 42.7457 11.6608 42.758 11.6486C42.8863 11.7906 42.9743 11.9562 43.0358 12.1405C42.9306 11.9886 42.8259 11.8367 42.7206 11.6853Z" fill="#F8F2EA"/>
<path d="M19.553 2.14072C19.5397 2.127 19.526 2.11328 19.5127 2.09957C19.703 2.03685 19.8962 1.98884 20.0978 1.98639C20.1022 1.99129 20.1061 1.99668 20.1106 2.00158C19.9321 2.07801 19.7403 2.09957 19.553 2.14023V2.14072Z" fill="#F8F2EA"/>
<path d="M13.2474 42.361C13.388 42.4428 13.5291 42.5246 13.6697 42.6059C13.4991 42.5785 13.3555 42.4991 13.2474 42.361Z" fill="#F8F2EA"/>
<path d="M29.3683 45.3937C29.3781 45.4408 29.4224 45.4217 29.4494 45.4359C29.2813 45.4751 29.1136 45.5148 28.9455 45.5539C29.0743 45.4609 29.2198 45.4226 29.3683 45.3937Z" fill="#F8F2EA"/>
<path d="M47.4579 22.1646C47.4446 22.1783 47.4314 22.1916 47.4176 22.2053C47.3655 22.0627 47.3797 21.9172 47.4151 21.7697L47.4579 22.1646Z" fill="#F8F2EA"/>
<path d="M10.9961 40.8686C10.8663 40.7917 10.7428 40.7064 10.6396 40.5957C10.6386 40.5766 10.6484 40.5698 10.6666 40.5742C10.7955 40.63 10.8869 40.7354 10.9951 40.8186C11.0123 40.8348 11.0128 40.8515 10.9961 40.8686Z" fill="#F8F2EA"/>
<path d="M15.36 3.8996C15.3738 3.91332 15.387 3.92753 15.4008 3.94124C15.2971 4.01327 15.182 4.05834 15.0566 4.07794C15.1456 3.99612 15.2459 3.93634 15.3595 3.89911L15.36 3.8996Z" fill="#F8F2EA"/>
<path d="M23.2197 1.72522C23.233 1.73943 23.2468 1.75364 23.2601 1.76784C23.1307 1.8335 22.996 1.80165 22.8593 1.77127C22.9793 1.75609 23.0998 1.74041 23.2197 1.72522Z" fill="#F8F2EA"/>
<path d="M3.37895 16.5371C3.36223 16.5371 3.34502 16.5361 3.32831 16.5356C3.37797 16.4263 3.42763 16.3171 3.47728 16.2083C3.47384 16.3298 3.45418 16.4435 3.37895 16.5371Z" fill="#F8F2EA"/>
<path d="M4.20685 14.4289C4.26634 14.3079 4.32583 14.1864 4.38532 14.0654C4.40008 14.0722 4.41532 14.0791 4.43007 14.0859C4.37352 14.2084 4.33812 14.3407 4.20685 14.4289Z" fill="#F8F2EA"/>
<path d="M46.1098 18.0472C46.0808 17.9316 46.0517 17.8159 46.0227 17.7003C46.1078 17.7861 46.1442 17.888 46.1457 18.0016C46.1643 18.0408 46.1457 18.0511 46.1093 18.0472H46.1098Z" fill="#F8F2EA"/>
<path d="M45.7872 32.3559C45.7985 32.3691 45.8098 32.3828 45.8212 32.3961C45.7848 32.4985 45.744 32.5984 45.6456 32.7072C45.682 32.5622 45.7258 32.4558 45.7872 32.3559Z" fill="#F8F2EA"/>
<path d="M7.02404 9.35992C7.03781 9.37364 7.05207 9.38785 7.06583 9.40157C7.01912 9.5074 6.93456 9.58236 6.84802 9.65781C6.88293 9.54414 6.93898 9.4437 7.02404 9.35992Z" fill="#F8F2EA"/>
<path d="M4.04513 32.8909C4.10708 32.9987 4.16558 33.107 4.17837 33.2354C4.10363 33.1393 4.04267 33.0369 4.01562 32.9169C4.02546 32.9081 4.03529 32.8997 4.04513 32.8909Z" fill="#F8F2EA"/>
<path d="M10.9959 40.8684C10.9959 40.8518 10.9954 40.8352 10.9949 40.8187C11.0918 40.8742 11.1803 40.94 11.2473 41.0345C11.1539 40.9941 11.06 40.9551 10.9959 40.8689V40.8684Z" fill="#F8F2EA"/>
<path d="M45.7964 16.7655C45.7207 16.6827 45.6642 16.5931 45.6843 16.4377C45.731 16.5744 45.764 16.67 45.7964 16.7655Z" fill="#F8F2EA"/>
<path d="M46.1097 18.0472C46.122 18.032 46.1338 18.0168 46.1461 18.0016C46.1952 18.0927 46.2095 18.1912 46.1942 18.297C46.1662 18.2137 46.1377 18.1304 46.1097 18.0472Z" fill="#F8F2EA"/>
<path d="M46.6457 29.8395C46.6584 29.8449 46.6707 29.844 46.683 29.8381C46.655 29.9272 46.627 30.0169 46.5822 30.1595C46.5665 30.0051 46.5921 29.9194 46.6457 29.84V29.8395Z" fill="#F8F2EA"/>
<path d="M20.0977 1.98679C20.2 1.93535 20.3072 1.91281 20.462 1.93094C20.319 1.95985 20.2211 2.00933 20.1105 2.00198C20.1061 1.99708 20.1021 1.99169 20.0977 1.98679Z" fill="#F8F2EA"/>
<path d="M10.6382 40.5945C10.558 40.5297 10.4778 40.4654 10.3976 40.4006C10.4069 40.3913 10.4157 40.3816 10.425 40.3723C10.5165 40.4259 10.5972 40.4922 10.6651 40.5731C10.6534 40.5765 10.6446 40.5838 10.6382 40.5945Z" fill="#F8F2EA"/>
<path d="M46.455 30.5789C46.4446 30.5681 46.4343 30.5568 46.424 30.546C46.4486 30.4608 46.4731 30.3755 46.4977 30.2903C46.511 30.3922 46.5149 30.4916 46.4545 30.5789H46.455Z" fill="#F8F2EA"/>
<path d="M34.9418 41.2645C34.8731 41.3624 34.7787 41.4396 34.6691 41.4876C33.7083 42.0614 32.6708 42.4956 31.5877 42.7772C30.7417 43.0031 29.8994 43.2441 29.0366 43.4019C27.584 43.6667 26.1148 43.8299 24.6395 43.8902C23.2456 43.9481 21.8493 43.9044 20.4618 43.7595C18.5214 43.5569 16.6333 43.1469 14.8152 42.4046C14.2306 42.169 13.6681 41.8818 13.1344 41.5465C13.0305 41.4875 12.9361 41.4132 12.8543 41.3261C13.0327 41.3756 13.1503 41.2859 13.2278 41.1449C13.3247 40.9821 13.3932 40.804 13.4304 40.6183C13.5621 39.9021 13.5528 39.1737 13.6051 38.451C13.7023 37.0721 13.9624 35.7096 14.3801 34.3919C14.7754 33.1008 15.4949 31.9326 16.4699 30.9985C17.1665 30.3346 17.9462 29.7753 18.6867 29.1665C19.3244 28.6417 19.9818 28.1393 20.5271 27.51C21.0248 26.9385 21.4385 26.3166 21.5991 25.5574C21.6833 25.1617 21.7038 24.7551 21.6598 24.3529C23.1987 25.0252 24.7151 24.9785 26.2353 24.3137C26.2462 25.1733 26.4324 26.0217 26.7825 26.8068C27.2288 27.7705 27.8946 28.5567 28.6855 29.2515C29.1776 29.6847 29.6949 30.0919 30.1422 30.5727C30.7417 31.2161 31.2216 31.951 31.7147 32.6765C32.8072 34.2826 33.5187 36.0503 33.9697 37.9299C34.1831 38.8645 34.3455 39.8099 34.4562 40.7621C34.4926 41.073 34.6598 41.2467 34.9418 41.2645Z" fill="#F8F2EA"/>
<path d="M34.9418 41.2645C34.6617 41.2467 34.4926 41.073 34.4534 40.7621C34.3415 39.8092 34.1778 38.8632 33.9632 37.9281C33.5122 36.0484 32.8006 34.2808 31.7081 32.6747C31.2151 31.9491 30.7351 31.2143 30.1357 30.5709C29.6884 30.0909 29.1711 29.6829 28.679 29.2496C27.8881 28.5549 27.2223 27.7686 26.7759 26.805C26.4258 26.0198 26.2396 25.1714 26.2287 24.3118C24.7114 24.9767 23.1949 25.0233 21.6533 24.351C21.6972 24.7532 21.6767 25.1599 21.5926 25.5556C21.432 26.3147 21.0183 26.9366 20.5206 27.5081C19.9827 28.1356 19.3207 28.6398 18.6829 29.1628C17.9424 29.7716 17.1627 30.3309 16.4661 30.9948C15.4919 31.9303 14.7738 33.0999 14.3801 34.3919C13.9645 35.7105 13.7065 37.0736 13.6116 38.4529C13.5593 39.1756 13.5686 39.904 13.437 40.6202C13.3998 40.8059 13.3313 40.984 13.2343 41.1468C13.155 41.2878 13.0373 41.3775 12.8608 41.328L12.6339 41.1151L12.5919 41.073H12.5966C12.5704 40.9433 12.5032 40.8303 12.4687 40.6995C12.2894 39.931 12.3295 39.1532 12.3846 38.38C12.4785 37.1085 12.731 35.8538 13.1363 34.6449C13.493 33.5711 13.9263 32.529 14.6005 31.6055C15.382 30.5373 16.3513 29.6521 17.3691 28.8201C18.3122 28.0488 19.2553 27.2784 20.064 26.3614C20.6102 25.7472 20.9286 24.9639 20.966 24.1428C20.9736 24.0879 20.9649 24.0321 20.9408 23.9822C20.9167 23.9323 20.8783 23.8907 20.8306 23.8627C19.2675 22.7421 18.4373 21.1958 18.3337 19.2946C18.2403 17.5765 18.894 16.1198 20.1424 14.9489C21.7504 13.4389 24.8169 12.7536 27.1532 14.143C28.6976 15.0618 29.5922 16.4111 29.7043 18.1975C29.8462 20.4628 28.9955 22.3247 27.1989 23.7338C27.1691 23.7548 27.145 23.7828 27.1287 23.8154C27.1124 23.848 27.1045 23.8841 27.1056 23.9206C27.0868 24.4447 27.1335 24.9692 27.2447 25.4818C27.48 26.523 28.0515 27.3587 28.8405 28.06C29.92 29.0199 31.0134 29.9667 31.9388 31.0835C32.7119 32.0173 33.4636 32.966 34.0005 34.0651C34.7345 35.5684 35.1211 37.1699 35.3153 38.8199C35.4031 39.5603 35.4133 40.3046 35.2088 41.0348H35.2145C35.1771 41.0422 35.1752 41.0702 35.1743 41.0992C35.0725 41.1225 35.0482 41.2486 34.9418 41.2645ZM20.4562 26.381L20.4926 26.4025L20.5038 26.3745L20.4618 26.3885L20.4179 26.4109C20.4263 26.4455 20.4029 26.4511 20.3777 26.4539C20.3702 26.4782 20.3693 26.508 20.331 26.4968L20.3413 26.5482L20.3646 26.5305L20.3282 26.4978C20.3497 26.5108 20.3731 26.5258 20.3899 26.4978C20.3955 26.4894 20.3815 26.4698 20.3768 26.4557C20.3908 26.4604 20.4104 26.4754 20.4188 26.4698C20.4496 26.4529 20.4319 26.4305 20.4188 26.4109C20.4281 26.4193 20.4412 26.4371 20.4478 26.4343C20.4776 26.4231 20.4636 26.4007 20.4562 26.381ZM20.585 26.2877L20.6168 26.2569C20.6065 26.2569 20.5944 26.2494 20.5878 26.2569C20.5813 26.2643 20.5766 26.283 20.5878 26.2961C20.571 26.2811 20.5579 26.2839 20.5505 26.3045C20.5505 26.3091 20.5505 26.3157 20.5561 26.3213L20.585 26.2877ZM19.0144 27.6687C19.0144 27.679 19.0144 27.6893 19.0144 27.6995C19.0144 27.7098 19.0144 27.6995 19.0209 27.7051C19.0275 27.7107 19.0209 27.6809 19.0209 27.6687C19.0396 27.6771 19.0611 27.6911 19.0723 27.6613C19.0723 27.6556 19.0574 27.6416 19.049 27.6314C19.0658 27.6314 19.0788 27.6762 19.0975 27.6314H19.0508C19.049 27.6585 19.0406 27.6687 19.0144 27.6687ZM20.6438 26.1607C20.6812 26.2176 20.6952 26.17 20.7139 26.1448C20.7701 26.1041 20.8083 26.0432 20.8203 25.9749C20.7522 26.043 20.7083 26.0738 20.6989 26.1317C20.6831 26.142 20.6663 26.1523 20.6513 26.1635L20.6401 26.2111C20.6504 26.2055 20.6644 26.2036 20.6681 26.1962C20.6793 26.1747 20.6588 26.1691 20.6438 26.1616V26.1607ZM19.6615 27.1281C19.6615 27.1626 19.6456 27.1822 19.6092 27.1804C19.6176 27.1944 19.6046 27.2326 19.6447 27.2102L19.6074 27.1813C19.6279 27.1813 19.6438 27.2074 19.669 27.1813C19.6942 27.1551 19.669 27.1421 19.6624 27.1234L19.6933 27.1617L19.7138 27.1383L19.6615 27.1281ZM20.1854 16.0274L20.2292 16.0488L20.2349 16.0311H20.1854C20.1854 16.0554 20.1788 16.0675 20.1527 16.0656L20.0537 16.2375C19.7941 16.4886 19.6802 16.8183 19.5588 17.147C19.4309 17.3632 19.3662 17.611 19.372 17.8622L19.5588 17.2245C19.6979 16.8884 19.8686 16.5664 20.0686 16.2627C20.0948 16.1964 20.2134 16.1693 20.1452 16.0647C20.1573 16.0722 20.1751 16.0881 20.1807 16.0843C20.218 16.0647 20.1984 16.046 20.1854 16.0283V16.0274ZM20.1854 26.7181C20.1984 26.7051 20.233 26.6948 20.2068 26.6715C20.1807 26.6481 20.1732 26.6789 20.1648 26.6976C20.1598 26.6975 20.1547 26.6984 20.15 26.7002C20.1453 26.7021 20.141 26.7049 20.1375 26.7085C20.1339 26.7121 20.1311 26.7164 20.1292 26.7211C20.1273 26.7258 20.1264 26.7308 20.1265 26.7359C19.9919 26.827 19.8706 26.9363 19.7661 27.0608C19.7521 27.0767 19.7222 27.0917 19.7577 27.1122C19.7577 27.1122 19.7801 27.0935 19.7913 27.0832C19.9219 26.9878 20.0418 26.8786 20.1489 26.7574L20.1854 26.7181ZM19.1844 27.5753C19.2884 27.5188 19.3829 27.4463 19.4645 27.3606C19.317 27.3652 19.2413 27.4596 19.1694 27.5604L19.1367 27.5968C19.1367 27.5968 19.1498 27.609 19.1507 27.608C19.1517 27.6071 19.1741 27.5856 19.1844 27.5753ZM27.099 26.6416V26.6322L27.0888 26.6406C27.0663 26.3054 26.9599 25.987 26.8833 25.6667C26.9038 26.0009 26.9765 26.3299 27.099 26.6416ZM32.077 32.7391H32.0088C32.0153 32.7513 32.0181 32.769 32.0275 32.7737C32.0676 32.7923 32.077 32.7681 32.076 32.7335C31.9827 32.8157 32.0891 32.8652 32.1162 32.9128C32.5267 33.6064 32.8962 34.3236 33.2227 35.0605C33.261 34.9867 33.2227 34.926 33.2012 34.8653C33.0945 34.5694 32.9697 34.2804 32.8277 33.9997C32.6111 33.559 32.3254 33.1602 32.077 32.74V32.7391ZM20.2815 22.3798C20.2927 22.4125 20.3114 22.4657 20.345 22.4377C20.3787 22.4097 20.3264 22.3789 20.2974 22.3584C20.2741 22.321 20.2535 22.2827 20.2274 22.2482C19.7026 21.5585 19.3326 20.7639 19.1423 19.9184C19.118 19.7148 19.0751 19.5138 19.0144 19.318C19.0331 19.544 19.006 19.7765 19.0975 19.994C19.1433 20.1808 19.1788 20.3675 19.2376 20.5431C19.458 21.2257 19.7764 21.8578 20.2815 22.3798ZM28.5921 18.4318C28.5847 17.6848 28.0393 16.5839 27.0281 15.708C26.2017 14.9937 25.2193 14.6482 24.1399 14.5725C23.589 14.5343 23.0194 14.524 22.5114 14.7304C21.5968 15.0837 20.8179 15.7184 20.2871 16.5428C19.6335 17.57 19.3879 18.7008 19.613 19.8951C19.9669 21.7859 21.0407 23.0932 22.8942 23.6908C23.589 23.915 24.3182 23.9869 25.0232 23.7842C27.0944 23.2053 28.5893 21.1902 28.5903 18.4318H28.5921ZM24.3481 14.3372C26.4734 14.6034 28.0263 15.6445 28.7369 17.7819C28.3643 15.8892 26.4426 14.2709 24.3463 14.3372H24.3481ZM34.9651 39.5277C34.9625 39.2442 34.9185 38.9626 34.8344 38.6919C34.8418 38.975 34.8857 39.2559 34.9651 39.5277ZM28.9012 19.121C28.9292 18.5476 28.8592 18.0191 28.7145 17.8697C28.8442 18.2908 28.8246 18.684 28.9012 19.121ZM26.9944 23.9075C26.9281 24.3085 26.9356 24.7184 27.0169 25.1167C27.0131 24.7124 26.9608 24.3071 26.9944 23.9075ZM13.0653 38.6873C13.0831 38.3735 13.1671 38.0626 13.1036 37.7703C13.0437 38.0721 13.0308 38.3815 13.0653 38.6873ZM12.9047 39.1541H12.9421V38.4127H12.9047V39.1541ZM21.1117 24.774L20.98 25.2176C21.1154 25.0943 21.1135 24.9318 21.1117 24.774ZM34.5786 37.1269C34.5868 37.0726 34.5831 37.0172 34.5678 36.9645C34.5524 36.9118 34.5259 36.863 34.4898 36.8216C34.5197 36.9234 34.5496 37.0251 34.5786 37.1269ZM20.3077 26.6024C20.3077 26.5762 20.2955 26.5734 20.2815 26.5865L20.2526 26.6098C20.2601 26.6164 20.2713 26.6304 20.2731 26.6294C20.2857 26.6219 20.2973 26.6128 20.3077 26.6024ZM34.6243 37.2399H34.6187V37.253L34.6243 37.2399ZM20.8427 25.9571L20.8306 25.944C20.8264 25.9518 20.823 25.9599 20.8203 25.9683C20.8203 25.9683 20.8269 25.9767 20.8306 25.9805L20.8427 25.9571Z" fill="#181818"/>
<path d="M35.2033 41.0339C35.4078 40.3036 35.3975 39.5594 35.3098 38.8189C35.1118 37.169 34.7289 35.5675 33.995 34.0642C33.4581 32.9651 32.7064 32.0164 31.9332 31.0826C31.0079 29.9621 29.9144 29.019 28.835 28.0591C28.0459 27.3578 27.4745 26.5221 27.2391 25.4809C27.128 24.9683 27.0812 24.4438 27.1 23.9196C27.0989 23.8832 27.1069 23.8471 27.1232 23.8145C27.1395 23.7819 27.1636 23.7539 27.1934 23.7329C28.99 22.3238 29.8406 20.4647 29.6987 18.1965C29.5867 16.4102 28.6921 15.0609 27.1476 14.1421C24.8132 12.7526 21.7448 13.438 20.1369 14.9479C18.8865 16.1236 18.2348 17.5756 18.3281 19.2937C18.4318 21.1949 19.2619 22.7412 20.8251 23.8617C20.8728 23.8898 20.9111 23.9314 20.9352 23.9813C20.9593 24.0311 20.9681 24.087 20.9605 24.1419C20.9249 24.9626 20.6084 25.7462 20.064 26.3615C19.2554 27.2784 18.3123 28.0488 17.3692 28.8201C16.3513 29.6521 15.3821 30.5373 14.6005 31.6055C13.9263 32.529 13.4931 33.5711 13.1364 34.645C12.7311 35.8538 12.4786 37.1086 12.3847 38.3801C12.3296 39.1532 12.2913 39.9311 12.4687 40.6996C12.4995 40.8303 12.5705 40.9433 12.5966 41.0731C12.3959 40.905 12.3511 40.6622 12.2894 40.4288C11.9869 39.2821 12.07 38.1223 12.1848 36.9635C12.31 35.6983 12.5845 34.4676 13.1289 33.3134C13.9226 31.6326 14.9964 30.1731 16.5325 29.0843C17.4597 28.4307 18.3552 27.7229 19.1256 26.8816C19.7305 26.2397 20.1907 25.4755 20.4749 24.6405C20.5085 24.5406 20.5141 24.479 20.4114 24.4052C18.824 23.2725 18.0629 21.6805 17.9444 19.7756C17.8304 17.9304 18.4234 16.3028 19.6513 14.9199C20.5584 13.8833 21.8084 13.2078 23.1726 13.0169C24.0914 12.875 24.9944 12.8619 25.8898 13.1271C27.072 13.4772 28.1412 14.0207 28.9396 14.9946C29.6866 15.9032 30.0685 16.9556 30.16 18.1209C30.3094 20.0043 29.7865 21.6795 28.5726 23.1315C28.3184 23.438 28.0284 23.713 27.7088 23.9505C27.6675 23.9779 27.6344 24.0162 27.6133 24.0612C27.5923 24.1061 27.5839 24.156 27.5893 24.2054C27.5978 24.698 27.6969 25.1848 27.8816 25.6415C28.2794 26.5846 28.8798 27.3774 29.5923 28.0955C30.2552 28.7622 30.9341 29.414 31.5887 30.0882C32.6093 31.1405 33.5832 32.2312 34.2826 33.5384C34.8494 34.5983 35.1529 35.7422 35.3891 36.9084C35.5806 37.7853 35.7002 38.6762 35.7468 39.5725C35.7673 40.1019 35.6739 40.5922 35.2799 40.9834C35.2575 41.0086 35.2425 41.0404 35.2033 41.0339Z" fill="#F8F2EA"/>
<path d="M32.2806 24.4939C32.8231 24.4939 33.0948 24.8543 32.9491 25.3604C32.9199 25.4634 32.8798 25.5629 32.8296 25.6574C32.7658 25.7969 32.6538 25.9087 32.5142 25.9724C32.3746 26.036 32.2167 26.0472 32.0695 26.0038C31.9041 25.9595 31.7567 25.8648 31.6477 25.7327C31.5387 25.6006 31.4737 25.4379 31.4616 25.2671C31.4576 25.1087 31.504 24.9532 31.5941 24.823C31.6843 24.6927 31.8135 24.5945 31.9631 24.5425C32.0644 24.5044 32.1725 24.4878 32.2806 24.4939ZM32.3599 25.0262C32.1732 25.0262 31.9388 25.2129 31.9379 25.3651C31.9379 25.5024 32.1078 25.6452 32.2703 25.6378C32.3991 25.6378 32.5896 25.3987 32.5887 25.2372C32.5887 25.0934 32.5056 25.0252 32.3599 25.0299V25.0262Z" fill="#181818"/>
<path d="M10.9625 21.5058C10.9625 21.1323 11.2044 20.8615 11.5517 20.8522C11.8814 20.8475 12.1942 21.1846 12.1923 21.5441C12.1923 21.7099 12.1269 21.869 12.0103 21.9868C11.8937 22.1047 11.7353 22.1717 11.5695 22.1734C11.2436 22.1809 10.9635 21.8718 10.9625 21.5058ZM11.9682 21.4722C11.9682 21.3162 11.8608 21.2649 11.731 21.2574C11.6679 21.2601 11.6075 21.2841 11.5597 21.3255C11.5118 21.3668 11.4794 21.4231 11.4677 21.4853C11.4677 21.6001 11.6311 21.7803 11.7292 21.7785C11.8272 21.7766 11.971 21.5842 11.9682 21.4759V21.4722Z" fill="#181818"/>
<path d="M35.6832 18.1321C35.6832 18.5364 35.4965 18.7764 35.2014 18.7774C35.126 18.7762 35.0515 18.76 34.9824 18.7297C34.9132 18.6995 34.8508 18.6559 34.7987 18.6013C34.7465 18.5467 34.7058 18.4824 34.6787 18.4119C34.6517 18.3415 34.6389 18.2664 34.6411 18.1909C34.6411 17.9024 34.9054 17.6727 35.2285 17.682C35.3473 17.6851 35.4606 17.7333 35.5451 17.8169C35.6296 17.9006 35.679 18.0133 35.6832 18.1321ZM34.9642 18.2255C34.9642 18.373 35.0987 18.5327 35.2182 18.528C35.287 18.5168 35.3491 18.4804 35.3924 18.4258C35.4358 18.3712 35.4572 18.3025 35.4526 18.233C35.4526 18.0649 35.3751 17.9734 35.2266 17.9734C35.1918 17.9695 35.1565 17.9734 35.1234 17.9848C35.0903 17.9962 35.0601 18.0148 35.035 18.0393C35.0099 18.0638 34.9905 18.0935 34.9783 18.1263C34.9661 18.1592 34.9613 18.1943 34.9642 18.2292V18.2255Z" fill="#181818"/>
<path d="M8.76256 16.752C8.76256 17.0321 8.59261 17.2497 8.35917 17.2553C8.23588 17.2493 8.1188 17.1994 8.02907 17.1146C7.93934 17.0299 7.88287 16.9158 7.86987 16.7931C7.87057 16.6691 7.9183 16.55 8.0034 16.4599C8.0885 16.3698 8.20464 16.3153 8.32836 16.3075C8.38666 16.306 8.44464 16.3166 8.49867 16.3385C8.5527 16.3605 8.60163 16.3933 8.64238 16.4351C8.68314 16.4768 8.71484 16.5265 8.73552 16.581C8.7562 16.6355 8.76541 16.6937 8.76256 16.752ZM8.40399 16.9565C8.45413 16.9405 8.49876 16.9108 8.53278 16.8707C8.5668 16.8305 8.58883 16.7816 8.59635 16.7296C8.60849 16.6175 8.48803 16.5979 8.40959 16.596C8.28353 16.596 8.24338 16.6969 8.24432 16.7996C8.24525 16.9023 8.31061 16.9425 8.40399 16.9565Z" fill="#181818"/>
<path d="M25.8655 7.41425C25.7481 7.41167 25.6361 7.36413 25.5527 7.28142C25.4693 7.19872 25.4209 7.08717 25.4173 6.96977C25.4108 6.741 25.6405 6.52623 25.8898 6.52809C25.9432 6.52536 25.9965 6.53371 26.0464 6.55262C26.0964 6.57154 26.1419 6.6006 26.1801 6.63797C26.2182 6.67535 26.2482 6.72023 26.2682 6.76978C26.2881 6.81934 26.2976 6.87249 26.296 6.92588C26.296 7.18734 26.0971 7.41238 25.8655 7.41425ZM26.0831 6.94736C26.0831 6.82877 26.056 6.79515 25.972 6.79609C25.8879 6.79702 25.7264 6.94456 25.7395 7.0286C25.7525 7.11264 25.8198 7.20975 25.9085 7.19948C26.0523 7.17987 26.0616 7.04074 26.084 6.94549L26.0831 6.94736Z" fill="#181818"/>
<path d="M14.0515 18.6111C14.0515 18.8473 13.9133 19.0033 13.7097 19.0042C13.5061 19.0051 13.3437 18.8109 13.3493 18.5803C13.3493 18.3935 13.5071 18.26 13.7228 18.2591C13.7681 18.2585 13.813 18.2674 13.8547 18.2853C13.8964 18.3031 13.9339 18.3294 13.9648 18.3625C13.9958 18.3956 14.0194 18.4349 14.0344 18.4777C14.0493 18.5205 14.0551 18.5659 14.0515 18.6111ZM13.7807 18.5831C13.769 18.5835 13.7576 18.5864 13.7471 18.5914C13.7366 18.5964 13.7273 18.6034 13.7196 18.6122C13.7119 18.6209 13.7061 18.6311 13.7024 18.6421C13.6988 18.6532 13.6975 18.6649 13.6985 18.6765C13.6985 18.7194 13.72 18.7698 13.7741 18.7586C13.8283 18.7474 13.8404 18.6951 13.8488 18.6447C13.8572 18.5943 13.832 18.5821 13.7807 18.5849V18.5831Z" fill="#181818"/>
<path d="M27.9338 9.42933C27.9282 9.62262 27.8022 9.76268 27.6416 9.75428C27.5667 9.74173 27.4989 9.70263 27.4506 9.64415C27.4022 9.58567 27.3765 9.51173 27.3783 9.43586C27.3786 9.39619 27.3873 9.35704 27.4039 9.32101C27.4205 9.28497 27.4446 9.25287 27.4745 9.22683C27.5044 9.20079 27.5395 9.1814 27.5775 9.16995C27.6155 9.15849 27.6555 9.15524 27.6948 9.1604C27.861 9.166 27.9395 9.25471 27.9338 9.42933ZM27.6584 9.37423C27.5996 9.37423 27.5594 9.39944 27.565 9.46014C27.5706 9.52084 27.5884 9.56099 27.6528 9.56099C27.7172 9.56099 27.7462 9.51243 27.7546 9.45174C27.763 9.39104 27.7144 9.36676 27.6584 9.37423Z" fill="#181818"/>
<path d="M35.1697 41.0945C35.1697 41.0656 35.1697 41.0376 35.2098 41.0301C35.1958 41.0516 35.1827 41.073 35.1697 41.0945Z" fill="#F8F2EA"/>
<path d="M28.5903 18.4318C28.5903 21.1902 27.0963 23.2053 25.0233 23.7879C24.3183 23.9868 23.589 23.9149 22.8943 23.6946C21.0407 23.0932 19.9669 21.7859 19.6093 19.895C19.3842 18.7007 19.6289 17.5681 20.2834 16.5428C20.8142 15.7183 21.5931 15.0837 22.5077 14.7303C23.0194 14.524 23.5853 14.5342 24.1362 14.5725C25.2156 14.6481 26.198 14.9936 27.0244 15.708C28.0375 16.5839 28.5828 17.6885 28.5903 18.4318Z" fill="#F8F2EA"/>
<path d="M24.3463 14.3372C26.4426 14.2709 28.3615 15.8892 28.735 17.7819C28.0244 15.6483 26.4716 14.6034 24.3463 14.3372Z" fill="#F8F2EA"/>
<path d="M19.1423 19.9184C19.332 20.7655 19.7021 21.5618 20.2274 22.2528C20.2535 22.2874 20.2741 22.3257 20.2974 22.363C20.2928 22.3705 20.2872 22.377 20.2816 22.3845C19.7764 21.8625 19.458 21.2322 19.2348 20.5496C19.176 20.3703 19.1414 20.1836 19.0947 20.0006C19.105 19.9679 19.0975 19.9296 19.1423 19.9184Z" fill="#F8F2EA"/>
<path d="M32.077 32.7382C32.3254 33.1602 32.6111 33.559 32.824 34.0006C32.966 34.2813 33.0908 34.5704 33.1975 34.8662C33.219 34.9269 33.2573 34.9876 33.219 35.0614C32.8925 34.3245 32.523 33.6074 32.1125 32.9137C32.0854 32.8661 31.9761 32.8203 32.0723 32.7344L32.077 32.7382Z" fill="#F8F2EA"/>
<path d="M19.5588 17.1442C19.6784 16.8155 19.7941 16.4905 20.0537 16.2347C20.0603 16.2431 20.0687 16.2515 20.0761 16.2599C19.8761 16.5636 19.7054 16.8857 19.5663 17.2217L19.5588 17.1442Z" fill="#F8F2EA"/>
<path d="M34.9652 39.5276C34.8858 39.2558 34.8418 38.9749 34.8344 38.6919C34.9185 38.9626 34.9626 39.2442 34.9652 39.5276Z" fill="#F8F2EA"/>
<path d="M28.9012 19.1209C28.8247 18.6839 28.8443 18.2908 28.7145 17.8697C28.8592 18.0191 28.9292 18.5476 28.9012 19.1209Z" fill="#6E6E6E"/>
<path d="M26.9945 23.9075C26.9609 24.3099 27.0132 24.7124 27.0169 25.1167C26.9357 24.7184 26.9281 24.3085 26.9945 23.9075Z" fill="#6E6E6E"/>
<path d="M27.0991 26.6415C26.9772 26.3298 26.9051 26.0008 26.8852 25.6667C26.9618 25.9888 27.072 26.3054 27.0907 26.6406L27.0991 26.6415Z" fill="#F8F2EA"/>
<path d="M13.0654 38.6872C13.0308 38.3814 13.0438 38.0721 13.1037 37.7703C13.1662 38.0644 13.0831 38.3753 13.0654 38.6872Z" fill="#F8F2EA"/>
<path d="M19.5588 17.1442L19.5663 17.2217C19.5019 17.4346 19.4384 17.6465 19.3795 17.8594C19.3714 17.609 19.4335 17.3612 19.5588 17.1442Z" fill="#6E6E6E"/>
<path d="M19.1424 19.9184C19.1003 19.9277 19.1078 19.966 19.0975 19.994C19.0042 19.7765 19.0331 19.544 19.0144 19.318C19.0752 19.5138 19.118 19.7148 19.1424 19.9184Z" fill="#6E6E6E"/>
<path d="M12.9048 39.1542V38.4146H12.9421V39.1542H12.9048Z" fill="#6E6E6E"/>
<path d="M21.1117 24.774C21.1117 24.9365 21.1117 25.099 20.98 25.2176L21.1117 24.774Z" fill="#F8F2EA"/>
<path d="M19.7671 27.0621C19.8717 26.9375 19.9931 26.828 20.1279 26.7368L20.1503 26.7583C20.0431 26.8797 19.9231 26.989 19.7923 27.0846C19.7848 27.0761 19.7763 27.0686 19.7671 27.0621Z" fill="#F8F2EA"/>
<path d="M19.1713 27.5597C19.2433 27.4587 19.319 27.3643 19.4667 27.3596C19.385 27.4455 19.2904 27.518 19.1863 27.5746L19.1713 27.5597Z" fill="#F8F2EA"/>
<path d="M34.5787 37.1273C34.5488 37.0254 34.5198 36.9235 34.4899 36.8216C34.5259 36.8631 34.5525 36.9119 34.5679 36.9647C34.5832 37.0174 34.5869 37.0729 34.5787 37.1273Z" fill="#6E6E6E"/>
<path d="M20.1523 16.0619C20.2201 16.1642 20.1021 16.193 20.076 16.259C20.0686 16.2506 20.0602 16.2423 20.0537 16.2339C20.0863 16.1762 20.1197 16.1195 20.1523 16.0628V16.0619Z" fill="#F8F2EA"/>
<path d="M20.699 26.132C20.7083 26.0743 20.752 26.0436 20.8198 25.9758C20.8078 26.0438 20.7698 26.1045 20.7139 26.145C20.7085 26.1411 20.7035 26.1368 20.699 26.132Z" fill="#F8F2EA"/>
<path d="M20.2972 22.3583C20.3256 22.3785 20.3742 22.4115 20.3439 22.4363C20.3137 22.461 20.2926 22.4115 20.2816 22.3794C20.2871 22.3721 20.2926 22.3657 20.2972 22.3583Z" fill="#F8F2EA"/>
<path d="M20.3075 26.6023C20.2972 26.6126 20.2856 26.6217 20.2731 26.6292C20.2731 26.6292 20.2601 26.6162 20.2526 26.6097L20.2815 26.5864C20.2954 26.5734 20.3038 26.5762 20.3075 26.6023Z" fill="#F8F2EA"/>
<path d="M32.076 32.7354C32.076 32.7699 32.0676 32.7942 32.0275 32.7755C32.0182 32.7709 32.0154 32.7531 32.0089 32.741H32.077L32.076 32.7354Z" fill="#F8F2EA"/>
<path d="M34.6244 37.2399L34.6206 37.2521L34.6187 37.239L34.6244 37.2399Z" fill="#6E6E6E"/>
<path d="M20.3778 26.4548C20.4029 26.4548 20.4263 26.4464 20.4179 26.4119C20.4309 26.4315 20.4487 26.4539 20.4179 26.4707C20.4095 26.4763 20.3899 26.4613 20.3759 26.4567L20.3778 26.4548Z" fill="#F8F2EA"/>
<path d="M20.3301 26.4968C20.3693 26.508 20.3703 26.4781 20.3777 26.4539C20.3824 26.4679 20.3964 26.4875 20.3908 26.4959C20.374 26.5248 20.3507 26.5099 20.3292 26.4959L20.3301 26.4968Z" fill="#F8F2EA"/>
<path d="M20.3282 26.4978L20.3645 26.5303L20.3413 26.548C20.3413 26.5303 20.3348 26.5136 20.331 26.4968L20.3282 26.4978Z" fill="#F8F2EA"/>
<path d="M27.0906 26.6425L27.102 26.6332C27.102 26.6332 27.102 26.6404 27.102 26.6435L27.0906 26.6425Z" fill="#F8F2EA"/>
<path d="M20.1695 26.6984C20.1779 26.6798 20.1853 26.6491 20.2114 26.6724C20.2374 26.6956 20.203 26.7059 20.19 26.7189L20.1695 26.6984Z" fill="#F8F2EA"/>
<path d="M20.1275 26.7349C20.1274 26.7299 20.1283 26.7248 20.1301 26.7201C20.132 26.7154 20.1348 26.7112 20.1384 26.7076C20.142 26.704 20.1463 26.7012 20.151 26.6993C20.1557 26.6974 20.1607 26.6965 20.1657 26.6967L20.1863 26.7172L20.1499 26.7564L20.1275 26.7349Z" fill="#F8F2EA"/>
<path d="M20.1854 16.0282H20.2345L20.229 16.0459L20.1854 16.0245V16.0282Z" fill="#F8F2EA"/>
<path d="M19.7958 27.0841C19.7847 27.0943 19.766 27.1157 19.7623 27.1129C19.727 27.0925 19.7567 27.0776 19.7707 27.0618C19.7799 27.0682 19.7883 27.0757 19.7958 27.0841Z" fill="#F8F2EA"/>
<path d="M20.1853 16.0283C20.1983 16.046 20.2178 16.0646 20.1853 16.0813C20.1797 16.0813 20.162 16.0692 20.1499 16.0618C20.176 16.0618 20.1853 16.0515 20.1825 16.0273L20.1853 16.0283Z" fill="#F8F2EA"/>
<path d="M19.6617 27.1271C19.6663 27.1455 19.6939 27.1593 19.6681 27.1842C19.6423 27.209 19.6276 27.1842 19.6074 27.1842C19.6433 27.1842 19.658 27.1667 19.6589 27.1327L19.6617 27.1271Z" fill="#F8F2EA"/>
<path d="M19.6093 27.1822L19.6455 27.2103C19.6065 27.2321 19.6192 27.1949 19.6111 27.1813L19.6093 27.1822Z" fill="#F8F2EA"/>
<path d="M20.8421 25.9567L20.8303 25.9794C20.8303 25.9794 20.8195 25.9703 20.8204 25.9676C20.8229 25.9594 20.8263 25.9515 20.8303 25.944L20.8421 25.9567Z" fill="#F8F2EA"/>
<path d="M19.1842 27.5753C19.174 27.5865 19.1638 27.5976 19.1526 27.6079C19.1414 27.6181 19.1433 27.6004 19.1386 27.5967L19.1712 27.5604L19.1842 27.5753Z" fill="#F8F2EA"/>
<path d="M19.0434 27.6323H19.0906C19.0721 27.674 19.0591 27.6258 19.0424 27.6323H19.0434Z" fill="#F8F2EA"/>
<path d="M20.6504 26.1644L20.6989 26.1327C20.7035 26.1375 20.7085 26.1419 20.7139 26.1458C20.6952 26.171 20.6812 26.2185 20.6439 26.1616L20.6504 26.1644Z" fill="#F8F2EA"/>
<path d="M19.0143 27.6687V27.7041C19.0143 27.7041 19.0079 27.7041 19.0079 27.6986C19.0079 27.6932 19.0079 27.6787 19.0079 27.6687H19.0143Z" fill="#F8F2EA"/>
<path d="M19.6615 27.129L19.7136 27.142L19.6932 27.1653L19.6625 27.1271L19.6615 27.129Z" fill="#F8F2EA"/>
<path d="M20.6439 26.1616C20.6587 26.1691 20.6792 26.1737 20.668 26.197C20.668 26.2044 20.6504 26.2063 20.6401 26.2119C20.6401 26.196 20.6476 26.1802 20.6504 26.1644L20.6439 26.1616Z" fill="#F8F2EA"/>
<path d="M20.5885 26.2878C20.5766 26.275 20.5674 26.2603 20.5885 26.2493C20.6097 26.2383 20.6069 26.2493 20.617 26.2493L20.5858 26.2796L20.5885 26.2878Z" fill="#F8F2EA"/>
<path d="M19.0144 27.6686C19.0405 27.6686 19.0517 27.6574 19.0433 27.6313C19.0517 27.6416 19.0684 27.6555 19.0665 27.6611C19.0554 27.6909 19.034 27.6769 19.0154 27.6686H19.0144Z" fill="#F8F2EA"/>
<path d="M20.5841 26.2838L20.5569 26.3128C20.5569 26.3074 20.5505 26.301 20.5514 26.2965C20.5587 26.2765 20.5714 26.2738 20.5877 26.2883L20.5841 26.2838Z" fill="#F8F2EA"/>
<path d="M20.4607 26.3862L20.502 26.3745L20.4912 26.4015L20.4562 26.3817L20.4607 26.3862Z" fill="#F8F2EA"/>
<path d="M20.4179 26.4108C20.4328 26.4034 20.4477 26.3959 20.4616 26.3875L20.4561 26.382C20.4635 26.4006 20.4775 26.4229 20.4477 26.4331C20.4412 26.4331 20.4281 26.4182 20.4188 26.4099L20.4179 26.4108Z" fill="#F8F2EA"/>
<path d="M32.3599 25.0299C32.5056 25.0252 32.5887 25.0934 32.5887 25.2409C32.5887 25.3885 32.4019 25.6378 32.2703 25.6415C32.1078 25.6415 31.9369 25.5061 31.9379 25.3688C31.9351 25.2176 32.1713 25.0308 32.3599 25.0299Z" fill="#F8F2EA"/>
<path d="M11.9682 21.4759C11.9682 21.5843 11.8178 21.7803 11.7291 21.7822C11.6404 21.7841 11.4705 21.6039 11.4677 21.489C11.4794 21.4269 11.5118 21.3706 11.5596 21.3292C11.6074 21.2878 11.6678 21.2639 11.731 21.2612C11.8589 21.2686 11.9644 21.3191 11.9682 21.4759Z" fill="#F8F2EA"/>
<path d="M34.9642 18.2292C34.9618 18.1946 34.9671 18.1599 34.9795 18.1275C34.992 18.0951 35.0115 18.0659 35.0365 18.0419C35.0615 18.0178 35.0915 17.9996 35.1244 17.9884C35.1572 17.9772 35.1921 17.9733 35.2266 17.9771C35.3751 17.9771 35.4544 18.0705 35.4526 18.2367C35.4572 18.3062 35.4358 18.375 35.3924 18.4295C35.3491 18.4841 35.287 18.5205 35.2182 18.5318C35.0987 18.5364 34.9642 18.3768 34.9642 18.2292Z" fill="#F8F2EA"/>
<path d="M8.40413 16.9569C8.31065 16.9428 8.24054 16.8896 8.24054 16.7998C8.24054 16.7101 8.2798 16.5923 8.40599 16.596C8.48826 16.596 8.60884 16.6175 8.59295 16.7297C8.58573 16.7814 8.56423 16.83 8.53087 16.8702C8.49751 16.9103 8.45362 16.9403 8.40413 16.9569Z" fill="#F8F2EA"/>
<path d="M26.084 6.94548C26.0616 7.03886 26.0523 7.17986 25.9094 7.1976C25.816 7.20787 25.7553 7.12103 25.7404 7.02672C25.7255 6.93241 25.8823 6.79514 25.9729 6.79421C26.0635 6.79327 26.085 6.82689 26.084 6.94548Z" fill="#F8F2EA"/>
<path d="M13.7803 18.585C13.8314 18.585 13.8565 18.5961 13.8482 18.6473C13.8398 18.6984 13.8258 18.7495 13.7738 18.7607C13.7217 18.7718 13.7013 18.7216 13.6985 18.6789C13.6973 18.6673 13.6986 18.6555 13.7021 18.6444C13.7057 18.6333 13.7114 18.623 13.7191 18.6142C13.7268 18.6054 13.7361 18.5983 13.7467 18.5933C13.7572 18.5882 13.7686 18.5854 13.7803 18.585Z" fill="#F8F2EA"/>
<path d="M27.658 9.37422C27.7138 9.37422 27.7602 9.3798 27.7509 9.45139C27.7417 9.52298 27.7212 9.5611 27.6496 9.56017C27.578 9.55924 27.5669 9.50904 27.5622 9.45976C27.5576 9.41048 27.5994 9.37329 27.658 9.37422Z" fill="#F8F2EA"/>
</svg>
