<svg width="30" height="31" viewBox="0 0 30 31" fill="none" xmlns="http://www.w3.org/2000/svg">
<path d="M0 15.5563C0.0540634 11.8281 1.30424 8.54551 3.83392 5.76876C5.89566 3.50608 8.44733 2.05273 11.4153 1.31342C12.3307 1.08544 13.2611 0.953043 14.2034 0.899779C16.1518 0.789293 18.048 1.04253 19.8868 1.7024C21.7686 2.37779 23.4315 3.40686 24.8829 4.77652C26.1181 5.94194 27.0812 7.30307 27.8637 8.80483C28.6695 10.3516 29.193 11.98 29.4279 13.7049C29.5333 14.4782 29.5806 15.255 29.555 16.0342C29.4362 19.6619 28.1707 22.8371 25.703 25.5098C23.6123 27.774 21.0395 29.2288 18.0193 29.8857C17.1531 30.0741 16.2765 30.1922 15.3888 30.2116C11.4208 30.299 7.92197 29.0645 4.9384 26.4554C2.56908 24.3833 1.06569 21.7813 0.362561 18.7211C0.144475 17.7727 0.0274899 16.8103 0.0140504 15.8363C0.0128286 15.7481 0.00549798 15.6601 0.000305443 15.5566L0 15.5563Z" fill="#060000"/>
<path d="M15.5381 28.7565C13.4874 28.7936 11.5747 28.4576 9.74051 27.7098C8.42466 27.1735 7.19526 26.4865 6.12529 25.5436C4.36624 23.9938 3.08002 22.1189 2.26968 19.9216C1.91567 18.9622 1.67865 17.974 1.5525 16.9604C1.42788 15.9615 1.39031 14.9583 1.52745 13.9597C1.71194 12.6168 2.10719 11.332 2.69791 10.1097C3.86287 7.69911 5.5816 5.77307 7.84738 4.34375C9.34771 3.39747 10.9806 2.76743 12.7308 2.44815C13.5925 2.29079 14.4614 2.21683 15.3368 2.22505C16.693 2.23783 18.025 2.42471 19.3128 2.85144C20.2096 3.1485 21.0447 3.58618 21.8351 4.10239C24.4006 5.77794 26.2201 8.06009 27.364 10.8849C27.8603 12.1106 28.1694 13.3838 28.2931 14.7011C28.353 15.3372 28.3866 15.9749 28.3328 16.6119C28.269 17.3686 28.1163 18.1109 27.9095 18.8417C27.2955 21.0085 26.2112 22.9123 24.666 24.5526C23.0505 26.2674 21.1195 27.5007 18.8812 28.2455C18.2089 28.4692 17.5076 28.58 16.8039 28.6646C16.3598 28.7179 15.9138 28.7416 15.5381 28.7568V28.7565Z" fill="#F8F2EA"/>
<path d="M15.5688 26.9976C13.7405 27.0298 12.0352 26.7385 10.4 26.0903C9.2268 25.6255 8.13072 25.03 7.17679 24.2127C5.60851 22.8693 4.46178 21.2442 3.73932 19.3397C3.4237 18.5081 3.21238 17.6515 3.09992 16.7729C2.98881 15.9071 2.95532 15.0375 3.07759 14.1719C3.24207 13.0079 3.59445 11.8943 4.12111 10.8348C5.15973 8.74537 6.69207 7.0759 8.71212 5.837C10.0498 5.01678 11.5056 4.47066 13.0659 4.19392C13.8342 4.05752 14.6089 3.99341 15.3894 4.00053C16.5985 4.01161 17.786 4.1736 18.9341 4.54348C19.7337 4.80097 20.4782 5.18034 21.1829 5.62779C23.4701 7.08012 25.0923 9.05826 26.1122 11.5068C26.5547 12.5692 26.8303 13.6728 26.9406 14.8146C26.9939 15.366 27.0239 15.9187 26.976 16.4709C26.919 17.1267 26.7829 17.7702 26.5985 18.4036C26.0512 20.2818 25.0844 21.932 23.7068 23.3537C22.2665 24.8401 20.5449 25.9091 18.5493 26.5546C17.95 26.7486 17.3247 26.8446 16.6973 26.9179C16.3014 26.9641 15.9038 26.9847 15.5688 26.9979V26.9976Z" fill="#181818"/>
<path d="M4.10629 6.68946C4.41815 6.22134 4.77094 5.78427 5.14785 5.36789C5.35708 5.13687 5.60602 4.94512 5.86228 4.73541C5.3076 5.4315 4.70527 6.06063 4.13226 6.71533C4.10965 6.7205 4.09774 6.71533 4.10629 6.68946Z" fill="#F8F2EA"/>
<path d="M23.6724 5.1929C24.3477 5.74107 24.9607 6.35102 25.505 7.02885C25.5096 7.05107 25.5032 7.06233 25.4785 7.05411C24.8966 6.41372 24.2704 5.81716 23.6437 5.22121C23.6394 5.19808 23.6473 5.18681 23.6721 5.1929H23.6724Z" fill="#F8F2EA"/>
<path d="M29.2253 14.6441C29.299 15.2133 29.3374 15.784 29.2816 16.3568C29.2608 16.5717 29.2278 16.7854 29.2003 16.9996C29.1365 16.9698 29.1789 16.9208 29.1783 16.8794C29.2122 16.3474 29.2434 15.8153 29.225 15.2818C29.218 15.0776 29.2089 14.8733 29.2003 14.6691C29.1921 14.6444 29.2027 14.6384 29.2253 14.6438V14.6441Z" fill="#F8F2EA"/>
<path d="M16.5457 29.1917C16.2321 29.2322 15.9187 29.2739 15.6047 29.3129C15.3096 29.3497 15.0136 29.3804 14.7189 29.4212C14.641 29.4322 14.5668 29.42 14.491 29.4182C14.4687 29.4176 14.4269 29.4373 14.4321 29.3871C14.4354 29.3552 14.4617 29.3427 14.4932 29.3406C14.6056 29.3333 14.7177 29.3217 14.8304 29.3177C15.3371 29.3001 15.8402 29.2422 16.3426 29.178C16.4095 29.1695 16.477 29.1589 16.5457 29.1914V29.1917Z" fill="#F8F2EA"/>
<path d="M9.28474 3.29734C9.89074 2.95858 10.5532 2.76804 11.2115 2.56686C11.2377 2.55803 11.2442 2.5699 11.2396 2.59364C10.589 2.81705 9.94114 3.04867 9.31009 3.32321C9.28505 3.33052 9.27894 3.31986 9.28474 3.29734Z" fill="#F8F2EA"/>
<path d="M22.9893 26.636C23.5186 26.1739 24.0604 25.7253 24.551 25.2194C24.4325 25.4501 23.3225 26.4625 22.9893 26.636Z" fill="#F8F2EA"/>
<path d="M25.3574 5.73959C25.5889 5.90913 26.4781 6.94946 26.6021 7.18595C26.1549 6.73183 25.8034 6.19554 25.3574 5.73959Z" fill="#F8F2EA"/>
<path d="M23.0605 4.33157C22.7398 4.1459 22.4193 3.95993 22.0986 3.77427C22.452 3.90302 22.8259 3.99554 23.0605 4.33157Z" fill="#F8F2EA"/>
<path d="M4.03305 7.45866C4.25266 7.14364 4.50068 6.85022 4.74687 6.5559C4.76397 6.5352 4.77863 6.48651 4.81926 6.51694C4.86416 6.55073 4.82445 6.57782 4.80185 6.6046C4.55413 6.89801 4.30642 7.19173 4.05901 7.48544C4.03732 7.48909 4.02511 7.48331 4.03335 7.45866H4.03305Z" fill="#F8F2EA"/>
<path d="M29.0408 18.1666C28.977 18.5897 28.878 19.0046 28.7439 19.4112C28.7366 19.42 28.729 19.4203 28.7207 19.4121C28.8279 18.9729 28.937 18.5343 29.0142 18.0884C29.072 18.0978 29.0393 18.138 29.0408 18.1663V18.1666Z" fill="#F8F2EA"/>
<path d="M25.479 7.05414C25.4879 7.04562 25.4967 7.0374 25.5056 7.02888C25.8019 7.36794 26.0603 7.73471 26.3055 8.11121C26.3138 8.13495 26.3025 8.13891 26.2823 8.13404C26.0349 7.75906 25.7542 7.40873 25.479 7.05414Z" fill="#F8F2EA"/>
<path d="M29.0412 18.1666C29.0293 18.1416 29.0464 18.1066 29.0146 18.0886C29.0693 17.6857 29.124 17.2827 29.1787 16.8797C29.1939 16.9183 29.1704 16.964 29.2007 16.9999C29.1475 17.3889 29.0944 17.7776 29.0415 18.1666H29.0412Z" fill="#F8F2EA"/>
<path d="M28.6023 19.8713C28.5358 20.2064 28.3943 20.5163 28.2764 20.834C28.2557 20.8901 28.2315 20.9448 28.2089 21.0002C28.1888 21.003 28.1744 21.0008 28.1879 20.9753C28.325 20.6024 28.4692 20.2317 28.5834 19.8509C28.5926 19.8476 28.6017 19.8445 28.6078 19.8552C28.6103 19.8595 28.6069 19.8655 28.6026 19.8713H28.6023Z" fill="#F8F2EA"/>
<path d="M28.8115 11.7709C28.9242 12.12 29.0327 12.4704 29.044 12.8405C28.9664 12.484 28.8891 12.1276 28.8115 11.7709Z" fill="#F8F2EA"/>
<path d="M14.1676 1.94654C14.4315 1.92098 14.6942 1.87958 14.9593 1.87258C14.9605 1.88719 14.962 1.9015 14.9633 1.91611C14.7064 1.93498 14.4495 1.95385 14.1923 1.97272C14.1679 1.97911 14.1609 1.96907 14.1673 1.94624L14.1676 1.94654Z" fill="#F8F2EA"/>
<path d="M1.09043 15.5414V16.2606C1.0776 16.2606 1.06477 16.26 1.05194 16.2597C0.997575 16.001 1.09287 15.7471 1.09043 15.5414Z" fill="#F8F2EA"/>
<path d="M1.84185 11.1482C1.79359 11.2791 1.7441 11.4099 1.69737 11.5414C1.68515 11.5758 1.67049 11.6035 1.63017 11.5874C1.57825 11.5664 1.61765 11.5366 1.62926 11.5128C1.68882 11.3905 1.74991 11.2693 1.81069 11.1476C1.82138 11.1375 1.83177 11.1378 1.84215 11.1485L1.84185 11.1482Z" fill="#F8F2EA"/>
<path d="M11.89 2.20462C11.6554 2.26276 11.4211 2.32089 11.1865 2.37933C11.3982 2.26154 11.6316 2.22076 11.8649 2.17936C11.8887 2.17267 11.8958 2.18241 11.89 2.20493V2.20462Z" fill="#F8F2EA"/>
<path d="M1.62119 19.3171C1.50878 19.0912 1.47702 18.8429 1.44434 18.5945C1.50329 18.8353 1.56224 19.0763 1.62119 19.3171Z" fill="#F8F2EA"/>
<path d="M4.03312 7.45857C4.04167 7.4674 4.05022 7.47653 4.05878 7.48536C3.95157 7.63237 3.84436 7.77968 3.73715 7.92669C3.72798 7.9206 3.71912 7.91452 3.70996 7.90843C3.81351 7.75594 3.91186 7.5998 4.03312 7.45857Z" fill="#F8F2EA"/>
<path d="M5.98242 26.0994C6.12598 26.2129 6.26954 26.3264 6.4131 26.44C6.1886 26.3368 6.04962 26.2263 5.98242 26.0994Z" fill="#F8F2EA"/>
<path d="M17.1597 1.7335C16.9966 1.72133 16.8332 1.70885 16.6582 1.69576C16.8381 1.60202 16.9982 1.7122 17.1628 1.70367C17.1616 1.71341 17.1607 1.72346 17.1594 1.7332L17.1597 1.7335Z" fill="#F8F2EA"/>
<path d="M20.1523 2.95119C20.3408 2.97523 20.5042 3.04737 20.653 3.15572C20.4862 3.08754 20.3191 3.01937 20.1523 2.95119Z" fill="#F8F2EA"/>
<path d="M11.24 2.5936C11.2305 2.58477 11.2214 2.57564 11.2119 2.56681C11.3488 2.50411 11.4951 2.47702 11.6389 2.44141C11.642 2.45115 11.645 2.46089 11.6481 2.47063C11.5119 2.51172 11.3759 2.55251 11.2397 2.5936H11.24Z" fill="#F8F2EA"/>
<path d="M17.9875 29.0748C18.1039 29.0404 18.2203 29.0057 18.3367 28.9713C18.2673 29.0912 18.1396 29.0639 18.0379 29.101C18.0129 29.1077 17.9845 29.1214 17.9875 29.0748Z" fill="#F8F2EA"/>
<path d="M15.7344 29.5889C15.921 29.5856 16.1052 29.5329 16.2936 29.5682C16.107 29.5716 15.9234 29.6322 15.7344 29.5889Z" fill="#F8F2EA"/>
<path d="M5.56299 25.3631C5.66898 25.4623 5.77527 25.5619 5.88126 25.6611C5.87454 25.6681 5.86751 25.6754 5.8608 25.6824C5.74351 25.5944 5.64088 25.4915 5.56299 25.3631Z" fill="#F8F2EA"/>
<path d="M6.20223 25.973C6.08952 25.896 5.9875 25.8075 5.90137 25.7012C6.01927 25.7715 6.1222 25.8598 6.21933 25.9554C6.22178 25.9688 6.21597 25.9749 6.20223 25.973Z" fill="#F8F2EA"/>
<path d="M2.23786 21.3235C2.16333 21.2021 2.11446 21.0709 2.09521 20.9275C2.14897 21.0542 2.20273 21.1811 2.25649 21.3077C2.25649 21.3202 2.25038 21.3253 2.23816 21.3238L2.23786 21.3235Z" fill="#F8F2EA"/>
<path d="M23.6729 5.19293C23.6634 5.20236 23.6539 5.2118 23.6445 5.22124C23.5715 5.15488 23.4985 5.08853 23.4258 5.02218C23.5269 5.05535 23.6048 5.11775 23.6732 5.19293H23.6729Z" fill="#F8F2EA"/>
<path d="M26.2822 8.1341C26.2899 8.12649 26.2978 8.11888 26.3054 8.11127C26.3852 8.19954 26.4398 8.30242 26.478 8.41686C26.4126 8.32251 26.3476 8.22815 26.2822 8.1341Z" fill="#F8F2EA"/>
<path d="M11.8903 2.20466C11.882 2.19614 11.8735 2.18762 11.8652 2.1791C11.9834 2.14014 12.1035 2.11031 12.2287 2.10879C12.2315 2.11183 12.2339 2.11518 12.2367 2.11822C12.1258 2.1657 12.0067 2.1791 11.8903 2.20436V2.20466Z" fill="#F8F2EA"/>
<path d="M7.97266 27.1907C8.06001 27.2416 8.14768 27.2924 8.23503 27.3429C8.12904 27.3259 8.03985 27.2766 7.97266 27.1907Z" fill="#F8F2EA"/>
<path d="M17.9873 29.0749C17.9934 29.1041 18.0209 29.0922 18.0377 29.101C17.9332 29.1254 17.8291 29.15 17.7246 29.1744C17.8046 29.1165 17.895 29.0928 17.9873 29.0749Z" fill="#F8F2EA"/>
<path d="M29.225 14.6441C29.2168 14.6527 29.2085 14.6609 29.2 14.6694C29.1676 14.5808 29.1764 14.4904 29.1984 14.3988L29.225 14.6441Z" fill="#F8F2EA"/>
<path d="M6.57403 26.2637C6.49339 26.2159 6.41672 26.163 6.35258 26.0942C6.35197 26.0823 6.35808 26.078 6.36938 26.0808C6.44941 26.1155 6.50622 26.1809 6.57342 26.2327C6.58411 26.2427 6.58441 26.2531 6.57403 26.2637Z" fill="#F8F2EA"/>
<path d="M9.28514 3.29731C9.29369 3.30583 9.30194 3.31466 9.31049 3.32318C9.24604 3.36792 9.17457 3.39592 9.09668 3.4081C9.15196 3.35727 9.21428 3.32014 9.28483 3.297L9.28514 3.29731Z" fill="#F8F2EA"/>
<path d="M14.1677 1.94653C14.176 1.95536 14.1845 1.96419 14.1928 1.97301C14.1125 2.0138 14.0288 1.99401 13.9438 1.97514C14.0184 1.96571 14.0932 1.95597 14.1677 1.94653Z" fill="#F8F2EA"/>
<path d="M1.84201 11.1481C1.83162 11.1481 1.82093 11.1475 1.81055 11.1472C1.8414 11.0793 1.87225 11.0115 1.9031 10.9439C1.90096 11.0194 1.88874 11.09 1.84201 11.1481Z" fill="#F8F2EA"/>
<path d="M2.35645 9.83842C2.3934 9.76324 2.43036 9.68776 2.46732 9.61258C2.47648 9.61684 2.48595 9.6211 2.49512 9.62536C2.45999 9.70146 2.438 9.78363 2.35645 9.83842Z" fill="#F8F2EA"/>
<path d="M28.388 12.0863C28.37 12.0145 28.352 11.9426 28.334 11.8708C28.3868 11.9241 28.4094 11.9874 28.4103 12.058C28.422 12.0823 28.4103 12.0887 28.3877 12.0863H28.388Z" fill="#F8F2EA"/>
<path d="M28.1871 20.9754C28.1941 20.9836 28.2011 20.9921 28.2082 21.0003C28.1856 21.0639 28.1602 21.126 28.0991 21.1936C28.1217 21.1035 28.1489 21.0375 28.1871 20.9754Z" fill="#F8F2EA"/>
<path d="M4.10642 6.68953C4.11497 6.69805 4.12383 6.70688 4.13238 6.7154C4.10336 6.78114 4.05083 6.82771 3.99707 6.87459C4.01876 6.80397 4.05358 6.74158 4.10642 6.68953Z" fill="#F8F2EA"/>
<path d="M2.25563 21.3077C2.29412 21.3746 2.33046 21.4419 2.33841 21.5216C2.29198 21.462 2.2541 21.3984 2.2373 21.3238C2.24341 21.3183 2.24952 21.3132 2.25563 21.3077Z" fill="#F8F2EA"/>
<path d="M6.57385 26.2637C6.57385 26.2533 6.57355 26.243 6.57324 26.2326C6.63372 26.2673 6.68901 26.3084 6.73085 26.3675C6.67251 26.3422 6.61387 26.3178 6.57385 26.264V26.2637Z" fill="#F8F2EA"/>
<path d="M28.1933 11.2901C28.1463 11.2386 28.1111 11.1829 28.1236 11.0864C28.1527 11.1714 28.1731 11.2307 28.1933 11.2901Z" fill="#F8F2EA"/>
<path d="M28.3877 12.0863C28.3953 12.0768 28.4027 12.0674 28.4103 12.0579C28.4408 12.1146 28.4497 12.1757 28.4402 12.2415C28.4228 12.1897 28.4051 12.138 28.3877 12.0863Z" fill="#F8F2EA"/>
<path d="M28.721 19.4121C28.7289 19.4155 28.7365 19.4149 28.7442 19.4112C28.7268 19.4666 28.7094 19.5223 28.6816 19.6109C28.6718 19.515 28.6877 19.4617 28.721 19.4124V19.4121Z" fill="#F8F2EA"/>
<path d="M12.2285 2.10905C12.292 2.07709 12.3586 2.06309 12.4548 2.07435C12.366 2.09231 12.3052 2.12305 12.2365 2.11849C12.2337 2.11544 12.2313 2.1121 12.2285 2.10905Z" fill="#F8F2EA"/>
<path d="M6.35243 26.0942C6.30233 26.0537 6.25224 26.0135 6.20215 25.973C6.20795 25.9672 6.21345 25.9612 6.21925 25.9554C6.27637 25.9888 6.32677 26.0302 6.36923 26.0808C6.3619 26.0829 6.3564 26.0875 6.35243 26.0942Z" fill="#F8F2EA"/>
<path d="M28.6022 19.8714C28.5958 19.8647 28.5894 19.8577 28.583 19.851C28.5983 19.798 28.6136 19.7451 28.6288 19.6921C28.6371 19.7554 28.6395 19.8172 28.6019 19.8714H28.6022Z" fill="#F8F2EA"/>
<path d="M16.6718 18.1331C16.5767 18.1275 16.4836 18.1039 16.3973 18.0636C15.7504 17.8196 15.1036 17.5756 14.457 17.3316C14.3097 17.2762 14.1596 17.2286 14.0132 17.1714C13.9611 17.1513 13.9377 17.1659 13.9076 17.2067C13.5281 17.7096 13.1478 18.2115 12.7665 18.7123C12.681 18.8253 12.5945 18.9383 12.5071 19.05C12.4697 19.0994 12.4241 19.142 12.3722 19.1758C12.2884 19.2284 12.2235 19.2174 12.1635 19.1383C12.1155 19.067 12.0762 18.9902 12.0464 18.9095C11.7022 18.106 11.4027 17.2842 11.1492 16.4477C11.146 16.4362 11.1419 16.4243 11.1378 16.4129C11.0618 16.1841 11.0614 16.18 10.8221 16.212C9.99859 16.3237 9.1673 16.3493 8.336 16.3493C8.20653 16.3493 8.07705 16.3433 7.94803 16.3328C7.85241 16.325 7.84098 16.304 7.88581 16.2166C7.9462 16.0986 8.01346 15.9837 8.08117 15.8698C8.48988 15.1826 8.8992 14.4964 9.30912 13.811C9.3352 13.7653 9.34756 13.7365 9.30409 13.6921C8.95821 13.3398 8.65123 12.9518 8.30626 12.5982C8.1315 12.4193 7.95993 12.2372 7.78745 12.0565C7.76823 12.0363 7.74856 12.0167 7.73072 11.9952C7.60444 11.8419 7.63373 11.7312 7.8181 11.6653C8.32136 11.4869 8.84064 11.3821 9.36082 11.2741C9.85371 11.1723 10.3484 11.0808 10.845 10.9996C10.8704 10.9992 10.8948 10.9892 10.9131 10.9715C10.9315 10.9538 10.9424 10.9299 10.9438 10.9045C11.1048 9.99768 11.3313 9.106 11.5807 8.22026C11.6118 8.11092 11.6443 8.00157 11.6799 7.89314C11.6826 7.87933 11.6882 7.86628 11.6965 7.85492C11.7048 7.84356 11.7155 7.83418 11.7278 7.82744C11.7401 7.82071 11.7538 7.81679 11.7678 7.81596C11.7819 7.81514 11.7959 7.81744 11.809 7.82269C11.9095 7.8547 11.9985 7.91526 12.0652 7.997C12.3452 8.3017 12.5863 8.63751 12.8557 8.95273C13.1856 9.33704 13.5141 9.72226 13.8655 10.0869C13.882 10.1101 13.9063 10.1267 13.9339 10.1337C13.9616 10.1407 13.9908 10.1378 14.0164 10.1253C14.8308 9.80965 15.6767 9.58044 16.4801 9.2341C16.4971 9.22678 16.5149 9.22129 16.5323 9.21534C16.6727 9.16959 16.7057 9.1943 16.6952 9.34528C16.6436 10.1002 16.5924 10.8549 16.5414 11.6095C16.53 11.7756 16.5195 11.9421 16.5016 12.1082C16.4964 12.1317 16.4999 12.1564 16.5116 12.1775C16.5234 12.1986 16.5424 12.2146 16.5652 12.2226C17.2346 12.568 17.892 12.9349 18.5435 13.3133C18.7302 13.4221 18.9182 13.5283 19.0953 13.6527C19.2101 13.7328 19.2096 13.8449 19.093 13.9272C18.962 14.0092 18.8229 14.0774 18.678 14.1308C17.9373 14.447 17.1975 14.7658 16.4321 15.0198C16.3658 15.0417 16.3772 15.0797 16.3863 15.1264C16.4696 15.6035 16.5616 16.0798 16.6329 16.5588C16.7057 17.0474 16.7578 17.5393 16.8182 18.0293C16.8283 18.1116 16.7972 18.134 16.6718 18.1331ZM12.7372 18.56C12.7743 18.5499 12.783 18.5142 12.8027 18.4881C13.1336 18.0271 13.4391 17.5483 13.7177 17.0539C13.7557 16.9875 13.7872 16.9839 13.8549 17.0081C14.7869 17.359 15.7143 17.7214 16.6526 18.054C16.7089 18.0741 16.7354 18.0787 16.7194 17.9986C16.5172 17.0035 16.3804 15.997 16.2116 14.9964C16.2038 14.9507 16.196 14.9177 16.2605 14.894C16.8443 14.6804 17.427 14.4619 18.0087 14.2383C18.3367 14.113 18.6624 13.9798 18.9891 13.8508C19.0349 13.8321 19.0856 13.801 19.0907 13.7548C19.0957 13.7085 19.0381 13.687 18.9992 13.6633C18.1532 13.2057 17.3064 12.7523 16.4486 12.3127C16.405 12.2928 16.369 12.2594 16.3458 12.2175C16.3227 12.1755 16.3136 12.1273 16.32 12.0798C16.3525 11.4041 16.4202 10.7315 16.4865 10.0585C16.5108 9.81056 16.5323 9.56214 16.5533 9.31279C16.5172 9.31092 16.4812 9.31916 16.4495 9.33658C15.6081 9.63808 14.7704 9.94873 13.9181 10.2187C13.894 10.2304 13.8665 10.2331 13.8405 10.2263C13.8146 10.2195 13.7919 10.2037 13.7767 10.1816C13.6728 10.0599 13.5557 9.94873 13.4564 9.82383C12.9364 9.17661 12.3979 8.54463 11.841 7.92791C11.8245 7.91007 11.8154 7.87942 11.7806 7.87896C11.7742 7.90092 11.7678 7.92151 11.7627 7.94209C11.6319 8.52267 11.4988 9.1028 11.3707 9.68429C11.2682 10.151 11.1716 10.619 11.0728 11.0866C11.0632 11.1323 11.049 11.1588 10.9941 11.1685C10.4534 11.2639 9.91304 11.3623 9.37318 11.4635C8.85802 11.561 8.34241 11.6571 7.83137 11.7751C7.71425 11.8021 7.70601 11.8209 7.78882 11.906C8.02307 12.1434 8.24633 12.3918 8.47142 12.638C8.79717 12.9881 9.12338 13.3377 9.45004 13.6866C9.4579 13.6921 9.46444 13.6994 9.46921 13.7077C9.47398 13.7161 9.47686 13.7254 9.47764 13.735C9.47843 13.7446 9.4771 13.7542 9.47375 13.7633C9.47041 13.7723 9.46512 13.7805 9.45827 13.7872C9.39378 13.8813 9.33614 13.98 9.28579 14.0823C8.94906 14.7041 8.54554 15.2851 8.18777 15.8936C8.13104 15.9897 8.07339 16.0853 8.01483 16.1846C8.21522 16.1846 8.40326 16.1887 8.59083 16.1846C9.42167 16.162 10.2522 16.1379 11.0824 16.1123C11.1415 16.1123 11.1739 16.1196 11.1964 16.1841C11.4379 16.8603 11.6819 17.5356 11.9284 18.21C12.0308 18.4909 12.1388 18.7695 12.2431 19.0495C12.2605 19.0953 12.2889 19.141 12.3319 19.0884C12.4737 18.9191 12.6215 18.7544 12.7345 18.5627L12.7372 18.56Z" fill="#F8F2EA"/>
<path d="M21.22 18.3486C21.2012 18.7146 21.187 19.0834 21.1564 19.4494C21.1504 19.5244 21.176 19.556 21.2428 19.5866C21.9307 19.9002 22.6007 20.2515 23.2499 20.6389C23.3314 20.6869 23.3378 20.7272 23.2765 20.8004C23.2338 20.8495 23.1817 20.8895 23.1232 20.918C22.7078 21.1303 22.275 21.3023 21.8632 21.526C21.6802 21.6248 21.498 21.7221 21.3165 21.8179C21.2923 21.8271 21.2724 21.8449 21.2605 21.8678C21.2486 21.8908 21.2456 21.9173 21.252 21.9423C21.3435 22.5874 21.3677 23.2403 21.4807 23.8826C21.5009 23.9966 21.4688 24.0199 21.354 23.9824L19.8214 23.4887C19.6841 23.443 19.5496 23.4059 19.4169 23.3556C19.3918 23.342 19.3625 23.3382 19.3347 23.3451C19.307 23.3519 19.2828 23.3689 19.2669 23.3926C18.9213 23.7892 18.5647 24.1741 18.1972 24.5474C18.0828 24.6645 17.9684 24.7807 17.849 24.8933C17.7296 25.0058 17.6532 24.9784 17.6093 24.8274C17.5766 24.7084 17.5504 24.5878 17.5306 24.466C17.4309 23.9069 17.3279 23.3483 17.2735 22.7823C17.2671 22.7132 17.2277 22.7146 17.182 22.7105C16.7977 22.6789 16.4115 22.6647 16.0281 22.619C15.6878 22.5778 15.3483 22.5325 15.0079 22.4923C14.9525 22.4859 14.9411 22.458 14.9434 22.4127C14.9502 22.3478 14.9751 22.2861 15.0152 22.2347C15.244 21.898 15.4755 21.5626 15.7042 21.225C15.8323 21.036 15.9531 20.842 16.0835 20.6549C16.1219 20.5995 16.1146 20.5684 16.0748 20.5213C15.7241 20.1028 15.3744 19.6832 15.0257 19.2622C14.9896 19.22 14.957 19.1749 14.9283 19.1273C14.8601 19.0088 14.8885 18.9392 15.0225 18.9136C15.1831 18.883 15.3455 18.8619 15.5075 18.8377C16.0565 18.7549 16.6128 18.7238 17.1678 18.6927C17.3215 18.684 17.3256 18.6849 17.3394 18.5325C17.4025 17.9151 17.5077 17.3028 17.6541 16.6997C17.6752 16.6082 17.6971 16.5195 17.7228 16.4307C17.7557 16.3195 17.7809 16.3141 17.8692 16.3973C17.9991 16.5204 18.1281 16.6439 18.2562 16.7693C18.6183 17.1234 18.9794 17.4783 19.3396 17.8339C19.3473 17.8443 19.3569 17.853 19.368 17.8596C19.3791 17.8662 19.3914 17.8706 19.4042 17.8724C19.417 17.8741 19.43 17.8734 19.4425 17.8701C19.4549 17.8668 19.4666 17.861 19.4768 17.8531C19.9229 17.6074 20.3809 17.3842 20.8183 17.1211C20.8581 17.0973 20.8974 17.0731 20.939 17.0525C21.0946 16.9761 21.1738 17.0195 21.1888 17.1897C21.2094 17.4235 21.22 17.6578 21.2172 17.8929C21.2181 18.0462 21.22 18.1972 21.22 18.3486ZM15.9032 19.9979L15.9206 20.0153C16.0579 20.1526 16.1951 20.2898 16.3324 20.4271C16.3781 20.4692 16.3781 20.4966 16.3424 20.5479C15.9435 21.1312 15.5368 21.7086 15.1474 22.2983C15.0957 22.3765 15.1172 22.3829 15.1932 22.3866C15.9092 22.4168 16.622 22.4927 17.3366 22.544C17.3911 22.5481 17.4144 22.56 17.4208 22.6213C17.4515 22.9191 17.4867 23.216 17.5242 23.5134C17.5727 23.8996 17.6244 24.2848 17.6765 24.67C17.6825 24.7158 17.6834 24.772 17.7356 24.7858C17.7813 24.7977 17.8014 24.7482 17.8271 24.7194C18.2815 24.2107 18.7354 23.7015 19.1886 23.1918C19.2136 23.1587 19.2488 23.1348 19.2888 23.124C19.3288 23.1131 19.3713 23.1159 19.4096 23.1319C19.8319 23.2591 20.2482 23.4036 20.6641 23.55C20.8745 23.6241 21.0855 23.696 21.3046 23.7719C21.3019 23.7344 21.3005 23.7097 21.2982 23.6855C21.2351 23.1026 21.1696 22.5197 21.1289 21.9346C21.1115 21.6848 21.1088 21.6811 21.3343 21.5686C21.71 21.3833 22.0901 21.2067 22.4653 21.0195C22.6913 20.907 22.9118 20.7839 23.1401 20.6627L23.0427 20.6119C22.3829 20.2761 21.72 19.9476 21.0507 19.6328C21.0168 19.6223 20.9881 19.5995 20.9702 19.5688C20.9523 19.5381 20.9466 19.5019 20.9541 19.4672C20.9816 19.1104 21.0031 18.7526 21.0219 18.3948C21.0415 18.0064 21.0566 17.617 21.0713 17.2286C21.0758 17.1138 21.0621 17.1074 20.961 17.1637C20.757 17.278 20.5538 17.3947 20.3498 17.5091L19.4645 18.0078C19.4352 18.0242 19.4155 18.0421 19.3794 18.0078C19.071 17.709 18.7604 17.413 18.4644 17.101C18.2956 16.9225 18.1171 16.7528 17.9392 16.5753C17.9103 16.6938 17.8811 16.8041 17.8573 16.9148C17.7264 17.5175 17.5965 18.1203 17.4675 18.7233C17.4556 18.7809 17.4354 18.8111 17.3705 18.8175C16.8883 18.866 16.4062 18.9168 15.9243 18.9699C15.685 18.996 15.4466 19.0303 15.2074 19.0559C15.1236 19.0651 15.1301 19.0934 15.1726 19.1474C15.2151 19.2014 15.2577 19.2613 15.3021 19.3162C15.4647 19.5294 15.642 19.7309 15.8328 19.9192L15.8493 19.9412L15.8662 19.9604L15.8849 19.9792L15.9032 19.9979Z" fill="#F8F2EA"/>
<path d="M21.8258 13.0758C21.5512 13.0882 21.3623 12.8805 21.4076 12.6064C21.4214 12.5 21.466 12.4 21.536 12.3186C21.606 12.2373 21.6983 12.1783 21.8015 12.1489C21.8544 12.1308 21.9109 12.126 21.966 12.1348C22.0212 12.1435 22.0734 12.1657 22.1181 12.1992C22.2883 12.3191 22.3857 12.5547 22.34 12.7322C22.2915 12.9207 22.1112 13.0525 21.8825 13.0731C21.8633 13.0749 21.8445 13.0749 21.8258 13.0758ZM21.5888 12.6801C21.588 12.6968 21.59 12.7135 21.5947 12.7295C21.6235 12.8054 21.7777 12.8452 21.9118 12.8146C22.0362 12.7862 22.1442 12.6856 22.1405 12.6037C22.1353 12.5386 22.1076 12.4773 22.0622 12.4304C22.0168 12.3835 21.9565 12.3539 21.8916 12.3465C21.7205 12.3301 21.5938 12.4632 21.5888 12.6801Z" fill="#060505"/>
<path d="M10.576 19.3204C10.576 19.5235 10.4484 19.6342 10.2141 19.6324C10.0138 19.6324 9.84264 19.4709 9.84035 19.2828C9.83807 19.0738 10.0137 18.8647 10.1936 18.8633C10.3949 18.861 10.576 19.0779 10.576 19.3204ZM10.2064 19.4119C10.3514 19.4141 10.4017 19.3377 10.3436 19.206C10.3339 19.1834 10.3212 19.1623 10.3056 19.1433C10.2599 19.0889 10.2041 19.0518 10.129 19.0728C10.0931 19.0829 10.0615 19.1045 10.0389 19.1342C10.0164 19.1639 10.0042 19.2002 10.0041 19.2375C9.9927 19.335 10.081 19.4096 10.2064 19.4109V19.4119Z" fill="#060505"/>
<path d="M11.6656 22.6931C11.6702 22.4671 11.8537 22.2759 12.0641 22.2772C12.2128 22.2772 12.356 22.4602 12.351 22.6432C12.3455 22.8404 12.1872 22.9681 11.9539 22.9635C11.7855 22.9603 11.6611 22.845 11.6656 22.6931ZM11.9772 22.7229C12.0628 22.7229 12.1556 22.6721 12.1602 22.6213C12.1603 22.5842 12.1474 22.5482 12.1238 22.5196C12.1001 22.4911 12.0672 22.4717 12.0307 22.4648C11.9635 22.4621 11.856 22.5705 11.8583 22.6451C11.8596 22.7283 11.9356 22.7032 11.9772 22.7229Z" fill="#060505"/>
<path d="M5.66406 19.7998C5.66547 19.7066 5.6922 19.6155 5.74138 19.5363C5.75722 19.5051 5.77986 19.4779 5.80764 19.4567C5.83543 19.4355 5.86763 19.4208 5.90186 19.4137C5.93609 19.4067 5.97148 19.4074 6.0054 19.4158C6.03932 19.4243 6.07089 19.4403 6.09778 19.4626C6.22497 19.5541 6.31235 19.7829 6.26752 19.9037C6.23932 19.9691 6.19014 20.0232 6.12775 20.0575C6.06536 20.0918 5.99332 20.1043 5.92301 20.0931C5.85176 20.0836 5.78632 20.0487 5.73875 19.9948C5.69117 19.941 5.66465 19.8717 5.66406 19.7998ZM5.98432 19.8968C6.07582 19.8968 6.13804 19.841 6.13896 19.7596C6.13308 19.7199 6.11483 19.6831 6.08682 19.6545C6.05881 19.6258 6.02245 19.6067 5.98295 19.5999C5.91798 19.5976 5.84569 19.6914 5.84569 19.7829C5.85073 19.8598 5.89648 19.8973 5.98798 19.8968H5.98432Z" fill="#060505"/>
<path d="M19.1047 10.8285C19.1079 10.6327 19.2488 10.4593 19.4003 10.4625C19.5334 10.4662 19.6624 10.6387 19.6583 10.8075C19.6546 10.9621 19.521 11.076 19.3412 11.0751C19.309 11.0763 19.2769 11.0707 19.2469 11.0586C19.217 11.0465 19.19 11.0282 19.1677 11.0049C19.1453 10.9816 19.1282 10.9538 19.1173 10.9234C19.1065 10.893 19.1022 10.8607 19.1047 10.8285ZM19.3385 10.8981C19.4236 10.8981 19.5169 10.8194 19.5142 10.7608C19.5103 10.7303 19.4962 10.7019 19.4742 10.6803C19.4522 10.6588 19.4236 10.6452 19.3929 10.6419C19.3289 10.6464 19.2534 10.7475 19.2502 10.8249C19.247 10.9022 19.3014 10.8866 19.3385 10.8981Z" fill="#060505"/>
<path d="M21.0631 15.3162C21.0329 15.3188 21.0026 15.3148 20.974 15.3046C20.9455 15.2944 20.9196 15.2782 20.8979 15.257C20.8762 15.2359 20.8593 15.2104 20.8483 15.1821C20.8374 15.1539 20.8326 15.1237 20.8343 15.0934C20.8343 14.9379 20.9515 14.7974 21.0818 14.796C21.2122 14.7947 21.3403 14.9484 21.3371 15.0889C21.3339 15.2293 21.2228 15.3162 21.0631 15.3162ZM21.0663 15.1753C21.1249 15.1643 21.1917 15.1584 21.1958 15.0774C21.1917 15.044 21.1768 15.0129 21.1532 14.9889C21.1296 14.9649 21.0987 14.9493 21.0654 14.9447C21.0027 14.9447 20.9515 15.0074 20.9515 15.0847C20.9515 15.1621 21.0096 15.1666 21.0663 15.1753Z" fill="#060505"/>
<path d="M12.735 18.56C12.622 18.7517 12.4742 18.9164 12.3324 19.0857C12.2894 19.1374 12.261 19.0925 12.2436 19.0468C12.1393 18.7668 12.0313 18.4881 11.9288 18.2072C11.6824 17.5326 11.4384 16.8573 11.1968 16.1814C11.1735 16.1169 11.1419 16.1077 11.0829 16.1096C10.2527 16.1352 9.42214 16.1593 8.5913 16.1818C8.40372 16.1869 8.21569 16.1818 8.0153 16.1818C8.07386 16.0826 8.13151 15.9869 8.18824 15.8909C8.54692 15.2824 8.95045 14.7013 9.28626 14.0796C9.3366 13.9772 9.39425 13.8786 9.45874 13.7845C9.46559 13.7777 9.47087 13.7695 9.47422 13.7605C9.47757 13.7515 9.47889 13.7418 9.47811 13.7322C9.47732 13.7226 9.47445 13.7133 9.46968 13.705C9.46491 13.6966 9.45836 13.6894 9.45051 13.6838C9.12293 13.3355 8.79672 12.986 8.47189 12.6352C8.24314 12.3909 8.02353 12.1425 7.78929 11.9032C7.70648 11.8195 7.71472 11.7994 7.83184 11.7724C8.34288 11.6543 8.85849 11.5582 9.37364 11.4608C9.9132 11.3592 10.4535 11.2609 10.9946 11.1657C11.0495 11.1561 11.0637 11.1291 11.0733 11.0838C11.1721 10.6162 11.2686 10.1482 11.3711 9.68155C11.4992 9.10005 11.6324 8.51993 11.7632 7.93935C11.7682 7.91876 11.7747 7.89817 11.7811 7.87621C11.8158 7.87621 11.8268 7.90732 11.8415 7.92517C12.3999 8.53914 12.9366 9.17188 13.4514 9.82337C13.5512 9.94827 13.6683 10.0594 13.7717 10.1811C13.7869 10.2032 13.8096 10.2191 13.8355 10.2259C13.8614 10.2327 13.889 10.23 13.9131 10.2182C14.7654 9.94827 15.6031 9.63762 16.4445 9.33613C16.4762 9.3187 16.5122 9.31047 16.5483 9.31234C16.5259 9.56168 16.5058 9.81011 16.4815 10.0581C16.4152 10.7311 16.3475 11.4036 16.315 12.0794C16.3086 12.1268 16.3176 12.1751 16.3408 12.217C16.3639 12.259 16.4 12.2923 16.4435 12.3122C17.2995 12.7519 18.1482 13.2044 18.9942 13.6628C19.0349 13.6852 19.0925 13.704 19.0857 13.7543C19.0788 13.8046 19.0312 13.8316 18.9841 13.8504C18.6574 13.9794 18.3317 14.1125 18.0036 14.2379C17.4232 14.4605 16.8411 14.6795 16.2573 14.8949C16.1928 14.9187 16.2006 14.9507 16.2084 14.9973C16.3772 15.9979 16.514 17.0044 16.7162 17.9995C16.7322 18.0796 16.7057 18.075 16.6494 18.0549C15.7111 17.7223 14.7837 17.3599 13.8517 17.009C13.7845 16.9839 13.7529 16.9875 13.7145 17.0548C13.4359 17.5492 13.1304 18.028 12.7995 18.4891C12.7807 18.5147 12.7711 18.5508 12.7341 18.5609C12.7203 18.5517 12.7258 18.5385 12.7267 18.5261L12.7505 18.495C12.756 18.4881 12.7615 18.4808 12.7665 18.4735C12.7716 18.4662 12.783 18.4566 12.7711 18.447C12.7688 18.447 12.7583 18.4538 12.7519 18.4575L12.7382 18.4822L12.7148 18.5161C12.6851 18.5458 12.6878 18.5623 12.735 18.56ZM9.08862 12.982L9.10829 13.0086C9.1429 13.0582 9.18364 13.1032 9.22953 13.1426L9.25195 13.1609H9.27253L9.26338 13.1426L9.24554 13.1229C9.21489 13.0713 9.17159 13.0283 9.11973 12.998L9.09914 12.9706L9.08358 12.9495L9.04515 12.9138L9.02914 12.8942L9.00764 12.8713L8.99345 12.858C8.9843 12.8525 8.9779 12.8338 8.96555 12.8452C8.95319 12.8567 8.96966 12.8631 8.9779 12.8695L8.99666 12.8873L9.01633 12.9052C9.01633 12.9166 9.02228 12.9235 9.03463 12.9235C9.03641 12.9327 9.04101 12.9412 9.04781 12.9478C9.05461 12.9543 9.06327 12.9586 9.0726 12.9601C9.07169 12.9738 9.07672 12.9811 9.08862 12.982ZM8.4783 12.4069L8.49751 12.4188C8.49751 12.4138 8.49751 12.4065 8.49751 12.4037C8.49751 12.401 8.48333 12.4037 8.4783 12.4101C8.4783 12.4037 8.49568 12.4005 8.48287 12.3918C8.47604 12.3891 8.46871 12.3879 8.46137 12.3882C8.46778 12.3795 8.46549 12.3735 8.45542 12.3708C8.45542 12.3708 8.44993 12.3708 8.44719 12.3735L8.46274 12.3863L8.4783 12.4069ZM8.87496 15.1181L8.89189 15.098L8.90881 15.0783C8.91565 15.0749 8.92117 15.0694 8.92448 15.0625C8.9278 15.0556 8.92872 15.0478 8.92712 15.0404C8.93672 15.0381 8.94496 15.0349 8.93398 15.0239L8.92346 15.0371C8.90698 15.0371 8.90195 15.0527 8.89738 15.0655L8.8745 15.0834L8.85986 15.103L8.84431 15.125C8.84062 15.127 8.83736 15.1296 8.83474 15.1329C8.83211 15.1361 8.83016 15.1399 8.82901 15.1439C8.82785 15.1479 8.82752 15.1521 8.82803 15.1562C8.82853 15.1604 8.82987 15.1644 8.83195 15.168C8.82052 15.1643 8.81594 15.168 8.82143 15.1794L8.83104 15.1671C8.84797 15.1671 8.853 15.1515 8.85849 15.1387L8.87496 15.1181ZM17.6376 13.0726C17.6404 13.0776 17.6376 13.0914 17.65 13.0781L17.6372 13.0731C17.6372 13.0593 17.6299 13.0552 17.6184 13.0548L17.5997 13.0397L17.5937 13.0497L17.6193 13.0538C17.618 13.0671 17.6257 13.0721 17.6376 13.0726ZM17.5461 13.0168L17.5521 13.02L17.5452 13.0177L17.5384 13.0127L17.5461 13.0168ZM13.337 17.5965L13.3531 17.5782L13.3425 17.5699C13.3403 17.5782 13.338 17.5864 13.3352 17.5946L13.3238 17.6038L13.3316 17.6106L13.337 17.5965ZM13.2584 17.7031L13.2364 17.7365L13.2204 17.758C13.2044 17.7763 13.1801 17.7918 13.1952 17.8234C13.2227 17.8156 13.2268 17.7909 13.2378 17.7717L13.2492 17.7493L13.273 17.7163L13.2863 17.6935C13.2931 17.682 13.3 17.6706 13.3073 17.6591C13.3146 17.6477 13.322 17.6422 13.3101 17.6326C13.3049 17.6372 13.3 17.6421 13.2954 17.6472L13.2725 17.6802L13.2584 17.7031ZM13.0891 17.9602L13.0653 17.9908C13.0534 18.0114 13.0237 18.0265 13.0429 18.059C13.053 18.0544 13.0618 18.0474 13.0687 18.0386C13.0755 18.0299 13.0802 18.0196 13.0822 18.0087C13.0905 17.9977 13.0982 17.9863 13.106 17.9753C13.1138 17.9643 13.1243 17.957 13.112 17.9469C13.0996 17.9368 13.095 17.9524 13.0891 17.9602ZM13.2721 10.0993L13.2474 10.0668L13.2291 10.0521C13.2291 10.0576 13.225 10.0645 13.2291 10.0672C13.2332 10.07 13.246 10.0855 13.2515 10.0672C13.2282 10.0883 13.2442 10.0993 13.2625 10.1093C13.2625 10.1308 13.2767 10.1432 13.2899 10.1551L13.3297 10.2086C13.3558 10.2475 13.3727 10.2951 13.4322 10.3038C13.4011 10.2685 13.37 10.2333 13.3407 10.1976C13.3387 10.1863 13.3343 10.1755 13.3276 10.1661C13.321 10.1567 13.3123 10.1488 13.3023 10.1432L13.2721 10.0993ZM13.1554 17.897C13.1719 17.8787 13.1966 17.8632 13.182 17.8316C13.1527 17.8367 13.1495 17.8632 13.1362 17.8819C13.1229 17.9007 13.0964 17.914 13.1211 17.9327C13.1353 17.941 13.1513 17.9153 13.1563 17.897H13.1554ZM8.53457 12.4412C8.52965 12.4356 8.5243 12.4304 8.51856 12.4257C8.50117 12.439 8.51856 12.4431 8.52634 12.4499C8.55396 12.4843 8.58722 12.5137 8.6247 12.5369C8.62928 12.5456 8.63248 12.562 8.64575 12.5501C8.65901 12.5382 8.64209 12.5332 8.63522 12.5268C8.60903 12.4911 8.57509 12.4619 8.53594 12.4412H8.53457ZM11.8488 8.82372C11.8451 8.76424 11.8822 8.70705 11.8524 8.64529L11.8241 8.82188C11.8117 8.88731 11.7865 8.95136 11.8048 9.02685C11.8324 8.96258 11.8473 8.89361 11.8488 8.82372ZM8.70248 12.5899C8.69836 12.5812 8.69562 12.5648 8.68235 12.5762C8.66908 12.5876 8.68601 12.5931 8.69241 12.5995C8.74513 12.6584 8.80351 12.7118 8.86672 12.7592C8.8745 12.778 8.88823 12.8072 8.90607 12.7903C8.92391 12.7734 8.8928 12.7588 8.87679 12.7482C8.82545 12.6885 8.7669 12.6353 8.70248 12.5899ZM17.9323 13.2236C17.9153 13.2076 17.8897 13.181 17.8751 13.2039C17.8604 13.2268 17.892 13.2401 17.9167 13.2419C18.1455 13.37 18.371 13.5022 18.6057 13.618L18.6167 13.5974L17.9323 13.2236ZM16.8027 13.036C16.8095 13.0534 16.8205 13.0575 16.8356 13.0456L16.8095 13.0255C16.4974 12.8318 16.1757 12.654 15.8456 12.4929C16.1567 12.6888 16.4746 12.8708 16.8027 13.036ZM10.0773 11.4562C10.3976 11.3876 10.7251 11.3601 11.0381 11.2664L11.0317 11.2366L10.0764 11.4274L9.77076 11.4823C9.8769 11.5116 9.97664 11.4773 10.0768 11.4562H10.0773ZM16.1219 14.4021C16.5879 14.2911 17.0475 14.1554 17.499 13.9954C17.4597 13.9734 17.4295 13.9954 17.3984 14.005C16.9747 14.1363 16.552 14.2694 16.1205 14.3738L15.8351 14.4456L15.8405 14.4685L16.1219 14.4021ZM11.97 8.68326C11.9133 8.98522 11.8579 9.26979 11.8062 9.55481C11.6836 10.2287 11.5317 10.8967 11.4402 11.5761C11.4201 11.7225 11.4187 11.7225 11.2714 11.7499L11.2348 11.7554L9.14489 12.0528L8.60137 12.1301C9.08541 12.5945 9.54613 13.058 9.9922 13.5356C10.0238 13.5699 10.0576 13.5942 10.0215 13.6514C9.90939 13.8284 9.80965 14.0132 9.69482 14.1885C9.38371 14.6634 9.04653 15.1204 8.71483 15.5811C8.65519 15.6683 8.59057 15.7521 8.5213 15.8318C8.54538 15.8483 8.57487 15.8549 8.60366 15.8501C9.48665 15.8305 10.3696 15.809 11.2526 15.7911C11.3377 15.7911 11.4416 15.7705 11.4887 15.8712C11.566 16.0288 11.6343 16.1908 11.6932 16.3562C11.9137 17.004 12.1553 17.6445 12.3296 18.3074C12.3365 18.333 12.3397 18.3687 12.3717 18.371C12.4037 18.3733 12.4042 18.3381 12.4175 18.3184C12.7908 17.7258 13.164 17.1327 13.537 16.5392C13.574 16.4801 13.6019 16.4605 13.6742 16.4934C13.9144 16.5977 14.1578 16.6947 14.4012 16.7912C14.9502 17.0093 15.5011 17.2263 16.0537 17.4423C16.1118 17.4652 16.1713 17.4853 16.2367 17.5095C16.2043 17.3233 16.1732 17.1508 16.1452 16.9779C16.0789 16.5735 16.002 16.1704 15.9288 15.7669C15.8556 15.3634 15.8003 14.9685 15.733 14.5719C15.7102 14.4346 15.7065 14.4346 15.8469 14.3921C16.5039 14.2004 17.1536 13.9867 17.7991 13.7616C17.8211 13.7538 17.855 13.7575 17.8572 13.7268C17.8595 13.6962 17.827 13.6925 17.806 13.6811C17.6857 13.6184 17.5603 13.5635 17.445 13.4931C16.9418 13.1842 16.4252 12.8914 15.9069 12.6059C15.868 12.5903 15.8358 12.5616 15.8158 12.5248C15.7959 12.4879 15.7894 12.4453 15.7975 12.4042C15.8701 11.6014 15.9401 10.7989 16.0075 9.99677C16.0167 9.88834 16.0167 9.8888 15.9133 9.92997C15.2118 10.2087 14.5103 10.4874 13.8087 10.7658C13.6541 10.8271 13.6527 10.8262 13.5525 10.7009C13.113 10.1519 12.686 9.59462 12.2715 9.02914C12.1833 8.90396 12.0821 8.78849 11.9696 8.68463L11.97 8.68326ZM15.6983 17.3938C15.8771 17.4743 16.0432 17.5878 16.2473 17.5992C16.0684 17.5201 15.8913 17.4359 15.6978 17.3952L15.6983 17.3938ZM9.37364 14.0686L9.39515 14.0828C9.45325 13.9913 9.52599 13.9098 9.56214 13.8055L9.53789 13.7904C9.4839 13.8824 9.42946 13.9771 9.37364 14.0686ZM16.1219 14.5339L16.1315 14.5659C16.2688 14.5174 16.4088 14.4854 16.5332 14.4026L16.1219 14.5339ZM8.65032 11.9384C8.77128 11.9362 8.89172 11.9221 9.00992 11.8963C8.88457 11.8593 8.76744 11.8977 8.65032 11.9384ZM10.7887 16.0396V16.0492H11.1428V16.0181L10.7887 16.0396ZM11.3908 16.2683C11.3981 16.3525 11.4434 16.4239 11.4777 16.4998C11.4662 16.4172 11.4365 16.3381 11.3908 16.2683ZM16.282 11.6246C16.2404 11.695 16.2363 11.7998 16.2578 11.9252C16.2674 11.819 16.2752 11.7216 16.282 11.6246ZM14.931 17.0955C14.9816 17.1401 15.0438 17.1694 15.1104 17.1801C15.0161 17.1092 15.0047 17.1033 14.931 17.0955ZM16.0469 10.9026V10.6922C16.0034 10.8377 16.0034 10.8377 16.0469 10.9026ZM17.8623 13.1993C17.8483 13.1781 17.8295 13.1604 17.8074 13.1478C17.7853 13.1351 17.7605 13.1279 17.7351 13.1266C17.75 13.147 17.769 13.164 17.7909 13.1765C17.8128 13.1891 17.8371 13.1968 17.8623 13.1993ZM8.96189 12.8233C8.95482 12.8182 8.94749 12.8134 8.93993 12.8091C8.92574 12.8018 8.93032 12.8178 8.92483 12.8219C8.93123 12.8273 8.93795 12.8324 8.94496 12.837C8.95777 12.8443 8.95319 12.8278 8.96189 12.8233ZM17.7209 13.1078C17.7209 13.1078 17.715 13.112 17.7154 13.1133C17.7166 13.1175 17.7183 13.1215 17.7204 13.1252C17.7227 13.1252 17.7269 13.1211 17.7264 13.1197C17.7252 13.1155 17.7234 13.1115 17.7209 13.1078ZM15.7994 14.4712C15.7994 14.4712 15.7962 14.4662 15.7943 14.4662C15.7925 14.4662 15.7902 14.4685 15.7884 14.4698C15.7866 14.4712 15.7916 14.4749 15.7934 14.4749C15.7952 14.4749 15.7971 14.4744 15.7989 14.473L15.7994 14.4712ZM12.6814 18.5856L12.6773 18.5828V18.5879L12.6814 18.5856ZM12.7922 18.4268L12.7986 18.4204C12.7948 18.4181 12.7908 18.4163 12.7867 18.4149C12.7867 18.4149 12.7825 18.4186 12.7807 18.4204L12.7922 18.4268Z" fill="#060505"/>
<path d="M15.8339 19.9169C15.6431 19.7286 15.4658 19.5271 15.3032 19.3139C15.2574 19.259 15.2186 19.2 15.1737 19.1451C15.1289 19.0902 15.1248 19.0641 15.2085 19.0536C15.4478 19.028 15.6861 18.9937 15.9254 18.9676C16.4073 18.9145 16.8894 18.8638 17.3716 18.8153C17.4366 18.8089 17.4567 18.7787 17.4686 18.721C17.597 18.118 17.7269 17.5152 17.8584 16.9125C17.8822 16.8013 17.9115 16.6915 17.9403 16.573C18.1183 16.7505 18.2967 16.9203 18.4655 17.0987C18.7606 17.4107 19.0712 17.7067 19.3805 18.0055C19.4167 18.0407 19.4363 18.0229 19.4656 18.0055L20.3536 17.5118C20.5577 17.3974 20.7608 17.2808 20.9649 17.1664C21.066 17.1101 21.0797 17.1165 21.0751 17.2314C21.0605 17.6202 21.0454 18.0091 21.0257 18.3976C21.007 18.7553 20.9855 19.1131 20.958 19.47C20.9505 19.5046 20.9562 19.5409 20.9741 19.5715C20.9919 19.6022 21.0207 19.6251 21.0545 19.6356C21.7239 19.9503 22.3868 20.2788 23.0465 20.6146L23.144 20.6654C22.9152 20.7867 22.6952 20.9097 22.4692 21.0223C22.094 21.2085 21.7138 21.3851 21.3382 21.5713C21.1127 21.6825 21.1154 21.6861 21.1328 21.9373C21.1735 22.5225 21.2389 23.1053 21.3021 23.6882C21.3043 23.7124 21.3057 23.7371 21.3085 23.7747C21.0889 23.6987 20.8779 23.6269 20.668 23.5528C20.2521 23.4064 19.8357 23.2618 19.4135 23.1346C19.3752 23.1186 19.3327 23.1159 19.2927 23.1267C19.2527 23.1376 19.2174 23.1614 19.1925 23.1945C18.7405 23.7051 18.2866 24.2143 17.8309 24.7222C17.8053 24.751 17.7852 24.8004 17.7394 24.7885C17.6873 24.7748 17.6864 24.7171 17.6804 24.6728C17.6283 24.2875 17.5766 23.9023 17.5281 23.5162C17.4905 23.2192 17.4553 22.9214 17.4247 22.624C17.4183 22.5627 17.3949 22.5508 17.3405 22.5467C16.6259 22.4955 15.9131 22.4195 15.1971 22.3893C15.1197 22.3857 15.0982 22.3793 15.1513 22.301C15.5406 21.7113 15.9474 21.1339 16.3463 20.5506C16.3815 20.4994 16.3802 20.4719 16.3363 20.4298C16.1967 20.2926 16.0617 20.1553 15.9245 20.0181C15.9281 20.0152 15.9314 20.0122 15.9346 20.0089H15.9538L15.9721 20.0277C15.9721 20.0301 15.9727 20.0326 15.9737 20.0348C15.9747 20.0371 15.9761 20.0391 15.9779 20.0408C15.9797 20.0425 15.9818 20.0438 15.9841 20.0447C15.9864 20.0456 15.9888 20.046 15.9913 20.046L16.01 20.0643C16.0133 20.0684 16.01 20.0853 16.0229 20.0698L16.0073 20.062C16.0073 20.0483 16.0027 20.0418 15.989 20.0432C15.9913 20.029 15.9849 20.0231 15.9712 20.0235C15.9712 20.0107 15.967 20.003 15.9524 20.0057C15.9451 19.9444 15.8929 19.9142 15.8527 19.8835C15.8357 19.8698 15.8463 19.9032 15.8408 19.9133L15.8339 19.9169ZM18.0634 24.3241L18.0867 24.3127L18.1068 24.2935V24.272C18.1027 24.272 18.0963 24.272 18.0945 24.2743C18.0867 24.2871 18.0945 24.293 18.1059 24.2949C18.0963 24.2889 18.0853 24.2798 18.0775 24.2949C18.0752 24.299 18.083 24.3077 18.0858 24.3136C18.0794 24.3109 18.0812 24.2958 18.0675 24.3035C18.0537 24.3113 18.0634 24.3186 18.0629 24.326C18.0382 24.3122 18.0432 24.3301 18.0446 24.3438C18.03 24.331 18.0267 24.3438 18.024 24.3539C18.024 24.3556 18.0243 24.3573 18.025 24.3589C18.0257 24.3605 18.0268 24.3619 18.0281 24.363C18.0414 24.363 18.0469 24.3548 18.0423 24.342C18.0574 24.3433 18.0661 24.3379 18.0634 24.3241ZM18.1233 24.2253C18.1306 24.2294 18.1311 24.2464 18.1462 24.2358C18.1613 24.2253 18.1512 24.2171 18.1512 24.2075C18.1576 24.2075 18.159 24.2258 18.1686 24.2139C18.1727 24.2093 18.1718 24.2001 18.1732 24.1933C18.1951 24.2043 18.1937 24.191 18.1915 24.1764C18.2139 24.1764 18.223 24.1585 18.2372 24.1452L18.2578 24.1279L18.2747 24.1077L18.293 24.089L18.3113 24.0702L18.3292 24.051L18.3475 24.0322L18.3653 24.0135C18.3717 24.0057 18.3859 23.9979 18.3713 23.9879C18.3566 23.9778 18.352 23.9929 18.3452 24.0007L18.3264 24.019L18.309 24.0368L18.2903 24.0556L18.2724 24.0739L18.256 24.0922L18.2377 24.1109L18.2253 24.1334C18.2152 24.1484 18.2047 24.1631 18.1942 24.1791C18.1805 24.1791 18.1754 24.1832 18.1764 24.1965L18.1553 24.212L18.1265 24.2262C18.1265 24.2349 18.1192 24.2477 18.1361 24.25C18.1375 24.2499 18.1388 24.2495 18.14 24.2487C18.1411 24.2479 18.142 24.2467 18.1425 24.2454C18.1443 24.2294 18.1361 24.2253 18.1233 24.2253ZM18.4051 23.9668L18.4248 23.9439L18.4294 23.9234L18.4129 23.9325L18.3937 23.9508C18.3854 23.9568 18.3749 23.9636 18.3859 23.9746C18.3864 23.9764 18.3987 23.9696 18.4051 23.9668ZM18.8063 23.1392C18.8088 23.1392 18.8112 23.1387 18.8135 23.1377C18.8157 23.1368 18.8177 23.1354 18.8195 23.1337C18.8212 23.1319 18.8225 23.1298 18.8234 23.1276C18.8243 23.1253 18.8247 23.1229 18.8246 23.1204L18.8429 23.1017C18.8516 23.0966 18.869 23.0939 18.8562 23.0797C18.8434 23.0655 18.8375 23.0834 18.8301 23.0907L18.8123 23.1094L18.794 23.1282L18.778 23.1479C18.7661 23.1607 18.7542 23.1735 18.7428 23.1868C18.7359 23.1932 18.7194 23.1973 18.7363 23.2096C18.7363 23.2096 18.746 23.2005 18.751 23.1955C18.7603 23.1938 18.7688 23.1893 18.7755 23.1826C18.7821 23.1759 18.7865 23.1673 18.788 23.1579C18.7981 23.1575 18.8054 23.1511 18.8063 23.1392ZM18.8882 23.0559L18.907 23.0376L18.9253 23.0179L18.9427 22.9978L19.0118 22.9187L19.0301 22.8999L19.0484 22.8811L19.0662 22.8615C19.0749 22.856 19.0937 22.8523 19.0795 22.8381C19.0653 22.824 19.0598 22.8413 19.0529 22.85L19.0328 22.8693L19.0154 22.8876L19.0003 22.9068C18.9712 22.9271 18.9475 22.9543 18.9312 22.9859L18.9129 23.0051L18.8951 23.0243L18.8773 23.0436C18.8686 23.0486 18.8507 23.0513 18.8626 23.0655C18.8745 23.0797 18.8809 23.0632 18.8896 23.0559H18.8882ZM19.111 22.8176L19.1316 22.7956L19.1476 22.7773L19.1655 22.7572L19.1847 22.7393C19.2094 22.6959 19.2424 22.7183 19.2725 22.7302C19.6189 22.8674 19.9638 23.0106 20.3116 23.1451C20.5339 23.2316 20.7604 23.3075 20.9978 23.3922C20.9937 23.3464 20.9923 23.3204 20.9887 23.2934C20.91 22.7343 20.8319 22.1757 20.7544 21.6175C20.7343 21.472 20.7366 21.472 20.8725 21.408C21.313 21.2007 21.7596 21.0067 22.2098 20.8196C22.3201 20.7761 22.4265 20.7231 22.5277 20.6613C22.5174 20.6523 22.5062 20.6443 22.4943 20.6375C21.8506 20.3552 21.2234 20.0373 20.5728 19.7756C20.5133 19.7518 20.4904 19.7225 20.4955 19.6617C20.5046 19.5601 20.5037 19.4576 20.5174 19.357C20.5915 18.8121 20.6323 18.264 20.6899 17.7177L20.6876 17.6953L20.6762 17.7053C20.6672 17.7069 20.6585 17.7095 20.6501 17.7131C20.2672 17.9574 19.8774 18.1862 19.4844 18.4108C19.4153 18.4502 19.37 18.4488 19.3146 18.3939C19.1001 18.1807 18.8818 17.9707 18.6673 17.7575C18.4884 17.5791 18.3127 17.3974 18.1274 17.2085C18.1146 17.2501 18.1068 17.2735 18.1004 17.2968C17.9519 17.8458 17.803 18.396 17.6539 18.9475C17.6484 18.9838 17.6307 19.0171 17.6038 19.0421C17.5769 19.067 17.5423 19.082 17.5056 19.0847C16.9188 19.1685 16.3279 19.2219 15.7355 19.2449C15.7086 19.2449 15.6715 19.2316 15.6578 19.2572C15.6399 19.2915 15.6816 19.3094 15.7003 19.329C16.0401 19.6838 16.3811 20.0368 16.7233 20.3882C16.7691 20.4362 16.7727 20.4637 16.7343 20.5177C16.3637 21.0337 15.995 21.5512 15.628 22.07C15.6157 22.0878 15.5873 22.102 15.6029 22.1354C16.0759 22.167 16.5504 22.1976 17.0243 22.2306C17.2709 22.248 17.5166 22.2727 17.7632 22.2859C17.8282 22.2896 17.8442 22.3093 17.8469 22.3697C17.8707 22.8661 17.9041 23.3624 17.9531 23.857C17.9558 23.8813 17.9417 23.9133 17.976 23.9279C17.9824 23.9261 17.9884 23.9231 17.9938 23.9192C18.3379 23.5185 18.7304 23.163 19.0804 22.7677C19.1002 22.7401 19.1248 22.7164 19.1531 22.6977C19.1952 22.6753 19.1783 22.7091 19.1742 22.7279L19.1559 22.7462L19.1371 22.7649L19.1188 22.7837L19.1005 22.8025C19.0914 22.807 19.0767 22.8107 19.0868 22.8244C19.0969 22.8381 19.1033 22.824 19.111 22.8176ZM19.2341 17.9451C19.2286 17.94 19.2199 17.9304 19.2186 17.9309C19.203 17.9428 19.2186 17.9478 19.2245 17.9547L19.2433 17.9734L19.278 18.0132C19.298 18.0425 19.3271 18.0644 19.3608 18.0755C19.3548 18.0589 19.3454 18.0438 19.3334 18.0309C19.3214 18.018 19.3069 18.0077 19.2908 18.0004C19.2886 17.9914 19.2839 17.9832 19.2773 17.9767C19.2707 17.9701 19.2624 17.9655 19.2533 17.9634C19.2533 17.9609 19.2527 17.9585 19.2517 17.9562C19.2507 17.954 19.2493 17.9519 19.2475 17.9502C19.2457 17.9486 19.2436 17.9472 19.2413 17.9463C19.239 17.9454 19.2366 17.945 19.2341 17.9451ZM20.6066 17.5082C20.6108 17.5018 20.6195 17.4912 20.6181 17.4894C20.6076 17.4757 20.5989 17.4867 20.5902 17.494C20.5815 17.5013 20.5778 17.5118 20.5797 17.5141C20.5925 17.5269 20.6007 17.5178 20.6085 17.5082H20.6066ZM20.0032 17.8774L19.9625 17.8989C19.9487 17.9089 19.9167 17.9117 19.9254 17.93C19.9414 17.9565 19.9606 17.93 19.9762 17.9167L20.0137 17.8975C20.0224 17.8934 20.037 17.8916 20.0297 17.8769C20.0224 17.8623 20.0137 17.8733 20.005 17.8774H20.0032ZM19.6765 23.1561C19.6848 23.1822 19.7095 23.1753 19.7273 23.1813C19.7557 23.195 19.7795 23.227 19.8188 23.2037C19.8084 23.192 19.7951 23.1831 19.7803 23.1778C19.7656 23.1725 19.7497 23.171 19.7342 23.1735C19.72 23.1515 19.698 23.1566 19.677 23.157C19.674 23.1502 19.6685 23.1447 19.6616 23.1416C19.6548 23.1386 19.647 23.1382 19.6399 23.1406C19.6376 23.1406 19.6363 23.1483 19.6349 23.1525L19.6765 23.1561ZM20.1706 17.7744L20.1135 17.8106C20.1043 17.8156 20.0892 17.8197 20.0993 17.8344C20.1093 17.849 20.1189 17.8344 20.1285 17.8312L20.1931 17.7927C20.2123 17.7813 20.2388 17.7776 20.2388 17.747C20.2072 17.7378 20.1894 17.757 20.1706 17.7744ZM20.409 17.6166L20.3527 17.655L20.2612 17.7172C20.2521 17.7232 20.2374 17.7278 20.2475 17.7419C20.2576 17.7561 20.2672 17.7419 20.2768 17.7387L20.3683 17.6765L20.4236 17.6395C20.441 17.6303 20.4731 17.6253 20.4543 17.5987C20.4451 17.5832 20.4236 17.607 20.4095 17.617L20.409 17.6166ZM15.6793 21.8669C15.6121 21.942 15.5539 22.0248 15.5059 22.1134L15.5301 22.1299L15.6939 21.881C15.7069 21.8735 15.7172 21.8621 15.7233 21.8483C15.7294 21.8346 15.7309 21.8193 15.7278 21.8046L15.6793 21.8669ZM20.9049 18.9182C20.8995 19.1282 20.8651 19.3377 20.9004 19.5482C20.9095 19.339 20.9188 19.1297 20.9283 18.9205C20.945 18.8162 20.9427 18.7097 20.9214 18.6062L20.9049 18.9182ZM17.8396 23.399C17.8286 23.1422 17.8175 22.8857 17.8062 22.6295C17.827 22.5606 17.8244 22.4868 17.7989 22.4195C17.7858 22.4869 17.7834 22.5559 17.7916 22.624C17.7692 22.8821 17.8273 23.1378 17.8099 23.3954C17.8127 23.501 17.8281 23.6059 17.8556 23.7079C17.8685 23.604 17.8633 23.4988 17.8401 23.3968L17.8396 23.399ZM17.7307 23.0033C17.7207 22.8606 17.7111 22.7178 17.701 22.5755L17.6726 22.5778C17.6775 22.7205 17.6971 22.8624 17.7312 23.001L17.7307 23.0033ZM21.1387 21.3888C21.2148 21.3854 21.2875 21.3563 21.3451 21.3064C21.2699 21.3137 21.1983 21.3423 21.1387 21.3888ZM20.8185 17.7676C20.8121 17.8348 20.7773 17.8989 20.7951 17.9785C20.85 17.9076 20.8208 17.8362 20.8166 17.7676H20.8185ZM17.5056 18.7983C17.5377 18.7397 17.549 18.672 17.5377 18.6062C17.5073 18.6654 17.4955 18.7323 17.5038 18.7983H17.5056ZM20.8912 22.0229C20.8839 22.0509 20.8823 22.0802 20.8866 22.1089C20.891 22.1376 20.9011 22.1652 20.9164 22.1899C20.926 22.1325 20.9157 22.0735 20.8871 22.0229H20.8912ZM22.4467 20.5314C22.4925 20.5639 22.536 20.5963 22.5959 20.5858C22.5525 20.5495 22.4974 20.5302 22.4408 20.5314H22.4467ZM20.0631 17.8737C20.081 17.8682 20.0915 17.8595 20.0933 17.8435C20.0933 17.8435 20.0768 17.8367 20.0714 17.8399C20.0624 17.8461 20.0545 17.8539 20.048 17.8627L20.0631 17.8737ZM20.5289 17.5663C20.5161 17.5635 20.5069 17.5585 20.5019 17.5612C20.4968 17.564 20.4795 17.5745 20.4785 17.5832C20.4763 17.5992 20.4914 17.5974 20.5005 17.5923C20.5088 17.5844 20.5163 17.5757 20.5229 17.5663H20.5289ZM20.5572 17.5603C20.5636 17.5524 20.569 17.5438 20.5732 17.5347C20.5783 17.5219 20.5641 17.5201 20.5591 17.5223C20.5485 17.527 20.5394 17.5347 20.533 17.5443C20.5206 17.5557 20.5334 17.5553 20.5513 17.5603H20.5572ZM22.4138 20.5222C22.4257 20.5167 22.4257 20.5126 22.4175 20.5094C22.4129 20.5067 22.4077 20.5054 22.4024 20.5058C22.4024 20.5058 22.3987 20.5131 22.3964 20.5167L22.4138 20.5222ZM21.3867 21.3023L21.4027 21.294C21.3977 21.2913 21.3926 21.2863 21.3876 21.2863C21.3826 21.2863 21.3775 21.2913 21.3721 21.2936L21.3867 21.3023Z" fill="#060505"/>
<path d="M15.8681 19.959L15.8506 19.9391L15.8572 19.932C15.8597 19.9319 15.8623 19.9323 15.8647 19.9332C15.867 19.9341 15.8692 19.9355 15.871 19.9373C15.8729 19.939 15.8743 19.9412 15.8753 19.9435C15.8762 19.9459 15.8767 19.9484 15.8766 19.951L15.8681 19.959Z" fill="#060505"/>
<path d="M15.8866 19.9778L15.8672 19.9584L15.8757 19.9503C15.8782 19.9503 15.8808 19.9507 15.8831 19.9517C15.8855 19.9526 15.8876 19.9541 15.8894 19.9559C15.8912 19.9577 15.8926 19.9599 15.8935 19.9623C15.8944 19.9647 15.8947 19.9672 15.8946 19.9697C15.8918 19.9712 15.8889 19.9749 15.8866 19.9778Z" fill="#060505"/>
<path d="M15.9042 19.9989L15.8862 19.9771C15.8862 19.9743 15.8914 19.9719 15.8943 19.9691C15.8968 19.9689 15.8994 19.9692 15.9018 19.9701C15.9042 19.971 15.9064 19.9724 15.9083 19.9742C15.9101 19.9759 15.9115 19.9781 15.9125 19.9805C15.9134 19.9829 15.9138 19.9855 15.9137 19.988C15.9103 19.9914 15.9071 19.9951 15.9042 19.9989Z" fill="#060505"/>
<path d="M15.9213 20.0172L15.9033 19.9992C15.9062 19.9954 15.9094 19.9917 15.9128 19.9883C15.9153 19.9882 15.9179 19.9887 15.9202 19.9897C15.9226 19.9906 15.9247 19.9921 15.9265 19.9939C15.9283 19.9957 15.9296 19.9979 15.9305 20.0002C15.9314 20.0026 15.9318 20.0052 15.9317 20.0077C15.9285 20.0111 15.925 20.0143 15.9213 20.0172Z" fill="#060505"/>
<path d="M15.851 19.9398L15.834 19.9171L15.8387 19.9133C15.8413 19.9131 15.8438 19.9136 15.8462 19.9145C15.8486 19.9154 15.8508 19.9168 15.8526 19.9187C15.8544 19.9205 15.8558 19.9227 15.8566 19.9251C15.8575 19.9276 15.8578 19.9301 15.8576 19.9327L15.851 19.9398Z" fill="#060505"/>
<path d="M21.5887 12.6801C21.5956 12.4632 21.7223 12.3287 21.8893 12.3465C21.9543 12.354 22.0146 12.3838 22.0599 12.4309C22.1052 12.478 22.1328 12.5394 22.1377 12.6046C22.1437 12.6865 22.0357 12.7876 21.909 12.8155C21.7717 12.8461 21.6208 12.8063 21.5919 12.7304C21.588 12.7139 21.5869 12.6969 21.5887 12.6801Z" fill="#F8F2EA"/>
<path d="M10.2067 19.4109C10.0814 19.4109 9.99306 19.335 10.0027 19.2366C10.0027 19.1993 10.0149 19.163 10.0374 19.1333C10.06 19.1036 10.0916 19.082 10.1276 19.0719C10.2026 19.0509 10.258 19.0879 10.3042 19.1424C10.3197 19.1614 10.3325 19.1825 10.3421 19.2051C10.4021 19.3368 10.3517 19.4132 10.2067 19.4109Z" fill="#F8F2EA"/>
<path d="M11.9773 22.7229C11.9361 22.7032 11.8597 22.7283 11.8574 22.6451C11.8574 22.5705 11.9626 22.4621 12.0299 22.4648C12.0664 22.4717 12.0993 22.4911 12.1229 22.5196C12.1466 22.5482 12.1595 22.5842 12.1594 22.6213C12.1557 22.6721 12.0628 22.7251 11.9773 22.7229Z" fill="#F8F2EA"/>
<path d="M5.98784 19.8968C5.89634 19.8968 5.85059 19.8598 5.85059 19.7847C5.85059 19.6932 5.9215 19.599 5.98784 19.6017C6.02735 19.6085 6.0637 19.6276 6.09171 19.6563C6.11973 19.685 6.13797 19.7217 6.14385 19.7614C6.14019 19.841 6.07934 19.8964 5.98784 19.8968Z" fill="#F8F2EA"/>
<path d="M19.3384 10.8981C19.3018 10.8866 19.2469 10.8981 19.2496 10.8249C19.2524 10.7517 19.3283 10.6464 19.3924 10.6419C19.4227 10.645 19.4512 10.6582 19.4732 10.6793C19.4953 10.7004 19.5096 10.7283 19.5141 10.7585C19.5168 10.8203 19.4235 10.8958 19.3384 10.8981Z" fill="#F8F2EA"/>
<path d="M21.0665 15.1753C21.0098 15.1662 20.9517 15.1639 20.9517 15.0838C20.9517 15.0038 21.0029 14.942 21.0656 14.9438C21.0989 14.9484 21.1298 14.9639 21.1534 14.988C21.177 15.012 21.1919 15.0431 21.196 15.0765C21.1919 15.1584 21.1251 15.1666 21.0665 15.1753Z" fill="#F8F2EA"/>
<path d="M11.9694 8.68464C12.0808 8.7888 12.181 8.90442 12.2681 9.0296C12.6827 9.59691 13.1097 10.1542 13.5492 10.7013C13.6494 10.8267 13.6507 10.8276 13.8054 10.7663C14.5069 10.4881 15.2084 10.2095 15.9099 9.93043C16.0133 9.88926 16.0133 9.8888 16.0042 9.99723C15.9352 10.7988 15.8657 11.6006 15.7955 12.4028C15.7874 12.4439 15.7939 12.4866 15.8138 12.5234C15.8338 12.5602 15.866 12.589 15.9049 12.6046C16.4232 12.8901 16.9379 13.1829 17.443 13.4917C17.5583 13.5621 17.6837 13.617 17.804 13.6797C17.8251 13.6902 17.858 13.6948 17.8553 13.7255C17.8525 13.7561 17.8191 13.7525 17.7971 13.7602C17.1516 13.9853 16.5019 14.199 15.845 14.3907C15.7045 14.4319 15.7077 14.4323 15.731 14.5705C15.7965 14.9694 15.8532 15.3698 15.925 15.7673C15.9969 16.1649 16.0751 16.5739 16.1414 16.9784C16.1698 17.1513 16.2009 17.3238 16.2329 17.51C16.1652 17.4857 16.1057 17.4642 16.0499 17.4427C15.4991 17.2262 14.9482 17.0092 14.3974 16.7917C14.154 16.6952 13.9106 16.5982 13.6704 16.4939C13.5986 16.4628 13.5707 16.4824 13.5332 16.5396C13.1617 17.1332 12.7886 17.7255 12.4141 18.3166C12.4017 18.3363 12.3963 18.371 12.3683 18.3692C12.3404 18.3674 12.3331 18.3312 12.3263 18.3056C12.1519 17.6427 11.9104 17.0022 11.6899 16.3543C11.6303 16.1892 11.5614 16.0276 11.4835 15.8703C11.4378 15.7696 11.3325 15.7884 11.2474 15.7902C10.3645 15.8081 9.48146 15.8296 8.59846 15.8492C8.56968 15.8539 8.54019 15.8474 8.51611 15.8309C8.58538 15.7511 8.65 15.6674 8.70964 15.5802C9.04454 15.1209 9.38172 14.6634 9.69374 14.1885C9.80858 14.0132 9.90831 13.8284 10.0204 13.6514C10.0565 13.5942 10.0204 13.5699 9.99112 13.5356C9.54505 13.058 9.08434 12.5945 8.60029 12.1301L9.14473 12.0528L11.2346 11.7568L11.2712 11.7513C11.4186 11.7239 11.4199 11.7239 11.4401 11.5775C11.5316 10.8981 11.6848 10.2301 11.8061 9.55619C11.8573 9.27116 11.9127 8.98659 11.9694 8.68464ZM13.1109 14.9836C13.9344 15.0115 14.472 14.3125 14.4898 13.6344C14.5095 12.864 13.9092 12.1741 13.1173 12.1498C12.3002 12.1251 11.699 12.6956 11.6812 13.4793C11.6647 14.2434 12.329 15.006 13.1109 14.9836Z" fill="#F8F2EA"/>
<path d="M16.1196 14.3738C16.5511 14.2694 16.9738 14.1363 17.3975 14.005C17.4286 13.9949 17.4588 13.9734 17.4981 13.9954C17.0466 14.1554 16.5869 14.2911 16.121 14.4021L16.1196 14.3738Z" fill="#F8F2EA"/>
<path d="M10.0771 11.4274L11.0324 11.2366L11.0388 11.2664C10.7245 11.3601 10.396 11.3876 10.0781 11.4562L10.0771 11.4274Z" fill="#F8F2EA"/>
<path d="M16.8023 13.036C16.4743 12.8708 16.1563 12.6888 15.8452 12.4929C16.1753 12.654 16.4971 12.8318 16.8092 13.0255C16.8074 13.0291 16.8046 13.0323 16.8023 13.036Z" fill="#F8F2EA"/>
<path d="M15.6978 17.3952C15.8913 17.4359 16.0683 17.5201 16.2468 17.6006C16.0427 17.5914 15.8766 17.4757 15.6978 17.3952Z" fill="#F8F2EA"/>
<path d="M17.9322 13.2236L18.6184 13.5974L18.6075 13.618C18.3728 13.5022 18.1468 13.37 17.9185 13.2419L17.9322 13.2236Z" fill="#F8F2EA"/>
<path d="M9.37354 14.0686C9.42844 13.9771 9.48288 13.8829 9.53778 13.7904L9.56203 13.8055C9.52589 13.9098 9.45314 13.9917 9.39504 14.0828L9.37354 14.0686Z" fill="#F8F2EA"/>
<path d="M16.1216 14.5339L16.5333 14.4026C16.4089 14.4854 16.2675 14.5174 16.1316 14.5659L16.1216 14.5339Z" fill="#726D6C"/>
<path d="M8.6499 11.9384C8.76702 11.8977 8.88415 11.8593 9.0095 11.8964C8.8913 11.9221 8.77086 11.9362 8.6499 11.9384Z" fill="#726D6C"/>
<path d="M10.7886 16.0396L11.1431 16.0181V16.0492H10.7918L10.7886 16.0396Z" fill="#726D6C"/>
<path d="M11.3906 16.2683C11.4363 16.3382 11.4661 16.4173 11.4776 16.5001C11.4433 16.424 11.398 16.3526 11.3906 16.2683Z" fill="#F8F2EA"/>
<path d="M10.0771 11.4274V11.4562C9.97694 11.4773 9.87811 11.5116 9.77197 11.4823L10.0771 11.4274Z" fill="#726D6C"/>
<path d="M16.1199 14.3738V14.4021L15.8385 14.4685L15.833 14.4456L16.1199 14.3738Z" fill="#726D6C"/>
<path d="M16.2819 11.6246C16.2741 11.7216 16.2663 11.819 16.2576 11.9252C16.2361 11.7998 16.2412 11.695 16.2819 11.6246Z" fill="#726D6C"/>
<path d="M8.86688 12.7594C8.8036 12.712 8.74515 12.6584 8.69238 12.5996L8.70246 12.5899C8.76695 12.6353 8.82556 12.6886 8.87696 12.7484L8.86688 12.7594Z" fill="#F8F2EA"/>
<path d="M14.9307 17.0955C15.0044 17.1033 15.0159 17.1092 15.1102 17.1802C15.0436 17.1695 14.9813 17.1401 14.9307 17.0955Z" fill="#F8F2EA"/>
<path d="M16.0468 10.9029C16.0033 10.8378 16.0033 10.8378 16.0468 10.6922V10.9029Z" fill="#726D6C"/>
<path d="M11.8237 8.82208L11.8521 8.64529C11.8819 8.70712 11.8448 8.76437 11.8485 8.82391C11.8402 8.81979 11.8324 8.812 11.8237 8.82208Z" fill="#F8F2EA"/>
<path d="M9.22928 13.1432C9.18344 13.1035 9.14267 13.0583 9.10791 13.0086C9.11051 13.0076 9.11286 13.006 9.11484 13.004C9.11681 13.0021 9.11835 12.9997 9.11936 12.9971C9.17128 13.0274 9.21462 13.0705 9.24531 13.1222L9.22928 13.1432Z" fill="#726D6C"/>
<path d="M11.8239 8.82189C11.8326 8.81182 11.8403 8.82189 11.8486 8.82189C11.8465 8.89199 11.831 8.96103 11.8028 9.02524C11.7863 8.95151 11.8115 8.88739 11.8239 8.82189Z" fill="#726D6C"/>
<path d="M13.3381 10.1976C13.3688 10.2333 13.4 10.2686 13.4297 10.3039C13.3702 10.2952 13.3533 10.2475 13.3271 10.2086L13.3381 10.1976Z" fill="#F8F2EA"/>
<path d="M8.62581 12.537C8.58829 12.5138 8.55499 12.4843 8.52734 12.4499L8.53559 12.4412C8.57527 12.4617 8.60974 12.491 8.63635 12.5269C8.63262 12.53 8.6291 12.5334 8.62581 12.537Z" fill="#F8F2EA"/>
<path d="M17.8622 13.1994C17.837 13.1969 17.8127 13.1892 17.7907 13.1766C17.7688 13.1641 17.7498 13.147 17.7349 13.1266C17.7603 13.1279 17.7851 13.1351 17.8072 13.1478C17.8294 13.1604 17.8482 13.1781 17.8622 13.1994Z" fill="#726D6C"/>
<path d="M13.0815 18.0086C13.0795 18.0194 13.0749 18.0297 13.0681 18.0384C13.0612 18.0471 13.0524 18.054 13.0424 18.0586C13.0233 18.0263 13.0529 18.0131 13.0647 17.9908L13.0815 18.0086Z" fill="#726D6C"/>
<path d="M13.3282 10.2082L13.2886 10.155C13.2924 10.1513 13.2961 10.1473 13.2995 10.1432C13.3095 10.1488 13.3181 10.1566 13.3247 10.1659C13.3313 10.1753 13.3358 10.186 13.3377 10.1973L13.3282 10.2082Z" fill="#F8F2EA"/>
<path d="M13.2375 17.7716C13.2266 17.7907 13.2225 17.8171 13.1952 17.823C13.1801 17.7916 13.2043 17.7775 13.2202 17.758L13.2375 17.7716Z" fill="#726D6C"/>
<path d="M13.1387 17.8817C13.15 17.863 13.1532 17.8362 13.1842 17.8316C13.1987 17.863 13.1742 17.8771 13.1578 17.8967L13.1387 17.8817Z" fill="#726D6C"/>
<path d="M17.9166 13.2421C17.8918 13.2421 17.8601 13.2278 17.8748 13.204C17.8895 13.1801 17.9153 13.2076 17.9323 13.2237L17.9166 13.2421Z" fill="#726D6C"/>
<path d="M13.2516 10.0659C13.2455 10.0867 13.2355 10.0773 13.228 10.0659C13.2204 10.0546 13.228 10.056 13.228 10.0503L13.2469 10.0654L13.2516 10.0659Z" fill="#F8F2EA"/>
<path d="M13.2888 10.1553C13.2755 10.1415 13.2604 10.1291 13.2613 10.1094L13.2728 10.1011L13.2999 10.147C13.2963 10.15 13.2927 10.1527 13.2888 10.1553Z" fill="#F8F2EA"/>
<path d="M8.87684 12.7482C8.89297 12.7588 8.92293 12.7731 8.90634 12.7906C8.88974 12.8081 8.87453 12.7782 8.8667 12.7593L8.87684 12.7482Z" fill="#F8F2EA"/>
<path d="M13.1564 17.8971C13.1514 17.9155 13.1353 17.9431 13.1238 17.9329C13.099 17.9141 13.1293 17.8985 13.139 17.8819L13.1564 17.8971Z" fill="#726D6C"/>
<path d="M9.07232 12.9621C9.06294 12.9606 9.05425 12.9563 9.04742 12.9498C9.04059 12.9432 9.03597 12.9346 9.03418 12.9253L9.04475 12.9157L9.08334 12.9515C9.07934 12.9547 9.07565 12.9582 9.07232 12.9621Z" fill="#F8F2EA"/>
<path d="M12.735 18.5603C12.6889 18.5626 12.6848 18.546 12.7157 18.5142L12.7276 18.5244C12.7276 18.5368 12.7212 18.5502 12.735 18.5594V18.5603Z" fill="#726D6C"/>
<path d="M13.2625 10.1078C13.2441 10.0977 13.228 10.0866 13.2515 10.0654H13.2492L13.274 10.0981L13.2625 10.1078Z" fill="#F8F2EA"/>
<path d="M8.83182 15.1669C8.82972 15.1633 8.82838 15.1593 8.82787 15.1551C8.82736 15.1509 8.82769 15.1467 8.82885 15.1426C8.83002 15.1386 8.83198 15.1348 8.83463 15.1316C8.83728 15.1283 8.84055 15.1256 8.84427 15.1236L8.85856 15.1374C8.85302 15.1504 8.84795 15.1637 8.8309 15.166L8.83182 15.1669Z" fill="#726D6C"/>
<path d="M12.7513 18.4942L12.7273 18.5255L12.7153 18.5154L12.7388 18.4813L12.7513 18.4942Z" fill="#726D6C"/>
<path d="M16.8091 13.0255L16.8353 13.0457C16.8202 13.0576 16.8091 13.0535 16.8022 13.0361C16.8045 13.0324 16.8073 13.0292 16.8091 13.0255Z" fill="#F8F2EA"/>
<path d="M17.6202 13.0543L17.5938 13.0501L17.5999 13.0397L17.6193 13.0553L17.6202 13.0543Z" fill="#726D6C"/>
<path d="M8.96214 12.8234C8.95476 12.828 8.95937 12.8446 8.94508 12.8372C8.93803 12.8326 8.93125 12.8275 8.9248 12.822C8.93034 12.8179 8.9248 12.8017 8.94001 12.8091C8.94763 12.8135 8.95502 12.8182 8.96214 12.8234Z" fill="#F8F2EA"/>
<path d="M13.2725 17.6804L13.2955 17.6472L13.3075 17.6592C13.3001 17.6707 13.2932 17.6823 13.2863 17.6938L13.2725 17.6804Z" fill="#726D6C"/>
<path d="M8.92693 15.0408C8.92852 15.0483 8.92757 15.0561 8.92423 15.0629C8.92089 15.0698 8.91535 15.0753 8.90849 15.0786C8.90481 15.074 8.90066 15.0699 8.89697 15.0657C8.90158 15.0528 8.90665 15.039 8.92324 15.0372L8.92693 15.0408Z" fill="#726D6C"/>
<path d="M13.1063 17.9753L13.0819 18.0089L13.0649 17.991C13.0732 17.9809 13.081 17.9708 13.0888 17.9602L13.1063 17.9753Z" fill="#726D6C"/>
<path d="M13.2363 17.7367L13.2585 17.7031L13.2732 17.7164L13.2492 17.7496L13.2363 17.7367Z" fill="#726D6C"/>
<path d="M13.335 17.5955L13.3425 17.5699L13.3534 17.5784L13.3369 17.5974L13.335 17.5955Z" fill="#726D6C"/>
<path d="M17.5449 13.0166L17.5366 13.0122L17.5439 13.0176L17.5449 13.0166Z" fill="#726D6C"/>
<path d="M17.5435 13.0164L17.5506 13.0187L17.5444 13.0154L17.5435 13.0164Z" fill="#726D6C"/>
<path d="M17.6398 13.0749C17.6265 13.0749 17.6178 13.0687 17.6193 13.0539C17.6321 13.0539 17.6419 13.059 17.6403 13.0744L17.6398 13.0749Z" fill="#726D6C"/>
<path d="M17.6372 13.0731L17.6501 13.0781C17.639 13.0915 17.6404 13.0781 17.6377 13.0726L17.6372 13.0731Z" fill="#726D6C"/>
<path d="M17.7215 13.1078C17.7242 13.1119 17.7263 13.1164 17.7276 13.1212C17.7276 13.1212 17.7235 13.1253 17.721 13.1273C17.7186 13.1231 17.7167 13.1186 17.7153 13.114C17.7153 13.114 17.7194 13.1119 17.7215 13.1078Z" fill="#726D6C"/>
<path d="M9.24562 13.122L9.2636 13.1418L9.25254 13.1617L9.22949 13.1428L9.24562 13.122Z" fill="#726D6C"/>
<path d="M8.69284 12.6005C8.68622 12.5938 8.66967 12.5877 8.68244 12.5763C8.69521 12.565 8.69899 12.5815 8.70325 12.5905L8.69284 12.6005Z" fill="#F8F2EA"/>
<path d="M9.2647 13.1417L9.27492 13.1621H9.25244L9.2647 13.1417Z" fill="#726D6C"/>
<path d="M9.01583 12.9071L8.99609 12.8892L9.00711 12.8731L9.02868 12.8961C9.0241 12.8994 9.0198 12.9031 9.01583 12.9071Z" fill="#F8F2EA"/>
<path d="M15.7988 14.4731C15.7988 14.4731 15.7947 14.4772 15.7929 14.4767C15.791 14.4763 15.7892 14.4735 15.7878 14.4717C15.7864 14.4698 15.7919 14.4676 15.7938 14.468C15.7956 14.4685 15.797 14.4712 15.7988 14.4731Z" fill="#726D6C"/>
<path d="M8.92334 15.0387L8.93513 15.0239C8.94743 15.0362 8.9382 15.0398 8.92744 15.0423L8.92334 15.0387Z" fill="#726D6C"/>
<path d="M8.90908 15.0784L8.89203 15.0982L8.87451 15.0835L8.89756 15.0655C8.90124 15.0697 8.90539 15.0752 8.90908 15.0784Z" fill="#726D6C"/>
<path d="M8.85986 15.1032L8.87461 15.0834L8.89213 15.0981L8.87507 15.1184L8.85986 15.1032Z" fill="#726D6C"/>
<path d="M8.84424 15.1252L8.85991 15.103L8.87512 15.1182L8.85853 15.139L8.84424 15.1252Z" fill="#726D6C"/>
<path d="M8.8307 15.1666L8.82102 15.1791C8.8155 15.1671 8.82103 15.1639 8.83162 15.1676L8.8307 15.1666Z" fill="#726D6C"/>
<path d="M12.6813 18.5856L12.6768 18.5878L12.6772 18.5829L12.6813 18.5856Z" fill="#726D6C"/>
<path d="M13.2583 17.7032L13.2726 17.6802L13.2864 17.6935L13.273 17.7166L13.2583 17.7032Z" fill="#726D6C"/>
<path d="M8.46274 12.3882L8.44531 12.3739C8.44839 12.3739 8.45197 12.3698 8.45454 12.3708C8.46581 12.3739 8.46837 12.3805 8.4612 12.3903L8.46274 12.3882Z" fill="#F8F2EA"/>
<path d="M12.7673 18.4727C12.7623 18.4801 12.7567 18.4875 12.7512 18.4944L12.7388 18.4815L12.7526 18.4566L12.7673 18.4727Z" fill="#726D6C"/>
<path d="M8.47844 12.4076L8.46094 12.3863C8.46853 12.3861 8.4761 12.3873 8.48317 12.3901C8.49641 12.3991 8.47986 12.4024 8.47844 12.409V12.4076Z" fill="#F8F2EA"/>
<path d="M13.2493 17.7494C13.2456 17.7567 13.2414 17.7641 13.2377 17.7719L13.2202 17.7581C13.2257 17.7512 13.2313 17.7438 13.2363 17.7365L13.2493 17.7494Z" fill="#726D6C"/>
<path d="M12.7524 18.4569C12.7591 18.4532 12.7699 18.4442 12.7723 18.4461C12.7846 18.456 12.7761 18.4655 12.7676 18.4735L12.7524 18.4569Z" fill="#726D6C"/>
<path d="M8.47607 12.4107C8.4814 12.4039 8.48673 12.3952 8.49642 12.4039C8.50611 12.4127 8.49642 12.4146 8.49642 12.4199L8.47607 12.4073V12.4107Z" fill="#F8F2EA"/>
<path d="M13.2954 17.6477C13.3002 17.6424 13.3052 17.6374 13.3105 17.6326C13.3228 17.6425 13.3153 17.6515 13.3077 17.66L13.2954 17.6477Z" fill="#726D6C"/>
<path d="M12.7931 18.4283L12.7803 18.4211C12.7803 18.4211 12.7854 18.4144 12.7869 18.4149C12.7916 18.4165 12.7961 18.4185 12.8003 18.4211L12.7931 18.4283Z" fill="#726D6C"/>
<path d="M8.52806 12.4508C8.51955 12.4437 8.50205 12.4394 8.52002 12.4257C8.52595 12.4306 8.53149 12.436 8.53657 12.4418L8.52806 12.4508Z" fill="#F8F2EA"/>
<path d="M8.63685 12.5268C8.64395 12.5334 8.66097 12.5386 8.64773 12.5509C8.63449 12.5632 8.63071 12.5462 8.62598 12.5372C8.62937 12.5335 8.633 12.53 8.63685 12.5268Z" fill="#F8F2EA"/>
<path d="M13.3367 17.5964L13.3313 17.6102L13.3237 17.6035L13.3349 17.5946L13.3367 17.5964Z" fill="#726D6C"/>
<path d="M8.97712 12.8714C8.96885 12.865 8.95048 12.8609 8.96472 12.8471C8.97896 12.8333 8.98356 12.8544 8.99275 12.8599L8.97712 12.8714Z" fill="#F8F2EA"/>
<path d="M8.99273 12.8599L9.00702 12.8732L8.99596 12.8894L8.97705 12.8714L8.99273 12.8599Z" fill="#F8F2EA"/>
<path d="M9.03454 12.9258C9.02177 12.9258 9.01657 12.9187 9.01562 12.9069C9.01971 12.9028 9.02414 12.899 9.02887 12.8955C9.03407 12.9026 9.03975 12.9093 9.04542 12.9159L9.03454 12.9258Z" fill="#F8F2EA"/>
<path d="M13.0889 17.9603C13.0948 17.9524 13.0976 17.9359 13.1118 17.9469C13.1261 17.958 13.1118 17.9667 13.1059 17.9754L13.0889 17.9603Z" fill="#726D6C"/>
<path d="M9.08283 12.9514L9.09846 12.9725L9.08835 12.9822C9.0764 12.9822 9.07135 12.9739 9.07181 12.9619C9.07514 12.9581 9.07883 12.9545 9.08283 12.9514Z" fill="#F8F2EA"/>
<path d="M9.09901 12.9706L9.12021 12.9955C9.11919 12.9981 9.11764 13.0005 9.11566 13.0024C9.11367 13.0044 9.1113 13.006 9.10869 13.007L9.08887 12.9803L9.09901 12.9706Z" fill="#F8F2EA"/>
<path d="M20.6881 17.7159C20.6305 18.2621 20.5898 18.8102 20.5156 19.3551C20.5019 19.4558 20.5028 19.5583 20.4937 19.6598C20.4886 19.7207 20.5115 19.7513 20.571 19.7737C21.2234 20.0354 21.852 20.3534 22.4925 20.6357C22.5044 20.6425 22.5156 20.6505 22.5259 20.6595C22.4247 20.7213 22.3183 20.7743 22.208 20.8178C21.7578 21.0049 21.3112 21.1989 20.8707 21.4061C20.7334 21.4702 20.7334 21.4702 20.7526 21.6157C20.8295 22.1754 20.9071 22.7346 20.9855 23.2934C20.9892 23.3204 20.9905 23.3474 20.9946 23.3922C20.7586 23.3076 20.5321 23.2316 20.3084 23.1451C19.9607 23.0106 19.6157 22.8706 19.2694 22.7302C19.2392 22.7183 19.2062 22.6959 19.1815 22.7393L19.1701 22.7279C19.1742 22.7091 19.1911 22.6753 19.1491 22.6977C19.1207 22.7164 19.0961 22.7401 19.0763 22.7677C18.7263 23.163 18.3338 23.5185 17.9897 23.9192C17.9843 23.9231 17.9783 23.9261 17.9719 23.9279C17.9376 23.9133 17.9518 23.8822 17.949 23.857C17.9001 23.3625 17.8667 22.8661 17.8429 22.3697C17.8401 22.3093 17.8241 22.2896 17.7591 22.2859C17.5125 22.2727 17.2669 22.248 17.0203 22.2306C16.5463 22.1976 16.0718 22.167 15.5988 22.1354C15.5832 22.102 15.6116 22.0897 15.6239 22.07C15.9918 21.5515 16.3605 21.034 16.7302 20.5177C16.7686 20.4637 16.7663 20.4362 16.7192 20.3882C16.3782 20.0377 16.0383 19.685 15.6994 19.33C15.6807 19.3103 15.639 19.2924 15.6569 19.2581C15.6706 19.2325 15.7077 19.2467 15.7347 19.2458C16.3271 19.2228 16.9179 19.1694 17.5048 19.0857C17.5414 19.083 17.576 19.0679 17.6029 19.043C17.6298 19.018 17.6475 18.9847 17.653 18.9484C17.8018 18.3994 17.9507 17.8492 18.0995 17.2977C18.1059 17.2744 18.1137 17.252 18.1265 17.2094C18.3118 17.3984 18.4875 17.58 18.6664 17.7584C18.881 17.9716 19.0992 18.1816 19.3138 18.3948C19.3691 18.4497 19.4144 18.4511 19.4835 18.4117C19.8774 18.188 20.2672 17.9579 20.6483 17.7122C20.6567 17.7086 20.6654 17.706 20.6744 17.7044L20.6881 17.7159ZM18.9391 19.5917C18.342 19.5917 17.8639 20.0579 17.8667 20.6352C17.8689 21.1623 18.3379 21.6106 18.8883 21.6116C19.0258 21.6127 19.1622 21.5867 19.2897 21.5349C19.4171 21.4831 19.5331 21.4067 19.6309 21.31C19.7286 21.2132 19.8063 21.0981 19.8595 20.9713C19.9126 20.8444 19.9402 20.7083 19.9405 20.5707C19.9419 20.0162 19.5059 19.5898 18.9391 19.5907V19.5917Z" fill="#F8F2EA"/>
<path d="M17.8068 22.6272C17.8178 22.884 17.8289 23.1406 17.8402 23.3968L17.8082 23.394C17.8256 23.1364 17.7675 22.8807 17.7899 22.6227L17.8068 22.6272Z" fill="#F8F2EA"/>
<path d="M20.9282 18.9182C20.9187 19.1277 20.9094 19.337 20.9003 19.5459C20.865 19.3355 20.9003 19.1259 20.9048 18.9159C20.9122 18.9223 20.9195 18.9283 20.9282 18.9182Z" fill="#F8F2EA"/>
<path d="M15.6939 21.881L15.5301 22.1299L15.5059 22.1134C15.5539 22.0248 15.6121 21.942 15.6793 21.8669L15.6939 21.881Z" fill="#F8F2EA"/>
<path d="M17.7314 23.001C17.6973 22.8616 17.6779 22.719 17.6733 22.5755L17.7017 22.5732C17.7118 22.7155 17.7214 22.8583 17.7314 23.001Z" fill="#726D6C"/>
<path d="M17.8081 23.394L17.8401 23.3968C17.8627 23.4984 17.8675 23.6032 17.8543 23.7065C17.8266 23.6045 17.8111 23.4996 17.8081 23.394Z" fill="#726D6C"/>
<path d="M20.9281 18.9182C20.9194 18.9283 20.9121 18.9223 20.9048 18.9159L20.9213 18.6039C20.9425 18.7074 20.9448 18.8139 20.9281 18.9182Z" fill="#726D6C"/>
<path d="M17.8067 22.6275L17.7916 22.6243C17.784 22.5556 17.7873 22.4862 17.8012 22.4186C17.8258 22.4858 17.8277 22.5591 17.8067 22.6275Z" fill="#726D6C"/>
<path d="M21.1387 21.3888C21.1983 21.3423 21.2699 21.3137 21.3452 21.3064C21.2876 21.3564 21.2149 21.3855 21.1387 21.3888Z" fill="#726D6C"/>
<path d="M20.8169 17.7676C20.821 17.8363 20.8503 17.9077 20.7935 17.9787C20.7757 17.899 20.8114 17.8349 20.8169 17.7676Z" fill="#726D6C"/>
<path d="M17.5039 18.7985C17.4951 18.7327 17.5062 18.6656 17.536 18.6062C17.5474 18.6721 17.5361 18.7399 17.5039 18.7985Z" fill="#726D6C"/>
<path d="M20.8873 22.0229C20.9146 22.0741 20.9235 22.1331 20.9125 22.19C20.8972 22.1653 20.8871 22.1378 20.8828 22.109C20.8784 22.0803 20.88 22.051 20.8873 22.0229Z" fill="#726D6C"/>
<path d="M22.4409 20.5314C22.4955 20.5316 22.5483 20.5509 22.5902 20.5859C22.5302 20.5964 22.4858 20.5653 22.4409 20.5314Z" fill="#726D6C"/>
<path d="M15.8567 19.9321C15.8569 19.9296 15.8566 19.9271 15.8557 19.9248C15.8549 19.9225 15.8535 19.9203 15.8518 19.9185C15.8501 19.9168 15.848 19.9154 15.8457 19.9145C15.8433 19.9136 15.8409 19.9132 15.8384 19.9133C15.8439 19.9032 15.8333 19.8698 15.8503 19.8836C15.8906 19.9161 15.9419 19.9445 15.9501 20.0058H15.9309C15.931 20.0034 15.9306 20.0009 15.9298 19.9986C15.9289 19.9963 15.9276 19.9942 15.9258 19.9924C15.9241 19.9907 15.9221 19.9893 15.9198 19.9884C15.9175 19.9874 15.915 19.987 15.9126 19.9871C15.9127 19.9846 15.9123 19.9821 15.9114 19.9798C15.9105 19.9775 15.9091 19.9754 15.9074 19.9736C15.9056 19.9719 15.9034 19.9706 15.9011 19.9697C15.8988 19.9689 15.8963 19.9685 15.8938 19.9687C15.8817 19.9561 15.8694 19.9437 15.8567 19.9316V19.9321Z" fill="#726D6C"/>
<path d="M19.2907 18.0004C19.3068 18.0077 19.3212 18.018 19.3333 18.0309C19.3453 18.0438 19.3546 18.059 19.3607 18.0756C19.327 18.0645 19.2979 18.0426 19.2778 18.0133C19.2819 18.0088 19.2862 18.0045 19.2907 18.0004Z" fill="#F8F2EA"/>
<path d="M18.9312 22.986C18.9474 22.9543 18.9711 22.9271 19.0003 22.9068L19.0118 22.9187L18.9426 22.9979L18.9312 22.986Z" fill="#F8F2EA"/>
<path d="M20.3689 17.677L20.2773 17.7393L20.2617 17.7178L20.3533 17.6555L20.3689 17.677Z" fill="#726D6C"/>
<path d="M15.6792 21.8667L15.7276 21.8046C15.7308 21.8193 15.7292 21.8346 15.7231 21.8483C15.7171 21.862 15.7068 21.8734 15.6938 21.8809L15.6792 21.8667Z" fill="#F8F2EA"/>
<path d="M19.7334 23.173C19.749 23.1706 19.7648 23.1721 19.7797 23.1773C19.7945 23.1826 19.8077 23.1915 19.8182 23.2033C19.7797 23.2271 19.7559 23.1946 19.7266 23.1808L19.7334 23.173Z" fill="#726D6C"/>
<path d="M18.0448 24.3426C18.0495 24.3558 18.0448 24.3634 18.0301 24.3643C18.0288 24.3632 18.0277 24.3617 18.0269 24.3601C18.0262 24.3584 18.0258 24.3567 18.0259 24.3549C18.0287 24.3435 18.032 24.3312 18.0472 24.3444L18.0448 24.3426Z" fill="#F8F2EA"/>
<path d="M19.9783 17.9168C19.9627 17.9297 19.9434 17.9568 19.9273 17.9301C19.9167 17.9117 19.9507 17.909 19.9645 17.8989L19.9783 17.9168Z" fill="#726D6C"/>
<path d="M20.3535 17.6554L20.4097 17.6171L20.4243 17.6399L20.369 17.6769L20.3535 17.6554Z" fill="#726D6C"/>
<path d="M20.1138 17.8111L20.1706 17.7744L20.1935 17.7927L20.1284 17.8312L20.1138 17.8111Z" fill="#726D6C"/>
<path d="M20.1709 17.7743C20.1891 17.7565 20.2068 17.7374 20.2378 17.7451C20.2378 17.7774 20.2123 17.7811 20.1923 17.7906L20.1709 17.7743Z" fill="#726D6C"/>
<path d="M20.0572 17.874L20.042 17.8629C20.0485 17.854 20.0565 17.8462 20.0655 17.8399C20.071 17.8366 20.0876 17.8431 20.0876 17.8436C20.0858 17.8597 20.0752 17.8684 20.0572 17.874Z" fill="#726D6C"/>
<path d="M20.4097 17.6171C20.4239 17.607 20.4441 17.5831 20.4556 17.5992C20.4745 17.6259 20.4423 17.6309 20.4248 17.6401L20.4097 17.6171Z" fill="#726D6C"/>
<path d="M19.2557 17.9634C19.2648 17.9655 19.2731 17.9702 19.2798 17.9767C19.2864 17.9833 19.2911 17.9915 19.2934 18.0006C19.2889 18.0047 19.2846 18.009 19.2805 18.0135L19.2456 17.9735C19.2487 17.9699 19.2521 17.9665 19.2557 17.9634Z" fill="#F8F2EA"/>
<path d="M20.5229 17.5663C20.5145 17.5761 20.5049 17.5849 20.4945 17.5925C20.4853 17.5975 20.4701 17.5994 20.4724 17.5833C20.4724 17.5746 20.4862 17.5658 20.4958 17.5612C20.5055 17.5566 20.5101 17.5635 20.5229 17.5663Z" fill="#726D6C"/>
<path d="M20.5515 17.5606C20.5335 17.5555 20.5206 17.556 20.5271 17.5445C20.5336 17.5348 20.5427 17.5271 20.5533 17.5223C20.5584 17.52 20.5727 17.5223 20.5676 17.5348C20.5633 17.544 20.5579 17.5527 20.5515 17.5606Z" fill="#726D6C"/>
<path d="M18.7882 23.158C18.7866 23.1673 18.7822 23.176 18.7755 23.1827C18.7689 23.1895 18.7603 23.194 18.7509 23.1957L18.7427 23.1869L18.7781 23.1479L18.7882 23.158Z" fill="#F8F2EA"/>
<path d="M18.236 24.1454C18.2231 24.1587 18.2139 24.1776 18.1899 24.1767L18.2213 24.1306L18.236 24.1454Z" fill="#726D6C"/>
<path d="M19.6767 23.1562L19.6338 23.1525C19.6338 23.1484 19.6366 23.141 19.6389 23.1406C19.646 23.1382 19.6538 23.1386 19.6607 23.1417C19.6676 23.1447 19.6731 23.1503 19.6762 23.1572L19.6767 23.1562Z" fill="#726D6C"/>
<path d="M19.7278 23.1814C19.7098 23.1754 19.685 23.1814 19.6768 23.1561C19.6979 23.1561 19.7199 23.1506 19.7342 23.1727L19.7278 23.1814Z" fill="#726D6C"/>
<path d="M19.9644 17.899L20.0053 17.8774L20.0158 17.8976L19.9781 17.9169L19.9644 17.899Z" fill="#726D6C"/>
<path d="M22.4086 20.5228L22.3906 20.5171C22.393 20.5133 22.3944 20.5062 22.3968 20.5058C22.4022 20.5054 22.4077 20.5067 22.4124 20.5096C22.4209 20.5129 22.4209 20.5171 22.4086 20.5228Z" fill="#726D6C"/>
<path d="M21.3809 21.3024L21.3662 21.2936C21.3717 21.2913 21.3768 21.2863 21.3818 21.2863C21.3869 21.2863 21.3919 21.2913 21.397 21.2941L21.3809 21.3024Z" fill="#726D6C"/>
<path d="M20.5918 17.4939C20.6008 17.4868 20.6098 17.4754 20.6206 17.4896C20.6206 17.4896 20.6131 17.5024 20.6088 17.509L20.5918 17.4939Z" fill="#726D6C"/>
<path d="M20.6094 17.5087C20.6014 17.5186 20.5929 17.528 20.5815 17.5148C20.5815 17.5124 20.5886 17.5011 20.5924 17.4935L20.6094 17.5087Z" fill="#726D6C"/>
<path d="M20.1292 17.8317C20.1196 17.8363 20.1095 17.8492 20.0998 17.8349C20.0902 17.8207 20.1049 17.8161 20.1141 17.811L20.1292 17.8317Z" fill="#726D6C"/>
<path d="M20.0049 17.8776C20.0139 17.8734 20.0252 17.862 20.0323 17.8776C20.0394 17.8932 20.0247 17.8947 20.0158 17.8989L20.0049 17.8776Z" fill="#726D6C"/>
<path d="M15.9707 20.0263L15.9502 20.0053C15.9666 20.0022 15.9717 20.0109 15.9712 20.0253L15.9707 20.0263Z" fill="#726D6C"/>
<path d="M15.9898 20.0445C15.987 20.0446 15.9843 20.0441 15.9817 20.0431C15.9791 20.0421 15.9768 20.0406 15.9748 20.0387C15.9728 20.0368 15.9712 20.0345 15.9701 20.032C15.9689 20.0295 15.9683 20.0268 15.9683 20.024C15.9836 20.024 15.9908 20.0302 15.9882 20.046L15.9898 20.0445Z" fill="#726D6C"/>
<path d="M15.9868 20.0432C16.0022 20.0432 16.0094 20.0489 16.0073 20.0642L15.9863 20.0437L15.9868 20.0432Z" fill="#726D6C"/>
<path d="M16.0073 20.062L16.0215 20.0661C16.0096 20.0816 16.0119 20.0661 16.0087 20.0606L16.0073 20.062Z" fill="#726D6C"/>
<path d="M20.6738 17.7041L20.6859 17.6935C20.6859 17.7012 20.6859 17.7094 20.6884 17.7172L20.6738 17.7041Z" fill="#F8F2EA"/>
<path d="M19.1848 22.7394L19.1654 22.7574L19.1548 22.7463L19.1732 22.7279L19.1848 22.7394Z" fill="#F8F2EA"/>
<path d="M19.1362 22.765L19.1551 22.7462L19.1656 22.7572L19.1477 22.7774L19.1362 22.765Z" fill="#F8F2EA"/>
<path d="M19.2345 17.9451C19.2371 17.945 19.2396 17.9455 19.242 17.9464C19.2444 17.9473 19.2465 17.9487 19.2484 17.9504C19.2502 17.9522 19.2517 17.9543 19.2527 17.9566C19.2538 17.9589 19.2543 17.9615 19.2544 17.964C19.2507 17.9672 19.2472 17.9707 19.244 17.9744L19.2246 17.955L19.2345 17.9451Z" fill="#F8F2EA"/>
<path d="M19.1317 22.7956L19.1111 22.8177L19.0996 22.8025L19.118 22.7837L19.1317 22.7956Z" fill="#F8F2EA"/>
<path d="M19.112 22.8181C19.104 22.8247 19.0964 22.8389 19.086 22.8252C19.0756 22.8114 19.0908 22.8072 19.1002 22.8025L19.112 22.8181Z" fill="#F8F2EA"/>
<path d="M19.0527 22.8501C19.0596 22.8414 19.0665 22.8248 19.0794 22.8382C19.0922 22.8515 19.0748 22.8561 19.0661 22.8616C19.0618 22.8575 19.0574 22.8537 19.0527 22.8501Z" fill="#F8F2EA"/>
<path d="M19.0663 22.8615L19.0483 22.8813L19.0327 22.8693L19.0529 22.85C19.0576 22.8536 19.062 22.8575 19.0663 22.8615Z" fill="#F8F2EA"/>
<path d="M19.0487 22.8812L19.0303 22.9L19.0156 22.8876L19.0331 22.8693L19.0487 22.8812Z" fill="#F8F2EA"/>
<path d="M19.0304 22.8986L19.012 22.9174L19.0005 22.9055L19.0157 22.8862L19.0304 22.8986Z" fill="#F8F2EA"/>
<path d="M18.9131 23.0052L18.9315 22.9859L18.943 22.9979C18.937 23.0043 18.931 23.0112 18.9255 23.0181L18.9131 23.0052Z" fill="#F8F2EA"/>
<path d="M18.895 23.0244L18.9129 23.0051L18.9253 23.018C18.9194 23.0244 18.9129 23.0309 18.907 23.0378C18.9032 23.0331 18.8992 23.0287 18.895 23.0244Z" fill="#F8F2EA"/>
<path d="M18.8774 23.0437L18.8954 23.0244C18.8996 23.0286 18.9036 23.033 18.9073 23.0377L18.8885 23.0561L18.8774 23.0437Z" fill="#F8F2EA"/>
<path d="M18.8907 23.0563C18.8832 23.0639 18.8761 23.0805 18.8643 23.0663C18.8524 23.0521 18.8704 23.0488 18.8794 23.0436L18.8907 23.0563Z" fill="#F8F2EA"/>
<path d="M18.8301 23.0908C18.8374 23.0834 18.8443 23.0673 18.8563 23.0797C18.8682 23.0921 18.8517 23.0967 18.8429 23.1018C18.839 23.0977 18.8347 23.094 18.8301 23.0908Z" fill="#F8F2EA"/>
<path d="M18.8438 23.1017L18.8254 23.1206L18.813 23.1095L18.8309 23.0907C18.8355 23.094 18.8398 23.0977 18.8438 23.1017Z" fill="#F8F2EA"/>
<path d="M18.8247 23.1205C18.8248 23.1229 18.8244 23.1254 18.8235 23.1277C18.8226 23.1299 18.8212 23.132 18.8195 23.1338C18.8178 23.1355 18.8158 23.1369 18.8135 23.1379C18.8112 23.1388 18.8088 23.1393 18.8064 23.1393L18.7939 23.1283L18.8123 23.1094L18.8247 23.1205Z" fill="#F8F2EA"/>
<path d="M20.2773 17.7393C20.2676 17.7439 20.2575 17.7568 20.2478 17.7425C20.2382 17.7283 20.2524 17.7237 20.2616 17.7177L20.2773 17.7393Z" fill="#726D6C"/>
<path d="M19.2253 17.9564C19.2175 17.949 19.2023 17.9436 19.2189 17.9309C19.2189 17.9309 19.2297 17.9407 19.2356 17.9461L19.2253 17.9564Z" fill="#F8F2EA"/>
<path d="M18.7537 23.196C18.7484 23.2013 18.7392 23.212 18.7382 23.211C18.7203 23.1979 18.7382 23.1936 18.745 23.1868L18.7537 23.196Z" fill="#F8F2EA"/>
<path d="M19.1182 22.7838L19.1365 22.7649L19.148 22.7774L19.1319 22.7957L19.1182 22.7838Z" fill="#F8F2EA"/>
<path d="M18.4131 23.9336L18.4315 23.9234C18.4315 23.931 18.4279 23.9387 18.4264 23.9464L18.4131 23.9336Z" fill="#726D6C"/>
<path d="M18.3936 23.9509L18.4129 23.9325L18.4249 23.944L18.4051 23.9671L18.3936 23.9509Z" fill="#726D6C"/>
<path d="M18.4069 23.968C18.4 23.9709 18.3883 23.9783 18.3863 23.9763C18.3745 23.9645 18.3863 23.9572 18.3946 23.9508L18.4069 23.968Z" fill="#726D6C"/>
<path d="M18.3433 24.0003C18.3506 23.9929 18.357 23.9787 18.3699 23.9879C18.3828 23.9971 18.3699 24.0058 18.3639 24.0136L18.3433 24.0003Z" fill="#726D6C"/>
<path d="M18.3644 24.0136L18.3464 24.0325L18.3252 24.0191L18.3436 24.0002L18.3644 24.0136Z" fill="#726D6C"/>
<path d="M18.3076 24.037L18.3251 24.019C18.332 24.0236 18.339 24.0282 18.3463 24.0323L18.3279 24.0512L18.3076 24.037Z" fill="#726D6C"/>
<path d="M18.2886 24.0557L18.3079 24.0368L18.3282 24.0511L18.3102 24.0705L18.2886 24.0557Z" fill="#726D6C"/>
<path d="M18.3102 24.0703L18.2917 24.0892L18.271 24.074C18.277 24.068 18.283 24.062 18.2885 24.0556L18.3102 24.0703Z" fill="#726D6C"/>
<path d="M18.2917 24.0882L18.2733 24.1071L18.2544 24.0914L18.271 24.073L18.2917 24.0882Z" fill="#726D6C"/>
<path d="M18.2737 24.1078L18.2566 24.1281L18.2363 24.1111L18.2548 24.0922C18.2608 24.0977 18.2672 24.1028 18.2737 24.1078Z" fill="#726D6C"/>
<path d="M18.2241 24.134L18.2366 24.1114L18.2568 24.1284L18.2361 24.146L18.2241 24.134Z" fill="#726D6C"/>
<path d="M18.1927 24.1764C18.1951 24.1919 18.1966 24.206 18.1733 24.1943C18.1733 24.1803 18.1777 24.1735 18.1922 24.1759L18.1927 24.1764Z" fill="#F8F2EA"/>
<path d="M18.1533 24.2107L18.1755 24.1951C18.1755 24.2022 18.1755 24.2117 18.1708 24.2164C18.1609 24.2287 18.1595 24.2117 18.1528 24.2098L18.1533 24.2107Z" fill="#F8F2EA"/>
<path d="M18.1516 24.2075C18.1516 24.2171 18.1594 24.2272 18.1465 24.236C18.1336 24.2447 18.1309 24.2295 18.1235 24.2254L18.1529 24.2107L18.1516 24.2075Z" fill="#F8F2EA"/>
<path d="M18.1235 24.2253C18.1373 24.2253 18.1461 24.2298 18.1427 24.2455C18.1421 24.2468 18.1412 24.248 18.1399 24.2489C18.1387 24.2498 18.1373 24.2503 18.1358 24.2504C18.1177 24.2479 18.1265 24.2342 18.1255 24.2249L18.1235 24.2253Z" fill="#F8F2EA"/>
<path d="M18.1093 24.2967C18.0962 24.2967 18.0884 24.288 18.0967 24.2744C18.0967 24.272 18.1054 24.2744 18.1097 24.272C18.1097 24.2797 18.1097 24.2875 18.1073 24.2948L18.1093 24.2967Z" fill="#F8F2EA"/>
<path d="M18.0885 24.3178C18.0852 24.3107 18.0772 24.3017 18.0795 24.2974C18.0876 24.2814 18.0989 24.2908 18.1089 24.2974C18.1022 24.3041 18.0956 24.3107 18.0885 24.3168V24.3178Z" fill="#F8F2EA"/>
<path d="M18.066 24.3272C18.066 24.3197 18.0579 24.3112 18.0707 24.3041C18.0835 24.297 18.083 24.3116 18.0901 24.3149V24.3126L18.066 24.3249V24.3272Z" fill="#F8F2EA"/>
<path d="M18.0643 24.3244C18.0643 24.3389 18.058 24.3447 18.0439 24.3438H18.0464C18.0464 24.3292 18.0396 24.3103 18.0657 24.3249L18.0643 24.3244Z" fill="#F8F2EA"/>
<path d="M18.7778 23.148L18.794 23.1282L18.8064 23.1393C18.8064 23.1513 18.8 23.1577 18.788 23.1582L18.7778 23.148Z" fill="#F8F2EA"/>
<path d="M13.1109 14.9836C12.329 15.007 11.6647 14.2443 11.6835 13.4793C11.7032 12.6961 12.3016 12.1242 13.1196 12.1471C13.9093 12.1713 14.5095 12.8612 14.4921 13.6317C14.472 14.3115 13.9326 15.0106 13.1109 14.9836ZM13.9944 13.6532C13.988 13.5951 13.9829 13.5365 13.9752 13.4784C13.9644 13.3989 13.9434 13.321 13.9125 13.2469C13.6952 12.7272 13.2418 12.5094 12.7381 12.7244C12.3945 12.8708 12.2266 13.1518 12.1776 13.515C12.1227 13.9268 12.4064 14.3962 12.7875 14.5394C13.2857 14.7265 14.0076 14.3518 13.9944 13.6532ZM13.9573 12.9811C13.9944 13.1874 14.1033 13.3471 14.1271 13.5351C14.1466 13.7239 14.118 13.9145 14.0438 14.0892C14.2268 13.8266 14.1902 13.3068 13.9559 12.9811H13.9573ZM12.8424 14.8281C12.9998 14.8821 13.1693 14.8907 13.3314 14.8528C13.1709 14.8249 13.0089 14.7768 12.8424 14.8281ZM12.049 13.7552C12.0498 13.5989 12.0602 13.4427 12.0802 13.2876C12.0188 13.4011 12.006 13.5942 12.049 13.7552ZM11.9077 13.435C11.8821 13.5356 11.8642 13.6353 11.9328 13.7401C11.9219 13.6317 11.9397 13.5319 11.9077 13.4359V13.435ZM11.8532 13.3366C11.8862 13.2373 11.899 13.1243 11.9402 13.0191C11.878 13.1129 11.8475 13.2242 11.8532 13.3366ZM14.0287 14.1144C14.0287 14.1144 14.0255 14.1185 14.0259 14.1198C14.0264 14.1212 14.0323 14.1281 14.036 14.1198C14.0367 14.1179 14.0367 14.1158 14.036 14.1139C14.036 14.1139 14.0305 14.1144 14.0287 14.1144ZM11.9562 12.9957C11.9585 12.9957 11.9617 12.9921 11.9617 12.9898C11.9617 12.9875 11.9585 12.9857 11.9566 12.9838L11.9507 12.9925L11.9562 12.9957Z" fill="#060505"/>
<path d="M18.9391 19.5907C19.506 19.5907 19.9402 20.0144 19.9411 20.5698C19.9407 20.7074 19.9132 20.8435 19.86 20.9703C19.8069 21.0972 19.7292 21.2123 19.6314 21.309C19.5336 21.4058 19.4177 21.4822 19.2902 21.534C19.1628 21.5857 19.0264 21.6118 18.8888 21.6106C18.3398 21.6106 17.8695 21.1614 17.8672 20.6343C17.864 20.0569 18.3407 19.5912 18.9391 19.5907ZM18.5324 21.2689C18.51 21.2611 18.4922 21.23 18.4629 21.2547C18.4683 21.2655 18.4764 21.2747 18.4866 21.2813C18.4967 21.2879 18.5084 21.2917 18.5205 21.2922C18.5841 21.3327 18.6575 21.3551 18.7328 21.3567C18.8742 21.3645 19.016 21.3782 19.1679 21.3078C19.0078 21.3 18.8705 21.3618 18.7287 21.3274L18.5324 21.2689ZM18.1733 20.5597C18.1715 20.6558 18.1904 20.751 18.2286 20.8391C18.2668 20.9272 18.3235 21.0061 18.3948 21.0705C18.466 21.1348 18.5503 21.1831 18.6418 21.2122C18.7334 21.2412 18.8301 21.2502 18.9254 21.2387C19.1601 21.2172 19.3706 21.1376 19.4886 20.9221C19.7215 20.498 19.4319 19.9805 18.9424 19.9307C18.5173 19.8872 18.171 20.1704 18.1733 20.5597ZM18.0548 20.2184C17.9893 20.3194 17.9555 20.4376 17.9578 20.5579C17.9967 20.4458 18.0662 20.3433 18.0548 20.2184ZM18.9867 19.8415L19.2612 19.9302C19.1832 19.8689 19.0859 19.8374 18.9867 19.8415ZM18.4409 21.2314L18.4345 21.2382C18.4385 21.2404 18.4426 21.2423 18.4469 21.2437C18.4469 21.2437 18.451 21.2401 18.4528 21.2382L18.4409 21.2314Z" fill="#060505"/>
<path d="M13.9945 13.6532C14.0091 14.3518 13.2872 14.7265 12.7876 14.5394C12.4056 14.3962 12.1228 13.9268 12.1777 13.515C12.2267 13.1518 12.3946 12.8708 12.7382 12.7244C13.2414 12.5094 13.6953 12.7272 13.9126 13.2469C13.9435 13.321 13.9645 13.3989 13.9753 13.4784C13.9817 13.5365 13.9867 13.5951 13.9945 13.6532ZM12.3525 13.6216C12.3465 13.7461 12.4262 13.8998 12.5309 14.0448C12.7995 14.4168 13.2629 14.5078 13.6349 14.1638C14.0151 13.8097 13.9661 13.2552 13.5219 13.02C13.4029 12.9569 13.2713 12.9211 13.1368 12.9153C13.0022 12.9096 12.8681 12.9339 12.7441 12.9866C12.4847 13.0886 12.3589 13.2849 12.3511 13.6216H12.3525Z" fill="#F8F2EA"/>
<path d="M13.9561 12.9811C14.1903 13.3069 14.2269 13.8266 14.0425 14.0892C14.1167 13.9145 14.1454 13.7239 14.1258 13.5351C14.102 13.3476 13.9945 13.1874 13.9561 12.9811Z" fill="#F8F2EA"/>
<path d="M12.8423 14.8281C13.0088 14.7768 13.1694 14.8249 13.3314 14.8528C13.1693 14.8907 12.9997 14.8821 12.8423 14.8281Z" fill="#F8F2EA"/>
<path d="M12.0487 13.7552C12.0057 13.5942 12.0185 13.4011 12.0798 13.2876C12.0599 13.4427 12.0495 13.5989 12.0487 13.7552Z" fill="#F8F2EA"/>
<path d="M11.9076 13.4359C11.9396 13.5319 11.9218 13.6317 11.9327 13.741C11.8641 13.6363 11.882 13.5365 11.9076 13.4359Z" fill="#F8F2EA"/>
<path d="M11.8532 13.3366C11.8475 13.2242 11.878 13.1129 11.9401 13.0191C11.8994 13.1238 11.8862 13.2369 11.8532 13.3366Z" fill="#F8F2EA"/>
<path d="M14.0285 14.1144C14.0285 14.1144 14.0326 14.1144 14.0335 14.1144C14.0343 14.1163 14.0343 14.1184 14.0335 14.1203C14.0299 14.1277 14.0257 14.1272 14.0234 14.1203C14.0211 14.1134 14.0276 14.1144 14.0285 14.1144Z" fill="#F8F2EA"/>
<path d="M11.9564 12.9957L11.9507 12.9924L11.9569 12.9834C11.9569 12.9834 11.9625 12.9877 11.9621 12.9896C11.9616 12.9915 11.9587 12.9938 11.9564 12.9957Z" fill="#F8F2EA"/>
<path d="M18.173 20.5597C18.173 20.1704 18.517 19.8872 18.942 19.9307C19.4316 19.9805 19.7198 20.498 19.4883 20.9221C19.3703 21.1376 19.1598 21.2172 18.9251 21.2387C18.8298 21.2502 18.7331 21.2412 18.6415 21.2122C18.55 21.1831 18.4657 21.1348 18.3944 21.0705C18.3232 21.0061 18.2665 20.9272 18.2283 20.8391C18.1901 20.751 18.1712 20.6558 18.173 20.5597ZM19.3799 20.546C19.3799 20.2624 19.1863 20.0629 18.9082 20.0634C18.5907 20.0634 18.3093 20.3177 18.3093 20.6028C18.3093 20.8878 18.5747 21.1692 18.8396 21.1705C19.1337 21.1724 19.3785 20.8896 19.3799 20.546Z" fill="#F8F2EA"/>
<path d="M18.0546 20.2184C18.0656 20.3433 17.9965 20.4472 17.9576 20.5579C17.9554 20.4376 17.9891 20.3194 18.0546 20.2184Z" fill="#F8F2EA"/>
<path d="M18.7285 21.3275C18.8703 21.3618 19.0076 21.3 19.1677 21.3078C19.0158 21.3782 18.874 21.3645 18.7326 21.3567L18.7285 21.3275Z" fill="#F8F2EA"/>
<path d="M18.9868 19.8415C19.086 19.8374 19.1833 19.8689 19.2613 19.9302L18.9868 19.8415Z" fill="#F8F2EA"/>
<path d="M18.7289 21.3275L18.733 21.3568C18.6576 21.3551 18.5841 21.3328 18.5205 21.2922L18.5324 21.2684L18.7289 21.3275Z" fill="#726D6C"/>
<path d="M18.5202 21.292C18.5082 21.2914 18.4965 21.2877 18.4865 21.2811C18.4764 21.2746 18.4682 21.2654 18.4629 21.2547C18.492 21.2301 18.5084 21.261 18.5321 21.2683L18.5202 21.292Z" fill="#726D6C"/>
<path d="M18.4417 21.2314L18.4551 21.2391C18.4551 21.2391 18.4499 21.2457 18.4484 21.2452C18.4436 21.2436 18.439 21.2415 18.4346 21.2391L18.4417 21.2314Z" fill="#726D6C"/>
<path d="M12.3507 13.6216C12.3585 13.2849 12.4848 13.0886 12.7414 12.988C12.8654 12.9353 12.9995 12.9109 13.1341 12.9167C13.2686 12.9225 13.4002 12.9582 13.5192 13.0214C13.9634 13.2552 14.0124 13.8097 13.6322 14.1651C13.2621 14.5092 12.7968 14.4181 12.5282 14.0462C12.4244 13.8998 12.3471 13.7483 12.3507 13.6216ZM13.586 13.4844C13.5215 13.6793 13.5 13.8824 13.4199 14.0695C13.5366 13.8911 13.6606 13.7145 13.5823 13.4835L13.586 13.4844ZM12.5854 13.5356C12.6216 13.4318 12.6897 13.3421 12.714 13.2154C12.5914 13.3046 12.5685 13.4135 12.5836 13.5347L12.5854 13.5356ZM13.0585 13.1348C12.9884 13.1907 12.9391 13.2685 12.9185 13.3558C12.9789 13.2918 13.0259 13.2164 13.0566 13.1339L13.0585 13.1348ZM13.1088 13.7483C13.0453 13.8168 12.996 13.8972 12.9638 13.9849C13.0389 13.9259 13.0903 13.842 13.1088 13.7483ZM13.3261 13.6065C13.3579 13.5728 13.3823 13.5328 13.3975 13.489C13.4127 13.4453 13.4185 13.3988 13.4144 13.3526C13.3848 13.4371 13.3554 13.5216 13.3261 13.6061V13.6065ZM12.9006 13.3695C12.9006 13.3695 12.8942 13.3736 12.8947 13.375C12.896 13.3792 12.8979 13.3832 12.9002 13.3869C12.9002 13.3869 12.9061 13.3828 12.9061 13.3814C12.9047 13.3771 12.9029 13.373 12.9006 13.3691V13.3695Z" fill="#060505"/>
<path d="M19.3801 20.546C19.3801 20.8896 19.134 21.1724 18.8398 21.1705C18.5749 21.1705 18.3096 20.885 18.3096 20.6028C18.3096 20.3205 18.5909 20.0643 18.9084 20.0634C19.1866 20.062 19.3815 20.2624 19.3801 20.546ZM18.8202 20.6297C18.8961 20.5382 18.9199 20.4303 18.9492 20.3223C18.8741 20.4138 18.8494 20.5231 18.8179 20.6311L18.8252 20.6435H18.8128L18.8202 20.6297ZM18.7465 20.2935C18.7025 20.3315 18.667 20.3783 18.6424 20.431C18.6178 20.4837 18.6046 20.541 18.6037 20.5991C18.6532 20.4989 18.741 20.4161 18.741 20.2948L18.7433 20.299L18.7465 20.2935ZM19.2255 20.4463C19.1608 20.5629 19.1231 20.6925 19.1152 20.8256C19.1813 20.7096 19.2191 20.5796 19.2255 20.4463Z" fill="#060505"/>
<path d="M13.5826 13.4835C13.659 13.7122 13.5368 13.8911 13.4165 14.0686C13.4984 13.8815 13.5199 13.6784 13.5826 13.4835Z" fill="#F8F2EA"/>
<path d="M12.5837 13.5347C12.5686 13.4135 12.5915 13.3059 12.7123 13.2144C12.688 13.3412 12.6217 13.4308 12.5837 13.5347Z" fill="#F8F2EA"/>
<path d="M13.0571 13.1339C13.0257 13.2163 12.978 13.2915 12.917 13.3551C12.9376 13.2678 12.9869 13.1899 13.0571 13.1339Z" fill="#F8F2EA"/>
<path d="M13.1089 13.7483C13.0904 13.842 13.039 13.9259 12.9639 13.9849C12.9961 13.8972 13.0454 13.8168 13.1089 13.7483Z" fill="#F8F2EA"/>
<path d="M13.3262 13.6061C13.3567 13.5216 13.3861 13.4369 13.4145 13.3521C13.4185 13.3983 13.4127 13.4448 13.3975 13.4886C13.3823 13.5323 13.358 13.5724 13.3262 13.6061Z" fill="#F8F2EA"/>
<path d="M12.9017 13.3691C12.9041 13.3733 12.9062 13.3778 12.9078 13.3824C12.9078 13.3824 12.9032 13.3865 12.9012 13.3885C12.8986 13.3844 12.8965 13.3799 12.895 13.3752C12.895 13.3752 12.8991 13.3711 12.9017 13.3691Z" fill="#F8F2EA"/>
<path d="M19.2255 20.4463C19.2191 20.5796 19.1813 20.7096 19.1152 20.8256C19.1231 20.6925 19.1608 20.5629 19.2255 20.4463Z" fill="#F8F2EA"/>
<path d="M18.7422 20.2944C18.7395 20.4165 18.653 20.4989 18.605 20.5991C18.6058 20.541 18.619 20.4837 18.6436 20.431C18.6682 20.3783 18.7037 20.3315 18.7477 20.2935L18.7422 20.2944Z" fill="#F8F2EA"/>
<path d="M18.8179 20.6311C18.8494 20.5232 18.8741 20.4124 18.9492 20.3223C18.9199 20.4303 18.8961 20.5405 18.8202 20.6298L18.8179 20.6311Z" fill="#F8F2EA"/>
<path d="M18.8206 20.6297L18.813 20.6426H18.8258C18.8258 20.6383 18.8211 20.634 18.8182 20.6297H18.8206Z" fill="#F8F2EA"/>
<path d="M18.7471 20.2935L18.7449 20.3001L18.7422 20.2951L18.7471 20.2935Z" fill="#F8F2EA"/>
</svg>
