<svg width="47" height="47" viewBox="0 0 47 47" fill="none" xmlns="http://www.w3.org/2000/svg">
<path d="M0 23.3383C0.0859411 17.4118 2.07327 12.1937 6.09453 7.77967C9.37195 4.18285 13.4282 1.87254 18.1462 0.697308C19.6014 0.334916 21.0803 0.124448 22.5782 0.0397773C25.6755 -0.135854 28.6897 0.266695 31.6127 1.31565C34.6041 2.38927 37.2474 4.02512 39.5547 6.20237C41.5183 8.05497 43.0492 10.2187 44.2931 12.6059C45.574 15.0648 46.4062 17.6533 46.7796 20.3952C46.9471 21.6246 47.0224 22.8593 46.9816 24.0979C46.7927 29.8648 44.7811 34.9121 40.8584 39.1607C37.5349 42.7599 33.4452 45.0726 28.6441 46.1167C27.2671 46.4162 25.8736 46.604 24.4626 46.6349C18.1549 46.7738 12.593 44.8114 7.85025 40.6639C4.0839 37.37 1.69406 33.2337 0.576339 28.3692C0.229662 26.8616 0.0436988 25.3317 0.022335 23.7834C0.0203928 23.6431 0.00873977 23.5033 0.000485543 23.3388L0 23.3383Z" fill="#181818"/>
<path d="M24.7 44.3217C21.44 44.3808 18.3996 43.8466 15.4839 42.6578C13.3922 41.8053 11.4379 40.7133 9.73701 39.2144C6.94077 36.7507 4.89615 33.7703 3.608 30.2775C3.04526 28.7525 2.66848 27.1814 2.46795 25.5703C2.26985 23.9823 2.21012 22.3876 2.42813 20.8002C2.7214 18.6655 3.34969 16.6232 4.28873 14.6801C6.14059 10.8482 8.87274 7.78648 12.4745 5.51439C14.8595 4.01015 17.4552 3.00862 20.2374 2.50108C21.6071 2.25093 22.9884 2.13336 24.38 2.14643C26.5358 2.16675 28.6533 2.46382 30.7003 3.14216C32.1259 3.61438 33.4533 4.31013 34.7099 5.13071C38.788 7.79422 41.6804 11.422 43.4987 15.9125C44.2877 17.8609 44.7791 19.8847 44.9758 21.9788C45.0709 22.99 45.1243 24.0036 45.0389 25.0163C44.9374 26.2191 44.6946 27.3992 44.3659 28.5609C43.39 32.0053 41.6663 35.0317 39.2099 37.639C36.6419 40.365 33.5723 42.3254 30.0142 43.5094C28.9456 43.865 27.8308 44.0411 26.7121 44.1756C26.0061 44.2603 25.2972 44.298 24.7 44.3222V44.3217Z" fill="#F8F2EA"/>
<path d="M24.3769 40.9963C21.5582 41.0466 18.9293 40.5907 16.4083 39.5762C14.5997 38.8486 12.9099 37.9166 11.4392 36.6373C9.02146 34.5346 7.25358 31.9909 6.13979 29.0099C5.65321 27.7083 5.32743 26.3675 5.15404 24.9924C4.98275 23.6371 4.93111 22.2761 5.11961 20.9213C5.37319 19.0994 5.91644 17.3564 6.72838 15.698C8.32959 12.4275 10.6919 9.81446 13.8062 7.8753C15.8684 6.59147 18.1127 5.73669 20.5183 5.30352C21.7027 5.09003 22.8971 4.98969 24.1003 5.00084C25.9643 5.01818 27.7951 5.27172 29.5651 5.85066C30.7977 6.25369 31.9455 6.8475 33.032 7.54784C36.5581 9.82106 39.059 12.9173 40.6313 16.7498C41.3135 18.4127 41.7383 20.14 41.9084 21.9272C41.9907 22.7902 42.0368 23.6553 41.9629 24.5196C41.8752 25.5462 41.6653 26.5533 41.3811 27.5448C40.5372 30.4845 39.0468 33.0674 36.923 35.2927C34.7025 37.6192 32.0484 39.2925 28.9719 40.3029C28.0479 40.6064 27.084 40.7567 26.1167 40.8715C25.5063 40.9438 24.8933 40.976 24.3769 40.9967V40.9963Z" fill="#181818"/>
<path d="M6.52767 9.2433C7.02341 8.49916 7.58421 7.80438 8.18337 7.14249C8.51597 6.77526 8.91168 6.47045 9.31905 6.13708C8.43731 7.24361 7.47982 8.2437 6.56894 9.28442C6.53301 9.29265 6.51407 9.28443 6.52767 9.2433Z" fill="#F8F2EA"/>
<path d="M37.6303 6.86435C38.7038 7.73574 39.6783 8.70534 40.5435 9.78284C40.5508 9.81816 40.5406 9.83606 40.5013 9.823C39.5763 8.80501 38.581 7.85669 37.5846 6.90935C37.5778 6.87258 37.5905 6.85467 37.6298 6.86435H37.6303Z" fill="#F8F2EA"/>
<path d="M46.4572 21.8884C46.5742 22.7932 46.6354 23.7004 46.5466 24.6109C46.5136 24.9525 46.4611 25.2922 46.4174 25.6328C46.3159 25.5854 46.3834 25.5075 46.3825 25.4417C46.4364 24.5959 46.4859 23.7502 46.4567 22.902C46.4456 22.5774 46.431 22.2527 46.4174 21.9281C46.4043 21.8889 46.4213 21.8792 46.4572 21.8879V21.8884Z" fill="#F8F2EA"/>
<path d="M26.3018 45.0136C25.8031 45.078 25.305 45.1443 24.8058 45.2062C24.3368 45.2647 23.8663 45.3136 23.3978 45.3784C23.2739 45.3958 23.156 45.3765 23.0355 45.3736C23.0001 45.3726 22.9336 45.4041 22.9418 45.3242C22.9472 45.2734 22.9889 45.2536 23.0389 45.2502C23.2176 45.2386 23.3958 45.2202 23.575 45.2139C24.3805 45.1859 25.1802 45.0939 25.9789 44.9918C26.0852 44.9783 26.1925 44.9614 26.3018 45.0131V45.0136Z" fill="#F8F2EA"/>
<path d="M14.7594 3.85102C15.7227 3.31251 16.7758 3.00963 17.8222 2.68981C17.8639 2.67578 17.8741 2.69465 17.8669 2.73239C16.8327 3.08753 15.8028 3.45572 14.7997 3.89214C14.7599 3.90375 14.7502 3.88682 14.7594 3.85102Z" fill="#F8F2EA"/>
<path d="M36.5449 40.951C37.3863 40.2165 38.2477 39.5034 39.0274 38.6992C38.8391 39.066 37.0746 40.6752 36.5449 40.951Z" fill="#F8F2EA"/>
<path d="M40.3089 7.73328C40.6769 8.00277 42.0903 9.65652 42.2875 10.0325C41.5766 9.31058 41.0178 8.45806 40.3089 7.73328Z" fill="#F8F2EA"/>
<path d="M36.658 5.49509C36.1482 5.19995 35.6388 4.90433 35.129 4.60919C35.6908 4.81385 36.2851 4.96094 36.658 5.49509Z" fill="#F8F2EA"/>
<path d="M6.41104 10.466C6.76015 9.96526 7.15441 9.49884 7.54576 9.03098C7.57295 8.99808 7.59625 8.92066 7.66083 8.96905C7.7322 9.02275 7.66908 9.06581 7.63315 9.10839C7.23938 9.57481 6.8456 10.0417 6.45231 10.5086C6.41784 10.5144 6.39842 10.5052 6.41153 10.466H6.41104Z" fill="#F8F2EA"/>
<path d="M46.1638 27.4878C46.0623 28.1603 45.905 28.8198 45.6918 29.4662C45.6802 29.4802 45.668 29.4807 45.6549 29.4677C45.8254 28.7695 45.9987 28.0723 46.1215 27.3635C46.2133 27.3785 46.1614 27.4423 46.1638 27.4873V27.4878Z" fill="#F8F2EA"/>
<path d="M40.5022 9.823C40.5163 9.80945 40.5304 9.79638 40.5445 9.78284C41.0154 10.3218 41.4262 10.9048 41.8161 11.5034C41.8292 11.5411 41.8113 11.5474 41.7792 11.5396C41.3859 10.9436 40.9397 10.3867 40.5022 9.823Z" fill="#F8F2EA"/>
<path d="M46.1641 27.4877C46.1452 27.4481 46.1724 27.3924 46.1219 27.3639C46.2088 26.7233 46.2957 26.0827 46.3826 25.4421C46.4069 25.5035 46.3695 25.5761 46.4176 25.6332C46.3331 26.2515 46.2486 26.8694 46.1646 27.4877H46.1641Z" fill="#F8F2EA"/>
<path d="M45.4665 30.1976C45.3606 30.7303 45.1358 31.2229 44.9484 31.728C44.9154 31.817 44.877 31.9041 44.8411 31.9921C44.809 31.9965 44.7862 31.9931 44.8076 31.9525C45.0256 31.3598 45.2548 30.7705 45.4364 30.1652C45.4509 30.1599 45.4655 30.155 45.4752 30.172C45.4791 30.1787 45.4737 30.1884 45.4669 30.1976H45.4665Z" fill="#F8F2EA"/>
<path d="M45.7999 17.321C45.9791 17.8759 46.1515 18.4328 46.1694 19.0212C46.0461 18.4546 45.9233 17.888 45.7999 17.321Z" fill="#F8F2EA"/>
<path d="M22.5213 1.70375C22.9408 1.66311 23.3584 1.59731 23.7798 1.58618C23.7818 1.60941 23.7842 1.63215 23.7861 1.65537C23.3778 1.68537 22.9695 1.71537 22.5606 1.74536C22.5218 1.75552 22.5106 1.73956 22.5208 1.70327L22.5213 1.70375Z" fill="#F8F2EA"/>
<path d="M1.73288 23.3147V24.458C1.71249 24.458 1.6921 24.457 1.67171 24.4565C1.58528 24.0453 1.73677 23.6418 1.73288 23.3147Z" fill="#F8F2EA"/>
<path d="M2.92789 16.3311C2.85117 16.5391 2.77251 16.7472 2.69822 16.9562C2.6788 17.0109 2.6555 17.0549 2.5914 17.0292C2.50886 16.9959 2.5715 16.9484 2.58995 16.9107C2.68463 16.7162 2.78174 16.5236 2.87836 16.3301C2.89535 16.3141 2.91186 16.3146 2.92837 16.3316L2.92789 16.3311Z" fill="#F8F2EA"/>
<path d="M18.9002 2.11408C18.5273 2.20649 18.1548 2.2989 17.782 2.3918C18.1184 2.20456 18.4894 2.13972 18.8603 2.07392C18.8982 2.06328 18.9094 2.07876 18.9002 2.11456V2.11408Z" fill="#F8F2EA"/>
<path d="M2.57703 29.3167C2.39835 28.9576 2.34785 28.5628 2.2959 28.168C2.38961 28.5507 2.48332 28.9339 2.57703 29.3167Z" fill="#F8F2EA"/>
<path d="M6.4108 10.466C6.42439 10.48 6.43799 10.4945 6.45158 10.5086C6.28116 10.7423 6.11073 10.9764 5.94031 11.2101C5.92574 11.2005 5.91166 11.1908 5.89709 11.1811C6.06169 10.9387 6.21804 10.6905 6.4108 10.466Z" fill="#F8F2EA"/>
<path d="M9.51031 40.098C9.73852 40.2784 9.96673 40.4589 10.1949 40.6394C9.83806 40.4754 9.61713 40.2997 9.51031 40.098Z" fill="#F8F2EA"/>
<path d="M27.2774 1.36513C27.0181 1.34577 26.7583 1.32594 26.4801 1.30513C26.7661 1.15611 27.0205 1.33126 27.2822 1.31771C27.2803 1.33319 27.2788 1.34916 27.2769 1.36464L27.2774 1.36513Z" fill="#F8F2EA"/>
<path d="M32.0341 3.3009C32.3337 3.33913 32.5935 3.45379 32.8299 3.62604C32.5648 3.51766 32.2992 3.40928 32.0341 3.3009Z" fill="#F8F2EA"/>
<path d="M17.8669 2.7324C17.8519 2.71836 17.8373 2.70385 17.8222 2.68982C18.0398 2.59015 18.2723 2.54709 18.501 2.49048C18.5059 2.50596 18.5107 2.52144 18.5156 2.53693C18.299 2.60224 18.083 2.66708 17.8664 2.7324H17.8669Z" fill="#F8F2EA"/>
<path d="M28.5931 44.8279C28.7781 44.7732 28.9631 44.7181 29.1481 44.6634C29.0379 44.854 28.8349 44.8105 28.6732 44.8695C28.6334 44.8801 28.5883 44.9019 28.5931 44.8279Z" fill="#F8F2EA"/>
<path d="M25.0112 45.6451C25.3079 45.6398 25.6007 45.5561 25.9003 45.6122C25.6036 45.6175 25.3118 45.7138 25.0112 45.6451Z" fill="#F8F2EA"/>
<path d="M8.84326 38.9276C9.01175 39.0853 9.18071 39.2435 9.3492 39.4012C9.33852 39.4124 9.32735 39.424 9.31667 39.4351C9.13022 39.2953 8.96708 39.1317 8.84326 38.9276Z" fill="#F8F2EA"/>
<path d="M9.85894 39.8971C9.67977 39.7747 9.5176 39.6339 9.38068 39.465C9.5681 39.5768 9.73172 39.7171 9.88613 39.869C9.89001 39.8903 9.88079 39.9 9.85894 39.8971Z" fill="#F8F2EA"/>
<path d="M3.55658 32.5061C3.43811 32.3131 3.36042 32.1045 3.32983 31.8766C3.41529 32.0779 3.50074 32.2797 3.5862 32.481C3.5862 32.5008 3.57649 32.509 3.55707 32.5066L3.55658 32.5061Z" fill="#F8F2EA"/>
<path d="M37.6306 6.86427C37.6155 6.87926 37.6005 6.89426 37.5854 6.90926C37.4694 6.80379 37.3533 6.69831 37.2378 6.59283C37.3985 6.64557 37.5223 6.74476 37.6311 6.86427H37.6306Z" fill="#F8F2EA"/>
<path d="M41.7789 11.5396C41.7911 11.5275 41.8037 11.5155 41.8158 11.5034C41.9426 11.6437 42.0295 11.8072 42.0902 11.9891C41.9863 11.8391 41.8828 11.6891 41.7789 11.5396Z" fill="#F8F2EA"/>
<path d="M18.9002 2.11408C18.8871 2.10053 18.8735 2.08698 18.8604 2.07344C19.0483 2.0115 19.2391 1.96409 19.4382 1.96167C19.4426 1.96651 19.4465 1.97183 19.4508 1.97667C19.2746 2.05215 19.0852 2.07344 18.9002 2.11359V2.11408Z" fill="#F8F2EA"/>
<path d="M12.6731 41.8329C12.812 41.9137 12.9513 41.9945 13.0902 42.0748C12.9217 42.0477 12.7799 41.9693 12.6731 41.8329Z" fill="#F8F2EA"/>
<path d="M28.5931 44.8279C28.6028 44.8743 28.6465 44.8555 28.6732 44.8695C28.5072 44.9082 28.3416 44.9474 28.1756 44.9861C28.3028 44.8942 28.4465 44.8564 28.5931 44.8279Z" fill="#F8F2EA"/>
<path d="M46.4572 21.8883C46.444 21.9019 46.4309 21.9149 46.4173 21.9285C46.3659 21.7877 46.38 21.644 46.4149 21.4984L46.4572 21.8883Z" fill="#F8F2EA"/>
<path d="M10.4498 40.3592C10.3216 40.2832 10.1997 40.199 10.0978 40.0897C10.0968 40.0708 10.1065 40.0641 10.1245 40.0684C10.2517 40.1236 10.342 40.2276 10.4488 40.3098C10.4658 40.3258 10.4663 40.3423 10.4498 40.3592Z" fill="#F8F2EA"/>
<path d="M14.7595 3.85107C14.7731 3.86462 14.7862 3.87865 14.7998 3.8922C14.6973 3.96332 14.5837 4.00783 14.4599 4.02719C14.5478 3.94639 14.6468 3.88736 14.759 3.85059L14.7595 3.85107Z" fill="#F8F2EA"/>
<path d="M22.5213 1.70374C22.5344 1.71777 22.548 1.7318 22.5611 1.74583C22.4334 1.81066 22.3004 1.77921 22.1654 1.74922C22.2839 1.73422 22.4028 1.71873 22.5213 1.70374Z" fill="#F8F2EA"/>
<path d="M2.92764 16.3309C2.91113 16.3309 2.89413 16.33 2.87762 16.3295C2.92666 16.2216 2.9757 16.1137 3.02474 16.0063C3.02135 16.1263 3.00192 16.2385 2.92764 16.3309Z" fill="#F8F2EA"/>
<path d="M3.74536 14.249C3.80411 14.1295 3.86286 14.0095 3.92161 13.89C3.93618 13.8968 3.95123 13.9036 3.9658 13.9103C3.90996 14.0313 3.875 14.1619 3.74536 14.249Z" fill="#F8F2EA"/>
<path d="M45.1259 17.8222C45.0972 17.708 45.0686 17.5939 45.0399 17.4797C45.1239 17.5643 45.1599 17.665 45.1613 17.7772C45.1798 17.8159 45.1613 17.8261 45.1254 17.8222H45.1259Z" fill="#F8F2EA"/>
<path d="M44.8074 31.9526C44.8186 31.9656 44.8297 31.9792 44.8409 31.9923C44.805 32.0934 44.7647 32.1921 44.6676 32.2995C44.7035 32.1563 44.7467 32.0513 44.8074 31.9526Z" fill="#F8F2EA"/>
<path d="M6.52746 9.24329C6.54106 9.25683 6.55514 9.27086 6.56873 9.28441C6.52261 9.38892 6.43909 9.46295 6.35364 9.53746C6.38811 9.42521 6.44346 9.32602 6.52746 9.24329Z" fill="#F8F2EA"/>
<path d="M3.58571 32.4809C3.64689 32.5873 3.70467 32.6943 3.71729 32.821C3.64349 32.7262 3.58328 32.6251 3.55658 32.5065C3.56629 32.4978 3.576 32.4896 3.58571 32.4809Z" fill="#F8F2EA"/>
<path d="M10.4498 40.3589C10.4498 40.3425 10.4493 40.3262 10.4489 40.3098C10.5445 40.3647 10.6319 40.4296 10.698 40.523C10.6058 40.4831 10.5131 40.4446 10.4498 40.3594V40.3589Z" fill="#F8F2EA"/>
<path d="M44.8164 16.5565C44.7416 16.4748 44.6858 16.3862 44.7057 16.2328C44.7518 16.3678 44.7844 16.4622 44.8164 16.5565Z" fill="#F8F2EA"/>
<path d="M45.1259 17.8222C45.138 17.8072 45.1497 17.7922 45.1618 17.7772C45.2104 17.8672 45.2244 17.9645 45.2094 18.069C45.1817 17.9867 45.1536 17.9045 45.1259 17.8222Z" fill="#F8F2EA"/>
<path d="M45.6551 29.4676C45.6677 29.473 45.6798 29.472 45.692 29.4662C45.6643 29.5542 45.6366 29.6428 45.5924 29.7836C45.5769 29.6312 45.6021 29.5465 45.6551 29.4681V29.4676Z" fill="#F8F2EA"/>
<path d="M19.438 1.9621C19.539 1.91129 19.6448 1.88904 19.7978 1.90694C19.6565 1.93548 19.5599 1.98435 19.4506 1.97709C19.4462 1.97226 19.4424 1.96693 19.438 1.9621Z" fill="#F8F2EA"/>
<path d="M10.0965 40.0885C10.0173 40.0245 9.93815 39.961 9.85895 39.897C9.86812 39.8878 9.87682 39.8782 9.88599 39.8691C9.9763 39.922 10.056 39.9875 10.1231 40.0673C10.1115 40.0707 10.1028 40.0779 10.0965 40.0885Z" fill="#F8F2EA"/>
<path d="M45.4668 30.1978C45.4566 30.1871 45.4464 30.176 45.4362 30.1653C45.4605 30.0812 45.4848 29.997 45.5091 29.9128C45.5222 30.0134 45.5261 30.1116 45.4664 30.1978H45.4668Z" fill="#F8F2EA"/>
<path d="M14.1582 31.2024C13.1571 31.1692 12.0121 30.8576 11.0576 30.0448C10.1658 29.2889 9.63431 28.3115 9.4217 27.1657C9.22925 26.1932 9.35182 25.1847 9.77162 24.2866C10.2124 23.328 10.9515 22.5376 11.8785 22.0335C12.6768 21.5813 13.5819 21.3518 14.4993 21.3691C16.7398 21.4053 18.6725 22.8899 19.2077 25.1016C19.469 26.1854 19.4292 27.2425 18.9641 28.2598C18.3883 29.531 17.4618 30.4405 16.1389 30.9174C15.5741 31.1226 14.9909 31.2075 14.1582 31.2024ZM19.0039 26.1477C18.9678 24.9488 18.4215 23.6532 17.2182 22.678C15.7092 21.4511 13.795 21.2495 12.1849 22.1273C10.5431 23.022 9.68229 24.421 9.73544 26.2946C9.78417 28.011 10.5918 29.3479 12.0587 30.2397C13.3439 31.0222 14.7266 31.209 16.1588 30.6768C17.8774 30.0352 19.0017 28.358 19.0039 26.1477Z" fill="#F8F2EA"/>
<path d="M35.1328 30.4021C35.1077 31.8336 34.5895 33.0553 33.5338 34.0268C32.8276 34.68 31.9223 35.0768 30.9633 35.1534C29.2454 35.3106 27.7786 34.7422 26.5841 33.5175C25.7721 32.6825 25.3446 31.649 25.2819 30.4782C25.2144 29.4446 25.4971 28.4184 26.0843 27.5651C26.7414 26.5988 27.6427 25.9683 28.7471 25.6191C29.2667 25.4555 29.8089 25.3755 30.3535 25.3822C31.3074 25.3932 32.2356 25.6931 33.0156 26.2422C33.8037 26.7717 34.4107 27.5299 34.7549 28.4148C35.0055 29.0474 35.1338 29.7217 35.1328 30.4021ZM30.4539 34.9895C32.2183 34.9895 33.7708 34.0017 34.4655 32.388C35.2177 30.6421 34.9874 28.97 33.8409 27.4876C32.7653 26.0982 31.2992 25.4294 29.5201 25.676C27.1334 26.0074 25.3011 28.186 25.6325 30.7565C25.7851 31.9272 26.3585 33.0024 27.2457 33.7813C28.1329 34.5603 29.2733 34.9897 30.4539 34.9895Z" fill="#F8F2EA"/>
<path d="M26.249 19.356C25.059 19.3316 23.9774 18.8799 23.0244 18.0914C22.267 17.4654 21.7155 16.6962 21.4195 15.7593C20.995 14.415 21.1759 13.129 21.9082 11.9383C22.7084 10.6375 23.9014 9.90517 25.4096 9.69625C25.651 9.66303 25.9013 9.62243 26.1382 9.65122C26.655 9.7184 27.1762 9.77819 27.6679 9.97235C29.0616 10.5223 30.0774 11.468 30.6045 12.8788C31.232 14.5568 31.0637 16.155 29.9726 17.6071C29.1967 18.6407 28.1329 19.1796 26.858 19.325C26.6742 19.3457 26.4904 19.3494 26.249 19.356ZM30.6739 14.6535C30.6795 14.401 30.6589 14.1487 30.6127 13.9005C30.2997 12.1007 29.292 10.8383 27.6177 10.1392C26.2667 9.57518 24.9283 9.69625 23.6703 10.4382C22.2382 11.2834 21.4556 12.5562 21.401 14.2216C21.3523 15.6353 21.8631 16.8578 22.9004 17.8183C24.1339 18.9611 25.6008 19.4225 27.2596 19.0556C29.2831 18.6074 30.6732 16.7973 30.6739 14.6535Z" fill="#F8F2EA"/>
<path d="M17.4411 21.6039C17.4872 21.3787 17.5828 21.1667 17.7209 20.983C17.9952 20.6162 18.2986 20.272 18.6282 19.9539C19.2188 19.3707 19.7917 18.7646 20.4 18.2006C20.5794 18.0353 20.7632 17.8736 20.9559 17.7245C21.1485 17.5753 21.3715 17.4528 21.6446 17.5222C21.996 17.6115 22.0876 17.9039 21.8661 18.1932C21.559 18.5882 21.1847 18.9174 20.851 19.2851C20.1866 20.0167 19.4484 20.6693 18.7448 21.3595C18.5257 21.5701 18.2829 21.7546 18.0214 21.9095C17.9704 21.9415 17.9152 21.9663 17.8575 21.9833C17.5954 22.0557 17.4426 21.9383 17.4411 21.6039ZM21.8166 17.9459C21.8166 17.7761 21.7583 17.7082 21.6092 17.6706C21.4601 17.6329 21.3471 17.7008 21.2364 17.7784C20.8466 18.0493 20.5085 18.3815 20.16 18.7019C19.4218 19.3847 18.7574 20.1444 18.0413 20.8523C17.8752 21.0162 17.7076 21.1816 17.6227 21.409C17.574 21.5389 17.5637 21.6666 17.67 21.7692C17.7763 21.8718 17.8974 21.8467 18.0177 21.7914C18.3455 21.6437 18.6083 21.3994 18.8526 21.1476C19.2911 20.6983 19.7304 20.2497 20.1704 19.8018C20.6613 19.3058 21.1537 18.8119 21.6417 18.3136C21.7435 18.2095 21.8292 18.0914 21.8166 17.9459Z" fill="#F8F2EA"/>
<path d="M29.2085 24.5303C29.1347 24.5214 29.1281 24.4513 29.1045 24.4018C28.7396 23.6488 28.4364 22.8674 28.1979 22.0653C28.0252 21.4821 27.7919 20.921 27.5837 20.3504C27.5169 20.1891 27.4691 20.0207 27.4412 19.8484C27.4073 19.5642 27.4781 19.4217 27.6797 19.3457C27.7867 19.3096 27.9029 19.3115 28.0086 19.3512C28.1143 19.3909 28.2031 19.4659 28.2599 19.5634C28.3781 19.7539 28.4827 19.9525 28.5729 20.1577C28.8933 20.8214 29.1779 21.5018 29.4256 22.196C29.6685 22.9017 29.9209 23.606 30.0442 24.3457C30.0819 24.5716 29.9704 24.7547 29.7969 24.8883C29.7477 24.9326 29.683 24.9557 29.6168 24.9523C29.5507 24.949 29.4885 24.9196 29.444 24.8706C29.3407 24.7724 29.227 24.6838 29.2071 24.5288C29.2377 24.5605 29.2703 24.5903 29.3045 24.6181C29.4359 24.7096 29.5784 24.7768 29.7356 24.6971C29.8929 24.6174 29.9172 24.469 29.9195 24.314C29.9183 24.2594 29.9086 24.2053 29.8907 24.1538C29.836 23.9781 29.7844 23.8009 29.7187 23.6289C29.3988 22.7922 29.0766 21.9573 28.7523 21.1241C28.581 20.6811 28.4378 20.233 28.2437 19.8019C28.1991 19.6744 28.1247 19.5595 28.0266 19.4667C27.9248 19.384 27.8118 19.3294 27.6826 19.3929C27.5534 19.4564 27.5224 19.5752 27.5224 19.7059C27.5224 19.8742 27.5903 20.0234 27.6413 20.1799C28.1167 21.6465 28.6391 23.0966 29.2085 24.5303Z" fill="#F8F2EA"/>
<path d="M19.2358 28.3964C19.2712 28.2487 19.3731 28.1749 19.582 28.1638C19.8659 28.1491 20.1506 28.163 20.4317 28.2052C21.5201 28.3689 22.598 28.5959 23.66 28.8851C24.0151 28.9803 24.379 29.0467 24.7223 29.1804C24.8201 29.2123 24.9089 29.267 24.9816 29.3399C25.0542 29.4127 25.1085 29.5018 25.1401 29.5997C25.1556 29.6367 25.1631 29.6765 25.1621 29.7166C25.1611 29.7566 25.1517 29.7961 25.1345 29.8323C25.1173 29.8685 25.0927 29.9007 25.0623 29.9267C25.0318 29.9528 24.9962 29.9722 24.9578 29.9836C24.7437 30.0714 24.5267 30.0308 24.3096 29.9976C23.2554 29.8374 22.2167 29.5938 21.1714 29.3878C20.6295 29.2808 20.0929 29.1494 19.5473 29.0578C19.4086 29.0351 19.2799 28.971 19.1782 28.874C19.0113 28.716 19.0416 28.4717 19.2372 28.3949C19.1472 28.6105 19.2025 28.7684 19.41 28.8777C19.4712 28.9101 19.5362 28.9349 19.6034 28.9515C20.0094 29.0445 20.411 29.1538 20.8185 29.2402C21.9739 29.486 23.1292 29.7237 24.3 29.8824C24.4833 29.91 24.6707 29.8881 24.8426 29.8189C24.8836 29.8057 24.9177 29.777 24.9377 29.7389C24.9577 29.7008 24.962 29.6564 24.9497 29.6152C24.9334 29.5239 24.8914 29.4391 24.8287 29.3709C24.7659 29.3026 24.6849 29.2537 24.5953 29.2298C24.3184 29.1482 24.0362 29.0855 23.7508 29.0423C22.4611 28.7913 21.1736 28.5256 19.8825 28.2849C19.6669 28.2472 19.4233 28.1978 19.2358 28.3964Z" fill="#F8F2EA"/>
<path d="M24.0904 38.4592C23.7412 38.4592 23.4407 38.1403 23.4437 37.7749C23.4437 37.3843 23.7921 37.0684 24.2188 37.0662C24.6094 37.0662 24.8293 37.3068 24.8257 37.7357C24.822 38.1853 24.54 38.4629 24.0904 38.4592ZM24.1863 38.189C24.3857 38.1957 24.5385 38.0702 24.5459 37.8937C24.5555 37.6848 24.4211 37.4936 24.2602 37.4855C24.0217 37.4744 23.7715 37.7018 23.7692 37.9328C23.7685 38.0643 23.9627 38.1846 24.1863 38.192V38.189Z" fill="#181818"/>
<path d="M19.4447 33.9235C19.4624 34.3162 19.0852 34.6388 18.8393 34.6462C18.4872 34.6558 18.1971 34.3465 18.2 33.9597C18.2 33.5529 18.4407 33.355 18.8261 33.3196C19.1752 33.2916 19.444 33.5743 19.4447 33.9235ZM18.8541 33.7906C18.5979 33.7906 18.5064 33.8541 18.502 34.0394C18.502 34.1656 18.6954 34.3465 18.8379 34.348C18.9803 34.3494 19.1332 34.2217 19.1405 34.1103C19.1448 34.0699 19.1405 34.029 19.1279 33.9904C19.1153 33.9517 19.0947 33.9162 19.0675 33.886C19.0403 33.8559 19.007 33.8318 18.9699 33.8154C18.9327 33.7989 18.8925 33.7905 18.8519 33.7906H18.8541ZM19.1236 33.6363C18.9508 33.4695 18.7338 33.4687 18.5477 33.6275C18.6496 33.6275 18.7308 33.5706 18.8253 33.5699C18.9198 33.5691 19.0025 33.6201 19.1213 33.6363H19.1236Z" fill="#181818"/>
<path d="M14.0047 15.2595C13.6481 15.2544 13.3484 14.9871 13.3499 14.6763C13.3499 14.432 13.6496 14.1728 13.9286 14.1736C14.2077 14.1743 14.4823 14.5132 14.472 14.838C14.4668 15.089 14.2704 15.264 14.0047 15.2595ZM14.1885 14.7383C14.1908 14.7098 14.1869 14.6811 14.1771 14.6542C14.1672 14.6273 14.1517 14.6029 14.1314 14.5826C14.1112 14.5623 14.0868 14.5466 14.06 14.5367C14.0331 14.5267 14.0044 14.5228 13.9759 14.525C13.7987 14.525 13.6474 14.6232 13.6474 14.7413C13.6474 14.8594 13.8002 14.9915 13.936 14.9915C13.9698 14.9936 14.0036 14.9885 14.0352 14.9765C14.0668 14.9644 14.0955 14.9458 14.1194 14.9219C14.1433 14.898 14.1618 14.8692 14.1737 14.8376C14.1856 14.8059 14.1906 14.7721 14.1885 14.7383Z" fill="#181818"/>
<path d="M35.5212 15.4832C35.5212 15.7652 35.3359 15.9328 35.0236 15.9328C34.7113 15.9328 34.4212 15.684 34.4234 15.4072C34.4234 15.1437 34.7261 14.8358 34.98 14.8365C35.2569 14.8358 35.5204 15.1533 35.5212 15.4832ZM34.7829 15.1473C34.8855 15.092 35.0019 15.0677 35.1181 15.0772C34.9616 14.982 34.9092 14.9916 34.7645 15.1282C34.7527 15.1282 34.7364 15.1355 34.7475 15.1518C34.7527 15.1562 34.7726 15.1496 34.7851 15.1473H34.7829ZM35.0686 15.7616C35.1616 15.7616 35.2554 15.7475 35.2997 15.6545C35.3204 15.601 35.3272 15.5431 35.3193 15.4863C35.3114 15.4294 35.2892 15.3755 35.2547 15.3297C35.2146 15.269 35.1526 15.2263 35.0816 15.2106C35.0107 15.1949 34.9364 15.2074 34.8745 15.2455C34.7482 15.3142 34.6877 15.436 34.7416 15.5364C34.7719 15.5995 34.8183 15.6535 34.8761 15.693C34.9339 15.7325 35.001 15.7562 35.0708 15.7616H35.0686Z" fill="#181818"/>
<path d="M31.8957 19.3767C31.6336 19.3767 31.4528 19.2423 31.4587 19.0504C31.4646 18.8584 31.703 18.6325 31.9142 18.6311C32.1253 18.6296 32.2899 18.809 32.2907 19.0452C32.2907 19.246 32.1334 19.3774 31.8957 19.3767ZM32.0478 19.0585C32.033 19.0061 32.0286 18.9197 31.9223 18.933C31.8307 18.9441 31.7104 18.9935 31.7163 19.0688C31.7244 19.167 31.8544 19.1766 31.9474 19.1855C32.0219 19.1914 32.0574 19.1522 32.0478 19.0585Z" fill="#181818"/>
<path d="M17.292 13.4508C17.2914 13.5019 17.2805 13.5524 17.2598 13.5991C17.2392 13.6458 17.2093 13.6879 17.172 13.7228C17.1347 13.7577 17.0907 13.7847 17.0427 13.8022C16.9947 13.8196 16.9437 13.8272 16.8926 13.8244C16.6586 13.8244 16.4571 13.6509 16.4608 13.4553C16.4659 13.2338 16.6992 13.016 16.9303 13.0123C17.1289 13.0145 17.295 13.2117 17.292 13.4508ZM16.903 13.6214C16.9768 13.6022 17.0809 13.6155 17.0787 13.4892C17.0787 13.3851 16.9657 13.2463 16.8882 13.2493C16.8107 13.2523 16.6667 13.3837 16.6616 13.4627C16.6564 13.5416 16.7745 13.6228 16.903 13.6214Z" fill="#181818"/>
<path d="M37.8517 18.1822C37.8517 18.3638 37.7233 18.4819 37.5306 18.4775C37.4856 18.4789 37.4408 18.4709 37.3991 18.454C37.3574 18.4372 37.3196 18.4117 37.2883 18.3794C37.257 18.3471 37.2327 18.3086 37.2171 18.2664C37.2015 18.2242 37.1949 18.1791 37.1977 18.1342C37.1977 17.943 37.352 17.7651 37.5166 17.7585C37.693 17.7518 37.8517 17.9534 37.8517 18.1822ZM37.5439 18.3092C37.6281 18.3055 37.6916 18.2848 37.679 18.1888C37.6642 18.1047 37.6288 18.0117 37.5314 18.0146C37.4935 18.0176 37.4583 18.0351 37.433 18.0635C37.4077 18.0918 37.3943 18.1287 37.3955 18.1667C37.4022 18.2427 37.4435 18.3225 37.5439 18.3092Z" fill="#181818"/>
<path d="M23.0908 33.5559C23.003 33.5582 22.9177 33.5264 22.8527 33.4672C22.7878 33.4081 22.7482 33.3261 22.7424 33.2384C22.7365 33.0849 22.9048 32.935 23.0856 32.9335C23.1683 32.938 23.2463 32.9736 23.3038 33.0332C23.3613 33.0927 23.3941 33.1719 23.3957 33.2547C23.3951 33.335 23.3627 33.4118 23.3055 33.4683C23.2484 33.5248 23.1712 33.5563 23.0908 33.5559ZM23.076 33.2111C23.0163 33.2229 22.9446 33.2414 22.9491 33.3108C22.9535 33.3802 23.0288 33.4193 23.1026 33.4178C23.158 33.4178 23.22 33.3979 23.2119 33.3255C23.2078 33.2929 23.1916 33.2629 23.1664 33.2417C23.1412 33.2205 23.1089 33.2096 23.076 33.2111Z" fill="#181818"/>
<path d="M19.004 26.1477C19.004 28.358 17.8774 30.0352 16.1588 30.6738C14.7267 31.2061 13.344 31.0193 12.0587 30.2368C10.5918 29.345 9.7842 28.008 9.73548 26.2917C9.68232 24.418 10.5431 23.0191 12.1849 22.1243C13.795 21.2466 15.7092 21.4481 17.2182 22.6751C18.4215 23.6532 18.97 24.9495 19.004 26.1477ZM10.5483 24.7362C10.5551 24.7294 10.5615 24.7223 10.5675 24.7148C10.5675 24.7148 10.5675 24.7081 10.5638 24.7045L10.5483 24.7384C10.549 24.7423 10.549 24.7463 10.5483 24.7502C10.5483 24.7502 10.5431 24.7539 10.5409 24.7554L10.5483 24.7362ZM17.072 24.2364L17.0764 24.2312H17.0698C17.0838 24.2512 17.0735 24.2851 17.106 24.2947C17.1366 24.3939 17.2043 24.4775 17.295 24.528L17.1252 24.28C17.1089 24.2623 17.106 24.2298 17.072 24.2364ZM10.1954 26.1204V26.6659H10.2301V26.1182C10.2609 26.0099 10.2635 25.8955 10.2375 25.786C10.2036 25.894 10.1894 26.0073 10.1954 26.1204ZM17.0285 23.1372C16.9856 23.1018 16.9546 23.0707 16.9163 23.0456C15.7513 22.2557 14.5111 21.9383 13.1395 22.4484C12.6426 22.6345 12.1443 22.833 11.7656 23.2125C10.7321 24.246 10.346 25.5054 10.5527 26.9435C10.6801 27.8264 11.0889 28.6445 11.7184 29.2765C12.3479 29.9085 13.1644 30.3206 14.0467 30.4516C14.0792 30.4627 14.1145 30.4613 14.146 30.4476C14.1774 30.4339 14.2025 30.409 14.2165 30.3778C14.4218 30.005 15.1984 30.0086 15.4206 30.2648C15.4404 30.2916 15.4691 30.3105 15.5016 30.3181C15.534 30.3257 15.5681 30.3214 15.5978 30.3062C16.3173 30.0876 16.9635 29.6769 17.467 29.1183C18.1421 28.3745 18.5153 27.4053 18.5134 26.4008C18.5114 25.3962 18.1346 24.4285 17.4566 23.6872C17.416 23.6429 17.3828 23.5668 17.2994 23.6067C17.2656 23.6235 17.2379 23.6505 17.2203 23.6839C17.2027 23.7173 17.196 23.7554 17.2012 23.7927C17.2134 23.937 17.2644 24.0753 17.3489 24.1929C17.4433 24.3405 17.5386 24.4882 17.6286 24.6358C17.7416 24.8218 17.7431 25.0337 17.6375 25.1348C17.5452 25.2227 17.3636 25.2087 17.1761 25.1038C16.8705 24.9311 16.7081 24.6491 16.6047 24.3294C16.4335 23.7942 16.553 23.4598 17.0285 23.1372ZM15.9588 22.3369C15.6679 22.1671 15.3359 22.0802 14.9991 22.0859C15.3236 22.1509 15.644 22.2347 15.9588 22.3369ZM17.4891 24.9208C17.4868 24.8488 17.4671 24.7785 17.4317 24.7158C17.3964 24.653 17.3464 24.5998 17.2861 24.5605L17.4891 24.9208ZM10.4951 27.5156L10.4213 27.2203C10.4108 27.3244 10.4369 27.4288 10.4951 27.5156ZM10.7018 24.4092C10.6651 24.4347 10.6364 24.4701 10.6191 24.5112C10.6017 24.5524 10.5963 24.5976 10.6036 24.6417L10.7018 24.4092ZM16.1086 22.3886C16.0732 22.3731 16.054 22.3296 15.9905 22.3716C16.0355 22.3761 16.057 22.4122 16.1049 22.3886H16.1086ZM12.6906 22.5289C12.7578 22.5126 12.7969 22.5208 12.8146 22.4647C12.7983 22.4659 12.7822 22.4691 12.7667 22.4743C12.739 22.4909 12.7124 22.5091 12.6869 22.5289H12.6906ZM12.5887 22.5879V22.582L12.5784 22.5894C12.5747 22.5901 12.571 22.5901 12.5673 22.5894L12.5887 22.5879ZM12.667 22.5348L12.6603 22.5437H12.6707L12.667 22.5348Z" fill="#181818"/>
<path d="M30.4539 34.9895C29.2733 34.9897 28.133 34.5603 27.2458 33.7813C26.3585 33.0024 25.7851 31.9272 25.6326 30.7565C25.3011 28.1867 27.1334 26.0074 29.5201 25.676C31.2992 25.4294 32.7683 26.0982 33.841 27.4876C34.9874 28.97 35.2178 30.6421 34.4655 32.388C33.7708 33.9988 32.2183 34.9836 30.4539 34.9895ZM26.6964 28.166C26.7163 28.1505 26.731 28.1254 26.7104 28.1107C26.6897 28.0959 26.6816 28.1299 26.6676 28.1424C26.6535 28.155 26.641 28.1749 26.6617 28.1896C26.6823 28.2044 26.689 28.1771 26.6964 28.1631V28.166ZM28.7184 26.4747L28.5707 26.5257C28.5979 26.5349 28.627 26.5369 28.6552 26.5316C28.6833 26.5263 28.7097 26.5139 28.7317 26.4954C28.7501 26.4865 28.79 26.4829 28.7789 26.4622C28.7678 26.4415 28.7361 26.4496 28.7184 26.4718V26.4747ZM26.088 30.3135C26.1268 30.1522 26.132 29.9846 26.1036 29.8211C26.0807 29.9858 26.0349 30.1474 26.0644 30.3165V30.679H26.088V30.3135ZM32.8953 27.1613C32.5345 26.878 32.1311 26.6538 31.7001 26.4969C31.2439 26.3293 30.7743 26.2104 30.2864 26.2193C29.8472 26.2363 29.4137 26.324 29.0026 26.4792C28.1765 26.77 27.4678 27.2137 27.0182 27.9962C26.1264 29.5465 26.1205 31.1027 27.0566 32.6235C27.7085 33.6814 28.6881 34.2911 29.9224 34.4772C29.9903 34.4875 30.0398 34.4919 30.0811 34.4152C30.2849 34.0372 31.0408 34.0261 31.2933 34.2956C31.3119 34.3207 31.3386 34.3386 31.3689 34.3461C31.3992 34.3537 31.4312 34.3504 31.4594 34.3369C31.7123 34.2606 31.9573 34.1603 32.191 34.0372C33.8461 33.1388 34.6626 31.4002 34.2883 29.5524C34.141 28.8452 33.7953 28.1945 33.2917 27.6766C33.212 27.5917 33.1559 27.6197 33.1012 27.6965C33.0716 27.7435 33.0613 27.8001 33.0725 27.8545C33.0983 28.0021 33.1576 28.1417 33.2459 28.2627C33.3596 28.4488 33.4999 28.62 33.57 28.8312C33.5918 28.8855 33.5979 28.9448 33.5879 29.0024C33.5779 29.06 33.552 29.1137 33.5132 29.1575C33.4298 29.2534 33.3139 29.2357 33.2068 29.2032C33.0023 29.1335 32.8254 29.0003 32.7019 28.8231C32.2515 28.2295 32.318 27.6197 32.8953 27.1576V27.1613ZM33.0141 28.3661C33.1035 28.5676 33.2614 28.7234 33.3508 28.9227C33.319 28.6843 33.133 28.5425 33.0141 28.3624V28.3661ZM30.5145 26.0776L31.156 26.175L31.1612 26.1366C30.9507 26.0791 30.7318 26.0592 30.5145 26.0776ZM31.2365 26.189L31.6617 26.3072C31.4897 26.1979 31.3959 26.1728 31.2365 26.189ZM28.8188 26.4578L29.2122 26.319C29.1405 26.3124 29.0682 26.3214 29.0003 26.3453C28.9324 26.3693 28.8705 26.4076 28.8188 26.4578ZM26.5915 28.3174C26.5502 28.3546 26.5222 28.4044 26.5118 28.4591C26.5834 28.4074 26.5834 28.4074 26.5915 28.3174ZM33.0053 28.3174C32.993 28.3119 32.9801 28.3077 32.9669 28.3048C32.9632 28.3048 32.958 28.3181 32.9543 28.3247L32.992 28.3462L33.0053 28.3174ZM29.2942 26.2784V26.2843L29.2839 26.2798L29.2942 26.2784ZM26.6366 28.2376L26.6557 28.2266C26.6557 28.2266 26.6484 28.217 26.6462 28.2177C26.6392 28.2199 26.6325 28.2229 26.6262 28.2266L26.6366 28.2376ZM26.6151 28.276L26.5959 28.2864C26.5996 28.2864 26.6033 28.2967 26.6055 28.296C26.6129 28.2938 26.6199 28.2906 26.6262 28.2864L26.6151 28.276Z" fill="#181818"/>
<path d="M30.6739 14.6535C30.6739 16.7943 29.2831 18.6074 27.2596 19.0555C25.6008 19.4247 24.1339 18.961 22.9004 17.8183C21.8631 16.8586 21.3501 15.6353 21.401 14.2216C21.4593 12.5562 22.2382 11.2834 23.6703 10.4382C24.9253 9.69624 26.2667 9.57517 27.6177 10.1392C29.292 10.8383 30.2996 12.1007 30.6127 13.9042C30.6587 14.1512 30.6792 14.4023 30.6739 14.6535ZM22.4796 12.3864L22.5091 12.3251C22.5268 12.3096 22.549 12.286 22.5268 12.2697C22.5047 12.2535 22.4973 12.2889 22.4855 12.3037L22.4486 12.362C22.4412 12.3782 22.4198 12.3952 22.4427 12.4107C22.4655 12.4262 22.4685 12.3996 22.4759 12.3864H22.4796ZM22.391 12.4742C22.3674 12.5406 22.3127 12.5975 22.3223 12.6905C22.3722 12.64 22.4058 12.5757 22.419 12.506C22.4434 12.4845 22.4626 12.4528 22.4345 12.4321C22.4065 12.4115 22.3998 12.4572 22.3873 12.4735L22.391 12.4742ZM21.92 14.2002C21.9355 14.1312 21.9355 14.0596 21.92 13.9905C21.881 14.0557 21.8663 14.1326 21.8786 14.2076V14.9502C21.9126 14.7007 21.8713 14.4482 21.9163 14.2002H21.92ZM28.7051 11.3462C28.387 11.0918 28.0324 10.887 27.6531 10.7386C27.044 10.5031 26.4217 10.337 25.7573 10.4308C25.367 10.4834 24.985 10.5853 24.6204 10.7342C24.117 10.9424 23.6283 11.1771 23.2584 11.5994C22.5243 12.4272 22.1352 13.5048 22.1714 14.6106C22.2075 15.7164 22.666 16.7663 23.4526 17.5444C24.0625 18.1496 24.8523 18.5405 25.7034 18.6584C25.7676 18.6687 25.8378 18.6945 25.8821 18.6045C26.0725 18.2176 26.8794 18.2088 27.1149 18.4945C27.1277 18.5143 27.1474 18.5286 27.1703 18.5347C27.1931 18.5407 27.2173 18.5379 27.2382 18.527C27.5298 18.4419 27.8111 18.3248 28.0768 18.1778C30.4089 16.88 30.8681 13.7801 29.1502 11.9272C29.103 11.8755 29.0698 11.7685 28.9642 11.8253C28.8704 11.8762 28.8675 11.9678 28.8793 12.0615C28.9075 12.1984 28.9643 12.3277 29.0461 12.441C29.1532 12.6196 29.2846 12.7835 29.3614 12.9806C29.3907 13.039 29.4018 13.105 29.3931 13.1698C29.3844 13.2346 29.3564 13.2952 29.3126 13.3438C29.2204 13.4398 29.0912 13.4177 28.976 13.3704C28.6025 13.2287 28.4142 12.9275 28.2902 12.5717C28.0997 12.0342 28.2186 11.6754 28.7014 11.3462H28.7051ZM27.4597 10.4891C27.3039 10.3717 26.8905 10.2676 26.7163 10.3141C26.9865 10.3725 27.2234 10.4249 27.4597 10.4891ZM28.9996 12.7843L28.7782 12.4683C28.8077 12.5986 28.8872 12.7121 28.9996 12.7843ZM28.9915 12.8271L29.148 13.1179C29.1539 13.0594 29.1421 13.0004 29.1142 12.9486C29.0863 12.8968 29.0436 12.8544 28.9915 12.8271ZM26.2888 10.2647L26.658 10.3068V10.2691C26.5413 10.2329 26.4158 10.2588 26.2888 10.2647ZM25.4768 18.7824C25.5417 18.8621 25.6333 18.8208 25.7145 18.8407L25.4768 18.7824ZM22.0809 15.4072C22.0846 15.5512 22.0972 15.6493 22.1651 15.7342C22.1444 15.639 22.1186 15.5438 22.0831 15.4072H22.0809ZM27.7498 10.6131C27.676 10.5526 27.6022 10.4906 27.4966 10.5149L27.7498 10.6131ZM22.3208 12.7341C22.3127 12.7215 22.3208 12.6949 22.2943 12.7112C22.2818 12.7192 22.2725 12.7312 22.2677 12.7451C22.2677 12.7629 22.2817 12.7695 22.295 12.7629C22.3083 12.7562 22.3127 12.7437 22.3208 12.7341Z" fill="#181818"/>
<path d="M21.8166 17.9459C21.8292 18.0936 21.7428 18.2095 21.6417 18.3151C21.1537 18.8134 20.6613 19.3072 20.1704 19.8033C19.7274 20.2497 19.2882 20.6983 18.8526 21.1491C18.6083 21.4009 18.3455 21.6423 18.0177 21.7929C17.8974 21.8482 17.7741 21.8719 17.67 21.7707C17.5659 21.6696 17.574 21.5404 17.6227 21.4105C17.7076 21.1831 17.8752 21.0177 18.0413 20.8538C18.7567 20.1459 19.4189 19.3862 20.16 18.7034C20.5085 18.383 20.8466 18.0508 21.2364 17.7798C21.3471 17.7023 21.4615 17.6322 21.6092 17.6721C21.7568 17.7119 21.8181 17.7762 21.8166 17.9459ZM19.5606 19.9517L19.5318 19.9761L19.554 19.9857C19.554 19.9731 19.554 19.9606 19.5576 19.948C19.5695 19.9591 19.5783 19.9569 19.5835 19.9421C19.5835 19.9421 19.5835 19.934 19.5798 19.9296L19.5606 19.9517ZM20.0286 19.4468C20.039 19.4785 20.0131 19.4807 19.9947 19.4881L19.847 19.6948C19.8345 19.7096 19.816 19.7221 19.8345 19.745H19.8116L19.819 19.7649L19.8315 19.7435C19.8537 19.7435 19.8618 19.7339 19.8625 19.714C19.9364 19.655 20.0235 19.6077 19.9976 19.4925C20.0094 19.4925 20.0249 19.5058 20.0309 19.5014C20.0508 19.4874 20.0412 19.4674 20.0309 19.4505C20.0412 19.4578 20.0309 19.4933 20.0626 19.4704L20.0286 19.4468ZM19.2166 20.2633L19.2232 20.3009L19.2365 20.295L19.2166 20.2625C19.2291 20.2677 19.2321 20.2972 19.2542 20.2751C19.2764 20.2529 19.2461 20.25 19.2424 20.2382C19.2424 20.2684 19.2601 20.281 19.2875 20.2588C19.2961 20.2507 19.3027 20.2405 19.3067 20.2293C19.283 20.2086 19.2646 20.2345 19.2432 20.2382C19.2469 20.2559 19.2402 20.2662 19.2203 20.2633H19.2166ZM20.6037 18.8961L20.5639 18.9352C20.4873 19.0139 20.42 19.1011 20.3631 19.195C20.349 19.2128 20.3343 19.2297 20.3195 19.2467C20.3047 19.2637 20.2915 19.2748 20.3195 19.2873C20.3239 19.2873 20.3372 19.274 20.3461 19.2666L20.3874 19.2312C20.4664 19.1541 20.5347 19.0667 20.5904 18.9714L20.6355 18.916C20.6392 18.9042 20.648 18.8857 20.6443 18.882C20.6244 18.865 20.6126 18.8805 20.6037 18.8961ZM19.3849 20.1629C19.4484 20.1237 19.5104 20.0839 19.5111 19.9894C19.4624 20.0396 19.4137 20.0905 19.3635 20.1414C19.3509 20.1614 19.3 20.1688 19.3354 20.202C19.3502 20.2145 19.3775 20.188 19.3849 20.1636V20.1629Z" fill="#181818"/>
<path d="M29.2085 24.5302C28.6371 23.0966 28.1147 21.6447 27.6413 20.1747C27.5903 20.0181 27.5217 19.869 27.5224 19.7007C27.5224 19.57 27.5534 19.4482 27.6826 19.3877C27.8118 19.3272 27.9247 19.3818 28.0266 19.4615C28.1247 19.5543 28.1991 19.6692 28.2437 19.7967C28.4378 20.2278 28.581 20.6789 28.7523 21.1189C29.0771 21.9531 29.3992 22.788 29.7186 23.6237C29.7843 23.7957 29.836 23.9729 29.8907 24.1486C29.9085 24.2001 29.9183 24.2542 29.9194 24.3087C29.9194 24.4638 29.8877 24.6151 29.7356 24.6919C29.5835 24.7687 29.4359 24.7044 29.3045 24.6129C29.2703 24.5851 29.2377 24.5553 29.2071 24.5236L29.2085 24.5302ZM28.9302 22.5281C28.9357 22.5132 28.9364 22.4969 28.9325 22.4815C28.9285 22.4661 28.92 22.4523 28.9081 22.4418C28.9081 22.4816 28.9007 22.5082 28.9332 22.5259C29.0163 22.874 29.1248 23.2155 29.258 23.5476C29.3218 23.7885 29.3997 24.0254 29.4913 24.2571L29.5311 24.243C29.4411 23.994 29.3513 23.745 29.2617 23.496C29.2388 23.2981 29.1532 23.118 29.0897 22.9327C29.0424 22.7954 29.0225 22.647 28.9302 22.5281ZM28.863 22.2786V22.2646C28.8596 22.2722 28.8568 22.2801 28.8549 22.2882C28.8549 22.2919 28.8549 22.2963 28.8586 22.3008L28.863 22.2786ZM28.8977 22.3805L28.8889 22.3569C28.8889 22.3606 28.8808 22.3635 28.8808 22.3665C28.88 22.3746 28.88 22.3827 28.8808 22.3908L28.8977 22.3805Z" fill="#181818"/>
<path d="M19.2358 28.3963C19.4233 28.1948 19.6669 28.2487 19.8825 28.2878C21.1736 28.5322 22.4611 28.7942 23.7508 29.0452C24.0362 29.088 24.3184 29.1501 24.5953 29.2313C24.685 29.2551 24.7659 29.3041 24.8287 29.3723C24.8914 29.4406 24.9334 29.5253 24.9497 29.6166C24.962 29.6578 24.9577 29.7022 24.9377 29.7403C24.9177 29.7784 24.8836 29.8071 24.8426 29.8204C24.6707 29.8895 24.4833 29.9114 24.3 29.8839C23.1292 29.7252 21.9739 29.4874 20.8185 29.2416C20.411 29.1552 20.0065 29.046 19.6034 28.953C19.5362 28.9363 19.4712 28.9115 19.41 28.8791C19.2026 28.7699 19.1472 28.6119 19.2373 28.3963H19.2358ZM24.6913 29.7539C24.7651 29.8049 24.8198 29.7591 24.8552 29.7089C24.8751 29.6782 24.8833 29.6414 24.8784 29.6051C24.8736 29.5688 24.8559 29.5355 24.8286 29.5111L24.8116 29.4911L24.8323 29.4852L24.8242 29.5081C24.8338 29.5582 24.8259 29.6101 24.8017 29.6551C24.7775 29.7 24.7385 29.7352 24.6913 29.7547C24.6913 29.7613 24.695 29.7687 24.6965 29.7754C24.7016 29.8027 24.7039 29.7754 24.7076 29.7754L24.6913 29.7539ZM22.5549 29.032C22.0657 28.9113 21.5674 28.8313 21.0651 28.7928C21.5538 28.936 22.0617 28.936 22.5549 29.032ZM22.6191 29.0386C22.8014 29.1176 23.003 29.1264 23.2001 29.1597C23.0128 29.0931 22.8174 29.0524 22.6191 29.0386ZM23.3307 29.1862C23.3307 29.1862 23.3307 29.1936 23.3307 29.1944C23.3261 29.1955 23.3213 29.1955 23.3167 29.1944C23.3131 29.1938 23.3096 29.1926 23.3064 29.1907L23.3307 29.1862Z" fill="#181818"/>
<path d="M24.1863 38.192C23.9649 38.1846 23.7678 38.0643 23.7692 37.9351C23.7692 37.704 24.0217 37.4766 24.2602 37.4877C24.4211 37.4958 24.5555 37.687 24.5459 37.8959C24.5385 38.0731 24.3857 38.1986 24.1863 38.192Z" fill="#F8F2EA"/>
<path d="M18.8519 33.7906C18.8923 33.7908 18.9323 33.7995 18.9692 33.816C19.0061 33.8326 19.0391 33.8568 19.066 33.8869C19.093 33.917 19.1134 33.9524 19.1259 33.9909C19.1383 34.0294 19.1426 34.07 19.1383 34.1103C19.1339 34.2217 18.9707 34.3502 18.8357 34.348C18.7006 34.3458 18.4968 34.1656 18.4998 34.0394C18.5042 33.8541 18.5957 33.7891 18.8519 33.7906Z" fill="#F8F2EA"/>
<path d="M19.1214 33.6363C19.0025 33.6201 18.9206 33.5691 18.8261 33.5699C18.7316 33.5706 18.6504 33.6274 18.5485 33.6274C18.7316 33.4687 18.9486 33.4695 19.1214 33.6363Z" fill="#F8F2EA"/>
<path d="M14.1885 14.7384C14.1906 14.7721 14.1856 14.8059 14.1737 14.8376C14.1617 14.8692 14.1432 14.898 14.1194 14.9219C14.0955 14.9459 14.0668 14.9645 14.0352 14.9765C14.0035 14.9885 13.9697 14.9936 13.936 14.9916C13.8002 14.9916 13.6473 14.8594 13.6473 14.7413C13.6473 14.6232 13.795 14.5243 13.9759 14.525C14.0044 14.5228 14.0331 14.5268 14.06 14.5367C14.0868 14.5467 14.1112 14.5623 14.1314 14.5826C14.1516 14.6029 14.1672 14.6273 14.177 14.6542C14.1869 14.6811 14.1908 14.7098 14.1885 14.7384Z" fill="#F8F2EA"/>
<path d="M35.0709 15.7616C35.0018 15.7562 34.9354 15.7329 34.878 15.6941C34.8207 15.6553 34.7745 15.6022 34.7438 15.5401C34.6899 15.4397 34.7505 15.3186 34.8767 15.2492C34.9386 15.2111 35.0129 15.1986 35.0838 15.2143C35.1548 15.23 35.2169 15.2727 35.2569 15.3334C35.2914 15.3792 35.3136 15.4331 35.3215 15.49C35.3294 15.5468 35.3227 15.6047 35.3019 15.6582C35.2576 15.7475 35.1639 15.7586 35.0709 15.7616Z" fill="#F8F2EA"/>
<path d="M34.7682 15.1312C34.916 14.9945 34.9655 14.9834 35.1222 15.0802C35.0059 15.0707 34.8893 15.0951 34.7866 15.1504C34.7809 15.1437 34.7747 15.1373 34.7682 15.1312Z" fill="#F8F2EA"/>
<path d="M34.7867 15.1481C34.7736 15.1481 34.7529 15.1573 34.7498 15.1527C34.7383 15.1358 34.7552 15.1319 34.7675 15.1281C34.7743 15.1344 34.7807 15.141 34.7867 15.1481Z" fill="#F8F2EA"/>
<path d="M32.0481 19.0586C32.0577 19.1524 32.0223 19.1924 31.9476 19.1857C31.8545 19.1768 31.7259 19.1672 31.7163 19.0689C31.7104 18.995 31.8309 18.944 31.9225 18.933C32.0289 18.9196 32.037 19.0061 32.0481 19.0586Z" fill="#F8F2EA"/>
<path d="M16.903 13.6214C16.7753 13.6214 16.6601 13.5476 16.6616 13.4627C16.6631 13.3778 16.8018 13.253 16.8882 13.2493C16.9746 13.2456 17.0772 13.3852 17.0787 13.4893C17.0802 13.6155 16.9768 13.6022 16.903 13.6214Z" fill="#F8F2EA"/>
<path d="M37.5441 18.3095C37.4436 18.3228 37.4022 18.2429 37.3963 18.1668C37.395 18.1288 37.4084 18.0918 37.4337 18.0635C37.4591 18.0351 37.4943 18.0176 37.5322 18.0146C37.6313 18.0146 37.6667 18.1047 37.68 18.189C37.6956 18.2851 37.6283 18.3058 37.5441 18.3095Z" fill="#F8F2EA"/>
<path d="M23.0755 33.2111C23.1082 33.2095 23.1404 33.2204 23.1654 33.2415C23.1905 33.2627 23.2067 33.2925 23.2107 33.325C23.2188 33.3985 23.1571 33.4162 23.102 33.4169C23.0284 33.4169 22.9549 33.3897 22.9491 33.3103C22.9432 33.2309 23.016 33.2228 23.0755 33.2111Z" fill="#F8F2EA"/>
<path d="M17.0285 23.1372C16.5531 23.4598 16.4335 23.7942 16.607 24.3287C16.7103 24.6484 16.8727 24.9304 17.1783 25.1031C17.3659 25.2094 17.5475 25.222 17.6397 25.1341C17.7453 25.033 17.7438 24.8211 17.6309 24.6351C17.5408 24.4874 17.4456 24.3398 17.3511 24.1921C17.2667 24.0745 17.2156 23.9363 17.2034 23.792C17.1983 23.7546 17.2049 23.7165 17.2226 23.6832C17.2402 23.6498 17.2678 23.6228 17.3016 23.606C17.3828 23.5661 17.4183 23.6421 17.4589 23.6864C18.1368 24.4278 18.5137 25.3954 18.5156 26.4C18.5175 27.4046 18.1444 28.3737 17.4692 29.1176C16.9658 29.6762 16.3195 30.0868 15.6 30.3054C15.5704 30.3207 15.5363 30.3249 15.5038 30.3174C15.4713 30.3098 15.4426 30.2909 15.4228 30.2641C15.2014 30.0079 14.424 30.0042 14.2188 30.377C14.2048 30.4083 14.1796 30.4332 14.1482 30.4469C14.1168 30.4605 14.0814 30.4619 14.049 30.4509C13.1665 30.32 12.3498 29.908 11.7202 29.276C11.0906 28.644 10.6817 27.8257 10.5542 26.9428C10.3475 25.5047 10.7336 24.2453 11.7671 23.2118C12.1458 22.8323 12.6441 22.6337 13.141 22.4477C14.5126 21.9354 15.7528 22.255 16.9178 23.0449C16.9532 23.0708 16.9857 23.104 17.0285 23.1372ZM13.485 24.8647C13.488 24.7529 13.4683 24.6417 13.427 24.5379C13.3857 24.434 13.3237 24.3396 13.2447 24.2605C13.1658 24.1813 13.0716 24.1191 12.9678 24.0775C12.8641 24.0359 12.7529 24.0159 12.6412 24.0186C12.3391 24.031 12.0467 24.1292 11.7983 24.3016C11.5499 24.474 11.3558 24.7136 11.2385 24.9924C11.1453 25.2146 11.1346 25.4628 11.2083 25.6922C11.3493 26.1455 11.7546 26.4371 12.168 26.381C12.8494 26.2887 13.4887 25.5527 13.4872 24.8647H13.485ZM17.3636 27.4278C17.3639 27.3774 17.3527 27.3275 17.331 27.282C17.3093 27.2365 17.2775 27.1965 17.2381 27.165C16.9429 26.9037 16.5988 26.7826 16.2046 26.8904C16.0192 26.9344 15.8493 27.0284 15.7136 27.1622C15.5778 27.296 15.4813 27.4645 15.4346 27.6493C15.3996 27.7651 15.4039 27.8893 15.4467 28.0025C15.4896 28.1158 15.5687 28.2116 15.6716 28.2753C15.8468 28.3941 16.0509 28.4632 16.2622 28.4753C16.6151 28.5041 16.968 28.2945 17.0824 27.9933C17.1056 27.946 17.1125 27.8923 17.1021 27.8406C17.0917 27.789 17.0645 27.7422 17.0248 27.7076C16.9347 27.6279 16.8425 27.6574 16.7546 27.7246C16.6769 27.7942 16.5896 27.8524 16.4955 27.8973C16.3006 27.9711 16.057 27.9187 15.9787 27.7814C15.8931 27.6256 15.9662 27.4049 16.1463 27.2742C16.5036 27.0166 17.0418 27.0794 17.3659 27.4278H17.3636ZM13.9914 28.6282C13.9582 28.4761 13.8622 28.3329 13.6961 28.1719C13.3144 27.8028 12.6523 27.6109 12.1739 27.9084C11.7568 28.1682 11.7309 28.6606 12.1414 28.936C12.2872 29.0414 12.4526 29.1167 12.6279 29.1575C12.9232 29.2136 13.2133 29.2512 13.4503 28.9995C13.5101 28.9353 13.5455 28.8681 13.5034 28.7847C13.4614 28.7012 13.3801 28.7182 13.3056 28.7293C13.1746 28.7599 13.0407 28.7762 12.9062 28.778C12.7032 28.764 12.5703 28.6496 12.5644 28.4894C12.5626 28.4431 12.57 28.3969 12.5861 28.3534C12.6022 28.3099 12.6268 28.2701 12.6583 28.2362C12.6899 28.2022 12.7278 28.1748 12.77 28.1556C12.8121 28.1363 12.8577 28.1256 12.904 28.1239C13.0506 28.1076 13.199 28.1214 13.34 28.1646C13.4811 28.2078 13.6118 28.2794 13.7242 28.3749C13.8128 28.4517 13.8947 28.5344 13.9936 28.6282H13.9914ZM14.8079 22.8212C14.7652 22.7652 14.7118 22.7183 14.6508 22.6832C14.5897 22.6481 14.5223 22.6256 14.4524 22.6169C14.3826 22.6083 14.3117 22.6136 14.2439 22.6328C14.1762 22.6519 14.1129 22.6843 14.0578 22.7282C13.8238 22.9076 13.8135 23.1867 14.0342 23.3808C14.255 23.575 14.723 23.6111 14.9666 23.465C15.0176 23.4338 15.0618 23.3926 15.0965 23.3439C15.1704 23.2494 15.1866 23.1416 15.1076 23.056C15.0175 22.96 14.9135 23.0206 14.8256 23.0826C14.7769 23.1165 14.7385 23.1645 14.6898 23.1985C14.6398 23.232 14.5809 23.2499 14.5207 23.2499C14.4605 23.2499 14.4017 23.232 14.3517 23.1985C14.3228 23.1873 14.2987 23.1665 14.2835 23.1396C14.2683 23.1126 14.2629 23.0813 14.2682 23.0508C14.2926 22.9275 14.3923 22.8796 14.5 22.8434C14.5975 22.8138 14.6986 22.8367 14.8101 22.8212H14.8079Z" fill="#F8F2EA"/>
<path d="M15.9588 22.337C15.644 22.2348 15.3236 22.1509 14.9991 22.086C15.3359 22.0802 15.6679 22.1671 15.9588 22.337Z" fill="#909090"/>
<path d="M17.4893 24.9234L17.2861 24.5627C17.3465 24.6021 17.3965 24.6554 17.4319 24.7182C17.4673 24.781 17.487 24.8514 17.4893 24.9234Z" fill="#F8F2EA"/>
<path d="M10.1954 26.1208C10.1895 26.0078 10.2037 25.8947 10.2375 25.7867C10.2636 25.8964 10.261 26.0109 10.2301 26.1193L10.1954 26.1208Z" fill="#909090"/>
<path d="M10.1954 26.1204H10.2301V26.6682H10.1954V26.1204Z" fill="#F8F2EA"/>
<path d="M17.1243 24.2785L17.2934 24.5255C17.2031 24.4752 17.1357 24.392 17.1052 24.2932L17.1243 24.2785Z" fill="#F8F2EA"/>
<path d="M10.4952 27.5159C10.4369 27.429 10.4107 27.3245 10.4213 27.2203L10.4952 27.5159Z" fill="#909090"/>
<path d="M10.7014 24.4092L10.6036 24.6407C10.5964 24.5968 10.6017 24.5518 10.619 24.5108C10.6363 24.4698 10.6649 24.4346 10.7014 24.4092Z" fill="#909090"/>
<path d="M16.1045 22.3885C16.0567 22.412 16.0354 22.376 15.9868 22.3716C16.0501 22.3297 16.0692 22.3731 16.1045 22.3885Z" fill="#909090"/>
<path d="M12.687 22.5286C12.7104 22.5092 12.735 22.491 12.7605 22.4742C12.776 22.4691 12.792 22.4659 12.8083 22.4647C12.7929 22.5206 12.7539 22.5132 12.687 22.5286Z" fill="#909090"/>
<path d="M12.5844 22.587H12.5644C12.5679 22.5877 12.5716 22.5877 12.5751 22.587L12.5851 22.5798L12.5844 22.587Z" fill="#909090"/>
<path d="M17.1059 24.2932C17.0735 24.2837 17.0838 24.2497 17.0698 24.2298V24.2357C17.1037 24.2298 17.1067 24.2623 17.1229 24.2785L17.1059 24.2932Z" fill="#F8F2EA"/>
<path d="M10.5475 24.739L10.5644 24.7045C10.5644 24.7083 10.5698 24.7137 10.5683 24.7152C10.562 24.723 10.5554 24.7304 10.5483 24.7375L10.5475 24.739Z" fill="#909090"/>
<path d="M10.5481 24.7362L10.5431 24.7549C10.5431 24.7549 10.5503 24.7549 10.5503 24.7499C10.5513 24.7461 10.5513 24.7422 10.5503 24.7384L10.5481 24.7362Z" fill="#909090"/>
<path d="M12.6632 22.5348L12.6668 22.545L12.6567 22.5435L12.6632 22.5348Z" fill="#909090"/>
<path d="M17.0698 24.2298L17.0776 24.2307L17.0724 24.2368L17.0698 24.2298Z" fill="#F8F2EA"/>
<path d="M32.8953 27.1576C32.318 27.6198 32.2515 28.2295 32.7026 28.8194C32.8261 28.9967 33.003 29.1299 33.2075 29.1996C33.3146 29.2321 33.429 29.2498 33.5139 29.1538C33.5522 29.1105 33.5778 29.0575 33.5879 29.0006C33.5981 28.9437 33.5924 28.8851 33.5715 28.8312C33.4977 28.6201 33.3611 28.4488 33.2474 28.2628C33.1591 28.1417 33.0997 28.0021 33.0739 27.8545C33.0627 27.8001 33.0731 27.7435 33.1027 27.6965C33.1573 27.6227 33.2134 27.5917 33.2932 27.6766C33.7963 28.1947 34.1414 28.8454 34.2883 29.5525C34.6626 31.398 33.8454 33.1388 32.191 34.0372C31.9573 34.1603 31.7123 34.2607 31.4594 34.3369C31.4312 34.3504 31.3992 34.3537 31.3689 34.3461C31.3386 34.3386 31.3119 34.3207 31.2933 34.2956C31.0438 34.0261 30.2849 34.0372 30.0811 34.4152C30.0398 34.489 29.9903 34.489 29.9224 34.4772C28.6881 34.2912 27.7077 33.6814 27.0566 32.6235C26.1205 31.1027 26.1264 29.5465 27.0182 27.9963C27.4678 27.2137 28.1765 26.7701 29.0026 26.4792C29.4137 26.324 29.8472 26.2363 30.2864 26.2193C30.7743 26.2105 31.2461 26.3293 31.7001 26.4969C32.1309 26.6526 32.5343 26.8757 32.8953 27.1576ZM28.5168 28.0538C28.1885 28.0587 27.8704 28.169 27.6095 28.3683C27.3486 28.5677 27.1586 28.8457 27.0677 29.1612C26.9584 29.568 27.1002 29.9053 27.3844 30.1947C27.6295 30.4428 27.9292 30.4605 28.2437 30.3667C28.7929 30.2036 29.289 29.5871 29.3547 29.0187C29.4138 28.5086 29.0491 28.011 28.5168 28.0538ZM33.2415 31.4719C33.2371 31.4083 33.2191 31.3465 33.1886 31.2906C33.1582 31.2346 33.116 31.1859 33.0651 31.1478C32.9479 31.046 32.8104 30.9705 32.6617 30.9262C32.513 30.8818 32.3566 30.8697 32.2029 30.8907C32.0491 30.9117 31.9016 30.9652 31.7702 31.0477C31.6389 31.1302 31.5266 31.2399 31.441 31.3692C31.204 31.7258 31.2357 32.0861 31.5362 32.2965C31.6669 32.3935 31.8184 32.4588 31.9787 32.4872C32.139 32.5155 32.3037 32.506 32.4597 32.4596C32.5658 32.4301 32.6641 32.3773 32.7473 32.3052C32.8306 32.2331 32.8967 32.1433 32.941 32.0425C32.9709 31.9926 32.9819 31.9337 32.972 31.8764C32.9621 31.8191 32.932 31.7672 32.8871 31.7302C32.7904 31.6483 32.693 31.6926 32.6051 31.7642C32.5246 31.8387 32.4307 31.8973 32.3283 31.9369C32.1423 31.9975 31.9341 31.9458 31.8558 31.8173C31.8231 31.7473 31.8116 31.6692 31.8228 31.5928C31.8339 31.5163 31.8672 31.4447 31.9186 31.387C32.0169 31.2803 32.1458 31.2067 32.2877 31.1766C32.6457 31.119 32.9861 31.1219 33.2415 31.4719ZM29.8552 32.6368C29.8001 32.4644 29.6978 32.311 29.5599 32.1938C29.1576 31.8181 28.5006 31.6313 28.0097 31.9606C27.6575 32.1983 27.6132 32.6375 27.9417 32.9077C28.0841 33.0299 28.251 33.1202 28.4312 33.1727C28.6113 33.2251 28.8006 33.2385 28.9863 33.2119C29.0582 33.2024 29.1274 33.1787 29.1899 33.1421C29.2524 33.1054 29.307 33.0566 29.3503 32.9985C29.3741 32.9726 29.3888 32.9396 29.3921 32.9045C29.3954 32.8695 29.3872 32.8343 29.3687 32.8044C29.334 32.7431 29.2713 32.7475 29.2093 32.7556C29.0616 32.7763 28.914 32.8184 28.7663 32.8051C28.5692 32.7881 28.4459 32.6803 28.4393 32.5224C28.4318 32.4366 28.4581 32.3512 28.5126 32.2845C28.567 32.2178 28.6453 32.1749 28.7309 32.165C28.8737 32.1416 29.0198 32.1471 29.1604 32.1812C29.3011 32.2153 29.4334 32.2774 29.5496 32.3636C29.6603 32.4411 29.7482 32.5489 29.8552 32.6368ZM30.6791 26.8601C30.6194 26.7659 30.5289 26.6952 30.4231 26.6599C30.3172 26.6247 30.2024 26.6271 30.0981 26.6667C30.0059 26.6915 29.9232 26.7435 29.8609 26.8159C29.7986 26.8883 29.7596 26.9778 29.7489 27.0727C29.7268 27.227 29.8368 27.3931 30.0176 27.4824C30.2385 27.5916 30.4924 27.6132 30.7286 27.543C30.7889 27.5279 30.845 27.4992 30.8926 27.4592C30.9402 27.4191 30.978 27.3688 31.0032 27.3119C31.0245 27.2749 31.0329 27.2318 31.0272 27.1895C31.0214 27.1472 31.0018 27.1079 30.9714 27.0779C30.9403 27.0521 30.9011 27.038 30.8607 27.038C30.8203 27.038 30.7811 27.0521 30.75 27.0779C30.6962 27.1133 30.6455 27.1534 30.5986 27.1975C30.5536 27.2413 30.4956 27.2693 30.4334 27.2775C30.3711 27.2856 30.3079 27.2733 30.2531 27.2425C30.1158 27.179 30.1055 27.0653 30.2133 26.9605C30.3447 26.8358 30.5064 26.8594 30.6791 26.8601Z" fill="#F8F2EA"/>
<path d="M33.0141 28.3624C33.133 28.5426 33.319 28.6843 33.3508 28.9191C33.2614 28.7197 33.1035 28.5669 33.0141 28.3624Z" fill="#F8F2EA"/>
<path d="M30.5145 26.0776C30.7318 26.0591 30.9507 26.0791 31.1612 26.1366L31.156 26.175L30.5145 26.0776Z" fill="#909090"/>
<path d="M26.0644 30.3128C26.0349 30.1437 26.0807 29.9821 26.1036 29.8174C26.132 29.9809 26.1268 30.1485 26.0881 30.3098C26.0846 30.3121 26.0807 30.3136 26.0766 30.3141C26.0725 30.3146 26.0683 30.3142 26.0644 30.3128Z" fill="#909090"/>
<path d="M31.2365 26.1891C31.3959 26.1728 31.4897 26.1979 31.6617 26.3072L31.2365 26.1891Z" fill="#F8F2EA"/>
<path d="M28.8188 26.4578C28.8705 26.4077 28.9324 26.3693 29.0003 26.3454C29.0682 26.3214 29.1405 26.3124 29.2122 26.319L28.8188 26.4578Z" fill="#909090"/>
<path d="M26.0644 30.3128C26.0681 30.3146 26.0721 30.3156 26.0762 30.3156C26.0803 30.3156 26.0844 30.3146 26.0881 30.3128V30.6786H26.0644V30.3128Z" fill="#F8F2EA"/>
<path d="M28.7339 26.4924C28.712 26.5108 28.6858 26.5232 28.6577 26.5285C28.6297 26.5337 28.6007 26.5317 28.5737 26.5225L28.7207 26.4718L28.7339 26.4924Z" fill="#909090"/>
<path d="M26.5912 28.3174C26.5831 28.4071 26.5831 28.4071 26.5118 28.4585C26.5221 28.4041 26.55 28.3545 26.5912 28.3174Z" fill="#909090"/>
<path d="M26.6675 28.1394C26.6816 28.1269 26.6816 28.0863 26.7103 28.1077C26.7391 28.1291 26.7162 28.1475 26.6963 28.163L26.6675 28.1394Z" fill="#909090"/>
<path d="M33.0051 28.3188L32.9918 28.3475L32.9543 28.3262C32.958 28.3195 32.9631 28.3056 32.9668 28.3063C32.98 28.3091 32.9928 28.3133 33.0051 28.3188Z" fill="#F8F2EA"/>
<path d="M29.294 26.2806L29.2823 26.282L29.2932 26.2871L29.294 26.2806Z" fill="#909090"/>
<path d="M28.7184 26.4718C28.7361 26.4497 28.7641 26.4275 28.7818 26.4593C28.7995 26.491 28.753 26.4836 28.7346 26.4925L28.7184 26.4718Z" fill="#909090"/>
<path d="M26.6961 28.163C26.6888 28.1769 26.6859 28.2034 26.6616 28.1865C26.6374 28.1696 26.6616 28.1542 26.6675 28.1395L26.6961 28.163Z" fill="#909090"/>
<path d="M26.6384 28.2405L26.6277 28.2291C26.6342 28.2252 26.6411 28.2222 26.6483 28.2199C26.6483 28.2199 26.6551 28.226 26.6582 28.2291L26.6384 28.2405Z" fill="#909090"/>
<path d="M26.6172 28.2783L26.6287 28.2889C26.6221 28.2933 26.6149 28.2967 26.6073 28.2988C26.6073 28.2988 26.6012 28.2927 26.5974 28.2889L26.6172 28.2783Z" fill="#909090"/>
<path d="M28.7014 11.3462C28.2186 11.6754 28.0997 12.0342 28.288 12.5709C28.412 12.926 28.6003 13.2279 28.9738 13.3697C29.0897 13.414 29.2182 13.4391 29.3104 13.3431C29.3542 13.2945 29.3822 13.2338 29.3909 13.169C29.3996 13.1042 29.3885 13.0383 29.3592 12.9799C29.2853 12.7828 29.151 12.6189 29.0439 12.4402C28.9621 12.327 28.9053 12.1976 28.8771 12.0608C28.8653 11.967 28.8682 11.8755 28.962 11.8246C29.0676 11.7677 29.1008 11.8748 29.148 11.9264C30.8659 13.7794 30.4067 16.8792 28.0746 18.177C27.8096 18.3242 27.5291 18.4415 27.2382 18.527C27.2173 18.5384 27.1927 18.5415 27.1696 18.5356C27.1464 18.5297 27.1264 18.5153 27.1135 18.4952C26.878 18.2095 26.0711 18.2184 25.8806 18.6052C25.8363 18.6953 25.7662 18.6694 25.702 18.6591C24.8509 18.5412 24.061 18.1503 23.4511 17.5451C22.6636 16.7677 22.204 15.718 22.1669 14.612C22.1298 13.506 22.5181 12.4278 23.2518 11.5994C23.6209 11.1793 24.1103 10.9424 24.6138 10.7342C24.9784 10.5853 25.3604 10.4834 25.7507 10.4308C26.4151 10.337 27.0374 10.5046 27.6465 10.7386C28.0268 10.8867 28.3824 11.0916 28.7014 11.3462ZM25.1579 13.0729C25.1815 12.6986 24.8582 12.2099 24.3252 12.2321C24.0826 12.2349 23.8442 12.2954 23.6297 12.4087C23.4152 12.5219 23.2308 12.6845 23.0916 12.8832C22.8701 13.1844 22.7608 13.5136 22.8775 13.8931C23.0251 14.3722 23.4437 14.6645 23.8896 14.5863C24.5503 14.4719 25.1586 13.7454 25.1594 13.0729H25.1579ZM29.0247 15.6279C29.0232 15.5695 29.0078 15.5122 28.9799 15.4609C28.9519 15.4095 28.9121 15.3656 28.8638 15.3326C28.6626 15.1564 28.4032 15.0609 28.1358 15.0645C27.8683 15.0682 27.6117 15.1708 27.4154 15.3526C27.1939 15.56 27.0352 15.8162 27.1002 16.1358C27.1651 16.4555 27.4198 16.5662 27.6908 16.6467C28.1256 16.7759 28.5766 16.5943 28.7405 16.237C28.7922 16.1218 28.7937 16.0081 28.697 15.921C28.6003 15.8339 28.4925 15.8767 28.4017 15.952C28.3173 16.0313 28.2165 16.091 28.1064 16.127C27.9137 16.1801 27.7114 16.1174 27.6457 15.9793C27.5719 15.8243 27.6302 15.6309 27.7934 15.5054C27.9775 15.3694 28.2056 15.3066 28.4334 15.3293C28.6612 15.3519 28.8725 15.4583 29.0262 15.6279H29.0247ZM25.6577 16.8202C25.6577 16.8098 25.668 16.8002 25.6665 16.7914C25.6633 16.7773 25.6578 16.7638 25.6503 16.7515C25.4769 16.433 25.1939 16.1883 24.8537 16.0627C24.4787 15.9232 24.1155 15.9225 23.7744 16.1698C23.4518 16.406 23.423 16.8246 23.7257 17.0793C23.865 17.201 24.0281 17.2924 24.2046 17.3477C24.3812 17.403 24.5673 17.421 24.7511 17.4004C24.8309 17.3937 24.9082 17.3698 24.9778 17.3303C25.0474 17.2908 25.1076 17.2366 25.1542 17.1716C25.1756 17.1472 25.1888 17.1166 25.1919 17.0843C25.1949 17.0519 25.1877 17.0194 25.1712 16.9914C25.1551 16.9658 25.1308 16.9463 25.1023 16.936C25.0738 16.9257 25.0427 16.9252 25.0139 16.9346C24.9209 16.9508 24.8279 16.9708 24.7341 16.9826C24.6049 16.9988 24.4721 17.0047 24.3599 16.9243C24.3051 16.8881 24.2646 16.8339 24.2455 16.7711C24.2263 16.7083 24.2297 16.6408 24.255 16.5802C24.2795 16.5067 24.3269 16.4429 24.3903 16.3982C24.4536 16.3536 24.5297 16.3305 24.6072 16.3322C24.7845 16.3212 24.962 16.3515 25.1257 16.4206C25.2894 16.4898 25.4349 16.596 25.5506 16.7308C25.5824 16.7648 25.5979 16.8209 25.6591 16.8202H25.6577ZM26.4852 11.0406C26.3523 10.8479 26.1597 10.7851 25.9249 10.8449C25.8272 10.8669 25.7386 10.9184 25.6713 10.9925C25.6039 11.0667 25.561 11.1597 25.5484 11.2591C25.5359 11.4296 25.6518 11.5979 25.8437 11.6836C26.0514 11.7724 26.2826 11.7903 26.5015 11.7345C26.5675 11.7205 26.6293 11.691 26.6817 11.6484C26.7341 11.6058 26.7756 11.5513 26.8027 11.4894C26.8219 11.4543 26.8296 11.414 26.8247 11.3743C26.8198 11.3345 26.8025 11.2973 26.7753 11.2679C26.7462 11.239 26.7073 11.222 26.6663 11.2204C26.6253 11.2187 26.5852 11.2326 26.5539 11.2591C26.4837 11.3048 26.4239 11.3669 26.3538 11.4134C26.3058 11.445 26.2498 11.4624 26.1923 11.4635C26.1348 11.4645 26.0781 11.4492 26.029 11.4193C25.9979 11.4085 25.9715 11.3871 25.9544 11.359C25.9373 11.3308 25.9305 11.2976 25.9352 11.265C25.9618 11.1446 26.0578 11.0922 26.1678 11.0598C26.2724 11.0367 26.38 11.0302 26.4867 11.0406H26.4852Z" fill="#F8F2EA"/>
<path d="M27.4597 10.4891C27.2234 10.4248 26.9865 10.3724 26.7163 10.3141C26.8905 10.2698 27.3039 10.3717 27.4597 10.4891Z" fill="#909090"/>
<path d="M28.9998 12.7846C28.8873 12.7123 28.8077 12.5987 28.7781 12.4683L28.9998 12.7846Z" fill="#F8F2EA"/>
<path d="M21.9163 14.2002C21.8712 14.4482 21.9163 14.7007 21.8749 14.9502V14.2076L21.9163 14.2002Z" fill="#F8F2EA"/>
<path d="M28.9915 12.8271C29.0436 12.8545 29.0864 12.8968 29.1143 12.9487C29.1423 13.0006 29.154 13.0596 29.1482 13.1183L28.9915 12.8271Z" fill="#F8F2EA"/>
<path d="M26.2888 10.2646C26.4158 10.2587 26.5413 10.2329 26.6624 10.2691V10.3067L26.2888 10.2646Z" fill="#909090"/>
<path d="M25.4753 18.7823L25.712 18.8404C25.6311 18.822 25.54 18.8617 25.4753 18.7823Z" fill="#909090"/>
<path d="M22.0831 15.4072C22.1186 15.5439 22.143 15.6392 22.1674 15.7346C22.0994 15.6481 22.0868 15.5513 22.0831 15.4072Z" fill="#909090"/>
<path d="M27.7487 10.6127L27.4966 10.5149C27.601 10.4906 27.6745 10.5539 27.7487 10.6127Z" fill="#909090"/>
<path d="M21.9161 14.1993L21.8749 14.2066C21.8627 14.132 21.8772 14.0554 21.9161 13.9905C21.9316 14.0593 21.9316 14.1306 21.9161 14.1993Z" fill="#909090"/>
<path d="M22.4149 12.5058C22.4018 12.5752 22.3683 12.6392 22.3186 12.6895C22.3091 12.5969 22.3635 12.5425 22.387 12.4742L22.4149 12.5058Z" fill="#909090"/>
<path d="M22.3208 12.734C22.3127 12.7436 22.3061 12.7576 22.295 12.7628C22.2839 12.768 22.264 12.7628 22.2677 12.7451C22.2725 12.7311 22.2818 12.7192 22.2943 12.7112C22.3186 12.6949 22.3127 12.7215 22.3208 12.734Z" fill="#909090"/>
<path d="M22.4818 12.3036C22.4936 12.2889 22.4921 12.2476 22.5231 12.2697C22.5541 12.2918 22.5231 12.3095 22.5054 12.325L22.4818 12.3036Z" fill="#909090"/>
<path d="M22.5043 12.3254L22.4753 12.3856L22.4449 12.3617L22.4811 12.3044L22.5043 12.3254Z" fill="#909090"/>
<path d="M22.3873 12.4727C22.3996 12.456 22.4039 12.4147 22.43 12.4328C22.4561 12.4509 22.4387 12.4828 22.4148 12.5053L22.3873 12.4727Z" fill="#909090"/>
<path d="M22.4758 12.3863C22.4685 12.4018 22.464 12.4284 22.439 12.4107C22.4139 12.393 22.439 12.3782 22.4449 12.362L22.4758 12.3863Z" fill="#909090"/>
<path d="M20.5892 18.9699C20.5334 19.0653 20.465 19.1528 20.3859 19.2301C20.3786 19.2182 20.3712 19.2057 20.363 19.1939C20.42 19.0998 20.4874 19.0126 20.5641 18.9337L20.5892 18.9699Z" fill="#909090"/>
<path d="M19.8463 19.694L19.9933 19.4889C20.019 19.6058 19.9293 19.6528 19.8588 19.7094L19.8463 19.694Z" fill="#F8F2EA"/>
<path d="M19.3657 20.1415L19.5127 19.9901C19.5127 20.0842 19.4502 20.1239 19.387 20.1628C19.3789 20.1555 19.3723 20.1504 19.3657 20.1415Z" fill="#F8F2EA"/>
<path d="M19.2468 20.2382C19.2682 20.2345 19.2867 20.2086 19.3103 20.2293C19.3064 20.2405 19.2998 20.2507 19.2911 20.2588C19.2638 20.2809 19.2498 20.2684 19.2461 20.2382H19.2468Z" fill="#F8F2EA"/>
<path d="M19.3849 20.1636C19.3775 20.188 19.3502 20.2145 19.3376 20.2027C19.3022 20.1695 19.3531 20.1621 19.3657 20.1422C19.3723 20.1511 19.379 20.1562 19.3849 20.1636Z" fill="#F8F2EA"/>
<path d="M20.3195 19.2467L20.3624 19.1958C20.3704 19.2074 20.3777 19.2198 20.3849 19.2314L20.3442 19.2663L20.3195 19.2467Z" fill="#909090"/>
<path d="M20.5638 18.9352L20.603 18.8968L20.6327 18.9164L20.5885 18.9707L20.5638 18.9352Z" fill="#909090"/>
<path d="M19.8337 19.7448C19.8153 19.722 19.8337 19.7095 19.8462 19.6948L19.8617 19.7117C19.8617 19.7316 19.8528 19.7434 19.8308 19.7412L19.8337 19.7448Z" fill="#F8F2EA"/>
<path d="M19.2203 20.2625L19.241 20.2963L19.2272 20.3024L19.2203 20.2633V20.2625Z" fill="#F8F2EA"/>
<path d="M19.2203 20.2639C19.2407 20.2639 19.2475 20.2563 19.2475 20.2382C19.2475 20.2503 19.2831 20.2533 19.2596 20.276C19.2362 20.2987 19.2339 20.2684 19.221 20.2631L19.2203 20.2639Z" fill="#F8F2EA"/>
<path d="M20.0315 19.446C20.0403 19.463 20.0499 19.4828 20.0315 19.4968C20.0256 19.5012 20.0102 19.4909 19.9984 19.488C20.0168 19.4799 20.0425 19.4777 20.0322 19.446H20.0315Z" fill="#F8F2EA"/>
<path d="M20.0309 19.4468L20.0642 19.4665C20.0346 19.49 20.0422 19.4536 20.0316 19.446L20.0309 19.4468Z" fill="#F8F2EA"/>
<path d="M19.5616 19.9481L19.5578 19.9872L19.5348 19.9772L19.5647 19.9519L19.5616 19.9481Z" fill="#F8F2EA"/>
<path d="M20.3461 19.266C20.3369 19.2736 20.3231 19.2897 20.3185 19.2874C20.2909 19.2744 20.3124 19.259 20.3185 19.2452L20.3461 19.266Z" fill="#909090"/>
<path d="M20.6037 18.8969C20.6129 18.88 20.6252 18.8639 20.6444 18.8823C20.6482 18.8862 20.639 18.9053 20.6351 18.9176L20.6037 18.8969Z" fill="#909090"/>
<path d="M19.5606 19.952L19.5801 19.9296C19.5801 19.9341 19.5853 19.9385 19.5838 19.9423C19.5786 19.9573 19.5696 19.9595 19.5576 19.9483L19.5606 19.952Z" fill="#F8F2EA"/>
<path d="M19.8302 19.7413L19.818 19.7621L19.8109 19.7428H19.833L19.8302 19.7413Z" fill="#F8F2EA"/>
<path d="M29.258 23.5469C29.1248 23.2148 29.0163 22.8733 28.9332 22.5252C29.0254 22.6441 29.0454 22.7924 29.0926 22.9298C29.1561 23.1151 29.2403 23.2952 29.2646 23.493L29.258 23.5469Z" fill="#909090"/>
<path d="M29.258 23.5469L29.2617 23.4952C29.3518 23.7448 29.4416 23.9938 29.5311 24.2423L29.4913 24.2564C29.3997 24.0246 29.3218 23.7878 29.258 23.5469Z" fill="#F8F2EA"/>
<path d="M28.8626 22.279L28.855 22.3017C28.855 22.2972 28.8505 22.2926 28.8513 22.2888C28.8532 22.2805 28.856 22.2724 28.8596 22.2646L28.8626 22.279Z" fill="#909090"/>
<path d="M28.9357 22.5244C28.9038 22.507 28.9103 22.4809 28.911 22.4418C28.9227 22.4521 28.9311 22.4657 28.935 22.4808C28.9389 22.496 28.9381 22.5119 28.9328 22.5266L28.9357 22.5244Z" fill="#909090"/>
<path d="M28.8981 22.3811L28.8837 22.3917C28.883 22.3834 28.883 22.375 28.8837 22.3667C28.8837 22.3667 28.889 22.3607 28.8921 22.3569L28.8981 22.3811Z" fill="#909090"/>
<path d="M22.5549 29.032C22.0617 28.936 21.5538 28.936 21.0651 28.7928C21.5674 28.8313 22.0657 28.9113 22.5549 29.032Z" fill="#F8F2EA"/>
<path d="M22.6191 29.0386C22.8172 29.0517 23.0127 29.0917 23.2001 29.1575C23.003 29.1265 22.8014 29.1176 22.6191 29.0386Z" fill="#909090"/>
<path d="M24.8273 29.5103C24.8546 29.5346 24.8724 29.5679 24.8774 29.6042C24.8824 29.6404 24.8742 29.6773 24.8545 29.7081C24.8192 29.758 24.7633 29.8036 24.6913 29.7529C24.7383 29.7335 24.7771 29.6984 24.8012 29.6537C24.8253 29.609 24.8332 29.5573 24.8236 29.5074L24.8273 29.5103Z" fill="#F8F2EA"/>
<path d="M23.3304 29.1833H23.3027C23.3059 29.1853 23.3095 29.1865 23.3132 29.1871C23.3179 29.1882 23.3227 29.1882 23.3274 29.1871C23.3274 29.1871 23.3296 29.1863 23.3304 29.1833Z" fill="#909090"/>
<path d="M24.8244 29.5084L24.8326 29.4852L24.8116 29.4912L24.8281 29.5107L24.8244 29.5084Z" fill="#F8F2EA"/>
<path d="M24.6913 29.754L24.708 29.776C24.7042 29.776 24.7019 29.804 24.6966 29.776C24.6966 29.7691 24.6928 29.7615 24.6913 29.7547V29.754Z" fill="#F8F2EA"/>
<path d="M13.4872 24.8646C13.4872 25.5527 12.8493 26.2887 12.1724 26.381C11.7575 26.4371 11.3522 26.1455 11.2127 25.6922C11.139 25.4628 11.1498 25.2146 11.243 24.9924C11.3602 24.7136 11.5543 24.474 11.8027 24.3016C12.0511 24.1292 12.3435 24.031 12.6456 24.0186C12.7572 24.0162 12.8681 24.0364 12.9716 24.0781C13.0751 24.1199 13.169 24.1822 13.2477 24.2613C13.3264 24.3404 13.3882 24.4347 13.4294 24.5384C13.4705 24.6421 13.4902 24.7531 13.4872 24.8646ZM11.6416 24.6793L11.6748 24.6365C11.7007 24.6203 11.7228 24.5849 11.7029 24.5708C11.6829 24.5568 11.6615 24.5885 11.6527 24.6144L11.6239 24.6454C11.6047 24.655 11.5899 24.6683 11.6069 24.6897C11.6084 24.6926 11.6283 24.683 11.6401 24.6793H11.6416ZM11.9738 24.7842C11.9642 24.7989 11.9199 24.7989 11.9458 24.827C11.9716 24.855 11.9856 24.827 11.9915 24.8026L12.024 24.7761C12.1442 24.6861 12.2719 24.6066 12.4057 24.5383C12.2226 24.5251 12.0978 24.6181 11.9982 24.7561L11.9738 24.7842ZM11.6047 25.848C11.5493 25.7594 11.5309 25.656 11.4807 25.563C11.4697 25.6195 11.472 25.6777 11.4876 25.733C11.5031 25.7884 11.5313 25.8394 11.57 25.8819C11.7701 26.1455 11.9797 26.22 12.2794 26.1255C12.0085 26.1108 11.7693 26.0606 11.6003 25.848H11.6047ZM13.0073 25.0219C13.0073 25.0034 12.9992 24.9584 12.9918 24.9148C12.9424 24.6417 12.8147 24.5502 12.5489 24.6306C12.1753 24.7436 11.9133 24.9754 11.8343 25.3762C11.8189 25.4356 11.8181 25.4978 11.8319 25.5575C11.8457 25.6173 11.8737 25.6728 11.9135 25.7194C11.9534 25.766 12.0039 25.8023 12.0608 25.8252C12.1177 25.8481 12.1793 25.8569 12.2403 25.8509C12.6168 25.8354 12.9977 25.4338 13.0007 25.0234L13.0073 25.0219ZM11.5412 24.793C11.4966 24.8276 11.4603 24.8716 11.4347 24.9219C11.4092 24.9722 11.3951 25.0275 11.3936 25.0839C11.4617 24.9987 11.5099 24.8993 11.5346 24.793H11.5412ZM11.5685 24.779C11.5801 24.7751 11.5901 24.7675 11.5969 24.7574C11.6037 24.7472 11.607 24.7351 11.6062 24.7229C11.6063 24.7193 11.6053 24.7158 11.6033 24.7129C11.6013 24.7099 11.5984 24.7077 11.595 24.7064C11.5917 24.7052 11.588 24.7051 11.5846 24.706C11.5812 24.707 11.5781 24.709 11.5759 24.7118C11.5623 24.7252 11.5513 24.741 11.5434 24.7583C11.5346 24.7642 11.5397 24.7886 11.5619 24.779H11.5685ZM11.3832 25.109C11.3832 25.1001 11.3899 25.0928 11.3921 25.0846C11.3943 25.0765 11.3869 25.0787 11.384 25.0758C11.381 25.0728 11.3714 25.0854 11.3714 25.0905C11.3714 25.0957 11.3721 25.1024 11.3766 25.109H11.3832Z" fill="#181818"/>
<path d="M17.3658 27.4278C17.0417 27.0794 16.5036 27.0159 16.1478 27.2743C15.9676 27.4049 15.8945 27.6257 15.9802 27.7814C16.054 27.9187 16.2991 27.9719 16.4969 27.8973C16.5911 27.8524 16.6784 27.7942 16.7561 27.7246C16.8439 27.6574 16.9362 27.6279 17.0262 27.7076C17.066 27.7422 17.0932 27.789 17.1036 27.8407C17.114 27.8923 17.107 27.946 17.0838 27.9933C16.9694 28.2945 16.6165 28.5042 16.2637 28.4754C16.0523 28.4633 15.8482 28.3941 15.6731 28.2753C15.5701 28.2117 15.4911 28.1158 15.4482 28.0026C15.4053 27.8894 15.4011 27.7652 15.4361 27.6493C15.4828 27.4645 15.5793 27.296 15.715 27.1622C15.8508 27.0284 16.0206 26.9344 16.2061 26.8904C16.6003 26.7826 16.9443 26.9037 17.2396 27.165C17.2791 27.1964 17.311 27.2364 17.3329 27.2819C17.3547 27.3275 17.366 27.3773 17.3658 27.4278ZM16.903 27.7844C16.7494 27.9579 16.6077 28.0922 16.4187 28.1668C16.7199 28.1306 16.8852 28.0059 16.903 27.7844Z" fill="#181818"/>
<path d="M13.9936 28.6282C13.8946 28.5344 13.8127 28.4517 13.7256 28.3757C13.6132 28.2801 13.4825 28.2085 13.3415 28.1653C13.2004 28.1222 13.052 28.1083 12.9054 28.1247C12.8591 28.1263 12.8136 28.137 12.7714 28.1563C12.7292 28.1756 12.6913 28.2029 12.6598 28.2369C12.6282 28.2708 12.6037 28.3107 12.5876 28.3541C12.5714 28.3976 12.5641 28.4438 12.5658 28.4901C12.5717 28.6503 12.7046 28.7647 12.9076 28.7788C13.0421 28.7769 13.176 28.7606 13.307 28.73C13.3808 28.719 13.462 28.6998 13.5049 28.7854C13.5477 28.871 13.5115 28.933 13.4517 29.0002C13.2147 29.252 12.9209 29.2143 12.6293 29.1582C12.454 29.1174 12.2887 29.0422 12.1428 28.9367C11.7331 28.6614 11.7582 28.169 12.1753 27.9091C12.6537 27.6138 13.3159 27.8043 13.6975 28.1727C13.8644 28.3336 13.9604 28.4761 13.9936 28.6282ZM12.3813 28.7094C12.2949 28.4141 12.3643 28.1963 12.6027 28.0383C12.43 28.0664 12.2927 28.1424 12.2255 28.3085C12.1583 28.4746 12.258 28.5787 12.3813 28.7094Z" fill="#181818"/>
<path d="M14.8101 22.8212C14.6986 22.8367 14.5975 22.8138 14.5022 22.8463C14.3945 22.8825 14.2948 22.9305 14.2704 23.0538C14.2651 23.0842 14.2705 23.1156 14.2857 23.1425C14.3009 23.1695 14.325 23.1903 14.3538 23.2014C14.4038 23.235 14.4627 23.2529 14.5229 23.2529C14.5831 23.2529 14.642 23.235 14.692 23.2014C14.7407 23.1675 14.7791 23.1195 14.8278 23.0855C14.9156 23.0235 15.0197 22.963 15.1098 23.0589C15.1888 23.1446 15.1696 23.2524 15.0987 23.3469C15.064 23.3956 15.0198 23.4368 14.9688 23.4679C14.7252 23.6156 14.2498 23.5728 14.0364 23.3838C13.8231 23.1948 13.826 22.9106 14.06 22.7312C14.1149 22.6871 14.178 22.6545 14.2457 22.6351C14.3133 22.6158 14.3841 22.6101 14.454 22.6185C14.5238 22.6269 14.5913 22.6492 14.6525 22.684C14.7136 22.7188 14.7672 22.7654 14.8101 22.8212Z" fill="#181818"/>
<path d="M28.5168 28.0538C29.0491 28.011 29.4138 28.5086 29.3547 29.0135C29.289 29.582 28.7929 30.1984 28.2437 30.3616C27.9292 30.4553 27.6295 30.4354 27.3844 30.1896C27.1002 29.9024 26.9584 29.565 27.0677 29.156C27.1596 28.8415 27.3499 28.5647 27.6107 28.3663C27.8716 28.1679 28.1891 28.0584 28.5168 28.0538ZM27.4656 28.7227C27.4368 28.7279 27.4324 28.7537 27.4205 28.7736C27.3925 28.815 27.3467 28.8474 27.3467 28.9213C27.37 28.9054 27.3899 28.885 27.4051 28.8613C27.4203 28.8375 27.4306 28.811 27.4353 28.7832C27.4634 28.7699 27.4914 28.7559 27.4619 28.719C27.4744 28.7308 27.4848 28.7286 27.4907 28.7131C27.4907 28.7094 27.4907 28.7042 27.487 28.6998L27.4656 28.7227ZM27.8694 28.8283C28.0076 28.7176 28.1582 28.6235 28.3182 28.5477C28.0923 28.5595 27.9491 28.6459 27.8524 28.8105C27.8435 28.8194 27.8266 28.8349 27.828 28.8379C27.8472 28.8659 27.8568 28.8393 27.8694 28.8283ZM28.8697 29.0549C28.8697 29.0379 28.8638 28.9988 28.8571 28.9597C28.8062 28.6599 28.6785 28.5736 28.3876 28.6644C28.0185 28.781 27.7734 29.0187 27.693 29.4078C27.6808 29.4661 27.6821 29.5264 27.6967 29.5841C27.7113 29.6418 27.7389 29.6955 27.7773 29.741C27.8157 29.7865 27.864 29.8227 27.9184 29.8468C27.9729 29.871 28.0321 29.8824 28.0916 29.8802C28.4762 29.8692 28.8719 29.4602 28.8697 29.0549ZM28.1802 30.1298C27.9958 30.1606 27.8065 30.1253 27.6457 30.0301C27.57 29.986 27.5047 29.926 27.4543 29.8542C27.404 29.7825 27.3698 29.7007 27.3541 29.6145C27.3551 29.7115 27.3804 29.8067 27.4279 29.8914C27.4754 29.976 27.5435 30.0473 27.6258 30.0986C27.7082 30.15 27.8021 30.1798 27.899 30.1852C27.9959 30.1907 28.0926 30.1716 28.1802 30.1298ZM27.3475 28.9309C27.2936 28.9368 27.2906 28.9862 27.2618 29.0047C27.2699 29.0091 27.2803 29.0187 27.2869 29.0165C27.329 29.0099 27.3408 28.9737 27.3475 28.9309ZM27.8177 28.891L27.8081 28.8733C27.8081 28.8733 27.7993 28.8799 27.8 28.8821C27.8019 28.8886 27.8047 28.8948 27.8081 28.9006L27.8177 28.891Z" fill="#181818"/>
<path d="M33.2415 31.4718C32.9861 31.1219 32.6457 31.1189 32.2914 31.1765C32.1495 31.2067 32.0205 31.2802 31.9223 31.3869C31.8709 31.4447 31.8376 31.5162 31.8265 31.5927C31.8153 31.6692 31.8268 31.7473 31.8595 31.8173C31.9378 31.9458 32.146 31.9974 32.332 31.9369C32.4343 31.8973 32.5283 31.8387 32.6088 31.7642C32.6967 31.6903 32.7941 31.6483 32.8908 31.7302C32.9357 31.7672 32.9658 31.819 32.9757 31.8763C32.9856 31.9336 32.9746 31.9926 32.9447 32.0425C32.9004 32.1433 32.8342 32.233 32.751 32.3052C32.6677 32.3773 32.5695 32.43 32.4634 32.4596C32.3074 32.506 32.1427 32.5154 31.9824 32.4871C31.822 32.4588 31.6705 32.3935 31.5399 32.2964C31.2394 32.086 31.2077 31.7258 31.4446 31.3692C31.5303 31.2398 31.6425 31.1302 31.7739 31.0477C31.9053 30.9652 32.0528 30.9116 32.2065 30.8907C32.3603 30.8697 32.5167 30.8818 32.6654 30.9261C32.8141 30.9705 32.9516 31.046 33.0687 31.1477C33.119 31.1863 33.1605 31.2351 33.1903 31.291C33.2201 31.3469 33.2376 31.4086 33.2415 31.4718ZM32.7816 31.8077C32.6155 31.9723 32.4863 32.1222 32.2537 32.1879C32.5335 32.1997 32.738 32.0558 32.7816 31.8077Z" fill="#181818"/>
<path d="M29.8552 32.6368C29.7475 32.5489 29.6603 32.4412 29.5481 32.3622C29.4319 32.2759 29.2996 32.2139 29.1589 32.1798C29.0183 32.1457 28.8722 32.1402 28.7294 32.1636C28.6439 32.1735 28.5655 32.2163 28.5111 32.283C28.4566 32.3498 28.4303 32.4351 28.4378 32.5209C28.4445 32.6789 28.5678 32.7867 28.7649 32.8036C28.9162 32.8169 29.0602 32.7748 29.2078 32.7542C29.2698 32.7461 29.3326 32.7416 29.3673 32.8029C29.3857 32.8329 29.3939 32.868 29.3906 32.9031C29.3873 32.9381 29.3726 32.9711 29.3488 32.9971C29.3055 33.0551 29.251 33.104 29.1885 33.1406C29.1259 33.1772 29.0567 33.201 28.9849 33.2104C28.7991 33.237 28.6098 33.2237 28.4297 33.1712C28.2495 33.1188 28.0827 33.0284 27.9403 32.9062C27.6118 32.6361 27.656 32.1968 28.0082 31.9591C28.4976 31.6298 29.1547 31.8166 29.5585 32.1924C29.6971 32.3097 29.8 32.4637 29.8552 32.6368ZM28.2164 32.6973C28.2164 32.5497 28.2016 32.4426 28.2437 32.3378C28.2915 32.24 28.3574 32.1521 28.4378 32.0787C28.3643 32.0868 28.2942 32.114 28.2344 32.1575C28.1746 32.201 28.1271 32.2593 28.0968 32.3267C28.0377 32.4618 28.0983 32.5711 28.2164 32.701V32.6973Z" fill="#181818"/>
<path d="M30.6791 26.8601C30.5063 26.8601 30.3447 26.8357 30.2133 26.9605C30.1033 27.0653 30.1158 27.182 30.2531 27.2425C30.3079 27.2733 30.3711 27.2855 30.4334 27.2774C30.4956 27.2693 30.5536 27.2413 30.5986 27.1975C30.6455 27.1533 30.6962 27.1133 30.75 27.0779C30.7811 27.052 30.8203 27.0379 30.8607 27.0379C30.9011 27.0379 30.9403 27.052 30.9714 27.0779C31.0018 27.1079 31.0214 27.1471 31.0272 27.1895C31.0329 27.2318 31.0245 27.2748 31.0032 27.3119C30.9782 27.3692 30.9404 27.4201 30.8926 27.4605C30.8449 27.501 30.7885 27.5299 30.7278 27.5452C30.4917 27.6154 30.2378 27.5937 30.0169 27.4846C29.836 27.3953 29.726 27.2292 29.7482 27.0749C29.7589 26.98 29.7979 26.8905 29.8602 26.8181C29.9225 26.7456 30.0051 26.6936 30.0974 26.6689C30.2015 26.6289 30.3163 26.626 30.4223 26.6609C30.5283 26.6957 30.619 26.7661 30.6791 26.8601Z" fill="#181818"/>
<path d="M25.1593 13.0729C25.1593 13.7454 24.5503 14.4718 23.8911 14.5863C23.4481 14.6645 23.0266 14.3722 22.8789 13.8931C22.7623 13.5136 22.873 13.1844 23.093 12.8832C23.2322 12.6845 23.4167 12.5219 23.6312 12.4086C23.8457 12.2954 24.0841 12.2349 24.3266 12.232C24.8596 12.2099 25.183 12.6986 25.1593 13.0729ZM23.6482 12.9902L23.6135 13.0301C23.6393 13.0471 23.6578 13.0426 23.6659 13.0109L23.6991 12.9843L24.0232 12.7754C23.8423 12.7355 23.7663 12.8647 23.6733 12.9636L23.6482 12.9902ZM23.1137 13.2117C23.1499 13.143 23.2141 13.0869 23.2207 12.9836C23.1533 13.0303 23.1048 13.0997 23.0842 13.1792C23.066 13.1962 23.0531 13.218 23.0469 13.242C23.0408 13.2661 23.0417 13.2914 23.0495 13.315L23.1137 13.2117ZM24.3783 12.8256C23.9819 12.83 23.6039 13.1534 23.4998 13.5682C23.4803 13.6354 23.4791 13.7065 23.4964 13.7743C23.5138 13.842 23.549 13.9039 23.5984 13.9533C23.6478 14.0028 23.7096 14.0381 23.7773 14.0556C23.845 14.073 23.9162 14.072 23.9833 14.0525C24.1193 14.0199 24.2482 13.9626 24.3635 13.8835C24.6042 13.7188 24.7393 13.239 24.6131 12.9799C24.5651 12.878 24.4957 12.8005 24.3783 12.8219V12.8256ZM23.1573 13.8547C23.1728 14.2275 23.6652 14.5191 23.9464 14.3323C23.5869 14.3279 23.2924 14.2238 23.1573 13.851V13.8547ZM23.2636 12.957C23.2509 12.9504 23.2371 12.9462 23.223 12.9444C23.2178 12.9444 23.2112 12.9585 23.2097 12.9673C23.2082 12.9762 23.2171 12.9961 23.2326 12.9902C23.2481 12.9843 23.2518 12.9688 23.2636 12.9533V12.957Z" fill="#181818"/>
<path d="M29.0262 15.6279C28.8723 15.4588 28.661 15.3527 28.4334 15.3304C28.2058 15.308 27.978 15.3709 27.7941 15.5069C27.6331 15.6324 27.5726 15.8258 27.6464 15.9808C27.7121 16.1166 27.9144 16.1794 28.1071 16.1284C28.2172 16.0925 28.318 16.0328 28.4024 15.9535C28.4932 15.8797 28.5973 15.8317 28.6977 15.9225C28.7981 16.0133 28.7929 16.1233 28.7412 16.2384C28.5788 16.5957 28.1263 16.7773 27.6915 16.6482C27.422 16.5677 27.1644 16.4474 27.1009 16.1373C27.0374 15.8272 27.1939 15.5615 27.4161 15.354C27.6124 15.1723 27.869 15.0697 28.1365 15.066C28.404 15.0623 28.6633 15.1578 28.8645 15.3341C28.9128 15.3668 28.9525 15.4105 28.9806 15.4616C29.0087 15.5127 29.0244 15.5697 29.0262 15.6279ZM28.5788 15.997C28.4127 16.1558 28.2835 16.3056 28.0466 16.3765C28.3382 16.3794 28.5404 16.2384 28.5788 15.9985V15.997Z" fill="#181818"/>
<path d="M25.6591 16.8202C25.5978 16.8202 25.5853 16.7648 25.5521 16.7309C25.4363 16.596 25.2909 16.4898 25.1272 16.4206C24.9635 16.3515 24.786 16.3212 24.6086 16.3322C24.5311 16.3305 24.4551 16.3536 24.3917 16.3983C24.3283 16.4429 24.2809 16.5067 24.2565 16.5803C24.2312 16.6408 24.2278 16.7083 24.2469 16.7711C24.2661 16.8339 24.3065 16.8881 24.3613 16.9243C24.4735 17.0047 24.6064 16.9981 24.7356 16.9826C24.8293 16.9708 24.9224 16.9509 25.0154 16.9346C25.0442 16.9252 25.0753 16.9257 25.1038 16.936C25.1323 16.9463 25.1565 16.9658 25.1726 16.9915C25.1891 17.0194 25.1964 17.0519 25.1933 17.0843C25.1903 17.1166 25.1771 17.1472 25.1556 17.1716C25.109 17.2366 25.0488 17.2908 24.9792 17.3303C24.9096 17.3698 24.8323 17.3937 24.7526 17.4004C24.5687 17.421 24.3826 17.403 24.2061 17.3477C24.0295 17.2925 23.8665 17.201 23.7272 17.0793C23.4245 16.8246 23.4533 16.406 23.7759 16.1698C24.114 15.9225 24.4802 15.9232 24.8552 16.0628C25.196 16.1892 25.4791 16.4354 25.6517 16.7552C25.6593 16.7675 25.6648 16.781 25.668 16.7951C25.6695 16.8003 25.6621 16.8099 25.6591 16.8202ZM24.052 16.928C23.9686 16.615 24.0387 16.3957 24.2875 16.2422C24.1103 16.2798 23.959 16.3492 23.8918 16.5323C23.8335 16.691 23.9346 16.7899 24.052 16.928Z" fill="#181818"/>
<path d="M26.4867 11.0406C26.3823 11.0304 26.277 11.0364 26.1744 11.0583C26.0644 11.0908 25.9684 11.1432 25.9419 11.2635C25.9371 11.2961 25.9439 11.3294 25.961 11.3575C25.9781 11.3857 26.0045 11.407 26.0356 11.4178C26.0847 11.4477 26.1414 11.463 26.1989 11.462C26.2564 11.4609 26.3124 11.4436 26.3604 11.4119C26.4306 11.3654 26.4904 11.3034 26.5605 11.2576C26.5918 11.2311 26.6319 11.2173 26.6729 11.2189C26.714 11.2206 26.7529 11.2375 26.782 11.2665C26.8091 11.2959 26.8264 11.3331 26.8313 11.3728C26.8362 11.4125 26.8285 11.4528 26.8093 11.4879C26.7823 11.5505 26.7406 11.6056 26.6878 11.6486C26.635 11.6917 26.5726 11.7214 26.5059 11.7352C26.287 11.791 26.0558 11.7731 25.8481 11.6843C25.6532 11.5987 25.5373 11.4303 25.5528 11.2598C25.5654 11.1605 25.6083 11.0674 25.6757 10.9933C25.743 10.9192 25.8316 10.8676 25.9293 10.8457C26.1611 10.7851 26.3523 10.8494 26.4867 11.0406Z" fill="#181818"/>
<path d="M13.0007 25.0234C13.0007 25.4353 12.6168 25.8354 12.2329 25.8524C12.1719 25.8584 12.1103 25.8496 12.0534 25.8267C11.9965 25.8038 11.946 25.7675 11.9061 25.7209C11.8663 25.6743 11.8383 25.6188 11.8245 25.559C11.8107 25.4993 11.8115 25.4371 11.8269 25.3777C11.9059 24.9769 12.1679 24.7451 12.5415 24.6321C12.808 24.5516 12.9357 24.6432 12.9844 24.9163C12.9903 24.9584 12.9977 25.0034 13.0007 25.0234Z" fill="#F8F2EA"/>
<path d="M11.6002 25.848C11.7693 26.0606 12.0085 26.1108 12.275 26.1255C11.9753 26.22 11.7656 26.1455 11.5656 25.8819L11.6002 25.848Z" fill="#F8F2EA"/>
<path d="M11.9967 24.7561C12.0964 24.6181 12.2182 24.5251 12.4042 24.5384C12.2705 24.6066 12.1428 24.6861 12.0225 24.7761L11.9967 24.7561Z" fill="#F8F2EA"/>
<path d="M11.6004 25.8483L11.5656 25.8823C11.5269 25.8397 11.4986 25.7887 11.4831 25.7333C11.4676 25.6778 11.4652 25.6196 11.4762 25.563C11.5235 25.6562 11.545 25.7618 11.6004 25.8483Z" fill="#909090"/>
<path d="M11.5347 24.793C11.5081 24.9 11.4575 24.9996 11.3869 25.0842C11.3885 25.0278 11.4026 24.9724 11.4281 24.922C11.4537 24.8717 11.4901 24.8276 11.5347 24.793Z" fill="#909090"/>
<path d="M11.6512 24.6136C11.6599 24.5882 11.6745 24.5518 11.7006 24.5707C11.7268 24.5896 11.7006 24.6195 11.673 24.6355L11.6512 24.6136Z" fill="#909090"/>
<path d="M11.5614 24.7777C11.5396 24.7871 11.5345 24.7632 11.5367 24.7574C11.5445 24.7404 11.5553 24.7249 11.5686 24.7117C11.5708 24.709 11.5738 24.707 11.5772 24.7061C11.5805 24.7051 11.5841 24.7053 11.5874 24.7065C11.5907 24.7077 11.5935 24.7099 11.5955 24.7128C11.5974 24.7157 11.5984 24.7191 11.5983 24.7226C11.5991 24.7346 11.5959 24.7465 11.5892 24.7565C11.5825 24.7664 11.5727 24.7739 11.5614 24.7777Z" fill="#909090"/>
<path d="M11.9898 24.8018C11.9839 24.8291 11.9626 24.8467 11.9442 24.8261C11.9258 24.8055 11.9626 24.7982 11.9722 24.7834C11.9777 24.7899 11.9836 24.7961 11.9898 24.8018Z" fill="#F8F2EA"/>
<path d="M11.3769 25.11C11.3723 25.1031 11.3647 25.0971 11.3647 25.091C11.3647 25.085 11.3731 25.0812 11.3776 25.0759C11.3822 25.0705 11.386 25.0827 11.386 25.085C11.386 25.0872 11.3799 25.0978 11.3769 25.11Z" fill="#909090"/>
<path d="M11.9723 24.7841L11.9966 24.7562L12.0223 24.776L11.9899 24.8025C11.9837 24.7967 11.9778 24.7906 11.9723 24.7841Z" fill="#F8F2EA"/>
<path d="M11.6733 24.6365L11.6401 24.6793L11.6224 24.6454L11.6511 24.6144L11.6733 24.6365Z" fill="#909090"/>
<path d="M11.6418 24.6807C11.6295 24.6845 11.6088 24.6945 11.6057 24.6914C11.5881 24.6692 11.6057 24.6554 11.6233 24.6454L11.6418 24.6807Z" fill="#909090"/>
<path d="M16.903 27.7844C16.8889 28.0058 16.7236 28.1306 16.4187 28.1668C16.6077 28.0922 16.7457 27.9578 16.903 27.7844Z" fill="#F8F2EA"/>
<path d="M12.3813 28.7094C12.258 28.5787 12.1598 28.4724 12.2248 28.3085C12.2897 28.1446 12.4292 28.0664 12.602 28.0383C12.3643 28.1978 12.2949 28.4119 12.3813 28.7094Z" fill="#F8F2EA"/>
<path d="M28.8697 29.0549C28.8697 29.4601 28.4762 29.8669 28.0916 29.8824C28.0321 29.8846 27.9729 29.8731 27.9184 29.849C27.864 29.8249 27.8157 29.7887 27.7773 29.7432C27.7389 29.6977 27.7113 29.644 27.6967 29.5863C27.6821 29.5286 27.6808 29.4683 27.693 29.4099C27.7734 29.0209 28.0215 28.7832 28.3876 28.6665C28.6785 28.5735 28.8062 28.6599 28.8571 28.9618C28.8623 28.9988 28.8675 29.0379 28.8697 29.0549Z" fill="#F8F2EA"/>
<path d="M28.1802 30.1297C28.0925 30.1716 27.9957 30.1907 27.8987 30.1852C27.8016 30.1797 27.7076 30.1498 27.6252 30.0982C27.5428 30.0467 27.4748 29.9752 27.4274 29.8904C27.38 29.8056 27.3548 29.7101 27.3541 29.613C27.3698 29.6992 27.404 29.781 27.4543 29.8528C27.5047 29.9245 27.57 29.9845 27.6457 30.0286C27.8064 30.1243 27.9957 30.1601 28.1802 30.1297Z" fill="#F8F2EA"/>
<path d="M27.8524 28.8105C27.9491 28.6459 28.0923 28.5595 28.3182 28.5477C28.1582 28.6235 28.0076 28.7176 27.8694 28.8283L27.8524 28.8105Z" fill="#F8F2EA"/>
<path d="M27.4357 28.7832C27.431 28.8108 27.4207 28.8373 27.4056 28.8609C27.3904 28.8845 27.3707 28.9048 27.3475 28.9206C27.3475 28.8471 27.3923 28.8148 27.421 28.7736L27.4357 28.7832Z" fill="#F8F2EA"/>
<path d="M27.3459 28.9308C27.3394 28.9729 27.3278 29.0033 27.2865 29.0178C27.2799 29.0178 27.2698 29.0106 27.2618 29.0062C27.2901 28.9852 27.293 28.9359 27.3459 28.9308Z" fill="#F8F2EA"/>
<path d="M27.4597 28.719C27.4892 28.7559 27.4597 28.7699 27.4331 28.7832L27.4176 28.7736C27.4294 28.7537 27.4338 28.7278 27.4626 28.7227L27.4597 28.719Z" fill="#F8F2EA"/>
<path d="M27.4657 28.7234L27.4885 28.6998C27.4885 28.7043 27.4939 28.7097 27.4923 28.7135C27.4862 28.7295 27.4756 28.7318 27.4626 28.7196L27.4657 28.7234Z" fill="#F8F2EA"/>
<path d="M27.871 28.8289C27.858 28.8404 27.848 28.868 27.8281 28.8389C27.8281 28.8389 27.8442 28.8197 27.8534 28.8105L27.871 28.8289Z" fill="#F8F2EA"/>
<path d="M27.8179 28.8912L27.8082 28.9009C27.8047 28.895 27.802 28.8888 27.8 28.8822C27.8 28.8822 27.8052 28.8762 27.8082 28.8732L27.8179 28.8912Z" fill="#F8F2EA"/>
<path d="M32.7816 31.8077C32.738 32.0558 32.5335 32.1997 32.2538 32.1879C32.4856 32.1222 32.6155 31.9724 32.7816 31.8077Z" fill="#F8F2EA"/>
<path d="M28.2164 32.701C28.0982 32.5748 28.0377 32.4655 28.0968 32.3319C28.1271 32.2645 28.1746 32.2061 28.2344 32.1626C28.2942 32.1191 28.3643 32.092 28.4378 32.0839C28.3574 32.1572 28.2915 32.2452 28.2437 32.343C28.2016 32.4426 28.2164 32.5534 28.2164 32.701Z" fill="#F8F2EA"/>
<path d="M24.3783 12.8219C24.4957 12.8005 24.5651 12.878 24.613 12.9762C24.7393 13.2353 24.6042 13.7144 24.3635 13.8798C24.2482 13.9589 24.1193 14.0162 23.9833 14.0488C23.9162 14.0683 23.845 14.0693 23.7773 14.0519C23.7096 14.0344 23.6478 13.9991 23.5984 13.9496C23.549 13.9001 23.5138 13.8383 23.4964 13.7706C23.4791 13.7028 23.4802 13.6317 23.4998 13.5645C23.6039 13.1497 23.9819 12.8263 24.3783 12.8219Z" fill="#F8F2EA"/>
<path d="M23.1573 13.851C23.2924 14.2238 23.5869 14.3279 23.9464 14.3286C23.6652 14.5125 23.1728 14.2238 23.1573 13.851Z" fill="#F8F2EA"/>
<path d="M23.6733 12.9609C23.7664 12.8619 23.8425 12.7325 24.0236 12.7724L23.6991 12.9816L23.6733 12.9609Z" fill="#F8F2EA"/>
<path d="M23.0842 13.1746C23.1047 13.0955 23.1529 13.0264 23.2202 12.9799C23.2135 13.0828 23.1466 13.1386 23.1136 13.207L23.0842 13.1746Z" fill="#909090"/>
<path d="M23.1136 13.2117L23.0495 13.3149C23.0417 13.2914 23.0408 13.266 23.0469 13.242C23.0531 13.2179 23.066 13.1961 23.0841 13.1792L23.1136 13.2117Z" fill="#909090"/>
<path d="M23.2635 12.9533C23.2495 12.9688 23.2429 12.9828 23.2325 12.9865C23.2222 12.9902 23.206 12.9813 23.2097 12.9636C23.2134 12.9459 23.2178 12.9407 23.223 12.9407C23.2371 12.9425 23.2509 12.9467 23.2635 12.9533Z" fill="#909090"/>
<path d="M23.6657 13.0078C23.6576 13.0395 23.6392 13.0439 23.6135 13.027L23.6481 12.9872L23.6657 13.0078Z" fill="#F8F2EA"/>
<path d="M23.6989 12.9813L23.6658 13.0078L23.6482 12.9872L23.6732 12.9607L23.6989 12.9813Z" fill="#F8F2EA"/>
<path d="M28.5788 15.9985C28.5404 16.237 28.3382 16.3795 28.0466 16.378C28.2813 16.3071 28.4127 16.1573 28.5788 15.9985Z" fill="#F8F2EA"/>
<path d="M24.052 16.9279C23.9346 16.7899 23.8305 16.691 23.8918 16.5323C23.959 16.3492 24.1133 16.2798 24.2875 16.2421C24.0387 16.3957 23.9686 16.6149 24.052 16.9279Z" fill="#F8F2EA"/>
</svg>
