<svg width="20" height="27" viewBox="0 0 20 27" fill="none" xmlns="http://www.w3.org/2000/svg">
<path d="M7.94567 23.2334C7.9425 23.3234 7.96155 23.4733 7.91498 23.6192C7.89653 23.6855 7.86207 23.7429 7.81642 23.7833C7.77078 23.8237 7.71624 23.8451 7.66045 23.8444C7.60518 23.8336 7.55435 23.7999 7.51601 23.7486C7.47767 23.6973 7.45401 23.6314 7.44879 23.5613C7.2819 22.21 7.00128 20.8849 6.61165 19.6084C6.27763 18.4943 5.84899 17.4288 5.33319 16.4306C4.6982 15.2232 3.93726 14.165 2.99535 13.3241C2.25453 12.6617 1.43697 12.2286 0.527339 12.0906C0.38129 12.0687 0.2363 12.024 0.0918381 11.99C0.0389218 11.976 -0.00870276 11.9394 0.00135133 11.8608C0.00607506 11.8296 0.0191649 11.8013 0.0384301 11.7808C0.0576953 11.7603 0.0819671 11.7488 0.107184 11.7481C0.821024 11.6362 1.4539 11.2637 2.05344 10.7833C2.61625 10.3229 3.14036 9.79148 3.61765 9.19734C4.4057 8.23614 5.10671 7.16789 5.70784 6.01217C6.43805 4.6298 7.01088 3.12544 7.40963 1.54294C7.49006 1.21776 7.56256 0.889916 7.625 0.558738C7.65595 0.408892 7.70541 0.266105 7.77158 0.135604C7.81338 0.0489779 7.86788 -0.0129929 7.95573 0.00233318C8.00083 0.0049444 8.04439 0.023868 8.08117 0.0568394C8.11796 0.0898108 8.14642 0.135433 8.16316 0.188246C8.24571 0.436129 8.24359 0.703337 8.28698 0.960549C8.46954 2.0467 8.73306 3.10287 9.0241 4.14905C9.24794 4.95467 9.51252 5.7403 9.78451 6.5226C9.99036 7.11499 10.292 7.62941 10.5962 8.14117C10.8712 8.59722 11.1705 9.02913 11.4921 9.4339C11.5249 9.47521 11.562 9.51186 11.598 9.55184C11.7038 9.67112 11.7038 9.67245 11.7609 9.5052C11.9885 8.8515 12.1779 8.17982 12.3615 7.50614C12.5653 6.75982 12.7817 6.0175 12.9129 5.24054C12.9318 5.16236 12.9555 5.08616 12.9838 5.01264C13.0001 4.96125 13.0289 4.91766 13.0661 4.8881C13.1032 4.85854 13.1469 4.84452 13.1907 4.84805C13.2347 4.84673 13.2777 4.86468 13.3123 4.89883C13.347 4.93298 13.3712 4.98121 13.3807 5.0353C13.4398 5.25973 13.4754 5.49293 13.4865 5.72897C13.5123 6.3188 13.5832 6.90412 13.6982 7.47682C13.7966 7.97058 13.966 8.4357 14.1358 8.89748C14.6946 10.4136 15.4909 11.7719 16.4768 12.8909C16.9637 13.448 17.4881 13.9451 18.1088 14.2543C18.35 14.376 18.6031 14.4569 18.8612 14.4948C18.9401 14.5062 19.02 14.5288 19.0348 14.6388C19.0496 14.7634 18.9867 14.832 18.8909 14.87C17.9995 15.2319 17.1659 15.7893 16.4287 16.5166C15.5473 17.3747 14.8147 18.451 14.276 19.6791C13.76 20.8541 13.415 22.136 13.2574 23.464C13.2156 23.7971 13.1939 24.1396 13.1664 24.4782C13.1608 24.5871 13.1376 24.6935 13.0981 24.7907C13.0251 24.9566 12.9135 24.9653 12.8251 24.8133C12.7504 24.6725 12.7074 24.5087 12.7007 24.3396C12.6121 23.2725 12.4268 22.2217 12.1483 21.2077C11.874 20.1588 11.5321 19.1399 11.1259 18.1611C10.9053 17.6354 10.6756 17.1143 10.3248 16.6991C10.256 16.6118 10.1724 16.545 10.0803 16.5039C10.009 16.4699 9.93063 16.4677 9.85816 16.4975C9.78569 16.5273 9.72349 16.5874 9.68185 16.6678C9.31144 17.3288 9.02781 18.0472 8.7754 18.7868C8.45378 19.7173 8.21543 20.6899 8.06473 21.6868C7.98684 22.1965 7.94697 22.7143 7.94567 23.2334ZM14.5983 11.6029V11.6209H14.6078L14.5957 11.6069L14.5782 11.5402L14.6031 11.5162C14.6951 11.7375 14.874 11.6815 15.0238 11.7295C14.7246 11.2165 14.4657 10.6682 14.2506 10.0923C13.7686 8.79886 13.4521 7.44816 13.3564 6.0195C13.3426 5.8136 13.3564 5.5997 13.2886 5.40246C13.259 5.31916 13.2251 5.22721 13.141 5.22654C13.0569 5.22588 13.0378 5.31983 13.0161 5.3938C12.95 5.59985 12.901 5.81402 12.8701 6.03283C12.8267 6.41931 12.7563 6.7998 12.6891 7.18096C12.5203 8.13451 12.3457 9.08473 11.9562 9.94566C11.9313 10.001 11.9498 10.0236 11.9795 10.0556C12.1102 10.1913 12.2464 10.3186 12.3875 10.4368C12.4451 10.4867 12.47 10.4694 12.5023 10.3988C12.6458 10.084 12.7668 9.75375 12.8637 9.41191C12.9454 9.11903 13.0143 8.82072 13.0701 8.51833C13.1061 8.53632 13.0981 8.5683 13.1029 8.59229C13.2809 9.53837 13.5738 10.4442 13.9712 11.2777C13.9951 11.3277 14.0088 11.3983 14.0527 11.417C14.2305 11.4916 14.4078 11.5802 14.5983 11.6029ZM7.49747 22.8249C7.50052 22.9101 7.50901 22.9947 7.52287 23.0781C7.54519 23.1934 7.59847 23.2953 7.67368 23.3667C7.71284 23.4027 7.74935 23.41 7.77263 23.3527C7.82157 23.258 7.8537 23.1512 7.86683 23.0395C7.89621 22.3596 7.95913 21.6826 8.05521 21.0124C8.26158 19.6131 8.6066 18.2704 9.15587 17.0183C9.44056 16.3686 9.79615 15.7796 10.1237 15.1659C10.2479 14.9256 10.3993 14.7095 10.573 14.5242C11.644 13.412 12.8161 12.5511 14.1956 12.2046C14.4554 12.138 14.7147 12.0713 14.9735 11.9994C15.0211 11.986 15.1026 11.974 15.0978 11.9047C15.092 11.8201 15.0116 11.8274 14.9544 11.8221C14.5161 11.7715 14.0846 11.6515 13.6702 11.4649C13.1066 11.2257 12.6028 10.8412 12.1054 10.4354C11.3286 9.80106 10.6767 9.02076 10.1729 8.03655C9.29557 6.32269 8.6574 4.48422 8.31661 2.48783C8.21819 1.91077 8.13882 1.33037 8.13405 0.737321C8.13405 0.643365 8.11077 0.526753 8.01129 0.497434C7.93191 0.473445 7.74988 0.58206 7.7393 0.66802C7.72607 0.776635 7.68638 0.877255 7.67633 0.981206C7.63674 1.31451 7.57442 1.64291 7.49006 1.96274C6.74024 5.07928 5.42209 7.74802 3.50864 9.94499C3.29063 10.1955 3.07367 10.4601 2.81438 10.636C2.13412 11.093 1.40939 11.4362 0.658571 11.6568C0.585896 11.6768 0.515867 11.7098 0.45061 11.7548C0.414627 11.7801 0.384465 11.8148 0.397694 11.8747C0.410923 11.9347 0.445848 11.9334 0.482889 11.9374C1.02899 11.9994 1.54809 12.2039 2.06244 12.4272C2.47783 12.6077 2.89058 12.799 3.25676 13.1135C4.06903 13.8098 4.72889 14.7008 5.2988 15.6989C6.33702 17.5161 7.00694 19.5371 7.36253 21.7254C7.42297 22.0887 7.46801 22.4557 7.49747 22.8249ZM9.81573 16.2107C10.2454 16.3853 10.5645 16.7111 10.8434 17.1076C11.3096 17.77 11.6069 18.5556 11.8678 19.3652C12.3086 20.7312 12.5658 22.1586 12.7536 23.6092C12.7891 23.8824 12.8224 24.1556 12.8552 24.4295C12.858 24.4732 12.8726 24.5143 12.8964 24.5462C12.9203 24.578 12.952 24.5987 12.9865 24.6048C13.0621 24.6201 13.0881 24.5315 13.1156 24.4655C13.1373 24.4177 13.148 24.3632 13.1463 24.3082C13.1392 24.1412 13.1459 23.9737 13.1664 23.8085C13.2124 23.3807 13.2389 22.9502 13.3077 22.5271C13.6334 20.4436 14.4092 18.5137 15.5497 16.9497C16.0817 16.2099 16.7366 15.627 17.468 15.2425C17.8201 15.0448 18.1878 14.8943 18.5649 14.7934C18.6612 14.7701 18.6744 14.7067 18.6078 14.6155C18.5445 14.5404 18.4668 14.4874 18.3823 14.4615C17.9717 14.279 17.5707 14.0637 17.1817 13.8172C16.526 13.4207 15.9276 12.9223 15.4217 12.2626C15.3121 12.12 15.2222 12.0627 15.0645 12.138C14.9068 12.2133 14.7211 12.2479 14.5353 12.3039C15.2063 13.364 16.017 14.149 17.0552 14.5895C16.8847 14.6321 16.7181 14.697 16.5583 14.7834C16.0667 15.0546 15.6683 15.4864 15.3053 15.9708C14.3681 17.2222 13.7157 18.6882 13.278 20.3141C13.1976 20.6126 13.1362 20.9185 13.0664 21.2577C13.051 21.169 13.042 21.1157 13.0336 21.0631C12.8113 19.6851 12.4102 18.4023 11.7509 17.2589C11.3895 16.6325 10.9672 16.0841 10.4142 15.7189C10.1914 15.5717 10.1835 15.5763 10.0438 15.8475C10.0697 15.8909 10.1242 15.8815 10.1496 15.9482C9.94167 15.8362 9.93109 16.1008 9.81573 16.2107Z" fill="#F8F2EA"/>
<path d="M10.1614 26.4179C10.1627 26.5314 10.1343 26.6423 10.0807 26.7335C10.027 26.8248 9.95111 26.8913 9.86454 26.923C9.81602 26.9476 9.76227 26.9506 9.71221 26.9315C9.66215 26.9123 9.6188 26.8722 9.58938 26.8177C9.50556 26.6806 9.45933 26.5129 9.45761 26.3399C9.45591 26.253 9.4774 26.1679 9.51866 26.0982C9.55991 26.0285 9.61853 25.9782 9.68515 25.9554C9.75211 25.9201 9.82653 25.914 9.89655 25.9382C9.96656 25.9623 10.0281 26.0153 10.0714 26.0887C10.1332 26.1803 10.1654 26.2978 10.1614 26.4179ZM9.97937 26.3426C9.97937 26.2393 9.95238 26.206 9.88623 26.2386C9.86414 26.2484 9.84392 26.2638 9.82687 26.284C9.80983 26.3042 9.79634 26.3287 9.78728 26.3559C9.77385 26.3935 9.77265 26.4363 9.78392 26.475C9.79519 26.5137 9.81805 26.5454 9.84761 26.5631C9.91269 26.6091 9.92539 26.5138 9.94709 26.4658C9.96186 26.427 9.97287 26.3861 9.9799 26.3439L9.97937 26.3426ZM9.72378 26.1427C9.5952 26.2326 9.57985 26.2919 9.63912 26.4805C9.63224 26.3419 9.67616 26.2473 9.72431 26.1413L9.72378 26.1427Z" fill="#040303"/>
<path d="M2.46598 20.6939C2.46598 21.0038 2.33105 21.2157 2.13737 21.2163C2.04476 21.2099 1.95761 21.1591 1.89376 21.0743C1.82992 20.9896 1.79421 20.8773 1.79395 20.7605C1.79538 20.6969 1.80677 20.6343 1.82745 20.5763C1.84813 20.5182 1.8777 20.4659 1.91447 20.4223C1.95123 20.3786 1.99447 20.3445 2.04171 20.322C2.08895 20.2994 2.13926 20.2888 2.18976 20.2908C2.3538 20.2914 2.46704 20.4573 2.46598 20.6939ZM2.30723 20.7472C2.30723 20.7152 2.31358 20.6586 2.2649 20.6679C2.23567 20.6713 2.20842 20.688 2.18826 20.7148C2.16809 20.7417 2.1564 20.7769 2.15536 20.8138C2.15536 20.8612 2.16859 20.9378 2.20828 20.9285C2.27654 20.9138 2.30512 20.8392 2.30829 20.7472H2.30723ZM2.07758 20.9538C2.05259 20.8814 2.04884 20.8001 2.06699 20.7246C2.09054 20.659 2.12315 20.5992 2.1633 20.548C1.95428 20.6379 1.922 20.7799 2.07758 20.9538Z" fill="#040303"/>
<path d="M3.94623 3.60595C3.94094 3.88915 3.77373 4.12438 3.58164 4.11971C3.43559 4.11638 3.30965 3.9258 3.3123 3.7139C3.316 3.43004 3.47105 3.2268 3.68271 3.23146C3.85151 3.23546 3.95047 3.37473 3.94623 3.60595ZM3.59963 3.70791C3.62344 3.73056 3.59328 3.82452 3.6462 3.80986C3.71023 3.79187 3.74304 3.70657 3.75944 3.62394C3.76949 3.57397 3.74251 3.55731 3.71023 3.55731C3.63561 3.55598 3.60757 3.61195 3.59963 3.70791Z" fill="#040303"/>
<path d="M18.1336 7.047C18.3919 7.047 18.4935 7.21292 18.4305 7.52677C18.4087 7.68031 18.3399 7.81695 18.2389 7.90726C18.2019 7.94478 18.1553 7.9641 18.1078 7.96165C18.0603 7.9592 18.0152 7.93514 17.9807 7.89393C17.9252 7.83541 17.8794 7.76367 17.846 7.68282C17.8126 7.60198 17.7922 7.51362 17.786 7.42282C17.769 7.20159 17.9198 7.047 18.1336 7.047ZM18.0326 7.46014C18.0326 7.58741 18.0521 7.67737 18.1384 7.69602C18.2029 7.71002 18.2723 7.60274 18.2712 7.50012C18.2731 7.47844 18.2712 7.4565 18.2656 7.43584C18.2601 7.41518 18.251 7.39629 18.2391 7.38049C18.2271 7.3647 18.2126 7.35237 18.1965 7.34437C18.1804 7.33638 18.1631 7.3329 18.1458 7.3342C18.0728 7.3342 18.0262 7.38617 18.0326 7.46014Z" fill="#040303"/>
<path d="M18.2573 20.2342C18.2573 20.4341 18.0949 20.6533 17.9472 20.652C17.8565 20.6455 17.7711 20.5962 17.7079 20.5139C17.6448 20.4317 17.6086 20.3225 17.6064 20.2082C17.6064 20.1536 17.6149 20.0996 17.6314 20.0492C17.6479 19.9988 17.6722 19.953 17.7028 19.9144C17.7335 19.8759 17.7698 19.8453 17.8099 19.8245C17.8499 19.8036 17.8928 19.7929 17.9361 19.793C18.0927 19.7984 18.2573 20.0209 18.2573 20.2342ZM17.8869 20.2462C17.8869 20.3048 17.8737 20.3701 17.9488 20.3654C18.024 20.3608 18.0594 20.2988 18.0658 20.2075C18.0721 20.1162 18.0409 20.0636 17.9795 20.0669C17.8917 20.0709 17.8869 20.1635 17.8821 20.2462H17.8869Z" fill="#040303"/>
<path d="M10.3268 21.3989C10.5385 21.4029 10.6443 21.4929 10.639 21.6701C10.6348 21.908 10.4803 22.1312 10.3215 22.1319C10.1776 22.1319 10.0183 21.8927 10.0225 21.6828C10.0278 21.5122 10.1522 21.3949 10.3268 21.3989ZM10.366 21.7821C10.3686 21.7321 10.3564 21.7081 10.3173 21.7221C10.2961 21.7294 10.2596 21.7174 10.2644 21.7654C10.2691 21.8134 10.2818 21.858 10.3268 21.8567C10.3718 21.8554 10.3612 21.8087 10.366 21.7821Z" fill="#040303"/>
<path d="M5.111 1.70551C5.05123 1.70088 4.99536 1.66655 4.95567 1.61008C4.91598 1.5536 4.89572 1.47959 4.89934 1.40432C4.8987 1.36456 4.90439 1.32504 4.91605 1.28808C4.92771 1.25112 4.94512 1.21747 4.96725 1.1891C4.98939 1.16073 5.0158 1.13822 5.04494 1.12288C5.07407 1.10755 5.10535 1.0997 5.13693 1.09979C5.20067 1.10411 5.26048 1.1399 5.30338 1.19942C5.34628 1.25893 5.3688 1.33734 5.36606 1.41764C5.35961 1.49699 5.3299 1.57045 5.28274 1.62368C5.23557 1.67691 5.17434 1.70609 5.111 1.70551ZM5.12159 1.54025C5.18138 1.52359 5.24806 1.50893 5.2634 1.41098C5.27187 1.359 5.1671 1.21907 5.12688 1.22773C5.09413 1.23063 5.06352 1.24925 5.04136 1.27976C5.0192 1.31027 5.00719 1.35032 5.00782 1.39166C5.00596 1.41127 5.00759 1.43116 5.01259 1.44989C5.01759 1.46862 5.02583 1.48571 5.03672 1.49993C5.04761 1.51415 5.06087 1.52515 5.07555 1.53212C5.09023 1.5391 5.10595 1.54187 5.12159 1.54025Z" fill="#040303"/>
<path d="M15.7217 4.86869C15.7217 4.99529 15.6047 5.19253 15.5296 5.19653C15.4433 5.20053 15.3486 5.06326 15.3491 4.93532C15.3531 4.86468 15.3787 4.79874 15.4206 4.75148C15.4625 4.70422 15.5173 4.67934 15.5735 4.68211C15.5932 4.68087 15.6129 4.68484 15.6313 4.69378C15.6498 4.70272 15.6665 4.71642 15.6804 4.734C15.6944 4.75158 15.7053 4.77264 15.7124 4.79584C15.7195 4.81904 15.7226 4.84386 15.7217 4.86869ZM15.51 5.04527C15.531 5.02898 15.5489 5.00702 15.5623 4.98098C15.5758 4.95494 15.5845 4.92546 15.5878 4.89467C15.5999 4.8367 15.5581 4.80805 15.5248 4.80938C15.5029 4.8097 15.4819 4.82058 15.4661 4.83979C15.4504 4.859 15.4411 4.88508 15.4401 4.91267C15.4402 4.94085 15.4468 4.9684 15.4591 4.99195C15.4715 5.01549 15.4889 5.03402 15.5095 5.04527H15.51Z" fill="#040303"/>
<path d="M7.49757 22.8249C7.46872 22.4546 7.42421 22.0864 7.36422 21.7221C7.00597 19.5338 6.33605 17.5127 5.30048 15.6956C4.73057 14.6961 4.07071 13.8065 3.25844 13.1101C2.89226 12.7956 2.47951 12.6044 2.06412 12.4238C1.54978 12.1999 1.03067 11.996 0.484571 11.934C0.447529 11.93 0.410488 11.928 0.399375 11.8714C0.388263 11.8147 0.417367 11.7768 0.452292 11.7514C0.517548 11.7065 0.587578 11.6735 0.660253 11.6535C1.41108 11.4328 2.1358 11.0896 2.81606 10.6326C3.07535 10.4567 3.29231 10.1922 3.51032 9.94163C5.42378 7.74266 6.74192 5.07725 7.49174 1.95938C7.57467 1.6407 7.63575 1.31366 7.67431 0.981842C7.68436 0.877891 7.72405 0.777272 7.73728 0.668657C7.74786 0.582697 7.92989 0.474081 8.00927 0.49807C8.10875 0.527389 8.13097 0.644002 8.13203 0.737957C8.13679 1.33101 8.21617 1.9114 8.31459 2.48847C8.65537 4.48753 9.29354 6.32333 10.1709 8.03719C10.6741 9.02073 11.3266 9.80103 12.1034 10.4361C12.6008 10.8419 13.1046 11.2264 13.6681 11.4656C14.0832 11.653 14.5154 11.7737 14.9545 11.8247C15.0117 11.8301 15.0921 11.8247 15.0979 11.9074C15.1027 11.974 15.0212 11.9887 14.9736 12.002C14.7148 12.0746 14.4555 12.1413 14.1957 12.2072C12.8162 12.5537 11.6441 13.4147 10.5731 14.5268C10.3994 14.7121 10.248 14.9283 10.1238 15.1685C9.79625 15.7822 9.44065 16.3713 9.15596 17.021C8.60669 18.273 8.26168 19.6131 8.0553 21.0151C7.95922 21.6852 7.89631 22.3622 7.86692 23.0421C7.8538 23.1538 7.82167 23.2607 7.77273 23.3553C7.74945 23.4126 7.71293 23.4053 7.67378 23.3693C7.59857 23.2979 7.54528 23.196 7.52296 23.0808C7.50899 22.9965 7.5005 22.9109 7.49757 22.8249ZM3.78443 10.1269C3.77897 10.1338 3.77384 10.1411 3.76908 10.1489C3.7802 10.1669 3.78972 10.1549 3.79925 10.1449C3.80877 10.1349 3.82623 10.1275 3.81142 10.1095C3.7966 10.0916 3.79078 10.1142 3.78443 10.1269ZM3.85851 10.0836L3.93683 10.0116L3.96858 9.97694L4.0506 9.88965C4.44588 9.51116 4.76761 9.04538 5.06765 8.55228C5.09083 8.53533 5.10804 8.50795 5.1158 8.47565L5.18036 8.36637C5.19253 8.35504 5.20364 8.34238 5.18883 8.32505C5.18618 8.32505 5.17242 8.33438 5.16343 8.33971L5.08882 8.45433L5.06342 8.50164C4.74143 8.98171 4.39517 9.43511 4.02679 9.859L3.94 9.95295L3.91143 9.98694L3.83893 10.0636C3.83047 10.0742 3.81459 10.0842 3.82941 10.1009C3.84423 10.1175 3.85058 10.0956 3.85851 10.0836ZM5.28725 14.8706L5.26714 14.8413C5.24968 14.8147 5.24227 14.7647 5.19465 14.8L5.25286 14.8786H5.25603C5.27311 14.9228 5.29833 14.9612 5.32959 14.9906C5.64184 15.4996 5.92731 16.0339 6.18418 16.5898C6.20165 16.5545 6.18842 16.5272 6.17889 16.4979C6.11718 16.2799 6.02606 16.0771 5.90955 15.8982C5.70476 15.605 5.56453 15.2498 5.35181 14.9653C5.33855 14.9265 5.31645 14.8936 5.28831 14.8706H5.28725ZM12.4955 11.2763C12.4927 11.2766 12.4899 11.2766 12.487 11.2763C12.487 11.2763 12.487 11.271 12.4839 11.2683L12.4971 11.2757C12.8003 11.4576 13.1247 11.5482 13.4469 11.6482L13.4554 11.6115L12.4955 11.2763ZM8.11563 18.3397C8.37279 17.2646 8.72793 16.2307 9.17395 15.2585C8.66905 16.1979 8.29968 17.242 8.08282 18.343C8.04805 18.4721 8.02774 18.6067 8.02249 18.7428C8.06324 18.612 8.09476 18.4768 8.11669 18.339L8.11563 18.3397ZM12.1404 11.8661C11.997 11.7414 11.8378 11.7048 11.6975 11.6168C11.1402 11.2588 10.6439 10.7669 10.2365 10.1689C9.1348 8.59759 8.39873 6.78444 7.98969 4.75673C7.9336 4.47886 7.89073 4.19633 7.84205 3.91579C7.81718 3.92179 7.8193 3.94311 7.81665 3.95844C7.73288 4.36642 7.63058 4.768 7.51026 5.16121C6.99768 6.88066 6.1896 8.43616 5.14385 9.7164C4.47816 10.5347 3.73839 11.2217 2.86845 11.6608C2.85575 11.6675 2.8404 11.6721 2.84093 11.7028L2.91872 11.7255C2.94994 11.7348 2.98169 11.7434 3.01291 11.7541C4.01832 12.0946 4.83323 12.8069 5.52432 13.7625C6.51332 15.1298 7.14091 16.7424 7.53514 18.5109C7.60604 18.8294 7.66108 19.1533 7.73146 19.5105C7.75054 19.1949 7.78287 18.8808 7.82829 18.5696C8.10928 16.8657 8.72363 15.3671 9.61157 14.045C10.2884 13.0382 11.0747 12.2106 12.1415 11.8654L12.1404 11.8661ZM1.95035 12.0113C2.86686 12.3012 3.71405 12.8289 4.52685 13.4993C4.203 12.8176 2.45623 11.8314 1.95035 12.0113ZM6.09634 6.74713C6.57576 6.0941 6.85199 5.30048 7.07371 4.47087C6.78249 5.25323 6.45617 6.0141 6.09634 6.74979V6.74713ZM7.14514 19.1873L7.17213 19.1753C7.11294 18.8615 7.03944 18.5522 6.952 18.249C6.82976 17.8193 6.71546 17.3828 6.53502 16.983C6.51861 16.947 6.51226 16.8837 6.45935 16.8957C6.68953 17.666 6.9176 18.4263 7.14514 19.1873ZM13.0189 11.7394C12.7797 11.6695 12.5669 11.6062 12.359 11.5215C12.3378 11.5129 12.3161 11.5002 12.3061 11.5389C12.3047 11.5443 12.3043 11.5501 12.3049 11.5558C12.3054 11.5615 12.3069 11.567 12.3093 11.5719C12.3116 11.5768 12.3147 11.581 12.3185 11.5843C12.3222 11.5876 12.3265 11.5898 12.3309 11.5908C12.549 11.6848 12.7479 11.8814 13.0215 11.7394H13.0189ZM2.89438 10.9811C2.63773 11.1444 2.39432 11.3403 2.13291 11.4922C2.42007 11.4162 2.68414 11.2389 2.89438 10.9811ZM9.5994 15.6603C9.76926 15.3877 9.94441 15.1205 10.1164 14.8493C9.86927 15.0446 9.74651 15.3644 9.5994 15.6603ZM11.8547 12.2019L12.3585 11.9767L12.3473 11.9407C12.172 11.9897 12.0051 12.0782 11.8547 12.2019ZM5.2174 8.31106C5.22499 8.29995 5.23107 8.28734 5.23539 8.27374C5.23629 8.2708 5.23632 8.26755 5.2355 8.26458C5.23467 8.2616 5.23303 8.2591 5.23088 8.2575C5.22872 8.2559 5.22618 8.25532 5.22371 8.25585C5.22125 8.25638 5.21901 8.258 5.2174 8.26042C5.20958 8.26779 5.20323 8.27738 5.19888 8.2884C5.19518 8.29973 5.19782 8.31173 5.2174 8.31106ZM11.8208 12.2192C11.8182 12.2192 11.8155 12.2106 11.8129 12.2106C11.8102 12.2106 11.8076 12.2159 11.805 12.2186C11.8023 12.2212 11.8097 12.2272 11.8124 12.2272C11.815 12.2272 11.8176 12.2246 11.8208 12.2192ZM11.7769 12.2459C11.7769 12.2459 11.7727 12.2379 11.77 12.2379C11.7674 12.2379 11.7647 12.2425 11.7621 12.2452C11.7594 12.2479 11.7663 12.2532 11.769 12.2532C11.7716 12.2532 11.7743 12.2485 11.7769 12.2459ZM11.7282 12.2812L11.7351 12.2739L11.7288 12.2659L11.7219 12.2772L11.7282 12.2812ZM9.18507 15.2131L9.19247 15.2298C9.19247 15.2265 9.19935 15.2231 9.19882 15.2211C9.19725 15.2149 9.19512 15.2088 9.19247 15.2031L9.18507 15.2131Z" fill="#040303"/>
<path d="M9.81567 16.2107C9.93103 16.1007 9.94162 15.8362 10.1554 15.9481C10.1284 15.8815 10.0739 15.8908 10.0496 15.8475C10.1871 15.5763 10.1951 15.5716 10.42 15.7189C10.973 16.0841 11.3952 16.6325 11.7566 17.2588C12.416 18.4023 12.815 19.685 13.0393 21.0631C13.0478 21.1157 13.0568 21.169 13.0721 21.2576C13.1399 20.9185 13.2013 20.6126 13.2838 20.3141C13.7214 18.6895 14.3739 17.2235 15.3121 15.9708C15.6751 15.4863 16.0736 15.0545 16.5651 14.7833C16.7249 14.697 16.8915 14.632 17.062 14.5894C16.0222 14.149 15.2131 13.364 14.5422 12.3038C14.7268 12.2479 14.9057 12.2166 15.0713 12.1379C15.2369 12.0593 15.319 12.1199 15.4285 12.2625C15.9344 12.9222 16.5329 13.4207 17.1885 13.8171C17.5775 14.0637 17.9785 14.2789 18.3892 14.4615C18.4736 14.4873 18.5513 14.5404 18.6146 14.6154C18.6813 14.7067 18.6675 14.77 18.5717 14.7933C18.1946 14.8942 17.8269 15.0448 17.4748 15.2425C16.7434 15.627 16.0885 16.2099 15.5566 16.9497C14.416 18.5137 13.6402 20.4436 13.3145 22.527C13.2457 22.9502 13.2192 23.3806 13.1732 23.8084C13.1527 23.9737 13.146 24.1412 13.1531 24.3082C13.1548 24.3632 13.1442 24.4177 13.1224 24.4655C13.0949 24.5321 13.0695 24.62 12.9933 24.6047C12.9589 24.5987 12.9271 24.578 12.9032 24.5461C12.8794 24.5143 12.8649 24.4731 12.8621 24.4295C12.8293 24.1556 12.7959 23.8824 12.7605 23.6092C12.5726 22.1585 12.3154 20.7312 11.8746 19.3652C11.6138 18.5556 11.3164 17.7699 10.8502 17.1076C10.5644 16.7111 10.2454 16.3853 9.81567 16.2107ZM17.1144 14.9306C16.7011 15.0046 16.3736 15.2984 16.0561 15.6163C16.3939 15.3527 16.7478 15.1234 17.1144 14.9306ZM16.4948 13.6179C16.6763 13.7942 16.8821 13.927 17.1017 14.0097L16.4948 13.6179Z" fill="#040303"/>
<path d="M14.5782 11.5389L14.5957 11.6055H14.5983C14.4078 11.5828 14.2279 11.4956 14.0511 11.4196C14.0072 11.4009 13.9935 11.3303 13.9697 11.2803C13.5725 10.4456 13.2801 9.5387 13.1029 8.59158C13.0981 8.56759 13.1061 8.53561 13.0701 8.51762C13.0143 8.82001 12.9454 9.11832 12.8637 9.4112C12.7668 9.75304 12.6458 10.0833 12.5023 10.3981C12.47 10.4687 12.4451 10.486 12.3875 10.436C12.2464 10.3179 12.1102 10.1906 11.9795 10.0549C11.9498 10.0229 11.9313 10.0003 11.9562 9.94495C12.3457 9.08402 12.5203 8.1338 12.6891 7.18025C12.7563 6.79909 12.8267 6.41861 12.8701 6.03212C12.901 5.81331 12.9499 5.59914 13.0161 5.39309C13.0378 5.31912 13.0632 5.22517 13.141 5.22583C13.2188 5.2265 13.259 5.31846 13.2886 5.40175C13.3585 5.60166 13.3415 5.81289 13.3564 6.01879C13.4521 7.44745 13.7686 8.79815 14.2506 10.0915C14.4656 10.6682 14.7245 11.2171 15.0237 11.7308C14.874 11.6828 14.6951 11.7388 14.6031 11.5175C14.6016 11.5087 14.5995 11.5 14.5967 11.4916C13.9943 10.2288 13.5787 8.83897 13.3701 7.38948C13.3659 7.36083 13.3802 7.30419 13.3241 7.29952C13.3289 7.32145 13.3328 7.34369 13.3357 7.36616C13.4137 8.17759 13.5752 8.97279 13.8162 9.73171C14.0118 10.3703 14.2677 10.9771 14.5782 11.5389ZM12.6732 8.41233C12.7897 7.91611 12.8713 7.40795 12.9171 6.89372C12.8193 7.39548 12.7584 7.90724 12.6721 8.41233H12.6732ZM13.3235 7.10695C13.3399 6.99967 13.3077 6.89838 13.2987 6.80043C13.3188 6.89372 13.277 7.00566 13.3225 7.10695H13.3235Z" fill="#040303"/>
<path d="M14.5957 11.605L14.6086 11.6196H14.5985V11.6008L14.5957 11.605Z" fill="#040303"/>
<path d="M9.97994 26.344C9.97315 26.3867 9.9623 26.4281 9.94762 26.4674C9.9259 26.5155 9.91319 26.6109 9.84803 26.5648C9.81845 26.547 9.79557 26.5154 9.78428 26.4766C9.773 26.4378 9.7742 26.395 9.78765 26.3574C9.79671 26.3302 9.81021 26.3057 9.82728 26.2854C9.84434 26.2652 9.86459 26.2497 9.8867 26.24C9.95292 26.2073 9.981 26.2406 9.97994 26.344Z" fill="#F8F2EA"/>
<path d="M9.72442 26.1414C9.67621 26.2474 9.63012 26.3415 9.63966 26.4796C9.57927 26.2908 9.59569 26.2314 9.72442 26.1414Z" fill="#F8F2EA"/>
<path d="M2.3088 20.7473C2.30562 20.8393 2.27595 20.914 2.21186 20.9287C2.17001 20.9381 2.15464 20.862 2.15888 20.814C2.15992 20.777 2.17163 20.7418 2.19181 20.7149C2.212 20.688 2.23927 20.6713 2.26854 20.6679C2.31515 20.6586 2.30721 20.7153 2.3088 20.7473Z" fill="#F8F2EA"/>
<path d="M2.0779 20.9538C1.92233 20.7805 1.95461 20.6386 2.16363 20.548C2.12348 20.5992 2.09087 20.659 2.06732 20.7246C2.04917 20.8001 2.05292 20.8814 2.0779 20.9538Z" fill="#F8F2EA"/>
<path d="M3.59961 3.70804C3.60861 3.61198 3.63669 3.55595 3.71032 3.55928C3.74264 3.55928 3.76965 3.57396 3.75959 3.62599C3.74317 3.70871 3.71032 3.79409 3.64623 3.8121C3.59219 3.82478 3.62239 3.73072 3.59961 3.70804Z" fill="#F8F2EA"/>
<path d="M18.0326 7.46013C18.0262 7.38616 18.0728 7.33419 18.1474 7.33419C18.1647 7.33289 18.182 7.33637 18.1981 7.34436C18.2142 7.35236 18.2287 7.36469 18.2407 7.38049C18.2526 7.39628 18.2617 7.41517 18.2672 7.43583C18.2728 7.45649 18.2747 7.47843 18.2728 7.50011C18.2728 7.60273 18.2045 7.71001 18.14 7.69602C18.0521 7.67736 18.0347 7.5874 18.0326 7.46013Z" fill="#F8F2EA"/>
<path d="M17.8824 20.2463C17.8824 20.1636 17.892 20.0709 17.9751 20.0669C18.0366 20.0636 18.0673 20.1276 18.0615 20.2076C18.0557 20.2877 18.0249 20.3611 17.9444 20.3657C17.8639 20.3704 17.8808 20.305 17.8824 20.2463Z" fill="#F8F2EA"/>
<path d="M10.3661 21.7821C10.3613 21.8088 10.3687 21.8562 10.329 21.8568C10.2893 21.8575 10.2723 21.8075 10.2665 21.7654C10.2607 21.7234 10.2962 21.7294 10.3195 21.7221C10.3566 21.7081 10.3687 21.7321 10.3661 21.7821Z" fill="#F8F2EA"/>
<path d="M5.12147 1.5406C5.10582 1.54223 5.09008 1.53945 5.07538 1.53247C5.06069 1.52548 5.04741 1.51448 5.03651 1.50024C5.02561 1.486 5.01736 1.46889 5.01236 1.45014C5.00735 1.4314 5.00572 1.41149 5.00758 1.39185C5.00737 1.35081 5.01957 1.31122 5.04171 1.28111C5.06385 1.25099 5.09426 1.23263 5.12677 1.22975C5.16703 1.22108 5.27192 1.36316 5.26344 1.41319C5.24808 1.50925 5.18133 1.52393 5.12147 1.5406Z" fill="#F8F2EA"/>
<path d="M15.5094 5.04552C15.4886 5.03432 15.471 5.01571 15.4586 4.992C15.4461 4.96829 15.4395 4.94052 15.4395 4.91211C15.4404 4.8845 15.4497 4.85839 15.4655 4.83916C15.4812 4.81993 15.5023 4.80903 15.5242 4.80872C15.5576 4.80872 15.5994 4.83607 15.5872 4.8941C15.584 4.92504 15.5753 4.95468 15.5619 4.98087C15.5484 5.00706 15.5305 5.02915 15.5094 5.04552Z" fill="#F8F2EA"/>
<path d="M12.1412 11.8654C11.0744 12.2106 10.2892 13.0382 9.60918 14.0491C8.72124 15.3711 8.10689 16.8697 7.8259 18.5736C7.77977 18.8848 7.74674 19.1989 7.72695 19.5145C7.65657 19.154 7.60154 18.8301 7.53063 18.515C7.13746 16.7465 6.50987 15.1339 5.51981 13.7665C4.82872 12.811 4.0117 12.1006 3.0084 11.7581C2.97718 11.7475 2.94543 11.7388 2.91421 11.7295L2.83643 11.7068C2.83643 11.6762 2.85124 11.6715 2.86394 11.6648C3.73494 11.2257 4.47471 10.5387 5.13934 9.72042C6.18701 8.43957 6.99659 6.88261 7.50999 5.16124C7.63071 4.76762 7.73336 4.36559 7.81743 3.95714C7.81743 3.94181 7.81743 3.92049 7.84283 3.91449C7.89152 4.19502 7.93438 4.47756 7.99047 4.75543C8.39951 6.78314 9.13558 8.59629 10.2373 10.1675C10.6447 10.7656 11.141 11.2574 11.6983 11.6155C11.8385 11.7042 11.9978 11.7408 12.1412 11.8654Z" fill="#F8F2EA"/>
<path d="M1.9502 12.0114C2.45607 11.8314 4.20284 12.8176 4.52669 13.4993C3.71389 12.829 2.86671 12.3012 1.9502 12.0114Z" fill="#F8F2EA"/>
<path d="M8.08325 18.3424C8.30011 17.2414 8.66948 16.1972 9.17439 15.2578C8.72836 16.23 8.37322 17.264 8.11606 18.339L8.08325 18.3424Z" fill="#F8F2EA"/>
<path d="M6.09619 6.74983C6.45595 6.015 6.78227 5.25502 7.07355 4.47357C6.85184 5.30318 6.57561 6.09414 6.09619 6.74983Z" fill="#F8F2EA"/>
<path d="M7.14494 19.1873C6.91687 18.4263 6.6888 17.666 6.45703 16.8983C6.50995 16.8863 6.5163 16.9496 6.5327 16.9856C6.71315 17.3854 6.82745 17.8192 6.94968 18.2517C7.03713 18.5549 7.11063 18.8641 7.16981 19.1779L7.14494 19.1873Z" fill="#F8F2EA"/>
<path d="M5.35279 14.9673C5.56446 15.2532 5.70574 15.6083 5.91053 15.9002C6.02704 16.0791 6.11816 16.282 6.17987 16.4999C6.1894 16.5292 6.20263 16.5565 6.18516 16.5919C5.92829 16.0359 5.64282 15.5017 5.33057 14.9926L5.35279 14.9673Z" fill="#F8F2EA"/>
<path d="M5.06747 8.55229C4.76744 9.04539 4.44571 9.51117 4.05042 9.88966L4.02661 9.85901C4.39499 9.43512 4.74125 8.98172 5.06324 8.50165L5.06747 8.55229Z" fill="#F8F2EA"/>
<path d="M13.0214 11.7395C12.7478 11.8814 12.5488 11.6848 12.3334 11.5909C12.329 11.5898 12.3247 11.5876 12.321 11.5843C12.3173 11.581 12.3141 11.5768 12.3118 11.5719C12.3094 11.567 12.3079 11.5615 12.3074 11.5558C12.3068 11.5501 12.3072 11.5444 12.3086 11.5389C12.3181 11.5003 12.3398 11.5129 12.3615 11.5216C12.5695 11.6075 12.7822 11.6695 13.0214 11.7395Z" fill="#F8F2EA"/>
<path d="M2.89428 10.9811C2.68398 11.2387 2.41991 11.4157 2.13281 11.4916C2.39422 11.3403 2.63763 11.1444 2.89428 10.9811Z" fill="#F8F2EA"/>
<path d="M9.59912 15.6603C9.74623 15.3644 9.86899 15.0445 10.1161 14.8493C9.94413 15.1205 9.76898 15.3877 9.59912 15.6603Z" fill="#F8F2EA"/>
<path d="M12.4966 11.2757L13.4565 11.6122L13.448 11.6489C13.1258 11.5489 12.8014 11.4583 12.4982 11.2764L12.4966 11.2757Z" fill="#969696"/>
<path d="M11.8545 12.2019C12.0049 12.0781 12.1718 11.9897 12.3471 11.9407L12.3583 11.9767L11.8545 12.2019Z" fill="#969696"/>
<path d="M8.08327 18.3423L8.11661 18.339C8.09492 18.4772 8.06358 18.6128 8.02295 18.7441C8.02805 18.6073 8.04836 18.4721 8.08327 18.3423Z" fill="#969696"/>
<path d="M4.02669 9.85901L4.05053 9.88969L3.97001 9.97708L3.94141 9.95307L4.02669 9.85901Z" fill="#969696"/>
<path d="M5.25345 14.8782L5.19556 14.8C5.24292 14.7648 5.24818 14.8146 5.26766 14.8411L5.25345 14.8782Z" fill="#969696"/>
<path d="M5.28809 14.8707C5.31689 14.894 5.33942 14.9277 5.35272 14.9674L5.33047 14.9934C5.29918 14.964 5.27393 14.9256 5.25684 14.8813L5.28809 14.8707Z" fill="#969696"/>
<path d="M5.18051 8.36641L5.11588 8.4758L5.08887 8.45446L5.16356 8.33972L5.18051 8.36641Z" fill="#969696"/>
<path d="M3.93687 10.0116L3.85847 10.0837L3.83887 10.0637L3.91144 9.98694L3.93687 10.0116Z" fill="#969696"/>
<path d="M5.06744 8.55177L5.06323 8.5014L5.08849 8.45435L5.11533 8.47555C5.10761 8.50768 5.09049 8.53491 5.06744 8.55177Z" fill="#969696"/>
<path d="M5.21716 8.31095C5.19763 8.31095 5.19499 8.29964 5.19869 8.28834C5.20302 8.27734 5.20935 8.26778 5.21716 8.26042C5.21877 8.25802 5.221 8.2564 5.22346 8.25587C5.22592 8.25534 5.22845 8.25592 5.2306 8.25751C5.23275 8.25911 5.23439 8.26161 5.23521 8.26458C5.23604 8.26754 5.236 8.27078 5.23511 8.27372C5.23079 8.28729 5.22473 8.29986 5.21716 8.31095Z" fill="#969696"/>
<path d="M12.4988 11.2772L12.4849 11.269C12.4849 11.269 12.4849 11.2772 12.4882 11.278C12.4912 11.2787 12.4942 11.2787 12.4972 11.278L12.4988 11.2772Z" fill="#969696"/>
<path d="M3.91113 9.98674L3.93955 9.95294L3.96797 9.9768L3.93639 10.0113L3.91113 9.98674Z" fill="#969696"/>
<path d="M3.79892 10.1447C3.78949 10.1546 3.78005 10.1665 3.76904 10.1487C3.77376 10.141 3.77883 10.1338 3.78425 10.1269L3.79892 10.1447Z" fill="#969696"/>
<path d="M11.8204 12.2191C11.8173 12.2223 11.8147 12.2269 11.8121 12.2269C11.8095 12.2269 11.8069 12.2217 11.8048 12.2184C11.8027 12.2151 11.81 12.2106 11.8126 12.2106C11.8152 12.2106 11.8178 12.2158 11.8204 12.2191Z" fill="#969696"/>
<path d="M11.7767 12.2457C11.7767 12.2457 11.7715 12.253 11.7689 12.253C11.7663 12.253 11.7642 12.2477 11.7621 12.2451C11.76 12.2425 11.7673 12.2379 11.7699 12.2379C11.7725 12.2379 11.7746 12.2431 11.7767 12.2457Z" fill="#969696"/>
<path d="M11.7282 12.2819L11.7217 12.2777L11.7287 12.2659L11.7352 12.2742L11.7282 12.2819Z" fill="#969696"/>
<path d="M3.78418 10.1267C3.79047 10.1141 3.79676 10.0923 3.81092 10.1095C3.82507 10.1267 3.80725 10.1352 3.79886 10.1445L3.78418 10.1267Z" fill="#969696"/>
<path d="M5.25705 14.881H5.25391L5.26806 14.844L5.28798 14.873L5.25705 14.881Z" fill="#969696"/>
<path d="M3.85819 10.0835C3.85029 10.0954 3.84398 10.1166 3.82924 10.1007C3.81451 10.0848 3.82924 10.0742 3.83872 10.0636L3.85819 10.0835Z" fill="#969696"/>
<path d="M5.16333 8.33961C5.17224 8.33433 5.18587 8.32244 5.18849 8.32508C5.20317 8.34225 5.19216 8.35479 5.18011 8.36601L5.16333 8.33961Z" fill="#969696"/>
<path d="M9.18506 15.2162L9.19285 15.2058C9.19563 15.2117 9.19787 15.218 9.19953 15.2245C9.19953 15.2245 9.19507 15.23 9.19285 15.2335L9.18506 15.2162Z" fill="#F8F2EA"/>
<path d="M17.1145 14.9306C16.7478 15.1234 16.3939 15.3527 16.0562 15.6163C16.3747 15.2984 16.7012 15.0046 17.1145 14.9306Z" fill="#F8F2EA"/>
<path d="M16.4946 13.6179L17.1016 14.0097C16.8819 13.927 16.6762 13.7942 16.4946 13.6179Z" fill="#F8F2EA"/>
<path d="M14.5783 11.5389C14.2676 10.976 14.0118 10.3681 13.8163 9.72837C13.5753 8.96857 13.414 8.17246 13.3363 7.36015C13.3334 7.33769 13.3296 7.31544 13.3247 7.29352C13.3808 7.29818 13.3665 7.35482 13.3707 7.38348C13.5786 8.83499 13.994 10.2269 14.5968 11.4915C14.5996 11.4999 14.6017 11.5086 14.6032 11.5175L14.5783 11.5389Z" fill="#F8F2EA"/>
<path d="M12.6721 8.41236C12.7584 7.90726 12.8192 7.3955 12.9171 6.89374C12.871 7.40801 12.789 7.91617 12.6721 8.41236Z" fill="#F8F2EA"/>
<path d="M13.3225 7.10733C13.2769 7.00593 13.3188 6.89653 13.2976 6.80048C13.3066 6.89854 13.3389 6.99993 13.3225 7.10733Z" fill="#969696"/>
</svg>
