<svg width="126" height="124" viewBox="0 0 126 124" fill="none" xmlns="http://www.w3.org/2000/svg">
<g filter="url(#filter0_d_8060_58942)">
<path d="M0 58.0557C0.213696 43.3192 5.15527 30.3441 15.1543 19.3684C23.3038 10.4248 33.3897 4.68008 45.1213 1.75781C48.7396 0.856709 52.4171 0.333372 56.1417 0.122834C63.8433 -0.313882 71.3383 0.687076 78.6064 3.29534C86.0447 5.96496 92.6174 10.0326 98.3546 15.4464C103.237 20.053 107.044 25.4331 110.137 31.3691C113.322 37.4831 115.391 43.9195 116.32 50.7374C116.736 53.7944 116.923 56.8646 116.822 59.9445C116.352 74.2839 111.35 86.8344 101.596 97.3986C93.3321 106.348 83.1628 112.099 71.2248 114.695C67.8008 115.44 64.3358 115.907 60.8274 115.984C45.143 116.329 31.3131 111.449 19.52 101.137C10.1548 92.946 4.21235 82.6609 1.43309 70.5652C0.571064 66.8165 0.108659 63.0123 0.0555369 59.1625C0.0507076 58.8136 0.0217318 58.4659 0.00120732 58.0569L0 58.0557Z" fill="#060000"/>
<path d="M60.7239 110.897C52.6179 111.044 45.0577 109.716 37.8077 106.76C32.6065 104.64 27.7471 101.925 23.5178 98.1975C16.5648 92.0714 11.4808 84.6605 8.27778 75.9755C6.87849 72.1834 5.94161 68.277 5.44298 64.2708C4.95039 60.3223 4.80189 56.357 5.34398 52.4097C6.0732 47.1017 7.63548 42.0235 9.97044 37.192C14.5752 27.6637 21.3688 20.0506 30.3247 14.401C36.2551 10.6606 42.7094 8.17024 49.6274 6.90821C53.0332 6.28623 56.4681 5.99388 59.9283 6.02636C65.2888 6.07689 70.5539 6.81558 75.644 8.50229C79.1887 9.67649 82.4895 11.4065 85.6141 13.4469C95.7544 20.0698 102.946 29.0905 107.468 40.2562C109.43 45.101 110.652 50.1335 111.14 55.3404C111.377 57.8548 111.51 60.3752 111.297 62.8933C111.045 65.8841 110.441 68.8184 109.624 71.707C107.197 80.2717 102.911 87.7969 96.8035 94.2803C90.418 101.058 82.7853 105.933 73.938 108.877C71.2807 109.761 68.5087 110.199 65.727 110.534C63.9716 110.744 62.2089 110.838 60.7239 110.898V110.897Z" fill="#F8F2EA"/>
<path d="M60.2753 105.014C52.9619 105.147 46.1409 103.944 39.5998 101.267C34.9072 99.3465 30.5229 96.8871 26.7072 93.5112C20.434 87.9624 15.8471 81.2499 12.9573 73.3834C11.6948 69.9486 10.8495 66.4104 10.3997 62.7817C9.95524 59.2053 9.82126 55.6136 10.3103 52.0383C10.9683 47.2306 12.3778 42.631 14.4844 38.2548C18.6389 29.6244 24.7683 22.7287 32.8485 17.6115C38.199 14.2236 44.0223 11.968 50.2638 10.8249C53.3366 10.2615 56.4356 9.99671 59.5575 10.0261C64.3938 10.0719 69.1441 10.741 73.7365 12.2687C76.9346 13.3323 79.9127 14.8993 82.7317 16.7474C91.8805 22.7462 98.3693 30.9167 102.449 41.0302C104.219 45.4184 105.321 49.9766 105.762 54.6929C105.976 56.9703 106.096 59.2532 105.904 61.534C105.676 64.243 105.132 66.9007 104.394 69.5171C102.205 77.2747 98.3378 84.0907 92.8271 89.9631C87.066 96.1025 80.1796 100.518 72.1974 103.184C69.7999 103.985 67.2989 104.382 64.7892 104.685C63.2054 104.876 61.6151 104.961 60.2753 105.015V105.014Z" fill="#181818"/>
<path d="M15.1406 22.9129C16.3733 21.0626 17.7678 19.335 19.2576 17.6892C20.0846 16.7761 21.0686 16.0181 22.0815 15.1892C19.889 17.9406 17.5082 20.4274 15.2432 23.0152C15.1539 23.0357 15.1068 23.0152 15.1406 22.9129Z" fill="#F8F2EA"/>
<path d="M92.4792 16.9975C95.1486 19.1642 97.5717 21.5752 99.7231 24.2544C99.7412 24.3422 99.7159 24.3868 99.6181 24.3543C97.3181 21.823 94.8431 19.465 92.3657 17.1094C92.3488 17.0179 92.3802 16.9734 92.478 16.9975H92.4792Z" fill="#F8F2EA"/>
<path d="M114.428 54.3553C114.719 56.6051 114.871 58.8608 114.65 61.125C114.568 61.9744 114.437 62.8189 114.329 63.6659C114.076 63.548 114.244 63.3543 114.242 63.1907C114.376 61.0877 114.499 58.9847 114.427 56.8757C114.399 56.0685 114.363 55.2612 114.329 54.454C114.296 54.3565 114.338 54.3324 114.428 54.3541V54.3553Z" fill="#F8F2EA"/>
<path d="M64.31 111.857C63.0701 112.017 61.8314 112.182 60.5903 112.336C59.424 112.482 58.2541 112.603 57.089 112.765C56.7812 112.808 56.4878 112.76 56.1884 112.752C56.1002 112.75 55.9348 112.828 55.9554 112.63C55.9686 112.503 56.0725 112.454 56.1968 112.446C56.6411 112.417 57.0842 112.371 57.5297 112.355C59.5327 112.286 61.5211 112.057 63.5072 111.803C63.7716 111.77 64.0384 111.727 64.31 111.856V111.857Z" fill="#F8F2EA"/>
<path d="M35.6093 9.50468C38.0047 8.16565 40.6233 7.41253 43.2251 6.6173C43.329 6.58241 43.3543 6.62933 43.3362 6.72317C40.7646 7.60622 38.2039 8.52176 35.7095 9.60694C35.6105 9.63581 35.5864 9.5937 35.6093 9.50468Z" fill="#F8F2EA"/>
<path d="M89.7798 101.755C91.8721 99.9291 94.0139 98.1558 95.9528 96.1562C95.4844 97.0682 91.097 101.07 89.7798 101.755Z" fill="#F8F2EA"/>
<path d="M99.1392 19.1581C100.054 19.8283 103.569 23.9404 104.059 24.8752C102.291 23.0802 100.902 20.9603 99.1392 19.1581Z" fill="#F8F2EA"/>
<path d="M90.0611 13.5927C88.7934 12.8588 87.527 12.1238 86.2593 11.3899C87.6562 11.8988 89.1339 12.2645 90.0611 13.5927Z" fill="#F8F2EA"/>
<path d="M14.8511 25.9532C15.7191 24.708 16.6995 23.5482 17.6726 22.3848C17.7402 22.303 17.7981 22.1105 17.9587 22.2308C18.1362 22.3644 17.9792 22.4715 17.8899 22.5773C16.9108 23.7371 15.9316 24.8981 14.9537 26.059C14.868 26.0735 14.8197 26.0506 14.8523 25.9532H14.8511Z" fill="#F8F2EA"/>
<path d="M113.698 68.2786C113.446 69.9509 113.054 71.5907 112.524 73.198C112.495 73.2329 112.465 73.2341 112.433 73.2016C112.856 71.4656 113.287 69.7319 113.593 67.9694C113.821 68.0067 113.692 68.1655 113.698 68.2774V68.2786Z" fill="#F8F2EA"/>
<path d="M99.6199 24.3542C99.6549 24.3205 99.6899 24.288 99.7249 24.2543C100.896 25.5946 101.917 27.0443 102.887 28.5325C102.919 28.6263 102.875 28.6419 102.795 28.6227C101.817 27.1405 100.708 25.7558 99.6199 24.3542Z" fill="#F8F2EA"/>
<path d="M113.698 68.2784C113.651 68.1797 113.719 68.0414 113.593 67.9704C113.809 66.3775 114.025 64.7846 114.242 63.1918C114.302 63.3446 114.209 63.525 114.329 63.667C114.118 65.2045 113.908 66.7408 113.7 68.2784H113.698Z" fill="#F8F2EA"/>
<path d="M111.964 75.0167C111.701 76.3413 111.142 77.5661 110.676 78.8221C110.594 79.0434 110.499 79.26 110.409 79.4789C110.33 79.4898 110.273 79.4814 110.326 79.3803C110.868 77.9065 111.438 76.4412 111.889 74.9361C111.926 74.9229 111.962 74.9109 111.986 74.953C111.996 74.9698 111.982 74.9939 111.965 75.0167H111.964Z" fill="#F8F2EA"/>
<path d="M112.793 42.9983C113.238 44.3782 113.667 45.763 113.712 47.2259C113.405 45.8171 113.1 44.4083 112.793 42.9983Z" fill="#F8F2EA"/>
<path d="M54.9096 4.16545C55.9527 4.0644 56.991 3.90078 58.039 3.87311C58.0438 3.93086 58.0499 3.9874 58.0547 4.04515C57.0393 4.11974 56.024 4.19433 55.0074 4.26892C54.9108 4.29418 54.8831 4.25448 54.9084 4.16425L54.9096 4.16545Z" fill="#F8F2EA"/>
<path d="M3.21848 57.9019V60.7448C3.16777 60.7448 3.11707 60.7424 3.06636 60.7412C2.85145 59.7186 3.22814 58.7152 3.21848 57.9019Z" fill="#F8F2EA"/>
<path d="M6.18963 40.5368C5.99887 41.0541 5.80328 41.5714 5.61856 42.0912C5.57027 42.2271 5.51232 42.3366 5.35295 42.2728C5.14771 42.1898 5.30345 42.0719 5.34933 41.9781C5.58476 41.4944 5.82622 41.0156 6.06648 40.5344C6.10874 40.4947 6.14979 40.4959 6.19083 40.538L6.18963 40.5368Z" fill="#F8F2EA"/>
<path d="M45.9056 5.18564C44.9784 5.41543 44.0523 5.64522 43.1251 5.87621C43.9618 5.41062 44.8842 5.24941 45.8066 5.08579C45.9008 5.05932 45.9285 5.09782 45.9056 5.18685V5.18564Z" fill="#F8F2EA"/>
<path d="M5.31769 72.8261C4.8734 71.9334 4.74784 70.9517 4.61865 69.97C4.85167 70.9216 5.08468 71.8744 5.31769 72.8261Z" fill="#F8F2EA"/>
<path d="M14.8506 25.9531C14.8844 25.988 14.9182 26.024 14.952 26.0589C14.5282 26.64 14.1045 27.2223 13.6807 27.8034C13.6445 27.7793 13.6095 27.7553 13.5732 27.7312C13.9825 27.1285 14.3713 26.5113 14.8506 25.9531Z" fill="#F8F2EA"/>
<path d="M22.5575 99.6343C23.1249 100.083 23.6924 100.532 24.2598 100.981C23.3724 100.573 22.8231 100.136 22.5575 99.6343Z" fill="#F8F2EA"/>
<path d="M66.736 3.3234C66.0913 3.27528 65.4453 3.22595 64.7535 3.17422C65.4647 2.80367 66.0973 3.23918 66.748 3.2055C66.7432 3.244 66.7396 3.2837 66.7348 3.3222L66.736 3.3234Z" fill="#F8F2EA"/>
<path d="M78.564 8.1369C79.3089 8.23194 79.9548 8.51707 80.5428 8.94537C79.8836 8.67588 79.2232 8.40639 78.564 8.1369Z" fill="#F8F2EA"/>
<path d="M43.3363 6.72324C43.2989 6.68835 43.2626 6.65226 43.2252 6.61737C43.7661 6.36954 44.3444 6.26246 44.9131 6.1217C44.9251 6.1602 44.9372 6.1987 44.9493 6.2372C44.4108 6.39961 43.8736 6.56083 43.3351 6.72324H43.3363Z" fill="#F8F2EA"/>
<path d="M70.0075 111.395C70.4675 111.259 70.9275 111.122 71.3875 110.986C71.1134 111.46 70.6087 111.352 70.2067 111.499C70.1077 111.525 69.9954 111.579 70.0075 111.395Z" fill="#F8F2EA"/>
<path d="M61.1012 113.427C61.8389 113.414 62.5669 113.206 63.3118 113.346C62.5741 113.359 61.8485 113.598 61.1012 113.427Z" fill="#F8F2EA"/>
<path d="M20.8989 96.7239C21.3179 97.1161 21.738 97.5095 22.157 97.9017C22.1304 97.9294 22.1026 97.9583 22.0761 97.986C21.6125 97.6383 21.2068 97.2316 20.8989 96.7239Z" fill="#F8F2EA"/>
<path d="M23.4243 99.1348C22.9788 98.8305 22.5756 98.4804 22.2351 98.0605C22.7011 98.3384 23.108 98.6873 23.4919 99.0651C23.5016 99.118 23.4787 99.142 23.4243 99.1348Z" fill="#F8F2EA"/>
<path d="M7.75339 80.7568C7.45881 80.2768 7.26564 79.7583 7.18958 79.1917C7.40206 79.6921 7.61455 80.1938 7.82704 80.6943C7.82704 80.7436 7.8029 80.7641 7.7546 80.758L7.75339 80.7568Z" fill="#F8F2EA"/>
<path d="M92.4797 16.9973C92.4422 17.0346 92.4048 17.0719 92.3674 17.1092C92.0788 16.8469 91.7903 16.5847 91.5029 16.3224C91.9026 16.4535 92.2104 16.7002 92.4809 16.9973H92.4797Z" fill="#F8F2EA"/>
<path d="M102.795 28.6228C102.825 28.5927 102.856 28.5627 102.887 28.5326C103.202 28.8815 103.418 29.2881 103.569 29.7405C103.31 29.3675 103.053 28.9946 102.795 28.6228Z" fill="#F8F2EA"/>
<path d="M45.9059 5.18573C45.8733 5.15205 45.8395 5.11836 45.8069 5.08467C46.2741 4.93068 46.7486 4.81278 47.2436 4.80676C47.2545 4.81879 47.2641 4.83203 47.275 4.84406C46.8367 5.03174 46.3659 5.08467 45.9059 5.18453V5.18573Z" fill="#F8F2EA"/>
<path d="M30.422 103.948C30.7673 104.149 31.1138 104.35 31.4591 104.55C31.0401 104.482 30.6876 104.288 30.422 103.948Z" fill="#F8F2EA"/>
<path d="M70.0075 111.396C70.0317 111.511 70.1403 111.464 70.2067 111.499C69.7938 111.595 69.3821 111.693 68.9692 111.789C69.2856 111.56 69.6429 111.466 70.0075 111.396Z" fill="#F8F2EA"/>
<path d="M114.427 54.3552C114.395 54.3889 114.362 54.4214 114.328 54.4551C114.2 54.105 114.235 53.7477 114.322 53.3856L114.427 54.3552Z" fill="#F8F2EA"/>
<path d="M24.8937 100.284C24.5749 100.095 24.2719 99.8855 24.0184 99.6137C24.0159 99.5667 24.0401 99.5499 24.0848 99.5607C24.4011 99.6979 24.6256 99.9565 24.8912 100.161C24.9335 100.201 24.9347 100.242 24.8937 100.284Z" fill="#F8F2EA"/>
<path d="M35.6097 9.5048C35.6435 9.53849 35.6761 9.57338 35.7099 9.60707C35.4551 9.78392 35.1726 9.8946 34.8647 9.94272C35.0833 9.74181 35.3296 9.59503 35.6085 9.5036L35.6097 9.5048Z" fill="#F8F2EA"/>
<path d="M54.9097 4.16541C54.9423 4.20029 54.9762 4.23518 55.0087 4.27007C54.6912 4.43128 54.3604 4.35308 54.0248 4.27849C54.3194 4.2412 54.6152 4.2027 54.9097 4.16541Z" fill="#F8F2EA"/>
<path d="M6.1893 40.5366C6.14825 40.5366 6.10599 40.5342 6.06494 40.533C6.18688 40.2647 6.30882 39.9965 6.43076 39.7294C6.42231 40.0277 6.37402 40.3068 6.1893 40.5366Z" fill="#F8F2EA"/>
<path d="M8.22253 35.3598C8.36862 35.0627 8.51471 34.7643 8.66079 34.4672C8.69701 34.484 8.73444 34.5009 8.77066 34.5177C8.63182 34.8185 8.54489 35.1433 8.22253 35.3598Z" fill="#F8F2EA"/>
<path d="M111.117 44.2447C111.046 43.9608 110.974 43.6769 110.903 43.3929C111.112 43.6035 111.201 43.8537 111.205 44.1328C111.251 44.2291 111.205 44.2543 111.116 44.2447H111.117Z" fill="#F8F2EA"/>
<path d="M110.325 79.3804C110.353 79.4129 110.381 79.4466 110.408 79.4791C110.319 79.7305 110.219 79.976 109.977 80.243C110.067 79.8869 110.174 79.6259 110.325 79.3804Z" fill="#F8F2EA"/>
<path d="M15.1406 22.9129C15.1744 22.9466 15.2094 22.9815 15.2432 23.0152C15.1285 23.275 14.9209 23.4591 14.7084 23.6444C14.7941 23.3653 14.9317 23.1186 15.1406 22.9129Z" fill="#F8F2EA"/>
<path d="M7.82561 80.6942C7.97774 80.9589 8.12141 81.2248 8.1528 81.54C7.96928 81.3042 7.81958 81.0527 7.75317 80.758C7.77732 80.7363 7.80147 80.7159 7.82561 80.6942Z" fill="#F8F2EA"/>
<path d="M24.8937 100.284C24.8937 100.243 24.8924 100.202 24.8912 100.161C25.1303 100.298 25.3488 100.461 25.5142 100.694C25.2836 100.594 25.0518 100.498 24.8937 100.285V100.284Z" fill="#F8F2EA"/>
<path d="M110.348 41.0975C110.162 40.8942 110.023 40.674 110.072 40.2927C110.187 40.6283 110.268 40.8629 110.348 41.0975Z" fill="#F8F2EA"/>
<path d="M111.117 44.2446C111.147 44.2073 111.176 44.17 111.206 44.1328C111.327 44.3565 111.362 44.5983 111.325 44.8582C111.256 44.6537 111.186 44.4492 111.117 44.2446Z" fill="#F8F2EA"/>
<path d="M112.433 73.2014C112.465 73.2147 112.495 73.2123 112.525 73.1978C112.456 73.4168 112.387 73.6369 112.277 73.987C112.239 73.6081 112.302 73.3975 112.433 73.2026V73.2014Z" fill="#F8F2EA"/>
<path d="M47.2432 4.80789C47.4943 4.68156 47.7575 4.62622 48.1378 4.67074C47.7865 4.74172 47.5462 4.86323 47.2746 4.84518C47.2637 4.83315 47.254 4.81992 47.2432 4.80789Z" fill="#F8F2EA"/>
<path d="M24.0183 99.6138C23.8203 99.4538 23.6223 99.295 23.4243 99.135C23.4473 99.1121 23.469 99.088 23.4919 99.0652C23.7177 99.1975 23.9169 99.3611 24.0847 99.5609C24.0557 99.5693 24.034 99.5873 24.0183 99.6138Z" fill="#F8F2EA"/>
<path d="M111.965 75.0169C111.939 74.9904 111.914 74.9628 111.889 74.9363C111.949 74.727 112.009 74.5176 112.07 74.3083C112.102 74.5585 112.112 74.8028 111.964 75.0169H111.965Z" fill="#F8F2EA"/>
</g>
<path d="M33.5624 42.2172C33.5773 41.974 33.5224 41.7316 33.4042 41.5186C32.7767 40.368 32.3782 39.1066 32.2308 37.8043C32.0197 35.6031 33.1087 34.1596 35.5125 33.9486C38.1273 33.7185 40.6133 34.3706 43.0508 35.2148C44.9017 35.8479 46.6829 36.6541 48.2868 37.798C48.4978 37.9436 48.6245 37.8613 48.7891 37.7726C50.5903 36.7768 52.5126 36.0178 54.5083 35.5145C56.6663 34.9559 58.8953 34.7211 61.1223 34.8181C65.3642 35.0291 69.3529 36.135 72.9723 38.4311C75.0229 39.7371 76.8245 41.3979 78.2926 43.3357C80.5286 46.2544 82.0048 49.6827 82.5886 53.3128C83.1724 56.9429 82.8457 60.6612 81.6376 64.1338C81.5678 64.2958 81.5429 64.4735 81.5655 64.6485C81.5882 64.8234 81.6576 64.989 81.7664 65.1278C82.8216 66.5924 83.8873 68.0549 84.8054 69.6166C85.9218 71.516 86.8229 73.4914 87.1585 75.6777C87.3695 77.1044 87.2112 78.4508 85.8922 79.3646C85.0481 79.945 84.0942 80.0948 83.1001 80.0189C80.5993 79.8289 78.3496 78.8856 76.178 77.6974C76.0079 77.5671 75.8013 77.4933 75.5871 77.4864C75.5428 77.4315 75.5111 77.3576 75.4562 77.3281C74.0423 76.5599 72.7296 75.6208 71.3346 74.8315C68.074 72.9849 64.8999 70.9947 61.6921 69.0658C58.5455 67.1665 55.7218 64.8323 52.7988 62.6333C49.4496 60.1113 46.398 57.256 43.4307 54.314C40.3854 51.2962 37.7031 47.9617 35.2001 44.4795C34.7379 43.8358 34.2842 43.1837 33.8283 42.5358C33.8727 42.4366 33.8452 42.3754 33.7355 42.3586C33.7883 42.2108 33.6827 42.2024 33.5624 42.2172ZM45.6825 38.7983L45.577 38.7392C45.4165 38.5777 45.2373 38.436 45.0431 38.3171C45.0726 38.2538 45.1275 38.2749 45.176 38.2791C45.2298 38.3367 45.2953 38.3821 45.3681 38.4124C45.4409 38.4426 45.5193 38.4569 45.5981 38.4543C45.5285 38.2644 45.3744 38.2433 45.2499 38.1968C44.9544 38.0301 44.678 37.8085 44.3065 37.8507C42.4205 36.7803 40.3737 36.022 38.2454 35.6052C37.4707 35.4139 36.6544 35.4844 35.924 35.8057C35.753 35.888 35.5821 35.9598 35.5483 36.1898C35.6961 36.2151 35.7488 36.1307 35.8227 36.1012C35.9936 36.0337 36.2089 35.9218 36.3271 36.1012C36.4453 36.2806 36.192 36.3481 36.0844 36.4325C35.9409 36.5303 35.8333 36.6723 35.778 36.8369C35.7228 37.0015 35.7229 37.1797 35.7784 37.3442C35.9913 38.0735 36.2873 38.776 36.6605 39.4377C37.8149 41.5608 39.3893 43.3673 40.9025 45.2266C42.9581 47.747 45.1633 50.1417 47.5059 52.3978C51.081 55.8532 54.8129 59.13 58.7017 62.2281C62.5975 65.3388 66.9006 67.8397 71.1404 70.4313C72.3138 71.1488 73.5083 71.8326 74.7155 72.4953C76.2398 73.3162 77.8311 74.006 79.4723 74.5571C80.4073 74.88 81.3527 75.1902 82.3636 75.1691C83.5855 75.1544 84.0963 74.4432 83.9717 73.198C83.8261 71.7756 83.0432 70.5895 82.3446 69.3993C81.9352 68.6965 81.5384 67.9684 80.8673 67.4514C80.8272 67.4218 80.7829 67.3712 80.7407 67.4514C80.7407 67.4514 80.7808 67.5041 80.804 67.5316C80.9306 67.7215 81.0488 67.9157 81.1839 68.0972C82.0752 69.2887 82.7863 70.6049 83.2943 72.0035C83.3724 72.2146 83.5518 72.4763 83.2437 72.6789C83.0846 72.5338 82.9568 72.3579 82.868 72.1618C82.41 71.0918 81.8782 70.0514 81.3295 69.0299C81.0552 68.5192 80.7175 68.0381 80.3714 67.483C79.6264 69.1038 78.5016 70.3595 77.4991 71.7038C77.2881 71.9951 76.9715 72.2209 76.866 72.5923C76.4756 72.4129 76.0725 72.2568 75.6989 72.0499C75.4541 71.9128 75.0953 71.8136 75.0257 71.5603C74.9645 71.3493 75.3212 71.1805 75.4478 70.9568C75.4604 70.9314 75.4773 70.9082 75.4921 70.8829C77.0877 68.4348 78.3236 65.7703 79.1621 62.971C80.3862 58.786 80.5909 54.5757 79.3563 50.3612C77.9592 45.5959 75.1354 41.9196 70.7352 39.5644C67.0462 37.5869 63.0681 37.053 58.9528 37.5067C53.1893 38.1398 48.1792 40.5394 43.7241 44.1904C43.4033 44.4542 43.1543 44.9544 42.7343 44.9164C42.3143 44.8784 41.9999 44.4479 41.658 44.1651C41.6172 44.1247 41.5818 44.0793 41.5525 44.03C41.7635 44.0089 41.8458 43.819 41.9577 43.6776C42.8275 42.5745 43.7642 41.5258 44.7624 40.5373C45.0002 40.354 45.2087 40.1355 45.3807 39.8894C45.5645 39.7728 45.7308 39.6306 45.8746 39.4673C43.034 37.9415 40.1195 36.6182 36.9307 35.9914C37.3516 35.8561 37.8022 35.8422 38.2307 35.9513C40.3068 36.3202 42.3095 37.0229 44.1609 38.0322C44.372 38.1377 44.5408 38.3171 44.794 38.2749L44.8215 38.2601C44.8468 38.3171 44.8848 38.3298 44.9376 38.296V38.2812C44.813 38.3657 44.8953 38.4205 44.9692 38.467C45.1486 38.5809 45.3343 38.6907 45.5158 38.8046L45.6129 38.8764L45.7163 38.946L45.8387 39.0663C45.9295 39.1296 45.8725 39.2921 46.0075 39.3175C46.0308 39.3175 46.0835 39.2752 46.0898 39.2436C46.1278 39.1001 46.0181 39.0515 45.9168 39.0009L45.7733 38.8637L45.6825 38.7983ZM53.3602 59.2419C53.3602 59.3115 53.3898 59.3495 53.4657 59.3368C53.4657 59.5014 53.6135 59.5247 53.719 59.5816C53.7352 59.6129 53.7598 59.6391 53.7899 59.6573C53.8201 59.6756 53.8547 59.6851 53.8899 59.685C53.9195 59.7019 53.9659 59.7399 53.9743 59.7336C54.0334 59.6829 53.9912 59.6449 53.9469 59.6112L53.8034 59.5036C53.735 59.3977 53.6386 59.3129 53.5248 59.2587L53.4341 59.1764L53.3454 59.092C53.3096 59.0604 53.2716 59.0034 53.223 59.0561C53.1745 59.1089 53.223 59.1342 53.2737 59.1553C53.2695 59.2165 53.3032 59.244 53.3602 59.2419ZM76.2075 71.917L76.292 71.8284C76.3088 71.7925 76.3468 71.7397 76.3363 71.7271C76.2772 71.6553 76.2455 71.7271 76.2118 71.7608L76.1295 71.8495L76.0556 71.9212C76.018 71.9546 75.9827 71.9906 75.9501 72.0288C76.0197 72.1111 76.0683 72.0478 76.1168 71.9972L76.2075 71.917ZM76.4756 71.5835L76.5642 71.4949L76.6296 71.3915C76.6655 71.3641 76.6993 71.3345 76.6444 71.2986C76.6444 71.2986 76.6064 71.3303 76.5853 71.3493L76.5051 71.4379L76.4186 71.5266L76.3806 71.611L76.4756 71.5835ZM48.3923 55.4178C48.4767 55.3397 48.3923 55.3228 48.3438 55.2891L47.9998 54.9641C48.0138 55.0479 48.0509 55.1262 48.1068 55.1903C48.1626 55.2544 48.2352 55.3017 48.3163 55.327C48.3153 55.3388 48.3169 55.3506 48.321 55.3616C48.3251 55.3726 48.3317 55.3826 48.3402 55.3907C48.3488 55.3988 48.359 55.4049 48.3702 55.4085C48.3814 55.4121 48.3933 55.4131 48.405 55.4115L48.4366 55.5339C48.521 55.5212 48.5759 55.652 48.6709 55.5782C48.6371 55.6141 48.6392 55.6436 48.6856 55.6647C48.6925 55.6656 48.6995 55.6649 48.7061 55.6627C48.7127 55.6605 48.7187 55.6569 48.7236 55.652C48.7342 55.6014 48.7046 55.5866 48.6603 55.5866C48.6055 55.4853 48.5527 55.3608 48.4345 55.5339C48.4577 55.5106 48.5042 55.4874 48.502 55.4663C48.4957 55.3882 48.4366 55.4072 48.3881 55.4178H48.3923ZM35.5082 36.3207C35.5547 36.2764 35.6349 36.232 35.5526 36.1645C35.4702 36.097 35.4597 36.1835 35.4344 36.232L35.3563 36.327C35.3099 36.3798 35.1875 36.4304 35.2634 36.5001C35.3394 36.5697 35.4112 36.4768 35.4428 36.3903L35.5082 36.3207ZM39.5982 47.2231L39.6531 47.3033C39.7037 47.261 39.6826 47.2188 39.6531 47.1745L39.5243 47.0352C39.3576 46.8073 39.1909 46.5773 39.02 46.3472C38.1273 45.1422 37.1945 43.9625 36.3503 42.7215C35.7172 41.7782 35.1896 40.7546 34.6029 39.767C34.5332 39.653 34.5522 39.3829 34.28 39.4842L34.3327 39.385C34.3327 39.385 34.3159 39.3702 34.3053 39.3618L34.28 39.4842C34.3939 39.5412 34.4066 39.6636 34.4573 39.7606C35.7944 42.4139 37.477 44.8785 39.461 47.0901L39.5982 47.2231ZM78.5839 46.1932C78.5812 46.1963 78.5794 46.2 78.5785 46.2039C78.5776 46.2079 78.5777 46.212 78.5787 46.216C78.5797 46.2199 78.5817 46.2235 78.5844 46.2265C78.5872 46.2296 78.5906 46.2319 78.5944 46.2333C78.6577 46.2987 78.6598 46.4148 78.7696 46.4443L78.8139 46.533L78.8456 46.4781L78.7632 46.4549C78.7696 46.3135 78.74 46.208 78.5796 46.1932H78.5839ZM47.0627 54.1431L46.9741 54.0756C46.8264 53.9384 46.6786 53.8012 46.533 53.6535C46.5625 53.754 46.6129 53.8471 46.6809 53.9268C46.7489 54.0064 46.833 54.0708 46.9277 54.1157L47.0142 54.2001C47.0416 54.2845 47.1451 54.3837 47.1767 54.3457C47.2738 54.2402 47.1134 54.2106 47.0627 54.1431ZM46.0286 41.5482L45.902 41.7423C45.9843 41.698 46.17 41.7064 46.0308 41.5439L46.1067 41.6115L46.1468 41.5587L46.0286 41.5482ZM54.7341 60.2823C54.6961 60.2464 54.656 60.2105 54.6159 60.2717C54.6159 60.2844 54.6518 60.3266 54.6708 60.354L54.9071 60.5482C54.9729 60.6571 55.0743 60.7399 55.1942 60.7825L55.3503 60.8901C55.3642 60.9303 55.3878 60.9664 55.4191 60.9952C55.4505 61.0239 55.4885 61.0444 55.5297 61.0547C55.5825 61.0653 55.6226 61.0167 55.5951 60.9808C55.5378 60.9221 55.4749 60.8691 55.4073 60.8226L55.2554 60.7128C55.1917 60.6066 55.0955 60.5237 54.981 60.4764C54.9553 60.4289 54.9202 60.3871 54.8777 60.3537C54.8352 60.3203 54.7863 60.296 54.7341 60.2823ZM78.4678 46.0476C78.4973 46.0834 78.5184 46.1531 78.5796 46.1045C78.6408 46.056 78.5902 46.0159 78.5501 45.9842C78.5468 45.923 78.5247 45.8643 78.487 45.816C78.4493 45.7677 78.3976 45.7322 78.3391 45.7141C78.2926 45.8787 78.3918 45.9589 78.4678 46.0476ZM47.0627 40.8707C46.991 40.9003 46.8517 40.9298 46.9108 41.01C46.9889 41.1324 47.0649 41.01 47.1218 40.9425C47.1788 40.8749 47.3202 40.8686 47.2506 40.7821C47.1809 40.6956 47.1155 40.8095 47.0627 40.8707ZM47.5967 40.5478C47.5059 40.5816 47.3666 40.5647 47.3856 40.7335C47.4359 40.7339 47.4853 40.7208 47.5287 40.6955C47.5721 40.6703 47.608 40.6339 47.6326 40.59C47.6516 40.571 47.6895 40.5394 47.6874 40.5352C47.6558 40.4824 47.6262 40.5162 47.5967 40.5478ZM45.3786 42.1264L45.0768 42.3375C45.041 42.3733 44.9692 42.4029 45.0494 42.4577C45.0494 42.4577 45.1001 42.4113 45.1275 42.386L45.4251 42.175C45.4546 42.1391 45.5243 42.1095 45.4504 42.0589C45.4441 42.0568 45.3955 42.1011 45.3786 42.1264ZM47.7001 54.8121C47.7065 54.8447 47.7242 54.8739 47.7501 54.8948C47.7759 54.9156 47.8083 54.9267 47.8415 54.9261C47.8482 54.9238 47.8542 54.9199 47.859 54.9148C47.8638 54.9096 47.8672 54.9033 47.8689 54.8965C47.8689 54.81 47.7887 54.8015 47.736 54.7657L47.3012 54.3563C47.3351 54.455 47.3882 54.5461 47.4573 54.6243C47.5265 54.7026 47.6104 54.7664 47.7043 54.8121H47.7001ZM43.8612 51.1104C43.8275 51.0978 43.7705 51.0661 43.7621 51.0767C43.7156 51.1358 43.7621 51.1738 43.8106 51.2012C44.0284 51.5391 44.2992 51.8398 44.6126 52.0918C44.6759 52.1467 44.7455 52.2416 44.8236 52.1635C44.9544 52.0369 44.7793 51.9968 44.7265 51.9525C44.4479 51.6591 44.1525 51.3869 43.8612 51.1104ZM71.3093 73.4808C71.3388 73.5146 71.3684 73.5694 71.4169 73.5019C71.4169 73.5019 71.3726 73.4639 71.3494 73.4449C70.9367 73.0537 70.4335 72.771 69.8847 72.6219C70.1215 72.8037 70.3712 72.968 70.6318 73.1136C70.8534 73.236 71.0835 73.3521 71.3093 73.4745V73.4808ZM80.1498 61.8946C80.1688 61.8757 80.2025 61.8609 80.2068 61.8377C80.7199 59.8696 80.9557 57.8394 80.9074 55.8061C80.9074 55.7428 80.9201 55.6542 80.7892 55.6732C80.7892 55.7407 80.7724 55.8103 80.7724 55.8842C80.7731 57.1875 80.6765 58.489 80.4832 59.7779C80.3798 60.4849 80.1667 61.1708 80.1371 61.8883C80.1073 61.9045 80.0844 61.931 80.0728 61.9629C80.0611 61.9947 80.0615 62.0298 80.0738 62.0614C80.0738 62.0614 80.0949 62.0783 80.1055 62.0867L80.1498 61.8946ZM59.6661 65.9044L59.6303 65.9804H59.6556V65.9044C59.6229 65.8269 59.5772 65.7555 59.5205 65.6934C58.7819 65.1088 58.0432 64.5348 57.294 63.9502C57.1526 63.8383 57.045 63.9228 56.8508 63.9671L59.4445 65.8664C59.5163 65.9255 59.5859 65.9867 59.6661 65.9044ZM77.4738 69.1334C78.6203 67.6771 79.5312 66.0499 80.173 64.3111C81.9453 59.6766 82.0246 54.5652 80.3967 49.878C80.057 48.7577 79.5671 47.6885 78.9405 46.6997L78.8835 46.6174C78.8835 46.6385 78.8561 46.6638 78.8624 46.6786C78.8814 46.7313 78.9152 46.7123 78.9469 46.6786C78.8645 46.8896 79.0355 47.0141 79.1094 47.164C80.7078 50.3516 81.4427 53.9025 81.2409 57.4628C81.0488 61.5654 79.7636 65.3367 77.5899 68.8147C77.5329 68.9054 77.3936 68.9877 77.4801 69.1355C77.4231 69.0342 77.402 69.1165 77.383 69.1587C77.383 69.1587 77.4084 69.1967 77.421 69.2178L77.4738 69.1334ZM69.8763 38.1398C67.1475 36.7216 64.2689 35.8437 61.1666 35.7699C57.2243 35.6458 53.3237 36.6072 49.8907 38.5493C56.4836 35.5145 63.1356 35.181 69.8636 38.1398H69.8763ZM75.1523 76.7519C76.44 77.4007 77.7601 77.9833 79.1072 78.4973C80.6478 79.0565 82.199 79.5672 83.8704 79.5166C84.6914 79.4934 85.4385 79.2866 86.0083 78.6365C84.32 79.5672 82.6211 79.3942 80.9032 78.7927C79.1305 78.1723 77.3514 77.5708 75.6272 76.8364C75.4858 76.7773 75.3507 76.6675 75.1523 76.7519ZM82.944 77.3007L82.7604 77.2099C82.5812 77.1117 82.3849 77.0487 82.1821 77.0242C82.1821 77.0242 82.1505 77.1128 82.1652 77.1297C82.3109 77.2943 82.5367 77.2099 82.7097 77.2964C82.7498 77.326 82.8195 77.3007 82.944 77.3007ZM83.461 76.9377C83.6527 77.0508 83.8605 77.1341 84.0773 77.1846C84.0773 77.1846 84.1131 77.0896 84.0963 77.0706C83.9422 76.9018 83.7143 76.9714 83.5264 76.9039C83.5201 76.9081 83.5075 76.9187 83.461 76.944V76.9377ZM45.8514 41.736C45.6973 41.8478 45.5812 41.8774 45.5559 42.0441C45.6265 42.0206 45.6903 41.9803 45.7417 41.9266C45.7932 41.8729 45.8308 41.8075 45.8514 41.736ZM44.678 42.7912C44.8236 42.673 44.9439 42.6414 44.9481 42.4725C44.879 42.4978 44.8178 42.5407 44.7704 42.597C44.723 42.6533 44.6911 42.7209 44.678 42.7933V42.7912ZM49.4792 38.7223C49.6206 38.7751 49.705 38.7223 49.8042 38.5851L49.4792 38.7223ZM78.3454 45.5453C78.3074 45.521 78.2671 45.5005 78.2251 45.4841C78.1639 45.463 78.1576 45.5263 78.1681 45.5495C78.1871 45.5987 78.2211 45.6408 78.2652 45.6698C78.318 45.7015 78.318 45.6445 78.3454 45.5474V45.5453ZM43.5679 50.969C43.6007 50.9957 43.636 51.019 43.6734 51.0387C43.6882 51.0387 43.7114 51.0239 43.7304 51.0176C43.7156 50.988 43.7072 50.9395 43.6882 50.9332C43.6692 50.9268 43.6228 50.9543 43.5679 50.9712V50.969ZM39.8261 47.3687C39.8282 47.3791 39.8282 47.3899 39.8261 47.4003H39.8029C39.802 47.3905 39.802 47.3806 39.8029 47.3708C39.8029 47.3708 39.8177 47.3729 39.8261 47.3708V47.3687ZM69.794 72.5037C69.7547 72.4993 69.7151 72.4993 69.6758 72.5037C69.6336 72.5037 69.6336 72.5417 69.6758 72.5586C69.6996 72.5693 69.7257 72.5744 69.7518 72.5733C69.756 72.5733 69.7645 72.5417 69.7856 72.5058L69.794 72.5037ZM80.0358 62.3167L80.0189 62.2787C80.0189 62.2914 80 62.302 80 62.3125C80 62.3231 79.9999 62.3378 80.0126 62.3505L80.0358 62.3167ZM53.1006 58.9401C53.1006 58.9401 53.0711 58.9612 53.0732 58.9696C53.0797 58.9898 53.089 59.0089 53.1006 59.0266C53.1006 59.0266 53.1281 59.0055 53.1281 58.9992C53.122 58.9782 53.1128 58.9582 53.1006 58.9401ZM46.2967 41.4954L46.322 41.4659C46.3054 41.456 46.2877 41.4482 46.2692 41.4426C46.2692 41.4426 46.2523 41.4574 46.2439 41.4659L46.2967 41.4954ZM47.8098 40.4402L47.8394 40.4571V40.4296L47.8098 40.4402ZM78.1238 45.3954L78.1512 45.368C78.1355 45.3575 78.1185 45.349 78.1006 45.3427C78.1006 45.3427 78.0837 45.3575 78.0753 45.3659L78.1238 45.3954Z" fill="#040404"/>
<path d="M33.8325 42.5464C34.2884 43.1943 34.7421 43.8464 35.2043 44.4901C37.7009 47.9723 40.3833 51.3067 43.4349 54.3246C46.4022 57.2665 49.4538 60.1219 52.803 62.6438C55.7196 64.8492 58.5434 67.1854 61.69 69.07C64.8978 70.999 68.0719 72.9891 71.3325 74.8357C72.7274 75.625 74.0401 76.5641 75.4541 77.3323C75.509 77.3618 75.5406 77.4357 75.5849 77.4906C74.6268 77.2268 73.7552 76.7562 72.8541 76.3594C72.7486 76.313 72.6578 76.1758 72.5164 76.2813C72.4826 76.1716 72.3813 76.142 72.2948 76.0998C70.0683 75.0024 67.8629 73.867 65.7525 72.5754C64.8345 72.0162 63.9334 71.4231 62.9626 70.9567C62.8528 70.904 62.6945 70.7457 62.5827 70.9251C62.4708 71.1045 62.6544 71.1868 62.7536 71.2754C63.245 71.6726 63.7704 72.0257 64.3238 72.3306C66.063 73.4317 67.8719 74.4187 69.7391 75.2852C69.7001 75.3174 69.6584 75.3464 69.6146 75.3717C66.4996 76.6148 63.3213 77.5032 59.9067 77.3471C57.0767 77.2516 54.2784 76.7199 51.6107 75.7706C49.0444 74.8294 46.685 73.4956 44.7856 71.5371C41.143 67.7827 39.2246 63.2136 38.8469 58.0009C38.7631 56.6666 38.8169 55.3272 39.0073 54.0038C39.0178 53.9299 39.0284 53.8582 39.1381 53.8772C39.1504 53.9169 39.1575 53.958 39.1592 53.9996C38.8833 56.033 38.9168 58.0964 39.2584 60.1198C40.2651 65.6385 43.1289 69.8847 47.9892 72.7105C51.4925 74.7492 55.3229 75.5532 59.3559 75.4139C60.5351 75.4099 61.7104 75.2783 62.8613 75.0214C62.9984 74.9876 63.1272 74.9412 63.1208 74.7893C63.1208 74.5951 62.9478 74.6521 62.8254 74.6479C61.8926 74.6141 60.9619 74.6985 60.027 74.6647C57.3763 74.5698 54.751 74.2427 52.2185 73.428C47.2379 71.8178 43.4581 68.7851 41.2042 63.9966C39.6763 60.7466 39.2331 57.3045 39.5475 53.7484C39.5748 53.1738 39.6589 52.6034 39.7987 52.0453C39.9148 52.3809 40.2208 52.478 40.149 52.8304C39.5532 55.7914 39.7617 58.8579 40.7526 61.711C41.5968 64.2583 42.9791 66.4573 45.157 68.095C45.29 68.1942 45.4039 68.3525 45.5643 68.1056C45.6973 67.8945 45.6551 67.7911 45.4694 67.6497C44.165 66.6246 43.1119 65.3153 42.3903 63.8214C40.818 60.7381 40.3263 57.429 40.3854 54.0101C40.3572 53.6649 40.3835 53.3173 40.4635 52.9803C44.4869 57.5009 49.0337 61.527 54.0081 64.9737C54.0292 64.6593 53.8435 64.6171 53.7274 64.5348C52.858 63.9232 52.0284 63.2571 51.2434 62.5404C48.5611 60.0459 45.9168 57.543 43.3695 54.9303C41.8753 53.3981 40.3031 51.9419 38.8975 50.3233C38.8363 50.2536 38.792 50.1439 38.6612 50.1755C37.6064 48.9322 36.6563 47.6037 35.8206 46.2037C35.1705 45.1485 34.4825 44.0933 33.9528 42.9748C33.8916 42.8461 33.7397 42.7258 33.8325 42.5464Z" fill="#F8F2EA"/>
<path d="M38.6612 50.1755C38.792 50.1439 38.8363 50.2536 38.8975 50.3233C40.3031 51.9419 41.8753 53.3981 43.3695 54.9303C45.9168 57.543 48.5696 60.0459 51.2329 62.5404C52.0178 63.2571 52.8475 63.9232 53.7168 64.5348C53.8329 64.6171 54.0186 64.6593 53.9975 64.9737C49.0232 61.527 44.4764 57.5009 40.4529 52.9803C40.373 53.3173 40.3466 53.6649 40.3748 54.0101C40.3157 57.429 40.7969 60.7381 42.3797 63.8215C43.1013 65.3153 44.1544 66.6246 45.4588 67.6497C45.6445 67.7911 45.6867 67.9009 45.5538 68.1056C45.3934 68.3525 45.2794 68.1942 45.1465 68.095C42.9685 66.4574 41.5968 64.2583 40.7526 61.711C39.7673 58.8579 39.564 55.7929 40.1638 52.8346C40.2355 52.4822 39.9295 52.3851 39.8135 52.0496C39.6737 52.6076 39.5895 53.1781 39.5623 53.7527C39.2479 57.3087 39.691 60.7508 41.219 64.0008C43.4729 68.7894 47.2527 71.822 52.2332 73.4323C54.7657 74.2511 57.3805 74.574 60.0418 74.669C60.9767 74.7027 61.9074 74.6183 62.8402 74.6521C62.9626 74.6521 63.1293 74.5993 63.1356 74.7935C63.1356 74.9454 63.0132 74.9919 62.876 75.0256C61.7252 75.2826 60.5498 75.4142 59.3706 75.4182C55.3376 75.5575 51.5072 74.7534 48.004 72.7147C43.15 69.8889 40.2799 65.6427 39.2732 60.124C38.9316 58.1006 38.8981 56.0372 39.174 54.0038C39.1723 53.9623 39.1652 53.9211 39.1529 53.8814C39.0432 53.8624 39.0326 53.9342 39.022 54.008C38.8316 55.3314 38.7779 56.6708 38.8617 58.0052C39.2394 63.2179 41.1578 67.7869 44.8004 71.5413C46.6997 73.4998 49.0592 74.8336 51.6254 75.7748C54.2932 76.7241 57.0915 77.2559 59.9215 77.3513C63.3319 77.5075 66.5102 76.619 69.6294 75.376C69.6732 75.3506 69.7148 75.3217 69.7539 75.2894C67.8867 74.4229 66.0778 73.436 64.3386 72.3349C63.7852 72.03 63.2598 71.6768 62.7684 71.2796C62.6692 71.191 62.4962 71.0897 62.5975 70.9293C62.6988 70.7689 62.8676 70.9082 62.9773 70.961C63.9481 71.4274 64.8493 72.0162 65.7673 72.5797C67.8777 73.8712 70.0936 75.0066 72.3096 76.104C72.3961 76.1463 72.4974 76.1758 72.5312 76.2855C72.4467 76.2687 72.3594 76.2722 72.2764 76.2957C72.1935 76.3191 72.1174 76.362 72.0542 76.4206C70.096 77.6581 67.951 78.5717 65.7019 79.1262C63.5856 79.679 61.3967 79.9026 59.2124 79.7888C54.8222 79.5734 50.5952 78.0571 47.069 75.4329C43.0593 72.4784 40.3389 68.5783 38.7393 63.8848C37.8334 61.1956 37.4649 58.3546 37.6545 55.5233C37.7432 53.703 38.0819 51.9035 38.6612 50.1755ZM61.1096 78.244C61.2357 78.2183 61.3633 78.2007 61.4916 78.1912C64.2183 78.1132 66.7782 77.3851 69.2284 76.2307C69.5977 76.0576 69.9544 75.8614 70.3152 75.6756C70.154 75.6749 69.9948 75.7125 69.851 75.7854C68.0381 76.5873 66.2316 77.3956 64.2436 77.7059C63.1884 77.8705 62.1627 78.0984 61.097 78.1132C59.9531 78.0646 58.8072 78.1132 57.6633 78.0435C58.7981 78.263 59.957 78.3305 61.1096 78.244Z" fill="#040404"/>
<path d="M84.2144 36.766C84.165 36.615 84.0825 36.4771 83.973 36.3621C83.8634 36.2471 83.7296 36.1579 83.5813 36.1012C82.9672 35.7825 82.2982 35.715 81.625 35.6643C81.5068 35.6538 81.3274 35.7255 81.2978 35.5504C81.2683 35.3752 81.4519 35.3393 81.5849 35.2908C81.8128 35.2064 82.0428 35.1241 82.2686 35.0354C83.6446 34.4973 84.4698 33.3703 85.2338 32.2032C86.289 30.593 86.749 28.7823 86.8736 26.8766C86.8692 26.8338 86.8692 26.7906 86.8736 26.7478C86.92 26.5579 86.8736 26.2835 87.1015 26.2329C87.3294 26.1822 87.283 26.5136 87.4434 26.6233C87.5341 26.3152 87.2935 26.0071 87.4434 25.7074C87.6227 25.7285 87.6038 25.8615 87.6164 25.967C87.8929 28.0289 88.8151 29.8206 90.0054 31.4773C90.7419 32.5008 91.5312 33.4927 92.6223 34.1849C92.9449 34.4013 93.3016 34.5618 93.6775 34.6598C93.8337 34.6978 94.0384 34.702 94.0067 34.9637C93.9751 35.2254 93.8084 35.2211 93.629 35.2021C93.4496 35.1832 93.3251 35.2021 93.3082 35.4322C93.2955 35.5947 93.1415 35.6601 93.0191 35.7297C91.66 36.5064 90.8854 37.7832 90.1426 39.0853C89.8363 39.6371 89.5975 40.2238 89.4314 40.8327C89.4053 40.9298 89.3692 41.0238 89.3237 41.1134C89.271 41.2168 89.195 41.3371 89.0663 41.2928C88.9375 41.2485 88.9565 41.1113 88.9671 40.9952C88.9819 40.8074 89.1676 40.6301 89.0051 40.4296C89.0958 40.0076 89.3913 39.6403 89.4461 39.1972C89.5749 39.1972 89.5897 39.0747 89.6403 38.9861C90.0624 38.2918 90.4971 37.5975 90.9277 36.9031L90.8369 36.8462C90.2496 37.5451 89.7695 38.3274 89.4124 39.1676C88.9101 40.1173 88.4078 41.067 88.2833 42.1602C88.4838 41.8795 88.4944 41.5271 88.7054 41.24C88.7508 41.4939 88.74 41.7547 88.6737 42.004C88.5409 42.6344 88.452 43.2733 88.4078 43.916C88.3762 44.2178 88.3403 44.5344 87.9351 44.5703C87.6628 44.5956 87.3801 44.2854 87.302 43.9245C86.9568 42.2231 86.3832 40.5761 85.5968 39.0283C85.0265 37.9544 84.0952 37.1165 82.9672 36.6625C82.7836 36.5824 82.4016 36.5338 82.5345 36.2531C82.638 36.0421 82.9144 36.2911 83.1001 36.3565C83.4631 36.4832 83.8092 36.6478 84.1553 36.7976L84.2208 36.8229L84.2144 36.766ZM91.5629 36.2236L91.6558 36.1286L91.7381 36.0315C91.8798 35.9909 92.003 35.9021 92.0863 35.7804C92.1053 35.7508 92.1454 35.7044 92.139 35.696C92.0947 35.639 92.0567 35.6791 92.0208 35.7171C91.8984 35.7909 91.7444 35.8332 91.6937 35.9935L91.5988 36.0716L91.5038 36.1497C91.4658 36.1835 91.4299 36.2215 91.4806 36.2679C91.489 36.2742 91.5355 36.2405 91.5629 36.2236ZM92.4366 35.5271C92.5506 35.4681 92.6983 35.4491 92.7215 35.2802C92.6523 35.2771 92.5834 35.292 92.5216 35.3235C92.4599 35.3549 92.4073 35.4018 92.3691 35.4596C92.2931 35.4892 92.1812 35.5609 92.2213 35.6095C92.3121 35.7255 92.3712 35.582 92.4366 35.5271ZM87.4729 28.8625C87.0804 31.4372 86.3882 33.824 84.4065 35.6158C86.1434 36.7976 87.15 38.4796 87.8633 40.3895C87.8908 40.36 87.9203 40.341 87.9266 40.3178C87.9815 40.1236 88.0237 39.9274 88.0828 39.7353C88.6695 37.8465 89.3934 36.0569 91.3877 35.2254C89.1043 33.7417 88.2369 31.3739 87.4729 28.8625ZM87.1817 27.4569C87.1128 28.3556 86.9852 29.2488 86.7997 30.1308C87.1587 29.2883 87.2904 28.3663 87.1817 27.4569Z" fill="#040404"/>
<path d="M29.0799 82.3192C28.9955 82.8426 28.9047 83.3744 28.8267 83.8894C28.7908 84.1363 28.7802 84.4022 28.451 84.4212C28.1218 84.4402 27.9846 84.1869 27.9171 83.9084C27.7267 83.1882 27.4841 82.4828 27.1911 81.7979C26.6593 80.481 25.8615 79.4279 24.4476 78.9594C24.3638 78.9457 24.2858 78.9078 24.2233 78.8505C24.1607 78.7931 24.1161 78.7188 24.0951 78.6365C24.5279 78.7271 24.9517 78.8564 25.3614 79.0228C25.3276 78.9042 25.2629 78.7967 25.1739 78.7114C25.0849 78.6261 24.9748 78.566 24.8549 78.5374C24.3773 78.3798 23.8801 78.2896 23.3776 78.2693C23.2974 78.2693 23.1876 78.301 23.1665 78.1913C23.1285 78.0456 23.2594 78.0287 23.3501 78.0098C24.7388 77.7248 25.6716 76.8237 26.4524 75.7157C27.1594 74.7133 27.438 73.5652 27.6132 72.3771C27.6385 72.2019 27.4739 71.8094 27.9762 71.9824C28.1133 72.031 27.9572 71.7038 28.1028 71.5878C28.1281 71.611 28.1809 71.6321 28.1851 71.6616C28.4827 73.485 29.502 74.9053 30.7345 76.2054C31.4014 76.9102 32.1358 77.5244 33.115 77.7607C33.2037 77.7818 33.286 77.8093 33.2902 77.9148C33.2902 77.9865 33.2564 78.1005 33.1889 78.0794C32.7795 77.9486 32.7014 78.3791 32.4481 78.5015C32.147 78.6384 31.8664 78.8167 31.6145 79.0312C30.7287 79.8106 30.0488 80.7964 29.6349 81.9014C29.6112 81.9957 29.557 82.0796 29.4806 82.1399C29.4043 82.2002 29.3101 82.2336 29.2129 82.2348C29.4744 81.2582 29.9389 80.3478 30.5762 79.563C29.9853 79.8817 28.7359 82.1462 28.7633 82.7793C28.947 82.6885 28.7866 82.3424 29.0799 82.3192ZM28.0732 73.7446C28.0542 73.7986 28.038 73.8535 28.0247 73.9092C27.7229 75.5553 27.1447 77.0558 25.775 78.13C25.564 78.3031 25.7159 78.3411 25.8383 78.415C26.3969 78.768 26.8897 79.2158 27.2945 79.7382C27.7438 80.3093 28.1156 80.9373 28.4004 81.6059C28.8858 80.0273 29.5336 78.6513 31.1903 78.0878C29.464 77.1234 28.7 75.5047 28.0732 73.7446ZM27.419 74.7808C27.8137 74.1329 28.0268 72.6894 27.7883 72.2483C27.8453 73.122 27.6554 73.8945 27.419 74.7808ZM30.458 79.5567C30.6965 79.4702 30.7746 79.3942 30.783 79.2085C30.7333 79.2385 30.686 79.2723 30.6416 79.3098C30.5973 79.3583 30.5635 79.4111 30.458 79.5567Z" fill="#040404"/>
<path d="M93.5552 47.6135C93.2429 47.1766 92.7638 47.1576 92.289 47.1049C92.1961 47.1049 92.0674 47.126 92.061 46.9761C92.061 46.8685 92.1581 46.8453 92.2362 46.8157C93.8654 46.2037 94.526 44.832 94.9797 43.304C95.1288 42.7937 95.2152 42.2672 95.2372 41.736C95.2372 41.5693 95.2224 41.3688 95.482 41.3624C95.4989 41.3983 95.482 41.4827 95.5432 41.4553C95.6044 41.4279 95.5559 41.3688 95.5158 41.3308C95.5306 41.2485 95.5474 41.1662 95.5622 41.0839H95.6319C95.6952 41.3582 95.7521 41.6347 95.8218 41.909C96.2383 43.5424 97.0962 45.0296 98.3015 46.2079C98.5369 46.4624 98.8389 46.6459 99.1731 46.7377C99.2597 46.7588 99.3335 46.801 99.342 46.9044C99.3504 47.0078 99.2808 47.0099 99.2238 47.0542C98.7532 47.4151 98.2192 47.7021 97.8731 48.2065C97.4004 48.8924 96.9445 49.5867 96.7462 50.414C96.7082 50.5723 96.6596 50.7601 96.4317 50.7685C96.5288 49.9919 96.8686 49.2913 97.1914 48.5927C96.6974 49.3381 96.3195 50.1543 96.0708 51.0134C96.0244 51.1716 96.1384 51.0788 96.1869 51.0134C96.3009 51.5515 96.1489 52.0686 96.0793 52.5962C96.0624 52.7312 95.9336 52.7734 95.8155 52.765C95.7501 52.758 95.6886 52.7306 95.6397 52.6867C95.5908 52.6427 95.5571 52.5844 95.5432 52.5202C95.4609 52.2311 95.3955 51.9377 95.3322 51.6465C95.1311 50.7369 94.811 49.8577 94.3804 49.0317C94.0955 48.4991 93.6533 48.0672 93.1141 47.795C92.9812 47.7296 92.7828 47.6852 92.7659 47.4109L93.4961 47.6831L93.5932 47.7106L93.5552 47.6135ZM95.8049 50.146C96.7314 47.6916 96.7989 47.586 97.8182 47.0226C96.5119 46.0264 96.0286 44.5703 95.615 43.0761C95.5981 43.093 95.5685 43.1099 95.5601 43.1331C95.5441 43.1877 95.5321 43.2434 95.5242 43.2998C95.3258 44.6695 94.9481 45.9631 93.9393 46.9825C93.8127 47.1112 93.8739 47.1597 93.9731 47.242C94.8911 47.9976 95.4124 49.0211 95.8049 50.1439V50.146ZM95.3364 43.1373C95.2194 43.3262 95.1766 43.5518 95.2161 43.7704C95.4124 43.4116 95.4124 43.4074 95.3364 43.1352V43.1373ZM97.335 48.464C97.4088 48.3669 97.3729 48.331 97.335 48.3352C97.3153 48.3415 97.2972 48.3518 97.2819 48.3657C97.2666 48.3795 97.2545 48.3965 97.2463 48.4154C97.2337 48.4429 97.2463 48.4872 97.2569 48.5231L97.335 48.464ZM97.4299 48.1875L97.3983 48.2171L97.4299 48.2466L97.4595 48.2002L97.4299 48.1875Z" fill="#040404"/>
<path d="M21.2778 50.3823C19.5493 50.1713 18.4118 49.4495 18.4857 47.7169C18.5638 45.8471 19.619 45.3954 21.2735 45.3511C22.6516 45.3216 23.557 46.3156 23.5275 47.7823C23.4958 49.5318 22.5482 50.357 21.2778 50.3823ZM19.8321 47.8794C19.8321 48.4935 20.174 48.9346 20.7291 49.0063C21.2841 49.0781 22.333 48.407 22.4828 47.8329C22.5186 47.7229 22.5305 47.6065 22.5177 47.4915C22.505 47.3766 22.4679 47.2656 22.409 47.1661C22.1452 46.744 21.3812 46.4802 20.8325 46.63C20.5522 46.7004 20.3026 46.8607 20.122 47.0863C19.9414 47.3119 19.8396 47.5905 19.8321 47.8794ZM22.9978 48.4808C22.806 48.8309 22.5383 49.1337 22.2144 49.367C21.8906 49.6004 21.5186 49.7583 21.1258 49.8294C21.3377 49.8688 21.5554 49.8648 21.7657 49.8177C21.976 49.7706 22.1745 49.6813 22.3493 49.5552C22.5241 49.4292 22.6715 49.269 22.7826 49.0843C22.8937 48.8996 22.9662 48.6943 22.9956 48.4808H22.9978ZM19.0639 48.0588V47.0774C18.9852 47.2278 18.9439 47.3949 18.9435 47.5647C18.9432 47.7344 18.9837 47.9017 19.0618 48.0524L19.0639 48.0588Z" fill="#040404"/>
<path d="M60.5631 95.0091C61.8293 95.0091 62.9415 95.9018 62.95 96.9085C62.9626 98.4533 62.0678 99.346 60.5146 99.3334C59.4256 99.3334 58.5455 98.3056 58.5329 97.0415C58.5202 95.7773 59.2821 95.0028 60.5631 95.0091ZM60.8628 98.2064C61.4537 98.2064 62.0847 97.7273 62.0889 97.2757C62.1034 96.9936 62.0064 96.7171 61.8189 96.5059C61.6313 96.2947 61.3683 96.1657 61.0865 96.1466C60.9279 96.1465 60.771 96.1784 60.6251 96.2405C60.4792 96.3026 60.3474 96.3936 60.2376 96.5079C60.1278 96.6223 60.0423 96.7577 59.9861 96.9059C59.93 97.0542 59.9044 97.2123 59.911 97.3707C59.9279 97.7949 60.3964 98.2043 60.8628 98.2064Z" fill="#040404"/>
<path d="M64.6172 18.9119C64.6287 19.4491 64.428 19.9691 64.0586 20.3594C63.6893 20.7497 63.181 20.9787 62.644 20.9969C61.5382 21.0096 60.5336 19.9671 60.5125 18.7726C60.4935 17.8123 61.4094 16.9829 62.5005 16.9745C63.9377 16.9618 64.6004 17.576 64.6172 18.9119ZM62.1502 17.4852C61.4263 17.462 61.0591 17.9073 61.0359 18.9477C61.1098 18.6374 61.2474 18.3459 61.44 18.0916C61.6325 17.8373 61.8758 17.6258 62.1544 17.4704H62.1354L62.1502 17.4852ZM62.4013 19.8067C62.7496 19.8211 63.0905 19.7027 63.3549 19.4755C63.6193 19.2483 63.7876 18.9292 63.8258 18.5826C63.8723 17.882 63.4333 17.5274 62.7706 17.7385C62.4043 17.8656 62.0761 18.0834 61.8167 18.3716C61.688 18.4877 61.601 18.6431 61.5694 18.8136C61.5377 18.9841 61.5631 19.1603 61.6416 19.3149C61.6902 19.4735 61.7928 19.6101 61.9316 19.7011C62.0703 19.792 62.2365 19.8316 62.4013 19.813V19.8067Z" fill="#040404"/>
<path d="M93.992 64.7353C94.8172 64.7606 95.4123 65.2481 95.3954 65.8833C95.3764 66.6747 94.5513 67.6561 93.9392 67.6329C93.3272 67.6096 92.6202 66.6473 92.654 65.8242C92.6835 65.1489 93.2196 64.712 93.992 64.7353ZM94.6399 66.0015C94.6399 65.5203 94.3993 65.2565 93.954 65.2544C93.5319 65.2544 93.2829 65.5499 93.285 66.0247C93.2871 66.4996 93.4961 66.6874 93.9836 66.6811C94.4711 66.6747 94.6378 66.5101 94.6399 66.0099V66.0015Z" fill="#040404"/>
<path d="M23.4177 52.2711C23.6288 52.2901 23.749 52.2944 23.863 52.3091C23.9895 52.311 24.1139 52.3413 24.2271 52.3978C24.3403 52.4543 24.4393 52.5354 24.5169 52.6353C24.5945 52.7352 24.6487 52.8512 24.6754 52.9749C24.7021 53.0985 24.7007 53.2266 24.6713 53.3496C24.5995 53.9173 23.9601 54.504 23.405 54.5187C22.85 54.5335 22.4321 54.1515 22.295 53.5121C22.1451 52.8304 22.7192 52.2522 23.4177 52.2711ZM23.5697 53.2736C23.4515 53.3052 23.2784 53.2736 23.3016 53.4234C23.3195 53.5164 23.3682 53.6007 23.4397 53.6627C23.5113 53.7247 23.6017 53.7609 23.6963 53.7653C23.7326 53.7691 23.7693 53.7655 23.8042 53.7546C23.8391 53.7438 23.8714 53.726 23.8992 53.7023C23.9271 53.6787 23.9498 53.6496 23.966 53.6169C23.9823 53.5842 23.9918 53.5485 23.9939 53.5121C23.9727 53.2567 23.6942 53.3749 23.5697 53.2736Z" fill="#040404"/>
<path d="M65.7569 22.8963C66.4807 22.8963 67.078 23.3374 67.0949 23.9009C67.0863 24.2194 66.9578 24.523 66.7353 24.7511C66.5127 24.9791 66.2123 25.1149 65.894 25.1312C65.2609 25.1312 64.7059 24.5382 64.7122 23.8502C64.7185 23.2846 65.1364 22.9005 65.7569 22.8963ZM65.9806 23.4577C65.7273 23.4999 65.4804 23.5843 65.5036 23.8798C65.5008 23.9445 65.511 24.0092 65.5336 24.07C65.5562 24.1308 65.5907 24.1865 65.6352 24.2337C65.6796 24.2809 65.7331 24.3187 65.7924 24.3449C65.8518 24.3711 65.9157 24.3852 65.9806 24.3863C66.1104 24.3755 66.2319 24.3177 66.3221 24.2236C66.4123 24.1296 66.465 24.0057 66.4702 23.8755C66.4997 23.6075 66.2423 23.4957 65.9806 23.4577Z" fill="#040404"/>
<path d="M63.9671 89.7521C64.7206 89.7521 65.1173 90.0391 65.1152 90.5604C65.1152 91.2083 64.6361 91.7844 64.0959 91.7886C63.5556 91.7928 63.0512 91.1724 63.0554 90.5224C63.0639 90.0032 63.3572 89.7521 63.9671 89.7521ZM63.7561 90.7841C63.6949 91.0774 63.8975 91.1703 64.0895 91.1872C64.3787 91.2104 64.5116 91.0078 64.5602 90.7419C64.6087 90.4759 64.4378 90.4443 64.2499 90.4506C64.0157 90.4654 63.7308 90.4253 63.7561 90.7925V90.7841Z" fill="#040404"/>
<path d="M29.0799 82.3192C28.7866 82.3424 28.947 82.6885 28.7507 82.7814C28.7233 82.1483 29.9726 79.8838 30.5635 79.5651C29.9263 80.3499 29.4617 81.2604 29.2002 82.2369L29.0799 82.3192Z" fill="#F8F2EA"/>
<path d="M88.716 41.2464C88.5155 41.525 88.505 41.8795 88.2939 42.1665C88.4185 41.0733 88.9271 40.1236 89.423 39.174L89.4568 39.1972C89.4019 39.6404 89.1065 39.9991 89.0157 40.4296C88.8462 40.671 88.7429 40.9526 88.716 41.2464Z" fill="#F8F2EA"/>
<path d="M96.1931 51.0154C96.1446 51.0703 96.0306 51.1632 96.0771 51.0154C96.3258 50.1564 96.7036 49.3402 97.1977 48.5948C96.8748 49.2976 96.535 49.994 96.4379 50.7706C96.3704 50.8593 96.1172 50.7791 96.1931 51.0154Z" fill="#F8F2EA"/>
<path d="M33.5625 42.2171C33.6821 42.2024 33.785 42.2171 33.7472 42.3766C33.6192 42.3997 33.6087 42.2864 33.5625 42.2171Z" fill="#F8F2EA"/>
<path d="M33.7439 42.3754C33.8534 42.3923 33.8807 42.4533 33.8365 42.5523C33.6765 42.5607 33.7186 42.4639 33.7439 42.3754Z" fill="#F8F2EA"/>
<path d="M41.5525 44.03C41.5818 44.0793 41.6173 44.1247 41.658 44.1651C41.9999 44.4479 42.3144 44.8763 42.7343 44.9164C43.1543 44.9565 43.4033 44.4542 43.7241 44.1904C48.1792 40.5394 53.1893 38.142 58.9529 37.5067C63.0682 37.053 67.0463 37.5869 70.7353 39.5644C75.1376 41.9259 77.9592 45.5959 79.3563 50.3612C80.5909 54.5821 80.3862 58.786 79.1622 62.971C78.3203 65.7625 77.083 68.419 75.4879 70.8597C75.4732 70.885 75.4563 70.9082 75.4436 70.9335C75.3212 71.1572 74.9646 71.3176 75.0215 71.5371C75.0912 71.7904 75.4436 71.8896 75.6948 72.0267C76.0683 72.2378 76.4714 72.3897 76.8618 72.5691C77.0766 72.7576 77.3271 72.9011 77.5983 72.9912C78.8372 73.5589 80.1097 74.0464 81.4921 74.0844C82.5641 74.1139 83.1804 73.713 83.2437 72.6662C83.5518 72.4552 83.3724 72.2061 83.2943 71.9909C82.7863 70.5923 82.0752 69.276 81.1839 68.0845C81.0489 67.903 80.9307 67.7088 80.8041 67.5189L80.8674 67.4471C81.53 67.9642 81.9226 68.6923 82.3447 69.3951C83.0432 70.5917 83.822 71.7777 83.9718 73.1938C84.0963 74.4389 83.5856 75.1502 82.3637 75.1649C81.3528 75.1797 80.4073 74.8758 79.4724 74.5529C77.8289 74.0007 76.2354 73.3095 74.7092 72.4868C73.502 71.8241 72.3075 71.1404 71.1341 70.4228C66.8943 67.8312 62.5912 65.3304 58.6954 62.2197C54.7996 59.1089 51.0747 55.842 47.506 52.3978C45.1682 50.1474 42.9674 47.7591 40.9152 45.2456C39.402 43.3863 37.8276 41.5798 36.6732 39.4567C36.3 38.795 36.004 38.0925 35.7911 37.3632C35.7356 37.1987 35.7355 37.0205 35.7907 36.8559C35.846 36.6913 35.9536 36.5493 36.0971 36.4515C36.2047 36.3671 36.458 36.3101 36.3398 36.1202C36.2216 35.9302 36.0063 36.0442 35.8354 36.1202C35.7615 36.1497 35.7088 36.2341 35.561 36.2088C35.5948 35.9788 35.7721 35.907 35.9367 35.8247C36.6671 35.5034 37.4834 35.4329 38.2581 35.6242C40.3864 36.041 42.4332 36.7993 44.3192 37.8697C44.4374 38.0639 44.7645 38.0217 44.8068 38.2918C44.5493 38.334 44.3699 38.1546 44.1736 38.0491C42.3157 37.0338 40.3049 36.3274 38.2202 35.9577C37.7917 35.8485 37.3411 35.8624 36.9201 35.9978C40.109 36.6309 43.0235 37.9478 45.8641 39.4736C45.7203 39.637 45.554 39.7791 45.3702 39.8957C45.2795 39.8092 45.1908 39.7163 45.0917 39.634C44.0829 38.7899 42.8926 38.2897 41.715 37.7874C40.6161 37.3152 39.4285 37.0849 38.2328 37.1121C37.2684 37.1374 36.9982 37.5743 37.3992 38.4437C37.4047 38.4568 37.411 38.4695 37.4182 38.4817C38.1864 40.0181 39.2332 41.3688 40.2884 42.7026C40.6682 43.1816 41.0354 43.6797 41.5525 44.03ZM75.7855 59.2144C75.7855 59.4888 75.7855 59.761 75.7855 60.0333C75.7855 60.3055 75.6694 60.7698 76.062 60.8247C76.4545 60.8795 76.522 60.4342 76.6233 60.1282C76.9918 58.9515 77.2677 57.7477 77.4485 56.5279C77.7397 54.8205 77.8706 53.1153 77.4738 51.4038C77.3806 50.8921 77.12 50.4259 76.7331 50.0784C76.2688 49.6922 76.0324 49.7577 75.8066 50.3085C75.6421 50.7402 75.5983 51.2086 75.68 51.6634C76.0472 54.1769 75.9775 56.6946 75.7855 59.2144ZM74.2555 55.7745C74.2196 55.192 74.1731 54.6201 73.8144 54.1347C73.6962 53.9764 73.5696 53.8097 73.3184 53.8941C73.0673 53.9785 73.1074 54.1537 73.0588 54.3373C72.9407 54.8691 73.0209 55.3925 73.0757 55.9222C73.1496 56.6334 73.2446 57.3446 73.3543 58.0537C73.3775 58.2099 73.4472 58.4146 73.6455 58.4378C73.8439 58.461 73.8566 58.2563 73.8967 58.136C74.2027 57.3699 74.1816 56.5595 74.2555 55.7745Z" fill="#F8F2EA"/>
<path d="M78.9363 46.6996C79.5629 47.6885 80.0528 48.7576 80.3925 49.8779C82.0203 54.5651 81.9411 59.6765 80.1688 64.311C79.5282 66.0495 78.6189 67.6768 77.4738 69.1333V69.146C77.3873 68.9982 77.5265 68.9159 77.5835 68.8252C79.7551 65.3472 81.0425 61.5759 81.2345 57.4733C81.4364 53.9131 80.7015 50.3621 79.103 47.1745C79.0292 47.0246 78.8582 46.8959 78.9405 46.6891L78.9363 46.6996Z" fill="#F8F2EA"/>
<path d="M69.8637 38.1398C63.1357 35.1852 56.4836 35.5208 49.8781 38.5492C53.3111 36.6072 57.2117 35.6457 61.154 35.7698C64.2563 35.8437 67.1328 36.7216 69.8637 38.1398Z" fill="#F8F2EA"/>
<path d="M75.1523 76.752C75.3486 76.6654 75.4837 76.7773 75.623 76.8364C77.3514 77.5708 79.1305 78.1723 80.899 78.7927C82.6169 79.3942 84.3242 79.5672 86.0041 78.6365C85.4343 79.2866 84.6872 79.4934 83.8662 79.5166C82.1948 79.5672 80.6436 79.0565 79.103 78.4973C77.7573 77.9831 76.4387 77.4006 75.1523 76.752Z" fill="#F8F2EA"/>
<path d="M39.459 47.0986C37.475 44.8869 35.7924 42.4224 34.4552 39.7691C34.4046 39.672 34.3919 39.5581 34.278 39.4926C34.5502 39.3913 34.5312 39.6615 34.6008 39.7754C35.1875 40.7547 35.7088 41.7782 36.3483 42.73C37.1924 43.9709 38.1252 45.1507 39.0179 46.3557C39.1889 46.5857 39.3556 46.8158 39.5223 47.0437L39.459 47.0986Z" fill="#F8F2EA"/>
<path d="M59.6704 65.9044C59.586 65.9909 59.5163 65.9297 59.4488 65.8791L56.8551 63.9797C57.0493 63.9354 57.1569 63.851 57.2983 63.9628C58.039 64.5474 58.7756 65.1214 59.5248 65.706C59.5815 65.7682 59.6272 65.8395 59.6598 65.9171L59.6704 65.9044Z" fill="#F8F2EA"/>
<path d="M80.135 61.8756C80.1667 61.1581 80.3798 60.4722 80.4832 59.7652C80.6765 58.4763 80.7731 57.1748 80.7724 55.8715C80.7724 55.8018 80.7829 55.7322 80.7892 55.6605C80.9201 55.6415 80.9053 55.7301 80.9074 55.7934C80.9596 57.8276 80.7273 59.8592 80.2173 61.8292C80.2173 61.8524 80.1793 61.8672 80.1603 61.8862L80.135 61.8756Z" fill="#555253"/>
<path d="M71.3093 73.4745C71.0835 73.3521 70.8535 73.236 70.6319 73.1073C70.3684 72.962 70.1158 72.7977 69.8763 72.6155C70.4251 72.7646 70.9283 73.0474 71.341 73.4386L71.3093 73.4745Z" fill="#F8F2EA"/>
<path d="M43.8612 51.1104C44.1525 51.3869 44.4479 51.6591 44.7307 51.944C44.7835 51.9968 44.9587 52.0369 44.8278 52.1551C44.7455 52.2332 44.6759 52.1382 44.6168 52.0833C44.3034 51.8314 44.0327 51.5307 43.8148 51.1927L43.8612 51.1104Z" fill="#F8F2EA"/>
<path d="M44.7962 38.2812C44.754 38.0026 44.4269 38.0448 44.3087 37.8591C44.6801 37.8169 44.9566 38.0385 45.2521 38.2052L45.1761 38.2875C45.1276 38.2875 45.0727 38.2622 45.0431 38.3255L44.9313 38.296V38.3108C44.9629 38.2601 44.9587 38.1989 44.906 38.182C44.8532 38.1651 44.8152 38.2137 44.8152 38.2749L44.7962 38.2812Z" fill="#555253"/>
<path d="M82.9448 77.301C82.8202 77.301 82.7547 77.32 82.7103 77.301C82.5371 77.2144 82.311 77.301 82.1653 77.1341C82.1505 77.1172 82.1653 77.0284 82.1822 77.0284C82.3852 77.0529 82.5817 77.116 82.761 77.2144L82.9448 77.301Z" fill="#F8F2EA"/>
<path d="M83.4611 76.944C83.5075 76.9186 83.5202 76.9081 83.5266 76.9102C83.7146 76.9778 83.9491 76.9102 84.097 77.0771C84.1139 77.0961 84.0822 77.1912 84.078 77.1912C83.861 77.1406 83.6529 77.0572 83.4611 76.944Z" fill="#F8F2EA"/>
<path d="M46.9282 54.1246C46.8334 54.0797 46.7492 54.0153 46.6811 53.9355C46.613 53.8558 46.5626 53.7625 46.5331 53.6619C46.6789 53.8014 46.8267 53.9387 46.9746 54.0845L46.9282 54.1246Z" fill="#F8F2EA"/>
<path d="M47.7047 54.8126C47.5165 54.7193 47.3729 54.5552 47.3054 54.3563L47.7406 54.7661C47.7298 54.7825 47.7178 54.798 47.7047 54.8126Z" fill="#F8F2EA"/>
<path d="M44.9313 38.2875L45.0433 38.3171C45.2377 38.4361 45.4171 38.578 45.5778 38.7397L45.5102 38.8115C45.3285 38.6974 45.1426 38.5875 44.963 38.4735C44.8891 38.427 44.8067 38.372 44.9313 38.2875Z" fill="#F8F2EA"/>
<path d="M48.3125 55.3274C48.2313 55.3021 48.1586 55.2547 48.1027 55.1905C48.0468 55.1264 48.0097 55.048 47.9956 54.9641L48.3505 55.2894L48.3125 55.3274Z" fill="#F8F2EA"/>
<path d="M45.2522 38.1968C45.3768 38.2497 45.531 38.2644 45.6008 38.4546C45.5219 38.4572 45.4434 38.4428 45.3705 38.4126C45.2977 38.3824 45.2321 38.3369 45.1782 38.2792L45.2522 38.1968Z" fill="#555253"/>
<path d="M45.0769 42.344L45.379 42.1328L45.4255 42.1813L45.1276 42.3926L45.0769 42.344Z" fill="#F8F2EA"/>
<path d="M45.8517 41.736C45.8311 41.8075 45.7935 41.873 45.7419 41.9268C45.6904 41.9805 45.6266 42.0209 45.5559 42.0444C45.5813 41.8775 45.6975 41.8458 45.8517 41.736Z" fill="#F8F2EA"/>
<path d="M53.7193 59.5735C53.6137 59.5165 53.47 59.4933 53.4658 59.3285L53.525 59.2503C53.6394 59.3048 53.7361 59.3904 53.8038 59.4975L53.7193 59.5735Z" fill="#555253"/>
<path d="M44.678 42.7936C44.6915 42.7216 44.7235 42.6542 44.771 42.5983C44.8184 42.5424 44.8795 42.4997 44.9484 42.4746C44.9442 42.6436 44.8238 42.6753 44.678 42.7936Z" fill="#F8F2EA"/>
<path d="M55.407 60.8226C55.4742 60.8689 55.5368 60.9216 55.5938 60.98C55.6211 61.0157 55.5812 61.0639 55.5288 61.0534C55.4877 61.0432 55.4499 61.0228 55.4188 60.9942C55.3876 60.9656 55.3641 60.9297 55.3503 60.8897L55.407 60.8226Z" fill="#555253"/>
<path d="M55.1924 60.7849C55.0737 60.74 54.9733 60.6567 54.9072 60.5483L54.9812 60.4764C55.0958 60.5237 55.1921 60.6067 55.2558 60.7131L55.1924 60.7849Z" fill="#555253"/>
<path d="M49.4792 38.7245L49.8046 38.5872C49.7053 38.7288 49.6166 38.7774 49.4792 38.7245Z" fill="#F8F2EA"/>
<path d="M45.9106 39.0072C46.012 39.0579 46.1218 39.1065 46.0838 39.2502C46.0838 39.2818 46.0246 39.3283 46.0014 39.3241C45.8662 39.2988 45.9232 39.1361 45.8324 39.0727L45.9106 39.0072Z" fill="#F8F2EA"/>
<path d="M47.6375 40.5898C47.6131 40.6334 47.5774 40.6696 47.5342 40.6947C47.491 40.7198 47.4419 40.7329 47.3919 40.7325C47.3667 40.5646 47.5053 40.5814 47.6018 40.5478L47.6375 40.5898Z" fill="#555253"/>
<path d="M47.1249 40.9421C47.064 41.0072 46.9884 41.131 46.915 41.0093C46.8625 40.9295 46.9947 40.9001 47.0661 40.8707L47.1249 40.9421Z" fill="#555253"/>
<path d="M78.468 46.0479C78.3919 45.9592 78.2926 45.8789 78.3475 45.7141C78.4062 45.7322 78.4579 45.7678 78.4957 45.8161C78.5334 45.8645 78.5555 45.9233 78.5588 45.9845L78.468 46.0479Z" fill="#555253"/>
<path d="M54.7341 60.2823C54.7862 60.296 54.835 60.3203 54.8774 60.3536C54.9198 60.3869 54.9549 60.4286 54.9805 60.4761L54.9068 60.5477L54.6814 60.3539L54.7341 60.2823Z" fill="#555253"/>
<path d="M46.0279 41.5418C46.1665 41.7055 45.9818 41.6971 45.8999 41.7412L46.0258 41.5481L46.0279 41.5418Z" fill="#F8F2EA"/>
<path d="M78.3445 45.547C78.313 45.6373 78.3193 45.7002 78.2647 45.6709C78.2208 45.642 78.1871 45.6002 78.1682 45.5512C78.1577 45.5281 78.1682 45.4652 78.2248 45.4862C78.2666 45.5025 78.3067 45.5228 78.3445 45.547Z" fill="#555253"/>
<path d="M77.473 69.1331L77.4207 69.2273C77.4081 69.2063 77.3767 69.1791 77.383 69.1687C77.4019 69.1268 77.4228 69.0451 77.4793 69.1456L77.473 69.1331Z" fill="#F8F2EA"/>
<path d="M47.0626 54.1431C47.1129 54.2102 47.2725 54.2396 47.1759 54.353C47.1444 54.3907 47.0416 54.2921 47.0143 54.2081C47.0333 54.1888 47.0496 54.1669 47.0626 54.1431Z" fill="#F8F2EA"/>
<path d="M47.0627 40.8701C47.1152 40.8092 47.1887 40.698 47.2537 40.7819C47.3188 40.8659 47.1908 40.9016 47.1257 40.9414L47.0627 40.8701Z" fill="#555253"/>
<path d="M35.4375 36.3899C35.4061 36.476 35.3326 36.5641 35.2591 36.4991C35.1857 36.434 35.3053 36.3794 35.3515 36.327L35.4375 36.3899Z" fill="#F8F2EA"/>
<path d="M80.1494 61.8946L80.1053 62.0814C80.0948 62.0814 80.0759 62.0667 80.0738 62.0562C80.0615 62.0248 80.0612 61.9899 80.0728 61.9582C80.0844 61.9266 80.1071 61.9002 80.1368 61.8841L80.1494 61.8946Z" fill="#555253"/>
<path d="M78.7644 46.4366C78.6553 46.4135 78.6532 46.2981 78.5902 46.2267L78.6028 46.2015L78.5797 46.1868C78.7392 46.2015 78.7686 46.3065 78.7581 46.4408L78.7644 46.4366Z" fill="#F8F2EA"/>
<path d="M76.1113 71.9966C76.0631 72.0468 76.015 72.1096 75.9459 72.028C75.9783 71.99 76.0133 71.9543 76.0506 71.9212L76.1113 71.9966Z" fill="#555253"/>
<path d="M45.7666 38.8701L45.9094 39.0065L45.8317 39.0716L45.71 38.9519L45.7666 38.8701Z" fill="#F8F2EA"/>
<path d="M34.278 39.4912L34.303 39.3702C34.3134 39.3702 34.3322 39.391 34.3301 39.3931L34.278 39.4912Z" fill="#F8F2EA"/>
<path d="M43.5679 50.9708C43.6223 50.9541 43.6579 50.929 43.6872 50.9353C43.7165 50.9415 43.7144 50.9897 43.7291 51.019C43.7102 51.019 43.6872 51.0462 43.6725 51.0399C43.6354 51.0204 43.6004 50.9973 43.5679 50.9708Z" fill="#F8F2EA"/>
<path d="M39.8249 47.3708H39.8029C39.802 47.3801 39.802 47.3894 39.8029 47.3987H39.8249C39.8266 47.3895 39.8266 47.38 39.8249 47.3708Z" fill="#F8F2EA"/>
<path d="M47.7399 54.7657C47.7923 54.8013 47.8718 54.8096 47.8718 54.8955C47.8701 54.9022 47.8667 54.9085 47.8619 54.9136C47.8572 54.9187 47.8512 54.9226 47.8446 54.9248C47.8117 54.9254 47.7796 54.9144 47.7539 54.8938C47.7283 54.8731 47.7107 54.8441 47.7043 54.8117C47.7174 54.7973 47.7292 54.7819 47.7399 54.7657Z" fill="#F8F2EA"/>
<path d="M69.7844 72.5057C69.7635 72.5413 69.7551 72.5727 69.7404 72.5769C69.7145 72.5779 69.6887 72.5729 69.6651 72.5623C69.6253 72.5455 69.6253 72.5183 69.6651 72.5078C69.7047 72.5027 69.7447 72.502 69.7844 72.5057Z" fill="#F8F2EA"/>
<path d="M48.4303 55.5334C48.5478 55.3613 48.6003 55.4851 48.6549 55.5859H48.6654C48.5709 55.6593 48.5164 55.5292 48.4324 55.5418L48.4303 55.5334Z" fill="#F8F2EA"/>
<path d="M53.889 59.684C53.854 59.6841 53.8196 59.6746 53.7896 59.6565C53.7596 59.6383 53.7352 59.6123 53.719 59.5812L53.803 59.5056L53.9457 59.6106L53.889 59.684Z" fill="#555253"/>
<path d="M55.2551 60.7128L55.4062 60.8219L55.3495 60.8891L55.1942 60.7841L55.2551 60.7128Z" fill="#555253"/>
<path d="M80.0349 62.3157L80.0123 62.3486C80.0123 62.3362 79.9979 62.3239 80 62.3116C80.002 62.2993 80.0123 62.2911 80.0184 62.2787L80.0349 62.3157Z" fill="#555253"/>
<path d="M39.522 47.0352L39.65 47.1737C39.6302 47.1887 39.6112 47.2048 39.5933 47.222L39.459 47.0982L39.522 47.0352Z" fill="#F8F2EA"/>
<path d="M35.4302 36.2314C35.4553 36.1832 35.4972 36.1246 35.5474 36.1644C35.5976 36.2042 35.5474 36.2754 35.5034 36.3193L35.4302 36.2314Z" fill="#F8F2EA"/>
<path d="M48.6557 55.5863C48.6986 55.5863 48.7272 55.6006 48.717 55.6496C48.7121 55.6543 48.7063 55.6578 48.7 55.6599C48.6936 55.662 48.6869 55.6627 48.6802 55.6619C48.6353 55.6414 48.6333 55.6129 48.6659 55.5782L48.6557 55.5863Z" fill="#F8F2EA"/>
<path d="M53.9462 59.6111C53.9901 59.6445 54.0318 59.6821 53.9734 59.7322C53.9734 59.7322 53.9191 59.7009 53.8899 59.6842L53.9462 59.6111Z" fill="#555253"/>
<path d="M54.6808 60.3527C54.662 60.3256 54.6202 60.2839 54.6265 60.2714C54.6661 60.2108 54.7058 60.2463 54.7434 60.2818L54.6808 60.3527Z" fill="#555253"/>
<path d="M48.432 55.5328L48.4006 55.4114H48.3881C48.4362 55.4009 48.4948 55.3821 48.4969 55.4595C48.4969 55.4805 48.453 55.5035 48.4299 55.5265L48.432 55.5328Z" fill="#F8F2EA"/>
<path d="M43.8098 51.1998C43.7556 51.1726 43.7159 51.1351 43.7618 51.0766C43.7618 51.0662 43.8265 51.0975 43.8599 51.11L43.8098 51.1998Z" fill="#F8F2EA"/>
<path d="M48.3997 55.4101C48.3882 55.4117 48.3765 55.4107 48.3654 55.4072C48.3543 55.4036 48.3442 55.3976 48.3357 55.3896C48.3273 55.3815 48.3208 55.3717 48.3167 55.3608C48.3126 55.3499 48.311 55.3382 48.3121 55.3266L48.3392 55.2891C48.381 55.3225 48.4707 55.3392 48.3872 55.4164L48.3997 55.4101Z" fill="#F8F2EA"/>
<path d="M46.9738 54.0861L47.0617 54.1531C47.0488 54.1769 47.0326 54.1987 47.0136 54.218L46.9277 54.1343L46.9738 54.0861Z" fill="#F8F2EA"/>
<path d="M53.0998 58.9401C53.1115 58.9576 53.1205 58.9769 53.1263 58.9972C53.1263 58.9972 53.1079 59.0156 53.0998 59.0237C53.0885 59.0066 53.0796 58.9881 53.0732 58.9686C53.0732 58.9686 53.0896 58.9584 53.0998 58.9401Z" fill="#555253"/>
<path d="M78.9483 46.6977C78.9177 46.7201 78.8851 46.7385 78.8667 46.6977C78.8667 46.6834 78.8789 46.6589 78.8871 46.6385L78.9422 46.7181L78.9483 46.6977Z" fill="#F8F2EA"/>
<path d="M78.759 46.4482L78.8386 46.4706L78.808 46.5237L78.7652 46.438L78.759 46.4482Z" fill="#F8F2EA"/>
<path d="M59.6591 65.9044V65.9781H59.6345C59.6451 65.9528 59.6575 65.9281 59.6714 65.9044H59.6591Z" fill="#F8F2EA"/>
<path d="M80.8117 67.5091C80.7888 67.482 80.7429 67.4403 80.7491 67.4298C80.7909 67.3589 80.8347 67.409 80.8743 67.4298L80.8117 67.5091Z" fill="#F8F2EA"/>
<path d="M53.2731 59.1501C53.2313 59.1291 53.1664 59.1103 53.2229 59.0517C53.2794 58.9931 53.3087 59.0517 53.3443 59.0873L53.2731 59.1501Z" fill="#555253"/>
<path d="M78.5898 46.2321C78.5861 46.2307 78.5828 46.2285 78.5801 46.2255C78.5774 46.2226 78.5755 46.2191 78.5745 46.2153C78.5735 46.2115 78.5735 46.2075 78.5743 46.2036C78.5752 46.1998 78.577 46.1962 78.5795 46.1932L78.6021 46.2075L78.5898 46.2321Z" fill="#555253"/>
<path d="M78.5494 45.9843C78.5892 46.0157 78.6373 46.0554 78.5787 46.1036C78.5201 46.1517 78.4971 46.0826 78.4678 46.0471L78.5494 45.9843Z" fill="#555253"/>
<path d="M76.5874 71.3523C76.608 71.3337 76.6389 71.2987 76.6451 71.3028C76.6986 71.3378 76.6657 71.3667 76.6307 71.3914L76.5874 71.3523Z" fill="#555253"/>
<path d="M45.3787 42.1256C45.4037 42.1006 45.4434 42.0547 45.4496 42.0589C45.5227 42.1089 45.4496 42.1382 45.4246 42.1736L45.3787 42.1256Z" fill="#F8F2EA"/>
<path d="M76.561 71.4945L76.471 71.5824L76.4208 71.5301L76.5066 71.4421C76.5237 71.4606 76.5419 71.4781 76.561 71.4945Z" fill="#555253"/>
<path d="M76.4684 71.5818L76.3827 71.6124L76.4194 71.5308L76.4684 71.5818Z" fill="#555253"/>
<path d="M76.2075 71.7603C76.2431 71.7247 76.2745 71.6556 76.3331 71.7268C76.3436 71.7394 76.3059 71.7917 76.2892 71.8273L76.2075 71.7603Z" fill="#555253"/>
<path d="M76.1232 71.8487L76.2069 71.7608L76.2865 71.8278L76.2027 71.9157L76.1232 71.8487Z" fill="#555253"/>
<path d="M76.0514 71.9206L76.1247 71.8494L76.2021 71.9164L76.1121 71.996L76.0514 71.9206Z" fill="#555253"/>
<path d="M53.3595 59.2427C53.303 59.2427 53.2695 59.2155 53.2737 59.1548L53.3448 59.092L53.4328 59.1757L53.3595 59.2427Z" fill="#555253"/>
<path d="M46.0287 41.548H46.1456L46.1059 41.6002L46.0308 41.5334L46.0287 41.548Z" fill="#F8F2EA"/>
<path d="M46.2949 41.5021L46.2439 41.4735C46.2439 41.4735 46.2623 41.449 46.2684 41.451C46.2863 41.4564 46.3034 41.464 46.3194 41.4735L46.2949 41.5021Z" fill="#F8F2EA"/>
<path d="M71.3526 73.4386C71.3753 73.4571 71.4185 73.4921 71.4185 73.4942C71.3711 73.5601 71.3423 73.5066 71.3135 73.4736L71.3526 73.4386Z" fill="#F8F2EA"/>
<path d="M53.4649 59.3355C53.3895 59.3481 53.3623 59.3104 53.3602 59.2434L53.4335 59.1764L53.5235 59.258L53.4649 59.3355Z" fill="#555253"/>
<path d="M47.5967 40.5468C47.6255 40.516 47.6543 40.483 47.6914 40.5345C47.6914 40.5345 47.6564 40.5695 47.6379 40.588L47.5967 40.5468Z" fill="#555253"/>
<path d="M47.8098 40.4396L47.8397 40.4296L47.8377 40.4556L47.8098 40.4396Z" fill="#555253"/>
<path d="M78.1224 45.3938L78.0753 45.3652C78.0753 45.3652 78.0937 45.3406 78.0999 45.3427C78.1172 45.3488 78.1337 45.357 78.149 45.3672L78.1224 45.3938Z" fill="#555253"/>
<path d="M45.7091 38.9511L45.6066 38.8904L45.6819 38.8067L45.7657 38.8779L45.7091 38.9511Z" fill="#F8F2EA"/>
<path d="M45.6058 38.89L45.5095 38.8188L45.5765 38.7476L45.6812 38.8062L45.6058 38.89Z" fill="#F8F2EA"/>
<path d="M44.8236 38.2572C44.8236 38.1965 44.8592 38.1484 44.9136 38.1651C44.9681 38.1819 44.9701 38.2426 44.9387 38.2928C44.9073 38.343 44.8487 38.3221 44.8236 38.2572Z" fill="#F8F2EA"/>
<path d="M45.1263 42.3918C45.0992 42.4168 45.0554 42.4669 45.0491 42.4627C44.9698 42.4084 45.0491 42.3792 45.0762 42.3438L45.1263 42.3918Z" fill="#F8F2EA"/>
<path d="M35.3521 36.3262L35.4295 36.232L35.5028 36.3199L35.4379 36.389L35.3521 36.3262Z" fill="#F8F2EA"/>
<path d="M39.6505 47.1745C39.6776 47.2183 39.6985 47.2601 39.6505 47.3018L39.5962 47.2225C39.6133 47.2055 39.6315 47.1894 39.6505 47.1745Z" fill="#F8F2EA"/>
<path d="M76.5072 71.4414L76.5867 71.3535L76.6307 71.3933L76.5616 71.4938C76.5425 71.4774 76.5243 71.4599 76.5072 71.4414Z" fill="#555253"/>
<path d="M61.097 78.1131C62.1628 78.0984 63.2075 77.8704 64.2437 77.7058C66.2317 77.3956 68.0424 76.5873 69.851 75.7854C69.9949 75.7125 70.1541 75.6749 70.3153 75.6756C69.9544 75.8613 69.5978 76.0576 69.2285 76.2306C66.7783 77.385 64.2183 78.1131 61.4917 78.1912C61.3634 78.2006 61.2358 78.2183 61.1097 78.244L61.097 78.1131Z" fill="#F8F2EA"/>
<path d="M61.097 78.1132L61.1096 78.244C59.9566 78.327 58.7976 78.256 57.6633 78.033C58.8072 78.1216 59.9573 78.0646 61.097 78.1132Z" fill="#555253"/>
<path d="M87.4729 28.8625C88.2369 31.3739 89.1043 33.7418 91.3877 35.2317C89.3934 36.0632 88.6695 37.8528 88.0828 39.7417C88.0237 39.9337 87.9815 40.13 87.9267 40.3241C87.9267 40.3473 87.8908 40.3663 87.8634 40.3959C87.1564 38.4965 86.1434 36.8082 84.4065 35.6221C86.3882 33.8262 87.0804 31.4372 87.4729 28.8625Z" fill="#F8F2EA"/>
<path d="M89.4293 39.1739C89.7864 38.3338 90.2665 37.5514 90.8538 36.8525L90.9446 36.9095C90.5225 37.6038 90.0878 38.2981 89.6572 38.9924C89.6066 39.0726 89.5918 39.1887 89.4631 39.2035L89.4293 39.1739Z" fill="#F8F2EA"/>
<path d="M87.1817 27.4569C87.2904 28.3663 87.1587 29.2882 86.7997 30.1308C86.9852 29.2488 87.1128 28.3556 87.1817 27.4569Z" fill="#F8F2EA"/>
<path d="M92.3691 35.4598C92.4074 35.402 92.46 35.355 92.5219 35.3235C92.5837 35.292 92.6526 35.2771 92.722 35.2803C92.6987 35.4493 92.5508 35.4683 92.4367 35.5274L92.3691 35.4598Z" fill="#555253"/>
<path d="M91.6937 35.9939C91.7444 35.8333 91.905 35.7826 92.0212 35.7171L92.0867 35.7805C92.0033 35.9023 91.88 35.9912 91.7381 36.0319L91.6937 35.9939Z" fill="#555253"/>
<path d="M92.4354 35.5268C92.3704 35.5813 92.3116 35.7136 92.2255 35.6086C92.1857 35.5603 92.2969 35.489 92.3725 35.4596L92.4354 35.5268Z" fill="#555253"/>
<path d="M92.0209 35.725C92.0564 35.6874 92.0939 35.6478 92.1377 35.7041C92.1377 35.7041 92.1044 35.7584 92.0856 35.7876L92.0209 35.725Z" fill="#555253"/>
<path d="M91.5988 36.071L91.693 35.9935L91.7369 36.0312L91.6553 36.1254L91.5988 36.071Z" fill="#555253"/>
<path d="M91.5038 36.147L91.598 36.0695L91.6545 36.1239C91.6252 36.1574 91.5938 36.1888 91.5624 36.2202L91.5038 36.147Z" fill="#555253"/>
<path d="M91.5617 36.2228C91.5346 36.2395 91.4886 36.2729 91.4803 36.2666C91.4302 36.2207 91.4657 36.1831 91.5033 36.1497L91.5617 36.2228Z" fill="#555253"/>
<path d="M84.2133 36.7659L84.238 36.8275L84.1743 36.8029L84.2133 36.7659Z" fill="#555253"/>
<path d="M28.0733 73.7446C28.7064 75.5047 29.4641 77.1213 31.1904 78.0879C29.5337 78.6598 28.8858 80.0273 28.4004 81.6059C28.1157 80.9374 27.7438 80.3093 27.2946 79.7382C26.8898 79.2158 26.397 78.7681 25.8384 78.415C25.716 78.3432 25.5535 78.3031 25.7751 78.1301C27.1447 77.0559 27.723 75.5554 28.0248 73.9092C28.0381 73.8536 28.0543 73.7986 28.0733 73.7446Z" fill="#F8F2EA"/>
<path d="M27.4191 74.7808C27.6554 73.8944 27.8411 73.122 27.7884 72.2483C28.0269 72.6894 27.8137 74.135 27.4191 74.7808Z" fill="#555253"/>
<path d="M30.458 79.557C30.5636 79.4134 30.5974 79.3584 30.6418 79.3098C30.6863 79.2724 30.7336 79.2385 30.7834 79.2084C30.7749 79.3944 30.6967 79.4704 30.458 79.557Z" fill="#F8F2EA"/>
<path d="M27.4032 74.9123H27.3853L27.3952 74.8864L27.4032 74.9123Z" fill="#555253"/>
<path d="M95.8049 50.1439C95.406 49.0106 94.8911 47.9976 93.9731 47.2399C93.8739 47.1576 93.8127 47.1091 93.9393 46.9803C94.9481 45.961 95.3258 44.6589 95.5242 43.2977C95.5321 43.2413 95.5441 43.1856 95.5601 43.131C95.5601 43.1077 95.5981 43.0909 95.615 43.074C96.0371 44.5681 96.5119 46.0286 97.8182 47.0204C96.7989 47.5839 96.7314 47.6894 95.8049 50.1439Z" fill="#F8F2EA"/>
<path d="M95.3364 43.1352C95.404 43.4077 95.404 43.412 95.216 43.769C95.1765 43.5501 95.2194 43.3243 95.3364 43.1352Z" fill="#555253"/>
<path d="M97.3344 48.4612L97.2589 48.52C97.2589 48.4843 97.2358 48.4402 97.2484 48.4129C97.2565 48.3941 97.2686 48.3772 97.2838 48.3634C97.299 48.3497 97.317 48.3393 97.3365 48.3332C97.3722 48.329 97.4079 48.3646 97.3344 48.4612Z" fill="#F8F2EA"/>
<path d="M95.5217 41.3307C95.5613 41.3683 95.5947 41.4351 95.5488 41.4539C95.5029 41.4727 95.505 41.3975 95.4883 41.3621L95.5217 41.3307Z" fill="#555253"/>
<path d="M97.4277 48.1769L97.4552 48.1887L97.4277 48.2319L97.3982 48.2044L97.4277 48.1769Z" fill="#F8F2EA"/>
<path d="M93.5534 47.6135L93.576 47.7102L93.4813 47.6835L93.5534 47.6135Z" fill="#555253"/>
<path d="M19.8321 47.8794C19.8395 47.5905 19.9414 47.3119 20.122 47.0863C20.3026 46.8607 20.5522 46.7005 20.8325 46.63C21.3812 46.4802 22.1451 46.7398 22.4089 47.1661C22.4679 47.2656 22.505 47.3766 22.5177 47.4916C22.5305 47.6066 22.5186 47.7229 22.4828 47.833C22.333 48.407 21.3157 49.0844 20.729 49.0064C20.1424 48.9283 19.8258 48.4935 19.8321 47.8794Z" fill="#F8F2EA"/>
<path d="M22.9957 48.4808C22.9662 48.6943 22.8937 48.8996 22.7826 49.0843C22.6715 49.2689 22.5241 49.4292 22.3493 49.5552C22.1745 49.6813 21.976 49.7706 21.7657 49.8177C21.5554 49.8648 21.3377 49.8688 21.1259 49.8294C21.5183 49.758 21.8898 49.5999 22.2133 49.3666C22.5368 49.1333 22.8041 48.8307 22.9957 48.4808Z" fill="#F8F2EA"/>
<path d="M19.0618 48.0524C18.9823 47.9011 18.9408 47.7327 18.9408 47.5618C18.9408 47.3908 18.9823 47.2224 19.0618 47.0711V48.0524Z" fill="#F8F2EA"/>
<path d="M60.8627 98.2064C60.3963 98.2064 59.9278 97.7949 59.9109 97.3622C59.9044 97.2038 59.9299 97.0457 59.9861 96.8975C60.0422 96.7492 60.1278 96.6138 60.2376 96.4995C60.3474 96.3851 60.4792 96.2942 60.6251 96.2321C60.7709 96.17 60.9279 96.138 61.0864 96.1382C61.3682 96.1572 61.6313 96.2862 61.8188 96.4975C62.0064 96.7087 62.1033 96.9852 62.0889 97.2672C62.0846 97.7273 61.4536 98.2064 60.8627 98.2064Z" fill="#F8F2EA"/>
<path d="M62.4012 19.813C62.2392 19.8316 62.0757 19.7939 61.9382 19.7063C61.8006 19.6187 61.6973 19.4865 61.6457 19.3319C61.5672 19.1772 61.5418 19.001 61.5734 18.8305C61.6051 18.66 61.692 18.5047 61.8208 18.3885C62.0802 18.1003 62.4084 17.8825 62.7747 17.7554C63.4437 17.5443 63.8827 17.8904 63.8299 18.5995C63.7892 18.9449 63.6192 19.2621 63.3542 19.4872C63.0891 19.7123 62.7486 19.8288 62.4012 19.813Z" fill="#F8F2EA"/>
<path d="M62.1543 17.4683C61.8757 17.6237 61.6324 17.8352 61.4399 18.0895C61.2473 18.3438 61.1097 18.6353 61.0358 18.9456C61.059 17.8904 61.4262 17.4683 62.1501 17.4831L62.1543 17.4683Z" fill="#F8F2EA"/>
<path d="M62.1493 17.484L62.1354 17.462H62.1533L62.1493 17.484Z" fill="#F8F2EA"/>
<path d="M94.6399 66.0099C94.6399 66.5101 94.469 66.6852 93.9836 66.6895C93.4982 66.6937 93.2872 66.4995 93.285 66.0331C93.2829 65.5667 93.5404 65.2607 93.954 65.2628C94.3993 65.2713 94.642 65.5287 94.6399 66.0099Z" fill="#F8F2EA"/>
<path d="M23.57 53.2736C23.6946 53.375 23.9735 53.2567 23.9925 53.5124C23.9904 53.5489 23.9809 53.5846 23.9647 53.6173C23.9484 53.65 23.9256 53.6791 23.8978 53.7028C23.8699 53.7265 23.8376 53.7443 23.8027 53.7552C23.7677 53.766 23.731 53.7696 23.6946 53.7659C23.5999 53.7614 23.5095 53.7252 23.4378 53.6632C23.3661 53.6011 23.3174 53.5167 23.2995 53.4236C23.2784 53.2673 23.4474 53.3053 23.57 53.2736Z" fill="#F8F2EA"/>
<path d="M65.9805 23.4577C66.2422 23.4957 66.4934 23.6075 66.4702 23.8798C66.4649 24.01 66.4123 24.1338 66.3221 24.2279C66.2319 24.322 66.1104 24.3798 65.9805 24.3905C65.9157 24.3894 65.8517 24.3754 65.7924 24.3492C65.7331 24.323 65.6796 24.2852 65.6351 24.2379C65.5907 24.1907 65.5561 24.1351 65.5335 24.0743C65.5109 24.0135 65.5008 23.9488 65.5036 23.884C65.4804 23.5843 65.7273 23.4999 65.9805 23.4577Z" fill="#F8F2EA"/>
<path d="M63.7561 90.7928C63.7308 90.4252 64.016 90.4654 64.2505 90.459C64.4385 90.459 64.6012 90.5034 64.5611 90.7506C64.5209 90.9978 64.3794 91.2196 64.0899 91.1964C63.8977 91.1795 63.6949 91.0865 63.7561 90.7928Z" fill="#F8F2EA"/>
<path d="M75.7855 59.2144C75.9818 56.6946 76.0514 54.1769 75.6821 51.6634C75.6005 51.2086 75.6442 50.7402 75.8087 50.3085C76.0346 49.7576 76.2709 49.6922 76.7352 50.0784C77.1222 50.4259 77.3827 50.8921 77.476 51.4038C77.8812 53.1153 77.7419 54.8205 77.4506 56.5279C77.2712 57.7475 76.9967 58.9513 76.6297 60.1282C76.5284 60.4342 76.4609 60.8795 76.0683 60.8246C75.6758 60.7698 75.7855 60.3329 75.7855 60.0332C75.7855 59.7336 75.7855 59.4888 75.7855 59.2144ZM76.5558 50.5343L76.4693 50.5575L76.4925 50.5849L76.5579 50.5195C76.4693 50.5828 76.5115 50.6461 76.5579 50.7073C76.7479 51.106 76.8835 51.5283 76.961 51.963C77.2248 53.2145 77.2143 54.485 77.2291 55.7618C77.0328 55.9728 77.1763 56.205 77.1657 56.4287C77.1784 56.1944 77.3768 55.9876 77.2734 55.7407C77.435 54.5758 77.4115 53.3928 77.2037 52.2353C77.0982 51.6866 77.0687 51.0935 76.6128 50.6693C76.5953 50.6231 76.5748 50.578 76.5516 50.5343H76.5558Z" fill="#040404"/>
<path d="M74.2555 55.7744C74.1816 56.5658 74.2027 57.3762 73.8967 58.136C73.8482 58.2563 73.8355 58.461 73.6456 58.4378C73.4556 58.4146 73.3775 58.2098 73.3543 58.0537C73.2446 57.3446 73.1433 56.6334 73.0758 55.9222C73.0209 55.3967 72.9407 54.867 73.0589 54.3372C73.1011 54.1536 73.0905 53.9679 73.3185 53.894C73.5464 53.8202 73.6962 53.9764 73.8144 54.1346C74.1732 54.6137 74.2196 55.1856 74.2555 55.7744Z" fill="#040404"/>
<path d="M77.229 55.7533C77.2142 54.4871 77.229 53.2208 76.961 51.9546C76.8834 51.5199 76.7479 51.0975 76.5579 50.6989C76.5771 50.6846 76.5954 50.6691 76.6127 50.6525C77.0686 51.0745 77.0981 51.6697 77.2036 52.2184C77.4114 53.3759 77.4349 54.559 77.2733 55.7238H77.2437L77.229 55.7533Z" fill="#F8F2EA"/>
<path d="M77.2291 55.7534L77.2439 55.7259H77.2735C77.3791 55.9731 77.1784 56.1801 77.1657 56.4146C77.1763 56.197 77.0326 55.9646 77.2291 55.7534Z" fill="#555253"/>
<path d="M76.5576 50.7084C76.5072 50.6475 76.4652 50.5846 76.5576 50.5216V50.5321L76.6163 50.6622C76.5978 50.6789 76.5781 50.6943 76.5576 50.7084Z" fill="#F8F2EA"/>
<path d="M76.5508 50.5195L76.4875 50.5828L76.4651 50.5563L76.5508 50.5318V50.5195Z" fill="#F8F2EA"/>
<defs>
<filter id="filter0_d_8060_58942" x="0" y="0.0239258" width="125.849" height="123.977" filterUnits="userSpaceOnUse" color-interpolation-filters="sRGB">
<feFlood flood-opacity="0" result="BackgroundImageFix"/>
<feColorMatrix in="SourceAlpha" type="matrix" values="0 0 0 0 0 0 0 0 0 0 0 0 0 0 0 0 0 0 127 0" result="hardAlpha"/>
<feOffset dx="5" dy="4"/>
<feGaussianBlur stdDeviation="2"/>
<feComposite in2="hardAlpha" operator="out"/>
<feColorMatrix type="matrix" values="0 0 0 0 0 0 0 0 0 0 0 0 0 0 0 0 0 0 0.25 0"/>
<feBlend mode="normal" in2="BackgroundImageFix" result="effect1_dropShadow_8060_58942"/>
<feBlend mode="normal" in="SourceGraphic" in2="effect1_dropShadow_8060_58942" result="shape"/>
</filter>
</defs>
</svg>
