<svg width="51" height="50" viewBox="0 0 51 50" fill="none" xmlns="http://www.w3.org/2000/svg">
<path d="M0 25.0012C0.0920646 18.6525 2.22099 13.0625 6.52878 8.33399C10.0397 4.48089 14.385 2.00596 19.4392 0.746993C20.998 0.35878 22.5823 0.133316 24.187 0.0426115C27.5049 -0.145534 30.734 0.285698 33.8652 1.40939C37.0698 2.55952 39.9014 4.31192 42.3731 6.64431C44.4766 8.62891 46.1166 10.9468 47.4492 13.5041C48.8213 16.1382 49.7128 18.9111 50.1128 21.8484C50.2922 23.1654 50.3728 24.4881 50.3292 25.815C50.1268 31.9927 47.9719 37.3997 43.7697 41.951C40.2093 45.8067 35.8282 48.2842 30.6851 49.4027C29.21 49.7235 27.7172 49.9246 26.2056 49.9578C19.4485 50.1065 13.4903 48.0043 8.40961 43.5613C4.37489 40.0327 1.81476 35.6017 0.617405 30.3906C0.246026 28.7756 0.0468125 27.1367 0.0239264 25.4781C0.0218458 25.3278 0.0093625 25.178 0.000520139 25.0018L0 25.0012Z" fill="#181818"/>
<path d="M26.46 47.4798C22.9678 47.543 19.7107 46.9708 16.5873 45.6973C14.3465 44.7841 12.253 43.6143 10.4309 42.0085C7.43543 39.3693 5.24512 36.1765 3.8652 32.4349C3.26235 30.8012 2.85873 29.1182 2.64391 27.3923C2.43169 25.6912 2.36772 23.9828 2.60126 22.2822C2.91542 19.9955 3.58848 17.8077 4.59443 15.7262C6.57824 11.6212 9.50506 8.34131 13.3635 5.90733C15.9184 4.29591 18.699 3.22301 21.6794 2.67931C23.1467 2.41134 24.6265 2.28539 26.1173 2.29939C28.4267 2.32116 30.695 2.6394 32.8879 3.36607C34.415 3.87194 35.8371 4.61726 37.1832 5.49632C41.5519 8.3496 44.6503 12.2359 46.5982 17.0463C47.4435 19.1335 47.9699 21.3016 48.1805 23.5448C48.2825 24.6281 48.3397 25.714 48.2481 26.7988C48.1394 28.0873 47.8793 29.3515 47.5272 30.5959C46.4817 34.2858 44.6352 37.5278 42.0039 40.3209C39.2528 43.2411 35.9645 45.3413 32.1529 46.6096C31.0081 46.9905 29.8139 47.1792 28.6155 47.3233C27.8592 47.414 27.0998 47.4544 26.46 47.4803V47.4798Z" fill="#F8F2EA"/>
<path d="M26.4717 44.9958C23.3483 45.0518 20.4352 44.5453 17.6416 43.4179C15.6375 42.6095 13.765 41.574 12.1354 40.1525C9.45621 37.8162 7.49721 34.9899 6.26301 31.6777C5.72383 30.2315 5.36282 28.7417 5.17069 27.2138C4.98089 25.7079 4.92366 24.1957 5.13254 22.6903C5.41353 20.666 6.01551 18.7293 6.91523 16.8867C8.68954 13.2528 11.3073 10.3494 14.7582 8.19478C17.0433 6.7683 19.5303 5.81855 22.196 5.33724C23.5084 5.10003 24.8319 4.98854 26.1652 5.00093C28.2307 5.0202 30.2595 5.30191 32.2208 5.94518C33.5867 6.39299 34.8586 7.05277 36.0625 7.83093C39.9698 10.3567 42.7411 13.797 44.4833 18.0553C45.2393 19.903 45.71 21.8222 45.8985 23.808C45.9896 24.7669 46.0408 25.7281 45.9589 26.6884C45.8617 27.8291 45.6291 28.9481 45.3142 30.0498C44.3791 33.3161 42.7276 36.186 40.3741 38.6586C37.9136 41.2436 34.9725 43.1027 31.5635 44.2255C30.5395 44.5627 29.4714 44.7297 28.3996 44.8573C27.7232 44.9376 27.0439 44.9734 26.4717 44.9963V44.9958Z" fill="#181818"/>
<path d="M6.99271 9.90188C7.52377 9.10472 8.12453 8.36043 8.76638 7.65139C9.12267 7.25799 9.54659 6.93146 9.98298 6.57434C9.03841 7.75971 8.0127 8.83106 7.03692 9.94594C6.99843 9.95475 6.97814 9.94594 6.99271 9.90188Z" fill="#F8F2EA"/>
<path d="M40.3117 7.35343C41.4617 8.2869 42.5056 9.32559 43.4325 10.4799C43.4403 10.5177 43.4294 10.5369 43.3872 10.5229C42.3964 9.43236 41.3301 8.41648 40.2628 7.40163C40.2555 7.36224 40.269 7.34306 40.3111 7.35343H40.3117Z" fill="#F8F2EA"/>
<path d="M49.7676 23.4479C49.8929 24.4171 49.9585 25.389 49.8633 26.3644C49.8279 26.7303 49.7717 27.0942 49.7249 27.4591C49.6162 27.4083 49.6885 27.3249 49.6875 27.2544C49.7452 26.3484 49.7982 25.4424 49.767 24.5338C49.7551 24.186 49.7395 23.8382 49.7249 23.4904C49.7109 23.4484 49.7291 23.4381 49.7676 23.4474V23.4479Z" fill="#F8F2EA"/>
<path d="M28.1759 48.2209C27.6417 48.2899 27.108 48.3609 26.5733 48.4272C26.0709 48.4899 25.5668 48.5423 25.0649 48.6117C24.9323 48.6304 24.8059 48.6097 24.6769 48.6066C24.6389 48.6055 24.5677 48.6392 24.5765 48.5537C24.5822 48.4993 24.627 48.478 24.6805 48.4744C24.8719 48.4619 25.0628 48.4422 25.2548 48.4355C26.1177 48.4054 26.9743 48.307 27.83 48.1976C27.9439 48.1831 28.0588 48.165 28.1759 48.2204V48.2209Z" fill="#F8F2EA"/>
<path d="M15.8111 4.12537C16.843 3.54849 17.9712 3.22403 19.0921 2.88143C19.1368 2.8664 19.1478 2.88661 19.14 2.92704C18.0321 3.30748 16.9288 3.70191 15.8542 4.16943C15.8116 4.18186 15.8012 4.16372 15.8111 4.12537Z" fill="#F8F2EA"/>
<path d="M39.1487 43.8688C40.0501 43.082 40.9728 42.318 41.8082 41.4566C41.6064 41.8495 39.7162 43.5734 39.1487 43.8688Z" fill="#F8F2EA"/>
<path d="M43.181 8.28424C43.5753 8.57294 45.0894 10.3445 45.3006 10.7472C44.5391 9.97393 43.9404 9.06067 43.181 8.28424Z" fill="#F8F2EA"/>
<path d="M39.27 5.88658C38.7239 5.57042 38.1782 5.25373 37.6321 4.93756C38.2339 5.15681 38.8705 5.31437 39.27 5.88658Z" fill="#F8F2EA"/>
<path d="M6.86784 11.2117C7.24182 10.6753 7.66418 10.1756 8.08341 9.67443C8.11254 9.63919 8.1375 9.55626 8.20668 9.60809C8.28314 9.66562 8.21552 9.71175 8.17703 9.75736C7.7552 10.257 7.33337 10.7572 6.91206 11.2573C6.87513 11.2636 6.85432 11.2537 6.86836 11.2117H6.86784Z" fill="#F8F2EA"/>
<path d="M49.4532 29.4463C49.3444 30.1668 49.1759 30.8732 48.9476 31.5657C48.9351 31.5807 48.9221 31.5812 48.9081 31.5672C49.0906 30.8193 49.2763 30.0724 49.4079 29.3131C49.5062 29.3292 49.4506 29.3976 49.4532 29.4458V29.4463Z" fill="#F8F2EA"/>
<path d="M43.388 10.5228C43.4031 10.5083 43.4182 10.4943 43.4333 10.4798C43.9378 11.0572 44.3778 11.6818 44.7955 12.3229C44.8095 12.3633 44.7903 12.3701 44.756 12.3618C44.3347 11.7232 43.8566 11.1266 43.388 10.5228Z" fill="#F8F2EA"/>
<path d="M49.4533 29.4462C49.433 29.4037 49.4621 29.3441 49.408 29.3135C49.5011 28.6273 49.5942 27.9411 49.6873 27.2548C49.7133 27.3206 49.6733 27.3984 49.7248 27.4596C49.6343 28.122 49.5438 28.7838 49.4538 29.4462H49.4533Z" fill="#F8F2EA"/>
<path d="M48.7062 32.3493C48.5928 32.9199 48.352 33.4476 48.1512 33.9887C48.1158 34.084 48.0748 34.1773 48.0363 34.2717C48.0019 34.2763 47.9775 34.2727 48.0004 34.2292C48.2339 33.5942 48.4794 32.9629 48.674 32.3145C48.6896 32.3088 48.7052 32.3036 48.7156 32.3218C48.7197 32.329 48.714 32.3394 48.7067 32.3493H48.7062Z" fill="#F8F2EA"/>
<path d="M49.0633 18.5551C49.2552 19.1496 49.4398 19.7461 49.4591 20.3764C49.327 19.7695 49.1954 19.1625 49.0633 18.5551Z" fill="#F8F2EA"/>
<path d="M24.126 1.82511C24.5754 1.78157 25.0227 1.71108 25.4742 1.69916C25.4762 1.72404 25.4788 1.7484 25.4809 1.77328C25.0435 1.80541 24.606 1.83755 24.1681 1.86968C24.1265 1.88057 24.1145 1.86346 24.1254 1.82459L24.126 1.82511Z" fill="#F8F2EA"/>
<path d="M1.85639 24.9759V26.2007C1.83455 26.2007 1.8127 26.1996 1.79086 26.1991C1.69827 25.7585 1.86056 25.3263 1.85639 24.9759Z" fill="#F8F2EA"/>
<path d="M3.13647 17.4946C3.05428 17.7175 2.97002 17.9404 2.89044 18.1643C2.86963 18.2229 2.84467 18.27 2.77601 18.2425C2.68759 18.2068 2.75468 18.156 2.77445 18.1156C2.87588 17.9072 2.9799 17.7009 3.08341 17.4936C3.10162 17.4765 3.1193 17.477 3.13699 17.4951L3.13647 17.4946Z" fill="#F8F2EA"/>
<path d="M20.2469 2.26464C19.8474 2.36363 19.4485 2.46263 19.049 2.56215C19.4095 2.36156 19.8069 2.29211 20.2042 2.22162C20.2448 2.21021 20.2568 2.2268 20.2469 2.26516V2.26464Z" fill="#F8F2EA"/>
<path d="M2.76069 31.4055C2.56928 31.0209 2.51519 30.598 2.45953 30.175C2.55992 30.585 2.66031 30.9955 2.76069 31.4055Z" fill="#F8F2EA"/>
<path d="M6.86769 11.2117C6.88225 11.2267 6.89682 11.2422 6.91138 11.2573C6.72881 11.5076 6.54624 11.7585 6.36368 12.0088C6.34807 11.9985 6.33299 11.9881 6.31738 11.9777C6.49371 11.7181 6.66119 11.4522 6.86769 11.2117Z" fill="#F8F2EA"/>
<path d="M10.188 42.955C10.4325 43.1483 10.6769 43.3417 10.9214 43.535C10.5391 43.3593 10.3024 43.1712 10.188 42.955Z" fill="#F8F2EA"/>
<path d="M29.221 1.46233C28.9433 1.4416 28.665 1.42035 28.367 1.39806C28.6733 1.23842 28.9459 1.42605 29.2262 1.41154C29.2242 1.42812 29.2226 1.44523 29.2205 1.46181L29.221 1.46233Z" fill="#F8F2EA"/>
<path d="M34.3167 3.53607C34.6376 3.57702 34.9159 3.69986 35.1692 3.88437C34.8852 3.76827 34.6007 3.65217 34.3167 3.53607Z" fill="#F8F2EA"/>
<path d="M19.14 2.92706C19.1239 2.91203 19.1083 2.89648 19.0921 2.88145C19.3252 2.77468 19.5743 2.72855 19.8193 2.66791C19.8245 2.68449 19.8297 2.70108 19.8349 2.71767C19.6029 2.78764 19.3714 2.85709 19.1395 2.92706H19.14Z" fill="#F8F2EA"/>
<path d="M30.6305 48.0219C30.8286 47.9634 31.0268 47.9043 31.225 47.8457C31.1069 48.0499 30.8895 48.0033 30.7163 48.0665C30.6736 48.0779 30.6253 48.1012 30.6305 48.0219Z" fill="#F8F2EA"/>
<path d="M26.7934 48.8974C27.1112 48.8917 27.4248 48.802 27.7457 48.8622C27.4279 48.8679 27.1153 48.971 26.7934 48.8974Z" fill="#F8F2EA"/>
<path d="M9.47339 41.7012C9.65388 41.8701 9.83489 42.0396 10.0154 42.2086C10.0039 42.2205 9.99197 42.233 9.98052 42.2449C9.78079 42.0951 9.60602 41.9199 9.47339 41.7012Z" fill="#F8F2EA"/>
<path d="M10.5615 42.7398C10.3695 42.6087 10.1958 42.4579 10.0491 42.277C10.2499 42.3967 10.4252 42.547 10.5906 42.7098C10.5948 42.7326 10.5849 42.7429 10.5615 42.7398Z" fill="#F8F2EA"/>
<path d="M3.8101 34.8222C3.68319 34.6154 3.59997 34.392 3.5672 34.1479C3.65874 34.3635 3.75029 34.5796 3.84183 34.7953C3.84183 34.8165 3.83143 34.8253 3.81062 34.8227L3.8101 34.8222Z" fill="#F8F2EA"/>
<path d="M40.3119 7.35333C40.2958 7.3694 40.2797 7.38547 40.2635 7.40153C40.1392 7.28854 40.0149 7.17555 39.8911 7.06256C40.0633 7.11906 40.1959 7.22531 40.3124 7.35333H40.3119Z" fill="#F8F2EA"/>
<path d="M44.7559 12.3619C44.7689 12.3489 44.7824 12.336 44.7954 12.323C44.9312 12.4733 45.0243 12.6485 45.0893 12.8434C44.978 12.6827 44.8672 12.522 44.7559 12.3619Z" fill="#F8F2EA"/>
<path d="M20.2469 2.26465C20.2329 2.25013 20.2183 2.23562 20.2043 2.22111C20.4056 2.15477 20.61 2.10397 20.8232 2.10138C20.8279 2.10656 20.8321 2.11226 20.8368 2.11745C20.648 2.1983 20.4451 2.22111 20.2469 2.26413V2.26465Z" fill="#F8F2EA"/>
<path d="M13.5762 44.8135C13.725 44.9001 13.8743 44.9867 14.023 45.0727C13.8425 45.0437 13.6907 44.9597 13.5762 44.8135Z" fill="#F8F2EA"/>
<path d="M30.6304 48.022C30.6408 48.0717 30.6876 48.0515 30.7162 48.0665C30.5384 48.108 30.361 48.15 30.1831 48.1915C30.3194 48.093 30.4733 48.0526 30.6304 48.022Z" fill="#F8F2EA"/>
<path d="M49.7674 23.4478C49.7534 23.4624 49.7393 23.4764 49.7248 23.4909C49.6696 23.34 49.6847 23.1861 49.7222 23.0301L49.7674 23.4478Z" fill="#F8F2EA"/>
<path d="M11.1946 43.2348C11.0572 43.1534 10.9267 43.0632 10.8175 42.9461C10.8164 42.9259 10.8268 42.9186 10.8461 42.9233C10.9823 42.9824 11.0791 43.0938 11.1935 43.1819C11.2117 43.199 11.2122 43.2167 11.1946 43.2348Z" fill="#F8F2EA"/>
<path d="M15.8112 4.1254C15.8257 4.13991 15.8398 4.15494 15.8543 4.16945C15.7446 4.24564 15.6229 4.29333 15.4902 4.31406C15.5844 4.2275 15.6905 4.16427 15.8106 4.12488L15.8112 4.1254Z" fill="#F8F2EA"/>
<path d="M24.126 1.82507C24.1401 1.8401 24.1546 1.85514 24.1687 1.87017C24.0319 1.93962 23.8893 1.90593 23.7448 1.87379C23.8717 1.85773 23.9991 1.84114 24.126 1.82507Z" fill="#F8F2EA"/>
<path d="M3.13628 17.4946C3.11859 17.4946 3.10039 17.4935 3.0827 17.493C3.13524 17.3774 3.18777 17.2619 3.2403 17.1468C3.23666 17.2753 3.21586 17.3956 3.13628 17.4946Z" fill="#F8F2EA"/>
<path d="M4.01227 15.2643C4.0752 15.1363 4.13814 15.0077 4.20108 14.8797C4.21668 14.887 4.23281 14.8942 4.24841 14.9015C4.1886 15.031 4.15115 15.171 4.01227 15.2643Z" fill="#F8F2EA"/>
<path d="M48.3412 19.0921C48.3105 18.9697 48.2798 18.8474 48.2491 18.7251C48.3391 18.8158 48.3776 18.9236 48.3791 19.0439C48.3989 19.0853 48.3792 19.0962 48.3407 19.0921H48.3412Z" fill="#F8F2EA"/>
<path d="M48 34.2292C48.012 34.2432 48.0239 34.2578 48.0359 34.2717C47.9974 34.3801 47.9542 34.4858 47.8502 34.6009C47.8887 34.4475 47.935 34.335 48 34.2292Z" fill="#F8F2EA"/>
<path d="M6.99261 9.90186C7.00717 9.91637 7.02225 9.9314 7.03682 9.94591C6.9874 10.0579 6.89794 10.1372 6.8064 10.217C6.84333 10.0967 6.90262 9.99049 6.99261 9.90186Z" fill="#F8F2EA"/>
<path d="M3.84114 34.7952C3.90668 34.9093 3.96858 35.0238 3.9821 35.1596C3.90304 35.058 3.83854 34.9497 3.80994 34.8227C3.82034 34.8134 3.83074 34.8046 3.84114 34.7952Z" fill="#F8F2EA"/>
<path d="M11.1944 43.2348C11.1944 43.2172 11.1939 43.1996 11.1934 43.1819C11.2963 43.241 11.3905 43.311 11.4618 43.4116C11.3624 43.3685 11.2625 43.3271 11.1944 43.2353V43.2348Z" fill="#F8F2EA"/>
<path d="M48.0098 17.7362C47.9297 17.6486 47.8699 17.5538 47.8912 17.3895C47.9406 17.5341 47.9755 17.6351 48.0098 17.7362Z" fill="#F8F2EA"/>
<path d="M48.3412 19.092C48.3542 19.076 48.3667 19.0599 48.3797 19.0438C48.4317 19.1402 48.4468 19.2444 48.4306 19.3564C48.401 19.2683 48.3708 19.1801 48.3412 19.092Z" fill="#F8F2EA"/>
<path d="M48.9082 31.5672C48.9217 31.5729 48.9347 31.5719 48.9477 31.5657C48.9181 31.66 48.8884 31.7549 48.8411 31.9057C48.8245 31.7424 48.8515 31.6517 48.9082 31.5677V31.5672Z" fill="#F8F2EA"/>
<path d="M20.8231 2.1019C20.9313 2.04748 21.0447 2.02363 21.2085 2.04281C21.0572 2.07339 20.9536 2.12574 20.8366 2.11797C20.8319 2.11278 20.8278 2.10708 20.8231 2.1019Z" fill="#F8F2EA"/>
<path d="M10.8173 42.9462C10.732 42.8773 10.6467 42.8088 10.5614 42.7399C10.5713 42.7301 10.5806 42.7197 10.5905 42.7098C10.6878 42.7669 10.7736 42.8373 10.8459 42.9234C10.8334 42.927 10.8241 42.9348 10.8173 42.9462Z" fill="#F8F2EA"/>
<path d="M48.7064 32.3494C48.6955 32.3379 48.6846 32.326 48.6736 32.3146C48.6997 32.2244 48.7257 32.1343 48.7517 32.0441C48.7657 32.1519 48.7699 32.2571 48.7059 32.3494H48.7064Z" fill="#F8F2EA"/>
<path d="M36.6982 11.8266C36.7011 12.0628 36.6244 12.2922 36.4817 12.4736C36.3391 12.655 36.14 12.7765 35.9203 12.816C35.7089 12.845 35.4946 12.7941 35.3151 12.6722C35.1356 12.5503 35.0024 12.3652 34.939 12.1496C34.7542 11.5487 35.2549 10.9281 35.8413 11.0363C36.0796 11.0854 36.3036 11.1936 36.4948 11.3521C36.5642 11.4061 36.6194 11.4781 36.655 11.5612C36.6907 11.6443 36.7055 11.7357 36.6982 11.8266ZM35.4114 11.9403C35.4255 12.148 35.4807 12.3059 35.6349 12.3975C35.7891 12.4891 35.9329 12.4267 36.0648 12.3186C36.1083 12.2824 36.1485 12.242 36.1848 12.1977C36.4374 11.8906 36.4083 11.6656 36.0931 11.4342C36.039 11.3954 35.977 11.3705 35.9122 11.3616C35.8473 11.3528 35.7814 11.3602 35.7197 11.3832C35.658 11.4062 35.6023 11.4443 35.5571 11.4943C35.5118 11.5443 35.4782 11.6049 35.4591 11.6711C35.4345 11.7682 35.424 11.8693 35.4114 11.9403ZM35.3018 11.5566C35.1662 11.7848 35.1632 11.968 35.2795 12.1338C35.2363 11.9475 35.281 11.7659 35.3018 11.5574V11.5566Z" fill="#181818"/>
<path d="M12.9981 26.4664C12.9622 26.7122 12.8475 26.9345 12.676 27.0908C12.4806 27.2731 12.2737 27.2666 12.0825 27.0811C11.9692 26.9756 11.8847 26.8358 11.8388 26.6781C11.793 26.5204 11.7876 26.3512 11.8234 26.1902C11.8949 25.8103 12.3245 25.6078 12.6359 25.7941C12.8385 25.9148 13.0203 26.0606 12.9981 26.4664ZM12.6796 26.293C12.6796 26.1149 12.6151 26.0355 12.4806 26.0387C12.3202 26.0428 12.1885 26.1699 12.1942 26.3173C12.1992 26.4793 12.3524 26.6761 12.4712 26.6672C12.5636 26.6608 12.6817 26.4494 12.6803 26.293H12.6796Z" fill="#181818"/>
<path d="M39.9999 20.3192C39.9999 20.7476 39.7636 21.089 39.3933 21.1916C39.2716 21.2326 39.1393 21.2347 39.0162 21.1974C38.8932 21.1601 38.786 21.0855 38.7107 20.9848C38.529 20.7681 38.4206 20.5235 38.5708 20.2462C38.6495 20.0902 38.7722 19.9585 38.9248 19.8663C39.0775 19.774 39.254 19.7248 39.4343 19.7242C39.7542 19.7144 39.9974 19.977 39.9999 20.3192ZM39.7116 20.4185C39.7116 20.2133 39.5691 20.0902 39.3472 20.0902C39.1851 20.0902 39.0384 20.21 39.0409 20.3364C39.0409 20.5063 39.2448 20.7369 39.3924 20.7402C39.4779 20.7349 39.5581 20.6988 39.6172 20.6392C39.6764 20.5796 39.71 20.5009 39.7116 20.4185ZM38.8583 20.4185C38.8097 20.6401 38.8703 20.7402 39.0648 20.7919C38.9681 20.6824 38.8981 20.5534 38.86 20.4144L38.8583 20.4185Z" fill="#181818"/>
<path d="M13.6003 21.6745C13.5976 21.5774 13.614 21.4806 13.6484 21.39C13.6828 21.2994 13.7346 21.2167 13.8007 21.1468C13.8668 21.0769 13.9459 21.0212 14.0334 20.9829C14.1208 20.9447 14.2149 20.9246 14.31 20.924C14.6921 20.924 15.1017 21.2825 15.1 21.6164C15.1 22.0515 14.7498 22.4242 14.348 22.4233C14.2499 22.4275 14.152 22.4112 14.0604 22.3753C13.9688 22.3393 13.8854 22.2846 13.8153 22.2144C13.7452 22.1442 13.69 22.0601 13.653 21.9672C13.616 21.8744 13.598 21.7747 13.6003 21.6745ZM14.2039 21.1662C14.1905 21.1556 14.1739 21.1498 14.1569 21.1498C14.1399 21.1498 14.1234 21.1556 14.1099 21.1662C13.8202 21.3239 13.7356 21.5283 13.8452 21.8965C13.8745 21.5979 13.9064 21.3477 14.128 21.1918C14.1539 21.1829 14.1798 21.175 14.2039 21.1653L14.21 21.1424L14.2039 21.1662ZM14.4756 21.2781C14.2496 21.2781 14.022 21.4613 14.0254 21.6375C14.0369 21.7456 14.0867 21.8456 14.1652 21.9189C14.2438 21.9922 14.3459 22.0338 14.4523 22.0357C14.6446 22.0357 14.8464 21.7829 14.8516 21.5432C14.8507 21.3952 14.686 21.2763 14.479 21.2781H14.4756Z" fill="#181818"/>
<path d="M37 38.5768C36.9952 38.9609 36.7716 39.2259 36.4542 39.2239C36.1368 39.2219 35.7962 38.8723 35.8001 38.5512C35.804 38.2301 36.1871 38.0361 36.521 38.0243C36.8181 38.0135 37.0039 38.241 37 38.5768ZM36.3478 38.3798C36.1988 38.3493 36.2249 38.4783 36.2191 38.5699C36.2084 38.7364 36.2791 38.8457 36.4494 38.8428C36.5126 38.842 36.573 38.8163 36.6179 38.7711C36.6629 38.7259 36.6888 38.6648 36.6903 38.6005C36.7019 38.4911 36.5278 38.3789 36.3478 38.3779V38.3798Z" fill="#181818"/>
<path d="M10 22.9572C10 22.6956 10.0811 22.5094 10.2287 22.4473C10.4038 22.3738 10.6893 22.4807 10.8231 22.6698C10.9261 22.815 10.9252 23.0183 10.8231 23.2294C10.6852 23.5063 10.4865 23.6591 10.3187 23.6171C10.1508 23.575 10.0178 23.3086 10.0024 22.9954C10 22.983 10 22.9696 10 22.9572ZM10.5903 22.9993C10.5903 22.8923 10.493 22.8083 10.3706 22.8083C10.2838 22.8025 10.2165 22.8331 10.2019 22.9429C10.1914 23.0241 10.3381 23.2408 10.399 23.2294C10.446 23.2158 10.4888 23.187 10.5228 23.1464C10.5567 23.1058 10.5804 23.0548 10.5911 22.9993H10.5903Z" fill="#181818"/>
<path d="M35.2 11.9682C35.2162 11.8888 35.2294 11.7772 35.2607 11.6699C35.2851 11.5967 35.3278 11.5297 35.3854 11.4745C35.443 11.4193 35.5139 11.3772 35.5924 11.3518C35.6708 11.3263 35.7547 11.3181 35.8372 11.3279C35.9197 11.3377 35.9986 11.3652 36.0675 11.4081C36.4694 11.6638 36.5055 11.9124 36.1841 12.2517C36.1379 12.3006 36.0868 12.3453 36.0314 12.3852C35.8674 12.5056 35.6873 12.5789 35.4844 12.4725C35.2816 12.366 35.2181 12.1985 35.2 11.9682Z" fill="#F8F2EA"/>
<path d="M12.7 26.2666C12.7 26.4158 12.5562 26.6175 12.4416 26.6236C12.2951 26.6321 12.1063 26.4467 12.1002 26.2898C12.0949 26.1491 12.2572 26.0278 12.453 26.0239C12.6206 26.0232 12.6974 26.1004 12.7 26.2666Z" fill="#F8F2EA"/>
<path d="M39.6999 20.4808C39.6982 20.5944 39.6679 20.7029 39.6151 20.785C39.5622 20.867 39.4906 20.9166 39.4144 20.9239C39.2824 20.9239 39.103 20.6001 39.0999 20.3649C39.0999 20.1876 39.229 20.024 39.374 20.024C39.5702 20.0206 39.6984 20.1967 39.6999 20.4808Z" fill="#F8F2EA"/>
<path d="M38.8216 20.3239C38.8744 20.5451 38.9695 20.7501 39.1 20.9239C38.8377 20.8408 38.756 20.676 38.8216 20.3239Z" fill="#F8F2EA"/>
<path d="M14.3951 21.2239C14.6226 21.2239 14.8038 21.3633 14.8 21.5383C14.7943 21.8232 14.5724 22.1197 14.3609 22.1239C14.2454 22.1194 14.1353 22.069 14.0506 21.982C13.966 21.8951 13.9125 21.7773 13.9001 21.6504C13.8963 21.4419 14.1466 21.225 14.3951 21.2239Z" fill="#F8F2EA"/>
<path d="M14.2 21.2449C13.9979 21.3752 13.9688 21.5808 13.9421 21.8239C13.8422 21.5214 13.9193 21.3535 14.1835 21.2239C14.1882 21.2314 14.1937 21.2385 14.2 21.2449Z" fill="#F8F2EA"/>
<path d="M36.4823 38.3299C36.5964 38.3299 36.7087 38.4753 36.6995 38.613C36.6985 38.6955 36.6821 38.774 36.6536 38.832C36.6251 38.89 36.5868 38.923 36.5467 38.9239C36.4387 38.9239 36.3939 38.7874 36.4007 38.5738C36.4044 38.4512 36.3878 38.2907 36.4823 38.3299Z" fill="#F8F2EA"/>
<path d="M10.6 23.1641C10.5911 23.2027 10.5727 23.238 10.5467 23.2661C10.5207 23.2942 10.4881 23.3141 10.4524 23.3235C10.4055 23.333 10.2923 23.179 10.3005 23.12C10.3117 23.042 10.363 23.0203 10.4305 23.0244C10.525 23.0312 10.6019 23.0882 10.6 23.1641Z" fill="#F8F2EA"/>
<mask id="path-69-outside-1_2246_630" maskUnits="userSpaceOnUse" x="16.5738" y="10.0239" width="21" height="29" fill="black">
<rect fill="white" x="16.5738" y="10.0239" width="21" height="29"/>
<path d="M27.3042 37.7922C25.8943 37.7823 24.4046 37.2945 23.0395 36.4087C21.7321 35.5598 20.711 34.4357 19.8764 33.1311C19.4038 32.4053 18.995 31.64 18.6545 30.8438C18.2176 29.79 17.9131 28.6863 17.748 27.5577C17.4695 25.6884 17.5252 23.7845 17.9125 21.9346C18.3108 19.9247 19.0872 18.0084 20.2004 16.2873C21.0717 14.9455 22.1717 13.7664 23.4504 12.8035C24.1197 12.2913 24.8288 11.8332 25.571 11.4334C26.0561 11.1689 26.5991 11.0282 27.1518 11.0239C27.7621 11.0239 28.2 11.3325 28.3196 11.838C28.3637 12.0551 28.3725 12.2779 28.346 12.4978C28.2591 13.5138 28.1267 14.5269 28.1587 15.5493C28.1886 16.5041 28.3125 17.4391 28.791 18.2908C28.9257 18.5512 29.0932 18.7932 29.2895 19.011C29.3977 19.1304 29.5487 19.2024 29.7096 19.2115C29.8113 19.2237 29.9142 19.2025 30.0028 19.1512C30.0915 19.0999 30.161 19.0213 30.201 18.9272C30.2965 18.7061 30.3494 18.4689 30.3569 18.2283C30.3776 17.9645 30.3954 17.7007 30.4167 17.4369C30.4232 17.3609 30.4367 17.2848 30.4502 17.2087C30.5385 16.7181 31.0911 16.556 31.4243 16.6698C31.8096 16.8028 32.1236 17.0473 32.4462 17.2834C32.8991 17.614 33.2551 18.0363 33.6069 18.4636C33.9587 18.8909 34.3589 19.3168 34.6238 19.8251C35.2974 21.1177 35.9668 22.4117 36.3541 23.8272C36.5913 24.7352 36.7415 25.6636 36.8027 26.6C36.8681 27.4048 36.861 28.2138 36.7814 29.0173C36.6575 30.2047 36.3285 31.3259 35.7325 32.3646C34.8125 33.9679 33.6475 35.3507 32.0887 36.3753C30.6667 37.304 29.0034 37.7966 27.3042 37.7922ZM21.416 34.2039C21.4217 34.2174 21.4309 34.2288 21.4452 34.2181C21.4452 34.2181 21.4402 34.1968 21.4366 34.1854L21.4088 34.1549L21.3804 34.1264C21.3675 34.1186 21.3569 34.093 21.3398 34.1179C21.3398 34.1215 21.3512 34.1364 21.3576 34.1463L21.3875 34.1741L21.416 34.2039ZM34.1865 34.0994C34.1924 34.1024 34.1986 34.1048 34.205 34.1065C34.2122 34.093 34.21 34.0923 34.1994 34.1065C34.1994 34.1065 34.1915 34.103 34.188 34.1015L34.1702 34.1392L33.5392 34.7393C33.5524 34.7472 33.5678 34.7506 33.583 34.7491C33.5983 34.7475 33.6127 34.7411 33.624 34.7308C33.8378 34.5848 34.0236 34.4015 34.1723 34.1897C34.183 34.1748 34.2065 34.1499 34.168 34.1364C34.178 34.1364 34.1901 34.1641 34.1972 34.1364C34.2015 34.1243 34.1901 34.1115 34.1865 34.0994ZM34.319 19.8187C34.3126 19.8187 34.319 19.7874 34.299 19.8109L34.3211 19.8166C34.3211 19.8287 34.3126 19.8464 34.3382 19.8365L34.319 19.8187ZM34.3767 19.9062C34.3695 19.9062 34.3767 19.8763 34.3581 19.8955L34.3788 19.904C34.3785 19.9076 34.3785 19.9112 34.3788 19.9147C34.3788 19.9147 34.3831 19.9147 34.3845 19.919L34.3767 19.9062ZM23.063 13.779L23.0338 13.8081L23.0018 13.8337C22.9851 13.8422 22.9692 13.8519 22.9541 13.8629C22.3184 14.4087 21.7465 15.0245 21.2493 15.6986C19.8061 17.6989 18.8408 20.0025 18.4273 22.433C18.1435 23.9941 18.1721 25.596 18.5114 27.1461C18.7528 28.2353 19.1437 29.2705 19.613 30.2786C20.2161 31.5719 20.8947 32.8204 21.8204 33.9153C21.8375 33.9359 21.8653 33.9572 21.809 34.0098C20.3948 32.5509 19.4962 30.7777 18.6908 28.9455C18.7941 29.3515 18.8852 29.7617 19.034 30.1499C19.3196 30.8697 19.682 31.5567 20.115 32.199C20.7409 33.1517 21.4402 34.0432 22.3146 34.7841C22.6671 35.0827 23.0217 35.3849 23.4269 35.6081C24.4238 36.157 25.4841 36.516 26.6235 36.6163C27.5392 36.6966 28.4514 36.6959 29.3536 36.4833C29.9539 36.3411 30.5036 36.0759 31.0469 35.7979C31.8901 35.3678 32.5972 34.7528 33.2288 34.0674C34.3411 32.8615 35.1652 31.4195 35.6392 29.8499C35.9871 28.7575 36.1552 27.616 36.1369 26.4699C36.1191 25.7433 36.0401 25.0259 35.8044 24.3277C35.5908 23.6964 35.3807 23.0679 35.0845 22.47C35.0417 22.3839 35.0168 22.2894 34.9755 22.2033C34.581 21.3786 34.1702 20.5603 33.6389 19.8166C33.1305 19.1056 32.5829 18.4181 31.8452 17.9154C31.5867 17.7398 31.2855 17.8322 31.1872 18.1287C31.1452 18.2567 31.116 18.3882 31.079 18.5176C30.9679 18.9044 30.8917 19.2997 30.6802 19.6552C30.6167 19.775 30.5239 19.8768 30.4106 19.9514C30.2972 20.026 30.1668 20.0708 30.0315 20.0818C29.7146 20.1115 29.3954 20.0578 29.1058 19.9261C28.6985 19.7405 28.4001 19.4234 28.1623 19.0573C27.6204 18.224 27.3904 17.2933 27.3598 16.3108C27.3348 15.501 27.4274 14.6975 27.5114 13.8934C27.5449 13.5735 27.6061 13.2536 27.5826 12.9308C27.5257 12.2148 27.0265 11.8522 26.3165 11.9816C25.8708 12.0634 25.4976 12.2788 25.1366 12.5276C23.2645 13.8145 21.8019 15.4725 20.6718 17.4298C20.639 17.5086 20.5922 17.5809 20.5337 17.6431C20.4511 17.572 20.5081 17.508 20.5401 17.4476C20.7658 17.021 21.0115 16.5994 21.2721 16.1899C21.798 15.3671 22.3873 14.5865 23.0345 13.855L23.058 13.8273L23.0851 13.7982L23.1114 13.7747C23.1285 13.7562 23.1698 13.7377 23.1449 13.7136C23.12 13.6894 23.1065 13.7313 23.0951 13.7527L23.063 13.779ZM21.5014 34.2907C21.5057 34.2793 21.5149 34.2658 21.4907 34.2686L21.5036 34.2885C21.5106 34.2978 21.52 34.305 21.5308 34.3094C21.5415 34.3137 21.5533 34.3151 21.5648 34.3134V34.3184V34.3141C21.5491 34.2907 21.5306 34.2772 21.5014 34.2907ZM34.7227 20.4558L34.7149 20.433L34.7042 20.4451L34.7249 20.4536L34.7299 20.4934L34.7462 20.4863L34.7227 20.4558ZM34.5212 20.1365C34.5255 20.1529 34.5283 20.1699 34.5533 20.1628C34.5526 20.1855 34.5569 20.2081 34.566 20.2288C34.5752 20.2496 34.5888 20.2681 34.606 20.283C34.6252 20.3207 34.633 20.3662 34.6957 20.3939C34.6629 20.3441 34.6693 20.2858 34.6045 20.2844C34.6065 20.2615 34.6026 20.2385 34.5931 20.2176C34.5837 20.1967 34.5689 20.1786 34.5504 20.165C34.5461 20.15 34.5412 20.1337 34.5191 20.1387C34.5226 20.1131 34.5191 20.091 34.4927 20.0796C34.4927 20.0761 34.4885 20.0718 34.4856 20.0683C34.4833 20.0679 34.4808 20.0679 34.4785 20.0683L34.4949 20.0804C34.4934 20.1017 34.4934 20.1251 34.5212 20.1365ZM28.4243 18.9471C28.4172 18.9386 28.4096 18.9305 28.4015 18.9229C28.3816 18.9385 28.3944 18.952 28.4065 18.9648C28.4186 18.9776 28.4208 19.0068 28.4464 19.0118C28.45 19.0231 28.4528 19.0423 28.4678 19.0302C28.4827 19.0182 28.4678 19.0082 28.4549 19.0025C28.4562 18.9912 28.454 18.9799 28.4485 18.9699C28.443 18.96 28.4346 18.952 28.4243 18.9471ZM28.2406 18.6691L28.262 18.6954C28.2805 18.6797 28.2705 18.6648 28.262 18.6499C28.2534 18.6349 28.252 18.5951 28.2228 18.6143C28.1936 18.6335 28.22 18.6548 28.2406 18.6691ZM30.4737 18.8987C30.4531 18.9186 30.4345 18.9392 30.4637 18.9698C30.4673 18.9442 30.4702 18.9208 30.473 18.8987C30.4726 18.8952 30.4726 18.8916 30.473 18.888C30.473 18.888 30.478 18.888 30.4801 18.8838L30.4737 18.8987ZM20.419 33.0109C20.4077 33.023 20.397 33.023 20.3884 33.0109C20.3884 33.0109 20.3884 33.0031 20.3884 32.9995L20.4183 33.0159C20.3763 33.087 20.4575 33.1069 20.4789 33.1517C20.6015 33.3329 20.7405 33.5026 20.894 33.6586C20.944 33.7408 21.017 33.8065 21.1041 33.8477L20.9161 33.6387L20.4938 33.1346C20.4703 33.0891 20.4447 33.0479 20.419 33.0109ZM30.374 19.1774C30.3955 19.1518 30.4115 19.122 30.4211 19.09C30.4306 19.058 30.4335 19.0243 30.4296 18.9911L30.3491 19.1468C30.332 19.1646 30.2936 19.1824 30.3263 19.2087C30.3591 19.235 30.3605 19.1909 30.374 19.1746V19.1774ZM29.5195 19.4213L29.5124 19.4106L29.5224 19.4191C29.5834 19.4823 29.6657 19.5206 29.7534 19.5268C29.8411 19.533 29.928 19.5065 29.9973 19.4526C29.8364 19.4542 29.6757 19.4427 29.5167 19.4184L29.5195 19.4213ZM27.7906 17.1625C27.844 17.4142 27.8789 17.6723 28.0163 17.9133C28.0035 17.6438 27.8782 17.4156 27.839 17.1682C27.8124 17.0037 27.7865 16.8395 27.7614 16.6755C27.7571 16.6492 27.7614 16.6101 27.7158 16.6243C27.6902 16.6328 27.7037 16.6606 27.708 16.6847C27.735 16.8404 27.7607 17.0004 27.7877 17.1597L27.7906 17.1625ZM29.5202 37.2057C29.9952 37.1196 30.4545 36.9881 30.8654 36.7236C30.3979 36.8252 29.9457 36.9873 29.5202 37.2057ZM35.6029 30.6021C35.7724 30.0746 36.0679 29.5861 36.1013 29.0173C35.9653 29.552 35.7788 30.0746 35.6029 30.5993V30.6021ZM32.1585 35.9835C32.5625 35.7425 32.9375 35.4562 33.2765 35.1303C33.2274 35.1303 33.2103 35.1303 33.2017 35.1353C32.8592 35.419 32.5331 35.7283 32.1585 35.9807V35.9835ZM28.2734 37.4901H27.1568C27.5285 37.6045 27.9024 37.5249 28.2734 37.4901ZM27.3477 12.0271C27.191 11.7498 26.9368 11.6496 26.6484 11.7633C26.9014 11.7803 27.144 11.8708 27.3462 12.0236L27.3477 12.0271ZM30.8938 17.8273C30.9395 17.6965 30.999 17.5709 31.0712 17.4526C31.0065 17.4883 30.9545 17.5432 30.9225 17.6097C30.8905 17.6762 30.8799 17.751 30.8924 17.8237L30.8938 17.8273ZM36.4382 29.948C36.4932 29.7962 36.5188 29.6352 36.5136 29.4738C36.4597 29.6248 36.4337 29.7842 36.4367 29.9445L36.4382 29.948ZM28.3852 18.9115C28.3858 18.8832 28.379 18.8552 28.3655 18.8303C28.352 18.8053 28.3323 18.7843 28.3083 18.7693C28.3082 18.7975 28.3152 18.8253 28.3286 18.8502C28.342 18.875 28.3615 18.8961 28.3852 18.9115ZM34.4429 20L34.4258 19.9787L34.4165 19.9858C34.4218 19.993 34.4275 19.9999 34.4336 20.0064C34.4336 20.0064 34.4393 20 34.4429 20ZM28.1957 18.5894L28.2121 18.5745C28.2064 18.5688 28.2014 18.5603 28.195 18.5582C28.1886 18.556 28.1701 18.5582 28.1751 18.5752C28.1801 18.5923 28.1886 18.5781 28.1957 18.5859V18.5894ZM28.2983 18.7444L28.2912 18.7203C28.2912 18.7203 28.2819 18.7274 28.2819 18.7302C28.2844 18.7369 28.2875 18.7433 28.2912 18.7494L28.2983 18.7444ZM21.1439 33.8883C21.1439 33.8883 21.1347 33.8939 21.1354 33.8961C21.1373 33.9019 21.1397 33.9076 21.1425 33.9131C21.1425 33.9131 21.1518 33.9074 21.1511 33.9053C21.1501 33.8978 21.1477 33.8906 21.1439 33.884V33.8883Z"/>
</mask>
<path d="M27.3042 37.7922C25.8943 37.7823 24.4046 37.2945 23.0395 36.4087C21.7321 35.5598 20.711 34.4357 19.8764 33.1311C19.4038 32.4053 18.995 31.64 18.6545 30.8438C18.2176 29.79 17.9131 28.6863 17.748 27.5577C17.4695 25.6884 17.5252 23.7845 17.9125 21.9346C18.3108 19.9247 19.0872 18.0084 20.2004 16.2873C21.0717 14.9455 22.1717 13.7664 23.4504 12.8035C24.1197 12.2913 24.8288 11.8332 25.571 11.4334C26.0561 11.1689 26.5991 11.0282 27.1518 11.0239C27.7621 11.0239 28.2 11.3325 28.3196 11.838C28.3637 12.0551 28.3725 12.2779 28.346 12.4978C28.2591 13.5138 28.1267 14.5269 28.1587 15.5493C28.1886 16.5041 28.3125 17.4391 28.791 18.2908C28.9257 18.5512 29.0932 18.7932 29.2895 19.011C29.3977 19.1304 29.5487 19.2024 29.7096 19.2115C29.8113 19.2237 29.9142 19.2025 30.0028 19.1512C30.0915 19.0999 30.161 19.0213 30.201 18.9272C30.2965 18.7061 30.3494 18.4689 30.3569 18.2283C30.3776 17.9645 30.3954 17.7007 30.4167 17.4369C30.4232 17.3609 30.4367 17.2848 30.4502 17.2087C30.5385 16.7181 31.0911 16.556 31.4243 16.6698C31.8096 16.8028 32.1236 17.0473 32.4462 17.2834C32.8991 17.614 33.2551 18.0363 33.6069 18.4636C33.9587 18.8909 34.3589 19.3168 34.6238 19.8251C35.2974 21.1177 35.9668 22.4117 36.3541 23.8272C36.5913 24.7352 36.7415 25.6636 36.8027 26.6C36.8681 27.4048 36.861 28.2138 36.7814 29.0173C36.6575 30.2047 36.3285 31.3259 35.7325 32.3646C34.8125 33.9679 33.6475 35.3507 32.0887 36.3753C30.6667 37.304 29.0034 37.7966 27.3042 37.7922ZM21.416 34.2039C21.4217 34.2174 21.4309 34.2288 21.4452 34.2181C21.4452 34.2181 21.4402 34.1968 21.4366 34.1854L21.4088 34.1549L21.3804 34.1264C21.3675 34.1186 21.3569 34.093 21.3398 34.1179C21.3398 34.1215 21.3512 34.1364 21.3576 34.1463L21.3875 34.1741L21.416 34.2039ZM34.1865 34.0994C34.1924 34.1024 34.1986 34.1048 34.205 34.1065C34.2122 34.093 34.21 34.0923 34.1994 34.1065C34.1994 34.1065 34.1915 34.103 34.188 34.1015L34.1702 34.1392L33.5392 34.7393C33.5524 34.7472 33.5678 34.7506 33.583 34.7491C33.5983 34.7475 33.6127 34.7411 33.624 34.7308C33.8378 34.5848 34.0236 34.4015 34.1723 34.1897C34.183 34.1748 34.2065 34.1499 34.168 34.1364C34.178 34.1364 34.1901 34.1641 34.1972 34.1364C34.2015 34.1243 34.1901 34.1115 34.1865 34.0994ZM34.319 19.8187C34.3126 19.8187 34.319 19.7874 34.299 19.8109L34.3211 19.8166C34.3211 19.8287 34.3126 19.8464 34.3382 19.8365L34.319 19.8187ZM34.3767 19.9062C34.3695 19.9062 34.3767 19.8763 34.3581 19.8955L34.3788 19.904C34.3785 19.9076 34.3785 19.9112 34.3788 19.9147C34.3788 19.9147 34.3831 19.9147 34.3845 19.919L34.3767 19.9062ZM23.063 13.779L23.0338 13.8081L23.0018 13.8337C22.9851 13.8422 22.9692 13.8519 22.9541 13.8629C22.3184 14.4087 21.7465 15.0245 21.2493 15.6986C19.8061 17.6989 18.8408 20.0025 18.4273 22.433C18.1435 23.9941 18.1721 25.596 18.5114 27.1461C18.7528 28.2353 19.1437 29.2705 19.613 30.2786C20.2161 31.5719 20.8947 32.8204 21.8204 33.9153C21.8375 33.9359 21.8653 33.9572 21.809 34.0098C20.3948 32.5509 19.4962 30.7777 18.6908 28.9455C18.7941 29.3515 18.8852 29.7617 19.034 30.1499C19.3196 30.8697 19.682 31.5567 20.115 32.199C20.7409 33.1517 21.4402 34.0432 22.3146 34.7841C22.6671 35.0827 23.0217 35.3849 23.4269 35.6081C24.4238 36.157 25.4841 36.516 26.6235 36.6163C27.5392 36.6966 28.4514 36.6959 29.3536 36.4833C29.9539 36.3411 30.5036 36.0759 31.0469 35.7979C31.8901 35.3678 32.5972 34.7528 33.2288 34.0674C34.3411 32.8615 35.1652 31.4195 35.6392 29.8499C35.9871 28.7575 36.1552 27.616 36.1369 26.4699C36.1191 25.7433 36.0401 25.0259 35.8044 24.3277C35.5908 23.6964 35.3807 23.0679 35.0845 22.47C35.0417 22.3839 35.0168 22.2894 34.9755 22.2033C34.581 21.3786 34.1702 20.5603 33.6389 19.8166C33.1305 19.1056 32.5829 18.4181 31.8452 17.9154C31.5867 17.7398 31.2855 17.8322 31.1872 18.1287C31.1452 18.2567 31.116 18.3882 31.079 18.5176C30.9679 18.9044 30.8917 19.2997 30.6802 19.6552C30.6167 19.775 30.5239 19.8768 30.4106 19.9514C30.2972 20.026 30.1668 20.0708 30.0315 20.0818C29.7146 20.1115 29.3954 20.0578 29.1058 19.9261C28.6985 19.7405 28.4001 19.4234 28.1623 19.0573C27.6204 18.224 27.3904 17.2933 27.3598 16.3108C27.3348 15.501 27.4274 14.6975 27.5114 13.8934C27.5449 13.5735 27.6061 13.2536 27.5826 12.9308C27.5257 12.2148 27.0265 11.8522 26.3165 11.9816C25.8708 12.0634 25.4976 12.2788 25.1366 12.5276C23.2645 13.8145 21.8019 15.4725 20.6718 17.4298C20.639 17.5086 20.5922 17.5809 20.5337 17.6431C20.4511 17.572 20.5081 17.508 20.5401 17.4476C20.7658 17.021 21.0115 16.5994 21.2721 16.1899C21.798 15.3671 22.3873 14.5865 23.0345 13.855L23.058 13.8273L23.0851 13.7982L23.1114 13.7747C23.1285 13.7562 23.1698 13.7377 23.1449 13.7136C23.12 13.6894 23.1065 13.7313 23.0951 13.7527L23.063 13.779ZM21.5014 34.2907C21.5057 34.2793 21.5149 34.2658 21.4907 34.2686L21.5036 34.2885C21.5106 34.2978 21.52 34.305 21.5308 34.3094C21.5415 34.3137 21.5533 34.3151 21.5648 34.3134V34.3184V34.3141C21.5491 34.2907 21.5306 34.2772 21.5014 34.2907ZM34.7227 20.4558L34.7149 20.433L34.7042 20.4451L34.7249 20.4536L34.7299 20.4934L34.7462 20.4863L34.7227 20.4558ZM34.5212 20.1365C34.5255 20.1529 34.5283 20.1699 34.5533 20.1628C34.5526 20.1855 34.5569 20.2081 34.566 20.2288C34.5752 20.2496 34.5888 20.2681 34.606 20.283C34.6252 20.3207 34.633 20.3662 34.6957 20.3939C34.6629 20.3441 34.6693 20.2858 34.6045 20.2844C34.6065 20.2615 34.6026 20.2385 34.5931 20.2176C34.5837 20.1967 34.5689 20.1786 34.5504 20.165C34.5461 20.15 34.5412 20.1337 34.5191 20.1387C34.5226 20.1131 34.5191 20.091 34.4927 20.0796C34.4927 20.0761 34.4885 20.0718 34.4856 20.0683C34.4833 20.0679 34.4808 20.0679 34.4785 20.0683L34.4949 20.0804C34.4934 20.1017 34.4934 20.1251 34.5212 20.1365ZM28.4243 18.9471C28.4172 18.9386 28.4096 18.9305 28.4015 18.9229C28.3816 18.9385 28.3944 18.952 28.4065 18.9648C28.4186 18.9776 28.4208 19.0068 28.4464 19.0118C28.45 19.0231 28.4528 19.0423 28.4678 19.0302C28.4827 19.0182 28.4678 19.0082 28.4549 19.0025C28.4562 18.9912 28.454 18.9799 28.4485 18.9699C28.443 18.96 28.4346 18.952 28.4243 18.9471ZM28.2406 18.6691L28.262 18.6954C28.2805 18.6797 28.2705 18.6648 28.262 18.6499C28.2534 18.6349 28.252 18.5951 28.2228 18.6143C28.1936 18.6335 28.22 18.6548 28.2406 18.6691ZM30.4737 18.8987C30.4531 18.9186 30.4345 18.9392 30.4637 18.9698C30.4673 18.9442 30.4702 18.9208 30.473 18.8987C30.4726 18.8952 30.4726 18.8916 30.473 18.888C30.473 18.888 30.478 18.888 30.4801 18.8838L30.4737 18.8987ZM20.419 33.0109C20.4077 33.023 20.397 33.023 20.3884 33.0109C20.3884 33.0109 20.3884 33.0031 20.3884 32.9995L20.4183 33.0159C20.3763 33.087 20.4575 33.1069 20.4789 33.1517C20.6015 33.3329 20.7405 33.5026 20.894 33.6586C20.944 33.7408 21.017 33.8065 21.1041 33.8477L20.9161 33.6387L20.4938 33.1346C20.4703 33.0891 20.4447 33.0479 20.419 33.0109ZM30.374 19.1774C30.3955 19.1518 30.4115 19.122 30.4211 19.09C30.4306 19.058 30.4335 19.0243 30.4296 18.9911L30.3491 19.1468C30.332 19.1646 30.2936 19.1824 30.3263 19.2087C30.3591 19.235 30.3605 19.1909 30.374 19.1746V19.1774ZM29.5195 19.4213L29.5124 19.4106L29.5224 19.4191C29.5834 19.4823 29.6657 19.5206 29.7534 19.5268C29.8411 19.533 29.928 19.5065 29.9973 19.4526C29.8364 19.4542 29.6757 19.4427 29.5167 19.4184L29.5195 19.4213ZM27.7906 17.1625C27.844 17.4142 27.8789 17.6723 28.0163 17.9133C28.0035 17.6438 27.8782 17.4156 27.839 17.1682C27.8124 17.0037 27.7865 16.8395 27.7614 16.6755C27.7571 16.6492 27.7614 16.6101 27.7158 16.6243C27.6902 16.6328 27.7037 16.6606 27.708 16.6847C27.735 16.8404 27.7607 17.0004 27.7877 17.1597L27.7906 17.1625ZM29.5202 37.2057C29.9952 37.1196 30.4545 36.9881 30.8654 36.7236C30.3979 36.8252 29.9457 36.9873 29.5202 37.2057ZM35.6029 30.6021C35.7724 30.0746 36.0679 29.5861 36.1013 29.0173C35.9653 29.552 35.7788 30.0746 35.6029 30.5993V30.6021ZM32.1585 35.9835C32.5625 35.7425 32.9375 35.4562 33.2765 35.1303C33.2274 35.1303 33.2103 35.1303 33.2017 35.1353C32.8592 35.419 32.5331 35.7283 32.1585 35.9807V35.9835ZM28.2734 37.4901H27.1568C27.5285 37.6045 27.9024 37.5249 28.2734 37.4901ZM27.3477 12.0271C27.191 11.7498 26.9368 11.6496 26.6484 11.7633C26.9014 11.7803 27.144 11.8708 27.3462 12.0236L27.3477 12.0271ZM30.8938 17.8273C30.9395 17.6965 30.999 17.5709 31.0712 17.4526C31.0065 17.4883 30.9545 17.5432 30.9225 17.6097C30.8905 17.6762 30.8799 17.751 30.8924 17.8237L30.8938 17.8273ZM36.4382 29.948C36.4932 29.7962 36.5188 29.6352 36.5136 29.4738C36.4597 29.6248 36.4337 29.7842 36.4367 29.9445L36.4382 29.948ZM28.3852 18.9115C28.3858 18.8832 28.379 18.8552 28.3655 18.8303C28.352 18.8053 28.3323 18.7843 28.3083 18.7693C28.3082 18.7975 28.3152 18.8253 28.3286 18.8502C28.342 18.875 28.3615 18.8961 28.3852 18.9115ZM34.4429 20L34.4258 19.9787L34.4165 19.9858C34.4218 19.993 34.4275 19.9999 34.4336 20.0064C34.4336 20.0064 34.4393 20 34.4429 20ZM28.1957 18.5894L28.2121 18.5745C28.2064 18.5688 28.2014 18.5603 28.195 18.5582C28.1886 18.556 28.1701 18.5582 28.1751 18.5752C28.1801 18.5923 28.1886 18.5781 28.1957 18.5859V18.5894ZM28.2983 18.7444L28.2912 18.7203C28.2912 18.7203 28.2819 18.7274 28.2819 18.7302C28.2844 18.7369 28.2875 18.7433 28.2912 18.7494L28.2983 18.7444ZM21.1439 33.8883C21.1439 33.8883 21.1347 33.8939 21.1354 33.8961C21.1373 33.9019 21.1397 33.9076 21.1425 33.9131C21.1425 33.9131 21.1518 33.9074 21.1511 33.9053C21.1501 33.8978 21.1477 33.8906 21.1439 33.884V33.8883Z" fill="#181818"/>
<path d="M27.3042 37.7922C25.8943 37.7823 24.4046 37.2945 23.0395 36.4087C21.7321 35.5598 20.711 34.4357 19.8764 33.1311C19.4038 32.4053 18.995 31.64 18.6545 30.8438C18.2176 29.79 17.9131 28.6863 17.748 27.5577C17.4695 25.6884 17.5252 23.7845 17.9125 21.9346C18.3108 19.9247 19.0872 18.0084 20.2004 16.2873C21.0717 14.9455 22.1717 13.7664 23.4504 12.8035C24.1197 12.2913 24.8288 11.8332 25.571 11.4334C26.0561 11.1689 26.5991 11.0282 27.1518 11.0239C27.7621 11.0239 28.2 11.3325 28.3196 11.838C28.3637 12.0551 28.3725 12.2779 28.346 12.4978C28.2591 13.5138 28.1267 14.5269 28.1587 15.5493C28.1886 16.5041 28.3125 17.4391 28.791 18.2908C28.9257 18.5512 29.0932 18.7932 29.2895 19.011C29.3977 19.1304 29.5487 19.2024 29.7096 19.2115C29.8113 19.2237 29.9142 19.2025 30.0028 19.1512C30.0915 19.0999 30.161 19.0213 30.201 18.9272C30.2965 18.7061 30.3494 18.4689 30.3569 18.2283C30.3776 17.9645 30.3954 17.7007 30.4167 17.4369C30.4232 17.3609 30.4367 17.2848 30.4502 17.2087C30.5385 16.7181 31.0911 16.556 31.4243 16.6698C31.8096 16.8028 32.1236 17.0473 32.4462 17.2834C32.8991 17.614 33.2551 18.0363 33.6069 18.4636C33.9587 18.8909 34.3589 19.3168 34.6238 19.8251C35.2974 21.1177 35.9668 22.4117 36.3541 23.8272C36.5913 24.7352 36.7415 25.6636 36.8027 26.6C36.8681 27.4048 36.861 28.2138 36.7814 29.0173C36.6575 30.2047 36.3285 31.3259 35.7325 32.3646C34.8125 33.9679 33.6475 35.3507 32.0887 36.3753C30.6667 37.304 29.0034 37.7966 27.3042 37.7922ZM21.416 34.2039C21.4217 34.2174 21.4309 34.2288 21.4452 34.2181C21.4452 34.2181 21.4402 34.1968 21.4366 34.1854L21.4088 34.1549L21.3804 34.1264C21.3675 34.1186 21.3569 34.093 21.3398 34.1179C21.3398 34.1215 21.3512 34.1364 21.3576 34.1463L21.3875 34.1741L21.416 34.2039ZM34.1865 34.0994C34.1924 34.1024 34.1986 34.1048 34.205 34.1065C34.2122 34.093 34.21 34.0923 34.1994 34.1065C34.1994 34.1065 34.1915 34.103 34.188 34.1015L34.1702 34.1392L33.5392 34.7393C33.5524 34.7472 33.5678 34.7506 33.583 34.7491C33.5983 34.7475 33.6127 34.7411 33.624 34.7308C33.8378 34.5848 34.0236 34.4015 34.1723 34.1897C34.183 34.1748 34.2065 34.1499 34.168 34.1364C34.178 34.1364 34.1901 34.1641 34.1972 34.1364C34.2015 34.1243 34.1901 34.1115 34.1865 34.0994ZM34.319 19.8187C34.3126 19.8187 34.319 19.7874 34.299 19.8109L34.3211 19.8166C34.3211 19.8287 34.3126 19.8464 34.3382 19.8365L34.319 19.8187ZM34.3767 19.9062C34.3695 19.9062 34.3767 19.8763 34.3581 19.8955L34.3788 19.904C34.3785 19.9076 34.3785 19.9112 34.3788 19.9147C34.3788 19.9147 34.3831 19.9147 34.3845 19.919L34.3767 19.9062ZM23.063 13.779L23.0338 13.8081L23.0018 13.8337C22.9851 13.8422 22.9692 13.8519 22.9541 13.8629C22.3184 14.4087 21.7465 15.0245 21.2493 15.6986C19.8061 17.6989 18.8408 20.0025 18.4273 22.433C18.1435 23.9941 18.1721 25.596 18.5114 27.1461C18.7528 28.2353 19.1437 29.2705 19.613 30.2786C20.2161 31.5719 20.8947 32.8204 21.8204 33.9153C21.8375 33.9359 21.8653 33.9572 21.809 34.0098C20.3948 32.5509 19.4962 30.7777 18.6908 28.9455C18.7941 29.3515 18.8852 29.7617 19.034 30.1499C19.3196 30.8697 19.682 31.5567 20.115 32.199C20.7409 33.1517 21.4402 34.0432 22.3146 34.7841C22.6671 35.0827 23.0217 35.3849 23.4269 35.6081C24.4238 36.157 25.4841 36.516 26.6235 36.6163C27.5392 36.6966 28.4514 36.6959 29.3536 36.4833C29.9539 36.3411 30.5036 36.0759 31.0469 35.7979C31.8901 35.3678 32.5972 34.7528 33.2288 34.0674C34.3411 32.8615 35.1652 31.4195 35.6392 29.8499C35.9871 28.7575 36.1552 27.616 36.1369 26.4699C36.1191 25.7433 36.0401 25.0259 35.8044 24.3277C35.5908 23.6964 35.3807 23.0679 35.0845 22.47C35.0417 22.3839 35.0168 22.2894 34.9755 22.2033C34.581 21.3786 34.1702 20.5603 33.6389 19.8166C33.1305 19.1056 32.5829 18.4181 31.8452 17.9154C31.5867 17.7398 31.2855 17.8322 31.1872 18.1287C31.1452 18.2567 31.116 18.3882 31.079 18.5176C30.9679 18.9044 30.8917 19.2997 30.6802 19.6552C30.6167 19.775 30.5239 19.8768 30.4106 19.9514C30.2972 20.026 30.1668 20.0708 30.0315 20.0818C29.7146 20.1115 29.3954 20.0578 29.1058 19.9261C28.6985 19.7405 28.4001 19.4234 28.1623 19.0573C27.6204 18.224 27.3904 17.2933 27.3598 16.3108C27.3348 15.501 27.4274 14.6975 27.5114 13.8934C27.5449 13.5735 27.6061 13.2536 27.5826 12.9308C27.5257 12.2148 27.0265 11.8522 26.3165 11.9816C25.8708 12.0634 25.4976 12.2788 25.1366 12.5276C23.2645 13.8145 21.8019 15.4725 20.6718 17.4298C20.639 17.5086 20.5922 17.5809 20.5337 17.6431C20.4511 17.572 20.5081 17.508 20.5401 17.4476C20.7658 17.021 21.0115 16.5994 21.2721 16.1899C21.798 15.3671 22.3873 14.5865 23.0345 13.855L23.058 13.8273L23.0851 13.7982L23.1114 13.7747C23.1285 13.7562 23.1698 13.7377 23.1449 13.7136C23.12 13.6894 23.1065 13.7313 23.0951 13.7527L23.063 13.779ZM21.5014 34.2907C21.5057 34.2793 21.5149 34.2658 21.4907 34.2686L21.5036 34.2885C21.5106 34.2978 21.52 34.305 21.5308 34.3094C21.5415 34.3137 21.5533 34.3151 21.5648 34.3134V34.3184V34.3141C21.5491 34.2907 21.5306 34.2772 21.5014 34.2907ZM34.7227 20.4558L34.7149 20.433L34.7042 20.4451L34.7249 20.4536L34.7299 20.4934L34.7462 20.4863L34.7227 20.4558ZM34.5212 20.1365C34.5255 20.1529 34.5283 20.1699 34.5533 20.1628C34.5526 20.1855 34.5569 20.2081 34.566 20.2288C34.5752 20.2496 34.5888 20.2681 34.606 20.283C34.6252 20.3207 34.633 20.3662 34.6957 20.3939C34.6629 20.3441 34.6693 20.2858 34.6045 20.2844C34.6065 20.2615 34.6026 20.2385 34.5931 20.2176C34.5837 20.1967 34.5689 20.1786 34.5504 20.165C34.5461 20.15 34.5412 20.1337 34.5191 20.1387C34.5226 20.1131 34.5191 20.091 34.4927 20.0796C34.4927 20.0761 34.4885 20.0718 34.4856 20.0683C34.4833 20.0679 34.4808 20.0679 34.4785 20.0683L34.4949 20.0804C34.4934 20.1017 34.4934 20.1251 34.5212 20.1365ZM28.4243 18.9471C28.4172 18.9386 28.4096 18.9305 28.4015 18.9229C28.3816 18.9385 28.3944 18.952 28.4065 18.9648C28.4186 18.9776 28.4208 19.0068 28.4464 19.0118C28.45 19.0231 28.4528 19.0423 28.4678 19.0302C28.4827 19.0182 28.4678 19.0082 28.4549 19.0025C28.4562 18.9912 28.454 18.9799 28.4485 18.9699C28.443 18.96 28.4346 18.952 28.4243 18.9471ZM28.2406 18.6691L28.262 18.6954C28.2805 18.6797 28.2705 18.6648 28.262 18.6499C28.2534 18.6349 28.252 18.5951 28.2228 18.6143C28.1936 18.6335 28.22 18.6548 28.2406 18.6691ZM30.4737 18.8987C30.4531 18.9186 30.4345 18.9392 30.4637 18.9698C30.4673 18.9442 30.4702 18.9208 30.473 18.8987C30.4726 18.8952 30.4726 18.8916 30.473 18.888C30.473 18.888 30.478 18.888 30.4801 18.8838L30.4737 18.8987ZM20.419 33.0109C20.4077 33.023 20.397 33.023 20.3884 33.0109C20.3884 33.0109 20.3884 33.0031 20.3884 32.9995L20.4183 33.0159C20.3763 33.087 20.4575 33.1069 20.4789 33.1517C20.6015 33.3329 20.7405 33.5026 20.894 33.6586C20.944 33.7408 21.017 33.8065 21.1041 33.8477L20.9161 33.6387L20.4938 33.1346C20.4703 33.0891 20.4447 33.0479 20.419 33.0109ZM30.374 19.1774C30.3955 19.1518 30.4115 19.122 30.4211 19.09C30.4306 19.058 30.4335 19.0243 30.4296 18.9911L30.3491 19.1468C30.332 19.1646 30.2936 19.1824 30.3263 19.2087C30.3591 19.235 30.3605 19.1909 30.374 19.1746V19.1774ZM29.5195 19.4213L29.5124 19.4106L29.5224 19.4191C29.5834 19.4823 29.6657 19.5206 29.7534 19.5268C29.8411 19.533 29.928 19.5065 29.9973 19.4526C29.8364 19.4542 29.6757 19.4427 29.5167 19.4184L29.5195 19.4213ZM27.7906 17.1625C27.844 17.4142 27.8789 17.6723 28.0163 17.9133C28.0035 17.6438 27.8782 17.4156 27.839 17.1682C27.8124 17.0037 27.7865 16.8395 27.7614 16.6755C27.7571 16.6492 27.7614 16.6101 27.7158 16.6243C27.6902 16.6328 27.7037 16.6606 27.708 16.6847C27.735 16.8404 27.7607 17.0004 27.7877 17.1597L27.7906 17.1625ZM29.5202 37.2057C29.9952 37.1196 30.4545 36.9881 30.8654 36.7236C30.3979 36.8252 29.9457 36.9873 29.5202 37.2057ZM35.6029 30.6021C35.7724 30.0746 36.0679 29.5861 36.1013 29.0173C35.9653 29.552 35.7788 30.0746 35.6029 30.5993V30.6021ZM32.1585 35.9835C32.5625 35.7425 32.9375 35.4562 33.2765 35.1303C33.2274 35.1303 33.2103 35.1303 33.2017 35.1353C32.8592 35.419 32.5331 35.7283 32.1585 35.9807V35.9835ZM28.2734 37.4901H27.1568C27.5285 37.6045 27.9024 37.5249 28.2734 37.4901ZM27.3477 12.0271C27.191 11.7498 26.9368 11.6496 26.6484 11.7633C26.9014 11.7803 27.144 11.8708 27.3462 12.0236L27.3477 12.0271ZM30.8938 17.8273C30.9395 17.6965 30.999 17.5709 31.0712 17.4526C31.0065 17.4883 30.9545 17.5432 30.9225 17.6097C30.8905 17.6762 30.8799 17.751 30.8924 17.8237L30.8938 17.8273ZM36.4382 29.948C36.4932 29.7962 36.5188 29.6352 36.5136 29.4738C36.4597 29.6248 36.4337 29.7842 36.4367 29.9445L36.4382 29.948ZM28.3852 18.9115C28.3858 18.8832 28.379 18.8552 28.3655 18.8303C28.352 18.8053 28.3323 18.7843 28.3083 18.7693C28.3082 18.7975 28.3152 18.8253 28.3286 18.8502C28.342 18.875 28.3615 18.8961 28.3852 18.9115ZM34.4429 20L34.4258 19.9787L34.4165 19.9858C34.4218 19.993 34.4275 19.9999 34.4336 20.0064C34.4336 20.0064 34.4393 20 34.4429 20ZM28.1957 18.5894L28.2121 18.5745C28.2064 18.5688 28.2014 18.5603 28.195 18.5582C28.1886 18.556 28.1701 18.5582 28.1751 18.5752C28.1801 18.5923 28.1886 18.5781 28.1957 18.5859V18.5894ZM28.2983 18.7444L28.2912 18.7203C28.2912 18.7203 28.2819 18.7274 28.2819 18.7302C28.2844 18.7369 28.2875 18.7433 28.2912 18.7494L28.2983 18.7444ZM21.1439 33.8883C21.1439 33.8883 21.1347 33.8939 21.1354 33.8961C21.1373 33.9019 21.1397 33.9076 21.1425 33.9131C21.1425 33.9131 21.1518 33.9074 21.1511 33.9053C21.1501 33.8978 21.1477 33.8906 21.1439 33.884V33.8883Z" stroke="#F8F2EA" mask="url(#path-69-outside-1_2246_630)"/>
<path d="M23.1151 13.7397C22.4762 14.4765 21.8946 15.263 21.3755 16.0919C21.1182 16.5044 20.8758 16.9263 20.6529 17.359C20.6213 17.4198 20.5651 17.4836 20.6466 17.5559C20.7044 17.4932 20.7506 17.4204 20.783 17.341C21.8984 15.3692 23.3421 13.701 25.1843 12.4031C25.5407 12.1524 25.909 11.9354 26.3489 11.853C27.0518 11.7226 27.5438 12.0879 27.5986 12.8092C27.6246 13.1358 27.5642 13.4539 27.5284 13.779C27.4454 14.5884 27.354 15.3978 27.3786 16.2144C27.4089 17.2042 27.6359 18.1418 28.1708 18.9813C28.4055 19.3502 28.7 19.6696 29.1021 19.8566C29.388 19.9893 29.703 20.0434 30.0158 20.0134C30.1493 20.0024 30.278 19.9572 30.3899 19.8821C30.5018 19.807 30.5934 19.7043 30.6561 19.5837C30.867 19.2255 30.9372 18.8266 31.0497 18.4376C31.0862 18.3073 31.1151 18.1748 31.1565 18.0459C31.2535 17.7443 31.5508 17.6512 31.806 17.831C32.5341 18.3374 33.0711 19.0286 33.5765 19.7463C34.1008 20.4955 34.5064 21.3221 34.8958 22.1508C34.9365 22.2374 34.9611 22.3327 35.0033 22.4194C35.2957 23.0218 35.5044 23.6549 35.7139 24.291C35.9465 24.9944 36.0246 25.7171 36.0421 26.4491C36.0611 27.6038 35.8961 28.7541 35.5536 29.8549C35.0858 31.4363 34.2724 32.889 33.1745 34.1038C32.551 34.7943 31.8531 35.4139 31.0209 35.8472C30.4846 36.1273 29.942 36.3952 29.3495 36.5377C28.4589 36.7526 27.5586 36.7526 26.6547 36.6717C25.5301 36.5707 24.4828 36.209 23.4995 35.656C23.0996 35.4311 22.7496 35.1267 22.4017 34.8258C21.5386 34.0795 20.8483 33.1784 20.2305 32.2215C19.804 31.5736 19.4473 30.8808 19.1664 30.1551C19.0195 29.764 18.9295 29.3507 18.8276 28.9417C19.6225 30.7875 20.5096 32.5739 21.9054 34.0437C21.961 33.9907 21.9336 33.972 21.9167 33.9484C20.9988 32.8454 20.3303 31.5847 19.7378 30.2847C19.2746 29.269 18.8888 28.2262 18.6505 27.1288C18.3156 25.5672 18.2874 23.9535 18.5676 22.3807C18.9756 19.9322 19.9284 17.6114 21.353 15.5962C21.8437 14.9171 22.4082 14.2967 23.0357 13.7468C23.0506 13.7358 23.0663 13.726 23.0827 13.7174L23.1151 13.7397ZM24.9643 19.3022C24.5584 19.304 24.1547 19.3628 23.7645 19.477C22.986 19.7118 22.276 20.1378 21.6967 20.7175C20.5721 21.8091 20.1075 23.1385 20.3163 24.7007C20.4604 25.7794 20.9489 26.6933 21.7255 27.4383C23.1052 28.7662 24.7078 29.2082 26.5458 28.6502C26.6427 28.6208 26.6666 28.6502 26.6997 28.7268C26.8374 29.0406 26.978 29.3528 27.1214 29.6637C27.6683 30.8823 28.2892 32.065 28.9805 33.2049C29.2088 33.5805 29.4918 33.9186 29.8197 34.2077C29.951 34.3276 30.1031 34.4216 30.2681 34.4849C30.7411 34.6561 31.0947 34.4921 31.2584 34.0301C31.3126 33.8782 31.276 33.7328 31.2374 33.5881C31.0884 33.0251 30.7939 32.5338 30.5022 32.0396C29.6953 30.6708 28.7696 29.3772 28.0112 27.9769C27.9698 27.8995 27.9613 27.8601 28.0372 27.8014C28.1866 27.6815 28.3241 27.5469 28.4477 27.3996C29.1084 26.6446 29.4725 25.7579 29.5835 24.7573C29.7065 23.6471 29.5554 22.582 28.9826 21.6215C28.0717 20.0894 26.6926 19.3702 24.9643 19.3022Z" fill="#F8F2EA"/>
<path d="M29.6195 37.2569C30.0429 37.0143 30.4928 36.8343 30.9579 36.7215C30.5491 37.0121 30.0921 37.1582 29.6195 37.2569Z" fill="#F8F2EA"/>
<path d="M35.7762 30.5648C35.8707 30.0331 35.9709 29.5035 36.0439 28.9587C36.0259 29.5352 35.8672 30.0302 35.7762 30.5648Z" fill="#F8F2EA"/>
<path d="M32.2964 35.9184C32.6551 35.681 32.9675 35.3902 33.2955 35.12C33.3037 35.1133 33.3201 35.12 33.3671 35.1154C33.0425 35.4221 32.6833 35.6915 32.2964 35.9184Z" fill="#F8F2EA"/>
<path d="M27.4779 12.0946C27.2456 11.9613 26.9664 11.8821 26.6748 11.8668C27.0093 11.7685 27.298 11.8551 27.4779 12.0946Z" fill="#F8F2EA"/>
<path d="M34.1521 34.0447C34.1844 34.0633 34.165 34.0958 34.1562 34.1154C34.0337 34.3925 33.8807 34.6323 33.7045 34.8233C33.6952 34.8368 33.6834 34.8452 33.6708 34.8473C33.6582 34.8493 33.6455 34.8448 33.6347 34.8345L34.1551 34.0493L34.1521 34.0447Z" fill="#F8F2EA"/>
<path d="M20.5364 33.2416L21.0535 33.7567L21.0264 33.777C20.8384 33.6176 20.6683 33.4442 20.5181 33.2591L20.5364 33.2416Z" fill="#F8F2EA"/>
<path d="M28.0137 17.1806L27.9201 17.1751C27.8678 17.0192 27.8182 16.8626 27.7604 16.7074C27.7521 16.6837 27.7259 16.6566 27.7755 16.6482C27.8581 16.6343 27.8554 16.6726 27.8636 16.6983C27.9132 16.8593 27.9633 17.0201 28.0137 17.1806Z" fill="#8B8B8B"/>
<path d="M30.9662 17.9837C30.9466 17.8792 30.9611 17.7713 31.0076 17.6753C31.0541 17.5793 31.1303 17.4999 31.2254 17.4483C31.1199 17.6173 31.033 17.7968 30.9662 17.9837Z" fill="#F8F2EA"/>
<path d="M21.0816 33.5093L21.3206 33.7764C21.2099 33.7238 21.1171 33.6398 21.0535 33.5348L21.0816 33.5093Z" fill="#F8F2EA"/>
<path d="M21.4399 34.0447L21.5882 34.2041C21.5477 34.2357 21.5105 34.2718 21.477 34.3118L21.3212 34.1563L21.4399 34.0447Z" fill="#8B8B8B"/>
<path d="M21.476 34.3118L21.3212 34.1492C21.3561 34.1104 21.395 34.0754 21.4373 34.0447L21.5882 34.2111C21.5481 34.2415 21.5106 34.2752 21.476 34.3118Z" fill="#8B8B8B"/>
<path d="M24.9292 19.3221C26.6507 19.3903 28.0243 20.1108 28.9316 21.6385C29.5021 22.5999 29.6527 23.666 29.5301 24.7772C29.4195 25.7809 29.0569 26.6663 28.3988 27.422C28.2757 27.5694 28.1388 27.7042 27.99 27.8242C27.9144 27.883 27.92 27.9224 27.9641 27.9998C28.7195 29.4014 29.6443 30.6962 30.4452 32.0662C30.7357 32.5609 31.029 33.0527 31.1774 33.6162C31.2159 33.7596 31.2523 33.9066 31.1984 34.0586C31.0353 34.521 30.6832 34.6852 30.212 34.5138C30.0476 34.4505 29.8962 34.3564 29.7654 34.2364C29.4388 33.947 29.157 33.6086 28.9295 33.2327C28.2409 32.0917 27.6225 30.908 27.0778 29.6882C26.9378 29.377 26.7977 29.0645 26.6577 28.7505C26.6248 28.6788 26.601 28.6443 26.5044 28.6737C24.6737 29.2322 23.0775 28.7899 21.7033 27.4607C20.9332 26.7151 20.4431 25.8003 20.2996 24.7206C20.0896 23.157 20.5565 21.8264 21.6746 20.7338C22.2515 20.1548 22.9582 19.7294 23.7328 19.4949C24.122 19.3813 24.5246 19.3231 24.9292 19.3221ZM28.1496 31.4167C28.1531 31.4339 28.1538 31.4554 28.1811 31.4425C28.1775 31.4481 28.1751 31.4545 28.174 31.4611C28.173 31.4678 28.1734 31.4746 28.1752 31.481C28.177 31.4875 28.1802 31.4935 28.1845 31.4986C28.1887 31.5037 28.194 31.5078 28.2 31.5106C28.2047 31.5549 28.2261 31.5955 28.2595 31.6239L28.2805 31.6504C28.2987 31.6332 28.2875 31.621 28.2742 31.6088C28.2673 31.5655 28.2445 31.5265 28.2105 31.4999C28.2105 31.4755 28.207 31.4526 28.1783 31.4454L28.1587 31.406L28.1342 31.3895C28.13 31.4052 28.1384 31.4124 28.1517 31.4167H28.1496ZM27.9809 31.0941L27.9886 31.1185L28.0005 31.1056L27.9795 31.0962L27.9669 31.0461C27.9634 31.0461 27.9564 31.0504 27.9557 31.0539C27.9543 31.0747 27.9592 31.0912 27.983 31.0941H27.9809ZM22.3354 27.4012C22.3315 27.3936 22.3254 27.3873 22.3179 27.3833C22.2808 27.3446 22.2514 27.2958 22.1961 27.2786L22.1562 27.2463C22.1366 27.2198 22.1191 27.1911 22.0974 27.166C20.9157 25.7874 20.5481 24.2266 21.1124 22.4666C21.1236 22.4336 21.1523 22.4006 21.1166 22.3648C21.0823 22.377 21.0795 22.4092 21.0683 22.4365C20.7498 23.1771 20.6209 23.942 20.7568 24.7493C20.9112 25.7301 21.4004 26.6231 22.1373 27.2693L22.1772 27.2994C22.1884 27.3603 22.2472 27.3711 22.2836 27.4091L22.3158 27.4342L22.3648 27.4736C22.3774 27.4851 22.3914 27.498 22.404 27.4736C22.404 27.4736 22.3921 27.4564 22.3858 27.4471L22.3354 27.4012ZM28.6662 32.3143L28.6445 32.2871C28.6256 32.3043 28.6382 32.3172 28.6501 32.3308C28.6621 32.3444 28.6565 32.3846 28.6852 32.3652C28.7139 32.3458 28.6887 32.3265 28.6684 32.3143H28.6662ZM28.0929 31.3006C28.0929 31.2898 28.102 31.2662 28.0747 31.2826L28.095 31.2977L28.1097 31.345C28.1097 31.345 28.1181 31.3393 28.1188 31.3357C28.123 31.3156 28.1195 31.2998 28.095 31.3006H28.0929ZM28.438 31.9071L28.4205 31.8806C28.417 31.8806 28.4114 31.8877 28.4121 31.8892C28.4128 31.8906 28.4226 31.9085 28.4282 31.9178C28.4337 31.9619 28.4546 32.0024 28.487 32.0318L28.5087 32.0584C28.5269 32.0426 28.5171 32.0275 28.5087 32.0125C28.4955 31.9717 28.4718 31.9353 28.4401 31.9071H28.438ZM28.5528 32.11L28.5304 32.082C28.5108 32.0985 28.522 32.1136 28.5304 32.1286C28.5499 32.1902 28.5891 32.2433 28.6417 32.2792C28.6259 32.2167 28.5962 32.1588 28.5549 32.11H28.5528ZM28.9484 32.7825C28.9428 32.7538 28.9176 32.7437 28.9043 32.7617C28.891 32.7796 28.9239 32.7868 28.9344 32.8004C29.0947 33.0692 29.2564 33.3359 29.4405 33.589L29.4776 33.6227C29.4813 33.6184 29.4838 33.6132 29.4849 33.6077C29.4861 33.6021 29.4858 33.5963 29.4842 33.5909C29.4826 33.5855 29.4797 33.5805 29.4757 33.5766C29.4718 33.5726 29.4669 33.5697 29.4615 33.5682C29.3163 33.2903 29.1452 33.0273 28.9505 32.7832L28.9484 32.7825ZM27.1807 29.5713C27.263 29.781 27.3611 29.9837 27.474 30.1779L27.5097 30.1592L27.2115 29.557C27.0715 29.2623 26.9315 28.9677 26.7837 28.6737C26.769 28.6443 26.7578 28.5813 26.7095 28.6107C26.6612 28.64 26.7151 28.6766 26.7298 28.7046C26.8782 28.9928 27.0302 29.2817 27.1807 29.5713ZM21.0445 23.9413C21.0406 24.1112 21.0498 24.2812 21.0718 24.4496C21.293 26.0168 22.0582 27.1983 23.4591 27.9009C24.1239 28.2321 24.8724 28.345 25.6023 28.2242C26.3321 28.1035 27.0078 27.755 27.537 27.2263C28.1777 26.5798 28.5979 25.7391 28.7354 24.8288C28.8728 23.9185 28.7202 22.9871 28.3001 22.1726C27.9447 21.4688 27.3934 20.8888 26.716 20.5059C26.0385 20.1231 25.2654 19.9546 24.4945 20.0219C22.7065 20.1875 21.0151 21.7669 21.0445 23.9413ZM26.9952 28.4916C27.0008 28.5049 27.0071 28.5178 27.0141 28.5304C28.0264 30.1549 28.8721 31.8806 29.9047 33.4922C29.9864 33.6239 30.1154 33.7174 30.2638 33.7525C30.4466 33.7991 30.5586 33.7159 30.5705 33.5223C30.5826 33.3518 30.5466 33.1814 30.4669 33.0312C30.3597 32.8319 30.2533 32.6326 30.1357 32.4398C29.2823 31.0382 28.3323 29.7004 27.5552 28.2522C27.5328 28.2106 27.5139 28.1855 27.4607 28.2185C27.306 28.3131 27.1492 28.4006 26.9952 28.4916ZM29.0051 24.5342C29.1612 23.8345 28.9813 22.4781 28.2476 21.4607C27.8472 20.9051 27.3529 20.4807 26.7235 20.2305C28.2385 21.0808 29.1157 22.729 29.003 24.5342H29.0051ZM30.7343 33.7496C30.6321 33.9475 30.4543 33.9553 30.2778 33.9568C30.4375 34.0062 30.5992 34.0622 30.7469 33.9432C30.8036 33.8951 30.7679 33.8198 30.7322 33.7496H30.7343ZM27.6581 30.5277L27.6903 30.5041C27.6616 30.4567 27.6539 30.3944 27.5762 30.38L27.6581 30.5277ZM28.3505 31.7314C28.3435 31.7368 28.337 31.7428 28.3309 31.7494C28.3407 31.7637 28.3512 31.778 28.3624 31.7917C28.3673 31.7866 28.3778 31.7795 28.3771 31.778C28.3673 31.7623 28.3582 31.7479 28.3484 31.7314H28.3505ZM28.0334 31.1636C28.0334 31.1636 28.0271 31.1586 28.0257 31.1593C28.0225 31.1616 28.0197 31.1642 28.0173 31.1672L28.0327 31.1722L28.0334 31.1636ZM28.0649 31.2267L28.0565 31.2153C28.0565 31.2188 28.0481 31.2217 28.0474 31.2253C28.0467 31.2289 28.0523 31.2332 28.0558 31.2368L28.0649 31.2267ZM28.3183 31.6877C28.3183 31.6877 28.312 31.682 28.3106 31.6827C28.3092 31.6834 28.3043 31.6884 28.3008 31.6913L28.3183 31.697V31.6877ZM28.403 31.8311C28.403 31.8311 28.396 31.8254 28.3946 31.8268C28.3932 31.8282 28.3883 31.8325 28.3848 31.8361L28.403 31.8411V31.8311ZM27.5132 30.1922C27.5132 30.1958 27.5041 30.1994 27.5041 30.2022C27.5063 30.2091 27.5093 30.2156 27.5132 30.2216C27.5167 30.2216 27.5223 30.2144 27.5223 30.2116C27.5202 30.2047 27.5171 30.1982 27.5132 30.1922ZM27.5377 30.2754L27.5559 30.2653C27.5524 30.2617 27.5489 30.2553 27.5468 30.256C27.5399 30.258 27.5332 30.2612 27.5272 30.2653L27.5377 30.2754ZM27.5601 30.3277L27.5706 30.3377C27.5741 30.3316 27.5769 30.3251 27.579 30.3184C27.579 30.3184 27.5734 30.3119 27.5699 30.3091L27.5601 30.3277Z" fill="#181818"/>
<path d="M21.0543 23.9499C21.0283 21.8362 22.7242 20.3009 24.517 20.1392C25.29 20.0738 26.0652 20.2375 26.7444 20.6097C27.4237 20.9819 27.9764 21.5457 28.3328 22.2299C28.7529 23.0217 28.905 23.9268 28.7665 24.8111C28.6281 25.6954 28.2065 26.5119 27.5641 27.1398C27.0335 27.6537 26.356 27.9925 25.6242 28.1099C24.8924 28.2272 24.1419 28.1175 23.4753 27.7956C22.0714 27.1126 21.3035 25.964 21.0817 24.4406C21.0598 24.278 21.0506 24.1139 21.0543 23.9499ZM25.1509 20.9866C24.8829 20.9885 24.6155 21.0118 24.3513 21.0563C23.078 21.2187 22.0349 22.301 21.9401 23.5652C21.8608 24.6441 22.1936 25.5863 22.958 26.3578C23.7224 27.1293 24.6525 27.4534 25.7349 27.2199C26.554 27.0394 27.1612 26.5467 27.6063 25.8546C28.0653 25.1389 28.2984 24.3632 28.1678 23.5151C27.9264 22.0013 26.7099 20.9866 25.1473 20.9866H25.1509Z" fill="#F8F2EA"/>
<path d="M26.9426 28.4471C27.1062 28.355 27.2704 28.2666 27.431 28.171C27.4868 28.1377 27.5044 28.163 27.53 28.205C28.3455 29.6687 29.3406 31.0208 30.2324 32.4374C30.3556 32.6324 30.4671 32.8338 30.5793 33.0352C30.6628 33.187 30.7005 33.3593 30.6878 33.5316C30.6753 33.7272 30.558 33.8113 30.3666 33.7642C30.2111 33.7288 30.0759 33.6343 29.9904 33.5012C28.9087 31.8723 28.0228 30.1281 26.9624 28.4862C26.9551 28.4735 26.9485 28.4605 26.9426 28.4471Z" fill="#F8F2EA"/>
<path d="M22.1068 27.085C21.428 26.4501 20.9774 25.5729 20.8352 24.6093C20.7101 23.8183 20.8287 23.0647 21.1221 22.3371C21.1325 22.3124 21.135 22.2807 21.1666 22.2667C21.1995 22.3019 21.1731 22.3371 21.1628 22.3667C20.643 24.0986 20.9816 25.6291 22.07 26.9835C22.09 27.0082 22.1062 27.0364 22.1242 27.0624L22.1068 27.085Z" fill="#F8F2EA"/>
<path d="M29.0304 24.6758C29.1467 22.8784 28.2411 21.2373 26.6748 20.3928C27.3253 20.6419 27.8313 21.0645 28.2483 21.6177C29.0058 22.6285 29.1915 23.9791 29.0304 24.6758Z" fill="#F8F2EA"/>
<path d="M27.1786 29.4941C27.0243 29.2571 26.8686 29.0159 26.7165 28.7754C26.7014 28.7523 26.6447 28.7232 26.6957 28.6978C26.7466 28.6723 26.7567 28.7256 26.7717 28.7499C26.9196 28.9928 27.0645 29.2364 27.2102 29.4799L27.1786 29.4941Z" fill="#F8F2EA"/>
<path d="M29.5876 33.5093C29.3071 33.2581 29.0608 32.9925 28.8166 32.7241L28.8379 32.7063C29.1356 32.9493 29.3974 33.2111 29.6196 33.4879L29.5876 33.5093Z" fill="#F8F2EA"/>
<path d="M27.2353 29.4941L27.4779 30.0135L27.4488 30.0295C27.357 29.8629 27.2772 29.6888 27.2102 29.5089L27.2353 29.4941Z" fill="#8B8B8B"/>
<path d="M27.6697 30.5643L27.478 30.2972C27.6599 30.3231 27.6779 30.4359 27.7451 30.5215L27.6697 30.5643Z" fill="#8B8B8B"/>
<path d="M28.5974 31.9033C28.7 31.9796 28.7748 32.0711 28.8157 32.1703C28.6894 32.1137 28.5953 32.0299 28.5486 31.9327C28.5661 31.9238 28.5824 31.914 28.5974 31.9033Z" fill="#8B8B8B"/>
<path d="M22.3109 27.6197L22.124 27.4698L22.1988 27.3527L22.3911 27.5298L22.3109 27.6197Z" fill="#8B8B8B"/>
<path d="M28.2804 31.3348L28.0133 31.1643C28.3725 30.9777 28.2343 31.2455 28.2527 31.3672L28.2804 31.3348Z" fill="#8B8B8B"/>
<path d="M28.4095 31.3679C28.5259 31.4461 28.624 31.5244 28.4646 31.6349L28.2808 31.4646L28.4095 31.3679Z" fill="#8B8B8B"/>
<path d="M25.1546 20.9282C26.753 20.9282 27.9974 21.9618 28.2423 23.5002C28.3794 24.3641 28.141 25.1543 27.6678 25.8833C27.2097 26.5932 26.5907 27.0966 25.7499 27.2769C24.6426 27.5147 23.6912 27.1839 22.9092 26.3987C22.1272 25.6136 21.7869 24.6531 21.868 23.5541C21.9635 22.2649 23.032 21.1624 24.3346 20.9984C24.6055 20.9532 24.8798 20.9297 25.1546 20.9282ZM23.521 22.064L23.9016 21.8212L23.8772 21.7872C23.7358 21.8471 23.6081 21.9345 23.5016 22.0441L23.4298 22.096C23.2802 22.2103 23.1434 22.3403 23.0219 22.4836C22.6787 22.8726 22.5373 23.3355 22.4963 23.8416C22.4799 23.9131 22.4799 23.9874 22.4963 24.0589C22.5078 23.9815 22.5531 23.9169 22.5329 23.8459C22.633 23.1859 22.9565 22.579 23.4506 22.1244L23.521 22.064ZM24.29 21.6494C24.5603 21.5504 24.847 21.5022 25.1352 21.5074C25.5985 21.5227 26.0503 21.6544 26.4478 21.8901C27.3641 22.5162 27.7877 23.3852 27.7439 24.5132C27.9888 23.3064 27.4387 22.3686 26.4859 21.8496C26.0784 21.6027 25.6103 21.4706 25.1323 21.4677C24.8462 21.455 24.5605 21.5017 24.2936 21.6047C24.1539 21.6428 24.0206 21.7009 23.898 21.7772L23.9159 21.8148L24.29 21.6494ZM25.0713 21.8198C24.8965 21.8143 24.7219 21.8339 24.5529 21.878C23.9916 22.033 23.5011 22.3736 23.1632 22.843C22.8252 23.3124 22.6603 23.8821 22.6959 24.4571C22.7369 25.0882 22.9602 25.6491 23.4535 26.0715C23.8332 26.3951 24.3028 26.598 24.801 26.6537C25.2992 26.7094 25.8028 26.6154 26.246 26.3838C26.6137 26.1921 26.9641 25.9742 27.1968 25.6228C27.5331 25.1135 27.6521 24.4934 27.5278 23.8977C27.3145 22.7555 26.338 21.817 25.0713 21.8226V21.8198Z" fill="#181818"/>
<path d="M25.0077 21.7322C26.2572 21.7265 27.2205 22.6593 27.4308 23.7932C27.5535 24.3853 27.4361 25.0016 27.1043 25.5078C26.8777 25.857 26.5292 26.0722 26.1665 26.2642C25.7297 26.4949 25.2332 26.5891 24.7418 26.5344C24.2504 26.4798 23.787 26.2789 23.4119 25.9579C22.9253 25.5381 22.7036 24.9807 22.6647 24.3534C22.6295 23.7819 22.7922 23.2156 23.1255 22.7491C23.4589 22.2826 23.9427 21.9441 24.4963 21.79C24.6631 21.7462 24.8354 21.7267 25.0077 21.7322Z" fill="#F8F2EA"/>
<path d="M26.4459 21.7313C27.3871 22.3049 27.9304 23.3432 27.6885 24.6758C27.7318 23.4288 27.3133 22.4682 26.4076 21.776C26.4062 21.7454 26.4218 21.7344 26.4459 21.7313Z" fill="#F8F2EA"/>
<path d="M23.463 22.0256C23.0482 22.5139 22.7769 23.165 22.6932 23.8727H22.66C22.6944 23.3325 22.8135 22.8326 23.1023 22.415C23.2045 22.2612 23.3196 22.1217 23.4455 21.999L23.463 22.0256Z" fill="#F8F2EA"/>
<path d="M26.4075 21.7058C26.3833 21.7058 26.3677 21.7138 26.3691 21.7312C25.9755 21.5827 25.528 21.4999 25.0691 21.4907V21.4635C25.542 21.466 26.0049 21.5498 26.4075 21.7058Z" fill="#8B8B8B"/>
<path d="M25.0694 21.4664V21.5283C24.7955 21.5209 24.5232 21.5897 24.2663 21.7312L24.2704 21.6632C24.5245 21.5152 24.7967 21.4482 25.0694 21.4664Z" fill="#F8F2EA"/>
<path d="M23.4628 21.9797C23.6054 21.8737 23.7763 21.7892 23.9655 21.7313L23.9982 21.7642L23.4888 21.9989C23.4819 21.9914 23.4731 21.9849 23.4628 21.9797Z" fill="#8B8B8B"/>
<path d="M23.7299 22.0663L23.5228 22.266L23.4628 22.1746L23.6698 21.999C23.6936 22.0164 23.714 22.0394 23.7299 22.0663Z" fill="#F8F2EA"/>
</svg>
