<svg width="23" height="23" viewBox="0 0 23 23" fill="none" xmlns="http://www.w3.org/2000/svg">
    <g clip-path="url(#clip0_14_42632)">
    <path d="M6.83484 18.2176L15.7605 18.2176C16.0737 18.2176 16.3086 17.9827 16.3086 17.6696L16.3086 11.0144L18.5008 11.0144C18.7357 11.0144 18.9315 10.897 18.9706 10.7013C19.0881 10.5055 19.088 10.2706 18.9315 10.1141L11.7283 0.718613C11.6108 0.601189 11.4542 0.522877 11.2976 0.522877C11.141 0.522877 11.0236 0.562033 10.9062 0.679501L10.867 0.718634L3.62472 10.1532C3.46812 10.3098 3.46809 10.5447 3.58558 10.7405C3.70307 10.9362 3.89877 11.0536 4.05534 11.0536L6.32588 11.0536L6.32588 17.7088C6.32588 17.9436 6.56075 18.1785 6.83484 18.2176ZM7.42203 10.4273C7.42205 10.1141 7.18716 9.87919 6.87396 9.87919L5.22971 9.87918L11.3368 1.89303L17.4438 9.87916L15.7996 9.87914C15.4864 9.87916 15.2516 10.114 15.2515 10.4272L15.2516 17.0823H7.50036L7.42203 10.4273Z" fill="white"/>
    </g>
    <defs>
    <clipPath id="clip0_14_42632">
    <rect width="16" height="16" fill="white" transform="translate(22.626 11.587) rotate(135)"/>
    </clipPath>
    </defs>
    </svg>
    