<svg width="46" height="46" viewBox="0 0 46 46" fill="none" xmlns="http://www.w3.org/2000/svg">
<path d="M0 22.8454C0.084126 17.0441 2.02948 11.9362 5.96582 7.61536C9.17401 4.09451 13.1446 1.83299 17.7629 0.682581C19.1874 0.327843 20.6351 0.12182 22.1014 0.0389372C25.1332 -0.132985 28.0838 0.261063 30.9451 1.28786C33.8733 2.33881 36.4608 3.94011 38.7193 6.07138C40.6414 7.88485 42.14 10.0029 43.3577 12.3397C44.6115 14.7466 45.4261 17.2804 45.7916 19.9644C45.9556 21.1679 46.0293 22.3765 45.9893 23.589C45.8045 29.234 43.8353 34.1748 39.9955 38.3336C36.7421 41.8568 32.7388 44.1207 28.0391 45.1428C26.6912 45.4359 25.3271 45.6197 23.946 45.65C17.7715 45.7859 12.3271 43.8649 7.68446 39.8051C3.99765 36.5807 1.65828 32.5318 0.564167 27.7701C0.224811 26.2943 0.0427759 24.7967 0.0218633 23.2811C0.0199621 23.1438 0.00855519 23.0069 0.000475288 22.8459L0 22.8454Z" fill="#181818"/>
<path d="M24.1785 43.3857C20.9874 43.4435 18.0112 42.9206 15.1571 41.7569C13.1095 40.9224 11.1965 39.8535 9.53156 38.3862C6.79438 35.9746 4.79294 33.0571 3.532 29.6381C2.98114 28.1452 2.61232 26.6074 2.41603 25.0303C2.22211 23.4759 2.16365 21.9148 2.37705 20.3609C2.66413 18.2713 3.27915 16.2722 4.19836 14.3701C6.01111 10.6191 8.68555 7.62205 12.2112 5.39795C14.5459 3.92548 17.0867 2.9451 19.8101 2.44828C21.1509 2.20342 22.5031 2.08833 23.8653 2.10112C25.9756 2.12101 28.0483 2.41181 30.0521 3.07582C31.4476 3.53807 32.747 4.21913 33.9771 5.02238C37.969 7.62963 40.8003 11.1808 42.5802 15.5764C43.3526 17.4837 43.8336 19.4648 44.0261 21.5146C44.1192 22.5045 44.1715 23.4967 44.0879 24.488C43.9885 25.6654 43.7509 26.8205 43.4291 27.9577C42.4738 31.3293 40.7865 34.2918 38.382 36.8441C35.8682 39.5125 32.8634 41.4316 29.3805 42.5905C28.3344 42.9386 27.2432 43.111 26.1481 43.2427C25.457 43.3255 24.7631 43.3625 24.1785 43.3862V43.3857Z" fill="#F8F2EA"/>
<path d="M23.9006 40.9961C21.0058 41.0479 18.3058 40.5794 15.7166 39.5366C13.8591 38.7888 12.1236 37.8309 10.6133 36.5161C8.13014 34.355 6.31449 31.7406 5.17059 28.6768C4.67086 27.3391 4.33628 25.961 4.1582 24.5478C3.98228 23.1549 3.92925 21.756 4.12285 20.3635C4.38327 18.491 4.94121 16.6996 5.77509 14.9952C7.41958 11.6339 9.84577 8.94819 13.0442 6.95517C15.1621 5.63568 17.4671 4.75716 19.9377 4.31195C21.1541 4.09253 22.3808 3.9894 23.6165 4.00086C25.5309 4.01868 27.4112 4.27927 29.229 4.87429C30.495 5.28852 31.6738 5.89882 32.7896 6.61861C36.411 8.95498 38.9795 12.1372 40.5943 16.0761C41.2949 17.7852 41.7313 19.5605 41.9059 21.3974C41.9904 22.2844 42.0378 23.1735 41.9619 24.0618C41.8718 25.1169 41.6562 26.152 41.3643 27.171C40.4977 30.1924 38.967 32.8471 36.7857 35.1342C34.5053 37.5253 31.7794 39.245 28.6198 40.2836C27.6708 40.5955 26.6808 40.75 25.6874 40.868C25.0605 40.9422 24.431 40.9753 23.9006 40.9966V40.9961Z" fill="#181818"/>
<path d="M6.38976 9.04806C6.87503 8.31964 7.42398 7.63953 8.01049 6.99162C8.33606 6.63215 8.72342 6.33377 9.12219 6.00745C8.25907 7.0906 7.3218 8.06957 6.43016 9.08831C6.39499 9.09637 6.37645 9.08831 6.38976 9.04806Z" fill="#F8F2EA"/>
<path d="M36.8356 6.71934C37.8865 7.57232 38.8404 8.52144 39.6874 9.57619C39.6945 9.61076 39.6845 9.62828 39.646 9.6155C38.7406 8.61901 37.7662 7.69072 36.791 6.76338C36.7843 6.72739 36.7967 6.70987 36.8352 6.71934H36.8356Z" fill="#F8F2EA"/>
<path d="M45.476 21.426C45.5906 22.3117 45.6505 23.1997 45.5635 24.0911C45.5312 24.4254 45.4799 24.7579 45.4371 25.0913C45.3377 25.0449 45.4038 24.9687 45.4029 24.9043C45.4556 24.0764 45.5041 23.2485 45.4756 22.4183C45.4646 22.1005 45.4504 21.7827 45.4371 21.4649C45.4242 21.4265 45.4409 21.417 45.476 21.4256V21.426Z" fill="#F8F2EA"/>
<path d="M25.7463 44.0629C25.2582 44.1258 24.7705 44.1907 24.2819 44.2514C23.8228 44.3087 23.3622 44.3565 22.9036 44.42C22.7824 44.437 22.6669 44.4181 22.549 44.4152C22.5143 44.4143 22.4492 44.4451 22.4573 44.3669C22.4625 44.3172 22.5034 44.2978 22.5523 44.2945C22.7273 44.2831 22.9017 44.2651 23.0771 44.2589C23.8656 44.2315 24.6484 44.1415 25.4302 44.0415C25.5343 44.0283 25.6393 44.0117 25.7463 44.0624V44.0629Z" fill="#F8F2EA"/>
<path d="M14.4477 3.76957C15.3907 3.24244 16.4216 2.94595 17.4459 2.63289C17.4867 2.61916 17.4967 2.63763 17.4896 2.67457C16.4772 3.02221 15.4691 3.38263 14.4872 3.80983C14.4482 3.82119 14.4387 3.80462 14.4477 3.76957Z" fill="#F8F2EA"/>
<path d="M35.773 40.086C36.5967 39.3671 37.4398 38.669 38.2032 37.8818C38.0187 38.2408 36.2915 39.8161 35.773 40.086Z" fill="#F8F2EA"/>
<path d="M39.4576 7.56989C39.8179 7.83369 41.2014 9.45251 41.3944 9.82051C40.6986 9.11387 40.1515 8.27936 39.4576 7.56989Z" fill="#F8F2EA"/>
<path d="M35.8837 5.37897C35.3847 5.09006 34.8861 4.80069 34.3871 4.51178C34.937 4.71212 35.5187 4.8561 35.8837 5.37897Z" fill="#F8F2EA"/>
<path d="M6.27565 10.2449C6.61738 9.75475 7.00332 9.29818 7.3864 8.84019C7.41301 8.80799 7.43583 8.73221 7.49904 8.77957C7.56891 8.83214 7.50712 8.87429 7.47195 8.91597C7.08649 9.37254 6.70103 9.82958 6.31605 10.2866C6.2823 10.2923 6.26329 10.2833 6.27613 10.2449H6.27565Z" fill="#F8F2EA"/>
<path d="M45.1887 26.9072C45.0894 27.5655 44.9354 28.211 44.7267 28.8438C44.7153 28.8575 44.7034 28.858 44.6906 28.8452C44.8574 28.1618 45.0271 27.4793 45.1474 26.7855C45.2372 26.8001 45.1863 26.8627 45.1887 26.9067V26.9072Z" fill="#F8F2EA"/>
<path d="M39.6467 9.61542C39.6605 9.60216 39.6743 9.58937 39.6881 9.57611C40.1491 10.1037 40.5512 10.6744 40.9329 11.2603C40.9457 11.2972 40.9281 11.3034 40.8967 11.2958C40.5118 10.7123 40.075 10.1672 39.6467 9.61542Z" fill="#F8F2EA"/>
<path d="M45.1889 26.9072C45.1703 26.8683 45.197 26.8139 45.1475 26.7859C45.2326 26.1589 45.3177 25.5318 45.4028 24.9047C45.4265 24.9649 45.3899 25.0359 45.437 25.0918C45.3543 25.6971 45.2716 26.3019 45.1893 26.9072H45.1889Z" fill="#F8F2EA"/>
<path d="M44.5064 29.5598C44.4028 30.0812 44.1828 30.5634 43.9993 31.0578C43.967 31.145 43.9295 31.2302 43.8943 31.3164C43.8629 31.3207 43.8406 31.3174 43.8615 31.2776C44.0749 30.6974 44.2992 30.1206 44.477 29.5281C44.4912 29.5229 44.5055 29.5181 44.515 29.5347C44.5188 29.5413 44.5136 29.5508 44.5069 29.5598H44.5064Z" fill="#F8F2EA"/>
<path d="M44.8327 16.9551C45.0081 17.4983 45.1768 18.0434 45.1944 18.6194C45.0736 18.0648 44.9534 17.5102 44.8327 16.9551Z" fill="#F8F2EA"/>
<path d="M22.0456 1.66776C22.4562 1.62798 22.865 1.56357 23.2775 1.55267C23.2794 1.57541 23.2818 1.59767 23.2837 1.6204C22.884 1.64976 22.4843 1.67913 22.0841 1.70849C22.046 1.71844 22.0351 1.70281 22.0451 1.66729L22.0456 1.66776Z" fill="#F8F2EA"/>
<path d="M1.6963 22.8222V23.9414C1.67634 23.9414 1.65638 23.9404 1.63641 23.9399C1.55181 23.5374 1.7001 23.1424 1.6963 22.8222Z" fill="#F8F2EA"/>
<path d="M2.86561 15.9861C2.79061 16.1895 2.71371 16.3929 2.64108 16.5972C2.62209 16.6507 2.5993 16.6937 2.53664 16.6686C2.45594 16.636 2.51718 16.5896 2.53522 16.5528C2.62778 16.3626 2.72272 16.1743 2.81719 15.9851C2.8338 15.9695 2.84994 15.97 2.86608 15.9865L2.86561 15.9861Z" fill="#F8F2EA"/>
<path d="M18.5009 2.06934C18.1359 2.1598 17.7714 2.25026 17.4063 2.34119C17.7357 2.1579 18.0988 2.09444 18.462 2.03003C18.499 2.01961 18.51 2.03476 18.5009 2.06981V2.06934Z" fill="#F8F2EA"/>
<path d="M2.52269 28.6974C2.34778 28.346 2.29835 27.9595 2.2475 27.5731C2.33923 27.9477 2.43096 28.3228 2.52269 28.6974Z" fill="#F8F2EA"/>
<path d="M6.27481 10.2449C6.2881 10.2586 6.3014 10.2728 6.31469 10.2865C6.14807 10.515 5.98145 10.7439 5.81483 10.9724C5.80059 10.9629 5.78682 10.9535 5.77258 10.944C5.93351 10.707 6.08636 10.4644 6.27481 10.2449Z" fill="#F8F2EA"/>
<path d="M9.30945 39.251C9.53256 39.4275 9.75566 39.6039 9.97877 39.7804C9.62987 39.62 9.41388 39.4483 9.30945 39.251Z" fill="#F8F2EA"/>
<path d="M26.7003 1.33607C26.4468 1.31715 26.1928 1.29776 25.9208 1.27742C26.2004 1.13172 26.4491 1.30296 26.705 1.28971C26.7031 1.30485 26.7017 1.32046 26.6998 1.3356L26.7003 1.33607Z" fill="#F8F2EA"/>
<path d="M31.3576 3.23114C31.6505 3.26851 31.9045 3.38062 32.1357 3.54901C31.8765 3.44306 31.6168 3.3371 31.3576 3.23114Z" fill="#F8F2EA"/>
<path d="M17.4894 2.67432C17.4747 2.6606 17.4605 2.64641 17.4458 2.63269C17.6584 2.53525 17.8858 2.49315 18.1094 2.43781C18.1141 2.45294 18.1189 2.46808 18.1236 2.48322C17.9119 2.54707 17.7007 2.61046 17.489 2.67432H17.4894Z" fill="#F8F2EA"/>
<path d="M27.9892 43.8809C28.1701 43.8274 28.351 43.7735 28.5318 43.72C28.4241 43.9064 28.2256 43.8638 28.0676 43.9215C28.0286 43.9319 27.9845 43.9532 27.9892 43.8809Z" fill="#F8F2EA"/>
<path d="M24.4829 44.681C24.773 44.6758 25.0592 44.5939 25.3521 44.6488C25.0621 44.654 24.7768 44.7481 24.4829 44.681Z" fill="#F8F2EA"/>
<path d="M8.65649 38.1053C8.82121 38.2596 8.98641 38.4142 9.15113 38.5684C9.14069 38.5793 9.12977 38.5907 9.11932 38.6016C8.93704 38.4648 8.77754 38.305 8.65649 38.1053Z" fill="#F8F2EA"/>
<path d="M9.65013 39.0539C9.47497 38.9342 9.31642 38.7966 9.18256 38.6315C9.36579 38.7407 9.52576 38.8779 9.67672 39.0264C9.68051 39.0473 9.6715 39.0567 9.65013 39.0539Z" fill="#F8F2EA"/>
<path d="M3.48133 31.8188C3.3655 31.63 3.28955 31.4262 3.25964 31.2034C3.34319 31.4001 3.42674 31.5974 3.51028 31.7942C3.51028 31.8136 3.50079 31.8216 3.4818 31.8192L3.48133 31.8188Z" fill="#F8F2EA"/>
<path d="M36.8354 6.71892C36.8207 6.73358 36.806 6.74825 36.7913 6.76291C36.6778 6.65979 36.5644 6.55667 36.4514 6.45355C36.6085 6.50511 36.7296 6.60208 36.8359 6.71892H36.8354Z" fill="#F8F2EA"/>
<path d="M40.8966 11.2959C40.9085 11.284 40.9208 11.2722 40.9327 11.2604C41.0566 11.3976 41.1416 11.5574 41.2009 11.7353C41.0993 11.5887 40.9982 11.442 40.8966 11.2959Z" fill="#F8F2EA"/>
<path d="M18.5011 2.06917C18.4882 2.05592 18.4749 2.04268 18.4621 2.02944C18.6458 1.96889 18.8324 1.92253 19.027 1.92017C19.0313 1.9249 19.0351 1.9301 19.0394 1.93483C18.867 2.00862 18.6819 2.02944 18.5011 2.0687V2.06917Z" fill="#F8F2EA"/>
<path d="M12.4055 40.9493C12.5412 41.0283 12.6775 41.1073 12.8132 41.1859C12.6485 41.1594 12.5099 41.0827 12.4055 40.9493Z" fill="#F8F2EA"/>
<path d="M27.9887 43.881C27.9982 43.9265 28.041 43.908 28.0671 43.9217C27.9047 43.9596 27.7429 43.9979 27.5805 44.0357C27.7049 43.9458 27.8454 43.909 27.9887 43.881Z" fill="#F8F2EA"/>
<path d="M45.4758 21.4255C45.463 21.4388 45.4502 21.4515 45.4369 21.4648C45.3866 21.3271 45.4004 21.1866 45.4345 21.0443L45.4758 21.4255Z" fill="#F8F2EA"/>
<path d="M10.2287 39.5064C10.1034 39.4321 9.98421 39.3498 9.88453 39.2429C9.88358 39.2244 9.89307 39.2178 9.91063 39.2221C10.035 39.276 10.1233 39.3777 10.2277 39.4581C10.2443 39.4737 10.2448 39.4898 10.2287 39.5064Z" fill="#F8F2EA"/>
<path d="M14.4475 3.76964C14.4608 3.78288 14.4736 3.7966 14.4869 3.80985C14.3867 3.87938 14.2757 3.9229 14.1546 3.94182C14.2405 3.86282 14.3374 3.80512 14.447 3.76917L14.4475 3.76964Z" fill="#F8F2EA"/>
<path d="M22.0452 1.66772C22.058 1.68144 22.0713 1.69516 22.0841 1.70888C21.9593 1.77226 21.8292 1.74152 21.6973 1.71219C21.8131 1.69753 21.9294 1.68239 22.0452 1.66772Z" fill="#F8F2EA"/>
<path d="M2.86585 15.9856C2.84971 15.9856 2.8331 15.9847 2.81696 15.9842C2.8649 15.8787 2.91284 15.7732 2.96079 15.6682C2.95747 15.7855 2.93848 15.8953 2.86585 15.9856Z" fill="#F8F2EA"/>
<path d="M3.66626 13.9476C3.7237 13.8308 3.78114 13.7135 3.83858 13.5966C3.85282 13.6032 3.86753 13.6099 3.88177 13.6165C3.82718 13.7347 3.793 13.8625 3.66626 13.9476Z" fill="#F8F2EA"/>
<path d="M44.1726 17.4454C44.1445 17.3337 44.1165 17.2221 44.0885 17.1105C44.1707 17.1933 44.2058 17.2916 44.2072 17.4014C44.2252 17.4392 44.2072 17.4492 44.1721 17.4454H44.1726Z" fill="#F8F2EA"/>
<path d="M43.8609 31.2777C43.8718 31.2905 43.8827 31.3037 43.8936 31.3165C43.8585 31.4154 43.8191 31.5119 43.7242 31.6169C43.7593 31.4769 43.8016 31.3742 43.8609 31.2777Z" fill="#F8F2EA"/>
<path d="M6.3893 9.04803C6.40259 9.06128 6.41636 9.075 6.42965 9.08824C6.38455 9.19042 6.30291 9.26279 6.21936 9.33564C6.25306 9.22589 6.30718 9.12892 6.3893 9.04803Z" fill="#F8F2EA"/>
<path d="M3.50993 31.7949C3.56974 31.8989 3.62623 32.0035 3.63857 32.1274C3.56642 32.0347 3.50755 31.9358 3.48145 31.8199C3.49094 31.8114 3.50043 31.8034 3.50993 31.7949Z" fill="#F8F2EA"/>
<path d="M10.2291 39.5064C10.2291 39.4904 10.2286 39.4744 10.2281 39.4584C10.3216 39.5121 10.4071 39.5756 10.4718 39.6669C10.3816 39.6278 10.2909 39.5902 10.2291 39.5069V39.5064Z" fill="#F8F2EA"/>
<path d="M43.8698 16.2064C43.7967 16.1265 43.7421 16.0399 43.7616 15.89C43.8067 16.0219 43.8385 16.1142 43.8698 16.2064Z" fill="#F8F2EA"/>
<path d="M44.1728 17.4457C44.1846 17.431 44.196 17.4163 44.2079 17.4017C44.2554 17.4897 44.2691 17.5847 44.2544 17.6869C44.2273 17.6065 44.1998 17.5261 44.1728 17.4457Z" fill="#F8F2EA"/>
<path d="M44.6908 28.8452C44.7032 28.8504 44.715 28.8494 44.7269 28.8438C44.6998 28.9298 44.6728 29.0164 44.6296 29.1541C44.6144 29.0051 44.6391 28.9223 44.6908 28.8456V28.8452Z" fill="#F8F2EA"/>
<path d="M19.0276 1.92057C19.1264 1.8709 19.2298 1.84914 19.3794 1.86664C19.2412 1.89455 19.1468 1.94232 19.04 1.93523C19.0357 1.9305 19.0319 1.9253 19.0276 1.92057Z" fill="#F8F2EA"/>
<path d="M9.88299 39.2415C9.80556 39.1789 9.72813 39.1168 9.6507 39.0543C9.65967 39.0453 9.66816 39.0359 9.67714 39.027C9.76543 39.0787 9.84333 39.1427 9.90896 39.2208C9.89762 39.2241 9.88913 39.2312 9.88299 39.2415Z" fill="#F8F2EA"/>
<path d="M44.5065 29.5595C44.4966 29.5491 44.4866 29.5382 44.4766 29.5278C44.5004 29.4455 44.5241 29.3632 44.5478 29.2809C44.5606 29.3793 44.5644 29.4753 44.5061 29.5595H44.5065Z" fill="#F8F2EA"/>
<path d="M19.0608 13.4798C18.9854 13.6893 18.9237 13.8739 18.8513 14.054C18.7353 14.3449 18.5092 14.5408 18.1106 14.3765C17.6948 14.1945 17.3045 13.9592 16.9494 13.6765C16.3413 13.2161 15.7385 12.7414 15.2254 12.174C14.1064 10.9322 13.0514 9.64364 12.3883 8.08686C12.2877 7.87807 12.2143 7.65724 12.1698 7.42978C12.1306 7.17886 12.1879 6.96712 12.3816 6.8021C12.7469 6.49919 13.1271 6.21476 13.5209 5.94987C14.0583 5.57513 14.63 5.25219 15.2284 4.98536C15.3296 4.93448 15.4433 4.91395 15.5559 4.92625C15.6684 4.93855 15.775 4.98315 15.8628 5.05468C16.2298 5.31766 16.4868 5.68462 16.7761 6.01844C17.4681 6.82575 18.2555 7.54611 19.1211 8.16372C19.4271 8.37474 19.7646 8.53598 20.121 8.64145C20.1693 8.65879 20.2215 8.66219 20.2717 8.65125C21.3651 8.37169 22.4532 8.47794 23.5367 8.71379C23.6737 8.73661 23.8142 8.7268 23.9466 8.68515C24.8803 8.4591 25.7023 8.00246 26.4725 7.44862C27.2885 6.86163 27.9524 6.12242 28.5416 5.31314C28.6479 5.16695 28.7496 5.01851 28.8558 4.87233C28.9452 4.74285 29.076 4.64776 29.2268 4.60282C29.3775 4.55787 29.5391 4.56576 29.6847 4.62517C30.6281 4.9959 31.5052 5.49775 32.3823 5.9996C32.5074 6.07495 32.6355 6.13749 32.7636 6.2038C32.8686 6.25893 32.9632 6.33185 33.0432 6.41931C33.1157 6.4864 33.1652 6.5747 33.1845 6.6716C33.2039 6.76849 33.1921 6.86902 33.1509 6.95883C32.9961 7.32421 32.8215 7.68091 32.628 8.02733C32.2286 8.76804 31.7991 9.49368 31.2407 10.1259C29.9477 11.5832 28.464 12.8017 26.7354 13.7059C26.4489 13.8507 26.145 13.9583 25.8312 14.0261C25.462 14.112 25.3271 14.0608 25.1071 13.7503C24.867 14.1061 24.6013 14.4438 24.3121 14.7608C24.2172 14.861 24.0536 14.9402 24.0484 15.0682C24.0431 15.1963 24.1569 15.3064 24.2164 15.4262C24.8298 16.6597 25.4846 17.8744 26.0686 19.1312C26.1708 19.3395 26.284 19.5423 26.4076 19.7386C26.6314 20.1173 26.7594 20.5448 26.7806 20.9842C26.8696 22.4716 26.9374 23.9598 26.9313 25.451C26.9313 26.2558 26.9698 27.0613 26.9532 27.8661C26.9381 28.6196 26.9713 29.3731 26.9298 30.1267C26.9179 30.4667 26.8811 30.8054 26.8198 31.1401C26.694 31.7618 26.3526 32.2795 26.0475 32.8167C25.3738 34.0035 24.5472 35.0863 23.7545 36.1925C23.542 36.4902 23.3107 36.7712 23.0899 37.0613C22.8872 37.3273 22.6046 37.368 22.2949 37.1909C22.0199 37.0335 21.824 36.7999 21.6318 36.5535C20.5113 35.1112 19.5009 33.5989 18.4527 32.1114C18.2138 31.7731 18.1754 31.4137 18.1453 31.0369C18.0654 30.1018 18.033 29.1637 17.9991 28.2255C17.9652 27.2874 17.9139 26.3605 17.8672 25.4284C17.8197 24.4692 17.822 23.51 17.8521 22.5507C17.8665 22.0813 17.883 21.6111 17.8657 21.1424C17.8594 20.8611 17.9277 20.5831 18.0639 20.3369C18.507 19.4688 18.9576 18.6038 19.3893 17.732C19.7872 16.9272 20.0961 16.0832 20.4503 15.2596C20.4699 15.2129 20.4789 15.1768 20.4315 15.1383C19.8701 14.6855 19.4376 14.1226 19.0608 13.4798ZM32.5677 7.04247C32.371 7.30997 32.1736 7.57974 31.9649 7.84196C30.9922 9.07447 29.8644 10.1762 28.6094 11.1198C27.7632 11.7603 26.8439 12.278 25.9066 12.7677C25.6722 12.8906 25.6805 12.8823 25.5991 12.6276C25.364 11.8741 25.1719 11.1092 24.8335 10.3941C24.7793 10.2781 24.7974 10.2238 24.9187 10.1817C25.0084 10.1425 25.0949 10.0961 25.1771 10.043C26.0196 9.57205 26.7324 8.94286 27.3729 8.22927C28.1958 7.31374 28.88 6.30854 29.3283 5.1549C29.3509 5.09688 29.4074 5.02605 29.3366 4.97179C29.3041 4.94992 29.2653 4.93953 29.2262 4.94226C29.1872 4.94499 29.1502 4.96069 29.1211 4.98686C29.0657 5.02538 29.0151 5.07041 28.9704 5.12099C28.7873 5.33725 28.611 5.55879 28.4376 5.78334C27.9983 6.34923 27.5485 6.90835 26.9487 7.32128C26.694 7.49685 26.44 7.67468 26.1952 7.85929C25.5235 8.36714 24.7592 8.73905 23.9451 8.95416C23.7701 9.01351 23.5827 9.02675 23.4011 8.99259C22.5895 8.79441 21.7667 8.74544 20.9529 8.95642C20.7134 9.0139 20.4621 8.99788 20.2318 8.91046C19.8318 8.77472 19.4399 8.61648 19.0578 8.43649C18.2741 8.06877 17.6479 7.50062 17.0828 6.85409C16.6578 6.36656 16.2984 5.83232 15.9096 5.31917C15.848 5.22295 15.7619 5.14491 15.6601 5.09311C15.4838 5.01776 15.3587 5.10969 15.3768 5.29882C15.395 5.43721 15.4378 5.57121 15.5034 5.69442C15.8237 6.3639 16.2019 7.00407 16.6337 7.60762C17.1077 8.25866 17.6525 8.83661 18.3352 9.27742C18.6584 9.48615 18.9674 9.71522 19.3193 9.88024C18.932 10.3726 18.6316 10.9273 18.4309 11.5207C18.302 11.9013 18.2013 12.2909 18.1294 12.6864C18.1189 12.7451 18.1294 12.8303 18.0142 12.7708C17.6721 12.5922 17.3194 12.4332 17.009 12.1981C16.5237 11.8319 16.0535 11.4446 15.5825 11.0603C14.4296 10.1176 13.548 8.96396 12.8698 7.64831C12.8293 7.56484 12.7787 7.48664 12.7191 7.41547C12.6795 7.36635 12.6239 7.33257 12.562 7.31992C12.5002 7.30727 12.4358 7.31654 12.3801 7.34614C12.2572 7.40793 12.3047 7.52624 12.3281 7.62269C12.3513 7.71745 12.3841 7.8096 12.426 7.89772C12.5377 8.13334 12.6637 8.36184 12.8035 8.58192C13.9319 10.3573 15.3519 11.9294 17.0037 13.2319C17.4023 13.5499 17.8122 13.8543 18.2907 14.0487C18.4761 14.1241 18.5627 14.1015 18.6637 13.9289C18.7262 13.816 18.7687 13.6931 18.7895 13.5657C18.8283 13.3209 18.8865 13.0795 18.9636 12.8438C19.1143 13.0759 19.265 13.2847 19.3961 13.5039C19.7205 14.0447 20.1596 14.5077 20.6824 14.8603C20.9649 15.0539 20.9649 15.0509 20.8097 15.3651C20.6018 15.7856 20.3855 16.2023 20.1918 16.6288C19.6892 17.7357 19.2876 18.8894 18.7534 19.979C18.5405 20.3861 18.4165 20.8337 18.3894 21.2923C18.3668 21.957 18.3638 22.6231 18.3578 23.2884C18.3517 23.9229 18.3497 24.5576 18.3517 25.1926C18.3517 25.977 18.3171 26.7629 18.3706 27.5458C18.453 28.7595 18.5102 29.9747 18.5424 31.1914C18.5431 31.4597 18.6112 31.7234 18.7405 31.9585C19.1442 32.672 19.5906 33.3605 20.0773 34.0201C20.8097 35.005 21.5889 35.9537 22.3484 36.9174C22.5127 37.1261 22.7779 37.1216 22.9429 36.9084C23.1193 36.6823 23.2918 36.4487 23.4553 36.2106C23.9218 35.5324 24.3211 34.8068 24.7921 34.1294C25.312 33.3804 25.8576 32.6464 26.2517 31.8183C26.3481 31.6149 26.4913 31.431 26.5297 31.2019C26.5771 30.8388 26.5917 30.4721 26.5734 30.1063C26.5674 29.6542 26.532 29.1983 26.5486 28.7454C26.5787 27.8947 26.5817 27.044 26.5486 26.1933C26.5177 25.4202 26.4634 24.6485 26.4408 23.8762C26.428 23.4278 26.4717 22.9787 26.4476 22.5304C26.4104 21.8402 26.374 21.1502 26.3383 20.4605C26.3377 20.4195 26.3301 20.379 26.3157 20.3407C26.0437 19.7378 25.792 19.129 25.4914 18.5435C24.9225 17.4343 24.3483 16.3281 23.8268 15.1956C23.7951 15.1404 23.7848 15.0754 23.798 15.0131C23.8112 14.9508 23.847 14.8956 23.8984 14.858C24.174 14.5959 24.4273 14.3113 24.6557 14.0073C24.7898 13.8332 24.9179 13.6546 25.0513 13.4745C25.2442 13.7971 25.3233 13.8249 25.6745 13.7006C25.6888 13.695 25.7034 13.6903 25.7182 13.6863C26.5471 13.4715 27.3081 13.0933 28.0292 12.6366C29.4828 11.7173 30.6756 10.5268 31.68 9.13501C32.0814 8.58657 32.4385 8.00704 32.7478 7.4019C32.7734 7.35066 32.8284 7.29716 32.7749 7.209C31.4896 9.33539 29.692 11.1058 27.5462 12.3586C29.5905 10.9314 31.2867 9.18474 32.5677 7.04247ZM13.5036 7.76435C13.4862 7.78695 13.5036 7.80353 13.5073 7.82237C13.6927 8.27574 13.9391 8.70166 14.2398 9.08829C15.1161 10.2005 16.0912 11.2064 17.296 11.969C17.4038 12.0376 17.5183 12.0971 17.6314 12.1574C17.6592 12.1725 17.6969 12.1725 17.7067 12.1348C17.7165 12.0971 17.6811 12.1001 17.6615 12.0873C16.6066 11.4137 15.7385 10.5403 14.9548 9.57431C14.5027 9.01369 14.1199 8.3958 13.6241 7.86834C13.591 7.8284 13.5676 7.77113 13.5036 7.76435Z" fill="#F8F2EA"/>
<path d="M32.5677 7.04244C31.2867 9.1847 29.5898 10.9314 27.547 12.3555C29.6927 11.1028 31.4904 9.33234 32.7757 7.20595C32.8292 7.29411 32.7757 7.34761 32.7486 7.39885C32.4392 8.00399 32.0822 8.58352 31.6808 9.13196C30.6764 10.5215 29.4835 11.7143 28.03 12.6336C27.3089 13.0902 26.5508 13.4685 25.7189 13.6832C25.7041 13.6872 25.6895 13.692 25.6752 13.6976C25.3241 13.8226 25.245 13.7948 25.0521 13.4715C24.9187 13.6516 24.7906 13.8302 24.6565 14.0042C24.4275 14.3097 24.1734 14.5955 23.8969 14.8587C23.8455 14.8963 23.8097 14.9515 23.7965 15.0138C23.7833 15.0761 23.7936 15.1411 23.8253 15.1963C24.3468 16.3266 24.921 17.435 25.4899 18.5442C25.7913 19.1297 26.0422 19.7408 26.3142 20.3414C26.3286 20.3797 26.3362 20.4202 26.3368 20.4612C26.374 21.1514 26.4104 21.8414 26.4461 22.5311C26.4702 22.9795 26.4265 23.4286 26.4393 23.8769C26.4619 24.6493 26.5147 25.4209 26.5471 26.194C26.581 27.0447 26.5779 27.8954 26.5471 28.7462C26.5305 29.1983 26.5659 29.6504 26.5719 30.107C26.5902 30.4728 26.5756 30.8395 26.5282 31.2027C26.4898 31.4287 26.3466 31.6156 26.2502 31.819C25.8561 32.6479 25.3105 33.3811 24.7906 34.1301C24.3196 34.8083 23.9203 35.5309 23.4538 36.2113C23.2903 36.4494 23.1178 36.6808 22.9414 36.9091C22.7764 37.1223 22.5112 37.1269 22.3469 36.9181C21.5889 35.9574 20.8127 35.0087 20.0773 34.0238C19.5906 33.3642 19.1442 32.6757 18.7406 31.9622C18.6112 31.7272 18.5431 31.4634 18.5424 31.1951C18.5097 29.9789 18.4525 28.7637 18.3706 27.5496C18.3171 26.7667 18.354 25.9807 18.3517 25.1963C18.3517 24.5618 18.3537 23.9271 18.3578 23.2922C18.3638 22.6268 18.3668 21.9607 18.3894 21.2961C18.4165 20.8375 18.5405 20.3898 18.7534 19.9827C19.2884 18.8901 19.6892 17.7395 20.1918 16.6325C20.3855 16.206 20.6018 15.7893 20.8097 15.3689C20.965 15.0546 20.965 15.0577 20.6824 14.864C20.1596 14.5114 19.7205 14.0484 19.3961 13.5077C19.265 13.2884 19.1166 13.0797 18.9636 12.8476C18.8865 13.0832 18.8283 13.3246 18.7895 13.5695C18.7687 13.6968 18.7262 13.8197 18.6637 13.9327C18.5627 14.1052 18.4761 14.1278 18.2907 14.0525C17.8122 13.8581 17.4023 13.5536 17.0037 13.2356C15.3516 11.932 13.9316 10.3586 12.8035 8.58188C12.662 8.36021 12.5344 8.12994 12.4215 7.89241C12.3796 7.80428 12.3468 7.71213 12.3236 7.61737C12.3017 7.52092 12.2527 7.40262 12.3755 7.34083C12.4313 7.31123 12.4957 7.30196 12.5575 7.31461C12.6194 7.32726 12.6749 7.36104 12.7146 7.41015C12.7742 7.48133 12.8248 7.55953 12.8653 7.64299C13.5435 8.95865 14.4266 10.1123 15.578 11.0549C16.049 11.44 16.5192 11.8266 17.0044 12.1928C17.3149 12.4279 17.6675 12.5869 18.0096 12.7654C18.1242 12.825 18.1144 12.7398 18.1249 12.681C18.1967 12.2856 18.2975 11.896 18.4263 11.5153C18.6289 10.9241 18.9306 10.3717 19.3185 9.88171C18.9666 9.71292 18.6577 9.48385 18.3344 9.27889C17.6517 8.83808 17.1069 8.26013 16.633 7.60908C16.2011 7.00554 15.8229 6.36536 15.5027 5.69589C15.4371 5.57268 15.3942 5.43868 15.3761 5.30029C15.358 5.11116 15.4831 5.02073 15.6594 5.09458C15.7612 5.14638 15.8473 5.22442 15.9088 5.32064C16.2976 5.83378 16.6571 6.36803 17.0821 6.85556C17.6472 7.50359 18.2734 8.07175 19.057 8.43796C19.4391 8.61794 19.8311 8.77619 20.231 8.91193C20.4613 8.99935 20.7126 9.01536 20.9521 8.95789C21.766 8.74691 22.5888 8.79588 23.4003 8.99406C23.582 9.02822 23.7694 9.01498 23.9444 8.95563C24.7585 8.74052 25.5228 8.36861 26.1944 7.86076C26.4423 7.67615 26.6963 7.49832 26.9479 7.32275C27.5507 6.90982 27.9976 6.3507 28.4369 5.78481C28.6102 5.55875 28.7865 5.33872 28.9696 5.12246C29.0143 5.07188 29.0649 5.02685 29.1203 4.98833C29.1494 4.96216 29.1865 4.94646 29.2255 4.94373C29.2645 4.941 29.3034 4.95139 29.3358 4.97326C29.4067 5.02751 29.3502 5.09835 29.3276 5.15637C28.8754 6.31001 28.1973 7.31521 27.3722 8.23074C26.7317 8.94433 26.0158 9.57352 25.1764 10.0445C25.0941 10.0976 25.0077 10.1439 24.9179 10.1831C24.7966 10.2253 24.7785 10.2796 24.8328 10.3956C25.1711 11.1107 25.3603 11.8778 25.5984 12.6291C25.6782 12.8837 25.6737 12.892 25.9058 12.7692C26.8432 12.2794 27.7625 11.7618 28.6087 11.1213C29.864 10.1772 30.9921 9.07501 31.9649 7.84192C32.1744 7.5797 32.3718 7.30994 32.5677 7.04244ZM27.3812 7.78164C27.3858 7.78171 27.3904 7.78075 27.3947 7.77884C27.3989 7.77693 27.4027 7.77412 27.4057 7.77059C27.4087 7.76707 27.4109 7.76293 27.4121 7.75846C27.4134 7.75398 27.4136 7.74929 27.4129 7.74472C27.4324 7.74472 27.4407 7.73794 27.4437 7.72061C27.4746 7.71232 27.4995 7.70026 27.4935 7.66108L27.5251 7.61737L27.5553 7.58497C27.7531 7.39391 27.9299 7.18222 28.0827 6.95352C27.8047 7.11779 27.6743 7.34837 27.5304 7.56764L27.5101 7.60155L27.4754 7.64149C27.4377 7.64149 27.4294 7.66861 27.4166 7.69348L27.385 7.72437L27.3533 7.75527L27.3239 7.78767L27.2938 7.81856L27.2637 7.85097L27.232 7.88111L27.1996 7.91049L27.168 7.94064L27.1371 7.97153L27.1054 8.00242C27.0572 8.03257 27.0014 8.05668 26.9916 8.1245L26.9163 8.18402L26.8681 8.22848C26.6126 8.42892 26.3602 8.63237 26.1017 8.8313C25.6662 9.16059 25.2389 9.50269 24.7356 9.73101C24.6821 9.75512 24.5615 9.75964 24.5902 9.82218C24.6339 9.91562 24.7281 9.82896 24.7831 9.79882C25.5581 9.38766 26.2704 8.86774 26.8982 8.25485L26.9396 8.21115L27.015 8.14635C27.0431 8.13961 27.0691 8.12574 27.0903 8.10608C27.1116 8.08641 27.1274 8.06162 27.1363 8.03407C27.1404 8.0342 27.1445 8.03346 27.1482 8.03188C27.152 8.0303 27.1554 8.02794 27.1582 8.02494C27.161 8.02194 27.1631 8.01838 27.1644 8.01449C27.1657 8.01061 27.1661 8.00649 27.1657 8.00242C27.1698 8.00278 27.174 8.00223 27.1778 8.00079C27.1817 7.99936 27.1852 7.99708 27.1881 7.99412C27.191 7.99116 27.1932 7.9876 27.1945 7.9837C27.1958 7.97979 27.1963 7.97563 27.1958 7.97153C27.2003 7.97174 27.2047 7.97103 27.2089 7.96945C27.213 7.96786 27.2168 7.96544 27.22 7.96233C27.2232 7.95922 27.2257 7.95549 27.2274 7.95137C27.229 7.94725 27.2299 7.94282 27.2297 7.93837C27.2338 7.93893 27.2379 7.93859 27.2418 7.93739C27.2456 7.93619 27.2492 7.93416 27.2522 7.93143C27.2553 7.9287 27.2576 7.92534 27.2592 7.9216C27.2608 7.91785 27.2615 7.9138 27.2614 7.90974L27.2923 7.87809L27.3224 7.84871C27.333 7.8374 27.3443 7.82685 27.3548 7.8163L27.3812 7.78164ZM28.0948 6.95277C28.0983 6.95016 28.1013 6.94688 28.1036 6.94312C28.1058 6.93935 28.1073 6.93517 28.108 6.93083C28.1086 6.92648 28.1083 6.92205 28.1072 6.9178C28.1062 6.91354 28.1042 6.90955 28.1016 6.90605L28.076 6.92639C28.0616 6.93544 28.0338 6.94071 28.0518 6.96482C28.0699 6.98894 28.0835 6.96859 28.0955 6.95503L28.0948 6.95277ZM16.2389 6.07567L16.2675 6.08848L16.2569 6.05683L16.2291 6.04176C16.2321 6.05306 16.2351 6.06436 16.2389 6.07567ZM16.1748 5.98449C16.1831 5.99052 16.1959 6.00257 16.1989 6.00031C16.2193 5.9875 16.2065 5.97545 16.1944 5.9649L16.1658 5.93099C16.1582 5.91667 16.1582 5.88427 16.1334 5.90085C16.1085 5.91743 16.1334 5.93551 16.1499 5.94681L16.1748 5.98449ZM16.3029 6.16609C16.3112 6.17136 16.3225 6.18342 16.3255 6.18191C16.3451 6.16986 16.3338 6.1578 16.3255 6.1465C16.3172 6.13519 16.3052 6.12841 16.3022 6.13067C16.2795 6.14348 16.2916 6.15479 16.3029 6.16609ZM16.4061 6.77343C16.4001 6.76062 16.3933 6.75082 16.379 6.76288C16.3779 6.76496 16.3773 6.76729 16.3773 6.76966C16.3773 6.77203 16.3779 6.77436 16.379 6.77644C16.3926 6.78699 16.4024 6.78172 16.4092 6.7674C16.37 6.80583 16.4092 6.82241 16.431 6.84275C16.4423 6.87114 16.4567 6.89818 16.474 6.92338C16.957 7.47797 17.3933 8.07627 17.9516 8.56305C18.3676 8.92624 18.7933 9.27513 19.2831 9.53735C19.3283 9.56146 19.3697 9.6127 19.427 9.54263C19.5129 9.43638 19.6094 9.33917 19.7043 9.23519C19.6841 9.22278 19.6629 9.21194 19.641 9.20279C18.9719 8.97183 18.3483 8.62551 17.7987 8.1795C17.2983 7.77712 16.8778 7.29562 16.4521 6.82316L16.4061 6.77343ZM27.1423 12.6147L27.0753 12.6072C27.0749 12.6117 27.0749 12.6163 27.0753 12.6208L27.1408 12.6147L27.1363 12.5763L27.1227 12.5816L27.1423 12.6147ZM27.4746 12.3616L27.1732 12.5447C27.2905 12.5195 27.4006 12.468 27.495 12.394C27.5131 12.3872 27.541 12.3834 27.5229 12.3563C27.5048 12.3292 27.4935 12.3555 27.4769 12.3616H27.4746ZM20.8263 20.5343C20.5317 20.4989 20.2461 20.4047 19.9854 20.4009C20.2378 20.4921 20.5445 20.5132 20.8406 20.5855C20.9889 20.6284 21.1431 20.6467 21.2973 20.6398C21.145 20.586 20.9869 20.5506 20.8263 20.5343ZM22.5458 34.277C23.0379 34.277 23.5315 34.2959 24.0084 34.1452C23.5209 34.1361 23.0402 34.2326 22.5526 34.2303C22.1683 34.1874 21.781 34.2499 21.3945 34.1972C21.4012 34.2087 21.4105 34.2185 21.4216 34.2259C21.4327 34.2334 21.4453 34.2382 21.4585 34.2401C21.8179 34.2378 22.1781 34.3132 22.5458 34.277ZM22.481 35.2393C22.7026 35.2393 22.9234 35.2393 23.1441 35.2393C23.3649 35.2393 23.4169 35.1858 23.4885 34.9529C23.16 35.0893 22.8149 35.1345 22.4773 35.2099C22.3266 35.1541 22.1713 35.2099 22.0214 35.1602C22.1626 35.2298 22.3209 35.2573 22.4773 35.2393H22.481ZM22.4193 33.5665C23.0733 33.5891 23.7266 33.6094 24.3588 33.3939C24.2081 33.3939 24.0574 33.4135 23.9067 33.4293C23.4162 33.4813 22.9271 33.5408 22.4313 33.5182H22.047C22.1623 33.5808 22.2904 33.5567 22.4155 33.5665H22.4193ZM21.9671 31.5056C22.0006 31.5194 22.0367 31.5261 22.0729 31.525C22.1091 31.524 22.1447 31.5153 22.1774 31.4995C22.1485 31.4808 22.116 31.4683 22.0821 31.4626C22.0481 31.4569 22.0134 31.4582 21.98 31.4664C21.6348 31.4604 21.2927 31.4212 20.9506 31.3835C20.5272 31.336 20.1044 31.2765 19.6817 31.2245C19.6516 31.2207 19.6064 31.1898 19.5958 31.2494C19.5853 31.3089 19.6327 31.3006 19.6712 31.3081C19.7714 31.3285 19.8716 31.3526 19.9726 31.3707C20.6244 31.489 21.2927 31.4973 21.9611 31.5056H21.9671ZM21.7147 31.0851C22.3175 31.11 22.9203 31.1529 23.5232 31.1386C23.765 31.1326 24.0069 31.122 24.2481 31.1032C24.4892 31.0843 24.725 31.0527 25.0016 31.0218C24.9143 30.9935 24.8217 30.986 24.7311 31C23.8682 31.0668 23.0025 31.0876 22.1374 31.0625C21.9995 31.0625 21.8594 31.0881 21.7238 31.0444L20.5528 30.9336V30.9819C20.6455 31.0263 20.7494 31.0052 20.8467 31.0173C21.1326 31.0549 21.4204 31.0776 21.7087 31.0851H21.7147ZM21.2114 20.1861C21.4894 20.2359 21.7675 20.2849 22.0448 20.3368C22.8442 20.4876 23.6437 20.6383 24.4628 20.6277C24.6889 20.6277 24.9217 20.6443 25.1463 20.5825C24.502 20.5117 23.8577 20.4514 23.2135 20.3903C22.5421 20.3271 21.873 20.2525 21.2046 20.1643C20.9818 20.091 20.7489 20.0529 20.5143 20.0513C20.7429 20.1138 20.9759 20.1589 21.2114 20.1861ZM24.1124 28.8923C24.2519 28.9199 24.3965 28.8997 24.5231 28.8351H24.1817C23.5789 28.8404 22.9761 28.7982 22.3733 28.7552C21.3937 28.6866 20.4232 28.5955 19.47 28.3581C19.4293 28.3476 19.3615 28.2767 19.3404 28.383C19.3215 28.4764 19.3908 28.4772 19.4526 28.4877C20.9958 28.7462 22.5458 28.933 24.1124 28.8893V28.8923ZM21.359 32.6735C21.3783 32.6814 21.3982 32.6874 21.4186 32.6916C22.3567 32.8099 23.2971 32.8649 24.2405 32.7609C24.4827 32.7436 24.7213 32.6929 24.9496 32.6102C24.3792 32.6163 23.811 32.6396 23.2421 32.6517C22.6129 32.6645 21.9837 32.669 21.3583 32.6351C21.1778 32.5952 20.9925 32.5823 20.8082 32.5967C20.9868 32.6419 21.1677 32.6946 21.359 32.6705V32.6735ZM22.0184 10.0844C22.1578 10.0889 22.2964 10.0919 22.4351 10.0987C22.4814 10.1029 22.5263 10.1169 22.5667 10.1399C22.6072 10.163 22.6422 10.1944 22.6694 10.2321C22.7403 10.315 22.7252 10.3715 22.622 10.3994C22.4626 10.4426 22.298 10.4639 22.1329 10.4627C21.9555 10.4433 21.7761 10.4602 21.6055 10.5124C21.7825 10.5192 21.9589 10.5493 22.1367 10.5207C22.3477 10.5147 22.5587 10.5034 22.7704 10.5041C22.823 10.5023 22.8744 10.5198 22.9151 10.5532C22.9557 10.5867 22.9828 10.6338 22.9912 10.6857C23.0055 10.7942 22.8797 10.7822 22.8081 10.7972C22.444 10.8701 22.075 10.9152 21.7042 10.9321C21.5369 10.9412 21.3658 10.9155 21.1895 10.9751C21.772 11.03 22.3581 11.0353 22.9414 10.9909C22.9917 10.9815 23.0435 10.9857 23.0916 11.0031C23.1397 11.0204 23.1823 11.0503 23.215 11.0896C23.3114 11.2072 23.3062 11.2501 23.1524 11.281C23.0305 11.3007 22.9074 11.3118 22.784 11.3142C22.3966 11.336 22.0093 11.3556 21.6228 11.3759V11.4174C21.9521 11.4174 22.2806 11.4174 22.6099 11.4174C22.8314 11.4174 23.0515 11.3857 23.2745 11.4129C23.32 11.4195 23.3636 11.4355 23.4025 11.4598C23.4414 11.4842 23.4748 11.5165 23.5006 11.5545C23.5563 11.6246 23.5262 11.6691 23.4538 11.6917C23.4138 11.7013 23.3729 11.7063 23.3318 11.7067C22.7041 11.7504 22.0749 11.7625 21.448 11.767C21.1149 11.767 20.7818 11.767 20.4488 11.767C21.1418 11.9144 21.8518 11.9651 22.5587 11.9177L23.484 11.8424C23.5759 11.8348 23.7455 11.9494 23.7394 12.0247C23.7311 12.1347 23.6226 12.1182 23.551 12.143C23.5065 12.1557 23.4608 12.1638 23.4147 12.1671C22.6193 12.2515 21.8182 12.2689 21.02 12.2191C20.6786 12.2033 20.3365 12.1792 19.9952 12.1589C20.5822 12.3129 21.1855 12.3961 21.7923 12.4068C22.4216 12.4185 23.051 12.3875 23.6761 12.3141C23.7244 12.3083 23.7733 12.316 23.8174 12.3365C23.8615 12.357 23.8989 12.3895 23.9255 12.4301C23.9806 12.4972 23.9662 12.5394 23.8871 12.5665C23.7298 12.6161 23.5676 12.6487 23.4034 12.6637C22.3456 12.777 21.2777 12.7517 20.2265 12.5884C20.0954 12.5688 19.9658 12.5273 19.8301 12.5514C19.945 12.5954 20.0629 12.6312 20.1828 12.6584C21.2287 12.8848 22.3067 12.9218 23.3657 12.7677C23.4471 12.7536 23.5295 12.7466 23.6121 12.7466C23.6535 12.7502 23.6928 12.7667 23.7244 12.7937C23.756 12.8207 23.7784 12.857 23.7884 12.8973C23.8118 12.981 23.7131 12.9892 23.6535 13.0111C23.5906 13.0336 23.5258 13.0505 23.4599 13.0616C22.5489 13.2439 21.6326 13.1746 20.717 13.1083C20.4322 13.088 20.1481 13.054 19.8633 13.0262C20.0226 13.1089 20.1949 13.1637 20.3727 13.1882C21.3003 13.3607 22.2309 13.32 23.1607 13.2258C23.2267 13.2154 23.2943 13.2235 23.3559 13.2493C23.4176 13.2752 23.4708 13.3176 23.5096 13.372C23.585 13.4632 23.5782 13.5227 23.4689 13.574C23.3363 13.6395 23.1901 13.6591 23.0484 13.7089C23.1992 13.9025 23.1992 13.9153 22.9595 13.9605C22.6294 14.019 22.2948 14.0483 21.9596 14.0479C21.4809 14.0491 21.0026 14.0187 20.5279 13.9568C20.5279 13.9424 20.5151 13.9327 20.5015 13.9432C20.488 13.9538 20.5053 13.9651 20.5083 13.9764C20.6093 14.0969 20.6824 14.2612 20.8361 14.3139C21.1421 14.4234 21.4631 14.4851 21.7878 14.497C22.386 14.4997 22.9816 14.4167 23.5563 14.2506C23.6255 14.2336 23.6875 14.1951 23.7334 14.1406C24.0727 13.7592 24.3556 13.3311 24.5736 12.8694C24.696 12.6235 24.7211 12.3403 24.6437 12.0767C24.4274 11.3466 24.2013 10.6202 23.9429 9.90356C23.931 9.86502 23.9093 9.8302 23.88 9.80248C23.8507 9.77476 23.8147 9.75507 23.7756 9.74532C23.2775 9.57683 22.7584 9.47843 22.2331 9.45296C22.1043 9.44768 21.9754 9.44165 21.8473 9.44844C21.8195 9.44844 21.7079 9.46275 21.7644 9.52379C21.8699 9.64058 21.7795 9.68203 21.6891 9.74984C21.8503 9.74984 21.9656 9.78752 22.0455 9.90733C22.0847 9.96535 22.102 10.0091 22.0146 10.0317L21.7622 10.0701C21.8448 10.0976 21.9332 10.1025 22.0184 10.0844ZM25.6564 27.108V27.0688C25.5501 27.0688 25.4439 27.0688 25.3376 27.0688C24.4003 27.0628 23.4629 27.1178 22.524 27.0688C21.3613 27.0116 20.2031 26.9407 19.1075 26.4524C19.1075 26.5805 19.1173 26.7041 19.1075 26.8254C19.0977 26.9468 19.1467 26.9709 19.2582 26.9709C19.7533 26.9709 20.2453 27.0281 20.7374 27.0741C21.9845 27.1901 23.2316 27.3002 24.4862 27.2542C24.8803 27.2463 25.2725 27.1973 25.6564 27.108ZM19.1279 23.8121C19.1279 23.8957 19.0902 23.9666 19.1972 23.9854C19.6335 24.0608 20.063 24.173 20.5068 24.2032C20.8971 24.2303 21.2912 24.1941 21.6778 24.2785C21.8956 24.3268 22.1103 24.4021 22.3311 24.4232C22.9986 24.4856 23.6699 24.4972 24.3392 24.4579C24.693 24.4461 25.0447 24.4002 25.3896 24.3207C25.3363 24.3101 25.282 24.3058 25.2276 24.3079C24.6859 24.3124 24.1448 24.2959 23.6038 24.2725C22.9754 24.2454 22.3507 24.1632 21.72 24.1361C20.8519 24.0992 19.9839 24.0562 19.1279 23.8121ZM25.2585 25.2347V25.1933C24.7507 25.1933 24.2428 25.2008 23.7357 25.1933C22.9211 25.1782 22.1088 25.118 21.298 25.0373C20.8888 24.9974 20.488 24.8798 20.0713 24.9047C19.7875 24.9128 19.5039 24.8845 19.2273 24.8203C19.1897 24.8128 19.1196 24.7563 19.1075 24.8459C19.0985 24.9122 19.0902 24.9831 19.2055 24.9966C19.5687 25.0373 19.9296 25.1029 20.2936 25.1413C21.6788 25.2857 23.0721 25.339 24.4643 25.3011C24.7305 25.303 24.9963 25.2808 25.2585 25.2347ZM19.103 25.9438C19.239 25.8946 19.3837 25.874 19.528 25.8835C20.0555 25.9205 20.5829 26.0079 21.1104 26.0764C21.953 26.1879 22.8009 26.2558 23.6505 26.2799C23.9595 26.2874 24.2692 26.2626 24.5789 26.2528C22.7305 26.1872 20.8926 26.0802 19.1053 25.5301L19.103 25.9438ZM25.2065 29.4688L25.2013 29.4281C24.9081 29.4281 24.6143 29.4243 24.3204 29.4281C22.7124 29.4515 21.1044 29.5035 19.5076 29.239C19.4798 29.2344 19.4255 29.2051 19.424 29.2601C19.424 29.3023 19.4089 29.3723 19.4865 29.3814C19.5272 29.3859 19.5687 29.3867 19.6101 29.3882C20.1451 29.4115 20.6809 29.4296 21.2151 29.4582C22.3062 29.5163 23.4003 29.5826 24.4907 29.5261C24.7311 29.5125 24.9707 29.4861 25.2096 29.4665L25.2065 29.4688ZM25.6526 27.8683C24.5336 27.8856 23.4162 27.9542 22.2964 27.9437C23.4222 28.0838 24.5442 28.2292 25.6556 27.8661L25.6526 27.8683ZM20.5867 23.2002C20.7785 23.2422 20.9728 23.2719 21.1684 23.2892C21.5798 23.3042 21.9913 23.3248 22.4027 23.3509C22.478 23.3555 22.5835 23.3374 22.6348 23.4052C22.6624 23.4386 22.698 23.4646 22.7383 23.4808C22.7786 23.497 22.8222 23.5028 22.8653 23.4979C23.2828 23.5114 23.6995 23.5431 24.1177 23.5175C24.3811 23.5105 24.6437 23.4853 24.9036 23.4421C24.7831 23.4301 24.6625 23.4195 24.5412 23.4195C23.5715 23.4203 22.6028 23.3564 21.6416 23.2281C21.2917 23.1847 20.9384 23.1754 20.5867 23.2002ZM24.0838 18.1064C23.2964 17.9082 22.5014 17.7696 21.7042 17.6294C21.6582 17.6219 21.5844 17.582 21.5685 17.6415C21.5527 17.701 21.6348 17.7003 21.6785 17.7123C22.1315 17.851 22.5932 17.9595 23.0605 18.0371C23.3984 18.0943 23.7412 18.1178 24.0838 18.1072V18.1064ZM20.6929 21.336C21.7461 21.5327 22.8183 21.6085 23.8886 21.5621C22.8216 21.498 21.7546 21.4438 20.6922 21.3368L20.6929 21.336ZM25.8576 8.67683C25.8372 8.66854 25.8312 8.66402 25.8282 8.66477C25.3716 8.86144 24.9134 9.05434 24.4598 9.25704C24.3709 9.29622 24.4319 9.38363 24.4417 9.44844C24.4515 9.51324 24.5005 9.49666 24.5457 9.47858C25.0272 9.29246 25.4379 8.98879 25.8568 8.67984L25.8576 8.67683ZM22.8473 33.1611C22.8251 33.1527 22.8021 33.1469 22.7787 33.1437C22.1305 33.1188 21.485 33.0466 20.8474 32.9275C20.7984 32.9184 20.7525 32.9086 20.7525 32.9825C20.7525 33.0345 20.7186 33.0932 20.815 33.1061C21.4889 33.1922 22.1697 33.2106 22.8473 33.1611ZM24.2247 10.1281C24.4342 10.8108 24.6768 11.4792 24.8885 12.1626C24.817 11.4332 24.5525 10.7671 24.2247 10.1281ZM21.9867 32.287C21.3462 32.2116 20.7057 32.1257 20.0502 32.018C20.1549 32.1596 20.1549 32.1641 20.2212 32.1739C20.8061 32.2557 21.3962 32.2935 21.9867 32.287ZM20.9898 33.7367C21.035 33.8121 21.0652 33.8912 21.1511 33.9018C21.4939 33.9455 21.8398 33.944 22.1842 33.9605C22.2143 33.9605 22.2595 33.9673 22.2595 33.9297C22.2655 33.8792 22.2166 33.8792 22.1842 33.8754L20.9898 33.7367ZM21.1933 22.2538C20.5603 22.1355 19.9326 22.0021 19.3155 21.822C19.2771 21.8107 19.2228 21.7618 19.2017 21.8296C19.1806 21.8974 19.2552 21.9049 19.2997 21.9147C19.6669 21.9951 20.0341 22.0737 20.4013 22.1506C20.662 22.2048 20.9205 22.284 21.1933 22.2538ZM23.3107 9.41076C23.0002 9.26005 22.0515 9.1621 21.7742 9.26005C22.2897 9.26688 22.8037 9.31729 23.3107 9.41076ZM23.8683 18.9391L24.9518 19.0898C24.9375 18.9654 24.884 18.9263 24.7491 18.9315C24.5487 18.9391 24.346 18.9798 24.1418 18.9225C24.0975 18.9066 24.0504 18.8998 24.0033 18.9027C23.9563 18.9055 23.9104 18.9179 23.8683 18.9391ZM20.4209 30.9201C20.1116 30.8641 19.8057 30.7906 19.5046 30.7001C19.4293 30.6782 19.4157 30.7061 19.3991 30.7641C19.3765 30.8462 19.4398 30.8304 19.4745 30.8357C19.7186 30.8688 19.9628 30.905 20.2077 30.9284C20.271 30.9367 20.3297 31.003 20.4209 30.9231V30.9201ZM25.8546 28.8517C25.847 28.6899 25.8397 28.5276 25.8327 28.3649C25.7129 28.3897 25.5931 28.4131 25.474 28.4402C25.4688 28.4402 25.465 28.453 25.4522 28.4726C25.6594 28.5178 25.7551 28.6746 25.8546 28.8517ZM25.0596 25.7366C25.2962 25.7471 25.5253 25.7562 25.7543 25.7697C25.8124 25.7735 25.8214 25.7509 25.8222 25.7012C25.8229 25.6514 25.8033 25.6311 25.7468 25.6386C25.5208 25.6695 25.2902 25.7012 25.0596 25.7336V25.7366ZM25.0483 23.8867V23.9138C25.2533 23.9138 25.4582 23.9138 25.6624 23.9138C25.7317 23.9138 25.7378 23.8822 25.7332 23.8302C25.7287 23.7782 25.725 23.742 25.6534 23.7586C25.4499 23.8031 25.2487 23.8422 25.0483 23.8837V23.8867ZM20.1346 30.4732C20.3403 30.5848 21.2212 30.6887 21.454 30.633L20.1346 30.4732ZM19.7864 21.1657L19.7804 21.2094L20.5287 21.3285L20.5354 21.284C20.2853 21.2705 20.0411 21.1718 19.7864 21.1657ZM19.5845 24.7005L19.1038 24.5272C19.1038 24.5958 19.0683 24.6651 19.1595 24.6726C19.2884 24.6862 19.415 24.7291 19.5845 24.702V24.7005ZM22.8194 17.3913L23.7929 17.5827L23.8012 17.539C23.4782 17.4647 23.15 17.4151 22.8194 17.3906V17.3913ZM23.6098 16.8209L24.0325 16.9467C24.0054 16.885 23.9986 16.8247 23.9693 16.8104C23.8562 16.7523 23.7311 16.8307 23.6098 16.8202V16.8209ZM19.1738 22.5823C19.1565 22.7391 19.268 22.7881 19.4941 22.733L19.1738 22.5823ZM21.0795 26.5157L20.4571 26.4246C20.6562 26.4969 20.868 26.5279 21.0795 26.5157ZM25.2239 21.1009L25.2193 21.1265L25.5208 21.1815C25.566 21.1898 25.5697 21.1635 25.5667 21.128C25.5637 21.0926 25.5547 21.0625 25.5019 21.0708C25.4092 21.0836 25.3188 21.0904 25.2254 21.0994L25.2239 21.1009ZM25.41 24.7932L25.7204 24.8316C25.7611 24.8369 25.7905 24.8316 25.7868 24.7789C25.783 24.7261 25.7694 24.7171 25.7197 24.7299C25.6293 24.7487 25.5351 24.7638 25.4092 24.7887L25.41 24.7932ZM25.5042 29.9066C25.6082 29.9066 25.7031 29.9066 25.7981 29.9066C25.835 29.9066 25.8591 29.8998 25.8568 29.8599C25.8546 29.8199 25.8199 29.8184 25.7905 29.829C25.7001 29.8584 25.5984 29.8463 25.5042 29.9066ZM23.9821 30.3587V30.379H24.725V30.3587H23.9821ZM23.7213 18.8856C23.5819 18.8554 23.4433 18.8155 23.2994 18.8584C23.4395 18.8773 23.5752 18.9519 23.7213 18.8856ZM24.4824 22.886C24.5962 22.8657 24.7409 22.9908 24.8328 22.819L24.4824 22.886ZM22.3673 14.8911C22.5468 14.9331 22.7346 14.9227 22.9083 14.861C22.7048 14.818 22.5383 14.8678 22.3673 14.8911ZM21.8745 34.7291C22.0252 34.7759 22.1653 34.8497 22.3612 34.8331C22.2087 34.7627 22.0424 34.7272 21.8745 34.7291ZM22.3198 33.907V33.9342H22.6966V33.907H22.3198ZM24.334 22.2011H24.5193C24.5256 22.2015 24.532 22.2006 24.5379 22.1984C24.5439 22.1962 24.5493 22.1928 24.5538 22.1884C24.5584 22.184 24.5619 22.1787 24.5643 22.1728C24.5667 22.167 24.5678 22.1607 24.5675 22.1543C24.5675 22.1332 24.5585 22.1099 24.5359 22.1121C24.4651 22.1189 24.3694 22.0752 24.3362 22.2011H24.334ZM25.4092 20.1311C25.355 20.0369 25.355 20.0369 25.1334 20.0852C25.2217 20.1174 25.3153 20.133 25.4092 20.1311ZM20.8188 19.508V19.5562L21.2264 19.5969C21.0987 19.5379 20.9595 19.5075 20.8188 19.508ZM19.8799 12.8016C19.8035 12.749 19.7134 12.7199 19.6207 12.718C19.7126 12.8174 19.8053 12.7843 19.8799 12.8016ZM25.5517 12.9214C25.5551 12.8182 25.5238 12.7169 25.4627 12.6336C25.4846 12.7308 25.4703 12.84 25.5517 12.9214ZM20.2393 19.988C20.1301 19.9661 20.0276 19.9126 19.913 19.9473C20.0155 19.9925 20.1289 20.0066 20.2393 19.988ZM21.6183 29.8832C21.6974 29.893 21.7757 29.9714 21.8647 29.8976L21.6183 29.8832ZM21.9362 29.9352C21.9784 29.9428 22.0116 29.9563 22.0523 29.9239C22.0108 29.9156 21.9792 29.9013 21.9362 29.9352ZM20.3425 20.0038L20.335 20.0226C20.3483 20.0284 20.3627 20.0315 20.3772 20.0317C20.3945 20.0317 20.4247 20.052 20.4292 20.0121L20.3425 20.0038ZM22.7214 17.3499C22.7059 17.3489 22.6903 17.3489 22.6747 17.3499C22.6581 17.3499 22.6566 17.3589 22.6747 17.3642C22.6841 17.3665 22.6939 17.3665 22.7033 17.3642C22.7063 17.3619 22.7116 17.3567 22.7214 17.3499Z" fill="#181818"/>
<path d="M13.5036 7.76434C13.5669 7.77112 13.5902 7.82915 13.6264 7.86833C14.1222 8.3958 14.5027 9.01368 14.9571 9.57431C15.7408 10.5403 16.6088 11.4137 17.6638 12.0873C17.6834 12.1001 17.7203 12.1001 17.709 12.1348C17.6977 12.1694 17.6592 12.1725 17.6336 12.1574C17.5206 12.0971 17.4076 12.0376 17.2983 11.969C16.0927 11.2064 15.1184 10.2005 14.242 9.08828C13.9413 8.70165 13.6949 8.27574 13.5096 7.82236C13.5036 7.80353 13.487 7.78695 13.5036 7.76434Z" fill="#181818"/>
<path d="M22.1329 10.4657C22.298 10.467 22.4626 10.4457 22.6219 10.4024C22.7252 10.3745 22.7402 10.318 22.6694 10.2351C22.6422 10.1974 22.6072 10.166 22.5667 10.143C22.5263 10.12 22.4814 10.1059 22.4351 10.1018C22.2964 10.095 22.1578 10.092 22.0184 10.0875L22.0123 10.0347C22.0998 10.0121 22.0824 9.96839 22.0432 9.91037C21.9634 9.79056 21.8481 9.74987 21.6868 9.75289C21.778 9.68884 21.8684 9.64739 21.7622 9.52683C21.7057 9.46429 21.8172 9.45148 21.8451 9.45148C21.9732 9.4447 22.102 9.45148 22.2309 9.456C22.7561 9.48147 23.2752 9.57987 23.7733 9.74837C23.8125 9.75811 23.8484 9.7778 23.8777 9.80552C23.9071 9.83324 23.9287 9.86806 23.9406 9.90661C24.1991 10.6232 24.4251 11.3496 24.6414 12.0798C24.7188 12.3434 24.6938 12.6265 24.5713 12.8725C24.3533 13.3341 24.0704 13.7622 23.7311 14.1437C23.6852 14.1981 23.6232 14.2367 23.5541 14.2537C22.9793 14.4198 22.3838 14.5027 21.7855 14.5001C21.4608 14.4882 21.1398 14.4264 20.8338 14.317C20.6831 14.2642 20.6078 14.1 20.506 13.9794L20.5256 13.9598C21.0003 14.0217 21.4786 14.0522 21.9573 14.051C22.2926 14.0513 22.6272 14.0221 22.9573 13.9636C23.1939 13.9184 23.1999 13.9056 23.0462 13.7119C23.1878 13.6622 23.334 13.6426 23.4666 13.577C23.5759 13.5235 23.5812 13.4662 23.5073 13.3751C23.4685 13.3207 23.4153 13.2782 23.3537 13.2524C23.2921 13.2266 23.2244 13.2184 23.1585 13.2289C22.2279 13.3231 21.2972 13.3638 20.3704 13.1912C20.1933 13.166 20.0218 13.1107 19.8633 13.0277C20.1481 13.0556 20.4322 13.0895 20.717 13.1098C21.6326 13.1761 22.5489 13.2455 23.4599 13.0631C23.5258 13.0521 23.5906 13.0352 23.6535 13.0126C23.7115 12.9908 23.8118 12.9825 23.7884 12.8988C23.7784 12.8585 23.756 12.8223 23.7244 12.7953C23.6928 12.7683 23.6535 12.7518 23.6121 12.7481C23.5295 12.7481 23.447 12.7551 23.3657 12.7692C22.3067 12.9234 21.2287 12.8864 20.1828 12.66C20.0629 12.6327 19.945 12.597 19.8301 12.553C19.9658 12.5289 20.0954 12.5703 20.2265 12.5899C21.2776 12.7532 22.3456 12.7785 23.4033 12.6653C23.5676 12.6503 23.7298 12.6177 23.8871 12.568C23.9662 12.5409 23.9805 12.4987 23.9255 12.4317C23.8989 12.391 23.8615 12.3586 23.8174 12.3381C23.7733 12.3176 23.7244 12.3098 23.6761 12.3156C23.051 12.3891 22.4216 12.42 21.7923 12.4083C21.1849 12.3985 20.5807 12.3161 19.9929 12.1627C20.3342 12.183 20.6763 12.2071 21.0177 12.2229C21.816 12.2727 22.617 12.2553 23.4124 12.1709C23.4586 12.1676 23.5043 12.1595 23.5488 12.1468C23.6204 12.122 23.7289 12.1385 23.7372 12.0285C23.7432 11.9532 23.5736 11.8386 23.4817 11.8462L22.5564 11.9215C21.8495 11.9689 21.1395 11.9182 20.4465 11.7708C20.7796 11.7708 21.1126 11.7708 21.4457 11.7708C22.0749 11.7663 22.7041 11.7542 23.3295 11.7105C23.3706 11.7101 23.4116 11.7051 23.4516 11.6955C23.5269 11.6729 23.5541 11.6284 23.4983 11.5583C23.4725 11.5203 23.4391 11.488 23.4002 11.4636C23.3613 11.4392 23.3177 11.4232 23.2722 11.4167C23.0462 11.3895 22.8292 11.4234 22.6076 11.4212C22.2783 11.4212 21.9498 11.4212 21.6205 11.4212V11.3797C22.0071 11.3594 22.3944 11.3398 22.7817 11.318C22.9051 11.3156 23.0283 11.3045 23.1502 11.2848C23.3009 11.2539 23.3092 11.2094 23.2127 11.0934C23.18 11.0541 23.1375 11.0242 23.0894 11.0069C23.0413 10.9895 22.9894 10.9853 22.9392 10.9947C22.3558 11.0391 21.7697 11.0338 21.1872 10.9789C21.3636 10.9193 21.5346 10.945 21.7019 10.9359C22.0727 10.9189 22.4418 10.8739 22.8058 10.801C22.8812 10.786 23.0032 10.801 22.9889 10.6895C22.9805 10.6376 22.9534 10.5905 22.9128 10.557C22.8722 10.5236 22.8207 10.5061 22.7681 10.5079C22.5564 10.5079 22.3454 10.5185 22.1344 10.5245C22.1231 10.5034 22.105 10.4853 22.1329 10.4657Z" fill="#F8F2EA"/>
<path d="M25.6564 27.108C25.2711 27.1992 24.8774 27.2497 24.4816 27.2587C23.227 27.3017 21.9799 27.1947 20.7329 27.0786C20.2408 27.0327 19.7488 26.9761 19.2537 26.9754C19.1444 26.9754 19.0932 26.9535 19.103 26.83C19.1128 26.7064 19.103 26.5851 19.103 26.457C20.1986 26.9453 21.3568 27.0161 22.5195 27.0734C23.4584 27.1193 24.3957 27.0643 25.3331 27.0734C25.4394 27.0734 25.5456 27.0734 25.6519 27.0734L25.6564 27.108Z" fill="#F8F2EA"/>
<path d="M19.1278 23.8121C19.9846 24.0563 20.8519 24.0992 21.7237 24.1377C22.3507 24.1648 22.9753 24.2469 23.6075 24.274C24.1486 24.2974 24.6896 24.314 25.2314 24.3095C25.2857 24.3074 25.3401 24.3117 25.3934 24.3223C25.0485 24.4017 24.6967 24.4476 24.343 24.4594C23.6737 24.4987 23.0024 24.4872 22.3348 24.4247C22.1141 24.4036 21.8993 24.3283 21.6815 24.2801C21.295 24.1942 20.9009 24.2303 20.5106 24.2047C20.0667 24.1746 19.6372 24.0623 19.2009 23.987C19.0902 23.9666 19.1256 23.8958 19.1278 23.8121Z" fill="#F8F2EA"/>
<path d="M25.2585 25.2347C24.996 25.2804 24.73 25.3021 24.4636 25.2995C23.0713 25.3375 21.6781 25.2842 20.2928 25.1398C19.9289 25.1014 19.5679 25.0358 19.2047 24.9951C19.0894 24.9816 19.0977 24.9107 19.1068 24.8444C19.1188 24.7547 19.1889 24.8113 19.2266 24.8188C19.5031 24.8829 19.7868 24.9113 20.0705 24.9032C20.4872 24.8783 20.8881 24.9959 21.2973 25.0358C22.108 25.1157 22.9203 25.1767 23.7349 25.1918C24.242 25.2008 24.7499 25.1918 25.2578 25.1918L25.2585 25.2347Z" fill="#F8F2EA"/>
<path d="M16.4544 6.8194C16.8801 7.29562 17.3006 7.77713 17.8009 8.17574C18.3499 8.62152 18.9727 8.96783 19.641 9.19902C19.6629 9.20818 19.6841 9.21901 19.7043 9.23143C19.6094 9.33541 19.5129 9.43262 19.427 9.53886C19.3697 9.60969 19.3283 9.5577 19.2831 9.53359C18.7933 9.27136 18.3676 8.92248 17.9516 8.55928C17.3932 8.07251 16.957 7.47421 16.4739 6.91962C16.4567 6.89442 16.4423 6.86738 16.431 6.83899L16.4544 6.8194Z" fill="#F8F2EA"/>
<path d="M19.1038 25.9416V25.5279C20.8911 26.078 22.729 26.185 24.5774 26.2505C24.2677 26.2603 23.958 26.2852 23.649 26.2776C22.7994 26.2536 21.9515 26.1857 21.1089 26.0742C20.5814 26.0056 20.0592 25.9182 19.5265 25.8813C19.3829 25.8721 19.239 25.8926 19.1038 25.9416Z" fill="#F8F2EA"/>
<path d="M25.2096 29.4665C24.9707 29.4861 24.7326 29.5125 24.4937 29.5246C23.4003 29.5811 22.3085 29.5148 21.2181 29.4567C20.6839 29.4281 20.1481 29.41 19.6131 29.3867C19.5717 29.3867 19.5303 29.3867 19.4896 29.3799C19.4142 29.3708 19.4263 29.3008 19.427 29.2586C19.427 29.2036 19.4828 29.2329 19.5107 29.2375C21.1074 29.4997 22.7154 29.45 24.3234 29.4266C24.6173 29.4221 24.9112 29.4266 25.2043 29.4266L25.2096 29.4665Z" fill="#F8F2EA"/>
<path d="M21.3553 32.6291C21.9837 32.663 22.6129 32.6585 23.2391 32.6457C23.808 32.6336 24.3761 32.6103 24.9465 32.6042C24.7183 32.6869 24.4796 32.7376 24.2375 32.755C23.2941 32.8589 22.3537 32.8039 21.4155 32.6856C21.3952 32.6814 21.3753 32.6754 21.356 32.6675L21.3553 32.6291Z" fill="#F8F2EA"/>
<path d="M24.1124 28.8893C22.5443 28.933 20.9959 28.7462 19.4549 28.4847C19.3931 28.4741 19.3238 28.4734 19.3426 28.38C19.3637 28.2737 19.4315 28.3445 19.4722 28.3551C20.4254 28.5924 21.399 28.6836 22.3756 28.7522C22.9784 28.7951 23.5812 28.8373 24.184 28.8321L24.1124 28.8893Z" fill="#F8F2EA"/>
<path d="M25.6556 27.8661C24.5442 28.2293 23.4222 28.0839 22.2994 27.9414C23.4192 27.952 24.5366 27.8834 25.6556 27.8661Z" fill="#F8F2EA"/>
<path d="M20.5867 23.2002C20.9384 23.1751 21.2917 23.1842 21.6416 23.2274C22.6021 23.3553 23.57 23.419 24.5389 23.418C24.6602 23.418 24.7808 23.4285 24.9013 23.4406C24.6414 23.4838 24.3788 23.5089 24.1154 23.516C23.6972 23.5416 23.2805 23.5099 22.8631 23.4964C22.82 23.5013 22.7763 23.4954 22.736 23.4793C22.6958 23.4631 22.6602 23.4371 22.6325 23.4037C22.5812 23.3359 22.4818 23.3539 22.4004 23.3494C21.989 23.3238 21.5776 23.3032 21.1661 23.2876C20.9713 23.2708 20.7778 23.2416 20.5867 23.2002Z" fill="#F8F2EA"/>
<path d="M21.2046 20.1583C21.8729 20.2479 22.5421 20.3225 23.2135 20.3843C23.8577 20.4454 24.502 20.5056 25.1462 20.5765C24.9202 20.6383 24.6904 20.6187 24.4628 20.6217C23.6437 20.6345 22.8442 20.4785 22.0447 20.3308C21.7674 20.2803 21.4894 20.2314 21.2113 20.1801C21.2125 20.1762 21.2125 20.172 21.2113 20.1681C21.2101 20.1642 21.2078 20.1608 21.2046 20.1583Z" fill="#F8F2EA"/>
<path d="M24.0838 18.1072C23.7412 18.1181 23.3984 18.0949 23.0605 18.0379C22.5932 17.9603 22.1315 17.8518 21.6785 17.7131C21.6348 17.7011 21.5497 17.7131 21.5685 17.6423C21.5873 17.5715 21.6582 17.6227 21.7041 17.6302C22.4999 17.7704 23.2993 17.909 24.0838 18.1072Z" fill="#F8F2EA"/>
<path d="M20.6922 21.3368C21.7546 21.4438 22.8216 21.498 23.8879 21.5628C22.8175 21.6093 21.7453 21.5335 20.6922 21.3368Z" fill="#F8F2EA"/>
<path d="M25.8568 8.67986C25.4378 8.98881 25.0279 9.29248 24.5449 9.48161C24.4997 9.4997 24.453 9.52532 24.4409 9.45147C24.4289 9.37762 24.3701 9.30077 24.459 9.26008C24.9111 9.05738 25.3708 8.86448 25.8274 8.66781C25.8304 8.66705 25.8365 8.67157 25.8568 8.67986Z" fill="#F8F2EA"/>
<path d="M22.8472 33.1611C22.1689 33.2108 21.4873 33.1924 20.8127 33.1061C20.7163 33.0932 20.7509 33.0345 20.7502 32.9825C20.7502 32.9071 20.7961 32.9184 20.8451 32.9275C21.4834 33.0477 22.1297 33.121 22.7787 33.1467C22.802 33.149 22.825 33.1538 22.8472 33.1611Z" fill="#F8F2EA"/>
<path d="M26.8982 8.25184C26.2704 8.86472 25.5581 9.38464 24.7831 9.79581C24.728 9.82595 24.6323 9.9126 24.5902 9.81917C24.5615 9.75662 24.6821 9.7521 24.7356 9.72799C25.2389 9.50193 25.6662 9.15757 26.1017 8.82828C26.3602 8.63237 26.6126 8.42892 26.8681 8.22546L26.8982 8.25184Z" fill="#F8F2EA"/>
<path d="M21.717 31.0444C21.8526 31.0881 21.9927 31.0603 22.1306 31.0625C22.9957 31.0877 23.8614 31.0668 24.7243 31C24.8149 30.9861 24.9076 30.9935 24.9948 31.0218C24.7167 31.0527 24.4786 31.0844 24.2413 31.1032C24.0039 31.122 23.7583 31.1326 23.5164 31.1386C22.9136 31.1529 22.3107 31.11 21.7079 31.0851L21.717 31.0444Z" fill="#F8F2EA"/>
<path d="M21.9611 31.5056C21.2927 31.4973 20.6243 31.4905 19.9635 31.3707C19.8625 31.3526 19.7623 31.3285 19.6621 31.3082C19.6267 31.3006 19.5822 31.2999 19.5867 31.2494C19.5913 31.1989 19.6425 31.2208 19.6726 31.2245C20.0954 31.2765 20.5181 31.3361 20.9416 31.3835C21.2837 31.4212 21.6258 31.4589 21.9709 31.4664L21.9611 31.5056Z" fill="#F8F2EA"/>
<path d="M24.2247 10.1281C24.5525 10.7694 24.817 11.4332 24.8886 12.1626C24.6783 11.4792 24.4342 10.8108 24.2247 10.1281Z" fill="#F8F2EA"/>
<path d="M21.9867 32.287C21.3962 32.2935 20.8061 32.2557 20.2212 32.174C20.1549 32.1642 20.1549 32.1597 20.0502 32.018C20.7065 32.1258 21.3462 32.2086 21.9867 32.287Z" fill="#F8F2EA"/>
<path d="M20.9898 33.7368L22.1856 33.8754C22.2188 33.8792 22.2678 33.8792 22.261 33.9297C22.2557 33.9673 22.2135 33.9621 22.1856 33.9606C21.8413 33.944 21.4954 33.9455 21.1526 33.9018C21.0644 33.8912 21.0388 33.8136 20.9898 33.7368Z" fill="#F8F2EA"/>
<path d="M21.1932 22.2538C20.9205 22.284 20.6658 22.2049 20.4013 22.1506C20.0336 22.0738 19.6664 21.9951 19.2996 21.9148C19.2552 21.905 19.1776 21.908 19.2017 21.8296C19.2258 21.7512 19.277 21.8108 19.3155 21.8221C19.9326 22.0022 20.5603 22.1355 21.1932 22.2538Z" fill="#F8F2EA"/>
<path d="M22.4253 33.5183C22.9203 33.5409 23.4101 33.4813 23.9007 33.4293C24.0514 33.4135 24.2021 33.3954 24.3528 33.3939C23.7206 33.6094 23.0673 33.5891 22.4132 33.5665L22.4253 33.5183Z" fill="#F8F2EA"/>
<path d="M22.4705 35.2076C22.8081 35.1323 23.1532 35.0871 23.4817 34.9507C23.4101 35.1835 23.3551 35.2317 23.1374 35.237C22.9196 35.2423 22.6958 35.237 22.4743 35.237L22.4705 35.2076Z" fill="#F8F2EA"/>
<path d="M22.5458 34.2304C23.0334 34.2304 23.5141 34.1362 24.0016 34.1452C23.5254 34.2959 23.0341 34.2771 22.5458 34.2771V34.2304Z" fill="#F8F2EA"/>
<path d="M23.3107 9.41076C22.8037 9.31729 22.2897 9.26688 21.7742 9.26005C22.0515 9.16209 22.998 9.26005 23.3107 9.41076Z" fill="#F8F2EA"/>
<path d="M23.8683 18.9391C23.9102 18.9177 23.9561 18.905 24.0032 18.9019C24.0502 18.8988 24.0973 18.9053 24.1418 18.921C24.346 18.9783 24.5487 18.9376 24.7491 18.9301C24.884 18.9248 24.9375 18.964 24.9518 19.0883L23.8683 18.9391Z" fill="#F8F2EA"/>
<path d="M20.4209 30.9231C20.3297 31.003 20.2702 30.9367 20.2114 30.9314C19.9665 30.9081 19.7224 30.8719 19.4782 30.8387C19.4398 30.8335 19.3765 30.8493 19.4029 30.7672C19.4195 30.7091 19.436 30.6813 19.5084 30.7031C19.8082 30.7936 20.1128 30.867 20.4209 30.9231Z" fill="#F8F2EA"/>
<path d="M25.8541 28.8511C25.7547 28.6773 25.6591 28.5207 25.4522 28.4748C25.465 28.4552 25.4687 28.4432 25.474 28.4424C25.5929 28.4169 25.7126 28.3935 25.8322 28.3672C25.8393 28.5262 25.8465 28.6875 25.8541 28.8511Z" fill="#F8F2EA"/>
<path d="M25.0596 25.7335C25.2899 25.7011 25.5202 25.6695 25.749 25.6357C25.8024 25.6281 25.8242 25.6432 25.8242 25.6981C25.8242 25.7531 25.8144 25.7734 25.7565 25.7666C25.5247 25.7531 25.2959 25.744 25.0596 25.7335Z" fill="#F8F2EA"/>
<path d="M25.0483 23.8836C25.2485 23.8422 25.4494 23.803 25.6503 23.7571C25.7218 23.7406 25.7256 23.7774 25.7301 23.8286C25.7346 23.8798 25.7301 23.9137 25.6594 23.9122C25.4554 23.9076 25.2507 23.9122 25.046 23.9122L25.0483 23.8836Z" fill="#F8F2EA"/>
<path d="M20.1346 30.4733L21.454 30.633C21.2189 30.6888 20.338 30.5848 20.1346 30.4733Z" fill="#474747"/>
<path d="M27.5312 7.56691C27.6749 7.34791 27.8051 7.11536 28.0828 6.95355C27.9302 7.18197 27.7536 7.3934 27.556 7.58422C27.5485 7.57736 27.5402 7.57154 27.5312 7.56691Z" fill="#F8F2EA"/>
<path d="M22.5458 34.2304V34.2771C22.1819 34.3132 21.8217 34.2379 21.4585 34.2402C21.4453 34.2383 21.4327 34.2334 21.4216 34.226C21.4105 34.2186 21.4012 34.2087 21.3944 34.1972C21.7772 34.25 22.1645 34.1874 22.5458 34.2304Z" fill="#474747"/>
<path d="M21.7169 31.0444L21.7094 31.0851C21.4173 31.078 21.1258 31.0553 20.8361 31.0173C20.7389 31.0052 20.6349 31.0263 20.5422 30.9819V30.9337L21.7169 31.0444Z" fill="#474747"/>
<path d="M19.7864 21.1658C20.0408 21.1703 20.2809 21.2689 20.5345 21.2839L20.5277 21.3283L19.7804 21.2094L19.7864 21.1658Z" fill="#F8F2EA"/>
<path d="M20.8395 20.5853C20.5438 20.5101 20.2375 20.492 19.9854 20.4009C20.2457 20.4047 20.531 20.4988 20.8252 20.5341L20.8395 20.5853Z" fill="#F8F2EA"/>
<path d="M19.5839 24.7018C19.4145 24.7289 19.2881 24.686 19.1594 24.674C19.0684 24.6665 19.106 24.5987 19.1037 24.5287L19.5839 24.7018Z" fill="#F8F2EA"/>
<path d="M22.8194 17.3906C23.1492 17.4159 23.4767 17.4663 23.7989 17.5413L23.7907 17.585L22.8194 17.3906Z" fill="#474747"/>
<path d="M23.6098 16.8201C23.731 16.8306 23.8559 16.7524 23.9688 16.8096C23.9981 16.8239 24.0049 16.8848 24.032 16.9458L23.6098 16.8201Z" fill="#F8F2EA"/>
<path d="M19.1738 22.5824L19.494 22.7331C19.268 22.7881 19.155 22.7391 19.1738 22.5824Z" fill="#F8F2EA"/>
<path d="M21.0787 26.5156C20.8675 26.5278 20.6559 26.4968 20.4571 26.4246L21.0787 26.5156Z" fill="#F8F2EA"/>
<path d="M25.2254 21.0994C25.3188 21.0896 25.4122 21.0836 25.5049 21.0693C25.5576 21.061 25.5659 21.0859 25.5697 21.1265C25.5734 21.1672 25.5697 21.1883 25.5237 21.18L25.2224 21.125L25.2254 21.0994Z" fill="#F8F2EA"/>
<path d="M21.2037 20.1581C21.2075 20.1608 21.2103 20.1648 21.2115 20.1693C21.2128 20.1739 21.2124 20.1787 21.2105 20.183C20.9753 20.1548 20.7426 20.1087 20.5143 20.0452C20.7486 20.0469 20.9812 20.0849 21.2037 20.1581Z" fill="#474747"/>
<path d="M21.3546 32.629L21.3584 32.6704C21.1672 32.6953 20.9866 32.6418 20.8052 32.5907C20.9892 32.5763 21.1744 32.5892 21.3546 32.629Z" fill="#474747"/>
<path d="M25.4092 24.7886C25.5326 24.7638 25.6267 24.7487 25.7185 24.7254C25.7682 24.7126 25.7825 24.7291 25.7855 24.7743C25.7885 24.8195 25.7599 24.8322 25.7193 24.827L25.4092 24.7886Z" fill="#F8F2EA"/>
<path d="M25.5042 29.9066C25.5984 29.8486 25.7001 29.8606 25.7905 29.8312C25.8199 29.8207 25.8545 29.8147 25.8568 29.8621C25.859 29.9096 25.8349 29.9103 25.798 29.9088C25.7031 29.9066 25.6081 29.9066 25.5042 29.9066Z" fill="#F8F2EA"/>
<path d="M22.1323 10.4657C22.1044 10.4883 22.1225 10.5063 22.139 10.5236C21.9614 10.5522 21.7853 10.5236 21.6085 10.5154C21.7779 10.4636 21.9561 10.4467 22.1323 10.4657Z" fill="#474747"/>
<path d="M23.9821 30.3587H24.7241V30.379H23.9821V30.3587Z" fill="#474747"/>
<path d="M23.7208 18.8855C23.5748 18.9518 23.4393 18.8773 23.2993 18.8584C23.4431 18.8156 23.5816 18.8554 23.7208 18.8855Z" fill="#474747"/>
<path d="M24.4824 22.886L24.8327 22.819C24.7408 22.9907 24.5962 22.8657 24.4824 22.886Z" fill="#F8F2EA"/>
<path d="M22.3672 14.8911C22.5381 14.8678 22.7044 14.8158 22.9076 14.861C22.7341 14.9226 22.5465 14.933 22.3672 14.8911Z" fill="#474747"/>
<path d="M21.8745 34.7291C22.0422 34.7272 22.2083 34.7627 22.3606 34.833C22.1687 34.8458 22.0227 34.772 21.8745 34.7291Z" fill="#F8F2EA"/>
<path d="M22.4699 35.2076V35.2392C22.3122 35.2572 22.1527 35.229 22.0108 35.1579C22.1689 35.2046 22.3254 35.1519 22.4699 35.2076Z" fill="#474747"/>
<path d="M22.4248 33.5182L22.415 33.5664C22.2901 33.5566 22.1622 33.5807 22.0387 33.5182H22.4248Z" fill="#474747"/>
<path d="M20.8406 20.5855L20.8263 20.5343C20.9867 20.5506 21.1446 20.586 21.2967 20.6397C21.1427 20.6466 20.9886 20.6283 20.8406 20.5855Z" fill="#474747"/>
<path d="M22.3198 33.907H22.6961V33.9341H22.3198V33.907Z" fill="#F8F2EA"/>
<path d="M24.3362 22.2006C24.3692 22.0754 24.4643 22.1189 24.537 22.1122C24.5595 22.1122 24.5693 22.1331 24.5685 22.1541C24.5687 22.1604 24.5676 22.1667 24.5653 22.1725C24.5629 22.1784 24.5594 22.1836 24.5549 22.188C24.5503 22.1924 24.5449 22.1958 24.539 22.1979C24.5331 22.2001 24.5268 22.201 24.5205 22.2006H24.3362Z" fill="#F8F2EA"/>
<path d="M25.4092 20.1311C25.3152 20.133 25.2217 20.1174 25.1334 20.0852C25.3572 20.0355 25.3572 20.0355 25.4092 20.1311Z" fill="#F8F2EA"/>
<path d="M24.1124 28.8893L24.1817 28.8321H24.5226C24.3961 28.8966 24.2517 28.9168 24.1124 28.8893Z" fill="#474747"/>
<path d="M20.8187 19.508C20.9591 19.5076 21.0978 19.538 21.2251 19.5968L20.818 19.5562L20.8187 19.508Z" fill="#474747"/>
<path d="M19.8784 12.8012C19.8035 12.784 19.7121 12.8169 19.6207 12.718C19.7129 12.7199 19.8025 12.7488 19.8784 12.8012Z" fill="#F8F2EA"/>
<path d="M27.4994 12.3917C27.405 12.4657 27.295 12.5172 27.1777 12.5424L27.4791 12.3593L27.4994 12.3917Z" fill="#F8F2EA"/>
<path d="M25.5516 12.9214C25.4703 12.84 25.4876 12.7308 25.4627 12.6336C25.5238 12.7169 25.5551 12.8182 25.5516 12.9214Z" fill="#474747"/>
<path d="M20.2392 19.988C20.1289 20.0067 20.0154 19.9925 19.913 19.9473C20.0275 19.9104 20.13 19.9661 20.2392 19.988Z" fill="#474747"/>
<path d="M21.6183 29.8832L21.8633 29.8975C21.7749 29.9709 21.6969 29.893 21.6183 29.8832Z" fill="#474747"/>
<path d="M22.0109 10.0317L22.0169 10.0841C21.9315 10.1026 21.8428 10.0976 21.7599 10.0699L22.0109 10.0317Z" fill="#474747"/>
<path d="M21.9611 31.5053L21.9738 31.4664C22.0071 31.4582 22.0416 31.4569 22.0754 31.4626C22.1092 31.4682 22.1414 31.4808 22.1702 31.4994C22.1377 31.515 22.1023 31.5237 22.0663 31.5247C22.0302 31.5258 21.9944 31.5192 21.9611 31.5053Z" fill="#474747"/>
<path d="M26.9916 8.12383C27.0013 8.05639 27.0568 8.03241 27.1048 8.00244L27.1317 8.03092C27.1229 8.05831 27.1071 8.08297 27.086 8.10252C27.0649 8.12207 27.0391 8.13586 27.0111 8.14257L26.9916 8.12383Z" fill="#474747"/>
<path d="M21.9362 29.9351C21.979 29.9014 22.0112 29.9157 22.0517 29.9239C22.009 29.9561 21.9782 29.9426 21.9362 29.9351Z" fill="#474747"/>
<path d="M20.3425 20.0038L20.4284 20.012C20.4239 20.0516 20.394 20.0284 20.3768 20.0314C20.3624 20.0313 20.3482 20.0282 20.335 20.0225L20.3425 20.0038Z" fill="#474747"/>
<path d="M27.4927 7.66069C27.4987 7.69912 27.4743 7.71095 27.444 7.71908L27.4174 7.69247C27.4299 7.66808 27.4381 7.63926 27.475 7.64148L27.4927 7.66069Z" fill="#474747"/>
<path d="M22.7213 17.3499C22.7115 17.3567 22.7063 17.3619 22.701 17.3627C22.6916 17.365 22.6818 17.365 22.6724 17.3627C22.6566 17.3574 22.6581 17.3499 22.6724 17.3484C22.6887 17.3479 22.7051 17.3484 22.7213 17.3499Z" fill="#474747"/>
<path d="M26.9163 8.18354L26.991 8.12451L27.0104 8.14319L26.9357 8.20745L26.9163 8.18354Z" fill="#F8F2EA"/>
<path d="M27.1422 12.6148L27.076 12.6208C27.0756 12.6163 27.0756 12.6117 27.076 12.6072L27.143 12.6148H27.1422Z" fill="#F8F2EA"/>
<path d="M26.868 8.22776L26.9155 8.18402L26.9385 8.20774L26.8977 8.25074L26.868 8.22776Z" fill="#F8F2EA"/>
<path d="M16.1498 5.94433C16.1326 5.93308 16.1153 5.91133 16.1333 5.89859C16.1513 5.88584 16.1581 5.91433 16.1655 5.92858L16.1498 5.94433Z" fill="#474747"/>
<path d="M16.4066 6.77336L16.4532 6.81918L16.4303 6.84209C16.4059 6.82214 16.3704 6.80588 16.4088 6.76819L16.4066 6.77336Z" fill="#F8F2EA"/>
<path d="M16.3026 6.16537C16.2915 6.1543 16.2797 6.14322 16.2989 6.13068C16.2989 6.13068 16.3137 6.14101 16.3218 6.14618L16.3026 6.16537Z" fill="#474747"/>
<path d="M16.1748 5.98443L16.1499 5.94683L16.1657 5.93103L16.1943 5.96488L16.1748 5.98443Z" fill="#474747"/>
<path d="M16.194 5.9649C16.2058 5.97524 16.2184 5.98705 16.1984 5.9996C16.1984 5.9996 16.1829 5.99 16.1748 5.9841L16.194 5.9649Z" fill="#474747"/>
<path d="M16.2387 6.07502L16.2291 6.04181L16.2564 6.05657L16.2387 6.07502Z" fill="#474747"/>
<path d="M16.2566 6.05682L16.2669 6.08783L16.2389 6.07528L16.2566 6.05682Z" fill="#474747"/>
<path d="M16.322 6.14655C16.3331 6.15762 16.3442 6.16943 16.322 6.18124C16.322 6.18124 16.308 6.1709 16.2999 6.16574L16.322 6.14655Z" fill="#474747"/>
<path d="M16.4085 6.76725C16.4019 6.78128 16.3923 6.78645 16.379 6.77611C16.3779 6.77407 16.3773 6.77179 16.3773 6.76947C16.3773 6.76715 16.3779 6.76487 16.379 6.76282C16.393 6.75101 16.3996 6.76282 16.4055 6.77242L16.4085 6.76725Z" fill="#F8F2EA"/>
<path d="M28.0767 6.92857L28.1022 6.90833C28.1048 6.91181 28.1067 6.91578 28.1078 6.92002C28.1089 6.92425 28.1092 6.92866 28.1085 6.93298C28.1079 6.93731 28.1064 6.94147 28.1042 6.94521C28.1019 6.94896 28.099 6.95223 28.0954 6.95482L28.0767 6.92857Z" fill="#F8F2EA"/>
<path d="M27.1626 7.99939C27.163 8.00345 27.1626 8.00756 27.1613 8.01143C27.16 8.01531 27.1579 8.01887 27.1551 8.02186C27.1523 8.02485 27.1489 8.02722 27.1452 8.02879C27.1414 8.03036 27.1373 8.03111 27.1332 8.03098L27.1062 8.0024L27.1378 7.97156L27.1626 7.99939Z" fill="#474747"/>
<path d="M28.0953 6.95489C28.0833 6.96839 28.0698 6.98939 28.0526 6.96689C28.0353 6.9444 28.0623 6.93765 28.0766 6.92865L28.0953 6.95489Z" fill="#F8F2EA"/>
<path d="M27.5108 7.60216L27.531 7.56842C27.54 7.57303 27.5484 7.57883 27.5558 7.58567L27.5258 7.61791L27.5108 7.60216Z" fill="#F8F2EA"/>
<path d="M27.4761 7.64143L27.5107 7.60156L27.5258 7.61736L27.4942 7.66098L27.4761 7.64143Z" fill="#F8F2EA"/>
<path d="M27.1927 7.9685C27.1932 7.9726 27.1927 7.97675 27.1914 7.98065C27.1901 7.98455 27.1879 7.9881 27.185 7.99105C27.1821 7.994 27.1786 7.99628 27.1747 7.99771C27.1709 7.99915 27.1667 7.9997 27.1626 7.99934L27.1378 7.97151L27.1687 7.94067L27.1927 7.9685Z" fill="#474747"/>
<path d="M27.3857 7.72432L27.4173 7.69348L27.4444 7.72056C27.4444 7.73786 27.4331 7.74839 27.4135 7.74463L27.3857 7.72432Z" fill="#474747"/>
<path d="M27.2003 7.91044L27.2327 7.8811L27.2583 7.90668C27.2584 7.91073 27.2577 7.91477 27.2561 7.91851C27.2545 7.92225 27.2521 7.9256 27.2491 7.92832C27.2461 7.93105 27.2425 7.93308 27.2387 7.93428C27.2348 7.93547 27.2307 7.93581 27.2267 7.93526L27.2003 7.91044Z" fill="#474747"/>
<path d="M20.5066 13.9779C20.5066 13.9668 20.4963 13.9491 20.5 13.9454C20.5037 13.9418 20.5221 13.9454 20.5258 13.9587L20.5066 13.9779Z" fill="#F8F2EA"/>
<path d="M27.2929 7.87508L27.2621 7.90667L27.2365 7.8811L27.2681 7.85101L27.2929 7.87508Z" fill="#474747"/>
<path d="M27.1421 12.6144L27.1205 12.5816L27.1339 12.5764C27.1339 12.5891 27.1339 12.6018 27.1392 12.6144H27.1421Z" fill="#F8F2EA"/>
<path d="M27.2266 7.93534C27.2267 7.93978 27.2259 7.9442 27.2242 7.94831C27.2226 7.95243 27.2201 7.95615 27.2169 7.95926C27.2137 7.96236 27.2099 7.96478 27.2058 7.96636C27.2016 7.96794 27.1972 7.96865 27.1928 7.96844L27.1687 7.94061L27.2003 7.91052L27.2266 7.93534Z" fill="#474747"/>
<path d="M27.293 7.81856C27.3036 7.80803 27.3141 7.79825 27.3239 7.78772L27.3509 7.81329L27.3186 7.84488L27.293 7.81856Z" fill="#474747"/>
<path d="M27.4769 12.3616C27.4934 12.3555 27.5115 12.3292 27.5273 12.354C27.5431 12.3789 27.5175 12.3849 27.4995 12.3916L27.4769 12.3616Z" fill="#F8F2EA"/>
<path d="M27.3541 7.75295L27.3857 7.72211L27.4135 7.74242C27.4143 7.74698 27.414 7.75166 27.4128 7.75613C27.4115 7.76059 27.4093 7.76473 27.4063 7.76824C27.4033 7.77176 27.3996 7.77457 27.3953 7.77648C27.3911 7.77838 27.3865 7.77934 27.3819 7.77927L27.3541 7.75295Z" fill="#474747"/>
<path d="M27.3818 7.78164L27.3518 7.81323L27.3247 7.78765L27.354 7.75531L27.3818 7.78164Z" fill="#474747"/>
<path d="M27.2644 7.85095L27.2937 7.8186L27.3193 7.84493C27.3095 7.85546 27.299 7.86524 27.2892 7.87501L27.2644 7.85095Z" fill="#474747"/>
</svg>
