<svg width="28" height="27" viewBox="0 0 28 27" fill="none" xmlns="http://www.w3.org/2000/svg">
<path d="M1.01071 26.8695C1.37545 26.4414 1.73968 26.0127 2.10503 25.5851C3.12556 24.3904 4.14578 23.1955 5.1676 22.002C6.35262 20.6179 7.53977 19.2356 8.72492 17.8516C9.50063 16.9458 10.2745 16.0383 11.0488 15.1313C11.0844 15.0897 11.1167 15.0451 11.1574 14.9931C11.0005 14.7619 10.8483 14.5362 10.6948 14.3115C10.0374 13.349 9.37989 12.3867 8.72184 11.4247C7.96627 10.3202 7.20927 9.21663 6.45434 8.11166C5.42565 6.60599 4.39896 5.09893 3.3702 3.59331C2.57742 2.43307 1.78277 1.27413 0.991455 0.0970319C1.0657 0.0753215 1.13745 0.0675987 1.2092 0.0675803C3.64011 0.0669575 6.07103 0.067003 8.50194 0.0673746C8.57398 0.0673858 8.64601 0.0719332 8.71805 0.0743656C10.9634 3.36014 13.2088 6.64591 15.4472 9.92134C15.4743 9.92134 15.4798 9.92188 15.4851 9.9212C15.4904 9.9205 15.4964 9.91981 15.5008 9.91696C15.51 9.9109 15.5193 9.90438 15.5268 9.8964C15.5459 9.87613 15.5644 9.85528 15.5825 9.83411C18.361 6.58629 21.1395 3.33842 23.9296 0.0786243C23.9412 0.066698 23.9541 0.0613334 23.9702 0.0631516C24.7225 0.0665087 25.4586 0.0680475 26.1956 0.0711748C26.1965 0.0727633 26.2001 0.0731425 26.2001 0.0731425C25.3997 1.00893 24.5994 1.9448 23.7989 2.8805C22.6109 4.26928 21.4228 5.65805 20.2344 7.04662C19.412 8.00766 18.589 8.96821 17.7666 9.92924C17.3753 10.3864 16.9844 10.844 16.5941 11.3019C16.4821 11.4332 16.4812 11.4354 16.5829 11.5845C16.9852 12.1741 17.3898 12.7622 17.7918 13.352C18.5926 14.5268 19.3907 15.7035 20.1929 16.8773C21.0738 18.1662 21.9592 19.4519 22.8408 20.7402C23.7917 22.1297 24.7405 23.5205 25.6899 24.9109C26.1363 25.5647 26.5818 26.2191 27.025 26.8886C27.0133 26.9102 27.0044 26.9168 26.9803 26.9254C24.4612 26.9275 21.9577 26.9279 19.4542 26.9275C19.3993 26.9275 19.3444 26.9171 19.2894 26.9116C19.1042 26.6341 18.9211 26.3551 18.7333 26.0794C17.9171 24.8814 17.1 23.6841 16.2824 22.4871C15.4805 21.3133 14.6772 20.1404 13.875 18.9668C13.3433 18.189 12.8125 17.4106 12.2808 16.6328C12.2501 16.5878 12.2156 16.5453 12.174 16.4897C12.133 16.5294 12.1 16.5567 12.0725 16.5886C11.4915 17.2647 10.9103 17.9405 10.3309 18.6178C9.64279 19.4222 8.95703 20.2285 8.26904 21.0329C7.53027 21.8967 6.78971 22.7589 6.05058 23.6224C5.15575 24.6677 4.26156 25.7136 3.3673 26.7595C3.32752 26.806 3.28978 26.8543 3.23203 26.914C2.48974 26.9253 1.7665 26.9245 1.03928 26.9168C1.02711 26.8965 1.01891 26.883 1.01071 26.8695ZM23.8969 25.1903C22.9801 23.872 22.0629 22.5538 21.1465 21.2352C20.163 19.8202 19.1807 18.4044 18.197 16.9896C16.8599 15.0666 15.5216 13.1443 14.1843 11.2214C13.1017 9.66472 12.0195 8.10772 10.9374 6.55066C10.0877 5.32793 9.23905 4.10443 8.38849 2.88229C8.13697 2.52088 7.88056 2.16293 7.60025 1.78977C7.54504 1.7857 7.48984 1.77814 7.43463 1.77808C6.37382 1.77705 5.31301 1.77636 4.2522 1.77804C4.19397 1.77814 4.13576 1.79955 4.07981 1.83431C4.0851 1.84411 4.08949 1.85454 4.0958 1.86362C5.00944 3.1771 5.92342 4.49033 6.83692 5.8039C7.61692 6.92549 8.3964 8.04745 9.17609 9.16926C9.83472 10.1169 10.4933 11.0646 11.152 12.0122C11.6514 12.7307 12.1516 13.4486 12.6502 14.1676C13.3874 15.2306 14.1222 16.2952 14.8606 17.3574C15.3189 18.0166 15.7839 18.671 16.2421 19.3302C16.6875 19.9709 17.1261 20.6163 17.5713 21.2572C17.9658 21.825 18.366 22.3888 18.7622 22.9555C19.2894 23.7097 19.8152 24.465 20.3568 25.2444C20.419 25.3126 20.5016 25.2889 20.5763 25.289C21.6236 25.2905 22.6708 25.29 23.7181 25.2896C23.7679 25.2896 23.8192 25.2932 23.8668 25.2822C23.8841 25.2782 23.8928 25.2364 23.8969 25.1903Z" fill="black"/>
<path d="M19.2983 26.9218C19.3444 26.9172 19.3993 26.9275 19.4542 26.9275C21.9577 26.9279 24.4612 26.9275 26.9916 26.9274C27.0339 26.9266 27.0493 26.9255 27.0646 26.9245C27.0386 26.9474 27.0154 26.9836 26.9858 26.9902C26.9325 27.0019 26.8754 26.9971 26.8199 26.9971C24.415 26.9973 22.01 26.9976 19.605 26.996C19.5032 26.9959 19.3908 27.0262 19.2983 26.9218Z" fill="#65746B"/>
<path d="M0.935859 0.0935219C0.932386 0.0389722 0.957896 0.00834775 1.01194 0.00520972C1.06737 0.00199184 1.12296 0.000183343 1.17848 0.000177708C3.60171 -5.76937e-05 6.02494 -0.000312542 8.44818 0.00122116C8.53009 0.00127284 8.61199 0.0196696 8.69028 0.0341024C8.61447 0.0369861 8.54227 0.0338015 8.47008 0.0337933C6.05822 0.0335252 3.64636 0.0335528 1.2345 0.033603C1.18448 0.033604 1.13295 0.0269196 1.08487 0.0368147C1.03351 0.0473864 0.985393 0.073943 0.935859 0.0935219Z" fill="#6A7676"/>
<path d="M0.945068 0.0950284C0.985466 0.0740406 1.03358 0.047484 1.08495 0.0369123C1.13303 0.0270172 1.18456 0.0337016 1.23457 0.0337006C3.64643 0.0336505 6.05829 0.0336228 8.47015 0.033891C8.54235 0.0338992 8.61454 0.0370838 8.70262 0.0412949C8.71849 0.0438025 8.71837 0.0591145 8.71821 0.0668117C8.64602 0.072076 8.57399 0.0675286 8.50195 0.0675174C6.07104 0.0671458 3.64012 0.0671003 1.20921 0.0677231C1.13746 0.0677415 1.06571 0.0754643 0.983263 0.0890844C0.966441 0.0978614 0.960321 0.0971491 0.945068 0.0950284Z" fill="#5C4343"/>
<path d="M1.04335 26.9237C1.76659 26.9245 2.48983 26.9254 3.22863 26.9244C3.20809 26.983 3.14946 26.9956 3.08617 26.9956C2.41493 26.9957 1.74369 26.9962 1.07246 26.9935C1.0258 26.9933 0.948093 27.0116 0.968058 26.9143C0.997339 26.9173 1.02034 26.9205 1.04335 26.9237Z" fill="#65746B"/>
<path d="M23.9541 0.0611866C23.9541 0.0611866 23.9412 0.0665512 23.9346 0.0686616C23.9704 0.0064675 24.0357 0.000263091 24.1037 0.000275366C24.7555 0.000388976 25.4073 -0.000693356 26.0591 0.00243187C26.1103 0.002677 26.1613 0.0319842 26.2207 0.0573259C26.229 0.066867 26.2292 0.0666229 26.2292 0.0666229C26.2292 0.0666229 26.2145 0.0690495 26.2073 0.0710228C26.2001 0.0729961 26.1965 0.0726164 26.1842 0.0630288C26.1174 0.0468633 26.0629 0.034677 26.0083 0.034566C25.3831 0.0332964 24.7579 0.0331295 24.1327 0.0351279C24.0731 0.0353188 24.0136 0.0521046 23.9541 0.0611866Z" fill="#697675"/>
<path d="M1.03941 26.9169C1.02038 26.9205 0.997378 26.9173 0.970947 26.9056C0.978126 26.8899 0.98873 26.8827 1.00508 26.8726C1.01903 26.8831 1.02723 26.8966 1.03941 26.9169Z" fill="#070F0F"/>
<path d="M27.0613 26.9182C27.0492 26.9255 27.0338 26.9266 27.0071 26.9256C27.0044 26.9168 27.0132 26.9102 27.0293 26.8995C27.0454 26.8982 27.0527 26.9039 27.0613 26.9182Z" fill="#070F0F"/>
<path d="M26.229 0.067418C26.2289 0.0675904 26.2301 0.0683219 26.2297 0.0676308C26.2294 0.0669398 26.2291 0.0672456 26.229 0.067418Z" fill="#697675"/>
<path d="M20.3491 25.2322C20.429 25.2312 20.5165 25.2522 20.6041 25.2524C21.6192 25.2547 22.6344 25.2545 23.6496 25.2526C23.726 25.2524 23.8024 25.2343 23.8921 25.2182C23.8928 25.2365 23.8841 25.2783 23.8667 25.2823C23.8191 25.2933 23.7679 25.2897 23.7181 25.2897C22.6708 25.29 21.6235 25.2906 20.5762 25.2891C20.5016 25.289 20.419 25.3127 20.3491 25.2322Z" fill="#5B4949"/>
<path d="M7.61335 1.79665C7.39863 1.8059 7.17084 1.81033 6.94305 1.81041C5.99835 1.81078 5.05365 1.80983 4.09326 1.81024C4.1358 1.79963 4.194 1.77821 4.25224 1.77812C5.31305 1.77643 6.37385 1.77713 7.43466 1.77816C7.48987 1.77821 7.54508 1.78578 7.61335 1.79665Z" fill="#294242"/>
<path d="M23.9702 0.0632624C24.0136 0.0523622 24.0731 0.0355764 24.1327 0.0353855C24.7579 0.0333871 25.3831 0.0335539 26.0083 0.0348236C26.0629 0.0349346 26.1174 0.0471209 26.1834 0.061698C25.4586 0.0681583 24.7225 0.0666194 23.9702 0.0632624Z" fill="#5C4343"/>
</svg>
