<svg width="49" height="56" viewBox="0 0 49 56" fill="none" xmlns="http://www.w3.org/2000/svg">
<path d="M24.4653 55.1308C22.0726 55.1741 18.8069 55.1859 15.5372 55.3097C13.3985 55.3903 11.2657 55.3766 9.12888 55.3648C7.39684 55.353 5.6648 55.2743 3.93871 55.1072C2.8356 55.001 1.53607 54.0593 1.26823 52.8757C1.02708 51.7289 0.875191 50.5655 0.813888 49.3956C0.627391 46.6313 0.665086 43.861 0.595646 41.0927C0.512317 37.7012 0.655167 34.3037 0.637311 30.9083C0.619455 27.6445 0.738494 24.3866 0.877375 21.1308C0.923007 20.0592 1.00634 18.968 1.48448 17.9732C1.72953 17.4344 2.10685 16.965 2.58198 16.6078C3.05711 16.2506 3.61494 16.0171 4.20456 15.9284C5.58147 15.6905 6.96432 15.4959 8.34916 15.3071C8.63486 15.2698 8.72017 15.1557 8.77573 14.9001C9.3491 12.2636 10.2498 9.74891 11.7736 7.49574C14.7952 3.02283 19.0033 0.600572 24.4712 0.516029C27.4056 0.470808 30.0166 1.54038 32.4073 3.16046C35.7107 5.3979 37.8415 8.52009 39.272 12.1633C39.5629 12.8794 39.8081 13.6129 40.0061 14.3595C40.0914 14.6957 40.2263 14.8195 40.6013 14.8176C41.7565 14.7808 42.9128 14.8427 44.0574 15.0024C46.1803 15.3464 47.0731 16.2627 47.4124 18.5669C47.8092 21.2723 47.8429 24.0033 47.9302 26.7322C48.0215 29.6303 48.1564 32.5303 48.1842 35.4303C48.2119 38.2143 48.2238 40.9984 48.2397 43.7804C48.2516 46.0316 48.2516 48.2809 48.1504 50.5301C48.1208 51.3162 47.9655 52.0926 47.6901 52.8305C47.2933 53.8882 46.1347 54.6 44.974 54.6196C43.4563 54.6353 41.9385 54.7199 40.4207 54.7572C37.8693 54.8221 35.3178 54.8693 32.7644 54.9283C30.2804 54.9853 27.8143 55.0482 24.4653 55.1308ZM28.35 53.9865C33.2723 53.7781 37.3018 53.7329 41.3294 53.6484C42.6725 53.6462 44.0143 53.5621 45.347 53.3967C46.5374 53.2256 47.0314 52.683 47.1168 51.4994C47.2755 49.2639 47.1287 47.0284 47.1525 44.793C47.1783 42.5968 47.1247 40.3987 47.1247 38.2025C47.1247 34.6635 47.1683 31.1245 46.962 27.5855C46.7894 24.6226 46.6803 21.6577 46.3668 18.7046C46.3212 18.2563 46.3232 17.7766 46.0057 17.4187C45.5216 16.8722 44.9641 16.4062 44.1903 16.3256C42.748 16.1761 41.3056 16.0189 39.8513 16.0719C39.2006 16.0975 39.2144 16.0995 39.1014 15.4644C38.401 11.4929 36.6372 8.07968 33.5858 5.38413C30.8379 2.95795 27.6338 1.66424 23.9078 1.84512C18.8267 2.08499 14.944 4.42467 12.1605 8.59677C10.6486 10.8657 9.77964 13.3843 9.38284 16.068C9.34316 16.3275 9.26776 16.4612 8.98603 16.4239C8.46027 16.3649 7.94046 16.4632 7.41668 16.4829C6.261 16.5157 5.11622 16.7144 4.01807 17.0727C3.61256 17.1925 3.24661 17.4172 2.95787 17.7237C2.66913 18.0303 2.46804 18.4075 2.3753 18.8166C2.05786 19.9609 2.01223 21.1308 1.94279 22.2967C1.76621 25.181 1.83565 28.0712 1.77613 30.9594C1.69082 35.1374 1.64717 39.3193 1.82573 43.4993C1.9289 45.8901 1.95668 48.2868 2.10151 50.6776C2.12661 51.3298 2.21363 51.9782 2.36142 52.6142C2.42379 52.9283 2.57644 53.218 2.801 53.4482C3.02557 53.6784 3.31248 53.8394 3.62722 53.9118C4.58153 54.1812 5.54972 54.0534 6.50998 54.0652C9.45029 54.1006 12.3926 54.0062 15.3349 54.0455C17.7157 54.077 20.0965 54.077 22.4773 54.0789C24.7351 54.0612 26.9929 54.0573 28.35 53.9865Z" fill="#F8F2EA"/>
<path d="M28.3499 53.9867C26.9929 54.0575 24.7351 54.0614 22.4773 54.0595C20.0964 54.0595 17.7156 54.0595 15.3348 54.026C12.3925 53.9867 9.45023 54.0811 6.50992 54.0457C5.54966 54.0339 4.58146 54.1617 3.62715 53.8923C3.31242 53.8199 3.02551 53.6589 2.80094 53.4287C2.57637 53.1985 2.42372 52.9089 2.36136 52.5947C2.21357 51.9587 2.12655 51.3103 2.10145 50.6581C1.95661 48.2673 1.92884 45.8706 1.82567 43.4798C1.64711 39.2998 1.69076 35.1179 1.77607 30.9399C1.83559 28.0517 1.76615 25.1615 1.94273 22.2772C2.01217 21.1113 2.0578 19.9414 2.37524 18.7972C2.46797 18.388 2.66906 18.0108 2.9578 17.7043C3.24654 17.3977 3.6125 17.173 4.018 17.0532C5.11616 16.6949 6.26093 16.4962 7.41662 16.4634C7.9404 16.4437 8.46021 16.3454 8.98597 16.4044C9.25976 16.4359 9.33516 16.3081 9.38277 16.0485C9.77958 13.3707 10.6506 10.8521 12.1604 8.57729C14.938 4.40519 18.8267 2.06551 23.9077 1.82565C27.6258 1.65066 30.8379 2.94437 33.5857 5.36466C36.6371 8.0602 38.4009 11.4734 39.1013 15.4449C39.2144 16.08 39.2005 16.078 39.8512 16.0525C41.3055 15.9994 42.7479 16.1567 44.1903 16.3061C44.964 16.3867 45.5215 16.8527 46.0056 17.3993C46.3231 17.7571 46.3211 18.2368 46.3667 18.6851C46.6782 21.6343 46.7873 24.6031 46.9619 27.566C47.1603 31.1051 47.1266 34.6441 47.1246 38.1831C47.1246 40.3792 47.1782 42.5773 47.1524 44.7735C47.1286 47.009 47.2754 49.2444 47.1167 51.4799C47.0314 52.6596 46.5354 53.2062 45.347 53.3772C44.0142 53.5427 42.6725 53.6267 41.3293 53.6289C37.3018 53.7331 33.2723 53.7783 28.3499 53.9867ZM35.3078 8.74244V8.77194L35.3317 8.78766L35.4348 8.82699C35.4379 8.8081 35.4379 8.78886 35.4348 8.76997C35.3991 8.71492 35.3535 8.69329 35.3078 8.74244ZM13.1425 9.52889C13.1127 9.52889 13.0611 9.52889 13.1087 9.58394C13.1187 9.56428 13.1266 9.54265 13.1345 9.52299L13.1881 9.4935L13.1544 9.46794L13.1425 9.52889ZM12.8984 9.92211C12.8766 9.92211 12.8171 9.92211 12.8726 9.9752C12.8726 9.95554 12.8865 9.93588 12.8925 9.91622C12.9361 9.91622 12.9758 9.91622 12.9262 9.85527L12.8984 9.92211ZM12.5016 10.6417L12.4798 10.7066L12.4977 10.6358L12.5195 10.6083L12.5016 10.6417ZM12.0929 10.7931L12.1505 10.744L12.1167 10.7204C12.1167 10.7459 12.1029 10.7715 12.0969 10.797C12.0909 10.8226 11.9977 10.8482 12.0771 10.8993L12.0929 10.7931ZM30.9589 9.8533L31.0422 9.92998C31.0695 10.0162 31.1175 10.0946 31.1821 10.1583C31.2468 10.222 31.3261 10.2692 31.4132 10.2957C31.32 10.1443 31.2486 9.97323 31.0561 9.91622L30.9887 9.81988C30.9866 9.78968 30.9752 9.76084 30.9561 9.73727C30.9369 9.7137 30.9109 9.69655 30.8815 9.68815C30.8762 9.67233 30.8677 9.65775 30.8566 9.64527C30.8454 9.63278 30.8318 9.62266 30.8166 9.6155C30.8015 9.60834 30.785 9.60429 30.7682 9.6036C30.7513 9.60291 30.7346 9.60558 30.7188 9.61147L30.699 9.58591L30.7228 9.60754C30.7625 9.66849 30.8061 9.7196 30.8895 9.68225C30.8379 9.76482 30.8855 9.81201 30.9589 9.8533ZM13.3806 9.12977L13.3032 9.28902C13.2635 9.28902 13.2179 9.28902 13.2695 9.34997L13.2972 9.28313C13.3667 9.25167 13.3687 9.18679 13.3746 9.12387L13.4004 9.10028L13.3806 9.12977ZM34.8535 7.98942C34.8376 7.956 34.8158 7.91668 34.7742 7.9501C34.7622 7.9501 34.7861 8.01301 34.794 8.04644L34.8952 8.188L35.0301 8.37281C35.0995 8.49668 35.1392 8.652 35.3773 8.70116C35.3224 8.54907 35.2287 8.41362 35.1055 8.30793L34.9666 8.11132L34.8535 7.98942ZM31.6116 10.565C31.5997 10.4962 31.5799 10.4333 31.5045 10.4156C31.4946 10.4156 31.4628 10.449 31.4668 10.4628C31.468 10.4791 31.4726 10.495 31.4802 10.5095C31.4879 10.524 31.4984 10.5369 31.5112 10.5472C31.5241 10.5575 31.5389 10.5651 31.5548 10.5695C31.5707 10.5739 31.5873 10.5751 31.6037 10.5729C31.5898 10.6692 31.6037 10.7479 31.7247 10.7695C31.7505 10.6653 31.687 10.6103 31.6116 10.5611V10.565ZM38.9525 52.2467C39.266 52.1858 39.6092 52.2919 39.9445 52.0501L38.9763 52.1405C38.645 52.0678 38.3335 52.1858 38.016 52.2428C38.3295 52.2624 38.635 52.3529 38.9465 52.2447L38.9525 52.2467ZM15.0709 13.4356C15.3127 13.0813 15.4974 12.6919 15.6185 12.2815C15.3705 12.6373 15.0947 12.9794 15.0749 13.4395C15.0749 13.4611 15.0035 13.4651 15.0511 13.5063L15.0709 13.4356ZM11.9421 11.206C11.7128 11.6037 11.5664 12.0429 11.5116 12.4977C11.6644 12.0691 11.8886 11.6641 11.9362 11.2001L11.9997 11.1293L11.96 11.1038L11.9421 11.206ZM2.89902 41.4075C2.84504 42.3847 2.88957 43.3647 3.03195 44.3331C3.02203 43.3599 3.13115 42.3847 2.97838 41.4134V39.6203H2.89902V41.4075ZM20.9 16.5774C19.4675 16.5007 18.035 16.5774 16.6026 16.5774C17.1839 16.6226 17.7672 16.6698 18.3505 16.6797C19.2056 16.6954 20.0607 16.7878 20.9158 16.6659L22.1578 16.7032C23.7272 16.7819 25.2926 16.7032 26.8619 16.6325C26.693 16.5667 26.5101 16.5444 26.3302 16.5676C25.3541 16.6875 24.3779 16.6148 23.4018 16.5676C22.9871 16.5499 22.5725 16.5676 22.1578 16.5676L20.9 16.5774ZM37.2978 12.8909C36.9731 11.4736 36.3623 10.136 35.5023 8.95872C36.2268 10.1863 36.794 11.4987 37.1907 12.8654C37.2958 13.3117 37.403 13.758 37.5081 14.2043C37.4883 13.756 37.4883 13.3058 37.2978 12.8909ZM16.6066 52.9879C15.8229 52.8149 13.6008 52.87 13.4183 53.0803H16.6066C21.8563 53.1865 27.104 53.4126 32.3537 53.1806L16.6066 52.9879ZM46.3667 42.6835C46.3667 41.9246 46.3826 41.1676 46.3886 40.4087C46.3886 39.172 46.4263 37.9353 46.4124 36.6987C46.3687 33.3189 46.3667 29.9372 46.1128 26.5633C46.1624 26.1131 46.0334 25.6766 46.0076 25.2303C45.9461 25.6745 45.9461 26.125 46.0076 26.5692C46.0176 27.5012 46.0215 28.4331 46.0433 29.365C46.1465 33.8085 46.1168 38.2558 46.2675 42.6973C46.1703 43.1377 46.333 43.5702 46.212 44.0106H46.3727L46.3667 42.6835ZM21.6142 18.3312H16.7772C15.1503 18.3312 13.5254 18.3155 11.8985 18.3312C10.4244 18.3312 8.94034 18.2683 7.49201 18.6497C6.16867 18.9977 4.70249 19.8707 4.67273 21.9213C4.64694 23.5689 4.59535 25.2185 4.54972 26.8661C4.45449 30.2478 4.45052 33.6295 4.4029 37.0093C4.36322 39.7127 4.48226 42.4142 4.50607 45.1156C4.50799 46.5401 4.61341 47.9627 4.82153 49.3722C4.88792 49.9027 5.1132 50.4013 5.46832 50.8036C6.17462 51.59 7.12497 51.7866 8.1011 51.7866C11.1644 51.7748 14.2257 51.8535 17.291 51.765C19.1957 51.71 21.1043 51.879 23.0129 51.883C26.8699 51.883 30.7228 51.706 34.5797 51.7493C36.0853 51.7693 37.5907 51.6978 39.0874 51.535C40.0437 51.4288 40.994 51.3384 41.9146 50.9628C43.6228 50.2786 44.4522 49.0596 44.5117 47.2587C44.6307 43.6646 44.7101 40.0705 44.6902 36.4765C44.6545 32.0979 44.5414 27.7174 44.4541 23.3389C44.4571 22.4182 44.3118 21.5029 44.0236 20.6276C43.8649 20.1149 43.5664 19.6556 43.161 19.3004C42.7556 18.9451 42.259 18.7077 41.7261 18.6143C40.4874 18.3714 39.2306 18.23 37.9684 18.1916C36.0221 18.1248 34.0738 18.1208 32.1275 18.0992C28.6197 18.0618 25.12 18.341 21.6142 18.3312ZM25.1021 3.4182C21.9574 3.43196 19.6203 4.17909 17.5311 5.62812C13.8527 8.18407 11.8548 11.7781 11.0612 16.0957C11.0156 16.3356 11.1108 16.3651 11.3092 16.3572C11.706 16.3376 12.0771 16.2432 12.4719 16.2491C13.1544 16.2628 13.1762 16.2176 13.2992 15.5452C14.1285 11.0566 17.4656 6.69768 22.9475 5.96039C26.981 5.41381 30.3062 6.70161 32.8854 9.81005C34.1887 11.4013 35.029 13.315 35.3158 15.3447C35.3832 15.7831 35.532 15.9188 35.9606 15.8716C36.2697 15.851 36.58 15.8609 36.8871 15.9011C37.1728 15.9266 37.2839 15.8677 37.2462 15.5373C36.9605 13.2586 36.3078 11.1057 34.9944 9.19858C32.4806 5.5475 29.0146 3.56173 25.1021 3.4182ZM24.2648 15.9247V15.9443C25.1775 15.9443 26.0901 15.9561 27.0028 15.9443C28.9094 15.9129 30.8141 15.8657 32.7207 15.8303C32.9687 15.8303 33.0362 15.7438 32.9965 15.4941C32.7954 14.0393 32.2789 12.6449 31.4827 11.4065C28.8658 7.42515 24.0446 6.2789 19.9139 8.69329C17.2196 10.2662 15.5888 12.6472 14.8249 15.6298C14.7138 16.0702 14.7317 16.1095 15.1681 16.023C15.9836 15.8755 16.801 15.9247 17.6184 15.9207C19.8345 15.9188 22.0606 15.9247 24.2648 15.9247ZM2.89902 39.2192C2.88513 34.9056 2.89902 30.5958 2.82164 26.2881C2.5538 30.6017 2.78792 34.9134 2.89902 39.2192ZM6.05955 52.7146L6.06947 52.8503C7.82334 52.8385 9.56729 53.1845 11.2973 52.8759L6.05955 52.7146ZM19.8643 16.2275V16.1252H15.7792C17.1383 16.2963 18.5033 16.2235 19.8643 16.2294V16.2275ZM2.86331 23.1443C2.73733 24.1405 2.73733 25.1483 2.86331 26.1445V23.1443ZM3.4228 21.6146C3.48818 20.9332 3.45545 20.2461 3.32559 19.5738C3.26375 20.2559 3.29646 20.9432 3.4228 21.6166V21.6146ZM14.8785 17.2498C14.2006 17.0974 13.4969 17.0974 12.8191 17.2498H14.8785ZM42.2321 18.4767L43.4006 18.6733C43.0772 18.3823 43.0772 18.3823 42.2321 18.4787V18.4767ZM4.08943 26.9782C4.23624 26.585 4.17474 26.1917 4.21045 25.7985C4.21045 25.7356 4.21045 25.6569 4.11323 25.6648C4.01602 25.6727 4.01007 25.7435 4.01205 25.8083C4.02197 26.2035 3.9684 26.5948 4.08943 26.9782ZM6.24208 18.6438C6.16471 18.5534 6.06352 18.5986 5.98019 18.6045C5.90726 18.5962 5.83339 18.6023 5.76289 18.6226C5.69238 18.6428 5.62664 18.6768 5.5695 18.7225C5.52189 18.7696 5.59529 18.8109 5.62902 18.8444C5.78576 18.9957 5.89091 18.8129 6.01392 18.7736C6.0913 18.748 6.18851 18.7441 6.24208 18.6438ZM14.6206 14.7411L14.5273 14.7116C14.3648 15.1065 14.2923 15.5322 14.315 15.9581L14.6206 14.7411ZM46.5255 52.1504C46.6925 51.7438 46.74 51.2987 46.6624 50.8665C46.4897 51.358 46.5433 51.7611 46.5255 52.1504ZM26.9948 7.20494C26.666 7.01631 26.2758 6.96267 25.9076 7.05552L26.9948 7.20494ZM45.3251 19.7881C45.3407 19.6422 45.3209 19.4948 45.2674 19.358C45.2139 19.2212 45.1283 19.099 45.0176 19.0016C45.1188 19.2592 45.222 19.5227 45.3251 19.7861V19.7881ZM43.5951 52.3942C43.7657 52.3942 43.9462 52.4964 44.095 52.347C44.1012 52.3299 44.1034 52.3118 44.1017 52.2938C44.1 52.2758 44.0944 52.2584 44.0851 52.2428C43.9975 52.2332 43.9088 52.2414 43.8245 52.2671C43.7402 52.2928 43.6621 52.3354 43.5951 52.3922V52.3942ZM5.92662 52.7599C5.86313 52.7171 5.78813 52.6942 5.71136 52.6942C5.63459 52.6942 5.55958 52.7171 5.49609 52.7599C5.56044 52.8006 5.63528 52.8221 5.71165 52.8218C5.78802 52.8214 5.86266 52.7992 5.92662 52.7579V52.7599ZM11.4184 12.7632L11.4005 12.712C11.4005 12.712 11.3866 12.7337 11.3886 12.7435C11.3921 12.761 11.3974 12.7782 11.4045 12.7946C11.4045 12.7946 11.4144 12.775 11.4184 12.7632ZM12.7635 10.1227L12.7794 10.1364V10.1148L12.7635 10.1227ZM13.0373 9.72943L13.0195 9.70387C13.0195 9.70387 13.0016 9.71764 12.9996 9.7255C12.9976 9.73337 12.9996 9.74123 13.0155 9.75106C13.0221 9.74202 13.0294 9.73347 13.0373 9.7255V9.72943ZM31.8378 10.9248L31.818 10.8973C31.818 10.8973 31.7962 10.9111 31.7962 10.9189C31.7962 10.9268 31.8061 10.9366 31.812 10.9465L31.8378 10.9248Z" fill="#0C0505"/>
<path d="M21.6139 18.3306C25.1196 18.3306 28.6194 18.0612 32.1291 18.0986C34.0754 18.1202 36.0237 18.1241 37.9701 18.191C39.2322 18.2294 40.489 18.3708 41.7278 18.6137C42.2603 18.7074 42.7564 18.945 43.1615 19.3002C43.5665 19.6554 43.8647 20.1146 44.0233 20.627C44.3115 21.5023 44.4568 22.4176 44.4538 23.3383C44.5411 27.7168 44.6522 32.0973 44.6899 36.4759C44.7197 40.0699 44.6304 43.664 44.5113 47.2581C44.4518 49.059 43.6225 50.278 41.9143 50.9622C40.9937 51.3318 40.0434 51.4282 39.0871 51.5344C37.5903 51.6958 36.0849 51.7661 34.5794 51.7447C30.7225 51.7015 26.8695 51.8863 23.0126 51.8784C21.104 51.8784 19.1954 51.7054 17.2907 51.7605C14.2254 51.8489 11.1641 51.7703 8.10076 51.7821C7.12463 51.7821 6.17428 51.5855 5.46797 50.799C5.11286 50.3967 4.88757 49.8982 4.82119 49.3677C4.61298 47.9575 4.50755 46.5343 4.50573 45.1091C4.48192 42.4076 4.36288 39.7062 4.40256 37.0028C4.45018 33.623 4.45415 30.2413 4.54938 26.8596C4.59501 25.212 4.64659 23.5624 4.67239 21.9148C4.70215 19.8642 6.16833 18.9912 7.49167 18.6432C8.94 18.2618 10.424 18.3345 11.8982 18.3247C13.525 18.3149 15.15 18.3247 16.7768 18.3247L21.6139 18.3306ZM22.7428 47.5412C24.3186 47.8127 25.9304 47.8074 27.5044 47.5254C28.05 47.4252 28.1552 47.2679 28.1988 46.6643C28.2649 45.3218 28.2517 43.9767 28.1591 42.6357C28.089 40.9894 28.0116 39.3444 27.927 37.7008C27.919 37.6095 27.9394 37.5179 27.9855 37.4385C28.0317 37.359 28.1012 37.2955 28.1849 37.2564C30.034 36.0964 31.1431 34.4075 31.5835 32.3175C32.1013 29.8697 31.4883 27.7031 29.5797 26.0142C27.7564 24.402 25.5859 23.8691 23.1733 24.2211C18.9434 24.8404 16.1519 28.6979 17.249 32.7953C17.4888 33.7612 17.9229 34.6692 18.5253 35.4648C19.1277 36.2604 19.886 36.9273 20.7548 37.4255C20.9115 37.5179 21.0683 37.5789 21.0583 37.8305C20.9869 39.7613 21.0226 41.692 21.0345 43.6207C21.0345 44.5802 21.0445 45.5377 21.1318 46.4932C21.1853 47.0693 21.3302 47.2089 21.8777 47.2089C23.2864 47.2089 24.695 47.2089 26.1017 47.1991H27.2921C25.7862 47.494 24.2427 47.2679 22.7428 47.5412ZM32.7323 31.4977C32.6866 30.2059 32.518 29.2524 32.1668 28.3381C31.5538 26.7338 30.5598 25.4302 29.0618 24.5356C28.9587 24.4727 28.8079 24.3194 28.7186 24.4511C28.6293 24.5828 28.8277 24.6576 28.9289 24.7244C29.3162 24.9693 29.6743 25.2569 29.9963 25.5816C31.5835 27.2469 32.2144 29.2642 32.1053 31.5075C31.9883 33.9455 31.0657 36.0001 28.9587 37.4058C28.7087 37.573 28.6472 37.8286 28.5777 38.0802C28.5321 38.2473 28.6075 38.2965 28.7761 38.2159C29.1186 38.0629 29.4438 37.8744 29.7463 37.6536C31.8692 36.0138 32.6628 33.7646 32.7323 31.4977ZM20.3223 38.4518C20.3104 38.5698 20.2965 38.6858 20.2846 38.8018C20.106 40.5497 20.1001 42.3054 20.0544 44.0572C20.0286 45.0088 20.0088 45.9742 20.2211 46.9179C20.36 47.5372 21.0683 47.8656 21.717 47.5943C21.5877 47.5148 21.4473 47.4545 21.3004 47.4153C20.8203 47.3682 20.6814 47.0673 20.6615 46.6505C20.604 45.4296 20.5663 44.2066 20.6159 42.9837C20.6715 41.4698 20.7191 39.9579 20.3223 38.4518ZM17.3463 27.07C15.7848 28.9889 15.7452 31.1536 16.4475 33.3812C16.9514 34.9777 18.9196 37.1168 19.7469 37.1424C17.126 35.2235 16.013 32.7501 16.5923 29.5827C16.7451 28.7136 17.1479 27.9233 17.3403 27.07H17.3463ZM18.3839 25.6583C19.181 25.0293 20.0573 24.5058 20.9909 24.1011C21.9174 23.7079 22.9332 23.5998 23.9133 23.2184C22.2587 22.8291 18.5664 24.4668 18.3779 25.6583H18.3839ZM32.9148 28.4404C33.2263 29.4627 33.2342 30.5284 33.3612 31.5861C33.5882 30.5175 33.428 29.4037 32.9088 28.4404H32.9148Z" fill="#F8F2EA"/>
<path d="M25.1017 3.41785C29.0141 3.56531 32.4802 5.54715 34.9939 9.19823C36.3074 11.1054 36.9601 13.2583 37.2458 15.537C37.2875 15.8673 37.1724 15.9302 36.8867 15.9007C36.5796 15.8605 36.2692 15.8506 35.9602 15.8712C35.5316 15.9184 35.3828 15.7828 35.3154 15.3443C35.0286 13.3146 34.1883 11.401 32.8849 9.80969C30.3057 6.70716 26.9805 5.41345 22.947 5.96004C17.4632 6.70716 14.1241 11.0562 13.2988 15.5547C13.1758 16.2271 13.1539 16.2723 12.4714 16.2586C12.0746 16.2586 11.6977 16.347 11.3088 16.3667C11.1104 16.3667 11.0152 16.3451 11.0608 16.1052C11.8544 11.7797 13.8523 8.19354 17.5307 5.63759C19.6198 4.17873 21.957 3.43161 25.1017 3.41785Z" fill="#F8F2EA"/>
<path d="M24.2647 15.9247C22.0505 15.9247 19.8344 15.9247 17.6183 15.9247C16.8008 15.9247 15.9834 15.8795 15.168 16.0269C14.7315 16.1075 14.7137 16.0682 14.8248 15.6337C15.5886 12.6511 17.2195 10.276 19.9138 8.69725C24.0365 6.28286 28.8656 7.4291 31.4825 11.4085C32.2788 12.6469 32.7952 14.0413 32.9963 15.4961C33.036 15.7458 32.9686 15.8284 32.7206 15.8323C30.8139 15.8677 28.9093 15.9149 27.0026 15.9463C26.09 15.9601 25.1773 15.9463 24.2647 15.9463V15.9247ZM15.6223 14.7096C15.8902 14.7096 16.1005 14.7096 16.3128 14.7096C17.3326 14.6919 18.3543 14.6369 19.3741 14.6585C23.4572 14.7411 27.5403 14.6742 31.6234 14.5622C31.9468 14.5622 31.9885 14.4698 31.8714 14.1984C31.7543 13.9271 31.6928 13.6676 31.5917 13.412C30.1096 9.62132 26.2348 7.60802 22.3938 8.65399C20.1459 9.26545 18.4 10.6201 16.9913 12.425C16.4396 13.1263 15.9796 13.8939 15.6223 14.7096Z" fill="#F8F2EA"/>
<path d="M46.1084 26.5644C46.3616 29.9382 46.3636 33.32 46.4071 36.6997C46.421 37.9364 46.3933 39.1731 46.3834 40.4098C46.3834 41.1687 46.3695 41.9257 46.3616 42.6846L46.2567 42.6983C46.1064 38.2569 46.1361 33.8095 46.0332 29.3661C46.0114 28.4342 46.0075 27.5022 45.9976 26.5703L46.1084 26.5644Z" fill="#F8F2EA"/>
<path d="M16.6068 52.9877L32.3539 53.1843C27.1042 53.4163 21.8565 53.1843 16.6068 53.0841V52.9877Z" fill="#F8F2EA"/>
<path d="M2.89838 39.2192C2.78759 34.9134 2.55412 30.6017 2.82122 26.2881C2.89245 30.5958 2.88453 34.9056 2.89838 39.2192Z" fill="#F8F2EA"/>
<path d="M6.05969 52.715L11.2975 52.8762C9.56742 53.1849 7.82348 52.8388 6.06961 52.8506L6.05969 52.715Z" fill="#F8F2EA"/>
<path d="M37.1906 12.867C36.7939 11.5003 36.2267 10.1879 35.5022 8.96033C36.3622 10.1376 36.973 11.4752 37.2977 12.8926L37.1906 12.867Z" fill="#F8F2EA"/>
<path d="M22.1577 16.5729C22.5724 16.5729 22.987 16.5513 23.4017 16.5729C24.3778 16.6142 25.354 16.6869 26.3301 16.5729C26.51 16.5497 26.6929 16.5721 26.8618 16.6378C25.2925 16.7007 23.7271 16.7872 22.1577 16.7086V16.5729Z" fill="#6F6F6F"/>
<path d="M19.8641 16.2289C18.5031 16.2289 17.1381 16.2957 15.7791 16.1266H19.8602L19.8641 16.2289Z" fill="#6F6F6F"/>
<path d="M20.9158 16.6616C20.0607 16.7835 19.2056 16.6911 18.3505 16.6753C17.7672 16.6753 17.1839 16.6183 16.6025 16.5731C18.035 16.5731 19.4674 16.5004 20.8999 16.5731C20.8999 16.5731 20.9197 16.5888 20.9197 16.5987C20.9207 16.6197 20.9194 16.6408 20.9158 16.6616Z" fill="#6F6F6F"/>
<path d="M16.6066 52.9879V53.0803H13.4183C13.6009 52.8699 15.823 52.8149 16.6066 52.9879Z" fill="#6F6F6F"/>
<path d="M2.97775 41.4136C3.13009 42.3848 3.02127 43.36 3.03116 44.3332C2.88918 43.3649 2.84477 42.3848 2.8986 41.4077L2.97775 41.4136Z" fill="#6F6F6F"/>
<path d="M2.86244 23.1461V26.1463C2.73824 25.1501 2.73824 24.1423 2.86244 23.1461Z" fill="#6F6F6F"/>
<path d="M3.42227 21.6164C3.29646 20.9437 3.26384 20.257 3.32532 19.5756C3.45483 20.2478 3.48747 20.935 3.42227 21.6164Z" fill="#6F6F6F"/>
<path d="M14.8785 17.2514H12.8191C13.4969 17.099 14.2006 17.099 14.8785 17.2514Z" fill="#6F6F6F"/>
<path d="M42.2316 18.4783C43.0768 18.382 43.0768 18.382 43.4001 18.6749L42.2316 18.4783Z" fill="#F8F2EA"/>
<path d="M4.08895 26.9762C3.96826 26.5933 4.02168 26.2026 4.01179 25.8158C4.01179 25.751 4.02564 25.6783 4.11269 25.6724C4.19975 25.6665 4.21558 25.7431 4.20964 25.806C4.17403 26.1947 4.23536 26.5914 4.08895 26.9762Z" fill="#6F6F6F"/>
<path d="M20.9157 16.6616C20.9177 16.642 20.9177 16.6223 20.9157 16.6026C20.9157 16.5928 20.9038 16.585 20.8959 16.5771H22.1537V16.7029L20.9157 16.6616Z" fill="#F8F2EA"/>
<path d="M46.2658 42.6971L46.3707 42.6833V44.0067H46.2104C46.3232 43.5689 46.161 43.1369 46.2658 42.6971Z" fill="#6F6F6F"/>
<path d="M6.24048 18.6433C6.19497 18.7435 6.09011 18.7474 6.01295 18.7729C5.89028 18.8122 5.78542 18.9948 5.62912 18.8436C5.59548 18.8102 5.52228 18.769 5.56976 18.7219C5.62675 18.6763 5.6923 18.6424 5.76261 18.6221C5.83292 18.6019 5.90659 18.5958 5.97931 18.6041C6.06241 18.5982 6.16332 18.553 6.24048 18.6433Z" fill="#F8F2EA"/>
<path d="M11.9247 11.1997C11.8773 11.6631 11.6537 12.0676 11.5013 12.4956C11.556 12.0414 11.702 11.6027 11.9307 11.2056L11.9247 11.1997Z" fill="#6F6F6F"/>
<path d="M37.1906 12.8671L37.2974 12.8906C37.4952 13.3049 37.4952 13.7546 37.5071 14.2042C37.4022 13.7585 37.2954 13.3128 37.1906 12.8671Z" fill="#6F6F6F"/>
<path d="M14.6194 14.7409L14.3227 15.9563C14.3 15.5309 14.3723 15.1058 14.5344 14.7114L14.6194 14.7409Z" fill="#6F6F6F"/>
<path d="M46.5254 52.1481C46.5432 51.7554 46.4898 51.3627 46.6619 50.866C46.7393 51.2976 46.692 51.7421 46.5254 52.1481Z" fill="#6F6F6F"/>
<path d="M15.0749 13.437C15.0947 12.9776 15.3697 12.6359 15.617 12.2805C15.4962 12.6905 15.312 13.0793 15.0709 13.4331L15.0749 13.437Z" fill="#6F6F6F"/>
<path d="M2.97692 41.4111H2.89868V39.6302H2.97692V41.4111Z" fill="#F8F2EA"/>
<path d="M46.1085 26.5636H45.9977C45.9363 26.1199 45.9363 25.6701 45.9977 25.2264C46.0293 25.6761 46.1579 26.112 46.1085 26.5636Z" fill="#6F6F6F"/>
<path d="M26.9946 7.20486L25.9073 7.05543C26.2755 6.96259 26.6658 7.01622 26.9946 7.20486Z" fill="#6F6F6F"/>
<path d="M38.9467 52.2439C38.6352 52.352 38.3218 52.2616 38.0083 52.2439C38.3257 52.1869 38.6372 52.0689 38.9686 52.1417C38.9758 52.1491 38.9811 52.1581 38.984 52.168C38.9869 52.178 38.9873 52.1884 38.9852 52.1985C38.983 52.2087 38.9784 52.2181 38.9717 52.226C38.965 52.2339 38.9564 52.24 38.9467 52.2439Z" fill="#6F6F6F"/>
<path d="M38.9469 52.2442C38.9562 52.2402 38.9644 52.2341 38.9709 52.2264C38.9773 52.2186 38.9818 52.2094 38.9839 52.1996C38.9861 52.1898 38.9858 52.1796 38.9832 52.1699C38.9805 52.1602 38.9756 52.1513 38.9687 52.1439L39.9369 52.0535C39.6036 52.2894 39.2604 52.1832 38.9469 52.2442Z" fill="#F8F2EA"/>
<path d="M45.3243 19.7849C45.2214 19.5217 45.1264 19.2586 45.0176 18.9995C45.128 19.0967 45.2134 19.2187 45.2667 19.3553C45.32 19.4919 45.3398 19.6392 45.3243 19.7849Z" fill="#6F6F6F"/>
<path d="M43.5952 52.3917C43.6619 52.3346 43.7397 52.2917 43.8237 52.2657C43.9078 52.2397 43.9964 52.2311 44.0839 52.2405C44.0931 52.2561 44.0988 52.2734 44.1005 52.2914C44.1022 52.3094 44.0999 52.3275 44.0938 52.3445C43.9454 52.4938 43.7654 52.3858 43.5952 52.3917Z" fill="#F8F2EA"/>
<path d="M31.0563 9.91187C31.2542 9.96881 31.3195 10.1396 31.4125 10.2908C31.3256 10.2643 31.2464 10.2172 31.182 10.1536C31.1175 10.09 31.0696 10.0117 31.0425 9.92561L31.0563 9.91187Z" fill="#6F6F6F"/>
<path d="M5.92555 52.7574C5.86158 52.7984 5.78704 52.8202 5.71089 52.8202C5.63473 52.8202 5.56019 52.7984 5.49622 52.7574C5.55953 52.7147 5.63433 52.6918 5.71089 52.6918C5.78745 52.6918 5.86224 52.7147 5.92555 52.7574Z" fill="#F8F2EA"/>
<path d="M35.1057 8.29938C35.2286 8.40493 35.322 8.5402 35.3768 8.69208C35.1393 8.64299 35.0998 8.49573 35.0305 8.36417L35.1057 8.29938Z" fill="#6F6F6F"/>
<path d="M31.6113 10.5607C31.6865 10.6098 31.7498 10.6648 31.7241 10.7728C31.6054 10.7433 31.5896 10.6648 31.6034 10.5764L31.6113 10.5607Z" fill="#6F6F6F"/>
<path d="M35.03 8.36813L34.8955 8.18356L34.9667 8.10895L35.1052 8.3053L35.03 8.36813Z" fill="#6F6F6F"/>
<path d="M31.6032 10.5684C31.5869 10.5706 31.5703 10.5694 31.5544 10.565C31.5386 10.5606 31.5238 10.553 31.511 10.5427C31.4982 10.5324 31.4877 10.5196 31.48 10.5051C31.4724 10.4906 31.4679 10.4748 31.4667 10.4585C31.4667 10.4447 31.4944 10.4094 31.5043 10.4113C31.5795 10.429 31.5992 10.4918 31.6111 10.5606L31.6032 10.5684Z" fill="#6F6F6F"/>
<path d="M11.4162 12.7634C11.4162 12.7754 11.407 12.7855 11.4033 12.7955C11.3968 12.7787 11.3919 12.7613 11.3887 12.7434C11.3887 12.7434 11.3887 12.7213 11.3997 12.7113L11.4162 12.7634Z" fill="#6F6F6F"/>
<path d="M34.8535 7.98505C34.8911 8.02628 34.9287 8.06948 34.9663 8.10875L34.8951 8.18336L34.7942 8.04199L34.8535 7.98505Z" fill="#6F6F6F"/>
<path d="M13.3031 9.28423L13.3794 9.12518C13.3794 9.18802 13.3794 9.25281 13.3031 9.28423Z" fill="#6F6F6F"/>
<path d="M30.8887 9.67785C30.8056 9.71516 30.7621 9.66411 30.7225 9.60324C30.7382 9.59736 30.755 9.59469 30.7717 9.59538C30.7885 9.59607 30.8049 9.60012 30.8201 9.60727C30.8352 9.61442 30.8488 9.62453 30.8599 9.637C30.871 9.64946 30.8795 9.66403 30.8848 9.67982L30.8887 9.67785Z" fill="#6F6F6F"/>
<path d="M30.9587 9.85314C30.8855 9.81583 30.8381 9.76871 30.8895 9.68231C30.9191 9.69082 30.9452 9.70824 30.9644 9.73217C30.9835 9.75609 30.9947 9.78533 30.9963 9.81583L30.9587 9.85314Z" fill="#6F6F6F"/>
<path d="M12.089 10.8011L12.1085 10.7238L12.1418 10.7476L12.0851 10.7971L12.089 10.8011Z" fill="#6F6F6F"/>
<path d="M12.4887 10.6397L12.4717 10.7119L12.4925 10.6457L12.4887 10.6397Z" fill="#6F6F6F"/>
<path d="M12.0843 10.7971L12.0686 10.9031C11.9904 10.8521 12.0686 10.8325 12.0882 10.801L12.0843 10.7971Z" fill="#6F6F6F"/>
<path d="M11.9418 11.2055L11.9594 11.1034L11.9985 11.1289L11.9359 11.1996L11.9418 11.2055Z" fill="#6F6F6F"/>
<path d="M15.0692 13.4351L15.0501 13.5073C15.0042 13.4652 15.0654 13.4612 15.0731 13.4391L15.0692 13.4351Z" fill="#6F6F6F"/>
<path d="M12.4937 10.6429L12.5113 10.6069L12.4897 10.6365L12.4937 10.6429Z" fill="#6F6F6F"/>
<path d="M12.7616 10.1246L12.7853 10.1143L12.7829 10.1425L12.7616 10.1246Z" fill="#6F6F6F"/>
<path d="M12.8924 9.92053L12.8726 9.98087C12.817 9.93059 12.8726 9.93662 12.8984 9.92657L12.8924 9.92053Z" fill="#6F6F6F"/>
<path d="M31.0409 9.92586L30.9587 9.84929L30.9881 9.81787L31.0546 9.91212L31.0409 9.92586Z" fill="#6F6F6F"/>
<path d="M12.8983 9.92696L12.9335 9.85364C12.9824 9.90714 12.9335 9.91111 12.9003 9.91507L12.8983 9.92696Z" fill="#6F6F6F"/>
<path d="M13.0372 9.72655C13.0294 9.7336 13.0222 9.74121 13.0154 9.74931C13.0154 9.74931 12.9996 9.73068 12.9996 9.72241C12.9996 9.71413 13.0135 9.70792 13.0194 9.69965L13.0372 9.72655Z" fill="#6F6F6F"/>
<path d="M31.8374 10.9224L31.8117 10.9452C31.8117 10.9348 31.794 10.9245 31.7959 10.9162C31.7979 10.9079 31.8097 10.9017 31.8176 10.8934L31.8374 10.9224Z" fill="#6F6F6F"/>
<path d="M30.7236 9.60546L30.6993 9.58136L30.7196 9.60984L30.7236 9.60546Z" fill="#6F6F6F"/>
<path d="M13.132 9.52087L13.1066 9.58231C13.0597 9.53078 13.1066 9.53475 13.1398 9.52682L13.132 9.52087Z" fill="#6F6F6F"/>
<path d="M13.1421 9.52634L13.1538 9.4649L13.1871 9.49067L13.1343 9.52039L13.1421 9.52634Z" fill="#6F6F6F"/>
<path d="M13.2962 9.27924L13.2688 9.34661C13.218 9.29113 13.2688 9.29113 13.3021 9.28518L13.2962 9.27924Z" fill="#6F6F6F"/>
<path d="M13.3802 9.12823L13.4001 9.09576L13.3743 9.12173L13.3802 9.12823Z" fill="#6F6F6F"/>
<path d="M35.3077 8.74193C35.3612 8.69284 35.3988 8.71444 35.4225 8.76942C35.4255 8.78828 35.4255 8.8075 35.4225 8.82636L35.3196 8.78709V8.75764L35.3077 8.74193Z" fill="#F8F2EA"/>
<path d="M35.3269 8.79194L35.3021 8.77465L35.3083 8.74225L35.3351 8.75953L35.3269 8.79194Z" fill="#6F6F6F"/>
<path d="M34.7934 8.04184C34.7934 8.00846 34.7621 7.95545 34.7739 7.94563C34.8149 7.91225 34.8365 7.94563 34.8521 7.9849L34.7934 8.04184Z" fill="#6F6F6F"/>
<path d="M22.7436 47.5417C24.2475 47.2684 25.7871 47.4945 27.289 47.1977H26.0986C24.6919 47.1977 23.2832 47.2095 21.8746 47.2075C21.325 47.2075 21.1822 47.0679 21.1286 46.4918C21.0413 45.5363 21.0373 44.5788 21.0314 43.6193C21.0195 41.6906 20.9838 39.7598 21.0552 37.8291C21.0552 37.5775 20.9084 37.5165 20.7516 37.4241C19.8829 36.9259 19.1246 36.259 18.5222 35.4634C17.9198 34.6678 17.4857 33.7598 17.2459 32.7939C16.1487 28.6965 18.9402 24.839 23.1702 24.2197C25.5827 23.8677 27.7532 24.4005 29.5765 26.0128C31.4852 27.7017 32.0982 29.8683 31.5804 32.3161C31.1399 34.4061 30.0309 36.095 28.1818 37.255C28.0981 37.2941 28.0285 37.3576 27.9824 37.437C27.9363 37.5165 27.9158 37.608 27.9238 37.6994C28.0098 39.343 28.0872 40.988 28.156 42.6343C28.2485 43.9752 28.2618 45.3204 28.1957 46.6629C28.152 47.2665 28.0469 47.4238 27.5013 47.524C25.9287 47.8061 24.3183 47.8121 22.7436 47.5417ZM22.4857 34.1289C22.776 34.0898 23.0536 33.9856 23.2971 33.8241C23.0234 33.8255 22.7531 33.8837 22.5035 33.9952C22.2178 34.121 21.8806 34.121 21.6464 34.3747L22.4857 34.1289ZM24.0967 34.9153C23.4798 35.0284 22.882 35.227 22.321 35.5052L24.2574 34.9979C24.5834 34.9546 24.9002 34.8596 25.1958 34.7168C24.818 34.6824 24.438 34.7511 24.0967 34.9153ZM25.42 32.267C24.1324 32.4243 22.8587 32.6779 21.6802 33.25L21.7238 33.3955L25.42 32.267ZM21.6266 32.0055L21.6583 32.1175L25.2772 31.0873L25.2494 30.989C24.0233 31.2603 22.7495 31.3606 21.6266 32.0133V32.0055ZM29.2452 33.3051C28.5925 33.1557 26.3724 33.5017 25.799 33.8595C26.9814 33.6806 28.1044 33.5941 29.2452 33.3129V33.3051ZM26.6243 28.9993C27.6743 29.0231 28.7247 28.9798 29.769 28.8695C29.7118 28.8169 29.6441 28.7768 29.5703 28.7517C29.4965 28.7266 29.4182 28.7172 29.3404 28.724C28.4099 28.6631 27.5112 28.8243 26.6243 28.9993ZM24.8744 26.8896C23.4691 27.0385 22.0961 27.4047 20.8052 27.9749C22.1464 27.5798 23.5114 27.2514 24.8685 26.8896H24.8744ZM29.7333 30.9104C28.8861 30.8809 28.0647 31.0716 27.2453 31.2584C28.0848 31.2552 28.9199 31.1382 29.7273 30.9104H29.7333ZM25.9279 25.6235C24.7487 25.5115 23.5589 25.6407 22.4321 26.0029C23.5876 25.8138 24.7526 25.6872 25.922 25.6235H25.9279ZM26.7215 28.2974C27.5846 28.1833 28.4615 28.1892 29.3008 27.9317C28.4238 27.9985 27.5509 28.0418 26.7096 28.2974H26.7215ZM22.448 28.8282C21.9639 28.8282 20.2656 29.3414 19.8489 29.6245L22.448 28.8282ZM20.462 30.3009L22.2 29.711C21.5793 29.7573 20.9809 29.9603 20.462 30.3009ZM29.2313 32.1746C28.6155 32.1781 28.0043 32.2811 27.4219 32.4793C28.035 32.4282 28.652 32.4125 29.2313 32.1805V32.1746ZM23.9499 36.1717C24.5386 36.108 25.1167 35.9699 25.67 35.7608C25.0764 35.7989 24.4942 35.94 23.9499 36.1776V36.1717ZM24.922 43.3146C24.2918 43.4671 23.6764 43.6743 23.0829 43.9339L23.1225 44.0322L24.922 43.3146ZM26.0033 26.286C26.6298 26.3311 27.2595 26.2941 27.8762 26.1759C27.2506 26.0856 26.6128 26.1251 26.0033 26.2919V26.286ZM24.4994 42.015C24.038 42.0711 23.6012 42.2528 23.2376 42.5399L24.4994 42.015ZM22.8051 27.9612L22.8329 28.0988L24.4895 27.6486C23.9141 27.6583 23.3446 27.7647 22.8051 27.9631V27.9612ZM25.176 29.8565C24.5371 29.8093 23.9598 29.9529 23.7614 30.2163L25.176 29.8565ZM27.533 29.9607C27.9973 30.0531 28.4476 29.947 29.019 29.8663C28.4337 29.7326 27.9854 29.8545 27.533 29.9627V29.9607ZM19.3648 32.3083C18.968 32.4538 18.849 32.558 18.7696 32.8824C18.974 32.6405 19.222 32.5599 19.3648 32.3102V32.3083ZM25.3744 43.1219C25.4657 43.1219 25.5549 43.1435 25.6164 43.0511C25.5728 43.0343 25.5245 43.0334 25.4802 43.0485C25.4359 43.0637 25.3984 43.0938 25.3744 43.1337V43.1219ZM25.1879 43.2084C25.1879 43.2084 25.1879 43.1888 25.178 43.1848C25.1664 43.1809 25.1538 43.1809 25.1423 43.1848C25.1085 43.1986 25.1125 43.2143 25.1522 43.2222C25.1919 43.23 25.176 43.2241 25.1879 43.2202V43.2084Z" fill="#0C0505"/>
<path d="M32.7324 31.4974C32.663 33.7644 31.8694 36.0195 29.7386 37.6573C29.4361 37.8781 29.1109 38.0666 28.7684 38.2196C28.5997 38.3002 28.5243 38.2511 28.57 38.0839C28.6394 37.8323 28.7009 37.5767 28.9509 37.4096C31.0579 35.9979 31.9805 33.9433 32.0976 31.5112C32.2067 29.262 31.5837 27.2447 29.9965 25.5814C29.6768 25.2578 29.3215 24.9709 28.937 24.7261C28.8358 24.6593 28.6255 24.6042 28.7267 24.4529C28.8279 24.3015 28.9668 24.4745 29.07 24.5374C30.5679 25.432 31.5619 26.7355 32.1749 28.3399C32.5182 29.2521 32.6868 30.2057 32.7324 31.4974Z" fill="#0C0505"/>
<path d="M20.322 38.4519C20.7188 39.9579 20.6752 41.4699 20.6157 42.974C20.5661 44.1969 20.6038 45.4198 20.6613 46.6408C20.6811 47.0576 20.82 47.3584 21.3001 47.4056C21.4471 47.4448 21.5875 47.505 21.7168 47.5845C21.068 47.8558 20.3597 47.5275 20.2208 46.9082C20.0085 45.9644 20.0224 44.9991 20.0542 44.0475C20.0998 42.2957 20.1058 40.5399 20.2843 38.792C20.2962 38.6859 20.3101 38.5699 20.322 38.4519Z" fill="#0C0505"/>
<path d="M17.3409 27.0702C17.1425 27.9235 16.7457 28.7139 16.587 29.5829C16.0077 32.7503 17.1207 35.2237 19.7416 37.1426C18.9142 37.1249 16.9461 34.9799 16.4422 33.3814C15.7398 31.1538 15.7795 28.9891 17.3409 27.0702Z" fill="#0C0505"/>
<path d="M18.3783 25.659C18.5668 24.4675 22.259 22.8297 23.9077 23.223C22.9276 23.6044 21.9118 23.7145 20.9853 24.1058C20.052 24.5092 19.1756 25.0313 18.3783 25.659Z" fill="#0C0505"/>
<path d="M32.9097 28.441C33.4254 29.4051 33.583 30.5188 33.3548 31.5868C33.2282 30.5291 33.2203 29.4634 32.9097 28.441Z" fill="#0C0505"/>
<path d="M25.4192 32.2664L21.723 33.3851L21.6793 33.2396C22.8539 32.6852 24.1316 32.4316 25.4192 32.2664Z" fill="#F8F2EA"/>
<path d="M21.6266 32.0131C22.7495 31.3604 24.0233 31.2601 25.2494 30.9907L25.2772 31.089L21.6643 32.1252L21.6266 32.0131Z" fill="#F8F2EA"/>
<path d="M29.2444 33.3133C28.1036 33.5944 26.9807 33.681 25.7982 33.8677C26.3716 33.5158 28.5917 33.1639 29.2444 33.3133Z" fill="#F8F2EA"/>
<path d="M26.6244 28.9993C27.5172 28.8243 28.41 28.6631 29.3405 28.7241C29.4182 28.7173 29.4965 28.7267 29.5704 28.7517C29.6442 28.7768 29.7119 28.8169 29.769 28.8696C28.7247 28.9798 27.6743 29.0231 26.6244 28.9993Z" fill="#F8F2EA"/>
<path d="M24.868 26.889C23.511 27.2508 22.146 27.5791 20.7988 27.9743C22.0897 27.4041 23.4627 27.0379 24.868 26.889Z" fill="#6F6F6F"/>
<path d="M29.7265 30.9104C28.9171 31.1387 28.08 31.2558 27.2385 31.2584C28.0579 31.0716 28.8793 30.8907 29.7265 30.9104Z" fill="#F8F2EA"/>
<path d="M25.9212 25.6236C24.7499 25.687 23.5829 25.8137 22.4254 26.003C23.5522 25.6408 24.742 25.5116 25.9212 25.6236Z" fill="#6F6F6F"/>
<path d="M26.7089 28.2975C27.5501 28.0419 28.423 27.9987 29.2881 27.9318C28.4488 28.1894 27.5719 28.1835 26.7089 28.2975Z" fill="#F8F2EA"/>
<path d="M22.4361 28.8281L19.837 29.6244C20.2537 29.3412 21.952 28.8202 22.4361 28.8281Z" fill="#6F6F6F"/>
<path d="M24.2568 35.006L22.3204 35.5133C22.8815 35.2351 23.4792 35.0365 24.0961 34.9235C24.1556 34.9353 24.2429 34.9235 24.2568 35.006Z" fill="#F8F2EA"/>
<path d="M20.4614 30.3009C20.9804 29.9604 21.5788 29.7573 22.1994 29.7111L20.4614 30.3009Z" fill="#F8F2EA"/>
<path d="M29.2309 32.1799C28.6516 32.4119 28.0405 32.4277 27.4215 32.4847C28.004 32.2864 28.6151 32.1835 29.2309 32.1799Z" fill="#6F6F6F"/>
<path d="M23.9491 36.177C24.4938 35.9415 25.076 35.8024 25.6692 35.7661C25.1159 35.9752 24.5378 36.1133 23.9491 36.177Z" fill="#6F6F6F"/>
<path d="M24.9217 43.32L23.1222 44.0376L23.0825 43.9393C23.676 43.6797 24.2915 43.4725 24.9217 43.32Z" fill="#6F6F6F"/>
<path d="M26.0031 26.2917C26.6129 26.1269 27.2507 26.0894 27.876 26.1816C27.2593 26.2998 26.6295 26.3368 26.0031 26.2917Z" fill="#6F6F6F"/>
<path d="M24.499 42.0172L23.2372 42.5422C23.6008 42.255 24.0375 42.0733 24.499 42.0172Z" fill="#F8F2EA"/>
<path d="M22.8044 27.9629C23.3441 27.7652 23.9136 27.6595 24.4889 27.6503L22.8322 28.1006L22.8044 27.9629Z" fill="#6F6F6F"/>
<path d="M25.1753 29.8589L23.7607 30.2187C23.9591 29.9553 24.5365 29.8117 25.1753 29.8589Z" fill="#6F6F6F"/>
<path d="M27.5321 29.9622C27.9845 29.8541 28.4328 29.7322 29.0181 29.8679C28.4467 29.9485 27.9964 30.0547 27.5321 29.9622Z" fill="#6F6F6F"/>
<path d="M24.2571 35.0055C24.2353 34.9229 24.156 34.9347 24.0964 34.915C24.4379 34.7515 24.818 34.6835 25.1956 34.7184C24.9003 34.8633 24.5835 34.9602 24.2571 35.0055Z" fill="#6F6F6F"/>
<path d="M19.363 32.3103C19.2205 32.5597 18.9673 32.6402 18.7694 32.8836C18.8485 32.5597 18.9653 32.4635 19.363 32.3103Z" fill="#F8F2EA"/>
<path d="M22.4826 34.1278L21.6516 34.3733C21.8851 34.12 22.2214 34.12 22.5063 33.9943L22.4826 34.1278Z" fill="#F8F2EA"/>
<path d="M22.4855 34.1286L22.5092 33.995C22.7581 33.8837 23.0277 33.8255 23.3006 33.8242C23.056 33.9863 22.7771 34.0904 22.4855 34.1286Z" fill="#6F6F6F"/>
<path d="M25.3743 43.134C25.4 43.0958 25.4381 43.0678 25.4822 43.0548C25.5262 43.0418 25.5734 43.0445 25.6156 43.0625C25.5543 43.1558 25.4653 43.1419 25.3743 43.134Z" fill="#6F6F6F"/>
<path d="M25.1861 43.2198C25.1745 43.2198 25.1609 43.2317 25.1513 43.2297C25.1416 43.2278 25.1087 43.206 25.1416 43.1921C25.1529 43.1882 25.1651 43.1882 25.1764 43.1921C25.1764 43.1921 25.1822 43.2119 25.1861 43.2198Z" fill="#6F6F6F"/>
</svg>
