<svg width="123" height="121" viewBox="0 0 123 121" fill="none" xmlns="http://www.w3.org/2000/svg">
    <g filter="url(#filter0_d_12127_20046)">
    <path d="M0 56.3701C0.208486 42.0556 5.02958 29.452 14.7848 18.7906C22.7356 10.103 32.5757 4.52283 44.0212 1.68424C47.5513 0.808938 51.1392 0.300585 54.773 0.0960759C62.2867 -0.328135 69.599 0.644161 76.6899 3.17774C83.9469 5.77092 90.3593 9.72205 95.9566 14.9809C100.72 19.4555 104.434 24.6816 107.452 30.4476C110.559 36.3866 112.578 42.6387 113.484 49.2613C113.89 52.2308 114.073 55.2131 113.974 58.2048C113.515 72.1337 108.635 84.3248 99.1193 94.5865C91.0566 103.28 81.1353 108.866 69.4883 111.388C66.1478 112.111 62.7673 112.565 59.3443 112.639C44.0424 112.975 30.5497 108.235 19.0441 98.2174C9.90721 90.2614 4.10965 80.2708 1.39815 68.5214C0.557141 64.88 0.10601 61.1848 0.0541828 57.4452C0.0494713 57.1063 0.021202 56.7686 0.00117789 56.3713L0 56.3701Z" fill="#181818"/>
    </g>
    <path d="M59.5089 107.052C51.6005 107.195 44.2246 105.905 37.1514 103.034C32.077 100.974 27.336 98.3368 23.2099 94.7164C16.4264 88.7658 11.4664 81.567 8.34142 73.1307C6.97624 69.4472 6.0622 65.6527 5.57574 61.7612C5.09516 57.9257 4.95028 54.074 5.47915 50.2397C6.19059 45.0837 7.71478 40.1509 9.99282 35.4577C14.4853 26.2022 21.1133 18.8072 29.8508 13.3193C35.6366 9.68604 41.9336 7.26699 48.6829 6.0411C52.0057 5.43692 55.3568 5.15294 58.7326 5.18449C63.9624 5.23358 69.0992 5.95111 74.0652 7.58953C77.5235 8.7301 80.7438 10.4106 83.7922 12.3926C93.6853 18.8259 100.702 27.5882 105.113 38.4342C107.027 43.1403 108.219 48.0286 108.696 53.0865C108.927 55.5289 109.057 57.9772 108.849 60.4231C108.603 63.3283 108.014 66.1786 107.217 68.9845C104.849 77.3039 100.668 84.6137 94.7089 90.9114C88.479 97.4954 81.0324 102.231 72.4008 105.09C69.8083 105.949 67.1039 106.375 64.39 106.7C62.6774 106.904 60.9577 106.995 59.5089 107.054V107.052Z" fill="#F8F2EA"/>
    <path d="M58.8924 104.855C51.4478 104.991 44.5043 103.765 37.8458 101.037C33.069 99.0803 28.606 96.5743 24.7218 93.1345C18.3361 87.4807 13.6669 80.6411 10.7252 72.6256C9.44007 69.1258 8.57963 65.5206 8.12168 61.8232C7.66929 58.1791 7.5329 54.5194 8.03076 50.8764C8.70049 45.9777 10.1353 41.291 12.2798 36.8319C16.5088 28.0381 22.7481 21.0119 30.9734 15.7978C36.4199 12.3458 42.3477 10.0474 48.7012 8.88265C51.8292 8.30861 54.9838 8.0388 58.1617 8.06878C63.0848 8.11541 67.9204 8.79715 72.5952 10.3538C75.8507 11.4375 78.8822 13.0342 81.7518 14.9173C91.0648 21.0297 97.6701 29.3549 101.823 39.6599C103.624 44.1312 104.747 48.7757 105.196 53.5812C105.413 55.9018 105.535 58.2279 105.34 60.5519C105.108 63.3121 104.554 66.0202 103.803 68.6861C101.574 76.5906 97.6379 83.5357 92.0284 89.5193C86.1638 95.7749 79.1539 100.274 71.0284 102.991C68.5879 103.807 66.0421 104.211 63.4873 104.52C61.8751 104.714 60.2562 104.801 58.8924 104.856V104.855Z" fill="#181818"/>
    <path d="M14.416 22.3257C15.6186 20.5284 16.9791 18.8502 18.4326 17.2515C19.2394 16.3645 20.1994 15.6283 21.1877 14.8231C19.0486 17.4958 16.7258 19.9113 14.5161 22.425C14.4289 22.4449 14.383 22.425 14.416 22.3257Z" fill="#F8F2EA"/>
    <path d="M89.8689 16.5795C92.4732 18.6842 94.8372 21.0261 96.9362 23.6287C96.9539 23.714 96.9291 23.7572 96.8337 23.7257C94.5898 21.2669 92.1752 18.9764 89.7581 16.6882C89.7417 16.5994 89.7723 16.5561 89.8677 16.5795H89.8689Z" fill="#F8F2EA"/>
    <path d="M111.283 52.8677C111.567 55.053 111.715 57.2442 111.5 59.4435C111.42 60.2686 111.292 61.089 111.186 61.9117C110.94 61.7972 111.104 61.609 111.101 61.4501C111.232 59.4073 111.352 57.3646 111.282 55.316C111.255 54.5318 111.219 53.7477 111.186 52.9635C111.154 52.8689 111.196 52.8455 111.283 52.8665V52.8677Z" fill="#F8F2EA"/>
    <path d="M62.3871 108.723C61.1774 108.879 59.9689 109.039 58.758 109.188C57.6202 109.33 56.4788 109.448 55.3421 109.604C55.0418 109.647 54.7555 109.6 54.4634 109.593C54.3774 109.59 54.2161 109.666 54.2361 109.474C54.249 109.351 54.3503 109.303 54.4717 109.295C54.9051 109.267 55.3374 109.222 55.772 109.207C57.7262 109.139 59.6661 108.917 61.6038 108.671C61.8617 108.638 62.122 108.597 62.3871 108.722V108.723Z" fill="#F8F2EA"/>
    <path d="M34.3858 9.30137C36.7227 8.00069 39.2775 7.26913 41.8159 6.49667C41.9172 6.46278 41.9419 6.50835 41.9242 6.59951C39.4153 7.45728 36.917 8.3466 34.4835 9.4007C34.3869 9.42875 34.3634 9.38785 34.3858 9.30137Z" fill="#F8F2EA"/>
    <path d="M87.2354 98.9106C89.2766 97.1366 91.3662 95.4141 93.2579 93.4718C92.8009 94.3576 88.5204 98.2445 87.2354 98.9106Z" fill="#F8F2EA"/>
    <path d="M96.3667 18.6782C97.2595 19.3291 100.688 23.3235 101.167 24.2315C99.4422 22.4879 98.0864 20.4288 96.3667 18.6782Z" fill="#F8F2EA"/>
    <path d="M87.5099 13.2727C86.2732 12.5598 85.0376 11.8458 83.8008 11.1329C85.1636 11.6273 86.6053 11.9825 87.5099 13.2727Z" fill="#F8F2EA"/>
    <path d="M14.1338 25.2789C14.9807 24.0694 15.9372 22.9428 16.8865 21.8127C16.9525 21.7333 17.009 21.5463 17.1657 21.6632C17.3388 21.7929 17.1857 21.8969 17.0986 21.9997C16.1433 23.1263 15.188 24.254 14.2339 25.3817C14.1503 25.3957 14.1032 25.3735 14.135 25.2789H14.1338Z" fill="#F8F2EA"/>
    <path d="M110.571 66.3925C110.325 68.0169 109.944 69.6097 109.426 71.171C109.398 71.2049 109.369 71.2061 109.337 71.1745C109.75 69.4882 110.171 67.8042 110.469 66.0922C110.691 66.1284 110.565 66.2826 110.571 66.3913V66.3925Z" fill="#F8F2EA"/>
    <path d="M96.8354 23.7259C96.8696 23.6932 96.9038 23.6616 96.9379 23.6289C98.0805 24.9308 99.077 26.3389 100.023 27.7845C100.055 27.8757 100.011 27.8909 99.9333 27.8722C98.9792 26.4324 97.8967 25.0874 96.8354 23.7259Z" fill="#F8F2EA"/>
    <path d="M110.571 66.3924C110.525 66.2965 110.591 66.1622 110.469 66.0932C110.68 64.5459 110.89 62.9987 111.101 61.4514C111.16 61.5998 111.069 61.7751 111.186 61.913C110.981 63.4065 110.776 64.8989 110.572 66.3924H110.571Z" fill="#F8F2EA"/>
    <path d="M108.879 72.9375C108.622 74.2241 108.077 75.4138 107.622 76.6339C107.542 76.8489 107.449 77.0592 107.362 77.2719C107.284 77.2824 107.229 77.2743 107.28 77.1761C107.809 75.7445 108.365 74.3211 108.806 72.8592C108.841 72.8463 108.876 72.8346 108.9 72.8755C108.909 72.8919 108.897 72.9153 108.88 72.9375H108.879Z" fill="#F8F2EA"/>
    <path d="M109.688 41.8357C110.123 43.1761 110.541 44.5212 110.584 45.9422C110.285 44.5738 109.987 43.2053 109.688 41.8357Z" fill="#F8F2EA"/>
    <path d="M53.2159 4.11503C54.2336 4.01687 55.2466 3.85793 56.269 3.83105C56.2737 3.88715 56.2796 3.94207 56.2843 3.99817C55.2937 4.07062 54.3031 4.14308 53.3113 4.21553C53.2171 4.24007 53.19 4.20151 53.2147 4.11386L53.2159 4.11503Z" fill="#F8F2EA"/>
    <path d="M2.78358 56.3129V59.0744C2.73442 59.0744 2.68527 59.0721 2.63611 59.0709C2.42777 58.0776 2.79295 57.1029 2.78358 56.3129Z" fill="#F8F2EA"/>
    <path d="M5.6838 39.4448C5.49769 39.9474 5.30687 40.4499 5.12666 40.9547C5.07954 41.0868 5.023 41.1931 4.86752 41.1312C4.66728 41.0505 4.81923 40.936 4.86399 40.8449C5.09367 40.3751 5.32925 39.91 5.56365 39.4425C5.60488 39.4039 5.64493 39.4051 5.68497 39.446L5.6838 39.4448Z" fill="#F8F2EA"/>
    <path d="M44.4319 5.10583C43.5273 5.32904 42.6239 5.55224 41.7192 5.77662C42.5355 5.32436 43.4354 5.16777 44.3353 5.00883C44.4272 4.98312 44.4543 5.02052 44.4319 5.107V5.10583Z" fill="#F8F2EA"/>
    <path d="M4.83288 70.8096C4.39941 69.9425 4.27691 68.9889 4.15088 68.0353C4.37821 68.9597 4.60554 69.8852 4.83288 70.8096Z" fill="#F8F2EA"/>
    <path d="M14.1334 25.2789C14.1664 25.3128 14.1994 25.3479 14.2324 25.3818C13.8189 25.9462 13.4055 26.5118 12.992 27.0763C12.9567 27.0529 12.9225 27.0295 12.8872 27.0062C13.2865 26.4207 13.6658 25.8212 14.1334 25.2789Z" fill="#F8F2EA"/>
    <path d="M21.6519 96.8502C22.2055 97.2861 22.7591 97.722 23.3127 98.1579C22.4469 97.7617 21.911 97.3375 21.6519 96.8502Z" fill="#F8F2EA"/>
    <path d="M64.7539 3.29712C64.1249 3.25038 63.4948 3.20247 62.8198 3.15222C63.5136 2.79228 64.1308 3.21532 64.7657 3.1826C64.761 3.22 64.7575 3.25856 64.7527 3.29596L64.7539 3.29712Z" fill="#F8F2EA"/>
    <path d="M76.293 7.97266C77.0197 8.06498 77.6499 8.34194 78.2235 8.75797C77.5804 8.4962 76.9361 8.23443 76.293 7.97266Z" fill="#F8F2EA"/>
    <path d="M41.9243 6.59982C41.8878 6.56593 41.8524 6.53087 41.8159 6.49698C42.3436 6.25624 42.9078 6.15223 43.4626 6.0155C43.4744 6.0529 43.4862 6.09029 43.4979 6.12769C42.9726 6.28546 42.4484 6.44205 41.9231 6.59982H41.9243Z" fill="#F8F2EA"/>
    <path d="M67.9452 108.275C68.394 108.143 68.8428 108.009 69.2915 107.877C69.0242 108.338 68.5318 108.233 68.1396 108.375C68.043 108.401 67.9334 108.454 67.9452 108.275Z" fill="#F8F2EA"/>
    <path d="M59.2563 110.249C59.976 110.236 60.6863 110.034 61.4131 110.169C60.6934 110.182 59.9855 110.415 59.2563 110.249Z" fill="#F8F2EA"/>
    <path d="M20.0347 94.0232C20.4434 94.4042 20.8533 94.7863 21.262 95.1673C21.2361 95.1942 21.209 95.2222 21.1831 95.2491C20.7308 94.9113 20.335 94.5164 20.0347 94.0232Z" fill="#F8F2EA"/>
    <path d="M22.4981 96.3652C22.0635 96.0696 21.6701 95.7295 21.3379 95.3217C21.7926 95.5916 22.1895 95.9305 22.5641 96.2975C22.5735 96.3489 22.5511 96.3722 22.4981 96.3652Z" fill="#F8F2EA"/>
    <path d="M7.20876 78.5134C6.92136 78.0471 6.7329 77.5435 6.65869 76.993C6.866 77.4792 7.07331 77.9665 7.28062 78.4527C7.28062 78.5006 7.25706 78.5204 7.20994 78.5146L7.20876 78.5134Z" fill="#F8F2EA"/>
    <path d="M89.8694 16.5797C89.8329 16.6159 89.7964 16.6521 89.7599 16.6884C89.4784 16.4336 89.1968 16.1788 88.9165 15.9241C89.3064 16.0515 89.6068 16.291 89.8706 16.5797H89.8694Z" fill="#F8F2EA"/>
    <path d="M99.9341 27.8722C99.9635 27.843 99.9941 27.8138 100.024 27.7845C100.331 28.1234 100.542 28.5184 100.689 28.9578C100.437 28.5956 100.186 28.2333 99.9341 27.8722Z" fill="#F8F2EA"/>
    <path d="M44.4311 5.10615C44.3993 5.07343 44.3663 5.04071 44.3345 5.00799C44.7903 4.85841 45.2532 4.74388 45.7362 4.73804C45.7468 4.74972 45.7562 4.76258 45.7668 4.77426C45.3392 4.95657 44.8798 5.00799 44.4311 5.10499V5.10615Z" fill="#F8F2EA"/>
    <path d="M29.3252 101.041C29.6621 101.236 30.0001 101.431 30.337 101.625C29.9283 101.56 29.5843 101.37 29.3252 101.041Z" fill="#F8F2EA"/>
    <path d="M67.9456 108.275C67.9692 108.387 68.0752 108.341 68.14 108.375C67.7371 108.469 67.3355 108.563 66.9326 108.657C67.2412 108.435 67.5899 108.343 67.9456 108.275Z" fill="#F8F2EA"/>
    <path d="M111.281 52.8677C111.249 52.9004 111.218 52.932 111.185 52.9647C111.061 52.6246 111.095 52.2775 111.179 51.9258L111.281 52.8677Z" fill="#F8F2EA"/>
    <path d="M23.9318 97.4812C23.6208 97.2977 23.3252 97.0944 23.0778 96.8302C23.0754 96.7847 23.099 96.7683 23.1426 96.7788C23.4512 96.912 23.6703 97.1633 23.9294 97.362C23.9706 97.4005 23.9718 97.4403 23.9318 97.4812Z" fill="#F8F2EA"/>
    <path d="M34.3869 9.30158C34.4199 9.33431 34.4517 9.3682 34.4847 9.40092C34.2361 9.5727 33.9605 9.68022 33.6602 9.72696C33.8734 9.5318 34.1136 9.38923 34.3857 9.30042L34.3869 9.30158Z" fill="#F8F2EA"/>
    <path d="M53.2154 4.11499C53.2472 4.14888 53.2802 4.18277 53.312 4.21666C53.0022 4.37326 52.6795 4.2973 52.3521 4.22484C52.6395 4.18861 52.928 4.15122 53.2154 4.11499Z" fill="#F8F2EA"/>
    <path d="M5.68208 39.4449C5.64228 39.4449 5.60132 39.4426 5.56152 39.4414C5.67974 39.1808 5.79795 38.9202 5.91616 38.6608C5.90797 38.9506 5.86115 39.2217 5.68208 39.4449Z" fill="#F8F2EA"/>
    <path d="M7.66748 34.4161C7.81 34.1274 7.95253 33.8376 8.09505 33.549C8.13039 33.5653 8.1669 33.5817 8.20224 33.598C8.06678 33.8902 7.98198 34.2057 7.66748 34.4161Z" fill="#F8F2EA"/>
    <path d="M108.051 43.0469C107.982 42.7711 107.913 42.4953 107.844 42.2195C108.047 42.424 108.133 42.6671 108.137 42.9382C108.181 43.0317 108.137 43.0562 108.05 43.0469H108.051Z" fill="#F8F2EA"/>
    <path d="M107.28 77.1761C107.307 77.2077 107.334 77.2404 107.361 77.272C107.274 77.5162 107.176 77.7546 106.941 78.0141C107.028 77.6681 107.133 77.4145 107.28 77.1761Z" fill="#F8F2EA"/>
    <path d="M14.4163 22.3258C14.4493 22.3585 14.4835 22.3924 14.5164 22.4251C14.4045 22.6776 14.2019 22.8564 13.9946 23.0363C14.0783 22.7652 14.2125 22.5256 14.4163 22.3258Z" fill="#F8F2EA"/>
    <path d="M7.27921 78.4526C7.42668 78.7097 7.56597 78.968 7.5964 79.2742C7.41849 79.0451 7.27336 78.8009 7.20898 78.5146C7.23239 78.4935 7.2558 78.4737 7.27921 78.4526Z" fill="#F8F2EA"/>
    <path d="M23.9311 97.4811C23.9311 97.4414 23.9299 97.4017 23.9287 97.3619C24.1619 97.4952 24.3751 97.6529 24.5365 97.8796C24.3115 97.7826 24.0854 97.6891 23.9311 97.4823V97.4811Z" fill="#F8F2EA"/>
    <path d="M107.3 39.9898C107.12 39.7923 106.985 39.5785 107.033 39.208C107.144 39.5341 107.223 39.7619 107.3 39.9898Z" fill="#F8F2EA"/>
    <path d="M108.053 43.0467C108.082 43.0104 108.11 42.9742 108.139 42.938C108.256 43.1554 108.29 43.3902 108.254 43.6427C108.187 43.444 108.119 43.2453 108.053 43.0467Z" fill="#F8F2EA"/>
    <path d="M109.336 71.1744C109.366 71.1873 109.395 71.1849 109.425 71.1709C109.358 71.3836 109.291 71.5974 109.185 71.9375C109.147 71.5694 109.208 71.3649 109.336 71.1756V71.1744Z" fill="#F8F2EA"/>
    <path d="M45.7358 4.73932C45.9808 4.61661 46.2376 4.56285 46.6087 4.60609C46.2659 4.67504 46.0315 4.79307 45.7665 4.77554C45.7559 4.76386 45.7464 4.751 45.7358 4.73932Z" fill="#F8F2EA"/>
    <path d="M23.0776 96.8304C22.8844 96.675 22.6912 96.5207 22.498 96.3653C22.5204 96.3431 22.5416 96.3197 22.564 96.2975C22.7843 96.426 22.9786 96.585 23.1424 96.779C23.1141 96.7871 23.0929 96.8047 23.0776 96.8304Z" fill="#F8F2EA"/>
    <path d="M108.879 72.9378C108.855 72.9121 108.83 72.8852 108.806 72.8595C108.864 72.6562 108.923 72.4529 108.981 72.2495C109.013 72.4926 109.022 72.7298 108.878 72.9378H108.879Z" fill="#F8F2EA"/>
    <path d="M80.8789 97.6116C80.76 97.7978 80.5871 97.9436 80.3831 98.0299C78.2614 99.3178 75.9618 100.29 73.5574 100.914C71.6478 101.429 69.7465 101.96 67.7969 102.322C64.5718 102.906 61.3096 103.265 58.0342 103.395C54.9815 103.518 51.9239 103.423 48.885 103.109C44.5971 102.665 40.4164 101.766 36.4038 100.134C35.0717 99.6042 33.7929 98.9501 32.5844 98.1805C32.4185 98.0759 32.1832 98.0153 32.1475 97.7622C32.5109 97.8479 32.7336 97.6408 32.9038 97.3731C33.1434 96.9972 33.3081 96.5789 33.3891 96.1411C33.6454 94.7731 33.5992 93.378 33.7252 91.9974C33.9458 89.6966 34.1223 87.3832 34.7357 85.1325C35.2567 83.2165 35.7861 81.3047 36.7084 79.533C38.011 77.023 39.929 75.0631 42.1223 73.3249C44.5299 71.4172 47.0677 69.6581 49.1623 67.3823C49.2715 67.2631 49.343 67.2652 49.4648 67.3677C50.1215 67.9076 50.8541 68.3487 51.6392 68.6771C55.8409 70.5178 59.822 70.1706 63.5658 67.4807C63.7191 67.3698 63.8389 67.1502 64.0321 67.4807C65.0364 69.131 66.4439 70.409 67.8851 71.664C68.8305 72.4861 69.8389 73.2433 70.673 74.1741C72.7999 76.5653 74.6232 79.2082 76.1016 82.0431C78.4272 86.4858 79.5449 91.28 80.0701 96.2289C80.1331 96.8293 80.2844 97.3375 80.8789 97.6116Z" fill="#F8F2EA"/>
    <path d="M80.8789 97.6116C80.2844 97.3375 80.1331 96.8293 80.0701 96.229C79.5449 91.28 78.4272 86.4858 76.1016 82.0431C74.6234 79.2075 72.8001 76.5639 70.673 74.172C69.8326 73.237 68.8305 72.4798 67.8852 71.662C66.444 70.4069 65.0364 69.1247 64.0322 67.4786C63.8389 67.1585 63.7192 67.3782 63.5658 67.4786C59.8221 70.1685 55.8325 70.5157 51.6392 68.675C50.8541 68.3466 50.1215 67.9055 49.4649 67.3656C49.343 67.2631 49.2716 67.261 49.1623 67.3803C47.0615 69.656 44.5299 71.4151 42.1224 73.3228C39.9291 75.061 38.011 77.0293 36.7085 79.5309C35.7841 81.3026 35.2568 83.2144 34.7358 85.1304C34.1223 87.3811 33.9458 89.6882 33.7252 91.9953C33.595 93.3759 33.6454 94.771 33.3891 96.139C33.3082 96.5769 33.1434 96.9951 32.9038 97.371C32.7336 97.6387 32.5109 97.8458 32.1475 97.7601C31.824 97.6869 31.6517 97.4317 31.4668 97.1953C31.4668 97.1535 31.492 97.1054 31.4773 97.0719C30.9815 95.8755 30.9647 94.6142 30.9584 93.3487C30.9416 90.5102 31.4458 87.745 32.1412 85.0091C33.3912 80.0915 35.7127 75.8161 39.595 72.4171C41.5299 70.7207 43.6014 69.1917 45.4963 67.4514C46.509 66.5206 47.5405 65.6107 48.3913 64.523C48.4312 64.523 48.4711 64.4916 48.4417 64.4477C48.4123 64.4038 48.3766 64.4477 48.3409 64.4477C47.8681 64.6145 47.3807 64.737 46.885 64.8137C45.801 65.0229 44.7505 64.9664 43.7757 64.3766C43.3346 64.1109 42.8955 63.8369 42.4333 63.6152C40.6055 62.7471 39.4564 62.8957 38.303 64.3075C38.2862 64.3306 38.2673 64.3515 38.2526 64.3745C38.2339 64.4161 38.2053 64.4526 38.1694 64.4808C38.1334 64.5091 38.0911 64.5282 38.0461 64.5367C38.0011 64.5451 37.9547 64.5425 37.9109 64.5292C37.8671 64.5159 37.8272 64.4923 37.7946 64.4602C37.3051 64.136 36.908 63.7449 36.7442 63.1592C36.6007 62.6221 36.5412 62.0661 36.5677 61.5109C36.6321 60.3136 36.9721 59.1471 37.5614 58.1015C38.6412 56.1144 38.9039 53.9432 39.0656 51.7553C39.2043 49.9041 39.2148 48.0467 39.4858 46.1976C40.1749 41.3282 42.3261 37.2556 46.0237 33.9905C47.643 32.5096 49.6303 31.4863 51.78 31.0266C52.8157 30.8174 53.8409 30.5392 54.9061 30.4994C55.9957 30.4468 57.085 30.6114 58.1099 30.9835C59.1348 31.3557 60.0747 31.9278 60.8746 32.6664C60.9567 32.7545 61.0661 32.8127 61.1853 32.8317C61.3045 32.8506 61.4266 32.8293 61.5322 32.771C63.0637 32.1895 64.6309 31.8946 66.2759 32.2941C68.3342 32.8052 70.1745 33.9581 71.528 35.5844C73.7629 38.1547 75.0742 41.3929 75.255 44.7878C75.3222 45.8337 75.3159 46.8963 75.3726 47.9484C75.4587 49.5694 75.5827 51.1884 75.6667 52.8074C75.7718 54.6899 75.8936 56.5725 76.9398 58.2458C77.1388 58.5954 77.2906 58.9695 77.3915 59.3586C77.5825 59.9952 77.6291 60.666 77.5281 61.3227C77.484 61.6093 77.3369 61.6197 77.1331 61.4294C76.2676 60.6157 75.2424 60.4714 74.1457 60.8019C72.818 61.2202 71.694 61.9837 70.5953 62.8329C68.9776 64.0879 67.3158 65.3178 65.0637 65.3157C65.4867 66.1322 66.0196 66.8873 66.6478 67.5601C67.6982 68.6834 68.9188 69.6079 70.0448 70.6454C71.9503 72.3982 73.8264 74.1762 75.4398 76.2114C77.0239 78.209 78.5554 80.2316 79.5743 82.589C80.4884 84.7484 81.1694 86.9985 81.6058 89.3012C82.0827 91.7109 82.2844 94.1122 81.9567 96.5364C81.8369 96.7644 81.8075 97.028 81.6458 97.2455C81.4483 97.5091 81.2256 97.6764 80.8789 97.6116ZM45.9732 67.5748C45.9732 67.6375 46.011 67.6731 46.0762 67.6417C46.0888 67.6417 46.0888 67.602 46.0951 67.5831H45.9858L46.0005 67.694L46.051 67.6438L45.9732 67.5748ZM50.1287 67.0309L50.1665 67.1439C50.2506 67.123 50.3493 67.3008 50.4228 67.1272C50.2842 67.3091 50.4628 67.307 50.5573 67.3572C50.6471 67.4634 50.7586 67.5494 50.8842 67.6096C51.0099 67.6699 51.1469 67.7029 51.2863 67.7066L50.6035 67.3238C50.5573 67.2464 50.4354 67.2401 50.4249 67.1313C50.3367 67.1439 50.2443 67.0163 50.1644 67.1439C50.1791 67.1167 50.2485 67.1272 50.2128 67.0602C50.177 66.9933 50.1455 67.0498 50.114 67.0456V67.0121L50.1287 67.0309ZM47.2211 66.5791C47.2569 66.598 47.2611 66.6754 47.3346 66.6252C47.4081 66.575 47.3535 66.5373 47.3514 66.4934C47.5237 66.6126 47.5615 66.4474 47.6308 66.3595C47.9527 66.1284 48.2479 65.8625 48.5111 65.5667C48.5489 65.5061 48.6413 65.4371 48.4859 65.4078C48.5237 65.4245 48.5321 65.5082 48.6014 65.4475C48.6707 65.3869 48.6014 65.3576 48.6014 65.3137C48.6329 65.3283 48.6749 65.3639 48.6917 65.3534C48.7653 65.3095 48.7106 65.2697 48.6791 65.23C48.7148 65.2404 48.7317 65.3178 48.7884 65.2551C48.8451 65.1923 48.7716 65.1777 48.7569 65.1421C48.7968 65.1693 48.8409 65.2112 48.8766 65.1421C48.8766 65.1254 48.8556 65.0857 48.843 65.0564C48.8808 65.0689 48.8976 65.1442 48.9606 65.0857C49.0237 65.0271 48.9501 65.0041 48.9396 64.9643C48.9649 64.9832 49.0006 65.0208 49.0132 65.0145C49.0825 64.979 49.0384 64.9351 49.0132 64.8932C49.2233 64.9162 49.28 64.6841 49.4501 64.6339C49.4501 64.5941 49.4838 64.5376 49.4081 64.5272C49.4017 64.5275 49.3956 64.5297 49.3904 64.5334C49.3851 64.5371 49.3811 64.5422 49.3787 64.5481C49.364 64.6129 49.4018 64.6339 49.4607 64.6339C49.3703 64.454 49.3031 64.6088 49.2674 64.661C49.2022 64.7614 49.156 64.8702 49.0258 64.9037C49.009 64.9413 48.9964 64.9853 48.9396 64.9664C48.9396 65.0355 48.8997 65.0522 48.8451 65.0564C48.8451 65.1129 48.8325 65.1589 48.7611 65.14C48.7611 65.1965 48.7422 65.23 48.6812 65.2279C48.656 65.2572 48.6329 65.2886 48.6098 65.3199L48.5048 65.4057L48.469 65.5165C48.1478 65.7462 47.8514 66.0083 47.5846 66.2988C47.5132 66.3679 47.4417 66.4348 47.3745 66.508L47.2358 66.5749L47.2905 66.6607L47.3199 66.6419L47.2211 66.5791ZM48.0993 39.5649C48.0552 39.5962 48.0153 39.6297 48.0762 39.682L48.1392 39.6025C48.1504 39.6032 48.1617 39.6015 48.1721 39.5973C48.1826 39.5932 48.192 39.5868 48.1996 39.5786C48.2073 39.5703 48.213 39.5605 48.2164 39.5498C48.2197 39.5391 48.2206 39.5278 48.219 39.5168C48.2609 39.5095 48.2995 39.4899 48.3299 39.4604C48.3602 39.4309 48.3809 39.3929 48.3892 39.3515C48.4006 39.3526 48.4121 39.351 48.4228 39.3471C48.4335 39.3431 48.4432 39.3367 48.4511 39.3284C48.459 39.3202 48.4649 39.3102 48.4684 39.2994C48.4718 39.2885 48.4728 39.277 48.4711 39.2657C48.7349 39.0902 48.963 38.8666 49.1434 38.6069C48.8727 38.7704 48.6354 38.9833 48.4438 39.2344L48.3493 39.3118L48.1833 39.4728L48.0993 39.5649ZM67.278 40.6274H67.2948H67.2696L67.4335 40.7425L69.1856 42.4953C69.2297 42.5204 69.2255 42.6397 69.3032 42.5769C69.381 42.5142 69.3179 42.464 69.2507 42.4305C68.8074 41.7026 68.3347 41.006 67.486 40.686C67.4272 40.571 67.3515 40.5835 67.278 40.6274ZM73.423 58.1245C73.423 58.0617 73.3831 58.0576 73.3411 58.0806C73.3411 58.0806 73.3411 58.1245 73.3411 58.1496C73.3873 58.2061 73.3978 58.3483 73.4671 58.3148C73.5617 58.2751 73.423 58.1935 73.4188 58.1245H73.423ZM74.0175 59.2603L73.9587 59.1473C73.8516 58.9528 73.7486 58.7562 73.6394 58.5596C73.5974 58.5219 73.6121 58.3922 73.5218 58.4508C73.4314 58.5094 73.5218 58.5721 73.5806 58.6098C73.6237 58.8356 73.743 59.0401 73.9188 59.1892C73.9188 59.2394 73.9314 59.2791 73.986 59.2917L74.0302 59.4611C74.1016 59.4276 74.1079 59.5887 74.1835 59.5134C74.1961 59.5008 74.1835 59.4318 74.1499 59.4088C74.0827 59.3439 74.0344 59.367 74.0238 59.459C74.2108 59.3858 74.0932 59.3209 74.0133 59.2603H74.0175ZM67.2276 59.5176C67.215 59.595 67.1835 59.6786 67.3137 59.756C67.2927 59.6556 67.3557 59.5636 67.2234 59.5197L67.2066 59.1954C67.1646 59.3084 67.0889 59.4297 67.2234 59.5176H67.2276ZM49.5804 64.3829C49.6707 64.295 49.801 64.226 49.7653 64.0461C49.6686 64.1507 49.5552 64.2197 49.5552 64.3515L49.4838 64.4247L49.509 64.4519L49.5804 64.3829ZM67.6751 61.0173L67.7696 61.1554C67.82 61.0801 67.7696 61.0403 67.7171 60.9985C67.716 60.794 67.6346 60.598 67.4902 60.4526C67.4833 60.6576 67.5512 60.8582 67.6814 61.0173H67.6751ZM46.2989 67.4493C46.4617 67.3761 46.6055 67.2666 46.719 67.1292C46.4438 67.0581 46.3808 67.2903 46.24 67.397C46.2148 67.4305 46.1497 67.4639 46.2106 67.5078C46.2716 67.5518 46.2695 67.489 46.2989 67.4493ZM46.9291 62.3853L46.6497 62.9333C46.9333 62.8622 46.9837 62.7576 46.9291 62.379L47.0005 62.4376L47.0237 62.3706L46.9291 62.3853ZM48.8619 56.4595C48.8892 56.5034 48.9249 56.5453 48.9775 56.5034C48.9775 56.493 48.967 56.4428 48.9606 56.4114C48.8376 56.1957 48.6801 56.0014 48.4943 55.8362C47.3105 54.3183 46.4699 52.5638 46.03 50.6927C45.9669 50.3831 45.9816 50.0526 45.7421 49.6657C45.744 50.0138 45.7934 50.36 45.8892 50.6948C46.2669 52.6583 47.1542 54.4892 48.4627 56.0056C48.5489 56.1939 48.6056 56.4114 48.8577 56.4595H48.8619ZM69.7024 62.0673L70.5238 61.49C70.1844 61.5696 69.8782 61.7524 69.6478 62.013L69.3894 62.1468C69.549 62.2493 69.6142 62.128 69.6982 62.0673H69.7024ZM32.2778 92.4702C32.3275 92.0905 32.3205 91.7057 32.2567 91.3281C32.1899 91.7048 32.1849 92.0898 32.242 92.4681C32.1946 92.8567 32.2304 93.2509 32.3471 93.6248C32.4437 93.1834 32.2693 92.832 32.2778 92.4702ZM53.3136 31.9992C53.8514 31.9657 54.383 31.8695 54.9208 31.8256C55.4754 31.7917 56.0319 31.8029 56.5847 31.859C57.1036 31.9009 57.6183 31.9657 58.1372 32.0201C57.3872 31.6018 54.9523 31.5495 53.3304 31.8695C51.9712 32.0933 50.6434 32.4175 49.4207 33.0911C50.7044 32.6727 51.9733 32.2084 53.3136 31.9992ZM57.8851 38.2931L57.9397 38.3559C57.6204 38.8349 57.0994 39.1026 56.6792 39.4665C57.2569 39.3013 57.6729 38.9143 58.0805 38.519C58.1939 38.4082 58.2527 38.36 58.4019 38.5044C58.7107 38.8014 59.0511 39.0691 59.3893 39.341C61.1687 40.7299 63.0553 41.9097 65.3242 42.3405C65.8662 42.4451 66.3977 42.5853 66.9356 42.7108C65.6856 42.2318 64.4314 41.78 63.2759 41.1148C62.1204 40.4496 60.9754 39.7468 60.1981 38.6131C60.5344 38.7216 60.8408 38.9063 61.0931 39.1528C62.2576 40.1041 63.5441 40.8969 64.9187 41.5101C66.3326 42.1544 67.9062 42.4242 69.1961 43.3655C69.2948 43.1375 69.1331 43.0517 69.0301 42.9471C67.1267 41.1315 65.1561 39.3912 62.9376 37.9731C62.028 37.3916 61.0679 36.9147 59.9523 36.9C59.4208 36.9 58.967 36.672 58.509 36.4378C57.8407 36.0868 57.1022 35.8882 56.3473 35.8563C55.0487 35.79 53.7502 35.9872 52.5306 36.4359C51.311 36.8847 50.1958 37.5756 49.2527 38.4667C49.2233 38.4981 49.1623 38.5316 49.2212 38.5776C49.28 38.6236 49.2989 38.5588 49.322 38.519C49.9901 38.0463 50.6329 37.5359 51.3913 37.2054C52.367 36.7461 53.4263 36.4892 54.5048 36.4503C54.4901 36.5758 54.4103 36.5695 54.3493 36.5967C53.7191 36.8666 53.0489 36.9983 52.4082 37.2242C49.7884 38.1655 47.9501 40.0355 46.4795 42.2673C45.6665 43.4868 45.24 44.8945 44.8283 46.2918C44.7757 46.4675 44.6287 46.6285 44.677 46.9506C45.0032 46.3079 45.4238 45.7171 45.9249 45.1978C47.1854 43.9428 48.7022 43.0852 50.301 42.3573C52.2077 41.5157 54.065 40.5673 55.8641 39.5168C56.5342 39.111 57.1267 38.565 57.8851 38.2931ZM71.568 38.5169C70.7822 37.8559 70.0154 37.1699 69.2066 36.5382C67.5259 35.2267 65.7066 34.1704 63.6162 33.6412C62.904 33.432 62.149 33.4132 61.4271 33.5868C61.2822 33.6265 61.1792 33.6705 61.1477 33.8399C61.0973 34.1244 61.0196 34.4025 60.9481 34.71C62.8389 34.6138 64.6561 34.8774 66.3515 35.7391C68.1562 36.6553 69.8326 38.1551 70.444 39.454C69.8114 39.0061 69.2144 38.5103 68.6583 37.971C66.5364 36.0048 64.0364 34.961 61.1246 34.9966C60.9565 34.9966 60.8095 34.9861 60.7044 35.1848C60.5479 35.5095 60.3732 35.8251 60.1813 36.1303C60.049 36.3395 60.0217 36.4252 60.3305 36.4357C61.9288 36.5058 63.472 37.0379 64.7717 37.9668C64.8905 38.0602 65.0415 38.103 65.1919 38.086C65.7356 38.0248 66.2852 38.1275 66.7696 38.381C68.8305 39.3431 69.9797 41.0395 70.5511 43.1542C71.1709 45.4885 71.5869 47.8689 71.9923 50.2472C72.2549 51.7929 72.3474 53.3659 72.7549 54.8865C73.1625 56.4072 73.6478 57.9488 74.4923 59.3251C74.5869 59.4757 74.6646 59.6284 74.902 59.6096C75.4015 59.5768 75.9023 59.648 76.3726 59.8188C76.0596 59.1913 75.6247 58.706 75.3726 58.1161C74.3579 55.7379 73.8852 53.2738 74.1457 50.6843C74.2045 50.1049 74.3432 49.536 74.3222 48.9461C74.2865 47.9212 74.2318 46.8942 74.2465 45.8671C74.2739 43.6667 73.6163 41.6273 72.8117 39.6276C72.5401 38.9123 72.1727 38.2368 71.7192 37.6196C69.7255 35.0259 67.194 33.294 63.8704 32.8714C63.0553 32.7668 62.2906 32.9635 61.5322 33.2375C62.1492 33.1249 62.7811 33.12 63.3998 33.2228C65.6057 33.5742 67.4881 34.6305 69.2528 35.9274C70.2024 36.626 71.0553 37.4146 71.6226 38.4688C71.6023 38.4824 71.584 38.4986 71.568 38.5169ZM46.4795 37.446L46.3892 37.3749C46.4411 37.3092 46.4965 37.2464 46.5552 37.1866C48.9102 35.0217 51.6687 33.6872 54.8641 33.3797C56.6456 33.2082 58.4061 33.3797 59.9208 34.5155C59.9355 34.526 59.9712 34.5155 59.9964 34.4988C60.4418 33.3253 59.799 32.8798 58.946 32.6162C58.7212 32.5451 58.4922 32.4782 58.2611 32.428C55.6771 31.857 53.1645 32.1958 50.6981 33.0429C48.4333 33.8231 46.3913 34.9255 44.7568 36.7473C42.3829 39.4017 41.2274 42.5664 40.5971 45.9906C40.3303 47.4443 40.4081 48.9189 40.2694 50.3831C40.1535 51.1796 40.0834 51.982 40.0593 52.7865C40.1052 53.8117 40.0105 54.8385 39.7778 55.8383C39.448 57.0933 39.1476 58.3671 38.7022 59.5908C38.8156 59.6201 38.8471 59.551 38.8786 59.4925C39.4117 58.5325 40.0215 57.6169 40.7022 56.7544C42.1415 54.9895 42.9671 52.8075 43.0551 50.5358C43.1665 47.666 44.0762 44.9782 45.2505 42.3782C46.1287 40.435 47.5909 38.9102 49.1245 37.4648C49.9649 36.6699 50.8955 35.9379 51.988 35.5467C54.3241 34.71 56.6519 34.6368 58.8557 36.0048C59.0658 36.1345 59.1813 36.1366 59.3284 35.9253C59.5234 35.6383 59.6895 35.3328 59.8242 35.0133C59.8935 34.8502 59.8998 34.7247 59.6792 34.687C59.0595 34.5803 58.4796 34.3293 57.8767 34.1683C55.3914 33.4989 53.0153 33.9591 50.6876 34.869C49.1478 35.4833 47.7247 36.3548 46.4795 37.446ZM57.2758 59.4088C58.0021 59.4403 58.7285 59.3505 59.425 59.1431C61.9607 58.2604 64.0028 56.7293 65.3914 54.4347C67.3137 51.2616 67.631 47.9505 65.986 44.5577C65.9409 44.4589 65.8764 44.3701 65.7963 44.2964C65.7162 44.2228 65.6221 44.1658 65.5196 44.1289C64.3788 43.6499 63.1771 43.3257 62.0637 42.7819C60.7207 42.1034 59.4756 41.2479 58.362 40.2384C58.0994 40.0062 57.9292 39.9978 57.6582 40.2112C57.2128 40.5647 56.7401 40.8868 56.2653 41.2006C54.7002 42.2318 52.9376 42.8739 51.2611 43.6792C50.1938 44.1959 49.1287 44.7251 48.2758 45.5618C47.1707 46.6348 46.8052 47.9693 46.9312 49.5046C47.1413 52.0523 48.0531 54.2779 49.8073 56.1478C51.8199 58.2918 54.3262 59.3502 57.2716 59.3983L57.2758 59.4088ZM51.6792 60.4546C51.8609 61.9591 51.6042 63.4839 50.9397 64.8472C50.8514 65.0271 50.9628 65.1045 51.0552 65.1986C51.4873 65.6333 52.0004 65.98 52.5657 66.2194C54.0153 66.8112 55.5831 67.0597 57.1456 66.9452C58.8977 66.8552 60.5511 66.4139 61.9902 65.3534C62.6645 64.8577 62.6603 64.8514 62.4103 64.0461C62.3893 63.9791 62.3746 63.9122 62.3557 63.8369C62.0627 62.7012 61.8895 61.5382 61.8389 60.3668C58.4544 61.831 55.093 61.9084 51.675 60.4358L51.6792 60.4546ZM68.7885 43.7796C68.8263 43.9114 68.8389 43.9637 68.8558 44.0118C69.6961 46.4005 69.715 48.8227 69.1562 51.27C68.8936 52.4288 68.3158 53.4809 68.152 54.6836C67.9419 56.175 67.7129 57.6455 67.9797 59.1494C68.1373 60.0238 68.2759 60.9023 68.7549 61.6762C68.8284 61.7933 68.8768 61.9628 69.0763 61.764C70.0238 60.827 71.2108 60.3291 72.4713 59.9798C72.8096 59.8857 73.1562 59.8271 73.5007 59.7518C72.789 58.6439 72.2771 57.4207 71.9881 56.1374C71.5469 54.2549 71.4839 52.3158 71.2402 50.4061C70.9923 48.465 70.736 46.5239 70.1058 44.6581C70.0595 44.5222 70.0616 44.3674 69.8768 44.2921C69.528 44.131 69.1961 43.9574 68.7843 43.7608L68.7885 43.7796ZM38.3408 63.3265C38.7243 62.8311 39.2312 62.444 39.8112 62.2037C40.3912 61.9634 41.0243 61.8782 41.6476 61.9565C42.4585 62.0443 42.7652 61.6783 43.0026 61.0571C43.0425 60.9525 43.0846 60.8479 43.1245 60.7475C43.6413 59.3481 43.8808 57.886 44.1392 56.4239C44.3346 55.3153 44.2148 54.236 44.0594 53.0479C43.7412 53.7405 43.3593 54.4022 42.9186 55.0246C41.8577 56.4888 40.8177 57.953 39.7421 59.4172C38.9145 60.5629 38.4288 61.918 38.3408 63.3265ZM66.6288 56.5892C65.8415 57.5441 64.9367 58.3965 63.9355 59.1264C63.8927 59.1483 63.8565 59.1812 63.8307 59.2216C63.8048 59.262 63.7903 59.3086 63.7885 59.3565C63.7717 60.8876 63.8788 62.402 64.3998 63.862C64.4397 63.9708 64.4902 64.0565 64.633 64.0503C65.7906 63.9854 66.8851 63.7386 67.8536 63.0609C68.0637 62.9145 68.0637 62.789 67.9503 62.5861C67.5517 61.8566 67.2219 61.092 66.965 60.3019C66.5826 59.0929 66.5784 57.8568 66.6288 56.5892ZM45.219 53.801C45.1896 54.9911 45.1875 56.1688 45.0783 57.3464C44.9235 59.0207 44.5543 60.6683 43.9795 62.2493C43.9018 62.4585 43.9354 62.5526 44.1602 62.6405C44.7526 62.8475 45.3748 62.9577 46.0026 62.9668C46.2127 62.9793 46.2842 62.8434 46.3703 62.6969C47.0748 61.48 47.4814 60.1149 47.5573 58.7123C47.6203 57.8965 47.5048 57.2355 46.927 56.5975C46.1938 55.7797 45.7463 54.7652 45.219 53.801ZM47.7401 62.8371C48.5918 62.4489 49.3189 61.8335 49.8409 61.0591C50.1392 60.6408 50.1161 60.1764 50.1287 59.7079C50.1312 59.6669 50.1227 59.626 50.1043 59.5893C50.0859 59.5526 50.0581 59.5214 50.0237 59.4987C49.4901 59.1097 48.9627 58.7102 48.3787 58.273C48.4438 59.8585 48.385 61.3813 47.7401 62.8371ZM75.0218 79.2757C75.9214 80.7729 76.7432 82.3152 77.484 83.8963C77.2718 82.7166 75.5806 79.556 75.0218 79.2757ZM69.1058 41.0813C68.8158 40.0062 66.7129 38.4897 65.5595 38.5608C66.9986 39.0482 68.1184 39.9706 69.1058 41.0813ZM38.4774 58.8901C37.7715 59.9945 37.3135 61.1554 37.616 62.4899C37.6833 61.239 38.1076 60.0719 38.4774 58.8901ZM75.2424 51.2742C75.0659 52.5292 75.0176 53.7842 75.4356 55.0141C75.3712 53.7675 75.3068 52.5208 75.2424 51.2742ZM57.3851 35.576C56.0209 35.115 54.533 35.1776 53.2128 35.7517C54.5791 35.4105 56.001 35.3507 57.3914 35.576H57.3851ZM76.1604 57.5221C76.1961 58.4362 76.8348 58.9674 77.1772 59.6472C76.9643 58.8856 76.6203 58.1666 76.1604 57.5221ZM44.6833 47.9275C45.1245 47.2414 45.5237 46.5281 45.9753 45.8358C45.3094 46.3859 44.9459 47.1243 44.6833 47.9275ZM32.5593 92.3907C32.5866 91.554 32.8345 90.7173 32.6265 89.8618C32.5194 90.6964 32.4038 91.5435 32.5593 92.3907ZM63.6204 62.1301C63.5521 61.2435 63.529 60.3541 63.5511 59.4653C63.4038 60.3499 63.4273 61.2543 63.6204 62.1301ZM81.2382 93.9072L81.3642 93.8967C81.2466 93.2546 81.2319 92.5936 80.9441 91.9828L81.2382 93.9072ZM67.278 45.978C67.2197 45.3661 66.9961 44.7814 66.6309 44.2858L67.278 45.978ZM67.6751 48.8311C67.7541 48.1104 67.6694 47.3812 67.4272 46.6975C67.5056 47.4087 67.5854 48.1199 67.6667 48.8311H67.6751ZM57.362 68.9909C57.7926 69.0097 58.2023 68.9699 58.4775 68.7691C58.1603 68.7901 57.7317 68.7545 57.362 68.9909ZM67.9314 61.4294L67.8662 61.4608C68.0049 61.7536 68.1394 62.0485 68.2864 62.3414C68.3116 62.3957 68.3179 62.4982 68.4188 62.4543C68.4395 62.4478 68.4581 62.4362 68.4731 62.4205C68.488 62.4048 68.4987 62.3857 68.5042 62.3648C68.5096 62.3439 68.5097 62.3219 68.5043 62.301C68.4989 62.2801 68.4883 62.2609 68.4734 62.2451C68.2906 61.9732 68.1183 61.7013 67.9314 61.4294ZM43.2589 61.4482C43.1035 61.672 43.011 61.808 42.9144 61.9418C42.8619 62.0171 42.7547 62.0924 42.9144 62.1657C42.9344 62.1804 42.9581 62.1894 42.9829 62.1919C43.0077 62.1943 43.0327 62.1901 43.0552 62.1796C43.0778 62.1691 43.0971 62.1527 43.1111 62.1323C43.1252 62.1118 43.1334 62.0879 43.135 62.0632C43.1686 61.8937 43.2022 61.7222 43.2589 61.4482ZM54.5174 68.652C54.9662 68.8603 55.4725 68.9119 55.9544 68.7984C55.5006 68.8507 55.0678 68.6415 54.5174 68.652ZM44.9249 53.6043C44.7337 54.2465 44.7337 54.441 44.9354 55.0037C44.975 54.5379 44.9715 54.0695 44.9249 53.6043ZM47.6392 61.877C47.5188 62.2172 47.3983 62.5596 47.2779 62.904C47.4039 62.7655 47.5009 62.6033 47.5629 62.4269C47.625 62.2505 47.6509 62.0635 47.6392 61.877ZM71.1268 61.1679C71.0213 61.1606 70.9159 61.1831 70.8227 61.2326C70.7294 61.2822 70.6521 61.3569 70.5995 61.4482L71.1268 61.1679ZM44.1497 49.3624C44.2834 49.2131 44.3581 49.0206 44.3598 48.8206C44.2906 48.8926 44.2364 48.9776 44.2003 49.0706C44.1643 49.1636 44.1471 49.2627 44.1497 49.3624ZM44.3871 48.7537C44.4491 48.6984 44.4946 48.6272 44.5187 48.5479C44.5428 48.4686 44.5445 48.3842 44.5236 48.304C44.4396 48.4441 44.322 48.555 44.3787 48.7537H44.3871ZM67.4503 60.348C67.5091 60.1534 67.4188 60.0238 67.3305 59.825C67.3038 59.9151 67.3008 60.0105 67.3218 60.1021C67.3427 60.1937 67.387 60.2783 67.4503 60.348ZM72.8222 56.7921C72.8495 56.9343 72.797 57.1142 72.9944 57.2104C73.0512 57.0201 72.9377 56.9029 72.8222 56.79V56.7921ZM73.1541 57.6288C73.1766 57.5589 73.1755 57.4835 73.1508 57.4144C73.1261 57.3452 73.0793 57.286 73.0175 57.246C72.9503 57.4133 73.0154 57.5158 73.1604 57.6329L73.1541 57.6288ZM73.1856 57.6601C73.1121 57.8296 73.2024 57.9237 73.318 58.0387C73.3426 57.9707 73.3429 57.8963 73.3188 57.828C73.2947 57.7598 73.2476 57.702 73.1856 57.6643V57.6601ZM56.5889 39.5669L56.551 39.5126C56.5184 39.5313 56.4881 39.5537 56.4607 39.5795C56.4481 39.59 56.4607 39.6172 56.4607 39.636L56.5889 39.5669ZM47.7443 61.6427C47.7324 61.666 47.7233 61.6906 47.7169 61.7159C47.7169 61.7159 47.7316 61.7369 47.7401 61.7473C47.7522 61.7249 47.7614 61.701 47.7674 61.6762C47.7674 61.6762 47.759 61.6595 47.7506 61.6469L47.7443 61.6427ZM67.8746 61.2913L67.8452 61.2662C67.8339 61.2829 67.8254 61.3012 67.82 61.3206C67.82 61.3206 67.8347 61.3394 67.8431 61.3478L67.8746 61.2913Z" fill="#181818"/>
    <path d="M81.9546 96.5364C82.2823 94.1037 82.0806 91.7108 81.6037 89.3012C81.1673 86.9984 80.4863 84.7484 79.5722 82.5889C78.5533 80.2316 77.0218 78.2089 75.4377 76.2114C73.8243 74.1761 71.9482 72.3982 70.0427 70.6454C68.9167 69.5995 67.6919 68.6833 66.6456 67.5601C66.0202 66.8982 65.4873 66.1552 65.0616 65.3513C67.3137 65.3513 68.9755 64.1193 70.5932 62.8684C71.6919 62.0192 72.8159 61.2494 74.1436 60.8374C75.2339 60.5006 76.2655 60.6449 77.131 61.4649C77.3411 61.6552 77.4819 61.6448 77.526 61.3582C77.627 60.7015 77.5804 60.0307 77.3894 59.3941C77.2904 59.0031 77.1399 58.6268 76.9419 58.2751C75.8915 56.6017 75.7739 54.7192 75.6688 52.8366C75.5806 51.2177 75.4587 49.5987 75.3747 47.9776C75.318 46.9318 75.3243 45.8692 75.2571 44.8171C75.0763 41.4222 73.765 38.1839 71.5301 35.6136C70.1766 33.9873 68.3363 32.8345 66.278 32.3234C64.633 31.9239 63.0658 32.2188 61.5343 32.8003C61.4287 32.8585 61.3066 32.8799 61.1874 32.8609C61.0682 32.842 60.9588 32.7838 60.8767 32.6957C60.0768 31.9571 59.1369 31.3849 58.112 31.0128C57.0871 30.6407 55.9978 30.4761 54.9082 30.5287C53.843 30.5684 52.8178 30.8404 51.7821 31.0558C49.6317 31.5125 47.643 32.5328 46.0215 34.0114C42.324 37.2765 40.1728 41.349 39.4837 46.2185C39.2211 48.0676 39.2106 49.925 39.0635 51.7761C38.9017 53.9641 38.6433 56.1353 37.5593 58.1224C36.9699 59.168 36.63 60.3345 36.5656 61.5318C36.5391 62.087 36.5986 62.643 36.7421 63.1801C36.8996 63.7658 37.2967 64.1569 37.7925 64.4811C37.8251 64.5131 37.865 64.5368 37.9088 64.5501C37.9526 64.5634 37.999 64.566 38.044 64.5575C38.089 64.5491 38.1313 64.53 38.1673 64.5017C38.2032 64.4735 38.2318 64.437 38.2505 64.3954C38.2652 64.3724 38.2841 64.3514 38.3009 64.3284C39.4543 62.9165 40.6118 62.768 42.4312 63.6361C42.8934 63.8578 43.3325 64.1318 43.7736 64.3975C44.7484 64.9873 45.7989 65.0501 46.8829 64.8346C47.3786 64.7579 47.866 64.6353 48.3388 64.4686L48.3892 64.5355C47.5489 65.6232 46.4984 66.5331 45.4942 67.4639C43.6035 69.2042 41.5278 70.7332 39.5929 72.4296C35.7169 75.8286 33.3891 80.104 32.1391 85.0216C31.4437 87.7575 30.9395 90.5228 30.9563 93.3612C30.9563 94.6267 30.9794 95.888 31.4752 97.0844C31.4899 97.1179 31.4752 97.166 31.4647 97.2078C31.0445 96.8397 30.9416 96.3126 30.803 95.8106C30.3828 94.3359 30.3261 92.8299 30.3597 91.3092C30.3906 88.7238 30.7334 86.1514 31.3807 83.6473C32.1097 80.9114 33.3933 78.4307 34.9879 76.09C36.6874 73.5988 38.9375 71.7079 41.3555 69.9614C42.9907 68.7922 44.5102 67.4706 45.8934 66.0143C45.969 65.9369 46.0321 65.847 46.1308 65.7257C45.5531 65.6065 44.9963 65.6085 44.469 65.4391C43.5773 65.1171 42.7195 64.7087 41.9081 64.2197C40.8051 63.6089 39.8618 63.6089 38.866 64.4937C37.9185 65.3304 37.3072 65.1735 36.5551 64.1004C36.1774 63.5652 35.9124 62.9595 35.7759 62.3196C35.6394 61.6798 35.6344 61.0191 35.761 60.3772C35.9711 59.21 36.4564 58.1475 36.9501 57.0953C37.9753 54.92 38.2694 52.6107 38.3429 50.2513C38.4044 48.5876 38.5891 46.9306 38.8954 45.294C39.1983 43.5281 39.7382 41.8108 40.5005 40.1881C41.8198 37.4271 43.4648 34.8899 45.9942 33.0617C48.3806 31.2941 51.2003 30.1975 54.1582 29.8865C56.6099 29.6397 58.9607 30.0288 61.0322 31.426C61.5994 31.8088 61.9944 31.8444 62.6057 31.5996C64.3389 30.924 66.0826 31.1939 67.8137 31.7042C69.8663 32.3087 71.3285 33.6244 72.5659 35.3166C74.276 37.6551 75.4356 40.2153 75.8684 43.0559C76.1814 45.1266 76.3789 47.2183 76.4987 49.3121C76.673 52.3012 77.0449 55.2546 78.0029 58.1119C78.2657 58.8014 78.4181 59.5277 78.4546 60.2643C78.4655 60.5272 78.44 60.7905 78.3789 61.0466C78.1121 62.038 77.8663 62.1656 76.9251 61.7724C76.2319 61.4837 75.5344 61.5632 74.8243 61.7075C73.1142 62.0799 71.6415 62.9249 70.2297 63.9226C69.1793 64.6589 68.1667 65.4538 66.9062 65.8198C66.5805 65.9139 66.7969 66.0708 66.8746 66.1775C67.5258 67.0634 68.2458 67.897 69.028 68.6708C70.589 70.2375 72.1793 71.7811 73.7276 73.352C75.2296 74.8364 76.6081 76.4397 77.8495 78.1462C79.2017 80.0054 80.2333 82.076 80.9021 84.2728C81.7524 87.1223 82.3155 90.0491 82.5827 93.0098C82.6605 93.8674 82.7193 94.7312 82.4651 95.5763C82.3601 95.9256 82.2613 96.2854 81.9546 96.5364Z" fill="#F8F2EA"/>
    <path d="M27.8745 54.1691C27.8745 53.3575 28.4397 52.7635 29.2086 52.7593C29.9124 52.7593 30.6161 53.5102 30.6056 54.2569C30.613 54.6222 30.4744 54.9754 30.2203 55.2389C29.9662 55.5025 29.6174 55.6549 29.2506 55.6626C28.5069 55.6709 27.8703 54.9786 27.8745 54.1691ZM29.6056 53.6378C29.4667 53.638 29.3322 53.6866 29.2255 53.7753C29.1188 53.8639 29.0466 53.987 29.0216 54.1231C29.0216 54.3908 29.3325 54.7799 29.5636 54.7861C29.7611 54.7861 30.1161 54.3783 30.1161 54.1314C30.1161 53.7968 29.8935 53.6733 29.6056 53.6378Z" fill="#181818"/>
    <path d="M82.6879 46.8439C82.6879 47.712 82.3056 48.1826 81.6123 48.1784C81.2759 48.1654 80.9579 48.0221 80.726 47.7791C80.4941 47.5361 80.3666 47.2126 80.3707 46.8774C80.3707 46.2666 80.9358 45.7709 81.6312 45.773C81.7725 45.7697 81.9129 45.7953 82.0439 45.8482C82.1748 45.9012 82.2935 45.9802 82.3925 46.0806C82.4916 46.181 82.5689 46.3005 82.6197 46.4318C82.6705 46.5631 82.6937 46.7034 82.6879 46.8439ZM82.0409 46.9192C82.0409 46.5553 81.961 46.4277 81.6774 46.4235C81.6043 46.416 81.5304 46.4242 81.4607 46.4475C81.391 46.4708 81.3272 46.5087 81.2734 46.5586C81.2197 46.6086 81.1773 46.6694 81.1491 46.737C81.121 46.8046 81.1077 46.8775 81.1102 46.9506C81.1102 47.2811 81.3896 47.6702 81.6543 47.6304C82.0241 47.576 82.0682 47.2832 82.0409 46.9192Z" fill="#181818"/>
    <path d="M23.0049 43.7587C23.0049 44.3862 22.6016 44.8443 22.0827 44.8338C21.8102 44.8153 21.5537 44.6991 21.3606 44.5068C21.1675 44.3146 21.0509 44.0592 21.0322 43.788C21.0381 43.5124 21.1507 43.2498 21.3464 43.0549C21.5421 42.8601 21.8059 42.748 22.0827 42.7421C22.2117 42.7442 22.3389 42.7727 22.4564 42.8259C22.5738 42.879 22.6791 42.9556 22.7656 43.0509C22.8521 43.1463 22.918 43.2583 22.9591 43.3801C23.0003 43.5018 23.0159 43.6307 23.0049 43.7587ZM22.6646 43.7043C22.6289 43.4428 22.4209 43.4031 22.2444 43.3864C21.9755 43.3592 21.8894 43.5788 21.86 43.7796C21.8519 43.8246 21.8534 43.8708 21.8646 43.9152C21.8757 43.9595 21.8961 44.0011 21.9245 44.037C21.9528 44.073 21.9885 44.1025 22.0292 44.1238C22.0698 44.145 22.1146 44.1575 22.1604 44.1603C22.4629 44.1854 22.5301 43.8884 22.6646 43.7043Z" fill="#181818"/>
    <path d="M61.7615 22.1306C61.7615 22.6974 61.314 23.1952 60.8056 23.1994C60.6737 23.1964 60.5437 23.1676 60.423 23.1146C60.3023 23.0615 60.1933 22.9854 60.1022 22.8904C60.0111 22.7954 59.9397 22.6835 59.892 22.561C59.8444 22.4385 59.8214 22.3079 59.8245 22.1766C59.8245 21.6871 60.3224 21.2479 60.8749 21.2499C60.992 21.2468 61.1086 21.2674 61.2174 21.3105C61.3263 21.3536 61.4252 21.4183 61.5081 21.5007C61.5911 21.5831 61.6563 21.6814 61.6998 21.7897C61.7434 21.898 61.7644 22.0139 61.7615 22.1306ZM61.2888 22.1306C61.3224 21.9214 61.2216 21.821 61.0367 21.8503C60.912 21.8635 60.7952 21.9178 60.705 22.0046C60.6148 22.0913 60.5563 22.2056 60.5388 22.3293C60.5342 22.3802 60.5406 22.4314 60.5577 22.4796C60.5748 22.5278 60.6021 22.5718 60.6378 22.6085C60.6735 22.6452 60.7167 22.6738 60.7645 22.6924C60.8123 22.711 60.8636 22.7191 60.9148 22.7162C61.2258 22.6786 61.2489 22.3711 61.2888 22.1201V22.1306Z" fill="#181818"/>
    <path d="M34.7147 47.8166C34.7147 48.3584 34.4311 48.6763 33.9668 48.6784C33.5466 48.6784 33.139 48.2182 33.1517 47.7455C33.1643 47.3376 33.5466 47.026 34.0256 47.0385C34.123 47.0421 34.2187 47.0654 34.3067 47.107C34.3948 47.1485 34.4735 47.2075 34.5379 47.2803C34.6024 47.3531 34.6513 47.4382 34.6817 47.5304C34.7121 47.6226 34.7233 47.72 34.7147 47.8166ZM34.2945 47.8668C34.2945 47.7706 34.2357 47.7581 34.1664 47.7539C34.0067 47.7539 33.9563 47.848 33.9563 47.9861C33.9563 48.0739 34.0067 48.1576 34.1012 48.145C34.2483 48.1325 34.2336 47.9714 34.2945 47.8731V47.8668Z" fill="#181818"/>
    <path d="M65.404 27.5836C65.404 28.0019 65.1477 28.3324 64.8011 28.3429C64.634 28.3288 64.4779 28.2545 64.3618 28.134C64.2458 28.0135 64.1779 27.855 64.1708 27.6882C64.1677 27.6024 64.1822 27.5169 64.2135 27.437C64.2448 27.357 64.2922 27.2843 64.3529 27.2234C64.4135 27.1624 64.4861 27.1145 64.566 27.0825C64.646 27.0506 64.7318 27.0353 64.8179 27.0376C65.2087 27.0439 65.4019 27.2238 65.404 27.5836ZM64.8053 27.5062C64.6835 27.5062 64.5721 27.5397 64.5826 27.6819C64.5931 27.8241 64.6225 27.9371 64.7927 27.9203C64.9314 27.9078 64.9734 27.8053 65.0028 27.6924C65.0301 27.5397 64.9356 27.502 64.8053 27.5062Z" fill="#181818"/>
    <path d="M57.2719 59.3983C54.3307 59.3502 51.8097 58.2918 49.8034 56.1395C48.0492 54.2695 47.1395 52.0439 46.9273 49.4962C46.797 47.9609 47.1668 46.6264 48.2718 45.5534C49.1248 44.7167 50.1899 44.1854 51.2572 43.6709C52.9378 42.8593 54.6963 42.2234 56.2614 41.1922C56.7362 40.8784 57.2089 40.5647 57.6543 40.2028C57.9253 39.9937 58.0954 39.9937 58.3581 40.23C59.4716 41.2395 60.7167 42.095 62.0598 42.7735C63.1732 43.3174 64.3707 43.6416 65.5157 44.1206C65.6182 44.1575 65.7123 44.2144 65.7924 44.288C65.8725 44.3617 65.937 44.4505 65.9821 44.5494C67.627 47.9526 67.3098 51.2428 65.3875 54.4264C63.9988 56.7272 61.9568 58.2521 59.4211 59.1348C58.7245 59.3414 57.998 59.4305 57.2719 59.3983Z" fill="#F8F2EA"/>
    <path d="M46.4795 37.446C47.7229 36.3562 49.1438 35.4854 50.6812 34.8711C53.0089 33.957 55.385 33.501 57.8703 34.1704C58.4733 34.3314 59.0531 34.5887 59.6728 34.6891C59.8934 34.7268 59.8829 34.8523 59.8178 35.0154C59.6831 35.3349 59.517 35.6404 59.322 35.9274C59.1749 36.1366 59.0594 36.1366 58.8493 36.0069C56.6455 34.6389 54.3178 34.71 51.9816 35.5488C50.8892 35.94 49.9627 36.672 49.1181 37.4669C47.5845 38.9123 46.1223 40.4371 45.2442 42.3803C44.0698 44.9719 43.1601 47.6597 43.0488 50.5379C42.9625 52.8125 42.1368 54.9977 40.6958 56.7649C40.0151 57.6274 39.4053 58.543 38.8723 59.5029C38.8408 59.5615 38.8092 59.6305 38.6958 59.6012C39.1454 58.3776 39.4416 57.1079 39.7714 55.8487C40.0041 54.8489 40.0988 53.8222 40.053 52.7969C40.077 51.9925 40.1472 51.1901 40.263 50.3936C40.4017 48.9294 40.324 47.4527 40.5908 46.001C41.221 42.5769 42.3849 39.4122 44.7631 36.7515C46.3975 34.9234 48.4396 33.8232 50.7043 33.0471C53.1707 32.2105 55.6833 31.8611 58.2674 32.4322C58.4985 32.4824 58.7275 32.5493 58.9522 32.6204C59.7926 32.8903 60.4397 33.3358 60.0027 34.503C59.9775 34.503 59.9418 34.5301 59.927 34.5197C58.4123 33.3881 56.6518 33.2124 54.8703 33.3839C51.6749 33.6914 48.9165 35.0259 46.5614 37.1908C46.5028 37.2506 46.4474 37.3134 46.3954 37.379L46.2337 37.5568L46.1727 37.6217L46.0887 37.7116C46.0572 37.7555 45.9332 37.7618 46.0047 37.8413C46.0761 37.9208 46.1202 37.8413 46.1454 37.7806L46.2295 37.6949L46.3135 37.6133L46.4795 37.446Z" fill="#F8F2EA"/>
    <path d="M71.6311 38.4688C71.0639 37.423 70.2109 36.626 69.2613 35.9274C67.4966 34.6306 65.6143 33.5742 63.4084 33.2228C62.7896 33.12 62.1577 33.125 61.5407 33.2375C62.2991 32.9635 63.0638 32.7668 63.8789 32.8714C67.2025 33.2898 69.734 35.0259 71.7277 37.6196C72.1812 38.2368 72.5487 38.9123 72.8202 39.6276C73.6269 41.6273 74.2908 43.6667 74.2551 45.8671C74.2404 46.8942 74.295 47.9212 74.3307 48.9461C74.3517 49.536 74.2131 50.1049 74.1542 50.6843C73.8937 53.2738 74.3643 55.7379 75.3811 58.1161C75.6332 58.706 76.0681 59.1871 76.3811 59.8188C75.9109 59.648 75.41 59.5768 74.9105 59.6096C74.6731 59.6284 74.5954 59.4757 74.5009 59.3251C73.6605 57.9488 73.1794 56.4281 72.7635 54.8865C72.3475 53.345 72.2635 51.7929 72.0009 50.2472C71.5954 47.8689 71.1794 45.4886 70.5597 43.1542C69.9966 41.0395 68.8475 39.3431 66.7781 38.381C66.2938 38.1275 65.7441 38.0248 65.2004 38.086C65.05 38.103 64.899 38.0602 64.7802 37.9668C63.4823 37.039 61.9415 36.507 60.3453 36.4357C60.0365 36.4252 60.0638 36.3395 60.1961 36.1303C60.3881 35.8251 60.5627 35.5095 60.7193 35.1848C60.8159 34.9757 60.963 34.9987 61.1394 34.9966C64.0596 34.961 66.5512 36.0048 68.6731 37.971C69.2292 38.5103 69.8262 39.0061 70.4588 39.454C69.8475 38.1551 68.171 36.6553 66.3664 35.7391C64.671 34.8774 62.8621 34.6138 60.963 34.71C61.0344 34.4026 61.1121 34.1244 61.1625 33.8399C61.1941 33.6705 61.297 33.6307 61.442 33.5868C62.1638 33.4133 62.9188 33.432 63.631 33.6412C65.7214 34.1704 67.5428 35.2267 69.2214 36.5382C70.0303 37.1657 70.7971 37.8559 71.5828 38.5169C71.5933 38.5546 71.6122 38.5901 71.6521 38.5629C71.692 38.5357 71.6332 38.5002 71.6311 38.4688Z" fill="#F8F2EA"/>
    <path d="M49.2446 38.4688C50.1877 37.5777 51.303 36.8868 52.5226 36.438C53.7422 35.9893 55.0407 35.792 56.3392 35.8584C57.0942 35.8902 57.8326 36.0889 58.501 36.4399C58.959 36.6741 59.4127 36.8938 59.9443 36.9021C61.0598 36.9168 62.0199 37.3937 62.9296 37.9752C65.1565 39.3975 67.1313 41.1336 69.022 42.9492C69.125 43.0454 69.2868 43.1312 69.188 43.3676C67.8981 42.4263 66.3246 42.1565 64.9107 41.5122C63.536 40.8989 62.2495 40.1062 61.085 39.1549C60.8353 38.9087 60.5319 38.7233 60.1985 38.6131C60.98 39.7531 62.1207 40.4496 63.2741 41.1232C64.4275 41.7967 65.6838 42.2401 66.9338 42.7191C66.396 42.5936 65.8645 42.4535 65.3224 42.3489C63.0535 41.918 61.167 40.7383 59.3875 39.3494C59.0493 39.0838 58.7089 38.816 58.4001 38.5127C58.251 38.3684 58.19 38.4165 58.0787 38.5274C57.6711 38.9227 57.2552 39.3097 56.6774 39.4749C57.0976 39.111 57.6207 38.8474 57.9379 38.3642C57.961 38.3433 58.0052 38.3077 58.0031 38.3015C57.9674 38.245 57.9232 38.2764 57.8833 38.3015C57.1249 38.5734 56.5325 39.1193 55.8539 39.5251C54.0548 40.5757 52.1975 41.524 50.2908 42.3656C48.6921 43.0935 47.1668 43.9449 45.9147 45.2062C45.4136 45.7255 44.9931 46.3163 44.6668 46.959C44.6185 46.6369 44.7656 46.4758 44.8181 46.3001C45.2383 44.9029 45.6584 43.4952 46.4694 42.2757C47.9568 40.0439 49.7866 38.1739 52.398 37.2389C53.0282 37.0088 53.711 36.877 54.3392 36.6114C54.4001 36.5842 54.4799 36.5905 54.4946 36.465C53.4161 36.5039 52.3568 36.7608 51.3812 37.2201C50.6228 37.5505 49.9799 38.0567 49.3118 38.5336L49.2446 38.4688ZM47.4862 43.0705C49.0345 42.2234 50.4274 41.188 51.9253 40.3011C53.669 39.2553 55.4316 38.2575 57.4316 37.766C57.7758 37.6705 58.0991 37.5123 58.3854 37.2995C57.9174 37.221 57.4395 37.221 56.9715 37.2995C55.7076 37.5857 54.4958 38.0647 53.3791 38.7198C51.3097 39.8912 49.5093 41.439 47.608 42.8342C47.5638 42.8534 47.5275 42.8871 47.5053 42.9298C47.4831 42.9724 47.4764 43.0214 47.4862 43.0684V43.0705Z" fill="#F8F2EA"/>
    <path d="M51.6751 60.4358C55.0869 61.9 58.4609 61.8205 61.839 60.3563C61.889 61.5277 62.0615 62.6907 62.3538 63.8265C62.3727 63.8934 62.3874 63.9603 62.4084 64.0356C62.6563 64.8409 62.6605 64.8472 61.9882 65.3429C60.5491 66.4034 58.8958 66.8448 57.1436 66.9347C55.5812 67.0492 54.0133 66.8008 52.5638 66.2089C51.9985 65.9696 51.4854 65.6228 51.0533 65.1881C50.9608 65.094 50.8432 65.0166 50.9377 64.8367C51.6031 63.4708 51.8591 61.9429 51.6751 60.4358Z" fill="#F8F2EA"/>
    <path d="M68.7846 43.7608C69.2047 43.9574 69.5283 44.131 69.8728 44.2733C70.0577 44.3486 70.0556 44.5034 70.1018 44.6393C70.732 46.5051 70.9884 48.4462 71.2363 50.3873C71.48 52.297 71.543 54.2318 71.9842 56.1186C72.2725 57.404 72.7844 58.6294 73.4968 59.7393C73.1522 59.8146 72.8056 59.8731 72.4674 59.9673C71.2068 60.3166 70.0199 60.8144 69.0724 61.7515C68.8623 61.9607 68.8245 61.7808 68.7509 61.6636C68.2719 60.8897 68.1333 60.0112 67.9757 59.1369C67.7089 57.6329 67.94 56.1625 68.148 54.6711C68.3161 53.4684 68.8896 52.4162 69.1522 51.2574C69.711 48.806 69.69 46.388 68.8518 43.9993C68.835 43.9449 68.8224 43.8926 68.7846 43.7608Z" fill="#F8F2EA"/>
    <path d="M38.3408 63.3266C38.4264 61.9163 38.9107 60.5589 39.7379 59.4109C40.8093 57.9467 41.8535 56.4825 42.9144 55.0183C43.3551 54.3959 43.737 53.7342 44.0552 53.0417C44.2106 54.2298 44.3304 55.3091 44.135 56.4177C43.8766 57.8819 43.6371 59.3461 43.1203 60.7412C43.0804 60.8458 43.0383 60.9504 42.9984 61.0508C42.761 61.6783 42.4543 62.0381 41.6434 61.9502C41.0202 61.8734 40.3876 61.96 39.8084 62.2014C39.2291 62.4428 38.7232 62.8306 38.3408 63.3266Z" fill="#F8F2EA"/>
    <path d="M66.629 56.5892C66.5785 57.8442 66.5827 59.0992 66.9651 60.3019C67.222 61.092 67.5518 61.8566 67.9504 62.5861C68.0597 62.7952 68.0617 62.9145 67.8538 63.0609C66.8853 63.7386 65.7907 63.9854 64.6332 64.0503C64.4903 64.0503 64.4399 63.9708 64.4 63.862C63.8789 62.3978 63.7697 60.8876 63.7886 59.3565C63.7904 59.3086 63.8049 59.262 63.8308 59.2216C63.8566 59.1811 63.8928 59.1483 63.9357 59.1264C64.9368 58.3965 65.8417 57.5441 66.629 56.5892Z" fill="#F8F2EA"/>
    <path d="M45.219 53.801C45.7421 54.7652 46.1896 55.7797 46.9228 56.5892C47.5006 57.2272 47.6161 57.8881 47.5531 58.7039C47.4772 60.1065 47.0706 61.4716 46.3661 62.6886C46.28 62.835 46.2148 62.971 45.9984 62.9584C45.3706 62.9494 44.7484 62.8392 44.156 62.6321C43.9312 62.5443 43.8976 62.4543 43.9753 62.241C44.5508 60.6629 44.9214 59.018 45.0783 57.3464C45.1917 56.1688 45.1938 54.9911 45.219 53.801Z" fill="#F8F2EA"/>
    <path d="M47.7402 62.8371C48.3852 61.3729 48.444 59.8585 48.3705 58.273C48.9545 58.7102 49.4818 59.1097 50.0155 59.4987C50.0498 59.5214 50.0776 59.5526 50.0961 59.5893C50.1145 59.6261 50.1229 59.6669 50.1205 59.7079C50.1079 60.1765 50.1205 60.6471 49.8327 61.0591C49.313 61.8323 48.5889 62.4476 47.7402 62.8371Z" fill="#F8F2EA"/>
    <path d="M48.4588 56.0056C47.1502 54.4892 46.263 52.6583 45.8853 50.6948H46.026C46.466 52.5659 47.3066 54.3204 48.4903 55.8383L48.4588 56.0056Z" fill="#F8F2EA"/>
    <path d="M75.022 79.2758C75.5808 79.556 77.272 82.7166 77.4842 83.8963C76.7434 82.3152 75.9216 80.773 75.022 79.2758Z" fill="#F8F2EA"/>
    <path d="M69.1058 41.0813C68.1163 39.9706 67.005 39.0482 65.5596 38.5608C66.7129 38.4897 68.8159 40.0062 69.1058 41.0813Z" fill="#F8F2EA"/>
    <path d="M38.4776 58.89C38.1078 60.0718 37.6835 61.239 37.6162 62.4898C37.3137 61.1553 37.7717 59.9944 38.4776 58.89Z" fill="#F8F2EA"/>
    <path d="M75.2417 51.2742C75.3043 52.5208 75.3683 53.7675 75.4337 55.0141C75.0183 53.7842 75.0663 52.5292 75.2417 51.2742Z" fill="#F8F2EA"/>
    <path d="M57.3915 35.576C56.0032 35.3516 54.5836 35.4114 53.2192 35.7517C54.5394 35.1776 56.0274 35.1149 57.3915 35.576Z" fill="#F8F2EA"/>
    <path d="M53.3138 31.9992C51.9734 32.2084 50.7045 32.6727 49.4209 33.0911C50.6436 32.4175 51.9713 32.0933 53.3306 31.8695L53.3138 31.9992Z" fill="#F8F2EA"/>
    <path d="M53.314 31.9992L53.3308 31.8695C54.9526 31.5495 57.3875 31.5955 58.1375 32.0201C57.6186 31.9657 57.1039 31.9009 56.585 31.8591C56.0322 31.8029 55.4757 31.7917 54.9211 31.8256C54.3833 31.8695 53.8518 31.9657 53.314 31.9992Z" fill="#6E6E6E"/>
    <path d="M69.1813 42.4765L67.4292 40.7236L67.4817 40.6672C68.3221 40.9872 68.8032 41.6837 69.2464 42.4117L69.1813 42.4765Z" fill="#F8F2EA"/>
    <path d="M76.1606 57.5221C76.6205 58.1666 76.9645 58.8856 77.1775 59.6473C76.835 58.9675 76.1964 58.4362 76.1606 57.5221Z" fill="#F8F2EA"/>
    <path d="M44.6836 47.9275C44.9462 47.1242 45.3139 46.3859 45.9756 45.8358C45.526 46.5281 45.1248 47.2414 44.6836 47.9275Z" fill="#F8F2EA"/>
    <path d="M32.5587 92.3907C32.4126 91.5435 32.5191 90.7027 32.6255 89.8618C32.8322 90.711 32.5859 91.5456 32.5587 92.3907Z" fill="#6E6E6E"/>
    <path d="M63.6197 62.1301C63.4278 61.2543 63.4044 60.3499 63.5508 59.4653C63.5288 60.3541 63.5518 61.2436 63.6197 62.1301Z" fill="#6E6E6E"/>
    <path d="M81.2381 93.9072L80.9355 91.9828C81.2318 92.5936 81.2465 93.2545 81.3557 93.8967L81.2381 93.9072Z" fill="#6E6E6E"/>
    <path d="M67.2779 45.978L66.6309 44.2858C66.996 44.7814 67.2196 45.3661 67.2779 45.978Z" fill="#F8F2EA"/>
    <path d="M67.6653 48.831C67.5832 48.1199 67.5011 47.4087 67.4189 46.6975C67.6596 47.3812 67.7438 48.1104 67.6653 48.831Z" fill="#6E6E6E"/>
    <path d="M57.3623 68.9908C57.7321 68.7545 58.1606 68.7817 58.4779 68.7691C58.2026 68.9699 57.793 69.0096 57.3623 68.9908Z" fill="#F8F2EA"/>
    <path d="M67.9313 61.4294C68.112 61.7013 68.2905 61.9732 68.467 62.2493C68.4819 62.265 68.4925 62.2843 68.4979 62.3052C68.5033 62.3261 68.5032 62.348 68.4978 62.3689C68.4923 62.3899 68.4816 62.409 68.4667 62.4247C68.4518 62.4404 68.4331 62.452 68.4124 62.4585C68.3115 62.5024 68.3052 62.3999 68.28 62.3455C68.1393 62.0527 68.0048 61.7578 67.8599 61.4649L67.9313 61.4294Z" fill="#F8F2EA"/>
    <path d="M48.5114 65.5667C48.2483 65.8625 47.953 66.1284 47.6311 66.3595C47.6147 66.339 47.5972 66.3194 47.5786 66.3009C47.8455 66.0104 48.1419 65.7482 48.4631 65.5186L48.5114 65.5667Z" fill="#F8F2EA"/>
    <path d="M43.259 61.4482C43.2023 61.7222 43.1686 61.8937 43.1308 62.0631C43.1293 62.0879 43.121 62.1118 43.107 62.1322C43.093 62.1527 43.0736 62.1691 43.0511 62.1796C43.0285 62.19 43.0035 62.1943 42.9787 62.1918C42.954 62.1894 42.9303 62.1803 42.9102 62.1656C42.7548 62.0924 42.8619 62.0171 42.9102 61.9418C43.0111 61.808 43.1035 61.672 43.259 61.4482Z" fill="#F8F2EA"/>
    <path d="M54.5176 68.652C55.068 68.6415 55.5008 68.8507 55.9546 68.7984C55.4727 68.9119 54.9664 68.8603 54.5176 68.652Z" fill="#6E6E6E"/>
    <path d="M44.9239 53.6043C44.9702 54.0695 44.9737 54.5379 44.9343 55.0037C44.7339 54.4473 44.7339 54.2465 44.9239 53.6043Z" fill="#6E6E6E"/>
    <path d="M47.6369 61.877C47.6485 62.0636 47.6227 62.2505 47.5611 62.4269C47.4994 62.6033 47.4031 62.7656 47.2778 62.904C47.3989 62.561 47.5186 62.2187 47.6369 61.877Z" fill="#F8F2EA"/>
    <path d="M32.2774 92.4702C32.2774 92.832 32.4423 93.1834 32.3463 93.6248C32.2303 93.2509 32.1947 92.8567 32.2419 92.4681L32.2607 92.4806L32.2774 92.4702Z" fill="#F8F2EA"/>
    <path d="M69.6436 62.013C69.874 61.7524 70.1802 61.5696 70.5196 61.4901L69.6982 62.0674L69.6436 62.013Z" fill="#F8F2EA"/>
    <path d="M48.4438 39.2406C48.6354 38.9895 48.8727 38.7767 49.1434 38.6131C48.963 38.8729 48.7349 39.0964 48.4712 39.272L48.4438 39.2406Z" fill="#F8F2EA"/>
    <path d="M46.0243 50.6927H45.8844C45.7893 50.3579 45.7401 50.0117 45.7383 49.6636C45.9763 50.0526 45.9616 50.3831 46.0243 50.6927Z" fill="#6E6E6E"/>
    <path d="M50.6038 67.3238L51.2866 67.7066C51.1472 67.7029 51.0102 67.6699 50.8845 67.6097C50.7589 67.5495 50.6475 67.4634 50.5576 67.3573L50.6038 67.3238Z" fill="#F8F2EA"/>
    <path d="M48.4585 56.0056L48.49 55.8362C48.6758 56.0014 48.8334 56.1957 48.9564 56.4114L48.8577 56.4595C48.6056 56.4114 48.5488 56.1939 48.4585 56.0056Z" fill="#6E6E6E"/>
    <path d="M46.9211 62.3748C46.9774 62.7576 46.9211 62.8622 46.6455 62.9333L46.9232 62.3853L46.9211 62.3748Z" fill="#F8F2EA"/>
    <path d="M32.2773 92.4702H32.2606L32.2418 92.4576C32.1851 92.0793 32.19 91.6943 32.2564 91.3176C32.3208 91.6986 32.3278 92.0871 32.2773 92.4702Z" fill="#6E6E6E"/>
    <path d="M73.9125 59.1892C73.7393 59.0394 73.6223 58.8351 73.5806 58.6098L73.639 58.5596C73.7455 58.7562 73.8478 58.9528 73.9563 59.1473L73.9125 59.1892Z" fill="#F8F2EA"/>
    <path d="M71.1269 61.1679L70.5996 61.4482C70.6522 61.3569 70.7296 61.2822 70.8228 61.2326C70.9161 61.1831 71.0215 61.1606 71.1269 61.1679Z" fill="#F8F2EA"/>
    <path d="M46.2295 67.397C46.3702 67.2903 46.4396 67.0582 46.7085 67.1293C46.595 67.2666 46.4512 67.3761 46.2883 67.4493L46.2295 67.397Z" fill="#F8F2EA"/>
    <path d="M67.6806 61.0173C67.5535 60.8573 67.4882 60.6568 67.4968 60.4525C67.6403 60.598 67.7213 60.7939 67.7223 60.9984L67.7098 61.0277L67.6806 61.0173Z" fill="#6E6E6E"/>
    <path d="M44.1497 49.3624C44.1471 49.2627 44.1642 49.1636 44.2 49.0706C44.2358 48.9776 44.2897 48.8926 44.3584 48.8206C44.3568 49.0206 44.2826 49.2131 44.1497 49.3624Z" fill="#6E6E6E"/>
    <path d="M49.0156 64.9037C49.1501 64.8765 49.1963 64.7635 49.2614 64.6631C49.2971 64.6108 49.3644 64.4539 49.4547 64.6359C49.2824 64.6778 49.2278 64.9183 49.0177 64.8974L49.0156 64.9037Z" fill="#F8F2EA"/>
    <path d="M44.3786 48.7537C44.3139 48.555 44.4308 48.4336 44.5143 48.304C44.535 48.3842 44.5333 48.4686 44.5094 48.5479C44.4855 48.6272 44.4402 48.6984 44.3786 48.7537Z" fill="#6E6E6E"/>
    <path d="M67.4495 60.348C67.3866 60.2784 67.3426 60.1937 67.3218 60.1021C67.301 60.0105 67.304 59.9151 67.3305 59.8251C67.4182 60.0238 67.5079 60.1577 67.4495 60.348Z" fill="#6E6E6E"/>
    <path d="M72.8223 56.79C72.9371 56.9029 73.0498 57.0159 72.9934 57.2083C72.7972 57.1121 72.8494 56.9322 72.8223 56.79Z" fill="#6E6E6E"/>
    <path d="M49.5513 64.3515C49.5701 64.2197 49.6744 64.1423 49.76 64.0461C49.7955 64.226 49.6661 64.295 49.5763 64.3828L49.5513 64.3515Z" fill="#F8F2EA"/>
    <path d="M73.1595 57.633C73.0217 57.5158 72.9508 57.4133 73.0238 57.2502C73.0852 57.2902 73.1318 57.3494 73.1563 57.4186C73.1808 57.4878 73.1819 57.5631 73.1595 57.633Z" fill="#6E6E6E"/>
    <path d="M73.1856 57.6643C73.2482 57.7021 73.2956 57.7607 73.3196 57.8298C73.3436 57.899 73.3427 57.9743 73.3171 58.0429C73.2023 57.9279 73.1125 57.8337 73.1856 57.6643Z" fill="#6E6E6E"/>
    <path d="M69.6963 62.0673C69.6128 62.128 69.5481 62.2409 69.3853 62.1468L69.642 62.0129L69.6963 62.0673Z" fill="#F8F2EA"/>
    <path d="M67.2231 59.5176C67.0895 59.4297 67.1647 59.3084 67.2022 59.1954L67.2189 59.5196L67.2231 59.5176Z" fill="#6E6E6E"/>
    <path d="M47.3642 66.5059L47.573 66.2968C47.5915 66.3153 47.6089 66.3348 47.6252 66.3553C47.5542 66.4432 47.5187 66.6084 47.3496 66.4892L47.3642 66.5059Z" fill="#F8F2EA"/>
    <path d="M74.0176 59.459C74.0301 59.367 74.0781 59.3439 74.1449 59.4088C74.17 59.4318 74.1908 59.5008 74.1783 59.5134C74.1032 59.5887 74.0969 59.4276 74.0259 59.4611L74.0176 59.459Z" fill="#F8F2EA"/>
    <path d="M56.5942 39.5711L56.4585 39.6401C56.4585 39.6213 56.4585 39.5941 56.4585 39.5837C56.4857 39.5579 56.5158 39.5354 56.5483 39.5167L56.5942 39.5711Z" fill="#F8F2EA"/>
    <path d="M48.1836 39.4749L48.3485 39.3138L48.3882 39.3515C48.3799 39.3929 48.3594 39.4309 48.3292 39.4604C48.299 39.4899 48.2606 39.5095 48.2191 39.5167C48.2066 39.5021 48.194 39.4895 48.1836 39.4749Z" fill="#F8F2EA"/>
    <path d="M50.4247 67.1313C50.4351 67.2401 50.5562 67.2464 50.6022 67.3238L50.5562 67.3572C50.4623 67.307 50.2848 67.3091 50.4226 67.1271L50.4247 67.1313Z" fill="#F8F2EA"/>
    <path d="M67.2193 59.5301C67.3509 59.574 67.2882 59.6661 67.3091 59.7665C67.1797 59.6891 67.211 59.6054 67.2235 59.528L67.2193 59.5301Z" fill="#6E6E6E"/>
    <path d="M73.5803 58.6098C73.5135 58.5721 73.4613 58.4905 73.5218 58.4508C73.5824 58.4111 73.597 58.5219 73.6387 58.5596L73.5803 58.6098Z" fill="#F8F2EA"/>
    <path d="M50.4212 67.1271C50.3481 67.3007 50.25 67.1271 50.1665 67.1439C50.2479 67.0163 50.3398 67.1439 50.4274 67.1313L50.4212 67.1271Z" fill="#F8F2EA"/>
    <path d="M74.0258 59.4611L73.9819 59.2916L74.0132 59.2603C74.0926 59.323 74.2095 59.3858 74.0132 59.459L74.0258 59.4611Z" fill="#F8F2EA"/>
    <path d="M67.7234 60.9943C67.7714 61.0362 67.8257 61.0759 67.7756 61.1512L67.6816 61.0131H67.7109L67.7234 60.9943Z" fill="#F8F2EA"/>
    <path d="M73.4186 58.1245C73.4186 58.1935 73.5606 58.2647 73.4583 58.3149C73.3894 58.3483 73.3789 58.2061 73.333 58.1496L73.4186 58.1245Z" fill="#F8F2EA"/>
    <path d="M47.7497 61.6469C47.7497 61.6593 47.7741 61.6717 47.772 61.6799C47.7663 61.7043 47.7574 61.7279 47.7456 61.75C47.7456 61.7397 47.7212 61.7273 47.7233 61.7191C47.7294 61.6941 47.7382 61.6699 47.7497 61.6469Z" fill="#F8F2EA"/>
    <path d="M69.2464 42.4116C69.3132 42.4451 69.3507 42.5162 69.2985 42.558C69.2464 42.5999 69.2255 42.5016 69.1816 42.4765L69.2464 42.4116Z" fill="#F8F2EA"/>
    <path d="M46.9249 62.385L47.0175 62.3706L46.9949 62.4366L46.9229 62.3768L46.9249 62.385Z" fill="#F8F2EA"/>
    <path d="M67.2782 40.6253C67.3576 40.5835 67.4327 40.5709 67.487 40.6672L67.4348 40.7236L67.272 40.6086L67.2782 40.6253Z" fill="#F8F2EA"/>
    <path d="M73.333 58.1484C73.333 58.1237 73.333 58.0845 73.333 58.0804C73.3742 58.0577 73.4133 58.0618 73.4133 58.1237L73.333 58.1484Z" fill="#6E6E6E"/>
    <path d="M73.9544 59.1473L74.0129 59.2603L73.9815 59.2917C73.9273 59.2791 73.9127 59.2394 73.9147 59.1892L73.9544 59.1473Z" fill="#F8F2EA"/>
    <path d="M48.9329 64.9685C48.9329 65.0082 49.0144 65.0333 48.9538 65.0898C48.8933 65.1463 48.8745 65.0731 48.8369 65.0605C48.8912 65.0605 48.935 65.0396 48.9309 64.9706L48.9329 64.9685Z" fill="#F8F2EA"/>
    <path d="M48.7529 65.1421C48.826 65.161 48.8385 65.1149 48.8385 65.0585C48.851 65.0878 48.8803 65.1275 48.8719 65.1442C48.8364 65.2112 48.7926 65.1693 48.7529 65.1442V65.1421Z" fill="#F8F2EA"/>
    <path d="M48.7501 65.1422C48.7647 65.1777 48.8357 65.1944 48.7814 65.2551C48.7271 65.3158 48.7083 65.2405 48.6729 65.23C48.7334 65.23 48.7543 65.1986 48.7522 65.1422H48.7501Z" fill="#F8F2EA"/>
    <path d="M48.6013 65.3199L48.6744 65.23C48.7057 65.2697 48.76 65.3095 48.6869 65.3534C48.6702 65.3638 48.6285 65.3283 48.5972 65.3136L48.6013 65.3199Z" fill="#F8F2EA"/>
    <path d="M48.5943 65.3137C48.5943 65.3576 48.6611 65.3952 48.5943 65.4475C48.5275 65.4998 48.5171 65.4245 48.4795 65.4078L48.5839 65.322L48.5943 65.3137Z" fill="#F8F2EA"/>
    <path d="M48.4629 65.5186C48.4754 65.4831 48.4859 65.4454 48.4963 65.4078C48.6508 65.4371 48.5589 65.5061 48.5213 65.5667L48.4629 65.5186Z" fill="#F8F2EA"/>
    <path d="M48.1389 39.6025L48.0763 39.682C48.0158 39.6297 48.0554 39.5963 48.0993 39.5649L48.1389 39.6025Z" fill="#F8F2EA"/>
    <path d="M67.2656 40.6086L67.2899 40.6147L67.2717 40.627L67.2656 40.6086Z" fill="#F8F2EA"/>
    <path d="M47.2254 66.5749L47.3631 66.508L47.3527 66.4933C47.3527 66.5373 47.3945 66.5833 47.3339 66.6251C47.2734 66.667 47.2567 66.5979 47.2212 66.5791L47.2254 66.5749Z" fill="#F8F2EA"/>
    <path d="M47.2212 66.5791L47.3097 66.6347L47.2809 66.6595C47.2623 66.6327 47.2459 66.6038 47.2274 66.575L47.2212 66.5791Z" fill="#F8F2EA"/>
    <path d="M50.1279 67.0327L50.1143 67.0121V67.045L50.1279 67.0327Z" fill="#F8F2EA"/>
    <path d="M50.1664 67.1439L50.1289 67.0309L50.1143 67.0456C50.1456 67.0456 50.1811 66.9975 50.2124 67.0602C50.2437 67.123 50.179 67.1167 50.1623 67.1439H50.1664Z" fill="#F8F2EA"/>
    <path d="M48.3408 64.4622C48.3758 64.4622 48.4314 64.4415 48.4396 64.4622C48.4478 64.4828 48.4293 64.5261 48.3902 64.5364L48.3408 64.4622Z" fill="#F8F2EA"/>
    <path d="M49.5844 64.3824L49.5042 64.4504L49.4795 64.4236L49.5495 64.3514L49.5844 64.3824Z" fill="#F8F2EA"/>
    <path d="M48.956 56.4114C48.956 56.4428 48.9832 56.493 48.9727 56.5034C48.9205 56.5452 48.885 56.5034 48.8579 56.4595L48.956 56.4114Z" fill="#6E6E6E"/>
    <path d="M48.0996 39.5649L48.1831 39.4749C48.1831 39.4896 48.2061 39.5021 48.2186 39.5168C48.2202 39.5278 48.2193 39.5391 48.2159 39.5498C48.2126 39.5605 48.2069 39.5703 48.1993 39.5786C48.1917 39.5868 48.1824 39.5932 48.172 39.5973C48.1616 39.6015 48.1504 39.6032 48.1393 39.6025L48.0996 39.5649Z" fill="#F8F2EA"/>
    <path d="M67.8791 61.2951L67.8486 61.3508C67.8486 61.3508 67.8243 61.3302 67.8263 61.324C67.8315 61.3049 67.8397 61.2868 67.8507 61.2704L67.8791 61.2951Z" fill="#F8F2EA"/>
    <path d="M46.2984 67.4493C46.2755 67.489 46.2588 67.5539 46.2003 67.5078C46.1419 67.4618 46.2003 67.4304 46.2295 67.397L46.2984 67.4493Z" fill="#F8F2EA"/>
    <path d="M45.9836 67.5748H46.0942C46.0942 67.5936 46.0942 67.6271 46.0754 67.6333C46.0107 67.6647 45.9815 67.6333 45.9731 67.5664L45.9836 67.5748Z" fill="#F8F2EA"/>
    <path d="M45.9731 67.5748L46.0504 67.6375L46.0003 67.6877C45.9968 67.6498 45.9912 67.6121 45.9836 67.5748H45.9731Z" fill="#F8F2EA"/>
    <path d="M48.3496 39.3138L48.4436 39.2365L48.4707 39.2657C48.4723 39.277 48.4714 39.2885 48.4679 39.2994C48.4645 39.3102 48.4586 39.3202 48.4508 39.3284C48.4429 39.3367 48.4333 39.343 48.4227 39.347C48.412 39.351 48.4006 39.3526 48.3893 39.3515L48.3496 39.3138Z" fill="#F8F2EA"/>
    <path d="M49.3131 38.5211C49.2902 38.5608 49.2714 38.6236 49.2129 38.5797C49.1545 38.5357 49.2129 38.5002 49.2443 38.4688L49.3131 38.5211Z" fill="#F8F2EA"/>
    <path d="M48.9336 64.9685C48.99 64.9874 49.0025 64.9434 49.0171 64.9037C49.0401 64.9434 49.0839 64.9874 49.0171 65.0229C49.0046 65.0229 48.9691 64.9915 48.944 64.9727L48.9336 64.9685Z" fill="#F8F2EA"/>
    <path d="M49.4525 64.6344C49.3949 64.6344 49.3579 64.6138 49.3723 64.5499C49.3746 64.544 49.3786 64.539 49.3837 64.5353C49.3888 64.5317 49.3948 64.5296 49.4011 64.5292C49.4751 64.5395 49.436 64.5952 49.4443 64.6344H49.4525Z" fill="#F8F2EA"/>
    <path d="M29.6056 53.6378C29.8934 53.6817 30.1161 53.7968 30.1161 54.1315C30.1161 54.3783 29.7611 54.7924 29.5636 54.7862C29.3325 54.7862 29.0153 54.3908 29.0216 54.1231C29.0466 53.987 29.1188 53.8639 29.2254 53.7753C29.3321 53.6866 29.4666 53.638 29.6056 53.6378Z" fill="#F8F2EA"/>
    <path d="M82.0408 46.9193C82.0681 47.2832 82.024 47.5761 81.6543 47.6305C81.3896 47.6702 81.1039 47.2811 81.1102 46.9507C81.1077 46.8775 81.121 46.8047 81.1491 46.737C81.1773 46.6694 81.2196 46.6086 81.2734 46.5587C81.3271 46.5087 81.391 46.4708 81.4607 46.4475C81.5304 46.4242 81.6043 46.416 81.6774 46.4235C81.961 46.4277 82.045 46.5616 82.0408 46.9193Z" fill="#F8F2EA"/>
    <path d="M22.6643 43.7043C22.5236 43.8884 22.4542 44.1854 22.1517 44.1603C22.1059 44.1575 22.0612 44.145 22.0205 44.1238C21.9798 44.1026 21.9441 44.073 21.9158 44.037C21.8874 44.0011 21.867 43.9596 21.8559 43.9152C21.8448 43.8708 21.8432 43.8246 21.8513 43.7796C21.8807 43.5705 21.9668 43.3613 22.2357 43.3864C22.4206 43.4031 22.6286 43.4429 22.6643 43.7043Z" fill="#F8F2EA"/>
    <path d="M61.2887 22.1201C61.2488 22.3711 61.2257 22.6786 60.9148 22.7204C60.8622 22.7236 60.8095 22.7152 60.7605 22.6958C60.7115 22.6764 60.6675 22.6464 60.6316 22.608C60.5956 22.5696 60.5686 22.5238 60.5526 22.4738C60.5365 22.4238 60.5318 22.3708 60.5387 22.3188C60.5563 22.1952 60.6148 22.0809 60.705 21.9941C60.7952 21.9073 60.9119 21.853 61.0366 21.8398C61.2215 21.8105 61.3224 21.9151 61.2887 22.1201Z" fill="#F8F2EA"/>
    <path d="M34.2928 47.8731C34.2364 47.9714 34.251 48.1324 34.0986 48.1513C34.0047 48.1638 33.9546 48.0801 33.9546 47.9923C33.9546 47.8542 34.0068 47.7538 34.1633 47.7601C34.2301 47.7643 34.2928 47.7768 34.2928 47.8731Z" fill="#F8F2EA"/>
    <path d="M64.8054 27.5062C64.9356 27.5062 65.0301 27.5397 65.0007 27.6924C64.9818 27.8053 64.9398 27.9016 64.7907 27.9204C64.6121 27.9371 64.5806 27.8032 64.5806 27.6819C64.5806 27.5606 64.6835 27.5041 64.8054 27.5062Z" fill="#F8F2EA"/>
    <path d="M46.478 37.4459L46.3069 37.6091L46.2275 37.5526L46.3883 37.3748L46.478 37.4459Z" fill="#181818"/>
    <path d="M46.1343 37.7764C46.1093 37.8454 46.0508 37.9019 45.9945 37.8371C45.9381 37.7722 46.0467 37.7513 46.078 37.7074L46.1343 37.7764Z" fill="#181818"/>
    <path d="M46.2185 37.6907L46.135 37.7765L46.0786 37.7074L46.1621 37.6175L46.2185 37.6907Z" fill="#181818"/>
    <path d="M46.3025 37.6091L46.219 37.6907L46.1626 37.6175L46.2231 37.5526L46.3025 37.6091Z" fill="#181818"/>
    <path d="M71.6299 38.4688C71.6299 38.4997 71.6484 38.5533 71.6299 38.5616C71.6114 38.5698 71.5723 38.5616 71.562 38.5162C71.5821 38.4971 71.605 38.4811 71.6299 38.4688Z" fill="#181818"/>
    <path d="M47.4861 43.0684C47.4747 43.0205 47.4807 42.97 47.503 42.926C47.5253 42.882 47.5625 42.8473 47.608 42.8279C49.4987 41.4244 51.3097 39.8849 53.379 38.7135C54.4958 38.0585 55.7076 37.5794 56.9715 37.2933C57.4395 37.2147 57.9174 37.2147 58.3854 37.2933C58.0991 37.5061 57.7757 37.6642 57.4316 37.7597C55.4316 38.2513 53.6689 39.2511 51.9252 40.2948C50.4357 41.1901 49.0345 42.2213 47.4861 43.0684Z" fill="#181818"/>
    <path d="M57.8853 38.2931C57.9249 38.268 57.9688 38.2366 58.0042 38.2931C58.0042 38.2931 57.9625 38.335 57.9395 38.3559L57.8853 38.2931Z" fill="#181818"/>
    <defs>
    <filter id="filter0_d_12127_20046" x="0" y="0" width="123" height="120.656" filterUnits="userSpaceOnUse" color-interpolation-filters="sRGB">
    <feFlood flood-opacity="0" result="BackgroundImageFix"/>
    <feColorMatrix in="SourceAlpha" type="matrix" values="0 0 0 0 0 0 0 0 0 0 0 0 0 0 0 0 0 0 127 0" result="hardAlpha"/>
    <feOffset dx="5" dy="4"/>
    <feGaussianBlur stdDeviation="2"/>
    <feComposite in2="hardAlpha" operator="out"/>
    <feColorMatrix type="matrix" values="0 0 0 0 0 0 0 0 0 0 0 0 0 0 0 0 0 0 0.25 0"/>
    <feBlend mode="normal" in2="BackgroundImageFix" result="effect1_dropShadow_12127_20046"/>
    <feBlend mode="normal" in="SourceGraphic" in2="effect1_dropShadow_12127_20046" result="shape"/>
    </filter>
    </defs>
    </svg>
    