<svg width="48" height="46" viewBox="0 0 48 46" fill="none" xmlns="http://www.w3.org/2000/svg">
    <path d="M24.3126 14.0064C24.9663 12.8344 25.6818 11.6989 26.456 10.6049C28.4713 7.75269 30.8142 5.22646 33.6726 3.21937C34.8399 2.39203 36.0986 1.70577 37.4231 1.17455C39.1919 0.47195 41.1107 0.247799 42.9909 0.524127C45.024 0.798782 46.1263 2.06944 46.8978 3.79735C47.5115 5.17214 47.6783 6.63897 47.7155 8.13449C47.796 11.2402 47.02 14.1709 45.9803 17.0487C44.8468 20.1801 43.2679 23.0821 41.558 25.9146C39.9706 28.4933 38.1883 30.9433 36.2271 33.2428C35.2723 34.3791 34.4397 35.6121 33.4879 36.759C31.0407 39.7274 28.3625 42.4588 25.3299 44.819C25.0544 45.0348 24.7535 45.2159 24.4764 45.4302C24.4252 45.4765 24.3589 45.502 24.2903 45.502C24.2216 45.502 24.1554 45.4765 24.1041 45.4302C23.4264 45.0001 22.832 44.4599 22.2243 43.9392C19.3168 41.4492 16.6894 38.6785 14.2257 35.7418C13.691 35.105 13.131 34.4893 12.5709 33.8721C11.4687 32.6558 10.6003 31.2644 9.69023 29.9047C8.04285 27.4403 6.41334 24.9639 5.02066 22.3381C3.45669 19.3908 2.09976 16.356 1.29692 13.0919C0.80241 11.0682 0.571539 9.01731 0.794963 6.93627C1.01094 4.92163 1.71994 3.1409 3.32711 1.83251C4.53509 0.848582 5.94117 0.391327 7.47535 0.347564C9.94046 0.278145 12.1181 1.16247 14.1364 2.50858C16.1546 3.8547 17.9018 5.58714 19.5954 7.33768C21.4692 9.27536 22.9601 11.5043 24.2217 13.8917C24.2396 13.9324 24.2411 13.9928 24.3126 14.0064ZM19.2602 40.2405L19.3168 40.2691L19.2945 40.2058L19.2349 40.1439L19.1724 40.1137L19.2051 40.1741L19.2602 40.2405ZM14.5817 4.4855C14.61 4.50964 14.6413 4.53077 14.6651 4.4855C14.6651 4.47343 14.6443 4.44475 14.6324 4.42362C14.6205 4.4025 14.5758 4.36628 14.5445 4.40552C14.5132 4.44475 14.5624 4.4689 14.5817 4.4855ZM20.9866 39.5734L21.0357 39.6429C21.9457 40.7391 22.9159 41.7825 23.9417 42.7682C24.0132 42.6776 24.0594 42.5765 24.1368 42.5328C24.3469 42.4105 24.2739 42.329 24.1279 42.2189C23.8077 41.9789 23.4964 41.7284 23.1806 41.4824C22.4358 40.8999 21.7775 40.2314 21.0789 39.6021L21.0149 39.5448C20.9985 39.5282 20.9702 39.495 20.9687 39.4965C20.9195 39.5402 20.9612 39.5583 20.988 39.5795L20.9866 39.5734ZM18.4708 8.01225L18.5289 8.06658L18.6674 8.17523C18.6674 8.2688 18.8328 8.16618 18.8089 8.29294V8.27634L18.8015 8.28992C18.6987 8.29898 18.8015 8.13901 18.6883 8.15109C18.6837 8.12064 18.6694 8.09253 18.6476 8.07103C18.6259 8.04952 18.5978 8.03577 18.5676 8.03187C18.5685 8.02378 18.5676 8.0156 18.5651 8.00789C18.5625 8.00019 18.5583 7.99314 18.5528 7.98725C18.5472 7.98135 18.5405 7.97676 18.533 7.97378C18.5256 7.9708 18.5175 7.96951 18.5095 7.97C18.5093 7.96194 18.5076 7.954 18.5043 7.94665C18.501 7.93929 18.4963 7.93268 18.4905 7.9272C18.4847 7.92171 18.4778 7.91746 18.4703 7.91471C18.4629 7.91195 18.4549 7.91074 18.447 7.91114C18.4291 7.89303 18.3993 7.85681 18.3948 7.85983C18.3397 7.89756 18.3948 7.9202 18.4112 7.94887L18.4708 8.01225ZM19.8113 9.54851C19.8072 9.53948 19.8022 9.53089 19.7965 9.52285C19.7965 9.52285 19.783 9.52285 19.7756 9.52285L19.8084 9.55454C19.8203 9.58171 19.8307 9.61038 19.8426 9.63754L19.8903 9.69942C19.9111 9.72205 19.9245 9.77185 19.9663 9.74016C20.008 9.70847 19.9663 9.68282 19.9439 9.65867L19.8814 9.60284L19.8113 9.54851ZM30.847 6.29641L30.9081 6.23605L30.9721 6.18474L31.0317 6.12739L31.1375 6.04439L31.1985 5.98554C31.2641 5.94177 31.3475 5.92065 31.3594 5.81954C31.3877 5.78181 31.4503 5.74861 31.3788 5.69428C31.4056 5.69428 31.4354 5.70334 31.4562 5.69428C31.5084 5.66863 31.4473 5.65203 31.4458 5.6309C31.5084 5.69881 31.5724 5.6309 31.635 5.6309C31.6275 5.58714 31.6439 5.56903 31.6886 5.5811L31.9671 5.26872C31.8643 5.3653 31.6543 5.37134 31.6886 5.5811C31.6633 5.55846 31.6364 5.51923 31.6052 5.57054C31.6052 5.5811 31.6245 5.60977 31.6365 5.6309C31.5739 5.57054 31.5113 5.6309 31.4518 5.6309C31.4398 5.66561 31.4369 5.71088 31.3803 5.69277L31.3326 5.78332C31.2298 5.78332 31.1956 5.86783 31.1464 5.93423L31.0943 5.98403L30.987 6.07156L30.926 6.13041L30.8694 6.1953L30.8098 6.25566C30.783 6.27076 30.7591 6.28886 30.783 6.31905C30.7874 6.33263 30.8247 6.3115 30.847 6.29641ZM20.072 9.80807C20.0526 9.79751 20.0184 9.77185 20.0139 9.77638C19.9767 9.8126 20.0139 9.83976 20.0348 9.86391L20.0914 9.9288C20.1425 10.0485 20.2295 10.1488 20.3401 10.2155C20.3744 10.2517 20.4176 10.3393 20.4563 10.2789C20.495 10.2185 20.3997 10.1642 20.3535 10.1129C20.3252 9.99369 20.2269 9.93182 20.1405 9.8624L20.072 9.80807ZM41.5922 21.4281C41.5744 21.4522 41.5133 21.4673 41.5744 21.5096C41.5744 21.4809 41.5848 21.4522 41.5893 21.4251L41.6042 21.4055L41.5922 21.4281ZM18.444 39.1841C18.4336 39.1509 18.4157 39.1252 18.3755 39.1358C18.3586 39.0828 18.3306 39.0341 18.2933 38.9932C18.256 38.9523 18.2103 38.9201 18.1595 38.8989C18.2221 38.9894 18.2429 39.1237 18.3814 39.1298C18.3814 39.1524 18.3814 39.1826 18.3978 39.1977C18.4142 39.2128 18.4321 39.1796 18.4529 39.172C18.3516 39.2173 18.4812 39.2837 18.438 39.3365C18.4857 39.3063 18.5006 39.3622 18.5319 39.3727C18.549 39.3792 18.5654 39.3873 18.581 39.3969V39.4044C18.5728 39.3884 18.5659 39.3717 18.5602 39.3546C18.5349 39.252 18.4857 39.2973 18.438 39.335C18.5646 39.2912 18.4902 39.2354 18.444 39.1841ZM39.4801 25.3563C39.4459 25.3895 39.4161 25.4242 39.4578 25.474L39.5278 25.4015L39.577 25.3321C39.6187 25.2718 39.6604 25.2129 39.7006 25.1525C39.7378 25.1254 39.7691 25.0952 39.7408 25.0424C39.7676 25.0182 39.8227 24.9956 39.7795 24.9564C39.7363 24.9171 39.7259 24.982 39.7036 25.0046C39.6841 25.0105 39.6672 25.023 39.6558 25.0401C39.6443 25.0571 39.6391 25.0777 39.641 25.0982C39.5591 25.1329 39.5457 25.2129 39.5189 25.2853L39.4801 25.3563ZM29.1162 10.9082C29.0954 10.9369 29.009 10.9339 29.0552 10.9927C29.1013 11.0516 29.1386 11.0093 29.1564 10.9535L29.2264 10.9037L29.3218 10.878L29.362 10.9142C28.5606 11.9963 27.6148 12.956 26.7986 14.0275C26.1179 14.9224 25.4908 15.858 24.8026 16.7439C24.4839 17.1589 24.4243 17.1438 24.1175 16.7439C24.0996 16.7197 24.0773 16.6986 24.0579 16.676C22.9825 15.5396 21.9935 14.3248 20.9106 13.1945C18.7836 10.9746 16.5345 8.90413 13.9636 7.20187C12.2641 6.07759 10.4782 5.13592 8.48225 4.66357C6.8438 4.27724 5.53454 4.95784 4.8881 6.5273C4.62077 7.20299 4.47401 7.9214 4.45465 8.64909C4.37273 10.5732 4.7317 12.4354 5.29026 14.2614C6.20662 17.1963 7.50924 19.9927 9.16295 22.575C9.63958 23.3296 10.152 24.0645 10.6718 24.7919C10.718 24.8568 10.8297 24.9428 10.718 25.0152C10.642 25.0665 10.5512 24.9971 10.4975 24.9156C10.4812 24.89 10.4603 24.8673 10.4424 24.8432C7.98178 21.5549 5.90393 18.0523 4.52019 14.1467C4.02717 12.7599 3.64139 11.3413 3.52074 9.8624L3.46265 8.76831C3.39228 9.13029 3.38272 9.50171 3.43435 9.86693C3.44478 9.93785 3.46116 10.0073 3.46712 10.0767C3.60602 11.6255 3.93423 13.1508 4.44423 14.6176C5.13833 16.6292 6.04841 18.5412 6.97637 20.4562C7.49785 21.5349 8.11506 22.5633 8.82036 23.5288C9.47872 24.4267 10.1833 25.2914 10.788 26.2255C12.475 28.8623 14.3456 31.3738 16.3855 33.7408C17.6963 35.2499 19.0994 36.6684 20.4578 38.1307C21.706 39.4769 22.9304 40.8471 24.3379 42.0302C24.4601 42.1314 24.5182 42.1812 24.6641 42.0423C25.8051 40.9271 26.9326 39.7983 28.0095 38.6197C30.9768 35.4052 33.7008 31.9688 36.1586 28.3397C38.4107 24.979 40.4364 21.4915 41.9244 17.7052C42.8687 15.2997 43.6075 12.8398 43.7639 10.2321C43.8652 8.51025 43.4318 6.94683 42.3593 5.60223C41.6042 4.65602 40.6285 4.18519 39.3803 4.37232C38.2539 4.53268 37.1654 4.89824 36.1675 5.45132C34.2633 6.53356 32.5076 7.86438 30.9453 9.40967C30.8679 9.48664 30.8142 9.63755 30.6474 9.58925C31.4011 8.58118 32.341 7.77834 33.2004 6.88496C33.1269 6.87937 33.0542 6.90321 32.9978 6.95136C31.6321 8.15901 30.3519 9.46257 29.1669 10.8524L29.1162 10.9082ZM22.1245 11.5118L22.1811 11.5405L22.1543 11.4817C22.1518 11.473 22.1475 11.4649 22.1419 11.4579C22.1362 11.4509 22.1292 11.4451 22.1213 11.4409C22.1134 11.4367 22.1047 11.4341 22.0958 11.4333C22.0869 11.4326 22.0779 11.4336 22.0694 11.4364C22.0605 11.4364 22.0515 11.4741 22.0545 11.4756C22.0766 11.4901 22.1 11.5022 22.1245 11.5118ZM33.4849 6.59823L33.3821 6.68727C33.2883 6.7265 33.187 6.7597 33.1855 6.90156C33.3196 6.90156 33.3672 6.80196 33.4373 6.73857L33.5221 6.64652C33.549 6.64652 33.5788 6.62841 33.5579 6.59672C33.537 6.56503 33.5147 6.59823 33.4849 6.59823ZM18.2757 7.68176L18.1774 7.70892C18.1893 7.721 18.2012 7.7376 18.2161 7.74212C18.2772 7.76476 18.2504 7.69685 18.2742 7.68025C18.2221 7.7059 18.2072 7.74514 18.2474 7.79192C18.2608 7.80551 18.2891 7.80701 18.3114 7.81305L18.2757 7.68176ZM14.403 4.36175C14.4298 4.38288 14.4611 4.41759 14.4924 4.37986C14.5236 4.34213 14.4775 4.32402 14.4551 4.3029L14.3553 4.23348C14.3171 4.18416 14.2679 4.14476 14.2117 4.11852C14.1555 4.09228 14.0939 4.07996 14.0321 4.08257C14.0916 4.17882 14.1821 4.25131 14.2883 4.28781L14.403 4.36175ZM22.2973 11.7563L22.3733 11.865L22.4701 11.9978C22.5058 12.0596 22.5163 12.1487 22.619 12.1487C22.6488 12.0536 22.5863 12.0053 22.5327 11.9525L22.4314 11.8106L22.3524 11.7095C22.3316 11.6582 22.2854 11.5767 22.2511 11.6039C22.1662 11.6703 22.2556 11.7156 22.2914 11.7623L22.2973 11.7563ZM41.409 21.8567C41.4293 21.8477 41.4476 21.8347 41.4629 21.8185C41.4782 21.8023 41.4902 21.7833 41.4982 21.7624C41.5062 21.7415 41.5101 21.7192 41.5096 21.6968C41.5092 21.6744 41.5043 21.6523 41.4954 21.6318C41.4619 21.6573 41.436 21.6916 41.4205 21.731C41.405 21.7704 41.4005 21.8134 41.4075 21.8552L41.3792 21.8808C41.3792 21.8808 41.3941 21.8808 41.3971 21.8808C41.4027 21.8737 41.4067 21.8655 41.409 21.8567ZM19.0026 39.9492C19.0263 39.9721 19.0517 39.9933 19.0785 40.0126C19.1306 39.9628 19.0785 39.9341 19.0502 39.9024C19.0249 39.839 19.0011 39.7726 18.9281 39.7515C18.9147 39.7515 18.8804 39.7621 18.8804 39.7711C18.8685 39.8707 18.937 39.913 19.0026 39.9492ZM25.8796 12.4414C25.8706 12.3207 26.0285 12.2754 26.0181 12.1019C25.9198 12.2271 25.8155 12.2951 25.8796 12.4429C25.8572 12.4203 25.8527 12.366 25.8021 12.3931C25.7902 12.3931 25.7842 12.4188 25.7753 12.4324L25.8796 12.4414ZM22.8023 12.3947C22.8023 12.3494 22.7903 12.3026 22.7322 12.2936C22.7322 12.2936 22.7144 12.3071 22.7144 12.3132C22.7149 12.3246 22.7178 12.3359 22.7228 12.3461C22.7278 12.3564 22.7349 12.3655 22.7436 12.3729C22.7522 12.3803 22.7623 12.3858 22.7732 12.389C22.7841 12.3922 22.7955 12.3931 22.8067 12.3916C22.8186 12.4731 22.8067 12.5712 22.9333 12.5984C22.9482 12.4927 22.8648 12.452 22.8023 12.4007V12.3947ZM12.2268 31.0787L12.1151 31.0893C12.133 31.1074 12.1494 31.1376 12.1702 31.1421C12.2194 31.1497 12.2298 31.1135 12.2239 31.0697C12.2015 31.2327 12.2015 31.2327 12.3877 31.3609L12.2268 31.0787ZM26.2087 11.9133C26.3192 11.8174 26.4133 11.7037 26.4873 11.5767C26.548 11.5297 26.5981 11.4702 26.6343 11.402C26.6706 11.3338 26.692 11.2586 26.6973 11.1813L26.4456 11.5465C26.3404 11.6408 26.25 11.7507 26.1775 11.8725C26.1268 11.9419 26.0508 11.9932 26.0374 12.1004C26.1536 12.0762 26.1849 11.9963 26.2162 11.9163L26.2087 11.9133ZM39.6708 24.158C39.5542 24.2708 39.4835 24.4237 39.4727 24.5866C39.5338 24.4357 39.7006 24.3437 39.6753 24.155C39.7453 24.1958 39.7304 24.1339 39.7393 24.1007C39.8451 23.9809 39.9171 23.8344 39.9478 23.6766C39.8883 23.8276 39.6961 23.906 39.7438 24.1082C39.6663 24.0584 39.6842 24.1233 39.6782 24.1611L39.6708 24.158ZM4.56339 5.06801C4.33251 5.1163 4.29081 5.30041 4.26549 5.49508C4.23868 5.47094 4.21782 5.47697 4.2074 5.51017C4.2074 5.51772 4.2074 5.52828 4.21633 5.53734L4.25953 5.48754C4.3815 5.36346 4.48219 5.21963 4.55743 5.06197L4.59764 5.01821C4.58871 5.01821 4.57828 5.01066 4.57232 5.01821C4.54253 5.02726 4.53955 5.04537 4.56339 5.06801ZM40.3366 22.9493C40.1846 23.1473 40.0709 23.3725 40.0015 23.6133C40.1132 23.3914 40.3142 23.2134 40.3321 22.9417C40.3545 22.9553 40.3783 22.9644 40.3872 22.9296C40.3962 22.8949 40.3753 22.9025 40.3679 22.8889L40.3366 22.9493ZM32.3827 4.94728L33.5892 4.04182L33.5296 3.96486C33.1168 4.25959 32.7191 4.5754 32.338 4.91106L31.9909 5.21288L32.0371 5.26268L32.3827 4.94728ZM46.734 7.96547C46.734 6.62388 46.372 4.61377 45.949 4.18368C46.1149 4.63127 46.2153 5.10105 46.2469 5.57808C46.1181 5.33181 45.9419 5.11422 45.7286 4.93823C45.8879 5.44528 46.0741 5.93875 46.2469 6.43676C46.4271 6.93832 46.57 7.45285 46.6744 7.97603C46.6622 8.00974 46.6594 8.04624 46.6665 8.08143C46.6736 8.11662 46.6903 8.1491 46.7146 8.17523C46.733 8.14448 46.7443 8.10991 46.7477 8.07411C46.751 8.0383 46.7463 8.0022 46.734 7.96849V7.96547ZM40.5153 22.6474C40.5476 22.6112 40.577 22.5723 40.6032 22.5312C41.6888 20.4595 42.6179 18.3074 43.3826 16.0934C43.5748 15.5185 43.6135 14.9073 43.6671 14.3037C43.5658 14.5964 43.4943 14.8982 43.4228 15.2001C42.7823 17.6659 41.8082 19.999 40.6628 22.2626C40.6017 22.3864 40.4751 22.4935 40.5228 22.6595C40.414 22.6716 40.4111 22.7455 40.3738 22.8723C40.4885 22.7802 40.5153 22.7199 40.5153 22.6474ZM17.8095 9.22556C17.8393 9.24216 17.8705 9.25876 17.8959 9.22556C17.8811 9.20973 17.8652 9.19509 17.8482 9.1818C17.8065 9.12747 17.7692 9.06711 17.7231 9.01731C17.026 8.26923 16.288 7.56136 15.5127 6.89703C13.5109 5.1327 11.0644 3.96703 8.4465 3.53024C7.42007 3.34453 6.36199 3.54125 5.46751 4.08408C5.57564 4.10401 5.6869 4.0978 5.79222 4.06597C6.56354 3.90088 7.35824 3.88093 8.13668 4.00712C9.77513 4.25008 11.2751 4.87484 12.7214 5.65655C14.549 6.64199 16.2172 7.87794 17.8095 9.22556ZM44.4982 11.9419C44.6665 10.8846 44.7224 9.81205 44.6651 8.74265C44.5965 7.54443 44.4044 6.37639 43.8503 5.29739C43.0922 3.8215 41.8455 3.19522 40.1474 3.39895C41.987 3.86375 43.0773 5.10423 43.7222 6.80649C44.1027 7.85957 44.3295 8.96328 44.3955 10.0827C44.4446 10.6864 44.464 11.29 44.4982 11.9434V11.9419ZM39.285 24.979L39.2269 24.9367C39.2009 24.9655 39.1765 24.9957 39.1539 25.0273C38.6922 25.7818 38.2468 26.5454 37.7687 27.2909C34.5782 32.2362 30.8113 36.7001 26.7226 40.8984C26.0166 41.6243 25.3031 42.3426 24.5643 43.0353C24.5107 43.0851 24.3528 43.15 24.463 43.2662C24.5733 43.3824 24.6194 43.227 24.6731 43.1787C25.1631 42.735 25.668 42.3049 26.1268 41.8295C28.1108 39.7711 30.077 37.6976 31.8673 35.4612C33.9943 32.8036 36.1586 30.1793 37.9206 27.2411C38.3675 26.4851 38.8248 25.7335 39.2791 24.9805L39.285 24.979ZM18.1342 38.8355C16.1978 36.3983 14.3717 33.8691 12.4309 31.4409C14.1931 34.0095 16.0925 36.4785 18.1208 38.837L18.1342 38.8355ZM44.6949 3.93619C44.5072 2.71231 43.4467 1.94418 42.0584 1.997C43.2545 2.24751 44.029 3.00357 44.6949 3.93619ZM22.5088 12.9002C21.9451 11.9555 21.2632 11.0887 20.4801 10.3212C21.1147 11.2161 21.7477 12.1125 22.5088 12.9002ZM11.2363 2.40748C12.1598 2.76966 13.0163 3.27671 13.9323 3.64795C13.0773 3.12731 12.2581 2.54179 11.2363 2.40748ZM45.8418 11.6643C46.1397 10.6577 46.1054 9.62849 46.0294 8.59627C46.0101 9.61642 45.9609 10.6456 45.8418 11.6643ZM8.44352 2.00606C9.60086 2.12075 10.6778 2.51462 11.7502 2.91151C10.6822 2.47086 9.63809 1.94117 8.44352 2.00304V2.00606ZM40.414 23.7219L39.7795 24.8764L39.8465 24.9126C40.0853 24.542 40.276 24.1418 40.414 23.7219ZM45.1879 16.6216C44.9302 16.9627 44.9049 17.0396 44.9257 17.4214C45.0136 17.1619 45.1 16.8887 45.1879 16.6216ZM40.8951 22.9478L40.8117 22.9055L40.4275 23.6706L40.5124 23.7114C40.6735 23.4755 40.8022 23.2187 40.8951 22.9478ZM41.0784 22.5328C41.0136 22.5767 40.9602 22.6359 40.9229 22.7053C40.8856 22.7747 40.8653 22.8522 40.8639 22.9312C41.0069 22.8451 41.0456 22.7455 41.0784 22.5328ZM13.414 3.75057C13.5063 3.85017 13.5882 3.93468 13.7476 3.89243C13.6493 3.78528 13.5644 3.71133 13.414 3.75057ZM13.7119 3.92412C13.8251 4.02221 13.8891 4.12784 14.0604 4.06597C13.9576 3.9875 13.8981 3.88186 13.7148 3.92412H13.7119ZM39.4131 24.641C39.3491 24.7089 39.2642 24.7707 39.2731 24.9035C39.3163 24.8752 39.3518 24.8363 39.3762 24.7904C39.4007 24.7445 39.4134 24.6931 39.4131 24.641ZM41.6876 21.25H41.6756V21.2696L41.6876 21.25ZM4.17165 5.61732C4.17165 5.61732 4.15675 5.62637 4.15526 5.63241C4.15377 5.63845 4.15526 5.64448 4.16718 5.65203C4.1791 5.65957 4.18356 5.64146 4.18356 5.63543C4.18356 5.62939 4.17165 5.62335 4.17165 5.61732Z" fill="#040303"/>
    </svg>
    