<svg width="120" height="119" viewBox="0 0 120 119" fill="none" xmlns="http://www.w3.org/2000/svg">
<g filter="url(#filter0_d_12079_1576)">
<path d="M0 55.065C0.202683 41.088 4.88959 28.7815 14.3733 18.3715C22.1028 9.88875 31.669 4.44012 42.796 1.66846C46.2278 0.813792 49.7158 0.317424 53.2485 0.117737C60.5531 -0.296473 67.6619 0.6529 74.5554 3.12675C81.6104 5.65879 87.8443 9.51676 93.2859 14.6516C97.9167 19.0208 101.527 24.1236 104.461 29.7537C107.482 35.5526 109.444 41.6574 110.325 48.1238C110.72 51.0233 110.898 53.9353 110.801 56.8565C110.356 70.4569 105.612 82.3606 96.3605 92.3804C88.5222 100.869 78.877 106.323 67.5542 108.786C64.3067 109.492 61.0203 109.935 57.6926 110.008C42.8166 110.335 29.6994 105.707 18.514 95.9257C9.63147 88.1573 3.99527 78.4022 1.35924 66.9299C0.541634 63.3743 0.103059 59.7662 0.0526748 56.1148C0.0480944 55.7839 0.0206119 55.4541 0.0011451 55.0661L0 55.065Z" fill="#060000"/>
<path d="M58.2528 104.552C50.5646 104.692 43.3939 103.432 36.5176 100.628C31.5845 98.6177 26.9754 96.0423 22.9641 92.5072C16.3695 86.6969 11.5475 79.6679 8.50949 71.4305C7.18232 67.8338 6.29372 64.1287 5.82079 60.329C5.35359 56.584 5.21274 52.823 5.72689 49.0791C6.41853 44.0447 7.9003 39.2282 10.1149 34.6457C14.4824 25.6084 20.9259 18.3877 29.4202 13.0292C35.045 9.48159 41.1667 7.11957 47.7281 5.92258C50.9585 5.33264 54.2163 5.05536 57.4982 5.08617C62.5824 5.1341 67.5762 5.83472 72.404 7.4345C75.766 8.54819 78.8967 10.1891 81.8602 12.1243C91.478 18.4059 98.2994 26.9617 102.588 37.552C104.449 42.1471 105.607 46.9202 106.071 51.8588C106.296 54.2436 106.422 56.6342 106.22 59.0224C105.981 61.8591 105.408 64.6422 104.633 67.3819C102.331 75.5052 98.2661 82.6427 92.4731 88.7919C86.4166 95.2207 79.1773 99.8443 70.7859 102.637C68.2656 103.475 65.6364 103.891 62.9981 104.208C61.3331 104.407 59.6613 104.496 58.2528 104.554V104.552Z" fill="#F8F2EA"/>
<path d="M57.7805 99.8275C50.7544 99.9539 44.2013 98.8101 37.9171 96.2643C33.4089 94.4387 29.1968 92.1003 25.5309 88.8904C19.5042 83.6146 15.0974 77.2322 12.3211 69.7525C11.1082 66.4867 10.2961 63.1225 9.86395 59.6723C9.43698 56.2718 9.30826 52.8568 9.77814 49.4574C10.4102 44.8861 11.7644 40.5127 13.7883 36.3517C17.7796 28.1458 23.6682 21.5893 31.431 16.7237C36.5714 13.5025 42.1659 11.3578 48.1622 10.2709C51.1144 9.73523 54.0916 9.48346 57.0909 9.51144C61.7373 9.55495 66.301 10.1911 70.713 11.6437C73.7855 12.655 76.6466 14.1449 79.3549 15.9021C88.1443 21.6059 94.3783 29.3746 98.2974 38.9906C99.9979 43.163 101.057 47.497 101.481 51.9813C101.686 54.1468 101.801 56.3174 101.617 58.486C101.398 61.0617 100.875 63.5888 100.166 66.0765C98.063 73.4525 94.3479 79.9333 89.0537 85.5169C83.5189 91.3543 76.903 95.5526 69.2343 98.0879C66.931 98.8494 64.5283 99.2266 62.1172 99.5146C60.5956 99.6959 59.0677 99.7767 57.7805 99.8285V99.8275Z" fill="#181818"/>
<path d="M15.3947 21.8233C16.5638 20.0683 17.8864 18.4298 19.2995 16.8688C20.0839 16.0027 21.0171 15.2838 21.9779 14.4976C19.8984 17.1073 17.6402 19.4659 15.492 21.9203C15.4073 21.9397 15.3626 21.9203 15.3947 21.8233Z" fill="#F8F2EA"/>
<path d="M88.7475 16.2127C91.2793 18.2678 93.5776 20.5545 95.6181 23.0957C95.6353 23.179 95.6113 23.2212 95.5185 23.1904C93.3371 20.7896 90.9896 18.5531 88.6399 16.3188C88.6238 16.2321 88.6536 16.1899 88.7464 16.2127H88.7475Z" fill="#F8F2EA"/>
<path d="M109.565 51.6453C109.841 53.7791 109.985 55.9186 109.776 58.0662C109.698 58.8717 109.574 59.6728 109.471 60.4761C109.232 60.3643 109.391 60.1806 109.389 60.0254C109.516 58.0308 109.633 56.0362 109.564 54.0359C109.537 53.2702 109.503 52.5046 109.471 51.7389C109.44 51.6465 109.48 51.6236 109.565 51.6442V51.6453Z" fill="#F8F2EA"/>
<path d="M62.0303 106.184C60.8542 106.336 59.6794 106.492 58.5022 106.638C57.396 106.776 56.2864 106.891 55.1814 107.044C54.8894 107.085 54.6111 107.04 54.3272 107.033C54.2436 107.031 54.0867 107.105 54.1061 106.917C54.1187 106.797 54.2172 106.75 54.3352 106.742C54.7566 106.715 55.1768 106.671 55.5994 106.656C57.4991 106.59 59.3851 106.373 61.2688 106.133C61.5195 106.101 61.7726 106.061 62.0303 106.183V106.184Z" fill="#F8F2EA"/>
<path d="M34.8086 9.10604C37.0805 7.83603 39.5642 7.12172 42.0319 6.36747C42.1304 6.33437 42.1545 6.37888 42.1373 6.46788C39.6982 7.30543 37.2695 8.17379 34.9037 9.20303C34.8098 9.23042 34.7869 9.19048 34.8086 9.10604Z" fill="#F8F2EA"/>
<path d="M86.1873 96.6026C88.1717 94.8704 90.2031 93.1885 92.0422 91.292C91.5979 92.1569 87.4366 95.9521 86.1873 96.6026Z" fill="#F8F2EA"/>
<path d="M95.0645 18.262C95.9324 18.8976 99.2658 22.7978 99.7308 23.6844C98.0543 21.9819 96.7363 19.9713 95.0645 18.262Z" fill="#F8F2EA"/>
<path d="M86.4541 12.9835C85.2517 12.2874 84.0505 11.5902 82.8481 10.8942C84.173 11.3768 85.5746 11.7237 86.4541 12.9835Z" fill="#F8F2EA"/>
<path d="M15.1199 24.7069C15.9432 23.5258 16.873 22.4258 17.796 21.3224C17.8601 21.2448 17.9151 21.0623 18.0674 21.1764C18.2357 21.303 18.0869 21.4046 18.0021 21.505C17.0734 22.605 16.1448 23.7061 15.2172 24.8073C15.1359 24.821 15.0901 24.7993 15.121 24.7069H15.1199Z" fill="#F8F2EA"/>
<path d="M108.873 64.8511C108.634 66.4372 108.263 67.9925 107.76 69.517C107.732 69.5501 107.704 69.5512 107.673 69.5204C108.075 67.8739 108.484 66.2296 108.773 64.5579C108.99 64.5933 108.867 64.7439 108.873 64.85V64.8511Z" fill="#F8F2EA"/>
<path d="M95.5203 23.1903C95.5535 23.1584 95.5867 23.1276 95.6199 23.0956C96.7306 24.3668 97.6994 25.7418 98.6189 27.1533C98.6498 27.2423 98.6075 27.2571 98.5319 27.2389C97.6044 25.833 96.552 24.5197 95.5203 23.1903Z" fill="#F8F2EA"/>
<path d="M108.873 64.8508C108.828 64.7573 108.893 64.626 108.773 64.5587C108.978 63.0479 109.183 61.5371 109.388 60.0264C109.446 60.1713 109.357 60.3424 109.471 60.4771C109.272 61.9354 109.072 63.3925 108.874 64.8508H108.873Z" fill="#F8F2EA"/>
<path d="M107.228 71.2419C106.979 72.4982 106.449 73.6598 106.007 74.8511C105.929 75.0611 105.838 75.2665 105.753 75.4741C105.678 75.4844 105.624 75.4764 105.674 75.3806C106.189 73.9828 106.729 72.5929 107.157 71.1655C107.192 71.1529 107.226 71.1415 107.249 71.1814C107.258 71.1974 107.246 71.2202 107.229 71.2419H107.228Z" fill="#F8F2EA"/>
<path d="M108.014 40.8736C108.437 42.1824 108.843 43.4958 108.886 44.8833C108.595 43.5471 108.305 42.2109 108.014 40.8736Z" fill="#F8F2EA"/>
<path d="M53.1141 4.04202C54.1034 3.94617 55.0882 3.79098 56.0822 3.76474C56.0867 3.81951 56.0925 3.87314 56.0971 3.92791C55.134 3.99866 54.171 4.06941 53.2068 4.14015C53.1152 4.16412 53.0889 4.12646 53.1129 4.04088L53.1141 4.04202Z" fill="#F8F2EA"/>
<path d="M4.08686 55.0092V57.7056C4.03877 57.7056 3.99067 57.7033 3.94258 57.7022C3.73875 56.7322 4.09602 55.7806 4.08686 55.0092Z" fill="#F8F2EA"/>
<path d="M6.90509 38.5389C6.72417 39.0296 6.53866 39.5203 6.36346 40.0132C6.31766 40.1421 6.26269 40.246 6.11154 40.1855C5.91687 40.1068 6.06459 39.995 6.1081 39.9059C6.3314 39.4472 6.56042 38.9931 6.78829 38.5367C6.82837 38.499 6.86731 38.5001 6.90624 38.5401L6.90509 38.5389Z" fill="#F8F2EA"/>
<path d="M44.5744 5.00954C43.695 5.22749 42.8167 5.44543 41.9373 5.66452C42.7308 5.22292 43.6057 5.07002 44.4805 4.91483C44.5698 4.88973 44.5962 4.92624 44.5744 5.01068V5.00954Z" fill="#F8F2EA"/>
<path d="M6.07781 69.1642C5.65641 68.3176 5.53732 67.3864 5.41479 66.4553C5.6358 67.3579 5.85681 68.2616 6.07781 69.1642Z" fill="#F8F2EA"/>
<path d="M15.1195 24.7068C15.1515 24.7399 15.1836 24.7741 15.2157 24.8072C14.8137 25.3584 14.4118 25.9106 14.0099 26.4618C13.9755 26.439 13.9423 26.4161 13.908 26.3933C14.2961 25.8216 14.6649 25.2363 15.1195 24.7068Z" fill="#F8F2EA"/>
<path d="M22.4292 94.5908C22.9674 95.0164 23.5056 95.4421 24.0438 95.8677C23.2021 95.4809 22.6811 95.0666 22.4292 94.5908Z" fill="#F8F2EA"/>
<path d="M64.3309 3.24336C63.7195 3.19772 63.1068 3.15093 62.4507 3.10187C63.1251 2.75042 63.7252 3.16349 64.3424 3.13154C64.3378 3.16805 64.3344 3.20571 64.3298 3.24222L64.3309 3.24336Z" fill="#F8F2EA"/>
<path d="M75.5493 7.80872C76.2558 7.89886 76.8685 8.16929 77.4261 8.57552C76.8009 8.31992 76.1745 8.06432 75.5493 7.80872Z" fill="#F8F2EA"/>
<path d="M42.1373 6.46791C42.1018 6.43482 42.0675 6.40058 42.032 6.36749C42.545 6.13243 43.0935 6.03087 43.6328 5.89737C43.6443 5.93388 43.6557 5.9704 43.6672 6.00691C43.1565 6.16096 42.6469 6.31386 42.1362 6.46791H42.1373Z" fill="#F8F2EA"/>
<path d="M67.434 105.746C67.8702 105.617 68.3065 105.487 68.7428 105.358C68.4829 105.807 68.0042 105.705 67.6229 105.844C67.529 105.869 67.4225 105.92 67.434 105.746Z" fill="#F8F2EA"/>
<path d="M58.9866 107.673C59.6862 107.661 60.3767 107.463 61.0833 107.596C60.3836 107.608 59.6954 107.835 58.9866 107.673Z" fill="#F8F2EA"/>
<path d="M20.856 91.8304C21.2533 92.2024 21.6518 92.5756 22.0492 92.9476C22.024 92.9738 21.9976 93.0012 21.9724 93.0274C21.5327 92.6977 21.148 92.312 20.856 91.8304Z" fill="#F8F2EA"/>
<path d="M23.2515 94.1172C22.8289 93.8285 22.4465 93.4964 22.1235 93.0982C22.5655 93.3618 22.9514 93.6927 23.3156 94.051C23.3247 94.1012 23.303 94.124 23.2515 94.1172Z" fill="#F8F2EA"/>
<path d="M8.38803 76.6862C8.10863 76.2309 7.92541 75.7391 7.85327 75.2017C8.05481 75.6764 8.25635 76.1522 8.45789 76.6269C8.45789 76.6737 8.43498 76.6931 8.38918 76.6874L8.38803 76.6862Z" fill="#F8F2EA"/>
<path d="M88.7479 16.2126C88.7124 16.248 88.6769 16.2833 88.6414 16.3187C88.3678 16.07 88.0941 15.8212 87.8215 15.5724C88.2006 15.6968 88.4926 15.9307 88.7491 16.2126H88.7479Z" fill="#F8F2EA"/>
<path d="M98.5317 27.239C98.5604 27.2104 98.5901 27.1819 98.6188 27.1534C98.9176 27.4843 99.1226 27.87 99.2657 28.299C99.0207 27.9453 98.7768 27.5916 98.5317 27.239Z" fill="#F8F2EA"/>
<path d="M44.5744 5.00974C44.5435 4.97779 44.5114 4.94584 44.4805 4.91389C44.9236 4.76783 45.3736 4.656 45.8431 4.6503C45.8534 4.66171 45.8626 4.67426 45.8729 4.68567C45.4572 4.86368 45.0107 4.91389 44.5744 5.0086V5.00974Z" fill="#F8F2EA"/>
<path d="M29.8884 98.6825C30.2159 98.8731 30.5446 99.0636 30.8721 99.253C30.4747 99.1891 30.1404 99.0043 29.8884 98.6825Z" fill="#F8F2EA"/>
<path d="M67.434 105.746C67.4569 105.855 67.56 105.811 67.623 105.844C67.2313 105.935 66.8408 106.028 66.4492 106.119C66.7492 105.902 67.0882 105.813 67.434 105.746Z" fill="#F8F2EA"/>
<path d="M109.565 51.6452C109.534 51.6772 109.503 51.708 109.471 51.7399C109.35 51.4079 109.383 51.069 109.465 50.7255L109.565 51.6452Z" fill="#F8F2EA"/>
<path d="M24.6451 95.2069C24.3427 95.0277 24.0553 94.8292 23.8149 94.5713C23.8126 94.5268 23.8355 94.5108 23.8778 94.5211C24.1779 94.6512 24.3908 94.8965 24.6428 95.0905C24.6828 95.1281 24.684 95.1669 24.6451 95.2069Z" fill="#F8F2EA"/>
<path d="M34.8088 9.10615C34.8409 9.1381 34.8718 9.17119 34.9039 9.20314C34.6623 9.37088 34.3943 9.47586 34.1023 9.5215C34.3096 9.33094 34.5432 9.19173 34.8077 9.10501L34.8088 9.10615Z" fill="#F8F2EA"/>
<path d="M53.1143 4.04202C53.1452 4.07511 53.1772 4.1082 53.2082 4.1413C52.907 4.2942 52.5932 4.22003 52.2749 4.14928C52.5543 4.11391 52.8349 4.0774 53.1143 4.04202Z" fill="#F8F2EA"/>
<path d="M6.90457 38.5389C6.86563 38.5389 6.82555 38.5366 6.78662 38.5354C6.90228 38.281 7.01793 38.0265 7.13359 37.7732C7.12557 38.0562 7.07977 38.3209 6.90457 38.5389Z" fill="#F8F2EA"/>
<path d="M8.83301 33.6288C8.97157 33.3469 9.11012 33.0639 9.24868 32.7821C9.28303 32.798 9.31853 32.814 9.35288 32.83C9.2212 33.1153 9.13875 33.4234 8.83301 33.6288Z" fill="#F8F2EA"/>
<path d="M106.425 42.0558C106.357 41.7865 106.29 41.5172 106.222 41.2479C106.42 41.4476 106.505 41.6849 106.508 41.9497C106.552 42.0409 106.508 42.0649 106.424 42.0558H106.425Z" fill="#F8F2EA"/>
<path d="M105.674 75.3808C105.7 75.4116 105.726 75.4435 105.753 75.4743C105.668 75.7128 105.573 75.9456 105.344 76.1989C105.428 75.8612 105.53 75.6135 105.674 75.3808Z" fill="#F8F2EA"/>
<path d="M15.3946 21.8233C15.4266 21.8552 15.4598 21.8883 15.4919 21.9203C15.3831 22.1667 15.1862 22.3413 14.9846 22.517C15.0659 22.2523 15.1965 22.0184 15.3946 21.8233Z" fill="#F8F2EA"/>
<path d="M8.45665 76.6268C8.60093 76.8779 8.7372 77.13 8.76697 77.429C8.59291 77.2054 8.45092 76.9669 8.38794 76.6873C8.41084 76.6668 8.43374 76.6474 8.45665 76.6268Z" fill="#F8F2EA"/>
<path d="M24.6449 95.2069C24.6449 95.1681 24.6437 95.1293 24.6426 95.0905C24.8693 95.2206 25.0766 95.3746 25.2335 95.596C25.0147 95.5013 24.7949 95.41 24.6449 95.208V95.2069Z" fill="#F8F2EA"/>
<path d="M105.695 39.0707C105.519 38.8779 105.387 38.6691 105.434 38.3073C105.543 38.6257 105.62 38.8482 105.695 39.0707Z" fill="#F8F2EA"/>
<path d="M106.425 42.0557C106.453 42.0203 106.481 41.985 106.51 41.9496C106.624 42.1618 106.657 42.3912 106.622 42.6377C106.556 42.4437 106.49 42.2497 106.425 42.0557Z" fill="#F8F2EA"/>
<path d="M107.673 69.5202C107.703 69.5328 107.731 69.5305 107.76 69.5168C107.695 69.7245 107.63 69.9333 107.525 70.2654C107.489 69.9059 107.548 69.7062 107.673 69.5214V69.5202Z" fill="#F8F2EA"/>
<path d="M45.843 4.65132C46.0812 4.53151 46.3308 4.47902 46.6915 4.52124C46.3583 4.58856 46.1304 4.70381 45.8728 4.6867C45.8625 4.67528 45.8533 4.66273 45.843 4.65132Z" fill="#F8F2EA"/>
<path d="M23.8149 94.5714C23.6271 94.4197 23.4393 94.269 23.2515 94.1173C23.2732 94.0956 23.2938 94.0728 23.3156 94.0511C23.5297 94.1766 23.7187 94.3318 23.8778 94.5212C23.8504 94.5292 23.8297 94.5463 23.8149 94.5714Z" fill="#F8F2EA"/>
<path d="M107.229 71.2421C107.205 71.217 107.181 71.1907 107.157 71.1656C107.214 70.9671 107.271 70.7685 107.329 70.57C107.359 70.8073 107.369 71.039 107.228 71.2421H107.229Z" fill="#F8F2EA"/>
</g>
<path d="M29.1399 50.1549C29.163 45.6971 30.3127 40.5199 32.8666 35.688C35.3742 30.9429 38.8558 27.1024 43.5778 24.4617C46.4873 22.8205 49.7177 21.8288 53.0469 21.5548C54.4203 21.4391 55.7975 21.2983 57.1786 21.3831C57.6064 21.4234 58.0306 21.495 58.4479 21.5973C58.7603 21.6648 59.0805 21.7901 59.1654 22.1335C59.2503 22.4768 58.9417 22.6447 58.7237 22.8163C56.9904 24.1688 55.4452 25.7464 54.129 27.5075C50.9598 31.7646 49.2083 36.556 48.7801 41.8335C48.3828 46.7368 49.1775 51.4357 51.3957 55.8452C53.6526 60.3338 56.9414 63.7827 61.7097 65.6229C66.5319 67.4823 71.279 67.2586 75.9451 65.0558C78.3286 63.9063 80.5294 62.4114 82.4764 60.6192C82.9451 60.2084 83.3675 59.7493 83.9095 59.4368C84.5152 59.0761 84.8952 59.2439 85.0785 59.9171C85.1489 60.253 85.1489 60.5997 85.0785 60.9356C84.6476 63.816 83.7071 66.5965 82.3008 69.147C79.8473 73.6877 76.5797 77.5397 72.3361 80.4832C68.5207 83.1559 64.0234 84.6874 59.3699 84.8985C54.5939 85.1416 50.1689 83.9341 46.0603 81.5673C39.1162 77.5802 34.4155 71.6912 31.5935 64.2533C29.8864 59.7532 29.1418 55.6272 29.1399 50.1549ZM58.0871 83.4885C59.2194 83.4948 60.3506 83.4206 61.4724 83.2667C66.1531 82.6508 70.5682 80.7379 74.2187 77.7442C79.4268 73.5121 82.7676 68.0591 84.5596 61.6242C84.677 61.3168 84.7296 60.9884 84.7139 60.6597C84.6425 60.0946 84.278 59.9306 83.8035 60.2547C82.8969 60.8739 82.1755 61.7014 81.3634 62.4266C80.2446 63.4277 79.122 64.4173 77.8585 65.2313C74.7723 67.2142 71.4661 68.3696 67.7414 68.1459C64.2162 67.9745 60.813 66.8015 57.9309 64.7645C54.5707 62.3919 52.0516 59.3095 50.2384 55.6349C49.2624 53.6597 48.4676 51.6054 48.105 49.4335C47.4941 45.6475 47.6502 41.7773 48.5641 38.0528C50.0416 31.8359 53.2552 26.6877 58.1412 22.5791C58.334 22.4209 58.4517 22.2512 58.3823 22.0004C58.3128 21.7496 58.0871 21.6879 57.8499 21.686C57.2712 21.686 56.6925 21.6725 56.1139 21.686C53.1387 21.74 50.2005 22.3545 47.453 23.4972C42.4378 25.5747 38.4913 28.9773 35.4629 33.4447C31.8847 38.7222 30.1506 44.5996 29.9693 50.9438C29.8802 54.2877 30.2944 57.6261 31.198 60.8469C33.044 67.5209 36.4987 73.1804 41.9113 77.5532C46.6159 81.357 51.9879 83.4364 58.0871 83.4885Z" fill="#F8F2EA"/>
<path d="M29.5142 29.5907C29.3329 31.0856 28.7677 31.9671 27.4348 31.9459C26.4376 31.9285 25.7528 31.4039 25.3863 30.4896C25.0488 29.6428 25.3362 28.9175 25.9052 28.2829C26.3168 27.7963 26.89 27.4744 27.5197 27.3763C27.8498 27.3101 28.1925 27.3565 28.4932 27.5079C28.7938 27.6592 29.0352 27.907 29.1786 28.2115C29.3961 28.6389 29.511 29.1111 29.5142 29.5907ZM28.1775 30.1694C28.1891 29.826 27.7223 29.3534 27.3635 29.338C27.105 29.338 26.7848 29.7238 26.7674 30.0691C26.7559 30.4992 27.0954 30.9158 27.4619 30.9216C27.8283 30.9274 28.164 30.5571 28.164 30.1771L28.1775 30.1694ZM25.9785 29.8781C26.5263 28.688 27.1011 28.4353 28.544 28.6918C28.5018 28.5525 28.4184 28.4293 28.3048 28.3383C28.1911 28.2474 28.0526 28.1931 27.9074 28.1826C27.1339 28.0649 26.0132 29.0043 25.9708 29.8858L25.9785 29.8781Z" fill="#050404"/>
<path d="M26.6923 80.111C26.6768 79.0095 27.1398 78.5196 28.3589 78.3383C29.2172 78.211 30.0428 78.564 30.4035 79.2159C30.7893 79.9219 30.6485 80.9288 30.0505 81.6444C29.7982 81.9144 29.4748 82.1076 29.1175 82.2017C28.7602 82.2959 28.3835 82.2873 28.0309 82.1768C27.1996 81.8991 26.7058 81.1275 26.6923 80.111ZM29.007 79.8718C28.8141 79.9238 28.5826 79.9277 28.573 80.2151C28.5633 80.4697 28.9105 81.0195 29.061 80.9616C29.4043 80.8247 29.3831 80.4504 29.4333 80.1611C29.4834 79.8718 29.196 79.9084 28.9993 79.8718H29.007ZM27.3462 80.1785C27.622 79.5188 28.0888 79.2757 28.681 79.1272C27.7917 79.0423 27.3307 79.3838 27.3385 80.1785H27.3462ZM28.2045 80.869L27.9924 80.0974C27.811 80.3964 27.8303 80.4832 28.1968 80.869H28.2045Z" fill="#050404"/>
<path d="M69.0897 51.5572C69.0897 52.8013 68.2275 53.814 67.184 53.8063C66.0883 53.7967 65.0467 52.7145 65.0525 51.5784C65.0583 50.4423 65.934 49.798 67.238 49.7633C67.4784 49.7555 67.7179 49.7962 67.9423 49.8829C68.1666 49.9695 68.3713 50.1004 68.544 50.2678C68.7168 50.4352 68.8541 50.6356 68.9479 50.8571C69.0416 51.0786 69.0899 51.3167 69.0897 51.5572ZM68.1253 51.4762C68.1253 51.2081 67.6566 50.7875 67.3306 50.776C67.0547 50.776 66.5918 51.1618 66.5783 51.4183C66.5571 51.8562 67.0065 52.5583 67.3171 52.5757C67.6276 52.593 68.1118 51.9333 68.1234 51.4762H68.1253ZM66.0768 52.2998C65.9379 51.889 66.0459 51.4935 66.1501 51.0711C65.6968 51.4472 65.6852 51.6517 66.0768 52.2998Z" fill="#050404"/>
<path d="M64.2038 91.2408C64.1743 90.701 64.316 90.1656 64.6089 89.7112C65.1972 88.8374 66.667 89.0901 67.1647 89.7498C67.4218 90.0685 67.5812 90.4548 67.6236 90.8621C67.6661 91.2694 67.5897 91.6803 67.4039 92.0452C66.9062 93.1639 65.1007 93.081 64.5799 92.4618C64.252 92.0722 64.2231 91.6034 64.2038 91.2408ZM65.419 91.2736C65.7643 91.2736 66.1038 90.9688 66.1057 90.6949C66.1076 90.421 65.7816 90.0642 65.5502 90.0642C65.3573 90.0642 65.0216 90.5985 65.0313 90.9129C65.0409 91.1849 65.2377 91.2466 65.419 91.2736ZM65.5887 91.9487C66.3603 92.0201 66.7789 91.777 66.9139 91.2312C66.985 90.9798 66.96 90.711 66.8438 90.4771C66.7275 90.2432 66.5284 90.0609 66.2851 89.9658C66.831 91.1039 66.6882 91.5436 65.5849 91.9487H65.5887Z" fill="#050404"/>
<path d="M77.9301 30.2427C77.9301 31.3036 77.0948 32.3008 76.2037 32.2854C75.0039 32.2661 74.4059 31.3807 74.3442 30.3391C74.2825 29.3361 75.0695 28.7169 76.2731 28.7208C77.2395 28.7227 77.9301 29.3612 77.9301 30.2427ZM76.9656 30.2735C76.9656 29.9572 76.5798 29.7296 76.0532 29.7431C75.5671 29.7566 75.2026 30.0266 75.2026 30.3719C75.2026 30.8503 75.6096 31.3923 75.9741 31.3884C76.4139 31.3827 76.9791 30.7519 76.9656 30.2735Z" fill="#050404"/>
<path d="M24.8847 65.9952C24.4507 65.9952 24.1536 65.7155 23.9916 65.1773C23.9305 64.9839 23.9319 64.7762 23.9956 64.5837C24.0593 64.3911 24.1821 64.2236 24.3465 64.1048C24.7207 63.8656 25.3303 63.8695 25.6061 64.1048C25.8819 64.3402 25.936 64.7877 25.745 65.2332C25.5772 65.6364 25.3824 66.0145 24.8847 65.9952ZM25.122 64.8378C25.122 64.7066 25.0525 64.6681 24.9464 64.6854C24.7921 64.7105 24.6127 64.7336 24.6108 64.9343C24.6108 65.0577 24.6802 65.2236 24.8307 65.2024C25.0139 65.1812 25.0776 65.0037 25.122 64.8378Z" fill="#050404"/>
<path d="M89.2257 52.5081C89.2257 53.029 88.8399 53.4726 88.3924 53.4726C87.8523 53.4726 87.2543 52.8592 87.2678 52.3153C87.2794 51.8523 87.6536 51.5437 88.1898 51.5591C88.7762 51.5649 89.2314 51.9815 89.2257 52.5081ZM88.3326 52.9769C88.457 52.9647 88.573 52.9084 88.6597 52.8182C88.7463 52.728 88.7979 52.6099 88.8051 52.485C88.7839 52.2632 88.3943 52.0086 88.0953 52.0452C87.9024 52.0664 87.6787 52.0741 87.6825 52.3596C87.7012 52.5224 87.7766 52.6735 87.8954 52.7863C88.0143 52.8992 88.169 52.9666 88.3326 52.9769Z" fill="#050404"/>
<path d="M58.0872 83.4885C51.988 83.4364 46.616 81.357 41.9075 77.5532C36.4949 73.1804 33.0345 67.5229 31.1943 60.8469C30.2912 57.628 29.877 54.2916 29.9656 50.9496C30.1469 44.6054 31.881 38.728 35.4591 33.4505C38.4875 28.9831 42.4302 25.5805 47.4493 23.503C50.198 22.3569 53.1383 21.7398 56.1159 21.6841C56.6946 21.6725 57.2732 21.6841 57.8519 21.6841C58.0892 21.6841 58.3091 21.7381 58.3843 21.9985C58.4595 22.2589 58.3303 22.4132 58.1432 22.5772C53.2572 26.6858 50.0417 31.836 48.5661 38.0509C47.6522 41.7754 47.4961 45.6456 48.107 49.4315C48.4697 51.6035 49.2644 53.6578 50.2404 55.633C52.0536 59.3076 54.5727 62.3842 57.9329 64.7626C60.815 66.7996 64.2182 67.9726 67.7434 68.144C71.4681 68.3677 74.7801 67.2123 77.8606 65.2294C79.124 64.4154 80.2466 63.4258 81.3654 62.4247C82.1775 61.6994 82.8989 60.8719 83.8055 60.2528C84.28 59.9287 84.6446 60.0927 84.7159 60.6578C84.7316 60.9865 84.6791 61.3149 84.5616 61.6223C82.7696 68.0572 79.4307 73.5102 74.2207 77.7423C70.5702 80.7359 66.1551 82.6488 61.4744 83.2647C60.3521 83.4195 59.2202 83.4942 58.0872 83.4885ZM54.268 64.7047L54.1908 64.6218C54.1484 64.5697 54.0828 64.5253 54.0384 64.587C53.9941 64.6488 54.0847 64.6719 54.1233 64.7066L54.187 64.7684L54.2641 64.8494L54.3509 64.9246L54.4319 65.0056C54.515 65.1591 54.641 65.2852 54.7946 65.3683C56.6135 66.8728 58.3148 68.522 60.5061 69.5289C62.2228 70.3159 63.7525 70.6342 65.4943 70.3333C61.4223 69.7546 57.9406 67.9607 54.8852 65.2834C54.793 65.1376 54.6648 65.018 54.5129 64.9362L54.4319 64.859L54.3528 64.7799L54.268 64.7047ZM53.3652 26.5893L53.4482 26.5719L53.4231 26.5199C53.4058 26.5449 53.3903 26.5719 53.3749 26.597C53.319 26.597 53.2939 26.6202 53.2939 26.6742L53.1685 26.7938C51.2606 29.0551 49.7931 31.6538 48.8419 34.4554C47.8232 37.4828 47.3357 40.6635 47.401 43.857C47.3264 44.2074 47.3663 44.5725 47.5148 44.8986C47.5803 44.5448 47.5571 44.1803 47.4473 43.8377C47.4994 43.1182 47.538 42.3987 47.6055 41.6792C47.9738 37.6382 49.1652 33.7153 51.1065 30.152C51.7555 29.0105 52.4637 27.9037 53.2283 26.8362L53.3421 26.7205C53.3691 26.6819 53.4096 26.6452 53.3652 26.5893ZM47.3644 79.5805C47.3952 79.5439 47.3856 79.5169 47.3412 79.5053C47.3412 79.5053 47.3162 79.5053 47.3046 79.5169L47.374 79.5728C47.3933 79.6519 47.455 79.6577 47.5206 79.65C47.5244 79.6296 47.5244 79.6086 47.5206 79.5882C47.4685 79.5747 47.4184 79.4976 47.3644 79.5805ZM44.5694 78.2727C44.6041 78.2978 44.6369 78.3556 44.6793 78.2862C44.6579 78.2657 44.6353 78.2464 44.6118 78.2283L44.4999 78.1068C43.9213 77.5802 43.4197 76.961 42.6694 76.6601C43.1953 77.2331 43.7916 77.7374 44.444 78.1608L44.5694 78.2727ZM81.9634 65.1329C82.0405 65.104 82.0424 65.0519 82.0077 64.9883C81.9749 65.021 81.9441 65.0519 81.9151 65.0847L81.8534 65.1831C81.73 65.3335 81.6027 65.484 81.4831 65.6383C79.4481 68.2963 77.0466 70.5397 74.1107 72.185C71.96 73.3925 69.7186 74.3666 67.292 74.8624C66.8638 74.9492 66.4182 75.0553 65.9688 74.9202C65.5734 74.7949 65.529 74.6193 65.8125 74.3069C65.9788 74.1357 66.1924 74.0181 66.4259 73.9693C66.8831 73.8536 67.3422 73.7436 67.8051 73.6472C70.9917 72.9836 73.8098 71.5562 76.3309 69.5193C76.3772 69.4981 76.4389 69.4576 76.4062 69.417C76.3734 69.3765 76.2923 69.3862 76.2538 69.4518C75.5324 69.7951 74.8244 70.177 74.0857 70.4779C68.6847 72.6769 63.332 72.6557 58.0757 70.0478C53.7009 67.8816 50.5702 64.4404 48.2845 60.2007C45.6689 55.3495 44.6446 50.1337 44.9089 44.6478C45.0237 42.2327 45.412 39.8384 46.0662 37.5108C47.5226 32.3336 50.0649 27.791 53.9864 24.0624C54.05 24.0007 54.1792 23.9583 54.1117 23.7924C53.886 23.8348 53.6546 23.8676 53.427 23.9255C52.5011 24.1589 51.5231 24.2727 50.6976 24.78C48.4812 26.1302 46.4038 27.6734 44.9108 29.8685C45.8097 29.1065 46.5832 28.2038 47.5264 27.4959C48.4697 26.788 49.4148 26.0646 50.5857 25.5149C50.463 25.7139 50.2976 25.8833 50.1015 26.0106C48.296 27.3609 46.5812 28.8018 45.1326 30.5417C44.8958 30.8418 44.6156 31.1051 44.3013 31.3229C43.9309 31.5678 43.684 31.4926 43.466 31.103C43.2924 30.7924 43.3657 30.4915 43.466 30.1867C43.7284 29.3669 44.2588 28.713 44.7931 28.0649C44.8529 27.9897 44.9648 27.9376 44.9127 27.8064C44.7642 27.7602 44.6928 27.8817 44.606 27.9453C43.7624 28.5509 42.9602 29.2121 42.2045 29.9244C38.9374 33.0388 36.4529 36.8816 34.9537 41.1391C33.3306 45.6858 32.6979 50.5268 33.0981 55.3379C33.2042 56.7402 33.3469 58.1483 33.7366 59.5024C34.313 61.4694 35.102 63.3678 36.0899 65.1638C38.8579 70.2388 42.7196 74.249 47.8389 76.99C50.3881 78.3359 53.1548 79.2214 56.0117 79.6056C59.1597 80.0492 62.2846 79.974 65.3573 79.1291C70.168 77.8059 74.2303 75.2308 77.6021 71.5755C79.3472 69.6932 80.8033 67.5623 81.9229 65.2525L81.9634 65.1329ZM39.6526 31.3422C39.5349 31.4386 39.3555 31.4617 39.3112 31.6411C37.6168 33.5135 36.2054 35.6236 35.1216 37.9043C33.5197 41.2575 32.5973 44.8946 32.4076 48.606C32.3806 49.0515 32.369 49.4991 32.3613 49.9562C32.3536 50.4134 32.3613 50.8204 32.3613 51.2524C32.4352 51.1218 32.4681 50.9719 32.4558 50.8223C32.5466 47.6391 33.0962 44.4856 34.0877 41.4593C35.2338 37.9123 37.0227 34.6064 39.3652 31.7067L39.6564 31.3383L39.6526 31.3422ZM48.0665 79.9065L48.1244 79.8891L48.107 79.9412L48.0607 79.8988C47.947 79.7687 47.7873 79.6878 47.6151 79.6731C47.6315 79.7189 47.6646 79.7568 47.7077 79.7792C47.8254 79.8274 47.9469 79.866 48.0665 79.9065ZM57.4642 68.5548C57.3959 68.4072 57.2885 68.2812 57.1536 68.1903C56.0619 67.2258 54.8389 66.4021 53.8745 65.2969C52.7441 64.018 51.5405 62.7893 50.7111 61.2828C49.4129 58.9141 48.0472 56.5898 47.3316 53.9375C46.8648 52.2015 46.2919 50.4944 46.0045 48.7121C45.9794 48.5577 46.0199 48.3591 45.8405 48.2125C46.5234 57.6854 51.4672 65.2641 57.4642 68.5548ZM41.4021 75.8558C41.2455 75.4073 40.9734 75.0081 40.6132 74.6984C40.2278 74.3418 39.8717 73.9548 39.5484 73.5411C38.6418 72.4782 37.9243 71.2765 37.0755 70.177C35.0116 67.5036 33.5842 64.5041 32.4172 61.3677C32.0621 60.3263 31.7614 59.2672 31.5164 58.1946C31.472 58.0287 31.2309 57.9091 31.3602 57.7027C32.7123 64.8648 35.9741 70.9621 41.4021 75.8558ZM49.8045 80.4022C49.9106 80.5739 50.0745 80.5951 50.223 80.6356C51.7878 81.1332 53.3874 81.5136 55.0087 81.7737C55.7108 81.8952 56.4071 81.9762 57.1208 81.8123C54.6171 81.6907 52.285 80.6993 49.8045 80.4022ZM72.4712 78.1782C72.3948 78.1729 72.3182 78.1827 72.2456 78.2072C72.1731 78.2317 72.1062 78.2704 72.0487 78.3209C70.9361 78.9849 69.7755 79.5652 68.5767 80.0569C67.971 80.3077 67.3036 80.4427 66.7596 81.0677C68.7803 80.3553 70.7001 79.384 72.4712 78.1782ZM47.2255 79.4706C47.2139 79.4532 47.2062 79.4243 47.1927 79.4204C47.1792 79.4166 47.1483 79.4204 47.1271 79.4339C47.1368 79.4513 47.1464 79.4783 47.1618 79.4841C47.1773 79.4898 47.2024 79.4763 47.2255 79.4706ZM57.5163 68.5201C57.5163 68.5201 57.4912 68.5375 57.4931 68.5452C57.4978 68.5628 57.5049 68.5797 57.5143 68.5953C57.5143 68.5953 57.5394 68.578 57.5375 68.5703C57.5328 68.5526 57.5257 68.5357 57.5163 68.5201ZM72.5425 78.1165C72.5425 78.1165 72.5271 78.0952 72.5194 78.0933C72.5117 78.0914 72.502 78.1049 72.4943 78.1126C72.4866 78.1203 72.5078 78.1338 72.5175 78.1338C72.5271 78.1338 72.529 78.1222 72.5425 78.1165ZM54.2043 23.7519C54.1947 23.7519 54.1792 23.7692 54.1812 23.7731C54.1863 23.79 54.1934 23.8062 54.2024 23.8213C54.2024 23.8213 54.2275 23.8039 54.2275 23.7982C54.2217 23.7818 54.2139 23.7663 54.2043 23.7519Z" fill="#050404"/>
<path d="M28.164 30.1771C28.1524 30.5629 27.7936 30.9371 27.4483 30.9294C27.1031 30.9216 26.7424 30.5069 26.7539 30.0768C26.7539 29.7392 27.0915 29.3361 27.35 29.3457C27.7145 29.3612 28.1813 29.8337 28.164 30.1771Z" fill="#F8F2EA"/>
<path d="M25.9707 29.8858C26.0131 29.0043 27.1281 28.0649 27.8996 28.1903C28.0448 28.2008 28.1833 28.2552 28.297 28.3461C28.4106 28.437 28.494 28.5602 28.5362 28.6995C27.0933 28.443 26.5185 28.6957 25.9707 29.8858Z" fill="#F8F2EA"/>
<path d="M28.9991 79.8718C29.192 79.9084 29.4737 79.8718 29.4254 80.1611C29.3772 80.4504 29.3965 80.8246 29.0532 80.9616C28.9027 81.0195 28.5555 80.4697 28.5651 80.2151C28.5748 79.9277 28.812 79.9238 28.9991 79.8718Z" fill="#F8F2EA"/>
<path d="M27.3384 80.1785C27.3384 79.3838 27.7917 79.0423 28.6732 79.1272C28.081 79.2757 27.6142 79.5188 27.3384 80.1785Z" fill="#F8F2EA"/>
<path d="M28.1971 80.8699C27.8302 80.4837 27.8109 80.3968 27.9847 80.0975L28.1971 80.8699Z" fill="#F8F2EA"/>
<path d="M68.1234 51.4762C68.1118 51.9333 67.6277 52.5891 67.3152 52.5737C67.0027 52.5583 66.5552 51.8562 66.5764 51.4164C66.5899 51.1579 67.0529 50.7644 67.3287 50.774C67.6547 50.7875 68.1311 51.208 68.1234 51.4762Z" fill="#F8F2EA"/>
<path d="M66.0769 52.2999C65.6911 51.6556 65.6911 51.4511 66.1502 51.0711C66.0461 51.4897 65.938 51.8851 66.0769 52.2999Z" fill="#F8F2EA"/>
<path d="M65.4192 91.2736C65.2379 91.2466 65.0334 91.1849 65.0334 90.9148C65.0238 90.6004 65.3575 90.0661 65.5523 90.0661C65.7838 90.0661 66.1078 90.4365 66.1078 90.6969C66.1078 90.9573 65.7645 91.264 65.4192 91.2736Z" fill="#F8F2EA"/>
<path d="M65.585 91.9487C66.6844 91.5436 66.8272 91.1039 66.2813 89.9658C66.5246 90.0609 66.7238 90.2432 66.84 90.4771C66.9563 90.711 66.9813 90.9798 66.9101 91.2312C66.779 91.777 66.3565 92.0201 65.585 91.9487Z" fill="#F8F2EA"/>
<path d="M76.9656 30.2735C76.9656 30.7519 76.4081 31.3826 75.9664 31.3884C75.6095 31.3884 75.1948 30.8503 75.1948 30.3719C75.1948 30.0266 75.5594 29.7566 76.0455 29.7431C76.5798 29.7315 76.9656 29.9572 76.9656 30.2735Z" fill="#F8F2EA"/>
<path d="M25.1226 64.838C25.0801 64.9982 25.0145 65.1759 24.831 65.2029C24.6804 65.2242 24.6089 65.0581 24.6109 64.9345C24.6109 64.7414 24.7924 64.7105 24.9469 64.6854C25.0531 64.6738 25.1245 64.7125 25.1226 64.838Z" fill="#F8F2EA"/>
<path d="M88.3327 52.9769C88.1691 52.9666 88.0144 52.8992 87.8955 52.7864C87.7767 52.6735 87.7013 52.5225 87.6826 52.3596C87.6826 52.0742 87.9083 52.0664 88.0954 52.0452C88.3944 52.0086 88.784 52.2632 88.8052 52.485C88.798 52.6099 88.7464 52.7281 88.6598 52.8182C88.5731 52.9084 88.4571 52.9647 88.3327 52.9769Z" fill="#F8F2EA"/>
<path d="M76.3308 69.5193C73.8097 71.5562 70.9916 72.9913 67.805 73.6472C67.3421 73.7436 66.883 73.8535 66.4258 73.9693C66.1923 74.0181 65.9787 74.1357 65.8124 74.3068C65.5289 74.6193 65.5733 74.7949 65.9687 74.9202C66.4181 75.0649 66.8637 74.9492 67.2919 74.8624C69.7185 74.3666 71.9599 73.3925 74.1106 72.185C77.0465 70.5397 79.448 68.2963 81.483 65.6383C81.6026 65.484 81.7299 65.3335 81.8533 65.1831L81.9266 65.2448C80.807 67.5546 79.3509 69.6854 77.6058 71.5678C74.2283 75.2231 70.1718 77.7982 65.3611 79.1214C62.2883 79.9663 59.1635 80.0415 56.0155 79.5979C53.1577 79.2165 50.3897 78.3337 47.8388 76.99C42.7156 74.2567 38.8539 70.2523 36.0859 65.1715C35.0981 63.3755 34.309 61.4772 33.7326 59.5101C33.3468 58.1599 33.2002 56.7479 33.0942 55.3456C32.6939 50.5345 33.3266 45.6935 34.9498 41.1468C36.4489 36.8861 38.9349 33.0406 42.2044 29.9244C42.9566 29.2084 43.7556 28.5434 44.5963 27.9338C44.6831 27.8701 44.7545 27.7409 44.903 27.7949C44.9551 27.926 44.8432 27.9878 44.7834 28.0533C44.2491 28.7053 43.7186 29.3592 43.4563 30.1752C43.3598 30.4799 43.2865 30.7808 43.4563 31.0914C43.6743 31.4772 43.9212 31.5563 44.2915 31.3113C44.6058 31.0935 44.886 30.8302 45.1229 30.5301C46.5715 28.794 48.2863 27.3454 50.0918 25.999C50.2879 25.8717 50.4532 25.7024 50.5759 25.5033C49.4051 26.0531 48.4541 26.7745 47.5167 27.4843C46.5792 28.1942 45.7999 29.095 44.9011 29.8569C46.3921 27.6541 48.4696 26.1244 50.6878 24.7684C51.5134 24.2611 52.4913 24.1473 53.4172 23.9139C53.6448 23.856 53.8763 23.8232 54.102 23.7808C54.1734 23.9467 54.0403 23.9891 53.9766 24.0508C50.0551 27.7794 47.5128 32.322 46.0565 37.4992C45.4022 39.8269 45.014 42.2212 44.8991 44.6362C44.6349 50.1221 45.6591 55.3379 48.2747 60.1891C50.5605 64.4327 53.6911 67.87 58.0659 70.0362C63.3299 72.6441 68.6846 72.6653 74.0759 70.4664C74.8147 70.1655 75.5226 69.7835 76.244 69.4402L76.3308 69.5193ZM39.4519 55.7449C39.4885 55.8529 39.5252 55.9609 39.5637 56.067C40.2022 57.8609 40.8966 59.6297 42.0115 61.1979C42.0713 61.2847 42.1311 61.3696 42.2044 61.4545C42.2777 61.5393 42.3819 61.63 42.5073 61.5683C42.6326 61.5065 42.5786 61.3754 42.5458 61.2867C42.4959 61.1374 42.4265 60.9953 42.3395 60.8642C41.525 59.6843 40.9237 58.3708 40.5629 56.9832C40.2871 55.9706 40.0074 54.9598 39.7065 53.9548C39.6332 53.7118 39.502 53.3935 39.2185 53.3955C38.9349 53.3974 38.8539 53.733 38.7806 53.9741C38.5472 54.7457 38.5877 55.5173 38.6938 56.3158C38.968 58.3955 39.7879 60.3654 41.0702 62.0254C41.1425 62.1525 41.2583 62.249 41.3962 62.2974C41.4849 62.3186 41.5756 62.3553 41.6489 62.2665C41.7222 62.1778 41.6489 62.1219 41.6335 62.0486C41.5602 61.7997 41.3538 61.6396 41.2245 61.4275C40.3527 59.9827 39.9187 58.374 39.5001 56.7614C39.3923 56.4332 39.3756 56.0818 39.4519 55.7449ZM38.742 62.0852C38.6147 62.0737 38.5684 62.1605 38.5491 62.2473C38.5186 62.4023 38.5259 62.5624 38.5703 62.7141C38.7372 63.4303 39.02 64.1144 39.4075 64.7394C40.1636 65.9604 40.9969 67.1178 42.1658 67.9877C42.3587 68.1324 42.6211 68.3735 42.8178 68.1401C42.9856 67.9472 42.6828 67.7543 42.5362 67.6154C41.5535 66.6287 40.7227 65.5015 40.071 64.2707C39.7451 63.6727 39.4326 63.067 39.1182 62.4633C39.0394 62.2982 38.9067 62.1648 38.742 62.0852ZM57.9193 77.8425C58.0678 77.829 58.2376 77.8194 58.4073 77.7982C58.4993 77.7899 58.5896 77.7685 58.6754 77.7345C58.7777 77.6882 58.9262 77.6458 58.8992 77.5011C58.8722 77.3565 58.7333 77.4008 58.6349 77.3873C56.6575 77.0894 54.7637 76.3832 53.0739 75.3137C52.9838 75.2602 52.8881 75.2168 52.7884 75.1845C52.6765 75.1479 52.5454 75.1131 52.4605 75.2231C52.4266 75.2725 52.4085 75.331 52.4085 75.3909C52.4085 75.4508 52.4266 75.5093 52.4605 75.5587C52.6435 75.8958 52.9158 76.1761 53.2475 76.3689C54.6613 77.2337 56.2652 77.7396 57.9193 77.8425Z" fill="#F8F2EA"/>
<path d="M57.4642 68.5548C51.4672 65.2641 46.5234 57.6854 45.8386 48.2144C46.018 48.361 45.9775 48.5597 46.0026 48.714C46.29 50.4963 46.8629 52.2015 47.3297 53.9394C48.0453 56.5917 49.411 58.916 50.7091 61.2847C51.5386 62.797 52.7422 64.0199 53.8726 65.2988C54.8486 66.4021 56.0619 67.2277 57.1517 68.1922C57.287 68.2823 57.3951 68.4077 57.4642 68.5548Z" fill="#F8F2EA"/>
<path d="M41.4021 75.8558C35.9742 70.9621 32.722 64.861 31.3602 57.7066C31.231 57.913 31.4721 58.0326 31.5164 58.1985C31.7616 59.2691 32.0623 60.3263 32.4172 61.3658C33.5746 64.5022 35.0116 67.5016 37.0756 70.1751C37.9243 71.2746 38.6418 72.4763 39.5484 73.5391C39.8718 73.9529 40.2278 74.3399 40.6132 74.6965C40.9737 75.0067 41.2458 75.4066 41.4021 75.8558Z" fill="#F8F2EA"/>
<path d="M39.3652 31.6971C37.0228 34.5967 35.2338 37.9026 34.0877 41.4497C33.0962 44.4759 32.5466 47.6294 32.4558 50.8126C32.4682 50.9623 32.4353 51.1121 32.3613 51.2428C32.3613 50.8107 32.3613 50.3786 32.3613 49.9466C32.3613 49.5145 32.3806 49.0515 32.4076 48.5963C32.5967 44.8851 33.5185 41.248 35.1197 37.8947C36.2035 35.6139 37.615 33.5039 39.3093 31.6315L39.3652 31.6971Z" fill="#F8F2EA"/>
<path d="M54.8815 65.2834C57.9407 67.9607 61.4224 69.7604 65.4905 70.3333C63.7545 70.6342 62.2113 70.3159 60.5023 69.5289C58.3111 68.522 56.6098 66.8728 54.7908 65.3683C54.7905 65.3565 54.7926 65.3449 54.7972 65.334C54.8017 65.3232 54.8085 65.3134 54.817 65.3054C54.8256 65.2974 54.8358 65.2913 54.8469 65.2875C54.858 65.2837 54.8698 65.2823 54.8815 65.2834Z" fill="#F8F2EA"/>
<path d="M53.2205 26.8381C52.4559 27.9056 51.7477 29.0124 51.0987 30.1539C49.1574 33.7172 47.966 37.6401 47.5977 41.6811C47.5302 42.4006 47.4916 43.1201 47.4395 43.8396C47.4308 43.8371 47.4214 43.8377 47.413 43.8412C47.4046 43.8447 47.3977 43.8509 47.3932 43.8589C47.328 40.6654 47.8154 37.4847 48.8341 34.4573C49.7853 31.6553 51.2535 29.0565 53.1626 26.7957C53.1809 26.8111 53.2003 26.8253 53.2205 26.8381Z" fill="#F8F2EA"/>
<path d="M49.8044 80.4022C52.285 80.6993 54.6171 81.6907 57.1208 81.8123C56.4071 81.9762 55.7108 81.8952 55.0087 81.7737C53.3874 81.5136 51.7878 81.1332 50.223 80.6356C50.0745 80.5874 49.9105 80.5739 49.8044 80.4022Z" fill="#F8F2EA"/>
<path d="M72.4712 78.1782C70.6992 79.3857 68.7781 80.3583 66.7559 81.0716C67.2998 80.4485 67.9672 80.3116 68.5729 80.0608C69.7717 79.5691 70.9323 78.9888 72.0449 78.3248C72.1026 78.2731 72.17 78.2335 72.2432 78.2083C72.3165 78.1831 72.394 78.1729 72.4712 78.1782Z" fill="#F8F2EA"/>
<path d="M44.444 78.1608C43.7916 77.7374 43.1954 77.2331 42.6694 76.6601C43.4198 76.961 43.9232 77.5802 44.5 78.1068C44.4795 78.1228 44.4607 78.1409 44.444 78.1608Z" fill="#F8F2EA"/>
<path d="M47.4012 43.857C47.4056 43.849 47.4126 43.8428 47.421 43.8393C47.4294 43.8358 47.4387 43.8352 47.4475 43.8377C47.5573 44.1803 47.5805 44.5448 47.515 44.8986C47.3665 44.5725 47.3266 44.2074 47.4012 43.857Z" fill="#585858"/>
<path d="M54.7949 65.3687C54.6412 65.2855 54.5151 65.1594 54.4319 65.0057L54.5091 64.9362C54.6611 65.0181 54.7895 65.1378 54.8818 65.2838C54.8704 65.2832 54.859 65.285 54.8484 65.2891C54.8377 65.2932 54.828 65.2994 54.8199 65.3073C54.8117 65.3153 54.8053 65.3249 54.801 65.3354C54.7967 65.346 54.7946 65.3573 54.7949 65.3687Z" fill="#585858"/>
<path d="M48.0671 79.9087C47.9474 79.8662 47.8257 79.8276 47.7079 79.7793C47.6647 79.7568 47.6316 79.7189 47.6152 79.6731C47.7876 79.6878 47.9475 79.7688 48.0613 79.899L48.0671 79.9087Z" fill="#F8F2EA"/>
<path d="M39.3113 31.6415C39.3557 31.4619 39.5353 31.4387 39.6531 31.3422V31.3286L39.3596 31.6975L39.3113 31.6415Z" fill="#F8F2EA"/>
<path d="M47.2245 79.47C47.2016 79.47 47.1787 79.4891 47.1616 79.4834C47.1444 79.4776 47.1367 79.4509 47.1272 79.4337C47.1482 79.4337 47.173 79.4147 47.1921 79.4204C47.2112 79.4261 47.2131 79.4528 47.2245 79.47Z" fill="#F8F2EA"/>
<path d="M53.3346 26.7205L53.2206 26.8365C53.203 26.8233 53.1863 26.8091 53.1704 26.794C53.211 26.7534 53.2516 26.7128 53.2941 26.6742C53.3065 26.6906 53.32 26.7061 53.3346 26.7205Z" fill="#F8F2EA"/>
<path d="M76.2539 69.4519C76.2925 69.3862 76.3602 69.363 76.4065 69.4171C76.4529 69.4712 76.3776 69.4982 76.3312 69.5195L76.2539 69.4519Z" fill="#F8F2EA"/>
<path d="M81.9133 65.0849L82.008 64.9883C82.0428 65.052 82.0408 65.1042 81.9636 65.1332L81.9133 65.0849Z" fill="#F8F2EA"/>
<path d="M44.5697 78.273L44.4441 78.1609C44.4608 78.141 44.4796 78.1228 44.5001 78.1068L44.6122 78.2285L44.5697 78.273Z" fill="#F8F2EA"/>
<path d="M47.3645 79.5806C47.4186 79.4936 47.4688 79.5806 47.5191 79.5806C47.5229 79.601 47.5229 79.622 47.5191 79.6424C47.4534 79.6424 47.3916 79.6424 47.3722 79.5651L47.3645 79.5806Z" fill="#F8F2EA"/>
<path d="M48.0608 79.8988L48.107 79.9412L48.1244 79.8891L48.0666 79.9065L48.0608 79.8988Z" fill="#F8F2EA"/>
<path d="M54.1234 64.7069C54.0848 64.6721 53.9785 64.6682 54.0384 64.5871C54.0983 64.506 54.1485 64.5697 54.1911 64.6219L54.1234 64.7069Z" fill="#585858"/>
<path d="M53.3748 26.5967L53.4229 26.5199L53.4478 26.5717L53.3652 26.589L53.3748 26.5967Z" fill="#F8F2EA"/>
<path d="M53.2939 26.6743C53.2939 26.6202 53.3191 26.5931 53.3751 26.597H53.3654C53.4099 26.655 53.3654 26.6898 53.3345 26.7284C53.3196 26.7114 53.306 26.6934 53.2939 26.6743Z" fill="#F8F2EA"/>
<path d="M81.9636 65.133C81.9521 65.1716 81.9385 65.2083 81.9269 65.245L81.8535 65.1832L81.9153 65.0847L81.9636 65.133Z" fill="#F8F2EA"/>
<path d="M57.5162 68.5201C57.5256 68.5357 57.5327 68.5525 57.5374 68.5701C57.5374 68.5701 57.522 68.5874 57.5143 68.595C57.5049 68.5795 57.4978 68.5627 57.4932 68.5451C57.4932 68.5451 57.5085 68.5278 57.5162 68.5201Z" fill="#F8F2EA"/>
<path d="M72.5416 78.116C72.5322 78.116 72.5246 78.133 72.517 78.133C72.5095 78.133 72.5019 78.1198 72.4943 78.1122C72.4868 78.1046 72.5114 78.0933 72.5189 78.0933C72.5265 78.0933 72.5284 78.1084 72.5416 78.116Z" fill="#F8F2EA"/>
<path d="M54.4322 65.0058L54.3511 64.9247L54.4284 64.859L54.5095 64.9363L54.4322 65.0058Z" fill="#585858"/>
<path d="M44.6115 78.2283C44.6349 78.2463 44.6572 78.2655 44.6785 78.2858C44.6364 78.3548 44.6038 78.2973 44.5693 78.2724L44.6115 78.2283Z" fill="#F8F2EA"/>
<path d="M54.3492 64.7799L54.4284 64.8591L54.3511 64.9248L54.2642 64.8495L54.3492 64.7799Z" fill="#585858"/>
<path d="M54.2643 64.8496L54.187 64.7685L54.2682 64.7047L54.3493 64.7801L54.2643 64.8496Z" fill="#585858"/>
<path d="M47.3747 79.5733L47.3047 79.517C47.3163 79.517 47.3319 79.5014 47.3416 79.5053C47.3863 79.517 47.396 79.5442 47.3649 79.5811L47.3747 79.5733Z" fill="#F8F2EA"/>
<path d="M54.2043 23.7519C54.2139 23.7663 54.2216 23.7818 54.2274 23.7981C54.2274 23.7981 54.212 23.8135 54.2023 23.8212C54.1933 23.8061 54.1862 23.7899 54.1812 23.7731C54.1812 23.7731 54.1927 23.7673 54.2043 23.7519Z" fill="#F8F2EA"/>
<path d="M54.1909 64.6218L54.2682 64.7048L54.1871 64.7686L54.1233 64.7068C54.1465 64.6797 54.1677 64.6449 54.1909 64.6218Z" fill="#585858"/>
<path d="M39.4521 55.7449C39.3717 56.0828 39.385 56.4363 39.4907 56.7672C39.9093 58.3798 40.3433 59.9885 41.2151 61.4333C41.3444 61.6454 41.5508 61.8055 41.6241 62.0544C41.6472 62.1277 41.7051 62.1952 41.6395 62.2723C41.5739 62.3495 41.4755 62.3244 41.3868 62.3032C41.2489 62.2548 41.1331 62.1582 41.0608 62.0312C39.7785 60.3712 38.9586 58.4012 38.6844 56.3216C38.5764 55.5327 38.5378 54.7515 38.7712 53.9799C38.8445 53.733 38.912 53.4012 39.2091 53.4012C39.5061 53.4012 39.6238 53.7176 39.6971 53.9606C39.998 54.9656 40.2758 55.9763 40.5535 56.989C40.9143 58.3766 41.5156 59.6901 42.3301 60.87C42.4171 61.0011 42.4865 61.1432 42.5364 61.2924C42.5692 61.3812 42.6232 61.5104 42.4979 61.5741C42.3725 61.6377 42.2703 61.5644 42.195 61.4603C42.1198 61.3561 42.0716 61.2905 42.0021 61.2037C40.8872 59.6355 40.1928 57.8667 39.5543 56.0728C39.5254 55.9648 39.4888 55.8529 39.4521 55.7449Z" fill="#050404"/>
<path d="M38.7421 62.0852C38.9067 62.1674 39.0381 62.3036 39.1144 62.471C39.4288 63.0747 39.7413 63.6804 40.0673 64.2784C40.7189 65.5092 41.5497 66.6364 42.5325 67.6231C42.679 67.7659 42.9819 67.9491 42.8141 68.1478C42.6212 68.3812 42.355 68.1478 42.1621 67.9954C40.9932 67.1255 40.1599 65.9681 39.4037 64.7471C39.0163 64.1221 38.7335 63.438 38.5666 62.7217C38.5221 62.5701 38.5149 62.41 38.5454 62.2549C38.5685 62.1604 38.6148 62.0736 38.7421 62.0852Z" fill="#050404"/>
<path d="M57.9195 77.8426C56.2674 77.7387 54.6656 77.2328 53.2535 76.3689C52.9218 76.1761 52.6495 75.8959 52.4665 75.5587C52.4327 75.5093 52.4146 75.4508 52.4146 75.3909C52.4146 75.331 52.4327 75.2725 52.4665 75.2231C52.5514 75.1132 52.6825 75.1479 52.7944 75.1845C52.8941 75.2169 52.9898 75.2602 53.0799 75.3138C54.7697 76.3832 56.6635 77.0894 58.641 77.3874C58.7393 77.4009 58.884 77.3777 58.9052 77.5012C58.9264 77.6246 58.7837 77.694 58.6815 77.7346C58.5956 77.7685 58.5053 77.7899 58.4133 77.7982C58.2378 77.8194 58.0623 77.8291 57.9195 77.8426Z" fill="#050404"/>
<defs>
<filter id="filter0_d_12079_1576" x="0" y="0.0239258" width="119.827" height="118" filterUnits="userSpaceOnUse" color-interpolation-filters="sRGB">
<feFlood flood-opacity="0" result="BackgroundImageFix"/>
<feColorMatrix in="SourceAlpha" type="matrix" values="0 0 0 0 0 0 0 0 0 0 0 0 0 0 0 0 0 0 127 0" result="hardAlpha"/>
<feOffset dx="5" dy="4"/>
<feGaussianBlur stdDeviation="2"/>
<feComposite in2="hardAlpha" operator="out"/>
<feColorMatrix type="matrix" values="0 0 0 0 0 0 0 0 0 0 0 0 0 0 0 0 0 0 0.25 0"/>
<feBlend mode="normal" in2="BackgroundImageFix" result="effect1_dropShadow_12079_1576"/>
<feBlend mode="normal" in="SourceGraphic" in2="effect1_dropShadow_12079_1576" result="shape"/>
</filter>
</defs>
</svg>
