<svg width="123" height="123" viewBox="0 0 123 123" fill="none" xmlns="http://www.w3.org/2000/svg">
    <g filter="url(#filter0_d_12127_19913)">
    <path d="M0 57.4024C0.208486 42.8257 5.02958 29.9913 14.7848 19.1347C22.7356 10.288 32.5757 4.60566 44.0212 1.71508C47.5513 0.823752 51.1392 0.30609 54.773 0.0978353C62.2867 -0.334144 69.599 0.655958 76.6899 3.23594C83.9469 5.8766 90.3593 9.90008 95.9566 15.2552C100.72 19.8118 104.434 25.1336 107.452 31.0052C110.559 37.0529 112.578 43.4196 113.484 50.1634C113.89 53.1873 114.073 56.2243 113.974 59.2707C113.515 73.4547 108.635 85.869 99.1193 96.3186C91.0566 105.171 81.1353 110.86 69.4883 113.428C66.1478 114.164 62.7673 114.626 59.3443 114.702C44.0424 115.044 30.5497 110.217 19.0441 100.016C9.90721 91.9143 4.10965 81.7408 1.39815 69.7763C0.557141 66.0681 0.10601 62.3053 0.0541828 58.4972C0.0494713 58.1521 0.021202 57.8082 0.00117789 57.4036L0 57.4024Z" fill="#181818"/>
    </g>
    <path d="M59.5084 109.212C51.6 109.357 44.2241 108.043 37.1509 105.12C32.0765 103.023 27.3355 100.337 23.2094 96.6501C16.4259 90.5905 11.4659 83.2599 8.34093 74.6691C6.97576 70.9182 6.06172 67.0542 5.57525 63.0914C5.09467 59.1857 4.94979 55.2634 5.47866 51.3589C6.19011 46.1085 7.71429 41.0854 9.99233 36.3062C14.4848 26.8812 21.1128 19.3507 29.8503 13.7624C35.6361 10.0626 41.9331 7.59923 48.6824 6.3509C52.0052 5.73565 55.3563 5.44647 58.7321 5.47861C63.962 5.52859 69.0987 6.25926 74.0647 7.92768C77.523 9.08915 80.7433 10.8004 83.7917 12.8187C93.6848 19.3698 100.701 28.2926 105.113 39.3372C107.027 44.1295 108.219 49.1074 108.696 54.2578C108.927 56.7449 109.056 59.2381 108.849 61.7288C108.603 64.6872 108.014 67.5897 107.216 70.4469C104.849 78.9187 100.667 86.3623 94.7084 92.7754C88.4785 99.48 81.0319 104.302 72.4003 107.214C69.8078 108.089 67.1034 108.522 64.3895 108.853C62.6769 109.061 60.9572 109.154 59.5084 109.213V109.212Z" fill="#F8F2EA"/>
    <path d="M58.7706 104.038C51.7178 104.168 45.1398 102.989 38.8318 100.366C34.3064 98.484 30.0783 96.0738 26.3985 92.7656C20.3489 87.3282 15.9254 80.7502 13.1385 73.0414C11.921 69.6756 11.1059 66.2083 10.672 62.6523C10.2435 59.1476 10.1143 55.628 10.5859 52.1244C11.2204 47.413 12.5797 42.9057 14.6113 38.6172C18.6177 30.1598 24.5287 23.4025 32.321 18.3878C37.4809 15.0679 43.0967 12.8575 49.1158 11.7373C52.0792 11.1852 55.0677 10.9257 58.0783 10.9546C62.7424 10.9994 67.3235 11.6551 71.7522 13.1522C74.8364 14.1944 77.7083 15.73 80.4269 17.541C89.2498 23.4196 95.5074 31.4263 99.4413 41.337C101.148 45.6372 102.211 50.104 102.637 54.7257C102.843 56.9575 102.958 59.1946 102.773 61.4296C102.554 64.0843 102.029 66.6888 101.317 69.2527C99.206 76.8547 95.4769 83.5341 90.1626 89.2887C84.6067 95.305 77.9657 99.6319 70.2679 102.245C67.9558 103.03 65.544 103.419 63.1237 103.715C61.5963 103.902 60.0627 103.986 58.7706 104.039V104.038Z" fill="#181818"/>
    <path d="M14.416 22.4113C15.6186 20.5811 16.9791 18.8722 18.4326 17.2442C19.2394 16.341 20.1994 15.5913 21.1877 14.7714C19.0486 17.493 16.7258 19.9527 14.5161 22.5125C14.4289 22.5327 14.383 22.5125 14.416 22.4113Z" fill="#F8F2EA"/>
    <path d="M89.8689 16.56C92.4732 18.7032 94.8372 21.088 96.9362 23.7382C96.9539 23.8251 96.9291 23.8691 96.8337 23.837C94.5898 21.3332 92.1752 19.0007 89.7581 16.6706C89.7417 16.5802 89.7723 16.5362 89.8677 16.56H89.8689Z" fill="#F8F2EA"/>
    <path d="M111.282 53.5126C111.566 55.738 111.714 57.9693 111.499 60.2089C111.419 61.0491 111.291 61.8845 111.185 62.7222C110.939 62.6056 111.103 62.414 111.101 62.2522C111.231 60.172 111.351 58.0918 111.281 56.0057C111.254 55.2072 111.218 54.4087 111.185 53.6102C111.154 53.5138 111.195 53.49 111.282 53.5114V53.5126Z" fill="#F8F2EA"/>
    <path d="M62.3871 110.391C61.1774 110.549 59.9689 110.712 58.758 110.865C57.6202 111.009 56.4788 111.129 55.3421 111.288C55.0418 111.331 54.7555 111.284 54.4634 111.277C54.3774 111.274 54.2161 111.352 54.2361 111.155C54.249 111.03 54.3503 110.981 54.4717 110.973C54.9051 110.945 55.3374 110.899 55.772 110.884C57.7262 110.815 59.6661 110.589 61.6038 110.338C61.8617 110.304 62.122 110.263 62.3871 110.39V110.391Z" fill="#F8F2EA"/>
    <path d="M34.3862 9.14847C36.7232 7.82397 39.278 7.07901 41.8164 6.2924C41.9177 6.25789 41.9424 6.3043 41.9247 6.39713C39.4158 7.27061 36.9175 8.17622 34.484 9.24962C34.3874 9.27818 34.3639 9.23653 34.3862 9.14847Z" fill="#F8F2EA"/>
    <path d="M87.2354 100.399C89.2766 98.5923 91.3662 96.8382 93.2579 94.8604C92.8009 95.7624 88.5204 99.7204 87.2354 100.399Z" fill="#F8F2EA"/>
    <path d="M96.3667 18.697C97.2595 19.3599 100.688 23.4274 101.167 24.352C99.4422 22.5765 98.0864 20.4797 96.3667 18.697Z" fill="#F8F2EA"/>
    <path d="M87.5099 13.1925C86.2732 12.4666 85.0376 11.7395 83.8008 11.0135C85.1636 11.5169 86.6053 11.8787 87.5099 13.1925Z" fill="#F8F2EA"/>
    <path d="M14.1333 25.4185C14.9802 24.1869 15.9367 23.0397 16.886 21.8889C16.952 21.808 17.0085 21.6176 17.1652 21.7366C17.3384 21.8687 17.1852 21.9746 17.0981 22.0793C16.1428 23.2265 15.1875 24.3749 14.2334 25.5233C14.1498 25.5375 14.1027 25.5149 14.1345 25.4185H14.1333Z" fill="#F8F2EA"/>
    <path d="M110.571 67.2852C110.325 68.9393 109.943 70.5614 109.426 72.1512C109.398 72.1857 109.368 72.1869 109.336 72.1548C109.75 70.4376 110.17 68.7228 110.468 66.9794C110.691 67.0163 110.565 67.1733 110.571 67.284V67.2852Z" fill="#F8F2EA"/>
    <path d="M96.8364 23.8372C96.8706 23.8039 96.9047 23.7717 96.9389 23.7384C98.0815 25.0641 99.0779 26.4981 100.024 27.9701C100.056 28.063 100.012 28.0784 99.9343 28.0594C98.9802 26.5933 97.8977 25.2236 96.8364 23.8372Z" fill="#F8F2EA"/>
    <path d="M110.571 67.285C110.525 67.1874 110.591 67.0505 110.469 66.9803C110.68 65.4047 110.89 63.8291 111.101 62.2535C111.16 62.4047 111.069 62.5832 111.186 62.7236C110.981 64.2445 110.776 65.7641 110.572 67.285H110.571Z" fill="#F8F2EA"/>
    <path d="M108.879 73.95C108.622 75.2602 108.077 76.4717 107.622 77.7141C107.542 77.933 107.449 78.1472 107.362 78.3638C107.284 78.3745 107.229 78.3662 107.28 78.2662C107.809 76.8084 108.365 75.359 108.806 73.8703C108.841 73.8572 108.876 73.8453 108.9 73.8869C108.909 73.9036 108.897 73.9274 108.88 73.95H108.879Z" fill="#F8F2EA"/>
    <path d="M109.688 42.2787C110.123 43.6436 110.541 45.0134 110.584 46.4604C110.285 45.0669 109.987 43.6734 109.688 42.2787Z" fill="#F8F2EA"/>
    <path d="M53.2154 3.86718C54.2331 3.76722 55.2461 3.60537 56.2685 3.578C56.2732 3.63512 56.2791 3.69106 56.2838 3.74818C55.2932 3.82196 54.3026 3.89574 53.3108 3.96952C53.2166 3.99451 53.1895 3.95524 53.2142 3.86599L53.2154 3.86718Z" fill="#F8F2EA"/>
    <path d="M2.78358 57.021V59.833C2.73442 59.833 2.68527 59.8307 2.63611 59.8295C2.42777 58.8179 2.79295 57.8255 2.78358 57.021Z" fill="#F8F2EA"/>
    <path d="M5.6838 39.844C5.49769 40.3557 5.30687 40.8674 5.12666 41.3815C5.07954 41.5159 5.023 41.6242 4.86752 41.5612C4.66728 41.4791 4.81923 41.3624 4.86399 41.2696C5.09367 40.7912 5.32925 40.3176 5.56365 39.8416C5.60488 39.8023 5.64493 39.8035 5.68497 39.8451L5.6838 39.844Z" fill="#F8F2EA"/>
    <path d="M44.4319 4.87618C43.5273 5.10348 42.6239 5.33077 41.7192 5.55926C42.5355 5.09872 43.4354 4.93926 44.3353 4.77741C44.4272 4.75123 44.4543 4.78931 44.4319 4.87737V4.87618Z" fill="#F8F2EA"/>
    <path d="M4.8319 71.7831C4.39844 70.9001 4.27594 69.9291 4.1499 68.958C4.37723 69.8993 4.60457 70.8418 4.8319 71.7831Z" fill="#F8F2EA"/>
    <path d="M14.1334 25.4186C14.1664 25.4531 14.1994 25.4888 14.2324 25.5233C13.8189 26.0981 13.4055 26.6741 12.992 27.2488C12.9567 27.225 12.9225 27.2012 12.8872 27.1774C13.2865 26.5812 13.6658 25.9708 14.1334 25.4186Z" fill="#F8F2EA"/>
    <path d="M21.6519 98.3007C22.2055 98.7445 22.7591 99.1884 23.3127 99.6323C22.4469 99.2289 21.911 98.7969 21.6519 98.3007Z" fill="#F8F2EA"/>
    <path d="M64.7539 3.03426C64.1249 2.98666 63.4948 2.93787 62.8198 2.8867C63.5136 2.52017 64.1308 2.95096 64.7657 2.91764C64.761 2.95572 64.7575 2.99499 64.7527 3.03307L64.7539 3.03426Z" fill="#F8F2EA"/>
    <path d="M76.2935 7.79553C77.0202 7.88954 77.6504 8.17158 78.224 8.59523C77.5809 8.32866 76.9366 8.0621 76.2935 7.79553Z" fill="#F8F2EA"/>
    <path d="M41.9248 6.39738C41.8883 6.36287 41.8529 6.32717 41.8164 6.29266C42.3441 6.04751 42.9083 5.9416 43.4631 5.80237C43.4749 5.84045 43.4867 5.87853 43.4984 5.91661C42.9731 6.07726 42.4489 6.23673 41.9236 6.39738H41.9248Z" fill="#F8F2EA"/>
    <path d="M67.9447 109.934C68.3935 109.8 68.8423 109.664 69.291 109.53C69.0237 109.999 68.5313 109.892 68.1391 110.037C68.0425 110.063 67.9329 110.116 67.9447 109.934Z" fill="#F8F2EA"/>
    <path d="M59.2563 111.944C59.976 111.931 60.6863 111.725 61.4131 111.863C60.6934 111.876 59.9855 112.113 59.2563 111.944Z" fill="#F8F2EA"/>
    <path d="M20.0337 95.4219C20.4424 95.8098 20.8523 96.199 21.261 96.5869C21.2351 96.6143 21.208 96.6428 21.1821 96.6702C20.7298 96.3263 20.3341 95.9241 20.0337 95.4219Z" fill="#F8F2EA"/>
    <path d="M22.4981 97.8067C22.0635 97.5056 21.6701 97.1593 21.3379 96.744C21.7926 97.0189 22.1895 97.364 22.5641 97.7377C22.5735 97.7901 22.5511 97.8139 22.4981 97.8067Z" fill="#F8F2EA"/>
    <path d="M7.20876 79.6281C6.92136 79.1532 6.7329 78.6403 6.65869 78.0798C6.866 78.5749 7.07331 79.0711 7.28062 79.5662C7.28062 79.615 7.25706 79.6352 7.20994 79.6292L7.20876 79.6281Z" fill="#F8F2EA"/>
    <path d="M89.8694 16.5601C89.8329 16.597 89.7964 16.6338 89.7599 16.6707C89.4784 16.4113 89.1968 16.1519 88.9165 15.8925C89.3064 16.0222 89.6068 16.2661 89.8706 16.5601H89.8694Z" fill="#F8F2EA"/>
    <path d="M99.9336 28.0595C99.963 28.0297 99.9937 28 100.023 27.9702C100.331 28.3153 100.541 28.7176 100.689 29.165C100.437 28.7961 100.186 28.4272 99.9336 28.0595Z" fill="#F8F2EA"/>
    <path d="M44.4311 4.87645C44.3993 4.84312 44.3663 4.8098 44.3345 4.77648C44.7903 4.62416 45.2532 4.50754 45.7362 4.50159C45.7468 4.51349 45.7562 4.52658 45.7668 4.53848C45.3392 4.72412 44.8798 4.77648 44.4311 4.87526V4.87645Z" fill="#F8F2EA"/>
    <path d="M29.3257 102.568C29.6626 102.767 30.0006 102.965 30.3375 103.163C29.9288 103.096 29.5848 102.903 29.3257 102.568Z" fill="#F8F2EA"/>
    <path d="M67.9451 109.934C67.9687 110.048 68.0747 110.002 68.1395 110.037C67.7366 110.132 67.335 110.228 66.9321 110.323C67.2407 110.097 67.5894 110.004 67.9451 109.934Z" fill="#F8F2EA"/>
    <path d="M111.281 53.5127C111.249 53.5461 111.218 53.5782 111.185 53.6115C111.061 53.2652 111.095 52.9118 111.179 52.5536L111.281 53.5127Z" fill="#F8F2EA"/>
    <path d="M23.9318 98.9431C23.6208 98.7562 23.3252 98.5492 23.0778 98.2802C23.0754 98.2338 23.099 98.2171 23.1426 98.2279C23.4512 98.3635 23.6703 98.6194 23.9294 98.8217C23.9706 98.861 23.9718 98.9014 23.9318 98.9431Z" fill="#F8F2EA"/>
    <path d="M34.3864 9.14865C34.4194 9.18197 34.4512 9.21648 34.4842 9.2498C34.2357 9.42474 33.96 9.53422 33.6597 9.58182C33.8729 9.38309 34.1132 9.2379 34.3852 9.14746L34.3864 9.14865Z" fill="#F8F2EA"/>
    <path d="M53.2159 3.86719C53.2477 3.9017 53.2807 3.93621 53.3125 3.97072C53.0027 4.13018 52.68 4.05283 52.3525 3.97905C52.6399 3.94216 52.9285 3.90408 53.2159 3.86719Z" fill="#F8F2EA"/>
    <path d="M5.68208 39.844C5.64228 39.844 5.60132 39.8417 5.56152 39.8405C5.67974 39.5751 5.79795 39.3097 5.91616 39.0455C5.90797 39.3407 5.86115 39.6167 5.68208 39.844Z" fill="#F8F2EA"/>
    <path d="M7.6665 34.7231C7.80903 34.4292 7.95155 34.134 8.09408 33.8401C8.12941 33.8567 8.16593 33.8734 8.20127 33.8901C8.06581 34.1876 7.981 34.5089 7.6665 34.7231Z" fill="#F8F2EA"/>
    <path d="M108.051 43.512C107.982 43.2311 107.913 42.9503 107.844 42.6694C108.046 42.8777 108.133 43.1252 108.136 43.4013C108.181 43.4965 108.136 43.5215 108.05 43.512H108.051Z" fill="#F8F2EA"/>
    <path d="M107.28 78.2662C107.307 78.2984 107.334 78.3317 107.361 78.3638C107.274 78.6125 107.176 78.8553 106.941 79.1195C107.028 78.7672 107.133 78.509 107.28 78.2662Z" fill="#F8F2EA"/>
    <path d="M14.4163 22.4115C14.4493 22.4448 14.4835 22.4793 14.5164 22.5127C14.4045 22.7697 14.2019 22.9518 13.9946 23.135C14.0783 22.8589 14.2125 22.615 14.4163 22.4115Z" fill="#F8F2EA"/>
    <path d="M7.27921 79.5662C7.42668 79.828 7.56597 80.091 7.5964 80.4027C7.41849 80.1695 7.27336 79.9208 7.20898 79.6292C7.23239 79.6078 7.2558 79.5876 7.27921 79.5662Z" fill="#F8F2EA"/>
    <path d="M23.9316 98.943C23.9316 98.9026 23.9304 98.8621 23.9292 98.8217C24.1624 98.9573 24.3756 99.118 24.537 99.3488C24.312 99.2501 24.0859 99.1549 23.9316 98.9442V98.943Z" fill="#F8F2EA"/>
    <path d="M107.3 40.3989C107.12 40.1978 106.985 39.98 107.033 39.6028C107.144 39.9348 107.223 40.1669 107.3 40.3989Z" fill="#F8F2EA"/>
    <path d="M108.052 43.5117C108.082 43.4748 108.11 43.4379 108.139 43.401C108.256 43.6223 108.29 43.8615 108.254 44.1186C108.187 43.9163 108.119 43.714 108.052 43.5117Z" fill="#F8F2EA"/>
    <path d="M109.335 72.1546C109.366 72.1677 109.395 72.1653 109.424 72.151C109.357 72.3676 109.291 72.5854 109.184 72.9317C109.147 72.5568 109.208 72.3485 109.335 72.1558V72.1546Z" fill="#F8F2EA"/>
    <path d="M45.7363 4.50289C45.9813 4.37794 46.2381 4.3232 46.6091 4.36723C46.2664 4.43744 46.032 4.55763 45.767 4.53978C45.7564 4.52788 45.7469 4.51479 45.7363 4.50289Z" fill="#F8F2EA"/>
    <path d="M23.0771 98.2804C22.8839 98.1222 22.6907 97.9651 22.4976 97.8068C22.5199 97.7842 22.5411 97.7604 22.5635 97.7378C22.7838 97.8687 22.9781 98.0305 23.1419 98.2281C23.1136 98.2364 23.0924 98.2543 23.0771 98.2804Z" fill="#F8F2EA"/>
    <path d="M108.879 73.9503C108.855 73.9241 108.83 73.8968 108.806 73.8706C108.864 73.6635 108.923 73.4565 108.981 73.2494C109.013 73.4969 109.022 73.7385 108.878 73.9503H108.879Z" fill="#F8F2EA"/>
    <path d="M83.8838 97.0911C83.9342 97.2913 83.7473 97.3041 83.6506 97.3978C82.1065 98.7226 80.264 99.498 78.3985 100.184C75.2489 101.332 72.0011 102.181 68.6967 102.721C64.4152 103.457 60.0736 103.771 55.7324 103.66C49.976 103.494 44.3205 102.712 38.8982 100.618C37.2385 99.9793 35.6041 99.2935 34.1335 98.2753C33.8793 98.1281 33.649 97.942 33.4507 97.7237C34.0998 97.779 34.291 97.6704 34.5704 97.0655C34.7304 96.7449 34.847 96.4038 34.9171 96.0516C35.2007 94.4605 35.186 92.8438 35.3036 91.2421C35.5222 88.0057 36.1289 84.8085 37.1104 81.721C38.0197 78.8163 39.6343 76.1899 41.8058 74.0828C43.3562 72.5769 45.0978 71.3138 46.7491 69.9293C48.4004 68.5448 50.1105 67.2327 51.4529 65.5116C51.6084 65.3136 51.6756 65.3966 51.7933 65.5372C52.2804 66.1212 52.8765 66.6019 53.5475 66.9515C56.3752 68.4425 59.3164 68.4873 62.3059 67.5905C63.6653 67.2102 64.8814 66.4261 65.7976 65.3391C66.9299 67.4052 68.5896 68.9282 70.2997 70.4064C71.2073 71.1881 72.1526 71.9315 72.9657 72.8176C74.2913 74.2617 75.3796 75.8911 76.4783 77.5185C79.4594 81.934 81.1632 86.833 82.0183 92.0728C82.2389 93.4211 82.4132 94.7757 82.5729 96.1326C82.6674 96.9292 83.2494 97.336 83.8838 97.0911Z" fill="#F8F2EA"/>
    <path d="M83.8838 97.0911C83.2535 97.336 82.6674 96.9292 82.5728 96.1326C82.4132 94.7757 82.2388 93.4211 82.0182 92.0728C81.1631 86.833 79.4594 81.9297 76.4782 77.5163C75.3795 75.889 74.2912 74.2596 72.9656 72.8154C72.1526 71.9293 71.2072 71.186 70.2996 70.4043C68.5895 68.926 66.9383 67.4031 65.7975 65.337C64.8813 66.4239 63.6653 67.208 62.3059 67.5884C59.3164 68.4936 56.3752 68.451 53.5474 66.9494C52.8765 66.5997 52.2803 66.1191 51.7932 65.5351C51.6755 65.3945 51.6083 65.3114 51.4528 65.5095C50.1146 67.2306 48.4024 68.5448 46.749 69.9271C45.0957 71.3095 43.3561 72.5747 41.8057 74.0806C39.6339 76.1883 38.0194 78.8156 37.1103 81.721C36.1308 84.8002 35.5241 87.9888 35.3036 91.2165C35.1859 92.8183 35.2006 94.4349 34.917 96.0261C34.8469 96.3783 34.7303 96.7193 34.5704 97.0399C34.2868 97.6449 34.0998 97.7535 33.4506 97.6981L33.1607 97.3658C33.1334 97.3126 33.1292 97.2274 33.0325 97.2657C32.9716 96.8589 32.7426 96.5117 32.6586 96.1049C32.3225 94.4754 32.3876 92.8332 32.5115 91.2059C32.7939 87.3281 33.6913 83.5219 35.1691 79.9339C36.1834 77.4281 37.6456 75.1339 39.4822 73.1669C40.9257 71.6402 42.4661 70.2107 44.0935 68.8877C45.7952 67.4968 47.4549 66.0527 49.0075 64.502C50.6881 62.8385 51.8562 60.9321 51.9802 58.4805C51.997 58.1397 51.9507 57.8948 51.6314 57.7393C51.0579 57.4624 50.7112 56.817 50.0264 56.719C48.2974 54.7338 46.9381 52.5357 46.3079 49.9349C46.2812 49.7935 46.2201 49.6609 46.1303 49.5494C46.0404 49.4378 45.9245 49.3507 45.7931 49.2959C45.0092 48.8895 44.3964 48.2096 44.0675 47.3815C43.7386 46.5534 43.7158 45.6327 44.0032 44.7888C44.2007 44.25 44.4801 43.775 45.0137 43.5108C45.1503 43.4448 45.1839 43.4022 45.1356 43.2276C44.8424 42.1246 44.7929 40.9697 44.9906 39.8451C45.4465 36.944 46.9696 34.7331 49.3856 33.1186C50.5243 32.3603 51.831 31.9982 53.0369 31.4146C54.5663 30.6627 55.9466 29.7468 56.8184 28.1983C56.9641 27.9511 57.1391 27.7229 57.3394 27.5188C57.892 26.9373 58.6693 27.1247 58.9109 27.8873C58.9862 28.1354 59.0202 28.3946 59.0117 28.6541C59.0117 28.8671 59.0117 29.0971 59.0117 29.3527C59.2623 29.161 59.4759 28.9242 59.642 28.6541C59.8948 28.2581 60.2567 27.9461 60.6829 27.7568C61.109 27.5675 61.5805 27.5092 62.0391 27.5891C62.2166 27.5962 62.3861 27.6661 62.5182 27.7867C62.6502 27.9074 62.7364 28.071 62.7618 28.2494C62.8878 28.7861 62.7618 29.3144 62.6672 29.8277C62.6378 29.9875 62.5916 30.1004 62.7996 30.2005C63.5055 30.5349 64.1798 30.9353 64.9004 31.2506C66.8689 32.1239 68.3269 33.6149 69.5328 35.3359C71.1036 37.5194 72.1248 40.0588 72.5076 42.7334C72.5093 42.825 72.5389 42.9139 72.5923 42.9878C72.6457 43.0618 72.7203 43.1173 72.8059 43.1466C73.2912 43.3447 73.5644 43.7494 73.7681 44.235C74.4362 45.8283 73.0622 48.084 71.829 48.6356C71.7079 48.6793 71.6006 48.7551 71.5182 48.8551C71.4358 48.9551 71.3813 49.0757 71.3605 49.2043C70.6295 52.2034 69.2387 54.8361 66.8248 56.7637C65.9845 57.4347 65.8185 58.1333 65.9361 59.0663C65.9635 59.2793 65.9803 59.4923 66.0013 59.7053C66.2083 62.1089 67.228 64.3663 68.8878 66.0953C69.9488 67.2242 71.1988 68.1422 72.3101 69.2029C73.6778 70.5001 75.1106 71.7291 76.3396 73.1669C78.1988 75.3416 80.0266 77.5462 81.3438 80.1192C83.3522 84.0363 84.3039 88.243 84.598 92.6159C84.6947 94.0452 84.6716 95.485 84.1338 96.8546C84.0644 96.8546 84.0413 96.8823 84.0476 96.9462C83.9783 96.9462 83.9657 96.9888 83.9594 97.0399C83.9069 97.0399 83.869 97.0676 83.869 97.1315L83.8838 97.0911ZM50.6146 63.731C50.6482 63.731 50.6692 63.7927 50.7196 63.7437C50.7701 63.6948 50.7091 63.6756 50.7049 63.6415C50.7449 63.6649 50.7932 63.699 50.8205 63.6415C50.8205 63.6223 50.7974 63.5861 50.7827 63.5584C50.8646 63.6692 50.8961 63.6117 50.9192 63.518L50.9528 63.4668L50.9781 63.4881L50.9297 63.5307L50.7869 63.5606C50.7869 63.6117 50.768 63.6521 50.7049 63.6479C50.7049 63.7033 50.6797 63.7437 50.6146 63.7374C50.6146 63.7927 50.5957 63.8183 50.539 63.8119C50.5285 63.8758 50.5096 63.9312 50.4297 63.9141L50.457 64.0313L50.5096 63.9887L50.4234 63.9163C50.4654 63.9312 50.4949 63.9908 50.5537 63.9376C50.6125 63.8843 50.5537 63.8524 50.539 63.8119C50.5663 63.8268 50.6041 63.8652 50.6188 63.8566C50.6902 63.814 50.644 63.7714 50.6146 63.731ZM47.6062 66.4105H47.7448L47.7238 66.3253C47.7953 66.4914 47.8814 66.3253 47.9591 66.336L48.5348 65.8035C48.2448 65.8823 47.9654 65.9717 47.9591 66.3402C47.894 66.157 47.8016 66.3402 47.7259 66.3253C47.707 66.3828 47.6923 66.4446 47.6104 66.4148C47.6419 66.4339 47.5873 66.5319 47.6797 66.4914L47.6062 66.4105ZM48.9213 65.3455C48.9549 65.3455 48.9717 65.452 49.0243 65.3668L48.9213 65.3455ZM69.6568 36.7289C69.6568 36.6948 69.6799 36.6288 69.6021 36.6778L69.661 36.7247L69.6841 36.7886L69.7156 36.7523L69.6568 36.7289ZM69.4908 36.4648L69.516 36.5287L69.5454 36.4946L69.4866 36.4691C69.4866 36.435 69.5055 36.3689 69.4299 36.4201L69.4908 36.4648ZM50.2764 64.2549C50.3016 64.2209 50.3793 64.1953 50.3247 64.1421C50.2701 64.0888 50.247 64.157 50.2259 64.1996L50.1419 64.2848C49.6104 64.6788 49.3772 64.9238 49.3016 65.1751C49.2364 65.0643 49.1965 65.1751 49.1482 65.1964C49.1482 65.1964 49.1608 65.2496 49.1734 65.2518C49.2427 65.2646 49.2722 65.2156 49.2953 65.1602C49.6181 64.9141 49.9184 64.6389 50.1923 64.338L50.2764 64.2549ZM45.2742 42.1029L45.1671 41.0784C45.1797 41.4277 45.0242 41.7813 45.1818 42.1242C45.182 42.4513 45.2236 42.777 45.3057 43.0934C45.3331 43.1913 45.3394 43.3617 45.4885 43.3234C45.6377 43.2851 45.541 43.1402 45.5116 43.0465C45.395 42.7429 45.3153 42.426 45.2742 42.1029ZM49.7575 40.5672C49.3918 40.9804 49.1124 41.4644 48.936 41.99C48.6617 42.5366 48.4502 43.1134 48.3058 43.7089L48.4192 43.7537C48.6055 43.2297 48.7911 42.7071 48.9759 42.186L49.8163 40.6247C49.8323 40.6209 49.847 40.6129 49.859 40.6015C49.871 40.5901 49.8799 40.5758 49.8848 40.5599C49.8897 40.544 49.8904 40.527 49.8868 40.5107C49.8833 40.4945 49.8756 40.4794 49.8646 40.4671L49.7575 40.5672ZM52.0684 61.0599C52.3617 60.3748 52.5146 59.6364 52.518 58.8895C52.4085 59.5401 52.249 60.181 52.0411 60.8065C52.0272 60.8482 52.0224 60.8925 52.0271 60.9363C52.0318 60.98 52.0459 61.0223 52.0684 61.0599L51.976 61.0173V61.0578L52.0684 61.0599ZM50.7133 54.8425C50.7344 54.8126 50.8268 54.8765 50.7932 54.7786L50.7154 54.8488C50.8016 54.5996 50.581 54.491 50.4717 54.3483C49.5618 53.2057 48.8312 51.9276 48.3058 50.559C48.0221 49.805 47.8247 49.0233 47.6041 48.2501C47.7703 49.737 48.2366 51.1733 48.9738 52.4696C49.4465 53.3472 50.0936 54.0842 50.707 54.8488L50.7133 54.8425ZM69.3353 43.7111C69.5646 44.5844 69.7262 45.4747 69.8185 46.3736C69.8395 45.4342 69.7786 44.5098 69.4236 43.628C68.0979 38.8994 63.6021 36.173 59.8899 36.2092C59.913 36.271 59.9655 36.2795 60.0243 36.2859C60.997 36.3889 61.9512 36.6261 62.8605 36.9909C66.0202 38.237 68.2576 40.3989 69.329 43.7175L69.3353 43.7111ZM53.6524 58.9299L53.5999 58.8767L53.5852 58.9832C53.7524 60.5363 53.4706 62.1051 52.7743 63.4988C52.7309 63.5619 52.7138 63.6398 52.7268 63.7156C52.7398 63.7914 52.7818 63.8589 52.8436 63.9035C53.2077 64.2458 53.6163 64.536 54.0579 64.7661C55.6062 65.6586 57.31 65.9142 59.0537 65.9526C60.0929 66.0008 61.1289 65.8043 62.0806 65.3786C63.0322 64.9529 63.8737 64.3095 64.5391 63.4988C64.6267 63.4175 64.6857 63.3095 64.7073 63.1911C64.7289 63.0727 64.7119 62.9504 64.6588 62.8427C64.4804 62.3733 64.3467 61.8875 64.2597 61.3922C64.0986 60.4968 63.9871 59.593 63.9256 58.685L63.621 58.817C61.347 59.8298 58.8303 60.1453 56.3815 59.7244C55.4521 59.5348 54.5394 59.2691 53.6524 58.9299ZM58.5138 36.7055C56.8331 36.7374 55.4907 36.8929 54.2239 37.6171C50.2322 39.8962 48.1713 44.0071 48.7995 48.5717C49.1248 50.8515 50.1658 52.9643 51.7684 54.5971C53.3709 56.23 55.4497 57.2959 57.6966 57.637C58.9235 57.8117 60.1672 57.8777 61.3626 57.4794C63.8155 56.6803 65.9272 55.0585 67.35 52.8807C69.766 49.2597 69.8017 44.6738 67.4046 41.3063C65.1546 38.1368 61.997 36.7928 58.5138 36.6948V36.7055ZM46.436 43.1658C46.4654 43.1509 46.4843 43.1466 46.4885 43.1381C46.52 43.0593 46.5515 42.9805 46.5789 42.8995C47.2807 40.7871 48.5225 38.9012 50.1776 37.434C52.6776 35.2251 55.6504 34.2283 58.9088 34.0558C64.0706 33.7831 69.7408 36.9291 71.3185 42.8207C71.3585 42.9677 71.3479 43.1274 71.6022 43.0614C71.8564 42.9954 71.7576 42.8484 71.7282 42.7078C71.4238 41.0076 70.8226 39.376 69.953 37.8898C69.0034 36.2923 67.9467 34.7949 66.5244 33.585C65.2303 32.4838 63.7408 31.7255 62.2176 31.029C61.7491 30.816 61.6693 30.6691 61.7975 30.177C61.8776 29.9157 61.9173 29.6434 61.9151 29.3698C61.8773 28.6839 61.3458 28.3793 60.7533 28.718C60.4055 28.913 60.1009 29.1783 59.8584 29.4976C59.4109 30.0876 59.0054 30.7202 58.3731 31.1441C58.2008 31.2612 58.0327 31.3911 57.8352 31.2442C57.6378 31.0972 57.7596 30.9098 57.8163 30.7372C58.0159 30.0982 58.2785 29.4976 58.3289 28.8202C58.3437 28.6072 58.3962 28.3474 58.1483 28.2494C57.9004 28.1514 57.684 28.309 57.5054 28.4815C57.4403 28.5576 57.3813 28.6388 57.3289 28.7244C56.7472 29.5578 56.0347 30.2888 55.2197 30.8885C53.7134 31.9726 52.0852 32.8459 50.4928 33.7831C48.499 34.9568 47.394 36.8056 46.6608 38.9271C46.2157 40.291 46.138 41.7507 46.436 43.1551V43.1658ZM71.7786 47.4258C71.9425 47.2128 72.1211 46.9998 72.2681 46.7868C72.7366 46.0541 72.6673 45.2724 72.4236 44.4928C72.3354 44.2137 72.0748 44.1861 71.8248 44.1988C71.6715 44.1988 71.6001 44.2798 71.6274 44.4523C71.7744 45.4065 71.7177 46.3927 71.7786 47.4066V47.4258ZM46.1062 44.7356C44.8057 45.3341 44.7469 46.7399 45.9612 47.7517C45.9 46.7376 45.9486 45.7198 46.1062 44.7164V44.7356ZM77.4404 78.019C78.2808 79.6016 79.14 81.1757 79.89 82.803C79.358 81.0744 78.5287 79.4548 77.4404 78.019ZM65.3395 64.5808C64.7965 65.3906 64.0714 66.0579 63.2239 66.5277C64.1009 66.2166 64.8666 65.6479 65.4235 64.8939C65.5139 64.7661 65.434 64.6809 65.3395 64.5808ZM34.0788 92.0195C34.1103 91.5829 34.1292 91.1462 34.1775 90.7117C34.2455 90.36 34.2455 89.9984 34.1775 89.6467C33.9485 90.3198 34.0515 91.1675 34.0788 92.0195ZM53.4697 65.9866C52.9823 65.5905 52.5138 65.1708 52.0306 64.7661C52.3816 65.3075 52.8821 65.732 53.4697 65.9866ZM65.7618 60.5147C65.6777 59.5945 65.6651 58.6722 65.6672 57.7457C65.5183 58.6659 65.5504 59.607 65.7618 60.5147ZM33.8288 90.3901C33.6783 91.2516 33.6683 92.1324 33.7994 92.9972C33.8792 92.1282 33.7132 91.2591 33.8267 90.3901H33.8288ZM59.8794 36.2454C59.5579 36.1006 59.558 36.1006 59.1882 36.2028C59.4056 36.3025 59.6516 36.3176 59.8794 36.2454ZM82.951 87.6125C82.952 87.3537 82.8907 87.0986 82.7724 86.8692C82.7647 87.1288 82.8264 87.3856 82.951 87.6125ZM83.0098 87.8767V87.7979C83.0098 87.7979 82.9867 87.8149 82.9867 87.8256C82.9837 87.8517 82.9837 87.8782 82.9867 87.9044C82.9867 87.9044 82.9993 87.8852 83.0035 87.8767H83.0098ZM77.3669 77.8337L77.2724 77.904C77.2867 77.9229 77.3045 77.9389 77.3249 77.9509C77.3543 77.9615 77.4026 77.9935 77.411 77.9317C77.4089 77.9061 77.3795 77.887 77.3606 77.8337H77.3669ZM69.3584 36.239C69.3584 36.239 69.3374 36.2539 69.3374 36.2624C69.3374 36.271 69.3479 36.2795 69.3542 36.288C69.3605 36.2965 69.3752 36.2731 69.3773 36.2646C69.3795 36.2561 69.3647 36.2475 69.3584 36.239ZM69.7786 36.9462L69.7975 36.9611V36.9355L69.7786 36.9462ZM53.602 66.0164C53.5915 66.0271 53.5747 66.0378 53.5768 66.0441C53.5827 66.0633 53.5905 66.0819 53.5999 66.0995C53.5999 66.0995 53.6251 66.0804 53.623 66.074C53.6168 66.0535 53.6076 66.0341 53.5957 66.0164H53.602Z" fill="#181818"/>
    <path d="M84.1317 96.8439C84.6695 95.4743 84.6926 94.0344 84.596 92.6052C84.3019 88.2323 83.3502 84.0256 81.3418 80.1085C80.0245 77.5354 78.1905 75.3309 76.3375 73.1562C75.1085 71.7184 73.6757 70.4894 72.3081 69.1922C71.1904 68.1272 69.9467 67.2135 68.8858 66.0846C67.2259 64.3555 66.2062 62.0982 65.9992 59.6945C65.9782 59.4815 65.9614 59.2685 65.9341 59.0555C65.8164 58.1226 65.9824 57.424 66.8227 56.753C69.2366 54.8254 70.6274 52.1927 71.3585 49.1936C71.3793 49.065 71.4337 48.9444 71.5161 48.8444C71.5985 48.7443 71.7058 48.6686 71.827 48.6249C73.0602 48.0733 74.4341 45.8176 73.7661 44.2243C73.556 43.7387 73.2892 43.334 72.8039 43.1359C72.7182 43.1065 72.6436 43.0511 72.5902 42.9771C72.5369 42.9032 72.5073 42.8143 72.5056 42.7227C72.1227 40.0481 71.1015 37.5087 69.5307 35.3252C68.3248 33.6041 66.8669 32.1131 64.8984 31.2398C64.1841 30.9246 63.5097 30.5242 62.7975 30.1898C62.5874 30.0896 62.6357 29.9768 62.6651 29.817C62.7639 29.2952 62.8752 28.7754 62.7597 28.2387C62.7343 28.0603 62.6481 27.8967 62.5161 27.776C62.3841 27.6554 62.2146 27.5855 62.037 27.5784C61.5785 27.4985 61.1069 27.5568 60.6808 27.7461C60.2547 27.9354 59.8928 28.2474 59.6399 28.6434C59.4738 28.9134 59.2602 29.1503 59.0097 29.342C59.0097 29.0864 59.0097 28.8649 59.0097 28.6434C59.0182 28.3839 58.9841 28.1247 58.9088 27.8766C58.6672 27.114 57.8899 26.9266 57.3374 27.5081C57.137 27.7122 56.962 27.9404 56.8164 28.1876C55.9445 29.7361 54.5642 30.652 53.0348 31.4039C51.8289 31.9981 50.5138 32.3602 49.3835 33.1079C46.9676 34.7203 45.4444 36.9419 44.9885 39.8344C44.7908 40.959 44.8403 42.1139 45.1335 43.2169C45.1818 43.3915 45.1482 43.4299 45.0117 43.5001C44.478 43.7643 44.1986 44.2393 44.0011 44.7781C43.7137 45.622 43.7365 46.5427 44.0654 47.3708C44.3943 48.1989 45.0071 48.8788 45.7911 49.2852C45.9225 49.34 46.0383 49.4271 46.1282 49.5387C46.2181 49.6502 46.2791 49.7827 46.3058 49.9242C46.936 52.525 48.2953 54.7231 50.0243 56.7083C50.7092 56.8063 51.0558 57.4517 51.6294 57.7286C51.9487 57.884 51.9949 58.129 51.9781 58.4698C51.8541 60.9214 50.6777 62.8278 49.0054 64.4913C47.4465 66.042 45.7932 67.4861 44.0915 68.877C42.4641 70.2 40.9237 71.6295 39.4801 73.1562C37.6436 75.1232 36.1813 77.4174 35.167 79.9232C33.6953 83.5158 32.805 87.3256 32.5305 91.2058C32.4065 92.8374 32.3414 94.4796 32.6775 96.1048C32.7616 96.5116 32.9906 96.8588 33.0515 97.2657C32.749 97.2039 32.6943 96.9249 32.604 96.7033C32.113 95.46 31.8503 94.1361 31.8288 92.7969C31.7321 89.4251 32.0074 86.0831 32.9464 82.8455C34.3057 78.1595 36.749 74.1274 40.4465 70.9516C41.894 69.7077 43.4906 68.6448 44.9528 67.4094C46.6923 65.9376 48.3142 64.3571 49.4781 62.3592C49.9668 61.5321 50.3688 60.6554 50.6777 59.7435C50.7533 59.5305 50.7491 59.39 50.5369 59.243C47.7365 57.3004 46.1545 54.5336 45.3331 51.2619C45.31 51.1448 45.2599 51.0349 45.1868 50.9413C45.1138 50.8476 45.0199 50.7728 44.9129 50.723C42.2826 49.3129 41.6629 46.103 43.5789 43.8495C43.6821 43.6944 43.8177 43.5643 43.9759 43.4682C44.5243 43.236 44.4885 42.8292 44.3961 42.3499C44.1356 40.925 44.0327 39.4893 44.3961 38.0686C44.8793 36.1708 46.0306 34.7118 47.4465 33.4401C48.5791 32.4079 49.9134 31.6291 51.3625 31.1546C52.0348 30.9416 52.6693 30.5966 53.3268 30.3325C54.6651 29.7936 55.497 28.6519 56.4592 27.6657C56.9088 27.2056 57.3206 26.7029 57.9466 26.4729C58.8668 26.1364 59.3626 26.4346 59.5013 27.4058C59.5118 27.4761 59.516 27.5464 59.5328 27.6977C59.7197 27.5123 59.8647 27.3654 60.0139 27.2227C60.3419 26.9248 60.7494 26.7319 61.1853 26.6682C61.6212 26.6046 62.0658 26.673 62.4635 26.8648C62.6354 26.966 62.7842 27.1029 62.9001 27.2667C63.016 27.4304 63.0963 27.6173 63.1357 27.8148C63.27 28.3307 63.3246 28.8646 63.2975 29.3974C63.287 29.6594 63.2975 29.8042 63.5895 29.8852C65.6231 30.4283 67.245 31.6488 68.6316 33.1952C70.548 35.3006 71.9328 37.8454 72.6673 40.6119C72.828 41.2235 72.9327 41.8488 72.9803 42.4799C72.9796 42.5944 73.0093 42.707 73.0662 42.8059C73.1231 42.9049 73.2052 42.9865 73.3039 43.0422C73.4719 43.1444 73.619 43.2829 73.7808 43.4022C74.972 44.2797 75.0749 45.2723 74.4425 46.5972C74.0419 47.4947 73.3828 48.2484 72.5518 48.7591C72.4685 48.8063 72.3968 48.872 72.3423 48.9513C72.2877 49.0307 72.2516 49.1215 72.2366 49.2171C71.495 52.8509 69.8186 55.9202 66.9005 58.227C66.8175 58.2912 66.7525 58.3763 66.712 58.4738C66.6714 58.5713 66.6568 58.6779 66.6694 58.7829C66.6694 61.2793 67.682 63.3432 69.3354 65.1261C70.6883 66.583 72.2303 67.8397 73.6232 69.254C76.43 72.1082 79.2388 74.9539 81.3964 78.3811C82.9069 80.788 83.8229 83.4398 84.5708 86.1641C85.2042 88.4686 85.4875 90.8574 85.4111 93.2485C85.393 94.142 85.2246 95.0259 84.9132 95.862C84.7472 96.256 84.5624 96.6544 84.1317 96.8439Z" fill="#F8F2EA"/>
    <path d="M75.8436 60.3123C76.1587 59.1663 77.2658 58.8468 78.1671 59.0641C79.0684 59.2814 79.4276 60.0056 79.1734 60.9662C78.768 62.5466 77.4465 62.9535 76.249 61.8672C75.9801 61.3858 75.6923 60.9087 75.8436 60.3123ZM77.7343 61.5903C78.0999 61.5392 78.3352 61.2111 78.3436 60.7383C78.3436 60.4443 78.2532 60.2335 77.9108 60.2505C77.4171 60.2313 76.8856 60.6105 76.8835 60.9875C76.8814 61.3645 77.2785 61.6052 77.7343 61.5882V61.5903Z" fill="#181818"/>
    <path d="M30.6503 54.1076C29.9003 54.1076 29.2826 53.4196 29.2868 52.5868C29.2791 52.3957 29.3098 52.2051 29.377 52.0265C29.4443 51.8479 29.5466 51.685 29.6779 51.5477C29.8092 51.4104 29.9666 51.3016 30.1406 51.228C30.3146 51.1543 30.5016 51.1173 30.6902 51.1192C31.3793 51.132 32.0809 51.918 32.0725 52.6699C32.0787 52.8607 32.0461 53.0508 31.9768 53.2284C31.9074 53.4059 31.8028 53.5671 31.6694 53.7019C31.536 53.8368 31.3767 53.9424 31.2014 54.0121C31.0261 54.0819 30.8385 54.1144 30.6503 54.1076ZM31.0494 52.0266C30.7469 52.0266 30.4528 52.3141 30.4591 52.557C30.4654 52.7998 30.7994 53.23 31.02 53.23C31.2406 53.23 31.5872 52.7529 31.5725 52.4995C31.5494 52.1501 31.3015 52.0692 31.0599 52.0266H31.0494Z" fill="#181818"/>
    <path d="M85.0833 44.7718C85.0833 45.6685 84.7178 46.1478 84.0329 46.1435C83.6893 46.1342 83.3626 45.9903 83.1214 45.7421C82.8801 45.4939 82.743 45.1607 82.7388 44.8122C82.7388 44.1945 83.2934 43.6919 83.9993 43.6727C84.1419 43.6718 84.2832 43.6997 84.4151 43.7546C84.547 43.8096 84.6669 43.8905 84.7677 43.9927C84.8685 44.0949 84.9483 44.2164 85.0025 44.3502C85.0567 44.4839 85.0842 44.6272 85.0833 44.7718ZM84.3711 45.398C84.6863 45.0934 84.7052 44.759 84.4132 44.5907C84.2451 44.1242 83.993 44.4374 83.7577 44.5162C83.6692 44.5408 83.593 44.5983 83.5443 44.6772C83.4957 44.7561 83.4781 44.8507 83.4951 44.9422C83.5051 45.0722 83.5494 45.1972 83.6233 45.304C83.6972 45.4107 83.798 45.4954 83.9153 45.5492C83.9549 45.5701 83.9982 45.5827 84.0428 45.5863C84.0873 45.59 84.132 45.5846 84.1745 45.5706C84.2169 45.5565 84.2562 45.534 84.2899 45.5043C84.3237 45.4747 84.3513 45.4386 84.3711 45.398Z" fill="#181818"/>
    <path d="M24.3371 41.794C24.3371 42.433 23.9506 42.9293 23.4275 42.94C23.1495 42.9283 22.8848 42.816 22.6817 42.6232C22.4785 42.4305 22.3503 42.1703 22.3203 41.8899C22.3219 41.6073 22.4294 41.336 22.6209 41.1307C22.8124 40.9255 23.0737 40.8017 23.3518 40.7844C23.4834 40.7795 23.6146 40.8024 23.737 40.8516C23.8594 40.9007 23.9704 40.9751 24.063 41.07C24.1556 41.1649 24.2278 41.2782 24.275 41.4028C24.3222 41.5275 24.3433 41.6607 24.3371 41.794ZM23.9884 41.7514C23.9338 41.483 23.7195 41.4426 23.5325 41.4362C23.272 41.4362 23.1733 41.6492 23.1628 41.8622C23.1561 41.9125 23.1608 41.9638 23.1765 42.012C23.1923 42.0603 23.2187 42.1042 23.2538 42.1406C23.2888 42.1769 23.3315 42.2047 23.3787 42.2218C23.426 42.2389 23.4764 42.2448 23.5262 42.2392C23.7804 42.2115 23.8749 41.9559 23.9821 41.7514H23.9884Z" fill="#181818"/>
    <path d="M62.7829 20.5025C62.6514 20.502 62.5212 20.4749 62.4001 20.4227C62.2791 20.3706 62.1694 20.2945 62.0777 20.1989C61.9859 20.1033 61.9139 19.9901 61.8658 19.866C61.8177 19.7418 61.7946 19.6092 61.7976 19.4759C61.7976 18.9668 62.2955 18.5024 62.8481 18.5046C62.9686 18.4987 63.089 18.5181 63.2017 18.5615C63.3145 18.605 63.4172 18.6716 63.5034 18.7572C63.5896 18.8428 63.6574 18.9455 63.7026 19.0589C63.7478 19.1723 63.7695 19.2939 63.7661 19.4162C63.7721 19.553 63.7513 19.6897 63.7051 19.8184C63.6589 19.947 63.588 20.0652 63.4967 20.1661C63.4054 20.267 63.2954 20.3486 63.1729 20.4064C63.0504 20.4641 62.9179 20.4968 62.7829 20.5025ZM63.2913 19.3907C63.3103 19.1777 63.2136 19.0733 63.0224 19.1138C62.8963 19.1301 62.7791 19.1882 62.6891 19.2791C62.599 19.3701 62.5411 19.4887 62.5245 19.6164C62.5191 19.6705 62.5255 19.7251 62.5432 19.7763C62.5609 19.8276 62.5895 19.8743 62.627 19.9131C62.6645 19.9519 62.7099 19.9819 62.7601 20.0009C62.8103 20.02 62.864 20.0276 62.9174 20.0233C63.2157 19.9679 63.2535 19.6569 63.285 19.3907H63.2913Z" fill="#181818"/>
    <path d="M36.2572 45.9965C36.2572 46.5354 35.94 46.8996 35.4925 46.8975C35.045 46.8954 34.6522 46.4161 34.6711 45.9177C34.6879 45.4917 35.0387 45.1999 35.5114 45.202C35.9841 45.2042 36.2614 45.4938 36.2572 45.9965ZM35.5828 46.3224C35.7698 46.3224 35.774 46.1776 35.8139 46.0839C35.8538 45.9901 35.7761 45.9198 35.6816 45.9198C35.545 45.9198 35.482 46.0093 35.4715 46.1435C35.4715 46.233 35.4988 46.316 35.5828 46.3224Z" fill="#181818"/>
    <path d="M66.2406 25.1097C66.2338 25.022 66.2463 24.9339 66.277 24.8517C66.3078 24.7694 66.3562 24.6951 66.4186 24.634C66.4811 24.5729 66.5561 24.5266 66.6382 24.4984C66.7204 24.4702 66.8077 24.4607 66.8939 24.4707C67.2826 24.4707 67.4801 24.6624 67.4843 25.0416C67.4885 25.4207 67.1775 25.8212 66.8372 25.819C66.5305 25.8275 66.2364 25.474 66.2406 25.1097ZM66.8351 25.3845C66.8981 25.3803 66.9574 25.3524 67.0013 25.3064C67.0452 25.2603 67.0705 25.1993 67.0725 25.1353C67.0956 24.9585 66.9675 24.9713 66.8624 24.9649C66.7574 24.9585 66.6397 25.0011 66.6523 25.1502C66.6586 25.2759 66.6901 25.376 66.8351 25.3845Z" fill="#181818"/>
    <path d="M75.8436 60.3123C75.6923 60.9087 75.9802 61.3773 76.2491 61.8672C75.768 61.6925 75.3856 61.1643 75.4696 60.7596C75.5117 60.5551 75.5747 60.3357 75.8436 60.3123Z" fill="#F8F2EA"/>
    <path d="M84.0454 96.9291C84.0454 96.8667 84.0616 96.8313 84.1283 96.8396C84.1808 96.9478 84.1161 96.9416 84.0454 96.9291Z" fill="#F8F2EA"/>
    <path d="M83.9634 97.0164C83.9634 96.9665 83.9816 96.9186 84.0482 96.9249C84.0604 96.9977 84.0624 97.0538 83.9634 97.0164Z" fill="#F8F2EA"/>
    <path d="M83.8755 97.1038C83.8755 97.0414 83.9119 97.0206 83.9624 97.0143C83.9967 97.1183 83.9482 97.1184 83.8755 97.1038Z" fill="#F8F2EA"/>
    <path d="M33.0345 97.2699C33.1305 97.2316 33.1347 97.3168 33.1619 97.37C33.0825 97.3807 33.0262 97.3679 33.0345 97.2699Z" fill="#F8F2EA"/>
    <path d="M58.5136 36.6948C61.9968 36.7928 65.1544 38.1368 67.4044 41.2956C69.8015 44.6632 69.7658 49.2448 67.3498 52.8701C65.9269 55.0478 63.8153 56.6697 61.3623 57.4687C60.1669 57.867 58.9232 57.801 57.6963 57.6264C55.4494 57.2853 53.3707 56.2193 51.7681 54.5865C50.1656 52.9536 49.1245 50.8408 48.7992 48.5611C48.169 44.005 50.2362 39.8856 54.2236 37.6065C55.4904 36.8823 56.8413 36.7268 58.5136 36.6948Z" fill="#F8F2EA"/>
    <path d="M46.4361 43.1551C46.1381 41.7506 46.2157 40.2909 46.6609 38.9271C47.3941 36.7971 48.4991 34.9568 50.4928 33.7831C52.0853 32.8459 53.7135 31.9726 55.2198 30.8884C56.0355 30.289 56.7488 29.5579 57.3311 28.7244C57.3834 28.6388 57.4425 28.5576 57.5076 28.4815C57.6862 28.309 57.8984 28.1493 58.1505 28.2494C58.4026 28.3495 58.3458 28.6179 58.3311 28.8202C58.2807 29.4869 58.0181 30.0982 57.8185 30.7372C57.7618 30.9097 57.64 31.0993 57.8374 31.2442C58.0349 31.389 58.203 31.2612 58.3753 31.144C59.0055 30.718 59.4131 30.079 59.8606 29.4976C60.1031 29.1783 60.4077 28.913 60.7555 28.718C61.348 28.3793 61.8795 28.6839 61.9173 29.3698C61.9195 29.6434 61.8798 29.9157 61.7997 30.177C61.6757 30.6754 61.7555 30.816 62.2198 31.029C63.7429 31.7298 65.2325 32.4881 66.5266 33.585C67.9489 34.7949 69.0056 36.2923 69.9552 37.8898C70.8248 39.376 71.426 41.0075 71.7304 42.7078C71.7598 42.8569 71.8627 42.9933 71.6043 43.0614C71.3459 43.1296 71.3607 42.9677 71.3207 42.8207C69.743 36.9291 64.0728 33.7831 58.911 34.0558C55.6526 34.2283 52.6798 35.2251 50.1798 37.4339C48.5239 38.8974 47.28 40.7796 46.5748 42.8889C46.5474 42.9698 46.5159 43.0486 46.4844 43.1274C46.4844 43.136 46.4655 43.1402 46.4361 43.1551Z" fill="#F8F2EA"/>
    <path d="M53.6525 58.9299C54.5401 59.2692 55.4535 59.5349 56.3836 59.7244C58.8334 60.1419 61.3502 59.8228 63.6231 58.8064L63.9278 58.6743C63.9865 59.5822 64.0952 60.486 64.2534 61.3816C64.3405 61.8769 64.4741 62.3626 64.6526 62.8321C64.7056 62.9398 64.7227 63.0621 64.7011 63.1804C64.6795 63.2988 64.6204 63.4068 64.5328 63.4881C63.8675 64.2988 63.026 64.9422 62.0743 65.3679C61.1226 65.7937 60.0866 65.9901 59.0475 65.9419C57.3038 65.9035 55.6 65.6479 54.0516 64.7555C53.61 64.5254 53.2015 64.2351 52.8373 63.8928C52.7755 63.8482 52.7335 63.7807 52.7206 63.7049C52.7076 63.6291 52.7246 63.5512 52.768 63.4881C53.4644 62.0945 53.7461 60.5256 53.5789 58.9725L53.6525 58.9299Z" fill="#F8F2EA"/>
    <path d="M69.3287 43.7174C68.2573 40.4031 66.0199 38.2369 62.8602 36.9866C61.9484 36.6249 60.992 36.3913 60.0178 36.2922C59.9589 36.2922 59.9064 36.2773 59.8833 36.2155C63.5955 36.1772 68.0913 38.9057 69.417 43.6343L69.3287 43.7174Z" fill="#F8F2EA"/>
    <path d="M71.7786 47.4066C71.7176 46.3927 71.7786 45.4065 71.6273 44.4246C71.6 44.2521 71.6714 44.1796 71.8248 44.1711C72.0748 44.1583 72.3353 44.186 72.4235 44.4651C72.6672 45.2446 72.7365 46.0264 72.2681 46.7591C72.121 46.987 71.9424 47.1915 71.7786 47.4066Z" fill="#F8F2EA"/>
    <path d="M46.1059 44.7164C45.9497 45.7135 45.9011 46.7248 45.961 47.7325C44.7467 46.7208 44.8055 45.315 46.1059 44.7164Z" fill="#F8F2EA"/>
    <path d="M50.709 54.851C50.0935 54.0842 49.4485 53.3472 48.9674 52.476C48.2301 51.1797 47.7639 49.7434 47.5977 48.2565C47.8182 49.0297 48.0178 49.8114 48.2993 50.5654C48.8247 51.934 49.5553 53.2121 50.4653 54.3547C50.5746 54.4974 50.7952 54.606 50.709 54.8552V54.851Z" fill="#F8F2EA"/>
    <path d="M77.4404 78.019C78.5287 79.4548 79.358 81.0744 79.89 82.803C79.14 81.1756 78.285 79.6016 77.4404 78.019Z" fill="#F8F2EA"/>
    <path d="M65.3397 64.5808C65.4342 64.6809 65.5183 64.7661 65.4237 64.8897C64.8674 65.6452 64.1016 66.2154 63.2241 66.5276C64.0715 66.0579 64.7967 65.3906 65.3397 64.5808Z" fill="#F8F2EA"/>
    <path d="M34.0783 92.0195C34.0512 91.1675 33.9489 90.3155 34.1681 89.6488C34.2356 90.0005 34.2356 90.3621 34.1681 90.7138C34.1284 91.1462 34.1096 91.5828 34.0783 92.0195Z" fill="#F8F2EA"/>
    <path d="M53.4698 65.9866C52.8823 65.7319 52.3818 65.3074 52.0308 64.7661C52.514 65.1708 52.9824 65.5904 53.4698 65.9866Z" fill="#F8F2EA"/>
    <path d="M65.7606 60.5146C65.5506 59.607 65.5186 58.6659 65.6666 57.7456C65.6645 58.6722 65.6771 59.5944 65.7606 60.5146Z" fill="#6E6E6E"/>
    <path d="M69.3291 43.7174L69.4173 43.6343C69.7724 44.5162 69.8375 45.4406 69.8123 46.3799C69.7199 45.481 69.5584 44.5908 69.3291 43.7174Z" fill="#6E6E6E"/>
    <path d="M52.0684 61.0599C52.0462 61.0229 52.0321 60.9815 52.027 60.9385C52.0219 60.8955 52.026 60.8519 52.039 60.8107C52.2469 60.1852 52.4064 59.5443 52.5159 58.8937C52.5127 59.639 52.3604 60.3759 52.0684 61.0599Z" fill="#F8F2EA"/>
    <path d="M33.8261 90.39C33.7134 91.2591 33.8783 92.1281 33.7969 92.9971C33.6667 92.1323 33.6765 91.2516 33.8261 90.39Z" fill="#6E6E6E"/>
    <path d="M48.9341 41.99C49.1104 41.4644 49.3898 40.9804 49.7555 40.5671L49.8143 40.6246L48.974 42.1859L48.9341 41.99Z" fill="#F8F2EA"/>
    <path d="M45.2735 42.1029C45.3143 42.426 45.3935 42.7429 45.5094 43.0465C45.5386 43.1402 45.6639 43.2765 45.4864 43.3234C45.309 43.3703 45.3319 43.1913 45.3048 43.0934C45.2232 42.777 45.1818 42.4513 45.1816 42.1242L45.2735 42.1029Z" fill="#F8F2EA"/>
    <path d="M48.9339 41.99L48.9675 42.186C48.7827 42.7085 48.5971 43.2311 48.4108 43.7536L48.2974 43.7089C48.4438 43.1131 48.6574 42.5363 48.9339 41.99Z" fill="#6E6E6E"/>
    <path d="M49.3058 65.1708C49.3772 64.9216 49.6104 64.6724 50.1462 64.2783C50.1633 64.2971 50.1816 64.3149 50.2008 64.3316C49.9268 64.6325 49.6266 64.9077 49.3037 65.1538L49.3058 65.1708Z" fill="#F8F2EA"/>
    <path d="M47.959 66.3381C47.959 65.9653 48.2447 65.8759 48.5346 65.7971L47.959 66.3296V66.3381Z" fill="#F8F2EA"/>
    <path d="M45.2733 42.1029L45.1815 42.1242C45.0249 41.7813 45.1815 41.4277 45.1669 41.0784L45.2733 42.1029Z" fill="#6E6E6E"/>
    <path d="M59.8792 36.2454C59.6514 36.3176 59.4054 36.3025 59.188 36.2028C59.5577 36.1005 59.5577 36.1005 59.8792 36.2454Z" fill="#6E6E6E"/>
    <path d="M82.9496 87.6125C82.8258 87.3856 82.7645 87.1287 82.7721 86.8691C82.8896 87.0985 82.9506 87.3537 82.9496 87.6125Z" fill="#6E6E6E"/>
    <path d="M83.002 87.8748C83.002 87.8748 82.9923 87.8915 82.9884 87.9019C82.9856 87.8763 82.9856 87.8505 82.9884 87.8249C82.9884 87.8145 83.002 87.8062 83.0098 87.7979L83.002 87.8748Z" fill="#6E6E6E"/>
    <path d="M50.9311 63.5229L50.9755 63.4813L50.9513 63.4604L50.9189 63.5104L50.9311 63.5229Z" fill="#F8F2EA"/>
    <path d="M52.0646 61.0617H51.9717V61.0194L52.0606 61.064L52.0646 61.0617Z" fill="#F8F2EA"/>
    <path d="M49.2987 65.1538C49.2757 65.2091 49.2465 65.2581 49.1776 65.2454C49.1651 65.2454 49.1505 65.1921 49.1525 65.19C49.2006 65.1602 49.2402 65.0579 49.3049 65.1708L49.2987 65.1538Z" fill="#F8F2EA"/>
    <path d="M49.7573 40.5671L49.8638 40.467C49.8748 40.4794 49.8824 40.4944 49.8859 40.5107C49.8894 40.527 49.8887 40.5439 49.8839 40.5598C49.879 40.5757 49.8702 40.5901 49.8582 40.6015C49.8463 40.6128 49.8317 40.6208 49.8158 40.6247L49.7573 40.5671Z" fill="#F8F2EA"/>
    <path d="M47.7257 66.3189C47.8009 66.3317 47.8927 66.1506 47.9574 66.3359C47.8802 66.3359 47.7946 66.4914 47.7236 66.3253L47.7257 66.3189Z" fill="#F8F2EA"/>
    <path d="M77.3601 77.8337C77.3788 77.8763 77.4081 77.9061 77.4039 77.9317C77.4039 77.9934 77.3475 77.9615 77.3183 77.9508C77.2981 77.9388 77.2804 77.9229 77.2661 77.904L77.3601 77.8337Z" fill="#F8F2EA"/>
    <path d="M50.5382 63.8055C50.5486 63.846 50.6154 63.8758 50.5528 63.9312C50.4901 63.9865 50.4651 63.9311 50.4233 63.9098C50.5048 63.9269 50.5235 63.8715 50.534 63.8076L50.5382 63.8055Z" fill="#F8F2EA"/>
    <path d="M50.4233 63.9098L50.5082 63.9823L50.4564 64.0249C50.4564 63.9865 50.4378 63.9461 50.4275 63.9077L50.4233 63.9098Z" fill="#F8F2EA"/>
    <path d="M50.2261 64.1931C50.2469 64.1505 50.2657 64.0803 50.3242 64.1356C50.3826 64.191 50.3012 64.2145 50.2762 64.2485C50.2611 64.2286 50.2443 64.2101 50.2261 64.1931Z" fill="#F8F2EA"/>
    <path d="M50.1421 64.2783L50.2256 64.1931C50.2439 64.21 50.2606 64.2286 50.2757 64.2485L50.1964 64.3316C50.1773 64.3149 50.1591 64.2971 50.1421 64.2783Z" fill="#F8F2EA"/>
    <path d="M69.3571 36.239C69.3571 36.239 69.3751 36.2565 69.3751 36.2652C69.3751 36.2739 69.3611 36.2805 69.3531 36.2892C69.3452 36.2979 69.3352 36.2696 69.3372 36.263C69.3392 36.2565 69.3491 36.2477 69.3571 36.239Z" fill="#6E6E6E"/>
    <path d="M69.4883 36.4697L69.4297 36.426C69.5024 36.3761 69.4802 36.4406 69.4842 36.4739L69.4883 36.4697Z" fill="#6E6E6E"/>
    <path d="M69.4863 36.4754L69.5429 36.5003L69.5146 36.5336L69.4904 36.4712L69.4863 36.4754Z" fill="#6E6E6E"/>
    <path d="M69.6567 36.7352L69.7133 36.7581L69.683 36.7934L69.6608 36.731L69.6567 36.7352Z" fill="#6E6E6E"/>
    <path d="M69.77 36.9448L69.7927 36.9355L69.7906 36.9635L69.77 36.9448Z" fill="#6E6E6E"/>
    <path d="M69.6586 36.7295L69.6021 36.6838C69.6768 36.6359 69.6506 36.7004 69.6546 36.7337L69.6586 36.7295Z" fill="#6E6E6E"/>
    <path d="M53.585 58.97L53.5991 58.866L53.6496 58.918L53.585 58.97Z" fill="#F8F2EA"/>
    <path d="M47.7229 66.3189L47.7437 66.4041H47.606C47.6895 66.4339 47.7041 66.3721 47.7229 66.3146V66.3189Z" fill="#F8F2EA"/>
    <path d="M47.606 66.4104L47.6767 66.4832C47.5878 66.5227 47.6403 66.427 47.61 66.4083L47.606 66.4104Z" fill="#F8F2EA"/>
    <path d="M50.7869 63.552L50.9288 63.5243L50.9184 63.5115C50.8954 63.6053 50.8641 63.6628 50.7827 63.552H50.7869Z" fill="#F8F2EA"/>
    <path d="M48.917 65.352L49.016 65.372C48.9655 65.4611 48.9493 65.3564 48.917 65.3497V65.352Z" fill="#F8F2EA"/>
    <path d="M50.7051 63.6415C50.7677 63.6415 50.7844 63.6053 50.7865 63.552C50.8011 63.5797 50.8324 63.6159 50.8241 63.6351C50.7969 63.699 50.7489 63.6649 50.7093 63.6351L50.7051 63.6415Z" fill="#F8F2EA"/>
    <path d="M53.5948 66.0164C53.6042 66.034 53.6111 66.053 53.6152 66.0726C53.6152 66.0726 53.6009 66.0892 53.5927 66.0975C53.5836 66.0803 53.576 66.0622 53.5703 66.0435C53.5703 66.0435 53.5846 66.0268 53.5948 66.0164Z" fill="#F8F2EA"/>
    <path d="M50.7045 63.6415C50.7045 63.6756 50.7713 63.6947 50.7191 63.7437C50.6669 63.7927 50.6481 63.7437 50.6147 63.7309C50.6795 63.7309 50.6982 63.6969 50.7045 63.6415Z" fill="#F8F2EA"/>
    <path d="M50.614 63.731C50.6432 63.7714 50.6891 63.814 50.614 63.8502C50.5994 63.8502 50.5618 63.8204 50.5347 63.8055C50.591 63.8055 50.614 63.7863 50.6098 63.731H50.614Z" fill="#F8F2EA"/>
    <path d="M50.709 54.8536L50.7838 54.7849C50.8161 54.8806 50.7272 54.8182 50.709 54.8494V54.8536Z" fill="#F8F2EA"/>
    <path d="M77.7347 61.5881C77.2704 61.6052 76.8796 61.3261 76.8838 60.9768C76.888 60.6275 77.4174 60.2207 77.9111 60.2398C78.1296 60.7276 77.9511 61.16 77.7347 61.5881Z" fill="#F8F2EA"/>
    <path d="M77.7344 61.5882C77.9445 61.1621 78.1293 60.7361 77.9108 60.2399C78.2533 60.2228 78.3478 60.4337 78.3436 60.7276C78.3289 61.209 78.0999 61.537 77.7344 61.5882Z" fill="#6E6E6E"/>
    <path d="M31.0597 52.0266C31.3118 52.0692 31.5597 52.1501 31.5828 52.4994C31.5975 52.7529 31.2362 53.23 31.0303 53.23C30.8244 53.23 30.4756 52.8296 30.4693 52.5569C30.463 52.2843 30.7467 52.0372 31.0597 52.0266Z" fill="#F8F2EA"/>
    <path d="M84.3712 45.398C84.3519 45.44 84.3242 45.4776 84.29 45.5085C84.2557 45.5393 84.2156 45.5627 84.1722 45.5773C84.1287 45.5918 84.0828 45.5972 84.0371 45.5931C83.9915 45.589 83.9472 45.5756 83.907 45.5535C83.7897 45.4997 83.6889 45.415 83.615 45.3082C83.5411 45.2014 83.4968 45.0765 83.4868 44.9464C83.4698 44.855 83.4874 44.7604 83.536 44.6814C83.5847 44.6025 83.6609 44.545 83.7494 44.5204C83.9784 44.4416 84.2368 44.1285 84.4049 44.595C84.2557 44.6291 84.178 44.7292 84.2536 44.8655C84.3586 45.0338 84.2893 45.2276 84.3712 45.398Z" fill="#F8F2EA"/>
    <path d="M84.3705 45.398C84.289 45.2276 84.3579 45.0338 84.2619 44.8613C84.1868 44.725 84.2619 44.6248 84.4122 44.5908C84.7024 44.7675 84.6836 45.0849 84.3705 45.398Z" fill="#6E6E6E"/>
    <path d="M23.9819 41.7514C23.8748 41.9644 23.7718 42.2115 23.5197 42.2435C23.4699 42.2491 23.4195 42.2432 23.3723 42.2261C23.3251 42.209 23.2823 42.1812 23.2473 42.1449C23.2122 42.1085 23.1858 42.0646 23.1701 42.0163C23.1543 41.9681 23.1496 41.9168 23.1563 41.8665C23.1668 41.6535 23.2655 41.4277 23.526 41.4405C23.7067 41.4426 23.9273 41.4831 23.9819 41.7514Z" fill="#F8F2EA"/>
    <path d="M63.2848 19.3907C63.2533 19.6569 63.2155 19.9679 62.9108 20.0297C62.8574 20.034 62.8037 20.0264 62.7536 20.0073C62.7034 19.9883 62.6579 19.9583 62.6205 19.9195C62.583 19.8807 62.5544 19.834 62.5367 19.7827C62.519 19.7315 62.5126 19.6769 62.518 19.6228C62.5346 19.4951 62.5924 19.3765 62.6825 19.2855C62.7726 19.1946 62.8898 19.1365 63.0159 19.1202C63.2029 19.0733 63.3037 19.1841 63.2848 19.3907Z" fill="#F8F2EA"/>
    <path d="M35.5823 46.3224C35.4988 46.3224 35.48 46.233 35.48 46.1435C35.48 46.0093 35.5447 45.9199 35.6887 45.9199C35.7827 45.9199 35.862 45.9816 35.8203 46.0839C35.7785 46.1861 35.7681 46.3246 35.5823 46.3224Z" fill="#F8F2EA"/>
    <path d="M66.8355 25.3845C66.6905 25.3845 66.659 25.2652 66.6485 25.1502C66.6338 25.0011 66.7283 24.9585 66.8586 24.9649C66.9888 24.9713 67.0981 24.9649 67.0687 25.1353C67.0668 25.1986 67.042 25.2591 66.999 25.305C66.956 25.351 66.8977 25.3793 66.8355 25.3845Z" fill="#F8F2EA"/>
    <defs>
    <filter id="filter0_d_12127_19913" x="0" y="0" width="123" height="122.719" filterUnits="userSpaceOnUse" color-interpolation-filters="sRGB">
    <feFlood flood-opacity="0" result="BackgroundImageFix"/>
    <feColorMatrix in="SourceAlpha" type="matrix" values="0 0 0 0 0 0 0 0 0 0 0 0 0 0 0 0 0 0 127 0" result="hardAlpha"/>
    <feOffset dx="5" dy="4"/>
    <feGaussianBlur stdDeviation="2"/>
    <feComposite in2="hardAlpha" operator="out"/>
    <feColorMatrix type="matrix" values="0 0 0 0 0 0 0 0 0 0 0 0 0 0 0 0 0 0 0.25 0"/>
    <feBlend mode="normal" in2="BackgroundImageFix" result="effect1_dropShadow_12127_19913"/>
    <feBlend mode="normal" in="SourceGraphic" in2="effect1_dropShadow_12127_19913" result="shape"/>
    </filter>
    </defs>
    </svg>
    