<svg width="120" height="118" viewBox="0 0 120 118" fill="none" xmlns="http://www.w3.org/2000/svg">
<g filter="url(#filter0_d_12079_1267)">
<path d="M0 55.0411C0.202683 41.0641 4.88959 28.7576 14.3733 18.3476C22.1028 9.86483 31.669 4.4162 42.796 1.64453C46.2278 0.789866 49.7158 0.293499 53.2485 0.0938108C60.5531 -0.320399 67.6619 0.628974 74.5554 3.10282C81.6104 5.63486 87.8443 9.49283 93.2859 14.6277C97.9167 18.9968 101.527 24.0997 104.461 29.7298C107.482 35.5287 109.444 41.6335 110.325 48.0999C110.72 50.9994 110.898 53.9114 110.801 56.8326C110.356 70.433 105.612 82.3367 96.3605 92.3565C88.5222 100.845 78.877 106.299 67.5542 108.762C64.3067 109.468 61.0203 109.911 57.6926 109.984C42.8166 110.311 29.6994 105.683 18.514 95.9018C9.63147 88.1334 3.99527 78.3783 1.35924 66.906C0.541634 63.3504 0.103059 59.7423 0.0526748 56.0909C0.0480944 55.76 0.0206119 55.4302 0.0011451 55.0422L0 55.0411Z" fill="#060000"/>
<path d="M58.2528 104.528C50.5646 104.668 43.3939 103.408 36.5176 100.604C31.5845 98.5937 26.9754 96.0183 22.9641 92.4833C16.3695 86.673 11.5475 79.6439 8.50949 71.4065C7.18232 67.8099 6.29372 64.1048 5.82079 60.305C5.35359 56.56 5.21274 52.799 5.72689 49.0552C6.41853 44.0208 7.9003 39.2043 10.1149 34.6217C14.4824 25.5844 20.9259 18.3637 29.4202 13.0052C35.045 9.45765 41.1667 7.09562 47.7281 5.89864C50.9585 5.3087 54.2163 5.03142 57.4982 5.06223C62.5824 5.11016 67.5762 5.81078 72.404 7.41056C75.766 8.52425 78.8967 10.1651 81.8602 12.1004C91.478 18.382 98.2994 26.9378 102.588 37.5281C104.449 42.1232 105.607 46.8963 106.071 51.8348C106.296 54.2197 106.422 56.6102 106.22 58.9985C105.981 61.8352 105.408 64.6183 104.633 67.358C102.331 75.4813 98.2661 82.6187 92.4731 88.768C86.4166 95.1968 79.1773 99.8204 70.7859 102.613C68.2656 103.451 65.6364 103.867 62.9981 104.184C61.3331 104.384 59.6613 104.473 58.2528 104.53V104.528Z" fill="#F8F2EA"/>
<path d="M58.2333 99.8036C51.2796 99.93 44.794 98.7861 38.5747 96.2404C34.1129 94.4148 29.9442 92.0763 26.3161 88.8665C20.3515 83.5906 15.9902 77.2083 13.2425 69.7286C12.0421 66.4628 11.2384 63.0986 10.8107 59.6484C10.3881 56.2479 10.2607 52.8329 10.7257 49.4334C11.3513 44.8621 12.6915 40.4888 14.6945 36.3278C18.6447 28.1218 24.4726 21.5654 32.1554 16.6998C37.2427 13.4786 42.7796 11.3339 48.7141 10.247C51.6358 9.71132 54.5824 9.45954 57.5507 9.48752C62.1492 9.53103 66.6659 10.1672 71.0324 11.6198C74.0732 12.6311 76.9048 14.121 79.5852 15.8782C88.2841 21.5819 94.4537 29.3507 98.3324 38.9667C100.015 43.1391 101.064 47.4731 101.483 51.9574C101.686 54.1228 101.8 56.2935 101.618 58.462C101.401 61.0378 100.883 63.5648 100.182 66.0525C98.1004 73.4286 94.4237 79.9094 89.1841 85.4929C83.7063 91.3303 77.1586 95.5286 69.569 98.064C67.2894 98.8255 64.9114 99.2026 62.5252 99.4907C61.0193 99.672 59.5072 99.7528 58.2333 99.8046V99.8036Z" fill="#181818"/>
<path d="M15.3947 21.7994C16.5638 20.0445 17.8864 18.4059 19.2995 16.8449C20.0839 15.9788 21.0171 15.2599 21.9779 14.4737C19.8984 17.0834 17.6402 19.442 15.492 21.8964C15.4073 21.9158 15.3626 21.8964 15.3947 21.7994Z" fill="#F8F2EA"/>
<path d="M88.7475 16.1888C91.2793 18.2439 93.5776 20.5306 95.6181 23.0718C95.6353 23.1551 95.6113 23.1973 95.5185 23.1665C93.3371 20.7657 90.9896 18.5292 88.6399 16.2949C88.6238 16.2082 88.6536 16.166 88.7464 16.1888H88.7475Z" fill="#F8F2EA"/>
<path d="M109.565 51.6215C109.841 53.7553 109.985 55.8948 109.776 58.0423C109.698 58.8479 109.574 59.6489 109.471 60.4522C109.232 60.3404 109.391 60.1567 109.389 60.0015C109.516 58.0069 109.633 56.0123 109.564 54.012C109.537 53.2463 109.503 52.4807 109.471 51.715C109.44 51.6226 109.48 51.5998 109.565 51.6203V51.6215Z" fill="#F8F2EA"/>
<path d="M62.0303 106.16C60.8542 106.312 59.6794 106.468 58.5022 106.614C57.396 106.752 56.2864 106.868 55.1814 107.02C54.8894 107.062 54.6111 107.016 54.3272 107.009C54.2436 107.007 54.0867 107.081 54.1061 106.893C54.1187 106.773 54.2172 106.726 54.3352 106.718C54.7566 106.691 55.1768 106.647 55.5994 106.633C57.4991 106.566 59.3851 106.35 61.2688 106.109C61.5195 106.077 61.7726 106.037 62.0303 106.159V106.16Z" fill="#F8F2EA"/>
<path d="M34.8086 9.08217C37.0805 7.81216 39.5642 7.09784 42.0319 6.34359C42.1304 6.3105 42.1545 6.355 42.1373 6.44401C39.6982 7.28156 37.2695 8.14991 34.9037 9.17916C34.8098 9.20655 34.7869 9.16661 34.8086 9.08217Z" fill="#F8F2EA"/>
<path d="M86.1873 96.5787C88.1717 94.8465 90.2031 93.1646 92.0422 91.2681C91.5979 92.133 87.4366 95.9282 86.1873 96.5787Z" fill="#F8F2EA"/>
<path d="M95.0645 18.2381C95.9324 18.8737 99.2658 22.7739 99.7308 23.6605C98.0543 21.958 96.7363 19.9474 95.0645 18.2381Z" fill="#F8F2EA"/>
<path d="M86.4541 12.9595C85.2517 12.2635 84.0505 11.5663 82.8481 10.8702C84.173 11.3529 85.5746 11.6998 86.4541 12.9595Z" fill="#F8F2EA"/>
<path d="M15.1199 24.683C15.9432 23.5019 16.873 22.402 17.796 21.2985C17.8601 21.2209 17.9151 21.0384 18.0674 21.1525C18.2357 21.2791 18.0869 21.3807 18.0021 21.4811C17.0734 22.5811 16.1448 23.6822 15.2172 24.7834C15.1359 24.7971 15.0901 24.7754 15.121 24.683H15.1199Z" fill="#F8F2EA"/>
<path d="M108.873 64.8272C108.634 66.4133 108.263 67.9686 107.76 69.4931C107.732 69.5262 107.704 69.5273 107.673 69.4965C108.075 67.8499 108.484 66.2056 108.773 64.534C108.99 64.5693 108.867 64.72 108.873 64.8261V64.8272Z" fill="#F8F2EA"/>
<path d="M95.5203 23.1664C95.5535 23.1345 95.5867 23.1037 95.6199 23.0717C96.7306 24.3429 97.6994 25.7179 98.6189 27.1294C98.6498 27.2184 98.6075 27.2332 98.5319 27.215C97.6044 25.8092 96.552 24.4958 95.5203 23.1664Z" fill="#F8F2EA"/>
<path d="M108.873 64.8269C108.829 64.7333 108.893 64.6021 108.774 64.5348C108.979 63.024 109.184 61.5132 109.389 60.0024C109.446 60.1474 109.358 60.3185 109.471 60.4532C109.272 61.9115 109.073 63.3686 108.874 64.8269H108.873Z" fill="#F8F2EA"/>
<path d="M107.228 71.218C106.979 72.4743 106.449 73.6359 106.007 74.8272C105.929 75.0372 105.838 75.2425 105.753 75.4502C105.678 75.4605 105.624 75.4525 105.674 75.3567C106.189 73.9588 106.729 72.569 107.157 71.1415C107.192 71.129 107.226 71.1176 107.249 71.1575C107.258 71.1735 107.246 71.1963 107.229 71.218H107.228Z" fill="#F8F2EA"/>
<path d="M108.014 40.8497C108.437 42.1585 108.843 43.4719 108.886 44.8594C108.595 43.5232 108.305 42.187 108.014 40.8497Z" fill="#F8F2EA"/>
<path d="M53.1141 4.01812C54.1034 3.92227 55.0882 3.76708 56.0822 3.74084C56.0867 3.79561 56.0925 3.84924 56.0971 3.90401C55.134 3.97476 54.171 4.0455 53.2068 4.11625C53.1152 4.14021 53.0889 4.10256 53.1129 4.01698L53.1141 4.01812Z" fill="#F8F2EA"/>
<path d="M4.08686 54.9853V57.6817C4.03877 57.6817 3.99067 57.6794 3.94258 57.6782C3.73875 56.7083 4.09602 55.7567 4.08686 54.9853Z" fill="#F8F2EA"/>
<path d="M6.90509 38.515C6.72417 39.0057 6.53866 39.4964 6.36346 39.9893C6.31766 40.1182 6.26269 40.2221 6.11154 40.1616C5.91687 40.0829 6.06459 39.971 6.1081 39.882C6.3314 39.4233 6.56042 38.9692 6.78829 38.5128C6.82837 38.4751 6.86731 38.4762 6.90624 38.5162L6.90509 38.515Z" fill="#F8F2EA"/>
<path d="M44.5744 4.98566C43.695 5.20361 42.8167 5.42155 41.9373 5.64064C42.7308 5.19904 43.6057 5.04614 44.4805 4.89095C44.5698 4.86585 44.5962 4.90236 44.5744 4.9868V4.98566Z" fill="#F8F2EA"/>
<path d="M6.07781 69.1403C5.65641 68.2936 5.53732 67.3625 5.41479 66.4314C5.6358 67.334 5.85681 68.2377 6.07781 69.1403Z" fill="#F8F2EA"/>
<path d="M15.1195 24.6829C15.1515 24.716 15.1836 24.7502 15.2157 24.7833C14.8137 25.3344 14.4118 25.8867 14.0099 26.4379C13.9755 26.415 13.9423 26.3922 13.908 26.3694C14.2961 25.7977 14.6649 25.2123 15.1195 24.6829Z" fill="#F8F2EA"/>
<path d="M22.4292 94.5669C22.9674 94.9925 23.5056 95.4182 24.0438 95.8438C23.2021 95.457 22.6811 95.0428 22.4292 94.5669Z" fill="#F8F2EA"/>
<path d="M64.3309 3.21944C63.7195 3.17379 63.1068 3.12701 62.4507 3.07794C63.1251 2.72649 63.7252 3.13956 64.3424 3.10761C64.3378 3.14412 64.3344 3.18178 64.3298 3.21829L64.3309 3.21944Z" fill="#F8F2EA"/>
<path d="M75.5496 7.78477C76.2561 7.87491 76.8687 8.14535 77.4264 8.55157C76.8012 8.29597 76.1748 8.04037 75.5496 7.78477Z" fill="#F8F2EA"/>
<path d="M42.1373 6.44404C42.1018 6.41095 42.0675 6.37672 42.032 6.34363C42.545 6.10857 43.0935 6.00701 43.6328 5.8735C43.6443 5.91002 43.6557 5.94653 43.6672 5.98305C43.1565 6.13709 42.6469 6.29 42.1362 6.44404H42.1373Z" fill="#F8F2EA"/>
<path d="M67.4342 105.722C67.8705 105.593 68.3068 105.463 68.7431 105.334C68.4831 105.784 68.0045 105.681 67.6231 105.82C67.5292 105.845 67.4227 105.897 67.4342 105.722Z" fill="#F8F2EA"/>
<path d="M58.9863 107.649C59.686 107.637 60.3765 107.439 61.083 107.572C60.3834 107.584 59.6951 107.811 58.9863 107.649Z" fill="#F8F2EA"/>
<path d="M20.856 91.8065C21.2533 92.1785 21.6518 92.5516 22.0492 92.9236C22.024 92.9499 21.9976 92.9773 21.9724 93.0035C21.5327 92.6737 21.148 92.2881 20.856 91.8065Z" fill="#F8F2EA"/>
<path d="M23.2515 94.0932C22.8289 93.8045 22.4465 93.4725 22.1235 93.0742C22.5655 93.3378 22.9514 93.6688 23.3156 94.0271C23.3247 94.0773 23.303 94.1001 23.2515 94.0932Z" fill="#F8F2EA"/>
<path d="M8.38803 76.6623C8.10863 76.207 7.92541 75.7152 7.85327 75.1778C8.05481 75.6525 8.25635 76.1283 8.45789 76.603C8.45789 76.6498 8.43498 76.6692 8.38918 76.6635L8.38803 76.6623Z" fill="#F8F2EA"/>
<path d="M88.7482 16.1887C88.7127 16.224 88.6772 16.2594 88.6417 16.2948C88.368 16.046 88.0943 15.7973 87.8218 15.5485C88.2008 15.6729 88.4928 15.9068 88.7493 16.1887H88.7482Z" fill="#F8F2EA"/>
<path d="M98.5317 27.215C98.5604 27.1865 98.5901 27.158 98.6188 27.1295C98.9176 27.4604 99.1226 27.8461 99.2657 28.2751C99.0207 27.9214 98.7768 27.5676 98.5317 27.215Z" fill="#F8F2EA"/>
<path d="M44.5744 4.9858C44.5435 4.95385 44.5114 4.9219 44.4805 4.88995C44.9236 4.7439 45.3736 4.63207 45.8431 4.62637C45.8534 4.63778 45.8626 4.65033 45.8729 4.66174C45.4572 4.83975 45.0107 4.88995 44.5744 4.98466V4.9858Z" fill="#F8F2EA"/>
<path d="M29.8884 98.6586C30.2159 98.8492 30.5446 99.0397 30.8721 99.2292C30.4747 99.1653 30.1404 98.9804 29.8884 98.6586Z" fill="#F8F2EA"/>
<path d="M67.434 105.722C67.4569 105.832 67.56 105.787 67.623 105.82C67.2313 105.911 66.8408 106.004 66.4492 106.095C66.7492 105.878 67.0882 105.789 67.434 105.722Z" fill="#F8F2EA"/>
<path d="M109.565 51.6213C109.534 51.6533 109.503 51.6841 109.471 51.716C109.349 51.384 109.383 51.0451 109.465 50.7016L109.565 51.6213Z" fill="#F8F2EA"/>
<path d="M24.6451 95.1829C24.3427 95.0038 24.0553 94.8052 23.8149 94.5474C23.8126 94.5029 23.8355 94.4869 23.8778 94.4972C24.1779 94.6272 24.3908 94.8726 24.6428 95.0665C24.6828 95.1042 24.684 95.143 24.6451 95.1829Z" fill="#F8F2EA"/>
<path d="M34.8088 9.0822C34.8409 9.11415 34.8718 9.14724 34.9039 9.17919C34.6623 9.34692 34.3943 9.4519 34.1023 9.49755C34.3096 9.30699 34.5432 9.16778 34.8077 9.08105L34.8088 9.0822Z" fill="#F8F2EA"/>
<path d="M53.1143 4.01812C53.1452 4.05121 53.1772 4.0843 53.2082 4.11739C52.907 4.2703 52.5932 4.19613 52.2749 4.12538C52.5543 4.09001 52.8349 4.05349 53.1143 4.01812Z" fill="#F8F2EA"/>
<path d="M6.90457 38.5149C6.86563 38.5149 6.82555 38.5126 6.78662 38.5115C6.90228 38.257 7.01793 38.0026 7.13359 37.7493C7.12557 38.0322 7.07977 38.297 6.90457 38.5149Z" fill="#F8F2EA"/>
<path d="M8.83301 33.6048C8.97157 33.323 9.11012 33.04 9.24868 32.7582C9.28303 32.7741 9.31853 32.7901 9.35288 32.8061C9.2212 33.0914 9.13875 33.3994 8.83301 33.6048Z" fill="#F8F2EA"/>
<path d="M106.425 42.0319C106.357 41.7626 106.29 41.4933 106.222 41.224C106.42 41.4237 106.505 41.661 106.508 41.9257C106.552 42.017 106.508 42.041 106.424 42.0319H106.425Z" fill="#F8F2EA"/>
<path d="M105.674 75.3568C105.7 75.3876 105.726 75.4196 105.753 75.4504C105.668 75.6889 105.573 75.9216 105.344 76.175C105.428 75.8372 105.53 75.5896 105.674 75.3568Z" fill="#F8F2EA"/>
<path d="M15.3946 21.7994C15.4266 21.8313 15.4598 21.8644 15.4919 21.8964C15.3831 22.1429 15.1862 22.3174 14.9846 22.4932C15.0659 22.2284 15.1965 21.9945 15.3946 21.7994Z" fill="#F8F2EA"/>
<path d="M8.45665 76.6029C8.60093 76.8539 8.7372 77.1061 8.76697 77.4051C8.59291 77.1814 8.45092 76.9429 8.38794 76.6634C8.41084 76.6428 8.43374 76.6234 8.45665 76.6029Z" fill="#F8F2EA"/>
<path d="M24.6451 95.183C24.6451 95.1442 24.644 95.1054 24.6428 95.0666C24.8696 95.1967 25.0768 95.3507 25.2337 95.5721C25.015 95.4774 24.7951 95.3861 24.6451 95.1841V95.183Z" fill="#F8F2EA"/>
<path d="M105.695 39.0468C105.519 38.854 105.387 38.6452 105.434 38.2834C105.543 38.6018 105.62 38.8243 105.695 39.0468Z" fill="#F8F2EA"/>
<path d="M106.425 42.0318C106.453 41.9964 106.481 41.961 106.51 41.9257C106.624 42.1379 106.657 42.3673 106.622 42.6137C106.556 42.4198 106.49 42.2258 106.425 42.0318Z" fill="#F8F2EA"/>
<path d="M107.673 69.4963C107.703 69.5089 107.731 69.5066 107.76 69.4929C107.695 69.7006 107.63 69.9094 107.525 70.2415C107.489 69.882 107.548 69.6823 107.673 69.4975V69.4963Z" fill="#F8F2EA"/>
<path d="M45.8428 4.62743C46.081 4.50761 46.3306 4.45512 46.6913 4.49734C46.3581 4.56467 46.1302 4.67992 45.8725 4.6628C45.8622 4.65139 45.8531 4.63884 45.8428 4.62743Z" fill="#F8F2EA"/>
<path d="M23.8149 94.5475C23.6271 94.3957 23.4393 94.2451 23.2515 94.0933C23.2732 94.0717 23.2938 94.0488 23.3156 94.0272C23.5297 94.1527 23.7187 94.3079 23.8778 94.4973C23.8504 94.5053 23.8297 94.5224 23.8149 94.5475Z" fill="#F8F2EA"/>
<path d="M107.229 71.2181C107.205 71.193 107.181 71.1668 107.157 71.1417C107.214 70.9431 107.271 70.7446 107.329 70.5461C107.359 70.7834 107.369 71.015 107.228 71.2181H107.229Z" fill="#F8F2EA"/>
</g>
<path d="M73.776 56.9438C73.7088 60.7877 73.2038 64.6114 72.2709 68.3409C71.1975 72.5773 69.5167 76.5406 66.8637 80.0455C65.0778 82.4062 62.9825 84.4385 60.3505 85.8385C56.0129 88.1535 51.744 87.9778 47.5897 85.3668C44.7973 83.6096 42.6924 81.18 40.9811 78.3895C38.3701 74.1282 36.8593 69.4793 36.1029 64.561C35.6895 61.8849 35.5214 59.1768 35.6006 56.4702C35.7801 50.4097 36.9376 44.5708 39.6804 39.1158C41.3459 35.7961 43.5405 32.8796 46.5163 30.6162C49.1311 28.6279 52.0859 27.5945 55.3902 27.6748C57.984 27.7359 60.3085 28.6298 62.4573 30.047C65.8074 32.2493 68.1262 35.3186 69.9197 38.8484C72.122 43.186 73.2164 47.8254 73.6309 52.6348C73.7528 54.0678 73.8012 55.506 73.776 56.9438ZM72.63 56.0958C72.63 53.2862 72.1659 49.3935 71.102 45.5907C70.0477 41.8242 68.4929 38.2983 66.071 35.1945C64.4025 33.0022 62.2175 31.2567 59.7107 30.1139C56.4637 28.647 53.2166 28.8819 49.9906 30.1253C46.8697 31.3267 44.6139 33.6073 42.7326 36.2775C41.6942 37.7733 40.8153 39.3737 40.1101 41.0525C38.4445 44.9963 37.4131 49.1787 37.0541 53.4447C36.6905 57.4185 36.8485 61.4227 37.5239 65.3555C38.1925 69.21 39.3232 72.9135 41.153 76.3878C42.8204 79.5565 44.8928 82.3814 47.8896 84.4309C50.6496 86.3199 53.6636 87.1049 56.9698 86.3619C59.8348 85.7106 62.2204 84.1616 64.2527 82.0586C66.453 79.78 68.0288 77.0926 69.2703 74.2027C71.6005 68.7821 72.6186 63.1094 72.63 56.0958Z" fill="#F8F2EA"/>
<path d="M21.3651 71.0818C20.1083 71.1868 19.2755 69.9568 19.3042 69.0591C19.3462 67.7545 20.4502 66.5493 21.6401 66.5665C22.7097 66.5799 23.7965 67.7412 23.7889 68.8585C23.7813 70.1516 22.7556 71.0894 21.3651 71.0818ZM21.5809 70.0618C22.0431 70.0618 22.4882 69.6092 22.5035 69.1068C22.5149 68.7248 22.2475 68.4899 21.8025 68.4918C21.3575 68.4937 20.8475 68.9387 20.8475 69.3303C20.8555 69.5221 20.9354 69.7038 21.0713 69.8393C21.2072 69.9749 21.3891 70.0543 21.5809 70.0618Z" fill="#050404"/>
<path d="M63.3454 18.9345C63.3454 20.1398 62.6445 21.0107 61.6474 20.9477C60.5836 20.8789 59.747 20.2257 59.7374 19.0797C59.726 17.8764 60.5988 17.3244 61.7124 17.29C62.7705 17.2595 63.3473 17.8726 63.3454 18.9345ZM60.8261 19.3834C60.8261 19.7138 61.147 20.1646 61.3877 20.1646C61.7181 20.1646 62.2052 19.5801 62.2185 19.1637C62.2287 19.0881 62.2225 19.0111 62.2001 18.9381C62.1778 18.8651 62.1399 18.7978 62.0891 18.7408C62.0383 18.6839 61.9757 18.6386 61.9058 18.608C61.8358 18.5775 61.76 18.5625 61.6837 18.564C61.4649 18.5709 61.2564 18.6583 61.0981 18.8096C60.9398 18.9608 60.843 19.1651 60.8261 19.3834Z" fill="#050404"/>
<path d="M29.0453 40.3573C29.0559 39.9033 29.2456 39.472 29.573 39.1575C29.9004 38.8429 30.339 38.6707 30.793 38.6784C31.6793 38.6956 32.4261 39.3889 32.4089 40.1835C32.3841 41.4326 31.6907 42.168 30.5619 42.1412C29.7635 42.1221 29.032 41.2626 29.0453 40.3573ZM31.2457 40.5674C31.1712 40.3649 31.2896 39.9944 30.8369 39.9944C30.4549 39.9944 30.0519 40.3305 30.0596 40.6304C30.0596 40.9723 30.3575 41.2951 30.6536 41.2913C31.0299 41.2836 31.2514 41.0334 31.2457 40.5616V40.5674Z" fill="#050404"/>
<path d="M83.6966 74.2696C83.6966 75.2952 82.9421 76.2121 82.1017 76.2063C81.0856 76.2063 80.5088 75.2341 80.461 74.3975C80.4171 73.6526 81.3262 72.9727 82.3156 73.0013C83.0166 73.0319 83.7806 73.3776 83.6966 74.2696ZM82.3596 74.2352C82.2048 74.2944 81.9394 74.2619 81.9317 74.5561C81.9317 74.7356 82.0559 74.961 82.201 74.9381C82.4512 74.898 82.5257 74.6325 82.583 74.3956C82.6136 74.2352 82.5124 74.2256 82.371 74.2352H82.3596Z" fill="#050404"/>
<path d="M78.425 37.2287C78.425 38.4301 77.7603 38.9744 76.6774 39.0413C75.9134 39.0909 75.2334 38.2773 75.2334 37.4101C75.2334 36.3749 75.9248 35.6911 76.941 35.6911C77.8501 35.7102 78.4269 36.3042 78.425 37.2287ZM75.9879 37.2898C76.0023 37.4736 76.0828 37.646 76.2145 37.7752C76.3462 37.9043 76.5201 37.9815 76.7042 37.9924C76.8883 38.0034 77.0701 37.9473 77.2161 37.8347C77.3622 37.7221 77.4625 37.5604 77.4987 37.3796C77.5086 37.1743 77.4398 36.973 77.3064 36.8168C77.1729 36.6606 76.9848 36.5613 76.7805 36.5391C76.6783 36.5326 76.5758 36.5472 76.4794 36.582C76.383 36.6169 76.2949 36.6712 76.2205 36.7417C76.1461 36.8121 76.0871 36.8971 76.047 36.9915C76.007 37.0858 75.9869 37.1873 75.9879 37.2898Z" fill="#050404"/>
<path d="M25.8749 62.9948C25.2197 62.9948 24.5378 62.3186 24.5378 61.6749C24.5378 60.9472 25.2159 60.3207 26.0086 60.3265C26.1731 60.3311 26.3351 60.3686 26.4849 60.437C26.6347 60.5053 26.7692 60.603 26.8806 60.7243C26.9919 60.8456 27.0777 60.988 27.133 61.1431C27.1883 61.2982 27.2118 61.4628 27.2023 61.6272C27.1889 62.4256 26.6293 63.0024 25.8749 62.9948ZM26.3772 61.6291C26.3829 61.5575 26.374 61.4855 26.3511 61.4174C26.3282 61.3493 26.2917 61.2866 26.2439 61.233C26.196 61.1795 26.1378 61.1362 26.0727 61.1058C26.0077 61.0753 25.9371 61.0584 25.8653 61.0561C25.7223 61.0689 25.5888 61.133 25.4895 61.2365C25.3901 61.3401 25.3316 61.4762 25.3248 61.6195C25.3355 61.7616 25.3943 61.8958 25.4915 62C25.5887 62.1042 25.7186 62.1721 25.8596 62.1926C25.9309 62.1906 26.0011 62.1744 26.0661 62.1448C26.131 62.1152 26.1893 62.0729 26.2376 62.0204C26.2859 61.9678 26.3231 61.9061 26.3471 61.8389C26.3711 61.7717 26.3813 61.7003 26.3772 61.6291Z" fill="#050404"/>
<path d="M79.0094 30.9027C79.0237 30.6059 79.1499 30.3255 79.3625 30.1179C79.575 29.9103 79.8583 29.7908 80.1554 29.7834C80.4199 29.8041 80.6668 29.9237 80.847 30.1184C81.0272 30.3131 81.1274 30.5686 81.1276 30.8339C81.1123 31.3745 80.5183 32.0143 80.0369 32.0067C79.5251 31.999 79.0017 31.4413 79.0094 30.9027ZM79.9873 31.3554C80.3215 31.3554 80.5603 31.1644 80.5603 30.918C80.5412 30.6277 80.2891 30.6315 80.0962 30.6219C80.0414 30.6136 79.9855 30.6173 79.9323 30.6327C79.8791 30.6482 79.83 30.675 79.7882 30.7113C79.7464 30.7477 79.713 30.7927 79.6903 30.8432C79.6676 30.8937 79.6562 30.9486 79.6569 31.0039C79.6454 31.2217 79.7428 31.3936 79.9873 31.3554Z" fill="#050404"/>
<path d="M72.6299 56.0958C72.6299 63.1094 71.6043 68.7821 69.2798 74.1932C68.0383 77.083 66.4625 79.7704 64.2622 82.0491C62.2299 84.1501 59.8538 85.701 56.9793 86.3523C53.673 87.103 50.659 86.3103 47.8991 84.4213C44.9022 82.3719 42.8299 79.547 41.1624 76.3782C39.3345 72.9039 38.2038 69.2004 37.5334 65.346C36.858 61.4132 36.7 57.4089 37.0635 53.4351C37.4226 49.1691 38.454 44.9868 40.1196 41.043C40.8247 39.3642 41.7037 37.7638 42.742 36.2679C44.6157 33.5939 46.8715 31.3172 50.0001 30.1158C53.2261 28.8723 56.4712 28.6374 59.7201 30.1043C62.2269 31.2472 64.412 32.9926 66.0805 35.1849C68.5024 38.2887 70.0571 41.8146 71.1115 45.5812C72.162 49.3935 72.6299 53.2862 72.6299 56.0958ZM62.0676 34.228L62.0351 34.1841C62.0351 34.1841 62.0351 34.2051 62.0351 34.2089C62.046 34.2151 62.0575 34.2203 62.0695 34.2242L62.1497 34.3025L62.228 34.3827C62.2414 34.4572 62.2948 34.4801 62.3636 34.4821L62.4305 34.5737L62.5164 34.6501L62.5947 34.7304L62.673 34.7628L62.6291 34.6922L62.5546 34.6081L62.4687 34.5355L62.3865 34.4591C62.3826 34.4422 62.3748 34.4263 62.3636 34.413C62.3525 34.3996 62.3383 34.389 62.3223 34.3821C62.3063 34.3752 62.2889 34.3722 62.2715 34.3733C62.2542 34.3744 62.2373 34.3796 62.2223 34.3885C62.2223 34.3312 62.1955 34.3082 62.144 34.3082L62.0676 34.228ZM43.8441 78.3035C43.8613 78.3284 43.8632 78.3933 43.9129 78.3322C43.8987 78.314 43.8834 78.2968 43.867 78.2806L43.8078 78.229C43.8212 78.2539 43.8326 78.2787 43.8441 78.3035ZM43.7047 78.0476C43.7047 78.0762 43.6856 78.1278 43.7505 78.0915L43.6989 78.0514C43.6875 78.0323 43.6989 77.9655 43.6474 78.0266L43.7047 78.0476ZM68.0459 55.2363L67.9638 55.3184L67.8836 55.4005L67.7499 55.5304L67.6696 55.6068C67.6321 55.6179 67.5979 55.6383 67.5702 55.666C67.5425 55.6936 67.5222 55.7278 67.5111 55.7654L67.4309 55.8456L67.3526 55.9239C67.1719 56.0268 67.0145 56.1659 66.8903 56.3326C66.8198 56.3606 66.7567 56.4047 66.7063 56.4614C66.6559 56.5181 66.6195 56.5859 66.6 56.6592L66.9419 56.3804L67.4022 55.9735L67.4844 55.9201L67.5665 55.8379L67.7575 55.6469C67.7656 55.6445 67.773 55.64 67.779 55.6341C67.785 55.6281 67.7894 55.6207 67.7919 55.6126L67.937 55.4674L68.0192 55.391L68.0956 55.3108L68.1758 55.2325C68.2216 55.2095 68.2789 55.1733 68.2369 55.1274C68.1949 55.0816 68.1357 55.1274 68.0975 55.179C68.0833 55.1804 68.0701 55.1871 68.0606 55.1977C68.0511 55.2083 68.0458 55.222 68.0459 55.2363ZM63.4428 35.439H63.3396L63.3721 35.4886L63.4428 35.4237C63.4428 35.4791 63.3702 35.6013 63.5287 35.5287C63.5039 35.565 63.4657 35.6051 63.5287 35.6376C63.544 35.6376 63.5803 35.6166 63.607 35.6032C63.5956 35.6376 63.523 35.6491 63.5784 35.7064C63.6338 35.7637 63.6529 35.6968 63.6872 35.6854C63.5383 35.7732 63.7102 35.8477 63.6968 35.9299C63.7541 35.9299 63.7713 35.9547 63.7579 36.0062C63.8954 36.0062 63.8954 36.2278 64.0559 36.1973V36.2889L64.117 36.2737L64.0482 36.203C63.968 36.117 63.9814 35.8878 63.7617 36.012C63.7904 35.9757 63.8381 35.9375 63.7751 35.8955C63.7636 35.8955 63.7254 35.9222 63.7006 35.9375C63.8534 35.8496 63.6853 35.7732 63.6911 35.6911C63.6395 35.6911 63.6051 35.6701 63.6108 35.6109C63.6005 35.6126 63.5899 35.6118 63.5799 35.6086C63.57 35.6053 63.5609 35.5997 63.5536 35.5922C63.5463 35.5847 63.5409 35.5755 63.5379 35.5654C63.5349 35.5554 63.5344 35.5448 63.5364 35.5345C63.4829 35.5249 63.4294 35.5135 63.4504 35.439H63.4428ZM65.6259 71.947C65.6362 71.9418 65.6458 71.9354 65.6546 71.9279C65.6546 71.9279 65.6546 71.9126 65.6546 71.905L65.6278 71.9508C65.6184 71.9489 65.6086 71.9489 65.5992 71.9508C65.5992 71.9508 65.5992 71.9623 65.5877 71.968L65.6259 71.947ZM66.1989 71.4141L66.2715 71.3282L66.3479 71.246L66.4243 71.1639L66.5102 71.0932L66.5465 71.013L66.4606 71.0397L66.388 71.1257L66.304 71.2021L66.2008 71.2728C66.1741 71.3033 66.1454 71.332 66.1206 71.3625C66.0958 71.3931 66.0805 71.4389 66.0881 71.4466C66.1454 71.4905 66.1779 71.4523 66.2085 71.4141H66.1989ZM69.3466 53.8802C69.2931 53.8802 69.2702 53.9069 69.2645 53.9566L69.1403 54.0788C68.9976 54.1982 68.8744 54.3394 68.7755 54.4971L68.6953 54.5754L68.6151 54.6537L68.5349 54.732L68.4585 54.8142L68.3763 54.8925L68.3018 54.9746C68.2522 55.0052 68.1815 55.0415 68.2656 55.0988C68.3496 55.1561 68.3591 55.0625 68.3954 55.0224L68.4718 54.944L68.5501 54.8657L68.6323 54.7817L68.701 54.7072L68.7698 54.6327L68.8271 54.5773C68.9739 54.4471 69.0973 54.2927 69.1919 54.1208C69.2626 54.0807 69.3466 54.0425 69.2569 53.9451C69.2817 53.9451 69.3008 54.0158 69.3333 53.9585C69.3466 53.9356 69.3333 53.8993 69.3333 53.8687C69.3619 53.8993 69.3867 53.8955 69.4039 53.8573C69.4039 53.8573 69.4039 53.8362 69.3944 53.8248L69.3466 53.8802ZM66.3613 56.7013C66.3937 56.7013 66.4224 56.791 66.4587 56.7013H66.367L66.3861 56.8006L66.4358 56.7681L66.3613 56.7013ZM44.8067 56.1798C44.8067 56.2066 44.8067 56.2696 44.866 56.2142L44.8125 56.1741C44.8125 56.1454 44.8125 56.0843 44.7533 56.1359L44.8067 56.1798ZM50.2235 62.1009L50.193 62.1773H50.2293L50.214 62.1028C50.1529 62.0589 50.0994 61.9462 50.023 62.078C50.1204 61.9137 49.96 61.9232 49.8855 61.8755C49.8626 61.8507 49.8396 61.8258 49.8148 61.8029L49.7881 61.8277C49.8091 61.8564 49.832 61.8831 49.853 61.908C49.9122 61.9595 49.9714 62.0111 50.0306 62.0589C50.0898 62.1066 50.1357 62.2212 50.2235 62.1028V62.1009ZM57.8388 77.6159C57.8006 77.6465 57.6841 77.6331 57.7395 77.7191C57.7948 77.805 57.8502 77.7191 57.8903 77.6694C57.9133 77.6498 57.935 77.6287 57.9553 77.6064C57.9228 77.5548 57.8751 77.5854 57.8388 77.6159ZM44.2547 55.307C44.2547 55.3547 44.2777 55.3891 44.3331 55.3853C44.3262 55.4481 44.3372 55.5116 44.3649 55.5684C44.3927 55.6252 44.4359 55.6729 44.4897 55.7061L44.5508 55.8036C44.5775 55.8876 44.5699 55.9946 44.7131 55.9831C44.7105 55.9399 44.6966 55.8981 44.6728 55.8619C44.649 55.8257 44.6162 55.7964 44.5775 55.7768L44.503 55.6909C44.5044 55.6296 44.4896 55.5691 44.4601 55.5155C44.4306 55.4618 44.3874 55.4169 44.335 55.3853C44.335 55.3375 44.314 55.2993 44.2567 55.305C44.2653 55.2734 44.2616 55.2396 44.2464 55.2106C44.2311 55.1815 44.2055 55.1593 44.1745 55.1484C44.1812 55.1171 44.1769 55.0844 44.1622 55.0559C44.1476 55.0273 44.1236 55.0047 44.0943 54.9918C44.092 54.9805 44.0881 54.9696 44.0828 54.9593C44.0828 54.9593 44.0676 54.9593 44.0599 54.9593L44.1 54.9937C44.1 55.0606 44.1 55.1255 44.1803 55.1503C44.1822 55.2076 44.1822 55.2688 44.2547 55.307ZM65.9315 71.5325L65.7692 71.6892C65.752 71.7159 65.7138 71.756 65.7214 71.7675C65.7577 71.8324 65.7959 71.7885 65.8303 71.7579C65.8737 71.7451 65.9136 71.7224 65.9467 71.6916C65.9798 71.6608 66.0054 71.6227 66.0213 71.5803C66.0308 71.5516 66.0576 71.5039 66.0499 71.4962C65.9926 71.4523 65.9602 71.4924 65.9315 71.5325ZM44.1249 78.6569L44.0485 78.6149L44.0867 78.6932C44.0962 78.7428 44.1096 78.7906 44.1745 78.7849C44.1745 78.7849 44.1974 78.7696 44.1994 78.76C44.2021 78.7483 44.2024 78.7361 44.2 78.7242C44.1977 78.7124 44.1928 78.7012 44.1857 78.6914C44.1786 78.6816 44.1696 78.6735 44.1591 78.6675C44.1486 78.6616 44.1369 78.6579 44.1249 78.6569ZM58.746 77.1021C58.6962 77.1065 58.6478 77.1215 58.6043 77.1462C58.5608 77.1709 58.5231 77.2048 58.4939 77.2454C58.4672 77.2588 58.4194 77.2607 58.4462 77.3103C58.4754 77.3036 58.5042 77.2947 58.5321 77.2836C58.6314 77.253 58.7422 77.2358 58.7422 77.0926L58.8511 77.0792L58.8282 77.0315L58.746 77.1021ZM56.9774 78.0705L56.6985 78.2176C56.5839 78.336 56.3719 78.3303 56.2477 78.5824L56.7577 78.2997C56.8106 78.2962 56.8622 78.282 56.9095 78.2581C56.9567 78.2341 56.9987 78.2009 57.0328 78.1603C57.0729 78.1374 57.134 78.1221 57.0977 78.061C57.0614 77.9998 57.0175 78.0457 56.9774 78.0705ZM64.3061 36.5086L64.2526 36.4284L64.2087 36.4704L64.287 36.5239C64.2879 36.5856 64.3123 36.6447 64.3552 36.689C64.3982 36.7334 64.4564 36.7597 64.5181 36.7626C64.5019 36.7081 64.4747 36.6574 64.4383 36.6137C64.4018 36.5701 64.3569 36.5343 64.3061 36.5086ZM52.655 85.1528C53.5475 85.3934 54.4775 85.4627 55.3959 85.3572C54.4791 85.2082 53.5393 85.2483 52.6283 85.0382C51.4173 84.8052 50.319 84.2742 49.2437 83.7012C50.2828 84.4385 51.4479 84.8453 52.6607 85.1528H52.655ZM68.1529 43.3904C68.2098 43.7325 68.3401 44.0583 68.5349 44.3454C68.4931 43.9966 68.3855 43.6589 68.2178 43.3503C67.3545 41.1289 66.3231 39.0031 64.7798 37.1618C66.1779 39.0928 67.2437 41.1996 68.1586 43.3904H68.1529ZM45.3817 55.5247C45.3492 55.4636 45.2862 55.4254 45.2422 55.4731C45.1983 55.5209 45.2862 55.5514 45.3129 55.5896C46.5414 57.4679 48.0338 59.1597 49.7441 60.613C53.6597 63.9421 58.1482 65.707 63.332 65.558C65.5495 65.4766 67.7318 64.9783 69.7649 64.0892C69.8143 64.0739 69.86 64.0488 69.8994 64.0154C69.9388 63.9819 69.9709 63.9408 69.994 63.8946C70.017 63.8483 70.0304 63.7979 70.0334 63.7463C70.0364 63.6947 70.0289 63.6431 70.0113 63.5945C69.9698 63.6013 69.9289 63.6115 69.8891 63.6251C66.7547 65.0461 63.4943 65.1722 60.1766 64.5304C55.627 63.6499 51.7038 61.5088 48.2429 58.4699C47.228 57.5495 46.2723 56.5658 45.3817 55.5247ZM69.02 68.763C68.6781 69.1947 68.3381 69.6302 67.9886 70.0561C66.2849 72.1456 64.2259 73.8513 62.1249 75.5149C59.0688 77.9445 55.7931 80.0187 52.1355 81.436C51.4307 81.711 50.7049 81.9364 49.9581 82.2C50.065 82.2668 50.1491 82.3184 50.2216 82.3623C50.4776 82.496 50.7297 82.6393 50.9856 82.7596C54.2327 84.2456 57.3899 84.2876 60.4345 82.2C63.0684 80.3912 65.0033 77.9712 66.5981 75.2437C66.6325 75.1826 66.7051 75.1176 66.5981 75.0412C66.5643 75.0593 66.5317 75.0798 66.5007 75.1023C64.0349 77.4077 61.1794 79.1439 58.2112 80.6987C57.4378 81.1307 56.5833 81.398 55.7015 81.4837C55.5945 81.4837 55.4704 81.5506 55.4341 81.4169C55.3844 81.2259 55.5697 81.2698 55.6633 81.2259C55.8543 81.1495 56.0625 81.0922 56.2592 81.0177C57.6631 80.479 58.8778 79.6138 60.1002 78.7658C62.6195 77.0162 65.0338 75.1539 66.9935 72.7549C67.9638 71.5669 68.8844 70.3865 69.0754 68.805C69.0841 68.7622 69.0898 68.7188 69.0926 68.6751C69.0257 68.6637 69.0372 68.7267 69.02 68.763ZM54.267 31.8004C53.9901 31.8157 53.7131 31.8252 53.4381 31.8481C50.6896 32.0907 48.4148 33.3284 46.4589 35.2098C44.4496 37.1389 43.0209 39.4691 41.8749 41.9846C41.321 43.1975 41.3019 44.4772 41.4432 45.7492C41.6036 47.1588 42.0773 48.4939 42.6618 49.7851C44.1019 52.9538 46.2412 55.5839 48.8713 57.832C49.1028 58.0662 49.3681 58.2644 49.6582 58.4203C51.3269 59.1591 53.128 59.5522 54.9527 59.5758C56.7443 59.6045 58.4882 59.255 60.2034 58.7564C63.7407 57.7308 66.4319 55.5094 68.7049 52.7112C69.2779 52.0141 69.5987 51.1278 69.4077 50.1958C68.8329 47.2859 67.8881 44.4616 66.5962 41.7917C65.2592 39.0795 63.6414 36.5793 61.3131 34.6081C59.2866 32.8815 56.9812 31.8157 54.267 31.8004ZM69.847 64.985C69.6866 65.0347 69.6255 65.048 69.5682 65.0709C69.3772 65.1454 69.1996 65.2123 69.0238 65.3021C64.6919 67.5501 60.1862 67.8137 55.6117 66.2723C49.0833 64.072 44.505 59.6331 41.491 53.5077C40.7099 51.8727 40.1597 50.1371 39.856 48.3507C39.6276 49.3226 39.458 50.3074 39.3479 51.2997C39.2811 51.9109 39.0862 52.5202 39.241 53.1429C40.173 56.9266 42.1384 60.124 44.7666 62.9547C45.5306 63.776 46.4398 64.4464 47.137 65.3307C47.2191 65.4338 47.4502 65.537 47.2688 65.7127C47.0873 65.8884 46.9555 65.7299 46.8199 65.6268C46.4112 65.3154 45.9929 65.0156 45.5975 64.6889C42.8967 62.458 40.6907 59.8394 39.2944 56.5943C39.2199 56.4243 39.1493 56.2543 39.0767 56.0824C39.0285 56.2037 39.0082 56.3343 39.0175 56.4644C38.9728 60.8517 39.6305 65.2178 40.9657 69.3971C42.1595 73.1102 43.8651 76.5501 46.564 79.4304C46.6335 79.5154 46.7233 79.5815 46.8251 79.6225C46.927 79.6636 47.0375 79.6783 47.1465 79.6654C48.6155 79.5226 50.0536 79.1534 51.4097 78.5709C57.4373 76.1259 62.918 72.5055 67.5321 67.9207C68.4297 67.0483 69.2081 66.0612 69.847 64.985ZM51.9865 60.1183C52.0896 60.1794 52.2176 60.2596 52.3494 60.336C54.8515 61.7819 57.4281 62.9814 60.3715 63.266C63.582 63.6073 66.8278 63.1892 69.847 62.0455C69.9641 62.0174 70.0675 61.949 70.1391 61.8522C70.2107 61.7555 70.246 61.6366 70.2386 61.5164C70.3478 59.6715 70.3414 57.8215 70.2195 55.9774C70.1794 55.3566 70.1068 54.7359 70.0514 54.1323C65.1389 59.6089 59.1172 61.6043 51.9865 60.1183ZM49.1539 81.2889C51.6336 80.7317 54.0158 79.8058 56.221 78.5423C53.9448 79.6504 51.5811 80.5691 49.1539 81.2889ZM43.2329 54.4799C42.572 52.9519 42.02 51.3819 41.4031 49.8367C41.6787 51.4971 42.3044 53.0798 43.2386 54.4799H43.2329ZM55.7378 85.256C56.3738 85.4031 58.4385 84.7823 59.2541 84.1883C58.1439 84.723 56.9578 85.0831 55.7378 85.256ZM49.3029 61.5183L49.3717 61.4457L47.689 59.8528C48.0117 60.6263 48.728 60.9988 49.3029 61.5183ZM49.4175 61.4687C49.4634 61.6597 49.5665 61.7571 49.7537 61.7399L49.4175 61.4687ZM57.9839 77.5835C58.1749 77.5357 58.2857 77.4956 58.3659 77.3581C58.2876 77.3563 58.2103 77.3764 58.1428 77.4163C58.0753 77.4561 58.0203 77.514 57.9839 77.5835ZM68.6934 44.8477C68.7225 44.777 68.7273 44.6986 68.7068 44.625C68.6864 44.5513 68.642 44.4865 68.5807 44.4409C68.5272 44.609 68.6189 44.714 68.6934 44.8477ZM64.4761 36.8046C64.5735 36.9498 64.6021 37.0625 64.7664 37.0797C64.7441 37.0137 64.706 36.9541 64.6554 36.9061C64.6048 36.8582 64.5432 36.8234 64.4761 36.8046ZM57.409 77.9196C57.2772 77.8566 57.1989 77.9063 57.1397 78.0304C57.2791 78.0934 57.3498 78.017 57.4052 77.9196H57.409ZM57.5847 77.8356L57.5943 77.8012C57.5733 77.7993 57.5522 77.7993 57.5313 77.8012C57.5313 77.8012 57.5313 77.8222 57.5217 77.8337L57.5847 77.8356ZM69.0773 45.9383C69.0773 45.9593 69.0773 45.9823 69.0678 46.0033C69.0582 46.0243 69.0792 46.0147 69.0849 46.0205C69.0849 45.9975 69.0945 45.9765 69.0964 45.9536C69.0983 45.9307 69.0811 45.9517 69.0735 45.946L69.0773 45.9383ZM68.7965 44.9929L68.766 44.9318C68.7545 44.9509 68.7354 44.97 68.7354 44.991C68.7401 45.0139 68.7499 45.0354 68.7641 45.054C68.7717 45.0406 68.7832 45.0215 68.7927 45.0005L68.7965 44.9929ZM68.8729 45.2507L68.85 45.1877C68.8383 45.2033 68.8281 45.2199 68.8195 45.2374C68.8195 45.2374 68.8195 45.2584 68.829 45.2679L68.8729 45.2507ZM68.9474 45.4876L68.9245 45.4284C68.9245 45.4284 68.9016 45.4475 68.9035 45.4551C68.9088 45.4754 68.9158 45.4952 68.9245 45.5143L68.9474 45.4876ZM68.9971 45.6786V45.7091L69.0238 45.69L68.9971 45.6786ZM44.9595 56.3556L44.9366 56.3269C44.9366 56.3269 44.9137 56.3422 44.9118 56.3498C44.9099 56.3575 44.9252 56.3689 44.9328 56.3785L44.9595 56.3556ZM44.0045 78.4582C44.0045 78.4582 43.9893 78.4449 43.9835 78.4468C43.975 78.4527 43.9673 78.4598 43.9606 78.4678L44.0026 78.4812L44.0045 78.4582ZM49.1329 83.5809C49.1329 83.5809 49.1081 83.5981 49.1081 83.6038C49.1138 83.6218 49.1215 83.6391 49.131 83.6554C49.131 83.6554 49.1578 83.6363 49.1558 83.6306C49.1471 83.6184 49.1369 83.6075 49.1253 83.5981L49.1329 83.5809Z" fill="#050404"/>
<path d="M21.581 70.0618C21.3885 70.0558 21.2054 69.9772 21.0683 69.8419C20.9313 69.7066 20.8504 69.5246 20.8418 69.3322C20.8418 68.9406 21.3556 68.4956 21.7968 68.4937C22.238 68.4918 22.5092 68.7286 22.4978 69.1087C22.4882 69.6091 22.0432 70.0676 21.581 70.0618Z" fill="#F8F2EA"/>
<path d="M60.8262 19.3834C60.843 19.1651 60.9399 18.9608 61.0981 18.8095C61.2564 18.6583 61.465 18.5709 61.6838 18.564C61.7601 18.5625 61.8358 18.5775 61.9058 18.608C61.9758 18.6386 62.0383 18.6839 62.0891 18.7408C62.1399 18.7978 62.1778 18.8651 62.2002 18.9381C62.2225 19.0111 62.2288 19.0881 62.2186 19.1637C62.2052 19.5801 61.7182 20.1665 61.3877 20.1646C61.1471 20.1646 60.8243 19.7138 60.8262 19.3834Z" fill="#F8F2EA"/>
<path d="M31.2457 40.5616C31.2457 41.0277 31.0299 41.2779 30.6536 41.2817C30.3575 41.2817 30.0672 40.9627 30.0596 40.6209C30.0596 40.321 30.4549 39.9867 30.8369 39.9848C31.2896 39.9886 31.1712 40.3706 31.2457 40.5616Z" fill="#F8F2EA"/>
<path d="M82.3716 74.2352C82.5188 74.2256 82.6202 74.2352 82.5876 74.3958C82.5379 74.6329 82.4634 74.8987 82.2052 74.9388C82.0599 74.9618 81.9318 74.7362 81.9356 74.5564C81.9452 74.262 82.211 74.2945 82.3716 74.2352Z" fill="#F8F2EA"/>
<path d="M75.9878 37.2898C75.9868 37.1873 76.007 37.0858 76.047 36.9915C76.087 36.8971 76.1461 36.8121 76.2205 36.7416C76.2949 36.6712 76.383 36.6169 76.4794 36.582C76.5757 36.5472 76.6782 36.5326 76.7805 36.5391C76.9848 36.5613 77.1729 36.6606 77.3063 36.8168C77.4398 36.973 77.5086 37.1743 77.4987 37.3796C77.4625 37.5604 77.3621 37.7221 77.2161 37.8347C77.0701 37.9473 76.8883 38.0034 76.7042 37.9924C76.5201 37.9815 76.3461 37.9043 76.2145 37.7752C76.0828 37.646 76.0023 37.4736 75.9878 37.2898Z" fill="#F8F2EA"/>
<path d="M26.3771 61.6291C26.3826 61.7011 26.3734 61.7735 26.35 61.8418C26.3266 61.9101 26.2896 61.973 26.2412 62.0266C26.1928 62.0802 26.134 62.1234 26.0684 62.1536C26.0028 62.1837 25.9317 62.2002 25.8595 62.2021C25.7185 62.1816 25.5887 62.1137 25.4914 62.0096C25.3942 61.9054 25.3354 61.7712 25.3247 61.6291C25.3315 61.4857 25.39 61.3497 25.4894 61.2461C25.5888 61.1425 25.7223 61.0784 25.8652 61.0656C25.9362 61.0681 26.0059 61.0847 26.0703 61.1145C26.1347 61.1443 26.1924 61.1867 26.2402 61.2393C26.2879 61.2918 26.3246 61.3534 26.3481 61.4203C26.3716 61.4873 26.3815 61.5583 26.3771 61.6291Z" fill="#F8F2EA"/>
<path d="M79.9873 31.3554C79.7429 31.3897 79.6455 31.2217 79.6493 31.0058C79.6487 30.9505 79.6601 30.8956 79.6827 30.8451C79.7054 30.7946 79.7388 30.7496 79.7806 30.7132C79.8224 30.6769 79.8716 30.6501 79.9248 30.6346C79.9779 30.6192 80.0338 30.6155 80.0886 30.6238C80.2796 30.6334 80.5336 30.6238 80.5527 30.9199C80.568 31.1663 80.3216 31.3554 79.9873 31.3554Z" fill="#F8F2EA"/>
<path d="M54.2671 31.8004C56.9812 31.8157 59.2866 32.8815 61.3169 34.6005C63.6452 36.5716 65.2707 39.0718 66.6 41.784C67.8919 44.454 68.8368 47.2783 69.4116 50.1881C69.6026 51.1202 69.276 52.0064 68.7087 52.7036C66.4358 55.4941 63.7427 57.7231 60.2072 58.7488C58.4882 59.2473 56.7482 59.5968 54.9566 59.5682C53.1318 59.5445 51.3307 59.1514 49.662 58.4126C49.3719 58.2568 49.1067 58.0585 48.8751 57.8244C46.245 55.5763 44.1001 52.9462 42.6656 49.7775C42.0812 48.4863 41.6075 47.1512 41.4471 45.7416C41.3038 44.4695 41.3248 43.1898 41.8787 41.977C43.0247 39.4615 44.4496 37.1313 46.4628 35.2021C48.4186 33.3208 50.6934 32.0831 53.4419 31.8405C53.7208 31.8252 53.9901 31.8157 54.2671 31.8004ZM45.8993 45.9441C45.9967 48.2265 47.2363 50.6599 49.5952 52.5069C51.0624 53.6781 52.889 54.3068 54.7662 54.2866C56.6435 54.2664 58.4561 53.5986 59.8978 52.3961C62.3904 50.2951 63.4791 47.5389 63.3358 44.3014C63.3094 43.255 63.0631 42.2258 62.613 41.2807C62.1628 40.3356 61.5188 39.4958 60.7229 38.8159C58.2857 36.69 55.4647 36.1858 52.3685 37.0071C48.5198 38.029 45.8897 41.3562 45.8993 45.9441Z" fill="#F8F2EA"/>
<path d="M69.8471 64.985C69.2079 66.0606 68.4296 67.047 67.5321 67.9188C62.9182 72.5043 57.4375 76.1254 51.4097 78.571C50.0516 79.1527 48.6115 79.5206 47.1408 79.6616C47.0318 79.6745 46.9213 79.6598 46.8194 79.6187C46.7176 79.5777 46.6278 79.5116 46.5583 79.4266C43.8594 76.5463 42.1538 73.1064 40.96 69.3933C39.6252 65.2133 38.9681 60.8465 39.0137 56.4587C39.0044 56.3285 39.0247 56.198 39.0729 56.0767C39.1455 56.2486 39.2162 56.4186 39.2906 56.5886C40.6926 59.8356 42.8987 62.4523 45.5937 64.6832C45.9891 65.0098 46.4074 65.3097 46.8161 65.621C46.9517 65.7242 47.1045 65.8655 47.265 65.707C47.4254 65.5485 47.2153 65.4262 47.1332 65.325C46.436 64.4407 45.5249 63.7702 44.7628 62.9489C42.1347 60.1183 40.1692 56.9209 39.2372 53.1372C39.0825 52.5145 39.2773 51.9052 39.3441 51.294C39.4542 50.3017 39.6238 49.3169 39.8522 48.345C40.1559 50.1313 40.7061 51.8669 41.4872 53.502C44.5012 59.6274 49.0795 64.0663 55.6079 66.2666C60.1919 67.808 64.6881 67.5444 69.02 65.2963C69.1958 65.2066 69.381 65.1397 69.5644 65.0652C69.6255 65.048 69.6866 65.0347 69.8471 64.985Z" fill="#F8F2EA"/>
<path d="M51.9866 60.1183C59.1275 61.5966 65.1472 59.6013 70.0458 54.1323C70.1012 54.7359 70.1737 55.3566 70.2138 55.9774C70.3358 57.8215 70.3421 59.6715 70.233 61.5164C70.2403 61.6366 70.2051 61.7555 70.1335 61.8522C70.0619 61.949 69.9585 62.0174 69.8414 62.0455C66.8221 63.1892 63.5763 63.6073 60.3658 63.266C57.4282 62.9814 54.8516 61.7819 52.3437 60.336C52.2177 60.2596 52.0897 60.1794 51.9866 60.1183Z" fill="#F8F2EA"/>
<path d="M69.0755 68.8127C68.8845 70.3942 67.9639 71.5745 66.9936 72.7626C65.0339 75.1616 62.6197 77.0238 60.1004 78.7734C58.878 79.6214 57.6632 80.4924 56.2593 81.0253C56.0683 81.0998 55.8601 81.1571 55.6634 81.2335C55.5698 81.2698 55.3845 81.2335 55.4342 81.4245C55.4705 81.5582 55.5946 81.499 55.7016 81.4913C56.5834 81.4057 57.4379 81.1384 58.2114 80.7063C61.1795 79.1439 64.035 77.4077 66.518 75.1023C66.549 75.0798 66.5816 75.0593 66.6154 75.0412C66.7186 75.1176 66.646 75.1826 66.6154 75.2437C65.011 77.9712 63.08 80.3912 60.4423 82.2C57.3977 84.2895 54.2404 84.2456 50.9934 82.7596C50.7298 82.6393 50.4777 82.496 50.2294 82.3623C50.1492 82.3184 50.0728 82.2668 49.9658 82.2C50.7126 81.9421 51.4384 81.7167 52.1432 81.436C55.8009 80.0168 59.0709 77.9425 62.1326 75.5149C64.2336 73.8475 66.2926 72.1418 67.9964 70.0523C68.3459 69.6263 68.6859 69.1908 69.0278 68.7592L69.0755 68.8127Z" fill="#F8F2EA"/>
<path d="M45.3817 55.5247C46.2706 56.5656 47.2243 57.5493 48.2372 58.4699C51.6982 61.5088 55.6213 63.6499 60.171 64.5304C63.4887 65.1722 66.7491 65.0461 69.8834 63.6251C69.9233 63.6115 69.9641 63.6013 70.0057 63.5945C70.0232 63.6431 70.0307 63.6948 70.0277 63.7463C70.0248 63.7979 70.0113 63.8483 69.9883 63.8946C69.9653 63.9408 69.9331 63.9819 69.8937 64.0154C69.8544 64.0488 69.8086 64.0739 69.7593 64.0892C67.728 64.9776 65.5476 65.4759 63.3321 65.558C58.1464 65.707 53.6598 63.9421 49.7442 60.613C48.0339 59.1597 46.5415 57.468 45.313 55.5896L45.3817 55.5247Z" fill="#F8F2EA"/>
<path d="M49.1541 81.2889C51.5812 80.5691 53.9449 79.6504 56.2211 78.5423C54.0159 79.8058 51.6338 80.7316 49.1541 81.2889Z" fill="#F8F2EA"/>
<path d="M43.2387 54.4799C42.3066 53.0794 41.6828 51.4966 41.4089 49.8367C42.0259 51.3819 42.5779 52.9519 43.2387 54.4799Z" fill="#F8F2EA"/>
<path d="M68.1588 43.3904C67.2439 41.1996 66.1781 39.0928 64.7876 37.1618C66.3271 39.0031 67.3585 41.1289 68.2256 43.3503C68.1817 43.335 68.1607 43.3464 68.1588 43.3904Z" fill="#F8F2EA"/>
<path d="M55.7378 85.256C56.96 85.0825 58.1481 84.7211 59.2599 84.1845C58.4386 84.7785 56.3738 85.3992 55.7378 85.256Z" fill="#F8F2EA"/>
<path d="M52.6608 85.1528C51.4479 84.8453 50.279 84.4385 49.2495 83.6974C50.3249 84.28 51.4231 84.8052 52.6341 85.0344L52.6608 85.1528Z" fill="#F8F2EA"/>
<path d="M49.3029 61.5183C48.7299 60.9988 48.0118 60.6263 47.689 59.8432L49.3717 61.4457L49.3029 61.5183Z" fill="#F8F2EA"/>
<path d="M52.6608 85.1529L52.634 85.0383C53.5451 85.2484 54.4848 85.2082 55.4016 85.3572C54.4833 85.4627 53.5533 85.3934 52.6608 85.1529Z" fill="#666666"/>
<path d="M68.2217 43.3503C68.3894 43.6589 68.497 43.9966 68.5387 44.3454C68.344 44.0583 68.2136 43.7325 68.1567 43.3904C68.1606 43.3464 68.1816 43.335 68.2217 43.3503Z" fill="#666666"/>
<path d="M69.202 54.1228C69.1072 54.2948 68.9837 54.4494 68.8368 54.5798L68.7852 54.4995C68.8842 54.3416 69.0074 54.2003 69.1504 54.0807L69.202 54.1228Z" fill="#F8F2EA"/>
<path d="M67.4104 55.9736L66.9496 56.3809L66.8979 56.3331C67.0223 56.1662 67.1798 56.0269 67.3607 55.9239C67.3763 55.9414 67.3929 55.958 67.4104 55.9736Z" fill="#F8F2EA"/>
<path d="M66.9499 56.3804L66.6077 56.6596C66.6272 56.5862 66.6636 56.5183 66.7141 56.4615C66.7646 56.4047 66.8277 56.3606 66.8983 56.3326L66.9499 56.3804Z" fill="#F8F2EA"/>
<path d="M49.4175 61.4687L49.754 61.7402C49.5666 61.7631 49.4634 61.6503 49.4175 61.4687Z" fill="#F8F2EA"/>
<path d="M56.7583 78.2998L56.2478 78.5828C56.3721 78.3304 56.5843 78.3361 56.699 78.2176L56.7583 78.2998Z" fill="#F8F2EA"/>
<path d="M57.9839 77.5837C58.0202 77.5142 58.0753 77.4562 58.1429 77.4163C58.2105 77.3765 58.2879 77.3563 58.3663 77.3581C58.286 77.4958 58.177 77.5359 57.9839 77.5837Z" fill="#666666"/>
<path d="M68.6936 44.8481C68.6114 44.7143 68.5273 44.6091 68.5808 44.4409C68.6422 44.4866 68.6866 44.5514 68.7071 44.6252C68.7275 44.6989 68.7228 44.7774 68.6936 44.8481Z" fill="#666666"/>
<path d="M64.3061 36.5086C64.3566 36.5342 64.4013 36.5697 64.4376 36.6132C64.4738 36.6566 64.5008 36.707 64.517 36.7612C64.4556 36.7583 64.3977 36.7322 64.355 36.6881C64.3123 36.6439 64.288 36.5852 64.2871 36.5238L64.3061 36.5086Z" fill="#F8F2EA"/>
<path d="M64.4761 36.8046C64.5431 36.8233 64.6045 36.8581 64.655 36.9059C64.7055 36.9538 64.7435 37.0132 64.7658 37.0791C64.6076 37.062 64.5733 36.9495 64.4761 36.8046Z" fill="#F8F2EA"/>
<path d="M63.76 36.0139C63.9818 35.8916 63.9684 36.121 64.0487 36.2051H64.0602C63.8996 36.2396 63.8996 36.0139 63.7619 36.0139H63.76Z" fill="#F8F2EA"/>
<path d="M44.4898 55.7065C44.436 55.6732 44.3927 55.6254 44.365 55.5686C44.3372 55.5117 44.3261 55.4481 44.3331 55.3853C44.3856 55.4169 44.4288 55.4619 44.4583 55.5156C44.4879 55.5693 44.5027 55.6299 44.5013 55.6912L44.4898 55.7065Z" fill="#666666"/>
<path d="M56.6985 78.2177L56.9776 78.0705L57.0331 78.1604C56.999 78.201 56.957 78.2343 56.9097 78.2582C56.8624 78.2822 56.8107 78.2964 56.7578 78.2999L56.6985 78.2177Z" fill="#666666"/>
<path d="M57.4048 77.9196C57.3438 78.0168 57.279 78.093 57.136 78.0301C57.1951 77.9062 57.2732 77.8567 57.4048 77.9196Z" fill="#666666"/>
<path d="M44.5774 55.7768C44.6158 55.7963 44.6485 55.8255 44.6722 55.8614C44.6958 55.8974 44.7097 55.939 44.7123 55.982C44.5698 55.9991 44.5774 55.887 44.5527 55.8015L44.5774 55.7768Z" fill="#666666"/>
<path d="M58.7409 77.0964C58.7409 77.2351 58.6307 77.2522 58.5319 77.2864L58.4939 77.2484C58.523 77.208 58.5604 77.1743 58.6037 77.1497C58.647 77.1252 58.6951 77.1102 58.7446 77.1059L58.7409 77.0964Z" fill="#666666"/>
<path d="M57.5814 77.8358H57.5181C57.5181 77.8242 57.5181 77.8031 57.5277 77.8031C57.5487 77.8013 57.5699 77.8013 57.591 77.8031L57.5814 77.8358Z" fill="#666666"/>
<path d="M50.0222 62.0674L49.8474 61.9135L49.8797 61.8812C49.9538 61.9287 50.1134 61.9192 50.0165 62.0826C50.0189 62.0777 50.0208 62.0726 50.0222 62.0674Z" fill="#F8F2EA"/>
<path d="M67.7619 55.6505L67.5719 55.8405L67.5168 55.7683C67.5279 55.731 67.5481 55.697 67.5757 55.6695C67.6032 55.6419 67.6372 55.6217 67.6745 55.6106L67.7619 55.6505Z" fill="#F8F2EA"/>
<path d="M44.1267 78.655C44.1386 78.6565 44.1501 78.6605 44.1603 78.6668C44.1706 78.6731 44.1794 78.6814 44.1862 78.6913C44.193 78.7011 44.1977 78.7124 44.1999 78.7242C44.2022 78.736 44.2019 78.7481 44.1991 78.7598C44.1991 78.7693 44.1839 78.7846 44.1743 78.7846C44.1095 78.7846 44.0962 78.7426 44.0867 78.6931L44.1267 78.655Z" fill="#666666"/>
<path d="M69.0735 45.946C69.0735 45.946 69.0927 45.9574 69.0927 45.9613C69.0927 45.9651 69.0927 46.0053 69.0812 46.0282C69.0812 46.0282 69.064 46.0168 69.064 46.011C69.064 46.0053 69.0697 45.967 69.0735 45.946Z" fill="#666666"/>
<path d="M65.7693 71.694L65.9308 71.5383L66.0124 71.5857C65.9966 71.6279 65.9712 71.6658 65.9383 71.6964C65.9053 71.7271 65.8657 71.7497 65.8225 71.7624L65.7693 71.694Z" fill="#666666"/>
<path d="M63.7002 35.9362C63.7135 35.8545 63.5425 35.7804 63.6907 35.693C63.6907 35.7747 63.8521 35.8507 63.7002 35.9381V35.9362Z" fill="#F8F2EA"/>
<path d="M68.7925 45.0002C68.783 45.0211 68.7716 45.0401 68.7602 45.061C68.7461 45.0425 68.7363 45.0211 68.7317 44.9983C68.7317 44.9774 68.7507 44.9584 68.7621 44.9394L68.7925 45.0002Z" fill="#666666"/>
<path d="M68.8692 45.2585L68.8252 45.2757C68.8252 45.2661 68.8118 45.2527 68.8156 45.2451C68.8243 45.2276 68.8345 45.2109 68.8462 45.1953L68.8692 45.2585Z" fill="#666666"/>
<path d="M68.9437 45.4953L68.9207 45.5221C68.912 45.503 68.905 45.4831 68.8997 45.4628C68.8997 45.4628 68.913 45.4456 68.9207 45.436L68.9437 45.4953Z" fill="#666666"/>
<path d="M69.0009 45.6958L69.0197 45.707L68.9934 45.7258L69.0009 45.6958Z" fill="#666666"/>
<path d="M69.2639 53.9432C69.3551 54.042 69.2639 54.08 69.2012 54.1199L69.1499 54.0781L69.2734 53.9565L69.2639 53.9432Z" fill="#F8F2EA"/>
<path d="M44.0943 54.9918C44.1236 55.0047 44.1476 55.0272 44.1621 55.0557C44.1767 55.0842 44.181 55.1168 44.1744 55.1481C44.0924 55.1233 44.0905 55.0585 44.0943 54.9918Z" fill="#666666"/>
<path d="M44.2547 55.3066C44.1823 55.2723 44.1823 55.2075 44.1804 55.1427C44.2113 55.1536 44.2369 55.1757 44.2521 55.2047C44.2673 55.2337 44.271 55.2674 44.2624 55.299L44.2547 55.3066Z" fill="#666666"/>
<path d="M57.89 77.6693C57.85 77.7246 57.7795 77.7798 57.7394 77.7188C57.6994 77.6579 57.8004 77.6464 57.8385 77.6159L57.89 77.6693Z" fill="#666666"/>
<path d="M45.3167 55.5893C45.29 55.5512 45.1795 55.5455 45.2462 55.4731C45.3129 55.4007 45.3529 55.4731 45.3853 55.5245L45.3167 55.5893Z" fill="#F8F2EA"/>
<path d="M67.7576 55.5297L67.8905 55.4006L67.9418 55.4765L67.7975 55.6209L67.7576 55.5297Z" fill="#F8F2EA"/>
<path d="M50.2262 62.1023C50.135 62.2201 50.0875 62.1023 50.0229 62.0662C50.0238 62.0719 50.0238 62.0777 50.0229 62.0833C50.1046 61.9523 50.1578 62.0643 50.2129 62.108L50.2262 62.1023Z" fill="#F8F2EA"/>
<path d="M69.02 68.7628C69.0372 68.7266 69.02 68.6637 69.0924 68.6828C69.0897 68.7263 69.084 68.7696 69.0753 68.8124L69.02 68.7628Z" fill="#F8F2EA"/>
<path d="M58.746 77.1012L58.8269 77.0353L58.8495 77.0824L58.7422 77.0955L58.746 77.1012Z" fill="#666666"/>
<path d="M62.2261 34.3884C62.241 34.3796 62.2579 34.3744 62.2752 34.3733C62.2926 34.3722 62.3099 34.3752 62.3259 34.3821C62.3419 34.389 62.356 34.3995 62.3671 34.4129C62.3783 34.4262 62.3861 34.442 62.39 34.4589L62.3671 34.4818C62.2985 34.4818 62.2451 34.457 62.2318 34.3827L62.2261 34.3884Z" fill="#666666"/>
<path d="M44.503 55.6909L44.5767 55.7759L44.5521 55.8005L44.4897 55.706L44.503 55.6909Z" fill="#666666"/>
<path d="M68.1033 55.1884C68.1414 55.1445 68.1795 55.0664 68.2424 55.1369C68.3053 55.2074 68.2271 55.2188 68.1814 55.2417L68.1033 55.1884Z" fill="#F8F2EA"/>
<path d="M67.4385 55.8416L67.5185 55.7615L67.5738 55.834L67.4918 55.9159L67.4385 55.8416Z" fill="#F8F2EA"/>
<path d="M67.3604 55.9237L67.4385 55.8456L67.4918 55.9199L67.4099 55.9733C67.3924 55.9577 67.3759 55.9412 67.3604 55.9237Z" fill="#F8F2EA"/>
<path d="M68.4046 55.0223C68.3684 55.0623 68.3474 55.1499 68.275 55.0985C68.2026 55.047 68.2617 55.0051 68.3112 54.9746L68.4046 55.0223Z" fill="#F8F2EA"/>
<path d="M44.8072 56.1802L44.7534 56.136C44.8168 56.0842 44.8052 56.136 44.8129 56.1744L44.8072 56.1802Z" fill="#666666"/>
<path d="M44.8126 56.1741L44.8664 56.2144C44.8069 56.2701 44.8165 56.2144 44.8069 56.1798L44.8126 56.1741Z" fill="#666666"/>
<path d="M44.9548 56.3722L44.9286 56.3946C44.9286 56.3946 44.908 56.3759 44.908 56.3666C44.908 56.3572 44.9248 56.3516 44.9323 56.3441L44.9548 56.3722Z" fill="#666666"/>
<path d="M68.4811 54.9439L68.4049 55.0221L68.3115 54.9744L68.3858 54.8925L68.4811 54.9439Z" fill="#F8F2EA"/>
<path d="M66.3651 56.7013H66.4583C66.4222 56.7849 66.3936 56.6879 66.3613 56.7013H66.3651Z" fill="#F8F2EA"/>
<path d="M66.3613 56.7013L66.4347 56.7672L66.3858 56.7992C66.3858 56.7671 66.3745 56.7333 66.367 56.7013H66.3613Z" fill="#F8F2EA"/>
<path d="M44.1 54.986L44.0601 54.9517C44.0601 54.9517 44.0791 54.9517 44.0829 54.9517C44.0882 54.9619 44.092 54.9728 44.0943 54.9841L44.1 54.986Z" fill="#666666"/>
<path d="M68.5594 54.8656L68.4813 54.9438L68.386 54.8923L68.4679 54.8142L68.5594 54.8656Z" fill="#F8F2EA"/>
<path d="M68.468 54.814L68.5442 54.732L68.6414 54.7816L68.5595 54.8654L68.468 54.814Z" fill="#F8F2EA"/>
<path d="M49.8465 61.9122C49.8258 61.8877 49.8032 61.8614 49.7825 61.8331L49.8088 61.8086C49.8333 61.8312 49.8559 61.8557 49.8785 61.8802L49.8465 61.9122Z" fill="#F8F2EA"/>
<path d="M68.5444 54.7319L68.6245 54.6537L68.7102 54.7071L68.6416 54.7814L68.5444 54.7319Z" fill="#F8F2EA"/>
<path d="M44.2568 55.305C44.3142 55.305 44.3295 55.3376 44.3353 55.3854C44.2798 55.3854 44.2626 55.3548 44.2568 55.307V55.305Z" fill="#666666"/>
<path d="M50.2142 62.1085L50.2295 62.1832H50.1931C50.2046 62.1583 50.2142 62.1334 50.2257 62.1066L50.2142 62.1085Z" fill="#F8F2EA"/>
<path d="M68.6189 54.6535L68.6989 54.5754L68.7733 54.6326L68.7047 54.7069L68.6189 54.6535Z" fill="#F8F2EA"/>
<path d="M68.8363 54.5772L68.7792 54.6324L68.7048 54.5752L68.7849 54.4971L68.8363 54.5772Z" fill="#F8F2EA"/>
<path d="M69.3478 53.8687C69.3478 53.8989 69.3478 53.9349 69.3478 53.9575C69.3157 54.0142 69.2968 53.9575 69.2722 53.9424V53.9556C69.2722 53.9065 69.3006 53.8782 69.3535 53.88L69.3478 53.8687Z" fill="#F8F2EA"/>
<path d="M69.3563 53.8805L69.4101 53.8248C69.4101 53.8363 69.4216 53.8497 69.4197 53.8574C69.4024 53.8958 69.3774 53.8997 69.3486 53.8689L69.3563 53.8805Z" fill="#F8F2EA"/>
<path d="M68.0248 55.4004L67.9428 55.4766L67.8914 55.4004L67.9714 55.3184L68.0248 55.4004Z" fill="#F8F2EA"/>
<path d="M66.4702 71.0398L66.5563 71.013L66.52 71.0934L66.4702 71.0398Z" fill="#666666"/>
<path d="M66.3977 71.1214L66.4699 71.0359L66.5193 71.0891L66.4338 71.1594C66.4208 71.1477 66.4087 71.135 66.3977 71.1214Z" fill="#666666"/>
<path d="M62.6335 34.6922L62.678 34.7638L62.5986 34.7309L62.6335 34.6922Z" fill="#666666"/>
<path d="M66.3572 71.2459L66.281 71.3279L66.2104 71.2726L66.3134 71.2021C66.3267 71.2173 66.3419 71.2326 66.3572 71.2459Z" fill="#666666"/>
<path d="M66.2809 71.328L66.2085 71.4138L66.1284 71.3623L66.2104 71.2728L66.2809 71.328Z" fill="#666666"/>
<path d="M66.2073 71.4136C66.177 71.4514 66.1449 71.4892 66.0977 71.4457C66.0977 71.4457 66.1184 71.3909 66.1279 71.3625L66.2073 71.4136Z" fill="#666666"/>
<path d="M65.9316 71.5319C65.96 71.4923 65.9921 71.4526 66.0413 71.496C66.0413 71.496 66.0224 71.5508 66.0129 71.5792L65.9316 71.5319Z" fill="#666666"/>
<path d="M64.2867 36.5234L64.2087 36.4702L64.2525 36.4284L64.3057 36.5082L64.2867 36.5234Z" fill="#F8F2EA"/>
<path d="M65.8292 71.7572C65.7951 71.7874 65.7573 71.8309 65.7214 71.7666C65.7214 71.7553 65.7517 71.7156 65.7687 71.6891L65.8292 71.7572Z" fill="#666666"/>
<path d="M65.6374 71.9511L65.6643 71.905C65.6643 71.905 65.6643 71.9223 65.6643 71.928C65.6555 71.9355 65.6458 71.942 65.6355 71.9473L65.6374 71.9511Z" fill="#666666"/>
<path d="M65.6336 71.947L65.5974 71.9756C65.5974 71.9756 65.5974 71.9603 65.6088 71.9584C65.6183 71.9565 65.628 71.9565 65.6374 71.9584L65.6336 71.947Z" fill="#666666"/>
<path d="M64.0483 36.2068L64.1168 36.2752L64.0559 36.2923C64.0559 36.2619 64.0559 36.2315 64.0559 36.2011L64.0483 36.2068Z" fill="#F8F2EA"/>
<path d="M63.7006 35.9389C63.7252 35.9238 63.763 35.8898 63.7743 35.8974C63.8367 35.9389 63.7894 35.9767 63.7592 36.0127C63.7724 35.9616 63.7592 35.9333 63.6987 35.9371L63.7006 35.9389Z" fill="#F8F2EA"/>
<path d="M63.6108 35.6128C63.6108 35.6719 63.6394 35.6909 63.6909 35.6928C63.6566 35.7043 63.6356 35.7691 63.5822 35.7138C63.5289 35.6585 63.5994 35.6452 63.6108 35.6109V35.6128Z" fill="#F8F2EA"/>
<path d="M67.7973 55.6219C67.7949 55.63 67.7904 55.6374 67.7844 55.6433C67.7785 55.6493 67.7711 55.6537 67.763 55.6562L67.6772 55.6066L67.7573 55.5304L67.7973 55.6219Z" fill="#F8F2EA"/>
<path d="M63.6101 35.6104C63.5836 35.6236 63.5476 35.6521 63.5324 35.6445C63.4736 35.6122 63.5115 35.5724 63.5324 35.5364C63.5304 35.5466 63.5309 35.5572 63.5339 35.5671C63.5369 35.5771 63.5423 35.5862 63.5495 35.5937C63.5568 35.6011 63.5658 35.6067 63.5757 35.6099C63.5855 35.6132 63.5961 35.614 63.6063 35.6122L63.6101 35.6104Z" fill="#F8F2EA"/>
<path d="M58.5319 77.2834C58.5041 77.2944 58.4755 77.3033 58.4463 77.31C58.4197 77.2606 58.4672 77.2587 58.4938 77.2454L58.5319 77.2834Z" fill="#666666"/>
<path d="M63.5361 35.5362C63.3779 35.6086 63.4542 35.4866 63.4504 35.4313C63.4294 35.5076 63.4828 35.519 63.5361 35.5304V35.5362Z" fill="#F8F2EA"/>
<path d="M57.8389 77.6155C57.8748 77.5853 57.9145 77.5551 57.9542 77.6061C57.9341 77.6282 57.9126 77.6491 57.8899 77.6685L57.8389 77.6155Z" fill="#666666"/>
<path d="M68.101 55.3201L68.0248 55.4002L67.9714 55.3182L68.0534 55.2363L68.101 55.3201Z" fill="#F8F2EA"/>
<path d="M63.4491 35.4313L63.3794 35.4953L63.3474 35.4464L63.4491 35.437V35.4313Z" fill="#F8F2EA"/>
<path d="M62.5583 34.6081L62.6324 34.6917L62.5982 34.7297L62.5203 34.6499C62.5319 34.6351 62.5446 34.6211 62.5583 34.6081Z" fill="#666666"/>
<path d="M43.7034 78.0464L43.6475 78.0259C43.6959 77.9663 43.6866 78.0259 43.6978 78.0502L43.7034 78.0464Z" fill="#666666"/>
<path d="M43.699 78.0513L43.749 78.0902C43.686 78.1254 43.7064 78.0754 43.7045 78.0476L43.699 78.0513Z" fill="#666666"/>
<path d="M56.9775 78.0704C57.0176 78.0456 57.0595 77.998 57.0976 78.0609C57.1357 78.1238 57.0728 78.1371 57.0328 78.16L56.9775 78.0704Z" fill="#666666"/>
<path d="M62.5198 34.6495L62.4343 34.5735C62.4476 34.5602 62.4609 34.5488 62.4723 34.5355L62.5578 34.6077C62.5442 34.6207 62.5315 34.6347 62.5198 34.6495Z" fill="#666666"/>
<path d="M43.8442 78.3037L43.8079 78.229L43.8672 78.2807L43.8442 78.3037Z" fill="#666666"/>
<path d="M43.8672 78.2806C43.8837 78.2968 43.899 78.3141 43.9131 78.3323C43.8634 78.3936 43.8615 78.3323 43.8442 78.3036L43.8672 78.2806Z" fill="#666666"/>
<path d="M62.3901 34.4591L62.4714 34.5347C62.46 34.548 62.4468 34.5593 62.4336 34.5725L62.3674 34.4818L62.3901 34.4591Z" fill="#666666"/>
<path d="M43.9967 78.4754V78.4982L43.9548 78.4849C43.9615 78.4769 43.9692 78.4699 43.9777 78.464C43.9777 78.464 43.9891 78.4716 43.9967 78.4754Z" fill="#666666"/>
<path d="M62.1479 34.3083C62.1996 34.3083 62.2302 34.3312 62.2264 34.3886L62.1479 34.3083Z" fill="#666666"/>
<path d="M44.0873 78.6942L44.0486 78.6149L44.128 78.6574L44.0873 78.6942Z" fill="#666666"/>
<path d="M62.1536 34.3027L62.0732 34.2242L62.1536 34.3046V34.3027Z" fill="#666666"/>
<path d="M49.1255 83.5962C49.1355 83.6123 49.1432 83.6297 49.1484 83.6479C49.1484 83.6479 49.1331 83.6651 49.1236 83.6727C49.114 83.6564 49.1063 83.6391 49.1006 83.6211C49.1006 83.6211 49.1178 83.6058 49.1255 83.5962Z" fill="#F8F2EA"/>
<path d="M62.0733 34.2241C62.0614 34.2202 62.05 34.215 62.0391 34.2089C62.0391 34.2089 62.0391 34.1936 62.0391 34.1841L62.0714 34.2279L62.0733 34.2241Z" fill="#666666"/>
<path d="M68.1814 55.2419L68.1014 55.32L68.0537 55.2362C68.0557 55.2239 68.0616 55.2127 68.0705 55.2041C68.0795 55.1955 68.0909 55.19 68.1033 55.1885L68.1814 55.2419Z" fill="#F8F2EA"/>
<path d="M66.4325 71.1635C66.408 71.1918 66.3834 71.2183 66.3569 71.2448C66.3418 71.2315 66.3286 71.2164 66.3135 71.2013L66.3966 71.1257C66.4076 71.1392 66.4196 71.1518 66.4325 71.1635Z" fill="#666666"/>
<path d="M45.8994 45.9441C45.8994 41.36 48.52 38.029 52.3744 37.0071C55.4705 36.1858 58.2954 36.69 60.7288 38.8159C61.5247 39.4958 62.1686 40.3356 62.6188 41.2807C63.069 42.2258 63.3153 43.255 63.3417 44.3015C63.4792 47.5389 62.3867 50.297 59.9036 52.3961C58.462 53.5986 56.6493 54.2664 54.7721 54.2866C52.8948 54.3068 51.0682 53.6781 49.601 52.5069C47.2364 50.6599 45.9968 48.2265 45.8994 45.9441ZM55.1076 52.7303C52.0898 52.8106 49.7596 51.5213 47.9909 49.1281C48.2963 49.7628 48.7144 50.3368 49.2248 50.8222C50.8788 52.377 52.8652 52.9672 55.098 52.843C55.3603 52.8725 55.6254 52.8261 55.862 52.7093C55.608 52.6902 55.3559 52.6177 55.1076 52.7303ZM61.934 44.9929C61.9562 43.798 61.6396 42.6213 61.021 41.5988C58.8952 38.1951 54.3799 37.1026 50.7929 39.1158C48.329 40.4967 47.0091 43.2471 47.5458 45.8868C48.2678 49.4394 51.1749 51.8556 54.8039 51.909C58.664 51.9663 61.9435 48.7843 61.934 44.9929ZM47.9374 49.0555C47.9374 48.9409 47.9259 48.8339 47.7464 48.811L47.9374 49.0555Z" fill="#050404"/>
<path d="M61.9339 44.9929C61.9434 48.7843 58.6639 51.9663 54.8095 51.909C51.1805 51.8556 48.2677 49.4394 47.5515 45.8868C47.0148 43.2471 48.3346 40.4967 50.7985 39.1158C54.3855 37.1026 58.9008 38.1951 61.0266 41.5988C61.6433 42.6219 61.9578 43.7986 61.9339 44.9929ZM50.8233 46.2478C51.7039 46.2478 52.7811 44.9948 52.6264 44.1467C52.6107 44.0686 52.571 43.9972 52.5128 43.9428C52.4545 43.8883 52.3807 43.8534 52.3017 43.843C52.2361 43.8282 52.1673 43.84 52.1104 43.8758C52.0534 43.9116 52.013 43.9685 51.998 44.034C51.8688 44.3084 51.6995 44.5621 51.4957 44.7866C51.0716 45.3157 50.6648 45.3691 50.1587 44.9241C49.8553 44.652 49.5713 44.359 49.3087 44.0474C49.1998 43.9214 49.1005 43.845 48.9439 43.9023C48.7873 43.9596 48.7701 44.1181 48.7758 44.2652C48.7968 45.1132 49.9638 46.242 50.8233 46.2478ZM58.2877 46.284C59.3191 46.3299 60.1595 45.3672 60.4651 44.4122C60.5071 44.2766 60.595 44.0837 60.4002 43.9901C60.2053 43.8965 60.0583 44.0207 59.9532 44.1945C59.7124 44.5398 59.4037 44.8322 59.046 45.054C58.8959 45.1619 58.7248 45.2369 58.5437 45.2741C58.3627 45.3112 58.1758 45.3096 57.9954 45.2693C57.815 45.2291 57.6452 45.1512 57.4971 45.0407C57.3489 44.9301 57.2259 44.7895 57.1359 44.6281C57.0309 44.4371 56.9144 44.2461 56.7998 44.0551C56.7597 43.9882 56.7157 43.9061 56.626 43.9118C56.5362 43.9175 56.5343 44.0207 56.519 44.1028C56.328 44.9852 56.987 46.3452 58.2877 46.2917V46.284Z" fill="#F8F2EA"/>
<path d="M55.0979 52.843C52.8651 52.9672 50.8787 52.377 49.2246 50.8222C48.7142 50.3368 48.2961 49.7628 47.9907 49.1281C49.767 51.5213 52.0896 52.8106 55.1074 52.7303L55.0979 52.843Z" fill="#F8F2EA"/>
<path d="M55.0979 52.8432L55.1075 52.7304C55.356 52.6176 55.6084 52.6903 55.8627 52.7094C55.6258 52.8262 55.3604 52.8727 55.0979 52.8432Z" fill="#666666"/>
<path d="M47.9363 49.0541L47.7463 48.811C47.9249 48.8338 47.9344 48.9402 47.9363 49.0541Z" fill="#F8F2EA"/>
<path d="M50.8234 46.2478C49.9639 46.2478 48.7969 45.1132 48.7664 44.2537C48.7664 44.1066 48.7664 43.9519 48.9344 43.8908C49.1025 43.8297 49.1904 43.9099 49.2993 44.036C49.5619 44.3476 49.8459 44.6405 50.1492 44.9127C50.6649 45.3577 51.0717 45.3042 51.4862 44.7751C51.6901 44.5506 51.8594 44.297 51.9886 44.0226C52.0036 43.957 52.044 43.9001 52.1009 43.8643C52.1578 43.8285 52.2267 43.8167 52.2922 43.8316C52.3713 43.842 52.4451 43.8769 52.5033 43.9313C52.5616 43.9858 52.6013 44.0571 52.6169 44.1353C52.7812 44.9948 51.704 46.2516 50.8234 46.2478Z" fill="#050404"/>
<path d="M58.2877 46.2917C56.987 46.3528 56.328 44.9929 56.5247 44.0952C56.54 44.0207 56.5247 43.9194 56.6317 43.9042C56.7387 43.8889 56.7654 43.9806 56.8055 44.0474C56.9201 44.2384 57.0366 44.4294 57.1417 44.6204C57.2316 44.7819 57.3547 44.9225 57.5028 45.033C57.6509 45.1435 57.8208 45.2215 58.0012 45.2617C58.1816 45.3019 58.3684 45.3035 58.5495 45.2664C58.7305 45.2293 58.9017 45.1543 59.0517 45.0464C59.4095 44.8246 59.7182 44.5321 59.9589 44.1869C60.064 44.013 60.1996 43.8851 60.4059 43.9825C60.6122 44.0799 60.5128 44.269 60.4708 44.4046C60.1595 45.3672 59.3191 46.3299 58.2877 46.2917Z" fill="#050404"/>
<defs>
<filter id="filter0_d_12079_1267" x="0" y="0" width="119.827" height="118" filterUnits="userSpaceOnUse" color-interpolation-filters="sRGB">
<feFlood flood-opacity="0" result="BackgroundImageFix"/>
<feColorMatrix in="SourceAlpha" type="matrix" values="0 0 0 0 0 0 0 0 0 0 0 0 0 0 0 0 0 0 127 0" result="hardAlpha"/>
<feOffset dx="5" dy="4"/>
<feGaussianBlur stdDeviation="2"/>
<feComposite in2="hardAlpha" operator="out"/>
<feColorMatrix type="matrix" values="0 0 0 0 0 0 0 0 0 0 0 0 0 0 0 0 0 0 0.25 0"/>
<feBlend mode="normal" in2="BackgroundImageFix" result="effect1_dropShadow_12079_1267"/>
<feBlend mode="normal" in="SourceGraphic" in2="effect1_dropShadow_12079_1267" result="shape"/>
</filter>
</defs>
</svg>
