<svg width="120" height="118" viewBox="0 0 120 118" fill="none" xmlns="http://www.w3.org/2000/svg">
<g filter="url(#filter0_d_12079_1458)">
<path d="M0 55.0411C0.202683 41.0641 4.88959 28.7576 14.3733 18.3476C22.1028 9.86483 31.669 4.4162 42.796 1.64453C46.2278 0.789866 49.7158 0.293499 53.2485 0.0938108C60.5531 -0.320399 67.6619 0.628974 74.5554 3.10282C81.6104 5.63486 87.8443 9.49283 93.2859 14.6277C97.9167 18.9968 101.527 24.0997 104.461 29.7298C107.482 35.5287 109.444 41.6335 110.325 48.0999C110.72 50.9994 110.898 53.9114 110.801 56.8326C110.356 70.433 105.612 82.3367 96.3605 92.3565C88.5222 100.845 78.877 106.299 67.5542 108.762C64.3067 109.468 61.0203 109.911 57.6926 109.984C42.8166 110.311 29.6994 105.683 18.514 95.9018C9.63147 88.1334 3.99527 78.3783 1.35924 66.906C0.541634 63.3504 0.103059 59.7423 0.0526748 56.0909C0.0480944 55.76 0.0206119 55.4302 0.0011451 55.0422L0 55.0411Z" fill="#060000"/>
<path d="M58.2528 104.528C50.5646 104.668 43.3939 103.408 36.5176 100.604C31.5845 98.5937 26.9754 96.0183 22.9641 92.4833C16.3695 86.673 11.5475 79.6439 8.50949 71.4065C7.18232 67.8099 6.29372 64.1048 5.82079 60.305C5.35359 56.56 5.21274 52.799 5.72689 49.0552C6.41853 44.0208 7.9003 39.2043 10.1149 34.6217C14.4824 25.5844 20.9259 18.3637 29.4202 13.0052C35.045 9.45765 41.1667 7.09562 47.7281 5.89864C50.9585 5.3087 54.2163 5.03142 57.4982 5.06223C62.5824 5.11016 67.5762 5.81078 72.404 7.41056C75.766 8.52425 78.8967 10.1651 81.8602 12.1004C91.478 18.382 98.2994 26.9378 102.588 37.5281C104.449 42.1232 105.607 46.8963 106.071 51.8348C106.296 54.2197 106.422 56.6102 106.22 58.9985C105.981 61.8352 105.408 64.6183 104.633 67.358C102.331 75.4813 98.2661 82.6187 92.4731 88.768C86.4166 95.1968 79.1773 99.8204 70.7859 102.613C68.2656 103.451 65.6364 103.867 62.9981 104.184C61.3331 104.384 59.6613 104.473 58.2528 104.53V104.528Z" fill="#F8F2EA"/>
<path d="M57.8086 99.8036C50.7825 99.93 44.2294 98.7861 37.9452 96.2404C33.4369 94.4148 29.2248 92.0763 25.559 88.8665C19.5323 83.5906 15.1255 77.2082 12.3492 69.7286C11.1363 66.4628 10.3242 63.0986 9.89203 59.6484C9.46506 56.2479 9.33634 52.8329 9.80621 49.4334C10.4383 44.8621 11.7924 40.4888 13.8164 36.3278C17.8077 28.1218 23.6962 21.5654 31.4591 16.6998C36.5994 13.4786 42.194 11.3338 48.1903 10.247C51.1425 9.71131 54.1197 9.45954 57.119 9.48751C61.7654 9.53103 66.3291 10.1672 70.7411 11.6198C73.8136 12.631 76.6747 14.121 79.383 15.8782C88.1724 21.5819 94.4063 29.3506 98.3254 38.9667C100.026 43.1391 101.085 47.4731 101.509 51.9574C101.714 54.1228 101.829 56.2935 101.645 58.462C101.426 61.0378 100.903 63.5648 100.194 66.0525C98.091 73.4285 94.376 79.9094 89.0818 85.4929C83.5469 91.3303 76.9311 95.5286 69.2624 98.064C66.9591 98.8255 64.5563 99.2026 62.1452 99.4907C60.6236 99.672 59.0958 99.7528 57.8086 99.8046V99.8036Z" fill="#181818"/>
<path d="M15.3947 21.7994C16.5638 20.0445 17.8864 18.4059 19.2995 16.8449C20.0839 15.9788 21.0171 15.2599 21.9779 14.4737C19.8984 17.0834 17.6402 19.442 15.492 21.8964C15.4073 21.9158 15.3626 21.8964 15.3947 21.7994Z" fill="#F8F2EA"/>
<path d="M88.7475 16.1888C91.2793 18.2439 93.5776 20.5306 95.6181 23.0718C95.6353 23.1551 95.6113 23.1973 95.5185 23.1665C93.3371 20.7657 90.9896 18.5292 88.6399 16.2949C88.6238 16.2082 88.6536 16.166 88.7464 16.1888H88.7475Z" fill="#F8F2EA"/>
<path d="M109.565 51.6215C109.841 53.7553 109.985 55.8948 109.776 58.0423C109.698 58.8479 109.574 59.6489 109.471 60.4522C109.232 60.3404 109.391 60.1567 109.389 60.0015C109.516 58.0069 109.633 56.0123 109.564 54.012C109.537 53.2464 109.503 52.4807 109.471 51.715C109.44 51.6226 109.48 51.5998 109.565 51.6203V51.6215Z" fill="#F8F2EA"/>
<path d="M62.0303 106.16C60.8542 106.312 59.6794 106.468 58.5022 106.614C57.396 106.752 56.2864 106.868 55.1814 107.02C54.8894 107.062 54.6111 107.016 54.3272 107.009C54.2436 107.007 54.0867 107.081 54.1061 106.893C54.1187 106.773 54.2172 106.726 54.3352 106.718C54.7566 106.691 55.1768 106.647 55.5994 106.633C57.4991 106.566 59.3851 106.35 61.2688 106.109C61.5195 106.077 61.7726 106.037 62.0303 106.159V106.16Z" fill="#F8F2EA"/>
<path d="M34.8086 9.08216C37.0805 7.81215 39.5642 7.09784 42.0319 6.34359C42.1304 6.31049 42.1545 6.355 42.1373 6.444C39.6982 7.28155 37.2695 8.14991 34.9037 9.17915C34.8098 9.20654 34.7869 9.1666 34.8086 9.08216Z" fill="#F8F2EA"/>
<path d="M86.1873 96.5787C88.1717 94.8465 90.2031 93.1646 92.0422 91.2681C91.5979 92.133 87.4366 95.9282 86.1873 96.5787Z" fill="#F8F2EA"/>
<path d="M95.0645 18.2381C95.9324 18.8737 99.2658 22.7739 99.7308 23.6605C98.0543 21.958 96.7363 19.9475 95.0645 18.2381Z" fill="#F8F2EA"/>
<path d="M86.4543 12.9595C85.252 12.2635 84.0507 11.5663 82.8484 10.8702C84.1733 11.3529 85.5749 11.6998 86.4543 12.9595Z" fill="#F8F2EA"/>
<path d="M15.1199 24.683C15.9432 23.5019 16.873 22.402 17.796 21.2985C17.8601 21.2209 17.9151 21.0384 18.0674 21.1525C18.2357 21.2791 18.0869 21.3807 18.0021 21.4811C17.0734 22.5811 16.1448 23.6822 15.2172 24.7834C15.1359 24.7971 15.0901 24.7754 15.121 24.683H15.1199Z" fill="#F8F2EA"/>
<path d="M108.873 64.8272C108.634 66.4133 108.263 67.9686 107.76 69.4931C107.732 69.5262 107.704 69.5273 107.673 69.4965C108.075 67.8499 108.484 66.2056 108.773 64.534C108.99 64.5693 108.867 64.72 108.873 64.8261V64.8272Z" fill="#F8F2EA"/>
<path d="M95.5205 23.1664C95.5537 23.1345 95.5869 23.1037 95.6201 23.0717C96.7309 24.3429 97.6996 25.7179 98.6192 27.1294C98.6501 27.2184 98.6077 27.2332 98.5321 27.215C97.6046 25.8092 96.5522 24.4958 95.5205 23.1664Z" fill="#F8F2EA"/>
<path d="M108.873 64.8269C108.829 64.7333 108.893 64.6021 108.774 64.5348C108.979 63.024 109.184 61.5132 109.389 60.0024C109.446 60.1474 109.358 60.3185 109.471 60.4532C109.272 61.9115 109.073 63.3686 108.874 64.8269H108.873Z" fill="#F8F2EA"/>
<path d="M107.228 71.218C106.979 72.4743 106.449 73.6359 106.007 74.8272C105.929 75.0372 105.838 75.2425 105.753 75.4502C105.678 75.4605 105.624 75.4525 105.674 75.3567C106.189 73.9588 106.729 72.569 107.157 71.1415C107.192 71.129 107.226 71.1176 107.249 71.1575C107.258 71.1735 107.246 71.1963 107.229 71.218H107.228Z" fill="#F8F2EA"/>
<path d="M108.014 40.8497C108.437 42.1585 108.843 43.4719 108.886 44.8594C108.595 43.5232 108.305 42.187 108.014 40.8497Z" fill="#F8F2EA"/>
<path d="M53.1141 4.01813C54.1034 3.92228 55.0882 3.76709 56.0822 3.74084C56.0867 3.79562 56.0925 3.84925 56.0971 3.90402C55.134 3.97476 54.171 4.04551 53.2068 4.11626C53.1152 4.14022 53.0889 4.10256 53.1129 4.01698L53.1141 4.01813Z" fill="#F8F2EA"/>
<path d="M4.08686 54.9853V57.6816C4.03877 57.6816 3.99067 57.6794 3.94258 57.6782C3.73875 56.7083 4.09602 55.7567 4.08686 54.9853Z" fill="#F8F2EA"/>
<path d="M6.90509 38.515C6.72417 39.0057 6.53866 39.4964 6.36346 39.9893C6.31766 40.1183 6.26269 40.2221 6.11154 40.1616C5.91687 40.0829 6.06459 39.9711 6.1081 39.8821C6.3314 39.4233 6.56042 38.9692 6.78829 38.5128C6.82837 38.4751 6.86731 38.4762 6.90624 38.5162L6.90509 38.515Z" fill="#F8F2EA"/>
<path d="M44.5744 4.98566C43.695 5.20361 42.8167 5.42155 41.9373 5.64064C42.7308 5.19904 43.6057 5.04614 44.4805 4.89095C44.5698 4.86585 44.5962 4.90236 44.5744 4.9868V4.98566Z" fill="#F8F2EA"/>
<path d="M6.07805 69.1403C5.65666 68.2936 5.53757 67.3625 5.41504 66.4314C5.63604 67.334 5.85705 68.2377 6.07805 69.1403Z" fill="#F8F2EA"/>
<path d="M15.1195 24.6829C15.1515 24.716 15.1836 24.7502 15.2157 24.7833C14.8137 25.3344 14.4118 25.8867 14.0099 26.4379C13.9755 26.415 13.9423 26.3922 13.908 26.3694C14.2961 25.7977 14.6649 25.2123 15.1195 24.6829Z" fill="#F8F2EA"/>
<path d="M22.4292 94.5669C22.9674 94.9925 23.5056 95.4182 24.0438 95.8438C23.2021 95.457 22.6811 95.0428 22.4292 94.5669Z" fill="#F8F2EA"/>
<path d="M64.3312 3.21944C63.7197 3.17379 63.1071 3.12701 62.4509 3.07794C63.1254 2.72649 63.7254 3.13956 64.3426 3.10761C64.3381 3.14412 64.3346 3.18178 64.33 3.21829L64.3312 3.21944Z" fill="#F8F2EA"/>
<path d="M75.5496 7.78477C76.2561 7.87492 76.8687 8.14535 77.4264 8.55158C76.8012 8.29598 76.1748 8.04038 75.5496 7.78477Z" fill="#F8F2EA"/>
<path d="M42.1373 6.44404C42.1018 6.41095 42.0675 6.37672 42.032 6.34363C42.545 6.10857 43.0935 6.00701 43.6328 5.8735C43.6443 5.91002 43.6557 5.94653 43.6672 5.98305C43.1565 6.13709 42.6469 6.29 42.1362 6.44404H42.1373Z" fill="#F8F2EA"/>
<path d="M67.4342 105.722C67.8705 105.593 68.3068 105.463 68.7431 105.334C68.4831 105.784 68.0045 105.681 67.6231 105.82C67.5292 105.845 67.4227 105.897 67.4342 105.722Z" fill="#F8F2EA"/>
<path d="M58.9866 107.649C59.6862 107.637 60.3767 107.439 61.0833 107.572C60.3836 107.584 59.6954 107.811 58.9866 107.649Z" fill="#F8F2EA"/>
<path d="M20.856 91.8065C21.2533 92.1785 21.6518 92.5516 22.0492 92.9236C22.024 92.9499 21.9976 92.9773 21.9724 93.0035C21.5327 92.6737 21.148 92.2881 20.856 91.8065Z" fill="#F8F2EA"/>
<path d="M23.2515 94.0932C22.8289 93.8045 22.4465 93.4725 22.1235 93.0742C22.5655 93.3378 22.9514 93.6688 23.3156 94.0271C23.3247 94.0773 23.303 94.1001 23.2515 94.0932Z" fill="#F8F2EA"/>
<path d="M8.38803 76.6623C8.10863 76.207 7.92541 75.7152 7.85327 75.1778C8.05481 75.6525 8.25635 76.1283 8.45789 76.603C8.45789 76.6498 8.43498 76.6692 8.38918 76.6635L8.38803 76.6623Z" fill="#F8F2EA"/>
<path d="M88.7482 16.1887C88.7127 16.224 88.6772 16.2594 88.6417 16.2948C88.368 16.046 88.0943 15.7973 87.8218 15.5485C88.2008 15.6729 88.4928 15.9068 88.7493 16.1887H88.7482Z" fill="#F8F2EA"/>
<path d="M98.5317 27.215C98.5604 27.1865 98.5901 27.158 98.6188 27.1295C98.9176 27.4604 99.1226 27.8461 99.2657 28.2751C99.0207 27.9214 98.7768 27.5676 98.5317 27.215Z" fill="#F8F2EA"/>
<path d="M44.5744 4.98581C44.5435 4.95386 44.5114 4.92191 44.4805 4.88996C44.9236 4.7439 45.3736 4.63208 45.8431 4.62637C45.8534 4.63778 45.8626 4.65034 45.8729 4.66175C45.4572 4.83975 45.0107 4.88996 44.5744 4.98467V4.98581Z" fill="#F8F2EA"/>
<path d="M29.8884 98.6586C30.2159 98.8492 30.5446 99.0397 30.8721 99.2292C30.4747 99.1653 30.1404 98.9804 29.8884 98.6586Z" fill="#F8F2EA"/>
<path d="M67.434 105.722C67.4569 105.832 67.56 105.787 67.623 105.82C67.2313 105.911 66.8408 106.004 66.4492 106.095C66.7492 105.878 67.0882 105.789 67.434 105.722Z" fill="#F8F2EA"/>
<path d="M109.565 51.6213C109.534 51.6533 109.503 51.6841 109.471 51.716C109.35 51.384 109.383 51.0451 109.465 50.7016L109.565 51.6213Z" fill="#F8F2EA"/>
<path d="M24.6451 95.1829C24.3427 95.0038 24.0553 94.8052 23.8149 94.5473C23.8126 94.5028 23.8355 94.4869 23.8778 94.4971C24.1779 94.6272 24.3908 94.8725 24.6428 95.0665C24.6828 95.1042 24.684 95.143 24.6451 95.1829Z" fill="#F8F2EA"/>
<path d="M34.8091 9.0822C34.8411 9.11415 34.872 9.14724 34.9041 9.17919C34.6625 9.34692 34.3945 9.4519 34.1025 9.49755C34.3098 9.30699 34.5434 9.16778 34.8079 9.08105L34.8091 9.0822Z" fill="#F8F2EA"/>
<path d="M53.114 4.01813C53.1449 4.05122 53.177 4.08431 53.2079 4.1174C52.9068 4.2703 52.593 4.19613 52.2747 4.12539C52.5541 4.09001 52.8346 4.0535 53.114 4.01813Z" fill="#F8F2EA"/>
<path d="M6.90457 38.5149C6.86563 38.5149 6.82555 38.5126 6.78662 38.5115C6.90228 38.257 7.01793 38.0026 7.13359 37.7493C7.12557 38.0322 7.07977 38.297 6.90457 38.5149Z" fill="#F8F2EA"/>
<path d="M8.83301 33.6048C8.97157 33.323 9.11012 33.04 9.24868 32.7582C9.28303 32.7741 9.31853 32.7901 9.35288 32.8061C9.2212 33.0914 9.13875 33.3994 8.83301 33.6048Z" fill="#F8F2EA"/>
<path d="M106.425 42.0319C106.357 41.7626 106.289 41.4933 106.222 41.224C106.42 41.4237 106.505 41.661 106.508 41.9258C106.552 42.017 106.508 42.041 106.423 42.0319H106.425Z" fill="#F8F2EA"/>
<path d="M105.674 75.3568C105.7 75.3876 105.726 75.4196 105.753 75.4504C105.668 75.6889 105.573 75.9216 105.344 76.175C105.428 75.8372 105.53 75.5896 105.674 75.3568Z" fill="#F8F2EA"/>
<path d="M15.3946 21.7994C15.4266 21.8313 15.4598 21.8644 15.4919 21.8964C15.3831 22.1429 15.1862 22.3174 14.9846 22.4932C15.0659 22.2284 15.1965 21.9945 15.3946 21.7994Z" fill="#F8F2EA"/>
<path d="M8.45665 76.6029C8.60093 76.8539 8.7372 77.1061 8.76697 77.4051C8.59291 77.1814 8.45092 76.9429 8.38794 76.6634C8.41084 76.6428 8.43374 76.6234 8.45665 76.6029Z" fill="#F8F2EA"/>
<path d="M24.6449 95.183C24.6449 95.1442 24.6437 95.1054 24.6426 95.0666C24.8693 95.1967 25.0766 95.3507 25.2335 95.5721C25.0147 95.4774 24.7949 95.3861 24.6449 95.1841V95.183Z" fill="#F8F2EA"/>
<path d="M105.695 39.0468C105.519 38.854 105.387 38.6452 105.434 38.2834C105.543 38.6018 105.62 38.8243 105.695 39.0468Z" fill="#F8F2EA"/>
<path d="M106.425 42.0318C106.453 41.9964 106.481 41.961 106.51 41.9257C106.624 42.1379 106.657 42.3673 106.622 42.6137C106.556 42.4197 106.49 42.2258 106.425 42.0318Z" fill="#F8F2EA"/>
<path d="M107.673 69.4963C107.703 69.5089 107.731 69.5066 107.76 69.4929C107.695 69.7006 107.63 69.9094 107.525 70.2415C107.489 69.882 107.548 69.6823 107.673 69.4975V69.4963Z" fill="#F8F2EA"/>
<path d="M45.843 4.62743C46.0812 4.50761 46.3308 4.45512 46.6915 4.49734C46.3583 4.56467 46.1304 4.67992 45.8728 4.6628C45.8625 4.65139 45.8533 4.63884 45.843 4.62743Z" fill="#F8F2EA"/>
<path d="M23.8149 94.5475C23.6271 94.3957 23.4393 94.2451 23.2515 94.0933C23.2732 94.0717 23.2938 94.0488 23.3156 94.0272C23.5297 94.1527 23.7187 94.3079 23.8778 94.4973C23.8504 94.5053 23.8297 94.5224 23.8149 94.5475Z" fill="#F8F2EA"/>
<path d="M107.229 71.2181C107.205 71.193 107.181 71.1668 107.157 71.1417C107.214 70.9431 107.271 70.7446 107.329 70.5461C107.359 70.7834 107.369 71.015 107.228 71.2181H107.229Z" fill="#F8F2EA"/>
</g>
<path d="M51.7123 81.4607C51.7019 81.6956 51.7645 82.087 51.6114 82.468C51.5507 82.6411 51.4374 82.7909 51.2874 82.8964C51.1373 83.0018 50.958 83.0577 50.7745 83.0561C50.5928 83.0279 50.4257 82.9398 50.2996 82.8059C50.1736 82.6719 50.0958 82.4998 50.0786 82.3167C49.5299 78.7886 48.6073 75.3289 47.3263 71.9961C46.228 69.0871 44.8187 66.3053 43.1229 63.699C41.0351 60.5465 38.5333 57.7836 35.4364 55.588C33.0007 53.8586 30.3127 52.7278 27.3219 52.3676C26.8418 52.3102 26.3651 52.1936 25.8901 52.1049C25.7161 52.0684 25.5595 51.9727 25.5926 51.7674C25.6081 51.6859 25.6511 51.6123 25.7145 51.5588C25.7778 51.5052 25.8576 51.4751 25.9405 51.4734C28.2875 51.1811 30.3683 50.2085 32.3396 48.9541C34.19 47.7521 35.9132 46.3646 37.4824 44.8134C40.0734 42.3037 42.3782 39.5146 44.3547 36.4971C46.7555 32.8878 48.6388 28.96 49.9499 24.8282C50.2143 23.9792 50.4527 23.1232 50.658 22.2585C50.7597 21.8673 50.9224 21.4945 51.1399 21.1537C51.2774 20.9276 51.4566 20.7658 51.7454 20.8058C51.8937 20.8126 52.0369 20.862 52.1578 20.9481C52.2788 21.0342 52.3724 21.1533 52.4274 21.2912C52.6988 21.9384 52.6918 22.6361 52.8345 23.3076C53.4347 26.1435 54.3011 28.9011 55.258 31.6326C55.994 33.736 56.8639 35.7873 57.7581 37.8298C58.4349 39.3765 59.4266 40.7196 60.427 42.0558C61.331 43.2465 62.3151 44.3742 63.3725 45.431C63.4804 45.5389 63.6021 45.6346 63.7205 45.739C64.0684 46.0504 64.0684 46.0539 64.2563 45.6172C65.0044 43.9104 65.6273 42.1567 66.231 40.3977C66.9008 38.4492 67.6124 36.511 68.0439 34.4824C68.106 34.2783 68.1839 34.0793 68.277 33.8874C68.3306 33.7532 68.4253 33.6394 68.5475 33.5622C68.6696 33.485 68.8131 33.4484 68.9573 33.4577C69.1019 33.4542 69.2432 33.5011 69.3571 33.5902C69.471 33.6794 69.5505 33.8053 69.5819 33.9465C69.7763 34.5325 69.8932 35.1414 69.9298 35.7577C70.0147 37.2977 70.2477 38.8259 70.6258 40.3212C70.9494 41.6104 71.5061 42.8248 72.0646 44.0305C73.9018 47.9889 76.5198 51.5354 79.7615 54.4571C81.3621 55.9116 83.0863 57.2095 85.127 58.0168C85.9203 58.3346 86.7522 58.5458 87.6011 58.6449C87.8603 58.6744 88.123 58.7336 88.1717 59.0206C88.2204 59.346 88.0134 59.5252 87.6985 59.6244C84.7678 60.5691 82.0272 62.0246 79.6032 63.9234C76.7053 66.1641 74.2967 68.9741 72.5256 72.1806C70.829 75.2486 69.6948 78.5953 69.1765 82.0627C69.039 82.9326 68.9677 83.8268 68.8772 84.7107C68.8589 84.9951 68.7825 85.2728 68.6528 85.5266C68.4127 85.9598 68.0456 85.9825 67.7551 85.5858C67.5095 85.218 67.3682 84.7905 67.3462 84.3488C67.0549 81.5627 66.4455 78.8191 65.5299 76.1717C64.6281 73.433 63.5039 70.7727 62.1685 68.2173C61.4431 66.8446 60.688 65.484 59.5345 64.4001C59.3082 64.172 59.0335 63.9978 58.7307 63.8904C58.4962 63.8017 58.2385 63.7958 58.0003 63.8736C57.762 63.9515 57.5575 64.1084 57.4206 64.3184C56.2027 66.0443 55.2702 67.9198 54.4403 69.851C53.3829 72.2803 52.5992 74.8198 52.1038 77.4226C51.8476 78.7535 51.7166 80.1054 51.7123 81.4607ZM73.5852 51.0941V51.1411H73.6165L73.5765 51.1045L73.5191 50.9305L73.6008 50.8679C73.9035 51.4455 74.4916 51.2994 74.984 51.4247C74.0005 50.0852 73.1493 48.6536 72.4421 47.1499C70.8571 43.773 69.8167 40.2464 69.5018 36.5162C69.4566 35.9786 69.5018 35.4202 69.2791 34.9052C69.1817 34.6877 69.0704 34.4476 68.7937 34.4459C68.5171 34.4441 68.4545 34.6894 68.3831 34.8826C68.1656 35.4206 68.0047 35.9797 67.903 36.551C67.7603 37.5601 67.5289 38.5536 67.3079 39.5487C66.7529 42.0384 66.1788 44.5194 64.8983 46.7672C64.8165 46.9116 64.8774 46.9707 64.9749 47.0543C65.4047 47.4087 65.8524 47.7408 66.3162 48.0494C66.5059 48.1799 66.5877 48.1347 66.6938 47.9503C67.1658 47.1284 67.5635 46.2661 67.8821 45.3736C68.1508 44.6089 68.3773 43.83 68.5606 43.0405C68.6789 43.0875 68.6528 43.171 68.6685 43.2336C69.2536 45.7038 70.2166 48.0688 71.5235 50.2451C71.6018 50.3755 71.647 50.56 71.7914 50.6087C72.376 50.8035 72.9588 51.0349 73.5852 51.0941ZM50.2387 80.3942C50.2487 80.6164 50.2766 80.8375 50.3222 81.0553C50.3956 81.3561 50.5708 81.6223 50.818 81.8086C50.9468 81.9026 51.0668 81.9217 51.1434 81.7721C51.3043 81.525 51.4099 81.2461 51.4531 80.9544C51.5497 79.1791 51.7566 77.4115 52.0724 75.6619C52.751 72.0083 53.8853 68.5026 55.6912 65.2335C56.6273 63.5372 57.7964 61.9992 58.8734 60.3968C59.2818 59.7696 59.7794 59.2052 60.3504 58.7214C63.8718 55.8177 67.7255 53.5698 72.2612 52.6651C73.1154 52.4911 73.9679 52.3172 74.8187 52.1293C74.9753 52.0945 75.2432 52.0632 75.2275 51.8822C75.2084 51.6613 74.944 51.6804 74.7561 51.6665C73.315 51.5343 71.8963 51.2209 70.5335 50.7339C68.6806 50.1094 67.0243 49.1055 65.3889 48.0459C62.8349 46.3896 60.6915 44.3523 59.0352 41.7826C56.1506 37.3078 54.0523 32.5077 52.9319 27.2953C52.6083 25.7886 52.3473 24.2732 52.3317 22.7248C52.3317 22.4795 52.2551 22.175 51.928 22.0985C51.6671 22.0358 51.0686 22.3194 51.0338 22.5438C50.9903 22.8274 50.8598 23.0901 50.8267 23.3616C50.6966 24.2318 50.4917 25.0892 50.2143 25.9243C47.749 34.0614 43.4152 41.0293 37.124 46.7654C36.4072 47.4196 35.6939 48.1103 34.8414 48.5696C32.6048 49.7628 30.222 50.6588 27.7534 51.235C27.5145 51.2872 27.2842 51.3733 27.0697 51.4908C26.9514 51.5569 26.8522 51.6473 26.8957 51.8039C26.9392 51.9605 27.054 51.957 27.1758 51.9675C28.9713 52.1293 30.678 52.6634 32.3691 53.2462C33.7349 53.7177 35.0919 54.217 36.2959 55.0382C38.9665 56.8563 41.136 59.1825 43.0098 61.7887C46.4233 66.5331 48.6259 71.81 49.795 77.5235C49.9937 78.4718 50.1418 79.4301 50.2387 80.3942ZM57.8608 63.1249C59.2735 63.5807 60.3226 64.4314 61.2395 65.4666C62.7723 67.196 63.75 69.2472 64.6078 71.3611C66.057 74.9277 66.9026 78.6544 67.5202 82.4419C67.6368 83.1553 67.7464 83.8686 67.8542 84.5836C67.8634 84.6976 67.9112 84.805 67.9896 84.8882C68.068 84.9714 68.1725 85.0254 68.2857 85.0412C68.5345 85.0812 68.6198 84.8498 68.7102 84.6776C68.7817 84.5529 68.8167 84.4106 68.8111 84.267C68.7878 83.8309 68.81 83.3936 68.8772 82.9621C69.0286 81.8452 69.1156 80.7213 69.3418 79.6165C70.4127 74.1768 72.9635 69.1379 76.7133 65.0543C78.4622 63.1228 80.6156 61.6008 83.0201 60.5969C84.1779 60.0808 85.3868 59.6877 86.6268 59.4243C86.9434 59.3634 86.9869 59.1981 86.7677 58.9598C86.5597 58.7638 86.3042 58.6253 86.0265 58.5579C84.6764 58.0812 83.3578 57.5192 82.0789 56.8755C79.9233 55.8403 77.9556 54.5389 76.2923 52.8165C75.9322 52.4442 75.6364 52.2946 75.1179 52.4911C74.5995 52.6877 73.9888 52.7782 73.3781 52.9244C75.5842 55.6924 78.2496 57.7419 81.6631 58.8919C81.1023 59.0031 80.5548 59.1728 80.0294 59.3982C78.4131 60.1063 77.1031 61.2337 75.9095 62.4985C72.8283 65.7659 70.6832 69.5935 69.2443 73.8386C68.9799 74.618 68.7781 75.4166 68.5484 76.3022C68.498 76.0708 68.4684 75.9316 68.4406 75.7941C67.7098 72.1962 66.3911 68.8471 64.2233 65.8616C63.035 64.2262 61.6466 62.7943 59.8285 61.8409C59.096 61.4564 59.07 61.4686 58.6106 62.1767C58.6959 62.2897 58.8751 62.2654 58.9586 62.4394C58.2749 62.1471 58.2401 62.8378 57.8608 63.1249Z" fill="#F8F2EA"/>
<path d="M58.9969 89.7752C59.001 90.0716 58.9078 90.3611 58.7314 90.5993C58.5551 90.8376 58.3055 91.0113 58.0208 91.094C57.8613 91.1583 57.6846 91.1661 57.52 91.1161C57.3554 91.0661 57.2129 90.9613 57.1161 90.8191C56.8406 90.4611 56.6886 90.0234 56.6829 89.5716C56.6773 89.3447 56.748 89.1225 56.8836 88.9405C57.0193 88.7585 57.212 88.6273 57.431 88.5678C57.6512 88.4755 57.8959 88.4597 58.1261 88.5228C58.3563 88.5858 58.5587 88.7242 58.7011 88.9157C58.9043 89.1548 59.0099 89.4617 58.9969 89.7752ZM58.3984 89.5786C58.3984 89.3089 58.3096 89.2219 58.0922 89.3072C58.0195 89.3326 57.953 89.373 57.897 89.4258C57.8409 89.4785 57.7966 89.5424 57.7668 89.6134C57.7227 89.7116 57.7187 89.8232 57.7558 89.9243C57.7928 90.0254 57.868 90.108 57.9652 90.1545C58.1792 90.2745 58.2209 90.0257 58.2923 89.9005C58.3408 89.799 58.377 89.6921 58.4001 89.5821L58.3984 89.5786ZM57.5581 89.0567C57.1353 89.2915 57.0848 89.4464 57.2797 89.9387C57.2571 89.5769 57.4015 89.3298 57.5598 89.0532L57.5581 89.0567Z" fill="#040303"/>
<path d="M33.6966 74.8303C33.6966 75.6393 33.253 76.1926 32.6162 76.1943C32.3117 76.1774 32.0252 76.0448 31.8152 75.8236C31.6053 75.6023 31.4879 75.3092 31.4871 75.0043C31.4918 74.8382 31.5292 74.6747 31.5972 74.5232C31.6652 74.3716 31.7624 74.235 31.8833 74.121C32.0042 74.0071 32.1464 73.9181 32.3017 73.8592C32.457 73.8003 32.6224 73.7726 32.7884 73.7777C33.3278 73.7794 33.7001 74.2127 33.6966 74.8303ZM33.1747 74.9695C33.1747 74.886 33.1956 74.7381 33.0355 74.7624C32.9394 74.7713 32.8498 74.8148 32.7835 74.885C32.7172 74.9551 32.6788 75.047 32.6753 75.1434C32.6753 75.267 32.7188 75.467 32.8493 75.4427C33.0738 75.4044 33.1677 75.2096 33.1782 74.9695H33.1747ZM32.4196 75.5088C32.3375 75.3197 32.3251 75.1076 32.3848 74.9103C32.4622 74.7391 32.5694 74.583 32.7014 74.4493C32.0142 74.6841 31.9081 75.0547 32.4196 75.5088Z" fill="#040303"/>
<path d="M38.5627 30.2147C38.5453 30.9541 37.9955 31.5682 37.364 31.556C36.8838 31.5473 36.4697 31.0498 36.4784 30.4965C36.4906 29.7553 37.0003 29.2247 37.6963 29.2369C38.2513 29.2473 38.5766 29.6109 38.5627 30.2147ZM37.4231 30.4808C37.5014 30.54 37.4022 30.7853 37.5762 30.747C37.7867 30.7001 37.8946 30.4774 37.9485 30.2616C37.9816 30.1311 37.8929 30.0877 37.7867 30.0877C37.5414 30.0842 37.4492 30.2303 37.4231 30.4808Z" fill="#040303"/>
<path d="M85.2088 39.199C86.0579 39.199 86.3919 39.6322 86.1849 40.4517C86.1132 40.8526 85.8871 41.2093 85.5551 41.4451C85.4333 41.5431 85.2802 41.5935 85.124 41.5871C84.9679 41.5807 84.8194 41.5179 84.706 41.4103C84.5236 41.2575 84.3731 41.0702 84.2633 40.8591C84.1534 40.648 84.0863 40.4174 84.0658 40.1803C84.0101 39.6027 84.506 39.199 85.2088 39.199ZM84.8765 40.2777C84.8765 40.61 84.9409 40.8449 85.2245 40.8936C85.4368 40.9301 85.6647 40.65 85.6612 40.3821C85.6674 40.3255 85.6611 40.2682 85.6429 40.2143C85.6246 40.1603 85.5948 40.111 85.5556 40.0698C85.5163 40.0285 85.4685 39.9963 85.4156 39.9755C85.3626 39.9546 85.3057 39.9455 85.2489 39.9489C85.0088 39.9489 84.8557 40.0846 84.8765 40.2777Z" fill="#040303"/>
<path d="M85.6158 73.6298C85.6158 74.1518 85.0817 74.7242 84.5963 74.7207C84.2981 74.7037 84.0172 74.575 83.8096 74.3603C83.6019 74.1456 83.4828 73.8606 83.4758 73.562C83.4756 73.4196 83.5035 73.2785 83.5579 73.1469C83.6123 73.0153 83.6921 72.8957 83.7928 72.795C83.8935 72.6943 84.0131 72.6145 84.1447 72.5601C84.2763 72.5057 84.4173 72.4778 84.5597 72.4781C85.0747 72.492 85.6158 73.0731 85.6158 73.6298ZM84.3979 73.6611C84.3979 73.8142 84.3544 73.9847 84.6015 73.9726C84.8485 73.9604 84.9651 73.7986 84.986 73.5602C85.0069 73.3219 84.9042 73.1844 84.7024 73.1931C84.4136 73.2036 84.3979 73.4454 84.3823 73.6611H84.3979Z" fill="#040303"/>
<path d="M59.5414 76.671C60.2374 76.6814 60.5853 76.9163 60.5679 77.3791C60.554 78.0002 60.046 78.583 59.524 78.5848C59.0508 78.5848 58.5271 77.9602 58.541 77.4121C58.5584 76.9667 58.9673 76.6605 59.5414 76.671ZM59.6702 77.6714C59.6789 77.5409 59.6389 77.4782 59.5101 77.5148C59.4405 77.5339 59.3205 77.5026 59.3361 77.6279C59.3518 77.7531 59.3935 77.8697 59.5414 77.8662C59.6893 77.8627 59.6545 77.741 59.6702 77.6714Z" fill="#040303"/>
<path d="M42.3921 25.2527C42.1956 25.2406 42.0119 25.151 41.8814 25.0036C41.7509 24.8561 41.6843 24.6629 41.6962 24.4663C41.6941 24.3625 41.7128 24.2593 41.7511 24.1628C41.7895 24.0663 41.8467 23.9785 41.9195 23.9044C41.9922 23.8303 42.0791 23.7716 42.1749 23.7315C42.2707 23.6915 42.3735 23.671 42.4774 23.6712C42.6869 23.6825 42.8836 23.776 43.0246 23.9313C43.1656 24.0867 43.2397 24.2915 43.2307 24.5011C43.2095 24.7083 43.1118 24.9001 42.9567 25.0391C42.8017 25.1781 42.6003 25.2542 42.3921 25.2527ZM42.4269 24.8212C42.6235 24.7778 42.8427 24.7395 42.8932 24.4837C42.921 24.348 42.5765 23.9827 42.4443 24.0053C42.3366 24.0128 42.236 24.0615 42.1631 24.1411C42.0903 24.2208 42.0508 24.3254 42.0528 24.4333C42.0467 24.4845 42.0521 24.5364 42.0685 24.5853C42.085 24.6342 42.1121 24.6788 42.1479 24.716C42.1837 24.7531 42.2273 24.7818 42.2755 24.8C42.3238 24.8182 42.3755 24.8255 42.4269 24.8212Z" fill="#040303"/>
<path d="M77.2788 33.5116C77.2788 33.8422 76.8943 34.3571 76.6472 34.3676C76.3636 34.378 76.0522 34.0196 76.054 33.6856C76.0669 33.5011 76.1512 33.329 76.2889 33.2056C76.4266 33.0822 76.6069 33.0172 76.7916 33.0244C76.8565 33.0212 76.9213 33.0316 76.9818 33.0549C77.0424 33.0783 77.0974 33.114 77.1433 33.1599C77.1892 33.2058 77.225 33.2608 77.2483 33.3214C77.2716 33.382 77.282 33.4468 77.2788 33.5116ZM76.5829 33.9726C76.6519 33.9301 76.7107 33.8728 76.7549 33.8048C76.7992 33.7368 76.8277 33.6598 76.8386 33.5794C76.8786 33.4281 76.7412 33.3533 76.6316 33.3567C76.5595 33.3576 76.4905 33.386 76.4387 33.4361C76.3869 33.4863 76.3563 33.5544 76.3532 33.6264C76.3535 33.7 76.3752 33.7719 76.4157 33.8334C76.4562 33.8949 76.5136 33.9433 76.5811 33.9726H76.5829Z" fill="#040303"/>
<path d="M50.2385 80.3942C50.1437 79.4273 49.9973 78.4661 49.8001 77.5148C48.6222 71.8013 46.4196 66.5244 43.0148 61.78C41.141 59.1703 38.9715 56.8476 36.3009 55.0295C35.097 54.2083 33.7399 53.709 32.3742 53.2375C30.6831 52.653 28.9763 52.1206 27.1808 51.9588C27.059 51.9483 26.9373 51.9431 26.9007 51.7952C26.8642 51.6473 26.9599 51.5482 27.0747 51.4821C27.2893 51.3646 27.5195 51.2785 27.7584 51.2263C30.227 50.6501 32.6098 49.7541 34.8464 48.5609C35.6989 48.1016 36.4122 47.4109 37.129 46.7567C43.4202 41.0154 47.7541 34.0562 50.2194 25.9156C50.492 25.0835 50.6928 24.2296 50.8196 23.3633C50.8526 23.0919 50.9831 22.8292 51.0266 22.5456C51.0614 22.3212 51.6599 22.0376 51.9209 22.1002C52.248 22.1767 52.321 22.4812 52.3245 22.7265C52.3402 24.275 52.6012 25.7903 52.9248 27.297C54.0452 32.5164 56.1434 37.3096 59.028 41.7844C60.6826 44.3523 62.8277 46.3896 65.3818 48.0477C67.0172 49.1072 68.6735 50.1111 70.5264 50.7357C71.8911 51.225 73.3122 51.5401 74.7559 51.6734C74.9438 51.6874 75.2082 51.6734 75.2274 51.8892C75.243 52.0632 74.9751 52.1014 74.8185 52.1362C73.9677 52.3259 73.1152 52.4998 72.261 52.6721C67.7253 53.5768 63.8716 55.8246 60.3503 58.7284C59.7792 59.2122 59.2816 59.7766 58.8732 60.4038C57.7962 62.0062 56.6271 63.5441 55.6911 65.2405C53.8851 68.5096 52.7508 72.0083 52.0723 75.6689C51.7564 77.4185 51.5495 79.1861 51.4529 80.9614C51.4097 81.253 51.3041 81.532 51.1432 81.7791C51.0666 81.9287 50.9466 81.9095 50.8179 81.8156C50.5706 81.6292 50.3954 81.3631 50.322 81.0623C50.2761 80.8422 50.2481 80.6188 50.2385 80.3942ZM38.0303 47.2404C38.0123 47.2585 37.9955 47.2777 37.9798 47.2978C38.0164 47.3448 38.0477 47.3135 38.079 47.2874C38.1103 47.2613 38.1677 47.2421 38.119 47.1952C38.0703 47.1482 38.0511 47.2074 38.0303 47.2404ZM38.2738 47.1273L38.5313 46.9394L38.6357 46.849L38.9054 46.621C40.205 45.6328 41.2628 44.4167 42.2493 43.1292C42.3255 43.085 42.3821 43.0135 42.4076 42.9292L42.6199 42.6438C42.6599 42.6143 42.6964 42.5812 42.6477 42.536C42.639 42.536 42.5938 42.5603 42.5642 42.5742L42.3189 42.8735L42.2354 42.997C41.1767 44.2505 40.0383 45.4343 38.8271 46.541L38.5418 46.7863L38.4478 46.8751L38.2095 47.0751C38.1816 47.103 38.1294 47.1291 38.1782 47.1726C38.2269 47.2161 38.2477 47.1586 38.2738 47.1273ZM42.9713 59.6261L42.9052 59.5495C42.8478 59.48 42.8234 59.3495 42.6669 59.4417L42.8582 59.647H42.8687C42.9248 59.7623 43.0077 59.8625 43.1105 59.9393C44.1371 61.2684 45.0757 62.6632 45.9203 64.1148C45.9777 64.0226 45.9342 63.9513 45.9029 63.8747C45.7 63.3057 45.4004 62.776 45.0173 62.3089C44.344 61.5434 43.883 60.6161 43.1836 59.8732C43.14 59.772 43.0673 59.686 42.9748 59.6261H42.9713ZM66.671 50.2416C66.6617 50.2424 66.6524 50.2424 66.6431 50.2416C66.6431 50.2416 66.6431 50.2277 66.6327 50.2207L66.6762 50.2398C67.6731 50.7148 68.7396 50.9514 69.7991 51.2124L69.827 51.1167L66.671 50.2416ZM52.2706 68.6835C53.1161 65.8766 54.2837 63.177 55.7502 60.6387C54.0902 63.0914 52.8757 65.8177 52.1627 68.6922C52.0484 69.0293 51.9816 69.3806 51.9644 69.7361C52.0984 69.3944 52.202 69.0416 52.2741 68.6818L52.2706 68.6835ZM65.5036 51.7813C65.0321 51.456 64.5084 51.3603 64.0473 51.1306C62.215 50.1957 60.5831 48.9114 59.2437 47.35C55.6215 43.2476 53.2014 38.5135 51.8565 33.2193C51.6721 32.4938 51.5312 31.7561 51.3711 31.0237C51.2893 31.0393 51.2963 31.095 51.2876 31.135C51.0122 32.2002 50.6758 33.2487 50.2803 34.2754C48.595 38.7647 45.9381 42.8261 42.4998 46.1687C40.3112 48.3052 37.8789 50.0989 35.0187 51.2454C34.9769 51.2628 34.9265 51.275 34.9282 51.3551L35.1839 51.4142C35.2866 51.4386 35.391 51.4612 35.4936 51.489C38.7993 52.3781 41.4786 54.2379 43.7508 56.7328C47.0025 60.3029 49.0659 64.5132 50.362 69.1307C50.5952 69.9623 50.7761 70.8078 51.0075 71.7404C51.0703 70.9165 51.1765 70.0965 51.3259 69.2838C52.2497 64.8351 54.2696 60.9223 57.189 57.4705C59.4142 54.8416 61.9996 52.6808 65.507 51.7796L65.5036 51.7813ZM32.0001 52.1606C35.0134 52.9174 37.7989 54.2953 40.4712 56.0456C39.4065 54.2658 33.6634 51.6908 32.0001 52.1606ZM45.6315 38.4161C47.2078 36.7111 48.1159 34.639 48.8449 32.4729C47.8874 34.5156 46.8146 36.5022 45.6315 38.4231V38.4161ZM49.0798 70.8966L49.1685 70.8653C48.9739 70.0459 48.7323 69.2385 48.4448 68.4469C48.0429 67.3247 47.6671 66.1852 47.0738 65.1413C47.0199 65.0473 46.999 64.8821 46.825 64.9134C47.5818 66.9246 48.3317 68.9097 49.0798 70.8966ZM68.3916 51.4507C67.6053 51.2681 66.9058 51.1028 66.2221 50.8818C66.1525 50.8592 66.0812 50.8262 66.0481 50.9271C66.0437 50.9414 66.0423 50.9564 66.0441 50.9713C66.046 50.9861 66.0509 51.0004 66.0586 51.0132C66.0663 51.0261 66.0767 51.0371 66.089 51.0456C66.1012 51.0542 66.1152 51.06 66.1299 51.0628C66.8467 51.3081 67.5009 51.8213 68.4003 51.4507H68.3916ZM35.1039 49.4708C34.2601 49.8971 33.4598 50.4086 32.6003 50.8053C33.5444 50.6067 34.4127 50.1439 35.1039 49.4708ZM57.149 61.6878C57.7075 60.9762 58.2834 60.2785 58.8488 59.5704C58.0363 60.0802 57.6327 60.9153 57.149 61.6878ZM64.5641 52.6582L66.2204 52.0701L66.1838 51.9762C65.6072 52.104 65.0585 52.3351 64.5641 52.6582ZM42.7417 42.4994C42.7666 42.4704 42.7866 42.4375 42.8008 42.402C42.8038 42.3943 42.8039 42.3858 42.8012 42.3781C42.7984 42.3703 42.7931 42.3638 42.786 42.3596C42.7789 42.3554 42.7705 42.3539 42.7624 42.3553C42.7543 42.3567 42.747 42.3609 42.7417 42.3672C42.7159 42.3865 42.6951 42.4115 42.6808 42.4403C42.6686 42.4699 42.6773 42.5012 42.7417 42.4994ZM64.4527 52.7034C64.444 52.7034 64.4353 52.6808 64.4266 52.6808C64.4179 52.6808 64.4092 52.6947 64.4005 52.7017C64.3918 52.7086 64.4162 52.7243 64.4249 52.7243C64.4336 52.7243 64.4423 52.7173 64.4527 52.7034ZM64.3083 52.773C64.3083 52.773 64.2944 52.7521 64.2857 52.7521C64.277 52.7521 64.2683 52.7643 64.2596 52.7713C64.2509 52.7782 64.2735 52.7921 64.2822 52.7921C64.2909 52.7921 64.2996 52.78 64.3083 52.773ZM64.1483 52.8652L64.1709 52.8461L64.15 52.8252L64.1274 52.8548L64.1483 52.8652ZM55.7867 60.5204L55.8111 60.5639C55.8111 60.5552 55.8337 60.5465 55.832 60.5412C55.8268 60.5248 55.8198 60.5091 55.8111 60.4943L55.7867 60.5204Z" fill="#040303"/>
<path d="M57.8606 63.1248C58.2399 62.8378 58.2747 62.1471 58.9776 62.4394C58.8888 62.2654 58.7096 62.2897 58.6296 62.1767C59.0819 61.4685 59.108 61.4564 59.8475 61.8409C61.6656 62.7943 63.0539 64.2261 64.2422 65.8616C66.41 68.8471 67.7218 72.1962 68.4595 75.7941C68.4873 75.9316 68.5169 76.0708 68.5674 76.3021C68.7901 75.4166 68.9919 74.618 69.2633 73.8386C70.7021 69.5969 72.8473 65.7694 75.932 62.4985C77.1255 61.2337 78.4356 60.1063 80.0518 59.3982C80.5772 59.1728 81.1248 59.0031 81.6855 58.8919C78.2668 57.7419 75.6066 55.6924 73.4006 52.9244C74.0077 52.7782 74.5958 52.6964 75.1404 52.4911C75.6849 52.2858 75.9546 52.4442 76.3147 52.8165C77.978 54.5389 79.9457 55.8403 82.1013 56.8755C83.3803 57.5192 84.6988 58.0812 86.049 58.5579C86.3267 58.6253 86.5821 58.7638 86.7901 58.9597C87.0093 59.1981 86.9641 59.3634 86.6492 59.4243C85.4092 59.6877 84.2004 60.0808 83.0426 60.5969C80.6381 61.6008 78.4846 63.1227 76.7358 65.0543C72.9859 69.1379 70.4351 74.1768 69.3642 79.6165C69.138 80.7213 69.051 81.8452 68.8997 82.9621C68.8324 83.3936 68.8102 83.8309 68.8336 84.267C68.8391 84.4106 68.8042 84.5529 68.7326 84.6776C68.6422 84.8516 68.5587 85.0812 68.3081 85.0412C68.1949 85.0253 68.0905 84.9714 68.012 84.8882C67.9336 84.805 67.8858 84.6976 67.8767 84.5836C67.7688 83.8686 67.6592 83.1552 67.5426 82.4419C66.925 78.6544 66.0794 74.9277 64.6302 71.3611C63.7725 69.2472 62.7947 67.196 61.2619 65.4666C60.3224 64.4314 59.2733 63.5807 57.8606 63.1248ZM81.8578 59.7827C80.499 59.9758 79.422 60.743 78.3781 61.5729C79.4887 60.8848 80.6522 60.2861 81.8578 59.7827ZM79.8204 56.3553C80.4174 56.8156 81.0938 57.1624 81.816 57.3783L79.8204 56.3553Z" fill="#040303"/>
<path d="M73.519 50.9271L73.5764 51.101H73.5851C72.9588 51.0419 72.3673 50.814 71.7862 50.6156C71.6418 50.5669 71.5965 50.3825 71.5182 50.252C70.2124 48.0728 69.2511 45.7048 68.6684 43.2319C68.6528 43.1693 68.6789 43.0858 68.5606 43.0388C68.3773 43.8283 68.1507 44.6072 67.882 45.3719C67.5634 46.2644 67.1657 47.1267 66.6937 47.9485C66.5876 48.1329 66.5059 48.1782 66.3162 48.0477C65.8524 47.7391 65.4047 47.4069 64.9748 47.0525C64.8774 46.969 64.8165 46.9099 64.8983 46.7654C66.1788 44.5176 66.7529 42.0367 67.3079 39.547C67.5289 38.5518 67.7603 37.5584 67.9029 36.5493C68.0047 35.978 68.1656 35.4188 68.3831 34.8808C68.4544 34.6877 68.5379 34.4424 68.7937 34.4441C69.0494 34.4459 69.1817 34.686 69.2791 34.9034C69.5088 35.4254 69.4531 35.9769 69.5018 36.5145C69.8167 40.2446 70.8571 43.7712 72.4421 47.1482C73.1489 48.6537 74.0002 50.0871 74.9839 51.4281C74.4916 51.3029 73.9035 51.449 73.6008 50.8714C73.5959 50.8482 73.5889 50.8255 73.5799 50.8035C71.5992 47.5066 70.2328 43.8778 69.547 40.0933C69.5331 40.0185 69.5801 39.8706 69.3957 39.8584C69.4116 39.9157 69.4244 39.9737 69.4339 40.0324C69.6903 42.151 70.2214 44.2272 71.0137 46.2087C71.657 47.8761 72.4981 49.4602 73.519 50.9271ZM67.2557 42.7639C67.6387 41.4683 67.9071 40.1415 68.0578 38.7989C67.7359 40.1089 67.5358 41.4451 67.2522 42.7639H67.2557ZM69.3939 39.3556C69.4479 39.0755 69.3417 38.811 69.3122 38.5553C69.3783 38.7989 69.2408 39.0912 69.3905 39.3556H69.3939Z" fill="#040303"/>
<path d="M73.5764 51.0991L73.6155 51.1348H73.5849V51.0889L73.5764 51.0991Z" fill="#040303"/>
<path d="M58.4007 89.5824C58.3784 89.6937 58.3427 89.8019 58.2944 89.9046C58.223 90.03 58.1812 90.2791 57.967 90.1589C57.8697 90.1124 57.7945 90.0297 57.7574 89.9285C57.7203 89.8273 57.7243 89.7156 57.7685 89.6172C57.7983 89.5462 57.8427 89.4822 57.8988 89.4294C57.9549 89.3766 58.0214 89.3361 58.0941 89.3107C58.3119 89.2254 58.4042 89.3124 58.4007 89.5824Z" fill="#F8F2EA"/>
<path d="M57.5601 89.0532C57.4016 89.3301 57.2501 89.5757 57.2815 89.9362C57.0829 89.4433 57.1369 89.2883 57.5601 89.0532Z" fill="#F8F2EA"/>
<path d="M33.1785 74.9697C33.168 75.21 33.0705 75.4051 32.8597 75.4434C32.7222 75.4678 32.6716 75.2692 32.6856 75.1438C32.689 75.0473 32.7275 74.9553 32.7938 74.8851C32.8602 74.8149 32.9499 74.7713 33.0461 74.7624C33.1994 74.738 33.1733 74.8861 33.1785 74.9697Z" fill="#F8F2EA"/>
<path d="M32.4195 75.5088C31.908 75.0564 32.0141 74.6859 32.7013 74.4492C32.5693 74.583 32.4621 74.7391 32.3847 74.9103C32.325 75.1076 32.3373 75.3197 32.4195 75.5088Z" fill="#F8F2EA"/>
<path d="M37.4231 30.4813C37.4527 30.2305 37.545 30.0842 37.7871 30.0929C37.8933 30.0929 37.9822 30.1312 37.9491 30.267C37.8951 30.483 37.7871 30.7059 37.5764 30.753C37.3987 30.7861 37.498 30.5405 37.4231 30.4813Z" fill="#F8F2EA"/>
<path d="M84.8764 40.2777C84.8555 40.0846 85.0086 39.9489 85.2539 39.9489C85.3108 39.9455 85.3677 39.9546 85.4207 39.9754C85.4736 39.9963 85.5214 40.0285 85.5607 40.0698C85.5999 40.111 85.6297 40.1603 85.648 40.2143C85.6662 40.2682 85.6725 40.3255 85.6663 40.3821C85.6663 40.65 85.4418 40.9301 85.2296 40.8936C84.9408 40.8449 84.8834 40.61 84.8764 40.2777Z" fill="#F8F2EA"/>
<path d="M84.3824 73.6616C84.3824 73.4456 84.4138 73.2036 84.6872 73.1931C84.8892 73.1844 84.9902 73.3516 84.9711 73.5606C84.9519 73.7696 84.8509 73.9612 84.5862 73.9734C84.3214 73.9856 84.3772 73.8149 84.3824 73.6616Z" fill="#F8F2EA"/>
<path d="M59.6703 77.6716C59.6547 77.7412 59.6791 77.8649 59.5484 77.8666C59.4178 77.8684 59.3621 77.7378 59.3429 77.628C59.3238 77.5183 59.4404 77.534 59.5171 77.5148C59.639 77.4783 59.6791 77.541 59.6703 77.6716Z" fill="#F8F2EA"/>
<path d="M42.4272 24.8221C42.3757 24.8264 42.324 24.8191 42.2757 24.8009C42.2274 24.7826 42.1837 24.7539 42.1479 24.7167C42.112 24.6796 42.0849 24.6349 42.0684 24.5859C42.052 24.537 42.0466 24.485 42.0527 24.4337C42.052 24.3266 42.0922 24.2232 42.1649 24.1446C42.2377 24.066 42.3377 24.018 42.4446 24.0105C42.577 23.9879 42.9218 24.3588 42.894 24.4895C42.8435 24.7403 42.624 24.7786 42.4272 24.8221Z" fill="#F8F2EA"/>
<path d="M76.5812 33.9733C76.5131 33.944 76.455 33.8954 76.4141 33.8335C76.3733 33.7716 76.3514 33.6991 76.3513 33.625C76.3544 33.5529 76.3851 33.4847 76.4369 33.4345C76.4887 33.3843 76.5578 33.3558 76.63 33.355C76.7397 33.355 76.8773 33.4264 76.8372 33.5779C76.8266 33.6587 76.7981 33.7361 76.7538 33.8045C76.7095 33.8729 76.6506 33.9305 76.5812 33.9733Z" fill="#F8F2EA"/>
<path d="M65.5071 51.7796C61.9996 52.6808 59.4178 54.8416 57.1821 57.4809C54.2627 60.9327 52.2428 64.8455 51.3189 69.2942C51.1673 70.1068 51.0587 70.9268 50.9936 71.7508C50.7622 70.8096 50.5813 69.964 50.3481 69.1411C49.0555 64.5237 46.992 60.3133 43.7369 56.7432C41.4647 54.2484 38.7784 52.3937 35.4797 51.4995C35.3771 51.4716 35.2727 51.449 35.1701 51.4247L34.9143 51.3655C34.9143 51.2855 34.963 51.2733 35.0048 51.2559C37.8685 50.1094 40.3008 48.3156 42.4859 46.1791C45.9305 42.8349 48.5923 38.7698 50.2803 34.2754C50.6772 33.2477 51.0147 32.198 51.2911 31.1315C51.2911 31.0915 51.2911 31.0358 51.3746 31.0202C51.5347 31.7526 51.6756 32.4903 51.86 33.2158C53.2049 38.5101 55.625 43.2441 59.2473 47.3465C60.5866 48.9079 62.2185 50.1922 64.0509 51.1271C64.5119 51.3585 65.0356 51.4542 65.5071 51.7796Z" fill="#F8F2EA"/>
<path d="M32.0002 52.1606C33.6635 51.6908 39.4066 54.2657 40.4714 56.0456C37.799 54.2953 35.0136 52.9174 32.0002 52.1606Z" fill="#F8F2EA"/>
<path d="M52.1646 68.6905C52.8775 65.8159 54.092 63.0896 55.752 60.6369C54.2856 63.1753 53.1179 65.8749 52.2724 68.6818L52.1646 68.6905Z" fill="#F8F2EA"/>
<path d="M45.6316 38.4231C46.8144 36.5045 47.8873 34.5202 48.845 32.4799C48.116 34.6459 47.2079 36.7111 45.6316 38.4231Z" fill="#F8F2EA"/>
<path d="M49.0799 70.8966C48.33 68.9097 47.5802 66.9246 46.8181 64.9203C46.9921 64.889 47.013 65.0543 47.0669 65.1482C47.6602 66.1921 48.036 67.3247 48.4379 68.4539C48.7254 69.2454 48.967 70.0529 49.1616 70.8722L49.0799 70.8966Z" fill="#F8F2EA"/>
<path d="M43.1871 59.8784C43.883 60.6247 44.3475 61.5521 45.0208 62.3141C45.4039 62.7812 45.7035 63.3109 45.9064 63.8799C45.9377 63.9565 45.9812 64.0278 45.9238 64.12C45.0792 62.6684 44.1406 61.2736 43.114 59.9445L43.1871 59.8784Z" fill="#F8F2EA"/>
<path d="M42.2493 43.1292C41.2629 44.4167 40.2051 45.6328 38.9054 46.621L38.8271 46.541C40.0383 45.4342 41.1768 44.2504 42.2354 42.997L42.2493 43.1292Z" fill="#F8F2EA"/>
<path d="M68.4005 51.4507C67.501 51.8213 66.8469 51.3081 66.1388 51.0628C66.1241 51.06 66.1101 51.0542 66.0978 51.0456C66.0855 51.0371 66.0752 51.026 66.0675 51.0132C66.0598 51.0004 66.0548 50.9861 66.053 50.9713C66.0512 50.9564 66.0526 50.9413 66.057 50.9271C66.0883 50.8261 66.1596 50.8592 66.231 50.8818C66.9147 51.1063 67.6141 51.2681 68.4005 51.4507Z" fill="#F8F2EA"/>
<path d="M35.1039 49.4708C34.4125 50.1433 33.5443 50.6054 32.6003 50.8035C33.4598 50.4086 34.2601 49.8971 35.1039 49.4708Z" fill="#F8F2EA"/>
<path d="M57.1492 61.6878C57.6328 60.9153 58.0365 60.0802 58.849 59.5704C58.2835 60.2785 57.7076 60.9762 57.1492 61.6878Z" fill="#F8F2EA"/>
<path d="M66.6746 50.2398L69.8306 51.1184L69.8027 51.2141C68.7432 50.9532 67.6767 50.7165 66.6798 50.2416L66.6746 50.2398Z" fill="#969696"/>
<path d="M64.5642 52.6582C65.0586 52.3351 65.6074 52.104 66.184 51.9762L66.2205 52.0701L64.5642 52.6582Z" fill="#969696"/>
<path d="M52.1646 68.6905L52.2743 68.6818C52.2029 69.0428 52.0999 69.3967 51.9663 69.7396C51.9831 69.3823 52.0498 69.0292 52.1646 68.6905Z" fill="#969696"/>
<path d="M38.8275 46.541L38.9059 46.6211L38.6412 46.8493L38.5471 46.7866L38.8275 46.541Z" fill="#969696"/>
<path d="M42.8607 59.6457L42.6704 59.4415C42.8261 59.3498 42.8434 59.4796 42.9075 59.5488L42.8607 59.6457Z" fill="#969696"/>
<path d="M42.9751 59.6261C43.0698 59.6869 43.1439 59.7749 43.1876 59.8786L43.1144 59.9466C43.0115 59.8697 42.9285 59.7694 42.8723 59.654L42.9751 59.6261Z" fill="#969696"/>
<path d="M42.6204 42.6439L42.4079 42.9296L42.3191 42.8738L42.5647 42.5742L42.6204 42.6439Z" fill="#969696"/>
<path d="M38.5317 46.9395L38.2739 47.1276L38.2095 47.0754L38.4481 46.8751L38.5317 46.9395Z" fill="#969696"/>
<path d="M42.2494 43.1279L42.2356 42.9964L42.3187 42.8735L42.4069 42.9289C42.3815 43.0128 42.3252 43.0839 42.2494 43.1279Z" fill="#969696"/>
<path d="M42.7417 42.4991C42.6775 42.4991 42.6688 42.4696 42.6809 42.4401C42.6952 42.4114 42.716 42.3864 42.7417 42.3672C42.747 42.3609 42.7543 42.3567 42.7624 42.3553C42.7705 42.3539 42.7788 42.3554 42.7859 42.3596C42.793 42.3638 42.7983 42.3703 42.8011 42.378C42.8038 42.3858 42.8036 42.3942 42.8007 42.4019C42.7865 42.4373 42.7666 42.4702 42.7417 42.4991Z" fill="#969696"/>
<path d="M66.6788 50.2412L66.6362 50.2224C66.6362 50.2224 66.6362 50.2412 66.6464 50.2429C66.6554 50.2444 66.6647 50.2444 66.6737 50.2429L66.6788 50.2412Z" fill="#969696"/>
<path d="M38.448 46.8746L38.5414 46.7863L38.6349 46.8486L38.5311 46.9386L38.448 46.8746Z" fill="#969696"/>
<path d="M38.0777 47.2867C38.0469 47.3124 38.016 47.3433 37.98 47.297C37.9954 47.2772 38.012 47.2583 38.0297 47.2404L38.0777 47.2867Z" fill="#969696"/>
<path d="M64.4516 52.7029C64.4414 52.7113 64.4329 52.7232 64.4244 52.7232C64.4159 52.7232 64.4074 52.7097 64.4006 52.7012C64.3938 52.6927 64.4176 52.6808 64.4261 52.6808C64.4346 52.6808 64.4431 52.6944 64.4516 52.7029Z" fill="#969696"/>
<path d="M64.3074 52.7725C64.3074 52.7725 64.2904 52.7912 64.2819 52.7912C64.2734 52.7912 64.2666 52.7776 64.2598 52.7708C64.2529 52.764 64.2768 52.7521 64.2853 52.7521C64.2938 52.7521 64.3006 52.7657 64.3074 52.7725Z" fill="#969696"/>
<path d="M64.1479 52.8643L64.1274 52.8541L64.1496 52.8252L64.17 52.8456L64.1479 52.8643Z" fill="#969696"/>
<path d="M38.0303 47.2395C38.0509 47.2069 38.0714 47.1503 38.1177 47.1949C38.164 47.2395 38.1057 47.2618 38.0783 47.2858L38.0303 47.2395Z" fill="#969696"/>
<path d="M42.8721 59.6525H42.8618L42.9081 59.5565L42.9733 59.6319L42.8721 59.6525Z" fill="#969696"/>
<path d="M38.2728 47.1268C38.247 47.1578 38.2263 47.2129 38.1781 47.1715C38.1299 47.1302 38.1781 47.1027 38.2091 47.0751L38.2728 47.1268Z" fill="#969696"/>
<path d="M42.5642 42.5737C42.5934 42.56 42.6379 42.5291 42.6465 42.536C42.6945 42.5805 42.6585 42.6131 42.6191 42.6423L42.5642 42.5737Z" fill="#969696"/>
<path d="M55.7869 60.5272L55.8111 60.5012C55.8198 60.516 55.8267 60.5317 55.8319 60.548C55.8319 60.548 55.818 60.5618 55.8111 60.5705L55.7869 60.5272Z" fill="#F8F2EA"/>
<path d="M81.8578 59.7827C80.6522 60.2862 79.4887 60.8848 78.3782 61.5729C79.4255 60.7431 80.499 59.9758 81.8578 59.7827Z" fill="#F8F2EA"/>
<path d="M79.8206 56.3553L81.8161 57.3783C81.0939 57.1624 80.4175 56.8156 79.8206 56.3553Z" fill="#F8F2EA"/>
<path d="M73.5191 50.9271C72.4975 49.4575 71.6564 47.8704 71.0137 46.2C70.2214 44.2162 69.691 42.1376 69.4357 40.0167C69.4262 39.9581 69.4134 39.9 69.3975 39.8427C69.5819 39.8549 69.5349 40.0028 69.5488 40.0776C70.2323 43.8674 71.5981 47.5017 73.58 50.8035C73.589 50.8255 73.596 50.8482 73.6008 50.8714L73.5191 50.9271Z" fill="#F8F2EA"/>
<path d="M67.2522 42.7639C67.5358 41.4451 67.7359 40.1089 68.0577 38.7989C67.9059 40.1416 67.6364 41.4684 67.2522 42.7639Z" fill="#F8F2EA"/>
<path d="M69.3905 39.3565C69.2407 39.0917 69.3783 38.8061 69.3086 38.5553C69.3382 38.8113 69.4444 39.076 69.3905 39.3565Z" fill="#969696"/>
<defs>
<filter id="filter0_d_12079_1458" x="0" y="0" width="119.827" height="118" filterUnits="userSpaceOnUse" color-interpolation-filters="sRGB">
<feFlood flood-opacity="0" result="BackgroundImageFix"/>
<feColorMatrix in="SourceAlpha" type="matrix" values="0 0 0 0 0 0 0 0 0 0 0 0 0 0 0 0 0 0 127 0" result="hardAlpha"/>
<feOffset dx="5" dy="4"/>
<feGaussianBlur stdDeviation="2"/>
<feComposite in2="hardAlpha" operator="out"/>
<feColorMatrix type="matrix" values="0 0 0 0 0 0 0 0 0 0 0 0 0 0 0 0 0 0 0.25 0"/>
<feBlend mode="normal" in2="BackgroundImageFix" result="effect1_dropShadow_12079_1458"/>
<feBlend mode="normal" in="SourceGraphic" in2="effect1_dropShadow_12079_1458" result="shape"/>
</filter>
</defs>
</svg>
