<svg width="124" height="122" viewBox="0 0 124 122" fill="none" xmlns="http://www.w3.org/2000/svg">
    <g filter="url(#filter0_d_2411_818)">
    <path d="M0 57.0426C0.210054 42.5573 5.0674 29.8033 14.896 19.0148C22.9065 10.2235 32.8206 4.57679 44.3522 1.70433C47.9088 0.818588 51.5237 0.304171 55.1848 0.0972221C62.755 -0.33205 70.1223 0.651846 77.2665 3.21565C84.578 5.83977 91.0387 9.83803 96.6781 15.1596C101.477 19.6876 105.219 24.9761 108.26 30.8109C111.39 36.8207 113.424 43.1474 114.337 49.849C114.746 52.8539 114.93 55.8718 114.831 58.8992C114.369 72.9942 109.452 85.3308 99.8645 95.7149C91.7412 104.512 81.7453 110.165 70.0108 112.717C66.6452 113.449 63.2392 113.908 59.7905 113.983C44.3735 114.323 30.7794 109.526 19.1873 99.3891C9.9817 91.3382 4.14055 81.2284 1.40866 69.3389C0.56133 65.654 0.106807 61.9147 0.0545902 58.1305C0.0498432 57.7876 0.0213614 57.4458 0.00118674 57.0438L0 57.0426Z" fill="#060000"/>
    <path d="M60.371 108.329C52.4032 108.474 44.9718 107.168 37.8454 104.263C32.7329 102.179 27.9563 99.5098 23.7991 95.8463C16.9646 89.8246 11.9673 82.54 8.81883 74.0031C7.44339 70.2756 6.52248 66.4358 6.03236 62.4979C5.54816 58.6167 5.40219 54.7189 5.93504 50.8389C6.65184 45.6214 8.18748 40.6298 10.4826 35.8806C15.0089 26.5147 21.6867 19.0314 30.49 13.4781C36.3192 9.80148 42.6636 7.35356 49.4636 6.11305C52.8114 5.50166 56.1877 5.2143 59.5889 5.24623C64.8581 5.2959 70.0334 6.02199 75.0368 7.67995C78.521 8.83414 81.7656 10.5347 84.8369 12.5403C94.8043 19.0503 101.874 27.9172 106.318 38.8926C108.247 43.6548 109.448 48.6015 109.928 53.7197C110.161 56.1912 110.291 58.6687 110.082 61.1438C109.834 64.0837 109.241 66.968 108.438 69.8073C106.052 78.226 101.839 85.623 95.8356 91.9958C89.5589 98.6584 82.0563 103.45 73.3599 106.344C70.7479 107.213 68.0231 107.644 65.2888 107.972C63.5633 108.179 61.8307 108.271 60.371 108.331V108.329Z" fill="#F8F2EA"/>
    <path d="M59.7516 103.966C52.5144 104.098 45.7644 102.907 39.2915 100.258C34.6478 98.3584 30.3091 95.9249 26.5331 92.5845C20.3254 87.0942 15.7862 80.4523 12.9265 72.6686C11.6772 69.27 10.8407 65.769 10.3955 62.1785C9.95571 58.6397 9.82313 55.0859 10.3071 51.5482C10.9582 46.7911 12.353 42.2399 14.4377 37.9097C18.5489 29.3702 24.6144 22.5472 32.6105 17.4838C37.9053 14.1316 43.6679 11.8997 49.8444 10.7686C52.8852 10.2112 55.9519 9.94914 59.0412 9.97826C63.8272 10.0235 68.5281 10.6856 73.0726 12.1972C76.2374 13.2496 79.1844 14.8001 81.9741 16.6288C91.0276 22.5644 97.4488 30.649 101.486 40.656C103.237 44.998 104.328 49.5082 104.765 54.1748C104.976 56.4283 105.095 58.6872 104.905 60.9439C104.68 63.6244 104.141 66.2542 103.411 68.843C101.244 76.5189 97.4176 83.2632 91.9643 89.0738C86.2632 95.1485 79.4485 99.5175 71.5495 102.156C69.177 102.948 66.7021 103.341 64.2185 103.641C62.6512 103.829 61.0774 103.913 59.7516 103.967V103.966Z" fill="#181818"/>
    <path d="M15.9544 22.5921C17.1661 20.7733 18.5367 19.0751 20.0012 17.4574C20.8141 16.5598 21.7813 15.8148 22.777 15C20.6219 17.7045 18.2816 20.1489 16.0553 22.6926C15.9674 22.7127 15.9212 22.6926 15.9544 22.5921Z" fill="#F8F2EA"/>
    <path d="M91.9747 16.7775C94.5986 18.9073 96.9804 21.2772 99.0952 23.9108C99.113 23.9971 99.0881 24.0409 98.9919 24.0089C96.7312 21.5208 94.2984 19.203 91.8632 16.8875C91.8465 16.7976 91.8774 16.7539 91.9735 16.7775H91.9747Z" fill="#F8F2EA"/>
    <path d="M113.549 53.4985C113.835 55.7099 113.985 57.9272 113.768 60.1528C113.687 60.9877 113.559 61.8179 113.452 62.6504C113.204 62.5345 113.369 62.3441 113.367 62.1833C113.498 60.1162 113.619 58.049 113.548 55.976C113.521 55.1825 113.485 54.389 113.452 53.5955C113.42 53.4997 113.461 53.4761 113.549 53.4973V53.4985Z" fill="#F8F2EA"/>
    <path d="M64.2858 110.02C63.067 110.178 61.8494 110.34 60.6294 110.491C59.483 110.634 58.3331 110.754 57.1878 110.912C56.8852 110.955 56.5968 110.907 56.3025 110.9C56.2159 110.898 56.0533 110.975 56.0735 110.78C56.0865 110.655 56.1886 110.607 56.3108 110.599C56.7476 110.57 57.1831 110.525 57.621 110.51C59.5898 110.441 61.5444 110.217 63.4966 109.967C63.7565 109.934 64.0187 109.893 64.2858 110.019V110.02Z" fill="#F8F2EA"/>
    <path d="M36.0743 9.41235C38.4288 8.09616 41.0028 7.35587 43.5603 6.57419C43.6623 6.5399 43.6872 6.58602 43.6694 6.67826C41.1417 7.54626 38.6246 8.4462 36.1728 9.51287C36.0755 9.54125 36.0517 9.49986 36.0743 9.41235Z" fill="#F8F2EA"/>
    <path d="M89.3213 100.091C91.3779 98.2955 93.4832 96.5524 95.3891 94.587C94.9287 95.4834 90.616 99.4166 89.3213 100.091Z" fill="#F8F2EA"/>
    <path d="M98.5212 18.9013C99.4208 19.56 102.875 23.602 103.357 24.5209C101.62 22.7565 100.254 20.6728 98.5212 18.9013Z" fill="#F8F2EA"/>
    <path d="M89.5979 13.4307C88.3518 12.7094 87.1069 11.9868 85.8608 11.2654C87.2339 11.7657 88.6865 12.1252 89.5979 13.4307Z" fill="#F8F2EA"/>
    <path d="M15.6698 25.5805C16.523 24.3566 17.4867 23.2166 18.4432 22.073C18.5096 21.9926 18.5666 21.8034 18.7244 21.9217C18.8989 22.0529 18.7446 22.1582 18.6568 22.2622C17.6944 23.4022 16.7319 24.5434 15.7706 25.6846C15.6864 25.6988 15.6389 25.6763 15.671 25.5805H15.6698Z" fill="#F8F2EA"/>
    <path d="M112.832 67.1845C112.584 68.8282 112.199 70.4401 111.678 72.02C111.65 72.0543 111.62 72.0555 111.588 72.0235C112.005 70.3171 112.428 68.613 112.729 66.8806C112.953 66.9172 112.826 67.0733 112.832 67.1833V67.1845Z" fill="#F8F2EA"/>
    <path d="M98.9937 24.0087C99.0281 23.9756 99.0625 23.9437 99.0969 23.9106C100.248 25.228 101.252 26.653 102.205 28.1158C102.237 28.208 102.193 28.2234 102.115 28.2045C101.154 26.7476 100.063 25.3864 98.9937 24.0087Z" fill="#F8F2EA"/>
    <path d="M112.832 67.1843C112.786 67.0873 112.852 66.9513 112.729 66.8815C112.941 65.3158 113.154 63.7501 113.366 62.1844C113.426 62.3346 113.334 62.512 113.452 62.6515C113.245 64.1628 113.039 65.673 112.833 67.1843H112.832Z" fill="#F8F2EA"/>
    <path d="M111.128 73.8078C110.869 75.1098 110.319 76.3136 109.861 77.5482C109.781 77.7658 109.687 77.9787 109.599 78.1939C109.521 78.2045 109.465 78.1963 109.517 78.0969C110.05 76.6483 110.61 75.2079 111.054 73.7285C111.09 73.7155 111.125 73.7037 111.149 73.7451C111.158 73.7616 111.145 73.7853 111.129 73.8078H111.128Z" fill="#F8F2EA"/>
    <path d="M111.942 42.3351C112.38 43.6915 112.802 45.0526 112.845 46.4906C112.544 45.1058 112.244 43.7211 111.942 42.3351Z" fill="#F8F2EA"/>
    <path d="M55.0456 4.16419C56.0709 4.06486 57.0915 3.90403 58.1216 3.87683C58.1263 3.93359 58.1323 3.98917 58.137 4.04594C57.139 4.11926 56.1409 4.19258 55.1417 4.2659C55.0467 4.29073 55.0194 4.2517 55.0444 4.16301L55.0456 4.16419Z" fill="#F8F2EA"/>
    <path d="M4.23551 56.9847V59.7791C4.18567 59.7791 4.13582 59.7767 4.08598 59.7755C3.87474 58.7704 4.245 57.7841 4.23551 56.9847Z" fill="#F8F2EA"/>
    <path d="M7.15602 39.9155C6.96852 40.424 6.77627 40.9325 6.59469 41.4434C6.54722 41.577 6.49026 41.6847 6.33361 41.622C6.13186 41.5404 6.28495 41.4245 6.33005 41.3323C6.56147 40.8569 6.79881 40.3862 7.03498 39.9132C7.07651 39.8741 7.11686 39.8753 7.15721 39.9167L7.15602 39.9155Z" fill="#F8F2EA"/>
    <path d="M46.195 5.16696C45.2836 5.39283 44.3733 5.6187 43.4619 5.84575C44.2843 5.3881 45.191 5.22963 46.0977 5.0688C46.1902 5.04279 46.2175 5.08063 46.195 5.16814V5.16696Z" fill="#F8F2EA"/>
    <path d="M6.29894 71.6545C5.86222 70.777 5.7388 69.812 5.61182 68.847C5.84086 69.7825 6.0699 70.719 6.29894 71.6545Z" fill="#F8F2EA"/>
    <path d="M15.6694 25.5804C15.7026 25.6147 15.7359 25.6502 15.7691 25.6845C15.3525 26.2557 14.936 26.8281 14.5194 27.3992C14.4838 27.3756 14.4494 27.3519 14.4138 27.3283C14.8161 26.7358 15.1983 26.1292 15.6694 25.5804Z" fill="#F8F2EA"/>
    <path d="M23.2449 98.0057C23.8026 98.4468 24.3604 98.8879 24.9182 99.329C24.0459 98.9281 23.506 98.4988 23.2449 98.0057Z" fill="#F8F2EA"/>
    <path d="M66.6703 3.33648C66.0366 3.28918 65.4017 3.2407 64.7217 3.18985C65.4207 2.82561 66.0425 3.2537 66.6822 3.22059C66.6774 3.25843 66.6739 3.29746 66.6691 3.3353L66.6703 3.33648Z" fill="#F8F2EA"/>
    <path d="M78.2966 8.06787C79.0289 8.16129 79.6638 8.44156 80.2417 8.86256C79.5937 8.59766 78.9446 8.33277 78.2966 8.06787Z" fill="#F8F2EA"/>
    <path d="M43.6695 6.67832C43.6327 6.64403 43.5971 6.60855 43.5603 6.57425C44.092 6.33064 44.6604 6.2254 45.2194 6.08704C45.2312 6.12488 45.2431 6.16272 45.255 6.20056C44.7257 6.36021 44.1976 6.51867 43.6683 6.67832H43.6695Z" fill="#F8F2EA"/>
    <path d="M69.8861 109.566C70.3383 109.433 70.7904 109.298 71.2426 109.164C70.9732 109.63 70.4771 109.524 70.0819 109.668C69.9846 109.694 69.8743 109.747 69.8861 109.566Z" fill="#F8F2EA"/>
    <path d="M61.1316 111.564C61.8567 111.551 62.5723 111.346 63.3045 111.483C62.5794 111.496 61.8662 111.732 61.1316 111.564Z" fill="#F8F2EA"/>
    <path d="M21.6145 95.145C22.0263 95.5305 22.4393 95.9172 22.8511 96.3027C22.825 96.3299 22.7977 96.3583 22.7716 96.3855C22.3159 96.0437 21.9171 95.644 21.6145 95.145Z" fill="#F8F2EA"/>
    <path d="M24.0969 97.5148C23.659 97.2156 23.2626 96.8715 22.928 96.4587C23.3861 96.7319 23.786 97.0749 24.1634 97.4462C24.1729 97.4982 24.1503 97.5219 24.0969 97.5148Z" fill="#F8F2EA"/>
    <path d="M8.69313 79.45C8.40356 78.9782 8.21368 78.4685 8.13892 77.9115C8.34778 78.4034 8.55665 78.8966 8.76552 79.3885C8.76552 79.437 8.74178 79.4571 8.69431 79.4512L8.69313 79.45Z" fill="#F8F2EA"/>
    <path d="M91.9752 16.7773C91.9384 16.814 91.9016 16.8506 91.8648 16.8873C91.5812 16.6295 91.2976 16.3717 91.0151 16.1139C91.4079 16.2428 91.7106 16.4852 91.9764 16.7773H91.9752Z" fill="#F8F2EA"/>
    <path d="M102.115 28.2047C102.144 28.1751 102.175 28.1455 102.205 28.116C102.514 28.4589 102.727 28.8586 102.875 29.3033C102.621 28.9367 102.368 28.5701 102.115 28.2047Z" fill="#F8F2EA"/>
    <path d="M46.1952 5.16706C46.1632 5.13395 46.1299 5.10084 46.0979 5.06773C46.5572 4.91636 47.0236 4.80047 47.5101 4.79456C47.5208 4.80638 47.5303 4.81939 47.541 4.83122C47.1102 5.0157 46.6474 5.06773 46.1952 5.16588V5.16706Z" fill="#F8F2EA"/>
    <path d="M30.9753 102.246C31.3148 102.444 31.6553 102.641 31.9948 102.837C31.583 102.771 31.2364 102.58 30.9753 102.246Z" fill="#F8F2EA"/>
    <path d="M69.8861 109.566C69.9098 109.68 70.0166 109.634 70.0819 109.668C69.676 109.763 69.2713 109.858 68.8655 109.953C69.1764 109.728 69.5277 109.636 69.8861 109.566Z" fill="#F8F2EA"/>
    <path d="M113.549 53.4984C113.517 53.5315 113.485 53.5635 113.451 53.5966C113.326 53.2525 113.36 52.9012 113.446 52.5453L113.549 53.4984Z" fill="#F8F2EA"/>
    <path d="M25.5412 98.6441C25.2279 98.4585 24.93 98.2527 24.6808 97.9854C24.6785 97.9393 24.7022 97.9228 24.7461 97.9334C25.057 98.0682 25.2778 98.3225 25.5388 98.5235C25.5804 98.5625 25.5816 98.6027 25.5412 98.6441Z" fill="#F8F2EA"/>
    <path d="M36.0745 9.4125C36.1077 9.44561 36.1398 9.4799 36.173 9.51302C35.9226 9.68685 35.6449 9.79565 35.3423 9.84295C35.5571 9.64546 35.7992 9.50119 36.0733 9.41132L36.0745 9.4125Z" fill="#F8F2EA"/>
    <path d="M55.0457 4.16412C55.0777 4.19842 55.1109 4.23271 55.143 4.26701C54.8309 4.42547 54.5057 4.3486 54.1758 4.27528C54.4653 4.23863 54.7561 4.20078 55.0457 4.16412Z" fill="#F8F2EA"/>
    <path d="M7.15568 39.9154C7.11533 39.9154 7.0738 39.913 7.03345 39.9118C7.15331 39.6481 7.27317 39.3844 7.39303 39.1219C7.38472 39.4152 7.33725 39.6895 7.15568 39.9154Z" fill="#F8F2EA"/>
    <path d="M9.1543 34.8269C9.29789 34.5348 9.44149 34.2415 9.58508 33.9494C9.62069 33.966 9.65748 33.9825 9.69308 33.9991C9.5566 34.2947 9.47116 34.614 9.1543 34.8269Z" fill="#F8F2EA"/>
    <path d="M110.295 43.5603C110.225 43.2812 110.155 43.0021 110.085 42.723C110.29 42.93 110.378 43.1759 110.381 43.4503C110.426 43.5449 110.381 43.5697 110.294 43.5603H110.295Z" fill="#F8F2EA"/>
    <path d="M109.516 78.0971C109.544 78.129 109.571 78.1621 109.598 78.1941C109.51 78.4412 109.412 78.6825 109.175 78.945C109.262 78.595 109.368 78.3384 109.516 78.0971Z" fill="#F8F2EA"/>
    <path d="M15.9544 22.592C15.9876 22.6252 16.022 22.6594 16.0553 22.6926C15.9425 22.948 15.7384 23.1289 15.5295 23.311C15.6138 23.0367 15.7491 22.7943 15.9544 22.592Z" fill="#F8F2EA"/>
    <path d="M8.76408 79.3884C8.91361 79.6486 9.05483 79.9099 9.08568 80.2198C8.9053 79.988 8.75814 79.7408 8.69287 79.4511C8.71661 79.4298 8.74034 79.4097 8.76408 79.3884Z" fill="#F8F2EA"/>
    <path d="M25.5412 98.6442C25.5412 98.604 25.54 98.5638 25.5388 98.5236C25.7738 98.6584 25.9886 98.818 26.1512 99.0474C25.9245 98.9493 25.6967 98.8547 25.5412 98.6454V98.6442Z" fill="#F8F2EA"/>
    <path d="M109.539 40.4667C109.356 40.2669 109.22 40.0505 109.268 39.6756C109.381 40.0055 109.46 40.2361 109.539 40.4667Z" fill="#F8F2EA"/>
    <path d="M110.295 43.5602C110.324 43.5235 110.353 43.4869 110.382 43.4502C110.501 43.6702 110.536 43.9078 110.499 44.1633C110.431 43.9622 110.362 43.7612 110.295 43.5602Z" fill="#F8F2EA"/>
    <path d="M111.588 72.0234C111.619 72.0364 111.649 72.0341 111.679 72.0199C111.611 72.2351 111.543 72.4515 111.435 72.7957C111.397 72.4232 111.459 72.2162 111.588 72.0246V72.0234Z" fill="#F8F2EA"/>
    <path d="M47.5098 4.79565C47.7566 4.67148 48.0153 4.61708 48.3891 4.66083C48.0438 4.7306 47.8076 4.85004 47.5406 4.83231C47.5299 4.82048 47.5204 4.80747 47.5098 4.79565Z" fill="#F8F2EA"/>
    <path d="M24.6808 97.9855C24.4862 97.8283 24.2915 97.6722 24.0969 97.5149C24.1195 97.4924 24.1408 97.4688 24.1634 97.4463C24.3853 97.5764 24.5811 97.7372 24.7461 97.9335C24.7176 97.9418 24.6962 97.9595 24.6808 97.9855Z" fill="#F8F2EA"/>
    <path d="M111.128 73.8079C111.103 73.7819 111.078 73.7547 111.053 73.7287C111.113 73.5229 111.172 73.3172 111.231 73.1114C111.263 73.3574 111.273 73.5974 111.127 73.8079H111.128Z" fill="#F8F2EA"/>
    </g>
    <path d="M57.7753 23.0001C77.3867 23.0431 92.0423 37.4539 91.9999 56.6827C91.9576 75.7394 76.2007 92.0429 57.9024 91.9999C38.291 91.9569 22.9577 75.9114 23.0001 55.5642C23.0424 37.798 38.884 22.9571 57.7753 23.0001Z" fill="#F8F2EA"/>
    <path d="M74.0406 71.5237C75.6078 71.6957 77.2597 71.3516 78.6998 72.427C79.2928 72.8572 79.7164 73.1153 79.547 73.8896C79.3776 74.7069 78.9116 74.965 78.0645 75.0941C66.4586 76.5567 54.768 77.417 43.0775 77.5031C40.409 77.5461 37.7405 77.288 35.072 76.7718C34.1825 76.5997 33.2082 76.5567 33.1235 75.1801C34.0978 75.1801 34.9873 75.8254 35.9191 75.3522C34.7331 70.018 34.3519 64.6409 34.7755 59.2207C34.9025 57.8871 34.9873 56.4676 37.1475 57.1128C38.2064 57.414 39.223 56.3385 40.2819 55.9514C41.6797 55.4782 43.0351 55.2631 43.4587 57.1559C44.8565 63.0922 45.6189 69.0717 45.1106 75.3522C46.6355 75.5243 48.2874 75.1371 50.1088 74.965C47.9485 70.9644 47.9062 66.8348 48.2027 62.5761C48.5415 58.0162 48.3298 53.4133 47.9062 48.8535C47.7368 47.0468 47.7368 47.1758 49.4734 47.3909C50.1935 47.4769 50.9559 46.7887 51.9725 46.3585C50.617 46.1004 49.5158 45.9713 48.4992 45.7132C48.0333 45.5842 47.5673 45.197 47.6521 44.6378C47.7791 43.8205 48.4145 44.3367 48.838 44.3367C49.7699 44.3367 50.7018 44.4227 51.5913 44.2937C52.9043 44.0786 54.5986 43.8205 55.234 44.6808C56.2506 46.0574 57.6483 47.1328 57.8178 49.3267C58.4108 57.2419 60.1898 65.028 59.5968 73.0293C59.5121 74.2768 60.1898 74.4488 60.9522 74.1477C64.4678 72.7712 68.2376 72.8572 71.838 71.9538C71.0756 68.9856 70.7791 66.0174 70.9908 63.1353C71.5415 55.5642 71.2873 47.9501 71.7109 40.3791C71.7533 39.3897 71.3721 39.4327 70.652 39.4327C68.7459 39.3897 66.8398 39.1746 64.9761 39.0025C64.4255 38.9595 63.7054 38.8305 63.6631 38.1422C63.6207 37.1528 64.5102 37.669 64.9338 37.5399C66.8822 37.0237 68.873 37.1528 70.8214 37.1958C71.9651 37.1958 72.3463 37.626 72.4733 39.0025C73.4899 49.0686 72.8122 59.1777 74.21 69.2007C74.2523 69.932 74.0829 70.7493 74.0406 71.5237Z" fill="#040404"/>
    <path d="M63.3242 72.9002C62.35 64.5549 61.7146 56.7687 61.5029 48.9826C61.4181 46.6166 61.3758 44.2937 61.2911 41.9277C61.2911 41.4976 61.2064 41.0674 61.2911 40.6372C61.4605 39.8199 61.757 38.7014 62.6465 38.7444C63.5784 38.8305 63.7478 39.9059 63.7478 40.8093C63.6631 45.111 63.4089 49.3697 63.4513 53.6715C63.4936 59.3067 63.7054 64.942 63.8325 70.5773C63.8325 71.1365 64.0019 71.8248 63.3242 72.9002Z" fill="#060606"/>
    <path d="M53.9208 74.75C53.0313 74.793 51.8876 75.2232 51.2523 74.836C50.2781 74.2338 51.4217 73.2443 51.3793 72.341C50.9981 66.4476 50.6593 60.5112 50.3204 54.6178C50.2357 53.4994 50.0663 52.3379 50.151 51.2195C50.2357 50.3161 49.558 49.1116 50.7016 48.5094C52.0994 47.7351 53.6243 47.477 55.1915 47.563C55.9963 47.606 55.8692 48.4663 55.8692 48.8965C56.3351 57.0698 57.5211 65.2001 57.8176 73.4164C57.86 74.2768 57.7329 74.5779 56.8858 74.6209C55.9116 74.5779 54.9373 74.6639 53.9208 74.75Z" fill="#F8F2EA"/>
    <path d="M43.7127 75.4383C43.7974 75.3952 43.7127 75.4813 43.6703 75.4813C42.1031 75.5243 40.3241 76.0405 39.0958 75.4383C37.7403 74.793 38.6722 72.7712 38.4181 71.3947C37.8251 67.9533 37.4862 64.4689 37.0203 60.9844C36.9356 60.2101 36.6814 59.5649 37.9945 59.4788C39.1381 59.4358 40.2394 58.8336 41.3407 58.4464C43.0773 63.9956 42.442 69.846 43.7127 75.4383Z" fill="#F8F2EA"/>
    <defs>
    <filter id="filter0_d_2411_818" x="0" y="0" width="123.857" height="122" filterUnits="userSpaceOnUse" color-interpolation-filters="sRGB">
    <feFlood flood-opacity="0" result="BackgroundImageFix"/>
    <feColorMatrix in="SourceAlpha" type="matrix" values="0 0 0 0 0 0 0 0 0 0 0 0 0 0 0 0 0 0 127 0" result="hardAlpha"/>
    <feOffset dx="5" dy="4"/>
    <feGaussianBlur stdDeviation="2"/>
    <feComposite in2="hardAlpha" operator="out"/>
    <feColorMatrix type="matrix" values="0 0 0 0 0 0 0 0 0 0 0 0 0 0 0 0 0 0 0.25 0"/>
    <feBlend mode="normal" in2="BackgroundImageFix" result="effect1_dropShadow_2411_818"/>
    <feBlend mode="normal" in="SourceGraphic" in2="effect1_dropShadow_2411_818" result="shape"/>
    </filter>
    </defs>
    </svg>
    