<svg width="11" height="123" viewBox="0 0 11 123" fill="none" xmlns="http://www.w3.org/2000/svg">
    <g filter="url(#filter0_d_12127_14503)">
    <path d="M4.08274 57.4712C4.08274 57.2543 4.08274 57.0374 4.08274 56.8205C4.08274 50.807 4.08274 44.7965 4.03118 38.783C3.97275 29.0943 4.01056 19.4056 4.03118 9.71684C4.03118 6.82894 4.08961 3.93807 4.13086 1.05017C4.13086 0.280657 4.53989 -0.0550765 5.29607 0.00731642C5.41161 0.0087789 5.52562 0.0303721 5.63129 0.0708016C5.73696 0.111231 5.8321 0.169667 5.91104 0.242615C5.98998 0.315564 6.05108 0.401525 6.09069 0.495357C6.13031 0.589189 6.14763 0.688965 6.14161 0.788715C6.17254 2.50601 6.21723 4.22627 6.22754 5.94356C6.33065 25.5528 6.32378 45.162 6.33409 64.7712C6.33409 69.0792 6.3845 73.3863 6.48533 77.6924C6.55063 80.7824 6.56438 83.8693 6.59875 86.9593C6.63656 90.1621 6.695 93.3679 6.74656 96.5707C6.76947 98.1712 6.79238 99.7736 6.81529 101.378C6.85654 104.299 6.8531 107.219 6.96309 110.14C7.00777 111.355 6.96309 112.567 6.99746 113.782C7.00912 113.945 6.98051 114.108 6.91355 114.26C6.84658 114.413 6.7428 114.551 6.60911 114.666C6.47543 114.781 6.31493 114.87 6.1383 114.927C5.96166 114.984 5.77297 115.008 5.58479 114.997C4.89735 114.997 4.4952 114.549 4.48833 113.788C4.44479 106.289 4.39552 98.7892 4.34053 91.2881C4.29584 84.5586 4.27179 77.8261 4.19617 71.0847C4.14805 66.9609 4.12284 62.836 4.12055 58.7101V57.4712H4.08274ZM5.29263 26.2747C5.272 26.1202 5.39575 25.936 5.18952 25.7934C5.00047 25.9479 5.11733 26.1173 5.08984 26.2658C5.02733 26.6249 5.03547 26.9905 5.1139 27.3473C5.25662 27.008 5.31744 26.647 5.29263 26.2866V26.2747ZM5.5126 88.0378C5.55385 87.4079 5.29262 86.8018 5.35105 86.4156C5.38886 86.7988 5.21013 87.4257 5.35105 88.0497V89.6719H5.51948L5.5126 88.0378ZM5.5126 103.954C5.5676 103.37 5.5676 102.782 5.5126 102.198C5.40514 102.779 5.3763 103.37 5.42667 103.957C5.20484 104.538 5.22307 105.168 5.47824 105.74C5.41981 105.166 5.60541 104.566 5.50573 103.966L5.5126 103.954ZM5.22732 44.1161C5.30638 43.0762 5.60541 39.7783 5.22732 39.303V44.1161ZM5.41293 35.4673C5.07741 36.4869 5.07741 37.5673 5.41293 38.5869V35.4673ZM5.2067 100.917C5.49708 99.8616 5.49708 98.7616 5.2067 97.7057V100.917ZM6.34784 85.2806C6.45096 86.2997 6.15192 87.3158 6.34784 88.4002C6.57126 87.3188 6.38221 86.2997 6.34784 85.2806ZM5.01422 15.2579C4.91562 15.9987 4.9237 16.7472 5.03828 17.4862C4.95579 16.7464 5.31669 16.0007 5.01422 15.2639V15.2579ZM4.81485 18.9599C5.10014 18.3389 4.74268 17.8398 4.77018 17.3258C4.68579 17.8711 4.70086 18.4245 4.81485 18.9658V18.9599ZM6.51626 100.222C6.60478 99.581 6.56173 98.9312 6.38909 98.3029C6.28941 98.9476 6.49564 99.5894 6.51626 100.228V100.222ZM5.39918 50.5812V48.3024C5.26515 49.0576 5.26515 49.826 5.39918 50.5812ZM5.31669 32.7547L5.38887 32.7725V30.5798H5.31669V32.7547ZM5.13452 54.6279C5.43699 54.1941 5.07953 53.9178 5.13452 53.6058V54.6279ZM5.25481 25.6746L5.34074 25.1279C5.26512 25.1279 5.14139 25.0952 5.12764 25.1279C5.08406 25.2106 5.0601 25.3 5.05715 25.3908C5.0542 25.4816 5.07232 25.5721 5.11046 25.6567C5.15719 25.6618 5.2043 25.6638 5.25138 25.6627L5.25481 25.6746Z" fill="#F8F2EA"/>
    <path d="M5.36355 35.5515V38.5559C4.99991 37.5739 4.99991 36.5335 5.36355 35.5515Z" fill="black"/>
    <path d="M6.28783 85.2903C6.34121 86.3202 6.63483 87.3561 6.28783 88.4615C5.98353 87.3652 6.44798 86.3323 6.28783 85.2903Z" fill="black"/>
    <path d="M5.60583 103.984C5.70784 104.596 5.5179 105.208 5.57418 105.82C5.31305 105.232 5.29441 104.583 5.52142 103.984H5.56363H5.60583Z" fill="black"/>
    <path d="M5.5579 103.984H5.48274H5.40758C5.31579 103.371 5.36834 102.755 5.56417 102.148C5.66266 102.759 5.66056 103.373 5.5579 103.984Z" fill="black"/>
    <path d="M4.94586 19.0276C4.79804 18.4767 4.77837 17.9135 4.88756 17.3585C4.85168 17.8744 5.31815 18.3933 4.94586 19.0276Z" fill="black"/>
    <path d="M5.42769 88.1277C5.25906 87.4904 5.4839 86.8501 5.42769 86.4586C5.35418 86.8531 5.6828 87.4722 5.63091 88.1156L5.42769 88.1277Z" fill="black"/>
    <path d="M5.36377 88.1277H5.6365V89.6299H5.36377V88.1277Z" fill="black"/>
    <path d="M5.35687 26.3798C5.38597 26.7172 5.3197 27.0554 5.16223 27.373C5.07682 27.0427 5.06795 26.7041 5.13603 26.3716L5.35687 26.3798Z" fill="black"/>
    <path d="M5.10324 54.5791V53.5776C4.98686 53.8833 5.74329 54.1541 5.10324 54.5791Z" fill="black"/>
    <path d="M5.281 25.7039C5.23406 25.6973 5.18768 25.6868 5.14233 25.6724C5.10569 25.5725 5.08828 25.4659 5.09112 25.3588C5.09395 25.2516 5.11698 25.1462 5.15884 25.0487C5.15884 25.0207 5.29091 25.0487 5.36355 25.0487L5.281 25.7039Z" fill="black"/>
    <path d="M5.34062 26.3715H5.10357C5.13571 26.2141 4.9991 26.0346 5.22009 25.8708C5.46519 26.0125 5.31652 26.2078 5.34062 26.3715Z" fill="black"/>
    </g>
    <defs>
    <filter id="filter0_d_12127_14503" x="0" y="0" width="11" height="123" filterUnits="userSpaceOnUse" color-interpolation-filters="sRGB">
    <feFlood flood-opacity="0" result="BackgroundImageFix"/>
    <feColorMatrix in="SourceAlpha" type="matrix" values="0 0 0 0 0 0 0 0 0 0 0 0 0 0 0 0 0 0 127 0" result="hardAlpha"/>
    <feOffset dy="4"/>
    <feGaussianBlur stdDeviation="2"/>
    <feComposite in2="hardAlpha" operator="out"/>
    <feColorMatrix type="matrix" values="0 0 0 0 0 0 0 0 0 0 0 0 0 0 0 0 0 0 0.25 0"/>
    <feBlend mode="normal" in2="BackgroundImageFix" result="effect1_dropShadow_12127_14503"/>
    <feBlend mode="normal" in="SourceGraphic" in2="effect1_dropShadow_12127_14503" result="shape"/>
    </filter>
    </defs>
    </svg>
    