<svg width="24" height="30" viewBox="0 0 24 30" fill="none" xmlns="http://www.w3.org/2000/svg">
    <path d="M6.47121 0.601074L6.49292 0.603613C8.29081 0.813883 9.59137 1.01304 10.5663 1.59173C11.5733 2.18949 12.1844 3.1567 12.7223 4.74568L12.7259 4.75622L12.7257 4.75627C13.7426 8.08175 14.3566 11.5019 14.5563 14.9535C14.5775 15.1928 14.6055 15.3713 14.6464 15.5057C14.6867 15.6382 14.7327 15.7047 14.7751 15.7427C14.8562 15.8155 15.0553 15.8949 15.6498 15.8028L15.6555 15.8019L15.6555 15.8019C17.235 15.582 18.8301 15.4723 20.4272 15.4737M6.47121 0.601074L20.4306 15.8487M6.47121 0.601074H6.44936C5.17745 0.601074 3.844 1.14828 2.78573 1.96457C1.73315 2.77648 0.899883 3.89633 0.690223 5.09754M6.47121 0.601074L1.05794 5.17187M20.4272 15.4737C20.4285 15.4737 20.4297 15.4737 20.431 15.4737L20.4306 15.8487M20.4272 15.4737C20.4259 15.4737 20.4246 15.4737 20.4234 15.4737L20.4306 15.8487M20.4272 15.4737C21.3961 15.4553 22.1735 15.6143 22.5763 16.165C22.9799 16.7169 22.8824 17.4914 22.5942 18.3417L22.5935 18.3436C22.3517 19.0446 22.0163 19.6295 21.4874 20.0242C20.9539 20.4224 20.2736 20.5899 19.4179 20.5565M20.4306 15.8487C22.3605 15.8112 22.8126 16.5292 22.239 18.2213C21.7802 19.5512 21.0312 20.2442 19.432 20.1818M19.4179 20.5565L19.432 20.1818M19.4179 20.5565C19.4177 20.5565 19.4175 20.5565 19.4173 20.5565L19.432 20.1818M19.4179 20.5565C18.8656 20.5357 18.3046 20.5831 17.7194 20.6408C17.6502 20.6477 17.5805 20.6547 17.5105 20.6617C16.9964 20.7133 16.4629 20.7668 15.9291 20.7753L15.9232 20.7754V20.7753C15.4896 20.7753 15.3056 20.8488 15.224 20.9252C15.1575 20.9875 15.0791 21.1311 15.1091 21.5346M19.432 20.1818C18.7822 20.1573 18.1283 20.2229 17.4725 20.2886C16.9568 20.3403 16.44 20.3921 15.9232 20.4003C15.0257 20.4003 14.6681 20.6813 14.7356 21.5679M15.1091 21.5346C15.1089 21.5328 15.1087 21.531 15.1086 21.5293L14.7356 21.5679M15.1091 21.5346C15.1092 21.5362 15.1094 21.5378 15.1095 21.5395L14.7356 21.5679M15.1091 21.5346C15.3197 23.5781 14.9091 25.6342 13.9258 27.4705L13.922 27.4775L13.9219 27.4775C13.8952 27.5248 13.8672 27.5762 13.8377 27.6305C13.7036 27.8766 13.5382 28.1801 13.3258 28.4195C13.0438 28.7374 12.6527 28.9789 12.0945 28.9543M14.7356 21.5679C14.9396 23.5375 14.5446 25.5206 13.5952 27.2934C13.5633 27.3501 13.5316 27.4081 13.4995 27.4667C13.1997 28.0153 12.8728 28.6135 12.1107 28.5796M12.0945 28.9543C12.0947 28.9543 12.0948 28.9543 12.0949 28.9543L12.1107 28.5796M12.0945 28.9543C12.0944 28.9543 12.0942 28.9543 12.0941 28.9543L12.1107 28.5796M12.0945 28.9543C11.5949 28.9331 11.2405 28.6912 10.9782 28.4012C10.7795 28.1816 10.6145 27.91 10.4767 27.6833C10.4442 27.6299 10.4133 27.579 10.3838 27.5318M12.1107 28.5796C11.4448 28.5516 11.1157 28.0111 10.8065 27.5035C10.771 27.4452 10.7358 27.3874 10.7004 27.3309M10.7004 27.3309L10.3851 27.5338C10.3846 27.5332 10.3842 27.5325 10.3838 27.5318M10.7004 27.3309C9.81031 25.9478 9.76085 24.41 9.71203 22.8922C9.70201 22.5806 9.69201 22.2697 9.67477 21.9613M10.7004 27.3309L10.3826 27.5299C10.383 27.5306 10.3834 27.5312 10.3838 27.5318M10.3838 27.5318C9.80722 26.6351 9.56454 25.6854 9.45092 24.7449C9.37678 24.1311 9.35614 23.494 9.33625 22.8803C9.32632 22.5736 9.31657 22.2727 9.30043 21.9836M9.67477 21.9613L9.30051 21.9849C9.30049 21.9845 9.30046 21.984 9.30043 21.9836M9.67477 21.9613C9.60729 20.8936 9.20243 20.8187 8.251 20.7937C7.79244 20.7805 7.33389 20.7913 6.87534 20.8021C5.59973 20.8321 4.32412 20.8622 3.04851 20.3754C1.10517 19.6324 0.389903 17.3034 1.93513 15.9298C2.53591 15.4228 3.20226 14.9866 3.91896 14.6311M9.67477 21.9613L9.30035 21.9822C9.30038 21.9827 9.3004 21.9831 9.30043 21.9836M9.30043 21.9836C9.26821 21.4765 9.16059 21.349 9.08361 21.2966C9.033 21.2623 8.95169 21.2297 8.80701 21.207C8.661 21.184 8.47946 21.1748 8.24116 21.1686L8.2402 21.1685C7.81772 21.1564 7.39333 21.1651 6.95915 21.1752C6.93353 21.1758 6.90787 21.1764 6.88217 21.177C6.47541 21.1866 6.0596 21.1964 5.643 21.1889C4.75477 21.1729 3.83906 21.0785 2.9148 20.7257L2.91459 20.7256C1.83523 20.313 1.08261 19.4539 0.821565 18.4868C0.558139 17.5109 0.801004 16.4362 1.68599 15.6495L1.69319 15.6431L1.69327 15.6432C2.316 15.1177 3.00593 14.6658 3.74716 14.2977M3.74716 14.2977C3.74551 14.2986 3.74387 14.2995 3.74222 14.3004L3.91896 14.6311M3.74716 14.2977C3.74889 14.2969 3.75062 14.296 3.75235 14.2952L3.91896 14.6311M3.74716 14.2977C6.16773 13.0025 7.5938 10.9953 8.5218 8.58363L8.52694 8.57028L8.53307 8.55737C8.63531 8.3422 8.68912 8.11148 8.69236 7.87872M3.91896 14.6311C6.44261 13.2825 7.92036 11.1908 8.87179 8.7183C8.99899 8.45059 9.06559 8.1616 9.06748 7.86915M8.69236 7.87872C8.69263 7.88307 8.6929 7.88743 8.69316 7.89179L9.06748 7.86915M8.69236 7.87872C8.69242 7.87472 8.69246 7.87073 8.69248 7.86674L9.06748 7.86915M8.69236 7.87872C8.63665 6.97416 8.48235 6.20864 7.8415 5.84042C7.55294 5.67461 7.27234 5.69057 6.94504 5.81562C6.77651 5.88001 6.60405 5.97071 6.42042 6.07594C6.35714 6.1122 6.28913 6.15227 6.21933 6.1934C6.10467 6.26095 5.98518 6.33135 5.87387 6.39242M9.06748 7.86915C9.01349 6.9763 8.86504 5.99604 8.02832 5.51527C7.32062 5.10863 6.64672 5.506 6.01885 5.87623C5.90438 5.94372 5.79145 6.01031 5.68012 6.07097M5.68012 6.07097L5.88687 6.38382C5.88253 6.38669 5.8782 6.38955 5.87387 6.39242M5.68012 6.07097C5.20978 6.38179 4.75918 6.71742 4.33057 7.07621C4.24457 7.13716 4.15831 7.20225 4.0713 7.26791C3.51665 7.68647 2.9314 8.12811 2.1848 7.66936M5.68012 6.07097L5.85952 6.40027C5.86429 6.39767 5.86907 6.39505 5.87387 6.39242M5.87387 6.39242C5.41992 6.69311 4.98502 7.01742 4.57128 7.36376L4.55972 7.37344L4.54742 7.38216C4.47323 7.43473 4.39783 7.49133 4.31752 7.55191C4.31067 7.55708 4.30377 7.56228 4.29684 7.56751C4.22394 7.62252 4.14695 7.68063 4.06887 7.73707C3.89864 7.86014 3.70737 7.98718 3.49866 8.08188C3.28758 8.17765 3.04938 8.2447 2.78669 8.2387C2.52243 8.23266 2.25694 8.15318 1.99156 7.99075M1.99156 7.99075C1.99257 7.99135 1.99358 7.99194 1.99459 7.99254L2.1848 7.66936M1.99156 7.99075C1.99053 7.99012 1.98951 7.98949 1.98848 7.98886L2.1848 7.66936M1.99156 7.99075C1.48814 7.69364 1.08999 7.25809 0.855601 6.73862C0.622088 6.22108 0.563928 5.64813 0.690223 5.09754M2.1848 7.66936C1.74353 7.40963 1.39891 7.03096 1.19742 6.58439C0.995927 6.13782 0.947248 5.64483 1.05794 5.17187M1.05794 5.17187L0.688319 5.10855C0.688948 5.10488 0.689583 5.10121 0.690223 5.09754M1.05794 5.17187L0.692802 5.08641C0.691934 5.09012 0.691074 5.09383 0.690223 5.09754M8.71 16.2613C8.61669 16.2652 8.50762 16.2627 8.37818 16.2553L8.97007 15.4923C8.98154 15.6157 8.9892 15.7245 8.99231 15.8211C9.0021 16.1247 8.95987 16.2023 8.94999 16.2151C8.94927 16.216 8.94867 16.2167 8.94645 16.2183C8.94374 16.2201 8.93596 16.225 8.91949 16.2308C8.88341 16.2437 8.81968 16.2567 8.71 16.2613Z" fill="#060606" stroke="#F8F2EA" stroke-width="0.75"/>
    <path d="M6.47137 3.51221C6.40014 3.54965 6.32704 3.5845 6.25472 3.6201C6.1476 3.67283 6.04116 3.72806 5.93114 3.77581C5.81335 3.82694 5.68895 3.8679 5.56695 3.90994C5.50767 3.93037 5.44818 3.9501 5.39057 3.97426C5.33322 3.99831 5.27845 4.02644 5.22353 4.05465C5.1902 4.07176 5.15713 4.08957 5.12291 4.10521C5.10255 4.11451 5.11731 4.1084 5.11614 4.10627" stroke="#F8F2EA" stroke-width="0.75" stroke-linecap="round"/>
    <path d="M6.38536 3.53503C6.35895 3.54846 6.36243 3.54781 6.32559 3.55873C6.25036 3.58102 6.17304 3.5965 6.09598 3.61247C6.054 3.62117 6.02631 3.62579 5.98661 3.63806C5.93927 3.6527 5.89423 3.674 5.84887 3.69286C5.74079 3.73779 5.63493 3.78646 5.52751 3.83259C5.44209 3.86928 5.40262 3.8847 5.31529 3.92039C5.28372 3.9333 5.25202 3.94595 5.22063 3.95921C4.82494 4.12636 5.35839 3.90094 5.13098 4.00152" stroke="#F8F2EA" stroke-width="0.75" stroke-linecap="round"/>
    <path d="M6.41457 3.54646C6.37341 3.55507 6.33166 3.55946 6.2899 3.56519C6.18155 3.58005 6.07574 3.59926 5.97041 3.62675C5.90952 3.64265 5.84834 3.6571 5.78726 3.67234C5.70114 3.69384 5.61929 3.72289 5.53793 3.75612C5.39019 3.81646 5.25267 3.88855 5.1191 3.9717C4.99977 4.04599 4.87843 4.12306 4.78 4.21986C4.70087 4.29769 4.61949 4.37309 4.53195 4.44327C4.48707 4.47925 4.44003 4.51276 4.39397 4.54746C4.35595 4.57612 4.32101 4.60801 4.28285 4.63642C4.26876 4.64691 4.26858 4.64301 4.27421 4.62817C4.29249 4.58002 4.31591 4.53324 4.33841 4.48664C4.36057 4.44074 4.38289 4.39537 4.41172 4.35251C4.44257 4.30663 4.4761 4.26285 4.50207 4.21436C4.51829 4.18405 4.53095 4.1523 4.54747 4.12212C4.56651 4.08736 4.59103 4.05622 4.61623 4.02501C4.67787 3.94867 4.74598 3.8791 4.83148 3.82382C4.87433 3.79612 4.91964 3.77141 4.96362 3.74522C5.02425 3.70912 5.08373 3.67183 5.15097 3.64621C5.22024 3.61982 5.29386 3.60552 5.36727 3.59227C5.44819 3.57766 5.52896 3.56741 5.611 3.55969C5.76298 3.54538 5.91327 3.52038 6.06555 3.50796C6.12079 3.50345 6.17609 3.50004 6.23154 3.49855C6.24337 3.49823 6.28748 3.49699 6.30473 3.49865C6.30702 3.49887 6.31311 3.49989 6.31115 3.50098C6.30554 3.50408 6.29855 3.50441 6.29212 3.50563C6.23242 3.51696 6.17201 3.52377 6.11271 3.53715C6.02834 3.55619 5.95025 3.58711 5.86991 3.61628C5.79409 3.64381 5.71559 3.66609 5.64135 3.69709C5.58363 3.72121 5.52965 3.75249 5.47256 3.77791C5.41644 3.8029 5.36139 3.8274 5.30937 3.85915C5.23496 3.90457 5.16842 3.95938 5.09575 4.00692C5.04479 4.04027 4.99082 4.06938 4.93887 4.10139C4.86532 4.1467 4.79328 4.19554 4.72479 4.24694C4.66886 4.28891 4.61782 4.33475 4.56732 4.38192C4.51353 4.43216 4.4608 4.48463 4.39946 4.52758C4.39126 4.53331 4.37047 4.54795 4.37086 4.53858C4.37134 4.52693 4.39942 4.4811 4.39958 4.48082C4.43572 4.41814 4.47039 4.35617 4.50195 4.29147C4.52341 4.24748 4.54894 4.20709 4.57491 4.16528C4.58111 4.15528 4.58747 4.14533 4.59277 4.13492C4.59582 4.12892 4.60088 4.12274 4.59989 4.1162C4.59797 4.10358 4.57457 4.12794 4.56417 4.13651C4.52112 4.17194 4.48027 4.21043 4.4423 4.25033C4.4228 4.27082 4.41256 4.2829 4.39631 4.30396C4.39095 4.3109 4.38043 4.33337 4.38043 4.3249C4.38043 4.32161 4.3829 4.3187 4.3844 4.3157C4.39362 4.29733 4.41888 4.25058 4.42643 4.23721C4.46742 4.16457 4.51119 4.09231 4.56954 4.02967C4.59187 4.00569 4.62846 3.97202 4.65498 3.95245C4.66793 3.94289 4.72515 3.90418 4.74767 3.9021C4.75534 3.90139 4.76547 3.90792 4.76599 3.9149C4.76726 3.9317 4.75943 3.94831 4.75234 3.96387C4.72963 4.01365 4.66554 4.11294 4.63794 4.15533C4.58668 4.23406 4.53044 4.31029 4.48094 4.38996C4.47476 4.39989 4.46727 4.40947 4.46378 4.42042C4.46308 4.42263 4.46944 4.42149 4.47137 4.42C4.49536 4.40138 4.55133 4.33701 4.56148 4.32554C4.63639 4.24089 4.70568 4.15074 4.78619 4.07029C4.82555 4.03095 4.86945 3.99273 4.92136 3.96683C4.94459 3.95525 5.0079 3.93404 5.03856 3.93679C5.04647 3.9375 5.05834 3.94369 5.05677 3.95076C5.0501 3.98072 4.95166 4.03567 4.94727 4.03834C4.93554 4.04548 4.6776 4.19629 4.66525 4.17036C4.66164 4.16276 4.67087 4.15425 4.67646 4.14772C4.68915 4.1329 4.70424 4.11984 4.71942 4.1071C4.75993 4.07308 4.79277 4.05111 4.83953 4.0248C4.85868 4.01403 4.91982 3.98945 4.89778 3.9937C4.8411 4.00464 4.787 4.02461 4.73191 4.04088C4.69509 4.05175 4.65823 4.06251 4.6216 4.07388C4.60519 4.07898 4.58824 4.0831 4.5728 4.09028C4.56602 4.09343 4.58793 4.08819 4.59522 4.08615C4.72207 4.05068 4.83938 3.99815 4.95334 3.937C5.51109 3.63773 4.61191 4.1167 5.10206 3.85703C5.1144 3.85049 5.12942 3.84668 5.13871 3.83683C5.14198 3.83336 5.129 3.83322 5.124 3.83376C5.11087 3.83519 4.96838 3.8617 4.96455 3.86232C4.94707 3.86517 4.92954 3.86977 4.91179 3.86909C4.90844 3.86897 4.91203 3.86209 4.91482 3.86042C4.93046 3.85111 4.94811 3.84495 4.9649 3.83747C4.98578 3.82816 5.00664 3.81881 5.02782 3.81007C5.03903 3.80544 5.05072 3.79292 5.06202 3.79737C5.07119 3.80099 5.04681 3.80918 5.03856 3.8143C5.01261 3.83039 4.98591 3.84546 4.95953 3.86095C4.91549 3.88681 4.87061 3.91152 4.82739 3.93849C4.73896 3.99365 5.00873 3.83426 5.09786 3.78003C5.12395 3.76415 5.15051 3.74887 5.17583 3.732C5.18177 3.72804 5.19853 3.71618 5.19136 3.71772C5.17053 3.72221 5.15194 3.73292 5.13264 3.74131C5.09022 3.75976 5.04827 3.77909 5.00622 3.79822C4.9587 3.81985 4.91116 3.84145 4.86393 3.86359C4.82948 3.87974 4.79508 3.89598 4.76121 3.9131C4.74844 3.91955 4.7188 3.92191 4.72409 3.93425C4.72715 3.94141 5.09878 3.76715 5.1198 3.75718C5.21178 3.71356 5.30527 3.66214 5.41046 3.65034C5.4588 3.64492 5.48445 3.65151 5.53186 3.6532C5.58223 3.65499 5.6123 3.654 5.66306 3.64653C5.73237 3.63633 5.80193 3.61813 5.86594 3.59174C5.87592 3.58762 5.88659 3.58378 5.89442 3.57682C5.89654 3.57494 5.89409 3.56972 5.89115 3.56931C5.87064 3.56644 5.80685 3.57703 5.79357 3.57947C5.71358 3.59412 5.63491 3.61646 5.55637 3.63638C5.54435 3.63942 5.50818 3.64623 5.52065 3.64653C5.53611 3.64691 5.55037 3.63876 5.56524 3.6349C5.57823 3.63153 5.59111 3.62772 5.60435 3.62527C5.62074 3.62224 5.64591 3.616 5.62116 3.63743C5.59693 3.65841 5.53248 3.69667 5.5098 3.71011C5.44404 3.74904 5.43528 3.75227 5.36984 3.78796C5.31953 3.8154 5.27208 3.84557 5.22299 3.87459C5.21328 3.88034 5.17946 3.90014 5.16439 3.9021C5.16141 3.90248 5.15638 3.89934 5.1575 3.89681C5.16142 3.88803 5.16932 3.88103 5.17677 3.87438C5.23797 3.81972 5.31066 3.77448 5.37988 3.72883C5.40025 3.71539 5.42112 3.70256 5.44128 3.68884C5.45118 3.6821 5.46257 3.67646 5.46999 3.66748C5.48235 3.6525 5.42961 3.67593 5.41046 3.68292C5.37624 3.69541 5.30771 3.7215 5.27412 3.73549C5.23955 3.7499 5.21108 3.76126 5.1819 3.78299C5.13852 3.81529 5.12692 3.86618 5.09657 3.90707C5.06432 3.95052 5.02243 3.98854 4.97482 4.01824C4.96591 4.0238 4.94024 4.03462 4.94331 4.02522C4.94823 4.01013 4.98017 3.98275 4.99 3.97657C5.06756 3.92772 5.16874 3.90739 5.25696 3.88232C5.37858 3.84774 5.49869 3.80968 5.61987 3.774C5.67946 3.75645 5.73993 3.74189 5.79987 3.72544C5.85692 3.70979 5.90757 3.68594 5.96212 3.66494C6.01884 3.64311 6.07755 3.63066 6.13815 3.62157C6.1693 3.61689 6.20059 3.61295 6.23177 3.60845C6.24283 3.60686 6.25384 3.605 6.26492 3.60358C6.26933 3.60302 6.27876 3.59852 6.27823 3.60253C6.27763 3.60707 6.26906 3.6064 6.26434 3.60803C6.23161 3.6193 6.22293 3.62013 6.18835 3.63373C6.13702 3.65392 6.09778 3.68353 6.05411 3.71413C6.02793 3.73246 6.00011 3.74848 5.9724 3.76479C5.93708 3.78559 5.90709 3.80803 5.87668 3.8344C5.85138 3.85634 5.82642 3.87887 5.79368 3.89162C5.76148 3.90417 5.72437 3.90329 5.69096 3.91299C5.65725 3.92278 5.6243 3.93473 5.59057 3.94462C5.5375 3.96019 5.48772 3.98226 5.44034 4.00893C5.36827 4.04951 5.30706 4.1064 5.22883 4.13735C5.20396 4.14719 5.17958 4.15714 5.15564 4.16877C5.10212 4.19476 5.04829 4.2182 4.99315 4.24123C4.94643 4.26075 4.90301 4.28295 4.86089 4.30977C4.82177 4.33469 4.78492 4.36164 4.74416 4.38445C4.70867 4.40432 4.67542 4.42368 4.64424 4.44898C4.62329 4.46599 4.60042 4.48942 4.57234 4.497C4.56962 4.49774 4.56609 4.49854 4.56382 4.497C4.55559 4.49146 4.56895 4.4785 4.57514 4.47109C4.62763 4.40819 4.69884 4.35583 4.76646 4.30702C4.81533 4.27175 4.86686 4.23973 4.91622 4.20505C4.96471 4.17099 5.00852 4.13335 5.05303 4.09525C5.08229 4.07021 5.11204 4.04707 5.14642 4.02787C5.20135 3.99718 5.26116 3.97249 5.31836 3.94547C5.3685 3.92178 5.41969 3.90358 5.47209 3.88464C5.52519 3.86545 5.57728 3.84403 5.63049 3.82509C5.66919 3.81131 5.70869 3.79966 5.74757 3.78637C5.79357 3.77066 5.83866 3.75306 5.88508 3.73835C5.91046 3.7303 5.93586 3.72222 5.96142 3.71465C5.96856 3.71254 5.97556 3.70996 5.9829 3.70852C5.98682 3.70775 5.99189 3.70572 5.99493 3.7081C5.99737 3.71001 5.99527 3.71438 5.99341 3.71677C5.98716 3.72481 5.97921 3.73168 5.97135 3.73845C5.92761 3.77611 5.87749 3.80706 5.82485 3.83355C5.76891 3.86171 5.70928 3.88313 5.65326 3.91119C5.64588 3.91489 5.63081 3.92855 5.63038 3.92093C5.62991 3.91261 5.64146 3.90762 5.64765 3.90146C5.65489 3.89427 5.66492 3.88503 5.6724 3.87777C5.67538 3.87487 5.68503 3.86769 5.6808 3.86867C5.67792 3.86934 5.67557 3.87124 5.67298 3.87258C5.64762 3.8858 5.64842 3.8862 5.61719 3.90072C5.56752 3.92382 5.51604 3.94214 5.4645 3.96133C5.42627 3.97557 5.39055 3.99441 5.35478 4.01306C5.28305 4.05045 5.21251 4.0896 5.14233 4.12931C5.10926 4.14803 5.07666 4.1683 5.04276 4.1858C5.03831 4.18809 5.02512 4.19198 5.02758 4.18791C5.03471 4.17616 5.06345 4.15245 5.07054 4.14687C5.14608 4.08736 5.23298 4.04074 5.31567 3.99011" stroke="#F8F2EA" stroke-width="0.75" stroke-linecap="round"/>
    </svg>
    