<svg width="33" height="26" viewBox="0 0 33 26" fill="none" xmlns="http://www.w3.org/2000/svg">
    <path d="M25.892 8.2142C26.2387 8.03382 26.5738 7.83283 26.8955 7.6124C26.6812 8.37628 26.5154 9.15275 26.3991 9.93734L26.3972 9.94997L26.3962 9.9627C26.3896 10.0462 26.3801 10.1216 26.3693 10.2073C26.3605 10.2772 26.3508 10.354 26.3411 10.4476C26.3222 10.6303 26.3087 10.8426 26.3338 11.0526C26.3592 11.265 26.4265 11.4948 26.5849 11.6956C26.7462 11.9001 26.9767 12.0424 27.2708 12.1201C27.8254 12.2667 28.313 12.1847 28.7249 11.9219C29.121 11.6693 29.4167 11.269 29.6489 10.8311L29.6529 10.8235L29.6566 10.8156C30.765 8.4694 31.6476 6.02568 32.2929 3.51663C32.3747 3.23674 32.3962 2.97786 32.3497 2.7404C32.3021 2.49688 32.1877 2.29989 32.0365 2.14326C31.7518 1.84834 31.3354 1.69943 31.0161 1.59449L31.0162 1.59424L31.0029 1.5904C27.5959 0.608594 23.9985 0.456958 20.5194 1.14826C20.113 1.17531 19.7291 1.3475 19.4404 1.63449C19.1445 1.92852 18.9698 2.32191 18.9519 2.73788L18.9515 2.74815L18.9516 2.75842C18.9547 3.01793 19.0186 3.24412 19.1402 3.4357C19.2602 3.62486 19.4223 3.75821 19.5889 3.85602C19.8378 4.00224 20.1493 4.09317 20.3944 4.16472C20.4539 4.1821 20.5095 4.19833 20.5593 4.21395L20.5621 4.21481C21.3793 4.46355 22.209 4.525 23.06 4.54155C23.3646 4.54747 23.668 4.54778 23.9754 4.54809C24.1601 4.54827 24.3463 4.54846 24.5351 4.54987C22.9148 5.57168 21.5042 6.46265 20.1001 7.36008L20.0905 7.36619L20.0813 7.37288C19.8937 7.50946 19.7519 7.58222 19.6262 7.60022C19.5229 7.61501 19.386 7.59914 19.1873 7.44532C16.7649 5.55395 13.9089 5.26538 11.0645 5.15317L11.0636 5.15313C7.17656 5.00991 4.09915 6.26057 2.28034 8.50467C0.458449 10.7526 -0.0428371 13.926 1.07985 17.5018L1.07989 17.502C2.64049 22.4657 7.31769 25.8097 12.0323 25.2336C14.5961 24.9236 17.0959 23.6078 18.9268 21.7732C20.7563 19.94 21.9521 17.5522 21.8319 15.083L21.8319 15.0827C21.744 13.3085 21.9987 11.9293 22.6339 10.8356C23.2669 9.74595 24.3036 8.89527 25.8665 8.22628L25.8794 8.22072L25.892 8.2142ZM4.60523 11.6138C5.32621 9.9088 6.67688 9.20646 8.33349 8.881C7.00692 9.57236 6.07717 10.3754 5.50396 11.5129C4.9225 12.6668 4.73115 14.122 4.79172 16.0607C4.0849 14.5257 3.97781 13.1044 4.60523 11.6138ZM9.9722 19.807L9.97236 19.8068L9.96228 19.7979C8.49725 18.5079 7.57955 16.7223 7.38994 14.7971C7.37425 14.2533 7.47417 13.7121 7.68345 13.2083C7.89428 12.7008 8.21145 12.2425 8.61455 11.8634C9.01767 11.4844 9.49763 11.1932 10.0233 11.0091C10.5489 10.825 11.1082 10.7523 11.6645 10.7958L11.6645 10.7959L11.6701 10.7962C13.7542 10.9277 15.7508 11.6691 17.4047 12.9248L17.4217 12.9378L17.4402 12.9487C17.6374 13.0657 17.7861 13.246 17.8618 13.4578C17.9375 13.6696 17.936 13.9005 17.8576 14.1112L17.8516 14.1274L17.8471 14.144C17.0143 17.2221 15.2433 19.33 12.075 20.2228L12.0613 20.2266L12.0479 20.2315C11.6962 20.3601 11.3148 20.3885 10.9473 20.3132C10.5799 20.238 10.242 20.0623 9.9722 19.807Z" fill="#060606" stroke="#F8F2EA" stroke-width="0.75"/>
    <path d="M9.48423 8.61475C5.74195 10.2353 4.85051 12.0205 5.27416 17.4771C3.96789 15.3622 3.50893 13.4488 4.33859 11.398C5.29182 9.02675 7.33948 8.49573 9.53719 8.29431C9.50241 8.33842 9.47925 8.39112 9.46997 8.44728C9.46069 8.50344 9.46561 8.56115 9.48423 8.61475Z" fill="#F8F2EA"/>
    <path d="M27.4163 7.06145C27.3773 7.23228 27.3622 7.40872 27.2955 7.57105C27.264 7.64759 27.2136 7.72629 27.1954 7.80703C27.1702 7.9184 27.1791 8.0373 27.1689 8.15044C27.1462 8.40271 27.0761 8.64504 27.0084 8.88867C26.9715 9.02136 26.9404 9.15545 26.9036 9.28808C26.8684 9.41486 26.8092 9.53731 26.7874 9.6673C26.7516 9.88104 26.7602 10.1059 26.7449 10.322C26.7274 10.5703 26.7139 10.8175 26.7204 11.0666C26.725 11.2453 26.7659 11.4307 26.9102 11.5533C27.0102 11.6382 27.1186 11.7529 27.2501 11.7883C27.3541 11.8163 27.4644 11.8053 27.5703 11.8297C27.7122 11.8623 27.8546 11.8969 28.0018 11.8857C28.1679 11.873 28.2976 11.7728 28.4116 11.6635C28.5231 11.5566 28.6475 11.4625 28.7742 11.3733C28.9056 11.2809 29.0494 11.194 29.1246 11.051C29.2073 10.8937 29.221 10.7085 29.2691 10.5396C29.3361 10.3042 29.4276 10.091 29.5448 9.87481C29.6617 9.65915 29.8445 9.46039 29.932 9.23207C30.0064 9.03768 30.0447 8.8269 30.101 8.62698C30.1762 8.35997 30.2892 8.08738 30.4164 7.84008C30.526 7.62696 30.6436 7.42298 30.7384 7.20285C30.8486 6.94699 30.8885 6.67207 30.9726 6.40769C31.1555 5.83247 31.3415 5.24862 31.5968 4.69985C31.71 4.45642 31.8043 4.21078 31.8602 3.94876C31.9283 3.62976 32.0576 3.31233 32.1001 2.99016C32.1183 2.85226 32.0971 2.76125 32.0019 2.65502C31.9008 2.54229 31.7946 2.40007 31.6601 2.32998C31.5804 2.28849 31.5078 2.23408 31.4259 2.19684C31.3141 2.146 31.1889 2.13646 31.0746 2.09216C30.7943 1.98352 30.5214 1.87112 30.236 1.77263C29.9212 1.66397 29.5842 1.5386 29.2521 1.49625C29.0724 1.47334 28.8914 1.49414 28.7119 1.46779C28.5179 1.43932 28.3236 1.40821 28.1302 1.37597C27.7753 1.31681 27.4125 1.34432 27.0594 1.2768C26.8328 1.23347 26.6281 1.21069 26.3965 1.21069" stroke="#F8F2EA" stroke-width="0.75" stroke-linecap="round"/>
    <path d="M26.5282 1.22646C26.3955 1.19337 26.2654 1.1605 26.1285 1.15137C26.0444 1.14577 25.9603 1.14758 25.8762 1.1423C25.6706 1.1294 25.4658 1.10679 25.262 1.07698C25.1444 1.05977 25.0307 1.03791 24.9113 1.03281C24.7363 1.02532 24.5603 1.03353 24.3853 1.03816C24.0161 1.04791 23.6473 1.0629 23.2793 1.09534C22.939 1.12534 22.598 1.14127 22.2582 1.17717C22.0226 1.20206 21.7876 1.23196 21.5524 1.25993C21.3641 1.28234 21.1809 1.32525 20.9939 1.35432C20.8161 1.38197 20.6384 1.40991 20.4608 1.43894C20.341 1.45851 20.2094 1.47397 20.0969 1.52123C20.0131 1.55641 19.9611 1.63345 19.8936 1.68954C19.8232 1.74807 19.7352 1.77714 19.6632 1.83228C19.6187 1.86633 19.5877 1.91478 19.5503 1.95549C19.4939 2.01699 19.4147 2.07129 19.3767 2.14659C19.3576 2.18453 19.3555 2.22493 19.3504 2.26608C19.3444 2.31481 19.3357 2.36243 19.3242 2.41021C19.3036 2.49482 19.2806 2.5773 19.2692 2.66384C19.2592 2.73921 19.2479 2.8297 19.2649 2.90514C19.279 2.9681 19.3268 3.01539 19.365 3.06555C19.3988 3.10985 19.4362 3.15125 19.4678 3.19713C19.4999 3.2437 19.5292 3.29935 19.5752 3.33452C19.65 3.39165 19.7415 3.4171 19.8265 3.45517C19.8917 3.48441 19.9517 3.52402 20.0146 3.55746C20.2026 3.65734 20.4199 3.68923 20.6119 3.77924C20.9171 3.92233 21.264 3.94708 21.5849 4.04519C21.738 4.09198 21.8886 4.1178 22.0485 4.13027C22.1736 4.14004 22.2945 4.16234 22.4176 4.18491C22.7258 4.24139 23.0451 4.22792 23.357 4.22071C23.6886 4.21304 24.0199 4.23484 24.3516 4.23837C24.5085 4.24005 24.6657 4.23005 24.8226 4.23465C24.9518 4.23845 25.0793 4.2589 25.2075 4.27278C25.258 4.27825 25.3089 4.2835 25.3598 4.28161C25.402 4.28005 25.4434 4.27187 25.4853 4.26813C25.5434 4.26295 25.6053 4.26046 25.6637 4.26534C25.668 4.26571 25.6805 4.26584 25.6766 4.26767C25.6586 4.27601 25.5898 4.27329 25.5774 4.27441C25.5048 4.28098 25.426 4.28436 25.3808 4.34624C25.3477 4.39169 25.2944 4.41263 25.2493 4.44481C25.2211 4.46499 25.196 4.48866 25.1664 4.50711C25.1259 4.53235 25.0817 4.55235 25.0387 4.57313C24.9526 4.61475 24.8621 4.64876 24.7862 4.7075C24.7044 4.77085 24.6248 4.84084 24.5481 4.90999C24.3287 5.10776 24.0661 5.2663 23.8098 5.41469C23.7 5.47826 23.5884 5.53796 23.4837 5.6095C23.3411 5.70694 23.2091 5.81828 23.0668 5.9159C22.9585 5.99015 22.8317 6.0265 22.7234 6.09955C22.5842 6.19348 22.4382 6.27607 22.2979 6.36829C22.1079 6.49308 21.942 6.64945 21.7485 6.76861C21.631 6.84091 21.5071 6.90283 21.3874 6.97156C21.2802 7.03317 21.1768 7.10034 21.0723 7.16613C20.9843 7.22153 20.8956 7.27542 20.8101 7.33444C20.7283 7.39087 20.6491 7.45053 20.565 7.50368C20.4726 7.56207 20.3757 7.61325 20.2817 7.66897C20.1953 7.72012 20.1129 7.7802 20.0232 7.82589C19.9497 7.86337 19.8706 7.88628 19.7908 7.90726C19.7227 7.92518 19.6561 7.93924 19.5852 7.9412C19.4066 7.94614 19.2431 7.90973 19.0812 7.83798C18.9313 7.77152 18.7996 7.67401 18.6657 7.5818C18.5758 7.51984 18.4892 7.4531 18.3979 7.39303C18.305 7.33184 18.208 7.28423 18.1063 7.23867C17.8695 7.1326 17.6438 7.00483 17.4053 6.90251C17.273 6.84578 17.1378 6.79603 17.0072 6.7356C16.9032 6.68745 16.8043 6.63132 16.7048 6.57519C16.4969 6.45803 16.2858 6.34796 16.0664 6.25252C15.8995 6.17993 15.7284 6.11674 15.5586 6.0512" stroke="#F8F2EA" stroke-width="0.75" stroke-linecap="round"/>
    <path d="M17.3192 6.83391C17.2914 6.80183 17.2528 6.78979 17.2139 6.7748C17.1595 6.75384 17.1107 6.73223 17.0536 6.71848C16.9717 6.69877 16.8912 6.68653 16.8152 6.6496" stroke="#F8F2EA" stroke-width="0.75" stroke-linecap="round"/>
    <path d="M17.2159 6.77107C17.1251 6.73007 17.0074 6.74573 16.9368 6.67007C16.9048 6.63571 16.8461 6.6562 16.8066 6.63702" stroke="#F8F2EA" stroke-width="0.75" stroke-linecap="round"/>
    <path d="M25.5474 4.31464C25.5118 4.36528 25.4338 4.36377 25.3794 4.38492C25.309 4.41231 25.2378 4.44893 25.1726 4.48638" stroke="#F8F2EA" stroke-width="0.75" stroke-linecap="round"/>
    <path d="M25.6382 4.2937C25.6014 4.32263 25.565 4.34625 25.5228 4.36677C25.4737 4.39062 25.4319 4.40076 25.3768 4.40936C25.308 4.42011 25.258 4.43817 25.2006 4.47615C25.1566 4.50532 25.1161 4.53794 25.0652 4.55341" stroke="#F8F2EA" stroke-width="0.75" stroke-linecap="round"/>
    <path d="M27.4406 7.16844C27.4666 7.15704 27.5026 7.133 27.5192 7.11008C27.5268 7.0997 27.5259 7.08436 27.5269 7.07242C27.5288 7.0504 27.536 7.02565 27.5338 7.00361C27.5308 6.97238 27.3749 6.96854 27.344 6.97269C27.2906 6.97987 27.2459 7.01414 27.1972 7.03383C27.1478 7.05382 27.094 7.06496 27.0459 7.088C26.9911 7.11422 26.9469 7.15757 26.8936 7.18657C26.8044 7.23506 26.7091 7.27281 26.6196 7.32094C26.5663 7.34954 26.5149 7.38116 26.4611 7.40881C26.3729 7.45412 26.2798 7.48935 26.1883 7.52761C26.1156 7.55801 26.039 7.58525 25.9697 7.62292C25.9293 7.64491 25.8974 7.6745 25.8629 7.70382C25.7755 7.77801 25.669 7.82804 25.5638 7.87329C25.4336 7.92927 25.2997 7.98203 25.1765 8.05183C25.129 8.0787 25.0832 8.10815 25.0357 8.13482C24.9527 8.18134 24.8662 8.2215 24.7827 8.2671C24.6207 8.35561 24.4659 8.45705 24.2995 8.53793C24.2405 8.56661 24.1819 8.59347 24.1269 8.62929C24.0118 8.70423 23.9033 8.79099 23.7946 8.87432C23.688 8.956 23.5854 9.04116 23.4914 9.13655C23.4215 9.20754 23.3649 9.28298 23.3049 9.36112" stroke="#F8F2EA" stroke-width="0.75" stroke-linecap="round"/>
    <path d="M27.4407 7.13501C27.4569 7.16645 27.4439 7.22583 27.4398 7.25962C27.433 7.31497 27.416 7.37928 27.3958 7.43048C27.3734 7.48703 27.3321 7.53301 27.3006 7.58461C27.2656 7.64203 27.2402 7.70478 27.2131 7.76594C27.1882 7.8222 27.1658 7.87794 27.1543 7.93844C27.142 8.00334 27.1371 8.06948 27.1309 8.13511" stroke="#F8F2EA" stroke-width="0.75" stroke-linecap="round"/>
    <path d="M23.3262 9.3067C23.3119 9.34996 23.2817 9.37839 23.253 9.41317C23.1901 9.48947 23.1222 9.56082 23.0581 9.63612C22.9467 9.76715 22.7931 9.85383 22.6974 9.99808C22.6425 10.0807 22.5895 10.1644 22.5367 10.2482C22.4897 10.3229 22.4338 10.3915 22.3904 10.4684C22.2845 10.656 22.2023 10.8553 22.1028 11.0458C22.0587 11.1301 22.0022 11.2075 21.9641 11.2948C21.9198 11.3964 21.8925 11.5013 21.8644 11.6077C21.8351 11.7187 21.7895 11.8197 21.741 11.9236C21.6816 12.0511 21.6425 12.1857 21.6105 12.3219C21.5815 12.4453 21.5568 12.5722 21.5433 12.6982C21.5313 12.8105 21.5257 12.9211 21.5067 13.0328C21.4908 13.1266 21.4695 13.2176 21.4675 13.3131C21.4666 13.3585 21.4663 13.404 21.468 13.4494C21.4688 13.4713 21.4691 13.4806 21.48 13.4954" stroke="#F8F2EA" stroke-width="0.75" stroke-linecap="round"/>
    <path d="M21.4803 13.3825C21.4621 13.4492 21.4677 13.5282 21.4674 13.5968C21.467 13.6911 21.4582 13.7822 21.4507 13.876C21.4435 13.9644 21.4427 14.053 21.4339 14.1413C21.4241 14.2398 21.4188 14.3385 21.4222 14.4375C21.4299 14.6582 21.4171 14.8777 21.4416 15.0977C21.465 15.3089 21.4568 15.519 21.4406 15.7305C21.4227 15.9638 21.4242 16.1973 21.3811 16.4281C21.372 16.4765 21.3644 16.5247 21.3577 16.5734C21.3509 16.6219 21.336 16.668 21.3254 16.7157C21.2994 16.833 21.2851 16.9513 21.2496 17.0665C21.1692 17.327 21.1077 17.5938 21.0136 17.8502C20.9502 18.0231 20.8835 18.1959 20.8097 18.3649C20.7307 18.5457 20.6678 18.7324 20.5723 18.9061" stroke="#F8F2EA" stroke-width="0.75" stroke-linecap="round"/>
    <path d="M20.6109 18.8098C20.5813 18.8653 20.5614 18.9246 20.5367 18.9822C20.5025 19.0622 20.4672 19.1413 20.4363 19.2226C20.4029 19.3104 20.3688 19.3978 20.3194 19.4786C20.2547 19.5844 20.1828 19.6882 20.1121 19.7903C20.0489 19.8818 19.9751 19.9637 19.9065 20.0512C19.8328 20.1452 19.7743 20.2489 19.71 20.349C19.6419 20.4549 19.5728 20.5635 19.4943 20.6626C19.4335 20.7394 19.363 20.8087 19.2978 20.882C19.2406 20.9463 19.1845 21.0107 19.1211 21.0694C19.0457 21.1393 18.9586 21.1954 18.8818 21.2637C18.8092 21.3283 18.7529 21.4068 18.6867 21.4771C18.5995 21.57 18.5051 21.6571 18.4113 21.7436C18.3179 21.8295 18.2224 21.9113 18.1253 21.9932C18.029 22.0745 17.9443 22.167 17.8518 22.2522C17.6501 22.4381 17.4151 22.5761 17.1724 22.7055" stroke="#F8F2EA" stroke-width="0.75" stroke-linecap="round"/>
    <path d="M15.8254 18.3746C15.7855 18.4169 15.7533 18.4652 15.7116 18.5062C15.6327 18.5836 15.5635 18.6705 15.4749 18.7377C15.2998 18.8705 15.1062 18.9715 14.9123 19.0755C14.7979 19.1368 14.687 19.202 14.5893 19.2868C14.5485 19.3223 14.5085 19.3561 14.4619 19.3844C14.4235 19.4077 14.3855 19.4199 14.345 19.4374" stroke="#F8F2EA" stroke-width="0.75" stroke-linecap="round"/>
    <path d="M17.2974 22.6303C17.2838 22.6347 17.2722 22.6458 17.262 22.655C17.2315 22.6823 17.2029 22.7114 17.1714 22.7377C17.0946 22.8018 17.0051 22.8501 16.9328 22.919C16.8976 22.9526 16.8667 22.9897 16.8288 23.0206C16.7531 23.0822 16.6653 23.1272 16.5839 23.1808C16.5074 23.2312 16.4335 23.2823 16.3535 23.3277C16.2489 23.3871 16.1436 23.4388 16.0321 23.4849C15.9481 23.5196 15.8637 23.5531 15.7849 23.5983C15.6816 23.6576 15.5812 23.7204 15.4755 23.7759C15.337 23.8488 15.1937 23.9118 15.0533 23.981C14.9536 24.0301 14.8577 24.086 14.7583 24.1356C14.61 24.2096 14.4556 24.2692 14.2973 24.3199C14.1164 24.3779 13.9318 24.4195 13.7484 24.4692C13.5776 24.5154 13.4104 24.5739 13.2425 24.6291C13.0857 24.6807 12.9306 24.7237 12.7679 24.7546C12.386 24.8272 11.9967 24.8943 11.6077 24.9164C11.3923 24.9287 11.1785 24.9494 10.9636 24.9657C10.7758 24.98 10.5904 24.9783 10.4036 24.9532C10.2461 24.932 10.0901 24.9011 9.93169 24.8853C9.7086 24.863 9.48309 24.8718 9.26059 24.8444C9.12157 24.8272 8.99719 24.7814 8.86682 24.7347C8.71197 24.6791 8.5517 24.6366 8.39152 24.5984C8.27512 24.5707 8.15592 24.5499 8.04222 24.5124C7.90443 24.4669 7.77836 24.3944 7.64941 24.3302C7.50184 24.2566 7.34785 24.2015 7.19634 24.1367C7.05464 24.0762 6.93782 23.9854 6.81166 23.9001C6.65357 23.7932 6.48911 23.6954 6.31748 23.6104C6.15999 23.5324 5.99524 23.4695 5.84624 23.3761C5.57988 23.2091 5.32989 23.0226 5.07544 22.8395" stroke="#F8F2EA" stroke-width="0.75" stroke-linecap="round"/>
    <path d="M5.19151 22.9022C5.12932 22.8929 5.07193 22.8731 5.02367 22.8325C4.97265 22.7895 4.92242 22.7426 4.87568 22.6953C4.7183 22.5362 4.52774 22.4144 4.36333 22.2625C4.27312 22.1791 4.18489 22.0913 4.11038 21.9942C4.06491 21.9349 4.02632 21.8712 3.98199 21.8112C3.93377 21.746 3.87532 21.6948 3.81654 21.6392C3.74282 21.5694 3.68655 21.4873 3.62408 21.4084C3.5455 21.3091 3.45558 21.2194 3.37878 21.1187C3.31959 21.0411 3.26956 20.9597 3.22195 20.8751C3.15503 20.7561 3.10796 20.6278 3.03307 20.5129C2.99376 20.4526 2.95012 20.3951 2.91066 20.3348C2.8346 20.2187 2.76282 20.0999 2.69309 19.9801C2.52446 19.6903 2.37045 19.3886 2.23214 19.0841C2.1048 18.8038 1.99721 18.5154 1.86635 18.2365C1.72379 17.9327 1.56723 17.6351 1.43528 17.3266C1.32813 17.0761 1.26081 16.812 1.17324 16.5548C1.09235 16.3172 1.05015 16.0702 0.995605 15.8262" stroke="#F8F2EA" stroke-width="0.75" stroke-linecap="round"/>
    <path d="M5.2389 17.5878C5.20424 17.4299 5.11189 17.2974 5.04046 17.154C4.97834 17.0294 4.92024 16.9026 4.86617 16.7744C4.81601 16.6555 4.77263 16.534 4.72104 16.4157C4.63672 16.2223 4.51335 16.0488 4.42601 15.8568C4.37651 15.7481 4.33272 15.6371 4.28185 15.5288C4.23956 15.4389 4.19707 15.3502 4.16637 15.2557C4.10551 15.0683 4.0582 14.8742 4.0124 14.6829C3.98807 14.5812 3.97191 14.4782 3.95191 14.3758C3.93025 14.2648 3.91677 14.1596 3.91677 14.0463C3.91677 13.8775 3.88936 13.7141 3.86895 13.547C3.86216 13.4913 3.86967 13.4321 3.87349 13.3766C3.87879 13.2997 3.88781 13.2239 3.90051 13.1481" stroke="#F8F2EA" stroke-width="0.75" stroke-linecap="round"/>
    <path d="M4.83015 16.6178C4.80619 16.5804 4.78618 16.5428 4.77032 16.5015C4.75751 16.4681 4.74653 16.439 4.72125 16.4123C4.68197 16.3709 4.65103 16.3221 4.62528 16.2713C4.57421 16.1705 4.52072 16.07 4.4812 15.9644" stroke="#F8F2EA" stroke-width="0.75" stroke-linecap="round"/>
    <path d="M4.83876 16.592C4.83489 16.568 4.81839 16.5467 4.80694 16.5255C4.79307 16.4999 4.7809 16.473 4.76221 16.4502C4.73549 16.4175 4.70857 16.3841 4.67944 16.3534" stroke="#F8F2EA" stroke-width="0.75" stroke-linecap="round"/>
    <path d="M4.77859 16.5798C4.7694 16.5679 4.76589 16.5506 4.75873 16.5372C4.74064 16.5036 4.72108 16.4705 4.70584 16.4355C4.68743 16.3933 4.66978 16.3504 4.6484 16.3094C4.63175 16.2775 4.6114 16.2488 4.59766 16.2154" stroke="#F8F2EA" stroke-width="0.75" stroke-linecap="round"/>
    <path d="M5.21292 17.4463C5.19618 17.308 5.14057 17.1733 5.11271 17.0367C5.06239 16.79 5.00246 16.5459 4.94702 16.3003" stroke="#F8F2EA" stroke-width="0.75" stroke-linecap="round"/>
    <path d="M3.91943 13.2047C3.91773 13.0952 3.91659 12.9912 3.93101 12.8821C3.94416 12.7827 3.98121 12.6954 4.01126 12.6007C4.0759 12.3969 4.10667 12.1834 4.19252 11.985C4.2094 11.9459 4.23329 11.9103 4.25001 11.8712C4.27289 11.8177 4.28739 11.761 4.30391 11.7054C4.33679 11.5948 4.37658 11.4874 4.40652 11.3755C4.4196 11.3266 4.42755 11.2742 4.44924 11.228C4.47484 11.1733 4.52641 11.1257 4.56861 11.0828C4.64348 11.0066 4.73623 10.9455 4.82573 10.8871C4.91127 10.8313 4.99924 10.7792 5.09522 10.7419C5.16177 10.7161 5.20507 10.7196 5.27049 10.7101" stroke="#F8F2EA" stroke-width="0.75" stroke-linecap="round"/>
    <path d="M5.24219 12.9602C5.28974 12.7935 5.33414 12.6239 5.40907 12.4664C5.4772 12.3232 5.52383 12.178 5.56238 12.0246C5.61482 11.8161 5.66599 11.6056 5.70931 11.395" stroke="#F8F2EA" stroke-width="0.75" stroke-linecap="round"/>
    <path d="M5.5437 12.0103C5.58044 11.894 5.62492 11.7805 5.65721 11.6629C5.67277 11.6062 5.68944 11.552 5.71636 11.4997" stroke="#F8F2EA" stroke-width="0.75" stroke-linecap="round"/>
    <path d="M5.62964 11.9679C5.70144 11.7646 5.80229 11.565 5.90352 11.3739C5.98182 11.2261 6.0635 11.0658 6.17501 10.9388C6.25462 10.848 6.31773 10.7448 6.39779 10.6542C6.4288 10.6191 6.4686 10.5915 6.50279 10.5595C6.55316 10.5122 6.59859 10.4609 6.64452 10.4096C6.72117 10.3241 6.7969 10.2357 6.87768 10.1538C6.98316 10.0469 7.07332 9.92547 7.18471 9.8242C7.2728 9.7441 7.3724 9.68167 7.47656 9.62311C7.60705 9.54975 7.75189 9.5106 7.88618 9.44531" stroke="#F8F2EA" stroke-width="0.75" stroke-linecap="round"/>
    <path d="M6.89453 10.1021C6.98175 10.0848 7.04934 10.0054 7.11651 9.95379C7.19755 9.89149 7.2892 9.85196 7.37403 9.79656C7.47733 9.7291 7.55411 9.63026 7.65629 9.56403" stroke="#F8F2EA" stroke-width="0.75" stroke-linecap="round"/>
    <path d="M4.55908 11.1369C4.57482 11.0629 4.60723 10.9956 4.64581 10.9305C4.70235 10.8351 4.75886 10.7353 4.82526 10.6472" stroke="#F8F2EA" stroke-width="0.75" stroke-linecap="round"/>
    <path d="M1.03058 15.846C0.947257 15.4936 0.914686 15.1306 0.889648 14.7711C0.877237 14.5928 0.829341 14.4199 0.816585 14.2419C0.797466 13.9753 0.809778 13.7055 0.845331 13.4407C0.87215 13.2409 0.91885 13.0449 0.950732 12.8459C0.978223 12.6744 1.00239 12.5029 1.03378 12.332C1.08629 12.046 1.11414 11.7462 1.21104 11.4701C1.26167 11.3259 1.32627 11.1906 1.35756 11.0404C1.3917 10.8766 1.43186 10.7256 1.5001 10.5718C1.59299 10.3625 1.65912 10.1437 1.75082 9.93439C1.82172 9.77253 1.92028 9.6239 2.0271 9.48251C2.11708 9.36342 2.23477 9.27242 2.32893 9.15797C2.42495 9.04127 2.49812 8.90337 2.58725 8.78102C2.67587 8.65937 2.78112 8.55026 2.87351 8.43124C2.99116 8.27968 3.13317 8.14885 3.25119 7.99878" stroke="#F8F2EA" stroke-width="0.75" stroke-linecap="round"/>
    <path d="M16.0719 6.2239C15.8595 6.15436 15.6565 6.06337 15.4459 5.98942C15.2194 5.90989 14.9781 5.85205 14.7424 5.80464C14.3803 5.73178 14.0127 5.71999 13.6469 5.67498C13.3284 5.63578 13.0178 5.57757 12.6951 5.58103C12.4058 5.58413 12.1176 5.61616 11.8283 5.61442C11.5695 5.61286 11.3123 5.57851 11.0534 5.57443C10.7624 5.56984 10.4719 5.58948 10.181 5.59306C9.95345 5.59586 9.72563 5.58982 9.49831 5.57986C9.27113 5.56991 9.04389 5.55006 8.81639 5.54881C8.62502 5.54775 8.4351 5.56717 8.24587 5.59345C8.02454 5.6242 7.80318 5.65911 7.58312 5.69749C7.46991 5.71724 7.38172 5.73264 7.27131 5.7631C7.13627 5.80036 7.01413 5.85723 6.88763 5.91489C6.72031 5.99115 6.55103 6.05501 6.3742 6.10744C6.20945 6.15629 6.0363 6.19003 5.87674 6.25418C5.7278 6.31407 5.59751 6.40937 5.44954 6.47158C5.2558 6.55303 5.05552 6.62355 4.86664 6.71537C4.79252 6.75141 4.72025 6.79171 4.65185 6.83727C4.55583 6.90123 4.47184 6.98015 4.37437 7.04225C4.18743 7.16134 3.98206 7.24452 3.82141 7.39901C3.67803 7.5369 3.52202 7.65658 3.37146 7.78644C3.2937 7.85352 3.2235 7.94091 3.17583 8.0314C3.15373 8.07335 3.12656 8.11358 3.11475 8.15951" stroke="#F8F2EA" stroke-width="0.75" stroke-linecap="round"/>
    <path d="M12.4427 8.20154C12.33 8.20515 12.2179 8.21698 12.1057 8.22716C11.873 8.24828 11.6399 8.26248 11.407 8.28151C11.2488 8.29443 11.0938 8.32283 10.9367 8.34362C10.7432 8.36924 10.5484 8.37885 10.3534 8.38633C10.112 8.39558 9.86675 8.42346 9.63636 8.49813C9.40446 8.57329 9.18178 8.66443 8.94287 8.71863" stroke="#F8F2EA" stroke-width="0.75" stroke-linecap="round"/>
    <path d="M9.71183 8.56482C9.53882 8.62941 9.35959 8.65912 9.1976 8.75194C9.12807 8.79178 9.05892 8.83535 8.986 8.86917C8.91424 8.90247 8.83298 8.90827 8.76003 8.93983C8.67612 8.97613 8.59561 9.02057 8.51329 9.06017C8.42373 9.10326 8.32606 9.13746 8.2426 9.19139C8.12191 9.26937 8.01331 9.36193 7.88647 9.4313" stroke="#F8F2EA" stroke-width="0.75" stroke-linecap="round"/>
    <path d="M10.4446 8.23643C10.4224 8.24202 10.4041 8.25362 10.3843 8.26477C10.3181 8.30202 10.2536 8.33682 10.1791 8.356C10.1027 8.37567 10.036 8.39295 9.9663 8.43054C9.91513 8.45814 9.87153 8.48211 9.81259 8.49071C9.75265 8.49945 9.68909 8.49203 9.62854 8.49343C9.61892 8.49365 9.52514 8.48206 9.5399 8.45694C9.54497 8.44831 9.58399 8.44184 9.595 8.4352C9.6479 8.40327 9.55417 8.44952 9.56865 8.40026C9.57539 8.37731 9.64853 8.38174 9.66567 8.37891C9.71877 8.37014 9.76998 8.35239 9.82257 8.34125C10.02 8.29941 10.2168 8.26667 10.4095 8.2046C10.4772 8.18277 10.538 8.16296 10.6095 8.15569C10.7363 8.14277 10.8589 8.1159 10.9836 8.09124C11.127 8.06288 11.2695 8.05916 11.4144 8.04272C11.6113 8.02036 11.8111 7.97342 12.0104 7.99419C12.1381 8.00749 12.2596 8.05594 12.3849 8.08193C12.5788 8.12212 12.7752 8.14892 12.9702 8.18364C13.2481 8.23311 13.536 8.25168 13.8051 8.34086C13.9307 8.38251 14.0588 8.41393 14.1915 8.42549C14.2451 8.43016 14.2974 8.44545 14.3484 8.46159C14.4009 8.47822 14.4591 8.48526 14.5101 8.50469C14.5292 8.51193 14.4692 8.50288 14.449 8.49964C14.3366 8.48153 14.225 8.45812 14.1121 8.44218C13.9598 8.42069 13.8034 8.42061 13.6498 8.4185C13.5171 8.41669 13.3853 8.42426 13.2529 8.43054C13.1334 8.4362 13.0154 8.4675 12.8956 8.46159C12.7659 8.4552 12.6495 8.40173 12.5231 8.3824C12.3587 8.35727 12.185 8.39244 12.0188 8.3824C11.8515 8.3723 11.6866 8.35483 11.5186 8.36221C11.4797 8.36392 11.3962 8.38606 11.3645 8.35523" stroke="#F8F2EA" stroke-width="0.75" stroke-linecap="round"/>
    <path d="M13.0608 8.32726C12.9155 8.31859 12.7725 8.28955 12.63 8.26243C12.468 8.23162 12.3053 8.21301 12.1409 8.19915C12.0768 8.19375 12.0154 8.19003 11.9517 8.18285C11.9016 8.17721 11.8498 8.16266 11.7991 8.16266C11.764 8.16266 11.7377 8.17637 11.7097 8.19449" stroke="#F8F2EA" stroke-width="0.75" stroke-linecap="round"/>
    <path d="M11.918 8.3063C11.7963 8.3213 11.6746 8.3196 11.5522 8.31717C11.4428 8.315 11.3328 8.32884 11.2245 8.30902C11.1387 8.29334 11.0612 8.28047 10.9733 8.28844C10.9207 8.29322 10.867 8.30342 10.82 8.32804C10.7942 8.34155 10.8171 8.33563 10.8256 8.33425" stroke="#F8F2EA" stroke-width="0.75" stroke-linecap="round"/>
    <path d="M11.5164 8.36928C11.4432 8.36051 11.3693 8.36274 11.2958 8.35801C11.2156 8.35285 11.1397 8.328 11.0604 8.32148C11.0168 8.31789 10.968 8.31685 10.9249 8.32497C10.9199 8.32591 10.848 8.35041 10.8761 8.3413" stroke="#F8F2EA" stroke-width="0.75" stroke-linecap="round"/>
    <path d="M11.3216 8.31323C11.1695 8.34685 11.0201 8.32326 10.8673 8.34118C10.7924 8.34997 10.7221 8.35642 10.6517 8.38466C10.5682 8.41813 10.4897 8.41603 10.4013 8.42154C10.278 8.42923 10.1611 8.39158 10.0416 8.4328C9.93635 8.46912 9.83384 8.495 9.7334 8.54383" stroke="#F8F2EA" stroke-width="0.75" stroke-linecap="round"/>
    <path d="M10.4526 8.36218C10.3673 8.43974 10.2209 8.41694 10.1145 8.44651C10.0324 8.4693 9.95499 8.48638 9.86987 8.49509" stroke="#F8F2EA" stroke-width="0.75" stroke-linecap="round"/>
    <path d="M14.4617 8.45308C14.3405 8.4097 14.2327 8.37786 14.1035 8.37583C14.0347 8.37475 13.9666 8.36712 13.8979 8.36379C13.8056 8.35933 13.7114 8.37028 13.6208 8.34827" stroke="#F8F2EA" stroke-width="0.75" stroke-linecap="round"/>
    <path d="M14.4619 8.52289C14.4619 8.55462 14.3573 8.52511 14.3422 8.52289C14.2098 8.50341 14.0858 8.49403 13.9577 8.45417C13.7947 8.40346 13.6362 8.4229 13.4702 8.43903" stroke="#F8F2EA" stroke-width="0.75" stroke-linecap="round"/>
    <path d="M13.8922 8.45204C13.6174 8.44282 13.3428 8.4192 13.0676 8.42254C12.9715 8.42371 12.8795 8.43557 12.7845 8.44767C12.6523 8.46451 12.5242 8.4461 12.3941 8.42309C12.0464 8.36162 11.6968 8.40005 11.3464 8.40288C11.1581 8.4044 10.9814 8.44903 10.7959 8.4717C10.5371 8.50335 10.2829 8.49547 10.0252 8.54708C9.80442 8.5913 9.59108 8.65936 9.37078 8.70439C9.10786 8.75812 8.86312 8.86098 8.604 8.92397" stroke="#F8F2EA" stroke-width="0.75" stroke-linecap="round"/>
    <path d="M14.1757 8.50122C14.0364 8.51527 13.9007 8.49244 13.7607 8.51114" stroke="#F8F2EA" stroke-width="0.75" stroke-linecap="round"/>
    <path d="M14.297 8.53074C14.2897 8.64778 13.639 8.52835 13.5437 8.50998C13.4095 8.48413 13.285 8.43382 13.155 8.39473C13.0715 8.36966 12.9846 8.36411 12.9016 8.34393" stroke="#F8F2EA" stroke-width="0.75" stroke-linecap="round"/>
    <path d="M14.4583 8.57983C14.3878 8.59566 14.3182 8.60935 14.2458 8.60935" stroke="#F8F2EA" stroke-width="0.75" stroke-linecap="round"/>
    <path d="M14.4386 8.56023C14.3742 8.55654 14.4442 8.51412 14.4482 8.54164C14.4494 8.54965 14.4435 8.57635 14.4544 8.57937C14.463 8.58176 14.4821 8.57007 14.469 8.57007C14.4454 8.57007 14.4173 8.58384 14.3948 8.58976C14.3498 8.60157 14.3039 8.60063 14.2576 8.59905C14.1558 8.59558 14.0786 8.56705 13.9832 8.54055" stroke="#F8F2EA" stroke-width="0.75" stroke-linecap="round"/>
    <path d="M12.507 8.15711C12.4906 8.12784 12.436 8.10762 12.4087 8.08993C12.3413 8.04628 12.2602 8.04431 12.1829 8.02329C12.082 7.99586 11.9936 7.97031 11.8885 7.97031C11.7862 7.97031 11.684 7.96951 11.5818 7.97577C11.4769 7.98221 11.3777 8.00202 11.2745 8.01892C11.1417 8.04068 11.0062 8.03989 10.8729 8.0588C10.6608 8.08887 10.4548 8.15294 10.2426 8.18552C10.1503 8.19969 10.0544 8.1994 9.96342 8.22047C9.89265 8.23686 9.82041 8.26467 9.75221 8.2893C9.6827 8.3144 9.61402 8.34883 9.53987 8.35921C9.47284 8.3686 9.40397 8.36216 9.33652 8.36358C9.22213 8.366 9.10431 8.42321 8.99835 8.45971C8.8682 8.50456 8.72698 8.52993 8.604 8.58971" stroke="#F8F2EA" stroke-width="0.75" stroke-linecap="round"/>
    <path d="M10.5048 8.12762C10.1938 8.21792 9.86455 8.25829 9.54427 8.30678C9.32253 8.34035 9.1014 8.37617 8.88029 8.41329C8.65797 8.45062 8.45922 8.53829 8.24833 8.61211C8.03586 8.68649 7.81016 8.72737 7.59277 8.78636" stroke="#F8F2EA" stroke-width="0.75" stroke-linecap="round"/>
    <path d="M10.5048 8.54053C10.3116 8.55541 10.118 8.54576 9.92681 8.58204C9.66728 8.63128 9.41808 8.71798 9.17633 8.82073C9.08247 8.86062 8.98992 8.90085 8.89152 8.92943C8.72974 8.97641 8.56233 9.00275 8.40168 9.05397C8.11465 9.14548 7.85179 9.30674 7.59277 9.45488" stroke="#F8F2EA" stroke-width="0.75" stroke-linecap="round"/>
    <path d="M13.9631 8.50124C13.6973 8.51484 13.4371 8.4673 13.171 8.47939C13.0857 8.48327 13.0004 8.50211 12.9154 8.50288C12.8265 8.50368 12.7432 8.48432 12.6587 8.46191" stroke="#F8F2EA" stroke-width="0.75" stroke-linecap="round"/>
    <path d="M12.1028 8.46191H12.5988" stroke="#F8F2EA" stroke-width="0.75" stroke-linecap="round"/>
    <path d="M14.0135 8.6192C13.815 8.54784 13.6205 8.53802 13.4102 8.53618C13.1832 8.53419 12.9575 8.52751 12.7311 8.5116C12.5514 8.49896 12.3725 8.51304 12.1929 8.5045C12.0244 8.49647 11.8612 8.45173 11.6935 8.43677C11.2399 8.39628 10.7678 8.44322 10.333 8.57004" stroke="#F8F2EA" stroke-width="0.75" stroke-linecap="round"/>
    <path d="M14.3776 8.511C14.3735 8.47913 14.2317 8.51686 14.2102 8.52193C14.1237 8.54231 14.1338 8.58263 14.1557 8.64646C14.163 8.66785 14.3077 8.62383 14.3315 8.61915C14.4481 8.59623 14.5714 8.56743 14.5573 8.42907C14.5408 8.26652 14.2411 8.25772 14.1209 8.25483C14.0161 8.25232 13.9152 8.22658 13.8113 8.21605C13.6918 8.20393 13.5791 8.22423 13.4631 8.18546C13.3676 8.15359 13.2739 8.12259 13.1732 8.10954C13.0379 8.092 12.902 8.11984 12.7654 8.10353C12.5506 8.07789 12.3405 8.01908 12.1227 8.01778C11.9206 8.01656 11.7337 8.09169 11.5464 8.15706" stroke="#F8F2EA" stroke-width="0.75" stroke-linecap="round"/>
    <path d="M14.3176 8.6389C14.2343 8.6389 14.1575 8.63885 14.0747 8.63125C13.9742 8.62204 13.8686 8.62836 13.771 8.60938" stroke="#F8F2EA" stroke-width="0.75" stroke-linecap="round"/>
    <path d="M13.964 8.56027C13.8067 8.55695 13.6427 8.5495 13.4882 8.51872C13.4215 8.50543 13.3639 8.50122 13.2959 8.50122" stroke="#F8F2EA" stroke-width="0.75" stroke-linecap="round"/>
    <path d="M13.7819 8.53094C13.7195 8.53094 13.6635 8.52453 13.6038 8.50519C13.5699 8.4942 13.4112 8.4412 13.5283 8.4619" stroke="#F8F2EA" stroke-width="0.75" stroke-linecap="round"/>
    <path d="M13.751 8.54059C13.67 8.54059 13.5918 8.48157 13.5183 8.48157" stroke="#F8F2EA" stroke-width="0.75" stroke-linecap="round"/>
    <path d="M13.7109 8.60955C13.6514 8.60955 13.622 8.58822 13.5686 8.56088C13.5218 8.5369 13.4769 8.53027 13.4247 8.53518C13.3796 8.53942 13.3304 8.48589 13.2959 8.46191" stroke="#F8F2EA" stroke-width="0.75" stroke-linecap="round"/>
    <path d="M13.6394 8.58974C13.6312 8.61089 13.3997 8.59498 13.3641 8.59738C13.2074 8.60799 13.0437 8.59697 12.8866 8.5952C12.78 8.594 12.6803 8.557 12.5743 8.5515C12.4838 8.54681 12.4009 8.55175 12.3125 8.52638C12.1575 8.48186 11.9823 8.44226 11.8193 8.44226" stroke="#F8F2EA" stroke-width="0.75" stroke-linecap="round"/>
    <path d="M12.6282 8.51104C12.5342 8.53715 12.4239 8.51398 12.3277 8.51158C12.2341 8.50925 12.1436 8.50995 12.0552 8.47499C11.9743 8.44298 11.9058 8.38858 11.8243 8.35865C11.7742 8.34022 11.7267 8.3159 11.6777 8.29474" stroke="#F8F2EA" stroke-width="0.75" stroke-linecap="round"/>
    <path d="M17.9166 13.1713C18.0536 13.1903 18.0561 13.3003 18.1228 13.3964C18.2002 13.508 18.1923 13.6519 18.1818 13.7809C18.1745 13.8692 18.1765 13.9602 18.1531 14.0464C18.1286 14.1367 18.1003 14.2256 18.0784 14.3167C18.0505 14.4329 18.0208 14.5487 17.9919 14.6647C17.9596 14.7944 17.8948 14.8895 17.82 15C17.7635 15.0836 17.7058 15.1736 17.665 15.2655C17.6255 15.3543 17.601 15.4481 17.5599 15.5364C17.3898 15.9021 17.1811 16.2596 16.9628 16.6004C16.8246 16.8161 16.6831 17.0312 16.5359 17.2411C16.3972 17.4389 16.2401 17.6249 16.1078 17.8267C15.9868 18.0114 15.9001 18.223 15.7528 18.3904C15.5602 18.6092 15.3035 18.7662 15.0854 18.9601C15.0449 18.9961 14.998 19.0253 14.9585 19.0622C14.9148 19.103 14.893 19.1622 14.8568 19.2091C14.6991 19.4136 14.4538 19.5273 14.2226 19.6363C13.8629 19.8058 13.5311 20.0303 13.1609 20.1776C12.818 20.314 12.467 20.4481 12.1138 20.5572C11.7273 20.6766 11.2922 20.7879 10.8853 20.72C10.6898 20.6873 10.522 20.6139 10.3488 20.5233C10.1741 20.4319 10.0299 20.3385 9.90056 20.1912C9.77734 20.0509 9.65524 19.9018 9.56126 19.7412C9.49862 19.6341 9.44359 19.5184 9.39836 19.4036C9.36224 19.3119 9.32878 19.212 9.31073 19.1152C9.25786 18.8317 9.32359 19.1079 9.29163 18.8344" stroke="#F8F2EA" stroke-width="0.75" stroke-linecap="round"/>
    <path d="M17.8152 14.8428C17.744 15.0576 17.692 15.2796 17.6164 15.4928C17.5569 15.6603 17.4695 15.8206 17.3928 15.9811C17.3488 16.0731 17.3082 16.1666 17.2642 16.2586C17.219 16.3529 17.1616 16.4418 17.1271 16.5404C17.0932 16.6372 17.0752 16.7434 17.0322 16.8364C16.9825 16.9438 16.9065 17.0373 16.8468 17.139C16.7454 17.3118 16.6441 17.4912 16.5148 17.6454C16.4351 17.7404 16.3303 17.8138 16.2457 17.9048C16.1835 17.9718 16.1245 18.0416 16.0716 18.1157C16.028 18.1768 15.9878 18.2407 15.9469 18.3036C15.8919 18.3878 15.8142 18.4395 15.7424 18.51C15.6485 18.6024 15.5748 18.7109 15.4778 18.8012C15.3719 18.8997 15.2728 19.0056 15.1554 19.0912C15.0466 19.1705 14.9624 19.2589 14.8268 19.2966C14.7542 19.3167 14.6824 19.3394 14.6099 19.3599C14.5842 19.3672 14.5467 19.3788 14.5189 19.3796C14.4629 19.3812 14.4851 19.3545 14.4583 19.3261" stroke="#F8F2EA" stroke-width="0.75" stroke-linecap="round"/>
    <path d="M17.7649 14.9902C17.7402 15.1281 17.6953 15.2597 17.6806 15.3999C17.6716 15.4854 17.6725 15.5703 17.6514 15.6544C17.6289 15.7438 17.5928 15.8308 17.5565 15.9155C17.4653 16.1281 17.3493 16.3075 17.2087 16.4923C17.0774 16.665 16.9639 16.8452 16.8447 17.0254" stroke="#F8F2EA" stroke-width="0.75" stroke-linecap="round"/>
    <path d="M17.9066 14.5478C17.8906 14.9409 17.7996 15.3378 17.6538 15.7036C17.5513 15.9606 17.4331 16.2107 17.2937 16.4508C17.2252 16.5687 17.145 16.6754 17.064 16.7851C17.0211 16.8431 16.9812 16.8996 16.9258 16.9467" stroke="#F8F2EA" stroke-width="0.75" stroke-linecap="round"/>
    <path d="M17.9975 14.6559C17.9542 14.7801 17.9124 14.9024 17.8813 15.0301C17.8681 15.0842 17.8461 15.1286 17.8206 15.1781C17.7699 15.2767 17.7304 15.3813 17.6841 15.4818" stroke="#F8F2EA" stroke-width="0.75" stroke-linecap="round"/>
    </svg>
    