<svg width="22" height="33" viewBox="0 0 22 33" fill="none" xmlns="http://www.w3.org/2000/svg">
    <path d="M19.8017 10.9099C18.6847 9.06555 16.9732 7.58802 14.9103 6.66751C14.9687 6.60507 15.0262 6.54351 15.0831 6.48272C15.5066 6.02992 15.8902 5.61974 16.2491 5.20766C16.7408 4.6609 17.1324 4.04289 17.1965 3.38588C17.2641 2.69258 16.9608 2.04477 16.2556 1.48299C15.8955 1.19615 15.5377 1.04505 15.179 1.02241C14.821 0.999827 14.5054 1.10794 14.2347 1.26217C13.9683 1.41397 13.7304 1.61917 13.5231 1.81062C13.4522 1.87615 13.3862 1.93869 13.3232 1.99836C13.1912 2.12351 13.0724 2.23601 12.9496 2.3369L12.94 2.34475L12.931 2.35322C12.0785 3.15332 10.923 3.64494 9.68482 3.72486C8.44657 3.80477 7.22337 3.46657 6.25091 2.7817L6.24223 2.77558L6.23322 2.76997C6.13127 2.70648 6.0411 2.64529 5.94391 2.57933C5.86629 2.52665 5.78419 2.47093 5.68803 2.40858C5.49315 2.2822 5.27296 2.15168 5.0373 2.06374C4.79863 1.97469 4.52927 1.92363 4.24186 1.97266C3.95146 2.02221 3.67799 2.16792 3.42333 2.41332L3.42325 2.41324L3.41666 2.41992C2.97778 2.86454 2.88594 3.38073 2.98379 3.87396C3.07579 4.3377 3.33357 4.78 3.58378 5.14752C3.84136 5.56139 4.16885 5.93399 4.55304 6.25215L4.5613 6.259L4.56994 6.26535C4.80689 6.43974 4.93665 6.57158 5.00087 6.6679C5.05604 6.75066 5.04814 6.78271 5.04568 6.79272C5.0456 6.79302 5.04553 6.7933 5.04547 6.79357C5.03858 6.82248 5.0073 6.89087 4.88417 7.00616C4.76474 7.118 4.59174 7.24405 4.35831 7.39634C2.76739 8.38597 1.56667 9.82112 0.944599 11.4916C0.323844 13.1585 0.31527 14.964 0.919982 16.6356C1.34696 18.2663 2.34268 19.7215 3.75028 20.7878C5.16064 21.8562 6.91053 22.4787 8.73715 22.5675C9.28251 22.6139 9.46073 22.7351 9.54149 22.8396C9.64309 22.9711 9.6872 23.1837 9.72959 23.6441C9.7501 23.8741 9.71646 23.9975 9.68195 24.0643C9.65031 24.1255 9.6003 24.1737 9.50945 24.218C9.41006 24.2665 9.28082 24.3013 9.10731 24.3381C9.07208 24.3456 9.03433 24.3533 8.99483 24.3613C8.85667 24.3895 8.69714 24.4219 8.54902 24.4655C8.0495 24.6121 7.54411 24.8213 7.18458 25.1693C6.80223 25.5395 6.61192 26.0407 6.71045 26.6803C6.79516 27.2302 6.97108 27.7812 7.36257 28.1594C7.77502 28.5578 8.35548 28.6994 9.09393 28.572C9.39188 28.5206 9.55054 28.542 9.62995 28.5706C9.69063 28.5925 9.72023 28.623 9.74679 28.6796C9.78185 28.7543 9.80377 28.862 9.82327 29.0276C9.82687 29.0581 9.83044 29.0916 9.83423 29.1272C9.8483 29.2591 9.86542 29.4194 9.89803 29.5638C10.0945 30.4532 10.4277 31.1484 10.9587 31.5929C11.4989 32.045 12.1856 32.1901 12.981 32.0989C13.3865 32.0699 13.7821 31.964 14.1423 31.7868C14.5053 31.6082 14.8252 31.3607 15.0795 31.0585C15.334 30.7562 15.517 30.4061 15.6139 30.0305C15.7094 29.6603 15.7187 29.2757 15.6411 28.9019C15.5607 28.2449 15.6163 27.8597 15.7897 27.6163C15.9575 27.381 16.3099 27.1788 17.0991 27.0933C17.3533 27.0665 17.6003 26.9943 17.8261 26.8798C18.0521 26.7651 18.2534 26.6098 18.4169 26.4211C18.5805 26.2323 18.7031 26.0139 18.7754 25.7777C18.8478 25.5415 18.8679 25.2937 18.8342 25.0494L18.8322 25.0344L18.8289 25.0195C18.721 24.5326 18.4123 24.1126 17.981 23.8399C17.5608 23.5742 17.051 23.4643 16.5518 23.5259C16.3123 23.5148 16.0724 23.5153 15.8329 23.5275L15.8131 23.5286L15.7934 23.5317C15.3761 23.5977 15.2161 23.5301 15.1332 23.46C15.0271 23.3701 14.9324 23.1857 14.8297 22.7812L14.8297 22.7812L14.8283 22.7762C14.7222 22.3812 14.7892 22.2232 14.8709 22.122C14.9902 21.9742 15.2116 21.8529 15.6148 21.6553L15.617 21.6542C18.0246 20.4536 19.6881 18.7669 20.4399 16.8633C21.1953 14.9506 21.0132 12.8592 19.8017 10.9099ZM6.67345 12.1458L6.67405 12.1418C6.80412 11.2778 7.20357 10.7991 7.75067 10.4873C8.32874 10.1579 9.08325 10.0075 9.94114 9.86431C10.3517 9.79672 10.7556 9.7581 11.1516 9.72023C11.3029 9.70577 11.4529 9.69142 11.6018 9.67562C11.8544 9.70006 12.0923 9.71603 12.3212 9.73139C12.7218 9.75828 13.0947 9.78331 13.4698 9.84865C14.0371 9.94747 14.5269 10.1305 14.9426 10.5209L14.9433 10.5215C15.748 11.2736 16.1132 11.977 16.1412 12.6542C16.1692 13.333 15.8624 14.0763 15.1235 14.9158L15.1232 14.9161C13.0814 17.2416 10.7421 17.8106 8.72663 16.8497C7.66318 16.3427 7.07722 15.8126 6.78259 15.132C6.48126 14.4359 6.45282 13.5126 6.67345 12.1458ZM3.99459 12.3707C3.85643 13.2247 3.81681 14.0895 3.8764 14.951C3.77179 14.5355 3.72659 14.1071 3.74415 13.6763C3.76232 13.2304 3.84731 12.7914 3.99459 12.3707Z" fill="#060606" stroke="#F8F2EA" stroke-width="0.75"/>
    <path d="M4.88698 17.4395C4.09011 16.3837 3.67894 15.0538 3.73009 13.6975C3.78123 12.3412 4.29118 11.0511 5.16494 10.0675C4.38831 12.4403 4.29153 15.0074 4.88698 17.4395Z" fill="#F8F2EA"/>
    <path d="M12.3608 5.29736C11.7607 5.75393 11.0399 6.04352 10.278 6.13412C9.51612 6.22472 8.74283 6.11283 8.04346 5.8108C9.49254 5.7271 10.9345 5.55561 12.3608 5.29736Z" fill="#F8F2EA"/>
    <path d="M18.1166 26.1908C17.9387 26.3614 17.7279 26.5168 17.4898 26.6143C17.3747 26.6615 17.2559 26.7033 17.1345 26.7351C17.0652 26.7532 16.9944 26.7663 16.9262 26.7877C16.8796 26.8023 16.8353 26.8225 16.7874 26.8339C16.6916 26.8567 16.5909 26.8635 16.4941 26.8845C16.3245 26.9213 16.1589 26.966 15.9948 27.0194C15.7917 27.0856 15.5891 27.1597 15.4868 27.3445C15.4451 27.42 15.4113 27.4969 15.3649 27.5704C15.3299 27.626 15.3148 27.6728 15.309 27.7359C15.2933 27.9036 15.2756 28.0741 15.2369 28.2387C15.1942 28.4208 15.2112 28.5866 15.2343 28.7693C15.2574 28.9511 15.264 29.1379 15.2747 29.3207C15.2791 29.3962 15.2982 29.4706 15.3003 29.5462C15.3027 29.632 15.269 29.7091 15.2352 29.7877C15.1808 29.9142 15.1493 30.0442 15.1051 30.1732C15.0441 30.3514 14.9921 30.5604 14.8647 30.7109C14.7719 30.8206 14.6537 30.9149 14.5507 31.0168C14.4728 31.0938 14.402 31.1757 14.3121 31.2419C14.1269 31.3782 13.9193 31.5205 13.6973 31.6031C13.587 31.6442 13.4687 31.6632 13.3516 31.6811C13.1939 31.7052 13.0376 31.731 12.8813 31.7619C12.6371 31.8102 12.3985 31.817 12.1495 31.8145C12.0142 31.8131 11.8745 31.781 11.7486 31.7364C11.6324 31.6953 11.5694 31.6203 11.4823 31.5454C11.4171 31.4894 11.3518 31.4337 11.2875 31.3768C11.2131 31.311 11.1571 31.2364 11.0966 31.1603C11.0553 31.1084 11.016 31.0583 10.9873 30.9995C10.9592 30.9421 10.948 30.8669 10.9036 30.8176C10.8652 30.7749 10.8431 30.7341 10.8181 30.6842C10.777 30.6024 10.6964 30.5572 10.6264 30.4976C10.5613 30.4422 10.4974 30.3821 10.4489 30.314C10.3653 30.1965 10.3278 30.0653 10.2875 29.9321C10.1877 29.6016 10.0624 29.277 10.0771 28.9289C10.0822 28.8093 10.12 28.6949 10.1288 28.5763C10.1362 28.4759 10.0915 28.402 10.0103 28.3359C9.90771 28.2524 9.78724 28.2074 9.65547 28.1744C9.45348 28.1238 9.24264 28.1014 9.03338 28.1202C8.84749 28.137 8.67423 28.2079 8.48937 28.2238C8.39549 28.2318 8.31832 28.1983 8.23342 28.1673C7.99284 28.0796 7.73209 28.0221 7.55363 27.8402C7.47083 27.7559 7.46195 27.6684 7.42045 27.5673C7.37696 27.4614 7.29175 27.3744 7.23304 27.2755C7.19415 27.21 7.15681 27.1428 7.12762 27.0732C7.08946 26.9821 7.07961 26.8843 7.05474 26.79C6.98522 26.5265 6.86548 26.2428 6.97275 25.9727C7.01248 25.8727 7.07975 25.7788 7.14628 25.6919C7.2452 25.5627 7.3499 25.4366 7.47945 25.3312C7.69521 25.1555 7.95117 25.0173 8.23733 24.9578C8.40818 24.9223 8.58231 24.9091 8.75053 24.8621C8.8945 24.8219 9.02444 24.7523 9.16873 24.7139C9.34199 24.6677 9.50128 24.6104 9.66501 24.5413C9.73341 24.5125 9.80551 24.4891 9.87238 24.4574C9.92222 24.4338 9.93494 24.4089 9.97216 24.3766" stroke="#F8F2EA" stroke-width="0.75" stroke-linecap="round"/>
    <path d="M18.1458 26.189C18.2152 26.1056 18.2941 26.0263 18.318 25.9215C18.3339 25.8515 18.3335 25.7804 18.3564 25.7108C18.387 25.6178 18.4216 25.5267 18.4428 25.4312C18.4654 25.3297 18.4595 25.2303 18.4413 25.1287C18.4201 25.0107 18.3757 24.9039 18.3109 24.7994C18.2774 24.7455 18.2344 24.6969 18.1923 24.6484C18.1398 24.5878 18.0866 24.5274 18.0318 24.4684C17.9848 24.4178 17.9333 24.37 17.8779 24.3268C17.824 24.2848 17.7632 24.2529 17.703 24.2191C17.6284 24.1772 17.5575 24.1306 17.4841 24.0871C17.439 24.0603 17.3918 24.0406 17.342 24.0219C17.2627 23.9922 17.1832 23.9618 17.1002 23.9413C17.009 23.9187 16.9148 23.9006 16.8212 23.8889C16.7254 23.8769 16.632 23.8817 16.5358 23.8842C16.4263 23.8871 16.3175 23.8753 16.2081 23.872C16.1144 23.8693 16.0201 23.8676 15.9263 23.871C15.7694 23.8766 15.615 23.8844 15.4581 23.8703C15.3861 23.8638 15.3146 23.8562 15.2421 23.8552C15.1558 23.8541 15.0662 23.8625 14.9872 23.8241C14.9183 23.7906 14.8779 23.7367 14.8473 23.6738C14.8108 23.5989 14.775 23.5256 14.7311 23.4538C14.6838 23.3764 14.6383 23.2989 14.5851 23.2245C14.5099 23.1194 14.4356 23.0191 14.3943 22.8982C14.3097 22.6504 14.3408 22.3994 14.4022 22.1512" stroke="#F8F2EA" stroke-width="0.75" stroke-linecap="round"/>
    <path d="M14.4163 22.164C14.4163 22.1262 14.425 22.089 14.4479 22.0568C14.4794 22.0127 14.5323 21.9848 14.573 21.9483C14.633 21.8943 14.6835 21.8342 14.7368 21.7751C14.8113 21.6926 14.9129 21.6393 15.0095 21.5805C15.0563 21.552 15.1031 21.5236 15.1512 21.4969C15.1994 21.4702 15.2532 21.4486 15.2976 21.4168C15.3776 21.3595 15.4341 21.2844 15.5284 21.2427C15.5851 21.2177 15.6457 21.2049 15.7067 21.1917C15.7955 21.1726 15.8747 21.1461 15.9568 21.1098C16.024 21.0801 16.0924 21.0506 16.1565 21.0155C16.2176 20.9821 16.2696 20.9405 16.3231 20.8982C16.3609 20.8682 16.4009 20.8414 16.4412 20.8143C16.529 20.7552 16.615 20.6939 16.7028 20.6347C16.84 20.5422 16.978 20.4509 17.1186 20.3626C17.2895 20.2552 17.4642 20.154 17.6242 20.0333C17.7584 19.932 17.8838 19.8262 17.9996 19.7075C18.2589 19.4415 18.508 19.1684 18.776 18.9093C18.8384 18.849 18.9034 18.7908 18.9646 18.7296C19.0456 18.6486 19.115 18.5602 19.173 18.4644C19.2539 18.3309 19.2971 18.1909 19.3281 18.0424" stroke="#F8F2EA" stroke-width="0.75" stroke-linecap="round"/>
    <path d="M9.93541 24.3986C10.0095 24.2869 10.0502 24.1569 10.0666 24.028C10.0776 23.9418 10.0852 23.8557 10.0904 23.7691C10.0978 23.6455 10.1129 23.5224 10.1171 23.3986C10.1202 23.3053 10.1126 23.2155 10.0902 23.1242C10.0631 23.0142 10.0088 22.9102 9.9647 22.8051C9.90657 22.6667 9.83156 22.5465 9.69399 22.4606C9.47938 22.3265 9.23265 22.2726 8.98042 22.226C8.69963 22.1742 8.41718 22.144 8.13269 22.1148C7.95735 22.0968 7.78145 22.0805 7.60671 22.0581C7.40315 22.032 7.20568 21.9904 7.00791 21.9404C6.70845 21.8646 6.40603 21.797 6.11624 21.6935C5.84745 21.5975 5.59487 21.4709 5.33777 21.3527C5.21219 21.295 5.08563 21.2391 4.95901 21.1833C4.83625 21.1292 4.71038 21.0784 4.59233 21.0161C4.47577 20.9545 4.3753 20.8802 4.28027 20.7937C4.15271 20.6777 4.03473 20.5554 3.90073 20.4449C3.78279 20.3476 3.66038 20.255 3.53781 20.1626C3.33861 20.0124 3.14758 19.858 2.97503 19.6823C2.8003 19.5043 2.64597 19.3134 2.49417 19.1193C2.38545 18.9804 2.32593 18.8984 2.21515 18.7637C1.93908 18.4281 2.24657 18.8082 1.98877 18.5061" stroke="#F8F2EA" stroke-width="0.75" stroke-linecap="round"/>
    <path d="M2.11726 18.5834C2.05375 18.5404 2.03283 18.4505 1.99695 18.3899C1.94958 18.3098 1.92099 18.2255 1.8891 18.1396C1.83995 18.0073 1.76819 17.8811 1.7023 17.755C1.62828 17.6134 1.53762 17.4797 1.46147 17.3391C1.38662 17.2009 1.33267 17.0561 1.27625 16.9112C1.19061 16.6913 1.0879 16.4781 1.05343 16.245C1.03882 16.1462 1.02903 16.0464 1.01623 15.9474C1.00623 15.8699 1.00666 15.791 0.993277 15.7139C0.990418 15.6975 0.98759 15.6913 0.9818 15.6746C0.96253 15.6189 0.944039 15.5632 0.93035 15.5062C0.894224 15.3558 0.878054 15.1996 0.867027 15.0461C0.855822 14.8902 0.846604 14.7344 0.83121 14.5787C0.822445 14.4901 0.812017 14.4013 0.808453 14.3123C0.805775 14.2455 0.810347 14.1787 0.810828 14.1118C0.812244 13.9146 0.804592 13.7184 0.817556 13.5213C0.829203 13.3442 0.847253 13.1672 0.86861 12.9909C0.874936 12.9387 0.881431 12.8865 0.88919 12.8344C0.96125 12.3508 0.869404 12.9725 0.920456 12.6845" stroke="#F8F2EA" stroke-width="0.75" stroke-linecap="round"/>
    <path d="M1.31958 16.9841C1.28632 16.8944 1.25231 16.8049 1.22053 16.7147C1.19389 16.6391 1.16308 16.5646 1.1413 16.4877C1.10137 16.3466 1.0788 16.2012 1.03076 16.0622" stroke="#F8F2EA" stroke-width="0.75" stroke-linecap="round"/>
    <path d="M2.13213 18.633C2.06881 18.4894 1.97684 18.3581 1.88916 18.226" stroke="#F8F2EA" stroke-width="0.75" stroke-linecap="round"/>
    <path d="M1.97822 18.4289C1.88119 18.2438 1.77676 18.0614 1.68456 17.8743C1.62718 17.7579 1.58815 17.6347 1.53318 17.5173C1.50105 17.4486 1.45927 17.3843 1.42969 17.3148" stroke="#F8F2EA" stroke-width="0.75" stroke-linecap="round"/>
    <path d="M0.929688 12.7182C0.936595 12.6456 0.971214 12.5807 0.997188 12.5128C1.03666 12.4095 1.06296 12.303 1.08364 12.1956C1.10222 12.0991 1.11926 12.001 1.15438 11.908C1.17337 11.8578 1.19855 11.8096 1.22003 11.7603C1.24807 11.6958 1.27398 11.6303 1.29539 11.5638C1.31424 11.5053 1.3281 11.4458 1.34394 11.3866C1.36528 11.3068 1.39599 11.2316 1.43351 11.1569C1.47649 11.0712 1.52883 10.9907 1.5773 10.9077C1.63414 10.8103 1.68183 10.7105 1.71785 10.6052C1.7459 10.5232 1.76698 10.4391 1.79864 10.3581C1.82 10.3034 1.846 10.2481 1.87816 10.1978C1.90895 10.1496 1.95557 10.0931 1.99374 10.0498C2.07916 9.95306 2.17598 9.86568 2.26536 9.7721C2.31069 9.72464 2.35322 9.67666 2.39319 9.6254C2.48787 9.504 2.40138 9.60862 2.48589 9.49271" stroke="#F8F2EA" stroke-width="0.75" stroke-linecap="round"/>
    <path d="M4.67416 10.6381C4.65072 10.6836 4.62303 10.7257 4.59163 10.7671C4.57729 10.786 4.56611 10.8044 4.55673 10.8258C4.53956 10.8649 4.52232 10.9023 4.49824 10.9385C4.48034 10.9655 4.46053 10.9914 4.44369 11.0189C4.41477 11.0661 4.39305 11.1163 4.3711 11.1664C4.32713 11.2668 4.27823 11.3654 4.23645 11.4665C4.14306 11.6925 4.03427 11.9134 3.92819 12.1348C3.89305 12.2081 3.8602 12.2823 3.82925 12.3571C3.80956 12.4048 3.79094 12.4528 3.77828 12.5024C3.75663 12.5872 3.743 12.6738 3.72754 12.7596" stroke="#F8F2EA" stroke-width="0.75" stroke-linecap="round"/>
    <path d="M2.48169 9.49839C2.48775 9.48634 2.49956 9.47527 2.50897 9.46558C2.53807 9.43561 2.5699 9.40796 2.60051 9.37928C2.63645 9.3456 2.67149 9.31103 2.69945 9.27145C2.73652 9.21897 2.76096 9.1602 2.79261 9.10511C2.83992 9.02274 2.9099 8.95419 2.98078 8.88798C3.06866 8.80589 3.15267 8.72116 3.24315 8.64129C3.3266 8.56762 3.39877 8.48286 3.49107 8.41769C3.53218 8.38867 3.57619 8.36325 3.61948 8.33703C3.69514 8.29121 3.76808 8.243 3.83724 8.18939C3.88379 8.15331 3.93115 8.11829 3.97825 8.08281C4.04519 8.03241 4.1069 7.97671 4.17532 7.92786C4.26229 7.86577 4.35554 7.81162 4.45099 7.76089C4.49895 7.7354 4.53491 7.71707 4.58425 7.69381C4.64794 7.66379 4.71341 7.63908 4.77855 7.612" stroke="#F8F2EA" stroke-width="0.75" stroke-linecap="round"/>
    <path d="M4.74421 7.64211C4.82384 7.57222 4.91102 7.50796 4.98259 7.43097C5.00634 7.40542 5.02622 7.37726 5.05121 7.35261C5.07576 7.3284 5.10407 7.30804 5.13043 7.28557C5.18126 7.24224 5.22004 7.19037 5.25468 7.13581C5.3046 7.05718 5.35508 6.96291 5.36014 6.8709C5.36644 6.75653 5.30522 6.63303 5.25805 6.5296C5.20857 6.4211 5.1604 6.30658 5.07096 6.2192C4.96743 6.11805 4.8288 6.05351 4.70689 5.97301C4.58796 5.89448 4.48531 5.80145 4.40084 5.69221C4.37086 5.65344 4.34457 5.6125 4.31272 5.57489C4.27666 5.53232 4.23496 5.49504 4.19473 5.45582C4.10869 5.37196 4.05634 5.2784 3.99777 5.17851C3.94209 5.08357 3.86458 5.00141 3.81188 4.90468C3.78187 4.84961 3.76069 4.79221 3.73699 4.7349C3.71406 4.67944 3.68105 4.6367 3.64549 4.58775C3.56742 4.48027 3.54336 4.34976 3.49717 4.2299C3.43725 4.07443 3.38112 3.92438 3.36184 3.75951C3.34 3.5726 3.35192 3.37467 3.3864 3.18965C3.40228 3.10448 3.42446 3.0173 3.4844 2.94738C3.54371 2.87821 3.63807 2.83184 3.71701 2.78369" stroke="#F8F2EA" stroke-width="0.75" stroke-linecap="round"/>
    <path d="M3.65674 2.80717C3.7037 2.75011 3.74437 2.6857 3.8053 2.63956C3.88179 2.58164 3.98179 2.55626 4.07378 2.52637C4.26248 2.46505 4.46824 2.34114 4.67383 2.40622C4.85562 2.46376 5.0448 2.51536 5.21849 2.5908C5.32966 2.63908 5.43575 2.69774 5.53103 2.76864C5.61691 2.83254 5.69295 2.90655 5.78482 2.96389C5.93997 3.06072 6.12733 3.10379 6.27699 3.20942C6.34809 3.2596 6.41623 3.31162 6.49057 3.35809C6.599 3.42587 6.71198 3.48131 6.83418 3.52635C6.9343 3.56326 6.93329 3.55918 7.03211 3.59731C7.11578 3.6296 7.19675 3.66726 7.2794 3.70158C7.40807 3.75501 7.53516 3.81214 7.66538 3.86244C7.85645 3.93624 8.05034 4.00613 8.25555 4.04006C8.41249 4.066 8.56988 4.06389 8.7287 4.06487C8.84081 4.06556 8.9485 4.07563 9.05954 4.08773C9.196 4.10259 9.33501 4.1034 9.47225 4.10057C9.63292 4.09725 9.79406 4.08275 9.95431 4.07249C10.1387 4.06068 10.3224 4.03983 10.5057 4.01873C10.7036 3.99594 10.8969 3.96657 11.0817 3.89574C11.2572 3.82848 11.4257 3.74676 11.6008 3.67829C11.6683 3.65188 11.7649 3.61519 11.8301 3.58469C11.938 3.53417 12.0308 3.47132 12.125 3.40272C12.189 3.35612 12.2033 3.34354 12.269 3.30455C12.3311 3.26771 12.3964 3.23582 12.4575 3.19767C12.5912 3.11437 12.6901 3.00657 12.7966 2.89728C12.9326 2.75763 13.0799 2.63174 13.2372 2.512C13.4686 2.33593 13.694 2.15321 13.9268 1.97871C14.0421 1.89229 14.1631 1.81074 14.2868 1.73448C14.394 1.66846 14.505 1.60333 14.6256 1.55904C14.7089 1.52846 14.7989 1.51038 14.8779 1.47088C14.9103 1.4547 14.9407 1.43566 14.9733 1.42017" stroke="#F8F2EA" stroke-width="0.75" stroke-linecap="round"/>
    <path d="M14.8647 1.45934C14.919 1.42821 14.9722 1.39652 15.0342 1.37924C15.1045 1.35962 15.1725 1.35331 15.2461 1.35834C15.3053 1.36239 15.3621 1.3675 15.4165 1.38969C15.509 1.42736 15.5911 1.48151 15.6752 1.53204C15.7442 1.57352 15.8189 1.61051 15.8786 1.66308C15.9362 1.71371 15.9877 1.77019 16.0455 1.82024C16.1028 1.86987 16.1854 1.88419 16.242 1.93386C16.3063 1.99035 16.3319 2.07691 16.3744 2.14653C16.4434 2.2597 16.524 2.36805 16.6012 2.47674C16.6716 2.57583 16.7504 2.67297 16.7967 2.78409C16.8301 2.86412 16.8243 2.96156 16.8324 3.04573C16.8442 3.16945 16.864 3.29572 16.8565 3.42012C16.8497 3.53087 16.8288 3.64333 16.7866 3.74772C16.7724 3.78302 16.7545 3.81642 16.7365 3.85024C16.7001 3.91887 16.6703 3.99013 16.634 4.05877C16.5794 4.16193 16.4918 4.2471 16.4238 4.34283C16.388 4.39305 16.357 4.44572 16.3219 4.49629C16.277 4.56117 16.226 4.62267 16.1753 4.68392C15.9662 4.93656 15.7195 5.16153 15.4941 5.4018C15.4102 5.49118 15.3119 5.57218 15.2345 5.66606C15.2163 5.68811 15.2023 5.71257 15.1864 5.73593C15.1445 5.79748 15.0968 5.85577 15.0489 5.91355C14.9652 6.01435 14.8692 6.10694 14.79 6.21067C14.741 6.27493 14.6964 6.33974 14.6388 6.3983C14.5494 6.48927 14.4444 6.57869 14.3802 6.68693C14.3749 6.69582 14.3331 6.76329 14.353 6.76268C14.384 6.76173 14.4133 6.75591 14.4447 6.75877C14.4843 6.76237 14.505 6.77781 14.5324 6.80143C14.6085 6.86717 14.6848 6.93424 14.7695 6.9908C14.8446 7.04088 14.9193 7.09212 14.9973 7.13838C15.0934 7.1954 15.1954 7.24347 15.2949 7.29532C15.3702 7.33454 15.4441 7.37466 15.5244 7.40525C15.6437 7.45069 15.7721 7.47493 15.8899 7.52323C15.9562 7.55037 16.0068 7.58891 16.0594 7.63315C16.1497 7.70896 16.2426 7.77908 16.3417 7.84538C16.5299 7.97138 16.7177 8.09686 16.8863 8.24459C16.9885 8.33409 17.0803 8.43296 17.1873 8.51798C17.2313 8.55298 17.2823 8.58874 17.3332 8.61594C17.425 8.66493 17.3455 8.617 17.4262 8.65294" stroke="#F8F2EA" stroke-width="0.75" stroke-linecap="round"/>
    <path d="M17.3831 8.67645C17.4584 8.70183 17.5223 8.74994 17.5786 8.80053C17.6133 8.83173 17.6463 8.86362 17.6783 8.89717C17.7353 8.95718 17.798 9.0113 17.8586 9.06826C17.9084 9.11506 17.9541 9.16495 18.0053 9.21062C18.0567 9.25656 18.1088 9.30166 18.1591 9.34862C18.2858 9.46681 18.422 9.57434 18.5326 9.70604C18.6266 9.81802 18.7159 9.9358 18.7955 10.0565C18.8285 10.1065 18.8597 10.1575 18.8957 10.2058C18.9554 10.2858 19.027 10.3588 19.0931 10.4344C19.2535 10.6176 19.3965 10.8101 19.5058 11.0225C19.6054 11.2159 19.6806 11.4195 19.7592 11.6205C19.8461 11.843 19.9315 12.0666 20.0134 12.2907C20.0777 12.4664 20.1217 12.6521 20.2099 12.8196C20.2944 12.9801 20.3426 13.1447 20.3818 13.3185C20.4151 13.4659 20.4552 13.6128 20.4844 13.7608C20.5177 13.9293 20.5253 14.097 20.5253 14.2678C20.5253 14.381 20.5241 14.494 20.516 14.6071C20.5081 14.7165 20.4936 14.8255 20.4873 14.9349C20.4821 15.0263 20.4823 15.118 20.4738 15.2092C20.4595 15.3622 20.425 15.5122 20.3833 15.6609C20.3611 15.7398 20.3338 15.8187 20.3252 15.9001C20.3183 15.9667 20.3176 16.0344 20.313 16.1012" stroke="#F8F2EA" stroke-width="0.75" stroke-linecap="round"/>
    <path d="M20.3005 16.0444C20.2809 16.1638 20.2465 16.2775 20.2051 16.3919C20.1697 16.4898 20.1279 16.5855 20.0883 16.682C20.0456 16.786 20.0021 16.8906 19.9556 16.9932C19.9291 17.0516 19.8974 17.1068 19.865 17.1626C19.8278 17.2267 19.7945 17.2924 19.7549 17.3554C19.7225 17.407 19.6909 17.4605 19.6524 17.5086C19.6195 17.5498 19.586 17.5887 19.5583 17.6332C19.5246 17.6874 19.4969 17.7444 19.4638 17.7989C19.4324 17.8505 19.397 17.9009 19.3736 17.9561C19.3408 18.0336 19.3366 18.1189 19.2847 18.1893" stroke="#F8F2EA" stroke-width="0.75" stroke-linecap="round"/>
    <path d="M12.2224 9.34358C11.9709 9.31904 11.716 9.2853 11.4624 9.28278C11.252 9.28069 11.0387 9.30728 10.8298 9.32838C10.6748 9.34403 10.5222 9.36433 10.3662 9.37137C10.2493 9.37664 10.1336 9.38 10.0179 9.39743C9.90289 9.41475 9.78975 9.44164 9.67534 9.4617C9.4426 9.50252 9.21494 9.5499 8.98692 9.60893C8.82527 9.65077 8.66044 9.68019 8.49882 9.72227C8.33142 9.76586 8.18684 9.82655 8.03379 9.90076C7.89836 9.96644 7.75797 10.0111 7.63842 10.101C7.46783 10.2292 7.31367 10.378 7.15513 10.5179C7.05633 10.6051 6.97194 10.6988 6.88946 10.7989C6.82187 10.8808 6.73565 10.9539 6.67472 11.0395C6.60966 11.1309 6.55572 11.2287 6.5037 11.3265C6.41714 11.4892 6.33477 11.6456 6.2904 11.8225C6.24467 12.0048 6.18648 12.1903 6.17318 12.3775C6.15961 12.5684 6.1689 12.7622 6.16933 12.9534C6.16999 13.2436 6.17272 13.5329 6.16885 13.8232C6.16707 13.9575 6.15949 14.0915 6.16261 14.2258C6.16695 14.4129 6.15992 14.6214 6.23083 14.7999C6.27689 14.9159 6.35016 15.0247 6.40906 15.1356C6.46063 15.2328 6.51121 15.3299 6.55414 15.4305C6.61208 15.5663 6.67085 15.7006 6.75687 15.8244C6.83671 15.9393 6.92791 16.0496 7.01629 16.1592C7.08832 16.2486 7.15166 16.3419 7.2195 16.4337C7.32527 16.5768 7.46139 16.6609 7.63457 16.7299C7.75407 16.7775 7.87796 16.8125 7.98863 16.8767C8.12976 16.9585 8.25423 17.057 8.40659 17.1234C8.69826 17.2503 9.00239 17.3354 9.31119 17.4178C9.62796 17.5023 9.93308 17.616 10.2653 17.6436C10.4349 17.6577 10.6067 17.6548 10.7769 17.661C11.0231 17.6699 11.2731 17.6794 11.5182 17.6506C11.9531 17.5994 12.2815 17.351 12.6635 17.1815C12.9526 17.0533 13.2792 17.0059 13.5599 16.8584C13.7522 16.7574 13.9495 16.6454 14.1157 16.5114C14.2677 16.389 14.3859 16.2402 14.5121 16.0971C14.7137 15.8685 14.956 15.6642 15.2058 15.4791C15.3125 15.4001 15.3992 15.3299 15.4801 15.229C15.5679 15.1195 15.6624 15.0158 15.7472 14.9042C15.9091 14.6908 16.063 14.4721 16.1877 14.2388C16.2551 14.1128 16.313 13.9816 16.3722 13.8523C16.413 13.7632 16.456 13.6705 16.4798 13.5761C16.5009 13.4927 16.508 13.4058 16.5206 13.3212C16.5391 13.1979 16.5621 13.0757 16.5668 12.9512C16.5774 12.6671 16.5652 12.37 16.4808 12.0952C16.4429 11.9719 16.4049 11.8486 16.3693 11.7248C16.3301 11.5881 16.2991 11.4429 16.2266 11.3165C16.1489 11.1809 16.0372 11.0592 15.9168 10.953C15.7776 10.8303 15.6496 10.7105 15.5397 10.5648C15.4552 10.4529 15.3602 10.3604 15.2432 10.2756C15.176 10.2268 15.107 10.1815 15.0458 10.1262C14.9978 10.0827 14.9554 10.0347 14.906 9.9924C14.671 9.79134 14.3578 9.70317 14.0605 9.60632C13.9705 9.577 13.9208 9.55923 13.828 9.54031C13.7232 9.51896 13.6159 9.51662 13.5109 9.49731C13.2955 9.45768 13.104 9.34971 12.8864 9.31318C12.6952 9.28109 12.4973 9.29426 12.3041 9.29841C12.2079 9.30048 12.1238 9.29807 12.0322 9.27322" stroke="#F8F2EA" stroke-width="0.75" stroke-linecap="round"/>
    <path d="M4.7137 17.1541C4.68219 17.1293 4.65878 17.0939 4.63354 17.064" stroke="#F8F2EA" stroke-width="0.75" stroke-linecap="round"/>
    <path d="M4.69051 17.1509C4.64434 17.0965 4.60745 17.0365 4.56226 16.9815" stroke="#F8F2EA" stroke-width="0.75" stroke-linecap="round"/>
    <path d="M4.70221 17.165C4.66467 17.1304 4.62521 17.0962 4.59399 17.0569" stroke="#F8F2EA" stroke-width="0.75" stroke-linecap="round"/>
    <path d="M4.74932 17.2122C4.74276 17.19 4.72123 17.1702 4.70556 17.1529C4.6814 17.1261 4.65618 17.1001 4.6335 17.0723C4.56957 16.994 4.5098 16.9125 4.45093 16.831" stroke="#F8F2EA" stroke-width="0.75" stroke-linecap="round"/>
    <path d="M3.5824 12.672C3.56388 12.7239 3.53812 12.7735 3.5207 12.8258C3.50206 12.8817 3.49756 12.9376 3.48941 12.9951C3.47859 13.0714 3.45228 13.1494 3.4308 13.2237C3.40836 13.3014 3.38908 13.3771 3.38409 13.4576C3.37867 13.545 3.38013 13.6326 3.38013 13.7201C3.38013 13.8261 3.37636 13.9304 3.36691 14.036C3.35916 14.1226 3.37199 14.2084 3.37925 14.2946C3.39549 14.4876 3.43967 14.6769 3.46341 14.869C3.47768 14.9844 3.5052 15.0987 3.5348 15.2116C3.56725 15.3353 3.60459 15.4599 3.64497 15.5817C3.66914 15.6546 3.71162 15.7214 3.75118 15.788C3.81032 15.8878 3.85344 15.9911 3.89836 16.0964C3.94665 16.2095 4.00126 16.3205 4.0645 16.4274C4.12466 16.5292 4.18313 16.6371 4.25884 16.7302C4.32845 16.8158 4.4147 16.8912 4.49283 16.9704C4.54535 17.0236 4.59514 17.0779 4.64134 17.1357" stroke="#F8F2EA" stroke-width="0.75" stroke-linecap="round"/>
    <path d="M4.93448 10.2742C4.88214 10.4294 4.77659 10.5708 4.68359 10.7084" stroke="#F8F2EA" stroke-width="0.75" stroke-linecap="round"/>
    <path d="M4.96957 10.2355C4.88199 10.3655 4.77615 10.4828 4.68359 10.6103" stroke="#F8F2EA" stroke-width="0.75" stroke-linecap="round"/>
    <path d="M4.92672 10.2613C4.90197 10.2706 4.88228 10.3044 4.86717 10.3223C4.82723 10.3696 4.78951 10.4189 4.74808 10.4652C4.68583 10.5346 4.62373 10.5846 4.58254 10.6679C4.37185 11.094 4.17275 11.5209 3.9978 11.9602" stroke="#F8F2EA" stroke-width="0.75" stroke-linecap="round"/>
    <path d="M5.09837 10.1192C5.06628 10.1279 5.02602 10.1859 5.00543 10.2071C4.95117 10.2631 4.90446 10.3236 4.84814 10.3777" stroke="#F8F2EA" stroke-width="0.75" stroke-linecap="round"/>
    <path d="M5.07054 10.2226C5.02788 10.2552 5.00732 10.3206 4.98389 10.3654" stroke="#F8F2EA" stroke-width="0.75" stroke-linecap="round"/>
    <path d="M5.04147 10.1516C5.03854 10.2307 5.0146 10.2821 4.95532 10.3388" stroke="#F8F2EA" stroke-width="0.75" stroke-linecap="round"/>
    <path d="M5.12735 10.1128C5.1238 10.1406 5.07768 10.171 5.05582 10.1904C5.00981 10.2312 4.94554 10.2429 4.89924 10.2816C4.80923 10.357 4.74018 10.4654 4.67114 10.5568C4.62043 10.6239 4.60027 10.7036 4.56226 10.7724" stroke="#F8F2EA" stroke-width="0.75" stroke-linecap="round"/>
    <path d="M4.76267 10.4228C4.75486 10.465 4.71604 10.5007 4.68928 10.534C4.67577 10.5509 4.65723 10.5897 4.64062 10.5971" stroke="#F8F2EA" stroke-width="0.75" stroke-linecap="round"/>
    <path d="M5.118 10.0921C5.118 10.1076 5.10928 10.1237 5.10376 10.1382" stroke="#F8F2EA" stroke-width="0.75" stroke-linecap="round"/>
    <path d="M5.13946 10.0819C5.1317 10.101 5.11358 10.1158 5.10328 10.1337C5.09451 10.149 5.0903 10.166 5.08339 10.182C5.07718 10.1963 5.07096 10.211 5.06372 10.2249" stroke="#F8F2EA" stroke-width="0.75" stroke-linecap="round"/>
    <path d="M5.10927 10.1048C5.09856 10.1064 5.0874 10.1155 5.08113 10.1229C5.07558 10.1296 5.06997 10.1349 5.06351 10.1408C5.05499 10.1486 5.04928 10.1592 5.04305 10.1684C5.04006 10.1729 5.03713 10.178 5.03185 10.1805C5.0289 10.182 5.02639 10.1841 5.02401 10.1862C5.01654 10.1928 5.00994 10.2009 5.00302 10.208C4.99714 10.214 4.99031 10.2191 4.98424 10.2249C4.97845 10.2305 4.9723 10.2354 4.96588 10.2403C4.96231 10.2431 4.95859 10.2457 4.95468 10.2481C4.94927 10.2514 4.95331 10.2442 4.954 10.2418" stroke="#F8F2EA" stroke-width="0.75" stroke-linecap="round"/>
    <path d="M5.10812 10.0794C5.09684 10.09 5.08634 10.1012 5.07427 10.1112C5.0572 10.1253 5.03925 10.138 5.02324 10.1532C5.01034 10.1654 4.99713 10.1771 4.98584 10.1906C4.96924 10.2105 4.95459 10.2316 4.93929 10.2523C4.91832 10.2806 4.89349 10.3085 4.87939 10.3404" stroke="#F8F2EA" stroke-width="0.75" stroke-linecap="round"/>
    <path d="M5.03129 10.142C5.02043 10.1581 5.00541 10.1711 4.99151 10.185C4.97891 10.1975 4.96809 10.2111 4.95724 10.2249C4.94918 10.2351 4.93952 10.244 4.93068 10.2537C4.91924 10.2662 4.90912 10.2797 4.89782 10.2923C4.88102 10.311 4.86459 10.3287 4.85256 10.3505C4.84607 10.3622 4.84047 10.3742 4.83246 10.3852C4.82585 10.3943 4.81783 10.402 4.8097 10.4099C4.80015 10.4191 4.79298 10.4297 4.78538 10.4403C4.77633 10.4529 4.76636 10.4649 4.75757 10.4776" stroke="#F8F2EA" stroke-width="0.75" stroke-linecap="round"/>
    <path d="M4.79015 10.3876C4.78553 10.3952 4.78142 10.4029 4.77742 10.4108C4.77309 10.4194 4.76742 10.4252 4.75975 10.4315C4.75334 10.4368 4.74564 10.4414 4.74029 10.4476C4.7316 10.4576 4.72796 10.4702 4.72388 10.4821" stroke="#F8F2EA" stroke-width="0.75" stroke-linecap="round"/>
    <path d="M4.59985 10.5911C4.612 10.5803 4.62527 10.5705 4.63589 10.5584C4.64888 10.5436 4.66058 10.5281 4.67469 10.5141C4.68928 10.4997 4.70493 10.486 4.71849 10.4707C4.73078 10.4569 4.74176 10.4422 4.75375 10.4281C4.77344 10.4051 4.78985 10.3792 4.8165 10.3621C4.83015 10.3533 4.84496 10.3456 4.85733 10.3353C4.86058 10.3326 4.86353 10.33 4.86702 10.3275" stroke="#F8F2EA" stroke-width="0.75" stroke-linecap="round"/>
    <path d="M5.11759 10.0853C5.11759 10.0754 5.12123 10.0886 5.1266 10.0869C5.12855 10.0863 5.12947 10.0821 5.13189 10.0844C5.14024 10.0923 5.14043 10.1047 5.13623 10.1142C5.13268 10.1223 5.12782 10.1301 5.12534 10.1385C5.12079 10.1539 5.11157 10.1681 5.10629 10.1835C5.10004 10.2016 5.08762 10.2177 5.07917 10.2351C5.06359 10.2671 5.05059 10.3 5.03467 10.3319" stroke="#F8F2EA" stroke-width="0.75" stroke-linecap="round"/>
    <path d="M4.50835 10.7417C4.49519 10.7613 4.48176 10.7813 4.46519 10.7988C4.45414 10.8104 4.43991 10.8186 4.43006 10.8313C4.41815 10.8466 4.40872 10.8636 4.39919 10.8802C4.38596 10.9033 4.36918 10.9231 4.35214 10.9439C4.31651 10.9875 4.29064 11.0367 4.25465 11.08C4.23479 11.1039 4.2119 11.1263 4.19521 11.1522C4.17873 11.1778 4.16525 11.2047 4.14836 11.2301C4.12905 11.2592 4.10952 11.2879 4.091 11.3174C4.07483 11.3431 4.05527 11.3669 4.03916 11.3926C4.03443 11.4002 4.03066 11.4081 4.02635 11.4159C4.01792 11.431 4.00752 11.4451 3.99767 11.4595C3.97689 11.4899 3.96351 11.5222 3.94822 11.5549C3.93128 11.5912 3.91178 11.6257 3.89081 11.6602C3.87518 11.6859 3.85834 11.7113 3.84443 11.7379C3.80228 11.8183 3.76297 11.903 3.74194 11.9901" stroke="#F8F2EA" stroke-width="0.75" stroke-linecap="round"/>
    <path d="M4.28609 11.0932C4.28566 11.1079 4.27372 11.1218 4.26651 11.1344C4.2543 11.1558 4.24145 11.1773 4.23348 11.2003C4.22877 11.2139 4.22528 11.2279 4.22023 11.2414C4.21164 11.2644 4.20076 11.2865 4.18882 11.3083C4.17545 11.3326 4.16071 11.3564 4.14631 11.3803C4.14235 11.3868 4.13424 11.4002 4.12987 11.4079C4.12596 11.4149 4.13126 11.4062 4.13061 11.4076" stroke="#F8F2EA" stroke-width="0.75" stroke-linecap="round"/>
    <path d="M4.25792 11.1575C4.23886 11.1772 4.21741 11.1944 4.20027 11.2157C4.17634 11.2454 4.16347 11.2797 4.14785 11.3132C4.10844 11.3978 4.06516 11.481 4.02295 11.5645" stroke="#F8F2EA" stroke-width="0.75" stroke-linecap="round"/>
    <path d="M4.18041 11.3795C4.15043 11.4146 4.12444 11.4518 4.09938 11.4899C4.07676 11.5243 4.05496 11.5591 4.03651 11.5955C4.01385 11.6403 3.99506 11.6864 3.97469 11.732C3.9594 11.7662 3.94139 11.7991 3.92383 11.8323" stroke="#F8F2EA" stroke-width="0.75" stroke-linecap="round"/>
    <path d="M4.09694 11.3422C4.09111 11.3596 4.08742 11.3775 4.08197 11.3949C4.06948 11.4349 4.04482 11.4695 4.01972 11.5039C3.99456 11.5384 3.96949 11.5725 3.95166 11.6107C3.93932 11.6371 3.93078 11.6645 3.92261 11.6922" stroke="#F8F2EA" stroke-width="0.75" stroke-linecap="round"/>
    <path d="M4.03758 11.5658C4.02383 11.5923 4.0234 11.5945 4.00711 11.6205C3.98682 11.6528 3.96501 11.6838 3.94779 11.7177C3.93515 11.7426 3.92481 11.7684 3.91602 11.7946" stroke="#F8F2EA" stroke-width="0.75" stroke-linecap="round"/>
    <path d="M3.96098 11.6302C3.94894 11.6561 3.93672 11.6818 3.92229 11.7068C3.89757 11.7496 3.8675 11.7896 3.84303 11.8326C3.80622 11.8971 3.7749 11.964 3.74951 12.0329" stroke="#F8F2EA" stroke-width="0.75" stroke-linecap="round"/>
    <path d="M3.98894 11.7919C3.9632 11.8377 3.93507 11.8816 3.90425 11.9248C3.87746 11.9622 3.84805 11.9985 3.82426 12.0377C3.8032 12.0723 3.78798 12.1094 3.77361 12.1467C3.77028 12.1553 3.76744 12.1641 3.76389 12.1727C3.75702 12.1893 3.76605 12.1673 3.76243 12.1734" stroke="#F8F2EA" stroke-width="0.75" stroke-linecap="round"/>
    <path d="M3.93099 11.8047C3.88695 11.8666 3.85551 11.9334 3.82482 12.0014C3.80481 12.0456 3.78459 12.0898 3.76514 12.1343" stroke="#F8F2EA" stroke-width="0.75" stroke-linecap="round"/>
    <path d="M3.82016 11.9495C3.81482 11.9687 3.80551 11.9874 3.79775 12.0058C3.79603 12.0099 3.78419 12.0382 3.78071 12.0452C3.78028 12.0461 3.77888 12.0484 3.77881 12.0475C3.77865 12.0451 3.78196 12.0387 3.78039 12.0406" stroke="#F8F2EA" stroke-width="0.75" stroke-linecap="round"/>
    <path d="M3.93409 11.7792C3.92217 11.7893 3.92329 11.7876 3.91095 11.8034C3.88296 11.8392 3.85855 11.8772 3.83504 11.9154C3.81156 11.9536 3.78937 11.9925 3.76636 12.0309" stroke="#F8F2EA" stroke-width="0.75" stroke-linecap="round"/>
    <path d="M3.80637 11.9961L3.80542 11.997" stroke="#F8F2EA" stroke-width="0.75" stroke-linecap="round"/>
    <path d="M3.79117 11.9588C3.78338 11.9741 3.77475 11.9888 3.76782 12.0044C3.76173 12.0182 3.75049 12.0307 3.74951 12.0456" stroke="#F8F2EA" stroke-width="0.75" stroke-linecap="round"/>
    <path d="M3.77344 11.9554C3.76363 11.9627 3.75902 11.9732 3.75636 11.9841C3.75473 11.9909 3.75359 11.9972 3.7506 12.0036C3.74824 12.0087 3.74522 12.0134 3.74295 12.0185C3.73868 12.0281 3.73782 12.0393 3.73614 12.0494C3.7342 12.0612 3.73186 12.0731 3.73049 12.0849C3.72655 12.119 3.7213 12.1525 3.71488 12.1863C3.70706 12.2275 3.70259 12.2686 3.69854 12.3102C3.69348 12.362 3.68177 12.4127 3.6735 12.4641C3.66571 12.5125 3.66026 12.5611 3.65747 12.61" stroke="#F8F2EA" stroke-width="0.75" stroke-linecap="round"/>
    <path d="M3.75627 11.9368C3.75199 11.9469 3.74523 11.9559 3.74043 11.9659C3.7359 11.9753 3.73395 11.9856 3.7321 11.9956C3.72789 12.0184 3.71908 12.04 3.71542 12.063C3.713 12.0782 3.71101 12.0935 3.70823 12.1087C3.70605 12.1206 3.7028 12.1323 3.70073 12.1443C3.69458 12.1799 3.68165 12.2135 3.66988 12.2478C3.66333 12.2669 3.65914 12.2866 3.6531 12.3059C3.64485 12.3322 3.63908 12.359 3.6306 12.3853C3.61493 12.4338 3.60894 12.4842 3.59714 12.5336C3.59234 12.5537 3.58692 12.5736 3.58307 12.5939C3.57832 12.619 3.57567 12.6442 3.57359 12.6695C3.56994 12.714 3.56775 12.7587 3.56494 12.8033" stroke="#F8F2EA" stroke-width="0.75" stroke-linecap="round"/>
    <path d="M3.67293 12.2451C3.67238 12.2595 3.66755 12.2731 3.663 12.2868C3.65643 12.3066 3.65032 12.3264 3.64407 12.3463C3.63765 12.3666 3.63127 12.387 3.62461 12.4073C3.62051 12.4198 3.61429 12.4316 3.60986 12.444" stroke="#F8F2EA" stroke-width="0.75" stroke-linecap="round"/>
    <path d="M3.63987 12.3289C3.62889 12.3446 3.62461 12.3629 3.61913 12.3807C3.60996 12.4104 3.6025 12.4405 3.59443 12.4705C3.59087 12.4837 3.5861 12.4967 3.58229 12.5099C3.5775 12.5264 3.57463 12.5434 3.5714 12.5603C3.56799 12.5781 3.56385 12.5958 3.5602 12.6135C3.55654 12.6313 3.55432 12.6494 3.55072 12.6672C3.54454 12.6977 3.53383 12.7273 3.52597 12.7575C3.5194 12.7827 3.51178 12.8077 3.50502 12.8328C3.49756 12.8606 3.49214 12.8882 3.48783 12.9165C3.47945 12.9714 3.47213 13.0266 3.46125 13.0812C3.45199 13.1277 3.44494 13.1736 3.44385 13.2208" stroke="#F8F2EA" stroke-width="0.75" stroke-linecap="round"/>
    <path d="M3.78838 12.157C3.77304 12.2157 3.74567 12.2708 3.72021 12.3264" stroke="#F8F2EA" stroke-width="0.75" stroke-linecap="round"/>
    <path d="M3.78444 12.1773C3.77046 12.2313 3.74497 12.2806 3.7229 12.3323" stroke="#F8F2EA" stroke-width="0.75" stroke-linecap="round"/>
    <path d="M3.76625 12.1671L3.74731 12.2361" stroke="#F8F2EA" stroke-width="0.75" stroke-linecap="round"/>
    <path d="M3.65876 12.4111C3.65219 12.4342 3.64604 12.4574 3.64058 12.4807C3.6314 12.52 3.62665 12.5598 3.62309 12.5998C3.61885 12.6472 3.61743 12.6947 3.61528 12.7423C3.61255 12.8029 3.60853 12.8634 3.60596 12.924" stroke="#F8F2EA" stroke-width="0.75" stroke-linecap="round"/>
    <path d="M3.70772 12.1095C3.70017 12.128 3.6953 12.1459 3.69065 12.1651C3.68796 12.1762 3.68303 12.1866 3.67924 12.1975C3.67526 12.2088 3.67201 12.2206 3.66908 12.2322C3.66273 12.2574 3.65556 12.2826 3.65066 12.3081C3.64839 12.3199 3.64591 12.3309 3.64228 12.3425C3.64074 12.3474 3.63943 12.3524 3.63767 12.3573C3.63607 12.3617 3.63904 12.348 3.63987 12.3434" stroke="#F8F2EA" stroke-width="0.75" stroke-linecap="round"/>
    <path d="M3.66046 12.2865C3.65515 12.3008 3.65019 12.3144 3.64746 12.3291" stroke="#F8F2EA" stroke-width="0.75" stroke-linecap="round"/>
    <path d="M3.6483 12.301C3.64768 12.3072 3.64435 12.3142 3.64215 12.3202C3.63765 12.3323 3.63267 12.3441 3.62842 12.3563" stroke="#F8F2EA" stroke-width="0.75" stroke-linecap="round"/>
    <path d="M3.60374 12.5449C3.59995 12.5561 3.59627 12.5674 3.59054 12.5779C3.58445 12.5891 3.5814 12.6018 3.57387 12.6123C3.56878 12.6194 3.56301 12.6261 3.55882 12.6337C3.55468 12.6412 3.55189 12.6494 3.54883 12.6573" stroke="#F8F2EA" stroke-width="0.75" stroke-linecap="round"/>
    <path d="M3.5624 12.5957C3.55591 12.621 3.55367 12.6469 3.54967 12.6725C3.54805 12.6829 3.54607 12.6936 3.54283 12.7037C3.54132 12.7085 3.53964 12.7132 3.53757 12.7178C3.53548 12.7224 3.53679 12.7183 3.53589 12.7175" stroke="#F8F2EA" stroke-width="0.75" stroke-linecap="round"/>
    <path d="M3.55 12.6414C3.54932 12.6535 3.54532 12.6657 3.54299 12.6776C3.54063 12.6896 3.53864 12.7018 3.53567 12.7138C3.52506 12.7565 3.50959 12.7978 3.50293 12.8412" stroke="#F8F2EA" stroke-width="0.75" stroke-linecap="round"/>
    <path d="M3.54641 12.6575C3.53744 12.6823 3.53202 12.7085 3.52568 12.7339C3.5206 12.7542 3.5157 12.7738 3.51401 12.7947C3.51305 12.8066 3.51272 12.8184 3.51228 12.8303C3.51156 12.8497 3.50896 12.8687 3.50684 12.888" stroke="#F8F2EA" stroke-width="0.75" stroke-linecap="round"/>
    <path d="M4.53622 16.8483C4.53522 16.8423 4.53228 16.8375 4.52748 16.8333C4.51894 16.8257 4.51683 16.814 4.5076 16.8069C4.49537 16.7975 4.47792 16.7946 4.46429 16.7873C4.44657 16.7777 4.43532 16.7618 4.42676 16.7452C4.41993 16.732 4.41508 16.7202 4.40417 16.7093C4.39201 16.6972 4.38307 16.6832 4.37226 16.6702C4.3544 16.6486 4.33723 16.6272 4.32287 16.6036C4.30495 16.574 4.28096 16.5476 4.25754 16.5215C4.23897 16.5008 4.21701 16.4843 4.20424 16.4596C4.19542 16.4425 4.18961 16.4246 4.17983 16.4079C4.16387 16.3806 4.14286 16.3562 4.12747 16.3286C4.10365 16.2859 4.09447 16.2377 4.07526 16.1933C4.05681 16.1507 4.03146 16.111 4.01259 16.0686C3.99504 16.0291 3.97962 15.9895 3.95877 15.9513C3.94793 15.9314 3.93602 15.9121 3.92483 15.8924C3.91177 15.8694 3.90245 15.8458 3.89402 15.8211C3.88636 15.7988 3.87914 15.7763 3.87049 15.7542C3.85631 15.7181 3.839 15.683 3.82276 15.6476C3.80368 15.6059 3.78546 15.564 3.76514 15.5228" stroke="#F8F2EA" stroke-width="0.75" stroke-linecap="round"/>
    <path d="M4.07458 15.8913C4.07066 15.8771 4.06869 15.8626 4.06469 15.8484C4.05303 15.807 4.02809 15.7721 4.00832 15.7338C3.98219 15.6831 3.9654 15.6293 3.94164 15.5778C3.92895 15.5503 3.92648 15.5475 3.91291 15.5207C3.89566 15.4867 3.88127 15.4522 3.86835 15.4167C3.84997 15.366 3.83275 15.315 3.82265 15.2624C3.81591 15.2273 3.81354 15.2044 3.80777 15.1687C3.79976 15.1193 3.78973 15.0706 3.77404 15.0227C3.76571 14.9972 3.7579 14.9794 3.74822 14.9548C3.73654 14.9252 3.7272 14.8954 3.71798 14.8651C3.70647 14.8272 3.69386 14.7899 3.6792 14.753" stroke="#F8F2EA" stroke-width="0.75" stroke-linecap="round"/>
    <path d="M3.73181 15.4593C3.72595 15.397 3.70414 15.3368 3.68481 15.277C3.67017 15.2318 3.65725 15.1868 3.64776 15.1404C3.63938 15.0994 3.63295 15.0583 3.62239 15.0177C3.60728 14.9597 3.58698 14.9027 3.5709 14.8449C3.55255 14.7789 3.53967 14.7125 3.52734 14.6454" stroke="#F8F2EA" stroke-width="0.75" stroke-linecap="round"/>
    <path d="M3.7362 14.7648C3.72355 14.7079 3.7046 14.6519 3.68953 14.5955C3.65117 14.452 3.61803 14.308 3.59974 14.1612C3.58481 14.0413 3.57551 13.9202 3.57253 13.7995C3.57165 13.764 3.57306 13.7288 3.57515 13.6934" stroke="#F8F2EA" stroke-width="0.75" stroke-linecap="round"/>
    <path d="M3.67432 14.2675C3.67748 14.2144 3.6775 14.2285 3.67662 14.1668C3.67514 14.0625 3.67303 13.9589 3.67877 13.8546C3.6833 13.7721 3.69212 13.6899 3.70166 13.6078" stroke="#F8F2EA" stroke-width="0.75" stroke-linecap="round"/>
    <path d="M3.52097 14.6394C3.51578 14.6071 3.5131 14.5742 3.51155 14.5415C3.50978 14.5041 3.512 14.4668 3.51144 14.4294C3.51073 14.3812 3.50577 14.333 3.5003 14.285C3.49341 14.2247 3.48926 14.1645 3.48926 14.1038C3.48926 14.0283 3.49355 13.9528 3.49355 13.8772C3.49355 13.8416 3.49191 13.8059 3.49219 13.7703C3.4926 13.7179 3.50257 13.6677 3.51249 13.6163" stroke="#F8F2EA" stroke-width="0.75" stroke-linecap="round"/>
    <path d="M3.53662 13.5908C3.54089 13.5586 3.54498 13.5266 3.54762 13.4943C3.55015 13.4634 3.55252 13.4327 3.55694 13.402C3.56446 13.3498 3.57464 13.2982 3.58533 13.2465C3.59112 13.2185 3.59724 13.1906 3.60335 13.1627C3.61163 13.1249 3.61763 13.0873 3.62221 13.049C3.62653 13.0129 3.63146 12.9772 3.63949 12.9416C3.64338 12.9243 3.64584 12.9078 3.64787 12.8904" stroke="#F8F2EA" stroke-width="0.75" stroke-linecap="round"/>
    <path d="M3.71313 13.4984C3.7161 13.4496 3.72532 13.4011 3.72958 13.3523C3.73705 13.2668 3.73691 13.1812 3.74048 13.0955C3.74249 13.0472 3.74717 12.9989 3.74854 12.9506C3.74906 12.9325 3.74935 12.9145 3.74991 12.8964" stroke="#F8F2EA" stroke-width="0.75" stroke-linecap="round"/>
    <path d="M3.53486 13.5532C3.5326 13.5522 3.53011 13.5524 3.52919 13.5497C3.52524 13.5381 3.5297 13.5208 3.53087 13.5095C3.53568 13.4629 3.53893 13.4162 3.54473 13.3697C3.55343 13.2999 3.55673 13.23 3.55848 13.1598" stroke="#F8F2EA" stroke-width="0.75" stroke-linecap="round"/>
    <path d="M3.52817 13.511C3.52466 13.5058 3.52552 13.4954 3.52544 13.4902C3.52511 13.4703 3.52662 13.4504 3.52717 13.4306C3.5273 13.426 3.52746 13.4214 3.52775 13.4168C3.52796 13.4135 3.52725 13.4071 3.53006 13.4045" stroke="#F8F2EA" stroke-width="0.75" stroke-linecap="round"/>
    <path d="M3.59586 13.1805C3.59493 13.1735 3.59451 13.1679 3.59235 13.1611C3.58711 13.1446 3.59113 13.1609 3.58472 13.1454" stroke="#F8F2EA" stroke-width="0.75" stroke-linecap="round"/>
    <path d="M3.5498 13.1289C3.5498 13.1103 3.55203 13.0917 3.55259 13.0731C3.55288 13.0634 3.55025 13.0543 3.55265 13.0446" stroke="#F8F2EA" stroke-width="0.75" stroke-linecap="round"/>
    <path d="M3.53857 13.1129C3.53857 13.107 3.54214 13.1025 3.54331 13.0964C3.54587 13.0831 3.54953 13.0705 3.55162 13.057C3.5528 13.0493 3.5562 13.042 3.55651 13.0343C3.55679 13.0273 3.55594 13.0192 3.56035 13.0133" stroke="#F8F2EA" stroke-width="0.75" stroke-linecap="round"/>
    <path d="M14.455 6.86883C14.4385 6.85901 14.4208 6.85078 14.4036 6.84195" stroke="#F8F2EA" stroke-width="0.75" stroke-linecap="round"/>
    <path d="M14.4791 6.88531C14.4659 6.88078 14.4546 6.87058 14.4422 6.8644C14.4292 6.85792 14.4174 6.85285 14.4067 6.84369" stroke="#F8F2EA" stroke-width="0.75" stroke-linecap="round"/>
    <path d="M14.4733 6.88531C14.4502 6.87358 14.4286 6.86117 14.4126 6.84195" stroke="#F8F2EA" stroke-width="0.75" stroke-linecap="round"/>
    <path d="M14.4591 6.88095C14.4394 6.87526 14.4237 6.85769 14.4089 6.8454" stroke="#F8F2EA" stroke-width="0.75" stroke-linecap="round"/>
    <path d="M14.4923 6.901C14.4518 6.88282 14.4168 6.85334 14.3843 6.82556" stroke="#F8F2EA" stroke-width="0.75" stroke-linecap="round"/>
    <path d="M14.4635 6.87581C14.4335 6.86127 14.4069 6.84331 14.3787 6.82639" stroke="#F8F2EA" stroke-width="0.75" stroke-linecap="round"/>
    <path d="M14.4289 6.86044C14.4153 6.8564 14.403 6.84708 14.3916 6.83939" stroke="#F8F2EA" stroke-width="0.75" stroke-linecap="round"/>
    <path d="M14.4279 6.86924C14.4173 6.86554 14.409 6.8612 14.4006 6.85403" stroke="#F8F2EA" stroke-width="0.75" stroke-linecap="round"/>
    <path d="M14.521 6.92695C14.4917 6.92126 14.4675 6.90063 14.4447 6.88441C14.4251 6.87046 14.4046 6.85785 14.386 6.84283" stroke="#F8F2EA" stroke-width="0.75" stroke-linecap="round"/>
    <path d="M14.4634 6.89232C14.4461 6.88727 14.4318 6.87459 14.4169 6.86563C14.4026 6.85704 14.3914 6.84953 14.3853 6.83508" stroke="#F8F2EA" stroke-width="0.75" stroke-linecap="round"/>
    <path d="M14.5492 6.94826C14.5329 6.94067 14.5149 6.93294 14.5024 6.92044" stroke="#F8F2EA" stroke-width="0.75" stroke-linecap="round"/>
    <path d="M14.5057 6.91886C14.4592 6.89496 14.4141 6.86901 14.3684 6.84393" stroke="#F8F2EA" stroke-width="0.75" stroke-linecap="round"/>
    <path d="M14.4557 6.89676C14.4359 6.89058 14.4177 6.8785 14.4008 6.86781C14.384 6.85726 14.3677 6.8463 14.3506 6.8363" stroke="#F8F2EA" stroke-width="0.75" stroke-linecap="round"/>
    <path d="M14.4873 6.90912C14.4837 6.90945 14.48 6.90976 14.4763 6.91004" stroke="#F8F2EA" stroke-width="0.75" stroke-linecap="round"/>
    <path d="M14.5495 6.95409C14.5335 6.94655 14.5191 6.93633 14.5043 6.9272C14.4826 6.91388 14.4621 6.89939 14.4408 6.88573C14.4052 6.86296 14.3617 6.84633 14.3188 6.83884" stroke="#F8F2EA" stroke-width="0.75" stroke-linecap="round"/>
    <path d="M14.4983 6.92567C14.4692 6.90964 14.4415 6.89175 14.4107 6.87832C14.3949 6.87145 14.3777 6.86661 14.3627 6.85832C14.3557 6.85444 14.3494 6.84933 14.343 6.84479" stroke="#F8F2EA" stroke-width="0.75" stroke-linecap="round"/>
    <path d="M14.3633 6.86277C14.3585 6.86026 14.3535 6.8581 14.3486 6.85577" stroke="#F8F2EA" stroke-width="0.75" stroke-linecap="round"/>
    <path d="M14.3814 6.86938C14.3663 6.86427 14.3493 6.86387 14.3337 6.86002" stroke="#F8F2EA" stroke-width="0.75" stroke-linecap="round"/>
    <path d="M14.5684 6.96254C14.5467 6.95345 14.5266 6.94197 14.5068 6.93011C14.4897 6.91992 14.4738 6.90645 14.4545 6.90002C14.4345 6.89336 14.4127 6.88613 14.3952 6.87488C14.3772 6.86331 14.3575 6.85313 14.3406 6.84052" stroke="#F8F2EA" stroke-width="0.75" stroke-linecap="round"/>
    <path d="M14.3914 6.87572C14.3798 6.87394 14.3692 6.86796 14.3599 6.86166" stroke="#F8F2EA" stroke-width="0.75" stroke-linecap="round"/>
    <path d="M12.3766 9.38654C12.3409 9.39469 12.3025 9.39437 12.2659 9.39675" stroke="#F8F2EA" stroke-width="0.75" stroke-linecap="round"/>
    <path d="M12.3462 9.39755C12.3336 9.39794 12.3211 9.39878 12.3086 9.3993C12.2946 9.39988 12.2812 9.4033 12.2676 9.40607" stroke="#F8F2EA" stroke-width="0.75" stroke-linecap="round"/>
    <path d="M12.3663 9.39755C12.3464 9.39938 12.3263 9.3992 12.3063 9.4003C12.2931 9.40102 12.28 9.40212 12.2668 9.40266" stroke="#F8F2EA" stroke-width="0.75" stroke-linecap="round"/>
    <path d="M12.3732 9.39667C12.3529 9.40412 12.3285 9.40254 12.3071 9.40362C12.2826 9.40486 12.2603 9.40808 12.2368 9.4137" stroke="#F8F2EA" stroke-width="0.75" stroke-linecap="round"/>
    <path d="M12.4279 9.39078C12.3871 9.39542 12.3464 9.40007 12.3057 9.40592C12.2812 9.40945 12.2569 9.41273 12.2322 9.41448" stroke="#F8F2EA" stroke-width="0.75" stroke-linecap="round"/>
    <path d="M12.3437 9.4111C12.3227 9.41284 12.3019 9.41514 12.281 9.4177" stroke="#F8F2EA" stroke-width="0.75" stroke-linecap="round"/>
    <path d="M12.408 9.39755C12.3814 9.4108 12.3523 9.41517 12.3224 9.41825C12.3072 9.41981 12.2921 9.42158 12.2769 9.42304C12.2711 9.4236 12.2571 9.42471 12.251 9.42558C12.22 9.43007 12.26 9.42472 12.2339 9.42972" stroke="#F8F2EA" stroke-width="0.75" stroke-linecap="round"/>
    <path d="M12.4506 9.40005C12.4321 9.4014 12.4148 9.40484 12.3971 9.40955C12.3829 9.41331 12.3687 9.41519 12.3541 9.41736C12.3331 9.4205 12.3127 9.42562 12.2919 9.42935C12.2779 9.43186 12.2635 9.4328 12.2493 9.43392" stroke="#F8F2EA" stroke-width="0.75" stroke-linecap="round"/>
    <path d="M12.4998 9.39447C12.4736 9.39904 12.4464 9.40047 12.4199 9.40329" stroke="#F8F2EA" stroke-width="0.75" stroke-linecap="round"/>
    <path d="M12.5264 9.38699C12.5096 9.38853 12.4932 9.392 12.4766 9.39432" stroke="#F8F2EA" stroke-width="0.75" stroke-linecap="round"/>
    </svg>
    