<svg width="39" height="25" viewBox="0 0 39 25" fill="none" xmlns="http://www.w3.org/2000/svg">
    <mask id="path-1-outside-1_12084_82" maskUnits="userSpaceOnUse" x="-1" y="-1" width="41" height="27" fill="black">
    <rect fill="white" x="-1" y="-1" width="41" height="27"/>
    <path d="M17.468 0.0239997C18.044 0.0239997 18.416 0.443999 18.584 1.284C18.704 5.196 18.764 9.468 18.764 14.1C18.764 18.708 18.74 21.372 18.692 22.092C18.644 22.812 18.488 23.316 18.224 23.604C17.96 23.892 17.48 24.036 16.784 24.036C16.16 24.036 15.848 23.652 15.848 22.884V14.748C15.848 13.428 15.824 12.072 15.776 10.68C15.728 9.288 15.704 8.412 15.704 8.052C14.888 9.444 13.808 10.596 12.464 11.508C11.12 12.396 9.62 12.84 7.964 12.84C6.308 12.84 4.916 12.156 3.788 10.788C3.74 12.252 3.716 13.992 3.716 16.008C3.716 18 3.728 20.1 3.752 22.308C3.752 22.908 3.548 23.352 3.14 23.64C2.756 23.904 2.312 24.036 1.808 24.036C1.16 24.036 0.836 23.64 0.836 22.848C0.86 20.688 0.872 17.268 0.872 12.588V2.364C0.872 1.956 1.004 1.56 1.268 1.176C1.556 0.791999 1.88 0.599999 2.24 0.599999C2.624 0.599999 2.972 0.707999 3.284 0.923999C3.596 1.116 3.764 1.416 3.788 1.824C3.884 4.488 4.316 6.468 5.084 7.764C5.852 9.06 6.764 9.708 7.82 9.708C8.876 9.708 9.776 9.54 10.52 9.204C11.288 8.844 11.912 8.436 12.392 7.98C12.896 7.524 13.376 6.876 13.832 6.036C14.48 4.836 15.104 3.36 15.704 1.608C16.064 0.551999 16.652 0.0239997 17.468 0.0239997ZM32.5062 0.455998C34.1142 0.455998 35.8902 0.767999 37.8342 1.392C38.2662 1.728 38.4822 2.1 38.4822 2.508C38.4822 2.892 38.2782 3.24 37.8702 3.552C37.4862 3.84 37.0422 3.984 36.5382 3.984C35.2422 3.648 34.0302 3.48 32.9022 3.48C30.3102 3.48 28.3422 4.248 26.9982 5.784C25.6542 7.32 24.9822 9.6 24.9822 12.624C24.9822 15.648 25.7742 18.012 27.3582 19.716C28.1742 20.604 29.1462 21.048 30.2742 21.048C31.4022 21.048 33.2022 20.448 35.6742 19.248C36.5382 18.84 37.1142 18.636 37.4022 18.636C38.0262 18.636 38.3382 18.96 38.3382 19.608C38.3382 20.256 38.0382 20.796 37.4382 21.228C35.3742 22.308 33.7662 23.04 32.6142 23.424C31.4622 23.784 30.4662 23.964 29.6262 23.964C27.8982 23.964 26.4222 23.328 25.1982 22.056C23.0142 19.704 21.9222 16.5 21.9222 12.444C21.9222 8.364 22.9542 5.352 25.0182 3.408C27.1062 1.44 29.6022 0.455998 32.5062 0.455998Z"/>
    </mask>
    <path d="M17.468 0.0239997C18.044 0.0239997 18.416 0.443999 18.584 1.284C18.704 5.196 18.764 9.468 18.764 14.1C18.764 18.708 18.74 21.372 18.692 22.092C18.644 22.812 18.488 23.316 18.224 23.604C17.96 23.892 17.48 24.036 16.784 24.036C16.16 24.036 15.848 23.652 15.848 22.884V14.748C15.848 13.428 15.824 12.072 15.776 10.68C15.728 9.288 15.704 8.412 15.704 8.052C14.888 9.444 13.808 10.596 12.464 11.508C11.12 12.396 9.62 12.84 7.964 12.84C6.308 12.84 4.916 12.156 3.788 10.788C3.74 12.252 3.716 13.992 3.716 16.008C3.716 18 3.728 20.1 3.752 22.308C3.752 22.908 3.548 23.352 3.14 23.64C2.756 23.904 2.312 24.036 1.808 24.036C1.16 24.036 0.836 23.64 0.836 22.848C0.86 20.688 0.872 17.268 0.872 12.588V2.364C0.872 1.956 1.004 1.56 1.268 1.176C1.556 0.791999 1.88 0.599999 2.24 0.599999C2.624 0.599999 2.972 0.707999 3.284 0.923999C3.596 1.116 3.764 1.416 3.788 1.824C3.884 4.488 4.316 6.468 5.084 7.764C5.852 9.06 6.764 9.708 7.82 9.708C8.876 9.708 9.776 9.54 10.52 9.204C11.288 8.844 11.912 8.436 12.392 7.98C12.896 7.524 13.376 6.876 13.832 6.036C14.48 4.836 15.104 3.36 15.704 1.608C16.064 0.551999 16.652 0.0239997 17.468 0.0239997ZM32.5062 0.455998C34.1142 0.455998 35.8902 0.767999 37.8342 1.392C38.2662 1.728 38.4822 2.1 38.4822 2.508C38.4822 2.892 38.2782 3.24 37.8702 3.552C37.4862 3.84 37.0422 3.984 36.5382 3.984C35.2422 3.648 34.0302 3.48 32.9022 3.48C30.3102 3.48 28.3422 4.248 26.9982 5.784C25.6542 7.32 24.9822 9.6 24.9822 12.624C24.9822 15.648 25.7742 18.012 27.3582 19.716C28.1742 20.604 29.1462 21.048 30.2742 21.048C31.4022 21.048 33.2022 20.448 35.6742 19.248C36.5382 18.84 37.1142 18.636 37.4022 18.636C38.0262 18.636 38.3382 18.96 38.3382 19.608C38.3382 20.256 38.0382 20.796 37.4382 21.228C35.3742 22.308 33.7662 23.04 32.6142 23.424C31.4622 23.784 30.4662 23.964 29.6262 23.964C27.8982 23.964 26.4222 23.328 25.1982 22.056C23.0142 19.704 21.9222 16.5 21.9222 12.444C21.9222 8.364 22.9542 5.352 25.0182 3.408C27.1062 1.44 29.6022 0.455998 32.5062 0.455998Z" fill="black"/>
    <path d="M18.584 1.284L19.5835 1.25334L19.581 1.16982L19.5646 1.08788L18.584 1.284ZM18.692 22.092L19.6898 22.1585L18.692 22.092ZM18.224 23.604L18.9612 24.2797H18.9612L18.224 23.604ZM15.776 10.68L14.7766 10.7145L15.776 10.68ZM15.704 8.052H16.704V4.36874L14.8413 7.54628L15.704 8.052ZM12.464 11.508L13.0153 12.3424L13.0255 12.3355L12.464 11.508ZM3.788 10.788L4.55954 10.1518L2.87529 8.10922L2.78854 10.7552L3.788 10.788ZM3.752 22.308H4.75206L4.75194 22.2971L3.752 22.308ZM3.14 23.64L3.70657 24.4641L3.71668 24.457L3.14 23.64ZM0.836 22.848L-0.164 22.8369V22.848H0.836ZM1.268 1.176L0.467999 0.576L0.455634 0.592487L0.443959 0.60947L1.268 1.176ZM3.284 0.923999L2.71479 1.74619L2.73695 1.76153L2.7599 1.77566L3.284 0.923999ZM3.788 1.824L4.78735 1.78798L4.78694 1.77662L4.78627 1.76528L3.788 1.824ZM5.084 7.764L5.94429 7.2542L5.084 7.764ZM10.52 9.204L10.9316 10.1154L10.938 10.1125L10.9444 10.1095L10.52 9.204ZM12.392 7.98L11.7211 7.23846L11.7121 7.24662L11.7033 7.255L12.392 7.98ZM13.832 6.036L14.7109 6.51309L14.7119 6.51115L13.832 6.036ZM15.704 1.608L16.6501 1.93199L16.6505 1.93067L15.704 1.608ZM17.468 1.024C17.488 1.024 17.4793 1.02704 17.4567 1.01704C17.4335 1.00675 17.4246 0.995509 17.4304 1.00204C17.453 1.02759 17.5373 1.14948 17.6034 1.48012L19.5646 1.08788C19.4627 0.578518 19.277 0.0704107 18.9276 -0.324037C18.5461 -0.754757 18.0336 -0.976 17.468 -0.976V1.024ZM17.5845 1.31466C17.7041 5.2148 17.764 9.47643 17.764 14.1H19.764C19.764 9.45957 19.7039 5.1772 19.5835 1.25334L17.5845 1.31466ZM17.764 14.1C17.764 18.73 17.7394 21.3482 17.6942 22.0255L19.6898 22.1585C19.7406 21.3958 19.764 18.686 19.764 14.1H17.764ZM17.6942 22.0255C17.6501 22.6869 17.5128 22.9 17.4868 22.9283L18.9612 24.2797C19.4632 23.732 19.6379 22.9371 19.6898 22.1585L17.6942 22.0255ZM17.4868 22.9283C17.5065 22.9068 17.494 22.9356 17.3787 22.9702C17.2602 23.0057 17.0695 23.036 16.784 23.036V25.036C17.5566 25.036 18.4039 24.8876 18.9612 24.2797L17.4868 22.9283ZM16.784 23.036C16.7287 23.036 16.7261 23.0273 16.7541 23.0388C16.7684 23.0447 16.7874 23.0546 16.8077 23.0696C16.8281 23.0846 16.8451 23.1014 16.8581 23.1174C16.8845 23.1499 16.8816 23.1629 16.8717 23.1266C16.8613 23.0881 16.848 23.0116 16.848 22.884H14.848C14.848 23.3776 14.9441 23.9333 15.3059 24.3786C15.6999 24.8636 16.2566 25.036 16.784 25.036V23.036ZM16.848 22.884V14.748H14.848V22.884H16.848ZM16.848 14.748C16.848 13.4159 16.8238 12.0484 16.7754 10.6455L14.7766 10.7145C14.8242 12.0956 14.848 13.4401 14.848 14.748H16.848ZM16.7754 10.6455C16.7272 9.2475 16.704 8.39095 16.704 8.052H14.704C14.704 8.43304 14.7288 9.3285 14.7766 10.7145L16.7754 10.6455ZM14.8413 7.54628C14.101 8.80909 13.1243 9.85147 11.9025 10.6805L13.0255 12.3355C14.4917 11.3405 15.675 10.0789 16.5667 8.55772L14.8413 7.54628ZM11.9127 10.6737C10.7371 11.4504 9.4298 11.84 7.964 11.84V13.84C9.8102 13.84 11.5029 13.3416 13.0153 12.3423L11.9127 10.6737ZM7.964 11.84C6.62993 11.84 5.51293 11.3081 4.55954 10.1518L3.01646 11.4242C4.31907 13.0039 5.98608 13.84 7.964 13.84V11.84ZM2.78854 10.7552C2.74007 12.2333 2.716 13.9848 2.716 16.008H4.716C4.716 13.9992 4.73993 12.2707 4.78746 10.8208L2.78854 10.7552ZM2.716 16.008C2.716 18.004 2.72802 20.1076 2.75206 22.3189L4.75194 22.2971C4.72798 20.0924 4.716 17.996 4.716 16.008H2.716ZM2.752 22.308C2.752 22.6574 2.65042 22.7615 2.56332 22.823L3.71668 24.457C4.44558 23.9425 4.752 23.1586 4.752 22.308H2.752ZM2.57347 22.816C2.36989 22.9559 2.12703 23.036 1.808 23.036V25.036C2.49697 25.036 3.14211 24.8521 3.70653 24.464L2.57347 22.816ZM1.808 23.036C1.74594 23.036 1.73722 23.0264 1.76005 23.0357C1.77188 23.0405 1.78859 23.049 1.80705 23.0625C1.82561 23.0761 1.84114 23.0913 1.85296 23.1058C1.877 23.1351 1.87246 23.1448 1.86151 23.1046C1.84996 23.0623 1.836 22.9811 1.836 22.848H-0.164C-0.164 23.3549 -0.0643843 23.9207 0.305043 24.3722C0.705894 24.8622 1.27097 25.036 1.808 25.036V23.036ZM1.83594 22.8591C1.86 20.6932 1.872 17.2685 1.872 12.588H-0.128C-0.128 17.2675 -0.140004 20.6828 -0.163938 22.8369L1.83594 22.8591ZM1.872 12.588V2.364H-0.128V12.588H1.872ZM1.872 2.364C1.872 2.18611 1.92581 1.98432 2.09204 1.74253L0.443959 0.60947C0.0821918 1.13568 -0.128 1.72589 -0.128 2.364H1.872ZM2.068 1.776C2.15402 1.66131 2.21402 1.61779 2.2368 1.60429C2.24728 1.59808 2.25039 1.59784 2.24701 1.59879C2.24565 1.59917 2.24394 1.59954 2.24218 1.59978C2.24043 1.60002 2.23959 1.6 2.24 1.6V-0.400002C1.46661 -0.400002 0.876582 0.0312223 0.467999 0.576L2.068 1.776ZM2.24 1.6C2.42319 1.6 2.57215 1.64744 2.71479 1.74619L3.85321 0.101807C3.37185 -0.231441 2.82481 -0.400002 2.24 -0.400002V1.6ZM2.7599 1.77566C2.77254 1.78343 2.77622 1.7876 2.77522 1.78657C2.77398 1.78531 2.7723 1.78304 2.77149 1.7816C2.76894 1.77704 2.78495 1.80147 2.78973 1.88272L4.78627 1.76528C4.74569 1.07529 4.43354 0.457228 3.8081 0.072341L2.7599 1.77566ZM2.78865 1.86001C2.88669 4.58051 3.32782 6.76199 4.22371 8.2738L5.94429 7.2542C5.30418 6.17401 4.88132 4.39548 4.78735 1.78798L2.78865 1.86001ZM4.22371 8.2738C5.08696 9.73055 6.27125 10.708 7.82 10.708V8.708C7.25675 8.708 6.61704 8.38945 5.94429 7.2542L4.22371 8.2738ZM7.82 10.708C8.97795 10.708 10.0262 10.5243 10.9316 10.1154L10.1084 8.29263C9.52582 8.55574 8.77405 8.708 7.82 8.708V10.708ZM10.9444 10.1095C11.7837 9.71604 12.5045 9.25239 13.0808 8.705L11.7033 7.255C11.3195 7.61961 10.7923 7.97196 10.0956 8.29854L10.9444 10.1095ZM13.0629 8.72153C13.6771 8.16583 14.2211 7.41523 14.7109 6.51309L12.9531 5.55891C12.5309 6.33677 12.1149 6.88216 11.7211 7.23846L13.0629 8.72153ZM14.7119 6.51115C15.3935 5.249 16.0381 3.719 16.6501 1.93199L14.7579 1.28401C14.1699 3.00099 13.5665 4.423 12.9521 5.56085L14.7119 6.51115ZM16.6505 1.93067C16.7968 1.50163 16.9582 1.27624 17.0831 1.16405C17.1871 1.07065 17.2978 1.024 17.468 1.024V-0.976C16.8222 -0.976 16.2309 -0.758651 15.7469 -0.32405C15.2838 0.0917616 14.9712 0.658372 14.7575 1.28532L16.6505 1.93067ZM37.8342 1.392L38.4481 0.602647L38.3084 0.493957L38.1398 0.439849L37.8342 1.392ZM37.8702 3.552L38.4702 4.35204L38.4776 4.34636L37.8702 3.552ZM36.5382 3.984L36.2872 4.952L36.4106 4.984H36.5382V3.984ZM26.9982 5.784L27.7507 6.4425L26.9982 5.784ZM27.3582 19.716L28.0945 19.0394L28.0906 19.0352L27.3582 19.716ZM35.6742 19.248L35.2471 18.3437L35.2375 18.3484L35.6742 19.248ZM37.4382 21.228L37.9018 22.114L37.9648 22.0811L38.0225 22.0395L37.4382 21.228ZM32.6142 23.424L32.9124 24.3785L32.9214 24.3757L32.9304 24.3727L32.6142 23.424ZM25.1982 22.056L24.4654 22.7365L24.4714 22.743L24.4776 22.7494L25.1982 22.056ZM25.0182 3.408L25.7038 4.13595L25.704 4.13571L25.0182 3.408ZM32.5062 1.456C33.9868 1.456 35.658 1.74373 37.5285 2.34415L38.1398 0.439849C36.1223 -0.20773 34.2415 -0.544002 32.5062 -0.544002V1.456ZM37.2202 2.18135C37.498 2.39743 37.4822 2.50648 37.4822 2.508H39.4822C39.4822 1.69352 39.0343 1.05857 38.4481 0.602647L37.2202 2.18135ZM37.4822 2.508C37.4822 2.5131 37.4833 2.52258 37.4665 2.55128C37.4453 2.58743 37.3907 2.65975 37.2627 2.75764L38.4776 4.34636C39.0429 3.9141 39.4822 3.3017 39.4822 2.508H37.4822ZM37.2702 2.752C37.0683 2.9034 36.8374 2.984 36.5382 2.984V4.984C37.247 4.984 37.904 4.77659 38.4702 4.352L37.2702 2.752ZM36.7891 3.016C35.4259 2.66259 34.1289 2.48 32.9022 2.48V4.48C33.9315 4.48 35.0584 4.63341 36.2872 4.952L36.7891 3.016ZM32.9022 2.48C30.1054 2.48 27.8283 3.31663 26.2456 5.12549L27.7507 6.4425C28.856 5.17937 30.5149 4.48 32.9022 4.48V2.48ZM26.2456 5.12549C24.6805 6.91419 23.9822 9.47141 23.9822 12.624H25.9822C25.9822 9.72859 26.6278 7.72581 27.7507 6.4425L26.2456 5.12549ZM23.9822 12.624C23.9822 15.8225 24.8231 18.4576 26.6257 20.3968L28.0906 19.0352C26.7252 17.5664 25.9822 15.4735 25.9822 12.624H23.9822ZM26.6218 20.3926C27.6125 21.4707 28.8453 22.048 30.2742 22.048V20.048C29.447 20.048 28.7358 19.7373 28.0945 19.0394L26.6218 20.3926ZM30.2742 22.048C30.9943 22.048 31.844 21.8608 32.7864 21.5467C33.7413 21.2284 34.8515 20.759 36.1109 20.1476L35.2375 18.3484C34.0248 18.937 32.999 19.3676 32.1539 19.6493C31.2963 19.9352 30.6821 20.048 30.2742 20.048V22.048ZM36.1012 20.1522C36.5176 19.9556 36.8441 19.818 37.088 19.7316C37.3615 19.6348 37.4403 19.636 37.4022 19.636V17.636C37.076 17.636 36.7228 17.7392 36.4203 17.8464C36.0882 17.964 35.6947 18.1324 35.2472 18.3438L36.1012 20.1522ZM37.4022 19.636C37.4745 19.636 37.4961 19.6457 37.4845 19.6417C37.4779 19.6394 37.4631 19.6335 37.4437 19.6214C37.424 19.6091 37.4033 19.5928 37.3838 19.5726C37.3645 19.5525 37.3503 19.5326 37.3407 19.516C37.3312 19.4997 37.3278 19.4893 37.3275 19.4884C37.3273 19.4877 37.3301 19.4963 37.3329 19.5165C37.3357 19.5367 37.3382 19.5667 37.3382 19.608H39.3382C39.3382 19.1391 39.2258 18.6021 38.8245 18.1854C38.4164 17.7616 37.8781 17.636 37.4022 17.636V19.636ZM37.3382 19.608C37.3382 19.8855 37.2352 20.1419 36.8539 20.4165L38.0225 22.0395C38.8411 21.4501 39.3382 20.6264 39.3382 19.608H37.3382ZM36.9745 20.342C34.9232 21.4153 33.3722 22.1172 32.2979 22.4753L32.9304 24.3727C34.1601 23.9628 35.8251 23.2007 37.9018 22.114L36.9745 20.342ZM32.3159 22.4695C31.2221 22.8113 30.3314 22.964 29.6262 22.964V24.964C30.6009 24.964 31.7022 24.7567 32.9124 24.3785L32.3159 22.4695ZM29.6262 22.964C28.1766 22.964 26.9588 22.4435 25.9187 21.3626L24.4776 22.7494C25.8855 24.2125 27.6197 24.964 29.6262 24.964V22.964ZM25.931 21.3755C23.9607 19.2537 22.9222 16.3169 22.9222 12.444H20.9222C20.9222 16.6831 22.0677 20.1543 24.4654 22.7365L25.931 21.3755ZM22.9222 12.444C22.9222 8.51694 23.915 5.82076 25.7038 4.13595L24.3325 2.68005C21.9933 4.88324 20.9222 8.21106 20.9222 12.444H22.9222ZM25.704 4.13571C27.604 2.34494 29.8537 1.456 32.5062 1.456V-0.544002C29.3506 -0.544002 26.6083 0.535059 24.3323 2.68029L25.704 4.13571Z" fill="#F8F2EA" mask="url(#path-1-outside-1_12084_82)"/>
    </svg>
    