<svg width="25" height="29" viewBox="0 0 25 29" fill="none" xmlns="http://www.w3.org/2000/svg">
    <path d="M20.6909 24.3621L20.6906 24.3624C18.1586 26.9588 14.4699 28.2059 10.8146 28.1549C7.15961 28.1039 3.49244 26.7545 1.00138 24.0978M20.6909 24.3621L1.27422 23.8406M20.6909 24.3621C26.4679 18.4226 25.1632 8.72113 17.9075 3.85418C13.8448 1.12638 9.44841 0.13707 4.79303 2.61695C4.73694 2.64328 4.6836 2.66548 4.62269 2.69084C4.58496 2.70655 4.54432 2.72347 4.49833 2.74332C4.38786 2.79102 4.25815 2.85131 4.13864 2.93323C4.01664 3.01685 3.89323 3.13098 3.80703 3.29197C3.71928 3.45587 3.68413 3.64216 3.69908 3.84631C3.71459 4.05797 3.78454 4.24208 3.91364 4.38888C4.03775 4.53001 4.19159 4.60804 4.32492 4.65663C4.44722 4.7012 4.57812 4.72954 4.6806 4.75173C4.68696 4.75311 4.69321 4.75446 4.69934 4.75579C4.8158 4.78109 4.8992 4.80053 4.96797 4.82717C6.00446 5.23078 7.02083 5.68779 8.01327 6.19648C11.3775 8.00488 13.1997 11.6022 12.4976 14.7532C11.9882 17.0077 10.9978 18.6772 9.55067 19.7615C8.10299 20.8462 6.15408 21.3784 3.66487 21.2732C3.57415 21.2678 3.30504 21.2565 2.98129 21.2429C2.76795 21.2339 2.53088 21.2239 2.30549 21.2139C1.9519 21.1369 1.58328 21.1878 1.2623 21.3579C0.931606 21.5331 0.674703 21.8222 0.534128 22.171M20.6909 24.3621L0.880378 22.3151M1.00138 24.0978C1.00114 24.0976 1.00089 24.0973 1.00064 24.0971L1.27422 23.8406M1.00138 24.0978C1.00166 24.0981 1.00193 24.0984 1.0022 24.0987L1.27422 23.8406M1.00138 24.0978C0.77287 23.857 0.553263 23.5898 0.447442 23.2658C0.33545 22.9229 0.364855 22.5647 0.534128 22.171M1.27422 23.8406C0.830094 23.3725 0.595465 22.9738 0.880378 22.3151M0.534128 22.171C0.533443 22.1727 0.532762 22.1744 0.532083 22.1761L0.880378 22.3151M0.534128 22.171C0.534814 22.1694 0.535503 22.1678 0.536193 22.1662L0.880378 22.3151M18.6175 22.6389C19.5515 21.4079 20.186 20.3104 20.6103 19.0336C21.0756 17.6336 21.2815 16.0371 21.3806 13.8418C21.7732 15.1998 21.7085 16.7777 21.2365 18.3284C20.753 19.9171 19.85 21.4468 18.6175 22.6389ZM12.1511 5.73552C16.2945 7.36074 18.8321 11.6927 18.0348 15.8797C17.1438 20.1156 13.521 23.2185 9.03425 23.5672C10.9925 22.8226 12.5768 21.6916 13.6943 19.8677C15.1213 17.5457 16.0032 15.0643 15.792 12.5406C15.5985 10.229 14.4923 7.93399 12.1511 5.73552Z" fill="#060606" stroke="#F8F2EA" stroke-width="0.75"/>
    <path d="M11.4488 4.98952C16.201 6.44035 19.2304 11.2446 18.3149 15.8664C17.2829 21.0269 12.3643 24.5541 6.66333 23.807C9.60951 23.1293 11.8732 21.9652 13.3214 19.5935C16.1094 15.0151 16.6504 9.96754 11.1575 5.27621L11.4488 4.98952Z" fill="#F8F2EA"/>
    <path d="M17.1145 23.6511C20.3696 20.0293 20.9717 18.3079 21.1201 12.2829C23.4064 15.6917 21.5738 21.3417 17.3676 23.9068L17.1145 23.6511Z" fill="#F8F2EA"/>
    <path d="M8.24844 20.8564C8.1356 20.9101 8.0345 20.9811 7.9108 21.01C7.80789 21.0341 7.70246 21.0427 7.60123 21.0744C7.35801 21.1505 7.1092 21.2255 6.85939 21.2771C6.67432 21.3154 6.48516 21.3308 6.3012 21.3737C6.07371 21.4267 5.85135 21.542 5.61269 21.5217C5.48007 21.5104 5.34631 21.5016 5.2133 21.5136C5.08663 21.5251 4.96604 21.5705 4.83917 21.5824C4.7287 21.5928 4.61508 21.5897 4.50474 21.5796C4.35352 21.5657 4.21059 21.5736 4.05923 21.5832C3.90919 21.5928 3.75686 21.6078 3.60651 21.6078C3.42989 21.6078 3.25064 21.5876 3.07519 21.5692C2.73824 21.5337 2.40902 21.4873 2.06909 21.4951C1.97823 21.4972 1.88454 21.4955 1.79561 21.5169C1.6844 21.5436 1.57361 21.5737 1.46278 21.6021C1.31591 21.6398 1.20085 21.7028 1.10269 21.821C1.06091 21.8713 1.01979 21.9259 0.984797 21.9811C0.938851 22.0535 0.916897 22.1372 0.884548 22.216C0.858813 22.2786 0.822681 22.3357 0.796329 22.3978C0.757848 22.4886 0.721602 22.5843 0.692872 22.6786C0.653602 22.8075 0.645255 22.9944 0.716932 23.1118C0.745465 23.1586 0.784326 23.1886 0.803146 23.2418C0.837017 23.3374 0.847097 23.4365 0.891766 23.529C0.960504 23.6712 1.04411 23.7866 1.18048 23.8685C1.22894 23.8976 1.28547 23.9232 1.32083 23.969C1.38551 24.0528 1.43134 24.1456 1.5109 24.218C1.65543 24.3497 1.78908 24.4988 1.94117 24.6215C2.0847 24.7372 2.24907 24.8238 2.40192 24.926C2.57197 25.0397 2.74089 25.1631 2.90076 25.2905C2.98426 25.357 3.07607 25.4143 3.16221 25.4775C3.2418 25.536 3.33666 25.5576 3.41964 25.6094C3.51748 25.6706 3.6203 25.7227 3.71799 25.784C3.7981 25.8343 3.871 25.8968 3.95137 25.9457C4.02094 25.9881 4.10268 26.01 4.17993 26.0334C4.24499 26.0531 4.28647 26.0966 4.33712 26.1396C4.42605 26.2151 4.53283 26.2655 4.62985 26.3295C4.73128 26.3963 4.83762 26.4563 4.94503 26.5129C5.07238 26.58 5.19801 26.6454 5.33721 26.6835C5.49834 26.7275 5.63683 26.8146 5.79434 26.8681C5.9348 26.9158 6.07627 26.9482 6.21098 27.0121C6.37655 27.0908 6.54313 27.1417 6.72104 27.1847C6.92799 27.2347 7.13464 27.2855 7.34179 27.3347C7.41194 27.3514 7.48377 27.365 7.55311 27.385C7.60992 27.4014 7.66335 27.4246 7.72113 27.4385C7.9404 27.4915 8.16511 27.516 8.38398 27.5725C8.62103 27.6336 8.85458 27.6901 9.09855 27.7181C9.35566 27.7476 9.60912 27.7289 9.86646 27.737C10.1602 27.7462 10.4497 27.7991 10.7442 27.8058C11.0396 27.8125 11.3321 27.8284 11.6264 27.8549C11.8218 27.8724 12.007 27.8817 12.2015 27.8468C12.5112 27.7912 12.8083 27.697 13.1221 27.661C13.2855 27.6422 13.4491 27.6258 13.6126 27.6083C13.8269 27.5853 14.0495 27.5727 14.2562 27.5065C14.3915 27.4631 14.5073 27.3898 14.6331 27.3263C14.74 27.2723 14.8484 27.2398 14.9639 27.21C15.2105 27.1466 15.4638 27.1002 15.7058 27.0202C15.9045 26.9544 16.0905 26.8594 16.2912 26.7977C16.4793 26.74 16.6655 26.6873 16.845 26.6054" stroke="#F8F2EA" stroke-width="0.75" stroke-linecap="round"/>
    <path d="M8.04614 20.9288C8.06402 20.9271 8.08159 20.9174 8.09747 20.9103C8.18527 20.8707 8.27108 20.8269 8.36173 20.794C8.47802 20.7518 8.5732 20.6815 8.68573 20.6307C8.83535 20.5632 8.99203 20.5222 9.13605 20.4404C9.30708 20.3434 9.47477 20.2242 9.62607 20.0985C9.91329 19.8599 10.2325 19.6633 10.487 19.3869C10.536 19.3337 10.5806 19.2769 10.6302 19.224C10.6886 19.1617 10.7244 19.0857 10.7769 19.0193C10.8359 18.9446 10.9201 18.8963 10.9822 18.8242C11.0399 18.7571 11.0866 18.6812 11.1378 18.6093C11.2473 18.4556 11.3722 18.3105 11.4731 18.1508C11.5708 17.9959 11.6792 17.843 11.7634 17.6801C11.8469 17.5185 11.9212 17.3571 12.0152 17.2006C12.1208 17.0249 12.1865 16.8322 12.2758 16.6483C12.3189 16.5598 12.3529 16.4688 12.3889 16.3772C12.4369 16.2551 12.4958 16.1377 12.5357 16.0124C12.6286 15.7206 12.6852 15.4211 12.7923 15.1338C12.9015 14.841 12.9685 14.5313 13.0361 14.2263C13.0673 14.0859 13.0888 13.9383 13.0726 13.7943C13.062 13.6994 13.0312 13.6102 12.9976 13.5216" stroke="#F8F2EA" stroke-width="0.75" stroke-linecap="round"/>
    <path d="M16.7151 26.6344C16.8303 26.6098 16.9458 26.5835 17.0575 26.5455C17.1461 26.5154 17.2172 26.4659 17.2933 26.4132C17.46 26.2975 17.6479 26.235 17.8226 26.1356C18.0069 26.0308 18.1384 25.8531 18.3407 25.7752C18.5271 25.7034 18.6863 25.5785 18.8448 25.457C19.0192 25.3233 19.1957 25.1931 19.3729 25.0632C19.4725 24.9902 19.567 24.914 19.6608 24.8339C19.7572 24.7516 19.8627 24.6747 19.9431 24.5757C19.9936 24.5135 20.0354 24.4485 20.0923 24.3914C20.1788 24.3046 20.2545 24.216 20.3301 24.1195C20.4388 23.9804 20.5522 23.8454 20.6741 23.7176C20.8023 23.5833 20.941 23.4595 21.0619 23.3182C21.1494 23.2158 21.2297 23.1067 21.3081 22.9972C21.3736 22.9056 21.422 22.8069 21.4797 22.7108C21.6452 22.4353 21.8762 22.2121 22.0584 21.9501C22.2236 21.7125 22.3805 21.4594 22.5103 21.2007C22.6317 20.9586 22.7778 20.729 22.9017 20.4879C22.9769 20.3415 23.0466 20.1915 23.113 20.041C23.2031 19.8367 23.2971 19.6254 23.3632 19.4119C23.401 19.29 23.4183 19.1657 23.4414 19.0406C23.4657 18.9088 23.4992 18.782 23.5396 18.6544C23.6059 18.4454 23.6661 18.2381 23.7089 18.0229C23.7807 17.6608 23.882 17.2998 23.9186 16.9319C23.9469 16.6472 23.9462 16.3606 23.9635 16.0751C23.9716 15.9407 23.9859 15.8071 23.996 15.6729C24.0042 15.5626 23.998 15.4563 23.998 15.3462" stroke="#F8F2EA" stroke-width="0.75" stroke-linecap="round"/>
    <path d="M17.336 23.7961C17.3044 23.8278 17.2615 23.8593 17.2386 23.8983C17.2135 23.9407 17.1942 23.9901 17.1487 24.0153C17.0838 24.0513 17.004 24.0531 16.935 24.0789C16.895 24.0938 16.8538 24.1039 16.8139 24.1183C16.7876 24.1278 16.7749 24.1887 16.7943 24.2088C16.8135 24.2288 16.8419 24.2329 16.8652 24.2458C16.8818 24.2549 16.8921 24.2698 16.9069 24.2808C16.9483 24.3114 16.9804 24.3037 17.0268 24.2921C17.0732 24.2804 17.1326 24.2727 17.1728 24.2446C17.1986 24.2266 17.2114 24.1933 17.2313 24.1698C17.2767 24.1164 17.3195 24.0597 17.3544 23.9988C17.3844 23.9468 17.4135 23.892 17.4591 23.852C17.5022 23.8142 17.5545 23.7885 17.6035 23.7595C17.7502 23.6725 17.8901 23.5747 18.0369 23.4876C18.2021 23.3894 18.3105 23.2562 18.4259 23.1066C18.5175 22.9879 18.6394 22.8874 18.7491 22.7856C18.8901 22.6548 19.0465 22.541 19.1862 22.4091C19.3085 22.2936 19.3934 22.1403 19.503 22.0133C19.6053 21.8947 19.7129 21.7819 19.8117 21.6601C19.8843 21.5706 19.9745 21.4942 20.0411 21.3994C20.1204 21.2865 20.2043 21.176 20.2809 21.0607C20.438 20.8243 20.4983 20.5594 20.5552 20.2844" stroke="#F8F2EA" stroke-width="0.75" stroke-linecap="round"/>
    <path d="M20.0207 21.4066C19.9441 21.4663 19.8688 21.5416 19.8306 21.6327C19.8009 21.7037 19.7958 21.7861 19.754 21.8515C19.7217 21.9023 19.6944 21.9559 19.663 22.0072C19.6109 22.0923 19.5431 22.146 19.4641 22.2043C19.3849 22.2629 19.309 22.3273 19.236 22.3934C19.138 22.4819 19.071 22.5857 18.9926 22.6899C18.9444 22.7538 18.8794 22.8096 18.8189 22.8616C18.7666 22.9066 18.7271 22.9627 18.6758 23.008C18.6128 23.0636 18.5409 23.1067 18.4793 23.1645C18.4215 23.2188 18.3739 23.2839 18.3125 23.3343C18.1864 23.4376 18.0443 23.5251 17.9099 23.6167C17.8596 23.6509 17.8112 23.6936 17.7575 23.7221C17.6295 23.7898 17.5057 23.8626 17.3902 23.9497C17.2924 24.0235 17.1943 24.0872 17.0838 24.1404C17.0417 24.1607 17.0197 24.1923 17.0253 24.1364" stroke="#F8F2EA" stroke-width="0.75" stroke-linecap="round"/>
    <path d="M17.2719 23.8178C17.2631 23.869 17.2366 23.934 17.1907 23.9623C17.1545 23.9845 17.0998 23.9863 17.0587 23.9958C17.0047 24.0083 16.9588 24.0402 16.9099 24.0648" stroke="#F8F2EA" stroke-width="0.75" stroke-linecap="round"/>
    <path d="M17.4811 23.5137C17.441 23.5819 17.386 23.64 17.3443 23.7074C17.3128 23.7584 17.291 23.8152 17.2643 23.8688C17.2273 23.9429 17.2545 23.7704 17.2566 23.7502C17.26 23.7187 17.2735 23.7009 17.286 23.6727C17.2899 23.664 17.3093 23.6149 17.3049 23.6235C17.2787 23.6739 17.2502 23.722 17.2261 23.7736C17.2106 23.8066 17.1891 23.8348 17.1802 23.8704C17.1744 23.8936 17.1688 23.9168 17.1553 23.935" stroke="#F8F2EA" stroke-width="0.75" stroke-linecap="round"/>
    <path d="M23.9915 15.5119C23.9725 15.3642 23.9836 15.2146 23.9655 15.0665C23.9419 14.8741 23.8988 14.6841 23.8728 14.4919C23.8452 14.2883 23.8096 14.0853 23.7917 13.8805C23.7783 13.7283 23.7777 13.5756 23.7511 13.4246C23.7222 13.2605 23.6802 13.0978 23.6432 12.9353C23.6166 12.8186 23.5892 12.7026 23.5505 12.5892C23.4662 12.3424 23.4092 12.0887 23.3492 11.8351C23.2832 11.5564 23.2271 11.2639 23.1044 11.004C23.0404 10.8684 22.984 10.739 22.9461 10.5935C22.9141 10.4704 22.8822 10.3477 22.8386 10.2281C22.7772 10.0597 22.7057 9.8952 22.6434 9.72713C22.5795 9.55474 22.513 9.38575 22.4323 9.2204C22.3513 9.05434 22.263 8.89228 22.1861 8.72421C22.1331 8.60859 22.0783 8.49591 22.0166 8.38493" stroke="#F8F2EA" stroke-width="0.75" stroke-linecap="round"/>
    <path d="M22.2217 8.75066C22.1133 8.50715 21.913 8.32473 21.7319 8.13695C21.4299 7.82393 21.2163 7.44376 20.9257 7.12132C20.8401 7.02634 20.7515 6.93313 20.6726 6.83237C20.5665 6.69689 20.4713 6.55355 20.3604 6.42187C20.2707 6.31545 20.1889 6.19754 20.0898 6.09973C20.0155 6.02636 19.9356 5.96034 19.8653 5.88273C19.7795 5.78803 19.6907 5.6986 19.5973 5.6113C19.5121 5.53158 19.4213 5.45771 19.342 5.37193C19.2693 5.29331 19.1937 5.2207 19.1034 5.1624C19.0651 5.13768 19.0252 5.1171 18.9908 5.08671C18.9409 5.04263 18.9022 4.98735 18.8558 4.93981C18.7882 4.87047 18.7091 4.81615 18.6299 4.76121C18.5389 4.6981 18.449 4.6345 18.3533 4.57852C18.0826 4.4201 17.8299 4.23422 17.5546 4.08264C17.3147 3.95054 17.0883 3.79756 16.8521 3.65908C16.5785 3.49866 16.2766 3.39231 15.9999 3.23777C15.736 3.0904 15.4699 2.94582 15.2231 2.77059C15.0526 2.64957 14.8651 2.53764 14.6723 2.45554C14.5989 2.4243 14.5234 2.39057 14.447 2.36755C14.3564 2.34022 14.2672 2.32037 14.1779 2.28664C14.091 2.25378 14.0085 2.2115 13.9222 2.1774C13.8368 2.14365 13.7488 2.11842 13.6613 2.0909C13.5906 2.06865 13.5245 2.03458 13.4532 2.01409C13.3602 1.98739 13.2644 1.96032 13.17 1.93952C13.0177 1.90599 12.8767 1.83557 12.7351 1.771" stroke="#F8F2EA" stroke-width="0.75" stroke-linecap="round"/>
    <path d="M22.1558 8.68481C22.1079 8.63676 22.0741 8.59571 22.0477 8.53183C22.0077 8.4354 21.96 8.355 21.8806 8.2876" stroke="#F8F2EA" stroke-width="0.75" stroke-linecap="round"/>
    <path d="M13.9822 8.21485C13.9742 8.19842 13.9659 8.18367 13.9561 8.16891" stroke="#F8F2EA" stroke-width="0.75" stroke-linecap="round"/>
    <path d="M13.8369 8.07971C13.8134 8.02075 13.7756 7.96948 13.7369 7.92016C13.7204 7.89918 13.7059 7.87626 13.6897 7.85488C13.6684 7.82653 13.6494 7.79628 13.6277 7.76821C13.6065 7.74076 13.5797 7.71833 13.5588 7.69049C13.5298 7.652 13.501 7.61503 13.4696 7.57856C13.4503 7.55612 13.4332 7.53215 13.4151 7.50869C13.3844 7.4688 13.3528 7.43041 13.3208 7.39169C13.2799 7.34232 13.2459 7.28695 13.2062 7.23648C13.1521 7.1677 13.0886 7.10875 13.0303 7.04381C12.9662 6.97243 12.9102 6.89419 12.8464 6.8226C12.8074 6.77887 12.7627 6.74171 12.7211 6.70076C12.6789 6.65934 12.6389 6.6154 12.5991 6.57167C12.5396 6.50617 12.48 6.43999 12.4253 6.37041C12.384 6.31797 12.3438 6.26441 12.2991 6.21484C12.2688 6.18122 12.2355 6.1505 12.2045 6.11754C12.1733 6.08439 12.146 6.048 12.1178 6.01237C12.0748 5.95815 12.0301 5.9064 11.9822 5.85657C11.9244 5.79646 11.8673 5.73661 11.8154 5.67114" stroke="#F8F2EA" stroke-width="0.75" stroke-linecap="round"/>
    <path d="M12.5162 6.46324C12.4766 6.41422 12.4344 6.36762 12.3953 6.31811C12.382 6.30129 12.3682 6.28514 12.353 6.2701C12.3361 6.25351 12.3238 6.23422 12.3101 6.21507" stroke="#F8F2EA" stroke-width="0.75" stroke-linecap="round"/>
    <path d="M12.4706 6.44365C12.4565 6.41983 12.4369 6.39896 12.4209 6.37641C12.3999 6.3469 12.3849 6.31445 12.3665 6.2834C12.3487 6.2533 12.3226 6.23084 12.3035 6.20201" stroke="#F8F2EA" stroke-width="0.75" stroke-linecap="round"/>
    <path d="M12.4098 6.36317C12.3867 6.34192 12.3686 6.31175 12.3492 6.28698C12.3296 6.26216 12.3108 6.23672 12.2912 6.212C12.259 6.17162 12.2227 6.13191 12.1863 6.09541" stroke="#F8F2EA" stroke-width="0.75" stroke-linecap="round"/>
    <path d="M12.3339 6.29137C12.309 6.27001 12.2827 6.24925 12.264 6.22195C12.248 6.19865 12.2346 6.17402 12.2179 6.15108C12.1861 6.10722 12.1562 6.06297 12.1125 6.03014" stroke="#F8F2EA" stroke-width="0.75" stroke-linecap="round"/>
    <path d="M12.3272 6.2847C12.3034 6.26534 12.2822 6.24216 12.2622 6.21894C12.2403 6.19356 12.2126 6.17394 12.1911 6.14871C12.1705 6.12461 12.1528 6.09853 12.1311 6.07534C12.123 6.06674 12.1145 6.05725 12.1043 6.05117C12.0991 6.04808 12.093 6.04802 12.0881 6.04452C12.0783 6.03763 12.0715 6.02727 12.0643 6.01793C12.0567 6.00796 12.0481 6.00088 12.0385 5.9929C12.0259 5.98241 12.0121 5.9736 11.9999 5.96281C11.9553 5.92373 11.9101 5.88573 11.8666 5.84556C11.8425 5.82331 11.8141 5.80556 11.7907 5.78282C11.7652 5.75808 11.7447 5.73033 11.7168 5.70764C11.6911 5.68672 11.6681 5.66718 11.6451 5.64321C11.6223 5.6194 11.5912 5.60829 11.5676 5.58579C11.5448 5.564 11.5203 5.54447 11.4963 5.52403C11.4666 5.4987 11.4331 5.47821 11.4042 5.45186C11.387 5.43611 11.3691 5.42116 11.3513 5.40593C11.3432 5.39891 11.3342 5.39296 11.3263 5.38562C11.3117 5.37209 11.2999 5.35623 11.284 5.34404C11.2631 5.3281 11.2391 5.31512 11.2167 5.30125C11.1867 5.28262 11.1568 5.26744 11.1225 5.25871C11.0912 5.25071 11.0614 5.23755 11.0324 5.22341C11.0109 5.21293 10.9884 5.19977 10.9644 5.19633C10.945 5.19355 10.9269 5.19179 10.9083 5.18485C10.8712 5.17105 10.8262 5.15398 10.8013 5.12187C10.7912 5.10883 10.7842 5.10763 10.7808 5.09117C10.7776 5.07571 10.7723 5.0613 10.7733 5.04524C10.7741 5.03258 10.7737 5.01993 10.7744 5.00728C10.7752 4.99239 10.7837 4.97452 10.79 4.96111C10.7919 4.95694 10.8094 4.95681 10.8109 4.95652C10.8239 4.95404 10.8357 4.95154 10.8475 4.94515C10.8602 4.93835 10.8628 4.9305 10.8716 4.92122C10.8749 4.91787 10.89 4.92044 10.8939 4.92013C10.9084 4.91899 10.9199 4.91448 10.9317 4.90623C10.9485 4.8944 10.9732 4.89487 10.9929 4.89487C11.0662 4.89487 11.1333 4.92156 11.196 4.95821C11.2265 4.97605 11.2554 4.99643 11.2787 5.02324C11.3032 5.05146 11.3267 5.07932 11.3534 5.10568C11.3742 5.12618 11.402 5.15295 11.4054 5.18376" stroke="#F8F2EA" stroke-width="0.75" stroke-linecap="round"/>
    <path d="M11.3156 5.17558C11.2996 5.16417 11.281 5.15628 11.2634 5.1477C11.2208 5.12689 11.1803 5.1039 11.1398 5.07931C11.1033 5.05721 11.0666 5.03627 11.0255 5.02413C10.9899 5.0136 10.9542 5.01053 10.9175 5.00752" stroke="#F8F2EA" stroke-width="0.75" stroke-linecap="round"/>
    <path d="M11.4305 5.17832C11.4248 5.17085 11.3752 5.11041 11.3934 5.09994C11.4031 5.09441 11.3998 5.08626 11.3912 5.0798" stroke="#F8F2EA" stroke-width="0.75" stroke-linecap="round"/>
    <path d="M13.0046 13.6146C12.9947 13.492 12.9862 13.3686 12.9682 13.247C12.9608 13.1972 12.9515 13.1479 12.951 13.0974C12.9499 13.0008 12.9475 12.9038 12.9364 12.8077C12.9188 12.6551 12.8684 12.5077 12.8415 12.3565C12.8324 12.3051 12.8252 12.2539 12.8237 12.2016C12.8226 12.1644 12.8233 12.1271 12.8205 12.0899C12.8171 12.0428 12.8048 12.0002 12.7903 11.9556C12.7684 11.8887 12.7543 11.8204 12.7362 11.7525C12.7173 11.6817 12.7 11.6117 12.6856 11.5399C12.6677 11.4507 12.6479 11.3613 12.6214 11.2743C12.5959 11.1904 12.5588 11.1119 12.5285 11.0299C12.4769 10.8905 12.4309 10.7496 12.3848 10.6084C12.3592 10.5302 12.3214 10.4581 12.2842 10.385C12.2442 10.3061 12.2043 10.2282 12.1562 10.1539" stroke="#F8F2EA" stroke-width="0.75" stroke-linecap="round"/>
    <path d="M12.225 10.3062C12.2042 10.2398 12.1811 10.1746 12.1621 10.1076C12.141 10.0329 12.1223 9.95712 12.0943 9.88449C12.0688 9.81807 12.0349 9.75682 11.9969 9.69687C11.9311 9.59275 11.8563 9.49487 11.7835 9.39563C11.7146 9.30171 11.6545 9.20272 11.5926 9.10417C11.521 8.99016 11.4476 8.87727 11.3757 8.76344C11.3157 8.66851 11.2538 8.57535 11.1812 8.48956C11.1209 8.41837 11.0574 8.34998 11.0014 8.27524C10.9485 8.20457 10.898 8.13205 10.8435 8.06257C10.789 7.99305 10.7295 7.92763 10.6719 7.86069C10.6125 7.79163 10.5562 7.71894 10.4926 7.65366C10.4258 7.58515 10.3519 7.52422 10.2836 7.45725C10.2111 7.38615 10.1344 7.32139 10.0564 7.25653C9.93217 7.1533 9.80645 7.05231 9.68432 6.94666C9.51523 6.80037 9.33021 6.67472 9.14722 6.54688" stroke="#F8F2EA" stroke-width="0.75" stroke-linecap="round"/>
    <path d="M9.1711 6.57374C9.16174 6.56926 9.15343 6.5621 9.14547 6.55566C9.10713 6.52461 9.07219 6.49012 9.03881 6.4538C9.00035 6.41195 8.96417 6.36784 8.9176 6.33453C8.86511 6.297 8.80439 6.2717 8.74579 6.24562C8.43527 6.10742 8.14493 5.93366 7.8472 5.77069C7.74093 5.71252 7.63243 5.65925 7.52159 5.61044C7.42029 5.56584 7.31717 5.5254 7.21699 5.47823C6.99844 5.37532 6.80144 5.23384 6.58034 5.13568C6.27655 5.0008 5.94728 4.93646 5.64007 4.80971C5.50242 4.75292 5.37012 4.68477 5.2346 4.62326C5.09755 4.56105 4.95694 4.50997 4.81623 4.45704C4.63724 4.38971 4.45336 4.31983 4.28524 4.22779C4.21276 4.1881 4.15234 4.14296 4.12186 4.06422C4.10578 4.02269 4.09963 3.97809 4.09177 3.9345C4.0809 3.87429 4.06794 3.81378 4.06299 3.75269C4.05714 3.68048 4.06262 3.60567 4.0835 3.53604C4.10491 3.46463 4.14668 3.40931 4.19661 3.35556C4.24868 3.2995 4.30304 3.24314 4.36528 3.1983C4.44015 3.14437 4.52474 3.10292 4.60737 3.06261C4.83991 2.94916 5.07969 2.85221 5.31183 2.7378C5.46896 2.66036 5.62416 2.57859 5.78212 2.50291C5.95501 2.42008 6.13204 2.34457 6.30831 2.26934C6.65552 2.12117 7.00852 1.9906 7.36731 1.87387" stroke="#F8F2EA" stroke-width="0.75" stroke-linecap="round"/>
    <path d="M7.29858 1.89476C7.40999 1.86106 7.5234 1.82812 7.63791 1.80718C7.6976 1.79626 7.75756 1.79188 7.81783 1.78594C7.8779 1.78002 7.93689 1.76965 7.99609 1.75807C8.12062 1.73372 8.24208 1.69516 8.36717 1.6738C8.53768 1.6447 8.71378 1.64333 8.88608 1.632C9.05087 1.62117 9.21531 1.6063 9.38003 1.59484C9.59777 1.5797 9.81598 1.57768 10.034 1.56996C10.2853 1.56107 10.536 1.55377 10.7873 1.56565C11.0324 1.57723 11.2772 1.5925 11.5223 1.60214" stroke="#F8F2EA" stroke-width="0.75" stroke-linecap="round"/>
    <path d="M12.9125 1.87387C12.8202 1.83968 12.7271 1.80757 12.6314 1.78396C12.4774 1.74595 12.3176 1.74954 12.1626 1.71777C12.0969 1.70429 12.0325 1.68514 11.9672 1.66983C11.8816 1.64979 11.798 1.64013 11.7103 1.63732C11.6092 1.63407 11.5112 1.61682 11.4124 1.59618" stroke="#F8F2EA" stroke-width="0.75" stroke-linecap="round"/>
    <path d="M6.88266 23.8443C6.88212 23.8485 6.84833 23.8363 6.8432 23.8355C6.81493 23.8309 6.78733 23.8506 6.75836 23.8506C6.73598 23.8506 6.71846 23.8653 6.69727 23.8663C6.67573 23.8674 6.68155 23.8398 6.68155 23.8227C6.68155 23.8191 6.67731 23.8126 6.68086 23.8119C6.68591 23.8108 6.7087 23.8222 6.71507 23.8243C6.73045 23.8293 6.74585 23.835 6.76081 23.8411C6.76474 23.8427 6.79886 23.8534 6.79432 23.8471C6.79173 23.8434 6.78979 23.834 6.78647 23.8318C6.78001 23.8275 6.77087 23.8289 6.76395 23.8253C6.75632 23.8214 6.74716 23.8214 6.73881 23.8197C6.72244 23.8165 6.77111 23.8284 6.78682 23.8341C6.79844 23.8383 6.80557 23.8386 6.81492 23.8301C6.82808 23.8181 6.8026 23.8232 6.79607 23.8236C6.77765 23.8247 6.76483 23.8199 6.74964 23.8101C6.74149 23.8049 6.73913 23.8069 6.73183 23.812C6.72593 23.8162 6.71993 23.8162 6.71542 23.8225C6.71377 23.8249 6.69821 23.8512 6.7053 23.8532C6.70756 23.8538 6.67554 23.8228 6.69866 23.8299C6.73812 23.8421 6.7713 23.8728 6.81161 23.884C6.81758 23.8857 6.82763 23.8818 6.8336 23.8805C6.84653 23.8777 6.86068 23.8782 6.87358 23.881C6.89426 23.8855 6.91553 23.8911 6.93468 23.9003C6.95172 23.9085 6.9602 23.9076 6.97884 23.9076C7.02011 23.9076 7.05833 23.8983 7.09947 23.9041" stroke="#F8F2EA" stroke-width="0.75" stroke-linecap="round"/>
    <path d="M7.1658 23.8875C7.09552 23.8838 7.02589 23.873 6.95571 23.8682C6.93875 23.867 6.92628 23.8691 6.9109 23.8754C6.89798 23.8807 6.88853 23.8815 6.87714 23.8909C6.87023 23.8965 6.85389 23.8884 6.84619 23.8877C6.83215 23.8865 6.81892 23.8855 6.80524 23.8819C6.79038 23.878 6.77471 23.8812 6.75959 23.8796C6.74973 23.8786 6.73689 23.8727 6.72781 23.8686C6.72489 23.8673 6.70424 23.8592 6.70228 23.8647C6.69708 23.8795 6.74759 23.8672 6.75053 23.8672C6.76932 23.8672 6.78584 23.8754 6.80315 23.8817C6.81639 23.8864 6.82978 23.8887 6.84369 23.8904C6.87673 23.8942 6.90878 23.9059 6.94196 23.9078C6.95965 23.9088 6.9773 23.906 6.995 23.9069C7.01836 23.908 7.03921 23.9185 7.06211 23.9219C7.0759 23.924 7.09001 23.9232 7.1039 23.9233C7.12122 23.9234 7.13797 23.9256 7.15517 23.927C7.18321 23.9294 7.20692 23.9177 7.23499 23.9241C7.27208 23.9326 7.31011 23.9333 7.34795 23.9365C7.38288 23.9393 7.41686 23.9509 7.45195 23.9538C7.49449 23.9573 7.53685 23.9571 7.5795 23.9571C7.62371 23.9571 7.6681 23.9549 7.71226 23.9556C7.75846 23.9563 7.80458 23.9646 7.85086 23.9661C7.89462 23.9676 7.93803 23.9684 7.98174 23.9707C8.03026 23.9733 8.07803 23.9775 8.12659 23.9751C8.18144 23.9725 8.23464 23.9751 8.28905 23.9813C8.31216 23.9839 8.33439 23.9829 8.3571 23.9778C8.37797 23.9732 8.39786 23.9653 8.41921 23.9628C8.45717 23.9584 8.49916 23.9607 8.53707 23.9649C8.55818 23.9672 8.57722 23.9687 8.59845 23.967C8.62904 23.9645 8.65983 23.9656 8.69036 23.9624C8.72684 23.9585 8.75993 23.9541 8.79665 23.9576C8.84626 23.9623 8.89307 23.964 8.94212 23.9541C8.97041 23.9484 8.99872 23.9449 9.02737 23.9417C9.07703 23.936 9.1264 23.9284 9.17618 23.9237C9.27294 23.9146 9.37002 23.9115 9.46681 23.9027C9.51183 23.8986 9.55731 23.8988 9.60218 23.8934C9.64173 23.8886 9.68131 23.8826 9.72077 23.8771C9.75782 23.8719 9.79455 23.8647 9.83164 23.8597C9.88441 23.8527 9.93686 23.8467 9.98921 23.8367C10.0376 23.8275 10.0864 23.82 10.1335 23.8053C10.1779 23.7914 10.2203 23.7721 10.2646 23.7581C10.2979 23.7476 10.3301 23.7468 10.3646 23.7451C10.4156 23.7428 10.4592 23.7262 10.5065 23.7088" stroke="#F8F2EA" stroke-width="0.75" stroke-linecap="round"/>
    <path d="M10.3676 23.673C10.3521 23.6898 10.3247 23.6953 10.3042 23.7025C10.2597 23.7181 10.2157 23.7357 10.171 23.7508C10.1169 23.7691 10.0622 23.7756 10.0055 23.7807C9.9281 23.7877 9.85058 23.7959 9.77295 23.8004C9.67159 23.8062 9.57001 23.8067 9.46866 23.8131C9.37978 23.8187 9.29243 23.8298 9.20481 23.8455C9.11225 23.8621 9.01999 23.8795 8.92615 23.8875C8.72508 23.9047 8.52437 23.8943 8.323 23.8932" stroke="#F8F2EA" stroke-width="0.75" stroke-linecap="round"/>
    <path d="M6.89021 23.8311C6.87178 23.8359 6.85592 23.8475 6.83673 23.8506C6.82269 23.8529 6.81195 23.8524 6.80013 23.8612C6.79004 23.8687 6.79185 23.8687 6.80367 23.8687C6.81435 23.8687 6.8111 23.8666 6.80367 23.865C6.80133 23.8645 6.78678 23.8632 6.78616 23.8616C6.78593 23.8611 6.78732 23.8612 6.78793 23.8611C6.79274 23.8604 6.80566 23.8596 6.80878 23.8594C6.82406 23.8586 6.84046 23.8568 6.85487 23.8631C6.87678 23.8727 6.90436 23.8649 6.92754 23.8635C6.94262 23.8626 6.92901 23.8624 6.92483 23.8608C6.91791 23.8581 6.92343 23.8501 6.92504 23.8455C6.93061 23.8296 6.91989 23.8422 6.91075 23.8447C6.90603 23.8459 6.87373 23.85 6.89563 23.8464C6.90547 23.8447 6.91776 23.8401 6.92775 23.8407C6.93283 23.841 6.91816 23.8441 6.91336 23.8458C6.90302 23.8495 6.89736 23.8516 6.8875 23.8559C6.87696 23.8604 6.86929 23.8631 6.85758 23.8628C6.84086 23.8624 6.84723 23.8579 6.85966 23.8552C6.8632 23.8545 6.86679 23.8537 6.8704 23.8537C6.87456 23.8537 6.8795 23.8549 6.87478 23.86C6.8641 23.8713 6.84526 23.8745 6.83057 23.8725C6.82841 23.8722 6.82105 23.8708 6.81879 23.8689C6.81708 23.8676 6.82317 23.8688 6.82536 23.8688C6.84087 23.8691 6.85068 23.8693 6.86727 23.8699C6.91782 23.8715 6.9666 23.8755 7.01658 23.8821C7.03441 23.8845 7.05192 23.8851 7.06975 23.8828C7.07775 23.8817 7.07629 23.8825 7.07413 23.8782" stroke="#F8F2EA" stroke-width="0.75" stroke-linecap="round"/>
    <path d="M6.79337 23.8652C6.78356 23.8775 6.76081 23.8716 6.74717 23.871C6.73382 23.8704 6.72167 23.8673 6.70852 23.8656C6.70145 23.8647 6.68268 23.8689 6.67688 23.8629C6.67339 23.8592 6.67373 23.8526 6.67154 23.8482C6.66843 23.8419 6.6628 23.8397 6.66599 23.8316C6.67292 23.814 6.7021 23.8179 6.71606 23.8179" stroke="#F8F2EA" stroke-width="0.75" stroke-linecap="round"/>
    <path d="M7.09638 23.8913C7.04074 23.8785 6.98601 23.8609 6.9314 23.8443" stroke="#F8F2EA" stroke-width="0.75" stroke-linecap="round"/>
    <path d="M7.11745 23.8744C7.09559 23.866 7.07235 23.8641 7.04926 23.8608C7.00795 23.8549 6.96717 23.8472 6.92603 23.8405" stroke="#F8F2EA" stroke-width="0.75" stroke-linecap="round"/>
    <path d="M7.19665 23.8896C7.15526 23.8757 7.1126 23.8661 7.07031 23.8555" stroke="#F8F2EA" stroke-width="0.75" stroke-linecap="round"/>
    <path d="M10.2061 23.7831C10.2493 23.7778 10.2925 23.7719 10.3354 23.7643C10.3672 23.7586 10.396 23.7468 10.4269 23.7383C10.4611 23.729 10.4966 23.7244 10.53 23.7123C10.5597 23.7014 10.5895 23.6933 10.621 23.6889C10.6614 23.6831 10.702 23.6772 10.7425 23.6725C10.7805 23.6681 10.819 23.6646 10.8562 23.6551C10.8725 23.651 10.8878 23.6448 10.9035 23.639C10.9251 23.6311 10.9476 23.6262 10.9697 23.6201C11.0172 23.6069 11.0652 23.5964 11.1128 23.5837C11.1347 23.5779 11.157 23.573 11.1786 23.5661C11.2035 23.5582 11.227 23.5468 11.2521 23.5397C11.2732 23.5337 11.295 23.5308 11.3164 23.5258C11.3377 23.5207 11.3584 23.514 11.3791 23.5069C11.4527 23.4816 11.524 23.4512 11.595 23.4192C11.6377 23.3999 11.6823 23.3856 11.7269 23.3715C11.777 23.3558 11.8268 23.339 11.8771 23.3243C11.9258 23.3101 11.9748 23.2968 12.0235 23.2826C12.0693 23.2692 12.1129 23.2489 12.158 23.2332C12.1981 23.2192 12.2381 23.2059 12.277 23.1887C12.3296 23.1656 12.3816 23.1422 12.436 23.1236C12.5056 23.1 12.5723 23.0696 12.6395 23.0399C12.6776 23.0232 12.7142 23.0038 12.7516 22.9857C12.7845 22.9698 12.8183 22.9562 12.8513 22.9407C12.9048 22.9155 12.9541 22.8824 13.0085 22.8591C13.0647 22.835 13.1212 22.8143 13.1756 22.7857C13.2034 22.7711 13.2284 22.7532 13.2547 22.7362C13.2845 22.7168 13.3171 22.7026 13.3486 22.6864C13.4211 22.6492 13.4912 22.6072 13.5604 22.5642C13.6286 22.5219 13.7 22.4843 13.7669 22.44C13.8031 22.4161 13.8372 22.3896 13.872 22.3639C13.8962 22.346 13.9216 22.3309 13.947 22.3151C13.985 22.2914 14.0212 22.2649 14.0588 22.2404C14.1062 22.2095 14.1548 22.1805 14.2029 22.1507C14.2728 22.1074 14.3408 22.0618 14.4077 22.014C14.4691 21.9701 14.5321 21.9288 14.5952 21.8874C14.6685 21.8393 14.7456 21.7946 14.8138 21.7392C14.8555 21.7053 14.8939 21.6676 14.9346 21.6325C14.9759 21.5968 15.0181 21.5623 15.0584 21.5253C15.1383 21.4518 15.2192 21.3814 15.3046 21.3145" stroke="#F8F2EA" stroke-width="0.75" stroke-linecap="round"/>
    <path d="M13.8477 22.3901C13.8491 22.3869 13.8564 22.385 13.8592 22.3834C13.8699 22.3771 13.8795 22.3693 13.8899 22.3626C13.9002 22.3559 13.9115 22.3513 13.9224 22.3458C13.9445 22.3345 13.9663 22.3222 13.9881 22.3103C14.025 22.2904 14.0562 22.2624 14.0919 22.2404C14.138 22.2119 14.1793 22.1769 14.2255 22.1487C14.2701 22.1216 14.3088 22.0915 14.3467 22.0558C14.369 22.0349 14.3936 22.0166 14.4166 21.9964C14.4488 21.9683 14.4773 21.9369 14.506 21.9051C14.5377 21.87 14.5725 21.8376 14.6039 21.8023C14.609 21.7964 14.6379 21.7675 14.6075 21.7713C14.5723 21.7757 14.5355 21.7926 14.5036 21.807C14.4543 21.8292 14.4087 21.8589 14.371 21.8979C14.3204 21.9504 14.2792 22.0104 14.2241 22.0588C14.1212 22.1492 13.9979 22.2142 13.8802 22.2826C13.8148 22.3206 13.7494 22.3582 13.6831 22.3946C13.6442 22.4159 13.6052 22.4364 13.5642 22.4535C13.4614 22.4966 13.355 22.5309 13.2533 22.5767C13.1944 22.6032 13.1401 22.6384 13.0812 22.665C12.9697 22.7154 12.8509 22.7487 12.7361 22.7905C12.6256 22.8307 12.5226 22.882 12.4202 22.9397C12.3385 22.9858 12.2554 23.0309 12.1767 23.082C12.1225 23.1172 12.0677 23.1535 12.019 23.196C11.9906 23.2208 11.9666 23.2492 11.9419 23.2774C11.9241 23.2979 11.9037 23.3249 11.8798 23.339C11.8694 23.3451 11.8549 23.345 11.8433 23.3471C11.8262 23.3502 11.8102 23.3554 11.7929 23.3571C11.7446 23.3616 11.7008 23.3857 11.6545 23.399" stroke="#F8F2EA" stroke-width="0.75" stroke-linecap="round"/>
    <path d="M11.9591 23.3046C11.9269 23.3105 11.898 23.3294 11.8694 23.3441C11.8398 23.3594 11.8075 23.3627 11.7761 23.3728C11.7574 23.3788 11.7389 23.3868 11.7198 23.3909C11.6924 23.3968 11.6655 23.4014 11.6387 23.4099C11.6068 23.4199 11.5741 23.4246 11.5425 23.4352" stroke="#F8F2EA" stroke-width="0.75" stroke-linecap="round"/>
    <path d="M11.7083 23.3713C11.6674 23.3952 11.6287 23.4183 11.5834 23.4319C11.5689 23.4363 11.5546 23.4432 11.5396 23.4446C11.5178 23.4467 11.4966 23.4525 11.4746 23.4544" stroke="#F8F2EA" stroke-width="0.75" stroke-linecap="round"/>
    <path d="M11.6955 23.3795C11.6659 23.3866 11.6387 23.4026 11.6123 23.4171" stroke="#F8F2EA" stroke-width="0.75" stroke-linecap="round"/>
    <path d="M11.6647 23.3892C11.6596 23.3997 11.648 23.4009 11.6386 23.4056C11.6281 23.4109 11.6454 23.4089 11.6501 23.4089C11.6602 23.4089 11.6713 23.3957 11.6777 23.3892" stroke="#F8F2EA" stroke-width="0.75" stroke-linecap="round"/>
    <path d="M10.6879 23.6771C10.674 23.6861 10.6619 23.6882 10.6457 23.6886C10.6261 23.689 10.6091 23.6962 10.5906 23.7019C10.5751 23.7067 10.5591 23.7088 10.5435 23.7133C10.531 23.717 10.5166 23.7254 10.5034 23.7242" stroke="#F8F2EA" stroke-width="0.75" stroke-linecap="round"/>
    <path d="M10.6376 23.6931C10.6276 23.6949 10.618 23.6991 10.6081 23.7006C10.6035 23.7013 10.5944 23.7034 10.5903 23.702" stroke="#F8F2EA" stroke-width="0.75" stroke-linecap="round"/>
    <path d="M6.93823 23.879C6.96261 23.8853 6.99041 23.8828 7.01539 23.8826C7.02486 23.8825 7.01044 23.8916 7.00458 23.8908C6.98976 23.8887 6.97384 23.886 6.95958 23.8813C6.95505 23.8799 6.9511 23.8758 6.94627 23.8758" stroke="#F8F2EA" stroke-width="0.75" stroke-linecap="round"/>
    <path d="M10.3024 23.6769C10.2849 23.6808 10.2693 23.6896 10.252 23.6936C10.2352 23.6976 10.2175 23.6971 10.2004 23.6984C10.1689 23.7009 10.1401 23.7139 10.1084 23.7159C10.0894 23.7171 10.0704 23.7168 10.0514 23.7179C10.0314 23.719 10.0122 23.7234 9.9924 23.7262C9.94143 23.7335 9.88889 23.7368 9.83748 23.7401C9.78343 23.7437 9.72966 23.7499 9.67563 23.7535C9.56815 23.7608 9.4604 23.7639 9.35299 23.7724C9.31588 23.7753 9.2796 23.7842 9.24248 23.7876C9.19862 23.7916 9.15421 23.7995 9.11012 23.8001C9.08755 23.8004 9.065 23.7988 9.04243 23.7991C9.01801 23.7993 8.9944 23.8031 8.9703 23.8064C8.92573 23.8127 8.88147 23.8196 8.83705 23.8269C8.81634 23.8303 8.79575 23.8346 8.77478 23.836C8.75523 23.8374 8.73737 23.834 8.71819 23.8309C8.6696 23.823 8.62118 23.8223 8.57206 23.8229C8.53244 23.8234 8.49275 23.8259 8.45311 23.8241C8.42029 23.8226 8.38709 23.8152 8.35451 23.8232C8.33074 23.8291 8.30801 23.8386 8.28424 23.8443C8.25522 23.8513 8.22513 23.8453 8.19568 23.8453C8.14933 23.8453 8.10525 23.8571 8.05888 23.8489C8.03558 23.8447 8.01206 23.8437 7.98843 23.8437C7.95599 23.8437 7.92361 23.8419 7.89116 23.8421C7.86862 23.8422 7.84627 23.8425 7.82365 23.8422C7.80168 23.8419 7.77969 23.8425 7.75773 23.8417C7.74099 23.8412 7.72442 23.838 7.70772 23.8375C7.64682 23.8358 7.58546 23.8343 7.52446 23.8358C7.49366 23.8365 7.46327 23.8371 7.43243 23.836C7.4037 23.8351 7.37283 23.8394 7.34493 23.8314C7.3352 23.8286 7.32623 23.8238 7.31615 23.8223C7.30594 23.8208 7.29544 23.8212 7.28515 23.8212C7.26812 23.8212 7.25109 23.8212 7.23407 23.8212C7.20833 23.8212 7.1831 23.8244 7.15723 23.8244" stroke="#F8F2EA" stroke-width="0.75" stroke-linecap="round"/>
    <path d="M8.74743 23.7972C8.73606 23.7996 8.72153 23.8091 8.71382 23.818C8.70968 23.8227 8.694 23.8297 8.69853 23.8377C8.69954 23.8395 8.7053 23.8472 8.70119 23.8485C8.68885 23.8524 8.67397 23.8534 8.66109 23.8534C8.64439 23.8534 8.62762 23.8538 8.61093 23.8533C8.59448 23.8527 8.57955 23.845 8.56327 23.8439C8.52026 23.841 8.47706 23.8446 8.43406 23.8402C8.41542 23.8383 8.40011 23.8425 8.38195 23.847C8.36281 23.8516 8.34244 23.851 8.32406 23.858C8.31149 23.8628 8.28773 23.8619 8.27524 23.8575C8.25175 23.8492 8.23546 23.8277 8.20908 23.8277C8.19578 23.8277 8.20821 23.8571 8.19396 23.8566C8.18801 23.8564 8.18271 23.8502 8.17884 23.8465C8.15577 23.8243 8.12786 23.8161 8.09667 23.8098C8.08885 23.8083 8.04847 23.7978 8.04634 23.8143C8.04535 23.822 8.04278 23.8239 8.03674 23.8284C8.02934 23.834 8.02373 23.8348 8.02393 23.8446C8.02402 23.849 8.03354 23.8485 8.03354 23.8437" stroke="#F8F2EA" stroke-width="0.75" stroke-linecap="round"/>
    <path d="M8.07054 23.8598C8.07054 23.8751 8.03089 23.8499 8.02393 23.8469" stroke="#F8F2EA" stroke-width="0.75" stroke-linecap="round"/>
    <path d="M8.07739 23.8518C8.0456 23.8518 8.01536 23.8437 7.98362 23.8437C7.97327 23.8437 7.96206 23.8421 7.9529 23.8476C7.94702 23.8511 7.93795 23.8433 7.93433 23.8421" stroke="#F8F2EA" stroke-width="0.75" stroke-linecap="round"/>
    <path d="M9.68112 23.7394C9.6667 23.7394 9.65331 23.7408 9.63915 23.7436C9.6318 23.745 9.62498 23.7427 9.61763 23.7427C9.61254 23.7427 9.60783 23.7431 9.6029 23.7445C9.58779 23.7486 9.58166 23.7668 9.5686 23.7733" stroke="#F8F2EA" stroke-width="0.75" stroke-linecap="round"/>
    <path d="M9.74743 23.7715C9.73411 23.7838 9.71635 23.7841 9.69946 23.7809C9.68927 23.7789 9.67896 23.7748 9.66845 23.7753C9.6445 23.7763 9.62056 23.7831 9.59694 23.7868C9.55636 23.7933 9.51586 23.8011 9.47515 23.8067C9.42401 23.8138 9.37461 23.8164 9.32298 23.8152C9.28277 23.8142 9.24395 23.8194 9.20395 23.8228C9.15277 23.8272 9.1011 23.8273 9.05009 23.8326C9.00419 23.8374 8.95986 23.8476 8.91471 23.8563C8.86473 23.8661 8.81304 23.8603 8.76245 23.8629" stroke="#F8F2EA" stroke-width="0.75" stroke-linecap="round"/>
    <path d="M10.2676 23.6549C10.3205 23.6217 10.3781 23.5993 10.4351 23.5748C10.469 23.5602 10.5126 23.5676 10.5472 23.574C10.5964 23.5831 10.6387 23.5675 10.6869 23.556C10.7465 23.5419 10.8072 23.5229 10.8619 23.4955C10.9547 23.449 11.0561 23.4597 11.1541 23.4351C11.1977 23.4242 11.2408 23.4118 11.2845 23.4015C11.3232 23.3924 11.3676 23.3828 11.4026 23.363C11.445 23.339 11.4862 23.3168 11.5315 23.2978C11.5492 23.2904 11.568 23.2865 11.586 23.28C11.612 23.2706 11.6362 23.2569 11.6621 23.2476C11.7358 23.2212 11.805 23.1817 11.8801 23.1583C11.8816 23.1578 11.9069 23.1488 11.9069 23.1509C11.9069 23.1571 11.8851 23.1652 11.8812 23.1669C11.8582 23.1771 11.8334 23.182 11.81 23.1913C11.7837 23.2017 11.7587 23.2158 11.7338 23.229C11.7129 23.2401 11.7141 23.2504 11.7393 23.24C11.7619 23.2306 11.7808 23.2139 11.8022 23.2021C11.8127 23.1962 11.851 23.1898 11.8479 23.2114C11.8464 23.222 11.7977 23.2246 11.7907 23.2261C11.7214 23.2412 11.6595 23.2734 11.5926 23.2954C11.5607 23.306 11.5301 23.3133 11.4972 23.3189C11.4708 23.3233 11.4064 23.3361 11.3926 23.3615C11.3881 23.3697 11.3807 23.3779 11.3753 23.3861C11.3611 23.4075 11.3859 23.3881 11.392 23.3876C11.4026 23.3868 11.4161 23.3803 11.4236 23.3728C11.4287 23.3677 11.4548 23.3556 11.4388 23.3566C11.3837 23.3599 11.3497 23.4092 11.3025 23.4304C11.2883 23.4368 11.2689 23.4331 11.2538 23.4349C11.2123 23.4398 11.1739 23.4524 11.135 23.467C11.0645 23.4932 10.994 23.5127 10.9211 23.5299C10.8437 23.5481 10.7711 23.5848 10.6911 23.5943C10.6159 23.6033 10.5417 23.5937 10.468 23.6174C10.4277 23.6303 10.3898 23.6497 10.349 23.6611C10.3244 23.6681 10.2993 23.6733 10.2746 23.6795" stroke="#F8F2EA" stroke-width="0.75" stroke-linecap="round"/>
    <path d="M14.8248 21.3868C14.7944 21.4542 14.7242 21.4704 14.6729 21.5169C14.6385 21.5481 14.6249 21.5916 14.5938 21.6253C14.5729 21.648 14.5511 21.67 14.5313 21.6939C14.5136 21.7152 14.5006 21.7394 14.484 21.7615C14.4533 21.8024 14.4142 21.8367 14.3825 21.8769C14.3526 21.9149 14.3275 21.9589 14.2889 21.9889C14.2363 22.0297 14.1767 22.0618 14.1231 22.1016C14.0764 22.1363 14.0343 22.1753 13.9893 22.212C13.9286 22.2616 13.8515 22.2904 13.7862 22.3343C13.7273 22.3739 13.6749 22.4216 13.615 22.4605C13.5443 22.5064 13.4634 22.5285 13.3915 22.5718C13.3157 22.6174 13.238 22.6563 13.1574 22.6926C13.0649 22.7342 12.9809 22.7893 12.8851 22.8242C12.8411 22.8403 12.7958 22.852 12.7517 22.8678C12.6955 22.8879 12.6429 22.9165 12.5887 22.9414C12.5241 22.9712 12.4548 22.9949 12.3835 23.0018C12.3447 23.0056 12.3058 23.0036 12.2676 23.0124C12.2347 23.0199 12.2021 23.0347 12.1732 23.052C12.1226 23.0822 12.0706 23.1057 12.0156 23.1272C11.9751 23.1431 11.9226 23.1498 11.8884 23.1778C11.8752 23.1886 11.8859 23.187 11.8972 23.1874C11.9187 23.1881 11.9379 23.189 11.9585 23.1817C11.9836 23.1728 12.0054 23.1553 12.0304 23.145C12.0451 23.1389 12.0613 23.125 12.0773 23.1239C12.091 23.123 12.0867 23.1313 12.0958 23.1374C12.1019 23.1414 12.1183 23.1364 12.1241 23.1352C12.1443 23.1311 12.1638 23.1144 12.1817 23.1046C12.2061 23.0912 12.2324 23.0856 12.2585 23.0766C12.2822 23.0684 12.3038 23.0648 12.3274 23.0579C12.3472 23.052 12.3287 23.0564 12.3171 23.0594C12.2526 23.0762 12.1921 23.0918 12.1315 23.1204C12.1091 23.1309 12.0877 23.1425 12.0694 23.1591C12.0662 23.1619 12.0532 23.1698 12.0672 23.162C12.1125 23.1368 12.1612 23.1188 12.2082 23.0973C12.2534 23.0767 12.2945 23.0529 12.3436 23.0419C12.358 23.0386 12.3672 23.0434 12.379 23.0518C12.4074 23.0722 12.3679 23.0505 12.3605 23.0465" stroke="#F8F2EA" stroke-width="0.75" stroke-linecap="round"/>
    <path d="M17.062 9.67728C17.1045 9.75346 17.1475 9.82481 17.1993 9.89437C17.2279 9.93277 17.2438 9.97536 17.2649 10.0177C17.283 10.0541 17.3107 10.0833 17.3325 10.1172C17.356 10.1537 17.3762 10.1922 17.3995 10.2289C17.4201 10.2613 17.4341 10.2961 17.4559 10.3277C17.4819 10.3655 17.5051 10.4044 17.5323 10.4414C17.592 10.5223 17.6254 10.612 17.6633 10.7046C17.7145 10.8295 17.7412 10.9639 17.7949 11.0876C17.8545 11.225 17.944 11.3578 17.9672 11.5082C17.9834 11.6128 17.9926 11.7173 18.0342 11.8159C18.0565 11.8686 18.0884 11.9185 18.1072 11.9724C18.1261 12.0266 18.1298 12.0883 18.1355 12.1453C18.146 12.2506 18.2051 12.343 18.2195 12.4465C18.2292 12.5158 18.2238 12.5857 18.2299 12.6551C18.235 12.7124 18.2577 12.7555 18.276 12.8087C18.2914 12.8532 18.2947 12.9005 18.3019 12.9466C18.3108 13.0044 18.3227 13.0619 18.3302 13.1199C18.3374 13.1764 18.3363 13.2334 18.3437 13.2897C18.348 13.3228 18.3546 13.3552 18.3605 13.388C18.3893 13.5494 18.3693 13.7157 18.3855 13.8781C18.393 13.9532 18.3863 14.0289 18.3955 14.1038C18.4007 14.1458 18.4011 14.1875 18.4011 14.2297C18.4011 14.3182 18.4084 14.4066 18.4084 14.4953C18.4084 14.5469 18.4037 14.598 18.3972 14.6493C18.3866 14.7324 18.3864 14.8161 18.3781 14.8994C18.3625 15.0566 18.3445 15.214 18.3181 15.3698C18.3007 15.4723 18.3116 15.5744 18.2996 15.6772C18.2899 15.7604 18.2922 15.8435 18.2863 15.9269C18.2849 15.9466 18.2778 15.9649 18.272 15.9835C18.2627 16.0126 18.2586 16.0419 18.2527 16.0717C18.2404 16.1337 18.2159 16.193 18.2021 16.2548C18.1886 16.3148 18.1747 16.3746 18.1621 16.4347C18.1585 16.4521 18.1561 16.4706 18.1502 16.4874C18.1475 16.4951 18.1565 16.4722 18.1601 16.4647C18.1696 16.4449 18.18 16.4271 18.1931 16.4094C18.2139 16.3811 18.2246 16.3505 18.2351 16.3171C18.2464 16.2808 18.2609 16.2456 18.2722 16.2092C18.3313 16.0175 18.3847 15.8262 18.4047 15.6258C18.4152 15.522 18.4205 15.4174 18.4322 15.3139C18.4437 15.2122 18.4622 15.1108 18.4767 15.0094C18.4917 14.9049 18.4905 14.8011 18.4959 14.6959C18.5057 14.5079 18.5256 14.3202 18.5375 14.1322C18.5521 13.9018 18.5414 13.6633 18.4962 13.4361C18.4798 13.3543 18.4747 13.271 18.4617 13.1886C18.4393 13.0464 18.4101 12.9053 18.3879 12.763C18.3793 12.7072 18.3709 12.652 18.3531 12.5982C18.3361 12.5467 18.3167 12.4971 18.3035 12.4444C18.2772 12.3388 18.267 12.23 18.2322 12.1266C18.198 12.0252 18.156 11.926 18.1148 11.8274C18.0901 11.7684 18.0679 11.7081 18.04 11.6504C18.0134 11.5956 17.9835 11.5437 17.9621 11.4864C17.9151 11.3608 17.8775 11.2309 17.8354 11.1036C17.8001 10.9967 17.7599 10.8923 17.7203 10.787C17.6851 10.6935 17.6461 10.6034 17.601 10.5142C17.552 10.4172 17.4888 10.3331 17.428 10.2434C17.3582 10.1404 17.2868 10.0371 17.2215 9.93117C17.1705 9.84863 17.1229 9.76767 17.0878 9.67728" stroke="#F8F2EA" stroke-width="0.75" stroke-linecap="round"/>
    <path d="M17.9621 12.1159C17.9496 12.0706 17.9428 12.0236 17.9326 11.9777C17.9168 11.9073 17.8919 11.8396 17.8758 11.7693C17.8519 11.6649 17.8514 11.5612 17.8514 11.455C17.8514 11.4027 17.8891 11.4799 17.9086 11.4829C17.9204 11.4847 17.9253 11.4953 17.9383 11.494C17.9473 11.4932 17.9553 11.4868 17.9639 11.4868C17.9748 11.4868 17.9766 11.4791 17.9799 11.495C17.9891 11.5386 17.9455 11.4129 17.9307 11.3709C17.9181 11.335 17.9081 11.2964 17.9068 11.2582C17.9054 11.2199 17.8911 11.1854 17.8838 11.148C17.8618 11.0349 17.8266 10.9224 17.7797 10.817C17.745 10.739 17.701 10.6653 17.6627 10.589C17.6299 10.5237 17.6006 10.4569 17.5698 10.3907C17.5305 10.3059 17.4784 10.2285 17.4362 10.1452C17.3961 10.0659 17.3486 9.99139 17.3063 9.9133C17.2812 9.86699 17.261 9.81828 17.2354 9.77227C17.2086 9.72419 17.1795 9.67749 17.1518 9.63001C17.0558 9.46592 16.9701 9.29912 16.8591 9.14442" stroke="#F8F2EA" stroke-width="0.75" stroke-linecap="round"/>
    <path d="M18.0662 16.3608C18.0233 16.5623 18.0146 16.7579 17.9951 16.9619C17.9885 17.0308 17.997 17.1117 17.9656 17.1747C17.9187 17.2688 17.824 17.326 17.7731 17.4193C17.7254 17.5067 17.6894 17.6097 17.6551 17.7033C17.6222 17.7929 17.5781 17.8764 17.5424 17.9644C17.4942 18.0836 17.4268 18.2013 17.3992 18.3285C17.3864 18.3876 17.3492 18.4386 17.3281 18.4952C17.3013 18.5673 17.2626 18.6209 17.2221 18.685C17.1505 18.7984 17.0714 18.9303 17.0231 19.0557C16.9842 19.1568 16.8908 19.2284 16.8361 19.3211C16.7955 19.39 16.7772 19.4535 16.7257 19.5142C16.6361 19.6198 16.5997 19.7509 16.5333 19.8695C16.5081 19.9146 16.4657 19.9429 16.4267 19.9748C16.368 20.0229 16.3116 20.0738 16.2599 20.1295C16.1867 20.2083 16.1242 20.2992 16.0609 20.3861C16.0191 20.4436 15.9707 20.4957 15.921 20.5463C15.85 20.6185 15.8138 20.7054 15.7537 20.7843C15.7271 20.8192 15.6847 20.8387 15.6498 20.8638C15.5885 20.9079 15.5404 20.9682 15.4946 21.0278C15.4473 21.0891 15.4071 21.154 15.3442 21.2011C15.2933 21.2392 15.2347 21.2631 15.1797 21.2943C15.0939 21.3429 15.0211 21.4132 14.937 21.4643C14.8617 21.51 14.8094 21.578 14.7281 21.6167C14.6833 21.6381 14.6401 21.667 14.604 21.7012C14.5874 21.717 14.5671 21.7545 14.5433 21.7604C14.5149 21.7676 14.6125 21.7333 14.6308 21.7264C14.6715 21.7111 14.7027 21.6786 14.7423 21.6639C14.7641 21.6558 14.836 21.6113 14.7708 21.6365C14.6896 21.6679 14.6267 21.7032 14.5576 21.756C14.5233 21.7822 14.4771 21.8016 14.4471 21.8317C14.3695 21.9096 14.6091 21.6829 14.6942 21.6135C14.7223 21.5906 14.7571 21.5803 14.7844 21.557C14.8444 21.5057 14.8297 21.4053 14.8386 21.336" stroke="#F8F2EA" stroke-width="0.75" stroke-linecap="round"/>
    <path d="M14.8981 21.1385C14.9108 21.1711 14.9367 21.2156 14.926 21.2516C14.9086 21.3107 14.9079 21.3664 14.9079 21.4284C14.9079 21.4884 14.92 21.5219 14.8746 21.5657C14.828 21.6105 14.7787 21.637 14.7241 21.6689C14.6555 21.7089 14.5878 21.7887 14.5139 21.8127C14.4802 21.8237 14.4604 21.8522 14.4318 21.8709C14.4092 21.8857 14.4175 21.8353 14.4176 21.8325C14.4223 21.7228 14.4356 21.6134 14.445 21.5042" stroke="#F8F2EA" stroke-width="0.75" stroke-linecap="round"/>
    <path d="M18.1251 16.4004C18.1202 16.5266 18.0759 16.6471 18.0759 16.7738C18.0759 16.9207 18.0039 17.0799 17.9501 17.2131C17.8917 17.3577 17.8282 17.5116 17.796 17.6644C17.758 17.8444 17.6839 17.9969 17.6046 18.1618C17.5123 18.3541 17.3961 18.5285 17.2952 18.7157C17.2424 18.8138 17.2038 18.9179 17.1564 19.0184C17.1113 19.114 17.0483 19.1974 16.9847 19.2811C16.8868 19.41 16.786 19.5353 16.6862 19.6623C16.6239 19.7415 16.556 19.8172 16.4954 19.8975C16.4632 19.9402 16.4327 19.9842 16.3998 20.0264C16.3976 20.0291 16.3663 20.0708 16.3549 20.0758C16.3472 20.0792 16.3513 20.0571 16.344 20.0527" stroke="#F8F2EA" stroke-width="0.75" stroke-linecap="round"/>
    <path d="M18.0663 16.4694C18.0642 16.5275 18.0588 16.5864 18.0466 16.6433C18.044 16.6553 18.0239 16.72 18.0565 16.7071C18.0829 16.6966 18.0867 16.6766 18.096 16.6521C18.1049 16.6285 18.1236 16.6199 18.1404 16.6031C18.1668 16.5766 18.1969 16.4214 18.1585 16.5536C18.1353 16.6333 18.1048 16.7141 18.0971 16.7973C18.0912 16.8608 18.082 16.814 18.0663 16.7764" stroke="#F8F2EA" stroke-width="0.75" stroke-linecap="round"/>
    <path d="M21.1071 12.4617C21.1088 12.5129 21.126 12.5571 21.1366 12.6065C21.1547 12.6905 21.1611 12.7752 21.1519 12.8609C21.1352 13.017 21.1169 13.1663 21.1169 13.3238C21.1169 13.5713 21.1207 13.8193 21.1049 14.0663C21.0919 14.2709 21.0677 14.4731 21.0677 14.6784C21.0677 14.7745 21.0565 14.8679 21.048 14.9635C21.0384 15.0725 21.01 15.1787 21.001 15.2871C20.9848 15.484 21.0081 15.679 20.9742 15.8755C20.9579 15.9705 20.9448 16.0659 20.93 16.1612C20.9068 16.3096 20.9071 16.4575 20.8857 16.6054C20.8513 16.8431 20.7839 17.0795 20.7725 17.32C20.7642 17.4946 20.7341 17.6689 20.708 17.8415C20.7016 17.8839 20.6884 17.9168 20.6741 17.9567C20.6584 18.0008 20.6294 18.1445 20.6643 18.0083C20.6991 17.8718 20.7121 17.7201 20.7135 17.5794C20.7139 17.5298 20.7167 17.4822 20.7239 17.433C20.7302 17.3897 20.7726 17.2653 20.7654 17.3085C20.7265 17.5426 20.6414 17.7645 20.6052 17.9995C20.5829 18.1445 20.5337 18.2826 20.4921 18.424C20.441 18.5975 20.4174 18.7836 20.3488 18.951C20.3063 19.0548 20.2589 19.1546 20.2215 19.2608C20.1784 19.3833 20.1356 19.5039 20.0739 19.6184C19.9454 19.8565 19.8548 20.106 19.7076 20.3351C19.6654 20.4007 19.6334 20.472 19.5895 20.5364C19.5315 20.6214 19.4668 20.7035 19.4178 20.7942C19.2173 21.1655 19.0328 21.5614 18.7159 21.8493C18.6235 21.9332 18.5567 22.0313 18.4857 22.1334C18.3949 22.264 18.2805 22.3778 18.1774 22.4986C17.9414 22.7752 17.7085 23.0566 17.4859 23.3442C17.4036 23.4505 17.3288 23.5631 17.2404 23.6645C17.181 23.7326 17.1225 23.8044 17.0742 23.8811C17.0666 23.8932 17.0035 23.9677 17.007 23.9782C17.0089 23.9841 17.0771 23.9451 17.0813 23.942C17.1203 23.9133 17.1384 23.8589 17.16 23.8181C17.3258 23.5058 17.5125 23.1639 17.768 22.9154C17.8773 22.809 17.9821 22.7141 18.0643 22.5841C18.1164 22.5018 18.175 22.4245 18.237 22.3494C18.3933 22.1603 18.5246 21.9421 18.7066 21.7758C18.886 21.6119 19.0526 21.4376 19.1587 21.2153C19.2922 20.9357 19.4407 20.6586 19.6518 20.4295C19.8154 20.252 19.9982 20.0936 20.1602 19.9145C20.2371 19.8295 20.3165 19.6997 20.438 19.6875" stroke="#F8F2EA" stroke-width="0.75" stroke-linecap="round"/>
    <path d="M19.9261 21.178C19.9261 21.2988 19.9182 21.3738 19.8534 21.478C19.8067 21.5531 19.7782 21.6258 19.7632 21.7133C19.7505 21.7871 19.8306 21.6453 19.8408 21.6294C19.8795 21.5687 19.9173 21.5393 19.9808 21.506C19.9879 21.5022 20.0545 21.4526 20.0425 21.4846C20.0277 21.5244 19.9796 21.5615 19.9578 21.6003C19.8905 21.7203 19.8072 21.8246 19.7326 21.9414C19.7074 21.9808 19.5942 22.1255 19.6839 21.9968C19.7686 21.8753 19.835 21.7488 19.9086 21.6211C19.9888 21.4821 20.1332 21.3932 20.229 21.2647C20.3473 21.1057 20.428 20.9343 20.499 20.7503C20.6264 20.4201 20.7232 20.0915 20.7527 19.7368" stroke="#F8F2EA" stroke-width="0.75" stroke-linecap="round"/>
    <path d="M21.1207 12.4295C21.0853 12.4295 21.095 12.374 21.0925 12.3491C21.0903 12.3276 21.0813 12.3236 21.0763 12.3062C21.0679 12.2771 21.0695 12.2092 21.0763 12.284C21.0826 12.3528 21.1116 12.36 21.148 12.4107C21.1588 12.4257 21.1599 12.428 21.1522 12.4047C21.1397 12.3666 21.1261 12.3287 21.113 12.2908" stroke="#F8F2EA" stroke-width="0.75" stroke-linecap="round"/>
    <path d="M21.0437 12.4606C21.0437 12.3937 21.0498 12.3331 21.0591 12.2677" stroke="#F8F2EA" stroke-width="0.75" stroke-linecap="round"/>
    </svg>
    