<svg width="24" height="32" viewBox="0 0 24 32" fill="none" xmlns="http://www.w3.org/2000/svg">
    <path d="M10.2289 12.9171L10.8194 13.1909L10.7601 12.5427C10.6232 11.0479 10.5674 9.54669 10.593 8.0458C10.6223 7.42812 10.7355 6.84253 11.0001 6.41265C11.2497 6.00725 11.648 5.71425 12.3424 5.68494C13.0371 5.65561 13.4393 5.9035 13.7295 6.27742C14.0442 6.68287 14.2349 7.24541 14.4396 7.87756C14.6365 8.53732 14.6286 9.21926 14.6068 9.98827C14.6058 10.0224 14.6048 10.0567 14.6038 10.0912C14.5827 10.8189 14.5594 11.6184 14.7424 12.4522L14.8456 12.9226L15.2764 12.7073C17.351 11.6699 18.0744 9.80336 18.6493 8.05779L18.6501 8.05514C19.0503 6.80897 19.3297 5.51122 19.6019 4.24746C19.6283 4.12481 19.6546 4.00249 19.681 3.88056C19.807 3.31526 20.0032 2.94596 20.2644 2.72878C20.5154 2.52008 20.884 2.40487 21.4667 2.47216L21.4899 2.47484L21.5133 2.47462C21.7478 2.47237 21.9799 2.52231 22.1927 2.62083C22.4055 2.71936 22.5938 2.86401 22.7439 3.04432C22.894 3.22462 23.0021 3.43606 23.0604 3.66335C23.1188 3.89064 23.1259 4.12807 23.0812 4.35845L23.076 4.38516L23.0747 4.41235C22.8316 9.61915 20.9521 13.9506 16.491 16.8806L16.491 16.8806L16.4882 16.8825C16.3876 16.9499 16.2628 17.0063 16.1026 17.0766C16.0957 17.0797 16.0888 17.0827 16.0817 17.0858C15.9383 17.1487 15.7626 17.2256 15.609 17.3261C15.4423 17.435 15.271 17.5903 15.1744 17.8246C15.0771 18.0606 15.0768 18.3253 15.1534 18.6128C15.2311 18.9044 15.3684 19.1346 15.5751 19.29C15.7788 19.4432 16.0081 19.4919 16.2097 19.5022C16.4064 19.5122 16.6073 19.4866 16.7682 19.4656L16.779 19.4642C16.9479 19.4422 17.0723 19.4259 17.1785 19.4285C18.0693 19.4706 18.7404 19.6921 19.1848 20.076C19.6178 20.4502 19.8858 21.0225 19.8863 21.8848C19.8866 22.3093 19.8039 22.6151 19.6794 22.8381C19.5562 23.0586 19.3799 23.2201 19.1548 23.339C18.6868 23.5862 18.0188 23.6441 17.2593 23.6086C16.7534 23.585 16.2971 23.6382 16.0079 23.9887C15.8713 24.1542 15.8011 24.3534 15.7597 24.5548C15.7184 24.7556 15.7001 24.9886 15.6882 25.2432L15.6871 25.266L15.6888 25.2887C15.7579 26.2131 15.6349 27.1419 15.3277 28.0165C15.0214 28.8886 14.5384 29.688 13.9091 30.3648C13.2826 30.9811 12.8719 31.1207 12.6074 31.0678C12.3423 31.0148 12.0157 30.7265 11.6736 29.9113L11.6678 29.8974L11.6608 29.884C11.3767 29.3353 11.2123 28.7327 11.1782 28.1158C11.2234 27.1405 11.2371 26.155 10.8666 25.3494C10.4731 24.494 9.686 23.9094 8.31301 23.6429C7.94168 23.569 7.64879 23.2608 7.46036 22.74C7.27341 22.2232 7.22138 21.57 7.29049 20.9804C7.31989 20.7297 7.39924 20.5828 7.48994 20.4849C7.58552 20.3817 7.72111 20.3031 7.91008 20.2359C8.06914 20.1793 8.23932 20.1391 8.43356 20.0931C8.47733 20.0828 8.52233 20.0721 8.56869 20.0609C8.80636 20.0036 9.07572 19.9327 9.32259 19.8105C9.36783 19.789 9.44824 19.7755 9.60543 19.7794C9.6399 19.7802 9.68265 19.7823 9.73025 19.7847C9.85242 19.7907 10.0065 19.7984 10.1346 19.7901C10.3311 19.7775 10.5818 19.7271 10.7832 19.5287C10.9837 19.3311 11.0722 19.0494 11.091 18.7165L11.091 18.7165L11.0912 18.7128C11.104 18.4372 11.0613 18.1947 10.9596 17.9843C10.8575 17.773 10.7077 17.6182 10.5435 17.5011C10.3831 17.3867 10.2056 17.3059 10.0423 17.2411C9.95978 17.2084 9.87627 17.178 9.79749 17.1496L9.7786 17.1427C9.70534 17.1162 9.63631 17.0913 9.56845 17.0651C5.07671 15.3268 2.79156 11.8265 1.79736 7.24166L1.79744 7.24164L1.79558 7.23386C1.4423 5.75745 1.51425 4.21113 2.00306 2.77393C2.03387 2.6876 2.06085 2.60776 2.08685 2.53079C2.12748 2.41053 2.16574 2.2973 2.21252 2.17734C2.28545 1.99035 2.3614 1.83769 2.45286 1.71972C2.54051 1.60666 2.64063 1.52758 2.76935 1.48129C2.90129 1.43384 3.09149 1.41081 3.37302 1.45763C4.01875 1.56502 4.42591 1.70482 4.6817 1.92375C4.91503 2.12345 5.07353 2.43563 5.09635 3.03209C5.19219 6.20209 6.69187 8.79457 8.37345 11.2083C8.79869 11.9573 9.44734 12.5548 10.2289 12.9171Z" fill="#060606" stroke="#F8F2EA" stroke-width="0.75"/>
    </svg>
    