<svg width="30" height="35" viewBox="0 0 30 35" fill="none" xmlns="http://www.w3.org/2000/svg">
    <path d="M4.9407 9.96284L4.94208 9.96236C5.31508 9.83579 5.65558 9.81705 5.96222 9.90364C6.26817 9.99005 6.50343 10.1709 6.68462 10.3796C6.9917 10.7333 7.18136 11.2194 7.31882 11.5717C7.33558 11.6146 7.35156 11.6556 7.36688 11.6941L7.36715 11.6947C8.18448 13.7591 9.43673 15.0836 10.9764 15.9011C12.5257 16.7237 14.3924 17.0467 16.4521 17.0544L16.4635 17.0544L16.4635 17.0546C17.8729 17.1025 19.2605 16.7448 20.4552 16.0268C21.6498 15.3089 22.5993 14.2622 23.1876 13.0166L23.1927 13.006L23.1984 12.9957C23.4162 12.6008 23.6297 12.1951 23.8452 11.7858C24.253 11.0111 24.6677 10.2232 25.1321 9.46967C25.344 9.11493 25.6393 8.72509 26.0262 8.47193C26.4309 8.20705 26.9346 8.09555 27.4956 8.31834C27.9774 8.50114 28.3874 8.83394 28.6617 9.26703C28.9313 9.69266 29.0552 10.1921 29.0137 10.691C29.0594 11.5088 28.9333 12.3257 28.6431 13.0908L28.6332 13.1171L28.6194 13.1416C28.4115 13.5116 28.2071 13.8872 28.0018 14.2646C26.4507 17.1157 24.8444 20.0682 21.2024 21.4931L21.2022 21.4931C20.8472 21.6318 20.6755 21.8104 20.591 21.9857C20.503 22.1685 20.4833 22.4029 20.5373 22.6957C20.6481 23.2965 21.0363 23.9865 21.4051 24.5999C21.8636 25.3454 22.1304 26.1887 22.1813 27.0561C22.2323 27.9242 22.0654 28.7893 21.6954 29.5754C21.3254 30.3615 20.7638 31.0439 20.0605 31.5632C19.3602 32.0802 18.5408 32.4197 17.6739 32.553C16.5913 32.7805 15.4579 32.6112 14.4862 32.0772C13.5133 31.5425 12.768 30.6781 12.3929 29.6453C11.9784 28.6161 11.9099 27.4858 12.1989 26.421C12.4885 25.354 13.1211 24.4112 14.002 23.7315L4.9407 9.96284ZM4.9407 9.96284C4.62309 10.072 4.38087 10.2394 4.21448 10.4668C4.0501 10.6914 3.98298 10.943 3.95893 11.1811C3.93528 11.4151 3.95157 11.6571 3.97029 11.8733C3.97438 11.9207 3.97858 11.9667 3.98268 12.0116C3.99826 12.1826 4.01241 12.3377 4.01429 12.4906M4.9407 9.96284L4.01429 12.4906M4.01429 12.4906C4.05634 17.6601 8.55827 21.5404 13.8095 22.5482C13.9993 22.6302 14.2142 22.6412 14.379 22.6423C14.4773 22.6429 14.5791 22.6394 14.6734 22.6362L14.675 22.6362C14.7726 22.6329 14.8634 22.6298 14.9513 22.63C15.1341 22.6305 15.2608 22.6463 15.3446 22.679C15.4083 22.7038 15.4344 22.7311 15.4524 22.7858C15.5115 22.9652 15.4775 23.0272 15.464 23.0487C15.4371 23.0917 15.3687 23.1514 15.206 23.2221C15.0916 23.2718 14.9713 23.3112 14.8332 23.3564C14.7725 23.3763 14.7084 23.3973 14.6399 23.4208C14.4385 23.4898 14.196 23.5818 14.0021 23.7314L4.01429 12.4906ZM17.2084 27.112L17.3557 27.2137L17.5274 27.1631C17.9006 27.0531 18.1205 27.0691 18.211 27.1162C18.2383 27.1305 18.2586 27.1489 18.2743 27.1961C18.2939 27.2546 18.308 27.3673 18.2735 27.5617L18.2734 27.5617L18.2722 27.5696C18.2218 27.8943 18.0421 28.1861 17.7701 28.3807C17.4978 28.5755 17.1548 28.6571 16.8157 28.6047L16.8129 28.6043C16.4879 28.5567 16.33 28.3873 16.249 28.1532C16.1581 27.8907 16.1658 27.5346 16.2534 27.1832L16.2536 27.1832L16.2565 27.1698C16.3108 26.912 16.3789 26.8008 16.4185 26.7586C16.4412 26.7344 16.4541 26.7291 16.4911 26.7316C16.5495 26.7355 16.6428 26.7645 16.7795 26.8382C16.9122 26.9097 17.0535 27.0052 17.2084 27.112ZM12.5552 18.5717C13.0398 18.66 13.4702 18.7804 13.8749 18.9962C13.4215 18.8986 12.9794 18.7563 12.5552 18.5717Z" fill="#060606" stroke="#F8F2EA" stroke-width="0.75"/>
    <path d="M14.8539 15.009C13.3105 14.6238 11.969 13.5638 11.0913 12.2764C10.2154 10.9916 9.76811 9.42917 10.0951 8.01925L10.0952 8.01879C10.9561 4.32811 14.4606 2.41806 18.2534 3.44517M14.8539 15.009L18.1554 3.80713M14.8539 15.009C16.5053 15.438 18.3632 14.9014 19.8835 13.8479C21.4076 12.7919 22.6529 11.1767 23.0554 9.35213M14.8539 15.009L22.6897 9.26941M18.2534 3.44517L18.1554 3.80713M18.2534 3.44517C18.2533 3.44513 18.2532 3.4451 18.253 3.44506L18.1554 3.80713M18.2534 3.44517C19.6961 3.83432 21.0095 4.74961 21.9048 5.82774C22.7901 6.89378 23.3238 8.19364 23.0554 9.35213M18.1554 3.80713C20.8761 4.54084 23.1523 7.27982 22.6897 9.26941M23.0554 9.35213C23.0556 9.35144 23.0557 9.35075 23.0559 9.35007L22.6897 9.26941M23.0554 9.35213C23.0552 9.35287 23.0551 9.35361 23.0549 9.35435L22.6897 9.26941M14.9926 9.48773L14.9927 9.48773L14.9933 9.48217C15.0724 8.75888 15.3988 8.2975 15.8835 8.04985C16.3714 7.80064 17.078 7.73844 17.9777 7.94777C18.1845 8.11587 18.4394 8.19199 18.6469 8.24133C18.7417 8.26389 18.842 8.28395 18.9353 8.30258C18.9632 8.30815 18.9904 8.3136 19.0167 8.31895C19.1362 8.34327 19.2441 8.36714 19.3435 8.39696C19.5449 8.45736 19.6695 8.53045 19.7461 8.62916C19.8177 8.72147 19.8893 8.89109 19.8649 9.23583C19.8482 9.36532 19.7196 9.59135 19.4018 9.88202C19.0976 10.1602 18.6794 10.4436 18.2179 10.6901C17.7574 10.9361 17.2679 11.1376 16.8272 11.2587C16.3734 11.3834 16.0216 11.4087 15.8104 11.3561C15.324 11.2349 15.1217 10.9815 15.0258 10.6834C14.9179 10.348 14.9378 9.92765 14.9926 9.48773Z" fill="#060606" stroke="black" stroke-width="0.75"/>
    <path d="M17.4875 26.6214C18.2811 26.4078 18.9081 26.543 18.7522 27.4429C18.6899 27.8579 18.4532 28.2271 18.0939 28.4697C17.7347 28.7122 17.282 28.8084 16.835 28.7371C15.8583 28.5886 15.7601 27.6571 15.9185 26.8843C16.1528 25.7614 16.8523 26.1994 17.4875 26.6214Z" fill="#F8F2EA"/>
    <path d="M13.0344 18.43C13.0203 18.4298 13.0222 18.4285 13.0063 18.438C12.9801 18.4536 12.954 18.4748 12.9369 18.4997C12.9267 18.5146 12.9232 18.5326 12.9184 18.5496C12.9142 18.5642 12.9102 18.5789 12.9062 18.5935C12.8975 18.625 12.8855 18.655 12.8754 18.686C12.8682 18.7082 12.8655 18.7318 12.8603 18.7545C12.8557 18.7745 12.8522 18.7944 12.8486 18.8146C12.8444 18.8378 12.8375 18.8605 12.8333 18.8837C12.8303 18.9 12.8281 18.9163 12.8233 18.9323C12.8229 18.9333 12.8181 18.9451 12.8209 18.9408" stroke="#F8F2EA" stroke-width="0.75" stroke-linecap="round"/>
    <path d="M13.3575 19.2492C13.3348 19.2422 13.3125 19.2337 13.2895 19.2278C13.2767 19.2246 13.2654 19.222 13.2539 19.2156C13.2358 19.2055 13.216 19.2015 13.1958 19.1968C13.1789 19.1928 13.1617 19.1918 13.1448 19.1882C13.1255 19.1841 13.1062 19.1791 13.0871 19.174C13.0514 19.1646 13.0202 19.1453 12.9855 19.1332C12.9455 19.1193 12.9068 19.1016 12.8668 19.0878C12.8171 19.0706 12.763 19.0686 12.7143 19.0483C12.6748 19.0318 12.6346 19.0163 12.5953 18.9993C12.579 18.9923 12.5637 18.9836 12.5475 18.9764C12.5196 18.9641 12.4951 18.9454 12.4664 18.9349C12.4428 18.9262 12.4193 18.9175 12.3962 18.9074C12.3692 18.8955 12.3442 18.8798 12.3182 18.866C12.2904 18.8512 12.2618 18.8357 12.2322 18.8245C12.2083 18.8153 12.1825 18.8115 12.1583 18.8028C12.1336 18.794 12.1103 18.7836 12.0878 18.7704C12.0615 18.755 12.0341 18.7455 12.0058 18.7342C11.9776 18.7229 11.9518 18.707 11.9242 18.6944C11.8872 18.6775 11.8475 18.6623 11.8132 18.6406C11.7863 18.6236 11.7617 18.6046 11.7333 18.59C11.7131 18.5795 11.6923 18.57 11.6721 18.5595C11.6645 18.5555 11.6574 18.5511 11.6502 18.5465C11.6377 18.5386 11.6243 18.5323 11.6114 18.525C11.5856 18.5104 11.5605 18.4932 11.5359 18.4767C11.4749 18.4361 11.4132 18.3964 11.3553 18.3518C11.3083 18.3156 11.2602 18.2808 11.2157 18.2418C11.1586 18.1919 11.1054 18.138 11.05 18.0864" stroke="#F8F2EA" stroke-width="0.75" stroke-linecap="round"/>
    <path d="M13.362 19.2446C13.377 19.2472 13.3906 19.2489 13.4057 19.2481C13.4247 19.2472 13.4422 19.247 13.4612 19.2499C13.4872 19.2538 13.5129 19.2602 13.5388 19.2646" stroke="#F8F2EA" stroke-width="0.75" stroke-linecap="round"/>
    <path d="M13.357 19.2434C13.3985 19.248 13.4406 19.2505 13.4809 19.2622C13.5131 19.2715 13.5447 19.2818 13.5773 19.2897C13.6371 19.3043 13.697 19.3182 13.7567 19.3331" stroke="#F8F2EA" stroke-width="0.75" stroke-linecap="round"/>
    <path d="M13.3608 19.249C13.3851 19.2597 13.4152 19.2609 13.4409 19.2662C13.4638 19.2709 13.4867 19.2757 13.5094 19.2812C13.5309 19.2864 13.5509 19.2943 13.5717 19.3017C13.6103 19.3153 13.6499 19.3208 13.6899 19.3278C13.7515 19.3387 13.8107 19.359 13.8718 19.372C13.9442 19.3874 14.0177 19.396 14.0891 19.4161C14.1532 19.4342 14.2166 19.4483 14.2831 19.4534C14.3166 19.456 14.3501 19.4578 14.3836 19.4604C14.4265 19.4637 14.469 19.4691 14.5117 19.4744C14.6054 19.4861 14.6991 19.4867 14.7931 19.4884" stroke="#F8F2EA" stroke-width="0.75" stroke-linecap="round"/>
    <path d="M15.1257 19.5214C15.0979 19.517 15.0703 19.521 15.0425 19.5201C15.0278 19.5197 15.0133 19.5206 14.9986 19.5205C14.9797 19.5205 14.961 19.5173 14.9422 19.5147C14.8995 19.509 14.8573 19.4998 14.8151 19.491C14.7878 19.4853 14.7626 19.4778 14.7348 19.4806" stroke="#F8F2EA" stroke-width="0.75" stroke-linecap="round"/>
    <path d="M14.8842 19.5054C14.8618 19.4957 14.8409 19.4896 14.8164 19.488C14.8028 19.4871 14.7891 19.4867 14.7754 19.486" stroke="#F8F2EA" stroke-width="0.75" stroke-linecap="round"/>
    <path d="M14.8232 19.4948C14.8012 19.4968 14.7769 19.4932 14.7549 19.4905C14.7343 19.4879 14.7137 19.4876 14.6932 19.484" stroke="#F8F2EA" stroke-width="0.75" stroke-linecap="round"/>
    <path d="M14.8866 19.5039C14.8609 19.4987 14.8351 19.4934 14.8091 19.4908" stroke="#F8F2EA" stroke-width="0.75" stroke-linecap="round"/>
    <path d="M14.8621 19.4978C14.8403 19.4977 14.8215 19.4917 14.8003 19.4875" stroke="#F8F2EA" stroke-width="0.75" stroke-linecap="round"/>
    <path d="M15.1169 19.5139C15.1093 19.5105 15.1034 19.5007 15.0986 19.4945C15.0884 19.4818 15.0791 19.4692 15.0674 19.4577C15.0554 19.4461 15.0436 19.4342 15.0316 19.4226C15.01 19.4019 14.9859 19.3844 14.9626 19.3657C14.9425 19.3495 14.925 19.3307 14.9055 19.3138C14.8834 19.2947 14.859 19.2782 14.8355 19.2607C14.8285 19.2554 14.8215 19.2499 14.8163 19.243C14.812 19.2373 14.8092 19.2308 14.805 19.225C14.7895 19.2036 14.7669 19.1869 14.7468 19.1697" stroke="#F8F2EA" stroke-width="0.75" stroke-linecap="round"/>
    <path d="M14.9331 19.3292C14.9 19.2987 14.8687 19.2665 14.8373 19.2344C14.8063 19.2026 14.7695 19.1778 14.7365 19.1481C14.7174 19.1309 14.6998 19.1123 14.6805 19.0953C14.6372 19.0572 14.5881 19.0236 14.5397 18.992C14.482 18.9543 14.4205 18.9226 14.364 18.8833C14.3145 18.8488 14.2681 18.8111 14.2162 18.7798C14.1901 18.7641 14.1636 18.7489 14.1364 18.7351C13.9841 18.6577 14.0889 18.7182 13.9268 18.6426" stroke="#F8F2EA" stroke-width="0.75" stroke-linecap="round"/>
    <path d="M14.9679 19.3647C14.9483 19.344 14.9275 19.3245 14.9067 19.3048" stroke="#F8F2EA" stroke-width="0.75" stroke-linecap="round"/>
    <path d="M14.925 19.3293L15.0028 19.3933" stroke="#F8F2EA" stroke-width="0.75" stroke-linecap="round"/>
    <path d="M15.0201 19.4109C15.0022 19.3989 14.9868 19.3844 14.9705 19.3706" stroke="#F8F2EA" stroke-width="0.75" stroke-linecap="round"/>
    <path d="M15.0259 19.4152C15.0165 19.4072 15.0072 19.3991 14.998 19.3909" stroke="#F8F2EA" stroke-width="0.75" stroke-linecap="round"/>
    <path d="M10.8195 17.9746C10.8098 17.971 10.8003 17.965 10.7933 17.9575C10.793 17.9571 10.7851 17.9452 10.7865 17.9453C10.811 17.9474 10.8349 17.9535 10.8589 17.9588C10.8713 17.9615 10.8839 17.963 10.8963 17.966C10.9062 17.9684 10.9162 17.9718 10.9264 17.9727C10.938 17.9737 10.9496 17.9731 10.9612 17.9749C10.9735 17.9768 10.9855 17.9786 10.9979 17.9791" stroke="#F8F2EA" stroke-width="0.75" stroke-linecap="round"/>
    <path d="M11.2763 18.2838C11.2243 18.26 11.1793 18.2248 11.1332 18.1919C11.1216 18.1837 11.1116 18.1739 11.1006 18.1651C11.0926 18.1588 11.084 18.1552 11.0749 18.1507C11.053 18.1399 11.0337 18.1229 11.0161 18.1066C11.0069 18.0982 10.9989 18.0887 10.9892 18.0808C10.9803 18.0735 10.97 18.0686 10.9603 18.0625C10.9515 18.0568 10.9435 18.0501 10.9354 18.0435C10.9264 18.036 10.9169 18.0305 10.9069 18.0244C10.8974 18.0187 10.8884 18.0121 10.8786 18.0068C10.8702 18.0023 10.8611 17.9994 10.8527 17.9948C10.8375 17.9864 10.8239 17.9765 10.8079 17.9695" stroke="#F8F2EA" stroke-width="0.75" stroke-linecap="round"/>
    <path d="M14.491 18.954C14.4758 18.9486 14.4619 18.9385 14.4477 18.9312C14.4332 18.9238 14.4182 18.9183 14.4033 18.9119C14.3928 18.9074 14.3831 18.9012 14.3726 18.8967" stroke="#F8F2EA" stroke-width="0.75" stroke-linecap="round"/>
    <path d="M14.4865 18.9563C14.481 18.9537 14.4763 18.9493 14.4715 18.9457C14.4601 18.9371 14.4483 18.929 14.4378 18.9194C14.426 18.9085 14.4145 18.8973 14.4015 18.8877C14.3728 18.8664 14.34 18.8513 14.311 18.8304C14.2791 18.8074 14.2455 18.7847 14.2097 18.7675C14.1763 18.7515 14.1434 18.7325 14.1077 18.7219C14.0864 18.7156 14.0644 18.7128 14.0431 18.7067C14.0154 18.6988 13.9895 18.6864 13.9631 18.6749" stroke="#F8F2EA" stroke-width="0.75" stroke-linecap="round"/>
    <path d="M14.5472 19.0014C14.5391 18.9946 14.5312 18.9876 14.5229 18.9811C14.5153 18.9753 14.5068 18.9708 14.4995 18.9648C14.4928 18.9594 14.4858 18.9557 14.479 18.9509" stroke="#F8F2EA" stroke-width="0.75" stroke-linecap="round"/>
    <path d="M14.5378 19.0133C14.5508 19.025 14.5593 19.0396 14.5736 19.0504C14.5913 19.0638 14.6111 19.0748 14.6276 19.0896C14.6628 19.1211 14.703 19.1483 14.7441 19.1723" stroke="#F8F2EA" stroke-width="0.75" stroke-linecap="round"/>
    <path d="M14.798 19.2593C14.7797 19.2312 14.7505 19.2079 14.7241 19.187C14.7081 19.1743 14.6926 19.1608 14.6762 19.1485C14.6355 19.1179 14.5916 19.0915 14.5488 19.0637" stroke="#F8F2EA" stroke-width="0.75" stroke-linecap="round"/>
    <path d="M14.1388 18.7383C14.1201 18.7337 14.106 18.7212 14.0906 18.7111" stroke="#F8F2EA" stroke-width="0.75" stroke-linecap="round"/>
    <path d="M14.1341 18.7327C14.1183 18.7274 14.1015 18.7175 14.0889 18.7073" stroke="#F8F2EA" stroke-width="0.75" stroke-linecap="round"/>
    <path d="M14.1328 18.7271C14.118 18.7195 14.1027 18.7103 14.0892 18.7007C14.0827 18.6961 14.076 18.6911 14.0687 18.6877C14.057 18.6823 14.0445 18.6803 14.0334 18.6733C14.025 18.6679 14.0176 18.6614 14.0086 18.6568C13.9957 18.6503 13.9829 18.6435 13.9699 18.6372C13.9587 18.6318 13.9468 18.6281 13.9356 18.6229C13.9227 18.6169 13.9105 18.6094 13.8975 18.6033C13.8711 18.5909 13.843 18.5818 13.8167 18.5692C13.7814 18.5523 13.745 18.5362 13.711 18.5168C13.6739 18.4955 13.6358 18.4799 13.5951 18.4661C13.5336 18.4452 13.4764 18.4147 13.417 18.3892C13.3949 18.3797 13.3718 18.373 13.3489 18.3659C13.3141 18.3552 13.2797 18.3436 13.2461 18.3298C13.1924 18.3079 13.1382 18.2918 13.0819 18.2778C13.0303 18.2649 12.979 18.2495 12.927 18.2388C12.8622 18.2256 12.796 18.2188 12.7317 18.2034C12.6757 18.1899 12.6198 18.1804 12.5624 18.1757C12.5251 18.1727 12.4879 18.1708 12.4507 18.1667C12.4141 18.1627 12.378 18.156 12.3418 18.1493C12.3153 18.1444 12.2887 18.1391 12.2621 18.1349C12.2208 18.1283 12.1794 18.1239 12.1385 18.1147C12.0777 18.1011 12.0151 18.1029 11.9533 18.0975" stroke="#F8F2EA" stroke-width="0.75" stroke-linecap="round"/>
    <path d="M13.3278 18.3879C13.2914 18.3756 13.2577 18.3583 13.2223 18.3439C13.1954 18.3329 13.1679 18.3234 13.1408 18.3131C13.1169 18.304 13.0937 18.2932 13.0695 18.2847C13.0445 18.2759 13.0189 18.2682 12.9935 18.2607C12.97 18.2538 12.9464 18.2481 12.9231 18.2405C12.8992 18.2327 12.8756 18.231 12.8509 18.2283C12.8032 18.223 12.7557 18.2154 12.7081 18.2082C12.6625 18.2014 12.6173 18.1969 12.5713 18.1938" stroke="#F8F2EA" stroke-width="0.75" stroke-linecap="round"/>
    <path d="M13.0127 18.2913C12.965 18.2709 12.9171 18.2494 12.8662 18.2376C12.8409 18.2317 12.815 18.2283 12.7893 18.2248" stroke="#F8F2EA" stroke-width="0.75" stroke-linecap="round"/>
    <path d="M13.0526 18.2949C12.9894 18.277 12.9267 18.2577 12.8638 18.239" stroke="#F8F2EA" stroke-width="0.75" stroke-linecap="round"/>
    <path d="M13.9143 19.3259C13.8838 19.3212 13.8536 19.3169 13.823 19.3145C13.7856 19.3116 13.7483 19.3103 13.7112 19.3034C13.6568 19.2932 13.6036 19.2751 13.5509 19.2586" stroke="#F8F2EA" stroke-width="0.75" stroke-linecap="round"/>
    <path d="M14.462 19.2194C14.2366 19.1453 14.012 19.069 13.7865 18.9953C13.6394 18.9471 13.4912 18.9032 13.3422 18.861C13.1792 18.8148 13.0169 18.7672 12.8556 18.7153C12.7193 18.6716 12.5836 18.6262 12.4478 18.5811" stroke="#F8F2EA" stroke-width="0.75" stroke-linecap="round"/>
    <path d="M18.4106 28.1599L18.4177 28.1617" stroke="#F8F2EA" stroke-width="0.75" stroke-linecap="round"/>
    <path d="M15.8879 27.1538C15.8868 27.1698 15.8847 27.1866 15.8806 27.2021C15.8787 27.2089 15.8756 27.2152 15.8731 27.2218C15.87 27.23 15.8694 27.237 15.8689 27.2458C15.8672 27.2768 15.8504 27.3056 15.8536 27.337C15.8558 27.3592 15.8558 27.3783 15.8477 27.3992C15.8417 27.415 15.8398 27.4299 15.8383 27.4465C15.836 27.4713 15.8343 27.4962 15.8314 27.521C15.8284 27.546 15.8231 27.5704 15.8207 27.5956C15.8176 27.6269 15.8149 27.658 15.8136 27.6895C15.8125 27.716 15.8128 27.7426 15.811 27.7691C15.8092 27.7944 15.8061 27.8194 15.8077 27.8448C15.8098 27.8767 15.8102 27.9087 15.8127 27.9406C15.8139 27.9543 15.8171 27.968 15.8185 27.9818C15.8202 27.999 15.8215 28.0164 15.8253 28.0334C15.8279 28.045 15.8325 28.0557 15.8343 28.0674C15.8364 28.0813 15.8372 28.0952 15.8388 28.1091C15.8401 28.1207 15.843 28.1309 15.8464 28.1421C15.8508 28.1565 15.8512 28.172 15.8527 28.1869C15.8566 28.2259 15.8764 28.2603 15.8871 28.2976C15.8918 28.3142 15.8962 28.3304 15.9051 28.3455C15.9167 28.3653 15.9245 28.3867 15.9338 28.4075C15.9424 28.4267 15.9517 28.4447 15.9632 28.4625C15.9763 28.4828 15.9867 28.5044 15.9999 28.5246C16.0187 28.5534 16.0405 28.5811 16.0633 28.6072C16.0844 28.6314 16.1101 28.6514 16.1349 28.672C16.1567 28.6902 16.1777 28.7091 16.1994 28.7273C16.2171 28.7421 16.2359 28.7548 16.2529 28.7706C16.2682 28.7847 16.2849 28.7954 16.3027 28.8064C16.3158 28.8144 16.3291 28.8217 16.3425 28.8291C16.3521 28.8344 16.3627 28.8387 16.3717 28.8449C16.3859 28.8545 16.399 28.8638 16.4147 28.8713C16.4363 28.8817 16.4587 28.8913 16.481 28.9001C16.514 28.9131 16.5451 28.9298 16.5791 28.94C16.6231 28.9533 16.6683 28.9646 16.7132 28.975C16.7499 28.9836 16.7884 28.9868 16.8259 28.99C16.8605 28.9929 16.8944 28.9879 16.9289 28.989C16.9429 28.9894 16.9567 28.9922 16.9707 28.9925C16.9869 28.9929 17.0033 28.9915 17.0195 28.9911C17.0405 28.9907 17.0615 28.9896 17.0824 28.9899C17.1076 28.9902 17.1327 28.9925 17.1578 28.9913C17.2404 28.9876 17.3195 28.9622 17.3999 28.947C17.4941 28.9291 17.5868 28.9027 17.6728 28.8625C17.7165 28.8421 17.7609 28.8229 17.8033 28.8002C17.8207 28.7908 17.8386 28.782 17.8556 28.772C17.8679 28.7648 17.8795 28.7564 17.8918 28.7491C17.9312 28.7257 17.9689 28.6986 18.0033 28.669C18.0489 28.6297 18.0993 28.5961 18.1443 28.5562C18.1688 28.5344 18.1931 28.5127 18.2185 28.4918C18.2453 28.4696 18.2728 28.4481 18.2965 28.4226C18.3159 28.4016 18.3321 28.3783 18.3487 28.3552C18.3656 28.3316 18.3828 28.3082 18.3987 28.284C18.4094 28.2677 18.4213 28.2516 18.4307 28.2346C18.4394 28.2187 18.4466 28.2022 18.4556 28.1865C18.4761 28.1507 18.4974 28.1142 18.5135 28.0763C18.528 28.0419 18.5355 28.005 18.5491 27.9702C18.5557 27.9535 18.5633 27.9369 18.5677 27.9195C18.5704 27.9086 18.5716 27.8973 18.5729 27.8861" stroke="#F8F2EA" stroke-width="0.75" stroke-linecap="round"/>
    <path d="M18.5019 28.0637C18.4979 28.0748 18.493 28.0857 18.4881 28.0964C18.4799 28.1145 18.4662 28.1271 18.4521 28.1409C18.4355 28.1571 18.4198 28.1765 18.4096 28.1972C18.3996 28.2175 18.3939 28.2401 18.3851 28.261" stroke="#F8F2EA" stroke-width="0.75" stroke-linecap="round"/>
    <path d="M18.4395 28.1689C18.4347 28.1835 18.4261 28.1961 18.4179 28.209C18.4085 28.2238 18.4016 28.2399 18.3945 28.2558" stroke="#F8F2EA" stroke-width="0.75" stroke-linecap="round"/>
    <path d="M18.4564 28.1342L18.448 28.158" stroke="#F8F2EA" stroke-width="0.75" stroke-linecap="round"/>
    <path d="M18.4358 28.1657C18.4204 28.1827 18.4128 28.205 18.399 28.2231C18.3886 28.2366 18.3749 28.2471 18.3606 28.2566C18.3304 28.2765 18.3013 28.2964 18.274 28.32C18.1969 28.3866 18.1275 28.4601 18.0434 28.519C17.9332 28.5962 17.8113 28.6535 17.6886 28.7103" stroke="#F8F2EA" stroke-width="0.75" stroke-linecap="round"/>
    <path d="M18.2838 28.2523C18.2783 28.2616 18.2727 28.2709 18.2645 28.2783C18.2605 28.2819 18.2557 28.2846 18.2517 28.2882C18.2429 28.2959 18.2347 28.3047 18.2284 28.3144C18.219 28.3289 18.2138 28.3454 18.2046 28.3601C18.1963 28.3733 18.1861 28.3849 18.1757 28.3967C18.1673 28.4062 18.1601 28.4166 18.1518 28.4262C18.1396 28.4405 18.1269 28.4539 18.113 28.4667C18.0992 28.4793 18.0825 28.4891 18.0667 28.4991C18.0557 28.5061 18.0509 28.5152 18.0423 28.5243C18.0366 28.5303 18.0301 28.5355 18.0248 28.5419C18.0229 28.5442 18.0223 28.5471 18.0265 28.5454C18.0346 28.542 18.0396 28.5351 18.0449 28.5289C18.0501 28.5227 18.0571 28.5219 18.0632 28.5172C18.0719 28.5104 18.0795 28.5011 18.0871 28.4932C18.0927 28.4875 18.0996 28.4833 18.105 28.4775C18.117 28.4644 18.1227 28.4519 18.1412 28.4465C18.1462 28.4451 18.1501 28.4451 18.1421 28.4468C18.1412 28.4469 18.1297 28.45 18.1353 28.4528C18.139 28.4546 18.1387 28.4562 18.137 28.4598C18.1345 28.4653 18.1421 28.4566 18.1426 28.4561C18.1476 28.4513 18.1525 28.4461 18.158 28.4418C18.1692 28.433 18.176 28.4239 18.1843 28.4126C18.1905 28.4042 18.1994 28.3975 18.2063 28.3896C18.2247 28.3684 18.2429 28.3486 18.2653 28.3314C18.2758 28.3233 18.2851 28.3132 18.2928 28.3027C18.2992 28.294 18.3036 28.2841 18.3101 28.2755C18.3142 28.2701 18.3185 28.2647 18.3228 28.2593C18.3241 28.2577 18.3352 28.2456 18.3302 28.2502C18.3296 28.2508 18.3244 28.2566 18.3239 28.2562C18.3231 28.2557 18.331 28.2471 18.3317 28.2464C18.333 28.2451 18.3352 28.2431 18.3372 28.2428C18.3381 28.2426 18.328 28.2589 18.328 28.259C18.3143 28.2804 18.2994 28.3008 18.2852 28.3218C18.2761 28.3354 18.2706 28.3509 18.2616 28.3646C18.2499 28.3824 18.2337 28.3984 18.2171 28.4122" stroke="#F8F2EA" stroke-width="0.75" stroke-linecap="round"/>
    <path d="M18.0094 28.5585C17.9934 28.5708 17.9811 28.5863 17.9636 28.597C17.9463 28.6076 17.9322 28.6216 17.9168 28.6344C17.9011 28.6474 17.8825 28.6569 17.8636 28.6652C17.8446 28.6735 17.8315 28.6889 17.8143 28.6997C17.7914 28.7142 17.7672 28.7268 17.744 28.7409C17.7224 28.7541 17.703 28.7719 17.6803 28.7832C17.6561 28.7953 17.6287 28.8022 17.6032 28.8117C17.5781 28.821 17.5521 28.8273 17.5263 28.8351C17.5115 28.8396 17.498 28.8458 17.4841 28.8523C17.4669 28.8603 17.4485 28.8657 17.4303 28.8714C17.4153 28.8761 17.4002 28.881 17.3848 28.8846C17.3576 28.8911 17.3286 28.8902 17.3006 28.8902C17.2637 28.8901 17.2261 28.8896 17.1903 28.8988C17.1569 28.9075 17.1216 28.9099 17.0872 28.9135C17.0635 28.9161 17.0406 28.9112 17.0169 28.911C16.9968 28.9108 16.9766 28.9121 16.9565 28.9127C16.9354 28.9133 16.9147 28.9118 16.8938 28.9099C16.8684 28.9076 16.8428 28.9069 16.8174 28.9054C16.7908 28.9038 16.7644 28.9054 16.7379 28.9033C16.6857 28.899 16.6353 28.8833 16.5864 28.8654C16.5675 28.8585 16.5508 28.8505 16.5334 28.8405C16.509 28.8266 16.4826 28.818 16.4564 28.8078C16.4154 28.7918 16.3856 28.7608 16.347 28.7405C16.3337 28.7335 16.3201 28.7273 16.3083 28.7179C16.2949 28.7072 16.282 28.6958 16.2689 28.6847C16.2491 28.6678 16.2282 28.655 16.2058 28.6417C16.1883 28.6314 16.1749 28.6187 16.1601 28.6054C16.1504 28.5968 16.1407 28.5895 16.1332 28.5788C16.125 28.5669 16.1167 28.5549 16.1066 28.5443C16.0945 28.5318 16.0784 28.5227 16.0645 28.5124C16.0472 28.4995 16.0353 28.4861 16.0221 28.4699C16.0102 28.4552 15.9978 28.4411 15.9881 28.4249C15.9783 28.4085 15.9696 28.3913 15.9605 28.3745C15.9508 28.3564 15.9397 28.3383 15.9338 28.3187C15.9278 28.2986 15.9253 28.2776 15.921 28.2572C15.9135 28.2209 15.9045 28.1854 15.9012 28.1485C15.8988 28.1207 15.8947 28.0932 15.8936 28.0653C15.8929 28.0479 15.8912 28.0306 15.8883 28.0134C15.8844 27.9901 15.8764 27.9677 15.871 27.9448C15.865 27.9191 15.8642 27.8934 15.861 27.8675C15.8585 27.8466 15.8519 27.8266 15.8557 27.8058C15.8628 27.767 15.8625 27.7275 15.8627 27.6881C15.8632 27.6219 15.8623 27.5556 15.865 27.4895C15.8659 27.4662 15.8675 27.4428 15.8725 27.4201C15.8806 27.3828 15.8893 27.3451 15.9003 27.3086C15.9113 27.2715 15.9231 27.2329 15.9399 27.1978C15.9587 27.1586 15.9812 27.1208 16.0013 27.0821" stroke="#F8F2EA" stroke-width="0.75" stroke-linecap="round"/>
    <path d="M16.0076 27.9688C16.0103 28.0045 16.0132 28.0408 16.0234 28.0756C16.027 28.0879 16.0318 28.0999 16.0348 28.1124C16.0382 28.1266 16.0386 28.141 16.0411 28.1553C16.0426 28.1639 16.045 28.1723 16.0456 28.1811C16.0461 28.1902 16.0441 28.198 16.0423 28.2068C16.0371 28.2313 16.0482 28.2585 16.054 28.2824C16.0606 28.31 16.0728 28.3325 16.0892 28.3562C16.1137 28.3916 16.139 28.4263 16.1678 28.4587C16.197 28.4914 16.2322 28.517 16.2698 28.5402C16.3163 28.5688 16.3651 28.5939 16.4122 28.6217C16.4797 28.6616 16.5532 28.6897 16.6219 28.7272C16.6347 28.7342 16.6478 28.7405 16.6609 28.7467C16.6872 28.7592 16.7135 28.773 16.7409 28.7833C16.772 28.795 16.8045 28.7988 16.8375 28.8007C16.883 28.8033 16.9287 28.8031 16.9742 28.8028C17.0478 28.8023 17.1212 28.8023 17.1944 28.7953C17.2869 28.7864 17.3766 28.7674 17.466 28.7442C17.4985 28.7357 17.5312 28.7272 17.5613 28.7123C17.5954 28.6954 17.6235 28.6698 17.658 28.6535C17.686 28.6402 17.717 28.6335 17.7461 28.6228C17.7626 28.6168 17.7787 28.6098 17.7946 28.6026" stroke="#F8F2EA" stroke-width="0.75" stroke-linecap="round"/>
    <path d="M16.7145 28.7717C16.7002 28.7637 16.6851 28.7571 16.6703 28.7499C16.6411 28.7356 16.6134 28.7242 16.5813 28.7179C16.5555 28.7129 16.5309 28.7078 16.5067 28.6974C16.4967 28.6931 16.4867 28.689 16.4768 28.6847" stroke="#F8F2EA" stroke-width="0.75" stroke-linecap="round"/>
    <path d="M16.6654 28.7834C16.6536 28.7799 16.6424 28.7759 16.6309 28.7717" stroke="#F8F2EA" stroke-width="0.75" stroke-linecap="round"/>
    <path d="M17.2414 28.8563C17.2248 28.862 17.216 28.8844 17.1979 28.8856" stroke="#F8F2EA" stroke-width="0.75" stroke-linecap="round"/>
    <path d="M17.2512 28.8876C17.2428 28.8902 17.2353 28.8934 17.229 28.8994C17.2276 28.9008 17.2264 28.9024 17.2249 28.9037C17.2248 28.9038 17.2228 28.9047 17.2228 28.9048C17.2242 28.907 17.233 28.9058 17.2355 28.9061C17.236 28.9061 17.2397 28.9061 17.2387 28.9058C17.2296 28.9035 17.2152 28.9097 17.2071 28.9125C17.1835 28.9209 17.1589 28.9257 17.1332 28.924" stroke="#F8F2EA" stroke-width="0.75" stroke-linecap="round"/>
    <path d="M16.8623 28.8994C16.8592 28.8996 16.8229 28.9117 16.8232 28.9127C16.8243 28.9167 16.8406 28.917 16.8441 28.9169C16.8465 28.9169 16.846 28.9148 16.846 28.9129" stroke="#F8F2EA" stroke-width="0.75" stroke-linecap="round"/>
    <path d="M17.8828 28.6646C17.8853 28.6744 17.8845 28.6849 17.8867 28.695" stroke="#F8F2EA" stroke-width="0.75" stroke-linecap="round"/>
    <path d="M13.5406 18.7045L12.741 18.4341" stroke="#F8F2EA" stroke-width="0.75" stroke-linecap="round"/>
    <path d="M13.7268 18.6022C13.6566 18.5529 13.5708 18.5315 13.4925 18.4976C13.4661 18.4861 13.4436 18.4707 13.4195 18.4554C13.4008 18.4435 13.3802 18.4344 13.3611 18.4231C13.3323 18.4062 13.3001 18.3992 13.2693 18.3866C13.2442 18.3763 13.2203 18.3641 13.195 18.3543C13.1544 18.3385 13.1123 18.3285 13.0707 18.3158C12.9141 18.2677 12.756 18.2329 12.5946 18.2055C12.5469 18.1974 12.5006 18.1896 12.4523 18.1873C12.4163 18.1856 12.3809 18.1786 12.3449 18.1773C12.3124 18.1762 12.2802 18.1766 12.2476 18.1732C12.2095 18.1691 12.1718 18.1629 12.1339 18.1578C12.0966 18.1528 12.0594 18.1465 12.0224 18.1398C12.0018 18.1361 11.9826 18.1282 11.9622 18.1241C11.9223 18.116 11.88 18.1079 11.8394 18.1058C11.8011 18.1039 11.7645 18.1002 11.7272 18.0909C11.673 18.0774 11.619 18.0635 11.5647 18.0504C11.5298 18.042 11.4992 18.0269 11.4624 18.0268C11.3983 18.0268 11.3339 18.0227 11.27 18.0146C11.2124 18.0073 11.1551 17.9935 11.097 17.9911C11.0459 17.989 10.9979 17.9806 10.9476 17.9721" stroke="#F8F2EA" stroke-width="0.75" stroke-linecap="round"/>
    <path d="M12.1203 18.2083C11.9639 18.2026 11.8073 18.1784 11.6533 18.1504C11.5684 18.135 11.4838 18.1182 11.399 18.1026C11.3521 18.094 11.3054 18.0852 11.2592 18.0731C11.2054 18.0588 11.152 18.0427 11.0979 18.029C11.0657 18.0209 11.033 18.0139 11.0011 18.0048C10.951 17.9905 10.9056 17.9672 10.8542 17.9574C10.8348 17.9537 10.8155 17.9479 10.7963 17.9431" stroke="#F8F2EA" stroke-width="0.75" stroke-linecap="round"/>
    <path d="M10.9221 18.0023C10.9563 18.03 10.9968 18.0481 11.0339 18.0716C11.0765 18.0986 11.1206 18.1294 11.1566 18.1641C11.1878 18.1942 11.2247 18.2122 11.2624 18.2337C11.3028 18.2567 11.3376 18.2846 11.3709 18.3163C11.4229 18.3659 11.4818 18.4101 11.5458 18.4443C11.5921 18.469 11.6398 18.4905 11.6881 18.511C11.7249 18.5268 11.7607 18.5452 11.7978 18.5602C11.8255 18.5714 11.8504 18.5806 11.872 18.6013C11.9005 18.6287 11.9324 18.6474 11.9677 18.666C11.9992 18.6826 12.0288 18.7019 12.0598 18.7191C12.0803 18.7305 12.1017 18.7402 12.1226 18.7508C12.1468 18.7631 12.1691 18.778 12.1929 18.7908C12.2267 18.8092 12.2646 18.8214 12.2998 18.8373C12.3499 18.8598 12.4034 18.8761 12.4521 18.9014C12.4904 18.9213 12.5274 18.9456 12.5681 18.9608C12.6004 18.9728 12.6337 18.9784 12.6648 18.9941C12.7248 19.0242 12.7817 19.0575 12.8451 19.0808C12.8749 19.0918 12.9019 19.1076 12.9307 19.1205C12.9712 19.1385 13.0139 19.1498 13.0547 19.1665C13.0922 19.1818 13.1295 19.1978 13.1679 19.2104C13.2254 19.2291 13.2845 19.2438 13.3425 19.2608C13.4533 19.2933 13.5665 19.3145 13.6784 19.3424C13.7589 19.3624 13.8402 19.3729 13.9218 19.3872C14.0088 19.4025 14.0925 19.4221 14.1771 19.4477C14.2031 19.4556 14.2291 19.4633 14.256 19.467C14.2881 19.4714 14.3203 19.4701 14.3523 19.4753C14.4529 19.4917 14.5511 19.5144 14.6531 19.5205C14.7377 19.5256 14.8237 19.5295 14.9082 19.526C14.9775 19.5231 15.044 19.5178 15.1134 19.5254" stroke="#F8F2EA" stroke-width="0.75" stroke-linecap="round"/>
    <path d="M15.0863 19.5058C15.0626 19.4904 15.0455 19.4664 15.0225 19.4497C15.0051 19.4371 14.9871 19.4251 14.9704 19.4116C14.952 19.3967 14.9378 19.3778 14.9215 19.3609C14.8921 19.3305 14.8547 19.3058 14.8204 19.2809C14.7797 19.2513 14.7473 19.2159 14.711 19.1819C14.6813 19.1541 14.6459 19.1341 14.6216 19.1012C14.5951 19.0652 14.5584 19.0376 14.5218 19.0114C14.4946 18.992 14.4719 18.9673 14.4436 18.9495C14.4093 18.9279 14.3766 18.9064 14.3449 18.8813C14.3113 18.8547 14.272 18.8362 14.2355 18.8137C14.1865 18.7835 14.1363 18.7557 14.0862 18.7273C14.0497 18.7065 14.0147 18.6849 13.9794 18.6623C13.9474 18.6419 13.9119 18.6307 13.8782 18.6138C13.8375 18.5933 13.7979 18.5737 13.7551 18.5577C13.6965 18.5358 13.6374 18.5153 13.5788 18.4933C13.53 18.4749 13.4855 18.449 13.4394 18.4253C13.3989 18.4044 13.3521 18.3943 13.3096 18.3776" stroke="#F8F2EA" stroke-width="0.75" stroke-linecap="round"/>
    <path d="M13.7378 18.5942C13.7852 18.6235 13.8336 18.6506 13.8822 18.6778C13.9442 18.7123 14.0076 18.7425 14.071 18.7743C14.1099 18.7938 14.1448 18.8193 14.1833 18.8394C14.223 18.8601 14.2652 18.8752 14.3046 18.8967C14.3521 18.9225 14.3943 18.9559 14.4384 18.9866C14.4622 19.0031 14.4877 19.0182 14.5096 19.0371C14.5294 19.0543 14.5461 19.0746 14.5647 19.093C14.5995 19.1274 14.64 19.1557 14.676 19.1888C14.7053 19.2156 14.7299 19.2476 14.7562 19.277" stroke="#F8F2EA" stroke-width="0.75" stroke-linecap="round"/>
    <path d="M14.5758 19.1651C14.6245 19.2112 14.6766 19.2571 14.7333 19.294C14.7922 19.3323 14.8517 19.3697 14.9103 19.4085C14.931 19.4222 14.9493 19.4368 14.9683 19.4524C14.9773 19.4598 14.9868 19.4664 14.9955 19.4743C15.0049 19.4828 14.9882 19.4838 14.9809 19.485C14.9344 19.4926 14.8916 19.4764 14.8463 19.4685C14.8207 19.464 14.7945 19.4617 14.7686 19.4601C14.743 19.4586 14.7184 19.4632 14.6929 19.4631C14.6434 19.4629 14.5915 19.4446 14.5437 19.4331C14.4924 19.4207 14.4375 19.4175 14.385 19.4177C14.3227 19.418 14.2601 19.4207 14.1979 19.4132C14.1346 19.4057 14.0775 19.3861 14.0176 19.365C13.9535 19.3424 13.8874 19.3277 13.821 19.3133C13.7619 19.3005 13.7038 19.2841 13.6451 19.2695C13.5805 19.2534 13.5177 19.2345 13.4517 19.2251C13.3909 19.2165 13.3321 19.2015 13.2721 19.1884C13.2073 19.1742 13.1418 19.1609 13.0912 19.1164C13.0657 19.094 13.0426 19.0764 13.0106 19.0632C12.9815 19.0512 12.9514 19.0433 12.9212 19.0347C12.8564 19.0163 12.7919 18.9954 12.7278 18.9749C12.6761 18.9583 12.6275 18.9306 12.58 18.9049C12.481 18.8514 12.3788 18.8056 12.2745 18.7631C12.2293 18.7448 12.1882 18.7213 12.1449 18.6995C12.0791 18.6663 12.0078 18.6445 11.9398 18.616C11.9277 18.6109 11.8872 18.5905 11.8747 18.606C11.8653 18.6176 11.8815 18.6302 11.8914 18.6346C11.8982 18.6377 11.9054 18.6402 11.9113 18.6448C11.9153 18.648 11.9263 18.6615 11.913 18.6582C11.8858 18.6514 11.8753 18.6248 11.8537 18.6113C11.8352 18.5998 11.816 18.5878 11.7968 18.5773C11.7589 18.5565 11.7163 18.5488 11.6798 18.5245C11.6726 18.5197 11.6576 18.5143 11.6529 18.5072C11.6478 18.4994 11.6854 18.4656 11.691 18.4618C11.7149 18.4455 11.7449 18.4502 11.7726 18.4515C11.8327 18.4543 11.8908 18.4388 11.9484 18.4253C12.0315 18.406 12.1143 18.3851 12.199 18.3721C12.2906 18.3581 12.3848 18.3544 12.4778 18.3618C12.5713 18.3693 12.6549 18.3917 12.7402 18.4295C12.791 18.452 12.8402 18.4758 12.8893 18.5013" stroke="#F8F2EA" stroke-width="0.75" stroke-linecap="round"/>
    <path d="M12.8104 18.5096C12.7157 18.4837 12.6211 18.4612 12.5237 18.4475C12.439 18.4357 12.3536 18.4278 12.2684 18.4218C12.2129 18.4178 12.1563 18.4136 12.1008 18.4177C12.0726 18.4198 12.0549 18.4223 12.0288 18.4313C12.0005 18.441 11.9763 18.4581 11.9483 18.4685C11.9204 18.4789 11.8906 18.4826 11.8612 18.4875C11.8355 18.4918 11.81 18.4967 11.7842 18.5004C11.7712 18.5022 11.7591 18.5034 11.746 18.5043C11.7416 18.5045 11.715 18.5021 11.7111 18.5058C11.7103 18.5065 11.7131 18.5072 11.7142 18.5076C11.7317 18.5131 11.7496 18.5169 11.7674 18.5213C11.8095 18.5318 11.852 18.5438 11.895 18.55C11.9209 18.5538 11.946 18.5507 11.9718 18.5507C12.01 18.5508 12.0469 18.555 12.0844 18.5624C12.1233 18.57 12.1631 18.5789 12.2006 18.5917C12.2262 18.6004 12.2485 18.6098 12.2653 18.6308C12.2837 18.6538 12.273 18.6475 12.3004 18.6713C12.3419 18.7073 12.3912 18.7351 12.4387 18.7629C12.4809 18.7876 12.5238 18.811 12.566 18.8357C12.602 18.8567 12.637 18.8794 12.6744 18.898C12.8212 18.971 12.9878 18.9908 13.1345 19.0629C13.1447 19.0679 13.2143 19.1068 13.1815 19.1233C13.1557 19.1363 13.1142 19.13 13.087 19.1269C13.0514 19.1229 13.0162 19.1154 12.9833 19.101C12.9268 19.0762 12.8792 19.0333 12.8262 19.0024C12.7185 18.9397 12.5994 18.8995 12.4898 18.8405C12.4212 18.8036 12.3597 18.7576 12.2894 18.7235C12.2258 18.6927 12.162 18.6612 12.0971 18.6332C12.0734 18.623 12.0596 18.6175 12.0364 18.6085C12.0287 18.6055 12.0092 18.6009 12.0023 18.594C11.9966 18.5883 12.0115 18.586 12.0122 18.5859C12.0399 18.5845 12.0712 18.5943 12.0978 18.5996C12.107 18.6014 12.2645 18.6328 12.2635 18.6355C12.2623 18.6387 12.2566 18.6375 12.2531 18.6376C12.2316 18.638 12.1878 18.6343 12.1693 18.6325C12.1227 18.6281 12.0763 18.6221 12.0299 18.6162C12.0129 18.614 11.9914 18.6134 11.9757 18.6049C11.9696 18.6015 11.9557 18.5916 11.9586 18.583C11.9598 18.5797 11.9628 18.5772 11.9655 18.575C12.0066 18.542 11.9552 18.5907 12.0053 18.5459C12.0332 18.5209 12.0552 18.4915 12.087 18.4703C12.1354 18.438 12.2021 18.4279 12.2599 18.4446C12.2741 18.4487 12.3118 18.465 12.2924 18.4857C12.2712 18.5083 12.2225 18.5085 12.1942 18.5106C12.138 18.5147 12.0805 18.5096 12.0249 18.5186C12.0018 18.5223 11.9741 18.5384 11.9523 18.5223C11.9458 18.5175 11.9449 18.5154 11.9409 18.5093C11.9394 18.5069 11.9332 18.5022 11.9337 18.5048C11.9359 18.5156 11.9563 18.5234 11.9647 18.525C11.9865 18.5292 12.0015 18.5197 12.0074 18.4997C12.0097 18.4922 12.0042 18.4708 12.0167 18.4686C12.036 18.4653 12.0621 18.4743 12.0816 18.4748C12.1197 18.4759 12.1573 18.4707 12.1953 18.4701C12.2229 18.4697 12.2572 18.4691 12.2824 18.4837C12.3176 18.5041 12.2991 18.5455 12.2689 18.5582C12.226 18.5763 12.1729 18.5708 12.1276 18.5649C12.0793 18.5585 12.0302 18.5472 11.9839 18.5322C11.9696 18.5275 11.9446 18.5204 11.9332 18.5076C11.9173 18.4897 11.944 18.4667 11.9557 18.4569C11.9954 18.4238 12.0428 18.4034 12.0958 18.398C12.1245 18.3951 12.1536 18.3946 12.1825 18.397C12.2271 18.4007 12.3053 18.4158 12.3474 18.4388C12.4172 18.4771 12.3215 18.5065 12.3057 18.5382C12.2901 18.5698 12.3248 18.6002 12.3425 18.6233C12.3493 18.6322 12.3536 18.6389 12.3529 18.6498C12.3523 18.6592 12.3548 18.6601 12.3648 18.6651C12.3927 18.6789 12.4224 18.6896 12.4507 18.7026C12.482 18.7171 12.5125 18.7332 12.544 18.7474C12.629 18.7859 12.7237 18.8088 12.8044 18.8559C12.8452 18.8798 12.791 18.9 12.7666 18.9009C12.7089 18.9029 12.6613 18.8663 12.6178 18.8342C12.6073 18.8264 12.5724 18.8077 12.5843 18.8133C12.6345 18.837 12.6863 18.859 12.7372 18.8811C12.8041 18.9101 12.8849 18.921 12.9567 18.909C12.96 18.9084 12.9678 18.9066 12.9654 18.9043C12.9602 18.8993 12.9517 18.8992 12.9447 18.8974C12.9272 18.8928 12.9095 18.8894 12.8919 18.8851C12.8203 18.8675 12.7499 18.8471 12.6804 18.8226C12.6482 18.8113 12.6167 18.7984 12.5845 18.7872C12.5576 18.7779 12.5213 18.7629 12.4919 18.7667C12.4583 18.771 12.5528 18.7986 12.5858 18.8074C12.6833 18.8336 12.7835 18.8486 12.8807 18.8754C12.9212 18.8866 12.9409 18.8925 12.9713 18.9177C12.9953 18.9375 13.0102 18.9642 13.0273 18.9891C13.0572 19.0326 13.093 19.064 13.1358 19.0956C13.1474 19.1042 13.1515 19.1075 13.1618 19.1165C13.1676 19.1216 13.1728 19.1306 13.182 19.1286C13.2016 19.1244 13.2278 19.1072 13.2374 19.0905C13.2543 19.0614 13.2189 19.0382 13.1993 19.0227C13.1678 18.9978 13.1346 18.9743 13.102 18.9507C13.0852 18.9386 13.0584 18.9144 13.035 18.9156C13.0105 18.9168 13.0253 18.9474 13.032 18.9567C13.0475 18.9781 13.0712 18.9919 13.0939 19.0048C13.0989 19.0077 13.1122 19.0125 13.1074 19.0155C13.0931 19.0246 13.0469 19.0153 13.0344 19.0129C12.9933 19.0048 12.951 18.9904 12.9202 18.9615C12.9028 18.9453 12.9039 18.931 12.9295 18.9372C12.9721 18.9474 13.0074 18.9763 13.0432 18.9993C13.0922 19.0307 13.1494 19.0561 13.2052 19.0734C13.2572 19.0896 13.2699 19.0347 13.2632 18.9949C13.26 18.9758 13.2516 18.9606 13.2307 18.9606C13.2142 18.9606 13.198 18.9631 13.1814 18.9628C13.1735 18.9627 13.153 18.9599 13.1579 18.9661C13.1705 18.982 13.1977 18.9949 13.2146 19.0046C13.2471 19.0234 13.2822 19.0376 13.3082 19.0648" stroke="#F8F2EA" stroke-width="0.75" stroke-linecap="round"/>
    <path d="M13.3109 18.99C13.2927 19.0144 13.2795 19.0412 13.2654 19.0679C13.2543 19.0889 13.2351 19.1105 13.2381 19.1357C13.2416 19.1648 13.267 19.1729 13.2845 19.1492C13.3083 19.1168 13.3196 19.0772 13.344 19.0451C13.3513 19.0355 13.3597 19.0261 13.3724 19.0229C13.385 19.0197 13.4088 19.021 13.4183 19.0317C13.4381 19.0539 13.3782 19.1051 13.3662 19.1194C13.3549 19.133 13.2981 19.1969 13.3221 19.2146C13.3489 19.2344 13.4126 19.2212 13.4307 19.1957C13.4499 19.1688 13.4446 19.1333 13.4663 19.1065C13.4894 19.078 13.5722 19.0294 13.5888 19.0943C13.5954 19.1201 13.5749 19.1407 13.556 19.1546C13.5244 19.1779 13.4832 19.196 13.4432 19.2015C13.4242 19.204 13.3959 19.1999 13.3806 19.1869C13.3625 19.1717 13.3689 19.1566 13.3833 19.1417C13.4038 19.1206 13.4297 19.1061 13.4485 19.083C13.4573 19.0722 13.4658 19.0512 13.4773 19.043C13.4812 19.0402 13.4768 19.0524 13.4763 19.0571C13.4749 19.0712 13.4735 19.086 13.4782 19.1C13.4846 19.119 13.5002 19.1307 13.5189 19.1375C13.5256 19.1398 13.5596 19.1484 13.562 19.1349C13.5642 19.1219 13.5289 19.1194 13.5219 19.12C13.5069 19.1212 13.5077 19.1303 13.5262 19.122C13.5519 19.1105 13.5743 19.0947 13.6028 19.0887C13.6391 19.081 13.6816 19.0857 13.71 19.1118C13.7255 19.126 13.7135 19.131 13.6975 19.1306C13.6792 19.1301 13.6619 19.126 13.6441 19.1223C13.6375 19.1209 13.631 19.1191 13.6244 19.118C13.6226 19.1177 13.6182 19.1165 13.6188 19.1182C13.6221 19.1274 13.6708 19.1412 13.676 19.1431C13.7239 19.1603 13.7728 19.175 13.822 19.1881C13.9041 19.2099 13.9871 19.2258 14.0679 19.252C14.1301 19.2721 14.1927 19.2909 14.2536 19.3145C14.2877 19.3278 14.3215 19.3396 14.3571 19.3484C14.3778 19.3534 14.4032 19.3587 14.4239 19.364C14.4309 19.3659 14.463 19.3733 14.4712 19.3815C14.486 19.3963 14.4328 19.4 14.4117 19.4016C14.3533 19.406 14.2938 19.4017 14.2356 19.3949C14.1745 19.3876 14.1138 19.3766 14.0528 19.3682C13.9845 19.3588 13.9167 19.3505 13.8501 19.3316C13.8063 19.3192 13.7633 19.3046 13.7193 19.2928C13.6642 19.2779 13.606 19.2674 13.5539 19.2436C13.5491 19.2415 13.5055 19.2198 13.542 19.2203C13.5919 19.2211 13.6434 19.2373 13.6918 19.2483C13.7854 19.2697 13.8795 19.2886 13.9737 19.307C14.0397 19.3198 14.1059 19.3298 14.1723 19.3398C14.1751 19.3402 14.2296 19.3494 14.2413 19.3486C14.2432 19.3485 14.2465 19.3458 14.2451 19.3445C14.2392 19.3394 14.2314 19.3366 14.2241 19.3335C14.1774 19.3137 14.1272 19.3036 14.0777 19.2937C14.0034 19.2789 13.9287 19.2661 13.8547 19.2496C13.8081 19.2393 13.7623 19.2262 13.7159 19.2153C13.6649 19.2032 13.6125 19.1945 13.5625 19.1785C13.5609 19.178 13.5124 19.162 13.5453 19.1577C13.5728 19.1541 13.6185 19.1599 13.6423 19.1624C13.6788 19.1664 13.7433 19.1749 13.7803 19.1802C13.8409 19.1888 13.901 19.2032 13.9617 19.2101C13.9812 19.2123 14.0036 19.2104 13.971 19.1985C13.9216 19.1805 13.8704 19.1649 13.8195 19.1518C13.8055 19.1481 13.7914 19.1445 13.7771 19.1425C13.7723 19.1418 13.7595 19.1402 13.7626 19.1438C13.7696 19.1519 13.7813 19.1547 13.7913 19.1589C13.815 19.1688 13.8392 19.1775 13.8635 19.186C13.9746 19.2245 14.0877 19.2568 14.1999 19.2919C14.2278 19.3007 14.2601 19.3038 14.2823 19.3225C14.2894 19.3285 14.2742 19.336 14.2735 19.3366C14.2646 19.3455 14.2683 19.3531 14.2804 19.3572C14.2918 19.3609 14.3207 19.3643 14.3302 19.3655C14.3448 19.3673 14.4065 19.3739 14.4186 19.3751C14.5097 19.3842 14.6011 19.3886 14.6921 19.3991C14.7506 19.4059 14.8088 19.4221 14.8677 19.4251C14.8691 19.4251 14.9021 19.4278 14.9034 19.4223C14.9053 19.4139 14.8352 19.3898 14.8302 19.3878C14.7613 19.3602 14.6937 19.3311 14.6277 19.2972C14.6259 19.2963 14.5421 19.2517 14.5471 19.2451C14.5485 19.2431 14.5516 19.2473 14.5538 19.2485C14.5621 19.2529 14.5702 19.2578 14.5788 19.2618C14.6102 19.2765 14.6289 19.2834 14.6629 19.2927C14.6743 19.2958 14.6859 19.2984 14.6976 19.3004C14.717 19.3037 14.7084 19.2992 14.6984 19.2951C14.6617 19.2799 14.6233 19.2662 14.5851 19.2551C14.5826 19.2544 14.5799 19.2527 14.5774 19.2535C14.5708 19.2555 14.5904 19.2592 14.5972 19.2609C14.6121 19.2645 14.6161 19.2644 14.6308 19.2641C14.639 19.264 14.6453 19.2614 14.6521 19.2678C14.662 19.277 14.6676 19.2998 14.6635 19.312C14.6592 19.3245 14.646 19.3236 14.635 19.3234C14.6128 19.3228 14.5908 19.3184 14.5686 19.3171C14.5563 19.3164 14.5325 19.3158 14.519 19.3175C14.5108 19.3184 14.5078 19.3202 14.5176 19.3241C14.5599 19.3407 14.608 19.3481 14.6529 19.3535C14.6602 19.3543 14.6675 19.355 14.6748 19.3552C14.6887 19.3556 14.6808 19.3529 14.6729 19.3514C14.6431 19.3456 14.6121 19.3513 14.5828 19.3455C14.5744 19.3438 14.5828 19.3345 14.5834 19.332C14.5885 19.311 14.5879 19.2997 14.5837 19.2767C14.576 19.234 14.5581 19.1908 14.5363 19.1527C14.5229 19.1294 14.5063 19.1087 14.4895 19.0876C14.4764 19.0712 14.4643 19.0522 14.4486 19.0379C14.413 19.0054 14.3616 18.9814 14.3161 18.9656C14.2921 18.9572 14.2675 18.9504 14.2436 18.9418C14.2126 18.9306 14.1838 18.9156 14.1541 18.9018C14.1294 18.8905 14.1041 18.8805 14.0797 18.8688C14.0507 18.8549 14.023 18.8388 13.994 18.825C13.9439 18.8011 13.8981 18.771 13.8523 18.7402C13.8225 18.7202 13.7935 18.7001 13.7605 18.6854C13.7281 18.671 13.6945 18.6597 13.6627 18.6439C13.6153 18.6205 13.5734 18.5883 13.5282 18.5613C13.5097 18.5503 13.4902 18.5412 13.471 18.5315C13.4457 18.5188 13.4218 18.5038 13.396 18.492C13.3534 18.4725 13.3068 18.4639 13.2634 18.4465C13.2384 18.4364 13.2148 18.4232 13.1899 18.4129C13.159 18.4003 13.1267 18.3914 13.0955 18.38C13.0459 18.3618 12.9979 18.3391 12.9469 18.3252C12.8707 18.3044 12.7928 18.2905 12.716 18.2725C12.6377 18.2541 12.5622 18.2374 12.4817 18.2325C12.3776 18.2261 12.2754 18.2165 12.1719 18.2018C12.0968 18.1911 12.0208 18.1877 11.9463 18.1723C11.8664 18.1557 11.7863 18.1417 11.7061 18.1264C11.6379 18.1134 11.5701 18.1 11.5016 18.0886C11.4549 18.0809 11.4087 18.0692 11.362 18.0624" stroke="#F8F2EA" stroke-width="0.75" stroke-linecap="round"/>
    <path d="M11.0715 18.0461C11.1149 18.057 11.161 18.0731 11.1991 18.0966C11.2416 18.1229 11.2707 18.1685 11.3084 18.2006C11.3321 18.2209 11.3554 18.2419 11.3799 18.2614C11.4108 18.2862 11.4461 18.3036 11.4819 18.3207C11.5894 18.372 11.6876 18.435 11.7838 18.5039" stroke="#F8F2EA" stroke-width="0.75" stroke-linecap="round"/>
    <path d="M11.5631 18.3822C11.5567 18.373 11.5498 18.3693 11.5398 18.3634C11.5261 18.3553 11.4859 18.3295 11.4986 18.339C11.5271 18.3604 11.5572 18.38 11.5873 18.399C11.5958 18.4043 11.6348 18.4282 11.6444 18.4345C11.6747 18.4544 11.648 18.4419 11.636 18.4347C11.5095 18.3587 11.4135 18.2416 11.2812 18.173C11.2487 18.1561 11.214 18.1435 11.1811 18.1272C11.1654 18.1194 11.1544 18.1133 11.1788 18.1218C11.2208 18.1365 11.261 18.1554 11.3025 18.1711C11.39 18.2042 11.4806 18.2197 11.5697 18.2466C11.6403 18.2679 11.7071 18.3006 11.7738 18.3312C11.806 18.3459 11.8967 18.3877 11.9283 18.4044C11.9431 18.4123 12.0379 18.4634 11.9492 18.4499C11.8427 18.4336 11.74 18.3858 11.6433 18.3411C11.5866 18.3148 11.5338 18.2894 11.472 18.2773C11.4459 18.2722 11.412 18.2728 11.3876 18.2606C11.3796 18.2565 11.3587 18.2416 11.3535 18.238C11.3236 18.2169 11.294 18.1962 11.2619 18.1781C11.2368 18.164 11.2083 18.153 11.186 18.1346C11.1752 18.1258 11.1836 18.1296 11.1888 18.1309C11.1981 18.1332 11.2352 18.1507 11.2374 18.1518C11.2922 18.1781 11.3465 18.2042 11.4002 18.2327C11.4799 18.2751 11.5526 18.3251 11.6298 18.371C11.6667 18.393 11.6952 18.4067 11.7359 18.4204C11.7438 18.4231 11.7927 18.4371 11.8075 18.4359C11.8205 18.4348 11.8168 18.42 11.8169 18.4133C11.817 18.4051 11.8166 18.3968 11.8171 18.3886C11.8182 18.3696 11.8275 18.3465 11.8077 18.3301C11.7768 18.3045 11.719 18.3063 11.6854 18.3058C11.6452 18.3052 11.5972 18.3087 11.5564 18.3135C11.5259 18.3171 11.5358 18.3229 11.5211 18.3417C11.5137 18.3512 11.4973 18.3642 11.4835 18.3623C11.4809 18.362 11.4844 18.3568 11.4865 18.3554C11.508 18.3413 11.5363 18.3346 11.5615 18.3305C11.6651 18.3135 11.7738 18.3153 11.8789 18.3131C12.0379 18.3097 12.1974 18.3172 12.3564 18.3248C12.4694 18.3301 12.5826 18.3377 12.6953 18.3489C12.7469 18.354 12.809 18.3611 12.8601 18.371C12.9421 18.3868 13.0215 18.4121 13.1 18.4403C13.1735 18.4666 13.2429 18.4968 13.3122 18.5322C13.4217 18.5881 13.5373 18.6313 13.6474 18.686C13.7205 18.7224 13.7903 18.7648 13.8629 18.8022C13.9512 18.8478 14.042 18.8875 14.1348 18.9234C14.2053 18.9507 14.2766 18.9758 14.3487 18.9987C14.3598 19.0023 14.3707 19.0065 14.3821 19.009C14.3882 19.0103 14.3607 19.0028 14.3636 19.0081C14.3678 19.0156 14.394 19.0355 14.3965 19.0375C14.4042 19.0436 14.4122 19.0492 14.4196 19.0555C14.4236 19.0588 14.429 19.0615 14.4309 19.0663C14.4347 19.0762 14.4089 19.063 14.3985 19.0593C14.3585 19.045 14.3201 19.0272 14.2817 19.0091C14.2356 18.9874 14.186 18.9592 14.1349 18.9505C14.1107 18.9463 14.1277 18.9588 14.1374 18.9655C14.1506 18.9745 14.1648 18.9822 14.1787 18.9903C14.1928 18.9984 14.2073 19.0059 14.2214 19.0142C14.226 19.0169 14.2399 19.0232 14.2346 19.0231C14.2258 19.0229 14.218 19.0174 14.2098 19.014C14.1913 19.0062 14.173 18.998 14.1548 18.9897C14.1011 18.9651 14.0879 18.958 14.0364 18.9318C13.9774 18.9018 13.9149 18.8785 13.8567 18.8474C13.8106 18.8227 13.769 18.797 13.7181 18.7817C13.6956 18.775 13.6506 18.7643 13.6263 18.7605C13.5885 18.7546 13.608 18.7666 13.6279 18.7784C13.6882 18.8141 13.7509 18.846 13.8104 18.883C13.844 18.904 13.8207 18.8905 13.8189 18.889C13.8021 18.8752 13.7877 18.8587 13.7721 18.8438C13.7327 18.8064 13.6905 18.7719 13.6501 18.7356C13.6428 18.7289 13.6083 18.6972 13.6003 18.6903C13.5905 18.682 13.5499 18.6404 13.5325 18.6484C13.5183 18.6549 13.5322 18.6793 13.5374 18.6938C13.546 18.7179 13.5595 18.7468 13.5707 18.77C13.5812 18.7916 13.5851 18.7989 13.596 18.818C13.6002 18.8254 13.6057 18.8331 13.5975 18.8226C13.5607 18.7756 13.5266 18.7269 13.4908 18.6792C13.4737 18.6564 13.4614 18.6398 13.4418 18.6198C13.423 18.6006 13.4178 18.6026 13.4211 18.6291C13.4285 18.6893 13.4464 18.7472 13.4783 18.8003C13.4834 18.8088 13.5099 18.847 13.5184 18.8572C13.5205 18.8597 13.5243 18.8664 13.5259 18.8636C13.5282 18.8595 13.5242 18.8543 13.5225 18.8499C13.5179 18.8374 13.5126 18.8252 13.5072 18.813C13.4813 18.7546 13.4511 18.6981 13.4151 18.6446C13.4011 18.624 13.3799 18.6 13.3569 18.588C13.3513 18.5851 13.3556 18.6002 13.3577 18.6059C13.3667 18.6299 13.3827 18.6647 13.3942 18.6864C13.4141 18.7238 13.4259 18.7403 13.4485 18.7754C13.4544 18.7845 13.4607 18.7934 13.4661 18.8027C13.4678 18.8056 13.4724 18.8139 13.4696 18.812C13.4629 18.8076 13.4585 18.8005 13.4535 18.7944C13.3925 18.721 13.337 18.6456 13.2677 18.5787C13.2373 18.5493 13.211 18.5271 13.1791 18.5006C13.1626 18.4869 13.1372 18.464 13.1655 18.4981C13.2228 18.5673 13.2748 18.6381 13.3225 18.7138C13.4045 18.8438 13.3097 18.6955 13.373 18.7949C13.3946 18.8288 13.3639 18.788 13.3547 18.779C13.2718 18.6982 13.1768 18.629 13.083 18.5603C13.0484 18.535 13.0243 18.5176 12.9899 18.4944C12.9559 18.4714 12.9597 18.4741 12.9989 18.4952C13.1017 18.5505 13.2021 18.6098 13.2927 18.6829C13.3053 18.693 13.3174 18.7038 13.3288 18.7151C13.3322 18.7184 13.3412 18.7279 13.3367 18.7267C13.3245 18.7232 13.3145 18.7147 13.3038 18.708C13.2801 18.6933 13.2568 18.6781 13.2336 18.6627C13.1085 18.5794 12.9884 18.491 12.8706 18.3985C12.8595 18.3898 12.8252 18.3652 12.8377 18.3719C12.9015 18.4058 12.9639 18.4421 13.0279 18.4757C13.098 18.5126 13.1353 18.5315 13.2048 18.5661C13.2326 18.58 13.263 18.5896 13.2881 18.6075C13.3096 18.6228 13.2395 18.5864 13.2153 18.5757C13.1242 18.5354 13.033 18.4952 12.9405 18.4581C12.6956 18.36 12.9943 18.4804 12.8433 18.4219C12.8292 18.4165 12.873 18.428 12.8877 18.4315C12.9522 18.4469 13.0165 18.4626 13.0809 18.478C13.1141 18.486 13.1472 18.4939 13.1804 18.5018C13.2138 18.5099 13.2467 18.5216 13.2809 18.5253C13.3053 18.528 13.2342 18.5103 13.2107 18.5034C13.1392 18.4824 13.079 18.465 13.0063 18.4452C12.9398 18.427 12.8851 18.4124 12.8189 18.3974C12.8009 18.3933 12.7829 18.3894 12.7647 18.3863C12.7574 18.385 12.7496 18.3824 12.7426 18.3845C12.7397 18.3853 12.7464 18.3896 12.7492 18.3908C12.8394 18.4303 12.9449 18.4381 13.0283 18.4932C13.0525 18.5091 13.0944 18.5479 13.0842 18.5838C13.0801 18.5984 13.0659 18.6102 13.0515 18.6163C13.0044 18.6361 12.943 18.621 12.8972 18.6101C12.8704 18.6037 12.8439 18.5955 12.8181 18.5859C12.8071 18.5819 12.7863 18.5805 12.7871 18.5693C12.7878 18.5591 12.8086 18.5669 12.8193 18.5678C12.8502 18.5703 12.8808 18.5752 12.9115 18.5796C12.9724 18.5884 13.0328 18.6015 13.0939 18.6089C13.0954 18.6091 13.0928 18.6059 13.0914 18.6054C13.0248 18.5838 12.9569 18.5661 12.8902 18.5447C12.8605 18.5352 12.772 18.5043 12.8021 18.5129C12.8441 18.5251 12.9825 18.5712 13.0108 18.5808C13.0451 18.5924 13.0795 18.6037 13.1133 18.6164C13.1268 18.6214 13.1583 18.6213 13.1528 18.6339C13.147 18.6469 13.123 18.6307 13.1084 18.6277C13.0355 18.6128 12.9421 18.5876 12.872 18.5691C12.8363 18.5596 12.8008 18.5494 12.765 18.5404C12.7548 18.5378 12.7248 18.5288 12.7339 18.5342C12.7505 18.5441 12.7701 18.548 12.7885 18.5544C12.8301 18.5687 12.872 18.5823 12.9137 18.5963C12.9855 18.6204 13.056 18.6489 13.1294 18.6677C13.1733 18.6789 13.0472 18.6296 13.0055 18.6121C12.8412 18.5434 12.6765 18.4757 12.5107 18.4108C12.4993 18.4063 12.4875 18.4028 12.4764 18.3975C12.4741 18.3965 12.4814 18.3976 12.4838 18.3981C12.5578 18.4127 12.6311 18.4296 12.7055 18.4422C12.7161 18.444 12.7479 18.4494 12.7375 18.4463C12.7188 18.4408 12.6992 18.4381 12.68 18.4346C12.6487 18.429 12.4846 18.4006 12.4465 18.3973C12.4033 18.3935 12.5287 18.4256 12.5708 18.4364C12.6383 18.4537 12.7061 18.4702 12.7735 18.4875C12.8269 18.5012 13.0163 18.5491 13.0878 18.5741C13.1549 18.5976 13.0873 18.5904 13.0694 18.5888C13.0585 18.5878 12.9939 18.5812 12.9761 18.5712C12.9668 18.5659 12.9944 18.5607 13.0045 18.5579C13.0166 18.5546 13.0352 18.5496 13.0145 18.5417C13.0038 18.5376 12.9701 18.534 12.9814 18.5322C12.9861 18.5315 12.9994 18.5313 12.9957 18.5342C12.988 18.5402 12.97 18.5336 12.9603 18.5376C12.948 18.5427 12.9869 18.5431 13.0004 18.5428C13.0907 18.5411 13.1833 18.5448 13.2729 18.5342C13.3299 18.5275 13.4036 18.5006 13.4567 18.536C13.4686 18.5439 13.4521 18.5408 13.4588 18.5484C13.4671 18.5577 13.4828 18.5647 13.493 18.5692C13.5319 18.5864 13.5732 18.5966 13.6138 18.6089C13.658 18.6223 13.6999 18.6405 13.7434 18.6558C13.7905 18.6723 13.8384 18.6847 13.8836 18.7061C13.926 18.7261 13.9631 18.7535 14.0033 18.7769C14.0225 18.788 14.044 18.7991 14.0636 18.8096C14.0864 18.8219 14.1218 18.8349 14.1393 18.8549C14.1526 18.8702 14.1217 18.8659 14.1188 18.8656C14.0765 18.8625 14.0328 18.8487 13.9932 18.8365C13.9064 18.8098 13.7928 18.7692 13.7104 18.7399C13.5363 18.678 13.363 18.6143 13.1889 18.5524C13.133 18.5325 12.993 18.4836 12.933 18.4608C12.8931 18.4456 12.8339 18.4222 12.7941 18.4003C12.7804 18.3928 12.7665 18.3832 12.7579 18.37C12.7511 18.3594 12.7506 18.3502 12.7406 18.3406C12.6833 18.2858 12.5932 18.2964 12.5204 18.2926C12.4853 18.2907 12.4503 18.2898 12.4152 18.2889C12.3693 18.2877 12.3242 18.2806 12.2786 18.2762C12.2401 18.2724 12.2022 18.2726 12.1637 18.2734C12.0979 18.2747 12.0319 18.2716 11.9661 18.2692C11.8695 18.2655 11.773 18.2498 11.6775 18.235C11.6338 18.2282 11.5892 18.2244 11.5461 18.2142C11.5042 18.2043 11.4632 18.19 11.4216 18.179C11.3827 18.1687 11.3436 18.1593 11.3043 18.1508C11.3007 18.1501 11.2543 18.1405 11.2473 18.1388C11.2436 18.1379 11.2352 18.1387 11.2365 18.1353C11.2379 18.1315 11.2447 18.1344 11.2489 18.1345C11.2595 18.1347 11.2702 18.1354 11.2808 18.1362C11.3505 18.1418 11.419 18.154 11.4879 18.1663C11.5797 18.1827 11.672 18.1954 11.7642 18.2096C11.8233 18.2188 11.882 18.2298 11.9409 18.2399C12.0099 18.2517 12.08 18.2637 12.1498 18.2567C12.1578 18.2559 12.2094 18.2416 12.2162 18.2544C12.2287 18.2778 12.0768 18.311 12.0643 18.3141C12.0107 18.3274 11.9575 18.342 11.9035 18.3538C11.8919 18.3563 11.8603 18.359 11.8703 18.3654C11.8777 18.3702 11.8871 18.3713 11.8959 18.3731C11.9305 18.3801 11.9916 18.3875 12.025 18.39C12.083 18.3943 12.1451 18.3949 12.2023 18.3841C12.2152 18.3816 12.2114 18.379 12.2 18.3749C12.1618 18.3612 12.1202 18.3537 12.0803 18.3467C12.0619 18.3435 12.0296 18.3387 12.0096 18.3367C11.9919 18.3349 11.9905 18.3355 12.0103 18.341C12.08 18.3605 12.151 18.3764 12.2209 18.3952" stroke="#F8F2EA" stroke-width="0.75" stroke-linecap="round"/>
    <path d="M18.1599 7.61126C18.1209 7.60177 18.0814 7.59641 18.0425 7.58671C18.0074 7.57796 17.9727 7.56868 17.9373 7.56128C17.9166 7.55695 17.896 7.55373 17.8752 7.55024C17.8515 7.54628 17.8291 7.53841 17.806 7.53205C17.7123 7.50618 17.616 7.51535 17.5207 7.50283C17.5003 7.50015 17.48 7.49611 17.4595 7.49448C17.4373 7.49272 17.4151 7.49368 17.3929 7.49193C17.3491 7.48846 17.306 7.47703 17.2622 7.47428C17.2189 7.47156 17.1752 7.47269 17.1318 7.47217C17.0877 7.47163 17.0434 7.46827 16.9993 7.46566C16.9582 7.46323 16.917 7.46032 16.8759 7.46197C16.8269 7.46395 16.7782 7.47047 16.7291 7.4711C16.6453 7.47216 16.5614 7.48155 16.4783 7.49012C16.4392 7.49416 16.3989 7.50165 16.3609 7.51113C16.3371 7.51706 16.3131 7.52298 16.2898 7.53039C16.2668 7.5377 16.245 7.54772 16.2225 7.55621C16.1831 7.57109 16.1423 7.58233 16.102 7.59485C16.0536 7.60987 16.0038 7.62241 15.9564 7.63964C15.8774 7.6683 15.7997 7.70065 15.7227 7.73341C15.6719 7.75501 15.6192 7.77414 15.5748 7.80651C15.5511 7.82376 15.5285 7.84205 15.5034 7.85749C15.4799 7.87193 15.4547 7.88369 15.4317 7.89879C15.3877 7.92767 15.3504 7.9658 15.309 7.99798C15.2573 8.03823 15.2169 8.08589 15.1738 8.13411C15.1339 8.17878 15.0962 8.22466 15.0584 8.27106C15.0305 8.30538 15.0007 8.3386 14.9743 8.37401C14.9548 8.40005 14.9388 8.42811 14.9238 8.45672C14.9086 8.48578 14.8951 8.51567 14.8799 8.54473C14.8621 8.5786 14.8424 8.61138 14.823 8.64435C14.7823 8.71344 14.7578 8.78878 14.7329 8.8645C14.7224 8.89659 14.7163 8.92898 14.7097 8.96204C14.7021 9.00039 14.6914 9.03782 14.6816 9.07563C14.6719 9.11295 14.6637 9.15063 14.6534 9.18782C14.6432 9.22489 14.6313 9.26152 14.6223 9.29891C14.6073 9.36063 14.6124 9.42255 14.6081 9.48543C14.6029 9.55947 14.5957 9.63317 14.5859 9.70662" stroke="#F8F2EA" stroke-width="0.75" stroke-linecap="round"/>
    <path d="M14.5884 9.71667C14.5869 9.74349 14.5877 9.77017 14.5871 9.797C14.5866 9.82519 14.5824 9.8531 14.5804 9.88118C14.5773 9.92452 14.5788 9.96755 14.5793 10.011C14.5798 10.0667 14.5772 10.1224 14.577 10.1781C14.5766 10.2638 14.5769 10.35 14.5934 10.4349C14.5996 10.4666 14.6074 10.4981 14.6123 10.53C14.6179 10.5665 14.6219 10.6031 14.6307 10.6391C14.6456 10.7005 14.6666 10.7603 14.6861 10.8205C14.6956 10.8498 14.7024 10.8795 14.7107 10.9091C14.7204 10.9438 14.7356 10.9754 14.7535 11.0069C14.7722 11.0399 14.7907 11.0732 14.8107 11.1055C14.8282 11.1338 14.849 11.1602 14.867 11.1883C14.8873 11.2199 14.9073 11.2494 14.9351 11.2757C14.9647 11.3036 14.9955 11.33 15.0242 11.359C15.0467 11.3817 15.0692 11.4048 15.0933 11.426C15.1182 11.4479 15.1466 11.4666 15.1735 11.486C15.2072 11.5102 15.2377 11.5353 15.276 11.5527C15.317 11.5713 15.361 11.5811 15.4004 11.6029C15.4283 11.6183 15.4544 11.6354 15.4846 11.6462C15.5143 11.6568 15.5451 11.663 15.5751 11.6724C15.608 11.6827 15.6413 11.6907 15.6744 11.7002C15.6937 11.7057 15.7128 11.7119 15.7324 11.7166C15.7604 11.7233 15.7892 11.726 15.8177 11.7293C15.8791 11.7365 15.941 11.7452 16.0026 11.749C16.0527 11.752 16.1031 11.7491 16.153 11.7462C16.2108 11.7429 16.2709 11.7403 16.3275 11.7289C16.3743 11.7194 16.4204 11.7087 16.4678 11.7019C16.5393 11.6916 16.6122 11.6928 16.683 11.6785C16.7462 11.6658 16.8074 11.649 16.8692 11.6315C16.9058 11.6211 16.9426 11.6119 16.9801 11.6049C17.0312 11.5954 17.0834 11.5902 17.1336 11.5767C17.1855 11.5627 17.2353 11.542 17.2838 11.5199C17.3024 11.5113 17.3186 11.5024 17.3349 11.4912" stroke="#F8F2EA" stroke-width="0.75" stroke-linecap="round"/>
    <path d="M17.3414 11.485C17.3486 11.4844 17.3562 11.4801 17.363 11.4779C17.3729 11.4747 17.3823 11.4733 17.3926 11.4716C17.4205 11.4671 17.4479 11.4508 17.4739 11.4407C17.4915 11.4339 17.5081 11.4251 17.526 11.4188C17.5509 11.41 17.5766 11.4054 17.6024 11.3996C17.6455 11.39 17.6831 11.3683 17.7229 11.3509C17.7649 11.3326 17.8091 11.3188 17.8509 11.3002C17.9207 11.2691 17.9863 11.2316 18.0515 11.1929C18.0941 11.1676 18.1355 11.1408 18.1773 11.1145C18.2168 11.0897 18.2581 11.0678 18.2982 11.0439C18.3344 11.0224 18.3686 10.9973 18.4062 10.9779C18.4369 10.9621 18.4713 10.9535 18.5029 10.9394C18.5754 10.9069 18.6443 10.8686 18.7141 10.8316C18.7573 10.8087 18.8011 10.7867 18.8445 10.7642C18.8858 10.7428 18.9227 10.7182 18.9605 10.6916C19.047 10.6307 19.1395 10.5774 19.2264 10.517C19.2703 10.4864 19.3095 10.4507 19.3517 10.4181C19.3977 10.3828 19.4408 10.3461 19.4836 10.3074C19.5204 10.2741 19.5573 10.2415 19.5924 10.2066C19.6227 10.1765 19.6544 10.1482 19.6871 10.1204C19.7723 10.048 19.859 9.97524 19.9361 9.89486C19.9695 9.85998 20.0081 9.82365 20.0289 9.77985C20.0445 9.74698 20.0506 9.71121 20.0682 9.67881C20.092 9.63488 20.1203 9.59338 20.1449 9.54984C20.1608 9.52154 20.1762 9.49281 20.191 9.46395C20.2031 9.44045 20.2115 9.41682 20.2218 9.39273" stroke="#F8F2EA" stroke-width="0.75" stroke-linecap="round"/>
    <path d="M20.2161 9.41653C20.2246 9.37073 20.2205 9.32281 20.2249 9.2765C20.2278 9.24658 20.2353 9.21739 20.2382 9.18747C20.2409 9.15925 20.2429 9.13105 20.246 9.10286C20.253 9.04009 20.2597 8.97677 20.246 8.91401C20.2402 8.88739 20.2305 8.86166 20.2242 8.83511C20.2179 8.80827 20.2126 8.78083 20.2091 8.75358C20.2024 8.70148 20.1822 8.65055 20.1595 8.60256C20.1358 8.55259 20.1128 8.50321 20.0844 8.4554C20.0699 8.43087 20.0515 8.40987 20.0314 8.38931C20.0134 8.37089 19.9968 8.34991 19.9771 8.33318C19.952 8.31195 19.9241 8.29277 19.8973 8.27368C19.884 8.26424 19.8708 8.25495 19.8581 8.24473C19.8415 8.23128 19.8265 8.21557 19.8089 8.20331C19.7828 8.18515 19.7521 8.17159 19.7237 8.1572C19.6903 8.1403 19.6571 8.1227 19.6232 8.1066C19.5541 8.0737 19.4786 8.05602 19.4063 8.03108C19.3643 8.01658 19.3223 8.00177 19.2789 7.9919C19.2445 7.98409 19.2094 7.98005 19.1748 7.97338C19.0975 7.95849 19.0199 7.9457 18.9426 7.93086C18.8937 7.92148 18.8446 7.91593 18.7954 7.90851C18.7518 7.90193 18.7094 7.89306 18.67 7.87288C18.6364 7.85572 18.6061 7.83524 18.5701 7.82269C18.5515 7.81621 18.5325 7.81096 18.5142 7.80377C18.494 7.79587 18.4754 7.78502 18.4559 7.77556C18.4216 7.75885 18.3858 7.74549 18.3511 7.72971C18.3222 7.71658 18.2974 7.69962 18.2721 7.68089C18.2523 7.66619 18.2333 7.64912 18.2104 7.63897C18.1895 7.62969 18.1676 7.62237 18.1462 7.61426" stroke="#F8F2EA" stroke-width="0.75" stroke-linecap="round"/>
    <path d="M16.049 32.2333C16.1939 32.2335 16.3401 32.2307 16.485 32.2353C16.5648 32.2379 16.6433 32.2508 16.7229 32.2558C16.9552 32.2705 17.1837 32.2764 17.4152 32.2567C17.5019 32.2493 17.5879 32.2391 17.6738 32.2262C17.7647 32.2125 17.8573 32.2023 17.9469 32.1827C18.0825 32.1531 18.2124 32.0944 18.3398 32.0435C18.4778 31.9883 18.6104 31.9211 18.7495 31.8687C18.9143 31.8065 19.0795 31.7416 19.2396 31.6693C19.3828 31.6047 19.5129 31.5166 19.6491 31.4403C19.806 31.3524 19.9588 31.2645 20.1035 31.1585C20.2659 31.0396 20.4068 30.8993 20.5367 30.7486C20.6098 30.6639 20.6773 30.575 20.751 30.4908C20.8239 30.4075 20.9021 30.329 20.9709 30.2426C21.0416 30.1539 21.1047 30.0608 21.1533 29.959C21.2135 29.8326 21.2653 29.7023 21.3241 29.5753C21.3879 29.4372 21.4475 29.2976 21.5089 29.1585C21.5772 29.0041 21.6513 28.8522 21.7218 28.6988C21.8649 28.3877 21.9681 28.0528 21.9766 27.7082C21.9824 27.4769 21.961 27.242 21.9243 27.0126C21.8791 26.7296 21.7999 26.4536 21.7266 26.1761" stroke="#F8F2EA" stroke-width="0.75" stroke-linecap="round"/>
    <path d="M21.8304 28.381C21.8406 28.2764 21.8597 28.1737 21.8664 28.0687C21.872 27.9801 21.8791 27.8916 21.8859 27.8031C21.8952 27.6827 21.8918 27.5599 21.9139 27.4409C21.9301 27.3542 21.9281 27.267 21.936 27.1793" stroke="#F8F2EA" stroke-width="0.75" stroke-linecap="round"/>
    <path d="M16.1496 32.2443C16.0812 32.2401 16.0131 32.2313 15.9451 32.2226C15.8464 32.2099 15.7496 32.1987 15.6543 32.1682C15.5365 32.1304 15.4239 32.0819 15.3154 32.0233C15.1863 31.9536 15.0574 31.887 14.9236 31.8264C14.6532 31.7038 14.3852 31.5713 14.1376 31.4087C14.0225 31.3331 13.9123 31.2506 13.8068 31.1629C13.6897 31.0654 13.5875 30.9587 13.4916 30.8422C13.4111 30.7445 13.3409 30.6435 13.2768 30.5354C13.2103 30.4234 13.1388 30.3146 13.0649 30.2068C13.0159 30.1352 12.9647 30.0645 12.919 29.991C12.8612 29.8981 12.8307 29.7976 12.7918 29.6971C12.7649 29.6278 12.7305 29.5615 12.703 29.4925C12.6711 29.4123 12.6432 29.3303 12.6135 29.2494C12.5796 29.1569 12.5583 29.0643 12.5365 28.9691C12.5233 28.9111 12.5061 28.8544 12.489 28.7973C12.4751 28.7508 12.4652 28.7044 12.4534 28.6576" stroke="#F8F2EA" stroke-width="0.75" stroke-linecap="round"/>
    <path d="M12.4597 28.6102C12.4451 28.5647 12.4351 28.5204 12.429 28.4733C12.4229 28.4258 12.4126 28.3797 12.4092 28.3317C12.403 28.2461 12.4101 28.1619 12.4081 28.0765C12.407 28.0283 12.4009 27.9803 12.399 27.9322C12.397 27.8794 12.3974 27.8265 12.3981 27.7738C12.4002 27.6009 12.4401 27.4327 12.4603 27.2619C12.4696 27.1829 12.4713 27.103 12.4795 27.0239C12.4912 26.9111 12.5176 26.8003 12.5472 26.6912C12.5728 26.5969 12.5998 26.503 12.6288 26.4096C12.6546 26.3267 12.6889 26.2473 12.7184 26.1657C12.746 26.0895 12.7748 26.0152 12.8102 25.942C12.8434 25.8737 12.8826 25.8086 12.9182 25.7415C12.9607 25.6616 13.0071 25.5845 13.0528 25.5064C13.1162 25.3982 13.1684 25.2837 13.2248 25.172C13.2761 25.0705 13.341 24.9788 13.4034 24.8837C13.4589 24.799 13.5218 24.7193 13.5822 24.6378" stroke="#F8F2EA" stroke-width="0.75" stroke-linecap="round"/>
    <path d="M13.5943 24.6434C13.6456 24.5833 13.7061 24.5296 13.7639 24.4755C13.7933 24.4479 13.8233 24.4213 13.8536 24.3947C13.9129 24.3427 13.9672 24.2846 14.032 24.2388C14.0805 24.2046 14.1341 24.1769 14.1845 24.1455C14.2636 24.0962 14.3396 24.0426 14.4211 23.9968C14.5503 23.9244 14.6957 23.8914 14.8343 23.8392C14.9591 23.7922 15.0711 23.7217 15.1923 23.6675C15.256 23.639 15.3218 23.6145 15.385 23.5853C15.4417 23.5591 15.4884 23.5211 15.5327 23.4789C15.6073 23.4077 15.6687 23.326 15.7368 23.2494C15.7609 23.2223 15.7842 23.1932 15.7978 23.1595C15.8227 23.0978 15.8281 23.0266 15.8295 22.9606C15.8306 22.9102 15.8248 22.861 15.8157 22.8112C15.8051 22.7535 15.7978 22.6944 15.7826 22.6376C15.7546 22.5333 15.6898 22.4522 15.5953 22.3943C15.5426 22.362 15.4847 22.3389 15.4272 22.3161C15.3516 22.286 15.276 22.2633 15.196 22.2474C15.121 22.2326 15.0514 22.225 14.9755 22.2304C14.8608 22.2386 14.7457 22.2459 14.6316 22.2593C14.5601 22.2677 14.4897 22.2748 14.4173 22.2746C14.3233 22.2742 14.2318 22.2615 14.1394 22.2438C13.9872 22.2146 13.8374 22.1791 13.6875 22.1399C13.486 22.0873 13.2827 22.0431 13.0811 21.991C12.9471 21.9563 12.812 21.9246 12.6838 21.8719" stroke="#F8F2EA" stroke-width="0.75" stroke-linecap="round"/>
    <path d="M21.7365 26.1703C21.725 26.1273 21.7121 26.084 21.6969 26.042C21.6741 25.9789 21.6388 25.9204 21.6095 25.8599C21.5332 25.7025 21.4637 25.5448 21.417 25.3773C21.3945 25.2965 21.368 25.2175 21.3365 25.1393C21.3085 25.0698 21.2736 25.0035 21.2432 24.935C21.2104 24.861 21.1772 24.7884 21.1341 24.719C21.0771 24.6274 21.016 24.5377 20.9475 24.4535C20.8251 24.3034 20.702 24.1463 20.6348 23.9656C20.6058 23.8877 20.5836 23.8078 20.5484 23.732C20.5164 23.663 20.4842 23.5942 20.4529 23.5249C20.4187 23.4491 20.3877 23.3723 20.3649 23.2928C20.3356 23.1906 20.3172 23.086 20.2954 22.9824C20.2701 22.862 20.2351 22.7426 20.2249 22.6202C20.2163 22.5166 20.2162 22.4123 20.2131 22.3086" stroke="#F8F2EA" stroke-width="0.75" stroke-linecap="round"/>
    <path d="M20.2196 22.3154C20.2173 22.2384 20.2189 22.1612 20.2215 22.0842C20.2228 22.0454 20.2203 22.0039 20.2346 21.9672C20.2471 21.9349 20.2657 21.906 20.2843 21.8768C20.3208 21.8195 20.3604 21.7639 20.4031 21.7107C20.4606 21.6389 20.5225 21.5702 20.5816 21.4996C20.6627 21.4028 20.7447 21.307 20.8415 21.2238C20.9182 21.1579 21.0011 21.1045 21.096 21.0646C21.244 21.0025 21.4018 20.9639 21.5556 20.9171C21.8285 20.834 22.0856 20.7019 22.3181 20.5449C22.5751 20.3713 22.8297 20.1947 23.0829 20.0162C23.1813 19.9469 23.282 19.8815 23.3836 19.8167C23.5299 19.7234 23.6712 19.6253 23.8039 19.5148C24.0249 19.3306 24.1994 19.1049 24.382 18.8868" stroke="#F8F2EA" stroke-width="0.75" stroke-linecap="round"/>
    <path d="M24.4129 18.8506C24.4637 18.814 24.5141 18.7776 24.5586 18.734C24.5976 18.6958 24.6326 18.6537 24.6678 18.6123C24.7559 18.5089 24.8379 18.4019 24.9163 18.2916C25.0244 18.1396 25.1391 17.992 25.2617 17.8506C25.3216 17.7815 25.3868 17.7172 25.4517 17.6525C25.522 17.5826 25.5881 17.5112 25.6508 17.4349C25.7704 17.2892 25.8982 17.1493 26.0249 17.0093C26.0899 16.9375 26.1544 16.865 26.2098 16.7859C26.2624 16.7109 26.3083 16.6311 26.3554 16.5528C26.4296 16.4292 26.5015 16.3043 26.5786 16.1823C26.6277 16.1047 26.6828 16.0306 26.7257 15.9494C26.8042 15.8013 26.8694 15.646 26.9349 15.4922" stroke="#F8F2EA" stroke-width="0.75" stroke-linecap="round"/>
    <path d="M26.9534 15.4505C27.0034 15.3564 27.0669 15.2699 27.1166 15.1756C27.2009 15.0156 27.267 14.8475 27.3545 14.6888C27.4162 14.5769 27.4724 14.4629 27.5307 14.3493C27.5788 14.2557 27.6348 14.1651 27.6901 14.0754C27.7489 13.9799 27.8144 13.8889 27.8778 13.7962C27.9526 13.6867 28.0206 13.5733 28.0869 13.4588C28.1937 13.2742 28.3062 13.0871 28.3595 12.8798C28.4037 12.7075 28.4522 12.5397 28.5218 12.3756C28.5869 12.2221 28.6258 12.056 28.6284 11.8885C28.6297 11.81 28.6144 11.7319 28.6089 11.6536C28.6051 11.6006 28.6032 11.5475 28.6073 11.4946" stroke="#F8F2EA" stroke-width="0.75" stroke-linecap="round"/>
    <path d="M28.6118 11.4982C28.6315 11.4079 28.6441 11.3158 28.6582 11.2245C28.6868 11.0396 28.7352 10.8532 28.7318 10.6647C28.7304 10.5929 28.7181 10.5218 28.7068 10.4507C28.6921 10.3586 28.6796 10.2662 28.6624 10.1744C28.625 9.97597 28.576 9.77457 28.4897 9.58881C28.4121 9.42183 28.2788 9.29097 28.134 9.17421C28.0484 9.10517 27.9584 9.0386 27.867 8.9769C27.7622 8.90615 27.6505 8.85186 27.5334 8.80306C27.3655 8.73304 27.1988 8.65559 27.0159 8.63502C26.803 8.61108 26.6014 8.64972 26.4174 8.7493C26.3513 8.7851 26.2857 8.82514 26.2267 8.87088C26.1441 8.93478 26.0817 9.01687 26.0136 9.09393C25.9117 9.20922 25.8003 9.31519 25.7039 9.43513C25.6574 9.49301 25.6127 9.55218 25.5666 9.61039C25.4868 9.71133 25.403 9.80942 25.3243 9.91114C25.2456 10.0128 25.1778 10.1195 25.1135 10.2301C25.0485 10.3417 24.9826 10.4534 24.9255 10.5693C24.812 10.7998 24.7363 11.0461 24.6168 11.2741C24.5226 11.4537 24.3812 11.6024 24.2824 11.779C24.2437 11.8481 24.2088 11.9192 24.1704 11.9885C24.1159 12.0866 24.0572 12.1826 23.997 12.2775C23.9275 12.3874 23.8583 12.4967 23.7957 12.6105C23.7536 12.687 23.7116 12.7633 23.6686 12.8393" stroke="#F8F2EA" stroke-width="0.75" stroke-linecap="round"/>
    <path d="M23.6817 12.8297C23.6499 12.8722 23.6192 12.9151 23.5923 12.9608C23.5587 13.018 23.5274 13.0748 23.488 13.1287C23.4395 13.1948 23.387 13.2581 23.3397 13.3251C23.2824 13.4063 23.2314 13.4906 23.1853 13.5782C23.1321 13.6792 23.0793 13.7804 23.0282 13.8824C22.9693 13.9999 22.9155 14.1196 22.8508 14.2342C22.7822 14.3556 22.7041 14.4701 22.6164 14.5795C22.5298 14.6875 22.4319 14.7862 22.3415 14.8912C22.2445 15.0038 22.1494 15.1171 22.0457 15.2241C21.9361 15.3372 21.8278 15.4509 21.7214 15.5668C21.6087 15.6896 21.4937 15.8151 21.3585 15.9159C21.2958 15.9626 21.2273 16.002 21.1614 16.0442C21.0958 16.0862 21.0321 16.1309 20.9657 16.1717C20.8564 16.2389 20.7348 16.2808 20.6176 16.3334C20.4817 16.3945 20.3494 16.4629 20.2208 16.5367C20.1135 16.5982 20.0075 16.661 19.8973 16.7179C19.8421 16.7464 19.7868 16.7757 19.7291 16.7996C19.6826 16.8189 19.6351 16.8298 19.5869 16.8443" stroke="#F8F2EA" stroke-width="0.75" stroke-linecap="round"/>
    <path d="M19.5503 16.8507C19.4804 16.8715 19.4088 16.8864 19.3397 16.9096C19.2969 16.9239 19.2553 16.9404 19.2118 16.9531C19.1363 16.9751 19.0586 16.9897 18.9823 17.0088C18.8664 17.0377 18.7548 17.0783 18.6412 17.1136C18.5845 17.1313 18.5269 17.1464 18.47 17.1638C18.3768 17.1924 18.2868 17.2295 18.1926 17.2555C18.0357 17.2989 17.8696 17.3249 17.7064 17.3387C17.6228 17.3457 17.5387 17.3503 17.4548 17.3533C17.323 17.358 17.1916 17.3522 17.0597 17.3487C16.8606 17.3433 16.6625 17.3475 16.4638 17.3533C16.235 17.3599 16.0066 17.344 15.7779 17.3314C15.3257 17.3065 14.8736 17.2852 14.4225 17.2408C14.2143 17.2202 14.0063 17.2053 13.8 17.1681C13.554 17.1237 13.3107 17.0618 13.0681 17.0015C12.87 16.9523 12.6782 16.8857 12.484 16.8236C12.2741 16.7565 12.0605 16.7005 11.8541 16.623C11.7073 16.5679 11.5694 16.5011 11.4328 16.4255C11.3827 16.3977 11.3329 16.3701 11.2867 16.3364C11.234 16.2979 11.1902 16.2536 11.1443 16.2085" stroke="#F8F2EA" stroke-width="0.75" stroke-linecap="round"/>
    <path d="M11.2034 16.2747C11.1499 16.252 11.0974 16.2283 11.0426 16.2086C10.9325 16.169 10.8226 16.1259 10.7106 16.0918C10.6593 16.0762 10.6079 16.0616 10.5576 16.0428C10.4906 16.0177 10.425 15.9888 10.3591 15.9611C10.1922 15.8911 10.0296 15.8193 9.87776 15.7211C9.78053 15.6583 9.68659 15.5886 9.60047 15.5121C9.49601 15.4194 9.40958 15.3105 9.31031 15.213C9.26066 15.1642 9.20838 15.118 9.15876 15.0692C9.08333 14.9951 9.01348 14.9158 8.94268 14.8377C8.81772 14.6997 8.68906 14.5637 8.57463 14.4176C8.47621 14.2919 8.37875 14.1654 8.28849 14.0342C8.16322 13.8522 8.04649 13.6645 7.93194 13.4763C7.84174 13.3281 7.76577 13.1728 7.67475 13.025C7.58468 12.8788 7.49015 12.735 7.41377 12.5817C7.35686 12.4675 7.31597 12.3472 7.25969 12.2328C7.18405 12.079 7.08757 11.935 7.00192 11.7862C6.96756 11.7266 6.93645 11.6657 6.90452 11.6049C6.87143 11.5419 6.83301 11.4812 6.80694 11.4151C6.78438 11.3579 6.76943 11.2985 6.74933 11.2405C6.71991 11.1558 6.68142 11.0744 6.64502 10.9922" stroke="#F8F2EA" stroke-width="0.75" stroke-linecap="round"/>
    <path d="M6.64177 10.9837C6.61821 10.9428 6.60318 10.8964 6.58323 10.8538C6.53995 10.7614 6.47903 10.6704 6.40956 10.5937C6.37886 10.5599 6.3439 10.5322 6.30569 10.5065C6.24527 10.4658 6.18232 10.4267 6.1187 10.3909C6.02955 10.3407 5.93729 10.2945 5.83994 10.2613C5.72292 10.2215 5.60079 10.1907 5.4804 10.1629C5.32543 10.1271 5.15831 10.1126 5.00945 10.1726C4.93325 10.2033 4.87463 10.2548 4.81099 10.3033C4.7581 10.3435 4.70122 10.3786 4.64819 10.4186C4.61158 10.4463 4.57589 10.4763 4.54543 10.5102C4.49352 10.5681 4.45611 10.6362 4.42263 10.7051C4.35941 10.8353 4.32533 10.9741 4.28401 11.1118C4.26868 11.1629 4.25061 11.2133 4.23755 11.2651C4.22153 11.3286 4.21685 11.3932 4.21561 11.4587C4.21313 11.5897 4.20956 11.724 4.22568 11.8548C4.2354 11.9336 4.25283 12.0108 4.26022 12.09C4.26577 12.1495 4.27003 12.2092 4.27889 12.2684C4.28712 12.3234 4.29992 12.3778 4.30916 12.4328C4.33085 12.5618 4.33288 12.6923 4.35429 12.8215C4.36694 12.8978 4.3803 12.9735 4.38509 13.0506C4.38952 13.122 4.38813 13.1933 4.39351 13.2646C4.40559 13.4246 4.45162 13.581 4.48263 13.7386C4.51464 13.9012 4.5497 14.0615 4.59615 14.2213" stroke="#F8F2EA" stroke-width="0.75" stroke-linecap="round"/>
    <path d="M5.15588 10.1549C5.15552 10.16 5.13204 10.1695 5.12794 10.1721C5.11739 10.1788 5.10745 10.1863 5.09693 10.1931C5.07206 10.209 5.04795 10.2263 5.02161 10.24C4.96932 10.2673 4.91674 10.2975 4.8546 10.2969" stroke="#F8F2EA" stroke-width="0.75" stroke-linecap="round"/>
    <path d="M12.7333 21.8964C12.6703 21.8753 12.6094 21.8492 12.5479 21.8243C12.3993 21.7643 12.2507 21.7061 12.0975 21.6586C11.8132 21.5704 11.5316 21.4734 11.2539 21.3665C11.0443 21.2859 10.8481 21.1826 10.6466 21.0852C10.4525 20.9914 10.2554 20.9044 10.0643 20.8046C9.91949 20.7289 9.77722 20.6495 9.62503 20.5885C9.49635 20.537 9.37932 20.4659 9.26278 20.3924C9.11764 20.3008 8.9859 20.1956 8.85087 20.0911C8.68414 19.962 8.50352 19.8549 8.3233 19.7447C8.16596 19.6485 8.00722 19.5559 7.85982 19.4455C7.65969 19.2956 7.45425 19.1517 7.25791 18.9972C7.05213 18.8352 6.85631 18.6617 6.67191 18.4775C6.56583 18.3716 6.45903 18.263 6.37094 18.1426C6.30149 18.0476 6.2494 17.9426 6.1907 17.8417C6.08914 17.6672 5.99044 17.4892 5.87997 17.3195C5.74358 17.1101 5.58647 16.9139 5.46965 16.6933C5.43296 16.6241 5.39982 16.5533 5.36412 16.4836C5.30377 16.3658 5.2346 16.2518 5.1782 16.1323C5.11775 16.0041 5.07561 15.8703 5.02735 15.738C4.99574 15.6513 4.96079 15.5658 4.92578 15.4803" stroke="#F8F2EA" stroke-width="0.75" stroke-linecap="round"/>
    <path d="M6.92511 18.6873C6.877 18.6468 6.83188 18.6031 6.79031 18.5565C6.72916 18.4879 6.68256 18.4099 6.62371 18.34C6.60301 18.3154 6.57949 18.2951 6.55422 18.2749C6.50893 18.2389 6.46824 18.1992 6.43115 18.1553C6.35878 18.0698 6.28506 17.9846 6.21606 17.8966" stroke="#F8F2EA" stroke-width="0.75" stroke-linecap="round"/>
    <path d="M4.60791 14.2534C4.61075 14.3 4.63767 14.3496 4.65066 14.3947C4.66819 14.4555 4.67888 14.5156 4.69009 14.5775C4.70579 14.6643 4.72405 14.7504 4.73554 14.8377C4.74329 14.8965 4.75115 14.9544 4.76334 15.0127C4.7853 15.1178 4.82446 15.2172 4.86079 15.3188C4.88334 15.3818 4.91218 15.4377 4.9478 15.4938" stroke="#F8F2EA" stroke-width="0.75" stroke-linecap="round"/>
    <path d="M17.4745 14.6854C17.5713 14.6593 17.6677 14.6362 17.7623 14.6041C17.8642 14.5695 17.9702 14.5491 18.071 14.5111C18.2478 14.4445 18.4059 14.3511 18.5591 14.2451C18.6988 14.1486 18.8394 14.0535 18.9766 13.9537C19.1252 13.8455 19.268 13.7358 19.4332 13.6507C19.5818 13.5742 19.7332 13.4969 19.8657 13.3966C20.0099 13.2875 20.1537 13.1766 20.295 13.0641C20.6173 12.8077 20.8909 12.5085 21.1518 12.1958C21.2709 12.0531 21.3899 11.9125 21.5006 11.7635C21.6163 11.6079 21.7287 11.4494 21.8492 11.2971C21.9243 11.2022 21.9961 11.1134 22.0499 11.0047C22.1012 10.9009 22.1505 10.7954 22.1948 10.6885C22.2328 10.5969 22.2712 10.5078 22.2962 10.4116C22.3226 10.3101 22.3469 10.2084 22.3768 10.1078" stroke="#F8F2EA" stroke-width="0.75" stroke-linecap="round"/>
    <path d="M17.4529 14.6978C17.2794 14.7124 17.1185 14.7788 16.9473 14.8058C16.6738 14.849 16.4038 14.8881 16.1245 14.8739C15.7707 14.8558 15.4186 14.8453 15.0655 14.8099C14.9057 14.7939 14.756 14.77 14.6049 14.7134C14.4692 14.6626 14.3405 14.5954 14.2117 14.53C14.0438 14.4447 13.8709 14.3683 13.7045 14.2804C13.5542 14.201 13.4255 14.0998 13.2924 13.9968C13.1581 13.8927 13.0164 13.7983 12.8818 13.6947C12.742 13.587 12.6034 13.4776 12.4692 13.3635C12.3437 13.2569 12.2168 13.1509 12.1081 13.0281C11.9943 12.8996 11.8883 12.7667 11.7695 12.642C11.6266 12.4921 11.492 12.3353 11.3492 12.1852C11.2236 12.0533 11.1012 11.9209 10.9827 11.7833" stroke="#F8F2EA" stroke-width="0.75" stroke-linecap="round"/>
    <path d="M14.5362 14.6595C14.5749 14.6692 14.6171 14.6694 14.6548 14.6814C14.6843 14.6907 14.7101 14.7096 14.7388 14.7211C14.7604 14.7298 14.7836 14.7342 14.8061 14.7398C14.8705 14.7559 14.935 14.7719 14.9994 14.788" stroke="#F8F2EA" stroke-width="0.75" stroke-linecap="round"/>
    <path d="M11.3368 12.0642C11.1633 11.8691 11.0131 11.6596 10.8969 11.4296C10.8672 11.3709 10.8407 11.311 10.825 11.2475C10.8045 11.1642 10.7967 11.0799 10.772 10.9972C10.7494 10.9217 10.715 10.8502 10.691 10.7751C10.6632 10.6879 10.6424 10.5989 10.6178 10.5109C10.5885 10.4062 10.556 10.3022 10.5345 10.1959C10.514 10.0945 10.5002 9.99265 10.4736 9.89229C10.4513 9.80825 10.4278 9.72453 10.4057 9.64041C10.3643 9.48214 10.3124 9.32542 10.2844 9.16447C10.2556 8.99909 10.2644 8.83567 10.2749 8.6701C10.2853 8.50713 10.2864 8.34403 10.3123 8.18266C10.3377 8.02426 10.3724 7.86875 10.4247 7.71695C10.4894 7.52909 10.5584 7.34232 10.6511 7.16583C10.7021 7.06889 10.7552 6.97342 10.8027 6.87475C10.8519 6.77266 10.896 6.66827 10.9475 6.56726C11.0259 6.41359 11.1212 6.2699 11.2173 6.12648" stroke="#F8F2EA" stroke-width="0.75" stroke-linecap="round"/>
    <path d="M11.2129 6.1449C11.2501 6.11082 11.2875 6.07689 11.3172 6.03632C11.3547 5.98509 11.382 5.9266 11.4169 5.87357C11.5214 5.71427 11.6371 5.56348 11.7578 5.41526C11.9189 5.21753 12.0863 5.02677 12.2842 4.8621C12.4678 4.70941 12.6438 4.54857 12.8502 4.42353C13.0489 4.30321 13.2609 4.21333 13.4724 4.11601C13.7279 3.99846 13.9722 3.86718 14.2428 3.78094C14.3639 3.74236 14.4879 3.71053 14.612 3.68169C14.7697 3.64506 14.9296 3.6281 15.0909 3.60999C15.4765 3.56668 15.8677 3.53977 16.2563 3.52611C16.4188 3.52041 16.5814 3.52173 16.7436 3.53936C16.9645 3.56338 17.1819 3.61538 17.3974 3.66874C17.8327 3.77655 18.2625 3.89958 18.689 4.03758C19.0722 4.16155 19.4821 4.25441 19.8219 4.47632C19.9878 4.58468 20.1433 4.70832 20.2923 4.83717C20.4775 4.99737 20.6581 5.16594 20.8175 5.35015C20.9286 5.47854 21.0315 5.61319 21.142 5.74214C21.2736 5.89583 21.4073 6.04827 21.5402 6.20097C21.6539 6.33162 21.7771 6.45423 21.8925 6.58345C22.0532 6.76331 22.211 6.94892 22.3468 7.14669C22.4498 7.29665 22.5457 7.45459 22.61 7.62315C22.6489 7.72511 22.6679 7.80022 22.6938 7.90691C22.7401 8.09714 22.784 8.29171 22.8069 8.4855C22.8215 8.60928 22.8263 8.73719 22.8124 8.86075C22.7882 9.07541 22.7201 9.28444 22.648 9.48681C22.5502 9.76107 22.4373 10.0307 22.3323 10.3023" stroke="#F8F2EA" stroke-width="0.75" stroke-linecap="round"/>
    <path d="M21.6743 6.15714C21.6156 6.08787 21.5773 6.00421 21.5127 5.93844C21.4891 5.9144 21.4644 5.89223 21.4425 5.86666C21.4175 5.83749 21.3909 5.80912 21.363 5.78242C21.2886 5.71109 21.214 5.63877 21.1355 5.57166" stroke="#F8F2EA" stroke-width="0.75" stroke-linecap="round"/>
    <path d="M21.6631 6.15625C21.682 6.17874 21.6972 6.20299 21.7128 6.22758" stroke="#F8F2EA" stroke-width="0.75" stroke-linecap="round"/>
    <path d="M21.6685 6.15759C21.6867 6.16693 21.6946 6.18311 21.7051 6.19886" stroke="#F8F2EA" stroke-width="0.75" stroke-linecap="round"/>
    <path d="M13.8257 4.79366C13.8365 4.79225 13.8471 4.78872 13.8576 4.78626C13.896 4.77734 13.9301 4.76095 13.9654 4.74506C14.0084 4.72571 14.0527 4.71537 14.099 4.70543C14.1466 4.6952 14.1945 4.68535 14.2417 4.67329C14.2795 4.66363 14.3163 4.65271 14.352 4.6373C14.3759 4.62694 14.3984 4.6141 14.4219 4.60299C14.4454 4.59191 14.4701 4.58345 14.4949 4.57557C14.5688 4.55216 14.6416 4.52715 14.7132 4.49843C14.7516 4.48304 14.791 4.46982 14.8296 4.45494C14.8691 4.43972 14.9079 4.42446 14.9496 4.4148C14.9971 4.40378 15.0459 4.40181 15.0942 4.39496C15.1376 4.38882 15.1801 4.37857 15.2227 4.36933C15.3228 4.34765 15.4259 4.34338 15.5263 4.32363C15.6372 4.30182 15.7482 4.28003 15.8623 4.27843C15.9217 4.2776 15.9809 4.2756 16.0401 4.27194C16.1063 4.26784 16.1721 4.26011 16.2386 4.25898C16.2862 4.25818 16.3336 4.25626 16.3812 4.25508C16.437 4.2537 16.4932 4.2577 16.5491 4.25811C16.6026 4.2585 16.6555 4.26102 16.7087 4.26857C16.7755 4.27806 16.8425 4.28211 16.9095 4.2896C17.0565 4.30604 17.1999 4.34598 17.3408 4.39021C17.4258 4.41693 17.5116 4.44194 17.5948 4.47398C17.7039 4.51594 17.8126 4.55821 17.9222 4.59881" stroke="#F8F2EA" stroke-width="0.75" stroke-linecap="round"/>
    <path d="M13.835 4.79591C13.8504 4.82128 13.8587 4.84974 13.8707 4.87642C13.8773 4.89101 13.8899 4.90469 13.9033 4.91385C13.914 4.92116 13.9239 4.9276 13.9374 4.92788C13.9616 4.92839 13.9868 4.92367 14.0102 4.91909C14.0584 4.90969 14.1063 4.8993 14.1534 4.88619C14.1815 4.87837 14.2092 4.86919 14.2375 4.86182C14.2625 4.85527 14.2883 4.85319 14.3139 4.84905C14.3517 4.84293 14.389 4.83339 14.426 4.82391C14.4442 4.81925 14.4621 4.81289 14.4805 4.80909C14.5468 4.79542 14.6136 4.79014 14.6812 4.78557C14.754 4.78066 14.8274 4.77929 14.9004 4.77651C15.0131 4.77222 15.1262 4.78005 15.2389 4.77687C15.2991 4.77517 15.3592 4.77177 15.4195 4.771C15.4865 4.77014 15.5536 4.77271 15.6206 4.77322C15.7625 4.77432 15.9043 4.77332 16.0462 4.77342C16.1904 4.77352 16.3354 4.76995 16.4796 4.77913C16.6261 4.78846 16.773 4.78741 16.9189 4.80683C16.9814 4.81513 17.0428 4.82947 17.1053 4.83791C17.1778 4.84772 17.2508 4.85235 17.3236 4.85969C17.4164 4.86906 17.5096 4.87939 17.6021 4.89218C17.6881 4.90409 17.7737 4.9202 17.8593 4.93519" stroke="#F8F2EA" stroke-width="0.75" stroke-linecap="round"/>
    <path d="M16.9436 4.82637C16.9207 4.83253 16.8948 4.83156 16.8712 4.82975C16.8501 4.82814 16.8296 4.82604 16.8085 4.82634C16.7687 4.82691 16.7299 4.82533 16.6901 4.82111C16.5964 4.81114 16.5029 4.79664 16.409 4.78985C16.3563 4.78605 16.3044 4.78462 16.2518 4.78802C16.2141 4.79046 16.1768 4.79386 16.1389 4.79329" stroke="#F8F2EA" stroke-width="0.75" stroke-linecap="round"/>
    <path d="M16.602 4.80581C16.584 4.80899 16.5658 4.81118 16.5475 4.81178C16.5288 4.8124 16.5088 4.81398 16.4901 4.8116C16.4585 4.80757 16.4271 4.80439 16.3952 4.80314C16.3835 4.80267 16.3724 4.80463 16.3608 4.80565C16.3403 4.80746 16.3202 4.80629 16.2997 4.80376C16.2782 4.8011 16.2569 4.80033 16.2353 4.79918C16.2148 4.79809 16.1943 4.79488 16.1739 4.79239" stroke="#F8F2EA" stroke-width="0.75" stroke-linecap="round"/>
    <path d="M16.9711 4.82553C16.964 4.83272 16.9507 4.82912 16.9413 4.82815C16.9265 4.82662 16.9118 4.8269 16.897 4.82667" stroke="#F8F2EA" stroke-width="0.75" stroke-linecap="round"/>
    <path d="M16.9705 4.83309C16.9602 4.83915 16.9471 4.83626 16.9357 4.83491C16.9227 4.83338 16.9091 4.83212 16.896 4.83231C16.8554 4.83289 16.8148 4.82884 16.7742 4.82465C16.7459 4.82172 16.7174 4.82287 16.689 4.82043C16.664 4.81829 16.6385 4.80956 16.6135 4.81012C16.5992 4.81043 16.5856 4.81317 16.5712 4.81241C16.552 4.81139 16.5331 4.80963 16.5141 4.80706" stroke="#F8F2EA" stroke-width="0.75" stroke-linecap="round"/>
    <path d="M16.6299 4.81052C16.615 4.80757 16.5998 4.80874 16.5848 4.8082" stroke="#F8F2EA" stroke-width="0.75" stroke-linecap="round"/>
    <path d="M16.6402 4.81638C16.6161 4.81225 16.5912 4.81407 16.567 4.81444" stroke="#F8F2EA" stroke-width="0.75" stroke-linecap="round"/>
    <path d="M17.9339 4.60513C17.9838 4.62752 18.0335 4.65003 18.0835 4.67215C18.1139 4.68563 18.1456 4.69602 18.1771 4.70681C18.2475 4.73097 18.3141 4.76347 18.3811 4.79543C18.4448 4.8258 18.506 4.85878 18.5633 4.8995C18.5921 4.91992 18.6204 4.94077 18.6479 4.96276C18.6719 4.98202 18.6972 4.99981 18.7212 5.01917C18.7332 5.02892 18.7445 5.0401 18.7578 5.04827C18.7582 5.04846 18.7673 5.05227 18.7673 5.05334C18.7674 5.05849 18.7569 5.05629 18.7515 5.05606C18.7209 5.05472 18.6911 5.04638 18.6602 5.04576C18.6089 5.04473 18.5583 5.05352 18.5069 5.05265C18.4682 5.052 18.4312 5.04646 18.3938 5.03641C18.3687 5.02969 18.3439 5.02224 18.3186 5.0165C18.2894 5.00989 18.2599 5.00563 18.2305 5.00052C18.1572 4.98779 18.084 4.97448 18.0109 4.96096C17.9328 4.9465 17.8541 4.9349 17.7756 4.92277" stroke="#F8F2EA" stroke-width="0.75" stroke-linecap="round"/>
    <path d="M18.6261 5.01182C18.5578 4.99832 18.4885 4.99237 18.4193 4.98629C18.3534 4.98051 18.2874 4.97531 18.2215 4.96983" stroke="#F8F2EA" stroke-width="0.75" stroke-linecap="round"/>
    <path d="M18.5657 4.98142L18.5649 4.97546" stroke="#F8F2EA" stroke-width="0.75" stroke-linecap="round"/>
    <path d="M18.603 4.98269C18.5265 4.94016 18.4507 4.89671 18.3674 4.86778C18.2628 4.83148 18.1558 4.80333 18.0523 4.76364C17.997 4.7424 17.9429 4.71814 17.8876 4.69701C17.8167 4.66999 17.7445 4.64827 17.6714 4.62792C17.5557 4.59571 17.4396 4.56458 17.3233 4.53495C17.2781 4.52343 17.2328 4.512 17.1874 4.50127C16.9172 4.43742 17.1851 4.50303 16.9182 4.44306" stroke="#F8F2EA" stroke-width="0.75" stroke-linecap="round"/>
    <path d="M18.5603 4.95197C18.402 4.92212 18.2407 4.91299 18.081 4.89378C18.001 4.88415 17.9529 4.87732 17.8741 4.86303C17.8425 4.85731 17.8111 4.85114 17.7797 4.84444C17.6343 4.81336 17.7608 4.83822 17.6274 4.8071" stroke="#F8F2EA" stroke-width="0.75" stroke-linecap="round"/>
    <path d="M18.3751 4.86379C18.3583 4.85596 18.3398 4.85079 18.3222 4.84517C18.3008 4.83837 18.2793 4.83175 18.2578 4.82556C18.2007 4.80915 18.1445 4.78996 18.088 4.77166C18.0604 4.76272 18.0329 4.75343 18.0053 4.74453C17.9796 4.73623 17.9515 4.72971 17.9284 4.71537C17.9138 4.70633 17.9005 4.69534 17.8859 4.6863C17.8603 4.67051 17.8335 4.65461 17.8063 4.6417C17.7771 4.62783 17.7453 4.61974 17.7153 4.60763C17.6713 4.58987 17.6295 4.56734 17.5864 4.54782C17.4485 4.48554 17.3008 4.453 17.1555 4.41273C17.0712 4.38936 16.9871 4.36504 16.9021 4.34416C16.8727 4.33692 16.8151 4.32346 16.7847 4.31824C16.724 4.30778 16.6637 4.30462 16.6025 4.30886C16.5053 4.31559 16.4109 4.33815 16.3132 4.34132C16.2616 4.34299 16.2122 4.34059 16.1605 4.33877C16.0916 4.33633 16.0226 4.33385 15.9537 4.33132" stroke="#F8F2EA" stroke-width="0.75" stroke-linecap="round"/>
    <path d="M16.9477 4.43934C16.7495 4.42082 16.5521 4.39354 16.354 4.37466" stroke="#F8F2EA" stroke-width="0.75" stroke-linecap="round"/>
    <path d="M17.5137 4.53382C17.3486 4.5181 17.1844 4.49137 17.0196 4.47218C16.8374 4.45095 16.6552 4.43605 16.4725 4.42183" stroke="#F8F2EA" stroke-width="0.75" stroke-linecap="round"/>
    <path d="M17.4535 4.6364C17.2735 4.61107 17.0944 4.57681 16.9154 4.54517C16.8988 4.54224 16.671 4.50157 16.6254 4.49385C16.1562 4.41451 16.7576 4.5158 16.5539 4.48428" stroke="#F8F2EA" stroke-width="0.75" stroke-linecap="round"/>
    <path d="M17.783 4.66414C17.6938 4.66673 17.6777 4.66854 17.5798 4.66439C17.4739 4.6599 17.3479 4.64982 17.243 4.63961C17.1341 4.62901 17.0259 4.61482 16.9178 4.59824" stroke="#F8F2EA" stroke-width="0.75" stroke-linecap="round"/>
    <path d="M18.2394 4.87993C18.0878 4.86083 17.9375 4.83336 17.7875 4.80354C17.6791 4.78198 17.5708 4.76026 17.4616 4.74375" stroke="#F8F2EA" stroke-width="0.75" stroke-linecap="round"/>
    <path d="M17.9375 4.75589C17.8215 4.74054 17.7055 4.72596 17.5895 4.71135" stroke="#F8F2EA" stroke-width="0.75" stroke-linecap="round"/>
    <path d="M18.0823 4.70639C18.0411 4.69319 17.9996 4.68435 17.9576 4.67429" stroke="#F8F2EA" stroke-width="0.75" stroke-linecap="round"/>
    <path d="M18.2754 4.92654C18.2336 4.9281 18.1911 4.91973 18.1505 4.91069C18.09 4.89725 18.0289 4.88718 17.9683 4.87441C17.908 4.86172 17.8477 4.85244 17.7869 4.84294C17.7175 4.8321 17.648 4.82483 17.5784 4.81582C17.5204 4.8083 17.4627 4.79887 17.4049 4.78994C17.3737 4.78514 17.3424 4.78204 17.3111 4.77817C17.2613 4.772 17.212 4.76264 17.1623 4.75556C17.0922 4.74558 17.0218 4.74163 16.9513 4.73724C16.8794 4.73276 16.8082 4.72172 16.7368 4.71169" stroke="#F8F2EA" stroke-width="0.75" stroke-linecap="round"/>
    <path d="M16.9449 4.65048C16.8978 4.64465 16.851 4.63662 16.804 4.62993C16.7474 4.62187 16.6905 4.61942 16.6338 4.61299C16.5599 4.60461 16.4866 4.58794 16.4132 4.57572" stroke="#F8F2EA" stroke-width="0.75" stroke-linecap="round"/>
    <path d="M16.7524 4.72772C16.6934 4.72207 16.6342 4.71723 16.5753 4.70984C16.5351 4.7048 16.4953 4.69768 16.4553 4.69166C16.3954 4.68266 16.3356 4.67656 16.2752 4.67317" stroke="#F8F2EA" stroke-width="0.75" stroke-linecap="round"/>
    <path d="M16.4653 4.49209C16.4046 4.48726 16.3439 4.48695 16.2832 4.48328C16.2483 4.48119 16.2137 4.47653 16.1789 4.47411" stroke="#F8F2EA" stroke-width="0.75" stroke-linecap="round"/>
    <path d="M16.3938 4.57411C16.342 4.57283 16.2901 4.57431 16.2382 4.57195" stroke="#F8F2EA" stroke-width="0.75" stroke-linecap="round"/>
    <path d="M15.9955 4.35062C15.982 4.35056 15.9688 4.35335 15.9557 4.35561C15.9233 4.3612 15.8912 4.36847 15.8586 4.3732C15.7929 4.38274 15.7276 4.39295 15.6607 4.394C15.6344 4.39441 15.6076 4.39293 15.5815 4.3968C15.5452 4.40219 15.5096 4.41189 15.4736 4.41864C15.4238 4.42795 15.3738 4.43645 15.323 4.43959C15.2723 4.44273 15.2215 4.44188 15.1709 4.44654C15.1288 4.45041 15.0874 4.45716 15.0461 4.46522C14.9984 4.4745 14.9507 4.48336 14.9043 4.49715C14.8511 4.51295 14.7973 4.52873 14.7451 4.54731C14.7204 4.55609 14.7193 4.55732 14.6952 4.56649C14.6665 4.57741 14.6373 4.586 14.6076 4.59412C14.5622 4.60653 14.5162 4.61756 14.4714 4.63177C14.4376 4.64248 14.4057 4.65723 14.3728 4.6698C14.3416 4.68171 14.3092 4.69019 14.2773 4.70048C14.2495 4.70948 14.2226 4.7207 14.1947 4.72942C14.1461 4.7446 14.0937 4.753 14.0488 4.77697C14.0311 4.78638 14.0142 4.79697 13.9967 4.80663C13.9772 4.81741 13.9573 4.82753 13.9382 4.83881C13.9326 4.8421 13.9245 4.84528 13.9196 4.84959C13.9183 4.85074 13.9232 4.84991 13.925 4.84969C13.9417 4.84757 13.9582 4.84465 13.9749 4.84284C14.0026 4.83985 14.0304 4.83941 14.0578 4.83406C14.0893 4.82792 14.12 4.81814 14.1503 4.80869C14.1922 4.79567 14.2333 4.78077 14.275 4.76743C14.3314 4.74938 14.3892 4.73494 14.4478 4.72435C14.4985 4.71519 14.5487 4.70696 14.5985 4.69427C14.6747 4.67488 14.7498 4.65352 14.8282 4.64275C14.8587 4.63857 14.8894 4.63623 14.9199 4.63203C14.9593 4.62659 14.9782 4.62275 15.0177 4.61321C15.0535 4.60456 15.1073 4.58947 15.1423 4.58056C15.2101 4.5633 15.2783 4.54868 15.3482 4.54001C15.4604 4.52608 15.5741 4.52676 15.6865 4.51427C15.733 4.5091 15.7624 4.50449 15.8082 4.49883C15.8414 4.49474 15.8739 4.49308 15.907 4.4905" stroke="#F8F2EA" stroke-width="0.75" stroke-linecap="round"/>
    <path d="M14.6474 4.73891C14.6693 4.73474 14.6908 4.72945 14.7127 4.72561C14.7532 4.71851 14.794 4.71336 14.8345 4.70592C14.8849 4.69666 14.9349 4.68958 14.986 4.68428C15.0411 4.67857 15.095 4.66835 15.1496 4.65942C15.1959 4.65184 15.2423 4.64582 15.2894 4.64381C15.3147 4.64273 15.329 4.64302 15.3545 4.64217C15.3972 4.64076 15.4394 4.63687 15.4816 4.63096C15.5212 4.62541 15.5653 4.61782 15.6044 4.60981C15.6617 4.59802 15.7179 4.58225 15.7752 4.57012C15.8202 4.56059 15.8416 4.55749 15.8868 4.54982C15.9026 4.54715 15.9184 4.54468 15.9341 4.54177C16.1067 4.5098 15.8708 4.55334 15.9842 4.52973" stroke="#F8F2EA" stroke-width="0.75" stroke-linecap="round"/>
    <path d="M14.9825 4.61511C15.0546 4.59922 15.1273 4.58656 15.2002 4.57394" stroke="#F8F2EA" stroke-width="0.75" stroke-linecap="round"/>
    <path d="M15.0799 4.44515C15.1119 4.43716 15.1423 4.42508 15.174 4.41612C15.1965 4.40976 15.2188 4.40303 15.2412 4.39651C15.2626 4.39027 15.2833 4.38179 15.3048 4.37589C15.3286 4.36937 15.3532 4.36614 15.3778 4.3634C15.4513 4.35523 15.5245 4.34521 15.5981 4.33833C15.6417 4.33426 15.6853 4.33146 15.7288 4.32672C15.7774 4.32143 15.8258 4.31531 15.8743 4.30931" stroke="#F8F2EA" stroke-width="0.75" stroke-linecap="round"/>
    <path d="M15.1224 4.42798C15.1323 4.42527 15.1418 4.42203 15.1516 4.41879" stroke="#F8F2EA" stroke-width="0.75" stroke-linecap="round"/>
    <path d="M15.1094 4.42379C15.1234 4.42161 15.1371 4.41713 15.1508 4.4139C15.168 4.40985 15.1856 4.40715 15.2027 4.40253C15.2381 4.39292 15.2722 4.37928 15.3092 4.37483" stroke="#F8F2EA" stroke-width="0.75" stroke-linecap="round"/>
    <path d="M15.0778 4.71522C15.1152 4.71732 15.1526 4.71324 15.1897 4.70997C15.238 4.70571 15.2865 4.70427 15.3348 4.69992C15.4164 4.69258 15.4979 4.6967 15.5798 4.69689C15.6624 4.69708 15.7445 4.68689 15.827 4.6842C15.9093 4.68151 15.9885 4.66862 16.0685 4.65158" stroke="#F8F2EA" stroke-width="0.75" stroke-linecap="round"/>
    <path d="M16.3629 4.4289C16.267 4.43488 16.1712 4.43878 16.0757 4.44934C16.02 4.4555 15.9649 4.46489 15.9093 4.47129" stroke="#F8F2EA" stroke-width="0.75" stroke-linecap="round"/>
    <path d="M16.3457 4.51233C16.2645 4.51579 16.1834 4.52017 16.1025 4.52659C16.072 4.52901 16.0415 4.53145 16.0112 4.53468C15.5955 4.579 16.1336 4.52124 15.9308 4.54883" stroke="#F8F2EA" stroke-width="0.75" stroke-linecap="round"/>
    <path d="M16.3828 4.61129C16.3127 4.61617 16.2428 4.62301 16.1729 4.63002C16.1355 4.63378 16.0982 4.63756 16.0608 4.6417C15.6642 4.68569 16.1855 4.62813 15.9315 4.65867" stroke="#F8F2EA" stroke-width="0.75" stroke-linecap="round"/>
    <path d="M16.3506 4.70751C16.2546 4.71859 16.1572 4.71724 16.0603 4.71744C16.0502 4.71746 15.9371 4.71707 15.9146 4.71727C15.7239 4.71897 15.9758 4.71673 15.8684 4.71947" stroke="#F8F2EA" stroke-width="0.75" stroke-linecap="round"/>
    <path d="M16.1156 4.29637C16.059 4.29891 16.0019 4.30343 15.9459 4.31069C15.9151 4.31466 15.885 4.31883 15.8539 4.31984C15.836 4.32042 15.8184 4.32064 15.8007 4.32246" stroke="#F8F2EA" stroke-width="0.75" stroke-linecap="round"/>
    <path d="M16.0639 4.30001C16.0428 4.30054 16.0222 4.3032 16.0012 4.30508C15.9782 4.30714 15.955 4.30657 15.932 4.30774C15.906 4.30906 15.8803 4.30825 15.8543 4.3088" stroke="#F8F2EA" stroke-width="0.75" stroke-linecap="round"/>
    <path d="M15.7407 4.32594C15.7053 4.3303 15.6701 4.33539 15.6344 4.33785C15.6194 4.33889 15.6045 4.3402 15.5897 4.3426C15.5814 4.34395 15.5856 4.34386 15.5895 4.34372" stroke="#F8F2EA" stroke-width="0.75" stroke-linecap="round"/>
    <path d="M15.7358 4.3314C15.7251 4.33311 15.7144 4.33366 15.7036 4.334C15.6845 4.3346 15.6655 4.33632 15.6464 4.33676C15.6312 4.33711 15.6171 4.33786 15.6024 4.34194C15.5906 4.34523 15.5777 4.3498 15.5665 4.35135" stroke="#F8F2EA" stroke-width="0.75" stroke-linecap="round"/>
    <path d="M15.7277 4.33154C15.6954 4.33446 15.6626 4.33579 15.6306 4.34061C15.6179 4.34253 15.6052 4.34565 15.5923 4.34695C15.5883 4.34735 15.5888 4.34663 15.5905 4.34501" stroke="#F8F2EA" stroke-width="0.75" stroke-linecap="round"/>
    <path d="M15.7254 4.32668C15.6923 4.33432 15.6564 4.33498 15.6224 4.33732C15.6018 4.33873 15.5428 4.35682 15.5622 4.35036" stroke="#F8F2EA" stroke-width="0.75" stroke-linecap="round"/>
    <path d="M15.8202 4.32024C15.8029 4.32478 15.7846 4.32309 15.7668 4.32529C15.7528 4.32704 15.7396 4.32935 15.7254 4.33015C15.7135 4.33083 15.7001 4.33078 15.6885 4.3334C15.6845 4.33431 15.6806 4.33557 15.6765 4.33595C15.6758 4.33601 15.6668 4.33545 15.6685 4.33354C15.6701 4.33177 15.6739 4.33145 15.6761 4.33141C15.6816 4.33132 15.6869 4.33032 15.6923 4.32935C15.6998 4.32802 15.7068 4.32744 15.7136 4.32426C15.7168 4.3228 15.7182 4.32001 15.7207 4.32207" stroke="#F8F2EA" stroke-width="0.75" stroke-linecap="round"/>
    <path d="M15.6894 4.32761C15.6719 4.32828 15.6561 4.3286 15.6394 4.33435C15.621 4.34068 15.6032 4.34919 15.5851 4.35624" stroke="#F8F2EA" stroke-width="0.75" stroke-linecap="round"/>
    <path d="M19.1161 7.95538C19.0296 7.93204 18.938 7.93143 18.8498 7.91772C18.7526 7.90262 18.6726 7.87113 18.5846 7.83021C18.4983 7.79012 18.4124 7.75608 18.3313 7.70603C18.2774 7.67277 18.2281 7.65426 18.1693 7.6323C18.0868 7.60149 18.0069 7.57002 17.9209 7.54923C17.8037 7.52092 17.6838 7.50563 17.5644 7.49178C17.4188 7.4749 17.2724 7.46189 17.1262 7.4658C16.9692 7.46998 16.8139 7.49208 16.6569 7.49755C16.5687 7.50063 16.4906 7.51483 16.4096 7.54761C16.3278 7.58072 16.2463 7.61487 16.1647 7.6484C16.0784 7.68386 15.9917 7.72071 15.9074 7.76021C15.8307 7.79612 15.7692 7.84895 15.7018 7.89783C15.6226 7.95533 15.5384 8.00653 15.4538 8.05648C15.4034 8.08618 15.3474 8.11207 15.303 8.14982C15.2618 8.1848 15.228 8.22946 15.1996 8.27445C15.1502 8.35253 15.1051 8.42898 15.0455 8.50082C14.9348 8.63446 14.8623 8.78551 14.7796 8.93632C14.7375 9.01309 14.7005 9.08566 14.6792 9.17096C14.6543 9.27085 14.6454 9.3733 14.631 9.47506C14.622 9.53915 14.6091 9.60291 14.6052 9.66769C14.6009 9.7397 14.6054 9.81243 14.6046 9.8846C14.6019 10.1162 14.573 10.3465 14.6083 10.5783C14.6294 10.7169 14.6634 10.8551 14.6951 10.992C14.7138 11.0726 14.7466 11.1489 14.7888 11.2212C14.8219 11.278 14.8651 11.3166 14.9161 11.3585C14.9792 11.4105 15.0421 11.4633 15.114 11.5037C15.2034 11.5541 15.3001 11.5896 15.3989 11.6176C15.5311 11.655 15.6667 11.6935 15.8046 11.6961C15.9218 11.6983 16.0453 11.6958 16.1594 11.6713C16.262 11.6493 16.363 11.6227 16.4668 11.6048C16.6486 11.5736 16.8331 11.5773 17.0089 11.5194C17.0816 11.4955 17.1523 11.4666 17.2218 11.4355C17.3146 11.394 17.4104 11.3618 17.5055 11.3254C17.6923 11.2538 17.8812 11.1897 18.0759 11.139C18.1748 11.1133 18.2632 11.0785 18.3484 11.0239C18.4571 10.9543 18.561 10.8774 18.6679 10.8052C18.7533 10.7475 18.8384 10.6886 18.926 10.634C19.006 10.5841 19.0893 10.5391 19.1686 10.4881C19.3612 10.3641 19.5379 10.2161 19.715 10.0728C19.7919 10.0106 19.8546 9.9395 19.9142 9.86207C19.968 9.79216 20.0261 9.72393 20.0714 9.64842C20.1324 9.54706 20.1823 9.43669 20.2188 9.32475C20.2576 9.20583 20.2879 9.07678 20.283 8.95041C20.2778 8.81813 20.1942 8.69755 20.1361 8.57993C20.0972 8.50127 20.0507 8.42372 19.9925 8.35628C19.9215 8.27405 19.8245 8.23252 19.7197 8.20995C19.6684 8.19889 19.6172 8.18617 19.5678 8.16821C19.512 8.1479 19.4631 8.11586 19.4087 8.09279C19.3262 8.05772 19.2389 8.03644 19.1576 7.99809C19.1266 7.98344 19.1025 7.96952 19.0689 7.96114C19.0422 7.95449 19.0169 7.94862 18.9918 7.93753" stroke="#F8F2EA" stroke-width="0.75" stroke-linecap="round"/>
    </svg>
    