<svg width="18" height="32" viewBox="0 0 18 32" fill="none" xmlns="http://www.w3.org/2000/svg">
    <path d="M14.0562 26.6934L14.0562 26.6934L14.0509 26.6919C13.311 26.4796 12.9266 26.1027 12.7981 25.699C12.6686 25.2923 12.7608 24.7405 13.2304 24.0985C14.6664 22.2974 15.8598 20.3 16.7776 18.162C17.3777 16.8293 17.469 15.309 17.0336 13.9092C16.5991 12.5123 15.6712 11.336 14.4332 10.622C12.4833 9.31796 10.4122 9.57784 8.21713 9.98664C8.47672 9.75739 8.74516 9.53913 9.0218 9.33241C9.7478 8.95307 10.5006 8.63277 11.2734 8.37432C11.7738 8.23649 12.2093 7.9224 12.5079 7.48986C12.8084 7.05443 12.9524 6.52509 12.9175 5.99335L12.9174 5.99107C12.8939 5.66431 12.7936 5.39365 12.6031 5.19141C12.4156 4.99236 12.179 4.90063 11.9627 4.8546C11.7505 4.80946 11.5248 4.80197 11.337 4.79669C11.326 4.79638 11.3151 4.79608 11.3043 4.79578C11.1174 4.79058 10.9679 4.78642 10.8382 4.76441L10.8271 4.76251L10.8158 4.7613C10.408 4.71718 9.99832 4.69578 9.58836 4.69722L9.58511 4.69711C8.98719 4.67711 8.5639 4.66294 8.24752 4.61858C7.92889 4.5739 7.78959 4.50642 7.71221 4.43316C7.63723 4.36217 7.56437 4.23236 7.51311 3.92235C7.46168 3.61128 7.44135 3.18547 7.41998 2.57607C7.39268 1.73776 7.14091 1.16282 6.60904 0.895006C6.12806 0.652815 5.5323 0.733933 5.02118 0.843368L5.02112 0.843108L5.00741 0.846589C4.72282 0.918842 4.49466 1.04729 4.32162 1.2285C4.15037 1.40784 4.05293 1.61803 3.9953 1.8236C3.93849 2.02623 3.9173 2.23579 3.90582 2.42383C3.89961 2.5255 3.8965 2.60694 3.89358 2.68328C3.89025 2.77052 3.88717 2.8511 3.88002 2.94761C3.86745 3.09333 3.85832 3.22635 3.84958 3.35375C3.83763 3.52782 3.82641 3.69138 3.80812 3.86247C3.77796 4.14463 3.73295 4.38741 3.65124 4.59925C3.50097 4.98884 3.20527 5.33379 2.45421 5.56156C1.77415 5.76417 1.27994 6.29803 0.975847 6.92612C0.670844 7.5561 0.538007 8.31531 0.598115 9.0448L0.598187 9.04565C0.642787 9.57223 0.772713 10.2144 1.03811 10.7379C1.30108 11.2567 1.74955 11.748 2.45053 11.7487C2.96713 11.753 3.28065 11.84 3.47242 11.9516C3.6512 12.0557 3.75093 12.1964 3.81085 12.3845C3.87545 12.5875 3.89221 12.8423 3.88642 13.1591C3.88396 13.2932 3.87779 13.4308 3.87128 13.5759C3.8702 13.5998 3.86912 13.624 3.86804 13.6484C3.8607 13.8143 3.85375 13.9886 3.85346 14.1638C3.80197 15.0144 3.82839 15.8681 3.93238 16.7135L3.93329 16.7209L3.9345 16.7283C3.93874 16.7542 3.94302 16.7805 3.94737 16.8072C4.02312 17.2722 4.11903 17.8609 4.32575 18.353C4.54793 18.8818 4.93968 19.3917 5.65031 19.4708C6.00296 19.5101 6.30729 19.4189 6.55838 19.2385C6.79948 19.0652 6.97587 18.8215 7.11098 18.5743C7.30894 18.2121 7.45608 17.7624 7.57721 17.3922C7.61596 17.2738 7.65205 17.1635 7.68628 17.0668L7.68631 17.0669L7.68784 17.0624C7.94892 16.2943 8.31596 15.7328 8.71174 15.4194C9.09152 15.1187 9.49219 15.0451 9.91165 15.2195C10.3021 15.3839 10.5083 15.5643 10.6165 15.728C10.7216 15.887 10.758 16.0658 10.7401 16.2784C10.7216 16.4987 10.6455 16.7441 10.5333 17.014C10.4558 17.2006 10.3697 17.3797 10.2816 17.5631C10.2402 17.6492 10.1983 17.7363 10.1567 17.8256C9.16597 19.9358 8.5797 22.2274 8.43035 24.5715L8.43025 24.5731C8.35309 25.8726 8.76893 27.3131 9.47339 28.5225C10.1758 29.7285 11.1978 30.7596 12.3838 31.1794C13.1608 31.4567 13.9006 31.3902 14.5195 30.955C15.1204 30.5324 15.5553 29.7987 15.8301 28.845C15.9482 28.4432 15.9765 28.0944 15.8949 27.7951C15.8093 27.4812 15.6159 27.2684 15.3872 27.1247C15.1708 26.9888 14.9186 26.9119 14.6964 26.8547C14.6015 26.8303 14.515 26.8099 14.4329 26.7906C14.3019 26.7598 14.182 26.7315 14.0562 26.6934Z" fill="#060606" stroke="#F8F2EA" stroke-width="0.75"/>
    </svg>
    