<svg width="29" height="29" viewBox="0 0 29 29" fill="none" xmlns="http://www.w3.org/2000/svg">
    <path d="M2.57241 4.89242L2.57224 4.8929C1.30894 8.52909 0.742616 12.373 0.903158 16.2211C0.887752 16.5405 0.861811 16.9148 0.833711 17.3203C0.786489 18.0017 0.733172 18.771 0.71351 19.5157L0.713338 19.5157L0.713382 19.5271C0.718848 20.9562 1.02438 22.2891 1.57851 23.3141C2.13146 24.337 2.95684 25.0922 4.00822 25.2601L4.01016 25.2604C6.12713 25.5871 8.21346 26.0697 10.3065 26.5779C10.659 26.6635 11.0118 26.7499 11.365 26.8363C13.1046 27.2621 14.8534 27.6901 16.618 28.0405L16.6187 28.0407C18.7099 28.4514 20.5156 28.2358 21.9514 27.361C23.388 26.4857 24.3975 24.9851 24.9646 22.9399C26.0654 18.9699 27.0296 14.9433 27.7505 10.8822C28.2001 8.4327 28.0776 6.60274 27.1591 5.18031C26.2455 3.76555 24.5978 2.83936 22.217 2.05742C18.5602 0.846569 14.7944 0.779418 11.0945 0.713442C10.2807 0.69893 9.46998 0.684474 8.66436 0.657913L8.66331 0.657881C7.04085 0.608939 5.77985 0.850678 4.78257 1.54559C3.78632 2.23979 3.11232 3.34518 2.57241 4.89242ZM18.8517 19.8414L18.8325 19.8406L18.8133 19.8417C17.4203 19.9241 16.0284 20.0489 14.7923 20.1598C14.2791 20.2058 13.7927 20.2494 13.3443 20.2866C13.1389 20.279 12.9405 20.2718 12.7489 20.2648C11.2728 20.2112 10.1973 20.1721 9.40394 20.0744C8.49086 19.962 8.06575 19.7816 7.83942 19.5204C7.6115 19.2573 7.5078 18.8249 7.50351 17.9701C7.50114 17.4973 7.52704 16.9446 7.55838 16.2758C7.58349 15.7403 7.61208 15.1303 7.63243 14.4273H7.63245L7.63252 14.4233C7.66821 12.4739 8.07071 10.5489 8.81868 8.75017L8.82373 8.73803L8.82791 8.72557C9.01772 8.16036 9.39785 7.6801 9.90203 7.36747C10.4062 7.05487 11.0028 6.9294 11.5889 7.01243L11.596 7.01343L11.6031 7.01416C13.4398 7.20358 15.2556 7.46105 17.0804 7.71981C18.1163 7.8667 19.1551 8.014 20.2023 8.1495C20.749 8.22191 21.0428 8.39009 21.2136 8.6119C21.3919 8.8436 21.4918 9.20435 21.4922 9.78156C21.433 12.7362 21.047 15.675 20.3411 18.5438L20.336 18.5645L20.3333 18.5857C20.2873 18.9445 20.1091 19.2724 19.8346 19.5047C19.5602 19.737 19.2094 19.857 18.8517 19.8414Z" fill="#060606" stroke="#F8F2EA" stroke-width="0.75"/>
    <path d="M14.3817 10.0757L14.3817 10.0757L14.3795 10.0757C13.9213 10.0622 13.4657 10.1489 13.0437 10.3297C12.6218 10.5105 12.2437 10.7811 11.9347 11.1227C11.6258 11.4643 11.3934 11.869 11.2528 12.3091C11.1147 12.7418 11.0685 13.1989 11.1171 13.6506C11.1114 14.7271 11.4936 15.7387 12.0974 16.478C12.7024 17.219 13.5591 17.7169 14.4967 17.6745C14.9457 17.6631 15.3983 17.4654 15.8069 17.1876C16.2219 16.9055 16.6215 16.5207 16.9693 16.0891C17.6544 15.2389 18.1949 14.134 18.1949 13.1754L18.1949 13.1725C18.1885 12.3327 17.6895 11.5703 16.9968 11.0252C16.2991 10.4762 15.3626 10.1104 14.3817 10.0757Z" fill="#060606" stroke="#F8F2EA" stroke-width="0.75"/>
    <path d="M18.5049 27.8968C18.6077 27.8919 18.7104 27.8872 18.813 27.8788C18.8991 27.8717 18.9847 27.8572 19.0713 27.8579C19.158 27.8586 19.2419 27.8591 19.3279 27.8447C19.4412 27.8257 19.5495 27.7868 19.662 27.7644C19.764 27.7441 19.8682 27.7417 19.9713 27.7299C20.1069 27.7144 20.241 27.6841 20.3747 27.6577C20.5339 27.6262 20.6763 27.5735 20.8247 27.51C20.9738 27.4463 21.1265 27.3908 21.278 27.333C21.5348 27.235 21.7897 27.1309 22.0094 26.9643C22.2147 26.8086 22.4324 26.6693 22.6167 26.4883C22.7002 26.4064 22.7902 26.3338 22.877 26.2556C22.9837 26.1595 23.0779 26.0499 23.1624 25.9346C23.3411 25.6907 23.5002 25.4336 23.6854 25.1946C23.7678 25.0884 23.8554 24.9854 23.9344 24.8768C23.9996 24.7871 24.0347 24.6832 24.0617 24.577C24.0885 24.4714 24.1147 24.3668 24.1549 24.2652C24.2074 24.1325 24.2713 24.0045 24.3244 23.8719C24.4122 23.6527 24.4672 23.4233 24.5506 23.2022C24.7037 22.7966 24.8422 22.3879 24.9715 21.9743C25.0325 21.7789 25.1043 21.587 25.1612 21.3904C25.2248 21.1706 25.2705 20.9466 25.3372 20.7275C25.4009 20.518 25.4599 20.3123 25.4993 20.0966C25.5459 19.8421 25.6054 19.5911 25.6708 19.3406C25.7804 18.9217 25.9038 18.5064 26.0085 18.0862C26.0634 17.8663 26.1219 17.646 26.1553 17.4217C26.1814 17.2465 26.1894 17.0724 26.1894 16.896" stroke="#F8F2EA" stroke-width="0.75" stroke-linecap="round"/>
    <path d="M25.343 20.6888C25.3638 20.6221 25.3944 20.5585 25.4128 20.4911C25.4274 20.438 25.4336 20.3814 25.4437 20.3272C25.4584 20.2481 25.4634 20.1651 25.4891 20.0886" stroke="#F8F2EA" stroke-width="0.75" stroke-linecap="round"/>
    <path d="M25.2917 20.7682C25.3392 20.7385 25.3468 20.6621 25.3616 20.6124C25.3745 20.5685 25.3611 20.517 25.3664 20.4718C25.3772 20.3799 25.397 20.2889 25.4086 20.197" stroke="#F8F2EA" stroke-width="0.75" stroke-linecap="round"/>
    <path d="M18.9061 27.8679C18.7753 27.879 18.6498 27.8984 18.5177 27.8964C18.3747 27.8942 18.233 27.8716 18.09 27.8647C17.8482 27.8532 17.6069 27.8311 17.3655 27.8126C17.1281 27.7943 16.9053 27.6929 16.6731 27.6456C16.5743 27.6255 16.4739 27.6155 16.3751 27.5955C16.224 27.5649 16.0732 27.5294 15.9238 27.4915C15.5448 27.3953 15.1707 27.2791 14.7862 27.205C14.3368 27.1184 13.8848 27.0414 13.4394 26.9361C13.0795 26.8511 12.7275 26.7428 12.3763 26.628C12.2278 26.5794 12.0789 26.5324 11.9247 26.5044C11.7296 26.4689 11.5322 26.4733 11.336 26.4498C10.9978 26.4092 10.6949 26.2379 10.3577 26.1906C10.1303 26.1586 9.90041 26.1526 9.67293 26.1183C9.46357 26.0868 9.25821 26.0428 9.05181 25.9967C8.83234 25.9478 8.60995 25.9124 8.3934 25.8511C8.22258 25.8027 8.06241 25.729 7.89391 25.6749C7.78378 25.6396 7.67163 25.6228 7.5574 25.6071C7.43717 25.5905 7.32005 25.5634 7.20225 25.5349C7.07728 25.5045 6.95351 25.4663 6.82723 25.4418C6.67695 25.4125 6.51873 25.4138 6.37112 25.3727C6.15742 25.3133 5.98479 25.1629 5.77676 25.0926C5.67768 25.0592 5.57892 25.0362 5.47431 25.03C5.41457 25.0265 5.36117 25.0212 5.30322 25.0076" stroke="#F8F2EA" stroke-width="0.75" stroke-linecap="round"/>
    <path d="M26.1716 16.9968C26.1847 16.8843 26.197 16.7737 26.2023 16.6607C26.2073 16.5541 26.2337 16.4474 26.2664 16.3463C26.3271 16.1586 26.4092 15.9742 26.4542 15.782C26.503 15.574 26.4948 15.3565 26.5394 15.147C26.5558 15.07 26.5781 14.9949 26.5971 14.9186C26.6203 14.826 26.63 14.7309 26.6437 14.6367C26.6654 14.4867 26.703 14.3403 26.7425 14.1941C26.7782 14.0621 26.797 13.925 26.8283 13.7916C26.8771 13.5831 26.953 13.3819 27.0084 13.1751C27.0569 12.9942 27.083 12.8064 27.1103 12.6214C27.1355 12.4507 27.1777 12.2836 27.2089 12.114C27.2363 11.9646 27.2807 11.8193 27.3151 11.6714C27.3515 11.5148 27.3711 11.3538 27.3929 11.1947C27.4173 11.0155 27.4527 10.8407 27.4846 10.6629C27.521 10.4598 27.5386 10.2553 27.5555 10.0499C27.5751 9.81297 27.61 9.5804 27.6155 9.34225C27.6247 8.94348 27.646 8.54619 27.6404 8.14731" stroke="#F8F2EA" stroke-width="0.75" stroke-linecap="round"/>
    <path d="M27.6493 8.2644C27.652 8.17995 27.6523 8.10484 27.6348 8.02184C27.6254 7.97678 27.6207 7.93089 27.6102 7.88605C27.5862 7.7836 27.5508 7.68407 27.5234 7.58251C27.4543 7.32615 27.4349 7.05852 27.3802 6.79898C27.3546 6.67761 27.323 6.55815 27.2893 6.43879C27.235 6.24704 27.1905 6.05213 27.1285 5.86259C27.0975 5.7675 27.0591 5.67714 27.0059 5.59211C26.9226 5.4591 26.8189 5.33996 26.7252 5.21431C26.5658 5.0005 26.4352 4.77079 26.254 4.57307C26.157 4.46728 26.0513 4.36956 25.9391 4.27982C25.7575 4.13464 25.558 4.02622 25.3451 3.93264C25.1734 3.85712 25.0024 3.784 24.8378 3.69387C24.6435 3.58757 24.4576 3.46589 24.2786 3.33612C24.1532 3.2452 24.0344 3.14563 23.9073 3.05696C23.7159 2.92342 23.5109 2.80007 23.2961 2.70707C23.1399 2.63942 22.9748 2.60078 22.8115 2.55421C22.5696 2.48524 22.3275 2.41494 22.0875 2.33983C21.6514 2.20337 21.2158 2.06707 20.7773 1.93845C20.6155 1.891 20.4551 1.83958 20.2945 1.7883C20.0662 1.71539 19.8362 1.65616 19.6006 1.61078C19.2735 1.54777 18.941 1.53127 18.6108 1.49072C18.4668 1.47304 18.3231 1.4539 18.1792 1.43543C17.9746 1.40915 17.7689 1.39724 17.5634 1.37879C17.3109 1.3561 17.0598 1.32266 16.8088 1.28772C16.4866 1.24289 16.1642 1.19809 15.8441 1.14056C15.573 1.09183 15.3043 1.03093 15.0287 1.01209C14.8896 1.00259 14.7954 1.00263 14.659 1.01047C14.5726 1.01543 14.4948 1.03076 14.4106 1.04434" stroke="#F8F2EA" stroke-width="0.75" stroke-linecap="round"/>
    <path d="M5.47882 25.1304C5.40861 25.1181 5.34026 25.091 5.27124 25.0734C5.15376 25.0434 5.0344 25.0241 4.91568 25C4.70573 24.9573 4.4931 24.9534 4.28037 24.9313C4.15972 24.9188 4.03843 24.9124 3.91752 24.9029C3.81717 24.8949 3.71971 24.8844 3.62966 24.8366C3.46605 24.7499 3.30073 24.6568 3.14274 24.5606C2.93772 24.4356 2.82218 24.2277 2.67447 24.0469C2.59449 23.949 2.50202 23.8605 2.41541 23.7684C2.34972 23.6986 2.26275 23.6455 2.20215 23.5726C2.08105 23.4268 1.99968 23.2455 1.89038 23.0906C1.81266 22.9806 1.7306 22.8722 1.65563 22.7604C1.56034 22.6182 1.53404 22.4488 1.46508 22.2949C1.4268 22.2095 1.37438 22.132 1.34102 22.0441C1.28345 21.8924 1.25213 21.7359 1.22628 21.5766C1.17252 21.2451 1.10816 20.9159 1.04911 20.5854C1.02548 20.4531 0.99862 20.3219 1.00006 20.1869C1.00218 19.9867 1.01979 19.7845 1.03127 19.5846C1.05649 19.1456 1.01789 18.708 1.03614 18.2692C1.05157 17.8982 1.08142 17.5294 1.12249 17.1605C1.15783 16.843 1.14421 16.5231 1.19182 16.2074C1.20919 16.0922 1.21478 15.9779 1.2129 15.8615C1.21007 15.6859 1.21514 15.5105 1.2129 15.335C1.21083 15.172 1.2054 15.0106 1.17885 14.8494C1.15556 14.7081 1.13114 14.5681 1.11479 14.4257" stroke="#F8F2EA" stroke-width="0.75" stroke-linecap="round"/>
    <path d="M1.12231 14.6784C1.13972 14.5492 1.13041 14.4151 1.13691 14.2848C1.14064 14.2101 1.13478 14.132 1.14948 14.0584C1.16686 13.9715 1.19526 13.888 1.20948 13.8C1.24761 13.5642 1.28971 13.3272 1.31205 13.0893C1.34235 12.7668 1.32239 12.4434 1.34611 12.1206C1.35646 11.9798 1.39615 11.8463 1.42436 11.7085C1.46087 11.5302 1.49108 11.3503 1.50828 11.1692C1.52457 10.9977 1.5326 10.8267 1.53909 10.6547C1.54577 10.4781 1.5787 10.3051 1.59545 10.1295C1.62185 9.85244 1.64349 9.57408 1.711 9.3028C1.74958 9.14775 1.80228 8.99921 1.83019 8.84132C1.86048 8.67001 1.8979 8.49983 1.93236 8.32928" stroke="#F8F2EA" stroke-width="0.75" stroke-linecap="round"/>
    <path d="M1.93188 8.43047C1.93617 8.37748 1.95685 8.32733 1.97729 8.27878C2.00697 8.20828 2.01283 8.14705 2.02108 8.07252C2.03155 7.97785 2.07814 7.87495 2.11027 7.786C2.15801 7.65388 2.21482 7.53549 2.23839 7.39555C2.28327 7.12902 2.36783 6.87243 2.43218 6.61023C2.47004 6.456 2.49838 6.3002 2.54124 6.14715C2.57792 6.01616 2.60801 5.88286 2.63246 5.74908C2.64983 5.65407 2.66526 5.55828 2.70625 5.46978C2.76071 5.35221 2.83334 5.24333 2.88951 5.12628C2.95336 4.99322 3.01063 4.85741 3.06465 4.72018C3.13633 4.53808 3.18197 4.35011 3.24304 4.1648C3.34387 3.85886 3.49863 3.56855 3.66023 3.29C3.75437 3.12771 3.8827 2.98848 4.01092 2.8522C4.17017 2.68293 4.32037 2.51813 4.4423 2.31969C4.53614 2.16696 4.62906 2.01209 4.75204 1.87988C4.86209 1.76158 4.99617 1.66796 5.12828 1.57571C5.26899 1.47745 5.41334 1.3844 5.5556 1.28839C5.71702 1.17945 5.86991 1.08702 6.0632 1.04641C6.37786 0.980303 6.70376 0.967673 7.02447 0.980601C7.23644 0.989145 7.44782 1.00619 7.65856 1.02996C7.95906 1.06386 8.25489 1.03902 8.55577 1.02113C8.77981 1.00781 8.99786 1.02263 9.22148 1.03237C9.50786 1.04483 9.79654 1.03658 10.0818 1.06768C10.3645 1.0985 10.6426 1.16319 10.9259 1.19047C11.2855 1.22511 11.6481 1.18272 12.0072 1.16158C12.2866 1.14513 12.5674 1.14445 12.8472 1.14272C13.1825 1.14065 13.5185 1.13822 13.8535 1.15476C14.2558 1.17462 14.657 1.21263 15.0588 1.23903C15.2426 1.2511 15.4263 1.26117 15.6102 1.26912C15.8274 1.27851 16.0411 1.29684 16.2573 1.31567" stroke="#F8F2EA" stroke-width="0.75" stroke-linecap="round"/>
    <path d="M6.68276 1.1062C6.60296 1.10996 6.52325 1.11761 6.44356 1.12306C6.31701 1.13169 6.21079 1.15408 6.09164 1.19609C5.89926 1.26392 5.71314 1.3432 5.51756 1.40235C5.33818 1.4566 5.19455 1.54121 5.04037 1.64352C5.00092 1.6697 4.95966 1.69075 4.91712 1.71134C4.89297 1.72302 4.88752 1.72758 4.91752 1.70893C5.03597 1.6353 5.14921 1.55893 5.26457 1.4806C5.27637 1.47259 5.42884 1.38483 5.38782 1.44168C5.35229 1.49091 5.32406 1.53081 5.26254 1.544C5.21546 1.5541 5.16794 1.56343 5.12226 1.57892C5.04412 1.6054 5.14394 1.5594 5.16483 1.54681" stroke="#F8F2EA" stroke-width="0.75" stroke-linecap="round"/>
    <path d="M7.17997 1.02676C6.97397 1.00977 6.7642 1.03399 6.55657 1.03399C6.55086 1.03399 6.56793 1.03284 6.57362 1.03239C6.60778 1.02968 6.64181 1.02592 6.67549 1.01953C6.70546 1.01384 6.72367 0.998131 6.74814 1.01712C6.7578 1.02462 6.796 1.03502 6.80009 1.04042C6.82005 1.06676 6.7611 1.09411 6.82647 1.07336C6.91195 1.04622 6.99687 1.02676 7.08662 1.02676C7.15811 1.02676 7.21741 1.00661 7.28468 0.983778C7.32362 0.970563 7.3462 0.974817 7.37721 0.997838" stroke="#F8F2EA" stroke-width="0.75" stroke-linecap="round"/>
    <path d="M17.1304 1.3794C17.0013 1.39202 16.8745 1.33985 16.7459 1.3344C16.667 1.33105 16.589 1.32214 16.5102 1.31838C16.3936 1.31282 16.2818 1.32106 16.1665 1.29703" stroke="#F8F2EA" stroke-width="0.75" stroke-linecap="round"/>
    <path d="M21.7138 8.67557C21.7101 8.77808 21.7097 8.86951 21.7443 8.96824C21.786 9.08684 21.8366 9.19998 21.8505 9.32618C21.8876 9.66215 21.8834 9.98761 21.8748 10.3258C21.8598 10.9225 21.7638 11.5106 21.7263 12.1052C21.7138 12.3035 21.7188 12.5012 21.7124 12.6995C21.7042 12.9561 21.6678 13.2137 21.6361 13.4683C21.5381 14.2551 21.367 15.0297 21.2626 15.8158C21.2367 16.0108 21.1682 16.1945 21.1294 16.3867C21.0868 16.5972 21.0569 16.8102 21.012 17.0202C20.9524 17.2999 20.8738 17.5751 20.817 17.8556C20.7697 18.0888 20.7277 18.3225 20.6768 18.555C20.6329 18.7553 20.5638 18.9477 20.4762 19.1335C20.3736 19.351 20.2083 19.5085 20.0674 19.6996C19.9793 19.8189 19.8879 20.0014 19.7363 20.052C19.6517 20.0803 19.562 20.094 19.476 20.1173C19.3467 20.1522 19.2238 20.2064 19.0942 20.2396C18.8472 20.3029 18.5722 20.3552 18.3175 20.3701C18.0209 20.3875 17.7319 20.3174 17.4353 20.3701C17.3105 20.3923 17.1938 20.4386 17.0715 20.4697C16.8754 20.5198 16.6857 20.5177 16.485 20.5116C16.2361 20.5041 15.9918 20.5413 15.7444 20.5625C15.5283 20.581 15.3063 20.5662 15.0919 20.5955C14.9855 20.61 14.8825 20.6428 14.7768 20.6614C14.6052 20.6917 14.44 20.6813 14.2673 20.6724C13.9769 20.6574 13.6868 20.6697 13.3969 20.6408C13.0245 20.6036 12.6541 20.5542 12.2807 20.524C11.8829 20.4919 11.5002 20.5369 11.1035 20.5446C10.7284 20.5519 10.355 20.508 9.98043 20.4958C9.63748 20.4847 9.30754 20.3972 8.96702 20.3674C8.84395 20.3566 8.72721 20.3692 8.60469 20.377C8.44493 20.3872 8.34031 20.3525 8.20419 20.2732C7.99353 20.1506 7.7877 20.0347 7.61627 19.859C7.42032 19.6582 7.27152 19.4062 7.23173 19.1266C7.1996 18.9008 7.22522 18.6572 7.22131 18.4293C7.21861 18.2711 7.17721 18.1356 7.14566 17.982C7.11153 17.8159 7.11798 17.6613 7.13316 17.4929C7.15702 17.2281 7.18314 16.9667 7.18314 16.7007C7.18314 16.1635 7.12166 15.6309 7.20188 15.0958C7.24762 14.7907 7.276 14.4762 7.27407 14.1677C7.27303 14.0024 7.25261 13.837 7.24839 13.6716C7.24127 13.3928 7.26591 13.1186 7.31641 12.8444C7.37466 12.5282 7.42595 12.2164 7.46911 11.8977C7.53602 11.4038 7.61607 10.9217 7.7891 10.4522C7.93461 10.0574 8.06826 9.65917 8.20766 9.26229C8.31171 8.96603 8.43355 8.68532 8.57137 8.40351C8.70602 8.1282 8.80874 7.8428 8.97257 7.58183C9.11973 7.34742 9.29429 7.11539 9.50149 6.92915C9.69181 6.75809 9.92248 6.73539 10.1616 6.67701C10.3844 6.62262 10.6115 6.57953 10.8398 6.55404C10.9436 6.54244 11.0417 6.55052 11.1452 6.56297C11.3165 6.58358 11.4907 6.6014 11.6595 6.63785C11.9664 6.70413 12.2559 6.82277 12.5681 6.87144C12.9262 6.92727 13.2904 6.91861 13.6482 6.97656C14.4361 7.10418 15.2235 7.24982 16.022 7.28984C16.3733 7.30745 16.7252 7.31519 17.0764 7.33518C17.409 7.35412 17.7244 7.43038 18.0391 7.53648C18.3668 7.64694 18.6924 7.73495 19.0324 7.80099C19.3704 7.86662 19.719 7.8763 20.0618 7.89923C20.3502 7.91853 20.6357 7.94417 20.9163 8.01534C21.0149 8.04037 21.1185 8.06265 21.214 8.09847C21.2971 8.12963 21.3584 8.20378 21.4126 8.27023C21.5066 8.38569 21.5706 8.53787 21.6395 8.66939C21.7293 8.84071 21.7881 9.01218 21.9012 9.17023" stroke="#F8F2EA" stroke-width="0.75" stroke-linecap="round"/>
    <path d="M17.4528 11.9773C17.5859 12.1057 17.7109 12.2209 17.7645 12.404C17.8474 12.6873 17.8399 12.9833 17.8499 13.2772C17.8623 13.6458 17.7388 14.0101 17.559 14.3304C17.4865 14.4597 17.4053 14.5842 17.3327 14.7138C17.1984 14.9538 17.0995 15.2105 16.9628 15.4509C16.8402 15.6666 16.7179 15.884 16.588 16.0954C16.3925 16.4134 16.1236 16.6637 15.8161 16.8758C15.7091 16.9496 15.5951 17.0119 15.4912 17.0902C15.3914 17.1655 15.2994 17.2355 15.1789 17.2771C14.8714 17.3831 14.5279 17.3953 14.2071 17.4378C14.0049 17.4646 13.8118 17.4573 13.622 17.3774C13.4123 17.2891 13.2293 17.1477 13.0584 17.0009C12.874 16.8424 12.7054 16.6612 12.5385 16.4849C12.4063 16.3453 12.2906 16.1723 12.224 15.9916C12.1508 15.7928 12.0614 15.6237 11.961 15.4372C11.8229 15.1807 11.7278 14.8819 11.6569 14.6004C11.598 14.3663 11.5805 14.1086 11.6063 13.8687C11.6278 13.6679 11.65 13.4739 11.6299 13.2717C11.5846 12.816 11.5618 12.351 11.7708 11.9265C11.862 11.7413 12.0009 11.5914 12.1359 11.4373C12.3415 11.2028 12.5699 11.0087 12.8189 10.8204C13.0252 10.6644 13.2233 10.5513 13.4693 10.4659C13.7386 10.3723 14.0367 10.3632 14.3182 10.3278C14.5851 10.2942 14.8189 10.2868 15.063 10.4123C15.1515 10.4578 15.2375 10.5069 15.3316 10.5408C15.4294 10.576 15.5305 10.5872 15.6308 10.6122C15.9827 10.7003 16.2765 10.9365 16.563 11.1447C16.764 11.2907 16.9382 11.4695 17.1196 11.6379C17.204 11.7162 17.2905 11.7911 17.3779 11.866C17.4597 11.9362 17.481 11.996 17.5278 12.0886" stroke="#F8F2EA" stroke-width="0.75" stroke-linecap="round"/>
    <path d="M14.2294 17.3691C14.146 17.3616 14.0746 17.3113 13.9934 17.2949C13.9003 17.2761 13.8205 17.2669 13.7296 17.2386C13.6022 17.1989 13.4695 17.2092 13.3451 17.1534C13.2222 17.0983 13.1085 17.0405 12.98 16.9981" stroke="#F8F2EA" stroke-width="0.75" stroke-linecap="round"/>
    <path d="M10.0572 6.79626C9.89797 6.81672 9.73962 6.88819 9.6021 6.96881C9.51882 7.01762 9.42651 7.05319 9.35044 7.11343C9.28531 7.165 9.23266 7.23009 9.16724 7.2819" stroke="#F8F2EA" stroke-width="0.75" stroke-linecap="round"/>
    <path d="M10.3356 6.69476C10.2754 6.72065 10.2141 6.74397 10.1533 6.76806" stroke="#F8F2EA" stroke-width="0.75" stroke-linecap="round"/>
    <path d="M21.8993 9.49062C21.8993 9.44493 21.9066 9.3983 21.9045 9.35294C21.9022 9.30542 21.8876 9.26153 21.8721 9.21706C21.8336 9.1066 21.8029 8.99669 21.7566 8.88902C21.7232 8.81151 21.71 8.71994 21.6665 8.64718C21.6376 8.59888 21.5965 8.54979 21.5564 8.5101" stroke="#F8F2EA" stroke-width="0.75" stroke-linecap="round"/>
    </svg>
    