<svg width="26" height="36" viewBox="0 0 26 36" fill="none" xmlns="http://www.w3.org/2000/svg">
    <path d="M4.81555 20.2472L4.81745 20.239C5.42005 17.6643 5.46701 14.9929 4.95527 12.39C4.49019 10.7404 3.90245 9.1242 3.19664 7.55393L3.19277 7.54533L3.18934 7.53654C3.15619 7.45161 3.12078 7.37168 3.08172 7.28354C3.06031 7.23521 3.0378 7.18441 3.01397 7.12895C2.95172 6.98409 2.88586 6.81873 2.84569 6.64663C2.80507 6.47255 2.78673 6.27561 2.83303 6.07068C2.88042 5.86098 2.98969 5.66884 3.16387 5.49946L3.18614 5.4778L3.21166 5.46011C3.52539 5.24262 3.90132 5.12837 4.28535 5.13139C4.65595 5.13431 5.01813 5.24631 5.32378 5.45304C6.24714 5.86252 7.07465 6.45268 7.75311 7.18674C8.43982 7.92972 8.9585 8.80356 9.2744 9.75166L9.27735 9.76051L9.27986 9.76949C9.63155 11.031 9.88478 12.3154 10.0373 13.612C10.0574 13.742 10.0618 13.8845 10.0652 13.9979C10.066 14.0216 10.0666 14.0441 10.0674 14.0649C10.0728 14.2076 10.0825 14.2964 10.1026 14.3566C10.116 14.3967 10.1251 14.4005 10.1316 14.4032C10.1322 14.4035 10.1328 14.4037 10.1334 14.404C10.1588 14.4158 10.2484 14.4421 10.4681 14.4077L10.4729 14.407L10.4729 14.407C10.5368 14.3978 10.5971 14.3897 10.6548 14.3819C10.7916 14.3634 10.9136 14.3469 11.0323 14.3237C11.1977 14.2914 11.313 14.2531 11.3932 14.2051C11.4636 14.163 11.5085 14.113 11.5378 14.0352C11.5708 13.9475 11.5932 13.798 11.5598 13.546L11.558 13.533L11.5572 13.5199C11.502 12.6265 11.5166 11.7308 11.601 10.8407C11.6073 10.6133 11.618 10.291 11.7619 10.0245C11.9344 9.70517 12.2484 9.53472 12.6791 9.50651C12.8609 9.48362 13.0458 9.49725 13.2224 9.54655C13.4039 9.5972 13.5731 9.68456 13.7189 9.80343C13.8647 9.92234 13.9839 10.0704 14.0678 10.2383C14.1467 10.3964 14.1926 10.5686 14.2021 10.7447C14.2429 10.9607 14.263 11.1862 14.2777 11.4003C14.2831 11.4788 14.2877 11.5544 14.2922 11.6283C14.3011 11.7735 14.3096 11.9118 14.3227 12.0507C14.3631 12.4812 14.4389 12.7572 14.5834 12.9133L14.5845 12.9145C15.3182 13.7141 15.4731 14.4992 15.3922 15.2665C15.3533 15.6359 15.2604 15.9968 15.1655 16.3376C15.1461 16.407 15.1268 16.4753 15.1077 16.5428C15.0316 16.8112 14.959 17.0675 14.9044 17.33C14.6924 18.9296 14.6209 20.5448 14.691 22.1585L14.6923 22.1892L14.6886 22.2197C14.6822 22.2726 14.676 22.3172 14.6704 22.358C14.6616 22.4218 14.6541 22.4763 14.649 22.5386C14.6414 22.6315 14.6457 22.6877 14.6552 22.7231C14.6621 22.7486 14.6709 22.7629 14.6921 22.7794C14.7203 22.8014 14.7886 22.8396 14.9386 22.8665C14.9387 22.8665 14.9389 22.8666 14.9391 22.8666L14.8729 23.2357C17.2416 23.6536 18.2053 25.2738 18.3992 27.3728L4.81555 20.2472ZM4.81555 20.2472L4.81401 20.2554C4.75689 20.56 4.69803 20.8636 4.63933 21.1664C4.46504 22.0654 4.29212 22.9574 4.17003 23.8473C4.07992 24.1858 4.11314 24.5444 4.26292 24.8626C4.41664 25.1891 4.68247 25.4508 5.01093 25.605L5.01087 25.6052L5.02024 25.6093C5.22506 25.6987 5.4334 25.7157 5.63153 25.6516C5.81895 25.591 5.95846 25.4701 6.0596 25.3564C6.16077 25.2426 6.24366 25.1127 6.30978 25.0038C6.33298 24.9655 6.35364 24.9308 6.37273 24.8987C6.41392 24.8295 6.44785 24.7724 6.48446 24.7188L6.48604 24.7164C6.51149 24.6785 6.53696 24.6406 6.56245 24.6027C8.00988 22.4477 9.51886 20.2011 9.85317 17.4321L9.8535 17.4291C9.88045 17.1899 9.93945 17.0539 9.9968 16.9743C10.0507 16.8995 10.1202 16.8504 10.2193 16.8151C10.3262 16.777 10.4622 16.7573 10.6393 16.7475C10.7264 16.7427 10.8172 16.7406 10.9156 16.7385L10.9347 16.7381C11.0256 16.7362 11.1229 16.7341 11.2204 16.7296L11.2204 16.7296L11.2238 16.7294C11.4528 16.7167 11.5467 16.7514 11.5763 16.7682C11.5768 16.7685 11.5774 16.7688 11.5779 16.7691C11.588 16.7748 11.5963 16.7794 11.6057 16.8184C11.6201 16.8776 11.6219 16.9647 11.6134 17.1062C11.612 17.1291 11.6103 17.154 11.6084 17.1806C11.6009 17.2903 11.5915 17.427 11.5969 17.5533C11.5872 18.2647 11.6158 18.9764 11.6825 19.6855L11.6839 19.7003L11.6864 19.7149C11.8855 20.855 11.8643 21.704 11.5217 22.3418C11.1879 22.9634 10.4983 23.4724 9.13778 23.8083L9.13774 23.8082L9.12693 23.8112C8.06873 24.1063 7.13177 24.7122 6.44668 25.5479C5.76142 26.3838 5.36263 27.4077 5.30697 28.4787C5.25131 29.5496 5.54164 30.612 6.13557 31.5197C6.7263 32.4225 7.58818 33.1278 8.60203 33.5418C9.71084 34.1087 10.9504 34.3891 12.1995 34.3556C13.452 34.322 14.672 33.974 15.7392 33.3446C16.813 32.7585 17.6784 31.8711 18.2201 30.7961C18.7611 29.7226 18.9533 28.5135 18.7716 27.3268L4.81555 20.2472ZM8.32335 31.036C7.43385 29.9048 7.0956 28.9828 7.19732 28.2205C7.28626 27.5539 7.7272 26.9137 8.63608 26.3006C8.37336 26.9534 8.20171 27.6398 8.12733 28.342C8.03168 29.2447 8.09866 30.1561 8.32335 31.036ZM13.2858 26.9131L13.3871 26.9284L13.4821 26.89C14.1619 26.6155 14.6444 26.599 14.9094 26.7562C15.1342 26.8896 15.3731 27.2666 15.2449 28.2918C15.1506 29.0398 14.7427 29.7359 14.1933 30.2098C13.641 30.6862 12.9893 30.904 12.4135 30.7854L12.4135 30.7853L12.4079 30.7842C12.1724 30.7395 11.9496 30.6472 11.754 30.5142C11.5585 30.3811 11.3951 30.2106 11.2738 30.0145C11.1526 29.8185 11.0762 29.6012 11.0487 29.3772C11.0212 29.1532 11.0432 28.9267 11.1132 28.7125L11.1207 28.6895L11.1252 28.6657C11.228 28.1226 11.3491 27.6314 11.6379 27.2994C11.8945 27.0045 12.3459 26.7715 13.2858 26.9131Z" fill="#060606" stroke="#F8F2EA" stroke-width="0.75"/>
    <path d="M16.8341 9.03139C16.9083 8.00732 17.1475 7.002 17.5426 6.05308C17.7414 5.44319 18.1188 4.6876 18.8644 4.88327C19.8439 5.14238 19.6914 4.70135 19.5526 4.14754C19.3347 3.28485 19.6982 2.94137 20.5829 3.02177C21.4677 3.10217 21.9969 3.38617 21.7935 4.33006C21.6177 5.30937 21.3667 6.27383 21.0426 7.21518C19.5135 11.0149 19.5401 15.2557 21.1168 19.0481C21.5801 20.2485 22.006 21.4621 22.408 22.7256C22.5935 23.1401 22.6088 23.6087 22.4509 24.0329C22.2929 24.4571 21.9739 24.8039 21.5609 25.0004C20.6746 25.3776 20.3257 24.3406 19.9696 23.7342C17.4688 19.2422 16.3774 14.1246 16.8341 9.03139ZM19.3128 5.09587C18.9216 5.48203 18.6297 5.95466 18.4612 6.47471C18.2926 6.99476 18.2523 7.5473 18.3435 8.08669C18.9869 7.22018 19.3326 6.17337 19.3305 5.098L19.3128 5.09587Z" fill="#060606"/>
    <path d="M13.1683 26.3975C14.5934 25.8397 15.7725 26.0788 15.507 28.2009C15.2977 29.9342 13.6337 31.3072 12.1532 31.0054C11.8603 30.9501 11.5822 30.8374 11.3373 30.6744C11.0924 30.5115 10.8862 30.3021 10.7323 30.0601C10.5783 29.818 10.4802 29.5488 10.4443 29.2702C10.4085 28.9915 10.4356 28.7097 10.5241 28.4435C10.7245 27.4037 11.0621 26.0816 13.1683 26.3975Z" fill="#F8F2EA"/>
    <path d="M8.36972 31.7252C5.66253 28.9515 5.88086 26.9888 9.24973 25.5147C8.68742 26.3819 8.34185 27.352 8.23621 28.3599C8.13057 29.3679 8.26733 30.3901 8.63731 31.358C8.6274 31.44 8.46809 31.6039 8.36972 31.7252Z" fill="#F8F2EA"/>
    <path d="M12.3177 9.972C12.256 10.0387 12.1968 10.1092 12.1297 10.1713C12.0906 10.2075 12.0531 10.2384 12.0262 10.2845C11.979 10.3652 11.9499 10.4595 11.9216 10.5474C11.8879 10.6526 11.8663 10.7609 11.8584 10.8709C11.8532 10.9441 11.8557 11.0154 11.8724 11.0875C11.8931 11.1769 11.9246 11.2644 11.9308 11.3561C11.942 11.5193 11.9067 11.6859 11.8952 11.8481C11.879 12.0778 11.8879 12.3071 11.8889 12.5373C11.8901 12.7958 11.8948 13.0559 11.9084 13.3144C11.9242 13.614 11.9674 13.9298 11.8326 14.2104C11.7179 14.4491 11.4077 14.61 11.1472 14.6565C11.0203 14.6791 10.8898 14.6919 10.7618 14.7091C10.653 14.7238 10.5435 14.7356 10.4337 14.7438C10.3139 14.7529 10.1939 14.7579 10.0746 14.7372C9.9982 14.7239 9.90817 14.7068 9.84577 14.6595C9.73813 14.5778 9.70245 14.4557 9.68551 14.3326C9.67432 14.2514 9.67628 14.1692 9.66983 14.0877C9.66137 13.9809 9.65179 13.8742 9.64283 13.7674C9.63542 13.6792 9.63139 13.59 9.61802 13.5022C9.60677 13.4285 9.58419 13.3564 9.56997 13.2831C9.54937 13.1768 9.54436 13.0695 9.53213 12.9624C9.51548 12.8167 9.48198 12.6754 9.45211 12.5317C9.40862 12.3226 9.38421 12.1128 9.35664 11.9021C9.33993 11.7743 9.3145 11.6475 9.29732 11.5198C9.28597 11.4355 9.27882 11.3503 9.2591 11.267C9.19969 11.0162 9.11325 10.7688 9.02717 10.5249C8.93563 10.2656 8.87343 9.99837 8.78639 9.73768C8.67234 9.39613 8.5412 9.0587 8.39026 8.72948C8.30302 8.53923 8.20661 8.35294 8.08441 8.17968C7.99024 8.04616 7.87723 7.93032 7.75732 7.81709C7.64511 7.71114 7.53806 7.60404 7.4385 7.48739C7.34051 7.37258 7.23145 7.26824 7.12781 7.15804C7.00639 7.02893 6.89745 6.88909 6.76814 6.76664C6.67866 6.6819 6.59621 6.59025 6.50627 6.50633C6.42107 6.42683 6.31212 6.38286 6.2016 6.3442C6.09457 6.30676 5.99969 6.26742 5.9032 6.20898C5.82259 6.16017 5.73991 6.11407 5.66087 6.06299C5.57103 6.00493 5.48875 5.94165 5.39128 5.89489C5.19347 5.79997 5.00701 5.68781 4.81346 5.58559C4.66125 5.5052 4.46584 5.48737 4.29639 5.51711C4.22959 5.52883 4.16383 5.54577 4.09739 5.5591C4.01961 5.57471 3.94125 5.57647 3.86197 5.5814C3.79784 5.58538 3.73696 5.58979 3.68123 5.62145C3.59299 5.67159 3.50624 5.72896 3.42109 5.78365C3.34881 5.83008 3.29371 5.89107 3.25879 5.96691C3.22128 6.04834 3.18819 6.14704 3.18403 6.23665C3.1797 6.33004 3.19233 6.42893 3.19921 6.52236C3.20659 6.62248 3.2161 6.72487 3.25589 6.81945C3.3266 6.98753 3.44134 7.15314 3.57184 7.28563" stroke="#F8F2EA" stroke-width="0.75" stroke-linecap="round"/>
    <path d="M3.52222 7.23962C3.58933 7.36033 3.6328 7.49436 3.67524 7.62362C3.70041 7.70028 3.72395 7.77771 3.75477 7.85266C3.78997 7.93831 3.82821 8.02231 3.85107 8.1118C3.87571 8.20823 3.88711 8.30632 3.91641 8.40196C3.94679 8.50112 3.99087 8.59414 4.03528 8.68838C4.12282 8.87413 4.18189 9.06519 4.25604 9.25534C4.31257 9.4003 4.39978 9.52894 4.47461 9.66575C4.51462 9.73891 4.55903 9.80913 4.58985 9.88635C4.62899 9.98438 4.65352 10.0859 4.67906 10.1874C4.72147 10.3558 4.78267 10.5192 4.83467 10.6852C4.90907 10.9227 4.9781 11.163 5.04758 11.4018C5.0754 11.4974 5.10258 11.5934 5.11601 11.6917C5.13016 11.7952 5.14531 11.8944 5.18159 11.994C5.2252 12.1137 5.27878 12.2289 5.30876 12.3525C5.33028 12.4413 5.33783 12.5297 5.34214 12.62C5.35182 12.8234 5.39057 13.0249 5.42274 13.2262C5.43748 13.3184 5.44285 13.4107 5.45326 13.5032C5.46561 13.613 5.49163 13.7204 5.50984 13.8293C5.54378 14.0322 5.52849 14.2378 5.56338 14.4399C5.58197 14.5476 5.60363 14.6531 5.60815 14.7623C5.61495 14.9264 5.60632 15.0904 5.60999 15.2544C5.61538 15.4949 5.65651 15.7325 5.65256 15.9727C5.64991 16.134 5.64153 16.2877 5.66249 16.4485" stroke="#F8F2EA" stroke-width="0.75" stroke-linecap="round"/>
    <path d="M14.2122 12.9968C14.202 12.9855 14.1982 12.9681 14.1941 12.9547C14.1795 12.9067 14.1681 12.8579 14.1559 12.8094C14.1232 12.6804 14.0891 12.554 14.0291 12.4331C13.9839 12.3419 13.9466 12.2528 13.9281 12.1536C13.9074 12.0419 13.8988 11.929 13.882 11.817C13.8672 11.7181 13.8451 11.6234 13.8423 11.5232C13.8398 11.4331 13.8415 11.3429 13.8436 11.2529C13.8477 11.0773 13.8449 10.903 13.7984 10.7313C13.7774 10.6539 13.7675 10.5754 13.749 10.4977C13.7307 10.4207 13.6937 10.3492 13.6527 10.2806C13.5492 10.1072 13.4148 9.94896 13.2097 9.88044C13.0005 9.81055 12.7853 9.77886 12.5794 9.8627C12.4438 9.91789 12.3322 9.98554 12.2581 10.1084" stroke="#F8F2EA" stroke-width="0.75" stroke-linecap="round"/>
    <path d="M14.2007 12.9677C14.2198 13.0169 14.2583 13.0632 14.2939 13.1032C14.3495 13.1657 14.4094 13.2232 14.461 13.2891C14.5124 13.3546 14.5557 13.4233 14.5991 13.4934C14.6581 13.5886 14.7216 13.6813 14.7869 13.7728C14.8259 13.8274 14.8684 13.8801 14.9008 13.9386C14.9317 13.9944 14.9526 14.0538 14.9689 14.1145C15.0031 14.2419 15.02 14.3696 15.0344 14.4998C15.0496 14.638 15.0709 14.7761 15.0662 14.9151C15.0621 15.0378 15.0522 15.1642 15.0269 15.2846C15.0021 15.4023 14.9855 15.5219 14.9569 15.6387C14.9392 15.7111 14.9204 15.7832 14.8948 15.8534C14.8697 15.9221 14.8408 15.9894 14.8175 16.0588C14.7239 16.3371 14.6654 16.6259 14.5876 16.9084C14.5486 17.0498 14.5093 17.1874 14.4924 17.3339C14.4828 17.4172 14.4887 17.4988 14.4926 17.5824C14.4983 17.7042 14.4945 17.8226 14.4711 17.9422C14.4332 18.1358 14.4002 18.3292 14.3765 18.5251C14.3616 18.649 14.3609 18.7732 14.3584 18.8979" stroke="#F8F2EA" stroke-width="0.75" stroke-linecap="round"/>
    <path d="M14.3616 18.8441C14.3583 18.8908 14.3538 18.9376 14.3537 18.9844C14.3536 19.0403 14.3615 19.0958 14.3628 19.1516C14.3658 19.2883 14.3382 19.4257 14.3284 19.5617C14.323 19.6368 14.3231 19.7123 14.3206 19.7875C14.3168 19.8998 14.3075 20.0114 14.2997 20.1233C14.2941 20.2021 14.2933 20.2812 14.2945 20.3603C14.2958 20.4491 14.3077 20.537 14.3134 20.6256C14.3248 20.802 14.3177 20.9805 14.3118 21.1567C14.308 21.2714 14.3034 21.3863 14.3067 21.5012C14.3099 21.6157 14.3215 21.7301 14.3262 21.8447C14.3307 21.9523 14.3281 22.0598 14.3324 22.1674C14.3366 22.2739 14.347 22.3803 14.3492 22.4869C14.3508 22.567 14.3422 22.6456 14.3357 22.7251C14.3307 22.7867 14.337 22.8462 14.3599 22.9049C14.3798 22.956 14.4111 23.0044 14.4528 23.0427C14.4986 23.0848 14.5607 23.0985 14.621 23.1115C14.6932 23.1271 14.7642 23.1378 14.8328 23.1656C14.9101 23.1969 14.9847 23.234 15.0617 23.266C15.202 23.3242 15.3495 23.3653 15.4912 23.4202C15.6852 23.4952 15.8775 23.574 16.0677 23.6571C16.1149 23.6777 16.1647 23.693 16.2136 23.7096C16.3029 23.7399 16.3912 23.773 16.4772 23.8115C16.5614 23.8492 16.6316 23.9054 16.704 23.96C16.7728 24.0118 16.831 24.0677 16.8906 24.1284C17.0474 24.2878 17.2179 24.4342 17.3665 24.6008C17.4972 24.7472 17.6128 24.9048 17.746 25.0492" stroke="#F8F2EA" stroke-width="0.75" stroke-linecap="round"/>
    <path d="M17.7292 25.0471C17.761 25.1135 17.8075 25.1746 17.8525 25.2337C17.899 25.2949 17.9363 25.3551 17.967 25.4246C18.0025 25.5051 18.0349 25.5871 18.0603 25.671C18.075 25.7194 18.0858 25.7687 18.1016 25.8169C18.1191 25.8699 18.1418 25.9213 18.1593 25.9743C18.1932 26.0773 18.2156 26.1833 18.2481 26.2867C18.3101 26.4834 18.3869 26.6793 18.4287 26.8807C18.4644 27.0524 18.4838 27.2303 18.4908 27.4048C18.4938 27.4788 18.4902 27.5523 18.4853 27.6261C18.4776 27.7416 18.4705 27.8571 18.4637 27.9726C18.4544 28.1278 18.4514 28.2812 18.4518 28.4368C18.452 28.5222 18.4547 28.6068 18.4614 28.6921C18.4661 28.7526 18.4695 28.8122 18.467 28.8727C18.4625 28.9787 18.449 29.086 18.4333 29.1908C18.4213 29.2709 18.4072 29.3516 18.3835 29.4293C18.3613 29.5022 18.3285 29.5722 18.2956 29.6412C18.2353 29.7676 18.1564 29.887 18.1043 30.0168C18.0589 30.13 18.0457 30.2513 18.0058 30.3662C17.9397 30.5571 17.8512 30.747 17.7456 30.9212C17.6599 31.0627 17.5478 31.1824 17.436 31.3053" stroke="#F8F2EA" stroke-width="0.75" stroke-linecap="round"/>
    <path d="M17.5021 31.2368C17.4219 31.3251 17.3479 31.4176 17.2736 31.5103C17.1942 31.6095 17.1235 31.7143 17.0435 31.8131C16.9696 31.9043 16.8866 31.988 16.8072 32.0749C16.6882 32.2051 16.5592 32.3265 16.4164 32.4338C16.3016 32.5201 16.1813 32.6018 16.0617 32.6822C15.9037 32.7886 15.7381 32.8782 15.5678 32.9661C15.3827 33.0616 15.2045 33.17 15.0148 33.2576C14.8095 33.3524 14.6007 33.44 14.3875 33.5182C14.1727 33.5971 13.9567 33.6707 13.7377 33.7388C13.5865 33.7858 13.4349 33.833 13.2795 33.8669C13.1925 33.8859 13.1039 33.8959 13.016 33.9101C12.8289 33.9404 12.6449 33.9861 12.4559 34.0068C12.3569 34.0177 12.2584 34.0131 12.159 34.0099C12.0384 34.0061 11.9177 34.0035 11.7971 33.9979C11.7179 33.9942 11.6396 33.986 11.5607 33.9788C11.4212 33.966 11.2815 33.9565 11.1421 33.9417C11.0241 33.9291 10.9052 33.9187 10.7879 33.901C10.6895 33.8862 10.5917 33.8651 10.4944 33.8444C10.4315 33.831 10.3694 33.8139 10.3062 33.8015C10.2474 33.7898 10.1874 33.7833 10.1293 33.7688C10.0679 33.7534 10.0075 33.7303 9.95339 33.6987C9.93433 33.6875 9.91078 33.6713 9.89515 33.6555C9.86034 33.6203 9.89608 33.6511 9.86888 33.6166" stroke="#F8F2EA" stroke-width="0.75" stroke-linecap="round"/>
    <path d="M9.87075 33.6009C9.79217 33.5772 9.71606 33.5463 9.63786 33.5214C9.52884 33.4868 9.41795 33.4626 9.30671 33.4361C9.14383 33.3974 8.98428 33.3462 8.829 33.2853C8.62972 33.2072 8.42852 33.1317 8.23283 33.0457C8.09772 32.9863 7.9519 32.9212 7.83655 32.8304C7.79574 32.7982 7.76437 32.7605 7.73354 32.7201C7.6936 32.6677 7.65396 32.6183 7.60643 32.5716C7.51941 32.4861 7.4309 32.4005 7.33924 32.3194C7.28136 32.2682 7.22021 32.2205 7.16443 32.1672C7.06313 32.0703 6.97653 31.9611 6.88237 31.8583C6.82902 31.8001 6.77087 31.7451 6.71929 31.6855C6.67456 31.6338 6.64054 31.5756 6.60763 31.517C6.5515 31.4169 6.50037 31.3147 6.45449 31.2103C6.41132 31.112 6.37499 31.0113 6.33074 30.9135C6.28573 30.8139 6.23396 30.7178 6.17586 30.6243C6.12414 30.541 6.06654 30.4614 6.01847 30.3762C5.9274 30.2147 5.85679 30.0465 5.81145 29.8697C5.76541 29.69 5.71061 29.5095 5.6871 29.326C5.67083 29.1991 5.67266 29.0725 5.67566 28.9453C5.68005 28.7593 5.68018 28.5749 5.67163 28.3889C5.6656 28.2574 5.66089 28.1276 5.67985 27.997C5.69786 27.8729 5.73521 27.7525 5.76796 27.6316C5.8129 27.4659 5.84522 27.2999 5.86577 27.1297" stroke="#F8F2EA" stroke-width="0.75" stroke-linecap="round"/>
    <path d="M8.58657 31.9322C8.6123 31.8902 8.6395 31.8461 8.6732 31.809C8.70747 31.7714 8.74372 31.7313 8.75824 31.6819C8.76525 31.6581 8.77134 31.6093 8.7611 31.5847C8.72466 31.4973 8.68401 31.4112 8.6432 31.3255C8.60889 31.2534 8.5801 31.1796 8.54125 31.1094C8.46422 30.9702 8.41565 30.823 8.36784 30.6733C8.33893 30.5828 8.31159 30.4918 8.28187 30.4015C8.23775 30.2673 8.18404 30.1342 8.15555 29.9962C8.093 29.6933 8.14046 29.3889 8.15186 29.0851" stroke="#F8F2EA" stroke-width="0.75" stroke-linecap="round"/>
    <path d="M8.69794 31.4901C8.69165 31.4225 8.6739 31.3571 8.65679 31.2913C8.64108 31.2308 8.6305 31.1697 8.61378 31.1094C8.58921 31.0207 8.56482 30.9334 8.53471 30.8462C8.50229 30.7522 8.47186 30.6576 8.44763 30.5616C8.42682 30.4791 8.40422 30.3971 8.38282 30.3148C8.35385 30.2033 8.31997 30.0921 8.29637 29.9796C8.26979 29.853 8.25385 29.7228 8.24089 29.5944C8.22362 29.4235 8.25357 29.2505 8.25959 29.0798C8.26275 28.9902 8.2589 28.9004 8.25846 28.8107C8.2578 28.6773 8.26949 28.5445 8.28448 28.4122C8.29877 28.286 8.31696 28.1584 8.34943 28.0353C8.38288 27.9085 8.43382 27.7863 8.47317 27.6611C8.50161 27.5706 8.51976 27.4778 8.55144 27.3882C8.58361 27.2972 8.62463 27.2097 8.66121 27.1203C8.70399 27.0158 8.74294 26.9081 8.7732 26.7996C8.79665 26.7155 8.80833 26.6292 8.82597 26.544" stroke="#F8F2EA" stroke-width="0.75" stroke-linecap="round"/>
    <path d="M8.34501 27.6266C8.35603 27.5002 8.38732 27.3746 8.43609 27.257C8.48039 27.1501 8.53635 27.0502 8.57001 26.9392C8.58904 26.8765 8.60961 26.8136 8.6235 26.7495C8.63541 26.6946 8.64105 26.6386 8.64778 26.5829" stroke="#F8F2EA" stroke-width="0.75" stroke-linecap="round"/>
    <path d="M8.56216 30.868C8.56911 30.7632 8.55278 30.6584 8.53885 30.5544C8.51551 30.3802 8.50961 30.2048 8.48077 30.0311C8.46683 29.9471 8.45033 29.8634 8.43676 29.7794C8.41819 29.6643 8.40902 29.5489 8.40001 29.4331C8.38922 29.2946 8.37482 29.156 8.37317 29.0172C8.37195 28.9152 8.37763 28.8134 8.38603 28.7119C8.39916 28.5535 8.42052 28.3951 8.44197 28.2377C8.45332 28.1543 8.46634 28.0711 8.47743 27.9877C8.49087 27.8867 8.5012 27.7853 8.52039 27.685C8.5551 27.5038 8.59117 27.3231 8.63707 27.1441C8.667 27.0274 8.68817 26.9095 8.70767 26.7908" stroke="#F8F2EA" stroke-width="0.75" stroke-linecap="round"/>
    <path d="M8.76665 31.4288C8.75579 31.3731 8.73361 31.3209 8.71569 31.2669C8.68918 31.1871 8.66743 31.1075 8.6349 31.0294C8.61026 30.9702 8.58819 30.9123 8.57527 30.8499C8.56534 30.802 8.55684 30.754 8.54419 30.7065" stroke="#F8F2EA" stroke-width="0.75" stroke-linecap="round"/>
    <path d="M8.77443 31.4547C8.81233 31.4961 8.81593 31.555 8.80707 31.6064C8.80012 31.6467 8.79145 31.6883 8.75208 31.7088C8.70206 31.7348 8.64761 31.7416 8.5935 31.7545C8.57786 31.7582 8.57041 31.775 8.55648 31.7786C8.54771 31.7809 8.52062 31.7544 8.51297 31.7499C8.49868 31.7415 8.48389 31.7338 8.47131 31.723C8.45187 31.7063 8.4503 31.6721 8.44898 31.6491C8.44793 31.631 8.46483 31.6077 8.47396 31.5928C8.49067 31.5655 8.53133 31.5862 8.55195 31.5996C8.56697 31.6093 8.58136 31.6208 8.59457 31.6326C8.6007 31.6381 8.61241 31.6555 8.62197 31.6567C8.65098 31.6602 8.65279 31.5931 8.65033 31.6635" stroke="#F8F2EA" stroke-width="0.75" stroke-linecap="round"/>
    <path d="M8.55283 31.8775C8.53201 31.8516 8.52696 31.8173 8.50542 31.791C8.48423 31.7651 8.46745 31.7401 8.45039 31.7113C8.40106 31.6282 8.34259 31.5527 8.30322 31.4646" stroke="#F8F2EA" stroke-width="0.75" stroke-linecap="round"/>
    <path d="M8.56268 31.907C8.54906 31.8676 8.51585 31.8315 8.4913 31.7974C8.44205 31.7291 8.41242 31.6525 8.35609 31.5878C8.2961 31.5189 8.23905 31.4525 8.19743 31.3721C8.17616 31.331 8.15268 31.2952 8.12556 31.2572C8.09155 31.2096 8.07373 31.1612 8.05762 31.1067" stroke="#F8F2EA" stroke-width="0.75" stroke-linecap="round"/>
    <path d="M8.20361 31.3925C8.14024 31.3479 8.10482 31.2922 8.0666 31.2293C8.0336 31.175 7.98595 31.1325 7.95181 31.0793C7.93758 31.0571 7.91773 31.039 7.90512 31.015C7.89108 30.9883 7.86815 30.9631 7.8501 30.9384" stroke="#F8F2EA" stroke-width="0.75" stroke-linecap="round"/>
    <path d="M9.18557 25.6473C9.16723 25.6841 9.12486 25.7108 9.09972 25.7436C9.04094 25.8203 9.00421 25.9136 8.95717 25.9968C8.87665 26.1392 8.79507 26.2779 8.7308 26.428C8.70766 26.482 8.6885 26.5348 8.67825 26.5926C8.67171 26.6296 8.66862 26.667 8.66254 26.704C8.63654 26.8622 8.66973 26.6522 8.64239 26.7958" stroke="#F8F2EA" stroke-width="0.75" stroke-linecap="round"/>
    <path d="M9.18629 25.7843C9.1178 25.9103 9.03395 26.0278 8.9724 26.1575C8.92287 26.2619 8.88167 26.3702 8.85101 26.481C8.82314 26.5818 8.80471 26.6851 8.78307 26.7872" stroke="#F8F2EA" stroke-width="0.75" stroke-linecap="round"/>
    <path d="M9.51045 25.378C9.49893 25.3938 9.4884 25.4089 9.4791 25.4258C9.47325 25.4364 9.46766 25.4471 9.46165 25.4576C9.45399 25.471 9.44512 25.4839 9.43801 25.4976C9.42922 25.5145 9.42214 25.5321 9.41295 25.5488C9.39136 25.5882 9.36244 25.6234 9.34098 25.6627C9.31997 25.7011 9.30667 25.7424 9.2806 25.7784" stroke="#F8F2EA" stroke-width="0.75" stroke-linecap="round"/>
    <path d="M9.49818 25.3866C9.48085 25.3993 9.45807 25.4041 9.43927 25.4147C9.42348 25.4236 9.40836 25.4337 9.39217 25.442C9.37516 25.4507 9.35713 25.4578 9.33991 25.4662C9.32261 25.4746 9.30458 25.4814 9.28768 25.4906C9.26733 25.5017 9.24742 25.5134 9.22724 25.5247C9.20244 25.5385 9.17647 25.5495 9.15255 25.5648C9.13199 25.578 9.11261 25.5926 9.09126 25.6046" stroke="#F8F2EA" stroke-width="0.75" stroke-linecap="round"/>
    <path d="M9.47328 25.4119C9.45065 25.4299 9.43285 25.4531 9.41411 25.4745C9.39807 25.4928 9.38271 25.5117 9.37085 25.5328C9.36097 25.5504 9.35387 25.5693 9.34622 25.5878C9.33664 25.6109 9.3275 25.6343 9.31652 25.6569C9.30958 25.6711 9.29957 25.6844 9.29395 25.6992C9.28882 25.7127 9.28776 25.7274 9.28451 25.7414C9.28251 25.7501 9.27987 25.7585 9.2772 25.767" stroke="#F8F2EA" stroke-width="0.75" stroke-linecap="round"/>
    <path d="M9.45152 25.4541C9.44345 25.4787 9.43193 25.5009 9.41825 25.5231C9.4016 25.5502 9.38631 25.5772 9.37221 25.6055C9.36293 25.6242 9.3507 25.6412 9.34128 25.6598C9.33242 25.6772 9.32556 25.6956 9.31686 25.713" stroke="#F8F2EA" stroke-width="0.75" stroke-linecap="round"/>
    <path d="M9.43398 25.4693C9.42959 25.4847 9.4255 25.5001 9.42 25.5151C9.40861 25.5463 9.39254 25.5741 9.37293 25.6011C9.36363 25.614 9.35386 25.6265 9.34544 25.6399C9.33578 25.6552 9.32979 25.6708 9.32281 25.6872" stroke="#F8F2EA" stroke-width="0.75" stroke-linecap="round"/>
    <path d="M9.41633 25.4937C9.40269 25.5189 9.39334 25.546 9.37923 25.5709C9.37295 25.5821 9.36834 25.5883 9.36135 25.5989C9.35549 25.6078 9.351 25.6167 9.34581 25.6258" stroke="#F8F2EA" stroke-width="0.75" stroke-linecap="round"/>
    <path d="M9.42412 25.4306C9.41713 25.4658 9.40804 25.5009 9.39386 25.5341C9.3837 25.5579 9.37086 25.5807 9.35932 25.6039" stroke="#F8F2EA" stroke-width="0.75" stroke-linecap="round"/>
    <path d="M9.4073 25.4578C9.39603 25.4703 9.39305 25.491 9.38803 25.5061C9.37955 25.5317 9.37107 25.5589 9.35627 25.582C9.34704 25.5964 9.3352 25.6095 9.32491 25.6232C9.32313 25.6256 9.32152 25.6281 9.3196 25.6303C9.31892 25.6311 9.31824 25.6326 9.31713 25.6324C9.31515 25.6321 9.31827 25.6135 9.31828 25.6135" stroke="#F8F2EA" stroke-width="0.75" stroke-linecap="round"/>
    <path d="M9.38194 25.4575C9.38104 25.4718 9.37842 25.4861 9.37433 25.4998C9.367 25.5246 9.3534 25.5451 9.33912 25.5666C9.33027 25.5799 9.32164 25.5934 9.31332 25.607C9.31224 25.6088 9.30577 25.6201 9.31065 25.6116" stroke="#F8F2EA" stroke-width="0.75" stroke-linecap="round"/>
    <path d="M9.36311 25.4753C9.36105 25.5083 9.34885 25.5399 9.33276 25.5689C9.32716 25.579 9.3212 25.589 9.31466 25.5986C9.31417 25.5993 9.31095 25.6041 9.30911 25.6051C9.308 25.6057 9.30804 25.6039 9.30764 25.6038" stroke="#F8F2EA" stroke-width="0.75" stroke-linecap="round"/>
    <path d="M9.3585 25.4702C9.35157 25.4735 9.3452 25.478 9.33897 25.4823C9.31901 25.4958 9.30013 25.5107 9.27979 25.5238C9.26744 25.5317 9.25532 25.5394 9.24463 25.5493C9.24223 25.5515 9.23834 25.5535 9.23824 25.5567C9.23817 25.5591 9.25085 25.5574 9.25095 25.5574" stroke="#F8F2EA" stroke-width="0.75" stroke-linecap="round"/>
    <path d="M9.35117 25.4987C9.31563 25.4973 9.27911 25.5127 9.25374 25.5354C9.24464 25.5436 9.23743 25.5536 9.23095 25.5637C9.23013 25.565 9.22686 25.5702 9.22621 25.5723C9.22499 25.5764 9.22712 25.5715 9.22744 25.5738" stroke="#F8F2EA" stroke-width="0.75" stroke-linecap="round"/>
    <path d="M9.36667 25.5059C9.33931 25.5225 9.31426 25.5441 9.29213 25.5663C9.28222 25.5763 9.27421 25.5849 9.2675 25.5967C9.26242 25.6056 9.26523 25.6026 9.26607 25.6086" stroke="#F8F2EA" stroke-width="0.75" stroke-linecap="round"/>
    <path d="M9.35055 25.5103C9.33445 25.5331 9.31478 25.5536 9.29413 25.5727C9.28758 25.5788 9.27148 25.589 9.26942 25.5979" stroke="#F8F2EA" stroke-width="0.75" stroke-linecap="round"/>
    <path d="M9.34123 25.4809C9.32634 25.5119 9.30591 25.5424 9.27911 25.5653" stroke="#F8F2EA" stroke-width="0.75" stroke-linecap="round"/>
    <path d="M9.33842 25.5126C9.3086 25.536 9.27556 25.5551 9.24445 25.5766" stroke="#F8F2EA" stroke-width="0.75" stroke-linecap="round"/>
    <path d="M9.30104 25.5144C9.28593 25.5332 9.26833 25.5497 9.25068 25.5662" stroke="#F8F2EA" stroke-width="0.75" stroke-linecap="round"/>
    <path d="M9.26597 25.5176C9.25996 25.5213 9.25386 25.5248 9.24813 25.5288C9.24388 25.5318 9.24334 25.5337 9.2405 25.5369" stroke="#F8F2EA" stroke-width="0.75" stroke-linecap="round"/>
    <path d="M9.32146 25.5361C9.31556 25.5536 9.31231 25.5717 9.30814 25.5896" stroke="#F8F2EA" stroke-width="0.75" stroke-linecap="round"/>
    <path d="M9.3126 25.5836C9.30318 25.5868 9.29592 25.5929 9.28857 25.5991" stroke="#F8F2EA" stroke-width="0.75" stroke-linecap="round"/>
    <path d="M9.31726 25.6224C9.31397 25.6404 9.31547 25.6588 9.31167 25.6768C9.30829 25.6927 9.3057 25.7083 9.30015 25.7237C9.29481 25.7386 9.29486 25.7525 9.29436 25.7681C9.29407 25.7774 9.29057 25.7863 9.28857 25.7954" stroke="#F8F2EA" stroke-width="0.75" stroke-linecap="round"/>
    <path d="M9.307 25.7308C9.30131 25.7452 9.29989 25.7603 9.29577 25.7751C9.29232 25.7875 9.28906 25.8003 9.28922 25.8131" stroke="#F8F2EA" stroke-width="0.75" stroke-linecap="round"/>
    <path d="M9.30641 25.7279C9.30292 25.7402 9.30094 25.7524 9.29878 25.765C9.2976 25.7718 9.29594 25.7786 9.29478 25.7855C9.29414 25.7893 9.29254 25.7919 9.29511 25.789" stroke="#F8F2EA" stroke-width="0.75" stroke-linecap="round"/>
    <path d="M9.34911 25.6728C9.34667 25.6883 9.34013 25.7023 9.33407 25.7166C9.32651 25.7345 9.31946 25.7526 9.31201 25.7706C9.30684 25.783 9.30122 25.7952 9.29583 25.8076C9.28621 25.8296 9.27408 25.85 9.26181 25.8708" stroke="#F8F2EA" stroke-width="0.75" stroke-linecap="round"/>
    <path d="M9.3836 25.5921C9.37655 25.6116 9.36532 25.6295 9.35768 25.6489C9.34935 25.67 9.33972 25.6903 9.32913 25.7104" stroke="#F8F2EA" stroke-width="0.75" stroke-linecap="round"/>
    <path d="M9.38138 25.5853C9.36868 25.6222 9.35071 25.6566 9.32683 25.6881" stroke="#F8F2EA" stroke-width="0.75" stroke-linecap="round"/>
    <path d="M9.2648 25.5109C9.24193 25.5181 9.22241 25.5317 9.19893 25.5374C9.18395 25.5411 9.17178 25.5464 9.16035 25.5562" stroke="#F8F2EA" stroke-width="0.75" stroke-linecap="round"/>
    <path d="M9.15746 25.5565C9.13975 25.5745 9.11346 25.58 9.09178 25.5925C9.08368 25.5971 9.07531 25.6008 9.06648 25.6041C9.05871 25.6069 9.05292 25.6115 9.04651 25.6164C9.03546 25.6248 9.02197 25.6294 9.00959 25.6359C9.00313 25.6393 8.99682 25.6428 8.9904 25.6462C8.98639 25.6484 8.98433 25.6484 8.98918 25.6496" stroke="#F8F2EA" stroke-width="0.75" stroke-linecap="round"/>
    <path d="M9.12156 25.565C9.11188 25.5754 9.10168 25.5859 9.09037 25.5948C9.08401 25.5997 9.0633 25.612 9.07112 25.6095" stroke="#F8F2EA" stroke-width="0.75" stroke-linecap="round"/>
    <path d="M9.09786 25.5822C9.09307 25.5829 9.08965 25.5879 9.0865 25.591C9.084 25.5934 9.08104 25.5953 9.07825 25.5974C9.06591 25.6066 9.05452 25.6136 9.03872 25.6169C9.02424 25.6199 9.01435 25.6301 9.00077 25.635C8.99408 25.6374 8.98725 25.6393 8.98081 25.6423C8.97458 25.6452 8.96933 25.6495 8.96311 25.6525C8.95184 25.6578 8.94245 25.6654 8.93056 25.6699C8.91641 25.6752 8.90345 25.6825 8.88928 25.6878C8.88202 25.6904 8.87508 25.6936 8.86876 25.6979C8.86191 25.7026 8.85859 25.7084 8.85414 25.7149C8.85057 25.7201 8.84461 25.7239 8.83986 25.7281C8.83533 25.7321 8.83151 25.7375 8.8256 25.7368" stroke="#F8F2EA" stroke-width="0.75" stroke-linecap="round"/>
    <path d="M5.85868 27.1294C5.88538 27.0426 5.91999 26.9569 5.96924 26.8792C6.00387 26.8246 6.05063 26.7781 6.08461 26.7231C6.12096 26.6643 6.14315 26.6015 6.17259 26.5397C6.21849 26.4433 6.28674 26.359 6.35249 26.2743C6.41124 26.1985 6.47167 26.1246 6.52363 26.0444C6.58247 25.9536 6.63809 25.8638 6.71098 25.782C6.76369 25.7228 6.82315 25.6711 6.88253 25.618C6.94833 25.5593 6.9943 25.486 7.04478 25.4156C7.09604 25.3442 7.14435 25.2702 7.20491 25.2053C7.28371 25.1209 7.36946 25.043 7.46014 24.9699C7.55169 24.8961 7.64639 24.8276 7.75466 24.7764C7.81461 24.7481 7.8733 24.7204 7.93079 24.6878C8.11901 24.5813 8.30024 24.462 8.49838 24.3722C8.59105 24.3302 8.68398 24.291 8.78191 24.2605C8.91235 24.2198 9.04467 24.1872 9.17148 24.137C9.25826 24.1026 9.34267 24.063 9.43255 24.0357C9.5332 24.0051 9.6337 23.9756 9.73382 23.9434C9.884 23.8951 10.0402 23.8619 10.1881 23.8084C10.3569 23.7472 10.5127 23.6655 10.6705 23.5842C10.8547 23.4892 11.0545 23.4078 11.2127 23.2751C11.3038 23.1987 11.371 23.0983 11.4527 23.0133C11.5339 22.9288 11.6193 22.8467 11.695 22.7578C11.7589 22.6827 11.8053 22.5957 11.8539 22.5115C11.896 22.4386 11.9321 22.3651 11.9643 22.2879C11.9943 22.2161 12.015 22.1425 12.0363 22.068C12.0614 21.9803 12.0897 21.8933 12.1073 21.8038C12.1373 21.6513 12.1304 21.5021 12.1255 21.3476" stroke="#F8F2EA" stroke-width="0.75" stroke-linecap="round"/>
    <path d="M12.1321 21.2965C12.1328 21.1142 12.1366 20.934 12.1259 20.7518C12.1146 20.5603 12.1211 20.3687 12.1132 20.1773C12.1092 20.0813 12.0973 19.9862 12.0813 19.8912C12.0575 19.7492 12.0434 19.6096 12.0356 19.4662C12.0301 19.3657 12.0247 19.265 12.0173 19.1646C12.0091 19.0522 11.9877 18.9408 11.9893 18.828C11.992 18.6423 12.0222 18.4613 12.0014 18.2751C11.99 18.173 11.9809 18.0723 11.9825 17.9697C11.9843 17.8519 11.9911 17.735 11.9826 17.6172C11.9695 17.4345 11.9715 17.2507 11.9653 17.0677C11.9626 16.988 11.9662 16.9081 11.9573 16.8285C11.9495 16.7585 11.9323 16.6918 11.9128 16.6239" stroke="#F8F2EA" stroke-width="0.75" stroke-linecap="round"/>
    <path d="M11.9109 16.638C11.8966 16.6043 11.8811 16.5694 11.8587 16.5396C11.8212 16.4901 11.764 16.4712 11.7043 16.4551C11.5064 16.4017 11.3095 16.3953 11.1061 16.3975C11.0193 16.3984 10.941 16.4112 10.8567 16.4281C10.7671 16.4459 10.6789 16.4507 10.5876 16.4547C10.51 16.458 10.4333 16.4663 10.356 16.4733C10.2696 16.481 10.1811 16.4782 10.0974 16.5012C10.0263 16.5206 9.95446 16.5426 9.88567 16.5682C9.80999 16.5963 9.72639 16.6288 9.67051 16.6865C9.62483 16.7337 9.60022 16.7972 9.58286 16.858C9.56076 16.9354 9.54334 17.0135 9.51855 17.0903C9.46665 17.2511 9.40292 17.4105 9.38914 17.5799C9.37577 17.7442 9.38121 17.9103 9.35357 18.0733C9.32926 18.2166 9.26623 18.3464 9.2279 18.4857C9.20327 18.5752 9.18189 18.6652 9.16454 18.7563C9.1188 18.9964 9.07603 19.2423 8.97646 19.4685C8.90787 19.6243 8.82441 19.7744 8.77372 19.9369C8.75301 20.0033 8.73519 20.0703 8.70988 20.1353C8.6695 20.2391 8.61615 20.3366 8.56614 20.4362C8.514 20.5401 8.47065 20.6478 8.42348 20.7537C8.33901 20.9435 8.25265 21.1329 8.15544 21.3171C8.03658 21.5423 7.90331 21.7618 7.77106 21.9799" stroke="#F8F2EA" stroke-width="0.75" stroke-linecap="round"/>
    <path d="M7.77392 21.9566C7.72801 22.0208 7.70208 22.0928 7.67266 22.1646C7.62325 22.2851 7.54924 22.3853 7.46864 22.4888C7.38026 22.6024 7.3226 22.7289 7.24865 22.8506C7.17145 22.9777 7.0933 23.102 7.02474 23.2334C6.95124 23.3743 6.85623 23.5035 6.76256 23.6327C6.61309 23.8389 6.47468 24.0516 6.31157 24.2488C6.16064 24.4312 6.00334 24.6083 5.86277 24.7982C5.77389 24.9183 5.69326 25.0467 5.59684 25.1615C5.53213 25.2386 5.45946 25.2563 5.35646 25.2601C5.25181 25.264 5.14814 25.2533 5.04651 25.2279C4.94855 25.2035 4.88192 25.1508 4.82997 25.0689C4.79988 25.0215 4.782 24.9701 4.75927 24.9197C4.73529 24.8665 4.70497 24.8158 4.67288 24.7665C4.62932 24.6995 4.57091 24.6375 4.54613 24.5616C4.53461 24.5262 4.53602 24.4924 4.53655 24.4561C4.53737 24.4007 4.53265 24.3461 4.52719 24.291C4.5177 24.1949 4.5095 24.0975 4.5075 24.0012C4.50523 23.8917 4.5205 23.7826 4.53357 23.6743" stroke="#F8F2EA" stroke-width="0.75" stroke-linecap="round"/>
    <path d="M4.52619 23.8194C4.54607 23.5959 4.56895 23.3717 4.61186 23.1513C4.62783 23.0693 4.64246 22.9876 4.65142 22.9045C4.6599 22.8259 4.66458 22.7466 4.68234 22.6692C4.69683 22.6061 4.72441 22.5497 4.74889 22.49C4.77642 22.4229 4.79977 22.353 4.82094 22.2838C4.87879 22.0946 4.89504 21.901 4.92435 21.7068C4.95501 21.5036 4.98818 21.3008 5.01827 21.0975C5.05522 20.8478 5.11445 20.6015 5.14988 20.3516C5.17461 20.1772 5.19228 20.0021 5.22225 19.8284C5.25488 19.6394 5.2947 19.4514 5.33233 19.2633C5.37147 19.0676 5.41188 18.8719 5.43806 18.674C5.4613 18.4985 5.47497 18.3222 5.50222 18.1472" stroke="#F8F2EA" stroke-width="0.75" stroke-linecap="round"/>
    <path d="M5.49408 18.1745C5.49429 18.0783 5.49096 17.9826 5.49593 17.8865C5.50528 17.7054 5.53806 17.5314 5.57033 17.3533C5.60086 17.185 5.63911 17.0165 5.66024 16.8467C5.67563 16.723 5.66812 16.6002 5.65894 16.4762" stroke="#F8F2EA" stroke-width="0.75" stroke-linecap="round"/>
    <path d="M18.4197 7.74355C18.4327 7.67822 18.4456 7.61299 18.4628 7.54854C18.5007 7.40723 18.5544 7.27181 18.6103 7.13636C18.7039 6.90972 18.8001 6.68087 18.8529 6.44162C18.8734 6.34855 18.8867 6.25412 18.9088 6.16134C18.9393 6.03264 18.9851 5.90886 19.0376 5.78704C19.0954 5.65307 19.1692 5.52654 19.2291 5.39386" stroke="#F8F2EA" stroke-width="0.75" stroke-linecap="round"/>
    <path d="M21.8405 3.65374C21.8234 3.63202 21.82 3.59387 21.8131 3.56891C21.7947 3.50335 21.7671 3.44762 21.7279 3.39046C21.6894 3.33439 21.6485 3.27682 21.5969 3.23042C21.5347 3.1746 21.4579 3.14625 21.377 3.12454C21.3087 3.10623 21.2395 3.08945 21.1701 3.07607C21.0384 3.0507 20.9048 3.04127 20.7717 3.0258C20.6707 3.01405 20.5701 2.99679 20.4687 2.98875C20.4027 2.98351 20.3365 2.98213 20.2704 2.9813C20.2148 2.98061 20.1579 2.97878 20.1026 2.98562C20.0284 2.99483 19.9534 3.01684 19.8847 3.04378C19.8475 3.05838 19.8109 3.07458 19.7741 3.09001C19.7465 3.10159 19.7153 3.1123 19.6937 3.13305C19.6536 3.17159 19.6384 3.23766 19.6224 3.28763C19.6013 3.35361 19.5823 3.42033 19.5625 3.48669C19.5475 3.53715 19.5289 3.58569 19.5104 3.63504C19.481 3.71358 19.4671 3.80046 19.4605 3.88352C19.4573 3.92438 19.4581 3.96526 19.4694 4.00531C19.4784 4.03737 19.4956 4.06674 19.5115 4.09612C19.5478 4.16284 19.5758 4.22627 19.5808 4.30144C19.5852 4.36684 19.5835 4.43239 19.5878 4.49783C19.5929 4.57413 19.6047 4.65422 19.5864 4.72946C19.56 4.83816 19.4348 4.88075 19.3316 4.90576C19.2688 4.92099 19.2019 4.93184 19.1366 4.93091C19.0393 4.92952 18.9395 4.90854 18.8438 4.89245C18.7476 4.87627 18.6546 4.86781 18.5569 4.86808C18.4244 4.86844 18.2914 4.8758 18.1694 4.92708C18.0654 4.9708 17.9888 5.04566 17.9189 5.12802C17.8723 5.18294 17.8313 5.24081 17.7975 5.30362C17.7634 5.36703 17.7375 5.43371 17.7088 5.49935C17.6643 5.60115 17.6077 5.69701 17.5572 5.79607C17.4902 5.92724 17.4315 6.06146 17.3849 6.20044C17.356 6.28635 17.3307 6.37329 17.3022 6.45928C17.2657 6.5692 17.2216 6.67661 17.1847 6.78642C17.147 6.89849 17.1197 7.01301 17.0856 7.12604C17.0613 7.20652 17.0383 7.28526 17.0219 7.36757" stroke="#F8F2EA" stroke-width="0.75" stroke-linecap="round"/>
    <path d="M21.8357 3.6448C21.8533 3.73145 21.869 3.81492 21.8669 3.90339C21.8654 3.9685 21.8583 4.03445 21.8483 4.09871C21.8346 4.18606 21.8236 4.2737 21.8101 4.36106C21.7769 4.57752 21.7224 4.78881 21.6759 5.00276C21.6302 5.21313 21.5765 5.42466 21.5066 5.62871C21.4185 5.88555 21.3393 6.1462 21.2736 6.40923C21.2302 6.58287 21.1853 6.75619 21.1411 6.92963C21.1005 7.08882 21.0445 7.24305 20.9925 7.39893C20.9155 7.62989 20.8628 7.86883 20.7697 8.09482C20.7508 8.14077 20.7303 8.18601 20.7133 8.23268C20.6842 8.31237 20.664 8.39443 20.6409 8.47581C20.6227 8.53987 20.6034 8.60374 20.5796 8.66614C20.5601 8.71745 20.534 8.76271 20.5071 8.81046" stroke="#F8F2EA" stroke-width="0.75" stroke-linecap="round"/>
    <path d="M17.0161 7.392C17.0105 7.4565 16.9955 7.51955 16.9845 7.58327C16.9687 7.6745 16.9621 7.76651 16.9503 7.85823C16.9246 8.05827 16.8786 8.2559 16.8477 8.45521C16.8345 8.54067 16.8223 8.62628 16.8089 8.71173C16.795 8.80105 16.7755 8.8891 16.7589 8.97793C16.7166 9.20447 16.7087 9.43568 16.6945 9.66524C16.6842 9.83195 16.6788 9.99915 16.6737 10.1661C16.6714 10.2412 16.6745 10.3153 16.6761 10.3903C16.6777 10.4628 16.6738 10.535 16.6699 10.6072C16.6624 10.7457 16.6635 10.8826 16.6735 11.0211C16.6792 11.1 16.6825 11.1784 16.6925 11.2571C16.7033 11.3428 16.7126 11.4279 16.7156 11.5141" stroke="#F8F2EA" stroke-width="0.75" stroke-linecap="round"/>
    <path d="M16.7151 11.5197C16.713 11.5686 16.7194 11.6183 16.7272 11.6667C16.7408 11.7508 16.7563 11.8341 16.7611 11.9191C16.7661 12.0078 16.7616 12.0965 16.7645 12.1852C16.77 12.3488 16.7744 12.5121 16.7725 12.6756C16.7689 12.9954 16.7717 13.3149 16.789 13.6347C16.7951 13.7466 16.8031 13.8585 16.8099 13.9704C16.8175 14.0956 16.8244 14.2242 16.8489 14.3479C16.866 14.4341 16.8937 14.5185 16.9117 14.6047C16.9373 14.7273 16.9601 14.8501 16.9782 14.9738C16.9968 15.1013 17.013 15.2285 17.0376 15.3553C17.0624 15.4822 17.0884 15.609 17.1118 15.7362C17.1501 15.945 17.1912 16.1535 17.234 16.3615C17.2565 16.4712 17.2888 16.5787 17.3151 16.6876C17.3403 16.7919 17.359 16.8976 17.3917 17.0002" stroke="#F8F2EA" stroke-width="0.75" stroke-linecap="round"/>
    <path d="M17.3931 16.9891C17.393 17.0403 17.4104 17.0922 17.4176 17.143C17.4273 17.2101 17.44 17.2767 17.4491 17.3439C17.4763 17.5442 17.516 17.7488 17.5931 17.9385C17.6198 18.0041 17.6402 18.0717 17.666 18.1377C17.7049 18.2371 17.742 18.3358 17.7731 18.4376C17.8397 18.6555 17.892 18.8772 17.9675 19.0927C18.0161 19.2312 18.0675 19.3687 18.1088 19.5093C18.1382 19.6097 18.1677 19.7093 18.2011 19.8087C18.236 19.9126 18.2688 20.0169 18.3045 20.1206C18.3519 20.2587 18.3901 20.3983 18.4306 20.5382C18.4687 20.6696 18.5137 20.8001 18.5617 20.9288C18.62 21.0849 18.6928 21.2355 18.7636 21.387C18.8819 21.64 18.9894 21.897 19.1184 22.1455" stroke="#F8F2EA" stroke-width="0.75" stroke-linecap="round"/>
    <path d="M19.1536 22.2007C19.1818 22.2599 19.2062 22.3199 19.2301 22.3807C19.27 22.4825 19.3235 22.5821 19.3878 22.6725C19.435 22.7389 19.4886 22.8011 19.5337 22.8688C19.5768 22.9335 19.6096 23.0011 19.6351 23.0732C19.6841 23.2116 19.7489 23.3439 19.8097 23.4782C19.8375 23.5396 19.8651 23.601 19.8962 23.661C19.9343 23.7343 19.9747 23.806 20.0094 23.8808C20.0567 23.9823 20.1008 24.0851 20.1486 24.1864C20.1884 24.2708 20.23 24.3531 20.2876 24.4285C20.3133 24.4623 20.3402 24.4926 20.3672 24.5254C20.4071 24.5739 20.4439 24.6236 20.4785 24.6754C20.5246 24.7443 20.5703 24.8087 20.6343 24.8644C20.7 24.9215 20.7723 24.9742 20.845 25.0231C20.9056 25.0639 20.9723 25.1088 21.0457 25.1253C21.1201 25.1421 21.1989 25.1277 21.2709 25.1103C21.3461 25.092 21.426 25.0743 21.4936 25.0376C21.5254 25.0204 21.5548 24.9986 21.5837 24.9776C21.6375 24.9385 21.6905 24.8995 21.7475 24.8644C21.7816 24.8434 21.8141 24.8258 21.8478 24.8043C21.8983 24.7722 21.945 24.7358 21.9918 24.6992C22.0615 24.6448 22.1291 24.5897 22.1869 24.5239C22.2377 24.466 22.2732 24.4008 22.3136 24.3365C22.4042 24.1924 22.5118 24.0508 22.5535 23.8848C22.5771 23.7905 22.5737 23.6917 22.5762 23.5953C22.5786 23.4998 22.5826 23.4039 22.58 23.3083C22.5774 23.2113 22.5631 23.1165 22.5383 23.0221C22.5149 22.9328 22.4891 22.8425 22.4556 22.7559C22.427 22.6817 22.3831 22.6142 22.3468 22.5433C22.3109 22.473 22.2815 22.4012 22.2602 22.3259C22.2273 22.2096 22.2069 22.0907 22.1714 21.9749C22.1475 21.8971 22.1183 21.8204 22.0922 21.7431" stroke="#F8F2EA" stroke-width="0.75" stroke-linecap="round"/>
    <path d="M22.0853 21.7514C22.0768 21.7405 22.0744 21.7257 22.071 21.713C22.0622 21.6802 22.0552 21.647 22.0433 21.615C22.0204 21.5532 21.9869 21.4952 21.956 21.4367C21.9238 21.3759 21.8925 21.3144 21.8702 21.2498C21.8502 21.1917 21.8354 21.1324 21.8124 21.0752C21.7774 20.9882 21.7358 20.9036 21.6999 20.8169C21.674 20.7544 21.6523 20.6907 21.6265 20.6282C21.6061 20.5788 21.5832 20.5301 21.5652 20.4799C21.5451 20.4241 21.5326 20.3662 21.5166 20.3093C21.4947 20.2312 21.4712 20.1536 21.4486 20.0757C21.4204 19.9788 21.4004 19.8815 21.3806 19.7831C21.3653 19.7072 21.3453 19.6326 21.3212 19.5587C21.2878 19.4562 21.2531 19.3543 21.2122 19.2542C21.1631 19.1337 21.116 19.0114 21.0591 18.8938C21.0083 18.7888 20.9506 18.6864 20.8958 18.5831" stroke="#F8F2EA" stroke-width="0.75" stroke-linecap="round"/>
    <path d="M20.8919 18.5862C20.8702 18.5263 20.854 18.4643 20.8384 18.4028C20.8131 18.3028 20.7807 18.2047 20.7554 18.1047C20.7415 18.0498 20.7268 17.995 20.7167 17.9394C20.7049 17.8738 20.6999 17.8075 20.6912 17.7415C20.683 17.6793 20.671 17.6178 20.6575 17.5565C20.6427 17.489 20.6302 17.4213 20.6166 17.3537C20.6006 17.2736 20.5792 17.197 20.5487 17.1206C20.5236 17.0577 20.4983 16.9957 20.48 16.9308C20.4595 16.8583 20.4442 16.7846 20.4202 16.7129C20.3994 16.6506 20.3718 16.5904 20.3505 16.5282C20.2969 16.3711 20.252 16.2092 20.2205 16.0472C20.1775 15.8264 20.1591 15.602 20.1384 15.3789" stroke="#F8F2EA" stroke-width="0.75" stroke-linecap="round"/>
    <path d="M20.1396 15.3844C20.1258 15.339 20.115 15.2929 20.1024 15.2471C20.0734 15.1414 20.0289 15.0409 19.9935 14.937C19.9592 14.8363 19.9424 14.7349 19.9344 14.63C19.9231 14.4829 19.9213 14.3354 19.9266 14.1883C19.9322 14.0317 19.9536 13.8772 19.9669 13.7213C19.9766 13.6077 19.9795 13.4939 19.9814 13.3798C19.9833 13.2601 19.9863 13.14 19.9814 13.0202C19.9745 12.85 19.9415 12.6821 19.9413 12.5115C19.9412 12.4095 19.949 12.3079 19.9529 12.2061C19.9538 12.1812 19.9547 12.1563 19.9549 12.1313C19.956 11.9803 19.9533 12.1601 19.9509 12.0404" stroke="#F8F2EA" stroke-width="0.75" stroke-linecap="round"/>
    <path d="M19.9609 12.0039C19.9657 11.951 19.9547 11.8983 19.9579 11.8453C19.9614 11.7871 19.977 11.7311 19.9896 11.6743C20.0006 11.6245 20.0077 11.574 20.015 11.5235C20.0328 11.4009 20.0408 11.277 20.0609 11.1547C20.0701 11.0982 20.0862 11.0435 20.0974 10.9875C20.1084 10.9332 20.1142 10.8778 20.1239 10.8232C20.1359 10.7556 20.15 10.688 20.1692 10.6219C20.1814 10.5796 20.1977 10.5385 20.2082 10.4957C20.2215 10.441 20.23 10.3853 20.2388 10.3298C20.2493 10.2642 20.2625 10.1992 20.2744 10.1339C20.2896 10.0507 20.3023 9.96711 20.3137 9.88332C20.3239 9.80858 20.3386 9.73497 20.3522 9.66081C20.3792 9.51372 20.4034 9.36651 20.4199 9.21789" stroke="#F8F2EA" stroke-width="0.75" stroke-linecap="round"/>
    <path d="M20.4151 9.24244C20.4123 9.14865 20.4418 9.06057 20.454 8.96856C20.4671 8.86942 20.477 8.77021 20.5176 8.67742C20.5432 8.61909 20.5688 8.56099 20.5967 8.50364C20.6271 8.44114 20.6585 8.37964 20.6843 8.31523" stroke="#F8F2EA" stroke-width="0.75" stroke-linecap="round"/>
    <path d="M11.3995 30.7018C11.4061 30.7072 11.4133 30.7115 11.4201 30.7166C11.4295 30.7236 11.4375 30.7321 11.447 30.739C11.4635 30.7509 11.4786 30.7645 11.495 30.7764C11.5054 30.784 11.5164 30.7898 11.5287 30.7943C11.5403 30.7986 11.5509 30.8034 11.5618 30.8091C11.6 30.8288 11.6399 30.8462 11.6802 30.8618C11.7035 30.8708 11.7253 30.8825 11.7491 30.8907C11.7685 30.8975 11.7883 30.9032 11.8074 30.911C11.8296 30.92 11.8522 30.9286 11.8748 30.9369C11.9028 30.9472 11.9319 30.9536 11.9599 30.9636C11.9801 30.9708 12.0002 30.9745 12.0212 30.9789C12.0526 30.9855 12.0838 30.9926 12.1153 30.9989C12.1452 31.0048 12.1748 31.0137 12.2049 31.0185C12.2248 31.0217 12.2451 31.023 12.2652 31.0242C12.2859 31.0254 12.3066 31.024 12.3273 31.0263C12.3569 31.0295 12.3863 31.0344 12.4158 31.0389C12.4533 31.0447 12.4915 31.0475 12.5293 31.0507C12.5607 31.0533 12.592 31.053 12.6234 31.0552C12.6411 31.0565 12.6587 31.0579 12.6764 31.0574C12.6965 31.0568 12.7165 31.0544 12.7364 31.0524C12.7571 31.0504 12.7777 31.0478 12.7981 31.0438C12.8142 31.0406 12.8299 31.036 12.8462 31.0338C12.8619 31.0316 12.8777 31.0319 12.8936 31.031C12.9096 31.03 12.9251 31.0269 12.9408 31.0239C12.9762 31.0171 13.012 31.0115 13.0479 31.0075C13.0633 31.0058 13.0787 31.0044 13.0938 31.0009C13.1118 30.9968 13.1292 30.9898 13.1468 30.9844C13.1879 30.972 13.2298 30.962 13.2711 30.9501C13.3047 30.9405 13.3387 30.9329 13.371 30.9196C13.3877 30.9128 13.4036 30.9043 13.4198 30.8964C13.4413 30.8859 13.4632 30.8761 13.4851 30.8661C13.522 30.8493 13.5584 30.833 13.5972 30.8202C13.6124 30.8151 13.6269 30.8091 13.6416 30.8029C13.6578 30.796 13.6746 30.7902 13.6904 30.7825C13.7237 30.7663 13.7549 30.7461 13.7859 30.7265C13.8036 30.7154 13.822 30.7053 13.8386 30.6927C13.8589 30.6772 13.8764 30.6588 13.8975 30.6441C13.9192 30.6291 13.9432 30.6175 13.9639 30.6012C13.9806 30.5881 13.9962 30.5737 14.0127 30.5604" stroke="#F8F2EA" stroke-width="0.75" stroke-linecap="round"/>
    <path d="M11.5133 30.7924C11.5259 30.7942 11.5361 30.8036 11.5454 30.8111C11.5599 30.8228 11.5777 30.8303 11.5928 30.8413C11.6011 30.8474 11.6108 30.8532 11.6203 30.8574C11.6264 30.8601 11.6313 30.8638 11.6372 30.8666C11.6648 30.8797 11.682 30.9049 11.7089 30.9187C11.7242 30.9266 11.7406 30.9309 11.7555 30.9398C11.7623 30.9438 11.769 30.9482 11.7761 30.9516C11.7863 30.9564 11.7973 30.9594 11.8079 30.9632C11.8445 30.9764 11.8773 30.9974 11.9114 31.0152C11.9309 31.0254 11.9504 31.0356 11.9711 31.0434C11.9838 31.0481 11.9972 31.0504 12.0099 31.0549C12.0199 31.0585 12.0291 31.0639 12.039 31.0677C12.0613 31.0763 12.0843 31.0829 12.1064 31.092C12.1203 31.0977 12.1345 31.1012 12.1489 31.1056C12.1643 31.1102 12.179 31.1164 12.1944 31.1208C12.2062 31.1242 12.2181 31.1266 12.2299 31.1297C12.2544 31.1363 12.2784 31.1447 12.3037 31.1483C12.3223 31.151 12.3411 31.1526 12.3598 31.1557C12.3832 31.1595 12.406 31.1656 12.4291 31.1711C12.4759 31.1822 12.5243 31.1879 12.5724 31.1881C12.6123 31.1882 12.6518 31.1943 12.6916 31.1963C12.7101 31.1972 12.7286 31.1976 12.7471 31.1968C12.7667 31.1959 12.7859 31.1926 12.8055 31.1922C12.8302 31.1916 12.8549 31.195 12.8797 31.1944C12.8992 31.1939 12.9181 31.1892 12.9375 31.1881C12.9547 31.1871 12.972 31.1872 12.9893 31.1861C13.0122 31.1847 13.0347 31.1813 13.0571 31.1767C13.0783 31.1723 13.0983 31.1659 13.1189 31.1595C13.1429 31.152 13.1677 31.1486 13.1924 31.1439C13.2381 31.1353 13.2817 31.1209 13.3267 31.1102C13.3689 31.1002 13.4105 31.091 13.451 31.0761C13.4918 31.0612 13.5275 31.0376 13.5679 31.0218C13.5897 31.0132 13.6124 31.0067 13.6338 30.9973C13.6566 30.9872 13.6772 30.9737 13.6991 30.9623C13.7399 30.941 13.7836 30.9256 13.8227 30.9015C13.8445 30.8881 13.8644 30.8722 13.8869 30.8599C13.9096 30.8474 13.9341 30.8383 13.9571 30.8264C13.9768 30.8163 13.9963 30.8059 14.0146 30.7938C14.0422 30.7756 14.0688 30.7566 14.0976 30.74C14.1509 30.7093 14.207 30.6823 14.255 30.6446" stroke="#F8F2EA" stroke-width="0.75" stroke-linecap="round"/>
    <path d="M14.2562 30.6429C14.264 30.6392 14.2703 30.6287 14.2759 30.6228C14.2862 30.6119 14.2973 30.6026 14.3095 30.5935C14.3306 30.5779 14.3499 30.5599 14.3722 30.5457C14.3857 30.537 14.4011 30.5311 14.4135 30.521C14.4282 30.509 14.4416 30.4954 14.4547 30.4819C14.471 30.465 14.4886 30.4499 14.506 30.434C14.5261 30.4156 14.5432 30.3954 14.5611 30.3752C14.5723 30.3628 14.5851 30.3522 14.5974 30.3408C14.6118 30.3276 14.6253 30.3135 14.6393 30.3C14.6549 30.285 14.6692 30.2697 14.6812 30.2519C14.6903 30.2384 14.7005 30.2273 14.7124 30.2158C14.737 30.1918 14.7608 30.1667 14.7827 30.1406C14.7936 30.1278 14.8037 30.1151 14.8165 30.104C14.8285 30.0935 14.8373 30.0799 14.8477 30.068C14.8617 30.052 14.8788 30.0393 14.8912 30.0218C14.9166 29.9861 14.9399 29.9485 14.9696 29.9157C15.0005 29.8817 15.0255 29.8434 15.0527 29.8067C15.0682 29.7857 15.0824 29.7638 15.0981 29.7429C15.1098 29.7275 15.1228 29.7132 15.1336 29.697C15.1525 29.6685 15.1643 29.6365 15.1846 29.6088C15.1959 29.5935 15.2059 29.5786 15.2132 29.5612C15.2194 29.5465 15.2268 29.5327 15.2343 29.5186C15.2426 29.5031 15.2498 29.4871 15.2581 29.4717C15.2746 29.4413 15.293 29.4124 15.3064 29.3805C15.333 29.3172 15.362 29.2549 15.3906 29.1924" stroke="#F8F2EA" stroke-width="0.75" stroke-linecap="round"/>
    <path d="M15.3875 29.2019C15.3976 29.1466 15.4114 29.0912 15.4378 29.0407C15.4479 29.0212 15.4604 29.0028 15.469 28.9827C15.4749 28.9687 15.4786 28.9542 15.4821 28.9395C15.4901 28.9059 15.5013 28.8732 15.5066 28.8391C15.5089 28.8241 15.5123 28.8109 15.518 28.797C15.5267 28.7757 15.5329 28.7537 15.5379 28.7313C15.545 28.6997 15.5555 28.669 15.5644 28.6378C15.5729 28.6078 15.5789 28.5774 15.5841 28.5467C15.592 28.5 15.6022 28.4531 15.605 28.4057C15.6074 28.3658 15.613 28.3262 15.6151 28.2863" stroke="#F8F2EA" stroke-width="0.75" stroke-linecap="round"/>
    <path d="M15.5007 26.9136C15.5042 26.9283 15.515 26.94 15.5204 26.954C15.5283 26.9743 15.5346 26.995 15.5432 27.0151C15.553 27.0381 15.5618 27.0609 15.5701 27.0844C15.5782 27.1073 15.5838 27.1298 15.5883 27.1535C15.5944 27.1851 15.5974 27.2172 15.6049 27.2485C15.6102 27.2706 15.6183 27.2919 15.6237 27.3139C15.627 27.3277 15.629 27.3418 15.6311 27.3558C15.6362 27.3902 15.6412 27.4248 15.6435 27.4594C15.6461 27.499 15.6503 27.5385 15.6516 27.5781C15.6523 27.6024 15.6497 27.6266 15.65 27.6508C15.6505 27.6832 15.6563 27.7152 15.654 27.7477C15.652 27.7774 15.647 27.8067 15.6461 27.8366C15.6454 27.8632 15.6446 27.8906 15.6472 27.9173C15.6488 27.934 15.649 27.9508 15.6493 27.9675C15.6498 27.9861 15.6506 28.0049 15.6478 28.0233C15.642 28.062 15.6349 28.1005 15.6296 28.1394C15.6251 28.1722 15.6211 28.2049 15.6178 28.2379C15.615 28.2657 15.6139 28.2936 15.6106 28.3214" stroke="#F8F2EA" stroke-width="0.75" stroke-linecap="round"/>
    <path d="M15.5009 26.9148C15.4824 26.8875 15.468 26.8583 15.4554 26.8283C15.4477 26.8099 15.4375 26.7932 15.4274 26.7759C15.4144 26.7533 15.4024 26.7296 15.3857 26.7091C15.3764 26.6978 15.3675 26.6864 15.3589 26.6746C15.3526 26.6659 15.3461 26.6557 15.3386 26.6479C15.3293 26.6383 15.3214 26.6282 15.3128 26.618C15.3072 26.6113 15.3011 26.6038 15.2971 26.5962C15.2921 26.5866 15.279 26.5816 15.2705 26.5748C15.2601 26.5665 15.2512 26.5591 15.2395 26.5522" stroke="#F8F2EA" stroke-width="0.75" stroke-linecap="round"/>
    <path d="M15.3121 26.7913C15.324 26.829 15.3417 26.8644 15.3608 26.8994C15.3739 26.9235 15.3842 26.9479 15.3954 26.9728C15.4153 27.0171 15.4371 27.06 15.4514 27.1062C15.4753 27.1834 15.4862 27.2636 15.4929 27.3432C15.4992 27.4179 15.4842 27.4916 15.4899 27.5663C15.4984 27.6773 15.494 27.7873 15.4905 27.8981C15.4882 27.9698 15.4793 28.0407 15.4716 28.112C15.4645 28.1764 15.457 28.2406 15.4452 28.3045C15.4362 28.3534 15.4253 28.402 15.4173 28.4511C15.4063 28.5186 15.3983 28.5867 15.385 28.6538C15.3736 28.7113 15.358 28.768 15.346 28.8254C15.3341 28.8822 15.3136 28.9362 15.2933 28.9907C15.2763 29.0362 15.2636 29.0831 15.2474 29.1289C15.219 29.2093 15.1662 29.2762 15.126 29.3511C15.1011 29.3978 15.076 29.4445 15.0512 29.4912C15.0283 29.5344 15.0095 29.5789 14.9885 29.6228C14.9707 29.6602 14.9482 29.6946 14.9264 29.73C14.9072 29.7612 14.8906 29.794 14.8659 29.8219C14.8497 29.8402 14.8314 29.8567 14.8143 29.8742C14.8054 29.8833 14.7972 29.8939 14.7871 29.9018C14.7845 29.9038 14.7819 29.9059 14.7787 29.9069C14.7651 29.9112 14.7778 29.9032 14.7655 29.9029" stroke="#F8F2EA" stroke-width="0.75" stroke-linecap="round"/>
    <path d="M14.8059 29.8657C14.7744 29.8992 14.7697 29.9497 14.7387 29.984C14.7218 30.0026 14.7024 30.0189 14.6863 30.0383C14.6675 30.0609 14.6494 30.0841 14.6307 30.1068C14.595 30.1503 14.5589 30.1925 14.52 30.2336C14.469 30.2875 14.4047 30.3295 14.344 30.3731C14.2913 30.4109 14.2382 30.4481 14.1854 30.4859C14.1421 30.5169 14.0993 30.5486 14.0602 30.5842C14.0355 30.6068 14.0114 30.6268 13.9822 30.6444C13.9315 30.6749 13.8813 30.7068 13.8295 30.7357C13.7783 30.7643 13.7211 30.7864 13.6659 30.8071C13.6022 30.8309 13.5359 30.8516 13.4706 30.8712C13.4252 30.8849 13.3798 30.8999 13.3339 30.9119C13.2591 30.9316 13.18 30.9401 13.1033 30.9515C13.0185 30.9642 12.9332 30.9773 12.8472 30.9809C12.7711 30.9842 12.6951 30.9777 12.619 30.9783C12.5544 30.9788 12.4913 30.9815 12.4268 30.9745C12.3816 30.9696 12.3368 30.9621 12.292 30.9546C12.2159 30.942 12.1375 30.9369 12.0622 30.9207C11.9992 30.9071 11.9386 30.8828 11.8775 30.863C11.8454 30.8526 11.8043 30.839 11.7791 30.8166C11.7726 30.8108 11.7618 30.8042 11.7573 30.7969C11.7498 30.7849 11.7484 30.7677 11.7451 30.7544" stroke="#F8F2EA" stroke-width="0.75" stroke-linecap="round"/>
    <path d="M13.3076 31.0032C13.2861 31.0126 13.2616 31.0151 13.2383 31.0174C13.2058 31.0206 13.1737 31.0259 13.141 31.0271C13.0864 31.0292 13.0348 31.0413 12.9832 31.0569C12.9369 31.071 12.891 31.0687 12.8423 31.0672C12.7823 31.0653 12.7216 31.0515 12.6616 31.0537C12.6483 31.0542 12.6356 31.0574 12.6224 31.0587C12.604 31.0604 12.5844 31.0561 12.5662 31.0539C12.5262 31.0491 12.4861 31.0427 12.4459 31.0398C12.4067 31.0369 12.3673 31.0218 12.3289 31.0132C12.2906 31.0047 12.252 30.9995 12.2134 30.9928C12.1856 30.988 12.161 30.9777 12.1341 30.9708C12.1102 30.9647 12.0926 30.9495 12.0705 30.939C12.0518 30.93 12.0368 30.9124 12.0162 30.9075C12.0161 30.9074 11.972 30.8946 11.9749 30.9054C11.9765 30.9111 11.9922 30.9138 11.9972 30.9166C12.0076 30.9226 12.0205 30.9213 12.0318 30.9253C12.0391 30.9279 12.04 30.9355 12.0419 30.9418C12.0441 30.9489 12.0498 30.9473 12.0568 30.9479C12.0861 30.9501 12.1145 30.9615 12.1431 30.9674C12.1597 30.9708 12.1764 30.9728 12.1932 30.9748" stroke="#F8F2EA" stroke-width="0.75" stroke-linecap="round"/>
    <path d="M12.2186 30.9577C12.2189 30.9608 12.2212 30.963 12.2229 30.9656C12.2274 30.9725 12.2292 30.9794 12.2315 30.9871C12.2348 30.9986 12.2448 31.0192 12.2591 31.0226C12.2725 31.0257 12.2835 31.0337 12.2967 31.0369C12.3259 31.044 12.3579 31.045 12.3877 31.0498C12.4126 31.0538 12.4384 31.0567 12.4636 31.055C12.4843 31.0536 12.5029 31.0506 12.5238 31.0526C12.5382 31.0539 12.5517 31.0531 12.5642 31.0607C12.5769 31.0683 12.5651 31.0672 12.5576 31.0672C12.551 31.0672 12.5379 31.0688 12.5522 31.0648C12.5809 31.0566 12.6106 31.0554 12.6406 31.059C12.6711 31.0627 12.6995 31.0766 12.7298 31.0812C12.7537 31.0848 12.7778 31.0814 12.8013 31.0781C12.8384 31.073 12.8726 31.0812 12.9094 31.0839C12.9355 31.0857 12.962 31.0802 12.9873 31.0753C12.9995 31.073 13.0119 31.0694 13.0245 31.0697C13.0358 31.0699 13.0468 31.0735 13.0582 31.0738C13.0707 31.074 13.0822 31.0706 13.094 31.0672C13.1153 31.061 13.1363 31.0554 13.1568 31.0469C13.1905 31.0329 13.2247 31.0287 13.2603 31.0209C13.297 31.0129 13.3321 31.0023 13.3658 30.987C13.4247 30.9604 13.4848 30.9373 13.5411 30.9059C13.5652 30.8925 13.5876 30.8844 13.6135 30.8748C13.6483 30.8619 13.6821 30.8453 13.7151 30.8289C13.7377 30.8176 13.7604 30.8067 13.7829 30.7954C13.8128 30.7804 13.8388 30.7599 13.8664 30.7417C13.8904 30.7258 13.9176 30.7138 13.9421 30.6983C13.9753 30.6774 14.0124 30.6689 14.0475 30.6523C14.0723 30.6406 14.0926 30.6252 14.112 30.607C14.1432 30.5776 14.1762 30.5492 14.2103 30.5228C14.238 30.5012 14.2649 30.4816 14.2903 30.4576C14.3159 30.4335 14.3452 30.4147 14.3728 30.393C14.3939 30.3764 14.4233 30.3581 14.4354 30.3338" stroke="#F8F2EA" stroke-width="0.75" stroke-linecap="round"/>
    <path d="M12.7586 31.021C12.7305 31.0409 12.6977 31.0534 12.6695 31.0729C12.6653 31.0758 12.6412 31.092 12.6406 31.0913" stroke="#F8F2EA" stroke-width="0.75" stroke-linecap="round"/>
    <path d="M15.4927 27.3481C15.4923 27.3662 15.4945 27.3844 15.4956 27.4024C15.4971 27.4263 15.4958 27.4496 15.4956 27.4734C15.4954 27.494 15.5005 27.514 15.5041 27.5343C15.5056 27.5428 15.5065 27.5539 15.5098 27.5607" stroke="#F8F2EA" stroke-width="0.75" stroke-linecap="round"/>
    <path d="M15.5138 27.3667C15.5113 27.3937 15.5129 27.4202 15.5158 27.4472C15.5188 27.4754 15.5161 27.5036 15.5153 27.5318C15.5146 27.56 15.5228 27.5886 15.5264 27.6165C15.5308 27.6518 15.535 27.6868 15.5307 27.722C15.5215 27.7983 15.5139 27.8751 15.5073 27.9517C15.5046 27.9824 15.5077 28.0131 15.5046 28.0437C15.5016 28.0738 15.4971 28.1037 15.4939 28.1339C15.4847 28.2224 15.4779 28.3112 15.4682 28.3997C15.4628 28.4485 15.4544 28.4973 15.4483 28.5462C15.4413 28.6024 15.4255 28.6575 15.407 28.7111C15.3901 28.7603 15.3699 28.809 15.3554 28.859C15.348 28.8842 15.3447 28.9105 15.338 28.9359C15.329 28.9699 15.3162 29.0035 15.3044 29.0367C15.2914 29.0734 15.2778 29.1093 15.2668 29.1467C15.2555 29.1854 15.2383 29.2218 15.2235 29.2593C15.2129 29.2865 15.1992 29.3111 15.1862 29.3372C15.171 29.3678 15.1637 29.4009 15.1516 29.4326C15.1366 29.4717 15.1133 29.5069 15.0949 29.5444C15.0786 29.5775 15.0657 29.6126 15.0471 29.6446C15.0239 29.6846 14.9911 29.7191 14.9629 29.756C14.9377 29.7892 14.9185 29.8258 14.8939 29.8594C14.8674 29.8958 14.8427 29.9352 14.8115 29.9681C14.778 30.0033 14.7413 30.036 14.7074 30.0709C14.6735 30.1056 14.6365 30.1369 14.6009 30.17C14.5774 30.1918 14.5552 30.2237 14.5259 30.2386" stroke="#F8F2EA" stroke-width="0.75" stroke-linecap="round"/>
    <path d="M15.4285 28.7108C15.4255 28.7358 15.4214 28.7609 15.4215 28.7862C15.4216 28.8014 15.4202 28.8154 15.4157 28.83C15.4019 28.8753 15.3842 28.9196 15.3675 28.9639C15.3493 29.0122 15.3289 29.06 15.3095 29.1078C15.2936 29.1468 15.2779 29.186 15.2495 29.2186" stroke="#F8F2EA" stroke-width="0.75" stroke-linecap="round"/>
    <path d="M15.5005 27.9181C15.5019 27.9477 15.5068 27.9767 15.5114 28.006" stroke="#F8F2EA" stroke-width="0.75" stroke-linecap="round"/>
    <path d="M15.536 27.9263C15.5339 27.9435 15.5348 27.9616 15.5317 27.9785C15.5283 27.997 15.5224 28.0153 15.5171 28.0334C15.511 28.0543 15.5077 28.0769 15.5047 28.0983C15.5012 28.1233 15.5021 28.1546 15.4907 28.1775" stroke="#F8F2EA" stroke-width="0.75" stroke-linecap="round"/>
    <path d="M15.4772 28.376C15.4711 28.3893 15.4638 28.4025 15.4621 28.417C15.4615 28.4219 15.4612 28.427 15.4598 28.4318C15.4567 28.4427 15.4403 28.4668 15.4553 28.4729" stroke="#F8F2EA" stroke-width="0.75" stroke-linecap="round"/>
    <path d="M15.4914 28.391C15.4887 28.4114 15.4845 28.431 15.4781 28.4506" stroke="#F8F2EA" stroke-width="0.75" stroke-linecap="round"/>
    <path d="M18.3419 8.08721C18.3561 8.08353 18.3626 8.06322 18.3694 8.05314C18.3764 8.04259 18.3854 8.03331 18.3921 8.02258C18.402 8.00677 18.4082 7.98916 18.418 7.97329C18.4266 7.95917 18.437 7.94614 18.4476 7.93327C18.4634 7.91396 18.475 7.8928 18.4879 7.8717C18.5068 7.84083 18.5269 7.81063 18.5466 7.78024C18.5586 7.76164 18.5705 7.74298 18.5816 7.72384C18.5921 7.7058 18.6014 7.68716 18.6128 7.66963C18.6346 7.63611 18.6582 7.60399 18.6777 7.56915C18.6913 7.54492 18.7042 7.52037 18.7178 7.49616C18.7325 7.47018 18.745 7.44325 18.7602 7.41752C18.7731 7.39575 18.783 7.37207 18.7927 7.34891C18.8091 7.3096 18.8241 7.27043 18.8444 7.23268C18.8662 7.19197 18.8844 7.14987 18.9052 7.10876C18.9225 7.07474 18.941 7.04114 18.9576 7.00683C18.9753 6.97036 18.983 6.93339 18.9885 6.89379" stroke="#F8F2EA" stroke-width="0.75" stroke-linecap="round"/>
    <path d="M18.3604 6.8625C18.3561 6.88463 18.3531 6.90698 18.3501 6.92931C18.3456 6.96249 18.3368 6.99494 18.3354 7.02848C18.3337 7.06528 18.3299 7.10181 18.3265 7.13849C18.3226 7.18108 18.3197 7.22374 18.3162 7.26638C18.3083 7.36325 18.309 7.46104 18.2987 7.55763C18.2953 7.58877 18.2949 7.62078 18.296 7.65211C18.2969 7.67767 18.301 7.70239 18.304 7.72773C18.31 7.78029 18.3143 7.8326 18.3154 7.88534C18.3163 7.92864 18.3195 7.97127 18.3273 8.01397C18.3302 8.0298 18.3334 8.04587 18.3354 8.06183C18.3357 8.06414 18.3358 8.06683 18.3369 8.06897C18.3381 8.07119 18.3408 8.07246 18.3417 8.07478C18.3433 8.07878 18.341 8.08382 18.3429 8.08735" stroke="#F8F2EA" stroke-width="0.75" stroke-linecap="round"/>
    <path d="M18.345 8.07852C18.345 8.07484 18.3426 8.07046 18.3408 8.06738" stroke="#F8F2EA" stroke-width="0.75" stroke-linecap="round"/>
    <path d="M18.3401 8.08487C18.3407 8.07969 18.3385 8.07417 18.3374 8.06909" stroke="#F8F2EA" stroke-width="0.75" stroke-linecap="round"/>
    <path d="M19.3121 5.60869C19.314 5.58799 19.3138 5.56711 19.315 5.54636C19.3165 5.52148 19.3186 5.49669 19.3214 5.47193C19.3261 5.43123 19.3312 5.39038 19.3349 5.34959C19.3392 5.30284 19.3391 5.25526 19.3386 5.2083C19.3384 5.18429 19.3378 5.16046 19.3346 5.13658C19.3336 5.12866 19.334 5.11886 19.3311 5.11133" stroke="#F8F2EA" stroke-width="0.75" stroke-linecap="round"/>
    <path d="M19.3199 5.10242C19.3002 5.11421 19.2774 5.12331 19.2601 5.13816C19.2495 5.14723 19.242 5.15914 19.2336 5.16991C19.2243 5.18192 19.2141 5.19345 19.2041 5.20503C19.1776 5.23588 19.1518 5.26744 19.1244 5.29756C19.0944 5.3305 19.0647 5.36305 19.0385 5.39886C19.0165 5.42901 18.9927 5.45824 18.9727 5.48964C18.9598 5.50993 18.949 5.53136 18.9362 5.5517C18.9241 5.57084 18.9109 5.58936 18.8983 5.60819C18.8719 5.64765 18.8456 5.68706 18.8189 5.72629C18.7963 5.75942 18.777 5.79407 18.7562 5.82815C18.7235 5.88179 18.6891 5.93439 18.6583 5.98906C18.6424 6.01711 18.6319 6.04542 18.6211 6.0755C18.6067 6.11583 18.5898 6.15567 18.5707 6.19423C18.5544 6.22745 18.5369 6.26028 18.5213 6.29383C18.504 6.33105 18.4923 6.3696 18.4806 6.40871C18.4658 6.4581 18.4506 6.50772 18.4337 6.55649C18.422 6.59012 18.4087 6.6232 18.3977 6.65702C18.386 6.69287 18.3757 6.72919 18.3651 6.76534" stroke="#F8F2EA" stroke-width="0.75" stroke-linecap="round"/>
    <path d="M19.3131 5.59973C19.2868 5.70351 19.2766 5.81085 19.2623 5.91662C19.2569 5.95634 19.2494 5.99571 19.2427 6.03522C19.2375 6.06548 19.233 6.09586 19.2268 6.12594C19.2201 6.15803 19.2118 6.18975 19.2049 6.22176C19.198 6.25336 19.1922 6.28519 19.1857 6.31685C19.1802 6.34379 19.1753 6.37091 19.1684 6.39757C19.162 6.42229 19.1544 6.44672 19.1471 6.47119C19.134 6.51504 19.1228 6.55874 19.1063 6.60154C19.0933 6.63525 19.0814 6.66936 19.0681 6.70293C19.0515 6.74466 19.0338 6.78599 19.0171 6.82768" stroke="#F8F2EA" stroke-width="0.75" stroke-linecap="round"/>
    <path d="M19.3314 5.4239C19.3277 5.45398 19.3268 5.48426 19.3224 5.51428C19.3191 5.53672 19.3145 5.55894 19.3118 5.58147C19.3092 5.60257 19.3072 5.62376 19.3047 5.64487" stroke="#F8F2EA" stroke-width="0.75" stroke-linecap="round"/>
    <path d="M19.3337 5.46332C19.3353 5.44662 19.3339 5.42971 19.3349 5.41297C19.336 5.39423 19.3361 5.37521 19.3384 5.35657" stroke="#F8F2EA" stroke-width="0.75" stroke-linecap="round"/>
    <path d="M19.3363 5.37397C19.3423 5.372 19.3374 5.33924 19.3373 5.33542C19.337 5.32088 19.3356 5.30628 19.3359 5.29175" stroke="#F8F2EA" stroke-width="0.75" stroke-linecap="round"/>
    <path d="M19.3103 5.60535C19.3112 5.59917 19.3132 5.59327 19.3143 5.58712C19.316 5.57743 19.3166 5.56758 19.3183 5.55788C19.3201 5.54771 19.3233 5.53799 19.3258 5.52799C19.3281 5.5189 19.329 5.50955 19.3312 5.50042C19.342 5.45362 19.3362 5.40551 19.334 5.35803" stroke="#F8F2EA" stroke-width="0.75" stroke-linecap="round"/>
    <path d="M19.0164 6.82557C19.0064 6.85478 18.9938 6.88281 18.9863 6.91281" stroke="#F8F2EA" stroke-width="0.75" stroke-linecap="round"/>
    <path d="M18.3574 6.87006C18.3615 6.84802 18.3617 6.82658 18.3635 6.80436C18.3652 6.78315 18.367 6.76192 18.3689 6.74072" stroke="#F8F2EA" stroke-width="0.75" stroke-linecap="round"/>
    <path d="M18.3651 6.76546C18.3708 6.76556 18.3754 6.72551 18.3787 6.72071" stroke="#F8F2EA" stroke-width="0.75" stroke-linecap="round"/>
    <path d="M18.3647 6.78464C18.3663 6.77081 18.3668 6.75624 18.3707 6.74284" stroke="#F8F2EA" stroke-width="0.75" stroke-linecap="round"/>
    <path d="M18.3651 6.78093C18.3676 6.76031 18.3741 6.74023 18.3766 6.71949" stroke="#F8F2EA" stroke-width="0.75" stroke-linecap="round"/>
    <path d="M18.3649 6.78395C18.3717 6.75524 18.3789 6.72633 18.3846 6.69739" stroke="#F8F2EA" stroke-width="0.75" stroke-linecap="round"/>
    <path d="M18.3678 7.71473C18.3709 7.68557 18.3697 7.65758 18.3646 7.62859C18.3611 7.60882 18.36 7.58893 18.3594 7.56896C18.3588 7.55091 18.357 7.53291 18.3564 7.51486C18.3552 7.47704 18.3562 7.43915 18.3596 7.40151C18.3612 7.38404 18.3639 7.36668 18.3654 7.3492C18.3675 7.32619 18.368 7.30307 18.3698 7.28005C18.3733 7.23594 18.3814 7.19276 18.3892 7.14931C18.3934 7.12599 18.396 7.10242 18.4003 7.07911C18.4076 7.03933 18.416 6.99966 18.4243 6.96007C18.4263 6.95073 18.4292 6.94126 18.4303 6.93175C18.4317 6.92015 18.4322 6.90876 18.4341 6.89712C18.4455 6.82919 18.4546 6.76152 18.4615 6.69298" stroke="#F8F2EA" stroke-width="0.75" stroke-linecap="round"/>
    <path d="M18.3844 7.02827C18.3971 6.99218 18.4106 6.9557 18.4197 6.91861C18.4244 6.8992 18.4294 6.87907 18.4308 6.8591C18.4317 6.84749 18.4306 6.83551 18.431 6.82379C18.4319 6.80099 18.4333 6.78017 18.4384 6.75777C18.4453 6.72685 18.4624 6.70424 18.4823 6.6793C18.5019 6.65476 18.5211 6.6299 18.5402 6.60505C18.5578 6.58215 18.5768 6.56113 18.5988 6.54176C18.6448 6.50135 18.6969 6.46758 18.742 6.42622C18.7623 6.40751 18.7803 6.387 18.7973 6.36556C18.801 6.3609 18.8111 6.34633 18.8084 6.35158C18.8029 6.36257 18.7951 6.37246 18.7886 6.38299C18.7527 6.44117 18.718 6.50009 18.6829 6.55871C18.6589 6.59874 18.6395 6.63868 18.6242 6.68247C18.6128 6.71524 18.6026 6.74835 18.5906 6.78097C18.5754 6.82253 18.5602 6.86363 18.5482 6.90621C18.525 6.98938 18.4983 7.07184 18.4713 7.15398C18.4623 7.18128 18.4536 7.21075 18.4404 7.23655C18.4398 7.23771 18.4371 7.24017 18.437 7.23887C18.4367 7.23216 18.4385 7.22553 18.4395 7.21889C18.4498 7.1475 18.4466 7.18096 18.4569 7.09546C18.4745 6.94875 18.4776 6.79834 18.5161 6.65496" stroke="#F8F2EA" stroke-width="0.75" stroke-linecap="round"/>
    <path d="M18.4614 7.81606C18.4793 7.76531 18.523 7.72706 18.5476 7.67955C18.5651 7.64572 18.5784 7.61055 18.592 7.57519C18.5983 7.55867 18.6074 7.54303 18.6151 7.52708C18.6267 7.50314 18.6388 7.47931 18.6486 7.45464C18.6599 7.42603 18.6705 7.39803 18.6843 7.37024C18.7248 7.28878 18.7664 7.20768 18.7996 7.1232C18.8334 7.03691 18.8603 6.94829 18.8931 6.86161C18.9329 6.7562 18.9767 6.65018 19.0015 6.54029C19.0089 6.50713 19.0134 6.4734 19.0185 6.43986C19.0257 6.39307 19.0343 6.3466 19.0434 6.30015C19.0522 6.25541 19.0599 6.21054 19.0675 6.1656" stroke="#F8F2EA" stroke-width="0.75" stroke-linecap="round"/>
    <path d="M19.1167 6.38617C19.1048 6.41573 19.0974 6.44704 19.0881 6.47737C19.0777 6.51133 19.0646 6.54401 19.0518 6.57714C19.0407 6.60565 19.0325 6.63513 19.0232 6.6642C19.0156 6.68787 19.0063 6.71083 18.9965 6.73376C18.9807 6.77105 18.9672 6.80839 18.9578 6.84757C18.9512 6.87471 18.9433 6.90024 18.9332 6.92628C18.9165 6.96961 18.9031 7.01409 18.8872 7.05768C18.8639 7.12124 18.8276 7.17759 18.7921 7.23536C18.7721 7.26786 18.7556 7.30193 18.738 7.3356C18.7196 7.37088 18.7006 7.40589 18.6821 7.44115C18.6625 7.47841 18.6412 7.51484 18.6217 7.55211C18.6195 7.55648 18.6169 7.56037 18.6138 7.56426" stroke="#F8F2EA" stroke-width="0.75" stroke-linecap="round"/>
    <path d="M19.2681 5.49372C19.2433 5.53743 19.2188 5.58134 19.202 5.62857C19.1834 5.68116 19.1705 5.73506 19.1599 5.78961C19.1414 5.8849 19.1159 5.97864 19.0943 6.07328C19.08 6.13613 19.0669 6.19923 19.058 6.26306C19.054 6.29173 19.0497 6.33216 19.0481 6.36146C19.0438 6.43759 19.0493 6.36693 19.0474 6.43786" stroke="#F8F2EA" stroke-width="0.75" stroke-linecap="round"/>
    <path d="M19.2777 5.48484C19.2674 5.52556 19.2625 5.56781 19.2573 5.60939C19.25 5.66666 19.2414 5.72337 19.2301 5.78002C19.2211 5.82538 19.2134 5.87087 19.2054 5.9164C19.1969 5.96462 19.1847 6.01212 19.1722 6.05949C19.1613 6.10093 19.1505 6.14237 19.1397 6.18382C19.1289 6.22507 19.115 6.2655 19.1034 6.30652C19.0961 6.33222 19.0905 6.35733 19.0873 6.38372" stroke="#F8F2EA" stroke-width="0.75" stroke-linecap="round"/>
    <path d="M19.1059 6.39606C19.1116 6.38102 19.1172 6.36593 19.1224 6.35071C19.1269 6.33766 19.1285 6.32444 19.131 6.31096C19.1359 6.28511 19.1459 6.26048 19.1503 6.23453" stroke="#F8F2EA" stroke-width="0.75" stroke-linecap="round"/>
    <path d="M18.4714 6.64244C18.4807 6.61895 18.4887 6.59504 18.4978 6.57146C18.5019 6.56055 18.5116 6.52712 18.5102 6.53868" stroke="#F8F2EA" stroke-width="0.75" stroke-linecap="round"/>
    <path d="M18.4464 6.69123C18.4434 6.68813 18.4518 6.67637 18.4534 6.67317" stroke="#F8F2EA" stroke-width="0.75" stroke-linecap="round"/>
    <path d="M18.5006 6.55754C18.52 6.51977 18.5368 6.48088 18.5576 6.44376C18.5801 6.40352 18.6011 6.36299 18.6209 6.32148C18.6582 6.24323 18.6951 6.16461 18.7341 6.08711C18.7761 6.00367 18.8245 5.92332 18.8707 5.84196C18.9119 5.76936 18.9515 5.6958 18.9951 5.62445C19.0279 5.57085 19.0621 5.51853 19.0926 5.46366C19.1152 5.42286 19.1382 5.38091 19.169 5.34495" stroke="#F8F2EA" stroke-width="0.75" stroke-linecap="round"/>
    <path d="M18.65 6.44985C18.6683 6.40968 18.6863 6.36937 18.7057 6.32966C18.7215 6.29736 18.7386 6.26565 18.7537 6.23308C18.7695 6.19922 18.7832 6.16535 18.7887 6.12859" stroke="#F8F2EA" stroke-width="0.75" stroke-linecap="round"/>
    <path d="M18.5118 6.47332C18.53 6.41838 18.5557 6.3661 18.5805 6.3137C18.6069 6.25779 18.6476 6.20824 18.6689 6.15028C18.6749 6.13374 18.6835 6.11774 18.6872 6.10047C18.6896 6.08919 18.692 6.0782 18.696 6.06725C18.7081 6.03446 18.7239 6.00269 18.7373 5.97036C18.7498 5.94027 18.7666 5.91153 18.7806 5.88205C18.7879 5.86682 18.7966 5.85225 18.8048 5.83747C18.8099 5.82834 18.8143 5.81559 18.8228 5.80857C18.8367 5.79709 18.8454 5.78486 18.855 5.76995C18.8914 5.71388 18.93 5.65916 18.9652 5.60236C19.0053 5.53759 19.0437 5.47174 19.0908 5.41118" stroke="#F8F2EA" stroke-width="0.75" stroke-linecap="round"/>
    <path d="M19.2654 5.20211C19.26 5.23732 19.2588 5.27427 19.2478 5.30841" stroke="#F8F2EA" stroke-width="0.75" stroke-linecap="round"/>
    <path d="M19.3064 5.13353C19.3013 5.14385 19.2964 5.15418 19.2916 5.1646C19.2809 5.18786 19.2671 5.20951 19.2564 5.23286C19.2391 5.27096 19.2126 5.3059 19.1877 5.33984C19.1833 5.34593 19.1785 5.34515 19.1714 5.34301C19.1643 5.34087 19.165 5.33409 19.1653 5.32821C19.1659 5.31705 19.1677 5.30347 19.1738 5.29379C19.1805 5.28328 19.1922 5.27698 19.1994 5.26688C19.2068 5.25666 19.2147 5.24623 19.2245 5.23793C19.2325 5.23113 19.2404 5.22555 19.2464 5.21703C19.2525 5.20857 19.2584 5.19956 19.2654 5.19173C19.2691 5.18746 19.2742 5.1846 19.278 5.18037C19.2873 5.17016 19.2856 5.17342 19.292 5.17419C19.3049 5.17574 19.3052 5.1967 19.3059 5.20623C19.3068 5.22071 19.3057 5.23408 19.305 5.24858C19.3039 5.2746 19.2989 5.30024 19.3017 5.32632C19.3055 5.36297 19.3062 5.39951 19.3091 5.43617" stroke="#F8F2EA" stroke-width="0.75" stroke-linecap="round"/>
    <path d="M18.4042 7.86064C18.3906 7.88894 18.3839 7.91887 18.3758 7.94877C18.371 7.96607 18.3621 7.982 18.3581 7.99945C18.3557 8.0098 18.3476 8.04053 18.3489 8.02999C18.3494 8.02558 18.3492 8.0293 18.3484 8.03125C18.3435 8.04185 18.3465 8.02366 18.3468 8.02081C18.3483 8.00856 18.35 7.99687 18.3487 7.98452C18.3462 7.95989 18.3419 7.93531 18.3398 7.91071C18.3375 7.88382 18.3319 7.85698 18.3312 7.83001C18.3311 7.82422 18.3301 7.80875 18.34 7.81967C18.3555 7.83671 18.3641 7.85795 18.3699 7.87922C18.3732 7.8913 18.3766 7.88723 18.3861 7.88085C18.4006 7.87105 18.4169 7.85925 18.4351 7.85618C18.4541 7.85298 18.4601 7.88251 18.452 7.89401C18.4367 7.91592 18.4172 7.9348 18.3992 7.9545C18.3903 7.96431 18.3852 7.97512 18.378 7.98541" stroke="#F8F2EA" stroke-width="0.75" stroke-linecap="round"/>
    <path d="M18.7746 7.38066C18.7845 7.34808 18.8085 7.32058 18.8227 7.28994C18.8345 7.2646 18.8454 7.23906 18.8567 7.21354" stroke="#F8F2EA" stroke-width="0.75" stroke-linecap="round"/>
    <path d="M19.0309 6.78251C19.0229 6.80256 19.0218 6.82453 19.0123 6.84387C19.003 6.86305 18.9991 6.88478 18.9922 6.90488" stroke="#F8F2EA" stroke-width="0.75" stroke-linecap="round"/>
    <path d="M19.0185 6.81689C19.0065 6.85431 18.9936 6.8912 18.9765 6.92691" stroke="#F8F2EA" stroke-width="0.75" stroke-linecap="round"/>
    <path d="M18.3406 8.08702C18.3355 8.0864 18.3387 8.07765 18.3387 8.07442C18.3389 8.06683 18.3354 8.05637 18.3323 8.04931C18.3233 8.02874 18.3234 8.00426 18.3181 7.98267" stroke="#F8F2EA" stroke-width="0.75" stroke-linecap="round"/>
    <path d="M18.339 8.08517C18.3412 8.06698 18.3424 8.04833 18.3376 8.03027C18.3324 8.01021 18.3221 7.99122 18.3173 7.97092C18.3139 7.95666 18.3106 7.94169 18.3105 7.9271C18.3103 7.90613 18.312 7.88495 18.3093 7.86411C18.3021 7.80878 18.3061 7.75305 18.3127 7.698" stroke="#F8F2EA" stroke-width="0.75" stroke-linecap="round"/>
    <path d="M18.3427 8.06698C18.3413 8.05795 18.3396 8.049 18.3379 8.04004" stroke="#F8F2EA" stroke-width="0.75" stroke-linecap="round"/>
    <path d="M18.337 8.07437C18.3386 8.06115 18.3351 8.04508 18.3325 8.03198" stroke="#F8F2EA" stroke-width="0.75" stroke-linecap="round"/>
    <path d="M18.3367 8.07573C18.3353 8.06773 18.3334 8.05964 18.3316 8.0517C18.3294 8.04144 18.333 8.03033 18.3323 8.0199" stroke="#F8F2EA" stroke-width="0.75" stroke-linecap="round"/>
    <path d="M18.8331 7.26421C18.8195 7.28515 18.8137 7.31089 18.804 7.3336C18.7923 7.36122 18.7813 7.38877 18.7672 7.41543" stroke="#F8F2EA" stroke-width="0.75" stroke-linecap="round"/>
    <path d="M18.765 7.42094C18.753 7.43896 18.7482 7.45973 18.7343 7.47702" stroke="#F8F2EA" stroke-width="0.75" stroke-linecap="round"/>
    <path d="M18.7325 7.47951C18.7294 7.49122 18.7207 7.50352 18.7126 7.51278C18.6875 7.54148 18.6663 7.57334 18.6416 7.60228" stroke="#F8F2EA" stroke-width="0.75" stroke-linecap="round"/>
    </svg>
    